{
    "track_id": "02 Start Demo",
    "mood": "angry",
    "instruments": {
        "Electric Guitar (clean)": [
            {
                "start_time": 0.056818181818181816,
                "end_time": 0.27954545454545454,
                "pitch": 28,
                "velocity": 127,
                "duration": 0.22272727272727272,
                "tempo": 120.0
            },
            {
                "start_time": 0.35454545454545455,
                "end_time": 0.4659090909090909,
                "pitch": 28,
                "velocity": 127,
                "duration": 0.11136363636363633,
                "tempo": 120.0
            },
            {
                "start_time": 0.5045454545454545,
                "end_time": 0.6159090909090909,
                "pitch": 28,
                "velocity": 127,
                "duration": 0.11136363636363633,
                "tempo": 120.0
            },
            {
                "start_time": 0.6545454545454545,
                "end_time": 0.7659090909090909,
                "pitch": 35,
                "velocity": 127,
                "duration": 0.11136363636363633,
                "tempo": 120.0
            },
            {
                "start_time": 0.8022727272727272,
                "end_time": 0.9136363636363636,
                "pitch": 28,
                "velocity": 127,
                "duration": 0.11136363636363633,
                "tempo": 120.0
            },
            {
                "start_time": 0.9522727272727273,
                "end_time": 1.1727272727272726,
                "pitch": 28,
                "velocity": 127,
                "duration": 0.22045454545454535,
                "tempo": 120.0
            },
            {
                "start_time": 1.2477272727272726,
                "end_time": 1.3590909090909091,
                "pitch": 28,
                "velocity": 127,
                "duration": 0.11136363636363655,
                "tempo": 120.0
            },
            {
                "start_time": 1.3977272727272727,
                "end_time": 1.509090909090909,
                "pitch": 28,
                "velocity": 127,
                "duration": 0.11136363636363633,
                "tempo": 120.0
            },
            {
                "start_time": 0.6545454545454545,
                "end_time": 1.5477272727272726,
                "pitch": 42,
                "velocity": 127,
                "duration": 0.8931818181818181,
                "tempo": 120.0
            },
            {
                "start_time": 1.5477272727272726,
                "end_time": 1.6545454545454545,
                "pitch": 35,
                "velocity": 127,
                "duration": 0.10681818181818192,
                "tempo": 120.0
            },
            {
                "start_time": 0.8022727272727272,
                "end_time": 1.690909090909091,
                "pitch": 7,
                "velocity": 127,
                "duration": 0.8886363636363637,
                "tempo": 120.0
            },
            {
                "start_time": 1.690909090909091,
                "end_time": 1.7999999999999998,
                "pitch": 28,
                "velocity": 127,
                "duration": 0.1090909090909089,
                "tempo": 120.0
            },
            {
                "start_time": 1.8363636363636362,
                "end_time": 2.059090909090909,
                "pitch": 28,
                "velocity": 127,
                "duration": 0.22272727272727288,
                "tempo": 120.0
            },
            {
                "start_time": 2.134090909090909,
                "end_time": 2.245454545454545,
                "pitch": 28,
                "velocity": 127,
                "duration": 0.11136363636363633,
                "tempo": 120.0
            },
            {
                "start_time": 2.284090909090909,
                "end_time": 2.3954545454545455,
                "pitch": 28,
                "velocity": 127,
                "duration": 0.11136363636363633,
                "tempo": 120.0
            },
            {
                "start_time": 1.5477272727272726,
                "end_time": 2.4318181818181817,
                "pitch": 42,
                "velocity": 127,
                "duration": 0.884090909090909,
                "tempo": 120.0
            },
            {
                "start_time": 2.4318181818181817,
                "end_time": 2.543181818181818,
                "pitch": 35,
                "velocity": 127,
                "duration": 0.11136363636363633,
                "tempo": 120.0
            },
            {
                "start_time": 1.690909090909091,
                "end_time": 2.5818181818181816,
                "pitch": 7,
                "velocity": 127,
                "duration": 0.8909090909090907,
                "tempo": 120.0
            },
            {
                "start_time": 2.5818181818181816,
                "end_time": 2.693181818181818,
                "pitch": 28,
                "velocity": 127,
                "duration": 0.11136363636363633,
                "tempo": 120.0
            },
            {
                "start_time": 2.7318181818181815,
                "end_time": 2.9477272727272728,
                "pitch": 28,
                "velocity": 127,
                "duration": 0.21590909090909127,
                "tempo": 120.0
            },
            {
                "start_time": 3.0204545454545455,
                "end_time": 3.131818181818182,
                "pitch": 28,
                "velocity": 127,
                "duration": 0.11136363636363633,
                "tempo": 120.0
            },
            {
                "start_time": 3.168181818181818,
                "end_time": 3.2795454545454543,
                "pitch": 28,
                "velocity": 127,
                "duration": 0.11136363636363633,
                "tempo": 120.0
            },
            {
                "start_time": 2.4318181818181817,
                "end_time": 3.318181818181818,
                "pitch": 42,
                "velocity": 127,
                "duration": 0.8863636363636362,
                "tempo": 120.0
            },
            {
                "start_time": 3.318181818181818,
                "end_time": 3.4295454545454542,
                "pitch": 35,
                "velocity": 127,
                "duration": 0.11136363636363633,
                "tempo": 120.0
            },
            {
                "start_time": 2.5818181818181816,
                "end_time": 3.465909090909091,
                "pitch": 7,
                "velocity": 127,
                "duration": 0.8840909090909093,
                "tempo": 120.0
            },
            {
                "start_time": 3.465909090909091,
                "end_time": 3.577272727272727,
                "pitch": 28,
                "velocity": 127,
                "duration": 0.11136363636363633,
                "tempo": 120.0
            },
            {
                "start_time": 3.6159090909090907,
                "end_time": 3.8386363636363634,
                "pitch": 28,
                "velocity": 127,
                "duration": 0.22272727272727266,
                "tempo": 120.0
            },
            {
                "start_time": 3.9136363636363636,
                "end_time": 4.0204545454545455,
                "pitch": 28,
                "velocity": 127,
                "duration": 0.10681818181818192,
                "tempo": 120.0
            },
            {
                "start_time": 4.056818181818182,
                "end_time": 4.165909090909091,
                "pitch": 28,
                "velocity": 127,
                "duration": 0.10909090909090935,
                "tempo": 120.0
            },
            {
                "start_time": 3.318181818181818,
                "end_time": 4.202272727272727,
                "pitch": 42,
                "velocity": 127,
                "duration": 0.8840909090909093,
                "tempo": 120.0
            },
            {
                "start_time": 4.202272727272727,
                "end_time": 4.3136363636363635,
                "pitch": 35,
                "velocity": 127,
                "duration": 0.11136363636363633,
                "tempo": 120.0
            },
            {
                "start_time": 3.465909090909091,
                "end_time": 4.35,
                "pitch": 7,
                "velocity": 127,
                "duration": 0.8840909090909088,
                "tempo": 120.0
            },
            {
                "start_time": 4.35,
                "end_time": 4.461363636363636,
                "pitch": 28,
                "velocity": 127,
                "duration": 0.11136363636363633,
                "tempo": 120.0
            },
            {
                "start_time": 4.5,
                "end_time": 4.722727272727273,
                "pitch": 28,
                "velocity": 127,
                "duration": 0.22272727272727266,
                "tempo": 120.0
            },
            {
                "start_time": 4.797727272727273,
                "end_time": 4.909090909090909,
                "pitch": 28,
                "velocity": 127,
                "duration": 0.11136363636363633,
                "tempo": 120.0
            },
            {
                "start_time": 4.945454545454545,
                "end_time": 5.056818181818182,
                "pitch": 28,
                "velocity": 127,
                "duration": 0.11136363636363633,
                "tempo": 120.0
            },
            {
                "start_time": 4.202272727272727,
                "end_time": 5.095454545454545,
                "pitch": 42,
                "velocity": 127,
                "duration": 0.8931818181818176,
                "tempo": 120.0
            },
            {
                "start_time": 5.095454545454545,
                "end_time": 5.202272727272727,
                "pitch": 35,
                "velocity": 127,
                "duration": 0.10681818181818237,
                "tempo": 120.0
            },
            {
                "start_time": 4.35,
                "end_time": 5.238636363636363,
                "pitch": 7,
                "velocity": 127,
                "duration": 0.8886363636363637,
                "tempo": 120.0
            },
            {
                "start_time": 5.238636363636363,
                "end_time": 5.347727272727273,
                "pitch": 28,
                "velocity": 127,
                "duration": 0.10909090909090935,
                "tempo": 120.0
            },
            {
                "start_time": 5.384090909090909,
                "end_time": 5.6068181818181815,
                "pitch": 28,
                "velocity": 127,
                "duration": 0.22272727272727266,
                "tempo": 120.0
            },
            {
                "start_time": 5.681818181818182,
                "end_time": 5.793181818181818,
                "pitch": 28,
                "velocity": 127,
                "duration": 0.11136363636363633,
                "tempo": 120.0
            },
            {
                "start_time": 5.829545454545454,
                "end_time": 5.9409090909090905,
                "pitch": 28,
                "velocity": 127,
                "duration": 0.11136363636363633,
                "tempo": 120.0
            },
            {
                "start_time": 5.095454545454545,
                "end_time": 5.9795454545454545,
                "pitch": 42,
                "velocity": 127,
                "duration": 0.8840909090909097,
                "tempo": 120.0
            },
            {
                "start_time": 5.9795454545454545,
                "end_time": 6.086363636363636,
                "pitch": 35,
                "velocity": 127,
                "duration": 0.10681818181818148,
                "tempo": 120.0
            },
            {
                "start_time": 5.238636363636363,
                "end_time": 6.122727272727272,
                "pitch": 7,
                "velocity": 127,
                "duration": 0.8840909090909088,
                "tempo": 120.0
            },
            {
                "start_time": 6.122727272727272,
                "end_time": 6.2318181818181815,
                "pitch": 28,
                "velocity": 127,
                "duration": 0.10909090909090935,
                "tempo": 120.0
            },
            {
                "start_time": 6.268181818181818,
                "end_time": 6.49090909090909,
                "pitch": 28,
                "velocity": 127,
                "duration": 0.22272727272727266,
                "tempo": 120.0
            },
            {
                "start_time": 6.5659090909090905,
                "end_time": 6.677272727272727,
                "pitch": 28,
                "velocity": 127,
                "duration": 0.11136363636363633,
                "tempo": 120.0
            },
            {
                "start_time": 6.713636363636363,
                "end_time": 6.824999999999999,
                "pitch": 28,
                "velocity": 127,
                "duration": 0.11136363636363633,
                "tempo": 120.0
            },
            {
                "start_time": 5.9795454545454545,
                "end_time": 6.863636363636363,
                "pitch": 42,
                "velocity": 127,
                "duration": 0.8840909090909088,
                "tempo": 120.0
            },
            {
                "start_time": 6.863636363636363,
                "end_time": 6.975,
                "pitch": 35,
                "velocity": 127,
                "duration": 0.11136363636363633,
                "tempo": 120.0
            },
            {
                "start_time": 6.122727272727272,
                "end_time": 7.011363636363636,
                "pitch": 7,
                "velocity": 127,
                "duration": 0.8886363636363637,
                "tempo": 120.0
            },
            {
                "start_time": 7.011363636363636,
                "end_time": 7.122727272727272,
                "pitch": 28,
                "velocity": 127,
                "duration": 0.11136363636363633,
                "tempo": 120.0
            },
            {
                "start_time": 7.161363636363636,
                "end_time": 7.384090909090909,
                "pitch": 28,
                "velocity": 127,
                "duration": 0.22272727272727266,
                "tempo": 120.0
            },
            {
                "start_time": 7.459090909090909,
                "end_time": 7.5681818181818175,
                "pitch": 28,
                "velocity": 127,
                "duration": 0.10909090909090846,
                "tempo": 120.0
            },
            {
                "start_time": 7.6045454545454545,
                "end_time": 7.711363636363636,
                "pitch": 28,
                "velocity": 127,
                "duration": 0.10681818181818148,
                "tempo": 120.0
            },
            {
                "start_time": 6.863636363636363,
                "end_time": 7.747727272727272,
                "pitch": 42,
                "velocity": 127,
                "duration": 0.8840909090909088,
                "tempo": 120.0
            },
            {
                "start_time": 7.747727272727272,
                "end_time": 7.8590909090909085,
                "pitch": 35,
                "velocity": 127,
                "duration": 0.11136363636363633,
                "tempo": 120.0
            },
            {
                "start_time": 7.011363636363636,
                "end_time": 7.8954545454545455,
                "pitch": 7,
                "velocity": 127,
                "duration": 0.8840909090909097,
                "tempo": 120.0
            },
            {
                "start_time": 7.8954545454545455,
                "end_time": 8.006818181818181,
                "pitch": 28,
                "velocity": 127,
                "duration": 0.11136363636363544,
                "tempo": 120.0
            },
            {
                "start_time": 8.045454545454545,
                "end_time": 8.268181818181818,
                "pitch": 28,
                "velocity": 127,
                "duration": 0.22272727272727266,
                "tempo": 120.0
            },
            {
                "start_time": 8.343181818181817,
                "end_time": 8.45,
                "pitch": 28,
                "velocity": 127,
                "duration": 0.10681818181818237,
                "tempo": 120.0
            },
            {
                "start_time": 8.486363636363636,
                "end_time": 8.595454545454546,
                "pitch": 28,
                "velocity": 127,
                "duration": 0.10909090909090935,
                "tempo": 120.0
            },
            {
                "start_time": 7.747727272727272,
                "end_time": 8.631818181818181,
                "pitch": 42,
                "velocity": 127,
                "duration": 0.8840909090909088,
                "tempo": 120.0
            },
            {
                "start_time": 8.631818181818181,
                "end_time": 8.743181818181817,
                "pitch": 35,
                "velocity": 127,
                "duration": 0.11136363636363633,
                "tempo": 120.0
            },
            {
                "start_time": 7.8954545454545455,
                "end_time": 8.781818181818181,
                "pitch": 7,
                "velocity": 127,
                "duration": 0.8863636363636358,
                "tempo": 120.0
            },
            {
                "start_time": 8.781818181818181,
                "end_time": 8.893181818181818,
                "pitch": 28,
                "velocity": 127,
                "duration": 0.11136363636363633,
                "tempo": 120.0
            },
            {
                "start_time": 8.929545454545455,
                "end_time": 9.154545454545454,
                "pitch": 28,
                "velocity": 127,
                "duration": 0.22499999999999964,
                "tempo": 120.0
            },
            {
                "start_time": 9.229545454545454,
                "end_time": 9.34090909090909,
                "pitch": 28,
                "velocity": 127,
                "duration": 0.11136363636363633,
                "tempo": 120.0
            },
            {
                "start_time": 9.377272727272727,
                "end_time": 9.488636363636363,
                "pitch": 28,
                "velocity": 127,
                "duration": 0.11136363636363633,
                "tempo": 120.0
            },
            {
                "start_time": 8.631818181818181,
                "end_time": 9.527272727272727,
                "pitch": 42,
                "velocity": 127,
                "duration": 0.8954545454545464,
                "tempo": 120.0
            },
            {
                "start_time": 9.527272727272727,
                "end_time": 9.634090909090908,
                "pitch": 35,
                "velocity": 127,
                "duration": 0.10681818181818059,
                "tempo": 120.0
            },
            {
                "start_time": 8.781818181818181,
                "end_time": 9.670454545454545,
                "pitch": 7,
                "velocity": 127,
                "duration": 0.8886363636363637,
                "tempo": 120.0
            },
            {
                "start_time": 9.670454545454545,
                "end_time": 9.779545454545454,
                "pitch": 28,
                "velocity": 127,
                "duration": 0.10909090909090935,
                "tempo": 120.0
            },
            {
                "start_time": 9.81590909090909,
                "end_time": 10.038636363636364,
                "pitch": 28,
                "velocity": 127,
                "duration": 0.22272727272727444,
                "tempo": 120.0
            },
            {
                "start_time": 10.113636363636363,
                "end_time": 10.225,
                "pitch": 28,
                "velocity": 127,
                "duration": 0.11136363636363633,
                "tempo": 120.0
            },
            {
                "start_time": 10.261363636363637,
                "end_time": 10.375,
                "pitch": 28,
                "velocity": 127,
                "duration": 0.11363636363636331,
                "tempo": 120.0
            },
            {
                "start_time": 9.527272727272727,
                "end_time": 10.411363636363635,
                "pitch": 42,
                "velocity": 127,
                "duration": 0.8840909090909079,
                "tempo": 120.0
            },
            {
                "start_time": 10.411363636363635,
                "end_time": 10.522727272727272,
                "pitch": 35,
                "velocity": 127,
                "duration": 0.11136363636363633,
                "tempo": 120.0
            },
            {
                "start_time": 9.670454545454545,
                "end_time": 10.561363636363636,
                "pitch": 7,
                "velocity": 127,
                "duration": 0.8909090909090907,
                "tempo": 120.0
            },
            {
                "start_time": 10.561363636363636,
                "end_time": 10.672727272727272,
                "pitch": 28,
                "velocity": 127,
                "duration": 0.11136363636363633,
                "tempo": 120.0
            },
            {
                "start_time": 10.711363636363636,
                "end_time": 10.934090909090909,
                "pitch": 28,
                "velocity": 127,
                "duration": 0.22272727272727266,
                "tempo": 120.0
            },
            {
                "start_time": 11.009090909090908,
                "end_time": 11.11590909090909,
                "pitch": 28,
                "velocity": 127,
                "duration": 0.10681818181818237,
                "tempo": 120.0
            },
            {
                "start_time": 11.152272727272727,
                "end_time": 11.261363636363637,
                "pitch": 28,
                "velocity": 127,
                "duration": 0.10909090909090935,
                "tempo": 120.0
            },
            {
                "start_time": 10.411363636363635,
                "end_time": 11.297727272727272,
                "pitch": 42,
                "velocity": 127,
                "duration": 0.8863636363636367,
                "tempo": 120.0
            },
            {
                "start_time": 11.297727272727272,
                "end_time": 11.406818181818181,
                "pitch": 35,
                "velocity": 127,
                "duration": 0.10909090909090935,
                "tempo": 120.0
            },
            {
                "start_time": 10.561363636363636,
                "end_time": 11.445454545454545,
                "pitch": 7,
                "velocity": 127,
                "duration": 0.8840909090909097,
                "tempo": 120.0
            },
            {
                "start_time": 11.445454545454545,
                "end_time": 11.556818181818182,
                "pitch": 28,
                "velocity": 127,
                "duration": 0.11136363636363633,
                "tempo": 120.0
            },
            {
                "start_time": 11.593181818181817,
                "end_time": 11.818181818181818,
                "pitch": 28,
                "velocity": 127,
                "duration": 0.22500000000000142,
                "tempo": 120.0
            },
            {
                "start_time": 11.893181818181818,
                "end_time": 12.0,
                "pitch": 28,
                "velocity": 127,
                "duration": 0.10681818181818237,
                "tempo": 120.0
            },
            {
                "start_time": 12.036363636363635,
                "end_time": 12.145454545454545,
                "pitch": 28,
                "velocity": 127,
                "duration": 0.10909090909090935,
                "tempo": 120.0
            },
            {
                "start_time": 11.297727272727272,
                "end_time": 12.181818181818182,
                "pitch": 42,
                "velocity": 127,
                "duration": 0.8840909090909097,
                "tempo": 120.0
            },
            {
                "start_time": 12.181818181818182,
                "end_time": 12.293181818181818,
                "pitch": 35,
                "velocity": 127,
                "duration": 0.11136363636363633,
                "tempo": 120.0
            },
            {
                "start_time": 11.445454545454545,
                "end_time": 12.331818181818182,
                "pitch": 7,
                "velocity": 127,
                "duration": 0.8863636363636367,
                "tempo": 120.0
            },
            {
                "start_time": 12.331818181818182,
                "end_time": 12.443181818181818,
                "pitch": 28,
                "velocity": 127,
                "duration": 0.11136363636363633,
                "tempo": 120.0
            },
            {
                "start_time": 12.48181818181818,
                "end_time": 12.702272727272726,
                "pitch": 28,
                "velocity": 127,
                "duration": 0.22045454545454568,
                "tempo": 120.0
            },
            {
                "start_time": 12.777272727272727,
                "end_time": 12.886363636363635,
                "pitch": 28,
                "velocity": 127,
                "duration": 0.10909090909090757,
                "tempo": 120.0
            },
            {
                "start_time": 12.922727272727272,
                "end_time": 13.029545454545454,
                "pitch": 28,
                "velocity": 127,
                "duration": 0.10681818181818237,
                "tempo": 120.0
            },
            {
                "start_time": 12.181818181818182,
                "end_time": 13.06590909090909,
                "pitch": 42,
                "velocity": 127,
                "duration": 0.8840909090909079,
                "tempo": 120.0
            },
            {
                "start_time": 13.06590909090909,
                "end_time": 13.179545454545455,
                "pitch": 35,
                "velocity": 127,
                "duration": 0.11363636363636509,
                "tempo": 120.0
            },
            {
                "start_time": 12.331818181818182,
                "end_time": 13.21590909090909,
                "pitch": 7,
                "velocity": 127,
                "duration": 0.8840909090909079,
                "tempo": 120.0
            },
            {
                "start_time": 13.21590909090909,
                "end_time": 13.327272727272726,
                "pitch": 28,
                "velocity": 127,
                "duration": 0.11136363636363633,
                "tempo": 120.0
            },
            {
                "start_time": 13.36590909090909,
                "end_time": 13.588636363636363,
                "pitch": 28,
                "velocity": 127,
                "duration": 0.22272727272727266,
                "tempo": 120.0
            },
            {
                "start_time": 13.663636363636362,
                "end_time": 13.774999999999999,
                "pitch": 28,
                "velocity": 127,
                "duration": 0.11136363636363633,
                "tempo": 120.0
            },
            {
                "start_time": 13.811363636363636,
                "end_time": 13.924999999999999,
                "pitch": 28,
                "velocity": 127,
                "duration": 0.11363636363636331,
                "tempo": 120.0
            },
            {
                "start_time": 13.06590909090909,
                "end_time": 13.961363636363636,
                "pitch": 42,
                "velocity": 127,
                "duration": 0.8954545454545464,
                "tempo": 120.0
            },
            {
                "start_time": 13.961363636363636,
                "end_time": 14.070454545454545,
                "pitch": 35,
                "velocity": 127,
                "duration": 0.10909090909090935,
                "tempo": 120.0
            },
            {
                "start_time": 13.21590909090909,
                "end_time": 14.10681818181818,
                "pitch": 7,
                "velocity": 127,
                "duration": 0.8909090909090907,
                "tempo": 120.0
            },
            {
                "start_time": 14.10681818181818,
                "end_time": 14.213636363636363,
                "pitch": 28,
                "velocity": 127,
                "duration": 0.10681818181818237,
                "tempo": 120.0
            },
            {
                "start_time": 14.25,
                "end_time": 14.306818181818182,
                "pitch": 28,
                "velocity": 127,
                "duration": 0.05681818181818166,
                "tempo": 120.0
            }
        ],
        "Acoustic Bass": [
            {
                "start_time": 0.056818181818181816,
                "end_time": 0.27954545454545454,
                "pitch": 28,
                "velocity": 101,
                "duration": 0.22272727272727272,
                "tempo": 120.0
            },
            {
                "start_time": 0.35454545454545455,
                "end_time": 0.4659090909090909,
                "pitch": 28,
                "velocity": 101,
                "duration": 0.11136363636363633,
                "tempo": 120.0
            },
            {
                "start_time": 0.5045454545454545,
                "end_time": 0.6159090909090909,
                "pitch": 28,
                "velocity": 101,
                "duration": 0.11136363636363633,
                "tempo": 120.0
            },
            {
                "start_time": 0.6545454545454545,
                "end_time": 0.7659090909090909,
                "pitch": 23,
                "velocity": 101,
                "duration": 0.11136363636363633,
                "tempo": 120.0
            },
            {
                "start_time": 0.8022727272727272,
                "end_time": 0.9136363636363636,
                "pitch": 28,
                "velocity": 101,
                "duration": 0.11136363636363633,
                "tempo": 120.0
            },
            {
                "start_time": 0.9522727272727273,
                "end_time": 1.175,
                "pitch": 28,
                "velocity": 101,
                "duration": 0.22272727272727277,
                "tempo": 120.0
            },
            {
                "start_time": 1.25,
                "end_time": 1.3613636363636363,
                "pitch": 28,
                "velocity": 101,
                "duration": 0.11136363636363633,
                "tempo": 120.0
            },
            {
                "start_time": 1.3977272727272727,
                "end_time": 1.509090909090909,
                "pitch": 28,
                "velocity": 101,
                "duration": 0.11136363636363633,
                "tempo": 120.0
            },
            {
                "start_time": 0.6545454545454545,
                "end_time": 1.5477272727272726,
                "pitch": 30,
                "velocity": 101,
                "duration": 0.8931818181818181,
                "tempo": 120.0
            },
            {
                "start_time": 1.5477272727272726,
                "end_time": 1.6545454545454545,
                "pitch": 23,
                "velocity": 101,
                "duration": 0.10681818181818192,
                "tempo": 120.0
            },
            {
                "start_time": 0.8022727272727272,
                "end_time": 1.6931818181818181,
                "pitch": 7,
                "velocity": 101,
                "duration": 0.8909090909090909,
                "tempo": 120.0
            },
            {
                "start_time": 1.6931818181818181,
                "end_time": 1.7999999999999998,
                "pitch": 28,
                "velocity": 101,
                "duration": 0.1068181818181817,
                "tempo": 120.0
            },
            {
                "start_time": 1.8363636363636362,
                "end_time": 2.059090909090909,
                "pitch": 28,
                "velocity": 101,
                "duration": 0.22272727272727288,
                "tempo": 120.0
            },
            {
                "start_time": 2.1363636363636362,
                "end_time": 2.245454545454545,
                "pitch": 28,
                "velocity": 101,
                "duration": 0.1090909090909089,
                "tempo": 120.0
            },
            {
                "start_time": 2.284090909090909,
                "end_time": 2.3954545454545455,
                "pitch": 28,
                "velocity": 101,
                "duration": 0.11136363636363633,
                "tempo": 120.0
            },
            {
                "start_time": 1.5477272727272726,
                "end_time": 2.4318181818181817,
                "pitch": 30,
                "velocity": 101,
                "duration": 0.884090909090909,
                "tempo": 120.0
            },
            {
                "start_time": 2.4318181818181817,
                "end_time": 2.5454545454545454,
                "pitch": 23,
                "velocity": 101,
                "duration": 0.11363636363636376,
                "tempo": 120.0
            },
            {
                "start_time": 1.6931818181818181,
                "end_time": 2.5818181818181816,
                "pitch": 7,
                "velocity": 101,
                "duration": 0.8886363636363634,
                "tempo": 120.0
            },
            {
                "start_time": 2.5818181818181816,
                "end_time": 2.693181818181818,
                "pitch": 28,
                "velocity": 101,
                "duration": 0.11136363636363633,
                "tempo": 120.0
            },
            {
                "start_time": 2.7318181818181815,
                "end_time": 2.9477272727272728,
                "pitch": 28,
                "velocity": 101,
                "duration": 0.21590909090909127,
                "tempo": 120.0
            },
            {
                "start_time": 3.0204545454545455,
                "end_time": 3.131818181818182,
                "pitch": 28,
                "velocity": 101,
                "duration": 0.11136363636363633,
                "tempo": 120.0
            },
            {
                "start_time": 3.168181818181818,
                "end_time": 3.2795454545454543,
                "pitch": 28,
                "velocity": 101,
                "duration": 0.11136363636363633,
                "tempo": 120.0
            },
            {
                "start_time": 2.4318181818181817,
                "end_time": 3.318181818181818,
                "pitch": 30,
                "velocity": 101,
                "duration": 0.8863636363636362,
                "tempo": 120.0
            },
            {
                "start_time": 3.318181818181818,
                "end_time": 3.4295454545454542,
                "pitch": 23,
                "velocity": 101,
                "duration": 0.11136363636363633,
                "tempo": 120.0
            },
            {
                "start_time": 2.5818181818181816,
                "end_time": 3.465909090909091,
                "pitch": 7,
                "velocity": 101,
                "duration": 0.8840909090909093,
                "tempo": 120.0
            },
            {
                "start_time": 3.465909090909091,
                "end_time": 3.577272727272727,
                "pitch": 28,
                "velocity": 101,
                "duration": 0.11136363636363633,
                "tempo": 120.0
            },
            {
                "start_time": 3.6159090909090907,
                "end_time": 3.8386363636363634,
                "pitch": 28,
                "velocity": 101,
                "duration": 0.22272727272727266,
                "tempo": 120.0
            },
            {
                "start_time": 3.9136363636363636,
                "end_time": 4.0227272727272725,
                "pitch": 28,
                "velocity": 101,
                "duration": 0.1090909090909089,
                "tempo": 120.0
            },
            {
                "start_time": 4.059090909090909,
                "end_time": 4.165909090909091,
                "pitch": 28,
                "velocity": 101,
                "duration": 0.10681818181818237,
                "tempo": 120.0
            },
            {
                "start_time": 3.318181818181818,
                "end_time": 4.202272727272727,
                "pitch": 30,
                "velocity": 101,
                "duration": 0.8840909090909093,
                "tempo": 120.0
            },
            {
                "start_time": 4.202272727272727,
                "end_time": 4.3136363636363635,
                "pitch": 23,
                "velocity": 101,
                "duration": 0.11136363636363633,
                "tempo": 120.0
            },
            {
                "start_time": 3.465909090909091,
                "end_time": 4.352272727272727,
                "pitch": 7,
                "velocity": 101,
                "duration": 0.8863636363636358,
                "tempo": 120.0
            },
            {
                "start_time": 4.352272727272727,
                "end_time": 4.461363636363636,
                "pitch": 28,
                "velocity": 101,
                "duration": 0.10909090909090935,
                "tempo": 120.0
            },
            {
                "start_time": 4.5,
                "end_time": 4.722727272727273,
                "pitch": 28,
                "velocity": 101,
                "duration": 0.22272727272727266,
                "tempo": 120.0
            },
            {
                "start_time": 4.797727272727273,
                "end_time": 4.909090909090909,
                "pitch": 28,
                "velocity": 101,
                "duration": 0.11136363636363633,
                "tempo": 120.0
            },
            {
                "start_time": 4.945454545454545,
                "end_time": 5.056818181818182,
                "pitch": 28,
                "velocity": 101,
                "duration": 0.11136363636363633,
                "tempo": 120.0
            },
            {
                "start_time": 4.202272727272727,
                "end_time": 5.095454545454545,
                "pitch": 30,
                "velocity": 101,
                "duration": 0.8931818181818176,
                "tempo": 120.0
            },
            {
                "start_time": 5.095454545454545,
                "end_time": 5.202272727272727,
                "pitch": 23,
                "velocity": 101,
                "duration": 0.10681818181818237,
                "tempo": 120.0
            },
            {
                "start_time": 4.352272727272727,
                "end_time": 5.238636363636363,
                "pitch": 7,
                "velocity": 101,
                "duration": 0.8863636363636367,
                "tempo": 120.0
            },
            {
                "start_time": 5.238636363636363,
                "end_time": 5.347727272727273,
                "pitch": 28,
                "velocity": 101,
                "duration": 0.10909090909090935,
                "tempo": 120.0
            },
            {
                "start_time": 5.384090909090909,
                "end_time": 5.6068181818181815,
                "pitch": 28,
                "velocity": 101,
                "duration": 0.22272727272727266,
                "tempo": 120.0
            },
            {
                "start_time": 5.681818181818182,
                "end_time": 5.793181818181818,
                "pitch": 28,
                "velocity": 101,
                "duration": 0.11136363636363633,
                "tempo": 120.0
            },
            {
                "start_time": 5.831818181818181,
                "end_time": 5.9431818181818175,
                "pitch": 28,
                "velocity": 101,
                "duration": 0.11136363636363633,
                "tempo": 120.0
            },
            {
                "start_time": 5.095454545454545,
                "end_time": 5.9795454545454545,
                "pitch": 30,
                "velocity": 101,
                "duration": 0.8840909090909097,
                "tempo": 120.0
            },
            {
                "start_time": 5.9795454545454545,
                "end_time": 6.088636363636363,
                "pitch": 23,
                "velocity": 101,
                "duration": 0.10909090909090846,
                "tempo": 120.0
            },
            {
                "start_time": 5.238636363636363,
                "end_time": 6.125,
                "pitch": 7,
                "velocity": 101,
                "duration": 0.8863636363636367,
                "tempo": 120.0
            },
            {
                "start_time": 6.125,
                "end_time": 6.2318181818181815,
                "pitch": 28,
                "velocity": 101,
                "duration": 0.10681818181818148,
                "tempo": 120.0
            },
            {
                "start_time": 6.268181818181818,
                "end_time": 6.49090909090909,
                "pitch": 28,
                "velocity": 101,
                "duration": 0.22272727272727266,
                "tempo": 120.0
            },
            {
                "start_time": 6.5659090909090905,
                "end_time": 6.677272727272727,
                "pitch": 28,
                "velocity": 101,
                "duration": 0.11136363636363633,
                "tempo": 120.0
            },
            {
                "start_time": 6.713636363636363,
                "end_time": 6.824999999999999,
                "pitch": 28,
                "velocity": 101,
                "duration": 0.11136363636363633,
                "tempo": 120.0
            },
            {
                "start_time": 5.9795454545454545,
                "end_time": 6.863636363636363,
                "pitch": 30,
                "velocity": 101,
                "duration": 0.8840909090909088,
                "tempo": 120.0
            },
            {
                "start_time": 6.863636363636363,
                "end_time": 6.975,
                "pitch": 23,
                "velocity": 101,
                "duration": 0.11136363636363633,
                "tempo": 120.0
            },
            {
                "start_time": 6.125,
                "end_time": 7.011363636363636,
                "pitch": 7,
                "velocity": 101,
                "duration": 0.8863636363636358,
                "tempo": 120.0
            },
            {
                "start_time": 7.011363636363636,
                "end_time": 7.122727272727272,
                "pitch": 28,
                "velocity": 101,
                "duration": 0.11136363636363633,
                "tempo": 120.0
            },
            {
                "start_time": 7.161363636363636,
                "end_time": 7.384090909090909,
                "pitch": 28,
                "velocity": 101,
                "duration": 0.22272727272727266,
                "tempo": 120.0
            },
            {
                "start_time": 7.459090909090909,
                "end_time": 7.5681818181818175,
                "pitch": 28,
                "velocity": 101,
                "duration": 0.10909090909090846,
                "tempo": 120.0
            },
            {
                "start_time": 7.6045454545454545,
                "end_time": 7.711363636363636,
                "pitch": 28,
                "velocity": 101,
                "duration": 0.10681818181818148,
                "tempo": 120.0
            },
            {
                "start_time": 6.863636363636363,
                "end_time": 7.747727272727272,
                "pitch": 30,
                "velocity": 101,
                "duration": 0.8840909090909088,
                "tempo": 120.0
            },
            {
                "start_time": 7.747727272727272,
                "end_time": 7.8590909090909085,
                "pitch": 23,
                "velocity": 101,
                "duration": 0.11136363636363633,
                "tempo": 120.0
            },
            {
                "start_time": 7.011363636363636,
                "end_time": 7.8977272727272725,
                "pitch": 7,
                "velocity": 101,
                "duration": 0.8863636363636367,
                "tempo": 120.0
            },
            {
                "start_time": 7.8977272727272725,
                "end_time": 8.009090909090908,
                "pitch": 28,
                "velocity": 101,
                "duration": 0.11136363636363544,
                "tempo": 120.0
            },
            {
                "start_time": 8.045454545454545,
                "end_time": 8.268181818181818,
                "pitch": 28,
                "velocity": 101,
                "duration": 0.22272727272727266,
                "tempo": 120.0
            },
            {
                "start_time": 8.343181818181817,
                "end_time": 8.45,
                "pitch": 28,
                "velocity": 101,
                "duration": 0.10681818181818237,
                "tempo": 120.0
            },
            {
                "start_time": 8.486363636363636,
                "end_time": 8.595454545454546,
                "pitch": 28,
                "velocity": 101,
                "duration": 0.10909090909090935,
                "tempo": 120.0
            },
            {
                "start_time": 7.747727272727272,
                "end_time": 8.631818181818181,
                "pitch": 30,
                "velocity": 101,
                "duration": 0.8840909090909088,
                "tempo": 120.0
            },
            {
                "start_time": 8.631818181818181,
                "end_time": 8.743181818181817,
                "pitch": 23,
                "velocity": 101,
                "duration": 0.11136363636363633,
                "tempo": 120.0
            },
            {
                "start_time": 7.8977272727272725,
                "end_time": 8.781818181818181,
                "pitch": 7,
                "velocity": 101,
                "duration": 0.8840909090909088,
                "tempo": 120.0
            },
            {
                "start_time": 8.781818181818181,
                "end_time": 8.893181818181818,
                "pitch": 28,
                "velocity": 101,
                "duration": 0.11136363636363633,
                "tempo": 120.0
            },
            {
                "start_time": 8.931818181818182,
                "end_time": 9.154545454545454,
                "pitch": 28,
                "velocity": 101,
                "duration": 0.22272727272727266,
                "tempo": 120.0
            },
            {
                "start_time": 9.229545454545454,
                "end_time": 9.34090909090909,
                "pitch": 28,
                "velocity": 101,
                "duration": 0.11136363636363633,
                "tempo": 120.0
            },
            {
                "start_time": 9.377272727272727,
                "end_time": 9.488636363636363,
                "pitch": 28,
                "velocity": 101,
                "duration": 0.11136363636363633,
                "tempo": 120.0
            },
            {
                "start_time": 8.631818181818181,
                "end_time": 9.527272727272727,
                "pitch": 30,
                "velocity": 101,
                "duration": 0.8954545454545464,
                "tempo": 120.0
            },
            {
                "start_time": 9.527272727272727,
                "end_time": 9.634090909090908,
                "pitch": 23,
                "velocity": 101,
                "duration": 0.10681818181818059,
                "tempo": 120.0
            },
            {
                "start_time": 8.781818181818181,
                "end_time": 9.670454545454545,
                "pitch": 7,
                "velocity": 101,
                "duration": 0.8886363636363637,
                "tempo": 120.0
            },
            {
                "start_time": 9.670454545454545,
                "end_time": 9.779545454545454,
                "pitch": 28,
                "velocity": 101,
                "duration": 0.10909090909090935,
                "tempo": 120.0
            },
            {
                "start_time": 9.81590909090909,
                "end_time": 10.038636363636364,
                "pitch": 28,
                "velocity": 101,
                "duration": 0.22272727272727444,
                "tempo": 120.0
            },
            {
                "start_time": 10.113636363636363,
                "end_time": 10.225,
                "pitch": 28,
                "velocity": 101,
                "duration": 0.11136363636363633,
                "tempo": 120.0
            },
            {
                "start_time": 10.263636363636364,
                "end_time": 10.375,
                "pitch": 28,
                "velocity": 101,
                "duration": 0.11136363636363633,
                "tempo": 120.0
            },
            {
                "start_time": 9.527272727272727,
                "end_time": 10.411363636363635,
                "pitch": 30,
                "velocity": 101,
                "duration": 0.8840909090909079,
                "tempo": 120.0
            },
            {
                "start_time": 10.411363636363635,
                "end_time": 10.522727272727272,
                "pitch": 23,
                "velocity": 101,
                "duration": 0.11136363636363633,
                "tempo": 120.0
            },
            {
                "start_time": 9.670454545454545,
                "end_time": 10.561363636363636,
                "pitch": 7,
                "velocity": 101,
                "duration": 0.8909090909090907,
                "tempo": 120.0
            },
            {
                "start_time": 10.561363636363636,
                "end_time": 10.672727272727272,
                "pitch": 28,
                "velocity": 101,
                "duration": 0.11136363636363633,
                "tempo": 120.0
            },
            {
                "start_time": 10.711363636363636,
                "end_time": 10.934090909090909,
                "pitch": 28,
                "velocity": 101,
                "duration": 0.22272727272727266,
                "tempo": 120.0
            },
            {
                "start_time": 11.009090909090908,
                "end_time": 11.11590909090909,
                "pitch": 28,
                "velocity": 101,
                "duration": 0.10681818181818237,
                "tempo": 120.0
            },
            {
                "start_time": 11.152272727272727,
                "end_time": 11.261363636363637,
                "pitch": 28,
                "velocity": 101,
                "duration": 0.10909090909090935,
                "tempo": 120.0
            },
            {
                "start_time": 10.411363636363635,
                "end_time": 11.297727272727272,
                "pitch": 30,
                "velocity": 101,
                "duration": 0.8863636363636367,
                "tempo": 120.0
            },
            {
                "start_time": 11.297727272727272,
                "end_time": 11.409090909090908,
                "pitch": 23,
                "velocity": 101,
                "duration": 0.11136363636363633,
                "tempo": 120.0
            },
            {
                "start_time": 10.561363636363636,
                "end_time": 11.445454545454545,
                "pitch": 7,
                "velocity": 101,
                "duration": 0.8840909090909097,
                "tempo": 120.0
            },
            {
                "start_time": 11.445454545454545,
                "end_time": 11.556818181818182,
                "pitch": 28,
                "velocity": 101,
                "duration": 0.11136363636363633,
                "tempo": 120.0
            },
            {
                "start_time": 11.595454545454546,
                "end_time": 11.818181818181818,
                "pitch": 28,
                "velocity": 101,
                "duration": 0.22272727272727266,
                "tempo": 120.0
            },
            {
                "start_time": 11.893181818181818,
                "end_time": 12.002272727272727,
                "pitch": 28,
                "velocity": 101,
                "duration": 0.10909090909090935,
                "tempo": 120.0
            },
            {
                "start_time": 12.038636363636362,
                "end_time": 12.145454545454545,
                "pitch": 28,
                "velocity": 101,
                "duration": 0.10681818181818237,
                "tempo": 120.0
            },
            {
                "start_time": 11.297727272727272,
                "end_time": 12.181818181818182,
                "pitch": 30,
                "velocity": 101,
                "duration": 0.8840909090909097,
                "tempo": 120.0
            },
            {
                "start_time": 12.181818181818182,
                "end_time": 12.293181818181818,
                "pitch": 23,
                "velocity": 101,
                "duration": 0.11136363636363633,
                "tempo": 120.0
            },
            {
                "start_time": 11.445454545454545,
                "end_time": 12.331818181818182,
                "pitch": 7,
                "velocity": 101,
                "duration": 0.8863636363636367,
                "tempo": 120.0
            },
            {
                "start_time": 12.331818181818182,
                "end_time": 12.443181818181818,
                "pitch": 28,
                "velocity": 101,
                "duration": 0.11136363636363633,
                "tempo": 120.0
            },
            {
                "start_time": 12.48181818181818,
                "end_time": 12.704545454545453,
                "pitch": 28,
                "velocity": 101,
                "duration": 0.22272727272727266,
                "tempo": 120.0
            },
            {
                "start_time": 12.779545454545454,
                "end_time": 12.886363636363635,
                "pitch": 28,
                "velocity": 101,
                "duration": 0.10681818181818059,
                "tempo": 120.0
            },
            {
                "start_time": 12.922727272727272,
                "end_time": 13.029545454545454,
                "pitch": 28,
                "velocity": 101,
                "duration": 0.10681818181818237,
                "tempo": 120.0
            },
            {
                "start_time": 12.181818181818182,
                "end_time": 13.068181818181818,
                "pitch": 30,
                "velocity": 101,
                "duration": 0.8863636363636367,
                "tempo": 120.0
            },
            {
                "start_time": 13.068181818181818,
                "end_time": 13.179545454545455,
                "pitch": 23,
                "velocity": 101,
                "duration": 0.11136363636363633,
                "tempo": 120.0
            },
            {
                "start_time": 12.331818181818182,
                "end_time": 13.21590909090909,
                "pitch": 7,
                "velocity": 101,
                "duration": 0.8840909090909079,
                "tempo": 120.0
            },
            {
                "start_time": 13.21590909090909,
                "end_time": 13.327272727272726,
                "pitch": 28,
                "velocity": 101,
                "duration": 0.11136363636363633,
                "tempo": 120.0
            },
            {
                "start_time": 13.36590909090909,
                "end_time": 13.588636363636363,
                "pitch": 28,
                "velocity": 101,
                "duration": 0.22272727272727266,
                "tempo": 120.0
            },
            {
                "start_time": 13.663636363636362,
                "end_time": 13.774999999999999,
                "pitch": 28,
                "velocity": 101,
                "duration": 0.11136363636363633,
                "tempo": 120.0
            },
            {
                "start_time": 13.813636363636363,
                "end_time": 13.924999999999999,
                "pitch": 28,
                "velocity": 101,
                "duration": 0.11136363636363633,
                "tempo": 120.0
            },
            {
                "start_time": 13.068181818181818,
                "end_time": 13.961363636363636,
                "pitch": 30,
                "velocity": 101,
                "duration": 0.8931818181818176,
                "tempo": 120.0
            },
            {
                "start_time": 13.961363636363636,
                "end_time": 14.070454545454545,
                "pitch": 23,
                "velocity": 101,
                "duration": 0.10909090909090935,
                "tempo": 120.0
            },
            {
                "start_time": 13.21590909090909,
                "end_time": 14.10681818181818,
                "pitch": 7,
                "velocity": 101,
                "duration": 0.8909090909090907,
                "tempo": 120.0
            },
            {
                "start_time": 14.10681818181818,
                "end_time": 14.213636363636363,
                "pitch": 28,
                "velocity": 101,
                "duration": 0.10681818181818237,
                "tempo": 120.0
            },
            {
                "start_time": 14.252272727272727,
                "end_time": 14.306818181818182,
                "pitch": 28,
                "velocity": 101,
                "duration": 0.054545454545454675,
                "tempo": 120.0
            }
        ],
        "Violin": [
            {
                "start_time": 0.05909090909090909,
                "end_time": 1.5477272727272726,
                "pitch": 64,
                "velocity": 101,
                "duration": 1.4886363636363635,
                "tempo": 120.0
            },
            {
                "start_time": 1.8386363636363636,
                "end_time": 2.8386363636363634,
                "pitch": 64,
                "velocity": 101,
                "duration": 0.9999999999999998,
                "tempo": 120.0
            },
            {
                "start_time": 3.1704545454545454,
                "end_time": 3.3909090909090907,
                "pitch": 59,
                "velocity": 101,
                "duration": 0.22045454545454524,
                "tempo": 120.0
            },
            {
                "start_time": 3.468181818181818,
                "end_time": 5.131818181818182,
                "pitch": 63,
                "velocity": 101,
                "duration": 1.663636363636364,
                "tempo": 120.0
            },
            {
                "start_time": 5.168181818181818,
                "end_time": 5.256818181818182,
                "pitch": 67,
                "velocity": 101,
                "duration": 0.08863636363636385,
                "tempo": 120.0
            },
            {
                "start_time": 0.05909090909090909,
                "end_time": 5.2749999999999995,
                "pitch": 0,
                "velocity": 101,
                "duration": 5.21590909090909,
                "tempo": 120.0
            },
            {
                "start_time": 3.1704545454545454,
                "end_time": 5.36590909090909,
                "pitch": 66,
                "velocity": 101,
                "duration": 2.195454545454545,
                "tempo": 120.0
            },
            {
                "start_time": 5.2749999999999995,
                "end_time": 5.36590909090909,
                "pitch": 66,
                "velocity": 101,
                "duration": 0.09090909090909083,
                "tempo": 120.0
            },
            {
                "start_time": 5.386363636363636,
                "end_time": 6.379545454545454,
                "pitch": 62,
                "velocity": 101,
                "duration": 0.9931818181818182,
                "tempo": 120.0
            },
            {
                "start_time": 7.163636363636363,
                "end_time": 8.631818181818181,
                "pitch": 64,
                "velocity": 101,
                "duration": 1.4681818181818178,
                "tempo": 120.0
            },
            {
                "start_time": 8.931818181818182,
                "end_time": 9.927272727272726,
                "pitch": 64,
                "velocity": 101,
                "duration": 0.9954545454545443,
                "tempo": 120.0
            },
            {
                "start_time": 5.386363636363636,
                "end_time": 10.263636363636364,
                "pitch": 66,
                "velocity": 101,
                "duration": 4.877272727272728,
                "tempo": 120.0
            },
            {
                "start_time": 10.263636363636364,
                "end_time": 10.486363636363636,
                "pitch": 59,
                "velocity": 101,
                "duration": 0.22272727272727266,
                "tempo": 120.0
            },
            {
                "start_time": 3.468181818181818,
                "end_time": 10.563636363636363,
                "pitch": 44,
                "velocity": 101,
                "duration": 7.095454545454545,
                "tempo": 120.0
            },
            {
                "start_time": 10.563636363636363,
                "end_time": 12.218181818181817,
                "pitch": 63,
                "velocity": 101,
                "duration": 1.6545454545454543,
                "tempo": 120.0
            },
            {
                "start_time": 5.168181818181818,
                "end_time": 12.256818181818181,
                "pitch": 78,
                "velocity": 101,
                "duration": 7.088636363636363,
                "tempo": 120.0
            },
            {
                "start_time": 12.256818181818181,
                "end_time": 12.35,
                "pitch": 67,
                "velocity": 101,
                "duration": 0.0931818181818187,
                "tempo": 120.0
            },
            {
                "start_time": 5.2749999999999995,
                "end_time": 12.368181818181817,
                "pitch": 0,
                "velocity": 101,
                "duration": 7.093181818181818,
                "tempo": 120.0
            },
            {
                "start_time": 10.263636363636364,
                "end_time": 12.461363636363636,
                "pitch": 66,
                "velocity": 101,
                "duration": 2.1977272727272723,
                "tempo": 120.0
            },
            {
                "start_time": 12.368181818181817,
                "end_time": 12.461363636363636,
                "pitch": 66,
                "velocity": 101,
                "duration": 0.0931818181818187,
                "tempo": 120.0
            },
            {
                "start_time": 12.48181818181818,
                "end_time": 13.477272727272727,
                "pitch": 62,
                "velocity": 101,
                "duration": 0.995454545454546,
                "tempo": 120.0
            },
            {
                "start_time": 7.163636363636363,
                "end_time": 14.252272727272727,
                "pitch": 38,
                "velocity": 101,
                "duration": 7.088636363636364,
                "tempo": 120.0
            },
            {
                "start_time": 14.252272727272727,
                "end_time": 14.306818181818182,
                "pitch": 64,
                "velocity": 101,
                "duration": 0.054545454545454675,
                "tempo": 120.0
            }
        ],
        "Vibraphone": [
            {
                "start_time": 6.418181818181818,
                "end_time": 6.529545454545454,
                "pitch": 64,
                "velocity": 101,
                "duration": 0.11136363636363633,
                "tempo": 120.0
            },
            {
                "start_time": 6.5681818181818175,
                "end_time": 6.677272727272727,
                "pitch": 64,
                "velocity": 101,
                "duration": 0.10909090909090935,
                "tempo": 120.0
            },
            {
                "start_time": 6.715909090909091,
                "end_time": 6.827272727272727,
                "pitch": 67,
                "velocity": 101,
                "duration": 0.11136363636363633,
                "tempo": 120.0
            },
            {
                "start_time": 6.863636363636363,
                "end_time": 6.975,
                "pitch": 69,
                "velocity": 101,
                "duration": 0.11136363636363633,
                "tempo": 120.0
            },
            {
                "start_time": 7.013636363636364,
                "end_time": 7.122727272727272,
                "pitch": 69,
                "velocity": 101,
                "duration": 0.10909090909090846,
                "tempo": 120.0
            },
            {
                "start_time": 6.418181818181818,
                "end_time": 13.51590909090909,
                "pitch": 62,
                "velocity": 101,
                "duration": 7.097727272727273,
                "tempo": 120.0
            },
            {
                "start_time": 13.51590909090909,
                "end_time": 13.625,
                "pitch": 64,
                "velocity": 101,
                "duration": 0.10909090909090935,
                "tempo": 120.0
            },
            {
                "start_time": 13.663636363636362,
                "end_time": 13.774999999999999,
                "pitch": 64,
                "velocity": 101,
                "duration": 0.11136363636363633,
                "tempo": 120.0
            },
            {
                "start_time": 6.715909090909091,
                "end_time": 13.813636363636363,
                "pitch": 78,
                "velocity": 101,
                "duration": 7.097727272727272,
                "tempo": 120.0
            },
            {
                "start_time": 6.863636363636363,
                "end_time": 13.924999999999999,
                "pitch": 67,
                "velocity": 101,
                "duration": 7.061363636363636,
                "tempo": 120.0
            },
            {
                "start_time": 13.813636363636363,
                "end_time": 13.924999999999999,
                "pitch": 67,
                "velocity": 101,
                "duration": 0.11136363636363633,
                "tempo": 120.0
            },
            {
                "start_time": 13.963636363636363,
                "end_time": 14.070454545454545,
                "pitch": 69,
                "velocity": 101,
                "duration": 0.10681818181818237,
                "tempo": 120.0
            },
            {
                "start_time": 14.10681818181818,
                "end_time": 14.21590909090909,
                "pitch": 69,
                "velocity": 101,
                "duration": 0.10909090909090935,
                "tempo": 120.0
            }
        ]
    }
}