{
    "track_id": "02 Technotris",
    "mood": "angry",
    "instruments": {
        "Vibraphone": [
            {
                "start_time": 5.590909090909091,
                "end_time": 5.661363636363636,
                "pitch": 79,
                "velocity": 64,
                "duration": 0.07045454545454533,
                "tempo": 120.0
            },
            {
                "start_time": 5.790909090909091,
                "end_time": 5.840909090909091,
                "pitch": 84,
                "velocity": 64,
                "duration": 0.04999999999999982,
                "tempo": 120.0
            },
            {
                "start_time": 5.997727272727272,
                "end_time": 6.047727272727273,
                "pitch": 87,
                "velocity": 64,
                "duration": 0.05000000000000071,
                "tempo": 120.0
            },
            {
                "start_time": 6.202272727272727,
                "end_time": 6.252272727272727,
                "pitch": 87,
                "velocity": 64,
                "duration": 0.04999999999999982,
                "tempo": 120.0
            },
            {
                "start_time": 6.368181818181818,
                "end_time": 6.427272727272727,
                "pitch": 79,
                "velocity": 64,
                "duration": 0.05909090909090864,
                "tempo": 120.0
            },
            {
                "start_time": 6.5636363636363635,
                "end_time": 6.622727272727272,
                "pitch": 84,
                "velocity": 64,
                "duration": 0.05909090909090864,
                "tempo": 120.0
            },
            {
                "start_time": 6.743181818181818,
                "end_time": 6.8136363636363635,
                "pitch": 79,
                "velocity": 64,
                "duration": 0.07045454545454533,
                "tempo": 120.0
            },
            {
                "start_time": 6.945454545454545,
                "end_time": 7.015909090909091,
                "pitch": 82,
                "velocity": 64,
                "duration": 0.07045454545454533,
                "tempo": 120.0
            },
            {
                "start_time": 7.127272727272727,
                "end_time": 7.197727272727272,
                "pitch": 79,
                "velocity": 64,
                "duration": 0.07045454545454533,
                "tempo": 120.0
            },
            {
                "start_time": 7.3181818181818175,
                "end_time": 7.377272727272727,
                "pitch": 84,
                "velocity": 64,
                "duration": 0.05909090909090953,
                "tempo": 120.0
            },
            {
                "start_time": 7.513636363636364,
                "end_time": 7.570454545454545,
                "pitch": 79,
                "velocity": 64,
                "duration": 0.05681818181818166,
                "tempo": 120.0
            },
            {
                "start_time": 7.706818181818181,
                "end_time": 7.7704545454545455,
                "pitch": 86,
                "velocity": 64,
                "duration": 0.06363636363636438,
                "tempo": 120.0
            },
            {
                "start_time": 7.893181818181818,
                "end_time": 7.965909090909091,
                "pitch": 79,
                "velocity": 64,
                "duration": 0.0727272727272732,
                "tempo": 120.0
            },
            {
                "start_time": 8.1,
                "end_time": 8.131818181818181,
                "pitch": 84,
                "velocity": 64,
                "duration": 0.0318181818181813,
                "tempo": 120.0
            },
            {
                "start_time": 8.286363636363635,
                "end_time": 8.377272727272727,
                "pitch": 79,
                "velocity": 64,
                "duration": 0.09090909090909172,
                "tempo": 120.0
            },
            {
                "start_time": 8.684090909090909,
                "end_time": 8.763636363636364,
                "pitch": 79,
                "velocity": 64,
                "duration": 0.07954545454545503,
                "tempo": 120.0
            },
            {
                "start_time": 8.863636363636363,
                "end_time": 8.934090909090909,
                "pitch": 84,
                "velocity": 64,
                "duration": 0.07045454545454533,
                "tempo": 120.0
            },
            {
                "start_time": 9.06590909090909,
                "end_time": 9.136363636363637,
                "pitch": 87,
                "velocity": 64,
                "duration": 0.0704545454545471,
                "tempo": 120.0
            },
            {
                "start_time": 9.26590909090909,
                "end_time": 9.338636363636363,
                "pitch": 87,
                "velocity": 64,
                "duration": 0.07272727272727231,
                "tempo": 120.0
            },
            {
                "start_time": 9.44090909090909,
                "end_time": 9.545454545454545,
                "pitch": 79,
                "velocity": 64,
                "duration": 0.10454545454545539,
                "tempo": 120.0
            },
            {
                "start_time": 9.647727272727272,
                "end_time": 9.706818181818182,
                "pitch": 84,
                "velocity": 64,
                "duration": 0.059090909090910415,
                "tempo": 120.0
            },
            {
                "start_time": 9.825,
                "end_time": 9.920454545454545,
                "pitch": 79,
                "velocity": 64,
                "duration": 0.09545454545454568,
                "tempo": 120.0
            },
            {
                "start_time": 10.038636363636364,
                "end_time": 10.120454545454544,
                "pitch": 82,
                "velocity": 64,
                "duration": 0.08181818181818024,
                "tempo": 120.0
            },
            {
                "start_time": 10.204545454545453,
                "end_time": 10.306818181818182,
                "pitch": 79,
                "velocity": 64,
                "duration": 0.1022727272727284,
                "tempo": 120.0
            },
            {
                "start_time": 10.429545454545455,
                "end_time": 10.5,
                "pitch": 84,
                "velocity": 64,
                "duration": 0.07045454545454533,
                "tempo": 120.0
            },
            {
                "start_time": 10.602272727272727,
                "end_time": 10.702272727272726,
                "pitch": 79,
                "velocity": 64,
                "duration": 0.09999999999999964,
                "tempo": 120.0
            },
            {
                "start_time": 10.813636363636363,
                "end_time": 10.863636363636363,
                "pitch": 86,
                "velocity": 64,
                "duration": 0.05000000000000071,
                "tempo": 120.0
            },
            {
                "start_time": 10.988636363636363,
                "end_time": 11.09090909090909,
                "pitch": 79,
                "velocity": 64,
                "duration": 0.10227272727272663,
                "tempo": 120.0
            },
            {
                "start_time": 11.213636363636363,
                "end_time": 11.26590909090909,
                "pitch": 87,
                "velocity": 64,
                "duration": 0.05227272727272769,
                "tempo": 120.0
            },
            {
                "start_time": 11.375,
                "end_time": 11.477272727272727,
                "pitch": 87,
                "velocity": 64,
                "duration": 0.10227272727272663,
                "tempo": 120.0
            },
            {
                "start_time": 11.768181818181818,
                "end_time": 11.868181818181817,
                "pitch": 79,
                "velocity": 64,
                "duration": 0.09999999999999964,
                "tempo": 120.0
            },
            {
                "start_time": 11.947727272727272,
                "end_time": 12.018181818181818,
                "pitch": 84,
                "velocity": 64,
                "duration": 0.07045454545454533,
                "tempo": 120.0
            },
            {
                "start_time": 12.149999999999999,
                "end_time": 12.220454545454546,
                "pitch": 87,
                "velocity": 64,
                "duration": 0.0704545454545471,
                "tempo": 120.0
            },
            {
                "start_time": 12.35,
                "end_time": 12.418181818181818,
                "pitch": 87,
                "velocity": 64,
                "duration": 0.06818181818181834,
                "tempo": 120.0
            },
            {
                "start_time": 12.527272727272727,
                "end_time": 12.595454545454546,
                "pitch": 79,
                "velocity": 64,
                "duration": 0.06818181818181834,
                "tempo": 120.0
            },
            {
                "start_time": 12.720454545454546,
                "end_time": 12.793181818181818,
                "pitch": 84,
                "velocity": 64,
                "duration": 0.07272727272727231,
                "tempo": 120.0
            },
            {
                "start_time": 12.915909090909091,
                "end_time": 12.979545454545454,
                "pitch": 79,
                "velocity": 64,
                "duration": 0.0636363636363626,
                "tempo": 120.0
            },
            {
                "start_time": 13.122727272727271,
                "end_time": 13.184090909090909,
                "pitch": 82,
                "velocity": 64,
                "duration": 0.0613636363636374,
                "tempo": 120.0
            },
            {
                "start_time": 13.304545454545455,
                "end_time": 13.375,
                "pitch": 79,
                "velocity": 64,
                "duration": 0.07045454545454533,
                "tempo": 120.0
            },
            {
                "start_time": 13.504545454545454,
                "end_time": 13.575,
                "pitch": 84,
                "velocity": 64,
                "duration": 0.07045454545454533,
                "tempo": 120.0
            },
            {
                "start_time": 13.706818181818182,
                "end_time": 13.756818181818181,
                "pitch": 79,
                "velocity": 64,
                "duration": 0.049999999999998934,
                "tempo": 120.0
            },
            {
                "start_time": 13.886363636363635,
                "end_time": 13.959090909090909,
                "pitch": 86,
                "velocity": 64,
                "duration": 0.07272727272727408,
                "tempo": 120.0
            },
            {
                "start_time": 14.093181818181817,
                "end_time": 14.165909090909091,
                "pitch": 79,
                "velocity": 64,
                "duration": 0.07272727272727408,
                "tempo": 120.0
            },
            {
                "start_time": 14.288636363636362,
                "end_time": 14.35,
                "pitch": 84,
                "velocity": 64,
                "duration": 0.0613636363636374,
                "tempo": 120.0
            },
            {
                "start_time": 14.45,
                "end_time": 14.549999999999999,
                "pitch": 79,
                "velocity": 64,
                "duration": 0.09999999999999964,
                "tempo": 120.0
            },
            {
                "start_time": 14.852272727272727,
                "end_time": 14.922727272727272,
                "pitch": 79,
                "velocity": 64,
                "duration": 0.07045454545454533,
                "tempo": 120.0
            },
            {
                "start_time": 15.054545454545455,
                "end_time": 15.125,
                "pitch": 84,
                "velocity": 64,
                "duration": 0.07045454545454533,
                "tempo": 120.0
            },
            {
                "start_time": 15.25,
                "end_time": 15.302272727272726,
                "pitch": 87,
                "velocity": 64,
                "duration": 0.052272727272725916,
                "tempo": 120.0
            },
            {
                "start_time": 15.45681818181818,
                "end_time": 15.51590909090909,
                "pitch": 87,
                "velocity": 64,
                "duration": 0.059090909090910415,
                "tempo": 120.0
            },
            {
                "start_time": 15.61590909090909,
                "end_time": 15.718181818181817,
                "pitch": 79,
                "velocity": 64,
                "duration": 0.10227272727272663,
                "tempo": 120.0
            },
            {
                "start_time": 15.838636363636363,
                "end_time": 15.909090909090908,
                "pitch": 84,
                "velocity": 64,
                "duration": 0.07045454545454533,
                "tempo": 120.0
            },
            {
                "start_time": 16.009090909090908,
                "end_time": 16.10909090909091,
                "pitch": 79,
                "velocity": 64,
                "duration": 0.10000000000000142,
                "tempo": 120.0
            },
            {
                "start_time": 16.220454545454544,
                "end_time": 16.293181818181818,
                "pitch": 82,
                "velocity": 64,
                "duration": 0.07272727272727408,
                "tempo": 120.0
            },
            {
                "start_time": 16.395454545454545,
                "end_time": 16.49772727272727,
                "pitch": 79,
                "velocity": 64,
                "duration": 0.10227272727272663,
                "tempo": 120.0
            },
            {
                "start_time": 16.62272727272727,
                "end_time": 16.68181818181818,
                "pitch": 84,
                "velocity": 64,
                "duration": 0.05909090909090864,
                "tempo": 120.0
            },
            {
                "start_time": 16.804545454545455,
                "end_time": 16.87272727272727,
                "pitch": 79,
                "velocity": 64,
                "duration": 0.06818181818181657,
                "tempo": 120.0
            },
            {
                "start_time": 16.98409090909091,
                "end_time": 17.052272727272726,
                "pitch": 86,
                "velocity": 64,
                "duration": 0.06818181818181657,
                "tempo": 120.0
            },
            {
                "start_time": 17.179545454545455,
                "end_time": 17.277272727272727,
                "pitch": 79,
                "velocity": 64,
                "duration": 0.09772727272727266,
                "tempo": 120.0
            },
            {
                "start_time": 17.36590909090909,
                "end_time": 17.425,
                "pitch": 87,
                "velocity": 64,
                "duration": 0.05909090909091219,
                "tempo": 120.0
            },
            {
                "start_time": 17.545454545454543,
                "end_time": 17.645454545454545,
                "pitch": 87,
                "velocity": 64,
                "duration": 0.10000000000000142,
                "tempo": 120.0
            },
            {
                "start_time": 17.927272727272726,
                "end_time": 18.029545454545453,
                "pitch": 79,
                "velocity": 64,
                "duration": 0.10227272727272663,
                "tempo": 120.0
            },
            {
                "start_time": 18.129545454545454,
                "end_time": 18.2,
                "pitch": 84,
                "velocity": 64,
                "duration": 0.07045454545454533,
                "tempo": 120.0
            },
            {
                "start_time": 18.334090909090907,
                "end_time": 18.386363636363637,
                "pitch": 87,
                "velocity": 64,
                "duration": 0.05227272727272947,
                "tempo": 120.0
            },
            {
                "start_time": 18.53181818181818,
                "end_time": 18.59090909090909,
                "pitch": 87,
                "velocity": 64,
                "duration": 0.05909090909090864,
                "tempo": 120.0
            },
            {
                "start_time": 18.711363636363636,
                "end_time": 18.763636363636362,
                "pitch": 79,
                "velocity": 64,
                "duration": 0.052272727272725916,
                "tempo": 120.0
            },
            {
                "start_time": 18.913636363636364,
                "end_time": 18.98409090909091,
                "pitch": 84,
                "velocity": 64,
                "duration": 0.07045454545454533,
                "tempo": 120.0
            },
            {
                "start_time": 19.095454545454544,
                "end_time": 19.145454545454545,
                "pitch": 79,
                "velocity": 64,
                "duration": 0.05000000000000071,
                "tempo": 120.0
            },
            {
                "start_time": 19.295454545454543,
                "end_time": 19.368181818181817,
                "pitch": 82,
                "velocity": 64,
                "duration": 0.07272727272727408,
                "tempo": 120.0
            },
            {
                "start_time": 19.49090909090909,
                "end_time": 19.552272727272726,
                "pitch": 79,
                "velocity": 64,
                "duration": 0.0613636363636374,
                "tempo": 120.0
            },
            {
                "start_time": 19.69772727272727,
                "end_time": 19.759090909090908,
                "pitch": 84,
                "velocity": 64,
                "duration": 0.0613636363636374,
                "tempo": 120.0
            },
            {
                "start_time": 19.879545454545454,
                "end_time": 19.95,
                "pitch": 79,
                "velocity": 64,
                "duration": 0.07045454545454533,
                "tempo": 120.0
            },
            {
                "start_time": 20.079545454545453,
                "end_time": 20.15,
                "pitch": 86,
                "velocity": 64,
                "duration": 0.07045454545454533,
                "tempo": 120.0
            },
            {
                "start_time": 20.25,
                "end_time": 20.352272727272727,
                "pitch": 79,
                "velocity": 64,
                "duration": 0.10227272727272663,
                "tempo": 120.0
            },
            {
                "start_time": 20.461363636363636,
                "end_time": 20.534090909090907,
                "pitch": 84,
                "velocity": 64,
                "duration": 0.07272727272727053,
                "tempo": 120.0
            },
            {
                "start_time": 20.636363636363637,
                "end_time": 20.74090909090909,
                "pitch": 79,
                "velocity": 64,
                "duration": 0.10454545454545183,
                "tempo": 120.0
            },
            {
                "start_time": 21.045454545454543,
                "end_time": 21.11590909090909,
                "pitch": 79,
                "velocity": 64,
                "duration": 0.07045454545454533,
                "tempo": 120.0
            },
            {
                "start_time": 21.245454545454546,
                "end_time": 21.295454545454543,
                "pitch": 84,
                "velocity": 64,
                "duration": 0.04999999999999716,
                "tempo": 120.0
            },
            {
                "start_time": 21.427272727272726,
                "end_time": 21.477272727272727,
                "pitch": 87,
                "velocity": 64,
                "duration": 0.05000000000000071,
                "tempo": 120.0
            },
            {
                "start_time": 21.627272727272725,
                "end_time": 21.679545454545455,
                "pitch": 87,
                "velocity": 64,
                "duration": 0.05227272727272947,
                "tempo": 120.0
            },
            {
                "start_time": 21.825,
                "end_time": 21.886363636363637,
                "pitch": 79,
                "velocity": 64,
                "duration": 0.0613636363636374,
                "tempo": 120.0
            },
            {
                "start_time": 22.009090909090908,
                "end_time": 22.077272727272724,
                "pitch": 84,
                "velocity": 64,
                "duration": 0.06818181818181657,
                "tempo": 120.0
            },
            {
                "start_time": 22.2,
                "end_time": 22.295454545454543,
                "pitch": 79,
                "velocity": 64,
                "duration": 0.0954545454545439,
                "tempo": 120.0
            },
            {
                "start_time": 22.370454545454546,
                "end_time": 22.472727272727273,
                "pitch": 82,
                "velocity": 64,
                "duration": 0.10227272727272663,
                "tempo": 120.0
            },
            {
                "start_time": 22.577272727272724,
                "end_time": 22.65,
                "pitch": 79,
                "velocity": 64,
                "duration": 0.07272727272727408,
                "tempo": 120.0
            },
            {
                "start_time": 22.772727272727273,
                "end_time": 22.834090909090907,
                "pitch": 84,
                "velocity": 64,
                "duration": 0.061363636363633844,
                "tempo": 120.0
            },
            {
                "start_time": 22.974999999999998,
                "end_time": 23.034090909090907,
                "pitch": 79,
                "velocity": 64,
                "duration": 0.05909090909090864,
                "tempo": 120.0
            },
            {
                "start_time": 23.154545454545453,
                "end_time": 23.224999999999998,
                "pitch": 86,
                "velocity": 64,
                "duration": 0.07045454545454533,
                "tempo": 120.0
            },
            {
                "start_time": 23.336363636363636,
                "end_time": 23.436363636363634,
                "pitch": 79,
                "velocity": 64,
                "duration": 0.09999999999999787,
                "tempo": 120.0
            },
            {
                "start_time": 23.536363636363635,
                "end_time": 23.60909090909091,
                "pitch": 87,
                "velocity": 64,
                "duration": 0.07272727272727408,
                "tempo": 120.0
            },
            {
                "start_time": 23.73181818181818,
                "end_time": 23.81590909090909,
                "pitch": 87,
                "velocity": 64,
                "duration": 0.08409090909091077,
                "tempo": 120.0
            },
            {
                "start_time": 24.120454545454546,
                "end_time": 24.2,
                "pitch": 79,
                "velocity": 64,
                "duration": 0.07954545454545325,
                "tempo": 120.0
            },
            {
                "start_time": 24.320454545454545,
                "end_time": 24.39090909090909,
                "pitch": 84,
                "velocity": 64,
                "duration": 0.07045454545454533,
                "tempo": 120.0
            },
            {
                "start_time": 24.52272727272727,
                "end_time": 24.57272727272727,
                "pitch": 87,
                "velocity": 64,
                "duration": 0.05000000000000071,
                "tempo": 120.0
            },
            {
                "start_time": 24.704545454545453,
                "end_time": 24.775,
                "pitch": 87,
                "velocity": 64,
                "duration": 0.07045454545454533,
                "tempo": 120.0
            },
            {
                "start_time": 24.9,
                "end_time": 24.961363636363636,
                "pitch": 79,
                "velocity": 64,
                "duration": 0.0613636363636374,
                "tempo": 120.0
            },
            {
                "start_time": 25.104545454545452,
                "end_time": 25.161363636363635,
                "pitch": 84,
                "velocity": 64,
                "duration": 0.05681818181818343,
                "tempo": 120.0
            },
            {
                "start_time": 25.275,
                "end_time": 25.34090909090909,
                "pitch": 79,
                "velocity": 64,
                "duration": 0.06590909090909136,
                "tempo": 120.0
            },
            {
                "start_time": 25.46590909090909,
                "end_time": 25.538636363636364,
                "pitch": 82,
                "velocity": 64,
                "duration": 0.07272727272727408,
                "tempo": 120.0
            },
            {
                "start_time": 25.645454545454545,
                "end_time": 25.709090909090907,
                "pitch": 79,
                "velocity": 64,
                "duration": 0.0636363636363626,
                "tempo": 120.0
            },
            {
                "start_time": 25.868181818181817,
                "end_time": 25.94090909090909,
                "pitch": 84,
                "velocity": 64,
                "duration": 0.07272727272727408,
                "tempo": 120.0
            },
            {
                "start_time": 26.063636363636363,
                "end_time": 26.127272727272725,
                "pitch": 79,
                "velocity": 64,
                "duration": 0.0636363636363626,
                "tempo": 120.0
            },
            {
                "start_time": 26.270454545454545,
                "end_time": 26.320454545454545,
                "pitch": 86,
                "velocity": 64,
                "duration": 0.05000000000000071,
                "tempo": 120.0
            },
            {
                "start_time": 26.43181818181818,
                "end_time": 26.53181818181818,
                "pitch": 79,
                "velocity": 64,
                "duration": 0.10000000000000142,
                "tempo": 120.0
            },
            {
                "start_time": 26.652272727272727,
                "end_time": 26.702272727272724,
                "pitch": 84,
                "velocity": 64,
                "duration": 0.04999999999999716,
                "tempo": 120.0
            },
            {
                "start_time": 26.82272727272727,
                "end_time": 26.875,
                "pitch": 79,
                "velocity": 64,
                "duration": 0.05227272727272947,
                "tempo": 120.0
            },
            {
                "start_time": 27.23181818181818,
                "end_time": 27.293181818181818,
                "pitch": 79,
                "velocity": 64,
                "duration": 0.0613636363636374,
                "tempo": 120.0
            },
            {
                "start_time": 27.41590909090909,
                "end_time": 27.48409090909091,
                "pitch": 84,
                "velocity": 64,
                "duration": 0.06818181818182012,
                "tempo": 120.0
            },
            {
                "start_time": 27.60681818181818,
                "end_time": 27.654545454545453,
                "pitch": 87,
                "velocity": 64,
                "duration": 0.04772727272727195,
                "tempo": 120.0
            },
            {
                "start_time": 27.777272727272727,
                "end_time": 27.849999999999998,
                "pitch": 87,
                "velocity": 64,
                "duration": 0.07272727272727053,
                "tempo": 120.0
            },
            {
                "start_time": 27.98409090909091,
                "end_time": 28.05681818181818,
                "pitch": 79,
                "velocity": 64,
                "duration": 0.07272727272727053,
                "tempo": 120.0
            },
            {
                "start_time": 28.179545454545455,
                "end_time": 28.24090909090909,
                "pitch": 84,
                "velocity": 64,
                "duration": 0.061363636363633844,
                "tempo": 120.0
            },
            {
                "start_time": 28.361363636363635,
                "end_time": 28.461363636363636,
                "pitch": 79,
                "velocity": 64,
                "duration": 0.10000000000000142,
                "tempo": 120.0
            },
            {
                "start_time": 28.561363636363634,
                "end_time": 28.643181818181816,
                "pitch": 82,
                "velocity": 64,
                "duration": 0.08181818181818201,
                "tempo": 120.0
            },
            {
                "start_time": 28.743181818181817,
                "end_time": 28.834090909090907,
                "pitch": 79,
                "velocity": 64,
                "duration": 0.09090909090908994,
                "tempo": 120.0
            },
            {
                "start_time": 28.943181818181817,
                "end_time": 29.01590909090909,
                "pitch": 84,
                "velocity": 64,
                "duration": 0.07272727272727408,
                "tempo": 120.0
            },
            {
                "start_time": 29.15,
                "end_time": 29.202272727272724,
                "pitch": 79,
                "velocity": 64,
                "duration": 0.052272727272725916,
                "tempo": 120.0
            },
            {
                "start_time": 29.345454545454544,
                "end_time": 29.40681818181818,
                "pitch": 86,
                "velocity": 64,
                "duration": 0.0613636363636374,
                "tempo": 120.0
            },
            {
                "start_time": 29.527272727272727,
                "end_time": 29.60681818181818,
                "pitch": 79,
                "velocity": 64,
                "duration": 0.07954545454545325,
                "tempo": 120.0
            },
            {
                "start_time": 29.727272727272727,
                "end_time": 29.797727272727272,
                "pitch": 87,
                "velocity": 64,
                "duration": 0.07045454545454533,
                "tempo": 120.0
            },
            {
                "start_time": 29.909090909090907,
                "end_time": 30.009090909090908,
                "pitch": 87,
                "velocity": 64,
                "duration": 0.10000000000000142,
                "tempo": 120.0
            },
            {
                "start_time": 30.28181818181818,
                "end_time": 30.38181818181818,
                "pitch": 79,
                "velocity": 64,
                "duration": 0.09999999999999787,
                "tempo": 120.0
            },
            {
                "start_time": 30.502272727272725,
                "end_time": 30.563636363636363,
                "pitch": 84,
                "velocity": 64,
                "duration": 0.0613636363636374,
                "tempo": 120.0
            },
            {
                "start_time": 30.688636363636363,
                "end_time": 30.738636363636363,
                "pitch": 87,
                "velocity": 64,
                "duration": 0.05000000000000071,
                "tempo": 120.0
            },
            {
                "start_time": 30.895454545454545,
                "end_time": 32.725,
                "pitch": 75,
                "velocity": 64,
                "duration": 1.8295454545454568,
                "tempo": 120.0
            },
            {
                "start_time": 33.970454545454544,
                "end_time": 34.070454545454545,
                "pitch": 75,
                "velocity": 64,
                "duration": 0.10000000000000142,
                "tempo": 120.0
            },
            {
                "start_time": 34.17045454545455,
                "end_time": 34.252272727272725,
                "pitch": 70,
                "velocity": 64,
                "duration": 0.08181818181817846,
                "tempo": 120.0
            },
            {
                "start_time": 34.55681818181818,
                "end_time": 34.65,
                "pitch": 73,
                "velocity": 64,
                "duration": 0.0931818181818187,
                "tempo": 120.0
            },
            {
                "start_time": 34.934090909090905,
                "end_time": 35.03636363636363,
                "pitch": 68,
                "velocity": 64,
                "duration": 0.10227272727272663,
                "tempo": 120.0
            },
            {
                "start_time": 35.31818181818181,
                "end_time": 35.388636363636365,
                "pitch": 68,
                "velocity": 64,
                "duration": 0.07045454545455243,
                "tempo": 120.0
            },
            {
                "start_time": 35.518181818181816,
                "end_time": 35.71363636363636,
                "pitch": 70,
                "velocity": 64,
                "duration": 0.19545454545454533,
                "tempo": 120.0
            },
            {
                "start_time": 35.71363636363636,
                "end_time": 35.775,
                "pitch": 66,
                "velocity": 64,
                "duration": 0.0613636363636374,
                "tempo": 120.0
            },
            {
                "start_time": 35.92045454545455,
                "end_time": 35.98181818181818,
                "pitch": 68,
                "velocity": 64,
                "duration": 0.06136363636363029,
                "tempo": 120.0
            },
            {
                "start_time": 36.10227272727273,
                "end_time": 36.17272727272727,
                "pitch": 68,
                "velocity": 64,
                "duration": 0.07045454545454533,
                "tempo": 120.0
            },
            {
                "start_time": 36.30227272727272,
                "end_time": 36.375,
                "pitch": 73,
                "velocity": 64,
                "duration": 0.07272727272727764,
                "tempo": 120.0
            },
            {
                "start_time": 36.48863636363636,
                "end_time": 36.78636363636363,
                "pitch": 75,
                "velocity": 64,
                "duration": 0.29772727272727195,
                "tempo": 120.0
            },
            {
                "start_time": 36.89090909090909,
                "end_time": 36.94090909090909,
                "pitch": 73,
                "velocity": 64,
                "duration": 0.04999999999999716,
                "tempo": 120.0
            },
            {
                "start_time": 37.09772727272727,
                "end_time": 37.17727272727272,
                "pitch": 75,
                "velocity": 64,
                "duration": 0.07954545454545325,
                "tempo": 120.0
            },
            {
                "start_time": 37.277272727272724,
                "end_time": 37.37954545454545,
                "pitch": 70,
                "velocity": 64,
                "duration": 0.10227272727272663,
                "tempo": 120.0
            },
            {
                "start_time": 37.654545454545456,
                "end_time": 37.752272727272725,
                "pitch": 73,
                "velocity": 64,
                "duration": 0.09772727272726911,
                "tempo": 120.0
            },
            {
                "start_time": 38.04090909090909,
                "end_time": 38.14090909090909,
                "pitch": 68,
                "velocity": 64,
                "duration": 0.10000000000000142,
                "tempo": 120.0
            },
            {
                "start_time": 38.41590909090909,
                "end_time": 38.51363636363636,
                "pitch": 68,
                "velocity": 64,
                "duration": 0.09772727272726911,
                "tempo": 120.0
            },
            {
                "start_time": 38.590909090909086,
                "end_time": 38.8,
                "pitch": 70,
                "velocity": 64,
                "duration": 0.20909090909091077,
                "tempo": 120.0
            },
            {
                "start_time": 38.8,
                "end_time": 38.89545454545454,
                "pitch": 66,
                "velocity": 64,
                "duration": 0.0954545454545439,
                "tempo": 120.0
            },
            {
                "start_time": 39.20681818181818,
                "end_time": 39.25909090909091,
                "pitch": 68,
                "velocity": 64,
                "duration": 0.05227272727272947,
                "tempo": 120.0
            },
            {
                "start_time": 39.393181818181816,
                "end_time": 39.715909090909086,
                "pitch": 61,
                "velocity": 64,
                "duration": 0.32272727272727053,
                "tempo": 120.0
            },
            {
                "start_time": 39.76363636363636,
                "end_time": 39.918181818181814,
                "pitch": 61,
                "velocity": 64,
                "duration": 0.1545454545454561,
                "tempo": 120.0
            },
            {
                "start_time": 40.16590909090909,
                "end_time": 40.26590909090909,
                "pitch": 75,
                "velocity": 64,
                "duration": 0.10000000000000142,
                "tempo": 120.0
            },
            {
                "start_time": 40.34772727272727,
                "end_time": 40.44772727272727,
                "pitch": 70,
                "velocity": 64,
                "duration": 0.10000000000000142,
                "tempo": 120.0
            },
            {
                "start_time": 40.73409090909091,
                "end_time": 40.836363636363636,
                "pitch": 73,
                "velocity": 64,
                "duration": 0.10227272727272663,
                "tempo": 120.0
            },
            {
                "start_time": 41.13181818181818,
                "end_time": 41.23181818181818,
                "pitch": 68,
                "velocity": 64,
                "duration": 0.09999999999999432,
                "tempo": 120.0
            },
            {
                "start_time": 41.518181818181816,
                "end_time": 41.58863636363636,
                "pitch": 68,
                "velocity": 64,
                "duration": 0.07045454545454533,
                "tempo": 120.0
            },
            {
                "start_time": 41.72272727272727,
                "end_time": 41.9,
                "pitch": 70,
                "velocity": 64,
                "duration": 0.17727272727272947,
                "tempo": 120.0
            },
            {
                "start_time": 41.9,
                "end_time": 41.96818181818182,
                "pitch": 66,
                "velocity": 64,
                "duration": 0.06818181818182012,
                "tempo": 120.0
            },
            {
                "start_time": 42.095454545454544,
                "end_time": 42.14545454545454,
                "pitch": 68,
                "velocity": 64,
                "duration": 0.04999999999999716,
                "tempo": 120.0
            },
            {
                "start_time": 42.288636363636364,
                "end_time": 42.35227272727273,
                "pitch": 68,
                "velocity": 64,
                "duration": 0.0636363636363626,
                "tempo": 120.0
            },
            {
                "start_time": 42.49545454545454,
                "end_time": 42.554545454545455,
                "pitch": 73,
                "velocity": 64,
                "duration": 0.05909090909091219,
                "tempo": 120.0
            },
            {
                "start_time": 42.67045454545455,
                "end_time": 42.94772727272727,
                "pitch": 75,
                "velocity": 64,
                "duration": 0.2772727272727238,
                "tempo": 120.0
            },
            {
                "start_time": 43.04772727272727,
                "end_time": 43.09772727272727,
                "pitch": 73,
                "velocity": 64,
                "duration": 0.04999999999999716,
                "tempo": 120.0
            },
            {
                "start_time": 43.23863636363636,
                "end_time": 43.29772727272727,
                "pitch": 75,
                "velocity": 64,
                "duration": 0.05909090909091219,
                "tempo": 120.0
            },
            {
                "start_time": 43.43863636363636,
                "end_time": 43.54090909090909,
                "pitch": 70,
                "velocity": 64,
                "duration": 0.10227272727272663,
                "tempo": 120.0
            },
            {
                "start_time": 43.81590909090909,
                "end_time": 43.913636363636364,
                "pitch": 73,
                "velocity": 64,
                "duration": 0.09772727272727622,
                "tempo": 120.0
            },
            {
                "start_time": 44.199999999999996,
                "end_time": 44.29545454545455,
                "pitch": 68,
                "velocity": 64,
                "duration": 0.09545454545455101,
                "tempo": 120.0
            },
            {
                "start_time": 44.60681818181818,
                "end_time": 44.65909090909091,
                "pitch": 68,
                "velocity": 64,
                "duration": 0.05227272727272947,
                "tempo": 120.0
            },
            {
                "start_time": 44.793181818181814,
                "end_time": 44.98863636363636,
                "pitch": 70,
                "velocity": 64,
                "duration": 0.19545454545454533,
                "tempo": 120.0
            },
            {
                "start_time": 44.98863636363636,
                "end_time": 45.06590909090909,
                "pitch": 66,
                "velocity": 64,
                "duration": 0.07727272727272805,
                "tempo": 120.0
            },
            {
                "start_time": 45.35909090909091,
                "end_time": 45.40909090909091,
                "pitch": 68,
                "velocity": 64,
                "duration": 0.04999999999999716,
                "tempo": 120.0
            },
            {
                "start_time": 45.56363636363636,
                "end_time": 45.89545454545454,
                "pitch": 61,
                "velocity": 64,
                "duration": 0.33181818181817846,
                "tempo": 120.0
            },
            {
                "start_time": 45.94772727272727,
                "end_time": 46.05,
                "pitch": 61,
                "velocity": 64,
                "duration": 0.10227272727272663,
                "tempo": 120.0
            },
            {
                "start_time": 46.33863636363636,
                "end_time": 46.43863636363636,
                "pitch": 75,
                "velocity": 64,
                "duration": 0.10000000000000142,
                "tempo": 120.0
            },
            {
                "start_time": 46.52954545454545,
                "end_time": 46.62954545454545,
                "pitch": 70,
                "velocity": 64,
                "duration": 0.10000000000000142,
                "tempo": 120.0
            },
            {
                "start_time": 46.91590909090909,
                "end_time": 47.02045454545454,
                "pitch": 73,
                "velocity": 64,
                "duration": 0.10454545454545183,
                "tempo": 120.0
            },
            {
                "start_time": 47.29772727272727,
                "end_time": 47.445454545454545,
                "pitch": 68,
                "velocity": 64,
                "duration": 0.14772727272727337,
                "tempo": 120.0
            },
            {
                "start_time": 47.68863636363636,
                "end_time": 48.018181818181816,
                "pitch": 68,
                "velocity": 64,
                "duration": 0.32954545454545325,
                "tempo": 120.0
            },
            {
                "start_time": 48.06590909090909,
                "end_time": 48.236363636363635,
                "pitch": 70,
                "velocity": 64,
                "duration": 0.17045454545454675,
                "tempo": 120.0
            },
            {
                "start_time": 48.236363636363635,
                "end_time": 48.30681818181818,
                "pitch": 73,
                "velocity": 64,
                "duration": 0.07045454545454533,
                "tempo": 120.0
            },
            {
                "start_time": 48.44090909090909,
                "end_time": 48.51363636363636,
                "pitch": 76,
                "velocity": 64,
                "duration": 0.07272727272727053,
                "tempo": 120.0
            },
            {
                "start_time": 48.63636363636363,
                "end_time": 48.69772727272727,
                "pitch": 70,
                "velocity": 64,
                "duration": 0.0613636363636374,
                "tempo": 120.0
            },
            {
                "start_time": 48.83863636363636,
                "end_time": 48.9,
                "pitch": 70,
                "velocity": 64,
                "duration": 0.0613636363636374,
                "tempo": 120.0
            },
            {
                "start_time": 49.02045454545454,
                "end_time": 49.090909090909086,
                "pitch": 71,
                "velocity": 64,
                "duration": 0.07045454545454533,
                "tempo": 120.0
            },
            {
                "start_time": 49.224999999999994,
                "end_time": 50.39772727272727,
                "pitch": 72,
                "velocity": 64,
                "duration": 1.172727272727279,
                "tempo": 120.0
            },
            {
                "start_time": 50.39772727272727,
                "end_time": 50.46818181818182,
                "pitch": 74,
                "velocity": 64,
                "duration": 0.07045454545454533,
                "tempo": 120.0
            },
            {
                "start_time": 50.57727272727273,
                "end_time": 50.64772727272727,
                "pitch": 72,
                "velocity": 64,
                "duration": 0.07045454545454533,
                "tempo": 120.0
            },
            {
                "start_time": 50.768181818181816,
                "end_time": 51.538636363636364,
                "pitch": 69,
                "velocity": 64,
                "duration": 0.7704545454545482,
                "tempo": 120.0
            },
            {
                "start_time": 51.74318181818182,
                "end_time": 51.81590909090909,
                "pitch": 74,
                "velocity": 64,
                "duration": 0.07272727272727053,
                "tempo": 120.0
            },
            {
                "start_time": 51.93636363636363,
                "end_time": 51.986363636363635,
                "pitch": 74,
                "velocity": 64,
                "duration": 0.05000000000000426,
                "tempo": 120.0
            },
            {
                "start_time": 52.13636363636363,
                "end_time": 52.18863636363636,
                "pitch": 75,
                "velocity": 64,
                "duration": 0.05227272727272947,
                "tempo": 120.0
            },
            {
                "start_time": 52.32272727272727,
                "end_time": 53.465909090909086,
                "pitch": 76,
                "velocity": 64,
                "duration": 1.1431818181818159,
                "tempo": 120.0
            },
            {
                "start_time": 53.465909090909086,
                "end_time": 53.56363636363636,
                "pitch": 77,
                "velocity": 64,
                "duration": 0.09772727272727622,
                "tempo": 120.0
            },
            {
                "start_time": 53.64090909090909,
                "end_time": 53.711363636363636,
                "pitch": 76,
                "velocity": 64,
                "duration": 0.07045454545454533,
                "tempo": 120.0
            },
            {
                "start_time": 53.84318181818182,
                "end_time": 54.19772727272727,
                "pitch": 79,
                "velocity": 64,
                "duration": 0.35454545454545183,
                "tempo": 120.0
            },
            {
                "start_time": 54.23863636363636,
                "end_time": 54.32272727272727,
                "pitch": 77,
                "velocity": 64,
                "duration": 0.08409090909091077,
                "tempo": 120.0
            },
            {
                "start_time": 54.425,
                "end_time": 54.49772727272727,
                "pitch": 79,
                "velocity": 64,
                "duration": 0.07272727272727053,
                "tempo": 120.0
            },
            {
                "start_time": 54.631818181818176,
                "end_time": 54.71363636363636,
                "pitch": 81,
                "velocity": 64,
                "duration": 0.08181818181818556,
                "tempo": 120.0
            }
        ],
        "Lead 2 (sawtooth)": [
            {
                "start_time": 12.35,
                "end_time": 12.545454545454545,
                "pitch": 67,
                "velocity": 80,
                "duration": 0.19545454545454533,
                "tempo": 120.0
            },
            {
                "start_time": 12.720454545454546,
                "end_time": 12.927272727272726,
                "pitch": 67,
                "velocity": 80,
                "duration": 0.20681818181818024,
                "tempo": 120.0
            },
            {
                "start_time": 13.122727272727271,
                "end_time": 13.325,
                "pitch": 65,
                "velocity": 80,
                "duration": 0.20227272727272805,
                "tempo": 120.0
            },
            {
                "start_time": 13.504545454545454,
                "end_time": 13.706818181818182,
                "pitch": 65,
                "velocity": 80,
                "duration": 0.20227272727272805,
                "tempo": 120.0
            },
            {
                "start_time": 13.886363636363635,
                "end_time": 14.093181818181817,
                "pitch": 65,
                "velocity": 80,
                "duration": 0.206818181818182,
                "tempo": 120.0
            },
            {
                "start_time": 14.288636363636362,
                "end_time": 14.470454545454544,
                "pitch": 63,
                "velocity": 80,
                "duration": 0.18181818181818166,
                "tempo": 120.0
            },
            {
                "start_time": 14.672727272727272,
                "end_time": 14.852272727272727,
                "pitch": 63,
                "velocity": 80,
                "duration": 0.17954545454545467,
                "tempo": 120.0
            },
            {
                "start_time": 15.054545454545455,
                "end_time": 15.25,
                "pitch": 65,
                "velocity": 80,
                "duration": 0.19545454545454533,
                "tempo": 120.0
            },
            {
                "start_time": 15.45681818181818,
                "end_time": 15.636363636363635,
                "pitch": 67,
                "velocity": 80,
                "duration": 0.17954545454545467,
                "tempo": 120.0
            },
            {
                "start_time": 15.838636363636363,
                "end_time": 16.070454545454545,
                "pitch": 67,
                "velocity": 80,
                "duration": 0.23181818181818237,
                "tempo": 120.0
            },
            {
                "start_time": 16.220454545454544,
                "end_time": 16.46818181818182,
                "pitch": 67,
                "velocity": 80,
                "duration": 0.2477272727272748,
                "tempo": 120.0
            },
            {
                "start_time": 16.62272727272727,
                "end_time": 16.87272727272727,
                "pitch": 68,
                "velocity": 80,
                "duration": 0.25,
                "tempo": 120.0
            },
            {
                "start_time": 16.98409090909091,
                "end_time": 17.227272727272727,
                "pitch": 68,
                "velocity": 80,
                "duration": 0.24318181818181728,
                "tempo": 120.0
            },
            {
                "start_time": 17.36590909090909,
                "end_time": 17.61590909090909,
                "pitch": 70,
                "velocity": 80,
                "duration": 0.25,
                "tempo": 120.0
            },
            {
                "start_time": 17.74772727272727,
                "end_time": 17.94772727272727,
                "pitch": 70,
                "velocity": 80,
                "duration": 0.1999999999999993,
                "tempo": 120.0
            },
            {
                "start_time": 18.129545454545454,
                "end_time": 18.334090909090907,
                "pitch": 68,
                "velocity": 80,
                "duration": 0.20454545454545325,
                "tempo": 120.0
            },
            {
                "start_time": 18.53181818181818,
                "end_time": 18.73181818181818,
                "pitch": 68,
                "velocity": 80,
                "duration": 0.1999999999999993,
                "tempo": 120.0
            },
            {
                "start_time": 18.913636363636364,
                "end_time": 19.113636363636363,
                "pitch": 67,
                "velocity": 80,
                "duration": 0.1999999999999993,
                "tempo": 120.0
            },
            {
                "start_time": 19.295454545454543,
                "end_time": 19.49090909090909,
                "pitch": 65,
                "velocity": 80,
                "duration": 0.19545454545454533,
                "tempo": 120.0
            },
            {
                "start_time": 19.69772727272727,
                "end_time": 19.879545454545454,
                "pitch": 65,
                "velocity": 80,
                "duration": 0.18181818181818343,
                "tempo": 120.0
            },
            {
                "start_time": 20.079545454545453,
                "end_time": 20.261363636363637,
                "pitch": 65,
                "velocity": 80,
                "duration": 0.18181818181818343,
                "tempo": 120.0
            },
            {
                "start_time": 20.461363636363636,
                "end_time": 20.65681818181818,
                "pitch": 63,
                "velocity": 80,
                "duration": 0.19545454545454533,
                "tempo": 120.0
            },
            {
                "start_time": 20.863636363636363,
                "end_time": 21.045454545454543,
                "pitch": 63,
                "velocity": 80,
                "duration": 0.18181818181817988,
                "tempo": 120.0
            },
            {
                "start_time": 21.245454545454546,
                "end_time": 21.427272727272726,
                "pitch": 65,
                "velocity": 80,
                "duration": 0.18181818181817988,
                "tempo": 120.0
            },
            {
                "start_time": 21.627272727272725,
                "end_time": 21.825,
                "pitch": 67,
                "velocity": 80,
                "duration": 0.19772727272727408,
                "tempo": 120.0
            },
            {
                "start_time": 22.009090909090908,
                "end_time": 22.24772727272727,
                "pitch": 67,
                "velocity": 80,
                "duration": 0.2386363636363633,
                "tempo": 120.0
            },
            {
                "start_time": 22.370454545454546,
                "end_time": 22.627272727272725,
                "pitch": 67,
                "velocity": 80,
                "duration": 0.25681818181817917,
                "tempo": 120.0
            },
            {
                "start_time": 22.772727272727273,
                "end_time": 23.025,
                "pitch": 68,
                "velocity": 80,
                "duration": 0.2522727272727252,
                "tempo": 120.0
            },
            {
                "start_time": 23.154545454545453,
                "end_time": 23.40681818181818,
                "pitch": 68,
                "velocity": 80,
                "duration": 0.25227272727272876,
                "tempo": 120.0
            },
            {
                "start_time": 23.536363636363635,
                "end_time": 23.795454545454543,
                "pitch": 70,
                "velocity": 80,
                "duration": 0.25909090909090793,
                "tempo": 120.0
            },
            {
                "start_time": 23.938636363636363,
                "end_time": 24.14090909090909,
                "pitch": 70,
                "velocity": 80,
                "duration": 0.20227272727272805,
                "tempo": 120.0
            },
            {
                "start_time": 24.320454545454545,
                "end_time": 24.52272727272727,
                "pitch": 68,
                "velocity": 80,
                "duration": 0.2022727272727245,
                "tempo": 120.0
            },
            {
                "start_time": 24.704545454545453,
                "end_time": 24.9,
                "pitch": 68,
                "velocity": 80,
                "duration": 0.19545454545454533,
                "tempo": 120.0
            },
            {
                "start_time": 25.104545454545452,
                "end_time": 25.275,
                "pitch": 67,
                "velocity": 80,
                "duration": 0.17045454545454675,
                "tempo": 120.0
            },
            {
                "start_time": 25.46590909090909,
                "end_time": 25.65681818181818,
                "pitch": 65,
                "velocity": 80,
                "duration": 0.19090909090909136,
                "tempo": 120.0
            },
            {
                "start_time": 25.868181818181817,
                "end_time": 26.063636363636363,
                "pitch": 65,
                "velocity": 80,
                "duration": 0.19545454545454533,
                "tempo": 120.0
            },
            {
                "start_time": 26.270454545454545,
                "end_time": 26.452272727272724,
                "pitch": 65,
                "velocity": 80,
                "duration": 0.18181818181817988,
                "tempo": 120.0
            },
            {
                "start_time": 26.652272727272727,
                "end_time": 26.834090909090907,
                "pitch": 63,
                "velocity": 80,
                "duration": 0.18181818181817988,
                "tempo": 120.0
            },
            {
                "start_time": 27.034090909090907,
                "end_time": 27.24090909090909,
                "pitch": 63,
                "velocity": 80,
                "duration": 0.206818181818182,
                "tempo": 120.0
            },
            {
                "start_time": 27.41590909090909,
                "end_time": 27.60681818181818,
                "pitch": 65,
                "velocity": 80,
                "duration": 0.19090909090909136,
                "tempo": 120.0
            },
            {
                "start_time": 27.777272727272727,
                "end_time": 28.025,
                "pitch": 67,
                "velocity": 80,
                "duration": 0.24772727272727124,
                "tempo": 120.0
            },
            {
                "start_time": 28.159090909090907,
                "end_time": 28.411363636363635,
                "pitch": 67,
                "velocity": 80,
                "duration": 0.25227272727272876,
                "tempo": 120.0
            },
            {
                "start_time": 28.561363636363634,
                "end_time": 28.813636363636363,
                "pitch": 67,
                "velocity": 80,
                "duration": 0.25227272727272876,
                "tempo": 120.0
            },
            {
                "start_time": 28.943181818181817,
                "end_time": 29.190909090909088,
                "pitch": 68,
                "velocity": 80,
                "duration": 0.24772727272727124,
                "tempo": 120.0
            },
            {
                "start_time": 29.345454545454544,
                "end_time": 29.577272727272724,
                "pitch": 68,
                "velocity": 80,
                "duration": 0.2318181818181806,
                "tempo": 120.0
            },
            {
                "start_time": 29.727272727272727,
                "end_time": 29.959090909090907,
                "pitch": 70,
                "velocity": 80,
                "duration": 0.2318181818181806,
                "tempo": 120.0
            },
            {
                "start_time": 30.10909090909091,
                "end_time": 30.352272727272727,
                "pitch": 70,
                "velocity": 80,
                "duration": 0.24318181818181728,
                "tempo": 120.0
            },
            {
                "start_time": 30.502272727272725,
                "end_time": 30.688636363636363,
                "pitch": 68,
                "velocity": 80,
                "duration": 0.1863636363636374,
                "tempo": 120.0
            },
            {
                "start_time": 30.895454545454545,
                "end_time": 30.945454545454545,
                "pitch": 75,
                "velocity": 51,
                "duration": 0.05000000000000071,
                "tempo": 120.0
            },
            {
                "start_time": 30.995454545454542,
                "end_time": 31.045454545454543,
                "pitch": 75,
                "velocity": 51,
                "duration": 0.05000000000000071,
                "tempo": 120.0
            },
            {
                "start_time": 31.075,
                "end_time": 31.125,
                "pitch": 87,
                "velocity": 51,
                "duration": 0.05000000000000071,
                "tempo": 120.0
            },
            {
                "start_time": 31.174999999999997,
                "end_time": 31.227272727272727,
                "pitch": 87,
                "velocity": 51,
                "duration": 0.05227272727272947,
                "tempo": 120.0
            },
            {
                "start_time": 31.277272727272727,
                "end_time": 31.327272727272724,
                "pitch": 75,
                "velocity": 51,
                "duration": 0.04999999999999716,
                "tempo": 120.0
            },
            {
                "start_time": 31.368181818181817,
                "end_time": 31.420454545454543,
                "pitch": 75,
                "velocity": 51,
                "duration": 0.052272727272725916,
                "tempo": 120.0
            },
            {
                "start_time": 31.472727272727273,
                "end_time": 31.525,
                "pitch": 87,
                "velocity": 51,
                "duration": 0.052272727272725916,
                "tempo": 120.0
            },
            {
                "start_time": 31.575,
                "end_time": 31.627272727272725,
                "pitch": 87,
                "velocity": 51,
                "duration": 0.052272727272725916,
                "tempo": 120.0
            },
            {
                "start_time": 31.679545454545455,
                "end_time": 31.709090909090907,
                "pitch": 75,
                "velocity": 51,
                "duration": 0.029545454545452543,
                "tempo": 120.0
            },
            {
                "start_time": 31.759090909090908,
                "end_time": 31.80909090909091,
                "pitch": 75,
                "velocity": 51,
                "duration": 0.05000000000000071,
                "tempo": 120.0
            },
            {
                "start_time": 31.859090909090906,
                "end_time": 31.909090909090907,
                "pitch": 87,
                "velocity": 51,
                "duration": 0.05000000000000071,
                "tempo": 120.0
            },
            {
                "start_time": 31.961363636363636,
                "end_time": 32.01136363636363,
                "pitch": 87,
                "velocity": 51,
                "duration": 0.04999999999999716,
                "tempo": 120.0
            },
            {
                "start_time": 32.06136363636364,
                "end_time": 32.090909090909086,
                "pitch": 75,
                "velocity": 51,
                "duration": 0.02954545454544899,
                "tempo": 120.0
            },
            {
                "start_time": 32.14090909090909,
                "end_time": 32.19090909090909,
                "pitch": 75,
                "velocity": 51,
                "duration": 0.04999999999999716,
                "tempo": 120.0
            },
            {
                "start_time": 32.24090909090909,
                "end_time": 32.293181818181814,
                "pitch": 87,
                "velocity": 51,
                "duration": 0.052272727272722364,
                "tempo": 120.0
            },
            {
                "start_time": 32.34318181818182,
                "end_time": 32.393181818181816,
                "pitch": 87,
                "velocity": 51,
                "duration": 0.04999999999999716,
                "tempo": 120.0
            },
            {
                "start_time": 32.434090909090905,
                "end_time": 32.48181818181818,
                "pitch": 75,
                "velocity": 51,
                "duration": 0.04772727272727195,
                "tempo": 120.0
            },
            {
                "start_time": 32.529545454545456,
                "end_time": 32.559090909090905,
                "pitch": 75,
                "velocity": 51,
                "duration": 0.02954545454544899,
                "tempo": 120.0
            },
            {
                "start_time": 32.627272727272725,
                "end_time": 32.67727272727272,
                "pitch": 87,
                "velocity": 51,
                "duration": 0.04999999999999716,
                "tempo": 120.0
            },
            {
                "start_time": 32.725,
                "end_time": 32.775,
                "pitch": 87,
                "velocity": 51,
                "duration": 0.04999999999999716,
                "tempo": 120.0
            },
            {
                "start_time": 32.80227272727272,
                "end_time": 32.85454545454545,
                "pitch": 75,
                "velocity": 51,
                "duration": 0.05227272727272947,
                "tempo": 120.0
            },
            {
                "start_time": 32.904545454545456,
                "end_time": 32.95454545454545,
                "pitch": 75,
                "velocity": 51,
                "duration": 0.04999999999999716,
                "tempo": 120.0
            },
            {
                "start_time": 33.00454545454545,
                "end_time": 33.054545454545455,
                "pitch": 87,
                "velocity": 51,
                "duration": 0.05000000000000426,
                "tempo": 120.0
            },
            {
                "start_time": 33.10454545454545,
                "end_time": 33.13409090909091,
                "pitch": 87,
                "velocity": 51,
                "duration": 0.029545454545456096,
                "tempo": 120.0
            },
            {
                "start_time": 33.18636363636364,
                "end_time": 33.236363636363635,
                "pitch": 75,
                "velocity": 51,
                "duration": 0.04999999999999716,
                "tempo": 120.0
            },
            {
                "start_time": 33.288636363636364,
                "end_time": 33.340909090909086,
                "pitch": 75,
                "velocity": 51,
                "duration": 0.052272727272722364,
                "tempo": 120.0
            },
            {
                "start_time": 33.39090909090909,
                "end_time": 33.44318181818181,
                "pitch": 87,
                "velocity": 51,
                "duration": 0.052272727272722364,
                "tempo": 120.0
            },
            {
                "start_time": 33.49545454545454,
                "end_time": 33.54545454545455,
                "pitch": 87,
                "velocity": 51,
                "duration": 0.05000000000000426,
                "tempo": 120.0
            },
            {
                "start_time": 33.58863636363636,
                "end_time": 33.638636363636365,
                "pitch": 75,
                "velocity": 51,
                "duration": 0.05000000000000426,
                "tempo": 120.0
            },
            {
                "start_time": 33.68863636363636,
                "end_time": 33.73863636363636,
                "pitch": 75,
                "velocity": 51,
                "duration": 0.04999999999999716,
                "tempo": 120.0
            },
            {
                "start_time": 33.788636363636364,
                "end_time": 33.81818181818181,
                "pitch": 87,
                "velocity": 51,
                "duration": 0.02954545454544899,
                "tempo": 120.0
            },
            {
                "start_time": 33.85,
                "end_time": 33.9,
                "pitch": 87,
                "velocity": 51,
                "duration": 0.04999999999999716,
                "tempo": 120.0
            },
            {
                "start_time": 33.970454545454544,
                "end_time": 34.0,
                "pitch": 75,
                "velocity": 51,
                "duration": 0.029545454545456096,
                "tempo": 120.0
            },
            {
                "start_time": 34.05,
                "end_time": 34.1,
                "pitch": 75,
                "velocity": 51,
                "duration": 0.05000000000000426,
                "tempo": 120.0
            },
            {
                "start_time": 34.17045454545455,
                "end_time": 34.220454545454544,
                "pitch": 87,
                "velocity": 51,
                "duration": 0.04999999999999716,
                "tempo": 120.0
            },
            {
                "start_time": 34.252272727272725,
                "end_time": 34.30227272727272,
                "pitch": 87,
                "velocity": 51,
                "duration": 0.04999999999999716,
                "tempo": 120.0
            },
            {
                "start_time": 34.35227272727273,
                "end_time": 34.402272727272724,
                "pitch": 75,
                "velocity": 51,
                "duration": 0.04999999999999716,
                "tempo": 120.0
            },
            {
                "start_time": 34.45454545454545,
                "end_time": 34.50681818181818,
                "pitch": 75,
                "velocity": 51,
                "duration": 0.05227272727272947,
                "tempo": 120.0
            },
            {
                "start_time": 34.55681818181818,
                "end_time": 34.57954545454545,
                "pitch": 87,
                "velocity": 51,
                "duration": 0.022727272727273373,
                "tempo": 120.0
            },
            {
                "start_time": 34.62954545454545,
                "end_time": 34.68181818181818,
                "pitch": 87,
                "velocity": 51,
                "duration": 0.05227272727272947,
                "tempo": 120.0
            },
            {
                "start_time": 34.75454545454545,
                "end_time": 34.804545454545455,
                "pitch": 75,
                "velocity": 51,
                "duration": 0.05000000000000426,
                "tempo": 120.0
            },
            {
                "start_time": 34.85454545454545,
                "end_time": 34.904545454545456,
                "pitch": 75,
                "velocity": 51,
                "duration": 0.05000000000000426,
                "tempo": 120.0
            },
            {
                "start_time": 34.934090909090905,
                "end_time": 34.986363636363635,
                "pitch": 87,
                "velocity": 51,
                "duration": 0.05227272727272947,
                "tempo": 120.0
            },
            {
                "start_time": 35.03636363636363,
                "end_time": 35.086363636363636,
                "pitch": 87,
                "velocity": 51,
                "duration": 0.05000000000000426,
                "tempo": 120.0
            },
            {
                "start_time": 35.13636363636363,
                "end_time": 35.18636363636364,
                "pitch": 75,
                "velocity": 51,
                "duration": 0.05000000000000426,
                "tempo": 120.0
            },
            {
                "start_time": 35.236363636363635,
                "end_time": 35.28636363636363,
                "pitch": 75,
                "velocity": 51,
                "duration": 0.04999999999999716,
                "tempo": 120.0
            },
            {
                "start_time": 35.31818181818181,
                "end_time": 35.36818181818182,
                "pitch": 87,
                "velocity": 51,
                "duration": 0.05000000000000426,
                "tempo": 120.0
            },
            {
                "start_time": 35.418181818181814,
                "end_time": 35.46818181818182,
                "pitch": 87,
                "velocity": 51,
                "duration": 0.05000000000000426,
                "tempo": 120.0
            },
            {
                "start_time": 35.518181818181816,
                "end_time": 35.570454545454545,
                "pitch": 75,
                "velocity": 51,
                "duration": 0.05227272727272947,
                "tempo": 120.0
            },
            {
                "start_time": 35.62045454545454,
                "end_time": 35.66136363636363,
                "pitch": 75,
                "velocity": 51,
                "duration": 0.04090909090908923,
                "tempo": 120.0
            },
            {
                "start_time": 35.71363636363636,
                "end_time": 35.76590909090909,
                "pitch": 87,
                "velocity": 51,
                "duration": 0.05227272727272947,
                "tempo": 120.0
            },
            {
                "start_time": 35.81818181818181,
                "end_time": 35.86818181818182,
                "pitch": 87,
                "velocity": 51,
                "duration": 0.05000000000000426,
                "tempo": 120.0
            },
            {
                "start_time": 35.92045454545455,
                "end_time": 35.970454545454544,
                "pitch": 75,
                "velocity": 51,
                "duration": 0.04999999999999716,
                "tempo": 120.0
            },
            {
                "start_time": 36.02045454545454,
                "end_time": 36.05,
                "pitch": 75,
                "velocity": 51,
                "duration": 0.029545454545456096,
                "tempo": 120.0
            },
            {
                "start_time": 36.10227272727273,
                "end_time": 36.152272727272724,
                "pitch": 87,
                "velocity": 51,
                "duration": 0.04999999999999716,
                "tempo": 120.0
            },
            {
                "start_time": 36.20227272727273,
                "end_time": 36.252272727272725,
                "pitch": 87,
                "velocity": 51,
                "duration": 0.04999999999999716,
                "tempo": 120.0
            },
            {
                "start_time": 36.30227272727272,
                "end_time": 36.35454545454545,
                "pitch": 75,
                "velocity": 51,
                "duration": 0.05227272727272947,
                "tempo": 120.0
            },
            {
                "start_time": 36.38409090909091,
                "end_time": 36.43636363636364,
                "pitch": 75,
                "velocity": 51,
                "duration": 0.05227272727272947,
                "tempo": 120.0
            },
            {
                "start_time": 36.48863636363636,
                "end_time": 36.538636363636364,
                "pitch": 87,
                "velocity": 51,
                "duration": 0.05000000000000426,
                "tempo": 120.0
            },
            {
                "start_time": 36.590909090909086,
                "end_time": 36.643181818181816,
                "pitch": 87,
                "velocity": 51,
                "duration": 0.05227272727272947,
                "tempo": 120.0
            },
            {
                "start_time": 36.695454545454545,
                "end_time": 36.74545454545454,
                "pitch": 75,
                "velocity": 51,
                "duration": 0.04999999999999716,
                "tempo": 120.0
            },
            {
                "start_time": 36.78636363636363,
                "end_time": 36.81818181818181,
                "pitch": 75,
                "velocity": 51,
                "duration": 0.0318181818181813,
                "tempo": 120.0
            },
            {
                "start_time": 36.89090909090909,
                "end_time": 36.94090909090909,
                "pitch": 87,
                "velocity": 51,
                "duration": 0.04999999999999716,
                "tempo": 120.0
            },
            {
                "start_time": 36.99318181818182,
                "end_time": 37.04545454545455,
                "pitch": 87,
                "velocity": 51,
                "duration": 0.05227272727272947,
                "tempo": 120.0
            },
            {
                "start_time": 37.09772727272727,
                "end_time": 37.127272727272725,
                "pitch": 75,
                "velocity": 51,
                "duration": 0.029545454545456096,
                "tempo": 120.0
            },
            {
                "start_time": 37.17727272727272,
                "end_time": 37.22727272727273,
                "pitch": 75,
                "velocity": 51,
                "duration": 0.05000000000000426,
                "tempo": 120.0
            },
            {
                "start_time": 37.277272727272724,
                "end_time": 37.32727272727273,
                "pitch": 87,
                "velocity": 51,
                "duration": 0.05000000000000426,
                "tempo": 120.0
            },
            {
                "start_time": 37.37954545454545,
                "end_time": 37.429545454545455,
                "pitch": 87,
                "velocity": 51,
                "duration": 0.05000000000000426,
                "tempo": 120.0
            },
            {
                "start_time": 37.47954545454545,
                "end_time": 37.527272727272724,
                "pitch": 75,
                "velocity": 51,
                "duration": 0.04772727272727195,
                "tempo": 120.0
            },
            {
                "start_time": 37.55681818181818,
                "end_time": 37.60681818181818,
                "pitch": 75,
                "velocity": 51,
                "duration": 0.04999999999999716,
                "tempo": 120.0
            },
            {
                "start_time": 37.654545454545456,
                "end_time": 37.70227272727273,
                "pitch": 87,
                "velocity": 51,
                "duration": 0.04772727272727195,
                "tempo": 120.0
            },
            {
                "start_time": 37.752272727272725,
                "end_time": 37.8,
                "pitch": 87,
                "velocity": 51,
                "duration": 0.04772727272727195,
                "tempo": 120.0
            },
            {
                "start_time": 37.83863636363636,
                "end_time": 37.88863636363636,
                "pitch": 75,
                "velocity": 51,
                "duration": 0.04999999999999716,
                "tempo": 120.0
            },
            {
                "start_time": 37.94090909090909,
                "end_time": 37.99090909090909,
                "pitch": 75,
                "velocity": 51,
                "duration": 0.05000000000000426,
                "tempo": 120.0
            },
            {
                "start_time": 38.04090909090909,
                "end_time": 38.090909090909086,
                "pitch": 87,
                "velocity": 51,
                "duration": 0.04999999999999716,
                "tempo": 120.0
            },
            {
                "start_time": 38.14090909090909,
                "end_time": 38.17045454545455,
                "pitch": 87,
                "velocity": 51,
                "duration": 0.029545454545456096,
                "tempo": 120.0
            },
            {
                "start_time": 38.220454545454544,
                "end_time": 38.25,
                "pitch": 75,
                "velocity": 51,
                "duration": 0.029545454545456096,
                "tempo": 120.0
            },
            {
                "start_time": 38.31818181818181,
                "end_time": 38.36818181818182,
                "pitch": 75,
                "velocity": 51,
                "duration": 0.05000000000000426,
                "tempo": 120.0
            },
            {
                "start_time": 38.41590909090909,
                "end_time": 38.465909090909086,
                "pitch": 87,
                "velocity": 51,
                "duration": 0.04999999999999716,
                "tempo": 120.0
            },
            {
                "start_time": 38.51363636363636,
                "end_time": 38.53409090909091,
                "pitch": 87,
                "velocity": 51,
                "duration": 0.020454545454548168,
                "tempo": 120.0
            },
            {
                "start_time": 38.590909090909086,
                "end_time": 38.643181818181816,
                "pitch": 75,
                "velocity": 51,
                "duration": 0.05227272727272947,
                "tempo": 120.0
            },
            {
                "start_time": 38.695454545454545,
                "end_time": 38.74772727272727,
                "pitch": 75,
                "velocity": 51,
                "duration": 0.052272727272722364,
                "tempo": 120.0
            },
            {
                "start_time": 38.8,
                "end_time": 38.85454545454545,
                "pitch": 87,
                "velocity": 51,
                "duration": 0.054545454545454675,
                "tempo": 120.0
            },
            {
                "start_time": 38.89545454545454,
                "end_time": 38.94772727272727,
                "pitch": 87,
                "velocity": 51,
                "duration": 0.05227272727272947,
                "tempo": 120.0
            },
            {
                "start_time": 39.0,
                "end_time": 39.05227272727272,
                "pitch": 75,
                "velocity": 51,
                "duration": 0.052272727272722364,
                "tempo": 120.0
            },
            {
                "start_time": 39.10454545454545,
                "end_time": 39.15681818181818,
                "pitch": 75,
                "velocity": 51,
                "duration": 0.05227272727272947,
                "tempo": 120.0
            },
            {
                "start_time": 39.20681818181818,
                "end_time": 39.25909090909091,
                "pitch": 87,
                "velocity": 51,
                "duration": 0.05227272727272947,
                "tempo": 120.0
            },
            {
                "start_time": 39.29090909090909,
                "end_time": 39.340909090909086,
                "pitch": 87,
                "velocity": 51,
                "duration": 0.04999999999999716,
                "tempo": 120.0
            },
            {
                "start_time": 39.393181818181816,
                "end_time": 39.44318181818181,
                "pitch": 75,
                "velocity": 51,
                "duration": 0.04999999999999716,
                "tempo": 120.0
            },
            {
                "start_time": 39.49090909090909,
                "end_time": 39.54090909090909,
                "pitch": 75,
                "velocity": 51,
                "duration": 0.04999999999999716,
                "tempo": 120.0
            },
            {
                "start_time": 39.58863636363636,
                "end_time": 39.61818181818182,
                "pitch": 87,
                "velocity": 51,
                "duration": 0.029545454545456096,
                "tempo": 120.0
            },
            {
                "start_time": 39.66590909090909,
                "end_time": 39.715909090909086,
                "pitch": 87,
                "velocity": 51,
                "duration": 0.04999999999999716,
                "tempo": 120.0
            },
            {
                "start_time": 39.76363636363636,
                "end_time": 39.804545454545455,
                "pitch": 75,
                "velocity": 51,
                "duration": 0.040909090909096335,
                "tempo": 120.0
            },
            {
                "start_time": 39.86590909090909,
                "end_time": 39.918181818181814,
                "pitch": 75,
                "velocity": 51,
                "duration": 0.052272727272722364,
                "tempo": 120.0
            },
            {
                "start_time": 39.970454545454544,
                "end_time": 40.02045454545454,
                "pitch": 87,
                "velocity": 51,
                "duration": 0.04999999999999716,
                "tempo": 120.0
            },
            {
                "start_time": 40.06136363636364,
                "end_time": 40.11363636363636,
                "pitch": 87,
                "velocity": 51,
                "duration": 0.052272727272722364,
                "tempo": 120.0
            },
            {
                "start_time": 40.16590909090909,
                "end_time": 40.215909090909086,
                "pitch": 75,
                "velocity": 51,
                "duration": 0.04999999999999716,
                "tempo": 120.0
            },
            {
                "start_time": 40.26590909090909,
                "end_time": 40.31590909090909,
                "pitch": 75,
                "velocity": 51,
                "duration": 0.04999999999999716,
                "tempo": 120.0
            },
            {
                "start_time": 40.34772727272727,
                "end_time": 40.39772727272727,
                "pitch": 87,
                "velocity": 51,
                "duration": 0.05000000000000426,
                "tempo": 120.0
            },
            {
                "start_time": 40.44772727272727,
                "end_time": 40.49772727272727,
                "pitch": 87,
                "velocity": 51,
                "duration": 0.04999999999999716,
                "tempo": 120.0
            },
            {
                "start_time": 40.54772727272727,
                "end_time": 40.6,
                "pitch": 75,
                "velocity": 51,
                "duration": 0.05227272727272947,
                "tempo": 120.0
            },
            {
                "start_time": 40.65,
                "end_time": 40.70227272727273,
                "pitch": 75,
                "velocity": 51,
                "duration": 0.05227272727272947,
                "tempo": 120.0
            },
            {
                "start_time": 40.73409090909091,
                "end_time": 40.78409090909091,
                "pitch": 87,
                "velocity": 51,
                "duration": 0.04999999999999716,
                "tempo": 120.0
            },
            {
                "start_time": 40.836363636363636,
                "end_time": 40.88863636363636,
                "pitch": 87,
                "velocity": 51,
                "duration": 0.052272727272722364,
                "tempo": 120.0
            },
            {
                "start_time": 40.93863636363636,
                "end_time": 40.99090909090909,
                "pitch": 75,
                "velocity": 51,
                "duration": 0.05227272727272947,
                "tempo": 120.0
            },
            {
                "start_time": 41.04090909090909,
                "end_time": 41.08181818181818,
                "pitch": 75,
                "velocity": 51,
                "duration": 0.04090909090908923,
                "tempo": 120.0
            },
            {
                "start_time": 41.13181818181818,
                "end_time": 41.16136363636363,
                "pitch": 87,
                "velocity": 51,
                "duration": 0.02954545454544899,
                "tempo": 120.0
            },
            {
                "start_time": 41.23181818181818,
                "end_time": 41.28181818181818,
                "pitch": 87,
                "velocity": 51,
                "duration": 0.05000000000000426,
                "tempo": 120.0
            },
            {
                "start_time": 41.33181818181818,
                "end_time": 41.38409090909091,
                "pitch": 75,
                "velocity": 51,
                "duration": 0.05227272727272947,
                "tempo": 120.0
            },
            {
                "start_time": 41.413636363636364,
                "end_time": 41.465909090909086,
                "pitch": 75,
                "velocity": 51,
                "duration": 0.052272727272722364,
                "tempo": 120.0
            },
            {
                "start_time": 41.518181818181816,
                "end_time": 41.56818181818181,
                "pitch": 87,
                "velocity": 51,
                "duration": 0.04999999999999716,
                "tempo": 120.0
            },
            {
                "start_time": 41.62045454545454,
                "end_time": 41.67272727272727,
                "pitch": 87,
                "velocity": 51,
                "duration": 0.05227272727272947,
                "tempo": 120.0
            },
            {
                "start_time": 41.72272727272727,
                "end_time": 41.77272727272727,
                "pitch": 75,
                "velocity": 51,
                "duration": 0.05000000000000426,
                "tempo": 120.0
            },
            {
                "start_time": 41.80227272727272,
                "end_time": 41.85,
                "pitch": 75,
                "velocity": 51,
                "duration": 0.04772727272727906,
                "tempo": 120.0
            },
            {
                "start_time": 41.9,
                "end_time": 41.94772727272727,
                "pitch": 87,
                "velocity": 51,
                "duration": 0.04772727272727195,
                "tempo": 120.0
            },
            {
                "start_time": 41.99772727272727,
                "end_time": 42.04545454545455,
                "pitch": 87,
                "velocity": 51,
                "duration": 0.04772727272727906,
                "tempo": 120.0
            },
            {
                "start_time": 42.095454545454544,
                "end_time": 42.13409090909091,
                "pitch": 75,
                "velocity": 51,
                "duration": 0.038636363636364024,
                "tempo": 120.0
            },
            {
                "start_time": 42.18636363636364,
                "end_time": 42.21818181818182,
                "pitch": 75,
                "velocity": 51,
                "duration": 0.0318181818181813,
                "tempo": 120.0
            },
            {
                "start_time": 42.288636363636364,
                "end_time": 42.340909090909086,
                "pitch": 87,
                "velocity": 51,
                "duration": 0.052272727272722364,
                "tempo": 120.0
            },
            {
                "start_time": 42.393181818181816,
                "end_time": 42.42272727272727,
                "pitch": 87,
                "velocity": 51,
                "duration": 0.029545454545456096,
                "tempo": 120.0
            },
            {
                "start_time": 42.49545454545454,
                "end_time": 42.54545454545455,
                "pitch": 75,
                "velocity": 51,
                "duration": 0.05000000000000426,
                "tempo": 120.0
            },
            {
                "start_time": 42.574999999999996,
                "end_time": 42.62272727272727,
                "pitch": 75,
                "velocity": 51,
                "duration": 0.04772727272727195,
                "tempo": 120.0
            },
            {
                "start_time": 42.67045454545455,
                "end_time": 42.720454545454544,
                "pitch": 87,
                "velocity": 51,
                "duration": 0.04999999999999716,
                "tempo": 120.0
            },
            {
                "start_time": 42.768181818181816,
                "end_time": 42.81818181818181,
                "pitch": 87,
                "velocity": 51,
                "duration": 0.04999999999999716,
                "tempo": 120.0
            },
            {
                "start_time": 42.84772727272727,
                "end_time": 42.89545454545454,
                "pitch": 75,
                "velocity": 51,
                "duration": 0.04772727272727195,
                "tempo": 120.0
            },
            {
                "start_time": 42.94772727272727,
                "end_time": 42.99772727272727,
                "pitch": 75,
                "velocity": 51,
                "duration": 0.04999999999999716,
                "tempo": 120.0
            },
            {
                "start_time": 43.04772727272727,
                "end_time": 43.09772727272727,
                "pitch": 87,
                "velocity": 51,
                "duration": 0.04999999999999716,
                "tempo": 120.0
            },
            {
                "start_time": 43.14772727272727,
                "end_time": 43.19772727272727,
                "pitch": 87,
                "velocity": 51,
                "duration": 0.04999999999999716,
                "tempo": 120.0
            },
            {
                "start_time": 43.23863636363636,
                "end_time": 43.288636363636364,
                "pitch": 75,
                "velocity": 51,
                "duration": 0.05000000000000426,
                "tempo": 120.0
            },
            {
                "start_time": 43.33863636363636,
                "end_time": 43.38863636363636,
                "pitch": 75,
                "velocity": 51,
                "duration": 0.04999999999999716,
                "tempo": 120.0
            },
            {
                "start_time": 43.43863636363636,
                "end_time": 43.48863636363636,
                "pitch": 87,
                "velocity": 51,
                "duration": 0.04999999999999716,
                "tempo": 120.0
            },
            {
                "start_time": 43.54090909090909,
                "end_time": 43.570454545454545,
                "pitch": 87,
                "velocity": 51,
                "duration": 0.029545454545456096,
                "tempo": 120.0
            },
            {
                "start_time": 43.62045454545454,
                "end_time": 43.668181818181814,
                "pitch": 75,
                "velocity": 51,
                "duration": 0.04772727272727195,
                "tempo": 120.0
            },
            {
                "start_time": 43.71818181818182,
                "end_time": 43.76590909090909,
                "pitch": 75,
                "velocity": 51,
                "duration": 0.04772727272727195,
                "tempo": 120.0
            },
            {
                "start_time": 43.81590909090909,
                "end_time": 43.86363636363636,
                "pitch": 87,
                "velocity": 51,
                "duration": 0.04772727272727195,
                "tempo": 120.0
            },
            {
                "start_time": 43.913636363636364,
                "end_time": 43.94318181818181,
                "pitch": 87,
                "velocity": 51,
                "duration": 0.02954545454544899,
                "tempo": 120.0
            },
            {
                "start_time": 43.99090909090909,
                "end_time": 44.04090909090909,
                "pitch": 75,
                "velocity": 51,
                "duration": 0.04999999999999716,
                "tempo": 120.0
            },
            {
                "start_time": 44.095454545454544,
                "end_time": 44.14772727272727,
                "pitch": 75,
                "velocity": 51,
                "duration": 0.05227272727272947,
                "tempo": 120.0
            },
            {
                "start_time": 44.199999999999996,
                "end_time": 44.252272727272725,
                "pitch": 87,
                "velocity": 51,
                "duration": 0.05227272727272947,
                "tempo": 120.0
            },
            {
                "start_time": 44.29545454545455,
                "end_time": 44.34772727272727,
                "pitch": 87,
                "velocity": 51,
                "duration": 0.052272727272722364,
                "tempo": 120.0
            },
            {
                "start_time": 44.4,
                "end_time": 44.45227272727273,
                "pitch": 75,
                "velocity": 51,
                "duration": 0.05227272727272947,
                "tempo": 120.0
            },
            {
                "start_time": 44.502272727272725,
                "end_time": 44.554545454545455,
                "pitch": 75,
                "velocity": 51,
                "duration": 0.05227272727272947,
                "tempo": 120.0
            },
            {
                "start_time": 44.60681818181818,
                "end_time": 44.63636363636363,
                "pitch": 87,
                "velocity": 51,
                "duration": 0.029545454545456096,
                "tempo": 120.0
            },
            {
                "start_time": 44.68863636363636,
                "end_time": 44.74090909090909,
                "pitch": 87,
                "velocity": 51,
                "duration": 0.05227272727272947,
                "tempo": 120.0
            },
            {
                "start_time": 44.793181818181814,
                "end_time": 44.840909090909086,
                "pitch": 75,
                "velocity": 51,
                "duration": 0.04772727272727195,
                "tempo": 120.0
            },
            {
                "start_time": 44.89090909090909,
                "end_time": 44.92045454545455,
                "pitch": 75,
                "velocity": 51,
                "duration": 0.029545454545456096,
                "tempo": 120.0
            },
            {
                "start_time": 44.96818181818182,
                "end_time": 45.00681818181818,
                "pitch": 87,
                "velocity": 51,
                "duration": 0.038636363636364024,
                "tempo": 120.0
            },
            {
                "start_time": 45.06590909090909,
                "end_time": 45.11363636363636,
                "pitch": 87,
                "velocity": 51,
                "duration": 0.04772727272727195,
                "tempo": 120.0
            },
            {
                "start_time": 45.163636363636364,
                "end_time": 45.21363636363636,
                "pitch": 75,
                "velocity": 51,
                "duration": 0.04999999999999716,
                "tempo": 120.0
            },
            {
                "start_time": 45.26590909090909,
                "end_time": 45.31590909090909,
                "pitch": 75,
                "velocity": 51,
                "duration": 0.04999999999999716,
                "tempo": 120.0
            },
            {
                "start_time": 45.35909090909091,
                "end_time": 45.40909090909091,
                "pitch": 87,
                "velocity": 51,
                "duration": 0.04999999999999716,
                "tempo": 120.0
            },
            {
                "start_time": 45.461363636363636,
                "end_time": 45.51363636363636,
                "pitch": 87,
                "velocity": 51,
                "duration": 0.052272727272722364,
                "tempo": 120.0
            },
            {
                "start_time": 45.56363636363636,
                "end_time": 45.61590909090909,
                "pitch": 75,
                "velocity": 51,
                "duration": 0.05227272727272947,
                "tempo": 120.0
            },
            {
                "start_time": 45.66590909090909,
                "end_time": 45.715909090909086,
                "pitch": 75,
                "velocity": 51,
                "duration": 0.04999999999999716,
                "tempo": 120.0
            },
            {
                "start_time": 45.74545454545454,
                "end_time": 45.79545454545455,
                "pitch": 87,
                "velocity": 51,
                "duration": 0.05000000000000426,
                "tempo": 120.0
            },
            {
                "start_time": 45.845454545454544,
                "end_time": 45.89545454545454,
                "pitch": 87,
                "velocity": 51,
                "duration": 0.04999999999999716,
                "tempo": 120.0
            },
            {
                "start_time": 45.94772727272727,
                "end_time": 45.99772727272727,
                "pitch": 75,
                "velocity": 51,
                "duration": 0.04999999999999716,
                "tempo": 120.0
            },
            {
                "start_time": 46.05,
                "end_time": 46.07954545454545,
                "pitch": 75,
                "velocity": 51,
                "duration": 0.029545454545456096,
                "tempo": 120.0
            },
            {
                "start_time": 46.13181818181818,
                "end_time": 46.184090909090905,
                "pitch": 87,
                "velocity": 51,
                "duration": 0.052272727272722364,
                "tempo": 120.0
            },
            {
                "start_time": 46.23409090909091,
                "end_time": 46.28636363636363,
                "pitch": 87,
                "velocity": 51,
                "duration": 0.052272727272722364,
                "tempo": 120.0
            },
            {
                "start_time": 46.33863636363636,
                "end_time": 46.38863636363636,
                "pitch": 75,
                "velocity": 51,
                "duration": 0.04999999999999716,
                "tempo": 120.0
            },
            {
                "start_time": 46.43863636363636,
                "end_time": 46.48863636363636,
                "pitch": 75,
                "velocity": 51,
                "duration": 0.04999999999999716,
                "tempo": 120.0
            },
            {
                "start_time": 46.52954545454545,
                "end_time": 46.57954545454545,
                "pitch": 87,
                "velocity": 51,
                "duration": 0.05000000000000426,
                "tempo": 120.0
            },
            {
                "start_time": 46.62954545454545,
                "end_time": 46.68181818181818,
                "pitch": 87,
                "velocity": 51,
                "duration": 0.05227272727272947,
                "tempo": 120.0
            },
            {
                "start_time": 46.73181818181818,
                "end_time": 46.78181818181818,
                "pitch": 75,
                "velocity": 51,
                "duration": 0.05000000000000426,
                "tempo": 120.0
            },
            {
                "start_time": 46.81363636363636,
                "end_time": 46.86363636363636,
                "pitch": 75,
                "velocity": 51,
                "duration": 0.04999999999999716,
                "tempo": 120.0
            },
            {
                "start_time": 46.91590909090909,
                "end_time": 46.96818181818182,
                "pitch": 87,
                "velocity": 51,
                "duration": 0.05227272727272947,
                "tempo": 120.0
            },
            {
                "start_time": 47.02045454545454,
                "end_time": 47.070454545454545,
                "pitch": 87,
                "velocity": 51,
                "duration": 0.05000000000000426,
                "tempo": 120.0
            },
            {
                "start_time": 47.12272727272727,
                "end_time": 47.17272727272727,
                "pitch": 75,
                "velocity": 51,
                "duration": 0.05000000000000426,
                "tempo": 120.0
            },
            {
                "start_time": 47.20227272727273,
                "end_time": 47.25,
                "pitch": 75,
                "velocity": 51,
                "duration": 0.04772727272727195,
                "tempo": 120.0
            },
            {
                "start_time": 47.29772727272727,
                "end_time": 47.34772727272727,
                "pitch": 87,
                "velocity": 51,
                "duration": 0.04999999999999716,
                "tempo": 120.0
            },
            {
                "start_time": 47.39545454545454,
                "end_time": 47.445454545454545,
                "pitch": 87,
                "velocity": 51,
                "duration": 0.05000000000000426,
                "tempo": 120.0
            },
            {
                "start_time": 47.49318181818182,
                "end_time": 47.53409090909091,
                "pitch": 75,
                "velocity": 51,
                "duration": 0.04090909090908923,
                "tempo": 120.0
            },
            {
                "start_time": 47.586363636363636,
                "end_time": 47.63636363636363,
                "pitch": 75,
                "velocity": 51,
                "duration": 0.04999999999999716,
                "tempo": 120.0
            },
            {
                "start_time": 47.68863636363636,
                "end_time": 47.74090909090909,
                "pitch": 87,
                "velocity": 51,
                "duration": 0.05227272727272947,
                "tempo": 120.0
            },
            {
                "start_time": 47.79090909090909,
                "end_time": 47.84318181818182,
                "pitch": 87,
                "velocity": 51,
                "duration": 0.05227272727272947,
                "tempo": 120.0
            },
            {
                "start_time": 47.875,
                "end_time": 47.92272727272727,
                "pitch": 75,
                "velocity": 51,
                "duration": 0.04772727272727195,
                "tempo": 120.0
            },
            {
                "start_time": 47.970454545454544,
                "end_time": 48.018181818181816,
                "pitch": 75,
                "velocity": 51,
                "duration": 0.04772727272727195,
                "tempo": 120.0
            },
            {
                "start_time": 48.06590909090909,
                "end_time": 48.11363636363636,
                "pitch": 87,
                "velocity": 51,
                "duration": 0.04772727272727195,
                "tempo": 120.0
            },
            {
                "start_time": 48.16136363636363,
                "end_time": 48.20681818181818,
                "pitch": 87,
                "velocity": 51,
                "duration": 0.045454545454546746,
                "tempo": 120.0
            },
            {
                "start_time": 48.236363636363635,
                "end_time": 48.28636363636363,
                "pitch": 75,
                "velocity": 51,
                "duration": 0.04999999999999716,
                "tempo": 120.0
            },
            {
                "start_time": 48.33863636363636,
                "end_time": 48.38863636363636,
                "pitch": 75,
                "velocity": 51,
                "duration": 0.04999999999999716,
                "tempo": 120.0
            },
            {
                "start_time": 48.44090909090909,
                "end_time": 48.49318181818182,
                "pitch": 87,
                "velocity": 51,
                "duration": 0.05227272727272947,
                "tempo": 120.0
            },
            {
                "start_time": 48.54545454545454,
                "end_time": 48.586363636363636,
                "pitch": 87,
                "velocity": 51,
                "duration": 0.040909090909096335,
                "tempo": 120.0
            },
            {
                "start_time": 48.63636363636363,
                "end_time": 48.68863636363636,
                "pitch": 75,
                "velocity": 51,
                "duration": 0.05227272727272947,
                "tempo": 120.0
            },
            {
                "start_time": 48.73863636363636,
                "end_time": 48.788636363636364,
                "pitch": 75,
                "velocity": 51,
                "duration": 0.05000000000000426,
                "tempo": 120.0
            },
            {
                "start_time": 48.83863636363636,
                "end_time": 48.88863636363636,
                "pitch": 87,
                "velocity": 51,
                "duration": 0.04999999999999716,
                "tempo": 120.0
            },
            {
                "start_time": 48.93863636363636,
                "end_time": 48.98863636363636,
                "pitch": 87,
                "velocity": 51,
                "duration": 0.04999999999999716,
                "tempo": 120.0
            },
            {
                "start_time": 49.02045454545454,
                "end_time": 49.070454545454545,
                "pitch": 75,
                "velocity": 51,
                "duration": 0.05000000000000426,
                "tempo": 120.0
            },
            {
                "start_time": 49.12272727272727,
                "end_time": 49.175,
                "pitch": 75,
                "velocity": 51,
                "duration": 0.05227272727272947,
                "tempo": 120.0
            },
            {
                "start_time": 49.224999999999994,
                "end_time": 49.25681818181818,
                "pitch": 87,
                "velocity": 51,
                "duration": 0.03181818181818841,
                "tempo": 120.0
            },
            {
                "start_time": 49.309090909090905,
                "end_time": 49.35909090909091,
                "pitch": 87,
                "velocity": 51,
                "duration": 0.05000000000000426,
                "tempo": 120.0
            },
            {
                "start_time": 49.41136363636363,
                "end_time": 49.461363636363636,
                "pitch": 75,
                "velocity": 51,
                "duration": 0.05000000000000426,
                "tempo": 120.0
            },
            {
                "start_time": 49.51136363636363,
                "end_time": 49.56363636363636,
                "pitch": 76,
                "velocity": 51,
                "duration": 0.05227272727272947,
                "tempo": 120.0
            },
            {
                "start_time": 49.61363636363636,
                "end_time": 49.663636363636364,
                "pitch": 88,
                "velocity": 51,
                "duration": 0.05000000000000426,
                "tempo": 120.0
            },
            {
                "start_time": 49.70227272727273,
                "end_time": 49.75454545454545,
                "pitch": 88,
                "velocity": 51,
                "duration": 0.052272727272722364,
                "tempo": 120.0
            },
            {
                "start_time": 49.804545454545455,
                "end_time": 49.85454545454545,
                "pitch": 76,
                "velocity": 51,
                "duration": 0.04999999999999716,
                "tempo": 120.0
            },
            {
                "start_time": 49.90681818181818,
                "end_time": 49.959090909090904,
                "pitch": 76,
                "velocity": 51,
                "duration": 0.052272727272722364,
                "tempo": 120.0
            },
            {
                "start_time": 50.00909090909091,
                "end_time": 50.02045454545454,
                "pitch": 88,
                "velocity": 51,
                "duration": 0.011363636363633134,
                "tempo": 120.0
            },
            {
                "start_time": 50.07272727272727,
                "end_time": 50.12272727272727,
                "pitch": 88,
                "velocity": 51,
                "duration": 0.04999999999999716,
                "tempo": 120.0
            },
            {
                "start_time": 50.195454545454545,
                "end_time": 50.24545454545454,
                "pitch": 76,
                "velocity": 51,
                "duration": 0.04999999999999716,
                "tempo": 120.0
            },
            {
                "start_time": 50.29545454545454,
                "end_time": 50.34772727272727,
                "pitch": 76,
                "velocity": 51,
                "duration": 0.05227272727272947,
                "tempo": 120.0
            },
            {
                "start_time": 50.39772727272727,
                "end_time": 50.44772727272727,
                "pitch": 88,
                "velocity": 51,
                "duration": 0.04999999999999716,
                "tempo": 120.0
            },
            {
                "start_time": 50.47727272727273,
                "end_time": 50.527272727272724,
                "pitch": 88,
                "velocity": 51,
                "duration": 0.04999999999999716,
                "tempo": 120.0
            },
            {
                "start_time": 50.57727272727273,
                "end_time": 50.627272727272725,
                "pitch": 76,
                "velocity": 51,
                "duration": 0.04999999999999716,
                "tempo": 120.0
            },
            {
                "start_time": 50.679545454545455,
                "end_time": 50.72954545454545,
                "pitch": 76,
                "velocity": 51,
                "duration": 0.04999999999999716,
                "tempo": 120.0
            },
            {
                "start_time": 50.768181818181816,
                "end_time": 50.820454545454545,
                "pitch": 88,
                "velocity": 51,
                "duration": 0.05227272727272947,
                "tempo": 120.0
            },
            {
                "start_time": 50.87045454545454,
                "end_time": 50.92045454545454,
                "pitch": 88,
                "velocity": 51,
                "duration": 0.04999999999999716,
                "tempo": 120.0
            },
            {
                "start_time": 50.970454545454544,
                "end_time": 51.02045454545454,
                "pitch": 76,
                "velocity": 51,
                "duration": 0.04999999999999716,
                "tempo": 120.0
            },
            {
                "start_time": 51.070454545454545,
                "end_time": 51.099999999999994,
                "pitch": 76,
                "velocity": 51,
                "duration": 0.02954545454544899,
                "tempo": 120.0
            },
            {
                "start_time": 51.152272727272724,
                "end_time": 51.20227272727273,
                "pitch": 88,
                "velocity": 51,
                "duration": 0.05000000000000426,
                "tempo": 120.0
            },
            {
                "start_time": 51.252272727272725,
                "end_time": 51.30227272727272,
                "pitch": 88,
                "velocity": 51,
                "duration": 0.04999999999999716,
                "tempo": 120.0
            },
            {
                "start_time": 51.35227272727273,
                "end_time": 51.40454545454545,
                "pitch": 76,
                "velocity": 51,
                "duration": 0.052272727272722364,
                "tempo": 120.0
            },
            {
                "start_time": 51.45454545454545,
                "end_time": 51.486363636363635,
                "pitch": 76,
                "velocity": 51,
                "duration": 0.0318181818181813,
                "tempo": 120.0
            },
            {
                "start_time": 51.538636363636364,
                "end_time": 51.58863636363636,
                "pitch": 88,
                "velocity": 51,
                "duration": 0.04999999999999716,
                "tempo": 120.0
            },
            {
                "start_time": 51.64090909090909,
                "end_time": 51.69318181818181,
                "pitch": 88,
                "velocity": 51,
                "duration": 0.052272727272722364,
                "tempo": 120.0
            },
            {
                "start_time": 51.74318181818182,
                "end_time": 51.78409090909091,
                "pitch": 76,
                "velocity": 51,
                "duration": 0.04090909090908923,
                "tempo": 120.0
            },
            {
                "start_time": 51.834090909090904,
                "end_time": 51.88636363636363,
                "pitch": 76,
                "velocity": 51,
                "duration": 0.05227272727272947,
                "tempo": 120.0
            },
            {
                "start_time": 51.93636363636363,
                "end_time": 51.986363636363635,
                "pitch": 88,
                "velocity": 51,
                "duration": 0.05000000000000426,
                "tempo": 120.0
            },
            {
                "start_time": 52.03636363636363,
                "end_time": 52.06590909090909,
                "pitch": 88,
                "velocity": 51,
                "duration": 0.029545454545456096,
                "tempo": 120.0
            },
            {
                "start_time": 52.13636363636363,
                "end_time": 52.18863636363636,
                "pitch": 76,
                "velocity": 51,
                "duration": 0.05227272727272947,
                "tempo": 120.0
            },
            {
                "start_time": 52.21818181818182,
                "end_time": 52.27045454545454,
                "pitch": 76,
                "velocity": 51,
                "duration": 0.052272727272722364,
                "tempo": 120.0
            },
            {
                "start_time": 52.32272727272727,
                "end_time": 52.37272727272727,
                "pitch": 88,
                "velocity": 51,
                "duration": 0.04999999999999716,
                "tempo": 120.0
            },
            {
                "start_time": 52.425,
                "end_time": 52.47727272727273,
                "pitch": 88,
                "velocity": 51,
                "duration": 0.05227272727272947,
                "tempo": 120.0
            },
            {
                "start_time": 52.527272727272724,
                "end_time": 52.559090909090905,
                "pitch": 79,
                "velocity": 51,
                "duration": 0.0318181818181813,
                "tempo": 120.0
            },
            {
                "start_time": 52.60681818181818,
                "end_time": 52.65454545454545,
                "pitch": 79,
                "velocity": 51,
                "duration": 0.04772727272727195,
                "tempo": 120.0
            },
            {
                "start_time": 52.70454545454545,
                "end_time": 52.752272727272725,
                "pitch": 91,
                "velocity": 51,
                "duration": 0.04772727272727195,
                "tempo": 120.0
            },
            {
                "start_time": 52.80227272727272,
                "end_time": 52.849999999999994,
                "pitch": 91,
                "velocity": 51,
                "duration": 0.04772727272727195,
                "tempo": 120.0
            },
            {
                "start_time": 52.9,
                "end_time": 52.949999999999996,
                "pitch": 79,
                "velocity": 51,
                "duration": 0.04999999999999716,
                "tempo": 120.0
            },
            {
                "start_time": 52.98863636363636,
                "end_time": 53.038636363636364,
                "pitch": 79,
                "velocity": 51,
                "duration": 0.05000000000000426,
                "tempo": 120.0
            },
            {
                "start_time": 53.090909090909086,
                "end_time": 53.14090909090909,
                "pitch": 91,
                "velocity": 51,
                "duration": 0.05000000000000426,
                "tempo": 120.0
            },
            {
                "start_time": 53.19090909090909,
                "end_time": 53.240909090909085,
                "pitch": 91,
                "velocity": 51,
                "duration": 0.04999999999999716,
                "tempo": 120.0
            },
            {
                "start_time": 53.27045454545454,
                "end_time": 53.320454545454545,
                "pitch": 79,
                "velocity": 51,
                "duration": 0.05000000000000426,
                "tempo": 120.0
            },
            {
                "start_time": 53.36818181818182,
                "end_time": 53.418181818181814,
                "pitch": 79,
                "velocity": 51,
                "duration": 0.04999999999999716,
                "tempo": 120.0
            },
            {
                "start_time": 53.465909090909086,
                "end_time": 53.51590909090909,
                "pitch": 91,
                "velocity": 51,
                "duration": 0.05000000000000426,
                "tempo": 120.0
            },
            {
                "start_time": 53.56363636363636,
                "end_time": 53.59318181818182,
                "pitch": 91,
                "velocity": 51,
                "duration": 0.029545454545456096,
                "tempo": 120.0
            },
            {
                "start_time": 53.64090909090909,
                "end_time": 53.69090909090909,
                "pitch": 79,
                "velocity": 51,
                "duration": 0.04999999999999716,
                "tempo": 120.0
            },
            {
                "start_time": 53.740909090909085,
                "end_time": 53.78181818181818,
                "pitch": 79,
                "velocity": 51,
                "duration": 0.040909090909096335,
                "tempo": 120.0
            },
            {
                "start_time": 53.84318181818182,
                "end_time": 53.893181818181816,
                "pitch": 91,
                "velocity": 51,
                "duration": 0.04999999999999716,
                "tempo": 120.0
            },
            {
                "start_time": 53.94318181818181,
                "end_time": 53.98409090909091,
                "pitch": 91,
                "velocity": 51,
                "duration": 0.040909090909096335,
                "tempo": 120.0
            },
            {
                "start_time": 54.03409090909091,
                "end_time": 54.084090909090904,
                "pitch": 81,
                "velocity": 51,
                "duration": 0.04999999999999716,
                "tempo": 120.0
            },
            {
                "start_time": 54.13636363636363,
                "end_time": 54.18863636363636,
                "pitch": 81,
                "velocity": 51,
                "duration": 0.05227272727272947,
                "tempo": 120.0
            },
            {
                "start_time": 54.23863636363636,
                "end_time": 54.29090909090909,
                "pitch": 93,
                "velocity": 51,
                "duration": 0.05227272727272947,
                "tempo": 120.0
            },
            {
                "start_time": 54.32272727272727,
                "end_time": 54.37272727272727,
                "pitch": 93,
                "velocity": 51,
                "duration": 0.04999999999999716,
                "tempo": 120.0
            },
            {
                "start_time": 54.425,
                "end_time": 54.45681818181818,
                "pitch": 81,
                "velocity": 51,
                "duration": 0.0318181818181813,
                "tempo": 120.0
            },
            {
                "start_time": 54.50681818181818,
                "end_time": 54.559090909090905,
                "pitch": 81,
                "velocity": 51,
                "duration": 0.052272727272722364,
                "tempo": 120.0
            },
            {
                "start_time": 54.631818181818176,
                "end_time": 54.684090909090905,
                "pitch": 93,
                "velocity": 51,
                "duration": 0.05227272727272947,
                "tempo": 120.0
            },
            {
                "start_time": 54.71363636363636,
                "end_time": 54.75454545454545,
                "pitch": 93,
                "velocity": 51,
                "duration": 0.04090909090908923,
                "tempo": 120.0
            },
            {
                "start_time": 54.81818181818181,
                "end_time": 54.86818181818182,
                "pitch": 83,
                "velocity": 51,
                "duration": 0.05000000000000426,
                "tempo": 120.0
            },
            {
                "start_time": 54.918181818181814,
                "end_time": 54.96818181818182,
                "pitch": 83,
                "velocity": 51,
                "duration": 0.05000000000000426,
                "tempo": 120.0
            },
            {
                "start_time": 55.018181818181816,
                "end_time": 55.059090909090905,
                "pitch": 95,
                "velocity": 51,
                "duration": 0.04090909090908923,
                "tempo": 120.0
            },
            {
                "start_time": 55.10909090909091,
                "end_time": 55.15909090909091,
                "pitch": 95,
                "velocity": 51,
                "duration": 0.04999999999999716,
                "tempo": 120.0
            },
            {
                "start_time": 55.209090909090904,
                "end_time": 55.26136363636363,
                "pitch": 83,
                "velocity": 51,
                "duration": 0.05227272727272947,
                "tempo": 120.0
            }
        ],
        "Flute": [
            {
                "start_time": 18.73181818181818,
                "end_time": 19.879545454545454,
                "pitch": 67,
                "velocity": 40,
                "duration": 1.1477272727272734,
                "tempo": 120.0
            },
            {
                "start_time": 19.879545454545454,
                "end_time": 19.979545454545452,
                "pitch": 65,
                "velocity": 40,
                "duration": 0.09999999999999787,
                "tempo": 120.0
            },
            {
                "start_time": 19.979545454545452,
                "end_time": 20.079545454545453,
                "pitch": 67,
                "velocity": 40,
                "duration": 0.10000000000000142,
                "tempo": 120.0
            },
            {
                "start_time": 20.079545454545453,
                "end_time": 20.179545454545455,
                "pitch": 67,
                "velocity": 40,
                "duration": 0.10000000000000142,
                "tempo": 120.0
            },
            {
                "start_time": 20.179545454545455,
                "end_time": 20.261363636363637,
                "pitch": 68,
                "velocity": 40,
                "duration": 0.08181818181818201,
                "tempo": 120.0
            },
            {
                "start_time": 20.261363636363637,
                "end_time": 21.045454545454543,
                "pitch": 72,
                "velocity": 40,
                "duration": 0.7840909090909065,
                "tempo": 120.0
            },
            {
                "start_time": 21.045454545454543,
                "end_time": 21.427272727272726,
                "pitch": 70,
                "velocity": 40,
                "duration": 0.3818181818181827,
                "tempo": 120.0
            },
            {
                "start_time": 21.427272727272726,
                "end_time": 21.825,
                "pitch": 70,
                "velocity": 40,
                "duration": 0.3977272727272734,
                "tempo": 120.0
            },
            {
                "start_time": 21.825,
                "end_time": 22.009090909090908,
                "pitch": 68,
                "velocity": 40,
                "duration": 0.18409090909090864,
                "tempo": 120.0
            },
            {
                "start_time": 22.009090909090908,
                "end_time": 22.2,
                "pitch": 67,
                "velocity": 40,
                "duration": 0.19090909090909136,
                "tempo": 120.0
            },
            {
                "start_time": 22.2,
                "end_time": 22.7,
                "pitch": 63,
                "velocity": 40,
                "duration": 0.5,
                "tempo": 120.0
            },
            {
                "start_time": 22.772727272727273,
                "end_time": 22.884090909090908,
                "pitch": 63,
                "velocity": 40,
                "duration": 0.11136363636363455,
                "tempo": 120.0
            },
            {
                "start_time": 22.974999999999998,
                "end_time": 23.075,
                "pitch": 63,
                "velocity": 40,
                "duration": 0.10000000000000142,
                "tempo": 120.0
            },
            {
                "start_time": 23.154545454545453,
                "end_time": 23.224999999999998,
                "pitch": 67,
                "velocity": 40,
                "duration": 0.07045454545454533,
                "tempo": 120.0
            },
            {
                "start_time": 23.35681818181818,
                "end_time": 23.938636363636363,
                "pitch": 67,
                "velocity": 40,
                "duration": 0.581818181818182,
                "tempo": 120.0
            },
            {
                "start_time": 23.938636363636363,
                "end_time": 24.52272727272727,
                "pitch": 65,
                "velocity": 40,
                "duration": 0.5840909090909072,
                "tempo": 120.0
            },
            {
                "start_time": 24.52272727272727,
                "end_time": 24.9,
                "pitch": 62,
                "velocity": 40,
                "duration": 0.37727272727272876,
                "tempo": 120.0
            },
            {
                "start_time": 24.9,
                "end_time": 26.063636363636363,
                "pitch": 67,
                "velocity": 40,
                "duration": 1.163636363636364,
                "tempo": 120.0
            },
            {
                "start_time": 26.063636363636363,
                "end_time": 26.168181818181818,
                "pitch": 65,
                "velocity": 40,
                "duration": 0.10454545454545539,
                "tempo": 120.0
            },
            {
                "start_time": 26.168181818181818,
                "end_time": 26.270454545454545,
                "pitch": 67,
                "velocity": 40,
                "duration": 0.10227272727272663,
                "tempo": 120.0
            },
            {
                "start_time": 26.270454545454545,
                "end_time": 26.352272727272727,
                "pitch": 67,
                "velocity": 40,
                "duration": 0.08181818181818201,
                "tempo": 120.0
            },
            {
                "start_time": 26.352272727272727,
                "end_time": 26.452272727272724,
                "pitch": 68,
                "velocity": 40,
                "duration": 0.09999999999999787,
                "tempo": 120.0
            },
            {
                "start_time": 26.452272727272724,
                "end_time": 27.23181818181818,
                "pitch": 72,
                "velocity": 40,
                "duration": 0.7795454545454561,
                "tempo": 120.0
            },
            {
                "start_time": 27.23181818181818,
                "end_time": 27.60681818181818,
                "pitch": 70,
                "velocity": 40,
                "duration": 0.375,
                "tempo": 120.0
            },
            {
                "start_time": 27.60681818181818,
                "end_time": 27.993181818181817,
                "pitch": 70,
                "velocity": 40,
                "duration": 0.3863636363636367,
                "tempo": 120.0
            },
            {
                "start_time": 27.993181818181817,
                "end_time": 28.179545454545455,
                "pitch": 68,
                "velocity": 40,
                "duration": 0.1863636363636374,
                "tempo": 120.0
            },
            {
                "start_time": 28.179545454545455,
                "end_time": 28.379545454545454,
                "pitch": 67,
                "velocity": 40,
                "duration": 0.1999999999999993,
                "tempo": 120.0
            },
            {
                "start_time": 28.379545454545454,
                "end_time": 28.863636363636363,
                "pitch": 75,
                "velocity": 40,
                "duration": 0.48409090909090935,
                "tempo": 120.0
            },
            {
                "start_time": 28.954545454545453,
                "end_time": 29.068181818181817,
                "pitch": 75,
                "velocity": 40,
                "duration": 0.11363636363636331,
                "tempo": 120.0
            },
            {
                "start_time": 29.161363636363635,
                "end_time": 29.243181818181817,
                "pitch": 75,
                "velocity": 40,
                "duration": 0.08181818181818201,
                "tempo": 120.0
            },
            {
                "start_time": 29.345454545454544,
                "end_time": 29.40681818181818,
                "pitch": 79,
                "velocity": 40,
                "duration": 0.0613636363636374,
                "tempo": 120.0
            },
            {
                "start_time": 29.547727272727272,
                "end_time": 30.10909090909091,
                "pitch": 79,
                "velocity": 40,
                "duration": 0.5613636363636374,
                "tempo": 120.0
            },
            {
                "start_time": 30.10909090909091,
                "end_time": 30.688636363636363,
                "pitch": 77,
                "velocity": 40,
                "duration": 0.5795454545454533,
                "tempo": 120.0
            },
            {
                "start_time": 30.688636363636363,
                "end_time": 31.075,
                "pitch": 74,
                "velocity": 40,
                "duration": 0.3863636363636367,
                "tempo": 120.0
            },
            {
                "start_time": 31.075,
                "end_time": 32.627272727272725,
                "pitch": 68,
                "velocity": 40,
                "duration": 1.552272727272726,
                "tempo": 120.0
            },
            {
                "start_time": 32.627272727272725,
                "end_time": 32.904545454545456,
                "pitch": 68,
                "velocity": 40,
                "duration": 0.2772727272727309,
                "tempo": 120.0
            },
            {
                "start_time": 34.17045454545455,
                "end_time": 35.71363636363636,
                "pitch": 68,
                "velocity": 10,
                "duration": 1.5431818181818144,
                "tempo": 120.0
            },
            {
                "start_time": 35.71363636363636,
                "end_time": 36.02045454545454,
                "pitch": 68,
                "velocity": 10,
                "duration": 0.3068181818181799,
                "tempo": 120.0
            },
            {
                "start_time": 37.277272727272724,
                "end_time": 37.47954545454545,
                "pitch": 63,
                "velocity": 40,
                "duration": 0.20227272727272805,
                "tempo": 120.0
            },
            {
                "start_time": 37.47954545454545,
                "end_time": 37.654545454545456,
                "pitch": 66,
                "velocity": 40,
                "duration": 0.17500000000000426,
                "tempo": 120.0
            },
            {
                "start_time": 37.654545454545456,
                "end_time": 37.752272727272725,
                "pitch": 65,
                "velocity": 40,
                "duration": 0.09772727272726911,
                "tempo": 120.0
            },
            {
                "start_time": 38.04090909090909,
                "end_time": 38.14090909090909,
                "pitch": 63,
                "velocity": 40,
                "duration": 0.10000000000000142,
                "tempo": 120.0
            },
            {
                "start_time": 38.14090909090909,
                "end_time": 38.220454545454544,
                "pitch": 63,
                "velocity": 40,
                "duration": 0.07954545454545325,
                "tempo": 120.0
            },
            {
                "start_time": 38.220454545454544,
                "end_time": 38.31818181818181,
                "pitch": 66,
                "velocity": 40,
                "duration": 0.09772727272726911,
                "tempo": 120.0
            },
            {
                "start_time": 38.31818181818181,
                "end_time": 38.39772727272727,
                "pitch": 68,
                "velocity": 40,
                "duration": 0.07954545454546036,
                "tempo": 120.0
            },
            {
                "start_time": 38.41590909090909,
                "end_time": 38.51363636363636,
                "pitch": 68,
                "velocity": 40,
                "duration": 0.09772727272726911,
                "tempo": 120.0
            },
            {
                "start_time": 38.81136363636364,
                "end_time": 38.89545454545454,
                "pitch": 70,
                "velocity": 40,
                "duration": 0.08409090909090366,
                "tempo": 120.0
            },
            {
                "start_time": 38.89545454545454,
                "end_time": 39.0,
                "pitch": 68,
                "velocity": 40,
                "duration": 0.10454545454545894,
                "tempo": 120.0
            },
            {
                "start_time": 39.0,
                "end_time": 39.18636363636364,
                "pitch": 71,
                "velocity": 40,
                "duration": 0.1863636363636374,
                "tempo": 120.0
            },
            {
                "start_time": 39.20681818181818,
                "end_time": 39.29090909090909,
                "pitch": 75,
                "velocity": 40,
                "duration": 0.08409090909091077,
                "tempo": 120.0
            },
            {
                "start_time": 39.58863636363636,
                "end_time": 39.66590909090909,
                "pitch": 75,
                "velocity": 40,
                "duration": 0.07727272727272805,
                "tempo": 120.0
            },
            {
                "start_time": 39.66590909090909,
                "end_time": 39.715909090909086,
                "pitch": 75,
                "velocity": 40,
                "duration": 0.04999999999999716,
                "tempo": 120.0
            },
            {
                "start_time": 39.775,
                "end_time": 39.86590909090909,
                "pitch": 78,
                "velocity": 40,
                "duration": 0.09090909090909349,
                "tempo": 120.0
            },
            {
                "start_time": 39.86590909090909,
                "end_time": 39.918181818181814,
                "pitch": 80,
                "velocity": 40,
                "duration": 0.052272727272722364,
                "tempo": 120.0
            },
            {
                "start_time": 39.970454545454544,
                "end_time": 40.54772727272727,
                "pitch": 80,
                "velocity": 40,
                "duration": 0.577272727272728,
                "tempo": 120.0
            },
            {
                "start_time": 40.54772727272727,
                "end_time": 40.6,
                "pitch": 82,
                "velocity": 40,
                "duration": 0.05227272727272947,
                "tempo": 120.0
            },
            {
                "start_time": 40.74318181818182,
                "end_time": 40.836363636363636,
                "pitch": 82,
                "velocity": 40,
                "duration": 0.0931818181818187,
                "tempo": 120.0
            },
            {
                "start_time": 40.949999999999996,
                "end_time": 41.04090909090909,
                "pitch": 82,
                "velocity": 40,
                "duration": 0.09090909090909349,
                "tempo": 120.0
            },
            {
                "start_time": 41.13181818181818,
                "end_time": 41.413636363636364,
                "pitch": 80,
                "velocity": 40,
                "duration": 0.2818181818181813,
                "tempo": 120.0
            },
            {
                "start_time": 41.518181818181816,
                "end_time": 41.90909090909091,
                "pitch": 80,
                "velocity": 40,
                "duration": 0.39090909090909065,
                "tempo": 120.0
            },
            {
                "start_time": 41.90909090909091,
                "end_time": 41.99772727272727,
                "pitch": 80,
                "velocity": 40,
                "duration": 0.08863636363636118,
                "tempo": 120.0
            },
            {
                "start_time": 42.10454545454545,
                "end_time": 42.13409090909091,
                "pitch": 85,
                "velocity": 40,
                "duration": 0.029545454545456096,
                "tempo": 120.0
            },
            {
                "start_time": 42.288636363636364,
                "end_time": 42.35227272727273,
                "pitch": 80,
                "velocity": 40,
                "duration": 0.0636363636363626,
                "tempo": 120.0
            },
            {
                "start_time": 42.49545454545454,
                "end_time": 42.554545454545455,
                "pitch": 80,
                "velocity": 40,
                "duration": 0.05909090909091219,
                "tempo": 120.0
            },
            {
                "start_time": 42.67045454545455,
                "end_time": 42.94772727272727,
                "pitch": 78,
                "velocity": 40,
                "duration": 0.2772727272727238,
                "tempo": 120.0
            },
            {
                "start_time": 43.05681818181818,
                "end_time": 43.288636363636364,
                "pitch": 82,
                "velocity": 40,
                "duration": 0.23181818181818414,
                "tempo": 120.0
            },
            {
                "start_time": 43.43863636363636,
                "end_time": 43.62045454545454,
                "pitch": 63,
                "velocity": 40,
                "duration": 0.18181818181817988,
                "tempo": 120.0
            },
            {
                "start_time": 43.62045454545454,
                "end_time": 43.71818181818182,
                "pitch": 66,
                "velocity": 40,
                "duration": 0.09772727272727622,
                "tempo": 120.0
            },
            {
                "start_time": 43.71818181818182,
                "end_time": 43.79545454545455,
                "pitch": 67,
                "velocity": 40,
                "duration": 0.07727272727272805,
                "tempo": 120.0
            },
            {
                "start_time": 43.81590909090909,
                "end_time": 43.913636363636364,
                "pitch": 65,
                "velocity": 40,
                "duration": 0.09772727272727622,
                "tempo": 120.0
            },
            {
                "start_time": 44.211363636363636,
                "end_time": 44.29545454545455,
                "pitch": 63,
                "velocity": 40,
                "duration": 0.08409090909091077,
                "tempo": 120.0
            },
            {
                "start_time": 44.29545454545455,
                "end_time": 44.4,
                "pitch": 63,
                "velocity": 40,
                "duration": 0.10454545454545183,
                "tempo": 120.0
            },
            {
                "start_time": 44.4,
                "end_time": 44.502272727272725,
                "pitch": 66,
                "velocity": 40,
                "duration": 0.10227272727272663,
                "tempo": 120.0
            },
            {
                "start_time": 44.502272727272725,
                "end_time": 44.554545454545455,
                "pitch": 68,
                "velocity": 40,
                "duration": 0.05227272727272947,
                "tempo": 120.0
            },
            {
                "start_time": 44.60681818181818,
                "end_time": 44.74090909090909,
                "pitch": 68,
                "velocity": 40,
                "duration": 0.13409090909091503,
                "tempo": 120.0
            },
            {
                "start_time": 44.98863636363636,
                "end_time": 45.163636363636364,
                "pitch": 70,
                "velocity": 40,
                "duration": 0.17500000000000426,
                "tempo": 120.0
            },
            {
                "start_time": 45.163636363636364,
                "end_time": 45.25454545454545,
                "pitch": 70,
                "velocity": 40,
                "duration": 0.09090909090908639,
                "tempo": 120.0
            },
            {
                "start_time": 45.26590909090909,
                "end_time": 45.35909090909091,
                "pitch": 71,
                "velocity": 40,
                "duration": 0.0931818181818187,
                "tempo": 120.0
            },
            {
                "start_time": 45.35909090909091,
                "end_time": 45.51363636363636,
                "pitch": 75,
                "velocity": 40,
                "duration": 0.154545454545449,
                "tempo": 120.0
            },
            {
                "start_time": 45.74545454545454,
                "end_time": 45.845454545454544,
                "pitch": 75,
                "velocity": 40,
                "duration": 0.10000000000000142,
                "tempo": 120.0
            },
            {
                "start_time": 45.845454545454544,
                "end_time": 45.94772727272727,
                "pitch": 75,
                "velocity": 40,
                "duration": 0.10227272727272663,
                "tempo": 120.0
            },
            {
                "start_time": 45.94772727272727,
                "end_time": 46.02954545454545,
                "pitch": 78,
                "velocity": 40,
                "duration": 0.08181818181817846,
                "tempo": 120.0
            },
            {
                "start_time": 46.05,
                "end_time": 46.07954545454545,
                "pitch": 80,
                "velocity": 40,
                "duration": 0.029545454545456096,
                "tempo": 120.0
            },
            {
                "start_time": 46.13181818181818,
                "end_time": 46.54090909090909,
                "pitch": 80,
                "velocity": 40,
                "duration": 0.4090909090909065,
                "tempo": 120.0
            },
            {
                "start_time": 46.73181818181818,
                "end_time": 46.81363636363636,
                "pitch": 82,
                "velocity": 40,
                "duration": 0.08181818181818556,
                "tempo": 120.0
            },
            {
                "start_time": 46.91590909090909,
                "end_time": 47.04090909090909,
                "pitch": 82,
                "velocity": 40,
                "duration": 0.125,
                "tempo": 120.0
            },
            {
                "start_time": 47.12272727272727,
                "end_time": 47.220454545454544,
                "pitch": 82,
                "velocity": 40,
                "duration": 0.09772727272727622,
                "tempo": 120.0
            },
            {
                "start_time": 47.29772727272727,
                "end_time": 47.586363636363636,
                "pitch": 80,
                "velocity": 40,
                "duration": 0.288636363636364,
                "tempo": 120.0
            },
            {
                "start_time": 47.68863636363636,
                "end_time": 48.06590909090909,
                "pitch": 80,
                "velocity": 40,
                "duration": 0.3772727272727252,
                "tempo": 120.0
            },
            {
                "start_time": 48.06590909090909,
                "end_time": 48.16136363636363,
                "pitch": 82,
                "velocity": 40,
                "duration": 0.0954545454545439,
                "tempo": 120.0
            },
            {
                "start_time": 48.24545454545454,
                "end_time": 48.45227272727273,
                "pitch": 70,
                "velocity": 40,
                "duration": 0.20681818181818556,
                "tempo": 120.0
            },
            {
                "start_time": 48.45227272727273,
                "end_time": 48.586363636363636,
                "pitch": 71,
                "velocity": 40,
                "duration": 0.13409090909090793,
                "tempo": 120.0
            },
            {
                "start_time": 48.63636363636363,
                "end_time": 48.83863636363636,
                "pitch": 76,
                "velocity": 40,
                "duration": 0.20227272727272805,
                "tempo": 120.0
            },
            {
                "start_time": 48.83863636363636,
                "end_time": 49.02045454545454,
                "pitch": 78,
                "velocity": 40,
                "duration": 0.18181818181817988,
                "tempo": 120.0
            },
            {
                "start_time": 49.02045454545454,
                "end_time": 49.195454545454545,
                "pitch": 79,
                "velocity": 40,
                "duration": 0.17500000000000426,
                "tempo": 120.0
            },
            {
                "start_time": 49.224999999999994,
                "end_time": 49.32954545454545,
                "pitch": 79,
                "velocity": 40,
                "duration": 0.10454545454545894,
                "tempo": 120.0
            },
            {
                "start_time": 49.42045454545454,
                "end_time": 49.61363636363636,
                "pitch": 80,
                "velocity": 40,
                "duration": 0.19318181818182012,
                "tempo": 120.0
            },
            {
                "start_time": 49.61363636363636,
                "end_time": 50.58863636363636,
                "pitch": 81,
                "velocity": 40,
                "duration": 0.9750000000000014,
                "tempo": 120.0
            },
            {
                "start_time": 50.58863636363636,
                "end_time": 50.69772727272727,
                "pitch": 79,
                "velocity": 40,
                "duration": 0.10909090909090935,
                "tempo": 120.0
            },
            {
                "start_time": 50.970454545454544,
                "end_time": 51.93636363636363,
                "pitch": 76,
                "velocity": 40,
                "duration": 0.9659090909090864,
                "tempo": 120.0
            },
            {
                "start_time": 51.93636363636363,
                "end_time": 52.13636363636363,
                "pitch": 81,
                "velocity": 40,
                "duration": 0.20000000000000284,
                "tempo": 120.0
            },
            {
                "start_time": 52.13636363636363,
                "end_time": 52.27045454545454,
                "pitch": 81,
                "velocity": 40,
                "duration": 0.13409090909090793,
                "tempo": 120.0
            },
            {
                "start_time": 52.32272727272727,
                "end_time": 52.47727272727273,
                "pitch": 82,
                "velocity": 40,
                "duration": 0.1545454545454561,
                "tempo": 120.0
            },
            {
                "start_time": 52.527272727272724,
                "end_time": 52.70454545454545,
                "pitch": 83,
                "velocity": 40,
                "duration": 0.17727272727272947,
                "tempo": 120.0
            },
            {
                "start_time": 52.70454545454545,
                "end_time": 53.652272727272724,
                "pitch": 84,
                "velocity": 40,
                "duration": 0.9477272727272705,
                "tempo": 120.0
            },
            {
                "start_time": 53.652272727272724,
                "end_time": 53.793181818181814,
                "pitch": 82,
                "velocity": 40,
                "duration": 0.14090909090909065,
                "tempo": 120.0
            },
            {
                "start_time": 53.85227272727273,
                "end_time": 53.96363636363636,
                "pitch": 84,
                "velocity": 40,
                "duration": 0.11136363636363455,
                "tempo": 120.0
            },
            {
                "start_time": 54.03409090909091,
                "end_time": 54.23863636363636,
                "pitch": 86,
                "velocity": 40,
                "duration": 0.20454545454545325,
                "tempo": 120.0
            },
            {
                "start_time": 54.23863636363636,
                "end_time": 54.39545454545454,
                "pitch": 86,
                "velocity": 40,
                "duration": 0.1568181818181813,
                "tempo": 120.0
            },
            {
                "start_time": 54.425,
                "end_time": 54.49772727272727,
                "pitch": 84,
                "velocity": 40,
                "duration": 0.07272727272727053,
                "tempo": 120.0
            },
            {
                "start_time": 54.631818181818176,
                "end_time": 54.70454545454545,
                "pitch": 86,
                "velocity": 40,
                "duration": 0.07272727272727764,
                "tempo": 120.0
            },
            {
                "start_time": 54.81818181818181,
                "end_time": 55.31363636363636,
                "pitch": 88,
                "velocity": 40,
                "duration": 0.4954545454545496,
                "tempo": 120.0
            }
        ],
        "Electric Guitar (clean)": [
            {
                "start_time": 0.020454545454545454,
                "end_time": 0.06136363636363636,
                "pitch": 36,
                "velocity": 80,
                "duration": 0.04090909090909091,
                "tempo": 120.0
            },
            {
                "start_time": 0.20227272727272727,
                "end_time": 0.25227272727272726,
                "pitch": 48,
                "velocity": 80,
                "duration": 0.04999999999999999,
                "tempo": 120.0
            },
            {
                "start_time": 0.4022727272727272,
                "end_time": 0.48636363636363633,
                "pitch": 36,
                "velocity": 80,
                "duration": 0.0840909090909091,
                "tempo": 120.0
            },
            {
                "start_time": 0.5886363636363636,
                "end_time": 0.6613636363636364,
                "pitch": 48,
                "velocity": 80,
                "duration": 0.07272727272727275,
                "tempo": 120.0
            },
            {
                "start_time": 0.7954545454545454,
                "end_time": 0.8454545454545455,
                "pitch": 39,
                "velocity": 80,
                "duration": 0.050000000000000044,
                "tempo": 120.0
            },
            {
                "start_time": 0.9659090909090908,
                "end_time": 1.0272727272727271,
                "pitch": 51,
                "velocity": 80,
                "duration": 0.06136363636363629,
                "tempo": 120.0
            },
            {
                "start_time": 1.1772727272727272,
                "end_time": 1.2477272727272726,
                "pitch": 39,
                "velocity": 80,
                "duration": 0.07045454545454533,
                "tempo": 120.0
            },
            {
                "start_time": 1.3681818181818182,
                "end_time": 1.4181818181818182,
                "pitch": 51,
                "velocity": 80,
                "duration": 0.050000000000000044,
                "tempo": 120.0
            },
            {
                "start_time": 1.5499999999999998,
                "end_time": 1.6181818181818182,
                "pitch": 32,
                "velocity": 80,
                "duration": 0.06818181818181834,
                "tempo": 120.0
            },
            {
                "start_time": 1.7454545454545454,
                "end_time": 1.793181818181818,
                "pitch": 44,
                "velocity": 80,
                "duration": 0.04772727272727262,
                "tempo": 120.0
            },
            {
                "start_time": 1.9204545454545454,
                "end_time": 1.959090909090909,
                "pitch": 32,
                "velocity": 80,
                "duration": 0.03863636363636358,
                "tempo": 120.0
            },
            {
                "start_time": 2.1113636363636363,
                "end_time": 2.161363636363636,
                "pitch": 44,
                "velocity": 80,
                "duration": 0.04999999999999982,
                "tempo": 120.0
            },
            {
                "start_time": 2.311363636363636,
                "end_time": 2.3636363636363633,
                "pitch": 32,
                "velocity": 80,
                "duration": 0.05227272727272725,
                "tempo": 120.0
            },
            {
                "start_time": 2.518181818181818,
                "end_time": 2.5704545454545453,
                "pitch": 46,
                "velocity": 80,
                "duration": 0.05227272727272725,
                "tempo": 120.0
            },
            {
                "start_time": 2.7045454545454546,
                "end_time": 2.7545454545454544,
                "pitch": 34,
                "velocity": 80,
                "duration": 0.04999999999999982,
                "tempo": 120.0
            },
            {
                "start_time": 2.9045454545454543,
                "end_time": 2.9545454545454546,
                "pitch": 46,
                "velocity": 80,
                "duration": 0.050000000000000266,
                "tempo": 120.0
            },
            {
                "start_time": 3.0863636363636364,
                "end_time": 3.1363636363636362,
                "pitch": 34,
                "velocity": 80,
                "duration": 0.04999999999999982,
                "tempo": 120.0
            },
            {
                "start_time": 3.286363636363636,
                "end_time": 3.327272727272727,
                "pitch": 48,
                "velocity": 80,
                "duration": 0.040909090909091006,
                "tempo": 120.0
            },
            {
                "start_time": 3.477272727272727,
                "end_time": 3.5409090909090906,
                "pitch": 36,
                "velocity": 80,
                "duration": 0.06363636363636349,
                "tempo": 120.0
            },
            {
                "start_time": 3.684090909090909,
                "end_time": 3.7363636363636363,
                "pitch": 48,
                "velocity": 80,
                "duration": 0.05227272727272725,
                "tempo": 120.0
            },
            {
                "start_time": 3.870454545454545,
                "end_time": 3.9204545454545454,
                "pitch": 39,
                "velocity": 80,
                "duration": 0.050000000000000266,
                "tempo": 120.0
            },
            {
                "start_time": 4.052272727272727,
                "end_time": 4.1022727272727275,
                "pitch": 51,
                "velocity": 80,
                "duration": 0.05000000000000071,
                "tempo": 120.0
            },
            {
                "start_time": 4.252272727272727,
                "end_time": 4.302272727272727,
                "pitch": 39,
                "velocity": 80,
                "duration": 0.04999999999999982,
                "tempo": 120.0
            },
            {
                "start_time": 4.443181818181818,
                "end_time": 4.493181818181818,
                "pitch": 51,
                "velocity": 80,
                "duration": 0.04999999999999982,
                "tempo": 120.0
            },
            {
                "start_time": 4.6454545454545455,
                "end_time": 4.695454545454545,
                "pitch": 32,
                "velocity": 80,
                "duration": 0.04999999999999982,
                "tempo": 120.0
            },
            {
                "start_time": 4.829545454545454,
                "end_time": 4.881818181818182,
                "pitch": 44,
                "velocity": 80,
                "duration": 0.05227272727272769,
                "tempo": 120.0
            },
            {
                "start_time": 5.036363636363636,
                "end_time": 5.086363636363636,
                "pitch": 32,
                "velocity": 80,
                "duration": 0.04999999999999982,
                "tempo": 120.0
            },
            {
                "start_time": 5.218181818181818,
                "end_time": 5.268181818181818,
                "pitch": 44,
                "velocity": 80,
                "duration": 0.04999999999999982,
                "tempo": 120.0
            },
            {
                "start_time": 5.418181818181818,
                "end_time": 5.468181818181818,
                "pitch": 32,
                "velocity": 80,
                "duration": 0.04999999999999982,
                "tempo": 120.0
            },
            {
                "start_time": 5.6090909090909085,
                "end_time": 5.661363636363636,
                "pitch": 46,
                "velocity": 80,
                "duration": 0.05227272727272769,
                "tempo": 120.0
            },
            {
                "start_time": 5.8113636363636365,
                "end_time": 5.840909090909091,
                "pitch": 34,
                "velocity": 80,
                "duration": 0.02954545454545432,
                "tempo": 120.0
            },
            {
                "start_time": 5.997727272727272,
                "end_time": 6.047727272727273,
                "pitch": 46,
                "velocity": 80,
                "duration": 0.05000000000000071,
                "tempo": 120.0
            },
            {
                "start_time": 6.202272727272727,
                "end_time": 6.2318181818181815,
                "pitch": 34,
                "velocity": 80,
                "duration": 0.02954545454545432,
                "tempo": 120.0
            },
            {
                "start_time": 6.379545454545454,
                "end_time": 6.427272727272727,
                "pitch": 48,
                "velocity": 80,
                "duration": 0.04772727272727284,
                "tempo": 120.0
            },
            {
                "start_time": 6.5636363636363635,
                "end_time": 6.663636363636363,
                "pitch": 36,
                "velocity": 80,
                "duration": 0.09999999999999964,
                "tempo": 120.0
            },
            {
                "start_time": 6.763636363636364,
                "end_time": 6.8136363636363635,
                "pitch": 48,
                "velocity": 80,
                "duration": 0.04999999999999982,
                "tempo": 120.0
            },
            {
                "start_time": 6.945454545454545,
                "end_time": 7.015909090909091,
                "pitch": 39,
                "velocity": 80,
                "duration": 0.07045454545454533,
                "tempo": 120.0
            },
            {
                "start_time": 7.1454545454545455,
                "end_time": 7.197727272727272,
                "pitch": 51,
                "velocity": 80,
                "duration": 0.052272727272726804,
                "tempo": 120.0
            },
            {
                "start_time": 7.327272727272727,
                "end_time": 7.3954545454545455,
                "pitch": 39,
                "velocity": 80,
                "duration": 0.06818181818181834,
                "tempo": 120.0
            },
            {
                "start_time": 7.5227272727272725,
                "end_time": 7.570454545454545,
                "pitch": 51,
                "velocity": 80,
                "duration": 0.04772727272727284,
                "tempo": 120.0
            },
            {
                "start_time": 7.706818181818181,
                "end_time": 7.7704545454545455,
                "pitch": 32,
                "velocity": 80,
                "duration": 0.06363636363636438,
                "tempo": 120.0
            },
            {
                "start_time": 7.913636363636363,
                "end_time": 7.965909090909091,
                "pitch": 44,
                "velocity": 80,
                "duration": 0.05227272727272769,
                "tempo": 120.0
            },
            {
                "start_time": 8.1,
                "end_time": 8.152272727272727,
                "pitch": 32,
                "velocity": 80,
                "duration": 0.05227272727272769,
                "tempo": 120.0
            },
            {
                "start_time": 8.306818181818182,
                "end_time": 8.35681818181818,
                "pitch": 44,
                "velocity": 80,
                "duration": 0.049999999999998934,
                "tempo": 120.0
            },
            {
                "start_time": 8.49090909090909,
                "end_time": 8.543181818181818,
                "pitch": 32,
                "velocity": 80,
                "duration": 0.05227272727272769,
                "tempo": 120.0
            },
            {
                "start_time": 8.693181818181818,
                "end_time": 8.73409090909091,
                "pitch": 46,
                "velocity": 80,
                "duration": 0.040909090909091006,
                "tempo": 120.0
            },
            {
                "start_time": 8.884090909090908,
                "end_time": 8.934090909090909,
                "pitch": 34,
                "velocity": 80,
                "duration": 0.05000000000000071,
                "tempo": 120.0
            },
            {
                "start_time": 9.06590909090909,
                "end_time": 9.11590909090909,
                "pitch": 46,
                "velocity": 80,
                "duration": 0.05000000000000071,
                "tempo": 120.0
            },
            {
                "start_time": 9.26590909090909,
                "end_time": 9.318181818181818,
                "pitch": 34,
                "velocity": 80,
                "duration": 0.05227272727272769,
                "tempo": 120.0
            },
            {
                "start_time": 9.452272727272726,
                "end_time": 9.504545454545454,
                "pitch": 48,
                "velocity": 80,
                "duration": 0.05227272727272769,
                "tempo": 120.0
            },
            {
                "start_time": 9.659090909090908,
                "end_time": 9.727272727272727,
                "pitch": 36,
                "velocity": 80,
                "duration": 0.06818181818181834,
                "tempo": 120.0
            },
            {
                "start_time": 9.843181818181817,
                "end_time": 9.893181818181818,
                "pitch": 48,
                "velocity": 80,
                "duration": 0.05000000000000071,
                "tempo": 120.0
            },
            {
                "start_time": 10.038636363636364,
                "end_time": 10.09090909090909,
                "pitch": 39,
                "velocity": 80,
                "duration": 0.052272727272725916,
                "tempo": 120.0
            },
            {
                "start_time": 10.225,
                "end_time": 10.275,
                "pitch": 51,
                "velocity": 80,
                "duration": 0.05000000000000071,
                "tempo": 120.0
            },
            {
                "start_time": 10.429545454545455,
                "end_time": 10.48181818181818,
                "pitch": 39,
                "velocity": 80,
                "duration": 0.052272727272725916,
                "tempo": 120.0
            },
            {
                "start_time": 10.611363636363636,
                "end_time": 10.661363636363635,
                "pitch": 51,
                "velocity": 80,
                "duration": 0.049999999999998934,
                "tempo": 120.0
            },
            {
                "start_time": 10.822727272727272,
                "end_time": 10.863636363636363,
                "pitch": 32,
                "velocity": 80,
                "duration": 0.040909090909091006,
                "tempo": 120.0
            },
            {
                "start_time": 11.009090909090908,
                "end_time": 11.059090909090909,
                "pitch": 44,
                "velocity": 80,
                "duration": 0.05000000000000071,
                "tempo": 120.0
            },
            {
                "start_time": 11.213636363636363,
                "end_time": 11.245454545454544,
                "pitch": 32,
                "velocity": 80,
                "duration": 0.0318181818181813,
                "tempo": 120.0
            },
            {
                "start_time": 11.395454545454545,
                "end_time": 11.415909090909091,
                "pitch": 44,
                "velocity": 80,
                "duration": 0.02045454545454639,
                "tempo": 120.0
            },
            {
                "start_time": 11.597727272727273,
                "end_time": 11.647727272727272,
                "pitch": 32,
                "velocity": 80,
                "duration": 0.049999999999998934,
                "tempo": 120.0
            },
            {
                "start_time": 11.777272727272727,
                "end_time": 11.827272727272726,
                "pitch": 46,
                "velocity": 80,
                "duration": 0.049999999999998934,
                "tempo": 120.0
            },
            {
                "start_time": 11.968181818181817,
                "end_time": 12.018181818181818,
                "pitch": 34,
                "velocity": 80,
                "duration": 0.05000000000000071,
                "tempo": 120.0
            },
            {
                "start_time": 12.170454545454545,
                "end_time": 12.220454545454546,
                "pitch": 46,
                "velocity": 80,
                "duration": 0.05000000000000071,
                "tempo": 120.0
            },
            {
                "start_time": 12.536363636363635,
                "end_time": 12.595454545454546,
                "pitch": 46,
                "velocity": 80,
                "duration": 0.059090909090910415,
                "tempo": 120.0
            },
            {
                "start_time": 12.73181818181818,
                "end_time": 12.825,
                "pitch": 36,
                "velocity": 80,
                "duration": 0.0931818181818187,
                "tempo": 120.0
            },
            {
                "start_time": 12.927272727272726,
                "end_time": 13.0,
                "pitch": 48,
                "velocity": 80,
                "duration": 0.07272727272727408,
                "tempo": 120.0
            },
            {
                "start_time": 13.122727272727271,
                "end_time": 13.184090909090909,
                "pitch": 39,
                "velocity": 80,
                "duration": 0.0613636363636374,
                "tempo": 120.0
            },
            {
                "start_time": 13.325,
                "end_time": 13.375,
                "pitch": 51,
                "velocity": 80,
                "duration": 0.05000000000000071,
                "tempo": 120.0
            },
            {
                "start_time": 13.504545454545454,
                "end_time": 13.575,
                "pitch": 39,
                "velocity": 80,
                "duration": 0.07045454545454533,
                "tempo": 120.0
            },
            {
                "start_time": 13.686363636363636,
                "end_time": 13.736363636363636,
                "pitch": 51,
                "velocity": 80,
                "duration": 0.05000000000000071,
                "tempo": 120.0
            },
            {
                "start_time": 13.897727272727272,
                "end_time": 13.959090909090909,
                "pitch": 32,
                "velocity": 80,
                "duration": 0.0613636363636374,
                "tempo": 120.0
            },
            {
                "start_time": 14.104545454545454,
                "end_time": 14.145454545454545,
                "pitch": 44,
                "velocity": 80,
                "duration": 0.040909090909091006,
                "tempo": 120.0
            },
            {
                "start_time": 14.288636363636362,
                "end_time": 14.34090909090909,
                "pitch": 32,
                "velocity": 80,
                "duration": 0.05227272727272769,
                "tempo": 120.0
            },
            {
                "start_time": 14.470454545454544,
                "end_time": 14.520454545454545,
                "pitch": 44,
                "velocity": 80,
                "duration": 0.05000000000000071,
                "tempo": 120.0
            },
            {
                "start_time": 14.672727272727272,
                "end_time": 14.722727272727273,
                "pitch": 32,
                "velocity": 80,
                "duration": 0.05000000000000071,
                "tempo": 120.0
            },
            {
                "start_time": 14.863636363636363,
                "end_time": 14.902272727272727,
                "pitch": 46,
                "velocity": 80,
                "duration": 0.038636363636364024,
                "tempo": 120.0
            },
            {
                "start_time": 15.063636363636363,
                "end_time": 15.104545454545454,
                "pitch": 34,
                "velocity": 80,
                "duration": 0.040909090909091006,
                "tempo": 120.0
            },
            {
                "start_time": 15.25,
                "end_time": 15.302272727272726,
                "pitch": 46,
                "velocity": 80,
                "duration": 0.052272727272725916,
                "tempo": 120.0
            },
            {
                "start_time": 15.45681818181818,
                "end_time": 15.506818181818181,
                "pitch": 34,
                "velocity": 80,
                "duration": 0.05000000000000071,
                "tempo": 120.0
            },
            {
                "start_time": 15.636363636363635,
                "end_time": 15.686363636363636,
                "pitch": 48,
                "velocity": 80,
                "duration": 0.05000000000000071,
                "tempo": 120.0
            },
            {
                "start_time": 15.838636363636363,
                "end_time": 15.909090909090908,
                "pitch": 36,
                "velocity": 80,
                "duration": 0.07045454545454533,
                "tempo": 120.0
            },
            {
                "start_time": 16.018181818181816,
                "end_time": 16.070454545454545,
                "pitch": 48,
                "velocity": 80,
                "duration": 0.05227272727272947,
                "tempo": 120.0
            },
            {
                "start_time": 16.229545454545455,
                "end_time": 16.261363636363637,
                "pitch": 39,
                "velocity": 80,
                "duration": 0.0318181818181813,
                "tempo": 120.0
            },
            {
                "start_time": 16.41590909090909,
                "end_time": 16.46818181818182,
                "pitch": 51,
                "velocity": 80,
                "duration": 0.05227272727272947,
                "tempo": 120.0
            },
            {
                "start_time": 16.62272727272727,
                "end_time": 16.672727272727272,
                "pitch": 39,
                "velocity": 80,
                "duration": 0.05000000000000071,
                "tempo": 120.0
            },
            {
                "start_time": 16.804545454545455,
                "end_time": 16.854545454545455,
                "pitch": 51,
                "velocity": 80,
                "duration": 0.05000000000000071,
                "tempo": 120.0
            },
            {
                "start_time": 16.995454545454546,
                "end_time": 17.034090909090907,
                "pitch": 32,
                "velocity": 80,
                "duration": 0.03863636363636047,
                "tempo": 120.0
            },
            {
                "start_time": 17.188636363636363,
                "end_time": 17.227272727272727,
                "pitch": 44,
                "velocity": 80,
                "duration": 0.038636363636364024,
                "tempo": 120.0
            },
            {
                "start_time": 17.36590909090909,
                "end_time": 17.41590909090909,
                "pitch": 32,
                "velocity": 80,
                "duration": 0.05000000000000071,
                "tempo": 120.0
            },
            {
                "start_time": 17.56590909090909,
                "end_time": 17.61590909090909,
                "pitch": 44,
                "velocity": 80,
                "duration": 0.04999999999999716,
                "tempo": 120.0
            },
            {
                "start_time": 17.74772727272727,
                "end_time": 17.797727272727272,
                "pitch": 32,
                "velocity": 80,
                "duration": 0.05000000000000071,
                "tempo": 120.0
            },
            {
                "start_time": 17.94772727272727,
                "end_time": 17.99772727272727,
                "pitch": 46,
                "velocity": 80,
                "duration": 0.05000000000000071,
                "tempo": 120.0
            },
            {
                "start_time": 18.138636363636362,
                "end_time": 18.179545454545455,
                "pitch": 34,
                "velocity": 80,
                "duration": 0.04090909090909278,
                "tempo": 120.0
            },
            {
                "start_time": 18.345454545454544,
                "end_time": 18.386363636363637,
                "pitch": 46,
                "velocity": 80,
                "duration": 0.04090909090909278,
                "tempo": 120.0
            },
            {
                "start_time": 18.73181818181818,
                "end_time": 18.763636363636362,
                "pitch": 46,
                "velocity": 80,
                "duration": 0.0318181818181813,
                "tempo": 120.0
            },
            {
                "start_time": 18.913636363636364,
                "end_time": 19.013636363636362,
                "pitch": 36,
                "velocity": 80,
                "duration": 0.09999999999999787,
                "tempo": 120.0
            },
            {
                "start_time": 19.113636363636363,
                "end_time": 19.163636363636364,
                "pitch": 48,
                "velocity": 80,
                "duration": 0.05000000000000071,
                "tempo": 120.0
            },
            {
                "start_time": 19.304545454545455,
                "end_time": 19.368181818181817,
                "pitch": 39,
                "velocity": 80,
                "duration": 0.0636363636363626,
                "tempo": 120.0
            },
            {
                "start_time": 19.49090909090909,
                "end_time": 19.543181818181818,
                "pitch": 51,
                "velocity": 80,
                "duration": 0.05227272727272947,
                "tempo": 120.0
            },
            {
                "start_time": 19.69772727272727,
                "end_time": 19.759090909090908,
                "pitch": 39,
                "velocity": 80,
                "duration": 0.0613636363636374,
                "tempo": 120.0
            },
            {
                "start_time": 19.879545454545454,
                "end_time": 19.929545454545455,
                "pitch": 51,
                "velocity": 80,
                "duration": 0.05000000000000071,
                "tempo": 120.0
            },
            {
                "start_time": 20.079545454545453,
                "end_time": 20.15,
                "pitch": 32,
                "velocity": 80,
                "duration": 0.07045454545454533,
                "tempo": 120.0
            },
            {
                "start_time": 20.261363636363637,
                "end_time": 20.311363636363634,
                "pitch": 44,
                "velocity": 80,
                "duration": 0.04999999999999716,
                "tempo": 120.0
            },
            {
                "start_time": 20.472727272727273,
                "end_time": 20.513636363636362,
                "pitch": 32,
                "velocity": 80,
                "duration": 0.04090909090908923,
                "tempo": 120.0
            },
            {
                "start_time": 20.65681818181818,
                "end_time": 20.709090909090907,
                "pitch": 44,
                "velocity": 80,
                "duration": 0.052272727272725916,
                "tempo": 120.0
            },
            {
                "start_time": 20.863636363636363,
                "end_time": 20.913636363636364,
                "pitch": 32,
                "velocity": 80,
                "duration": 0.05000000000000071,
                "tempo": 120.0
            },
            {
                "start_time": 21.045454545454543,
                "end_time": 21.095454545454544,
                "pitch": 46,
                "velocity": 80,
                "duration": 0.05000000000000071,
                "tempo": 120.0
            },
            {
                "start_time": 21.245454545454546,
                "end_time": 21.295454545454543,
                "pitch": 34,
                "velocity": 80,
                "duration": 0.04999999999999716,
                "tempo": 120.0
            },
            {
                "start_time": 21.436363636363634,
                "end_time": 21.477272727272727,
                "pitch": 46,
                "velocity": 80,
                "duration": 0.04090909090909278,
                "tempo": 120.0
            },
            {
                "start_time": 21.638636363636362,
                "end_time": 21.668181818181818,
                "pitch": 34,
                "velocity": 80,
                "duration": 0.029545454545456096,
                "tempo": 120.0
            },
            {
                "start_time": 21.825,
                "end_time": 21.875,
                "pitch": 48,
                "velocity": 80,
                "duration": 0.05000000000000071,
                "tempo": 120.0
            },
            {
                "start_time": 22.009090909090908,
                "end_time": 22.077272727272724,
                "pitch": 36,
                "velocity": 80,
                "duration": 0.06818181818181657,
                "tempo": 120.0
            },
            {
                "start_time": 22.2,
                "end_time": 22.24772727272727,
                "pitch": 48,
                "velocity": 80,
                "duration": 0.04772727272727195,
                "tempo": 120.0
            },
            {
                "start_time": 22.38181818181818,
                "end_time": 22.422727272727272,
                "pitch": 39,
                "velocity": 80,
                "duration": 0.04090909090909278,
                "tempo": 120.0
            },
            {
                "start_time": 22.586363636363636,
                "end_time": 22.627272727272725,
                "pitch": 51,
                "velocity": 80,
                "duration": 0.04090909090908923,
                "tempo": 120.0
            },
            {
                "start_time": 22.772727272727273,
                "end_time": 22.82272727272727,
                "pitch": 39,
                "velocity": 80,
                "duration": 0.04999999999999716,
                "tempo": 120.0
            },
            {
                "start_time": 22.974999999999998,
                "end_time": 23.025,
                "pitch": 51,
                "velocity": 80,
                "duration": 0.05000000000000071,
                "tempo": 120.0
            },
            {
                "start_time": 23.154545454545453,
                "end_time": 23.204545454545453,
                "pitch": 32,
                "velocity": 80,
                "duration": 0.05000000000000071,
                "tempo": 120.0
            },
            {
                "start_time": 23.35681818181818,
                "end_time": 23.40681818181818,
                "pitch": 44,
                "velocity": 80,
                "duration": 0.05000000000000071,
                "tempo": 120.0
            },
            {
                "start_time": 23.547727272727272,
                "end_time": 23.58863636363636,
                "pitch": 32,
                "velocity": 80,
                "duration": 0.04090909090908923,
                "tempo": 120.0
            },
            {
                "start_time": 23.743181818181817,
                "end_time": 23.795454545454543,
                "pitch": 44,
                "velocity": 80,
                "duration": 0.052272727272725916,
                "tempo": 120.0
            },
            {
                "start_time": 23.938636363636363,
                "end_time": 23.988636363636363,
                "pitch": 32,
                "velocity": 80,
                "duration": 0.05000000000000071,
                "tempo": 120.0
            },
            {
                "start_time": 24.14090909090909,
                "end_time": 24.170454545454543,
                "pitch": 46,
                "velocity": 80,
                "duration": 0.029545454545452543,
                "tempo": 120.0
            },
            {
                "start_time": 24.320454545454545,
                "end_time": 24.352272727272727,
                "pitch": 34,
                "velocity": 80,
                "duration": 0.0318181818181813,
                "tempo": 120.0
            },
            {
                "start_time": 24.502272727272725,
                "end_time": 24.543181818181818,
                "pitch": 46,
                "velocity": 80,
                "duration": 0.04090909090909278,
                "tempo": 120.0
            },
            {
                "start_time": 24.71363636363636,
                "end_time": 24.754545454545454,
                "pitch": 34,
                "velocity": 80,
                "duration": 0.04090909090909278,
                "tempo": 120.0
            },
            {
                "start_time": 24.9,
                "end_time": 24.95,
                "pitch": 48,
                "velocity": 80,
                "duration": 0.05000000000000071,
                "tempo": 120.0
            },
            {
                "start_time": 25.104545454545452,
                "end_time": 25.2,
                "pitch": 36,
                "velocity": 80,
                "duration": 0.09545454545454746,
                "tempo": 120.0
            },
            {
                "start_time": 25.275,
                "end_time": 25.34090909090909,
                "pitch": 48,
                "velocity": 80,
                "duration": 0.06590909090909136,
                "tempo": 120.0
            },
            {
                "start_time": 25.46590909090909,
                "end_time": 25.538636363636364,
                "pitch": 39,
                "velocity": 80,
                "duration": 0.07272727272727408,
                "tempo": 120.0
            },
            {
                "start_time": 25.65681818181818,
                "end_time": 25.709090909090907,
                "pitch": 51,
                "velocity": 80,
                "duration": 0.052272727272725916,
                "tempo": 120.0
            },
            {
                "start_time": 25.879545454545454,
                "end_time": 25.94090909090909,
                "pitch": 39,
                "velocity": 80,
                "duration": 0.0613636363636374,
                "tempo": 120.0
            },
            {
                "start_time": 26.043181818181818,
                "end_time": 26.11590909090909,
                "pitch": 51,
                "velocity": 80,
                "duration": 0.07272727272727053,
                "tempo": 120.0
            },
            {
                "start_time": 26.270454545454545,
                "end_time": 26.320454545454545,
                "pitch": 32,
                "velocity": 80,
                "duration": 0.05000000000000071,
                "tempo": 120.0
            },
            {
                "start_time": 26.452272727272724,
                "end_time": 26.502272727272725,
                "pitch": 44,
                "velocity": 80,
                "duration": 0.05000000000000071,
                "tempo": 120.0
            },
            {
                "start_time": 26.652272727272727,
                "end_time": 26.68409090909091,
                "pitch": 32,
                "velocity": 80,
                "duration": 0.0318181818181813,
                "tempo": 120.0
            },
            {
                "start_time": 26.834090909090907,
                "end_time": 26.884090909090908,
                "pitch": 44,
                "velocity": 80,
                "duration": 0.05000000000000071,
                "tempo": 120.0
            },
            {
                "start_time": 27.045454545454543,
                "end_time": 27.086363636363636,
                "pitch": 32,
                "velocity": 80,
                "duration": 0.04090909090909278,
                "tempo": 120.0
            },
            {
                "start_time": 27.23181818181818,
                "end_time": 27.28181818181818,
                "pitch": 46,
                "velocity": 80,
                "duration": 0.05000000000000071,
                "tempo": 120.0
            },
            {
                "start_time": 27.41590909090909,
                "end_time": 27.46363636363636,
                "pitch": 34,
                "velocity": 80,
                "duration": 0.04772727272727195,
                "tempo": 120.0
            },
            {
                "start_time": 27.60681818181818,
                "end_time": 27.654545454545453,
                "pitch": 46,
                "velocity": 80,
                "duration": 0.04772727272727195,
                "tempo": 120.0
            },
            {
                "start_time": 27.786363636363635,
                "end_time": 27.829545454545453,
                "pitch": 34,
                "velocity": 80,
                "duration": 0.04318181818181799,
                "tempo": 120.0
            },
            {
                "start_time": 27.993181818181817,
                "end_time": 28.034090909090907,
                "pitch": 48,
                "velocity": 80,
                "duration": 0.04090909090908923,
                "tempo": 120.0
            },
            {
                "start_time": 28.179545454545455,
                "end_time": 28.24090909090909,
                "pitch": 36,
                "velocity": 80,
                "duration": 0.061363636363633844,
                "tempo": 120.0
            },
            {
                "start_time": 28.379545454545454,
                "end_time": 28.43181818181818,
                "pitch": 48,
                "velocity": 80,
                "duration": 0.052272727272725916,
                "tempo": 120.0
            },
            {
                "start_time": 28.561363636363634,
                "end_time": 28.59090909090909,
                "pitch": 39,
                "velocity": 80,
                "duration": 0.029545454545456096,
                "tempo": 120.0
            },
            {
                "start_time": 28.743181818181817,
                "end_time": 28.813636363636363,
                "pitch": 51,
                "velocity": 80,
                "duration": 0.07045454545454533,
                "tempo": 120.0
            },
            {
                "start_time": 28.954545454545453,
                "end_time": 28.995454545454542,
                "pitch": 39,
                "velocity": 80,
                "duration": 0.04090909090908923,
                "tempo": 120.0
            },
            {
                "start_time": 29.161363636363635,
                "end_time": 29.190909090909088,
                "pitch": 51,
                "velocity": 80,
                "duration": 0.029545454545452543,
                "tempo": 120.0
            },
            {
                "start_time": 29.345454545454544,
                "end_time": 29.395454545454545,
                "pitch": 32,
                "velocity": 80,
                "duration": 0.05000000000000071,
                "tempo": 120.0
            },
            {
                "start_time": 29.547727272727272,
                "end_time": 29.597727272727273,
                "pitch": 44,
                "velocity": 80,
                "duration": 0.05000000000000071,
                "tempo": 120.0
            },
            {
                "start_time": 29.727272727272727,
                "end_time": 29.777272727272727,
                "pitch": 32,
                "velocity": 80,
                "duration": 0.05000000000000071,
                "tempo": 120.0
            },
            {
                "start_time": 29.918181818181818,
                "end_time": 29.95,
                "pitch": 44,
                "velocity": 80,
                "duration": 0.0318181818181813,
                "tempo": 120.0
            },
            {
                "start_time": 30.099999999999998,
                "end_time": 30.15,
                "pitch": 32,
                "velocity": 80,
                "duration": 0.05000000000000071,
                "tempo": 120.0
            },
            {
                "start_time": 30.302272727272726,
                "end_time": 30.352272727272727,
                "pitch": 46,
                "velocity": 80,
                "duration": 0.05000000000000071,
                "tempo": 120.0
            },
            {
                "start_time": 30.502272727272725,
                "end_time": 30.554545454545455,
                "pitch": 34,
                "velocity": 80,
                "duration": 0.05227272727272947,
                "tempo": 120.0
            },
            {
                "start_time": 30.688636363636363,
                "end_time": 30.738636363636363,
                "pitch": 46,
                "velocity": 80,
                "duration": 0.05000000000000071,
                "tempo": 120.0
            },
            {
                "start_time": 30.895454545454545,
                "end_time": 30.96590909090909,
                "pitch": 39,
                "velocity": 80,
                "duration": 0.07045454545454533,
                "tempo": 120.0
            },
            {
                "start_time": 31.086363636363636,
                "end_time": 31.16590909090909,
                "pitch": 39,
                "velocity": 80,
                "duration": 0.07954545454545325,
                "tempo": 120.0
            },
            {
                "start_time": 31.174999999999997,
                "end_time": 31.26590909090909,
                "pitch": 37,
                "velocity": 80,
                "duration": 0.09090909090909349,
                "tempo": 120.0
            },
            {
                "start_time": 31.277272727272727,
                "end_time": 31.347727272727273,
                "pitch": 34,
                "velocity": 80,
                "duration": 0.07045454545454533,
                "tempo": 120.0
            },
            {
                "start_time": 31.472727272727273,
                "end_time": 31.534090909090907,
                "pitch": 37,
                "velocity": 80,
                "duration": 0.061363636363633844,
                "tempo": 120.0
            },
            {
                "start_time": 31.679545454545455,
                "end_time": 31.709090909090907,
                "pitch": 39,
                "velocity": 80,
                "duration": 0.029545454545452543,
                "tempo": 120.0
            },
            {
                "start_time": 31.859090909090906,
                "end_time": 31.909090909090907,
                "pitch": 39,
                "velocity": 80,
                "duration": 0.05000000000000071,
                "tempo": 120.0
            },
            {
                "start_time": 31.961363636363636,
                "end_time": 32.04090909090909,
                "pitch": 37,
                "velocity": 80,
                "duration": 0.07954545454545325,
                "tempo": 120.0
            },
            {
                "start_time": 32.06136363636364,
                "end_time": 32.14090909090909,
                "pitch": 34,
                "velocity": 80,
                "duration": 0.07954545454545325,
                "tempo": 120.0
            },
            {
                "start_time": 32.24090909090909,
                "end_time": 32.31136363636364,
                "pitch": 37,
                "velocity": 80,
                "duration": 0.07045454545454533,
                "tempo": 120.0
            },
            {
                "start_time": 32.434090909090905,
                "end_time": 32.48181818181818,
                "pitch": 39,
                "velocity": 80,
                "duration": 0.04772727272727195,
                "tempo": 120.0
            },
            {
                "start_time": 32.627272727272725,
                "end_time": 32.67727272727272,
                "pitch": 39,
                "velocity": 80,
                "duration": 0.04999999999999716,
                "tempo": 120.0
            },
            {
                "start_time": 32.725,
                "end_time": 32.775,
                "pitch": 37,
                "velocity": 80,
                "duration": 0.04999999999999716,
                "tempo": 120.0
            },
            {
                "start_time": 32.80227272727272,
                "end_time": 32.904545454545456,
                "pitch": 34,
                "velocity": 80,
                "duration": 0.10227272727273373,
                "tempo": 120.0
            },
            {
                "start_time": 33.00454545454545,
                "end_time": 33.074999999999996,
                "pitch": 37,
                "velocity": 80,
                "duration": 0.07045454545454533,
                "tempo": 120.0
            },
            {
                "start_time": 33.18636363636364,
                "end_time": 33.20681818181818,
                "pitch": 39,
                "velocity": 80,
                "duration": 0.020454545454541062,
                "tempo": 120.0
            },
            {
                "start_time": 33.39090909090909,
                "end_time": 33.46363636363636,
                "pitch": 39,
                "velocity": 80,
                "duration": 0.07272727272727053,
                "tempo": 120.0
            },
            {
                "start_time": 33.58863636363636,
                "end_time": 33.638636363636365,
                "pitch": 40,
                "velocity": 80,
                "duration": 0.05000000000000426,
                "tempo": 120.0
            },
            {
                "start_time": 33.788636363636364,
                "end_time": 34.04090909090909,
                "pitch": 42,
                "velocity": 80,
                "duration": 0.2522727272727252,
                "tempo": 120.0
            },
            {
                "start_time": 34.17045454545455,
                "end_time": 34.199999999999996,
                "pitch": 42,
                "velocity": 80,
                "duration": 0.02954545454544899,
                "tempo": 120.0
            },
            {
                "start_time": 34.252272727272725,
                "end_time": 34.30227272727272,
                "pitch": 40,
                "velocity": 80,
                "duration": 0.04999999999999716,
                "tempo": 120.0
            },
            {
                "start_time": 34.35227272727273,
                "end_time": 34.45454545454545,
                "pitch": 37,
                "velocity": 80,
                "duration": 0.10227272727272663,
                "tempo": 120.0
            },
            {
                "start_time": 34.56818181818181,
                "end_time": 34.6,
                "pitch": 40,
                "velocity": 80,
                "duration": 0.03181818181818841,
                "tempo": 120.0
            },
            {
                "start_time": 34.75454545454545,
                "end_time": 34.78409090909091,
                "pitch": 42,
                "velocity": 80,
                "duration": 0.029545454545456096,
                "tempo": 120.0
            },
            {
                "start_time": 34.934090909090905,
                "end_time": 34.986363636363635,
                "pitch": 42,
                "velocity": 80,
                "duration": 0.05227272727272947,
                "tempo": 120.0
            },
            {
                "start_time": 35.03636363636363,
                "end_time": 35.11590909090909,
                "pitch": 40,
                "velocity": 80,
                "duration": 0.07954545454546036,
                "tempo": 120.0
            },
            {
                "start_time": 35.13636363636363,
                "end_time": 35.236363636363635,
                "pitch": 37,
                "velocity": 80,
                "duration": 0.10000000000000142,
                "tempo": 120.0
            },
            {
                "start_time": 35.32727272727273,
                "end_time": 35.388636363636365,
                "pitch": 40,
                "velocity": 80,
                "duration": 0.0613636363636374,
                "tempo": 120.0
            },
            {
                "start_time": 35.527272727272724,
                "end_time": 35.570454545454545,
                "pitch": 42,
                "velocity": 80,
                "duration": 0.04318181818182154,
                "tempo": 120.0
            },
            {
                "start_time": 35.71363636363636,
                "end_time": 35.76590909090909,
                "pitch": 42,
                "velocity": 80,
                "duration": 0.05227272727272947,
                "tempo": 120.0
            },
            {
                "start_time": 35.81818181818181,
                "end_time": 35.9,
                "pitch": 40,
                "velocity": 80,
                "duration": 0.08181818181818556,
                "tempo": 120.0
            },
            {
                "start_time": 35.92045454545455,
                "end_time": 36.02045454545454,
                "pitch": 37,
                "velocity": 80,
                "duration": 0.09999999999999432,
                "tempo": 120.0
            },
            {
                "start_time": 36.10227272727273,
                "end_time": 36.152272727272724,
                "pitch": 40,
                "velocity": 80,
                "duration": 0.04999999999999716,
                "tempo": 120.0
            },
            {
                "start_time": 36.30227272727272,
                "end_time": 36.35454545454545,
                "pitch": 42,
                "velocity": 80,
                "duration": 0.05227272727272947,
                "tempo": 120.0
            },
            {
                "start_time": 36.49772727272727,
                "end_time": 36.559090909090905,
                "pitch": 42,
                "velocity": 80,
                "duration": 0.0613636363636374,
                "tempo": 120.0
            },
            {
                "start_time": 36.695454545454545,
                "end_time": 36.74545454545454,
                "pitch": 41,
                "velocity": 80,
                "duration": 0.04999999999999716,
                "tempo": 120.0
            },
            {
                "start_time": 36.89090909090909,
                "end_time": 37.17727272727272,
                "pitch": 40,
                "velocity": 80,
                "duration": 0.2863636363636317,
                "tempo": 120.0
            },
            {
                "start_time": 37.277272727272724,
                "end_time": 37.35909090909091,
                "pitch": 39,
                "velocity": 80,
                "duration": 0.08181818181818556,
                "tempo": 120.0
            },
            {
                "start_time": 37.37954545454545,
                "end_time": 37.45909090909091,
                "pitch": 37,
                "velocity": 80,
                "duration": 0.07954545454546036,
                "tempo": 120.0
            },
            {
                "start_time": 37.47954545454545,
                "end_time": 37.54772727272727,
                "pitch": 34,
                "velocity": 80,
                "duration": 0.06818181818182012,
                "tempo": 120.0
            },
            {
                "start_time": 37.663636363636364,
                "end_time": 37.72272727272727,
                "pitch": 37,
                "velocity": 80,
                "duration": 0.059090909090905086,
                "tempo": 120.0
            },
            {
                "start_time": 37.83863636363636,
                "end_time": 37.88863636363636,
                "pitch": 39,
                "velocity": 80,
                "duration": 0.04999999999999716,
                "tempo": 120.0
            },
            {
                "start_time": 38.04090909090909,
                "end_time": 38.090909090909086,
                "pitch": 39,
                "velocity": 80,
                "duration": 0.04999999999999716,
                "tempo": 120.0
            },
            {
                "start_time": 38.14090909090909,
                "end_time": 38.19090909090909,
                "pitch": 37,
                "velocity": 80,
                "duration": 0.04999999999999716,
                "tempo": 120.0
            },
            {
                "start_time": 38.20227272727273,
                "end_time": 38.3,
                "pitch": 34,
                "velocity": 80,
                "duration": 0.09772727272726911,
                "tempo": 120.0
            },
            {
                "start_time": 38.41590909090909,
                "end_time": 38.48409090909091,
                "pitch": 37,
                "velocity": 80,
                "duration": 0.06818181818182012,
                "tempo": 120.0
            },
            {
                "start_time": 38.60227272727273,
                "end_time": 38.643181818181816,
                "pitch": 39,
                "velocity": 80,
                "duration": 0.04090909090908923,
                "tempo": 120.0
            },
            {
                "start_time": 38.81136363636364,
                "end_time": 38.85454545454545,
                "pitch": 39,
                "velocity": 80,
                "duration": 0.043181818181814435,
                "tempo": 120.0
            },
            {
                "start_time": 38.89545454545454,
                "end_time": 38.959090909090904,
                "pitch": 37,
                "velocity": 80,
                "duration": 0.0636363636363626,
                "tempo": 120.0
            },
            {
                "start_time": 39.0,
                "end_time": 39.10454545454545,
                "pitch": 34,
                "velocity": 80,
                "duration": 0.10454545454545183,
                "tempo": 120.0
            },
            {
                "start_time": 39.20681818181818,
                "end_time": 39.25909090909091,
                "pitch": 37,
                "velocity": 80,
                "duration": 0.05227272727272947,
                "tempo": 120.0
            },
            {
                "start_time": 39.393181818181816,
                "end_time": 39.413636363636364,
                "pitch": 39,
                "velocity": 80,
                "duration": 0.020454545454548168,
                "tempo": 120.0
            },
            {
                "start_time": 39.58863636363636,
                "end_time": 39.63863636363636,
                "pitch": 39,
                "velocity": 80,
                "duration": 0.04999999999999716,
                "tempo": 120.0
            },
            {
                "start_time": 39.775,
                "end_time": 39.81363636363636,
                "pitch": 40,
                "velocity": 80,
                "duration": 0.038636363636364024,
                "tempo": 120.0
            },
            {
                "start_time": 39.97954545454545,
                "end_time": 40.225,
                "pitch": 42,
                "velocity": 80,
                "duration": 0.2454545454545496,
                "tempo": 120.0
            },
            {
                "start_time": 40.34772727272727,
                "end_time": 40.377272727272725,
                "pitch": 42,
                "velocity": 80,
                "duration": 0.029545454545456096,
                "tempo": 120.0
            },
            {
                "start_time": 40.44772727272727,
                "end_time": 40.49772727272727,
                "pitch": 40,
                "velocity": 80,
                "duration": 0.04999999999999716,
                "tempo": 120.0
            },
            {
                "start_time": 40.527272727272724,
                "end_time": 40.62954545454545,
                "pitch": 37,
                "velocity": 80,
                "duration": 0.10227272727272663,
                "tempo": 120.0
            },
            {
                "start_time": 40.74318181818182,
                "end_time": 40.78409090909091,
                "pitch": 40,
                "velocity": 80,
                "duration": 0.04090909090908923,
                "tempo": 120.0
            },
            {
                "start_time": 40.949999999999996,
                "end_time": 40.99090909090909,
                "pitch": 42,
                "velocity": 80,
                "duration": 0.040909090909096335,
                "tempo": 120.0
            },
            {
                "start_time": 41.13181818181818,
                "end_time": 41.18181818181818,
                "pitch": 42,
                "velocity": 80,
                "duration": 0.04999999999999716,
                "tempo": 120.0
            },
            {
                "start_time": 41.23181818181818,
                "end_time": 41.31136363636364,
                "pitch": 40,
                "velocity": 80,
                "duration": 0.07954545454546036,
                "tempo": 120.0
            },
            {
                "start_time": 41.33181818181818,
                "end_time": 41.413636363636364,
                "pitch": 37,
                "velocity": 80,
                "duration": 0.08181818181818556,
                "tempo": 120.0
            },
            {
                "start_time": 41.518181818181816,
                "end_time": 41.58863636363636,
                "pitch": 40,
                "velocity": 80,
                "duration": 0.07045454545454533,
                "tempo": 120.0
            },
            {
                "start_time": 41.72272727272727,
                "end_time": 41.77272727272727,
                "pitch": 42,
                "velocity": 80,
                "duration": 0.05000000000000426,
                "tempo": 120.0
            },
            {
                "start_time": 41.90909090909091,
                "end_time": 41.94772727272727,
                "pitch": 42,
                "velocity": 80,
                "duration": 0.038636363636364024,
                "tempo": 120.0
            },
            {
                "start_time": 41.99772727272727,
                "end_time": 42.084090909090904,
                "pitch": 40,
                "velocity": 80,
                "duration": 0.08636363636363598,
                "tempo": 120.0
            },
            {
                "start_time": 42.10454545454545,
                "end_time": 42.18636363636364,
                "pitch": 37,
                "velocity": 80,
                "duration": 0.08181818181818556,
                "tempo": 120.0
            },
            {
                "start_time": 42.288636363636364,
                "end_time": 42.340909090909086,
                "pitch": 40,
                "velocity": 80,
                "duration": 0.052272727272722364,
                "tempo": 120.0
            },
            {
                "start_time": 42.49545454545454,
                "end_time": 42.54545454545455,
                "pitch": 42,
                "velocity": 80,
                "duration": 0.05000000000000426,
                "tempo": 120.0
            },
            {
                "start_time": 42.67045454545455,
                "end_time": 42.73863636363636,
                "pitch": 42,
                "velocity": 80,
                "duration": 0.06818181818181301,
                "tempo": 120.0
            },
            {
                "start_time": 42.85681818181818,
                "end_time": 42.91590909090909,
                "pitch": 41,
                "velocity": 80,
                "duration": 0.05909090909091219,
                "tempo": 120.0
            },
            {
                "start_time": 43.05681818181818,
                "end_time": 43.33863636363636,
                "pitch": 40,
                "velocity": 80,
                "duration": 0.2818181818181813,
                "tempo": 120.0
            },
            {
                "start_time": 43.43863636363636,
                "end_time": 43.52045454545454,
                "pitch": 39,
                "velocity": 80,
                "duration": 0.08181818181817846,
                "tempo": 120.0
            },
            {
                "start_time": 43.54090909090909,
                "end_time": 43.570454545454545,
                "pitch": 37,
                "velocity": 80,
                "duration": 0.029545454545456096,
                "tempo": 120.0
            },
            {
                "start_time": 43.62045454545454,
                "end_time": 43.71818181818182,
                "pitch": 34,
                "velocity": 80,
                "duration": 0.09772727272727622,
                "tempo": 120.0
            },
            {
                "start_time": 43.81590909090909,
                "end_time": 43.88409090909091,
                "pitch": 37,
                "velocity": 80,
                "duration": 0.06818181818182012,
                "tempo": 120.0
            },
            {
                "start_time": 44.0,
                "end_time": 44.04090909090909,
                "pitch": 39,
                "velocity": 80,
                "duration": 0.04090909090908923,
                "tempo": 120.0
            },
            {
                "start_time": 44.211363636363636,
                "end_time": 44.24090909090909,
                "pitch": 39,
                "velocity": 80,
                "duration": 0.029545454545456096,
                "tempo": 120.0
            },
            {
                "start_time": 44.29545454545455,
                "end_time": 44.37954545454545,
                "pitch": 37,
                "velocity": 80,
                "duration": 0.08409090909090366,
                "tempo": 120.0
            },
            {
                "start_time": 44.4,
                "end_time": 44.502272727272725,
                "pitch": 34,
                "velocity": 80,
                "duration": 0.10227272727272663,
                "tempo": 120.0
            },
            {
                "start_time": 44.60681818181818,
                "end_time": 44.65909090909091,
                "pitch": 37,
                "velocity": 80,
                "duration": 0.05227272727272947,
                "tempo": 120.0
            },
            {
                "start_time": 44.793181818181814,
                "end_time": 44.840909090909086,
                "pitch": 39,
                "velocity": 80,
                "duration": 0.04772727272727195,
                "tempo": 120.0
            },
            {
                "start_time": 44.98863636363636,
                "end_time": 45.01590909090909,
                "pitch": 39,
                "velocity": 80,
                "duration": 0.02727272727273089,
                "tempo": 120.0
            },
            {
                "start_time": 45.074999999999996,
                "end_time": 45.11363636363636,
                "pitch": 37,
                "velocity": 80,
                "duration": 0.038636363636364024,
                "tempo": 120.0
            },
            {
                "start_time": 45.17272727272727,
                "end_time": 45.23409090909091,
                "pitch": 34,
                "velocity": 80,
                "duration": 0.0613636363636374,
                "tempo": 120.0
            },
            {
                "start_time": 45.35909090909091,
                "end_time": 45.42045454545455,
                "pitch": 37,
                "velocity": 80,
                "duration": 0.0613636363636374,
                "tempo": 120.0
            },
            {
                "start_time": 45.56363636363636,
                "end_time": 45.61590909090909,
                "pitch": 39,
                "velocity": 80,
                "duration": 0.05227272727272947,
                "tempo": 120.0
            },
            {
                "start_time": 45.74545454545454,
                "end_time": 45.79545454545455,
                "pitch": 39,
                "velocity": 80,
                "duration": 0.05000000000000426,
                "tempo": 120.0
            },
            {
                "start_time": 45.94772727272727,
                "end_time": 45.99772727272727,
                "pitch": 40,
                "velocity": 80,
                "duration": 0.04999999999999716,
                "tempo": 120.0
            },
            {
                "start_time": 46.13181818181818,
                "end_time": 46.40909090909091,
                "pitch": 42,
                "velocity": 80,
                "duration": 0.2772727272727238,
                "tempo": 120.0
            },
            {
                "start_time": 46.52954545454545,
                "end_time": 46.57954545454545,
                "pitch": 42,
                "velocity": 80,
                "duration": 0.05000000000000426,
                "tempo": 120.0
            },
            {
                "start_time": 46.62954545454545,
                "end_time": 46.69090909090909,
                "pitch": 40,
                "velocity": 80,
                "duration": 0.0613636363636374,
                "tempo": 120.0
            },
            {
                "start_time": 46.73181818181818,
                "end_time": 46.81363636363636,
                "pitch": 37,
                "velocity": 80,
                "duration": 0.08181818181818556,
                "tempo": 120.0
            },
            {
                "start_time": 46.91590909090909,
                "end_time": 46.98863636363636,
                "pitch": 40,
                "velocity": 80,
                "duration": 0.07272727272727053,
                "tempo": 120.0
            },
            {
                "start_time": 47.12272727272727,
                "end_time": 47.17272727272727,
                "pitch": 42,
                "velocity": 80,
                "duration": 0.05000000000000426,
                "tempo": 120.0
            },
            {
                "start_time": 47.309090909090905,
                "end_time": 47.34772727272727,
                "pitch": 42,
                "velocity": 80,
                "duration": 0.038636363636364024,
                "tempo": 120.0
            },
            {
                "start_time": 47.39545454545454,
                "end_time": 47.445454545454545,
                "pitch": 40,
                "velocity": 80,
                "duration": 0.05000000000000426,
                "tempo": 120.0
            },
            {
                "start_time": 47.49318181818182,
                "end_time": 47.502272727272725,
                "pitch": 40,
                "velocity": 80,
                "duration": 0.009090909090907928,
                "tempo": 120.0
            },
            {
                "start_time": 47.502272727272725,
                "end_time": 47.56363636363636,
                "pitch": 37,
                "velocity": 80,
                "duration": 0.0613636363636374,
                "tempo": 120.0
            },
            {
                "start_time": 47.668181818181814,
                "end_time": 47.74090909090909,
                "pitch": 40,
                "velocity": 80,
                "duration": 0.07272727272727764,
                "tempo": 120.0
            },
            {
                "start_time": 47.875,
                "end_time": 47.92272727272727,
                "pitch": 42,
                "velocity": 80,
                "duration": 0.04772727272727195,
                "tempo": 120.0
            },
            {
                "start_time": 48.06590909090909,
                "end_time": 48.11363636363636,
                "pitch": 42,
                "velocity": 80,
                "duration": 0.04772727272727195,
                "tempo": 120.0
            },
            {
                "start_time": 48.16136363636363,
                "end_time": 48.24545454545454,
                "pitch": 40,
                "velocity": 80,
                "duration": 0.08409090909091077,
                "tempo": 120.0
            },
            {
                "start_time": 48.24545454545454,
                "end_time": 48.33863636363636,
                "pitch": 37,
                "velocity": 80,
                "duration": 0.0931818181818187,
                "tempo": 120.0
            },
            {
                "start_time": 48.45227272727273,
                "end_time": 48.51363636363636,
                "pitch": 40,
                "velocity": 80,
                "duration": 0.06136363636363029,
                "tempo": 120.0
            },
            {
                "start_time": 48.63636363636363,
                "end_time": 48.68863636363636,
                "pitch": 42,
                "velocity": 80,
                "duration": 0.05227272727272947,
                "tempo": 120.0
            },
            {
                "start_time": 48.83863636363636,
                "end_time": 48.9,
                "pitch": 43,
                "velocity": 80,
                "duration": 0.0613636363636374,
                "tempo": 120.0
            },
            {
                "start_time": 49.02045454545454,
                "end_time": 49.070454545454545,
                "pitch": 43,
                "velocity": 80,
                "duration": 0.05000000000000426,
                "tempo": 120.0
            },
            {
                "start_time": 49.224999999999994,
                "end_time": 49.48181818181818,
                "pitch": 44,
                "velocity": 80,
                "duration": 0.2568181818181827,
                "tempo": 120.0
            },
            {
                "start_time": 49.61363636363636,
                "end_time": 49.70227272727273,
                "pitch": 45,
                "velocity": 80,
                "duration": 0.08863636363636829,
                "tempo": 120.0
            },
            {
                "start_time": 49.70227272727273,
                "end_time": 49.804545454545455,
                "pitch": 43,
                "velocity": 80,
                "duration": 0.10227272727272663,
                "tempo": 120.0
            },
            {
                "start_time": 49.804545454545455,
                "end_time": 49.959090909090904,
                "pitch": 40,
                "velocity": 80,
                "duration": 0.154545454545449,
                "tempo": 120.0
            },
            {
                "start_time": 50.00909090909091,
                "end_time": 50.143181818181816,
                "pitch": 43,
                "velocity": 80,
                "duration": 0.13409090909090793,
                "tempo": 120.0
            },
            {
                "start_time": 50.195454545454545,
                "end_time": 50.31590909090909,
                "pitch": 45,
                "velocity": 80,
                "duration": 0.12045454545454248,
                "tempo": 120.0
            },
            {
                "start_time": 50.39772727272727,
                "end_time": 50.47727272727273,
                "pitch": 45,
                "velocity": 80,
                "duration": 0.07954545454545325,
                "tempo": 120.0
            },
            {
                "start_time": 50.47727272727273,
                "end_time": 50.58863636363636,
                "pitch": 43,
                "velocity": 80,
                "duration": 0.11136363636363455,
                "tempo": 120.0
            },
            {
                "start_time": 50.58863636363636,
                "end_time": 50.69772727272727,
                "pitch": 40,
                "velocity": 80,
                "duration": 0.10909090909090935,
                "tempo": 120.0
            },
            {
                "start_time": 50.768181818181816,
                "end_time": 50.87954545454545,
                "pitch": 43,
                "velocity": 80,
                "duration": 0.11136363636363455,
                "tempo": 120.0
            },
            {
                "start_time": 50.970454545454544,
                "end_time": 51.070454545454545,
                "pitch": 45,
                "velocity": 80,
                "duration": 0.10000000000000142,
                "tempo": 120.0
            },
            {
                "start_time": 51.152272727272724,
                "end_time": 51.252272727272725,
                "pitch": 45,
                "velocity": 80,
                "duration": 0.10000000000000142,
                "tempo": 120.0
            },
            {
                "start_time": 51.252272727272725,
                "end_time": 51.35227272727273,
                "pitch": 43,
                "velocity": 80,
                "duration": 0.10000000000000142,
                "tempo": 120.0
            },
            {
                "start_time": 51.35227272727273,
                "end_time": 51.486363636363635,
                "pitch": 40,
                "velocity": 80,
                "duration": 0.13409090909090793,
                "tempo": 120.0
            },
            {
                "start_time": 51.538636363636364,
                "end_time": 51.69318181818181,
                "pitch": 43,
                "velocity": 80,
                "duration": 0.154545454545449,
                "tempo": 120.0
            },
            {
                "start_time": 51.75454545454545,
                "end_time": 51.81590909090909,
                "pitch": 45,
                "velocity": 80,
                "duration": 0.0613636363636374,
                "tempo": 120.0
            },
            {
                "start_time": 51.93636363636363,
                "end_time": 52.03636363636363,
                "pitch": 45,
                "velocity": 80,
                "duration": 0.10000000000000142,
                "tempo": 120.0
            },
            {
                "start_time": 52.13636363636363,
                "end_time": 52.21818181818182,
                "pitch": 46,
                "velocity": 80,
                "duration": 0.08181818181818556,
                "tempo": 120.0
            },
            {
                "start_time": 52.32272727272727,
                "end_time": 52.65454545454545,
                "pitch": 35,
                "velocity": 80,
                "duration": 0.33181818181817846,
                "tempo": 120.0
            },
            {
                "start_time": 52.70454545454545,
                "end_time": 52.90909090909091,
                "pitch": 36,
                "velocity": 80,
                "duration": 0.20454545454545325,
                "tempo": 120.0
            },
            {
                "start_time": 52.90909090909091,
                "end_time": 53.02045454545454,
                "pitch": 31,
                "velocity": 80,
                "duration": 0.11136363636363455,
                "tempo": 120.0
            },
            {
                "start_time": 53.090909090909086,
                "end_time": 53.199999999999996,
                "pitch": 34,
                "velocity": 80,
                "duration": 0.10909090909090935,
                "tempo": 120.0
            },
            {
                "start_time": 53.27045454545454,
                "end_time": 53.36818181818182,
                "pitch": 34,
                "velocity": 80,
                "duration": 0.09772727272727622,
                "tempo": 120.0
            },
            {
                "start_time": 53.465909090909086,
                "end_time": 53.543181818181814,
                "pitch": 36,
                "velocity": 80,
                "duration": 0.07727272727272805,
                "tempo": 120.0
            },
            {
                "start_time": 53.56363636363636,
                "end_time": 53.652272727272724,
                "pitch": 36,
                "velocity": 80,
                "duration": 0.08863636363636118,
                "tempo": 120.0
            },
            {
                "start_time": 53.652272727272724,
                "end_time": 53.81136363636363,
                "pitch": 31,
                "velocity": 80,
                "duration": 0.1590909090909065,
                "tempo": 120.0
            },
            {
                "start_time": 53.85227272727273,
                "end_time": 53.96363636363636,
                "pitch": 34,
                "velocity": 80,
                "duration": 0.11136363636363455,
                "tempo": 120.0
            },
            {
                "start_time": 54.03409090909091,
                "end_time": 54.13636363636363,
                "pitch": 38,
                "velocity": 80,
                "duration": 0.10227272727272663,
                "tempo": 120.0
            },
            {
                "start_time": 54.23863636363636,
                "end_time": 54.32272727272727,
                "pitch": 38,
                "velocity": 80,
                "duration": 0.08409090909091077,
                "tempo": 120.0
            },
            {
                "start_time": 54.32272727272727,
                "end_time": 54.425,
                "pitch": 36,
                "velocity": 80,
                "duration": 0.10227272727272663,
                "tempo": 120.0
            },
            {
                "start_time": 54.425,
                "end_time": 54.599999999999994,
                "pitch": 33,
                "velocity": 80,
                "duration": 0.17499999999999716,
                "tempo": 120.0
            },
            {
                "start_time": 54.631818181818176,
                "end_time": 54.76590909090909,
                "pitch": 36,
                "velocity": 80,
                "duration": 0.13409090909091503,
                "tempo": 120.0
            },
            {
                "start_time": 54.82727272727273,
                "end_time": 54.918181818181814,
                "pitch": 40,
                "velocity": 80,
                "duration": 0.09090909090908639,
                "tempo": 120.0
            },
            {
                "start_time": 55.018181818181816,
                "end_time": 55.10909090909091,
                "pitch": 40,
                "velocity": 80,
                "duration": 0.09090909090909349,
                "tempo": 120.0
            },
            {
                "start_time": 55.10909090909091,
                "end_time": 55.209090909090904,
                "pitch": 38,
                "velocity": 80,
                "duration": 0.09999999999999432,
                "tempo": 120.0
            },
            {
                "start_time": 55.209090909090904,
                "end_time": 55.41590909090909,
                "pitch": 35,
                "velocity": 80,
                "duration": 0.20681818181818556,
                "tempo": 120.0
            },
            {
                "start_time": 55.60227272727273,
                "end_time": 55.65,
                "pitch": 35,
                "velocity": 80,
                "duration": 0.04772727272727195,
                "tempo": 120.0
            },
            {
                "start_time": 55.777272727272724,
                "end_time": 55.82727272727273,
                "pitch": 48,
                "velocity": 80,
                "duration": 0.05000000000000426,
                "tempo": 120.0
            },
            {
                "start_time": 55.97272727272727,
                "end_time": 56.07272727272727,
                "pitch": 36,
                "velocity": 80,
                "duration": 0.10000000000000142,
                "tempo": 120.0
            },
            {
                "start_time": 56.163636363636364,
                "end_time": 56.22272727272727,
                "pitch": 48,
                "velocity": 80,
                "duration": 0.059090909090905086,
                "tempo": 120.0
            },
            {
                "start_time": 56.36363636363636,
                "end_time": 56.425,
                "pitch": 39,
                "velocity": 80,
                "duration": 0.0613636363636374,
                "tempo": 120.0
            },
            {
                "start_time": 56.52954545454545,
                "end_time": 56.60227272727273,
                "pitch": 51,
                "velocity": 80,
                "duration": 0.07272727272727764,
                "tempo": 120.0
            },
            {
                "start_time": 56.756818181818176,
                "end_time": 56.82727272727273,
                "pitch": 39,
                "velocity": 80,
                "duration": 0.07045454545455243,
                "tempo": 120.0
            },
            {
                "start_time": 56.93863636363636,
                "end_time": 56.98863636363636,
                "pitch": 51,
                "velocity": 80,
                "duration": 0.04999999999999716,
                "tempo": 120.0
            },
            {
                "start_time": 57.13863636363636,
                "end_time": 57.209090909090904,
                "pitch": 32,
                "velocity": 80,
                "duration": 0.07045454545454533,
                "tempo": 120.0
            },
            {
                "start_time": 57.32954545454545,
                "end_time": 57.37954545454545,
                "pitch": 44,
                "velocity": 80,
                "duration": 0.04999999999999716,
                "tempo": 120.0
            },
            {
                "start_time": 57.53181818181818,
                "end_time": 57.56136363636363,
                "pitch": 32,
                "velocity": 80,
                "duration": 0.02954545454544899,
                "tempo": 120.0
            },
            {
                "start_time": 57.695454545454545,
                "end_time": 57.74772727272727,
                "pitch": 44,
                "velocity": 80,
                "duration": 0.052272727272722364,
                "tempo": 120.0
            },
            {
                "start_time": 57.92272727272727,
                "end_time": 57.95227272727272,
                "pitch": 32,
                "velocity": 80,
                "duration": 0.02954545454544899,
                "tempo": 120.0
            },
            {
                "start_time": 58.09772727272727,
                "end_time": 58.14772727272727,
                "pitch": 46,
                "velocity": 80,
                "duration": 0.05000000000000426,
                "tempo": 120.0
            },
            {
                "start_time": 58.28409090909091,
                "end_time": 58.334090909090904,
                "pitch": 34,
                "velocity": 80,
                "duration": 0.04999999999999716,
                "tempo": 120.0
            },
            {
                "start_time": 58.48409090909091,
                "end_time": 58.53409090909091,
                "pitch": 46,
                "velocity": 80,
                "duration": 0.04999999999999716,
                "tempo": 120.0
            },
            {
                "start_time": 58.66590909090909,
                "end_time": 58.715909090909086,
                "pitch": 34,
                "velocity": 80,
                "duration": 0.04999999999999716,
                "tempo": 120.0
            },
            {
                "start_time": 58.865909090909085,
                "end_time": 58.91590909090909,
                "pitch": 48,
                "velocity": 80,
                "duration": 0.05000000000000426,
                "tempo": 120.0
            },
            {
                "start_time": 59.04772727272727,
                "end_time": 59.11818181818182,
                "pitch": 36,
                "velocity": 80,
                "duration": 0.07045454545454533,
                "tempo": 120.0
            },
            {
                "start_time": 59.24772727272727,
                "end_time": 59.29772727272727,
                "pitch": 48,
                "velocity": 80,
                "duration": 0.05000000000000426,
                "tempo": 120.0
            },
            {
                "start_time": 59.43863636363636,
                "end_time": 59.490909090909085,
                "pitch": 39,
                "velocity": 80,
                "duration": 0.052272727272722364,
                "tempo": 120.0
            },
            {
                "start_time": 59.64545454545454,
                "end_time": 59.69772727272727,
                "pitch": 51,
                "velocity": 80,
                "duration": 0.05227272727272947,
                "tempo": 120.0
            },
            {
                "start_time": 59.83181818181818,
                "end_time": 59.881818181818176,
                "pitch": 39,
                "velocity": 80,
                "duration": 0.04999999999999716,
                "tempo": 120.0
            },
            {
                "start_time": 60.03181818181818,
                "end_time": 60.08181818181818,
                "pitch": 51,
                "velocity": 80,
                "duration": 0.04999999999999716,
                "tempo": 120.0
            },
            {
                "start_time": 60.21363636363636,
                "end_time": 60.26363636363636,
                "pitch": 32,
                "velocity": 80,
                "duration": 0.04999999999999716,
                "tempo": 120.0
            },
            {
                "start_time": 60.413636363636364,
                "end_time": 60.45454545454545,
                "pitch": 44,
                "velocity": 80,
                "duration": 0.04090909090908923,
                "tempo": 120.0
            },
            {
                "start_time": 60.60681818181818,
                "end_time": 60.65681818181818,
                "pitch": 32,
                "velocity": 80,
                "duration": 0.05000000000000426,
                "tempo": 120.0
            },
            {
                "start_time": 60.78636363636363,
                "end_time": 60.836363636363636,
                "pitch": 44,
                "velocity": 80,
                "duration": 0.05000000000000426,
                "tempo": 120.0
            },
            {
                "start_time": 60.98863636363636,
                "end_time": 61.038636363636364,
                "pitch": 32,
                "velocity": 80,
                "duration": 0.05000000000000426,
                "tempo": 120.0
            }
        ]
    }
}