{
    "track_id": "03 Cold Amoeba",
    "mood": "angry",
    "instruments": {
        "Acoustic Bass": [
            {
                "start_time": 0.03636363636363636,
                "end_time": 0.23409090909090907,
                "pitch": 33,
                "velocity": 80,
                "duration": 0.1977272727272727,
                "tempo": 120.0
            },
            {
                "start_time": 0.23409090909090907,
                "end_time": 0.4340909090909091,
                "pitch": 33,
                "velocity": 80,
                "duration": 0.2,
                "tempo": 120.0
            },
            {
                "start_time": 0.4340909090909091,
                "end_time": 0.634090909090909,
                "pitch": 33,
                "velocity": 80,
                "duration": 0.19999999999999996,
                "tempo": 120.0
            },
            {
                "start_time": 0.634090909090909,
                "end_time": 0.8340909090909091,
                "pitch": 33,
                "velocity": 80,
                "duration": 0.20000000000000007,
                "tempo": 120.0
            },
            {
                "start_time": 0.8340909090909091,
                "end_time": 1.034090909090909,
                "pitch": 33,
                "velocity": 80,
                "duration": 0.19999999999999984,
                "tempo": 120.0
            },
            {
                "start_time": 1.034090909090909,
                "end_time": 1.2363636363636363,
                "pitch": 33,
                "velocity": 80,
                "duration": 0.20227272727272738,
                "tempo": 120.0
            },
            {
                "start_time": 1.2363636363636363,
                "end_time": 1.434090909090909,
                "pitch": 33,
                "velocity": 80,
                "duration": 0.19772727272727275,
                "tempo": 120.0
            },
            {
                "start_time": 1.4363636363636363,
                "end_time": 1.634090909090909,
                "pitch": 33,
                "velocity": 80,
                "duration": 0.19772727272727275,
                "tempo": 120.0
            },
            {
                "start_time": 1.6363636363636362,
                "end_time": 1.8363636363636362,
                "pitch": 33,
                "velocity": 80,
                "duration": 0.19999999999999996,
                "tempo": 120.0
            },
            {
                "start_time": 1.8363636363636362,
                "end_time": 2.036363636363636,
                "pitch": 33,
                "velocity": 80,
                "duration": 0.19999999999999996,
                "tempo": 120.0
            },
            {
                "start_time": 2.036363636363636,
                "end_time": 2.2363636363636363,
                "pitch": 33,
                "velocity": 80,
                "duration": 0.20000000000000018,
                "tempo": 120.0
            },
            {
                "start_time": 2.2363636363636363,
                "end_time": 2.436363636363636,
                "pitch": 33,
                "velocity": 80,
                "duration": 0.19999999999999973,
                "tempo": 120.0
            },
            {
                "start_time": 2.4386363636363635,
                "end_time": 2.6386363636363637,
                "pitch": 31,
                "velocity": 80,
                "duration": 0.20000000000000018,
                "tempo": 120.0
            },
            {
                "start_time": 2.6386363636363637,
                "end_time": 2.8386363636363634,
                "pitch": 31,
                "velocity": 80,
                "duration": 0.19999999999999973,
                "tempo": 120.0
            },
            {
                "start_time": 2.840909090909091,
                "end_time": 3.0386363636363636,
                "pitch": 31,
                "velocity": 80,
                "duration": 0.19772727272727275,
                "tempo": 120.0
            },
            {
                "start_time": 3.0409090909090906,
                "end_time": 3.2409090909090907,
                "pitch": 31,
                "velocity": 80,
                "duration": 0.20000000000000018,
                "tempo": 120.0
            },
            {
                "start_time": 3.2409090909090907,
                "end_time": 3.4454545454545453,
                "pitch": 31,
                "velocity": 80,
                "duration": 0.20454545454545459,
                "tempo": 120.0
            },
            {
                "start_time": 3.4477272727272728,
                "end_time": 3.652272727272727,
                "pitch": 31,
                "velocity": 80,
                "duration": 0.20454545454545414,
                "tempo": 120.0
            },
            {
                "start_time": 3.652272727272727,
                "end_time": 3.8477272727272727,
                "pitch": 31,
                "velocity": 80,
                "duration": 0.19545454545454577,
                "tempo": 120.0
            },
            {
                "start_time": 3.8477272727272727,
                "end_time": 4.043181818181818,
                "pitch": 31,
                "velocity": 80,
                "duration": 0.19545454545454533,
                "tempo": 120.0
            },
            {
                "start_time": 4.045454545454545,
                "end_time": 4.245454545454545,
                "pitch": 31,
                "velocity": 80,
                "duration": 0.20000000000000018,
                "tempo": 120.0
            },
            {
                "start_time": 4.245454545454545,
                "end_time": 4.447727272727272,
                "pitch": 31,
                "velocity": 80,
                "duration": 0.20227272727272716,
                "tempo": 120.0
            },
            {
                "start_time": 4.447727272727272,
                "end_time": 4.652272727272727,
                "pitch": 31,
                "velocity": 80,
                "duration": 0.20454545454545503,
                "tempo": 120.0
            },
            {
                "start_time": 4.654545454545454,
                "end_time": 4.8590909090909085,
                "pitch": 31,
                "velocity": 80,
                "duration": 0.20454545454545414,
                "tempo": 120.0
            },
            {
                "start_time": 4.8590909090909085,
                "end_time": 5.059090909090909,
                "pitch": 29,
                "velocity": 80,
                "duration": 0.20000000000000018,
                "tempo": 120.0
            },
            {
                "start_time": 5.059090909090909,
                "end_time": 5.259090909090909,
                "pitch": 29,
                "velocity": 80,
                "duration": 0.20000000000000018,
                "tempo": 120.0
            },
            {
                "start_time": 5.259090909090909,
                "end_time": 5.454545454545454,
                "pitch": 29,
                "velocity": 80,
                "duration": 0.19545454545454533,
                "tempo": 120.0
            },
            {
                "start_time": 5.456818181818181,
                "end_time": 5.652272727272727,
                "pitch": 29,
                "velocity": 80,
                "duration": 0.1954545454545462,
                "tempo": 120.0
            },
            {
                "start_time": 5.652272727272727,
                "end_time": 5.8568181818181815,
                "pitch": 29,
                "velocity": 80,
                "duration": 0.20454545454545414,
                "tempo": 120.0
            },
            {
                "start_time": 5.8590909090909085,
                "end_time": 6.0636363636363635,
                "pitch": 29,
                "velocity": 80,
                "duration": 0.20454545454545503,
                "tempo": 120.0
            },
            {
                "start_time": 6.0636363636363635,
                "end_time": 6.263636363636364,
                "pitch": 29,
                "velocity": 80,
                "duration": 0.20000000000000018,
                "tempo": 120.0
            },
            {
                "start_time": 6.265909090909091,
                "end_time": 6.465909090909091,
                "pitch": 29,
                "velocity": 80,
                "duration": 0.20000000000000018,
                "tempo": 120.0
            },
            {
                "start_time": 6.465909090909091,
                "end_time": 6.668181818181818,
                "pitch": 29,
                "velocity": 80,
                "duration": 0.20227272727272716,
                "tempo": 120.0
            },
            {
                "start_time": 6.668181818181818,
                "end_time": 6.868181818181818,
                "pitch": 29,
                "velocity": 80,
                "duration": 0.20000000000000018,
                "tempo": 120.0
            },
            {
                "start_time": 6.870454545454545,
                "end_time": 7.070454545454545,
                "pitch": 29,
                "velocity": 80,
                "duration": 0.20000000000000018,
                "tempo": 120.0
            },
            {
                "start_time": 7.070454545454545,
                "end_time": 7.2704545454545455,
                "pitch": 29,
                "velocity": 80,
                "duration": 0.20000000000000018,
                "tempo": 120.0
            },
            {
                "start_time": 7.2704545454545455,
                "end_time": 7.470454545454545,
                "pitch": 28,
                "velocity": 80,
                "duration": 0.1999999999999993,
                "tempo": 120.0
            },
            {
                "start_time": 7.472727272727273,
                "end_time": 7.672727272727272,
                "pitch": 28,
                "velocity": 80,
                "duration": 0.1999999999999993,
                "tempo": 120.0
            },
            {
                "start_time": 7.672727272727272,
                "end_time": 7.872727272727272,
                "pitch": 28,
                "velocity": 80,
                "duration": 0.20000000000000018,
                "tempo": 120.0
            },
            {
                "start_time": 7.875,
                "end_time": 8.072727272727272,
                "pitch": 28,
                "velocity": 80,
                "duration": 0.1977272727272723,
                "tempo": 120.0
            },
            {
                "start_time": 8.075,
                "end_time": 8.275,
                "pitch": 28,
                "velocity": 80,
                "duration": 0.20000000000000107,
                "tempo": 120.0
            },
            {
                "start_time": 8.275,
                "end_time": 8.475,
                "pitch": 28,
                "velocity": 80,
                "duration": 0.1999999999999993,
                "tempo": 120.0
            },
            {
                "start_time": 8.475,
                "end_time": 8.674999999999999,
                "pitch": 28,
                "velocity": 80,
                "duration": 0.1999999999999993,
                "tempo": 120.0
            },
            {
                "start_time": 8.677272727272728,
                "end_time": 8.877272727272727,
                "pitch": 28,
                "velocity": 80,
                "duration": 0.1999999999999993,
                "tempo": 120.0
            },
            {
                "start_time": 8.877272727272727,
                "end_time": 9.079545454545453,
                "pitch": 28,
                "velocity": 80,
                "duration": 0.20227272727272627,
                "tempo": 120.0
            },
            {
                "start_time": 9.079545454545453,
                "end_time": 9.281818181818181,
                "pitch": 28,
                "velocity": 80,
                "duration": 0.20227272727272805,
                "tempo": 120.0
            },
            {
                "start_time": 9.281818181818181,
                "end_time": 9.48181818181818,
                "pitch": 28,
                "velocity": 80,
                "duration": 0.1999999999999993,
                "tempo": 120.0
            },
            {
                "start_time": 9.48409090909091,
                "end_time": 9.684090909090909,
                "pitch": 28,
                "velocity": 80,
                "duration": 0.1999999999999993,
                "tempo": 120.0
            },
            {
                "start_time": 9.686363636363636,
                "end_time": 9.884090909090908,
                "pitch": 33,
                "velocity": 80,
                "duration": 0.1977272727272723,
                "tempo": 120.0
            },
            {
                "start_time": 9.886363636363637,
                "end_time": 10.086363636363636,
                "pitch": 33,
                "velocity": 80,
                "duration": 0.1999999999999993,
                "tempo": 120.0
            },
            {
                "start_time": 10.088636363636363,
                "end_time": 10.286363636363635,
                "pitch": 33,
                "velocity": 80,
                "duration": 0.1977272727272723,
                "tempo": 120.0
            },
            {
                "start_time": 10.288636363636364,
                "end_time": 10.486363636363636,
                "pitch": 33,
                "velocity": 80,
                "duration": 0.1977272727272723,
                "tempo": 120.0
            },
            {
                "start_time": 10.488636363636363,
                "end_time": 10.688636363636363,
                "pitch": 33,
                "velocity": 80,
                "duration": 0.1999999999999993,
                "tempo": 120.0
            },
            {
                "start_time": 10.69090909090909,
                "end_time": 10.89090909090909,
                "pitch": 33,
                "velocity": 80,
                "duration": 0.20000000000000107,
                "tempo": 120.0
            },
            {
                "start_time": 10.893181818181818,
                "end_time": 11.093181818181817,
                "pitch": 33,
                "velocity": 80,
                "duration": 0.1999999999999993,
                "tempo": 120.0
            },
            {
                "start_time": 11.093181818181817,
                "end_time": 11.293181818181818,
                "pitch": 33,
                "velocity": 80,
                "duration": 0.20000000000000107,
                "tempo": 120.0
            },
            {
                "start_time": 11.295454545454545,
                "end_time": 11.495454545454544,
                "pitch": 33,
                "velocity": 80,
                "duration": 0.1999999999999993,
                "tempo": 120.0
            },
            {
                "start_time": 11.495454545454544,
                "end_time": 11.697727272727272,
                "pitch": 33,
                "velocity": 80,
                "duration": 0.20227272727272805,
                "tempo": 120.0
            },
            {
                "start_time": 11.697727272727272,
                "end_time": 11.897727272727272,
                "pitch": 33,
                "velocity": 80,
                "duration": 0.1999999999999993,
                "tempo": 120.0
            },
            {
                "start_time": 11.899999999999999,
                "end_time": 12.1,
                "pitch": 33,
                "velocity": 80,
                "duration": 0.20000000000000107,
                "tempo": 120.0
            },
            {
                "start_time": 12.102272727272727,
                "end_time": 12.306818181818182,
                "pitch": 31,
                "velocity": 80,
                "duration": 0.20454545454545503,
                "tempo": 120.0
            },
            {
                "start_time": 12.306818181818182,
                "end_time": 12.511363636363635,
                "pitch": 31,
                "velocity": 80,
                "duration": 0.20454545454545325,
                "tempo": 120.0
            },
            {
                "start_time": 12.511363636363635,
                "end_time": 12.711363636363636,
                "pitch": 31,
                "velocity": 80,
                "duration": 0.20000000000000107,
                "tempo": 120.0
            },
            {
                "start_time": 12.713636363636363,
                "end_time": 12.911363636363635,
                "pitch": 31,
                "velocity": 80,
                "duration": 0.1977272727272723,
                "tempo": 120.0
            },
            {
                "start_time": 12.913636363636362,
                "end_time": 13.113636363636363,
                "pitch": 31,
                "velocity": 80,
                "duration": 0.20000000000000107,
                "tempo": 120.0
            },
            {
                "start_time": 13.11590909090909,
                "end_time": 13.31590909090909,
                "pitch": 31,
                "velocity": 80,
                "duration": 0.1999999999999993,
                "tempo": 120.0
            },
            {
                "start_time": 13.31590909090909,
                "end_time": 13.51590909090909,
                "pitch": 31,
                "velocity": 80,
                "duration": 0.20000000000000107,
                "tempo": 120.0
            },
            {
                "start_time": 13.518181818181818,
                "end_time": 13.718181818181817,
                "pitch": 31,
                "velocity": 80,
                "duration": 0.1999999999999993,
                "tempo": 120.0
            },
            {
                "start_time": 13.720454545454544,
                "end_time": 13.920454545454545,
                "pitch": 31,
                "velocity": 80,
                "duration": 0.20000000000000107,
                "tempo": 120.0
            },
            {
                "start_time": 13.920454545454545,
                "end_time": 14.122727272727271,
                "pitch": 31,
                "velocity": 80,
                "duration": 0.20227272727272627,
                "tempo": 120.0
            },
            {
                "start_time": 14.122727272727271,
                "end_time": 14.325,
                "pitch": 31,
                "velocity": 80,
                "duration": 0.20227272727272805,
                "tempo": 120.0
            },
            {
                "start_time": 14.325,
                "end_time": 14.524999999999999,
                "pitch": 31,
                "velocity": 80,
                "duration": 0.1999999999999993,
                "tempo": 120.0
            },
            {
                "start_time": 14.527272727272727,
                "end_time": 14.725,
                "pitch": 29,
                "velocity": 80,
                "duration": 0.1977272727272723,
                "tempo": 120.0
            },
            {
                "start_time": 14.725,
                "end_time": 14.924999999999999,
                "pitch": 29,
                "velocity": 80,
                "duration": 0.1999999999999993,
                "tempo": 120.0
            },
            {
                "start_time": 14.927272727272726,
                "end_time": 15.127272727272727,
                "pitch": 29,
                "velocity": 80,
                "duration": 0.20000000000000107,
                "tempo": 120.0
            },
            {
                "start_time": 15.127272727272727,
                "end_time": 15.329545454545453,
                "pitch": 29,
                "velocity": 80,
                "duration": 0.20227272727272627,
                "tempo": 120.0
            },
            {
                "start_time": 15.329545454545453,
                "end_time": 15.529545454545454,
                "pitch": 29,
                "velocity": 80,
                "duration": 0.20000000000000107,
                "tempo": 120.0
            },
            {
                "start_time": 15.531818181818181,
                "end_time": 15.73181818181818,
                "pitch": 29,
                "velocity": 80,
                "duration": 0.1999999999999993,
                "tempo": 120.0
            },
            {
                "start_time": 15.734090909090908,
                "end_time": 15.934090909090909,
                "pitch": 29,
                "velocity": 80,
                "duration": 0.20000000000000107,
                "tempo": 120.0
            },
            {
                "start_time": 15.934090909090909,
                "end_time": 16.134090909090908,
                "pitch": 29,
                "velocity": 80,
                "duration": 0.1999999999999993,
                "tempo": 120.0
            },
            {
                "start_time": 16.136363636363637,
                "end_time": 16.336363636363636,
                "pitch": 29,
                "velocity": 80,
                "duration": 0.1999999999999993,
                "tempo": 120.0
            },
            {
                "start_time": 16.33863636363636,
                "end_time": 16.538636363636364,
                "pitch": 29,
                "velocity": 80,
                "duration": 0.20000000000000284,
                "tempo": 120.0
            },
            {
                "start_time": 16.538636363636364,
                "end_time": 16.738636363636363,
                "pitch": 29,
                "velocity": 80,
                "duration": 0.1999999999999993,
                "tempo": 120.0
            },
            {
                "start_time": 16.738636363636363,
                "end_time": 16.938636363636363,
                "pitch": 29,
                "velocity": 80,
                "duration": 0.1999999999999993,
                "tempo": 120.0
            },
            {
                "start_time": 16.94090909090909,
                "end_time": 17.14090909090909,
                "pitch": 28,
                "velocity": 80,
                "duration": 0.1999999999999993,
                "tempo": 120.0
            },
            {
                "start_time": 17.14090909090909,
                "end_time": 17.34090909090909,
                "pitch": 28,
                "velocity": 80,
                "duration": 0.1999999999999993,
                "tempo": 120.0
            },
            {
                "start_time": 17.34318181818182,
                "end_time": 17.543181818181818,
                "pitch": 28,
                "velocity": 80,
                "duration": 0.1999999999999993,
                "tempo": 120.0
            },
            {
                "start_time": 17.543181818181818,
                "end_time": 17.743181818181817,
                "pitch": 28,
                "velocity": 80,
                "duration": 0.1999999999999993,
                "tempo": 120.0
            },
            {
                "start_time": 17.743181818181817,
                "end_time": 17.943181818181817,
                "pitch": 28,
                "velocity": 80,
                "duration": 0.1999999999999993,
                "tempo": 120.0
            },
            {
                "start_time": 17.943181818181817,
                "end_time": 18.143181818181816,
                "pitch": 28,
                "velocity": 80,
                "duration": 0.1999999999999993,
                "tempo": 120.0
            },
            {
                "start_time": 18.143181818181816,
                "end_time": 18.345454545454544,
                "pitch": 28,
                "velocity": 80,
                "duration": 0.20227272727272805,
                "tempo": 120.0
            },
            {
                "start_time": 18.345454545454544,
                "end_time": 18.545454545454543,
                "pitch": 28,
                "velocity": 80,
                "duration": 0.1999999999999993,
                "tempo": 120.0
            },
            {
                "start_time": 18.547727272727272,
                "end_time": 18.74772727272727,
                "pitch": 28,
                "velocity": 80,
                "duration": 0.1999999999999993,
                "tempo": 120.0
            },
            {
                "start_time": 18.74772727272727,
                "end_time": 18.94772727272727,
                "pitch": 28,
                "velocity": 80,
                "duration": 0.1999999999999993,
                "tempo": 120.0
            },
            {
                "start_time": 18.94772727272727,
                "end_time": 19.152272727272727,
                "pitch": 28,
                "velocity": 80,
                "duration": 0.2045454545454568,
                "tempo": 120.0
            },
            {
                "start_time": 19.154545454545453,
                "end_time": 19.35909090909091,
                "pitch": 28,
                "velocity": 80,
                "duration": 0.2045454545454568,
                "tempo": 120.0
            },
            {
                "start_time": 19.361363636363635,
                "end_time": 19.55909090909091,
                "pitch": 26,
                "velocity": 80,
                "duration": 0.19772727272727408,
                "tempo": 120.0
            },
            {
                "start_time": 19.561363636363634,
                "end_time": 19.761363636363637,
                "pitch": 26,
                "velocity": 80,
                "duration": 0.20000000000000284,
                "tempo": 120.0
            },
            {
                "start_time": 19.761363636363637,
                "end_time": 19.956818181818182,
                "pitch": 26,
                "velocity": 80,
                "duration": 0.19545454545454533,
                "tempo": 120.0
            },
            {
                "start_time": 19.959090909090907,
                "end_time": 20.154545454545453,
                "pitch": 26,
                "velocity": 80,
                "duration": 0.19545454545454533,
                "tempo": 120.0
            },
            {
                "start_time": 20.154545454545453,
                "end_time": 20.35909090909091,
                "pitch": 26,
                "velocity": 80,
                "duration": 0.2045454545454568,
                "tempo": 120.0
            },
            {
                "start_time": 20.361363636363635,
                "end_time": 20.56590909090909,
                "pitch": 26,
                "velocity": 80,
                "duration": 0.2045454545454568,
                "tempo": 120.0
            },
            {
                "start_time": 20.56590909090909,
                "end_time": 20.76590909090909,
                "pitch": 26,
                "velocity": 80,
                "duration": 0.1999999999999993,
                "tempo": 120.0
            },
            {
                "start_time": 20.768181818181816,
                "end_time": 20.96818181818182,
                "pitch": 26,
                "velocity": 80,
                "duration": 0.20000000000000284,
                "tempo": 120.0
            },
            {
                "start_time": 20.96818181818182,
                "end_time": 21.168181818181818,
                "pitch": 26,
                "velocity": 80,
                "duration": 0.1999999999999993,
                "tempo": 120.0
            },
            {
                "start_time": 21.170454545454543,
                "end_time": 21.370454545454546,
                "pitch": 26,
                "velocity": 80,
                "duration": 0.20000000000000284,
                "tempo": 120.0
            },
            {
                "start_time": 21.370454545454546,
                "end_time": 21.570454545454545,
                "pitch": 26,
                "velocity": 80,
                "duration": 0.1999999999999993,
                "tempo": 120.0
            },
            {
                "start_time": 21.57272727272727,
                "end_time": 21.772727272727273,
                "pitch": 26,
                "velocity": 80,
                "duration": 0.20000000000000284,
                "tempo": 120.0
            },
            {
                "start_time": 21.775,
                "end_time": 21.972727272727273,
                "pitch": 28,
                "velocity": 80,
                "duration": 0.19772727272727408,
                "tempo": 120.0
            },
            {
                "start_time": 21.972727272727273,
                "end_time": 22.172727272727272,
                "pitch": 28,
                "velocity": 80,
                "duration": 0.1999999999999993,
                "tempo": 120.0
            },
            {
                "start_time": 22.172727272727272,
                "end_time": 22.37272727272727,
                "pitch": 28,
                "velocity": 80,
                "duration": 0.1999999999999993,
                "tempo": 120.0
            },
            {
                "start_time": 22.37272727272727,
                "end_time": 22.57272727272727,
                "pitch": 28,
                "velocity": 80,
                "duration": 0.1999999999999993,
                "tempo": 120.0
            },
            {
                "start_time": 22.575,
                "end_time": 22.775,
                "pitch": 28,
                "velocity": 80,
                "duration": 0.1999999999999993,
                "tempo": 120.0
            },
            {
                "start_time": 22.775,
                "end_time": 22.977272727272727,
                "pitch": 28,
                "velocity": 80,
                "duration": 0.20227272727272805,
                "tempo": 120.0
            },
            {
                "start_time": 22.977272727272727,
                "end_time": 23.177272727272726,
                "pitch": 28,
                "velocity": 80,
                "duration": 0.1999999999999993,
                "tempo": 120.0
            },
            {
                "start_time": 23.177272727272726,
                "end_time": 23.377272727272725,
                "pitch": 28,
                "velocity": 80,
                "duration": 0.1999999999999993,
                "tempo": 120.0
            },
            {
                "start_time": 23.377272727272725,
                "end_time": 23.579545454545453,
                "pitch": 28,
                "velocity": 80,
                "duration": 0.20227272727272805,
                "tempo": 120.0
            },
            {
                "start_time": 23.579545454545453,
                "end_time": 23.78181818181818,
                "pitch": 28,
                "velocity": 80,
                "duration": 0.20227272727272805,
                "tempo": 120.0
            },
            {
                "start_time": 23.78181818181818,
                "end_time": 23.98181818181818,
                "pitch": 28,
                "velocity": 80,
                "duration": 0.1999999999999993,
                "tempo": 120.0
            },
            {
                "start_time": 23.98181818181818,
                "end_time": 24.18181818181818,
                "pitch": 28,
                "velocity": 80,
                "duration": 0.1999999999999993,
                "tempo": 120.0
            },
            {
                "start_time": 24.18181818181818,
                "end_time": 24.38181818181818,
                "pitch": 33,
                "velocity": 80,
                "duration": 0.1999999999999993,
                "tempo": 120.0
            },
            {
                "start_time": 24.38181818181818,
                "end_time": 24.581818181818182,
                "pitch": 33,
                "velocity": 80,
                "duration": 0.20000000000000284,
                "tempo": 120.0
            },
            {
                "start_time": 24.581818181818182,
                "end_time": 24.78181818181818,
                "pitch": 33,
                "velocity": 80,
                "duration": 0.1999999999999993,
                "tempo": 120.0
            },
            {
                "start_time": 24.784090909090907,
                "end_time": 24.98409090909091,
                "pitch": 33,
                "velocity": 80,
                "duration": 0.20000000000000284,
                "tempo": 120.0
            },
            {
                "start_time": 24.986363636363635,
                "end_time": 25.18409090909091,
                "pitch": 33,
                "velocity": 80,
                "duration": 0.19772727272727408,
                "tempo": 120.0
            },
            {
                "start_time": 25.186363636363634,
                "end_time": 25.386363636363637,
                "pitch": 33,
                "velocity": 80,
                "duration": 0.20000000000000284,
                "tempo": 120.0
            },
            {
                "start_time": 25.386363636363637,
                "end_time": 25.586363636363636,
                "pitch": 33,
                "velocity": 80,
                "duration": 0.1999999999999993,
                "tempo": 120.0
            },
            {
                "start_time": 25.586363636363636,
                "end_time": 25.788636363636364,
                "pitch": 33,
                "velocity": 80,
                "duration": 0.20227272727272805,
                "tempo": 120.0
            },
            {
                "start_time": 25.788636363636364,
                "end_time": 25.988636363636363,
                "pitch": 33,
                "velocity": 80,
                "duration": 0.1999999999999993,
                "tempo": 120.0
            },
            {
                "start_time": 25.988636363636363,
                "end_time": 26.188636363636363,
                "pitch": 33,
                "velocity": 80,
                "duration": 0.1999999999999993,
                "tempo": 120.0
            },
            {
                "start_time": 26.19090909090909,
                "end_time": 26.388636363636362,
                "pitch": 33,
                "velocity": 80,
                "duration": 0.19772727272727053,
                "tempo": 120.0
            },
            {
                "start_time": 26.39090909090909,
                "end_time": 26.59090909090909,
                "pitch": 33,
                "velocity": 80,
                "duration": 0.1999999999999993,
                "tempo": 120.0
            },
            {
                "start_time": 26.59090909090909,
                "end_time": 26.795454545454543,
                "pitch": 29,
                "velocity": 80,
                "duration": 0.20454545454545325,
                "tempo": 120.0
            },
            {
                "start_time": 26.795454545454543,
                "end_time": 27.0,
                "pitch": 29,
                "velocity": 80,
                "duration": 0.2045454545454568,
                "tempo": 120.0
            },
            {
                "start_time": 27.0,
                "end_time": 27.19772727272727,
                "pitch": 29,
                "velocity": 80,
                "duration": 0.19772727272727053,
                "tempo": 120.0
            },
            {
                "start_time": 27.19772727272727,
                "end_time": 27.393181818181816,
                "pitch": 29,
                "velocity": 80,
                "duration": 0.19545454545454533,
                "tempo": 120.0
            },
            {
                "start_time": 27.393181818181816,
                "end_time": 27.597727272727273,
                "pitch": 29,
                "velocity": 80,
                "duration": 0.2045454545454568,
                "tempo": 120.0
            },
            {
                "start_time": 27.599999999999998,
                "end_time": 27.804545454545455,
                "pitch": 29,
                "velocity": 80,
                "duration": 0.2045454545454568,
                "tempo": 120.0
            },
            {
                "start_time": 27.80681818181818,
                "end_time": 28.00681818181818,
                "pitch": 29,
                "velocity": 80,
                "duration": 0.1999999999999993,
                "tempo": 120.0
            },
            {
                "start_time": 28.00681818181818,
                "end_time": 28.206818181818182,
                "pitch": 29,
                "velocity": 80,
                "duration": 0.20000000000000284,
                "tempo": 120.0
            },
            {
                "start_time": 28.209090909090907,
                "end_time": 28.40681818181818,
                "pitch": 29,
                "velocity": 80,
                "duration": 0.19772727272727408,
                "tempo": 120.0
            },
            {
                "start_time": 28.409090909090907,
                "end_time": 28.60909090909091,
                "pitch": 29,
                "velocity": 80,
                "duration": 0.20000000000000284,
                "tempo": 120.0
            },
            {
                "start_time": 28.60909090909091,
                "end_time": 28.80909090909091,
                "pitch": 29,
                "velocity": 80,
                "duration": 0.1999999999999993,
                "tempo": 120.0
            },
            {
                "start_time": 28.80909090909091,
                "end_time": 29.009090909090908,
                "pitch": 29,
                "velocity": 80,
                "duration": 0.1999999999999993,
                "tempo": 120.0
            },
            {
                "start_time": 29.011363636363637,
                "end_time": 29.209090909090907,
                "pitch": 31,
                "velocity": 80,
                "duration": 0.19772727272727053,
                "tempo": 120.0
            },
            {
                "start_time": 29.211363636363636,
                "end_time": 29.411363636363635,
                "pitch": 31,
                "velocity": 80,
                "duration": 0.1999999999999993,
                "tempo": 120.0
            },
            {
                "start_time": 29.41363636363636,
                "end_time": 29.611363636363635,
                "pitch": 31,
                "velocity": 80,
                "duration": 0.19772727272727408,
                "tempo": 120.0
            },
            {
                "start_time": 29.613636363636363,
                "end_time": 29.811363636363634,
                "pitch": 31,
                "velocity": 80,
                "duration": 0.19772727272727053,
                "tempo": 120.0
            },
            {
                "start_time": 29.813636363636363,
                "end_time": 30.013636363636362,
                "pitch": 31,
                "velocity": 80,
                "duration": 0.1999999999999993,
                "tempo": 120.0
            },
            {
                "start_time": 30.013636363636362,
                "end_time": 30.21590909090909,
                "pitch": 31,
                "velocity": 80,
                "duration": 0.20227272727272805,
                "tempo": 120.0
            },
            {
                "start_time": 30.218181818181815,
                "end_time": 30.41590909090909,
                "pitch": 31,
                "velocity": 80,
                "duration": 0.19772727272727408,
                "tempo": 120.0
            },
            {
                "start_time": 30.41590909090909,
                "end_time": 30.61590909090909,
                "pitch": 31,
                "velocity": 80,
                "duration": 0.1999999999999993,
                "tempo": 120.0
            },
            {
                "start_time": 30.61590909090909,
                "end_time": 30.815909090909088,
                "pitch": 31,
                "velocity": 80,
                "duration": 0.1999999999999993,
                "tempo": 120.0
            },
            {
                "start_time": 30.818181818181817,
                "end_time": 31.01590909090909,
                "pitch": 31,
                "velocity": 80,
                "duration": 0.19772727272727408,
                "tempo": 120.0
            },
            {
                "start_time": 31.018181818181816,
                "end_time": 31.218181818181815,
                "pitch": 31,
                "velocity": 80,
                "duration": 0.1999999999999993,
                "tempo": 120.0
            },
            {
                "start_time": 31.218181818181815,
                "end_time": 31.420454545454543,
                "pitch": 31,
                "velocity": 80,
                "duration": 0.20227272727272805,
                "tempo": 120.0
            },
            {
                "start_time": 31.420454545454543,
                "end_time": 31.620454545454542,
                "pitch": 26,
                "velocity": 80,
                "duration": 0.1999999999999993,
                "tempo": 120.0
            },
            {
                "start_time": 31.620454545454542,
                "end_time": 31.820454545454545,
                "pitch": 26,
                "velocity": 80,
                "duration": 0.20000000000000284,
                "tempo": 120.0
            },
            {
                "start_time": 31.820454545454545,
                "end_time": 32.02272727272727,
                "pitch": 26,
                "velocity": 80,
                "duration": 0.20227272727272805,
                "tempo": 120.0
            },
            {
                "start_time": 32.02272727272727,
                "end_time": 32.22272727272727,
                "pitch": 26,
                "velocity": 80,
                "duration": 0.19999999999999574,
                "tempo": 120.0
            },
            {
                "start_time": 32.225,
                "end_time": 32.42272727272727,
                "pitch": 26,
                "velocity": 80,
                "duration": 0.19772727272727053,
                "tempo": 120.0
            },
            {
                "start_time": 32.425,
                "end_time": 32.625,
                "pitch": 26,
                "velocity": 80,
                "duration": 0.20000000000000284,
                "tempo": 120.0
            },
            {
                "start_time": 32.625,
                "end_time": 32.824999999999996,
                "pitch": 26,
                "velocity": 80,
                "duration": 0.19999999999999574,
                "tempo": 120.0
            },
            {
                "start_time": 32.824999999999996,
                "end_time": 33.025,
                "pitch": 26,
                "velocity": 80,
                "duration": 0.20000000000000284,
                "tempo": 120.0
            },
            {
                "start_time": 33.025,
                "end_time": 33.225,
                "pitch": 26,
                "velocity": 80,
                "duration": 0.20000000000000284,
                "tempo": 120.0
            },
            {
                "start_time": 33.22727272727273,
                "end_time": 33.425,
                "pitch": 26,
                "velocity": 80,
                "duration": 0.19772727272727053,
                "tempo": 120.0
            },
            {
                "start_time": 33.425,
                "end_time": 33.627272727272725,
                "pitch": 26,
                "velocity": 80,
                "duration": 0.20227272727272805,
                "tempo": 120.0
            },
            {
                "start_time": 33.627272727272725,
                "end_time": 33.82954545454545,
                "pitch": 26,
                "velocity": 80,
                "duration": 0.20227272727272805,
                "tempo": 120.0
            },
            {
                "start_time": 33.82954545454545,
                "end_time": 34.027272727272724,
                "pitch": 28,
                "velocity": 80,
                "duration": 0.19772727272727053,
                "tempo": 120.0
            },
            {
                "start_time": 34.029545454545456,
                "end_time": 34.22954545454545,
                "pitch": 28,
                "velocity": 80,
                "duration": 0.19999999999999574,
                "tempo": 120.0
            },
            {
                "start_time": 34.22954545454545,
                "end_time": 34.429545454545455,
                "pitch": 28,
                "velocity": 80,
                "duration": 0.20000000000000284,
                "tempo": 120.0
            },
            {
                "start_time": 34.429545454545455,
                "end_time": 34.62954545454545,
                "pitch": 28,
                "velocity": 80,
                "duration": 0.19999999999999574,
                "tempo": 120.0
            },
            {
                "start_time": 34.62954545454545,
                "end_time": 34.82954545454545,
                "pitch": 28,
                "velocity": 80,
                "duration": 0.20000000000000284,
                "tempo": 120.0
            },
            {
                "start_time": 34.82954545454545,
                "end_time": 35.029545454545456,
                "pitch": 28,
                "velocity": 80,
                "duration": 0.20000000000000284,
                "tempo": 120.0
            },
            {
                "start_time": 35.03181818181818,
                "end_time": 35.22954545454545,
                "pitch": 28,
                "velocity": 80,
                "duration": 0.19772727272727053,
                "tempo": 120.0
            },
            {
                "start_time": 35.23181818181818,
                "end_time": 35.429545454545455,
                "pitch": 28,
                "velocity": 80,
                "duration": 0.19772727272727764,
                "tempo": 120.0
            },
            {
                "start_time": 35.43181818181818,
                "end_time": 35.63181818181818,
                "pitch": 28,
                "velocity": 80,
                "duration": 0.20000000000000284,
                "tempo": 120.0
            },
            {
                "start_time": 35.63181818181818,
                "end_time": 35.83409090909091,
                "pitch": 28,
                "velocity": 80,
                "duration": 0.20227272727272805,
                "tempo": 120.0
            },
            {
                "start_time": 35.83409090909091,
                "end_time": 36.038636363636364,
                "pitch": 26,
                "velocity": 80,
                "duration": 0.20454545454545325,
                "tempo": 120.0
            },
            {
                "start_time": 36.04090909090909,
                "end_time": 36.24545454545454,
                "pitch": 26,
                "velocity": 80,
                "duration": 0.20454545454545325,
                "tempo": 120.0
            },
            {
                "start_time": 36.24772727272727,
                "end_time": 36.445454545454545,
                "pitch": 40,
                "velocity": 80,
                "duration": 0.19772727272727764,
                "tempo": 120.0
            },
            {
                "start_time": 36.445454545454545,
                "end_time": 36.64545454545454,
                "pitch": 40,
                "velocity": 80,
                "duration": 0.19999999999999574,
                "tempo": 120.0
            },
            {
                "start_time": 36.64545454545454,
                "end_time": 36.845454545454544,
                "pitch": 40,
                "velocity": 80,
                "duration": 0.20000000000000284,
                "tempo": 120.0
            },
            {
                "start_time": 36.84772727272727,
                "end_time": 37.04545454545455,
                "pitch": 40,
                "velocity": 80,
                "duration": 0.19772727272727764,
                "tempo": 120.0
            },
            {
                "start_time": 37.04772727272727,
                "end_time": 37.24772727272727,
                "pitch": 40,
                "velocity": 80,
                "duration": 0.19999999999999574,
                "tempo": 120.0
            },
            {
                "start_time": 37.24772727272727,
                "end_time": 37.449999999999996,
                "pitch": 40,
                "velocity": 80,
                "duration": 0.20227272727272805,
                "tempo": 120.0
            },
            {
                "start_time": 37.449999999999996,
                "end_time": 37.65,
                "pitch": 40,
                "velocity": 80,
                "duration": 0.20000000000000284,
                "tempo": 120.0
            },
            {
                "start_time": 37.65,
                "end_time": 37.85,
                "pitch": 40,
                "velocity": 80,
                "duration": 0.20000000000000284,
                "tempo": 120.0
            },
            {
                "start_time": 37.85,
                "end_time": 38.05,
                "pitch": 40,
                "velocity": 80,
                "duration": 0.19999999999999574,
                "tempo": 120.0
            },
            {
                "start_time": 38.05,
                "end_time": 38.25,
                "pitch": 40,
                "velocity": 80,
                "duration": 0.20000000000000284,
                "tempo": 120.0
            },
            {
                "start_time": 38.252272727272725,
                "end_time": 38.449999999999996,
                "pitch": 38,
                "velocity": 80,
                "duration": 0.19772727272727053,
                "tempo": 120.0
            },
            {
                "start_time": 38.45227272727273,
                "end_time": 38.65,
                "pitch": 38,
                "velocity": 80,
                "duration": 0.19772727272727053,
                "tempo": 120.0
            }
        ],
        "Vibraphone": [
            {
                "start_time": 0.03409090909090909,
                "end_time": 0.1318181818181818,
                "pitch": 69,
                "velocity": 80,
                "duration": 0.09772727272727272,
                "tempo": 120.0
            },
            {
                "start_time": 0.1340909090909091,
                "end_time": 0.2318181818181818,
                "pitch": 76,
                "velocity": 80,
                "duration": 0.09772727272727272,
                "tempo": 120.0
            },
            {
                "start_time": 0.23409090909090907,
                "end_time": 0.3318181818181818,
                "pitch": 74,
                "velocity": 80,
                "duration": 0.09772727272727272,
                "tempo": 120.0
            },
            {
                "start_time": 0.33409090909090905,
                "end_time": 0.4318181818181818,
                "pitch": 76,
                "velocity": 80,
                "duration": 0.09772727272727277,
                "tempo": 120.0
            },
            {
                "start_time": 0.4340909090909091,
                "end_time": 0.5318181818181817,
                "pitch": 72,
                "velocity": 80,
                "duration": 0.09772727272727266,
                "tempo": 120.0
            },
            {
                "start_time": 0.5340909090909091,
                "end_time": 0.6318181818181818,
                "pitch": 76,
                "velocity": 80,
                "duration": 0.09772727272727277,
                "tempo": 120.0
            },
            {
                "start_time": 0.634090909090909,
                "end_time": 0.7318181818181818,
                "pitch": 71,
                "velocity": 80,
                "duration": 0.09772727272727277,
                "tempo": 120.0
            },
            {
                "start_time": 0.734090909090909,
                "end_time": 0.8340909090909091,
                "pitch": 76,
                "velocity": 80,
                "duration": 0.10000000000000009,
                "tempo": 120.0
            },
            {
                "start_time": 0.8340909090909091,
                "end_time": 0.9340909090909091,
                "pitch": 69,
                "velocity": 80,
                "duration": 0.09999999999999998,
                "tempo": 120.0
            },
            {
                "start_time": 0.9340909090909091,
                "end_time": 1.034090909090909,
                "pitch": 76,
                "velocity": 80,
                "duration": 0.09999999999999987,
                "tempo": 120.0
            },
            {
                "start_time": 1.034090909090909,
                "end_time": 1.134090909090909,
                "pitch": 67,
                "velocity": 80,
                "duration": 0.10000000000000009,
                "tempo": 120.0
            },
            {
                "start_time": 1.134090909090909,
                "end_time": 1.2340909090909091,
                "pitch": 76,
                "velocity": 80,
                "duration": 0.10000000000000009,
                "tempo": 120.0
            },
            {
                "start_time": 1.2363636363636363,
                "end_time": 1.334090909090909,
                "pitch": 69,
                "velocity": 80,
                "duration": 0.09772727272727266,
                "tempo": 120.0
            },
            {
                "start_time": 1.334090909090909,
                "end_time": 1.434090909090909,
                "pitch": 76,
                "velocity": 80,
                "duration": 0.10000000000000009,
                "tempo": 120.0
            },
            {
                "start_time": 1.434090909090909,
                "end_time": 1.534090909090909,
                "pitch": 74,
                "velocity": 80,
                "duration": 0.09999999999999987,
                "tempo": 120.0
            },
            {
                "start_time": 1.534090909090909,
                "end_time": 1.634090909090909,
                "pitch": 76,
                "velocity": 80,
                "duration": 0.10000000000000009,
                "tempo": 120.0
            },
            {
                "start_time": 1.634090909090909,
                "end_time": 1.734090909090909,
                "pitch": 72,
                "velocity": 80,
                "duration": 0.09999999999999987,
                "tempo": 120.0
            },
            {
                "start_time": 1.734090909090909,
                "end_time": 1.834090909090909,
                "pitch": 76,
                "velocity": 80,
                "duration": 0.10000000000000009,
                "tempo": 120.0
            },
            {
                "start_time": 1.834090909090909,
                "end_time": 1.934090909090909,
                "pitch": 71,
                "velocity": 80,
                "duration": 0.10000000000000009,
                "tempo": 120.0
            },
            {
                "start_time": 1.9363636363636363,
                "end_time": 2.034090909090909,
                "pitch": 76,
                "velocity": 80,
                "duration": 0.09772727272727288,
                "tempo": 120.0
            },
            {
                "start_time": 2.036363636363636,
                "end_time": 2.134090909090909,
                "pitch": 69,
                "velocity": 80,
                "duration": 0.09772727272727266,
                "tempo": 120.0
            },
            {
                "start_time": 2.1363636363636362,
                "end_time": 2.234090909090909,
                "pitch": 76,
                "velocity": 80,
                "duration": 0.09772727272727266,
                "tempo": 120.0
            },
            {
                "start_time": 2.2363636363636363,
                "end_time": 2.334090909090909,
                "pitch": 67,
                "velocity": 80,
                "duration": 0.09772727272727266,
                "tempo": 120.0
            },
            {
                "start_time": 2.3363636363636364,
                "end_time": 2.436363636363636,
                "pitch": 76,
                "velocity": 80,
                "duration": 0.09999999999999964,
                "tempo": 120.0
            },
            {
                "start_time": 2.436363636363636,
                "end_time": 2.536363636363636,
                "pitch": 67,
                "velocity": 80,
                "duration": 0.10000000000000009,
                "tempo": 120.0
            },
            {
                "start_time": 2.536363636363636,
                "end_time": 2.6363636363636362,
                "pitch": 76,
                "velocity": 80,
                "duration": 0.10000000000000009,
                "tempo": 120.0
            },
            {
                "start_time": 2.6386363636363637,
                "end_time": 2.7363636363636363,
                "pitch": 74,
                "velocity": 80,
                "duration": 0.09772727272727266,
                "tempo": 120.0
            },
            {
                "start_time": 2.7386363636363633,
                "end_time": 2.8386363636363634,
                "pitch": 76,
                "velocity": 80,
                "duration": 0.10000000000000009,
                "tempo": 120.0
            },
            {
                "start_time": 2.8386363636363634,
                "end_time": 2.9386363636363635,
                "pitch": 72,
                "velocity": 80,
                "duration": 0.10000000000000009,
                "tempo": 120.0
            },
            {
                "start_time": 2.9386363636363635,
                "end_time": 3.0386363636363636,
                "pitch": 76,
                "velocity": 80,
                "duration": 0.10000000000000009,
                "tempo": 120.0
            },
            {
                "start_time": 3.0386363636363636,
                "end_time": 3.1386363636363637,
                "pitch": 71,
                "velocity": 80,
                "duration": 0.10000000000000009,
                "tempo": 120.0
            },
            {
                "start_time": 3.1386363636363637,
                "end_time": 3.2386363636363633,
                "pitch": 76,
                "velocity": 80,
                "duration": 0.09999999999999964,
                "tempo": 120.0
            },
            {
                "start_time": 3.2386363636363633,
                "end_time": 3.340909090909091,
                "pitch": 69,
                "velocity": 80,
                "duration": 0.10227272727272751,
                "tempo": 120.0
            },
            {
                "start_time": 3.343181818181818,
                "end_time": 3.4454545454545453,
                "pitch": 76,
                "velocity": 80,
                "duration": 0.10227272727272751,
                "tempo": 120.0
            },
            {
                "start_time": 3.4454545454545453,
                "end_time": 3.5477272727272724,
                "pitch": 67,
                "velocity": 80,
                "duration": 0.10227272727272707,
                "tempo": 120.0
            },
            {
                "start_time": 3.5477272727272724,
                "end_time": 3.65,
                "pitch": 76,
                "velocity": 80,
                "duration": 0.10227272727272751,
                "tempo": 120.0
            },
            {
                "start_time": 3.65,
                "end_time": 3.7477272727272726,
                "pitch": 67,
                "velocity": 80,
                "duration": 0.09772727272727266,
                "tempo": 120.0
            },
            {
                "start_time": 3.75,
                "end_time": 3.8454545454545452,
                "pitch": 76,
                "velocity": 80,
                "duration": 0.09545454545454524,
                "tempo": 120.0
            },
            {
                "start_time": 3.8477272727272727,
                "end_time": 3.9454545454545453,
                "pitch": 74,
                "velocity": 80,
                "duration": 0.09772727272727266,
                "tempo": 120.0
            },
            {
                "start_time": 3.9454545454545453,
                "end_time": 4.043181818181818,
                "pitch": 76,
                "velocity": 80,
                "duration": 0.09772727272727266,
                "tempo": 120.0
            },
            {
                "start_time": 4.043181818181818,
                "end_time": 4.143181818181818,
                "pitch": 72,
                "velocity": 80,
                "duration": 0.09999999999999964,
                "tempo": 120.0
            },
            {
                "start_time": 4.1454545454545455,
                "end_time": 4.243181818181818,
                "pitch": 76,
                "velocity": 80,
                "duration": 0.09772727272727266,
                "tempo": 120.0
            },
            {
                "start_time": 4.245454545454545,
                "end_time": 4.345454545454546,
                "pitch": 71,
                "velocity": 80,
                "duration": 0.10000000000000053,
                "tempo": 120.0
            },
            {
                "start_time": 4.345454545454546,
                "end_time": 4.445454545454545,
                "pitch": 76,
                "velocity": 80,
                "duration": 0.09999999999999964,
                "tempo": 120.0
            },
            {
                "start_time": 4.447727272727272,
                "end_time": 4.547727272727273,
                "pitch": 69,
                "velocity": 80,
                "duration": 0.10000000000000053,
                "tempo": 120.0
            },
            {
                "start_time": 4.55,
                "end_time": 4.652272727272727,
                "pitch": 76,
                "velocity": 80,
                "duration": 0.10227272727272751,
                "tempo": 120.0
            },
            {
                "start_time": 4.652272727272727,
                "end_time": 4.754545454545454,
                "pitch": 67,
                "velocity": 80,
                "duration": 0.10227272727272663,
                "tempo": 120.0
            },
            {
                "start_time": 4.754545454545454,
                "end_time": 4.8590909090909085,
                "pitch": 76,
                "velocity": 80,
                "duration": 0.1045454545454545,
                "tempo": 120.0
            },
            {
                "start_time": 4.8590909090909085,
                "end_time": 4.956818181818182,
                "pitch": 65,
                "velocity": 80,
                "duration": 0.09772727272727355,
                "tempo": 120.0
            },
            {
                "start_time": 4.959090909090909,
                "end_time": 5.056818181818182,
                "pitch": 76,
                "velocity": 80,
                "duration": 0.09772727272727266,
                "tempo": 120.0
            },
            {
                "start_time": 5.059090909090909,
                "end_time": 5.156818181818181,
                "pitch": 74,
                "velocity": 80,
                "duration": 0.09772727272727266,
                "tempo": 120.0
            },
            {
                "start_time": 5.159090909090909,
                "end_time": 5.256818181818182,
                "pitch": 76,
                "velocity": 80,
                "duration": 0.09772727272727266,
                "tempo": 120.0
            },
            {
                "start_time": 5.259090909090909,
                "end_time": 5.3568181818181815,
                "pitch": 72,
                "velocity": 80,
                "duration": 0.09772727272727266,
                "tempo": 120.0
            },
            {
                "start_time": 5.3568181818181815,
                "end_time": 5.454545454545454,
                "pitch": 76,
                "velocity": 80,
                "duration": 0.09772727272727266,
                "tempo": 120.0
            },
            {
                "start_time": 5.454545454545454,
                "end_time": 5.552272727272727,
                "pitch": 71,
                "velocity": 80,
                "duration": 0.09772727272727266,
                "tempo": 120.0
            },
            {
                "start_time": 5.552272727272727,
                "end_time": 5.6499999999999995,
                "pitch": 76,
                "velocity": 80,
                "duration": 0.09772727272727266,
                "tempo": 120.0
            },
            {
                "start_time": 5.652272727272727,
                "end_time": 5.752272727272727,
                "pitch": 69,
                "velocity": 80,
                "duration": 0.09999999999999964,
                "tempo": 120.0
            },
            {
                "start_time": 5.754545454545454,
                "end_time": 5.8568181818181815,
                "pitch": 76,
                "velocity": 80,
                "duration": 0.10227272727272751,
                "tempo": 120.0
            },
            {
                "start_time": 5.8568181818181815,
                "end_time": 5.959090909090909,
                "pitch": 67,
                "velocity": 80,
                "duration": 0.10227272727272751,
                "tempo": 120.0
            },
            {
                "start_time": 5.959090909090909,
                "end_time": 6.0636363636363635,
                "pitch": 76,
                "velocity": 80,
                "duration": 0.1045454545454545,
                "tempo": 120.0
            },
            {
                "start_time": 6.0636363636363635,
                "end_time": 6.163636363636363,
                "pitch": 65,
                "velocity": 80,
                "duration": 0.09999999999999964,
                "tempo": 120.0
            },
            {
                "start_time": 6.163636363636363,
                "end_time": 6.263636363636364,
                "pitch": 76,
                "velocity": 80,
                "duration": 0.10000000000000053,
                "tempo": 120.0
            },
            {
                "start_time": 6.263636363636364,
                "end_time": 6.363636363636363,
                "pitch": 74,
                "velocity": 80,
                "duration": 0.09999999999999964,
                "tempo": 120.0
            },
            {
                "start_time": 6.36590909090909,
                "end_time": 6.465909090909091,
                "pitch": 76,
                "velocity": 80,
                "duration": 0.10000000000000053,
                "tempo": 120.0
            },
            {
                "start_time": 6.465909090909091,
                "end_time": 6.5659090909090905,
                "pitch": 72,
                "velocity": 80,
                "duration": 0.09999999999999964,
                "tempo": 120.0
            },
            {
                "start_time": 6.5659090909090905,
                "end_time": 6.665909090909091,
                "pitch": 76,
                "velocity": 80,
                "duration": 0.10000000000000053,
                "tempo": 120.0
            },
            {
                "start_time": 6.668181818181818,
                "end_time": 6.768181818181818,
                "pitch": 71,
                "velocity": 80,
                "duration": 0.09999999999999964,
                "tempo": 120.0
            },
            {
                "start_time": 6.768181818181818,
                "end_time": 6.868181818181818,
                "pitch": 76,
                "velocity": 80,
                "duration": 0.10000000000000053,
                "tempo": 120.0
            },
            {
                "start_time": 6.868181818181818,
                "end_time": 6.968181818181818,
                "pitch": 69,
                "velocity": 80,
                "duration": 0.09999999999999964,
                "tempo": 120.0
            },
            {
                "start_time": 6.968181818181818,
                "end_time": 7.0681818181818175,
                "pitch": 76,
                "velocity": 80,
                "duration": 0.09999999999999964,
                "tempo": 120.0
            },
            {
                "start_time": 7.070454545454545,
                "end_time": 7.168181818181818,
                "pitch": 67,
                "velocity": 80,
                "duration": 0.09772727272727266,
                "tempo": 120.0
            },
            {
                "start_time": 7.170454545454545,
                "end_time": 7.2704545454545455,
                "pitch": 76,
                "velocity": 80,
                "duration": 0.10000000000000053,
                "tempo": 120.0
            },
            {
                "start_time": 7.2704545454545455,
                "end_time": 7.370454545454545,
                "pitch": 64,
                "velocity": 80,
                "duration": 0.09999999999999964,
                "tempo": 120.0
            },
            {
                "start_time": 7.370454545454545,
                "end_time": 7.470454545454545,
                "pitch": 76,
                "velocity": 80,
                "duration": 0.09999999999999964,
                "tempo": 120.0
            },
            {
                "start_time": 7.470454545454545,
                "end_time": 7.570454545454545,
                "pitch": 74,
                "velocity": 80,
                "duration": 0.10000000000000053,
                "tempo": 120.0
            },
            {
                "start_time": 7.572727272727272,
                "end_time": 7.672727272727272,
                "pitch": 76,
                "velocity": 80,
                "duration": 0.09999999999999964,
                "tempo": 120.0
            },
            {
                "start_time": 7.672727272727272,
                "end_time": 7.7727272727272725,
                "pitch": 72,
                "velocity": 80,
                "duration": 0.10000000000000053,
                "tempo": 120.0
            },
            {
                "start_time": 7.7727272727272725,
                "end_time": 7.872727272727272,
                "pitch": 76,
                "velocity": 80,
                "duration": 0.09999999999999964,
                "tempo": 120.0
            },
            {
                "start_time": 7.872727272727272,
                "end_time": 7.972727272727273,
                "pitch": 71,
                "velocity": 80,
                "duration": 0.10000000000000053,
                "tempo": 120.0
            },
            {
                "start_time": 7.972727272727273,
                "end_time": 8.072727272727272,
                "pitch": 76,
                "velocity": 80,
                "duration": 0.09999999999999964,
                "tempo": 120.0
            },
            {
                "start_time": 8.072727272727272,
                "end_time": 8.172727272727272,
                "pitch": 69,
                "velocity": 80,
                "duration": 0.09999999999999964,
                "tempo": 120.0
            },
            {
                "start_time": 8.172727272727272,
                "end_time": 8.272727272727272,
                "pitch": 76,
                "velocity": 80,
                "duration": 0.09999999999999964,
                "tempo": 120.0
            },
            {
                "start_time": 8.275,
                "end_time": 8.372727272727273,
                "pitch": 68,
                "velocity": 80,
                "duration": 0.09772727272727266,
                "tempo": 120.0
            },
            {
                "start_time": 8.372727272727273,
                "end_time": 8.472727272727273,
                "pitch": 76,
                "velocity": 80,
                "duration": 0.09999999999999964,
                "tempo": 120.0
            },
            {
                "start_time": 8.475,
                "end_time": 8.572727272727272,
                "pitch": 64,
                "velocity": 80,
                "duration": 0.09772727272727266,
                "tempo": 120.0
            },
            {
                "start_time": 8.575,
                "end_time": 8.674999999999999,
                "pitch": 76,
                "velocity": 80,
                "duration": 0.09999999999999964,
                "tempo": 120.0
            },
            {
                "start_time": 8.674999999999999,
                "end_time": 8.775,
                "pitch": 74,
                "velocity": 80,
                "duration": 0.10000000000000142,
                "tempo": 120.0
            },
            {
                "start_time": 8.777272727272727,
                "end_time": 8.877272727272727,
                "pitch": 76,
                "velocity": 80,
                "duration": 0.09999999999999964,
                "tempo": 120.0
            },
            {
                "start_time": 8.877272727272727,
                "end_time": 8.977272727272727,
                "pitch": 72,
                "velocity": 80,
                "duration": 0.09999999999999964,
                "tempo": 120.0
            },
            {
                "start_time": 8.977272727272727,
                "end_time": 9.077272727272726,
                "pitch": 76,
                "velocity": 80,
                "duration": 0.09999999999999964,
                "tempo": 120.0
            },
            {
                "start_time": 9.079545454545453,
                "end_time": 9.179545454545455,
                "pitch": 71,
                "velocity": 80,
                "duration": 0.10000000000000142,
                "tempo": 120.0
            },
            {
                "start_time": 9.179545454545455,
                "end_time": 9.279545454545454,
                "pitch": 76,
                "velocity": 80,
                "duration": 0.09999999999999964,
                "tempo": 120.0
            },
            {
                "start_time": 9.281818181818181,
                "end_time": 9.379545454545454,
                "pitch": 69,
                "velocity": 80,
                "duration": 0.09772727272727266,
                "tempo": 120.0
            },
            {
                "start_time": 9.381818181818181,
                "end_time": 9.48181818181818,
                "pitch": 76,
                "velocity": 80,
                "duration": 0.09999999999999964,
                "tempo": 120.0
            },
            {
                "start_time": 9.48181818181818,
                "end_time": 9.581818181818182,
                "pitch": 68,
                "velocity": 80,
                "duration": 0.10000000000000142,
                "tempo": 120.0
            },
            {
                "start_time": 9.581818181818182,
                "end_time": 9.684090909090909,
                "pitch": 76,
                "velocity": 80,
                "duration": 0.10227272727272663,
                "tempo": 120.0
            },
            {
                "start_time": 9.684090909090909,
                "end_time": 9.784090909090908,
                "pitch": 69,
                "velocity": 80,
                "duration": 0.09999999999999964,
                "tempo": 120.0
            },
            {
                "start_time": 9.784090909090908,
                "end_time": 9.884090909090908,
                "pitch": 76,
                "velocity": 80,
                "duration": 0.09999999999999964,
                "tempo": 120.0
            },
            {
                "start_time": 9.884090909090908,
                "end_time": 9.98409090909091,
                "pitch": 74,
                "velocity": 80,
                "duration": 0.10000000000000142,
                "tempo": 120.0
            },
            {
                "start_time": 9.986363636363636,
                "end_time": 10.086363636363636,
                "pitch": 76,
                "velocity": 80,
                "duration": 0.09999999999999964,
                "tempo": 120.0
            },
            {
                "start_time": 10.086363636363636,
                "end_time": 10.186363636363636,
                "pitch": 72,
                "velocity": 80,
                "duration": 0.09999999999999964,
                "tempo": 120.0
            },
            {
                "start_time": 10.186363636363636,
                "end_time": 10.286363636363635,
                "pitch": 76,
                "velocity": 80,
                "duration": 0.09999999999999964,
                "tempo": 120.0
            },
            {
                "start_time": 10.286363636363635,
                "end_time": 10.386363636363637,
                "pitch": 71,
                "velocity": 80,
                "duration": 0.10000000000000142,
                "tempo": 120.0
            },
            {
                "start_time": 10.386363636363637,
                "end_time": 10.486363636363636,
                "pitch": 76,
                "velocity": 80,
                "duration": 0.09999999999999964,
                "tempo": 120.0
            },
            {
                "start_time": 10.486363636363636,
                "end_time": 10.586363636363636,
                "pitch": 69,
                "velocity": 80,
                "duration": 0.09999999999999964,
                "tempo": 120.0
            },
            {
                "start_time": 10.588636363636363,
                "end_time": 10.688636363636363,
                "pitch": 76,
                "velocity": 80,
                "duration": 0.09999999999999964,
                "tempo": 120.0
            },
            {
                "start_time": 10.688636363636363,
                "end_time": 10.788636363636362,
                "pitch": 67,
                "velocity": 80,
                "duration": 0.09999999999999964,
                "tempo": 120.0
            },
            {
                "start_time": 10.788636363636362,
                "end_time": 10.89090909090909,
                "pitch": 76,
                "velocity": 80,
                "duration": 0.1022727272727284,
                "tempo": 120.0
            },
            {
                "start_time": 10.89090909090909,
                "end_time": 10.99090909090909,
                "pitch": 69,
                "velocity": 80,
                "duration": 0.09999999999999964,
                "tempo": 120.0
            },
            {
                "start_time": 10.99090909090909,
                "end_time": 11.09090909090909,
                "pitch": 76,
                "velocity": 80,
                "duration": 0.09999999999999964,
                "tempo": 120.0
            },
            {
                "start_time": 11.09090909090909,
                "end_time": 11.19090909090909,
                "pitch": 74,
                "velocity": 80,
                "duration": 0.09999999999999964,
                "tempo": 120.0
            },
            {
                "start_time": 11.193181818181818,
                "end_time": 11.293181818181818,
                "pitch": 76,
                "velocity": 80,
                "duration": 0.09999999999999964,
                "tempo": 120.0
            },
            {
                "start_time": 11.293181818181818,
                "end_time": 11.393181818181818,
                "pitch": 72,
                "velocity": 80,
                "duration": 0.09999999999999964,
                "tempo": 120.0
            },
            {
                "start_time": 11.395454545454545,
                "end_time": 11.495454545454544,
                "pitch": 76,
                "velocity": 80,
                "duration": 0.09999999999999964,
                "tempo": 120.0
            },
            {
                "start_time": 11.495454545454544,
                "end_time": 11.595454545454546,
                "pitch": 71,
                "velocity": 80,
                "duration": 0.10000000000000142,
                "tempo": 120.0
            },
            {
                "start_time": 11.595454545454546,
                "end_time": 11.695454545454545,
                "pitch": 76,
                "velocity": 80,
                "duration": 0.09999999999999964,
                "tempo": 120.0
            },
            {
                "start_time": 11.697727272727272,
                "end_time": 11.797727272727272,
                "pitch": 69,
                "velocity": 80,
                "duration": 0.09999999999999964,
                "tempo": 120.0
            },
            {
                "start_time": 11.797727272727272,
                "end_time": 11.897727272727272,
                "pitch": 76,
                "velocity": 80,
                "duration": 0.09999999999999964,
                "tempo": 120.0
            },
            {
                "start_time": 11.897727272727272,
                "end_time": 11.997727272727273,
                "pitch": 67,
                "velocity": 80,
                "duration": 0.10000000000000142,
                "tempo": 120.0
            },
            {
                "start_time": 12.0,
                "end_time": 12.1,
                "pitch": 76,
                "velocity": 80,
                "duration": 0.09999999999999964,
                "tempo": 120.0
            },
            {
                "start_time": 12.1,
                "end_time": 12.202272727272726,
                "pitch": 67,
                "velocity": 80,
                "duration": 0.10227272727272663,
                "tempo": 120.0
            },
            {
                "start_time": 12.202272727272726,
                "end_time": 12.304545454545455,
                "pitch": 76,
                "velocity": 80,
                "duration": 0.1022727272727284,
                "tempo": 120.0
            },
            {
                "start_time": 12.306818181818182,
                "end_time": 12.406818181818181,
                "pitch": 74,
                "velocity": 80,
                "duration": 0.09999999999999964,
                "tempo": 120.0
            },
            {
                "start_time": 12.409090909090908,
                "end_time": 12.511363636363635,
                "pitch": 76,
                "velocity": 80,
                "duration": 0.10227272727272663,
                "tempo": 120.0
            },
            {
                "start_time": 12.511363636363635,
                "end_time": 12.611363636363636,
                "pitch": 72,
                "velocity": 80,
                "duration": 0.10000000000000142,
                "tempo": 120.0
            },
            {
                "start_time": 12.611363636363636,
                "end_time": 12.711363636363636,
                "pitch": 76,
                "velocity": 80,
                "duration": 0.09999999999999964,
                "tempo": 120.0
            },
            {
                "start_time": 12.711363636363636,
                "end_time": 12.811363636363636,
                "pitch": 71,
                "velocity": 80,
                "duration": 0.09999999999999964,
                "tempo": 120.0
            },
            {
                "start_time": 12.811363636363636,
                "end_time": 12.911363636363635,
                "pitch": 76,
                "velocity": 80,
                "duration": 0.09999999999999964,
                "tempo": 120.0
            },
            {
                "start_time": 12.911363636363635,
                "end_time": 13.011363636363635,
                "pitch": 69,
                "velocity": 80,
                "duration": 0.09999999999999964,
                "tempo": 120.0
            },
            {
                "start_time": 13.013636363636364,
                "end_time": 13.113636363636363,
                "pitch": 76,
                "velocity": 80,
                "duration": 0.09999999999999964,
                "tempo": 120.0
            },
            {
                "start_time": 13.113636363636363,
                "end_time": 13.213636363636363,
                "pitch": 67,
                "velocity": 80,
                "duration": 0.09999999999999964,
                "tempo": 120.0
            },
            {
                "start_time": 13.213636363636363,
                "end_time": 13.313636363636363,
                "pitch": 76,
                "velocity": 80,
                "duration": 0.09999999999999964,
                "tempo": 120.0
            },
            {
                "start_time": 13.31590909090909,
                "end_time": 13.415909090909091,
                "pitch": 67,
                "velocity": 80,
                "duration": 0.10000000000000142,
                "tempo": 120.0
            },
            {
                "start_time": 13.415909090909091,
                "end_time": 13.51590909090909,
                "pitch": 76,
                "velocity": 80,
                "duration": 0.09999999999999964,
                "tempo": 120.0
            },
            {
                "start_time": 13.51590909090909,
                "end_time": 13.61590909090909,
                "pitch": 74,
                "velocity": 80,
                "duration": 0.09999999999999964,
                "tempo": 120.0
            },
            {
                "start_time": 13.618181818181817,
                "end_time": 13.718181818181817,
                "pitch": 76,
                "velocity": 80,
                "duration": 0.09999999999999964,
                "tempo": 120.0
            },
            {
                "start_time": 13.718181818181817,
                "end_time": 13.818181818181818,
                "pitch": 72,
                "velocity": 80,
                "duration": 0.10000000000000142,
                "tempo": 120.0
            },
            {
                "start_time": 13.818181818181818,
                "end_time": 13.918181818181818,
                "pitch": 76,
                "velocity": 80,
                "duration": 0.09999999999999964,
                "tempo": 120.0
            },
            {
                "start_time": 13.920454545454545,
                "end_time": 14.020454545454545,
                "pitch": 71,
                "velocity": 80,
                "duration": 0.09999999999999964,
                "tempo": 120.0
            },
            {
                "start_time": 14.020454545454545,
                "end_time": 14.120454545454544,
                "pitch": 76,
                "velocity": 80,
                "duration": 0.09999999999999964,
                "tempo": 120.0
            },
            {
                "start_time": 14.122727272727271,
                "end_time": 14.222727272727273,
                "pitch": 69,
                "velocity": 80,
                "duration": 0.10000000000000142,
                "tempo": 120.0
            },
            {
                "start_time": 14.222727272727273,
                "end_time": 14.322727272727272,
                "pitch": 76,
                "velocity": 80,
                "duration": 0.09999999999999964,
                "tempo": 120.0
            },
            {
                "start_time": 14.322727272727272,
                "end_time": 14.422727272727272,
                "pitch": 67,
                "velocity": 80,
                "duration": 0.09999999999999964,
                "tempo": 120.0
            },
            {
                "start_time": 14.424999999999999,
                "end_time": 14.524999999999999,
                "pitch": 76,
                "velocity": 80,
                "duration": 0.09999999999999964,
                "tempo": 120.0
            },
            {
                "start_time": 14.524999999999999,
                "end_time": 14.625,
                "pitch": 65,
                "velocity": 80,
                "duration": 0.10000000000000142,
                "tempo": 120.0
            },
            {
                "start_time": 14.625,
                "end_time": 14.725,
                "pitch": 76,
                "velocity": 80,
                "duration": 0.09999999999999964,
                "tempo": 120.0
            },
            {
                "start_time": 14.725,
                "end_time": 14.825,
                "pitch": 74,
                "velocity": 80,
                "duration": 0.09999999999999964,
                "tempo": 120.0
            },
            {
                "start_time": 14.825,
                "end_time": 14.924999999999999,
                "pitch": 76,
                "velocity": 80,
                "duration": 0.09999999999999964,
                "tempo": 120.0
            },
            {
                "start_time": 14.924999999999999,
                "end_time": 15.024999999999999,
                "pitch": 72,
                "velocity": 80,
                "duration": 0.09999999999999964,
                "tempo": 120.0
            },
            {
                "start_time": 15.027272727272727,
                "end_time": 15.125,
                "pitch": 76,
                "velocity": 80,
                "duration": 0.09772727272727266,
                "tempo": 120.0
            },
            {
                "start_time": 15.127272727272727,
                "end_time": 15.227272727272727,
                "pitch": 71,
                "velocity": 80,
                "duration": 0.09999999999999964,
                "tempo": 120.0
            },
            {
                "start_time": 15.227272727272727,
                "end_time": 15.327272727272726,
                "pitch": 76,
                "velocity": 80,
                "duration": 0.09999999999999964,
                "tempo": 120.0
            },
            {
                "start_time": 15.329545454545453,
                "end_time": 15.429545454545455,
                "pitch": 69,
                "velocity": 80,
                "duration": 0.10000000000000142,
                "tempo": 120.0
            },
            {
                "start_time": 15.429545454545455,
                "end_time": 15.529545454545454,
                "pitch": 76,
                "velocity": 80,
                "duration": 0.09999999999999964,
                "tempo": 120.0
            },
            {
                "start_time": 15.529545454545454,
                "end_time": 15.629545454545454,
                "pitch": 67,
                "velocity": 80,
                "duration": 0.09999999999999964,
                "tempo": 120.0
            },
            {
                "start_time": 15.631818181818181,
                "end_time": 15.73181818181818,
                "pitch": 76,
                "velocity": 80,
                "duration": 0.09999999999999964,
                "tempo": 120.0
            },
            {
                "start_time": 15.73181818181818,
                "end_time": 15.83181818181818,
                "pitch": 65,
                "velocity": 80,
                "duration": 0.09999999999999964,
                "tempo": 120.0
            },
            {
                "start_time": 15.83181818181818,
                "end_time": 15.931818181818182,
                "pitch": 76,
                "velocity": 80,
                "duration": 0.10000000000000142,
                "tempo": 120.0
            },
            {
                "start_time": 15.934090909090909,
                "end_time": 16.03409090909091,
                "pitch": 74,
                "velocity": 80,
                "duration": 0.10000000000000142,
                "tempo": 120.0
            },
            {
                "start_time": 16.03409090909091,
                "end_time": 16.134090909090908,
                "pitch": 76,
                "velocity": 80,
                "duration": 0.09999999999999787,
                "tempo": 120.0
            },
            {
                "start_time": 16.134090909090908,
                "end_time": 16.23409090909091,
                "pitch": 72,
                "velocity": 80,
                "duration": 0.10000000000000142,
                "tempo": 120.0
            },
            {
                "start_time": 16.236363636363635,
                "end_time": 16.336363636363636,
                "pitch": 76,
                "velocity": 80,
                "duration": 0.10000000000000142,
                "tempo": 120.0
            },
            {
                "start_time": 16.336363636363636,
                "end_time": 16.436363636363634,
                "pitch": 71,
                "velocity": 80,
                "duration": 0.09999999999999787,
                "tempo": 120.0
            },
            {
                "start_time": 16.436363636363634,
                "end_time": 16.536363636363635,
                "pitch": 76,
                "velocity": 80,
                "duration": 0.10000000000000142,
                "tempo": 120.0
            },
            {
                "start_time": 16.538636363636364,
                "end_time": 16.636363636363637,
                "pitch": 69,
                "velocity": 80,
                "duration": 0.09772727272727266,
                "tempo": 120.0
            },
            {
                "start_time": 16.638636363636362,
                "end_time": 16.738636363636363,
                "pitch": 76,
                "velocity": 80,
                "duration": 0.10000000000000142,
                "tempo": 120.0
            },
            {
                "start_time": 16.738636363636363,
                "end_time": 16.83863636363636,
                "pitch": 67,
                "velocity": 80,
                "duration": 0.09999999999999787,
                "tempo": 120.0
            },
            {
                "start_time": 16.83863636363636,
                "end_time": 16.938636363636363,
                "pitch": 76,
                "velocity": 80,
                "duration": 0.10000000000000142,
                "tempo": 120.0
            },
            {
                "start_time": 16.938636363636363,
                "end_time": 17.038636363636364,
                "pitch": 64,
                "velocity": 80,
                "duration": 0.10000000000000142,
                "tempo": 120.0
            },
            {
                "start_time": 17.038636363636364,
                "end_time": 17.138636363636362,
                "pitch": 76,
                "velocity": 80,
                "duration": 0.09999999999999787,
                "tempo": 120.0
            },
            {
                "start_time": 17.14090909090909,
                "end_time": 17.24090909090909,
                "pitch": 74,
                "velocity": 80,
                "duration": 0.09999999999999787,
                "tempo": 120.0
            },
            {
                "start_time": 17.24090909090909,
                "end_time": 17.34090909090909,
                "pitch": 76,
                "velocity": 80,
                "duration": 0.10000000000000142,
                "tempo": 120.0
            },
            {
                "start_time": 17.34090909090909,
                "end_time": 17.44090909090909,
                "pitch": 72,
                "velocity": 80,
                "duration": 0.10000000000000142,
                "tempo": 120.0
            },
            {
                "start_time": 17.44090909090909,
                "end_time": 17.54090909090909,
                "pitch": 76,
                "velocity": 80,
                "duration": 0.09999999999999787,
                "tempo": 120.0
            },
            {
                "start_time": 17.543181818181818,
                "end_time": 17.64090909090909,
                "pitch": 71,
                "velocity": 80,
                "duration": 0.09772727272727266,
                "tempo": 120.0
            },
            {
                "start_time": 17.643181818181816,
                "end_time": 17.74090909090909,
                "pitch": 76,
                "velocity": 80,
                "duration": 0.09772727272727266,
                "tempo": 120.0
            },
            {
                "start_time": 17.743181818181817,
                "end_time": 17.84090909090909,
                "pitch": 69,
                "velocity": 80,
                "duration": 0.09772727272727266,
                "tempo": 120.0
            },
            {
                "start_time": 17.84318181818182,
                "end_time": 17.943181818181817,
                "pitch": 76,
                "velocity": 80,
                "duration": 0.09999999999999787,
                "tempo": 120.0
            },
            {
                "start_time": 17.943181818181817,
                "end_time": 18.04090909090909,
                "pitch": 68,
                "velocity": 80,
                "duration": 0.09772727272727266,
                "tempo": 120.0
            },
            {
                "start_time": 18.043181818181818,
                "end_time": 18.143181818181816,
                "pitch": 76,
                "velocity": 80,
                "duration": 0.09999999999999787,
                "tempo": 120.0
            },
            {
                "start_time": 18.143181818181816,
                "end_time": 18.243181818181817,
                "pitch": 64,
                "velocity": 80,
                "duration": 0.10000000000000142,
                "tempo": 120.0
            },
            {
                "start_time": 18.243181818181817,
                "end_time": 18.34318181818182,
                "pitch": 76,
                "velocity": 80,
                "duration": 0.10000000000000142,
                "tempo": 120.0
            },
            {
                "start_time": 18.345454545454544,
                "end_time": 18.445454545454545,
                "pitch": 74,
                "velocity": 80,
                "duration": 0.10000000000000142,
                "tempo": 120.0
            },
            {
                "start_time": 18.445454545454545,
                "end_time": 18.545454545454543,
                "pitch": 76,
                "velocity": 80,
                "duration": 0.09999999999999787,
                "tempo": 120.0
            },
            {
                "start_time": 18.545454545454543,
                "end_time": 18.645454545454545,
                "pitch": 72,
                "velocity": 80,
                "duration": 0.10000000000000142,
                "tempo": 120.0
            },
            {
                "start_time": 18.645454545454545,
                "end_time": 18.745454545454546,
                "pitch": 76,
                "velocity": 80,
                "duration": 0.10000000000000142,
                "tempo": 120.0
            },
            {
                "start_time": 18.74772727272727,
                "end_time": 18.845454545454544,
                "pitch": 71,
                "velocity": 80,
                "duration": 0.09772727272727266,
                "tempo": 120.0
            },
            {
                "start_time": 18.845454545454544,
                "end_time": 18.945454545454545,
                "pitch": 76,
                "velocity": 80,
                "duration": 0.10000000000000142,
                "tempo": 120.0
            },
            {
                "start_time": 18.94772727272727,
                "end_time": 19.047727272727272,
                "pitch": 69,
                "velocity": 80,
                "duration": 0.10000000000000142,
                "tempo": 120.0
            },
            {
                "start_time": 19.05,
                "end_time": 19.152272727272727,
                "pitch": 76,
                "velocity": 80,
                "duration": 0.10227272727272663,
                "tempo": 120.0
            },
            {
                "start_time": 19.152272727272727,
                "end_time": 19.254545454545454,
                "pitch": 68,
                "velocity": 80,
                "duration": 0.10227272727272663,
                "tempo": 120.0
            },
            {
                "start_time": 19.254545454545454,
                "end_time": 19.35909090909091,
                "pitch": 76,
                "velocity": 80,
                "duration": 0.10454545454545539,
                "tempo": 120.0
            },
            {
                "start_time": 19.35909090909091,
                "end_time": 19.459090909090907,
                "pitch": 74,
                "velocity": 80,
                "duration": 0.09999999999999787,
                "tempo": 120.0
            },
            {
                "start_time": 19.459090909090907,
                "end_time": 19.55909090909091,
                "pitch": 76,
                "velocity": 80,
                "duration": 0.10000000000000142,
                "tempo": 120.0
            },
            {
                "start_time": 19.55909090909091,
                "end_time": 19.659090909090907,
                "pitch": 74,
                "velocity": 80,
                "duration": 0.09999999999999787,
                "tempo": 120.0
            },
            {
                "start_time": 19.661363636363635,
                "end_time": 19.761363636363637,
                "pitch": 76,
                "velocity": 80,
                "duration": 0.10000000000000142,
                "tempo": 120.0
            },
            {
                "start_time": 19.761363636363637,
                "end_time": 19.85909090909091,
                "pitch": 72,
                "velocity": 80,
                "duration": 0.09772727272727266,
                "tempo": 120.0
            },
            {
                "start_time": 19.85909090909091,
                "end_time": 19.956818181818182,
                "pitch": 76,
                "velocity": 80,
                "duration": 0.09772727272727266,
                "tempo": 120.0
            },
            {
                "start_time": 19.956818181818182,
                "end_time": 20.054545454545455,
                "pitch": 71,
                "velocity": 80,
                "duration": 0.09772727272727266,
                "tempo": 120.0
            },
            {
                "start_time": 20.054545454545455,
                "end_time": 20.152272727272727,
                "pitch": 76,
                "velocity": 80,
                "duration": 0.09772727272727266,
                "tempo": 120.0
            },
            {
                "start_time": 20.154545454545453,
                "end_time": 20.254545454545454,
                "pitch": 69,
                "velocity": 80,
                "duration": 0.10000000000000142,
                "tempo": 120.0
            },
            {
                "start_time": 20.25681818181818,
                "end_time": 20.35909090909091,
                "pitch": 76,
                "velocity": 80,
                "duration": 0.10227272727273018,
                "tempo": 120.0
            },
            {
                "start_time": 20.35909090909091,
                "end_time": 20.461363636363636,
                "pitch": 67,
                "velocity": 80,
                "duration": 0.10227272727272663,
                "tempo": 120.0
            },
            {
                "start_time": 20.461363636363636,
                "end_time": 20.563636363636363,
                "pitch": 76,
                "velocity": 80,
                "duration": 0.10227272727272663,
                "tempo": 120.0
            },
            {
                "start_time": 20.56590909090909,
                "end_time": 20.66590909090909,
                "pitch": 74,
                "velocity": 80,
                "duration": 0.09999999999999787,
                "tempo": 120.0
            },
            {
                "start_time": 20.66590909090909,
                "end_time": 20.76590909090909,
                "pitch": 76,
                "velocity": 80,
                "duration": 0.10000000000000142,
                "tempo": 120.0
            },
            {
                "start_time": 20.76590909090909,
                "end_time": 20.86590909090909,
                "pitch": 74,
                "velocity": 80,
                "duration": 0.09999999999999787,
                "tempo": 120.0
            },
            {
                "start_time": 20.868181818181817,
                "end_time": 20.96818181818182,
                "pitch": 76,
                "velocity": 80,
                "duration": 0.10000000000000142,
                "tempo": 120.0
            },
            {
                "start_time": 20.96818181818182,
                "end_time": 21.068181818181817,
                "pitch": 72,
                "velocity": 80,
                "duration": 0.09999999999999787,
                "tempo": 120.0
            },
            {
                "start_time": 21.068181818181817,
                "end_time": 21.168181818181818,
                "pitch": 76,
                "velocity": 80,
                "duration": 0.10000000000000142,
                "tempo": 120.0
            },
            {
                "start_time": 21.168181818181818,
                "end_time": 21.268181818181816,
                "pitch": 71,
                "velocity": 80,
                "duration": 0.09999999999999787,
                "tempo": 120.0
            },
            {
                "start_time": 21.268181818181816,
                "end_time": 21.368181818181817,
                "pitch": 76,
                "velocity": 80,
                "duration": 0.10000000000000142,
                "tempo": 120.0
            },
            {
                "start_time": 21.370454545454546,
                "end_time": 21.46818181818182,
                "pitch": 69,
                "velocity": 80,
                "duration": 0.09772727272727266,
                "tempo": 120.0
            },
            {
                "start_time": 21.470454545454544,
                "end_time": 21.570454545454545,
                "pitch": 76,
                "velocity": 80,
                "duration": 0.10000000000000142,
                "tempo": 120.0
            },
            {
                "start_time": 21.570454545454545,
                "end_time": 21.670454545454543,
                "pitch": 67,
                "velocity": 80,
                "duration": 0.09999999999999787,
                "tempo": 120.0
            },
            {
                "start_time": 21.670454545454543,
                "end_time": 21.772727272727273,
                "pitch": 76,
                "velocity": 80,
                "duration": 0.10227272727273018,
                "tempo": 120.0
            },
            {
                "start_time": 21.772727272727273,
                "end_time": 21.870454545454546,
                "pitch": 76,
                "velocity": 80,
                "duration": 0.09772727272727266,
                "tempo": 120.0
            },
            {
                "start_time": 21.87272727272727,
                "end_time": 21.970454545454544,
                "pitch": 76,
                "velocity": 80,
                "duration": 0.09772727272727266,
                "tempo": 120.0
            },
            {
                "start_time": 21.972727272727273,
                "end_time": 22.07272727272727,
                "pitch": 74,
                "velocity": 80,
                "duration": 0.09999999999999787,
                "tempo": 120.0
            },
            {
                "start_time": 22.07272727272727,
                "end_time": 22.172727272727272,
                "pitch": 76,
                "velocity": 80,
                "duration": 0.10000000000000142,
                "tempo": 120.0
            },
            {
                "start_time": 22.172727272727272,
                "end_time": 22.272727272727273,
                "pitch": 72,
                "velocity": 80,
                "duration": 0.10000000000000142,
                "tempo": 120.0
            },
            {
                "start_time": 22.272727272727273,
                "end_time": 22.37272727272727,
                "pitch": 76,
                "velocity": 80,
                "duration": 0.09999999999999787,
                "tempo": 120.0
            },
            {
                "start_time": 22.37272727272727,
                "end_time": 22.472727272727273,
                "pitch": 71,
                "velocity": 80,
                "duration": 0.10000000000000142,
                "tempo": 120.0
            },
            {
                "start_time": 22.472727272727273,
                "end_time": 22.57272727272727,
                "pitch": 76,
                "velocity": 80,
                "duration": 0.09999999999999787,
                "tempo": 120.0
            },
            {
                "start_time": 22.57272727272727,
                "end_time": 22.672727272727272,
                "pitch": 69,
                "velocity": 80,
                "duration": 0.10000000000000142,
                "tempo": 120.0
            },
            {
                "start_time": 22.674999999999997,
                "end_time": 22.775,
                "pitch": 76,
                "velocity": 80,
                "duration": 0.10000000000000142,
                "tempo": 120.0
            },
            {
                "start_time": 22.775,
                "end_time": 22.875,
                "pitch": 67,
                "velocity": 80,
                "duration": 0.10000000000000142,
                "tempo": 120.0
            },
            {
                "start_time": 22.875,
                "end_time": 22.977272727272727,
                "pitch": 76,
                "velocity": 80,
                "duration": 0.10227272727272663,
                "tempo": 120.0
            },
            {
                "start_time": 22.977272727272727,
                "end_time": 23.075,
                "pitch": 76,
                "velocity": 80,
                "duration": 0.09772727272727266,
                "tempo": 120.0
            },
            {
                "start_time": 23.077272727272724,
                "end_time": 23.174999999999997,
                "pitch": 76,
                "velocity": 80,
                "duration": 0.09772727272727266,
                "tempo": 120.0
            },
            {
                "start_time": 23.177272727272726,
                "end_time": 23.275,
                "pitch": 74,
                "velocity": 80,
                "duration": 0.09772727272727266,
                "tempo": 120.0
            },
            {
                "start_time": 23.277272727272727,
                "end_time": 23.375,
                "pitch": 76,
                "velocity": 80,
                "duration": 0.09772727272727266,
                "tempo": 120.0
            },
            {
                "start_time": 23.377272727272725,
                "end_time": 23.477272727272727,
                "pitch": 72,
                "velocity": 80,
                "duration": 0.10000000000000142,
                "tempo": 120.0
            },
            {
                "start_time": 23.477272727272727,
                "end_time": 23.577272727272724,
                "pitch": 76,
                "velocity": 80,
                "duration": 0.09999999999999787,
                "tempo": 120.0
            },
            {
                "start_time": 23.579545454545453,
                "end_time": 23.679545454545455,
                "pitch": 71,
                "velocity": 80,
                "duration": 0.10000000000000142,
                "tempo": 120.0
            },
            {
                "start_time": 23.679545454545455,
                "end_time": 23.779545454545453,
                "pitch": 76,
                "velocity": 80,
                "duration": 0.09999999999999787,
                "tempo": 120.0
            },
            {
                "start_time": 23.779545454545453,
                "end_time": 23.879545454545454,
                "pitch": 69,
                "velocity": 80,
                "duration": 0.10000000000000142,
                "tempo": 120.0
            },
            {
                "start_time": 23.879545454545454,
                "end_time": 23.979545454545452,
                "pitch": 76,
                "velocity": 80,
                "duration": 0.09999999999999787,
                "tempo": 120.0
            },
            {
                "start_time": 23.98181818181818,
                "end_time": 24.079545454545453,
                "pitch": 67,
                "velocity": 80,
                "duration": 0.09772727272727266,
                "tempo": 120.0
            },
            {
                "start_time": 24.079545454545453,
                "end_time": 24.179545454545455,
                "pitch": 76,
                "velocity": 80,
                "duration": 0.10000000000000142,
                "tempo": 120.0
            },
            {
                "start_time": 24.18181818181818,
                "end_time": 24.279545454545453,
                "pitch": 69,
                "velocity": 80,
                "duration": 0.09772727272727266,
                "tempo": 120.0
            },
            {
                "start_time": 24.28181818181818,
                "end_time": 24.379545454545454,
                "pitch": 76,
                "velocity": 80,
                "duration": 0.09772727272727266,
                "tempo": 120.0
            },
            {
                "start_time": 24.38181818181818,
                "end_time": 24.479545454545452,
                "pitch": 74,
                "velocity": 80,
                "duration": 0.09772727272727266,
                "tempo": 120.0
            },
            {
                "start_time": 24.48181818181818,
                "end_time": 24.579545454545453,
                "pitch": 76,
                "velocity": 80,
                "duration": 0.09772727272727266,
                "tempo": 120.0
            },
            {
                "start_time": 24.581818181818182,
                "end_time": 24.68181818181818,
                "pitch": 72,
                "velocity": 80,
                "duration": 0.09999999999999787,
                "tempo": 120.0
            },
            {
                "start_time": 24.68181818181818,
                "end_time": 24.78181818181818,
                "pitch": 76,
                "velocity": 80,
                "duration": 0.10000000000000142,
                "tempo": 120.0
            },
            {
                "start_time": 24.78181818181818,
                "end_time": 24.88181818181818,
                "pitch": 71,
                "velocity": 80,
                "duration": 0.09999999999999787,
                "tempo": 120.0
            },
            {
                "start_time": 24.884090909090908,
                "end_time": 24.98409090909091,
                "pitch": 76,
                "velocity": 80,
                "duration": 0.10000000000000142,
                "tempo": 120.0
            },
            {
                "start_time": 24.98409090909091,
                "end_time": 25.084090909090907,
                "pitch": 69,
                "velocity": 80,
                "duration": 0.09999999999999787,
                "tempo": 120.0
            },
            {
                "start_time": 25.084090909090907,
                "end_time": 25.18409090909091,
                "pitch": 76,
                "velocity": 80,
                "duration": 0.10000000000000142,
                "tempo": 120.0
            },
            {
                "start_time": 25.18409090909091,
                "end_time": 25.284090909090907,
                "pitch": 67,
                "velocity": 80,
                "duration": 0.09999999999999787,
                "tempo": 120.0
            },
            {
                "start_time": 25.284090909090907,
                "end_time": 25.384090909090908,
                "pitch": 76,
                "velocity": 80,
                "duration": 0.10000000000000142,
                "tempo": 120.0
            },
            {
                "start_time": 25.386363636363637,
                "end_time": 25.48409090909091,
                "pitch": 69,
                "velocity": 80,
                "duration": 0.09772727272727266,
                "tempo": 120.0
            },
            {
                "start_time": 25.486363636363635,
                "end_time": 25.586363636363636,
                "pitch": 76,
                "velocity": 80,
                "duration": 0.10000000000000142,
                "tempo": 120.0
            },
            {
                "start_time": 25.586363636363636,
                "end_time": 25.686363636363634,
                "pitch": 74,
                "velocity": 80,
                "duration": 0.09999999999999787,
                "tempo": 120.0
            },
            {
                "start_time": 25.686363636363634,
                "end_time": 25.786363636363635,
                "pitch": 76,
                "velocity": 80,
                "duration": 0.10000000000000142,
                "tempo": 120.0
            },
            {
                "start_time": 25.788636363636364,
                "end_time": 25.886363636363637,
                "pitch": 72,
                "velocity": 80,
                "duration": 0.09772727272727266,
                "tempo": 120.0
            },
            {
                "start_time": 25.888636363636362,
                "end_time": 25.986363636363635,
                "pitch": 76,
                "velocity": 80,
                "duration": 0.09772727272727266,
                "tempo": 120.0
            },
            {
                "start_time": 25.988636363636363,
                "end_time": 26.08863636363636,
                "pitch": 71,
                "velocity": 80,
                "duration": 0.09999999999999787,
                "tempo": 120.0
            },
            {
                "start_time": 26.08863636363636,
                "end_time": 26.188636363636363,
                "pitch": 76,
                "velocity": 80,
                "duration": 0.10000000000000142,
                "tempo": 120.0
            },
            {
                "start_time": 26.188636363636363,
                "end_time": 26.288636363636364,
                "pitch": 69,
                "velocity": 80,
                "duration": 0.10000000000000142,
                "tempo": 120.0
            },
            {
                "start_time": 26.288636363636364,
                "end_time": 26.388636363636362,
                "pitch": 76,
                "velocity": 80,
                "duration": 0.09999999999999787,
                "tempo": 120.0
            },
            {
                "start_time": 26.388636363636362,
                "end_time": 26.488636363636363,
                "pitch": 67,
                "velocity": 80,
                "duration": 0.10000000000000142,
                "tempo": 120.0
            },
            {
                "start_time": 26.488636363636363,
                "end_time": 26.58863636363636,
                "pitch": 76,
                "velocity": 80,
                "duration": 0.09999999999999787,
                "tempo": 120.0
            },
            {
                "start_time": 26.59090909090909,
                "end_time": 26.69090909090909,
                "pitch": 65,
                "velocity": 80,
                "duration": 0.10000000000000142,
                "tempo": 120.0
            },
            {
                "start_time": 26.69090909090909,
                "end_time": 26.793181818181818,
                "pitch": 76,
                "velocity": 80,
                "duration": 0.10227272727272663,
                "tempo": 120.0
            },
            {
                "start_time": 26.795454545454543,
                "end_time": 26.89772727272727,
                "pitch": 74,
                "velocity": 80,
                "duration": 0.10227272727272663,
                "tempo": 120.0
            },
            {
                "start_time": 26.89772727272727,
                "end_time": 27.0,
                "pitch": 76,
                "velocity": 80,
                "duration": 0.10227272727273018,
                "tempo": 120.0
            },
            {
                "start_time": 27.0,
                "end_time": 27.097727272727273,
                "pitch": 72,
                "velocity": 80,
                "duration": 0.09772727272727266,
                "tempo": 120.0
            },
            {
                "start_time": 27.097727272727273,
                "end_time": 27.195454545454545,
                "pitch": 76,
                "velocity": 80,
                "duration": 0.09772727272727266,
                "tempo": 120.0
            },
            {
                "start_time": 27.195454545454545,
                "end_time": 27.293181818181818,
                "pitch": 71,
                "velocity": 80,
                "duration": 0.09772727272727266,
                "tempo": 120.0
            },
            {
                "start_time": 27.295454545454543,
                "end_time": 27.39090909090909,
                "pitch": 76,
                "velocity": 80,
                "duration": 0.09545454545454746,
                "tempo": 120.0
            },
            {
                "start_time": 27.393181818181816,
                "end_time": 27.495454545454542,
                "pitch": 69,
                "velocity": 80,
                "duration": 0.10227272727272663,
                "tempo": 120.0
            },
            {
                "start_time": 27.495454545454542,
                "end_time": 27.597727272727273,
                "pitch": 76,
                "velocity": 80,
                "duration": 0.10227272727273018,
                "tempo": 120.0
            },
            {
                "start_time": 27.597727272727273,
                "end_time": 27.7,
                "pitch": 67,
                "velocity": 80,
                "duration": 0.10227272727272663,
                "tempo": 120.0
            },
            {
                "start_time": 27.702272727272724,
                "end_time": 27.804545454545455,
                "pitch": 76,
                "velocity": 80,
                "duration": 0.10227272727273018,
                "tempo": 120.0
            },
            {
                "start_time": 27.804545454545455,
                "end_time": 27.904545454545453,
                "pitch": 65,
                "velocity": 80,
                "duration": 0.09999999999999787,
                "tempo": 120.0
            },
            {
                "start_time": 27.904545454545453,
                "end_time": 28.004545454545454,
                "pitch": 76,
                "velocity": 80,
                "duration": 0.10000000000000142,
                "tempo": 120.0
            },
            {
                "start_time": 28.00681818181818,
                "end_time": 28.10681818181818,
                "pitch": 74,
                "velocity": 80,
                "duration": 0.10000000000000142,
                "tempo": 120.0
            },
            {
                "start_time": 28.10681818181818,
                "end_time": 28.206818181818182,
                "pitch": 76,
                "velocity": 80,
                "duration": 0.10000000000000142,
                "tempo": 120.0
            },
            {
                "start_time": 28.206818181818182,
                "end_time": 28.30681818181818,
                "pitch": 72,
                "velocity": 80,
                "duration": 0.09999999999999787,
                "tempo": 120.0
            },
            {
                "start_time": 28.30681818181818,
                "end_time": 28.40681818181818,
                "pitch": 76,
                "velocity": 80,
                "duration": 0.10000000000000142,
                "tempo": 120.0
            },
            {
                "start_time": 28.40681818181818,
                "end_time": 28.50681818181818,
                "pitch": 71,
                "velocity": 80,
                "duration": 0.09999999999999787,
                "tempo": 120.0
            },
            {
                "start_time": 28.50681818181818,
                "end_time": 28.60681818181818,
                "pitch": 76,
                "velocity": 80,
                "duration": 0.10000000000000142,
                "tempo": 120.0
            },
            {
                "start_time": 28.60909090909091,
                "end_time": 28.706818181818182,
                "pitch": 69,
                "velocity": 80,
                "duration": 0.09772727272727266,
                "tempo": 120.0
            },
            {
                "start_time": 28.709090909090907,
                "end_time": 28.80681818181818,
                "pitch": 76,
                "velocity": 80,
                "duration": 0.09772727272727266,
                "tempo": 120.0
            },
            {
                "start_time": 28.80909090909091,
                "end_time": 28.90681818181818,
                "pitch": 67,
                "velocity": 80,
                "duration": 0.09772727272727266,
                "tempo": 120.0
            },
            {
                "start_time": 28.909090909090907,
                "end_time": 29.009090909090908,
                "pitch": 76,
                "velocity": 80,
                "duration": 0.10000000000000142,
                "tempo": 120.0
            },
            {
                "start_time": 29.009090909090908,
                "end_time": 29.10909090909091,
                "pitch": 67,
                "velocity": 80,
                "duration": 0.10000000000000142,
                "tempo": 120.0
            },
            {
                "start_time": 29.10909090909091,
                "end_time": 29.209090909090907,
                "pitch": 76,
                "velocity": 80,
                "duration": 0.09999999999999787,
                "tempo": 120.0
            },
            {
                "start_time": 29.209090909090907,
                "end_time": 29.30909090909091,
                "pitch": 74,
                "velocity": 80,
                "duration": 0.10000000000000142,
                "tempo": 120.0
            },
            {
                "start_time": 29.311363636363634,
                "end_time": 29.411363636363635,
                "pitch": 76,
                "velocity": 80,
                "duration": 0.10000000000000142,
                "tempo": 120.0
            },
            {
                "start_time": 29.411363636363635,
                "end_time": 29.511363636363637,
                "pitch": 72,
                "velocity": 80,
                "duration": 0.10000000000000142,
                "tempo": 120.0
            },
            {
                "start_time": 29.511363636363637,
                "end_time": 29.611363636363635,
                "pitch": 76,
                "velocity": 80,
                "duration": 0.09999999999999787,
                "tempo": 120.0
            },
            {
                "start_time": 29.611363636363635,
                "end_time": 29.711363636363636,
                "pitch": 71,
                "velocity": 80,
                "duration": 0.10000000000000142,
                "tempo": 120.0
            },
            {
                "start_time": 29.711363636363636,
                "end_time": 29.811363636363634,
                "pitch": 76,
                "velocity": 80,
                "duration": 0.09999999999999787,
                "tempo": 120.0
            },
            {
                "start_time": 29.811363636363634,
                "end_time": 29.911363636363635,
                "pitch": 69,
                "velocity": 80,
                "duration": 0.10000000000000142,
                "tempo": 120.0
            },
            {
                "start_time": 29.91363636363636,
                "end_time": 30.013636363636362,
                "pitch": 76,
                "velocity": 80,
                "duration": 0.10000000000000142,
                "tempo": 120.0
            },
            {
                "start_time": 30.013636363636362,
                "end_time": 30.113636363636363,
                "pitch": 67,
                "velocity": 80,
                "duration": 0.10000000000000142,
                "tempo": 120.0
            },
            {
                "start_time": 30.113636363636363,
                "end_time": 30.21590909090909,
                "pitch": 76,
                "velocity": 80,
                "duration": 0.10227272727272663,
                "tempo": 120.0
            },
            {
                "start_time": 30.21590909090909,
                "end_time": 30.313636363636363,
                "pitch": 67,
                "velocity": 80,
                "duration": 0.09772727272727266,
                "tempo": 120.0
            },
            {
                "start_time": 30.315909090909088,
                "end_time": 30.41363636363636,
                "pitch": 76,
                "velocity": 80,
                "duration": 0.09772727272727266,
                "tempo": 120.0
            },
            {
                "start_time": 30.41590909090909,
                "end_time": 30.51590909090909,
                "pitch": 74,
                "velocity": 80,
                "duration": 0.10000000000000142,
                "tempo": 120.0
            },
            {
                "start_time": 30.51590909090909,
                "end_time": 30.61590909090909,
                "pitch": 76,
                "velocity": 80,
                "duration": 0.09999999999999787,
                "tempo": 120.0
            },
            {
                "start_time": 30.61590909090909,
                "end_time": 30.71590909090909,
                "pitch": 72,
                "velocity": 80,
                "duration": 0.10000000000000142,
                "tempo": 120.0
            },
            {
                "start_time": 30.71590909090909,
                "end_time": 30.815909090909088,
                "pitch": 76,
                "velocity": 80,
                "duration": 0.09999999999999787,
                "tempo": 120.0
            },
            {
                "start_time": 30.815909090909088,
                "end_time": 30.91590909090909,
                "pitch": 71,
                "velocity": 80,
                "duration": 0.10000000000000142,
                "tempo": 120.0
            },
            {
                "start_time": 30.91590909090909,
                "end_time": 31.01590909090909,
                "pitch": 76,
                "velocity": 80,
                "duration": 0.10000000000000142,
                "tempo": 120.0
            },
            {
                "start_time": 31.01590909090909,
                "end_time": 31.11590909090909,
                "pitch": 69,
                "velocity": 80,
                "duration": 0.09999999999999787,
                "tempo": 120.0
            },
            {
                "start_time": 31.118181818181817,
                "end_time": 31.218181818181815,
                "pitch": 76,
                "velocity": 80,
                "duration": 0.09999999999999787,
                "tempo": 120.0
            },
            {
                "start_time": 31.218181818181815,
                "end_time": 31.318181818181817,
                "pitch": 67,
                "velocity": 80,
                "duration": 0.10000000000000142,
                "tempo": 120.0
            },
            {
                "start_time": 31.318181818181817,
                "end_time": 31.420454545454543,
                "pitch": 76,
                "velocity": 80,
                "duration": 0.10227272727272663,
                "tempo": 120.0
            },
            {
                "start_time": 31.420454545454543,
                "end_time": 31.518181818181816,
                "pitch": 74,
                "velocity": 80,
                "duration": 0.09772727272727266,
                "tempo": 120.0
            },
            {
                "start_time": 31.520454545454545,
                "end_time": 31.618181818181817,
                "pitch": 76,
                "velocity": 80,
                "duration": 0.09772727272727266,
                "tempo": 120.0
            },
            {
                "start_time": 31.620454545454542,
                "end_time": 31.718181818181815,
                "pitch": 74,
                "velocity": 80,
                "duration": 0.09772727272727266,
                "tempo": 120.0
            },
            {
                "start_time": 31.720454545454544,
                "end_time": 31.818181818181817,
                "pitch": 76,
                "velocity": 80,
                "duration": 0.09772727272727266,
                "tempo": 120.0
            },
            {
                "start_time": 31.820454545454545,
                "end_time": 31.920454545454543,
                "pitch": 72,
                "velocity": 80,
                "duration": 0.09999999999999787,
                "tempo": 120.0
            },
            {
                "start_time": 31.920454545454543,
                "end_time": 32.02045454545454,
                "pitch": 76,
                "velocity": 80,
                "duration": 0.09999999999999787,
                "tempo": 120.0
            },
            {
                "start_time": 32.02272727272727,
                "end_time": 32.12272727272727,
                "pitch": 71,
                "velocity": 80,
                "duration": 0.09999999999999432,
                "tempo": 120.0
            },
            {
                "start_time": 32.12272727272727,
                "end_time": 32.22272727272727,
                "pitch": 76,
                "velocity": 80,
                "duration": 0.10000000000000142,
                "tempo": 120.0
            },
            {
                "start_time": 32.22272727272727,
                "end_time": 32.32272727272727,
                "pitch": 69,
                "velocity": 80,
                "duration": 0.10000000000000142,
                "tempo": 120.0
            },
            {
                "start_time": 32.32272727272727,
                "end_time": 32.42272727272727,
                "pitch": 76,
                "velocity": 80,
                "duration": 0.10000000000000142,
                "tempo": 120.0
            },
            {
                "start_time": 32.42272727272727,
                "end_time": 32.52272727272727,
                "pitch": 67,
                "velocity": 80,
                "duration": 0.10000000000000142,
                "tempo": 120.0
            },
            {
                "start_time": 32.52272727272727,
                "end_time": 32.62272727272727,
                "pitch": 76,
                "velocity": 80,
                "duration": 0.09999999999999432,
                "tempo": 120.0
            },
            {
                "start_time": 32.625,
                "end_time": 32.72272727272727,
                "pitch": 74,
                "velocity": 80,
                "duration": 0.09772727272726911,
                "tempo": 120.0
            },
            {
                "start_time": 32.725,
                "end_time": 32.82272727272727,
                "pitch": 76,
                "velocity": 80,
                "duration": 0.09772727272726911,
                "tempo": 120.0
            },
            {
                "start_time": 32.824999999999996,
                "end_time": 32.92272727272727,
                "pitch": 74,
                "velocity": 80,
                "duration": 0.09772727272727622,
                "tempo": 120.0
            },
            {
                "start_time": 32.925,
                "end_time": 33.02272727272727,
                "pitch": 76,
                "velocity": 80,
                "duration": 0.09772727272727622,
                "tempo": 120.0
            },
            {
                "start_time": 33.025,
                "end_time": 33.12272727272727,
                "pitch": 72,
                "velocity": 80,
                "duration": 0.09772727272726911,
                "tempo": 120.0
            },
            {
                "start_time": 33.125,
                "end_time": 33.225,
                "pitch": 76,
                "velocity": 80,
                "duration": 0.10000000000000142,
                "tempo": 120.0
            },
            {
                "start_time": 33.225,
                "end_time": 33.324999999999996,
                "pitch": 71,
                "velocity": 80,
                "duration": 0.09999999999999432,
                "tempo": 120.0
            },
            {
                "start_time": 33.324999999999996,
                "end_time": 33.425,
                "pitch": 76,
                "velocity": 80,
                "duration": 0.10000000000000142,
                "tempo": 120.0
            },
            {
                "start_time": 33.425,
                "end_time": 33.525,
                "pitch": 69,
                "velocity": 80,
                "duration": 0.10000000000000142,
                "tempo": 120.0
            },
            {
                "start_time": 33.525,
                "end_time": 33.625,
                "pitch": 76,
                "velocity": 80,
                "duration": 0.10000000000000142,
                "tempo": 120.0
            },
            {
                "start_time": 33.627272727272725,
                "end_time": 33.72727272727273,
                "pitch": 67,
                "velocity": 80,
                "duration": 0.10000000000000142,
                "tempo": 120.0
            },
            {
                "start_time": 33.72727272727273,
                "end_time": 33.82727272727273,
                "pitch": 76,
                "velocity": 80,
                "duration": 0.10000000000000142,
                "tempo": 120.0
            },
            {
                "start_time": 33.82954545454545,
                "end_time": 33.92727272727272,
                "pitch": 64,
                "velocity": 80,
                "duration": 0.09772727272726911,
                "tempo": 120.0
            },
            {
                "start_time": 33.92727272727272,
                "end_time": 34.027272727272724,
                "pitch": 76,
                "velocity": 80,
                "duration": 0.10000000000000142,
                "tempo": 120.0
            },
            {
                "start_time": 34.027272727272724,
                "end_time": 34.127272727272725,
                "pitch": 74,
                "velocity": 80,
                "duration": 0.10000000000000142,
                "tempo": 120.0
            },
            {
                "start_time": 34.12954545454545,
                "end_time": 34.22727272727273,
                "pitch": 76,
                "velocity": 80,
                "duration": 0.09772727272727622,
                "tempo": 120.0
            },
            {
                "start_time": 34.22954545454545,
                "end_time": 34.32727272727273,
                "pitch": 72,
                "velocity": 80,
                "duration": 0.09772727272727622,
                "tempo": 120.0
            },
            {
                "start_time": 34.32954545454545,
                "end_time": 34.42727272727272,
                "pitch": 76,
                "velocity": 80,
                "duration": 0.09772727272726911,
                "tempo": 120.0
            },
            {
                "start_time": 34.429545454545455,
                "end_time": 34.527272727272724,
                "pitch": 71,
                "velocity": 80,
                "duration": 0.09772727272726911,
                "tempo": 120.0
            },
            {
                "start_time": 34.529545454545456,
                "end_time": 34.627272727272725,
                "pitch": 76,
                "velocity": 80,
                "duration": 0.09772727272726911,
                "tempo": 120.0
            },
            {
                "start_time": 34.62954545454545,
                "end_time": 34.72727272727273,
                "pitch": 69,
                "velocity": 80,
                "duration": 0.09772727272727622,
                "tempo": 120.0
            },
            {
                "start_time": 34.72954545454545,
                "end_time": 34.82954545454545,
                "pitch": 76,
                "velocity": 80,
                "duration": 0.10000000000000142,
                "tempo": 120.0
            },
            {
                "start_time": 34.82954545454545,
                "end_time": 34.929545454545455,
                "pitch": 68,
                "velocity": 80,
                "duration": 0.10000000000000142,
                "tempo": 120.0
            },
            {
                "start_time": 34.929545454545455,
                "end_time": 35.029545454545456,
                "pitch": 76,
                "velocity": 80,
                "duration": 0.10000000000000142,
                "tempo": 120.0
            },
            {
                "start_time": 35.029545454545456,
                "end_time": 35.12954545454545,
                "pitch": 64,
                "velocity": 80,
                "duration": 0.09999999999999432,
                "tempo": 120.0
            },
            {
                "start_time": 35.12954545454545,
                "end_time": 35.22954545454545,
                "pitch": 76,
                "velocity": 80,
                "duration": 0.10000000000000142,
                "tempo": 120.0
            },
            {
                "start_time": 35.22954545454545,
                "end_time": 35.32954545454545,
                "pitch": 74,
                "velocity": 80,
                "duration": 0.10000000000000142,
                "tempo": 120.0
            },
            {
                "start_time": 35.32954545454545,
                "end_time": 35.429545454545455,
                "pitch": 76,
                "velocity": 80,
                "duration": 0.10000000000000142,
                "tempo": 120.0
            },
            {
                "start_time": 35.429545454545455,
                "end_time": 35.529545454545456,
                "pitch": 72,
                "velocity": 80,
                "duration": 0.10000000000000142,
                "tempo": 120.0
            },
            {
                "start_time": 35.53181818181818,
                "end_time": 35.63181818181818,
                "pitch": 76,
                "velocity": 80,
                "duration": 0.10000000000000142,
                "tempo": 120.0
            },
            {
                "start_time": 35.63181818181818,
                "end_time": 35.73181818181818,
                "pitch": 71,
                "velocity": 80,
                "duration": 0.09999999999999432,
                "tempo": 120.0
            },
            {
                "start_time": 35.73181818181818,
                "end_time": 35.83409090909091,
                "pitch": 76,
                "velocity": 80,
                "duration": 0.10227272727273373,
                "tempo": 120.0
            },
            {
                "start_time": 35.83409090909091,
                "end_time": 35.93636363636364,
                "pitch": 69,
                "velocity": 80,
                "duration": 0.10227272727272663,
                "tempo": 120.0
            },
            {
                "start_time": 35.93636363636364,
                "end_time": 36.038636363636364,
                "pitch": 76,
                "velocity": 80,
                "duration": 0.10227272727272663,
                "tempo": 120.0
            },
            {
                "start_time": 36.038636363636364,
                "end_time": 36.14090909090909,
                "pitch": 68,
                "velocity": 80,
                "duration": 0.10227272727272663,
                "tempo": 120.0
            },
            {
                "start_time": 36.14090909090909,
                "end_time": 36.24545454545454,
                "pitch": 76,
                "velocity": 80,
                "duration": 0.10454545454545183,
                "tempo": 120.0
            },
            {
                "start_time": 36.24545454545454,
                "end_time": 36.34318181818182,
                "pitch": 64,
                "velocity": 80,
                "duration": 0.09772727272727622,
                "tempo": 120.0
            },
            {
                "start_time": 36.345454545454544,
                "end_time": 36.44318181818181,
                "pitch": 76,
                "velocity": 80,
                "duration": 0.09772727272726911,
                "tempo": 120.0
            },
            {
                "start_time": 36.445454545454545,
                "end_time": 36.54545454545455,
                "pitch": 74,
                "velocity": 80,
                "duration": 0.10000000000000142,
                "tempo": 120.0
            },
            {
                "start_time": 36.54545454545455,
                "end_time": 36.64545454545454,
                "pitch": 76,
                "velocity": 80,
                "duration": 0.09999999999999432,
                "tempo": 120.0
            },
            {
                "start_time": 36.64545454545454,
                "end_time": 36.74545454545454,
                "pitch": 72,
                "velocity": 80,
                "duration": 0.10000000000000142,
                "tempo": 120.0
            },
            {
                "start_time": 36.74545454545454,
                "end_time": 36.845454545454544,
                "pitch": 76,
                "velocity": 80,
                "duration": 0.10000000000000142,
                "tempo": 120.0
            },
            {
                "start_time": 36.845454545454544,
                "end_time": 36.945454545454545,
                "pitch": 71,
                "velocity": 80,
                "duration": 0.10000000000000142,
                "tempo": 120.0
            },
            {
                "start_time": 36.945454545454545,
                "end_time": 37.04545454545455,
                "pitch": 76,
                "velocity": 80,
                "duration": 0.10000000000000142,
                "tempo": 120.0
            },
            {
                "start_time": 37.04545454545455,
                "end_time": 37.14545454545454,
                "pitch": 69,
                "velocity": 80,
                "duration": 0.09999999999999432,
                "tempo": 120.0
            },
            {
                "start_time": 37.14772727272727,
                "end_time": 37.24772727272727,
                "pitch": 76,
                "velocity": 80,
                "duration": 0.09999999999999432,
                "tempo": 120.0
            },
            {
                "start_time": 37.24772727272727,
                "end_time": 37.34772727272727,
                "pitch": 68,
                "velocity": 80,
                "duration": 0.10000000000000142,
                "tempo": 120.0
            },
            {
                "start_time": 37.34772727272727,
                "end_time": 37.44772727272727,
                "pitch": 76,
                "velocity": 80,
                "duration": 0.10000000000000142,
                "tempo": 120.0
            },
            {
                "start_time": 37.449999999999996,
                "end_time": 37.54772727272727,
                "pitch": 64,
                "velocity": 80,
                "duration": 0.09772727272727622,
                "tempo": 120.0
            },
            {
                "start_time": 37.55,
                "end_time": 37.64772727272727,
                "pitch": 76,
                "velocity": 80,
                "duration": 0.09772727272727622,
                "tempo": 120.0
            },
            {
                "start_time": 37.65,
                "end_time": 37.74772727272727,
                "pitch": 74,
                "velocity": 80,
                "duration": 0.09772727272726911,
                "tempo": 120.0
            },
            {
                "start_time": 37.75,
                "end_time": 37.84772727272727,
                "pitch": 76,
                "velocity": 80,
                "duration": 0.09772727272726911,
                "tempo": 120.0
            },
            {
                "start_time": 37.85,
                "end_time": 37.949999999999996,
                "pitch": 72,
                "velocity": 80,
                "duration": 0.09999999999999432,
                "tempo": 120.0
            },
            {
                "start_time": 37.949999999999996,
                "end_time": 38.05,
                "pitch": 76,
                "velocity": 80,
                "duration": 0.10000000000000142,
                "tempo": 120.0
            },
            {
                "start_time": 38.05,
                "end_time": 38.15,
                "pitch": 71,
                "velocity": 80,
                "duration": 0.10000000000000142,
                "tempo": 120.0
            },
            {
                "start_time": 38.15,
                "end_time": 38.25,
                "pitch": 76,
                "velocity": 80,
                "duration": 0.10000000000000142,
                "tempo": 120.0
            },
            {
                "start_time": 38.25,
                "end_time": 38.35,
                "pitch": 69,
                "velocity": 80,
                "duration": 0.10000000000000142,
                "tempo": 120.0
            },
            {
                "start_time": 38.35,
                "end_time": 38.449999999999996,
                "pitch": 76,
                "velocity": 80,
                "duration": 0.09999999999999432,
                "tempo": 120.0
            },
            {
                "start_time": 38.449999999999996,
                "end_time": 38.55,
                "pitch": 68,
                "velocity": 80,
                "duration": 0.10000000000000142,
                "tempo": 120.0
            },
            {
                "start_time": 38.55,
                "end_time": 38.65,
                "pitch": 76,
                "velocity": 80,
                "duration": 0.10000000000000142,
                "tempo": 120.0
            }
        ],
        "Trumpet": [
            {
                "start_time": 0.03409090909090909,
                "end_time": 1.2340909090909091,
                "pitch": 52,
                "velocity": 101,
                "duration": 1.2,
                "tempo": 120.0
            },
            {
                "start_time": 1.2340909090909091,
                "end_time": 2.434090909090909,
                "pitch": 45,
                "velocity": 101,
                "duration": 1.2,
                "tempo": 120.0
            },
            {
                "start_time": 2.436363636363636,
                "end_time": 3.443181818181818,
                "pitch": 47,
                "velocity": 101,
                "duration": 1.0068181818181818,
                "tempo": 120.0
            },
            {
                "start_time": 3.4454545454545453,
                "end_time": 4.445454545454545,
                "pitch": 43,
                "velocity": 101,
                "duration": 1.0,
                "tempo": 120.0
            },
            {
                "start_time": 4.445454545454545,
                "end_time": 4.6499999999999995,
                "pitch": 47,
                "velocity": 101,
                "duration": 0.20454545454545414,
                "tempo": 120.0
            },
            {
                "start_time": 4.652272727272727,
                "end_time": 4.8568181818181815,
                "pitch": 50,
                "velocity": 101,
                "duration": 0.20454545454545414,
                "tempo": 120.0
            },
            {
                "start_time": 4.8590909090909085,
                "end_time": 6.0613636363636365,
                "pitch": 48,
                "velocity": 101,
                "duration": 1.202272727272728,
                "tempo": 120.0
            },
            {
                "start_time": 6.0636363636363635,
                "end_time": 7.268181818181818,
                "pitch": 45,
                "velocity": 101,
                "duration": 1.2045454545454541,
                "tempo": 120.0
            },
            {
                "start_time": 7.2704545454545455,
                "end_time": 8.272727272727272,
                "pitch": 47,
                "velocity": 101,
                "duration": 1.002272727272726,
                "tempo": 120.0
            },
            {
                "start_time": 8.272727272727272,
                "end_time": 9.279545454545454,
                "pitch": 40,
                "velocity": 101,
                "duration": 1.0068181818181827,
                "tempo": 120.0
            },
            {
                "start_time": 9.279545454545454,
                "end_time": 9.479545454545454,
                "pitch": 44,
                "velocity": 101,
                "duration": 0.1999999999999993,
                "tempo": 120.0
            },
            {
                "start_time": 9.48181818181818,
                "end_time": 9.681818181818182,
                "pitch": 47,
                "velocity": 101,
                "duration": 0.20000000000000107,
                "tempo": 120.0
            },
            {
                "start_time": 9.684090909090909,
                "end_time": 10.888636363636364,
                "pitch": 48,
                "velocity": 101,
                "duration": 1.204545454545455,
                "tempo": 120.0
            },
            {
                "start_time": 10.89090909090909,
                "end_time": 12.1,
                "pitch": 45,
                "velocity": 101,
                "duration": 1.209090909090909,
                "tempo": 120.0
            },
            {
                "start_time": 12.1,
                "end_time": 13.111363636363636,
                "pitch": 43,
                "velocity": 101,
                "duration": 1.0113636363636367,
                "tempo": 120.0
            },
            {
                "start_time": 13.113636363636363,
                "end_time": 14.120454545454544,
                "pitch": 47,
                "velocity": 101,
                "duration": 1.006818181818181,
                "tempo": 120.0
            },
            {
                "start_time": 14.120454545454544,
                "end_time": 14.322727272727272,
                "pitch": 53,
                "velocity": 101,
                "duration": 0.20227272727272805,
                "tempo": 120.0
            },
            {
                "start_time": 14.322727272727272,
                "end_time": 14.522727272727272,
                "pitch": 50,
                "velocity": 101,
                "duration": 0.1999999999999993,
                "tempo": 120.0
            },
            {
                "start_time": 14.524999999999999,
                "end_time": 15.73181818181818,
                "pitch": 52,
                "velocity": 101,
                "duration": 1.206818181818182,
                "tempo": 120.0
            },
            {
                "start_time": 15.73181818181818,
                "end_time": 16.938636363636363,
                "pitch": 48,
                "velocity": 101,
                "duration": 1.206818181818182,
                "tempo": 120.0
            },
            {
                "start_time": 16.938636363636363,
                "end_time": 17.94090909090909,
                "pitch": 50,
                "velocity": 101,
                "duration": 1.0022727272727288,
                "tempo": 120.0
            },
            {
                "start_time": 17.943181818181817,
                "end_time": 18.745454545454546,
                "pitch": 47,
                "velocity": 101,
                "duration": 0.8022727272727295,
                "tempo": 120.0
            },
            {
                "start_time": 18.745454545454546,
                "end_time": 18.945454545454545,
                "pitch": 40,
                "velocity": 101,
                "duration": 0.1999999999999993,
                "tempo": 120.0
            },
            {
                "start_time": 18.945454545454545,
                "end_time": 19.15,
                "pitch": 44,
                "velocity": 101,
                "duration": 0.20454545454545325,
                "tempo": 120.0
            },
            {
                "start_time": 19.152272727272727,
                "end_time": 19.35681818181818,
                "pitch": 40,
                "velocity": 101,
                "duration": 0.20454545454545325,
                "tempo": 120.0
            },
            {
                "start_time": 19.35909090909091,
                "end_time": 21.368181818181817,
                "pitch": 41,
                "velocity": 101,
                "duration": 2.009090909090908,
                "tempo": 120.0
            },
            {
                "start_time": 21.368181818181817,
                "end_time": 21.568181818181817,
                "pitch": 45,
                "velocity": 101,
                "duration": 0.1999999999999993,
                "tempo": 120.0
            },
            {
                "start_time": 21.570454545454545,
                "end_time": 21.770454545454545,
                "pitch": 48,
                "velocity": 101,
                "duration": 0.1999999999999993,
                "tempo": 120.0
            },
            {
                "start_time": 21.772727272727273,
                "end_time": 22.974999999999998,
                "pitch": 43,
                "velocity": 101,
                "duration": 1.2022727272727245,
                "tempo": 120.0
            },
            {
                "start_time": 22.977272727272727,
                "end_time": 23.779545454545453,
                "pitch": 47,
                "velocity": 101,
                "duration": 0.8022727272727259,
                "tempo": 120.0
            },
            {
                "start_time": 23.779545454545453,
                "end_time": 23.979545454545452,
                "pitch": 48,
                "velocity": 101,
                "duration": 0.1999999999999993,
                "tempo": 120.0
            },
            {
                "start_time": 23.979545454545452,
                "end_time": 24.179545454545455,
                "pitch": 50,
                "velocity": 101,
                "duration": 0.20000000000000284,
                "tempo": 120.0
            },
            {
                "start_time": 24.179545454545455,
                "end_time": 24.98409090909091,
                "pitch": 52,
                "velocity": 101,
                "duration": 0.8045454545454547,
                "tempo": 120.0
            },
            {
                "start_time": 24.98409090909091,
                "end_time": 25.18409090909091,
                "pitch": 50,
                "velocity": 101,
                "duration": 0.1999999999999993,
                "tempo": 120.0
            },
            {
                "start_time": 25.18409090909091,
                "end_time": 25.384090909090908,
                "pitch": 48,
                "velocity": 101,
                "duration": 0.1999999999999993,
                "tempo": 120.0
            },
            {
                "start_time": 25.384090909090908,
                "end_time": 26.186363636363634,
                "pitch": 52,
                "velocity": 101,
                "duration": 0.8022727272727259,
                "tempo": 120.0
            },
            {
                "start_time": 26.188636363636363,
                "end_time": 26.386363636363637,
                "pitch": 50,
                "velocity": 101,
                "duration": 0.19772727272727408,
                "tempo": 120.0
            },
            {
                "start_time": 26.388636363636362,
                "end_time": 26.58863636363636,
                "pitch": 48,
                "velocity": 101,
                "duration": 0.1999999999999993,
                "tempo": 120.0
            },
            {
                "start_time": 26.58863636363636,
                "end_time": 27.802272727272726,
                "pitch": 52,
                "velocity": 101,
                "duration": 1.2136363636363647,
                "tempo": 120.0
            },
            {
                "start_time": 27.804545454545455,
                "end_time": 28.60681818181818,
                "pitch": 45,
                "velocity": 101,
                "duration": 0.8022727272727259,
                "tempo": 120.0
            },
            {
                "start_time": 28.60681818181818,
                "end_time": 29.00681818181818,
                "pitch": 48,
                "velocity": 101,
                "duration": 0.3999999999999986,
                "tempo": 120.0
            },
            {
                "start_time": 29.009090909090908,
                "end_time": 30.21363636363636,
                "pitch": 50,
                "velocity": 101,
                "duration": 1.2045454545454533,
                "tempo": 120.0
            },
            {
                "start_time": 30.21590909090909,
                "end_time": 31.418181818181818,
                "pitch": 47,
                "velocity": 101,
                "duration": 1.202272727272728,
                "tempo": 120.0
            },
            {
                "start_time": 31.420454545454543,
                "end_time": 32.62272727272727,
                "pitch": 45,
                "velocity": 101,
                "duration": 1.2022727272727245,
                "tempo": 120.0
            },
            {
                "start_time": 32.62272727272727,
                "end_time": 33.22272727272727,
                "pitch": 48,
                "velocity": 101,
                "duration": 0.6000000000000014,
                "tempo": 120.0
            },
            {
                "start_time": 33.225,
                "end_time": 33.82727272727273,
                "pitch": 47,
                "velocity": 101,
                "duration": 0.6022727272727266,
                "tempo": 120.0
            },
            {
                "start_time": 33.82727272727273,
                "end_time": 35.83181818181818,
                "pitch": 50,
                "velocity": 101,
                "duration": 2.0045454545454504,
                "tempo": 120.0
            },
            {
                "start_time": 35.83181818181818,
                "end_time": 36.038636363636364,
                "pitch": 52,
                "velocity": 101,
                "duration": 0.20681818181818556,
                "tempo": 120.0
            },
            {
                "start_time": 36.038636363636364,
                "end_time": 36.24318181818182,
                "pitch": 53,
                "velocity": 101,
                "duration": 0.20454545454545325,
                "tempo": 120.0
            },
            {
                "start_time": 36.24545454545454,
                "end_time": 38.24772727272727,
                "pitch": 50,
                "velocity": 101,
                "duration": 2.002272727272725,
                "tempo": 120.0
            },
            {
                "start_time": 38.25,
                "end_time": 38.449999999999996,
                "pitch": 52,
                "velocity": 101,
                "duration": 0.19999999999999574,
                "tempo": 120.0
            },
            {
                "start_time": 38.449999999999996,
                "end_time": 38.65,
                "pitch": 53,
                "velocity": 101,
                "duration": 0.20000000000000284,
                "tempo": 120.0
            },
            {
                "start_time": 38.654545454545456,
                "end_time": 38.65681818181818,
                "pitch": 52,
                "velocity": 101,
                "duration": 0.0022727272727252057,
                "tempo": 120.0
            }
        ]
    }
}