{
    "track_id": "03 Hyper Drive",
    "mood": "angry",
    "instruments": {
        "Trumpet": [
            {
                "start_time": 0.006818181818181818,
                "end_time": 0.19772727272727272,
                "pitch": 64,
                "velocity": 101,
                "duration": 0.19090909090909092,
                "tempo": 120.0
            },
            {
                "start_time": 0.19772727272727272,
                "end_time": 0.3977272727272727,
                "pitch": 66,
                "velocity": 101,
                "duration": 0.19999999999999998,
                "tempo": 120.0
            },
            {
                "start_time": 0.3977272727272727,
                "end_time": 0.6,
                "pitch": 67,
                "velocity": 101,
                "duration": 0.20227272727272727,
                "tempo": 120.0
            },
            {
                "start_time": 0.6,
                "end_time": 0.9977272727272727,
                "pitch": 69,
                "velocity": 101,
                "duration": 0.3977272727272727,
                "tempo": 120.0
            },
            {
                "start_time": 0.9977272727272727,
                "end_time": 1.1977272727272728,
                "pitch": 67,
                "velocity": 101,
                "duration": 0.20000000000000007,
                "tempo": 120.0
            },
            {
                "start_time": 1.2,
                "end_time": 1.4,
                "pitch": 66,
                "velocity": 101,
                "duration": 0.19999999999999996,
                "tempo": 120.0
            },
            {
                "start_time": 1.4,
                "end_time": 2.1999999999999997,
                "pitch": 67,
                "velocity": 101,
                "duration": 0.7999999999999998,
                "tempo": 120.0
            },
            {
                "start_time": 1.1977272727272728,
                "end_time": 2.1999999999999997,
                "pitch": 78,
                "velocity": 101,
                "duration": 1.002272727272727,
                "tempo": 120.0
            },
            {
                "start_time": 2.1999999999999997,
                "end_time": 2.6,
                "pitch": 66,
                "velocity": 101,
                "duration": 0.40000000000000036,
                "tempo": 120.0
            },
            {
                "start_time": 2.6,
                "end_time": 3.002272727272727,
                "pitch": 64,
                "velocity": 101,
                "duration": 0.4022727272727269,
                "tempo": 120.0
            },
            {
                "start_time": 3.002272727272727,
                "end_time": 3.811363636363636,
                "pitch": 66,
                "velocity": 101,
                "duration": 0.8090909090909091,
                "tempo": 120.0
            },
            {
                "start_time": 3.811363636363636,
                "end_time": 4.218181818181818,
                "pitch": 63,
                "velocity": 101,
                "duration": 0.40681818181818175,
                "tempo": 120.0
            },
            {
                "start_time": 3.811363636363636,
                "end_time": 4.218181818181818,
                "pitch": 63,
                "velocity": 101,
                "duration": 0.40681818181818175,
                "tempo": 120.0
            },
            {
                "start_time": 4.218181818181818,
                "end_time": 4.518181818181818,
                "pitch": 59,
                "velocity": 101,
                "duration": 0.2999999999999998,
                "tempo": 120.0
            },
            {
                "start_time": 4.518181818181818,
                "end_time": 4.820454545454545,
                "pitch": 66,
                "velocity": 101,
                "duration": 0.3022727272727277,
                "tempo": 120.0
            },
            {
                "start_time": 4.518181818181818,
                "end_time": 4.820454545454545,
                "pitch": 66,
                "velocity": 101,
                "duration": 0.3022727272727277,
                "tempo": 120.0
            },
            {
                "start_time": 4.820454545454545,
                "end_time": 5.027272727272727,
                "pitch": 64,
                "velocity": 101,
                "duration": 0.206818181818182,
                "tempo": 120.0
            },
            {
                "start_time": 5.027272727272727,
                "end_time": 5.2340909090909085,
                "pitch": 66,
                "velocity": 101,
                "duration": 0.20681818181818112,
                "tempo": 120.0
            },
            {
                "start_time": 5.2340909090909085,
                "end_time": 5.434090909090909,
                "pitch": 67,
                "velocity": 101,
                "duration": 0.20000000000000018,
                "tempo": 120.0
            },
            {
                "start_time": 5.434090909090909,
                "end_time": 5.636363636363636,
                "pitch": 69,
                "velocity": 101,
                "duration": 0.20227272727272716,
                "tempo": 120.0
            },
            {
                "start_time": 2.1999999999999997,
                "end_time": 5.636363636363636,
                "pitch": 78,
                "velocity": 101,
                "duration": 3.436363636363636,
                "tempo": 120.0
            },
            {
                "start_time": 5.636363636363636,
                "end_time": 5.834090909090909,
                "pitch": 66,
                "velocity": 101,
                "duration": 0.1977272727272732,
                "tempo": 120.0
            },
            {
                "start_time": 5.834090909090909,
                "end_time": 6.036363636363636,
                "pitch": 67,
                "velocity": 101,
                "duration": 0.20227272727272716,
                "tempo": 120.0
            },
            {
                "start_time": 6.036363636363636,
                "end_time": 6.236363636363636,
                "pitch": 69,
                "velocity": 101,
                "duration": 0.20000000000000018,
                "tempo": 120.0
            },
            {
                "start_time": 6.236363636363636,
                "end_time": 6.4386363636363635,
                "pitch": 71,
                "velocity": 101,
                "duration": 0.20227272727272716,
                "tempo": 120.0
            },
            {
                "start_time": 6.236363636363636,
                "end_time": 6.4386363636363635,
                "pitch": 71,
                "velocity": 101,
                "duration": 0.20227272727272716,
                "tempo": 120.0
            },
            {
                "start_time": 6.4386363636363635,
                "end_time": 6.638636363636364,
                "pitch": 67,
                "velocity": 101,
                "duration": 0.20000000000000018,
                "tempo": 120.0
            },
            {
                "start_time": 6.4386363636363635,
                "end_time": 6.638636363636364,
                "pitch": 67,
                "velocity": 101,
                "duration": 0.20000000000000018,
                "tempo": 120.0
            },
            {
                "start_time": 6.638636363636364,
                "end_time": 6.838636363636363,
                "pitch": 69,
                "velocity": 101,
                "duration": 0.1999999999999993,
                "tempo": 120.0
            },
            {
                "start_time": 6.838636363636363,
                "end_time": 7.040909090909091,
                "pitch": 71,
                "velocity": 101,
                "duration": 0.20227272727272805,
                "tempo": 120.0
            },
            {
                "start_time": 6.838636363636363,
                "end_time": 7.040909090909091,
                "pitch": 71,
                "velocity": 101,
                "duration": 0.20227272727272805,
                "tempo": 120.0
            },
            {
                "start_time": 7.040909090909091,
                "end_time": 7.243181818181818,
                "pitch": 72,
                "velocity": 101,
                "duration": 0.20227272727272716,
                "tempo": 120.0
            },
            {
                "start_time": 7.243181818181818,
                "end_time": 7.4431818181818175,
                "pitch": 71,
                "velocity": 101,
                "duration": 0.1999999999999993,
                "tempo": 120.0
            },
            {
                "start_time": 7.4431818181818175,
                "end_time": 7.6454545454545455,
                "pitch": 69,
                "velocity": 101,
                "duration": 0.20227272727272805,
                "tempo": 120.0
            },
            {
                "start_time": 7.4431818181818175,
                "end_time": 7.6454545454545455,
                "pitch": 69,
                "velocity": 101,
                "duration": 0.20227272727272805,
                "tempo": 120.0
            },
            {
                "start_time": 7.6454545454545455,
                "end_time": 7.845454545454545,
                "pitch": 67,
                "velocity": 101,
                "duration": 0.1999999999999993,
                "tempo": 120.0
            },
            {
                "start_time": 5.636363636363636,
                "end_time": 7.845454545454545,
                "pitch": 78,
                "velocity": 101,
                "duration": 2.209090909090909,
                "tempo": 120.0
            },
            {
                "start_time": 4.218181818181818,
                "end_time": 8.049999999999999,
                "pitch": 44,
                "velocity": 101,
                "duration": 3.831818181818181,
                "tempo": 120.0
            },
            {
                "start_time": 7.845454545454545,
                "end_time": 8.049999999999999,
                "pitch": 66,
                "velocity": 101,
                "duration": 0.20454545454545414,
                "tempo": 120.0
            },
            {
                "start_time": 8.052272727272728,
                "end_time": 8.654545454545454,
                "pitch": 59,
                "velocity": 101,
                "duration": 0.6022727272727266,
                "tempo": 120.0
            },
            {
                "start_time": 8.654545454545454,
                "end_time": 9.254545454545454,
                "pitch": 58,
                "velocity": 101,
                "duration": 0.5999999999999996,
                "tempo": 120.0
            },
            {
                "start_time": 9.254545454545454,
                "end_time": 9.659090909090908,
                "pitch": 57,
                "velocity": 101,
                "duration": 0.4045454545454543,
                "tempo": 120.0
            },
            {
                "start_time": 7.243181818181818,
                "end_time": 10.259090909090908,
                "pitch": 56,
                "velocity": 101,
                "duration": 3.0159090909090898,
                "tempo": 120.0
            },
            {
                "start_time": 9.659090909090908,
                "end_time": 10.259090909090908,
                "pitch": 56,
                "velocity": 101,
                "duration": 0.5999999999999996,
                "tempo": 120.0
            },
            {
                "start_time": 10.259090909090908,
                "end_time": 10.863636363636363,
                "pitch": 55,
                "velocity": 101,
                "duration": 0.6045454545454554,
                "tempo": 120.0
            },
            {
                "start_time": 10.863636363636363,
                "end_time": 11.268181818181818,
                "pitch": 54,
                "velocity": 101,
                "duration": 0.4045454545454543,
                "tempo": 120.0
            },
            {
                "start_time": 11.270454545454545,
                "end_time": 11.875,
                "pitch": 59,
                "velocity": 101,
                "duration": 0.6045454545454554,
                "tempo": 120.0
            },
            {
                "start_time": 11.875,
                "end_time": 12.475,
                "pitch": 58,
                "velocity": 101,
                "duration": 0.5999999999999996,
                "tempo": 120.0
            },
            {
                "start_time": 12.475,
                "end_time": 12.879545454545454,
                "pitch": 57,
                "velocity": 101,
                "duration": 0.4045454545454543,
                "tempo": 120.0
            },
            {
                "start_time": 12.879545454545454,
                "end_time": 13.486363636363636,
                "pitch": 56,
                "velocity": 101,
                "duration": 0.6068181818181824,
                "tempo": 120.0
            },
            {
                "start_time": 13.486363636363636,
                "end_time": 14.095454545454544,
                "pitch": 55,
                "velocity": 101,
                "duration": 0.6090909090909076,
                "tempo": 120.0
            },
            {
                "start_time": 10.863636363636363,
                "end_time": 14.095454545454544,
                "pitch": 66,
                "velocity": 101,
                "duration": 3.2318181818181806,
                "tempo": 120.0
            },
            {
                "start_time": 14.095454545454544,
                "end_time": 14.502272727272727,
                "pitch": 54,
                "velocity": 101,
                "duration": 0.4068181818181831,
                "tempo": 120.0
            },
            {
                "start_time": 14.502272727272727,
                "end_time": 14.7,
                "pitch": 64,
                "velocity": 101,
                "duration": 0.1977272727272723,
                "tempo": 120.0
            },
            {
                "start_time": 14.095454545454544,
                "end_time": 14.902272727272727,
                "pitch": 66,
                "velocity": 101,
                "duration": 0.8068181818181834,
                "tempo": 120.0
            },
            {
                "start_time": 14.7,
                "end_time": 14.902272727272727,
                "pitch": 66,
                "velocity": 101,
                "duration": 0.20227272727272805,
                "tempo": 120.0
            },
            {
                "start_time": 14.902272727272727,
                "end_time": 15.102272727272727,
                "pitch": 67,
                "velocity": 101,
                "duration": 0.1999999999999993,
                "tempo": 120.0
            },
            {
                "start_time": 15.102272727272727,
                "end_time": 16.10909090909091,
                "pitch": 69,
                "velocity": 101,
                "duration": 1.0068181818181827,
                "tempo": 120.0
            },
            {
                "start_time": 16.10909090909091,
                "end_time": 16.30909090909091,
                "pitch": 62,
                "velocity": 101,
                "duration": 0.1999999999999993,
                "tempo": 120.0
            },
            {
                "start_time": 16.30909090909091,
                "end_time": 16.311363636363634,
                "pitch": 64,
                "velocity": 101,
                "duration": 0.0022727272727252057,
                "tempo": 120.0
            },
            {
                "start_time": 16.311363636363634,
                "end_time": 16.513636363636362,
                "pitch": 64,
                "velocity": 101,
                "duration": 0.20227272727272805,
                "tempo": 120.0
            },
            {
                "start_time": 16.513636363636362,
                "end_time": 16.71363636363636,
                "pitch": 66,
                "velocity": 101,
                "duration": 0.1999999999999993,
                "tempo": 120.0
            },
            {
                "start_time": 16.71363636363636,
                "end_time": 17.720454545454544,
                "pitch": 67,
                "velocity": 101,
                "duration": 1.0068181818181827,
                "tempo": 120.0
            },
            {
                "start_time": 7.040909090909091,
                "end_time": 17.720454545454544,
                "pitch": 76,
                "velocity": 101,
                "duration": 10.679545454545453,
                "tempo": 120.0
            },
            {
                "start_time": 17.720454545454544,
                "end_time": 17.925,
                "pitch": 60,
                "velocity": 101,
                "duration": 0.2045454545454568,
                "tempo": 120.0
            },
            {
                "start_time": 17.925,
                "end_time": 18.13181818181818,
                "pitch": 62,
                "velocity": 101,
                "duration": 0.20681818181817846,
                "tempo": 120.0
            },
            {
                "start_time": 18.13181818181818,
                "end_time": 18.327272727272728,
                "pitch": 64,
                "velocity": 101,
                "duration": 0.19545454545454888,
                "tempo": 120.0
            },
            {
                "start_time": 18.13181818181818,
                "end_time": 18.327272727272728,
                "pitch": 64,
                "velocity": 101,
                "duration": 0.19545454545454888,
                "tempo": 120.0
            },
            {
                "start_time": 18.327272727272728,
                "end_time": 19.34090909090909,
                "pitch": 66,
                "velocity": 101,
                "duration": 1.013636363636362,
                "tempo": 120.0
            },
            {
                "start_time": 19.53181818181818,
                "end_time": 19.738636363636363,
                "pitch": 66,
                "velocity": 80,
                "duration": 0.206818181818182,
                "tempo": 120.0
            },
            {
                "start_time": 19.738636363636363,
                "end_time": 19.938636363636363,
                "pitch": 66,
                "velocity": 80,
                "duration": 0.1999999999999993,
                "tempo": 120.0
            },
            {
                "start_time": 19.938636363636363,
                "end_time": 20.14090909090909,
                "pitch": 66,
                "velocity": 80,
                "duration": 0.20227272727272805,
                "tempo": 120.0
            },
            {
                "start_time": 20.14090909090909,
                "end_time": 20.44090909090909,
                "pitch": 67,
                "velocity": 80,
                "duration": 0.3000000000000007,
                "tempo": 120.0
            },
            {
                "start_time": 20.44090909090909,
                "end_time": 20.736363636363635,
                "pitch": 69,
                "velocity": 80,
                "duration": 0.2954545454545432,
                "tempo": 120.0
            },
            {
                "start_time": 20.736363636363635,
                "end_time": 20.738636363636363,
                "pitch": 71,
                "velocity": 80,
                "duration": 0.0022727272727287584,
                "tempo": 120.0
            },
            {
                "start_time": 20.738636363636363,
                "end_time": 20.93409090909091,
                "pitch": 71,
                "velocity": 80,
                "duration": 0.19545454545454533,
                "tempo": 120.0
            },
            {
                "start_time": 7.845454545454545,
                "end_time": 20.93409090909091,
                "pitch": 78,
                "velocity": 101,
                "duration": 13.088636363636365,
                "tempo": 120.0
            },
            {
                "start_time": 20.936363636363634,
                "end_time": 21.138636363636362,
                "pitch": 64,
                "velocity": 101,
                "duration": 0.20227272727272805,
                "tempo": 120.0
            },
            {
                "start_time": 21.138636363636362,
                "end_time": 21.345454545454544,
                "pitch": 66,
                "velocity": 101,
                "duration": 0.206818181818182,
                "tempo": 120.0
            },
            {
                "start_time": 21.345454545454544,
                "end_time": 21.545454545454543,
                "pitch": 67,
                "velocity": 101,
                "duration": 0.1999999999999993,
                "tempo": 120.0
            },
            {
                "start_time": 21.545454545454543,
                "end_time": 22.549999999999997,
                "pitch": 69,
                "velocity": 101,
                "duration": 1.004545454545454,
                "tempo": 120.0
            },
            {
                "start_time": 16.10909090909091,
                "end_time": 22.549999999999997,
                "pitch": 77,
                "velocity": 101,
                "duration": 6.440909090909088,
                "tempo": 120.0
            },
            {
                "start_time": 22.549999999999997,
                "end_time": 22.75,
                "pitch": 62,
                "velocity": 101,
                "duration": 0.20000000000000284,
                "tempo": 120.0
            },
            {
                "start_time": 22.75,
                "end_time": 22.95,
                "pitch": 64,
                "velocity": 101,
                "duration": 0.1999999999999993,
                "tempo": 120.0
            },
            {
                "start_time": 22.75,
                "end_time": 22.95,
                "pitch": 64,
                "velocity": 101,
                "duration": 0.1999999999999993,
                "tempo": 120.0
            },
            {
                "start_time": 22.95,
                "end_time": 23.152272727272727,
                "pitch": 66,
                "velocity": 101,
                "duration": 0.20227272727272805,
                "tempo": 120.0
            },
            {
                "start_time": 23.152272727272727,
                "end_time": 24.159090909090907,
                "pitch": 67,
                "velocity": 101,
                "duration": 1.0068181818181792,
                "tempo": 120.0
            },
            {
                "start_time": 17.720454545454544,
                "end_time": 24.159090909090907,
                "pitch": 76,
                "velocity": 101,
                "duration": 6.438636363636363,
                "tempo": 120.0
            },
            {
                "start_time": 24.159090909090907,
                "end_time": 24.35681818181818,
                "pitch": 60,
                "velocity": 101,
                "duration": 0.19772727272727408,
                "tempo": 120.0
            },
            {
                "start_time": 24.35681818181818,
                "end_time": 24.55909090909091,
                "pitch": 62,
                "velocity": 101,
                "duration": 0.20227272727272805,
                "tempo": 120.0
            },
            {
                "start_time": 24.55909090909091,
                "end_time": 24.75681818181818,
                "pitch": 64,
                "velocity": 101,
                "duration": 0.19772727272727053,
                "tempo": 120.0
            },
            {
                "start_time": 24.55909090909091,
                "end_time": 24.75681818181818,
                "pitch": 64,
                "velocity": 101,
                "duration": 0.19772727272727053,
                "tempo": 120.0
            },
            {
                "start_time": 24.75681818181818,
                "end_time": 25.777272727272727,
                "pitch": 66,
                "velocity": 101,
                "duration": 1.0204545454545482,
                "tempo": 120.0
            },
            {
                "start_time": 25.96363636363636,
                "end_time": 26.16590909090909,
                "pitch": 66,
                "velocity": 80,
                "duration": 0.20227272727272805,
                "tempo": 120.0
            },
            {
                "start_time": 26.16590909090909,
                "end_time": 26.36590909090909,
                "pitch": 67,
                "velocity": 80,
                "duration": 0.1999999999999993,
                "tempo": 120.0
            },
            {
                "start_time": 26.36590909090909,
                "end_time": 26.56590909090909,
                "pitch": 69,
                "velocity": 80,
                "duration": 0.20000000000000284,
                "tempo": 120.0
            },
            {
                "start_time": 24.159090909090907,
                "end_time": 26.56590909090909,
                "pitch": 76,
                "velocity": 101,
                "duration": 2.406818181818185,
                "tempo": 120.0
            },
            {
                "start_time": 26.56590909090909,
                "end_time": 26.86590909090909,
                "pitch": 72,
                "velocity": 80,
                "duration": 0.29999999999999716,
                "tempo": 120.0
            },
            {
                "start_time": 26.86590909090909,
                "end_time": 27.168181818181818,
                "pitch": 71,
                "velocity": 80,
                "duration": 0.30227272727272947,
                "tempo": 120.0
            },
            {
                "start_time": 27.168181818181818,
                "end_time": 27.370454545454542,
                "pitch": 69,
                "velocity": 80,
                "duration": 0.2022727272727245,
                "tempo": 120.0
            },
            {
                "start_time": 27.168181818181818,
                "end_time": 27.370454545454542,
                "pitch": 69,
                "velocity": 80,
                "duration": 0.2022727272727245,
                "tempo": 120.0
            },
            {
                "start_time": 27.370454545454542,
                "end_time": 27.972727272727273,
                "pitch": 59,
                "velocity": 101,
                "duration": 0.6022727272727302,
                "tempo": 120.0
            },
            {
                "start_time": 27.972727272727273,
                "end_time": 28.977272727272727,
                "pitch": 57,
                "velocity": 101,
                "duration": 1.004545454545454,
                "tempo": 120.0
            },
            {
                "start_time": 27.972727272727273,
                "end_time": 28.977272727272727,
                "pitch": 57,
                "velocity": 101,
                "duration": 1.004545454545454,
                "tempo": 120.0
            },
            {
                "start_time": 28.977272727272727,
                "end_time": 29.177272727272726,
                "pitch": 55,
                "velocity": 101,
                "duration": 0.1999999999999993,
                "tempo": 120.0
            },
            {
                "start_time": 28.977272727272727,
                "end_time": 29.177272727272726,
                "pitch": 55,
                "velocity": 101,
                "duration": 0.1999999999999993,
                "tempo": 120.0
            },
            {
                "start_time": 29.177272727272726,
                "end_time": 29.395454545454545,
                "pitch": 55,
                "velocity": 101,
                "duration": 0.2181818181818187,
                "tempo": 120.0
            },
            {
                "start_time": 11.268181818181818,
                "end_time": 30.586363636363636,
                "pitch": 32,
                "velocity": 101,
                "duration": 19.31818181818182,
                "tempo": 120.0
            },
            {
                "start_time": 29.581818181818182,
                "end_time": 30.586363636363636,
                "pitch": 54,
                "velocity": 101,
                "duration": 1.004545454545454,
                "tempo": 120.0
            },
            {
                "start_time": 30.586363636363636,
                "end_time": 31.190909090909088,
                "pitch": 59,
                "velocity": 101,
                "duration": 0.6045454545454518,
                "tempo": 120.0
            },
            {
                "start_time": 31.190909090909088,
                "end_time": 31.193181818181817,
                "pitch": 57,
                "velocity": 101,
                "duration": 0.0022727272727287584,
                "tempo": 120.0
            },
            {
                "start_time": 31.193181818181817,
                "end_time": 32.199999999999996,
                "pitch": 57,
                "velocity": 101,
                "duration": 1.0068181818181792,
                "tempo": 120.0
            },
            {
                "start_time": 32.199999999999996,
                "end_time": 32.39545454545454,
                "pitch": 55,
                "velocity": 101,
                "duration": 0.19545454545454533,
                "tempo": 120.0
            },
            {
                "start_time": 32.199999999999996,
                "end_time": 32.39545454545454,
                "pitch": 55,
                "velocity": 101,
                "duration": 0.19545454545454533,
                "tempo": 120.0
            },
            {
                "start_time": 32.39545454545454,
                "end_time": 32.60681818181818,
                "pitch": 55,
                "velocity": 101,
                "duration": 0.21136363636363598,
                "tempo": 120.0
            },
            {
                "start_time": 32.79772727272727,
                "end_time": 33.82272727272727,
                "pitch": 54,
                "velocity": 101,
                "duration": 1.0249999999999986,
                "tempo": 120.0
            },
            {
                "start_time": 26.56590909090909,
                "end_time": 34.21818181818182,
                "pitch": 76,
                "velocity": 80,
                "duration": 7.652272727272727,
                "tempo": 120.0
            },
            {
                "start_time": 34.013636363636365,
                "end_time": 34.21818181818182,
                "pitch": 76,
                "velocity": 101,
                "duration": 0.20454545454545325,
                "tempo": 120.0
            },
            {
                "start_time": 34.21818181818182,
                "end_time": 34.41590909090909,
                "pitch": 76,
                "velocity": 101,
                "duration": 0.19772727272727053,
                "tempo": 120.0
            },
            {
                "start_time": 34.41590909090909,
                "end_time": 34.611363636363635,
                "pitch": 76,
                "velocity": 101,
                "duration": 0.19545454545454533,
                "tempo": 120.0
            },
            {
                "start_time": 20.93409090909091,
                "end_time": 34.913636363636364,
                "pitch": 78,
                "velocity": 80,
                "duration": 13.979545454545455,
                "tempo": 120.0
            },
            {
                "start_time": 34.611363636363635,
                "end_time": 34.913636363636364,
                "pitch": 78,
                "velocity": 101,
                "duration": 0.30227272727272947,
                "tempo": 120.0
            },
            {
                "start_time": 34.913636363636364,
                "end_time": 35.215909090909086,
                "pitch": 79,
                "velocity": 101,
                "duration": 0.30227272727272236,
                "tempo": 120.0
            },
            {
                "start_time": 35.215909090909086,
                "end_time": 35.429545454545455,
                "pitch": 81,
                "velocity": 101,
                "duration": 0.2136363636363683,
                "tempo": 120.0
            },
            {
                "start_time": 35.62045454545454,
                "end_time": 35.82727272727273,
                "pitch": 74,
                "velocity": 101,
                "duration": 0.20681818181818556,
                "tempo": 120.0
            },
            {
                "start_time": 35.82727272727273,
                "end_time": 36.02272727272727,
                "pitch": 74,
                "velocity": 101,
                "duration": 0.19545454545454533,
                "tempo": 120.0
            },
            {
                "start_time": 36.02272727272727,
                "end_time": 36.220454545454544,
                "pitch": 74,
                "velocity": 101,
                "duration": 0.19772727272727053,
                "tempo": 120.0
            },
            {
                "start_time": 36.220454545454544,
                "end_time": 36.52045454545454,
                "pitch": 76,
                "velocity": 101,
                "duration": 0.29999999999999716,
                "tempo": 120.0
            },
            {
                "start_time": 36.220454545454544,
                "end_time": 36.52045454545454,
                "pitch": 76,
                "velocity": 101,
                "duration": 0.29999999999999716,
                "tempo": 120.0
            },
            {
                "start_time": 36.52045454545454,
                "end_time": 36.820454545454545,
                "pitch": 78,
                "velocity": 101,
                "duration": 0.30000000000000426,
                "tempo": 120.0
            },
            {
                "start_time": 36.820454545454545,
                "end_time": 37.038636363636364,
                "pitch": 79,
                "velocity": 101,
                "duration": 0.2181818181818187,
                "tempo": 120.0
            },
            {
                "start_time": 37.22954545454545,
                "end_time": 37.434090909090905,
                "pitch": 72,
                "velocity": 101,
                "duration": 0.20454545454545325,
                "tempo": 120.0
            },
            {
                "start_time": 37.434090909090905,
                "end_time": 37.63409090909091,
                "pitch": 72,
                "velocity": 101,
                "duration": 0.20000000000000284,
                "tempo": 120.0
            },
            {
                "start_time": 37.63409090909091,
                "end_time": 37.836363636363636,
                "pitch": 72,
                "velocity": 101,
                "duration": 0.20227272727272805,
                "tempo": 120.0
            },
            {
                "start_time": 37.836363636363636,
                "end_time": 38.13409090909091,
                "pitch": 74,
                "velocity": 101,
                "duration": 0.29772727272727195,
                "tempo": 120.0
            },
            {
                "start_time": 38.13409090909091,
                "end_time": 38.13636363636363,
                "pitch": 76,
                "velocity": 101,
                "duration": 0.0022727272727252057,
                "tempo": 120.0
            },
            {
                "start_time": 38.13636363636363,
                "end_time": 38.43636363636364,
                "pitch": 76,
                "velocity": 101,
                "duration": 0.30000000000000426,
                "tempo": 120.0
            },
            {
                "start_time": 38.43636363636364,
                "end_time": 38.63863636363636,
                "pitch": 78,
                "velocity": 101,
                "duration": 0.20227272727272094,
                "tempo": 120.0
            },
            {
                "start_time": 38.63863636363636,
                "end_time": 38.93863636363636,
                "pitch": 70,
                "velocity": 101,
                "duration": 0.30000000000000426,
                "tempo": 120.0
            },
            {
                "start_time": 27.370454545454542,
                "end_time": 39.23863636363636,
                "pitch": 71,
                "velocity": 80,
                "duration": 11.868181818181817,
                "tempo": 120.0
            },
            {
                "start_time": 38.93863636363636,
                "end_time": 39.23863636363636,
                "pitch": 71,
                "velocity": 101,
                "duration": 0.29999999999999716,
                "tempo": 120.0
            },
            {
                "start_time": 39.23863636363636,
                "end_time": 39.44090909090909,
                "pitch": 73,
                "velocity": 101,
                "duration": 0.20227272727272805,
                "tempo": 120.0
            },
            {
                "start_time": 39.23863636363636,
                "end_time": 39.44090909090909,
                "pitch": 76,
                "velocity": 101,
                "duration": 0.20227272727272805,
                "tempo": 120.0
            },
            {
                "start_time": 39.44090909090909,
                "end_time": 39.74090909090909,
                "pitch": 76,
                "velocity": 101,
                "duration": 0.30000000000000426,
                "tempo": 120.0
            },
            {
                "start_time": 39.44090909090909,
                "end_time": 39.74090909090909,
                "pitch": 76,
                "velocity": 101,
                "duration": 0.30000000000000426,
                "tempo": 120.0
            },
            {
                "start_time": 39.74090909090909,
                "end_time": 40.04090909090909,
                "pitch": 74,
                "velocity": 101,
                "duration": 0.29999999999999716,
                "tempo": 120.0
            },
            {
                "start_time": 39.74090909090909,
                "end_time": 40.04090909090909,
                "pitch": 74,
                "velocity": 101,
                "duration": 0.29999999999999716,
                "tempo": 120.0
            },
            {
                "start_time": 40.04090909090909,
                "end_time": 40.25454545454545,
                "pitch": 73,
                "velocity": 101,
                "duration": 0.21363636363636118,
                "tempo": 120.0
            },
            {
                "start_time": 40.44318181818181,
                "end_time": 40.643181818181816,
                "pitch": 76,
                "velocity": 101,
                "duration": 0.20000000000000284,
                "tempo": 120.0
            },
            {
                "start_time": 40.643181818181816,
                "end_time": 40.84318181818182,
                "pitch": 76,
                "velocity": 101,
                "duration": 0.20000000000000284,
                "tempo": 120.0
            },
            {
                "start_time": 40.84318181818182,
                "end_time": 41.04545454545455,
                "pitch": 76,
                "velocity": 101,
                "duration": 0.20227272727272805,
                "tempo": 120.0
            },
            {
                "start_time": 41.04545454545455,
                "end_time": 41.345454545454544,
                "pitch": 78,
                "velocity": 101,
                "duration": 0.29999999999999716,
                "tempo": 120.0
            },
            {
                "start_time": 41.345454545454544,
                "end_time": 41.64545454545454,
                "pitch": 79,
                "velocity": 101,
                "duration": 0.29999999999999716,
                "tempo": 120.0
            },
            {
                "start_time": 41.64545454545454,
                "end_time": 41.85909090909091,
                "pitch": 81,
                "velocity": 101,
                "duration": 0.2136363636363683,
                "tempo": 120.0
            },
            {
                "start_time": 42.04545454545455,
                "end_time": 42.24545454545454,
                "pitch": 74,
                "velocity": 101,
                "duration": 0.19999999999999574,
                "tempo": 120.0
            },
            {
                "start_time": 42.24545454545454,
                "end_time": 42.44772727272727,
                "pitch": 74,
                "velocity": 101,
                "duration": 0.20227272727272805,
                "tempo": 120.0
            },
            {
                "start_time": 42.44772727272727,
                "end_time": 42.65,
                "pitch": 74,
                "velocity": 101,
                "duration": 0.20227272727272805,
                "tempo": 120.0
            },
            {
                "start_time": 42.65,
                "end_time": 42.949999999999996,
                "pitch": 76,
                "velocity": 101,
                "duration": 0.29999999999999716,
                "tempo": 120.0
            },
            {
                "start_time": 42.65,
                "end_time": 42.949999999999996,
                "pitch": 76,
                "velocity": 101,
                "duration": 0.29999999999999716,
                "tempo": 120.0
            },
            {
                "start_time": 42.949999999999996,
                "end_time": 43.25,
                "pitch": 78,
                "velocity": 101,
                "duration": 0.30000000000000426,
                "tempo": 120.0
            },
            {
                "start_time": 43.25,
                "end_time": 43.465909090909086,
                "pitch": 79,
                "velocity": 101,
                "duration": 0.2159090909090864,
                "tempo": 120.0
            },
            {
                "start_time": 43.65681818181818,
                "end_time": 43.861363636363635,
                "pitch": 72,
                "velocity": 101,
                "duration": 0.20454545454545325,
                "tempo": 120.0
            },
            {
                "start_time": 43.861363636363635,
                "end_time": 44.06363636363636,
                "pitch": 72,
                "velocity": 101,
                "duration": 0.20227272727272805,
                "tempo": 120.0
            },
            {
                "start_time": 44.06363636363636,
                "end_time": 44.26590909090909,
                "pitch": 72,
                "velocity": 101,
                "duration": 0.20227272727272805,
                "tempo": 120.0
            },
            {
                "start_time": 44.26590909090909,
                "end_time": 44.56590909090909,
                "pitch": 74,
                "velocity": 101,
                "duration": 0.29999999999999716,
                "tempo": 120.0
            },
            {
                "start_time": 44.56590909090909,
                "end_time": 44.861363636363635,
                "pitch": 76,
                "velocity": 101,
                "duration": 0.29545454545454675,
                "tempo": 120.0
            },
            {
                "start_time": 44.56590909090909,
                "end_time": 44.861363636363635,
                "pitch": 76,
                "velocity": 101,
                "duration": 0.29545454545454675,
                "tempo": 120.0
            },
            {
                "start_time": 38.63863636363636,
                "end_time": 45.059090909090905,
                "pitch": 51,
                "velocity": 101,
                "duration": 6.420454545454547,
                "tempo": 120.0
            },
            {
                "start_time": 44.861363636363635,
                "end_time": 45.059090909090905,
                "pitch": 78,
                "velocity": 101,
                "duration": 0.19772727272727053,
                "tempo": 120.0
            },
            {
                "start_time": 45.059090909090905,
                "end_time": 45.36590909090909,
                "pitch": 70,
                "velocity": 101,
                "duration": 0.306818181818187,
                "tempo": 120.0
            },
            {
                "start_time": 45.36590909090909,
                "end_time": 45.66590909090909,
                "pitch": 71,
                "velocity": 101,
                "duration": 0.29999999999999716,
                "tempo": 120.0
            },
            {
                "start_time": 45.66590909090909,
                "end_time": 45.861363636363635,
                "pitch": 73,
                "velocity": 101,
                "duration": 0.19545454545454533,
                "tempo": 120.0
            },
            {
                "start_time": 45.66590909090909,
                "end_time": 45.861363636363635,
                "pitch": 76,
                "velocity": 101,
                "duration": 0.19545454545454533,
                "tempo": 120.0
            },
            {
                "start_time": 45.861363636363635,
                "end_time": 46.17045454545455,
                "pitch": 76,
                "velocity": 101,
                "duration": 0.3090909090909122,
                "tempo": 120.0
            },
            {
                "start_time": 45.861363636363635,
                "end_time": 46.17045454545455,
                "pitch": 76,
                "velocity": 101,
                "duration": 0.3090909090909122,
                "tempo": 120.0
            },
            {
                "start_time": 46.17045454545455,
                "end_time": 46.47272727272727,
                "pitch": 74,
                "velocity": 101,
                "duration": 0.30227272727272236,
                "tempo": 120.0
            },
            {
                "start_time": 46.17045454545455,
                "end_time": 46.47272727272727,
                "pitch": 74,
                "velocity": 101,
                "duration": 0.30227272727272236,
                "tempo": 120.0
            },
            {
                "start_time": 26.86590909090909,
                "end_time": 46.679545454545455,
                "pitch": 56,
                "velocity": 80,
                "duration": 19.813636363636366,
                "tempo": 120.0
            },
            {
                "start_time": 46.47272727272727,
                "end_time": 46.679545454545455,
                "pitch": 73,
                "velocity": 101,
                "duration": 0.20681818181818556,
                "tempo": 120.0
            },
            {
                "start_time": 46.679545454545455,
                "end_time": 47.28181818181818,
                "pitch": 59,
                "velocity": 101,
                "duration": 0.6022727272727266,
                "tempo": 120.0
            },
            {
                "start_time": 47.28181818181818,
                "end_time": 47.87954545454545,
                "pitch": 58,
                "velocity": 101,
                "duration": 0.5977272727272691,
                "tempo": 120.0
            },
            {
                "start_time": 47.87954545454545,
                "end_time": 48.28181818181818,
                "pitch": 57,
                "velocity": 101,
                "duration": 0.4022727272727309,
                "tempo": 120.0
            },
            {
                "start_time": 46.679545454545455,
                "end_time": 48.88181818181818,
                "pitch": 56,
                "velocity": 101,
                "duration": 2.202272727272728,
                "tempo": 120.0
            },
            {
                "start_time": 48.28181818181818,
                "end_time": 48.88181818181818,
                "pitch": 56,
                "velocity": 101,
                "duration": 0.6000000000000014,
                "tempo": 120.0
            },
            {
                "start_time": 48.88181818181818,
                "end_time": 49.48409090909091,
                "pitch": 55,
                "velocity": 101,
                "duration": 0.6022727272727266,
                "tempo": 120.0
            },
            {
                "start_time": 30.586363636363636,
                "end_time": 49.88636363636363,
                "pitch": 32,
                "velocity": 101,
                "duration": 19.299999999999997,
                "tempo": 120.0
            },
            {
                "start_time": 49.48409090909091,
                "end_time": 49.88636363636363,
                "pitch": 54,
                "velocity": 101,
                "duration": 0.4022727272727238,
                "tempo": 120.0
            },
            {
                "start_time": 49.88636363636363,
                "end_time": 50.490909090909085,
                "pitch": 59,
                "velocity": 101,
                "duration": 0.6045454545454518,
                "tempo": 120.0
            },
            {
                "start_time": 50.490909090909085,
                "end_time": 51.08863636363636,
                "pitch": 58,
                "velocity": 101,
                "duration": 0.5977272727272762,
                "tempo": 120.0
            },
            {
                "start_time": 51.08863636363636,
                "end_time": 51.48863636363636,
                "pitch": 57,
                "velocity": 101,
                "duration": 0.3999999999999986,
                "tempo": 120.0
            },
            {
                "start_time": 51.48863636363636,
                "end_time": 52.099999999999994,
                "pitch": 56,
                "velocity": 101,
                "duration": 0.6113636363636346,
                "tempo": 120.0
            },
            {
                "start_time": 52.099999999999994,
                "end_time": 52.70227272727273,
                "pitch": 55,
                "velocity": 101,
                "duration": 0.6022727272727337,
                "tempo": 120.0
            },
            {
                "start_time": 49.48409090909091,
                "end_time": 52.70227272727273,
                "pitch": 66,
                "velocity": 101,
                "duration": 3.2181818181818187,
                "tempo": 120.0
            },
            {
                "start_time": 52.70227272727273,
                "end_time": 53.0,
                "pitch": 54,
                "velocity": 101,
                "duration": 0.29772727272727195,
                "tempo": 120.0
            }
        ],
        "Electric Guitar (clean)": [
            {
                "start_time": 0.004545454545454545,
                "end_time": 0.5977272727272727,
                "pitch": 40,
                "velocity": 127,
                "duration": 0.5931818181818181,
                "tempo": 120.0
            },
            {
                "start_time": 0.5977272727272727,
                "end_time": 1.4,
                "pitch": 38,
                "velocity": 127,
                "duration": 0.8022727272727272,
                "tempo": 120.0
            },
            {
                "start_time": 0.5977272727272727,
                "end_time": 1.4,
                "pitch": 38,
                "velocity": 127,
                "duration": 0.8022727272727272,
                "tempo": 120.0
            },
            {
                "start_time": 1.4,
                "end_time": 3.0,
                "pitch": 36,
                "velocity": 127,
                "duration": 1.6,
                "tempo": 120.0
            },
            {
                "start_time": 1.4,
                "end_time": 3.0,
                "pitch": 36,
                "velocity": 127,
                "duration": 1.6,
                "tempo": 120.0
            },
            {
                "start_time": 3.0,
                "end_time": 4.818181818181818,
                "pitch": 35,
                "velocity": 127,
                "duration": 1.8181818181818183,
                "tempo": 120.0
            },
            {
                "start_time": 4.818181818181818,
                "end_time": 5.2340909090909085,
                "pitch": 40,
                "velocity": 127,
                "duration": 0.4159090909090901,
                "tempo": 120.0
            },
            {
                "start_time": 5.2340909090909085,
                "end_time": 5.634090909090909,
                "pitch": 40,
                "velocity": 127,
                "duration": 0.40000000000000036,
                "tempo": 120.0
            },
            {
                "start_time": 5.634090909090909,
                "end_time": 6.034090909090909,
                "pitch": 38,
                "velocity": 127,
                "duration": 0.40000000000000036,
                "tempo": 120.0
            },
            {
                "start_time": 5.634090909090909,
                "end_time": 6.034090909090909,
                "pitch": 38,
                "velocity": 127,
                "duration": 0.40000000000000036,
                "tempo": 120.0
            },
            {
                "start_time": 6.034090909090909,
                "end_time": 6.4386363636363635,
                "pitch": 38,
                "velocity": 127,
                "duration": 0.4045454545454543,
                "tempo": 120.0
            },
            {
                "start_time": 6.4386363636363635,
                "end_time": 6.838636363636363,
                "pitch": 36,
                "velocity": 127,
                "duration": 0.39999999999999947,
                "tempo": 120.0
            },
            {
                "start_time": 6.4386363636363635,
                "end_time": 6.838636363636363,
                "pitch": 36,
                "velocity": 127,
                "duration": 0.39999999999999947,
                "tempo": 120.0
            },
            {
                "start_time": 3.0,
                "end_time": 7.24090909090909,
                "pitch": 19,
                "velocity": 127,
                "duration": 4.24090909090909,
                "tempo": 120.0
            },
            {
                "start_time": 6.838636363636363,
                "end_time": 7.24090909090909,
                "pitch": 36,
                "velocity": 127,
                "duration": 0.40227272727272734,
                "tempo": 120.0
            },
            {
                "start_time": 7.24090909090909,
                "end_time": 7.6454545454545455,
                "pitch": 35,
                "velocity": 127,
                "duration": 0.4045454545454552,
                "tempo": 120.0
            },
            {
                "start_time": 7.6454545454545455,
                "end_time": 14.5,
                "pitch": 35,
                "velocity": 127,
                "duration": 6.8545454545454545,
                "tempo": 120.0
            },
            {
                "start_time": 4.818181818181818,
                "end_time": 14.5,
                "pitch": 42,
                "velocity": 127,
                "duration": 9.681818181818182,
                "tempo": 120.0
            },
            {
                "start_time": 14.5,
                "end_time": 14.681818181818182,
                "pitch": 40,
                "velocity": 127,
                "duration": 0.18181818181818166,
                "tempo": 120.0
            },
            {
                "start_time": 14.7,
                "end_time": 14.781818181818181,
                "pitch": 40,
                "velocity": 101,
                "duration": 0.08181818181818201,
                "tempo": 120.0
            },
            {
                "start_time": 14.799999999999999,
                "end_time": 14.881818181818181,
                "pitch": 40,
                "velocity": 101,
                "duration": 0.08181818181818201,
                "tempo": 120.0
            },
            {
                "start_time": 14.902272727272727,
                "end_time": 15.084090909090909,
                "pitch": 40,
                "velocity": 127,
                "duration": 0.18181818181818166,
                "tempo": 120.0
            },
            {
                "start_time": 15.102272727272727,
                "end_time": 15.184090909090909,
                "pitch": 40,
                "velocity": 101,
                "duration": 0.08181818181818201,
                "tempo": 120.0
            },
            {
                "start_time": 15.202272727272726,
                "end_time": 15.286363636363635,
                "pitch": 40,
                "velocity": 101,
                "duration": 0.084090909090909,
                "tempo": 120.0
            },
            {
                "start_time": 15.304545454545455,
                "end_time": 15.486363636363636,
                "pitch": 40,
                "velocity": 127,
                "duration": 0.18181818181818166,
                "tempo": 120.0
            },
            {
                "start_time": 15.504545454545454,
                "end_time": 15.586363636363636,
                "pitch": 40,
                "velocity": 101,
                "duration": 0.08181818181818201,
                "tempo": 120.0
            },
            {
                "start_time": 15.604545454545454,
                "end_time": 15.686363636363636,
                "pitch": 40,
                "velocity": 101,
                "duration": 0.08181818181818201,
                "tempo": 120.0
            },
            {
                "start_time": 15.704545454545453,
                "end_time": 15.888636363636364,
                "pitch": 40,
                "velocity": 127,
                "duration": 0.18409090909091042,
                "tempo": 120.0
            },
            {
                "start_time": 15.904545454545454,
                "end_time": 15.988636363636363,
                "pitch": 40,
                "velocity": 101,
                "duration": 0.084090909090909,
                "tempo": 120.0
            },
            {
                "start_time": 16.006818181818183,
                "end_time": 16.08863636363636,
                "pitch": 40,
                "velocity": 101,
                "duration": 0.08181818181817846,
                "tempo": 120.0
            },
            {
                "start_time": 16.10909090909091,
                "end_time": 16.29090909090909,
                "pitch": 38,
                "velocity": 127,
                "duration": 0.18181818181817988,
                "tempo": 120.0
            },
            {
                "start_time": 16.30909090909091,
                "end_time": 16.39090909090909,
                "pitch": 38,
                "velocity": 101,
                "duration": 0.08181818181818201,
                "tempo": 120.0
            },
            {
                "start_time": 16.40909090909091,
                "end_time": 16.493181818181817,
                "pitch": 38,
                "velocity": 101,
                "duration": 0.08409090909090722,
                "tempo": 120.0
            },
            {
                "start_time": 16.511363636363637,
                "end_time": 16.695454545454545,
                "pitch": 38,
                "velocity": 127,
                "duration": 0.18409090909090864,
                "tempo": 120.0
            },
            {
                "start_time": 16.71363636363636,
                "end_time": 16.795454545454543,
                "pitch": 38,
                "velocity": 101,
                "duration": 0.08181818181818201,
                "tempo": 120.0
            },
            {
                "start_time": 16.813636363636363,
                "end_time": 16.895454545454545,
                "pitch": 38,
                "velocity": 101,
                "duration": 0.08181818181818201,
                "tempo": 120.0
            },
            {
                "start_time": 16.91590909090909,
                "end_time": 17.097727272727273,
                "pitch": 38,
                "velocity": 127,
                "duration": 0.18181818181818343,
                "tempo": 120.0
            },
            {
                "start_time": 17.11590909090909,
                "end_time": 17.19772727272727,
                "pitch": 38,
                "velocity": 101,
                "duration": 0.08181818181818201,
                "tempo": 120.0
            },
            {
                "start_time": 17.21590909090909,
                "end_time": 17.3,
                "pitch": 38,
                "velocity": 101,
                "duration": 0.08409090909091077,
                "tempo": 120.0
            },
            {
                "start_time": 17.318181818181817,
                "end_time": 17.5,
                "pitch": 38,
                "velocity": 127,
                "duration": 0.18181818181818343,
                "tempo": 120.0
            },
            {
                "start_time": 17.51590909090909,
                "end_time": 17.599999999999998,
                "pitch": 38,
                "velocity": 101,
                "duration": 0.08409090909090722,
                "tempo": 120.0
            },
            {
                "start_time": 17.61590909090909,
                "end_time": 17.7,
                "pitch": 38,
                "velocity": 101,
                "duration": 0.08409090909091077,
                "tempo": 120.0
            },
            {
                "start_time": 17.71818181818182,
                "end_time": 17.904545454545453,
                "pitch": 36,
                "velocity": 127,
                "duration": 0.18636363636363384,
                "tempo": 120.0
            },
            {
                "start_time": 17.922727272727272,
                "end_time": 18.00681818181818,
                "pitch": 36,
                "velocity": 101,
                "duration": 0.08409090909090722,
                "tempo": 120.0
            },
            {
                "start_time": 18.025,
                "end_time": 18.111363636363635,
                "pitch": 36,
                "velocity": 101,
                "duration": 0.08636363636363598,
                "tempo": 120.0
            },
            {
                "start_time": 18.129545454545454,
                "end_time": 18.30681818181818,
                "pitch": 36,
                "velocity": 127,
                "duration": 0.17727272727272592,
                "tempo": 120.0
            },
            {
                "start_time": 18.325,
                "end_time": 18.40681818181818,
                "pitch": 36,
                "velocity": 101,
                "duration": 0.08181818181818201,
                "tempo": 120.0
            },
            {
                "start_time": 18.422727272727272,
                "end_time": 18.504545454545454,
                "pitch": 36,
                "velocity": 101,
                "duration": 0.08181818181818201,
                "tempo": 120.0
            },
            {
                "start_time": 18.522727272727273,
                "end_time": 18.709090909090907,
                "pitch": 36,
                "velocity": 127,
                "duration": 0.18636363636363384,
                "tempo": 120.0
            },
            {
                "start_time": 18.727272727272727,
                "end_time": 18.811363636363634,
                "pitch": 36,
                "velocity": 101,
                "duration": 0.08409090909090722,
                "tempo": 120.0
            },
            {
                "start_time": 18.829545454545453,
                "end_time": 18.913636363636364,
                "pitch": 36,
                "velocity": 101,
                "duration": 0.08409090909091077,
                "tempo": 120.0
            },
            {
                "start_time": 18.93181818181818,
                "end_time": 19.111363636363635,
                "pitch": 36,
                "velocity": 127,
                "duration": 0.17954545454545467,
                "tempo": 120.0
            },
            {
                "start_time": 19.127272727272725,
                "end_time": 19.209090909090907,
                "pitch": 36,
                "velocity": 101,
                "duration": 0.08181818181818201,
                "tempo": 120.0
            },
            {
                "start_time": 19.227272727272727,
                "end_time": 19.30681818181818,
                "pitch": 36,
                "velocity": 101,
                "duration": 0.07954545454545325,
                "tempo": 120.0
            },
            {
                "start_time": 19.327272727272728,
                "end_time": 19.511363636363637,
                "pitch": 35,
                "velocity": 127,
                "duration": 0.18409090909090864,
                "tempo": 120.0
            },
            {
                "start_time": 19.53181818181818,
                "end_time": 19.61590909090909,
                "pitch": 35,
                "velocity": 101,
                "duration": 0.08409090909090722,
                "tempo": 120.0
            },
            {
                "start_time": 19.63181818181818,
                "end_time": 19.71818181818182,
                "pitch": 35,
                "velocity": 101,
                "duration": 0.08636363636363953,
                "tempo": 120.0
            },
            {
                "start_time": 19.736363636363635,
                "end_time": 19.920454545454543,
                "pitch": 35,
                "velocity": 127,
                "duration": 0.18409090909090864,
                "tempo": 120.0
            },
            {
                "start_time": 19.938636363636363,
                "end_time": 20.020454545454545,
                "pitch": 35,
                "velocity": 101,
                "duration": 0.08181818181818201,
                "tempo": 120.0
            },
            {
                "start_time": 20.038636363636364,
                "end_time": 20.12272727272727,
                "pitch": 35,
                "velocity": 101,
                "duration": 0.08409090909090722,
                "tempo": 120.0
            },
            {
                "start_time": 20.14090909090909,
                "end_time": 20.222727272727273,
                "pitch": 35,
                "velocity": 101,
                "duration": 0.08181818181818201,
                "tempo": 120.0
            },
            {
                "start_time": 20.238636363636363,
                "end_time": 20.32272727272727,
                "pitch": 35,
                "velocity": 101,
                "duration": 0.08409090909090722,
                "tempo": 120.0
            },
            {
                "start_time": 20.33863636363636,
                "end_time": 20.422727272727272,
                "pitch": 35,
                "velocity": 101,
                "duration": 0.08409090909091077,
                "tempo": 120.0
            },
            {
                "start_time": 20.44090909090909,
                "end_time": 20.522727272727273,
                "pitch": 35,
                "velocity": 101,
                "duration": 0.08181818181818201,
                "tempo": 120.0
            },
            {
                "start_time": 20.538636363636364,
                "end_time": 20.620454545454546,
                "pitch": 36,
                "velocity": 101,
                "duration": 0.08181818181818201,
                "tempo": 120.0
            },
            {
                "start_time": 20.638636363636362,
                "end_time": 20.71818181818182,
                "pitch": 36,
                "velocity": 101,
                "duration": 0.0795454545454568,
                "tempo": 120.0
            },
            {
                "start_time": 20.736363636363635,
                "end_time": 20.818181818181817,
                "pitch": 38,
                "velocity": 101,
                "duration": 0.08181818181818201,
                "tempo": 120.0
            },
            {
                "start_time": 20.834090909090907,
                "end_time": 20.91590909090909,
                "pitch": 38,
                "velocity": 101,
                "duration": 0.08181818181818201,
                "tempo": 120.0
            },
            {
                "start_time": 20.93409090909091,
                "end_time": 21.120454545454546,
                "pitch": 40,
                "velocity": 127,
                "duration": 0.1863636363636374,
                "tempo": 120.0
            },
            {
                "start_time": 21.138636363636362,
                "end_time": 21.222727272727273,
                "pitch": 40,
                "velocity": 101,
                "duration": 0.08409090909091077,
                "tempo": 120.0
            },
            {
                "start_time": 21.24090909090909,
                "end_time": 21.325,
                "pitch": 40,
                "velocity": 101,
                "duration": 0.08409090909091077,
                "tempo": 120.0
            },
            {
                "start_time": 21.345454545454544,
                "end_time": 21.527272727272727,
                "pitch": 40,
                "velocity": 127,
                "duration": 0.18181818181818343,
                "tempo": 120.0
            },
            {
                "start_time": 21.545454545454543,
                "end_time": 21.627272727272725,
                "pitch": 40,
                "velocity": 101,
                "duration": 0.08181818181818201,
                "tempo": 120.0
            },
            {
                "start_time": 21.643181818181816,
                "end_time": 21.727272727272727,
                "pitch": 40,
                "velocity": 101,
                "duration": 0.08409090909091077,
                "tempo": 120.0
            },
            {
                "start_time": 21.745454545454546,
                "end_time": 21.927272727272726,
                "pitch": 40,
                "velocity": 127,
                "duration": 0.18181818181817988,
                "tempo": 120.0
            },
            {
                "start_time": 21.945454545454545,
                "end_time": 22.029545454545453,
                "pitch": 40,
                "velocity": 101,
                "duration": 0.08409090909090722,
                "tempo": 120.0
            },
            {
                "start_time": 22.045454545454543,
                "end_time": 22.129545454545454,
                "pitch": 40,
                "velocity": 101,
                "duration": 0.08409090909091077,
                "tempo": 120.0
            },
            {
                "start_time": 22.147727272727273,
                "end_time": 22.329545454545453,
                "pitch": 40,
                "velocity": 127,
                "duration": 0.18181818181817988,
                "tempo": 120.0
            },
            {
                "start_time": 22.347727272727273,
                "end_time": 22.429545454545455,
                "pitch": 40,
                "velocity": 101,
                "duration": 0.08181818181818201,
                "tempo": 120.0
            },
            {
                "start_time": 22.44772727272727,
                "end_time": 22.529545454545453,
                "pitch": 40,
                "velocity": 101,
                "duration": 0.08181818181818201,
                "tempo": 120.0
            },
            {
                "start_time": 22.549999999999997,
                "end_time": 22.73181818181818,
                "pitch": 38,
                "velocity": 127,
                "duration": 0.18181818181818343,
                "tempo": 120.0
            },
            {
                "start_time": 22.75,
                "end_time": 22.831818181818182,
                "pitch": 38,
                "velocity": 101,
                "duration": 0.08181818181818201,
                "tempo": 120.0
            },
            {
                "start_time": 22.847727272727273,
                "end_time": 22.93181818181818,
                "pitch": 38,
                "velocity": 101,
                "duration": 0.08409090909090722,
                "tempo": 120.0
            },
            {
                "start_time": 22.95,
                "end_time": 23.13181818181818,
                "pitch": 38,
                "velocity": 127,
                "duration": 0.18181818181817988,
                "tempo": 120.0
            },
            {
                "start_time": 23.15,
                "end_time": 23.23409090909091,
                "pitch": 38,
                "velocity": 101,
                "duration": 0.08409090909091077,
                "tempo": 120.0
            },
            {
                "start_time": 23.25,
                "end_time": 23.334090909090907,
                "pitch": 38,
                "velocity": 101,
                "duration": 0.08409090909090722,
                "tempo": 120.0
            },
            {
                "start_time": 23.352272727272727,
                "end_time": 23.534090909090907,
                "pitch": 38,
                "velocity": 127,
                "duration": 0.18181818181817988,
                "tempo": 120.0
            },
            {
                "start_time": 23.552272727272726,
                "end_time": 23.634090909090908,
                "pitch": 38,
                "velocity": 101,
                "duration": 0.08181818181818201,
                "tempo": 120.0
            },
            {
                "start_time": 23.652272727272727,
                "end_time": 23.73409090909091,
                "pitch": 38,
                "velocity": 101,
                "duration": 0.08181818181818201,
                "tempo": 120.0
            },
            {
                "start_time": 23.752272727272725,
                "end_time": 23.936363636363634,
                "pitch": 38,
                "velocity": 127,
                "duration": 0.18409090909090864,
                "tempo": 120.0
            },
            {
                "start_time": 23.954545454545453,
                "end_time": 24.036363636363635,
                "pitch": 38,
                "velocity": 101,
                "duration": 0.08181818181818201,
                "tempo": 120.0
            },
            {
                "start_time": 24.054545454545455,
                "end_time": 24.138636363636362,
                "pitch": 38,
                "velocity": 101,
                "duration": 0.08409090909090722,
                "tempo": 120.0
            },
            {
                "start_time": 24.15681818181818,
                "end_time": 24.33863636363636,
                "pitch": 36,
                "velocity": 127,
                "duration": 0.18181818181817988,
                "tempo": 120.0
            },
            {
                "start_time": 24.35681818181818,
                "end_time": 24.438636363636363,
                "pitch": 36,
                "velocity": 101,
                "duration": 0.08181818181818201,
                "tempo": 120.0
            },
            {
                "start_time": 24.454545454545453,
                "end_time": 24.538636363636364,
                "pitch": 36,
                "velocity": 101,
                "duration": 0.08409090909091077,
                "tempo": 120.0
            },
            {
                "start_time": 24.55681818181818,
                "end_time": 24.738636363636363,
                "pitch": 36,
                "velocity": 127,
                "duration": 0.18181818181818343,
                "tempo": 120.0
            },
            {
                "start_time": 24.75681818181818,
                "end_time": 24.83863636363636,
                "pitch": 36,
                "velocity": 101,
                "duration": 0.08181818181818201,
                "tempo": 120.0
            },
            {
                "start_time": 24.85681818181818,
                "end_time": 24.938636363636363,
                "pitch": 36,
                "velocity": 101,
                "duration": 0.08181818181818201,
                "tempo": 120.0
            },
            {
                "start_time": 24.956818181818182,
                "end_time": 25.14090909090909,
                "pitch": 36,
                "velocity": 127,
                "duration": 0.18409090909090864,
                "tempo": 120.0
            },
            {
                "start_time": 25.15681818181818,
                "end_time": 25.24090909090909,
                "pitch": 36,
                "velocity": 101,
                "duration": 0.08409090909090722,
                "tempo": 120.0
            },
            {
                "start_time": 25.259090909090908,
                "end_time": 25.34318181818182,
                "pitch": 36,
                "velocity": 101,
                "duration": 0.08409090909091077,
                "tempo": 120.0
            },
            {
                "start_time": 25.361363636363635,
                "end_time": 25.543181818181818,
                "pitch": 36,
                "velocity": 127,
                "duration": 0.18181818181818343,
                "tempo": 120.0
            },
            {
                "start_time": 25.55909090909091,
                "end_time": 25.643181818181816,
                "pitch": 36,
                "velocity": 101,
                "duration": 0.08409090909090722,
                "tempo": 120.0
            },
            {
                "start_time": 25.659090909090907,
                "end_time": 25.743181818181817,
                "pitch": 36,
                "velocity": 101,
                "duration": 0.08409090909091077,
                "tempo": 120.0
            },
            {
                "start_time": 25.761363636363637,
                "end_time": 25.943181818181817,
                "pitch": 35,
                "velocity": 127,
                "duration": 0.18181818181817988,
                "tempo": 120.0
            },
            {
                "start_time": 25.961363636363636,
                "end_time": 26.045454545454543,
                "pitch": 35,
                "velocity": 101,
                "duration": 0.08409090909090722,
                "tempo": 120.0
            },
            {
                "start_time": 26.061363636363634,
                "end_time": 26.145454545454545,
                "pitch": 35,
                "velocity": 101,
                "duration": 0.08409090909091077,
                "tempo": 120.0
            },
            {
                "start_time": 26.16590909090909,
                "end_time": 26.345454545454544,
                "pitch": 35,
                "velocity": 127,
                "duration": 0.17954545454545467,
                "tempo": 120.0
            },
            {
                "start_time": 26.363636363636363,
                "end_time": 26.445454545454545,
                "pitch": 35,
                "velocity": 101,
                "duration": 0.08181818181818201,
                "tempo": 120.0
            },
            {
                "start_time": 26.46363636363636,
                "end_time": 26.545454545454543,
                "pitch": 35,
                "velocity": 101,
                "duration": 0.08181818181818201,
                "tempo": 120.0
            },
            {
                "start_time": 26.56590909090909,
                "end_time": 26.64772727272727,
                "pitch": 35,
                "velocity": 101,
                "duration": 0.08181818181817846,
                "tempo": 120.0
            },
            {
                "start_time": 26.663636363636364,
                "end_time": 26.74772727272727,
                "pitch": 35,
                "velocity": 101,
                "duration": 0.08409090909090722,
                "tempo": 120.0
            },
            {
                "start_time": 26.763636363636362,
                "end_time": 26.847727272727273,
                "pitch": 47,
                "velocity": 101,
                "duration": 0.08409090909091077,
                "tempo": 120.0
            },
            {
                "start_time": 26.86590909090909,
                "end_time": 26.94772727272727,
                "pitch": 47,
                "velocity": 101,
                "duration": 0.08181818181818201,
                "tempo": 120.0
            },
            {
                "start_time": 26.96363636363636,
                "end_time": 27.047727272727272,
                "pitch": 36,
                "velocity": 101,
                "duration": 0.08409090909091077,
                "tempo": 120.0
            },
            {
                "start_time": 27.06590909090909,
                "end_time": 27.14772727272727,
                "pitch": 48,
                "velocity": 101,
                "duration": 0.08181818181817846,
                "tempo": 120.0
            },
            {
                "start_time": 27.16590909090909,
                "end_time": 27.25,
                "pitch": 38,
                "velocity": 101,
                "duration": 0.08409090909091077,
                "tempo": 120.0
            },
            {
                "start_time": 27.26590909090909,
                "end_time": 27.349999999999998,
                "pitch": 50,
                "velocity": 101,
                "duration": 0.08409090909090722,
                "tempo": 120.0
            },
            {
                "start_time": 27.368181818181817,
                "end_time": 27.45,
                "pitch": 40,
                "velocity": 101,
                "duration": 0.08181818181818201,
                "tempo": 120.0
            },
            {
                "start_time": 27.468181818181815,
                "end_time": 27.549999999999997,
                "pitch": 40,
                "velocity": 101,
                "duration": 0.08181818181818201,
                "tempo": 120.0
            },
            {
                "start_time": 27.568181818181817,
                "end_time": 27.65,
                "pitch": 40,
                "velocity": 101,
                "duration": 0.08181818181818201,
                "tempo": 120.0
            },
            {
                "start_time": 27.668181818181818,
                "end_time": 27.75,
                "pitch": 40,
                "velocity": 101,
                "duration": 0.08181818181818201,
                "tempo": 120.0
            },
            {
                "start_time": 27.768181818181816,
                "end_time": 27.952272727272724,
                "pitch": 40,
                "velocity": 101,
                "duration": 0.18409090909090864,
                "tempo": 120.0
            },
            {
                "start_time": 27.970454545454544,
                "end_time": 28.563636363636363,
                "pitch": 38,
                "velocity": 101,
                "duration": 0.5931818181818187,
                "tempo": 120.0
            },
            {
                "start_time": 28.581818181818182,
                "end_time": 28.959090909090907,
                "pitch": 26,
                "velocity": 127,
                "duration": 0.3772727272727252,
                "tempo": 120.0
            },
            {
                "start_time": 28.974999999999998,
                "end_time": 29.05909090909091,
                "pitch": 36,
                "velocity": 101,
                "duration": 0.08409090909091077,
                "tempo": 120.0
            },
            {
                "start_time": 29.075,
                "end_time": 29.159090909090907,
                "pitch": 36,
                "velocity": 101,
                "duration": 0.08409090909090722,
                "tempo": 120.0
            },
            {
                "start_time": 29.177272727272726,
                "end_time": 29.259090909090908,
                "pitch": 36,
                "velocity": 101,
                "duration": 0.08181818181818201,
                "tempo": 120.0
            },
            {
                "start_time": 29.277272727272727,
                "end_time": 29.361363636363635,
                "pitch": 36,
                "velocity": 101,
                "duration": 0.08409090909090722,
                "tempo": 120.0
            },
            {
                "start_time": 29.379545454545454,
                "end_time": 29.561363636363634,
                "pitch": 36,
                "velocity": 101,
                "duration": 0.18181818181817988,
                "tempo": 120.0
            },
            {
                "start_time": 29.579545454545453,
                "end_time": 29.96363636363636,
                "pitch": 35,
                "velocity": 101,
                "duration": 0.38409090909090793,
                "tempo": 120.0
            },
            {
                "start_time": 29.979545454545452,
                "end_time": 30.063636363636363,
                "pitch": 23,
                "velocity": 101,
                "duration": 0.08409090909091077,
                "tempo": 120.0
            },
            {
                "start_time": 30.18181818181818,
                "end_time": 30.565909090909088,
                "pitch": 23,
                "velocity": 127,
                "duration": 0.38409090909090793,
                "tempo": 120.0
            },
            {
                "start_time": 30.584090909090907,
                "end_time": 30.668181818181818,
                "pitch": 40,
                "velocity": 101,
                "duration": 0.08409090909091077,
                "tempo": 120.0
            },
            {
                "start_time": 30.68409090909091,
                "end_time": 30.770454545454545,
                "pitch": 40,
                "velocity": 101,
                "duration": 0.08636363636363598,
                "tempo": 120.0
            },
            {
                "start_time": 30.78863636363636,
                "end_time": 30.87272727272727,
                "pitch": 40,
                "velocity": 101,
                "duration": 0.08409090909091077,
                "tempo": 120.0
            },
            {
                "start_time": 30.89090909090909,
                "end_time": 30.974999999999998,
                "pitch": 40,
                "velocity": 101,
                "duration": 0.08409090909090722,
                "tempo": 120.0
            },
            {
                "start_time": 30.993181818181817,
                "end_time": 31.172727272727272,
                "pitch": 40,
                "velocity": 101,
                "duration": 0.17954545454545467,
                "tempo": 120.0
            },
            {
                "start_time": 31.190909090909088,
                "end_time": 31.770454545454545,
                "pitch": 38,
                "velocity": 101,
                "duration": 0.5795454545454568,
                "tempo": 120.0
            },
            {
                "start_time": 31.786363636363635,
                "end_time": 32.179545454545455,
                "pitch": 26,
                "velocity": 127,
                "duration": 0.3931818181818194,
                "tempo": 120.0
            },
            {
                "start_time": 32.199999999999996,
                "end_time": 32.279545454545456,
                "pitch": 36,
                "velocity": 101,
                "duration": 0.07954545454546036,
                "tempo": 120.0
            },
            {
                "start_time": 32.29545454545455,
                "end_time": 32.377272727272725,
                "pitch": 36,
                "velocity": 101,
                "duration": 0.08181818181817846,
                "tempo": 120.0
            },
            {
                "start_time": 32.39545454545454,
                "end_time": 32.475,
                "pitch": 36,
                "velocity": 101,
                "duration": 0.07954545454546036,
                "tempo": 120.0
            },
            {
                "start_time": 32.49318181818182,
                "end_time": 32.57272727272727,
                "pitch": 36,
                "velocity": 101,
                "duration": 0.07954545454545325,
                "tempo": 120.0
            },
            {
                "start_time": 32.590909090909086,
                "end_time": 32.779545454545456,
                "pitch": 36,
                "velocity": 101,
                "duration": 0.1886363636363697,
                "tempo": 120.0
            },
            {
                "start_time": 32.79772727272727,
                "end_time": 33.18181818181818,
                "pitch": 35,
                "velocity": 101,
                "duration": 0.38409090909090793,
                "tempo": 120.0
            },
            {
                "start_time": 33.19772727272727,
                "end_time": 33.279545454545456,
                "pitch": 23,
                "velocity": 101,
                "duration": 0.08181818181818556,
                "tempo": 120.0
            },
            {
                "start_time": 33.29545454545455,
                "end_time": 33.377272727272725,
                "pitch": 23,
                "velocity": 101,
                "duration": 0.08181818181817846,
                "tempo": 120.0
            },
            {
                "start_time": 33.39545454545454,
                "end_time": 33.788636363636364,
                "pitch": 23,
                "velocity": 127,
                "duration": 0.39318181818182296,
                "tempo": 120.0
            },
            {
                "start_time": 33.809090909090905,
                "end_time": 33.89090909090909,
                "pitch": 40,
                "velocity": 101,
                "duration": 0.08181818181818556,
                "tempo": 120.0
            },
            {
                "start_time": 33.90909090909091,
                "end_time": 33.99318181818182,
                "pitch": 40,
                "velocity": 101,
                "duration": 0.08409090909091077,
                "tempo": 120.0
            },
            {
                "start_time": 34.01136363636363,
                "end_time": 34.095454545454544,
                "pitch": 52,
                "velocity": 101,
                "duration": 0.08409090909091077,
                "tempo": 120.0
            },
            {
                "start_time": 34.11363636363636,
                "end_time": 34.199999999999996,
                "pitch": 52,
                "velocity": 101,
                "duration": 0.08636363636363598,
                "tempo": 120.0
            },
            {
                "start_time": 34.21818181818182,
                "end_time": 34.29772727272727,
                "pitch": 40,
                "velocity": 101,
                "duration": 0.07954545454545325,
                "tempo": 120.0
            },
            {
                "start_time": 34.31590909090909,
                "end_time": 34.39772727272727,
                "pitch": 40,
                "velocity": 101,
                "duration": 0.08181818181818556,
                "tempo": 120.0
            },
            {
                "start_time": 34.413636363636364,
                "end_time": 34.49545454545454,
                "pitch": 52,
                "velocity": 101,
                "duration": 0.08181818181817846,
                "tempo": 120.0
            },
            {
                "start_time": 34.51136363636363,
                "end_time": 34.59318181818182,
                "pitch": 40,
                "velocity": 101,
                "duration": 0.08181818181818556,
                "tempo": 120.0
            },
            {
                "start_time": 34.611363636363635,
                "end_time": 34.69318181818181,
                "pitch": 40,
                "velocity": 101,
                "duration": 0.08181818181817846,
                "tempo": 120.0
            },
            {
                "start_time": 34.711363636363636,
                "end_time": 34.793181818181814,
                "pitch": 40,
                "velocity": 101,
                "duration": 0.08181818181817846,
                "tempo": 120.0
            },
            {
                "start_time": 34.81136363636364,
                "end_time": 34.89545454545454,
                "pitch": 52,
                "velocity": 101,
                "duration": 0.08409090909090366,
                "tempo": 120.0
            },
            {
                "start_time": 34.913636363636364,
                "end_time": 34.99545454545454,
                "pitch": 52,
                "velocity": 101,
                "duration": 0.08181818181817846,
                "tempo": 120.0
            },
            {
                "start_time": 35.013636363636365,
                "end_time": 35.095454545454544,
                "pitch": 40,
                "velocity": 101,
                "duration": 0.08181818181817846,
                "tempo": 120.0
            },
            {
                "start_time": 35.11363636363636,
                "end_time": 35.195454545454545,
                "pitch": 40,
                "velocity": 101,
                "duration": 0.08181818181818556,
                "tempo": 120.0
            },
            {
                "start_time": 35.21363636363636,
                "end_time": 35.29545454545455,
                "pitch": 52,
                "velocity": 101,
                "duration": 0.08181818181818556,
                "tempo": 120.0
            },
            {
                "start_time": 35.31363636363636,
                "end_time": 35.39545454545454,
                "pitch": 40,
                "velocity": 101,
                "duration": 0.08181818181817846,
                "tempo": 120.0
            },
            {
                "start_time": 35.41590909090909,
                "end_time": 35.49772727272727,
                "pitch": 38,
                "velocity": 101,
                "duration": 0.08181818181817846,
                "tempo": 120.0
            },
            {
                "start_time": 35.51590909090909,
                "end_time": 35.60227272727273,
                "pitch": 38,
                "velocity": 101,
                "duration": 0.08636363636363598,
                "tempo": 120.0
            },
            {
                "start_time": 35.62045454545454,
                "end_time": 35.70454545454545,
                "pitch": 50,
                "velocity": 101,
                "duration": 0.08409090909091077,
                "tempo": 120.0
            },
            {
                "start_time": 35.72272727272727,
                "end_time": 35.80681818181818,
                "pitch": 50,
                "velocity": 101,
                "duration": 0.08409090909091077,
                "tempo": 120.0
            },
            {
                "start_time": 35.824999999999996,
                "end_time": 35.90681818181818,
                "pitch": 38,
                "velocity": 101,
                "duration": 0.08181818181818556,
                "tempo": 120.0
            },
            {
                "start_time": 35.92272727272727,
                "end_time": 36.00454545454545,
                "pitch": 38,
                "velocity": 101,
                "duration": 0.08181818181817846,
                "tempo": 120.0
            },
            {
                "start_time": 36.02272727272727,
                "end_time": 36.10227272727273,
                "pitch": 50,
                "velocity": 101,
                "duration": 0.07954545454545325,
                "tempo": 120.0
            },
            {
                "start_time": 36.12045454545454,
                "end_time": 36.199999999999996,
                "pitch": 38,
                "velocity": 101,
                "duration": 0.07954545454545325,
                "tempo": 120.0
            },
            {
                "start_time": 36.21818181818182,
                "end_time": 36.3,
                "pitch": 38,
                "velocity": 101,
                "duration": 0.08181818181817846,
                "tempo": 120.0
            },
            {
                "start_time": 36.31818181818181,
                "end_time": 36.4,
                "pitch": 38,
                "velocity": 101,
                "duration": 0.08181818181818556,
                "tempo": 120.0
            },
            {
                "start_time": 36.418181818181814,
                "end_time": 36.5,
                "pitch": 50,
                "velocity": 101,
                "duration": 0.08181818181818556,
                "tempo": 120.0
            },
            {
                "start_time": 36.518181818181816,
                "end_time": 36.6,
                "pitch": 50,
                "velocity": 101,
                "duration": 0.08181818181818556,
                "tempo": 120.0
            },
            {
                "start_time": 36.61818181818182,
                "end_time": 36.70227272727273,
                "pitch": 38,
                "velocity": 101,
                "duration": 0.08409090909091077,
                "tempo": 120.0
            },
            {
                "start_time": 36.71818181818182,
                "end_time": 36.80227272727272,
                "pitch": 38,
                "velocity": 101,
                "duration": 0.08409090909090366,
                "tempo": 120.0
            },
            {
                "start_time": 36.820454545454545,
                "end_time": 36.902272727272724,
                "pitch": 50,
                "velocity": 101,
                "duration": 0.08181818181817846,
                "tempo": 120.0
            },
            {
                "start_time": 36.92045454545455,
                "end_time": 37.00454545454545,
                "pitch": 38,
                "velocity": 101,
                "duration": 0.08409090909090366,
                "tempo": 120.0
            },
            {
                "start_time": 37.02272727272727,
                "end_time": 37.10681818181818,
                "pitch": 36,
                "velocity": 101,
                "duration": 0.08409090909090366,
                "tempo": 120.0
            },
            {
                "start_time": 37.12272727272727,
                "end_time": 37.20909090909091,
                "pitch": 36,
                "velocity": 101,
                "duration": 0.08636363636364308,
                "tempo": 120.0
            },
            {
                "start_time": 37.22727272727273,
                "end_time": 37.31136363636364,
                "pitch": 48,
                "velocity": 101,
                "duration": 0.08409090909091077,
                "tempo": 120.0
            },
            {
                "start_time": 37.32954545454545,
                "end_time": 37.41590909090909,
                "pitch": 48,
                "velocity": 101,
                "duration": 0.08636363636363598,
                "tempo": 120.0
            },
            {
                "start_time": 37.434090909090905,
                "end_time": 37.51590909090909,
                "pitch": 36,
                "velocity": 101,
                "duration": 0.08181818181818556,
                "tempo": 120.0
            },
            {
                "start_time": 37.53181818181818,
                "end_time": 37.61590909090909,
                "pitch": 36,
                "velocity": 101,
                "duration": 0.08409090909091077,
                "tempo": 120.0
            },
            {
                "start_time": 37.63409090909091,
                "end_time": 37.715909090909086,
                "pitch": 48,
                "velocity": 101,
                "duration": 0.08181818181817846,
                "tempo": 120.0
            },
            {
                "start_time": 37.73409090909091,
                "end_time": 37.81590909090909,
                "pitch": 36,
                "velocity": 101,
                "duration": 0.08181818181817846,
                "tempo": 120.0
            },
            {
                "start_time": 37.83409090909091,
                "end_time": 37.91590909090909,
                "pitch": 36,
                "velocity": 101,
                "duration": 0.08181818181817846,
                "tempo": 120.0
            },
            {
                "start_time": 37.934090909090905,
                "end_time": 38.01590909090909,
                "pitch": 36,
                "velocity": 101,
                "duration": 0.08181818181818556,
                "tempo": 120.0
            },
            {
                "start_time": 38.03409090909091,
                "end_time": 38.11590909090909,
                "pitch": 48,
                "velocity": 101,
                "duration": 0.08181818181818556,
                "tempo": 120.0
            },
            {
                "start_time": 38.13409090909091,
                "end_time": 38.215909090909086,
                "pitch": 48,
                "velocity": 101,
                "duration": 0.08181818181817846,
                "tempo": 120.0
            },
            {
                "start_time": 38.23409090909091,
                "end_time": 38.31818181818181,
                "pitch": 36,
                "velocity": 101,
                "duration": 0.08409090909090366,
                "tempo": 120.0
            },
            {
                "start_time": 38.33409090909091,
                "end_time": 38.418181818181814,
                "pitch": 36,
                "velocity": 101,
                "duration": 0.08409090909090366,
                "tempo": 120.0
            },
            {
                "start_time": 38.43636363636364,
                "end_time": 38.518181818181816,
                "pitch": 48,
                "velocity": 101,
                "duration": 0.08181818181817846,
                "tempo": 120.0
            },
            {
                "start_time": 38.53636363636363,
                "end_time": 38.62045454545454,
                "pitch": 36,
                "velocity": 101,
                "duration": 0.08409090909091077,
                "tempo": 120.0
            },
            {
                "start_time": 38.63863636363636,
                "end_time": 38.720454545454544,
                "pitch": 35,
                "velocity": 101,
                "duration": 0.08181818181818556,
                "tempo": 120.0
            },
            {
                "start_time": 38.736363636363635,
                "end_time": 38.820454545454545,
                "pitch": 35,
                "velocity": 101,
                "duration": 0.08409090909091077,
                "tempo": 120.0
            },
            {
                "start_time": 38.836363636363636,
                "end_time": 38.92045454545455,
                "pitch": 47,
                "velocity": 101,
                "duration": 0.08409090909091077,
                "tempo": 120.0
            },
            {
                "start_time": 38.93863636363636,
                "end_time": 39.02045454545454,
                "pitch": 47,
                "velocity": 101,
                "duration": 0.08181818181817846,
                "tempo": 120.0
            },
            {
                "start_time": 39.038636363636364,
                "end_time": 39.12045454545454,
                "pitch": 35,
                "velocity": 101,
                "duration": 0.08181818181817846,
                "tempo": 120.0
            },
            {
                "start_time": 39.13863636363636,
                "end_time": 39.220454545454544,
                "pitch": 35,
                "velocity": 101,
                "duration": 0.08181818181818556,
                "tempo": 120.0
            },
            {
                "start_time": 39.23863636363636,
                "end_time": 39.320454545454545,
                "pitch": 47,
                "velocity": 101,
                "duration": 0.08181818181818556,
                "tempo": 120.0
            },
            {
                "start_time": 39.33863636363636,
                "end_time": 39.42045454545455,
                "pitch": 35,
                "velocity": 101,
                "duration": 0.08181818181818556,
                "tempo": 120.0
            },
            {
                "start_time": 39.43863636363636,
                "end_time": 39.52045454545454,
                "pitch": 35,
                "velocity": 101,
                "duration": 0.08181818181817846,
                "tempo": 120.0
            },
            {
                "start_time": 39.538636363636364,
                "end_time": 39.62045454545454,
                "pitch": 35,
                "velocity": 101,
                "duration": 0.08181818181817846,
                "tempo": 120.0
            },
            {
                "start_time": 39.63863636363636,
                "end_time": 39.720454545454544,
                "pitch": 47,
                "velocity": 101,
                "duration": 0.08181818181818556,
                "tempo": 120.0
            },
            {
                "start_time": 39.73863636363636,
                "end_time": 39.820454545454545,
                "pitch": 47,
                "velocity": 101,
                "duration": 0.08181818181818556,
                "tempo": 120.0
            },
            {
                "start_time": 39.83863636363636,
                "end_time": 39.92045454545455,
                "pitch": 35,
                "velocity": 101,
                "duration": 0.08181818181818556,
                "tempo": 120.0
            },
            {
                "start_time": 39.93863636363636,
                "end_time": 40.02045454545454,
                "pitch": 35,
                "velocity": 101,
                "duration": 0.08181818181817846,
                "tempo": 120.0
            },
            {
                "start_time": 40.038636363636364,
                "end_time": 40.12272727272727,
                "pitch": 47,
                "velocity": 101,
                "duration": 0.08409090909090366,
                "tempo": 120.0
            },
            {
                "start_time": 40.13863636363636,
                "end_time": 40.22272727272727,
                "pitch": 35,
                "velocity": 101,
                "duration": 0.08409090909091077,
                "tempo": 120.0
            },
            {
                "start_time": 40.24090909090909,
                "end_time": 40.32272727272727,
                "pitch": 40,
                "velocity": 101,
                "duration": 0.08181818181817846,
                "tempo": 120.0
            },
            {
                "start_time": 40.33863636363636,
                "end_time": 40.42272727272727,
                "pitch": 40,
                "velocity": 101,
                "duration": 0.08409090909091077,
                "tempo": 120.0
            },
            {
                "start_time": 40.44090909090909,
                "end_time": 40.525,
                "pitch": 52,
                "velocity": 101,
                "duration": 0.08409090909091077,
                "tempo": 120.0
            },
            {
                "start_time": 40.54090909090909,
                "end_time": 40.625,
                "pitch": 52,
                "velocity": 101,
                "duration": 0.08409090909091077,
                "tempo": 120.0
            },
            {
                "start_time": 40.643181818181816,
                "end_time": 40.725,
                "pitch": 40,
                "velocity": 101,
                "duration": 0.08181818181818556,
                "tempo": 120.0
            },
            {
                "start_time": 40.74318181818182,
                "end_time": 40.824999999999996,
                "pitch": 40,
                "velocity": 101,
                "duration": 0.08181818181817846,
                "tempo": 120.0
            },
            {
                "start_time": 40.84318181818182,
                "end_time": 40.925,
                "pitch": 52,
                "velocity": 101,
                "duration": 0.08181818181817846,
                "tempo": 120.0
            },
            {
                "start_time": 40.94318181818181,
                "end_time": 41.025,
                "pitch": 40,
                "velocity": 101,
                "duration": 0.08181818181818556,
                "tempo": 120.0
            },
            {
                "start_time": 41.043181818181814,
                "end_time": 41.125,
                "pitch": 40,
                "velocity": 101,
                "duration": 0.08181818181818556,
                "tempo": 120.0
            },
            {
                "start_time": 41.143181818181816,
                "end_time": 41.225,
                "pitch": 40,
                "velocity": 101,
                "duration": 0.08181818181818556,
                "tempo": 120.0
            },
            {
                "start_time": 41.24318181818182,
                "end_time": 41.324999999999996,
                "pitch": 52,
                "velocity": 101,
                "duration": 0.08181818181817846,
                "tempo": 120.0
            },
            {
                "start_time": 41.34318181818182,
                "end_time": 41.425,
                "pitch": 52,
                "velocity": 101,
                "duration": 0.08181818181817846,
                "tempo": 120.0
            },
            {
                "start_time": 41.44318181818181,
                "end_time": 41.525,
                "pitch": 40,
                "velocity": 101,
                "duration": 0.08181818181818556,
                "tempo": 120.0
            },
            {
                "start_time": 41.543181818181814,
                "end_time": 41.627272727272725,
                "pitch": 40,
                "velocity": 101,
                "duration": 0.08409090909091077,
                "tempo": 120.0
            },
            {
                "start_time": 41.64545454545454,
                "end_time": 41.72727272727273,
                "pitch": 52,
                "velocity": 101,
                "duration": 0.08181818181818556,
                "tempo": 120.0
            },
            {
                "start_time": 41.74318181818182,
                "end_time": 41.82727272727273,
                "pitch": 40,
                "velocity": 101,
                "duration": 0.08409090909091077,
                "tempo": 120.0
            },
            {
                "start_time": 41.845454545454544,
                "end_time": 41.92727272727272,
                "pitch": 38,
                "velocity": 101,
                "duration": 0.08181818181817846,
                "tempo": 120.0
            },
            {
                "start_time": 41.94318181818181,
                "end_time": 42.027272727272724,
                "pitch": 38,
                "velocity": 101,
                "duration": 0.08409090909091077,
                "tempo": 120.0
            },
            {
                "start_time": 42.04545454545455,
                "end_time": 42.127272727272725,
                "pitch": 50,
                "velocity": 101,
                "duration": 0.08181818181817846,
                "tempo": 120.0
            },
            {
                "start_time": 42.143181818181816,
                "end_time": 42.22727272727273,
                "pitch": 50,
                "velocity": 101,
                "duration": 0.08409090909091077,
                "tempo": 120.0
            },
            {
                "start_time": 42.24545454545454,
                "end_time": 42.32727272727273,
                "pitch": 38,
                "velocity": 101,
                "duration": 0.08181818181818556,
                "tempo": 120.0
            },
            {
                "start_time": 42.345454545454544,
                "end_time": 42.429545454545455,
                "pitch": 38,
                "velocity": 101,
                "duration": 0.08409090909091077,
                "tempo": 120.0
            },
            {
                "start_time": 42.44772727272727,
                "end_time": 42.52954545454545,
                "pitch": 50,
                "velocity": 101,
                "duration": 0.08181818181817846,
                "tempo": 120.0
            },
            {
                "start_time": 42.54772727272727,
                "end_time": 42.62954545454545,
                "pitch": 38,
                "velocity": 101,
                "duration": 0.08181818181817846,
                "tempo": 120.0
            },
            {
                "start_time": 42.64772727272727,
                "end_time": 42.72954545454545,
                "pitch": 38,
                "velocity": 101,
                "duration": 0.08181818181817846,
                "tempo": 120.0
            },
            {
                "start_time": 42.74772727272727,
                "end_time": 42.82954545454545,
                "pitch": 38,
                "velocity": 101,
                "duration": 0.08181818181818556,
                "tempo": 120.0
            },
            {
                "start_time": 42.84772727272727,
                "end_time": 42.929545454545455,
                "pitch": 50,
                "velocity": 101,
                "duration": 0.08181818181818556,
                "tempo": 120.0
            },
            {
                "start_time": 42.94772727272727,
                "end_time": 43.03181818181818,
                "pitch": 50,
                "velocity": 101,
                "duration": 0.08409090909091077,
                "tempo": 120.0
            },
            {
                "start_time": 43.04772727272727,
                "end_time": 43.13181818181818,
                "pitch": 38,
                "velocity": 101,
                "duration": 0.08409090909091077,
                "tempo": 120.0
            },
            {
                "start_time": 43.14772727272727,
                "end_time": 43.23181818181818,
                "pitch": 38,
                "velocity": 101,
                "duration": 0.08409090909090366,
                "tempo": 120.0
            },
            {
                "start_time": 43.25,
                "end_time": 43.33181818181818,
                "pitch": 50,
                "velocity": 101,
                "duration": 0.08181818181817846,
                "tempo": 120.0
            },
            {
                "start_time": 43.34772727272727,
                "end_time": 43.43181818181818,
                "pitch": 38,
                "velocity": 101,
                "duration": 0.08409090909091077,
                "tempo": 120.0
            },
            {
                "start_time": 43.449999999999996,
                "end_time": 43.53409090909091,
                "pitch": 36,
                "velocity": 101,
                "duration": 0.08409090909091077,
                "tempo": 120.0
            },
            {
                "start_time": 43.55,
                "end_time": 43.63636363636363,
                "pitch": 36,
                "velocity": 101,
                "duration": 0.08636363636363598,
                "tempo": 120.0
            },
            {
                "start_time": 43.65454545454545,
                "end_time": 43.73863636363636,
                "pitch": 48,
                "velocity": 101,
                "duration": 0.08409090909091077,
                "tempo": 120.0
            },
            {
                "start_time": 43.75681818181818,
                "end_time": 43.840909090909086,
                "pitch": 48,
                "velocity": 101,
                "duration": 0.08409090909090366,
                "tempo": 120.0
            },
            {
                "start_time": 43.861363636363635,
                "end_time": 43.94318181818181,
                "pitch": 36,
                "velocity": 101,
                "duration": 0.08181818181817846,
                "tempo": 120.0
            },
            {
                "start_time": 43.961363636363636,
                "end_time": 44.043181818181814,
                "pitch": 36,
                "velocity": 101,
                "duration": 0.08181818181817846,
                "tempo": 120.0
            },
            {
                "start_time": 44.06136363636364,
                "end_time": 44.14545454545454,
                "pitch": 48,
                "velocity": 101,
                "duration": 0.08409090909090366,
                "tempo": 120.0
            },
            {
                "start_time": 44.16136363636363,
                "end_time": 44.24545454545454,
                "pitch": 36,
                "velocity": 101,
                "duration": 0.08409090909091077,
                "tempo": 120.0
            },
            {
                "start_time": 44.26363636363636,
                "end_time": 44.345454545454544,
                "pitch": 36,
                "velocity": 101,
                "duration": 0.08181818181818556,
                "tempo": 120.0
            },
            {
                "start_time": 44.36363636363636,
                "end_time": 44.445454545454545,
                "pitch": 36,
                "velocity": 101,
                "duration": 0.08181818181818556,
                "tempo": 120.0
            },
            {
                "start_time": 44.46363636363636,
                "end_time": 44.54545454545455,
                "pitch": 48,
                "velocity": 101,
                "duration": 0.08181818181818556,
                "tempo": 120.0
            },
            {
                "start_time": 44.56363636363636,
                "end_time": 44.64545454545454,
                "pitch": 48,
                "velocity": 101,
                "duration": 0.08181818181817846,
                "tempo": 120.0
            },
            {
                "start_time": 44.663636363636364,
                "end_time": 44.74545454545454,
                "pitch": 36,
                "velocity": 101,
                "duration": 0.08181818181817846,
                "tempo": 120.0
            },
            {
                "start_time": 44.76136363636363,
                "end_time": 44.84318181818182,
                "pitch": 36,
                "velocity": 101,
                "duration": 0.08181818181818556,
                "tempo": 120.0
            },
            {
                "start_time": 44.861363636363635,
                "end_time": 44.94090909090909,
                "pitch": 48,
                "velocity": 101,
                "duration": 0.07954545454545325,
                "tempo": 120.0
            },
            {
                "start_time": 44.959090909090904,
                "end_time": 45.038636363636364,
                "pitch": 36,
                "velocity": 101,
                "duration": 0.07954545454546036,
                "tempo": 120.0
            },
            {
                "start_time": 45.059090909090905,
                "end_time": 45.14090909090909,
                "pitch": 35,
                "velocity": 101,
                "duration": 0.08181818181818556,
                "tempo": 120.0
            },
            {
                "start_time": 45.15909090909091,
                "end_time": 45.24318181818182,
                "pitch": 35,
                "velocity": 101,
                "duration": 0.08409090909091077,
                "tempo": 120.0
            },
            {
                "start_time": 45.26136363636363,
                "end_time": 45.34772727272727,
                "pitch": 47,
                "velocity": 101,
                "duration": 0.08636363636363598,
                "tempo": 120.0
            },
            {
                "start_time": 45.36590909090909,
                "end_time": 45.449999999999996,
                "pitch": 47,
                "velocity": 101,
                "duration": 0.08409090909090366,
                "tempo": 120.0
            },
            {
                "start_time": 45.46818181818182,
                "end_time": 45.54772727272727,
                "pitch": 35,
                "velocity": 101,
                "duration": 0.07954545454545325,
                "tempo": 120.0
            },
            {
                "start_time": 45.56590909090909,
                "end_time": 45.64772727272727,
                "pitch": 35,
                "velocity": 101,
                "duration": 0.08181818181818556,
                "tempo": 120.0
            },
            {
                "start_time": 45.663636363636364,
                "end_time": 45.74545454545454,
                "pitch": 47,
                "velocity": 101,
                "duration": 0.08181818181817846,
                "tempo": 120.0
            },
            {
                "start_time": 45.76136363636363,
                "end_time": 45.84318181818182,
                "pitch": 35,
                "velocity": 101,
                "duration": 0.08181818181818556,
                "tempo": 120.0
            },
            {
                "start_time": 45.861363636363635,
                "end_time": 45.945454545454545,
                "pitch": 35,
                "velocity": 101,
                "duration": 0.08409090909091077,
                "tempo": 120.0
            },
            {
                "start_time": 45.96363636363636,
                "end_time": 46.04772727272727,
                "pitch": 35,
                "velocity": 101,
                "duration": 0.08409090909091077,
                "tempo": 120.0
            },
            {
                "start_time": 46.06590909090909,
                "end_time": 46.15,
                "pitch": 47,
                "velocity": 101,
                "duration": 0.08409090909091077,
                "tempo": 120.0
            },
            {
                "start_time": 46.168181818181814,
                "end_time": 46.25454545454545,
                "pitch": 47,
                "velocity": 101,
                "duration": 0.08636363636363598,
                "tempo": 120.0
            },
            {
                "start_time": 46.27045454545454,
                "end_time": 46.35454545454545,
                "pitch": 35,
                "velocity": 101,
                "duration": 0.08409090909091077,
                "tempo": 120.0
            },
            {
                "start_time": 46.37045454545454,
                "end_time": 46.45454545454545,
                "pitch": 35,
                "velocity": 101,
                "duration": 0.08409090909091077,
                "tempo": 120.0
            },
            {
                "start_time": 46.47272727272727,
                "end_time": 46.554545454545455,
                "pitch": 47,
                "velocity": 101,
                "duration": 0.08181818181818556,
                "tempo": 120.0
            },
            {
                "start_time": 46.57272727272727,
                "end_time": 46.65454545454545,
                "pitch": 35,
                "velocity": 101,
                "duration": 0.08181818181817846,
                "tempo": 120.0
            }
        ],
        "Vibraphone": [
            {
                "start_time": 0.00909090909090909,
                "end_time": 0.6,
                "pitch": 71,
                "velocity": 127,
                "duration": 0.5909090909090909,
                "tempo": 120.0
            },
            {
                "start_time": 0.6,
                "end_time": 1.4022727272727271,
                "pitch": 69,
                "velocity": 127,
                "duration": 0.8022727272727271,
                "tempo": 120.0
            },
            {
                "start_time": 1.4022727272727271,
                "end_time": 3.0045454545454544,
                "pitch": 67,
                "velocity": 127,
                "duration": 1.6022727272727273,
                "tempo": 120.0
            },
            {
                "start_time": 3.006818181818182,
                "end_time": 4.820454545454545,
                "pitch": 66,
                "velocity": 127,
                "duration": 1.8136363636363635,
                "tempo": 120.0
            },
            {
                "start_time": 4.822727272727272,
                "end_time": 5.636363636363636,
                "pitch": 71,
                "velocity": 127,
                "duration": 0.8136363636363635,
                "tempo": 120.0
            },
            {
                "start_time": 5.636363636363636,
                "end_time": 6.4409090909090905,
                "pitch": 69,
                "velocity": 127,
                "duration": 0.8045454545454547,
                "tempo": 120.0
            },
            {
                "start_time": 6.4409090909090905,
                "end_time": 7.243181818181818,
                "pitch": 67,
                "velocity": 127,
                "duration": 0.8022727272727277,
                "tempo": 120.0
            },
            {
                "start_time": 3.0045454545454544,
                "end_time": 7.243181818181818,
                "pitch": 78,
                "velocity": 127,
                "duration": 4.238636363636363,
                "tempo": 120.0
            },
            {
                "start_time": 7.243181818181818,
                "end_time": 8.054545454545455,
                "pitch": 66,
                "velocity": 127,
                "duration": 0.8113636363636365,
                "tempo": 120.0
            },
            {
                "start_time": 8.054545454545455,
                "end_time": 8.095454545454546,
                "pitch": 64,
                "velocity": 101,
                "duration": 0.040909090909091006,
                "tempo": 120.0
            },
            {
                "start_time": 8.147727272727272,
                "end_time": 8.197727272727272,
                "pitch": 65,
                "velocity": 101,
                "duration": 0.05000000000000071,
                "tempo": 120.0
            },
            {
                "start_time": 8.252272727272727,
                "end_time": 8.302272727272728,
                "pitch": 64,
                "velocity": 101,
                "duration": 0.05000000000000071,
                "tempo": 120.0
            },
            {
                "start_time": 8.354545454545454,
                "end_time": 8.404545454545454,
                "pitch": 63,
                "velocity": 101,
                "duration": 0.05000000000000071,
                "tempo": 120.0
            },
            {
                "start_time": 8.459090909090909,
                "end_time": 8.504545454545454,
                "pitch": 64,
                "velocity": 101,
                "duration": 0.04545454545454497,
                "tempo": 120.0
            },
            {
                "start_time": 8.554545454545455,
                "end_time": 8.602272727272727,
                "pitch": 65,
                "velocity": 101,
                "duration": 0.04772727272727195,
                "tempo": 120.0
            },
            {
                "start_time": 8.654545454545454,
                "end_time": 8.702272727272726,
                "pitch": 64,
                "velocity": 101,
                "duration": 0.04772727272727195,
                "tempo": 120.0
            },
            {
                "start_time": 8.752272727272727,
                "end_time": 8.799999999999999,
                "pitch": 63,
                "velocity": 101,
                "duration": 0.04772727272727195,
                "tempo": 120.0
            },
            {
                "start_time": 8.85,
                "end_time": 8.9,
                "pitch": 64,
                "velocity": 101,
                "duration": 0.05000000000000071,
                "tempo": 120.0
            },
            {
                "start_time": 8.95,
                "end_time": 9.0,
                "pitch": 65,
                "velocity": 101,
                "duration": 0.05000000000000071,
                "tempo": 120.0
            },
            {
                "start_time": 9.052272727272728,
                "end_time": 9.1,
                "pitch": 64,
                "velocity": 101,
                "duration": 0.04772727272727195,
                "tempo": 120.0
            },
            {
                "start_time": 9.152272727272727,
                "end_time": 9.202272727272726,
                "pitch": 63,
                "velocity": 101,
                "duration": 0.049999999999998934,
                "tempo": 120.0
            },
            {
                "start_time": 9.256818181818181,
                "end_time": 9.302272727272728,
                "pitch": 64,
                "velocity": 101,
                "duration": 0.045454545454546746,
                "tempo": 120.0
            },
            {
                "start_time": 9.354545454545454,
                "end_time": 9.402272727272727,
                "pitch": 65,
                "velocity": 101,
                "duration": 0.04772727272727373,
                "tempo": 120.0
            },
            {
                "start_time": 9.454545454545453,
                "end_time": 9.504545454545454,
                "pitch": 64,
                "velocity": 101,
                "duration": 0.05000000000000071,
                "tempo": 120.0
            },
            {
                "start_time": 9.554545454545455,
                "end_time": 9.604545454545454,
                "pitch": 63,
                "velocity": 101,
                "duration": 0.049999999999998934,
                "tempo": 120.0
            },
            {
                "start_time": 9.659090909090908,
                "end_time": 9.704545454545453,
                "pitch": 60,
                "velocity": 101,
                "duration": 0.04545454545454497,
                "tempo": 120.0
            },
            {
                "start_time": 9.756818181818181,
                "end_time": 9.804545454545455,
                "pitch": 61,
                "velocity": 101,
                "duration": 0.04772727272727373,
                "tempo": 120.0
            },
            {
                "start_time": 9.85681818181818,
                "end_time": 9.904545454545454,
                "pitch": 60,
                "velocity": 101,
                "duration": 0.04772727272727373,
                "tempo": 120.0
            },
            {
                "start_time": 9.956818181818182,
                "end_time": 10.004545454545454,
                "pitch": 59,
                "velocity": 101,
                "duration": 0.04772727272727195,
                "tempo": 120.0
            },
            {
                "start_time": 10.056818181818182,
                "end_time": 10.10681818181818,
                "pitch": 60,
                "velocity": 101,
                "duration": 0.049999999999998934,
                "tempo": 120.0
            },
            {
                "start_time": 10.156818181818181,
                "end_time": 10.206818181818182,
                "pitch": 61,
                "velocity": 101,
                "duration": 0.05000000000000071,
                "tempo": 120.0
            },
            {
                "start_time": 10.259090909090908,
                "end_time": 10.306818181818182,
                "pitch": 60,
                "velocity": 101,
                "duration": 0.04772727272727373,
                "tempo": 120.0
            },
            {
                "start_time": 10.35909090909091,
                "end_time": 10.409090909090908,
                "pitch": 59,
                "velocity": 101,
                "duration": 0.049999999999998934,
                "tempo": 120.0
            },
            {
                "start_time": 10.461363636363636,
                "end_time": 10.509090909090908,
                "pitch": 60,
                "velocity": 101,
                "duration": 0.04772727272727195,
                "tempo": 120.0
            },
            {
                "start_time": 10.561363636363636,
                "end_time": 10.60909090909091,
                "pitch": 61,
                "velocity": 101,
                "duration": 0.04772727272727373,
                "tempo": 120.0
            },
            {
                "start_time": 10.661363636363635,
                "end_time": 10.711363636363636,
                "pitch": 60,
                "velocity": 101,
                "duration": 0.05000000000000071,
                "tempo": 120.0
            },
            {
                "start_time": 10.763636363636364,
                "end_time": 10.811363636363636,
                "pitch": 59,
                "velocity": 101,
                "duration": 0.04772727272727195,
                "tempo": 120.0
            },
            {
                "start_time": 10.86590909090909,
                "end_time": 10.911363636363635,
                "pitch": 60,
                "velocity": 101,
                "duration": 0.04545454545454497,
                "tempo": 120.0
            },
            {
                "start_time": 10.963636363636363,
                "end_time": 11.013636363636364,
                "pitch": 61,
                "velocity": 101,
                "duration": 0.05000000000000071,
                "tempo": 120.0
            },
            {
                "start_time": 11.06590909090909,
                "end_time": 11.113636363636363,
                "pitch": 60,
                "velocity": 101,
                "duration": 0.04772727272727373,
                "tempo": 120.0
            },
            {
                "start_time": 11.165909090909091,
                "end_time": 11.213636363636363,
                "pitch": 59,
                "velocity": 101,
                "duration": 0.04772727272727195,
                "tempo": 120.0
            },
            {
                "start_time": 11.270454545454545,
                "end_time": 11.31590909090909,
                "pitch": 64,
                "velocity": 101,
                "duration": 0.04545454545454497,
                "tempo": 120.0
            },
            {
                "start_time": 11.368181818181817,
                "end_time": 11.418181818181818,
                "pitch": 65,
                "velocity": 101,
                "duration": 0.05000000000000071,
                "tempo": 120.0
            },
            {
                "start_time": 11.472727272727273,
                "end_time": 11.522727272727272,
                "pitch": 64,
                "velocity": 101,
                "duration": 0.049999999999998934,
                "tempo": 120.0
            },
            {
                "start_time": 11.575,
                "end_time": 11.625,
                "pitch": 63,
                "velocity": 101,
                "duration": 0.05000000000000071,
                "tempo": 120.0
            },
            {
                "start_time": 11.679545454545455,
                "end_time": 11.725,
                "pitch": 64,
                "velocity": 101,
                "duration": 0.04545454545454497,
                "tempo": 120.0
            },
            {
                "start_time": 11.774999999999999,
                "end_time": 11.822727272727272,
                "pitch": 65,
                "velocity": 101,
                "duration": 0.04772727272727373,
                "tempo": 120.0
            },
            {
                "start_time": 11.875,
                "end_time": 11.922727272727272,
                "pitch": 64,
                "velocity": 101,
                "duration": 0.04772727272727195,
                "tempo": 120.0
            },
            {
                "start_time": 11.972727272727273,
                "end_time": 12.020454545454545,
                "pitch": 63,
                "velocity": 101,
                "duration": 0.04772727272727195,
                "tempo": 120.0
            },
            {
                "start_time": 12.070454545454545,
                "end_time": 12.120454545454544,
                "pitch": 64,
                "velocity": 101,
                "duration": 0.049999999999998934,
                "tempo": 120.0
            },
            {
                "start_time": 12.170454545454545,
                "end_time": 12.220454545454546,
                "pitch": 65,
                "velocity": 101,
                "duration": 0.05000000000000071,
                "tempo": 120.0
            },
            {
                "start_time": 12.272727272727272,
                "end_time": 12.320454545454545,
                "pitch": 64,
                "velocity": 101,
                "duration": 0.04772727272727373,
                "tempo": 120.0
            },
            {
                "start_time": 12.372727272727271,
                "end_time": 12.422727272727272,
                "pitch": 63,
                "velocity": 101,
                "duration": 0.05000000000000071,
                "tempo": 120.0
            },
            {
                "start_time": 12.477272727272727,
                "end_time": 12.522727272727272,
                "pitch": 64,
                "velocity": 101,
                "duration": 0.04545454545454497,
                "tempo": 120.0
            },
            {
                "start_time": 12.575,
                "end_time": 12.622727272727271,
                "pitch": 65,
                "velocity": 101,
                "duration": 0.04772727272727195,
                "tempo": 120.0
            },
            {
                "start_time": 12.674999999999999,
                "end_time": 12.725,
                "pitch": 64,
                "velocity": 101,
                "duration": 0.05000000000000071,
                "tempo": 120.0
            },
            {
                "start_time": 12.774999999999999,
                "end_time": 12.825,
                "pitch": 63,
                "velocity": 101,
                "duration": 0.05000000000000071,
                "tempo": 120.0
            },
            {
                "start_time": 12.879545454545454,
                "end_time": 12.924999999999999,
                "pitch": 60,
                "velocity": 101,
                "duration": 0.04545454545454497,
                "tempo": 120.0
            },
            {
                "start_time": 12.977272727272727,
                "end_time": 13.027272727272727,
                "pitch": 61,
                "velocity": 101,
                "duration": 0.05000000000000071,
                "tempo": 120.0
            },
            {
                "start_time": 13.077272727272726,
                "end_time": 13.127272727272727,
                "pitch": 60,
                "velocity": 101,
                "duration": 0.05000000000000071,
                "tempo": 120.0
            },
            {
                "start_time": 13.179545454545455,
                "end_time": 13.227272727272727,
                "pitch": 59,
                "velocity": 101,
                "duration": 0.04772727272727195,
                "tempo": 120.0
            },
            {
                "start_time": 13.281818181818181,
                "end_time": 13.329545454545453,
                "pitch": 60,
                "velocity": 101,
                "duration": 0.04772727272727195,
                "tempo": 120.0
            },
            {
                "start_time": 13.381818181818181,
                "end_time": 13.431818181818182,
                "pitch": 61,
                "velocity": 101,
                "duration": 0.05000000000000071,
                "tempo": 120.0
            },
            {
                "start_time": 13.486363636363636,
                "end_time": 13.536363636363635,
                "pitch": 60,
                "velocity": 101,
                "duration": 0.049999999999998934,
                "tempo": 120.0
            },
            {
                "start_time": 13.588636363636363,
                "end_time": 13.638636363636364,
                "pitch": 59,
                "velocity": 101,
                "duration": 0.05000000000000071,
                "tempo": 120.0
            },
            {
                "start_time": 13.693181818181818,
                "end_time": 13.74090909090909,
                "pitch": 60,
                "velocity": 101,
                "duration": 0.04772727272727195,
                "tempo": 120.0
            },
            {
                "start_time": 13.793181818181818,
                "end_time": 13.84090909090909,
                "pitch": 61,
                "velocity": 101,
                "duration": 0.04772727272727195,
                "tempo": 120.0
            },
            {
                "start_time": 13.893181818181818,
                "end_time": 13.943181818181818,
                "pitch": 60,
                "velocity": 101,
                "duration": 0.05000000000000071,
                "tempo": 120.0
            },
            {
                "start_time": 13.993181818181817,
                "end_time": 14.043181818181818,
                "pitch": 59,
                "velocity": 101,
                "duration": 0.05000000000000071,
                "tempo": 120.0
            },
            {
                "start_time": 14.097727272727273,
                "end_time": 14.143181818181818,
                "pitch": 60,
                "velocity": 101,
                "duration": 0.04545454545454497,
                "tempo": 120.0
            },
            {
                "start_time": 14.195454545454545,
                "end_time": 14.245454545454544,
                "pitch": 61,
                "velocity": 101,
                "duration": 0.049999999999998934,
                "tempo": 120.0
            },
            {
                "start_time": 14.295454545454545,
                "end_time": 14.345454545454544,
                "pitch": 60,
                "velocity": 101,
                "duration": 0.049999999999998934,
                "tempo": 120.0
            },
            {
                "start_time": 14.397727272727272,
                "end_time": 14.445454545454545,
                "pitch": 59,
                "velocity": 101,
                "duration": 0.04772727272727373,
                "tempo": 120.0
            },
            {
                "start_time": 14.504545454545454,
                "end_time": 14.902272727272727,
                "pitch": 71,
                "velocity": 101,
                "duration": 0.3977272727272734,
                "tempo": 120.0
            },
            {
                "start_time": 15.104545454545454,
                "end_time": 15.906818181818181,
                "pitch": 72,
                "velocity": 101,
                "duration": 0.8022727272727277,
                "tempo": 120.0
            },
            {
                "start_time": 16.111363636363635,
                "end_time": 16.513636363636362,
                "pitch": 69,
                "velocity": 101,
                "duration": 0.40227272727272734,
                "tempo": 120.0
            },
            {
                "start_time": 16.71590909090909,
                "end_time": 17.518181818181816,
                "pitch": 71,
                "velocity": 101,
                "duration": 0.8022727272727259,
                "tempo": 120.0
            },
            {
                "start_time": 17.720454545454544,
                "end_time": 18.13181818181818,
                "pitch": 67,
                "velocity": 101,
                "duration": 0.41136363636363527,
                "tempo": 120.0
            },
            {
                "start_time": 18.327272727272728,
                "end_time": 19.129545454545454,
                "pitch": 69,
                "velocity": 101,
                "duration": 0.8022727272727259,
                "tempo": 120.0
            },
            {
                "start_time": 19.327272727272728,
                "end_time": 19.938636363636363,
                "pitch": 66,
                "velocity": 101,
                "duration": 0.6113636363636346,
                "tempo": 120.0
            },
            {
                "start_time": 20.143181818181816,
                "end_time": 20.24090909090909,
                "pitch": 66,
                "velocity": 101,
                "duration": 0.09772727272727266,
                "tempo": 120.0
            },
            {
                "start_time": 20.443181818181817,
                "end_time": 20.54090909090909,
                "pitch": 67,
                "velocity": 101,
                "duration": 0.09772727272727266,
                "tempo": 120.0
            },
            {
                "start_time": 20.738636363636363,
                "end_time": 20.936363636363634,
                "pitch": 69,
                "velocity": 101,
                "duration": 0.19772727272727053,
                "tempo": 120.0
            },
            {
                "start_time": 20.936363636363634,
                "end_time": 21.345454545454544,
                "pitch": 71,
                "velocity": 101,
                "duration": 0.40909090909091006,
                "tempo": 120.0
            },
            {
                "start_time": 21.547727272727272,
                "end_time": 22.347727272727273,
                "pitch": 72,
                "velocity": 101,
                "duration": 0.8000000000000007,
                "tempo": 120.0
            },
            {
                "start_time": 22.552272727272726,
                "end_time": 22.952272727272724,
                "pitch": 69,
                "velocity": 101,
                "duration": 0.3999999999999986,
                "tempo": 120.0
            },
            {
                "start_time": 23.152272727272727,
                "end_time": 23.954545454545453,
                "pitch": 71,
                "velocity": 101,
                "duration": 0.8022727272727259,
                "tempo": 120.0
            },
            {
                "start_time": 24.159090909090907,
                "end_time": 24.55909090909091,
                "pitch": 67,
                "velocity": 101,
                "duration": 0.40000000000000213,
                "tempo": 120.0
            },
            {
                "start_time": 24.759090909090908,
                "end_time": 25.561363636363634,
                "pitch": 69,
                "velocity": 101,
                "duration": 0.8022727272727259,
                "tempo": 120.0
            },
            {
                "start_time": 25.763636363636362,
                "end_time": 26.36590909090909,
                "pitch": 66,
                "velocity": 101,
                "duration": 0.6022727272727266,
                "tempo": 120.0
            },
            {
                "start_time": 26.56590909090909,
                "end_time": 26.663636363636364,
                "pitch": 66,
                "velocity": 101,
                "duration": 0.09772727272727266,
                "tempo": 120.0
            },
            {
                "start_time": 26.86590909090909,
                "end_time": 26.96590909090909,
                "pitch": 67,
                "velocity": 101,
                "duration": 0.10000000000000142,
                "tempo": 120.0
            },
            {
                "start_time": 27.168181818181818,
                "end_time": 27.37272727272727,
                "pitch": 69,
                "velocity": 101,
                "duration": 0.20454545454545325,
                "tempo": 120.0
            },
            {
                "start_time": 27.37272727272727,
                "end_time": 27.418181818181818,
                "pitch": 71,
                "velocity": 101,
                "duration": 0.045454545454546746,
                "tempo": 120.0
            },
            {
                "start_time": 27.468181818181815,
                "end_time": 27.518181818181816,
                "pitch": 71,
                "velocity": 101,
                "duration": 0.05000000000000071,
                "tempo": 120.0
            },
            {
                "start_time": 27.568181818181817,
                "end_time": 27.618181818181817,
                "pitch": 71,
                "velocity": 101,
                "duration": 0.05000000000000071,
                "tempo": 120.0
            },
            {
                "start_time": 27.668181818181818,
                "end_time": 27.718181818181815,
                "pitch": 71,
                "velocity": 101,
                "duration": 0.04999999999999716,
                "tempo": 120.0
            },
            {
                "start_time": 27.770454545454545,
                "end_time": 27.918181818181818,
                "pitch": 71,
                "velocity": 101,
                "duration": 0.14772727272727337,
                "tempo": 120.0
            },
            {
                "start_time": 27.972727272727273,
                "end_time": 28.924999999999997,
                "pitch": 69,
                "velocity": 101,
                "duration": 0.9522727272727245,
                "tempo": 120.0
            },
            {
                "start_time": 28.977272727272727,
                "end_time": 29.025,
                "pitch": 67,
                "velocity": 101,
                "duration": 0.04772727272727195,
                "tempo": 120.0
            },
            {
                "start_time": 29.077272727272724,
                "end_time": 29.127272727272725,
                "pitch": 67,
                "velocity": 101,
                "duration": 0.05000000000000071,
                "tempo": 120.0
            },
            {
                "start_time": 29.179545454545455,
                "end_time": 29.227272727272727,
                "pitch": 67,
                "velocity": 101,
                "duration": 0.04772727272727195,
                "tempo": 120.0
            },
            {
                "start_time": 29.279545454545453,
                "end_time": 29.327272727272724,
                "pitch": 67,
                "velocity": 101,
                "duration": 0.04772727272727195,
                "tempo": 120.0
            },
            {
                "start_time": 29.379545454545454,
                "end_time": 29.527272727272727,
                "pitch": 67,
                "velocity": 101,
                "duration": 0.14772727272727337,
                "tempo": 120.0
            },
            {
                "start_time": 29.581818181818182,
                "end_time": 30.53181818181818,
                "pitch": 66,
                "velocity": 101,
                "duration": 0.9499999999999993,
                "tempo": 120.0
            },
            {
                "start_time": 30.586363636363636,
                "end_time": 30.634090909090908,
                "pitch": 71,
                "velocity": 101,
                "duration": 0.04772727272727195,
                "tempo": 120.0
            },
            {
                "start_time": 30.686363636363634,
                "end_time": 30.736363636363635,
                "pitch": 71,
                "velocity": 101,
                "duration": 0.05000000000000071,
                "tempo": 120.0
            },
            {
                "start_time": 30.78863636363636,
                "end_time": 30.83863636363636,
                "pitch": 71,
                "velocity": 101,
                "duration": 0.05000000000000071,
                "tempo": 120.0
            },
            {
                "start_time": 30.893181818181816,
                "end_time": 30.943181818181817,
                "pitch": 71,
                "velocity": 101,
                "duration": 0.05000000000000071,
                "tempo": 120.0
            },
            {
                "start_time": 30.995454545454542,
                "end_time": 31.14090909090909,
                "pitch": 71,
                "velocity": 101,
                "duration": 0.14545454545454817,
                "tempo": 120.0
            },
            {
                "start_time": 31.193181818181817,
                "end_time": 32.14772727272727,
                "pitch": 69,
                "velocity": 101,
                "duration": 0.9545454545454568,
                "tempo": 120.0
            },
            {
                "start_time": 32.199999999999996,
                "end_time": 32.24772727272727,
                "pitch": 67,
                "velocity": 101,
                "duration": 0.04772727272727195,
                "tempo": 120.0
            },
            {
                "start_time": 32.29772727272727,
                "end_time": 32.345454545454544,
                "pitch": 67,
                "velocity": 101,
                "duration": 0.04772727272727195,
                "tempo": 120.0
            },
            {
                "start_time": 32.39772727272727,
                "end_time": 32.44318181818182,
                "pitch": 67,
                "velocity": 101,
                "duration": 0.045454545454546746,
                "tempo": 120.0
            },
            {
                "start_time": 32.49318181818182,
                "end_time": 32.54090909090909,
                "pitch": 67,
                "velocity": 101,
                "duration": 0.04772727272727195,
                "tempo": 120.0
            },
            {
                "start_time": 32.59318181818182,
                "end_time": 32.74545454545454,
                "pitch": 67,
                "velocity": 101,
                "duration": 0.15227272727272378,
                "tempo": 120.0
            },
            {
                "start_time": 32.8,
                "end_time": 33.75454545454545,
                "pitch": 66,
                "velocity": 101,
                "duration": 0.9545454545454533,
                "tempo": 120.0
            },
            {
                "start_time": 33.81136363636364,
                "end_time": 33.95909090909091,
                "pitch": 71,
                "velocity": 127,
                "duration": 0.14772727272727337,
                "tempo": 120.0
            },
            {
                "start_time": 34.11590909090909,
                "end_time": 35.36363636363636,
                "pitch": 71,
                "velocity": 127,
                "duration": 1.2477272727272677,
                "tempo": 120.0
            },
            {
                "start_time": 35.41590909090909,
                "end_time": 35.56818181818181,
                "pitch": 69,
                "velocity": 127,
                "duration": 0.15227272727272378,
                "tempo": 120.0
            },
            {
                "start_time": 35.72272727272727,
                "end_time": 36.970454545454544,
                "pitch": 69,
                "velocity": 127,
                "duration": 1.2477272727272748,
                "tempo": 120.0
            },
            {
                "start_time": 37.025,
                "end_time": 37.175,
                "pitch": 67,
                "velocity": 127,
                "duration": 0.14999999999999858,
                "tempo": 120.0
            },
            {
                "start_time": 37.33181818181818,
                "end_time": 38.586363636363636,
                "pitch": 67,
                "velocity": 127,
                "duration": 1.2545454545454575,
                "tempo": 120.0
            },
            {
                "start_time": 38.64090909090909,
                "end_time": 38.78636363636363,
                "pitch": 66,
                "velocity": 127,
                "duration": 0.14545454545454106,
                "tempo": 120.0
            },
            {
                "start_time": 38.94090909090909,
                "end_time": 40.18863636363636,
                "pitch": 66,
                "velocity": 127,
                "duration": 1.2477272727272748,
                "tempo": 120.0
            },
            {
                "start_time": 40.24318181818182,
                "end_time": 40.39090909090909,
                "pitch": 71,
                "velocity": 127,
                "duration": 0.14772727272727337,
                "tempo": 120.0
            },
            {
                "start_time": 40.543181818181814,
                "end_time": 41.793181818181814,
                "pitch": 71,
                "velocity": 127,
                "duration": 1.25,
                "tempo": 120.0
            },
            {
                "start_time": 41.84772727272727,
                "end_time": 41.99318181818182,
                "pitch": 69,
                "velocity": 127,
                "duration": 0.14545454545454817,
                "tempo": 120.0
            },
            {
                "start_time": 42.14545454545454,
                "end_time": 43.39772727272727,
                "pitch": 69,
                "velocity": 127,
                "duration": 1.2522727272727323,
                "tempo": 120.0
            },
            {
                "start_time": 43.45227272727273,
                "end_time": 43.60227272727273,
                "pitch": 67,
                "velocity": 127,
                "duration": 0.14999999999999858,
                "tempo": 120.0
            },
            {
                "start_time": 43.75909090909091,
                "end_time": 45.00681818181818,
                "pitch": 67,
                "velocity": 127,
                "duration": 1.2477272727272748,
                "tempo": 120.0
            },
            {
                "start_time": 45.059090909090905,
                "end_time": 45.209090909090904,
                "pitch": 66,
                "velocity": 127,
                "duration": 0.14999999999999858,
                "tempo": 120.0
            },
            {
                "start_time": 45.36818181818182,
                "end_time": 46.62272727272727,
                "pitch": 66,
                "velocity": 127,
                "duration": 1.2545454545454504,
                "tempo": 120.0
            },
            {
                "start_time": 46.68181818181818,
                "end_time": 46.72272727272727,
                "pitch": 64,
                "velocity": 101,
                "duration": 0.04090909090908923,
                "tempo": 120.0
            },
            {
                "start_time": 46.775,
                "end_time": 46.824999999999996,
                "pitch": 65,
                "velocity": 101,
                "duration": 0.04999999999999716,
                "tempo": 120.0
            },
            {
                "start_time": 46.877272727272725,
                "end_time": 46.92727272727272,
                "pitch": 64,
                "velocity": 101,
                "duration": 0.04999999999999716,
                "tempo": 120.0
            },
            {
                "start_time": 46.98181818181818,
                "end_time": 47.03181818181818,
                "pitch": 63,
                "velocity": 101,
                "duration": 0.05000000000000426,
                "tempo": 120.0
            },
            {
                "start_time": 47.084090909090904,
                "end_time": 47.13181818181818,
                "pitch": 64,
                "velocity": 101,
                "duration": 0.04772727272727906,
                "tempo": 120.0
            },
            {
                "start_time": 47.18181818181818,
                "end_time": 47.22954545454545,
                "pitch": 65,
                "velocity": 101,
                "duration": 0.04772727272727195,
                "tempo": 120.0
            },
            {
                "start_time": 47.28181818181818,
                "end_time": 47.32727272727273,
                "pitch": 64,
                "velocity": 101,
                "duration": 0.045454545454546746,
                "tempo": 120.0
            },
            {
                "start_time": 47.37954545454545,
                "end_time": 47.42727272727272,
                "pitch": 63,
                "velocity": 101,
                "duration": 0.04772727272727195,
                "tempo": 120.0
            },
            {
                "start_time": 47.47727272727273,
                "end_time": 47.525,
                "pitch": 64,
                "velocity": 101,
                "duration": 0.04772727272727195,
                "tempo": 120.0
            },
            {
                "start_time": 47.57727272727273,
                "end_time": 47.625,
                "pitch": 65,
                "velocity": 101,
                "duration": 0.04772727272727195,
                "tempo": 120.0
            },
            {
                "start_time": 47.67727272727272,
                "end_time": 47.724999999999994,
                "pitch": 64,
                "velocity": 101,
                "duration": 0.04772727272727195,
                "tempo": 120.0
            },
            {
                "start_time": 47.777272727272724,
                "end_time": 47.824999999999996,
                "pitch": 63,
                "velocity": 101,
                "duration": 0.04772727272727195,
                "tempo": 120.0
            },
            {
                "start_time": 47.87954545454545,
                "end_time": 47.92727272727272,
                "pitch": 64,
                "velocity": 101,
                "duration": 0.04772727272727195,
                "tempo": 120.0
            },
            {
                "start_time": 47.97727272727273,
                "end_time": 48.027272727272724,
                "pitch": 65,
                "velocity": 101,
                "duration": 0.04999999999999716,
                "tempo": 120.0
            },
            {
                "start_time": 48.07954545454545,
                "end_time": 48.127272727272725,
                "pitch": 64,
                "velocity": 101,
                "duration": 0.04772727272727195,
                "tempo": 120.0
            },
            {
                "start_time": 48.179545454545455,
                "end_time": 48.22954545454545,
                "pitch": 63,
                "velocity": 101,
                "duration": 0.04999999999999716,
                "tempo": 120.0
            },
            {
                "start_time": 48.28409090909091,
                "end_time": 48.32954545454545,
                "pitch": 60,
                "velocity": 101,
                "duration": 0.045454545454546746,
                "tempo": 120.0
            },
            {
                "start_time": 48.38181818181818,
                "end_time": 48.429545454545455,
                "pitch": 61,
                "velocity": 101,
                "duration": 0.04772727272727195,
                "tempo": 120.0
            },
            {
                "start_time": 48.48181818181818,
                "end_time": 48.52954545454545,
                "pitch": 60,
                "velocity": 101,
                "duration": 0.04772727272727195,
                "tempo": 120.0
            },
            {
                "start_time": 48.58181818181818,
                "end_time": 48.62954545454545,
                "pitch": 59,
                "velocity": 101,
                "duration": 0.04772727272727195,
                "tempo": 120.0
            },
            {
                "start_time": 48.68181818181818,
                "end_time": 48.72954545454545,
                "pitch": 60,
                "velocity": 101,
                "duration": 0.04772727272727195,
                "tempo": 120.0
            },
            {
                "start_time": 48.78181818181818,
                "end_time": 48.82954545454545,
                "pitch": 61,
                "velocity": 101,
                "duration": 0.04772727272727195,
                "tempo": 120.0
            },
            {
                "start_time": 48.88409090909091,
                "end_time": 48.929545454545455,
                "pitch": 60,
                "velocity": 101,
                "duration": 0.045454545454546746,
                "tempo": 120.0
            },
            {
                "start_time": 48.98181818181818,
                "end_time": 49.02954545454545,
                "pitch": 59,
                "velocity": 101,
                "duration": 0.04772727272727195,
                "tempo": 120.0
            },
            {
                "start_time": 49.08181818181818,
                "end_time": 49.12954545454545,
                "pitch": 60,
                "velocity": 101,
                "duration": 0.04772727272727195,
                "tempo": 120.0
            },
            {
                "start_time": 49.18181818181818,
                "end_time": 49.22954545454545,
                "pitch": 61,
                "velocity": 101,
                "duration": 0.04772727272727195,
                "tempo": 120.0
            },
            {
                "start_time": 49.28181818181818,
                "end_time": 49.32954545454545,
                "pitch": 60,
                "velocity": 101,
                "duration": 0.04772727272727195,
                "tempo": 120.0
            },
            {
                "start_time": 49.38181818181818,
                "end_time": 49.43181818181818,
                "pitch": 59,
                "velocity": 101,
                "duration": 0.04999999999999716,
                "tempo": 120.0
            },
            {
                "start_time": 49.48409090909091,
                "end_time": 49.53181818181818,
                "pitch": 60,
                "velocity": 101,
                "duration": 0.04772727272727195,
                "tempo": 120.0
            },
            {
                "start_time": 49.58181818181818,
                "end_time": 49.63181818181818,
                "pitch": 61,
                "velocity": 101,
                "duration": 0.05000000000000426,
                "tempo": 120.0
            },
            {
                "start_time": 49.68181818181818,
                "end_time": 49.73181818181818,
                "pitch": 60,
                "velocity": 101,
                "duration": 0.04999999999999716,
                "tempo": 120.0
            },
            {
                "start_time": 49.78181818181818,
                "end_time": 49.83181818181818,
                "pitch": 59,
                "velocity": 101,
                "duration": 0.04999999999999716,
                "tempo": 120.0
            },
            {
                "start_time": 49.88863636363636,
                "end_time": 49.93181818181818,
                "pitch": 64,
                "velocity": 101,
                "duration": 0.04318181818182154,
                "tempo": 120.0
            },
            {
                "start_time": 49.98409090909091,
                "end_time": 50.03636363636363,
                "pitch": 65,
                "velocity": 101,
                "duration": 0.052272727272722364,
                "tempo": 120.0
            },
            {
                "start_time": 50.08863636363636,
                "end_time": 50.13863636363636,
                "pitch": 64,
                "velocity": 101,
                "duration": 0.04999999999999716,
                "tempo": 120.0
            },
            {
                "start_time": 50.19090909090909,
                "end_time": 50.240909090909085,
                "pitch": 63,
                "velocity": 101,
                "duration": 0.04999999999999716,
                "tempo": 120.0
            },
            {
                "start_time": 50.29545454545454,
                "end_time": 50.340909090909086,
                "pitch": 64,
                "velocity": 101,
                "duration": 0.045454545454546746,
                "tempo": 120.0
            },
            {
                "start_time": 50.39090909090909,
                "end_time": 50.44090909090909,
                "pitch": 65,
                "velocity": 101,
                "duration": 0.04999999999999716,
                "tempo": 120.0
            },
            {
                "start_time": 50.490909090909085,
                "end_time": 50.538636363636364,
                "pitch": 64,
                "velocity": 101,
                "duration": 0.04772727272727906,
                "tempo": 120.0
            },
            {
                "start_time": 50.58863636363636,
                "end_time": 50.63636363636363,
                "pitch": 63,
                "velocity": 101,
                "duration": 0.04772727272727195,
                "tempo": 120.0
            },
            {
                "start_time": 50.68636363636364,
                "end_time": 50.736363636363635,
                "pitch": 64,
                "velocity": 101,
                "duration": 0.04999999999999716,
                "tempo": 120.0
            },
            {
                "start_time": 50.78636363636363,
                "end_time": 50.836363636363636,
                "pitch": 65,
                "velocity": 101,
                "duration": 0.05000000000000426,
                "tempo": 120.0
            },
            {
                "start_time": 50.88636363636363,
                "end_time": 50.93636363636364,
                "pitch": 64,
                "velocity": 101,
                "duration": 0.05000000000000426,
                "tempo": 120.0
            },
            {
                "start_time": 50.986363636363635,
                "end_time": 51.03636363636363,
                "pitch": 63,
                "velocity": 101,
                "duration": 0.04999999999999716,
                "tempo": 120.0
            },
            {
                "start_time": 51.08863636363636,
                "end_time": 51.13636363636363,
                "pitch": 64,
                "velocity": 101,
                "duration": 0.04772727272727195,
                "tempo": 120.0
            },
            {
                "start_time": 51.18636363636364,
                "end_time": 51.236363636363635,
                "pitch": 65,
                "velocity": 101,
                "duration": 0.04999999999999716,
                "tempo": 120.0
            },
            {
                "start_time": 51.28636363636363,
                "end_time": 51.336363636363636,
                "pitch": 64,
                "velocity": 101,
                "duration": 0.05000000000000426,
                "tempo": 120.0
            },
            {
                "start_time": 51.38636363636363,
                "end_time": 51.43636363636364,
                "pitch": 63,
                "velocity": 101,
                "duration": 0.05000000000000426,
                "tempo": 120.0
            },
            {
                "start_time": 51.490909090909085,
                "end_time": 51.53636363636363,
                "pitch": 60,
                "velocity": 101,
                "duration": 0.045454545454546746,
                "tempo": 120.0
            },
            {
                "start_time": 51.590909090909086,
                "end_time": 51.64090909090909,
                "pitch": 61,
                "velocity": 101,
                "duration": 0.05000000000000426,
                "tempo": 120.0
            },
            {
                "start_time": 51.69318181818181,
                "end_time": 51.74318181818182,
                "pitch": 60,
                "velocity": 101,
                "duration": 0.05000000000000426,
                "tempo": 120.0
            },
            {
                "start_time": 51.79545454545454,
                "end_time": 51.845454545454544,
                "pitch": 59,
                "velocity": 101,
                "duration": 0.05000000000000426,
                "tempo": 120.0
            },
            {
                "start_time": 51.9,
                "end_time": 51.94772727272727,
                "pitch": 60,
                "velocity": 101,
                "duration": 0.04772727272727195,
                "tempo": 120.0
            },
            {
                "start_time": 52.0,
                "end_time": 52.04772727272727,
                "pitch": 61,
                "velocity": 101,
                "duration": 0.04772727272727195,
                "tempo": 120.0
            },
            {
                "start_time": 52.099999999999994,
                "end_time": 52.14772727272727,
                "pitch": 60,
                "velocity": 101,
                "duration": 0.04772727272727906,
                "tempo": 120.0
            },
            {
                "start_time": 52.199999999999996,
                "end_time": 52.24772727272727,
                "pitch": 59,
                "velocity": 101,
                "duration": 0.04772727272727195,
                "tempo": 120.0
            },
            {
                "start_time": 52.3,
                "end_time": 52.34772727272727,
                "pitch": 60,
                "velocity": 101,
                "duration": 0.04772727272727195,
                "tempo": 120.0
            },
            {
                "start_time": 52.4,
                "end_time": 52.44772727272727,
                "pitch": 61,
                "velocity": 101,
                "duration": 0.04772727272727195,
                "tempo": 120.0
            },
            {
                "start_time": 52.5,
                "end_time": 52.54772727272727,
                "pitch": 60,
                "velocity": 101,
                "duration": 0.04772727272727195,
                "tempo": 120.0
            },
            {
                "start_time": 52.599999999999994,
                "end_time": 52.64772727272727,
                "pitch": 59,
                "velocity": 101,
                "duration": 0.04772727272727906,
                "tempo": 120.0
            },
            {
                "start_time": 52.70227272727273,
                "end_time": 52.74772727272727,
                "pitch": 60,
                "velocity": 101,
                "duration": 0.04545454545453964,
                "tempo": 120.0
            },
            {
                "start_time": 52.8,
                "end_time": 52.849999999999994,
                "pitch": 61,
                "velocity": 101,
                "duration": 0.04999999999999716,
                "tempo": 120.0
            },
            {
                "start_time": 52.9,
                "end_time": 52.949999999999996,
                "pitch": 60,
                "velocity": 101,
                "duration": 0.04999999999999716,
                "tempo": 120.0
            }
        ]
    }
}