{
    "track_id": "03 Opening Theme",
    "mood": "angry",
    "instruments": {
        "Lead 2 (sawtooth)": [
            {
                "start_time": 0.0022727272727272726,
                "end_time": 0.05454545454545454,
                "pitch": 38,
                "velocity": 25,
                "duration": 0.05227272727272727,
                "tempo": 120.0
            },
            {
                "start_time": 0.09545454545454544,
                "end_time": 0.17727272727272728,
                "pitch": 38,
                "velocity": 25,
                "duration": 0.08181818181818183,
                "tempo": 120.0
            },
            {
                "start_time": 0.21136363636363636,
                "end_time": 0.3136363636363636,
                "pitch": 38,
                "velocity": 32,
                "duration": 0.10227272727272724,
                "tempo": 120.0
            },
            {
                "start_time": 0.3477272727272727,
                "end_time": 0.5704545454545454,
                "pitch": 38,
                "velocity": 32,
                "duration": 0.22272727272727272,
                "tempo": 120.0
            },
            {
                "start_time": 0.6045454545454545,
                "end_time": 0.8295454545454545,
                "pitch": 38,
                "velocity": 32,
                "duration": 0.22499999999999998,
                "tempo": 120.0
            },
            {
                "start_time": 0.8659090909090909,
                "end_time": 0.9681818181818181,
                "pitch": 38,
                "velocity": 32,
                "duration": 0.10227272727272729,
                "tempo": 120.0
            },
            {
                "start_time": 1.0045454545454544,
                "end_time": 1.0909090909090908,
                "pitch": 38,
                "velocity": 40,
                "duration": 0.08636363636363642,
                "tempo": 120.0
            },
            {
                "start_time": 1.143181818181818,
                "end_time": 1.2318181818181817,
                "pitch": 38,
                "velocity": 40,
                "duration": 0.08863636363636362,
                "tempo": 120.0
            },
            {
                "start_time": 1.268181818181818,
                "end_time": 1.3568181818181817,
                "pitch": 38,
                "velocity": 40,
                "duration": 0.08863636363636362,
                "tempo": 120.0
            },
            {
                "start_time": 1.409090909090909,
                "end_time": 1.6409090909090909,
                "pitch": 38,
                "velocity": 40,
                "duration": 0.23181818181818192,
                "tempo": 120.0
            },
            {
                "start_time": 1.6772727272727272,
                "end_time": 1.909090909090909,
                "pitch": 38,
                "velocity": 51,
                "duration": 0.2318181818181817,
                "tempo": 120.0
            },
            {
                "start_time": 1.9454545454545453,
                "end_time": 2.034090909090909,
                "pitch": 38,
                "velocity": 51,
                "duration": 0.08863636363636385,
                "tempo": 120.0
            },
            {
                "start_time": 2.0863636363636364,
                "end_time": 2.1772727272727272,
                "pitch": 38,
                "velocity": 51,
                "duration": 0.09090909090909083,
                "tempo": 120.0
            },
            {
                "start_time": 2.2113636363636364,
                "end_time": 2.315909090909091,
                "pitch": 38,
                "velocity": 51,
                "duration": 0.1045454545454545,
                "tempo": 120.0
            },
            {
                "start_time": 2.35,
                "end_time": 2.434090909090909,
                "pitch": 38,
                "velocity": 51,
                "duration": 0.084090909090909,
                "tempo": 120.0
            },
            {
                "start_time": 2.4863636363636363,
                "end_time": 2.690909090909091,
                "pitch": 38,
                "velocity": 64,
                "duration": 0.20454545454545459,
                "tempo": 120.0
            },
            {
                "start_time": 2.743181818181818,
                "end_time": 2.977272727272727,
                "pitch": 38,
                "velocity": 64,
                "duration": 0.2340909090909089,
                "tempo": 120.0
            },
            {
                "start_time": 3.0136363636363637,
                "end_time": 3.1045454545454545,
                "pitch": 38,
                "velocity": 64,
                "duration": 0.09090909090909083,
                "tempo": 120.0
            },
            {
                "start_time": 3.1590909090909087,
                "end_time": 3.25,
                "pitch": 38,
                "velocity": 80,
                "duration": 0.09090909090909127,
                "tempo": 120.0
            },
            {
                "start_time": 3.286363636363636,
                "end_time": 3.368181818181818,
                "pitch": 38,
                "velocity": 80,
                "duration": 0.08181818181818201,
                "tempo": 120.0
            },
            {
                "start_time": 3.418181818181818,
                "end_time": 3.502272727272727,
                "pitch": 38,
                "velocity": 80,
                "duration": 0.084090909090909,
                "tempo": 120.0
            },
            {
                "start_time": 3.5522727272727272,
                "end_time": 3.752272727272727,
                "pitch": 38,
                "velocity": 101,
                "duration": 0.19999999999999973,
                "tempo": 120.0
            },
            {
                "start_time": 3.8022727272727272,
                "end_time": 4.0204545454545455,
                "pitch": 38,
                "velocity": 101,
                "duration": 0.21818181818181825,
                "tempo": 120.0
            },
            {
                "start_time": 4.075,
                "end_time": 4.165909090909091,
                "pitch": 38,
                "velocity": 127,
                "duration": 0.09090909090909083,
                "tempo": 120.0
            },
            {
                "start_time": 4.220454545454546,
                "end_time": 6.284090909090909,
                "pitch": 28,
                "velocity": 127,
                "duration": 2.0636363636363635,
                "tempo": 120.0
            },
            {
                "start_time": 6.3181818181818175,
                "end_time": 6.420454545454545,
                "pitch": 28,
                "velocity": 127,
                "duration": 0.10227272727272751,
                "tempo": 120.0
            },
            {
                "start_time": 6.4386363636363635,
                "end_time": 6.540909090909091,
                "pitch": 28,
                "velocity": 127,
                "duration": 0.10227272727272751,
                "tempo": 120.0
            },
            {
                "start_time": 6.559090909090909,
                "end_time": 6.779545454545454,
                "pitch": 28,
                "velocity": 127,
                "duration": 0.22045454545454568,
                "tempo": 120.0
            },
            {
                "start_time": 6.797727272727273,
                "end_time": 7.027272727272727,
                "pitch": 28,
                "velocity": 127,
                "duration": 0.2295454545454545,
                "tempo": 120.0
            },
            {
                "start_time": 7.043181818181818,
                "end_time": 7.143181818181818,
                "pitch": 28,
                "velocity": 127,
                "duration": 0.09999999999999964,
                "tempo": 120.0
            },
            {
                "start_time": 7.159090909090909,
                "end_time": 7.256818181818182,
                "pitch": 28,
                "velocity": 127,
                "duration": 0.09772727272727266,
                "tempo": 120.0
            },
            {
                "start_time": 7.2749999999999995,
                "end_time": 7.372727272727272,
                "pitch": 28,
                "velocity": 127,
                "duration": 0.09772727272727266,
                "tempo": 120.0
            },
            {
                "start_time": 7.404545454545454,
                "end_time": 7.504545454545454,
                "pitch": 28,
                "velocity": 127,
                "duration": 0.09999999999999964,
                "tempo": 120.0
            },
            {
                "start_time": 7.5204545454545455,
                "end_time": 7.7340909090909085,
                "pitch": 28,
                "velocity": 127,
                "duration": 0.21363636363636296,
                "tempo": 120.0
            },
            {
                "start_time": 7.75,
                "end_time": 7.968181818181818,
                "pitch": 28,
                "velocity": 127,
                "duration": 0.2181818181818178,
                "tempo": 120.0
            },
            {
                "start_time": 8.002272727272727,
                "end_time": 8.104545454545454,
                "pitch": 28,
                "velocity": 127,
                "duration": 0.10227272727272663,
                "tempo": 120.0
            },
            {
                "start_time": 8.120454545454544,
                "end_time": 10.179545454545455,
                "pitch": 28,
                "velocity": 127,
                "duration": 2.0590909090909104,
                "tempo": 120.0
            },
            {
                "start_time": 10.195454545454545,
                "end_time": 10.297727272727272,
                "pitch": 28,
                "velocity": 127,
                "duration": 0.10227272727272663,
                "tempo": 120.0
            },
            {
                "start_time": 10.331818181818182,
                "end_time": 10.431818181818182,
                "pitch": 28,
                "velocity": 127,
                "duration": 0.09999999999999964,
                "tempo": 120.0
            },
            {
                "start_time": 10.45,
                "end_time": 10.668181818181818,
                "pitch": 28,
                "velocity": 127,
                "duration": 0.2181818181818187,
                "tempo": 120.0
            },
            {
                "start_time": 10.684090909090909,
                "end_time": 10.897727272727272,
                "pitch": 28,
                "velocity": 127,
                "duration": 0.21363636363636296,
                "tempo": 120.0
            },
            {
                "start_time": 10.931818181818182,
                "end_time": 11.029545454545454,
                "pitch": 28,
                "velocity": 127,
                "duration": 0.09772727272727266,
                "tempo": 120.0
            },
            {
                "start_time": 11.045454545454545,
                "end_time": 11.143181818181818,
                "pitch": 28,
                "velocity": 127,
                "duration": 0.09772727272727266,
                "tempo": 120.0
            },
            {
                "start_time": 11.159090909090908,
                "end_time": 11.25,
                "pitch": 28,
                "velocity": 127,
                "duration": 0.09090909090909172,
                "tempo": 120.0
            },
            {
                "start_time": 11.26590909090909,
                "end_time": 11.35681818181818,
                "pitch": 28,
                "velocity": 127,
                "duration": 0.09090909090908994,
                "tempo": 120.0
            },
            {
                "start_time": 11.388636363636364,
                "end_time": 11.584090909090909,
                "pitch": 28,
                "velocity": 127,
                "duration": 0.19545454545454533,
                "tempo": 120.0
            },
            {
                "start_time": 11.597727272727273,
                "end_time": 11.788636363636362,
                "pitch": 28,
                "velocity": 127,
                "duration": 0.19090909090908958,
                "tempo": 120.0
            },
            {
                "start_time": 11.804545454545455,
                "end_time": 11.893181818181818,
                "pitch": 28,
                "velocity": 127,
                "duration": 0.08863636363636296,
                "tempo": 120.0
            },
            {
                "start_time": 75.89545454545454,
                "end_time": 75.99772727272727,
                "pitch": 47,
                "velocity": 32,
                "duration": 0.10227272727273373,
                "tempo": 120.0
            },
            {
                "start_time": 76.01363636363637,
                "end_time": 76.11363636363636,
                "pitch": 47,
                "velocity": 32,
                "duration": 0.09999999999999432,
                "tempo": 120.0
            },
            {
                "start_time": 76.14772727272727,
                "end_time": 76.25,
                "pitch": 47,
                "velocity": 40,
                "duration": 0.10227272727273373,
                "tempo": 120.0
            },
            {
                "start_time": 76.26590909090909,
                "end_time": 76.36590909090908,
                "pitch": 47,
                "velocity": 40,
                "duration": 0.09999999999999432,
                "tempo": 120.0
            },
            {
                "start_time": 76.3840909090909,
                "end_time": 76.48636363636363,
                "pitch": 47,
                "velocity": 51,
                "duration": 0.10227272727273373,
                "tempo": 120.0
            },
            {
                "start_time": 76.50227272727273,
                "end_time": 76.60681818181818,
                "pitch": 47,
                "velocity": 51,
                "duration": 0.10454545454545894,
                "tempo": 120.0
            },
            {
                "start_time": 76.62272727272727,
                "end_time": 76.725,
                "pitch": 47,
                "velocity": 64,
                "duration": 0.10227272727271952,
                "tempo": 120.0
            },
            {
                "start_time": 76.7590909090909,
                "end_time": 76.86136363636363,
                "pitch": 47,
                "velocity": 64,
                "duration": 0.10227272727273373,
                "tempo": 120.0
            },
            {
                "start_time": 76.87954545454545,
                "end_time": 76.97954545454544,
                "pitch": 47,
                "velocity": 80,
                "duration": 0.09999999999999432,
                "tempo": 120.0
            },
            {
                "start_time": 76.99545454545454,
                "end_time": 77.09545454545454,
                "pitch": 47,
                "velocity": 80,
                "duration": 0.10000000000000853,
                "tempo": 120.0
            },
            {
                "start_time": 77.11363636363636,
                "end_time": 77.21363636363635,
                "pitch": 47,
                "velocity": 101,
                "duration": 0.09999999999999432,
                "tempo": 120.0
            },
            {
                "start_time": 77.22954545454544,
                "end_time": 77.32954545454545,
                "pitch": 47,
                "velocity": 101,
                "duration": 0.10000000000000853,
                "tempo": 120.0
            },
            {
                "start_time": 77.36363636363636,
                "end_time": 77.4659090909091,
                "pitch": 47,
                "velocity": 127,
                "duration": 0.10227272727273373,
                "tempo": 120.0
            },
            {
                "start_time": 77.48181818181818,
                "end_time": 77.58636363636363,
                "pitch": 47,
                "velocity": 127,
                "duration": 0.10454545454544473,
                "tempo": 120.0
            },
            {
                "start_time": 77.60227272727272,
                "end_time": 77.70454545454545,
                "pitch": 47,
                "velocity": 127,
                "duration": 0.10227272727273373,
                "tempo": 120.0
            },
            {
                "start_time": 77.72272727272727,
                "end_time": 77.825,
                "pitch": 47,
                "velocity": 127,
                "duration": 0.10227272727273373,
                "tempo": 120.0
            },
            {
                "start_time": 77.85909090909091,
                "end_time": 79.87727272727273,
                "pitch": 28,
                "velocity": 127,
                "duration": 2.018181818181816,
                "tempo": 120.0
            },
            {
                "start_time": 79.89318181818182,
                "end_time": 79.99545454545454,
                "pitch": 28,
                "velocity": 127,
                "duration": 0.10227272727271952,
                "tempo": 120.0
            },
            {
                "start_time": 80.01363636363637,
                "end_time": 80.11590909090908,
                "pitch": 28,
                "velocity": 127,
                "duration": 0.10227272727271952,
                "tempo": 120.0
            },
            {
                "start_time": 80.14999999999999,
                "end_time": 80.36818181818181,
                "pitch": 28,
                "velocity": 127,
                "duration": 0.2181818181818187,
                "tempo": 120.0
            },
            {
                "start_time": 80.3840909090909,
                "end_time": 80.59772727272727,
                "pitch": 28,
                "velocity": 127,
                "duration": 0.2136363636363683,
                "tempo": 120.0
            },
            {
                "start_time": 80.61590909090908,
                "end_time": 80.71363636363635,
                "pitch": 28,
                "velocity": 127,
                "duration": 0.09772727272726911,
                "tempo": 120.0
            },
            {
                "start_time": 80.74545454545454,
                "end_time": 80.84772727272727,
                "pitch": 28,
                "velocity": 127,
                "duration": 0.10227272727273373,
                "tempo": 120.0
            },
            {
                "start_time": 80.86590909090908,
                "end_time": 80.96818181818182,
                "pitch": 28,
                "velocity": 127,
                "duration": 0.10227272727273373,
                "tempo": 120.0
            },
            {
                "start_time": 80.98636363636363,
                "end_time": 81.08863636363635,
                "pitch": 28,
                "velocity": 127,
                "duration": 0.10227272727271952,
                "tempo": 120.0
            },
            {
                "start_time": 81.10454545454544,
                "end_time": 81.32272727272726,
                "pitch": 28,
                "velocity": 127,
                "duration": 0.2181818181818187,
                "tempo": 120.0
            },
            {
                "start_time": 81.35681818181818,
                "end_time": 81.57045454545454,
                "pitch": 28,
                "velocity": 127,
                "duration": 0.21363636363635408,
                "tempo": 120.0
            },
            {
                "start_time": 81.58636363636363,
                "end_time": 81.68409090909091,
                "pitch": 28,
                "velocity": 127,
                "duration": 0.09772727272728332,
                "tempo": 120.0
            },
            {
                "start_time": 81.70227272727273,
                "end_time": 83.74545454545454,
                "pitch": 28,
                "velocity": 127,
                "duration": 2.0431818181818073,
                "tempo": 120.0
            },
            {
                "start_time": 83.76363636363637,
                "end_time": 83.86590909090908,
                "pitch": 28,
                "velocity": 127,
                "duration": 0.10227272727271952,
                "tempo": 120.0
            },
            {
                "start_time": 83.8840909090909,
                "end_time": 83.98863636363636,
                "pitch": 28,
                "velocity": 127,
                "duration": 0.10454545454545894,
                "tempo": 120.0
            },
            {
                "start_time": 84.00681818181818,
                "end_time": 84.22272727272727,
                "pitch": 28,
                "velocity": 127,
                "duration": 0.2159090909090935,
                "tempo": 120.0
            },
            {
                "start_time": 84.25681818181818,
                "end_time": 84.46363636363635,
                "pitch": 28,
                "velocity": 127,
                "duration": 0.20681818181817846,
                "tempo": 120.0
            },
            {
                "start_time": 84.47954545454544,
                "end_time": 84.57727272727273,
                "pitch": 28,
                "velocity": 127,
                "duration": 0.09772727272728332,
                "tempo": 120.0
            },
            {
                "start_time": 114.68636363636364,
                "end_time": 114.78863636363636,
                "pitch": 47,
                "velocity": 32,
                "duration": 0.10227272727271952,
                "tempo": 120.0
            },
            {
                "start_time": 114.80681818181817,
                "end_time": 114.9090909090909,
                "pitch": 47,
                "velocity": 32,
                "duration": 0.10227272727273373,
                "tempo": 120.0
            },
            {
                "start_time": 114.925,
                "end_time": 115.02727272727272,
                "pitch": 47,
                "velocity": 40,
                "duration": 0.10227272727271952,
                "tempo": 120.0
            },
            {
                "start_time": 115.04545454545455,
                "end_time": 115.14772727272727,
                "pitch": 47,
                "velocity": 40,
                "duration": 0.10227272727271952,
                "tempo": 120.0
            },
            {
                "start_time": 115.18181818181817,
                "end_time": 115.2840909090909,
                "pitch": 47,
                "velocity": 51,
                "duration": 0.10227272727273373,
                "tempo": 120.0
            },
            {
                "start_time": 115.3,
                "end_time": 115.39999999999999,
                "pitch": 47,
                "velocity": 51,
                "duration": 0.09999999999999432,
                "tempo": 120.0
            },
            {
                "start_time": 115.41818181818181,
                "end_time": 115.51818181818182,
                "pitch": 47,
                "velocity": 64,
                "duration": 0.10000000000000853,
                "tempo": 120.0
            },
            {
                "start_time": 115.53636363636363,
                "end_time": 115.63636363636363,
                "pitch": 47,
                "velocity": 64,
                "duration": 0.09999999999999432,
                "tempo": 120.0
            },
            {
                "start_time": 115.65454545454544,
                "end_time": 115.75227272727273,
                "pitch": 47,
                "velocity": 80,
                "duration": 0.09772727272728332,
                "tempo": 120.0
            },
            {
                "start_time": 115.7840909090909,
                "end_time": 115.8840909090909,
                "pitch": 47,
                "velocity": 80,
                "duration": 0.09999999999999432,
                "tempo": 120.0
            },
            {
                "start_time": 115.89999999999999,
                "end_time": 115.99772727272726,
                "pitch": 47,
                "velocity": 101,
                "duration": 0.09772727272726911,
                "tempo": 120.0
            },
            {
                "start_time": 116.01590909090909,
                "end_time": 116.11363636363636,
                "pitch": 47,
                "velocity": 101,
                "duration": 0.09772727272726911,
                "tempo": 120.0
            },
            {
                "start_time": 116.12954545454545,
                "end_time": 116.23181818181817,
                "pitch": 47,
                "velocity": 127,
                "duration": 0.10227272727271952,
                "tempo": 120.0
            },
            {
                "start_time": 116.25,
                "end_time": 116.35227272727272,
                "pitch": 47,
                "velocity": 127,
                "duration": 0.10227272727271952,
                "tempo": 120.0
            },
            {
                "start_time": 116.38636363636363,
                "end_time": 116.48863636363636,
                "pitch": 47,
                "velocity": 127,
                "duration": 0.10227272727273373,
                "tempo": 120.0
            },
            {
                "start_time": 116.50454545454545,
                "end_time": 116.60681818181817,
                "pitch": 47,
                "velocity": 127,
                "duration": 0.10227272727271952,
                "tempo": 120.0
            },
            {
                "start_time": 116.625,
                "end_time": 118.77045454545454,
                "pitch": 28,
                "velocity": 127,
                "duration": 2.145454545454541,
                "tempo": 120.0
            },
            {
                "start_time": 118.8090909090909,
                "end_time": 118.91363636363636,
                "pitch": 28,
                "velocity": 127,
                "duration": 0.10454545454545894,
                "tempo": 120.0
            },
            {
                "start_time": 118.92954545454545,
                "end_time": 119.03181818181818,
                "pitch": 28,
                "velocity": 127,
                "duration": 0.10227272727273373,
                "tempo": 120.0
            },
            {
                "start_time": 119.05,
                "end_time": 119.27272727272727,
                "pitch": 28,
                "velocity": 127,
                "duration": 0.2227272727272691,
                "tempo": 120.0
            },
            {
                "start_time": 119.30681818181817,
                "end_time": 119.52272727272727,
                "pitch": 28,
                "velocity": 127,
                "duration": 0.2159090909090935,
                "tempo": 120.0
            },
            {
                "start_time": 119.54090909090908,
                "end_time": 119.64090909090909,
                "pitch": 28,
                "velocity": 127,
                "duration": 0.10000000000000853,
                "tempo": 120.0
            },
            {
                "start_time": 119.65681818181818,
                "end_time": 119.75681818181818,
                "pitch": 28,
                "velocity": 127,
                "duration": 0.09999999999999432,
                "tempo": 120.0
            },
            {
                "start_time": 119.77499999999999,
                "end_time": 119.87272727272726,
                "pitch": 28,
                "velocity": 127,
                "duration": 0.09772727272726911,
                "tempo": 120.0
            },
            {
                "start_time": 119.90454545454544,
                "end_time": 120.00454545454545,
                "pitch": 28,
                "velocity": 127,
                "duration": 0.10000000000000853,
                "tempo": 120.0
            },
            {
                "start_time": 120.02045454545454,
                "end_time": 120.23409090909091,
                "pitch": 28,
                "velocity": 127,
                "duration": 0.2136363636363683,
                "tempo": 120.0
            },
            {
                "start_time": 120.25,
                "end_time": 120.46818181818182,
                "pitch": 28,
                "velocity": 127,
                "duration": 0.2181818181818187,
                "tempo": 120.0
            },
            {
                "start_time": 120.50227272727273,
                "end_time": 120.60227272727272,
                "pitch": 28,
                "velocity": 127,
                "duration": 0.09999999999999432,
                "tempo": 120.0
            },
            {
                "start_time": 120.62045454545454,
                "end_time": 122.55227272727272,
                "pitch": 28,
                "velocity": 127,
                "duration": 1.931818181818187,
                "tempo": 120.0
            },
            {
                "start_time": 124.51363636363635,
                "end_time": 124.61590909090908,
                "pitch": 28,
                "velocity": 127,
                "duration": 0.10227272727273373,
                "tempo": 120.0
            },
            {
                "start_time": 124.63181818181818,
                "end_time": 124.73409090909091,
                "pitch": 28,
                "velocity": 127,
                "duration": 0.10227272727273373,
                "tempo": 120.0
            },
            {
                "start_time": 124.75,
                "end_time": 124.85,
                "pitch": 28,
                "velocity": 127,
                "duration": 0.09999999999999432,
                "tempo": 120.0
            },
            {
                "start_time": 124.86818181818181,
                "end_time": 124.96818181818182,
                "pitch": 28,
                "velocity": 127,
                "duration": 0.10000000000000853,
                "tempo": 120.0
            },
            {
                "start_time": 124.98636363636363,
                "end_time": 125.08636363636363,
                "pitch": 28,
                "velocity": 127,
                "duration": 0.09999999999999432,
                "tempo": 120.0
            },
            {
                "start_time": 125.12045454545454,
                "end_time": 125.22272727272727,
                "pitch": 28,
                "velocity": 127,
                "duration": 0.10227272727273373,
                "tempo": 120.0
            },
            {
                "start_time": 125.24090909090908,
                "end_time": 125.34318181818182,
                "pitch": 28,
                "velocity": 127,
                "duration": 0.10227272727273373,
                "tempo": 120.0
            },
            {
                "start_time": 125.35909090909091,
                "end_time": 125.46136363636363,
                "pitch": 28,
                "velocity": 127,
                "duration": 0.10227272727271952,
                "tempo": 120.0
            }
        ],
        "Trumpet": [
            {
                "start_time": 12.156818181818181,
                "end_time": 12.256818181818181,
                "pitch": 71,
                "velocity": 64,
                "duration": 0.09999999999999964,
                "tempo": 120.0
            },
            {
                "start_time": 12.274999999999999,
                "end_time": 12.375,
                "pitch": 76,
                "velocity": 64,
                "duration": 0.10000000000000142,
                "tempo": 120.0
            },
            {
                "start_time": 12.393181818181818,
                "end_time": 12.49090909090909,
                "pitch": 79,
                "velocity": 64,
                "duration": 0.09772727272727266,
                "tempo": 120.0
            },
            {
                "start_time": 12.638636363636364,
                "end_time": 12.736363636363636,
                "pitch": 71,
                "velocity": 64,
                "duration": 0.09772727272727266,
                "tempo": 120.0
            },
            {
                "start_time": 12.754545454545454,
                "end_time": 12.852272727272727,
                "pitch": 76,
                "velocity": 64,
                "duration": 0.09772727272727266,
                "tempo": 120.0
            },
            {
                "start_time": 12.868181818181817,
                "end_time": 13.822727272727272,
                "pitch": 79,
                "velocity": 64,
                "duration": 0.954545454545455,
                "tempo": 120.0
            },
            {
                "start_time": 14.079545454545453,
                "end_time": 14.436363636363636,
                "pitch": 84,
                "velocity": 64,
                "duration": 0.35681818181818237,
                "tempo": 120.0
            },
            {
                "start_time": 14.454545454545453,
                "end_time": 14.790909090909091,
                "pitch": 83,
                "velocity": 64,
                "duration": 0.33636363636363775,
                "tempo": 120.0
            },
            {
                "start_time": 14.822727272727272,
                "end_time": 15.165909090909091,
                "pitch": 81,
                "velocity": 64,
                "duration": 0.3431818181818187,
                "tempo": 120.0
            },
            {
                "start_time": 15.181818181818182,
                "end_time": 15.527272727272727,
                "pitch": 79,
                "velocity": 64,
                "duration": 0.3454545454545457,
                "tempo": 120.0
            },
            {
                "start_time": 15.543181818181818,
                "end_time": 15.752272727272727,
                "pitch": 78,
                "velocity": 64,
                "duration": 0.209090909090909,
                "tempo": 120.0
            },
            {
                "start_time": 16.022727272727273,
                "end_time": 16.125,
                "pitch": 74,
                "velocity": 64,
                "duration": 0.10227272727272663,
                "tempo": 120.0
            },
            {
                "start_time": 16.143181818181816,
                "end_time": 16.245454545454546,
                "pitch": 78,
                "velocity": 64,
                "duration": 0.10227272727273018,
                "tempo": 120.0
            },
            {
                "start_time": 16.263636363636362,
                "end_time": 16.363636363636363,
                "pitch": 81,
                "velocity": 64,
                "duration": 0.10000000000000142,
                "tempo": 120.0
            },
            {
                "start_time": 16.51590909090909,
                "end_time": 16.61590909090909,
                "pitch": 74,
                "velocity": 64,
                "duration": 0.09999999999999787,
                "tempo": 120.0
            },
            {
                "start_time": 16.634090909090908,
                "end_time": 16.73409090909091,
                "pitch": 78,
                "velocity": 64,
                "duration": 0.10000000000000142,
                "tempo": 120.0
            },
            {
                "start_time": 16.75,
                "end_time": 17.71818181818182,
                "pitch": 81,
                "velocity": 64,
                "duration": 0.9681818181818187,
                "tempo": 120.0
            },
            {
                "start_time": 18.702272727272728,
                "end_time": 19.038636363636364,
                "pitch": 83,
                "velocity": 64,
                "duration": 0.336363636363636,
                "tempo": 120.0
            },
            {
                "start_time": 19.054545454545455,
                "end_time": 19.388636363636362,
                "pitch": 81,
                "velocity": 64,
                "duration": 0.3340909090909072,
                "tempo": 120.0
            },
            {
                "start_time": 19.422727272727272,
                "end_time": 19.525,
                "pitch": 79,
                "velocity": 64,
                "duration": 0.10227272727272663,
                "tempo": 120.0
            },
            {
                "start_time": 19.54090909090909,
                "end_time": 19.643181818181816,
                "pitch": 78,
                "velocity": 64,
                "duration": 0.10227272727272663,
                "tempo": 120.0
            },
            {
                "start_time": 19.661363636363635,
                "end_time": 20.620454545454546,
                "pitch": 79,
                "velocity": 64,
                "duration": 0.9590909090909108,
                "tempo": 120.0
            },
            {
                "start_time": 20.636363636363637,
                "end_time": 21.586363636363636,
                "pitch": 86,
                "velocity": 64,
                "duration": 0.9499999999999993,
                "tempo": 120.0
            },
            {
                "start_time": 21.604545454545452,
                "end_time": 22.063636363636363,
                "pitch": 84,
                "velocity": 64,
                "duration": 0.45909090909091077,
                "tempo": 120.0
            },
            {
                "start_time": 22.079545454545453,
                "end_time": 22.318181818181817,
                "pitch": 83,
                "velocity": 64,
                "duration": 0.2386363636363633,
                "tempo": 120.0
            },
            {
                "start_time": 22.336363636363636,
                "end_time": 22.795454545454543,
                "pitch": 81,
                "velocity": 64,
                "duration": 0.4590909090909072,
                "tempo": 120.0
            },
            {
                "start_time": 22.827272727272724,
                "end_time": 23.279545454545453,
                "pitch": 79,
                "velocity": 64,
                "duration": 0.45227272727272805,
                "tempo": 120.0
            },
            {
                "start_time": 23.297727272727272,
                "end_time": 23.53181818181818,
                "pitch": 78,
                "velocity": 64,
                "duration": 0.23409090909090935,
                "tempo": 120.0
            },
            {
                "start_time": 23.547727272727272,
                "end_time": 25.461363636363636,
                "pitch": 79,
                "velocity": 64,
                "duration": 1.913636363636364,
                "tempo": 120.0
            },
            {
                "start_time": 31.570454545454545,
                "end_time": 31.672727272727272,
                "pitch": 71,
                "velocity": 64,
                "duration": 0.10227272727272663,
                "tempo": 120.0
            },
            {
                "start_time": 31.688636363636363,
                "end_time": 31.78863636363636,
                "pitch": 76,
                "velocity": 64,
                "duration": 0.09999999999999787,
                "tempo": 120.0
            },
            {
                "start_time": 31.80681818181818,
                "end_time": 31.904545454545453,
                "pitch": 79,
                "velocity": 64,
                "duration": 0.09772727272727266,
                "tempo": 120.0
            },
            {
                "start_time": 32.05227272727272,
                "end_time": 32.152272727272724,
                "pitch": 71,
                "velocity": 64,
                "duration": 0.10000000000000142,
                "tempo": 120.0
            },
            {
                "start_time": 32.168181818181814,
                "end_time": 32.26590909090909,
                "pitch": 76,
                "velocity": 64,
                "duration": 0.09772727272727622,
                "tempo": 120.0
            },
            {
                "start_time": 32.28181818181818,
                "end_time": 33.25,
                "pitch": 79,
                "velocity": 64,
                "duration": 0.9681818181818187,
                "tempo": 120.0
            },
            {
                "start_time": 33.5,
                "end_time": 33.85227272727273,
                "pitch": 84,
                "velocity": 64,
                "duration": 0.3522727272727266,
                "tempo": 120.0
            },
            {
                "start_time": 33.87045454545454,
                "end_time": 34.211363636363636,
                "pitch": 83,
                "velocity": 64,
                "duration": 0.3409090909090935,
                "tempo": 120.0
            },
            {
                "start_time": 34.22954545454545,
                "end_time": 34.57272727272727,
                "pitch": 81,
                "velocity": 64,
                "duration": 0.3431818181818187,
                "tempo": 120.0
            },
            {
                "start_time": 34.590909090909086,
                "end_time": 34.94090909090909,
                "pitch": 79,
                "velocity": 64,
                "duration": 0.3500000000000014,
                "tempo": 120.0
            },
            {
                "start_time": 34.95681818181818,
                "end_time": 35.175,
                "pitch": 78,
                "velocity": 64,
                "duration": 0.2181818181818187,
                "tempo": 120.0
            },
            {
                "start_time": 35.44318181818181,
                "end_time": 35.543181818181814,
                "pitch": 74,
                "velocity": 64,
                "duration": 0.10000000000000142,
                "tempo": 120.0
            },
            {
                "start_time": 35.559090909090905,
                "end_time": 35.65909090909091,
                "pitch": 78,
                "velocity": 64,
                "duration": 0.10000000000000142,
                "tempo": 120.0
            },
            {
                "start_time": 35.67727272727272,
                "end_time": 35.779545454545456,
                "pitch": 81,
                "velocity": 64,
                "duration": 0.10227272727273373,
                "tempo": 120.0
            },
            {
                "start_time": 35.91590909090909,
                "end_time": 36.018181818181816,
                "pitch": 74,
                "velocity": 64,
                "duration": 0.10227272727272663,
                "tempo": 120.0
            },
            {
                "start_time": 36.05227272727272,
                "end_time": 36.154545454545456,
                "pitch": 78,
                "velocity": 64,
                "duration": 0.10227272727273373,
                "tempo": 120.0
            },
            {
                "start_time": 36.17272727272727,
                "end_time": 37.11818181818182,
                "pitch": 81,
                "velocity": 64,
                "duration": 0.9454545454545453,
                "tempo": 120.0
            },
            {
                "start_time": 38.095454545454544,
                "end_time": 38.445454545454545,
                "pitch": 83,
                "velocity": 64,
                "duration": 0.3500000000000014,
                "tempo": 120.0
            },
            {
                "start_time": 38.46363636363636,
                "end_time": 38.79545454545455,
                "pitch": 81,
                "velocity": 64,
                "duration": 0.33181818181818556,
                "tempo": 120.0
            },
            {
                "start_time": 38.81363636363636,
                "end_time": 38.913636363636364,
                "pitch": 79,
                "velocity": 64,
                "duration": 0.10000000000000142,
                "tempo": 120.0
            },
            {
                "start_time": 38.94772727272727,
                "end_time": 39.04772727272727,
                "pitch": 78,
                "velocity": 64,
                "duration": 0.10000000000000142,
                "tempo": 120.0
            },
            {
                "start_time": 39.06363636363636,
                "end_time": 40.01363636363636,
                "pitch": 79,
                "velocity": 64,
                "duration": 0.9499999999999957,
                "tempo": 120.0
            },
            {
                "start_time": 40.04772727272727,
                "end_time": 40.975,
                "pitch": 86,
                "velocity": 64,
                "duration": 0.9272727272727295,
                "tempo": 120.0
            },
            {
                "start_time": 40.99090909090909,
                "end_time": 41.46818181818182,
                "pitch": 84,
                "velocity": 64,
                "duration": 0.4772727272727266,
                "tempo": 120.0
            },
            {
                "start_time": 41.486363636363635,
                "end_time": 41.70227272727273,
                "pitch": 83,
                "velocity": 64,
                "duration": 0.2159090909090935,
                "tempo": 120.0
            },
            {
                "start_time": 41.736363636363635,
                "end_time": 42.18863636363636,
                "pitch": 81,
                "velocity": 64,
                "duration": 0.45227272727272805,
                "tempo": 120.0
            },
            {
                "start_time": 42.20681818181818,
                "end_time": 42.679545454545455,
                "pitch": 79,
                "velocity": 64,
                "duration": 0.4727272727272762,
                "tempo": 120.0
            },
            {
                "start_time": 42.69772727272727,
                "end_time": 42.92045454545455,
                "pitch": 78,
                "velocity": 64,
                "duration": 0.22272727272727622,
                "tempo": 120.0
            },
            {
                "start_time": 42.95454545454545,
                "end_time": 44.86363636363636,
                "pitch": 79,
                "velocity": 64,
                "duration": 1.9090909090909065,
                "tempo": 120.0
            }
        ],
        "Electric Piano 1": [
            {
                "start_time": 3.161363636363636,
                "end_time": 3.1772727272727272,
                "pitch": 36,
                "velocity": 127,
                "duration": 0.015909090909091095,
                "tempo": 120.0
            },
            {
                "start_time": 3.1772727272727272,
                "end_time": 3.2136363636363634,
                "pitch": 33,
                "velocity": 127,
                "duration": 0.036363636363636154,
                "tempo": 120.0
            },
            {
                "start_time": 3.2136363636363634,
                "end_time": 3.25,
                "pitch": 31,
                "velocity": 127,
                "duration": 0.0363636363636366,
                "tempo": 120.0
            },
            {
                "start_time": 3.286363636363636,
                "end_time": 3.3022727272727272,
                "pitch": 32,
                "velocity": 127,
                "duration": 0.015909090909091095,
                "tempo": 120.0
            },
            {
                "start_time": 3.3022727272727272,
                "end_time": 3.3363636363636364,
                "pitch": 30,
                "velocity": 127,
                "duration": 0.03409090909090917,
                "tempo": 120.0
            },
            {
                "start_time": 3.3363636363636364,
                "end_time": 3.370454545454545,
                "pitch": 27,
                "velocity": 127,
                "duration": 0.03409090909090873,
                "tempo": 120.0
            },
            {
                "start_time": 3.370454545454545,
                "end_time": 3.402272727272727,
                "pitch": 24,
                "velocity": 127,
                "duration": 0.031818181818181746,
                "tempo": 120.0
            },
            {
                "start_time": 3.402272727272727,
                "end_time": 3.4204545454545454,
                "pitch": 21,
                "velocity": 127,
                "duration": 0.01818181818181852,
                "tempo": 120.0
            },
            {
                "start_time": 3.4204545454545454,
                "end_time": 3.436363636363636,
                "pitch": 19,
                "velocity": 127,
                "duration": 0.01590909090909065,
                "tempo": 120.0
            },
            {
                "start_time": 3.436363636363636,
                "end_time": 3.452272727272727,
                "pitch": 16,
                "velocity": 127,
                "duration": 0.015909090909091095,
                "tempo": 120.0
            },
            {
                "start_time": 3.452272727272727,
                "end_time": 3.468181818181818,
                "pitch": 14,
                "velocity": 127,
                "duration": 0.01590909090909065,
                "tempo": 120.0
            },
            {
                "start_time": 3.468181818181818,
                "end_time": 3.4863636363636363,
                "pitch": 11,
                "velocity": 127,
                "duration": 0.01818181818181852,
                "tempo": 120.0
            },
            {
                "start_time": 3.4863636363636363,
                "end_time": 3.502272727272727,
                "pitch": 7,
                "velocity": 127,
                "duration": 0.01590909090909065,
                "tempo": 120.0
            },
            {
                "start_time": 3.5545454545454542,
                "end_time": 3.5704545454545453,
                "pitch": 32,
                "velocity": 127,
                "duration": 0.015909090909091095,
                "tempo": 120.0
            },
            {
                "start_time": 3.3022727272727272,
                "end_time": 3.5704545454545453,
                "pitch": 42,
                "velocity": 127,
                "duration": 0.2681818181818181,
                "tempo": 120.0
            },
            {
                "start_time": 3.5704545454545453,
                "end_time": 3.602272727272727,
                "pitch": 30,
                "velocity": 127,
                "duration": 0.031818181818181746,
                "tempo": 120.0
            },
            {
                "start_time": 3.602272727272727,
                "end_time": 3.6363636363636362,
                "pitch": 27,
                "velocity": 127,
                "duration": 0.03409090909090917,
                "tempo": 120.0
            },
            {
                "start_time": 3.6363636363636362,
                "end_time": 3.6704545454545454,
                "pitch": 24,
                "velocity": 127,
                "duration": 0.03409090909090917,
                "tempo": 120.0
            },
            {
                "start_time": 3.6704545454545454,
                "end_time": 3.686363636363636,
                "pitch": 21,
                "velocity": 127,
                "duration": 0.01590909090909065,
                "tempo": 120.0
            },
            {
                "start_time": 3.686363636363636,
                "end_time": 3.702272727272727,
                "pitch": 19,
                "velocity": 127,
                "duration": 0.015909090909091095,
                "tempo": 120.0
            },
            {
                "start_time": 3.702272727272727,
                "end_time": 3.7204545454545452,
                "pitch": 16,
                "velocity": 127,
                "duration": 0.018181818181818077,
                "tempo": 120.0
            },
            {
                "start_time": 3.7204545454545452,
                "end_time": 3.7363636363636363,
                "pitch": 14,
                "velocity": 127,
                "duration": 0.015909090909091095,
                "tempo": 120.0
            },
            {
                "start_time": 3.7363636363636363,
                "end_time": 3.7545454545454544,
                "pitch": 11,
                "velocity": 127,
                "duration": 0.018181818181818077,
                "tempo": 120.0
            },
            {
                "start_time": 3.8045454545454542,
                "end_time": 3.8204545454545453,
                "pitch": 32,
                "velocity": 127,
                "duration": 0.015909090909091095,
                "tempo": 120.0
            },
            {
                "start_time": 3.5704545454545453,
                "end_time": 3.8204545454545453,
                "pitch": 42,
                "velocity": 127,
                "duration": 0.25,
                "tempo": 120.0
            },
            {
                "start_time": 3.8204545454545453,
                "end_time": 3.8568181818181815,
                "pitch": 30,
                "velocity": 127,
                "duration": 0.036363636363636154,
                "tempo": 120.0
            },
            {
                "start_time": 3.8568181818181815,
                "end_time": 3.893181818181818,
                "pitch": 27,
                "velocity": 127,
                "duration": 0.0363636363636366,
                "tempo": 120.0
            },
            {
                "start_time": 3.9318181818181817,
                "end_time": 3.9477272727272728,
                "pitch": 28,
                "velocity": 127,
                "duration": 0.015909090909091095,
                "tempo": 120.0
            },
            {
                "start_time": 3.9477272727272728,
                "end_time": 3.984090909090909,
                "pitch": 26,
                "velocity": 127,
                "duration": 0.036363636363636154,
                "tempo": 120.0
            },
            {
                "start_time": 3.984090909090909,
                "end_time": 4.0204545454545455,
                "pitch": 23,
                "velocity": 127,
                "duration": 0.0363636363636366,
                "tempo": 120.0
            },
            {
                "start_time": 4.075,
                "end_time": 4.093181818181818,
                "pitch": 28,
                "velocity": 127,
                "duration": 0.018181818181817633,
                "tempo": 120.0
            },
            {
                "start_time": 4.093181818181818,
                "end_time": 4.129545454545454,
                "pitch": 26,
                "velocity": 127,
                "duration": 0.036363636363636154,
                "tempo": 120.0
            },
            {
                "start_time": 4.129545454545454,
                "end_time": 4.165909090909091,
                "pitch": 23,
                "velocity": 127,
                "duration": 0.03636363636363704,
                "tempo": 120.0
            },
            {
                "start_time": 122.81818181818181,
                "end_time": 122.8340909090909,
                "pitch": 36,
                "velocity": 101,
                "duration": 0.01590909090909065,
                "tempo": 120.0
            },
            {
                "start_time": 122.8340909090909,
                "end_time": 122.86590909090908,
                "pitch": 33,
                "velocity": 101,
                "duration": 0.0318181818181813,
                "tempo": 120.0
            },
            {
                "start_time": 122.86590909090908,
                "end_time": 122.89772727272727,
                "pitch": 31,
                "velocity": 101,
                "duration": 0.0318181818181813,
                "tempo": 120.0
            },
            {
                "start_time": 122.89772727272727,
                "end_time": 122.91363636363636,
                "pitch": 27,
                "velocity": 101,
                "duration": 0.01590909090909065,
                "tempo": 120.0
            },
            {
                "start_time": 122.92954545454545,
                "end_time": 122.94545454545454,
                "pitch": 36,
                "velocity": 101,
                "duration": 0.01590909090909065,
                "tempo": 120.0
            },
            {
                "start_time": 122.94545454545454,
                "end_time": 122.97727272727272,
                "pitch": 33,
                "velocity": 101,
                "duration": 0.0318181818181813,
                "tempo": 120.0
            },
            {
                "start_time": 122.97727272727272,
                "end_time": 123.0090909090909,
                "pitch": 31,
                "velocity": 101,
                "duration": 0.0318181818181813,
                "tempo": 120.0
            },
            {
                "start_time": 123.0090909090909,
                "end_time": 123.02499999999999,
                "pitch": 27,
                "velocity": 101,
                "duration": 0.01590909090909065,
                "tempo": 120.0
            },
            {
                "start_time": 123.15454545454544,
                "end_time": 123.17045454545453,
                "pitch": 36,
                "velocity": 101,
                "duration": 0.01590909090909065,
                "tempo": 120.0
            },
            {
                "start_time": 123.17045454545453,
                "end_time": 123.20454545454545,
                "pitch": 33,
                "velocity": 101,
                "duration": 0.03409090909092072,
                "tempo": 120.0
            },
            {
                "start_time": 123.20454545454545,
                "end_time": 123.23863636363636,
                "pitch": 31,
                "velocity": 101,
                "duration": 0.03409090909090651,
                "tempo": 120.0
            },
            {
                "start_time": 123.23863636363636,
                "end_time": 123.25681818181818,
                "pitch": 27,
                "velocity": 101,
                "duration": 0.018181818181815856,
                "tempo": 120.0
            },
            {
                "start_time": 123.25681818181818,
                "end_time": 123.27272727272727,
                "pitch": 25,
                "velocity": 101,
                "duration": 0.01590909090909065,
                "tempo": 120.0
            },
            {
                "start_time": 123.27272727272727,
                "end_time": 123.29090909090908,
                "pitch": 23,
                "velocity": 101,
                "duration": 0.018181818181815856,
                "tempo": 120.0
            },
            {
                "start_time": 123.29090909090908,
                "end_time": 123.30681818181817,
                "pitch": 21,
                "velocity": 101,
                "duration": 0.01590909090909065,
                "tempo": 120.0
            },
            {
                "start_time": 123.30681818181817,
                "end_time": 123.32499999999999,
                "pitch": 18,
                "velocity": 101,
                "duration": 0.018181818181815856,
                "tempo": 120.0
            },
            {
                "start_time": 123.32499999999999,
                "end_time": 123.34090909090908,
                "pitch": 15,
                "velocity": 101,
                "duration": 0.01590909090909065,
                "tempo": 120.0
            },
            {
                "start_time": 123.34090909090908,
                "end_time": 123.35909090909091,
                "pitch": 11,
                "velocity": 101,
                "duration": 0.018181818181830067,
                "tempo": 120.0
            },
            {
                "start_time": 123.35909090909091,
                "end_time": 123.39318181818182,
                "pitch": 5,
                "velocity": 101,
                "duration": 0.03409090909090651,
                "tempo": 120.0
            },
            {
                "start_time": 123.41136363636363,
                "end_time": 123.42727272727272,
                "pitch": 36,
                "velocity": 101,
                "duration": 0.01590909090909065,
                "tempo": 120.0
            },
            {
                "start_time": 123.42727272727272,
                "end_time": 123.44318181818181,
                "pitch": 33,
                "velocity": 101,
                "duration": 0.01590909090909065,
                "tempo": 120.0
            },
            {
                "start_time": 123.46136363636363,
                "end_time": 123.47727272727272,
                "pitch": 36,
                "velocity": 101,
                "duration": 0.01590909090909065,
                "tempo": 120.0
            },
            {
                "start_time": 123.47727272727272,
                "end_time": 123.51363636363635,
                "pitch": 33,
                "velocity": 101,
                "duration": 0.03636363636363171,
                "tempo": 120.0
            },
            {
                "start_time": 123.52954545454544,
                "end_time": 123.54772727272727,
                "pitch": 36,
                "velocity": 101,
                "duration": 0.018181818181830067,
                "tempo": 120.0
            },
            {
                "start_time": 123.54772727272727,
                "end_time": 123.58181818181818,
                "pitch": 33,
                "velocity": 101,
                "duration": 0.03409090909090651,
                "tempo": 120.0
            },
            {
                "start_time": 123.58181818181818,
                "end_time": 123.61590909090908,
                "pitch": 31,
                "velocity": 101,
                "duration": 0.03409090909090651,
                "tempo": 120.0
            },
            {
                "start_time": 123.61590909090908,
                "end_time": 123.63181818181818,
                "pitch": 27,
                "velocity": 101,
                "duration": 0.01590909090909065,
                "tempo": 120.0
            },
            {
                "start_time": 123.64999999999999,
                "end_time": 123.66590909090908,
                "pitch": 36,
                "velocity": 101,
                "duration": 0.01590909090909065,
                "tempo": 120.0
            },
            {
                "start_time": 123.66590909090908,
                "end_time": 123.69999999999999,
                "pitch": 33,
                "velocity": 101,
                "duration": 0.03409090909090651,
                "tempo": 120.0
            },
            {
                "start_time": 123.69999999999999,
                "end_time": 123.73409090909091,
                "pitch": 31,
                "velocity": 101,
                "duration": 0.03409090909092072,
                "tempo": 120.0
            },
            {
                "start_time": 123.73409090909091,
                "end_time": 123.75,
                "pitch": 27,
                "velocity": 101,
                "duration": 0.01590909090909065,
                "tempo": 120.0
            },
            {
                "start_time": 123.76818181818182,
                "end_time": 123.7840909090909,
                "pitch": 32,
                "velocity": 101,
                "duration": 0.01590909090909065,
                "tempo": 120.0
            },
            {
                "start_time": 3.8204545454545453,
                "end_time": 123.7840909090909,
                "pitch": 42,
                "velocity": 127,
                "duration": 119.96363636363637,
                "tempo": 120.0
            },
            {
                "start_time": 123.7840909090909,
                "end_time": 123.81818181818181,
                "pitch": 30,
                "velocity": 101,
                "duration": 0.03409090909090651,
                "tempo": 120.0
            },
            {
                "start_time": 123.8340909090909,
                "end_time": 123.85227272727272,
                "pitch": 32,
                "velocity": 101,
                "duration": 0.018181818181815856,
                "tempo": 120.0
            },
            {
                "start_time": 123.7840909090909,
                "end_time": 123.85227272727272,
                "pitch": 42,
                "velocity": 101,
                "duration": 0.06818181818181301,
                "tempo": 120.0
            },
            {
                "start_time": 123.85227272727272,
                "end_time": 123.86818181818181,
                "pitch": 30,
                "velocity": 101,
                "duration": 0.01590909090909065,
                "tempo": 120.0
            },
            {
                "start_time": 123.90227272727272,
                "end_time": 123.91818181818181,
                "pitch": 32,
                "velocity": 101,
                "duration": 0.01590909090909065,
                "tempo": 120.0
            },
            {
                "start_time": 123.85227272727272,
                "end_time": 123.91818181818181,
                "pitch": 42,
                "velocity": 101,
                "duration": 0.06590909090908781,
                "tempo": 120.0
            },
            {
                "start_time": 123.91818181818181,
                "end_time": 123.95227272727273,
                "pitch": 30,
                "velocity": 101,
                "duration": 0.03409090909092072,
                "tempo": 120.0
            },
            {
                "start_time": 123.95227272727273,
                "end_time": 123.98636363636363,
                "pitch": 27,
                "velocity": 101,
                "duration": 0.03409090909090651,
                "tempo": 120.0
            },
            {
                "start_time": 123.98636363636363,
                "end_time": 124.00227272727273,
                "pitch": 24,
                "velocity": 101,
                "duration": 0.01590909090909065,
                "tempo": 120.0
            },
            {
                "start_time": 124.02045454545454,
                "end_time": 124.03636363636363,
                "pitch": 32,
                "velocity": 101,
                "duration": 0.01590909090909065,
                "tempo": 120.0
            },
            {
                "start_time": 123.91818181818181,
                "end_time": 124.03636363636363,
                "pitch": 42,
                "velocity": 101,
                "duration": 0.11818181818182438,
                "tempo": 120.0
            },
            {
                "start_time": 124.03636363636363,
                "end_time": 124.07045454545454,
                "pitch": 30,
                "velocity": 101,
                "duration": 0.03409090909090651,
                "tempo": 120.0
            },
            {
                "start_time": 124.07045454545454,
                "end_time": 124.10454545454544,
                "pitch": 27,
                "velocity": 101,
                "duration": 0.03409090909090651,
                "tempo": 120.0
            },
            {
                "start_time": 124.10454545454544,
                "end_time": 124.12045454545454,
                "pitch": 24,
                "velocity": 101,
                "duration": 0.01590909090909065,
                "tempo": 120.0
            },
            {
                "start_time": 124.13636363636363,
                "end_time": 124.15454545454544,
                "pitch": 28,
                "velocity": 101,
                "duration": 0.018181818181815856,
                "tempo": 120.0
            },
            {
                "start_time": 124.15454545454544,
                "end_time": 124.17045454545453,
                "pitch": 26,
                "velocity": 101,
                "duration": 0.01590909090909065,
                "tempo": 120.0
            },
            {
                "start_time": 124.20681818181818,
                "end_time": 124.22272727272727,
                "pitch": 28,
                "velocity": 101,
                "duration": 0.01590909090909065,
                "tempo": 120.0
            },
            {
                "start_time": 124.22272727272727,
                "end_time": 124.23863636363636,
                "pitch": 26,
                "velocity": 101,
                "duration": 0.01590909090909065,
                "tempo": 120.0
            },
            {
                "start_time": 124.25681818181818,
                "end_time": 124.27499999999999,
                "pitch": 28,
                "velocity": 101,
                "duration": 0.018181818181815856,
                "tempo": 120.0
            },
            {
                "start_time": 124.27499999999999,
                "end_time": 124.3090909090909,
                "pitch": 26,
                "velocity": 101,
                "duration": 0.03409090909090651,
                "tempo": 120.0
            },
            {
                "start_time": 124.3090909090909,
                "end_time": 124.34318181818182,
                "pitch": 23,
                "velocity": 101,
                "duration": 0.03409090909092072,
                "tempo": 120.0
            },
            {
                "start_time": 124.34318181818182,
                "end_time": 124.35909090909091,
                "pitch": 20,
                "velocity": 101,
                "duration": 0.01590909090909065,
                "tempo": 120.0
            },
            {
                "start_time": 124.37727272727273,
                "end_time": 124.39318181818182,
                "pitch": 28,
                "velocity": 101,
                "duration": 0.01590909090909065,
                "tempo": 120.0
            },
            {
                "start_time": 124.39318181818182,
                "end_time": 124.42727272727272,
                "pitch": 26,
                "velocity": 101,
                "duration": 0.03409090909090651,
                "tempo": 120.0
            },
            {
                "start_time": 124.42727272727272,
                "end_time": 124.46136363636363,
                "pitch": 23,
                "velocity": 101,
                "duration": 0.03409090909090651,
                "tempo": 120.0
            },
            {
                "start_time": 124.46136363636363,
                "end_time": 124.47954545454544,
                "pitch": 20,
                "velocity": 101,
                "duration": 0.018181818181815856,
                "tempo": 120.0
            },
            {
                "start_time": 124.51590909090909,
                "end_time": 124.52954545454544,
                "pitch": 38,
                "velocity": 101,
                "duration": 0.013636363636351234,
                "tempo": 120.0
            },
            {
                "start_time": 124.52954545454544,
                "end_time": 124.56363636363636,
                "pitch": 36,
                "velocity": 101,
                "duration": 0.03409090909092072,
                "tempo": 120.0
            },
            {
                "start_time": 124.56363636363636,
                "end_time": 124.59772727272727,
                "pitch": 33,
                "velocity": 101,
                "duration": 0.03409090909090651,
                "tempo": 120.0
            },
            {
                "start_time": 124.59772727272727,
                "end_time": 124.61590909090908,
                "pitch": 30,
                "velocity": 101,
                "duration": 0.018181818181815856,
                "tempo": 120.0
            },
            {
                "start_time": 124.6340909090909,
                "end_time": 124.64999999999999,
                "pitch": 40,
                "velocity": 101,
                "duration": 0.01590909090909065,
                "tempo": 120.0
            },
            {
                "start_time": 124.64999999999999,
                "end_time": 124.6840909090909,
                "pitch": 38,
                "velocity": 101,
                "duration": 0.03409090909090651,
                "tempo": 120.0
            },
            {
                "start_time": 124.6840909090909,
                "end_time": 124.71818181818182,
                "pitch": 35,
                "velocity": 101,
                "duration": 0.03409090909092072,
                "tempo": 120.0
            },
            {
                "start_time": 124.71818181818182,
                "end_time": 124.73409090909091,
                "pitch": 32,
                "velocity": 101,
                "duration": 0.01590909090909065,
                "tempo": 120.0
            },
            {
                "start_time": 124.75227272727273,
                "end_time": 124.76818181818182,
                "pitch": 33,
                "velocity": 101,
                "duration": 0.01590909090909065,
                "tempo": 120.0
            },
            {
                "start_time": 124.76818181818182,
                "end_time": 124.8,
                "pitch": 31,
                "velocity": 101,
                "duration": 0.0318181818181813,
                "tempo": 120.0
            },
            {
                "start_time": 124.8,
                "end_time": 124.83636363636363,
                "pitch": 28,
                "velocity": 101,
                "duration": 0.03636363636363171,
                "tempo": 120.0
            },
            {
                "start_time": 124.83636363636363,
                "end_time": 124.85227272727272,
                "pitch": 25,
                "velocity": 101,
                "duration": 0.01590909090909065,
                "tempo": 120.0
            },
            {
                "start_time": 124.87045454545454,
                "end_time": 124.88636363636363,
                "pitch": 35,
                "velocity": 101,
                "duration": 0.01590909090909065,
                "tempo": 120.0
            },
            {
                "start_time": 124.88636363636363,
                "end_time": 124.92045454545453,
                "pitch": 33,
                "velocity": 101,
                "duration": 0.03409090909090651,
                "tempo": 120.0
            },
            {
                "start_time": 124.03636363636363,
                "end_time": 124.92045454545453,
                "pitch": 42,
                "velocity": 101,
                "duration": 0.8840909090909008,
                "tempo": 120.0
            },
            {
                "start_time": 124.92045454545453,
                "end_time": 124.95227272727273,
                "pitch": 30,
                "velocity": 101,
                "duration": 0.03181818181819551,
                "tempo": 120.0
            },
            {
                "start_time": 124.95227272727273,
                "end_time": 124.97045454545454,
                "pitch": 27,
                "velocity": 101,
                "duration": 0.018181818181815856,
                "tempo": 120.0
            },
            {
                "start_time": 124.98863636363636,
                "end_time": 125.00227272727273,
                "pitch": 28,
                "velocity": 101,
                "duration": 0.013636363636365445,
                "tempo": 120.0
            },
            {
                "start_time": 125.00227272727273,
                "end_time": 125.03636363636363,
                "pitch": 26,
                "velocity": 101,
                "duration": 0.03409090909090651,
                "tempo": 120.0
            },
            {
                "start_time": 125.03636363636363,
                "end_time": 125.07045454545454,
                "pitch": 23,
                "velocity": 101,
                "duration": 0.03409090909090651,
                "tempo": 120.0
            },
            {
                "start_time": 125.07045454545454,
                "end_time": 125.08863636363635,
                "pitch": 20,
                "velocity": 101,
                "duration": 0.018181818181815856,
                "tempo": 120.0
            },
            {
                "start_time": 124.92045454545453,
                "end_time": 125.12272727272726,
                "pitch": 42,
                "velocity": 101,
                "duration": 0.20227272727272805,
                "tempo": 120.0
            },
            {
                "start_time": 125.12272727272726,
                "end_time": 125.15454545454544,
                "pitch": 30,
                "velocity": 101,
                "duration": 0.0318181818181813,
                "tempo": 120.0
            },
            {
                "start_time": 125.15454545454544,
                "end_time": 125.18863636363636,
                "pitch": 27,
                "velocity": 101,
                "duration": 0.03409090909092072,
                "tempo": 120.0
            },
            {
                "start_time": 125.18863636363636,
                "end_time": 125.225,
                "pitch": 25,
                "velocity": 101,
                "duration": 0.03636363636363171,
                "tempo": 120.0
            },
            {
                "start_time": 125.24318181818181,
                "end_time": 125.2590909090909,
                "pitch": 28,
                "velocity": 101,
                "duration": 0.01590909090909065,
                "tempo": 120.0
            },
            {
                "start_time": 125.2590909090909,
                "end_time": 125.29090909090908,
                "pitch": 26,
                "velocity": 101,
                "duration": 0.0318181818181813,
                "tempo": 120.0
            },
            {
                "start_time": 125.29090909090908,
                "end_time": 125.32727272727273,
                "pitch": 23,
                "velocity": 101,
                "duration": 0.036363636363645924,
                "tempo": 120.0
            },
            {
                "start_time": 125.32727272727273,
                "end_time": 125.34318181818182,
                "pitch": 20,
                "velocity": 101,
                "duration": 0.01590909090909065,
                "tempo": 120.0
            },
            {
                "start_time": 125.36136363636363,
                "end_time": 125.37727272727273,
                "pitch": 28,
                "velocity": 101,
                "duration": 0.01590909090909065,
                "tempo": 120.0
            },
            {
                "start_time": 125.37727272727273,
                "end_time": 125.41136363636363,
                "pitch": 26,
                "velocity": 101,
                "duration": 0.03409090909090651,
                "tempo": 120.0
            },
            {
                "start_time": 125.41136363636363,
                "end_time": 125.44545454545454,
                "pitch": 23,
                "velocity": 101,
                "duration": 0.03409090909090651,
                "tempo": 120.0
            },
            {
                "start_time": 125.44545454545454,
                "end_time": 125.46363636363635,
                "pitch": 20,
                "velocity": 101,
                "duration": 0.018181818181815856,
                "tempo": 120.0
            }
        ],
        "Church Organ": [
            {
                "start_time": 0.004545454545454545,
                "end_time": 4.165909090909091,
                "pitch": 67,
                "velocity": 16,
                "duration": 4.161363636363636,
                "tempo": 120.0
            },
            {
                "start_time": 11.924999999999999,
                "end_time": 13.825,
                "pitch": 60,
                "velocity": 80,
                "duration": 1.9000000000000004,
                "tempo": 120.0
            },
            {
                "start_time": 13.84090909090909,
                "end_time": 15.752272727272727,
                "pitch": 62,
                "velocity": 80,
                "duration": 1.911363636363637,
                "tempo": 120.0
            },
            {
                "start_time": 15.768181818181818,
                "end_time": 17.71818181818182,
                "pitch": 64,
                "velocity": 80,
                "duration": 1.950000000000001,
                "tempo": 120.0
            },
            {
                "start_time": 17.736363636363635,
                "end_time": 19.645454545454545,
                "pitch": 66,
                "velocity": 80,
                "duration": 1.90909090909091,
                "tempo": 120.0
            },
            {
                "start_time": 19.663636363636364,
                "end_time": 21.58863636363636,
                "pitch": 60,
                "velocity": 80,
                "duration": 1.9249999999999972,
                "tempo": 120.0
            },
            {
                "start_time": 21.604545454545452,
                "end_time": 23.53181818181818,
                "pitch": 62,
                "velocity": 80,
                "duration": 1.9272727272727295,
                "tempo": 120.0
            },
            {
                "start_time": 31.320454545454545,
                "end_time": 33.25,
                "pitch": 60,
                "velocity": 80,
                "duration": 1.9295454545454547,
                "tempo": 120.0
            },
            {
                "start_time": 33.268181818181816,
                "end_time": 35.17727272727272,
                "pitch": 62,
                "velocity": 80,
                "duration": 1.9090909090909065,
                "tempo": 120.0
            },
            {
                "start_time": 35.195454545454545,
                "end_time": 37.11818181818182,
                "pitch": 64,
                "velocity": 80,
                "duration": 1.922727272727272,
                "tempo": 120.0
            },
            {
                "start_time": 37.154545454545456,
                "end_time": 39.04772727272727,
                "pitch": 66,
                "velocity": 80,
                "duration": 1.8931818181818159,
                "tempo": 120.0
            },
            {
                "start_time": 39.06590909090909,
                "end_time": 40.975,
                "pitch": 60,
                "velocity": 80,
                "duration": 1.9090909090909136,
                "tempo": 120.0
            },
            {
                "start_time": 40.99318181818182,
                "end_time": 42.92045454545455,
                "pitch": 62,
                "velocity": 80,
                "duration": 1.9272727272727295,
                "tempo": 120.0
            }
        ],
        "Clarinet": [
            {
                "start_time": 0.006818181818181818,
                "end_time": 0.6568181818181817,
                "pitch": 100,
                "velocity": 13,
                "duration": 0.6499999999999999,
                "tempo": 120.0
            },
            {
                "start_time": 0.6568181818181817,
                "end_time": 0.8295454545454545,
                "pitch": 98,
                "velocity": 13,
                "duration": 0.17272727272727273,
                "tempo": 120.0
            },
            {
                "start_time": 0.8295454545454545,
                "end_time": 0.9181818181818181,
                "pitch": 96,
                "velocity": 13,
                "duration": 0.08863636363636362,
                "tempo": 120.0
            },
            {
                "start_time": 0.9181818181818181,
                "end_time": 1.268181818181818,
                "pitch": 95,
                "velocity": 13,
                "duration": 0.35,
                "tempo": 120.0
            },
            {
                "start_time": 1.268181818181818,
                "end_time": 1.7318181818181817,
                "pitch": 93,
                "velocity": 13,
                "duration": 0.4636363636363636,
                "tempo": 120.0
            },
            {
                "start_time": 1.7318181818181817,
                "end_time": 2.1772727272727272,
                "pitch": 90,
                "velocity": 13,
                "duration": 0.44545454545454555,
                "tempo": 120.0
            },
            {
                "start_time": 2.1772727272727272,
                "end_time": 2.436363636363636,
                "pitch": 87,
                "velocity": 13,
                "duration": 0.2590909090909088,
                "tempo": 120.0
            },
            {
                "start_time": 2.436363636363636,
                "end_time": 2.5204545454545455,
                "pitch": 84,
                "velocity": 13,
                "duration": 0.08409090909090944,
                "tempo": 120.0
            },
            {
                "start_time": 2.5204545454545455,
                "end_time": 2.8863636363636362,
                "pitch": 83,
                "velocity": 13,
                "duration": 0.36590909090909074,
                "tempo": 120.0
            },
            {
                "start_time": 2.8863636363636362,
                "end_time": 3.25,
                "pitch": 81,
                "velocity": 13,
                "duration": 0.36363636363636376,
                "tempo": 120.0
            },
            {
                "start_time": 3.25,
                "end_time": 3.752272727272727,
                "pitch": 78,
                "velocity": 13,
                "duration": 0.502272727272727,
                "tempo": 120.0
            },
            {
                "start_time": 3.752272727272727,
                "end_time": 4.165909090909091,
                "pitch": 75,
                "velocity": 13,
                "duration": 0.413636363636364,
                "tempo": 120.0
            }
        ],
        "Violin": [
            {
                "start_time": 11.047727272727272,
                "end_time": 11.35681818181818,
                "pitch": 76,
                "velocity": 127,
                "duration": 0.30909090909090864,
                "tempo": 120.0
            },
            {
                "start_time": 11.388636363636364,
                "end_time": 11.686363636363636,
                "pitch": 75,
                "velocity": 127,
                "duration": 0.29772727272727195,
                "tempo": 120.0
            },
            {
                "start_time": 11.702272727272726,
                "end_time": 11.790909090909091,
                "pitch": 73,
                "velocity": 127,
                "duration": 0.08863636363636473,
                "tempo": 120.0
            },
            {
                "start_time": 11.804545454545455,
                "end_time": 11.893181818181818,
                "pitch": 71,
                "velocity": 127,
                "duration": 0.08863636363636296,
                "tempo": 120.0
            },
            {
                "start_time": 11.922727272727272,
                "end_time": 13.222727272727273,
                "pitch": 70,
                "velocity": 127,
                "duration": 1.3000000000000007,
                "tempo": 120.0
            },
            {
                "start_time": 13.238636363636363,
                "end_time": 13.272727272727272,
                "pitch": 70,
                "velocity": 127,
                "duration": 0.034090909090908283,
                "tempo": 120.0
            },
            {
                "start_time": 13.272727272727272,
                "end_time": 13.322727272727272,
                "pitch": 72,
                "velocity": 127,
                "duration": 0.05000000000000071,
                "tempo": 120.0
            },
            {
                "start_time": 13.322727272727272,
                "end_time": 13.35681818181818,
                "pitch": 74,
                "velocity": 127,
                "duration": 0.034090909090908283,
                "tempo": 120.0
            },
            {
                "start_time": 13.272727272727272,
                "end_time": 13.572727272727272,
                "pitch": 76,
                "velocity": 127,
                "duration": 0.3000000000000007,
                "tempo": 120.0
            },
            {
                "start_time": 13.35681818181818,
                "end_time": 13.572727272727272,
                "pitch": 76,
                "velocity": 127,
                "duration": 0.21590909090909172,
                "tempo": 120.0
            },
            {
                "start_time": 13.60681818181818,
                "end_time": 13.825,
                "pitch": 79,
                "velocity": 127,
                "duration": 0.2181818181818187,
                "tempo": 120.0
            },
            {
                "start_time": 13.84090909090909,
                "end_time": 13.909090909090908,
                "pitch": 78,
                "velocity": 127,
                "duration": 0.06818181818181834,
                "tempo": 120.0
            },
            {
                "start_time": 13.909090909090908,
                "end_time": 14.790909090909091,
                "pitch": 75,
                "velocity": 127,
                "duration": 0.8818181818181827,
                "tempo": 120.0
            },
            {
                "start_time": 14.825,
                "end_time": 14.943181818181818,
                "pitch": 75,
                "velocity": 127,
                "duration": 0.11818181818181905,
                "tempo": 120.0
            },
            {
                "start_time": 14.943181818181818,
                "end_time": 15.045454545454545,
                "pitch": 78,
                "velocity": 127,
                "duration": 0.10227272727272663,
                "tempo": 120.0
            },
            {
                "start_time": 15.063636363636363,
                "end_time": 15.286363636363635,
                "pitch": 78,
                "velocity": 127,
                "duration": 0.22272727272727266,
                "tempo": 120.0
            },
            {
                "start_time": 15.302272727272726,
                "end_time": 15.527272727272727,
                "pitch": 76,
                "velocity": 127,
                "duration": 0.22500000000000142,
                "tempo": 120.0
            },
            {
                "start_time": 15.543181818181818,
                "end_time": 15.752272727272727,
                "pitch": 74,
                "velocity": 127,
                "duration": 0.209090909090909,
                "tempo": 120.0
            },
            {
                "start_time": 15.768181818181818,
                "end_time": 16.73409090909091,
                "pitch": 72,
                "velocity": 127,
                "duration": 0.9659090909090917,
                "tempo": 120.0
            },
            {
                "start_time": 16.752272727272725,
                "end_time": 16.818181818181817,
                "pitch": 73,
                "velocity": 127,
                "duration": 0.06590909090909136,
                "tempo": 120.0
            },
            {
                "start_time": 16.818181818181817,
                "end_time": 16.868181818181817,
                "pitch": 76,
                "velocity": 127,
                "duration": 0.05000000000000071,
                "tempo": 120.0
            },
            {
                "start_time": 16.868181818181817,
                "end_time": 16.936363636363634,
                "pitch": 79,
                "velocity": 127,
                "duration": 0.06818181818181657,
                "tempo": 120.0
            },
            {
                "start_time": 16.936363636363634,
                "end_time": 17.71818181818182,
                "pitch": 82,
                "velocity": 127,
                "duration": 0.7818181818181849,
                "tempo": 120.0
            },
            {
                "start_time": 17.736363636363635,
                "end_time": 17.818181818181817,
                "pitch": 82,
                "velocity": 127,
                "duration": 0.08181818181818201,
                "tempo": 120.0
            },
            {
                "start_time": 17.818181818181817,
                "end_time": 17.886363636363637,
                "pitch": 80,
                "velocity": 127,
                "duration": 0.06818181818182012,
                "tempo": 120.0
            },
            {
                "start_time": 17.886363636363637,
                "end_time": 18.68409090909091,
                "pitch": 78,
                "velocity": 127,
                "duration": 0.797727272727272,
                "tempo": 120.0
            },
            {
                "start_time": 18.702272727272728,
                "end_time": 19.038636363636364,
                "pitch": 76,
                "velocity": 127,
                "duration": 0.336363636363636,
                "tempo": 120.0
            },
            {
                "start_time": 19.054545454545455,
                "end_time": 19.388636363636362,
                "pitch": 75,
                "velocity": 127,
                "duration": 0.3340909090909072,
                "tempo": 120.0
            },
            {
                "start_time": 19.422727272727272,
                "end_time": 19.525,
                "pitch": 73,
                "velocity": 127,
                "duration": 0.10227272727272663,
                "tempo": 120.0
            },
            {
                "start_time": 19.543181818181818,
                "end_time": 19.645454545454545,
                "pitch": 71,
                "velocity": 127,
                "duration": 0.10227272727272663,
                "tempo": 120.0
            },
            {
                "start_time": 19.663636363636364,
                "end_time": 20.620454545454546,
                "pitch": 70,
                "velocity": 127,
                "duration": 0.956818181818182,
                "tempo": 120.0
            },
            {
                "start_time": 20.638636363636362,
                "end_time": 20.654545454545453,
                "pitch": 71,
                "velocity": 127,
                "duration": 0.01590909090909065,
                "tempo": 120.0
            },
            {
                "start_time": 20.654545454545453,
                "end_time": 20.688636363636363,
                "pitch": 72,
                "velocity": 127,
                "duration": 0.03409090909091006,
                "tempo": 120.0
            },
            {
                "start_time": 20.688636363636363,
                "end_time": 20.74090909090909,
                "pitch": 74,
                "velocity": 127,
                "duration": 0.052272727272725916,
                "tempo": 120.0
            },
            {
                "start_time": 20.654545454545453,
                "end_time": 20.79090909090909,
                "pitch": 76,
                "velocity": 127,
                "duration": 0.1363636363636367,
                "tempo": 120.0
            },
            {
                "start_time": 20.74090909090909,
                "end_time": 20.79090909090909,
                "pitch": 76,
                "velocity": 127,
                "duration": 0.05000000000000071,
                "tempo": 120.0
            },
            {
                "start_time": 20.79090909090909,
                "end_time": 21.586363636363636,
                "pitch": 79,
                "velocity": 127,
                "duration": 0.7954545454545467,
                "tempo": 120.0
            },
            {
                "start_time": 21.604545454545452,
                "end_time": 22.063636363636363,
                "pitch": 78,
                "velocity": 127,
                "duration": 0.45909090909091077,
                "tempo": 120.0
            },
            {
                "start_time": 22.081818181818182,
                "end_time": 22.320454545454545,
                "pitch": 76,
                "velocity": 127,
                "duration": 0.2386363636363633,
                "tempo": 120.0
            },
            {
                "start_time": 22.336363636363636,
                "end_time": 22.795454545454543,
                "pitch": 74,
                "velocity": 127,
                "duration": 0.4590909090909072,
                "tempo": 120.0
            },
            {
                "start_time": 22.829545454545453,
                "end_time": 23.28181818181818,
                "pitch": 72,
                "velocity": 127,
                "duration": 0.45227272727272805,
                "tempo": 120.0
            },
            {
                "start_time": 23.297727272727272,
                "end_time": 23.53181818181818,
                "pitch": 69,
                "velocity": 127,
                "duration": 0.23409090909090935,
                "tempo": 120.0
            },
            {
                "start_time": 23.547727272727272,
                "end_time": 23.581818181818182,
                "pitch": 69,
                "velocity": 127,
                "duration": 0.03409090909091006,
                "tempo": 120.0
            },
            {
                "start_time": 23.581818181818182,
                "end_time": 25.461363636363636,
                "pitch": 71,
                "velocity": 127,
                "duration": 1.879545454545454,
                "tempo": 120.0
            },
            {
                "start_time": 30.354545454545452,
                "end_time": 30.693181818181817,
                "pitch": 76,
                "velocity": 127,
                "duration": 0.33863636363636473,
                "tempo": 120.0
            },
            {
                "start_time": 30.711363636363636,
                "end_time": 31.065909090909088,
                "pitch": 75,
                "velocity": 127,
                "duration": 0.35454545454545183,
                "tempo": 120.0
            },
            {
                "start_time": 31.084090909090907,
                "end_time": 31.18409090909091,
                "pitch": 73,
                "velocity": 127,
                "duration": 0.10000000000000142,
                "tempo": 120.0
            },
            {
                "start_time": 31.202272727272724,
                "end_time": 31.302272727272726,
                "pitch": 71,
                "velocity": 127,
                "duration": 0.10000000000000142,
                "tempo": 120.0
            },
            {
                "start_time": 31.320454545454545,
                "end_time": 32.625,
                "pitch": 70,
                "velocity": 127,
                "duration": 1.3045454545454547,
                "tempo": 120.0
            },
            {
                "start_time": 32.65909090909091,
                "end_time": 32.69318181818182,
                "pitch": 70,
                "velocity": 127,
                "duration": 0.03409090909091361,
                "tempo": 120.0
            },
            {
                "start_time": 32.69318181818182,
                "end_time": 32.74545454545454,
                "pitch": 72,
                "velocity": 127,
                "duration": 0.052272727272722364,
                "tempo": 120.0
            },
            {
                "start_time": 32.74545454545454,
                "end_time": 32.779545454545456,
                "pitch": 74,
                "velocity": 127,
                "duration": 0.03409090909091361,
                "tempo": 120.0
            },
            {
                "start_time": 32.69318181818182,
                "end_time": 32.99772727272727,
                "pitch": 76,
                "velocity": 127,
                "duration": 0.30454545454544757,
                "tempo": 120.0
            },
            {
                "start_time": 32.779545454545456,
                "end_time": 32.99772727272727,
                "pitch": 76,
                "velocity": 127,
                "duration": 0.2181818181818116,
                "tempo": 120.0
            },
            {
                "start_time": 33.013636363636365,
                "end_time": 33.25,
                "pitch": 79,
                "velocity": 127,
                "duration": 0.23636363636363455,
                "tempo": 120.0
            },
            {
                "start_time": 33.268181818181816,
                "end_time": 33.31590909090909,
                "pitch": 78,
                "velocity": 127,
                "duration": 0.04772727272727195,
                "tempo": 120.0
            },
            {
                "start_time": 33.31590909090909,
                "end_time": 34.211363636363636,
                "pitch": 75,
                "velocity": 127,
                "duration": 0.8954545454545482,
                "tempo": 120.0
            },
            {
                "start_time": 34.22954545454545,
                "end_time": 34.361363636363635,
                "pitch": 75,
                "velocity": 127,
                "duration": 0.13181818181818272,
                "tempo": 120.0
            },
            {
                "start_time": 34.361363636363635,
                "end_time": 34.45909090909091,
                "pitch": 78,
                "velocity": 127,
                "duration": 0.09772727272727622,
                "tempo": 120.0
            },
            {
                "start_time": 34.475,
                "end_time": 34.68863636363636,
                "pitch": 78,
                "velocity": 127,
                "duration": 0.21363636363636118,
                "tempo": 120.0
            },
            {
                "start_time": 34.70681818181818,
                "end_time": 34.94090909090909,
                "pitch": 76,
                "velocity": 127,
                "duration": 0.23409090909090935,
                "tempo": 120.0
            },
            {
                "start_time": 34.95909090909091,
                "end_time": 35.17727272727272,
                "pitch": 74,
                "velocity": 127,
                "duration": 0.2181818181818116,
                "tempo": 120.0
            },
            {
                "start_time": 35.19318181818181,
                "end_time": 36.15681818181818,
                "pitch": 72,
                "velocity": 127,
                "duration": 0.9636363636363683,
                "tempo": 120.0
            },
            {
                "start_time": 36.17272727272727,
                "end_time": 36.22272727272727,
                "pitch": 73,
                "velocity": 127,
                "duration": 0.04999999999999716,
                "tempo": 120.0
            },
            {
                "start_time": 36.22272727272727,
                "end_time": 36.29090909090909,
                "pitch": 76,
                "velocity": 127,
                "duration": 0.06818181818182012,
                "tempo": 120.0
            },
            {
                "start_time": 36.29090909090909,
                "end_time": 36.35681818181818,
                "pitch": 79,
                "velocity": 127,
                "duration": 0.06590909090908781,
                "tempo": 120.0
            },
            {
                "start_time": 36.35681818181818,
                "end_time": 37.11818181818182,
                "pitch": 82,
                "velocity": 127,
                "duration": 0.7613636363636402,
                "tempo": 120.0
            },
            {
                "start_time": 37.154545454545456,
                "end_time": 37.220454545454544,
                "pitch": 82,
                "velocity": 127,
                "duration": 0.06590909090908781,
                "tempo": 120.0
            },
            {
                "start_time": 37.220454545454544,
                "end_time": 37.30227272727272,
                "pitch": 80,
                "velocity": 127,
                "duration": 0.08181818181817846,
                "tempo": 120.0
            },
            {
                "start_time": 17.886363636363637,
                "end_time": 37.30227272727272,
                "pitch": 90,
                "velocity": 127,
                "duration": 19.415909090909086,
                "tempo": 120.0
            },
            {
                "start_time": 37.30227272727272,
                "end_time": 38.07954545454545,
                "pitch": 78,
                "velocity": 127,
                "duration": 0.7772727272727309,
                "tempo": 120.0
            },
            {
                "start_time": 38.09772727272727,
                "end_time": 38.445454545454545,
                "pitch": 76,
                "velocity": 127,
                "duration": 0.3477272727272762,
                "tempo": 120.0
            },
            {
                "start_time": 38.46363636363636,
                "end_time": 38.79772727272727,
                "pitch": 75,
                "velocity": 127,
                "duration": 0.33409090909091077,
                "tempo": 120.0
            },
            {
                "start_time": 38.81363636363636,
                "end_time": 38.913636363636364,
                "pitch": 73,
                "velocity": 127,
                "duration": 0.10000000000000142,
                "tempo": 120.0
            },
            {
                "start_time": 38.94772727272727,
                "end_time": 39.04772727272727,
                "pitch": 71,
                "velocity": 127,
                "duration": 0.10000000000000142,
                "tempo": 120.0
            },
            {
                "start_time": 39.06363636363636,
                "end_time": 40.01363636363636,
                "pitch": 70,
                "velocity": 127,
                "duration": 0.9499999999999957,
                "tempo": 120.0
            },
            {
                "start_time": 40.04772727272727,
                "end_time": 40.06590909090909,
                "pitch": 71,
                "velocity": 127,
                "duration": 0.018181818181815856,
                "tempo": 120.0
            },
            {
                "start_time": 40.06590909090909,
                "end_time": 40.1,
                "pitch": 72,
                "velocity": 127,
                "duration": 0.03409090909091361,
                "tempo": 120.0
            },
            {
                "start_time": 40.1,
                "end_time": 40.15,
                "pitch": 74,
                "velocity": 127,
                "duration": 0.04999999999999716,
                "tempo": 120.0
            },
            {
                "start_time": 40.06590909090909,
                "end_time": 40.20227272727273,
                "pitch": 76,
                "velocity": 127,
                "duration": 0.13636363636364024,
                "tempo": 120.0
            },
            {
                "start_time": 40.15,
                "end_time": 40.20227272727273,
                "pitch": 76,
                "velocity": 127,
                "duration": 0.05227272727272947,
                "tempo": 120.0
            },
            {
                "start_time": 40.20227272727273,
                "end_time": 40.975,
                "pitch": 79,
                "velocity": 127,
                "duration": 0.7727272727272734,
                "tempo": 120.0
            },
            {
                "start_time": 40.99090909090909,
                "end_time": 41.470454545454544,
                "pitch": 78,
                "velocity": 127,
                "duration": 0.47954545454545183,
                "tempo": 120.0
            },
            {
                "start_time": 41.48863636363636,
                "end_time": 41.70454545454545,
                "pitch": 76,
                "velocity": 127,
                "duration": 0.2159090909090935,
                "tempo": 120.0
            },
            {
                "start_time": 41.73863636363636,
                "end_time": 42.18863636363636,
                "pitch": 74,
                "velocity": 127,
                "duration": 0.45000000000000284,
                "tempo": 120.0
            },
            {
                "start_time": 42.20681818181818,
                "end_time": 42.68181818181818,
                "pitch": 72,
                "velocity": 127,
                "duration": 0.4750000000000014,
                "tempo": 120.0
            },
            {
                "start_time": 42.69772727272727,
                "end_time": 42.92045454545455,
                "pitch": 69,
                "velocity": 127,
                "duration": 0.22272727272727622,
                "tempo": 120.0
            },
            {
                "start_time": 42.95454545454545,
                "end_time": 42.98863636363636,
                "pitch": 69,
                "velocity": 127,
                "duration": 0.03409090909090651,
                "tempo": 120.0
            },
            {
                "start_time": 42.98863636363636,
                "end_time": 44.86590909090909,
                "pitch": 71,
                "velocity": 127,
                "duration": 1.8772727272727323,
                "tempo": 120.0
            },
            {
                "start_time": 124.51363636363635,
                "end_time": 124.61590909090908,
                "pitch": 52,
                "velocity": 127,
                "duration": 0.10227272727273373,
                "tempo": 120.0
            },
            {
                "start_time": 124.6340909090909,
                "end_time": 124.66590909090908,
                "pitch": 53,
                "velocity": 127,
                "duration": 0.0318181818181813,
                "tempo": 120.0
            },
            {
                "start_time": 124.66590909090908,
                "end_time": 124.73409090909091,
                "pitch": 55,
                "velocity": 127,
                "duration": 0.06818181818182723,
                "tempo": 120.0
            },
            {
                "start_time": 124.75227272727273,
                "end_time": 124.7840909090909,
                "pitch": 57,
                "velocity": 127,
                "duration": 0.0318181818181813,
                "tempo": 120.0
            },
            {
                "start_time": 124.7840909090909,
                "end_time": 124.85227272727272,
                "pitch": 59,
                "velocity": 127,
                "duration": 0.06818181818181301,
                "tempo": 120.0
            },
            {
                "start_time": 124.86818181818181,
                "end_time": 124.91818181818181,
                "pitch": 60,
                "velocity": 127,
                "duration": 0.04999999999999716,
                "tempo": 120.0
            },
            {
                "start_time": 124.91818181818181,
                "end_time": 124.95227272727273,
                "pitch": 62,
                "velocity": 127,
                "duration": 0.03409090909092072,
                "tempo": 120.0
            },
            {
                "start_time": 124.95227272727273,
                "end_time": 124.96818181818182,
                "pitch": 64,
                "velocity": 127,
                "duration": 0.01590909090909065,
                "tempo": 120.0
            },
            {
                "start_time": 124.98636363636363,
                "end_time": 125.02045454545454,
                "pitch": 62,
                "velocity": 127,
                "duration": 0.03409090909090651,
                "tempo": 120.0
            },
            {
                "start_time": 125.02045454545454,
                "end_time": 125.03636363636363,
                "pitch": 60,
                "velocity": 127,
                "duration": 0.01590909090909065,
                "tempo": 120.0
            },
            {
                "start_time": 125.03636363636363,
                "end_time": 125.05227272727272,
                "pitch": 58,
                "velocity": 127,
                "duration": 0.01590909090909065,
                "tempo": 120.0
            },
            {
                "start_time": 125.05227272727272,
                "end_time": 125.07045454545454,
                "pitch": 56,
                "velocity": 127,
                "duration": 0.018181818181815856,
                "tempo": 120.0
            },
            {
                "start_time": 124.66590909090908,
                "end_time": 125.15454545454544,
                "pitch": 0,
                "velocity": 127,
                "duration": 0.48863636363635976,
                "tempo": 120.0
            },
            {
                "start_time": 125.07045454545454,
                "end_time": 125.15454545454544,
                "pitch": 54,
                "velocity": 127,
                "duration": 0.08409090909090366,
                "tempo": 120.0
            },
            {
                "start_time": 125.15454545454544,
                "end_time": 125.22272727272727,
                "pitch": 55,
                "velocity": 127,
                "duration": 0.06818181818182723,
                "tempo": 120.0
            },
            {
                "start_time": 125.24090909090908,
                "end_time": 125.34318181818182,
                "pitch": 54,
                "velocity": 127,
                "duration": 0.10227272727273373,
                "tempo": 120.0
            },
            {
                "start_time": 125.36136363636363,
                "end_time": 125.46136363636363,
                "pitch": 52,
                "velocity": 127,
                "duration": 0.09999999999999432,
                "tempo": 120.0
            }
        ],
        "Vibraphone": [
            {
                "start_time": 46.824999999999996,
                "end_time": 46.918181818181814,
                "pitch": 83,
                "velocity": 64,
                "duration": 0.0931818181818187,
                "tempo": 120.0
            },
            {
                "start_time": 46.95227272727273,
                "end_time": 47.05,
                "pitch": 76,
                "velocity": 64,
                "duration": 0.09772727272726911,
                "tempo": 120.0
            },
            {
                "start_time": 47.06590909090909,
                "end_time": 47.16590909090909,
                "pitch": 72,
                "velocity": 64,
                "duration": 0.10000000000000142,
                "tempo": 120.0
            },
            {
                "start_time": 47.18181818181818,
                "end_time": 47.27954545454545,
                "pitch": 79,
                "velocity": 64,
                "duration": 0.09772727272726911,
                "tempo": 120.0
            },
            {
                "start_time": 47.29545454545454,
                "end_time": 47.39772727272727,
                "pitch": 76,
                "velocity": 64,
                "duration": 0.10227272727273373,
                "tempo": 120.0
            },
            {
                "start_time": 47.41590909090909,
                "end_time": 47.518181818181816,
                "pitch": 72,
                "velocity": 64,
                "duration": 0.10227272727272663,
                "tempo": 120.0
            },
            {
                "start_time": 47.55227272727272,
                "end_time": 47.65454545454545,
                "pitch": 79,
                "velocity": 64,
                "duration": 0.10227272727272663,
                "tempo": 120.0
            },
            {
                "start_time": 47.67272727272727,
                "end_time": 47.775,
                "pitch": 76,
                "velocity": 64,
                "duration": 0.10227272727272663,
                "tempo": 120.0
            },
            {
                "start_time": 47.79090909090909,
                "end_time": 47.893181818181816,
                "pitch": 79,
                "velocity": 64,
                "duration": 0.10227272727272663,
                "tempo": 120.0
            },
            {
                "start_time": 47.90909090909091,
                "end_time": 48.01136363636363,
                "pitch": 76,
                "velocity": 64,
                "duration": 0.10227272727272663,
                "tempo": 120.0
            },
            {
                "start_time": 48.04545454545454,
                "end_time": 48.14545454545454,
                "pitch": 72,
                "velocity": 64,
                "duration": 0.10000000000000142,
                "tempo": 120.0
            },
            {
                "start_time": 48.16136363636363,
                "end_time": 48.26363636363636,
                "pitch": 79,
                "velocity": 64,
                "duration": 0.10227272727272663,
                "tempo": 120.0
            },
            {
                "start_time": 48.27954545454545,
                "end_time": 48.37954545454545,
                "pitch": 76,
                "velocity": 64,
                "duration": 0.10000000000000142,
                "tempo": 120.0
            },
            {
                "start_time": 48.39772727272727,
                "end_time": 48.49772727272727,
                "pitch": 72,
                "velocity": 64,
                "duration": 0.09999999999999432,
                "tempo": 120.0
            },
            {
                "start_time": 48.51363636363636,
                "end_time": 48.61363636363636,
                "pitch": 79,
                "velocity": 64,
                "duration": 0.10000000000000142,
                "tempo": 120.0
            },
            {
                "start_time": 48.64772727272727,
                "end_time": 48.74772727272727,
                "pitch": 76,
                "velocity": 64,
                "duration": 0.09999999999999432,
                "tempo": 120.0
            },
            {
                "start_time": 48.76363636363636,
                "end_time": 48.86590909090909,
                "pitch": 81,
                "velocity": 64,
                "duration": 0.10227272727273373,
                "tempo": 120.0
            },
            {
                "start_time": 48.88409090909091,
                "end_time": 48.986363636363635,
                "pitch": 78,
                "velocity": 64,
                "duration": 0.10227272727272663,
                "tempo": 120.0
            },
            {
                "start_time": 49.00454545454545,
                "end_time": 49.10454545454545,
                "pitch": 74,
                "velocity": 64,
                "duration": 0.10000000000000142,
                "tempo": 120.0
            },
            {
                "start_time": 49.12272727272727,
                "end_time": 49.224999999999994,
                "pitch": 81,
                "velocity": 64,
                "duration": 0.10227272727272663,
                "tempo": 120.0
            },
            {
                "start_time": 49.26136363636363,
                "end_time": 49.35909090909091,
                "pitch": 78,
                "velocity": 64,
                "duration": 0.09772727272727622,
                "tempo": 120.0
            },
            {
                "start_time": 49.377272727272725,
                "end_time": 49.47727272727273,
                "pitch": 74,
                "velocity": 64,
                "duration": 0.10000000000000142,
                "tempo": 120.0
            },
            {
                "start_time": 49.49318181818182,
                "end_time": 49.59318181818182,
                "pitch": 81,
                "velocity": 64,
                "duration": 0.10000000000000142,
                "tempo": 120.0
            },
            {
                "start_time": 49.60909090909091,
                "end_time": 49.709090909090904,
                "pitch": 78,
                "velocity": 64,
                "duration": 0.09999999999999432,
                "tempo": 120.0
            },
            {
                "start_time": 49.72727272727273,
                "end_time": 49.824999999999996,
                "pitch": 81,
                "velocity": 64,
                "duration": 0.09772727272726911,
                "tempo": 120.0
            },
            {
                "start_time": 49.85909090909091,
                "end_time": 49.95681818181818,
                "pitch": 78,
                "velocity": 64,
                "duration": 0.09772727272726911,
                "tempo": 120.0
            },
            {
                "start_time": 49.97272727272727,
                "end_time": 50.070454545454545,
                "pitch": 74,
                "velocity": 64,
                "duration": 0.09772727272727622,
                "tempo": 120.0
            },
            {
                "start_time": 50.08863636363636,
                "end_time": 50.18636363636364,
                "pitch": 81,
                "velocity": 64,
                "duration": 0.09772727272727622,
                "tempo": 120.0
            },
            {
                "start_time": 50.20227272727273,
                "end_time": 50.304545454545455,
                "pitch": 78,
                "velocity": 64,
                "duration": 0.10227272727272663,
                "tempo": 120.0
            },
            {
                "start_time": 50.33863636363636,
                "end_time": 50.43863636363636,
                "pitch": 74,
                "velocity": 64,
                "duration": 0.10000000000000142,
                "tempo": 120.0
            },
            {
                "start_time": 50.45681818181818,
                "end_time": 50.55681818181818,
                "pitch": 81,
                "velocity": 64,
                "duration": 0.10000000000000142,
                "tempo": 120.0
            },
            {
                "start_time": 50.57272727272727,
                "end_time": 50.675,
                "pitch": 78,
                "velocity": 64,
                "duration": 0.10227272727272663,
                "tempo": 120.0
            },
            {
                "start_time": 50.69318181818181,
                "end_time": 50.793181818181814,
                "pitch": 83,
                "velocity": 64,
                "duration": 0.10000000000000142,
                "tempo": 120.0
            },
            {
                "start_time": 50.81136363636364,
                "end_time": 50.913636363636364,
                "pitch": 79,
                "velocity": 64,
                "duration": 0.10227272727272663,
                "tempo": 120.0
            },
            {
                "start_time": 50.94772727272727,
                "end_time": 51.05,
                "pitch": 76,
                "velocity": 64,
                "duration": 0.10227272727272663,
                "tempo": 120.0
            },
            {
                "start_time": 51.06590909090909,
                "end_time": 51.168181818181814,
                "pitch": 83,
                "velocity": 64,
                "duration": 0.10227272727272663,
                "tempo": 120.0
            },
            {
                "start_time": 51.18636363636364,
                "end_time": 51.28636363636363,
                "pitch": 79,
                "velocity": 64,
                "duration": 0.09999999999999432,
                "tempo": 120.0
            },
            {
                "start_time": 51.30227272727272,
                "end_time": 51.402272727272724,
                "pitch": 76,
                "velocity": 64,
                "duration": 0.10000000000000142,
                "tempo": 120.0
            },
            {
                "start_time": 51.42045454545454,
                "end_time": 51.52045454545454,
                "pitch": 83,
                "velocity": 64,
                "duration": 0.10000000000000142,
                "tempo": 120.0
            },
            {
                "start_time": 51.554545454545455,
                "end_time": 51.65454545454545,
                "pitch": 79,
                "velocity": 64,
                "duration": 0.09999999999999432,
                "tempo": 120.0
            },
            {
                "start_time": 51.67045454545454,
                "end_time": 51.77045454545454,
                "pitch": 83,
                "velocity": 64,
                "duration": 0.10000000000000142,
                "tempo": 120.0
            },
            {
                "start_time": 51.78636363636363,
                "end_time": 51.88863636363636,
                "pitch": 79,
                "velocity": 64,
                "duration": 0.10227272727272663,
                "tempo": 120.0
            },
            {
                "start_time": 51.90454545454545,
                "end_time": 52.00454545454545,
                "pitch": 76,
                "velocity": 64,
                "duration": 0.10000000000000142,
                "tempo": 120.0
            },
            {
                "start_time": 52.038636363636364,
                "end_time": 52.13863636363636,
                "pitch": 83,
                "velocity": 64,
                "duration": 0.09999999999999432,
                "tempo": 120.0
            },
            {
                "start_time": 52.15454545454545,
                "end_time": 52.25681818181818,
                "pitch": 79,
                "velocity": 64,
                "duration": 0.10227272727273373,
                "tempo": 120.0
            },
            {
                "start_time": 52.275,
                "end_time": 52.377272727272725,
                "pitch": 76,
                "velocity": 64,
                "duration": 0.10227272727272663,
                "tempo": 120.0
            },
            {
                "start_time": 52.39545454545454,
                "end_time": 52.49545454545454,
                "pitch": 83,
                "velocity": 64,
                "duration": 0.10000000000000142,
                "tempo": 120.0
            },
            {
                "start_time": 52.51363636363636,
                "end_time": 52.615909090909085,
                "pitch": 79,
                "velocity": 64,
                "duration": 0.10227272727272663,
                "tempo": 120.0
            },
            {
                "start_time": 52.652272727272724,
                "end_time": 52.752272727272725,
                "pitch": 84,
                "velocity": 64,
                "duration": 0.10000000000000142,
                "tempo": 120.0
            },
            {
                "start_time": 52.77045454545454,
                "end_time": 52.87272727272727,
                "pitch": 81,
                "velocity": 64,
                "duration": 0.10227272727272663,
                "tempo": 120.0
            },
            {
                "start_time": 52.88863636363636,
                "end_time": 52.99318181818182,
                "pitch": 78,
                "velocity": 64,
                "duration": 0.10454545454545894,
                "tempo": 120.0
            },
            {
                "start_time": 53.00909090909091,
                "end_time": 53.111363636363635,
                "pitch": 84,
                "velocity": 64,
                "duration": 0.10227272727272663,
                "tempo": 120.0
            },
            {
                "start_time": 53.12954545454545,
                "end_time": 53.224999999999994,
                "pitch": 81,
                "velocity": 64,
                "duration": 0.0954545454545439,
                "tempo": 120.0
            },
            {
                "start_time": 53.25681818181818,
                "end_time": 53.35454545454545,
                "pitch": 78,
                "velocity": 64,
                "duration": 0.09772727272726911,
                "tempo": 120.0
            },
            {
                "start_time": 53.37045454545454,
                "end_time": 53.465909090909086,
                "pitch": 84,
                "velocity": 64,
                "duration": 0.0954545454545439,
                "tempo": 120.0
            },
            {
                "start_time": 53.48181818181818,
                "end_time": 53.57727272727273,
                "pitch": 81,
                "velocity": 64,
                "duration": 0.09545454545455101,
                "tempo": 120.0
            },
            {
                "start_time": 53.595454545454544,
                "end_time": 53.69318181818181,
                "pitch": 84,
                "velocity": 64,
                "duration": 0.09772727272726911,
                "tempo": 120.0
            },
            {
                "start_time": 53.711363636363636,
                "end_time": 53.81136363636363,
                "pitch": 81,
                "velocity": 64,
                "duration": 0.09999999999999432,
                "tempo": 120.0
            },
            {
                "start_time": 53.845454545454544,
                "end_time": 53.945454545454545,
                "pitch": 78,
                "velocity": 64,
                "duration": 0.10000000000000142,
                "tempo": 120.0
            },
            {
                "start_time": 53.961363636363636,
                "end_time": 54.06136363636363,
                "pitch": 84,
                "velocity": 64,
                "duration": 0.09999999999999432,
                "tempo": 120.0
            },
            {
                "start_time": 54.07727272727273,
                "end_time": 54.179545454545455,
                "pitch": 81,
                "velocity": 64,
                "duration": 0.10227272727272663,
                "tempo": 120.0
            },
            {
                "start_time": 54.19772727272727,
                "end_time": 54.3,
                "pitch": 78,
                "velocity": 64,
                "duration": 0.10227272727272663,
                "tempo": 120.0
            },
            {
                "start_time": 54.334090909090904,
                "end_time": 54.43636363636363,
                "pitch": 84,
                "velocity": 64,
                "duration": 0.10227272727272663,
                "tempo": 120.0
            },
            {
                "start_time": 54.45454545454545,
                "end_time": 54.55681818181818,
                "pitch": 81,
                "velocity": 64,
                "duration": 0.10227272727272663,
                "tempo": 120.0
            },
            {
                "start_time": 54.574999999999996,
                "end_time": 54.67727272727272,
                "pitch": 83,
                "velocity": 64,
                "duration": 0.10227272727272663,
                "tempo": 120.0
            },
            {
                "start_time": 54.69318181818181,
                "end_time": 54.79545454545454,
                "pitch": 76,
                "velocity": 64,
                "duration": 0.10227272727272663,
                "tempo": 120.0
            },
            {
                "start_time": 54.81363636363636,
                "end_time": 54.91590909090909,
                "pitch": 72,
                "velocity": 64,
                "duration": 0.10227272727272663,
                "tempo": 120.0
            },
            {
                "start_time": 54.949999999999996,
                "end_time": 55.05227272727272,
                "pitch": 79,
                "velocity": 64,
                "duration": 0.10227272727272663,
                "tempo": 120.0
            },
            {
                "start_time": 55.070454545454545,
                "end_time": 55.17045454545454,
                "pitch": 76,
                "velocity": 64,
                "duration": 0.09999999999999432,
                "tempo": 120.0
            },
            {
                "start_time": 55.18636363636363,
                "end_time": 55.28636363636363,
                "pitch": 72,
                "velocity": 64,
                "duration": 0.10000000000000142,
                "tempo": 120.0
            },
            {
                "start_time": 55.304545454545455,
                "end_time": 55.40454545454545,
                "pitch": 79,
                "velocity": 64,
                "duration": 0.09999999999999432,
                "tempo": 120.0
            },
            {
                "start_time": 55.42045454545454,
                "end_time": 55.52045454545454,
                "pitch": 76,
                "velocity": 64,
                "duration": 0.10000000000000142,
                "tempo": 120.0
            },
            {
                "start_time": 55.554545454545455,
                "end_time": 55.65454545454545,
                "pitch": 79,
                "velocity": 64,
                "duration": 0.09999999999999432,
                "tempo": 120.0
            },
            {
                "start_time": 55.67045454545454,
                "end_time": 55.77272727272727,
                "pitch": 76,
                "velocity": 64,
                "duration": 0.10227272727273373,
                "tempo": 120.0
            },
            {
                "start_time": 55.79090909090909,
                "end_time": 55.89090909090909,
                "pitch": 72,
                "velocity": 64,
                "duration": 0.10000000000000142,
                "tempo": 120.0
            },
            {
                "start_time": 55.90681818181818,
                "end_time": 56.00909090909091,
                "pitch": 79,
                "velocity": 64,
                "duration": 0.10227272727272663,
                "tempo": 120.0
            },
            {
                "start_time": 56.025,
                "end_time": 56.12272727272727,
                "pitch": 76,
                "velocity": 64,
                "duration": 0.09772727272726911,
                "tempo": 120.0
            },
            {
                "start_time": 56.15681818181818,
                "end_time": 56.25454545454545,
                "pitch": 72,
                "velocity": 64,
                "duration": 0.09772727272726911,
                "tempo": 120.0
            },
            {
                "start_time": 56.27272727272727,
                "end_time": 56.37045454545454,
                "pitch": 79,
                "velocity": 64,
                "duration": 0.09772727272726911,
                "tempo": 120.0
            },
            {
                "start_time": 56.38636363636363,
                "end_time": 56.48409090909091,
                "pitch": 76,
                "velocity": 64,
                "duration": 0.09772727272727622,
                "tempo": 120.0
            },
            {
                "start_time": 56.502272727272725,
                "end_time": 56.599999999999994,
                "pitch": 81,
                "velocity": 64,
                "duration": 0.09772727272726911,
                "tempo": 120.0
            },
            {
                "start_time": 56.63409090909091,
                "end_time": 56.73409090909091,
                "pitch": 78,
                "velocity": 64,
                "duration": 0.10000000000000142,
                "tempo": 120.0
            },
            {
                "start_time": 56.752272727272725,
                "end_time": 56.85227272727273,
                "pitch": 74,
                "velocity": 64,
                "duration": 0.10000000000000142,
                "tempo": 120.0
            },
            {
                "start_time": 56.86818181818182,
                "end_time": 56.96818181818182,
                "pitch": 81,
                "velocity": 64,
                "duration": 0.10000000000000142,
                "tempo": 120.0
            },
            {
                "start_time": 56.986363636363635,
                "end_time": 57.086363636363636,
                "pitch": 78,
                "velocity": 64,
                "duration": 0.10000000000000142,
                "tempo": 120.0
            },
            {
                "start_time": 57.10454545454545,
                "end_time": 57.20681818181818,
                "pitch": 74,
                "velocity": 64,
                "duration": 0.10227272727272663,
                "tempo": 120.0
            },
            {
                "start_time": 57.240909090909085,
                "end_time": 57.34318181818182,
                "pitch": 81,
                "velocity": 64,
                "duration": 0.10227272727273373,
                "tempo": 120.0
            },
            {
                "start_time": 57.361363636363635,
                "end_time": 57.46363636363636,
                "pitch": 78,
                "velocity": 64,
                "duration": 0.10227272727272663,
                "tempo": 120.0
            },
            {
                "start_time": 57.48181818181818,
                "end_time": 57.58181818181818,
                "pitch": 81,
                "velocity": 64,
                "duration": 0.10000000000000142,
                "tempo": 120.0
            },
            {
                "start_time": 57.59772727272727,
                "end_time": 57.69772727272727,
                "pitch": 78,
                "velocity": 64,
                "duration": 0.10000000000000142,
                "tempo": 120.0
            },
            {
                "start_time": 57.715909090909086,
                "end_time": 57.81363636363636,
                "pitch": 74,
                "velocity": 64,
                "duration": 0.09772727272727622,
                "tempo": 120.0
            },
            {
                "start_time": 57.84772727272727,
                "end_time": 57.94772727272727,
                "pitch": 81,
                "velocity": 64,
                "duration": 0.10000000000000142,
                "tempo": 120.0
            },
            {
                "start_time": 57.96363636363636,
                "end_time": 58.06590909090909,
                "pitch": 78,
                "velocity": 64,
                "duration": 0.10227272727272663,
                "tempo": 120.0
            },
            {
                "start_time": 58.08181818181818,
                "end_time": 58.184090909090905,
                "pitch": 74,
                "velocity": 64,
                "duration": 0.10227272727272663,
                "tempo": 120.0
            },
            {
                "start_time": 58.20227272727272,
                "end_time": 58.3,
                "pitch": 81,
                "velocity": 64,
                "duration": 0.09772727272727622,
                "tempo": 120.0
            },
            {
                "start_time": 58.31818181818181,
                "end_time": 58.418181818181814,
                "pitch": 78,
                "velocity": 64,
                "duration": 0.10000000000000142,
                "tempo": 120.0
            },
            {
                "start_time": 58.45454545454545,
                "end_time": 58.554545454545455,
                "pitch": 64,
                "velocity": 64,
                "duration": 0.10000000000000142,
                "tempo": 120.0
            },
            {
                "start_time": 58.57272727272727,
                "end_time": 58.675,
                "pitch": 64,
                "velocity": 64,
                "duration": 0.10227272727272663,
                "tempo": 120.0
            },
            {
                "start_time": 58.69090909090909,
                "end_time": 58.793181818181814,
                "pitch": 64,
                "velocity": 64,
                "duration": 0.10227272727272663,
                "tempo": 120.0
            },
            {
                "start_time": 58.81136363636363,
                "end_time": 58.913636363636364,
                "pitch": 64,
                "velocity": 64,
                "duration": 0.10227272727273373,
                "tempo": 120.0
            },
            {
                "start_time": 58.94772727272727,
                "end_time": 58.965909090909086,
                "pitch": 67,
                "velocity": 64,
                "duration": 0.018181818181815856,
                "tempo": 120.0
            },
            {
                "start_time": 58.965909090909086,
                "end_time": 58.98181818181818,
                "pitch": 70,
                "velocity": 64,
                "duration": 0.01590909090909065,
                "tempo": 120.0
            },
            {
                "start_time": 58.98181818181818,
                "end_time": 58.99772727272727,
                "pitch": 73,
                "velocity": 64,
                "duration": 0.01590909090909065,
                "tempo": 120.0
            },
            {
                "start_time": 58.98181818181818,
                "end_time": 59.01590909090909,
                "pitch": 76,
                "velocity": 64,
                "duration": 0.03409090909091361,
                "tempo": 120.0
            },
            {
                "start_time": 58.99772727272727,
                "end_time": 59.01590909090909,
                "pitch": 76,
                "velocity": 64,
                "duration": 0.018181818181822962,
                "tempo": 120.0
            },
            {
                "start_time": 59.01590909090909,
                "end_time": 59.06590909090909,
                "pitch": 79,
                "velocity": 64,
                "duration": 0.04999999999999716,
                "tempo": 120.0
            },
            {
                "start_time": 59.06590909090909,
                "end_time": 59.16590909090909,
                "pitch": 82,
                "velocity": 64,
                "duration": 0.10000000000000142,
                "tempo": 120.0
            },
            {
                "start_time": 59.184090909090905,
                "end_time": 59.268181818181816,
                "pitch": 84,
                "velocity": 64,
                "duration": 0.08409090909091077,
                "tempo": 120.0
            },
            {
                "start_time": 59.268181818181816,
                "end_time": 59.28409090909091,
                "pitch": 86,
                "velocity": 64,
                "duration": 0.01590909090909065,
                "tempo": 120.0
            },
            {
                "start_time": 59.30227272727272,
                "end_time": 59.402272727272724,
                "pitch": 87,
                "velocity": 64,
                "duration": 0.10000000000000142,
                "tempo": 120.0
            },
            {
                "start_time": 59.42045454545454,
                "end_time": 59.518181818181816,
                "pitch": 64,
                "velocity": 64,
                "duration": 0.09772727272727622,
                "tempo": 120.0
            },
            {
                "start_time": 59.55,
                "end_time": 59.65,
                "pitch": 64,
                "velocity": 64,
                "duration": 0.10000000000000142,
                "tempo": 120.0
            },
            {
                "start_time": 59.66590909090909,
                "end_time": 59.76363636363636,
                "pitch": 64,
                "velocity": 64,
                "duration": 0.09772727272726911,
                "tempo": 120.0
            },
            {
                "start_time": 59.78181818181818,
                "end_time": 59.87954545454545,
                "pitch": 64,
                "velocity": 64,
                "duration": 0.09772727272726911,
                "tempo": 120.0
            },
            {
                "start_time": 59.89545454545454,
                "end_time": 59.91136363636363,
                "pitch": 67,
                "velocity": 64,
                "duration": 0.01590909090909065,
                "tempo": 120.0
            },
            {
                "start_time": 59.91136363636363,
                "end_time": 59.945454545454545,
                "pitch": 70,
                "velocity": 64,
                "duration": 0.03409090909091361,
                "tempo": 120.0
            },
            {
                "start_time": 59.945454545454545,
                "end_time": 59.961363636363636,
                "pitch": 73,
                "velocity": 64,
                "duration": 0.01590909090909065,
                "tempo": 120.0
            },
            {
                "start_time": 59.945454545454545,
                "end_time": 59.97954545454545,
                "pitch": 76,
                "velocity": 64,
                "duration": 0.03409090909090651,
                "tempo": 120.0
            },
            {
                "start_time": 59.961363636363636,
                "end_time": 59.97954545454545,
                "pitch": 76,
                "velocity": 64,
                "duration": 0.018181818181815856,
                "tempo": 120.0
            },
            {
                "start_time": 59.97954545454545,
                "end_time": 60.01363636363636,
                "pitch": 79,
                "velocity": 64,
                "duration": 0.03409090909090651,
                "tempo": 120.0
            },
            {
                "start_time": 60.01363636363636,
                "end_time": 60.111363636363635,
                "pitch": 82,
                "velocity": 64,
                "duration": 0.09772727272727622,
                "tempo": 120.0
            },
            {
                "start_time": 60.14545454545454,
                "end_time": 60.21363636363636,
                "pitch": 84,
                "velocity": 64,
                "duration": 0.06818181818182012,
                "tempo": 120.0
            },
            {
                "start_time": 60.21363636363636,
                "end_time": 60.24545454545454,
                "pitch": 86,
                "velocity": 64,
                "duration": 0.0318181818181813,
                "tempo": 120.0
            },
            {
                "start_time": 60.26363636363636,
                "end_time": 60.36363636363636,
                "pitch": 87,
                "velocity": 64,
                "duration": 0.10000000000000142,
                "tempo": 120.0
            },
            {
                "start_time": 60.37954545454545,
                "end_time": 60.47954545454545,
                "pitch": 64,
                "velocity": 64,
                "duration": 0.10000000000000142,
                "tempo": 120.0
            },
            {
                "start_time": 60.49772727272727,
                "end_time": 60.59772727272727,
                "pitch": 64,
                "velocity": 64,
                "duration": 0.10000000000000142,
                "tempo": 120.0
            },
            {
                "start_time": 60.631818181818176,
                "end_time": 60.73181818181818,
                "pitch": 64,
                "velocity": 64,
                "duration": 0.10000000000000142,
                "tempo": 120.0
            },
            {
                "start_time": 60.75,
                "end_time": 60.849999999999994,
                "pitch": 64,
                "velocity": 64,
                "duration": 0.09999999999999432,
                "tempo": 120.0
            },
            {
                "start_time": 60.86818181818182,
                "end_time": 60.88409090909091,
                "pitch": 67,
                "velocity": 64,
                "duration": 0.01590909090909065,
                "tempo": 120.0
            },
            {
                "start_time": 60.88409090909091,
                "end_time": 60.902272727272724,
                "pitch": 70,
                "velocity": 64,
                "duration": 0.018181818181815856,
                "tempo": 120.0
            },
            {
                "start_time": 60.902272727272724,
                "end_time": 60.93636363636363,
                "pitch": 73,
                "velocity": 64,
                "duration": 0.03409090909090651,
                "tempo": 120.0
            },
            {
                "start_time": 60.902272727272724,
                "end_time": 60.95227272727272,
                "pitch": 76,
                "velocity": 64,
                "duration": 0.04999999999999716,
                "tempo": 120.0
            },
            {
                "start_time": 60.93636363636363,
                "end_time": 60.95227272727272,
                "pitch": 76,
                "velocity": 64,
                "duration": 0.01590909090909065,
                "tempo": 120.0
            },
            {
                "start_time": 60.95227272727272,
                "end_time": 60.986363636363635,
                "pitch": 79,
                "velocity": 64,
                "duration": 0.03409090909091361,
                "tempo": 120.0
            },
            {
                "start_time": 60.986363636363635,
                "end_time": 61.08863636363636,
                "pitch": 82,
                "velocity": 64,
                "duration": 0.10227272727272663,
                "tempo": 120.0
            },
            {
                "start_time": 61.10681818181818,
                "end_time": 61.19318181818181,
                "pitch": 84,
                "velocity": 64,
                "duration": 0.08636363636363598,
                "tempo": 120.0
            },
            {
                "start_time": 61.19318181818181,
                "end_time": 61.209090909090904,
                "pitch": 86,
                "velocity": 64,
                "duration": 0.01590909090909065,
                "tempo": 120.0
            },
            {
                "start_time": 61.24318181818182,
                "end_time": 61.345454545454544,
                "pitch": 87,
                "velocity": 64,
                "duration": 0.10227272727272663,
                "tempo": 120.0
            },
            {
                "start_time": 61.36363636363636,
                "end_time": 61.46363636363636,
                "pitch": 64,
                "velocity": 64,
                "duration": 0.10000000000000142,
                "tempo": 120.0
            },
            {
                "start_time": 61.47954545454545,
                "end_time": 61.57954545454545,
                "pitch": 64,
                "velocity": 64,
                "duration": 0.10000000000000142,
                "tempo": 120.0
            },
            {
                "start_time": 61.59772727272727,
                "end_time": 61.69772727272727,
                "pitch": 64,
                "velocity": 64,
                "duration": 0.10000000000000142,
                "tempo": 120.0
            },
            {
                "start_time": 61.71363636363636,
                "end_time": 61.81363636363636,
                "pitch": 64,
                "velocity": 64,
                "duration": 0.10000000000000142,
                "tempo": 120.0
            },
            {
                "start_time": 61.84772727272727,
                "end_time": 61.949999999999996,
                "pitch": 79,
                "velocity": 64,
                "duration": 0.10227272727272663,
                "tempo": 120.0
            },
            {
                "start_time": 61.965909090909086,
                "end_time": 62.06818181818181,
                "pitch": 78,
                "velocity": 64,
                "duration": 0.10227272727272663,
                "tempo": 120.0
            },
            {
                "start_time": 62.086363636363636,
                "end_time": 62.18863636363636,
                "pitch": 76,
                "velocity": 64,
                "duration": 0.10227272727272663,
                "tempo": 120.0
            },
            {
                "start_time": 62.20681818181818,
                "end_time": 62.309090909090905,
                "pitch": 74,
                "velocity": 64,
                "duration": 0.10227272727272663,
                "tempo": 120.0
            },
            {
                "start_time": 62.32727272727272,
                "end_time": 62.425,
                "pitch": 83,
                "velocity": 64,
                "duration": 0.09772727272727622,
                "tempo": 120.0
            },
            {
                "start_time": 62.45681818181818,
                "end_time": 62.55681818181818,
                "pitch": 76,
                "velocity": 64,
                "duration": 0.10000000000000142,
                "tempo": 120.0
            },
            {
                "start_time": 62.57272727272727,
                "end_time": 62.67045454545454,
                "pitch": 72,
                "velocity": 64,
                "duration": 0.09772727272726911,
                "tempo": 120.0
            },
            {
                "start_time": 62.68636363636363,
                "end_time": 62.78636363636363,
                "pitch": 79,
                "velocity": 64,
                "duration": 0.10000000000000142,
                "tempo": 120.0
            },
            {
                "start_time": 62.80227272727272,
                "end_time": 62.902272727272724,
                "pitch": 76,
                "velocity": 64,
                "duration": 0.10000000000000142,
                "tempo": 120.0
            },
            {
                "start_time": 62.93636363636363,
                "end_time": 63.03636363636363,
                "pitch": 72,
                "velocity": 64,
                "duration": 0.10000000000000142,
                "tempo": 120.0
            },
            {
                "start_time": 63.05227272727272,
                "end_time": 63.152272727272724,
                "pitch": 79,
                "velocity": 64,
                "duration": 0.10000000000000142,
                "tempo": 120.0
            },
            {
                "start_time": 63.17045454545454,
                "end_time": 63.268181818181816,
                "pitch": 76,
                "velocity": 64,
                "duration": 0.09772727272727622,
                "tempo": 120.0
            },
            {
                "start_time": 63.28636363636363,
                "end_time": 63.38636363636363,
                "pitch": 79,
                "velocity": 64,
                "duration": 0.10000000000000142,
                "tempo": 120.0
            },
            {
                "start_time": 63.40454545454545,
                "end_time": 63.50454545454545,
                "pitch": 76,
                "velocity": 64,
                "duration": 0.10000000000000142,
                "tempo": 120.0
            },
            {
                "start_time": 63.538636363636364,
                "end_time": 63.63863636363636,
                "pitch": 72,
                "velocity": 64,
                "duration": 0.09999999999999432,
                "tempo": 120.0
            },
            {
                "start_time": 63.65681818181818,
                "end_time": 63.756818181818176,
                "pitch": 79,
                "velocity": 64,
                "duration": 0.09999999999999432,
                "tempo": 120.0
            },
            {
                "start_time": 63.775,
                "end_time": 63.877272727272725,
                "pitch": 76,
                "velocity": 64,
                "duration": 0.10227272727272663,
                "tempo": 120.0
            },
            {
                "start_time": 63.893181818181816,
                "end_time": 63.99545454545454,
                "pitch": 72,
                "velocity": 64,
                "duration": 0.10227272727272663,
                "tempo": 120.0
            },
            {
                "start_time": 64.01363636363637,
                "end_time": 64.11590909090908,
                "pitch": 79,
                "velocity": 64,
                "duration": 0.10227272727271952,
                "tempo": 120.0
            },
            {
                "start_time": 64.14999999999999,
                "end_time": 64.25227272727273,
                "pitch": 76,
                "velocity": 64,
                "duration": 0.10227272727273373,
                "tempo": 120.0
            },
            {
                "start_time": 64.27045454545454,
                "end_time": 64.37045454545454,
                "pitch": 81,
                "velocity": 64,
                "duration": 0.09999999999999432,
                "tempo": 120.0
            },
            {
                "start_time": 64.38636363636364,
                "end_time": 64.48636363636363,
                "pitch": 78,
                "velocity": 64,
                "duration": 0.09999999999999432,
                "tempo": 120.0
            },
            {
                "start_time": 64.50454545454545,
                "end_time": 64.60227272727272,
                "pitch": 74,
                "velocity": 64,
                "duration": 0.09772727272726911,
                "tempo": 120.0
            },
            {
                "start_time": 64.62045454545454,
                "end_time": 64.72045454545454,
                "pitch": 81,
                "velocity": 64,
                "duration": 0.10000000000000853,
                "tempo": 120.0
            },
            {
                "start_time": 64.75454545454545,
                "end_time": 64.85681818181818,
                "pitch": 78,
                "velocity": 64,
                "duration": 0.10227272727273373,
                "tempo": 120.0
            },
            {
                "start_time": 64.87272727272727,
                "end_time": 64.975,
                "pitch": 74,
                "velocity": 64,
                "duration": 0.10227272727271952,
                "tempo": 120.0
            },
            {
                "start_time": 64.99318181818181,
                "end_time": 65.09545454545454,
                "pitch": 81,
                "velocity": 64,
                "duration": 0.10227272727273373,
                "tempo": 120.0
            },
            {
                "start_time": 65.11136363636363,
                "end_time": 65.2159090909091,
                "pitch": 78,
                "velocity": 64,
                "duration": 0.10454545454545894,
                "tempo": 120.0
            },
            {
                "start_time": 65.25,
                "end_time": 65.35,
                "pitch": 81,
                "velocity": 64,
                "duration": 0.09999999999999432,
                "tempo": 120.0
            },
            {
                "start_time": 65.36818181818181,
                "end_time": 65.46818181818182,
                "pitch": 78,
                "velocity": 64,
                "duration": 0.10000000000000853,
                "tempo": 120.0
            },
            {
                "start_time": 65.48409090909091,
                "end_time": 65.58636363636363,
                "pitch": 74,
                "velocity": 64,
                "duration": 0.10227272727271952,
                "tempo": 120.0
            },
            {
                "start_time": 65.60227272727272,
                "end_time": 65.70227272727273,
                "pitch": 81,
                "velocity": 64,
                "duration": 0.10000000000000853,
                "tempo": 120.0
            },
            {
                "start_time": 65.72045454545454,
                "end_time": 65.81818181818181,
                "pitch": 78,
                "velocity": 64,
                "duration": 0.09772727272726911,
                "tempo": 120.0
            },
            {
                "start_time": 65.85227272727272,
                "end_time": 65.95,
                "pitch": 74,
                "velocity": 64,
                "duration": 0.09772727272728332,
                "tempo": 120.0
            },
            {
                "start_time": 65.96818181818182,
                "end_time": 66.06590909090909,
                "pitch": 81,
                "velocity": 64,
                "duration": 0.09772727272726911,
                "tempo": 120.0
            },
            {
                "start_time": 66.08181818181818,
                "end_time": 66.17954545454545,
                "pitch": 78,
                "velocity": 64,
                "duration": 0.09772727272726911,
                "tempo": 120.0
            },
            {
                "start_time": 66.19772727272726,
                "end_time": 66.29772727272727,
                "pitch": 83,
                "velocity": 64,
                "duration": 0.10000000000000853,
                "tempo": 120.0
            },
            {
                "start_time": 66.31363636363636,
                "end_time": 66.41590909090908,
                "pitch": 79,
                "velocity": 64,
                "duration": 0.10227272727271952,
                "tempo": 120.0
            },
            {
                "start_time": 66.45,
                "end_time": 66.55,
                "pitch": 76,
                "velocity": 64,
                "duration": 0.09999999999999432,
                "tempo": 120.0
            },
            {
                "start_time": 66.56590909090909,
                "end_time": 66.66818181818182,
                "pitch": 83,
                "velocity": 64,
                "duration": 0.10227272727273373,
                "tempo": 120.0
            },
            {
                "start_time": 66.68409090909091,
                "end_time": 66.7840909090909,
                "pitch": 79,
                "velocity": 64,
                "duration": 0.09999999999999432,
                "tempo": 120.0
            },
            {
                "start_time": 66.80227272727272,
                "end_time": 66.90227272727273,
                "pitch": 76,
                "velocity": 64,
                "duration": 0.10000000000000853,
                "tempo": 120.0
            },
            {
                "start_time": 66.92045454545455,
                "end_time": 67.02045454545454,
                "pitch": 83,
                "velocity": 64,
                "duration": 0.09999999999999432,
                "tempo": 120.0
            },
            {
                "start_time": 67.05454545454545,
                "end_time": 67.15454545454546,
                "pitch": 79,
                "velocity": 64,
                "duration": 0.10000000000000853,
                "tempo": 120.0
            },
            {
                "start_time": 67.17272727272727,
                "end_time": 67.27499999999999,
                "pitch": 83,
                "velocity": 64,
                "duration": 0.10227272727271952,
                "tempo": 120.0
            },
            {
                "start_time": 67.29090909090908,
                "end_time": 67.39545454545454,
                "pitch": 79,
                "velocity": 64,
                "duration": 0.10454545454545894,
                "tempo": 120.0
            },
            {
                "start_time": 67.41136363636363,
                "end_time": 67.51363636363637,
                "pitch": 76,
                "velocity": 64,
                "duration": 0.10227272727273373,
                "tempo": 120.0
            },
            {
                "start_time": 67.54772727272727,
                "end_time": 67.64999999999999,
                "pitch": 83,
                "velocity": 64,
                "duration": 0.10227272727271952,
                "tempo": 120.0
            },
            {
                "start_time": 67.66818181818182,
                "end_time": 67.76818181818182,
                "pitch": 79,
                "velocity": 64,
                "duration": 0.09999999999999432,
                "tempo": 120.0
            },
            {
                "start_time": 67.78636363636363,
                "end_time": 67.88636363636363,
                "pitch": 76,
                "velocity": 64,
                "duration": 0.09999999999999432,
                "tempo": 120.0
            },
            {
                "start_time": 67.90454545454546,
                "end_time": 68.00454545454545,
                "pitch": 83,
                "velocity": 64,
                "duration": 0.09999999999999432,
                "tempo": 120.0
            },
            {
                "start_time": 68.02045454545454,
                "end_time": 68.12272727272727,
                "pitch": 79,
                "velocity": 64,
                "duration": 0.10227272727273373,
                "tempo": 120.0
            },
            {
                "start_time": 68.15681818181818,
                "end_time": 68.2590909090909,
                "pitch": 84,
                "velocity": 64,
                "duration": 0.10227272727271952,
                "tempo": 120.0
            },
            {
                "start_time": 68.27499999999999,
                "end_time": 68.37727272727273,
                "pitch": 81,
                "velocity": 64,
                "duration": 0.10227272727273373,
                "tempo": 120.0
            },
            {
                "start_time": 68.39545454545454,
                "end_time": 68.49772727272727,
                "pitch": 78,
                "velocity": 64,
                "duration": 0.10227272727273373,
                "tempo": 120.0
            },
            {
                "start_time": 68.51590909090909,
                "end_time": 68.61818181818181,
                "pitch": 84,
                "velocity": 64,
                "duration": 0.10227272727271952,
                "tempo": 120.0
            },
            {
                "start_time": 68.63636363636363,
                "end_time": 68.72954545454544,
                "pitch": 81,
                "velocity": 64,
                "duration": 0.0931818181818187,
                "tempo": 120.0
            },
            {
                "start_time": 68.76363636363637,
                "end_time": 68.85909090909091,
                "pitch": 78,
                "velocity": 64,
                "duration": 0.0954545454545439,
                "tempo": 120.0
            },
            {
                "start_time": 68.875,
                "end_time": 68.97045454545454,
                "pitch": 84,
                "velocity": 64,
                "duration": 0.0954545454545439,
                "tempo": 120.0
            },
            {
                "start_time": 68.98863636363636,
                "end_time": 69.0840909090909,
                "pitch": 81,
                "velocity": 64,
                "duration": 0.0954545454545439,
                "tempo": 120.0
            },
            {
                "start_time": 69.1,
                "end_time": 69.20227272727273,
                "pitch": 84,
                "velocity": 64,
                "duration": 0.10227272727273373,
                "tempo": 120.0
            },
            {
                "start_time": 69.23636363636363,
                "end_time": 69.33863636363635,
                "pitch": 81,
                "velocity": 64,
                "duration": 0.10227272727271952,
                "tempo": 120.0
            },
            {
                "start_time": 69.35681818181818,
                "end_time": 69.4590909090909,
                "pitch": 78,
                "velocity": 64,
                "duration": 0.10227272727271952,
                "tempo": 120.0
            },
            {
                "start_time": 69.475,
                "end_time": 69.57727272727273,
                "pitch": 84,
                "velocity": 64,
                "duration": 0.10227272727273373,
                "tempo": 120.0
            },
            {
                "start_time": 69.59545454545454,
                "end_time": 69.69545454545454,
                "pitch": 81,
                "velocity": 64,
                "duration": 0.09999999999999432,
                "tempo": 120.0
            },
            {
                "start_time": 69.71363636363635,
                "end_time": 69.81363636363636,
                "pitch": 78,
                "velocity": 64,
                "duration": 0.10000000000000853,
                "tempo": 120.0
            },
            {
                "start_time": 69.84772727272727,
                "end_time": 69.94772727272726,
                "pitch": 84,
                "velocity": 64,
                "duration": 0.09999999999999432,
                "tempo": 120.0
            },
            {
                "start_time": 69.9659090909091,
                "end_time": 70.06590909090909,
                "pitch": 81,
                "velocity": 64,
                "duration": 0.09999999999999432,
                "tempo": 120.0
            },
            {
                "start_time": 70.0840909090909,
                "end_time": 70.18636363636364,
                "pitch": 83,
                "velocity": 64,
                "duration": 0.10227272727273373,
                "tempo": 120.0
            },
            {
                "start_time": 70.20227272727273,
                "end_time": 70.30454545454545,
                "pitch": 76,
                "velocity": 64,
                "duration": 0.10227272727271952,
                "tempo": 120.0
            },
            {
                "start_time": 70.32272727272726,
                "end_time": 70.425,
                "pitch": 72,
                "velocity": 64,
                "duration": 0.10227272727273373,
                "tempo": 120.0
            },
            {
                "start_time": 70.4590909090909,
                "end_time": 70.56136363636364,
                "pitch": 79,
                "velocity": 64,
                "duration": 0.10227272727273373,
                "tempo": 120.0
            },
            {
                "start_time": 70.57954545454545,
                "end_time": 70.67954545454545,
                "pitch": 76,
                "velocity": 64,
                "duration": 0.09999999999999432,
                "tempo": 120.0
            },
            {
                "start_time": 70.69545454545454,
                "end_time": 70.79772727272727,
                "pitch": 72,
                "velocity": 64,
                "duration": 0.10227272727273373,
                "tempo": 120.0
            },
            {
                "start_time": 70.81363636363636,
                "end_time": 70.91590909090908,
                "pitch": 79,
                "velocity": 64,
                "duration": 0.10227272727271952,
                "tempo": 120.0
            },
            {
                "start_time": 70.93181818181817,
                "end_time": 71.03181818181818,
                "pitch": 76,
                "velocity": 64,
                "duration": 0.10000000000000853,
                "tempo": 120.0
            },
            {
                "start_time": 71.06590909090909,
                "end_time": 71.16590909090908,
                "pitch": 79,
                "velocity": 64,
                "duration": 0.09999999999999432,
                "tempo": 120.0
            },
            {
                "start_time": 71.18409090909091,
                "end_time": 71.2840909090909,
                "pitch": 76,
                "velocity": 64,
                "duration": 0.09999999999999432,
                "tempo": 120.0
            },
            {
                "start_time": 71.30227272727272,
                "end_time": 71.39999999999999,
                "pitch": 72,
                "velocity": 64,
                "duration": 0.09772727272726911,
                "tempo": 120.0
            },
            {
                "start_time": 71.41590909090908,
                "end_time": 71.51818181818182,
                "pitch": 79,
                "velocity": 64,
                "duration": 0.10227272727273373,
                "tempo": 120.0
            },
            {
                "start_time": 71.55,
                "end_time": 71.65227272727273,
                "pitch": 76,
                "velocity": 64,
                "duration": 0.10227272727273373,
                "tempo": 120.0
            },
            {
                "start_time": 71.67045454545455,
                "end_time": 71.77272727272727,
                "pitch": 72,
                "velocity": 64,
                "duration": 0.10227272727271952,
                "tempo": 120.0
            },
            {
                "start_time": 71.79090909090908,
                "end_time": 71.89318181818182,
                "pitch": 79,
                "velocity": 64,
                "duration": 0.10227272727273373,
                "tempo": 120.0
            },
            {
                "start_time": 71.9090909090909,
                "end_time": 72.01136363636363,
                "pitch": 76,
                "velocity": 64,
                "duration": 0.10227272727271952,
                "tempo": 120.0
            },
            {
                "start_time": 72.02954545454546,
                "end_time": 72.125,
                "pitch": 81,
                "velocity": 64,
                "duration": 0.0954545454545439,
                "tempo": 120.0
            },
            {
                "start_time": 72.15681818181818,
                "end_time": 72.25454545454545,
                "pitch": 78,
                "velocity": 64,
                "duration": 0.09772727272726911,
                "tempo": 120.0
            },
            {
                "start_time": 72.27045454545454,
                "end_time": 72.36590909090908,
                "pitch": 74,
                "velocity": 64,
                "duration": 0.0954545454545439,
                "tempo": 120.0
            },
            {
                "start_time": 72.38181818181818,
                "end_time": 72.47727272727272,
                "pitch": 81,
                "velocity": 64,
                "duration": 0.0954545454545439,
                "tempo": 120.0
            },
            {
                "start_time": 72.49545454545454,
                "end_time": 72.59545454545454,
                "pitch": 78,
                "velocity": 64,
                "duration": 0.10000000000000853,
                "tempo": 120.0
            },
            {
                "start_time": 72.61363636363636,
                "end_time": 72.7159090909091,
                "pitch": 74,
                "velocity": 64,
                "duration": 0.10227272727273373,
                "tempo": 120.0
            },
            {
                "start_time": 72.75,
                "end_time": 72.85227272727272,
                "pitch": 81,
                "velocity": 64,
                "duration": 0.10227272727271952,
                "tempo": 120.0
            },
            {
                "start_time": 72.87045454545454,
                "end_time": 72.97272727272727,
                "pitch": 78,
                "velocity": 64,
                "duration": 0.10227272727273373,
                "tempo": 120.0
            },
            {
                "start_time": 72.99090909090908,
                "end_time": 73.08863636363635,
                "pitch": 81,
                "velocity": 64,
                "duration": 0.09772727272726911,
                "tempo": 120.0
            },
            {
                "start_time": 73.10681818181818,
                "end_time": 73.20681818181818,
                "pitch": 78,
                "velocity": 64,
                "duration": 0.09999999999999432,
                "tempo": 120.0
            },
            {
                "start_time": 73.225,
                "end_time": 73.32272727272726,
                "pitch": 74,
                "velocity": 64,
                "duration": 0.09772727272726911,
                "tempo": 120.0
            },
            {
                "start_time": 73.35681818181818,
                "end_time": 73.45681818181818,
                "pitch": 81,
                "velocity": 64,
                "duration": 0.09999999999999432,
                "tempo": 120.0
            },
            {
                "start_time": 73.47272727272727,
                "end_time": 73.575,
                "pitch": 78,
                "velocity": 64,
                "duration": 0.10227272727273373,
                "tempo": 120.0
            },
            {
                "start_time": 73.59318181818182,
                "end_time": 73.69545454545454,
                "pitch": 74,
                "velocity": 64,
                "duration": 0.10227272727271952,
                "tempo": 120.0
            },
            {
                "start_time": 73.71363636363635,
                "end_time": 73.81590909090909,
                "pitch": 81,
                "velocity": 64,
                "duration": 0.10227272727273373,
                "tempo": 120.0
            },
            {
                "start_time": 73.85,
                "end_time": 73.95227272727273,
                "pitch": 78,
                "velocity": 64,
                "duration": 0.10227272727273373,
                "tempo": 120.0
            },
            {
                "start_time": 73.97272727272727,
                "end_time": 74.07045454545454,
                "pitch": 78,
                "velocity": 64,
                "duration": 0.09772727272726911,
                "tempo": 120.0
            },
            {
                "start_time": 74.08636363636363,
                "end_time": 74.18636363636364,
                "pitch": 75,
                "velocity": 64,
                "duration": 0.10000000000000853,
                "tempo": 120.0
            },
            {
                "start_time": 74.20227272727273,
                "end_time": 74.30227272727272,
                "pitch": 71,
                "velocity": 64,
                "duration": 0.09999999999999432,
                "tempo": 120.0
            },
            {
                "start_time": 74.32045454545454,
                "end_time": 74.42045454545455,
                "pitch": 78,
                "velocity": 64,
                "duration": 0.10000000000000853,
                "tempo": 120.0
            },
            {
                "start_time": 74.45454545454545,
                "end_time": 74.55454545454545,
                "pitch": 75,
                "velocity": 64,
                "duration": 0.09999999999999432,
                "tempo": 120.0
            },
            {
                "start_time": 74.57272727272726,
                "end_time": 74.67272727272727,
                "pitch": 71,
                "velocity": 64,
                "duration": 0.10000000000000853,
                "tempo": 120.0
            },
            {
                "start_time": 74.68863636363636,
                "end_time": 74.78863636363636,
                "pitch": 78,
                "velocity": 64,
                "duration": 0.09999999999999432,
                "tempo": 120.0
            },
            {
                "start_time": 74.80681818181817,
                "end_time": 74.90681818181818,
                "pitch": 75,
                "velocity": 64,
                "duration": 0.10000000000000853,
                "tempo": 120.0
            },
            {
                "start_time": 74.925,
                "end_time": 75.02272727272727,
                "pitch": 78,
                "velocity": 64,
                "duration": 0.09772727272726911,
                "tempo": 120.0
            },
            {
                "start_time": 75.05681818181817,
                "end_time": 75.15454545454546,
                "pitch": 75,
                "velocity": 64,
                "duration": 0.09772727272728332,
                "tempo": 120.0
            },
            {
                "start_time": 75.17045454545455,
                "end_time": 75.26818181818182,
                "pitch": 71,
                "velocity": 64,
                "duration": 0.09772727272726911,
                "tempo": 120.0
            },
            {
                "start_time": 75.28636363636363,
                "end_time": 75.3840909090909,
                "pitch": 78,
                "velocity": 64,
                "duration": 0.09772727272726911,
                "tempo": 120.0
            },
            {
                "start_time": 75.39999999999999,
                "end_time": 75.50227272727273,
                "pitch": 75,
                "velocity": 64,
                "duration": 0.10227272727273373,
                "tempo": 120.0
            },
            {
                "start_time": 75.52045454545454,
                "end_time": 75.62272727272727,
                "pitch": 71,
                "velocity": 64,
                "duration": 0.10227272727273373,
                "tempo": 120.0
            },
            {
                "start_time": 75.65681818181818,
                "end_time": 75.7590909090909,
                "pitch": 78,
                "velocity": 64,
                "duration": 0.10227272727271952,
                "tempo": 120.0
            },
            {
                "start_time": 75.77727272727272,
                "end_time": 75.87954545454545,
                "pitch": 75,
                "velocity": 64,
                "duration": 0.10227272727273373,
                "tempo": 120.0
            },
            {
                "start_time": 75.89772727272727,
                "end_time": 75.99772727272727,
                "pitch": 75,
                "velocity": 64,
                "duration": 0.10000000000000853,
                "tempo": 120.0
            },
            {
                "start_time": 76.01363636363637,
                "end_time": 76.11590909090908,
                "pitch": 71,
                "velocity": 64,
                "duration": 0.10227272727271952,
                "tempo": 120.0
            },
            {
                "start_time": 76.14999999999999,
                "end_time": 76.25,
                "pitch": 78,
                "velocity": 64,
                "duration": 0.10000000000000853,
                "tempo": 120.0
            },
            {
                "start_time": 76.26590909090909,
                "end_time": 76.36818181818181,
                "pitch": 71,
                "velocity": 64,
                "duration": 0.10227272727271952,
                "tempo": 120.0
            },
            {
                "start_time": 76.3840909090909,
                "end_time": 76.48636363636363,
                "pitch": 81,
                "velocity": 64,
                "duration": 0.10227272727273373,
                "tempo": 120.0
            },
            {
                "start_time": 76.50454545454545,
                "end_time": 76.60681818181818,
                "pitch": 75,
                "velocity": 64,
                "duration": 0.10227272727273373,
                "tempo": 120.0
            },
            {
                "start_time": 76.62272727272727,
                "end_time": 76.725,
                "pitch": 82,
                "velocity": 64,
                "duration": 0.10227272727271952,
                "tempo": 120.0
            },
            {
                "start_time": 76.76136363636363,
                "end_time": 76.86363636363636,
                "pitch": 75,
                "velocity": 64,
                "duration": 0.10227272727273373,
                "tempo": 120.0
            },
            {
                "start_time": 76.88181818181818,
                "end_time": 77.09772727272727,
                "pitch": 83,
                "velocity": 64,
                "duration": 0.2159090909090935,
                "tempo": 120.0
            },
            {
                "start_time": 85.58863636363635,
                "end_time": 85.68636363636364,
                "pitch": 83,
                "velocity": 64,
                "duration": 0.09772727272728332,
                "tempo": 120.0
            },
            {
                "start_time": 85.70227272727273,
                "end_time": 85.80227272727272,
                "pitch": 76,
                "velocity": 64,
                "duration": 0.09999999999999432,
                "tempo": 120.0
            },
            {
                "start_time": 85.82045454545454,
                "end_time": 85.92045454545455,
                "pitch": 72,
                "velocity": 64,
                "duration": 0.10000000000000853,
                "tempo": 120.0
            },
            {
                "start_time": 85.95454545454545,
                "end_time": 86.05454545454545,
                "pitch": 79,
                "velocity": 64,
                "duration": 0.09999999999999432,
                "tempo": 120.0
            },
            {
                "start_time": 86.07272727272726,
                "end_time": 86.17272727272727,
                "pitch": 76,
                "velocity": 64,
                "duration": 0.10000000000000853,
                "tempo": 120.0
            },
            {
                "start_time": 86.18863636363636,
                "end_time": 86.28863636363636,
                "pitch": 72,
                "velocity": 64,
                "duration": 0.09999999999999432,
                "tempo": 120.0
            },
            {
                "start_time": 86.30681818181817,
                "end_time": 86.40681818181818,
                "pitch": 79,
                "velocity": 64,
                "duration": 0.10000000000000853,
                "tempo": 120.0
            },
            {
                "start_time": 86.43863636363636,
                "end_time": 86.53863636363636,
                "pitch": 76,
                "velocity": 64,
                "duration": 0.09999999999999432,
                "tempo": 120.0
            },
            {
                "start_time": 86.55681818181817,
                "end_time": 86.65681818181818,
                "pitch": 79,
                "velocity": 64,
                "duration": 0.10000000000000853,
                "tempo": 120.0
            },
            {
                "start_time": 86.675,
                "end_time": 86.77499999999999,
                "pitch": 76,
                "velocity": 64,
                "duration": 0.09999999999999432,
                "tempo": 120.0
            },
            {
                "start_time": 86.79318181818181,
                "end_time": 86.89318181818182,
                "pitch": 72,
                "velocity": 64,
                "duration": 0.10000000000000853,
                "tempo": 120.0
            },
            {
                "start_time": 86.9090909090909,
                "end_time": 87.01136363636363,
                "pitch": 79,
                "velocity": 64,
                "duration": 0.10227272727271952,
                "tempo": 120.0
            },
            {
                "start_time": 87.04318181818181,
                "end_time": 87.14545454545454,
                "pitch": 76,
                "velocity": 64,
                "duration": 0.10227272727273373,
                "tempo": 120.0
            },
            {
                "start_time": 87.16363636363636,
                "end_time": 87.26590909090909,
                "pitch": 72,
                "velocity": 64,
                "duration": 0.10227272727273373,
                "tempo": 120.0
            },
            {
                "start_time": 87.2840909090909,
                "end_time": 87.38636363636363,
                "pitch": 79,
                "velocity": 64,
                "duration": 0.10227272727271952,
                "tempo": 120.0
            },
            {
                "start_time": 87.40227272727272,
                "end_time": 87.50681818181818,
                "pitch": 76,
                "velocity": 64,
                "duration": 0.10454545454545894,
                "tempo": 120.0
            },
            {
                "start_time": 87.52272727272727,
                "end_time": 87.62045454545454,
                "pitch": 81,
                "velocity": 64,
                "duration": 0.09772727272726911,
                "tempo": 120.0
            },
            {
                "start_time": 87.65454545454546,
                "end_time": 87.75227272727273,
                "pitch": 78,
                "velocity": 64,
                "duration": 0.09772727272726911,
                "tempo": 120.0
            },
            {
                "start_time": 87.77045454545454,
                "end_time": 87.86818181818181,
                "pitch": 74,
                "velocity": 64,
                "duration": 0.09772727272726911,
                "tempo": 120.0
            },
            {
                "start_time": 87.8840909090909,
                "end_time": 87.98409090909091,
                "pitch": 81,
                "velocity": 64,
                "duration": 0.10000000000000853,
                "tempo": 120.0
            },
            {
                "start_time": 88.0,
                "end_time": 88.1,
                "pitch": 78,
                "velocity": 64,
                "duration": 0.09999999999999432,
                "tempo": 120.0
            },
            {
                "start_time": 88.11818181818181,
                "end_time": 88.21818181818182,
                "pitch": 74,
                "velocity": 64,
                "duration": 0.10000000000000853,
                "tempo": 120.0
            },
            {
                "start_time": 88.25227272727273,
                "end_time": 88.35227272727272,
                "pitch": 81,
                "velocity": 64,
                "duration": 0.09999999999999432,
                "tempo": 120.0
            },
            {
                "start_time": 88.37045454545454,
                "end_time": 88.47045454545454,
                "pitch": 78,
                "velocity": 64,
                "duration": 0.10000000000000853,
                "tempo": 120.0
            },
            {
                "start_time": 88.48636363636363,
                "end_time": 88.58863636363635,
                "pitch": 81,
                "velocity": 64,
                "duration": 0.10227272727271952,
                "tempo": 120.0
            },
            {
                "start_time": 88.60454545454544,
                "end_time": 88.70681818181818,
                "pitch": 78,
                "velocity": 64,
                "duration": 0.10227272727273373,
                "tempo": 120.0
            },
            {
                "start_time": 88.74090909090908,
                "end_time": 88.8409090909091,
                "pitch": 74,
                "velocity": 64,
                "duration": 0.10000000000000853,
                "tempo": 120.0
            },
            {
                "start_time": 88.85681818181818,
                "end_time": 88.9590909090909,
                "pitch": 81,
                "velocity": 64,
                "duration": 0.10227272727271952,
                "tempo": 120.0
            },
            {
                "start_time": 88.975,
                "end_time": 89.07727272727273,
                "pitch": 78,
                "velocity": 64,
                "duration": 0.10227272727273373,
                "tempo": 120.0
            },
            {
                "start_time": 89.09545454545454,
                "end_time": 89.19772727272726,
                "pitch": 74,
                "velocity": 64,
                "duration": 0.10227272727271952,
                "tempo": 120.0
            },
            {
                "start_time": 89.21363636363635,
                "end_time": 89.31590909090909,
                "pitch": 81,
                "velocity": 64,
                "duration": 0.10227272727273373,
                "tempo": 120.0
            },
            {
                "start_time": 89.35,
                "end_time": 89.45454545454545,
                "pitch": 78,
                "velocity": 64,
                "duration": 0.10454545454545894,
                "tempo": 120.0
            },
            {
                "start_time": 89.47272727272727,
                "end_time": 89.57045454545454,
                "pitch": 83,
                "velocity": 64,
                "duration": 0.09772727272726911,
                "tempo": 120.0
            },
            {
                "start_time": 89.58863636363635,
                "end_time": 89.68863636363636,
                "pitch": 79,
                "velocity": 64,
                "duration": 0.10000000000000853,
                "tempo": 120.0
            },
            {
                "start_time": 89.70681818181818,
                "end_time": 89.80681818181817,
                "pitch": 76,
                "velocity": 64,
                "duration": 0.09999999999999432,
                "tempo": 120.0
            },
            {
                "start_time": 89.82499999999999,
                "end_time": 89.925,
                "pitch": 83,
                "velocity": 64,
                "duration": 0.10000000000000853,
                "tempo": 120.0
            },
            {
                "start_time": 89.9590909090909,
                "end_time": 90.06136363636364,
                "pitch": 79,
                "velocity": 64,
                "duration": 0.10227272727273373,
                "tempo": 120.0
            },
            {
                "start_time": 90.07727272727273,
                "end_time": 90.17954545454545,
                "pitch": 76,
                "velocity": 64,
                "duration": 0.10227272727271952,
                "tempo": 120.0
            },
            {
                "start_time": 90.19772727272726,
                "end_time": 90.3,
                "pitch": 83,
                "velocity": 64,
                "duration": 0.10227272727273373,
                "tempo": 120.0
            },
            {
                "start_time": 90.31818181818181,
                "end_time": 90.42045454545455,
                "pitch": 79,
                "velocity": 64,
                "duration": 0.10227272727273373,
                "tempo": 120.0
            },
            {
                "start_time": 90.43636363636364,
                "end_time": 90.5340909090909,
                "pitch": 83,
                "velocity": 64,
                "duration": 0.09772727272726911,
                "tempo": 120.0
            },
            {
                "start_time": 90.56590909090909,
                "end_time": 90.66136363636363,
                "pitch": 79,
                "velocity": 64,
                "duration": 0.0954545454545439,
                "tempo": 120.0
            },
            {
                "start_time": 90.67954545454545,
                "end_time": 90.77499999999999,
                "pitch": 76,
                "velocity": 64,
                "duration": 0.0954545454545439,
                "tempo": 120.0
            },
            {
                "start_time": 90.79090909090908,
                "end_time": 90.88636363636363,
                "pitch": 83,
                "velocity": 64,
                "duration": 0.0954545454545439,
                "tempo": 120.0
            },
            {
                "start_time": 90.90227272727272,
                "end_time": 91.00454545454545,
                "pitch": 79,
                "velocity": 64,
                "duration": 0.10227272727273373,
                "tempo": 120.0
            },
            {
                "start_time": 91.03863636363636,
                "end_time": 91.14090909090909,
                "pitch": 76,
                "velocity": 64,
                "duration": 0.10227272727273373,
                "tempo": 120.0
            },
            {
                "start_time": 91.1590909090909,
                "end_time": 91.26136363636363,
                "pitch": 83,
                "velocity": 64,
                "duration": 0.10227272727271952,
                "tempo": 120.0
            },
            {
                "start_time": 91.27727272727272,
                "end_time": 91.38181818181818,
                "pitch": 79,
                "velocity": 64,
                "duration": 0.10454545454545894,
                "tempo": 120.0
            },
            {
                "start_time": 91.39999999999999,
                "end_time": 91.5,
                "pitch": 84,
                "velocity": 64,
                "duration": 0.10000000000000853,
                "tempo": 120.0
            },
            {
                "start_time": 91.51818181818182,
                "end_time": 91.62045454545454,
                "pitch": 81,
                "velocity": 64,
                "duration": 0.10227272727271952,
                "tempo": 120.0
            },
            {
                "start_time": 91.65454545454546,
                "end_time": 91.75681818181818,
                "pitch": 78,
                "velocity": 64,
                "duration": 0.10227272727271952,
                "tempo": 120.0
            },
            {
                "start_time": 91.77499999999999,
                "end_time": 91.87727272727273,
                "pitch": 84,
                "velocity": 64,
                "duration": 0.10227272727273373,
                "tempo": 120.0
            },
            {
                "start_time": 91.89545454545454,
                "end_time": 91.99545454545454,
                "pitch": 81,
                "velocity": 64,
                "duration": 0.09999999999999432,
                "tempo": 120.0
            },
            {
                "start_time": 92.01136363636363,
                "end_time": 92.11136363636363,
                "pitch": 78,
                "velocity": 64,
                "duration": 0.10000000000000853,
                "tempo": 120.0
            },
            {
                "start_time": 92.12954545454545,
                "end_time": 92.22954545454544,
                "pitch": 84,
                "velocity": 64,
                "duration": 0.09999999999999432,
                "tempo": 120.0
            },
            {
                "start_time": 92.26363636363637,
                "end_time": 92.36363636363636,
                "pitch": 81,
                "velocity": 64,
                "duration": 0.09999999999999432,
                "tempo": 120.0
            },
            {
                "start_time": 92.38181818181818,
                "end_time": 92.48181818181818,
                "pitch": 84,
                "velocity": 64,
                "duration": 0.10000000000000853,
                "tempo": 120.0
            },
            {
                "start_time": 92.5,
                "end_time": 92.6,
                "pitch": 81,
                "velocity": 64,
                "duration": 0.09999999999999432,
                "tempo": 120.0
            },
            {
                "start_time": 92.61818181818181,
                "end_time": 92.71818181818182,
                "pitch": 78,
                "velocity": 64,
                "duration": 0.10000000000000853,
                "tempo": 120.0
            },
            {
                "start_time": 92.73409090909091,
                "end_time": 92.83636363636363,
                "pitch": 84,
                "velocity": 64,
                "duration": 0.10227272727271952,
                "tempo": 120.0
            },
            {
                "start_time": 92.87045454545454,
                "end_time": 92.97045454545454,
                "pitch": 81,
                "velocity": 64,
                "duration": 0.10000000000000853,
                "tempo": 120.0
            },
            {
                "start_time": 92.98636363636363,
                "end_time": 93.08863636363635,
                "pitch": 78,
                "velocity": 64,
                "duration": 0.10227272727271952,
                "tempo": 120.0
            },
            {
                "start_time": 93.10454545454544,
                "end_time": 93.20681818181818,
                "pitch": 84,
                "velocity": 64,
                "duration": 0.10227272727273373,
                "tempo": 120.0
            },
            {
                "start_time": 93.22272727272727,
                "end_time": 93.32499999999999,
                "pitch": 81,
                "velocity": 64,
                "duration": 0.10227272727271952,
                "tempo": 120.0
            },
            {
                "start_time": 93.35909090909091,
                "end_time": 93.4590909090909,
                "pitch": 83,
                "velocity": 64,
                "duration": 0.09999999999999432,
                "tempo": 120.0
            },
            {
                "start_time": 93.47727272727272,
                "end_time": 93.57954545454545,
                "pitch": 76,
                "velocity": 64,
                "duration": 0.10227272727273373,
                "tempo": 120.0
            },
            {
                "start_time": 93.59545454545454,
                "end_time": 93.69999999999999,
                "pitch": 72,
                "velocity": 64,
                "duration": 0.10454545454544473,
                "tempo": 120.0
            },
            {
                "start_time": 93.71590909090908,
                "end_time": 93.81818181818181,
                "pitch": 79,
                "velocity": 64,
                "duration": 0.10227272727273373,
                "tempo": 120.0
            },
            {
                "start_time": 93.83636363636363,
                "end_time": 93.9340909090909,
                "pitch": 76,
                "velocity": 64,
                "duration": 0.09772727272726911,
                "tempo": 120.0
            },
            {
                "start_time": 93.96818181818182,
                "end_time": 94.06590909090909,
                "pitch": 72,
                "velocity": 64,
                "duration": 0.09772727272726911,
                "tempo": 120.0
            },
            {
                "start_time": 94.08181818181818,
                "end_time": 94.18181818181817,
                "pitch": 79,
                "velocity": 64,
                "duration": 0.09999999999999432,
                "tempo": 120.0
            },
            {
                "start_time": 94.19772727272726,
                "end_time": 94.29545454545455,
                "pitch": 76,
                "velocity": 64,
                "duration": 0.09772727272728332,
                "tempo": 120.0
            },
            {
                "start_time": 94.31363636363636,
                "end_time": 94.41363636363636,
                "pitch": 79,
                "velocity": 64,
                "duration": 0.09999999999999432,
                "tempo": 120.0
            },
            {
                "start_time": 94.42954545454545,
                "end_time": 94.53181818181818,
                "pitch": 76,
                "velocity": 64,
                "duration": 0.10227272727273373,
                "tempo": 120.0
            },
            {
                "start_time": 94.56590909090909,
                "end_time": 94.66590909090908,
                "pitch": 72,
                "velocity": 64,
                "duration": 0.09999999999999432,
                "tempo": 120.0
            },
            {
                "start_time": 94.68181818181817,
                "end_time": 94.7840909090909,
                "pitch": 79,
                "velocity": 64,
                "duration": 0.10227272727273373,
                "tempo": 120.0
            },
            {
                "start_time": 94.8,
                "end_time": 94.89999999999999,
                "pitch": 76,
                "velocity": 64,
                "duration": 0.09999999999999432,
                "tempo": 120.0
            },
            {
                "start_time": 94.91818181818181,
                "end_time": 95.01818181818182,
                "pitch": 72,
                "velocity": 64,
                "duration": 0.10000000000000853,
                "tempo": 120.0
            },
            {
                "start_time": 95.05227272727272,
                "end_time": 95.14999999999999,
                "pitch": 79,
                "velocity": 64,
                "duration": 0.09772727272726911,
                "tempo": 120.0
            },
            {
                "start_time": 95.16818181818181,
                "end_time": 95.26818181818182,
                "pitch": 76,
                "velocity": 64,
                "duration": 0.10000000000000853,
                "tempo": 120.0
            },
            {
                "start_time": 95.2840909090909,
                "end_time": 95.38636363636363,
                "pitch": 81,
                "velocity": 64,
                "duration": 0.10227272727271952,
                "tempo": 120.0
            },
            {
                "start_time": 95.40454545454546,
                "end_time": 95.50681818181818,
                "pitch": 78,
                "velocity": 64,
                "duration": 0.10227272727271952,
                "tempo": 120.0
            },
            {
                "start_time": 95.52499999999999,
                "end_time": 95.625,
                "pitch": 74,
                "velocity": 64,
                "duration": 0.10000000000000853,
                "tempo": 120.0
            },
            {
                "start_time": 95.6590909090909,
                "end_time": 95.76363636363637,
                "pitch": 81,
                "velocity": 64,
                "duration": 0.10454545454545894,
                "tempo": 120.0
            },
            {
                "start_time": 95.78181818181818,
                "end_time": 95.87954545454545,
                "pitch": 78,
                "velocity": 64,
                "duration": 0.09772727272726911,
                "tempo": 120.0
            },
            {
                "start_time": 95.89772727272727,
                "end_time": 95.99772727272727,
                "pitch": 74,
                "velocity": 64,
                "duration": 0.10000000000000853,
                "tempo": 120.0
            },
            {
                "start_time": 96.01590909090909,
                "end_time": 96.11590909090908,
                "pitch": 81,
                "velocity": 64,
                "duration": 0.09999999999999432,
                "tempo": 120.0
            },
            {
                "start_time": 96.1340909090909,
                "end_time": 96.23409090909091,
                "pitch": 78,
                "velocity": 64,
                "duration": 0.10000000000000853,
                "tempo": 120.0
            },
            {
                "start_time": 96.26818181818182,
                "end_time": 96.36818181818181,
                "pitch": 81,
                "velocity": 64,
                "duration": 0.09999999999999432,
                "tempo": 120.0
            },
            {
                "start_time": 96.3840909090909,
                "end_time": 96.48409090909091,
                "pitch": 78,
                "velocity": 64,
                "duration": 0.10000000000000853,
                "tempo": 120.0
            },
            {
                "start_time": 96.50227272727273,
                "end_time": 96.60227272727272,
                "pitch": 74,
                "velocity": 64,
                "duration": 0.09999999999999432,
                "tempo": 120.0
            },
            {
                "start_time": 96.61818181818181,
                "end_time": 96.71818181818182,
                "pitch": 81,
                "velocity": 64,
                "duration": 0.10000000000000853,
                "tempo": 120.0
            },
            {
                "start_time": 96.73409090909091,
                "end_time": 96.8340909090909,
                "pitch": 78,
                "velocity": 64,
                "duration": 0.09999999999999432,
                "tempo": 120.0
            },
            {
                "start_time": 96.86590909090908,
                "end_time": 96.96590909090908,
                "pitch": 74,
                "velocity": 64,
                "duration": 0.09999999999999432,
                "tempo": 120.0
            },
            {
                "start_time": 96.98181818181818,
                "end_time": 97.07954545454545,
                "pitch": 81,
                "velocity": 64,
                "duration": 0.09772727272726911,
                "tempo": 120.0
            },
            {
                "start_time": 97.09545454545454,
                "end_time": 97.19545454545454,
                "pitch": 78,
                "velocity": 64,
                "duration": 0.09999999999999432,
                "tempo": 120.0
            },
            {
                "start_time": 97.21363636363635,
                "end_time": 97.31363636363636,
                "pitch": 64,
                "velocity": 64,
                "duration": 0.10000000000000853,
                "tempo": 120.0
            },
            {
                "start_time": 97.34772727272727,
                "end_time": 97.44999999999999,
                "pitch": 64,
                "velocity": 64,
                "duration": 0.10227272727271952,
                "tempo": 120.0
            },
            {
                "start_time": 97.46818181818182,
                "end_time": 97.57045454545454,
                "pitch": 64,
                "velocity": 64,
                "duration": 0.10227272727271952,
                "tempo": 120.0
            },
            {
                "start_time": 97.58636363636363,
                "end_time": 97.68863636363636,
                "pitch": 64,
                "velocity": 64,
                "duration": 0.10227272727273373,
                "tempo": 120.0
            },
            {
                "start_time": 97.70681818181818,
                "end_time": 97.72272727272727,
                "pitch": 67,
                "velocity": 64,
                "duration": 0.01590909090909065,
                "tempo": 120.0
            },
            {
                "start_time": 97.72272727272727,
                "end_time": 97.75681818181818,
                "pitch": 70,
                "velocity": 64,
                "duration": 0.03409090909090651,
                "tempo": 120.0
            },
            {
                "start_time": 97.75681818181818,
                "end_time": 97.77272727272727,
                "pitch": 73,
                "velocity": 64,
                "duration": 0.01590909090909065,
                "tempo": 120.0
            },
            {
                "start_time": 97.75681818181818,
                "end_time": 97.79090909090908,
                "pitch": 76,
                "velocity": 64,
                "duration": 0.03409090909090651,
                "tempo": 120.0
            },
            {
                "start_time": 97.77272727272727,
                "end_time": 97.79090909090908,
                "pitch": 76,
                "velocity": 64,
                "duration": 0.018181818181815856,
                "tempo": 120.0
            },
            {
                "start_time": 97.79090909090908,
                "end_time": 97.82272727272726,
                "pitch": 79,
                "velocity": 64,
                "duration": 0.0318181818181813,
                "tempo": 120.0
            },
            {
                "start_time": 97.82272727272726,
                "end_time": 97.92272727272727,
                "pitch": 82,
                "velocity": 64,
                "duration": 0.10000000000000853,
                "tempo": 120.0
            },
            {
                "start_time": 97.95681818181818,
                "end_time": 98.02272727272727,
                "pitch": 84,
                "velocity": 64,
                "duration": 0.06590909090908781,
                "tempo": 120.0
            },
            {
                "start_time": 98.02272727272727,
                "end_time": 98.05681818181817,
                "pitch": 86,
                "velocity": 64,
                "duration": 0.03409090909090651,
                "tempo": 120.0
            },
            {
                "start_time": 98.07499999999999,
                "end_time": 98.17272727272727,
                "pitch": 87,
                "velocity": 64,
                "duration": 0.09772727272728332,
                "tempo": 120.0
            },
            {
                "start_time": 98.19090909090909,
                "end_time": 98.29090909090908,
                "pitch": 64,
                "velocity": 64,
                "duration": 0.09999999999999432,
                "tempo": 120.0
            },
            {
                "start_time": 98.3090909090909,
                "end_time": 98.4090909090909,
                "pitch": 64,
                "velocity": 64,
                "duration": 0.10000000000000853,
                "tempo": 120.0
            },
            {
                "start_time": 98.42727272727272,
                "end_time": 98.52727272727272,
                "pitch": 64,
                "velocity": 64,
                "duration": 0.09999999999999432,
                "tempo": 120.0
            },
            {
                "start_time": 98.56136363636364,
                "end_time": 98.66136363636363,
                "pitch": 64,
                "velocity": 64,
                "duration": 0.09999999999999432,
                "tempo": 120.0
            },
            {
                "start_time": 98.67954545454545,
                "end_time": 98.69545454545454,
                "pitch": 67,
                "velocity": 64,
                "duration": 0.01590909090909065,
                "tempo": 120.0
            },
            {
                "start_time": 98.69545454545454,
                "end_time": 98.71363636363635,
                "pitch": 70,
                "velocity": 64,
                "duration": 0.018181818181815856,
                "tempo": 120.0
            },
            {
                "start_time": 98.71363636363635,
                "end_time": 98.72954545454544,
                "pitch": 73,
                "velocity": 64,
                "duration": 0.01590909090909065,
                "tempo": 120.0
            },
            {
                "start_time": 98.71363636363635,
                "end_time": 98.76363636363637,
                "pitch": 76,
                "velocity": 64,
                "duration": 0.05000000000001137,
                "tempo": 120.0
            },
            {
                "start_time": 98.72954545454544,
                "end_time": 98.76363636363637,
                "pitch": 76,
                "velocity": 64,
                "duration": 0.03409090909092072,
                "tempo": 120.0
            },
            {
                "start_time": 98.76363636363637,
                "end_time": 98.79772727272727,
                "pitch": 79,
                "velocity": 64,
                "duration": 0.03409090909090651,
                "tempo": 120.0
            },
            {
                "start_time": 98.79772727272727,
                "end_time": 98.89999999999999,
                "pitch": 82,
                "velocity": 64,
                "duration": 0.10227272727271952,
                "tempo": 120.0
            },
            {
                "start_time": 98.91818181818181,
                "end_time": 99.00227272727273,
                "pitch": 84,
                "velocity": 64,
                "duration": 0.08409090909091788,
                "tempo": 120.0
            },
            {
                "start_time": 99.00227272727273,
                "end_time": 99.02045454545454,
                "pitch": 86,
                "velocity": 64,
                "duration": 0.018181818181815856,
                "tempo": 120.0
            },
            {
                "start_time": 99.03636363636363,
                "end_time": 99.14090909090909,
                "pitch": 87,
                "velocity": 64,
                "duration": 0.10454545454545894,
                "tempo": 120.0
            },
            {
                "start_time": 99.175,
                "end_time": 99.27499999999999,
                "pitch": 64,
                "velocity": 64,
                "duration": 0.09999999999999432,
                "tempo": 120.0
            },
            {
                "start_time": 99.29090909090908,
                "end_time": 99.39090909090909,
                "pitch": 64,
                "velocity": 64,
                "duration": 0.10000000000000853,
                "tempo": 120.0
            },
            {
                "start_time": 99.40681818181818,
                "end_time": 99.50681818181818,
                "pitch": 64,
                "velocity": 64,
                "duration": 0.09999999999999432,
                "tempo": 120.0
            },
            {
                "start_time": 99.52499999999999,
                "end_time": 99.625,
                "pitch": 64,
                "velocity": 64,
                "duration": 0.10000000000000853,
                "tempo": 120.0
            },
            {
                "start_time": 99.6590909090909,
                "end_time": 99.675,
                "pitch": 67,
                "velocity": 64,
                "duration": 0.01590909090909065,
                "tempo": 120.0
            },
            {
                "start_time": 99.675,
                "end_time": 99.69318181818181,
                "pitch": 70,
                "velocity": 64,
                "duration": 0.018181818181815856,
                "tempo": 120.0
            },
            {
                "start_time": 99.69318181818181,
                "end_time": 99.7090909090909,
                "pitch": 73,
                "velocity": 64,
                "duration": 0.01590909090909065,
                "tempo": 120.0
            },
            {
                "start_time": 99.69318181818181,
                "end_time": 99.72727272727272,
                "pitch": 76,
                "velocity": 64,
                "duration": 0.03409090909090651,
                "tempo": 120.0
            },
            {
                "start_time": 99.7090909090909,
                "end_time": 99.72727272727272,
                "pitch": 76,
                "velocity": 64,
                "duration": 0.018181818181815856,
                "tempo": 120.0
            },
            {
                "start_time": 99.72727272727272,
                "end_time": 99.77727272727272,
                "pitch": 79,
                "velocity": 64,
                "duration": 0.04999999999999716,
                "tempo": 120.0
            },
            {
                "start_time": 99.77727272727272,
                "end_time": 99.87954545454545,
                "pitch": 82,
                "velocity": 64,
                "duration": 0.10227272727273373,
                "tempo": 120.0
            },
            {
                "start_time": 99.89772727272727,
                "end_time": 99.98181818181817,
                "pitch": 84,
                "velocity": 64,
                "duration": 0.08409090909090366,
                "tempo": 120.0
            },
            {
                "start_time": 99.98181818181817,
                "end_time": 100.0,
                "pitch": 86,
                "velocity": 64,
                "duration": 0.018181818181830067,
                "tempo": 120.0
            },
            {
                "start_time": 100.01818181818182,
                "end_time": 100.12045454545454,
                "pitch": 87,
                "velocity": 64,
                "duration": 0.10227272727271952,
                "tempo": 120.0
            },
            {
                "start_time": 100.13636363636363,
                "end_time": 100.23181818181817,
                "pitch": 64,
                "velocity": 64,
                "duration": 0.0954545454545439,
                "tempo": 120.0
            },
            {
                "start_time": 100.26590909090909,
                "end_time": 100.36136363636363,
                "pitch": 64,
                "velocity": 64,
                "duration": 0.0954545454545439,
                "tempo": 120.0
            },
            {
                "start_time": 100.37727272727273,
                "end_time": 100.47272727272727,
                "pitch": 64,
                "velocity": 64,
                "duration": 0.0954545454545439,
                "tempo": 120.0
            },
            {
                "start_time": 100.48863636363636,
                "end_time": 100.58636363636363,
                "pitch": 64,
                "velocity": 64,
                "duration": 0.09772727272726911,
                "tempo": 120.0
            },
            {
                "start_time": 100.60227272727272,
                "end_time": 100.70454545454545,
                "pitch": 79,
                "velocity": 64,
                "duration": 0.10227272727273373,
                "tempo": 120.0
            },
            {
                "start_time": 100.72045454545454,
                "end_time": 100.82499999999999,
                "pitch": 78,
                "velocity": 64,
                "duration": 0.10454545454544473,
                "tempo": 120.0
            },
            {
                "start_time": 100.85909090909091,
                "end_time": 100.96136363636363,
                "pitch": 76,
                "velocity": 64,
                "duration": 0.10227272727271952,
                "tempo": 120.0
            },
            {
                "start_time": 100.97727272727272,
                "end_time": 101.08181818181818,
                "pitch": 74,
                "velocity": 64,
                "duration": 0.10454545454545894,
                "tempo": 120.0
            },
            {
                "start_time": 101.1,
                "end_time": 101.19999999999999,
                "pitch": 83,
                "velocity": 64,
                "duration": 0.09999999999999432,
                "tempo": 120.0
            },
            {
                "start_time": 101.21818181818182,
                "end_time": 101.32045454545454,
                "pitch": 76,
                "velocity": 64,
                "duration": 0.10227272727271952,
                "tempo": 120.0
            },
            {
                "start_time": 101.33636363636363,
                "end_time": 101.43863636363636,
                "pitch": 72,
                "velocity": 64,
                "duration": 0.10227272727273373,
                "tempo": 120.0
            },
            {
                "start_time": 101.47272727272727,
                "end_time": 101.57499999999999,
                "pitch": 79,
                "velocity": 64,
                "duration": 0.10227272727271952,
                "tempo": 120.0
            },
            {
                "start_time": 101.59318181818182,
                "end_time": 101.69318181818181,
                "pitch": 76,
                "velocity": 64,
                "duration": 0.09999999999999432,
                "tempo": 120.0
            },
            {
                "start_time": 101.71136363636363,
                "end_time": 101.8090909090909,
                "pitch": 72,
                "velocity": 64,
                "duration": 0.09772727272726911,
                "tempo": 120.0
            },
            {
                "start_time": 101.82727272727273,
                "end_time": 101.92727272727272,
                "pitch": 79,
                "velocity": 64,
                "duration": 0.09999999999999432,
                "tempo": 120.0
            },
            {
                "start_time": 101.96136363636363,
                "end_time": 102.06136363636364,
                "pitch": 76,
                "velocity": 64,
                "duration": 0.10000000000000853,
                "tempo": 120.0
            },
            {
                "start_time": 102.07727272727273,
                "end_time": 102.17727272727272,
                "pitch": 79,
                "velocity": 64,
                "duration": 0.09999999999999432,
                "tempo": 120.0
            },
            {
                "start_time": 102.19545454545454,
                "end_time": 102.29545454545455,
                "pitch": 76,
                "velocity": 64,
                "duration": 0.10000000000000853,
                "tempo": 120.0
            },
            {
                "start_time": 102.31363636363636,
                "end_time": 102.41363636363636,
                "pitch": 72,
                "velocity": 64,
                "duration": 0.09999999999999432,
                "tempo": 120.0
            },
            {
                "start_time": 102.42954545454545,
                "end_time": 102.53181818181818,
                "pitch": 79,
                "velocity": 64,
                "duration": 0.10227272727273373,
                "tempo": 120.0
            },
            {
                "start_time": 102.56590909090909,
                "end_time": 102.66590909090908,
                "pitch": 76,
                "velocity": 64,
                "duration": 0.09999999999999432,
                "tempo": 120.0
            },
            {
                "start_time": 102.68181818181817,
                "end_time": 102.7840909090909,
                "pitch": 72,
                "velocity": 64,
                "duration": 0.10227272727273373,
                "tempo": 120.0
            },
            {
                "start_time": 102.80227272727272,
                "end_time": 102.90227272727272,
                "pitch": 79,
                "velocity": 64,
                "duration": 0.09999999999999432,
                "tempo": 120.0
            },
            {
                "start_time": 102.91818181818181,
                "end_time": 103.01818181818182,
                "pitch": 76,
                "velocity": 64,
                "duration": 0.10000000000000853,
                "tempo": 120.0
            },
            {
                "start_time": 103.03636363636363,
                "end_time": 103.1340909090909,
                "pitch": 81,
                "velocity": 64,
                "duration": 0.09772727272726911,
                "tempo": 120.0
            },
            {
                "start_time": 103.16818181818181,
                "end_time": 103.26590909090909,
                "pitch": 78,
                "velocity": 64,
                "duration": 0.09772727272728332,
                "tempo": 120.0
            },
            {
                "start_time": 103.2840909090909,
                "end_time": 103.38181818181818,
                "pitch": 74,
                "velocity": 64,
                "duration": 0.09772727272726911,
                "tempo": 120.0
            },
            {
                "start_time": 103.39772727272727,
                "end_time": 103.49545454545454,
                "pitch": 81,
                "velocity": 64,
                "duration": 0.09772727272726911,
                "tempo": 120.0
            },
            {
                "start_time": 103.51363636363637,
                "end_time": 103.61363636363636,
                "pitch": 78,
                "velocity": 64,
                "duration": 0.09999999999999432,
                "tempo": 120.0
            },
            {
                "start_time": 103.64999999999999,
                "end_time": 103.75227272727273,
                "pitch": 74,
                "velocity": 64,
                "duration": 0.10227272727273373,
                "tempo": 120.0
            },
            {
                "start_time": 103.76818181818182,
                "end_time": 103.87045454545454,
                "pitch": 81,
                "velocity": 64,
                "duration": 0.10227272727271952,
                "tempo": 120.0
            },
            {
                "start_time": 103.88863636363637,
                "end_time": 103.99090909090908,
                "pitch": 78,
                "velocity": 64,
                "duration": 0.10227272727271952,
                "tempo": 120.0
            },
            {
                "start_time": 104.0090909090909,
                "end_time": 104.10909090909091,
                "pitch": 81,
                "velocity": 64,
                "duration": 0.10000000000000853,
                "tempo": 120.0
            },
            {
                "start_time": 104.125,
                "end_time": 104.22727272727272,
                "pitch": 78,
                "velocity": 64,
                "duration": 0.10227272727271952,
                "tempo": 120.0
            },
            {
                "start_time": 104.26136363636363,
                "end_time": 104.36136363636363,
                "pitch": 74,
                "velocity": 64,
                "duration": 0.10000000000000853,
                "tempo": 120.0
            },
            {
                "start_time": 104.37727272727273,
                "end_time": 104.47954545454544,
                "pitch": 81,
                "velocity": 64,
                "duration": 0.10227272727271952,
                "tempo": 120.0
            },
            {
                "start_time": 104.49545454545454,
                "end_time": 104.59545454545454,
                "pitch": 78,
                "velocity": 64,
                "duration": 0.10000000000000853,
                "tempo": 120.0
            },
            {
                "start_time": 104.61363636363636,
                "end_time": 104.71363636363635,
                "pitch": 74,
                "velocity": 64,
                "duration": 0.09999999999999432,
                "tempo": 120.0
            },
            {
                "start_time": 104.73181818181817,
                "end_time": 104.83181818181818,
                "pitch": 81,
                "velocity": 64,
                "duration": 0.10000000000000853,
                "tempo": 120.0
            },
            {
                "start_time": 104.86590909090908,
                "end_time": 104.96818181818182,
                "pitch": 78,
                "velocity": 64,
                "duration": 0.10227272727273373,
                "tempo": 120.0
            },
            {
                "start_time": 104.98409090909091,
                "end_time": 105.08636363636363,
                "pitch": 83,
                "velocity": 64,
                "duration": 0.10227272727271952,
                "tempo": 120.0
            },
            {
                "start_time": 105.10227272727272,
                "end_time": 105.20454545454545,
                "pitch": 79,
                "velocity": 64,
                "duration": 0.10227272727273373,
                "tempo": 120.0
            },
            {
                "start_time": 105.22272727272727,
                "end_time": 105.32499999999999,
                "pitch": 76,
                "velocity": 64,
                "duration": 0.10227272727271952,
                "tempo": 120.0
            },
            {
                "start_time": 105.34318181818182,
                "end_time": 105.44545454545454,
                "pitch": 83,
                "velocity": 64,
                "duration": 0.10227272727271952,
                "tempo": 120.0
            },
            {
                "start_time": 105.47954545454544,
                "end_time": 105.57954545454545,
                "pitch": 79,
                "velocity": 64,
                "duration": 0.10000000000000853,
                "tempo": 120.0
            },
            {
                "start_time": 105.59772727272727,
                "end_time": 105.69772727272726,
                "pitch": 76,
                "velocity": 64,
                "duration": 0.09999999999999432,
                "tempo": 120.0
            },
            {
                "start_time": 105.71590909090908,
                "end_time": 105.81590909090909,
                "pitch": 83,
                "velocity": 64,
                "duration": 0.10000000000000853,
                "tempo": 120.0
            },
            {
                "start_time": 105.83181818181818,
                "end_time": 105.9340909090909,
                "pitch": 79,
                "velocity": 64,
                "duration": 0.10227272727271952,
                "tempo": 120.0
            },
            {
                "start_time": 105.96818181818182,
                "end_time": 106.06818181818181,
                "pitch": 83,
                "velocity": 64,
                "duration": 0.09999999999999432,
                "tempo": 120.0
            },
            {
                "start_time": 106.0840909090909,
                "end_time": 106.18636363636364,
                "pitch": 79,
                "velocity": 64,
                "duration": 0.10227272727273373,
                "tempo": 120.0
            },
            {
                "start_time": 106.20454545454545,
                "end_time": 106.30454545454545,
                "pitch": 76,
                "velocity": 64,
                "duration": 0.09999999999999432,
                "tempo": 120.0
            },
            {
                "start_time": 106.32045454545454,
                "end_time": 106.42045454545455,
                "pitch": 83,
                "velocity": 64,
                "duration": 0.10000000000000853,
                "tempo": 120.0
            },
            {
                "start_time": 106.43863636363636,
                "end_time": 106.53636363636363,
                "pitch": 79,
                "velocity": 64,
                "duration": 0.09772727272726911,
                "tempo": 120.0
            },
            {
                "start_time": 106.57045454545454,
                "end_time": 106.66818181818181,
                "pitch": 76,
                "velocity": 64,
                "duration": 0.09772727272726911,
                "tempo": 120.0
            },
            {
                "start_time": 106.68636363636364,
                "end_time": 106.78181818181818,
                "pitch": 83,
                "velocity": 64,
                "duration": 0.0954545454545439,
                "tempo": 120.0
            },
            {
                "start_time": 106.8,
                "end_time": 106.89772727272727,
                "pitch": 79,
                "velocity": 64,
                "duration": 0.09772727272726911,
                "tempo": 120.0
            },
            {
                "start_time": 106.91590909090908,
                "end_time": 107.01590909090909,
                "pitch": 84,
                "velocity": 64,
                "duration": 0.10000000000000853,
                "tempo": 120.0
            },
            {
                "start_time": 107.0340909090909,
                "end_time": 107.13636363636363,
                "pitch": 81,
                "velocity": 64,
                "duration": 0.10227272727271952,
                "tempo": 120.0
            },
            {
                "start_time": 107.17045454545455,
                "end_time": 107.27272727272727,
                "pitch": 78,
                "velocity": 64,
                "duration": 0.10227272727271952,
                "tempo": 120.0
            },
            {
                "start_time": 107.29090909090908,
                "end_time": 107.39318181818182,
                "pitch": 84,
                "velocity": 64,
                "duration": 0.10227272727273373,
                "tempo": 120.0
            },
            {
                "start_time": 107.41136363636363,
                "end_time": 107.51136363636363,
                "pitch": 81,
                "velocity": 64,
                "duration": 0.09999999999999432,
                "tempo": 120.0
            },
            {
                "start_time": 107.52727272727272,
                "end_time": 107.62954545454545,
                "pitch": 78,
                "velocity": 64,
                "duration": 0.10227272727273373,
                "tempo": 120.0
            },
            {
                "start_time": 107.64545454545454,
                "end_time": 107.74545454545454,
                "pitch": 84,
                "velocity": 64,
                "duration": 0.09999999999999432,
                "tempo": 120.0
            },
            {
                "start_time": 107.77954545454546,
                "end_time": 107.88181818181818,
                "pitch": 81,
                "velocity": 64,
                "duration": 0.10227272727271952,
                "tempo": 120.0
            },
            {
                "start_time": 107.89772727272727,
                "end_time": 107.99772727272726,
                "pitch": 84,
                "velocity": 64,
                "duration": 0.09999999999999432,
                "tempo": 120.0
            },
            {
                "start_time": 108.01590909090909,
                "end_time": 108.11363636363636,
                "pitch": 81,
                "velocity": 64,
                "duration": 0.09772727272726911,
                "tempo": 120.0
            },
            {
                "start_time": 108.13181818181818,
                "end_time": 108.23181818181817,
                "pitch": 78,
                "velocity": 64,
                "duration": 0.09999999999999432,
                "tempo": 120.0
            },
            {
                "start_time": 108.26590909090909,
                "end_time": 108.36590909090908,
                "pitch": 84,
                "velocity": 64,
                "duration": 0.09999999999999432,
                "tempo": 120.0
            },
            {
                "start_time": 108.38181818181818,
                "end_time": 108.48409090909091,
                "pitch": 81,
                "velocity": 64,
                "duration": 0.10227272727273373,
                "tempo": 120.0
            },
            {
                "start_time": 108.50227272727273,
                "end_time": 108.60454545454544,
                "pitch": 78,
                "velocity": 64,
                "duration": 0.10227272727271952,
                "tempo": 120.0
            },
            {
                "start_time": 108.62045454545454,
                "end_time": 108.72272727272727,
                "pitch": 84,
                "velocity": 64,
                "duration": 0.10227272727273373,
                "tempo": 120.0
            },
            {
                "start_time": 108.74090909090908,
                "end_time": 108.84318181818182,
                "pitch": 81,
                "velocity": 64,
                "duration": 0.10227272727273373,
                "tempo": 120.0
            },
            {
                "start_time": 108.87954545454545,
                "end_time": 108.97727272727272,
                "pitch": 83,
                "velocity": 64,
                "duration": 0.09772727272726911,
                "tempo": 120.0
            },
            {
                "start_time": 108.99545454545454,
                "end_time": 109.09545454545454,
                "pitch": 76,
                "velocity": 64,
                "duration": 0.10000000000000853,
                "tempo": 120.0
            },
            {
                "start_time": 109.11363636363636,
                "end_time": 109.21363636363635,
                "pitch": 72,
                "velocity": 64,
                "duration": 0.09999999999999432,
                "tempo": 120.0
            },
            {
                "start_time": 109.23181818181817,
                "end_time": 109.33181818181818,
                "pitch": 79,
                "velocity": 64,
                "duration": 0.10000000000000853,
                "tempo": 120.0
            },
            {
                "start_time": 109.34772727272727,
                "end_time": 109.44772727272726,
                "pitch": 76,
                "velocity": 64,
                "duration": 0.09999999999999432,
                "tempo": 120.0
            },
            {
                "start_time": 109.47954545454544,
                "end_time": 109.57727272727273,
                "pitch": 72,
                "velocity": 64,
                "duration": 0.09772727272728332,
                "tempo": 120.0
            },
            {
                "start_time": 109.59545454545454,
                "end_time": 109.69318181818181,
                "pitch": 79,
                "velocity": 64,
                "duration": 0.09772727272726911,
                "tempo": 120.0
            },
            {
                "start_time": 109.7090909090909,
                "end_time": 109.8090909090909,
                "pitch": 76,
                "velocity": 64,
                "duration": 0.09999999999999432,
                "tempo": 120.0
            },
            {
                "start_time": 109.82499999999999,
                "end_time": 109.925,
                "pitch": 79,
                "velocity": 64,
                "duration": 0.10000000000000853,
                "tempo": 120.0
            },
            {
                "start_time": 109.94090909090909,
                "end_time": 110.04318181818181,
                "pitch": 76,
                "velocity": 64,
                "duration": 0.10227272727271952,
                "tempo": 120.0
            },
            {
                "start_time": 110.07727272727273,
                "end_time": 110.175,
                "pitch": 72,
                "velocity": 64,
                "duration": 0.09772727272726911,
                "tempo": 120.0
            },
            {
                "start_time": 110.19090909090909,
                "end_time": 110.29318181818181,
                "pitch": 79,
                "velocity": 64,
                "duration": 0.10227272727271952,
                "tempo": 120.0
            },
            {
                "start_time": 110.3090909090909,
                "end_time": 110.41136363636363,
                "pitch": 76,
                "velocity": 64,
                "duration": 0.10227272727273373,
                "tempo": 120.0
            },
            {
                "start_time": 110.42727272727272,
                "end_time": 110.53181818181818,
                "pitch": 72,
                "velocity": 64,
                "duration": 0.10454545454545894,
                "tempo": 120.0
            },
            {
                "start_time": 110.56590909090909,
                "end_time": 110.66818181818181,
                "pitch": 79,
                "velocity": 64,
                "duration": 0.10227272727271952,
                "tempo": 120.0
            },
            {
                "start_time": 110.6840909090909,
                "end_time": 110.78636363636363,
                "pitch": 76,
                "velocity": 64,
                "duration": 0.10227272727273373,
                "tempo": 120.0
            },
            {
                "start_time": 110.80454545454545,
                "end_time": 110.90454545454546,
                "pitch": 81,
                "velocity": 64,
                "duration": 0.10000000000000853,
                "tempo": 120.0
            },
            {
                "start_time": 110.92045454545455,
                "end_time": 111.02272727272727,
                "pitch": 78,
                "velocity": 64,
                "duration": 0.10227272727271952,
                "tempo": 120.0
            },
            {
                "start_time": 111.03863636363636,
                "end_time": 111.13863636363635,
                "pitch": 74,
                "velocity": 64,
                "duration": 0.09999999999999432,
                "tempo": 120.0
            },
            {
                "start_time": 111.17272727272727,
                "end_time": 111.27272727272727,
                "pitch": 81,
                "velocity": 64,
                "duration": 0.09999999999999432,
                "tempo": 120.0
            },
            {
                "start_time": 111.28863636363636,
                "end_time": 111.39090909090909,
                "pitch": 78,
                "velocity": 64,
                "duration": 0.10227272727273373,
                "tempo": 120.0
            },
            {
                "start_time": 111.40681818181818,
                "end_time": 111.51136363636363,
                "pitch": 74,
                "velocity": 64,
                "duration": 0.10454545454544473,
                "tempo": 120.0
            },
            {
                "start_time": 111.52727272727272,
                "end_time": 111.62954545454545,
                "pitch": 81,
                "velocity": 64,
                "duration": 0.10227272727273373,
                "tempo": 120.0
            },
            {
                "start_time": 111.64772727272727,
                "end_time": 111.75,
                "pitch": 78,
                "velocity": 64,
                "duration": 0.10227272727273373,
                "tempo": 120.0
            },
            {
                "start_time": 111.7840909090909,
                "end_time": 111.8840909090909,
                "pitch": 81,
                "velocity": 64,
                "duration": 0.09999999999999432,
                "tempo": 120.0
            },
            {
                "start_time": 111.90227272727272,
                "end_time": 112.00227272727273,
                "pitch": 78,
                "velocity": 64,
                "duration": 0.10000000000000853,
                "tempo": 120.0
            },
            {
                "start_time": 112.02045454545454,
                "end_time": 112.12045454545454,
                "pitch": 74,
                "velocity": 64,
                "duration": 0.09999999999999432,
                "tempo": 120.0
            },
            {
                "start_time": 112.13636363636363,
                "end_time": 112.23863636363636,
                "pitch": 81,
                "velocity": 64,
                "duration": 0.10227272727273373,
                "tempo": 120.0
            },
            {
                "start_time": 112.27272727272727,
                "end_time": 112.37272727272726,
                "pitch": 78,
                "velocity": 64,
                "duration": 0.09999999999999432,
                "tempo": 120.0
            },
            {
                "start_time": 112.38863636363635,
                "end_time": 112.48863636363636,
                "pitch": 74,
                "velocity": 64,
                "duration": 0.10000000000000853,
                "tempo": 120.0
            },
            {
                "start_time": 112.50681818181818,
                "end_time": 112.60454545454544,
                "pitch": 81,
                "velocity": 64,
                "duration": 0.09772727272726911,
                "tempo": 120.0
            },
            {
                "start_time": 112.62272727272726,
                "end_time": 112.72272727272727,
                "pitch": 78,
                "velocity": 64,
                "duration": 0.10000000000000853,
                "tempo": 120.0
            },
            {
                "start_time": 112.74090909090908,
                "end_time": 112.83863636363635,
                "pitch": 78,
                "velocity": 64,
                "duration": 0.09772727272726911,
                "tempo": 120.0
            },
            {
                "start_time": 112.87045454545454,
                "end_time": 112.96818181818182,
                "pitch": 75,
                "velocity": 64,
                "duration": 0.09772727272728332,
                "tempo": 120.0
            },
            {
                "start_time": 112.98636363636363,
                "end_time": 113.0840909090909,
                "pitch": 71,
                "velocity": 64,
                "duration": 0.09772727272726911,
                "tempo": 120.0
            },
            {
                "start_time": 113.1,
                "end_time": 113.19999999999999,
                "pitch": 78,
                "velocity": 64,
                "duration": 0.09999999999999432,
                "tempo": 120.0
            },
            {
                "start_time": 113.21590909090908,
                "end_time": 113.31590909090909,
                "pitch": 75,
                "velocity": 64,
                "duration": 0.10000000000000853,
                "tempo": 120.0
            },
            {
                "start_time": 113.3340909090909,
                "end_time": 113.4340909090909,
                "pitch": 71,
                "velocity": 64,
                "duration": 0.09999999999999432,
                "tempo": 120.0
            },
            {
                "start_time": 113.46818181818182,
                "end_time": 113.56818181818181,
                "pitch": 78,
                "velocity": 64,
                "duration": 0.09999999999999432,
                "tempo": 120.0
            },
            {
                "start_time": 113.58636363636363,
                "end_time": 113.68636363636364,
                "pitch": 75,
                "velocity": 64,
                "duration": 0.10000000000000853,
                "tempo": 120.0
            },
            {
                "start_time": 113.70454545454545,
                "end_time": 113.80681818181817,
                "pitch": 78,
                "velocity": 64,
                "duration": 0.10227272727271952,
                "tempo": 120.0
            },
            {
                "start_time": 113.82272727272726,
                "end_time": 113.925,
                "pitch": 75,
                "velocity": 64,
                "duration": 0.10227272727273373,
                "tempo": 120.0
            },
            {
                "start_time": 113.94318181818181,
                "end_time": 114.04545454545455,
                "pitch": 71,
                "velocity": 64,
                "duration": 0.10227272727273373,
                "tempo": 120.0
            },
            {
                "start_time": 114.07954545454545,
                "end_time": 114.18181818181817,
                "pitch": 78,
                "velocity": 64,
                "duration": 0.10227272727271952,
                "tempo": 120.0
            },
            {
                "start_time": 114.19999999999999,
                "end_time": 114.3,
                "pitch": 75,
                "velocity": 64,
                "duration": 0.10000000000000853,
                "tempo": 120.0
            },
            {
                "start_time": 114.31590909090909,
                "end_time": 114.41818181818181,
                "pitch": 71,
                "velocity": 64,
                "duration": 0.10227272727271952,
                "tempo": 120.0
            },
            {
                "start_time": 114.4340909090909,
                "end_time": 114.53636363636363,
                "pitch": 78,
                "velocity": 64,
                "duration": 0.10227272727273373,
                "tempo": 120.0
            },
            {
                "start_time": 114.56818181818181,
                "end_time": 114.67045454545455,
                "pitch": 75,
                "velocity": 64,
                "duration": 0.10227272727273373,
                "tempo": 120.0
            },
            {
                "start_time": 114.68863636363636,
                "end_time": 114.78863636363636,
                "pitch": 75,
                "velocity": 64,
                "duration": 0.09999999999999432,
                "tempo": 120.0
            },
            {
                "start_time": 114.80681818181817,
                "end_time": 114.9090909090909,
                "pitch": 71,
                "velocity": 64,
                "duration": 0.10227272727273373,
                "tempo": 120.0
            },
            {
                "start_time": 114.92727272727272,
                "end_time": 115.02954545454544,
                "pitch": 78,
                "velocity": 64,
                "duration": 0.10227272727271952,
                "tempo": 120.0
            },
            {
                "start_time": 115.04545454545455,
                "end_time": 115.14772727272727,
                "pitch": 71,
                "velocity": 64,
                "duration": 0.10227272727271952,
                "tempo": 120.0
            },
            {
                "start_time": 115.1840909090909,
                "end_time": 115.2840909090909,
                "pitch": 81,
                "velocity": 64,
                "duration": 0.10000000000000853,
                "tempo": 120.0
            },
            {
                "start_time": 115.3,
                "end_time": 115.40227272727272,
                "pitch": 75,
                "velocity": 64,
                "duration": 0.10227272727271952,
                "tempo": 120.0
            },
            {
                "start_time": 115.41818181818181,
                "end_time": 115.51818181818182,
                "pitch": 82,
                "velocity": 64,
                "duration": 0.10000000000000853,
                "tempo": 120.0
            },
            {
                "start_time": 115.53636363636363,
                "end_time": 115.63636363636363,
                "pitch": 75,
                "velocity": 64,
                "duration": 0.09999999999999432,
                "tempo": 120.0
            },
            {
                "start_time": 115.65454545454544,
                "end_time": 115.8840909090909,
                "pitch": 83,
                "velocity": 64,
                "duration": 0.22954545454545894,
                "tempo": 120.0
            }
        ],
        "Acoustic Bass": [
            {
                "start_time": 4.227272727272727,
                "end_time": 4.452272727272727,
                "pitch": 52,
                "velocity": 101,
                "duration": 0.22500000000000053,
                "tempo": 120.0
            },
            {
                "start_time": 4.470454545454546,
                "end_time": 4.713636363636364,
                "pitch": 35,
                "velocity": 101,
                "duration": 0.24318181818181817,
                "tempo": 120.0
            },
            {
                "start_time": 4.7295454545454545,
                "end_time": 4.834090909090909,
                "pitch": 38,
                "velocity": 101,
                "duration": 0.1045454545454545,
                "tempo": 120.0
            },
            {
                "start_time": 4.852272727272727,
                "end_time": 5.075,
                "pitch": 33,
                "velocity": 101,
                "duration": 0.22272727272727355,
                "tempo": 120.0
            },
            {
                "start_time": 5.1090909090909085,
                "end_time": 5.211363636363636,
                "pitch": 35,
                "velocity": 101,
                "duration": 0.10227272727272751,
                "tempo": 120.0
            },
            {
                "start_time": 5.227272727272727,
                "end_time": 5.445454545454545,
                "pitch": 27,
                "velocity": 101,
                "duration": 0.2181818181818187,
                "tempo": 120.0
            },
            {
                "start_time": 5.463636363636363,
                "end_time": 5.5613636363636365,
                "pitch": 33,
                "velocity": 101,
                "duration": 0.09772727272727355,
                "tempo": 120.0
            },
            {
                "start_time": 5.577272727272727,
                "end_time": 5.806818181818182,
                "pitch": 52,
                "velocity": 101,
                "duration": 0.2295454545454545,
                "tempo": 120.0
            },
            {
                "start_time": 5.824999999999999,
                "end_time": 6.045454545454545,
                "pitch": 50,
                "velocity": 101,
                "duration": 0.22045454545454568,
                "tempo": 120.0
            },
            {
                "start_time": 6.0636363636363635,
                "end_time": 6.165909090909091,
                "pitch": 35,
                "velocity": 101,
                "duration": 0.10227272727272751,
                "tempo": 120.0
            },
            {
                "start_time": 6.186363636363636,
                "end_time": 6.422727272727273,
                "pitch": 52,
                "velocity": 101,
                "duration": 0.23636363636363722,
                "tempo": 120.0
            },
            {
                "start_time": 6.4409090909090905,
                "end_time": 6.661363636363636,
                "pitch": 35,
                "velocity": 101,
                "duration": 0.22045454545454568,
                "tempo": 120.0
            },
            {
                "start_time": 6.677272727272727,
                "end_time": 6.781818181818181,
                "pitch": 38,
                "velocity": 101,
                "duration": 0.1045454545454545,
                "tempo": 120.0
            },
            {
                "start_time": 6.797727272727273,
                "end_time": 7.027272727272727,
                "pitch": 33,
                "velocity": 101,
                "duration": 0.2295454545454545,
                "tempo": 120.0
            },
            {
                "start_time": 7.045454545454545,
                "end_time": 7.143181818181818,
                "pitch": 35,
                "velocity": 101,
                "duration": 0.09772727272727266,
                "tempo": 120.0
            },
            {
                "start_time": 7.161363636363636,
                "end_time": 7.372727272727272,
                "pitch": 27,
                "velocity": 101,
                "duration": 0.21136363636363598,
                "tempo": 120.0
            },
            {
                "start_time": 7.406818181818181,
                "end_time": 7.504545454545454,
                "pitch": 33,
                "velocity": 101,
                "duration": 0.09772727272727266,
                "tempo": 120.0
            },
            {
                "start_time": 7.5227272727272725,
                "end_time": 7.736363636363636,
                "pitch": 52,
                "velocity": 101,
                "duration": 0.21363636363636385,
                "tempo": 120.0
            },
            {
                "start_time": 7.752272727272727,
                "end_time": 7.970454545454545,
                "pitch": 50,
                "velocity": 101,
                "duration": 0.2181818181818178,
                "tempo": 120.0
            },
            {
                "start_time": 8.004545454545454,
                "end_time": 8.10681818181818,
                "pitch": 35,
                "velocity": 101,
                "duration": 0.10227272727272663,
                "tempo": 120.0
            },
            {
                "start_time": 8.122727272727273,
                "end_time": 8.34090909090909,
                "pitch": 52,
                "velocity": 101,
                "duration": 0.21818181818181692,
                "tempo": 120.0
            },
            {
                "start_time": 8.35909090909091,
                "end_time": 8.581818181818182,
                "pitch": 35,
                "velocity": 101,
                "duration": 0.22272727272727266,
                "tempo": 120.0
            },
            {
                "start_time": 8.61590909090909,
                "end_time": 8.718181818181817,
                "pitch": 38,
                "velocity": 101,
                "duration": 0.10227272727272663,
                "tempo": 120.0
            },
            {
                "start_time": 8.736363636363636,
                "end_time": 8.956818181818182,
                "pitch": 33,
                "velocity": 101,
                "duration": 0.22045454545454568,
                "tempo": 120.0
            },
            {
                "start_time": 8.975,
                "end_time": 9.077272727272726,
                "pitch": 35,
                "velocity": 101,
                "duration": 0.10227272727272663,
                "tempo": 120.0
            },
            {
                "start_time": 9.111363636363636,
                "end_time": 9.331818181818182,
                "pitch": 27,
                "velocity": 101,
                "duration": 0.22045454545454568,
                "tempo": 120.0
            },
            {
                "start_time": 9.347727272727273,
                "end_time": 9.45,
                "pitch": 33,
                "velocity": 101,
                "duration": 0.10227272727272663,
                "tempo": 120.0
            },
            {
                "start_time": 9.46590909090909,
                "end_time": 9.684090909090909,
                "pitch": 52,
                "velocity": 101,
                "duration": 0.2181818181818187,
                "tempo": 120.0
            },
            {
                "start_time": 9.718181818181817,
                "end_time": 9.94090909090909,
                "pitch": 50,
                "velocity": 101,
                "duration": 0.22272727272727266,
                "tempo": 120.0
            },
            {
                "start_time": 9.959090909090909,
                "end_time": 10.061363636363636,
                "pitch": 35,
                "velocity": 101,
                "duration": 0.10227272727272663,
                "tempo": 120.0
            },
            {
                "start_time": 10.079545454545453,
                "end_time": 10.299999999999999,
                "pitch": 52,
                "velocity": 101,
                "duration": 0.22045454545454568,
                "tempo": 120.0
            },
            {
                "start_time": 10.334090909090909,
                "end_time": 10.549999999999999,
                "pitch": 35,
                "velocity": 101,
                "duration": 0.21590909090908994,
                "tempo": 120.0
            },
            {
                "start_time": 10.568181818181818,
                "end_time": 10.668181818181818,
                "pitch": 38,
                "velocity": 101,
                "duration": 0.09999999999999964,
                "tempo": 120.0
            },
            {
                "start_time": 10.686363636363636,
                "end_time": 10.897727272727272,
                "pitch": 33,
                "velocity": 101,
                "duration": 0.21136363636363598,
                "tempo": 120.0
            },
            {
                "start_time": 10.931818181818182,
                "end_time": 11.029545454545454,
                "pitch": 35,
                "velocity": 101,
                "duration": 0.09772727272727266,
                "tempo": 120.0
            },
            {
                "start_time": 11.049999999999999,
                "end_time": 11.35909090909091,
                "pitch": 31,
                "velocity": 101,
                "duration": 0.3090909090909104,
                "tempo": 120.0
            },
            {
                "start_time": 11.388636363636364,
                "end_time": 11.686363636363636,
                "pitch": 33,
                "velocity": 101,
                "duration": 0.29772727272727195,
                "tempo": 120.0
            },
            {
                "start_time": 11.702272727272726,
                "end_time": 11.893181818181818,
                "pitch": 35,
                "velocity": 101,
                "duration": 0.19090909090909136,
                "tempo": 120.0
            },
            {
                "start_time": 11.927272727272726,
                "end_time": 12.14090909090909,
                "pitch": 36,
                "velocity": 101,
                "duration": 0.21363636363636473,
                "tempo": 120.0
            },
            {
                "start_time": 12.156818181818181,
                "end_time": 12.375,
                "pitch": 36,
                "velocity": 101,
                "duration": 0.2181818181818187,
                "tempo": 120.0
            },
            {
                "start_time": 12.393181818181818,
                "end_time": 12.49090909090909,
                "pitch": 36,
                "velocity": 101,
                "duration": 0.09772727272727266,
                "tempo": 120.0
            },
            {
                "start_time": 12.524999999999999,
                "end_time": 12.738636363636363,
                "pitch": 48,
                "velocity": 101,
                "duration": 0.21363636363636473,
                "tempo": 120.0
            },
            {
                "start_time": 12.754545454545454,
                "end_time": 12.852272727272727,
                "pitch": 35,
                "velocity": 101,
                "duration": 0.09772727272727266,
                "tempo": 120.0
            },
            {
                "start_time": 12.870454545454544,
                "end_time": 12.970454545454546,
                "pitch": 36,
                "velocity": 101,
                "duration": 0.10000000000000142,
                "tempo": 120.0
            },
            {
                "start_time": 12.986363636363636,
                "end_time": 13.088636363636363,
                "pitch": 36,
                "velocity": 101,
                "duration": 0.10227272727272663,
                "tempo": 120.0
            },
            {
                "start_time": 13.24090909090909,
                "end_time": 13.34090909090909,
                "pitch": 48,
                "velocity": 101,
                "duration": 0.09999999999999964,
                "tempo": 120.0
            },
            {
                "start_time": 13.359090909090908,
                "end_time": 13.575,
                "pitch": 36,
                "velocity": 101,
                "duration": 0.21590909090909172,
                "tempo": 120.0
            },
            {
                "start_time": 13.609090909090908,
                "end_time": 13.825,
                "pitch": 48,
                "velocity": 101,
                "duration": 0.21590909090909172,
                "tempo": 120.0
            },
            {
                "start_time": 13.843181818181817,
                "end_time": 14.063636363636363,
                "pitch": 38,
                "velocity": 101,
                "duration": 0.22045454545454568,
                "tempo": 120.0
            },
            {
                "start_time": 14.081818181818182,
                "end_time": 14.318181818181818,
                "pitch": 38,
                "velocity": 101,
                "duration": 0.23636363636363633,
                "tempo": 120.0
            },
            {
                "start_time": 14.336363636363636,
                "end_time": 14.436363636363636,
                "pitch": 38,
                "velocity": 101,
                "duration": 0.09999999999999964,
                "tempo": 120.0
            },
            {
                "start_time": 14.454545454545453,
                "end_time": 14.672727272727272,
                "pitch": 50,
                "velocity": 101,
                "duration": 0.2181818181818187,
                "tempo": 120.0
            },
            {
                "start_time": 14.69090909090909,
                "end_time": 14.790909090909091,
                "pitch": 37,
                "velocity": 101,
                "duration": 0.10000000000000142,
                "tempo": 120.0
            },
            {
                "start_time": 14.825,
                "end_time": 14.927272727272726,
                "pitch": 38,
                "velocity": 101,
                "duration": 0.10227272727272663,
                "tempo": 120.0
            },
            {
                "start_time": 14.945454545454545,
                "end_time": 15.047727272727272,
                "pitch": 38,
                "velocity": 101,
                "duration": 0.10227272727272663,
                "tempo": 120.0
            },
            {
                "start_time": 15.184090909090909,
                "end_time": 15.286363636363635,
                "pitch": 50,
                "velocity": 101,
                "duration": 0.10227272727272663,
                "tempo": 120.0
            },
            {
                "start_time": 15.304545454545455,
                "end_time": 15.399999999999999,
                "pitch": 38,
                "velocity": 101,
                "duration": 0.0954545454545439,
                "tempo": 120.0
            },
            {
                "start_time": 15.431818181818182,
                "end_time": 15.527272727272727,
                "pitch": 38,
                "velocity": 101,
                "duration": 0.09545454545454568,
                "tempo": 120.0
            },
            {
                "start_time": 15.545454545454545,
                "end_time": 15.752272727272727,
                "pitch": 39,
                "velocity": 101,
                "duration": 0.206818181818182,
                "tempo": 120.0
            },
            {
                "start_time": 15.770454545454545,
                "end_time": 16.006818181818183,
                "pitch": 36,
                "velocity": 101,
                "duration": 0.2363636363636381,
                "tempo": 120.0
            },
            {
                "start_time": 16.025,
                "end_time": 16.245454545454546,
                "pitch": 36,
                "velocity": 101,
                "duration": 0.22045454545454746,
                "tempo": 120.0
            },
            {
                "start_time": 16.263636363636362,
                "end_time": 16.363636363636363,
                "pitch": 36,
                "velocity": 101,
                "duration": 0.10000000000000142,
                "tempo": 120.0
            },
            {
                "start_time": 16.381818181818183,
                "end_time": 16.61590909090909,
                "pitch": 48,
                "velocity": 101,
                "duration": 0.2340909090909058,
                "tempo": 120.0
            },
            {
                "start_time": 16.634090909090908,
                "end_time": 16.73409090909091,
                "pitch": 35,
                "velocity": 101,
                "duration": 0.10000000000000142,
                "tempo": 120.0
            },
            {
                "start_time": 16.752272727272725,
                "end_time": 16.852272727272727,
                "pitch": 36,
                "velocity": 101,
                "duration": 0.10000000000000142,
                "tempo": 120.0
            },
            {
                "start_time": 16.870454545454546,
                "end_time": 16.970454545454544,
                "pitch": 36,
                "velocity": 101,
                "duration": 0.09999999999999787,
                "tempo": 120.0
            },
            {
                "start_time": 17.12272727272727,
                "end_time": 17.222727272727273,
                "pitch": 48,
                "velocity": 101,
                "duration": 0.10000000000000142,
                "tempo": 120.0
            },
            {
                "start_time": 17.238636363636363,
                "end_time": 17.461363636363636,
                "pitch": 36,
                "velocity": 101,
                "duration": 0.22272727272727266,
                "tempo": 120.0
            },
            {
                "start_time": 17.479545454545455,
                "end_time": 17.71818181818182,
                "pitch": 48,
                "velocity": 101,
                "duration": 0.2386363636363633,
                "tempo": 120.0
            },
            {
                "start_time": 17.738636363636363,
                "end_time": 17.954545454545453,
                "pitch": 38,
                "velocity": 101,
                "duration": 0.21590909090908994,
                "tempo": 120.0
            },
            {
                "start_time": 17.970454545454544,
                "end_time": 18.188636363636363,
                "pitch": 38,
                "velocity": 101,
                "duration": 0.2181818181818187,
                "tempo": 120.0
            },
            {
                "start_time": 18.222727272727273,
                "end_time": 18.325,
                "pitch": 38,
                "velocity": 101,
                "duration": 0.10227272727272663,
                "tempo": 120.0
            },
            {
                "start_time": 18.34318181818182,
                "end_time": 18.563636363636363,
                "pitch": 50,
                "velocity": 101,
                "duration": 0.2204545454545439,
                "tempo": 120.0
            },
            {
                "start_time": 18.581818181818182,
                "end_time": 18.68409090909091,
                "pitch": 37,
                "velocity": 101,
                "duration": 0.10227272727272663,
                "tempo": 120.0
            },
            {
                "start_time": 18.702272727272728,
                "end_time": 18.797727272727272,
                "pitch": 38,
                "velocity": 101,
                "duration": 0.0954545454545439,
                "tempo": 120.0
            },
            {
                "start_time": 18.829545454545453,
                "end_time": 18.925,
                "pitch": 38,
                "velocity": 101,
                "duration": 0.09545454545454746,
                "tempo": 120.0
            },
            {
                "start_time": 19.05681818181818,
                "end_time": 19.15,
                "pitch": 50,
                "velocity": 101,
                "duration": 0.0931818181818187,
                "tempo": 120.0
            },
            {
                "start_time": 19.168181818181818,
                "end_time": 19.268181818181816,
                "pitch": 38,
                "velocity": 101,
                "duration": 0.09999999999999787,
                "tempo": 120.0
            },
            {
                "start_time": 19.286363636363635,
                "end_time": 19.388636363636362,
                "pitch": 38,
                "velocity": 101,
                "duration": 0.10227272727272663,
                "tempo": 120.0
            },
            {
                "start_time": 19.425,
                "end_time": 19.645454545454545,
                "pitch": 39,
                "velocity": 101,
                "duration": 0.2204545454545439,
                "tempo": 120.0
            },
            {
                "start_time": 19.663636363636364,
                "end_time": 19.88181818181818,
                "pitch": 36,
                "velocity": 101,
                "duration": 0.21818181818181515,
                "tempo": 120.0
            },
            {
                "start_time": 19.91590909090909,
                "end_time": 20.134090909090908,
                "pitch": 36,
                "velocity": 101,
                "duration": 0.2181818181818187,
                "tempo": 120.0
            },
            {
                "start_time": 20.15,
                "end_time": 20.25,
                "pitch": 36,
                "velocity": 101,
                "duration": 0.10000000000000142,
                "tempo": 120.0
            },
            {
                "start_time": 20.268181818181816,
                "end_time": 20.486363636363635,
                "pitch": 48,
                "velocity": 101,
                "duration": 0.2181818181818187,
                "tempo": 120.0
            },
            {
                "start_time": 20.520454545454545,
                "end_time": 20.620454545454546,
                "pitch": 35,
                "velocity": 101,
                "duration": 0.10000000000000142,
                "tempo": 120.0
            },
            {
                "start_time": 20.638636363636362,
                "end_time": 20.74090909090909,
                "pitch": 36,
                "velocity": 101,
                "duration": 0.10227272727272663,
                "tempo": 120.0
            },
            {
                "start_time": 20.759090909090908,
                "end_time": 20.85909090909091,
                "pitch": 36,
                "velocity": 101,
                "duration": 0.10000000000000142,
                "tempo": 120.0
            },
            {
                "start_time": 20.99772727272727,
                "end_time": 21.099999999999998,
                "pitch": 48,
                "velocity": 101,
                "duration": 0.10227272727272663,
                "tempo": 120.0
            },
            {
                "start_time": 21.134090909090908,
                "end_time": 21.352272727272727,
                "pitch": 36,
                "velocity": 101,
                "duration": 0.2181818181818187,
                "tempo": 120.0
            },
            {
                "start_time": 21.370454545454546,
                "end_time": 21.58863636363636,
                "pitch": 48,
                "velocity": 101,
                "duration": 0.21818181818181515,
                "tempo": 120.0
            },
            {
                "start_time": 21.60681818181818,
                "end_time": 21.834090909090907,
                "pitch": 38,
                "velocity": 101,
                "duration": 0.22727272727272663,
                "tempo": 120.0
            },
            {
                "start_time": 21.852272727272727,
                "end_time": 22.06590909090909,
                "pitch": 38,
                "velocity": 101,
                "duration": 0.21363636363636473,
                "tempo": 120.0
            },
            {
                "start_time": 22.081818181818182,
                "end_time": 22.18409090909091,
                "pitch": 38,
                "velocity": 101,
                "duration": 0.10227272727272663,
                "tempo": 120.0
            },
            {
                "start_time": 22.21818181818182,
                "end_time": 22.438636363636363,
                "pitch": 50,
                "velocity": 101,
                "duration": 0.2204545454545439,
                "tempo": 120.0
            },
            {
                "start_time": 22.456818181818182,
                "end_time": 22.55909090909091,
                "pitch": 37,
                "velocity": 101,
                "duration": 0.10227272727272663,
                "tempo": 120.0
            },
            {
                "start_time": 22.577272727272724,
                "end_time": 22.677272727272726,
                "pitch": 38,
                "velocity": 101,
                "duration": 0.10000000000000142,
                "tempo": 120.0
            },
            {
                "start_time": 22.695454545454545,
                "end_time": 22.795454545454543,
                "pitch": 38,
                "velocity": 101,
                "duration": 0.09999999999999787,
                "tempo": 120.0
            },
            {
                "start_time": 22.94772727272727,
                "end_time": 23.047727272727272,
                "pitch": 50,
                "velocity": 101,
                "duration": 0.10000000000000142,
                "tempo": 120.0
            },
            {
                "start_time": 23.063636363636363,
                "end_time": 23.163636363636364,
                "pitch": 38,
                "velocity": 101,
                "duration": 0.10000000000000142,
                "tempo": 120.0
            },
            {
                "start_time": 23.18181818181818,
                "end_time": 23.28181818181818,
                "pitch": 38,
                "velocity": 101,
                "duration": 0.10000000000000142,
                "tempo": 120.0
            },
            {
                "start_time": 23.299999999999997,
                "end_time": 23.53181818181818,
                "pitch": 39,
                "velocity": 101,
                "duration": 0.23181818181818414,
                "tempo": 120.0
            },
            {
                "start_time": 23.552272727272726,
                "end_time": 23.770454545454545,
                "pitch": 28,
                "velocity": 101,
                "duration": 0.2181818181818187,
                "tempo": 120.0
            },
            {
                "start_time": 23.788636363636364,
                "end_time": 23.89090909090909,
                "pitch": 40,
                "velocity": 101,
                "duration": 0.10227272727272663,
                "tempo": 120.0
            },
            {
                "start_time": 23.90681818181818,
                "end_time": 24.009090909090908,
                "pitch": 28,
                "velocity": 101,
                "duration": 0.10227272727272663,
                "tempo": 120.0
            },
            {
                "start_time": 24.045454545454543,
                "end_time": 24.145454545454545,
                "pitch": 38,
                "velocity": 101,
                "duration": 0.10000000000000142,
                "tempo": 120.0
            },
            {
                "start_time": 24.161363636363635,
                "end_time": 24.379545454545454,
                "pitch": 28,
                "velocity": 101,
                "duration": 0.2181818181818187,
                "tempo": 120.0
            },
            {
                "start_time": 24.39772727272727,
                "end_time": 24.63181818181818,
                "pitch": 36,
                "velocity": 101,
                "duration": 0.23409090909090935,
                "tempo": 120.0
            },
            {
                "start_time": 24.65,
                "end_time": 24.868181818181817,
                "pitch": 28,
                "velocity": 101,
                "duration": 0.2181818181818187,
                "tempo": 120.0
            },
            {
                "start_time": 24.884090909090908,
                "end_time": 24.986363636363635,
                "pitch": 30,
                "velocity": 101,
                "duration": 0.10227272727272663,
                "tempo": 120.0
            },
            {
                "start_time": 25.002272727272725,
                "end_time": 25.099999999999998,
                "pitch": 33,
                "velocity": 101,
                "duration": 0.09772727272727266,
                "tempo": 120.0
            },
            {
                "start_time": 25.134090909090908,
                "end_time": 25.23181818181818,
                "pitch": 31,
                "velocity": 101,
                "duration": 0.09772727272727266,
                "tempo": 120.0
            },
            {
                "start_time": 25.25,
                "end_time": 25.347727272727273,
                "pitch": 30,
                "velocity": 101,
                "duration": 0.09772727272727266,
                "tempo": 120.0
            },
            {
                "start_time": 25.363636363636363,
                "end_time": 25.46363636363636,
                "pitch": 26,
                "velocity": 101,
                "duration": 0.09999999999999787,
                "tempo": 120.0
            },
            {
                "start_time": 25.48181818181818,
                "end_time": 25.7,
                "pitch": 28,
                "velocity": 101,
                "duration": 0.2181818181818187,
                "tempo": 120.0
            },
            {
                "start_time": 25.736363636363635,
                "end_time": 25.83863636363636,
                "pitch": 40,
                "velocity": 101,
                "duration": 0.10227272727272663,
                "tempo": 120.0
            },
            {
                "start_time": 25.854545454545452,
                "end_time": 25.956818181818182,
                "pitch": 28,
                "velocity": 101,
                "duration": 0.10227272727273018,
                "tempo": 120.0
            },
            {
                "start_time": 25.974999999999998,
                "end_time": 26.075,
                "pitch": 38,
                "velocity": 101,
                "duration": 0.10000000000000142,
                "tempo": 120.0
            },
            {
                "start_time": 26.093181818181815,
                "end_time": 26.327272727272724,
                "pitch": 28,
                "velocity": 101,
                "duration": 0.23409090909090935,
                "tempo": 120.0
            },
            {
                "start_time": 26.345454545454544,
                "end_time": 26.563636363636363,
                "pitch": 36,
                "velocity": 101,
                "duration": 0.2181818181818187,
                "tempo": 120.0
            },
            {
                "start_time": 26.581818181818182,
                "end_time": 26.804545454545455,
                "pitch": 28,
                "velocity": 101,
                "duration": 0.22272727272727266,
                "tempo": 120.0
            },
            {
                "start_time": 26.83863636363636,
                "end_time": 26.94090909090909,
                "pitch": 30,
                "velocity": 101,
                "duration": 0.10227272727273018,
                "tempo": 120.0
            },
            {
                "start_time": 26.959090909090907,
                "end_time": 27.05909090909091,
                "pitch": 33,
                "velocity": 101,
                "duration": 0.10000000000000142,
                "tempo": 120.0
            },
            {
                "start_time": 27.077272727272724,
                "end_time": 27.177272727272726,
                "pitch": 31,
                "velocity": 101,
                "duration": 0.10000000000000142,
                "tempo": 120.0
            },
            {
                "start_time": 27.193181818181817,
                "end_time": 27.295454545454543,
                "pitch": 30,
                "velocity": 101,
                "duration": 0.10227272727272663,
                "tempo": 120.0
            },
            {
                "start_time": 27.311363636363634,
                "end_time": 27.411363636363635,
                "pitch": 26,
                "velocity": 101,
                "duration": 0.10000000000000142,
                "tempo": 120.0
            },
            {
                "start_time": 27.44772727272727,
                "end_time": 27.663636363636364,
                "pitch": 28,
                "velocity": 101,
                "duration": 0.2159090909090935,
                "tempo": 120.0
            },
            {
                "start_time": 27.68181818181818,
                "end_time": 27.78181818181818,
                "pitch": 40,
                "velocity": 101,
                "duration": 0.10000000000000142,
                "tempo": 120.0
            },
            {
                "start_time": 27.799999999999997,
                "end_time": 27.9,
                "pitch": 28,
                "velocity": 101,
                "duration": 0.10000000000000142,
                "tempo": 120.0
            },
            {
                "start_time": 27.918181818181818,
                "end_time": 28.01590909090909,
                "pitch": 38,
                "velocity": 101,
                "duration": 0.09772727272727266,
                "tempo": 120.0
            },
            {
                "start_time": 28.049999999999997,
                "end_time": 28.261363636363637,
                "pitch": 28,
                "velocity": 101,
                "duration": 0.21136363636363953,
                "tempo": 120.0
            },
            {
                "start_time": 28.279545454545453,
                "end_time": 28.493181818181817,
                "pitch": 36,
                "velocity": 101,
                "duration": 0.21363636363636473,
                "tempo": 120.0
            },
            {
                "start_time": 28.527272727272727,
                "end_time": 28.745454545454542,
                "pitch": 28,
                "velocity": 101,
                "duration": 0.21818181818181515,
                "tempo": 120.0
            },
            {
                "start_time": 28.763636363636362,
                "end_time": 28.863636363636363,
                "pitch": 30,
                "velocity": 101,
                "duration": 0.10000000000000142,
                "tempo": 120.0
            },
            {
                "start_time": 28.88181818181818,
                "end_time": 28.98409090909091,
                "pitch": 33,
                "velocity": 101,
                "duration": 0.10227272727273018,
                "tempo": 120.0
            },
            {
                "start_time": 29.0,
                "end_time": 29.102272727272727,
                "pitch": 31,
                "velocity": 101,
                "duration": 0.10227272727272663,
                "tempo": 120.0
            },
            {
                "start_time": 29.138636363636362,
                "end_time": 29.24090909090909,
                "pitch": 30,
                "velocity": 101,
                "duration": 0.10227272727272663,
                "tempo": 120.0
            },
            {
                "start_time": 29.25681818181818,
                "end_time": 29.35909090909091,
                "pitch": 26,
                "velocity": 101,
                "duration": 0.10227272727273018,
                "tempo": 120.0
            },
            {
                "start_time": 29.377272727272725,
                "end_time": 29.595454545454544,
                "pitch": 28,
                "velocity": 101,
                "duration": 0.2181818181818187,
                "tempo": 120.0
            },
            {
                "start_time": 29.613636363636363,
                "end_time": 29.71363636363636,
                "pitch": 40,
                "velocity": 101,
                "duration": 0.09999999999999787,
                "tempo": 120.0
            },
            {
                "start_time": 29.74772727272727,
                "end_time": 29.847727272727273,
                "pitch": 28,
                "velocity": 101,
                "duration": 0.10000000000000142,
                "tempo": 120.0
            },
            {
                "start_time": 29.86590909090909,
                "end_time": 29.96590909090909,
                "pitch": 38,
                "velocity": 101,
                "duration": 0.10000000000000142,
                "tempo": 120.0
            },
            {
                "start_time": 29.98409090909091,
                "end_time": 30.2,
                "pitch": 28,
                "velocity": 101,
                "duration": 0.21590909090908994,
                "tempo": 120.0
            },
            {
                "start_time": 30.218181818181815,
                "end_time": 30.454545454545453,
                "pitch": 36,
                "velocity": 101,
                "duration": 0.2363636363636381,
                "tempo": 120.0
            },
            {
                "start_time": 30.472727272727273,
                "end_time": 30.695454545454545,
                "pitch": 28,
                "velocity": 101,
                "duration": 0.22272727272727266,
                "tempo": 120.0
            },
            {
                "start_time": 30.71363636363636,
                "end_time": 30.813636363636363,
                "pitch": 30,
                "velocity": 101,
                "duration": 0.10000000000000142,
                "tempo": 120.0
            },
            {
                "start_time": 30.847727272727273,
                "end_time": 30.95,
                "pitch": 33,
                "velocity": 101,
                "duration": 0.10227272727272663,
                "tempo": 120.0
            },
            {
                "start_time": 30.96590909090909,
                "end_time": 31.068181818181817,
                "pitch": 31,
                "velocity": 101,
                "duration": 0.10227272727272663,
                "tempo": 120.0
            },
            {
                "start_time": 31.084090909090907,
                "end_time": 31.18409090909091,
                "pitch": 33,
                "velocity": 101,
                "duration": 0.10000000000000142,
                "tempo": 120.0
            },
            {
                "start_time": 31.202272727272724,
                "end_time": 31.302272727272726,
                "pitch": 35,
                "velocity": 101,
                "duration": 0.10000000000000142,
                "tempo": 120.0
            },
            {
                "start_time": 31.32272727272727,
                "end_time": 31.554545454545455,
                "pitch": 36,
                "velocity": 101,
                "duration": 0.23181818181818414,
                "tempo": 120.0
            },
            {
                "start_time": 31.57272727272727,
                "end_time": 31.79090909090909,
                "pitch": 36,
                "velocity": 101,
                "duration": 0.2181818181818187,
                "tempo": 120.0
            },
            {
                "start_time": 31.80681818181818,
                "end_time": 31.904545454545453,
                "pitch": 36,
                "velocity": 101,
                "duration": 0.09772727272727266,
                "tempo": 120.0
            },
            {
                "start_time": 31.922727272727272,
                "end_time": 32.152272727272724,
                "pitch": 48,
                "velocity": 101,
                "duration": 0.22954545454545183,
                "tempo": 120.0
            },
            {
                "start_time": 32.168181818181814,
                "end_time": 32.26590909090909,
                "pitch": 35,
                "velocity": 101,
                "duration": 0.09772727272727622,
                "tempo": 120.0
            },
            {
                "start_time": 32.28409090909091,
                "end_time": 32.38636363636363,
                "pitch": 36,
                "velocity": 101,
                "duration": 0.10227272727272663,
                "tempo": 120.0
            },
            {
                "start_time": 32.402272727272724,
                "end_time": 32.50454545454545,
                "pitch": 36,
                "velocity": 101,
                "duration": 0.10227272727272663,
                "tempo": 120.0
            },
            {
                "start_time": 32.66136363636363,
                "end_time": 32.763636363636365,
                "pitch": 48,
                "velocity": 101,
                "duration": 0.10227272727273373,
                "tempo": 120.0
            },
            {
                "start_time": 32.779545454545456,
                "end_time": 32.99772727272727,
                "pitch": 36,
                "velocity": 101,
                "duration": 0.2181818181818116,
                "tempo": 120.0
            },
            {
                "start_time": 33.01590909090909,
                "end_time": 33.25,
                "pitch": 48,
                "velocity": 101,
                "duration": 0.23409090909090935,
                "tempo": 120.0
            },
            {
                "start_time": 33.268181818181816,
                "end_time": 33.48409090909091,
                "pitch": 38,
                "velocity": 101,
                "duration": 0.2159090909090935,
                "tempo": 120.0
            },
            {
                "start_time": 33.502272727272725,
                "end_time": 33.71818181818182,
                "pitch": 38,
                "velocity": 101,
                "duration": 0.2159090909090935,
                "tempo": 120.0
            },
            {
                "start_time": 33.75,
                "end_time": 33.85227272727273,
                "pitch": 38,
                "velocity": 101,
                "duration": 0.10227272727272663,
                "tempo": 120.0
            },
            {
                "start_time": 33.87045454545454,
                "end_time": 34.09318181818182,
                "pitch": 50,
                "velocity": 101,
                "duration": 0.22272727272727622,
                "tempo": 120.0
            },
            {
                "start_time": 34.10909090909091,
                "end_time": 34.21363636363636,
                "pitch": 37,
                "velocity": 101,
                "duration": 0.10454545454545183,
                "tempo": 120.0
            },
            {
                "start_time": 34.23181818181818,
                "end_time": 34.32727272727273,
                "pitch": 38,
                "velocity": 101,
                "duration": 0.09545454545455101,
                "tempo": 120.0
            },
            {
                "start_time": 34.361363636363635,
                "end_time": 34.45909090909091,
                "pitch": 38,
                "velocity": 101,
                "duration": 0.09772727272727622,
                "tempo": 120.0
            },
            {
                "start_time": 34.590909090909086,
                "end_time": 34.68863636363636,
                "pitch": 50,
                "velocity": 101,
                "duration": 0.09772727272727622,
                "tempo": 120.0
            },
            {
                "start_time": 34.70681818181818,
                "end_time": 34.80681818181818,
                "pitch": 38,
                "velocity": 101,
                "duration": 0.10000000000000142,
                "tempo": 120.0
            },
            {
                "start_time": 34.840909090909086,
                "end_time": 34.94090909090909,
                "pitch": 38,
                "velocity": 101,
                "duration": 0.10000000000000142,
                "tempo": 120.0
            },
            {
                "start_time": 34.95909090909091,
                "end_time": 35.17727272727272,
                "pitch": 39,
                "velocity": 101,
                "duration": 0.2181818181818116,
                "tempo": 120.0
            },
            {
                "start_time": 35.195454545454545,
                "end_time": 35.41136363636363,
                "pitch": 36,
                "velocity": 101,
                "duration": 0.2159090909090864,
                "tempo": 120.0
            },
            {
                "start_time": 35.445454545454545,
                "end_time": 35.66136363636363,
                "pitch": 36,
                "velocity": 101,
                "duration": 0.2159090909090864,
                "tempo": 120.0
            },
            {
                "start_time": 35.67727272727272,
                "end_time": 35.779545454545456,
                "pitch": 36,
                "velocity": 101,
                "duration": 0.10227272727273373,
                "tempo": 120.0
            },
            {
                "start_time": 35.79772727272727,
                "end_time": 36.018181818181816,
                "pitch": 48,
                "velocity": 101,
                "duration": 0.2204545454545439,
                "tempo": 120.0
            },
            {
                "start_time": 36.054545454545455,
                "end_time": 36.15681818181818,
                "pitch": 35,
                "velocity": 101,
                "duration": 0.10227272727272663,
                "tempo": 120.0
            },
            {
                "start_time": 36.175,
                "end_time": 36.275,
                "pitch": 36,
                "velocity": 101,
                "duration": 0.10000000000000142,
                "tempo": 120.0
            },
            {
                "start_time": 36.29090909090909,
                "end_time": 36.39090909090909,
                "pitch": 36,
                "velocity": 101,
                "duration": 0.10000000000000142,
                "tempo": 120.0
            },
            {
                "start_time": 36.525,
                "end_time": 36.62272727272727,
                "pitch": 48,
                "velocity": 101,
                "duration": 0.09772727272726911,
                "tempo": 120.0
            },
            {
                "start_time": 36.65681818181818,
                "end_time": 36.87954545454545,
                "pitch": 36,
                "velocity": 101,
                "duration": 0.2227272727272691,
                "tempo": 120.0
            },
            {
                "start_time": 36.89772727272727,
                "end_time": 37.11818181818182,
                "pitch": 48,
                "velocity": 101,
                "duration": 0.2204545454545439,
                "tempo": 120.0
            },
            {
                "start_time": 37.154545454545456,
                "end_time": 37.37045454545454,
                "pitch": 38,
                "velocity": 101,
                "duration": 0.2159090909090864,
                "tempo": 120.0
            },
            {
                "start_time": 37.38636363636363,
                "end_time": 37.60227272727273,
                "pitch": 38,
                "velocity": 101,
                "duration": 0.2159090909090935,
                "tempo": 120.0
            },
            {
                "start_time": 37.62045454545454,
                "end_time": 37.71818181818182,
                "pitch": 38,
                "velocity": 101,
                "duration": 0.09772727272727622,
                "tempo": 120.0
            },
            {
                "start_time": 37.752272727272725,
                "end_time": 37.965909090909086,
                "pitch": 50,
                "velocity": 101,
                "duration": 0.21363636363636118,
                "tempo": 120.0
            },
            {
                "start_time": 37.98181818181818,
                "end_time": 38.07954545454545,
                "pitch": 37,
                "velocity": 101,
                "duration": 0.09772727272727622,
                "tempo": 120.0
            },
            {
                "start_time": 38.09772727272727,
                "end_time": 38.195454545454545,
                "pitch": 38,
                "velocity": 101,
                "duration": 0.09772727272727622,
                "tempo": 120.0
            },
            {
                "start_time": 38.21363636363636,
                "end_time": 38.31363636363636,
                "pitch": 38,
                "velocity": 101,
                "duration": 0.10000000000000142,
                "tempo": 120.0
            },
            {
                "start_time": 38.465909090909086,
                "end_time": 38.56363636363636,
                "pitch": 50,
                "velocity": 101,
                "duration": 0.09772727272727622,
                "tempo": 120.0
            },
            {
                "start_time": 38.57954545454545,
                "end_time": 38.679545454545455,
                "pitch": 38,
                "velocity": 101,
                "duration": 0.10000000000000142,
                "tempo": 120.0
            },
            {
                "start_time": 38.69772727272727,
                "end_time": 38.79772727272727,
                "pitch": 38,
                "velocity": 101,
                "duration": 0.10000000000000142,
                "tempo": 120.0
            },
            {
                "start_time": 38.81590909090909,
                "end_time": 39.04772727272727,
                "pitch": 39,
                "velocity": 101,
                "duration": 0.23181818181818414,
                "tempo": 120.0
            },
            {
                "start_time": 39.06590909090909,
                "end_time": 39.28636363636363,
                "pitch": 36,
                "velocity": 101,
                "duration": 0.2204545454545439,
                "tempo": 120.0
            },
            {
                "start_time": 39.304545454545455,
                "end_time": 39.543181818181814,
                "pitch": 36,
                "velocity": 101,
                "duration": 0.23863636363635976,
                "tempo": 120.0
            },
            {
                "start_time": 39.559090909090905,
                "end_time": 39.66136363636363,
                "pitch": 36,
                "velocity": 101,
                "duration": 0.10227272727272663,
                "tempo": 120.0
            },
            {
                "start_time": 39.67727272727272,
                "end_time": 39.89545454545454,
                "pitch": 48,
                "velocity": 101,
                "duration": 0.2181818181818187,
                "tempo": 120.0
            },
            {
                "start_time": 39.913636363636364,
                "end_time": 40.01363636363636,
                "pitch": 35,
                "velocity": 101,
                "duration": 0.09999999999999432,
                "tempo": 120.0
            },
            {
                "start_time": 40.05,
                "end_time": 40.15,
                "pitch": 36,
                "velocity": 101,
                "duration": 0.10000000000000142,
                "tempo": 120.0
            },
            {
                "start_time": 40.168181818181814,
                "end_time": 40.27045454545454,
                "pitch": 36,
                "velocity": 101,
                "duration": 0.10227272727272663,
                "tempo": 120.0
            },
            {
                "start_time": 40.40681818181818,
                "end_time": 40.50909090909091,
                "pitch": 48,
                "velocity": 101,
                "duration": 0.10227272727272663,
                "tempo": 120.0
            },
            {
                "start_time": 40.527272727272724,
                "end_time": 40.75,
                "pitch": 36,
                "velocity": 101,
                "duration": 0.22272727272727622,
                "tempo": 120.0
            },
            {
                "start_time": 40.768181818181816,
                "end_time": 40.975,
                "pitch": 48,
                "velocity": 101,
                "duration": 0.20681818181818556,
                "tempo": 120.0
            },
            {
                "start_time": 40.99318181818182,
                "end_time": 41.21363636363636,
                "pitch": 38,
                "velocity": 101,
                "duration": 0.2204545454545439,
                "tempo": 120.0
            },
            {
                "start_time": 41.24772727272727,
                "end_time": 41.470454545454544,
                "pitch": 38,
                "velocity": 101,
                "duration": 0.22272727272727622,
                "tempo": 120.0
            },
            {
                "start_time": 41.48863636363636,
                "end_time": 41.586363636363636,
                "pitch": 38,
                "velocity": 101,
                "duration": 0.09772727272727622,
                "tempo": 120.0
            },
            {
                "start_time": 41.60454545454545,
                "end_time": 41.836363636363636,
                "pitch": 50,
                "velocity": 101,
                "duration": 0.23181818181818414,
                "tempo": 120.0
            },
            {
                "start_time": 41.85454545454545,
                "end_time": 41.95454545454545,
                "pitch": 37,
                "velocity": 101,
                "duration": 0.10000000000000142,
                "tempo": 120.0
            },
            {
                "start_time": 41.970454545454544,
                "end_time": 42.07272727272727,
                "pitch": 38,
                "velocity": 101,
                "duration": 0.10227272727272663,
                "tempo": 120.0
            },
            {
                "start_time": 42.08863636363636,
                "end_time": 42.19090909090909,
                "pitch": 38,
                "velocity": 101,
                "duration": 0.10227272727272663,
                "tempo": 120.0
            },
            {
                "start_time": 42.340909090909086,
                "end_time": 42.44090909090909,
                "pitch": 50,
                "velocity": 101,
                "duration": 0.10000000000000142,
                "tempo": 120.0
            },
            {
                "start_time": 42.459090909090904,
                "end_time": 42.56136363636364,
                "pitch": 38,
                "velocity": 101,
                "duration": 0.10227272727273373,
                "tempo": 120.0
            },
            {
                "start_time": 42.57954545454545,
                "end_time": 42.68181818181818,
                "pitch": 38,
                "velocity": 101,
                "duration": 0.10227272727272663,
                "tempo": 120.0
            },
            {
                "start_time": 42.699999999999996,
                "end_time": 42.92045454545455,
                "pitch": 39,
                "velocity": 101,
                "duration": 0.220454545454551,
                "tempo": 120.0
            },
            {
                "start_time": 42.959090909090904,
                "end_time": 43.17727272727272,
                "pitch": 28,
                "velocity": 101,
                "duration": 0.2181818181818187,
                "tempo": 120.0
            },
            {
                "start_time": 43.195454545454545,
                "end_time": 43.29545454545455,
                "pitch": 40,
                "velocity": 101,
                "duration": 0.10000000000000142,
                "tempo": 120.0
            },
            {
                "start_time": 43.31363636363636,
                "end_time": 43.41590909090909,
                "pitch": 28,
                "velocity": 101,
                "duration": 0.10227272727272663,
                "tempo": 120.0
            },
            {
                "start_time": 43.45227272727273,
                "end_time": 43.55227272727272,
                "pitch": 38,
                "velocity": 101,
                "duration": 0.09999999999999432,
                "tempo": 120.0
            },
            {
                "start_time": 43.56818181818181,
                "end_time": 43.78636363636363,
                "pitch": 28,
                "velocity": 101,
                "duration": 0.2181818181818187,
                "tempo": 120.0
            },
            {
                "start_time": 43.804545454545455,
                "end_time": 44.02045454545454,
                "pitch": 36,
                "velocity": 101,
                "duration": 0.2159090909090864,
                "tempo": 120.0
            },
            {
                "start_time": 44.054545454545455,
                "end_time": 44.26590909090909,
                "pitch": 28,
                "velocity": 101,
                "duration": 0.21136363636363598,
                "tempo": 120.0
            },
            {
                "start_time": 44.28409090909091,
                "end_time": 44.38181818181818,
                "pitch": 30,
                "velocity": 101,
                "duration": 0.09772727272727622,
                "tempo": 120.0
            },
            {
                "start_time": 44.39772727272727,
                "end_time": 44.49772727272727,
                "pitch": 33,
                "velocity": 101,
                "duration": 0.09999999999999432,
                "tempo": 120.0
            },
            {
                "start_time": 44.51590909090909,
                "end_time": 44.61363636363636,
                "pitch": 31,
                "velocity": 101,
                "duration": 0.09772727272726911,
                "tempo": 120.0
            },
            {
                "start_time": 44.64772727272727,
                "end_time": 44.74772727272727,
                "pitch": 30,
                "velocity": 101,
                "duration": 0.09999999999999432,
                "tempo": 120.0
            },
            {
                "start_time": 44.76590909090909,
                "end_time": 44.86590909090909,
                "pitch": 26,
                "velocity": 101,
                "duration": 0.10000000000000142,
                "tempo": 120.0
            },
            {
                "start_time": 44.88409090909091,
                "end_time": 45.099999999999994,
                "pitch": 28,
                "velocity": 101,
                "duration": 0.2159090909090864,
                "tempo": 120.0
            },
            {
                "start_time": 45.11818181818182,
                "end_time": 45.21818181818182,
                "pitch": 40,
                "velocity": 101,
                "duration": 0.10000000000000142,
                "tempo": 120.0
            },
            {
                "start_time": 45.252272727272725,
                "end_time": 45.35227272727273,
                "pitch": 28,
                "velocity": 101,
                "duration": 0.10000000000000142,
                "tempo": 120.0
            },
            {
                "start_time": 45.37045454545454,
                "end_time": 45.47272727272727,
                "pitch": 38,
                "velocity": 101,
                "duration": 0.10227272727272663,
                "tempo": 120.0
            },
            {
                "start_time": 45.49090909090909,
                "end_time": 45.711363636363636,
                "pitch": 28,
                "velocity": 101,
                "duration": 0.2204545454545439,
                "tempo": 120.0
            },
            {
                "start_time": 45.74545454545454,
                "end_time": 45.965909090909086,
                "pitch": 36,
                "velocity": 101,
                "duration": 0.2204545454545439,
                "tempo": 120.0
            },
            {
                "start_time": 45.98409090909091,
                "end_time": 46.20227272727273,
                "pitch": 28,
                "velocity": 101,
                "duration": 0.2181818181818187,
                "tempo": 120.0
            },
            {
                "start_time": 46.220454545454544,
                "end_time": 46.320454545454545,
                "pitch": 30,
                "velocity": 101,
                "duration": 0.10000000000000142,
                "tempo": 120.0
            },
            {
                "start_time": 46.35454545454545,
                "end_time": 46.45227272727273,
                "pitch": 33,
                "velocity": 101,
                "duration": 0.09772727272727622,
                "tempo": 120.0
            },
            {
                "start_time": 46.470454545454544,
                "end_time": 46.570454545454545,
                "pitch": 31,
                "velocity": 101,
                "duration": 0.10000000000000142,
                "tempo": 120.0
            },
            {
                "start_time": 46.586363636363636,
                "end_time": 46.68636363636364,
                "pitch": 30,
                "velocity": 101,
                "duration": 0.10000000000000142,
                "tempo": 120.0
            },
            {
                "start_time": 46.70454545454545,
                "end_time": 46.804545454545455,
                "pitch": 26,
                "velocity": 101,
                "duration": 0.10000000000000142,
                "tempo": 120.0
            },
            {
                "start_time": 46.824999999999996,
                "end_time": 47.05,
                "pitch": 33,
                "velocity": 101,
                "duration": 0.22500000000000142,
                "tempo": 120.0
            },
            {
                "start_time": 47.06818181818181,
                "end_time": 47.16590909090909,
                "pitch": 33,
                "velocity": 101,
                "duration": 0.09772727272727622,
                "tempo": 120.0
            },
            {
                "start_time": 47.18181818181818,
                "end_time": 47.27954545454545,
                "pitch": 33,
                "velocity": 101,
                "duration": 0.09772727272726911,
                "tempo": 120.0
            },
            {
                "start_time": 47.29772727272727,
                "end_time": 47.39772727272727,
                "pitch": 33,
                "velocity": 101,
                "duration": 0.10000000000000142,
                "tempo": 120.0
            },
            {
                "start_time": 47.41590909090909,
                "end_time": 47.518181818181816,
                "pitch": 33,
                "velocity": 101,
                "duration": 0.10227272727272663,
                "tempo": 120.0
            },
            {
                "start_time": 47.55227272727272,
                "end_time": 47.65454545454545,
                "pitch": 33,
                "velocity": 101,
                "duration": 0.10227272727272663,
                "tempo": 120.0
            },
            {
                "start_time": 47.67272727272727,
                "end_time": 47.775,
                "pitch": 33,
                "velocity": 101,
                "duration": 0.10227272727272663,
                "tempo": 120.0
            },
            {
                "start_time": 47.793181818181814,
                "end_time": 48.01136363636363,
                "pitch": 33,
                "velocity": 101,
                "duration": 0.2181818181818187,
                "tempo": 120.0
            },
            {
                "start_time": 48.04545454545454,
                "end_time": 48.14545454545454,
                "pitch": 33,
                "velocity": 101,
                "duration": 0.10000000000000142,
                "tempo": 120.0
            },
            {
                "start_time": 48.163636363636364,
                "end_time": 48.26363636363636,
                "pitch": 33,
                "velocity": 101,
                "duration": 0.09999999999999432,
                "tempo": 120.0
            },
            {
                "start_time": 48.28181818181818,
                "end_time": 48.37954545454545,
                "pitch": 33,
                "velocity": 101,
                "duration": 0.09772727272726911,
                "tempo": 120.0
            },
            {
                "start_time": 48.39772727272727,
                "end_time": 48.49772727272727,
                "pitch": 33,
                "velocity": 101,
                "duration": 0.09999999999999432,
                "tempo": 120.0
            },
            {
                "start_time": 48.51590909090909,
                "end_time": 48.61363636363636,
                "pitch": 33,
                "velocity": 101,
                "duration": 0.09772727272726911,
                "tempo": 120.0
            },
            {
                "start_time": 48.64772727272727,
                "end_time": 48.74772727272727,
                "pitch": 33,
                "velocity": 101,
                "duration": 0.09999999999999432,
                "tempo": 120.0
            },
            {
                "start_time": 48.76590909090909,
                "end_time": 48.986363636363635,
                "pitch": 35,
                "velocity": 101,
                "duration": 0.2204545454545439,
                "tempo": 120.0
            },
            {
                "start_time": 49.00454545454545,
                "end_time": 49.10454545454545,
                "pitch": 35,
                "velocity": 101,
                "duration": 0.10000000000000142,
                "tempo": 120.0
            },
            {
                "start_time": 49.12272727272727,
                "end_time": 49.224999999999994,
                "pitch": 35,
                "velocity": 101,
                "duration": 0.10227272727272663,
                "tempo": 120.0
            },
            {
                "start_time": 49.26136363636363,
                "end_time": 49.35909090909091,
                "pitch": 35,
                "velocity": 101,
                "duration": 0.09772727272727622,
                "tempo": 120.0
            },
            {
                "start_time": 49.377272727272725,
                "end_time": 49.47727272727273,
                "pitch": 35,
                "velocity": 101,
                "duration": 0.10000000000000142,
                "tempo": 120.0
            },
            {
                "start_time": 49.49318181818182,
                "end_time": 49.59318181818182,
                "pitch": 35,
                "velocity": 101,
                "duration": 0.10000000000000142,
                "tempo": 120.0
            },
            {
                "start_time": 49.611363636363635,
                "end_time": 49.709090909090904,
                "pitch": 35,
                "velocity": 101,
                "duration": 0.09772727272726911,
                "tempo": 120.0
            },
            {
                "start_time": 49.72727272727273,
                "end_time": 49.95681818181818,
                "pitch": 35,
                "velocity": 101,
                "duration": 0.22954545454545183,
                "tempo": 120.0
            },
            {
                "start_time": 49.974999999999994,
                "end_time": 50.07272727272727,
                "pitch": 35,
                "velocity": 101,
                "duration": 0.09772727272727622,
                "tempo": 120.0
            },
            {
                "start_time": 50.08863636363636,
                "end_time": 50.18636363636364,
                "pitch": 35,
                "velocity": 101,
                "duration": 0.09772727272727622,
                "tempo": 120.0
            },
            {
                "start_time": 50.20454545454545,
                "end_time": 50.304545454545455,
                "pitch": 35,
                "velocity": 101,
                "duration": 0.10000000000000142,
                "tempo": 120.0
            },
            {
                "start_time": 50.33863636363636,
                "end_time": 50.43863636363636,
                "pitch": 35,
                "velocity": 101,
                "duration": 0.10000000000000142,
                "tempo": 120.0
            },
            {
                "start_time": 50.45681818181818,
                "end_time": 50.55681818181818,
                "pitch": 35,
                "velocity": 101,
                "duration": 0.10000000000000142,
                "tempo": 120.0
            },
            {
                "start_time": 50.57272727272727,
                "end_time": 50.675,
                "pitch": 35,
                "velocity": 101,
                "duration": 0.10227272727272663,
                "tempo": 120.0
            },
            {
                "start_time": 50.69318181818181,
                "end_time": 50.913636363636364,
                "pitch": 36,
                "velocity": 101,
                "duration": 0.220454545454551,
                "tempo": 120.0
            },
            {
                "start_time": 50.94772727272727,
                "end_time": 51.05,
                "pitch": 36,
                "velocity": 101,
                "duration": 0.10227272727272663,
                "tempo": 120.0
            },
            {
                "start_time": 51.06818181818181,
                "end_time": 51.17045454545454,
                "pitch": 36,
                "velocity": 101,
                "duration": 0.10227272727272663,
                "tempo": 120.0
            },
            {
                "start_time": 51.18636363636364,
                "end_time": 51.28636363636363,
                "pitch": 36,
                "velocity": 101,
                "duration": 0.09999999999999432,
                "tempo": 120.0
            },
            {
                "start_time": 51.304545454545455,
                "end_time": 51.40454545454545,
                "pitch": 36,
                "velocity": 101,
                "duration": 0.09999999999999432,
                "tempo": 120.0
            },
            {
                "start_time": 51.42045454545454,
                "end_time": 51.52045454545454,
                "pitch": 36,
                "velocity": 101,
                "duration": 0.10000000000000142,
                "tempo": 120.0
            },
            {
                "start_time": 51.554545454545455,
                "end_time": 51.65454545454545,
                "pitch": 36,
                "velocity": 101,
                "duration": 0.09999999999999432,
                "tempo": 120.0
            },
            {
                "start_time": 51.67045454545454,
                "end_time": 51.88863636363636,
                "pitch": 36,
                "velocity": 101,
                "duration": 0.2181818181818187,
                "tempo": 120.0
            },
            {
                "start_time": 51.90454545454545,
                "end_time": 52.00454545454545,
                "pitch": 36,
                "velocity": 101,
                "duration": 0.10000000000000142,
                "tempo": 120.0
            },
            {
                "start_time": 52.038636363636364,
                "end_time": 52.13863636363636,
                "pitch": 36,
                "velocity": 101,
                "duration": 0.09999999999999432,
                "tempo": 120.0
            },
            {
                "start_time": 52.15454545454545,
                "end_time": 52.25681818181818,
                "pitch": 36,
                "velocity": 101,
                "duration": 0.10227272727273373,
                "tempo": 120.0
            },
            {
                "start_time": 52.275,
                "end_time": 52.377272727272725,
                "pitch": 36,
                "velocity": 101,
                "duration": 0.10227272727272663,
                "tempo": 120.0
            },
            {
                "start_time": 52.39545454545454,
                "end_time": 52.49545454545454,
                "pitch": 36,
                "velocity": 101,
                "duration": 0.10000000000000142,
                "tempo": 120.0
            },
            {
                "start_time": 52.51363636363636,
                "end_time": 52.615909090909085,
                "pitch": 36,
                "velocity": 101,
                "duration": 0.10227272727272663,
                "tempo": 120.0
            },
            {
                "start_time": 52.652272727272724,
                "end_time": 52.87272727272727,
                "pitch": 38,
                "velocity": 101,
                "duration": 0.2204545454545439,
                "tempo": 120.0
            },
            {
                "start_time": 52.89090909090909,
                "end_time": 52.99318181818182,
                "pitch": 38,
                "velocity": 101,
                "duration": 0.10227272727272663,
                "tempo": 120.0
            },
            {
                "start_time": 53.01136363636363,
                "end_time": 53.111363636363635,
                "pitch": 38,
                "velocity": 101,
                "duration": 0.10000000000000142,
                "tempo": 120.0
            },
            {
                "start_time": 53.12954545454545,
                "end_time": 53.224999999999994,
                "pitch": 38,
                "velocity": 101,
                "duration": 0.0954545454545439,
                "tempo": 120.0
            },
            {
                "start_time": 53.25681818181818,
                "end_time": 53.35454545454545,
                "pitch": 38,
                "velocity": 101,
                "duration": 0.09772727272726911,
                "tempo": 120.0
            },
            {
                "start_time": 53.37045454545454,
                "end_time": 53.465909090909086,
                "pitch": 38,
                "velocity": 101,
                "duration": 0.0954545454545439,
                "tempo": 120.0
            },
            {
                "start_time": 53.48181818181818,
                "end_time": 53.57954545454545,
                "pitch": 38,
                "velocity": 101,
                "duration": 0.09772727272727622,
                "tempo": 120.0
            },
            {
                "start_time": 53.595454545454544,
                "end_time": 53.81136363636363,
                "pitch": 38,
                "velocity": 101,
                "duration": 0.2159090909090864,
                "tempo": 120.0
            },
            {
                "start_time": 53.845454545454544,
                "end_time": 53.945454545454545,
                "pitch": 38,
                "velocity": 101,
                "duration": 0.10000000000000142,
                "tempo": 120.0
            },
            {
                "start_time": 53.961363636363636,
                "end_time": 54.06136363636363,
                "pitch": 38,
                "velocity": 101,
                "duration": 0.09999999999999432,
                "tempo": 120.0
            },
            {
                "start_time": 54.07954545454545,
                "end_time": 54.18181818181818,
                "pitch": 38,
                "velocity": 101,
                "duration": 0.10227272727272663,
                "tempo": 120.0
            },
            {
                "start_time": 54.19772727272727,
                "end_time": 54.3,
                "pitch": 38,
                "velocity": 101,
                "duration": 0.10227272727272663,
                "tempo": 120.0
            },
            {
                "start_time": 54.336363636363636,
                "end_time": 54.43863636363636,
                "pitch": 38,
                "velocity": 101,
                "duration": 0.10227272727272663,
                "tempo": 120.0
            },
            {
                "start_time": 54.45454545454545,
                "end_time": 54.55681818181818,
                "pitch": 38,
                "velocity": 101,
                "duration": 0.10227272727272663,
                "tempo": 120.0
            },
            {
                "start_time": 54.57727272727273,
                "end_time": 54.79545454545454,
                "pitch": 33,
                "velocity": 101,
                "duration": 0.2181818181818116,
                "tempo": 120.0
            },
            {
                "start_time": 54.81363636363636,
                "end_time": 54.91590909090909,
                "pitch": 33,
                "velocity": 101,
                "duration": 0.10227272727272663,
                "tempo": 120.0
            },
            {
                "start_time": 54.949999999999996,
                "end_time": 55.05227272727272,
                "pitch": 33,
                "velocity": 101,
                "duration": 0.10227272727272663,
                "tempo": 120.0
            },
            {
                "start_time": 55.070454545454545,
                "end_time": 55.17045454545454,
                "pitch": 33,
                "velocity": 101,
                "duration": 0.09999999999999432,
                "tempo": 120.0
            },
            {
                "start_time": 55.18636363636363,
                "end_time": 55.28636363636363,
                "pitch": 33,
                "velocity": 101,
                "duration": 0.10000000000000142,
                "tempo": 120.0
            },
            {
                "start_time": 55.304545454545455,
                "end_time": 55.40454545454545,
                "pitch": 33,
                "velocity": 101,
                "duration": 0.09999999999999432,
                "tempo": 120.0
            },
            {
                "start_time": 55.42045454545454,
                "end_time": 55.52045454545454,
                "pitch": 33,
                "velocity": 101,
                "duration": 0.10000000000000142,
                "tempo": 120.0
            },
            {
                "start_time": 55.554545454545455,
                "end_time": 55.77272727272727,
                "pitch": 33,
                "velocity": 101,
                "duration": 0.2181818181818187,
                "tempo": 120.0
            },
            {
                "start_time": 55.79090909090909,
                "end_time": 55.89090909090909,
                "pitch": 33,
                "velocity": 101,
                "duration": 0.10000000000000142,
                "tempo": 120.0
            },
            {
                "start_time": 55.90681818181818,
                "end_time": 56.00909090909091,
                "pitch": 33,
                "velocity": 101,
                "duration": 0.10227272727272663,
                "tempo": 120.0
            },
            {
                "start_time": 56.027272727272724,
                "end_time": 56.12272727272727,
                "pitch": 33,
                "velocity": 101,
                "duration": 0.0954545454545439,
                "tempo": 120.0
            },
            {
                "start_time": 56.15681818181818,
                "end_time": 56.256818181818176,
                "pitch": 33,
                "velocity": 101,
                "duration": 0.09999999999999432,
                "tempo": 120.0
            },
            {
                "start_time": 56.27272727272727,
                "end_time": 56.37045454545454,
                "pitch": 33,
                "velocity": 101,
                "duration": 0.09772727272726911,
                "tempo": 120.0
            },
            {
                "start_time": 56.38636363636363,
                "end_time": 56.48409090909091,
                "pitch": 33,
                "velocity": 101,
                "duration": 0.09772727272727622,
                "tempo": 120.0
            },
            {
                "start_time": 56.502272727272725,
                "end_time": 56.736363636363635,
                "pitch": 35,
                "velocity": 101,
                "duration": 0.23409090909090935,
                "tempo": 120.0
            },
            {
                "start_time": 56.752272727272725,
                "end_time": 56.85227272727273,
                "pitch": 35,
                "velocity": 101,
                "duration": 0.10000000000000142,
                "tempo": 120.0
            },
            {
                "start_time": 56.86818181818182,
                "end_time": 56.96818181818182,
                "pitch": 35,
                "velocity": 101,
                "duration": 0.10000000000000142,
                "tempo": 120.0
            },
            {
                "start_time": 56.986363636363635,
                "end_time": 57.08863636363636,
                "pitch": 35,
                "velocity": 101,
                "duration": 0.10227272727272663,
                "tempo": 120.0
            },
            {
                "start_time": 57.10454545454545,
                "end_time": 57.20681818181818,
                "pitch": 35,
                "velocity": 101,
                "duration": 0.10227272727272663,
                "tempo": 120.0
            },
            {
                "start_time": 57.240909090909085,
                "end_time": 57.34318181818182,
                "pitch": 35,
                "velocity": 101,
                "duration": 0.10227272727273373,
                "tempo": 120.0
            },
            {
                "start_time": 57.361363636363635,
                "end_time": 57.46363636363636,
                "pitch": 35,
                "velocity": 101,
                "duration": 0.10227272727272663,
                "tempo": 120.0
            },
            {
                "start_time": 57.48181818181818,
                "end_time": 57.69772727272727,
                "pitch": 35,
                "velocity": 101,
                "duration": 0.2159090909090935,
                "tempo": 120.0
            },
            {
                "start_time": 57.715909090909086,
                "end_time": 57.81363636363636,
                "pitch": 35,
                "velocity": 101,
                "duration": 0.09772727272727622,
                "tempo": 120.0
            },
            {
                "start_time": 57.84772727272727,
                "end_time": 57.94772727272727,
                "pitch": 35,
                "velocity": 101,
                "duration": 0.10000000000000142,
                "tempo": 120.0
            },
            {
                "start_time": 57.965909090909086,
                "end_time": 58.06590909090909,
                "pitch": 35,
                "velocity": 101,
                "duration": 0.10000000000000142,
                "tempo": 120.0
            },
            {
                "start_time": 58.084090909090904,
                "end_time": 58.184090909090905,
                "pitch": 35,
                "velocity": 101,
                "duration": 0.10000000000000142,
                "tempo": 120.0
            },
            {
                "start_time": 58.20227272727272,
                "end_time": 58.30227272727272,
                "pitch": 35,
                "velocity": 101,
                "duration": 0.10000000000000142,
                "tempo": 120.0
            },
            {
                "start_time": 58.31818181818181,
                "end_time": 58.42045454545454,
                "pitch": 35,
                "velocity": 101,
                "duration": 0.10227272727272663,
                "tempo": 120.0
            },
            {
                "start_time": 58.45681818181818,
                "end_time": 58.554545454545455,
                "pitch": 28,
                "velocity": 101,
                "duration": 0.09772727272727622,
                "tempo": 120.0
            },
            {
                "start_time": 58.57272727272727,
                "end_time": 58.675,
                "pitch": 28,
                "velocity": 101,
                "duration": 0.10227272727272663,
                "tempo": 120.0
            },
            {
                "start_time": 58.69318181818181,
                "end_time": 58.79545454545454,
                "pitch": 28,
                "velocity": 101,
                "duration": 0.10227272727272663,
                "tempo": 120.0
            },
            {
                "start_time": 58.81136363636363,
                "end_time": 58.913636363636364,
                "pitch": 28,
                "velocity": 101,
                "duration": 0.10227272727273373,
                "tempo": 120.0
            },
            {
                "start_time": 58.949999999999996,
                "end_time": 59.402272727272724,
                "pitch": 28,
                "velocity": 101,
                "duration": 0.45227272727272805,
                "tempo": 120.0
            },
            {
                "start_time": 59.42045454545454,
                "end_time": 59.518181818181816,
                "pitch": 28,
                "velocity": 101,
                "duration": 0.09772727272727622,
                "tempo": 120.0
            },
            {
                "start_time": 59.55227272727272,
                "end_time": 59.65,
                "pitch": 28,
                "velocity": 101,
                "duration": 0.09772727272727622,
                "tempo": 120.0
            },
            {
                "start_time": 59.66590909090909,
                "end_time": 59.76363636363636,
                "pitch": 28,
                "velocity": 101,
                "duration": 0.09772727272726911,
                "tempo": 120.0
            },
            {
                "start_time": 59.78181818181818,
                "end_time": 59.87954545454545,
                "pitch": 28,
                "velocity": 101,
                "duration": 0.09772727272726911,
                "tempo": 120.0
            },
            {
                "start_time": 59.89545454545454,
                "end_time": 60.36363636363636,
                "pitch": 28,
                "velocity": 101,
                "duration": 0.4681818181818187,
                "tempo": 120.0
            },
            {
                "start_time": 60.381818181818176,
                "end_time": 60.48181818181818,
                "pitch": 28,
                "velocity": 101,
                "duration": 0.10000000000000142,
                "tempo": 120.0
            },
            {
                "start_time": 60.49772727272727,
                "end_time": 60.59772727272727,
                "pitch": 28,
                "velocity": 101,
                "duration": 0.10000000000000142,
                "tempo": 120.0
            },
            {
                "start_time": 60.63409090909091,
                "end_time": 60.73409090909091,
                "pitch": 28,
                "velocity": 101,
                "duration": 0.10000000000000142,
                "tempo": 120.0
            },
            {
                "start_time": 60.75,
                "end_time": 60.849999999999994,
                "pitch": 28,
                "velocity": 101,
                "duration": 0.09999999999999432,
                "tempo": 120.0
            },
            {
                "start_time": 60.86818181818182,
                "end_time": 61.345454545454544,
                "pitch": 28,
                "velocity": 101,
                "duration": 0.4772727272727266,
                "tempo": 120.0
            },
            {
                "start_time": 61.36363636363636,
                "end_time": 61.57954545454545,
                "pitch": 28,
                "velocity": 101,
                "duration": 0.2159090909090935,
                "tempo": 120.0
            },
            {
                "start_time": 61.59772727272727,
                "end_time": 61.81363636363636,
                "pitch": 28,
                "velocity": 101,
                "duration": 0.2159090909090935,
                "tempo": 120.0
            },
            {
                "start_time": 61.84772727272727,
                "end_time": 61.949999999999996,
                "pitch": 33,
                "velocity": 101,
                "duration": 0.10227272727272663,
                "tempo": 120.0
            },
            {
                "start_time": 61.96818181818182,
                "end_time": 62.070454545454545,
                "pitch": 31,
                "velocity": 101,
                "duration": 0.10227272727272663,
                "tempo": 120.0
            },
            {
                "start_time": 62.08863636363636,
                "end_time": 62.18863636363636,
                "pitch": 30,
                "velocity": 101,
                "duration": 0.10000000000000142,
                "tempo": 120.0
            },
            {
                "start_time": 62.20681818181818,
                "end_time": 62.309090909090905,
                "pitch": 26,
                "velocity": 101,
                "duration": 0.10227272727272663,
                "tempo": 120.0
            },
            {
                "start_time": 62.32954545454545,
                "end_time": 62.55681818181818,
                "pitch": 33,
                "velocity": 101,
                "duration": 0.22727272727272663,
                "tempo": 120.0
            },
            {
                "start_time": 62.57272727272727,
                "end_time": 62.67045454545454,
                "pitch": 33,
                "velocity": 101,
                "duration": 0.09772727272726911,
                "tempo": 120.0
            },
            {
                "start_time": 62.68863636363636,
                "end_time": 62.78636363636363,
                "pitch": 33,
                "velocity": 101,
                "duration": 0.09772727272726911,
                "tempo": 120.0
            },
            {
                "start_time": 62.80227272727272,
                "end_time": 62.902272727272724,
                "pitch": 33,
                "velocity": 101,
                "duration": 0.10000000000000142,
                "tempo": 120.0
            },
            {
                "start_time": 62.93636363636363,
                "end_time": 63.03636363636363,
                "pitch": 33,
                "velocity": 101,
                "duration": 0.10000000000000142,
                "tempo": 120.0
            },
            {
                "start_time": 63.05227272727272,
                "end_time": 63.152272727272724,
                "pitch": 33,
                "velocity": 101,
                "duration": 0.10000000000000142,
                "tempo": 120.0
            },
            {
                "start_time": 63.17045454545454,
                "end_time": 63.27045454545454,
                "pitch": 33,
                "velocity": 101,
                "duration": 0.10000000000000142,
                "tempo": 120.0
            },
            {
                "start_time": 63.28636363636363,
                "end_time": 63.50454545454545,
                "pitch": 33,
                "velocity": 101,
                "duration": 0.2181818181818187,
                "tempo": 120.0
            },
            {
                "start_time": 63.54090909090909,
                "end_time": 63.63863636363636,
                "pitch": 33,
                "velocity": 101,
                "duration": 0.09772727272726911,
                "tempo": 120.0
            },
            {
                "start_time": 63.65681818181818,
                "end_time": 63.756818181818176,
                "pitch": 33,
                "velocity": 101,
                "duration": 0.09999999999999432,
                "tempo": 120.0
            },
            {
                "start_time": 63.775,
                "end_time": 63.877272727272725,
                "pitch": 33,
                "velocity": 101,
                "duration": 0.10227272727272663,
                "tempo": 120.0
            },
            {
                "start_time": 63.893181818181816,
                "end_time": 63.99772727272727,
                "pitch": 33,
                "velocity": 101,
                "duration": 0.10454545454545183,
                "tempo": 120.0
            },
            {
                "start_time": 64.01590909090909,
                "end_time": 64.11590909090908,
                "pitch": 33,
                "velocity": 101,
                "duration": 0.09999999999999432,
                "tempo": 120.0
            },
            {
                "start_time": 64.14999999999999,
                "end_time": 64.25227272727273,
                "pitch": 33,
                "velocity": 101,
                "duration": 0.10227272727273373,
                "tempo": 120.0
            },
            {
                "start_time": 64.27045454545454,
                "end_time": 64.48636363636363,
                "pitch": 35,
                "velocity": 101,
                "duration": 0.2159090909090935,
                "tempo": 120.0
            },
            {
                "start_time": 64.50454545454545,
                "end_time": 64.60454545454544,
                "pitch": 35,
                "velocity": 101,
                "duration": 0.09999999999999432,
                "tempo": 120.0
            },
            {
                "start_time": 64.62045454545454,
                "end_time": 64.72045454545454,
                "pitch": 35,
                "velocity": 101,
                "duration": 0.10000000000000853,
                "tempo": 120.0
            },
            {
                "start_time": 64.75454545454545,
                "end_time": 64.85681818181818,
                "pitch": 35,
                "velocity": 101,
                "duration": 0.10227272727273373,
                "tempo": 120.0
            },
            {
                "start_time": 64.87272727272727,
                "end_time": 64.975,
                "pitch": 35,
                "velocity": 101,
                "duration": 0.10227272727271952,
                "tempo": 120.0
            },
            {
                "start_time": 64.99318181818181,
                "end_time": 65.09545454545454,
                "pitch": 35,
                "velocity": 101,
                "duration": 0.10227272727273373,
                "tempo": 120.0
            },
            {
                "start_time": 65.11363636363636,
                "end_time": 65.2159090909091,
                "pitch": 35,
                "velocity": 101,
                "duration": 0.10227272727273373,
                "tempo": 120.0
            },
            {
                "start_time": 65.25,
                "end_time": 65.46818181818182,
                "pitch": 35,
                "velocity": 101,
                "duration": 0.2181818181818187,
                "tempo": 120.0
            },
            {
                "start_time": 65.48636363636363,
                "end_time": 65.58636363636363,
                "pitch": 35,
                "velocity": 101,
                "duration": 0.09999999999999432,
                "tempo": 120.0
            },
            {
                "start_time": 65.60227272727272,
                "end_time": 65.70454545454545,
                "pitch": 35,
                "velocity": 101,
                "duration": 0.10227272727273373,
                "tempo": 120.0
            },
            {
                "start_time": 65.72045454545454,
                "end_time": 65.81818181818181,
                "pitch": 35,
                "velocity": 101,
                "duration": 0.09772727272726911,
                "tempo": 120.0
            },
            {
                "start_time": 65.85227272727272,
                "end_time": 65.95,
                "pitch": 35,
                "velocity": 101,
                "duration": 0.09772727272728332,
                "tempo": 120.0
            },
            {
                "start_time": 65.96818181818182,
                "end_time": 66.06590909090909,
                "pitch": 35,
                "velocity": 101,
                "duration": 0.09772727272726911,
                "tempo": 120.0
            },
            {
                "start_time": 66.08181818181818,
                "end_time": 66.18181818181817,
                "pitch": 35,
                "velocity": 101,
                "duration": 0.09999999999999432,
                "tempo": 120.0
            },
            {
                "start_time": 66.2,
                "end_time": 66.41590909090908,
                "pitch": 36,
                "velocity": 101,
                "duration": 0.21590909090907928,
                "tempo": 120.0
            },
            {
                "start_time": 66.45,
                "end_time": 66.55,
                "pitch": 36,
                "velocity": 101,
                "duration": 0.09999999999999432,
                "tempo": 120.0
            },
            {
                "start_time": 66.56818181818181,
                "end_time": 66.66818181818182,
                "pitch": 36,
                "velocity": 101,
                "duration": 0.10000000000000853,
                "tempo": 120.0
            },
            {
                "start_time": 66.68409090909091,
                "end_time": 66.78636363636363,
                "pitch": 36,
                "velocity": 101,
                "duration": 0.10227272727271952,
                "tempo": 120.0
            },
            {
                "start_time": 66.80227272727272,
                "end_time": 66.90227272727273,
                "pitch": 36,
                "velocity": 101,
                "duration": 0.10000000000000853,
                "tempo": 120.0
            },
            {
                "start_time": 66.92045454545455,
                "end_time": 67.02045454545454,
                "pitch": 36,
                "velocity": 101,
                "duration": 0.09999999999999432,
                "tempo": 120.0
            },
            {
                "start_time": 67.05454545454545,
                "end_time": 67.15454545454546,
                "pitch": 36,
                "velocity": 101,
                "duration": 0.10000000000000853,
                "tempo": 120.0
            },
            {
                "start_time": 67.17272727272727,
                "end_time": 67.39545454545454,
                "pitch": 36,
                "velocity": 101,
                "duration": 0.2227272727272691,
                "tempo": 120.0
            },
            {
                "start_time": 67.41363636363636,
                "end_time": 67.51363636363637,
                "pitch": 36,
                "velocity": 101,
                "duration": 0.10000000000000853,
                "tempo": 120.0
            },
            {
                "start_time": 67.55,
                "end_time": 67.64999999999999,
                "pitch": 36,
                "velocity": 101,
                "duration": 0.09999999999999432,
                "tempo": 120.0
            },
            {
                "start_time": 67.66818181818182,
                "end_time": 67.76818181818182,
                "pitch": 36,
                "velocity": 101,
                "duration": 0.09999999999999432,
                "tempo": 120.0
            },
            {
                "start_time": 67.78636363636363,
                "end_time": 67.88636363636363,
                "pitch": 36,
                "velocity": 101,
                "duration": 0.09999999999999432,
                "tempo": 120.0
            },
            {
                "start_time": 67.90454545454546,
                "end_time": 68.00454545454545,
                "pitch": 36,
                "velocity": 101,
                "duration": 0.09999999999999432,
                "tempo": 120.0
            },
            {
                "start_time": 68.02272727272727,
                "end_time": 68.12272727272727,
                "pitch": 36,
                "velocity": 101,
                "duration": 0.10000000000000853,
                "tempo": 120.0
            },
            {
                "start_time": 68.15681818181818,
                "end_time": 68.37727272727273,
                "pitch": 38,
                "velocity": 101,
                "duration": 0.2204545454545439,
                "tempo": 120.0
            },
            {
                "start_time": 68.39545454545454,
                "end_time": 68.49772727272727,
                "pitch": 38,
                "velocity": 101,
                "duration": 0.10227272727273373,
                "tempo": 120.0
            },
            {
                "start_time": 68.51590909090909,
                "end_time": 68.61818181818181,
                "pitch": 38,
                "velocity": 101,
                "duration": 0.10227272727271952,
                "tempo": 120.0
            },
            {
                "start_time": 68.63636363636363,
                "end_time": 68.73181818181818,
                "pitch": 38,
                "velocity": 101,
                "duration": 0.09545454545455812,
                "tempo": 120.0
            },
            {
                "start_time": 68.76363636363637,
                "end_time": 68.85909090909091,
                "pitch": 38,
                "velocity": 101,
                "duration": 0.0954545454545439,
                "tempo": 120.0
            },
            {
                "start_time": 68.875,
                "end_time": 68.97045454545454,
                "pitch": 38,
                "velocity": 101,
                "duration": 0.0954545454545439,
                "tempo": 120.0
            },
            {
                "start_time": 68.98863636363636,
                "end_time": 69.0840909090909,
                "pitch": 38,
                "velocity": 101,
                "duration": 0.0954545454545439,
                "tempo": 120.0
            },
            {
                "start_time": 69.1,
                "end_time": 69.33863636363635,
                "pitch": 38,
                "velocity": 101,
                "duration": 0.23863636363635976,
                "tempo": 120.0
            },
            {
                "start_time": 69.35681818181818,
                "end_time": 69.4590909090909,
                "pitch": 38,
                "velocity": 101,
                "duration": 0.10227272727271952,
                "tempo": 120.0
            },
            {
                "start_time": 69.47727272727272,
                "end_time": 69.57727272727273,
                "pitch": 38,
                "velocity": 101,
                "duration": 0.10000000000000853,
                "tempo": 120.0
            },
            {
                "start_time": 69.59545454545454,
                "end_time": 69.69545454545454,
                "pitch": 38,
                "velocity": 101,
                "duration": 0.09999999999999432,
                "tempo": 120.0
            },
            {
                "start_time": 69.71363636363635,
                "end_time": 69.81363636363636,
                "pitch": 38,
                "velocity": 101,
                "duration": 0.10000000000000853,
                "tempo": 120.0
            },
            {
                "start_time": 69.84772727272727,
                "end_time": 69.94772727272726,
                "pitch": 38,
                "velocity": 101,
                "duration": 0.09999999999999432,
                "tempo": 120.0
            },
            {
                "start_time": 69.9659090909091,
                "end_time": 70.06818181818181,
                "pitch": 38,
                "velocity": 101,
                "duration": 0.10227272727271952,
                "tempo": 120.0
            },
            {
                "start_time": 70.08636363636363,
                "end_time": 70.30454545454545,
                "pitch": 33,
                "velocity": 101,
                "duration": 0.2181818181818187,
                "tempo": 120.0
            },
            {
                "start_time": 70.32272727272726,
                "end_time": 70.425,
                "pitch": 33,
                "velocity": 101,
                "duration": 0.10227272727273373,
                "tempo": 120.0
            },
            {
                "start_time": 70.4590909090909,
                "end_time": 70.56136363636364,
                "pitch": 33,
                "velocity": 101,
                "duration": 0.10227272727273373,
                "tempo": 120.0
            },
            {
                "start_time": 70.57954545454545,
                "end_time": 70.67954545454545,
                "pitch": 33,
                "velocity": 101,
                "duration": 0.09999999999999432,
                "tempo": 120.0
            },
            {
                "start_time": 70.69772727272726,
                "end_time": 70.79772727272727,
                "pitch": 33,
                "velocity": 101,
                "duration": 0.10000000000000853,
                "tempo": 120.0
            },
            {
                "start_time": 70.81590909090909,
                "end_time": 70.91590909090908,
                "pitch": 33,
                "velocity": 101,
                "duration": 0.09999999999999432,
                "tempo": 120.0
            },
            {
                "start_time": 70.93181818181817,
                "end_time": 71.0340909090909,
                "pitch": 33,
                "velocity": 101,
                "duration": 0.10227272727273373,
                "tempo": 120.0
            },
            {
                "start_time": 71.06818181818181,
                "end_time": 71.2840909090909,
                "pitch": 33,
                "velocity": 101,
                "duration": 0.2159090909090935,
                "tempo": 120.0
            },
            {
                "start_time": 71.30227272727272,
                "end_time": 71.39999999999999,
                "pitch": 33,
                "velocity": 101,
                "duration": 0.09772727272726911,
                "tempo": 120.0
            },
            {
                "start_time": 71.41818181818182,
                "end_time": 71.51818181818182,
                "pitch": 33,
                "velocity": 101,
                "duration": 0.09999999999999432,
                "tempo": 120.0
            },
            {
                "start_time": 71.55227272727272,
                "end_time": 71.65227272727273,
                "pitch": 33,
                "velocity": 101,
                "duration": 0.10000000000000853,
                "tempo": 120.0
            },
            {
                "start_time": 71.67045454545455,
                "end_time": 71.77272727272727,
                "pitch": 33,
                "velocity": 101,
                "duration": 0.10227272727271952,
                "tempo": 120.0
            },
            {
                "start_time": 71.79090909090908,
                "end_time": 71.89318181818182,
                "pitch": 33,
                "velocity": 101,
                "duration": 0.10227272727273373,
                "tempo": 120.0
            },
            {
                "start_time": 71.9090909090909,
                "end_time": 72.01136363636363,
                "pitch": 33,
                "velocity": 101,
                "duration": 0.10227272727271952,
                "tempo": 120.0
            },
            {
                "start_time": 72.02954545454546,
                "end_time": 72.25454545454545,
                "pitch": 35,
                "velocity": 101,
                "duration": 0.22499999999999432,
                "tempo": 120.0
            },
            {
                "start_time": 72.27045454545454,
                "end_time": 72.36590909090908,
                "pitch": 35,
                "velocity": 101,
                "duration": 0.0954545454545439,
                "tempo": 120.0
            },
            {
                "start_time": 72.38181818181818,
                "end_time": 72.47954545454544,
                "pitch": 35,
                "velocity": 101,
                "duration": 0.09772727272726911,
                "tempo": 120.0
            },
            {
                "start_time": 72.49545454545454,
                "end_time": 72.59772727272727,
                "pitch": 35,
                "velocity": 101,
                "duration": 0.10227272727273373,
                "tempo": 120.0
            },
            {
                "start_time": 72.61363636363636,
                "end_time": 72.7159090909091,
                "pitch": 35,
                "velocity": 101,
                "duration": 0.10227272727273373,
                "tempo": 120.0
            },
            {
                "start_time": 72.75,
                "end_time": 72.85227272727272,
                "pitch": 35,
                "velocity": 101,
                "duration": 0.10227272727271952,
                "tempo": 120.0
            },
            {
                "start_time": 72.87045454545454,
                "end_time": 72.97272727272727,
                "pitch": 35,
                "velocity": 101,
                "duration": 0.10227272727273373,
                "tempo": 120.0
            },
            {
                "start_time": 72.99090909090908,
                "end_time": 73.20681818181818,
                "pitch": 35,
                "velocity": 101,
                "duration": 0.2159090909090935,
                "tempo": 120.0
            },
            {
                "start_time": 73.225,
                "end_time": 73.32272727272726,
                "pitch": 35,
                "velocity": 101,
                "duration": 0.09772727272726911,
                "tempo": 120.0
            },
            {
                "start_time": 73.35681818181818,
                "end_time": 73.45681818181818,
                "pitch": 35,
                "velocity": 101,
                "duration": 0.09999999999999432,
                "tempo": 120.0
            },
            {
                "start_time": 73.475,
                "end_time": 73.57727272727273,
                "pitch": 35,
                "velocity": 101,
                "duration": 0.10227272727273373,
                "tempo": 120.0
            },
            {
                "start_time": 73.59318181818182,
                "end_time": 73.69545454545454,
                "pitch": 35,
                "velocity": 101,
                "duration": 0.10227272727271952,
                "tempo": 120.0
            },
            {
                "start_time": 73.71363636363635,
                "end_time": 73.81590909090909,
                "pitch": 35,
                "velocity": 101,
                "duration": 0.10227272727273373,
                "tempo": 120.0
            },
            {
                "start_time": 73.85,
                "end_time": 73.95227272727273,
                "pitch": 35,
                "velocity": 101,
                "duration": 0.10227272727273373,
                "tempo": 120.0
            },
            {
                "start_time": 73.97272727272727,
                "end_time": 74.07045454545454,
                "pitch": 35,
                "velocity": 101,
                "duration": 0.09772727272726911,
                "tempo": 120.0
            },
            {
                "start_time": 74.08636363636363,
                "end_time": 74.18636363636364,
                "pitch": 35,
                "velocity": 101,
                "duration": 0.10000000000000853,
                "tempo": 120.0
            },
            {
                "start_time": 74.20454545454545,
                "end_time": 74.30227272727272,
                "pitch": 35,
                "velocity": 101,
                "duration": 0.09772727272726911,
                "tempo": 120.0
            },
            {
                "start_time": 74.32045454545454,
                "end_time": 74.42045454545455,
                "pitch": 35,
                "velocity": 101,
                "duration": 0.10000000000000853,
                "tempo": 120.0
            },
            {
                "start_time": 74.45454545454545,
                "end_time": 74.55454545454545,
                "pitch": 35,
                "velocity": 101,
                "duration": 0.09999999999999432,
                "tempo": 120.0
            },
            {
                "start_time": 74.57272727272726,
                "end_time": 74.67272727272727,
                "pitch": 35,
                "velocity": 101,
                "duration": 0.10000000000000853,
                "tempo": 120.0
            },
            {
                "start_time": 74.69090909090909,
                "end_time": 74.79090909090908,
                "pitch": 35,
                "velocity": 101,
                "duration": 0.09999999999999432,
                "tempo": 120.0
            },
            {
                "start_time": 74.80909090909091,
                "end_time": 74.9090909090909,
                "pitch": 35,
                "velocity": 101,
                "duration": 0.09999999999999432,
                "tempo": 120.0
            },
            {
                "start_time": 74.925,
                "end_time": 75.02272727272727,
                "pitch": 35,
                "velocity": 101,
                "duration": 0.09772727272726911,
                "tempo": 120.0
            },
            {
                "start_time": 75.05681818181817,
                "end_time": 75.15454545454546,
                "pitch": 35,
                "velocity": 101,
                "duration": 0.09772727272728332,
                "tempo": 120.0
            },
            {
                "start_time": 75.17272727272727,
                "end_time": 75.27045454545454,
                "pitch": 35,
                "velocity": 101,
                "duration": 0.09772727272726911,
                "tempo": 120.0
            },
            {
                "start_time": 75.28636363636363,
                "end_time": 75.3840909090909,
                "pitch": 35,
                "velocity": 101,
                "duration": 0.09772727272726911,
                "tempo": 120.0
            },
            {
                "start_time": 75.40227272727272,
                "end_time": 75.50227272727273,
                "pitch": 35,
                "velocity": 101,
                "duration": 0.10000000000000853,
                "tempo": 120.0
            },
            {
                "start_time": 75.52045454545454,
                "end_time": 75.62272727272727,
                "pitch": 33,
                "velocity": 101,
                "duration": 0.10227272727273373,
                "tempo": 120.0
            },
            {
                "start_time": 75.65681818181818,
                "end_time": 75.7590909090909,
                "pitch": 31,
                "velocity": 101,
                "duration": 0.10227272727271952,
                "tempo": 120.0
            },
            {
                "start_time": 75.77727272727272,
                "end_time": 75.87954545454545,
                "pitch": 30,
                "velocity": 101,
                "duration": 0.10227272727273373,
                "tempo": 120.0
            },
            {
                "start_time": 75.89772727272727,
                "end_time": 75.99772727272727,
                "pitch": 39,
                "velocity": 101,
                "duration": 0.10000000000000853,
                "tempo": 120.0
            },
            {
                "start_time": 76.01590909090909,
                "end_time": 76.11590909090908,
                "pitch": 35,
                "velocity": 101,
                "duration": 0.09999999999999432,
                "tempo": 120.0
            },
            {
                "start_time": 76.14999999999999,
                "end_time": 76.25,
                "pitch": 42,
                "velocity": 101,
                "duration": 0.10000000000000853,
                "tempo": 120.0
            },
            {
                "start_time": 76.26818181818182,
                "end_time": 76.36818181818181,
                "pitch": 35,
                "velocity": 101,
                "duration": 0.09999999999999432,
                "tempo": 120.0
            },
            {
                "start_time": 76.38636363636363,
                "end_time": 76.48636363636363,
                "pitch": 45,
                "velocity": 101,
                "duration": 0.10000000000000853,
                "tempo": 120.0
            },
            {
                "start_time": 76.50454545454545,
                "end_time": 76.60681818181818,
                "pitch": 38,
                "velocity": 101,
                "duration": 0.10227272727273373,
                "tempo": 120.0
            },
            {
                "start_time": 76.625,
                "end_time": 76.72727272727272,
                "pitch": 46,
                "velocity": 101,
                "duration": 0.10227272727271952,
                "tempo": 120.0
            },
            {
                "start_time": 76.76136363636363,
                "end_time": 76.86363636363636,
                "pitch": 38,
                "velocity": 101,
                "duration": 0.10227272727273373,
                "tempo": 120.0
            },
            {
                "start_time": 76.88181818181818,
                "end_time": 77.09772727272727,
                "pitch": 47,
                "velocity": 101,
                "duration": 0.2159090909090935,
                "tempo": 120.0
            },
            {
                "start_time": 77.86590909090908,
                "end_time": 78.07727272727273,
                "pitch": 52,
                "velocity": 101,
                "duration": 0.21136363636364308,
                "tempo": 120.0
            },
            {
                "start_time": 78.09318181818182,
                "end_time": 78.31136363636364,
                "pitch": 35,
                "velocity": 101,
                "duration": 0.2181818181818187,
                "tempo": 120.0
            },
            {
                "start_time": 78.32727272727273,
                "end_time": 78.42727272727272,
                "pitch": 38,
                "velocity": 101,
                "duration": 0.09999999999999432,
                "tempo": 120.0
            },
            {
                "start_time": 78.46136363636363,
                "end_time": 78.67954545454545,
                "pitch": 33,
                "velocity": 101,
                "duration": 0.2181818181818187,
                "tempo": 120.0
            },
            {
                "start_time": 78.69772727272726,
                "end_time": 78.79772727272727,
                "pitch": 35,
                "velocity": 101,
                "duration": 0.10000000000000853,
                "tempo": 120.0
            },
            {
                "start_time": 78.81590909090909,
                "end_time": 79.03636363636363,
                "pitch": 27,
                "velocity": 101,
                "duration": 0.2204545454545439,
                "tempo": 120.0
            },
            {
                "start_time": 79.07045454545454,
                "end_time": 79.17272727272727,
                "pitch": 33,
                "velocity": 101,
                "duration": 0.10227272727273373,
                "tempo": 120.0
            },
            {
                "start_time": 79.19090909090909,
                "end_time": 79.40681818181818,
                "pitch": 52,
                "velocity": 101,
                "duration": 0.2159090909090935,
                "tempo": 120.0
            },
            {
                "start_time": 79.42272727272727,
                "end_time": 79.63181818181818,
                "pitch": 50,
                "velocity": 101,
                "duration": 0.20909090909090366,
                "tempo": 120.0
            },
            {
                "start_time": 79.66363636363636,
                "end_time": 79.7590909090909,
                "pitch": 35,
                "velocity": 101,
                "duration": 0.0954545454545439,
                "tempo": 120.0
            },
            {
                "start_time": 79.77954545454546,
                "end_time": 79.99772727272727,
                "pitch": 52,
                "velocity": 101,
                "duration": 0.2181818181818187,
                "tempo": 120.0
            },
            {
                "start_time": 80.01590909090909,
                "end_time": 80.25227272727273,
                "pitch": 35,
                "velocity": 101,
                "duration": 0.23636363636363455,
                "tempo": 120.0
            },
            {
                "start_time": 80.27045454545454,
                "end_time": 80.36818181818181,
                "pitch": 38,
                "velocity": 101,
                "duration": 0.09772727272726911,
                "tempo": 120.0
            },
            {
                "start_time": 80.38636363636363,
                "end_time": 80.6,
                "pitch": 33,
                "velocity": 101,
                "duration": 0.2136363636363683,
                "tempo": 120.0
            },
            {
                "start_time": 80.61590909090908,
                "end_time": 80.71363636363635,
                "pitch": 35,
                "velocity": 101,
                "duration": 0.09772727272726911,
                "tempo": 120.0
            },
            {
                "start_time": 80.74772727272727,
                "end_time": 80.97045454545454,
                "pitch": 27,
                "velocity": 101,
                "duration": 0.2227272727272691,
                "tempo": 120.0
            },
            {
                "start_time": 80.98636363636363,
                "end_time": 81.08863636363635,
                "pitch": 33,
                "velocity": 101,
                "duration": 0.10227272727271952,
                "tempo": 120.0
            },
            {
                "start_time": 81.10681818181818,
                "end_time": 81.325,
                "pitch": 52,
                "velocity": 101,
                "duration": 0.2181818181818187,
                "tempo": 120.0
            },
            {
                "start_time": 81.35909090909091,
                "end_time": 81.57045454545454,
                "pitch": 50,
                "velocity": 101,
                "duration": 0.21136363636362887,
                "tempo": 120.0
            },
            {
                "start_time": 81.58863636363635,
                "end_time": 81.68636363636364,
                "pitch": 35,
                "velocity": 101,
                "duration": 0.09772727272728332,
                "tempo": 120.0
            },
            {
                "start_time": 81.70227272727273,
                "end_time": 81.91818181818181,
                "pitch": 52,
                "velocity": 101,
                "duration": 0.21590909090907928,
                "tempo": 120.0
            },
            {
                "start_time": 81.95454545454545,
                "end_time": 82.16818181818181,
                "pitch": 35,
                "velocity": 101,
                "duration": 0.21363636363635408,
                "tempo": 120.0
            },
            {
                "start_time": 82.18636363636364,
                "end_time": 82.28863636363636,
                "pitch": 38,
                "velocity": 101,
                "duration": 0.10227272727271952,
                "tempo": 120.0
            },
            {
                "start_time": 82.30681818181817,
                "end_time": 82.55,
                "pitch": 33,
                "velocity": 101,
                "duration": 0.24318181818182438,
                "tempo": 120.0
            },
            {
                "start_time": 82.56818181818181,
                "end_time": 82.67272727272727,
                "pitch": 35,
                "velocity": 101,
                "duration": 0.10454545454545894,
                "tempo": 120.0
            },
            {
                "start_time": 82.68863636363636,
                "end_time": 82.90227272727272,
                "pitch": 27,
                "velocity": 101,
                "duration": 0.21363636363635408,
                "tempo": 120.0
            },
            {
                "start_time": 82.92045454545455,
                "end_time": 83.01818181818182,
                "pitch": 33,
                "velocity": 101,
                "duration": 0.09772727272726911,
                "tempo": 120.0
            },
            {
                "start_time": 83.05227272727272,
                "end_time": 83.26363636363637,
                "pitch": 52,
                "velocity": 101,
                "duration": 0.21136363636364308,
                "tempo": 120.0
            },
            {
                "start_time": 83.27954545454546,
                "end_time": 83.49545454545454,
                "pitch": 50,
                "velocity": 101,
                "duration": 0.21590909090907928,
                "tempo": 120.0
            },
            {
                "start_time": 83.51136363636363,
                "end_time": 83.60909090909091,
                "pitch": 35,
                "velocity": 101,
                "duration": 0.09772727272728332,
                "tempo": 120.0
            },
            {
                "start_time": 83.64318181818182,
                "end_time": 83.86818181818181,
                "pitch": 52,
                "velocity": 101,
                "duration": 0.22499999999999432,
                "tempo": 120.0
            },
            {
                "start_time": 83.88636363636363,
                "end_time": 84.11136363636363,
                "pitch": 35,
                "velocity": 101,
                "duration": 0.22500000000000853,
                "tempo": 120.0
            },
            {
                "start_time": 84.12954545454545,
                "end_time": 84.225,
                "pitch": 38,
                "velocity": 101,
                "duration": 0.0954545454545439,
                "tempo": 120.0
            },
            {
                "start_time": 84.25681818181818,
                "end_time": 84.4659090909091,
                "pitch": 33,
                "velocity": 101,
                "duration": 0.20909090909091788,
                "tempo": 120.0
            },
            {
                "start_time": 84.48181818181818,
                "end_time": 84.57727272727273,
                "pitch": 35,
                "velocity": 101,
                "duration": 0.0954545454545439,
                "tempo": 120.0
            },
            {
                "start_time": 84.72954545454544,
                "end_time": 84.95227272727273,
                "pitch": 28,
                "velocity": 101,
                "duration": 0.22272727272728332,
                "tempo": 120.0
            },
            {
                "start_time": 84.97045454545454,
                "end_time": 85.07272727272726,
                "pitch": 30,
                "velocity": 101,
                "duration": 0.10227272727271952,
                "tempo": 120.0
            },
            {
                "start_time": 85.0909090909091,
                "end_time": 85.19090909090909,
                "pitch": 33,
                "velocity": 101,
                "duration": 0.09999999999999432,
                "tempo": 120.0
            },
            {
                "start_time": 85.2090909090909,
                "end_time": 85.31136363636364,
                "pitch": 31,
                "velocity": 101,
                "duration": 0.10227272727273373,
                "tempo": 120.0
            },
            {
                "start_time": 85.34545454545454,
                "end_time": 85.44772727272726,
                "pitch": 30,
                "velocity": 101,
                "duration": 0.10227272727271952,
                "tempo": 120.0
            },
            {
                "start_time": 85.4659090909091,
                "end_time": 85.56818181818181,
                "pitch": 26,
                "velocity": 101,
                "duration": 0.10227272727271952,
                "tempo": 120.0
            },
            {
                "start_time": 85.5909090909091,
                "end_time": 85.80454545454545,
                "pitch": 33,
                "velocity": 101,
                "duration": 0.21363636363635408,
                "tempo": 120.0
            },
            {
                "start_time": 85.82045454545454,
                "end_time": 85.92045454545455,
                "pitch": 33,
                "velocity": 101,
                "duration": 0.10000000000000853,
                "tempo": 120.0
            },
            {
                "start_time": 85.95454545454545,
                "end_time": 86.05681818181817,
                "pitch": 33,
                "velocity": 101,
                "duration": 0.10227272727271952,
                "tempo": 120.0
            },
            {
                "start_time": 86.07272727272726,
                "end_time": 86.17272727272727,
                "pitch": 33,
                "velocity": 101,
                "duration": 0.10000000000000853,
                "tempo": 120.0
            },
            {
                "start_time": 86.19090909090909,
                "end_time": 86.28863636363636,
                "pitch": 33,
                "velocity": 101,
                "duration": 0.09772727272726911,
                "tempo": 120.0
            },
            {
                "start_time": 86.30681818181817,
                "end_time": 86.40681818181818,
                "pitch": 33,
                "velocity": 101,
                "duration": 0.10000000000000853,
                "tempo": 120.0
            },
            {
                "start_time": 86.44090909090909,
                "end_time": 86.54090909090908,
                "pitch": 33,
                "velocity": 101,
                "duration": 0.09999999999999432,
                "tempo": 120.0
            },
            {
                "start_time": 86.55681818181817,
                "end_time": 86.77499999999999,
                "pitch": 33,
                "velocity": 101,
                "duration": 0.2181818181818187,
                "tempo": 120.0
            },
            {
                "start_time": 86.79318181818181,
                "end_time": 86.89318181818182,
                "pitch": 33,
                "velocity": 101,
                "duration": 0.10000000000000853,
                "tempo": 120.0
            },
            {
                "start_time": 86.91136363636363,
                "end_time": 87.01136363636363,
                "pitch": 33,
                "velocity": 101,
                "duration": 0.09999999999999432,
                "tempo": 120.0
            },
            {
                "start_time": 87.04545454545455,
                "end_time": 87.14772727272727,
                "pitch": 33,
                "velocity": 101,
                "duration": 0.10227272727271952,
                "tempo": 120.0
            },
            {
                "start_time": 87.16363636363636,
                "end_time": 87.26818181818182,
                "pitch": 33,
                "velocity": 101,
                "duration": 0.10454545454545894,
                "tempo": 120.0
            },
            {
                "start_time": 87.28636363636363,
                "end_time": 87.38636363636363,
                "pitch": 33,
                "velocity": 101,
                "duration": 0.09999999999999432,
                "tempo": 120.0
            },
            {
                "start_time": 87.40454545454546,
                "end_time": 87.50681818181818,
                "pitch": 33,
                "velocity": 101,
                "duration": 0.10227272727271952,
                "tempo": 120.0
            },
            {
                "start_time": 87.52499999999999,
                "end_time": 87.75454545454545,
                "pitch": 35,
                "velocity": 101,
                "duration": 0.22954545454545894,
                "tempo": 120.0
            },
            {
                "start_time": 87.77045454545454,
                "end_time": 87.86818181818181,
                "pitch": 35,
                "velocity": 101,
                "duration": 0.09772727272726911,
                "tempo": 120.0
            },
            {
                "start_time": 87.8840909090909,
                "end_time": 87.98409090909091,
                "pitch": 35,
                "velocity": 101,
                "duration": 0.10000000000000853,
                "tempo": 120.0
            },
            {
                "start_time": 88.0,
                "end_time": 88.1,
                "pitch": 35,
                "velocity": 101,
                "duration": 0.09999999999999432,
                "tempo": 120.0
            },
            {
                "start_time": 88.11818181818181,
                "end_time": 88.21818181818182,
                "pitch": 35,
                "velocity": 101,
                "duration": 0.10000000000000853,
                "tempo": 120.0
            },
            {
                "start_time": 88.25227272727273,
                "end_time": 88.35227272727272,
                "pitch": 35,
                "velocity": 101,
                "duration": 0.09999999999999432,
                "tempo": 120.0
            },
            {
                "start_time": 88.37045454545454,
                "end_time": 88.47045454545454,
                "pitch": 35,
                "velocity": 101,
                "duration": 0.10000000000000853,
                "tempo": 120.0
            },
            {
                "start_time": 88.48863636363636,
                "end_time": 88.70681818181818,
                "pitch": 35,
                "velocity": 101,
                "duration": 0.2181818181818187,
                "tempo": 120.0
            },
            {
                "start_time": 88.74090909090908,
                "end_time": 88.8409090909091,
                "pitch": 35,
                "velocity": 101,
                "duration": 0.10000000000000853,
                "tempo": 120.0
            },
            {
                "start_time": 88.85681818181818,
                "end_time": 88.9590909090909,
                "pitch": 35,
                "velocity": 101,
                "duration": 0.10227272727271952,
                "tempo": 120.0
            },
            {
                "start_time": 88.975,
                "end_time": 89.07727272727273,
                "pitch": 35,
                "velocity": 101,
                "duration": 0.10227272727273373,
                "tempo": 120.0
            },
            {
                "start_time": 89.09545454545454,
                "end_time": 89.19772727272726,
                "pitch": 35,
                "velocity": 101,
                "duration": 0.10227272727271952,
                "tempo": 120.0
            },
            {
                "start_time": 89.2159090909091,
                "end_time": 89.31590909090909,
                "pitch": 35,
                "velocity": 101,
                "duration": 0.09999999999999432,
                "tempo": 120.0
            },
            {
                "start_time": 89.35227272727272,
                "end_time": 89.45454545454545,
                "pitch": 35,
                "velocity": 101,
                "duration": 0.10227272727273373,
                "tempo": 120.0
            },
            {
                "start_time": 89.47272727272727,
                "end_time": 89.68863636363636,
                "pitch": 36,
                "velocity": 101,
                "duration": 0.2159090909090935,
                "tempo": 120.0
            },
            {
                "start_time": 89.70681818181818,
                "end_time": 89.80681818181817,
                "pitch": 36,
                "velocity": 101,
                "duration": 0.09999999999999432,
                "tempo": 120.0
            },
            {
                "start_time": 89.82499999999999,
                "end_time": 89.925,
                "pitch": 36,
                "velocity": 101,
                "duration": 0.10000000000000853,
                "tempo": 120.0
            },
            {
                "start_time": 89.9590909090909,
                "end_time": 90.06136363636364,
                "pitch": 36,
                "velocity": 101,
                "duration": 0.10227272727273373,
                "tempo": 120.0
            },
            {
                "start_time": 90.07954545454545,
                "end_time": 90.18181818181817,
                "pitch": 36,
                "velocity": 101,
                "duration": 0.10227272727271952,
                "tempo": 120.0
            },
            {
                "start_time": 90.19772727272726,
                "end_time": 90.3,
                "pitch": 36,
                "velocity": 101,
                "duration": 0.10227272727273373,
                "tempo": 120.0
            },
            {
                "start_time": 90.31818181818181,
                "end_time": 90.42045454545455,
                "pitch": 36,
                "velocity": 101,
                "duration": 0.10227272727273373,
                "tempo": 120.0
            },
            {
                "start_time": 90.43863636363636,
                "end_time": 90.66136363636363,
                "pitch": 36,
                "velocity": 101,
                "duration": 0.2227272727272691,
                "tempo": 120.0
            },
            {
                "start_time": 90.67954545454545,
                "end_time": 90.77499999999999,
                "pitch": 36,
                "velocity": 101,
                "duration": 0.0954545454545439,
                "tempo": 120.0
            },
            {
                "start_time": 90.79090909090908,
                "end_time": 90.88636363636363,
                "pitch": 36,
                "velocity": 101,
                "duration": 0.0954545454545439,
                "tempo": 120.0
            },
            {
                "start_time": 90.90227272727272,
                "end_time": 91.00454545454545,
                "pitch": 36,
                "velocity": 101,
                "duration": 0.10227272727273373,
                "tempo": 120.0
            },
            {
                "start_time": 91.03863636363636,
                "end_time": 91.14090909090909,
                "pitch": 36,
                "velocity": 101,
                "duration": 0.10227272727273373,
                "tempo": 120.0
            },
            {
                "start_time": 91.1590909090909,
                "end_time": 91.26136363636363,
                "pitch": 36,
                "velocity": 101,
                "duration": 0.10227272727271952,
                "tempo": 120.0
            },
            {
                "start_time": 91.27954545454546,
                "end_time": 91.38181818181818,
                "pitch": 36,
                "velocity": 101,
                "duration": 0.10227272727271952,
                "tempo": 120.0
            },
            {
                "start_time": 91.39999999999999,
                "end_time": 91.62045454545454,
                "pitch": 38,
                "velocity": 101,
                "duration": 0.2204545454545439,
                "tempo": 120.0
            },
            {
                "start_time": 91.65454545454546,
                "end_time": 91.75681818181818,
                "pitch": 38,
                "velocity": 101,
                "duration": 0.10227272727271952,
                "tempo": 120.0
            },
            {
                "start_time": 91.77499999999999,
                "end_time": 91.87727272727273,
                "pitch": 38,
                "velocity": 101,
                "duration": 0.10227272727273373,
                "tempo": 120.0
            },
            {
                "start_time": 91.89545454545454,
                "end_time": 91.99545454545454,
                "pitch": 38,
                "velocity": 101,
                "duration": 0.09999999999999432,
                "tempo": 120.0
            },
            {
                "start_time": 92.01136363636363,
                "end_time": 92.11363636363636,
                "pitch": 38,
                "velocity": 101,
                "duration": 0.10227272727273373,
                "tempo": 120.0
            },
            {
                "start_time": 92.12954545454545,
                "end_time": 92.22954545454544,
                "pitch": 38,
                "velocity": 101,
                "duration": 0.09999999999999432,
                "tempo": 120.0
            },
            {
                "start_time": 92.26363636363637,
                "end_time": 92.36590909090908,
                "pitch": 38,
                "velocity": 101,
                "duration": 0.10227272727271952,
                "tempo": 120.0
            },
            {
                "start_time": 92.38181818181818,
                "end_time": 92.6,
                "pitch": 38,
                "velocity": 101,
                "duration": 0.2181818181818187,
                "tempo": 120.0
            },
            {
                "start_time": 92.61818181818181,
                "end_time": 92.71818181818182,
                "pitch": 38,
                "velocity": 101,
                "duration": 0.10000000000000853,
                "tempo": 120.0
            },
            {
                "start_time": 92.73636363636363,
                "end_time": 92.83636363636363,
                "pitch": 38,
                "velocity": 101,
                "duration": 0.09999999999999432,
                "tempo": 120.0
            },
            {
                "start_time": 92.87045454545454,
                "end_time": 92.97045454545454,
                "pitch": 38,
                "velocity": 101,
                "duration": 0.10000000000000853,
                "tempo": 120.0
            },
            {
                "start_time": 92.98863636363636,
                "end_time": 93.08863636363635,
                "pitch": 38,
                "velocity": 101,
                "duration": 0.09999999999999432,
                "tempo": 120.0
            },
            {
                "start_time": 93.10681818181818,
                "end_time": 93.20681818181818,
                "pitch": 38,
                "velocity": 101,
                "duration": 0.09999999999999432,
                "tempo": 120.0
            },
            {
                "start_time": 93.225,
                "end_time": 93.32499999999999,
                "pitch": 38,
                "velocity": 101,
                "duration": 0.09999999999999432,
                "tempo": 120.0
            },
            {
                "start_time": 93.35909090909091,
                "end_time": 93.57954545454545,
                "pitch": 33,
                "velocity": 101,
                "duration": 0.2204545454545439,
                "tempo": 120.0
            },
            {
                "start_time": 93.59772727272727,
                "end_time": 93.69999999999999,
                "pitch": 33,
                "velocity": 101,
                "duration": 0.10227272727271952,
                "tempo": 120.0
            },
            {
                "start_time": 93.71590909090908,
                "end_time": 93.81818181818181,
                "pitch": 33,
                "velocity": 101,
                "duration": 0.10227272727273373,
                "tempo": 120.0
            },
            {
                "start_time": 93.83636363636363,
                "end_time": 93.9340909090909,
                "pitch": 33,
                "velocity": 101,
                "duration": 0.09772727272726911,
                "tempo": 120.0
            },
            {
                "start_time": 93.96818181818182,
                "end_time": 94.06590909090909,
                "pitch": 33,
                "velocity": 101,
                "duration": 0.09772727272726911,
                "tempo": 120.0
            },
            {
                "start_time": 94.0840909090909,
                "end_time": 94.18181818181817,
                "pitch": 33,
                "velocity": 101,
                "duration": 0.09772727272726911,
                "tempo": 120.0
            },
            {
                "start_time": 94.19772727272726,
                "end_time": 94.29545454545455,
                "pitch": 33,
                "velocity": 101,
                "duration": 0.09772727272728332,
                "tempo": 120.0
            },
            {
                "start_time": 94.31363636363636,
                "end_time": 94.53181818181818,
                "pitch": 33,
                "velocity": 101,
                "duration": 0.2181818181818187,
                "tempo": 120.0
            },
            {
                "start_time": 94.56590909090909,
                "end_time": 94.66590909090908,
                "pitch": 33,
                "velocity": 101,
                "duration": 0.09999999999999432,
                "tempo": 120.0
            },
            {
                "start_time": 94.6840909090909,
                "end_time": 94.7840909090909,
                "pitch": 33,
                "velocity": 101,
                "duration": 0.10000000000000853,
                "tempo": 120.0
            },
            {
                "start_time": 94.80227272727272,
                "end_time": 94.89999999999999,
                "pitch": 33,
                "velocity": 101,
                "duration": 0.09772727272726911,
                "tempo": 120.0
            },
            {
                "start_time": 94.91818181818181,
                "end_time": 95.01818181818182,
                "pitch": 33,
                "velocity": 101,
                "duration": 0.10000000000000853,
                "tempo": 120.0
            },
            {
                "start_time": 95.05227272727272,
                "end_time": 95.14999999999999,
                "pitch": 33,
                "velocity": 101,
                "duration": 0.09772727272726911,
                "tempo": 120.0
            },
            {
                "start_time": 95.16818181818181,
                "end_time": 95.26818181818182,
                "pitch": 33,
                "velocity": 101,
                "duration": 0.10000000000000853,
                "tempo": 120.0
            },
            {
                "start_time": 95.2840909090909,
                "end_time": 95.50681818181818,
                "pitch": 35,
                "velocity": 101,
                "duration": 0.2227272727272691,
                "tempo": 120.0
            },
            {
                "start_time": 95.52499999999999,
                "end_time": 95.625,
                "pitch": 35,
                "velocity": 101,
                "duration": 0.10000000000000853,
                "tempo": 120.0
            },
            {
                "start_time": 95.66136363636363,
                "end_time": 95.76363636363637,
                "pitch": 35,
                "velocity": 101,
                "duration": 0.10227272727273373,
                "tempo": 120.0
            },
            {
                "start_time": 95.78181818181818,
                "end_time": 95.88181818181818,
                "pitch": 35,
                "velocity": 101,
                "duration": 0.09999999999999432,
                "tempo": 120.0
            },
            {
                "start_time": 95.89772727272727,
                "end_time": 95.99772727272727,
                "pitch": 35,
                "velocity": 101,
                "duration": 0.10000000000000853,
                "tempo": 120.0
            },
            {
                "start_time": 96.01590909090909,
                "end_time": 96.11590909090908,
                "pitch": 35,
                "velocity": 101,
                "duration": 0.09999999999999432,
                "tempo": 120.0
            },
            {
                "start_time": 96.1340909090909,
                "end_time": 96.23409090909091,
                "pitch": 35,
                "velocity": 101,
                "duration": 0.10000000000000853,
                "tempo": 120.0
            },
            {
                "start_time": 96.26818181818182,
                "end_time": 96.48636363636363,
                "pitch": 35,
                "velocity": 101,
                "duration": 0.2181818181818187,
                "tempo": 120.0
            },
            {
                "start_time": 96.50227272727273,
                "end_time": 96.60227272727272,
                "pitch": 35,
                "velocity": 101,
                "duration": 0.09999999999999432,
                "tempo": 120.0
            },
            {
                "start_time": 96.61818181818181,
                "end_time": 96.71818181818182,
                "pitch": 35,
                "velocity": 101,
                "duration": 0.10000000000000853,
                "tempo": 120.0
            },
            {
                "start_time": 96.73636363636363,
                "end_time": 96.8340909090909,
                "pitch": 35,
                "velocity": 101,
                "duration": 0.09772727272726911,
                "tempo": 120.0
            },
            {
                "start_time": 96.86590909090908,
                "end_time": 96.96590909090908,
                "pitch": 35,
                "velocity": 101,
                "duration": 0.09999999999999432,
                "tempo": 120.0
            },
            {
                "start_time": 96.98409090909091,
                "end_time": 97.07954545454545,
                "pitch": 35,
                "velocity": 101,
                "duration": 0.0954545454545439,
                "tempo": 120.0
            },
            {
                "start_time": 97.09772727272727,
                "end_time": 97.19545454545454,
                "pitch": 35,
                "velocity": 101,
                "duration": 0.09772727272726911,
                "tempo": 120.0
            },
            {
                "start_time": 97.21363636363635,
                "end_time": 97.31363636363636,
                "pitch": 28,
                "velocity": 101,
                "duration": 0.10000000000000853,
                "tempo": 120.0
            },
            {
                "start_time": 97.34772727272727,
                "end_time": 97.44999999999999,
                "pitch": 28,
                "velocity": 101,
                "duration": 0.10227272727271952,
                "tempo": 120.0
            },
            {
                "start_time": 97.46818181818182,
                "end_time": 97.57045454545454,
                "pitch": 28,
                "velocity": 101,
                "duration": 0.10227272727271952,
                "tempo": 120.0
            },
            {
                "start_time": 97.58863636363635,
                "end_time": 97.68863636363636,
                "pitch": 28,
                "velocity": 101,
                "duration": 0.10000000000000853,
                "tempo": 120.0
            },
            {
                "start_time": 97.70681818181818,
                "end_time": 98.175,
                "pitch": 28,
                "velocity": 101,
                "duration": 0.4681818181818187,
                "tempo": 120.0
            },
            {
                "start_time": 98.19090909090909,
                "end_time": 98.29090909090908,
                "pitch": 28,
                "velocity": 101,
                "duration": 0.09999999999999432,
                "tempo": 120.0
            },
            {
                "start_time": 98.3090909090909,
                "end_time": 98.4090909090909,
                "pitch": 28,
                "velocity": 101,
                "duration": 0.10000000000000853,
                "tempo": 120.0
            },
            {
                "start_time": 98.42727272727272,
                "end_time": 98.52727272727272,
                "pitch": 28,
                "velocity": 101,
                "duration": 0.09999999999999432,
                "tempo": 120.0
            },
            {
                "start_time": 98.56136363636364,
                "end_time": 98.66136363636363,
                "pitch": 28,
                "velocity": 101,
                "duration": 0.09999999999999432,
                "tempo": 120.0
            },
            {
                "start_time": 98.67954545454545,
                "end_time": 99.14090909090909,
                "pitch": 28,
                "velocity": 101,
                "duration": 0.4613636363636431,
                "tempo": 120.0
            },
            {
                "start_time": 99.175,
                "end_time": 99.27499999999999,
                "pitch": 28,
                "velocity": 101,
                "duration": 0.09999999999999432,
                "tempo": 120.0
            },
            {
                "start_time": 99.29090909090908,
                "end_time": 99.39090909090909,
                "pitch": 28,
                "velocity": 101,
                "duration": 0.10000000000000853,
                "tempo": 120.0
            },
            {
                "start_time": 99.4090909090909,
                "end_time": 99.5090909090909,
                "pitch": 28,
                "velocity": 101,
                "duration": 0.09999999999999432,
                "tempo": 120.0
            },
            {
                "start_time": 99.52499999999999,
                "end_time": 99.625,
                "pitch": 28,
                "velocity": 101,
                "duration": 0.10000000000000853,
                "tempo": 120.0
            },
            {
                "start_time": 99.6590909090909,
                "end_time": 100.12045454545454,
                "pitch": 28,
                "velocity": 101,
                "duration": 0.46136363636362887,
                "tempo": 120.0
            },
            {
                "start_time": 100.13863636363637,
                "end_time": 100.36136363636363,
                "pitch": 28,
                "velocity": 101,
                "duration": 0.2227272727272691,
                "tempo": 120.0
            },
            {
                "start_time": 100.37727272727273,
                "end_time": 100.58636363636363,
                "pitch": 28,
                "velocity": 101,
                "duration": 0.20909090909090366,
                "tempo": 120.0
            },
            {
                "start_time": 100.60227272727272,
                "end_time": 100.70454545454545,
                "pitch": 33,
                "velocity": 101,
                "duration": 0.10227272727273373,
                "tempo": 120.0
            },
            {
                "start_time": 100.72272727272727,
                "end_time": 100.82499999999999,
                "pitch": 31,
                "velocity": 101,
                "duration": 0.10227272727271952,
                "tempo": 120.0
            },
            {
                "start_time": 100.85909090909091,
                "end_time": 100.96136363636363,
                "pitch": 30,
                "velocity": 101,
                "duration": 0.10227272727271952,
                "tempo": 120.0
            },
            {
                "start_time": 100.97954545454544,
                "end_time": 101.08181818181818,
                "pitch": 26,
                "velocity": 101,
                "duration": 0.10227272727273373,
                "tempo": 120.0
            },
            {
                "start_time": 101.10227272727272,
                "end_time": 101.32045454545454,
                "pitch": 33,
                "velocity": 101,
                "duration": 0.2181818181818187,
                "tempo": 120.0
            },
            {
                "start_time": 101.33863636363635,
                "end_time": 101.43863636363636,
                "pitch": 33,
                "velocity": 101,
                "duration": 0.10000000000000853,
                "tempo": 120.0
            },
            {
                "start_time": 101.475,
                "end_time": 101.57727272727273,
                "pitch": 33,
                "velocity": 101,
                "duration": 0.10227272727273373,
                "tempo": 120.0
            },
            {
                "start_time": 101.59318181818182,
                "end_time": 101.69318181818181,
                "pitch": 33,
                "velocity": 101,
                "duration": 0.09999999999999432,
                "tempo": 120.0
            },
            {
                "start_time": 101.71136363636363,
                "end_time": 101.81136363636364,
                "pitch": 33,
                "velocity": 101,
                "duration": 0.10000000000000853,
                "tempo": 120.0
            },
            {
                "start_time": 101.82727272727273,
                "end_time": 101.92727272727272,
                "pitch": 33,
                "velocity": 101,
                "duration": 0.09999999999999432,
                "tempo": 120.0
            },
            {
                "start_time": 101.96136363636363,
                "end_time": 102.06136363636364,
                "pitch": 33,
                "velocity": 101,
                "duration": 0.10000000000000853,
                "tempo": 120.0
            },
            {
                "start_time": 102.07727272727273,
                "end_time": 102.29772727272727,
                "pitch": 33,
                "velocity": 101,
                "duration": 0.2204545454545439,
                "tempo": 120.0
            },
            {
                "start_time": 102.31363636363636,
                "end_time": 102.41363636363636,
                "pitch": 33,
                "velocity": 101,
                "duration": 0.09999999999999432,
                "tempo": 120.0
            },
            {
                "start_time": 102.43181818181817,
                "end_time": 102.53181818181818,
                "pitch": 33,
                "velocity": 101,
                "duration": 0.10000000000000853,
                "tempo": 120.0
            },
            {
                "start_time": 102.56590909090909,
                "end_time": 102.66590909090908,
                "pitch": 33,
                "velocity": 101,
                "duration": 0.09999999999999432,
                "tempo": 120.0
            },
            {
                "start_time": 102.6840909090909,
                "end_time": 102.7840909090909,
                "pitch": 33,
                "velocity": 101,
                "duration": 0.10000000000000853,
                "tempo": 120.0
            },
            {
                "start_time": 102.80227272727272,
                "end_time": 102.90227272727272,
                "pitch": 33,
                "velocity": 101,
                "duration": 0.09999999999999432,
                "tempo": 120.0
            },
            {
                "start_time": 102.91818181818181,
                "end_time": 103.02045454545454,
                "pitch": 33,
                "velocity": 101,
                "duration": 0.10227272727273373,
                "tempo": 120.0
            },
            {
                "start_time": 103.03863636363636,
                "end_time": 103.26590909090909,
                "pitch": 35,
                "velocity": 101,
                "duration": 0.22727272727273373,
                "tempo": 120.0
            },
            {
                "start_time": 103.2840909090909,
                "end_time": 103.38181818181818,
                "pitch": 35,
                "velocity": 101,
                "duration": 0.09772727272726911,
                "tempo": 120.0
            },
            {
                "start_time": 103.39772727272727,
                "end_time": 103.49545454545454,
                "pitch": 35,
                "velocity": 101,
                "duration": 0.09772727272726911,
                "tempo": 120.0
            },
            {
                "start_time": 103.51363636363637,
                "end_time": 103.61590909090908,
                "pitch": 35,
                "velocity": 101,
                "duration": 0.10227272727271952,
                "tempo": 120.0
            },
            {
                "start_time": 103.64999999999999,
                "end_time": 103.75227272727273,
                "pitch": 35,
                "velocity": 101,
                "duration": 0.10227272727273373,
                "tempo": 120.0
            },
            {
                "start_time": 103.76818181818182,
                "end_time": 103.87045454545454,
                "pitch": 35,
                "velocity": 101,
                "duration": 0.10227272727271952,
                "tempo": 120.0
            },
            {
                "start_time": 103.88863636363637,
                "end_time": 103.99090909090908,
                "pitch": 35,
                "velocity": 101,
                "duration": 0.10227272727271952,
                "tempo": 120.0
            },
            {
                "start_time": 104.0090909090909,
                "end_time": 104.22727272727272,
                "pitch": 35,
                "velocity": 101,
                "duration": 0.2181818181818187,
                "tempo": 120.0
            },
            {
                "start_time": 104.26136363636363,
                "end_time": 104.36136363636363,
                "pitch": 35,
                "velocity": 101,
                "duration": 0.10000000000000853,
                "tempo": 120.0
            },
            {
                "start_time": 104.37954545454545,
                "end_time": 104.47954545454544,
                "pitch": 35,
                "velocity": 101,
                "duration": 0.09999999999999432,
                "tempo": 120.0
            },
            {
                "start_time": 104.49772727272726,
                "end_time": 104.59772727272727,
                "pitch": 35,
                "velocity": 101,
                "duration": 0.10000000000000853,
                "tempo": 120.0
            },
            {
                "start_time": 104.61363636363636,
                "end_time": 104.71590909090908,
                "pitch": 35,
                "velocity": 101,
                "duration": 0.10227272727271952,
                "tempo": 120.0
            },
            {
                "start_time": 104.73181818181817,
                "end_time": 104.83181818181818,
                "pitch": 35,
                "velocity": 101,
                "duration": 0.10000000000000853,
                "tempo": 120.0
            },
            {
                "start_time": 104.86590909090908,
                "end_time": 104.96818181818182,
                "pitch": 35,
                "velocity": 101,
                "duration": 0.10227272727273373,
                "tempo": 120.0
            },
            {
                "start_time": 104.98636363636363,
                "end_time": 105.20681818181818,
                "pitch": 36,
                "velocity": 101,
                "duration": 0.2204545454545439,
                "tempo": 120.0
            },
            {
                "start_time": 105.225,
                "end_time": 105.32499999999999,
                "pitch": 36,
                "velocity": 101,
                "duration": 0.09999999999999432,
                "tempo": 120.0
            },
            {
                "start_time": 105.34318181818182,
                "end_time": 105.44545454545454,
                "pitch": 36,
                "velocity": 101,
                "duration": 0.10227272727271952,
                "tempo": 120.0
            },
            {
                "start_time": 105.47954545454544,
                "end_time": 105.57954545454545,
                "pitch": 36,
                "velocity": 101,
                "duration": 0.10000000000000853,
                "tempo": 120.0
            },
            {
                "start_time": 105.59772727272727,
                "end_time": 105.69772727272726,
                "pitch": 36,
                "velocity": 101,
                "duration": 0.09999999999999432,
                "tempo": 120.0
            },
            {
                "start_time": 105.71590909090908,
                "end_time": 105.81590909090909,
                "pitch": 36,
                "velocity": 101,
                "duration": 0.10000000000000853,
                "tempo": 120.0
            },
            {
                "start_time": 105.8340909090909,
                "end_time": 105.9340909090909,
                "pitch": 36,
                "velocity": 101,
                "duration": 0.09999999999999432,
                "tempo": 120.0
            },
            {
                "start_time": 105.96818181818182,
                "end_time": 106.18636363636364,
                "pitch": 36,
                "velocity": 101,
                "duration": 0.2181818181818187,
                "tempo": 120.0
            },
            {
                "start_time": 106.20454545454545,
                "end_time": 106.30454545454545,
                "pitch": 36,
                "velocity": 101,
                "duration": 0.09999999999999432,
                "tempo": 120.0
            },
            {
                "start_time": 106.32045454545454,
                "end_time": 106.42045454545455,
                "pitch": 36,
                "velocity": 101,
                "duration": 0.10000000000000853,
                "tempo": 120.0
            },
            {
                "start_time": 106.43863636363636,
                "end_time": 106.53636363636363,
                "pitch": 36,
                "velocity": 101,
                "duration": 0.09772727272726911,
                "tempo": 120.0
            },
            {
                "start_time": 106.57045454545454,
                "end_time": 106.66818181818181,
                "pitch": 36,
                "velocity": 101,
                "duration": 0.09772727272726911,
                "tempo": 120.0
            },
            {
                "start_time": 106.68636363636364,
                "end_time": 106.7840909090909,
                "pitch": 36,
                "velocity": 101,
                "duration": 0.09772727272726911,
                "tempo": 120.0
            },
            {
                "start_time": 106.8,
                "end_time": 106.89772727272727,
                "pitch": 36,
                "velocity": 101,
                "duration": 0.09772727272726911,
                "tempo": 120.0
            },
            {
                "start_time": 106.91590909090908,
                "end_time": 107.13636363636363,
                "pitch": 38,
                "velocity": 101,
                "duration": 0.2204545454545439,
                "tempo": 120.0
            },
            {
                "start_time": 107.17045454545455,
                "end_time": 107.27272727272727,
                "pitch": 38,
                "velocity": 101,
                "duration": 0.10227272727271952,
                "tempo": 120.0
            },
            {
                "start_time": 107.29090909090908,
                "end_time": 107.39318181818182,
                "pitch": 38,
                "velocity": 101,
                "duration": 0.10227272727273373,
                "tempo": 120.0
            },
            {
                "start_time": 107.41136363636363,
                "end_time": 107.51136363636363,
                "pitch": 38,
                "velocity": 101,
                "duration": 0.09999999999999432,
                "tempo": 120.0
            },
            {
                "start_time": 107.52954545454546,
                "end_time": 107.62954545454545,
                "pitch": 38,
                "velocity": 101,
                "duration": 0.09999999999999432,
                "tempo": 120.0
            },
            {
                "start_time": 107.64545454545454,
                "end_time": 107.74772727272726,
                "pitch": 38,
                "velocity": 101,
                "duration": 0.10227272727271952,
                "tempo": 120.0
            },
            {
                "start_time": 107.78181818181818,
                "end_time": 107.88181818181818,
                "pitch": 38,
                "velocity": 101,
                "duration": 0.09999999999999432,
                "tempo": 120.0
            },
            {
                "start_time": 107.89772727272727,
                "end_time": 108.11590909090908,
                "pitch": 38,
                "velocity": 101,
                "duration": 0.2181818181818187,
                "tempo": 120.0
            },
            {
                "start_time": 108.13181818181818,
                "end_time": 108.23181818181817,
                "pitch": 38,
                "velocity": 101,
                "duration": 0.09999999999999432,
                "tempo": 120.0
            },
            {
                "start_time": 108.26590909090909,
                "end_time": 108.36590909090908,
                "pitch": 38,
                "velocity": 101,
                "duration": 0.09999999999999432,
                "tempo": 120.0
            },
            {
                "start_time": 108.38181818181818,
                "end_time": 108.48409090909091,
                "pitch": 38,
                "velocity": 101,
                "duration": 0.10227272727273373,
                "tempo": 120.0
            },
            {
                "start_time": 108.50227272727273,
                "end_time": 108.60454545454544,
                "pitch": 38,
                "velocity": 101,
                "duration": 0.10227272727271952,
                "tempo": 120.0
            },
            {
                "start_time": 108.62272727272726,
                "end_time": 108.725,
                "pitch": 38,
                "velocity": 101,
                "duration": 0.10227272727273373,
                "tempo": 120.0
            },
            {
                "start_time": 108.74090909090908,
                "end_time": 108.84318181818182,
                "pitch": 38,
                "velocity": 101,
                "duration": 0.10227272727273373,
                "tempo": 120.0
            },
            {
                "start_time": 108.87954545454545,
                "end_time": 109.09545454545454,
                "pitch": 33,
                "velocity": 101,
                "duration": 0.2159090909090935,
                "tempo": 120.0
            },
            {
                "start_time": 109.11363636363636,
                "end_time": 109.21363636363635,
                "pitch": 33,
                "velocity": 101,
                "duration": 0.09999999999999432,
                "tempo": 120.0
            },
            {
                "start_time": 109.23181818181817,
                "end_time": 109.33181818181818,
                "pitch": 33,
                "velocity": 101,
                "duration": 0.10000000000000853,
                "tempo": 120.0
            },
            {
                "start_time": 109.35,
                "end_time": 109.44772727272726,
                "pitch": 33,
                "velocity": 101,
                "duration": 0.09772727272726911,
                "tempo": 120.0
            },
            {
                "start_time": 109.47954545454544,
                "end_time": 109.57954545454545,
                "pitch": 33,
                "velocity": 101,
                "duration": 0.10000000000000853,
                "tempo": 120.0
            },
            {
                "start_time": 109.59545454545454,
                "end_time": 109.69318181818181,
                "pitch": 33,
                "velocity": 101,
                "duration": 0.09772727272726911,
                "tempo": 120.0
            },
            {
                "start_time": 109.71136363636363,
                "end_time": 109.8090909090909,
                "pitch": 33,
                "velocity": 101,
                "duration": 0.09772727272726911,
                "tempo": 120.0
            },
            {
                "start_time": 109.82499999999999,
                "end_time": 110.04318181818181,
                "pitch": 33,
                "velocity": 101,
                "duration": 0.2181818181818187,
                "tempo": 120.0
            },
            {
                "start_time": 110.07727272727273,
                "end_time": 110.175,
                "pitch": 33,
                "velocity": 101,
                "duration": 0.09772727272726911,
                "tempo": 120.0
            },
            {
                "start_time": 110.19318181818181,
                "end_time": 110.29318181818181,
                "pitch": 33,
                "velocity": 101,
                "duration": 0.09999999999999432,
                "tempo": 120.0
            },
            {
                "start_time": 110.3090909090909,
                "end_time": 110.41136363636363,
                "pitch": 33,
                "velocity": 101,
                "duration": 0.10227272727273373,
                "tempo": 120.0
            },
            {
                "start_time": 110.42954545454545,
                "end_time": 110.53181818181818,
                "pitch": 33,
                "velocity": 101,
                "duration": 0.10227272727273373,
                "tempo": 120.0
            },
            {
                "start_time": 110.56818181818181,
                "end_time": 110.66818181818181,
                "pitch": 33,
                "velocity": 101,
                "duration": 0.09999999999999432,
                "tempo": 120.0
            },
            {
                "start_time": 110.68636363636364,
                "end_time": 110.78863636363636,
                "pitch": 33,
                "velocity": 101,
                "duration": 0.10227272727271952,
                "tempo": 120.0
            },
            {
                "start_time": 110.80454545454545,
                "end_time": 111.02272727272727,
                "pitch": 35,
                "velocity": 101,
                "duration": 0.2181818181818187,
                "tempo": 120.0
            },
            {
                "start_time": 111.03863636363636,
                "end_time": 111.13863636363635,
                "pitch": 35,
                "velocity": 101,
                "duration": 0.09999999999999432,
                "tempo": 120.0
            },
            {
                "start_time": 111.17272727272727,
                "end_time": 111.27272727272727,
                "pitch": 35,
                "velocity": 101,
                "duration": 0.09999999999999432,
                "tempo": 120.0
            },
            {
                "start_time": 111.29090909090908,
                "end_time": 111.39090909090909,
                "pitch": 35,
                "velocity": 101,
                "duration": 0.10000000000000853,
                "tempo": 120.0
            },
            {
                "start_time": 111.4090909090909,
                "end_time": 111.51136363636363,
                "pitch": 35,
                "velocity": 101,
                "duration": 0.10227272727271952,
                "tempo": 120.0
            },
            {
                "start_time": 111.52727272727272,
                "end_time": 111.62954545454545,
                "pitch": 35,
                "velocity": 101,
                "duration": 0.10227272727273373,
                "tempo": 120.0
            },
            {
                "start_time": 111.64772727272727,
                "end_time": 111.75,
                "pitch": 35,
                "velocity": 101,
                "duration": 0.10227272727273373,
                "tempo": 120.0
            },
            {
                "start_time": 111.7840909090909,
                "end_time": 112.00454545454545,
                "pitch": 35,
                "velocity": 101,
                "duration": 0.2204545454545439,
                "tempo": 120.0
            },
            {
                "start_time": 112.02045454545454,
                "end_time": 112.12045454545454,
                "pitch": 35,
                "velocity": 101,
                "duration": 0.09999999999999432,
                "tempo": 120.0
            },
            {
                "start_time": 112.13863636363635,
                "end_time": 112.23863636363636,
                "pitch": 35,
                "velocity": 101,
                "duration": 0.10000000000000853,
                "tempo": 120.0
            },
            {
                "start_time": 112.27272727272727,
                "end_time": 112.37272727272726,
                "pitch": 35,
                "velocity": 101,
                "duration": 0.09999999999999432,
                "tempo": 120.0
            },
            {
                "start_time": 112.38863636363635,
                "end_time": 112.48863636363636,
                "pitch": 35,
                "velocity": 101,
                "duration": 0.10000000000000853,
                "tempo": 120.0
            },
            {
                "start_time": 112.50681818181818,
                "end_time": 112.60681818181817,
                "pitch": 35,
                "velocity": 101,
                "duration": 0.09999999999999432,
                "tempo": 120.0
            },
            {
                "start_time": 112.62272727272726,
                "end_time": 112.72272727272727,
                "pitch": 35,
                "velocity": 101,
                "duration": 0.10000000000000853,
                "tempo": 120.0
            },
            {
                "start_time": 112.74318181818181,
                "end_time": 112.83863636363635,
                "pitch": 35,
                "velocity": 101,
                "duration": 0.0954545454545439,
                "tempo": 120.0
            },
            {
                "start_time": 112.87045454545454,
                "end_time": 112.97045454545454,
                "pitch": 35,
                "velocity": 101,
                "duration": 0.10000000000000853,
                "tempo": 120.0
            },
            {
                "start_time": 112.98636363636363,
                "end_time": 113.0840909090909,
                "pitch": 35,
                "velocity": 101,
                "duration": 0.09772727272726911,
                "tempo": 120.0
            },
            {
                "start_time": 113.10227272727272,
                "end_time": 113.19999999999999,
                "pitch": 35,
                "velocity": 101,
                "duration": 0.09772727272726911,
                "tempo": 120.0
            },
            {
                "start_time": 113.21590909090908,
                "end_time": 113.31590909090909,
                "pitch": 35,
                "velocity": 101,
                "duration": 0.10000000000000853,
                "tempo": 120.0
            },
            {
                "start_time": 113.3340909090909,
                "end_time": 113.4340909090909,
                "pitch": 35,
                "velocity": 101,
                "duration": 0.09999999999999432,
                "tempo": 120.0
            },
            {
                "start_time": 113.46818181818182,
                "end_time": 113.56818181818181,
                "pitch": 35,
                "velocity": 101,
                "duration": 0.09999999999999432,
                "tempo": 120.0
            },
            {
                "start_time": 113.58636363636363,
                "end_time": 113.68636363636364,
                "pitch": 35,
                "velocity": 101,
                "duration": 0.10000000000000853,
                "tempo": 120.0
            },
            {
                "start_time": 113.70454545454545,
                "end_time": 113.80681818181817,
                "pitch": 35,
                "velocity": 101,
                "duration": 0.10227272727271952,
                "tempo": 120.0
            },
            {
                "start_time": 113.82499999999999,
                "end_time": 113.925,
                "pitch": 35,
                "velocity": 101,
                "duration": 0.10000000000000853,
                "tempo": 120.0
            },
            {
                "start_time": 113.94318181818181,
                "end_time": 114.04545454545455,
                "pitch": 35,
                "velocity": 101,
                "duration": 0.10227272727273373,
                "tempo": 120.0
            },
            {
                "start_time": 114.08181818181818,
                "end_time": 114.18181818181817,
                "pitch": 35,
                "velocity": 101,
                "duration": 0.09999999999999432,
                "tempo": 120.0
            },
            {
                "start_time": 114.19999999999999,
                "end_time": 114.3,
                "pitch": 35,
                "velocity": 101,
                "duration": 0.10000000000000853,
                "tempo": 120.0
            },
            {
                "start_time": 114.31818181818181,
                "end_time": 114.41818181818181,
                "pitch": 33,
                "velocity": 101,
                "duration": 0.09999999999999432,
                "tempo": 120.0
            },
            {
                "start_time": 114.43636363636364,
                "end_time": 114.53636363636363,
                "pitch": 31,
                "velocity": 101,
                "duration": 0.09999999999999432,
                "tempo": 120.0
            },
            {
                "start_time": 114.57045454545454,
                "end_time": 114.67045454545455,
                "pitch": 30,
                "velocity": 101,
                "duration": 0.10000000000000853,
                "tempo": 120.0
            },
            {
                "start_time": 114.68863636363636,
                "end_time": 114.78863636363636,
                "pitch": 39,
                "velocity": 101,
                "duration": 0.09999999999999432,
                "tempo": 120.0
            },
            {
                "start_time": 114.80681818181817,
                "end_time": 114.9090909090909,
                "pitch": 35,
                "velocity": 101,
                "duration": 0.10227272727273373,
                "tempo": 120.0
            },
            {
                "start_time": 114.92727272727272,
                "end_time": 115.02954545454544,
                "pitch": 42,
                "velocity": 101,
                "duration": 0.10227272727271952,
                "tempo": 120.0
            },
            {
                "start_time": 115.04772727272727,
                "end_time": 115.14999999999999,
                "pitch": 35,
                "velocity": 101,
                "duration": 0.10227272727271952,
                "tempo": 120.0
            },
            {
                "start_time": 115.1840909090909,
                "end_time": 115.2840909090909,
                "pitch": 45,
                "velocity": 101,
                "duration": 0.10000000000000853,
                "tempo": 120.0
            },
            {
                "start_time": 115.30227272727272,
                "end_time": 115.40227272727272,
                "pitch": 38,
                "velocity": 101,
                "duration": 0.09999999999999432,
                "tempo": 120.0
            },
            {
                "start_time": 115.42045454545455,
                "end_time": 115.52045454545454,
                "pitch": 46,
                "velocity": 101,
                "duration": 0.09999999999999432,
                "tempo": 120.0
            },
            {
                "start_time": 115.53636363636363,
                "end_time": 115.63863636363635,
                "pitch": 38,
                "velocity": 101,
                "duration": 0.10227272727271952,
                "tempo": 120.0
            },
            {
                "start_time": 115.65681818181818,
                "end_time": 115.8840909090909,
                "pitch": 47,
                "velocity": 101,
                "duration": 0.22727272727271952,
                "tempo": 120.0
            },
            {
                "start_time": 116.63181818181818,
                "end_time": 116.84318181818182,
                "pitch": 52,
                "velocity": 101,
                "duration": 0.21136363636364308,
                "tempo": 120.0
            },
            {
                "start_time": 116.87727272727273,
                "end_time": 117.09318181818182,
                "pitch": 35,
                "velocity": 101,
                "duration": 0.2159090909090935,
                "tempo": 120.0
            },
            {
                "start_time": 117.11136363636363,
                "end_time": 117.21136363636363,
                "pitch": 38,
                "velocity": 101,
                "duration": 0.09999999999999432,
                "tempo": 120.0
            },
            {
                "start_time": 117.22954545454544,
                "end_time": 117.45227272727273,
                "pitch": 33,
                "velocity": 101,
                "duration": 0.22272727272728332,
                "tempo": 120.0
            },
            {
                "start_time": 117.48636363636363,
                "end_time": 117.58863636363635,
                "pitch": 35,
                "velocity": 101,
                "duration": 0.10227272727271952,
                "tempo": 120.0
            },
            {
                "start_time": 117.60681818181817,
                "end_time": 117.83636363636363,
                "pitch": 27,
                "velocity": 101,
                "duration": 0.22954545454545894,
                "tempo": 120.0
            },
            {
                "start_time": 117.85454545454544,
                "end_time": 117.96136363636363,
                "pitch": 33,
                "velocity": 101,
                "duration": 0.10681818181818414,
                "tempo": 120.0
            },
            {
                "start_time": 117.97954545454544,
                "end_time": 118.22727272727272,
                "pitch": 52,
                "velocity": 101,
                "duration": 0.2477272727272748,
                "tempo": 120.0
            },
            {
                "start_time": 118.24545454545454,
                "end_time": 118.5,
                "pitch": 50,
                "velocity": 101,
                "duration": 0.2545454545454646,
                "tempo": 120.0
            },
            {
                "start_time": 118.51818181818182,
                "end_time": 118.63636363636363,
                "pitch": 35,
                "velocity": 101,
                "duration": 0.11818181818181017,
                "tempo": 120.0
            },
            {
                "start_time": 118.6590909090909,
                "end_time": 118.91590909090908,
                "pitch": 52,
                "velocity": 101,
                "duration": 0.2568181818181756,
                "tempo": 120.0
            },
            {
                "start_time": 118.9340909090909,
                "end_time": 119.15454545454544,
                "pitch": 35,
                "velocity": 101,
                "duration": 0.2204545454545439,
                "tempo": 120.0
            },
            {
                "start_time": 119.17045454545455,
                "end_time": 119.27272727272727,
                "pitch": 38,
                "velocity": 101,
                "duration": 0.10227272727271952,
                "tempo": 120.0
            },
            {
                "start_time": 119.3090909090909,
                "end_time": 119.52499999999999,
                "pitch": 33,
                "velocity": 101,
                "duration": 0.2159090909090935,
                "tempo": 120.0
            },
            {
                "start_time": 119.54090909090908,
                "end_time": 119.64090909090909,
                "pitch": 35,
                "velocity": 101,
                "duration": 0.10000000000000853,
                "tempo": 120.0
            },
            {
                "start_time": 119.6590909090909,
                "end_time": 119.87272727272726,
                "pitch": 27,
                "velocity": 101,
                "duration": 0.21363636363635408,
                "tempo": 120.0
            },
            {
                "start_time": 119.90681818181818,
                "end_time": 120.00454545454545,
                "pitch": 33,
                "velocity": 101,
                "duration": 0.09772727272726911,
                "tempo": 120.0
            },
            {
                "start_time": 120.02272727272727,
                "end_time": 120.23636363636363,
                "pitch": 52,
                "velocity": 101,
                "duration": 0.2136363636363683,
                "tempo": 120.0
            },
            {
                "start_time": 120.25227272727273,
                "end_time": 120.47045454545454,
                "pitch": 50,
                "velocity": 101,
                "duration": 0.2181818181818187,
                "tempo": 120.0
            },
            {
                "start_time": 120.50454545454545,
                "end_time": 120.60681818181817,
                "pitch": 35,
                "velocity": 101,
                "duration": 0.10227272727271952,
                "tempo": 120.0
            },
            {
                "start_time": 120.62272727272726,
                "end_time": 120.84090909090908,
                "pitch": 52,
                "velocity": 101,
                "duration": 0.2181818181818187,
                "tempo": 120.0
            },
            {
                "start_time": 120.85909090909091,
                "end_time": 121.09318181818182,
                "pitch": 35,
                "velocity": 101,
                "duration": 0.23409090909090935,
                "tempo": 120.0
            },
            {
                "start_time": 121.10909090909091,
                "end_time": 121.2090909090909,
                "pitch": 38,
                "velocity": 101,
                "duration": 0.09999999999999432,
                "tempo": 120.0
            },
            {
                "start_time": 121.22727272727272,
                "end_time": 121.44999999999999,
                "pitch": 33,
                "velocity": 101,
                "duration": 0.2227272727272691,
                "tempo": 120.0
            },
            {
                "start_time": 121.46818181818182,
                "end_time": 121.56818181818181,
                "pitch": 35,
                "velocity": 101,
                "duration": 0.09999999999999432,
                "tempo": 120.0
            },
            {
                "start_time": 121.60227272727272,
                "end_time": 121.82272727272726,
                "pitch": 27,
                "velocity": 101,
                "duration": 0.2204545454545439,
                "tempo": 120.0
            },
            {
                "start_time": 121.84090909090908,
                "end_time": 121.94090909090909,
                "pitch": 33,
                "velocity": 101,
                "duration": 0.10000000000000853,
                "tempo": 120.0
            },
            {
                "start_time": 121.9590909090909,
                "end_time": 122.17727272727272,
                "pitch": 52,
                "velocity": 101,
                "duration": 0.2181818181818187,
                "tempo": 120.0
            },
            {
                "start_time": 122.21136363636363,
                "end_time": 122.43181818181817,
                "pitch": 50,
                "velocity": 101,
                "duration": 0.2204545454545439,
                "tempo": 120.0
            },
            {
                "start_time": 122.44999999999999,
                "end_time": 122.55227272727272,
                "pitch": 35,
                "velocity": 101,
                "duration": 0.10227272727273373,
                "tempo": 120.0
            }
        ]
    }
}