{
    "track_id": "03 Stage 1",
    "mood": "angry",
    "instruments": {
        "Trumpet": [
            {
                "start_time": 0.00909090909090909,
                "end_time": 0.20227272727272727,
                "pitch": 72,
                "velocity": 64,
                "duration": 0.19318181818181818,
                "tempo": 120.0
            },
            {
                "start_time": 0.20227272727272727,
                "end_time": 0.30227272727272725,
                "pitch": 72,
                "velocity": 64,
                "duration": 0.09999999999999998,
                "tempo": 120.0
            },
            {
                "start_time": 0.30227272727272725,
                "end_time": 0.4022727272727272,
                "pitch": 74,
                "velocity": 64,
                "duration": 0.09999999999999998,
                "tempo": 120.0
            },
            {
                "start_time": 0.4022727272727272,
                "end_time": 1.2045454545454546,
                "pitch": 75,
                "velocity": 64,
                "duration": 0.8022727272727274,
                "tempo": 120.0
            },
            {
                "start_time": 1.2045454545454546,
                "end_time": 1.6045454545454545,
                "pitch": 79,
                "velocity": 64,
                "duration": 0.3999999999999999,
                "tempo": 120.0
            },
            {
                "start_time": 1.6045454545454545,
                "end_time": 1.8068181818181817,
                "pitch": 72,
                "velocity": 64,
                "duration": 0.20227272727272716,
                "tempo": 120.0
            },
            {
                "start_time": 1.8068181818181817,
                "end_time": 1.9068181818181817,
                "pitch": 72,
                "velocity": 64,
                "duration": 0.10000000000000009,
                "tempo": 120.0
            },
            {
                "start_time": 1.9068181818181817,
                "end_time": 2.006818181818182,
                "pitch": 74,
                "velocity": 64,
                "duration": 0.10000000000000009,
                "tempo": 120.0
            },
            {
                "start_time": 2.009090909090909,
                "end_time": 2.809090909090909,
                "pitch": 75,
                "velocity": 64,
                "duration": 0.8000000000000003,
                "tempo": 120.0
            },
            {
                "start_time": 2.809090909090909,
                "end_time": 3.209090909090909,
                "pitch": 79,
                "velocity": 64,
                "duration": 0.3999999999999999,
                "tempo": 120.0
            },
            {
                "start_time": 3.2113636363636364,
                "end_time": 3.411363636363636,
                "pitch": 72,
                "velocity": 64,
                "duration": 0.19999999999999973,
                "tempo": 120.0
            },
            {
                "start_time": 3.411363636363636,
                "end_time": 3.5113636363636362,
                "pitch": 72,
                "velocity": 64,
                "duration": 0.10000000000000009,
                "tempo": 120.0
            },
            {
                "start_time": 3.5113636363636362,
                "end_time": 3.6136363636363633,
                "pitch": 74,
                "velocity": 64,
                "duration": 0.10227272727272707,
                "tempo": 120.0
            },
            {
                "start_time": 3.6136363636363633,
                "end_time": 4.413636363636363,
                "pitch": 75,
                "velocity": 64,
                "duration": 0.7999999999999998,
                "tempo": 120.0
            },
            {
                "start_time": 4.413636363636363,
                "end_time": 4.818181818181818,
                "pitch": 79,
                "velocity": 64,
                "duration": 0.4045454545454552,
                "tempo": 120.0
            },
            {
                "start_time": 4.818181818181818,
                "end_time": 5.620454545454545,
                "pitch": 77,
                "velocity": 64,
                "duration": 0.8022727272727268,
                "tempo": 120.0
            },
            {
                "start_time": 5.620454545454545,
                "end_time": 6.0204545454545455,
                "pitch": 75,
                "velocity": 64,
                "duration": 0.40000000000000036,
                "tempo": 120.0
            },
            {
                "start_time": 6.0227272727272725,
                "end_time": 6.425,
                "pitch": 74,
                "velocity": 64,
                "duration": 0.40227272727272734,
                "tempo": 120.0
            },
            {
                "start_time": 6.425,
                "end_time": 6.629545454545454,
                "pitch": 72,
                "velocity": 64,
                "duration": 0.20454545454545414,
                "tempo": 120.0
            },
            {
                "start_time": 6.629545454545454,
                "end_time": 6.7318181818181815,
                "pitch": 72,
                "velocity": 64,
                "duration": 0.10227272727272751,
                "tempo": 120.0
            },
            {
                "start_time": 6.7318181818181815,
                "end_time": 6.836363636363636,
                "pitch": 74,
                "velocity": 64,
                "duration": 0.1045454545454545,
                "tempo": 120.0
            },
            {
                "start_time": 6.836363636363636,
                "end_time": 7.640909090909091,
                "pitch": 75,
                "velocity": 64,
                "duration": 0.8045454545454547,
                "tempo": 120.0
            },
            {
                "start_time": 7.640909090909091,
                "end_time": 8.043181818181818,
                "pitch": 79,
                "velocity": 64,
                "duration": 0.40227272727272734,
                "tempo": 120.0
            },
            {
                "start_time": 8.043181818181818,
                "end_time": 8.243181818181817,
                "pitch": 72,
                "velocity": 64,
                "duration": 0.1999999999999993,
                "tempo": 120.0
            },
            {
                "start_time": 8.243181818181817,
                "end_time": 8.343181818181817,
                "pitch": 72,
                "velocity": 64,
                "duration": 0.09999999999999964,
                "tempo": 120.0
            },
            {
                "start_time": 8.343181818181817,
                "end_time": 8.443181818181818,
                "pitch": 74,
                "velocity": 64,
                "duration": 0.10000000000000142,
                "tempo": 120.0
            },
            {
                "start_time": 8.443181818181818,
                "end_time": 9.25,
                "pitch": 75,
                "velocity": 64,
                "duration": 0.8068181818181817,
                "tempo": 120.0
            },
            {
                "start_time": 9.25,
                "end_time": 9.654545454545454,
                "pitch": 79,
                "velocity": 64,
                "duration": 0.4045454545454543,
                "tempo": 120.0
            },
            {
                "start_time": 9.654545454545454,
                "end_time": 9.854545454545454,
                "pitch": 72,
                "velocity": 64,
                "duration": 0.1999999999999993,
                "tempo": 120.0
            },
            {
                "start_time": 9.854545454545454,
                "end_time": 9.952272727272726,
                "pitch": 72,
                "velocity": 64,
                "duration": 0.09772727272727266,
                "tempo": 120.0
            },
            {
                "start_time": 9.952272727272726,
                "end_time": 10.054545454545455,
                "pitch": 74,
                "velocity": 64,
                "duration": 0.1022727272727284,
                "tempo": 120.0
            },
            {
                "start_time": 10.054545454545455,
                "end_time": 10.861363636363636,
                "pitch": 75,
                "velocity": 64,
                "duration": 0.8068181818181817,
                "tempo": 120.0
            },
            {
                "start_time": 10.861363636363636,
                "end_time": 11.263636363636364,
                "pitch": 79,
                "velocity": 64,
                "duration": 0.40227272727272734,
                "tempo": 120.0
            },
            {
                "start_time": 11.263636363636364,
                "end_time": 12.068181818181818,
                "pitch": 77,
                "velocity": 64,
                "duration": 0.8045454545454547,
                "tempo": 120.0
            },
            {
                "start_time": 12.068181818181818,
                "end_time": 12.470454545454546,
                "pitch": 75,
                "velocity": 64,
                "duration": 0.40227272727272734,
                "tempo": 120.0
            },
            {
                "start_time": 12.470454545454546,
                "end_time": 12.875,
                "pitch": 74,
                "velocity": 64,
                "duration": 0.4045454545454543,
                "tempo": 120.0
            },
            {
                "start_time": 12.875,
                "end_time": 13.688636363636363,
                "pitch": 72,
                "velocity": 64,
                "duration": 0.8136363636363626,
                "tempo": 120.0
            },
            {
                "start_time": 13.688636363636363,
                "end_time": 14.09090909090909,
                "pitch": 76,
                "velocity": 64,
                "duration": 0.40227272727272734,
                "tempo": 120.0
            },
            {
                "start_time": 14.09090909090909,
                "end_time": 14.290909090909091,
                "pitch": 77,
                "velocity": 64,
                "duration": 0.20000000000000107,
                "tempo": 120.0
            },
            {
                "start_time": 14.290909090909091,
                "end_time": 15.299999999999999,
                "pitch": 79,
                "velocity": 64,
                "duration": 1.009090909090908,
                "tempo": 120.0
            },
            {
                "start_time": 15.299999999999999,
                "end_time": 15.702272727272726,
                "pitch": 82,
                "velocity": 64,
                "duration": 0.40227272727272734,
                "tempo": 120.0
            },
            {
                "start_time": 15.702272727272726,
                "end_time": 15.902272727272727,
                "pitch": 79,
                "velocity": 64,
                "duration": 0.20000000000000107,
                "tempo": 120.0
            },
            {
                "start_time": 15.902272727272727,
                "end_time": 16.909090909090907,
                "pitch": 81,
                "velocity": 64,
                "duration": 1.0068181818181792,
                "tempo": 120.0
            },
            {
                "start_time": 16.909090909090907,
                "end_time": 17.311363636363634,
                "pitch": 77,
                "velocity": 64,
                "duration": 0.40227272727272734,
                "tempo": 120.0
            },
            {
                "start_time": 17.311363636363634,
                "end_time": 17.509090909090908,
                "pitch": 81,
                "velocity": 64,
                "duration": 0.19772727272727408,
                "tempo": 120.0
            },
            {
                "start_time": 17.509090909090908,
                "end_time": 18.513636363636362,
                "pitch": 79,
                "velocity": 64,
                "duration": 1.004545454545454,
                "tempo": 120.0
            },
            {
                "start_time": 18.513636363636362,
                "end_time": 18.918181818181818,
                "pitch": 77,
                "velocity": 64,
                "duration": 0.4045454545454561,
                "tempo": 120.0
            },
            {
                "start_time": 18.918181818181818,
                "end_time": 19.118181818181817,
                "pitch": 75,
                "velocity": 64,
                "duration": 0.1999999999999993,
                "tempo": 120.0
            },
            {
                "start_time": 19.118181818181817,
                "end_time": 19.318181818181817,
                "pitch": 74,
                "velocity": 64,
                "duration": 0.1999999999999993,
                "tempo": 120.0
            },
            {
                "start_time": 19.318181818181817,
                "end_time": 20.129545454545454,
                "pitch": 72,
                "velocity": 64,
                "duration": 0.8113636363636374,
                "tempo": 120.0
            },
            {
                "start_time": 20.129545454545454,
                "end_time": 20.534090909090907,
                "pitch": 76,
                "velocity": 64,
                "duration": 0.40454545454545254,
                "tempo": 120.0
            },
            {
                "start_time": 20.534090909090907,
                "end_time": 20.73409090909091,
                "pitch": 77,
                "velocity": 64,
                "duration": 0.20000000000000284,
                "tempo": 120.0
            },
            {
                "start_time": 20.73409090909091,
                "end_time": 21.738636363636363,
                "pitch": 79,
                "velocity": 64,
                "duration": 1.004545454545454,
                "tempo": 120.0
            },
            {
                "start_time": 21.738636363636363,
                "end_time": 22.138636363636362,
                "pitch": 82,
                "velocity": 64,
                "duration": 0.3999999999999986,
                "tempo": 120.0
            },
            {
                "start_time": 22.138636363636362,
                "end_time": 22.33863636363636,
                "pitch": 79,
                "velocity": 64,
                "duration": 0.1999999999999993,
                "tempo": 120.0
            },
            {
                "start_time": 22.33863636363636,
                "end_time": 23.34318181818182,
                "pitch": 81,
                "velocity": 64,
                "duration": 1.0045454545454575,
                "tempo": 120.0
            },
            {
                "start_time": 23.34318181818182,
                "end_time": 23.745454545454546,
                "pitch": 77,
                "velocity": 64,
                "duration": 0.40227272727272734,
                "tempo": 120.0
            },
            {
                "start_time": 23.745454545454546,
                "end_time": 23.945454545454545,
                "pitch": 81,
                "velocity": 64,
                "duration": 0.1999999999999993,
                "tempo": 120.0
            },
            {
                "start_time": 23.945454545454545,
                "end_time": 24.95,
                "pitch": 79,
                "velocity": 64,
                "duration": 1.004545454545454,
                "tempo": 120.0
            },
            {
                "start_time": 24.95,
                "end_time": 25.349999999999998,
                "pitch": 77,
                "velocity": 64,
                "duration": 0.3999999999999986,
                "tempo": 120.0
            },
            {
                "start_time": 25.349999999999998,
                "end_time": 25.552272727272726,
                "pitch": 75,
                "velocity": 64,
                "duration": 0.20227272727272805,
                "tempo": 120.0
            },
            {
                "start_time": 25.552272727272726,
                "end_time": 25.754545454545454,
                "pitch": 74,
                "velocity": 64,
                "duration": 0.20227272727272805,
                "tempo": 120.0
            },
            {
                "start_time": 25.754545454545454,
                "end_time": 25.888636363636362,
                "pitch": 67,
                "velocity": 64,
                "duration": 0.13409090909090793,
                "tempo": 120.0
            },
            {
                "start_time": 25.888636363636362,
                "end_time": 26.02272727272727,
                "pitch": 63,
                "velocity": 64,
                "duration": 0.13409090909090793,
                "tempo": 120.0
            },
            {
                "start_time": 26.02272727272727,
                "end_time": 26.154545454545453,
                "pitch": 67,
                "velocity": 64,
                "duration": 0.13181818181818272,
                "tempo": 120.0
            },
            {
                "start_time": 26.154545454545453,
                "end_time": 26.293181818181818,
                "pitch": 65,
                "velocity": 64,
                "duration": 0.13863636363636545,
                "tempo": 120.0
            },
            {
                "start_time": 26.293181818181818,
                "end_time": 26.429545454545455,
                "pitch": 62,
                "velocity": 64,
                "duration": 0.1363636363636367,
                "tempo": 120.0
            },
            {
                "start_time": 26.429545454545455,
                "end_time": 26.56590909090909,
                "pitch": 65,
                "velocity": 64,
                "duration": 0.1363636363636367,
                "tempo": 120.0
            },
            {
                "start_time": 26.56590909090909,
                "end_time": 26.7,
                "pitch": 63,
                "velocity": 64,
                "duration": 0.13409090909090793,
                "tempo": 120.0
            },
            {
                "start_time": 26.702272727272724,
                "end_time": 26.836363636363636,
                "pitch": 60,
                "velocity": 64,
                "duration": 0.13409090909091148,
                "tempo": 120.0
            },
            {
                "start_time": 26.836363636363636,
                "end_time": 26.970454545454544,
                "pitch": 63,
                "velocity": 64,
                "duration": 0.13409090909090793,
                "tempo": 120.0
            },
            {
                "start_time": 26.970454545454544,
                "end_time": 27.104545454545452,
                "pitch": 62,
                "velocity": 64,
                "duration": 0.13409090909090793,
                "tempo": 120.0
            },
            {
                "start_time": 27.104545454545452,
                "end_time": 27.236363636363635,
                "pitch": 63,
                "velocity": 64,
                "duration": 0.13181818181818272,
                "tempo": 120.0
            },
            {
                "start_time": 27.236363636363635,
                "end_time": 27.370454545454542,
                "pitch": 65,
                "velocity": 64,
                "duration": 0.13409090909090793,
                "tempo": 120.0
            },
            {
                "start_time": 27.370454545454542,
                "end_time": 27.504545454545454,
                "pitch": 67,
                "velocity": 64,
                "duration": 0.13409090909091148,
                "tempo": 120.0
            },
            {
                "start_time": 27.504545454545454,
                "end_time": 27.638636363636362,
                "pitch": 63,
                "velocity": 64,
                "duration": 0.13409090909090793,
                "tempo": 120.0
            },
            {
                "start_time": 27.638636363636362,
                "end_time": 27.770454545454545,
                "pitch": 67,
                "velocity": 64,
                "duration": 0.13181818181818272,
                "tempo": 120.0
            },
            {
                "start_time": 27.770454545454545,
                "end_time": 27.904545454545453,
                "pitch": 65,
                "velocity": 64,
                "duration": 0.13409090909090793,
                "tempo": 120.0
            },
            {
                "start_time": 27.904545454545453,
                "end_time": 28.04090909090909,
                "pitch": 62,
                "velocity": 64,
                "duration": 0.1363636363636367,
                "tempo": 120.0
            },
            {
                "start_time": 28.04090909090909,
                "end_time": 28.174999999999997,
                "pitch": 65,
                "velocity": 64,
                "duration": 0.13409090909090793,
                "tempo": 120.0
            },
            {
                "start_time": 28.174999999999997,
                "end_time": 28.30681818181818,
                "pitch": 63,
                "velocity": 64,
                "duration": 0.13181818181818272,
                "tempo": 120.0
            },
            {
                "start_time": 28.30909090909091,
                "end_time": 28.440909090909088,
                "pitch": 60,
                "velocity": 64,
                "duration": 0.13181818181817917,
                "tempo": 120.0
            },
            {
                "start_time": 28.440909090909088,
                "end_time": 28.575,
                "pitch": 63,
                "velocity": 64,
                "duration": 0.13409090909091148,
                "tempo": 120.0
            },
            {
                "start_time": 28.575,
                "end_time": 28.709090909090907,
                "pitch": 62,
                "velocity": 64,
                "duration": 0.13409090909090793,
                "tempo": 120.0
            },
            {
                "start_time": 28.709090909090907,
                "end_time": 28.843181818181815,
                "pitch": 63,
                "velocity": 64,
                "duration": 0.13409090909090793,
                "tempo": 120.0
            },
            {
                "start_time": 28.843181818181815,
                "end_time": 28.977272727272727,
                "pitch": 65,
                "velocity": 64,
                "duration": 0.13409090909091148,
                "tempo": 120.0
            },
            {
                "start_time": 28.977272727272727,
                "end_time": 29.779545454545453,
                "pitch": 68,
                "velocity": 64,
                "duration": 0.8022727272727259,
                "tempo": 120.0
            },
            {
                "start_time": 29.779545454545453,
                "end_time": 30.18181818181818,
                "pitch": 75,
                "velocity": 64,
                "duration": 0.40227272727272734,
                "tempo": 120.0
            },
            {
                "start_time": 30.18181818181818,
                "end_time": 30.581818181818182,
                "pitch": 68,
                "velocity": 64,
                "duration": 0.40000000000000213,
                "tempo": 120.0
            },
            {
                "start_time": 30.584090909090907,
                "end_time": 31.386363636363633,
                "pitch": 70,
                "velocity": 64,
                "duration": 0.8022727272727259,
                "tempo": 120.0
            },
            {
                "start_time": 31.386363636363633,
                "end_time": 31.786363636363635,
                "pitch": 77,
                "velocity": 64,
                "duration": 0.40000000000000213,
                "tempo": 120.0
            },
            {
                "start_time": 31.786363636363635,
                "end_time": 32.18863636363636,
                "pitch": 70,
                "velocity": 64,
                "duration": 0.40227272727272734,
                "tempo": 120.0
            }
        ],
        "Lead 2 (sawtooth)": [
            {
                "start_time": 25.752272727272725,
                "end_time": 25.886363636363637,
                "pitch": 79,
                "velocity": 64,
                "duration": 0.13409090909091148,
                "tempo": 120.0
            },
            {
                "start_time": 25.886363636363637,
                "end_time": 26.018181818181816,
                "pitch": 75,
                "velocity": 64,
                "duration": 0.13181818181817917,
                "tempo": 120.0
            },
            {
                "start_time": 26.020454545454545,
                "end_time": 26.152272727272727,
                "pitch": 79,
                "velocity": 64,
                "duration": 0.13181818181818272,
                "tempo": 120.0
            },
            {
                "start_time": 26.152272727272727,
                "end_time": 26.288636363636364,
                "pitch": 77,
                "velocity": 64,
                "duration": 0.1363636363636367,
                "tempo": 120.0
            },
            {
                "start_time": 26.29090909090909,
                "end_time": 26.427272727272726,
                "pitch": 74,
                "velocity": 64,
                "duration": 0.1363636363636367,
                "tempo": 120.0
            },
            {
                "start_time": 26.427272727272726,
                "end_time": 26.563636363636363,
                "pitch": 77,
                "velocity": 64,
                "duration": 0.1363636363636367,
                "tempo": 120.0
            },
            {
                "start_time": 26.563636363636363,
                "end_time": 26.69772727272727,
                "pitch": 75,
                "velocity": 64,
                "duration": 0.13409090909090793,
                "tempo": 120.0
            },
            {
                "start_time": 26.69772727272727,
                "end_time": 26.834090909090907,
                "pitch": 72,
                "velocity": 64,
                "duration": 0.1363636363636367,
                "tempo": 120.0
            },
            {
                "start_time": 26.834090909090907,
                "end_time": 26.968181818181815,
                "pitch": 75,
                "velocity": 64,
                "duration": 0.13409090909090793,
                "tempo": 120.0
            },
            {
                "start_time": 26.968181818181815,
                "end_time": 27.099999999999998,
                "pitch": 74,
                "velocity": 64,
                "duration": 0.13181818181818272,
                "tempo": 120.0
            },
            {
                "start_time": 27.102272727272727,
                "end_time": 27.23409090909091,
                "pitch": 75,
                "velocity": 64,
                "duration": 0.13181818181818272,
                "tempo": 120.0
            },
            {
                "start_time": 27.23409090909091,
                "end_time": 27.368181818181817,
                "pitch": 77,
                "velocity": 64,
                "duration": 0.13409090909090793,
                "tempo": 120.0
            },
            {
                "start_time": 27.368181818181817,
                "end_time": 27.502272727272725,
                "pitch": 91,
                "velocity": 64,
                "duration": 0.13409090909090793,
                "tempo": 120.0
            },
            {
                "start_time": 27.502272727272725,
                "end_time": 27.634090909090908,
                "pitch": 87,
                "velocity": 64,
                "duration": 0.13181818181818272,
                "tempo": 120.0
            },
            {
                "start_time": 27.634090909090908,
                "end_time": 27.768181818181816,
                "pitch": 91,
                "velocity": 64,
                "duration": 0.13409090909090793,
                "tempo": 120.0
            },
            {
                "start_time": 27.768181818181816,
                "end_time": 27.902272727272727,
                "pitch": 89,
                "velocity": 64,
                "duration": 0.13409090909091148,
                "tempo": 120.0
            },
            {
                "start_time": 27.902272727272727,
                "end_time": 28.036363636363635,
                "pitch": 86,
                "velocity": 64,
                "duration": 0.13409090909090793,
                "tempo": 120.0
            },
            {
                "start_time": 28.038636363636364,
                "end_time": 28.172727272727272,
                "pitch": 89,
                "velocity": 64,
                "duration": 0.13409090909090793,
                "tempo": 120.0
            },
            {
                "start_time": 28.172727272727272,
                "end_time": 28.304545454545455,
                "pitch": 87,
                "velocity": 64,
                "duration": 0.13181818181818272,
                "tempo": 120.0
            },
            {
                "start_time": 28.304545454545455,
                "end_time": 28.438636363636363,
                "pitch": 84,
                "velocity": 64,
                "duration": 0.13409090909090793,
                "tempo": 120.0
            },
            {
                "start_time": 28.438636363636363,
                "end_time": 28.57272727272727,
                "pitch": 87,
                "velocity": 64,
                "duration": 0.13409090909090793,
                "tempo": 120.0
            },
            {
                "start_time": 28.57272727272727,
                "end_time": 28.706818181818182,
                "pitch": 86,
                "velocity": 64,
                "duration": 0.13409090909091148,
                "tempo": 120.0
            },
            {
                "start_time": 28.706818181818182,
                "end_time": 28.84090909090909,
                "pitch": 87,
                "velocity": 64,
                "duration": 0.13409090909090793,
                "tempo": 120.0
            },
            {
                "start_time": 28.84090909090909,
                "end_time": 28.974999999999998,
                "pitch": 89,
                "velocity": 64,
                "duration": 0.13409090909090793,
                "tempo": 120.0
            },
            {
                "start_time": 28.974999999999998,
                "end_time": 29.174999999999997,
                "pitch": 68,
                "velocity": 80,
                "duration": 0.1999999999999993,
                "tempo": 120.0
            },
            {
                "start_time": 29.174999999999997,
                "end_time": 29.375,
                "pitch": 51,
                "velocity": 80,
                "duration": 0.20000000000000284,
                "tempo": 120.0
            },
            {
                "start_time": 29.377272727272725,
                "end_time": 29.577272727272724,
                "pitch": 56,
                "velocity": 80,
                "duration": 0.1999999999999993,
                "tempo": 120.0
            },
            {
                "start_time": 29.577272727272724,
                "end_time": 29.777272727272727,
                "pitch": 60,
                "velocity": 80,
                "duration": 0.20000000000000284,
                "tempo": 120.0
            },
            {
                "start_time": 29.777272727272727,
                "end_time": 29.977272727272727,
                "pitch": 63,
                "velocity": 80,
                "duration": 0.1999999999999993,
                "tempo": 120.0
            },
            {
                "start_time": 29.979545454545452,
                "end_time": 30.179545454545455,
                "pitch": 68,
                "velocity": 80,
                "duration": 0.20000000000000284,
                "tempo": 120.0
            },
            {
                "start_time": 30.179545454545455,
                "end_time": 30.379545454545454,
                "pitch": 72,
                "velocity": 80,
                "duration": 0.1999999999999993,
                "tempo": 120.0
            },
            {
                "start_time": 30.379545454545454,
                "end_time": 30.579545454545453,
                "pitch": 75,
                "velocity": 80,
                "duration": 0.1999999999999993,
                "tempo": 120.0
            },
            {
                "start_time": 30.579545454545453,
                "end_time": 30.78181818181818,
                "pitch": 70,
                "velocity": 80,
                "duration": 0.20227272727272805,
                "tempo": 120.0
            },
            {
                "start_time": 30.78181818181818,
                "end_time": 30.98409090909091,
                "pitch": 53,
                "velocity": 80,
                "duration": 0.20227272727272805,
                "tempo": 120.0
            },
            {
                "start_time": 30.98409090909091,
                "end_time": 31.18409090909091,
                "pitch": 58,
                "velocity": 80,
                "duration": 0.1999999999999993,
                "tempo": 120.0
            },
            {
                "start_time": 31.18409090909091,
                "end_time": 31.384090909090908,
                "pitch": 62,
                "velocity": 80,
                "duration": 0.1999999999999993,
                "tempo": 120.0
            },
            {
                "start_time": 31.384090909090908,
                "end_time": 31.584090909090907,
                "pitch": 65,
                "velocity": 80,
                "duration": 0.1999999999999993,
                "tempo": 120.0
            },
            {
                "start_time": 31.584090909090907,
                "end_time": 31.784090909090907,
                "pitch": 70,
                "velocity": 80,
                "duration": 0.1999999999999993,
                "tempo": 120.0
            },
            {
                "start_time": 31.784090909090907,
                "end_time": 31.986363636363635,
                "pitch": 74,
                "velocity": 80,
                "duration": 0.20227272727272805,
                "tempo": 120.0
            },
            {
                "start_time": 31.986363636363635,
                "end_time": 32.18863636363636,
                "pitch": 77,
                "velocity": 80,
                "duration": 0.20227272727272805,
                "tempo": 120.0
            }
        ],
        "Acoustic Guitar (nylon)": [
            {
                "start_time": 12.875,
                "end_time": 13.284090909090908,
                "pitch": 64,
                "velocity": 80,
                "duration": 0.4090909090909083,
                "tempo": 120.0
            },
            {
                "start_time": 13.284090909090908,
                "end_time": 13.688636363636363,
                "pitch": 67,
                "velocity": 80,
                "duration": 0.4045454545454543,
                "tempo": 120.0
            },
            {
                "start_time": 13.688636363636363,
                "end_time": 14.088636363636363,
                "pitch": 72,
                "velocity": 80,
                "duration": 0.40000000000000036,
                "tempo": 120.0
            },
            {
                "start_time": 14.088636363636363,
                "end_time": 14.493181818181817,
                "pitch": 76,
                "velocity": 80,
                "duration": 0.4045454545454543,
                "tempo": 120.0
            },
            {
                "start_time": 14.493181818181817,
                "end_time": 14.895454545454545,
                "pitch": 62,
                "velocity": 80,
                "duration": 0.40227272727272734,
                "tempo": 120.0
            },
            {
                "start_time": 14.895454545454545,
                "end_time": 15.297727272727272,
                "pitch": 65,
                "velocity": 80,
                "duration": 0.40227272727272734,
                "tempo": 120.0
            },
            {
                "start_time": 15.299999999999999,
                "end_time": 15.702272727272726,
                "pitch": 70,
                "velocity": 80,
                "duration": 0.40227272727272734,
                "tempo": 120.0
            },
            {
                "start_time": 15.702272727272726,
                "end_time": 16.102272727272727,
                "pitch": 74,
                "velocity": 80,
                "duration": 0.40000000000000036,
                "tempo": 120.0
            },
            {
                "start_time": 16.102272727272727,
                "end_time": 16.504545454545454,
                "pitch": 60,
                "velocity": 80,
                "duration": 0.40227272727272734,
                "tempo": 120.0
            },
            {
                "start_time": 16.504545454545454,
                "end_time": 16.909090909090907,
                "pitch": 65,
                "velocity": 80,
                "duration": 0.40454545454545254,
                "tempo": 120.0
            },
            {
                "start_time": 16.909090909090907,
                "end_time": 17.30909090909091,
                "pitch": 69,
                "velocity": 80,
                "duration": 0.40000000000000213,
                "tempo": 120.0
            },
            {
                "start_time": 17.30909090909091,
                "end_time": 17.709090909090907,
                "pitch": 72,
                "velocity": 80,
                "duration": 0.3999999999999986,
                "tempo": 120.0
            },
            {
                "start_time": 17.711363636363636,
                "end_time": 18.113636363636363,
                "pitch": 59,
                "velocity": 80,
                "duration": 0.40227272727272734,
                "tempo": 120.0
            },
            {
                "start_time": 18.113636363636363,
                "end_time": 18.513636363636362,
                "pitch": 62,
                "velocity": 80,
                "duration": 0.3999999999999986,
                "tempo": 120.0
            },
            {
                "start_time": 18.513636363636362,
                "end_time": 18.918181818181818,
                "pitch": 65,
                "velocity": 80,
                "duration": 0.4045454545454561,
                "tempo": 120.0
            },
            {
                "start_time": 18.918181818181818,
                "end_time": 19.318181818181817,
                "pitch": 71,
                "velocity": 80,
                "duration": 0.3999999999999986,
                "tempo": 120.0
            },
            {
                "start_time": 19.318181818181817,
                "end_time": 19.729545454545452,
                "pitch": 64,
                "velocity": 80,
                "duration": 0.41136363636363527,
                "tempo": 120.0
            },
            {
                "start_time": 19.729545454545452,
                "end_time": 20.129545454545454,
                "pitch": 67,
                "velocity": 80,
                "duration": 0.40000000000000213,
                "tempo": 120.0
            },
            {
                "start_time": 20.129545454545454,
                "end_time": 20.534090909090907,
                "pitch": 72,
                "velocity": 80,
                "duration": 0.40454545454545254,
                "tempo": 120.0
            },
            {
                "start_time": 20.534090909090907,
                "end_time": 20.93409090909091,
                "pitch": 76,
                "velocity": 80,
                "duration": 0.40000000000000213,
                "tempo": 120.0
            },
            {
                "start_time": 20.93409090909091,
                "end_time": 21.334090909090907,
                "pitch": 62,
                "velocity": 80,
                "duration": 0.3999999999999986,
                "tempo": 120.0
            },
            {
                "start_time": 21.334090909090907,
                "end_time": 21.736363636363635,
                "pitch": 65,
                "velocity": 80,
                "duration": 0.40227272727272734,
                "tempo": 120.0
            },
            {
                "start_time": 21.736363636363635,
                "end_time": 22.138636363636362,
                "pitch": 70,
                "velocity": 80,
                "duration": 0.40227272727272734,
                "tempo": 120.0
            },
            {
                "start_time": 22.138636363636362,
                "end_time": 22.54090909090909,
                "pitch": 74,
                "velocity": 80,
                "duration": 0.40227272727272734,
                "tempo": 120.0
            },
            {
                "start_time": 22.54090909090909,
                "end_time": 22.94090909090909,
                "pitch": 60,
                "velocity": 80,
                "duration": 0.40000000000000213,
                "tempo": 120.0
            },
            {
                "start_time": 22.94090909090909,
                "end_time": 23.34318181818182,
                "pitch": 65,
                "velocity": 80,
                "duration": 0.40227272727272734,
                "tempo": 120.0
            },
            {
                "start_time": 23.34318181818182,
                "end_time": 23.745454545454546,
                "pitch": 69,
                "velocity": 80,
                "duration": 0.40227272727272734,
                "tempo": 120.0
            },
            {
                "start_time": 23.745454545454546,
                "end_time": 24.145454545454545,
                "pitch": 72,
                "velocity": 80,
                "duration": 0.3999999999999986,
                "tempo": 120.0
            },
            {
                "start_time": 24.145454545454545,
                "end_time": 24.547727272727272,
                "pitch": 59,
                "velocity": 80,
                "duration": 0.40227272727272734,
                "tempo": 120.0
            },
            {
                "start_time": 24.549999999999997,
                "end_time": 24.95,
                "pitch": 62,
                "velocity": 80,
                "duration": 0.40000000000000213,
                "tempo": 120.0
            },
            {
                "start_time": 24.95,
                "end_time": 25.349999999999998,
                "pitch": 65,
                "velocity": 80,
                "duration": 0.3999999999999986,
                "tempo": 120.0
            },
            {
                "start_time": 25.349999999999998,
                "end_time": 25.754545454545454,
                "pitch": 71,
                "velocity": 80,
                "duration": 0.4045454545454561,
                "tempo": 120.0
            }
        ],
        "Electric Piano 1": [
            {
                "start_time": 0.004545454545454545,
                "end_time": 0.09999999999999999,
                "pitch": 36,
                "velocity": 64,
                "duration": 0.09545454545454544,
                "tempo": 120.0
            },
            {
                "start_time": 0.20227272727272727,
                "end_time": 0.30227272727272725,
                "pitch": 36,
                "velocity": 64,
                "duration": 0.09999999999999998,
                "tempo": 120.0
            },
            {
                "start_time": 0.4022727272727272,
                "end_time": 0.5022727272727272,
                "pitch": 36,
                "velocity": 64,
                "duration": 0.09999999999999998,
                "tempo": 120.0
            },
            {
                "start_time": 0.6022727272727273,
                "end_time": 0.7022727272727273,
                "pitch": 36,
                "velocity": 64,
                "duration": 0.09999999999999998,
                "tempo": 120.0
            },
            {
                "start_time": 0.8022727272727272,
                "end_time": 0.9022727272727272,
                "pitch": 36,
                "velocity": 64,
                "duration": 0.09999999999999998,
                "tempo": 120.0
            },
            {
                "start_time": 1.0022727272727272,
                "end_time": 1.1022727272727273,
                "pitch": 36,
                "velocity": 64,
                "duration": 0.10000000000000009,
                "tempo": 120.0
            },
            {
                "start_time": 1.2022727272727272,
                "end_time": 1.3022727272727272,
                "pitch": 36,
                "velocity": 64,
                "duration": 0.10000000000000009,
                "tempo": 120.0
            },
            {
                "start_time": 1.4045454545454545,
                "end_time": 1.5022727272727272,
                "pitch": 36,
                "velocity": 64,
                "duration": 0.09772727272727266,
                "tempo": 120.0
            },
            {
                "start_time": 1.6045454545454545,
                "end_time": 1.7045454545454544,
                "pitch": 34,
                "velocity": 64,
                "duration": 0.09999999999999987,
                "tempo": 120.0
            },
            {
                "start_time": 1.8045454545454545,
                "end_time": 1.9045454545454545,
                "pitch": 34,
                "velocity": 64,
                "duration": 0.10000000000000009,
                "tempo": 120.0
            },
            {
                "start_time": 2.006818181818182,
                "end_time": 2.106818181818182,
                "pitch": 34,
                "velocity": 64,
                "duration": 0.10000000000000009,
                "tempo": 120.0
            },
            {
                "start_time": 2.2068181818181816,
                "end_time": 2.3068181818181817,
                "pitch": 34,
                "velocity": 64,
                "duration": 0.10000000000000009,
                "tempo": 120.0
            },
            {
                "start_time": 2.4068181818181817,
                "end_time": 2.506818181818182,
                "pitch": 34,
                "velocity": 64,
                "duration": 0.10000000000000009,
                "tempo": 120.0
            },
            {
                "start_time": 2.6068181818181815,
                "end_time": 2.7068181818181816,
                "pitch": 34,
                "velocity": 64,
                "duration": 0.10000000000000009,
                "tempo": 120.0
            },
            {
                "start_time": 2.809090909090909,
                "end_time": 2.9068181818181817,
                "pitch": 34,
                "velocity": 64,
                "duration": 0.09772727272727266,
                "tempo": 120.0
            },
            {
                "start_time": 3.009090909090909,
                "end_time": 3.1068181818181815,
                "pitch": 34,
                "velocity": 64,
                "duration": 0.09772727272727266,
                "tempo": 120.0
            },
            {
                "start_time": 3.209090909090909,
                "end_time": 3.309090909090909,
                "pitch": 32,
                "velocity": 64,
                "duration": 0.10000000000000009,
                "tempo": 120.0
            },
            {
                "start_time": 3.411363636363636,
                "end_time": 3.5113636363636362,
                "pitch": 32,
                "velocity": 64,
                "duration": 0.10000000000000009,
                "tempo": 120.0
            },
            {
                "start_time": 3.6113636363636363,
                "end_time": 3.711363636363636,
                "pitch": 32,
                "velocity": 64,
                "duration": 0.09999999999999964,
                "tempo": 120.0
            },
            {
                "start_time": 3.811363636363636,
                "end_time": 3.911363636363636,
                "pitch": 32,
                "velocity": 64,
                "duration": 0.10000000000000009,
                "tempo": 120.0
            },
            {
                "start_time": 4.011363636363636,
                "end_time": 4.111363636363636,
                "pitch": 32,
                "velocity": 64,
                "duration": 0.10000000000000053,
                "tempo": 120.0
            },
            {
                "start_time": 4.213636363636364,
                "end_time": 4.3113636363636365,
                "pitch": 32,
                "velocity": 64,
                "duration": 0.09772727272727266,
                "tempo": 120.0
            },
            {
                "start_time": 4.413636363636363,
                "end_time": 4.513636363636364,
                "pitch": 32,
                "velocity": 64,
                "duration": 0.10000000000000053,
                "tempo": 120.0
            },
            {
                "start_time": 4.613636363636363,
                "end_time": 4.713636363636364,
                "pitch": 32,
                "velocity": 64,
                "duration": 0.10000000000000053,
                "tempo": 120.0
            },
            {
                "start_time": 4.8159090909090905,
                "end_time": 4.915909090909091,
                "pitch": 34,
                "velocity": 64,
                "duration": 0.10000000000000053,
                "tempo": 120.0
            },
            {
                "start_time": 5.015909090909091,
                "end_time": 5.11590909090909,
                "pitch": 34,
                "velocity": 64,
                "duration": 0.09999999999999964,
                "tempo": 120.0
            },
            {
                "start_time": 5.215909090909091,
                "end_time": 5.3159090909090905,
                "pitch": 34,
                "velocity": 64,
                "duration": 0.09999999999999964,
                "tempo": 120.0
            },
            {
                "start_time": 5.418181818181818,
                "end_time": 5.518181818181818,
                "pitch": 34,
                "velocity": 64,
                "duration": 0.09999999999999964,
                "tempo": 120.0
            },
            {
                "start_time": 5.620454545454545,
                "end_time": 5.718181818181818,
                "pitch": 31,
                "velocity": 64,
                "duration": 0.09772727272727266,
                "tempo": 120.0
            },
            {
                "start_time": 5.820454545454545,
                "end_time": 5.920454545454545,
                "pitch": 31,
                "velocity": 64,
                "duration": 0.09999999999999964,
                "tempo": 120.0
            },
            {
                "start_time": 6.0204545454545455,
                "end_time": 6.120454545454545,
                "pitch": 31,
                "velocity": 64,
                "duration": 0.09999999999999964,
                "tempo": 120.0
            },
            {
                "start_time": 6.222727272727273,
                "end_time": 6.322727272727272,
                "pitch": 31,
                "velocity": 64,
                "duration": 0.09999999999999964,
                "tempo": 120.0
            },
            {
                "start_time": 6.425,
                "end_time": 6.5249999999999995,
                "pitch": 36,
                "velocity": 64,
                "duration": 0.09999999999999964,
                "tempo": 120.0
            },
            {
                "start_time": 6.629545454545454,
                "end_time": 6.7318181818181815,
                "pitch": 36,
                "velocity": 64,
                "duration": 0.10227272727272751,
                "tempo": 120.0
            },
            {
                "start_time": 6.836363636363636,
                "end_time": 6.934090909090909,
                "pitch": 36,
                "velocity": 64,
                "duration": 0.09772727272727266,
                "tempo": 120.0
            },
            {
                "start_time": 7.036363636363636,
                "end_time": 7.134090909090909,
                "pitch": 36,
                "velocity": 64,
                "duration": 0.09772727272727266,
                "tempo": 120.0
            },
            {
                "start_time": 7.236363636363636,
                "end_time": 7.336363636363636,
                "pitch": 36,
                "velocity": 64,
                "duration": 0.09999999999999964,
                "tempo": 120.0
            },
            {
                "start_time": 7.436363636363636,
                "end_time": 7.536363636363636,
                "pitch": 36,
                "velocity": 64,
                "duration": 0.10000000000000053,
                "tempo": 120.0
            },
            {
                "start_time": 7.638636363636364,
                "end_time": 7.738636363636363,
                "pitch": 36,
                "velocity": 64,
                "duration": 0.09999999999999964,
                "tempo": 120.0
            },
            {
                "start_time": 7.840909090909091,
                "end_time": 7.9409090909090905,
                "pitch": 36,
                "velocity": 64,
                "duration": 0.09999999999999964,
                "tempo": 120.0
            },
            {
                "start_time": 8.043181818181818,
                "end_time": 8.14090909090909,
                "pitch": 34,
                "velocity": 64,
                "duration": 0.09772727272727266,
                "tempo": 120.0
            },
            {
                "start_time": 8.243181818181817,
                "end_time": 8.34090909090909,
                "pitch": 34,
                "velocity": 64,
                "duration": 0.09772727272727266,
                "tempo": 120.0
            },
            {
                "start_time": 8.443181818181818,
                "end_time": 8.543181818181818,
                "pitch": 34,
                "velocity": 64,
                "duration": 0.09999999999999964,
                "tempo": 120.0
            },
            {
                "start_time": 8.645454545454545,
                "end_time": 8.745454545454544,
                "pitch": 34,
                "velocity": 64,
                "duration": 0.09999999999999964,
                "tempo": 120.0
            },
            {
                "start_time": 8.845454545454546,
                "end_time": 8.945454545454545,
                "pitch": 34,
                "velocity": 64,
                "duration": 0.09999999999999964,
                "tempo": 120.0
            },
            {
                "start_time": 9.047727272727272,
                "end_time": 9.147727272727272,
                "pitch": 34,
                "velocity": 64,
                "duration": 0.09999999999999964,
                "tempo": 120.0
            },
            {
                "start_time": 9.25,
                "end_time": 9.35,
                "pitch": 34,
                "velocity": 64,
                "duration": 0.09999999999999964,
                "tempo": 120.0
            },
            {
                "start_time": 9.45,
                "end_time": 9.549999999999999,
                "pitch": 34,
                "velocity": 64,
                "duration": 0.09999999999999964,
                "tempo": 120.0
            },
            {
                "start_time": 9.652272727272727,
                "end_time": 9.752272727272727,
                "pitch": 32,
                "velocity": 64,
                "duration": 0.09999999999999964,
                "tempo": 120.0
            },
            {
                "start_time": 9.852272727272727,
                "end_time": 9.952272727272726,
                "pitch": 32,
                "velocity": 64,
                "duration": 0.09999999999999964,
                "tempo": 120.0
            },
            {
                "start_time": 10.052272727272726,
                "end_time": 10.152272727272727,
                "pitch": 32,
                "velocity": 64,
                "duration": 0.10000000000000142,
                "tempo": 120.0
            },
            {
                "start_time": 10.254545454545454,
                "end_time": 10.354545454545454,
                "pitch": 32,
                "velocity": 64,
                "duration": 0.09999999999999964,
                "tempo": 120.0
            },
            {
                "start_time": 10.456818181818182,
                "end_time": 10.556818181818182,
                "pitch": 32,
                "velocity": 64,
                "duration": 0.09999999999999964,
                "tempo": 120.0
            },
            {
                "start_time": 10.659090909090908,
                "end_time": 10.756818181818181,
                "pitch": 32,
                "velocity": 64,
                "duration": 0.09772727272727266,
                "tempo": 120.0
            },
            {
                "start_time": 10.85909090909091,
                "end_time": 10.959090909090909,
                "pitch": 32,
                "velocity": 64,
                "duration": 0.09999999999999964,
                "tempo": 120.0
            },
            {
                "start_time": 11.061363636363636,
                "end_time": 11.161363636363635,
                "pitch": 32,
                "velocity": 64,
                "duration": 0.09999999999999964,
                "tempo": 120.0
            },
            {
                "start_time": 11.263636363636364,
                "end_time": 11.363636363636363,
                "pitch": 34,
                "velocity": 64,
                "duration": 0.09999999999999964,
                "tempo": 120.0
            },
            {
                "start_time": 11.463636363636363,
                "end_time": 11.563636363636363,
                "pitch": 34,
                "velocity": 64,
                "duration": 0.09999999999999964,
                "tempo": 120.0
            },
            {
                "start_time": 11.665909090909091,
                "end_time": 11.76590909090909,
                "pitch": 34,
                "velocity": 64,
                "duration": 0.09999999999999964,
                "tempo": 120.0
            },
            {
                "start_time": 11.86590909090909,
                "end_time": 11.96590909090909,
                "pitch": 34,
                "velocity": 64,
                "duration": 0.09999999999999964,
                "tempo": 120.0
            },
            {
                "start_time": 12.06590909090909,
                "end_time": 12.168181818181818,
                "pitch": 31,
                "velocity": 64,
                "duration": 0.1022727272727284,
                "tempo": 120.0
            },
            {
                "start_time": 12.268181818181818,
                "end_time": 12.368181818181817,
                "pitch": 31,
                "velocity": 64,
                "duration": 0.09999999999999964,
                "tempo": 120.0
            },
            {
                "start_time": 12.470454545454546,
                "end_time": 12.570454545454545,
                "pitch": 31,
                "velocity": 64,
                "duration": 0.09999999999999964,
                "tempo": 120.0
            },
            {
                "start_time": 12.670454545454545,
                "end_time": 12.770454545454545,
                "pitch": 31,
                "velocity": 64,
                "duration": 0.09999999999999964,
                "tempo": 120.0
            },
            {
                "start_time": 12.875,
                "end_time": 12.975,
                "pitch": 36,
                "velocity": 64,
                "duration": 0.09999999999999964,
                "tempo": 120.0
            },
            {
                "start_time": 13.079545454545453,
                "end_time": 13.181818181818182,
                "pitch": 36,
                "velocity": 64,
                "duration": 0.1022727272727284,
                "tempo": 120.0
            },
            {
                "start_time": 13.284090909090908,
                "end_time": 13.384090909090908,
                "pitch": 36,
                "velocity": 64,
                "duration": 0.09999999999999964,
                "tempo": 120.0
            },
            {
                "start_time": 13.486363636363636,
                "end_time": 13.586363636363636,
                "pitch": 36,
                "velocity": 64,
                "duration": 0.09999999999999964,
                "tempo": 120.0
            },
            {
                "start_time": 13.688636363636363,
                "end_time": 13.786363636363635,
                "pitch": 36,
                "velocity": 64,
                "duration": 0.09772727272727266,
                "tempo": 120.0
            },
            {
                "start_time": 13.888636363636364,
                "end_time": 13.986363636363636,
                "pitch": 36,
                "velocity": 64,
                "duration": 0.09772727272727266,
                "tempo": 120.0
            },
            {
                "start_time": 14.088636363636363,
                "end_time": 14.188636363636363,
                "pitch": 36,
                "velocity": 64,
                "duration": 0.09999999999999964,
                "tempo": 120.0
            },
            {
                "start_time": 14.290909090909091,
                "end_time": 14.39090909090909,
                "pitch": 36,
                "velocity": 64,
                "duration": 0.09999999999999964,
                "tempo": 120.0
            },
            {
                "start_time": 14.49090909090909,
                "end_time": 14.59090909090909,
                "pitch": 34,
                "velocity": 64,
                "duration": 0.09999999999999964,
                "tempo": 120.0
            },
            {
                "start_time": 14.693181818181818,
                "end_time": 14.793181818181818,
                "pitch": 34,
                "velocity": 64,
                "duration": 0.09999999999999964,
                "tempo": 120.0
            },
            {
                "start_time": 14.895454545454545,
                "end_time": 14.995454545454544,
                "pitch": 34,
                "velocity": 64,
                "duration": 0.09999999999999964,
                "tempo": 120.0
            },
            {
                "start_time": 15.095454545454544,
                "end_time": 15.195454545454545,
                "pitch": 34,
                "velocity": 64,
                "duration": 0.10000000000000142,
                "tempo": 120.0
            },
            {
                "start_time": 15.297727272727272,
                "end_time": 15.397727272727272,
                "pitch": 34,
                "velocity": 64,
                "duration": 0.09999999999999964,
                "tempo": 120.0
            },
            {
                "start_time": 15.5,
                "end_time": 15.6,
                "pitch": 34,
                "velocity": 64,
                "duration": 0.09999999999999964,
                "tempo": 120.0
            },
            {
                "start_time": 15.702272727272726,
                "end_time": 15.799999999999999,
                "pitch": 34,
                "velocity": 64,
                "duration": 0.09772727272727266,
                "tempo": 120.0
            },
            {
                "start_time": 15.902272727272727,
                "end_time": 16.0,
                "pitch": 34,
                "velocity": 64,
                "duration": 0.09772727272727266,
                "tempo": 120.0
            },
            {
                "start_time": 16.102272727272727,
                "end_time": 16.202272727272728,
                "pitch": 33,
                "velocity": 64,
                "duration": 0.10000000000000142,
                "tempo": 120.0
            },
            {
                "start_time": 16.304545454545455,
                "end_time": 16.402272727272727,
                "pitch": 33,
                "velocity": 64,
                "duration": 0.09772727272727266,
                "tempo": 120.0
            },
            {
                "start_time": 16.504545454545454,
                "end_time": 16.604545454545455,
                "pitch": 33,
                "velocity": 64,
                "duration": 0.10000000000000142,
                "tempo": 120.0
            },
            {
                "start_time": 16.706818181818182,
                "end_time": 16.80681818181818,
                "pitch": 33,
                "velocity": 64,
                "duration": 0.09999999999999787,
                "tempo": 120.0
            },
            {
                "start_time": 16.909090909090907,
                "end_time": 17.006818181818183,
                "pitch": 33,
                "velocity": 64,
                "duration": 0.09772727272727622,
                "tempo": 120.0
            },
            {
                "start_time": 17.10909090909091,
                "end_time": 17.206818181818182,
                "pitch": 33,
                "velocity": 64,
                "duration": 0.09772727272727266,
                "tempo": 120.0
            },
            {
                "start_time": 17.30909090909091,
                "end_time": 17.409090909090907,
                "pitch": 33,
                "velocity": 64,
                "duration": 0.09999999999999787,
                "tempo": 120.0
            },
            {
                "start_time": 17.509090909090908,
                "end_time": 17.60909090909091,
                "pitch": 33,
                "velocity": 64,
                "duration": 0.10000000000000142,
                "tempo": 120.0
            },
            {
                "start_time": 17.709090909090907,
                "end_time": 17.80909090909091,
                "pitch": 31,
                "velocity": 64,
                "duration": 0.10000000000000142,
                "tempo": 120.0
            },
            {
                "start_time": 17.911363636363635,
                "end_time": 18.011363636363637,
                "pitch": 31,
                "velocity": 64,
                "duration": 0.10000000000000142,
                "tempo": 120.0
            },
            {
                "start_time": 18.113636363636363,
                "end_time": 18.211363636363636,
                "pitch": 31,
                "velocity": 64,
                "duration": 0.09772727272727266,
                "tempo": 120.0
            },
            {
                "start_time": 18.313636363636363,
                "end_time": 18.411363636363635,
                "pitch": 31,
                "velocity": 64,
                "duration": 0.09772727272727266,
                "tempo": 120.0
            },
            {
                "start_time": 18.513636363636362,
                "end_time": 18.613636363636363,
                "pitch": 34,
                "velocity": 64,
                "duration": 0.10000000000000142,
                "tempo": 120.0
            },
            {
                "start_time": 18.71590909090909,
                "end_time": 18.813636363636363,
                "pitch": 34,
                "velocity": 64,
                "duration": 0.09772727272727266,
                "tempo": 120.0
            },
            {
                "start_time": 18.91590909090909,
                "end_time": 19.01590909090909,
                "pitch": 35,
                "velocity": 64,
                "duration": 0.10000000000000142,
                "tempo": 120.0
            },
            {
                "start_time": 19.118181818181817,
                "end_time": 19.21590909090909,
                "pitch": 35,
                "velocity": 64,
                "duration": 0.09772727272727266,
                "tempo": 120.0
            },
            {
                "start_time": 19.318181818181817,
                "end_time": 19.418181818181818,
                "pitch": 36,
                "velocity": 64,
                "duration": 0.10000000000000142,
                "tempo": 120.0
            },
            {
                "start_time": 19.522727272727273,
                "end_time": 19.625,
                "pitch": 36,
                "velocity": 64,
                "duration": 0.10227272727272663,
                "tempo": 120.0
            },
            {
                "start_time": 19.727272727272727,
                "end_time": 19.827272727272728,
                "pitch": 36,
                "velocity": 64,
                "duration": 0.10000000000000142,
                "tempo": 120.0
            },
            {
                "start_time": 19.929545454545455,
                "end_time": 20.027272727272727,
                "pitch": 36,
                "velocity": 64,
                "duration": 0.09772727272727266,
                "tempo": 120.0
            },
            {
                "start_time": 20.129545454545454,
                "end_time": 20.229545454545452,
                "pitch": 36,
                "velocity": 64,
                "duration": 0.09999999999999787,
                "tempo": 120.0
            },
            {
                "start_time": 20.329545454545453,
                "end_time": 20.429545454545455,
                "pitch": 36,
                "velocity": 64,
                "duration": 0.10000000000000142,
                "tempo": 120.0
            },
            {
                "start_time": 20.534090909090907,
                "end_time": 20.63181818181818,
                "pitch": 36,
                "velocity": 64,
                "duration": 0.09772727272727266,
                "tempo": 120.0
            },
            {
                "start_time": 20.73181818181818,
                "end_time": 20.831818181818182,
                "pitch": 36,
                "velocity": 64,
                "duration": 0.10000000000000142,
                "tempo": 120.0
            },
            {
                "start_time": 20.93409090909091,
                "end_time": 21.03181818181818,
                "pitch": 34,
                "velocity": 64,
                "duration": 0.09772727272727266,
                "tempo": 120.0
            },
            {
                "start_time": 21.134090909090908,
                "end_time": 21.23181818181818,
                "pitch": 34,
                "velocity": 64,
                "duration": 0.09772727272727266,
                "tempo": 120.0
            },
            {
                "start_time": 21.334090909090907,
                "end_time": 21.43409090909091,
                "pitch": 34,
                "velocity": 64,
                "duration": 0.10000000000000142,
                "tempo": 120.0
            },
            {
                "start_time": 21.534090909090907,
                "end_time": 21.634090909090908,
                "pitch": 34,
                "velocity": 64,
                "duration": 0.10000000000000142,
                "tempo": 120.0
            },
            {
                "start_time": 21.736363636363635,
                "end_time": 21.836363636363636,
                "pitch": 34,
                "velocity": 64,
                "duration": 0.10000000000000142,
                "tempo": 120.0
            },
            {
                "start_time": 21.936363636363634,
                "end_time": 22.036363636363635,
                "pitch": 34,
                "velocity": 64,
                "duration": 0.10000000000000142,
                "tempo": 120.0
            },
            {
                "start_time": 22.138636363636362,
                "end_time": 22.236363636363635,
                "pitch": 34,
                "velocity": 64,
                "duration": 0.09772727272727266,
                "tempo": 120.0
            },
            {
                "start_time": 22.33863636363636,
                "end_time": 22.438636363636363,
                "pitch": 34,
                "velocity": 64,
                "duration": 0.10000000000000142,
                "tempo": 120.0
            },
            {
                "start_time": 22.54090909090909,
                "end_time": 22.638636363636362,
                "pitch": 33,
                "velocity": 64,
                "duration": 0.09772727272727266,
                "tempo": 120.0
            },
            {
                "start_time": 22.74090909090909,
                "end_time": 22.84090909090909,
                "pitch": 33,
                "velocity": 64,
                "duration": 0.10000000000000142,
                "tempo": 120.0
            },
            {
                "start_time": 22.94090909090909,
                "end_time": 23.04090909090909,
                "pitch": 33,
                "velocity": 64,
                "duration": 0.09999999999999787,
                "tempo": 120.0
            },
            {
                "start_time": 23.14090909090909,
                "end_time": 23.24090909090909,
                "pitch": 33,
                "velocity": 64,
                "duration": 0.09999999999999787,
                "tempo": 120.0
            },
            {
                "start_time": 23.34090909090909,
                "end_time": 23.44090909090909,
                "pitch": 33,
                "velocity": 64,
                "duration": 0.10000000000000142,
                "tempo": 120.0
            },
            {
                "start_time": 23.543181818181818,
                "end_time": 23.643181818181816,
                "pitch": 33,
                "velocity": 64,
                "duration": 0.09999999999999787,
                "tempo": 120.0
            },
            {
                "start_time": 23.745454545454546,
                "end_time": 23.84318181818182,
                "pitch": 33,
                "velocity": 64,
                "duration": 0.09772727272727266,
                "tempo": 120.0
            },
            {
                "start_time": 23.945454545454545,
                "end_time": 24.043181818181818,
                "pitch": 33,
                "velocity": 64,
                "duration": 0.09772727272727266,
                "tempo": 120.0
            },
            {
                "start_time": 24.145454545454545,
                "end_time": 24.245454545454546,
                "pitch": 31,
                "velocity": 64,
                "duration": 0.10000000000000142,
                "tempo": 120.0
            },
            {
                "start_time": 24.347727272727273,
                "end_time": 24.44772727272727,
                "pitch": 31,
                "velocity": 64,
                "duration": 0.09999999999999787,
                "tempo": 120.0
            },
            {
                "start_time": 24.547727272727272,
                "end_time": 24.64772727272727,
                "pitch": 31,
                "velocity": 64,
                "duration": 0.09999999999999787,
                "tempo": 120.0
            },
            {
                "start_time": 24.74772727272727,
                "end_time": 24.847727272727273,
                "pitch": 31,
                "velocity": 64,
                "duration": 0.10000000000000142,
                "tempo": 120.0
            },
            {
                "start_time": 24.95,
                "end_time": 25.047727272727272,
                "pitch": 34,
                "velocity": 64,
                "duration": 0.09772727272727266,
                "tempo": 120.0
            },
            {
                "start_time": 25.15,
                "end_time": 25.24772727272727,
                "pitch": 34,
                "velocity": 64,
                "duration": 0.09772727272727266,
                "tempo": 120.0
            },
            {
                "start_time": 25.349999999999998,
                "end_time": 25.45,
                "pitch": 35,
                "velocity": 64,
                "duration": 0.10000000000000142,
                "tempo": 120.0
            },
            {
                "start_time": 25.552272727272726,
                "end_time": 25.65,
                "pitch": 35,
                "velocity": 64,
                "duration": 0.09772727272727266,
                "tempo": 120.0
            },
            {
                "start_time": 25.754545454545454,
                "end_time": 25.818181818181817,
                "pitch": 36,
                "velocity": 64,
                "duration": 0.0636363636363626,
                "tempo": 120.0
            },
            {
                "start_time": 25.886363636363637,
                "end_time": 25.952272727272724,
                "pitch": 36,
                "velocity": 64,
                "duration": 0.06590909090908781,
                "tempo": 120.0
            },
            {
                "start_time": 26.020454545454545,
                "end_time": 26.086363636363636,
                "pitch": 36,
                "velocity": 64,
                "duration": 0.06590909090909136,
                "tempo": 120.0
            },
            {
                "start_time": 26.154545454545453,
                "end_time": 26.220454545454544,
                "pitch": 34,
                "velocity": 64,
                "duration": 0.06590909090909136,
                "tempo": 120.0
            },
            {
                "start_time": 26.29090909090909,
                "end_time": 26.35909090909091,
                "pitch": 34,
                "velocity": 64,
                "duration": 0.06818181818182012,
                "tempo": 120.0
            },
            {
                "start_time": 26.429545454545455,
                "end_time": 26.495454545454542,
                "pitch": 34,
                "velocity": 64,
                "duration": 0.06590909090908781,
                "tempo": 120.0
            },
            {
                "start_time": 26.56590909090909,
                "end_time": 26.63181818181818,
                "pitch": 32,
                "velocity": 64,
                "duration": 0.06590909090908781,
                "tempo": 120.0
            },
            {
                "start_time": 26.7,
                "end_time": 26.76590909090909,
                "pitch": 32,
                "velocity": 64,
                "duration": 0.06590909090909136,
                "tempo": 120.0
            },
            {
                "start_time": 26.834090909090907,
                "end_time": 26.9,
                "pitch": 32,
                "velocity": 64,
                "duration": 0.06590909090909136,
                "tempo": 120.0
            },
            {
                "start_time": 26.968181818181815,
                "end_time": 27.034090909090907,
                "pitch": 31,
                "velocity": 64,
                "duration": 0.06590909090909136,
                "tempo": 120.0
            },
            {
                "start_time": 27.102272727272727,
                "end_time": 27.168181818181818,
                "pitch": 31,
                "velocity": 64,
                "duration": 0.06590909090909136,
                "tempo": 120.0
            },
            {
                "start_time": 27.236363636363635,
                "end_time": 27.299999999999997,
                "pitch": 31,
                "velocity": 64,
                "duration": 0.0636363636363626,
                "tempo": 120.0
            },
            {
                "start_time": 27.370454545454542,
                "end_time": 27.43409090909091,
                "pitch": 36,
                "velocity": 64,
                "duration": 0.06363636363636616,
                "tempo": 120.0
            },
            {
                "start_time": 27.502272727272725,
                "end_time": 27.568181818181817,
                "pitch": 36,
                "velocity": 64,
                "duration": 0.06590909090909136,
                "tempo": 120.0
            },
            {
                "start_time": 27.636363636363637,
                "end_time": 27.702272727272724,
                "pitch": 36,
                "velocity": 64,
                "duration": 0.06590909090908781,
                "tempo": 120.0
            },
            {
                "start_time": 27.770454545454545,
                "end_time": 27.836363636363636,
                "pitch": 34,
                "velocity": 64,
                "duration": 0.06590909090909136,
                "tempo": 120.0
            },
            {
                "start_time": 27.904545454545453,
                "end_time": 27.970454545454544,
                "pitch": 34,
                "velocity": 64,
                "duration": 0.06590909090909136,
                "tempo": 120.0
            },
            {
                "start_time": 28.038636363636364,
                "end_time": 28.104545454545452,
                "pitch": 34,
                "velocity": 64,
                "duration": 0.06590909090908781,
                "tempo": 120.0
            },
            {
                "start_time": 28.172727272727272,
                "end_time": 28.238636363636363,
                "pitch": 32,
                "velocity": 64,
                "duration": 0.06590909090909136,
                "tempo": 120.0
            },
            {
                "start_time": 28.30681818181818,
                "end_time": 28.37272727272727,
                "pitch": 32,
                "velocity": 64,
                "duration": 0.06590909090909136,
                "tempo": 120.0
            },
            {
                "start_time": 28.440909090909088,
                "end_time": 28.504545454545454,
                "pitch": 32,
                "velocity": 64,
                "duration": 0.06363636363636616,
                "tempo": 120.0
            },
            {
                "start_time": 28.575,
                "end_time": 28.638636363636362,
                "pitch": 31,
                "velocity": 64,
                "duration": 0.0636363636363626,
                "tempo": 120.0
            },
            {
                "start_time": 28.709090909090907,
                "end_time": 28.77272727272727,
                "pitch": 31,
                "velocity": 64,
                "duration": 0.0636363636363626,
                "tempo": 120.0
            },
            {
                "start_time": 28.843181818181815,
                "end_time": 28.909090909090907,
                "pitch": 31,
                "velocity": 64,
                "duration": 0.06590909090909136,
                "tempo": 120.0
            },
            {
                "start_time": 28.977272727272727,
                "end_time": 29.075,
                "pitch": 32,
                "velocity": 64,
                "duration": 0.09772727272727266,
                "tempo": 120.0
            },
            {
                "start_time": 29.177272727272726,
                "end_time": 29.275,
                "pitch": 32,
                "velocity": 64,
                "duration": 0.09772727272727266,
                "tempo": 120.0
            },
            {
                "start_time": 29.377272727272725,
                "end_time": 29.474999999999998,
                "pitch": 32,
                "velocity": 64,
                "duration": 0.09772727272727266,
                "tempo": 120.0
            },
            {
                "start_time": 29.577272727272724,
                "end_time": 29.677272727272726,
                "pitch": 32,
                "velocity": 64,
                "duration": 0.10000000000000142,
                "tempo": 120.0
            },
            {
                "start_time": 29.777272727272727,
                "end_time": 29.877272727272725,
                "pitch": 32,
                "velocity": 64,
                "duration": 0.09999999999999787,
                "tempo": 120.0
            },
            {
                "start_time": 29.979545454545452,
                "end_time": 30.079545454545453,
                "pitch": 32,
                "velocity": 64,
                "duration": 0.10000000000000142,
                "tempo": 120.0
            },
            {
                "start_time": 30.18181818181818,
                "end_time": 30.279545454545453,
                "pitch": 32,
                "velocity": 64,
                "duration": 0.09772727272727266,
                "tempo": 120.0
            },
            {
                "start_time": 30.38181818181818,
                "end_time": 30.479545454545452,
                "pitch": 32,
                "velocity": 64,
                "duration": 0.09772727272727266,
                "tempo": 120.0
            },
            {
                "start_time": 30.581818181818182,
                "end_time": 30.68181818181818,
                "pitch": 34,
                "velocity": 64,
                "duration": 0.09999999999999787,
                "tempo": 120.0
            },
            {
                "start_time": 30.784090909090907,
                "end_time": 30.88181818181818,
                "pitch": 34,
                "velocity": 64,
                "duration": 0.09772727272727266,
                "tempo": 120.0
            },
            {
                "start_time": 30.98409090909091,
                "end_time": 31.084090909090907,
                "pitch": 34,
                "velocity": 64,
                "duration": 0.09999999999999787,
                "tempo": 120.0
            },
            {
                "start_time": 31.18409090909091,
                "end_time": 31.284090909090907,
                "pitch": 34,
                "velocity": 64,
                "duration": 0.09999999999999787,
                "tempo": 120.0
            },
            {
                "start_time": 31.386363636363633,
                "end_time": 31.484090909090906,
                "pitch": 34,
                "velocity": 64,
                "duration": 0.09772727272727266,
                "tempo": 120.0
            },
            {
                "start_time": 31.586363636363636,
                "end_time": 31.68409090909091,
                "pitch": 34,
                "velocity": 64,
                "duration": 0.09772727272727266,
                "tempo": 120.0
            },
            {
                "start_time": 31.786363636363635,
                "end_time": 31.886363636363633,
                "pitch": 34,
                "velocity": 64,
                "duration": 0.09999999999999787,
                "tempo": 120.0
            },
            {
                "start_time": 31.988636363636363,
                "end_time": 32.08863636363636,
                "pitch": 34,
                "velocity": 64,
                "duration": 0.09999999999999787,
                "tempo": 120.0
            }
        ],
        "Harpsichord": [
            {
                "start_time": 28.977272727272727,
                "end_time": 29.177272727272726,
                "pitch": 75,
                "velocity": 80,
                "duration": 0.1999999999999993,
                "tempo": 120.0
            },
            {
                "start_time": 29.177272727272726,
                "end_time": 29.377272727272725,
                "pitch": 72,
                "velocity": 80,
                "duration": 0.1999999999999993,
                "tempo": 120.0
            },
            {
                "start_time": 29.377272727272725,
                "end_time": 29.577272727272724,
                "pitch": 80,
                "velocity": 80,
                "duration": 0.1999999999999993,
                "tempo": 120.0
            },
            {
                "start_time": 29.577272727272724,
                "end_time": 29.777272727272727,
                "pitch": 79,
                "velocity": 80,
                "duration": 0.20000000000000284,
                "tempo": 120.0
            },
            {
                "start_time": 29.777272727272727,
                "end_time": 29.979545454545452,
                "pitch": 77,
                "velocity": 80,
                "duration": 0.2022727272727245,
                "tempo": 120.0
            },
            {
                "start_time": 29.979545454545452,
                "end_time": 30.179545454545455,
                "pitch": 75,
                "velocity": 80,
                "duration": 0.20000000000000284,
                "tempo": 120.0
            },
            {
                "start_time": 30.179545454545455,
                "end_time": 30.379545454545454,
                "pitch": 74,
                "velocity": 80,
                "duration": 0.1999999999999993,
                "tempo": 120.0
            },
            {
                "start_time": 30.38181818181818,
                "end_time": 30.581818181818182,
                "pitch": 72,
                "velocity": 80,
                "duration": 0.20000000000000284,
                "tempo": 120.0
            },
            {
                "start_time": 30.581818181818182,
                "end_time": 30.78181818181818,
                "pitch": 77,
                "velocity": 80,
                "duration": 0.1999999999999993,
                "tempo": 120.0
            },
            {
                "start_time": 30.78181818181818,
                "end_time": 30.98409090909091,
                "pitch": 74,
                "velocity": 80,
                "duration": 0.20227272727272805,
                "tempo": 120.0
            },
            {
                "start_time": 30.98409090909091,
                "end_time": 31.18409090909091,
                "pitch": 82,
                "velocity": 80,
                "duration": 0.1999999999999993,
                "tempo": 120.0
            },
            {
                "start_time": 31.18409090909091,
                "end_time": 31.384090909090908,
                "pitch": 80,
                "velocity": 80,
                "duration": 0.1999999999999993,
                "tempo": 120.0
            },
            {
                "start_time": 31.384090909090908,
                "end_time": 31.584090909090907,
                "pitch": 79,
                "velocity": 80,
                "duration": 0.1999999999999993,
                "tempo": 120.0
            },
            {
                "start_time": 31.584090909090907,
                "end_time": 31.784090909090907,
                "pitch": 77,
                "velocity": 80,
                "duration": 0.1999999999999993,
                "tempo": 120.0
            },
            {
                "start_time": 31.786363636363635,
                "end_time": 31.986363636363635,
                "pitch": 75,
                "velocity": 80,
                "duration": 0.1999999999999993,
                "tempo": 120.0
            },
            {
                "start_time": 31.986363636363635,
                "end_time": 32.18863636363636,
                "pitch": 74,
                "velocity": 80,
                "duration": 0.20227272727272805,
                "tempo": 120.0
            }
        ]
    }
}