{
    "track_id": "03 Sample 3",
    "mood": "angry",
    "instruments": {
        "Violin": [
            {
                "start_time": 0.4818181818181818,
                "end_time": 3.7318181818181815,
                "pitch": 52,
                "velocity": 64,
                "duration": 3.2499999999999996,
                "tempo": 120.0
            },
            {
                "start_time": 4.193181818181818,
                "end_time": 7.459090909090909,
                "pitch": 52,
                "velocity": 64,
                "duration": 3.2659090909090907,
                "tempo": 120.0
            },
            {
                "start_time": 7.920454545454545,
                "end_time": 11.184090909090909,
                "pitch": 53,
                "velocity": 64,
                "duration": 3.2636363636363637,
                "tempo": 120.0
            },
            {
                "start_time": 11.645454545454545,
                "end_time": 14.904545454545454,
                "pitch": 53,
                "velocity": 64,
                "duration": 3.2590909090909097,
                "tempo": 120.0
            },
            {
                "start_time": 15.35681818181818,
                "end_time": 18.62272727272727,
                "pitch": 52,
                "velocity": 64,
                "duration": 3.2659090909090907,
                "tempo": 120.0
            },
            {
                "start_time": 19.084090909090907,
                "end_time": 22.33863636363636,
                "pitch": 52,
                "velocity": 64,
                "duration": 3.254545454545454,
                "tempo": 120.0
            },
            {
                "start_time": 22.811363636363634,
                "end_time": 26.06590909090909,
                "pitch": 52,
                "velocity": 64,
                "duration": 3.2545454545454575,
                "tempo": 120.0
            },
            {
                "start_time": 26.527272727272727,
                "end_time": 29.79090909090909,
                "pitch": 52,
                "velocity": 64,
                "duration": 3.263636363636362,
                "tempo": 120.0
            },
            {
                "start_time": 30.254545454545454,
                "end_time": 33.50681818181818,
                "pitch": 52,
                "velocity": 64,
                "duration": 3.2522727272727288,
                "tempo": 120.0
            },
            {
                "start_time": 33.97954545454545,
                "end_time": 37.23409090909091,
                "pitch": 52,
                "velocity": 64,
                "duration": 3.2545454545454575,
                "tempo": 120.0
            },
            {
                "start_time": 37.695454545454545,
                "end_time": 40.95681818181818,
                "pitch": 53,
                "velocity": 64,
                "duration": 3.261363636363633,
                "tempo": 120.0
            },
            {
                "start_time": 41.42045454545455,
                "end_time": 44.684090909090905,
                "pitch": 53,
                "velocity": 64,
                "duration": 3.2636363636363583,
                "tempo": 120.0
            }
        ],
        "Harpsichord": [
            {
                "start_time": 0.00909090909090909,
                "end_time": 0.4818181818181818,
                "pitch": 76,
                "velocity": 51,
                "duration": 0.4727272727272727,
                "tempo": 120.0
            },
            {
                "start_time": 0.4818181818181818,
                "end_time": 0.95,
                "pitch": 64,
                "velocity": 51,
                "duration": 0.46818181818181814,
                "tempo": 120.0
            },
            {
                "start_time": 0.95,
                "end_time": 1.4113636363636364,
                "pitch": 69,
                "velocity": 51,
                "duration": 0.4613636363636364,
                "tempo": 120.0
            },
            {
                "start_time": 1.4113636363636364,
                "end_time": 1.884090909090909,
                "pitch": 71,
                "velocity": 51,
                "duration": 0.47272727272727266,
                "tempo": 120.0
            },
            {
                "start_time": 1.884090909090909,
                "end_time": 3.7318181818181815,
                "pitch": 76,
                "velocity": 51,
                "duration": 1.8477272727272724,
                "tempo": 120.0
            },
            {
                "start_time": 3.7318181818181815,
                "end_time": 4.193181818181818,
                "pitch": 76,
                "velocity": 51,
                "duration": 0.46136363636363686,
                "tempo": 120.0
            },
            {
                "start_time": 4.193181818181818,
                "end_time": 4.665909090909091,
                "pitch": 64,
                "velocity": 51,
                "duration": 0.47272727272727266,
                "tempo": 120.0
            },
            {
                "start_time": 4.665909090909091,
                "end_time": 5.138636363636364,
                "pitch": 69,
                "velocity": 51,
                "duration": 0.47272727272727266,
                "tempo": 120.0
            },
            {
                "start_time": 5.138636363636364,
                "end_time": 5.602272727272727,
                "pitch": 71,
                "velocity": 51,
                "duration": 0.46363636363636296,
                "tempo": 120.0
            },
            {
                "start_time": 5.602272727272727,
                "end_time": 7.459090909090909,
                "pitch": 76,
                "velocity": 51,
                "duration": 1.8568181818181824,
                "tempo": 120.0
            },
            {
                "start_time": 7.459090909090909,
                "end_time": 7.920454545454545,
                "pitch": 77,
                "velocity": 51,
                "duration": 0.461363636363636,
                "tempo": 120.0
            },
            {
                "start_time": 7.920454545454545,
                "end_time": 8.384090909090908,
                "pitch": 65,
                "velocity": 51,
                "duration": 0.46363636363636296,
                "tempo": 120.0
            },
            {
                "start_time": 8.384090909090908,
                "end_time": 8.863636363636363,
                "pitch": 69,
                "velocity": 51,
                "duration": 0.4795454545454554,
                "tempo": 120.0
            },
            {
                "start_time": 8.863636363636363,
                "end_time": 9.325,
                "pitch": 71,
                "velocity": 51,
                "duration": 0.461363636363636,
                "tempo": 120.0
            },
            {
                "start_time": 9.325,
                "end_time": 11.184090909090909,
                "pitch": 77,
                "velocity": 51,
                "duration": 1.8590909090909093,
                "tempo": 120.0
            },
            {
                "start_time": 11.184090909090909,
                "end_time": 11.645454545454545,
                "pitch": 77,
                "velocity": 51,
                "duration": 0.461363636363636,
                "tempo": 120.0
            },
            {
                "start_time": 11.645454545454545,
                "end_time": 12.113636363636363,
                "pitch": 65,
                "velocity": 51,
                "duration": 0.4681818181818187,
                "tempo": 120.0
            },
            {
                "start_time": 12.113636363636363,
                "end_time": 12.575,
                "pitch": 69,
                "velocity": 51,
                "duration": 0.461363636363636,
                "tempo": 120.0
            },
            {
                "start_time": 12.575,
                "end_time": 13.047727272727272,
                "pitch": 71,
                "velocity": 51,
                "duration": 0.47272727272727266,
                "tempo": 120.0
            },
            {
                "start_time": 13.047727272727272,
                "end_time": 14.904545454545454,
                "pitch": 77,
                "velocity": 51,
                "duration": 1.8568181818181824,
                "tempo": 120.0
            },
            {
                "start_time": 14.904545454545454,
                "end_time": 15.35681818181818,
                "pitch": 76,
                "velocity": 51,
                "duration": 0.45227272727272627,
                "tempo": 120.0
            },
            {
                "start_time": 15.35681818181818,
                "end_time": 15.829545454545453,
                "pitch": 64,
                "velocity": 51,
                "duration": 0.47272727272727266,
                "tempo": 120.0
            },
            {
                "start_time": 15.829545454545453,
                "end_time": 16.29090909090909,
                "pitch": 69,
                "velocity": 51,
                "duration": 0.461363636363636,
                "tempo": 120.0
            },
            {
                "start_time": 16.29090909090909,
                "end_time": 16.763636363636362,
                "pitch": 71,
                "velocity": 51,
                "duration": 0.47272727272727266,
                "tempo": 120.0
            },
            {
                "start_time": 16.763636363636362,
                "end_time": 18.62272727272727,
                "pitch": 76,
                "velocity": 51,
                "duration": 1.8590909090909093,
                "tempo": 120.0
            },
            {
                "start_time": 18.62272727272727,
                "end_time": 19.084090909090907,
                "pitch": 76,
                "velocity": 51,
                "duration": 0.461363636363636,
                "tempo": 120.0
            },
            {
                "start_time": 19.084090909090907,
                "end_time": 19.545454545454543,
                "pitch": 64,
                "velocity": 51,
                "duration": 0.461363636363636,
                "tempo": 120.0
            },
            {
                "start_time": 19.545454545454543,
                "end_time": 20.018181818181816,
                "pitch": 69,
                "velocity": 51,
                "duration": 0.47272727272727266,
                "tempo": 120.0
            },
            {
                "start_time": 20.018181818181816,
                "end_time": 20.479545454545452,
                "pitch": 71,
                "velocity": 51,
                "duration": 0.461363636363636,
                "tempo": 120.0
            },
            {
                "start_time": 20.479545454545452,
                "end_time": 22.33863636363636,
                "pitch": 76,
                "velocity": 51,
                "duration": 1.8590909090909093,
                "tempo": 120.0
            },
            {
                "start_time": 22.33863636363636,
                "end_time": 22.811363636363634,
                "pitch": 76,
                "velocity": 51,
                "duration": 0.47272727272727266,
                "tempo": 120.0
            },
            {
                "start_time": 22.811363636363634,
                "end_time": 23.272727272727273,
                "pitch": 64,
                "velocity": 51,
                "duration": 0.46136363636363953,
                "tempo": 120.0
            },
            {
                "start_time": 23.272727272727273,
                "end_time": 23.73409090909091,
                "pitch": 69,
                "velocity": 51,
                "duration": 0.461363636363636,
                "tempo": 120.0
            },
            {
                "start_time": 23.73409090909091,
                "end_time": 24.206818181818182,
                "pitch": 71,
                "velocity": 51,
                "duration": 0.47272727272727266,
                "tempo": 120.0
            },
            {
                "start_time": 24.206818181818182,
                "end_time": 26.06590909090909,
                "pitch": 76,
                "velocity": 51,
                "duration": 1.8590909090909093,
                "tempo": 120.0
            },
            {
                "start_time": 26.06590909090909,
                "end_time": 26.527272727272727,
                "pitch": 76,
                "velocity": 51,
                "duration": 0.461363636363636,
                "tempo": 120.0
            },
            {
                "start_time": 26.527272727272727,
                "end_time": 26.99772727272727,
                "pitch": 64,
                "velocity": 51,
                "duration": 0.4704545454545439,
                "tempo": 120.0
            },
            {
                "start_time": 26.99772727272727,
                "end_time": 27.461363636363636,
                "pitch": 69,
                "velocity": 51,
                "duration": 0.46363636363636473,
                "tempo": 120.0
            },
            {
                "start_time": 27.461363636363636,
                "end_time": 27.93409090909091,
                "pitch": 71,
                "velocity": 51,
                "duration": 0.47272727272727266,
                "tempo": 120.0
            },
            {
                "start_time": 27.93409090909091,
                "end_time": 29.79090909090909,
                "pitch": 76,
                "velocity": 51,
                "duration": 1.8568181818181806,
                "tempo": 120.0
            },
            {
                "start_time": 29.79090909090909,
                "end_time": 30.254545454545454,
                "pitch": 76,
                "velocity": 51,
                "duration": 0.46363636363636473,
                "tempo": 120.0
            },
            {
                "start_time": 30.254545454545454,
                "end_time": 30.724999999999998,
                "pitch": 64,
                "velocity": 51,
                "duration": 0.4704545454545439,
                "tempo": 120.0
            },
            {
                "start_time": 30.724999999999998,
                "end_time": 31.186363636363634,
                "pitch": 69,
                "velocity": 51,
                "duration": 0.461363636363636,
                "tempo": 120.0
            },
            {
                "start_time": 31.186363636363634,
                "end_time": 31.65,
                "pitch": 71,
                "velocity": 51,
                "duration": 0.46363636363636473,
                "tempo": 120.0
            },
            {
                "start_time": 31.65,
                "end_time": 33.50681818181818,
                "pitch": 76,
                "velocity": 51,
                "duration": 1.8568181818181841,
                "tempo": 120.0
            },
            {
                "start_time": 33.50681818181818,
                "end_time": 33.97954545454545,
                "pitch": 76,
                "velocity": 51,
                "duration": 0.4727272727272691,
                "tempo": 120.0
            },
            {
                "start_time": 33.97954545454545,
                "end_time": 34.44318181818181,
                "pitch": 64,
                "velocity": 51,
                "duration": 0.4636363636363612,
                "tempo": 120.0
            },
            {
                "start_time": 34.44318181818181,
                "end_time": 34.904545454545456,
                "pitch": 69,
                "velocity": 51,
                "duration": 0.4613636363636431,
                "tempo": 120.0
            },
            {
                "start_time": 34.904545454545456,
                "end_time": 35.38636363636363,
                "pitch": 71,
                "velocity": 51,
                "duration": 0.48181818181817704,
                "tempo": 120.0
            },
            {
                "start_time": 35.38636363636363,
                "end_time": 37.23409090909091,
                "pitch": 76,
                "velocity": 51,
                "duration": 1.8477272727272762,
                "tempo": 120.0
            },
            {
                "start_time": 37.23409090909091,
                "end_time": 37.695454545454545,
                "pitch": 77,
                "velocity": 51,
                "duration": 0.461363636363636,
                "tempo": 120.0
            },
            {
                "start_time": 37.695454545454545,
                "end_time": 38.175,
                "pitch": 65,
                "velocity": 51,
                "duration": 0.47954545454545183,
                "tempo": 120.0
            },
            {
                "start_time": 38.175,
                "end_time": 38.63863636363636,
                "pitch": 69,
                "velocity": 51,
                "duration": 0.4636363636363612,
                "tempo": 120.0
            },
            {
                "start_time": 38.63863636363636,
                "end_time": 39.1,
                "pitch": 71,
                "velocity": 51,
                "duration": 0.4613636363636431,
                "tempo": 120.0
            },
            {
                "start_time": 39.1,
                "end_time": 40.95681818181818,
                "pitch": 77,
                "velocity": 51,
                "duration": 1.856818181818177,
                "tempo": 120.0
            },
            {
                "start_time": 40.95681818181818,
                "end_time": 41.42045454545455,
                "pitch": 77,
                "velocity": 51,
                "duration": 0.4636363636363683,
                "tempo": 120.0
            },
            {
                "start_time": 41.42045454545455,
                "end_time": 41.893181818181816,
                "pitch": 65,
                "velocity": 51,
                "duration": 0.4727272727272691,
                "tempo": 120.0
            },
            {
                "start_time": 41.893181818181816,
                "end_time": 42.36363636363636,
                "pitch": 69,
                "velocity": 51,
                "duration": 0.4704545454545439,
                "tempo": 120.0
            },
            {
                "start_time": 42.36363636363636,
                "end_time": 42.82727272727273,
                "pitch": 71,
                "velocity": 51,
                "duration": 0.4636363636363683,
                "tempo": 120.0
            },
            {
                "start_time": 42.82727272727273,
                "end_time": 44.684090909090905,
                "pitch": 77,
                "velocity": 51,
                "duration": 1.856818181818177,
                "tempo": 120.0
            }
        ],
        "Electric Piano 1": [
            {
                "start_time": 14.895454545454545,
                "end_time": 15.131818181818181,
                "pitch": 62,
                "velocity": 64,
                "duration": 0.23636363636363633,
                "tempo": 120.0
            },
            {
                "start_time": 15.131818181818181,
                "end_time": 15.35681818181818,
                "pitch": 64,
                "velocity": 64,
                "duration": 0.22499999999999964,
                "tempo": 120.0
            },
            {
                "start_time": 15.35681818181818,
                "end_time": 15.588636363636363,
                "pitch": 71,
                "velocity": 64,
                "duration": 0.23181818181818237,
                "tempo": 120.0
            },
            {
                "start_time": 15.588636363636363,
                "end_time": 15.829545454545453,
                "pitch": 62,
                "velocity": 64,
                "duration": 0.2409090909090903,
                "tempo": 120.0
            },
            {
                "start_time": 15.829545454545453,
                "end_time": 16.061363636363634,
                "pitch": 64,
                "velocity": 64,
                "duration": 0.2318181818181806,
                "tempo": 120.0
            },
            {
                "start_time": 16.061363636363634,
                "end_time": 16.29090909090909,
                "pitch": 71,
                "velocity": 64,
                "duration": 0.22954545454545539,
                "tempo": 120.0
            },
            {
                "start_time": 16.29090909090909,
                "end_time": 16.53409090909091,
                "pitch": 62,
                "velocity": 64,
                "duration": 0.24318181818182083,
                "tempo": 120.0
            },
            {
                "start_time": 16.53409090909091,
                "end_time": 16.763636363636362,
                "pitch": 64,
                "velocity": 64,
                "duration": 0.22954545454545183,
                "tempo": 120.0
            },
            {
                "start_time": 16.763636363636362,
                "end_time": 16.99090909090909,
                "pitch": 71,
                "velocity": 64,
                "duration": 0.22727272727272663,
                "tempo": 120.0
            },
            {
                "start_time": 16.99090909090909,
                "end_time": 17.224999999999998,
                "pitch": 62,
                "velocity": 64,
                "duration": 0.23409090909090935,
                "tempo": 120.0
            },
            {
                "start_time": 17.224999999999998,
                "end_time": 17.456818181818182,
                "pitch": 64,
                "velocity": 64,
                "duration": 0.23181818181818414,
                "tempo": 120.0
            },
            {
                "start_time": 17.456818181818182,
                "end_time": 17.688636363636363,
                "pitch": 71,
                "velocity": 64,
                "duration": 0.2318181818181806,
                "tempo": 120.0
            },
            {
                "start_time": 17.688636363636363,
                "end_time": 17.929545454545455,
                "pitch": 62,
                "velocity": 64,
                "duration": 0.24090909090909207,
                "tempo": 120.0
            },
            {
                "start_time": 17.929545454545455,
                "end_time": 18.161363636363635,
                "pitch": 64,
                "velocity": 64,
                "duration": 0.2318181818181806,
                "tempo": 120.0
            },
            {
                "start_time": 18.161363636363635,
                "end_time": 18.386363636363637,
                "pitch": 71,
                "velocity": 64,
                "duration": 0.22500000000000142,
                "tempo": 120.0
            },
            {
                "start_time": 18.386363636363637,
                "end_time": 18.62272727272727,
                "pitch": 62,
                "velocity": 64,
                "duration": 0.23636363636363455,
                "tempo": 120.0
            },
            {
                "start_time": 18.62272727272727,
                "end_time": 18.852272727272727,
                "pitch": 64,
                "velocity": 64,
                "duration": 0.22954545454545539,
                "tempo": 120.0
            },
            {
                "start_time": 18.852272727272727,
                "end_time": 19.084090909090907,
                "pitch": 71,
                "velocity": 64,
                "duration": 0.2318181818181806,
                "tempo": 120.0
            },
            {
                "start_time": 19.084090909090907,
                "end_time": 19.320454545454545,
                "pitch": 62,
                "velocity": 64,
                "duration": 0.2363636363636381,
                "tempo": 120.0
            },
            {
                "start_time": 19.320454545454545,
                "end_time": 19.545454545454543,
                "pitch": 64,
                "velocity": 64,
                "duration": 0.22499999999999787,
                "tempo": 120.0
            },
            {
                "start_time": 19.545454545454543,
                "end_time": 19.777272727272727,
                "pitch": 71,
                "velocity": 64,
                "duration": 0.23181818181818414,
                "tempo": 120.0
            },
            {
                "start_time": 19.777272727272727,
                "end_time": 20.018181818181816,
                "pitch": 62,
                "velocity": 64,
                "duration": 0.24090909090908852,
                "tempo": 120.0
            },
            {
                "start_time": 20.018181818181816,
                "end_time": 20.25,
                "pitch": 64,
                "velocity": 64,
                "duration": 0.23181818181818414,
                "tempo": 120.0
            },
            {
                "start_time": 20.25,
                "end_time": 20.479545454545452,
                "pitch": 71,
                "velocity": 64,
                "duration": 0.22954545454545183,
                "tempo": 120.0
            },
            {
                "start_time": 20.479545454545452,
                "end_time": 20.720454545454544,
                "pitch": 62,
                "velocity": 64,
                "duration": 0.24090909090909207,
                "tempo": 120.0
            },
            {
                "start_time": 20.720454545454544,
                "end_time": 20.952272727272724,
                "pitch": 64,
                "velocity": 64,
                "duration": 0.2318181818181806,
                "tempo": 120.0
            },
            {
                "start_time": 20.952272727272724,
                "end_time": 21.179545454545455,
                "pitch": 71,
                "velocity": 64,
                "duration": 0.22727272727273018,
                "tempo": 120.0
            },
            {
                "start_time": 21.179545454545455,
                "end_time": 21.413636363636364,
                "pitch": 62,
                "velocity": 64,
                "duration": 0.23409090909090935,
                "tempo": 120.0
            },
            {
                "start_time": 21.413636363636364,
                "end_time": 21.645454545454545,
                "pitch": 64,
                "velocity": 64,
                "duration": 0.2318181818181806,
                "tempo": 120.0
            },
            {
                "start_time": 21.645454545454545,
                "end_time": 21.877272727272725,
                "pitch": 71,
                "velocity": 64,
                "duration": 0.2318181818181806,
                "tempo": 120.0
            },
            {
                "start_time": 21.877272727272725,
                "end_time": 22.111363636363635,
                "pitch": 62,
                "velocity": 64,
                "duration": 0.23409090909090935,
                "tempo": 120.0
            },
            {
                "start_time": 22.111363636363635,
                "end_time": 22.33863636363636,
                "pitch": 64,
                "velocity": 64,
                "duration": 0.22727272727272663,
                "tempo": 120.0
            },
            {
                "start_time": 22.33863636363636,
                "end_time": 22.568181818181817,
                "pitch": 62,
                "velocity": 64,
                "duration": 0.22954545454545539,
                "tempo": 120.0
            },
            {
                "start_time": 22.568181818181817,
                "end_time": 22.811363636363634,
                "pitch": 64,
                "velocity": 64,
                "duration": 0.24318181818181728,
                "tempo": 120.0
            },
            {
                "start_time": 22.811363636363634,
                "end_time": 23.04090909090909,
                "pitch": 71,
                "velocity": 64,
                "duration": 0.22954545454545539,
                "tempo": 120.0
            },
            {
                "start_time": 23.04090909090909,
                "end_time": 23.272727272727273,
                "pitch": 62,
                "velocity": 64,
                "duration": 0.23181818181818414,
                "tempo": 120.0
            },
            {
                "start_time": 23.272727272727273,
                "end_time": 23.509090909090908,
                "pitch": 64,
                "velocity": 64,
                "duration": 0.23636363636363455,
                "tempo": 120.0
            },
            {
                "start_time": 23.509090909090908,
                "end_time": 23.73409090909091,
                "pitch": 71,
                "velocity": 64,
                "duration": 0.22500000000000142,
                "tempo": 120.0
            },
            {
                "start_time": 23.73409090909091,
                "end_time": 23.96590909090909,
                "pitch": 62,
                "velocity": 64,
                "duration": 0.2318181818181806,
                "tempo": 120.0
            },
            {
                "start_time": 23.96590909090909,
                "end_time": 24.206818181818182,
                "pitch": 64,
                "velocity": 64,
                "duration": 0.24090909090909207,
                "tempo": 120.0
            },
            {
                "start_time": 24.206818181818182,
                "end_time": 24.438636363636363,
                "pitch": 71,
                "velocity": 64,
                "duration": 0.2318181818181806,
                "tempo": 120.0
            },
            {
                "start_time": 24.438636363636363,
                "end_time": 24.668181818181818,
                "pitch": 62,
                "velocity": 64,
                "duration": 0.22954545454545539,
                "tempo": 120.0
            },
            {
                "start_time": 24.668181818181818,
                "end_time": 24.904545454545453,
                "pitch": 64,
                "velocity": 64,
                "duration": 0.23636363636363455,
                "tempo": 120.0
            },
            {
                "start_time": 24.904545454545453,
                "end_time": 25.129545454545454,
                "pitch": 71,
                "velocity": 64,
                "duration": 0.22500000000000142,
                "tempo": 120.0
            },
            {
                "start_time": 25.129545454545454,
                "end_time": 25.361363636363635,
                "pitch": 62,
                "velocity": 64,
                "duration": 0.2318181818181806,
                "tempo": 120.0
            },
            {
                "start_time": 25.361363636363635,
                "end_time": 25.602272727272727,
                "pitch": 64,
                "velocity": 64,
                "duration": 0.24090909090909207,
                "tempo": 120.0
            },
            {
                "start_time": 25.602272727272727,
                "end_time": 25.834090909090907,
                "pitch": 71,
                "velocity": 64,
                "duration": 0.2318181818181806,
                "tempo": 120.0
            },
            {
                "start_time": 25.834090909090907,
                "end_time": 26.06590909090909,
                "pitch": 62,
                "velocity": 64,
                "duration": 0.23181818181818414,
                "tempo": 120.0
            },
            {
                "start_time": 26.06590909090909,
                "end_time": 26.299999999999997,
                "pitch": 64,
                "velocity": 64,
                "duration": 0.2340909090909058,
                "tempo": 120.0
            },
            {
                "start_time": 26.299999999999997,
                "end_time": 26.527272727272727,
                "pitch": 71,
                "velocity": 64,
                "duration": 0.22727272727273018,
                "tempo": 120.0
            },
            {
                "start_time": 26.527272727272727,
                "end_time": 26.75681818181818,
                "pitch": 62,
                "velocity": 64,
                "duration": 0.22954545454545183,
                "tempo": 120.0
            },
            {
                "start_time": 26.75681818181818,
                "end_time": 26.99772727272727,
                "pitch": 64,
                "velocity": 64,
                "duration": 0.24090909090909207,
                "tempo": 120.0
            },
            {
                "start_time": 26.99772727272727,
                "end_time": 27.229545454545452,
                "pitch": 71,
                "velocity": 64,
                "duration": 0.2318181818181806,
                "tempo": 120.0
            },
            {
                "start_time": 27.229545454545452,
                "end_time": 27.461363636363636,
                "pitch": 62,
                "velocity": 64,
                "duration": 0.23181818181818414,
                "tempo": 120.0
            },
            {
                "start_time": 27.461363636363636,
                "end_time": 27.702272727272724,
                "pitch": 64,
                "velocity": 64,
                "duration": 0.24090909090908852,
                "tempo": 120.0
            },
            {
                "start_time": 27.702272727272724,
                "end_time": 27.93409090909091,
                "pitch": 71,
                "velocity": 64,
                "duration": 0.23181818181818414,
                "tempo": 120.0
            },
            {
                "start_time": 27.93409090909091,
                "end_time": 28.159090909090907,
                "pitch": 62,
                "velocity": 64,
                "duration": 0.22499999999999787,
                "tempo": 120.0
            },
            {
                "start_time": 28.159090909090907,
                "end_time": 28.395454545454545,
                "pitch": 64,
                "velocity": 64,
                "duration": 0.2363636363636381,
                "tempo": 120.0
            },
            {
                "start_time": 28.395454545454545,
                "end_time": 28.625,
                "pitch": 71,
                "velocity": 64,
                "duration": 0.22954545454545539,
                "tempo": 120.0
            },
            {
                "start_time": 28.625,
                "end_time": 28.85681818181818,
                "pitch": 62,
                "velocity": 64,
                "duration": 0.2318181818181806,
                "tempo": 120.0
            },
            {
                "start_time": 28.85681818181818,
                "end_time": 29.097727272727273,
                "pitch": 64,
                "velocity": 64,
                "duration": 0.24090909090909207,
                "tempo": 120.0
            },
            {
                "start_time": 29.097727272727273,
                "end_time": 29.329545454545453,
                "pitch": 71,
                "velocity": 64,
                "duration": 0.2318181818181806,
                "tempo": 120.0
            },
            {
                "start_time": 29.329545454545453,
                "end_time": 29.554545454545455,
                "pitch": 62,
                "velocity": 64,
                "duration": 0.22500000000000142,
                "tempo": 120.0
            },
            {
                "start_time": 29.554545454545455,
                "end_time": 29.79090909090909,
                "pitch": 64,
                "velocity": 64,
                "duration": 0.23636363636363455,
                "tempo": 120.0
            }
        ],
        "Electric Guitar (clean)": [
            {
                "start_time": 0.00909090909090909,
                "end_time": 3.7318181818181815,
                "pitch": 28,
                "velocity": 64,
                "duration": 3.722727272727272,
                "tempo": 120.0
            },
            {
                "start_time": 3.7318181818181815,
                "end_time": 7.459090909090909,
                "pitch": 28,
                "velocity": 64,
                "duration": 3.7272727272727275,
                "tempo": 120.0
            },
            {
                "start_time": 7.459090909090909,
                "end_time": 11.184090909090909,
                "pitch": 29,
                "velocity": 64,
                "duration": 3.7249999999999996,
                "tempo": 120.0
            },
            {
                "start_time": 11.184090909090909,
                "end_time": 14.895454545454545,
                "pitch": 29,
                "velocity": 64,
                "duration": 3.711363636363636,
                "tempo": 120.0
            },
            {
                "start_time": 14.895454545454545,
                "end_time": 18.62272727272727,
                "pitch": 28,
                "velocity": 64,
                "duration": 3.7272727272727266,
                "tempo": 120.0
            },
            {
                "start_time": 18.62272727272727,
                "end_time": 22.33863636363636,
                "pitch": 28,
                "velocity": 64,
                "duration": 3.71590909090909,
                "tempo": 120.0
            },
            {
                "start_time": 22.33863636363636,
                "end_time": 26.06590909090909,
                "pitch": 28,
                "velocity": 64,
                "duration": 3.72727272727273,
                "tempo": 120.0
            },
            {
                "start_time": 26.06590909090909,
                "end_time": 29.79090909090909,
                "pitch": 28,
                "velocity": 64,
                "duration": 3.724999999999998,
                "tempo": 120.0
            },
            {
                "start_time": 29.79090909090909,
                "end_time": 33.50681818181818,
                "pitch": 28,
                "velocity": 64,
                "duration": 3.7159090909090935,
                "tempo": 120.0
            },
            {
                "start_time": 33.50681818181818,
                "end_time": 37.23409090909091,
                "pitch": 28,
                "velocity": 64,
                "duration": 3.7272727272727266,
                "tempo": 120.0
            },
            {
                "start_time": 37.23409090909091,
                "end_time": 40.95681818181818,
                "pitch": 29,
                "velocity": 64,
                "duration": 3.722727272727269,
                "tempo": 120.0
            },
            {
                "start_time": 40.95681818181818,
                "end_time": 44.684090909090905,
                "pitch": 29,
                "velocity": 64,
                "duration": 3.7272727272727266,
                "tempo": 120.0
            }
        ],
        "Flute": [
            {
                "start_time": 0.4818181818181818,
                "end_time": 0.7159090909090908,
                "pitch": 71,
                "velocity": 127,
                "duration": 0.23409090909090902,
                "tempo": 120.0
            },
            {
                "start_time": 0.7159090909090908,
                "end_time": 0.95,
                "pitch": 76,
                "velocity": 127,
                "duration": 0.23409090909090913,
                "tempo": 120.0
            },
            {
                "start_time": 0.95,
                "end_time": 1.1863636363636363,
                "pitch": 78,
                "velocity": 127,
                "duration": 0.23636363636363633,
                "tempo": 120.0
            },
            {
                "start_time": 1.1863636363636363,
                "end_time": 1.4113636363636364,
                "pitch": 76,
                "velocity": 127,
                "duration": 0.2250000000000001,
                "tempo": 120.0
            },
            {
                "start_time": 1.4113636363636364,
                "end_time": 1.643181818181818,
                "pitch": 79,
                "velocity": 127,
                "duration": 0.2318181818181817,
                "tempo": 120.0
            },
            {
                "start_time": 1.643181818181818,
                "end_time": 1.884090909090909,
                "pitch": 78,
                "velocity": 127,
                "duration": 0.24090909090909096,
                "tempo": 120.0
            },
            {
                "start_time": 1.884090909090909,
                "end_time": 3.2704545454545455,
                "pitch": 81,
                "velocity": 127,
                "duration": 1.3863636363636365,
                "tempo": 120.0
            },
            {
                "start_time": 3.2704545454545455,
                "end_time": 3.7318181818181815,
                "pitch": 79,
                "velocity": 127,
                "duration": 0.461363636363636,
                "tempo": 120.0
            },
            {
                "start_time": 3.7318181818181815,
                "end_time": 4.425,
                "pitch": 78,
                "velocity": 127,
                "duration": 0.6931818181818183,
                "tempo": 120.0
            },
            {
                "start_time": 4.425,
                "end_time": 4.665909090909091,
                "pitch": 76,
                "velocity": 127,
                "duration": 0.24090909090909118,
                "tempo": 120.0
            },
            {
                "start_time": 4.665909090909091,
                "end_time": 5.138636363636364,
                "pitch": 74,
                "velocity": 127,
                "duration": 0.47272727272727266,
                "tempo": 120.0
            },
            {
                "start_time": 5.138636363636364,
                "end_time": 5.602272727272727,
                "pitch": 72,
                "velocity": 127,
                "duration": 0.46363636363636296,
                "tempo": 120.0
            },
            {
                "start_time": 5.602272727272727,
                "end_time": 6.5249999999999995,
                "pitch": 71,
                "velocity": 127,
                "duration": 0.9227272727272728,
                "tempo": 120.0
            },
            {
                "start_time": 6.5249999999999995,
                "end_time": 7.459090909090909,
                "pitch": 72,
                "velocity": 127,
                "duration": 0.9340909090909095,
                "tempo": 120.0
            },
            {
                "start_time": 7.459090909090909,
                "end_time": 7.920454545454545,
                "pitch": 77,
                "velocity": 127,
                "duration": 0.461363636363636,
                "tempo": 120.0
            },
            {
                "start_time": 7.920454545454545,
                "end_time": 8.384090909090908,
                "pitch": 76,
                "velocity": 127,
                "duration": 0.46363636363636296,
                "tempo": 120.0
            },
            {
                "start_time": 8.384090909090908,
                "end_time": 9.325,
                "pitch": 75,
                "velocity": 127,
                "duration": 0.9409090909090914,
                "tempo": 120.0
            },
            {
                "start_time": 9.786363636363635,
                "end_time": 10.022727272727272,
                "pitch": 77,
                "velocity": 127,
                "duration": 0.23636363636363633,
                "tempo": 120.0
            },
            {
                "start_time": 10.022727272727272,
                "end_time": 10.270454545454545,
                "pitch": 81,
                "velocity": 127,
                "duration": 0.24772727272727302,
                "tempo": 120.0
            },
            {
                "start_time": 10.270454545454545,
                "end_time": 10.49090909090909,
                "pitch": 83,
                "velocity": 127,
                "duration": 0.22045454545454568,
                "tempo": 120.0
            },
            {
                "start_time": 10.49090909090909,
                "end_time": 10.711363636363636,
                "pitch": 84,
                "velocity": 127,
                "duration": 0.22045454545454568,
                "tempo": 120.0
            },
            {
                "start_time": 10.711363636363636,
                "end_time": 10.952272727272726,
                "pitch": 86,
                "velocity": 127,
                "duration": 0.2409090909090903,
                "tempo": 120.0
            },
            {
                "start_time": 10.952272727272726,
                "end_time": 11.184090909090909,
                "pitch": 84,
                "velocity": 127,
                "duration": 0.23181818181818237,
                "tempo": 120.0
            },
            {
                "start_time": 11.184090909090909,
                "end_time": 12.575,
                "pitch": 83,
                "velocity": 127,
                "duration": 1.3909090909090907,
                "tempo": 120.0
            },
            {
                "start_time": 12.575,
                "end_time": 12.806818181818182,
                "pitch": 77,
                "velocity": 127,
                "duration": 0.23181818181818237,
                "tempo": 120.0
            },
            {
                "start_time": 12.806818181818182,
                "end_time": 13.047727272727272,
                "pitch": 75,
                "velocity": 127,
                "duration": 0.2409090909090903,
                "tempo": 120.0
            },
            {
                "start_time": 13.047727272727272,
                "end_time": 13.972727272727273,
                "pitch": 71,
                "velocity": 127,
                "duration": 0.9250000000000007,
                "tempo": 120.0
            },
            {
                "start_time": 13.972727272727273,
                "end_time": 14.443181818181818,
                "pitch": 77,
                "velocity": 127,
                "duration": 0.4704545454545457,
                "tempo": 120.0
            },
            {
                "start_time": 14.443181818181818,
                "end_time": 14.895454545454545,
                "pitch": 75,
                "velocity": 127,
                "duration": 0.45227272727272627,
                "tempo": 120.0
            },
            {
                "start_time": 14.895454545454545,
                "end_time": 18.62272727272727,
                "pitch": 76,
                "velocity": 127,
                "duration": 3.7272727272727266,
                "tempo": 120.0
            },
            {
                "start_time": 30.254545454545454,
                "end_time": 30.495454545454542,
                "pitch": 71,
                "velocity": 127,
                "duration": 0.24090909090908852,
                "tempo": 120.0
            },
            {
                "start_time": 30.495454545454542,
                "end_time": 30.724999999999998,
                "pitch": 76,
                "velocity": 127,
                "duration": 0.22954545454545539,
                "tempo": 120.0
            },
            {
                "start_time": 30.724999999999998,
                "end_time": 30.952272727272724,
                "pitch": 78,
                "velocity": 127,
                "duration": 0.22727272727272663,
                "tempo": 120.0
            },
            {
                "start_time": 30.952272727272724,
                "end_time": 31.186363636363634,
                "pitch": 76,
                "velocity": 127,
                "duration": 0.23409090909090935,
                "tempo": 120.0
            },
            {
                "start_time": 31.186363636363634,
                "end_time": 31.418181818181818,
                "pitch": 79,
                "velocity": 127,
                "duration": 0.23181818181818414,
                "tempo": 120.0
            },
            {
                "start_time": 31.418181818181818,
                "end_time": 31.65,
                "pitch": 78,
                "velocity": 127,
                "duration": 0.2318181818181806,
                "tempo": 120.0
            },
            {
                "start_time": 31.65,
                "end_time": 33.03409090909091,
                "pitch": 81,
                "velocity": 127,
                "duration": 1.384090909090908,
                "tempo": 120.0
            },
            {
                "start_time": 33.03409090909091,
                "end_time": 33.50681818181818,
                "pitch": 79,
                "velocity": 127,
                "duration": 0.4727272727272762,
                "tempo": 120.0
            },
            {
                "start_time": 33.50681818181818,
                "end_time": 34.211363636363636,
                "pitch": 78,
                "velocity": 127,
                "duration": 0.7045454545454533,
                "tempo": 120.0
            },
            {
                "start_time": 34.211363636363636,
                "end_time": 34.44318181818181,
                "pitch": 76,
                "velocity": 127,
                "duration": 0.23181818181817704,
                "tempo": 120.0
            },
            {
                "start_time": 34.44318181818181,
                "end_time": 34.904545454545456,
                "pitch": 74,
                "velocity": 127,
                "duration": 0.4613636363636431,
                "tempo": 120.0
            },
            {
                "start_time": 34.904545454545456,
                "end_time": 35.38636363636363,
                "pitch": 72,
                "velocity": 127,
                "duration": 0.48181818181817704,
                "tempo": 120.0
            },
            {
                "start_time": 35.38636363636363,
                "end_time": 36.31136363636364,
                "pitch": 71,
                "velocity": 127,
                "duration": 0.9250000000000043,
                "tempo": 120.0
            },
            {
                "start_time": 36.31136363636364,
                "end_time": 37.23409090909091,
                "pitch": 72,
                "velocity": 127,
                "duration": 0.922727272727272,
                "tempo": 120.0
            },
            {
                "start_time": 37.23409090909091,
                "end_time": 37.695454545454545,
                "pitch": 77,
                "velocity": 127,
                "duration": 0.461363636363636,
                "tempo": 120.0
            },
            {
                "start_time": 37.695454545454545,
                "end_time": 38.175,
                "pitch": 76,
                "velocity": 127,
                "duration": 0.47954545454545183,
                "tempo": 120.0
            },
            {
                "start_time": 38.175,
                "end_time": 39.1,
                "pitch": 75,
                "velocity": 127,
                "duration": 0.9250000000000043,
                "tempo": 120.0
            },
            {
                "start_time": 39.57272727272727,
                "end_time": 39.80227272727272,
                "pitch": 77,
                "velocity": 127,
                "duration": 0.22954545454545183,
                "tempo": 120.0
            },
            {
                "start_time": 39.80227272727272,
                "end_time": 40.03409090909091,
                "pitch": 81,
                "velocity": 127,
                "duration": 0.23181818181818414,
                "tempo": 120.0
            },
            {
                "start_time": 40.03409090909091,
                "end_time": 40.26363636363636,
                "pitch": 83,
                "velocity": 127,
                "duration": 0.22954545454545183,
                "tempo": 120.0
            },
            {
                "start_time": 40.26363636363636,
                "end_time": 40.486363636363635,
                "pitch": 84,
                "velocity": 127,
                "duration": 0.22272727272727622,
                "tempo": 120.0
            },
            {
                "start_time": 40.486363636363635,
                "end_time": 40.715909090909086,
                "pitch": 86,
                "velocity": 127,
                "duration": 0.22954545454545183,
                "tempo": 120.0
            },
            {
                "start_time": 40.715909090909086,
                "end_time": 40.95681818181818,
                "pitch": 84,
                "velocity": 127,
                "duration": 0.24090909090909207,
                "tempo": 120.0
            },
            {
                "start_time": 40.95681818181818,
                "end_time": 42.36363636363636,
                "pitch": 83,
                "velocity": 127,
                "duration": 1.4068181818181813,
                "tempo": 120.0
            },
            {
                "start_time": 42.36363636363636,
                "end_time": 42.595454545454544,
                "pitch": 77,
                "velocity": 127,
                "duration": 0.23181818181818414,
                "tempo": 120.0
            },
            {
                "start_time": 42.595454545454544,
                "end_time": 42.82727272727273,
                "pitch": 75,
                "velocity": 127,
                "duration": 0.23181818181818414,
                "tempo": 120.0
            },
            {
                "start_time": 42.82727272727273,
                "end_time": 43.76136363636363,
                "pitch": 71,
                "velocity": 127,
                "duration": 0.9340909090909051,
                "tempo": 120.0
            },
            {
                "start_time": 43.76136363636363,
                "end_time": 44.21363636363636,
                "pitch": 77,
                "velocity": 127,
                "duration": 0.45227272727272805,
                "tempo": 120.0
            },
            {
                "start_time": 44.21363636363636,
                "end_time": 44.684090909090905,
                "pitch": 75,
                "velocity": 127,
                "duration": 0.4704545454545439,
                "tempo": 120.0
            }
        ]
    }
}