{
    "track_id": "04 Act 1, 6",
    "mood": "angry",
    "instruments": {
        "Trumpet": [
            {
                "start_time": 0.05227272727272727,
                "end_time": 2.1386363636363637,
                "pitch": 71,
                "velocity": 80,
                "duration": 2.0863636363636364,
                "tempo": 120.0
            },
            {
                "start_time": 2.165909090909091,
                "end_time": 2.3045454545454542,
                "pitch": 71,
                "velocity": 80,
                "duration": 0.13863636363636322,
                "tempo": 120.0
            },
            {
                "start_time": 2.495454545454545,
                "end_time": 5.034090909090909,
                "pitch": 66,
                "velocity": 80,
                "duration": 2.538636363636364,
                "tempo": 120.0
            },
            {
                "start_time": 5.25,
                "end_time": 7.334090909090909,
                "pitch": 71,
                "velocity": 80,
                "duration": 2.084090909090909,
                "tempo": 120.0
            },
            {
                "start_time": 7.363636363636363,
                "end_time": 7.502272727272727,
                "pitch": 71,
                "velocity": 80,
                "duration": 0.13863636363636367,
                "tempo": 120.0
            },
            {
                "start_time": 2.495454545454545,
                "end_time": 7.6909090909090905,
                "pitch": 44,
                "velocity": 80,
                "duration": 5.195454545454545,
                "tempo": 120.0
            },
            {
                "start_time": 7.6909090909090905,
                "end_time": 10.229545454545454,
                "pitch": 66,
                "velocity": 80,
                "duration": 2.538636363636363,
                "tempo": 120.0
            },
            {
                "start_time": 5.25,
                "end_time": 10.445454545454545,
                "pitch": 78,
                "velocity": 80,
                "duration": 5.195454545454545,
                "tempo": 120.0
            },
            {
                "start_time": 10.445454545454545,
                "end_time": 12.531818181818181,
                "pitch": 71,
                "velocity": 80,
                "duration": 2.086363636363636,
                "tempo": 120.0
            },
            {
                "start_time": 12.559090909090909,
                "end_time": 12.697727272727272,
                "pitch": 71,
                "velocity": 80,
                "duration": 0.13863636363636367,
                "tempo": 120.0
            },
            {
                "start_time": 7.6909090909090905,
                "end_time": 12.888636363636364,
                "pitch": 44,
                "velocity": 80,
                "duration": 5.197727272727273,
                "tempo": 120.0
            },
            {
                "start_time": 12.888636363636364,
                "end_time": 15.427272727272726,
                "pitch": 66,
                "velocity": 80,
                "duration": 2.5386363636363622,
                "tempo": 120.0
            },
            {
                "start_time": 10.445454545454545,
                "end_time": 15.643181818181818,
                "pitch": 78,
                "velocity": 80,
                "duration": 5.197727272727272,
                "tempo": 120.0
            },
            {
                "start_time": 15.643181818181818,
                "end_time": 17.73409090909091,
                "pitch": 71,
                "velocity": 80,
                "duration": 2.0909090909090917,
                "tempo": 120.0
            },
            {
                "start_time": 17.761363636363637,
                "end_time": 17.895454545454545,
                "pitch": 71,
                "velocity": 80,
                "duration": 0.13409090909090793,
                "tempo": 120.0
            },
            {
                "start_time": 12.888636363636364,
                "end_time": 18.084090909090907,
                "pitch": 44,
                "velocity": 80,
                "duration": 5.1954545454545435,
                "tempo": 120.0
            },
            {
                "start_time": 18.084090909090907,
                "end_time": 20.62272727272727,
                "pitch": 66,
                "velocity": 80,
                "duration": 2.538636363636364,
                "tempo": 120.0
            },
            {
                "start_time": 15.643181818181818,
                "end_time": 20.83863636363636,
                "pitch": 78,
                "velocity": 80,
                "duration": 5.1954545454545435,
                "tempo": 120.0
            },
            {
                "start_time": 20.83863636363636,
                "end_time": 22.93181818181818,
                "pitch": 71,
                "velocity": 80,
                "duration": 2.0931818181818187,
                "tempo": 120.0
            },
            {
                "start_time": 22.956818181818182,
                "end_time": 23.09318181818182,
                "pitch": 71,
                "velocity": 80,
                "duration": 0.1363636363636367,
                "tempo": 120.0
            },
            {
                "start_time": 23.28181818181818,
                "end_time": 25.820454545454545,
                "pitch": 71,
                "velocity": 80,
                "duration": 2.538636363636364,
                "tempo": 120.0
            },
            {
                "start_time": 26.036363636363635,
                "end_time": 28.127272727272725,
                "pitch": 71,
                "velocity": 80,
                "duration": 2.09090909090909,
                "tempo": 120.0
            },
            {
                "start_time": 28.154545454545453,
                "end_time": 28.288636363636364,
                "pitch": 71,
                "velocity": 80,
                "duration": 0.13409090909091148,
                "tempo": 120.0
            },
            {
                "start_time": 28.477272727272727,
                "end_time": 31.01590909090909,
                "pitch": 71,
                "velocity": 80,
                "duration": 2.538636363636364,
                "tempo": 120.0
            },
            {
                "start_time": 31.23181818181818,
                "end_time": 33.324999999999996,
                "pitch": 71,
                "velocity": 80,
                "duration": 2.093181818181815,
                "tempo": 120.0
            },
            {
                "start_time": 33.35,
                "end_time": 33.486363636363635,
                "pitch": 71,
                "velocity": 80,
                "duration": 0.13636363636363313,
                "tempo": 120.0
            },
            {
                "start_time": 33.67272727272727,
                "end_time": 36.215909090909086,
                "pitch": 71,
                "velocity": 80,
                "duration": 2.5431818181818144,
                "tempo": 120.0
            },
            {
                "start_time": 36.43863636363636,
                "end_time": 38.52045454545454,
                "pitch": 71,
                "velocity": 80,
                "duration": 2.0818181818181785,
                "tempo": 120.0
            },
            {
                "start_time": 38.54772727272727,
                "end_time": 38.68181818181818,
                "pitch": 71,
                "velocity": 80,
                "duration": 0.13409090909090793,
                "tempo": 120.0
            },
            {
                "start_time": 18.084090909090907,
                "end_time": 38.87045454545454,
                "pitch": 44,
                "velocity": 80,
                "duration": 20.786363636363635,
                "tempo": 120.0
            },
            {
                "start_time": 38.87045454545454,
                "end_time": 41.40909090909091,
                "pitch": 66,
                "velocity": 80,
                "duration": 2.538636363636364,
                "tempo": 120.0
            },
            {
                "start_time": 20.83863636363636,
                "end_time": 41.625,
                "pitch": 78,
                "velocity": 80,
                "duration": 20.78636363636364,
                "tempo": 120.0
            },
            {
                "start_time": 41.625,
                "end_time": 43.715909090909086,
                "pitch": 71,
                "velocity": 80,
                "duration": 2.0909090909090864,
                "tempo": 120.0
            },
            {
                "start_time": 43.74318181818182,
                "end_time": 43.877272727272725,
                "pitch": 71,
                "velocity": 80,
                "duration": 0.13409090909090793,
                "tempo": 120.0
            },
            {
                "start_time": 38.87045454545454,
                "end_time": 44.06590909090909,
                "pitch": 44,
                "velocity": 80,
                "duration": 5.195454545454545,
                "tempo": 120.0
            },
            {
                "start_time": 44.06590909090909,
                "end_time": 46.60681818181818,
                "pitch": 66,
                "velocity": 80,
                "duration": 2.5409090909090892,
                "tempo": 120.0
            },
            {
                "start_time": 41.625,
                "end_time": 46.820454545454545,
                "pitch": 78,
                "velocity": 80,
                "duration": 5.195454545454545,
                "tempo": 120.0
            },
            {
                "start_time": 46.820454545454545,
                "end_time": 48.913636363636364,
                "pitch": 71,
                "velocity": 80,
                "duration": 2.0931818181818187,
                "tempo": 120.0
            },
            {
                "start_time": 48.94090909090909,
                "end_time": 49.074999999999996,
                "pitch": 71,
                "velocity": 80,
                "duration": 0.13409090909090793,
                "tempo": 120.0
            },
            {
                "start_time": 49.26363636363636,
                "end_time": 51.80227272727272,
                "pitch": 71,
                "velocity": 80,
                "duration": 2.538636363636364,
                "tempo": 120.0
            },
            {
                "start_time": 52.018181818181816,
                "end_time": 54.10909090909091,
                "pitch": 71,
                "velocity": 80,
                "duration": 2.0909090909090935,
                "tempo": 120.0
            },
            {
                "start_time": 54.13636363636363,
                "end_time": 54.27045454545454,
                "pitch": 71,
                "velocity": 80,
                "duration": 0.13409090909090793,
                "tempo": 120.0
            },
            {
                "start_time": 54.459090909090904,
                "end_time": 56.99772727272727,
                "pitch": 71,
                "velocity": 80,
                "duration": 2.538636363636364,
                "tempo": 120.0
            },
            {
                "start_time": 57.21363636363636,
                "end_time": 59.60227272727273,
                "pitch": 72,
                "velocity": 80,
                "duration": 2.3886363636363654,
                "tempo": 120.0
            },
            {
                "start_time": 59.81818181818181,
                "end_time": 61.65681818181818,
                "pitch": 74,
                "velocity": 80,
                "duration": 1.8386363636363683,
                "tempo": 120.0
            },
            {
                "start_time": 61.92727272727272,
                "end_time": 62.06136363636363,
                "pitch": 74,
                "velocity": 80,
                "duration": 0.13409090909090793,
                "tempo": 120.0
            },
            {
                "start_time": 62.41136363636363,
                "end_time": 67.39545454545454,
                "pitch": 74,
                "velocity": 80,
                "duration": 4.984090909090909,
                "tempo": 120.0
            },
            {
                "start_time": 67.61818181818181,
                "end_time": 69.7,
                "pitch": 71,
                "velocity": 80,
                "duration": 2.0818181818181927,
                "tempo": 120.0
            },
            {
                "start_time": 69.72727272727272,
                "end_time": 69.86136363636363,
                "pitch": 71,
                "velocity": 80,
                "duration": 0.13409090909091503,
                "tempo": 120.0
            },
            {
                "start_time": 44.06590909090909,
                "end_time": 70.05,
                "pitch": 44,
                "velocity": 80,
                "duration": 25.98409090909091,
                "tempo": 120.0
            },
            {
                "start_time": 70.05,
                "end_time": 72.58863636363635,
                "pitch": 66,
                "velocity": 80,
                "duration": 2.538636363636357,
                "tempo": 120.0
            },
            {
                "start_time": 46.820454545454545,
                "end_time": 72.80454545454545,
                "pitch": 78,
                "velocity": 80,
                "duration": 25.984090909090902,
                "tempo": 120.0
            },
            {
                "start_time": 72.80454545454545,
                "end_time": 74.89545454545454,
                "pitch": 71,
                "velocity": 80,
                "duration": 2.0909090909090935,
                "tempo": 120.0
            },
            {
                "start_time": 74.92272727272727,
                "end_time": 75.05681818181817,
                "pitch": 71,
                "velocity": 80,
                "duration": 0.13409090909090082,
                "tempo": 120.0
            },
            {
                "start_time": 70.05,
                "end_time": 75.24545454545454,
                "pitch": 44,
                "velocity": 80,
                "duration": 5.195454545454538,
                "tempo": 120.0
            },
            {
                "start_time": 75.24545454545454,
                "end_time": 77.78863636363636,
                "pitch": 66,
                "velocity": 80,
                "duration": 2.5431818181818215,
                "tempo": 120.0
            },
            {
                "start_time": 72.80454545454545,
                "end_time": 78.01136363636363,
                "pitch": 78,
                "velocity": 80,
                "duration": 5.2068181818181785,
                "tempo": 120.0
            },
            {
                "start_time": 78.01136363636363,
                "end_time": 78.3340909090909,
                "pitch": 71,
                "velocity": 80,
                "duration": 0.32272727272727764,
                "tempo": 120.0
            }
        ],
        "Violin": [
            {
                "start_time": 0.05454545454545454,
                "end_time": 2.1386363636363637,
                "pitch": 64,
                "velocity": 127,
                "duration": 2.084090909090909,
                "tempo": 120.0
            },
            {
                "start_time": 2.168181818181818,
                "end_time": 2.3045454545454542,
                "pitch": 64,
                "velocity": 127,
                "duration": 0.13636363636363624,
                "tempo": 120.0
            },
            {
                "start_time": 2.495454545454545,
                "end_time": 5.034090909090909,
                "pitch": 57,
                "velocity": 127,
                "duration": 2.538636363636364,
                "tempo": 120.0
            },
            {
                "start_time": 5.25,
                "end_time": 7.336363636363636,
                "pitch": 64,
                "velocity": 127,
                "duration": 2.086363636363636,
                "tempo": 120.0
            },
            {
                "start_time": 7.363636363636363,
                "end_time": 7.502272727272727,
                "pitch": 64,
                "velocity": 127,
                "duration": 0.13863636363636367,
                "tempo": 120.0
            },
            {
                "start_time": 2.495454545454545,
                "end_time": 7.6931818181818175,
                "pitch": 66,
                "velocity": 127,
                "duration": 5.197727272727272,
                "tempo": 120.0
            },
            {
                "start_time": 7.6931818181818175,
                "end_time": 10.229545454545454,
                "pitch": 57,
                "velocity": 127,
                "duration": 2.536363636363636,
                "tempo": 120.0
            },
            {
                "start_time": 5.25,
                "end_time": 10.447727272727272,
                "pitch": 31,
                "velocity": 127,
                "duration": 5.197727272727272,
                "tempo": 120.0
            },
            {
                "start_time": 10.447727272727272,
                "end_time": 12.531818181818181,
                "pitch": 64,
                "velocity": 127,
                "duration": 2.084090909090909,
                "tempo": 120.0
            },
            {
                "start_time": 12.561363636363636,
                "end_time": 12.697727272727272,
                "pitch": 64,
                "velocity": 127,
                "duration": 0.1363636363636367,
                "tempo": 120.0
            },
            {
                "start_time": 7.6931818181818175,
                "end_time": 12.888636363636364,
                "pitch": 66,
                "velocity": 127,
                "duration": 5.195454545454546,
                "tempo": 120.0
            },
            {
                "start_time": 12.888636363636364,
                "end_time": 15.427272727272726,
                "pitch": 57,
                "velocity": 127,
                "duration": 2.5386363636363622,
                "tempo": 120.0
            },
            {
                "start_time": 10.447727272727272,
                "end_time": 15.643181818181818,
                "pitch": 31,
                "velocity": 127,
                "duration": 5.195454545454545,
                "tempo": 120.0
            },
            {
                "start_time": 15.643181818181818,
                "end_time": 17.73409090909091,
                "pitch": 64,
                "velocity": 127,
                "duration": 2.0909090909090917,
                "tempo": 120.0
            },
            {
                "start_time": 17.761363636363637,
                "end_time": 17.895454545454545,
                "pitch": 64,
                "velocity": 127,
                "duration": 0.13409090909090793,
                "tempo": 120.0
            },
            {
                "start_time": 12.888636363636364,
                "end_time": 18.086363636363636,
                "pitch": 66,
                "velocity": 127,
                "duration": 5.197727272727272,
                "tempo": 120.0
            },
            {
                "start_time": 18.086363636363636,
                "end_time": 20.62272727272727,
                "pitch": 57,
                "velocity": 127,
                "duration": 2.5363636363636353,
                "tempo": 120.0
            },
            {
                "start_time": 15.643181818181818,
                "end_time": 20.84090909090909,
                "pitch": 31,
                "velocity": 127,
                "duration": 5.197727272727272,
                "tempo": 120.0
            },
            {
                "start_time": 20.84090909090909,
                "end_time": 22.93181818181818,
                "pitch": 64,
                "velocity": 127,
                "duration": 2.09090909090909,
                "tempo": 120.0
            },
            {
                "start_time": 22.959090909090907,
                "end_time": 23.09318181818182,
                "pitch": 64,
                "velocity": 127,
                "duration": 0.13409090909091148,
                "tempo": 120.0
            },
            {
                "start_time": 23.28181818181818,
                "end_time": 25.820454545454545,
                "pitch": 62,
                "velocity": 127,
                "duration": 2.538636363636364,
                "tempo": 120.0
            },
            {
                "start_time": 23.28181818181818,
                "end_time": 28.127272727272725,
                "pitch": 64,
                "velocity": 127,
                "duration": 4.845454545454544,
                "tempo": 120.0
            },
            {
                "start_time": 26.036363636363635,
                "end_time": 28.127272727272725,
                "pitch": 64,
                "velocity": 127,
                "duration": 2.09090909090909,
                "tempo": 120.0
            },
            {
                "start_time": 28.154545454545453,
                "end_time": 28.288636363636364,
                "pitch": 64,
                "velocity": 127,
                "duration": 0.13409090909091148,
                "tempo": 120.0
            },
            {
                "start_time": 26.036363636363635,
                "end_time": 31.01590909090909,
                "pitch": 62,
                "velocity": 127,
                "duration": 4.979545454545455,
                "tempo": 120.0
            },
            {
                "start_time": 28.477272727272727,
                "end_time": 31.01590909090909,
                "pitch": 62,
                "velocity": 127,
                "duration": 2.538636363636364,
                "tempo": 120.0
            },
            {
                "start_time": 28.477272727272727,
                "end_time": 33.324999999999996,
                "pitch": 64,
                "velocity": 127,
                "duration": 4.847727272727269,
                "tempo": 120.0
            },
            {
                "start_time": 31.23409090909091,
                "end_time": 33.324999999999996,
                "pitch": 64,
                "velocity": 127,
                "duration": 2.0909090909090864,
                "tempo": 120.0
            },
            {
                "start_time": 33.35227272727273,
                "end_time": 33.486363636363635,
                "pitch": 64,
                "velocity": 127,
                "duration": 0.13409090909090793,
                "tempo": 120.0
            },
            {
                "start_time": 31.23409090909091,
                "end_time": 36.215909090909086,
                "pitch": 62,
                "velocity": 127,
                "duration": 4.981818181818177,
                "tempo": 120.0
            },
            {
                "start_time": 33.675,
                "end_time": 36.215909090909086,
                "pitch": 62,
                "velocity": 127,
                "duration": 2.5409090909090892,
                "tempo": 120.0
            },
            {
                "start_time": 33.675,
                "end_time": 38.52045454545454,
                "pitch": 64,
                "velocity": 127,
                "duration": 4.845454545454544,
                "tempo": 120.0
            },
            {
                "start_time": 36.44090909090909,
                "end_time": 38.52045454545454,
                "pitch": 64,
                "velocity": 127,
                "duration": 2.0795454545454533,
                "tempo": 120.0
            },
            {
                "start_time": 38.54772727272727,
                "end_time": 38.68181818181818,
                "pitch": 64,
                "velocity": 127,
                "duration": 0.13409090909090793,
                "tempo": 120.0
            },
            {
                "start_time": 18.086363636363636,
                "end_time": 38.87045454545454,
                "pitch": 66,
                "velocity": 127,
                "duration": 20.784090909090907,
                "tempo": 120.0
            },
            {
                "start_time": 38.87045454545454,
                "end_time": 41.40909090909091,
                "pitch": 57,
                "velocity": 127,
                "duration": 2.538636363636364,
                "tempo": 120.0
            },
            {
                "start_time": 20.84090909090909,
                "end_time": 41.627272727272725,
                "pitch": 31,
                "velocity": 127,
                "duration": 20.786363636363635,
                "tempo": 120.0
            },
            {
                "start_time": 41.627272727272725,
                "end_time": 43.71818181818182,
                "pitch": 64,
                "velocity": 127,
                "duration": 2.0909090909090935,
                "tempo": 120.0
            },
            {
                "start_time": 43.74545454545454,
                "end_time": 43.87954545454545,
                "pitch": 64,
                "velocity": 127,
                "duration": 0.13409090909090793,
                "tempo": 120.0
            },
            {
                "start_time": 38.87045454545454,
                "end_time": 44.06818181818181,
                "pitch": 66,
                "velocity": 127,
                "duration": 5.1977272727272705,
                "tempo": 120.0
            },
            {
                "start_time": 44.06818181818181,
                "end_time": 46.60681818181818,
                "pitch": 57,
                "velocity": 127,
                "duration": 2.538636363636364,
                "tempo": 120.0
            },
            {
                "start_time": 41.627272727272725,
                "end_time": 46.82272727272727,
                "pitch": 31,
                "velocity": 127,
                "duration": 5.195454545454545,
                "tempo": 120.0
            },
            {
                "start_time": 46.82272727272727,
                "end_time": 48.913636363636364,
                "pitch": 64,
                "velocity": 127,
                "duration": 2.0909090909090935,
                "tempo": 120.0
            },
            {
                "start_time": 48.94090909090909,
                "end_time": 49.074999999999996,
                "pitch": 64,
                "velocity": 127,
                "duration": 0.13409090909090793,
                "tempo": 120.0
            },
            {
                "start_time": 36.44090909090909,
                "end_time": 51.80227272727272,
                "pitch": 62,
                "velocity": 127,
                "duration": 15.361363636363635,
                "tempo": 120.0
            },
            {
                "start_time": 49.26363636363636,
                "end_time": 51.80227272727272,
                "pitch": 62,
                "velocity": 127,
                "duration": 2.538636363636364,
                "tempo": 120.0
            },
            {
                "start_time": 49.26363636363636,
                "end_time": 54.111363636363635,
                "pitch": 64,
                "velocity": 127,
                "duration": 4.847727272727276,
                "tempo": 120.0
            },
            {
                "start_time": 52.02045454545454,
                "end_time": 54.111363636363635,
                "pitch": 64,
                "velocity": 127,
                "duration": 2.0909090909090935,
                "tempo": 120.0
            },
            {
                "start_time": 54.13863636363636,
                "end_time": 54.27272727272727,
                "pitch": 64,
                "velocity": 127,
                "duration": 0.13409090909091503,
                "tempo": 120.0
            },
            {
                "start_time": 52.02045454545454,
                "end_time": 57.0,
                "pitch": 62,
                "velocity": 127,
                "duration": 4.979545454545459,
                "tempo": 120.0
            },
            {
                "start_time": 54.461363636363636,
                "end_time": 57.0,
                "pitch": 62,
                "velocity": 127,
                "duration": 2.538636363636364,
                "tempo": 120.0
            },
            {
                "start_time": 54.461363636363636,
                "end_time": 59.60227272727273,
                "pitch": 64,
                "velocity": 127,
                "duration": 5.140909090909091,
                "tempo": 120.0
            },
            {
                "start_time": 57.215909090909086,
                "end_time": 59.60227272727273,
                "pitch": 64,
                "velocity": 127,
                "duration": 2.3863636363636402,
                "tempo": 120.0
            },
            {
                "start_time": 59.81818181818181,
                "end_time": 61.65909090909091,
                "pitch": 64,
                "velocity": 127,
                "duration": 1.8409090909090935,
                "tempo": 120.0
            },
            {
                "start_time": 44.06818181818181,
                "end_time": 62.06136363636363,
                "pitch": 66,
                "velocity": 127,
                "duration": 17.993181818181817,
                "tempo": 120.0
            },
            {
                "start_time": 61.92727272727272,
                "end_time": 62.06136363636363,
                "pitch": 66,
                "velocity": 127,
                "duration": 0.13409090909090793,
                "tempo": 120.0
            },
            {
                "start_time": 62.41136363636363,
                "end_time": 67.39545454545454,
                "pitch": 66,
                "velocity": 127,
                "duration": 4.984090909090909,
                "tempo": 120.0
            },
            {
                "start_time": 67.62045454545454,
                "end_time": 69.7,
                "pitch": 64,
                "velocity": 127,
                "duration": 2.0795454545454675,
                "tempo": 120.0
            },
            {
                "start_time": 69.72727272727272,
                "end_time": 69.86136363636363,
                "pitch": 64,
                "velocity": 127,
                "duration": 0.13409090909091503,
                "tempo": 120.0
            },
            {
                "start_time": 70.05,
                "end_time": 72.58863636363635,
                "pitch": 57,
                "velocity": 127,
                "duration": 2.538636363636357,
                "tempo": 120.0
            },
            {
                "start_time": 46.82272727272727,
                "end_time": 72.80454545454545,
                "pitch": 31,
                "velocity": 127,
                "duration": 25.981818181818177,
                "tempo": 120.0
            },
            {
                "start_time": 72.80454545454545,
                "end_time": 74.89772727272727,
                "pitch": 64,
                "velocity": 127,
                "duration": 2.0931818181818187,
                "tempo": 120.0
            },
            {
                "start_time": 74.925,
                "end_time": 75.05909090909091,
                "pitch": 64,
                "velocity": 127,
                "duration": 0.13409090909091503,
                "tempo": 120.0
            },
            {
                "start_time": 70.05,
                "end_time": 75.24772727272727,
                "pitch": 66,
                "velocity": 127,
                "duration": 5.197727272727278,
                "tempo": 120.0
            },
            {
                "start_time": 75.24772727272727,
                "end_time": 77.78863636363636,
                "pitch": 57,
                "velocity": 127,
                "duration": 2.540909090909082,
                "tempo": 120.0
            },
            {
                "start_time": 72.80454545454545,
                "end_time": 78.01363636363637,
                "pitch": 31,
                "velocity": 127,
                "duration": 5.209090909090918,
                "tempo": 120.0
            },
            {
                "start_time": 78.01363636363637,
                "end_time": 78.3340909090909,
                "pitch": 64,
                "velocity": 127,
                "duration": 0.3204545454545382,
                "tempo": 120.0
            }
        ],
        "Lead 2 (sawtooth)": [
            {
                "start_time": 10.447727272727272,
                "end_time": 10.584090909090909,
                "pitch": 64,
                "velocity": 127,
                "duration": 0.1363636363636367,
                "tempo": 120.0
            },
            {
                "start_time": 11.263636363636364,
                "end_time": 11.397727272727272,
                "pitch": 71,
                "velocity": 127,
                "duration": 0.13409090909090793,
                "tempo": 120.0
            },
            {
                "start_time": 12.23181818181818,
                "end_time": 12.36590909090909,
                "pitch": 76,
                "velocity": 127,
                "duration": 0.1340909090909097,
                "tempo": 120.0
            },
            {
                "start_time": 12.888636363636364,
                "end_time": 13.022727272727272,
                "pitch": 74,
                "velocity": 127,
                "duration": 0.13409090909090793,
                "tempo": 120.0
            },
            {
                "start_time": 13.534090909090908,
                "end_time": 13.668181818181818,
                "pitch": 74,
                "velocity": 127,
                "duration": 0.1340909090909097,
                "tempo": 120.0
            },
            {
                "start_time": 13.85681818181818,
                "end_time": 13.99090909090909,
                "pitch": 73,
                "velocity": 127,
                "duration": 0.1340909090909097,
                "tempo": 120.0
            },
            {
                "start_time": 14.184090909090909,
                "end_time": 14.322727272727272,
                "pitch": 71,
                "velocity": 127,
                "duration": 0.13863636363636367,
                "tempo": 120.0
            },
            {
                "start_time": 14.836363636363636,
                "end_time": 14.970454545454544,
                "pitch": 71,
                "velocity": 127,
                "duration": 0.13409090909090793,
                "tempo": 120.0
            },
            {
                "start_time": 15.159090909090908,
                "end_time": 15.293181818181818,
                "pitch": 69,
                "velocity": 127,
                "duration": 0.1340909090909097,
                "tempo": 120.0
            },
            {
                "start_time": 15.48181818181818,
                "end_time": 15.61590909090909,
                "pitch": 66,
                "velocity": 127,
                "duration": 0.1340909090909097,
                "tempo": 120.0
            },
            {
                "start_time": 16.78181818181818,
                "end_time": 16.918181818181818,
                "pitch": 62,
                "velocity": 127,
                "duration": 0.1363636363636367,
                "tempo": 120.0
            },
            {
                "start_time": 17.43409090909091,
                "end_time": 17.57272727272727,
                "pitch": 64,
                "velocity": 127,
                "duration": 0.1386363636363619,
                "tempo": 120.0
            },
            {
                "start_time": 17.763636363636362,
                "end_time": 17.895454545454545,
                "pitch": 64,
                "velocity": 127,
                "duration": 0.13181818181818272,
                "tempo": 120.0
            },
            {
                "start_time": 11.263636363636364,
                "end_time": 18.086363636363636,
                "pitch": 78,
                "velocity": 127,
                "duration": 6.822727272727272,
                "tempo": 120.0
            },
            {
                "start_time": 18.086363636363636,
                "end_time": 18.21818181818182,
                "pitch": 67,
                "velocity": 127,
                "duration": 0.13181818181818272,
                "tempo": 120.0
            },
            {
                "start_time": 19.38181818181818,
                "end_time": 19.520454545454545,
                "pitch": 69,
                "velocity": 127,
                "duration": 0.13863636363636545,
                "tempo": 120.0
            },
            {
                "start_time": 21.979545454545452,
                "end_time": 22.113636363636363,
                "pitch": 64,
                "velocity": 127,
                "duration": 0.13409090909091148,
                "tempo": 120.0
            },
            {
                "start_time": 18.086363636363636,
                "end_time": 22.797727272727272,
                "pitch": 78,
                "velocity": 127,
                "duration": 4.711363636363636,
                "tempo": 120.0
            },
            {
                "start_time": 22.797727272727272,
                "end_time": 22.93181818181818,
                "pitch": 71,
                "velocity": 127,
                "duration": 0.13409090909090793,
                "tempo": 120.0
            },
            {
                "start_time": 12.23181818181818,
                "end_time": 23.443181818181817,
                "pitch": 56,
                "velocity": 127,
                "duration": 11.211363636363636,
                "tempo": 120.0
            },
            {
                "start_time": 12.888636363636364,
                "end_time": 23.577272727272724,
                "pitch": 76,
                "velocity": 127,
                "duration": 10.68863636363636,
                "tempo": 120.0
            },
            {
                "start_time": 23.443181818181817,
                "end_time": 23.577272727272724,
                "pitch": 76,
                "velocity": 127,
                "duration": 0.13409090909090793,
                "tempo": 120.0
            },
            {
                "start_time": 23.927272727272726,
                "end_time": 24.061363636363634,
                "pitch": 74,
                "velocity": 127,
                "duration": 0.13409090909090793,
                "tempo": 120.0
            },
            {
                "start_time": 24.577272727272724,
                "end_time": 24.71590909090909,
                "pitch": 74,
                "velocity": 127,
                "duration": 0.13863636363636545,
                "tempo": 120.0
            },
            {
                "start_time": 24.904545454545453,
                "end_time": 25.04090909090909,
                "pitch": 73,
                "velocity": 127,
                "duration": 0.1363636363636367,
                "tempo": 120.0
            },
            {
                "start_time": 14.184090909090909,
                "end_time": 25.229545454545452,
                "pitch": 77,
                "velocity": 127,
                "duration": 11.045454545454543,
                "tempo": 120.0
            },
            {
                "start_time": 25.229545454545452,
                "end_time": 25.363636363636363,
                "pitch": 71,
                "velocity": 127,
                "duration": 0.13409090909091148,
                "tempo": 120.0
            },
            {
                "start_time": 25.71363636363636,
                "end_time": 25.847727272727273,
                "pitch": 71,
                "velocity": 127,
                "duration": 0.13409090909091148,
                "tempo": 120.0
            },
            {
                "start_time": 26.036363636363635,
                "end_time": 26.174999999999997,
                "pitch": 69,
                "velocity": 127,
                "duration": 0.1386363636363619,
                "tempo": 120.0
            }
        ],
        "Acoustic Grand Piano": [
            {
                "start_time": 36.44318181818181,
                "end_time": 36.70909090909091,
                "pitch": 76,
                "velocity": 101,
                "duration": 0.26590909090909776,
                "tempo": 120.0
            },
            {
                "start_time": 36.76136363636363,
                "end_time": 36.89545454545454,
                "pitch": 74,
                "velocity": 101,
                "duration": 0.13409090909090793,
                "tempo": 120.0
            },
            {
                "start_time": 36.92272727272727,
                "end_time": 37.05681818181818,
                "pitch": 74,
                "velocity": 101,
                "duration": 0.13409090909090793,
                "tempo": 120.0
            },
            {
                "start_time": 37.086363636363636,
                "end_time": 37.21818181818182,
                "pitch": 69,
                "velocity": 101,
                "duration": 0.13181818181818272,
                "tempo": 120.0
            },
            {
                "start_time": 37.24772727272727,
                "end_time": 37.37954545454545,
                "pitch": 64,
                "velocity": 101,
                "duration": 0.13181818181818272,
                "tempo": 120.0
            },
            {
                "start_time": 36.76136363636363,
                "end_time": 38.0,
                "pitch": 76,
                "velocity": 101,
                "duration": 1.2386363636363669,
                "tempo": 120.0
            },
            {
                "start_time": 37.570454545454545,
                "end_time": 38.0,
                "pitch": 76,
                "velocity": 101,
                "duration": 0.4295454545454547,
                "tempo": 120.0
            },
            {
                "start_time": 38.054545454545455,
                "end_time": 38.19090909090909,
                "pitch": 74,
                "velocity": 101,
                "duration": 0.13636363636363313,
                "tempo": 120.0
            },
            {
                "start_time": 38.220454545454544,
                "end_time": 38.35909090909091,
                "pitch": 74,
                "velocity": 101,
                "duration": 0.13863636363636545,
                "tempo": 120.0
            },
            {
                "start_time": 37.086363636363636,
                "end_time": 38.38863636363636,
                "pitch": 77,
                "velocity": 101,
                "duration": 1.3022727272727224,
                "tempo": 120.0
            },
            {
                "start_time": 38.38863636363636,
                "end_time": 38.52045454545454,
                "pitch": 69,
                "velocity": 101,
                "duration": 0.13181818181818272,
                "tempo": 120.0
            },
            {
                "start_time": 37.24772727272727,
                "end_time": 38.55,
                "pitch": 31,
                "velocity": 101,
                "duration": 1.3022727272727295,
                "tempo": 120.0
            },
            {
                "start_time": 38.55,
                "end_time": 38.68181818181818,
                "pitch": 64,
                "velocity": 101,
                "duration": 0.13181818181818272,
                "tempo": 120.0
            },
            {
                "start_time": 38.054545454545455,
                "end_time": 38.87272727272727,
                "pitch": 76,
                "velocity": 101,
                "duration": 0.818181818181813,
                "tempo": 120.0
            },
            {
                "start_time": 38.87272727272727,
                "end_time": 39.30227272727272,
                "pitch": 74,
                "velocity": 101,
                "duration": 0.4295454545454547,
                "tempo": 120.0
            },
            {
                "start_time": 39.83863636363636,
                "end_time": 39.97272727272727,
                "pitch": 64,
                "velocity": 101,
                "duration": 0.13409090909090793,
                "tempo": 120.0
            },
            {
                "start_time": 38.87272727272727,
                "end_time": 40.168181818181814,
                "pitch": 76,
                "velocity": 101,
                "duration": 1.2954545454545467,
                "tempo": 120.0
            },
            {
                "start_time": 40.168181818181814,
                "end_time": 41.43636363636364,
                "pitch": 74,
                "velocity": 101,
                "duration": 1.268181818181823,
                "tempo": 120.0
            },
            {
                "start_time": 41.46363636363636,
                "end_time": 41.59772727272727,
                "pitch": 74,
                "velocity": 101,
                "duration": 0.13409090909090793,
                "tempo": 120.0
            },
            {
                "start_time": 41.627272727272725,
                "end_time": 41.62954545454545,
                "pitch": 74,
                "velocity": 101,
                "duration": 0.0022727272727252057,
                "tempo": 120.0
            },
            {
                "start_time": 40.168181818181814,
                "end_time": 41.902272727272724,
                "pitch": 76,
                "velocity": 101,
                "duration": 1.7340909090909093,
                "tempo": 120.0
            },
            {
                "start_time": 41.62954545454545,
                "end_time": 41.902272727272724,
                "pitch": 76,
                "velocity": 101,
                "duration": 0.2727272727272734,
                "tempo": 120.0
            },
            {
                "start_time": 41.959090909090904,
                "end_time": 42.09318181818182,
                "pitch": 74,
                "velocity": 101,
                "duration": 0.13409090909091503,
                "tempo": 120.0
            },
            {
                "start_time": 42.12045454545454,
                "end_time": 42.25454545454545,
                "pitch": 74,
                "velocity": 101,
                "duration": 0.13409090909090793,
                "tempo": 120.0
            },
            {
                "start_time": 38.38863636363636,
                "end_time": 42.28181818181818,
                "pitch": 77,
                "velocity": 101,
                "duration": 3.893181818181823,
                "tempo": 120.0
            },
            {
                "start_time": 42.28181818181818,
                "end_time": 42.41590909090909,
                "pitch": 69,
                "velocity": 101,
                "duration": 0.13409090909090793,
                "tempo": 120.0
            },
            {
                "start_time": 38.55,
                "end_time": 42.44318181818181,
                "pitch": 31,
                "velocity": 101,
                "duration": 3.893181818181816,
                "tempo": 120.0
            },
            {
                "start_time": 42.44318181818181,
                "end_time": 42.57727272727273,
                "pitch": 64,
                "velocity": 101,
                "duration": 0.13409090909091503,
                "tempo": 120.0
            },
            {
                "start_time": 41.959090909090904,
                "end_time": 43.195454545454545,
                "pitch": 76,
                "velocity": 101,
                "duration": 1.2363636363636417,
                "tempo": 120.0
            },
            {
                "start_time": 42.76590909090909,
                "end_time": 43.195454545454545,
                "pitch": 76,
                "velocity": 101,
                "duration": 0.4295454545454547,
                "tempo": 120.0
            },
            {
                "start_time": 43.25,
                "end_time": 43.38863636363636,
                "pitch": 74,
                "velocity": 101,
                "duration": 0.13863636363635834,
                "tempo": 120.0
            },
            {
                "start_time": 43.41590909090909,
                "end_time": 43.554545454545455,
                "pitch": 74,
                "velocity": 101,
                "duration": 0.13863636363636545,
                "tempo": 120.0
            },
            {
                "start_time": 42.28181818181818,
                "end_time": 43.584090909090904,
                "pitch": 77,
                "velocity": 101,
                "duration": 1.3022727272727224,
                "tempo": 120.0
            },
            {
                "start_time": 43.584090909090904,
                "end_time": 43.71818181818182,
                "pitch": 69,
                "velocity": 101,
                "duration": 0.13409090909091503,
                "tempo": 120.0
            },
            {
                "start_time": 42.44318181818181,
                "end_time": 43.74545454545454,
                "pitch": 31,
                "velocity": 101,
                "duration": 1.3022727272727295,
                "tempo": 120.0
            },
            {
                "start_time": 43.74545454545454,
                "end_time": 43.87954545454545,
                "pitch": 64,
                "velocity": 101,
                "duration": 0.13409090909090793,
                "tempo": 120.0
            },
            {
                "start_time": 43.25,
                "end_time": 44.070454545454545,
                "pitch": 76,
                "velocity": 101,
                "duration": 0.8204545454545453,
                "tempo": 120.0
            },
            {
                "start_time": 44.06818181818181,
                "end_time": 44.070454545454545,
                "pitch": 76,
                "velocity": 101,
                "duration": 0.002272727272732311,
                "tempo": 120.0
            },
            {
                "start_time": 44.070454545454545,
                "end_time": 44.49772727272727,
                "pitch": 74,
                "velocity": 101,
                "duration": 0.42727272727272236,
                "tempo": 120.0
            },
            {
                "start_time": 39.83863636363636,
                "end_time": 45.03636363636363,
                "pitch": 62,
                "velocity": 101,
                "duration": 5.1977272727272705,
                "tempo": 120.0
            },
            {
                "start_time": 45.03636363636363,
                "end_time": 45.17045454545455,
                "pitch": 64,
                "velocity": 101,
                "duration": 0.13409090909091503,
                "tempo": 120.0
            },
            {
                "start_time": 45.36363636363636,
                "end_time": 78.3340909090909,
                "pitch": 74,
                "velocity": 101,
                "duration": 32.970454545454544,
                "tempo": 120.0
            }
        ],
        "Electric Guitar (clean)": [
            {
                "start_time": 0.056818181818181816,
                "end_time": 0.16136363636363635,
                "pitch": 40,
                "velocity": 127,
                "duration": 0.10454545454545452,
                "tempo": 120.0
            },
            {
                "start_time": 0.21363636363636362,
                "end_time": 0.3227272727272727,
                "pitch": 40,
                "velocity": 127,
                "duration": 0.10909090909090907,
                "tempo": 120.0
            },
            {
                "start_time": 0.375,
                "end_time": 0.48636363636363633,
                "pitch": 47,
                "velocity": 127,
                "duration": 0.11136363636363633,
                "tempo": 120.0
            },
            {
                "start_time": 0.5431818181818182,
                "end_time": 0.8159090909090909,
                "pitch": 40,
                "velocity": 127,
                "duration": 0.2727272727272727,
                "tempo": 120.0
            },
            {
                "start_time": 0.8704545454545454,
                "end_time": 0.9772727272727272,
                "pitch": 35,
                "velocity": 127,
                "duration": 0.10681818181818181,
                "tempo": 120.0
            },
            {
                "start_time": 0.5431818181818182,
                "end_time": 1.0318181818181817,
                "pitch": 19,
                "velocity": 127,
                "duration": 0.48863636363636354,
                "tempo": 120.0
            },
            {
                "start_time": 1.0318181818181817,
                "end_time": 1.1386363636363637,
                "pitch": 40,
                "velocity": 127,
                "duration": 0.10681818181818192,
                "tempo": 120.0
            },
            {
                "start_time": 1.1931818181818181,
                "end_time": 1.3,
                "pitch": 40,
                "velocity": 127,
                "duration": 0.10681818181818192,
                "tempo": 120.0
            },
            {
                "start_time": 1.3568181818181817,
                "end_time": 1.4613636363636362,
                "pitch": 40,
                "velocity": 127,
                "duration": 0.1045454545454545,
                "tempo": 120.0
            },
            {
                "start_time": 1.5159090909090909,
                "end_time": 1.6227272727272726,
                "pitch": 40,
                "velocity": 127,
                "duration": 0.1068181818181817,
                "tempo": 120.0
            },
            {
                "start_time": 0.375,
                "end_time": 1.6772727272727272,
                "pitch": 54,
                "velocity": 127,
                "duration": 1.3022727272727272,
                "tempo": 120.0
            },
            {
                "start_time": 1.6772727272727272,
                "end_time": 1.784090909090909,
                "pitch": 47,
                "velocity": 127,
                "duration": 0.1068181818181817,
                "tempo": 120.0
            },
            {
                "start_time": 1.0318181818181817,
                "end_time": 1.8386363636363636,
                "pitch": 19,
                "velocity": 127,
                "duration": 0.8068181818181819,
                "tempo": 120.0
            },
            {
                "start_time": 1.8386363636363636,
                "end_time": 2.1113636363636363,
                "pitch": 40,
                "velocity": 127,
                "duration": 0.2727272727272727,
                "tempo": 120.0
            },
            {
                "start_time": 0.8704545454545454,
                "end_time": 2.168181818181818,
                "pitch": 42,
                "velocity": 127,
                "duration": 1.2977272727272726,
                "tempo": 120.0
            },
            {
                "start_time": 2.168181818181818,
                "end_time": 2.2772727272727273,
                "pitch": 35,
                "velocity": 127,
                "duration": 0.10909090909090935,
                "tempo": 120.0
            },
            {
                "start_time": 1.8386363636363636,
                "end_time": 2.334090909090909,
                "pitch": 19,
                "velocity": 127,
                "duration": 0.49545454545454537,
                "tempo": 120.0
            },
            {
                "start_time": 2.334090909090909,
                "end_time": 2.440909090909091,
                "pitch": 40,
                "velocity": 127,
                "duration": 0.10681818181818192,
                "tempo": 120.0
            },
            {
                "start_time": 2.495454545454545,
                "end_time": 2.602272727272727,
                "pitch": 40,
                "velocity": 127,
                "duration": 0.10681818181818192,
                "tempo": 120.0
            },
            {
                "start_time": 1.6772727272727272,
                "end_time": 2.659090909090909,
                "pitch": 54,
                "velocity": 127,
                "duration": 0.9818181818181819,
                "tempo": 120.0
            },
            {
                "start_time": 2.659090909090909,
                "end_time": 2.7636363636363637,
                "pitch": 43,
                "velocity": 127,
                "duration": 0.1045454545454545,
                "tempo": 120.0
            },
            {
                "start_time": 2.818181818181818,
                "end_time": 2.925,
                "pitch": 43,
                "velocity": 127,
                "duration": 0.10681818181818192,
                "tempo": 120.0
            },
            {
                "start_time": 0.056818181818181816,
                "end_time": 2.9795454545454545,
                "pitch": 0,
                "velocity": 127,
                "duration": 2.922727272727273,
                "tempo": 120.0
            },
            {
                "start_time": 2.9795454545454545,
                "end_time": 3.0863636363636364,
                "pitch": 38,
                "velocity": 127,
                "duration": 0.10681818181818192,
                "tempo": 120.0
            },
            {
                "start_time": 3.1409090909090907,
                "end_time": 3.4090909090909087,
                "pitch": 43,
                "velocity": 127,
                "duration": 0.2681818181818181,
                "tempo": 120.0
            },
            {
                "start_time": 2.9795454545454545,
                "end_time": 3.4636363636363634,
                "pitch": 0,
                "velocity": 127,
                "duration": 0.4840909090909089,
                "tempo": 120.0
            },
            {
                "start_time": 3.4636363636363634,
                "end_time": 3.5704545454545453,
                "pitch": 36,
                "velocity": 127,
                "duration": 0.10681818181818192,
                "tempo": 120.0
            },
            {
                "start_time": 3.625,
                "end_time": 3.7363636363636363,
                "pitch": 43,
                "velocity": 127,
                "duration": 0.11136363636363633,
                "tempo": 120.0
            },
            {
                "start_time": 3.7909090909090906,
                "end_time": 3.902272727272727,
                "pitch": 43,
                "velocity": 127,
                "duration": 0.11136363636363633,
                "tempo": 120.0
            },
            {
                "start_time": 3.959090909090909,
                "end_time": 4.0659090909090905,
                "pitch": 43,
                "velocity": 127,
                "duration": 0.10681818181818148,
                "tempo": 120.0
            },
            {
                "start_time": 4.120454545454545,
                "end_time": 4.227272727272727,
                "pitch": 43,
                "velocity": 127,
                "duration": 0.10681818181818148,
                "tempo": 120.0
            },
            {
                "start_time": 3.4636363636363634,
                "end_time": 4.281818181818181,
                "pitch": 0,
                "velocity": 127,
                "duration": 0.8181818181818179,
                "tempo": 120.0
            },
            {
                "start_time": 4.281818181818181,
                "end_time": 4.388636363636364,
                "pitch": 38,
                "velocity": 127,
                "duration": 0.10681818181818237,
                "tempo": 120.0
            },
            {
                "start_time": 3.1409090909090907,
                "end_time": 4.443181818181818,
                "pitch": 53,
                "velocity": 127,
                "duration": 1.3022727272727277,
                "tempo": 120.0
            },
            {
                "start_time": 4.443181818181818,
                "end_time": 4.711363636363636,
                "pitch": 43,
                "velocity": 127,
                "duration": 0.26818181818181763,
                "tempo": 120.0
            },
            {
                "start_time": 4.281818181818181,
                "end_time": 4.765909090909091,
                "pitch": 0,
                "velocity": 127,
                "duration": 0.48409090909090935,
                "tempo": 120.0
            },
            {
                "start_time": 4.765909090909091,
                "end_time": 4.872727272727272,
                "pitch": 36,
                "velocity": 127,
                "duration": 0.10681818181818148,
                "tempo": 120.0
            },
            {
                "start_time": 3.625,
                "end_time": 4.927272727272727,
                "pitch": 52,
                "velocity": 127,
                "duration": 1.3022727272727268,
                "tempo": 120.0
            },
            {
                "start_time": 4.927272727272727,
                "end_time": 5.034090909090909,
                "pitch": 43,
                "velocity": 127,
                "duration": 0.10681818181818237,
                "tempo": 120.0
            },
            {
                "start_time": 5.088636363636363,
                "end_time": 5.195454545454545,
                "pitch": 43,
                "velocity": 127,
                "duration": 0.10681818181818237,
                "tempo": 120.0
            },
            {
                "start_time": 4.765909090909091,
                "end_time": 5.252272727272727,
                "pitch": 0,
                "velocity": 127,
                "duration": 0.48636363636363633,
                "tempo": 120.0
            },
            {
                "start_time": 5.252272727272727,
                "end_time": 5.361363636363636,
                "pitch": 40,
                "velocity": 127,
                "duration": 0.10909090909090935,
                "tempo": 120.0
            },
            {
                "start_time": 5.415909090909091,
                "end_time": 5.527272727272727,
                "pitch": 40,
                "velocity": 127,
                "duration": 0.11136363636363633,
                "tempo": 120.0
            },
            {
                "start_time": 2.659090909090909,
                "end_time": 5.581818181818181,
                "pitch": 54,
                "velocity": 127,
                "duration": 2.922727272727272,
                "tempo": 120.0
            },
            {
                "start_time": 5.581818181818181,
                "end_time": 5.6909090909090905,
                "pitch": 47,
                "velocity": 127,
                "duration": 0.10909090909090935,
                "tempo": 120.0
            },
            {
                "start_time": 2.334090909090909,
                "end_time": 5.745454545454545,
                "pitch": 19,
                "velocity": 127,
                "duration": 3.411363636363636,
                "tempo": 120.0
            },
            {
                "start_time": 5.745454545454545,
                "end_time": 6.013636363636364,
                "pitch": 40,
                "velocity": 127,
                "duration": 0.2681818181818185,
                "tempo": 120.0
            },
            {
                "start_time": 2.168181818181818,
                "end_time": 6.0681818181818175,
                "pitch": 42,
                "velocity": 127,
                "duration": 3.8999999999999995,
                "tempo": 120.0
            },
            {
                "start_time": 6.0681818181818175,
                "end_time": 6.175,
                "pitch": 35,
                "velocity": 127,
                "duration": 0.10681818181818237,
                "tempo": 120.0
            },
            {
                "start_time": 5.745454545454545,
                "end_time": 6.2295454545454545,
                "pitch": 19,
                "velocity": 127,
                "duration": 0.48409090909090935,
                "tempo": 120.0
            },
            {
                "start_time": 6.2295454545454545,
                "end_time": 6.336363636363636,
                "pitch": 40,
                "velocity": 127,
                "duration": 0.10681818181818148,
                "tempo": 120.0
            },
            {
                "start_time": 6.390909090909091,
                "end_time": 6.497727272727272,
                "pitch": 40,
                "velocity": 127,
                "duration": 0.10681818181818148,
                "tempo": 120.0
            },
            {
                "start_time": 6.552272727272727,
                "end_time": 6.659090909090909,
                "pitch": 40,
                "velocity": 127,
                "duration": 0.10681818181818237,
                "tempo": 120.0
            },
            {
                "start_time": 6.713636363636363,
                "end_time": 6.820454545454545,
                "pitch": 40,
                "velocity": 127,
                "duration": 0.10681818181818237,
                "tempo": 120.0
            },
            {
                "start_time": 5.581818181818181,
                "end_time": 6.875,
                "pitch": 54,
                "velocity": 127,
                "duration": 1.2931818181818189,
                "tempo": 120.0
            },
            {
                "start_time": 6.875,
                "end_time": 6.9818181818181815,
                "pitch": 47,
                "velocity": 127,
                "duration": 0.10681818181818148,
                "tempo": 120.0
            },
            {
                "start_time": 6.2295454545454545,
                "end_time": 7.036363636363636,
                "pitch": 19,
                "velocity": 127,
                "duration": 0.8068181818181817,
                "tempo": 120.0
            },
            {
                "start_time": 7.036363636363636,
                "end_time": 7.306818181818182,
                "pitch": 40,
                "velocity": 127,
                "duration": 0.2704545454545455,
                "tempo": 120.0
            },
            {
                "start_time": 6.0681818181818175,
                "end_time": 7.363636363636363,
                "pitch": 42,
                "velocity": 127,
                "duration": 1.2954545454545459,
                "tempo": 120.0
            },
            {
                "start_time": 7.363636363636363,
                "end_time": 7.475,
                "pitch": 35,
                "velocity": 127,
                "duration": 0.11136363636363633,
                "tempo": 120.0
            },
            {
                "start_time": 7.036363636363636,
                "end_time": 7.531818181818181,
                "pitch": 19,
                "velocity": 127,
                "duration": 0.49545454545454515,
                "tempo": 120.0
            },
            {
                "start_time": 7.531818181818181,
                "end_time": 7.638636363636364,
                "pitch": 40,
                "velocity": 127,
                "duration": 0.10681818181818237,
                "tempo": 120.0
            },
            {
                "start_time": 7.6931818181818175,
                "end_time": 7.8,
                "pitch": 40,
                "velocity": 127,
                "duration": 0.10681818181818237,
                "tempo": 120.0
            },
            {
                "start_time": 6.875,
                "end_time": 7.8545454545454545,
                "pitch": 54,
                "velocity": 127,
                "duration": 0.9795454545454545,
                "tempo": 120.0
            },
            {
                "start_time": 7.8545454545454545,
                "end_time": 7.961363636363636,
                "pitch": 43,
                "velocity": 127,
                "duration": 0.10681818181818148,
                "tempo": 120.0
            },
            {
                "start_time": 8.013636363636364,
                "end_time": 8.122727272727273,
                "pitch": 43,
                "velocity": 127,
                "duration": 0.10909090909090935,
                "tempo": 120.0
            },
            {
                "start_time": 5.252272727272727,
                "end_time": 8.174999999999999,
                "pitch": 0,
                "velocity": 127,
                "duration": 2.922727272727272,
                "tempo": 120.0
            },
            {
                "start_time": 8.174999999999999,
                "end_time": 8.284090909090908,
                "pitch": 38,
                "velocity": 127,
                "duration": 0.10909090909090935,
                "tempo": 120.0
            },
            {
                "start_time": 4.443181818181818,
                "end_time": 8.336363636363636,
                "pitch": 53,
                "velocity": 127,
                "duration": 3.8931818181818176,
                "tempo": 120.0
            },
            {
                "start_time": 8.336363636363636,
                "end_time": 8.60681818181818,
                "pitch": 43,
                "velocity": 127,
                "duration": 0.2704545454545446,
                "tempo": 120.0
            },
            {
                "start_time": 8.174999999999999,
                "end_time": 8.659090909090908,
                "pitch": 0,
                "velocity": 127,
                "duration": 0.48409090909090935,
                "tempo": 120.0
            },
            {
                "start_time": 8.659090909090908,
                "end_time": 8.768181818181818,
                "pitch": 36,
                "velocity": 127,
                "duration": 0.10909090909090935,
                "tempo": 120.0
            },
            {
                "start_time": 4.927272727272727,
                "end_time": 8.820454545454545,
                "pitch": 52,
                "velocity": 127,
                "duration": 3.8931818181818185,
                "tempo": 120.0
            },
            {
                "start_time": 8.820454545454545,
                "end_time": 8.931818181818182,
                "pitch": 43,
                "velocity": 127,
                "duration": 0.11136363636363633,
                "tempo": 120.0
            },
            {
                "start_time": 8.988636363636363,
                "end_time": 9.1,
                "pitch": 43,
                "velocity": 127,
                "duration": 0.11136363636363633,
                "tempo": 120.0
            },
            {
                "start_time": 9.156818181818181,
                "end_time": 9.261363636363637,
                "pitch": 43,
                "velocity": 127,
                "duration": 0.10454545454545539,
                "tempo": 120.0
            },
            {
                "start_time": 9.31590909090909,
                "end_time": 9.422727272727272,
                "pitch": 43,
                "velocity": 127,
                "duration": 0.10681818181818237,
                "tempo": 120.0
            },
            {
                "start_time": 8.659090909090908,
                "end_time": 9.477272727272727,
                "pitch": 0,
                "velocity": 127,
                "duration": 0.8181818181818183,
                "tempo": 120.0
            },
            {
                "start_time": 9.477272727272727,
                "end_time": 9.584090909090909,
                "pitch": 38,
                "velocity": 127,
                "duration": 0.10681818181818237,
                "tempo": 120.0
            },
            {
                "start_time": 8.336363636363636,
                "end_time": 9.638636363636364,
                "pitch": 53,
                "velocity": 127,
                "duration": 1.3022727272727277,
                "tempo": 120.0
            },
            {
                "start_time": 9.638636363636364,
                "end_time": 9.906818181818181,
                "pitch": 43,
                "velocity": 127,
                "duration": 0.26818181818181763,
                "tempo": 120.0
            },
            {
                "start_time": 9.477272727272727,
                "end_time": 9.961363636363636,
                "pitch": 0,
                "velocity": 127,
                "duration": 0.48409090909090935,
                "tempo": 120.0
            },
            {
                "start_time": 9.961363636363636,
                "end_time": 10.068181818181818,
                "pitch": 36,
                "velocity": 127,
                "duration": 0.10681818181818237,
                "tempo": 120.0
            },
            {
                "start_time": 8.820454545454545,
                "end_time": 10.122727272727273,
                "pitch": 52,
                "velocity": 127,
                "duration": 1.3022727272727277,
                "tempo": 120.0
            },
            {
                "start_time": 10.122727272727273,
                "end_time": 10.23181818181818,
                "pitch": 43,
                "velocity": 127,
                "duration": 0.10909090909090757,
                "tempo": 120.0
            },
            {
                "start_time": 10.284090909090908,
                "end_time": 10.393181818181818,
                "pitch": 43,
                "velocity": 127,
                "duration": 0.10909090909090935,
                "tempo": 120.0
            },
            {
                "start_time": 9.961363636363636,
                "end_time": 10.45,
                "pitch": 0,
                "velocity": 127,
                "duration": 0.4886363636363633,
                "tempo": 120.0
            },
            {
                "start_time": 10.45,
                "end_time": 10.556818181818182,
                "pitch": 40,
                "velocity": 127,
                "duration": 0.10681818181818237,
                "tempo": 120.0
            },
            {
                "start_time": 10.613636363636363,
                "end_time": 10.722727272727273,
                "pitch": 40,
                "velocity": 127,
                "duration": 0.10909090909090935,
                "tempo": 120.0
            },
            {
                "start_time": 7.8545454545454545,
                "end_time": 10.779545454545454,
                "pitch": 54,
                "velocity": 127,
                "duration": 2.925,
                "tempo": 120.0
            },
            {
                "start_time": 10.779545454545454,
                "end_time": 10.886363636363637,
                "pitch": 47,
                "velocity": 127,
                "duration": 0.10681818181818237,
                "tempo": 120.0
            },
            {
                "start_time": 7.531818181818181,
                "end_time": 10.94090909090909,
                "pitch": 19,
                "velocity": 127,
                "duration": 3.4090909090909083,
                "tempo": 120.0
            },
            {
                "start_time": 10.94090909090909,
                "end_time": 11.209090909090909,
                "pitch": 40,
                "velocity": 127,
                "duration": 0.2681818181818194,
                "tempo": 120.0
            },
            {
                "start_time": 7.363636363636363,
                "end_time": 11.263636363636364,
                "pitch": 42,
                "velocity": 127,
                "duration": 3.9000000000000004,
                "tempo": 120.0
            },
            {
                "start_time": 11.263636363636364,
                "end_time": 11.370454545454544,
                "pitch": 35,
                "velocity": 127,
                "duration": 0.10681818181818059,
                "tempo": 120.0
            },
            {
                "start_time": 10.94090909090909,
                "end_time": 11.424999999999999,
                "pitch": 19,
                "velocity": 127,
                "duration": 0.48409090909090935,
                "tempo": 120.0
            },
            {
                "start_time": 11.424999999999999,
                "end_time": 11.531818181818181,
                "pitch": 40,
                "velocity": 127,
                "duration": 0.10681818181818237,
                "tempo": 120.0
            },
            {
                "start_time": 11.586363636363636,
                "end_time": 11.693181818181818,
                "pitch": 40,
                "velocity": 127,
                "duration": 0.10681818181818237,
                "tempo": 120.0
            },
            {
                "start_time": 11.75,
                "end_time": 11.854545454545454,
                "pitch": 40,
                "velocity": 127,
                "duration": 0.10454545454545361,
                "tempo": 120.0
            },
            {
                "start_time": 11.909090909090908,
                "end_time": 12.01590909090909,
                "pitch": 40,
                "velocity": 127,
                "duration": 0.10681818181818237,
                "tempo": 120.0
            },
            {
                "start_time": 10.779545454545454,
                "end_time": 12.070454545454545,
                "pitch": 54,
                "velocity": 127,
                "duration": 1.290909090909091,
                "tempo": 120.0
            },
            {
                "start_time": 12.070454545454545,
                "end_time": 12.177272727272726,
                "pitch": 47,
                "velocity": 127,
                "duration": 0.10681818181818059,
                "tempo": 120.0
            },
            {
                "start_time": 11.424999999999999,
                "end_time": 12.23181818181818,
                "pitch": 19,
                "velocity": 127,
                "duration": 0.8068181818181817,
                "tempo": 120.0
            },
            {
                "start_time": 12.23181818181818,
                "end_time": 12.504545454545454,
                "pitch": 40,
                "velocity": 127,
                "duration": 0.2727272727272734,
                "tempo": 120.0
            },
            {
                "start_time": 11.263636363636364,
                "end_time": 12.561363636363636,
                "pitch": 42,
                "velocity": 127,
                "duration": 1.297727272727272,
                "tempo": 120.0
            },
            {
                "start_time": 12.561363636363636,
                "end_time": 12.670454545454545,
                "pitch": 35,
                "velocity": 127,
                "duration": 0.10909090909090935,
                "tempo": 120.0
            },
            {
                "start_time": 12.23181818181818,
                "end_time": 12.727272727272727,
                "pitch": 19,
                "velocity": 127,
                "duration": 0.49545454545454604,
                "tempo": 120.0
            },
            {
                "start_time": 12.727272727272727,
                "end_time": 12.834090909090909,
                "pitch": 40,
                "velocity": 127,
                "duration": 0.10681818181818237,
                "tempo": 120.0
            },
            {
                "start_time": 12.89090909090909,
                "end_time": 12.995454545454544,
                "pitch": 40,
                "velocity": 127,
                "duration": 0.10454545454545361,
                "tempo": 120.0
            },
            {
                "start_time": 12.070454545454545,
                "end_time": 13.049999999999999,
                "pitch": 54,
                "velocity": 127,
                "duration": 0.9795454545454536,
                "tempo": 120.0
            },
            {
                "start_time": 13.049999999999999,
                "end_time": 13.156818181818181,
                "pitch": 43,
                "velocity": 127,
                "duration": 0.10681818181818237,
                "tempo": 120.0
            },
            {
                "start_time": 13.211363636363636,
                "end_time": 13.318181818181818,
                "pitch": 43,
                "velocity": 127,
                "duration": 0.10681818181818237,
                "tempo": 120.0
            },
            {
                "start_time": 10.45,
                "end_time": 13.372727272727271,
                "pitch": 0,
                "velocity": 127,
                "duration": 2.922727272727272,
                "tempo": 120.0
            },
            {
                "start_time": 13.372727272727271,
                "end_time": 13.479545454545454,
                "pitch": 38,
                "velocity": 127,
                "duration": 0.10681818181818237,
                "tempo": 120.0
            },
            {
                "start_time": 9.638636363636364,
                "end_time": 13.534090909090908,
                "pitch": 53,
                "velocity": 127,
                "duration": 3.8954545454545446,
                "tempo": 120.0
            },
            {
                "start_time": 13.534090909090908,
                "end_time": 13.802272727272726,
                "pitch": 43,
                "velocity": 127,
                "duration": 0.26818181818181763,
                "tempo": 120.0
            },
            {
                "start_time": 13.372727272727271,
                "end_time": 13.85681818181818,
                "pitch": 0,
                "velocity": 127,
                "duration": 0.48409090909090935,
                "tempo": 120.0
            },
            {
                "start_time": 13.85681818181818,
                "end_time": 13.963636363636363,
                "pitch": 36,
                "velocity": 127,
                "duration": 0.10681818181818237,
                "tempo": 120.0
            },
            {
                "start_time": 10.122727272727273,
                "end_time": 14.018181818181818,
                "pitch": 52,
                "velocity": 127,
                "duration": 3.8954545454545446,
                "tempo": 120.0
            },
            {
                "start_time": 14.018181818181818,
                "end_time": 14.129545454545454,
                "pitch": 43,
                "velocity": 127,
                "duration": 0.11136363636363633,
                "tempo": 120.0
            },
            {
                "start_time": 14.186363636363636,
                "end_time": 14.295454545454545,
                "pitch": 43,
                "velocity": 127,
                "duration": 0.10909090909090935,
                "tempo": 120.0
            },
            {
                "start_time": 14.352272727272727,
                "end_time": 14.459090909090909,
                "pitch": 43,
                "velocity": 127,
                "duration": 0.10681818181818237,
                "tempo": 120.0
            },
            {
                "start_time": 14.513636363636364,
                "end_time": 14.620454545454544,
                "pitch": 43,
                "velocity": 127,
                "duration": 0.10681818181818059,
                "tempo": 120.0
            },
            {
                "start_time": 13.85681818181818,
                "end_time": 14.674999999999999,
                "pitch": 0,
                "velocity": 127,
                "duration": 0.8181818181818183,
                "tempo": 120.0
            },
            {
                "start_time": 14.674999999999999,
                "end_time": 14.781818181818181,
                "pitch": 38,
                "velocity": 127,
                "duration": 0.10681818181818237,
                "tempo": 120.0
            },
            {
                "start_time": 13.534090909090908,
                "end_time": 14.836363636363636,
                "pitch": 53,
                "velocity": 127,
                "duration": 1.3022727272727277,
                "tempo": 120.0
            },
            {
                "start_time": 14.836363636363636,
                "end_time": 15.104545454545454,
                "pitch": 43,
                "velocity": 127,
                "duration": 0.26818181818181763,
                "tempo": 120.0
            },
            {
                "start_time": 14.674999999999999,
                "end_time": 15.159090909090908,
                "pitch": 0,
                "velocity": 127,
                "duration": 0.48409090909090935,
                "tempo": 120.0
            },
            {
                "start_time": 15.159090909090908,
                "end_time": 15.26590909090909,
                "pitch": 36,
                "velocity": 127,
                "duration": 0.10681818181818237,
                "tempo": 120.0
            },
            {
                "start_time": 14.018181818181818,
                "end_time": 15.320454545454545,
                "pitch": 52,
                "velocity": 127,
                "duration": 1.3022727272727277,
                "tempo": 120.0
            },
            {
                "start_time": 15.320454545454545,
                "end_time": 15.427272727272726,
                "pitch": 43,
                "velocity": 127,
                "duration": 0.10681818181818059,
                "tempo": 120.0
            },
            {
                "start_time": 15.48181818181818,
                "end_time": 15.588636363636363,
                "pitch": 43,
                "velocity": 127,
                "duration": 0.10681818181818237,
                "tempo": 120.0
            },
            {
                "start_time": 15.159090909090908,
                "end_time": 15.645454545454545,
                "pitch": 0,
                "velocity": 127,
                "duration": 0.48636363636363633,
                "tempo": 120.0
            },
            {
                "start_time": 15.645454545454545,
                "end_time": 15.752272727272727,
                "pitch": 40,
                "velocity": 127,
                "duration": 0.10681818181818237,
                "tempo": 120.0
            },
            {
                "start_time": 15.809090909090909,
                "end_time": 15.920454545454545,
                "pitch": 40,
                "velocity": 127,
                "duration": 0.11136363636363633,
                "tempo": 120.0
            },
            {
                "start_time": 13.049999999999999,
                "end_time": 15.977272727272727,
                "pitch": 54,
                "velocity": 127,
                "duration": 2.9272727272727277,
                "tempo": 120.0
            },
            {
                "start_time": 15.977272727272727,
                "end_time": 16.084090909090907,
                "pitch": 47,
                "velocity": 127,
                "duration": 0.10681818181818059,
                "tempo": 120.0
            },
            {
                "start_time": 12.727272727272727,
                "end_time": 16.136363636363637,
                "pitch": 19,
                "velocity": 127,
                "duration": 3.40909090909091,
                "tempo": 120.0
            },
            {
                "start_time": 16.136363636363637,
                "end_time": 16.40681818181818,
                "pitch": 40,
                "velocity": 127,
                "duration": 0.2704545454545446,
                "tempo": 120.0
            },
            {
                "start_time": 12.561363636363636,
                "end_time": 16.461363636363636,
                "pitch": 42,
                "velocity": 127,
                "duration": 3.9000000000000004,
                "tempo": 120.0
            },
            {
                "start_time": 16.461363636363636,
                "end_time": 16.568181818181817,
                "pitch": 35,
                "velocity": 127,
                "duration": 0.10681818181818059,
                "tempo": 120.0
            },
            {
                "start_time": 16.136363636363637,
                "end_time": 16.62272727272727,
                "pitch": 19,
                "velocity": 127,
                "duration": 0.48636363636363455,
                "tempo": 120.0
            },
            {
                "start_time": 16.62272727272727,
                "end_time": 16.729545454545455,
                "pitch": 40,
                "velocity": 127,
                "duration": 0.10681818181818414,
                "tempo": 120.0
            },
            {
                "start_time": 16.784090909090907,
                "end_time": 16.89090909090909,
                "pitch": 40,
                "velocity": 127,
                "duration": 0.10681818181818414,
                "tempo": 120.0
            },
            {
                "start_time": 16.945454545454545,
                "end_time": 17.052272727272726,
                "pitch": 40,
                "velocity": 127,
                "duration": 0.10681818181818059,
                "tempo": 120.0
            },
            {
                "start_time": 17.10681818181818,
                "end_time": 17.21363636363636,
                "pitch": 40,
                "velocity": 127,
                "duration": 0.10681818181818059,
                "tempo": 120.0
            },
            {
                "start_time": 15.977272727272727,
                "end_time": 17.268181818181816,
                "pitch": 54,
                "velocity": 127,
                "duration": 1.2909090909090892,
                "tempo": 120.0
            },
            {
                "start_time": 17.268181818181816,
                "end_time": 17.377272727272725,
                "pitch": 47,
                "velocity": 127,
                "duration": 0.10909090909090935,
                "tempo": 120.0
            },
            {
                "start_time": 16.62272727272727,
                "end_time": 17.43409090909091,
                "pitch": 19,
                "velocity": 127,
                "duration": 0.8113636363636374,
                "tempo": 120.0
            },
            {
                "start_time": 17.43409090909091,
                "end_time": 17.709090909090907,
                "pitch": 40,
                "velocity": 127,
                "duration": 0.2749999999999986,
                "tempo": 120.0
            },
            {
                "start_time": 16.461363636363636,
                "end_time": 17.763636363636362,
                "pitch": 42,
                "velocity": 127,
                "duration": 1.302272727272726,
                "tempo": 120.0
            },
            {
                "start_time": 17.763636363636362,
                "end_time": 17.870454545454546,
                "pitch": 35,
                "velocity": 127,
                "duration": 0.10681818181818414,
                "tempo": 120.0
            },
            {
                "start_time": 17.43409090909091,
                "end_time": 17.925,
                "pitch": 19,
                "velocity": 127,
                "duration": 0.49090909090909207,
                "tempo": 120.0
            },
            {
                "start_time": 17.925,
                "end_time": 18.03181818181818,
                "pitch": 40,
                "velocity": 127,
                "duration": 0.10681818181818059,
                "tempo": 120.0
            },
            {
                "start_time": 18.086363636363636,
                "end_time": 18.193181818181817,
                "pitch": 40,
                "velocity": 127,
                "duration": 0.10681818181818059,
                "tempo": 120.0
            },
            {
                "start_time": 17.268181818181816,
                "end_time": 18.24772727272727,
                "pitch": 54,
                "velocity": 127,
                "duration": 0.9795454545454554,
                "tempo": 120.0
            },
            {
                "start_time": 18.24772727272727,
                "end_time": 18.354545454545455,
                "pitch": 43,
                "velocity": 127,
                "duration": 0.10681818181818414,
                "tempo": 120.0
            },
            {
                "start_time": 18.409090909090907,
                "end_time": 18.51590909090909,
                "pitch": 43,
                "velocity": 127,
                "duration": 0.10681818181818414,
                "tempo": 120.0
            },
            {
                "start_time": 15.645454545454545,
                "end_time": 18.570454545454545,
                "pitch": 0,
                "velocity": 127,
                "duration": 2.9250000000000007,
                "tempo": 120.0
            },
            {
                "start_time": 18.568181818181817,
                "end_time": 18.570454545454545,
                "pitch": 0,
                "velocity": 127,
                "duration": 0.0022727272727287584,
                "tempo": 120.0
            },
            {
                "start_time": 18.570454545454545,
                "end_time": 18.677272727272726,
                "pitch": 38,
                "velocity": 127,
                "duration": 0.10681818181818059,
                "tempo": 120.0
            },
            {
                "start_time": 14.836363636363636,
                "end_time": 18.729545454545455,
                "pitch": 53,
                "velocity": 127,
                "duration": 3.8931818181818194,
                "tempo": 120.0
            },
            {
                "start_time": 18.729545454545455,
                "end_time": 19.0,
                "pitch": 43,
                "velocity": 127,
                "duration": 0.2704545454545446,
                "tempo": 120.0
            },
            {
                "start_time": 19.052272727272726,
                "end_time": 19.161363636363635,
                "pitch": 36,
                "velocity": 127,
                "duration": 0.10909090909090935,
                "tempo": 120.0
            },
            {
                "start_time": 15.320454545454545,
                "end_time": 19.21363636363636,
                "pitch": 52,
                "velocity": 127,
                "duration": 3.893181818181816,
                "tempo": 120.0
            },
            {
                "start_time": 19.21363636363636,
                "end_time": 19.325,
                "pitch": 43,
                "velocity": 127,
                "duration": 0.11136363636363811,
                "tempo": 120.0
            },
            {
                "start_time": 19.38181818181818,
                "end_time": 19.493181818181817,
                "pitch": 43,
                "velocity": 127,
                "duration": 0.11136363636363811,
                "tempo": 120.0
            },
            {
                "start_time": 19.55,
                "end_time": 19.654545454545453,
                "pitch": 43,
                "velocity": 127,
                "duration": 0.10454545454545183,
                "tempo": 120.0
            },
            {
                "start_time": 19.709090909090907,
                "end_time": 19.81590909090909,
                "pitch": 43,
                "velocity": 127,
                "duration": 0.10681818181818414,
                "tempo": 120.0
            },
            {
                "start_time": 19.052272727272726,
                "end_time": 19.870454545454546,
                "pitch": 0,
                "velocity": 127,
                "duration": 0.8181818181818201,
                "tempo": 120.0
            },
            {
                "start_time": 19.870454545454546,
                "end_time": 19.977272727272727,
                "pitch": 38,
                "velocity": 127,
                "duration": 0.10681818181818059,
                "tempo": 120.0
            },
            {
                "start_time": 18.729545454545455,
                "end_time": 20.03181818181818,
                "pitch": 53,
                "velocity": 127,
                "duration": 1.302272727272726,
                "tempo": 120.0
            },
            {
                "start_time": 20.03181818181818,
                "end_time": 20.3,
                "pitch": 43,
                "velocity": 127,
                "duration": 0.2681818181818194,
                "tempo": 120.0
            },
            {
                "start_time": 19.870454545454546,
                "end_time": 20.354545454545452,
                "pitch": 0,
                "velocity": 127,
                "duration": 0.4840909090909058,
                "tempo": 120.0
            },
            {
                "start_time": 20.354545454545452,
                "end_time": 20.461363636363636,
                "pitch": 36,
                "velocity": 127,
                "duration": 0.10681818181818414,
                "tempo": 120.0
            },
            {
                "start_time": 19.21363636363636,
                "end_time": 20.51590909090909,
                "pitch": 52,
                "velocity": 127,
                "duration": 1.3022727272727295,
                "tempo": 120.0
            },
            {
                "start_time": 20.51590909090909,
                "end_time": 20.625,
                "pitch": 43,
                "velocity": 127,
                "duration": 0.10909090909090935,
                "tempo": 120.0
            },
            {
                "start_time": 20.677272727272726,
                "end_time": 20.784090909090907,
                "pitch": 43,
                "velocity": 127,
                "duration": 0.10681818181818059,
                "tempo": 120.0
            },
            {
                "start_time": 20.354545454545452,
                "end_time": 20.84090909090909,
                "pitch": 0,
                "velocity": 127,
                "duration": 0.4863636363636381,
                "tempo": 120.0
            },
            {
                "start_time": 20.84090909090909,
                "end_time": 20.95,
                "pitch": 40,
                "velocity": 127,
                "duration": 0.10909090909090935,
                "tempo": 120.0
            },
            {
                "start_time": 21.00681818181818,
                "end_time": 21.11590909090909,
                "pitch": 40,
                "velocity": 127,
                "duration": 0.10909090909090935,
                "tempo": 120.0
            },
            {
                "start_time": 18.24772727272727,
                "end_time": 21.172727272727272,
                "pitch": 54,
                "velocity": 127,
                "duration": 2.9250000000000007,
                "tempo": 120.0
            },
            {
                "start_time": 21.172727272727272,
                "end_time": 21.279545454545453,
                "pitch": 47,
                "velocity": 127,
                "duration": 0.10681818181818059,
                "tempo": 120.0
            },
            {
                "start_time": 17.925,
                "end_time": 21.334090909090907,
                "pitch": 19,
                "velocity": 127,
                "duration": 3.4090909090909065,
                "tempo": 120.0
            },
            {
                "start_time": 21.334090909090907,
                "end_time": 21.602272727272727,
                "pitch": 40,
                "velocity": 127,
                "duration": 0.2681818181818194,
                "tempo": 120.0
            },
            {
                "start_time": 17.763636363636362,
                "end_time": 21.65681818181818,
                "pitch": 42,
                "velocity": 127,
                "duration": 3.8931818181818194,
                "tempo": 120.0
            },
            {
                "start_time": 21.65681818181818,
                "end_time": 21.763636363636362,
                "pitch": 35,
                "velocity": 127,
                "duration": 0.10681818181818059,
                "tempo": 120.0
            },
            {
                "start_time": 21.334090909090907,
                "end_time": 21.818181818181817,
                "pitch": 19,
                "velocity": 127,
                "duration": 0.48409090909090935,
                "tempo": 120.0
            },
            {
                "start_time": 21.818181818181817,
                "end_time": 21.925,
                "pitch": 40,
                "velocity": 127,
                "duration": 0.10681818181818414,
                "tempo": 120.0
            },
            {
                "start_time": 21.979545454545452,
                "end_time": 22.086363636363636,
                "pitch": 40,
                "velocity": 127,
                "duration": 0.10681818181818414,
                "tempo": 120.0
            },
            {
                "start_time": 22.143181818181816,
                "end_time": 22.24772727272727,
                "pitch": 40,
                "velocity": 127,
                "duration": 0.10454545454545539,
                "tempo": 120.0
            },
            {
                "start_time": 22.302272727272726,
                "end_time": 22.409090909090907,
                "pitch": 40,
                "velocity": 127,
                "duration": 0.10681818181818059,
                "tempo": 120.0
            },
            {
                "start_time": 21.172727272727272,
                "end_time": 22.46363636363636,
                "pitch": 54,
                "velocity": 127,
                "duration": 1.2909090909090892,
                "tempo": 120.0
            },
            {
                "start_time": 22.46363636363636,
                "end_time": 22.575,
                "pitch": 47,
                "velocity": 127,
                "duration": 0.11136363636363811,
                "tempo": 120.0
            },
            {
                "start_time": 21.818181818181817,
                "end_time": 22.629545454545454,
                "pitch": 19,
                "velocity": 127,
                "duration": 0.8113636363636374,
                "tempo": 120.0
            },
            {
                "start_time": 22.629545454545454,
                "end_time": 22.904545454545453,
                "pitch": 40,
                "velocity": 127,
                "duration": 0.2749999999999986,
                "tempo": 120.0
            },
            {
                "start_time": 21.65681818181818,
                "end_time": 22.959090909090907,
                "pitch": 42,
                "velocity": 127,
                "duration": 1.302272727272726,
                "tempo": 120.0
            },
            {
                "start_time": 22.959090909090907,
                "end_time": 23.06590909090909,
                "pitch": 35,
                "velocity": 127,
                "duration": 0.10681818181818414,
                "tempo": 120.0
            },
            {
                "start_time": 22.629545454545454,
                "end_time": 23.120454545454546,
                "pitch": 19,
                "velocity": 127,
                "duration": 0.49090909090909207,
                "tempo": 120.0
            },
            {
                "start_time": 23.120454545454546,
                "end_time": 23.227272727272727,
                "pitch": 40,
                "velocity": 127,
                "duration": 0.10681818181818059,
                "tempo": 120.0
            },
            {
                "start_time": 23.28181818181818,
                "end_time": 23.388636363636362,
                "pitch": 40,
                "velocity": 127,
                "duration": 0.10681818181818059,
                "tempo": 120.0
            },
            {
                "start_time": 22.46363636363636,
                "end_time": 23.445454545454545,
                "pitch": 54,
                "velocity": 127,
                "duration": 0.9818181818181841,
                "tempo": 120.0
            },
            {
                "start_time": 23.445454545454545,
                "end_time": 23.549999999999997,
                "pitch": 43,
                "velocity": 127,
                "duration": 0.10454545454545183,
                "tempo": 120.0
            },
            {
                "start_time": 23.604545454545452,
                "end_time": 23.711363636363636,
                "pitch": 43,
                "velocity": 127,
                "duration": 0.10681818181818414,
                "tempo": 120.0
            },
            {
                "start_time": 20.84090909090909,
                "end_time": 23.76590909090909,
                "pitch": 0,
                "velocity": 127,
                "duration": 2.9250000000000007,
                "tempo": 120.0
            },
            {
                "start_time": 23.76590909090909,
                "end_time": 23.87272727272727,
                "pitch": 38,
                "velocity": 127,
                "duration": 0.10681818181818059,
                "tempo": 120.0
            },
            {
                "start_time": 20.03181818181818,
                "end_time": 23.927272727272726,
                "pitch": 53,
                "velocity": 127,
                "duration": 3.8954545454545446,
                "tempo": 120.0
            },
            {
                "start_time": 23.927272727272726,
                "end_time": 24.195454545454545,
                "pitch": 43,
                "velocity": 127,
                "duration": 0.2681818181818194,
                "tempo": 120.0
            },
            {
                "start_time": 23.76590909090909,
                "end_time": 24.25,
                "pitch": 0,
                "velocity": 127,
                "duration": 0.48409090909090935,
                "tempo": 120.0
            },
            {
                "start_time": 24.25,
                "end_time": 24.35681818181818,
                "pitch": 36,
                "velocity": 127,
                "duration": 0.10681818181818059,
                "tempo": 120.0
            },
            {
                "start_time": 20.51590909090909,
                "end_time": 24.411363636363635,
                "pitch": 52,
                "velocity": 127,
                "duration": 3.8954545454545446,
                "tempo": 120.0
            },
            {
                "start_time": 24.411363636363635,
                "end_time": 24.52272727272727,
                "pitch": 43,
                "velocity": 127,
                "duration": 0.11136363636363455,
                "tempo": 120.0
            },
            {
                "start_time": 24.577272727272724,
                "end_time": 24.688636363636363,
                "pitch": 43,
                "velocity": 127,
                "duration": 0.11136363636363811,
                "tempo": 120.0
            },
            {
                "start_time": 24.745454545454542,
                "end_time": 24.852272727272727,
                "pitch": 43,
                "velocity": 127,
                "duration": 0.10681818181818414,
                "tempo": 120.0
            },
            {
                "start_time": 24.90681818181818,
                "end_time": 25.013636363636362,
                "pitch": 43,
                "velocity": 127,
                "duration": 0.10681818181818059,
                "tempo": 120.0
            },
            {
                "start_time": 24.25,
                "end_time": 25.068181818181817,
                "pitch": 0,
                "velocity": 127,
                "duration": 0.8181818181818166,
                "tempo": 120.0
            },
            {
                "start_time": 25.068181818181817,
                "end_time": 25.174999999999997,
                "pitch": 38,
                "velocity": 127,
                "duration": 0.10681818181818059,
                "tempo": 120.0
            },
            {
                "start_time": 23.927272727272726,
                "end_time": 25.229545454545452,
                "pitch": 53,
                "velocity": 127,
                "duration": 1.302272727272726,
                "tempo": 120.0
            },
            {
                "start_time": 25.229545454545452,
                "end_time": 25.49772727272727,
                "pitch": 43,
                "velocity": 127,
                "duration": 0.2681818181818194,
                "tempo": 120.0
            },
            {
                "start_time": 25.068181818181817,
                "end_time": 25.552272727272726,
                "pitch": 0,
                "velocity": 127,
                "duration": 0.48409090909090935,
                "tempo": 120.0
            },
            {
                "start_time": 25.552272727272726,
                "end_time": 25.659090909090907,
                "pitch": 36,
                "velocity": 127,
                "duration": 0.10681818181818059,
                "tempo": 120.0
            },
            {
                "start_time": 24.411363636363635,
                "end_time": 25.71363636363636,
                "pitch": 52,
                "velocity": 127,
                "duration": 1.302272727272726,
                "tempo": 120.0
            },
            {
                "start_time": 25.71363636363636,
                "end_time": 25.820454545454545,
                "pitch": 43,
                "velocity": 127,
                "duration": 0.10681818181818414,
                "tempo": 120.0
            },
            {
                "start_time": 25.875,
                "end_time": 25.98181818181818,
                "pitch": 43,
                "velocity": 127,
                "duration": 0.10681818181818059,
                "tempo": 120.0
            },
            {
                "start_time": 25.552272727272726,
                "end_time": 26.038636363636364,
                "pitch": 0,
                "velocity": 127,
                "duration": 0.4863636363636381,
                "tempo": 120.0
            },
            {
                "start_time": 26.038636363636364,
                "end_time": 26.145454545454545,
                "pitch": 40,
                "velocity": 127,
                "duration": 0.10681818181818059,
                "tempo": 120.0
            },
            {
                "start_time": 26.202272727272724,
                "end_time": 26.313636363636363,
                "pitch": 40,
                "velocity": 127,
                "duration": 0.11136363636363811,
                "tempo": 120.0
            },
            {
                "start_time": 23.445454545454545,
                "end_time": 26.370454545454542,
                "pitch": 54,
                "velocity": 127,
                "duration": 2.924999999999997,
                "tempo": 120.0
            },
            {
                "start_time": 26.370454545454542,
                "end_time": 26.477272727272727,
                "pitch": 47,
                "velocity": 127,
                "duration": 0.10681818181818414,
                "tempo": 120.0
            },
            {
                "start_time": 23.120454545454546,
                "end_time": 26.53181818181818,
                "pitch": 19,
                "velocity": 127,
                "duration": 3.4113636363636353,
                "tempo": 120.0
            },
            {
                "start_time": 26.53181818181818,
                "end_time": 26.799999999999997,
                "pitch": 40,
                "velocity": 127,
                "duration": 0.26818181818181586,
                "tempo": 120.0
            },
            {
                "start_time": 22.959090909090907,
                "end_time": 26.854545454545452,
                "pitch": 42,
                "velocity": 127,
                "duration": 3.8954545454545446,
                "tempo": 120.0
            },
            {
                "start_time": 26.854545454545452,
                "end_time": 26.961363636363636,
                "pitch": 35,
                "velocity": 127,
                "duration": 0.10681818181818414,
                "tempo": 120.0
            },
            {
                "start_time": 26.53181818181818,
                "end_time": 27.01590909090909,
                "pitch": 19,
                "velocity": 127,
                "duration": 0.48409090909090935,
                "tempo": 120.0
            },
            {
                "start_time": 27.01590909090909,
                "end_time": 27.12272727272727,
                "pitch": 40,
                "velocity": 127,
                "duration": 0.10681818181818059,
                "tempo": 120.0
            },
            {
                "start_time": 27.177272727272726,
                "end_time": 27.284090909090907,
                "pitch": 40,
                "velocity": 127,
                "duration": 0.10681818181818059,
                "tempo": 120.0
            },
            {
                "start_time": 27.33863636363636,
                "end_time": 27.445454545454545,
                "pitch": 40,
                "velocity": 127,
                "duration": 0.10681818181818414,
                "tempo": 120.0
            },
            {
                "start_time": 27.5,
                "end_time": 27.60681818181818,
                "pitch": 40,
                "velocity": 127,
                "duration": 0.10681818181818059,
                "tempo": 120.0
            },
            {
                "start_time": 26.370454545454542,
                "end_time": 27.661363636363635,
                "pitch": 54,
                "velocity": 127,
                "duration": 1.2909090909090928,
                "tempo": 120.0
            },
            {
                "start_time": 27.661363636363635,
                "end_time": 27.770454545454545,
                "pitch": 47,
                "velocity": 127,
                "duration": 0.10909090909090935,
                "tempo": 120.0
            },
            {
                "start_time": 27.01590909090909,
                "end_time": 27.827272727272724,
                "pitch": 19,
                "velocity": 127,
                "duration": 0.8113636363636338,
                "tempo": 120.0
            },
            {
                "start_time": 27.827272727272724,
                "end_time": 28.099999999999998,
                "pitch": 40,
                "velocity": 127,
                "duration": 0.2727272727272734,
                "tempo": 120.0
            },
            {
                "start_time": 26.854545454545452,
                "end_time": 28.15681818181818,
                "pitch": 42,
                "velocity": 127,
                "duration": 1.3022727272727295,
                "tempo": 120.0
            },
            {
                "start_time": 28.15681818181818,
                "end_time": 28.261363636363637,
                "pitch": 35,
                "velocity": 127,
                "duration": 0.10454545454545539,
                "tempo": 120.0
            },
            {
                "start_time": 27.827272727272724,
                "end_time": 28.318181818181817,
                "pitch": 19,
                "velocity": 127,
                "duration": 0.49090909090909207,
                "tempo": 120.0
            },
            {
                "start_time": 28.315909090909088,
                "end_time": 28.318181818181817,
                "pitch": 19,
                "velocity": 127,
                "duration": 0.0022727272727287584,
                "tempo": 120.0
            },
            {
                "start_time": 28.318181818181817,
                "end_time": 28.424999999999997,
                "pitch": 40,
                "velocity": 127,
                "duration": 0.10681818181818059,
                "tempo": 120.0
            },
            {
                "start_time": 28.479545454545452,
                "end_time": 28.586363636363636,
                "pitch": 40,
                "velocity": 127,
                "duration": 0.10681818181818414,
                "tempo": 120.0
            },
            {
                "start_time": 27.661363636363635,
                "end_time": 28.64090909090909,
                "pitch": 54,
                "velocity": 127,
                "duration": 0.9795454545454554,
                "tempo": 120.0
            },
            {
                "start_time": 28.64090909090909,
                "end_time": 28.74772727272727,
                "pitch": 43,
                "velocity": 127,
                "duration": 0.10681818181818059,
                "tempo": 120.0
            },
            {
                "start_time": 28.799999999999997,
                "end_time": 28.909090909090907,
                "pitch": 43,
                "velocity": 127,
                "duration": 0.10909090909090935,
                "tempo": 120.0
            },
            {
                "start_time": 26.038636363636364,
                "end_time": 28.961363636363636,
                "pitch": 0,
                "velocity": 127,
                "duration": 2.922727272727272,
                "tempo": 120.0
            },
            {
                "start_time": 28.961363636363636,
                "end_time": 29.070454545454545,
                "pitch": 38,
                "velocity": 127,
                "duration": 0.10909090909090935,
                "tempo": 120.0
            },
            {
                "start_time": 25.229545454545452,
                "end_time": 29.12272727272727,
                "pitch": 53,
                "velocity": 127,
                "duration": 3.8931818181818194,
                "tempo": 120.0
            },
            {
                "start_time": 29.12272727272727,
                "end_time": 29.393181818181816,
                "pitch": 43,
                "velocity": 127,
                "duration": 0.2704545454545446,
                "tempo": 120.0
            },
            {
                "start_time": 28.961363636363636,
                "end_time": 29.445454545454545,
                "pitch": 0,
                "velocity": 127,
                "duration": 0.48409090909090935,
                "tempo": 120.0
            },
            {
                "start_time": 29.445454545454545,
                "end_time": 29.554545454545455,
                "pitch": 36,
                "velocity": 127,
                "duration": 0.10909090909090935,
                "tempo": 120.0
            },
            {
                "start_time": 25.71363636363636,
                "end_time": 29.60681818181818,
                "pitch": 52,
                "velocity": 127,
                "duration": 3.8931818181818194,
                "tempo": 120.0
            },
            {
                "start_time": 29.60681818181818,
                "end_time": 29.718181818181815,
                "pitch": 43,
                "velocity": 127,
                "duration": 0.11136363636363455,
                "tempo": 120.0
            },
            {
                "start_time": 29.775,
                "end_time": 29.884090909090908,
                "pitch": 43,
                "velocity": 127,
                "duration": 0.10909090909090935,
                "tempo": 120.0
            },
            {
                "start_time": 29.943181818181817,
                "end_time": 30.047727272727272,
                "pitch": 43,
                "velocity": 127,
                "duration": 0.10454545454545539,
                "tempo": 120.0
            },
            {
                "start_time": 30.102272727272727,
                "end_time": 30.209090909090907,
                "pitch": 43,
                "velocity": 127,
                "duration": 0.10681818181818059,
                "tempo": 120.0
            },
            {
                "start_time": 29.445454545454545,
                "end_time": 30.263636363636362,
                "pitch": 0,
                "velocity": 127,
                "duration": 0.8181818181818166,
                "tempo": 120.0
            },
            {
                "start_time": 30.263636363636362,
                "end_time": 30.370454545454542,
                "pitch": 38,
                "velocity": 127,
                "duration": 0.10681818181818059,
                "tempo": 120.0
            },
            {
                "start_time": 29.12272727272727,
                "end_time": 30.424999999999997,
                "pitch": 53,
                "velocity": 127,
                "duration": 1.302272727272726,
                "tempo": 120.0
            },
            {
                "start_time": 30.424999999999997,
                "end_time": 30.693181818181817,
                "pitch": 43,
                "velocity": 127,
                "duration": 0.2681818181818194,
                "tempo": 120.0
            },
            {
                "start_time": 30.263636363636362,
                "end_time": 30.74772727272727,
                "pitch": 0,
                "velocity": 127,
                "duration": 0.48409090909090935,
                "tempo": 120.0
            },
            {
                "start_time": 30.74772727272727,
                "end_time": 30.854545454545452,
                "pitch": 36,
                "velocity": 127,
                "duration": 0.10681818181818059,
                "tempo": 120.0
            },
            {
                "start_time": 29.60681818181818,
                "end_time": 30.909090909090907,
                "pitch": 52,
                "velocity": 127,
                "duration": 1.302272727272726,
                "tempo": 120.0
            },
            {
                "start_time": 30.909090909090907,
                "end_time": 31.018181818181816,
                "pitch": 43,
                "velocity": 127,
                "duration": 0.10909090909090935,
                "tempo": 120.0
            },
            {
                "start_time": 31.070454545454545,
                "end_time": 31.177272727272726,
                "pitch": 43,
                "velocity": 127,
                "duration": 0.10681818181818059,
                "tempo": 120.0
            },
            {
                "start_time": 30.74772727272727,
                "end_time": 31.23409090909091,
                "pitch": 0,
                "velocity": 127,
                "duration": 0.4863636363636381,
                "tempo": 120.0
            },
            {
                "start_time": 31.23409090909091,
                "end_time": 31.343181818181815,
                "pitch": 40,
                "velocity": 127,
                "duration": 0.1090909090909058,
                "tempo": 120.0
            },
            {
                "start_time": 31.39772727272727,
                "end_time": 31.509090909090908,
                "pitch": 40,
                "velocity": 127,
                "duration": 0.11136363636363811,
                "tempo": 120.0
            },
            {
                "start_time": 28.64090909090909,
                "end_time": 31.565909090909088,
                "pitch": 54,
                "velocity": 127,
                "duration": 2.924999999999997,
                "tempo": 120.0
            },
            {
                "start_time": 31.565909090909088,
                "end_time": 31.672727272727272,
                "pitch": 47,
                "velocity": 127,
                "duration": 0.10681818181818414,
                "tempo": 120.0
            },
            {
                "start_time": 31.727272727272727,
                "end_time": 31.995454545454542,
                "pitch": 40,
                "velocity": 127,
                "duration": 0.26818181818181586,
                "tempo": 120.0
            },
            {
                "start_time": 28.15681818181818,
                "end_time": 32.05,
                "pitch": 42,
                "velocity": 127,
                "duration": 3.893181818181816,
                "tempo": 120.0
            },
            {
                "start_time": 32.05,
                "end_time": 32.15681818181818,
                "pitch": 35,
                "velocity": 127,
                "duration": 0.10681818181818414,
                "tempo": 120.0
            },
            {
                "start_time": 31.727272727272727,
                "end_time": 32.211363636363636,
                "pitch": 19,
                "velocity": 127,
                "duration": 0.48409090909090935,
                "tempo": 120.0
            },
            {
                "start_time": 32.211363636363636,
                "end_time": 32.31818181818182,
                "pitch": 40,
                "velocity": 127,
                "duration": 0.10681818181818414,
                "tempo": 120.0
            },
            {
                "start_time": 32.37272727272727,
                "end_time": 32.47954545454545,
                "pitch": 40,
                "velocity": 127,
                "duration": 0.10681818181818414,
                "tempo": 120.0
            },
            {
                "start_time": 32.53636363636363,
                "end_time": 32.64090909090909,
                "pitch": 40,
                "velocity": 127,
                "duration": 0.10454545454545894,
                "tempo": 120.0
            },
            {
                "start_time": 32.695454545454545,
                "end_time": 32.80227272727272,
                "pitch": 40,
                "velocity": 127,
                "duration": 0.10681818181817704,
                "tempo": 120.0
            },
            {
                "start_time": 31.565909090909088,
                "end_time": 32.85681818181818,
                "pitch": 54,
                "velocity": 127,
                "duration": 1.2909090909090892,
                "tempo": 120.0
            },
            {
                "start_time": 32.85681818181818,
                "end_time": 32.96818181818182,
                "pitch": 47,
                "velocity": 127,
                "duration": 0.11136363636364166,
                "tempo": 120.0
            },
            {
                "start_time": 32.211363636363636,
                "end_time": 33.02272727272727,
                "pitch": 19,
                "velocity": 127,
                "duration": 0.8113636363636374,
                "tempo": 120.0
            },
            {
                "start_time": 33.02272727272727,
                "end_time": 33.29772727272727,
                "pitch": 40,
                "velocity": 127,
                "duration": 0.2749999999999986,
                "tempo": 120.0
            },
            {
                "start_time": 32.05,
                "end_time": 33.35227272727273,
                "pitch": 42,
                "velocity": 127,
                "duration": 1.3022727272727295,
                "tempo": 120.0
            },
            {
                "start_time": 33.35227272727273,
                "end_time": 33.45909090909091,
                "pitch": 35,
                "velocity": 127,
                "duration": 0.10681818181818414,
                "tempo": 120.0
            },
            {
                "start_time": 33.02272727272727,
                "end_time": 33.513636363636365,
                "pitch": 19,
                "velocity": 127,
                "duration": 0.49090909090909207,
                "tempo": 120.0
            },
            {
                "start_time": 33.513636363636365,
                "end_time": 33.62045454545454,
                "pitch": 40,
                "velocity": 127,
                "duration": 0.10681818181817704,
                "tempo": 120.0
            },
            {
                "start_time": 33.675,
                "end_time": 33.78181818181818,
                "pitch": 40,
                "velocity": 127,
                "duration": 0.10681818181818414,
                "tempo": 120.0
            },
            {
                "start_time": 32.85681818181818,
                "end_time": 33.836363636363636,
                "pitch": 54,
                "velocity": 127,
                "duration": 0.9795454545454589,
                "tempo": 120.0
            },
            {
                "start_time": 33.836363636363636,
                "end_time": 33.94318181818181,
                "pitch": 43,
                "velocity": 127,
                "duration": 0.10681818181817704,
                "tempo": 120.0
            },
            {
                "start_time": 33.99772727272727,
                "end_time": 34.10454545454545,
                "pitch": 43,
                "velocity": 127,
                "duration": 0.10681818181818414,
                "tempo": 120.0
            },
            {
                "start_time": 31.23409090909091,
                "end_time": 34.15909090909091,
                "pitch": 0,
                "velocity": 127,
                "duration": 2.924999999999997,
                "tempo": 120.0
            },
            {
                "start_time": 34.15909090909091,
                "end_time": 34.26590909090909,
                "pitch": 38,
                "velocity": 127,
                "duration": 0.10681818181818414,
                "tempo": 120.0
            },
            {
                "start_time": 30.424999999999997,
                "end_time": 34.320454545454545,
                "pitch": 53,
                "velocity": 127,
                "duration": 3.895454545454548,
                "tempo": 120.0
            },
            {
                "start_time": 34.320454545454545,
                "end_time": 34.58863636363636,
                "pitch": 43,
                "velocity": 127,
                "duration": 0.26818181818181586,
                "tempo": 120.0
            },
            {
                "start_time": 34.15909090909091,
                "end_time": 34.643181818181816,
                "pitch": 0,
                "velocity": 127,
                "duration": 0.48409090909090935,
                "tempo": 120.0
            },
            {
                "start_time": 34.643181818181816,
                "end_time": 34.75,
                "pitch": 36,
                "velocity": 127,
                "duration": 0.10681818181818414,
                "tempo": 120.0
            },
            {
                "start_time": 30.909090909090907,
                "end_time": 34.804545454545455,
                "pitch": 52,
                "velocity": 127,
                "duration": 3.895454545454548,
                "tempo": 120.0
            },
            {
                "start_time": 34.804545454545455,
                "end_time": 34.91590909090909,
                "pitch": 43,
                "velocity": 127,
                "duration": 0.11136363636363455,
                "tempo": 120.0
            },
            {
                "start_time": 34.970454545454544,
                "end_time": 35.08181818181818,
                "pitch": 43,
                "velocity": 127,
                "duration": 0.11136363636363455,
                "tempo": 120.0
            },
            {
                "start_time": 35.138636363636365,
                "end_time": 35.24545454545454,
                "pitch": 43,
                "velocity": 127,
                "duration": 0.10681818181817704,
                "tempo": 120.0
            },
            {
                "start_time": 35.3,
                "end_time": 35.40681818181818,
                "pitch": 43,
                "velocity": 127,
                "duration": 0.10681818181818414,
                "tempo": 120.0
            },
            {
                "start_time": 34.643181818181816,
                "end_time": 35.461363636363636,
                "pitch": 0,
                "velocity": 127,
                "duration": 0.8181818181818201,
                "tempo": 120.0
            },
            {
                "start_time": 35.461363636363636,
                "end_time": 35.56818181818181,
                "pitch": 38,
                "velocity": 127,
                "duration": 0.10681818181817704,
                "tempo": 120.0
            },
            {
                "start_time": 34.320454545454545,
                "end_time": 35.62272727272727,
                "pitch": 53,
                "velocity": 127,
                "duration": 1.3022727272727224,
                "tempo": 120.0
            },
            {
                "start_time": 35.62272727272727,
                "end_time": 35.89090909090909,
                "pitch": 43,
                "velocity": 127,
                "duration": 0.26818181818182296,
                "tempo": 120.0
            },
            {
                "start_time": 35.461363636363636,
                "end_time": 35.945454545454545,
                "pitch": 0,
                "velocity": 127,
                "duration": 0.48409090909090935,
                "tempo": 120.0
            },
            {
                "start_time": 35.945454545454545,
                "end_time": 36.05227272727272,
                "pitch": 36,
                "velocity": 127,
                "duration": 0.10681818181817704,
                "tempo": 120.0
            },
            {
                "start_time": 34.804545454545455,
                "end_time": 36.10681818181818,
                "pitch": 52,
                "velocity": 127,
                "duration": 1.3022727272727224,
                "tempo": 120.0
            },
            {
                "start_time": 36.10681818181818,
                "end_time": 36.21818181818182,
                "pitch": 43,
                "velocity": 127,
                "duration": 0.11136363636364166,
                "tempo": 120.0
            },
            {
                "start_time": 36.27272727272727,
                "end_time": 36.38409090909091,
                "pitch": 43,
                "velocity": 127,
                "duration": 0.11136363636363455,
                "tempo": 120.0
            },
            {
                "start_time": 35.945454545454545,
                "end_time": 36.44318181818181,
                "pitch": 0,
                "velocity": 127,
                "duration": 0.4977272727272677,
                "tempo": 120.0
            },
            {
                "start_time": 36.44318181818181,
                "end_time": 36.54772727272727,
                "pitch": 40,
                "velocity": 127,
                "duration": 0.10454545454545894,
                "tempo": 120.0
            },
            {
                "start_time": 36.6,
                "end_time": 36.70909090909091,
                "pitch": 40,
                "velocity": 127,
                "duration": 0.10909090909090935,
                "tempo": 120.0
            },
            {
                "start_time": 33.836363636363636,
                "end_time": 36.76363636363636,
                "pitch": 54,
                "velocity": 127,
                "duration": 2.9272727272727224,
                "tempo": 120.0
            },
            {
                "start_time": 36.76363636363636,
                "end_time": 36.87045454545454,
                "pitch": 47,
                "velocity": 127,
                "duration": 0.10681818181818414,
                "tempo": 120.0
            },
            {
                "start_time": 33.513636363636365,
                "end_time": 36.925,
                "pitch": 19,
                "velocity": 127,
                "duration": 3.4113636363636317,
                "tempo": 120.0
            },
            {
                "start_time": 36.925,
                "end_time": 37.19318181818181,
                "pitch": 40,
                "velocity": 127,
                "duration": 0.26818181818181586,
                "tempo": 120.0
            },
            {
                "start_time": 33.35227272727273,
                "end_time": 37.24772727272727,
                "pitch": 42,
                "velocity": 127,
                "duration": 3.895454545454541,
                "tempo": 120.0
            },
            {
                "start_time": 37.24772727272727,
                "end_time": 37.35454545454545,
                "pitch": 35,
                "velocity": 127,
                "duration": 0.10681818181818414,
                "tempo": 120.0
            },
            {
                "start_time": 36.925,
                "end_time": 37.40909090909091,
                "pitch": 19,
                "velocity": 127,
                "duration": 0.48409090909090935,
                "tempo": 120.0
            },
            {
                "start_time": 37.40909090909091,
                "end_time": 37.51590909090909,
                "pitch": 40,
                "velocity": 127,
                "duration": 0.10681818181818414,
                "tempo": 120.0
            },
            {
                "start_time": 37.570454545454545,
                "end_time": 37.67727272727272,
                "pitch": 40,
                "velocity": 127,
                "duration": 0.10681818181817704,
                "tempo": 120.0
            },
            {
                "start_time": 37.73181818181818,
                "end_time": 37.83863636363636,
                "pitch": 40,
                "velocity": 127,
                "duration": 0.10681818181818414,
                "tempo": 120.0
            },
            {
                "start_time": 37.89090909090909,
                "end_time": 38.0,
                "pitch": 40,
                "velocity": 127,
                "duration": 0.10909090909090935,
                "tempo": 120.0
            },
            {
                "start_time": 36.76363636363636,
                "end_time": 38.054545454545455,
                "pitch": 54,
                "velocity": 127,
                "duration": 1.2909090909090963,
                "tempo": 120.0
            },
            {
                "start_time": 38.054545454545455,
                "end_time": 38.163636363636364,
                "pitch": 47,
                "velocity": 127,
                "duration": 0.10909090909090935,
                "tempo": 120.0
            },
            {
                "start_time": 37.40909090909091,
                "end_time": 38.220454545454544,
                "pitch": 19,
                "velocity": 127,
                "duration": 0.8113636363636374,
                "tempo": 120.0
            },
            {
                "start_time": 38.220454545454544,
                "end_time": 38.49318181818182,
                "pitch": 40,
                "velocity": 127,
                "duration": 0.2727272727272734,
                "tempo": 120.0
            },
            {
                "start_time": 37.24772727272727,
                "end_time": 38.55,
                "pitch": 42,
                "velocity": 127,
                "duration": 1.3022727272727295,
                "tempo": 120.0
            },
            {
                "start_time": 38.55,
                "end_time": 38.654545454545456,
                "pitch": 35,
                "velocity": 127,
                "duration": 0.10454545454545894,
                "tempo": 120.0
            },
            {
                "start_time": 38.220454545454544,
                "end_time": 38.711363636363636,
                "pitch": 19,
                "velocity": 127,
                "duration": 0.49090909090909207,
                "tempo": 120.0
            },
            {
                "start_time": 38.711363636363636,
                "end_time": 38.81590909090909,
                "pitch": 40,
                "velocity": 127,
                "duration": 0.10454545454545183,
                "tempo": 120.0
            },
            {
                "start_time": 38.87272727272727,
                "end_time": 38.97727272727273,
                "pitch": 40,
                "velocity": 127,
                "duration": 0.10454545454545894,
                "tempo": 120.0
            },
            {
                "start_time": 38.054545454545455,
                "end_time": 39.03409090909091,
                "pitch": 54,
                "velocity": 127,
                "duration": 0.9795454545454518,
                "tempo": 120.0
            },
            {
                "start_time": 39.03409090909091,
                "end_time": 39.13863636363636,
                "pitch": 43,
                "velocity": 127,
                "duration": 0.10454545454545183,
                "tempo": 120.0
            },
            {
                "start_time": 39.19318181818181,
                "end_time": 39.30227272727272,
                "pitch": 43,
                "velocity": 127,
                "duration": 0.10909090909090935,
                "tempo": 120.0
            },
            {
                "start_time": 36.44318181818181,
                "end_time": 39.35681818181818,
                "pitch": 0,
                "velocity": 127,
                "duration": 2.913636363636364,
                "tempo": 120.0
            },
            {
                "start_time": 39.35681818181818,
                "end_time": 39.46363636363636,
                "pitch": 38,
                "velocity": 127,
                "duration": 0.10681818181818414,
                "tempo": 120.0
            },
            {
                "start_time": 35.62272727272727,
                "end_time": 39.518181818181816,
                "pitch": 53,
                "velocity": 127,
                "duration": 3.895454545454548,
                "tempo": 120.0
            },
            {
                "start_time": 39.518181818181816,
                "end_time": 39.78636363636363,
                "pitch": 43,
                "velocity": 127,
                "duration": 0.26818181818181586,
                "tempo": 120.0
            },
            {
                "start_time": 39.35681818181818,
                "end_time": 39.840909090909086,
                "pitch": 0,
                "velocity": 127,
                "duration": 0.48409090909090935,
                "tempo": 120.0
            },
            {
                "start_time": 39.840909090909086,
                "end_time": 39.94772727272727,
                "pitch": 36,
                "velocity": 127,
                "duration": 0.10681818181818414,
                "tempo": 120.0
            },
            {
                "start_time": 36.10681818181818,
                "end_time": 40.0,
                "pitch": 52,
                "velocity": 127,
                "duration": 3.893181818181823,
                "tempo": 120.0
            },
            {
                "start_time": 40.0,
                "end_time": 40.111363636363635,
                "pitch": 43,
                "velocity": 127,
                "duration": 0.11136363636363455,
                "tempo": 120.0
            },
            {
                "start_time": 40.168181818181814,
                "end_time": 40.277272727272724,
                "pitch": 43,
                "velocity": 127,
                "duration": 0.10909090909090935,
                "tempo": 120.0
            },
            {
                "start_time": 40.336363636363636,
                "end_time": 40.44090909090909,
                "pitch": 43,
                "velocity": 127,
                "duration": 0.10454545454545183,
                "tempo": 120.0
            },
            {
                "start_time": 40.49545454545454,
                "end_time": 40.60227272727273,
                "pitch": 43,
                "velocity": 127,
                "duration": 0.10681818181818414,
                "tempo": 120.0
            },
            {
                "start_time": 39.840909090909086,
                "end_time": 40.65681818181818,
                "pitch": 0,
                "velocity": 127,
                "duration": 0.8159090909090949,
                "tempo": 120.0
            },
            {
                "start_time": 40.65681818181818,
                "end_time": 40.76363636363636,
                "pitch": 38,
                "velocity": 127,
                "duration": 0.10681818181817704,
                "tempo": 120.0
            },
            {
                "start_time": 39.518181818181816,
                "end_time": 40.81818181818181,
                "pitch": 53,
                "velocity": 127,
                "duration": 1.2999999999999972,
                "tempo": 120.0
            },
            {
                "start_time": 40.81818181818181,
                "end_time": 41.086363636363636,
                "pitch": 43,
                "velocity": 127,
                "duration": 0.26818181818182296,
                "tempo": 120.0
            },
            {
                "start_time": 40.65681818181818,
                "end_time": 41.14090909090909,
                "pitch": 0,
                "velocity": 127,
                "duration": 0.48409090909090935,
                "tempo": 120.0
            },
            {
                "start_time": 41.14090909090909,
                "end_time": 41.24772727272727,
                "pitch": 36,
                "velocity": 127,
                "duration": 0.10681818181817704,
                "tempo": 120.0
            },
            {
                "start_time": 40.0,
                "end_time": 41.30227272727272,
                "pitch": 52,
                "velocity": 127,
                "duration": 1.3022727272727224,
                "tempo": 120.0
            },
            {
                "start_time": 41.30227272727272,
                "end_time": 41.41136363636363,
                "pitch": 43,
                "velocity": 127,
                "duration": 0.10909090909090935,
                "tempo": 120.0
            },
            {
                "start_time": 41.46363636363636,
                "end_time": 41.570454545454545,
                "pitch": 43,
                "velocity": 127,
                "duration": 0.10681818181818414,
                "tempo": 120.0
            },
            {
                "start_time": 41.14090909090909,
                "end_time": 41.62954545454545,
                "pitch": 0,
                "velocity": 127,
                "duration": 0.48863636363635976,
                "tempo": 120.0
            },
            {
                "start_time": 41.62954545454545,
                "end_time": 41.736363636363635,
                "pitch": 40,
                "velocity": 127,
                "duration": 0.10681818181818414,
                "tempo": 120.0
            },
            {
                "start_time": 41.79090909090909,
                "end_time": 41.902272727272724,
                "pitch": 40,
                "velocity": 127,
                "duration": 0.11136363636363455,
                "tempo": 120.0
            },
            {
                "start_time": 39.03409090909091,
                "end_time": 41.959090909090904,
                "pitch": 54,
                "velocity": 127,
                "duration": 2.924999999999997,
                "tempo": 120.0
            },
            {
                "start_time": 41.959090909090904,
                "end_time": 42.06590909090909,
                "pitch": 47,
                "velocity": 127,
                "duration": 0.10681818181818414,
                "tempo": 120.0
            },
            {
                "start_time": 38.711363636363636,
                "end_time": 42.12045454545454,
                "pitch": 19,
                "velocity": 127,
                "duration": 3.4090909090909065,
                "tempo": 120.0
            },
            {
                "start_time": 42.12045454545454,
                "end_time": 42.38863636363636,
                "pitch": 40,
                "velocity": 127,
                "duration": 0.26818181818181586,
                "tempo": 120.0
            },
            {
                "start_time": 38.55,
                "end_time": 42.44318181818181,
                "pitch": 42,
                "velocity": 127,
                "duration": 3.893181818181816,
                "tempo": 120.0
            },
            {
                "start_time": 42.44318181818181,
                "end_time": 42.55,
                "pitch": 35,
                "velocity": 127,
                "duration": 0.10681818181818414,
                "tempo": 120.0
            },
            {
                "start_time": 42.12045454545454,
                "end_time": 42.60454545454545,
                "pitch": 19,
                "velocity": 127,
                "duration": 0.48409090909090935,
                "tempo": 120.0
            },
            {
                "start_time": 42.60454545454545,
                "end_time": 42.711363636363636,
                "pitch": 40,
                "velocity": 127,
                "duration": 0.10681818181818414,
                "tempo": 120.0
            },
            {
                "start_time": 42.76590909090909,
                "end_time": 42.87272727272727,
                "pitch": 40,
                "velocity": 127,
                "duration": 0.10681818181817704,
                "tempo": 120.0
            },
            {
                "start_time": 42.929545454545455,
                "end_time": 43.03409090909091,
                "pitch": 40,
                "velocity": 127,
                "duration": 0.10454545454545183,
                "tempo": 120.0
            },
            {
                "start_time": 43.08863636363636,
                "end_time": 43.195454545454545,
                "pitch": 40,
                "velocity": 127,
                "duration": 0.10681818181818414,
                "tempo": 120.0
            },
            {
                "start_time": 41.959090909090904,
                "end_time": 43.25,
                "pitch": 54,
                "velocity": 127,
                "duration": 1.2909090909090963,
                "tempo": 120.0
            },
            {
                "start_time": 43.25,
                "end_time": 43.361363636363635,
                "pitch": 47,
                "velocity": 127,
                "duration": 0.11136363636363455,
                "tempo": 120.0
            },
            {
                "start_time": 42.60454545454545,
                "end_time": 43.418181818181814,
                "pitch": 19,
                "velocity": 127,
                "duration": 0.8136363636363626,
                "tempo": 120.0
            },
            {
                "start_time": 43.418181818181814,
                "end_time": 43.69090909090909,
                "pitch": 40,
                "velocity": 127,
                "duration": 0.2727272727272734,
                "tempo": 120.0
            },
            {
                "start_time": 42.44318181818181,
                "end_time": 43.74772727272727,
                "pitch": 42,
                "velocity": 127,
                "duration": 1.3045454545454547,
                "tempo": 120.0
            },
            {
                "start_time": 43.74772727272727,
                "end_time": 43.85227272727273,
                "pitch": 35,
                "velocity": 127,
                "duration": 0.10454545454545894,
                "tempo": 120.0
            },
            {
                "start_time": 43.418181818181814,
                "end_time": 43.90681818181818,
                "pitch": 19,
                "velocity": 127,
                "duration": 0.48863636363636687,
                "tempo": 120.0
            },
            {
                "start_time": 43.90681818181818,
                "end_time": 44.01363636363636,
                "pitch": 40,
                "velocity": 127,
                "duration": 0.10681818181817704,
                "tempo": 120.0
            },
            {
                "start_time": 44.070454545454545,
                "end_time": 44.175,
                "pitch": 40,
                "velocity": 127,
                "duration": 0.10454545454545183,
                "tempo": 120.0
            },
            {
                "start_time": 43.25,
                "end_time": 44.22954545454545,
                "pitch": 54,
                "velocity": 127,
                "duration": 0.9795454545454518,
                "tempo": 120.0
            },
            {
                "start_time": 44.22954545454545,
                "end_time": 44.336363636363636,
                "pitch": 43,
                "velocity": 127,
                "duration": 0.10681818181818414,
                "tempo": 120.0
            },
            {
                "start_time": 44.39090909090909,
                "end_time": 44.49772727272727,
                "pitch": 43,
                "velocity": 127,
                "duration": 0.10681818181817704,
                "tempo": 120.0
            },
            {
                "start_time": 41.62954545454545,
                "end_time": 44.55227272727272,
                "pitch": 0,
                "velocity": 127,
                "duration": 2.922727272727272,
                "tempo": 120.0
            },
            {
                "start_time": 44.55227272727272,
                "end_time": 44.65909090909091,
                "pitch": 38,
                "velocity": 127,
                "duration": 0.10681818181818414,
                "tempo": 120.0
            },
            {
                "start_time": 40.81818181818181,
                "end_time": 44.71363636363636,
                "pitch": 53,
                "velocity": 127,
                "duration": 3.895454545454548,
                "tempo": 120.0
            },
            {
                "start_time": 44.71363636363636,
                "end_time": 44.98181818181818,
                "pitch": 43,
                "velocity": 127,
                "duration": 0.26818181818181586,
                "tempo": 120.0
            },
            {
                "start_time": 44.55227272727272,
                "end_time": 45.03636363636363,
                "pitch": 0,
                "velocity": 127,
                "duration": 0.48409090909090935,
                "tempo": 120.0
            },
            {
                "start_time": 45.03636363636363,
                "end_time": 45.143181818181816,
                "pitch": 36,
                "velocity": 127,
                "duration": 0.10681818181818414,
                "tempo": 120.0
            },
            {
                "start_time": 41.30227272727272,
                "end_time": 45.19772727272727,
                "pitch": 52,
                "velocity": 127,
                "duration": 3.895454545454548,
                "tempo": 120.0
            },
            {
                "start_time": 45.19772727272727,
                "end_time": 45.309090909090905,
                "pitch": 43,
                "velocity": 127,
                "duration": 0.11136363636363455,
                "tempo": 120.0
            },
            {
                "start_time": 45.36590909090909,
                "end_time": 45.474999999999994,
                "pitch": 43,
                "velocity": 127,
                "duration": 0.10909090909090224,
                "tempo": 120.0
            },
            {
                "start_time": 45.53181818181818,
                "end_time": 45.63863636363636,
                "pitch": 43,
                "velocity": 127,
                "duration": 0.10681818181817704,
                "tempo": 120.0
            },
            {
                "start_time": 45.69318181818181,
                "end_time": 45.8,
                "pitch": 43,
                "velocity": 127,
                "duration": 0.10681818181818414,
                "tempo": 120.0
            },
            {
                "start_time": 45.03636363636363,
                "end_time": 45.85454545454545,
                "pitch": 0,
                "velocity": 127,
                "duration": 0.8181818181818201,
                "tempo": 120.0
            },
            {
                "start_time": 45.85454545454545,
                "end_time": 45.961363636363636,
                "pitch": 38,
                "velocity": 127,
                "duration": 0.10681818181818414,
                "tempo": 120.0
            },
            {
                "start_time": 44.71363636363636,
                "end_time": 46.01590909090909,
                "pitch": 53,
                "velocity": 127,
                "duration": 1.3022727272727295,
                "tempo": 120.0
            },
            {
                "start_time": 46.01590909090909,
                "end_time": 46.28409090909091,
                "pitch": 43,
                "velocity": 127,
                "duration": 0.26818181818181586,
                "tempo": 120.0
            },
            {
                "start_time": 45.85454545454545,
                "end_time": 46.33863636363636,
                "pitch": 0,
                "velocity": 127,
                "duration": 0.48409090909090935,
                "tempo": 120.0
            },
            {
                "start_time": 46.33863636363636,
                "end_time": 46.445454545454545,
                "pitch": 36,
                "velocity": 127,
                "duration": 0.10681818181818414,
                "tempo": 120.0
            },
            {
                "start_time": 45.19772727272727,
                "end_time": 46.5,
                "pitch": 52,
                "velocity": 127,
                "duration": 1.3022727272727295,
                "tempo": 120.0
            },
            {
                "start_time": 46.5,
                "end_time": 46.60681818181818,
                "pitch": 43,
                "velocity": 127,
                "duration": 0.10681818181817704,
                "tempo": 120.0
            },
            {
                "start_time": 46.66136363636363,
                "end_time": 46.768181818181816,
                "pitch": 43,
                "velocity": 127,
                "duration": 0.10681818181818414,
                "tempo": 120.0
            },
            {
                "start_time": 46.33863636363636,
                "end_time": 46.824999999999996,
                "pitch": 0,
                "velocity": 127,
                "duration": 0.48636363636363455,
                "tempo": 120.0
            },
            {
                "start_time": 46.824999999999996,
                "end_time": 46.93181818181818,
                "pitch": 40,
                "velocity": 127,
                "duration": 0.10681818181818414,
                "tempo": 120.0
            },
            {
                "start_time": 46.98863636363636,
                "end_time": 47.099999999999994,
                "pitch": 40,
                "velocity": 127,
                "duration": 0.11136363636363455,
                "tempo": 120.0
            },
            {
                "start_time": 44.22954545454545,
                "end_time": 47.15454545454545,
                "pitch": 54,
                "velocity": 127,
                "duration": 2.924999999999997,
                "tempo": 120.0
            },
            {
                "start_time": 47.15454545454545,
                "end_time": 47.26363636363636,
                "pitch": 47,
                "velocity": 127,
                "duration": 0.10909090909090935,
                "tempo": 120.0
            },
            {
                "start_time": 43.90681818181818,
                "end_time": 47.31590909090909,
                "pitch": 19,
                "velocity": 127,
                "duration": 3.4090909090909065,
                "tempo": 120.0
            },
            {
                "start_time": 47.31590909090909,
                "end_time": 47.586363636363636,
                "pitch": 40,
                "velocity": 127,
                "duration": 0.27045454545454817,
                "tempo": 120.0
            },
            {
                "start_time": 43.74772727272727,
                "end_time": 47.63863636363636,
                "pitch": 42,
                "velocity": 127,
                "duration": 3.8909090909090907,
                "tempo": 120.0
            },
            {
                "start_time": 47.63863636363636,
                "end_time": 47.74772727272727,
                "pitch": 35,
                "velocity": 127,
                "duration": 0.10909090909090935,
                "tempo": 120.0
            },
            {
                "start_time": 47.31590909090909,
                "end_time": 47.8,
                "pitch": 19,
                "velocity": 127,
                "duration": 0.48409090909090935,
                "tempo": 120.0
            },
            {
                "start_time": 47.8,
                "end_time": 47.90909090909091,
                "pitch": 40,
                "velocity": 127,
                "duration": 0.10909090909090935,
                "tempo": 120.0
            },
            {
                "start_time": 47.961363636363636,
                "end_time": 48.070454545454545,
                "pitch": 40,
                "velocity": 127,
                "duration": 0.10909090909090935,
                "tempo": 120.0
            },
            {
                "start_time": 48.125,
                "end_time": 48.23181818181818,
                "pitch": 40,
                "velocity": 127,
                "duration": 0.10681818181817704,
                "tempo": 120.0
            },
            {
                "start_time": 48.28409090909091,
                "end_time": 48.393181818181816,
                "pitch": 40,
                "velocity": 127,
                "duration": 0.10909090909090935,
                "tempo": 120.0
            },
            {
                "start_time": 47.15454545454545,
                "end_time": 48.445454545454545,
                "pitch": 54,
                "velocity": 127,
                "duration": 1.2909090909090963,
                "tempo": 120.0
            },
            {
                "start_time": 48.445454545454545,
                "end_time": 48.55681818181818,
                "pitch": 47,
                "velocity": 127,
                "duration": 0.11136363636363455,
                "tempo": 120.0
            },
            {
                "start_time": 47.8,
                "end_time": 48.61363636363636,
                "pitch": 19,
                "velocity": 127,
                "duration": 0.8136363636363626,
                "tempo": 120.0
            },
            {
                "start_time": 48.61363636363636,
                "end_time": 48.88636363636363,
                "pitch": 40,
                "velocity": 127,
                "duration": 0.2727272727272734,
                "tempo": 120.0
            },
            {
                "start_time": 47.63863636363636,
                "end_time": 48.94318181818181,
                "pitch": 42,
                "velocity": 127,
                "duration": 1.3045454545454547,
                "tempo": 120.0
            },
            {
                "start_time": 48.94318181818181,
                "end_time": 49.04772727272727,
                "pitch": 35,
                "velocity": 127,
                "duration": 0.10454545454545894,
                "tempo": 120.0
            },
            {
                "start_time": 48.61363636363636,
                "end_time": 49.10227272727273,
                "pitch": 19,
                "velocity": 127,
                "duration": 0.48863636363636687,
                "tempo": 120.0
            },
            {
                "start_time": 49.10227272727273,
                "end_time": 49.209090909090904,
                "pitch": 40,
                "velocity": 127,
                "duration": 0.10681818181817704,
                "tempo": 120.0
            },
            {
                "start_time": 49.26590909090909,
                "end_time": 49.37045454545454,
                "pitch": 40,
                "velocity": 127,
                "duration": 0.10454545454545183,
                "tempo": 120.0
            },
            {
                "start_time": 48.445454545454545,
                "end_time": 49.42727272727272,
                "pitch": 54,
                "velocity": 127,
                "duration": 0.981818181818177,
                "tempo": 120.0
            },
            {
                "start_time": 49.42727272727272,
                "end_time": 49.53181818181818,
                "pitch": 43,
                "velocity": 127,
                "duration": 0.10454545454545894,
                "tempo": 120.0
            },
            {
                "start_time": 49.586363636363636,
                "end_time": 49.69318181818181,
                "pitch": 43,
                "velocity": 127,
                "duration": 0.10681818181817704,
                "tempo": 120.0
            },
            {
                "start_time": 46.824999999999996,
                "end_time": 49.74772727272727,
                "pitch": 0,
                "velocity": 127,
                "duration": 2.922727272727272,
                "tempo": 120.0
            },
            {
                "start_time": 49.74772727272727,
                "end_time": 49.85454545454545,
                "pitch": 38,
                "velocity": 127,
                "duration": 0.10681818181818414,
                "tempo": 120.0
            },
            {
                "start_time": 46.01590909090909,
                "end_time": 49.90909090909091,
                "pitch": 53,
                "velocity": 127,
                "duration": 3.893181818181816,
                "tempo": 120.0
            },
            {
                "start_time": 49.90909090909091,
                "end_time": 50.17727272727272,
                "pitch": 43,
                "velocity": 127,
                "duration": 0.26818181818181586,
                "tempo": 120.0
            },
            {
                "start_time": 49.74772727272727,
                "end_time": 50.23181818181818,
                "pitch": 0,
                "velocity": 127,
                "duration": 0.48409090909090935,
                "tempo": 120.0
            },
            {
                "start_time": 50.23181818181818,
                "end_time": 50.340909090909086,
                "pitch": 36,
                "velocity": 127,
                "duration": 0.10909090909090935,
                "tempo": 120.0
            },
            {
                "start_time": 46.5,
                "end_time": 50.393181818181816,
                "pitch": 52,
                "velocity": 127,
                "duration": 3.893181818181816,
                "tempo": 120.0
            },
            {
                "start_time": 50.393181818181816,
                "end_time": 50.50454545454545,
                "pitch": 43,
                "velocity": 127,
                "duration": 0.11136363636363455,
                "tempo": 120.0
            },
            {
                "start_time": 50.56136363636364,
                "end_time": 50.67045454545454,
                "pitch": 43,
                "velocity": 127,
                "duration": 0.10909090909090224,
                "tempo": 120.0
            },
            {
                "start_time": 50.72954545454545,
                "end_time": 50.834090909090904,
                "pitch": 43,
                "velocity": 127,
                "duration": 0.10454545454545183,
                "tempo": 120.0
            },
            {
                "start_time": 50.88863636363636,
                "end_time": 50.99545454545454,
                "pitch": 43,
                "velocity": 127,
                "duration": 0.10681818181818414,
                "tempo": 120.0
            },
            {
                "start_time": 50.23181818181818,
                "end_time": 51.05,
                "pitch": 0,
                "velocity": 127,
                "duration": 0.8181818181818201,
                "tempo": 120.0
            },
            {
                "start_time": 51.05,
                "end_time": 51.15681818181818,
                "pitch": 38,
                "velocity": 127,
                "duration": 0.10681818181818414,
                "tempo": 120.0
            },
            {
                "start_time": 49.90909090909091,
                "end_time": 51.211363636363636,
                "pitch": 53,
                "velocity": 127,
                "duration": 1.3022727272727295,
                "tempo": 120.0
            },
            {
                "start_time": 51.211363636363636,
                "end_time": 51.47954545454545,
                "pitch": 43,
                "velocity": 127,
                "duration": 0.26818181818181586,
                "tempo": 120.0
            },
            {
                "start_time": 51.05,
                "end_time": 51.53409090909091,
                "pitch": 0,
                "velocity": 127,
                "duration": 0.48409090909090935,
                "tempo": 120.0
            },
            {
                "start_time": 51.53409090909091,
                "end_time": 51.64090909090909,
                "pitch": 36,
                "velocity": 127,
                "duration": 0.10681818181818414,
                "tempo": 120.0
            },
            {
                "start_time": 50.393181818181816,
                "end_time": 51.695454545454545,
                "pitch": 52,
                "velocity": 127,
                "duration": 1.3022727272727295,
                "tempo": 120.0
            },
            {
                "start_time": 51.695454545454545,
                "end_time": 51.804545454545455,
                "pitch": 43,
                "velocity": 127,
                "duration": 0.10909090909090935,
                "tempo": 120.0
            },
            {
                "start_time": 51.85681818181818,
                "end_time": 51.96363636363636,
                "pitch": 43,
                "velocity": 127,
                "duration": 0.10681818181818414,
                "tempo": 120.0
            },
            {
                "start_time": 51.53409090909091,
                "end_time": 52.02045454545454,
                "pitch": 0,
                "velocity": 127,
                "duration": 0.48636363636363455,
                "tempo": 120.0
            },
            {
                "start_time": 52.02045454545454,
                "end_time": 52.12954545454545,
                "pitch": 40,
                "velocity": 127,
                "duration": 0.10909090909090935,
                "tempo": 120.0
            },
            {
                "start_time": 52.184090909090905,
                "end_time": 52.29545454545454,
                "pitch": 40,
                "velocity": 127,
                "duration": 0.11136363636363455,
                "tempo": 120.0
            },
            {
                "start_time": 49.42727272727272,
                "end_time": 52.35227272727273,
                "pitch": 54,
                "velocity": 127,
                "duration": 2.9250000000000043,
                "tempo": 120.0
            },
            {
                "start_time": 52.35227272727273,
                "end_time": 52.459090909090904,
                "pitch": 47,
                "velocity": 127,
                "duration": 0.10681818181817704,
                "tempo": 120.0
            },
            {
                "start_time": 49.10227272727273,
                "end_time": 52.51363636363636,
                "pitch": 19,
                "velocity": 127,
                "duration": 3.4113636363636317,
                "tempo": 120.0
            },
            {
                "start_time": 52.51363636363636,
                "end_time": 52.78181818181818,
                "pitch": 40,
                "velocity": 127,
                "duration": 0.26818181818182296,
                "tempo": 120.0
            },
            {
                "start_time": 48.94318181818181,
                "end_time": 52.836363636363636,
                "pitch": 42,
                "velocity": 127,
                "duration": 3.893181818181823,
                "tempo": 120.0
            },
            {
                "start_time": 52.836363636363636,
                "end_time": 52.94318181818181,
                "pitch": 35,
                "velocity": 127,
                "duration": 0.10681818181817704,
                "tempo": 120.0
            },
            {
                "start_time": 52.51363636363636,
                "end_time": 52.99772727272727,
                "pitch": 19,
                "velocity": 127,
                "duration": 0.48409090909090935,
                "tempo": 120.0
            },
            {
                "start_time": 52.99772727272727,
                "end_time": 53.10454545454545,
                "pitch": 40,
                "velocity": 127,
                "duration": 0.10681818181818414,
                "tempo": 120.0
            },
            {
                "start_time": 53.15909090909091,
                "end_time": 53.26590909090909,
                "pitch": 40,
                "velocity": 127,
                "duration": 0.10681818181818414,
                "tempo": 120.0
            },
            {
                "start_time": 53.32272727272727,
                "end_time": 53.42727272727272,
                "pitch": 40,
                "velocity": 127,
                "duration": 0.10454545454545183,
                "tempo": 120.0
            },
            {
                "start_time": 53.48181818181818,
                "end_time": 53.58863636363636,
                "pitch": 40,
                "velocity": 127,
                "duration": 0.10681818181818414,
                "tempo": 120.0
            },
            {
                "start_time": 52.35227272727273,
                "end_time": 53.643181818181816,
                "pitch": 54,
                "velocity": 127,
                "duration": 1.2909090909090892,
                "tempo": 120.0
            },
            {
                "start_time": 53.643181818181816,
                "end_time": 53.75454545454545,
                "pitch": 47,
                "velocity": 127,
                "duration": 0.11136363636363455,
                "tempo": 120.0
            },
            {
                "start_time": 52.99772727272727,
                "end_time": 53.809090909090905,
                "pitch": 19,
                "velocity": 127,
                "duration": 0.8113636363636374,
                "tempo": 120.0
            },
            {
                "start_time": 53.809090909090905,
                "end_time": 54.084090909090904,
                "pitch": 40,
                "velocity": 127,
                "duration": 0.2749999999999986,
                "tempo": 120.0
            },
            {
                "start_time": 52.836363636363636,
                "end_time": 54.13863636363636,
                "pitch": 42,
                "velocity": 127,
                "duration": 1.3022727272727224,
                "tempo": 120.0
            },
            {
                "start_time": 54.13863636363636,
                "end_time": 54.24545454545454,
                "pitch": 35,
                "velocity": 127,
                "duration": 0.10681818181818414,
                "tempo": 120.0
            },
            {
                "start_time": 53.809090909090905,
                "end_time": 54.3,
                "pitch": 19,
                "velocity": 127,
                "duration": 0.49090909090909207,
                "tempo": 120.0
            },
            {
                "start_time": 54.3,
                "end_time": 54.40681818181818,
                "pitch": 40,
                "velocity": 127,
                "duration": 0.10681818181818414,
                "tempo": 120.0
            },
            {
                "start_time": 54.461363636363636,
                "end_time": 54.56818181818181,
                "pitch": 40,
                "velocity": 127,
                "duration": 0.10681818181817704,
                "tempo": 120.0
            },
            {
                "start_time": 53.643181818181816,
                "end_time": 54.62272727272727,
                "pitch": 54,
                "velocity": 127,
                "duration": 0.9795454545454518,
                "tempo": 120.0
            },
            {
                "start_time": 54.62272727272727,
                "end_time": 54.72954545454545,
                "pitch": 43,
                "velocity": 127,
                "duration": 0.10681818181818414,
                "tempo": 120.0
            },
            {
                "start_time": 54.78409090909091,
                "end_time": 54.89090909090909,
                "pitch": 43,
                "velocity": 127,
                "duration": 0.10681818181818414,
                "tempo": 120.0
            },
            {
                "start_time": 52.02045454545454,
                "end_time": 54.945454545454545,
                "pitch": 0,
                "velocity": 127,
                "duration": 2.9250000000000043,
                "tempo": 120.0
            },
            {
                "start_time": 54.945454545454545,
                "end_time": 55.05227272727272,
                "pitch": 38,
                "velocity": 127,
                "duration": 0.10681818181817704,
                "tempo": 120.0
            },
            {
                "start_time": 51.211363636363636,
                "end_time": 55.10681818181818,
                "pitch": 53,
                "velocity": 127,
                "duration": 3.895454545454541,
                "tempo": 120.0
            },
            {
                "start_time": 55.10681818181818,
                "end_time": 55.375,
                "pitch": 43,
                "velocity": 127,
                "duration": 0.26818181818182296,
                "tempo": 120.0
            },
            {
                "start_time": 54.945454545454545,
                "end_time": 55.429545454545455,
                "pitch": 0,
                "velocity": 127,
                "duration": 0.48409090909090935,
                "tempo": 120.0
            },
            {
                "start_time": 55.429545454545455,
                "end_time": 55.53636363636363,
                "pitch": 36,
                "velocity": 127,
                "duration": 0.10681818181817704,
                "tempo": 120.0
            },
            {
                "start_time": 51.695454545454545,
                "end_time": 55.590909090909086,
                "pitch": 52,
                "velocity": 127,
                "duration": 3.895454545454541,
                "tempo": 120.0
            },
            {
                "start_time": 55.590909090909086,
                "end_time": 55.699999999999996,
                "pitch": 43,
                "velocity": 127,
                "duration": 0.10909090909090935,
                "tempo": 120.0
            },
            {
                "start_time": 55.756818181818176,
                "end_time": 55.86818181818182,
                "pitch": 43,
                "velocity": 127,
                "duration": 0.11136363636364166,
                "tempo": 120.0
            },
            {
                "start_time": 55.925,
                "end_time": 56.03181818181818,
                "pitch": 43,
                "velocity": 127,
                "duration": 0.10681818181818414,
                "tempo": 120.0
            },
            {
                "start_time": 56.084090909090904,
                "end_time": 56.19318181818181,
                "pitch": 43,
                "velocity": 127,
                "duration": 0.10909090909090935,
                "tempo": 120.0
            },
            {
                "start_time": 55.429545454545455,
                "end_time": 56.24545454545454,
                "pitch": 0,
                "velocity": 127,
                "duration": 0.8159090909090878,
                "tempo": 120.0
            },
            {
                "start_time": 56.24545454545454,
                "end_time": 56.35454545454545,
                "pitch": 38,
                "velocity": 127,
                "duration": 0.10909090909090935,
                "tempo": 120.0
            },
            {
                "start_time": 55.10681818181818,
                "end_time": 56.40909090909091,
                "pitch": 53,
                "velocity": 127,
                "duration": 1.3022727272727295,
                "tempo": 120.0
            },
            {
                "start_time": 56.40909090909091,
                "end_time": 56.67727272727272,
                "pitch": 43,
                "velocity": 127,
                "duration": 0.26818181818181586,
                "tempo": 120.0
            },
            {
                "start_time": 56.24545454545454,
                "end_time": 56.73181818181818,
                "pitch": 0,
                "velocity": 127,
                "duration": 0.48636363636363455,
                "tempo": 120.0
            },
            {
                "start_time": 56.73181818181818,
                "end_time": 56.83863636363636,
                "pitch": 36,
                "velocity": 127,
                "duration": 0.10681818181818414,
                "tempo": 120.0
            },
            {
                "start_time": 55.590909090909086,
                "end_time": 56.893181818181816,
                "pitch": 52,
                "velocity": 127,
                "duration": 1.3022727272727295,
                "tempo": 120.0
            },
            {
                "start_time": 56.893181818181816,
                "end_time": 57.0,
                "pitch": 43,
                "velocity": 127,
                "duration": 0.10681818181818414,
                "tempo": 120.0
            },
            {
                "start_time": 57.054545454545455,
                "end_time": 57.16136363636363,
                "pitch": 43,
                "velocity": 127,
                "duration": 0.10681818181817704,
                "tempo": 120.0
            },
            {
                "start_time": 56.73181818181818,
                "end_time": 57.21818181818182,
                "pitch": 0,
                "velocity": 127,
                "duration": 0.48636363636364166,
                "tempo": 120.0
            },
            {
                "start_time": 57.21818181818182,
                "end_time": 57.324999999999996,
                "pitch": 36,
                "velocity": 127,
                "duration": 0.10681818181817704,
                "tempo": 120.0
            },
            {
                "start_time": 57.381818181818176,
                "end_time": 57.49318181818182,
                "pitch": 36,
                "velocity": 127,
                "duration": 0.11136363636364166,
                "tempo": 120.0
            },
            {
                "start_time": 56.893181818181816,
                "end_time": 57.54772727272727,
                "pitch": 52,
                "velocity": 127,
                "duration": 0.6545454545454561,
                "tempo": 120.0
            },
            {
                "start_time": 57.54772727272727,
                "end_time": 57.65681818181818,
                "pitch": 43,
                "velocity": 127,
                "duration": 0.10909090909090935,
                "tempo": 120.0
            },
            {
                "start_time": 57.21818181818182,
                "end_time": 57.709090909090904,
                "pitch": 0,
                "velocity": 127,
                "duration": 0.49090909090908497,
                "tempo": 120.0
            },
            {
                "start_time": 57.709090909090904,
                "end_time": 57.97954545454545,
                "pitch": 36,
                "velocity": 127,
                "duration": 0.27045454545454817,
                "tempo": 120.0
            },
            {
                "start_time": 58.03181818181818,
                "end_time": 58.14090909090909,
                "pitch": 33,
                "velocity": 127,
                "duration": 0.10909090909090935,
                "tempo": 120.0
            },
            {
                "start_time": 58.19318181818181,
                "end_time": 58.30227272727272,
                "pitch": 36,
                "velocity": 127,
                "duration": 0.10909090909090935,
                "tempo": 120.0
            },
            {
                "start_time": 58.35454545454545,
                "end_time": 58.46363636363636,
                "pitch": 36,
                "velocity": 127,
                "duration": 0.10909090909090935,
                "tempo": 120.0
            },
            {
                "start_time": 58.518181818181816,
                "end_time": 58.627272727272725,
                "pitch": 36,
                "velocity": 127,
                "duration": 0.10909090909090935,
                "tempo": 120.0
            },
            {
                "start_time": 58.684090909090905,
                "end_time": 58.793181818181814,
                "pitch": 36,
                "velocity": 127,
                "duration": 0.10909090909090935,
                "tempo": 120.0
            },
            {
                "start_time": 57.54772727272727,
                "end_time": 58.849999999999994,
                "pitch": 52,
                "velocity": 127,
                "duration": 1.3022727272727224,
                "tempo": 120.0
            },
            {
                "start_time": 58.849999999999994,
                "end_time": 58.95681818181818,
                "pitch": 43,
                "velocity": 127,
                "duration": 0.10681818181818414,
                "tempo": 120.0
            },
            {
                "start_time": 57.709090909090904,
                "end_time": 59.01136363636363,
                "pitch": 0,
                "velocity": 127,
                "duration": 1.3022727272727295,
                "tempo": 120.0
            },
            {
                "start_time": 59.01136363636363,
                "end_time": 59.27954545454545,
                "pitch": 36,
                "velocity": 127,
                "duration": 0.26818181818181586,
                "tempo": 120.0
            },
            {
                "start_time": 58.03181818181818,
                "end_time": 59.334090909090904,
                "pitch": 40,
                "velocity": 127,
                "duration": 1.3022727272727224,
                "tempo": 120.0
            },
            {
                "start_time": 59.334090909090904,
                "end_time": 59.44090909090909,
                "pitch": 33,
                "velocity": 127,
                "duration": 0.10681818181818414,
                "tempo": 120.0
            },
            {
                "start_time": 58.19318181818181,
                "end_time": 59.49545454545454,
                "pitch": 7,
                "velocity": 127,
                "duration": 1.3022727272727295,
                "tempo": 120.0
            },
            {
                "start_time": 59.49545454545454,
                "end_time": 59.60454545454545,
                "pitch": 36,
                "velocity": 127,
                "duration": 0.10909090909090935,
                "tempo": 120.0
            },
            {
                "start_time": 59.65681818181818,
                "end_time": 59.76363636363636,
                "pitch": 36,
                "velocity": 127,
                "duration": 0.10681818181817704,
                "tempo": 120.0
            },
            {
                "start_time": 59.820454545454545,
                "end_time": 59.925,
                "pitch": 38,
                "velocity": 127,
                "duration": 0.10454545454545183,
                "tempo": 120.0
            },
            {
                "start_time": 59.97954545454545,
                "end_time": 60.086363636363636,
                "pitch": 38,
                "velocity": 127,
                "duration": 0.10681818181818414,
                "tempo": 120.0
            },
            {
                "start_time": 56.40909090909091,
                "end_time": 60.14090909090909,
                "pitch": 53,
                "velocity": 127,
                "duration": 3.731818181818184,
                "tempo": 120.0
            },
            {
                "start_time": 60.14090909090909,
                "end_time": 60.24772727272727,
                "pitch": 45,
                "velocity": 127,
                "duration": 0.10681818181817704,
                "tempo": 120.0
            },
            {
                "start_time": 59.49545454545454,
                "end_time": 60.30227272727272,
                "pitch": 7,
                "velocity": 127,
                "duration": 0.8068181818181799,
                "tempo": 120.0
            },
            {
                "start_time": 60.30227272727272,
                "end_time": 60.570454545454545,
                "pitch": 38,
                "velocity": 127,
                "duration": 0.26818181818182296,
                "tempo": 120.0
            },
            {
                "start_time": 60.625,
                "end_time": 60.73181818181818,
                "pitch": 31,
                "velocity": 127,
                "duration": 0.10681818181817704,
                "tempo": 120.0
            },
            {
                "start_time": 59.01136363636363,
                "end_time": 60.78636363636363,
                "pitch": 0,
                "velocity": 127,
                "duration": 1.7749999999999986,
                "tempo": 120.0
            },
            {
                "start_time": 60.78636363636363,
                "end_time": 60.897727272727266,
                "pitch": 38,
                "velocity": 127,
                "duration": 0.11136363636363455,
                "tempo": 120.0
            },
            {
                "start_time": 60.95454545454545,
                "end_time": 61.06363636363636,
                "pitch": 38,
                "velocity": 127,
                "duration": 0.10909090909090935,
                "tempo": 120.0
            },
            {
                "start_time": 61.12272727272727,
                "end_time": 61.22727272727273,
                "pitch": 38,
                "velocity": 127,
                "duration": 0.10454545454545894,
                "tempo": 120.0
            },
            {
                "start_time": 61.28181818181818,
                "end_time": 61.38863636363636,
                "pitch": 38,
                "velocity": 127,
                "duration": 0.10681818181817704,
                "tempo": 120.0
            },
            {
                "start_time": 60.14090909090909,
                "end_time": 61.44318181818181,
                "pitch": 53,
                "velocity": 127,
                "duration": 1.3022727272727224,
                "tempo": 120.0
            },
            {
                "start_time": 61.44318181818181,
                "end_time": 61.55,
                "pitch": 45,
                "velocity": 127,
                "duration": 0.10681818181818414,
                "tempo": 120.0
            },
            {
                "start_time": 60.30227272727272,
                "end_time": 61.60454545454545,
                "pitch": 7,
                "velocity": 127,
                "duration": 1.3022727272727295,
                "tempo": 120.0
            },
            {
                "start_time": 61.60454545454545,
                "end_time": 61.87272727272727,
                "pitch": 38,
                "velocity": 127,
                "duration": 0.26818181818181586,
                "tempo": 120.0
            },
            {
                "start_time": 60.625,
                "end_time": 61.929545454545455,
                "pitch": 41,
                "velocity": 127,
                "duration": 1.3045454545454547,
                "tempo": 120.0
            },
            {
                "start_time": 61.929545454545455,
                "end_time": 62.03409090909091,
                "pitch": 31,
                "velocity": 127,
                "duration": 0.10454545454545183,
                "tempo": 120.0
            },
            {
                "start_time": 60.78636363636363,
                "end_time": 62.08863636363636,
                "pitch": 0,
                "velocity": 127,
                "duration": 1.3022727272727295,
                "tempo": 120.0
            },
            {
                "start_time": 62.08863636363636,
                "end_time": 62.195454545454545,
                "pitch": 38,
                "velocity": 127,
                "duration": 0.10681818181818414,
                "tempo": 120.0
            },
            {
                "start_time": 62.25,
                "end_time": 62.35681818181818,
                "pitch": 38,
                "velocity": 127,
                "duration": 0.10681818181817704,
                "tempo": 120.0
            },
            {
                "start_time": 61.929545454545455,
                "end_time": 62.413636363636364,
                "pitch": 41,
                "velocity": 127,
                "duration": 0.48409090909090935,
                "tempo": 120.0
            },
            {
                "start_time": 62.413636363636364,
                "end_time": 62.522727272727266,
                "pitch": 33,
                "velocity": 127,
                "duration": 0.10909090909090224,
                "tempo": 120.0
            },
            {
                "start_time": 62.57727272727272,
                "end_time": 62.68863636363636,
                "pitch": 33,
                "velocity": 127,
                "duration": 0.11136363636364166,
                "tempo": 120.0
            },
            {
                "start_time": 61.60454545454545,
                "end_time": 62.74545454545454,
                "pitch": 7,
                "velocity": 127,
                "duration": 1.1409090909090907,
                "tempo": 120.0
            },
            {
                "start_time": 62.74545454545454,
                "end_time": 62.85227272727273,
                "pitch": 38,
                "velocity": 127,
                "duration": 0.10681818181818414,
                "tempo": 120.0
            },
            {
                "start_time": 62.413636363636364,
                "end_time": 62.90681818181818,
                "pitch": 41,
                "velocity": 127,
                "duration": 0.4931818181818173,
                "tempo": 120.0
            },
            {
                "start_time": 62.90681818181818,
                "end_time": 63.175,
                "pitch": 33,
                "velocity": 127,
                "duration": 0.26818181818181586,
                "tempo": 120.0
            },
            {
                "start_time": 62.74545454545454,
                "end_time": 63.22954545454545,
                "pitch": 7,
                "velocity": 127,
                "duration": 0.48409090909090935,
                "tempo": 120.0
            },
            {
                "start_time": 59.820454545454545,
                "end_time": 63.336363636363636,
                "pitch": 36,
                "velocity": 127,
                "duration": 3.5159090909090907,
                "tempo": 120.0
            },
            {
                "start_time": 63.22954545454545,
                "end_time": 63.336363636363636,
                "pitch": 36,
                "velocity": 127,
                "duration": 0.10681818181818414,
                "tempo": 120.0
            },
            {
                "start_time": 59.334090909090904,
                "end_time": 63.39090909090909,
                "pitch": 40,
                "velocity": 127,
                "duration": 4.056818181818187,
                "tempo": 120.0
            },
            {
                "start_time": 63.39090909090909,
                "end_time": 63.49772727272727,
                "pitch": 33,
                "velocity": 127,
                "duration": 0.10681818181817704,
                "tempo": 120.0
            },
            {
                "start_time": 63.55227272727272,
                "end_time": 63.65909090909091,
                "pitch": 33,
                "velocity": 127,
                "duration": 0.10681818181818414,
                "tempo": 120.0
            },
            {
                "start_time": 63.715909090909086,
                "end_time": 63.824999999999996,
                "pitch": 33,
                "velocity": 127,
                "duration": 0.10909090909090935,
                "tempo": 120.0
            },
            {
                "start_time": 63.87954545454545,
                "end_time": 63.990909090909085,
                "pitch": 33,
                "velocity": 127,
                "duration": 0.11136363636363455,
                "tempo": 120.0
            },
            {
                "start_time": 63.22954545454545,
                "end_time": 64.04545454545455,
                "pitch": 7,
                "velocity": 127,
                "duration": 0.8159090909090949,
                "tempo": 120.0
            },
            {
                "start_time": 64.04545454545455,
                "end_time": 64.15454545454546,
                "pitch": 38,
                "velocity": 127,
                "duration": 0.10909090909090935,
                "tempo": 120.0
            },
            {
                "start_time": 62.90681818181818,
                "end_time": 64.2090909090909,
                "pitch": 41,
                "velocity": 127,
                "duration": 1.3022727272727224,
                "tempo": 120.0
            },
            {
                "start_time": 64.2090909090909,
                "end_time": 64.47727272727272,
                "pitch": 33,
                "velocity": 127,
                "duration": 0.26818181818181586,
                "tempo": 120.0
            },
            {
                "start_time": 64.04545454545455,
                "end_time": 64.53181818181818,
                "pitch": 7,
                "velocity": 127,
                "duration": 0.48636363636363455,
                "tempo": 120.0
            },
            {
                "start_time": 64.53181818181818,
                "end_time": 64.63863636363637,
                "pitch": 36,
                "velocity": 127,
                "duration": 0.10681818181818414,
                "tempo": 120.0
            },
            {
                "start_time": 63.39090909090909,
                "end_time": 64.69318181818181,
                "pitch": 40,
                "velocity": 127,
                "duration": 1.3022727272727224,
                "tempo": 120.0
            },
            {
                "start_time": 64.69318181818181,
                "end_time": 64.8,
                "pitch": 33,
                "velocity": 127,
                "duration": 0.10681818181818414,
                "tempo": 120.0
            },
            {
                "start_time": 64.85454545454544,
                "end_time": 64.96136363636363,
                "pitch": 33,
                "velocity": 127,
                "duration": 0.10681818181818414,
                "tempo": 120.0
            },
            {
                "start_time": 65.01590909090909,
                "end_time": 65.12272727272727,
                "pitch": 33,
                "velocity": 127,
                "duration": 0.10681818181818414,
                "tempo": 120.0
            },
            {
                "start_time": 65.17727272727272,
                "end_time": 65.2840909090909,
                "pitch": 33,
                "velocity": 127,
                "duration": 0.10681818181818414,
                "tempo": 120.0
            },
            {
                "start_time": 64.53181818181818,
                "end_time": 65.33863636363635,
                "pitch": 7,
                "velocity": 127,
                "duration": 0.8068181818181728,
                "tempo": 120.0
            },
            {
                "start_time": 65.33863636363635,
                "end_time": 65.44545454545454,
                "pitch": 38,
                "velocity": 127,
                "duration": 0.10681818181818414,
                "tempo": 120.0
            },
            {
                "start_time": 64.2090909090909,
                "end_time": 65.5,
                "pitch": 41,
                "velocity": 127,
                "duration": 1.2909090909090963,
                "tempo": 120.0
            },
            {
                "start_time": 65.5,
                "end_time": 65.76818181818182,
                "pitch": 33,
                "velocity": 127,
                "duration": 0.26818181818181586,
                "tempo": 120.0
            },
            {
                "start_time": 65.33863636363635,
                "end_time": 65.82272727272726,
                "pitch": 7,
                "velocity": 127,
                "duration": 0.48409090909090935,
                "tempo": 120.0
            },
            {
                "start_time": 65.82272727272726,
                "end_time": 65.92954545454545,
                "pitch": 36,
                "velocity": 127,
                "duration": 0.10681818181818414,
                "tempo": 120.0
            },
            {
                "start_time": 64.69318181818181,
                "end_time": 65.98409090909091,
                "pitch": 40,
                "velocity": 127,
                "duration": 1.2909090909090963,
                "tempo": 120.0
            },
            {
                "start_time": 65.98409090909091,
                "end_time": 66.09318181818182,
                "pitch": 33,
                "velocity": 127,
                "duration": 0.10909090909090935,
                "tempo": 120.0
            },
            {
                "start_time": 66.14999999999999,
                "end_time": 66.26136363636364,
                "pitch": 33,
                "velocity": 127,
                "duration": 0.11136363636364877,
                "tempo": 120.0
            },
            {
                "start_time": 66.31818181818181,
                "end_time": 66.425,
                "pitch": 33,
                "velocity": 127,
                "duration": 0.10681818181818414,
                "tempo": 120.0
            },
            {
                "start_time": 66.47727272727272,
                "end_time": 66.58636363636363,
                "pitch": 33,
                "velocity": 127,
                "duration": 0.10909090909090935,
                "tempo": 120.0
            },
            {
                "start_time": 65.82272727272726,
                "end_time": 66.63863636363637,
                "pitch": 7,
                "velocity": 127,
                "duration": 0.815909090909102,
                "tempo": 120.0
            },
            {
                "start_time": 66.63863636363637,
                "end_time": 66.74772727272727,
                "pitch": 38,
                "velocity": 127,
                "duration": 0.10909090909090935,
                "tempo": 120.0
            },
            {
                "start_time": 65.5,
                "end_time": 66.80227272727272,
                "pitch": 41,
                "velocity": 127,
                "duration": 1.3022727272727224,
                "tempo": 120.0
            },
            {
                "start_time": 66.8,
                "end_time": 66.80227272727272,
                "pitch": 41,
                "velocity": 127,
                "duration": 0.0022727272727252057,
                "tempo": 120.0
            },
            {
                "start_time": 66.80227272727272,
                "end_time": 67.07045454545454,
                "pitch": 33,
                "velocity": 127,
                "duration": 0.26818181818181586,
                "tempo": 120.0
            },
            {
                "start_time": 66.63863636363637,
                "end_time": 67.125,
                "pitch": 7,
                "velocity": 127,
                "duration": 0.48636363636363455,
                "tempo": 120.0
            },
            {
                "start_time": 67.12272727272727,
                "end_time": 67.125,
                "pitch": 7,
                "velocity": 127,
                "duration": 0.0022727272727252057,
                "tempo": 120.0
            },
            {
                "start_time": 67.125,
                "end_time": 67.23181818181818,
                "pitch": 36,
                "velocity": 127,
                "duration": 0.10681818181818414,
                "tempo": 120.0
            },
            {
                "start_time": 65.98409090909091,
                "end_time": 67.28636363636363,
                "pitch": 40,
                "velocity": 127,
                "duration": 1.3022727272727224,
                "tempo": 120.0
            },
            {
                "start_time": 67.28636363636363,
                "end_time": 67.39545454545454,
                "pitch": 33,
                "velocity": 127,
                "duration": 0.10909090909090935,
                "tempo": 120.0
            },
            {
                "start_time": 67.45227272727273,
                "end_time": 67.56363636363636,
                "pitch": 33,
                "velocity": 127,
                "duration": 0.11136363636363455,
                "tempo": 120.0
            },
            {
                "start_time": 67.28636363636363,
                "end_time": 67.725,
                "pitch": 40,
                "velocity": 127,
                "duration": 0.4386363636363626,
                "tempo": 120.0
            },
            {
                "start_time": 67.62272727272727,
                "end_time": 67.725,
                "pitch": 40,
                "velocity": 127,
                "duration": 0.10227272727271952,
                "tempo": 120.0
            },
            {
                "start_time": 67.77954545454546,
                "end_time": 67.88636363636363,
                "pitch": 40,
                "velocity": 127,
                "duration": 0.10681818181816993,
                "tempo": 120.0
            },
            {
                "start_time": 54.62272727272727,
                "end_time": 67.94090909090909,
                "pitch": 54,
                "velocity": 127,
                "duration": 13.31818181818182,
                "tempo": 120.0
            },
            {
                "start_time": 67.94090909090909,
                "end_time": 68.04772727272727,
                "pitch": 47,
                "velocity": 127,
                "duration": 0.10681818181818414,
                "tempo": 120.0
            },
            {
                "start_time": 54.3,
                "end_time": 68.10227272727272,
                "pitch": 19,
                "velocity": 127,
                "duration": 13.802272727272722,
                "tempo": 120.0
            },
            {
                "start_time": 68.10227272727272,
                "end_time": 68.37272727272727,
                "pitch": 40,
                "velocity": 127,
                "duration": 0.2704545454545553,
                "tempo": 120.0
            },
            {
                "start_time": 54.13863636363636,
                "end_time": 68.425,
                "pitch": 42,
                "velocity": 127,
                "duration": 14.286363636363639,
                "tempo": 120.0
            },
            {
                "start_time": 68.425,
                "end_time": 68.5340909090909,
                "pitch": 35,
                "velocity": 127,
                "duration": 0.10909090909090935,
                "tempo": 120.0
            },
            {
                "start_time": 68.10227272727272,
                "end_time": 68.58636363636363,
                "pitch": 19,
                "velocity": 127,
                "duration": 0.48409090909090935,
                "tempo": 120.0
            },
            {
                "start_time": 68.58636363636363,
                "end_time": 68.69545454545454,
                "pitch": 40,
                "velocity": 127,
                "duration": 0.10909090909090935,
                "tempo": 120.0
            },
            {
                "start_time": 68.74772727272727,
                "end_time": 68.85681818181818,
                "pitch": 40,
                "velocity": 127,
                "duration": 0.10909090909090935,
                "tempo": 120.0
            },
            {
                "start_time": 68.91136363636363,
                "end_time": 69.02045454545454,
                "pitch": 40,
                "velocity": 127,
                "duration": 0.10909090909090935,
                "tempo": 120.0
            },
            {
                "start_time": 69.07727272727273,
                "end_time": 69.18636363636364,
                "pitch": 40,
                "velocity": 127,
                "duration": 0.10909090909090935,
                "tempo": 120.0
            },
            {
                "start_time": 67.94090909090909,
                "end_time": 69.24318181818181,
                "pitch": 54,
                "velocity": 127,
                "duration": 1.3022727272727224,
                "tempo": 120.0
            },
            {
                "start_time": 69.24318181818181,
                "end_time": 69.35,
                "pitch": 47,
                "velocity": 127,
                "duration": 0.10681818181818414,
                "tempo": 120.0
            },
            {
                "start_time": 68.58636363636363,
                "end_time": 69.40454545454546,
                "pitch": 19,
                "velocity": 127,
                "duration": 0.8181818181818272,
                "tempo": 120.0
            },
            {
                "start_time": 69.40454545454546,
                "end_time": 69.67272727272727,
                "pitch": 40,
                "velocity": 127,
                "duration": 0.26818181818181586,
                "tempo": 120.0
            },
            {
                "start_time": 68.425,
                "end_time": 69.72954545454544,
                "pitch": 42,
                "velocity": 127,
                "duration": 1.3045454545454476,
                "tempo": 120.0
            },
            {
                "start_time": 69.72954545454544,
                "end_time": 69.8340909090909,
                "pitch": 35,
                "velocity": 127,
                "duration": 0.10454545454545894,
                "tempo": 120.0
            },
            {
                "start_time": 69.40454545454546,
                "end_time": 69.88863636363637,
                "pitch": 19,
                "velocity": 127,
                "duration": 0.48409090909090935,
                "tempo": 120.0
            },
            {
                "start_time": 69.88863636363637,
                "end_time": 69.99545454545454,
                "pitch": 40,
                "velocity": 127,
                "duration": 0.10681818181816993,
                "tempo": 120.0
            },
            {
                "start_time": 70.05227272727272,
                "end_time": 70.15681818181818,
                "pitch": 40,
                "velocity": 127,
                "duration": 0.10454545454545894,
                "tempo": 120.0
            },
            {
                "start_time": 69.24318181818181,
                "end_time": 70.21363636363635,
                "pitch": 54,
                "velocity": 127,
                "duration": 0.9704545454545439,
                "tempo": 120.0
            },
            {
                "start_time": 70.21363636363635,
                "end_time": 70.31818181818181,
                "pitch": 43,
                "velocity": 127,
                "duration": 0.10454545454545894,
                "tempo": 120.0
            },
            {
                "start_time": 70.37272727272727,
                "end_time": 70.47954545454544,
                "pitch": 43,
                "velocity": 127,
                "duration": 0.10681818181816993,
                "tempo": 120.0
            },
            {
                "start_time": 62.08863636363636,
                "end_time": 70.5340909090909,
                "pitch": 0,
                "velocity": 127,
                "duration": 8.445454545454545,
                "tempo": 120.0
            },
            {
                "start_time": 70.5340909090909,
                "end_time": 70.64090909090909,
                "pitch": 38,
                "velocity": 127,
                "duration": 0.10681818181818414,
                "tempo": 120.0
            },
            {
                "start_time": 61.44318181818181,
                "end_time": 70.69545454545454,
                "pitch": 53,
                "velocity": 127,
                "duration": 9.252272727272725,
                "tempo": 120.0
            },
            {
                "start_time": 70.69545454545454,
                "end_time": 70.96363636363635,
                "pitch": 43,
                "velocity": 127,
                "duration": 0.26818181818181586,
                "tempo": 120.0
            },
            {
                "start_time": 70.5340909090909,
                "end_time": 71.01818181818182,
                "pitch": 0,
                "velocity": 127,
                "duration": 0.48409090909090935,
                "tempo": 120.0
            },
            {
                "start_time": 71.01818181818182,
                "end_time": 71.125,
                "pitch": 36,
                "velocity": 127,
                "duration": 0.10681818181818414,
                "tempo": 120.0
            },
            {
                "start_time": 58.849999999999994,
                "end_time": 71.17954545454545,
                "pitch": 52,
                "velocity": 127,
                "duration": 12.329545454545453,
                "tempo": 120.0
            },
            {
                "start_time": 71.17954545454545,
                "end_time": 71.29090909090908,
                "pitch": 43,
                "velocity": 127,
                "duration": 0.11136363636363455,
                "tempo": 120.0
            },
            {
                "start_time": 71.34545454545454,
                "end_time": 71.45681818181818,
                "pitch": 43,
                "velocity": 127,
                "duration": 0.11136363636363455,
                "tempo": 120.0
            },
            {
                "start_time": 71.51590909090909,
                "end_time": 71.62045454545454,
                "pitch": 43,
                "velocity": 127,
                "duration": 0.10454545454544473,
                "tempo": 120.0
            },
            {
                "start_time": 71.675,
                "end_time": 71.78181818181818,
                "pitch": 43,
                "velocity": 127,
                "duration": 0.10681818181818414,
                "tempo": 120.0
            },
            {
                "start_time": 71.01818181818182,
                "end_time": 71.83636363636363,
                "pitch": 0,
                "velocity": 127,
                "duration": 0.818181818181813,
                "tempo": 120.0
            },
            {
                "start_time": 71.83636363636363,
                "end_time": 71.94318181818181,
                "pitch": 38,
                "velocity": 127,
                "duration": 0.10681818181818414,
                "tempo": 120.0
            },
            {
                "start_time": 70.69545454545454,
                "end_time": 71.99772727272727,
                "pitch": 53,
                "velocity": 127,
                "duration": 1.3022727272727366,
                "tempo": 120.0
            },
            {
                "start_time": 71.99772727272727,
                "end_time": 72.26590909090909,
                "pitch": 43,
                "velocity": 127,
                "duration": 0.26818181818181586,
                "tempo": 120.0
            },
            {
                "start_time": 71.83636363636363,
                "end_time": 72.32045454545454,
                "pitch": 0,
                "velocity": 127,
                "duration": 0.48409090909090935,
                "tempo": 120.0
            },
            {
                "start_time": 72.32045454545454,
                "end_time": 72.42727272727272,
                "pitch": 36,
                "velocity": 127,
                "duration": 0.10681818181818414,
                "tempo": 120.0
            },
            {
                "start_time": 71.17954545454545,
                "end_time": 72.48181818181818,
                "pitch": 52,
                "velocity": 127,
                "duration": 1.3022727272727366,
                "tempo": 120.0
            },
            {
                "start_time": 72.48181818181818,
                "end_time": 72.58863636363635,
                "pitch": 43,
                "velocity": 127,
                "duration": 0.10681818181816993,
                "tempo": 120.0
            },
            {
                "start_time": 72.64318181818182,
                "end_time": 72.75,
                "pitch": 43,
                "velocity": 127,
                "duration": 0.10681818181818414,
                "tempo": 120.0
            },
            {
                "start_time": 72.32045454545454,
                "end_time": 72.80681818181817,
                "pitch": 0,
                "velocity": 127,
                "duration": 0.48636363636363455,
                "tempo": 120.0
            },
            {
                "start_time": 72.80681818181817,
                "end_time": 72.91590909090908,
                "pitch": 40,
                "velocity": 127,
                "duration": 0.10909090909090935,
                "tempo": 120.0
            },
            {
                "start_time": 72.97045454545454,
                "end_time": 73.08181818181818,
                "pitch": 40,
                "velocity": 127,
                "duration": 0.11136363636363455,
                "tempo": 120.0
            },
            {
                "start_time": 70.21363636363635,
                "end_time": 73.13863636363637,
                "pitch": 54,
                "velocity": 127,
                "duration": 2.9250000000000114,
                "tempo": 120.0
            },
            {
                "start_time": 73.13863636363637,
                "end_time": 73.24545454545454,
                "pitch": 47,
                "velocity": 127,
                "duration": 0.10681818181816993,
                "tempo": 120.0
            },
            {
                "start_time": 69.88863636363637,
                "end_time": 73.3,
                "pitch": 19,
                "velocity": 127,
                "duration": 3.4113636363636317,
                "tempo": 120.0
            },
            {
                "start_time": 73.3,
                "end_time": 73.56818181818181,
                "pitch": 40,
                "velocity": 127,
                "duration": 0.26818181818181586,
                "tempo": 120.0
            },
            {
                "start_time": 69.72954545454544,
                "end_time": 73.62272727272727,
                "pitch": 42,
                "velocity": 127,
                "duration": 3.89318181818183,
                "tempo": 120.0
            },
            {
                "start_time": 73.62272727272727,
                "end_time": 73.72954545454544,
                "pitch": 35,
                "velocity": 127,
                "duration": 0.10681818181816993,
                "tempo": 120.0
            },
            {
                "start_time": 73.3,
                "end_time": 73.7840909090909,
                "pitch": 19,
                "velocity": 127,
                "duration": 0.48409090909090935,
                "tempo": 120.0
            },
            {
                "start_time": 73.7840909090909,
                "end_time": 73.89090909090909,
                "pitch": 40,
                "velocity": 127,
                "duration": 0.10681818181818414,
                "tempo": 120.0
            },
            {
                "start_time": 73.94545454545454,
                "end_time": 74.05227272727272,
                "pitch": 40,
                "velocity": 127,
                "duration": 0.10681818181818414,
                "tempo": 120.0
            },
            {
                "start_time": 74.10909090909091,
                "end_time": 74.2159090909091,
                "pitch": 40,
                "velocity": 127,
                "duration": 0.10681818181818414,
                "tempo": 120.0
            },
            {
                "start_time": 74.27272727272727,
                "end_time": 74.3840909090909,
                "pitch": 40,
                "velocity": 127,
                "duration": 0.11136363636363455,
                "tempo": 120.0
            },
            {
                "start_time": 73.13863636363637,
                "end_time": 74.43863636363636,
                "pitch": 54,
                "velocity": 127,
                "duration": 1.2999999999999972,
                "tempo": 120.0
            },
            {
                "start_time": 74.43863636363636,
                "end_time": 74.54772727272727,
                "pitch": 47,
                "velocity": 127,
                "duration": 0.10909090909090935,
                "tempo": 120.0
            },
            {
                "start_time": 73.7840909090909,
                "end_time": 74.60227272727272,
                "pitch": 19,
                "velocity": 127,
                "duration": 0.818181818181813,
                "tempo": 120.0
            },
            {
                "start_time": 74.60227272727272,
                "end_time": 74.87045454545454,
                "pitch": 40,
                "velocity": 127,
                "duration": 0.26818181818181586,
                "tempo": 120.0
            },
            {
                "start_time": 73.62272727272727,
                "end_time": 74.925,
                "pitch": 42,
                "velocity": 127,
                "duration": 1.3022727272727224,
                "tempo": 120.0
            },
            {
                "start_time": 74.925,
                "end_time": 75.03181818181818,
                "pitch": 35,
                "velocity": 127,
                "duration": 0.10681818181818414,
                "tempo": 120.0
            },
            {
                "start_time": 74.60227272727272,
                "end_time": 75.08636363636363,
                "pitch": 19,
                "velocity": 127,
                "duration": 0.48409090909090935,
                "tempo": 120.0
            },
            {
                "start_time": 75.08636363636363,
                "end_time": 75.19318181818181,
                "pitch": 40,
                "velocity": 127,
                "duration": 0.10681818181818414,
                "tempo": 120.0
            },
            {
                "start_time": 75.24772727272727,
                "end_time": 75.35454545454544,
                "pitch": 40,
                "velocity": 127,
                "duration": 0.10681818181816993,
                "tempo": 120.0
            },
            {
                "start_time": 74.43863636363636,
                "end_time": 75.4090909090909,
                "pitch": 54,
                "velocity": 127,
                "duration": 0.9704545454545439,
                "tempo": 120.0
            },
            {
                "start_time": 75.4090909090909,
                "end_time": 75.51590909090909,
                "pitch": 43,
                "velocity": 127,
                "duration": 0.10681818181818414,
                "tempo": 120.0
            },
            {
                "start_time": 75.57045454545454,
                "end_time": 75.67727272727272,
                "pitch": 43,
                "velocity": 127,
                "duration": 0.10681818181818414,
                "tempo": 120.0
            },
            {
                "start_time": 72.80681818181817,
                "end_time": 75.73181818181818,
                "pitch": 0,
                "velocity": 127,
                "duration": 2.9250000000000114,
                "tempo": 120.0
            },
            {
                "start_time": 75.73181818181818,
                "end_time": 75.83863636363635,
                "pitch": 38,
                "velocity": 127,
                "duration": 0.10681818181816993,
                "tempo": 120.0
            },
            {
                "start_time": 71.99772727272727,
                "end_time": 75.89318181818182,
                "pitch": 53,
                "velocity": 127,
                "duration": 3.895454545454541,
                "tempo": 120.0
            },
            {
                "start_time": 75.89318181818182,
                "end_time": 76.16136363636363,
                "pitch": 43,
                "velocity": 127,
                "duration": 0.26818181818181586,
                "tempo": 120.0
            },
            {
                "start_time": 75.73181818181818,
                "end_time": 76.2159090909091,
                "pitch": 0,
                "velocity": 127,
                "duration": 0.48409090909090935,
                "tempo": 120.0
            },
            {
                "start_time": 76.2159090909091,
                "end_time": 76.32272727272726,
                "pitch": 36,
                "velocity": 127,
                "duration": 0.10681818181816993,
                "tempo": 120.0
            },
            {
                "start_time": 72.48181818181818,
                "end_time": 76.37727272727273,
                "pitch": 52,
                "velocity": 127,
                "duration": 3.895454545454541,
                "tempo": 120.0
            },
            {
                "start_time": 76.37727272727273,
                "end_time": 76.48636363636363,
                "pitch": 43,
                "velocity": 127,
                "duration": 0.10909090909090935,
                "tempo": 120.0
            },
            {
                "start_time": 76.54318181818182,
                "end_time": 76.65454545454546,
                "pitch": 43,
                "velocity": 127,
                "duration": 0.11136363636363455,
                "tempo": 120.0
            },
            {
                "start_time": 76.71136363636363,
                "end_time": 76.81818181818181,
                "pitch": 43,
                "velocity": 127,
                "duration": 0.10681818181818414,
                "tempo": 120.0
            },
            {
                "start_time": 76.87045454545454,
                "end_time": 76.97954545454544,
                "pitch": 43,
                "velocity": 127,
                "duration": 0.10909090909090935,
                "tempo": 120.0
            },
            {
                "start_time": 76.2159090909091,
                "end_time": 77.03181818181818,
                "pitch": 0,
                "velocity": 127,
                "duration": 0.8159090909090878,
                "tempo": 120.0
            },
            {
                "start_time": 77.03181818181818,
                "end_time": 77.14090909090909,
                "pitch": 38,
                "velocity": 127,
                "duration": 0.10909090909090935,
                "tempo": 120.0
            },
            {
                "start_time": 75.89318181818182,
                "end_time": 77.19318181818181,
                "pitch": 53,
                "velocity": 127,
                "duration": 1.2999999999999972,
                "tempo": 120.0
            },
            {
                "start_time": 77.19318181818181,
                "end_time": 77.46363636363635,
                "pitch": 43,
                "velocity": 127,
                "duration": 0.27045454545454106,
                "tempo": 120.0
            },
            {
                "start_time": 77.03181818181818,
                "end_time": 77.51590909090909,
                "pitch": 0,
                "velocity": 127,
                "duration": 0.48409090909090935,
                "tempo": 120.0
            },
            {
                "start_time": 77.51590909090909,
                "end_time": 77.625,
                "pitch": 36,
                "velocity": 127,
                "duration": 0.10909090909090935,
                "tempo": 120.0
            },
            {
                "start_time": 76.37727272727273,
                "end_time": 77.67727272727272,
                "pitch": 52,
                "velocity": 127,
                "duration": 1.2999999999999972,
                "tempo": 120.0
            },
            {
                "start_time": 77.67727272727272,
                "end_time": 77.78863636363636,
                "pitch": 43,
                "velocity": 127,
                "duration": 0.11136363636363455,
                "tempo": 120.0
            },
            {
                "start_time": 77.84545454545454,
                "end_time": 77.95681818181818,
                "pitch": 43,
                "velocity": 127,
                "duration": 0.11136363636363455,
                "tempo": 120.0
            },
            {
                "start_time": 77.51590909090909,
                "end_time": 78.01363636363637,
                "pitch": 0,
                "velocity": 127,
                "duration": 0.4977272727272748,
                "tempo": 120.0
            },
            {
                "start_time": 78.01363636363637,
                "end_time": 78.11818181818181,
                "pitch": 40,
                "velocity": 127,
                "duration": 0.10454545454544473,
                "tempo": 120.0
            },
            {
                "start_time": 78.17272727272727,
                "end_time": 78.27954545454546,
                "pitch": 40,
                "velocity": 127,
                "duration": 0.10681818181818414,
                "tempo": 120.0
            }
        ]
    }
}