{
    "track_id": "04 Metal Creature A",
    "mood": "angry",
    "instruments": {
        "Electric Piano 1": [
            {
                "start_time": 0.029545454545454545,
                "end_time": 0.24545454545454545,
                "pitch": 36,
                "velocity": 64,
                "duration": 0.2159090909090909,
                "tempo": 120.0
            },
            {
                "start_time": 0.24545454545454545,
                "end_time": 0.2954545454545454,
                "pitch": 36,
                "velocity": 64,
                "duration": 0.04999999999999996,
                "tempo": 120.0
            },
            {
                "start_time": 0.2954545454545454,
                "end_time": 0.31136363636363634,
                "pitch": 36,
                "velocity": 64,
                "duration": 0.01590909090909093,
                "tempo": 120.0
            },
            {
                "start_time": 0.3136363636363636,
                "end_time": 0.4636363636363636,
                "pitch": 36,
                "velocity": 64,
                "duration": 0.15000000000000002,
                "tempo": 120.0
            },
            {
                "start_time": 0.4636363636363636,
                "end_time": 0.6,
                "pitch": 48,
                "velocity": 64,
                "duration": 0.13636363636363635,
                "tempo": 120.0
            },
            {
                "start_time": 0.6,
                "end_time": 0.7545454545454545,
                "pitch": 36,
                "velocity": 64,
                "duration": 0.15454545454545454,
                "tempo": 120.0
            },
            {
                "start_time": 0.7545454545454545,
                "end_time": 0.8909090909090909,
                "pitch": 48,
                "velocity": 64,
                "duration": 0.13636363636363635,
                "tempo": 120.0
            },
            {
                "start_time": 0.8909090909090909,
                "end_time": 1.0363636363636364,
                "pitch": 46,
                "velocity": 64,
                "duration": 0.1454545454545455,
                "tempo": 120.0
            },
            {
                "start_time": 1.0363636363636364,
                "end_time": 1.184090909090909,
                "pitch": 47,
                "velocity": 64,
                "duration": 0.1477272727272727,
                "tempo": 120.0
            },
            {
                "start_time": 1.184090909090909,
                "end_time": 1.315909090909091,
                "pitch": 48,
                "velocity": 64,
                "duration": 0.13181818181818183,
                "tempo": 120.0
            },
            {
                "start_time": 1.315909090909091,
                "end_time": 1.4659090909090908,
                "pitch": 39,
                "velocity": 64,
                "duration": 0.1499999999999999,
                "tempo": 120.0
            },
            {
                "start_time": 1.4659090909090908,
                "end_time": 1.5999999999999999,
                "pitch": 41,
                "velocity": 64,
                "duration": 0.13409090909090904,
                "tempo": 120.0
            },
            {
                "start_time": 1.5999999999999999,
                "end_time": 1.75,
                "pitch": 43,
                "velocity": 64,
                "duration": 0.15000000000000013,
                "tempo": 120.0
            },
            {
                "start_time": 0.24545454545454545,
                "end_time": 1.9659090909090908,
                "pitch": 24,
                "velocity": 64,
                "duration": 1.7204545454545455,
                "tempo": 120.0
            },
            {
                "start_time": 1.75,
                "end_time": 1.9659090909090908,
                "pitch": 36,
                "velocity": 64,
                "duration": 0.21590909090909083,
                "tempo": 120.0
            },
            {
                "start_time": 1.9659090909090908,
                "end_time": 2.0159090909090907,
                "pitch": 36,
                "velocity": 64,
                "duration": 0.04999999999999982,
                "tempo": 120.0
            },
            {
                "start_time": 0.2954545454545454,
                "end_time": 2.0159090909090907,
                "pitch": 40,
                "velocity": 64,
                "duration": 1.7204545454545452,
                "tempo": 120.0
            },
            {
                "start_time": 2.0159090909090907,
                "end_time": 2.0318181818181817,
                "pitch": 36,
                "velocity": 64,
                "duration": 0.015909090909091095,
                "tempo": 120.0
            },
            {
                "start_time": 2.034090909090909,
                "end_time": 2.184090909090909,
                "pitch": 36,
                "velocity": 64,
                "duration": 0.1499999999999999,
                "tempo": 120.0
            },
            {
                "start_time": 2.184090909090909,
                "end_time": 2.3204545454545453,
                "pitch": 48,
                "velocity": 64,
                "duration": 0.13636363636363624,
                "tempo": 120.0
            },
            {
                "start_time": 2.3204545454545453,
                "end_time": 2.4727272727272727,
                "pitch": 36,
                "velocity": 64,
                "duration": 0.15227272727272734,
                "tempo": 120.0
            },
            {
                "start_time": 2.475,
                "end_time": 2.609090909090909,
                "pitch": 48,
                "velocity": 64,
                "duration": 0.13409090909090882,
                "tempo": 120.0
            },
            {
                "start_time": 2.6113636363636363,
                "end_time": 2.752272727272727,
                "pitch": 46,
                "velocity": 64,
                "duration": 0.14090909090909065,
                "tempo": 120.0
            },
            {
                "start_time": 2.7545454545454544,
                "end_time": 2.8795454545454544,
                "pitch": 47,
                "velocity": 64,
                "duration": 0.125,
                "tempo": 120.0
            },
            {
                "start_time": 2.8795454545454544,
                "end_time": 3.0227272727272725,
                "pitch": 48,
                "velocity": 64,
                "duration": 0.14318181818181808,
                "tempo": 120.0
            },
            {
                "start_time": 3.025,
                "end_time": 3.245454545454545,
                "pitch": 43,
                "velocity": 64,
                "duration": 0.22045454545454524,
                "tempo": 120.0
            },
            {
                "start_time": 3.245454545454545,
                "end_time": 3.2954545454545454,
                "pitch": 43,
                "velocity": 64,
                "duration": 0.050000000000000266,
                "tempo": 120.0
            },
            {
                "start_time": 3.2954545454545454,
                "end_time": 3.381818181818182,
                "pitch": 43,
                "velocity": 64,
                "duration": 0.08636363636363642,
                "tempo": 120.0
            },
            {
                "start_time": 3.2954545454545454,
                "end_time": 3.4318181818181817,
                "pitch": 0,
                "velocity": 64,
                "duration": 0.13636363636363624,
                "tempo": 120.0
            },
            {
                "start_time": 3.381818181818182,
                "end_time": 3.4318181818181817,
                "pitch": 43,
                "velocity": 64,
                "duration": 0.04999999999999982,
                "tempo": 120.0
            },
            {
                "start_time": 3.4318181818181817,
                "end_time": 3.465909090909091,
                "pitch": 43,
                "velocity": 64,
                "duration": 0.03409090909090917,
                "tempo": 120.0
            },
            {
                "start_time": 3.468181818181818,
                "end_time": 3.684090909090909,
                "pitch": 36,
                "velocity": 64,
                "duration": 0.21590909090909127,
                "tempo": 120.0
            },
            {
                "start_time": 3.684090909090909,
                "end_time": 3.734090909090909,
                "pitch": 36,
                "velocity": 64,
                "duration": 0.04999999999999982,
                "tempo": 120.0
            },
            {
                "start_time": 2.0159090909090907,
                "end_time": 3.734090909090909,
                "pitch": 40,
                "velocity": 64,
                "duration": 1.7181818181818183,
                "tempo": 120.0
            },
            {
                "start_time": 3.734090909090909,
                "end_time": 3.75,
                "pitch": 36,
                "velocity": 64,
                "duration": 0.015909090909091095,
                "tempo": 120.0
            },
            {
                "start_time": 3.75,
                "end_time": 3.884090909090909,
                "pitch": 36,
                "velocity": 64,
                "duration": 0.13409090909090882,
                "tempo": 120.0
            },
            {
                "start_time": 3.8863636363636362,
                "end_time": 4.027272727272727,
                "pitch": 48,
                "velocity": 64,
                "duration": 0.1409090909090911,
                "tempo": 120.0
            },
            {
                "start_time": 4.027272727272727,
                "end_time": 4.170454545454545,
                "pitch": 36,
                "velocity": 64,
                "duration": 0.14318181818181763,
                "tempo": 120.0
            },
            {
                "start_time": 4.170454545454545,
                "end_time": 4.297727272727273,
                "pitch": 48,
                "velocity": 64,
                "duration": 0.12727272727272787,
                "tempo": 120.0
            },
            {
                "start_time": 4.3,
                "end_time": 4.447727272727272,
                "pitch": 46,
                "velocity": 64,
                "duration": 0.14772727272727249,
                "tempo": 120.0
            },
            {
                "start_time": 4.447727272727272,
                "end_time": 4.581818181818182,
                "pitch": 47,
                "velocity": 64,
                "duration": 0.1340909090909097,
                "tempo": 120.0
            },
            {
                "start_time": 4.581818181818182,
                "end_time": 4.7318181818181815,
                "pitch": 48,
                "velocity": 64,
                "duration": 0.14999999999999947,
                "tempo": 120.0
            },
            {
                "start_time": 4.7340909090909085,
                "end_time": 4.868181818181818,
                "pitch": 39,
                "velocity": 64,
                "duration": 0.1340909090909097,
                "tempo": 120.0
            },
            {
                "start_time": 4.870454545454545,
                "end_time": 5.0227272727272725,
                "pitch": 41,
                "velocity": 64,
                "duration": 0.15227272727272734,
                "tempo": 120.0
            },
            {
                "start_time": 5.0227272727272725,
                "end_time": 5.175,
                "pitch": 43,
                "velocity": 64,
                "duration": 0.15227272727272734,
                "tempo": 120.0
            },
            {
                "start_time": 1.9659090909090908,
                "end_time": 5.393181818181818,
                "pitch": 24,
                "velocity": 64,
                "duration": 3.427272727272727,
                "tempo": 120.0
            },
            {
                "start_time": 5.177272727272727,
                "end_time": 5.393181818181818,
                "pitch": 36,
                "velocity": 64,
                "duration": 0.21590909090909083,
                "tempo": 120.0
            },
            {
                "start_time": 5.393181818181818,
                "end_time": 5.443181818181818,
                "pitch": 36,
                "velocity": 64,
                "duration": 0.05000000000000071,
                "tempo": 120.0
            },
            {
                "start_time": 3.734090909090909,
                "end_time": 5.443181818181818,
                "pitch": 40,
                "velocity": 64,
                "duration": 1.7090909090909094,
                "tempo": 120.0
            },
            {
                "start_time": 5.443181818181818,
                "end_time": 5.459090909090909,
                "pitch": 36,
                "velocity": 64,
                "duration": 0.01590909090909065,
                "tempo": 120.0
            },
            {
                "start_time": 5.459090909090909,
                "end_time": 5.593181818181818,
                "pitch": 36,
                "velocity": 64,
                "duration": 0.13409090909090882,
                "tempo": 120.0
            },
            {
                "start_time": 5.595454545454545,
                "end_time": 5.74090909090909,
                "pitch": 48,
                "velocity": 64,
                "duration": 0.1454545454545455,
                "tempo": 120.0
            },
            {
                "start_time": 5.74090909090909,
                "end_time": 5.870454545454545,
                "pitch": 36,
                "velocity": 64,
                "duration": 0.12954545454545485,
                "tempo": 120.0
            },
            {
                "start_time": 5.872727272727272,
                "end_time": 6.018181818181818,
                "pitch": 48,
                "velocity": 64,
                "duration": 0.1454545454545455,
                "tempo": 120.0
            },
            {
                "start_time": 6.0204545454545455,
                "end_time": 6.168181818181818,
                "pitch": 43,
                "velocity": 64,
                "duration": 0.14772727272727249,
                "tempo": 120.0
            },
            {
                "start_time": 6.168181818181818,
                "end_time": 6.302272727272727,
                "pitch": 46,
                "velocity": 64,
                "duration": 0.13409090909090882,
                "tempo": 120.0
            },
            {
                "start_time": 6.302272727272727,
                "end_time": 6.452272727272727,
                "pitch": 48,
                "velocity": 64,
                "duration": 0.15000000000000036,
                "tempo": 120.0
            },
            {
                "start_time": 6.452272727272727,
                "end_time": 6.586363636363636,
                "pitch": 51,
                "velocity": 64,
                "duration": 0.13409090909090882,
                "tempo": 120.0
            },
            {
                "start_time": 6.586363636363636,
                "end_time": 6.736363636363636,
                "pitch": 48,
                "velocity": 64,
                "duration": 0.15000000000000036,
                "tempo": 120.0
            },
            {
                "start_time": 6.736363636363636,
                "end_time": 6.870454545454545,
                "pitch": 46,
                "velocity": 64,
                "duration": 0.13409090909090882,
                "tempo": 120.0
            },
            {
                "start_time": 5.393181818181818,
                "end_time": 7.081818181818181,
                "pitch": 24,
                "velocity": 64,
                "duration": 1.6886363636363635,
                "tempo": 120.0
            },
            {
                "start_time": 6.870454545454545,
                "end_time": 7.081818181818181,
                "pitch": 36,
                "velocity": 64,
                "duration": 0.21136363636363598,
                "tempo": 120.0
            },
            {
                "start_time": 7.081818181818181,
                "end_time": 7.131818181818182,
                "pitch": 36,
                "velocity": 64,
                "duration": 0.05000000000000071,
                "tempo": 120.0
            },
            {
                "start_time": 5.443181818181818,
                "end_time": 7.131818181818182,
                "pitch": 40,
                "velocity": 64,
                "duration": 1.6886363636363635,
                "tempo": 120.0
            },
            {
                "start_time": 7.081818181818181,
                "end_time": 7.213636363636363,
                "pitch": 24,
                "velocity": 64,
                "duration": 0.13181818181818183,
                "tempo": 120.0
            },
            {
                "start_time": 7.131818181818182,
                "end_time": 7.213636363636363,
                "pitch": 36,
                "velocity": 64,
                "duration": 0.08181818181818112,
                "tempo": 120.0
            },
            {
                "start_time": 7.213636363636363,
                "end_time": 7.263636363636364,
                "pitch": 36,
                "velocity": 64,
                "duration": 0.05000000000000071,
                "tempo": 120.0
            },
            {
                "start_time": 7.131818181818182,
                "end_time": 7.263636363636364,
                "pitch": 40,
                "velocity": 64,
                "duration": 0.13181818181818183,
                "tempo": 120.0
            },
            {
                "start_time": 7.213636363636363,
                "end_time": 7.345454545454545,
                "pitch": 24,
                "velocity": 64,
                "duration": 0.13181818181818183,
                "tempo": 120.0
            },
            {
                "start_time": 7.263636363636364,
                "end_time": 7.345454545454545,
                "pitch": 36,
                "velocity": 64,
                "duration": 0.08181818181818112,
                "tempo": 120.0
            },
            {
                "start_time": 7.345454545454545,
                "end_time": 7.3954545454545455,
                "pitch": 36,
                "velocity": 64,
                "duration": 0.05000000000000071,
                "tempo": 120.0
            },
            {
                "start_time": 7.263636363636364,
                "end_time": 7.3954545454545455,
                "pitch": 40,
                "velocity": 64,
                "duration": 0.13181818181818183,
                "tempo": 120.0
            },
            {
                "start_time": 7.345454545454545,
                "end_time": 7.4795454545454545,
                "pitch": 24,
                "velocity": 64,
                "duration": 0.1340909090909097,
                "tempo": 120.0
            },
            {
                "start_time": 7.3954545454545455,
                "end_time": 7.4795454545454545,
                "pitch": 36,
                "velocity": 64,
                "duration": 0.084090909090909,
                "tempo": 120.0
            },
            {
                "start_time": 7.4795454545454545,
                "end_time": 7.529545454545454,
                "pitch": 36,
                "velocity": 64,
                "duration": 0.04999999999999982,
                "tempo": 120.0
            },
            {
                "start_time": 7.3954545454545455,
                "end_time": 7.529545454545454,
                "pitch": 40,
                "velocity": 64,
                "duration": 0.13409090909090882,
                "tempo": 120.0
            },
            {
                "start_time": 7.4795454545454545,
                "end_time": 7.613636363636363,
                "pitch": 24,
                "velocity": 64,
                "duration": 0.13409090909090882,
                "tempo": 120.0
            },
            {
                "start_time": 7.529545454545454,
                "end_time": 7.613636363636363,
                "pitch": 36,
                "velocity": 64,
                "duration": 0.084090909090909,
                "tempo": 120.0
            },
            {
                "start_time": 7.613636363636363,
                "end_time": 7.663636363636363,
                "pitch": 36,
                "velocity": 64,
                "duration": 0.04999999999999982,
                "tempo": 120.0
            },
            {
                "start_time": 7.529545454545454,
                "end_time": 7.663636363636363,
                "pitch": 40,
                "velocity": 64,
                "duration": 0.13409090909090882,
                "tempo": 120.0
            },
            {
                "start_time": 7.663636363636363,
                "end_time": 7.7295454545454545,
                "pitch": 36,
                "velocity": 64,
                "duration": 0.06590909090909136,
                "tempo": 120.0
            },
            {
                "start_time": 7.613636363636363,
                "end_time": 7.945454545454545,
                "pitch": 24,
                "velocity": 64,
                "duration": 0.331818181818182,
                "tempo": 120.0
            },
            {
                "start_time": 7.7295454545454545,
                "end_time": 7.945454545454545,
                "pitch": 36,
                "velocity": 64,
                "duration": 0.21590909090909083,
                "tempo": 120.0
            },
            {
                "start_time": 7.945454545454545,
                "end_time": 7.997727272727272,
                "pitch": 36,
                "velocity": 64,
                "duration": 0.052272727272726804,
                "tempo": 120.0
            },
            {
                "start_time": 7.663636363636363,
                "end_time": 7.997727272727272,
                "pitch": 40,
                "velocity": 64,
                "duration": 0.334090909090909,
                "tempo": 120.0
            },
            {
                "start_time": 7.997727272727272,
                "end_time": 8.079545454545455,
                "pitch": 36,
                "velocity": 64,
                "duration": 0.0818181818181829,
                "tempo": 120.0
            },
            {
                "start_time": 8.079545454545455,
                "end_time": 8.129545454545454,
                "pitch": 36,
                "velocity": 64,
                "duration": 0.049999999999998934,
                "tempo": 120.0
            },
            {
                "start_time": 7.997727272727272,
                "end_time": 8.129545454545454,
                "pitch": 40,
                "velocity": 64,
                "duration": 0.13181818181818183,
                "tempo": 120.0
            },
            {
                "start_time": 7.945454545454545,
                "end_time": 8.213636363636363,
                "pitch": 24,
                "velocity": 64,
                "duration": 0.26818181818181763,
                "tempo": 120.0
            },
            {
                "start_time": 8.129545454545454,
                "end_time": 8.213636363636363,
                "pitch": 36,
                "velocity": 64,
                "duration": 0.084090909090909,
                "tempo": 120.0
            },
            {
                "start_time": 8.213636363636363,
                "end_time": 8.26590909090909,
                "pitch": 36,
                "velocity": 64,
                "duration": 0.05227272727272769,
                "tempo": 120.0
            },
            {
                "start_time": 8.129545454545454,
                "end_time": 8.26590909090909,
                "pitch": 40,
                "velocity": 64,
                "duration": 0.1363636363636367,
                "tempo": 120.0
            },
            {
                "start_time": 8.213636363636363,
                "end_time": 8.352272727272727,
                "pitch": 24,
                "velocity": 64,
                "duration": 0.13863636363636367,
                "tempo": 120.0
            },
            {
                "start_time": 8.26590909090909,
                "end_time": 8.352272727272727,
                "pitch": 36,
                "velocity": 64,
                "duration": 0.08636363636363598,
                "tempo": 120.0
            },
            {
                "start_time": 8.352272727272727,
                "end_time": 8.402272727272727,
                "pitch": 36,
                "velocity": 64,
                "duration": 0.05000000000000071,
                "tempo": 120.0
            },
            {
                "start_time": 8.26590909090909,
                "end_time": 8.402272727272727,
                "pitch": 40,
                "velocity": 64,
                "duration": 0.1363636363636367,
                "tempo": 120.0
            },
            {
                "start_time": 8.352272727272727,
                "end_time": 8.488636363636363,
                "pitch": 24,
                "velocity": 64,
                "duration": 0.1363636363636367,
                "tempo": 120.0
            },
            {
                "start_time": 8.402272727272727,
                "end_time": 8.488636363636363,
                "pitch": 36,
                "velocity": 64,
                "duration": 0.08636363636363598,
                "tempo": 120.0
            },
            {
                "start_time": 8.488636363636363,
                "end_time": 8.538636363636364,
                "pitch": 36,
                "velocity": 64,
                "duration": 0.05000000000000071,
                "tempo": 120.0
            },
            {
                "start_time": 8.402272727272727,
                "end_time": 8.538636363636364,
                "pitch": 40,
                "velocity": 64,
                "duration": 0.1363636363636367,
                "tempo": 120.0
            },
            {
                "start_time": 8.538636363636364,
                "end_time": 8.59090909090909,
                "pitch": 36,
                "velocity": 64,
                "duration": 0.052272727272725916,
                "tempo": 120.0
            },
            {
                "start_time": 8.59090909090909,
                "end_time": 8.73409090909091,
                "pitch": 39,
                "velocity": 64,
                "duration": 0.1431818181818194,
                "tempo": 120.0
            },
            {
                "start_time": 8.73409090909091,
                "end_time": 8.861363636363636,
                "pitch": 51,
                "velocity": 64,
                "duration": 0.12727272727272698,
                "tempo": 120.0
            },
            {
                "start_time": 8.861363636363636,
                "end_time": 9.004545454545454,
                "pitch": 39,
                "velocity": 64,
                "duration": 0.14318181818181763,
                "tempo": 120.0
            },
            {
                "start_time": 9.004545454545454,
                "end_time": 9.156818181818181,
                "pitch": 44,
                "velocity": 64,
                "duration": 0.15227272727272734,
                "tempo": 120.0
            },
            {
                "start_time": 9.156818181818181,
                "end_time": 9.293181818181818,
                "pitch": 56,
                "velocity": 64,
                "duration": 0.1363636363636367,
                "tempo": 120.0
            },
            {
                "start_time": 9.293181818181818,
                "end_time": 9.447727272727272,
                "pitch": 44,
                "velocity": 64,
                "duration": 0.15454545454545432,
                "tempo": 120.0
            },
            {
                "start_time": 9.447727272727272,
                "end_time": 9.577272727272726,
                "pitch": 43,
                "velocity": 64,
                "duration": 0.12954545454545396,
                "tempo": 120.0
            },
            {
                "start_time": 3.245454545454545,
                "end_time": 9.725,
                "pitch": 55,
                "velocity": 64,
                "duration": 6.4795454545454545,
                "tempo": 120.0
            },
            {
                "start_time": 9.577272727272726,
                "end_time": 9.725,
                "pitch": 55,
                "velocity": 64,
                "duration": 0.14772727272727337,
                "tempo": 120.0
            },
            {
                "start_time": 9.725,
                "end_time": 9.854545454545454,
                "pitch": 43,
                "velocity": 64,
                "duration": 0.12954545454545396,
                "tempo": 120.0
            },
            {
                "start_time": 9.85681818181818,
                "end_time": 10.002272727272727,
                "pitch": 39,
                "velocity": 64,
                "duration": 0.1454545454545464,
                "tempo": 120.0
            },
            {
                "start_time": 10.002272727272727,
                "end_time": 10.15,
                "pitch": 51,
                "velocity": 64,
                "duration": 0.14772727272727337,
                "tempo": 120.0
            },
            {
                "start_time": 10.15,
                "end_time": 10.279545454545454,
                "pitch": 39,
                "velocity": 64,
                "duration": 0.12954545454545396,
                "tempo": 120.0
            },
            {
                "start_time": 10.281818181818181,
                "end_time": 10.497727272727273,
                "pitch": 36,
                "velocity": 64,
                "duration": 0.21590909090909172,
                "tempo": 120.0
            },
            {
                "start_time": 10.497727272727273,
                "end_time": 10.547727272727272,
                "pitch": 36,
                "velocity": 64,
                "duration": 0.049999999999998934,
                "tempo": 120.0
            },
            {
                "start_time": 8.538636363636364,
                "end_time": 10.547727272727272,
                "pitch": 40,
                "velocity": 64,
                "duration": 2.009090909090908,
                "tempo": 120.0
            },
            {
                "start_time": 10.547727272727272,
                "end_time": 10.631818181818181,
                "pitch": 36,
                "velocity": 64,
                "duration": 0.084090909090909,
                "tempo": 120.0
            },
            {
                "start_time": 10.631818181818181,
                "end_time": 10.681818181818182,
                "pitch": 36,
                "velocity": 64,
                "duration": 0.05000000000000071,
                "tempo": 120.0
            },
            {
                "start_time": 10.547727272727272,
                "end_time": 10.681818181818182,
                "pitch": 40,
                "velocity": 64,
                "duration": 0.1340909090909097,
                "tempo": 120.0
            },
            {
                "start_time": 10.681818181818182,
                "end_time": 10.76590909090909,
                "pitch": 36,
                "velocity": 64,
                "duration": 0.084090909090909,
                "tempo": 120.0
            },
            {
                "start_time": 10.76590909090909,
                "end_time": 10.81590909090909,
                "pitch": 36,
                "velocity": 64,
                "duration": 0.049999999999998934,
                "tempo": 120.0
            },
            {
                "start_time": 10.681818181818182,
                "end_time": 10.81590909090909,
                "pitch": 40,
                "velocity": 64,
                "duration": 0.13409090909090793,
                "tempo": 120.0
            },
            {
                "start_time": 10.81590909090909,
                "end_time": 10.902272727272727,
                "pitch": 36,
                "velocity": 64,
                "duration": 0.08636363636363775,
                "tempo": 120.0
            },
            {
                "start_time": 10.902272727272727,
                "end_time": 10.954545454545453,
                "pitch": 36,
                "velocity": 64,
                "duration": 0.052272727272725916,
                "tempo": 120.0
            },
            {
                "start_time": 10.81590909090909,
                "end_time": 10.954545454545453,
                "pitch": 40,
                "velocity": 64,
                "duration": 0.13863636363636367,
                "tempo": 120.0
            },
            {
                "start_time": 10.954545454545453,
                "end_time": 11.038636363636362,
                "pitch": 36,
                "velocity": 64,
                "duration": 0.084090909090909,
                "tempo": 120.0
            },
            {
                "start_time": 11.038636363636362,
                "end_time": 11.09090909090909,
                "pitch": 36,
                "velocity": 64,
                "duration": 0.05227272727272769,
                "tempo": 120.0
            },
            {
                "start_time": 10.954545454545453,
                "end_time": 11.09090909090909,
                "pitch": 40,
                "velocity": 64,
                "duration": 0.1363636363636367,
                "tempo": 120.0
            },
            {
                "start_time": 11.09090909090909,
                "end_time": 11.159090909090908,
                "pitch": 36,
                "velocity": 64,
                "duration": 0.06818181818181834,
                "tempo": 120.0
            },
            {
                "start_time": 8.488636363636363,
                "end_time": 11.375,
                "pitch": 24,
                "velocity": 64,
                "duration": 2.8863636363636367,
                "tempo": 120.0
            },
            {
                "start_time": 11.159090909090908,
                "end_time": 11.375,
                "pitch": 36,
                "velocity": 64,
                "duration": 0.21590909090909172,
                "tempo": 120.0
            },
            {
                "start_time": 11.375,
                "end_time": 11.424999999999999,
                "pitch": 36,
                "velocity": 64,
                "duration": 0.049999999999998934,
                "tempo": 120.0
            },
            {
                "start_time": 11.424999999999999,
                "end_time": 11.509090909090908,
                "pitch": 36,
                "velocity": 64,
                "duration": 0.084090909090909,
                "tempo": 120.0
            },
            {
                "start_time": 11.509090909090908,
                "end_time": 11.559090909090909,
                "pitch": 36,
                "velocity": 64,
                "duration": 0.05000000000000071,
                "tempo": 120.0
            },
            {
                "start_time": 11.09090909090909,
                "end_time": 11.559090909090909,
                "pitch": 40,
                "velocity": 64,
                "duration": 0.4681818181818187,
                "tempo": 120.0
            },
            {
                "start_time": 11.375,
                "end_time": 11.64090909090909,
                "pitch": 24,
                "velocity": 64,
                "duration": 0.26590909090909065,
                "tempo": 120.0
            },
            {
                "start_time": 11.559090909090909,
                "end_time": 11.64090909090909,
                "pitch": 36,
                "velocity": 64,
                "duration": 0.08181818181818201,
                "tempo": 120.0
            },
            {
                "start_time": 11.64090909090909,
                "end_time": 11.69090909090909,
                "pitch": 36,
                "velocity": 64,
                "duration": 0.049999999999998934,
                "tempo": 120.0
            },
            {
                "start_time": 11.559090909090909,
                "end_time": 11.69090909090909,
                "pitch": 40,
                "velocity": 64,
                "duration": 0.13181818181818095,
                "tempo": 120.0
            },
            {
                "start_time": 11.64090909090909,
                "end_time": 11.772727272727272,
                "pitch": 24,
                "velocity": 64,
                "duration": 0.13181818181818095,
                "tempo": 120.0
            },
            {
                "start_time": 11.69090909090909,
                "end_time": 11.772727272727272,
                "pitch": 36,
                "velocity": 64,
                "duration": 0.08181818181818201,
                "tempo": 120.0
            },
            {
                "start_time": 11.772727272727272,
                "end_time": 11.820454545454545,
                "pitch": 36,
                "velocity": 64,
                "duration": 0.04772727272727373,
                "tempo": 120.0
            },
            {
                "start_time": 11.69090909090909,
                "end_time": 11.820454545454545,
                "pitch": 40,
                "velocity": 64,
                "duration": 0.12954545454545574,
                "tempo": 120.0
            },
            {
                "start_time": 11.820454545454545,
                "end_time": 11.902272727272727,
                "pitch": 36,
                "velocity": 64,
                "duration": 0.08181818181818201,
                "tempo": 120.0
            },
            {
                "start_time": 11.902272727272727,
                "end_time": 11.952272727272726,
                "pitch": 36,
                "velocity": 64,
                "duration": 0.049999999999998934,
                "tempo": 120.0
            },
            {
                "start_time": 11.820454545454545,
                "end_time": 11.952272727272726,
                "pitch": 40,
                "velocity": 64,
                "duration": 0.13181818181818095,
                "tempo": 120.0
            },
            {
                "start_time": 11.952272727272726,
                "end_time": 12.002272727272727,
                "pitch": 36,
                "velocity": 64,
                "duration": 0.05000000000000071,
                "tempo": 120.0
            },
            {
                "start_time": 12.002272727272727,
                "end_time": 12.152272727272727,
                "pitch": 39,
                "velocity": 64,
                "duration": 0.15000000000000036,
                "tempo": 120.0
            },
            {
                "start_time": 12.152272727272727,
                "end_time": 12.284090909090908,
                "pitch": 51,
                "velocity": 64,
                "duration": 0.13181818181818095,
                "tempo": 120.0
            },
            {
                "start_time": 12.286363636363635,
                "end_time": 12.436363636363636,
                "pitch": 39,
                "velocity": 64,
                "duration": 0.15000000000000036,
                "tempo": 120.0
            },
            {
                "start_time": 12.436363636363636,
                "end_time": 12.568181818181818,
                "pitch": 44,
                "velocity": 64,
                "duration": 0.13181818181818272,
                "tempo": 120.0
            },
            {
                "start_time": 12.570454545454545,
                "end_time": 12.718181818181817,
                "pitch": 56,
                "velocity": 64,
                "duration": 0.1477272727272716,
                "tempo": 120.0
            },
            {
                "start_time": 12.720454545454546,
                "end_time": 12.852272727272727,
                "pitch": 44,
                "velocity": 64,
                "duration": 0.13181818181818095,
                "tempo": 120.0
            },
            {
                "start_time": 12.854545454545454,
                "end_time": 13.0,
                "pitch": 38,
                "velocity": 64,
                "duration": 0.1454545454545464,
                "tempo": 120.0
            },
            {
                "start_time": 13.0,
                "end_time": 13.147727272727272,
                "pitch": 50,
                "velocity": 64,
                "duration": 0.1477272727272716,
                "tempo": 120.0
            },
            {
                "start_time": 13.147727272727272,
                "end_time": 13.277272727272727,
                "pitch": 38,
                "velocity": 64,
                "duration": 0.12954545454545574,
                "tempo": 120.0
            },
            {
                "start_time": 13.279545454545454,
                "end_time": 13.427272727272726,
                "pitch": 43,
                "velocity": 64,
                "duration": 0.1477272727272716,
                "tempo": 120.0
            },
            {
                "start_time": 13.429545454545455,
                "end_time": 13.561363636363636,
                "pitch": 55,
                "velocity": 64,
                "duration": 0.13181818181818095,
                "tempo": 120.0
            },
            {
                "start_time": 13.563636363636363,
                "end_time": 13.711363636363636,
                "pitch": 43,
                "velocity": 64,
                "duration": 0.14772727272727337,
                "tempo": 120.0
            }
        ]
    }
}