{
    "track_id": "04 Sample 4",
    "mood": "angry",
    "instruments": {
        "Electric Guitar (clean)": [
            {
                "start_time": 0.15,
                "end_time": 0.2636363636363636,
                "pitch": 33,
                "velocity": 51,
                "duration": 0.11363636363636362,
                "tempo": 120.0
            },
            {
                "start_time": 0.3818181818181818,
                "end_time": 0.4977272727272727,
                "pitch": 33,
                "velocity": 51,
                "duration": 0.1159090909090909,
                "tempo": 120.0
            },
            {
                "start_time": 0.6159090909090909,
                "end_time": 0.734090909090909,
                "pitch": 33,
                "velocity": 51,
                "duration": 0.11818181818181817,
                "tempo": 120.0
            },
            {
                "start_time": 0.8545454545454545,
                "end_time": 0.9727272727272727,
                "pitch": 33,
                "velocity": 51,
                "duration": 0.11818181818181817,
                "tempo": 120.0
            },
            {
                "start_time": 1.093181818181818,
                "end_time": 1.2045454545454546,
                "pitch": 33,
                "velocity": 51,
                "duration": 0.11136363636363655,
                "tempo": 120.0
            },
            {
                "start_time": 1.3227272727272728,
                "end_time": 1.434090909090909,
                "pitch": 33,
                "velocity": 51,
                "duration": 0.11136363636363633,
                "tempo": 120.0
            },
            {
                "start_time": 1.5499999999999998,
                "end_time": 1.6659090909090908,
                "pitch": 33,
                "velocity": 51,
                "duration": 0.11590909090909096,
                "tempo": 120.0
            },
            {
                "start_time": 1.7863636363636364,
                "end_time": 1.9,
                "pitch": 33,
                "velocity": 51,
                "duration": 0.11363636363636354,
                "tempo": 120.0
            },
            {
                "start_time": 2.0204545454545455,
                "end_time": 2.1363636363636362,
                "pitch": 33,
                "velocity": 51,
                "duration": 0.11590909090909074,
                "tempo": 120.0
            },
            {
                "start_time": 2.252272727272727,
                "end_time": 2.370454545454545,
                "pitch": 33,
                "velocity": 51,
                "duration": 0.11818181818181817,
                "tempo": 120.0
            },
            {
                "start_time": 2.4886363636363633,
                "end_time": 2.602272727272727,
                "pitch": 33,
                "velocity": 51,
                "duration": 0.11363636363636376,
                "tempo": 120.0
            },
            {
                "start_time": 2.7181818181818183,
                "end_time": 2.8318181818181816,
                "pitch": 33,
                "velocity": 51,
                "duration": 0.11363636363636331,
                "tempo": 120.0
            },
            {
                "start_time": 2.9477272727272728,
                "end_time": 3.061363636363636,
                "pitch": 33,
                "velocity": 51,
                "duration": 0.11363636363636331,
                "tempo": 120.0
            },
            {
                "start_time": 3.1818181818181817,
                "end_time": 3.2977272727272724,
                "pitch": 33,
                "velocity": 51,
                "duration": 0.11590909090909074,
                "tempo": 120.0
            },
            {
                "start_time": 3.418181818181818,
                "end_time": 3.5318181818181817,
                "pitch": 33,
                "velocity": 51,
                "duration": 0.11363636363636376,
                "tempo": 120.0
            },
            {
                "start_time": 3.652272727272727,
                "end_time": 3.768181818181818,
                "pitch": 33,
                "velocity": 51,
                "duration": 0.11590909090909118,
                "tempo": 120.0
            },
            {
                "start_time": 3.8863636363636362,
                "end_time": 3.9977272727272726,
                "pitch": 34,
                "velocity": 51,
                "duration": 0.11136363636363633,
                "tempo": 120.0
            },
            {
                "start_time": 4.113636363636363,
                "end_time": 4.227272727272727,
                "pitch": 34,
                "velocity": 51,
                "duration": 0.11363636363636331,
                "tempo": 120.0
            },
            {
                "start_time": 4.343181818181818,
                "end_time": 4.459090909090909,
                "pitch": 34,
                "velocity": 51,
                "duration": 0.11590909090909118,
                "tempo": 120.0
            },
            {
                "start_time": 4.579545454545454,
                "end_time": 4.695454545454545,
                "pitch": 34,
                "velocity": 51,
                "duration": 0.11590909090909118,
                "tempo": 120.0
            },
            {
                "start_time": 4.8136363636363635,
                "end_time": 4.929545454545455,
                "pitch": 34,
                "velocity": 51,
                "duration": 0.11590909090909118,
                "tempo": 120.0
            },
            {
                "start_time": 5.047727272727273,
                "end_time": 5.163636363636363,
                "pitch": 34,
                "velocity": 51,
                "duration": 0.1159090909090903,
                "tempo": 120.0
            },
            {
                "start_time": 5.281818181818181,
                "end_time": 5.3954545454545455,
                "pitch": 34,
                "velocity": 51,
                "duration": 0.1136363636363642,
                "tempo": 120.0
            },
            {
                "start_time": 5.511363636363636,
                "end_time": 5.622727272727272,
                "pitch": 34,
                "velocity": 51,
                "duration": 0.11136363636363633,
                "tempo": 120.0
            },
            {
                "start_time": 5.74090909090909,
                "end_time": 5.8545454545454545,
                "pitch": 34,
                "velocity": 51,
                "duration": 0.1136363636363642,
                "tempo": 120.0
            },
            {
                "start_time": 5.972727272727273,
                "end_time": 6.090909090909091,
                "pitch": 34,
                "velocity": 51,
                "duration": 0.11818181818181817,
                "tempo": 120.0
            },
            {
                "start_time": 6.209090909090909,
                "end_time": 6.324999999999999,
                "pitch": 34,
                "velocity": 51,
                "duration": 0.1159090909090903,
                "tempo": 120.0
            },
            {
                "start_time": 6.445454545454545,
                "end_time": 6.561363636363636,
                "pitch": 34,
                "velocity": 51,
                "duration": 0.1159090909090903,
                "tempo": 120.0
            },
            {
                "start_time": 6.679545454545454,
                "end_time": 6.790909090909091,
                "pitch": 34,
                "velocity": 51,
                "duration": 0.11136363636363722,
                "tempo": 120.0
            },
            {
                "start_time": 6.906818181818181,
                "end_time": 7.0204545454545455,
                "pitch": 34,
                "velocity": 51,
                "duration": 0.1136363636363642,
                "tempo": 120.0
            },
            {
                "start_time": 7.136363636363636,
                "end_time": 7.252272727272727,
                "pitch": 34,
                "velocity": 51,
                "duration": 0.11590909090909118,
                "tempo": 120.0
            },
            {
                "start_time": 7.370454545454545,
                "end_time": 7.486363636363636,
                "pitch": 34,
                "velocity": 51,
                "duration": 0.11590909090909118,
                "tempo": 120.0
            },
            {
                "start_time": 7.6068181818181815,
                "end_time": 7.720454545454545,
                "pitch": 33,
                "velocity": 51,
                "duration": 0.11363636363636331,
                "tempo": 120.0
            },
            {
                "start_time": 7.838636363636363,
                "end_time": 7.954545454545454,
                "pitch": 33,
                "velocity": 51,
                "duration": 0.11590909090909118,
                "tempo": 120.0
            },
            {
                "start_time": 8.072727272727272,
                "end_time": 8.188636363636363,
                "pitch": 33,
                "velocity": 51,
                "duration": 0.1159090909090903,
                "tempo": 120.0
            },
            {
                "start_time": 8.309090909090909,
                "end_time": 8.424999999999999,
                "pitch": 33,
                "velocity": 51,
                "duration": 0.1159090909090903,
                "tempo": 120.0
            },
            {
                "start_time": 8.543181818181818,
                "end_time": 8.654545454545454,
                "pitch": 33,
                "velocity": 51,
                "duration": 0.11136363636363633,
                "tempo": 120.0
            },
            {
                "start_time": 8.772727272727272,
                "end_time": 8.884090909090908,
                "pitch": 33,
                "velocity": 51,
                "duration": 0.11136363636363633,
                "tempo": 120.0
            },
            {
                "start_time": 9.0,
                "end_time": 9.11590909090909,
                "pitch": 33,
                "velocity": 51,
                "duration": 0.1159090909090903,
                "tempo": 120.0
            },
            {
                "start_time": 9.236363636363636,
                "end_time": 9.35,
                "pitch": 33,
                "velocity": 51,
                "duration": 0.11363636363636331,
                "tempo": 120.0
            },
            {
                "start_time": 9.470454545454546,
                "end_time": 9.581818181818182,
                "pitch": 33,
                "velocity": 51,
                "duration": 0.11136363636363633,
                "tempo": 120.0
            },
            {
                "start_time": 9.697727272727272,
                "end_time": 9.811363636363636,
                "pitch": 33,
                "velocity": 51,
                "duration": 0.11363636363636331,
                "tempo": 120.0
            },
            {
                "start_time": 9.927272727272726,
                "end_time": 10.043181818181818,
                "pitch": 33,
                "velocity": 51,
                "duration": 0.11590909090909207,
                "tempo": 120.0
            },
            {
                "start_time": 10.163636363636364,
                "end_time": 10.279545454545454,
                "pitch": 33,
                "velocity": 51,
                "duration": 0.1159090909090903,
                "tempo": 120.0
            },
            {
                "start_time": 10.397727272727272,
                "end_time": 10.511363636363637,
                "pitch": 33,
                "velocity": 51,
                "duration": 0.11363636363636509,
                "tempo": 120.0
            },
            {
                "start_time": 10.631818181818181,
                "end_time": 10.747727272727273,
                "pitch": 33,
                "velocity": 51,
                "duration": 0.11590909090909207,
                "tempo": 120.0
            },
            {
                "start_time": 10.868181818181817,
                "end_time": 10.979545454545454,
                "pitch": 33,
                "velocity": 51,
                "duration": 0.11136363636363633,
                "tempo": 120.0
            },
            {
                "start_time": 11.095454545454546,
                "end_time": 11.209090909090909,
                "pitch": 33,
                "velocity": 51,
                "duration": 0.11363636363636331,
                "tempo": 120.0
            },
            {
                "start_time": 11.325,
                "end_time": 11.44090909090909,
                "pitch": 34,
                "velocity": 51,
                "duration": 0.1159090909090903,
                "tempo": 120.0
            },
            {
                "start_time": 11.559090909090909,
                "end_time": 11.674999999999999,
                "pitch": 34,
                "velocity": 51,
                "duration": 0.1159090909090903,
                "tempo": 120.0
            },
            {
                "start_time": 11.793181818181818,
                "end_time": 11.909090909090908,
                "pitch": 34,
                "velocity": 51,
                "duration": 0.1159090909090903,
                "tempo": 120.0
            },
            {
                "start_time": 12.029545454545454,
                "end_time": 12.145454545454545,
                "pitch": 34,
                "velocity": 51,
                "duration": 0.1159090909090903,
                "tempo": 120.0
            },
            {
                "start_time": 12.263636363636364,
                "end_time": 12.375,
                "pitch": 34,
                "velocity": 51,
                "duration": 0.11136363636363633,
                "tempo": 120.0
            },
            {
                "start_time": 12.493181818181817,
                "end_time": 12.604545454545454,
                "pitch": 34,
                "velocity": 51,
                "duration": 0.11136363636363633,
                "tempo": 120.0
            },
            {
                "start_time": 12.720454545454546,
                "end_time": 12.836363636363636,
                "pitch": 34,
                "velocity": 51,
                "duration": 0.1159090909090903,
                "tempo": 120.0
            },
            {
                "start_time": 12.956818181818182,
                "end_time": 13.070454545454545,
                "pitch": 34,
                "velocity": 51,
                "duration": 0.11363636363636331,
                "tempo": 120.0
            },
            {
                "start_time": 13.19090909090909,
                "end_time": 13.304545454545455,
                "pitch": 34,
                "velocity": 51,
                "duration": 0.11363636363636509,
                "tempo": 120.0
            },
            {
                "start_time": 13.422727272727272,
                "end_time": 13.540909090909091,
                "pitch": 34,
                "velocity": 51,
                "duration": 0.11818181818181905,
                "tempo": 120.0
            },
            {
                "start_time": 13.659090909090908,
                "end_time": 13.770454545454545,
                "pitch": 34,
                "velocity": 51,
                "duration": 0.11136363636363633,
                "tempo": 120.0
            },
            {
                "start_time": 13.888636363636364,
                "end_time": 14.002272727272727,
                "pitch": 34,
                "velocity": 51,
                "duration": 0.11363636363636331,
                "tempo": 120.0
            },
            {
                "start_time": 14.118181818181817,
                "end_time": 14.23181818181818,
                "pitch": 34,
                "velocity": 51,
                "duration": 0.11363636363636331,
                "tempo": 120.0
            },
            {
                "start_time": 14.352272727272727,
                "end_time": 14.46590909090909,
                "pitch": 34,
                "velocity": 51,
                "duration": 0.11363636363636331,
                "tempo": 120.0
            },
            {
                "start_time": 14.586363636363636,
                "end_time": 14.702272727272726,
                "pitch": 34,
                "velocity": 51,
                "duration": 0.1159090909090903,
                "tempo": 120.0
            },
            {
                "start_time": 14.820454545454545,
                "end_time": 14.936363636363636,
                "pitch": 34,
                "velocity": 51,
                "duration": 0.1159090909090903,
                "tempo": 120.0
            },
            {
                "start_time": 15.513636363636364,
                "end_time": 15.98181818181818,
                "pitch": 33,
                "velocity": 51,
                "duration": 0.4681818181818169,
                "tempo": 120.0
            },
            {
                "start_time": 16.452272727272728,
                "end_time": 16.909090909090907,
                "pitch": 33,
                "velocity": 51,
                "duration": 0.45681818181817846,
                "tempo": 120.0
            },
            {
                "start_time": 17.379545454545454,
                "end_time": 17.847727272727273,
                "pitch": 33,
                "velocity": 51,
                "duration": 0.4681818181818187,
                "tempo": 120.0
            },
            {
                "start_time": 18.30681818181818,
                "end_time": 18.775,
                "pitch": 33,
                "velocity": 51,
                "duration": 0.4681818181818187,
                "tempo": 120.0
            },
            {
                "start_time": 18.775,
                "end_time": 19.477272727272727,
                "pitch": 34,
                "velocity": 51,
                "duration": 0.702272727272728,
                "tempo": 120.0
            },
            {
                "start_time": 19.477272727272727,
                "end_time": 19.59318181818182,
                "pitch": 34,
                "velocity": 51,
                "duration": 0.11590909090909207,
                "tempo": 120.0
            },
            {
                "start_time": 19.59318181818182,
                "end_time": 19.71363636363636,
                "pitch": 34,
                "velocity": 51,
                "duration": 0.12045454545454248,
                "tempo": 120.0
            },
            {
                "start_time": 19.71363636363636,
                "end_time": 20.404545454545453,
                "pitch": 34,
                "velocity": 51,
                "duration": 0.6909090909090914,
                "tempo": 120.0
            },
            {
                "start_time": 20.404545454545453,
                "end_time": 20.520454545454545,
                "pitch": 34,
                "velocity": 51,
                "duration": 0.11590909090909207,
                "tempo": 120.0
            },
            {
                "start_time": 20.520454545454545,
                "end_time": 20.64090909090909,
                "pitch": 34,
                "velocity": 51,
                "duration": 0.12045454545454604,
                "tempo": 120.0
            },
            {
                "start_time": 20.64090909090909,
                "end_time": 21.331818181818182,
                "pitch": 34,
                "velocity": 51,
                "duration": 0.6909090909090914,
                "tempo": 120.0
            },
            {
                "start_time": 21.334090909090907,
                "end_time": 21.44772727272727,
                "pitch": 33,
                "velocity": 51,
                "duration": 0.11363636363636331,
                "tempo": 120.0
            },
            {
                "start_time": 21.44772727272727,
                "end_time": 21.568181818181817,
                "pitch": 33,
                "velocity": 51,
                "duration": 0.12045454545454604,
                "tempo": 120.0
            },
            {
                "start_time": 21.568181818181817,
                "end_time": 22.036363636363635,
                "pitch": 34,
                "velocity": 51,
                "duration": 0.4681818181818187,
                "tempo": 120.0
            },
            {
                "start_time": 22.036363636363635,
                "end_time": 22.495454545454546,
                "pitch": 36,
                "velocity": 51,
                "duration": 0.45909090909091077,
                "tempo": 120.0
            },
            {
                "start_time": 22.96363636363636,
                "end_time": 23.43181818181818,
                "pitch": 33,
                "velocity": 51,
                "duration": 0.4681818181818187,
                "tempo": 120.0
            },
            {
                "start_time": 23.89090909090909,
                "end_time": 24.35909090909091,
                "pitch": 33,
                "velocity": 51,
                "duration": 0.4681818181818187,
                "tempo": 120.0
            },
            {
                "start_time": 24.818181818181817,
                "end_time": 25.286363636363635,
                "pitch": 33,
                "velocity": 51,
                "duration": 0.4681818181818187,
                "tempo": 120.0
            },
            {
                "start_time": 25.75681818181818,
                "end_time": 26.224999999999998,
                "pitch": 33,
                "velocity": 51,
                "duration": 0.4681818181818187,
                "tempo": 120.0
            },
            {
                "start_time": 26.224999999999998,
                "end_time": 26.91590909090909,
                "pitch": 34,
                "velocity": 51,
                "duration": 0.6909090909090914,
                "tempo": 120.0
            },
            {
                "start_time": 26.918181818181818,
                "end_time": 27.03181818181818,
                "pitch": 34,
                "velocity": 51,
                "duration": 0.11363636363636331,
                "tempo": 120.0
            },
            {
                "start_time": 27.03181818181818,
                "end_time": 27.152272727272727,
                "pitch": 34,
                "velocity": 51,
                "duration": 0.12045454545454604,
                "tempo": 120.0
            },
            {
                "start_time": 27.152272727272727,
                "end_time": 27.849999999999998,
                "pitch": 34,
                "velocity": 51,
                "duration": 0.6977272727272705,
                "tempo": 120.0
            },
            {
                "start_time": 27.849999999999998,
                "end_time": 27.961363636363636,
                "pitch": 34,
                "velocity": 51,
                "duration": 0.11136363636363811,
                "tempo": 120.0
            },
            {
                "start_time": 27.961363636363636,
                "end_time": 28.079545454545453,
                "pitch": 34,
                "velocity": 51,
                "duration": 0.11818181818181728,
                "tempo": 120.0
            },
            {
                "start_time": 28.079545454545453,
                "end_time": 28.78181818181818,
                "pitch": 34,
                "velocity": 51,
                "duration": 0.702272727272728,
                "tempo": 120.0
            },
            {
                "start_time": 28.78181818181818,
                "end_time": 28.89772727272727,
                "pitch": 33,
                "velocity": 51,
                "duration": 0.11590909090908852,
                "tempo": 120.0
            },
            {
                "start_time": 28.89772727272727,
                "end_time": 29.01590909090909,
                "pitch": 33,
                "velocity": 51,
                "duration": 0.11818181818182083,
                "tempo": 120.0
            },
            {
                "start_time": 29.018181818181816,
                "end_time": 29.474999999999998,
                "pitch": 34,
                "velocity": 51,
                "duration": 0.456818181818182,
                "tempo": 120.0
            },
            {
                "start_time": 29.474999999999998,
                "end_time": 29.945454545454545,
                "pitch": 36,
                "velocity": 51,
                "duration": 0.47045454545454746,
                "tempo": 120.0
            },
            {
                "start_time": 29.945454545454545,
                "end_time": 30.05909090909091,
                "pitch": 33,
                "velocity": 51,
                "duration": 0.11363636363636331,
                "tempo": 120.0
            },
            {
                "start_time": 30.411363636363635,
                "end_time": 30.459090909090907,
                "pitch": 33,
                "velocity": 51,
                "duration": 0.04772727272727195,
                "tempo": 120.0
            },
            {
                "start_time": 30.527272727272727,
                "end_time": 30.575,
                "pitch": 33,
                "velocity": 51,
                "duration": 0.04772727272727195,
                "tempo": 120.0
            },
            {
                "start_time": 30.64090909090909,
                "end_time": 30.688636363636363,
                "pitch": 33,
                "velocity": 51,
                "duration": 0.04772727272727195,
                "tempo": 120.0
            },
            {
                "start_time": 30.75681818181818,
                "end_time": 30.802272727272726,
                "pitch": 33,
                "velocity": 51,
                "duration": 0.045454545454546746,
                "tempo": 120.0
            },
            {
                "start_time": 30.870454545454542,
                "end_time": 30.986363636363635,
                "pitch": 33,
                "velocity": 51,
                "duration": 0.11590909090909207,
                "tempo": 120.0
            },
            {
                "start_time": 31.33863636363636,
                "end_time": 31.388636363636362,
                "pitch": 33,
                "velocity": 51,
                "duration": 0.05000000000000071,
                "tempo": 120.0
            },
            {
                "start_time": 31.456818181818182,
                "end_time": 31.504545454545454,
                "pitch": 33,
                "velocity": 51,
                "duration": 0.04772727272727195,
                "tempo": 120.0
            },
            {
                "start_time": 31.57272727272727,
                "end_time": 31.62272727272727,
                "pitch": 33,
                "velocity": 51,
                "duration": 0.05000000000000071,
                "tempo": 120.0
            },
            {
                "start_time": 31.690909090909088,
                "end_time": 31.738636363636363,
                "pitch": 33,
                "velocity": 51,
                "duration": 0.047727272727275505,
                "tempo": 120.0
            },
            {
                "start_time": 31.80909090909091,
                "end_time": 31.920454545454543,
                "pitch": 34,
                "velocity": 51,
                "duration": 0.11136363636363455,
                "tempo": 120.0
            },
            {
                "start_time": 32.26590909090909,
                "end_time": 32.31590909090909,
                "pitch": 34,
                "velocity": 51,
                "duration": 0.04999999999999716,
                "tempo": 120.0
            },
            {
                "start_time": 32.38409090909091,
                "end_time": 32.43181818181818,
                "pitch": 34,
                "velocity": 51,
                "duration": 0.04772727272727195,
                "tempo": 120.0
            },
            {
                "start_time": 32.502272727272725,
                "end_time": 32.55,
                "pitch": 34,
                "velocity": 51,
                "duration": 0.04772727272727195,
                "tempo": 120.0
            },
            {
                "start_time": 32.61818181818182,
                "end_time": 32.66590909090909,
                "pitch": 34,
                "velocity": 51,
                "duration": 0.04772727272727195,
                "tempo": 120.0
            },
            {
                "start_time": 32.736363636363635,
                "end_time": 32.85,
                "pitch": 34,
                "velocity": 51,
                "duration": 0.11363636363636687,
                "tempo": 120.0
            },
            {
                "start_time": 33.20454545454545,
                "end_time": 33.252272727272725,
                "pitch": 34,
                "velocity": 51,
                "duration": 0.04772727272727195,
                "tempo": 120.0
            },
            {
                "start_time": 33.31818181818181,
                "end_time": 33.36590909090909,
                "pitch": 34,
                "velocity": 51,
                "duration": 0.04772727272727906,
                "tempo": 120.0
            },
            {
                "start_time": 33.434090909090905,
                "end_time": 33.48181818181818,
                "pitch": 34,
                "velocity": 51,
                "duration": 0.04772727272727195,
                "tempo": 120.0
            },
            {
                "start_time": 33.54772727272727,
                "end_time": 33.595454545454544,
                "pitch": 34,
                "velocity": 51,
                "duration": 0.04772727272727195,
                "tempo": 120.0
            },
            {
                "start_time": 33.663636363636364,
                "end_time": 33.777272727272724,
                "pitch": 33,
                "velocity": 51,
                "duration": 0.11363636363635976,
                "tempo": 120.0
            },
            {
                "start_time": 34.13181818181818,
                "end_time": 34.179545454545455,
                "pitch": 33,
                "velocity": 51,
                "duration": 0.04772727272727195,
                "tempo": 120.0
            },
            {
                "start_time": 34.25,
                "end_time": 34.29772727272727,
                "pitch": 33,
                "velocity": 51,
                "duration": 0.04772727272727195,
                "tempo": 120.0
            },
            {
                "start_time": 34.36590909090909,
                "end_time": 34.413636363636364,
                "pitch": 33,
                "velocity": 51,
                "duration": 0.04772727272727195,
                "tempo": 120.0
            },
            {
                "start_time": 34.48409090909091,
                "end_time": 34.53181818181818,
                "pitch": 33,
                "velocity": 51,
                "duration": 0.04772727272727195,
                "tempo": 120.0
            },
            {
                "start_time": 34.6,
                "end_time": 34.71363636363636,
                "pitch": 33,
                "velocity": 51,
                "duration": 0.11363636363635976,
                "tempo": 120.0
            },
            {
                "start_time": 35.059090909090905,
                "end_time": 35.10681818181818,
                "pitch": 33,
                "velocity": 51,
                "duration": 0.04772727272727195,
                "tempo": 120.0
            },
            {
                "start_time": 35.175,
                "end_time": 35.225,
                "pitch": 33,
                "velocity": 51,
                "duration": 0.05000000000000426,
                "tempo": 120.0
            },
            {
                "start_time": 35.293181818181814,
                "end_time": 35.340909090909086,
                "pitch": 33,
                "velocity": 51,
                "duration": 0.04772727272727195,
                "tempo": 120.0
            },
            {
                "start_time": 35.41136363636363,
                "end_time": 35.45909090909091,
                "pitch": 33,
                "velocity": 51,
                "duration": 0.04772727272727906,
                "tempo": 120.0
            },
            {
                "start_time": 35.529545454545456,
                "end_time": 35.643181818181816,
                "pitch": 34,
                "velocity": 51,
                "duration": 0.11363636363635976,
                "tempo": 120.0
            },
            {
                "start_time": 35.99772727272727,
                "end_time": 36.043181818181814,
                "pitch": 34,
                "velocity": 51,
                "duration": 0.045454545454546746,
                "tempo": 120.0
            },
            {
                "start_time": 36.111363636363635,
                "end_time": 36.15909090909091,
                "pitch": 34,
                "velocity": 51,
                "duration": 0.04772727272727195,
                "tempo": 120.0
            },
            {
                "start_time": 36.225,
                "end_time": 36.27272727272727,
                "pitch": 34,
                "velocity": 51,
                "duration": 0.04772727272727195,
                "tempo": 120.0
            },
            {
                "start_time": 36.340909090909086,
                "end_time": 36.38863636363636,
                "pitch": 34,
                "velocity": 51,
                "duration": 0.04772727272727195,
                "tempo": 120.0
            },
            {
                "start_time": 36.45454545454545,
                "end_time": 36.570454545454545,
                "pitch": 34,
                "velocity": 51,
                "duration": 0.11590909090909207,
                "tempo": 120.0
            },
            {
                "start_time": 36.925,
                "end_time": 36.970454545454544,
                "pitch": 34,
                "velocity": 51,
                "duration": 0.045454545454546746,
                "tempo": 120.0
            },
            {
                "start_time": 37.038636363636364,
                "end_time": 37.086363636363636,
                "pitch": 34,
                "velocity": 51,
                "duration": 0.04772727272727195,
                "tempo": 120.0
            },
            {
                "start_time": 37.152272727272724,
                "end_time": 37.199999999999996,
                "pitch": 34,
                "velocity": 51,
                "duration": 0.04772727272727195,
                "tempo": 120.0
            },
            {
                "start_time": 37.268181818181816,
                "end_time": 37.31363636363636,
                "pitch": 34,
                "velocity": 51,
                "duration": 0.045454545454546746,
                "tempo": 120.0
            },
            {
                "start_time": 37.38409090909091,
                "end_time": 37.58181818181818,
                "pitch": 28,
                "velocity": 51,
                "duration": 0.19772727272727053,
                "tempo": 120.0
            },
            {
                "start_time": 37.61590909090909,
                "end_time": 37.81590909090909,
                "pitch": 28,
                "velocity": 51,
                "duration": 0.19999999999999574,
                "tempo": 120.0
            },
            {
                "start_time": 37.85,
                "end_time": 38.05,
                "pitch": 28,
                "velocity": 51,
                "duration": 0.19999999999999574,
                "tempo": 120.0
            },
            {
                "start_time": 38.086363636363636,
                "end_time": 38.28409090909091,
                "pitch": 28,
                "velocity": 51,
                "duration": 0.19772727272727053,
                "tempo": 120.0
            },
            {
                "start_time": 38.320454545454545,
                "end_time": 38.52045454545454,
                "pitch": 28,
                "velocity": 51,
                "duration": 0.19999999999999574,
                "tempo": 120.0
            },
            {
                "start_time": 38.554545454545455,
                "end_time": 38.75454545454545,
                "pitch": 28,
                "velocity": 51,
                "duration": 0.19999999999999574,
                "tempo": 120.0
            },
            {
                "start_time": 38.79090909090909,
                "end_time": 38.98409090909091,
                "pitch": 28,
                "velocity": 51,
                "duration": 0.19318181818182012,
                "tempo": 120.0
            },
            {
                "start_time": 39.018181818181816,
                "end_time": 39.21363636363636,
                "pitch": 28,
                "velocity": 51,
                "duration": 0.19545454545454533,
                "tempo": 120.0
            },
            {
                "start_time": 39.24772727272727,
                "end_time": 39.44772727272727,
                "pitch": 28,
                "velocity": 51,
                "duration": 0.20000000000000284,
                "tempo": 120.0
            },
            {
                "start_time": 39.48181818181818,
                "end_time": 39.68181818181818,
                "pitch": 28,
                "velocity": 51,
                "duration": 0.20000000000000284,
                "tempo": 120.0
            },
            {
                "start_time": 39.715909090909086,
                "end_time": 39.91590909090909,
                "pitch": 28,
                "velocity": 51,
                "duration": 0.20000000000000284,
                "tempo": 120.0
            },
            {
                "start_time": 39.95227272727273,
                "end_time": 40.15,
                "pitch": 28,
                "velocity": 51,
                "duration": 0.19772727272727053,
                "tempo": 120.0
            },
            {
                "start_time": 40.18636363636364,
                "end_time": 40.37954545454545,
                "pitch": 28,
                "velocity": 51,
                "duration": 0.19318181818181301,
                "tempo": 120.0
            },
            {
                "start_time": 40.413636363636364,
                "end_time": 40.60909090909091,
                "pitch": 28,
                "velocity": 51,
                "duration": 0.19545454545454533,
                "tempo": 120.0
            },
            {
                "start_time": 40.64545454545454,
                "end_time": 40.84318181818182,
                "pitch": 28,
                "velocity": 51,
                "duration": 0.19772727272727764,
                "tempo": 120.0
            },
            {
                "start_time": 40.877272727272725,
                "end_time": 41.07727272727273,
                "pitch": 28,
                "velocity": 51,
                "duration": 0.20000000000000284,
                "tempo": 120.0
            },
            {
                "start_time": 41.11590909090909,
                "end_time": 41.31136363636364,
                "pitch": 33,
                "velocity": 51,
                "duration": 0.19545454545454533,
                "tempo": 120.0
            },
            {
                "start_time": 41.34772727272727,
                "end_time": 41.54545454545455,
                "pitch": 33,
                "velocity": 51,
                "duration": 0.19772727272727764,
                "tempo": 120.0
            },
            {
                "start_time": 41.58181818181818,
                "end_time": 41.77954545454545,
                "pitch": 33,
                "velocity": 51,
                "duration": 0.19772727272727053,
                "tempo": 120.0
            },
            {
                "start_time": 41.81818181818181,
                "end_time": 42.01590909090909,
                "pitch": 33,
                "velocity": 51,
                "duration": 0.19772727272727764,
                "tempo": 120.0
            },
            {
                "start_time": 42.05227272727272,
                "end_time": 42.24545454545454,
                "pitch": 33,
                "velocity": 51,
                "duration": 0.19318181818182012,
                "tempo": 120.0
            },
            {
                "start_time": 42.27954545454545,
                "end_time": 42.475,
                "pitch": 33,
                "velocity": 51,
                "duration": 0.19545454545455243,
                "tempo": 120.0
            },
            {
                "start_time": 42.50909090909091,
                "end_time": 42.70681818181818,
                "pitch": 33,
                "velocity": 51,
                "duration": 0.19772727272727053,
                "tempo": 120.0
            },
            {
                "start_time": 42.74318181818182,
                "end_time": 42.94318181818181,
                "pitch": 33,
                "velocity": 51,
                "duration": 0.19999999999999574,
                "tempo": 120.0
            },
            {
                "start_time": 42.97954545454545,
                "end_time": 43.17272727272727,
                "pitch": 35,
                "velocity": 51,
                "duration": 0.19318181818182012,
                "tempo": 120.0
            },
            {
                "start_time": 43.20681818181818,
                "end_time": 43.402272727272724,
                "pitch": 35,
                "velocity": 51,
                "duration": 0.19545454545454533,
                "tempo": 120.0
            },
            {
                "start_time": 43.43636363636364,
                "end_time": 43.63409090909091,
                "pitch": 35,
                "velocity": 51,
                "duration": 0.19772727272727053,
                "tempo": 120.0
            },
            {
                "start_time": 43.67272727272727,
                "end_time": 43.87045454545454,
                "pitch": 35,
                "velocity": 51,
                "duration": 0.19772727272727053,
                "tempo": 120.0
            },
            {
                "start_time": 43.90681818181818,
                "end_time": 44.10454545454545,
                "pitch": 35,
                "velocity": 51,
                "duration": 0.19772727272727053,
                "tempo": 120.0
            },
            {
                "start_time": 44.13863636363636,
                "end_time": 44.33863636363636,
                "pitch": 35,
                "velocity": 51,
                "duration": 0.20000000000000284,
                "tempo": 120.0
            },
            {
                "start_time": 44.37272727272727,
                "end_time": 44.57272727272727,
                "pitch": 35,
                "velocity": 51,
                "duration": 0.20000000000000284,
                "tempo": 120.0
            },
            {
                "start_time": 44.60909090909091,
                "end_time": 44.80681818181818,
                "pitch": 35,
                "velocity": 51,
                "duration": 0.19772727272727053,
                "tempo": 120.0
            },
            {
                "start_time": 44.845454545454544,
                "end_time": 45.03636363636363,
                "pitch": 36,
                "velocity": 51,
                "duration": 0.1909090909090878,
                "tempo": 120.0
            },
            {
                "start_time": 45.07272727272727,
                "end_time": 45.26590909090909,
                "pitch": 36,
                "velocity": 51,
                "duration": 0.19318181818182012,
                "tempo": 120.0
            },
            {
                "start_time": 45.3,
                "end_time": 45.5,
                "pitch": 36,
                "velocity": 51,
                "duration": 0.20000000000000284,
                "tempo": 120.0
            },
            {
                "start_time": 45.53636363636363,
                "end_time": 45.73409090909091,
                "pitch": 36,
                "velocity": 51,
                "duration": 0.19772727272727764,
                "tempo": 120.0
            },
            {
                "start_time": 45.77045454545454,
                "end_time": 45.96363636363636,
                "pitch": 36,
                "velocity": 51,
                "duration": 0.19318181818182012,
                "tempo": 120.0
            },
            {
                "start_time": 45.99772727272727,
                "end_time": 46.19318181818181,
                "pitch": 36,
                "velocity": 51,
                "duration": 0.19545454545454533,
                "tempo": 120.0
            },
            {
                "start_time": 46.22727272727273,
                "end_time": 46.42727272727272,
                "pitch": 36,
                "velocity": 51,
                "duration": 0.19999999999999574,
                "tempo": 120.0
            },
            {
                "start_time": 46.461363636363636,
                "end_time": 46.66136363636363,
                "pitch": 36,
                "velocity": 51,
                "duration": 0.19999999999999574,
                "tempo": 120.0
            },
            {
                "start_time": 46.69772727272727,
                "end_time": 46.89545454545454,
                "pitch": 28,
                "velocity": 51,
                "duration": 0.19772727272727053,
                "tempo": 120.0
            },
            {
                "start_time": 46.93181818181818,
                "end_time": 47.13181818181818,
                "pitch": 28,
                "velocity": 51,
                "duration": 0.20000000000000284,
                "tempo": 120.0
            },
            {
                "start_time": 47.16590909090909,
                "end_time": 47.36590909090909,
                "pitch": 28,
                "velocity": 51,
                "duration": 0.20000000000000284,
                "tempo": 120.0
            },
            {
                "start_time": 47.4,
                "end_time": 47.599999999999994,
                "pitch": 28,
                "velocity": 51,
                "duration": 0.19999999999999574,
                "tempo": 120.0
            },
            {
                "start_time": 47.63636363636363,
                "end_time": 47.82954545454545,
                "pitch": 28,
                "velocity": 51,
                "duration": 0.19318181818182012,
                "tempo": 120.0
            },
            {
                "start_time": 47.86363636363636,
                "end_time": 48.059090909090905,
                "pitch": 28,
                "velocity": 51,
                "duration": 0.19545454545454533,
                "tempo": 120.0
            },
            {
                "start_time": 48.09318181818182,
                "end_time": 48.293181818181814,
                "pitch": 28,
                "velocity": 51,
                "duration": 0.19999999999999574,
                "tempo": 120.0
            },
            {
                "start_time": 48.32727272727273,
                "end_time": 48.527272727272724,
                "pitch": 28,
                "velocity": 51,
                "duration": 0.19999999999999574,
                "tempo": 120.0
            },
            {
                "start_time": 48.56363636363636,
                "end_time": 50.41590909090909,
                "pitch": 33,
                "velocity": 51,
                "duration": 1.8522727272727266,
                "tempo": 120.0
            }
        ],
        "Violin": [
            {
                "start_time": 0.1477272727272727,
                "end_time": 1.0909090909090908,
                "pitch": 81,
                "velocity": 127,
                "duration": 0.9431818181818181,
                "tempo": 120.0
            },
            {
                "start_time": 1.0909090909090908,
                "end_time": 2.018181818181818,
                "pitch": 79,
                "velocity": 127,
                "duration": 0.9272727272727272,
                "tempo": 120.0
            },
            {
                "start_time": 2.018181818181818,
                "end_time": 3.4136363636363636,
                "pitch": 77,
                "velocity": 127,
                "duration": 1.3954545454545455,
                "tempo": 120.0
            },
            {
                "start_time": 3.4136363636363636,
                "end_time": 3.6477272727272725,
                "pitch": 76,
                "velocity": 127,
                "duration": 0.2340909090909089,
                "tempo": 120.0
            },
            {
                "start_time": 3.7659090909090907,
                "end_time": 3.884090909090909,
                "pitch": 77,
                "velocity": 127,
                "duration": 0.11818181818181817,
                "tempo": 120.0
            },
            {
                "start_time": 3.884090909090909,
                "end_time": 3.9977272727272726,
                "pitch": 77,
                "velocity": 127,
                "duration": 0.11363636363636376,
                "tempo": 120.0
            },
            {
                "start_time": 3.9977272727272726,
                "end_time": 4.111363636363636,
                "pitch": 70,
                "velocity": 127,
                "duration": 0.11363636363636376,
                "tempo": 120.0
            },
            {
                "start_time": 4.113636363636363,
                "end_time": 4.227272727272727,
                "pitch": 74,
                "velocity": 127,
                "duration": 0.11363636363636331,
                "tempo": 120.0
            },
            {
                "start_time": 4.227272727272727,
                "end_time": 4.340909090909091,
                "pitch": 76,
                "velocity": 127,
                "duration": 0.1136363636363642,
                "tempo": 120.0
            },
            {
                "start_time": 4.340909090909091,
                "end_time": 4.459090909090909,
                "pitch": 77,
                "velocity": 127,
                "duration": 0.11818181818181817,
                "tempo": 120.0
            },
            {
                "start_time": 4.577272727272727,
                "end_time": 4.693181818181818,
                "pitch": 79,
                "velocity": 127,
                "duration": 0.11590909090909118,
                "tempo": 120.0
            },
            {
                "start_time": 4.8113636363636365,
                "end_time": 4.927272727272727,
                "pitch": 81,
                "velocity": 127,
                "duration": 0.1159090909090903,
                "tempo": 120.0
            },
            {
                "start_time": 4.927272727272727,
                "end_time": 5.045454545454545,
                "pitch": 81,
                "velocity": 127,
                "duration": 0.11818181818181817,
                "tempo": 120.0
            },
            {
                "start_time": 5.045454545454545,
                "end_time": 5.161363636363636,
                "pitch": 79,
                "velocity": 127,
                "duration": 0.11590909090909118,
                "tempo": 120.0
            },
            {
                "start_time": 5.279545454545454,
                "end_time": 5.393181818181818,
                "pitch": 81,
                "velocity": 127,
                "duration": 0.11363636363636331,
                "tempo": 120.0
            },
            {
                "start_time": 5.509090909090909,
                "end_time": 5.622727272727272,
                "pitch": 82,
                "velocity": 127,
                "duration": 0.11363636363636331,
                "tempo": 120.0
            },
            {
                "start_time": 5.738636363636363,
                "end_time": 5.972727272727273,
                "pitch": 81,
                "velocity": 127,
                "duration": 0.23409090909090935,
                "tempo": 120.0
            },
            {
                "start_time": 5.972727272727273,
                "end_time": 6.088636363636363,
                "pitch": 79,
                "velocity": 127,
                "duration": 0.1159090909090903,
                "tempo": 120.0
            },
            {
                "start_time": 6.088636363636363,
                "end_time": 6.206818181818181,
                "pitch": 81,
                "velocity": 127,
                "duration": 0.11818181818181817,
                "tempo": 120.0
            },
            {
                "start_time": 6.206818181818181,
                "end_time": 6.322727272727272,
                "pitch": 77,
                "velocity": 127,
                "duration": 0.11590909090909118,
                "tempo": 120.0
            },
            {
                "start_time": 6.324999999999999,
                "end_time": 6.4409090909090905,
                "pitch": 79,
                "velocity": 127,
                "duration": 0.11590909090909118,
                "tempo": 120.0
            },
            {
                "start_time": 6.4409090909090905,
                "end_time": 6.559090909090909,
                "pitch": 76,
                "velocity": 127,
                "duration": 0.11818181818181817,
                "tempo": 120.0
            },
            {
                "start_time": 6.559090909090909,
                "end_time": 6.675,
                "pitch": 77,
                "velocity": 127,
                "duration": 0.11590909090909118,
                "tempo": 120.0
            },
            {
                "start_time": 6.675,
                "end_time": 6.904545454545454,
                "pitch": 79,
                "velocity": 127,
                "duration": 0.2295454545454545,
                "tempo": 120.0
            },
            {
                "start_time": 6.904545454545454,
                "end_time": 7.018181818181818,
                "pitch": 81,
                "velocity": 127,
                "duration": 0.11363636363636331,
                "tempo": 120.0
            },
            {
                "start_time": 7.134090909090909,
                "end_time": 7.25,
                "pitch": 82,
                "velocity": 127,
                "duration": 0.11590909090909118,
                "tempo": 120.0
            },
            {
                "start_time": 7.368181818181818,
                "end_time": 7.486363636363636,
                "pitch": 84,
                "velocity": 127,
                "duration": 0.11818181818181817,
                "tempo": 120.0
            },
            {
                "start_time": 7.602272727272727,
                "end_time": 8.540909090909091,
                "pitch": 81,
                "velocity": 127,
                "duration": 0.9386363636363644,
                "tempo": 120.0
            },
            {
                "start_time": 8.540909090909091,
                "end_time": 9.468181818181817,
                "pitch": 79,
                "velocity": 127,
                "duration": 0.9272727272727259,
                "tempo": 120.0
            },
            {
                "start_time": 9.468181818181817,
                "end_time": 10.863636363636363,
                "pitch": 77,
                "velocity": 127,
                "duration": 1.3954545454545464,
                "tempo": 120.0
            },
            {
                "start_time": 10.863636363636363,
                "end_time": 11.093181818181817,
                "pitch": 76,
                "velocity": 127,
                "duration": 0.2295454545454536,
                "tempo": 120.0
            },
            {
                "start_time": 11.206818181818182,
                "end_time": 11.322727272727272,
                "pitch": 77,
                "velocity": 127,
                "duration": 0.1159090909090903,
                "tempo": 120.0
            },
            {
                "start_time": 11.322727272727272,
                "end_time": 11.438636363636363,
                "pitch": 77,
                "velocity": 127,
                "duration": 0.1159090909090903,
                "tempo": 120.0
            },
            {
                "start_time": 11.438636363636363,
                "end_time": 11.556818181818182,
                "pitch": 70,
                "velocity": 127,
                "duration": 0.11818181818181905,
                "tempo": 120.0
            },
            {
                "start_time": 11.556818181818182,
                "end_time": 11.672727272727272,
                "pitch": 74,
                "velocity": 127,
                "duration": 0.1159090909090903,
                "tempo": 120.0
            },
            {
                "start_time": 11.674999999999999,
                "end_time": 11.790909090909091,
                "pitch": 76,
                "velocity": 127,
                "duration": 0.11590909090909207,
                "tempo": 120.0
            },
            {
                "start_time": 11.790909090909091,
                "end_time": 11.909090909090908,
                "pitch": 77,
                "velocity": 127,
                "duration": 0.11818181818181728,
                "tempo": 120.0
            },
            {
                "start_time": 12.024999999999999,
                "end_time": 12.143181818181818,
                "pitch": 79,
                "velocity": 127,
                "duration": 0.11818181818181905,
                "tempo": 120.0
            },
            {
                "start_time": 12.261363636363635,
                "end_time": 12.375,
                "pitch": 81,
                "velocity": 127,
                "duration": 0.11363636363636509,
                "tempo": 120.0
            },
            {
                "start_time": 12.375,
                "end_time": 12.488636363636363,
                "pitch": 81,
                "velocity": 127,
                "duration": 0.11363636363636331,
                "tempo": 120.0
            },
            {
                "start_time": 12.488636363636363,
                "end_time": 12.604545454545454,
                "pitch": 79,
                "velocity": 127,
                "duration": 0.1159090909090903,
                "tempo": 120.0
            },
            {
                "start_time": 12.718181818181817,
                "end_time": 12.836363636363636,
                "pitch": 81,
                "velocity": 127,
                "duration": 0.11818181818181905,
                "tempo": 120.0
            },
            {
                "start_time": 12.952272727272726,
                "end_time": 13.070454545454545,
                "pitch": 82,
                "velocity": 127,
                "duration": 0.11818181818181905,
                "tempo": 120.0
            },
            {
                "start_time": 13.188636363636363,
                "end_time": 13.422727272727272,
                "pitch": 81,
                "velocity": 127,
                "duration": 0.23409090909090935,
                "tempo": 120.0
            },
            {
                "start_time": 13.422727272727272,
                "end_time": 13.538636363636362,
                "pitch": 79,
                "velocity": 127,
                "duration": 0.1159090909090903,
                "tempo": 120.0
            },
            {
                "start_time": 13.538636363636362,
                "end_time": 13.656818181818181,
                "pitch": 81,
                "velocity": 127,
                "duration": 0.11818181818181905,
                "tempo": 120.0
            },
            {
                "start_time": 13.656818181818181,
                "end_time": 13.770454545454545,
                "pitch": 77,
                "velocity": 127,
                "duration": 0.11363636363636331,
                "tempo": 120.0
            },
            {
                "start_time": 13.770454545454545,
                "end_time": 13.886363636363635,
                "pitch": 79,
                "velocity": 127,
                "duration": 0.1159090909090903,
                "tempo": 120.0
            },
            {
                "start_time": 13.886363636363635,
                "end_time": 14.0,
                "pitch": 76,
                "velocity": 127,
                "duration": 0.11363636363636509,
                "tempo": 120.0
            },
            {
                "start_time": 14.0,
                "end_time": 14.113636363636363,
                "pitch": 77,
                "velocity": 127,
                "duration": 0.11363636363636331,
                "tempo": 120.0
            },
            {
                "start_time": 14.11590909090909,
                "end_time": 14.35,
                "pitch": 79,
                "velocity": 127,
                "duration": 0.23409090909090935,
                "tempo": 120.0
            },
            {
                "start_time": 14.35,
                "end_time": 14.46590909090909,
                "pitch": 81,
                "velocity": 127,
                "duration": 0.1159090909090903,
                "tempo": 120.0
            },
            {
                "start_time": 14.584090909090909,
                "end_time": 14.7,
                "pitch": 82,
                "velocity": 127,
                "duration": 0.1159090909090903,
                "tempo": 120.0
            },
            {
                "start_time": 14.818181818181818,
                "end_time": 14.934090909090909,
                "pitch": 84,
                "velocity": 127,
                "duration": 0.1159090909090903,
                "tempo": 120.0
            },
            {
                "start_time": 15.052272727272726,
                "end_time": 15.511363636363635,
                "pitch": 81,
                "velocity": 127,
                "duration": 0.459090909090909,
                "tempo": 120.0
            },
            {
                "start_time": 15.511363636363635,
                "end_time": 15.627272727272727,
                "pitch": 88,
                "velocity": 127,
                "duration": 0.11590909090909207,
                "tempo": 120.0
            },
            {
                "start_time": 15.861363636363636,
                "end_time": 15.979545454545454,
                "pitch": 86,
                "velocity": 127,
                "duration": 0.11818181818181728,
                "tempo": 120.0
            },
            {
                "start_time": 15.979545454545454,
                "end_time": 16.677272727272726,
                "pitch": 88,
                "velocity": 127,
                "duration": 0.6977272727272723,
                "tempo": 120.0
            },
            {
                "start_time": 16.677272727272726,
                "end_time": 16.79090909090909,
                "pitch": 86,
                "velocity": 127,
                "duration": 0.11363636363636331,
                "tempo": 120.0
            },
            {
                "start_time": 16.793181818181818,
                "end_time": 16.90681818181818,
                "pitch": 88,
                "velocity": 127,
                "duration": 0.11363636363636331,
                "tempo": 120.0
            },
            {
                "start_time": 16.90681818181818,
                "end_time": 17.60909090909091,
                "pitch": 91,
                "velocity": 127,
                "duration": 0.702272727272728,
                "tempo": 120.0
            },
            {
                "start_time": 17.611363636363635,
                "end_time": 17.727272727272727,
                "pitch": 89,
                "velocity": 127,
                "duration": 0.11590909090909207,
                "tempo": 120.0
            },
            {
                "start_time": 17.727272727272727,
                "end_time": 17.845454545454544,
                "pitch": 88,
                "velocity": 127,
                "duration": 0.11818181818181728,
                "tempo": 120.0
            },
            {
                "start_time": 17.845454545454544,
                "end_time": 18.302272727272726,
                "pitch": 89,
                "velocity": 127,
                "duration": 0.456818181818182,
                "tempo": 120.0
            },
            {
                "start_time": 18.304545454545455,
                "end_time": 18.654545454545453,
                "pitch": 88,
                "velocity": 127,
                "duration": 0.34999999999999787,
                "tempo": 120.0
            },
            {
                "start_time": 18.654545454545453,
                "end_time": 18.772727272727273,
                "pitch": 86,
                "velocity": 127,
                "duration": 0.11818181818182083,
                "tempo": 120.0
            },
            {
                "start_time": 18.772727272727273,
                "end_time": 19.709090909090907,
                "pitch": 82,
                "velocity": 127,
                "duration": 0.9363636363636338,
                "tempo": 120.0
            },
            {
                "start_time": 19.711363636363636,
                "end_time": 20.636363636363637,
                "pitch": 81,
                "velocity": 127,
                "duration": 0.9250000000000007,
                "tempo": 120.0
            },
            {
                "start_time": 20.638636363636362,
                "end_time": 20.752272727272725,
                "pitch": 86,
                "velocity": 127,
                "duration": 0.11363636363636331,
                "tempo": 120.0
            },
            {
                "start_time": 20.752272727272725,
                "end_time": 20.86590909090909,
                "pitch": 84,
                "velocity": 127,
                "duration": 0.11363636363636331,
                "tempo": 120.0
            },
            {
                "start_time": 20.86590909090909,
                "end_time": 20.98181818181818,
                "pitch": 84,
                "velocity": 127,
                "duration": 0.11590909090909207,
                "tempo": 120.0
            },
            {
                "start_time": 20.98181818181818,
                "end_time": 21.095454545454544,
                "pitch": 84,
                "velocity": 127,
                "duration": 0.11363636363636331,
                "tempo": 120.0
            },
            {
                "start_time": 21.095454545454544,
                "end_time": 21.211363636363636,
                "pitch": 81,
                "velocity": 127,
                "duration": 0.11590909090909207,
                "tempo": 120.0
            },
            {
                "start_time": 21.329545454545453,
                "end_time": 21.44772727272727,
                "pitch": 81,
                "velocity": 127,
                "duration": 0.11818181818181728,
                "tempo": 120.0
            },
            {
                "start_time": 21.44772727272727,
                "end_time": 21.563636363636363,
                "pitch": 82,
                "velocity": 127,
                "duration": 0.11590909090909207,
                "tempo": 120.0
            },
            {
                "start_time": 21.56590909090909,
                "end_time": 21.68181818181818,
                "pitch": 84,
                "velocity": 127,
                "duration": 0.11590909090908852,
                "tempo": 120.0
            },
            {
                "start_time": 21.8,
                "end_time": 21.91590909090909,
                "pitch": 81,
                "velocity": 127,
                "duration": 0.11590909090908852,
                "tempo": 120.0
            },
            {
                "start_time": 21.91590909090909,
                "end_time": 22.034090909090907,
                "pitch": 82,
                "velocity": 127,
                "duration": 0.11818181818181728,
                "tempo": 120.0
            },
            {
                "start_time": 22.034090909090907,
                "end_time": 22.147727272727273,
                "pitch": 79,
                "velocity": 127,
                "duration": 0.11363636363636687,
                "tempo": 120.0
            },
            {
                "start_time": 22.147727272727273,
                "end_time": 22.261363636363637,
                "pitch": 81,
                "velocity": 127,
                "duration": 0.11363636363636331,
                "tempo": 120.0
            },
            {
                "start_time": 22.263636363636362,
                "end_time": 22.377272727272725,
                "pitch": 77,
                "velocity": 127,
                "duration": 0.11363636363636331,
                "tempo": 120.0
            },
            {
                "start_time": 22.377272727272725,
                "end_time": 22.49090909090909,
                "pitch": 79,
                "velocity": 127,
                "duration": 0.11363636363636331,
                "tempo": 120.0
            },
            {
                "start_time": 22.49090909090909,
                "end_time": 22.961363636363636,
                "pitch": 81,
                "velocity": 127,
                "duration": 0.47045454545454746,
                "tempo": 120.0
            },
            {
                "start_time": 22.961363636363636,
                "end_time": 23.077272727272724,
                "pitch": 88,
                "velocity": 127,
                "duration": 0.11590909090908852,
                "tempo": 120.0
            },
            {
                "start_time": 23.311363636363634,
                "end_time": 23.429545454545455,
                "pitch": 86,
                "velocity": 127,
                "duration": 0.11818181818182083,
                "tempo": 120.0
            },
            {
                "start_time": 23.429545454545455,
                "end_time": 24.12272727272727,
                "pitch": 88,
                "velocity": 127,
                "duration": 0.6931818181818166,
                "tempo": 120.0
            },
            {
                "start_time": 24.12272727272727,
                "end_time": 24.238636363636363,
                "pitch": 86,
                "velocity": 127,
                "duration": 0.11590909090909207,
                "tempo": 120.0
            },
            {
                "start_time": 24.238636363636363,
                "end_time": 24.35681818181818,
                "pitch": 88,
                "velocity": 127,
                "duration": 0.11818181818181728,
                "tempo": 120.0
            },
            {
                "start_time": 24.35681818181818,
                "end_time": 25.049999999999997,
                "pitch": 91,
                "velocity": 127,
                "duration": 0.6931818181818166,
                "tempo": 120.0
            },
            {
                "start_time": 25.049999999999997,
                "end_time": 25.16590909090909,
                "pitch": 89,
                "velocity": 127,
                "duration": 0.11590909090909207,
                "tempo": 120.0
            },
            {
                "start_time": 25.16590909090909,
                "end_time": 25.284090909090907,
                "pitch": 88,
                "velocity": 127,
                "duration": 0.11818181818181728,
                "tempo": 120.0
            },
            {
                "start_time": 25.284090909090907,
                "end_time": 25.752272727272725,
                "pitch": 89,
                "velocity": 127,
                "duration": 0.4681818181818187,
                "tempo": 120.0
            },
            {
                "start_time": 25.752272727272725,
                "end_time": 26.104545454545452,
                "pitch": 88,
                "velocity": 127,
                "duration": 0.3522727272727266,
                "tempo": 120.0
            },
            {
                "start_time": 26.104545454545452,
                "end_time": 26.222727272727273,
                "pitch": 86,
                "velocity": 127,
                "duration": 0.11818181818182083,
                "tempo": 120.0
            },
            {
                "start_time": 26.222727272727273,
                "end_time": 27.15,
                "pitch": 82,
                "velocity": 127,
                "duration": 0.9272727272727259,
                "tempo": 120.0
            },
            {
                "start_time": 27.15,
                "end_time": 28.075,
                "pitch": 84,
                "velocity": 127,
                "duration": 0.9250000000000007,
                "tempo": 120.0
            },
            {
                "start_time": 28.077272727272724,
                "end_time": 28.545454545454543,
                "pitch": 86,
                "velocity": 127,
                "duration": 0.4681818181818187,
                "tempo": 120.0
            },
            {
                "start_time": 28.545454545454543,
                "end_time": 29.013636363636362,
                "pitch": 88,
                "velocity": 127,
                "duration": 0.4681818181818187,
                "tempo": 120.0
            },
            {
                "start_time": 29.013636363636362,
                "end_time": 29.472727272727273,
                "pitch": 89,
                "velocity": 127,
                "duration": 0.45909090909091077,
                "tempo": 120.0
            },
            {
                "start_time": 29.472727272727273,
                "end_time": 29.940909090909088,
                "pitch": 91,
                "velocity": 127,
                "duration": 0.46818181818181515,
                "tempo": 120.0
            },
            {
                "start_time": 41.111363636363635,
                "end_time": 41.22727272727273,
                "pitch": 83,
                "velocity": 101,
                "duration": 0.11590909090909207,
                "tempo": 120.0
            },
            {
                "start_time": 41.22727272727273,
                "end_time": 41.345454545454544,
                "pitch": 76,
                "velocity": 101,
                "duration": 0.11818181818181728,
                "tempo": 120.0
            },
            {
                "start_time": 41.345454545454544,
                "end_time": 41.461363636363636,
                "pitch": 72,
                "velocity": 101,
                "duration": 0.11590909090909207,
                "tempo": 120.0
            },
            {
                "start_time": 41.46363636363636,
                "end_time": 41.57954545454545,
                "pitch": 76,
                "velocity": 101,
                "duration": 0.11590909090909207,
                "tempo": 120.0
            },
            {
                "start_time": 41.57954545454545,
                "end_time": 41.69772727272727,
                "pitch": 83,
                "velocity": 101,
                "duration": 0.11818181818181728,
                "tempo": 120.0
            },
            {
                "start_time": 41.69772727272727,
                "end_time": 41.81363636363636,
                "pitch": 76,
                "velocity": 101,
                "duration": 0.11590909090909207,
                "tempo": 120.0
            },
            {
                "start_time": 41.81363636363636,
                "end_time": 41.93181818181818,
                "pitch": 72,
                "velocity": 101,
                "duration": 0.11818181818181728,
                "tempo": 120.0
            },
            {
                "start_time": 41.93181818181818,
                "end_time": 42.04772727272727,
                "pitch": 76,
                "velocity": 101,
                "duration": 0.11590909090909207,
                "tempo": 120.0
            },
            {
                "start_time": 42.05,
                "end_time": 42.163636363636364,
                "pitch": 83,
                "velocity": 101,
                "duration": 0.11363636363636687,
                "tempo": 120.0
            },
            {
                "start_time": 42.163636363636364,
                "end_time": 42.277272727272724,
                "pitch": 76,
                "velocity": 101,
                "duration": 0.11363636363635976,
                "tempo": 120.0
            },
            {
                "start_time": 42.277272727272724,
                "end_time": 42.393181818181816,
                "pitch": 72,
                "velocity": 101,
                "duration": 0.11590909090909207,
                "tempo": 120.0
            },
            {
                "start_time": 42.393181818181816,
                "end_time": 42.50681818181818,
                "pitch": 76,
                "velocity": 101,
                "duration": 0.11363636363636687,
                "tempo": 120.0
            },
            {
                "start_time": 42.50681818181818,
                "end_time": 42.625,
                "pitch": 83,
                "velocity": 101,
                "duration": 0.11818181818181728,
                "tempo": 120.0
            },
            {
                "start_time": 42.625,
                "end_time": 42.74090909090909,
                "pitch": 76,
                "velocity": 101,
                "duration": 0.11590909090909207,
                "tempo": 120.0
            },
            {
                "start_time": 42.74090909090909,
                "end_time": 42.85909090909091,
                "pitch": 72,
                "velocity": 101,
                "duration": 0.11818181818181728,
                "tempo": 120.0
            },
            {
                "start_time": 42.85909090909091,
                "end_time": 42.975,
                "pitch": 76,
                "velocity": 101,
                "duration": 0.11590909090909207,
                "tempo": 120.0
            },
            {
                "start_time": 42.97727272727273,
                "end_time": 43.090909090909086,
                "pitch": 81,
                "velocity": 101,
                "duration": 0.11363636363635976,
                "tempo": 120.0
            },
            {
                "start_time": 43.090909090909086,
                "end_time": 43.20454545454545,
                "pitch": 74,
                "velocity": 101,
                "duration": 0.11363636363636687,
                "tempo": 120.0
            },
            {
                "start_time": 43.20454545454545,
                "end_time": 43.320454545454545,
                "pitch": 71,
                "velocity": 101,
                "duration": 0.11590909090909207,
                "tempo": 120.0
            },
            {
                "start_time": 43.320454545454545,
                "end_time": 43.434090909090905,
                "pitch": 74,
                "velocity": 101,
                "duration": 0.11363636363635976,
                "tempo": 120.0
            },
            {
                "start_time": 43.434090909090905,
                "end_time": 43.55,
                "pitch": 81,
                "velocity": 101,
                "duration": 0.11590909090909207,
                "tempo": 120.0
            },
            {
                "start_time": 43.55227272727272,
                "end_time": 43.668181818181814,
                "pitch": 74,
                "velocity": 101,
                "duration": 0.11590909090909207,
                "tempo": 120.0
            },
            {
                "start_time": 43.668181818181814,
                "end_time": 43.78636363636363,
                "pitch": 71,
                "velocity": 101,
                "duration": 0.11818181818181728,
                "tempo": 120.0
            },
            {
                "start_time": 43.78636363636363,
                "end_time": 43.902272727272724,
                "pitch": 74,
                "velocity": 101,
                "duration": 0.11590909090909207,
                "tempo": 120.0
            },
            {
                "start_time": 43.90454545454545,
                "end_time": 44.02045454545454,
                "pitch": 81,
                "velocity": 101,
                "duration": 0.11590909090909207,
                "tempo": 120.0
            },
            {
                "start_time": 44.02045454545454,
                "end_time": 44.13636363636363,
                "pitch": 74,
                "velocity": 101,
                "duration": 0.11590909090909207,
                "tempo": 120.0
            },
            {
                "start_time": 44.13863636363636,
                "end_time": 44.25454545454545,
                "pitch": 71,
                "velocity": 101,
                "duration": 0.11590909090909207,
                "tempo": 120.0
            },
            {
                "start_time": 44.25454545454545,
                "end_time": 44.37272727272727,
                "pitch": 74,
                "velocity": 101,
                "duration": 0.11818181818181728,
                "tempo": 120.0
            },
            {
                "start_time": 44.37272727272727,
                "end_time": 44.48863636363636,
                "pitch": 81,
                "velocity": 101,
                "duration": 0.11590909090909207,
                "tempo": 120.0
            },
            {
                "start_time": 44.48863636363636,
                "end_time": 44.60681818181818,
                "pitch": 74,
                "velocity": 101,
                "duration": 0.11818181818181728,
                "tempo": 120.0
            },
            {
                "start_time": 44.60681818181818,
                "end_time": 44.72272727272727,
                "pitch": 71,
                "velocity": 101,
                "duration": 0.11590909090909207,
                "tempo": 120.0
            },
            {
                "start_time": 44.724999999999994,
                "end_time": 44.840909090909086,
                "pitch": 74,
                "velocity": 101,
                "duration": 0.11590909090909207,
                "tempo": 120.0
            },
            {
                "start_time": 44.840909090909086,
                "end_time": 44.95454545454545,
                "pitch": 79,
                "velocity": 101,
                "duration": 0.11363636363636687,
                "tempo": 120.0
            },
            {
                "start_time": 44.95681818181818,
                "end_time": 45.070454545454545,
                "pitch": 72,
                "velocity": 101,
                "duration": 0.11363636363636687,
                "tempo": 120.0
            },
            {
                "start_time": 45.070454545454545,
                "end_time": 45.184090909090905,
                "pitch": 69,
                "velocity": 101,
                "duration": 0.11363636363635976,
                "tempo": 120.0
            },
            {
                "start_time": 45.184090909090905,
                "end_time": 45.3,
                "pitch": 72,
                "velocity": 101,
                "duration": 0.11590909090909207,
                "tempo": 120.0
            },
            {
                "start_time": 45.3,
                "end_time": 45.41590909090909,
                "pitch": 79,
                "velocity": 101,
                "duration": 0.11590909090909207,
                "tempo": 120.0
            },
            {
                "start_time": 45.41590909090909,
                "end_time": 45.53409090909091,
                "pitch": 72,
                "velocity": 101,
                "duration": 0.11818181818181728,
                "tempo": 120.0
            },
            {
                "start_time": 45.53409090909091,
                "end_time": 45.65,
                "pitch": 69,
                "velocity": 101,
                "duration": 0.11590909090909207,
                "tempo": 120.0
            },
            {
                "start_time": 45.652272727272724,
                "end_time": 45.768181818181816,
                "pitch": 72,
                "velocity": 101,
                "duration": 0.11590909090909207,
                "tempo": 120.0
            },
            {
                "start_time": 45.768181818181816,
                "end_time": 45.88181818181818,
                "pitch": 77,
                "velocity": 101,
                "duration": 0.11363636363636687,
                "tempo": 120.0
            },
            {
                "start_time": 45.88409090909091,
                "end_time": 45.99772727272727,
                "pitch": 72,
                "velocity": 101,
                "duration": 0.11363636363635976,
                "tempo": 120.0
            },
            {
                "start_time": 45.99772727272727,
                "end_time": 46.111363636363635,
                "pitch": 69,
                "velocity": 101,
                "duration": 0.11363636363636687,
                "tempo": 120.0
            },
            {
                "start_time": 46.111363636363635,
                "end_time": 46.22727272727273,
                "pitch": 72,
                "velocity": 101,
                "duration": 0.11590909090909207,
                "tempo": 120.0
            },
            {
                "start_time": 46.22727272727273,
                "end_time": 46.34318181818182,
                "pitch": 77,
                "velocity": 101,
                "duration": 0.11590909090909207,
                "tempo": 120.0
            },
            {
                "start_time": 46.34318181818182,
                "end_time": 46.461363636363636,
                "pitch": 72,
                "velocity": 101,
                "duration": 0.11818181818181728,
                "tempo": 120.0
            },
            {
                "start_time": 46.461363636363636,
                "end_time": 46.57727272727273,
                "pitch": 69,
                "velocity": 101,
                "duration": 0.11590909090909207,
                "tempo": 120.0
            },
            {
                "start_time": 46.57954545454545,
                "end_time": 46.695454545454545,
                "pitch": 72,
                "velocity": 101,
                "duration": 0.11590909090909207,
                "tempo": 120.0
            },
            {
                "start_time": 46.695454545454545,
                "end_time": 46.81136363636364,
                "pitch": 80,
                "velocity": 101,
                "duration": 0.11590909090909207,
                "tempo": 120.0
            },
            {
                "start_time": 46.81363636363636,
                "end_time": 46.929545454545455,
                "pitch": 74,
                "velocity": 101,
                "duration": 0.11590909090909207,
                "tempo": 120.0
            },
            {
                "start_time": 46.929545454545455,
                "end_time": 47.04772727272727,
                "pitch": 71,
                "velocity": 101,
                "duration": 0.11818181818181728,
                "tempo": 120.0
            },
            {
                "start_time": 47.04772727272727,
                "end_time": 47.163636363636364,
                "pitch": 74,
                "velocity": 101,
                "duration": 0.11590909090909207,
                "tempo": 120.0
            },
            {
                "start_time": 47.16590909090909,
                "end_time": 47.28181818181818,
                "pitch": 80,
                "velocity": 101,
                "duration": 0.11590909090909207,
                "tempo": 120.0
            },
            {
                "start_time": 47.28181818181818,
                "end_time": 47.39772727272727,
                "pitch": 74,
                "velocity": 101,
                "duration": 0.11590909090909207,
                "tempo": 120.0
            },
            {
                "start_time": 47.4,
                "end_time": 47.51590909090909,
                "pitch": 71,
                "velocity": 101,
                "duration": 0.11590909090909207,
                "tempo": 120.0
            },
            {
                "start_time": 47.51590909090909,
                "end_time": 47.63409090909091,
                "pitch": 74,
                "velocity": 101,
                "duration": 0.11818181818181728,
                "tempo": 120.0
            },
            {
                "start_time": 47.63409090909091,
                "end_time": 47.74772727272727,
                "pitch": 80,
                "velocity": 101,
                "duration": 0.11363636363635976,
                "tempo": 120.0
            },
            {
                "start_time": 47.74772727272727,
                "end_time": 47.861363636363635,
                "pitch": 74,
                "velocity": 101,
                "duration": 0.11363636363636687,
                "tempo": 120.0
            },
            {
                "start_time": 47.86363636363636,
                "end_time": 47.97727272727273,
                "pitch": 71,
                "velocity": 101,
                "duration": 0.11363636363636687,
                "tempo": 120.0
            },
            {
                "start_time": 47.97727272727273,
                "end_time": 48.090909090909086,
                "pitch": 74,
                "velocity": 101,
                "duration": 0.11363636363635976,
                "tempo": 120.0
            },
            {
                "start_time": 48.09318181818182,
                "end_time": 48.209090909090904,
                "pitch": 80,
                "velocity": 101,
                "duration": 0.11590909090908497,
                "tempo": 120.0
            },
            {
                "start_time": 48.209090909090904,
                "end_time": 48.324999999999996,
                "pitch": 74,
                "velocity": 101,
                "duration": 0.11590909090909207,
                "tempo": 120.0
            },
            {
                "start_time": 48.32727272727273,
                "end_time": 48.44318181818181,
                "pitch": 71,
                "velocity": 101,
                "duration": 0.11590909090908497,
                "tempo": 120.0
            },
            {
                "start_time": 48.44318181818181,
                "end_time": 48.56136363636364,
                "pitch": 74,
                "velocity": 101,
                "duration": 0.11818181818182438,
                "tempo": 120.0
            },
            {
                "start_time": 48.56136363636364,
                "end_time": 50.413636363636364,
                "pitch": 83,
                "velocity": 101,
                "duration": 1.8522727272727266,
                "tempo": 120.0
            },
            {
                "start_time": 50.42045454545454,
                "end_time": 50.425,
                "pitch": 81,
                "velocity": 127,
                "duration": 0.004545454545457517,
                "tempo": 120.0
            }
        ],
        "Trumpet": [
            {
                "start_time": 29.943181818181817,
                "end_time": 31.80681818181818,
                "pitch": 76,
                "velocity": 51,
                "duration": 1.8636363636363633,
                "tempo": 120.0
            },
            {
                "start_time": 31.80681818181818,
                "end_time": 33.66136363636363,
                "pitch": 77,
                "velocity": 51,
                "duration": 1.8545454545454518,
                "tempo": 120.0
            },
            {
                "start_time": 33.66136363636363,
                "end_time": 35.527272727272724,
                "pitch": 76,
                "velocity": 51,
                "duration": 1.865909090909092,
                "tempo": 120.0
            },
            {
                "start_time": 35.527272727272724,
                "end_time": 37.38181818181818,
                "pitch": 77,
                "velocity": 51,
                "duration": 1.854545454545459,
                "tempo": 120.0
            },
            {
                "start_time": 37.38181818181818,
                "end_time": 38.31818181818181,
                "pitch": 59,
                "velocity": 80,
                "duration": 0.9363636363636303,
                "tempo": 120.0
            },
            {
                "start_time": 38.320454545454545,
                "end_time": 38.788636363636364,
                "pitch": 64,
                "velocity": 80,
                "duration": 0.4681818181818187,
                "tempo": 120.0
            },
            {
                "start_time": 38.788636363636364,
                "end_time": 39.24545454545454,
                "pitch": 64,
                "velocity": 80,
                "duration": 0.45681818181817846,
                "tempo": 120.0
            },
            {
                "start_time": 39.24772727272727,
                "end_time": 40.184090909090905,
                "pitch": 64,
                "velocity": 80,
                "duration": 0.9363636363636374,
                "tempo": 120.0
            },
            {
                "start_time": 40.184090909090905,
                "end_time": 40.643181818181816,
                "pitch": 64,
                "velocity": 80,
                "duration": 0.45909090909091077,
                "tempo": 120.0
            },
            {
                "start_time": 40.643181818181816,
                "end_time": 41.111363636363635,
                "pitch": 64,
                "velocity": 80,
                "duration": 0.4681818181818187,
                "tempo": 120.0
            }
        ],
        "French Horn": [
            {
                "start_time": 29.943181818181817,
                "end_time": 30.409090909090907,
                "pitch": 64,
                "velocity": 101,
                "duration": 0.46590909090908994,
                "tempo": 120.0
            },
            {
                "start_time": 30.411363636363635,
                "end_time": 30.525,
                "pitch": 64,
                "velocity": 101,
                "duration": 0.11363636363636331,
                "tempo": 120.0
            },
            {
                "start_time": 30.525,
                "end_time": 30.638636363636362,
                "pitch": 62,
                "velocity": 101,
                "duration": 0.11363636363636331,
                "tempo": 120.0
            },
            {
                "start_time": 30.64090909090909,
                "end_time": 30.754545454545454,
                "pitch": 67,
                "velocity": 101,
                "duration": 0.11363636363636331,
                "tempo": 120.0
            },
            {
                "start_time": 30.754545454545454,
                "end_time": 30.868181818181817,
                "pitch": 65,
                "velocity": 101,
                "duration": 0.11363636363636331,
                "tempo": 120.0
            },
            {
                "start_time": 30.868181818181817,
                "end_time": 31.336363636363636,
                "pitch": 64,
                "velocity": 101,
                "duration": 0.4681818181818187,
                "tempo": 120.0
            },
            {
                "start_time": 31.33863636363636,
                "end_time": 31.454545454545453,
                "pitch": 62,
                "velocity": 101,
                "duration": 0.11590909090909207,
                "tempo": 120.0
            },
            {
                "start_time": 31.688636363636363,
                "end_time": 31.80681818181818,
                "pitch": 64,
                "velocity": 101,
                "duration": 0.11818181818181728,
                "tempo": 120.0
            },
            {
                "start_time": 31.80681818181818,
                "end_time": 32.263636363636365,
                "pitch": 65,
                "velocity": 101,
                "duration": 0.45681818181818556,
                "tempo": 120.0
            },
            {
                "start_time": 32.26590909090909,
                "end_time": 32.38181818181818,
                "pitch": 65,
                "velocity": 101,
                "duration": 0.11590909090909207,
                "tempo": 120.0
            },
            {
                "start_time": 32.38181818181818,
                "end_time": 32.5,
                "pitch": 67,
                "velocity": 101,
                "duration": 0.11818181818181728,
                "tempo": 120.0
            },
            {
                "start_time": 32.5,
                "end_time": 32.61590909090909,
                "pitch": 65,
                "velocity": 101,
                "duration": 0.11590909090909207,
                "tempo": 120.0
            },
            {
                "start_time": 32.61590909090909,
                "end_time": 32.73409090909091,
                "pitch": 64,
                "velocity": 101,
                "duration": 0.11818181818181728,
                "tempo": 120.0
            },
            {
                "start_time": 32.73409090909091,
                "end_time": 33.20227272727273,
                "pitch": 65,
                "velocity": 101,
                "duration": 0.4681818181818187,
                "tempo": 120.0
            },
            {
                "start_time": 33.20227272727273,
                "end_time": 33.31818181818181,
                "pitch": 67,
                "velocity": 101,
                "duration": 0.11590909090908497,
                "tempo": 120.0
            },
            {
                "start_time": 33.54545454545455,
                "end_time": 33.66136363636363,
                "pitch": 65,
                "velocity": 101,
                "duration": 0.11590909090908497,
                "tempo": 120.0
            },
            {
                "start_time": 33.66136363636363,
                "end_time": 34.12954545454545,
                "pitch": 64,
                "velocity": 101,
                "duration": 0.4681818181818187,
                "tempo": 120.0
            },
            {
                "start_time": 34.12954545454545,
                "end_time": 34.24772727272727,
                "pitch": 64,
                "velocity": 101,
                "duration": 0.11818181818181728,
                "tempo": 120.0
            },
            {
                "start_time": 34.24772727272727,
                "end_time": 34.36363636363636,
                "pitch": 62,
                "velocity": 101,
                "duration": 0.11590909090909207,
                "tempo": 120.0
            },
            {
                "start_time": 34.36590909090909,
                "end_time": 34.48181818181818,
                "pitch": 67,
                "velocity": 101,
                "duration": 0.11590909090908497,
                "tempo": 120.0
            },
            {
                "start_time": 34.48181818181818,
                "end_time": 34.59772727272727,
                "pitch": 65,
                "velocity": 101,
                "duration": 0.11590909090909207,
                "tempo": 120.0
            },
            {
                "start_time": 34.6,
                "end_time": 35.05681818181818,
                "pitch": 64,
                "velocity": 101,
                "duration": 0.45681818181817846,
                "tempo": 120.0
            },
            {
                "start_time": 35.05681818181818,
                "end_time": 35.175,
                "pitch": 62,
                "velocity": 101,
                "duration": 0.11818181818181728,
                "tempo": 120.0
            },
            {
                "start_time": 35.40909090909091,
                "end_time": 35.525,
                "pitch": 64,
                "velocity": 101,
                "duration": 0.11590909090909207,
                "tempo": 120.0
            },
            {
                "start_time": 35.527272727272724,
                "end_time": 35.99545454545454,
                "pitch": 65,
                "velocity": 101,
                "duration": 0.4681818181818187,
                "tempo": 120.0
            },
            {
                "start_time": 35.99545454545454,
                "end_time": 36.10909090909091,
                "pitch": 65,
                "velocity": 101,
                "duration": 0.11363636363636687,
                "tempo": 120.0
            },
            {
                "start_time": 36.10909090909091,
                "end_time": 36.225,
                "pitch": 67,
                "velocity": 101,
                "duration": 0.11590909090909207,
                "tempo": 120.0
            },
            {
                "start_time": 36.225,
                "end_time": 36.33863636363636,
                "pitch": 65,
                "velocity": 101,
                "duration": 0.11363636363635976,
                "tempo": 120.0
            },
            {
                "start_time": 36.33863636363636,
                "end_time": 36.45227272727273,
                "pitch": 64,
                "velocity": 101,
                "duration": 0.11363636363636687,
                "tempo": 120.0
            },
            {
                "start_time": 36.45454545454545,
                "end_time": 36.92272727272727,
                "pitch": 65,
                "velocity": 101,
                "duration": 0.4681818181818187,
                "tempo": 120.0
            },
            {
                "start_time": 36.92272727272727,
                "end_time": 37.03636363636363,
                "pitch": 67,
                "velocity": 101,
                "duration": 0.11363636363635976,
                "tempo": 120.0
            },
            {
                "start_time": 37.26590909090909,
                "end_time": 37.37954545454545,
                "pitch": 65,
                "velocity": 101,
                "duration": 0.11363636363635976,
                "tempo": 120.0
            },
            {
                "start_time": 37.38181818181818,
                "end_time": 38.31818181818181,
                "pitch": 64,
                "velocity": 80,
                "duration": 0.9363636363636303,
                "tempo": 120.0
            },
            {
                "start_time": 38.31818181818181,
                "end_time": 38.78636363636363,
                "pitch": 71,
                "velocity": 80,
                "duration": 0.4681818181818187,
                "tempo": 120.0
            },
            {
                "start_time": 38.788636363636364,
                "end_time": 39.24545454545454,
                "pitch": 69,
                "velocity": 80,
                "duration": 0.45681818181817846,
                "tempo": 120.0
            },
            {
                "start_time": 39.24545454545454,
                "end_time": 40.184090909090905,
                "pitch": 68,
                "velocity": 80,
                "duration": 0.9386363636363626,
                "tempo": 120.0
            },
            {
                "start_time": 40.184090909090905,
                "end_time": 40.64090909090909,
                "pitch": 74,
                "velocity": 80,
                "duration": 0.45681818181818556,
                "tempo": 120.0
            },
            {
                "start_time": 40.643181818181816,
                "end_time": 41.111363636363635,
                "pitch": 71,
                "velocity": 80,
                "duration": 0.4681818181818187,
                "tempo": 120.0
            }
        ]
    }
}