{
    "track_id": "04 Warp",
    "mood": "angry",
    "instruments": {
        "Oboe": [
            {
                "start_time": 0.0022727272727272726,
                "end_time": 0.013636363636363636,
                "pitch": 48,
                "velocity": 80,
                "duration": 0.011363636363636364,
                "tempo": 120.0
            },
            {
                "start_time": 0.013636363636363636,
                "end_time": 0.04318181818181818,
                "pitch": 50,
                "velocity": 80,
                "duration": 0.02954545454545455,
                "tempo": 120.0
            },
            {
                "start_time": 0.04318181818181818,
                "end_time": 0.08863636363636364,
                "pitch": 52,
                "velocity": 80,
                "duration": 0.045454545454545456,
                "tempo": 120.0
            },
            {
                "start_time": 0.08863636363636364,
                "end_time": 0.13636363636363635,
                "pitch": 55,
                "velocity": 80,
                "duration": 0.047727272727272715,
                "tempo": 120.0
            },
            {
                "start_time": 0.13636363636363635,
                "end_time": 0.1659090909090909,
                "pitch": 58,
                "velocity": 80,
                "duration": 0.02954545454545454,
                "tempo": 120.0
            },
            {
                "start_time": 0.1659090909090909,
                "end_time": 0.19772727272727272,
                "pitch": 60,
                "velocity": 80,
                "duration": 0.03181818181818183,
                "tempo": 120.0
            },
            {
                "start_time": 0.19772727272727272,
                "end_time": 0.22727272727272727,
                "pitch": 62,
                "velocity": 80,
                "duration": 0.02954545454545454,
                "tempo": 120.0
            },
            {
                "start_time": 0.1659090909090909,
                "end_time": 0.27499999999999997,
                "pitch": 64,
                "velocity": 80,
                "duration": 0.10909090909090907,
                "tempo": 120.0
            },
            {
                "start_time": 0.22727272727272727,
                "end_time": 0.27499999999999997,
                "pitch": 64,
                "velocity": 80,
                "duration": 0.0477272727272727,
                "tempo": 120.0
            },
            {
                "start_time": 0.27499999999999997,
                "end_time": 0.32045454545454544,
                "pitch": 67,
                "velocity": 80,
                "duration": 0.04545454545454547,
                "tempo": 120.0
            },
            {
                "start_time": 0.32045454545454544,
                "end_time": 0.35,
                "pitch": 70,
                "velocity": 80,
                "duration": 0.02954545454545454,
                "tempo": 120.0
            },
            {
                "start_time": 0.35227272727272724,
                "end_time": 0.3818181818181818,
                "pitch": 49,
                "velocity": 80,
                "duration": 0.02954545454545454,
                "tempo": 120.0
            },
            {
                "start_time": 0.3818181818181818,
                "end_time": 0.4113636363636363,
                "pitch": 51,
                "velocity": 80,
                "duration": 0.02954545454545454,
                "tempo": 120.0
            },
            {
                "start_time": 0.08863636363636364,
                "end_time": 0.4431818181818182,
                "pitch": 0,
                "velocity": 80,
                "duration": 0.35454545454545455,
                "tempo": 120.0
            },
            {
                "start_time": 0.4113636363636363,
                "end_time": 0.4431818181818182,
                "pitch": 53,
                "velocity": 80,
                "duration": 0.03181818181818186,
                "tempo": 120.0
            },
            {
                "start_time": 0.4431818181818182,
                "end_time": 0.4886363636363636,
                "pitch": 55,
                "velocity": 80,
                "duration": 0.045454545454545414,
                "tempo": 120.0
            },
            {
                "start_time": 0.4886363636363636,
                "end_time": 0.5204545454545454,
                "pitch": 58,
                "velocity": 80,
                "duration": 0.0318181818181818,
                "tempo": 120.0
            },
            {
                "start_time": 0.5204545454545454,
                "end_time": 0.5499999999999999,
                "pitch": 60,
                "velocity": 80,
                "duration": 0.02954545454545454,
                "tempo": 120.0
            },
            {
                "start_time": 0.5499999999999999,
                "end_time": 0.5818181818181818,
                "pitch": 62,
                "velocity": 80,
                "duration": 0.03181818181818186,
                "tempo": 120.0
            },
            {
                "start_time": 0.5204545454545454,
                "end_time": 0.6272727272727272,
                "pitch": 64,
                "velocity": 80,
                "duration": 0.10681818181818181,
                "tempo": 120.0
            },
            {
                "start_time": 0.5818181818181818,
                "end_time": 0.6272727272727272,
                "pitch": 64,
                "velocity": 80,
                "duration": 0.045454545454545414,
                "tempo": 120.0
            },
            {
                "start_time": 0.6272727272727272,
                "end_time": 0.6749999999999999,
                "pitch": 67,
                "velocity": 80,
                "duration": 0.04772727272727273,
                "tempo": 120.0
            },
            {
                "start_time": 0.6749999999999999,
                "end_time": 0.7045454545454545,
                "pitch": 70,
                "velocity": 80,
                "duration": 0.02954545454545454,
                "tempo": 120.0
            },
            {
                "start_time": 0.7045454545454545,
                "end_time": 0.7409090909090909,
                "pitch": 50,
                "velocity": 80,
                "duration": 0.036363636363636376,
                "tempo": 120.0
            },
            {
                "start_time": 0.4431818181818182,
                "end_time": 0.7954545454545454,
                "pitch": 0,
                "velocity": 80,
                "duration": 0.35227272727272724,
                "tempo": 120.0
            },
            {
                "start_time": 0.7409090909090909,
                "end_time": 0.7954545454545454,
                "pitch": 52,
                "velocity": 80,
                "duration": 0.054545454545454564,
                "tempo": 120.0
            },
            {
                "start_time": 0.7954545454545454,
                "end_time": 0.8477272727272727,
                "pitch": 55,
                "velocity": 80,
                "duration": 0.05227272727272725,
                "tempo": 120.0
            },
            {
                "start_time": 0.8477272727272727,
                "end_time": 0.884090909090909,
                "pitch": 58,
                "velocity": 80,
                "duration": 0.036363636363636376,
                "tempo": 120.0
            },
            {
                "start_time": 0.884090909090909,
                "end_time": 0.9204545454545454,
                "pitch": 60,
                "velocity": 80,
                "duration": 0.036363636363636376,
                "tempo": 120.0
            },
            {
                "start_time": 0.9204545454545454,
                "end_time": 0.9545454545454545,
                "pitch": 62,
                "velocity": 80,
                "duration": 0.03409090909090906,
                "tempo": 120.0
            },
            {
                "start_time": 0.884090909090909,
                "end_time": 1.009090909090909,
                "pitch": 64,
                "velocity": 80,
                "duration": 0.125,
                "tempo": 120.0
            },
            {
                "start_time": 0.9545454545454545,
                "end_time": 1.009090909090909,
                "pitch": 64,
                "velocity": 80,
                "duration": 0.054545454545454564,
                "tempo": 120.0
            },
            {
                "start_time": 1.009090909090909,
                "end_time": 1.0636363636363635,
                "pitch": 67,
                "velocity": 80,
                "duration": 0.05454545454545445,
                "tempo": 120.0
            },
            {
                "start_time": 1.0636363636363635,
                "end_time": 1.0977272727272727,
                "pitch": 70,
                "velocity": 80,
                "duration": 0.03409090909090917,
                "tempo": 120.0
            },
            {
                "start_time": 0.7045454545454545,
                "end_time": 1.0977272727272727,
                "pitch": 77,
                "velocity": 80,
                "duration": 0.3931818181818182,
                "tempo": 120.0
            },
            {
                "start_time": 1.0977272727272727,
                "end_time": 1.134090909090909,
                "pitch": 51,
                "velocity": 80,
                "duration": 0.036363636363636376,
                "tempo": 120.0
            },
            {
                "start_time": 0.7954545454545454,
                "end_time": 1.1704545454545454,
                "pitch": 0,
                "velocity": 80,
                "duration": 0.375,
                "tempo": 120.0
            },
            {
                "start_time": 1.134090909090909,
                "end_time": 1.1704545454545454,
                "pitch": 53,
                "velocity": 80,
                "duration": 0.036363636363636376,
                "tempo": 120.0
            },
            {
                "start_time": 1.1704545454545454,
                "end_time": 1.2227272727272727,
                "pitch": 55,
                "velocity": 80,
                "duration": 0.05227272727272725,
                "tempo": 120.0
            },
            {
                "start_time": 1.2227272727272727,
                "end_time": 1.259090909090909,
                "pitch": 58,
                "velocity": 80,
                "duration": 0.036363636363636376,
                "tempo": 120.0
            },
            {
                "start_time": 1.259090909090909,
                "end_time": 1.2954545454545454,
                "pitch": 60,
                "velocity": 80,
                "duration": 0.036363636363636376,
                "tempo": 120.0
            },
            {
                "start_time": 1.2954545454545454,
                "end_time": 1.3318181818181818,
                "pitch": 62,
                "velocity": 80,
                "duration": 0.036363636363636376,
                "tempo": 120.0
            },
            {
                "start_time": 1.259090909090909,
                "end_time": 1.384090909090909,
                "pitch": 64,
                "velocity": 80,
                "duration": 0.125,
                "tempo": 120.0
            },
            {
                "start_time": 1.3318181818181818,
                "end_time": 1.384090909090909,
                "pitch": 64,
                "velocity": 80,
                "duration": 0.05227272727272725,
                "tempo": 120.0
            },
            {
                "start_time": 1.384090909090909,
                "end_time": 1.4386363636363635,
                "pitch": 67,
                "velocity": 80,
                "duration": 0.05454545454545445,
                "tempo": 120.0
            },
            {
                "start_time": 1.4386363636363635,
                "end_time": 1.4727272727272727,
                "pitch": 70,
                "velocity": 80,
                "duration": 0.03409090909090917,
                "tempo": 120.0
            },
            {
                "start_time": 1.1704545454545454,
                "end_time": 1.5227272727272727,
                "pitch": 0,
                "velocity": 80,
                "duration": 0.3522727272727273,
                "tempo": 120.0
            },
            {
                "start_time": 1.4727272727272727,
                "end_time": 1.5227272727272727,
                "pitch": 52,
                "velocity": 80,
                "duration": 0.050000000000000044,
                "tempo": 120.0
            },
            {
                "start_time": 1.5227272727272727,
                "end_time": 1.5727272727272728,
                "pitch": 55,
                "velocity": 80,
                "duration": 0.050000000000000044,
                "tempo": 120.0
            },
            {
                "start_time": 1.5727272727272728,
                "end_time": 1.6068181818181817,
                "pitch": 58,
                "velocity": 80,
                "duration": 0.03409090909090895,
                "tempo": 120.0
            },
            {
                "start_time": 1.6068181818181817,
                "end_time": 1.6409090909090909,
                "pitch": 60,
                "velocity": 80,
                "duration": 0.03409090909090917,
                "tempo": 120.0
            },
            {
                "start_time": 1.6409090909090909,
                "end_time": 1.6749999999999998,
                "pitch": 62,
                "velocity": 80,
                "duration": 0.03409090909090895,
                "tempo": 120.0
            },
            {
                "start_time": 1.6068181818181817,
                "end_time": 1.7249999999999999,
                "pitch": 64,
                "velocity": 80,
                "duration": 0.11818181818181817,
                "tempo": 120.0
            },
            {
                "start_time": 1.6749999999999998,
                "end_time": 1.7249999999999999,
                "pitch": 64,
                "velocity": 80,
                "duration": 0.050000000000000044,
                "tempo": 120.0
            },
            {
                "start_time": 1.7249999999999999,
                "end_time": 1.775,
                "pitch": 67,
                "velocity": 80,
                "duration": 0.050000000000000044,
                "tempo": 120.0
            },
            {
                "start_time": 1.775,
                "end_time": 1.809090909090909,
                "pitch": 70,
                "velocity": 80,
                "duration": 0.03409090909090917,
                "tempo": 120.0
            },
            {
                "start_time": 1.4727272727272727,
                "end_time": 1.809090909090909,
                "pitch": 78,
                "velocity": 80,
                "duration": 0.3363636363636364,
                "tempo": 120.0
            },
            {
                "start_time": 1.5227272727272727,
                "end_time": 1.843181818181818,
                "pitch": 0,
                "velocity": 80,
                "duration": 0.3204545454545453,
                "tempo": 120.0
            },
            {
                "start_time": 1.809090909090909,
                "end_time": 1.843181818181818,
                "pitch": 53,
                "velocity": 80,
                "duration": 0.03409090909090895,
                "tempo": 120.0
            },
            {
                "start_time": 1.843181818181818,
                "end_time": 1.893181818181818,
                "pitch": 55,
                "velocity": 80,
                "duration": 0.050000000000000044,
                "tempo": 120.0
            },
            {
                "start_time": 1.893181818181818,
                "end_time": 1.9272727272727272,
                "pitch": 58,
                "velocity": 80,
                "duration": 0.03409090909090917,
                "tempo": 120.0
            },
            {
                "start_time": 1.9272727272727272,
                "end_time": 1.9613636363636362,
                "pitch": 60,
                "velocity": 80,
                "duration": 0.03409090909090895,
                "tempo": 120.0
            },
            {
                "start_time": 1.9613636363636362,
                "end_time": 1.9954545454545454,
                "pitch": 62,
                "velocity": 80,
                "duration": 0.03409090909090917,
                "tempo": 120.0
            },
            {
                "start_time": 1.9272727272727272,
                "end_time": 2.0454545454545454,
                "pitch": 64,
                "velocity": 80,
                "duration": 0.11818181818181817,
                "tempo": 120.0
            },
            {
                "start_time": 1.9954545454545454,
                "end_time": 2.0454545454545454,
                "pitch": 64,
                "velocity": 80,
                "duration": 0.050000000000000044,
                "tempo": 120.0
            },
            {
                "start_time": 2.0454545454545454,
                "end_time": 2.0954545454545452,
                "pitch": 67,
                "velocity": 80,
                "duration": 0.04999999999999982,
                "tempo": 120.0
            },
            {
                "start_time": 2.0954545454545452,
                "end_time": 2.1295454545454544,
                "pitch": 70,
                "velocity": 80,
                "duration": 0.03409090909090917,
                "tempo": 120.0
            },
            {
                "start_time": 1.809090909090909,
                "end_time": 2.1295454545454544,
                "pitch": 78,
                "velocity": 80,
                "duration": 0.3204545454545453,
                "tempo": 120.0
            },
            {
                "start_time": 1.843181818181818,
                "end_time": 2.1454545454545455,
                "pitch": 0,
                "velocity": 80,
                "duration": 0.30227272727272747,
                "tempo": 120.0
            },
            {
                "start_time": 2.1295454545454544,
                "end_time": 2.1454545454545455,
                "pitch": 54,
                "velocity": 80,
                "duration": 0.015909090909091095,
                "tempo": 120.0
            },
            {
                "start_time": 2.1454545454545455,
                "end_time": 2.1954545454545453,
                "pitch": 55,
                "velocity": 80,
                "duration": 0.04999999999999982,
                "tempo": 120.0
            },
            {
                "start_time": 2.1954545454545453,
                "end_time": 2.231818181818182,
                "pitch": 58,
                "velocity": 80,
                "duration": 0.0363636363636366,
                "tempo": 120.0
            },
            {
                "start_time": 2.231818181818182,
                "end_time": 2.2659090909090907,
                "pitch": 60,
                "velocity": 80,
                "duration": 0.03409090909090873,
                "tempo": 120.0
            },
            {
                "start_time": 2.2659090909090907,
                "end_time": 2.3022727272727272,
                "pitch": 62,
                "velocity": 80,
                "duration": 0.0363636363636366,
                "tempo": 120.0
            },
            {
                "start_time": 2.231818181818182,
                "end_time": 2.3545454545454545,
                "pitch": 64,
                "velocity": 80,
                "duration": 0.12272727272727257,
                "tempo": 120.0
            },
            {
                "start_time": 2.3022727272727272,
                "end_time": 2.3545454545454545,
                "pitch": 64,
                "velocity": 80,
                "duration": 0.05227272727272725,
                "tempo": 120.0
            },
            {
                "start_time": 2.3545454545454545,
                "end_time": 2.4068181818181817,
                "pitch": 67,
                "velocity": 80,
                "duration": 0.05227272727272725,
                "tempo": 120.0
            },
            {
                "start_time": 2.4068181818181817,
                "end_time": 2.440909090909091,
                "pitch": 70,
                "velocity": 80,
                "duration": 0.03409090909090917,
                "tempo": 120.0
            },
            {
                "start_time": 2.440909090909091,
                "end_time": 2.493181818181818,
                "pitch": 55,
                "velocity": 80,
                "duration": 0.05227272727272725,
                "tempo": 120.0
            },
            {
                "start_time": 2.493181818181818,
                "end_time": 2.5272727272727273,
                "pitch": 58,
                "velocity": 80,
                "duration": 0.03409090909090917,
                "tempo": 120.0
            },
            {
                "start_time": 2.5272727272727273,
                "end_time": 2.5636363636363635,
                "pitch": 60,
                "velocity": 80,
                "duration": 0.036363636363636154,
                "tempo": 120.0
            },
            {
                "start_time": 2.5636363636363635,
                "end_time": 2.5977272727272727,
                "pitch": 62,
                "velocity": 80,
                "duration": 0.03409090909090917,
                "tempo": 120.0
            },
            {
                "start_time": 2.5272727272727273,
                "end_time": 2.65,
                "pitch": 64,
                "velocity": 80,
                "duration": 0.12272727272727257,
                "tempo": 120.0
            },
            {
                "start_time": 2.5977272727272727,
                "end_time": 2.65,
                "pitch": 64,
                "velocity": 80,
                "duration": 0.05227272727272725,
                "tempo": 120.0
            },
            {
                "start_time": 2.440909090909091,
                "end_time": 2.702272727272727,
                "pitch": 67,
                "velocity": 80,
                "duration": 0.26136363636363624,
                "tempo": 120.0
            },
            {
                "start_time": 2.65,
                "end_time": 2.702272727272727,
                "pitch": 67,
                "velocity": 80,
                "duration": 0.05227272727272725,
                "tempo": 120.0
            },
            {
                "start_time": 2.702272727272727,
                "end_time": 2.7363636363636363,
                "pitch": 70,
                "velocity": 80,
                "duration": 0.03409090909090917,
                "tempo": 120.0
            },
            {
                "start_time": 2.7386363636363633,
                "end_time": 2.7886363636363636,
                "pitch": 56,
                "velocity": 80,
                "duration": 0.050000000000000266,
                "tempo": 120.0
            },
            {
                "start_time": 2.7886363636363636,
                "end_time": 2.8068181818181817,
                "pitch": 59,
                "velocity": 80,
                "duration": 0.018181818181818077,
                "tempo": 120.0
            },
            {
                "start_time": 2.8068181818181817,
                "end_time": 2.840909090909091,
                "pitch": 60,
                "velocity": 80,
                "duration": 0.03409090909090917,
                "tempo": 120.0
            },
            {
                "start_time": 2.840909090909091,
                "end_time": 2.877272727272727,
                "pitch": 62,
                "velocity": 80,
                "duration": 0.036363636363636154,
                "tempo": 120.0
            },
            {
                "start_time": 2.8068181818181817,
                "end_time": 2.9295454545454542,
                "pitch": 64,
                "velocity": 80,
                "duration": 0.12272727272727257,
                "tempo": 120.0
            },
            {
                "start_time": 2.877272727272727,
                "end_time": 2.9295454545454542,
                "pitch": 64,
                "velocity": 80,
                "duration": 0.05227272727272725,
                "tempo": 120.0
            },
            {
                "start_time": 2.9295454545454542,
                "end_time": 2.9818181818181815,
                "pitch": 67,
                "velocity": 80,
                "duration": 0.05227272727272725,
                "tempo": 120.0
            },
            {
                "start_time": 2.9818181818181815,
                "end_time": 3.018181818181818,
                "pitch": 70,
                "velocity": 80,
                "duration": 0.0363636363636366,
                "tempo": 120.0
            },
            {
                "start_time": 3.018181818181818,
                "end_time": 3.0545454545454542,
                "pitch": 57,
                "velocity": 80,
                "duration": 0.036363636363636154,
                "tempo": 120.0
            },
            {
                "start_time": 3.0545454545454542,
                "end_time": 3.0727272727272728,
                "pitch": 59,
                "velocity": 80,
                "duration": 0.01818181818181852,
                "tempo": 120.0
            },
            {
                "start_time": 3.0727272727272728,
                "end_time": 3.109090909090909,
                "pitch": 60,
                "velocity": 80,
                "duration": 0.036363636363636154,
                "tempo": 120.0
            },
            {
                "start_time": 3.109090909090909,
                "end_time": 3.1454545454545455,
                "pitch": 62,
                "velocity": 80,
                "duration": 0.0363636363636366,
                "tempo": 120.0
            },
            {
                "start_time": 3.0727272727272728,
                "end_time": 3.202272727272727,
                "pitch": 64,
                "velocity": 80,
                "duration": 0.1295454545454544,
                "tempo": 120.0
            },
            {
                "start_time": 3.1454545454545455,
                "end_time": 3.202272727272727,
                "pitch": 64,
                "velocity": 80,
                "duration": 0.05681818181818166,
                "tempo": 120.0
            },
            {
                "start_time": 3.202272727272727,
                "end_time": 3.256818181818182,
                "pitch": 67,
                "velocity": 80,
                "duration": 0.054545454545454675,
                "tempo": 120.0
            },
            {
                "start_time": 3.256818181818182,
                "end_time": 3.293181818181818,
                "pitch": 70,
                "velocity": 80,
                "duration": 0.036363636363636154,
                "tempo": 120.0
            },
            {
                "start_time": 3.293181818181818,
                "end_time": 3.3295454545454546,
                "pitch": 58,
                "velocity": 80,
                "duration": 0.0363636363636366,
                "tempo": 120.0
            },
            {
                "start_time": 3.3295454545454546,
                "end_time": 3.3659090909090907,
                "pitch": 60,
                "velocity": 80,
                "duration": 0.036363636363636154,
                "tempo": 120.0
            },
            {
                "start_time": 3.3659090909090907,
                "end_time": 3.402272727272727,
                "pitch": 62,
                "velocity": 80,
                "duration": 0.036363636363636154,
                "tempo": 120.0
            },
            {
                "start_time": 3.3295454545454546,
                "end_time": 3.459090909090909,
                "pitch": 64,
                "velocity": 80,
                "duration": 0.1295454545454544,
                "tempo": 120.0
            },
            {
                "start_time": 3.402272727272727,
                "end_time": 3.459090909090909,
                "pitch": 64,
                "velocity": 80,
                "duration": 0.0568181818181821,
                "tempo": 120.0
            },
            {
                "start_time": 3.459090909090909,
                "end_time": 3.5136363636363637,
                "pitch": 67,
                "velocity": 80,
                "duration": 0.054545454545454675,
                "tempo": 120.0
            },
            {
                "start_time": 3.5136363636363637,
                "end_time": 3.55,
                "pitch": 70,
                "velocity": 80,
                "duration": 0.036363636363636154,
                "tempo": 120.0
            },
            {
                "start_time": 3.55,
                "end_time": 3.568181818181818,
                "pitch": 59,
                "velocity": 80,
                "duration": 0.018181818181818077,
                "tempo": 120.0
            },
            {
                "start_time": 3.568181818181818,
                "end_time": 3.6045454545454545,
                "pitch": 60,
                "velocity": 80,
                "duration": 0.0363636363636366,
                "tempo": 120.0
            },
            {
                "start_time": 3.6045454545454545,
                "end_time": 3.6409090909090907,
                "pitch": 62,
                "velocity": 80,
                "duration": 0.036363636363636154,
                "tempo": 120.0
            },
            {
                "start_time": 3.568181818181818,
                "end_time": 3.6977272727272728,
                "pitch": 64,
                "velocity": 80,
                "duration": 0.12954545454545485,
                "tempo": 120.0
            },
            {
                "start_time": 3.6409090909090907,
                "end_time": 3.6977272727272728,
                "pitch": 64,
                "velocity": 80,
                "duration": 0.0568181818181821,
                "tempo": 120.0
            },
            {
                "start_time": 3.6977272727272728,
                "end_time": 3.752272727272727,
                "pitch": 67,
                "velocity": 80,
                "duration": 0.05454545454545423,
                "tempo": 120.0
            },
            {
                "start_time": 3.752272727272727,
                "end_time": 3.7886363636363636,
                "pitch": 70,
                "velocity": 80,
                "duration": 0.0363636363636366,
                "tempo": 120.0
            },
            {
                "start_time": 0.35,
                "end_time": 3.7886363636363636,
                "pitch": 76,
                "velocity": 80,
                "duration": 3.4386363636363635,
                "tempo": 120.0
            },
            {
                "start_time": 3.7886363636363636,
                "end_time": 3.8227272727272728,
                "pitch": 60,
                "velocity": 80,
                "duration": 0.03409090909090917,
                "tempo": 120.0
            },
            {
                "start_time": 3.8227272727272728,
                "end_time": 3.8568181818181815,
                "pitch": 62,
                "velocity": 80,
                "duration": 0.03409090909090873,
                "tempo": 120.0
            },
            {
                "start_time": 3.8568181818181815,
                "end_time": 3.9090909090909087,
                "pitch": 64,
                "velocity": 80,
                "duration": 0.05227272727272725,
                "tempo": 120.0
            },
            {
                "start_time": 3.9090909090909087,
                "end_time": 3.959090909090909,
                "pitch": 67,
                "velocity": 80,
                "duration": 0.050000000000000266,
                "tempo": 120.0
            },
            {
                "start_time": 3.959090909090909,
                "end_time": 3.995454545454545,
                "pitch": 70,
                "velocity": 80,
                "duration": 0.036363636363636154,
                "tempo": 120.0
            },
            {
                "start_time": 3.7886363636363636,
                "end_time": 3.995454545454545,
                "pitch": 76,
                "velocity": 80,
                "duration": 0.20681818181818157,
                "tempo": 120.0
            },
            {
                "start_time": 3.995454545454545,
                "end_time": 4.029545454545454,
                "pitch": 61,
                "velocity": 80,
                "duration": 0.03409090909090917,
                "tempo": 120.0
            },
            {
                "start_time": 4.029545454545454,
                "end_time": 4.079545454545454,
                "pitch": 63,
                "velocity": 80,
                "duration": 0.04999999999999982,
                "tempo": 120.0
            },
            {
                "start_time": 4.079545454545454,
                "end_time": 4.11590909090909,
                "pitch": 66,
                "velocity": 80,
                "duration": 0.036363636363636154,
                "tempo": 120.0
            },
            {
                "start_time": 4.11590909090909,
                "end_time": 4.165909090909091,
                "pitch": 68,
                "velocity": 80,
                "duration": 0.05000000000000071,
                "tempo": 120.0
            },
            {
                "start_time": 4.165909090909091,
                "end_time": 4.184090909090909,
                "pitch": 71,
                "velocity": 80,
                "duration": 0.018181818181817633,
                "tempo": 120.0
            },
            {
                "start_time": 1.0977272727272727,
                "end_time": 4.184090909090909,
                "pitch": 77,
                "velocity": 80,
                "duration": 3.086363636363636,
                "tempo": 120.0
            },
            {
                "start_time": 4.184090909090909,
                "end_time": 4.218181818181818,
                "pitch": 62,
                "velocity": 80,
                "duration": 0.03409090909090917,
                "tempo": 120.0
            },
            {
                "start_time": 4.218181818181818,
                "end_time": 4.2704545454545455,
                "pitch": 64,
                "velocity": 80,
                "duration": 0.05227272727272769,
                "tempo": 120.0
            },
            {
                "start_time": 4.2704545454545455,
                "end_time": 4.322727272727272,
                "pitch": 67,
                "velocity": 80,
                "duration": 0.052272727272726804,
                "tempo": 120.0
            },
            {
                "start_time": 4.322727272727272,
                "end_time": 4.3568181818181815,
                "pitch": 70,
                "velocity": 80,
                "duration": 0.03409090909090917,
                "tempo": 120.0
            },
            {
                "start_time": 4.184090909090909,
                "end_time": 4.3568181818181815,
                "pitch": 77,
                "velocity": 80,
                "duration": 0.17272727272727284,
                "tempo": 120.0
            },
            {
                "start_time": 4.3568181818181815,
                "end_time": 4.406818181818181,
                "pitch": 63,
                "velocity": 80,
                "duration": 0.04999999999999982,
                "tempo": 120.0
            },
            {
                "start_time": 4.406818181818181,
                "end_time": 4.443181818181818,
                "pitch": 66,
                "velocity": 80,
                "duration": 0.03636363636363704,
                "tempo": 120.0
            },
            {
                "start_time": 4.443181818181818,
                "end_time": 4.493181818181818,
                "pitch": 68,
                "velocity": 80,
                "duration": 0.04999999999999982,
                "tempo": 120.0
            },
            {
                "start_time": 4.493181818181818,
                "end_time": 4.511363636363636,
                "pitch": 71,
                "velocity": 80,
                "duration": 0.018181818181817633,
                "tempo": 120.0
            },
            {
                "start_time": 2.1295454545454544,
                "end_time": 4.511363636363636,
                "pitch": 78,
                "velocity": 80,
                "duration": 2.3818181818181814,
                "tempo": 120.0
            },
            {
                "start_time": 4.511363636363636,
                "end_time": 4.5613636363636365,
                "pitch": 64,
                "velocity": 80,
                "duration": 0.05000000000000071,
                "tempo": 120.0
            },
            {
                "start_time": 4.5613636363636365,
                "end_time": 4.613636363636363,
                "pitch": 67,
                "velocity": 80,
                "duration": 0.052272727272726804,
                "tempo": 120.0
            },
            {
                "start_time": 4.613636363636363,
                "end_time": 4.6477272727272725,
                "pitch": 70,
                "velocity": 80,
                "duration": 0.03409090909090917,
                "tempo": 120.0
            },
            {
                "start_time": 4.511363636363636,
                "end_time": 4.6477272727272725,
                "pitch": 78,
                "velocity": 80,
                "duration": 0.1363636363636367,
                "tempo": 120.0
            },
            {
                "start_time": 4.6477272727272725,
                "end_time": 4.681818181818182,
                "pitch": 65,
                "velocity": 80,
                "duration": 0.03409090909090917,
                "tempo": 120.0
            },
            {
                "start_time": 4.681818181818182,
                "end_time": 4.7318181818181815,
                "pitch": 67,
                "velocity": 80,
                "duration": 0.04999999999999982,
                "tempo": 120.0
            },
            {
                "start_time": 4.7318181818181815,
                "end_time": 4.765909090909091,
                "pitch": 70,
                "velocity": 80,
                "duration": 0.03409090909090917,
                "tempo": 120.0
            },
            {
                "start_time": 4.6477272727272725,
                "end_time": 4.765909090909091,
                "pitch": 78,
                "velocity": 80,
                "duration": 0.11818181818181817,
                "tempo": 120.0
            },
            {
                "start_time": 4.765909090909091,
                "end_time": 4.8,
                "pitch": 66,
                "velocity": 80,
                "duration": 0.03409090909090917,
                "tempo": 120.0
            },
            {
                "start_time": 4.8,
                "end_time": 4.852272727272727,
                "pitch": 68,
                "velocity": 80,
                "duration": 0.052272727272726804,
                "tempo": 120.0
            },
            {
                "start_time": 4.852272727272727,
                "end_time": 4.870454545454545,
                "pitch": 71,
                "velocity": 80,
                "duration": 0.01818181818181852,
                "tempo": 120.0
            },
            {
                "start_time": 4.870454545454545,
                "end_time": 4.920454545454545,
                "pitch": 67,
                "velocity": 80,
                "duration": 0.04999999999999982,
                "tempo": 120.0
            },
            {
                "start_time": 4.870454545454545,
                "end_time": 4.920454545454545,
                "pitch": 67,
                "velocity": 80,
                "duration": 0.04999999999999982,
                "tempo": 120.0
            },
            {
                "start_time": 4.920454545454545,
                "end_time": 4.954545454545454,
                "pitch": 70,
                "velocity": 80,
                "duration": 0.03409090909090917,
                "tempo": 120.0
            },
            {
                "start_time": 4.954545454545454,
                "end_time": 5.004545454545454,
                "pitch": 67,
                "velocity": 80,
                "duration": 0.04999999999999982,
                "tempo": 120.0
            },
            {
                "start_time": 5.004545454545454,
                "end_time": 5.038636363636363,
                "pitch": 70,
                "velocity": 80,
                "duration": 0.03409090909090917,
                "tempo": 120.0
            },
            {
                "start_time": 5.038636363636363,
                "end_time": 5.090909090909091,
                "pitch": 67,
                "velocity": 80,
                "duration": 0.05227272727272769,
                "tempo": 120.0
            },
            {
                "start_time": 5.090909090909091,
                "end_time": 5.125,
                "pitch": 70,
                "velocity": 80,
                "duration": 0.03409090909090917,
                "tempo": 120.0
            },
            {
                "start_time": 5.125,
                "end_time": 5.175,
                "pitch": 67,
                "velocity": 80,
                "duration": 0.04999999999999982,
                "tempo": 120.0
            },
            {
                "start_time": 5.175,
                "end_time": 5.209090909090909,
                "pitch": 70,
                "velocity": 80,
                "duration": 0.03409090909090917,
                "tempo": 120.0
            },
            {
                "start_time": 5.209090909090909,
                "end_time": 5.261363636363636,
                "pitch": 67,
                "velocity": 80,
                "duration": 0.052272727272726804,
                "tempo": 120.0
            },
            {
                "start_time": 5.261363636363636,
                "end_time": 5.295454545454545,
                "pitch": 70,
                "velocity": 80,
                "duration": 0.03409090909090917,
                "tempo": 120.0
            },
            {
                "start_time": 5.295454545454545,
                "end_time": 5.347727272727273,
                "pitch": 67,
                "velocity": 80,
                "duration": 0.05227272727272769,
                "tempo": 120.0
            },
            {
                "start_time": 5.347727272727273,
                "end_time": 5.384090909090909,
                "pitch": 70,
                "velocity": 80,
                "duration": 0.036363636363636154,
                "tempo": 120.0
            },
            {
                "start_time": 5.384090909090909,
                "end_time": 5.4363636363636365,
                "pitch": 67,
                "velocity": 80,
                "duration": 0.05227272727272769,
                "tempo": 120.0
            },
            {
                "start_time": 5.4363636363636365,
                "end_time": 5.472727272727273,
                "pitch": 70,
                "velocity": 80,
                "duration": 0.036363636363636154,
                "tempo": 120.0
            },
            {
                "start_time": 5.472727272727273,
                "end_time": 5.5249999999999995,
                "pitch": 67,
                "velocity": 80,
                "duration": 0.052272727272726804,
                "tempo": 120.0
            },
            {
                "start_time": 5.5249999999999995,
                "end_time": 5.5613636363636365,
                "pitch": 70,
                "velocity": 80,
                "duration": 0.03636363636363704,
                "tempo": 120.0
            },
            {
                "start_time": 5.5613636363636365,
                "end_time": 5.613636363636363,
                "pitch": 67,
                "velocity": 80,
                "duration": 0.052272727272726804,
                "tempo": 120.0
            },
            {
                "start_time": 5.613636363636363,
                "end_time": 5.6499999999999995,
                "pitch": 70,
                "velocity": 80,
                "duration": 0.036363636363636154,
                "tempo": 120.0
            },
            {
                "start_time": 5.6499999999999995,
                "end_time": 5.702272727272727,
                "pitch": 67,
                "velocity": 80,
                "duration": 0.05227272727272769,
                "tempo": 120.0
            },
            {
                "start_time": 5.702272727272727,
                "end_time": 5.738636363636363,
                "pitch": 70,
                "velocity": 80,
                "duration": 0.036363636363636154,
                "tempo": 120.0
            },
            {
                "start_time": 5.738636363636363,
                "end_time": 5.790909090909091,
                "pitch": 67,
                "velocity": 80,
                "duration": 0.05227272727272769,
                "tempo": 120.0
            },
            {
                "start_time": 5.790909090909091,
                "end_time": 5.824999999999999,
                "pitch": 70,
                "velocity": 80,
                "duration": 0.034090909090908283,
                "tempo": 120.0
            },
            {
                "start_time": 5.824999999999999,
                "end_time": 5.879545454545454,
                "pitch": 67,
                "velocity": 80,
                "duration": 0.054545454545454675,
                "tempo": 120.0
            },
            {
                "start_time": 5.879545454545454,
                "end_time": 5.913636363636363,
                "pitch": 70,
                "velocity": 80,
                "duration": 0.03409090909090917,
                "tempo": 120.0
            },
            {
                "start_time": 5.913636363636363,
                "end_time": 5.965909090909091,
                "pitch": 67,
                "velocity": 80,
                "duration": 0.05227272727272769,
                "tempo": 120.0
            },
            {
                "start_time": 5.965909090909091,
                "end_time": 6.002272727272727,
                "pitch": 70,
                "velocity": 80,
                "duration": 0.036363636363636154,
                "tempo": 120.0
            },
            {
                "start_time": 6.002272727272727,
                "end_time": 6.054545454545455,
                "pitch": 67,
                "velocity": 80,
                "duration": 0.05227272727272769,
                "tempo": 120.0
            },
            {
                "start_time": 6.054545454545455,
                "end_time": 6.090909090909091,
                "pitch": 70,
                "velocity": 80,
                "duration": 0.036363636363636154,
                "tempo": 120.0
            },
            {
                "start_time": 6.090909090909091,
                "end_time": 6.1454545454545455,
                "pitch": 67,
                "velocity": 80,
                "duration": 0.054545454545454675,
                "tempo": 120.0
            },
            {
                "start_time": 6.1454545454545455,
                "end_time": 6.184090909090909,
                "pitch": 70,
                "velocity": 80,
                "duration": 0.038636363636363136,
                "tempo": 120.0
            },
            {
                "start_time": 6.184090909090909,
                "end_time": 6.24090909090909,
                "pitch": 67,
                "velocity": 80,
                "duration": 0.05681818181818166,
                "tempo": 120.0
            },
            {
                "start_time": 6.24090909090909,
                "end_time": 6.279545454545454,
                "pitch": 70,
                "velocity": 80,
                "duration": 0.038636363636364024,
                "tempo": 120.0
            },
            {
                "start_time": 6.279545454545454,
                "end_time": 6.336363636363636,
                "pitch": 67,
                "velocity": 80,
                "duration": 0.05681818181818166,
                "tempo": 120.0
            },
            {
                "start_time": 6.336363636363636,
                "end_time": 6.375,
                "pitch": 70,
                "velocity": 80,
                "duration": 0.038636363636364024,
                "tempo": 120.0
            },
            {
                "start_time": 6.375,
                "end_time": 6.431818181818182,
                "pitch": 67,
                "velocity": 80,
                "duration": 0.05681818181818166,
                "tempo": 120.0
            },
            {
                "start_time": 6.431818181818182,
                "end_time": 6.470454545454545,
                "pitch": 70,
                "velocity": 80,
                "duration": 0.038636363636363136,
                "tempo": 120.0
            },
            {
                "start_time": 6.470454545454545,
                "end_time": 6.527272727272727,
                "pitch": 67,
                "velocity": 80,
                "duration": 0.056818181818182545,
                "tempo": 120.0
            },
            {
                "start_time": 6.527272727272727,
                "end_time": 6.5659090909090905,
                "pitch": 70,
                "velocity": 80,
                "duration": 0.038636363636363136,
                "tempo": 120.0
            },
            {
                "start_time": 6.5659090909090905,
                "end_time": 6.622727272727272,
                "pitch": 67,
                "velocity": 80,
                "duration": 0.05681818181818166,
                "tempo": 120.0
            },
            {
                "start_time": 6.622727272727272,
                "end_time": 6.661363636363636,
                "pitch": 70,
                "velocity": 80,
                "duration": 0.038636363636364024,
                "tempo": 120.0
            },
            {
                "start_time": 6.661363636363636,
                "end_time": 6.718181818181818,
                "pitch": 67,
                "velocity": 80,
                "duration": 0.05681818181818166,
                "tempo": 120.0
            },
            {
                "start_time": 6.718181818181818,
                "end_time": 6.756818181818182,
                "pitch": 70,
                "velocity": 80,
                "duration": 0.038636363636364024,
                "tempo": 120.0
            },
            {
                "start_time": 6.756818181818182,
                "end_time": 6.8136363636363635,
                "pitch": 67,
                "velocity": 80,
                "duration": 0.05681818181818166,
                "tempo": 120.0
            },
            {
                "start_time": 6.8136363636363635,
                "end_time": 6.852272727272727,
                "pitch": 70,
                "velocity": 80,
                "duration": 0.038636363636363136,
                "tempo": 120.0
            },
            {
                "start_time": 6.852272727272727,
                "end_time": 6.909090909090909,
                "pitch": 67,
                "velocity": 80,
                "duration": 0.056818181818182545,
                "tempo": 120.0
            },
            {
                "start_time": 6.909090909090909,
                "end_time": 6.947727272727272,
                "pitch": 70,
                "velocity": 80,
                "duration": 0.038636363636363136,
                "tempo": 120.0
            },
            {
                "start_time": 6.947727272727272,
                "end_time": 7.004545454545454,
                "pitch": 67,
                "velocity": 80,
                "duration": 0.05681818181818166,
                "tempo": 120.0
            },
            {
                "start_time": 7.004545454545454,
                "end_time": 7.040909090909091,
                "pitch": 70,
                "velocity": 80,
                "duration": 0.03636363636363704,
                "tempo": 120.0
            },
            {
                "start_time": 7.040909090909091,
                "end_time": 7.095454545454545,
                "pitch": 67,
                "velocity": 80,
                "duration": 0.054545454545453786,
                "tempo": 120.0
            },
            {
                "start_time": 7.095454545454545,
                "end_time": 7.131818181818182,
                "pitch": 70,
                "velocity": 80,
                "duration": 0.03636363636363704,
                "tempo": 120.0
            },
            {
                "start_time": 7.131818181818182,
                "end_time": 7.186363636363636,
                "pitch": 67,
                "velocity": 80,
                "duration": 0.054545454545453786,
                "tempo": 120.0
            },
            {
                "start_time": 7.186363636363636,
                "end_time": 7.225,
                "pitch": 70,
                "velocity": 80,
                "duration": 0.038636363636364024,
                "tempo": 120.0
            },
            {
                "start_time": 7.225,
                "end_time": 7.279545454545454,
                "pitch": 67,
                "velocity": 80,
                "duration": 0.054545454545454675,
                "tempo": 120.0
            },
            {
                "start_time": 7.279545454545454,
                "end_time": 7.3159090909090905,
                "pitch": 70,
                "velocity": 80,
                "duration": 0.036363636363636154,
                "tempo": 120.0
            },
            {
                "start_time": 7.3159090909090905,
                "end_time": 7.370454545454545,
                "pitch": 67,
                "velocity": 80,
                "duration": 0.054545454545454675,
                "tempo": 120.0
            },
            {
                "start_time": 7.370454545454545,
                "end_time": 7.406818181818181,
                "pitch": 70,
                "velocity": 80,
                "duration": 0.036363636363636154,
                "tempo": 120.0
            },
            {
                "start_time": 7.406818181818181,
                "end_time": 7.461363636363636,
                "pitch": 67,
                "velocity": 80,
                "duration": 0.054545454545454675,
                "tempo": 120.0
            },
            {
                "start_time": 7.461363636363636,
                "end_time": 7.5,
                "pitch": 70,
                "velocity": 80,
                "duration": 0.038636363636364024,
                "tempo": 120.0
            },
            {
                "start_time": 7.5,
                "end_time": 7.554545454545454,
                "pitch": 67,
                "velocity": 80,
                "duration": 0.054545454545453786,
                "tempo": 120.0
            },
            {
                "start_time": 7.554545454545454,
                "end_time": 7.590909090909091,
                "pitch": 70,
                "velocity": 80,
                "duration": 0.03636363636363704,
                "tempo": 120.0
            },
            {
                "start_time": 7.590909090909091,
                "end_time": 7.6454545454545455,
                "pitch": 67,
                "velocity": 80,
                "duration": 0.054545454545454675,
                "tempo": 120.0
            },
            {
                "start_time": 7.6454545454545455,
                "end_time": 7.681818181818182,
                "pitch": 70,
                "velocity": 80,
                "duration": 0.036363636363636154,
                "tempo": 120.0
            },
            {
                "start_time": 7.681818181818182,
                "end_time": 7.736363636363636,
                "pitch": 67,
                "velocity": 80,
                "duration": 0.054545454545454675,
                "tempo": 120.0
            }
        ],
        "Violin": [
            {
                "start_time": 9.543181818181818,
                "end_time": 20.504545454545454,
                "pitch": 41,
                "velocity": 127,
                "duration": 10.961363636363636,
                "tempo": 120.0
            }
        ]
    }
}