{
    "track_id": "04_Battle",
    "mood": "angry",
    "instruments": {
        "Acoustic Bass": [
            {
                "start_time": 0.04772727272727272,
                "end_time": 0.1477272727272727,
                "pitch": 33,
                "velocity": 101,
                "duration": 0.09999999999999998,
                "tempo": 120.0
            },
            {
                "start_time": 0.1477272727272727,
                "end_time": 0.2477272727272727,
                "pitch": 33,
                "velocity": 101,
                "duration": 0.1,
                "tempo": 120.0
            },
            {
                "start_time": 0.2477272727272727,
                "end_time": 0.3659090909090909,
                "pitch": 36,
                "velocity": 101,
                "duration": 0.1181818181818182,
                "tempo": 120.0
            },
            {
                "start_time": 0.3659090909090909,
                "end_time": 0.48636363636363633,
                "pitch": 33,
                "velocity": 101,
                "duration": 0.12045454545454543,
                "tempo": 120.0
            },
            {
                "start_time": 0.48636363636363633,
                "end_time": 0.6068181818181818,
                "pitch": 38,
                "velocity": 101,
                "duration": 0.12045454545454548,
                "tempo": 120.0
            },
            {
                "start_time": 0.6068181818181818,
                "end_time": 0.7295454545454545,
                "pitch": 33,
                "velocity": 101,
                "duration": 0.12272727272727268,
                "tempo": 120.0
            },
            {
                "start_time": 0.2477272727272727,
                "end_time": 0.7295454545454545,
                "pitch": 40,
                "velocity": 101,
                "duration": 0.4818181818181818,
                "tempo": 120.0
            },
            {
                "start_time": 0.6068181818181818,
                "end_time": 0.85,
                "pitch": 7,
                "velocity": 101,
                "duration": 0.24318181818181817,
                "tempo": 120.0
            },
            {
                "start_time": 0.7295454545454545,
                "end_time": 0.85,
                "pitch": 36,
                "velocity": 101,
                "duration": 0.12045454545454548,
                "tempo": 120.0
            },
            {
                "start_time": 0.85,
                "end_time": 0.9704545454545455,
                "pitch": 33,
                "velocity": 101,
                "duration": 0.12045454545454548,
                "tempo": 120.0
            },
            {
                "start_time": 1.0909090909090908,
                "end_time": 1.2113636363636362,
                "pitch": 33,
                "velocity": 101,
                "duration": 0.12045454545454537,
                "tempo": 120.0
            },
            {
                "start_time": 0.7295454545454545,
                "end_time": 1.2113636363636362,
                "pitch": 40,
                "velocity": 101,
                "duration": 0.4818181818181817,
                "tempo": 120.0
            },
            {
                "start_time": 1.2113636363636362,
                "end_time": 1.3295454545454546,
                "pitch": 36,
                "velocity": 101,
                "duration": 0.11818181818181839,
                "tempo": 120.0
            },
            {
                "start_time": 1.3295454545454546,
                "end_time": 1.45,
                "pitch": 33,
                "velocity": 101,
                "duration": 0.12045454545454537,
                "tempo": 120.0
            },
            {
                "start_time": 0.85,
                "end_time": 1.5704545454545453,
                "pitch": 7,
                "velocity": 101,
                "duration": 0.7204545454545453,
                "tempo": 120.0
            },
            {
                "start_time": 1.45,
                "end_time": 1.5704545454545453,
                "pitch": 38,
                "velocity": 101,
                "duration": 0.12045454545454537,
                "tempo": 120.0
            },
            {
                "start_time": 1.5704545454545453,
                "end_time": 1.6886363636363635,
                "pitch": 33,
                "velocity": 101,
                "duration": 0.11818181818181817,
                "tempo": 120.0
            },
            {
                "start_time": 1.6886363636363635,
                "end_time": 1.9295454545454545,
                "pitch": 31,
                "velocity": 101,
                "duration": 0.24090909090909096,
                "tempo": 120.0
            },
            {
                "start_time": 1.6886363636363635,
                "end_time": 1.9295454545454545,
                "pitch": 31,
                "velocity": 101,
                "duration": 0.24090909090909096,
                "tempo": 120.0
            },
            {
                "start_time": 1.9295454545454545,
                "end_time": 2.047727272727273,
                "pitch": 33,
                "velocity": 101,
                "duration": 0.11818181818181839,
                "tempo": 120.0
            },
            {
                "start_time": 2.047727272727273,
                "end_time": 2.168181818181818,
                "pitch": 33,
                "velocity": 101,
                "duration": 0.12045454545454515,
                "tempo": 120.0
            },
            {
                "start_time": 1.2113636363636362,
                "end_time": 2.168181818181818,
                "pitch": 40,
                "velocity": 101,
                "duration": 0.9568181818181818,
                "tempo": 120.0
            },
            {
                "start_time": 1.5704545454545453,
                "end_time": 2.2886363636363636,
                "pitch": 7,
                "velocity": 101,
                "duration": 0.7181818181818183,
                "tempo": 120.0
            },
            {
                "start_time": 2.168181818181818,
                "end_time": 2.2886363636363636,
                "pitch": 36,
                "velocity": 101,
                "duration": 0.12045454545454559,
                "tempo": 120.0
            },
            {
                "start_time": 2.2886363636363636,
                "end_time": 2.409090909090909,
                "pitch": 33,
                "velocity": 101,
                "duration": 0.12045454545454559,
                "tempo": 120.0
            },
            {
                "start_time": 2.2886363636363636,
                "end_time": 2.5295454545454543,
                "pitch": 7,
                "velocity": 101,
                "duration": 0.24090909090909074,
                "tempo": 120.0
            },
            {
                "start_time": 2.409090909090909,
                "end_time": 2.5295454545454543,
                "pitch": 38,
                "velocity": 101,
                "duration": 0.12045454545454515,
                "tempo": 120.0
            },
            {
                "start_time": 2.5295454545454543,
                "end_time": 2.65,
                "pitch": 33,
                "velocity": 101,
                "duration": 0.12045454545454559,
                "tempo": 120.0
            },
            {
                "start_time": 2.168181818181818,
                "end_time": 2.65,
                "pitch": 40,
                "velocity": 101,
                "duration": 0.4818181818181819,
                "tempo": 120.0
            },
            {
                "start_time": 2.5295454545454543,
                "end_time": 2.768181818181818,
                "pitch": 7,
                "velocity": 101,
                "duration": 0.23863636363636376,
                "tempo": 120.0
            },
            {
                "start_time": 2.65,
                "end_time": 2.768181818181818,
                "pitch": 36,
                "velocity": 101,
                "duration": 0.11818181818181817,
                "tempo": 120.0
            },
            {
                "start_time": 2.768181818181818,
                "end_time": 2.8863636363636362,
                "pitch": 33,
                "velocity": 101,
                "duration": 0.11818181818181817,
                "tempo": 120.0
            },
            {
                "start_time": 2.8863636363636362,
                "end_time": 3.002272727272727,
                "pitch": 28,
                "velocity": 101,
                "duration": 0.11590909090909074,
                "tempo": 120.0
            },
            {
                "start_time": 3.002272727272727,
                "end_time": 3.120454545454545,
                "pitch": 33,
                "velocity": 101,
                "duration": 0.11818181818181817,
                "tempo": 120.0
            },
            {
                "start_time": 2.65,
                "end_time": 3.120454545454545,
                "pitch": 40,
                "velocity": 101,
                "duration": 0.47045454545454524,
                "tempo": 120.0
            },
            {
                "start_time": 2.768181818181818,
                "end_time": 3.2409090909090907,
                "pitch": 7,
                "velocity": 101,
                "duration": 0.47272727272727266,
                "tempo": 120.0
            },
            {
                "start_time": 3.120454545454545,
                "end_time": 3.2409090909090907,
                "pitch": 36,
                "velocity": 101,
                "duration": 0.12045454545454559,
                "tempo": 120.0
            },
            {
                "start_time": 3.2409090909090907,
                "end_time": 3.359090909090909,
                "pitch": 33,
                "velocity": 101,
                "duration": 0.11818181818181817,
                "tempo": 120.0
            },
            {
                "start_time": 3.120454545454545,
                "end_time": 3.359090909090909,
                "pitch": 40,
                "velocity": 101,
                "duration": 0.23863636363636376,
                "tempo": 120.0
            },
            {
                "start_time": 3.359090909090909,
                "end_time": 3.4795454545454545,
                "pitch": 36,
                "velocity": 101,
                "duration": 0.12045454545454559,
                "tempo": 120.0
            },
            {
                "start_time": 3.4795454545454545,
                "end_time": 3.5999999999999996,
                "pitch": 38,
                "velocity": 101,
                "duration": 0.12045454545454515,
                "tempo": 120.0
            },
            {
                "start_time": 3.5999999999999996,
                "end_time": 3.718181818181818,
                "pitch": 39,
                "velocity": 101,
                "duration": 0.11818181818181817,
                "tempo": 120.0
            },
            {
                "start_time": 3.2409090909090907,
                "end_time": 3.8386363636363634,
                "pitch": 7,
                "velocity": 101,
                "duration": 0.5977272727272727,
                "tempo": 120.0
            },
            {
                "start_time": 3.359090909090909,
                "end_time": 3.8386363636363634,
                "pitch": 40,
                "velocity": 101,
                "duration": 0.4795454545454545,
                "tempo": 120.0
            },
            {
                "start_time": 3.718181818181818,
                "end_time": 3.8386363636363634,
                "pitch": 40,
                "velocity": 101,
                "duration": 0.12045454545454559,
                "tempo": 120.0
            },
            {
                "start_time": 3.8386363636363634,
                "end_time": 3.959090909090909,
                "pitch": 33,
                "velocity": 101,
                "duration": 0.12045454545454559,
                "tempo": 120.0
            },
            {
                "start_time": 3.959090909090909,
                "end_time": 4.077272727272727,
                "pitch": 33,
                "velocity": 101,
                "duration": 0.11818181818181817,
                "tempo": 120.0
            },
            {
                "start_time": 3.8386363636363634,
                "end_time": 4.197727272727272,
                "pitch": 7,
                "velocity": 101,
                "duration": 0.3590909090909089,
                "tempo": 120.0
            },
            {
                "start_time": 4.077272727272727,
                "end_time": 4.197727272727272,
                "pitch": 36,
                "velocity": 101,
                "duration": 0.12045454545454515,
                "tempo": 120.0
            },
            {
                "start_time": 4.197727272727272,
                "end_time": 4.318181818181818,
                "pitch": 33,
                "velocity": 101,
                "duration": 0.12045454545454604,
                "tempo": 120.0
            },
            {
                "start_time": 0.48636363636363633,
                "end_time": 4.318181818181818,
                "pitch": 41,
                "velocity": 101,
                "duration": 3.831818181818182,
                "tempo": 120.0
            },
            {
                "start_time": 4.197727272727272,
                "end_time": 4.4363636363636365,
                "pitch": 7,
                "velocity": 101,
                "duration": 0.2386363636363642,
                "tempo": 120.0
            },
            {
                "start_time": 4.318181818181818,
                "end_time": 4.4363636363636365,
                "pitch": 38,
                "velocity": 101,
                "duration": 0.11818181818181817,
                "tempo": 120.0
            },
            {
                "start_time": 4.4363636363636365,
                "end_time": 4.556818181818182,
                "pitch": 33,
                "velocity": 101,
                "duration": 0.12045454545454515,
                "tempo": 120.0
            },
            {
                "start_time": 4.556818181818182,
                "end_time": 4.677272727272727,
                "pitch": 36,
                "velocity": 101,
                "duration": 0.12045454545454515,
                "tempo": 120.0
            },
            {
                "start_time": 4.677272727272727,
                "end_time": 4.797727272727273,
                "pitch": 33,
                "velocity": 101,
                "duration": 0.12045454545454604,
                "tempo": 120.0
            },
            {
                "start_time": 4.918181818181818,
                "end_time": 5.038636363636363,
                "pitch": 33,
                "velocity": 101,
                "duration": 0.12045454545454515,
                "tempo": 120.0
            },
            {
                "start_time": 4.077272727272727,
                "end_time": 5.038636363636363,
                "pitch": 40,
                "velocity": 101,
                "duration": 0.961363636363636,
                "tempo": 120.0
            },
            {
                "start_time": 5.038636363636363,
                "end_time": 5.159090909090909,
                "pitch": 36,
                "velocity": 101,
                "duration": 0.12045454545454604,
                "tempo": 120.0
            },
            {
                "start_time": 5.159090909090909,
                "end_time": 5.277272727272727,
                "pitch": 33,
                "velocity": 101,
                "duration": 0.11818181818181817,
                "tempo": 120.0
            },
            {
                "start_time": 4.4363636363636365,
                "end_time": 5.3977272727272725,
                "pitch": 7,
                "velocity": 101,
                "duration": 0.961363636363636,
                "tempo": 120.0
            },
            {
                "start_time": 5.277272727272727,
                "end_time": 5.3977272727272725,
                "pitch": 38,
                "velocity": 101,
                "duration": 0.12045454545454515,
                "tempo": 120.0
            },
            {
                "start_time": 5.3977272727272725,
                "end_time": 5.518181818181818,
                "pitch": 33,
                "velocity": 101,
                "duration": 0.12045454545454515,
                "tempo": 120.0
            },
            {
                "start_time": 5.518181818181818,
                "end_time": 5.752272727272727,
                "pitch": 31,
                "velocity": 101,
                "duration": 0.23409090909090935,
                "tempo": 120.0
            },
            {
                "start_time": 5.752272727272727,
                "end_time": 5.870454545454545,
                "pitch": 33,
                "velocity": 101,
                "duration": 0.11818181818181817,
                "tempo": 120.0
            },
            {
                "start_time": 5.752272727272727,
                "end_time": 5.870454545454545,
                "pitch": 33,
                "velocity": 101,
                "duration": 0.11818181818181817,
                "tempo": 120.0
            },
            {
                "start_time": 5.870454545454545,
                "end_time": 5.988636363636363,
                "pitch": 33,
                "velocity": 101,
                "duration": 0.11818181818181817,
                "tempo": 120.0
            },
            {
                "start_time": 5.988636363636363,
                "end_time": 6.1090909090909085,
                "pitch": 36,
                "velocity": 101,
                "duration": 0.12045454545454515,
                "tempo": 120.0
            },
            {
                "start_time": 6.1090909090909085,
                "end_time": 6.2295454545454545,
                "pitch": 33,
                "velocity": 101,
                "duration": 0.12045454545454604,
                "tempo": 120.0
            },
            {
                "start_time": 5.3977272727272725,
                "end_time": 6.35,
                "pitch": 7,
                "velocity": 101,
                "duration": 0.9522727272727272,
                "tempo": 120.0
            },
            {
                "start_time": 6.2295454545454545,
                "end_time": 6.35,
                "pitch": 38,
                "velocity": 101,
                "duration": 0.12045454545454515,
                "tempo": 120.0
            },
            {
                "start_time": 6.35,
                "end_time": 6.470454545454545,
                "pitch": 33,
                "velocity": 101,
                "duration": 0.12045454545454515,
                "tempo": 120.0
            },
            {
                "start_time": 5.038636363636363,
                "end_time": 6.470454545454545,
                "pitch": 40,
                "velocity": 101,
                "duration": 1.4318181818181817,
                "tempo": 120.0
            },
            {
                "start_time": 6.35,
                "end_time": 6.590909090909091,
                "pitch": 7,
                "velocity": 101,
                "duration": 0.24090909090909118,
                "tempo": 120.0
            },
            {
                "start_time": 6.470454545454545,
                "end_time": 6.590909090909091,
                "pitch": 36,
                "velocity": 101,
                "duration": 0.12045454545454604,
                "tempo": 120.0
            },
            {
                "start_time": 6.590909090909091,
                "end_time": 6.709090909090909,
                "pitch": 33,
                "velocity": 101,
                "duration": 0.11818181818181817,
                "tempo": 120.0
            },
            {
                "start_time": 2.8863636363636362,
                "end_time": 6.709090909090909,
                "pitch": 42,
                "velocity": 101,
                "duration": 3.8227272727272728,
                "tempo": 120.0
            },
            {
                "start_time": 6.709090909090909,
                "end_time": 6.829545454545454,
                "pitch": 28,
                "velocity": 101,
                "duration": 0.12045454545454515,
                "tempo": 120.0
            },
            {
                "start_time": 6.829545454545454,
                "end_time": 6.947727272727272,
                "pitch": 33,
                "velocity": 101,
                "duration": 0.11818181818181817,
                "tempo": 120.0
            },
            {
                "start_time": 6.470454545454545,
                "end_time": 6.947727272727272,
                "pitch": 40,
                "velocity": 101,
                "duration": 0.4772727272727275,
                "tempo": 120.0
            },
            {
                "start_time": 6.947727272727272,
                "end_time": 7.0681818181818175,
                "pitch": 36,
                "velocity": 101,
                "duration": 0.12045454545454515,
                "tempo": 120.0
            },
            {
                "start_time": 7.0681818181818175,
                "end_time": 7.1886363636363635,
                "pitch": 33,
                "velocity": 101,
                "duration": 0.12045454545454604,
                "tempo": 120.0
            },
            {
                "start_time": 6.947727272727272,
                "end_time": 7.1886363636363635,
                "pitch": 40,
                "velocity": 101,
                "duration": 0.24090909090909118,
                "tempo": 120.0
            },
            {
                "start_time": 7.1886363636363635,
                "end_time": 7.309090909090909,
                "pitch": 36,
                "velocity": 101,
                "duration": 0.12045454545454515,
                "tempo": 120.0
            },
            {
                "start_time": 7.309090909090909,
                "end_time": 7.431818181818182,
                "pitch": 38,
                "velocity": 101,
                "duration": 0.12272727272727302,
                "tempo": 120.0
            },
            {
                "start_time": 7.309090909090909,
                "end_time": 7.431818181818182,
                "pitch": 38,
                "velocity": 101,
                "duration": 0.12272727272727302,
                "tempo": 120.0
            },
            {
                "start_time": 7.431818181818182,
                "end_time": 7.552272727272727,
                "pitch": 39,
                "velocity": 101,
                "duration": 0.12045454545454515,
                "tempo": 120.0
            },
            {
                "start_time": 7.1886363636363635,
                "end_time": 7.672727272727272,
                "pitch": 40,
                "velocity": 101,
                "duration": 0.48409090909090846,
                "tempo": 120.0
            },
            {
                "start_time": 7.552272727272727,
                "end_time": 7.672727272727272,
                "pitch": 40,
                "velocity": 101,
                "duration": 0.12045454545454515,
                "tempo": 120.0
            },
            {
                "start_time": 7.672727272727272,
                "end_time": 7.793181818181818,
                "pitch": 26,
                "velocity": 101,
                "duration": 0.12045454545454604,
                "tempo": 120.0
            },
            {
                "start_time": 7.793181818181818,
                "end_time": 7.913636363636363,
                "pitch": 26,
                "velocity": 101,
                "duration": 0.12045454545454515,
                "tempo": 120.0
            },
            {
                "start_time": 7.913636363636363,
                "end_time": 8.031818181818181,
                "pitch": 38,
                "velocity": 101,
                "duration": 0.11818181818181817,
                "tempo": 120.0
            },
            {
                "start_time": 8.031818181818181,
                "end_time": 8.15,
                "pitch": 26,
                "velocity": 101,
                "duration": 0.11818181818181905,
                "tempo": 120.0
            },
            {
                "start_time": 8.15,
                "end_time": 8.26590909090909,
                "pitch": 29,
                "velocity": 101,
                "duration": 0.1159090909090903,
                "tempo": 120.0
            },
            {
                "start_time": 8.15,
                "end_time": 8.26590909090909,
                "pitch": 29,
                "velocity": 101,
                "duration": 0.1159090909090903,
                "tempo": 120.0
            },
            {
                "start_time": 8.26590909090909,
                "end_time": 8.384090909090908,
                "pitch": 31,
                "velocity": 101,
                "duration": 0.11818181818181728,
                "tempo": 120.0
            },
            {
                "start_time": 8.384090909090908,
                "end_time": 8.506818181818181,
                "pitch": 32,
                "velocity": 101,
                "duration": 0.12272727272727302,
                "tempo": 120.0
            },
            {
                "start_time": 8.506818181818181,
                "end_time": 8.629545454545454,
                "pitch": 33,
                "velocity": 101,
                "duration": 0.12272727272727302,
                "tempo": 120.0
            },
            {
                "start_time": 4.318181818181818,
                "end_time": 8.629545454545454,
                "pitch": 41,
                "velocity": 101,
                "duration": 4.311363636363636,
                "tempo": 120.0
            },
            {
                "start_time": 8.629545454545454,
                "end_time": 8.752272727272727,
                "pitch": 26,
                "velocity": 101,
                "duration": 0.12272727272727302,
                "tempo": 120.0
            },
            {
                "start_time": 8.752272727272727,
                "end_time": 8.875,
                "pitch": 26,
                "velocity": 101,
                "duration": 0.12272727272727302,
                "tempo": 120.0
            },
            {
                "start_time": 8.875,
                "end_time": 8.993181818181817,
                "pitch": 38,
                "velocity": 101,
                "duration": 0.11818181818181728,
                "tempo": 120.0
            },
            {
                "start_time": 8.993181818181817,
                "end_time": 9.10909090909091,
                "pitch": 26,
                "velocity": 101,
                "duration": 0.11590909090909207,
                "tempo": 120.0
            },
            {
                "start_time": 9.10909090909091,
                "end_time": 9.227272727272727,
                "pitch": 29,
                "velocity": 101,
                "duration": 0.11818181818181728,
                "tempo": 120.0
            },
            {
                "start_time": 9.10909090909091,
                "end_time": 9.227272727272727,
                "pitch": 29,
                "velocity": 101,
                "duration": 0.11818181818181728,
                "tempo": 120.0
            },
            {
                "start_time": 9.227272727272727,
                "end_time": 9.345454545454546,
                "pitch": 31,
                "velocity": 101,
                "duration": 0.11818181818181905,
                "tempo": 120.0
            },
            {
                "start_time": 9.345454545454546,
                "end_time": 9.46590909090909,
                "pitch": 32,
                "velocity": 101,
                "duration": 0.12045454545454426,
                "tempo": 120.0
            },
            {
                "start_time": 9.46590909090909,
                "end_time": 9.586363636363636,
                "pitch": 33,
                "velocity": 101,
                "duration": 0.12045454545454604,
                "tempo": 120.0
            },
            {
                "start_time": 8.629545454545454,
                "end_time": 9.586363636363636,
                "pitch": 41,
                "velocity": 101,
                "duration": 0.956818181818182,
                "tempo": 120.0
            },
            {
                "start_time": 9.586363636363636,
                "end_time": 9.706818181818182,
                "pitch": 26,
                "velocity": 101,
                "duration": 0.12045454545454604,
                "tempo": 120.0
            },
            {
                "start_time": 9.706818181818182,
                "end_time": 9.827272727272726,
                "pitch": 26,
                "velocity": 101,
                "duration": 0.12045454545454426,
                "tempo": 120.0
            },
            {
                "start_time": 9.827272727272726,
                "end_time": 9.947727272727272,
                "pitch": 38,
                "velocity": 101,
                "duration": 0.12045454545454604,
                "tempo": 120.0
            },
            {
                "start_time": 9.947727272727272,
                "end_time": 10.06590909090909,
                "pitch": 26,
                "velocity": 101,
                "duration": 0.11818181818181728,
                "tempo": 120.0
            },
            {
                "start_time": 9.227272727272727,
                "end_time": 10.186363636363636,
                "pitch": 0,
                "velocity": 101,
                "duration": 0.959090909090909,
                "tempo": 120.0
            },
            {
                "start_time": 10.06590909090909,
                "end_time": 10.186363636363636,
                "pitch": 29,
                "velocity": 101,
                "duration": 0.12045454545454604,
                "tempo": 120.0
            },
            {
                "start_time": 10.06590909090909,
                "end_time": 10.186363636363636,
                "pitch": 29,
                "velocity": 101,
                "duration": 0.12045454545454604,
                "tempo": 120.0
            },
            {
                "start_time": 10.186363636363636,
                "end_time": 10.306818181818182,
                "pitch": 31,
                "velocity": 101,
                "duration": 0.12045454545454604,
                "tempo": 120.0
            },
            {
                "start_time": 10.306818181818182,
                "end_time": 10.427272727272726,
                "pitch": 32,
                "velocity": 101,
                "duration": 0.12045454545454426,
                "tempo": 120.0
            },
            {
                "start_time": 10.427272727272726,
                "end_time": 10.547727272727272,
                "pitch": 33,
                "velocity": 101,
                "duration": 0.12045454545454604,
                "tempo": 120.0
            },
            {
                "start_time": 9.586363636363636,
                "end_time": 10.547727272727272,
                "pitch": 41,
                "velocity": 101,
                "duration": 0.961363636363636,
                "tempo": 120.0
            },
            {
                "start_time": 10.547727272727272,
                "end_time": 10.668181818181818,
                "pitch": 26,
                "velocity": 101,
                "duration": 0.12045454545454604,
                "tempo": 120.0
            },
            {
                "start_time": 10.668181818181818,
                "end_time": 10.788636363636362,
                "pitch": 26,
                "velocity": 101,
                "duration": 0.12045454545454426,
                "tempo": 120.0
            },
            {
                "start_time": 10.788636363636362,
                "end_time": 10.909090909090908,
                "pitch": 38,
                "velocity": 101,
                "duration": 0.12045454545454604,
                "tempo": 120.0
            },
            {
                "start_time": 10.909090909090908,
                "end_time": 11.029545454545454,
                "pitch": 26,
                "velocity": 101,
                "duration": 0.12045454545454604,
                "tempo": 120.0
            },
            {
                "start_time": 10.186363636363636,
                "end_time": 11.149999999999999,
                "pitch": 0,
                "velocity": 101,
                "duration": 0.963636363636363,
                "tempo": 120.0
            },
            {
                "start_time": 11.029545454545454,
                "end_time": 11.149999999999999,
                "pitch": 29,
                "velocity": 101,
                "duration": 0.12045454545454426,
                "tempo": 120.0
            },
            {
                "start_time": 11.029545454545454,
                "end_time": 11.149999999999999,
                "pitch": 29,
                "velocity": 101,
                "duration": 0.12045454545454426,
                "tempo": 120.0
            },
            {
                "start_time": 11.149999999999999,
                "end_time": 11.270454545454545,
                "pitch": 31,
                "velocity": 101,
                "duration": 0.12045454545454604,
                "tempo": 120.0
            },
            {
                "start_time": 11.270454545454545,
                "end_time": 11.388636363636364,
                "pitch": 32,
                "velocity": 101,
                "duration": 0.11818181818181905,
                "tempo": 120.0
            },
            {
                "start_time": 11.388636363636364,
                "end_time": 11.504545454545454,
                "pitch": 33,
                "velocity": 101,
                "duration": 0.1159090909090903,
                "tempo": 120.0
            },
            {
                "start_time": 11.504545454545454,
                "end_time": 11.622727272727273,
                "pitch": 33,
                "velocity": 101,
                "duration": 0.11818181818181905,
                "tempo": 120.0
            },
            {
                "start_time": 11.622727272727273,
                "end_time": 11.74090909090909,
                "pitch": 33,
                "velocity": 101,
                "duration": 0.11818181818181728,
                "tempo": 120.0
            },
            {
                "start_time": 6.590909090909091,
                "end_time": 11.861363636363636,
                "pitch": 7,
                "velocity": 101,
                "duration": 5.2704545454545455,
                "tempo": 120.0
            },
            {
                "start_time": 11.74090909090909,
                "end_time": 11.861363636363636,
                "pitch": 36,
                "velocity": 101,
                "duration": 0.12045454545454604,
                "tempo": 120.0
            },
            {
                "start_time": 11.861363636363636,
                "end_time": 11.979545454545454,
                "pitch": 33,
                "velocity": 101,
                "duration": 0.11818181818181728,
                "tempo": 120.0
            },
            {
                "start_time": 10.547727272727272,
                "end_time": 11.979545454545454,
                "pitch": 41,
                "velocity": 101,
                "duration": 1.4318181818181817,
                "tempo": 120.0
            },
            {
                "start_time": 11.979545454545454,
                "end_time": 12.1,
                "pitch": 38,
                "velocity": 101,
                "duration": 0.12045454545454604,
                "tempo": 120.0
            },
            {
                "start_time": 12.1,
                "end_time": 12.220454545454546,
                "pitch": 33,
                "velocity": 101,
                "duration": 0.12045454545454604,
                "tempo": 120.0
            },
            {
                "start_time": 11.74090909090909,
                "end_time": 12.220454545454546,
                "pitch": 40,
                "velocity": 101,
                "duration": 0.4795454545454554,
                "tempo": 120.0
            },
            {
                "start_time": 11.861363636363636,
                "end_time": 12.34090909090909,
                "pitch": 7,
                "velocity": 101,
                "duration": 0.4795454545454536,
                "tempo": 120.0
            },
            {
                "start_time": 12.220454545454546,
                "end_time": 12.34090909090909,
                "pitch": 36,
                "velocity": 101,
                "duration": 0.12045454545454426,
                "tempo": 120.0
            },
            {
                "start_time": 12.34090909090909,
                "end_time": 12.461363636363636,
                "pitch": 33,
                "velocity": 101,
                "duration": 0.12045454545454604,
                "tempo": 120.0
            },
            {
                "start_time": 12.581818181818182,
                "end_time": 12.702272727272726,
                "pitch": 33,
                "velocity": 101,
                "duration": 0.12045454545454426,
                "tempo": 120.0
            },
            {
                "start_time": 12.220454545454546,
                "end_time": 12.702272727272726,
                "pitch": 40,
                "velocity": 101,
                "duration": 0.4818181818181806,
                "tempo": 120.0
            },
            {
                "start_time": 12.34090909090909,
                "end_time": 12.822727272727272,
                "pitch": 7,
                "velocity": 101,
                "duration": 0.48181818181818237,
                "tempo": 120.0
            },
            {
                "start_time": 12.702272727272726,
                "end_time": 12.822727272727272,
                "pitch": 36,
                "velocity": 101,
                "duration": 0.12045454545454604,
                "tempo": 120.0
            },
            {
                "start_time": 12.822727272727272,
                "end_time": 12.943181818181818,
                "pitch": 33,
                "velocity": 101,
                "duration": 0.12045454545454604,
                "tempo": 120.0
            },
            {
                "start_time": 12.822727272727272,
                "end_time": 13.063636363636363,
                "pitch": 7,
                "velocity": 101,
                "duration": 0.2409090909090903,
                "tempo": 120.0
            },
            {
                "start_time": 12.943181818181818,
                "end_time": 13.063636363636363,
                "pitch": 38,
                "velocity": 101,
                "duration": 0.12045454545454426,
                "tempo": 120.0
            },
            {
                "start_time": 13.063636363636363,
                "end_time": 13.184090909090909,
                "pitch": 33,
                "velocity": 101,
                "duration": 0.12045454545454604,
                "tempo": 120.0
            },
            {
                "start_time": 13.184090909090909,
                "end_time": 13.424999999999999,
                "pitch": 31,
                "velocity": 101,
                "duration": 0.2409090909090903,
                "tempo": 120.0
            },
            {
                "start_time": 13.184090909090909,
                "end_time": 13.424999999999999,
                "pitch": 31,
                "velocity": 101,
                "duration": 0.2409090909090903,
                "tempo": 120.0
            },
            {
                "start_time": 13.424999999999999,
                "end_time": 13.545454545454545,
                "pitch": 33,
                "velocity": 101,
                "duration": 0.12045454545454604,
                "tempo": 120.0
            },
            {
                "start_time": 13.545454545454545,
                "end_time": 13.665909090909091,
                "pitch": 33,
                "velocity": 101,
                "duration": 0.12045454545454604,
                "tempo": 120.0
            },
            {
                "start_time": 13.063636363636363,
                "end_time": 13.786363636363635,
                "pitch": 7,
                "velocity": 101,
                "duration": 0.7227272727272727,
                "tempo": 120.0
            },
            {
                "start_time": 13.665909090909091,
                "end_time": 13.786363636363635,
                "pitch": 36,
                "velocity": 101,
                "duration": 0.12045454545454426,
                "tempo": 120.0
            },
            {
                "start_time": 13.786363636363635,
                "end_time": 13.904545454545454,
                "pitch": 33,
                "velocity": 101,
                "duration": 0.11818181818181905,
                "tempo": 120.0
            },
            {
                "start_time": 11.979545454545454,
                "end_time": 13.904545454545454,
                "pitch": 41,
                "velocity": 101,
                "duration": 1.9250000000000007,
                "tempo": 120.0
            },
            {
                "start_time": 13.786363636363635,
                "end_time": 14.024999999999999,
                "pitch": 7,
                "velocity": 101,
                "duration": 0.2386363636363633,
                "tempo": 120.0
            },
            {
                "start_time": 13.904545454545454,
                "end_time": 14.024999999999999,
                "pitch": 38,
                "velocity": 101,
                "duration": 0.12045454545454426,
                "tempo": 120.0
            },
            {
                "start_time": 14.024999999999999,
                "end_time": 14.145454545454545,
                "pitch": 33,
                "velocity": 101,
                "duration": 0.12045454545454604,
                "tempo": 120.0
            },
            {
                "start_time": 12.702272727272726,
                "end_time": 14.145454545454545,
                "pitch": 40,
                "velocity": 101,
                "duration": 1.4431818181818183,
                "tempo": 120.0
            },
            {
                "start_time": 14.024999999999999,
                "end_time": 14.26590909090909,
                "pitch": 7,
                "velocity": 101,
                "duration": 0.24090909090909207,
                "tempo": 120.0
            },
            {
                "start_time": 14.145454545454545,
                "end_time": 14.26590909090909,
                "pitch": 36,
                "velocity": 101,
                "duration": 0.12045454545454604,
                "tempo": 120.0
            },
            {
                "start_time": 14.26590909090909,
                "end_time": 14.386363636363635,
                "pitch": 33,
                "velocity": 101,
                "duration": 0.12045454545454426,
                "tempo": 120.0
            },
            {
                "start_time": 6.709090909090909,
                "end_time": 14.386363636363635,
                "pitch": 42,
                "velocity": 101,
                "duration": 7.677272727272726,
                "tempo": 120.0
            },
            {
                "start_time": 14.386363636363635,
                "end_time": 14.506818181818181,
                "pitch": 28,
                "velocity": 101,
                "duration": 0.12045454545454604,
                "tempo": 120.0
            },
            {
                "start_time": 14.506818181818181,
                "end_time": 14.627272727272727,
                "pitch": 33,
                "velocity": 101,
                "duration": 0.12045454545454604,
                "tempo": 120.0
            },
            {
                "start_time": 14.145454545454545,
                "end_time": 14.627272727272727,
                "pitch": 40,
                "velocity": 101,
                "duration": 0.48181818181818237,
                "tempo": 120.0
            },
            {
                "start_time": 14.26590909090909,
                "end_time": 14.747727272727271,
                "pitch": 7,
                "velocity": 101,
                "duration": 0.4818181818181806,
                "tempo": 120.0
            },
            {
                "start_time": 14.627272727272727,
                "end_time": 14.747727272727271,
                "pitch": 36,
                "velocity": 101,
                "duration": 0.12045454545454426,
                "tempo": 120.0
            },
            {
                "start_time": 14.747727272727271,
                "end_time": 14.868181818181817,
                "pitch": 33,
                "velocity": 101,
                "duration": 0.12045454545454604,
                "tempo": 120.0
            },
            {
                "start_time": 14.627272727272727,
                "end_time": 14.868181818181817,
                "pitch": 40,
                "velocity": 101,
                "duration": 0.2409090909090903,
                "tempo": 120.0
            },
            {
                "start_time": 14.868181818181817,
                "end_time": 14.988636363636363,
                "pitch": 36,
                "velocity": 101,
                "duration": 0.12045454545454604,
                "tempo": 120.0
            },
            {
                "start_time": 14.988636363636363,
                "end_time": 15.109090909090908,
                "pitch": 38,
                "velocity": 101,
                "duration": 0.12045454545454426,
                "tempo": 120.0
            },
            {
                "start_time": 15.109090909090908,
                "end_time": 15.227272727272727,
                "pitch": 39,
                "velocity": 101,
                "duration": 0.11818181818181905,
                "tempo": 120.0
            },
            {
                "start_time": 14.868181818181817,
                "end_time": 15.345454545454544,
                "pitch": 40,
                "velocity": 101,
                "duration": 0.4772727272727266,
                "tempo": 120.0
            },
            {
                "start_time": 15.227272727272727,
                "end_time": 15.345454545454544,
                "pitch": 40,
                "velocity": 101,
                "duration": 0.11818181818181728,
                "tempo": 120.0
            },
            {
                "start_time": 15.345454545454544,
                "end_time": 15.461363636363636,
                "pitch": 24,
                "velocity": 101,
                "duration": 0.11590909090909207,
                "tempo": 120.0
            },
            {
                "start_time": 15.461363636363636,
                "end_time": 15.579545454545453,
                "pitch": 24,
                "velocity": 101,
                "duration": 0.11818181818181728,
                "tempo": 120.0
            },
            {
                "start_time": 15.579545454545453,
                "end_time": 15.7,
                "pitch": 36,
                "velocity": 101,
                "duration": 0.12045454545454604,
                "tempo": 120.0
            },
            {
                "start_time": 15.7,
                "end_time": 15.820454545454545,
                "pitch": 24,
                "velocity": 101,
                "duration": 0.12045454545454604,
                "tempo": 120.0
            },
            {
                "start_time": 15.938636363636363,
                "end_time": 16.05909090909091,
                "pitch": 24,
                "velocity": 101,
                "duration": 0.12045454545454604,
                "tempo": 120.0
            },
            {
                "start_time": 16.05909090909091,
                "end_time": 16.179545454545455,
                "pitch": 36,
                "velocity": 101,
                "duration": 0.12045454545454604,
                "tempo": 120.0
            },
            {
                "start_time": 16.3,
                "end_time": 16.420454545454543,
                "pitch": 26,
                "velocity": 101,
                "duration": 0.12045454545454248,
                "tempo": 120.0
            },
            {
                "start_time": 16.420454545454543,
                "end_time": 16.54090909090909,
                "pitch": 26,
                "velocity": 101,
                "duration": 0.12045454545454604,
                "tempo": 120.0
            },
            {
                "start_time": 16.54090909090909,
                "end_time": 16.661363636363635,
                "pitch": 38,
                "velocity": 101,
                "duration": 0.12045454545454604,
                "tempo": 120.0
            },
            {
                "start_time": 16.661363636363635,
                "end_time": 16.78181818181818,
                "pitch": 26,
                "velocity": 101,
                "duration": 0.12045454545454604,
                "tempo": 120.0
            },
            {
                "start_time": 11.149999999999999,
                "end_time": 16.902272727272727,
                "pitch": 0,
                "velocity": 101,
                "duration": 5.752272727272729,
                "tempo": 120.0
            },
            {
                "start_time": 16.78181818181818,
                "end_time": 16.902272727272727,
                "pitch": 29,
                "velocity": 101,
                "duration": 0.12045454545454604,
                "tempo": 120.0
            },
            {
                "start_time": 16.78181818181818,
                "end_time": 16.902272727272727,
                "pitch": 29,
                "velocity": 101,
                "duration": 0.12045454545454604,
                "tempo": 120.0
            },
            {
                "start_time": 16.902272727272727,
                "end_time": 17.022727272727273,
                "pitch": 31,
                "velocity": 101,
                "duration": 0.12045454545454604,
                "tempo": 120.0
            },
            {
                "start_time": 17.022727272727273,
                "end_time": 17.143181818181816,
                "pitch": 32,
                "velocity": 101,
                "duration": 0.12045454545454248,
                "tempo": 120.0
            },
            {
                "start_time": 17.143181818181816,
                "end_time": 17.263636363636362,
                "pitch": 33,
                "velocity": 101,
                "duration": 0.12045454545454604,
                "tempo": 120.0
            },
            {
                "start_time": 17.263636363636362,
                "end_time": 17.384090909090908,
                "pitch": 33,
                "velocity": 101,
                "duration": 0.12045454545454604,
                "tempo": 120.0
            },
            {
                "start_time": 17.384090909090908,
                "end_time": 17.506818181818183,
                "pitch": 33,
                "velocity": 101,
                "duration": 0.1227272727272748,
                "tempo": 120.0
            },
            {
                "start_time": 17.506818181818183,
                "end_time": 17.627272727272725,
                "pitch": 45,
                "velocity": 101,
                "duration": 0.12045454545454248,
                "tempo": 120.0
            },
            {
                "start_time": 17.627272727272725,
                "end_time": 17.74772727272727,
                "pitch": 33,
                "velocity": 101,
                "duration": 0.12045454545454604,
                "tempo": 120.0
            },
            {
                "start_time": 17.868181818181817,
                "end_time": 17.988636363636363,
                "pitch": 31,
                "velocity": 101,
                "duration": 0.12045454545454604,
                "tempo": 120.0
            },
            {
                "start_time": 18.10681818181818,
                "end_time": 18.222727272727273,
                "pitch": 33,
                "velocity": 101,
                "duration": 0.11590909090909207,
                "tempo": 120.0
            },
            {
                "start_time": 18.222727272727273,
                "end_time": 18.34090909090909,
                "pitch": 33,
                "velocity": 101,
                "duration": 0.11818181818181728,
                "tempo": 120.0
            },
            {
                "start_time": 18.34090909090909,
                "end_time": 18.459090909090907,
                "pitch": 33,
                "velocity": 101,
                "duration": 0.11818181818181728,
                "tempo": 120.0
            },
            {
                "start_time": 18.459090909090907,
                "end_time": 18.579545454545453,
                "pitch": 33,
                "velocity": 101,
                "duration": 0.12045454545454604,
                "tempo": 120.0
            },
            {
                "start_time": 18.579545454545453,
                "end_time": 18.7,
                "pitch": 33,
                "velocity": 101,
                "duration": 0.12045454545454604,
                "tempo": 120.0
            },
            {
                "start_time": 18.7,
                "end_time": 18.820454545454545,
                "pitch": 33,
                "velocity": 101,
                "duration": 0.12045454545454604,
                "tempo": 120.0
            },
            {
                "start_time": 18.820454545454545,
                "end_time": 18.94090909090909,
                "pitch": 31,
                "velocity": 101,
                "duration": 0.12045454545454604,
                "tempo": 120.0
            },
            {
                "start_time": 18.820454545454545,
                "end_time": 18.94090909090909,
                "pitch": 31,
                "velocity": 101,
                "duration": 0.12045454545454604,
                "tempo": 120.0
            },
            {
                "start_time": 18.94090909090909,
                "end_time": 19.061363636363634,
                "pitch": 33,
                "velocity": 101,
                "duration": 0.12045454545454248,
                "tempo": 120.0
            },
            {
                "start_time": 18.94090909090909,
                "end_time": 19.061363636363634,
                "pitch": 33,
                "velocity": 101,
                "duration": 0.12045454545454248,
                "tempo": 120.0
            },
            {
                "start_time": 19.061363636363634,
                "end_time": 19.18181818181818,
                "pitch": 31,
                "velocity": 101,
                "duration": 0.12045454545454604,
                "tempo": 120.0
            },
            {
                "start_time": 19.18181818181818,
                "end_time": 19.302272727272726,
                "pitch": 24,
                "velocity": 101,
                "duration": 0.12045454545454604,
                "tempo": 120.0
            },
            {
                "start_time": 19.302272727272726,
                "end_time": 19.422727272727272,
                "pitch": 24,
                "velocity": 101,
                "duration": 0.12045454545454604,
                "tempo": 120.0
            },
            {
                "start_time": 19.422727272727272,
                "end_time": 19.543181818181818,
                "pitch": 36,
                "velocity": 101,
                "duration": 0.12045454545454604,
                "tempo": 120.0
            },
            {
                "start_time": 19.543181818181818,
                "end_time": 19.663636363636364,
                "pitch": 24,
                "velocity": 101,
                "duration": 0.12045454545454604,
                "tempo": 120.0
            },
            {
                "start_time": 19.786363636363635,
                "end_time": 19.90681818181818,
                "pitch": 24,
                "velocity": 101,
                "duration": 0.12045454545454604,
                "tempo": 120.0
            },
            {
                "start_time": 19.90681818181818,
                "end_time": 20.027272727272727,
                "pitch": 36,
                "velocity": 101,
                "duration": 0.12045454545454604,
                "tempo": 120.0
            },
            {
                "start_time": 20.145454545454545,
                "end_time": 20.26590909090909,
                "pitch": 26,
                "velocity": 101,
                "duration": 0.12045454545454604,
                "tempo": 120.0
            },
            {
                "start_time": 20.26590909090909,
                "end_time": 20.388636363636362,
                "pitch": 26,
                "velocity": 101,
                "duration": 0.12272727272727124,
                "tempo": 120.0
            },
            {
                "start_time": 20.388636363636362,
                "end_time": 20.50681818181818,
                "pitch": 38,
                "velocity": 101,
                "duration": 0.11818181818181728,
                "tempo": 120.0
            },
            {
                "start_time": 20.50681818181818,
                "end_time": 20.627272727272725,
                "pitch": 26,
                "velocity": 101,
                "duration": 0.12045454545454604,
                "tempo": 120.0
            },
            {
                "start_time": 20.627272727272725,
                "end_time": 20.74772727272727,
                "pitch": 29,
                "velocity": 101,
                "duration": 0.12045454545454604,
                "tempo": 120.0
            },
            {
                "start_time": 20.627272727272725,
                "end_time": 20.74772727272727,
                "pitch": 29,
                "velocity": 101,
                "duration": 0.12045454545454604,
                "tempo": 120.0
            },
            {
                "start_time": 20.74772727272727,
                "end_time": 20.86590909090909,
                "pitch": 31,
                "velocity": 101,
                "duration": 0.11818181818181728,
                "tempo": 120.0
            },
            {
                "start_time": 20.86590909090909,
                "end_time": 20.98409090909091,
                "pitch": 32,
                "velocity": 101,
                "duration": 0.11818181818182083,
                "tempo": 120.0
            },
            {
                "start_time": 20.98409090909091,
                "end_time": 21.102272727272727,
                "pitch": 33,
                "velocity": 101,
                "duration": 0.11818181818181728,
                "tempo": 120.0
            },
            {
                "start_time": 21.102272727272727,
                "end_time": 21.21818181818182,
                "pitch": 33,
                "velocity": 101,
                "duration": 0.11590909090909207,
                "tempo": 120.0
            },
            {
                "start_time": 21.220454545454544,
                "end_time": 21.336363636363636,
                "pitch": 33,
                "velocity": 101,
                "duration": 0.11590909090909207,
                "tempo": 120.0
            },
            {
                "start_time": 21.336363636363636,
                "end_time": 21.459090909090907,
                "pitch": 45,
                "velocity": 101,
                "duration": 0.12272727272727124,
                "tempo": 120.0
            },
            {
                "start_time": 21.459090909090907,
                "end_time": 21.579545454545453,
                "pitch": 33,
                "velocity": 101,
                "duration": 0.12045454545454604,
                "tempo": 120.0
            },
            {
                "start_time": 21.7,
                "end_time": 21.820454545454545,
                "pitch": 31,
                "velocity": 101,
                "duration": 0.12045454545454604,
                "tempo": 120.0
            },
            {
                "start_time": 21.938636363636363,
                "end_time": 22.05909090909091,
                "pitch": 33,
                "velocity": 101,
                "duration": 0.12045454545454604,
                "tempo": 120.0
            },
            {
                "start_time": 22.05909090909091,
                "end_time": 22.179545454545455,
                "pitch": 33,
                "velocity": 101,
                "duration": 0.12045454545454604,
                "tempo": 120.0
            },
            {
                "start_time": 22.179545454545455,
                "end_time": 22.297727272727272,
                "pitch": 33,
                "velocity": 101,
                "duration": 0.11818181818181728,
                "tempo": 120.0
            },
            {
                "start_time": 22.297727272727272,
                "end_time": 22.418181818181818,
                "pitch": 45,
                "velocity": 101,
                "duration": 0.12045454545454604,
                "tempo": 120.0
            },
            {
                "start_time": 22.418181818181818,
                "end_time": 22.538636363636364,
                "pitch": 33,
                "velocity": 101,
                "duration": 0.12045454545454604,
                "tempo": 120.0
            },
            {
                "start_time": 22.659090909090907,
                "end_time": 22.779545454545453,
                "pitch": 33,
                "velocity": 101,
                "duration": 0.12045454545454604,
                "tempo": 120.0
            },
            {
                "start_time": 22.779545454545453,
                "end_time": 22.9,
                "pitch": 45,
                "velocity": 101,
                "duration": 0.12045454545454604,
                "tempo": 120.0
            },
            {
                "start_time": 23.020454545454545,
                "end_time": 23.14090909090909,
                "pitch": 35,
                "velocity": 101,
                "duration": 0.12045454545454604,
                "tempo": 120.0
            },
            {
                "start_time": 23.14090909090909,
                "end_time": 23.263636363636362,
                "pitch": 35,
                "velocity": 101,
                "duration": 0.12272727272727124,
                "tempo": 120.0
            },
            {
                "start_time": 13.904545454545454,
                "end_time": 23.263636363636362,
                "pitch": 41,
                "velocity": 101,
                "duration": 9.359090909090908,
                "tempo": 120.0
            },
            {
                "start_time": 23.263636363636362,
                "end_time": 23.384090909090908,
                "pitch": 38,
                "velocity": 101,
                "duration": 0.12045454545454604,
                "tempo": 120.0
            },
            {
                "start_time": 23.384090909090908,
                "end_time": 23.504545454545454,
                "pitch": 35,
                "velocity": 101,
                "duration": 0.12045454545454604,
                "tempo": 120.0
            },
            {
                "start_time": 14.386363636363635,
                "end_time": 23.504545454545454,
                "pitch": 42,
                "velocity": 101,
                "duration": 9.118181818181819,
                "tempo": 120.0
            },
            {
                "start_time": 23.384090909090908,
                "end_time": 23.625,
                "pitch": 20,
                "velocity": 101,
                "duration": 0.24090909090909207,
                "tempo": 120.0
            },
            {
                "start_time": 19.18181818181818,
                "end_time": 23.625,
                "pitch": 40,
                "velocity": 101,
                "duration": 4.44318181818182,
                "tempo": 120.0
            },
            {
                "start_time": 23.504545454545454,
                "end_time": 23.625,
                "pitch": 40,
                "velocity": 101,
                "duration": 0.12045454545454604,
                "tempo": 120.0
            },
            {
                "start_time": 23.625,
                "end_time": 23.745454545454546,
                "pitch": 35,
                "velocity": 101,
                "duration": 0.12045454545454604,
                "tempo": 120.0
            },
            {
                "start_time": 23.263636363636362,
                "end_time": 23.745454545454546,
                "pitch": 41,
                "velocity": 101,
                "duration": 0.48181818181818414,
                "tempo": 120.0
            },
            {
                "start_time": 23.625,
                "end_time": 23.861363636363635,
                "pitch": 20,
                "velocity": 101,
                "duration": 0.23636363636363455,
                "tempo": 120.0
            },
            {
                "start_time": 23.745454545454546,
                "end_time": 23.861363636363635,
                "pitch": 38,
                "velocity": 101,
                "duration": 0.11590909090908852,
                "tempo": 120.0
            },
            {
                "start_time": 23.861363636363635,
                "end_time": 23.979545454545452,
                "pitch": 35,
                "velocity": 101,
                "duration": 0.11818181818181728,
                "tempo": 120.0
            },
            {
                "start_time": 24.097727272727273,
                "end_time": 24.21590909090909,
                "pitch": 35,
                "velocity": 101,
                "duration": 0.11818181818181728,
                "tempo": 120.0
            },
            {
                "start_time": 23.745454545454546,
                "end_time": 24.21590909090909,
                "pitch": 41,
                "velocity": 101,
                "duration": 0.4704545454545439,
                "tempo": 120.0
            },
            {
                "start_time": 23.861363636363635,
                "end_time": 24.336363636363636,
                "pitch": 20,
                "velocity": 101,
                "duration": 0.4750000000000014,
                "tempo": 120.0
            },
            {
                "start_time": 24.21590909090909,
                "end_time": 24.336363636363636,
                "pitch": 38,
                "velocity": 101,
                "duration": 0.12045454545454604,
                "tempo": 120.0
            },
            {
                "start_time": 24.336363636363636,
                "end_time": 24.456818181818182,
                "pitch": 35,
                "velocity": 101,
                "duration": 0.12045454545454604,
                "tempo": 120.0
            },
            {
                "start_time": 23.504545454545454,
                "end_time": 24.456818181818182,
                "pitch": 42,
                "velocity": 101,
                "duration": 0.952272727272728,
                "tempo": 120.0
            },
            {
                "start_time": 24.336363636363636,
                "end_time": 24.577272727272724,
                "pitch": 20,
                "velocity": 101,
                "duration": 0.24090909090908852,
                "tempo": 120.0
            },
            {
                "start_time": 24.456818181818182,
                "end_time": 24.577272727272724,
                "pitch": 40,
                "velocity": 101,
                "duration": 0.12045454545454248,
                "tempo": 120.0
            },
            {
                "start_time": 24.577272727272724,
                "end_time": 24.69772727272727,
                "pitch": 35,
                "velocity": 101,
                "duration": 0.12045454545454604,
                "tempo": 120.0
            },
            {
                "start_time": 24.69772727272727,
                "end_time": 24.938636363636363,
                "pitch": 33,
                "velocity": 101,
                "duration": 0.24090909090909207,
                "tempo": 120.0
            },
            {
                "start_time": 24.69772727272727,
                "end_time": 24.938636363636363,
                "pitch": 33,
                "velocity": 101,
                "duration": 0.24090909090909207,
                "tempo": 120.0
            },
            {
                "start_time": 24.938636363636363,
                "end_time": 25.05909090909091,
                "pitch": 35,
                "velocity": 101,
                "duration": 0.12045454545454604,
                "tempo": 120.0
            },
            {
                "start_time": 24.938636363636363,
                "end_time": 25.05909090909091,
                "pitch": 35,
                "velocity": 101,
                "duration": 0.12045454545454604,
                "tempo": 120.0
            },
            {
                "start_time": 25.05909090909091,
                "end_time": 25.179545454545455,
                "pitch": 35,
                "velocity": 101,
                "duration": 0.12045454545454604,
                "tempo": 120.0
            },
            {
                "start_time": 24.21590909090909,
                "end_time": 25.179545454545455,
                "pitch": 41,
                "velocity": 101,
                "duration": 0.9636363636363647,
                "tempo": 120.0
            },
            {
                "start_time": 25.179545454545455,
                "end_time": 25.299999999999997,
                "pitch": 38,
                "velocity": 101,
                "duration": 0.12045454545454248,
                "tempo": 120.0
            },
            {
                "start_time": 25.299999999999997,
                "end_time": 25.420454545454543,
                "pitch": 35,
                "velocity": 101,
                "duration": 0.12045454545454604,
                "tempo": 120.0
            },
            {
                "start_time": 24.456818181818182,
                "end_time": 25.420454545454543,
                "pitch": 42,
                "velocity": 101,
                "duration": 0.9636363636363612,
                "tempo": 120.0
            },
            {
                "start_time": 24.577272727272724,
                "end_time": 25.54090909090909,
                "pitch": 20,
                "velocity": 101,
                "duration": 0.9636363636363647,
                "tempo": 120.0
            },
            {
                "start_time": 25.420454545454543,
                "end_time": 25.54090909090909,
                "pitch": 40,
                "velocity": 101,
                "duration": 0.12045454545454604,
                "tempo": 120.0
            },
            {
                "start_time": 25.54090909090909,
                "end_time": 25.661363636363635,
                "pitch": 35,
                "velocity": 101,
                "duration": 0.12045454545454604,
                "tempo": 120.0
            },
            {
                "start_time": 25.179545454545455,
                "end_time": 25.663636363636364,
                "pitch": 41,
                "velocity": 101,
                "duration": 0.48409090909090935,
                "tempo": 120.0
            },
            {
                "start_time": 25.661363636363635,
                "end_time": 25.663636363636364,
                "pitch": 41,
                "velocity": 101,
                "duration": 0.0022727272727287584,
                "tempo": 120.0
            },
            {
                "start_time": 25.663636363636364,
                "end_time": 25.784090909090907,
                "pitch": 38,
                "velocity": 101,
                "duration": 0.12045454545454248,
                "tempo": 120.0
            },
            {
                "start_time": 25.784090909090907,
                "end_time": 25.904545454545453,
                "pitch": 35,
                "velocity": 101,
                "duration": 0.12045454545454604,
                "tempo": 120.0
            },
            {
                "start_time": 25.420454545454543,
                "end_time": 25.904545454545453,
                "pitch": 42,
                "velocity": 101,
                "duration": 0.48409090909090935,
                "tempo": 120.0
            },
            {
                "start_time": 25.904545454545453,
                "end_time": 26.025,
                "pitch": 30,
                "velocity": 101,
                "duration": 0.12045454545454604,
                "tempo": 120.0
            },
            {
                "start_time": 26.025,
                "end_time": 26.145454545454545,
                "pitch": 35,
                "velocity": 101,
                "duration": 0.12045454545454604,
                "tempo": 120.0
            },
            {
                "start_time": 26.145454545454545,
                "end_time": 26.26590909090909,
                "pitch": 38,
                "velocity": 101,
                "duration": 0.12045454545454604,
                "tempo": 120.0
            },
            {
                "start_time": 26.26590909090909,
                "end_time": 26.386363636363637,
                "pitch": 35,
                "velocity": 101,
                "duration": 0.12045454545454604,
                "tempo": 120.0
            },
            {
                "start_time": 26.145454545454545,
                "end_time": 26.386363636363637,
                "pitch": 41,
                "velocity": 101,
                "duration": 0.24090909090909207,
                "tempo": 120.0
            },
            {
                "start_time": 26.386363636363637,
                "end_time": 26.50681818181818,
                "pitch": 38,
                "velocity": 101,
                "duration": 0.12045454545454248,
                "tempo": 120.0
            },
            {
                "start_time": 26.50681818181818,
                "end_time": 26.627272727272725,
                "pitch": 40,
                "velocity": 101,
                "duration": 0.12045454545454604,
                "tempo": 120.0
            },
            {
                "start_time": 26.386363636363637,
                "end_time": 26.74772727272727,
                "pitch": 41,
                "velocity": 101,
                "duration": 0.36136363636363455,
                "tempo": 120.0
            },
            {
                "start_time": 26.627272727272725,
                "end_time": 26.74772727272727,
                "pitch": 41,
                "velocity": 101,
                "duration": 0.12045454545454604,
                "tempo": 120.0
            },
            {
                "start_time": 25.904545454545453,
                "end_time": 26.868181818181817,
                "pitch": 42,
                "velocity": 101,
                "duration": 0.9636363636363647,
                "tempo": 120.0
            },
            {
                "start_time": 26.74772727272727,
                "end_time": 26.868181818181817,
                "pitch": 42,
                "velocity": 101,
                "duration": 0.12045454545454604,
                "tempo": 120.0
            },
            {
                "start_time": 26.868181818181817,
                "end_time": 26.988636363636363,
                "pitch": 28,
                "velocity": 101,
                "duration": 0.12045454545454604,
                "tempo": 120.0
            },
            {
                "start_time": 26.988636363636363,
                "end_time": 27.10909090909091,
                "pitch": 28,
                "velocity": 101,
                "duration": 0.12045454545454604,
                "tempo": 120.0
            },
            {
                "start_time": 26.868181818181817,
                "end_time": 27.227272727272727,
                "pitch": 40,
                "velocity": 101,
                "duration": 0.35909090909090935,
                "tempo": 120.0
            },
            {
                "start_time": 27.10909090909091,
                "end_time": 27.227272727272727,
                "pitch": 40,
                "velocity": 101,
                "duration": 0.11818181818181728,
                "tempo": 120.0
            },
            {
                "start_time": 27.227272727272727,
                "end_time": 27.345454545454544,
                "pitch": 28,
                "velocity": 101,
                "duration": 0.11818181818181728,
                "tempo": 120.0
            },
            {
                "start_time": 27.345454545454544,
                "end_time": 27.46363636363636,
                "pitch": 31,
                "velocity": 101,
                "duration": 0.11818181818181728,
                "tempo": 120.0
            },
            {
                "start_time": 27.46363636363636,
                "end_time": 27.579545454545453,
                "pitch": 33,
                "velocity": 101,
                "duration": 0.11590909090909207,
                "tempo": 120.0
            },
            {
                "start_time": 27.579545454545453,
                "end_time": 27.7,
                "pitch": 34,
                "velocity": 101,
                "duration": 0.12045454545454604,
                "tempo": 120.0
            },
            {
                "start_time": 27.7,
                "end_time": 27.82272727272727,
                "pitch": 35,
                "velocity": 101,
                "duration": 0.12272727272727124,
                "tempo": 120.0
            },
            {
                "start_time": 27.82272727272727,
                "end_time": 27.943181818181817,
                "pitch": 28,
                "velocity": 101,
                "duration": 0.12045454545454604,
                "tempo": 120.0
            },
            {
                "start_time": 27.943181818181817,
                "end_time": 28.063636363636363,
                "pitch": 28,
                "velocity": 101,
                "duration": 0.12045454545454604,
                "tempo": 120.0
            },
            {
                "start_time": 28.063636363636363,
                "end_time": 28.18409090909091,
                "pitch": 40,
                "velocity": 101,
                "duration": 0.12045454545454604,
                "tempo": 120.0
            },
            {
                "start_time": 16.902272727272727,
                "end_time": 28.304545454545455,
                "pitch": 0,
                "velocity": 101,
                "duration": 11.402272727272727,
                "tempo": 120.0
            },
            {
                "start_time": 28.18409090909091,
                "end_time": 28.304545454545455,
                "pitch": 28,
                "velocity": 101,
                "duration": 0.12045454545454604,
                "tempo": 120.0
            },
            {
                "start_time": 28.304545454545455,
                "end_time": 28.424999999999997,
                "pitch": 31,
                "velocity": 101,
                "duration": 0.12045454545454248,
                "tempo": 120.0
            },
            {
                "start_time": 28.424999999999997,
                "end_time": 28.545454545454543,
                "pitch": 33,
                "velocity": 101,
                "duration": 0.12045454545454604,
                "tempo": 120.0
            },
            {
                "start_time": 28.545454545454543,
                "end_time": 28.66590909090909,
                "pitch": 34,
                "velocity": 101,
                "duration": 0.12045454545454604,
                "tempo": 120.0
            },
            {
                "start_time": 28.66590909090909,
                "end_time": 28.786363636363635,
                "pitch": 35,
                "velocity": 101,
                "duration": 0.12045454545454604,
                "tempo": 120.0
            },
            {
                "start_time": 27.82272727272727,
                "end_time": 28.786363636363635,
                "pitch": 42,
                "velocity": 101,
                "duration": 0.9636363636363647,
                "tempo": 120.0
            },
            {
                "start_time": 28.786363636363635,
                "end_time": 28.90681818181818,
                "pitch": 28,
                "velocity": 101,
                "duration": 0.12045454545454604,
                "tempo": 120.0
            },
            {
                "start_time": 28.90681818181818,
                "end_time": 29.027272727272727,
                "pitch": 28,
                "velocity": 101,
                "duration": 0.12045454545454604,
                "tempo": 120.0
            },
            {
                "start_time": 29.027272727272727,
                "end_time": 29.14772727272727,
                "pitch": 40,
                "velocity": 101,
                "duration": 0.12045454545454248,
                "tempo": 120.0
            },
            {
                "start_time": 28.304545454545455,
                "end_time": 29.268181818181816,
                "pitch": 0,
                "velocity": 101,
                "duration": 0.9636363636363612,
                "tempo": 120.0
            },
            {
                "start_time": 29.14772727272727,
                "end_time": 29.268181818181816,
                "pitch": 28,
                "velocity": 101,
                "duration": 0.12045454545454604,
                "tempo": 120.0
            },
            {
                "start_time": 29.268181818181816,
                "end_time": 29.388636363636362,
                "pitch": 31,
                "velocity": 101,
                "duration": 0.12045454545454604,
                "tempo": 120.0
            },
            {
                "start_time": 29.388636363636362,
                "end_time": 29.509090909090908,
                "pitch": 33,
                "velocity": 101,
                "duration": 0.12045454545454604,
                "tempo": 120.0
            },
            {
                "start_time": 29.388636363636362,
                "end_time": 29.509090909090908,
                "pitch": 33,
                "velocity": 101,
                "duration": 0.12045454545454604,
                "tempo": 120.0
            },
            {
                "start_time": 29.509090909090908,
                "end_time": 29.629545454545454,
                "pitch": 34,
                "velocity": 101,
                "duration": 0.12045454545454604,
                "tempo": 120.0
            },
            {
                "start_time": 29.629545454545454,
                "end_time": 29.75,
                "pitch": 35,
                "velocity": 101,
                "duration": 0.12045454545454604,
                "tempo": 120.0
            },
            {
                "start_time": 28.786363636363635,
                "end_time": 29.75,
                "pitch": 42,
                "velocity": 101,
                "duration": 0.9636363636363647,
                "tempo": 120.0
            },
            {
                "start_time": 29.75,
                "end_time": 29.868181818181817,
                "pitch": 28,
                "velocity": 101,
                "duration": 0.11818181818181728,
                "tempo": 120.0
            },
            {
                "start_time": 29.868181818181817,
                "end_time": 29.988636363636363,
                "pitch": 28,
                "velocity": 101,
                "duration": 0.12045454545454604,
                "tempo": 120.0
            },
            {
                "start_time": 29.988636363636363,
                "end_time": 30.104545454545452,
                "pitch": 40,
                "velocity": 101,
                "duration": 0.11590909090908852,
                "tempo": 120.0
            },
            {
                "start_time": 29.268181818181816,
                "end_time": 30.222727272727273,
                "pitch": 0,
                "velocity": 101,
                "duration": 0.9545454545454568,
                "tempo": 120.0
            },
            {
                "start_time": 30.104545454545452,
                "end_time": 30.222727272727273,
                "pitch": 28,
                "velocity": 101,
                "duration": 0.11818181818182083,
                "tempo": 120.0
            },
            {
                "start_time": 30.222727272727273,
                "end_time": 30.34090909090909,
                "pitch": 31,
                "velocity": 101,
                "duration": 0.11818181818181728,
                "tempo": 120.0
            },
            {
                "start_time": 30.34090909090909,
                "end_time": 30.459090909090907,
                "pitch": 33,
                "velocity": 101,
                "duration": 0.11818181818181728,
                "tempo": 120.0
            },
            {
                "start_time": 30.34090909090909,
                "end_time": 30.459090909090907,
                "pitch": 33,
                "velocity": 101,
                "duration": 0.11818181818181728,
                "tempo": 120.0
            },
            {
                "start_time": 30.459090909090907,
                "end_time": 30.579545454545453,
                "pitch": 34,
                "velocity": 101,
                "duration": 0.12045454545454604,
                "tempo": 120.0
            },
            {
                "start_time": 30.579545454545453,
                "end_time": 30.7,
                "pitch": 35,
                "velocity": 101,
                "duration": 0.12045454545454604,
                "tempo": 120.0
            },
            {
                "start_time": 30.7,
                "end_time": 30.820454545454545,
                "pitch": 35,
                "velocity": 101,
                "duration": 0.12045454545454604,
                "tempo": 120.0
            },
            {
                "start_time": 30.820454545454545,
                "end_time": 30.940909090909088,
                "pitch": 35,
                "velocity": 101,
                "duration": 0.12045454545454248,
                "tempo": 120.0
            },
            {
                "start_time": 25.54090909090909,
                "end_time": 31.061363636363634,
                "pitch": 20,
                "velocity": 101,
                "duration": 5.520454545454545,
                "tempo": 120.0
            },
            {
                "start_time": 30.940909090909088,
                "end_time": 31.061363636363634,
                "pitch": 38,
                "velocity": 101,
                "duration": 0.12045454545454604,
                "tempo": 120.0
            },
            {
                "start_time": 31.061363636363634,
                "end_time": 31.18181818181818,
                "pitch": 35,
                "velocity": 101,
                "duration": 0.12045454545454604,
                "tempo": 120.0
            },
            {
                "start_time": 29.75,
                "end_time": 31.18181818181818,
                "pitch": 42,
                "velocity": 101,
                "duration": 1.4318181818181799,
                "tempo": 120.0
            },
            {
                "start_time": 31.061363636363634,
                "end_time": 31.302272727272726,
                "pitch": 20,
                "velocity": 101,
                "duration": 0.24090909090909207,
                "tempo": 120.0
            },
            {
                "start_time": 31.18181818181818,
                "end_time": 31.302272727272726,
                "pitch": 40,
                "velocity": 101,
                "duration": 0.12045454545454604,
                "tempo": 120.0
            },
            {
                "start_time": 31.302272727272726,
                "end_time": 31.422727272727272,
                "pitch": 35,
                "velocity": 101,
                "duration": 0.12045454545454604,
                "tempo": 120.0
            },
            {
                "start_time": 30.940909090909088,
                "end_time": 31.422727272727272,
                "pitch": 41,
                "velocity": 101,
                "duration": 0.48181818181818414,
                "tempo": 120.0
            },
            {
                "start_time": 31.302272727272726,
                "end_time": 31.543181818181818,
                "pitch": 20,
                "velocity": 101,
                "duration": 0.24090909090909207,
                "tempo": 120.0
            },
            {
                "start_time": 31.422727272727272,
                "end_time": 31.543181818181818,
                "pitch": 38,
                "velocity": 101,
                "duration": 0.12045454545454604,
                "tempo": 120.0
            },
            {
                "start_time": 31.543181818181818,
                "end_time": 31.66363636363636,
                "pitch": 35,
                "velocity": 101,
                "duration": 0.12045454545454248,
                "tempo": 120.0
            },
            {
                "start_time": 31.78181818181818,
                "end_time": 31.902272727272727,
                "pitch": 35,
                "velocity": 101,
                "duration": 0.12045454545454604,
                "tempo": 120.0
            },
            {
                "start_time": 31.422727272727272,
                "end_time": 31.902272727272727,
                "pitch": 41,
                "velocity": 101,
                "duration": 0.4795454545454554,
                "tempo": 120.0
            },
            {
                "start_time": 31.902272727272727,
                "end_time": 32.02272727272727,
                "pitch": 38,
                "velocity": 101,
                "duration": 0.12045454545454604,
                "tempo": 120.0
            },
            {
                "start_time": 32.02272727272727,
                "end_time": 32.143181818181816,
                "pitch": 35,
                "velocity": 101,
                "duration": 0.12045454545454248,
                "tempo": 120.0
            },
            {
                "start_time": 31.18181818181818,
                "end_time": 32.143181818181816,
                "pitch": 42,
                "velocity": 101,
                "duration": 0.961363636363636,
                "tempo": 120.0
            },
            {
                "start_time": 31.543181818181818,
                "end_time": 32.263636363636365,
                "pitch": 20,
                "velocity": 101,
                "duration": 0.7204545454545475,
                "tempo": 120.0
            },
            {
                "start_time": 32.143181818181816,
                "end_time": 32.263636363636365,
                "pitch": 40,
                "velocity": 101,
                "duration": 0.12045454545454959,
                "tempo": 120.0
            },
            {
                "start_time": 32.263636363636365,
                "end_time": 32.38409090909091,
                "pitch": 35,
                "velocity": 101,
                "duration": 0.12045454545454248,
                "tempo": 120.0
            },
            {
                "start_time": 32.38409090909091,
                "end_time": 32.625,
                "pitch": 33,
                "velocity": 101,
                "duration": 0.24090909090909207,
                "tempo": 120.0
            },
            {
                "start_time": 32.38409090909091,
                "end_time": 32.625,
                "pitch": 33,
                "velocity": 101,
                "duration": 0.24090909090909207,
                "tempo": 120.0
            },
            {
                "start_time": 32.625,
                "end_time": 32.74545454545454,
                "pitch": 35,
                "velocity": 101,
                "duration": 0.12045454545454248,
                "tempo": 120.0
            },
            {
                "start_time": 32.625,
                "end_time": 32.74545454545454,
                "pitch": 35,
                "velocity": 101,
                "duration": 0.12045454545454248,
                "tempo": 120.0
            },
            {
                "start_time": 32.74545454545454,
                "end_time": 32.86590909090909,
                "pitch": 35,
                "velocity": 101,
                "duration": 0.12045454545454959,
                "tempo": 120.0
            },
            {
                "start_time": 31.902272727272727,
                "end_time": 32.86590909090909,
                "pitch": 41,
                "velocity": 101,
                "duration": 0.9636363636363647,
                "tempo": 120.0
            },
            {
                "start_time": 32.263636363636365,
                "end_time": 32.986363636363635,
                "pitch": 20,
                "velocity": 101,
                "duration": 0.7227272727272691,
                "tempo": 120.0
            },
            {
                "start_time": 32.86590909090909,
                "end_time": 32.986363636363635,
                "pitch": 38,
                "velocity": 101,
                "duration": 0.12045454545454248,
                "tempo": 120.0
            },
            {
                "start_time": 32.986363636363635,
                "end_time": 33.10681818181818,
                "pitch": 35,
                "velocity": 101,
                "duration": 0.12045454545454248,
                "tempo": 120.0
            },
            {
                "start_time": 32.143181818181816,
                "end_time": 33.10681818181818,
                "pitch": 42,
                "velocity": 101,
                "duration": 0.9636363636363612,
                "tempo": 120.0
            },
            {
                "start_time": 32.986363636363635,
                "end_time": 33.22727272727273,
                "pitch": 20,
                "velocity": 101,
                "duration": 0.24090909090909207,
                "tempo": 120.0
            },
            {
                "start_time": 33.10681818181818,
                "end_time": 33.22727272727273,
                "pitch": 40,
                "velocity": 101,
                "duration": 0.12045454545454959,
                "tempo": 120.0
            },
            {
                "start_time": 33.22727272727273,
                "end_time": 33.35,
                "pitch": 35,
                "velocity": 101,
                "duration": 0.1227272727272748,
                "tempo": 120.0
            },
            {
                "start_time": 32.86590909090909,
                "end_time": 33.35,
                "pitch": 41,
                "velocity": 101,
                "duration": 0.48409090909090935,
                "tempo": 120.0
            },
            {
                "start_time": 33.22727272727273,
                "end_time": 33.46818181818182,
                "pitch": 20,
                "velocity": 101,
                "duration": 0.24090909090909207,
                "tempo": 120.0
            },
            {
                "start_time": 33.35,
                "end_time": 33.46818181818182,
                "pitch": 38,
                "velocity": 101,
                "duration": 0.11818181818181728,
                "tempo": 120.0
            },
            {
                "start_time": 33.46818181818182,
                "end_time": 33.58863636363636,
                "pitch": 35,
                "velocity": 101,
                "duration": 0.12045454545454248,
                "tempo": 120.0
            },
            {
                "start_time": 33.10681818181818,
                "end_time": 33.58863636363636,
                "pitch": 42,
                "velocity": 101,
                "duration": 0.48181818181818414,
                "tempo": 120.0
            },
            {
                "start_time": 33.58863636363636,
                "end_time": 33.70681818181818,
                "pitch": 30,
                "velocity": 101,
                "duration": 0.11818181818181728,
                "tempo": 120.0
            },
            {
                "start_time": 33.70681818181818,
                "end_time": 33.82727272727273,
                "pitch": 35,
                "velocity": 101,
                "duration": 0.12045454545454959,
                "tempo": 120.0
            },
            {
                "start_time": 33.35,
                "end_time": 33.82727272727273,
                "pitch": 41,
                "velocity": 101,
                "duration": 0.4772727272727266,
                "tempo": 120.0
            },
            {
                "start_time": 33.46818181818182,
                "end_time": 33.945454545454545,
                "pitch": 20,
                "velocity": 101,
                "duration": 0.4772727272727266,
                "tempo": 120.0
            },
            {
                "start_time": 33.82727272727273,
                "end_time": 33.945454545454545,
                "pitch": 38,
                "velocity": 101,
                "duration": 0.11818181818181728,
                "tempo": 120.0
            },
            {
                "start_time": 33.945454545454545,
                "end_time": 34.06363636363636,
                "pitch": 35,
                "velocity": 101,
                "duration": 0.11818181818181728,
                "tempo": 120.0
            },
            {
                "start_time": 33.82727272727273,
                "end_time": 34.06363636363636,
                "pitch": 41,
                "velocity": 101,
                "duration": 0.23636363636363455,
                "tempo": 120.0
            },
            {
                "start_time": 34.06363636363636,
                "end_time": 34.179545454545455,
                "pitch": 38,
                "velocity": 101,
                "duration": 0.11590909090909207,
                "tempo": 120.0
            },
            {
                "start_time": 34.179545454545455,
                "end_time": 34.29772727272727,
                "pitch": 40,
                "velocity": 101,
                "duration": 0.11818181818181728,
                "tempo": 120.0
            },
            {
                "start_time": 34.06363636363636,
                "end_time": 34.418181818181814,
                "pitch": 41,
                "velocity": 101,
                "duration": 0.35454545454545183,
                "tempo": 120.0
            },
            {
                "start_time": 34.29772727272727,
                "end_time": 34.418181818181814,
                "pitch": 41,
                "velocity": 101,
                "duration": 0.12045454545454248,
                "tempo": 120.0
            },
            {
                "start_time": 33.58863636363636,
                "end_time": 34.538636363636364,
                "pitch": 42,
                "velocity": 101,
                "duration": 0.9500000000000028,
                "tempo": 120.0
            },
            {
                "start_time": 34.418181818181814,
                "end_time": 34.538636363636364,
                "pitch": 42,
                "velocity": 101,
                "duration": 0.12045454545454959,
                "tempo": 120.0
            },
            {
                "start_time": 34.538636363636364,
                "end_time": 34.65909090909091,
                "pitch": 26,
                "velocity": 101,
                "duration": 0.12045454545454248,
                "tempo": 120.0
            },
            {
                "start_time": 34.65909090909091,
                "end_time": 34.779545454545456,
                "pitch": 26,
                "velocity": 101,
                "duration": 0.12045454545454959,
                "tempo": 120.0
            },
            {
                "start_time": 34.779545454545456,
                "end_time": 34.9,
                "pitch": 38,
                "velocity": 101,
                "duration": 0.12045454545454248,
                "tempo": 120.0
            },
            {
                "start_time": 34.9,
                "end_time": 35.02045454545454,
                "pitch": 26,
                "velocity": 101,
                "duration": 0.12045454545454248,
                "tempo": 120.0
            },
            {
                "start_time": 35.138636363636365,
                "end_time": 35.25909090909091,
                "pitch": 26,
                "velocity": 101,
                "duration": 0.12045454545454248,
                "tempo": 120.0
            },
            {
                "start_time": 35.25909090909091,
                "end_time": 35.37954545454545,
                "pitch": 38,
                "velocity": 101,
                "duration": 0.12045454545454248,
                "tempo": 120.0
            },
            {
                "start_time": 35.49772727272727,
                "end_time": 35.61818181818182,
                "pitch": 28,
                "velocity": 101,
                "duration": 0.12045454545454959,
                "tempo": 120.0
            },
            {
                "start_time": 35.61818181818182,
                "end_time": 35.736363636363635,
                "pitch": 28,
                "velocity": 101,
                "duration": 0.11818181818181728,
                "tempo": 120.0
            },
            {
                "start_time": 35.736363636363635,
                "end_time": 35.85909090909091,
                "pitch": 40,
                "velocity": 101,
                "duration": 0.1227272727272748,
                "tempo": 120.0
            },
            {
                "start_time": 30.222727272727273,
                "end_time": 35.97954545454545,
                "pitch": 0,
                "velocity": 101,
                "duration": 5.756818181818179,
                "tempo": 120.0
            },
            {
                "start_time": 35.85909090909091,
                "end_time": 35.97954545454545,
                "pitch": 28,
                "velocity": 101,
                "duration": 0.12045454545454248,
                "tempo": 120.0
            },
            {
                "start_time": 35.97954545454545,
                "end_time": 36.1,
                "pitch": 31,
                "velocity": 101,
                "duration": 0.12045454545454959,
                "tempo": 120.0
            },
            {
                "start_time": 36.1,
                "end_time": 36.220454545454544,
                "pitch": 33,
                "velocity": 101,
                "duration": 0.12045454545454248,
                "tempo": 120.0
            },
            {
                "start_time": 36.1,
                "end_time": 36.220454545454544,
                "pitch": 33,
                "velocity": 101,
                "duration": 0.12045454545454248,
                "tempo": 120.0
            },
            {
                "start_time": 36.220454545454544,
                "end_time": 36.33863636363636,
                "pitch": 34,
                "velocity": 101,
                "duration": 0.11818181818181728,
                "tempo": 120.0
            },
            {
                "start_time": 36.33863636363636,
                "end_time": 36.45909090909091,
                "pitch": 35,
                "velocity": 101,
                "duration": 0.12045454545454959,
                "tempo": 120.0
            },
            {
                "start_time": 36.45909090909091,
                "end_time": 36.57727272727273,
                "pitch": 35,
                "velocity": 101,
                "duration": 0.11818181818181728,
                "tempo": 120.0
            },
            {
                "start_time": 36.57727272727273,
                "end_time": 36.69772727272727,
                "pitch": 35,
                "velocity": 101,
                "duration": 0.12045454545454248,
                "tempo": 120.0
            },
            {
                "start_time": 36.69772727272727,
                "end_time": 36.81590909090909,
                "pitch": 47,
                "velocity": 101,
                "duration": 0.11818181818181728,
                "tempo": 120.0
            },
            {
                "start_time": 36.81590909090909,
                "end_time": 36.934090909090905,
                "pitch": 35,
                "velocity": 101,
                "duration": 0.11818181818181728,
                "tempo": 120.0
            },
            {
                "start_time": 37.05227272727272,
                "end_time": 37.168181818181814,
                "pitch": 33,
                "velocity": 101,
                "duration": 0.11590909090909207,
                "tempo": 120.0
            },
            {
                "start_time": 37.288636363636364,
                "end_time": 37.41136363636363,
                "pitch": 35,
                "velocity": 101,
                "duration": 0.12272727272726769,
                "tempo": 120.0
            },
            {
                "start_time": 37.41136363636363,
                "end_time": 37.53181818181818,
                "pitch": 35,
                "velocity": 101,
                "duration": 0.12045454545454959,
                "tempo": 120.0
            },
            {
                "start_time": 37.53181818181818,
                "end_time": 37.65,
                "pitch": 35,
                "velocity": 101,
                "duration": 0.11818181818181728,
                "tempo": 120.0
            },
            {
                "start_time": 37.652272727272724,
                "end_time": 37.77045454545454,
                "pitch": 35,
                "velocity": 101,
                "duration": 0.11818181818181728,
                "tempo": 120.0
            },
            {
                "start_time": 37.77045454545454,
                "end_time": 37.89090909090909,
                "pitch": 35,
                "velocity": 101,
                "duration": 0.12045454545454959,
                "tempo": 120.0
            },
            {
                "start_time": 37.89090909090909,
                "end_time": 38.00909090909091,
                "pitch": 35,
                "velocity": 101,
                "duration": 0.11818181818181728,
                "tempo": 120.0
            },
            {
                "start_time": 38.00909090909091,
                "end_time": 38.12954545454545,
                "pitch": 33,
                "velocity": 101,
                "duration": 0.12045454545454248,
                "tempo": 120.0
            },
            {
                "start_time": 38.00909090909091,
                "end_time": 38.12954545454545,
                "pitch": 33,
                "velocity": 101,
                "duration": 0.12045454545454248,
                "tempo": 120.0
            },
            {
                "start_time": 38.12954545454545,
                "end_time": 38.25,
                "pitch": 35,
                "velocity": 101,
                "duration": 0.12045454545454959,
                "tempo": 120.0
            },
            {
                "start_time": 38.12954545454545,
                "end_time": 38.25,
                "pitch": 35,
                "velocity": 101,
                "duration": 0.12045454545454959,
                "tempo": 120.0
            },
            {
                "start_time": 38.25,
                "end_time": 38.37045454545454,
                "pitch": 33,
                "velocity": 101,
                "duration": 0.12045454545454248,
                "tempo": 120.0
            },
            {
                "start_time": 38.37045454545454,
                "end_time": 38.49090909090909,
                "pitch": 26,
                "velocity": 101,
                "duration": 0.12045454545454959,
                "tempo": 120.0
            },
            {
                "start_time": 38.49090909090909,
                "end_time": 38.611363636363635,
                "pitch": 26,
                "velocity": 101,
                "duration": 0.12045454545454248,
                "tempo": 120.0
            },
            {
                "start_time": 38.611363636363635,
                "end_time": 38.73181818181818,
                "pitch": 38,
                "velocity": 101,
                "duration": 0.12045454545454248,
                "tempo": 120.0
            },
            {
                "start_time": 38.73181818181818,
                "end_time": 38.85227272727273,
                "pitch": 26,
                "velocity": 101,
                "duration": 0.12045454545454959,
                "tempo": 120.0
            },
            {
                "start_time": 38.970454545454544,
                "end_time": 39.090909090909086,
                "pitch": 26,
                "velocity": 101,
                "duration": 0.12045454545454248,
                "tempo": 120.0
            },
            {
                "start_time": 39.090909090909086,
                "end_time": 39.211363636363636,
                "pitch": 38,
                "velocity": 101,
                "duration": 0.12045454545454959,
                "tempo": 120.0
            },
            {
                "start_time": 39.33181818181818,
                "end_time": 39.45227272727273,
                "pitch": 28,
                "velocity": 101,
                "duration": 0.12045454545454959,
                "tempo": 120.0
            },
            {
                "start_time": 39.45227272727273,
                "end_time": 39.57272727272727,
                "pitch": 28,
                "velocity": 101,
                "duration": 0.12045454545454248,
                "tempo": 120.0
            },
            {
                "start_time": 39.57272727272727,
                "end_time": 39.69090909090909,
                "pitch": 40,
                "velocity": 101,
                "duration": 0.11818181818181728,
                "tempo": 120.0
            },
            {
                "start_time": 39.69090909090909,
                "end_time": 39.809090909090905,
                "pitch": 28,
                "velocity": 101,
                "duration": 0.11818181818181728,
                "tempo": 120.0
            },
            {
                "start_time": 39.809090909090905,
                "end_time": 39.925,
                "pitch": 31,
                "velocity": 101,
                "duration": 0.11590909090909207,
                "tempo": 120.0
            },
            {
                "start_time": 39.925,
                "end_time": 40.043181818181814,
                "pitch": 33,
                "velocity": 101,
                "duration": 0.11818181818181728,
                "tempo": 120.0
            },
            {
                "start_time": 39.925,
                "end_time": 40.043181818181814,
                "pitch": 33,
                "velocity": 101,
                "duration": 0.11818181818181728,
                "tempo": 120.0
            },
            {
                "start_time": 40.043181818181814,
                "end_time": 40.163636363636364,
                "pitch": 34,
                "velocity": 101,
                "duration": 0.12045454545454959,
                "tempo": 120.0
            },
            {
                "start_time": 40.163636363636364,
                "end_time": 40.28181818181818,
                "pitch": 35,
                "velocity": 101,
                "duration": 0.11818181818181728,
                "tempo": 120.0
            },
            {
                "start_time": 40.28181818181818,
                "end_time": 40.402272727272724,
                "pitch": 35,
                "velocity": 101,
                "duration": 0.12045454545454248,
                "tempo": 120.0
            },
            {
                "start_time": 40.402272727272724,
                "end_time": 40.52272727272727,
                "pitch": 35,
                "velocity": 101,
                "duration": 0.12045454545454959,
                "tempo": 120.0
            },
            {
                "start_time": 40.52272727272727,
                "end_time": 40.643181818181816,
                "pitch": 47,
                "velocity": 101,
                "duration": 0.12045454545454248,
                "tempo": 120.0
            },
            {
                "start_time": 40.643181818181816,
                "end_time": 40.76363636363636,
                "pitch": 35,
                "velocity": 101,
                "duration": 0.12045454545454248,
                "tempo": 120.0
            },
            {
                "start_time": 40.88409090909091,
                "end_time": 41.00454545454545,
                "pitch": 33,
                "velocity": 101,
                "duration": 0.12045454545454248,
                "tempo": 120.0
            },
            {
                "start_time": 41.125,
                "end_time": 41.24318181818182,
                "pitch": 35,
                "velocity": 101,
                "duration": 0.11818181818181728,
                "tempo": 120.0
            },
            {
                "start_time": 41.24318181818182,
                "end_time": 41.36363636363636,
                "pitch": 35,
                "velocity": 101,
                "duration": 0.12045454545454248,
                "tempo": 120.0
            },
            {
                "start_time": 41.36363636363636,
                "end_time": 41.48181818181818,
                "pitch": 35,
                "velocity": 101,
                "duration": 0.11818181818181728,
                "tempo": 120.0
            },
            {
                "start_time": 41.48181818181818,
                "end_time": 41.60454545454545,
                "pitch": 47,
                "velocity": 101,
                "duration": 0.1227272727272748,
                "tempo": 120.0
            },
            {
                "start_time": 41.60454545454545,
                "end_time": 41.725,
                "pitch": 35,
                "velocity": 101,
                "duration": 0.12045454545454959,
                "tempo": 120.0
            },
            {
                "start_time": 41.845454545454544,
                "end_time": 41.965909090909086,
                "pitch": 35,
                "velocity": 101,
                "duration": 0.12045454545454248,
                "tempo": 120.0
            },
            {
                "start_time": 41.965909090909086,
                "end_time": 42.084090909090904,
                "pitch": 47,
                "velocity": 101,
                "duration": 0.11818181818181728,
                "tempo": 120.0
            },
            {
                "start_time": 42.20454545454545,
                "end_time": 42.32272727272727,
                "pitch": 35,
                "velocity": 101,
                "duration": 0.11818181818181728,
                "tempo": 120.0
            },
            {
                "start_time": 42.32272727272727,
                "end_time": 42.44318181818181,
                "pitch": 35,
                "velocity": 101,
                "duration": 0.12045454545454248,
                "tempo": 120.0
            },
            {
                "start_time": 42.44318181818181,
                "end_time": 42.56363636363636,
                "pitch": 35,
                "velocity": 101,
                "duration": 0.12045454545454959,
                "tempo": 120.0
            },
            {
                "start_time": 42.56363636363636,
                "end_time": 42.68181818181818,
                "pitch": 35,
                "velocity": 101,
                "duration": 0.11818181818181728,
                "tempo": 120.0
            },
            {
                "start_time": 42.68181818181818,
                "end_time": 42.80227272727272,
                "pitch": 38,
                "velocity": 101,
                "duration": 0.12045454545454248,
                "tempo": 120.0
            },
            {
                "start_time": 42.80227272727272,
                "end_time": 42.92272727272727,
                "pitch": 38,
                "velocity": 101,
                "duration": 0.12045454545454959,
                "tempo": 120.0
            },
            {
                "start_time": 42.92272727272727,
                "end_time": 43.038636363636364,
                "pitch": 38,
                "velocity": 101,
                "duration": 0.11590909090909207,
                "tempo": 120.0
            },
            {
                "start_time": 43.038636363636364,
                "end_time": 43.15681818181818,
                "pitch": 38,
                "velocity": 101,
                "duration": 0.11818181818181728,
                "tempo": 120.0
            },
            {
                "start_time": 43.15681818181818,
                "end_time": 43.275,
                "pitch": 40,
                "velocity": 101,
                "duration": 0.11818181818181728,
                "tempo": 120.0
            },
            {
                "start_time": 43.275,
                "end_time": 43.393181818181816,
                "pitch": 40,
                "velocity": 101,
                "duration": 0.11818181818181728,
                "tempo": 120.0
            },
            {
                "start_time": 43.393181818181816,
                "end_time": 43.51136363636363,
                "pitch": 40,
                "velocity": 101,
                "duration": 0.11818181818181728,
                "tempo": 120.0
            },
            {
                "start_time": 43.51136363636363,
                "end_time": 43.752272727272725,
                "pitch": 43,
                "velocity": 101,
                "duration": 0.24090909090909207,
                "tempo": 120.0
            },
            {
                "start_time": 43.752272727272725,
                "end_time": 43.87045454545454,
                "pitch": 43,
                "velocity": 101,
                "duration": 0.11818181818181728,
                "tempo": 120.0
            },
            {
                "start_time": 43.87045454545454,
                "end_time": 43.99090909090909,
                "pitch": 43,
                "velocity": 101,
                "duration": 0.12045454545454959,
                "tempo": 120.0
            },
            {
                "start_time": 43.99090909090909,
                "end_time": 44.111363636363635,
                "pitch": 43,
                "velocity": 101,
                "duration": 0.12045454545454248,
                "tempo": 120.0
            },
            {
                "start_time": 44.111363636363635,
                "end_time": 44.23181818181818,
                "pitch": 35,
                "velocity": 101,
                "duration": 0.12045454545454248,
                "tempo": 120.0
            },
            {
                "start_time": 44.23181818181818,
                "end_time": 44.35227272727273,
                "pitch": 35,
                "velocity": 101,
                "duration": 0.12045454545454959,
                "tempo": 120.0
            },
            {
                "start_time": 44.35227272727273,
                "end_time": 44.47272727272727,
                "pitch": 35,
                "velocity": 101,
                "duration": 0.12045454545454248,
                "tempo": 120.0
            },
            {
                "start_time": 44.47272727272727,
                "end_time": 44.59318181818182,
                "pitch": 35,
                "velocity": 101,
                "duration": 0.12045454545454959,
                "tempo": 120.0
            },
            {
                "start_time": 38.37045454545454,
                "end_time": 44.59318181818182,
                "pitch": 41,
                "velocity": 101,
                "duration": 6.222727272727276,
                "tempo": 120.0
            },
            {
                "start_time": 44.59318181818182,
                "end_time": 44.711363636363636,
                "pitch": 38,
                "velocity": 101,
                "duration": 0.11818181818181728,
                "tempo": 120.0
            },
            {
                "start_time": 44.711363636363636,
                "end_time": 44.83181818181818,
                "pitch": 38,
                "velocity": 101,
                "duration": 0.12045454545454248,
                "tempo": 120.0
            },
            {
                "start_time": 44.83181818181818,
                "end_time": 44.95227272727273,
                "pitch": 38,
                "velocity": 101,
                "duration": 0.12045454545454959,
                "tempo": 120.0
            },
            {
                "start_time": 44.95227272727273,
                "end_time": 45.070454545454545,
                "pitch": 38,
                "velocity": 101,
                "duration": 0.11818181818181728,
                "tempo": 120.0
            },
            {
                "start_time": 45.070454545454545,
                "end_time": 45.19090909090909,
                "pitch": 40,
                "velocity": 101,
                "duration": 0.12045454545454248,
                "tempo": 120.0
            },
            {
                "start_time": 45.19090909090909,
                "end_time": 45.31136363636364,
                "pitch": 40,
                "velocity": 101,
                "duration": 0.12045454545454959,
                "tempo": 120.0
            },
            {
                "start_time": 45.31136363636364,
                "end_time": 45.429545454545455,
                "pitch": 40,
                "velocity": 101,
                "duration": 0.11818181818181728,
                "tempo": 120.0
            },
            {
                "start_time": 45.429545454545455,
                "end_time": 45.67272727272727,
                "pitch": 43,
                "velocity": 101,
                "duration": 0.24318181818181728,
                "tempo": 120.0
            },
            {
                "start_time": 45.67272727272727,
                "end_time": 45.793181818181814,
                "pitch": 43,
                "velocity": 101,
                "duration": 0.12045454545454248,
                "tempo": 120.0
            },
            {
                "start_time": 45.793181818181814,
                "end_time": 45.90909090909091,
                "pitch": 43,
                "velocity": 101,
                "duration": 0.11590909090909207,
                "tempo": 120.0
            },
            {
                "start_time": 45.90909090909091,
                "end_time": 46.027272727272724,
                "pitch": 43,
                "velocity": 101,
                "duration": 0.11818181818181728,
                "tempo": 120.0
            },
            {
                "start_time": 44.111363636363635,
                "end_time": 46.027272727272724,
                "pitch": 47,
                "velocity": 101,
                "duration": 1.9159090909090892,
                "tempo": 120.0
            },
            {
                "start_time": 46.027272727272724,
                "end_time": 46.14545454545454,
                "pitch": 35,
                "velocity": 101,
                "duration": 0.11818181818181728,
                "tempo": 120.0
            },
            {
                "start_time": 46.14545454545454,
                "end_time": 46.26363636363636,
                "pitch": 35,
                "velocity": 101,
                "duration": 0.11818181818181728,
                "tempo": 120.0
            },
            {
                "start_time": 46.26363636363636,
                "end_time": 46.38181818181818,
                "pitch": 35,
                "velocity": 101,
                "duration": 0.11818181818182438,
                "tempo": 120.0
            },
            {
                "start_time": 46.38409090909091,
                "end_time": 46.502272727272725,
                "pitch": 35,
                "velocity": 101,
                "duration": 0.11818181818181728,
                "tempo": 120.0
            },
            {
                "start_time": 44.59318181818182,
                "end_time": 46.502272727272725,
                "pitch": 41,
                "velocity": 101,
                "duration": 1.9090909090909065,
                "tempo": 120.0
            },
            {
                "start_time": 46.502272727272725,
                "end_time": 46.62272727272727,
                "pitch": 38,
                "velocity": 101,
                "duration": 0.12045454545454248,
                "tempo": 120.0
            },
            {
                "start_time": 46.62272727272727,
                "end_time": 46.74090909090909,
                "pitch": 38,
                "velocity": 101,
                "duration": 0.11818181818182438,
                "tempo": 120.0
            },
            {
                "start_time": 46.74090909090909,
                "end_time": 46.861363636363635,
                "pitch": 38,
                "velocity": 101,
                "duration": 0.12045454545454248,
                "tempo": 120.0
            },
            {
                "start_time": 46.861363636363635,
                "end_time": 46.98181818181818,
                "pitch": 38,
                "velocity": 101,
                "duration": 0.12045454545454248,
                "tempo": 120.0
            },
            {
                "start_time": 46.98181818181818,
                "end_time": 47.10227272727273,
                "pitch": 40,
                "velocity": 101,
                "duration": 0.12045454545454959,
                "tempo": 120.0
            },
            {
                "start_time": 47.10227272727273,
                "end_time": 47.224999999999994,
                "pitch": 40,
                "velocity": 101,
                "duration": 0.12272727272726769,
                "tempo": 120.0
            },
            {
                "start_time": 47.224999999999994,
                "end_time": 47.34318181818182,
                "pitch": 40,
                "velocity": 101,
                "duration": 0.11818181818182438,
                "tempo": 120.0
            },
            {
                "start_time": 47.34318181818182,
                "end_time": 47.58181818181818,
                "pitch": 36,
                "velocity": 101,
                "duration": 0.23863636363635976,
                "tempo": 120.0
            },
            {
                "start_time": 47.58181818181818,
                "end_time": 47.70227272727273,
                "pitch": 36,
                "velocity": 101,
                "duration": 0.12045454545454959,
                "tempo": 120.0
            },
            {
                "start_time": 47.70227272727273,
                "end_time": 47.82272727272727,
                "pitch": 36,
                "velocity": 101,
                "duration": 0.12045454545454248,
                "tempo": 120.0
            },
            {
                "start_time": 33.945454545454545,
                "end_time": 47.94318181818181,
                "pitch": 20,
                "velocity": 101,
                "duration": 13.997727272727268,
                "tempo": 120.0
            },
            {
                "start_time": 47.82272727272727,
                "end_time": 47.94318181818181,
                "pitch": 36,
                "velocity": 101,
                "duration": 0.12045454545454248,
                "tempo": 120.0
            },
            {
                "start_time": 47.94318181818181,
                "end_time": 48.06363636363636,
                "pitch": 35,
                "velocity": 101,
                "duration": 0.12045454545454959,
                "tempo": 120.0
            },
            {
                "start_time": 48.06363636363636,
                "end_time": 48.184090909090905,
                "pitch": 35,
                "velocity": 101,
                "duration": 0.12045454545454248,
                "tempo": 120.0
            },
            {
                "start_time": 48.184090909090905,
                "end_time": 48.304545454545455,
                "pitch": 35,
                "velocity": 101,
                "duration": 0.12045454545454959,
                "tempo": 120.0
            },
            {
                "start_time": 48.304545454545455,
                "end_time": 48.42272727272727,
                "pitch": 35,
                "velocity": 101,
                "duration": 0.11818181818181728,
                "tempo": 120.0
            },
            {
                "start_time": 48.42272727272727,
                "end_time": 48.543181818181814,
                "pitch": 38,
                "velocity": 101,
                "duration": 0.12045454545454248,
                "tempo": 120.0
            },
            {
                "start_time": 48.543181818181814,
                "end_time": 48.663636363636364,
                "pitch": 38,
                "velocity": 101,
                "duration": 0.12045454545454959,
                "tempo": 120.0
            },
            {
                "start_time": 48.663636363636364,
                "end_time": 48.78409090909091,
                "pitch": 38,
                "velocity": 101,
                "duration": 0.12045454545454248,
                "tempo": 120.0
            },
            {
                "start_time": 48.78409090909091,
                "end_time": 48.90454545454545,
                "pitch": 38,
                "velocity": 101,
                "duration": 0.12045454545454248,
                "tempo": 120.0
            },
            {
                "start_time": 48.90454545454545,
                "end_time": 49.025,
                "pitch": 40,
                "velocity": 101,
                "duration": 0.12045454545454959,
                "tempo": 120.0
            },
            {
                "start_time": 49.025,
                "end_time": 49.14545454545454,
                "pitch": 40,
                "velocity": 101,
                "duration": 0.12045454545454248,
                "tempo": 120.0
            },
            {
                "start_time": 49.14545454545454,
                "end_time": 49.26590909090909,
                "pitch": 40,
                "velocity": 101,
                "duration": 0.12045454545454959,
                "tempo": 120.0
            },
            {
                "start_time": 49.26590909090909,
                "end_time": 49.50454545454545,
                "pitch": 36,
                "velocity": 101,
                "duration": 0.23863636363635976,
                "tempo": 120.0
            },
            {
                "start_time": 49.26590909090909,
                "end_time": 49.50454545454545,
                "pitch": 36,
                "velocity": 101,
                "duration": 0.23863636363635976,
                "tempo": 120.0
            },
            {
                "start_time": 49.50454545454545,
                "end_time": 49.625,
                "pitch": 36,
                "velocity": 101,
                "duration": 0.12045454545454959,
                "tempo": 120.0
            },
            {
                "start_time": 49.625,
                "end_time": 49.740909090909085,
                "pitch": 36,
                "velocity": 101,
                "duration": 0.11590909090908497,
                "tempo": 120.0
            },
            {
                "start_time": 49.740909090909085,
                "end_time": 49.85909090909091,
                "pitch": 36,
                "velocity": 101,
                "duration": 0.11818181818182438,
                "tempo": 120.0
            },
            {
                "start_time": 49.85909090909091,
                "end_time": 49.97727272727273,
                "pitch": 34,
                "velocity": 101,
                "duration": 0.11818181818181728,
                "tempo": 120.0
            },
            {
                "start_time": 49.97727272727273,
                "end_time": 50.095454545454544,
                "pitch": 34,
                "velocity": 101,
                "duration": 0.11818181818181728,
                "tempo": 120.0
            },
            {
                "start_time": 50.095454545454544,
                "end_time": 50.215909090909086,
                "pitch": 37,
                "velocity": 101,
                "duration": 0.12045454545454248,
                "tempo": 120.0
            },
            {
                "start_time": 50.215909090909086,
                "end_time": 50.336363636363636,
                "pitch": 34,
                "velocity": 101,
                "duration": 0.12045454545454959,
                "tempo": 120.0
            },
            {
                "start_time": 46.502272727272725,
                "end_time": 50.336363636363636,
                "pitch": 41,
                "velocity": 101,
                "duration": 3.8340909090909108,
                "tempo": 120.0
            },
            {
                "start_time": 50.336363636363636,
                "end_time": 50.45681818181818,
                "pitch": 39,
                "velocity": 101,
                "duration": 0.12045454545454248,
                "tempo": 120.0
            },
            {
                "start_time": 50.45681818181818,
                "end_time": 50.57727272727273,
                "pitch": 34,
                "velocity": 101,
                "duration": 0.12045454545454959,
                "tempo": 120.0
            },
            {
                "start_time": 50.215909090909086,
                "end_time": 50.69772727272727,
                "pitch": 15,
                "velocity": 101,
                "duration": 0.48181818181818414,
                "tempo": 120.0
            },
            {
                "start_time": 50.57727272727273,
                "end_time": 50.69772727272727,
                "pitch": 37,
                "velocity": 101,
                "duration": 0.12045454545454248,
                "tempo": 120.0
            },
            {
                "start_time": 50.69772727272727,
                "end_time": 50.81590909090909,
                "pitch": 34,
                "velocity": 101,
                "duration": 0.11818181818181728,
                "tempo": 120.0
            },
            {
                "start_time": 50.93636363636364,
                "end_time": 51.05681818181818,
                "pitch": 34,
                "velocity": 101,
                "duration": 0.12045454545454248,
                "tempo": 120.0
            },
            {
                "start_time": 50.095454545454544,
                "end_time": 51.05681818181818,
                "pitch": 40,
                "velocity": 101,
                "duration": 0.961363636363636,
                "tempo": 120.0
            },
            {
                "start_time": 51.05681818181818,
                "end_time": 51.17727272727272,
                "pitch": 37,
                "velocity": 101,
                "duration": 0.12045454545454248,
                "tempo": 120.0
            },
            {
                "start_time": 51.17727272727272,
                "end_time": 51.29772727272727,
                "pitch": 34,
                "velocity": 101,
                "duration": 0.12045454545454959,
                "tempo": 120.0
            },
            {
                "start_time": 50.336363636363636,
                "end_time": 51.29772727272727,
                "pitch": 41,
                "velocity": 101,
                "duration": 0.961363636363636,
                "tempo": 120.0
            },
            {
                "start_time": 50.69772727272727,
                "end_time": 51.418181818181814,
                "pitch": 15,
                "velocity": 101,
                "duration": 0.7204545454545439,
                "tempo": 120.0
            },
            {
                "start_time": 51.29772727272727,
                "end_time": 51.418181818181814,
                "pitch": 39,
                "velocity": 101,
                "duration": 0.12045454545454248,
                "tempo": 120.0
            },
            {
                "start_time": 51.418181818181814,
                "end_time": 51.538636363636364,
                "pitch": 34,
                "velocity": 101,
                "duration": 0.12045454545454959,
                "tempo": 120.0
            },
            {
                "start_time": 51.538636363636364,
                "end_time": 51.777272727272724,
                "pitch": 32,
                "velocity": 101,
                "duration": 0.23863636363635976,
                "tempo": 120.0
            },
            {
                "start_time": 51.777272727272724,
                "end_time": 51.89772727272727,
                "pitch": 34,
                "velocity": 101,
                "duration": 0.12045454545454959,
                "tempo": 120.0
            },
            {
                "start_time": 51.89772727272727,
                "end_time": 52.01590909090909,
                "pitch": 34,
                "velocity": 101,
                "duration": 0.11818181818181728,
                "tempo": 120.0
            },
            {
                "start_time": 51.05681818181818,
                "end_time": 52.01590909090909,
                "pitch": 40,
                "velocity": 101,
                "duration": 0.9590909090909108,
                "tempo": 120.0
            },
            {
                "start_time": 52.01590909090909,
                "end_time": 52.13636363636363,
                "pitch": 37,
                "velocity": 101,
                "duration": 0.12045454545454248,
                "tempo": 120.0
            },
            {
                "start_time": 52.13636363636363,
                "end_time": 52.25454545454545,
                "pitch": 34,
                "velocity": 101,
                "duration": 0.11818181818181728,
                "tempo": 120.0
            },
            {
                "start_time": 51.29772727272727,
                "end_time": 52.25454545454545,
                "pitch": 41,
                "velocity": 101,
                "duration": 0.9568181818181785,
                "tempo": 120.0
            },
            {
                "start_time": 51.418181818181814,
                "end_time": 52.375,
                "pitch": 15,
                "velocity": 101,
                "duration": 0.9568181818181856,
                "tempo": 120.0
            },
            {
                "start_time": 52.25454545454545,
                "end_time": 52.375,
                "pitch": 39,
                "velocity": 101,
                "duration": 0.12045454545454959,
                "tempo": 120.0
            },
            {
                "start_time": 52.375,
                "end_time": 52.49545454545454,
                "pitch": 34,
                "velocity": 101,
                "duration": 0.12045454545454248,
                "tempo": 120.0
            },
            {
                "start_time": 52.01590909090909,
                "end_time": 52.49545454545454,
                "pitch": 40,
                "velocity": 101,
                "duration": 0.47954545454545183,
                "tempo": 120.0
            },
            {
                "start_time": 52.49545454545454,
                "end_time": 52.611363636363635,
                "pitch": 37,
                "velocity": 101,
                "duration": 0.11590909090909207,
                "tempo": 120.0
            },
            {
                "start_time": 52.61363636363636,
                "end_time": 52.72954545454545,
                "pitch": 34,
                "velocity": 101,
                "duration": 0.11590909090909207,
                "tempo": 120.0
            },
            {
                "start_time": 52.72954545454545,
                "end_time": 52.84772727272727,
                "pitch": 29,
                "velocity": 101,
                "duration": 0.11818181818181728,
                "tempo": 120.0
            },
            {
                "start_time": 52.84772727272727,
                "end_time": 52.965909090909086,
                "pitch": 34,
                "velocity": 101,
                "duration": 0.11818181818181728,
                "tempo": 120.0
            },
            {
                "start_time": 52.49545454545454,
                "end_time": 52.965909090909086,
                "pitch": 40,
                "velocity": 101,
                "duration": 0.4704545454545439,
                "tempo": 120.0
            },
            {
                "start_time": 52.965909090909086,
                "end_time": 53.084090909090904,
                "pitch": 37,
                "velocity": 101,
                "duration": 0.11818181818181728,
                "tempo": 120.0
            },
            {
                "start_time": 53.084090909090904,
                "end_time": 53.20454545454545,
                "pitch": 34,
                "velocity": 101,
                "duration": 0.12045454545454959,
                "tempo": 120.0
            },
            {
                "start_time": 52.965909090909086,
                "end_time": 53.20454545454545,
                "pitch": 40,
                "velocity": 101,
                "duration": 0.23863636363636687,
                "tempo": 120.0
            },
            {
                "start_time": 53.20454545454545,
                "end_time": 53.324999999999996,
                "pitch": 37,
                "velocity": 101,
                "duration": 0.12045454545454248,
                "tempo": 120.0
            },
            {
                "start_time": 53.324999999999996,
                "end_time": 53.44318181818181,
                "pitch": 39,
                "velocity": 101,
                "duration": 0.11818181818181728,
                "tempo": 120.0
            },
            {
                "start_time": 53.324999999999996,
                "end_time": 53.44318181818181,
                "pitch": 39,
                "velocity": 101,
                "duration": 0.11818181818181728,
                "tempo": 120.0
            },
            {
                "start_time": 53.20454545454545,
                "end_time": 53.56363636363636,
                "pitch": 40,
                "velocity": 101,
                "duration": 0.35909090909090935,
                "tempo": 120.0
            },
            {
                "start_time": 53.44318181818181,
                "end_time": 53.56363636363636,
                "pitch": 40,
                "velocity": 101,
                "duration": 0.12045454545454959,
                "tempo": 120.0
            },
            {
                "start_time": 52.25454545454545,
                "end_time": 53.684090909090905,
                "pitch": 41,
                "velocity": 101,
                "duration": 1.4295454545454547,
                "tempo": 120.0
            },
            {
                "start_time": 53.56363636363636,
                "end_time": 53.684090909090905,
                "pitch": 41,
                "velocity": 101,
                "duration": 0.12045454545454248,
                "tempo": 120.0
            },
            {
                "start_time": 53.684090909090905,
                "end_time": 53.80227272727272,
                "pitch": 27,
                "velocity": 101,
                "duration": 0.11818181818181728,
                "tempo": 120.0
            },
            {
                "start_time": 53.80227272727272,
                "end_time": 53.92272727272727,
                "pitch": 27,
                "velocity": 101,
                "duration": 0.12045454545454959,
                "tempo": 120.0
            },
            {
                "start_time": 53.92272727272727,
                "end_time": 54.043181818181814,
                "pitch": 39,
                "velocity": 101,
                "duration": 0.12045454545454248,
                "tempo": 120.0
            },
            {
                "start_time": 54.043181818181814,
                "end_time": 54.163636363636364,
                "pitch": 27,
                "velocity": 101,
                "duration": 0.12045454545454959,
                "tempo": 120.0
            },
            {
                "start_time": 54.163636363636364,
                "end_time": 54.28409090909091,
                "pitch": 30,
                "velocity": 101,
                "duration": 0.12045454545454248,
                "tempo": 120.0
            },
            {
                "start_time": 54.163636363636364,
                "end_time": 54.28409090909091,
                "pitch": 30,
                "velocity": 101,
                "duration": 0.12045454545454248,
                "tempo": 120.0
            },
            {
                "start_time": 54.28409090909091,
                "end_time": 54.40454545454545,
                "pitch": 32,
                "velocity": 101,
                "duration": 0.12045454545454248,
                "tempo": 120.0
            },
            {
                "start_time": 54.40454545454545,
                "end_time": 54.525,
                "pitch": 33,
                "velocity": 101,
                "duration": 0.12045454545454959,
                "tempo": 120.0
            },
            {
                "start_time": 54.525,
                "end_time": 54.643181818181816,
                "pitch": 34,
                "velocity": 101,
                "duration": 0.11818181818181728,
                "tempo": 120.0
            },
            {
                "start_time": 54.643181818181816,
                "end_time": 54.64545454545454,
                "pitch": 41,
                "velocity": 101,
                "duration": 0.0022727272727252057,
                "tempo": 120.0
            },
            {
                "start_time": 54.64545454545454,
                "end_time": 54.76363636363636,
                "pitch": 27,
                "velocity": 101,
                "duration": 0.11818181818181728,
                "tempo": 120.0
            },
            {
                "start_time": 54.76363636363636,
                "end_time": 54.88409090909091,
                "pitch": 27,
                "velocity": 101,
                "duration": 0.12045454545454959,
                "tempo": 120.0
            },
            {
                "start_time": 54.88409090909091,
                "end_time": 55.00454545454545,
                "pitch": 39,
                "velocity": 101,
                "duration": 0.12045454545454248,
                "tempo": 120.0
            },
            {
                "start_time": 55.00454545454545,
                "end_time": 55.125,
                "pitch": 27,
                "velocity": 101,
                "duration": 0.12045454545454959,
                "tempo": 120.0
            },
            {
                "start_time": 55.125,
                "end_time": 55.24545454545454,
                "pitch": 30,
                "velocity": 101,
                "duration": 0.12045454545454248,
                "tempo": 120.0
            },
            {
                "start_time": 55.125,
                "end_time": 55.24545454545454,
                "pitch": 30,
                "velocity": 101,
                "duration": 0.12045454545454248,
                "tempo": 120.0
            },
            {
                "start_time": 55.24545454545454,
                "end_time": 55.365909090909085,
                "pitch": 32,
                "velocity": 101,
                "duration": 0.12045454545454248,
                "tempo": 120.0
            },
            {
                "start_time": 55.365909090909085,
                "end_time": 55.48409090909091,
                "pitch": 33,
                "velocity": 101,
                "duration": 0.11818181818182438,
                "tempo": 120.0
            },
            {
                "start_time": 55.48409090909091,
                "end_time": 55.60227272727273,
                "pitch": 34,
                "velocity": 101,
                "duration": 0.11818181818181728,
                "tempo": 120.0
            },
            {
                "start_time": 55.60227272727273,
                "end_time": 55.71818181818182,
                "pitch": 27,
                "velocity": 101,
                "duration": 0.11590909090909207,
                "tempo": 120.0
            },
            {
                "start_time": 55.71818181818182,
                "end_time": 55.836363636363636,
                "pitch": 27,
                "velocity": 101,
                "duration": 0.11818181818181728,
                "tempo": 120.0
            },
            {
                "start_time": 55.836363636363636,
                "end_time": 55.95681818181818,
                "pitch": 39,
                "velocity": 101,
                "duration": 0.12045454545454248,
                "tempo": 120.0
            },
            {
                "start_time": 55.95681818181818,
                "end_time": 56.074999999999996,
                "pitch": 27,
                "velocity": 101,
                "duration": 0.11818181818181728,
                "tempo": 120.0
            },
            {
                "start_time": 56.074999999999996,
                "end_time": 56.195454545454545,
                "pitch": 30,
                "velocity": 101,
                "duration": 0.12045454545454959,
                "tempo": 120.0
            },
            {
                "start_time": 56.074999999999996,
                "end_time": 56.195454545454545,
                "pitch": 30,
                "velocity": 101,
                "duration": 0.12045454545454959,
                "tempo": 120.0
            },
            {
                "start_time": 56.195454545454545,
                "end_time": 56.31590909090909,
                "pitch": 32,
                "velocity": 101,
                "duration": 0.12045454545454248,
                "tempo": 120.0
            },
            {
                "start_time": 56.31590909090909,
                "end_time": 56.43636363636363,
                "pitch": 33,
                "velocity": 101,
                "duration": 0.12045454545454248,
                "tempo": 120.0
            },
            {
                "start_time": 56.43636363636363,
                "end_time": 56.55681818181818,
                "pitch": 34,
                "velocity": 101,
                "duration": 0.12045454545454959,
                "tempo": 120.0
            },
            {
                "start_time": 55.60227272727273,
                "end_time": 56.55681818181818,
                "pitch": 41,
                "velocity": 101,
                "duration": 0.9545454545454533,
                "tempo": 120.0
            },
            {
                "start_time": 56.55681818181818,
                "end_time": 56.67727272727272,
                "pitch": 27,
                "velocity": 101,
                "duration": 0.12045454545454248,
                "tempo": 120.0
            },
            {
                "start_time": 56.67727272727272,
                "end_time": 56.79772727272727,
                "pitch": 27,
                "velocity": 101,
                "duration": 0.12045454545454959,
                "tempo": 120.0
            },
            {
                "start_time": 56.79772727272727,
                "end_time": 56.91590909090909,
                "pitch": 39,
                "velocity": 101,
                "duration": 0.11818181818181728,
                "tempo": 120.0
            },
            {
                "start_time": 56.91590909090909,
                "end_time": 57.03636363636363,
                "pitch": 27,
                "velocity": 101,
                "duration": 0.12045454545454248,
                "tempo": 120.0
            },
            {
                "start_time": 57.03636363636363,
                "end_time": 57.15681818181818,
                "pitch": 30,
                "velocity": 101,
                "duration": 0.12045454545454959,
                "tempo": 120.0
            },
            {
                "start_time": 57.03636363636363,
                "end_time": 57.15681818181818,
                "pitch": 30,
                "velocity": 101,
                "duration": 0.12045454545454959,
                "tempo": 120.0
            },
            {
                "start_time": 57.15681818181818,
                "end_time": 57.275,
                "pitch": 32,
                "velocity": 101,
                "duration": 0.11818181818181728,
                "tempo": 120.0
            },
            {
                "start_time": 57.275,
                "end_time": 57.39545454545454,
                "pitch": 33,
                "velocity": 101,
                "duration": 0.12045454545454248,
                "tempo": 120.0
            },
            {
                "start_time": 57.39545454545454,
                "end_time": 57.51590909090909,
                "pitch": 34,
                "velocity": 101,
                "duration": 0.12045454545454959,
                "tempo": 120.0
            },
            {
                "start_time": 57.51590909090909,
                "end_time": 57.63636363636363,
                "pitch": 34,
                "velocity": 101,
                "duration": 0.12045454545454248,
                "tempo": 120.0
            },
            {
                "start_time": 57.63636363636363,
                "end_time": 57.75909090909091,
                "pitch": 34,
                "velocity": 101,
                "duration": 0.1227272727272748,
                "tempo": 120.0
            },
            {
                "start_time": 52.375,
                "end_time": 57.877272727272725,
                "pitch": 15,
                "velocity": 101,
                "duration": 5.502272727272725,
                "tempo": 120.0
            },
            {
                "start_time": 57.75909090909091,
                "end_time": 57.877272727272725,
                "pitch": 37,
                "velocity": 101,
                "duration": 0.11818181818181728,
                "tempo": 120.0
            },
            {
                "start_time": 57.877272727272725,
                "end_time": 57.99772727272727,
                "pitch": 34,
                "velocity": 101,
                "duration": 0.12045454545454248,
                "tempo": 120.0
            },
            {
                "start_time": 56.55681818181818,
                "end_time": 57.99772727272727,
                "pitch": 41,
                "velocity": 101,
                "duration": 1.4409090909090878,
                "tempo": 120.0
            },
            {
                "start_time": 57.877272727272725,
                "end_time": 58.115909090909085,
                "pitch": 15,
                "velocity": 101,
                "duration": 0.23863636363635976,
                "tempo": 120.0
            },
            {
                "start_time": 57.99772727272727,
                "end_time": 58.115909090909085,
                "pitch": 39,
                "velocity": 101,
                "duration": 0.11818181818181728,
                "tempo": 120.0
            },
            {
                "start_time": 58.115909090909085,
                "end_time": 58.236363636363635,
                "pitch": 34,
                "velocity": 101,
                "duration": 0.12045454545454959,
                "tempo": 120.0
            },
            {
                "start_time": 57.75909090909091,
                "end_time": 58.236363636363635,
                "pitch": 40,
                "velocity": 101,
                "duration": 0.4772727272727266,
                "tempo": 120.0
            },
            {
                "start_time": 58.115909090909085,
                "end_time": 58.35681818181818,
                "pitch": 15,
                "velocity": 101,
                "duration": 0.24090909090909207,
                "tempo": 120.0
            },
            {
                "start_time": 58.236363636363635,
                "end_time": 58.35681818181818,
                "pitch": 37,
                "velocity": 101,
                "duration": 0.12045454545454248,
                "tempo": 120.0
            },
            {
                "start_time": 58.35681818181818,
                "end_time": 58.47727272727273,
                "pitch": 34,
                "velocity": 101,
                "duration": 0.12045454545454959,
                "tempo": 120.0
            },
            {
                "start_time": 58.59772727272727,
                "end_time": 58.71818181818182,
                "pitch": 34,
                "velocity": 101,
                "duration": 0.12045454545454959,
                "tempo": 120.0
            },
            {
                "start_time": 58.236363636363635,
                "end_time": 58.71818181818182,
                "pitch": 40,
                "velocity": 101,
                "duration": 0.48181818181818414,
                "tempo": 120.0
            },
            {
                "start_time": 58.35681818181818,
                "end_time": 58.836363636363636,
                "pitch": 15,
                "velocity": 101,
                "duration": 0.47954545454545894,
                "tempo": 120.0
            },
            {
                "start_time": 58.71818181818182,
                "end_time": 58.836363636363636,
                "pitch": 37,
                "velocity": 101,
                "duration": 0.11818181818181728,
                "tempo": 120.0
            },
            {
                "start_time": 58.836363636363636,
                "end_time": 58.95454545454545,
                "pitch": 34,
                "velocity": 101,
                "duration": 0.11818181818181728,
                "tempo": 120.0
            },
            {
                "start_time": 57.99772727272727,
                "end_time": 58.95454545454545,
                "pitch": 41,
                "velocity": 101,
                "duration": 0.9568181818181856,
                "tempo": 120.0
            },
            {
                "start_time": 58.836363636363636,
                "end_time": 59.07272727272727,
                "pitch": 15,
                "velocity": 101,
                "duration": 0.23636363636363455,
                "tempo": 120.0
            },
            {
                "start_time": 58.95454545454545,
                "end_time": 59.07272727272727,
                "pitch": 39,
                "velocity": 101,
                "duration": 0.11818181818181728,
                "tempo": 120.0
            },
            {
                "start_time": 59.07272727272727,
                "end_time": 59.18863636363636,
                "pitch": 34,
                "velocity": 101,
                "duration": 0.11590909090909207,
                "tempo": 120.0
            },
            {
                "start_time": 59.18863636363636,
                "end_time": 59.429545454545455,
                "pitch": 32,
                "velocity": 101,
                "duration": 0.24090909090909207,
                "tempo": 120.0
            },
            {
                "start_time": 59.429545454545455,
                "end_time": 59.54772727272727,
                "pitch": 34,
                "velocity": 101,
                "duration": 0.11818181818181728,
                "tempo": 120.0
            },
            {
                "start_time": 59.54772727272727,
                "end_time": 59.668181818181814,
                "pitch": 34,
                "velocity": 101,
                "duration": 0.12045454545454248,
                "tempo": 120.0
            },
            {
                "start_time": 58.71818181818182,
                "end_time": 59.668181818181814,
                "pitch": 40,
                "velocity": 101,
                "duration": 0.9499999999999957,
                "tempo": 120.0
            },
            {
                "start_time": 59.07272727272727,
                "end_time": 59.788636363636364,
                "pitch": 15,
                "velocity": 101,
                "duration": 0.7159090909090935,
                "tempo": 120.0
            },
            {
                "start_time": 59.668181818181814,
                "end_time": 59.788636363636364,
                "pitch": 37,
                "velocity": 101,
                "duration": 0.12045454545454959,
                "tempo": 120.0
            },
            {
                "start_time": 59.788636363636364,
                "end_time": 59.90909090909091,
                "pitch": 34,
                "velocity": 101,
                "duration": 0.12045454545454248,
                "tempo": 120.0
            },
            {
                "start_time": 58.95454545454545,
                "end_time": 59.90909090909091,
                "pitch": 41,
                "velocity": 101,
                "duration": 0.9545454545454533,
                "tempo": 120.0
            },
            {
                "start_time": 59.788636363636364,
                "end_time": 60.02954545454545,
                "pitch": 15,
                "velocity": 101,
                "duration": 0.24090909090908497,
                "tempo": 120.0
            },
            {
                "start_time": 59.90909090909091,
                "end_time": 60.02954545454545,
                "pitch": 39,
                "velocity": 101,
                "duration": 0.12045454545454248,
                "tempo": 120.0
            },
            {
                "start_time": 60.02954545454545,
                "end_time": 60.15,
                "pitch": 34,
                "velocity": 101,
                "duration": 0.12045454545454959,
                "tempo": 120.0
            },
            {
                "start_time": 59.668181818181814,
                "end_time": 60.15,
                "pitch": 40,
                "velocity": 101,
                "duration": 0.48181818181818414,
                "tempo": 120.0
            },
            {
                "start_time": 60.02954545454545,
                "end_time": 60.27045454545454,
                "pitch": 15,
                "velocity": 101,
                "duration": 0.24090909090909207,
                "tempo": 120.0
            },
            {
                "start_time": 60.15,
                "end_time": 60.27045454545454,
                "pitch": 37,
                "velocity": 101,
                "duration": 0.12045454545454248,
                "tempo": 120.0
            },
            {
                "start_time": 60.27045454545454,
                "end_time": 60.38863636363636,
                "pitch": 34,
                "velocity": 101,
                "duration": 0.11818181818181728,
                "tempo": 120.0
            },
            {
                "start_time": 52.72954545454545,
                "end_time": 60.38863636363636,
                "pitch": 42,
                "velocity": 101,
                "duration": 7.6590909090909065,
                "tempo": 120.0
            },
            {
                "start_time": 60.38863636363636,
                "end_time": 60.50909090909091,
                "pitch": 29,
                "velocity": 101,
                "duration": 0.12045454545454959,
                "tempo": 120.0
            },
            {
                "start_time": 60.50909090909091,
                "end_time": 60.62954545454545,
                "pitch": 34,
                "velocity": 101,
                "duration": 0.12045454545454248,
                "tempo": 120.0
            },
            {
                "start_time": 60.15,
                "end_time": 60.62954545454545,
                "pitch": 40,
                "velocity": 101,
                "duration": 0.47954545454545183,
                "tempo": 120.0
            },
            {
                "start_time": 60.27045454545454,
                "end_time": 60.75,
                "pitch": 15,
                "velocity": 101,
                "duration": 0.47954545454545894,
                "tempo": 120.0
            },
            {
                "start_time": 60.62954545454545,
                "end_time": 60.75,
                "pitch": 37,
                "velocity": 101,
                "duration": 0.12045454545454959,
                "tempo": 120.0
            },
            {
                "start_time": 60.75,
                "end_time": 60.87045454545454,
                "pitch": 34,
                "velocity": 101,
                "duration": 0.12045454545454248,
                "tempo": 120.0
            },
            {
                "start_time": 60.87045454545454,
                "end_time": 60.990909090909085,
                "pitch": 37,
                "velocity": 101,
                "duration": 0.12045454545454248,
                "tempo": 120.0
            },
            {
                "start_time": 60.990909090909085,
                "end_time": 61.111363636363635,
                "pitch": 39,
                "velocity": 101,
                "duration": 0.12045454545454959,
                "tempo": 120.0
            },
            {
                "start_time": 60.62954545454545,
                "end_time": 61.22954545454545,
                "pitch": 40,
                "velocity": 101,
                "duration": 0.6000000000000014,
                "tempo": 120.0
            },
            {
                "start_time": 61.111363636363635,
                "end_time": 61.22954545454545,
                "pitch": 40,
                "velocity": 101,
                "duration": 0.11818181818181728,
                "tempo": 120.0
            },
            {
                "start_time": 59.90909090909091,
                "end_time": 61.349999999999994,
                "pitch": 41,
                "velocity": 101,
                "duration": 1.4409090909090878,
                "tempo": 120.0
            },
            {
                "start_time": 61.22954545454545,
                "end_time": 61.349999999999994,
                "pitch": 41,
                "velocity": 101,
                "duration": 0.12045454545454248,
                "tempo": 120.0
            },
            {
                "start_time": 61.349999999999994,
                "end_time": 61.470454545454544,
                "pitch": 25,
                "velocity": 101,
                "duration": 0.12045454545454959,
                "tempo": 120.0
            },
            {
                "start_time": 61.470454545454544,
                "end_time": 61.58863636363636,
                "pitch": 25,
                "velocity": 101,
                "duration": 0.11818181818181728,
                "tempo": 120.0
            },
            {
                "start_time": 61.349999999999994,
                "end_time": 61.70681818181818,
                "pitch": 37,
                "velocity": 101,
                "duration": 0.35681818181818414,
                "tempo": 120.0
            },
            {
                "start_time": 61.58863636363636,
                "end_time": 61.70681818181818,
                "pitch": 37,
                "velocity": 101,
                "duration": 0.11818181818181728,
                "tempo": 120.0
            },
            {
                "start_time": 61.70681818181818,
                "end_time": 61.824999999999996,
                "pitch": 25,
                "velocity": 101,
                "duration": 0.11818181818181728,
                "tempo": 120.0
            },
            {
                "start_time": 61.94318181818181,
                "end_time": 62.06136363636363,
                "pitch": 25,
                "velocity": 101,
                "duration": 0.11818181818181728,
                "tempo": 120.0
            },
            {
                "start_time": 62.06136363636363,
                "end_time": 62.18181818181818,
                "pitch": 37,
                "velocity": 101,
                "duration": 0.12045454545454959,
                "tempo": 120.0
            },
            {
                "start_time": 62.30227272727272,
                "end_time": 62.42272727272727,
                "pitch": 27,
                "velocity": 101,
                "duration": 0.12045454545454959,
                "tempo": 120.0
            },
            {
                "start_time": 62.42272727272727,
                "end_time": 62.543181818181814,
                "pitch": 27,
                "velocity": 101,
                "duration": 0.12045454545454248,
                "tempo": 120.0
            },
            {
                "start_time": 62.543181818181814,
                "end_time": 62.66136363636363,
                "pitch": 39,
                "velocity": 101,
                "duration": 0.11818181818181728,
                "tempo": 120.0
            },
            {
                "start_time": 62.66136363636363,
                "end_time": 62.78181818181818,
                "pitch": 27,
                "velocity": 101,
                "duration": 0.12045454545454959,
                "tempo": 120.0
            },
            {
                "start_time": 62.78181818181818,
                "end_time": 62.902272727272724,
                "pitch": 30,
                "velocity": 101,
                "duration": 0.12045454545454248,
                "tempo": 120.0
            },
            {
                "start_time": 62.78181818181818,
                "end_time": 62.902272727272724,
                "pitch": 30,
                "velocity": 101,
                "duration": 0.12045454545454248,
                "tempo": 120.0
            },
            {
                "start_time": 62.902272727272724,
                "end_time": 63.02045454545454,
                "pitch": 32,
                "velocity": 101,
                "duration": 0.11818181818181728,
                "tempo": 120.0
            },
            {
                "start_time": 63.02045454545454,
                "end_time": 63.14090909090909,
                "pitch": 33,
                "velocity": 101,
                "duration": 0.12045454545454959,
                "tempo": 120.0
            },
            {
                "start_time": 63.14090909090909,
                "end_time": 63.25909090909091,
                "pitch": 34,
                "velocity": 101,
                "duration": 0.11818181818181728,
                "tempo": 120.0
            },
            {
                "start_time": 63.25909090909091,
                "end_time": 63.37954545454545,
                "pitch": 34,
                "velocity": 101,
                "duration": 0.12045454545454248,
                "tempo": 120.0
            },
            {
                "start_time": 63.37954545454545,
                "end_time": 63.5,
                "pitch": 34,
                "velocity": 101,
                "duration": 0.12045454545454959,
                "tempo": 120.0
            },
            {
                "start_time": 63.5,
                "end_time": 63.62045454545454,
                "pitch": 46,
                "velocity": 101,
                "duration": 0.12045454545454248,
                "tempo": 120.0
            },
            {
                "start_time": 63.62045454545454,
                "end_time": 63.740909090909085,
                "pitch": 34,
                "velocity": 101,
                "duration": 0.12045454545454248,
                "tempo": 120.0
            },
            {
                "start_time": 63.861363636363635,
                "end_time": 63.98181818181818,
                "pitch": 32,
                "velocity": 101,
                "duration": 0.12045454545454248,
                "tempo": 120.0
            },
            {
                "start_time": 64.10227272727272,
                "end_time": 64.22045454545454,
                "pitch": 34,
                "velocity": 101,
                "duration": 0.11818181818182438,
                "tempo": 120.0
            },
            {
                "start_time": 64.22045454545454,
                "end_time": 64.3409090909091,
                "pitch": 34,
                "velocity": 101,
                "duration": 0.12045454545454959,
                "tempo": 120.0
            },
            {
                "start_time": 64.3409090909091,
                "end_time": 64.4590909090909,
                "pitch": 34,
                "velocity": 101,
                "duration": 0.11818181818181017,
                "tempo": 120.0
            },
            {
                "start_time": 64.4590909090909,
                "end_time": 64.57954545454545,
                "pitch": 34,
                "velocity": 101,
                "duration": 0.12045454545454959,
                "tempo": 120.0
            },
            {
                "start_time": 64.57954545454545,
                "end_time": 64.70227272727273,
                "pitch": 34,
                "velocity": 101,
                "duration": 0.1227272727272748,
                "tempo": 120.0
            },
            {
                "start_time": 64.70227272727273,
                "end_time": 64.82272727272726,
                "pitch": 34,
                "velocity": 101,
                "duration": 0.12045454545453538,
                "tempo": 120.0
            },
            {
                "start_time": 64.82272727272726,
                "end_time": 64.94318181818181,
                "pitch": 32,
                "velocity": 101,
                "duration": 0.12045454545454959,
                "tempo": 120.0
            },
            {
                "start_time": 64.94318181818181,
                "end_time": 65.05909090909091,
                "pitch": 34,
                "velocity": 101,
                "duration": 0.11590909090909918,
                "tempo": 120.0
            },
            {
                "start_time": 65.05909090909091,
                "end_time": 65.17727272727272,
                "pitch": 32,
                "velocity": 101,
                "duration": 0.11818181818181017,
                "tempo": 120.0
            },
            {
                "start_time": 65.17727272727272,
                "end_time": 65.29545454545455,
                "pitch": 25,
                "velocity": 101,
                "duration": 0.11818181818182438,
                "tempo": 120.0
            },
            {
                "start_time": 65.29545454545455,
                "end_time": 65.41363636363636,
                "pitch": 25,
                "velocity": 101,
                "duration": 0.11818181818181017,
                "tempo": 120.0
            },
            {
                "start_time": 65.41363636363636,
                "end_time": 65.5340909090909,
                "pitch": 37,
                "velocity": 101,
                "duration": 0.12045454545454959,
                "tempo": 120.0
            },
            {
                "start_time": 65.5340909090909,
                "end_time": 65.65454545454546,
                "pitch": 25,
                "velocity": 101,
                "duration": 0.12045454545454959,
                "tempo": 120.0
            },
            {
                "start_time": 65.77499999999999,
                "end_time": 65.89545454545454,
                "pitch": 25,
                "velocity": 101,
                "duration": 0.12045454545454959,
                "tempo": 120.0
            },
            {
                "start_time": 65.89545454545454,
                "end_time": 66.01590909090909,
                "pitch": 37,
                "velocity": 101,
                "duration": 0.12045454545454959,
                "tempo": 120.0
            },
            {
                "start_time": 66.1340909090909,
                "end_time": 66.25454545454545,
                "pitch": 27,
                "velocity": 101,
                "duration": 0.12045454545454959,
                "tempo": 120.0
            },
            {
                "start_time": 66.25454545454545,
                "end_time": 66.375,
                "pitch": 27,
                "velocity": 101,
                "duration": 0.12045454545454959,
                "tempo": 120.0
            },
            {
                "start_time": 66.375,
                "end_time": 66.49545454545454,
                "pitch": 39,
                "velocity": 101,
                "duration": 0.12045454545453538,
                "tempo": 120.0
            },
            {
                "start_time": 66.49545454545454,
                "end_time": 66.61590909090908,
                "pitch": 27,
                "velocity": 101,
                "duration": 0.12045454545454959,
                "tempo": 120.0
            },
            {
                "start_time": 66.61590909090908,
                "end_time": 66.73636363636363,
                "pitch": 30,
                "velocity": 101,
                "duration": 0.12045454545454959,
                "tempo": 120.0
            },
            {
                "start_time": 66.73636363636363,
                "end_time": 66.85681818181818,
                "pitch": 32,
                "velocity": 101,
                "duration": 0.12045454545454959,
                "tempo": 120.0
            },
            {
                "start_time": 66.85681818181818,
                "end_time": 66.97727272727272,
                "pitch": 33,
                "velocity": 101,
                "duration": 0.12045454545453538,
                "tempo": 120.0
            },
            {
                "start_time": 66.97727272727272,
                "end_time": 67.09772727272727,
                "pitch": 34,
                "velocity": 101,
                "duration": 0.12045454545454959,
                "tempo": 120.0
            },
            {
                "start_time": 67.09772727272727,
                "end_time": 67.21818181818182,
                "pitch": 34,
                "velocity": 101,
                "duration": 0.12045454545454959,
                "tempo": 120.0
            },
            {
                "start_time": 67.21818181818182,
                "end_time": 67.33863636363635,
                "pitch": 34,
                "velocity": 101,
                "duration": 0.12045454545453538,
                "tempo": 120.0
            },
            {
                "start_time": 67.33863636363635,
                "end_time": 67.4590909090909,
                "pitch": 46,
                "velocity": 101,
                "duration": 0.12045454545454959,
                "tempo": 120.0
            },
            {
                "start_time": 67.4590909090909,
                "end_time": 67.57954545454545,
                "pitch": 34,
                "velocity": 101,
                "duration": 0.12045454545454959,
                "tempo": 120.0
            },
            {
                "start_time": 67.7,
                "end_time": 67.82045454545454,
                "pitch": 32,
                "velocity": 101,
                "duration": 0.12045454545453538,
                "tempo": 120.0
            },
            {
                "start_time": 67.93863636363636,
                "end_time": 68.05681818181817,
                "pitch": 34,
                "velocity": 101,
                "duration": 0.11818181818181017,
                "tempo": 120.0
            },
            {
                "start_time": 68.05681818181817,
                "end_time": 68.175,
                "pitch": 34,
                "velocity": 101,
                "duration": 0.11818181818182438,
                "tempo": 120.0
            },
            {
                "start_time": 68.175,
                "end_time": 68.29090909090908,
                "pitch": 34,
                "velocity": 101,
                "duration": 0.11590909090908497,
                "tempo": 120.0
            },
            {
                "start_time": 68.29090909090908,
                "end_time": 68.41136363636363,
                "pitch": 46,
                "velocity": 101,
                "duration": 0.12045454545454959,
                "tempo": 120.0
            },
            {
                "start_time": 68.41136363636363,
                "end_time": 68.53181818181818,
                "pitch": 34,
                "velocity": 101,
                "duration": 0.12045454545454959,
                "tempo": 120.0
            },
            {
                "start_time": 68.64999999999999,
                "end_time": 68.77045454545454,
                "pitch": 34,
                "velocity": 101,
                "duration": 0.12045454545454959,
                "tempo": 120.0
            },
            {
                "start_time": 68.77045454545454,
                "end_time": 68.89090909090909,
                "pitch": 46,
                "velocity": 101,
                "duration": 0.12045454545454959,
                "tempo": 120.0
            },
            {
                "start_time": 69.01136363636363,
                "end_time": 69.13181818181818,
                "pitch": 35,
                "velocity": 101,
                "duration": 0.12045454545454959,
                "tempo": 120.0
            }
        ],
        "Synth Bass 1": [
            {
                "start_time": 0.04772727272727272,
                "end_time": 0.1477272727272727,
                "pitch": 45,
                "velocity": 101,
                "duration": 0.09999999999999998,
                "tempo": 120.0
            },
            {
                "start_time": 0.1477272727272727,
                "end_time": 0.2477272727272727,
                "pitch": 45,
                "velocity": 101,
                "duration": 0.1,
                "tempo": 120.0
            },
            {
                "start_time": 0.2477272727272727,
                "end_time": 0.3659090909090909,
                "pitch": 48,
                "velocity": 101,
                "duration": 0.1181818181818182,
                "tempo": 120.0
            },
            {
                "start_time": 0.3659090909090909,
                "end_time": 0.4886363636363636,
                "pitch": 45,
                "velocity": 101,
                "duration": 0.12272727272727268,
                "tempo": 120.0
            },
            {
                "start_time": 0.3659090909090909,
                "end_time": 0.609090909090909,
                "pitch": 19,
                "velocity": 101,
                "duration": 0.2431818181818181,
                "tempo": 120.0
            },
            {
                "start_time": 0.4886363636363636,
                "end_time": 0.609090909090909,
                "pitch": 50,
                "velocity": 101,
                "duration": 0.12045454545454543,
                "tempo": 120.0
            },
            {
                "start_time": 0.609090909090909,
                "end_time": 0.7295454545454545,
                "pitch": 45,
                "velocity": 101,
                "duration": 0.12045454545454548,
                "tempo": 120.0
            },
            {
                "start_time": 0.2477272727272727,
                "end_time": 0.7295454545454545,
                "pitch": 52,
                "velocity": 101,
                "duration": 0.4818181818181818,
                "tempo": 120.0
            },
            {
                "start_time": 0.609090909090909,
                "end_time": 0.85,
                "pitch": 19,
                "velocity": 101,
                "duration": 0.24090909090909096,
                "tempo": 120.0
            },
            {
                "start_time": 0.7295454545454545,
                "end_time": 0.85,
                "pitch": 48,
                "velocity": 101,
                "duration": 0.12045454545454548,
                "tempo": 120.0
            },
            {
                "start_time": 0.85,
                "end_time": 0.9704545454545455,
                "pitch": 45,
                "velocity": 101,
                "duration": 0.12045454545454548,
                "tempo": 120.0
            },
            {
                "start_time": 1.0909090909090908,
                "end_time": 1.2113636363636362,
                "pitch": 45,
                "velocity": 101,
                "duration": 0.12045454545454537,
                "tempo": 120.0
            },
            {
                "start_time": 0.85,
                "end_time": 1.3295454545454546,
                "pitch": 19,
                "velocity": 101,
                "duration": 0.4795454545454546,
                "tempo": 120.0
            },
            {
                "start_time": 1.2113636363636362,
                "end_time": 1.3295454545454546,
                "pitch": 48,
                "velocity": 101,
                "duration": 0.11818181818181839,
                "tempo": 120.0
            },
            {
                "start_time": 1.3295454545454546,
                "end_time": 1.45,
                "pitch": 45,
                "velocity": 101,
                "duration": 0.12045454545454537,
                "tempo": 120.0
            },
            {
                "start_time": 0.4886363636363636,
                "end_time": 1.45,
                "pitch": 53,
                "velocity": 101,
                "duration": 0.9613636363636364,
                "tempo": 120.0
            },
            {
                "start_time": 1.3295454545454546,
                "end_time": 1.5704545454545453,
                "pitch": 19,
                "velocity": 101,
                "duration": 0.24090909090909074,
                "tempo": 120.0
            },
            {
                "start_time": 1.45,
                "end_time": 1.5704545454545453,
                "pitch": 50,
                "velocity": 101,
                "duration": 0.12045454545454537,
                "tempo": 120.0
            },
            {
                "start_time": 1.5704545454545453,
                "end_time": 1.6886363636363635,
                "pitch": 45,
                "velocity": 101,
                "duration": 0.11818181818181817,
                "tempo": 120.0
            },
            {
                "start_time": 1.6886363636363635,
                "end_time": 1.9295454545454545,
                "pitch": 43,
                "velocity": 101,
                "duration": 0.24090909090909096,
                "tempo": 120.0
            },
            {
                "start_time": 1.9295454545454545,
                "end_time": 2.047727272727273,
                "pitch": 45,
                "velocity": 101,
                "duration": 0.11818181818181839,
                "tempo": 120.0
            },
            {
                "start_time": 1.9295454545454545,
                "end_time": 2.047727272727273,
                "pitch": 45,
                "velocity": 101,
                "duration": 0.11818181818181839,
                "tempo": 120.0
            },
            {
                "start_time": 2.047727272727273,
                "end_time": 2.168181818181818,
                "pitch": 45,
                "velocity": 101,
                "duration": 0.12045454545454515,
                "tempo": 120.0
            },
            {
                "start_time": 2.168181818181818,
                "end_time": 2.2886363636363636,
                "pitch": 48,
                "velocity": 101,
                "duration": 0.12045454545454559,
                "tempo": 120.0
            },
            {
                "start_time": 2.2886363636363636,
                "end_time": 2.409090909090909,
                "pitch": 45,
                "velocity": 101,
                "duration": 0.12045454545454559,
                "tempo": 120.0
            },
            {
                "start_time": 1.45,
                "end_time": 2.409090909090909,
                "pitch": 53,
                "velocity": 101,
                "duration": 0.9590909090909092,
                "tempo": 120.0
            },
            {
                "start_time": 1.5704545454545453,
                "end_time": 2.5295454545454543,
                "pitch": 19,
                "velocity": 101,
                "duration": 0.959090909090909,
                "tempo": 120.0
            },
            {
                "start_time": 2.409090909090909,
                "end_time": 2.5295454545454543,
                "pitch": 50,
                "velocity": 101,
                "duration": 0.12045454545454515,
                "tempo": 120.0
            },
            {
                "start_time": 2.5295454545454543,
                "end_time": 2.65,
                "pitch": 45,
                "velocity": 101,
                "duration": 0.12045454545454559,
                "tempo": 120.0
            },
            {
                "start_time": 2.5295454545454543,
                "end_time": 2.768181818181818,
                "pitch": 19,
                "velocity": 101,
                "duration": 0.23863636363636376,
                "tempo": 120.0
            },
            {
                "start_time": 2.65,
                "end_time": 2.768181818181818,
                "pitch": 48,
                "velocity": 101,
                "duration": 0.11818181818181817,
                "tempo": 120.0
            },
            {
                "start_time": 2.768181818181818,
                "end_time": 2.8863636363636362,
                "pitch": 45,
                "velocity": 101,
                "duration": 0.11818181818181817,
                "tempo": 120.0
            },
            {
                "start_time": 2.8863636363636362,
                "end_time": 3.002272727272727,
                "pitch": 40,
                "velocity": 101,
                "duration": 0.11590909090909074,
                "tempo": 120.0
            },
            {
                "start_time": 3.002272727272727,
                "end_time": 3.120454545454545,
                "pitch": 45,
                "velocity": 101,
                "duration": 0.11818181818181817,
                "tempo": 120.0
            },
            {
                "start_time": 0.7295454545454545,
                "end_time": 3.120454545454545,
                "pitch": 52,
                "velocity": 101,
                "duration": 2.3909090909090907,
                "tempo": 120.0
            },
            {
                "start_time": 3.120454545454545,
                "end_time": 3.2409090909090907,
                "pitch": 48,
                "velocity": 101,
                "duration": 0.12045454545454559,
                "tempo": 120.0
            },
            {
                "start_time": 3.2409090909090907,
                "end_time": 3.359090909090909,
                "pitch": 45,
                "velocity": 101,
                "duration": 0.11818181818181817,
                "tempo": 120.0
            },
            {
                "start_time": 3.120454545454545,
                "end_time": 3.3613636363636363,
                "pitch": 52,
                "velocity": 101,
                "duration": 0.24090909090909118,
                "tempo": 120.0
            },
            {
                "start_time": 3.359090909090909,
                "end_time": 3.3613636363636363,
                "pitch": 52,
                "velocity": 101,
                "duration": 0.002272727272727426,
                "tempo": 120.0
            },
            {
                "start_time": 3.3613636363636363,
                "end_time": 3.4795454545454545,
                "pitch": 48,
                "velocity": 101,
                "duration": 0.11818181818181817,
                "tempo": 120.0
            },
            {
                "start_time": 3.4795454545454545,
                "end_time": 3.5999999999999996,
                "pitch": 50,
                "velocity": 101,
                "duration": 0.12045454545454515,
                "tempo": 120.0
            },
            {
                "start_time": 3.4795454545454545,
                "end_time": 3.5999999999999996,
                "pitch": 50,
                "velocity": 101,
                "duration": 0.12045454545454515,
                "tempo": 120.0
            },
            {
                "start_time": 3.5999999999999996,
                "end_time": 3.718181818181818,
                "pitch": 51,
                "velocity": 101,
                "duration": 0.11818181818181817,
                "tempo": 120.0
            },
            {
                "start_time": 3.718181818181818,
                "end_time": 3.8386363636363634,
                "pitch": 52,
                "velocity": 101,
                "duration": 0.12045454545454559,
                "tempo": 120.0
            },
            {
                "start_time": 3.8386363636363634,
                "end_time": 3.959090909090909,
                "pitch": 45,
                "velocity": 101,
                "duration": 0.12045454545454559,
                "tempo": 120.0
            },
            {
                "start_time": 3.959090909090909,
                "end_time": 4.077272727272727,
                "pitch": 45,
                "velocity": 101,
                "duration": 0.11818181818181817,
                "tempo": 120.0
            },
            {
                "start_time": 2.768181818181818,
                "end_time": 4.197727272727272,
                "pitch": 19,
                "velocity": 101,
                "duration": 1.4295454545454542,
                "tempo": 120.0
            },
            {
                "start_time": 4.077272727272727,
                "end_time": 4.197727272727272,
                "pitch": 48,
                "velocity": 101,
                "duration": 0.12045454545454515,
                "tempo": 120.0
            },
            {
                "start_time": 4.197727272727272,
                "end_time": 4.318181818181818,
                "pitch": 45,
                "velocity": 101,
                "duration": 0.12045454545454604,
                "tempo": 120.0
            },
            {
                "start_time": 4.197727272727272,
                "end_time": 4.4363636363636365,
                "pitch": 19,
                "velocity": 101,
                "duration": 0.2386363636363642,
                "tempo": 120.0
            },
            {
                "start_time": 4.318181818181818,
                "end_time": 4.4363636363636365,
                "pitch": 50,
                "velocity": 101,
                "duration": 0.11818181818181817,
                "tempo": 120.0
            },
            {
                "start_time": 4.4363636363636365,
                "end_time": 4.556818181818182,
                "pitch": 45,
                "velocity": 101,
                "duration": 0.12045454545454515,
                "tempo": 120.0
            },
            {
                "start_time": 4.077272727272727,
                "end_time": 4.556818181818182,
                "pitch": 52,
                "velocity": 101,
                "duration": 0.4795454545454545,
                "tempo": 120.0
            },
            {
                "start_time": 4.4363636363636365,
                "end_time": 4.677272727272727,
                "pitch": 19,
                "velocity": 101,
                "duration": 0.2409090909090903,
                "tempo": 120.0
            },
            {
                "start_time": 4.556818181818182,
                "end_time": 4.677272727272727,
                "pitch": 48,
                "velocity": 101,
                "duration": 0.12045454545454515,
                "tempo": 120.0
            },
            {
                "start_time": 4.677272727272727,
                "end_time": 4.797727272727273,
                "pitch": 45,
                "velocity": 101,
                "duration": 0.12045454545454604,
                "tempo": 120.0
            },
            {
                "start_time": 4.918181818181818,
                "end_time": 5.038636363636363,
                "pitch": 45,
                "velocity": 101,
                "duration": 0.12045454545454515,
                "tempo": 120.0
            },
            {
                "start_time": 4.556818181818182,
                "end_time": 5.038636363636363,
                "pitch": 52,
                "velocity": 101,
                "duration": 0.4818181818181815,
                "tempo": 120.0
            },
            {
                "start_time": 4.677272727272727,
                "end_time": 5.159090909090909,
                "pitch": 19,
                "velocity": 101,
                "duration": 0.48181818181818237,
                "tempo": 120.0
            },
            {
                "start_time": 5.038636363636363,
                "end_time": 5.159090909090909,
                "pitch": 48,
                "velocity": 101,
                "duration": 0.12045454545454604,
                "tempo": 120.0
            },
            {
                "start_time": 5.159090909090909,
                "end_time": 5.277272727272727,
                "pitch": 45,
                "velocity": 101,
                "duration": 0.11818181818181817,
                "tempo": 120.0
            },
            {
                "start_time": 2.409090909090909,
                "end_time": 5.279545454545454,
                "pitch": 53,
                "velocity": 101,
                "duration": 2.870454545454545,
                "tempo": 120.0
            },
            {
                "start_time": 5.277272727272727,
                "end_time": 5.279545454545454,
                "pitch": 53,
                "velocity": 101,
                "duration": 0.002272727272726982,
                "tempo": 120.0
            },
            {
                "start_time": 5.159090909090909,
                "end_time": 5.3977272727272725,
                "pitch": 19,
                "velocity": 101,
                "duration": 0.2386363636363633,
                "tempo": 120.0
            },
            {
                "start_time": 5.279545454545454,
                "end_time": 5.3977272727272725,
                "pitch": 50,
                "velocity": 101,
                "duration": 0.11818181818181817,
                "tempo": 120.0
            },
            {
                "start_time": 5.3977272727272725,
                "end_time": 5.518181818181818,
                "pitch": 45,
                "velocity": 101,
                "duration": 0.12045454545454515,
                "tempo": 120.0
            },
            {
                "start_time": 5.518181818181818,
                "end_time": 5.752272727272727,
                "pitch": 43,
                "velocity": 101,
                "duration": 0.23409090909090935,
                "tempo": 120.0
            },
            {
                "start_time": 5.518181818181818,
                "end_time": 5.752272727272727,
                "pitch": 43,
                "velocity": 101,
                "duration": 0.23409090909090935,
                "tempo": 120.0
            },
            {
                "start_time": 5.752272727272727,
                "end_time": 5.870454545454545,
                "pitch": 45,
                "velocity": 101,
                "duration": 0.11818181818181817,
                "tempo": 120.0
            },
            {
                "start_time": 5.752272727272727,
                "end_time": 5.870454545454545,
                "pitch": 45,
                "velocity": 101,
                "duration": 0.11818181818181817,
                "tempo": 120.0
            },
            {
                "start_time": 5.870454545454545,
                "end_time": 5.988636363636363,
                "pitch": 45,
                "velocity": 101,
                "duration": 0.11818181818181817,
                "tempo": 120.0
            },
            {
                "start_time": 5.038636363636363,
                "end_time": 5.988636363636363,
                "pitch": 52,
                "velocity": 101,
                "duration": 0.9500000000000002,
                "tempo": 120.0
            },
            {
                "start_time": 5.3977272727272725,
                "end_time": 6.1090909090909085,
                "pitch": 19,
                "velocity": 101,
                "duration": 0.711363636363636,
                "tempo": 120.0
            },
            {
                "start_time": 5.988636363636363,
                "end_time": 6.1090909090909085,
                "pitch": 48,
                "velocity": 101,
                "duration": 0.12045454545454515,
                "tempo": 120.0
            },
            {
                "start_time": 6.1090909090909085,
                "end_time": 6.2295454545454545,
                "pitch": 45,
                "velocity": 101,
                "duration": 0.12045454545454604,
                "tempo": 120.0
            },
            {
                "start_time": 6.2295454545454545,
                "end_time": 6.35,
                "pitch": 50,
                "velocity": 101,
                "duration": 0.12045454545454515,
                "tempo": 120.0
            },
            {
                "start_time": 6.35,
                "end_time": 6.470454545454545,
                "pitch": 45,
                "velocity": 101,
                "duration": 0.12045454545454515,
                "tempo": 120.0
            },
            {
                "start_time": 6.1090909090909085,
                "end_time": 6.590909090909091,
                "pitch": 19,
                "velocity": 101,
                "duration": 0.48181818181818237,
                "tempo": 120.0
            },
            {
                "start_time": 6.470454545454545,
                "end_time": 6.590909090909091,
                "pitch": 48,
                "velocity": 101,
                "duration": 0.12045454545454604,
                "tempo": 120.0
            },
            {
                "start_time": 6.590909090909091,
                "end_time": 6.709090909090909,
                "pitch": 45,
                "velocity": 101,
                "duration": 0.11818181818181817,
                "tempo": 120.0
            },
            {
                "start_time": 2.8863636363636362,
                "end_time": 6.709090909090909,
                "pitch": 54,
                "velocity": 101,
                "duration": 3.8227272727272728,
                "tempo": 120.0
            },
            {
                "start_time": 6.709090909090909,
                "end_time": 6.829545454545454,
                "pitch": 40,
                "velocity": 101,
                "duration": 0.12045454545454515,
                "tempo": 120.0
            },
            {
                "start_time": 6.829545454545454,
                "end_time": 6.947727272727272,
                "pitch": 45,
                "velocity": 101,
                "duration": 0.11818181818181817,
                "tempo": 120.0
            },
            {
                "start_time": 5.988636363636363,
                "end_time": 6.947727272727272,
                "pitch": 52,
                "velocity": 101,
                "duration": 0.959090909090909,
                "tempo": 120.0
            },
            {
                "start_time": 6.590909090909091,
                "end_time": 7.0681818181818175,
                "pitch": 19,
                "velocity": 101,
                "duration": 0.4772727272727266,
                "tempo": 120.0
            },
            {
                "start_time": 6.947727272727272,
                "end_time": 7.0681818181818175,
                "pitch": 48,
                "velocity": 101,
                "duration": 0.12045454545454515,
                "tempo": 120.0
            },
            {
                "start_time": 7.0681818181818175,
                "end_time": 7.1886363636363635,
                "pitch": 45,
                "velocity": 101,
                "duration": 0.12045454545454604,
                "tempo": 120.0
            },
            {
                "start_time": 6.947727272727272,
                "end_time": 7.1886363636363635,
                "pitch": 52,
                "velocity": 101,
                "duration": 0.24090909090909118,
                "tempo": 120.0
            },
            {
                "start_time": 7.1886363636363635,
                "end_time": 7.311363636363636,
                "pitch": 48,
                "velocity": 101,
                "duration": 0.12272727272727213,
                "tempo": 120.0
            },
            {
                "start_time": 7.311363636363636,
                "end_time": 7.431818181818182,
                "pitch": 50,
                "velocity": 101,
                "duration": 0.12045454545454604,
                "tempo": 120.0
            },
            {
                "start_time": 7.431818181818182,
                "end_time": 7.552272727272727,
                "pitch": 51,
                "velocity": 101,
                "duration": 0.12045454545454515,
                "tempo": 120.0
            },
            {
                "start_time": 7.1886363636363635,
                "end_time": 7.672727272727272,
                "pitch": 52,
                "velocity": 101,
                "duration": 0.48409090909090846,
                "tempo": 120.0
            },
            {
                "start_time": 7.552272727272727,
                "end_time": 7.672727272727272,
                "pitch": 52,
                "velocity": 101,
                "duration": 0.12045454545454515,
                "tempo": 120.0
            },
            {
                "start_time": 7.672727272727272,
                "end_time": 7.793181818181818,
                "pitch": 38,
                "velocity": 101,
                "duration": 0.12045454545454604,
                "tempo": 120.0
            },
            {
                "start_time": 7.793181818181818,
                "end_time": 7.913636363636363,
                "pitch": 38,
                "velocity": 101,
                "duration": 0.12045454545454515,
                "tempo": 120.0
            },
            {
                "start_time": 7.913636363636363,
                "end_time": 8.031818181818181,
                "pitch": 50,
                "velocity": 101,
                "duration": 0.11818181818181817,
                "tempo": 120.0
            },
            {
                "start_time": 8.031818181818181,
                "end_time": 8.15,
                "pitch": 38,
                "velocity": 101,
                "duration": 0.11818181818181905,
                "tempo": 120.0
            },
            {
                "start_time": 8.15,
                "end_time": 8.26590909090909,
                "pitch": 41,
                "velocity": 101,
                "duration": 0.1159090909090903,
                "tempo": 120.0
            },
            {
                "start_time": 8.15,
                "end_time": 8.26590909090909,
                "pitch": 41,
                "velocity": 101,
                "duration": 0.1159090909090903,
                "tempo": 120.0
            },
            {
                "start_time": 8.26590909090909,
                "end_time": 8.384090909090908,
                "pitch": 43,
                "velocity": 101,
                "duration": 0.11818181818181728,
                "tempo": 120.0
            },
            {
                "start_time": 8.384090909090908,
                "end_time": 8.506818181818181,
                "pitch": 44,
                "velocity": 101,
                "duration": 0.12272727272727302,
                "tempo": 120.0
            },
            {
                "start_time": 8.506818181818181,
                "end_time": 8.629545454545454,
                "pitch": 45,
                "velocity": 101,
                "duration": 0.12272727272727302,
                "tempo": 120.0
            },
            {
                "start_time": 8.629545454545454,
                "end_time": 8.752272727272727,
                "pitch": 38,
                "velocity": 101,
                "duration": 0.12272727272727302,
                "tempo": 120.0
            },
            {
                "start_time": 8.752272727272727,
                "end_time": 8.875,
                "pitch": 38,
                "velocity": 101,
                "duration": 0.12272727272727302,
                "tempo": 120.0
            },
            {
                "start_time": 8.875,
                "end_time": 8.993181818181817,
                "pitch": 50,
                "velocity": 101,
                "duration": 0.11818181818181728,
                "tempo": 120.0
            },
            {
                "start_time": 8.993181818181817,
                "end_time": 9.10909090909091,
                "pitch": 38,
                "velocity": 101,
                "duration": 0.11590909090909207,
                "tempo": 120.0
            },
            {
                "start_time": 9.10909090909091,
                "end_time": 9.227272727272727,
                "pitch": 41,
                "velocity": 101,
                "duration": 0.11818181818181728,
                "tempo": 120.0
            },
            {
                "start_time": 9.227272727272727,
                "end_time": 9.345454545454546,
                "pitch": 43,
                "velocity": 101,
                "duration": 0.11818181818181905,
                "tempo": 120.0
            },
            {
                "start_time": 9.345454545454546,
                "end_time": 9.46590909090909,
                "pitch": 44,
                "velocity": 101,
                "duration": 0.12045454545454426,
                "tempo": 120.0
            },
            {
                "start_time": 9.46590909090909,
                "end_time": 9.586363636363636,
                "pitch": 45,
                "velocity": 101,
                "duration": 0.12045454545454604,
                "tempo": 120.0
            },
            {
                "start_time": 9.586363636363636,
                "end_time": 9.706818181818182,
                "pitch": 38,
                "velocity": 101,
                "duration": 0.12045454545454604,
                "tempo": 120.0
            },
            {
                "start_time": 9.706818181818182,
                "end_time": 9.827272727272726,
                "pitch": 38,
                "velocity": 101,
                "duration": 0.12045454545454426,
                "tempo": 120.0
            },
            {
                "start_time": 9.827272727272726,
                "end_time": 9.947727272727272,
                "pitch": 50,
                "velocity": 101,
                "duration": 0.12045454545454604,
                "tempo": 120.0
            },
            {
                "start_time": 9.947727272727272,
                "end_time": 10.06590909090909,
                "pitch": 38,
                "velocity": 101,
                "duration": 0.11818181818181728,
                "tempo": 120.0
            },
            {
                "start_time": 10.06590909090909,
                "end_time": 10.186363636363636,
                "pitch": 41,
                "velocity": 101,
                "duration": 0.12045454545454604,
                "tempo": 120.0
            },
            {
                "start_time": 10.186363636363636,
                "end_time": 10.306818181818182,
                "pitch": 43,
                "velocity": 101,
                "duration": 0.12045454545454604,
                "tempo": 120.0
            },
            {
                "start_time": 10.306818181818182,
                "end_time": 10.427272727272726,
                "pitch": 44,
                "velocity": 101,
                "duration": 0.12045454545454426,
                "tempo": 120.0
            },
            {
                "start_time": 10.427272727272726,
                "end_time": 10.547727272727272,
                "pitch": 45,
                "velocity": 101,
                "duration": 0.12045454545454604,
                "tempo": 120.0
            },
            {
                "start_time": 6.2295454545454545,
                "end_time": 10.547727272727272,
                "pitch": 53,
                "velocity": 101,
                "duration": 4.3181818181818175,
                "tempo": 120.0
            },
            {
                "start_time": 10.547727272727272,
                "end_time": 10.668181818181818,
                "pitch": 38,
                "velocity": 101,
                "duration": 0.12045454545454604,
                "tempo": 120.0
            },
            {
                "start_time": 10.668181818181818,
                "end_time": 10.788636363636362,
                "pitch": 38,
                "velocity": 101,
                "duration": 0.12045454545454426,
                "tempo": 120.0
            },
            {
                "start_time": 10.788636363636362,
                "end_time": 10.909090909090908,
                "pitch": 50,
                "velocity": 101,
                "duration": 0.12045454545454604,
                "tempo": 120.0
            },
            {
                "start_time": 10.909090909090908,
                "end_time": 11.029545454545454,
                "pitch": 38,
                "velocity": 101,
                "duration": 0.12045454545454604,
                "tempo": 120.0
            },
            {
                "start_time": 11.029545454545454,
                "end_time": 11.149999999999999,
                "pitch": 41,
                "velocity": 101,
                "duration": 0.12045454545454426,
                "tempo": 120.0
            },
            {
                "start_time": 11.149999999999999,
                "end_time": 11.270454545454545,
                "pitch": 43,
                "velocity": 101,
                "duration": 0.12045454545454604,
                "tempo": 120.0
            },
            {
                "start_time": 11.270454545454545,
                "end_time": 11.388636363636364,
                "pitch": 44,
                "velocity": 101,
                "duration": 0.11818181818181905,
                "tempo": 120.0
            },
            {
                "start_time": 11.388636363636364,
                "end_time": 11.504545454545454,
                "pitch": 45,
                "velocity": 101,
                "duration": 0.1159090909090903,
                "tempo": 120.0
            },
            {
                "start_time": 11.504545454545454,
                "end_time": 11.622727272727273,
                "pitch": 45,
                "velocity": 101,
                "duration": 0.11818181818181905,
                "tempo": 120.0
            },
            {
                "start_time": 11.622727272727273,
                "end_time": 11.74090909090909,
                "pitch": 45,
                "velocity": 101,
                "duration": 0.11818181818181728,
                "tempo": 120.0
            },
            {
                "start_time": 11.74090909090909,
                "end_time": 11.861363636363636,
                "pitch": 48,
                "velocity": 101,
                "duration": 0.12045454545454604,
                "tempo": 120.0
            },
            {
                "start_time": 11.861363636363636,
                "end_time": 11.979545454545454,
                "pitch": 45,
                "velocity": 101,
                "duration": 0.11818181818181728,
                "tempo": 120.0
            },
            {
                "start_time": 7.0681818181818175,
                "end_time": 12.1,
                "pitch": 19,
                "velocity": 101,
                "duration": 5.031818181818182,
                "tempo": 120.0
            },
            {
                "start_time": 11.979545454545454,
                "end_time": 12.1,
                "pitch": 50,
                "velocity": 101,
                "duration": 0.12045454545454604,
                "tempo": 120.0
            },
            {
                "start_time": 12.1,
                "end_time": 12.220454545454546,
                "pitch": 45,
                "velocity": 101,
                "duration": 0.12045454545454604,
                "tempo": 120.0
            },
            {
                "start_time": 12.1,
                "end_time": 12.34090909090909,
                "pitch": 19,
                "velocity": 101,
                "duration": 0.2409090909090903,
                "tempo": 120.0
            },
            {
                "start_time": 12.220454545454546,
                "end_time": 12.34090909090909,
                "pitch": 48,
                "velocity": 101,
                "duration": 0.12045454545454426,
                "tempo": 120.0
            },
            {
                "start_time": 12.34090909090909,
                "end_time": 12.461363636363636,
                "pitch": 45,
                "velocity": 101,
                "duration": 0.12045454545454604,
                "tempo": 120.0
            },
            {
                "start_time": 12.581818181818182,
                "end_time": 12.702272727272726,
                "pitch": 45,
                "velocity": 101,
                "duration": 0.12045454545454426,
                "tempo": 120.0
            },
            {
                "start_time": 12.34090909090909,
                "end_time": 12.822727272727272,
                "pitch": 19,
                "velocity": 101,
                "duration": 0.48181818181818237,
                "tempo": 120.0
            },
            {
                "start_time": 12.702272727272726,
                "end_time": 12.822727272727272,
                "pitch": 48,
                "velocity": 101,
                "duration": 0.12045454545454604,
                "tempo": 120.0
            },
            {
                "start_time": 12.822727272727272,
                "end_time": 12.943181818181818,
                "pitch": 45,
                "velocity": 101,
                "duration": 0.12045454545454604,
                "tempo": 120.0
            },
            {
                "start_time": 10.547727272727272,
                "end_time": 12.943181818181818,
                "pitch": 53,
                "velocity": 101,
                "duration": 2.3954545454545464,
                "tempo": 120.0
            },
            {
                "start_time": 12.822727272727272,
                "end_time": 13.063636363636363,
                "pitch": 19,
                "velocity": 101,
                "duration": 0.2409090909090903,
                "tempo": 120.0
            },
            {
                "start_time": 12.943181818181818,
                "end_time": 13.063636363636363,
                "pitch": 50,
                "velocity": 101,
                "duration": 0.12045454545454426,
                "tempo": 120.0
            },
            {
                "start_time": 13.063636363636363,
                "end_time": 13.184090909090909,
                "pitch": 45,
                "velocity": 101,
                "duration": 0.12045454545454604,
                "tempo": 120.0
            },
            {
                "start_time": 13.184090909090909,
                "end_time": 13.424999999999999,
                "pitch": 43,
                "velocity": 101,
                "duration": 0.2409090909090903,
                "tempo": 120.0
            },
            {
                "start_time": 13.424999999999999,
                "end_time": 13.545454545454545,
                "pitch": 45,
                "velocity": 101,
                "duration": 0.12045454545454604,
                "tempo": 120.0
            },
            {
                "start_time": 13.424999999999999,
                "end_time": 13.545454545454545,
                "pitch": 45,
                "velocity": 101,
                "duration": 0.12045454545454604,
                "tempo": 120.0
            },
            {
                "start_time": 13.545454545454545,
                "end_time": 13.665909090909091,
                "pitch": 45,
                "velocity": 101,
                "duration": 0.12045454545454604,
                "tempo": 120.0
            },
            {
                "start_time": 11.74090909090909,
                "end_time": 13.665909090909091,
                "pitch": 52,
                "velocity": 101,
                "duration": 1.9250000000000007,
                "tempo": 120.0
            },
            {
                "start_time": 13.063636363636363,
                "end_time": 13.786363636363635,
                "pitch": 19,
                "velocity": 101,
                "duration": 0.7227272727272727,
                "tempo": 120.0
            },
            {
                "start_time": 13.665909090909091,
                "end_time": 13.786363636363635,
                "pitch": 48,
                "velocity": 101,
                "duration": 0.12045454545454426,
                "tempo": 120.0
            },
            {
                "start_time": 13.786363636363635,
                "end_time": 13.906818181818181,
                "pitch": 45,
                "velocity": 101,
                "duration": 0.12045454545454604,
                "tempo": 120.0
            },
            {
                "start_time": 12.943181818181818,
                "end_time": 13.906818181818181,
                "pitch": 53,
                "velocity": 101,
                "duration": 0.963636363636363,
                "tempo": 120.0
            },
            {
                "start_time": 13.786363636363635,
                "end_time": 14.024999999999999,
                "pitch": 19,
                "velocity": 101,
                "duration": 0.2386363636363633,
                "tempo": 120.0
            },
            {
                "start_time": 13.906818181818181,
                "end_time": 14.024999999999999,
                "pitch": 50,
                "velocity": 101,
                "duration": 0.11818181818181728,
                "tempo": 120.0
            },
            {
                "start_time": 14.024999999999999,
                "end_time": 14.145454545454545,
                "pitch": 45,
                "velocity": 101,
                "duration": 0.12045454545454604,
                "tempo": 120.0
            },
            {
                "start_time": 13.665909090909091,
                "end_time": 14.145454545454545,
                "pitch": 52,
                "velocity": 101,
                "duration": 0.4795454545454536,
                "tempo": 120.0
            },
            {
                "start_time": 14.145454545454545,
                "end_time": 14.26590909090909,
                "pitch": 48,
                "velocity": 101,
                "duration": 0.12045454545454604,
                "tempo": 120.0
            },
            {
                "start_time": 14.26590909090909,
                "end_time": 14.386363636363635,
                "pitch": 45,
                "velocity": 101,
                "duration": 0.12045454545454426,
                "tempo": 120.0
            },
            {
                "start_time": 3.002272727272727,
                "end_time": 14.506818181818181,
                "pitch": 7,
                "velocity": 101,
                "duration": 11.504545454545454,
                "tempo": 120.0
            },
            {
                "start_time": 14.386363636363635,
                "end_time": 14.506818181818181,
                "pitch": 40,
                "velocity": 101,
                "duration": 0.12045454545454604,
                "tempo": 120.0
            },
            {
                "start_time": 14.506818181818181,
                "end_time": 14.627272727272727,
                "pitch": 45,
                "velocity": 101,
                "duration": 0.12045454545454604,
                "tempo": 120.0
            },
            {
                "start_time": 14.145454545454545,
                "end_time": 14.627272727272727,
                "pitch": 52,
                "velocity": 101,
                "duration": 0.48181818181818237,
                "tempo": 120.0
            },
            {
                "start_time": 14.627272727272727,
                "end_time": 14.747727272727271,
                "pitch": 48,
                "velocity": 101,
                "duration": 0.12045454545454426,
                "tempo": 120.0
            },
            {
                "start_time": 14.747727272727271,
                "end_time": 14.868181818181817,
                "pitch": 45,
                "velocity": 101,
                "duration": 0.12045454545454604,
                "tempo": 120.0
            },
            {
                "start_time": 14.627272727272727,
                "end_time": 14.868181818181817,
                "pitch": 52,
                "velocity": 101,
                "duration": 0.2409090909090903,
                "tempo": 120.0
            },
            {
                "start_time": 14.868181818181817,
                "end_time": 14.988636363636363,
                "pitch": 48,
                "velocity": 101,
                "duration": 0.12045454545454604,
                "tempo": 120.0
            },
            {
                "start_time": 14.988636363636363,
                "end_time": 15.109090909090908,
                "pitch": 50,
                "velocity": 101,
                "duration": 0.12045454545454426,
                "tempo": 120.0
            },
            {
                "start_time": 14.988636363636363,
                "end_time": 15.109090909090908,
                "pitch": 50,
                "velocity": 101,
                "duration": 0.12045454545454426,
                "tempo": 120.0
            },
            {
                "start_time": 15.109090909090908,
                "end_time": 15.227272727272727,
                "pitch": 51,
                "velocity": 101,
                "duration": 0.11818181818181905,
                "tempo": 120.0
            },
            {
                "start_time": 14.868181818181817,
                "end_time": 15.345454545454544,
                "pitch": 52,
                "velocity": 101,
                "duration": 0.4772727272727266,
                "tempo": 120.0
            },
            {
                "start_time": 15.227272727272727,
                "end_time": 15.345454545454544,
                "pitch": 52,
                "velocity": 101,
                "duration": 0.11818181818181728,
                "tempo": 120.0
            },
            {
                "start_time": 15.345454545454544,
                "end_time": 15.461363636363636,
                "pitch": 36,
                "velocity": 101,
                "duration": 0.11590909090909207,
                "tempo": 120.0
            },
            {
                "start_time": 15.461363636363636,
                "end_time": 15.579545454545453,
                "pitch": 36,
                "velocity": 101,
                "duration": 0.11818181818181728,
                "tempo": 120.0
            },
            {
                "start_time": 15.345454545454544,
                "end_time": 15.7,
                "pitch": 48,
                "velocity": 101,
                "duration": 0.3545454545454554,
                "tempo": 120.0
            },
            {
                "start_time": 15.579545454545453,
                "end_time": 15.7,
                "pitch": 48,
                "velocity": 101,
                "duration": 0.12045454545454604,
                "tempo": 120.0
            },
            {
                "start_time": 15.7,
                "end_time": 15.820454545454545,
                "pitch": 36,
                "velocity": 101,
                "duration": 0.12045454545454604,
                "tempo": 120.0
            },
            {
                "start_time": 15.938636363636363,
                "end_time": 16.05909090909091,
                "pitch": 36,
                "velocity": 101,
                "duration": 0.12045454545454604,
                "tempo": 120.0
            },
            {
                "start_time": 16.05909090909091,
                "end_time": 16.179545454545455,
                "pitch": 48,
                "velocity": 101,
                "duration": 0.12045454545454604,
                "tempo": 120.0
            },
            {
                "start_time": 16.3,
                "end_time": 16.420454545454543,
                "pitch": 38,
                "velocity": 101,
                "duration": 0.12045454545454248,
                "tempo": 120.0
            },
            {
                "start_time": 16.420454545454543,
                "end_time": 16.54090909090909,
                "pitch": 38,
                "velocity": 101,
                "duration": 0.12045454545454604,
                "tempo": 120.0
            },
            {
                "start_time": 16.54090909090909,
                "end_time": 16.661363636363635,
                "pitch": 50,
                "velocity": 101,
                "duration": 0.12045454545454604,
                "tempo": 120.0
            },
            {
                "start_time": 16.661363636363635,
                "end_time": 16.78181818181818,
                "pitch": 38,
                "velocity": 101,
                "duration": 0.12045454545454604,
                "tempo": 120.0
            },
            {
                "start_time": 16.78181818181818,
                "end_time": 16.902272727272727,
                "pitch": 41,
                "velocity": 101,
                "duration": 0.12045454545454604,
                "tempo": 120.0
            },
            {
                "start_time": 16.902272727272727,
                "end_time": 17.022727272727273,
                "pitch": 43,
                "velocity": 101,
                "duration": 0.12045454545454604,
                "tempo": 120.0
            },
            {
                "start_time": 17.022727272727273,
                "end_time": 17.143181818181816,
                "pitch": 44,
                "velocity": 101,
                "duration": 0.12045454545454248,
                "tempo": 120.0
            },
            {
                "start_time": 17.143181818181816,
                "end_time": 17.263636363636362,
                "pitch": 45,
                "velocity": 101,
                "duration": 0.12045454545454604,
                "tempo": 120.0
            },
            {
                "start_time": 17.263636363636362,
                "end_time": 17.384090909090908,
                "pitch": 45,
                "velocity": 101,
                "duration": 0.12045454545454604,
                "tempo": 120.0
            },
            {
                "start_time": 17.384090909090908,
                "end_time": 17.506818181818183,
                "pitch": 45,
                "velocity": 101,
                "duration": 0.1227272727272748,
                "tempo": 120.0
            },
            {
                "start_time": 17.506818181818183,
                "end_time": 17.627272727272725,
                "pitch": 57,
                "velocity": 101,
                "duration": 0.12045454545454248,
                "tempo": 120.0
            },
            {
                "start_time": 17.627272727272725,
                "end_time": 17.74772727272727,
                "pitch": 45,
                "velocity": 101,
                "duration": 0.12045454545454604,
                "tempo": 120.0
            },
            {
                "start_time": 17.868181818181817,
                "end_time": 17.988636363636363,
                "pitch": 43,
                "velocity": 101,
                "duration": 0.12045454545454604,
                "tempo": 120.0
            },
            {
                "start_time": 18.10681818181818,
                "end_time": 18.222727272727273,
                "pitch": 45,
                "velocity": 101,
                "duration": 0.11590909090909207,
                "tempo": 120.0
            },
            {
                "start_time": 18.222727272727273,
                "end_time": 18.34090909090909,
                "pitch": 45,
                "velocity": 101,
                "duration": 0.11818181818181728,
                "tempo": 120.0
            },
            {
                "start_time": 18.34090909090909,
                "end_time": 18.459090909090907,
                "pitch": 45,
                "velocity": 101,
                "duration": 0.11818181818181728,
                "tempo": 120.0
            },
            {
                "start_time": 18.459090909090907,
                "end_time": 18.579545454545453,
                "pitch": 45,
                "velocity": 101,
                "duration": 0.12045454545454604,
                "tempo": 120.0
            },
            {
                "start_time": 18.579545454545453,
                "end_time": 18.7,
                "pitch": 45,
                "velocity": 101,
                "duration": 0.12045454545454604,
                "tempo": 120.0
            },
            {
                "start_time": 18.7,
                "end_time": 18.820454545454545,
                "pitch": 45,
                "velocity": 101,
                "duration": 0.12045454545454604,
                "tempo": 120.0
            },
            {
                "start_time": 18.820454545454545,
                "end_time": 18.94090909090909,
                "pitch": 43,
                "velocity": 101,
                "duration": 0.12045454545454604,
                "tempo": 120.0
            },
            {
                "start_time": 18.94090909090909,
                "end_time": 19.061363636363634,
                "pitch": 45,
                "velocity": 101,
                "duration": 0.12045454545454248,
                "tempo": 120.0
            },
            {
                "start_time": 18.94090909090909,
                "end_time": 19.061363636363634,
                "pitch": 45,
                "velocity": 101,
                "duration": 0.12045454545454248,
                "tempo": 120.0
            },
            {
                "start_time": 19.061363636363634,
                "end_time": 19.18181818181818,
                "pitch": 43,
                "velocity": 101,
                "duration": 0.12045454545454604,
                "tempo": 120.0
            },
            {
                "start_time": 19.061363636363634,
                "end_time": 19.18181818181818,
                "pitch": 43,
                "velocity": 101,
                "duration": 0.12045454545454604,
                "tempo": 120.0
            },
            {
                "start_time": 19.18181818181818,
                "end_time": 19.302272727272726,
                "pitch": 36,
                "velocity": 101,
                "duration": 0.12045454545454604,
                "tempo": 120.0
            },
            {
                "start_time": 19.302272727272726,
                "end_time": 19.422727272727272,
                "pitch": 36,
                "velocity": 101,
                "duration": 0.12045454545454604,
                "tempo": 120.0
            },
            {
                "start_time": 19.422727272727272,
                "end_time": 19.543181818181818,
                "pitch": 48,
                "velocity": 101,
                "duration": 0.12045454545454604,
                "tempo": 120.0
            },
            {
                "start_time": 19.543181818181818,
                "end_time": 19.66590909090909,
                "pitch": 36,
                "velocity": 101,
                "duration": 0.12272727272727124,
                "tempo": 120.0
            },
            {
                "start_time": 19.786363636363635,
                "end_time": 19.90681818181818,
                "pitch": 36,
                "velocity": 101,
                "duration": 0.12045454545454604,
                "tempo": 120.0
            },
            {
                "start_time": 19.90681818181818,
                "end_time": 20.027272727272727,
                "pitch": 48,
                "velocity": 101,
                "duration": 0.12045454545454604,
                "tempo": 120.0
            },
            {
                "start_time": 20.147727272727273,
                "end_time": 20.268181818181816,
                "pitch": 38,
                "velocity": 101,
                "duration": 0.12045454545454248,
                "tempo": 120.0
            },
            {
                "start_time": 20.268181818181816,
                "end_time": 20.388636363636362,
                "pitch": 38,
                "velocity": 101,
                "duration": 0.12045454545454604,
                "tempo": 120.0
            },
            {
                "start_time": 20.388636363636362,
                "end_time": 20.509090909090908,
                "pitch": 50,
                "velocity": 101,
                "duration": 0.12045454545454604,
                "tempo": 120.0
            },
            {
                "start_time": 20.509090909090908,
                "end_time": 20.627272727272725,
                "pitch": 38,
                "velocity": 101,
                "duration": 0.11818181818181728,
                "tempo": 120.0
            },
            {
                "start_time": 20.627272727272725,
                "end_time": 20.74772727272727,
                "pitch": 41,
                "velocity": 101,
                "duration": 0.12045454545454604,
                "tempo": 120.0
            },
            {
                "start_time": 20.627272727272725,
                "end_time": 20.74772727272727,
                "pitch": 41,
                "velocity": 101,
                "duration": 0.12045454545454604,
                "tempo": 120.0
            },
            {
                "start_time": 20.74772727272727,
                "end_time": 20.86590909090909,
                "pitch": 43,
                "velocity": 101,
                "duration": 0.11818181818181728,
                "tempo": 120.0
            },
            {
                "start_time": 20.86590909090909,
                "end_time": 20.98409090909091,
                "pitch": 44,
                "velocity": 101,
                "duration": 0.11818181818182083,
                "tempo": 120.0
            },
            {
                "start_time": 20.98409090909091,
                "end_time": 21.102272727272727,
                "pitch": 45,
                "velocity": 101,
                "duration": 0.11818181818181728,
                "tempo": 120.0
            },
            {
                "start_time": 21.102272727272727,
                "end_time": 21.220454545454544,
                "pitch": 45,
                "velocity": 101,
                "duration": 0.11818181818181728,
                "tempo": 120.0
            },
            {
                "start_time": 21.220454545454544,
                "end_time": 21.33863636363636,
                "pitch": 45,
                "velocity": 101,
                "duration": 0.11818181818181728,
                "tempo": 120.0
            },
            {
                "start_time": 21.33863636363636,
                "end_time": 21.459090909090907,
                "pitch": 57,
                "velocity": 101,
                "duration": 0.12045454545454604,
                "tempo": 120.0
            },
            {
                "start_time": 21.459090909090907,
                "end_time": 21.579545454545453,
                "pitch": 45,
                "velocity": 101,
                "duration": 0.12045454545454604,
                "tempo": 120.0
            },
            {
                "start_time": 21.7,
                "end_time": 21.820454545454545,
                "pitch": 43,
                "velocity": 101,
                "duration": 0.12045454545454604,
                "tempo": 120.0
            },
            {
                "start_time": 21.938636363636363,
                "end_time": 22.05909090909091,
                "pitch": 45,
                "velocity": 101,
                "duration": 0.12045454545454604,
                "tempo": 120.0
            },
            {
                "start_time": 22.05909090909091,
                "end_time": 22.179545454545455,
                "pitch": 45,
                "velocity": 101,
                "duration": 0.12045454545454604,
                "tempo": 120.0
            },
            {
                "start_time": 22.179545454545455,
                "end_time": 22.297727272727272,
                "pitch": 45,
                "velocity": 101,
                "duration": 0.11818181818181728,
                "tempo": 120.0
            },
            {
                "start_time": 22.297727272727272,
                "end_time": 22.418181818181818,
                "pitch": 57,
                "velocity": 101,
                "duration": 0.12045454545454604,
                "tempo": 120.0
            },
            {
                "start_time": 22.418181818181818,
                "end_time": 22.538636363636364,
                "pitch": 45,
                "velocity": 101,
                "duration": 0.12045454545454604,
                "tempo": 120.0
            },
            {
                "start_time": 22.659090909090907,
                "end_time": 22.779545454545453,
                "pitch": 45,
                "velocity": 101,
                "duration": 0.12045454545454604,
                "tempo": 120.0
            },
            {
                "start_time": 22.779545454545453,
                "end_time": 22.902272727272727,
                "pitch": 45,
                "velocity": 101,
                "duration": 0.1227272727272748,
                "tempo": 120.0
            },
            {
                "start_time": 23.020454545454545,
                "end_time": 23.14090909090909,
                "pitch": 47,
                "velocity": 101,
                "duration": 0.12045454545454604,
                "tempo": 120.0
            },
            {
                "start_time": 23.14090909090909,
                "end_time": 23.263636363636362,
                "pitch": 47,
                "velocity": 101,
                "duration": 0.12272727272727124,
                "tempo": 120.0
            },
            {
                "start_time": 23.263636363636362,
                "end_time": 23.384090909090908,
                "pitch": 50,
                "velocity": 101,
                "duration": 0.12045454545454604,
                "tempo": 120.0
            },
            {
                "start_time": 23.384090909090908,
                "end_time": 23.504545454545454,
                "pitch": 47,
                "velocity": 101,
                "duration": 0.12045454545454604,
                "tempo": 120.0
            },
            {
                "start_time": 23.384090909090908,
                "end_time": 23.625,
                "pitch": 32,
                "velocity": 101,
                "duration": 0.24090909090909207,
                "tempo": 120.0
            },
            {
                "start_time": 23.504545454545454,
                "end_time": 23.625,
                "pitch": 52,
                "velocity": 101,
                "duration": 0.12045454545454604,
                "tempo": 120.0
            },
            {
                "start_time": 23.625,
                "end_time": 23.745454545454546,
                "pitch": 47,
                "velocity": 101,
                "duration": 0.12045454545454604,
                "tempo": 120.0
            },
            {
                "start_time": 13.906818181818181,
                "end_time": 23.745454545454546,
                "pitch": 53,
                "velocity": 101,
                "duration": 9.838636363636365,
                "tempo": 120.0
            },
            {
                "start_time": 23.625,
                "end_time": 23.863636363636363,
                "pitch": 32,
                "velocity": 101,
                "duration": 0.2386363636363633,
                "tempo": 120.0
            },
            {
                "start_time": 23.745454545454546,
                "end_time": 23.863636363636363,
                "pitch": 50,
                "velocity": 101,
                "duration": 0.11818181818181728,
                "tempo": 120.0
            },
            {
                "start_time": 23.863636363636363,
                "end_time": 23.979545454545452,
                "pitch": 47,
                "velocity": 101,
                "duration": 0.11590909090908852,
                "tempo": 120.0
            },
            {
                "start_time": 24.097727272727273,
                "end_time": 24.21590909090909,
                "pitch": 47,
                "velocity": 101,
                "duration": 0.11818181818181728,
                "tempo": 120.0
            },
            {
                "start_time": 23.745454545454546,
                "end_time": 24.21590909090909,
                "pitch": 53,
                "velocity": 101,
                "duration": 0.4704545454545439,
                "tempo": 120.0
            },
            {
                "start_time": 23.863636363636363,
                "end_time": 24.336363636363636,
                "pitch": 32,
                "velocity": 101,
                "duration": 0.47272727272727266,
                "tempo": 120.0
            },
            {
                "start_time": 24.21590909090909,
                "end_time": 24.336363636363636,
                "pitch": 50,
                "velocity": 101,
                "duration": 0.12045454545454604,
                "tempo": 120.0
            },
            {
                "start_time": 24.336363636363636,
                "end_time": 24.456818181818182,
                "pitch": 47,
                "velocity": 101,
                "duration": 0.12045454545454604,
                "tempo": 120.0
            },
            {
                "start_time": 6.709090909090909,
                "end_time": 24.456818181818182,
                "pitch": 54,
                "velocity": 101,
                "duration": 17.747727272727275,
                "tempo": 120.0
            },
            {
                "start_time": 24.456818181818182,
                "end_time": 24.577272727272724,
                "pitch": 52,
                "velocity": 101,
                "duration": 0.12045454545454248,
                "tempo": 120.0
            },
            {
                "start_time": 24.577272727272724,
                "end_time": 24.69772727272727,
                "pitch": 47,
                "velocity": 101,
                "duration": 0.12045454545454604,
                "tempo": 120.0
            },
            {
                "start_time": 24.69772727272727,
                "end_time": 24.938636363636363,
                "pitch": 45,
                "velocity": 101,
                "duration": 0.24090909090909207,
                "tempo": 120.0
            },
            {
                "start_time": 24.69772727272727,
                "end_time": 24.938636363636363,
                "pitch": 45,
                "velocity": 101,
                "duration": 0.24090909090909207,
                "tempo": 120.0
            },
            {
                "start_time": 24.938636363636363,
                "end_time": 25.05909090909091,
                "pitch": 47,
                "velocity": 101,
                "duration": 0.12045454545454604,
                "tempo": 120.0
            },
            {
                "start_time": 25.05909090909091,
                "end_time": 25.179545454545455,
                "pitch": 47,
                "velocity": 101,
                "duration": 0.12045454545454604,
                "tempo": 120.0
            },
            {
                "start_time": 24.21590909090909,
                "end_time": 25.179545454545455,
                "pitch": 53,
                "velocity": 101,
                "duration": 0.9636363636363647,
                "tempo": 120.0
            },
            {
                "start_time": 24.336363636363636,
                "end_time": 25.299999999999997,
                "pitch": 32,
                "velocity": 101,
                "duration": 0.9636363636363612,
                "tempo": 120.0
            },
            {
                "start_time": 25.179545454545455,
                "end_time": 25.299999999999997,
                "pitch": 50,
                "velocity": 101,
                "duration": 0.12045454545454248,
                "tempo": 120.0
            },
            {
                "start_time": 25.299999999999997,
                "end_time": 25.420454545454543,
                "pitch": 47,
                "velocity": 101,
                "duration": 0.12045454545454604,
                "tempo": 120.0
            },
            {
                "start_time": 24.456818181818182,
                "end_time": 25.420454545454543,
                "pitch": 54,
                "velocity": 101,
                "duration": 0.9636363636363612,
                "tempo": 120.0
            },
            {
                "start_time": 25.420454545454543,
                "end_time": 25.543181818181818,
                "pitch": 52,
                "velocity": 101,
                "duration": 0.1227272727272748,
                "tempo": 120.0
            },
            {
                "start_time": 25.543181818181818,
                "end_time": 25.663636363636364,
                "pitch": 47,
                "velocity": 101,
                "duration": 0.12045454545454604,
                "tempo": 120.0
            },
            {
                "start_time": 25.179545454545455,
                "end_time": 25.663636363636364,
                "pitch": 53,
                "velocity": 101,
                "duration": 0.48409090909090935,
                "tempo": 120.0
            },
            {
                "start_time": 25.299999999999997,
                "end_time": 25.784090909090907,
                "pitch": 32,
                "velocity": 101,
                "duration": 0.48409090909090935,
                "tempo": 120.0
            },
            {
                "start_time": 25.663636363636364,
                "end_time": 25.784090909090907,
                "pitch": 50,
                "velocity": 101,
                "duration": 0.12045454545454248,
                "tempo": 120.0
            },
            {
                "start_time": 25.784090909090907,
                "end_time": 25.904545454545453,
                "pitch": 47,
                "velocity": 101,
                "duration": 0.12045454545454604,
                "tempo": 120.0
            },
            {
                "start_time": 25.420454545454543,
                "end_time": 25.904545454545453,
                "pitch": 54,
                "velocity": 101,
                "duration": 0.48409090909090935,
                "tempo": 120.0
            },
            {
                "start_time": 25.904545454545453,
                "end_time": 26.025,
                "pitch": 42,
                "velocity": 101,
                "duration": 0.12045454545454604,
                "tempo": 120.0
            },
            {
                "start_time": 26.025,
                "end_time": 26.145454545454545,
                "pitch": 47,
                "velocity": 101,
                "duration": 0.12045454545454604,
                "tempo": 120.0
            },
            {
                "start_time": 25.663636363636364,
                "end_time": 26.145454545454545,
                "pitch": 53,
                "velocity": 101,
                "duration": 0.4818181818181806,
                "tempo": 120.0
            },
            {
                "start_time": 25.784090909090907,
                "end_time": 26.26590909090909,
                "pitch": 32,
                "velocity": 101,
                "duration": 0.48181818181818414,
                "tempo": 120.0
            },
            {
                "start_time": 26.145454545454545,
                "end_time": 26.26590909090909,
                "pitch": 50,
                "velocity": 101,
                "duration": 0.12045454545454604,
                "tempo": 120.0
            },
            {
                "start_time": 26.26590909090909,
                "end_time": 26.386363636363637,
                "pitch": 47,
                "velocity": 101,
                "duration": 0.12045454545454604,
                "tempo": 120.0
            },
            {
                "start_time": 26.145454545454545,
                "end_time": 26.386363636363637,
                "pitch": 53,
                "velocity": 101,
                "duration": 0.24090909090909207,
                "tempo": 120.0
            },
            {
                "start_time": 26.386363636363637,
                "end_time": 26.50681818181818,
                "pitch": 50,
                "velocity": 101,
                "duration": 0.12045454545454248,
                "tempo": 120.0
            },
            {
                "start_time": 26.50681818181818,
                "end_time": 26.627272727272725,
                "pitch": 52,
                "velocity": 101,
                "duration": 0.12045454545454604,
                "tempo": 120.0
            },
            {
                "start_time": 26.386363636363637,
                "end_time": 26.74772727272727,
                "pitch": 53,
                "velocity": 101,
                "duration": 0.36136363636363455,
                "tempo": 120.0
            },
            {
                "start_time": 26.627272727272725,
                "end_time": 26.74772727272727,
                "pitch": 53,
                "velocity": 101,
                "duration": 0.12045454545454604,
                "tempo": 120.0
            },
            {
                "start_time": 25.904545454545453,
                "end_time": 26.868181818181817,
                "pitch": 54,
                "velocity": 101,
                "duration": 0.9636363636363647,
                "tempo": 120.0
            },
            {
                "start_time": 26.74772727272727,
                "end_time": 26.868181818181817,
                "pitch": 54,
                "velocity": 101,
                "duration": 0.12045454545454604,
                "tempo": 120.0
            },
            {
                "start_time": 26.868181818181817,
                "end_time": 26.988636363636363,
                "pitch": 40,
                "velocity": 101,
                "duration": 0.12045454545454604,
                "tempo": 120.0
            },
            {
                "start_time": 26.988636363636363,
                "end_time": 27.10909090909091,
                "pitch": 40,
                "velocity": 101,
                "duration": 0.12045454545454604,
                "tempo": 120.0
            },
            {
                "start_time": 26.868181818181817,
                "end_time": 27.227272727272727,
                "pitch": 52,
                "velocity": 101,
                "duration": 0.35909090909090935,
                "tempo": 120.0
            },
            {
                "start_time": 27.10909090909091,
                "end_time": 27.227272727272727,
                "pitch": 52,
                "velocity": 101,
                "duration": 0.11818181818181728,
                "tempo": 120.0
            },
            {
                "start_time": 27.227272727272727,
                "end_time": 27.345454545454544,
                "pitch": 40,
                "velocity": 101,
                "duration": 0.11818181818181728,
                "tempo": 120.0
            },
            {
                "start_time": 27.345454545454544,
                "end_time": 27.46363636363636,
                "pitch": 43,
                "velocity": 101,
                "duration": 0.11818181818181728,
                "tempo": 120.0
            },
            {
                "start_time": 27.46363636363636,
                "end_time": 27.581818181818182,
                "pitch": 45,
                "velocity": 101,
                "duration": 0.11818181818182083,
                "tempo": 120.0
            },
            {
                "start_time": 27.46363636363636,
                "end_time": 27.581818181818182,
                "pitch": 45,
                "velocity": 101,
                "duration": 0.11818181818182083,
                "tempo": 120.0
            },
            {
                "start_time": 27.581818181818182,
                "end_time": 27.702272727272724,
                "pitch": 46,
                "velocity": 101,
                "duration": 0.12045454545454248,
                "tempo": 120.0
            },
            {
                "start_time": 27.702272727272724,
                "end_time": 27.82272727272727,
                "pitch": 47,
                "velocity": 101,
                "duration": 0.12045454545454604,
                "tempo": 120.0
            },
            {
                "start_time": 27.82272727272727,
                "end_time": 27.943181818181817,
                "pitch": 40,
                "velocity": 101,
                "duration": 0.12045454545454604,
                "tempo": 120.0
            },
            {
                "start_time": 27.943181818181817,
                "end_time": 28.063636363636363,
                "pitch": 40,
                "velocity": 101,
                "duration": 0.12045454545454604,
                "tempo": 120.0
            },
            {
                "start_time": 28.063636363636363,
                "end_time": 28.18409090909091,
                "pitch": 52,
                "velocity": 101,
                "duration": 0.12045454545454604,
                "tempo": 120.0
            },
            {
                "start_time": 28.18409090909091,
                "end_time": 28.304545454545455,
                "pitch": 40,
                "velocity": 101,
                "duration": 0.12045454545454604,
                "tempo": 120.0
            },
            {
                "start_time": 28.304545454545455,
                "end_time": 28.424999999999997,
                "pitch": 43,
                "velocity": 101,
                "duration": 0.12045454545454248,
                "tempo": 120.0
            },
            {
                "start_time": 28.424999999999997,
                "end_time": 28.545454545454543,
                "pitch": 45,
                "velocity": 101,
                "duration": 0.12045454545454604,
                "tempo": 120.0
            },
            {
                "start_time": 28.424999999999997,
                "end_time": 28.545454545454543,
                "pitch": 45,
                "velocity": 101,
                "duration": 0.12045454545454604,
                "tempo": 120.0
            },
            {
                "start_time": 28.545454545454543,
                "end_time": 28.66590909090909,
                "pitch": 46,
                "velocity": 101,
                "duration": 0.12045454545454604,
                "tempo": 120.0
            },
            {
                "start_time": 28.66590909090909,
                "end_time": 28.786363636363635,
                "pitch": 47,
                "velocity": 101,
                "duration": 0.12045454545454604,
                "tempo": 120.0
            },
            {
                "start_time": 28.786363636363635,
                "end_time": 28.90681818181818,
                "pitch": 40,
                "velocity": 101,
                "duration": 0.12045454545454604,
                "tempo": 120.0
            },
            {
                "start_time": 28.90681818181818,
                "end_time": 29.027272727272727,
                "pitch": 40,
                "velocity": 101,
                "duration": 0.12045454545454604,
                "tempo": 120.0
            },
            {
                "start_time": 29.027272727272727,
                "end_time": 29.14772727272727,
                "pitch": 52,
                "velocity": 101,
                "duration": 0.12045454545454248,
                "tempo": 120.0
            },
            {
                "start_time": 29.14772727272727,
                "end_time": 29.268181818181816,
                "pitch": 40,
                "velocity": 101,
                "duration": 0.12045454545454604,
                "tempo": 120.0
            },
            {
                "start_time": 29.268181818181816,
                "end_time": 29.388636363636362,
                "pitch": 43,
                "velocity": 101,
                "duration": 0.12045454545454604,
                "tempo": 120.0
            },
            {
                "start_time": 29.388636363636362,
                "end_time": 29.509090909090908,
                "pitch": 45,
                "velocity": 101,
                "duration": 0.12045454545454604,
                "tempo": 120.0
            },
            {
                "start_time": 29.388636363636362,
                "end_time": 29.509090909090908,
                "pitch": 45,
                "velocity": 101,
                "duration": 0.12045454545454604,
                "tempo": 120.0
            },
            {
                "start_time": 29.509090909090908,
                "end_time": 29.629545454545454,
                "pitch": 46,
                "velocity": 101,
                "duration": 0.12045454545454604,
                "tempo": 120.0
            },
            {
                "start_time": 29.629545454545454,
                "end_time": 29.75,
                "pitch": 47,
                "velocity": 101,
                "duration": 0.12045454545454604,
                "tempo": 120.0
            },
            {
                "start_time": 29.75,
                "end_time": 29.868181818181817,
                "pitch": 40,
                "velocity": 101,
                "duration": 0.11818181818181728,
                "tempo": 120.0
            },
            {
                "start_time": 29.868181818181817,
                "end_time": 29.988636363636363,
                "pitch": 40,
                "velocity": 101,
                "duration": 0.12045454545454604,
                "tempo": 120.0
            },
            {
                "start_time": 29.988636363636363,
                "end_time": 30.104545454545452,
                "pitch": 52,
                "velocity": 101,
                "duration": 0.11590909090908852,
                "tempo": 120.0
            },
            {
                "start_time": 30.104545454545452,
                "end_time": 30.222727272727273,
                "pitch": 40,
                "velocity": 101,
                "duration": 0.11818181818182083,
                "tempo": 120.0
            },
            {
                "start_time": 30.222727272727273,
                "end_time": 30.34090909090909,
                "pitch": 43,
                "velocity": 101,
                "duration": 0.11818181818181728,
                "tempo": 120.0
            },
            {
                "start_time": 30.34090909090909,
                "end_time": 30.459090909090907,
                "pitch": 45,
                "velocity": 101,
                "duration": 0.11818181818181728,
                "tempo": 120.0
            },
            {
                "start_time": 30.459090909090907,
                "end_time": 30.579545454545453,
                "pitch": 46,
                "velocity": 101,
                "duration": 0.12045454545454604,
                "tempo": 120.0
            },
            {
                "start_time": 30.579545454545453,
                "end_time": 30.7,
                "pitch": 47,
                "velocity": 101,
                "duration": 0.12045454545454604,
                "tempo": 120.0
            },
            {
                "start_time": 30.7,
                "end_time": 30.820454545454545,
                "pitch": 47,
                "velocity": 101,
                "duration": 0.12045454545454604,
                "tempo": 120.0
            },
            {
                "start_time": 30.820454545454545,
                "end_time": 30.940909090909088,
                "pitch": 47,
                "velocity": 101,
                "duration": 0.12045454545454248,
                "tempo": 120.0
            },
            {
                "start_time": 30.940909090909088,
                "end_time": 31.061363636363634,
                "pitch": 50,
                "velocity": 101,
                "duration": 0.12045454545454604,
                "tempo": 120.0
            },
            {
                "start_time": 31.061363636363634,
                "end_time": 31.18181818181818,
                "pitch": 47,
                "velocity": 101,
                "duration": 0.12045454545454604,
                "tempo": 120.0
            },
            {
                "start_time": 26.26590909090909,
                "end_time": 31.302272727272726,
                "pitch": 32,
                "velocity": 101,
                "duration": 5.036363636363635,
                "tempo": 120.0
            },
            {
                "start_time": 31.18181818181818,
                "end_time": 31.302272727272726,
                "pitch": 52,
                "velocity": 101,
                "duration": 0.12045454545454604,
                "tempo": 120.0
            },
            {
                "start_time": 31.302272727272726,
                "end_time": 31.422727272727272,
                "pitch": 47,
                "velocity": 101,
                "duration": 0.12045454545454604,
                "tempo": 120.0
            },
            {
                "start_time": 30.940909090909088,
                "end_time": 31.422727272727272,
                "pitch": 53,
                "velocity": 101,
                "duration": 0.48181818181818414,
                "tempo": 120.0
            },
            {
                "start_time": 31.422727272727272,
                "end_time": 31.543181818181818,
                "pitch": 50,
                "velocity": 101,
                "duration": 0.12045454545454604,
                "tempo": 120.0
            },
            {
                "start_time": 31.543181818181818,
                "end_time": 31.66363636363636,
                "pitch": 47,
                "velocity": 101,
                "duration": 0.12045454545454248,
                "tempo": 120.0
            },
            {
                "start_time": 31.78181818181818,
                "end_time": 31.902272727272727,
                "pitch": 47,
                "velocity": 101,
                "duration": 0.12045454545454604,
                "tempo": 120.0
            },
            {
                "start_time": 31.422727272727272,
                "end_time": 31.902272727272727,
                "pitch": 53,
                "velocity": 101,
                "duration": 0.4795454545454554,
                "tempo": 120.0
            },
            {
                "start_time": 31.302272727272726,
                "end_time": 32.02272727272727,
                "pitch": 32,
                "velocity": 101,
                "duration": 0.7204545454545475,
                "tempo": 120.0
            },
            {
                "start_time": 31.902272727272727,
                "end_time": 32.02272727272727,
                "pitch": 50,
                "velocity": 101,
                "duration": 0.12045454545454604,
                "tempo": 120.0
            },
            {
                "start_time": 32.02272727272727,
                "end_time": 32.143181818181816,
                "pitch": 47,
                "velocity": 101,
                "duration": 0.12045454545454248,
                "tempo": 120.0
            },
            {
                "start_time": 27.82272727272727,
                "end_time": 32.143181818181816,
                "pitch": 54,
                "velocity": 101,
                "duration": 4.320454545454545,
                "tempo": 120.0
            },
            {
                "start_time": 32.02272727272727,
                "end_time": 32.263636363636365,
                "pitch": 32,
                "velocity": 101,
                "duration": 0.24090909090909207,
                "tempo": 120.0
            },
            {
                "start_time": 32.143181818181816,
                "end_time": 32.263636363636365,
                "pitch": 52,
                "velocity": 101,
                "duration": 0.12045454545454959,
                "tempo": 120.0
            },
            {
                "start_time": 32.263636363636365,
                "end_time": 32.38409090909091,
                "pitch": 47,
                "velocity": 101,
                "duration": 0.12045454545454248,
                "tempo": 120.0
            },
            {
                "start_time": 32.38409090909091,
                "end_time": 32.625,
                "pitch": 45,
                "velocity": 101,
                "duration": 0.24090909090909207,
                "tempo": 120.0
            },
            {
                "start_time": 32.625,
                "end_time": 32.74545454545454,
                "pitch": 47,
                "velocity": 101,
                "duration": 0.12045454545454248,
                "tempo": 120.0
            },
            {
                "start_time": 32.625,
                "end_time": 32.74545454545454,
                "pitch": 47,
                "velocity": 101,
                "duration": 0.12045454545454248,
                "tempo": 120.0
            },
            {
                "start_time": 32.74545454545454,
                "end_time": 32.86590909090909,
                "pitch": 47,
                "velocity": 101,
                "duration": 0.12045454545454959,
                "tempo": 120.0
            },
            {
                "start_time": 31.902272727272727,
                "end_time": 32.86590909090909,
                "pitch": 53,
                "velocity": 101,
                "duration": 0.9636363636363647,
                "tempo": 120.0
            },
            {
                "start_time": 32.263636363636365,
                "end_time": 32.986363636363635,
                "pitch": 32,
                "velocity": 101,
                "duration": 0.7227272727272691,
                "tempo": 120.0
            },
            {
                "start_time": 32.86590909090909,
                "end_time": 32.986363636363635,
                "pitch": 50,
                "velocity": 101,
                "duration": 0.12045454545454248,
                "tempo": 120.0
            },
            {
                "start_time": 32.986363636363635,
                "end_time": 33.10681818181818,
                "pitch": 47,
                "velocity": 101,
                "duration": 0.12045454545454248,
                "tempo": 120.0
            },
            {
                "start_time": 32.143181818181816,
                "end_time": 33.10681818181818,
                "pitch": 54,
                "velocity": 101,
                "duration": 0.9636363636363612,
                "tempo": 120.0
            },
            {
                "start_time": 33.10681818181818,
                "end_time": 33.22727272727273,
                "pitch": 52,
                "velocity": 101,
                "duration": 0.12045454545454959,
                "tempo": 120.0
            },
            {
                "start_time": 32.986363636363635,
                "end_time": 33.22954545454545,
                "pitch": 32,
                "velocity": 101,
                "duration": 0.24318181818181728,
                "tempo": 120.0
            },
            {
                "start_time": 33.22727272727273,
                "end_time": 33.22954545454545,
                "pitch": 32,
                "velocity": 101,
                "duration": 0.0022727272727252057,
                "tempo": 120.0
            },
            {
                "start_time": 33.22954545454545,
                "end_time": 33.35,
                "pitch": 47,
                "velocity": 101,
                "duration": 0.12045454545454959,
                "tempo": 120.0
            },
            {
                "start_time": 33.35,
                "end_time": 33.46818181818182,
                "pitch": 50,
                "velocity": 101,
                "duration": 0.11818181818181728,
                "tempo": 120.0
            },
            {
                "start_time": 33.46818181818182,
                "end_time": 33.58863636363636,
                "pitch": 47,
                "velocity": 101,
                "duration": 0.12045454545454248,
                "tempo": 120.0
            },
            {
                "start_time": 33.58863636363636,
                "end_time": 33.70681818181818,
                "pitch": 42,
                "velocity": 101,
                "duration": 0.11818181818181728,
                "tempo": 120.0
            },
            {
                "start_time": 33.70681818181818,
                "end_time": 33.82727272727273,
                "pitch": 47,
                "velocity": 101,
                "duration": 0.12045454545454959,
                "tempo": 120.0
            },
            {
                "start_time": 32.86590909090909,
                "end_time": 33.82727272727273,
                "pitch": 53,
                "velocity": 101,
                "duration": 0.961363636363636,
                "tempo": 120.0
            },
            {
                "start_time": 33.82727272727273,
                "end_time": 33.945454545454545,
                "pitch": 50,
                "velocity": 101,
                "duration": 0.11818181818181728,
                "tempo": 120.0
            },
            {
                "start_time": 33.945454545454545,
                "end_time": 34.06363636363636,
                "pitch": 47,
                "velocity": 101,
                "duration": 0.11818181818181728,
                "tempo": 120.0
            },
            {
                "start_time": 33.82727272727273,
                "end_time": 34.06363636363636,
                "pitch": 53,
                "velocity": 101,
                "duration": 0.23636363636363455,
                "tempo": 120.0
            },
            {
                "start_time": 34.06363636363636,
                "end_time": 34.18181818181818,
                "pitch": 50,
                "velocity": 101,
                "duration": 0.11818181818181728,
                "tempo": 120.0
            },
            {
                "start_time": 34.18181818181818,
                "end_time": 34.29772727272727,
                "pitch": 52,
                "velocity": 101,
                "duration": 0.11590909090909207,
                "tempo": 120.0
            },
            {
                "start_time": 34.06363636363636,
                "end_time": 34.418181818181814,
                "pitch": 53,
                "velocity": 101,
                "duration": 0.35454545454545183,
                "tempo": 120.0
            },
            {
                "start_time": 34.29772727272727,
                "end_time": 34.418181818181814,
                "pitch": 53,
                "velocity": 101,
                "duration": 0.12045454545454248,
                "tempo": 120.0
            },
            {
                "start_time": 33.10681818181818,
                "end_time": 34.538636363636364,
                "pitch": 54,
                "velocity": 101,
                "duration": 1.431818181818187,
                "tempo": 120.0
            },
            {
                "start_time": 34.418181818181814,
                "end_time": 34.538636363636364,
                "pitch": 54,
                "velocity": 101,
                "duration": 0.12045454545454959,
                "tempo": 120.0
            },
            {
                "start_time": 34.538636363636364,
                "end_time": 34.65909090909091,
                "pitch": 38,
                "velocity": 101,
                "duration": 0.12045454545454248,
                "tempo": 120.0
            },
            {
                "start_time": 34.65909090909091,
                "end_time": 34.779545454545456,
                "pitch": 38,
                "velocity": 101,
                "duration": 0.12045454545454959,
                "tempo": 120.0
            },
            {
                "start_time": 34.538636363636364,
                "end_time": 34.9,
                "pitch": 50,
                "velocity": 101,
                "duration": 0.36136363636363455,
                "tempo": 120.0
            },
            {
                "start_time": 34.779545454545456,
                "end_time": 34.9,
                "pitch": 50,
                "velocity": 101,
                "duration": 0.12045454545454248,
                "tempo": 120.0
            },
            {
                "start_time": 34.9,
                "end_time": 35.02045454545454,
                "pitch": 38,
                "velocity": 101,
                "duration": 0.12045454545454248,
                "tempo": 120.0
            },
            {
                "start_time": 35.138636363636365,
                "end_time": 35.25909090909091,
                "pitch": 38,
                "velocity": 101,
                "duration": 0.12045454545454248,
                "tempo": 120.0
            },
            {
                "start_time": 35.25909090909091,
                "end_time": 35.37954545454545,
                "pitch": 50,
                "velocity": 101,
                "duration": 0.12045454545454248,
                "tempo": 120.0
            },
            {
                "start_time": 35.49772727272727,
                "end_time": 35.61818181818182,
                "pitch": 40,
                "velocity": 101,
                "duration": 0.12045454545454959,
                "tempo": 120.0
            },
            {
                "start_time": 35.61818181818182,
                "end_time": 35.73863636363636,
                "pitch": 40,
                "velocity": 101,
                "duration": 0.12045454545454248,
                "tempo": 120.0
            },
            {
                "start_time": 35.73863636363636,
                "end_time": 35.85909090909091,
                "pitch": 52,
                "velocity": 101,
                "duration": 0.12045454545454959,
                "tempo": 120.0
            },
            {
                "start_time": 35.85909090909091,
                "end_time": 35.97954545454545,
                "pitch": 40,
                "velocity": 101,
                "duration": 0.12045454545454248,
                "tempo": 120.0
            },
            {
                "start_time": 35.97954545454545,
                "end_time": 36.1,
                "pitch": 43,
                "velocity": 101,
                "duration": 0.12045454545454959,
                "tempo": 120.0
            },
            {
                "start_time": 36.1,
                "end_time": 36.220454545454544,
                "pitch": 45,
                "velocity": 101,
                "duration": 0.12045454545454248,
                "tempo": 120.0
            },
            {
                "start_time": 36.1,
                "end_time": 36.220454545454544,
                "pitch": 45,
                "velocity": 101,
                "duration": 0.12045454545454248,
                "tempo": 120.0
            },
            {
                "start_time": 36.220454545454544,
                "end_time": 36.33863636363636,
                "pitch": 46,
                "velocity": 101,
                "duration": 0.11818181818181728,
                "tempo": 120.0
            },
            {
                "start_time": 36.33863636363636,
                "end_time": 36.45909090909091,
                "pitch": 47,
                "velocity": 101,
                "duration": 0.12045454545454959,
                "tempo": 120.0
            },
            {
                "start_time": 36.45909090909091,
                "end_time": 36.57954545454545,
                "pitch": 47,
                "velocity": 101,
                "duration": 0.12045454545454248,
                "tempo": 120.0
            },
            {
                "start_time": 36.57954545454545,
                "end_time": 36.69772727272727,
                "pitch": 47,
                "velocity": 101,
                "duration": 0.11818181818181728,
                "tempo": 120.0
            },
            {
                "start_time": 36.69772727272727,
                "end_time": 36.81590909090909,
                "pitch": 59,
                "velocity": 101,
                "duration": 0.11818181818181728,
                "tempo": 120.0
            },
            {
                "start_time": 36.81590909090909,
                "end_time": 36.934090909090905,
                "pitch": 47,
                "velocity": 101,
                "duration": 0.11818181818181728,
                "tempo": 120.0
            },
            {
                "start_time": 37.05227272727272,
                "end_time": 37.168181818181814,
                "pitch": 45,
                "velocity": 101,
                "duration": 0.11590909090909207,
                "tempo": 120.0
            },
            {
                "start_time": 37.29090909090909,
                "end_time": 37.41136363636363,
                "pitch": 47,
                "velocity": 101,
                "duration": 0.12045454545454248,
                "tempo": 120.0
            },
            {
                "start_time": 37.41136363636363,
                "end_time": 37.53181818181818,
                "pitch": 47,
                "velocity": 101,
                "duration": 0.12045454545454959,
                "tempo": 120.0
            },
            {
                "start_time": 37.53181818181818,
                "end_time": 37.652272727272724,
                "pitch": 47,
                "velocity": 101,
                "duration": 0.12045454545454248,
                "tempo": 120.0
            },
            {
                "start_time": 37.652272727272724,
                "end_time": 37.77045454545454,
                "pitch": 47,
                "velocity": 101,
                "duration": 0.11818181818181728,
                "tempo": 120.0
            },
            {
                "start_time": 37.77045454545454,
                "end_time": 37.89090909090909,
                "pitch": 47,
                "velocity": 101,
                "duration": 0.12045454545454959,
                "tempo": 120.0
            },
            {
                "start_time": 37.89090909090909,
                "end_time": 38.00909090909091,
                "pitch": 47,
                "velocity": 101,
                "duration": 0.11818181818181728,
                "tempo": 120.0
            },
            {
                "start_time": 38.00909090909091,
                "end_time": 38.12954545454545,
                "pitch": 45,
                "velocity": 101,
                "duration": 0.12045454545454248,
                "tempo": 120.0
            },
            {
                "start_time": 38.12954545454545,
                "end_time": 38.25,
                "pitch": 47,
                "velocity": 101,
                "duration": 0.12045454545454959,
                "tempo": 120.0
            },
            {
                "start_time": 38.12954545454545,
                "end_time": 38.25,
                "pitch": 47,
                "velocity": 101,
                "duration": 0.12045454545454959,
                "tempo": 120.0
            },
            {
                "start_time": 38.25,
                "end_time": 38.37045454545454,
                "pitch": 45,
                "velocity": 101,
                "duration": 0.12045454545454248,
                "tempo": 120.0
            },
            {
                "start_time": 38.25,
                "end_time": 38.37045454545454,
                "pitch": 45,
                "velocity": 101,
                "duration": 0.12045454545454248,
                "tempo": 120.0
            },
            {
                "start_time": 38.37045454545454,
                "end_time": 38.49090909090909,
                "pitch": 38,
                "velocity": 101,
                "duration": 0.12045454545454959,
                "tempo": 120.0
            },
            {
                "start_time": 38.49090909090909,
                "end_time": 38.611363636363635,
                "pitch": 38,
                "velocity": 101,
                "duration": 0.12045454545454248,
                "tempo": 120.0
            },
            {
                "start_time": 38.611363636363635,
                "end_time": 38.73181818181818,
                "pitch": 50,
                "velocity": 101,
                "duration": 0.12045454545454248,
                "tempo": 120.0
            },
            {
                "start_time": 38.73181818181818,
                "end_time": 38.85227272727273,
                "pitch": 38,
                "velocity": 101,
                "duration": 0.12045454545454959,
                "tempo": 120.0
            },
            {
                "start_time": 38.970454545454544,
                "end_time": 39.090909090909086,
                "pitch": 38,
                "velocity": 101,
                "duration": 0.12045454545454248,
                "tempo": 120.0
            },
            {
                "start_time": 39.090909090909086,
                "end_time": 39.211363636363636,
                "pitch": 50,
                "velocity": 101,
                "duration": 0.12045454545454959,
                "tempo": 120.0
            },
            {
                "start_time": 39.33181818181818,
                "end_time": 39.45227272727273,
                "pitch": 40,
                "velocity": 101,
                "duration": 0.12045454545454959,
                "tempo": 120.0
            },
            {
                "start_time": 39.45227272727273,
                "end_time": 39.57272727272727,
                "pitch": 40,
                "velocity": 101,
                "duration": 0.12045454545454248,
                "tempo": 120.0
            },
            {
                "start_time": 39.57272727272727,
                "end_time": 39.69090909090909,
                "pitch": 52,
                "velocity": 101,
                "duration": 0.11818181818181728,
                "tempo": 120.0
            },
            {
                "start_time": 39.69090909090909,
                "end_time": 39.809090909090905,
                "pitch": 40,
                "velocity": 101,
                "duration": 0.11818181818181728,
                "tempo": 120.0
            },
            {
                "start_time": 39.809090909090905,
                "end_time": 39.925,
                "pitch": 43,
                "velocity": 101,
                "duration": 0.11590909090909207,
                "tempo": 120.0
            },
            {
                "start_time": 39.925,
                "end_time": 39.92727272727272,
                "pitch": 45,
                "velocity": 101,
                "duration": 0.0022727272727252057,
                "tempo": 120.0
            },
            {
                "start_time": 39.92727272727272,
                "end_time": 40.043181818181814,
                "pitch": 45,
                "velocity": 101,
                "duration": 0.11590909090909207,
                "tempo": 120.0
            },
            {
                "start_time": 40.043181818181814,
                "end_time": 40.163636363636364,
                "pitch": 46,
                "velocity": 101,
                "duration": 0.12045454545454959,
                "tempo": 120.0
            },
            {
                "start_time": 40.163636363636364,
                "end_time": 40.28181818181818,
                "pitch": 47,
                "velocity": 101,
                "duration": 0.11818181818181728,
                "tempo": 120.0
            },
            {
                "start_time": 40.28181818181818,
                "end_time": 40.402272727272724,
                "pitch": 47,
                "velocity": 101,
                "duration": 0.12045454545454248,
                "tempo": 120.0
            },
            {
                "start_time": 40.402272727272724,
                "end_time": 40.52272727272727,
                "pitch": 47,
                "velocity": 101,
                "duration": 0.12045454545454959,
                "tempo": 120.0
            },
            {
                "start_time": 40.52272727272727,
                "end_time": 40.643181818181816,
                "pitch": 59,
                "velocity": 101,
                "duration": 0.12045454545454248,
                "tempo": 120.0
            },
            {
                "start_time": 40.643181818181816,
                "end_time": 40.76363636363636,
                "pitch": 47,
                "velocity": 101,
                "duration": 0.12045454545454248,
                "tempo": 120.0
            },
            {
                "start_time": 40.88409090909091,
                "end_time": 41.00454545454545,
                "pitch": 45,
                "velocity": 101,
                "duration": 0.12045454545454248,
                "tempo": 120.0
            },
            {
                "start_time": 41.125,
                "end_time": 41.24318181818182,
                "pitch": 47,
                "velocity": 101,
                "duration": 0.11818181818181728,
                "tempo": 120.0
            },
            {
                "start_time": 41.24318181818182,
                "end_time": 41.36363636363636,
                "pitch": 47,
                "velocity": 101,
                "duration": 0.12045454545454248,
                "tempo": 120.0
            },
            {
                "start_time": 41.36363636363636,
                "end_time": 41.48409090909091,
                "pitch": 47,
                "velocity": 101,
                "duration": 0.12045454545454959,
                "tempo": 120.0
            },
            {
                "start_time": 41.48409090909091,
                "end_time": 41.60454545454545,
                "pitch": 59,
                "velocity": 101,
                "duration": 0.12045454545454248,
                "tempo": 120.0
            },
            {
                "start_time": 41.60454545454545,
                "end_time": 41.725,
                "pitch": 47,
                "velocity": 101,
                "duration": 0.12045454545454959,
                "tempo": 120.0
            },
            {
                "start_time": 41.845454545454544,
                "end_time": 41.965909090909086,
                "pitch": 47,
                "velocity": 101,
                "duration": 0.12045454545454248,
                "tempo": 120.0
            },
            {
                "start_time": 41.965909090909086,
                "end_time": 42.084090909090904,
                "pitch": 47,
                "velocity": 101,
                "duration": 0.11818181818181728,
                "tempo": 120.0
            },
            {
                "start_time": 42.20454545454545,
                "end_time": 42.32272727272727,
                "pitch": 47,
                "velocity": 101,
                "duration": 0.11818181818181728,
                "tempo": 120.0
            },
            {
                "start_time": 42.32272727272727,
                "end_time": 42.44318181818181,
                "pitch": 47,
                "velocity": 101,
                "duration": 0.12045454545454248,
                "tempo": 120.0
            },
            {
                "start_time": 42.44318181818181,
                "end_time": 42.56363636363636,
                "pitch": 47,
                "velocity": 101,
                "duration": 0.12045454545454959,
                "tempo": 120.0
            },
            {
                "start_time": 42.56363636363636,
                "end_time": 42.68181818181818,
                "pitch": 47,
                "velocity": 101,
                "duration": 0.11818181818181728,
                "tempo": 120.0
            },
            {
                "start_time": 42.68181818181818,
                "end_time": 42.80227272727272,
                "pitch": 50,
                "velocity": 101,
                "duration": 0.12045454545454248,
                "tempo": 120.0
            },
            {
                "start_time": 42.80227272727272,
                "end_time": 42.92272727272727,
                "pitch": 50,
                "velocity": 101,
                "duration": 0.12045454545454959,
                "tempo": 120.0
            },
            {
                "start_time": 42.92272727272727,
                "end_time": 43.038636363636364,
                "pitch": 50,
                "velocity": 101,
                "duration": 0.11590909090909207,
                "tempo": 120.0
            },
            {
                "start_time": 43.038636363636364,
                "end_time": 43.15681818181818,
                "pitch": 50,
                "velocity": 101,
                "duration": 0.11818181818181728,
                "tempo": 120.0
            },
            {
                "start_time": 43.15681818181818,
                "end_time": 43.275,
                "pitch": 52,
                "velocity": 101,
                "duration": 0.11818181818181728,
                "tempo": 120.0
            },
            {
                "start_time": 43.275,
                "end_time": 43.393181818181816,
                "pitch": 52,
                "velocity": 101,
                "duration": 0.11818181818181728,
                "tempo": 120.0
            },
            {
                "start_time": 43.393181818181816,
                "end_time": 43.51136363636363,
                "pitch": 52,
                "velocity": 101,
                "duration": 0.11818181818181728,
                "tempo": 120.0
            },
            {
                "start_time": 43.51136363636363,
                "end_time": 43.752272727272725,
                "pitch": 55,
                "velocity": 101,
                "duration": 0.24090909090909207,
                "tempo": 120.0
            },
            {
                "start_time": 43.752272727272725,
                "end_time": 43.87045454545454,
                "pitch": 55,
                "velocity": 101,
                "duration": 0.11818181818181728,
                "tempo": 120.0
            },
            {
                "start_time": 43.87045454545454,
                "end_time": 43.99090909090909,
                "pitch": 55,
                "velocity": 101,
                "duration": 0.12045454545454959,
                "tempo": 120.0
            },
            {
                "start_time": 43.99090909090909,
                "end_time": 44.111363636363635,
                "pitch": 55,
                "velocity": 101,
                "duration": 0.12045454545454248,
                "tempo": 120.0
            },
            {
                "start_time": 44.111363636363635,
                "end_time": 44.23181818181818,
                "pitch": 47,
                "velocity": 101,
                "duration": 0.12045454545454248,
                "tempo": 120.0
            },
            {
                "start_time": 44.23181818181818,
                "end_time": 44.35454545454545,
                "pitch": 47,
                "velocity": 101,
                "duration": 0.1227272727272748,
                "tempo": 120.0
            },
            {
                "start_time": 44.35454545454545,
                "end_time": 44.47272727272727,
                "pitch": 47,
                "velocity": 101,
                "duration": 0.11818181818181728,
                "tempo": 120.0
            },
            {
                "start_time": 44.47272727272727,
                "end_time": 44.59318181818182,
                "pitch": 47,
                "velocity": 101,
                "duration": 0.12045454545454959,
                "tempo": 120.0
            },
            {
                "start_time": 44.59318181818182,
                "end_time": 44.711363636363636,
                "pitch": 50,
                "velocity": 101,
                "duration": 0.11818181818181728,
                "tempo": 120.0
            },
            {
                "start_time": 44.711363636363636,
                "end_time": 44.83181818181818,
                "pitch": 50,
                "velocity": 101,
                "duration": 0.12045454545454248,
                "tempo": 120.0
            },
            {
                "start_time": 44.83181818181818,
                "end_time": 44.95227272727273,
                "pitch": 50,
                "velocity": 101,
                "duration": 0.12045454545454959,
                "tempo": 120.0
            },
            {
                "start_time": 44.95227272727273,
                "end_time": 45.070454545454545,
                "pitch": 50,
                "velocity": 101,
                "duration": 0.11818181818181728,
                "tempo": 120.0
            },
            {
                "start_time": 45.070454545454545,
                "end_time": 45.19090909090909,
                "pitch": 52,
                "velocity": 101,
                "duration": 0.12045454545454248,
                "tempo": 120.0
            },
            {
                "start_time": 45.19090909090909,
                "end_time": 45.31136363636364,
                "pitch": 52,
                "velocity": 101,
                "duration": 0.12045454545454959,
                "tempo": 120.0
            },
            {
                "start_time": 45.31136363636364,
                "end_time": 45.429545454545455,
                "pitch": 52,
                "velocity": 101,
                "duration": 0.11818181818181728,
                "tempo": 120.0
            },
            {
                "start_time": 45.429545454545455,
                "end_time": 45.67272727272727,
                "pitch": 55,
                "velocity": 101,
                "duration": 0.24318181818181728,
                "tempo": 120.0
            },
            {
                "start_time": 45.67272727272727,
                "end_time": 45.793181818181814,
                "pitch": 55,
                "velocity": 101,
                "duration": 0.12045454545454248,
                "tempo": 120.0
            },
            {
                "start_time": 45.793181818181814,
                "end_time": 45.91136363636363,
                "pitch": 55,
                "velocity": 101,
                "duration": 0.11818181818181728,
                "tempo": 120.0
            },
            {
                "start_time": 45.91136363636363,
                "end_time": 46.027272727272724,
                "pitch": 55,
                "velocity": 101,
                "duration": 0.11590909090909207,
                "tempo": 120.0
            },
            {
                "start_time": 46.027272727272724,
                "end_time": 46.14545454545454,
                "pitch": 47,
                "velocity": 101,
                "duration": 0.11818181818181728,
                "tempo": 120.0
            },
            {
                "start_time": 46.14545454545454,
                "end_time": 46.26363636363636,
                "pitch": 47,
                "velocity": 101,
                "duration": 0.11818181818181728,
                "tempo": 120.0
            },
            {
                "start_time": 46.26363636363636,
                "end_time": 46.38409090909091,
                "pitch": 47,
                "velocity": 101,
                "duration": 0.12045454545454959,
                "tempo": 120.0
            },
            {
                "start_time": 46.38409090909091,
                "end_time": 46.502272727272725,
                "pitch": 47,
                "velocity": 101,
                "duration": 0.11818181818181728,
                "tempo": 120.0
            },
            {
                "start_time": 42.68181818181818,
                "end_time": 46.502272727272725,
                "pitch": 53,
                "velocity": 101,
                "duration": 3.8204545454545453,
                "tempo": 120.0
            },
            {
                "start_time": 46.502272727272725,
                "end_time": 46.62272727272727,
                "pitch": 50,
                "velocity": 101,
                "duration": 0.12045454545454248,
                "tempo": 120.0
            },
            {
                "start_time": 46.62272727272727,
                "end_time": 46.74090909090909,
                "pitch": 50,
                "velocity": 101,
                "duration": 0.11818181818182438,
                "tempo": 120.0
            },
            {
                "start_time": 46.74090909090909,
                "end_time": 46.86363636363636,
                "pitch": 50,
                "velocity": 101,
                "duration": 0.12272727272726769,
                "tempo": 120.0
            },
            {
                "start_time": 46.86363636363636,
                "end_time": 46.98181818181818,
                "pitch": 50,
                "velocity": 101,
                "duration": 0.11818181818181728,
                "tempo": 120.0
            },
            {
                "start_time": 46.98181818181818,
                "end_time": 47.10227272727273,
                "pitch": 52,
                "velocity": 101,
                "duration": 0.12045454545454959,
                "tempo": 120.0
            },
            {
                "start_time": 47.10227272727273,
                "end_time": 47.224999999999994,
                "pitch": 52,
                "velocity": 101,
                "duration": 0.12272727272726769,
                "tempo": 120.0
            },
            {
                "start_time": 47.224999999999994,
                "end_time": 47.34318181818182,
                "pitch": 52,
                "velocity": 101,
                "duration": 0.11818181818182438,
                "tempo": 120.0
            },
            {
                "start_time": 47.34318181818182,
                "end_time": 47.584090909090904,
                "pitch": 48,
                "velocity": 101,
                "duration": 0.24090909090908497,
                "tempo": 120.0
            },
            {
                "start_time": 47.34318181818182,
                "end_time": 47.584090909090904,
                "pitch": 48,
                "velocity": 101,
                "duration": 0.24090909090908497,
                "tempo": 120.0
            },
            {
                "start_time": 47.584090909090904,
                "end_time": 47.70227272727273,
                "pitch": 48,
                "velocity": 101,
                "duration": 0.11818181818182438,
                "tempo": 120.0
            },
            {
                "start_time": 47.70227272727273,
                "end_time": 47.82272727272727,
                "pitch": 48,
                "velocity": 101,
                "duration": 0.12045454545454248,
                "tempo": 120.0
            },
            {
                "start_time": 33.46818181818182,
                "end_time": 47.94318181818181,
                "pitch": 32,
                "velocity": 101,
                "duration": 14.474999999999994,
                "tempo": 120.0
            },
            {
                "start_time": 47.82272727272727,
                "end_time": 47.94318181818181,
                "pitch": 48,
                "velocity": 101,
                "duration": 0.12045454545454248,
                "tempo": 120.0
            },
            {
                "start_time": 47.94318181818181,
                "end_time": 48.06363636363636,
                "pitch": 47,
                "velocity": 101,
                "duration": 0.12045454545454959,
                "tempo": 120.0
            },
            {
                "start_time": 48.06363636363636,
                "end_time": 48.184090909090905,
                "pitch": 47,
                "velocity": 101,
                "duration": 0.12045454545454248,
                "tempo": 120.0
            },
            {
                "start_time": 48.184090909090905,
                "end_time": 48.304545454545455,
                "pitch": 47,
                "velocity": 101,
                "duration": 0.12045454545454959,
                "tempo": 120.0
            },
            {
                "start_time": 48.304545454545455,
                "end_time": 48.425,
                "pitch": 47,
                "velocity": 101,
                "duration": 0.12045454545454248,
                "tempo": 120.0
            },
            {
                "start_time": 46.502272727272725,
                "end_time": 48.425,
                "pitch": 53,
                "velocity": 101,
                "duration": 1.922727272727272,
                "tempo": 120.0
            },
            {
                "start_time": 48.425,
                "end_time": 48.543181818181814,
                "pitch": 50,
                "velocity": 101,
                "duration": 0.11818181818181728,
                "tempo": 120.0
            },
            {
                "start_time": 48.543181818181814,
                "end_time": 48.663636363636364,
                "pitch": 50,
                "velocity": 101,
                "duration": 0.12045454545454959,
                "tempo": 120.0
            },
            {
                "start_time": 48.663636363636364,
                "end_time": 48.78409090909091,
                "pitch": 50,
                "velocity": 101,
                "duration": 0.12045454545454248,
                "tempo": 120.0
            },
            {
                "start_time": 48.78409090909091,
                "end_time": 48.90454545454545,
                "pitch": 50,
                "velocity": 101,
                "duration": 0.12045454545454248,
                "tempo": 120.0
            },
            {
                "start_time": 48.90454545454545,
                "end_time": 49.025,
                "pitch": 52,
                "velocity": 101,
                "duration": 0.12045454545454959,
                "tempo": 120.0
            },
            {
                "start_time": 49.025,
                "end_time": 49.14545454545454,
                "pitch": 52,
                "velocity": 101,
                "duration": 0.12045454545454248,
                "tempo": 120.0
            },
            {
                "start_time": 49.14545454545454,
                "end_time": 49.26590909090909,
                "pitch": 52,
                "velocity": 101,
                "duration": 0.12045454545454959,
                "tempo": 120.0
            },
            {
                "start_time": 49.26590909090909,
                "end_time": 49.50454545454545,
                "pitch": 48,
                "velocity": 101,
                "duration": 0.23863636363635976,
                "tempo": 120.0
            },
            {
                "start_time": 49.26590909090909,
                "end_time": 49.50454545454545,
                "pitch": 48,
                "velocity": 101,
                "duration": 0.23863636363635976,
                "tempo": 120.0
            },
            {
                "start_time": 49.50454545454545,
                "end_time": 49.625,
                "pitch": 48,
                "velocity": 101,
                "duration": 0.12045454545454959,
                "tempo": 120.0
            },
            {
                "start_time": 49.625,
                "end_time": 49.740909090909085,
                "pitch": 48,
                "velocity": 101,
                "duration": 0.11590909090908497,
                "tempo": 120.0
            },
            {
                "start_time": 49.740909090909085,
                "end_time": 49.85909090909091,
                "pitch": 48,
                "velocity": 101,
                "duration": 0.11818181818182438,
                "tempo": 120.0
            },
            {
                "start_time": 49.85909090909091,
                "end_time": 49.97727272727273,
                "pitch": 46,
                "velocity": 101,
                "duration": 0.11818181818181728,
                "tempo": 120.0
            },
            {
                "start_time": 49.97727272727273,
                "end_time": 50.095454545454544,
                "pitch": 46,
                "velocity": 101,
                "duration": 0.11818181818181728,
                "tempo": 120.0
            },
            {
                "start_time": 49.85909090909091,
                "end_time": 50.215909090909086,
                "pitch": 27,
                "velocity": 101,
                "duration": 0.35681818181817704,
                "tempo": 120.0
            },
            {
                "start_time": 50.095454545454544,
                "end_time": 50.215909090909086,
                "pitch": 49,
                "velocity": 101,
                "duration": 0.12045454545454248,
                "tempo": 120.0
            },
            {
                "start_time": 50.215909090909086,
                "end_time": 50.336363636363636,
                "pitch": 46,
                "velocity": 101,
                "duration": 0.12045454545454959,
                "tempo": 120.0
            },
            {
                "start_time": 50.215909090909086,
                "end_time": 50.45681818181818,
                "pitch": 27,
                "velocity": 101,
                "duration": 0.24090909090909207,
                "tempo": 120.0
            },
            {
                "start_time": 50.336363636363636,
                "end_time": 50.45681818181818,
                "pitch": 51,
                "velocity": 101,
                "duration": 0.12045454545454248,
                "tempo": 120.0
            },
            {
                "start_time": 50.45681818181818,
                "end_time": 50.57727272727273,
                "pitch": 46,
                "velocity": 101,
                "duration": 0.12045454545454959,
                "tempo": 120.0
            },
            {
                "start_time": 50.45681818181818,
                "end_time": 50.69772727272727,
                "pitch": 27,
                "velocity": 101,
                "duration": 0.24090909090909207,
                "tempo": 120.0
            },
            {
                "start_time": 50.57727272727273,
                "end_time": 50.69772727272727,
                "pitch": 49,
                "velocity": 101,
                "duration": 0.12045454545454248,
                "tempo": 120.0
            },
            {
                "start_time": 50.69772727272727,
                "end_time": 50.81590909090909,
                "pitch": 46,
                "velocity": 101,
                "duration": 0.11818181818181728,
                "tempo": 120.0
            },
            {
                "start_time": 50.93636363636364,
                "end_time": 51.05681818181818,
                "pitch": 46,
                "velocity": 101,
                "duration": 0.12045454545454248,
                "tempo": 120.0
            },
            {
                "start_time": 50.57727272727273,
                "end_time": 51.05681818181818,
                "pitch": 52,
                "velocity": 101,
                "duration": 0.47954545454545183,
                "tempo": 120.0
            },
            {
                "start_time": 50.69772727272727,
                "end_time": 51.17727272727272,
                "pitch": 27,
                "velocity": 101,
                "duration": 0.47954545454545183,
                "tempo": 120.0
            },
            {
                "start_time": 51.05681818181818,
                "end_time": 51.17727272727272,
                "pitch": 49,
                "velocity": 101,
                "duration": 0.12045454545454248,
                "tempo": 120.0
            },
            {
                "start_time": 51.17727272727272,
                "end_time": 51.29772727272727,
                "pitch": 46,
                "velocity": 101,
                "duration": 0.12045454545454959,
                "tempo": 120.0
            },
            {
                "start_time": 48.425,
                "end_time": 51.29772727272727,
                "pitch": 53,
                "velocity": 101,
                "duration": 2.872727272727275,
                "tempo": 120.0
            },
            {
                "start_time": 51.29772727272727,
                "end_time": 51.418181818181814,
                "pitch": 51,
                "velocity": 101,
                "duration": 0.12045454545454248,
                "tempo": 120.0
            },
            {
                "start_time": 51.418181818181814,
                "end_time": 51.538636363636364,
                "pitch": 46,
                "velocity": 101,
                "duration": 0.12045454545454959,
                "tempo": 120.0
            },
            {
                "start_time": 51.538636363636364,
                "end_time": 51.777272727272724,
                "pitch": 44,
                "velocity": 101,
                "duration": 0.23863636363635976,
                "tempo": 120.0
            },
            {
                "start_time": 51.538636363636364,
                "end_time": 51.777272727272724,
                "pitch": 44,
                "velocity": 101,
                "duration": 0.23863636363635976,
                "tempo": 120.0
            },
            {
                "start_time": 51.777272727272724,
                "end_time": 51.89772727272727,
                "pitch": 46,
                "velocity": 101,
                "duration": 0.12045454545454959,
                "tempo": 120.0
            },
            {
                "start_time": 51.89772727272727,
                "end_time": 52.01590909090909,
                "pitch": 46,
                "velocity": 101,
                "duration": 0.11818181818181728,
                "tempo": 120.0
            },
            {
                "start_time": 51.05681818181818,
                "end_time": 52.01590909090909,
                "pitch": 52,
                "velocity": 101,
                "duration": 0.9590909090909108,
                "tempo": 120.0
            },
            {
                "start_time": 51.17727272727272,
                "end_time": 52.13636363636363,
                "pitch": 27,
                "velocity": 101,
                "duration": 0.9590909090909108,
                "tempo": 120.0
            },
            {
                "start_time": 52.01590909090909,
                "end_time": 52.13636363636363,
                "pitch": 49,
                "velocity": 101,
                "duration": 0.12045454545454248,
                "tempo": 120.0
            },
            {
                "start_time": 52.13636363636363,
                "end_time": 52.25681818181818,
                "pitch": 46,
                "velocity": 101,
                "duration": 0.12045454545454959,
                "tempo": 120.0
            },
            {
                "start_time": 51.29772727272727,
                "end_time": 52.25681818181818,
                "pitch": 53,
                "velocity": 101,
                "duration": 0.9590909090909108,
                "tempo": 120.0
            },
            {
                "start_time": 52.25681818181818,
                "end_time": 52.375,
                "pitch": 51,
                "velocity": 101,
                "duration": 0.11818181818181728,
                "tempo": 120.0
            },
            {
                "start_time": 52.375,
                "end_time": 52.49545454545454,
                "pitch": 46,
                "velocity": 101,
                "duration": 0.12045454545454248,
                "tempo": 120.0
            },
            {
                "start_time": 52.01590909090909,
                "end_time": 52.49545454545454,
                "pitch": 52,
                "velocity": 101,
                "duration": 0.47954545454545183,
                "tempo": 120.0
            },
            {
                "start_time": 52.13636363636363,
                "end_time": 52.61363636363636,
                "pitch": 27,
                "velocity": 101,
                "duration": 0.4772727272727266,
                "tempo": 120.0
            },
            {
                "start_time": 52.49545454545454,
                "end_time": 52.61363636363636,
                "pitch": 49,
                "velocity": 101,
                "duration": 0.11818181818181728,
                "tempo": 120.0
            },
            {
                "start_time": 52.61363636363636,
                "end_time": 52.72954545454545,
                "pitch": 46,
                "velocity": 101,
                "duration": 0.11590909090909207,
                "tempo": 120.0
            },
            {
                "start_time": 52.72954545454545,
                "end_time": 52.84772727272727,
                "pitch": 41,
                "velocity": 101,
                "duration": 0.11818181818181728,
                "tempo": 120.0
            },
            {
                "start_time": 52.84772727272727,
                "end_time": 52.965909090909086,
                "pitch": 46,
                "velocity": 101,
                "duration": 0.11818181818181728,
                "tempo": 120.0
            },
            {
                "start_time": 52.49545454545454,
                "end_time": 52.965909090909086,
                "pitch": 52,
                "velocity": 101,
                "duration": 0.4704545454545439,
                "tempo": 120.0
            },
            {
                "start_time": 52.61363636363636,
                "end_time": 53.084090909090904,
                "pitch": 27,
                "velocity": 101,
                "duration": 0.4704545454545439,
                "tempo": 120.0
            },
            {
                "start_time": 52.965909090909086,
                "end_time": 53.084090909090904,
                "pitch": 49,
                "velocity": 101,
                "duration": 0.11818181818181728,
                "tempo": 120.0
            },
            {
                "start_time": 53.084090909090904,
                "end_time": 53.20454545454545,
                "pitch": 46,
                "velocity": 101,
                "duration": 0.12045454545454959,
                "tempo": 120.0
            },
            {
                "start_time": 52.965909090909086,
                "end_time": 53.20454545454545,
                "pitch": 52,
                "velocity": 101,
                "duration": 0.23863636363636687,
                "tempo": 120.0
            },
            {
                "start_time": 53.20454545454545,
                "end_time": 53.324999999999996,
                "pitch": 49,
                "velocity": 101,
                "duration": 0.12045454545454248,
                "tempo": 120.0
            },
            {
                "start_time": 53.324999999999996,
                "end_time": 53.44318181818181,
                "pitch": 51,
                "velocity": 101,
                "duration": 0.11818181818181728,
                "tempo": 120.0
            },
            {
                "start_time": 53.20454545454545,
                "end_time": 53.56363636363636,
                "pitch": 52,
                "velocity": 101,
                "duration": 0.35909090909090935,
                "tempo": 120.0
            },
            {
                "start_time": 53.44318181818181,
                "end_time": 53.56363636363636,
                "pitch": 52,
                "velocity": 101,
                "duration": 0.12045454545454959,
                "tempo": 120.0
            },
            {
                "start_time": 52.25681818181818,
                "end_time": 53.684090909090905,
                "pitch": 53,
                "velocity": 101,
                "duration": 1.4272727272727224,
                "tempo": 120.0
            },
            {
                "start_time": 53.56363636363636,
                "end_time": 53.684090909090905,
                "pitch": 53,
                "velocity": 101,
                "duration": 0.12045454545454248,
                "tempo": 120.0
            },
            {
                "start_time": 53.684090909090905,
                "end_time": 53.80227272727272,
                "pitch": 39,
                "velocity": 101,
                "duration": 0.11818181818181728,
                "tempo": 120.0
            },
            {
                "start_time": 53.80227272727272,
                "end_time": 53.92272727272727,
                "pitch": 39,
                "velocity": 101,
                "duration": 0.12045454545454959,
                "tempo": 120.0
            },
            {
                "start_time": 53.92272727272727,
                "end_time": 54.043181818181814,
                "pitch": 51,
                "velocity": 101,
                "duration": 0.12045454545454248,
                "tempo": 120.0
            },
            {
                "start_time": 54.043181818181814,
                "end_time": 54.163636363636364,
                "pitch": 39,
                "velocity": 101,
                "duration": 0.12045454545454959,
                "tempo": 120.0
            },
            {
                "start_time": 54.163636363636364,
                "end_time": 54.28409090909091,
                "pitch": 42,
                "velocity": 101,
                "duration": 0.12045454545454248,
                "tempo": 120.0
            },
            {
                "start_time": 54.163636363636364,
                "end_time": 54.28409090909091,
                "pitch": 42,
                "velocity": 101,
                "duration": 0.12045454545454248,
                "tempo": 120.0
            },
            {
                "start_time": 54.28409090909091,
                "end_time": 54.40454545454545,
                "pitch": 44,
                "velocity": 101,
                "duration": 0.12045454545454248,
                "tempo": 120.0
            },
            {
                "start_time": 54.40454545454545,
                "end_time": 54.525,
                "pitch": 45,
                "velocity": 101,
                "duration": 0.12045454545454959,
                "tempo": 120.0
            },
            {
                "start_time": 54.525,
                "end_time": 54.64545454545454,
                "pitch": 46,
                "velocity": 101,
                "duration": 0.12045454545454248,
                "tempo": 120.0
            },
            {
                "start_time": 54.64545454545454,
                "end_time": 54.76363636363636,
                "pitch": 39,
                "velocity": 101,
                "duration": 0.11818181818181728,
                "tempo": 120.0
            },
            {
                "start_time": 54.76363636363636,
                "end_time": 54.88409090909091,
                "pitch": 39,
                "velocity": 101,
                "duration": 0.12045454545454959,
                "tempo": 120.0
            },
            {
                "start_time": 54.88409090909091,
                "end_time": 55.00454545454545,
                "pitch": 51,
                "velocity": 101,
                "duration": 0.12045454545454248,
                "tempo": 120.0
            },
            {
                "start_time": 55.00454545454545,
                "end_time": 55.125,
                "pitch": 39,
                "velocity": 101,
                "duration": 0.12045454545454959,
                "tempo": 120.0
            },
            {
                "start_time": 55.125,
                "end_time": 55.24545454545454,
                "pitch": 42,
                "velocity": 101,
                "duration": 0.12045454545454248,
                "tempo": 120.0
            },
            {
                "start_time": 55.125,
                "end_time": 55.24545454545454,
                "pitch": 42,
                "velocity": 101,
                "duration": 0.12045454545454248,
                "tempo": 120.0
            },
            {
                "start_time": 55.24545454545454,
                "end_time": 55.365909090909085,
                "pitch": 44,
                "velocity": 101,
                "duration": 0.12045454545454248,
                "tempo": 120.0
            },
            {
                "start_time": 55.365909090909085,
                "end_time": 55.48409090909091,
                "pitch": 45,
                "velocity": 101,
                "duration": 0.11818181818182438,
                "tempo": 120.0
            },
            {
                "start_time": 55.48409090909091,
                "end_time": 55.60227272727273,
                "pitch": 46,
                "velocity": 101,
                "duration": 0.11818181818181728,
                "tempo": 120.0
            },
            {
                "start_time": 55.60227272727273,
                "end_time": 55.71818181818182,
                "pitch": 39,
                "velocity": 101,
                "duration": 0.11590909090909207,
                "tempo": 120.0
            },
            {
                "start_time": 55.71818181818182,
                "end_time": 55.836363636363636,
                "pitch": 39,
                "velocity": 101,
                "duration": 0.11818181818181728,
                "tempo": 120.0
            },
            {
                "start_time": 55.836363636363636,
                "end_time": 55.95681818181818,
                "pitch": 51,
                "velocity": 101,
                "duration": 0.12045454545454248,
                "tempo": 120.0
            },
            {
                "start_time": 55.95681818181818,
                "end_time": 56.074999999999996,
                "pitch": 39,
                "velocity": 101,
                "duration": 0.11818181818181728,
                "tempo": 120.0
            },
            {
                "start_time": 56.074999999999996,
                "end_time": 56.195454545454545,
                "pitch": 42,
                "velocity": 101,
                "duration": 0.12045454545454959,
                "tempo": 120.0
            },
            {
                "start_time": 56.195454545454545,
                "end_time": 56.31590909090909,
                "pitch": 44,
                "velocity": 101,
                "duration": 0.12045454545454248,
                "tempo": 120.0
            },
            {
                "start_time": 56.31590909090909,
                "end_time": 56.43636363636363,
                "pitch": 45,
                "velocity": 101,
                "duration": 0.12045454545454248,
                "tempo": 120.0
            },
            {
                "start_time": 56.43636363636363,
                "end_time": 56.55681818181818,
                "pitch": 46,
                "velocity": 101,
                "duration": 0.12045454545454959,
                "tempo": 120.0
            },
            {
                "start_time": 56.55681818181818,
                "end_time": 56.67727272727272,
                "pitch": 39,
                "velocity": 101,
                "duration": 0.12045454545454248,
                "tempo": 120.0
            },
            {
                "start_time": 56.67727272727272,
                "end_time": 56.79772727272727,
                "pitch": 39,
                "velocity": 101,
                "duration": 0.12045454545454959,
                "tempo": 120.0
            },
            {
                "start_time": 56.79772727272727,
                "end_time": 56.91590909090909,
                "pitch": 51,
                "velocity": 101,
                "duration": 0.11818181818181728,
                "tempo": 120.0
            },
            {
                "start_time": 56.91590909090909,
                "end_time": 57.03636363636363,
                "pitch": 39,
                "velocity": 101,
                "duration": 0.12045454545454248,
                "tempo": 120.0
            },
            {
                "start_time": 57.03636363636363,
                "end_time": 57.15681818181818,
                "pitch": 42,
                "velocity": 101,
                "duration": 0.12045454545454959,
                "tempo": 120.0
            },
            {
                "start_time": 57.03636363636363,
                "end_time": 57.15681818181818,
                "pitch": 42,
                "velocity": 101,
                "duration": 0.12045454545454959,
                "tempo": 120.0
            },
            {
                "start_time": 57.15681818181818,
                "end_time": 57.275,
                "pitch": 44,
                "velocity": 101,
                "duration": 0.11818181818181728,
                "tempo": 120.0
            },
            {
                "start_time": 57.275,
                "end_time": 57.39545454545454,
                "pitch": 45,
                "velocity": 101,
                "duration": 0.12045454545454248,
                "tempo": 120.0
            },
            {
                "start_time": 57.39545454545454,
                "end_time": 57.51590909090909,
                "pitch": 46,
                "velocity": 101,
                "duration": 0.12045454545454959,
                "tempo": 120.0
            },
            {
                "start_time": 57.51590909090909,
                "end_time": 57.63863636363636,
                "pitch": 46,
                "velocity": 101,
                "duration": 0.12272727272726769,
                "tempo": 120.0
            },
            {
                "start_time": 57.63863636363636,
                "end_time": 57.75909090909091,
                "pitch": 46,
                "velocity": 101,
                "duration": 0.12045454545454959,
                "tempo": 120.0
            },
            {
                "start_time": 57.75909090909091,
                "end_time": 57.877272727272725,
                "pitch": 49,
                "velocity": 101,
                "duration": 0.11818181818181728,
                "tempo": 120.0
            },
            {
                "start_time": 57.877272727272725,
                "end_time": 57.99772727272727,
                "pitch": 46,
                "velocity": 101,
                "duration": 0.12045454545454248,
                "tempo": 120.0
            },
            {
                "start_time": 53.084090909090904,
                "end_time": 58.115909090909085,
                "pitch": 27,
                "velocity": 101,
                "duration": 5.031818181818181,
                "tempo": 120.0
            },
            {
                "start_time": 57.99772727272727,
                "end_time": 58.115909090909085,
                "pitch": 51,
                "velocity": 101,
                "duration": 0.11818181818181728,
                "tempo": 120.0
            },
            {
                "start_time": 58.115909090909085,
                "end_time": 58.236363636363635,
                "pitch": 46,
                "velocity": 101,
                "duration": 0.12045454545454959,
                "tempo": 120.0
            },
            {
                "start_time": 57.75909090909091,
                "end_time": 58.236363636363635,
                "pitch": 52,
                "velocity": 101,
                "duration": 0.4772727272727266,
                "tempo": 120.0
            },
            {
                "start_time": 58.236363636363635,
                "end_time": 58.35681818181818,
                "pitch": 49,
                "velocity": 101,
                "duration": 0.12045454545454248,
                "tempo": 120.0
            },
            {
                "start_time": 58.35681818181818,
                "end_time": 58.47727272727273,
                "pitch": 46,
                "velocity": 101,
                "duration": 0.12045454545454959,
                "tempo": 120.0
            },
            {
                "start_time": 58.59772727272727,
                "end_time": 58.71818181818182,
                "pitch": 46,
                "velocity": 101,
                "duration": 0.12045454545454959,
                "tempo": 120.0
            },
            {
                "start_time": 58.236363636363635,
                "end_time": 58.71818181818182,
                "pitch": 52,
                "velocity": 101,
                "duration": 0.48181818181818414,
                "tempo": 120.0
            },
            {
                "start_time": 58.115909090909085,
                "end_time": 58.836363636363636,
                "pitch": 27,
                "velocity": 101,
                "duration": 0.720454545454551,
                "tempo": 120.0
            },
            {
                "start_time": 58.71818181818182,
                "end_time": 58.836363636363636,
                "pitch": 49,
                "velocity": 101,
                "duration": 0.11818181818181728,
                "tempo": 120.0
            },
            {
                "start_time": 58.836363636363636,
                "end_time": 58.95454545454545,
                "pitch": 46,
                "velocity": 101,
                "duration": 0.11818181818181728,
                "tempo": 120.0
            },
            {
                "start_time": 54.64545454545454,
                "end_time": 58.95454545454545,
                "pitch": 53,
                "velocity": 101,
                "duration": 4.309090909090912,
                "tempo": 120.0
            },
            {
                "start_time": 58.95454545454545,
                "end_time": 59.07272727272727,
                "pitch": 51,
                "velocity": 101,
                "duration": 0.11818181818181728,
                "tempo": 120.0
            },
            {
                "start_time": 59.07272727272727,
                "end_time": 59.19090909090909,
                "pitch": 46,
                "velocity": 101,
                "duration": 0.11818181818181728,
                "tempo": 120.0
            },
            {
                "start_time": 59.19090909090909,
                "end_time": 59.429545454545455,
                "pitch": 44,
                "velocity": 101,
                "duration": 0.23863636363636687,
                "tempo": 120.0
            },
            {
                "start_time": 59.429545454545455,
                "end_time": 59.54772727272727,
                "pitch": 46,
                "velocity": 101,
                "duration": 0.11818181818181728,
                "tempo": 120.0
            },
            {
                "start_time": 59.429545454545455,
                "end_time": 59.54772727272727,
                "pitch": 46,
                "velocity": 101,
                "duration": 0.11818181818181728,
                "tempo": 120.0
            },
            {
                "start_time": 59.54772727272727,
                "end_time": 59.668181818181814,
                "pitch": 46,
                "velocity": 101,
                "duration": 0.12045454545454248,
                "tempo": 120.0
            },
            {
                "start_time": 58.71818181818182,
                "end_time": 59.668181818181814,
                "pitch": 52,
                "velocity": 101,
                "duration": 0.9499999999999957,
                "tempo": 120.0
            },
            {
                "start_time": 58.836363636363636,
                "end_time": 59.788636363636364,
                "pitch": 27,
                "velocity": 101,
                "duration": 0.952272727272728,
                "tempo": 120.0
            },
            {
                "start_time": 59.668181818181814,
                "end_time": 59.788636363636364,
                "pitch": 49,
                "velocity": 101,
                "duration": 0.12045454545454959,
                "tempo": 120.0
            },
            {
                "start_time": 59.788636363636364,
                "end_time": 59.90909090909091,
                "pitch": 46,
                "velocity": 101,
                "duration": 0.12045454545454248,
                "tempo": 120.0
            },
            {
                "start_time": 58.95454545454545,
                "end_time": 59.90909090909091,
                "pitch": 53,
                "velocity": 101,
                "duration": 0.9545454545454533,
                "tempo": 120.0
            },
            {
                "start_time": 59.788636363636364,
                "end_time": 60.02954545454545,
                "pitch": 27,
                "velocity": 101,
                "duration": 0.24090909090908497,
                "tempo": 120.0
            },
            {
                "start_time": 59.90909090909091,
                "end_time": 60.02954545454545,
                "pitch": 51,
                "velocity": 101,
                "duration": 0.12045454545454248,
                "tempo": 120.0
            },
            {
                "start_time": 60.02954545454545,
                "end_time": 60.15,
                "pitch": 46,
                "velocity": 101,
                "duration": 0.12045454545454959,
                "tempo": 120.0
            },
            {
                "start_time": 60.15,
                "end_time": 60.27045454545454,
                "pitch": 49,
                "velocity": 101,
                "duration": 0.12045454545454248,
                "tempo": 120.0
            },
            {
                "start_time": 60.27045454545454,
                "end_time": 60.38863636363636,
                "pitch": 46,
                "velocity": 101,
                "duration": 0.11818181818181728,
                "tempo": 120.0
            },
            {
                "start_time": 52.84772727272727,
                "end_time": 60.50909090909091,
                "pitch": 15,
                "velocity": 101,
                "duration": 7.661363636363639,
                "tempo": 120.0
            },
            {
                "start_time": 60.38863636363636,
                "end_time": 60.50909090909091,
                "pitch": 41,
                "velocity": 101,
                "duration": 0.12045454545454959,
                "tempo": 120.0
            },
            {
                "start_time": 60.50909090909091,
                "end_time": 60.62954545454545,
                "pitch": 46,
                "velocity": 101,
                "duration": 0.12045454545454248,
                "tempo": 120.0
            },
            {
                "start_time": 60.62954545454545,
                "end_time": 60.75,
                "pitch": 49,
                "velocity": 101,
                "duration": 0.12045454545454959,
                "tempo": 120.0
            },
            {
                "start_time": 60.75,
                "end_time": 60.87045454545454,
                "pitch": 46,
                "velocity": 101,
                "duration": 0.12045454545454248,
                "tempo": 120.0
            },
            {
                "start_time": 59.668181818181814,
                "end_time": 60.87045454545454,
                "pitch": 52,
                "velocity": 101,
                "duration": 1.202272727272728,
                "tempo": 120.0
            },
            {
                "start_time": 60.87045454545454,
                "end_time": 60.990909090909085,
                "pitch": 49,
                "velocity": 101,
                "duration": 0.12045454545454248,
                "tempo": 120.0
            },
            {
                "start_time": 60.990909090909085,
                "end_time": 61.111363636363635,
                "pitch": 51,
                "velocity": 101,
                "duration": 0.12045454545454959,
                "tempo": 120.0
            },
            {
                "start_time": 60.87045454545454,
                "end_time": 61.22954545454545,
                "pitch": 52,
                "velocity": 101,
                "duration": 0.35909090909090935,
                "tempo": 120.0
            },
            {
                "start_time": 61.111363636363635,
                "end_time": 61.22954545454545,
                "pitch": 52,
                "velocity": 101,
                "duration": 0.11818181818181728,
                "tempo": 120.0
            },
            {
                "start_time": 59.90909090909091,
                "end_time": 61.349999999999994,
                "pitch": 53,
                "velocity": 101,
                "duration": 1.4409090909090878,
                "tempo": 120.0
            },
            {
                "start_time": 61.22954545454545,
                "end_time": 61.349999999999994,
                "pitch": 53,
                "velocity": 101,
                "duration": 0.12045454545454248,
                "tempo": 120.0
            },
            {
                "start_time": 61.349999999999994,
                "end_time": 61.470454545454544,
                "pitch": 37,
                "velocity": 101,
                "duration": 0.12045454545454959,
                "tempo": 120.0
            },
            {
                "start_time": 61.470454545454544,
                "end_time": 61.58863636363636,
                "pitch": 37,
                "velocity": 101,
                "duration": 0.11818181818181728,
                "tempo": 120.0
            },
            {
                "start_time": 61.349999999999994,
                "end_time": 61.70681818181818,
                "pitch": 49,
                "velocity": 101,
                "duration": 0.35681818181818414,
                "tempo": 120.0
            },
            {
                "start_time": 61.58863636363636,
                "end_time": 61.70681818181818,
                "pitch": 49,
                "velocity": 101,
                "duration": 0.11818181818181728,
                "tempo": 120.0
            },
            {
                "start_time": 61.70681818181818,
                "end_time": 61.824999999999996,
                "pitch": 37,
                "velocity": 101,
                "duration": 0.11818181818181728,
                "tempo": 120.0
            },
            {
                "start_time": 61.94318181818181,
                "end_time": 62.06136363636363,
                "pitch": 37,
                "velocity": 101,
                "duration": 0.11818181818181728,
                "tempo": 120.0
            },
            {
                "start_time": 62.06136363636363,
                "end_time": 62.18181818181818,
                "pitch": 49,
                "velocity": 101,
                "duration": 0.12045454545454959,
                "tempo": 120.0
            },
            {
                "start_time": 62.30227272727272,
                "end_time": 62.42272727272727,
                "pitch": 39,
                "velocity": 101,
                "duration": 0.12045454545454959,
                "tempo": 120.0
            },
            {
                "start_time": 62.42272727272727,
                "end_time": 62.543181818181814,
                "pitch": 39,
                "velocity": 101,
                "duration": 0.12045454545454248,
                "tempo": 120.0
            },
            {
                "start_time": 62.543181818181814,
                "end_time": 62.663636363636364,
                "pitch": 51,
                "velocity": 101,
                "duration": 0.12045454545454959,
                "tempo": 120.0
            },
            {
                "start_time": 62.663636363636364,
                "end_time": 62.78181818181818,
                "pitch": 39,
                "velocity": 101,
                "duration": 0.11818181818181728,
                "tempo": 120.0
            },
            {
                "start_time": 62.78181818181818,
                "end_time": 62.902272727272724,
                "pitch": 42,
                "velocity": 101,
                "duration": 0.12045454545454248,
                "tempo": 120.0
            },
            {
                "start_time": 62.902272727272724,
                "end_time": 63.02045454545454,
                "pitch": 44,
                "velocity": 101,
                "duration": 0.11818181818181728,
                "tempo": 120.0
            },
            {
                "start_time": 63.02045454545454,
                "end_time": 63.14090909090909,
                "pitch": 45,
                "velocity": 101,
                "duration": 0.12045454545454959,
                "tempo": 120.0
            },
            {
                "start_time": 63.14090909090909,
                "end_time": 63.26136363636363,
                "pitch": 46,
                "velocity": 101,
                "duration": 0.12045454545454248,
                "tempo": 120.0
            },
            {
                "start_time": 63.26136363636363,
                "end_time": 63.37954545454545,
                "pitch": 46,
                "velocity": 101,
                "duration": 0.11818181818181728,
                "tempo": 120.0
            },
            {
                "start_time": 63.37954545454545,
                "end_time": 63.5,
                "pitch": 46,
                "velocity": 101,
                "duration": 0.12045454545454959,
                "tempo": 120.0
            },
            {
                "start_time": 63.5,
                "end_time": 63.62045454545454,
                "pitch": 58,
                "velocity": 101,
                "duration": 0.12045454545454248,
                "tempo": 120.0
            },
            {
                "start_time": 63.62045454545454,
                "end_time": 63.740909090909085,
                "pitch": 46,
                "velocity": 101,
                "duration": 0.12045454545454248,
                "tempo": 120.0
            },
            {
                "start_time": 63.861363636363635,
                "end_time": 63.98181818181818,
                "pitch": 44,
                "velocity": 101,
                "duration": 0.12045454545454248,
                "tempo": 120.0
            },
            {
                "start_time": 64.10227272727272,
                "end_time": 64.22045454545454,
                "pitch": 46,
                "velocity": 101,
                "duration": 0.11818181818182438,
                "tempo": 120.0
            },
            {
                "start_time": 64.22045454545454,
                "end_time": 64.3409090909091,
                "pitch": 46,
                "velocity": 101,
                "duration": 0.12045454545454959,
                "tempo": 120.0
            },
            {
                "start_time": 64.3409090909091,
                "end_time": 64.46136363636363,
                "pitch": 46,
                "velocity": 101,
                "duration": 0.12045454545453538,
                "tempo": 120.0
            },
            {
                "start_time": 64.46136363636363,
                "end_time": 64.58181818181818,
                "pitch": 46,
                "velocity": 101,
                "duration": 0.12045454545454959,
                "tempo": 120.0
            },
            {
                "start_time": 64.58181818181818,
                "end_time": 64.70227272727273,
                "pitch": 46,
                "velocity": 101,
                "duration": 0.12045454545454959,
                "tempo": 120.0
            },
            {
                "start_time": 64.70227272727273,
                "end_time": 64.82272727272726,
                "pitch": 46,
                "velocity": 101,
                "duration": 0.12045454545453538,
                "tempo": 120.0
            },
            {
                "start_time": 64.82272727272726,
                "end_time": 64.94318181818181,
                "pitch": 44,
                "velocity": 101,
                "duration": 0.12045454545454959,
                "tempo": 120.0
            },
            {
                "start_time": 64.94318181818181,
                "end_time": 65.05909090909091,
                "pitch": 46,
                "velocity": 101,
                "duration": 0.11590909090909918,
                "tempo": 120.0
            },
            {
                "start_time": 64.94318181818181,
                "end_time": 65.05909090909091,
                "pitch": 46,
                "velocity": 101,
                "duration": 0.11590909090909918,
                "tempo": 120.0
            },
            {
                "start_time": 65.05909090909091,
                "end_time": 65.17727272727272,
                "pitch": 44,
                "velocity": 101,
                "duration": 0.11818181818181017,
                "tempo": 120.0
            },
            {
                "start_time": 65.05909090909091,
                "end_time": 65.17727272727272,
                "pitch": 44,
                "velocity": 101,
                "duration": 0.11818181818181017,
                "tempo": 120.0
            },
            {
                "start_time": 65.17727272727272,
                "end_time": 65.29545454545455,
                "pitch": 37,
                "velocity": 101,
                "duration": 0.11818181818182438,
                "tempo": 120.0
            },
            {
                "start_time": 65.29545454545455,
                "end_time": 65.41363636363636,
                "pitch": 37,
                "velocity": 101,
                "duration": 0.11818181818181017,
                "tempo": 120.0
            },
            {
                "start_time": 65.41363636363636,
                "end_time": 65.5340909090909,
                "pitch": 49,
                "velocity": 101,
                "duration": 0.12045454545454959,
                "tempo": 120.0
            },
            {
                "start_time": 65.5340909090909,
                "end_time": 65.65454545454546,
                "pitch": 37,
                "velocity": 101,
                "duration": 0.12045454545454959,
                "tempo": 120.0
            },
            {
                "start_time": 65.77499999999999,
                "end_time": 65.89545454545454,
                "pitch": 37,
                "velocity": 101,
                "duration": 0.12045454545454959,
                "tempo": 120.0
            },
            {
                "start_time": 65.89545454545454,
                "end_time": 66.01590909090909,
                "pitch": 49,
                "velocity": 101,
                "duration": 0.12045454545454959,
                "tempo": 120.0
            },
            {
                "start_time": 66.1340909090909,
                "end_time": 66.25454545454545,
                "pitch": 39,
                "velocity": 101,
                "duration": 0.12045454545454959,
                "tempo": 120.0
            },
            {
                "start_time": 66.25454545454545,
                "end_time": 66.375,
                "pitch": 39,
                "velocity": 101,
                "duration": 0.12045454545454959,
                "tempo": 120.0
            },
            {
                "start_time": 66.375,
                "end_time": 66.49545454545454,
                "pitch": 51,
                "velocity": 101,
                "duration": 0.12045454545453538,
                "tempo": 120.0
            },
            {
                "start_time": 66.49545454545454,
                "end_time": 66.61590909090908,
                "pitch": 39,
                "velocity": 101,
                "duration": 0.12045454545454959,
                "tempo": 120.0
            },
            {
                "start_time": 66.61590909090908,
                "end_time": 66.73636363636363,
                "pitch": 42,
                "velocity": 101,
                "duration": 0.12045454545454959,
                "tempo": 120.0
            },
            {
                "start_time": 66.61590909090908,
                "end_time": 66.73636363636363,
                "pitch": 42,
                "velocity": 101,
                "duration": 0.12045454545454959,
                "tempo": 120.0
            },
            {
                "start_time": 66.73636363636363,
                "end_time": 66.85681818181818,
                "pitch": 44,
                "velocity": 101,
                "duration": 0.12045454545454959,
                "tempo": 120.0
            },
            {
                "start_time": 66.85681818181818,
                "end_time": 66.97727272727272,
                "pitch": 45,
                "velocity": 101,
                "duration": 0.12045454545453538,
                "tempo": 120.0
            },
            {
                "start_time": 66.97727272727272,
                "end_time": 67.09772727272727,
                "pitch": 46,
                "velocity": 101,
                "duration": 0.12045454545454959,
                "tempo": 120.0
            },
            {
                "start_time": 67.09772727272727,
                "end_time": 67.21818181818182,
                "pitch": 46,
                "velocity": 101,
                "duration": 0.12045454545454959,
                "tempo": 120.0
            },
            {
                "start_time": 67.21818181818182,
                "end_time": 67.33863636363635,
                "pitch": 46,
                "velocity": 101,
                "duration": 0.12045454545453538,
                "tempo": 120.0
            },
            {
                "start_time": 67.33863636363635,
                "end_time": 67.4590909090909,
                "pitch": 58,
                "velocity": 101,
                "duration": 0.12045454545454959,
                "tempo": 120.0
            },
            {
                "start_time": 67.4590909090909,
                "end_time": 67.57954545454545,
                "pitch": 46,
                "velocity": 101,
                "duration": 0.12045454545454959,
                "tempo": 120.0
            },
            {
                "start_time": 67.7,
                "end_time": 67.82045454545454,
                "pitch": 44,
                "velocity": 101,
                "duration": 0.12045454545453538,
                "tempo": 120.0
            },
            {
                "start_time": 67.93863636363636,
                "end_time": 68.05681818181817,
                "pitch": 46,
                "velocity": 101,
                "duration": 0.11818181818181017,
                "tempo": 120.0
            },
            {
                "start_time": 68.05681818181817,
                "end_time": 68.175,
                "pitch": 46,
                "velocity": 101,
                "duration": 0.11818181818182438,
                "tempo": 120.0
            },
            {
                "start_time": 68.175,
                "end_time": 68.29318181818182,
                "pitch": 46,
                "velocity": 101,
                "duration": 0.11818181818182438,
                "tempo": 120.0
            },
            {
                "start_time": 68.29318181818182,
                "end_time": 68.41136363636363,
                "pitch": 58,
                "velocity": 101,
                "duration": 0.11818181818181017,
                "tempo": 120.0
            },
            {
                "start_time": 68.41136363636363,
                "end_time": 68.53181818181818,
                "pitch": 46,
                "velocity": 101,
                "duration": 0.12045454545454959,
                "tempo": 120.0
            },
            {
                "start_time": 68.64999999999999,
                "end_time": 68.77045454545454,
                "pitch": 46,
                "velocity": 101,
                "duration": 0.12045454545454959,
                "tempo": 120.0
            },
            {
                "start_time": 68.77045454545454,
                "end_time": 68.89090909090909,
                "pitch": 46,
                "velocity": 101,
                "duration": 0.12045454545454959,
                "tempo": 120.0
            },
            {
                "start_time": 69.01136363636363,
                "end_time": 69.13181818181818,
                "pitch": 47,
                "velocity": 101,
                "duration": 0.12045454545454959,
                "tempo": 120.0
            }
        ],
        "Electric Piano 1": [
            {
                "start_time": 3.959090909090909,
                "end_time": 4.318181818181818,
                "pitch": 69,
                "velocity": 64,
                "duration": 0.35909090909090935,
                "tempo": 120.0
            },
            {
                "start_time": 4.318181818181818,
                "end_time": 4.556818181818182,
                "pitch": 72,
                "velocity": 64,
                "duration": 0.2386363636363633,
                "tempo": 120.0
            },
            {
                "start_time": 4.556818181818182,
                "end_time": 4.677272727272727,
                "pitch": 74,
                "velocity": 64,
                "duration": 0.12045454545454515,
                "tempo": 120.0
            },
            {
                "start_time": 4.677272727272727,
                "end_time": 4.797727272727273,
                "pitch": 72,
                "velocity": 64,
                "duration": 0.12045454545454604,
                "tempo": 120.0
            },
            {
                "start_time": 4.797727272727273,
                "end_time": 5.634090909090909,
                "pitch": 75,
                "velocity": 64,
                "duration": 0.836363636363636,
                "tempo": 120.0
            },
            {
                "start_time": 4.797727272727273,
                "end_time": 5.634090909090909,
                "pitch": 75,
                "velocity": 64,
                "duration": 0.836363636363636,
                "tempo": 120.0
            },
            {
                "start_time": 5.634090909090909,
                "end_time": 5.752272727272727,
                "pitch": 69,
                "velocity": 64,
                "duration": 0.11818181818181817,
                "tempo": 120.0
            },
            {
                "start_time": 5.752272727272727,
                "end_time": 6.1090909090909085,
                "pitch": 81,
                "velocity": 64,
                "duration": 0.3568181818181815,
                "tempo": 120.0
            },
            {
                "start_time": 6.1090909090909085,
                "end_time": 6.35,
                "pitch": 76,
                "velocity": 64,
                "duration": 0.24090909090909118,
                "tempo": 120.0
            },
            {
                "start_time": 6.35,
                "end_time": 6.470454545454545,
                "pitch": 74,
                "velocity": 64,
                "duration": 0.12045454545454515,
                "tempo": 120.0
            },
            {
                "start_time": 6.470454545454545,
                "end_time": 6.590909090909091,
                "pitch": 72,
                "velocity": 64,
                "duration": 0.12045454545454604,
                "tempo": 120.0
            },
            {
                "start_time": 6.590909090909091,
                "end_time": 6.6499999999999995,
                "pitch": 74,
                "velocity": 64,
                "duration": 0.05909090909090864,
                "tempo": 120.0
            },
            {
                "start_time": 6.709090909090909,
                "end_time": 6.829545454545454,
                "pitch": 75,
                "velocity": 64,
                "duration": 0.12045454545454515,
                "tempo": 120.0
            },
            {
                "start_time": 6.949999999999999,
                "end_time": 7.070454545454545,
                "pitch": 76,
                "velocity": 64,
                "duration": 0.12045454545454604,
                "tempo": 120.0
            },
            {
                "start_time": 7.1909090909090905,
                "end_time": 7.311363636363636,
                "pitch": 74,
                "velocity": 64,
                "duration": 0.12045454545454515,
                "tempo": 120.0
            },
            {
                "start_time": 7.431818181818182,
                "end_time": 7.552272727272727,
                "pitch": 72,
                "velocity": 64,
                "duration": 0.12045454545454515,
                "tempo": 120.0
            },
            {
                "start_time": 7.672727272727272,
                "end_time": 10.788636363636362,
                "pitch": 73,
                "velocity": 64,
                "duration": 3.1159090909090903,
                "tempo": 120.0
            },
            {
                "start_time": 10.788636363636362,
                "end_time": 10.909090909090908,
                "pitch": 72,
                "velocity": 64,
                "duration": 0.12045454545454604,
                "tempo": 120.0
            },
            {
                "start_time": 10.909090909090908,
                "end_time": 11.029545454545454,
                "pitch": 74,
                "velocity": 64,
                "duration": 0.12045454545454604,
                "tempo": 120.0
            },
            {
                "start_time": 11.029545454545454,
                "end_time": 11.288636363636362,
                "pitch": 75,
                "velocity": 64,
                "duration": 0.25909090909090793,
                "tempo": 120.0
            },
            {
                "start_time": 11.288636363636362,
                "end_time": 11.388636363636364,
                "pitch": 76,
                "velocity": 64,
                "duration": 0.10000000000000142,
                "tempo": 120.0
            },
            {
                "start_time": 11.388636363636364,
                "end_time": 11.506818181818181,
                "pitch": 74,
                "velocity": 64,
                "duration": 0.11818181818181728,
                "tempo": 120.0
            },
            {
                "start_time": 11.506818181818181,
                "end_time": 11.979545454545454,
                "pitch": 81,
                "velocity": 64,
                "duration": 0.47272727272727266,
                "tempo": 120.0
            },
            {
                "start_time": 11.98181818181818,
                "end_time": 12.461363636363636,
                "pitch": 76,
                "velocity": 64,
                "duration": 0.4795454545454554,
                "tempo": 120.0
            },
            {
                "start_time": 12.461363636363636,
                "end_time": 13.424999999999999,
                "pitch": 84,
                "velocity": 64,
                "duration": 0.963636363636363,
                "tempo": 120.0
            },
            {
                "start_time": 13.424999999999999,
                "end_time": 13.486363636363636,
                "pitch": 86,
                "velocity": 64,
                "duration": 0.0613636363636374,
                "tempo": 120.0
            },
            {
                "start_time": 13.545454545454545,
                "end_time": 13.786363636363635,
                "pitch": 87,
                "velocity": 64,
                "duration": 0.2409090909090903,
                "tempo": 120.0
            },
            {
                "start_time": 13.786363636363635,
                "end_time": 13.86590909090909,
                "pitch": 91,
                "velocity": 64,
                "duration": 0.07954545454545503,
                "tempo": 120.0
            },
            {
                "start_time": 13.86590909090909,
                "end_time": 13.906818181818181,
                "pitch": 91,
                "velocity": 64,
                "duration": 0.040909090909091006,
                "tempo": 120.0
            },
            {
                "start_time": 13.906818181818181,
                "end_time": 14.506818181818181,
                "pitch": 87,
                "velocity": 64,
                "duration": 0.5999999999999996,
                "tempo": 120.0
            },
            {
                "start_time": 14.506818181818181,
                "end_time": 14.627272727272727,
                "pitch": 93,
                "velocity": 64,
                "duration": 0.12045454545454604,
                "tempo": 120.0
            },
            {
                "start_time": 14.506818181818181,
                "end_time": 14.747727272727271,
                "pitch": 56,
                "velocity": 64,
                "duration": 0.2409090909090903,
                "tempo": 120.0
            },
            {
                "start_time": 14.627272727272727,
                "end_time": 14.747727272727271,
                "pitch": 88,
                "velocity": 64,
                "duration": 0.12045454545454426,
                "tempo": 120.0
            },
            {
                "start_time": 14.747727272727271,
                "end_time": 14.868181818181817,
                "pitch": 93,
                "velocity": 64,
                "duration": 0.12045454545454604,
                "tempo": 120.0
            },
            {
                "start_time": 14.627272727272727,
                "end_time": 14.868181818181817,
                "pitch": 102,
                "velocity": 64,
                "duration": 0.2409090909090903,
                "tempo": 120.0
            },
            {
                "start_time": 14.747727272727271,
                "end_time": 14.988636363636363,
                "pitch": 56,
                "velocity": 64,
                "duration": 0.24090909090909207,
                "tempo": 120.0
            },
            {
                "start_time": 14.868181818181817,
                "end_time": 14.988636363636363,
                "pitch": 88,
                "velocity": 64,
                "duration": 0.12045454545454604,
                "tempo": 120.0
            },
            {
                "start_time": 14.988636363636363,
                "end_time": 15.109090909090908,
                "pitch": 93,
                "velocity": 64,
                "duration": 0.12045454545454426,
                "tempo": 120.0
            },
            {
                "start_time": 14.868181818181817,
                "end_time": 15.109090909090908,
                "pitch": 102,
                "velocity": 64,
                "duration": 0.2409090909090903,
                "tempo": 120.0
            },
            {
                "start_time": 15.109090909090908,
                "end_time": 15.227272727272727,
                "pitch": 88,
                "velocity": 64,
                "duration": 0.11818181818181905,
                "tempo": 120.0
            },
            {
                "start_time": 14.988636363636363,
                "end_time": 15.345454545454544,
                "pitch": 56,
                "velocity": 64,
                "duration": 0.3568181818181806,
                "tempo": 120.0
            },
            {
                "start_time": 15.227272727272727,
                "end_time": 15.345454545454544,
                "pitch": 86,
                "velocity": 64,
                "duration": 0.11818181818181728,
                "tempo": 120.0
            },
            {
                "start_time": 15.345454545454544,
                "end_time": 15.463636363636363,
                "pitch": 81,
                "velocity": 64,
                "duration": 0.11818181818181905,
                "tempo": 120.0
            },
            {
                "start_time": 15.463636363636363,
                "end_time": 16.420454545454543,
                "pitch": 84,
                "velocity": 64,
                "duration": 0.9568181818181802,
                "tempo": 120.0
            },
            {
                "start_time": 16.420454545454543,
                "end_time": 17.46590909090909,
                "pitch": 85,
                "velocity": 64,
                "duration": 1.0454545454545467,
                "tempo": 120.0
            },
            {
                "start_time": 17.46590909090909,
                "end_time": 18.459090909090907,
                "pitch": 87,
                "velocity": 64,
                "duration": 0.9931818181818173,
                "tempo": 120.0
            },
            {
                "start_time": 18.459090909090907,
                "end_time": 18.518181818181816,
                "pitch": 84,
                "velocity": 64,
                "duration": 0.05909090909090864,
                "tempo": 120.0
            },
            {
                "start_time": 18.459090909090907,
                "end_time": 18.518181818181816,
                "pitch": 84,
                "velocity": 64,
                "duration": 0.05909090909090864,
                "tempo": 120.0
            },
            {
                "start_time": 18.579545454545453,
                "end_time": 18.638636363636362,
                "pitch": 86,
                "velocity": 64,
                "duration": 0.05909090909090864,
                "tempo": 120.0
            },
            {
                "start_time": 18.7,
                "end_time": 18.761363636363637,
                "pitch": 84,
                "velocity": 64,
                "duration": 0.0613636363636374,
                "tempo": 120.0
            },
            {
                "start_time": 18.820454545454545,
                "end_time": 18.94090909090909,
                "pitch": 87,
                "velocity": 64,
                "duration": 0.12045454545454604,
                "tempo": 120.0
            },
            {
                "start_time": 18.94090909090909,
                "end_time": 19.020454545454545,
                "pitch": 86,
                "velocity": 64,
                "duration": 0.07954545454545325,
                "tempo": 120.0
            },
            {
                "start_time": 19.020454545454545,
                "end_time": 19.061363636363634,
                "pitch": 86,
                "velocity": 64,
                "duration": 0.04090909090908923,
                "tempo": 120.0
            },
            {
                "start_time": 19.061363636363634,
                "end_time": 19.12272727272727,
                "pitch": 84,
                "velocity": 64,
                "duration": 0.0613636363636374,
                "tempo": 120.0
            },
            {
                "start_time": 19.18181818181818,
                "end_time": 19.302272727272726,
                "pitch": 83,
                "velocity": 64,
                "duration": 0.12045454545454604,
                "tempo": 120.0
            },
            {
                "start_time": 15.463636363636363,
                "end_time": 19.302272727272726,
                "pitch": 88,
                "velocity": 64,
                "duration": 3.838636363636363,
                "tempo": 120.0
            },
            {
                "start_time": 19.302272727272726,
                "end_time": 20.268181818181816,
                "pitch": 84,
                "velocity": 64,
                "duration": 0.9659090909090899,
                "tempo": 120.0
            },
            {
                "start_time": 20.268181818181816,
                "end_time": 21.002272727272725,
                "pitch": 85,
                "velocity": 64,
                "duration": 0.7340909090909093,
                "tempo": 120.0
            },
            {
                "start_time": 21.002272727272725,
                "end_time": 21.220454545454544,
                "pitch": 86,
                "velocity": 64,
                "duration": 0.2181818181818187,
                "tempo": 120.0
            },
            {
                "start_time": 21.220454545454544,
                "end_time": 23.14090909090909,
                "pitch": 81,
                "velocity": 64,
                "duration": 1.9204545454545467,
                "tempo": 120.0
            },
            {
                "start_time": 23.14090909090909,
                "end_time": 23.143181818181816,
                "pitch": 83,
                "velocity": 64,
                "duration": 0.0022727272727252057,
                "tempo": 120.0
            },
            {
                "start_time": 23.143181818181816,
                "end_time": 23.504545454545454,
                "pitch": 71,
                "velocity": 64,
                "duration": 0.3613636363636381,
                "tempo": 120.0
            },
            {
                "start_time": 23.504545454545454,
                "end_time": 23.745454545454546,
                "pitch": 74,
                "velocity": 64,
                "duration": 0.24090909090909207,
                "tempo": 120.0
            },
            {
                "start_time": 23.745454545454546,
                "end_time": 23.863636363636363,
                "pitch": 76,
                "velocity": 64,
                "duration": 0.11818181818181728,
                "tempo": 120.0
            },
            {
                "start_time": 23.863636363636363,
                "end_time": 23.979545454545452,
                "pitch": 74,
                "velocity": 64,
                "duration": 0.11590909090908852,
                "tempo": 120.0
            },
            {
                "start_time": 23.979545454545452,
                "end_time": 24.818181818181817,
                "pitch": 77,
                "velocity": 64,
                "duration": 0.8386363636363647,
                "tempo": 120.0
            },
            {
                "start_time": 23.979545454545452,
                "end_time": 24.818181818181817,
                "pitch": 77,
                "velocity": 64,
                "duration": 0.8386363636363647,
                "tempo": 120.0
            },
            {
                "start_time": 24.818181818181817,
                "end_time": 24.938636363636363,
                "pitch": 71,
                "velocity": 64,
                "duration": 0.12045454545454604,
                "tempo": 120.0
            },
            {
                "start_time": 24.938636363636363,
                "end_time": 25.302272727272726,
                "pitch": 83,
                "velocity": 64,
                "duration": 0.3636363636363633,
                "tempo": 120.0
            },
            {
                "start_time": 25.302272727272726,
                "end_time": 25.543181818181818,
                "pitch": 78,
                "velocity": 64,
                "duration": 0.24090909090909207,
                "tempo": 120.0
            },
            {
                "start_time": 25.543181818181818,
                "end_time": 25.663636363636364,
                "pitch": 76,
                "velocity": 64,
                "duration": 0.12045454545454604,
                "tempo": 120.0
            },
            {
                "start_time": 25.663636363636364,
                "end_time": 25.784090909090907,
                "pitch": 74,
                "velocity": 64,
                "duration": 0.12045454545454248,
                "tempo": 120.0
            },
            {
                "start_time": 25.784090909090907,
                "end_time": 25.84318181818182,
                "pitch": 76,
                "velocity": 64,
                "duration": 0.05909090909091219,
                "tempo": 120.0
            },
            {
                "start_time": 25.904545454545453,
                "end_time": 26.025,
                "pitch": 77,
                "velocity": 64,
                "duration": 0.12045454545454604,
                "tempo": 120.0
            },
            {
                "start_time": 26.145454545454545,
                "end_time": 26.26590909090909,
                "pitch": 78,
                "velocity": 64,
                "duration": 0.12045454545454604,
                "tempo": 120.0
            },
            {
                "start_time": 26.386363636363637,
                "end_time": 26.50681818181818,
                "pitch": 76,
                "velocity": 64,
                "duration": 0.12045454545454248,
                "tempo": 120.0
            },
            {
                "start_time": 26.627272727272725,
                "end_time": 26.74772727272727,
                "pitch": 74,
                "velocity": 64,
                "duration": 0.12045454545454604,
                "tempo": 120.0
            },
            {
                "start_time": 26.868181818181817,
                "end_time": 29.988636363636363,
                "pitch": 75,
                "velocity": 64,
                "duration": 3.120454545454546,
                "tempo": 120.0
            },
            {
                "start_time": 29.988636363636363,
                "end_time": 30.10681818181818,
                "pitch": 74,
                "velocity": 64,
                "duration": 0.11818181818181728,
                "tempo": 120.0
            },
            {
                "start_time": 30.10681818181818,
                "end_time": 30.222727272727273,
                "pitch": 76,
                "velocity": 64,
                "duration": 0.11590909090909207,
                "tempo": 120.0
            },
            {
                "start_time": 30.222727272727273,
                "end_time": 30.579545454545453,
                "pitch": 77,
                "velocity": 64,
                "duration": 0.3568181818181806,
                "tempo": 120.0
            },
            {
                "start_time": 30.579545454545453,
                "end_time": 30.7,
                "pitch": 76,
                "velocity": 64,
                "duration": 0.12045454545454604,
                "tempo": 120.0
            },
            {
                "start_time": 30.7,
                "end_time": 31.18181818181818,
                "pitch": 83,
                "velocity": 64,
                "duration": 0.4818181818181806,
                "tempo": 120.0
            },
            {
                "start_time": 31.18181818181818,
                "end_time": 31.66363636363636,
                "pitch": 78,
                "velocity": 64,
                "duration": 0.4818181818181806,
                "tempo": 120.0
            },
            {
                "start_time": 31.66363636363636,
                "end_time": 32.625,
                "pitch": 86,
                "velocity": 64,
                "duration": 0.9613636363636395,
                "tempo": 120.0
            },
            {
                "start_time": 19.302272727272726,
                "end_time": 32.68636363636364,
                "pitch": 88,
                "velocity": 64,
                "duration": 13.384090909090911,
                "tempo": 120.0
            },
            {
                "start_time": 32.625,
                "end_time": 32.68636363636364,
                "pitch": 88,
                "velocity": 64,
                "duration": 0.0613636363636374,
                "tempo": 120.0
            },
            {
                "start_time": 15.345454545454544,
                "end_time": 32.98863636363636,
                "pitch": 56,
                "velocity": 64,
                "duration": 17.643181818181816,
                "tempo": 120.0
            },
            {
                "start_time": 32.74545454545454,
                "end_time": 32.98863636363636,
                "pitch": 89,
                "velocity": 64,
                "duration": 0.24318181818181728,
                "tempo": 120.0
            },
            {
                "start_time": 32.98863636363636,
                "end_time": 33.10681818181818,
                "pitch": 93,
                "velocity": 64,
                "duration": 0.11818181818181728,
                "tempo": 120.0
            },
            {
                "start_time": 15.109090909090908,
                "end_time": 33.10681818181818,
                "pitch": 102,
                "velocity": 64,
                "duration": 17.997727272727268,
                "tempo": 120.0
            },
            {
                "start_time": 33.10681818181818,
                "end_time": 33.70909090909091,
                "pitch": 89,
                "velocity": 64,
                "duration": 0.6022727272727337,
                "tempo": 120.0
            },
            {
                "start_time": 33.70909090909091,
                "end_time": 33.82727272727273,
                "pitch": 95,
                "velocity": 64,
                "duration": 0.11818181818181728,
                "tempo": 120.0
            },
            {
                "start_time": 6.1090909090909085,
                "end_time": 33.945454545454545,
                "pitch": 90,
                "velocity": 64,
                "duration": 27.836363636363636,
                "tempo": 120.0
            },
            {
                "start_time": 33.82727272727273,
                "end_time": 33.945454545454545,
                "pitch": 90,
                "velocity": 64,
                "duration": 0.11818181818181728,
                "tempo": 120.0
            },
            {
                "start_time": 33.945454545454545,
                "end_time": 34.06363636363636,
                "pitch": 95,
                "velocity": 64,
                "duration": 0.11818181818181728,
                "tempo": 120.0
            },
            {
                "start_time": 33.82727272727273,
                "end_time": 34.06363636363636,
                "pitch": 103,
                "velocity": 64,
                "duration": 0.23636363636363455,
                "tempo": 120.0
            },
            {
                "start_time": 34.06363636363636,
                "end_time": 34.18181818181818,
                "pitch": 90,
                "velocity": 64,
                "duration": 0.11818181818181728,
                "tempo": 120.0
            },
            {
                "start_time": 34.18181818181818,
                "end_time": 34.29772727272727,
                "pitch": 95,
                "velocity": 64,
                "duration": 0.11590909090909207,
                "tempo": 120.0
            },
            {
                "start_time": 34.06363636363636,
                "end_time": 34.29772727272727,
                "pitch": 103,
                "velocity": 64,
                "duration": 0.23409090909090935,
                "tempo": 120.0
            },
            {
                "start_time": 34.29772727272727,
                "end_time": 34.418181818181814,
                "pitch": 90,
                "velocity": 64,
                "duration": 0.12045454545454248,
                "tempo": 120.0
            },
            {
                "start_time": 33.70909090909091,
                "end_time": 34.538636363636364,
                "pitch": 69,
                "velocity": 64,
                "duration": 0.8295454545454533,
                "tempo": 120.0
            },
            {
                "start_time": 34.418181818181814,
                "end_time": 34.538636363636364,
                "pitch": 88,
                "velocity": 64,
                "duration": 0.12045454545454959,
                "tempo": 120.0
            },
            {
                "start_time": 34.538636363636364,
                "end_time": 34.65909090909091,
                "pitch": 83,
                "velocity": 64,
                "duration": 0.12045454545454248,
                "tempo": 120.0
            },
            {
                "start_time": 34.65909090909091,
                "end_time": 35.61818181818182,
                "pitch": 86,
                "velocity": 64,
                "duration": 0.9590909090909108,
                "tempo": 120.0
            },
            {
                "start_time": 35.61818181818182,
                "end_time": 36.65681818181818,
                "pitch": 87,
                "velocity": 64,
                "duration": 1.038636363636364,
                "tempo": 120.0
            },
            {
                "start_time": 36.65681818181818,
                "end_time": 37.652272727272724,
                "pitch": 89,
                "velocity": 64,
                "duration": 0.9954545454545425,
                "tempo": 120.0
            },
            {
                "start_time": 37.652272727272724,
                "end_time": 37.711363636363636,
                "pitch": 86,
                "velocity": 64,
                "duration": 0.05909090909091219,
                "tempo": 120.0
            },
            {
                "start_time": 37.652272727272724,
                "end_time": 37.711363636363636,
                "pitch": 86,
                "velocity": 64,
                "duration": 0.05909090909091219,
                "tempo": 120.0
            },
            {
                "start_time": 37.77045454545454,
                "end_time": 37.83181818181818,
                "pitch": 88,
                "velocity": 64,
                "duration": 0.0613636363636374,
                "tempo": 120.0
            },
            {
                "start_time": 37.89090909090909,
                "end_time": 37.949999999999996,
                "pitch": 86,
                "velocity": 64,
                "duration": 0.059090909090905086,
                "tempo": 120.0
            },
            {
                "start_time": 38.01136363636363,
                "end_time": 38.12954545454545,
                "pitch": 89,
                "velocity": 64,
                "duration": 0.11818181818181728,
                "tempo": 120.0
            },
            {
                "start_time": 38.12954545454545,
                "end_time": 38.20909090909091,
                "pitch": 88,
                "velocity": 64,
                "duration": 0.07954545454546036,
                "tempo": 120.0
            },
            {
                "start_time": 38.20909090909091,
                "end_time": 38.25,
                "pitch": 88,
                "velocity": 64,
                "duration": 0.04090909090908923,
                "tempo": 120.0
            },
            {
                "start_time": 38.25,
                "end_time": 38.31136363636364,
                "pitch": 86,
                "velocity": 64,
                "duration": 0.0613636363636374,
                "tempo": 120.0
            },
            {
                "start_time": 38.20909090909091,
                "end_time": 38.49090909090909,
                "pitch": 85,
                "velocity": 64,
                "duration": 0.2818181818181813,
                "tempo": 120.0
            },
            {
                "start_time": 38.37045454545454,
                "end_time": 38.49090909090909,
                "pitch": 85,
                "velocity": 64,
                "duration": 0.12045454545454959,
                "tempo": 120.0
            },
            {
                "start_time": 38.49090909090909,
                "end_time": 39.45227272727273,
                "pitch": 86,
                "velocity": 64,
                "duration": 0.961363636363636,
                "tempo": 120.0
            },
            {
                "start_time": 39.45227272727273,
                "end_time": 40.18181818181818,
                "pitch": 87,
                "velocity": 64,
                "duration": 0.7295454545454518,
                "tempo": 120.0
            },
            {
                "start_time": 40.18181818181818,
                "end_time": 40.402272727272724,
                "pitch": 88,
                "velocity": 64,
                "duration": 0.2204545454545439,
                "tempo": 120.0
            },
            {
                "start_time": 40.402272727272724,
                "end_time": 42.20454545454545,
                "pitch": 83,
                "velocity": 64,
                "duration": 1.8022727272727295,
                "tempo": 120.0
            },
            {
                "start_time": 49.97727272727273,
                "end_time": 50.336363636363636,
                "pitch": 70,
                "velocity": 64,
                "duration": 0.35909090909090935,
                "tempo": 120.0
            },
            {
                "start_time": 50.336363636363636,
                "end_time": 50.57727272727273,
                "pitch": 73,
                "velocity": 64,
                "duration": 0.24090909090909207,
                "tempo": 120.0
            },
            {
                "start_time": 50.57727272727273,
                "end_time": 50.69772727272727,
                "pitch": 75,
                "velocity": 64,
                "duration": 0.12045454545454248,
                "tempo": 120.0
            },
            {
                "start_time": 50.69772727272727,
                "end_time": 50.81590909090909,
                "pitch": 73,
                "velocity": 64,
                "duration": 0.11818181818181728,
                "tempo": 120.0
            },
            {
                "start_time": 50.336363636363636,
                "end_time": 50.81590909090909,
                "pitch": 76,
                "velocity": 64,
                "duration": 0.47954545454545183,
                "tempo": 120.0
            },
            {
                "start_time": 50.81590909090909,
                "end_time": 51.65681818181818,
                "pitch": 76,
                "velocity": 64,
                "duration": 0.8409090909090935,
                "tempo": 120.0
            },
            {
                "start_time": 50.81590909090909,
                "end_time": 51.65681818181818,
                "pitch": 76,
                "velocity": 64,
                "duration": 0.8409090909090935,
                "tempo": 120.0
            },
            {
                "start_time": 51.65681818181818,
                "end_time": 51.777272727272724,
                "pitch": 70,
                "velocity": 64,
                "duration": 0.12045454545454248,
                "tempo": 120.0
            },
            {
                "start_time": 51.777272727272724,
                "end_time": 52.13636363636363,
                "pitch": 82,
                "velocity": 64,
                "duration": 0.35909090909090935,
                "tempo": 120.0
            },
            {
                "start_time": 52.13636363636363,
                "end_time": 52.375,
                "pitch": 77,
                "velocity": 64,
                "duration": 0.23863636363636687,
                "tempo": 120.0
            },
            {
                "start_time": 52.375,
                "end_time": 52.49545454545454,
                "pitch": 75,
                "velocity": 64,
                "duration": 0.12045454545454248,
                "tempo": 120.0
            },
            {
                "start_time": 52.49545454545454,
                "end_time": 52.61363636363636,
                "pitch": 73,
                "velocity": 64,
                "duration": 0.11818181818181728,
                "tempo": 120.0
            },
            {
                "start_time": 52.61363636363636,
                "end_time": 52.67272727272727,
                "pitch": 75,
                "velocity": 64,
                "duration": 0.05909090909091219,
                "tempo": 120.0
            },
            {
                "start_time": 52.73181818181818,
                "end_time": 52.84772727272727,
                "pitch": 76,
                "velocity": 64,
                "duration": 0.11590909090909207,
                "tempo": 120.0
            },
            {
                "start_time": 52.965909090909086,
                "end_time": 53.086363636363636,
                "pitch": 77,
                "velocity": 64,
                "duration": 0.12045454545454959,
                "tempo": 120.0
            },
            {
                "start_time": 53.20454545454545,
                "end_time": 53.324999999999996,
                "pitch": 75,
                "velocity": 64,
                "duration": 0.12045454545454248,
                "tempo": 120.0
            },
            {
                "start_time": 53.44318181818181,
                "end_time": 53.56363636363636,
                "pitch": 73,
                "velocity": 64,
                "duration": 0.12045454545454959,
                "tempo": 120.0
            },
            {
                "start_time": 31.66363636363636,
                "end_time": 56.79772727272727,
                "pitch": 74,
                "velocity": 64,
                "duration": 25.13409090909091,
                "tempo": 120.0
            },
            {
                "start_time": 53.684090909090905,
                "end_time": 56.79772727272727,
                "pitch": 74,
                "velocity": 64,
                "duration": 3.113636363636367,
                "tempo": 120.0
            },
            {
                "start_time": 56.79772727272727,
                "end_time": 56.91590909090909,
                "pitch": 73,
                "velocity": 64,
                "duration": 0.11818181818181728,
                "tempo": 120.0
            },
            {
                "start_time": 56.91590909090909,
                "end_time": 57.03636363636363,
                "pitch": 75,
                "velocity": 64,
                "duration": 0.12045454545454248,
                "tempo": 120.0
            },
            {
                "start_time": 57.03636363636363,
                "end_time": 57.39545454545454,
                "pitch": 76,
                "velocity": 64,
                "duration": 0.35909090909090935,
                "tempo": 120.0
            },
            {
                "start_time": 57.39545454545454,
                "end_time": 57.51590909090909,
                "pitch": 75,
                "velocity": 64,
                "duration": 0.12045454545454959,
                "tempo": 120.0
            },
            {
                "start_time": 57.51590909090909,
                "end_time": 57.99772727272727,
                "pitch": 82,
                "velocity": 64,
                "duration": 0.48181818181817704,
                "tempo": 120.0
            },
            {
                "start_time": 57.99772727272727,
                "end_time": 58.47727272727273,
                "pitch": 77,
                "velocity": 64,
                "duration": 0.47954545454545894,
                "tempo": 120.0
            },
            {
                "start_time": 58.47727272727273,
                "end_time": 59.429545454545455,
                "pitch": 85,
                "velocity": 64,
                "duration": 0.952272727272728,
                "tempo": 120.0
            },
            {
                "start_time": 59.429545454545455,
                "end_time": 59.48863636363636,
                "pitch": 87,
                "velocity": 64,
                "duration": 0.059090909090905086,
                "tempo": 120.0
            },
            {
                "start_time": 59.54772727272727,
                "end_time": 59.788636363636364,
                "pitch": 88,
                "velocity": 64,
                "duration": 0.24090909090909207,
                "tempo": 120.0
            },
            {
                "start_time": 59.788636363636364,
                "end_time": 59.90909090909091,
                "pitch": 92,
                "velocity": 64,
                "duration": 0.12045454545454248,
                "tempo": 120.0
            },
            {
                "start_time": 33.10681818181818,
                "end_time": 59.90909090909091,
                "pitch": 102,
                "velocity": 64,
                "duration": 26.80227272727273,
                "tempo": 120.0
            },
            {
                "start_time": 59.90909090909091,
                "end_time": 60.50909090909091,
                "pitch": 88,
                "velocity": 64,
                "duration": 0.6000000000000014,
                "tempo": 120.0
            },
            {
                "start_time": 60.50909090909091,
                "end_time": 60.62954545454545,
                "pitch": 94,
                "velocity": 64,
                "duration": 0.12045454545454248,
                "tempo": 120.0
            },
            {
                "start_time": 59.90909090909091,
                "end_time": 60.62954545454545,
                "pitch": 102,
                "velocity": 64,
                "duration": 0.7204545454545439,
                "tempo": 120.0
            },
            {
                "start_time": 60.50909090909091,
                "end_time": 60.75,
                "pitch": 64,
                "velocity": 64,
                "duration": 0.24090909090909207,
                "tempo": 120.0
            },
            {
                "start_time": 60.62954545454545,
                "end_time": 60.75,
                "pitch": 89,
                "velocity": 64,
                "duration": 0.12045454545454959,
                "tempo": 120.0
            },
            {
                "start_time": 60.75,
                "end_time": 60.87045454545454,
                "pitch": 94,
                "velocity": 64,
                "duration": 0.12045454545454248,
                "tempo": 120.0
            },
            {
                "start_time": 60.62954545454545,
                "end_time": 60.87045454545454,
                "pitch": 102,
                "velocity": 64,
                "duration": 0.24090909090909207,
                "tempo": 120.0
            },
            {
                "start_time": 60.75,
                "end_time": 60.990909090909085,
                "pitch": 64,
                "velocity": 64,
                "duration": 0.24090909090908497,
                "tempo": 120.0
            },
            {
                "start_time": 60.87045454545454,
                "end_time": 60.990909090909085,
                "pitch": 89,
                "velocity": 64,
                "duration": 0.12045454545454248,
                "tempo": 120.0
            },
            {
                "start_time": 60.990909090909085,
                "end_time": 61.111363636363635,
                "pitch": 94,
                "velocity": 64,
                "duration": 0.12045454545454959,
                "tempo": 120.0
            },
            {
                "start_time": 60.87045454545454,
                "end_time": 61.111363636363635,
                "pitch": 102,
                "velocity": 64,
                "duration": 0.24090909090909207,
                "tempo": 120.0
            },
            {
                "start_time": 61.111363636363635,
                "end_time": 61.23181818181818,
                "pitch": 89,
                "velocity": 64,
                "duration": 0.12045454545454248,
                "tempo": 120.0
            },
            {
                "start_time": 60.990909090909085,
                "end_time": 61.349999999999994,
                "pitch": 64,
                "velocity": 64,
                "duration": 0.35909090909090935,
                "tempo": 120.0
            },
            {
                "start_time": 61.23181818181818,
                "end_time": 61.349999999999994,
                "pitch": 87,
                "velocity": 64,
                "duration": 0.11818181818181728,
                "tempo": 120.0
            },
            {
                "start_time": 61.349999999999994,
                "end_time": 61.470454545454544,
                "pitch": 82,
                "velocity": 64,
                "duration": 0.12045454545454959,
                "tempo": 120.0
            },
            {
                "start_time": 61.470454545454544,
                "end_time": 62.42272727272727,
                "pitch": 85,
                "velocity": 64,
                "duration": 0.952272727272728,
                "tempo": 120.0
            },
            {
                "start_time": 62.42272727272727,
                "end_time": 63.459090909090904,
                "pitch": 86,
                "velocity": 64,
                "duration": 1.0363636363636317,
                "tempo": 120.0
            },
            {
                "start_time": 63.459090909090904,
                "end_time": 64.46136363636363,
                "pitch": 88,
                "velocity": 64,
                "duration": 1.0022727272727252,
                "tempo": 120.0
            },
            {
                "start_time": 64.46136363636363,
                "end_time": 64.52045454545454,
                "pitch": 85,
                "velocity": 64,
                "duration": 0.05909090909091219,
                "tempo": 120.0
            },
            {
                "start_time": 64.46136363636363,
                "end_time": 64.52045454545454,
                "pitch": 85,
                "velocity": 64,
                "duration": 0.05909090909091219,
                "tempo": 120.0
            },
            {
                "start_time": 64.58181818181818,
                "end_time": 64.64090909090909,
                "pitch": 87,
                "velocity": 64,
                "duration": 0.05909090909091219,
                "tempo": 120.0
            },
            {
                "start_time": 64.70227272727273,
                "end_time": 64.76136363636364,
                "pitch": 85,
                "velocity": 64,
                "duration": 0.05909090909091219,
                "tempo": 120.0
            },
            {
                "start_time": 64.82272727272726,
                "end_time": 64.94318181818181,
                "pitch": 88,
                "velocity": 64,
                "duration": 0.12045454545454959,
                "tempo": 120.0
            },
            {
                "start_time": 64.94318181818181,
                "end_time": 65.02045454545454,
                "pitch": 87,
                "velocity": 64,
                "duration": 0.07727272727272805,
                "tempo": 120.0
            },
            {
                "start_time": 65.02045454545454,
                "end_time": 65.06136363636364,
                "pitch": 87,
                "velocity": 64,
                "duration": 0.040909090909096335,
                "tempo": 120.0
            },
            {
                "start_time": 65.06136363636364,
                "end_time": 65.11818181818181,
                "pitch": 85,
                "velocity": 64,
                "duration": 0.056818181818172775,
                "tempo": 120.0
            },
            {
                "start_time": 65.17727272727272,
                "end_time": 65.29545454545455,
                "pitch": 84,
                "velocity": 64,
                "duration": 0.11818181818182438,
                "tempo": 120.0
            },
            {
                "start_time": 65.29545454545455,
                "end_time": 66.25454545454545,
                "pitch": 85,
                "velocity": 64,
                "duration": 0.9590909090909037,
                "tempo": 120.0
            },
            {
                "start_time": 66.25454545454545,
                "end_time": 66.99545454545454,
                "pitch": 86,
                "velocity": 64,
                "duration": 0.740909090909085,
                "tempo": 120.0
            },
            {
                "start_time": 66.99545454545454,
                "end_time": 67.21818181818182,
                "pitch": 87,
                "velocity": 64,
                "duration": 0.22272727272728332,
                "tempo": 120.0
            },
            {
                "start_time": 65.02045454545454,
                "end_time": 69.13181818181818,
                "pitch": 82,
                "velocity": 64,
                "duration": 4.1113636363636346,
                "tempo": 120.0
            },
            {
                "start_time": 67.21818181818182,
                "end_time": 69.13181818181818,
                "pitch": 82,
                "velocity": 64,
                "duration": 1.913636363636357,
                "tempo": 120.0
            }
        ],
        "Church Organ": [
            {
                "start_time": 3.8386363636363634,
                "end_time": 6.829545454545454,
                "pitch": 64,
                "velocity": 101,
                "duration": 2.9909090909090907,
                "tempo": 120.0
            },
            {
                "start_time": 6.829545454545454,
                "end_time": 6.949999999999999,
                "pitch": 64,
                "velocity": 101,
                "duration": 0.12045454545454515,
                "tempo": 120.0
            },
            {
                "start_time": 7.070454545454545,
                "end_time": 7.1909090909090905,
                "pitch": 60,
                "velocity": 101,
                "duration": 0.12045454545454515,
                "tempo": 120.0
            },
            {
                "start_time": 7.311363636363636,
                "end_time": 7.431818181818182,
                "pitch": 57,
                "velocity": 101,
                "duration": 0.12045454545454604,
                "tempo": 120.0
            },
            {
                "start_time": 7.552272727272727,
                "end_time": 10.909090909090908,
                "pitch": 69,
                "velocity": 101,
                "duration": 3.3568181818181815,
                "tempo": 120.0
            },
            {
                "start_time": 10.909090909090908,
                "end_time": 11.029545454545454,
                "pitch": 69,
                "velocity": 101,
                "duration": 0.12045454545454604,
                "tempo": 120.0
            },
            {
                "start_time": 11.149999999999999,
                "end_time": 11.270454545454545,
                "pitch": 69,
                "velocity": 101,
                "duration": 0.12045454545454604,
                "tempo": 120.0
            },
            {
                "start_time": 11.388636363636364,
                "end_time": 15.345454545454544,
                "pitch": 72,
                "velocity": 101,
                "duration": 3.9568181818181802,
                "tempo": 120.0
            },
            {
                "start_time": 15.345454545454544,
                "end_time": 16.3,
                "pitch": 76,
                "velocity": 101,
                "duration": 0.9545454545454568,
                "tempo": 120.0
            },
            {
                "start_time": 15.345454545454544,
                "end_time": 16.3,
                "pitch": 76,
                "velocity": 101,
                "duration": 0.9545454545454568,
                "tempo": 120.0
            },
            {
                "start_time": 16.3,
                "end_time": 17.26590909090909,
                "pitch": 78,
                "velocity": 101,
                "duration": 0.9659090909090899,
                "tempo": 120.0
            },
            {
                "start_time": 16.3,
                "end_time": 17.26590909090909,
                "pitch": 78,
                "velocity": 101,
                "duration": 0.9659090909090899,
                "tempo": 120.0
            },
            {
                "start_time": 17.26590909090909,
                "end_time": 19.18181818181818,
                "pitch": 76,
                "velocity": 101,
                "duration": 1.9159090909090892,
                "tempo": 120.0
            },
            {
                "start_time": 17.26590909090909,
                "end_time": 19.18181818181818,
                "pitch": 76,
                "velocity": 101,
                "duration": 1.9159090909090892,
                "tempo": 120.0
            },
            {
                "start_time": 19.18181818181818,
                "end_time": 20.147727272727273,
                "pitch": 76,
                "velocity": 101,
                "duration": 0.9659090909090935,
                "tempo": 120.0
            },
            {
                "start_time": 20.147727272727273,
                "end_time": 21.102272727272727,
                "pitch": 78,
                "velocity": 101,
                "duration": 0.9545454545454533,
                "tempo": 120.0
            },
            {
                "start_time": 20.147727272727273,
                "end_time": 21.102272727272727,
                "pitch": 78,
                "velocity": 101,
                "duration": 0.9545454545454533,
                "tempo": 120.0
            },
            {
                "start_time": 21.102272727272727,
                "end_time": 23.022727272727273,
                "pitch": 72,
                "velocity": 101,
                "duration": 1.9204545454545467,
                "tempo": 120.0
            },
            {
                "start_time": 21.102272727272727,
                "end_time": 23.022727272727273,
                "pitch": 72,
                "velocity": 101,
                "duration": 1.9204545454545467,
                "tempo": 120.0
            },
            {
                "start_time": 23.022727272727273,
                "end_time": 26.025,
                "pitch": 66,
                "velocity": 101,
                "duration": 3.002272727272725,
                "tempo": 120.0
            },
            {
                "start_time": 26.025,
                "end_time": 26.145454545454545,
                "pitch": 66,
                "velocity": 101,
                "duration": 0.12045454545454604,
                "tempo": 120.0
            },
            {
                "start_time": 26.26590909090909,
                "end_time": 26.386363636363637,
                "pitch": 62,
                "velocity": 101,
                "duration": 0.12045454545454604,
                "tempo": 120.0
            },
            {
                "start_time": 26.50681818181818,
                "end_time": 26.627272727272725,
                "pitch": 59,
                "velocity": 101,
                "duration": 0.12045454545454604,
                "tempo": 120.0
            },
            {
                "start_time": 26.74772727272727,
                "end_time": 30.10681818181818,
                "pitch": 71,
                "velocity": 101,
                "duration": 3.3590909090909093,
                "tempo": 120.0
            },
            {
                "start_time": 30.10681818181818,
                "end_time": 30.222727272727273,
                "pitch": 71,
                "velocity": 101,
                "duration": 0.11590909090909207,
                "tempo": 120.0
            },
            {
                "start_time": 30.34090909090909,
                "end_time": 30.459090909090907,
                "pitch": 71,
                "velocity": 101,
                "duration": 0.11818181818181728,
                "tempo": 120.0
            },
            {
                "start_time": 30.579545454545453,
                "end_time": 34.538636363636364,
                "pitch": 74,
                "velocity": 101,
                "duration": 3.9590909090909108,
                "tempo": 120.0
            },
            {
                "start_time": 34.538636363636364,
                "end_time": 35.49772727272727,
                "pitch": 78,
                "velocity": 101,
                "duration": 0.9590909090909037,
                "tempo": 120.0
            },
            {
                "start_time": 34.538636363636364,
                "end_time": 35.49772727272727,
                "pitch": 78,
                "velocity": 101,
                "duration": 0.9590909090909037,
                "tempo": 120.0
            },
            {
                "start_time": 35.49772727272727,
                "end_time": 36.45909090909091,
                "pitch": 80,
                "velocity": 101,
                "duration": 0.9613636363636431,
                "tempo": 120.0
            },
            {
                "start_time": 36.45909090909091,
                "end_time": 38.37045454545454,
                "pitch": 78,
                "velocity": 101,
                "duration": 1.9113636363636317,
                "tempo": 120.0
            },
            {
                "start_time": 38.37045454545454,
                "end_time": 39.33181818181818,
                "pitch": 78,
                "velocity": 101,
                "duration": 0.961363636363636,
                "tempo": 120.0
            },
            {
                "start_time": 39.33181818181818,
                "end_time": 40.28409090909091,
                "pitch": 80,
                "velocity": 101,
                "duration": 0.952272727272728,
                "tempo": 120.0
            },
            {
                "start_time": 40.28409090909091,
                "end_time": 42.20454545454545,
                "pitch": 74,
                "velocity": 101,
                "duration": 1.9204545454545467,
                "tempo": 120.0
            },
            {
                "start_time": 42.20454545454545,
                "end_time": 42.68181818181818,
                "pitch": 66,
                "velocity": 101,
                "duration": 0.4772727272727266,
                "tempo": 120.0
            },
            {
                "start_time": 42.68181818181818,
                "end_time": 43.15681818181818,
                "pitch": 66,
                "velocity": 101,
                "duration": 0.4750000000000014,
                "tempo": 120.0
            },
            {
                "start_time": 43.15681818181818,
                "end_time": 43.51363636363636,
                "pitch": 68,
                "velocity": 101,
                "duration": 0.35681818181817704,
                "tempo": 120.0
            },
            {
                "start_time": 43.51363636363636,
                "end_time": 43.79090909090909,
                "pitch": 67,
                "velocity": 101,
                "duration": 0.2772727272727309,
                "tempo": 120.0
            },
            {
                "start_time": 43.79090909090909,
                "end_time": 43.99090909090909,
                "pitch": 67,
                "velocity": 101,
                "duration": 0.20000000000000284,
                "tempo": 120.0
            },
            {
                "start_time": 43.79090909090909,
                "end_time": 43.99090909090909,
                "pitch": 79,
                "velocity": 101,
                "duration": 0.20000000000000284,
                "tempo": 120.0
            },
            {
                "start_time": 43.99090909090909,
                "end_time": 44.11363636363636,
                "pitch": 67,
                "velocity": 101,
                "duration": 0.12272727272726769,
                "tempo": 120.0
            },
            {
                "start_time": 43.99090909090909,
                "end_time": 44.11363636363636,
                "pitch": 79,
                "velocity": 101,
                "duration": 0.12272727272726769,
                "tempo": 120.0
            },
            {
                "start_time": 44.11363636363636,
                "end_time": 44.59318181818182,
                "pitch": 66,
                "velocity": 101,
                "duration": 0.47954545454545894,
                "tempo": 120.0
            },
            {
                "start_time": 44.59318181818182,
                "end_time": 45.070454545454545,
                "pitch": 66,
                "velocity": 101,
                "duration": 0.4772727272727266,
                "tempo": 120.0
            },
            {
                "start_time": 45.070454545454545,
                "end_time": 45.43181818181818,
                "pitch": 68,
                "velocity": 101,
                "duration": 0.36136363636363455,
                "tempo": 120.0
            },
            {
                "start_time": 45.43181818181818,
                "end_time": 45.711363636363636,
                "pitch": 67,
                "velocity": 101,
                "duration": 0.2795454545454561,
                "tempo": 120.0
            },
            {
                "start_time": 45.711363636363636,
                "end_time": 45.90909090909091,
                "pitch": 67,
                "velocity": 101,
                "duration": 0.19772727272727053,
                "tempo": 120.0
            },
            {
                "start_time": 45.90909090909091,
                "end_time": 46.027272727272724,
                "pitch": 67,
                "velocity": 101,
                "duration": 0.11818181818181728,
                "tempo": 120.0
            },
            {
                "start_time": 44.11363636363636,
                "end_time": 46.02954545454545,
                "pitch": 79,
                "velocity": 101,
                "duration": 1.9159090909090892,
                "tempo": 120.0
            },
            {
                "start_time": 46.027272727272724,
                "end_time": 46.02954545454545,
                "pitch": 79,
                "velocity": 101,
                "duration": 0.0022727272727252057,
                "tempo": 120.0
            },
            {
                "start_time": 46.02954545454545,
                "end_time": 46.502272727272725,
                "pitch": 66,
                "velocity": 101,
                "duration": 0.4727272727272762,
                "tempo": 120.0
            },
            {
                "start_time": 46.502272727272725,
                "end_time": 46.98409090909091,
                "pitch": 74,
                "velocity": 101,
                "duration": 0.48181818181818414,
                "tempo": 120.0
            },
            {
                "start_time": 46.98409090909091,
                "end_time": 47.34318181818182,
                "pitch": 76,
                "velocity": 101,
                "duration": 0.35909090909090935,
                "tempo": 120.0
            },
            {
                "start_time": 47.34318181818182,
                "end_time": 47.62272727272727,
                "pitch": 79,
                "velocity": 101,
                "duration": 0.279545454545449,
                "tempo": 120.0
            },
            {
                "start_time": 36.45909090909091,
                "end_time": 47.62272727272727,
                "pitch": 91,
                "velocity": 101,
                "duration": 11.163636363636357,
                "tempo": 120.0
            },
            {
                "start_time": 47.62272727272727,
                "end_time": 47.82272727272727,
                "pitch": 79,
                "velocity": 101,
                "duration": 0.20000000000000284,
                "tempo": 120.0
            },
            {
                "start_time": 47.82272727272727,
                "end_time": 47.94318181818181,
                "pitch": 79,
                "velocity": 101,
                "duration": 0.12045454545454248,
                "tempo": 120.0
            },
            {
                "start_time": 47.94318181818181,
                "end_time": 48.425,
                "pitch": 66,
                "velocity": 101,
                "duration": 0.48181818181818414,
                "tempo": 120.0
            },
            {
                "start_time": 48.425,
                "end_time": 48.90454545454545,
                "pitch": 74,
                "velocity": 101,
                "duration": 0.47954545454545183,
                "tempo": 120.0
            },
            {
                "start_time": 48.90454545454545,
                "end_time": 49.26590909090909,
                "pitch": 76,
                "velocity": 101,
                "duration": 0.36136363636364166,
                "tempo": 120.0
            },
            {
                "start_time": 49.26590909090909,
                "end_time": 49.543181818181814,
                "pitch": 79,
                "velocity": 101,
                "duration": 0.2772727272727238,
                "tempo": 120.0
            },
            {
                "start_time": 47.62272727272727,
                "end_time": 49.543181818181814,
                "pitch": 91,
                "velocity": 101,
                "duration": 1.9204545454545467,
                "tempo": 120.0
            },
            {
                "start_time": 49.543181818181814,
                "end_time": 49.740909090909085,
                "pitch": 79,
                "velocity": 101,
                "duration": 0.19772727272727053,
                "tempo": 120.0
            },
            {
                "start_time": 49.543181818181814,
                "end_time": 49.740909090909085,
                "pitch": 91,
                "velocity": 101,
                "duration": 0.19772727272727053,
                "tempo": 120.0
            },
            {
                "start_time": 49.740909090909085,
                "end_time": 49.85909090909091,
                "pitch": 79,
                "velocity": 101,
                "duration": 0.11818181818182438,
                "tempo": 120.0
            },
            {
                "start_time": 49.85909090909091,
                "end_time": 52.84772727272727,
                "pitch": 65,
                "velocity": 101,
                "duration": 2.9886363636363598,
                "tempo": 120.0
            },
            {
                "start_time": 52.84772727272727,
                "end_time": 52.965909090909086,
                "pitch": 65,
                "velocity": 101,
                "duration": 0.11818181818181728,
                "tempo": 120.0
            },
            {
                "start_time": 53.086363636363636,
                "end_time": 53.20454545454545,
                "pitch": 61,
                "velocity": 101,
                "duration": 0.11818181818181728,
                "tempo": 120.0
            },
            {
                "start_time": 53.324999999999996,
                "end_time": 53.445454545454545,
                "pitch": 58,
                "velocity": 101,
                "duration": 0.12045454545454959,
                "tempo": 120.0
            },
            {
                "start_time": 53.56363636363636,
                "end_time": 56.918181818181814,
                "pitch": 70,
                "velocity": 101,
                "duration": 3.354545454545452,
                "tempo": 120.0
            },
            {
                "start_time": 56.918181818181814,
                "end_time": 57.03636363636363,
                "pitch": 70,
                "velocity": 101,
                "duration": 0.11818181818181728,
                "tempo": 120.0
            },
            {
                "start_time": 57.15681818181818,
                "end_time": 57.277272727272724,
                "pitch": 70,
                "velocity": 101,
                "duration": 0.12045454545454248,
                "tempo": 120.0
            },
            {
                "start_time": 57.39772727272727,
                "end_time": 61.349999999999994,
                "pitch": 73,
                "velocity": 101,
                "duration": 3.952272727272721,
                "tempo": 120.0
            },
            {
                "start_time": 49.26590909090909,
                "end_time": 62.30227272727272,
                "pitch": 2,
                "velocity": 101,
                "duration": 13.036363636363632,
                "tempo": 120.0
            },
            {
                "start_time": 61.349999999999994,
                "end_time": 62.30227272727272,
                "pitch": 77,
                "velocity": 101,
                "duration": 0.952272727272728,
                "tempo": 120.0
            },
            {
                "start_time": 61.349999999999994,
                "end_time": 62.30227272727272,
                "pitch": 77,
                "velocity": 101,
                "duration": 0.952272727272728,
                "tempo": 120.0
            },
            {
                "start_time": 62.30227272727272,
                "end_time": 62.58181818181818,
                "pitch": 79,
                "velocity": 101,
                "duration": 0.2795454545454561,
                "tempo": 120.0
            },
            {
                "start_time": 49.740909090909085,
                "end_time": 62.58181818181818,
                "pitch": 91,
                "velocity": 101,
                "duration": 12.840909090909093,
                "tempo": 120.0
            },
            {
                "start_time": 62.58181818181818,
                "end_time": 62.78181818181818,
                "pitch": 79,
                "velocity": 101,
                "duration": 0.20000000000000284,
                "tempo": 120.0
            },
            {
                "start_time": 62.58181818181818,
                "end_time": 62.78181818181818,
                "pitch": 91,
                "velocity": 101,
                "duration": 0.20000000000000284,
                "tempo": 120.0
            },
            {
                "start_time": 62.78181818181818,
                "end_time": 62.98181818181818,
                "pitch": 79,
                "velocity": 101,
                "duration": 0.19999999999999574,
                "tempo": 120.0
            },
            {
                "start_time": 62.78181818181818,
                "end_time": 62.98181818181818,
                "pitch": 91,
                "velocity": 101,
                "duration": 0.19999999999999574,
                "tempo": 120.0
            },
            {
                "start_time": 62.98181818181818,
                "end_time": 63.179545454545455,
                "pitch": 79,
                "velocity": 101,
                "duration": 0.19772727272727764,
                "tempo": 120.0
            },
            {
                "start_time": 62.98181818181818,
                "end_time": 63.179545454545455,
                "pitch": 91,
                "velocity": 101,
                "duration": 0.19772727272727764,
                "tempo": 120.0
            },
            {
                "start_time": 63.179545454545455,
                "end_time": 63.26136363636363,
                "pitch": 79,
                "velocity": 101,
                "duration": 0.08181818181817846,
                "tempo": 120.0
            },
            {
                "start_time": 49.85909090909091,
                "end_time": 63.26136363636363,
                "pitch": 90,
                "velocity": 101,
                "duration": 13.402272727272724,
                "tempo": 120.0
            },
            {
                "start_time": 63.26136363636363,
                "end_time": 65.17727272727272,
                "pitch": 77,
                "velocity": 101,
                "duration": 1.9159090909090892,
                "tempo": 120.0
            },
            {
                "start_time": 65.17727272727272,
                "end_time": 66.1340909090909,
                "pitch": 77,
                "velocity": 101,
                "duration": 0.9568181818181785,
                "tempo": 120.0
            },
            {
                "start_time": 66.13636363636364,
                "end_time": 66.41363636363636,
                "pitch": 79,
                "velocity": 101,
                "duration": 0.2772727272727167,
                "tempo": 120.0
            },
            {
                "start_time": 66.41363636363636,
                "end_time": 66.61590909090908,
                "pitch": 79,
                "velocity": 101,
                "duration": 0.20227272727272805,
                "tempo": 120.0
            },
            {
                "start_time": 66.61590909090908,
                "end_time": 66.81590909090909,
                "pitch": 79,
                "velocity": 101,
                "duration": 0.20000000000000284,
                "tempo": 120.0
            },
            {
                "start_time": 66.81590909090909,
                "end_time": 67.01590909090909,
                "pitch": 79,
                "velocity": 101,
                "duration": 0.20000000000000284,
                "tempo": 120.0
            },
            {
                "start_time": 63.179545454545455,
                "end_time": 67.01590909090909,
                "pitch": 91,
                "velocity": 101,
                "duration": 3.836363636363636,
                "tempo": 120.0
            },
            {
                "start_time": 67.01590909090909,
                "end_time": 67.09772727272727,
                "pitch": 79,
                "velocity": 101,
                "duration": 0.08181818181817846,
                "tempo": 120.0
            },
            {
                "start_time": 67.09772727272727,
                "end_time": 69.01136363636363,
                "pitch": 73,
                "velocity": 101,
                "duration": 1.913636363636357,
                "tempo": 120.0
            },
            {
                "start_time": 69.01136363636363,
                "end_time": 69.13181818181818,
                "pitch": 66,
                "velocity": 101,
                "duration": 0.12045454545454959,
                "tempo": 120.0
            }
        ]
    }
}