{
    "track_id": "05 Colonel Claud (Miniboss)",
    "mood": "angry",
    "instruments": {
        "Electric Piano 1": [
            {
                "start_time": 29.320454545454545,
                "end_time": 30.331818181818182,
                "pitch": 83,
                "velocity": 101,
                "duration": 1.0113636363636367,
                "tempo": 120.0
            },
            {
                "start_time": 30.536363636363635,
                "end_time": 31.55681818181818,
                "pitch": 83,
                "velocity": 101,
                "duration": 1.0204545454545446,
                "tempo": 120.0
            },
            {
                "start_time": 31.761363636363633,
                "end_time": 31.836363636363636,
                "pitch": 75,
                "velocity": 101,
                "duration": 0.07500000000000284,
                "tempo": 120.0
            },
            {
                "start_time": 31.861363636363635,
                "end_time": 31.938636363636363,
                "pitch": 75,
                "velocity": 101,
                "duration": 0.07727272727272805,
                "tempo": 120.0
            },
            {
                "start_time": 31.96363636363636,
                "end_time": 32.04090909090909,
                "pitch": 76,
                "velocity": 101,
                "duration": 0.07727272727272805,
                "tempo": 120.0
            },
            {
                "start_time": 29.320454545454545,
                "end_time": 32.06590909090909,
                "pitch": 90,
                "velocity": 101,
                "duration": 2.7454545454545425,
                "tempo": 120.0
            },
            {
                "start_time": 32.06590909090909,
                "end_time": 35.22954545454545,
                "pitch": 80,
                "velocity": 101,
                "duration": 3.163636363636364,
                "tempo": 120.0
            },
            {
                "start_time": 35.434090909090905,
                "end_time": 36.45227272727273,
                "pitch": 73,
                "velocity": 80,
                "duration": 1.018181818181823,
                "tempo": 120.0
            },
            {
                "start_time": 36.65909090909091,
                "end_time": 38.902272727272724,
                "pitch": 78,
                "velocity": 80,
                "duration": 2.2431818181818173,
                "tempo": 120.0
            }
        ],
        "Oboe": [
            {
                "start_time": 0.029545454545454545,
                "end_time": 0.9409090909090909,
                "pitch": 39,
                "velocity": 127,
                "duration": 0.9113636363636364,
                "tempo": 120.0
            },
            {
                "start_time": 1.1454545454545455,
                "end_time": 2.165909090909091,
                "pitch": 39,
                "velocity": 127,
                "duration": 1.0204545454545455,
                "tempo": 120.0
            },
            {
                "start_time": 2.370454545454545,
                "end_time": 3.3886363636363637,
                "pitch": 39,
                "velocity": 127,
                "duration": 1.0181818181818185,
                "tempo": 120.0
            },
            {
                "start_time": 3.593181818181818,
                "end_time": 4.613636363636363,
                "pitch": 40,
                "velocity": 127,
                "duration": 1.0204545454545455,
                "tempo": 120.0
            },
            {
                "start_time": 4.818181818181818,
                "end_time": 5.838636363636363,
                "pitch": 40,
                "velocity": 127,
                "duration": 1.0204545454545446,
                "tempo": 120.0
            },
            {
                "start_time": 6.043181818181818,
                "end_time": 7.061363636363636,
                "pitch": 39,
                "velocity": 127,
                "duration": 1.0181818181818176,
                "tempo": 120.0
            },
            {
                "start_time": 7.268181818181818,
                "end_time": 8.286363636363635,
                "pitch": 39,
                "velocity": 127,
                "duration": 1.0181818181818176,
                "tempo": 120.0
            },
            {
                "start_time": 8.49090909090909,
                "end_time": 9.511363636363637,
                "pitch": 40,
                "velocity": 127,
                "duration": 1.0204545454545464,
                "tempo": 120.0
            },
            {
                "start_time": 9.71590909090909,
                "end_time": 10.736363636363636,
                "pitch": 40,
                "velocity": 127,
                "duration": 1.0204545454545464,
                "tempo": 120.0
            },
            {
                "start_time": 10.94090909090909,
                "end_time": 11.959090909090909,
                "pitch": 39,
                "velocity": 127,
                "duration": 1.0181818181818194,
                "tempo": 120.0
            },
            {
                "start_time": 12.163636363636362,
                "end_time": 13.184090909090909,
                "pitch": 39,
                "velocity": 127,
                "duration": 1.0204545454545464,
                "tempo": 120.0
            },
            {
                "start_time": 13.388636363636364,
                "end_time": 14.409090909090908,
                "pitch": 40,
                "velocity": 127,
                "duration": 1.0204545454545446,
                "tempo": 120.0
            },
            {
                "start_time": 14.613636363636363,
                "end_time": 15.631818181818181,
                "pitch": 40,
                "velocity": 127,
                "duration": 1.0181818181818176,
                "tempo": 120.0
            },
            {
                "start_time": 15.836363636363636,
                "end_time": 16.85681818181818,
                "pitch": 39,
                "velocity": 127,
                "duration": 1.0204545454545446,
                "tempo": 120.0
            },
            {
                "start_time": 17.061363636363634,
                "end_time": 18.081818181818182,
                "pitch": 39,
                "velocity": 127,
                "duration": 1.0204545454545482,
                "tempo": 120.0
            },
            {
                "start_time": 18.286363636363635,
                "end_time": 19.304545454545455,
                "pitch": 40,
                "velocity": 127,
                "duration": 1.0181818181818194,
                "tempo": 120.0
            },
            {
                "start_time": 19.511363636363637,
                "end_time": 20.529545454545453,
                "pitch": 40,
                "velocity": 127,
                "duration": 1.0181818181818159,
                "tempo": 120.0
            },
            {
                "start_time": 20.73409090909091,
                "end_time": 21.752272727272725,
                "pitch": 39,
                "velocity": 127,
                "duration": 1.0181818181818159,
                "tempo": 120.0
            },
            {
                "start_time": 21.954545454545453,
                "end_time": 22.98409090909091,
                "pitch": 39,
                "velocity": 127,
                "duration": 1.029545454545456,
                "tempo": 120.0
            },
            {
                "start_time": 23.188636363636363,
                "end_time": 24.206818181818182,
                "pitch": 40,
                "velocity": 127,
                "duration": 1.0181818181818194,
                "tempo": 120.0
            },
            {
                "start_time": 24.409090909090907,
                "end_time": 25.422727272727272,
                "pitch": 40,
                "velocity": 127,
                "duration": 1.0136363636363654,
                "tempo": 120.0
            },
            {
                "start_time": 25.63181818181818,
                "end_time": 26.652272727272727,
                "pitch": 39,
                "velocity": 127,
                "duration": 1.0204545454545482,
                "tempo": 120.0
            },
            {
                "start_time": 26.85681818181818,
                "end_time": 27.877272727272725,
                "pitch": 39,
                "velocity": 127,
                "duration": 1.0204545454545446,
                "tempo": 120.0
            },
            {
                "start_time": 28.086363636363636,
                "end_time": 29.113636363636363,
                "pitch": 40,
                "velocity": 127,
                "duration": 1.0272727272727273,
                "tempo": 120.0
            },
            {
                "start_time": 29.318181818181817,
                "end_time": 30.331818181818182,
                "pitch": 40,
                "velocity": 127,
                "duration": 1.0136363636363654,
                "tempo": 120.0
            },
            {
                "start_time": 30.536363636363635,
                "end_time": 31.554545454545455,
                "pitch": 39,
                "velocity": 127,
                "duration": 1.0181818181818194,
                "tempo": 120.0
            },
            {
                "start_time": 31.759090909090908,
                "end_time": 32.779545454545456,
                "pitch": 39,
                "velocity": 127,
                "duration": 1.0204545454545482,
                "tempo": 120.0
            },
            {
                "start_time": 32.98409090909091,
                "end_time": 34.00454545454545,
                "pitch": 40,
                "velocity": 127,
                "duration": 1.020454545454541,
                "tempo": 120.0
            }
        ],
        "Vibraphone": [
            {
                "start_time": 29.32272727272727,
                "end_time": 30.331818181818182,
                "pitch": 39,
                "velocity": 127,
                "duration": 1.0090909090909115,
                "tempo": 120.0
            },
            {
                "start_time": 30.53863636363636,
                "end_time": 31.55681818181818,
                "pitch": 39,
                "velocity": 127,
                "duration": 1.0181818181818194,
                "tempo": 120.0
            },
            {
                "start_time": 31.761363636363633,
                "end_time": 32.779545454545456,
                "pitch": 39,
                "velocity": 127,
                "duration": 1.018181818181823,
                "tempo": 120.0
            },
            {
                "start_time": 32.986363636363635,
                "end_time": 34.00454545454545,
                "pitch": 40,
                "velocity": 127,
                "duration": 1.0181818181818159,
                "tempo": 120.0
            }
        ],
        "Trumpet": [
            {
                "start_time": 3.2909090909090906,
                "end_time": 3.543181818181818,
                "pitch": 39,
                "velocity": 127,
                "duration": 0.2522727272727274,
                "tempo": 120.0
            },
            {
                "start_time": 3.5977272727272727,
                "end_time": 3.9386363636363635,
                "pitch": 47,
                "velocity": 127,
                "duration": 0.34090909090909083,
                "tempo": 120.0
            },
            {
                "start_time": 4.054545454545455,
                "end_time": 4.3977272727272725,
                "pitch": 52,
                "velocity": 127,
                "duration": 0.3431818181818178,
                "tempo": 120.0
            },
            {
                "start_time": 4.513636363636364,
                "end_time": 4.768181818181818,
                "pitch": 40,
                "velocity": 127,
                "duration": 0.25454545454545396,
                "tempo": 120.0
            }
        ],
        "French Horn": [
            {
                "start_time": 6.961363636363636,
                "end_time": 7.036363636363636,
                "pitch": 56,
                "velocity": 127,
                "duration": 0.07500000000000018,
                "tempo": 120.0
            },
            {
                "start_time": 7.0636363636363635,
                "end_time": 7.138636363636364,
                "pitch": 59,
                "velocity": 127,
                "duration": 0.07500000000000018,
                "tempo": 120.0
            },
            {
                "start_time": 7.16590909090909,
                "end_time": 7.24090909090909,
                "pitch": 63,
                "velocity": 127,
                "duration": 0.07500000000000018,
                "tempo": 120.0
            },
            {
                "start_time": 7.268181818181818,
                "end_time": 9.511363636363637,
                "pitch": 63,
                "velocity": 127,
                "duration": 2.243181818181819,
                "tempo": 120.0
            }
        ],
        "Church Organ": [
            {
                "start_time": 9.71590909090909,
                "end_time": 10.736363636363636,
                "pitch": 62,
                "velocity": 101,
                "duration": 1.0204545454545464,
                "tempo": 120.0
            },
            {
                "start_time": 10.94090909090909,
                "end_time": 11.959090909090909,
                "pitch": 63,
                "velocity": 101,
                "duration": 1.0181818181818194,
                "tempo": 120.0
            },
            {
                "start_time": 12.165909090909091,
                "end_time": 13.184090909090909,
                "pitch": 59,
                "velocity": 101,
                "duration": 1.0181818181818176,
                "tempo": 120.0
            },
            {
                "start_time": 13.388636363636364,
                "end_time": 13.897727272727272,
                "pitch": 59,
                "velocity": 101,
                "duration": 0.5090909090909079,
                "tempo": 120.0
            },
            {
                "start_time": 14.0,
                "end_time": 14.511363636363635,
                "pitch": 52,
                "velocity": 101,
                "duration": 0.5113636363636349,
                "tempo": 120.0
            },
            {
                "start_time": 14.613636363636363,
                "end_time": 16.85681818181818,
                "pitch": 56,
                "velocity": 101,
                "duration": 2.2431818181818173,
                "tempo": 120.0
            }
        ],
        "Acoustic Bass": [
            {
                "start_time": 8.493181818181817,
                "end_time": 8.836363636363636,
                "pitch": 40,
                "velocity": 101,
                "duration": 0.3431818181818187,
                "tempo": 120.0
            },
            {
                "start_time": 8.952272727272726,
                "end_time": 9.295454545454545,
                "pitch": 52,
                "velocity": 101,
                "duration": 0.3431818181818187,
                "tempo": 120.0
            },
            {
                "start_time": 9.411363636363635,
                "end_time": 9.663636363636364,
                "pitch": 40,
                "velocity": 101,
                "duration": 0.25227272727272876,
                "tempo": 120.0
            },
            {
                "start_time": 13.084090909090909,
                "end_time": 13.336363636363636,
                "pitch": 51,
                "velocity": 127,
                "duration": 0.252272727272727,
                "tempo": 120.0
            },
            {
                "start_time": 13.39090909090909,
                "end_time": 13.73181818181818,
                "pitch": 52,
                "velocity": 127,
                "duration": 0.34090909090908994,
                "tempo": 120.0
            },
            {
                "start_time": 13.85,
                "end_time": 14.19090909090909,
                "pitch": 64,
                "velocity": 127,
                "duration": 0.34090909090908994,
                "tempo": 120.0
            },
            {
                "start_time": 14.309090909090909,
                "end_time": 14.561363636363636,
                "pitch": 52,
                "velocity": 127,
                "duration": 0.252272727272727,
                "tempo": 120.0
            },
            {
                "start_time": 17.98181818181818,
                "end_time": 18.23409090909091,
                "pitch": 51,
                "velocity": 127,
                "duration": 0.25227272727272876,
                "tempo": 120.0
            },
            {
                "start_time": 18.288636363636364,
                "end_time": 18.629545454545454,
                "pitch": 52,
                "velocity": 127,
                "duration": 0.34090909090908994,
                "tempo": 120.0
            },
            {
                "start_time": 18.74772727272727,
                "end_time": 19.08863636363636,
                "pitch": 64,
                "velocity": 127,
                "duration": 0.34090909090908994,
                "tempo": 120.0
            },
            {
                "start_time": 19.206818181818182,
                "end_time": 19.459090909090907,
                "pitch": 52,
                "velocity": 127,
                "duration": 0.2522727272727252,
                "tempo": 120.0
            },
            {
                "start_time": 19.513636363636362,
                "end_time": 19.854545454545452,
                "pitch": 49,
                "velocity": 127,
                "duration": 0.34090909090908994,
                "tempo": 120.0
            },
            {
                "start_time": 19.970454545454544,
                "end_time": 20.313636363636363,
                "pitch": 49,
                "velocity": 127,
                "duration": 0.3431818181818187,
                "tempo": 120.0
            },
            {
                "start_time": 20.429545454545455,
                "end_time": 20.55681818181818,
                "pitch": 46,
                "velocity": 127,
                "duration": 0.1272727272727252,
                "tempo": 120.0
            },
            {
                "start_time": 20.736363636363635,
                "end_time": 21.079545454545453,
                "pitch": 51,
                "velocity": 127,
                "duration": 0.3431818181818187,
                "tempo": 120.0
            },
            {
                "start_time": 21.195454545454545,
                "end_time": 21.44772727272727,
                "pitch": 49,
                "velocity": 127,
                "duration": 0.2522727272727252,
                "tempo": 120.0
            },
            {
                "start_time": 21.5,
                "end_time": 21.627272727272725,
                "pitch": 39,
                "velocity": 127,
                "duration": 0.1272727272727252,
                "tempo": 120.0
            },
            {
                "start_time": 20.429545454545455,
                "end_time": 21.652272727272727,
                "pitch": 53,
                "velocity": 127,
                "duration": 1.2227272727272727,
                "tempo": 120.0
            },
            {
                "start_time": 21.652272727272727,
                "end_time": 21.904545454545453,
                "pitch": 46,
                "velocity": 127,
                "duration": 0.2522727272727252,
                "tempo": 120.0
            },
            {
                "start_time": 21.959090909090907,
                "end_time": 22.297727272727272,
                "pitch": 40,
                "velocity": 127,
                "duration": 0.33863636363636473,
                "tempo": 120.0
            },
            {
                "start_time": 19.513636363636362,
                "end_time": 22.76590909090909,
                "pitch": 52,
                "velocity": 127,
                "duration": 3.2522727272727288,
                "tempo": 120.0
            },
            {
                "start_time": 22.41590909090909,
                "end_time": 22.76590909090909,
                "pitch": 52,
                "velocity": 127,
                "duration": 0.3500000000000014,
                "tempo": 120.0
            },
            {
                "start_time": 22.886363636363637,
                "end_time": 23.011363636363637,
                "pitch": 40,
                "velocity": 127,
                "duration": 0.125,
                "tempo": 120.0
            },
            {
                "start_time": 21.652272727272727,
                "end_time": 23.19090909090909,
                "pitch": 53,
                "velocity": 127,
                "duration": 1.538636363636364,
                "tempo": 120.0
            },
            {
                "start_time": 23.19090909090909,
                "end_time": 23.534090909090907,
                "pitch": 47,
                "velocity": 127,
                "duration": 0.34318181818181515,
                "tempo": 120.0
            },
            {
                "start_time": 23.65,
                "end_time": 23.904545454545453,
                "pitch": 52,
                "velocity": 127,
                "duration": 0.25454545454545396,
                "tempo": 120.0
            },
            {
                "start_time": 23.954545454545453,
                "end_time": 24.081818181818182,
                "pitch": 40,
                "velocity": 127,
                "duration": 0.12727272727272876,
                "tempo": 120.0
            },
            {
                "start_time": 24.10909090909091,
                "end_time": 24.35681818181818,
                "pitch": 52,
                "velocity": 127,
                "duration": 0.24772727272727124,
                "tempo": 120.0
            },
            {
                "start_time": 24.411363636363635,
                "end_time": 24.745454545454542,
                "pitch": 49,
                "velocity": 127,
                "duration": 0.3340909090909072,
                "tempo": 120.0
            },
            {
                "start_time": 24.861363636363635,
                "end_time": 25.204545454545453,
                "pitch": 49,
                "velocity": 127,
                "duration": 0.3431818181818187,
                "tempo": 120.0
            },
            {
                "start_time": 23.19090909090909,
                "end_time": 25.32272727272727,
                "pitch": 53,
                "velocity": 127,
                "duration": 2.131818181818179,
                "tempo": 120.0
            },
            {
                "start_time": 25.32272727272727,
                "end_time": 25.45,
                "pitch": 46,
                "velocity": 127,
                "duration": 0.12727272727272876,
                "tempo": 120.0
            },
            {
                "start_time": 25.634090909090908,
                "end_time": 25.98181818181818,
                "pitch": 51,
                "velocity": 127,
                "duration": 0.34772727272727266,
                "tempo": 120.0
            },
            {
                "start_time": 26.097727272727273,
                "end_time": 26.347727272727273,
                "pitch": 49,
                "velocity": 127,
                "duration": 0.25,
                "tempo": 120.0
            },
            {
                "start_time": 26.4,
                "end_time": 26.525,
                "pitch": 39,
                "velocity": 127,
                "duration": 0.125,
                "tempo": 120.0
            },
            {
                "start_time": 25.32272727272727,
                "end_time": 26.552272727272726,
                "pitch": 53,
                "velocity": 127,
                "duration": 1.2295454545454554,
                "tempo": 120.0
            },
            {
                "start_time": 26.552272727272726,
                "end_time": 26.804545454545455,
                "pitch": 46,
                "velocity": 127,
                "duration": 0.25227272727272876,
                "tempo": 120.0
            },
            {
                "start_time": 21.959090909090907,
                "end_time": 26.85909090909091,
                "pitch": 14,
                "velocity": 127,
                "duration": 4.900000000000002,
                "tempo": 120.0
            },
            {
                "start_time": 26.85909090909091,
                "end_time": 27.2,
                "pitch": 40,
                "velocity": 127,
                "duration": 0.34090909090908994,
                "tempo": 120.0
            },
            {
                "start_time": 24.411363636363635,
                "end_time": 27.659090909090907,
                "pitch": 52,
                "velocity": 127,
                "duration": 3.2477272727272712,
                "tempo": 120.0
            },
            {
                "start_time": 27.315909090909088,
                "end_time": 27.659090909090907,
                "pitch": 52,
                "velocity": 127,
                "duration": 0.3431818181818187,
                "tempo": 120.0
            },
            {
                "start_time": 27.777272727272727,
                "end_time": 27.904545454545453,
                "pitch": 40,
                "velocity": 127,
                "duration": 0.1272727272727252,
                "tempo": 120.0
            },
            {
                "start_time": 26.552272727272726,
                "end_time": 28.08863636363636,
                "pitch": 53,
                "velocity": 127,
                "duration": 1.5363636363636353,
                "tempo": 120.0
            },
            {
                "start_time": 28.08863636363636,
                "end_time": 28.438636363636363,
                "pitch": 47,
                "velocity": 127,
                "duration": 0.3500000000000014,
                "tempo": 120.0
            },
            {
                "start_time": 23.65,
                "end_time": 28.554545454545455,
                "pitch": 32,
                "velocity": 127,
                "duration": 4.904545454545456,
                "tempo": 120.0
            },
            {
                "start_time": 28.554545454545455,
                "end_time": 28.80681818181818,
                "pitch": 52,
                "velocity": 127,
                "duration": 0.2522727272727252,
                "tempo": 120.0
            },
            {
                "start_time": 28.85909090909091,
                "end_time": 28.986363636363635,
                "pitch": 40,
                "velocity": 127,
                "duration": 0.1272727272727252,
                "tempo": 120.0
            },
            {
                "start_time": 29.013636363636362,
                "end_time": 29.26590909090909,
                "pitch": 52,
                "velocity": 127,
                "duration": 0.25227272727272876,
                "tempo": 120.0
            },
            {
                "start_time": 29.32272727272727,
                "end_time": 29.661363636363635,
                "pitch": 44,
                "velocity": 127,
                "duration": 0.33863636363636473,
                "tempo": 120.0
            },
            {
                "start_time": 29.775,
                "end_time": 29.777272727272727,
                "pitch": 7,
                "velocity": 127,
                "duration": 0.0022727272727287584,
                "tempo": 120.0
            },
            {
                "start_time": 29.777272727272727,
                "end_time": 30.027272727272727,
                "pitch": 51,
                "velocity": 127,
                "duration": 0.25,
                "tempo": 120.0
            },
            {
                "start_time": 30.079545454545453,
                "end_time": 30.204545454545453,
                "pitch": 39,
                "velocity": 127,
                "duration": 0.125,
                "tempo": 120.0
            },
            {
                "start_time": 28.08863636363636,
                "end_time": 30.229545454545452,
                "pitch": 53,
                "velocity": 127,
                "duration": 2.1409090909090907,
                "tempo": 120.0
            },
            {
                "start_time": 30.229545454545452,
                "end_time": 30.48409090909091,
                "pitch": 46,
                "velocity": 127,
                "duration": 0.2545454545454575,
                "tempo": 120.0
            },
            {
                "start_time": 30.53863636363636,
                "end_time": 30.879545454545454,
                "pitch": 44,
                "velocity": 127,
                "duration": 0.3409090909090935,
                "tempo": 120.0
            },
            {
                "start_time": 30.995454545454542,
                "end_time": 31.25,
                "pitch": 51,
                "velocity": 127,
                "duration": 0.2545454545454575,
                "tempo": 120.0
            },
            {
                "start_time": 31.302272727272726,
                "end_time": 31.429545454545455,
                "pitch": 39,
                "velocity": 127,
                "duration": 0.12727272727272876,
                "tempo": 120.0
            },
            {
                "start_time": 30.229545454545452,
                "end_time": 31.454545454545453,
                "pitch": 53,
                "velocity": 127,
                "duration": 1.2250000000000014,
                "tempo": 120.0
            },
            {
                "start_time": 30.53863636363636,
                "end_time": 31.709090909090907,
                "pitch": 46,
                "velocity": 127,
                "duration": 1.1704545454545467,
                "tempo": 120.0
            },
            {
                "start_time": 31.454545454545453,
                "end_time": 31.709090909090907,
                "pitch": 46,
                "velocity": 127,
                "duration": 0.25454545454545396,
                "tempo": 120.0
            },
            {
                "start_time": 26.85909090909091,
                "end_time": 31.763636363636362,
                "pitch": 14,
                "velocity": 127,
                "duration": 4.9045454545454525,
                "tempo": 120.0
            },
            {
                "start_time": 31.763636363636362,
                "end_time": 32.10454545454545,
                "pitch": 40,
                "velocity": 127,
                "duration": 0.34090909090908994,
                "tempo": 120.0
            },
            {
                "start_time": 32.220454545454544,
                "end_time": 32.56363636363636,
                "pitch": 52,
                "velocity": 127,
                "duration": 0.3431818181818187,
                "tempo": 120.0
            },
            {
                "start_time": 32.679545454545455,
                "end_time": 32.934090909090905,
                "pitch": 40,
                "velocity": 127,
                "duration": 0.2545454545454504,
                "tempo": 120.0
            },
            {
                "start_time": 32.986363636363635,
                "end_time": 33.32954545454545,
                "pitch": 40,
                "velocity": 127,
                "duration": 0.3431818181818187,
                "tempo": 120.0
            },
            {
                "start_time": 33.445454545454545,
                "end_time": 33.788636363636364,
                "pitch": 52,
                "velocity": 127,
                "duration": 0.3431818181818187,
                "tempo": 120.0
            },
            {
                "start_time": 33.902272727272724,
                "end_time": 34.15681818181818,
                "pitch": 40,
                "velocity": 127,
                "duration": 0.2545454545454575,
                "tempo": 120.0
            },
            {
                "start_time": 29.32272727272727,
                "end_time": 34.211363636363636,
                "pitch": 54,
                "velocity": 127,
                "duration": 4.8886363636363654,
                "tempo": 120.0
            },
            {
                "start_time": 34.211363636363636,
                "end_time": 34.55227272727272,
                "pitch": 44,
                "velocity": 127,
                "duration": 0.3409090909090864,
                "tempo": 120.0
            },
            {
                "start_time": 30.995454545454542,
                "end_time": 34.668181818181814,
                "pitch": 7,
                "velocity": 127,
                "duration": 3.672727272727272,
                "tempo": 120.0
            },
            {
                "start_time": 34.668181818181814,
                "end_time": 35.01136363636363,
                "pitch": 51,
                "velocity": 127,
                "duration": 0.3431818181818187,
                "tempo": 120.0
            },
            {
                "start_time": 35.12954545454545,
                "end_time": 35.25454545454545,
                "pitch": 27,
                "velocity": 127,
                "duration": 0.125,
                "tempo": 120.0
            },
            {
                "start_time": 35.43636363636364,
                "end_time": 35.777272727272724,
                "pitch": 44,
                "velocity": 127,
                "duration": 0.3409090909090864,
                "tempo": 120.0
            },
            {
                "start_time": 34.668181818181814,
                "end_time": 35.893181818181816,
                "pitch": 7,
                "velocity": 127,
                "duration": 1.2250000000000014,
                "tempo": 120.0
            },
            {
                "start_time": 35.893181818181816,
                "end_time": 36.14772727272727,
                "pitch": 51,
                "velocity": 127,
                "duration": 0.2545454545454575,
                "tempo": 120.0
            },
            {
                "start_time": 36.35227272727273,
                "end_time": 36.60681818181818,
                "pitch": 42,
                "velocity": 127,
                "duration": 0.2545454545454504,
                "tempo": 120.0
            },
            {
                "start_time": 36.65909090909091,
                "end_time": 37.002272727272725,
                "pitch": 42,
                "velocity": 127,
                "duration": 0.3431818181818187,
                "tempo": 120.0
            },
            {
                "start_time": 37.11818181818182,
                "end_time": 37.461363636363636,
                "pitch": 52,
                "velocity": 127,
                "duration": 0.3431818181818187,
                "tempo": 120.0
            },
            {
                "start_time": 37.57727272727273,
                "end_time": 37.70227272727273,
                "pitch": 40,
                "velocity": 127,
                "duration": 0.125,
                "tempo": 120.0
            },
            {
                "start_time": 37.88409090909091,
                "end_time": 38.225,
                "pitch": 40,
                "velocity": 127,
                "duration": 0.3409090909090935,
                "tempo": 120.0
            },
            {
                "start_time": 38.340909090909086,
                "end_time": 38.684090909090905,
                "pitch": 52,
                "velocity": 127,
                "duration": 0.3431818181818187,
                "tempo": 120.0
            },
            {
                "start_time": 38.8,
                "end_time": 39.054545454545455,
                "pitch": 40,
                "velocity": 127,
                "duration": 0.2545454545454575,
                "tempo": 120.0
            }
        ],
        "Lead 2 (sawtooth)": [
            {
                "start_time": 0.031818181818181815,
                "end_time": 0.2659090909090909,
                "pitch": 54,
                "velocity": 101,
                "duration": 0.23409090909090907,
                "tempo": 120.0
            },
            {
                "start_time": 0.3818181818181818,
                "end_time": 0.725,
                "pitch": 54,
                "velocity": 101,
                "duration": 0.3431818181818182,
                "tempo": 120.0
            },
            {
                "start_time": 0.8409090909090908,
                "end_time": 1.2727272727272727,
                "pitch": 54,
                "velocity": 101,
                "duration": 0.4318181818181819,
                "tempo": 120.0
            },
            {
                "start_time": 1.3,
                "end_time": 1.643181818181818,
                "pitch": 56,
                "velocity": 101,
                "duration": 0.34318181818181803,
                "tempo": 120.0
            },
            {
                "start_time": 2.2181818181818183,
                "end_time": 3.059090909090909,
                "pitch": 51,
                "velocity": 101,
                "duration": 0.8409090909090908,
                "tempo": 120.0
            },
            {
                "start_time": 4.822727272727272,
                "end_time": 5.163636363636363,
                "pitch": 52,
                "velocity": 101,
                "duration": 0.34090909090909083,
                "tempo": 120.0
            },
            {
                "start_time": 5.279545454545454,
                "end_time": 5.622727272727272,
                "pitch": 54,
                "velocity": 101,
                "duration": 0.3431818181818178,
                "tempo": 120.0
            },
            {
                "start_time": 5.738636363636363,
                "end_time": 6.170454545454545,
                "pitch": 54,
                "velocity": 101,
                "duration": 0.43181818181818166,
                "tempo": 120.0
            },
            {
                "start_time": 1.3,
                "end_time": 6.197727272727272,
                "pitch": 66,
                "velocity": 101,
                "duration": 4.8977272727272725,
                "tempo": 120.0
            },
            {
                "start_time": 6.197727272727272,
                "end_time": 6.540909090909091,
                "pitch": 56,
                "velocity": 101,
                "duration": 0.3431818181818187,
                "tempo": 120.0
            },
            {
                "start_time": 9.720454545454546,
                "end_time": 10.059090909090909,
                "pitch": 64,
                "velocity": 101,
                "duration": 0.33863636363636296,
                "tempo": 120.0
            },
            {
                "start_time": 6.197727272727272,
                "end_time": 10.518181818181818,
                "pitch": 66,
                "velocity": 101,
                "duration": 4.320454545454545,
                "tempo": 120.0
            },
            {
                "start_time": 10.177272727272726,
                "end_time": 10.518181818181818,
                "pitch": 66,
                "velocity": 101,
                "duration": 0.3409090909090917,
                "tempo": 120.0
            },
            {
                "start_time": 10.636363636363637,
                "end_time": 11.068181818181818,
                "pitch": 66,
                "velocity": 101,
                "duration": 0.43181818181818166,
                "tempo": 120.0
            },
            {
                "start_time": 11.095454545454546,
                "end_time": 11.436363636363636,
                "pitch": 68,
                "velocity": 101,
                "duration": 0.34090909090908994,
                "tempo": 120.0
            },
            {
                "start_time": 12.013636363636364,
                "end_time": 12.852272727272727,
                "pitch": 63,
                "velocity": 101,
                "duration": 0.838636363636363,
                "tempo": 120.0
            },
            {
                "start_time": 14.61590909090909,
                "end_time": 14.95681818181818,
                "pitch": 64,
                "velocity": 101,
                "duration": 0.34090909090908994,
                "tempo": 120.0
            },
            {
                "start_time": 15.072727272727272,
                "end_time": 15.415909090909091,
                "pitch": 66,
                "velocity": 101,
                "duration": 0.3431818181818187,
                "tempo": 120.0
            },
            {
                "start_time": 15.531818181818181,
                "end_time": 15.96590909090909,
                "pitch": 66,
                "velocity": 101,
                "duration": 0.43409090909090864,
                "tempo": 120.0
            },
            {
                "start_time": 11.095454545454546,
                "end_time": 15.99090909090909,
                "pitch": 78,
                "velocity": 101,
                "duration": 4.895454545454545,
                "tempo": 120.0
            },
            {
                "start_time": 15.99090909090909,
                "end_time": 16.334090909090907,
                "pitch": 68,
                "velocity": 101,
                "duration": 0.3431818181818169,
                "tempo": 120.0
            },
            {
                "start_time": 12.013636363636364,
                "end_time": 16.911363636363635,
                "pitch": 19,
                "velocity": 101,
                "duration": 4.897727272727272,
                "tempo": 120.0
            },
            {
                "start_time": 16.911363636363635,
                "end_time": 17.75,
                "pitch": 63,
                "velocity": 101,
                "duration": 0.8386363636363647,
                "tempo": 120.0
            },
            {
                "start_time": 20.584090909090907,
                "end_time": 20.709090909090907,
                "pitch": 75,
                "velocity": 127,
                "duration": 0.125,
                "tempo": 120.0
            },
            {
                "start_time": 23.038636363636364,
                "end_time": 23.163636363636364,
                "pitch": 76,
                "velocity": 127,
                "duration": 0.125,
                "tempo": 120.0
            },
            {
                "start_time": 20.584090909090907,
                "end_time": 25.477272727272727,
                "pitch": 50,
                "velocity": 127,
                "duration": 4.893181818181819,
                "tempo": 120.0
            },
            {
                "start_time": 25.477272727272727,
                "end_time": 25.60681818181818,
                "pitch": 75,
                "velocity": 127,
                "duration": 0.12954545454545396,
                "tempo": 120.0
            },
            {
                "start_time": 27.93181818181818,
                "end_time": 28.061363636363634,
                "pitch": 76,
                "velocity": 127,
                "duration": 0.12954545454545396,
                "tempo": 120.0
            },
            {
                "start_time": 35.28181818181818,
                "end_time": 35.40681818181818,
                "pitch": 83,
                "velocity": 127,
                "duration": 0.125,
                "tempo": 120.0
            },
            {
                "start_time": 37.72954545454545,
                "end_time": 37.85681818181818,
                "pitch": 83,
                "velocity": 127,
                "duration": 0.1272727272727252,
                "tempo": 120.0
            },
            {
                "start_time": 39.111363636363635,
                "end_time": 39.11363636363636,
                "pitch": 52,
                "velocity": 101,
                "duration": 0.0022727272727252057,
                "tempo": 120.0
            }
        ],
        "Harpsichord": [
            {
                "start_time": 6.963636363636363,
                "end_time": 7.038636363636363,
                "pitch": 44,
                "velocity": 101,
                "duration": 0.07500000000000018,
                "tempo": 120.0
            },
            {
                "start_time": 7.0636363636363635,
                "end_time": 7.138636363636364,
                "pitch": 47,
                "velocity": 101,
                "duration": 0.07500000000000018,
                "tempo": 120.0
            },
            {
                "start_time": 7.16590909090909,
                "end_time": 7.24090909090909,
                "pitch": 51,
                "velocity": 101,
                "duration": 0.07500000000000018,
                "tempo": 120.0
            },
            {
                "start_time": 7.304545454545454,
                "end_time": 8.402272727272727,
                "pitch": 51,
                "velocity": 101,
                "duration": 1.0977272727272736,
                "tempo": 120.0
            }
        ]
    }
}