{
    "track_id": "05 Forest",
    "mood": "angry",
    "instruments": {
        "Acoustic Bass": [
            {
                "start_time": 0.022727272727272728,
                "end_time": 0.11818181818181818,
                "pitch": 36,
                "velocity": 80,
                "duration": 0.09545454545454546,
                "tempo": 120.0
            },
            {
                "start_time": 0.11818181818181818,
                "end_time": 0.22045454545454543,
                "pitch": 36,
                "velocity": 80,
                "duration": 0.10227272727272725,
                "tempo": 120.0
            },
            {
                "start_time": 0.22045454545454543,
                "end_time": 0.3704545454545454,
                "pitch": 36,
                "velocity": 80,
                "duration": 0.15,
                "tempo": 120.0
            },
            {
                "start_time": 0.3704545454545454,
                "end_time": 0.5204545454545454,
                "pitch": 36,
                "velocity": 80,
                "duration": 0.14999999999999997,
                "tempo": 120.0
            },
            {
                "start_time": 0.5227272727272727,
                "end_time": 0.6749999999999999,
                "pitch": 36,
                "velocity": 80,
                "duration": 0.15227272727272723,
                "tempo": 120.0
            },
            {
                "start_time": 0.6749999999999999,
                "end_time": 0.825,
                "pitch": 36,
                "velocity": 80,
                "duration": 0.15000000000000002,
                "tempo": 120.0
            },
            {
                "start_time": 0.825,
                "end_time": 0.9772727272727272,
                "pitch": 36,
                "velocity": 80,
                "duration": 0.15227272727272723,
                "tempo": 120.0
            },
            {
                "start_time": 0.9772727272727272,
                "end_time": 1.1295454545454544,
                "pitch": 36,
                "velocity": 80,
                "duration": 0.15227272727272723,
                "tempo": 120.0
            },
            {
                "start_time": 1.1318181818181818,
                "end_time": 1.2795454545454545,
                "pitch": 36,
                "velocity": 80,
                "duration": 0.1477272727272727,
                "tempo": 120.0
            },
            {
                "start_time": 1.2818181818181817,
                "end_time": 1.4318181818181817,
                "pitch": 36,
                "velocity": 80,
                "duration": 0.1499999999999999,
                "tempo": 120.0
            },
            {
                "start_time": 1.4318181818181817,
                "end_time": 1.584090909090909,
                "pitch": 36,
                "velocity": 80,
                "duration": 0.15227272727272734,
                "tempo": 120.0
            },
            {
                "start_time": 1.584090909090909,
                "end_time": 1.7318181818181817,
                "pitch": 36,
                "velocity": 80,
                "duration": 0.1477272727272727,
                "tempo": 120.0
            },
            {
                "start_time": 1.734090909090909,
                "end_time": 1.884090909090909,
                "pitch": 36,
                "velocity": 80,
                "duration": 0.15000000000000013,
                "tempo": 120.0
            },
            {
                "start_time": 1.884090909090909,
                "end_time": 2.034090909090909,
                "pitch": 36,
                "velocity": 80,
                "duration": 0.15000000000000013,
                "tempo": 120.0
            },
            {
                "start_time": 2.034090909090909,
                "end_time": 2.184090909090909,
                "pitch": 36,
                "velocity": 80,
                "duration": 0.1499999999999999,
                "tempo": 120.0
            },
            {
                "start_time": 2.184090909090909,
                "end_time": 2.334090909090909,
                "pitch": 36,
                "velocity": 80,
                "duration": 0.1499999999999999,
                "tempo": 120.0
            },
            {
                "start_time": 2.3363636363636364,
                "end_time": 2.4818181818181815,
                "pitch": 36,
                "velocity": 80,
                "duration": 0.14545454545454506,
                "tempo": 120.0
            },
            {
                "start_time": 2.484090909090909,
                "end_time": 2.634090909090909,
                "pitch": 36,
                "velocity": 80,
                "duration": 0.1499999999999999,
                "tempo": 120.0
            },
            {
                "start_time": 2.6363636363636362,
                "end_time": 2.786363636363636,
                "pitch": 36,
                "velocity": 80,
                "duration": 0.1499999999999999,
                "tempo": 120.0
            },
            {
                "start_time": 2.786363636363636,
                "end_time": 2.936363636363636,
                "pitch": 36,
                "velocity": 80,
                "duration": 0.1499999999999999,
                "tempo": 120.0
            },
            {
                "start_time": 2.936363636363636,
                "end_time": 3.090909090909091,
                "pitch": 36,
                "velocity": 80,
                "duration": 0.15454545454545476,
                "tempo": 120.0
            },
            {
                "start_time": 3.090909090909091,
                "end_time": 3.2409090909090907,
                "pitch": 36,
                "velocity": 80,
                "duration": 0.1499999999999999,
                "tempo": 120.0
            },
            {
                "start_time": 3.2409090909090907,
                "end_time": 3.3909090909090907,
                "pitch": 36,
                "velocity": 80,
                "duration": 0.1499999999999999,
                "tempo": 120.0
            },
            {
                "start_time": 3.393181818181818,
                "end_time": 3.5454545454545454,
                "pitch": 36,
                "velocity": 80,
                "duration": 0.15227272727272734,
                "tempo": 120.0
            },
            {
                "start_time": 3.5454545454545454,
                "end_time": 3.6954545454545453,
                "pitch": 36,
                "velocity": 80,
                "duration": 0.1499999999999999,
                "tempo": 120.0
            },
            {
                "start_time": 3.6977272727272728,
                "end_time": 3.8477272727272727,
                "pitch": 36,
                "velocity": 80,
                "duration": 0.1499999999999999,
                "tempo": 120.0
            },
            {
                "start_time": 3.8477272727272727,
                "end_time": 4.0,
                "pitch": 36,
                "velocity": 80,
                "duration": 0.15227272727272734,
                "tempo": 120.0
            },
            {
                "start_time": 4.0,
                "end_time": 4.1499999999999995,
                "pitch": 36,
                "velocity": 80,
                "duration": 0.14999999999999947,
                "tempo": 120.0
            },
            {
                "start_time": 4.152272727272727,
                "end_time": 4.302272727272727,
                "pitch": 36,
                "velocity": 80,
                "duration": 0.14999999999999947,
                "tempo": 120.0
            },
            {
                "start_time": 4.302272727272727,
                "end_time": 4.454545454545454,
                "pitch": 36,
                "velocity": 80,
                "duration": 0.15227272727272734,
                "tempo": 120.0
            },
            {
                "start_time": 4.456818181818182,
                "end_time": 4.6068181818181815,
                "pitch": 36,
                "velocity": 80,
                "duration": 0.14999999999999947,
                "tempo": 120.0
            },
            {
                "start_time": 4.6068181818181815,
                "end_time": 4.759090909090909,
                "pitch": 36,
                "velocity": 80,
                "duration": 0.15227272727272734,
                "tempo": 120.0
            },
            {
                "start_time": 4.759090909090909,
                "end_time": 4.909090909090909,
                "pitch": 36,
                "velocity": 80,
                "duration": 0.15000000000000036,
                "tempo": 120.0
            },
            {
                "start_time": 4.909090909090909,
                "end_time": 5.0613636363636365,
                "pitch": 36,
                "velocity": 80,
                "duration": 0.15227272727272734,
                "tempo": 120.0
            },
            {
                "start_time": 5.0636363636363635,
                "end_time": 5.211363636363636,
                "pitch": 36,
                "velocity": 80,
                "duration": 0.14772727272727249,
                "tempo": 120.0
            },
            {
                "start_time": 5.211363636363636,
                "end_time": 5.361363636363636,
                "pitch": 36,
                "velocity": 80,
                "duration": 0.15000000000000036,
                "tempo": 120.0
            },
            {
                "start_time": 5.361363636363636,
                "end_time": 5.511363636363636,
                "pitch": 36,
                "velocity": 80,
                "duration": 0.14999999999999947,
                "tempo": 120.0
            },
            {
                "start_time": 5.513636363636364,
                "end_time": 5.661363636363636,
                "pitch": 36,
                "velocity": 80,
                "duration": 0.14772727272727249,
                "tempo": 120.0
            },
            {
                "start_time": 5.663636363636363,
                "end_time": 5.8136363636363635,
                "pitch": 36,
                "velocity": 80,
                "duration": 0.15000000000000036,
                "tempo": 120.0
            },
            {
                "start_time": 5.8136363636363635,
                "end_time": 5.965909090909091,
                "pitch": 36,
                "velocity": 80,
                "duration": 0.15227272727272734,
                "tempo": 120.0
            },
            {
                "start_time": 5.968181818181818,
                "end_time": 6.11590909090909,
                "pitch": 36,
                "velocity": 80,
                "duration": 0.14772727272727249,
                "tempo": 120.0
            },
            {
                "start_time": 6.118181818181818,
                "end_time": 6.268181818181818,
                "pitch": 36,
                "velocity": 80,
                "duration": 0.14999999999999947,
                "tempo": 120.0
            },
            {
                "start_time": 6.268181818181818,
                "end_time": 6.420454545454545,
                "pitch": 36,
                "velocity": 80,
                "duration": 0.15227272727272734,
                "tempo": 120.0
            },
            {
                "start_time": 6.420454545454545,
                "end_time": 6.5681818181818175,
                "pitch": 36,
                "velocity": 80,
                "duration": 0.14772727272727249,
                "tempo": 120.0
            },
            {
                "start_time": 6.570454545454545,
                "end_time": 6.720454545454545,
                "pitch": 36,
                "velocity": 80,
                "duration": 0.14999999999999947,
                "tempo": 120.0
            },
            {
                "start_time": 6.720454545454545,
                "end_time": 6.870454545454545,
                "pitch": 36,
                "velocity": 80,
                "duration": 0.15000000000000036,
                "tempo": 120.0
            },
            {
                "start_time": 6.870454545454545,
                "end_time": 7.0227272727272725,
                "pitch": 36,
                "velocity": 80,
                "duration": 0.15227272727272734,
                "tempo": 120.0
            },
            {
                "start_time": 7.0227272727272725,
                "end_time": 7.177272727272727,
                "pitch": 36,
                "velocity": 80,
                "duration": 0.15454545454545432,
                "tempo": 120.0
            },
            {
                "start_time": 7.177272727272727,
                "end_time": 7.327272727272727,
                "pitch": 36,
                "velocity": 80,
                "duration": 0.15000000000000036,
                "tempo": 120.0
            },
            {
                "start_time": 7.329545454545454,
                "end_time": 7.4840909090909085,
                "pitch": 36,
                "velocity": 80,
                "duration": 0.15454545454545432,
                "tempo": 120.0
            },
            {
                "start_time": 7.4840909090909085,
                "end_time": 7.631818181818182,
                "pitch": 36,
                "velocity": 80,
                "duration": 0.14772727272727337,
                "tempo": 120.0
            },
            {
                "start_time": 7.634090909090909,
                "end_time": 7.781818181818181,
                "pitch": 36,
                "velocity": 80,
                "duration": 0.14772727272727249,
                "tempo": 120.0
            },
            {
                "start_time": 7.784090909090908,
                "end_time": 7.934090909090909,
                "pitch": 36,
                "velocity": 80,
                "duration": 0.15000000000000036,
                "tempo": 120.0
            },
            {
                "start_time": 7.934090909090909,
                "end_time": 8.084090909090909,
                "pitch": 36,
                "velocity": 80,
                "duration": 0.15000000000000036,
                "tempo": 120.0
            },
            {
                "start_time": 8.084090909090909,
                "end_time": 8.23409090909091,
                "pitch": 36,
                "velocity": 80,
                "duration": 0.15000000000000036,
                "tempo": 120.0
            },
            {
                "start_time": 8.23409090909091,
                "end_time": 8.388636363636364,
                "pitch": 36,
                "velocity": 80,
                "duration": 0.15454545454545432,
                "tempo": 120.0
            },
            {
                "start_time": 8.388636363636364,
                "end_time": 8.538636363636364,
                "pitch": 36,
                "velocity": 80,
                "duration": 0.15000000000000036,
                "tempo": 120.0
            },
            {
                "start_time": 8.538636363636364,
                "end_time": 8.688636363636363,
                "pitch": 36,
                "velocity": 80,
                "duration": 0.14999999999999858,
                "tempo": 120.0
            },
            {
                "start_time": 8.690909090909091,
                "end_time": 8.84090909090909,
                "pitch": 36,
                "velocity": 80,
                "duration": 0.14999999999999858,
                "tempo": 120.0
            },
            {
                "start_time": 8.843181818181817,
                "end_time": 8.99090909090909,
                "pitch": 36,
                "velocity": 80,
                "duration": 0.14772727272727337,
                "tempo": 120.0
            },
            {
                "start_time": 8.99090909090909,
                "end_time": 9.14090909090909,
                "pitch": 36,
                "velocity": 80,
                "duration": 0.15000000000000036,
                "tempo": 120.0
            },
            {
                "start_time": 9.14090909090909,
                "end_time": 9.290909090909091,
                "pitch": 36,
                "velocity": 80,
                "duration": 0.15000000000000036,
                "tempo": 120.0
            },
            {
                "start_time": 9.293181818181818,
                "end_time": 9.44090909090909,
                "pitch": 36,
                "velocity": 80,
                "duration": 0.1477272727272716,
                "tempo": 120.0
            },
            {
                "start_time": 9.44090909090909,
                "end_time": 9.593181818181817,
                "pitch": 36,
                "velocity": 80,
                "duration": 0.15227272727272734,
                "tempo": 120.0
            },
            {
                "start_time": 9.595454545454546,
                "end_time": 9.743181818181817,
                "pitch": 45,
                "velocity": 80,
                "duration": 0.1477272727272716,
                "tempo": 120.0
            },
            {
                "start_time": 9.743181818181817,
                "end_time": 9.89090909090909,
                "pitch": 45,
                "velocity": 80,
                "duration": 0.14772727272727337,
                "tempo": 120.0
            },
            {
                "start_time": 9.893181818181818,
                "end_time": 10.043181818181818,
                "pitch": 45,
                "velocity": 80,
                "duration": 0.15000000000000036,
                "tempo": 120.0
            },
            {
                "start_time": 10.043181818181818,
                "end_time": 10.193181818181818,
                "pitch": 45,
                "velocity": 80,
                "duration": 0.15000000000000036,
                "tempo": 120.0
            },
            {
                "start_time": 10.193181818181818,
                "end_time": 10.343181818181817,
                "pitch": 45,
                "velocity": 80,
                "duration": 0.14999999999999858,
                "tempo": 120.0
            },
            {
                "start_time": 10.343181818181817,
                "end_time": 10.493181818181817,
                "pitch": 45,
                "velocity": 80,
                "duration": 0.15000000000000036,
                "tempo": 120.0
            },
            {
                "start_time": 10.493181818181817,
                "end_time": 10.643181818181818,
                "pitch": 45,
                "velocity": 80,
                "duration": 0.15000000000000036,
                "tempo": 120.0
            },
            {
                "start_time": 10.643181818181818,
                "end_time": 10.793181818181818,
                "pitch": 45,
                "velocity": 80,
                "duration": 0.15000000000000036,
                "tempo": 120.0
            },
            {
                "start_time": 10.795454545454545,
                "end_time": 10.943181818181818,
                "pitch": 45,
                "velocity": 80,
                "duration": 0.14772727272727337,
                "tempo": 120.0
            },
            {
                "start_time": 10.945454545454545,
                "end_time": 11.093181818181817,
                "pitch": 45,
                "velocity": 80,
                "duration": 0.1477272727272716,
                "tempo": 120.0
            },
            {
                "start_time": 11.095454545454546,
                "end_time": 11.245454545454544,
                "pitch": 45,
                "velocity": 80,
                "duration": 0.14999999999999858,
                "tempo": 120.0
            },
            {
                "start_time": 11.245454545454544,
                "end_time": 11.397727272727272,
                "pitch": 45,
                "velocity": 80,
                "duration": 0.15227272727272734,
                "tempo": 120.0
            },
            {
                "start_time": 11.397727272727272,
                "end_time": 11.549999999999999,
                "pitch": 45,
                "velocity": 80,
                "duration": 0.15227272727272734,
                "tempo": 120.0
            },
            {
                "start_time": 11.549999999999999,
                "end_time": 11.7,
                "pitch": 45,
                "velocity": 80,
                "duration": 0.15000000000000036,
                "tempo": 120.0
            },
            {
                "start_time": 11.702272727272726,
                "end_time": 11.85,
                "pitch": 45,
                "velocity": 80,
                "duration": 0.14772727272727337,
                "tempo": 120.0
            },
            {
                "start_time": 11.852272727272727,
                "end_time": 12.002272727272727,
                "pitch": 45,
                "velocity": 80,
                "duration": 0.15000000000000036,
                "tempo": 120.0
            },
            {
                "start_time": 12.002272727272727,
                "end_time": 12.149999999999999,
                "pitch": 45,
                "velocity": 80,
                "duration": 0.1477272727272716,
                "tempo": 120.0
            },
            {
                "start_time": 12.152272727272727,
                "end_time": 12.302272727272726,
                "pitch": 45,
                "velocity": 80,
                "duration": 0.14999999999999858,
                "tempo": 120.0
            },
            {
                "start_time": 12.302272727272726,
                "end_time": 12.452272727272726,
                "pitch": 45,
                "velocity": 80,
                "duration": 0.15000000000000036,
                "tempo": 120.0
            },
            {
                "start_time": 12.452272727272726,
                "end_time": 12.602272727272727,
                "pitch": 45,
                "velocity": 80,
                "duration": 0.15000000000000036,
                "tempo": 120.0
            },
            {
                "start_time": 12.602272727272727,
                "end_time": 12.752272727272727,
                "pitch": 45,
                "velocity": 80,
                "duration": 0.15000000000000036,
                "tempo": 120.0
            },
            {
                "start_time": 12.752272727272727,
                "end_time": 12.902272727272727,
                "pitch": 45,
                "velocity": 80,
                "duration": 0.15000000000000036,
                "tempo": 120.0
            },
            {
                "start_time": 12.902272727272727,
                "end_time": 13.052272727272726,
                "pitch": 45,
                "velocity": 80,
                "duration": 0.14999999999999858,
                "tempo": 120.0
            },
            {
                "start_time": 13.052272727272726,
                "end_time": 13.204545454545453,
                "pitch": 45,
                "velocity": 80,
                "duration": 0.15227272727272734,
                "tempo": 120.0
            },
            {
                "start_time": 13.204545454545453,
                "end_time": 13.352272727272727,
                "pitch": 43,
                "velocity": 80,
                "duration": 0.14772727272727337,
                "tempo": 120.0
            },
            {
                "start_time": 13.352272727272727,
                "end_time": 13.502272727272727,
                "pitch": 43,
                "velocity": 80,
                "duration": 0.15000000000000036,
                "tempo": 120.0
            },
            {
                "start_time": 13.504545454545454,
                "end_time": 13.652272727272727,
                "pitch": 43,
                "velocity": 80,
                "duration": 0.14772727272727337,
                "tempo": 120.0
            },
            {
                "start_time": 13.654545454545454,
                "end_time": 13.802272727272726,
                "pitch": 43,
                "velocity": 80,
                "duration": 0.1477272727272716,
                "tempo": 120.0
            },
            {
                "start_time": 13.804545454545455,
                "end_time": 13.952272727272726,
                "pitch": 43,
                "velocity": 80,
                "duration": 0.1477272727272716,
                "tempo": 120.0
            },
            {
                "start_time": 13.954545454545453,
                "end_time": 14.104545454545454,
                "pitch": 43,
                "velocity": 80,
                "duration": 0.15000000000000036,
                "tempo": 120.0
            },
            {
                "start_time": 14.104545454545454,
                "end_time": 14.254545454545454,
                "pitch": 43,
                "velocity": 80,
                "duration": 0.15000000000000036,
                "tempo": 120.0
            },
            {
                "start_time": 14.256818181818181,
                "end_time": 14.409090909090908,
                "pitch": 43,
                "velocity": 80,
                "duration": 0.15227272727272734,
                "tempo": 120.0
            },
            {
                "start_time": 14.409090909090908,
                "end_time": 14.559090909090909,
                "pitch": 41,
                "velocity": 80,
                "duration": 0.15000000000000036,
                "tempo": 120.0
            },
            {
                "start_time": 14.559090909090909,
                "end_time": 14.711363636363636,
                "pitch": 41,
                "velocity": 80,
                "duration": 0.15227272727272734,
                "tempo": 120.0
            },
            {
                "start_time": 14.711363636363636,
                "end_time": 14.863636363636363,
                "pitch": 41,
                "velocity": 80,
                "duration": 0.15227272727272734,
                "tempo": 120.0
            },
            {
                "start_time": 14.86590909090909,
                "end_time": 15.018181818181818,
                "pitch": 41,
                "velocity": 80,
                "duration": 0.15227272727272734,
                "tempo": 120.0
            },
            {
                "start_time": 15.018181818181818,
                "end_time": 15.170454545454545,
                "pitch": 41,
                "velocity": 80,
                "duration": 0.15227272727272734,
                "tempo": 120.0
            },
            {
                "start_time": 15.170454545454545,
                "end_time": 15.322727272727272,
                "pitch": 41,
                "velocity": 80,
                "duration": 0.15227272727272734,
                "tempo": 120.0
            },
            {
                "start_time": 15.325,
                "end_time": 15.472727272727273,
                "pitch": 41,
                "velocity": 80,
                "duration": 0.14772727272727337,
                "tempo": 120.0
            },
            {
                "start_time": 15.475,
                "end_time": 15.625,
                "pitch": 41,
                "velocity": 80,
                "duration": 0.15000000000000036,
                "tempo": 120.0
            },
            {
                "start_time": 15.625,
                "end_time": 15.774999999999999,
                "pitch": 40,
                "velocity": 80,
                "duration": 0.14999999999999858,
                "tempo": 120.0
            },
            {
                "start_time": 15.774999999999999,
                "end_time": 15.924999999999999,
                "pitch": 40,
                "velocity": 80,
                "duration": 0.15000000000000036,
                "tempo": 120.0
            },
            {
                "start_time": 15.924999999999999,
                "end_time": 16.075,
                "pitch": 40,
                "velocity": 80,
                "duration": 0.15000000000000036,
                "tempo": 120.0
            },
            {
                "start_time": 16.075,
                "end_time": 16.224999999999998,
                "pitch": 40,
                "velocity": 80,
                "duration": 0.14999999999999858,
                "tempo": 120.0
            },
            {
                "start_time": 16.224999999999998,
                "end_time": 16.375,
                "pitch": 40,
                "velocity": 80,
                "duration": 0.15000000000000213,
                "tempo": 120.0
            },
            {
                "start_time": 16.375,
                "end_time": 16.525,
                "pitch": 40,
                "velocity": 80,
                "duration": 0.14999999999999858,
                "tempo": 120.0
            },
            {
                "start_time": 16.527272727272727,
                "end_time": 16.677272727272726,
                "pitch": 40,
                "velocity": 80,
                "duration": 0.14999999999999858,
                "tempo": 120.0
            },
            {
                "start_time": 16.677272727272726,
                "end_time": 16.829545454545453,
                "pitch": 40,
                "velocity": 80,
                "duration": 0.15227272727272734,
                "tempo": 120.0
            },
            {
                "start_time": 16.829545454545453,
                "end_time": 16.979545454545455,
                "pitch": 40,
                "velocity": 80,
                "duration": 0.15000000000000213,
                "tempo": 120.0
            },
            {
                "start_time": 16.98181818181818,
                "end_time": 17.131818181818183,
                "pitch": 40,
                "velocity": 80,
                "duration": 0.15000000000000213,
                "tempo": 120.0
            },
            {
                "start_time": 17.131818181818183,
                "end_time": 17.28181818181818,
                "pitch": 40,
                "velocity": 80,
                "duration": 0.14999999999999858,
                "tempo": 120.0
            },
            {
                "start_time": 17.284090909090907,
                "end_time": 17.43181818181818,
                "pitch": 40,
                "velocity": 80,
                "duration": 0.14772727272727337,
                "tempo": 120.0
            },
            {
                "start_time": 17.43181818181818,
                "end_time": 17.581818181818182,
                "pitch": 40,
                "velocity": 80,
                "duration": 0.15000000000000213,
                "tempo": 120.0
            },
            {
                "start_time": 17.581818181818182,
                "end_time": 17.73181818181818,
                "pitch": 40,
                "velocity": 80,
                "duration": 0.14999999999999858,
                "tempo": 120.0
            },
            {
                "start_time": 17.73409090909091,
                "end_time": 17.884090909090908,
                "pitch": 40,
                "velocity": 80,
                "duration": 0.14999999999999858,
                "tempo": 120.0
            },
            {
                "start_time": 17.884090909090908,
                "end_time": 18.036363636363635,
                "pitch": 40,
                "velocity": 80,
                "duration": 0.15227272727272734,
                "tempo": 120.0
            },
            {
                "start_time": 18.038636363636364,
                "end_time": 18.188636363636363,
                "pitch": 40,
                "velocity": 80,
                "duration": 0.14999999999999858,
                "tempo": 120.0
            },
            {
                "start_time": 18.188636363636363,
                "end_time": 18.33863636363636,
                "pitch": 40,
                "velocity": 80,
                "duration": 0.14999999999999858,
                "tempo": 120.0
            },
            {
                "start_time": 18.34090909090909,
                "end_time": 18.49090909090909,
                "pitch": 40,
                "velocity": 80,
                "duration": 0.14999999999999858,
                "tempo": 120.0
            },
            {
                "start_time": 18.493181818181817,
                "end_time": 18.643181818181816,
                "pitch": 40,
                "velocity": 80,
                "duration": 0.14999999999999858,
                "tempo": 120.0
            },
            {
                "start_time": 18.643181818181816,
                "end_time": 18.793181818181818,
                "pitch": 40,
                "velocity": 80,
                "duration": 0.15000000000000213,
                "tempo": 120.0
            },
            {
                "start_time": 18.795454545454543,
                "end_time": 18.945454545454545,
                "pitch": 40,
                "velocity": 80,
                "duration": 0.15000000000000213,
                "tempo": 120.0
            },
            {
                "start_time": 18.94772727272727,
                "end_time": 19.095454545454544,
                "pitch": 40,
                "velocity": 80,
                "duration": 0.14772727272727337,
                "tempo": 120.0
            },
            {
                "start_time": 19.097727272727273,
                "end_time": 19.24772727272727,
                "pitch": 40,
                "velocity": 80,
                "duration": 0.14999999999999858,
                "tempo": 120.0
            },
            {
                "start_time": 19.24772727272727,
                "end_time": 19.397727272727273,
                "pitch": 40,
                "velocity": 80,
                "duration": 0.15000000000000213,
                "tempo": 120.0
            },
            {
                "start_time": 19.397727272727273,
                "end_time": 19.547727272727272,
                "pitch": 40,
                "velocity": 80,
                "duration": 0.14999999999999858,
                "tempo": 120.0
            },
            {
                "start_time": 19.547727272727272,
                "end_time": 19.69772727272727,
                "pitch": 40,
                "velocity": 80,
                "duration": 0.14999999999999858,
                "tempo": 120.0
            },
            {
                "start_time": 19.7,
                "end_time": 19.849999999999998,
                "pitch": 40,
                "velocity": 80,
                "duration": 0.14999999999999858,
                "tempo": 120.0
            },
            {
                "start_time": 19.852272727272727,
                "end_time": 20.002272727272725,
                "pitch": 40,
                "velocity": 80,
                "duration": 0.14999999999999858,
                "tempo": 120.0
            },
            {
                "start_time": 20.002272727272725,
                "end_time": 20.154545454545453,
                "pitch": 40,
                "velocity": 80,
                "duration": 0.15227272727272734,
                "tempo": 120.0
            },
            {
                "start_time": 20.154545454545453,
                "end_time": 20.304545454545455,
                "pitch": 40,
                "velocity": 80,
                "duration": 0.15000000000000213,
                "tempo": 120.0
            },
            {
                "start_time": 20.304545454545455,
                "end_time": 20.454545454545453,
                "pitch": 40,
                "velocity": 80,
                "duration": 0.14999999999999858,
                "tempo": 120.0
            },
            {
                "start_time": 20.456818181818182,
                "end_time": 20.604545454545452,
                "pitch": 45,
                "velocity": 80,
                "duration": 0.14772727272726982,
                "tempo": 120.0
            },
            {
                "start_time": 20.604545454545452,
                "end_time": 20.754545454545454,
                "pitch": 45,
                "velocity": 80,
                "duration": 0.15000000000000213,
                "tempo": 120.0
            },
            {
                "start_time": 20.75681818181818,
                "end_time": 20.90681818181818,
                "pitch": 45,
                "velocity": 80,
                "duration": 0.15000000000000213,
                "tempo": 120.0
            },
            {
                "start_time": 20.90681818181818,
                "end_time": 21.05909090909091,
                "pitch": 45,
                "velocity": 80,
                "duration": 0.15227272727272734,
                "tempo": 120.0
            },
            {
                "start_time": 21.05909090909091,
                "end_time": 21.209090909090907,
                "pitch": 45,
                "velocity": 80,
                "duration": 0.14999999999999858,
                "tempo": 120.0
            },
            {
                "start_time": 21.211363636363636,
                "end_time": 21.361363636363635,
                "pitch": 45,
                "velocity": 80,
                "duration": 0.14999999999999858,
                "tempo": 120.0
            },
            {
                "start_time": 21.361363636363635,
                "end_time": 21.513636363636362,
                "pitch": 45,
                "velocity": 80,
                "duration": 0.15227272727272734,
                "tempo": 120.0
            },
            {
                "start_time": 21.513636363636362,
                "end_time": 21.66590909090909,
                "pitch": 45,
                "velocity": 80,
                "duration": 0.15227272727272734,
                "tempo": 120.0
            },
            {
                "start_time": 21.66590909090909,
                "end_time": 21.81590909090909,
                "pitch": 45,
                "velocity": 80,
                "duration": 0.15000000000000213,
                "tempo": 120.0
            },
            {
                "start_time": 21.818181818181817,
                "end_time": 21.96818181818182,
                "pitch": 45,
                "velocity": 80,
                "duration": 0.15000000000000213,
                "tempo": 120.0
            },
            {
                "start_time": 21.970454545454544,
                "end_time": 22.118181818181817,
                "pitch": 45,
                "velocity": 80,
                "duration": 0.14772727272727337,
                "tempo": 120.0
            },
            {
                "start_time": 22.120454545454546,
                "end_time": 22.268181818181816,
                "pitch": 45,
                "velocity": 80,
                "duration": 0.14772727272726982,
                "tempo": 120.0
            },
            {
                "start_time": 22.270454545454545,
                "end_time": 22.418181818181818,
                "pitch": 45,
                "velocity": 80,
                "duration": 0.14772727272727337,
                "tempo": 120.0
            },
            {
                "start_time": 22.420454545454543,
                "end_time": 22.568181818181817,
                "pitch": 45,
                "velocity": 80,
                "duration": 0.14772727272727337,
                "tempo": 120.0
            },
            {
                "start_time": 22.570454545454545,
                "end_time": 22.722727272727273,
                "pitch": 45,
                "velocity": 80,
                "duration": 0.15227272727272734,
                "tempo": 120.0
            },
            {
                "start_time": 22.722727272727273,
                "end_time": 22.877272727272725,
                "pitch": 45,
                "velocity": 80,
                "duration": 0.15454545454545254,
                "tempo": 120.0
            },
            {
                "start_time": 22.877272727272725,
                "end_time": 23.029545454545453,
                "pitch": 45,
                "velocity": 80,
                "duration": 0.15227272727272734,
                "tempo": 120.0
            },
            {
                "start_time": 23.029545454545453,
                "end_time": 23.18181818181818,
                "pitch": 45,
                "velocity": 80,
                "duration": 0.15227272727272734,
                "tempo": 120.0
            },
            {
                "start_time": 23.18409090909091,
                "end_time": 23.334090909090907,
                "pitch": 45,
                "velocity": 80,
                "duration": 0.14999999999999858,
                "tempo": 120.0
            },
            {
                "start_time": 23.334090909090907,
                "end_time": 23.486363636363635,
                "pitch": 45,
                "velocity": 80,
                "duration": 0.15227272727272734,
                "tempo": 120.0
            },
            {
                "start_time": 23.486363636363635,
                "end_time": 23.638636363636362,
                "pitch": 45,
                "velocity": 80,
                "duration": 0.15227272727272734,
                "tempo": 120.0
            },
            {
                "start_time": 23.638636363636362,
                "end_time": 23.788636363636364,
                "pitch": 45,
                "velocity": 80,
                "duration": 0.15000000000000213,
                "tempo": 120.0
            },
            {
                "start_time": 23.79090909090909,
                "end_time": 23.94090909090909,
                "pitch": 45,
                "velocity": 80,
                "duration": 0.15000000000000213,
                "tempo": 120.0
            },
            {
                "start_time": 23.94090909090909,
                "end_time": 24.09318181818182,
                "pitch": 45,
                "velocity": 80,
                "duration": 0.15227272727272734,
                "tempo": 120.0
            },
            {
                "start_time": 24.095454545454544,
                "end_time": 24.245454545454546,
                "pitch": 43,
                "velocity": 80,
                "duration": 0.15000000000000213,
                "tempo": 120.0
            },
            {
                "start_time": 24.245454545454546,
                "end_time": 24.395454545454545,
                "pitch": 43,
                "velocity": 80,
                "duration": 0.14999999999999858,
                "tempo": 120.0
            },
            {
                "start_time": 24.39772727272727,
                "end_time": 24.545454545454543,
                "pitch": 43,
                "velocity": 80,
                "duration": 0.14772727272727337,
                "tempo": 120.0
            },
            {
                "start_time": 24.547727272727272,
                "end_time": 24.695454545454545,
                "pitch": 43,
                "velocity": 80,
                "duration": 0.14772727272727337,
                "tempo": 120.0
            },
            {
                "start_time": 24.69772727272727,
                "end_time": 24.845454545454544,
                "pitch": 43,
                "velocity": 80,
                "duration": 0.14772727272727337,
                "tempo": 120.0
            },
            {
                "start_time": 24.847727272727273,
                "end_time": 24.99772727272727,
                "pitch": 43,
                "velocity": 80,
                "duration": 0.14999999999999858,
                "tempo": 120.0
            },
            {
                "start_time": 24.99772727272727,
                "end_time": 25.14772727272727,
                "pitch": 43,
                "velocity": 80,
                "duration": 0.14999999999999858,
                "tempo": 120.0
            },
            {
                "start_time": 25.15,
                "end_time": 25.299999999999997,
                "pitch": 43,
                "velocity": 80,
                "duration": 0.14999999999999858,
                "tempo": 120.0
            },
            {
                "start_time": 25.302272727272726,
                "end_time": 25.452272727272724,
                "pitch": 41,
                "velocity": 80,
                "duration": 0.14999999999999858,
                "tempo": 120.0
            },
            {
                "start_time": 25.452272727272724,
                "end_time": 25.602272727272727,
                "pitch": 41,
                "velocity": 80,
                "duration": 0.15000000000000213,
                "tempo": 120.0
            },
            {
                "start_time": 25.604545454545452,
                "end_time": 25.754545454545454,
                "pitch": 41,
                "velocity": 80,
                "duration": 0.15000000000000213,
                "tempo": 120.0
            },
            {
                "start_time": 25.754545454545454,
                "end_time": 25.904545454545453,
                "pitch": 41,
                "velocity": 80,
                "duration": 0.14999999999999858,
                "tempo": 120.0
            },
            {
                "start_time": 25.904545454545453,
                "end_time": 26.054545454545455,
                "pitch": 41,
                "velocity": 80,
                "duration": 0.15000000000000213,
                "tempo": 120.0
            },
            {
                "start_time": 26.054545454545455,
                "end_time": 26.204545454545453,
                "pitch": 41,
                "velocity": 80,
                "duration": 0.14999999999999858,
                "tempo": 120.0
            },
            {
                "start_time": 26.204545454545453,
                "end_time": 26.35681818181818,
                "pitch": 41,
                "velocity": 80,
                "duration": 0.15227272727272734,
                "tempo": 120.0
            },
            {
                "start_time": 26.35681818181818,
                "end_time": 26.509090909090908,
                "pitch": 41,
                "velocity": 80,
                "duration": 0.15227272727272734,
                "tempo": 120.0
            },
            {
                "start_time": 26.509090909090908,
                "end_time": 26.659090909090907,
                "pitch": 40,
                "velocity": 80,
                "duration": 0.14999999999999858,
                "tempo": 120.0
            },
            {
                "start_time": 26.659090909090907,
                "end_time": 26.811363636363634,
                "pitch": 40,
                "velocity": 80,
                "duration": 0.15227272727272734,
                "tempo": 120.0
            },
            {
                "start_time": 26.811363636363634,
                "end_time": 26.96363636363636,
                "pitch": 40,
                "velocity": 80,
                "duration": 0.15227272727272734,
                "tempo": 120.0
            },
            {
                "start_time": 26.96363636363636,
                "end_time": 27.113636363636363,
                "pitch": 40,
                "velocity": 80,
                "duration": 0.15000000000000213,
                "tempo": 120.0
            },
            {
                "start_time": 27.11590909090909,
                "end_time": 27.26590909090909,
                "pitch": 40,
                "velocity": 80,
                "duration": 0.15000000000000213,
                "tempo": 120.0
            },
            {
                "start_time": 27.268181818181816,
                "end_time": 27.418181818181818,
                "pitch": 40,
                "velocity": 80,
                "duration": 0.15000000000000213,
                "tempo": 120.0
            },
            {
                "start_time": 27.418181818181818,
                "end_time": 27.568181818181817,
                "pitch": 40,
                "velocity": 80,
                "duration": 0.14999999999999858,
                "tempo": 120.0
            },
            {
                "start_time": 27.568181818181817,
                "end_time": 27.718181818181815,
                "pitch": 40,
                "velocity": 80,
                "duration": 0.14999999999999858,
                "tempo": 120.0
            },
            {
                "start_time": 27.720454545454544,
                "end_time": 27.868181818181817,
                "pitch": 40,
                "velocity": 80,
                "duration": 0.14772727272727337,
                "tempo": 120.0
            },
            {
                "start_time": 27.868181818181817,
                "end_time": 28.018181818181816,
                "pitch": 40,
                "velocity": 80,
                "duration": 0.14999999999999858,
                "tempo": 120.0
            },
            {
                "start_time": 28.020454545454545,
                "end_time": 28.170454545454543,
                "pitch": 40,
                "velocity": 80,
                "duration": 0.14999999999999858,
                "tempo": 120.0
            },
            {
                "start_time": 28.170454545454543,
                "end_time": 28.32272727272727,
                "pitch": 40,
                "velocity": 80,
                "duration": 0.15227272727272734,
                "tempo": 120.0
            },
            {
                "start_time": 28.32272727272727,
                "end_time": 28.472727272727273,
                "pitch": 40,
                "velocity": 80,
                "duration": 0.15000000000000213,
                "tempo": 120.0
            },
            {
                "start_time": 28.474999999999998,
                "end_time": 28.625,
                "pitch": 40,
                "velocity": 80,
                "duration": 0.15000000000000213,
                "tempo": 120.0
            },
            {
                "start_time": 28.627272727272725,
                "end_time": 28.775,
                "pitch": 40,
                "velocity": 80,
                "duration": 0.14772727272727337,
                "tempo": 120.0
            },
            {
                "start_time": 28.777272727272727,
                "end_time": 28.927272727272726,
                "pitch": 40,
                "velocity": 80,
                "duration": 0.14999999999999858,
                "tempo": 120.0
            },
            {
                "start_time": 28.927272727272726,
                "end_time": 29.075,
                "pitch": 40,
                "velocity": 80,
                "duration": 0.14772727272727337,
                "tempo": 120.0
            },
            {
                "start_time": 29.077272727272724,
                "end_time": 29.224999999999998,
                "pitch": 40,
                "velocity": 80,
                "duration": 0.14772727272727337,
                "tempo": 120.0
            },
            {
                "start_time": 29.227272727272727,
                "end_time": 29.377272727272725,
                "pitch": 40,
                "velocity": 80,
                "duration": 0.14999999999999858,
                "tempo": 120.0
            },
            {
                "start_time": 29.379545454545454,
                "end_time": 29.529545454545453,
                "pitch": 40,
                "velocity": 80,
                "duration": 0.14999999999999858,
                "tempo": 120.0
            },
            {
                "start_time": 29.529545454545453,
                "end_time": 29.68181818181818,
                "pitch": 40,
                "velocity": 80,
                "duration": 0.15227272727272734,
                "tempo": 120.0
            },
            {
                "start_time": 29.68181818181818,
                "end_time": 29.834090909090907,
                "pitch": 40,
                "velocity": 80,
                "duration": 0.15227272727272734,
                "tempo": 120.0
            },
            {
                "start_time": 29.834090909090907,
                "end_time": 29.98409090909091,
                "pitch": 40,
                "velocity": 80,
                "duration": 0.15000000000000213,
                "tempo": 120.0
            },
            {
                "start_time": 29.986363636363635,
                "end_time": 30.136363636363633,
                "pitch": 40,
                "velocity": 80,
                "duration": 0.14999999999999858,
                "tempo": 120.0
            },
            {
                "start_time": 30.138636363636362,
                "end_time": 30.28863636363636,
                "pitch": 40,
                "velocity": 80,
                "duration": 0.14999999999999858,
                "tempo": 120.0
            },
            {
                "start_time": 30.28863636363636,
                "end_time": 30.438636363636363,
                "pitch": 40,
                "velocity": 80,
                "duration": 0.15000000000000213,
                "tempo": 120.0
            },
            {
                "start_time": 30.440909090909088,
                "end_time": 30.593181818181815,
                "pitch": 40,
                "velocity": 80,
                "duration": 0.15227272727272734,
                "tempo": 120.0
            },
            {
                "start_time": 30.593181818181815,
                "end_time": 30.745454545454542,
                "pitch": 40,
                "velocity": 80,
                "duration": 0.15227272727272734,
                "tempo": 120.0
            },
            {
                "start_time": 30.74772727272727,
                "end_time": 30.9,
                "pitch": 40,
                "velocity": 80,
                "duration": 0.15227272727272734,
                "tempo": 120.0
            },
            {
                "start_time": 30.9,
                "end_time": 31.052272727272726,
                "pitch": 40,
                "velocity": 80,
                "duration": 0.15227272727272734,
                "tempo": 120.0
            },
            {
                "start_time": 31.054545454545455,
                "end_time": 31.202272727272724,
                "pitch": 40,
                "velocity": 80,
                "duration": 0.14772727272726982,
                "tempo": 120.0
            },
            {
                "start_time": 31.204545454545453,
                "end_time": 31.354545454545452,
                "pitch": 40,
                "velocity": 80,
                "duration": 0.14999999999999858,
                "tempo": 120.0
            },
            {
                "start_time": 31.35681818181818,
                "end_time": 31.504545454545454,
                "pitch": 45,
                "velocity": 80,
                "duration": 0.14772727272727337,
                "tempo": 120.0
            },
            {
                "start_time": 31.504545454545454,
                "end_time": 31.654545454545453,
                "pitch": 45,
                "velocity": 80,
                "duration": 0.14999999999999858,
                "tempo": 120.0
            },
            {
                "start_time": 31.654545454545453,
                "end_time": 31.804545454545455,
                "pitch": 45,
                "velocity": 80,
                "duration": 0.15000000000000213,
                "tempo": 120.0
            },
            {
                "start_time": 31.80681818181818,
                "end_time": 31.956818181818182,
                "pitch": 45,
                "velocity": 80,
                "duration": 0.15000000000000213,
                "tempo": 120.0
            },
            {
                "start_time": 31.956818181818182,
                "end_time": 32.10909090909091,
                "pitch": 45,
                "velocity": 80,
                "duration": 0.15227272727272734,
                "tempo": 120.0
            },
            {
                "start_time": 32.10909090909091,
                "end_time": 32.25909090909091,
                "pitch": 45,
                "velocity": 80,
                "duration": 0.14999999999999858,
                "tempo": 120.0
            },
            {
                "start_time": 32.26136363636363,
                "end_time": 32.41136363636363,
                "pitch": 45,
                "velocity": 80,
                "duration": 0.14999999999999858,
                "tempo": 120.0
            },
            {
                "start_time": 32.413636363636364,
                "end_time": 32.56363636363636,
                "pitch": 45,
                "velocity": 80,
                "duration": 0.14999999999999858,
                "tempo": 120.0
            },
            {
                "start_time": 32.56590909090909,
                "end_time": 32.715909090909086,
                "pitch": 45,
                "velocity": 80,
                "duration": 0.14999999999999858,
                "tempo": 120.0
            },
            {
                "start_time": 32.715909090909086,
                "end_time": 32.86818181818182,
                "pitch": 45,
                "velocity": 80,
                "duration": 0.1522727272727309,
                "tempo": 120.0
            },
            {
                "start_time": 32.86818181818182,
                "end_time": 33.018181818181816,
                "pitch": 45,
                "velocity": 80,
                "duration": 0.14999999999999858,
                "tempo": 120.0
            },
            {
                "start_time": 33.02045454545454,
                "end_time": 33.17045454545455,
                "pitch": 45,
                "velocity": 80,
                "duration": 0.15000000000000568,
                "tempo": 120.0
            },
            {
                "start_time": 33.17045454545455,
                "end_time": 33.32272727272727,
                "pitch": 45,
                "velocity": 80,
                "duration": 0.15227272727272378,
                "tempo": 120.0
            },
            {
                "start_time": 33.32272727272727,
                "end_time": 33.47272727272727,
                "pitch": 45,
                "velocity": 80,
                "duration": 0.14999999999999858,
                "tempo": 120.0
            },
            {
                "start_time": 33.475,
                "end_time": 33.62272727272727,
                "pitch": 45,
                "velocity": 80,
                "duration": 0.14772727272726627,
                "tempo": 120.0
            },
            {
                "start_time": 33.625,
                "end_time": 33.775,
                "pitch": 45,
                "velocity": 80,
                "duration": 0.14999999999999858,
                "tempo": 120.0
            },
            {
                "start_time": 33.777272727272724,
                "end_time": 33.925,
                "pitch": 43,
                "velocity": 80,
                "duration": 0.14772727272727337,
                "tempo": 120.0
            },
            {
                "start_time": 33.925,
                "end_time": 34.074999999999996,
                "pitch": 43,
                "velocity": 80,
                "duration": 0.14999999999999858,
                "tempo": 120.0
            },
            {
                "start_time": 34.074999999999996,
                "end_time": 34.22727272727273,
                "pitch": 43,
                "velocity": 80,
                "duration": 0.1522727272727309,
                "tempo": 120.0
            },
            {
                "start_time": 34.22727272727273,
                "end_time": 34.37954545454545,
                "pitch": 43,
                "velocity": 80,
                "duration": 0.15227272727272378,
                "tempo": 120.0
            },
            {
                "start_time": 34.37954545454545,
                "end_time": 34.529545454545456,
                "pitch": 43,
                "velocity": 80,
                "duration": 0.15000000000000568,
                "tempo": 120.0
            },
            {
                "start_time": 34.53181818181818,
                "end_time": 34.68181818181818,
                "pitch": 43,
                "velocity": 80,
                "duration": 0.14999999999999858,
                "tempo": 120.0
            },
            {
                "start_time": 34.68181818181818,
                "end_time": 34.83409090909091,
                "pitch": 43,
                "velocity": 80,
                "duration": 0.1522727272727309,
                "tempo": 120.0
            },
            {
                "start_time": 34.83409090909091,
                "end_time": 34.986363636363635,
                "pitch": 43,
                "velocity": 80,
                "duration": 0.15227272727272378,
                "tempo": 120.0
            },
            {
                "start_time": 34.986363636363635,
                "end_time": 35.13636363636363,
                "pitch": 43,
                "velocity": 80,
                "duration": 0.14999999999999858,
                "tempo": 120.0
            },
            {
                "start_time": 35.138636363636365,
                "end_time": 35.288636363636364,
                "pitch": 43,
                "velocity": 80,
                "duration": 0.14999999999999858,
                "tempo": 120.0
            },
            {
                "start_time": 35.288636363636364,
                "end_time": 35.44090909090909,
                "pitch": 43,
                "velocity": 80,
                "duration": 0.15227272727272378,
                "tempo": 120.0
            },
            {
                "start_time": 35.44090909090909,
                "end_time": 35.59318181818182,
                "pitch": 43,
                "velocity": 80,
                "duration": 0.1522727272727309,
                "tempo": 120.0
            },
            {
                "start_time": 35.59318181818182,
                "end_time": 35.74318181818182,
                "pitch": 43,
                "velocity": 80,
                "duration": 0.14999999999999858,
                "tempo": 120.0
            },
            {
                "start_time": 35.74545454545454,
                "end_time": 35.89545454545454,
                "pitch": 43,
                "velocity": 80,
                "duration": 0.14999999999999858,
                "tempo": 120.0
            },
            {
                "start_time": 35.89545454545454,
                "end_time": 36.04772727272727,
                "pitch": 43,
                "velocity": 80,
                "duration": 0.1522727272727309,
                "tempo": 120.0
            },
            {
                "start_time": 36.04772727272727,
                "end_time": 36.199999999999996,
                "pitch": 43,
                "velocity": 80,
                "duration": 0.15227272727272378,
                "tempo": 120.0
            },
            {
                "start_time": 36.199999999999996,
                "end_time": 36.35,
                "pitch": 41,
                "velocity": 80,
                "duration": 0.15000000000000568,
                "tempo": 120.0
            },
            {
                "start_time": 36.35227272727273,
                "end_time": 36.502272727272725,
                "pitch": 41,
                "velocity": 80,
                "duration": 0.14999999999999858,
                "tempo": 120.0
            },
            {
                "start_time": 36.502272727272725,
                "end_time": 36.652272727272724,
                "pitch": 41,
                "velocity": 80,
                "duration": 0.14999999999999858,
                "tempo": 120.0
            },
            {
                "start_time": 36.652272727272724,
                "end_time": 36.80227272727272,
                "pitch": 41,
                "velocity": 80,
                "duration": 0.14999999999999858,
                "tempo": 120.0
            },
            {
                "start_time": 36.804545454545455,
                "end_time": 36.95227272727273,
                "pitch": 41,
                "velocity": 80,
                "duration": 0.14772727272727337,
                "tempo": 120.0
            },
            {
                "start_time": 36.95227272727273,
                "end_time": 37.10227272727273,
                "pitch": 41,
                "velocity": 80,
                "duration": 0.14999999999999858,
                "tempo": 120.0
            },
            {
                "start_time": 37.10454545454545,
                "end_time": 37.25454545454545,
                "pitch": 41,
                "velocity": 80,
                "duration": 0.14999999999999858,
                "tempo": 120.0
            },
            {
                "start_time": 37.25681818181818,
                "end_time": 37.40681818181818,
                "pitch": 41,
                "velocity": 80,
                "duration": 0.14999999999999858,
                "tempo": 120.0
            },
            {
                "start_time": 37.40909090909091,
                "end_time": 37.559090909090905,
                "pitch": 41,
                "velocity": 80,
                "duration": 0.14999999999999858,
                "tempo": 120.0
            },
            {
                "start_time": 37.559090909090905,
                "end_time": 37.70909090909091,
                "pitch": 41,
                "velocity": 80,
                "duration": 0.15000000000000568,
                "tempo": 120.0
            },
            {
                "start_time": 37.711363636363636,
                "end_time": 37.861363636363635,
                "pitch": 41,
                "velocity": 80,
                "duration": 0.14999999999999858,
                "tempo": 120.0
            },
            {
                "start_time": 37.861363636363635,
                "end_time": 38.01363636363636,
                "pitch": 41,
                "velocity": 80,
                "duration": 0.15227272727272378,
                "tempo": 120.0
            },
            {
                "start_time": 38.01363636363636,
                "end_time": 38.16590909090909,
                "pitch": 41,
                "velocity": 80,
                "duration": 0.1522727272727309,
                "tempo": 120.0
            },
            {
                "start_time": 38.16590909090909,
                "end_time": 38.31590909090909,
                "pitch": 41,
                "velocity": 80,
                "duration": 0.14999999999999858,
                "tempo": 120.0
            },
            {
                "start_time": 38.31818181818181,
                "end_time": 38.46818181818182,
                "pitch": 41,
                "velocity": 80,
                "duration": 0.15000000000000568,
                "tempo": 120.0
            },
            {
                "start_time": 38.46818181818182,
                "end_time": 38.62045454545454,
                "pitch": 41,
                "velocity": 80,
                "duration": 0.15227272727272378,
                "tempo": 120.0
            },
            {
                "start_time": 38.62272727272727,
                "end_time": 38.77272727272727,
                "pitch": 40,
                "velocity": 80,
                "duration": 0.15000000000000568,
                "tempo": 120.0
            },
            {
                "start_time": 38.77272727272727,
                "end_time": 38.92272727272727,
                "pitch": 40,
                "velocity": 80,
                "duration": 0.14999999999999858,
                "tempo": 120.0
            },
            {
                "start_time": 38.925,
                "end_time": 39.07727272727273,
                "pitch": 40,
                "velocity": 80,
                "duration": 0.1522727272727309,
                "tempo": 120.0
            },
            {
                "start_time": 39.07727272727273,
                "end_time": 39.22954545454545,
                "pitch": 40,
                "velocity": 80,
                "duration": 0.15227272727272378,
                "tempo": 120.0
            },
            {
                "start_time": 39.23181818181818,
                "end_time": 39.38409090909091,
                "pitch": 40,
                "velocity": 80,
                "duration": 0.1522727272727309,
                "tempo": 120.0
            },
            {
                "start_time": 39.38409090909091,
                "end_time": 39.53636363636363,
                "pitch": 40,
                "velocity": 80,
                "duration": 0.15227272727272378,
                "tempo": 120.0
            },
            {
                "start_time": 39.538636363636364,
                "end_time": 39.68863636363636,
                "pitch": 40,
                "velocity": 80,
                "duration": 0.14999999999999858,
                "tempo": 120.0
            },
            {
                "start_time": 39.68863636363636,
                "end_time": 39.840909090909086,
                "pitch": 40,
                "velocity": 80,
                "duration": 0.15227272727272378,
                "tempo": 120.0
            },
            {
                "start_time": 39.840909090909086,
                "end_time": 39.99090909090909,
                "pitch": 40,
                "velocity": 80,
                "duration": 0.15000000000000568,
                "tempo": 120.0
            },
            {
                "start_time": 39.99318181818182,
                "end_time": 40.143181818181816,
                "pitch": 40,
                "velocity": 80,
                "duration": 0.14999999999999858,
                "tempo": 120.0
            },
            {
                "start_time": 40.143181818181816,
                "end_time": 40.293181818181814,
                "pitch": 40,
                "velocity": 80,
                "duration": 0.14999999999999858,
                "tempo": 120.0
            },
            {
                "start_time": 40.29545454545455,
                "end_time": 40.44318181818181,
                "pitch": 40,
                "velocity": 80,
                "duration": 0.14772727272726627,
                "tempo": 120.0
            },
            {
                "start_time": 40.445454545454545,
                "end_time": 40.59318181818182,
                "pitch": 40,
                "velocity": 80,
                "duration": 0.14772727272727337,
                "tempo": 120.0
            },
            {
                "start_time": 40.595454545454544,
                "end_time": 40.74545454545454,
                "pitch": 40,
                "velocity": 80,
                "duration": 0.14999999999999858,
                "tempo": 120.0
            },
            {
                "start_time": 40.74545454545454,
                "end_time": 40.89545454545454,
                "pitch": 40,
                "velocity": 80,
                "duration": 0.14999999999999858,
                "tempo": 120.0
            },
            {
                "start_time": 40.89545454545454,
                "end_time": 41.04772727272727,
                "pitch": 40,
                "velocity": 80,
                "duration": 0.1522727272727309,
                "tempo": 120.0
            },
            {
                "start_time": 41.05,
                "end_time": 41.199999999999996,
                "pitch": 45,
                "velocity": 80,
                "duration": 0.14999999999999858,
                "tempo": 120.0
            },
            {
                "start_time": 41.199999999999996,
                "end_time": 41.35,
                "pitch": 45,
                "velocity": 80,
                "duration": 0.15000000000000568,
                "tempo": 120.0
            },
            {
                "start_time": 41.35227272727273,
                "end_time": 41.502272727272725,
                "pitch": 45,
                "velocity": 80,
                "duration": 0.14999999999999858,
                "tempo": 120.0
            },
            {
                "start_time": 41.502272727272725,
                "end_time": 41.65454545454545,
                "pitch": 45,
                "velocity": 80,
                "duration": 0.15227272727272378,
                "tempo": 120.0
            },
            {
                "start_time": 41.65454545454545,
                "end_time": 41.80681818181818,
                "pitch": 45,
                "velocity": 80,
                "duration": 0.1522727272727309,
                "tempo": 120.0
            },
            {
                "start_time": 41.80681818181818,
                "end_time": 41.95681818181818,
                "pitch": 45,
                "velocity": 80,
                "duration": 0.14999999999999858,
                "tempo": 120.0
            },
            {
                "start_time": 41.959090909090904,
                "end_time": 42.10909090909091,
                "pitch": 45,
                "velocity": 80,
                "duration": 0.15000000000000568,
                "tempo": 120.0
            },
            {
                "start_time": 42.111363636363635,
                "end_time": 42.26136363636363,
                "pitch": 45,
                "velocity": 80,
                "duration": 0.14999999999999858,
                "tempo": 120.0
            },
            {
                "start_time": 42.26363636363636,
                "end_time": 42.413636363636364,
                "pitch": 45,
                "velocity": 80,
                "duration": 0.15000000000000568,
                "tempo": 120.0
            },
            {
                "start_time": 42.413636363636364,
                "end_time": 42.56363636363636,
                "pitch": 45,
                "velocity": 80,
                "duration": 0.14999999999999858,
                "tempo": 120.0
            },
            {
                "start_time": 42.56590909090909,
                "end_time": 42.715909090909086,
                "pitch": 45,
                "velocity": 80,
                "duration": 0.14999999999999858,
                "tempo": 120.0
            },
            {
                "start_time": 42.71818181818182,
                "end_time": 42.86818181818182,
                "pitch": 45,
                "velocity": 80,
                "duration": 0.14999999999999858,
                "tempo": 120.0
            },
            {
                "start_time": 42.86818181818182,
                "end_time": 43.02045454545454,
                "pitch": 45,
                "velocity": 80,
                "duration": 0.15227272727272378,
                "tempo": 120.0
            },
            {
                "start_time": 43.02045454545454,
                "end_time": 43.17045454545455,
                "pitch": 45,
                "velocity": 80,
                "duration": 0.15000000000000568,
                "tempo": 120.0
            },
            {
                "start_time": 43.17272727272727,
                "end_time": 43.320454545454545,
                "pitch": 45,
                "velocity": 80,
                "duration": 0.14772727272727337,
                "tempo": 120.0
            },
            {
                "start_time": 43.32272727272727,
                "end_time": 43.47272727272727,
                "pitch": 45,
                "velocity": 80,
                "duration": 0.14999999999999858,
                "tempo": 120.0
            },
            {
                "start_time": 43.475,
                "end_time": 43.62272727272727,
                "pitch": 43,
                "velocity": 80,
                "duration": 0.14772727272726627,
                "tempo": 120.0
            },
            {
                "start_time": 43.62272727272727,
                "end_time": 43.77272727272727,
                "pitch": 43,
                "velocity": 80,
                "duration": 0.15000000000000568,
                "tempo": 120.0
            },
            {
                "start_time": 43.77272727272727,
                "end_time": 43.925,
                "pitch": 43,
                "velocity": 80,
                "duration": 0.15227272727272378,
                "tempo": 120.0
            },
            {
                "start_time": 43.925,
                "end_time": 44.074999999999996,
                "pitch": 43,
                "velocity": 80,
                "duration": 0.14999999999999858,
                "tempo": 120.0
            },
            {
                "start_time": 44.07727272727273,
                "end_time": 44.22727272727273,
                "pitch": 43,
                "velocity": 80,
                "duration": 0.14999999999999858,
                "tempo": 120.0
            },
            {
                "start_time": 44.22727272727273,
                "end_time": 44.37954545454545,
                "pitch": 43,
                "velocity": 80,
                "duration": 0.15227272727272378,
                "tempo": 120.0
            },
            {
                "start_time": 44.37954545454545,
                "end_time": 44.52954545454545,
                "pitch": 43,
                "velocity": 80,
                "duration": 0.14999999999999858,
                "tempo": 120.0
            },
            {
                "start_time": 44.53181818181818,
                "end_time": 44.684090909090905,
                "pitch": 43,
                "velocity": 80,
                "duration": 0.15227272727272378,
                "tempo": 120.0
            },
            {
                "start_time": 44.684090909090905,
                "end_time": 44.834090909090904,
                "pitch": 43,
                "velocity": 80,
                "duration": 0.14999999999999858,
                "tempo": 120.0
            },
            {
                "start_time": 44.834090909090904,
                "end_time": 44.986363636363635,
                "pitch": 43,
                "velocity": 80,
                "duration": 0.1522727272727309,
                "tempo": 120.0
            },
            {
                "start_time": 44.986363636363635,
                "end_time": 45.13863636363636,
                "pitch": 43,
                "velocity": 80,
                "duration": 0.15227272727272378,
                "tempo": 120.0
            },
            {
                "start_time": 45.13863636363636,
                "end_time": 45.288636363636364,
                "pitch": 43,
                "velocity": 80,
                "duration": 0.15000000000000568,
                "tempo": 120.0
            },
            {
                "start_time": 45.29090909090909,
                "end_time": 45.44090909090909,
                "pitch": 43,
                "velocity": 80,
                "duration": 0.14999999999999858,
                "tempo": 120.0
            },
            {
                "start_time": 45.44090909090909,
                "end_time": 45.59318181818182,
                "pitch": 43,
                "velocity": 80,
                "duration": 0.1522727272727309,
                "tempo": 120.0
            },
            {
                "start_time": 45.59318181818182,
                "end_time": 45.74318181818182,
                "pitch": 43,
                "velocity": 80,
                "duration": 0.14999999999999858,
                "tempo": 120.0
            },
            {
                "start_time": 45.74545454545454,
                "end_time": 45.89772727272727,
                "pitch": 43,
                "velocity": 80,
                "duration": 0.1522727272727309,
                "tempo": 120.0
            },
            {
                "start_time": 45.89772727272727,
                "end_time": 46.04772727272727,
                "pitch": 41,
                "velocity": 80,
                "duration": 0.14999999999999858,
                "tempo": 120.0
            },
            {
                "start_time": 46.04772727272727,
                "end_time": 46.199999999999996,
                "pitch": 41,
                "velocity": 80,
                "duration": 0.15227272727272378,
                "tempo": 120.0
            },
            {
                "start_time": 46.199999999999996,
                "end_time": 46.349999999999994,
                "pitch": 41,
                "velocity": 80,
                "duration": 0.14999999999999858,
                "tempo": 120.0
            },
            {
                "start_time": 46.349999999999994,
                "end_time": 46.5,
                "pitch": 41,
                "velocity": 80,
                "duration": 0.15000000000000568,
                "tempo": 120.0
            },
            {
                "start_time": 46.5,
                "end_time": 46.65,
                "pitch": 41,
                "velocity": 80,
                "duration": 0.14999999999999858,
                "tempo": 120.0
            },
            {
                "start_time": 46.65,
                "end_time": 46.80227272727272,
                "pitch": 41,
                "velocity": 80,
                "duration": 0.15227272727272378,
                "tempo": 120.0
            },
            {
                "start_time": 46.80227272727272,
                "end_time": 46.95227272727273,
                "pitch": 41,
                "velocity": 80,
                "duration": 0.15000000000000568,
                "tempo": 120.0
            },
            {
                "start_time": 46.95454545454545,
                "end_time": 47.10454545454545,
                "pitch": 41,
                "velocity": 80,
                "duration": 0.14999999999999858,
                "tempo": 120.0
            },
            {
                "start_time": 47.10454545454545,
                "end_time": 47.25454545454545,
                "pitch": 41,
                "velocity": 80,
                "duration": 0.14999999999999858,
                "tempo": 120.0
            },
            {
                "start_time": 47.25681818181818,
                "end_time": 47.40681818181818,
                "pitch": 41,
                "velocity": 80,
                "duration": 0.14999999999999858,
                "tempo": 120.0
            },
            {
                "start_time": 47.40909090909091,
                "end_time": 47.56136363636364,
                "pitch": 41,
                "velocity": 80,
                "duration": 0.1522727272727309,
                "tempo": 120.0
            },
            {
                "start_time": 47.56136363636364,
                "end_time": 47.71363636363636,
                "pitch": 41,
                "velocity": 80,
                "duration": 0.15227272727272378,
                "tempo": 120.0
            },
            {
                "start_time": 47.71363636363636,
                "end_time": 47.86818181818182,
                "pitch": 41,
                "velocity": 80,
                "duration": 0.1545454545454561,
                "tempo": 120.0
            },
            {
                "start_time": 47.86818181818182,
                "end_time": 48.02045454545454,
                "pitch": 41,
                "velocity": 80,
                "duration": 0.15227272727272378,
                "tempo": 120.0
            },
            {
                "start_time": 48.02045454545454,
                "end_time": 48.17272727272727,
                "pitch": 41,
                "velocity": 80,
                "duration": 0.1522727272727309,
                "tempo": 120.0
            },
            {
                "start_time": 48.17272727272727,
                "end_time": 48.324999999999996,
                "pitch": 41,
                "velocity": 80,
                "duration": 0.15227272727272378,
                "tempo": 120.0
            },
            {
                "start_time": 48.324999999999996,
                "end_time": 48.474999999999994,
                "pitch": 40,
                "velocity": 80,
                "duration": 0.14999999999999858,
                "tempo": 120.0
            },
            {
                "start_time": 48.47727272727273,
                "end_time": 48.627272727272725,
                "pitch": 40,
                "velocity": 80,
                "duration": 0.14999999999999858,
                "tempo": 120.0
            },
            {
                "start_time": 48.627272727272725,
                "end_time": 48.77954545454545,
                "pitch": 40,
                "velocity": 80,
                "duration": 0.15227272727272378,
                "tempo": 120.0
            },
            {
                "start_time": 48.77954545454545,
                "end_time": 48.93181818181818,
                "pitch": 40,
                "velocity": 80,
                "duration": 0.1522727272727309,
                "tempo": 120.0
            },
            {
                "start_time": 48.93181818181818,
                "end_time": 49.08181818181818,
                "pitch": 40,
                "velocity": 80,
                "duration": 0.14999999999999858,
                "tempo": 120.0
            },
            {
                "start_time": 49.084090909090904,
                "end_time": 49.23409090909091,
                "pitch": 40,
                "velocity": 80,
                "duration": 0.15000000000000568,
                "tempo": 120.0
            },
            {
                "start_time": 49.23409090909091,
                "end_time": 49.38636363636363,
                "pitch": 40,
                "velocity": 80,
                "duration": 0.15227272727272378,
                "tempo": 120.0
            },
            {
                "start_time": 49.38636363636363,
                "end_time": 49.538636363636364,
                "pitch": 40,
                "velocity": 80,
                "duration": 0.1522727272727309,
                "tempo": 120.0
            },
            {
                "start_time": 49.538636363636364,
                "end_time": 49.68863636363636,
                "pitch": 40,
                "velocity": 80,
                "duration": 0.14999999999999858,
                "tempo": 120.0
            },
            {
                "start_time": 49.69090909090909,
                "end_time": 49.840909090909086,
                "pitch": 40,
                "velocity": 80,
                "duration": 0.14999999999999858,
                "tempo": 120.0
            },
            {
                "start_time": 49.840909090909086,
                "end_time": 49.99318181818182,
                "pitch": 40,
                "velocity": 80,
                "duration": 0.1522727272727309,
                "tempo": 120.0
            },
            {
                "start_time": 49.99318181818182,
                "end_time": 50.14545454545454,
                "pitch": 40,
                "velocity": 80,
                "duration": 0.15227272727272378,
                "tempo": 120.0
            },
            {
                "start_time": 50.14545454545454,
                "end_time": 50.29545454545454,
                "pitch": 40,
                "velocity": 80,
                "duration": 0.14999999999999858,
                "tempo": 120.0
            },
            {
                "start_time": 50.29545454545454,
                "end_time": 50.44772727272727,
                "pitch": 40,
                "velocity": 80,
                "duration": 0.1522727272727309,
                "tempo": 120.0
            },
            {
                "start_time": 50.44772727272727,
                "end_time": 50.59772727272727,
                "pitch": 40,
                "velocity": 80,
                "duration": 0.14999999999999858,
                "tempo": 120.0
            },
            {
                "start_time": 50.59772727272727,
                "end_time": 50.75,
                "pitch": 40,
                "velocity": 80,
                "duration": 0.1522727272727309,
                "tempo": 120.0
            },
            {
                "start_time": 50.75,
                "end_time": 50.89772727272727,
                "pitch": 45,
                "velocity": 80,
                "duration": 0.14772727272727337,
                "tempo": 120.0
            },
            {
                "start_time": 50.9,
                "end_time": 51.04772727272727,
                "pitch": 45,
                "velocity": 80,
                "duration": 0.14772727272727337,
                "tempo": 120.0
            },
            {
                "start_time": 51.05,
                "end_time": 51.199999999999996,
                "pitch": 45,
                "velocity": 80,
                "duration": 0.14999999999999858,
                "tempo": 120.0
            },
            {
                "start_time": 51.199999999999996,
                "end_time": 51.35227272727273,
                "pitch": 45,
                "velocity": 80,
                "duration": 0.1522727272727309,
                "tempo": 120.0
            },
            {
                "start_time": 51.35227272727273,
                "end_time": 51.50454545454545,
                "pitch": 45,
                "velocity": 80,
                "duration": 0.15227272727272378,
                "tempo": 120.0
            },
            {
                "start_time": 51.50454545454545,
                "end_time": 51.65454545454545,
                "pitch": 45,
                "velocity": 80,
                "duration": 0.14999999999999858,
                "tempo": 120.0
            },
            {
                "start_time": 51.65681818181818,
                "end_time": 51.80681818181818,
                "pitch": 45,
                "velocity": 80,
                "duration": 0.14999999999999858,
                "tempo": 120.0
            },
            {
                "start_time": 51.80681818181818,
                "end_time": 51.959090909090904,
                "pitch": 45,
                "velocity": 80,
                "duration": 0.15227272727272378,
                "tempo": 120.0
            },
            {
                "start_time": 51.959090909090904,
                "end_time": 52.111363636363635,
                "pitch": 41,
                "velocity": 80,
                "duration": 0.1522727272727309,
                "tempo": 120.0
            },
            {
                "start_time": 52.111363636363635,
                "end_time": 52.26136363636363,
                "pitch": 41,
                "velocity": 80,
                "duration": 0.14999999999999858,
                "tempo": 120.0
            },
            {
                "start_time": 52.26363636363636,
                "end_time": 52.413636363636364,
                "pitch": 41,
                "velocity": 80,
                "duration": 0.15000000000000568,
                "tempo": 120.0
            },
            {
                "start_time": 52.413636363636364,
                "end_time": 52.56590909090909,
                "pitch": 41,
                "velocity": 80,
                "duration": 0.15227272727272378,
                "tempo": 120.0
            },
            {
                "start_time": 52.56590909090909,
                "end_time": 52.71818181818182,
                "pitch": 41,
                "velocity": 80,
                "duration": 0.1522727272727309,
                "tempo": 120.0
            },
            {
                "start_time": 52.71818181818182,
                "end_time": 52.86818181818182,
                "pitch": 41,
                "velocity": 80,
                "duration": 0.14999999999999858,
                "tempo": 120.0
            },
            {
                "start_time": 52.87045454545454,
                "end_time": 53.02045454545454,
                "pitch": 41,
                "velocity": 80,
                "duration": 0.14999999999999858,
                "tempo": 120.0
            },
            {
                "start_time": 53.02045454545454,
                "end_time": 53.17272727272727,
                "pitch": 41,
                "velocity": 80,
                "duration": 0.1522727272727309,
                "tempo": 120.0
            },
            {
                "start_time": 53.175,
                "end_time": 53.324999999999996,
                "pitch": 43,
                "velocity": 80,
                "duration": 0.14999999999999858,
                "tempo": 120.0
            },
            {
                "start_time": 53.324999999999996,
                "end_time": 53.474999999999994,
                "pitch": 43,
                "velocity": 80,
                "duration": 0.14999999999999858,
                "tempo": 120.0
            },
            {
                "start_time": 53.47727272727273,
                "end_time": 53.625,
                "pitch": 43,
                "velocity": 80,
                "duration": 0.14772727272727337,
                "tempo": 120.0
            },
            {
                "start_time": 53.627272727272725,
                "end_time": 53.775,
                "pitch": 43,
                "velocity": 80,
                "duration": 0.14772727272727337,
                "tempo": 120.0
            },
            {
                "start_time": 53.777272727272724,
                "end_time": 53.92727272727272,
                "pitch": 43,
                "velocity": 80,
                "duration": 0.14999999999999858,
                "tempo": 120.0
            },
            {
                "start_time": 53.92727272727272,
                "end_time": 54.07727272727273,
                "pitch": 43,
                "velocity": 80,
                "duration": 0.15000000000000568,
                "tempo": 120.0
            },
            {
                "start_time": 54.07727272727273,
                "end_time": 54.22954545454545,
                "pitch": 43,
                "velocity": 80,
                "duration": 0.15227272727272378,
                "tempo": 120.0
            },
            {
                "start_time": 54.22954545454545,
                "end_time": 54.38409090909091,
                "pitch": 43,
                "velocity": 80,
                "duration": 0.1545454545454561,
                "tempo": 120.0
            },
            {
                "start_time": 54.38409090909091,
                "end_time": 54.53636363636363,
                "pitch": 40,
                "velocity": 80,
                "duration": 0.15227272727272378,
                "tempo": 120.0
            },
            {
                "start_time": 54.53636363636363,
                "end_time": 54.68863636363636,
                "pitch": 40,
                "velocity": 80,
                "duration": 0.1522727272727309,
                "tempo": 120.0
            },
            {
                "start_time": 54.69090909090909,
                "end_time": 54.840909090909086,
                "pitch": 40,
                "velocity": 80,
                "duration": 0.14999999999999858,
                "tempo": 120.0
            },
            {
                "start_time": 54.840909090909086,
                "end_time": 54.99318181818182,
                "pitch": 40,
                "velocity": 80,
                "duration": 0.1522727272727309,
                "tempo": 120.0
            },
            {
                "start_time": 54.99318181818182,
                "end_time": 55.14545454545454,
                "pitch": 40,
                "velocity": 80,
                "duration": 0.15227272727272378,
                "tempo": 120.0
            },
            {
                "start_time": 55.14545454545454,
                "end_time": 55.29545454545454,
                "pitch": 40,
                "velocity": 80,
                "duration": 0.14999999999999858,
                "tempo": 120.0
            },
            {
                "start_time": 55.29772727272727,
                "end_time": 55.44772727272727,
                "pitch": 40,
                "velocity": 80,
                "duration": 0.14999999999999858,
                "tempo": 120.0
            },
            {
                "start_time": 55.44772727272727,
                "end_time": 55.599999999999994,
                "pitch": 40,
                "velocity": 80,
                "duration": 0.15227272727272378,
                "tempo": 120.0
            },
            {
                "start_time": 55.60227272727273,
                "end_time": 55.752272727272725,
                "pitch": 45,
                "velocity": 80,
                "duration": 0.14999999999999858,
                "tempo": 120.0
            },
            {
                "start_time": 55.752272727272725,
                "end_time": 55.902272727272724,
                "pitch": 45,
                "velocity": 80,
                "duration": 0.14999999999999858,
                "tempo": 120.0
            },
            {
                "start_time": 55.90454545454545,
                "end_time": 56.054545454545455,
                "pitch": 45,
                "velocity": 80,
                "duration": 0.15000000000000568,
                "tempo": 120.0
            },
            {
                "start_time": 56.054545454545455,
                "end_time": 56.20681818181818,
                "pitch": 45,
                "velocity": 80,
                "duration": 0.15227272727272378,
                "tempo": 120.0
            },
            {
                "start_time": 56.20681818181818,
                "end_time": 56.35909090909091,
                "pitch": 45,
                "velocity": 80,
                "duration": 0.1522727272727309,
                "tempo": 120.0
            },
            {
                "start_time": 56.35909090909091,
                "end_time": 56.50909090909091,
                "pitch": 45,
                "velocity": 80,
                "duration": 0.14999999999999858,
                "tempo": 120.0
            },
            {
                "start_time": 56.51136363636363,
                "end_time": 56.66136363636363,
                "pitch": 45,
                "velocity": 80,
                "duration": 0.14999999999999858,
                "tempo": 120.0
            },
            {
                "start_time": 56.66136363636363,
                "end_time": 56.81363636363636,
                "pitch": 45,
                "velocity": 80,
                "duration": 0.1522727272727309,
                "tempo": 120.0
            },
            {
                "start_time": 56.81363636363636,
                "end_time": 56.965909090909086,
                "pitch": 41,
                "velocity": 80,
                "duration": 0.15227272727272378,
                "tempo": 120.0
            },
            {
                "start_time": 56.965909090909086,
                "end_time": 57.115909090909085,
                "pitch": 41,
                "velocity": 80,
                "duration": 0.14999999999999858,
                "tempo": 120.0
            },
            {
                "start_time": 57.11818181818182,
                "end_time": 57.26590909090909,
                "pitch": 41,
                "velocity": 80,
                "duration": 0.14772727272727337,
                "tempo": 120.0
            },
            {
                "start_time": 57.268181818181816,
                "end_time": 57.418181818181814,
                "pitch": 41,
                "velocity": 80,
                "duration": 0.14999999999999858,
                "tempo": 120.0
            },
            {
                "start_time": 57.418181818181814,
                "end_time": 57.56818181818181,
                "pitch": 42,
                "velocity": 80,
                "duration": 0.14999999999999858,
                "tempo": 120.0
            },
            {
                "start_time": 57.56818181818181,
                "end_time": 57.71818181818182,
                "pitch": 43,
                "velocity": 80,
                "duration": 0.15000000000000568,
                "tempo": 120.0
            },
            {
                "start_time": 57.71818181818182,
                "end_time": 57.87045454545454,
                "pitch": 44,
                "velocity": 80,
                "duration": 0.15227272727272378,
                "tempo": 120.0
            },
            {
                "start_time": 57.87045454545454,
                "end_time": 58.02045454545454,
                "pitch": 45,
                "velocity": 80,
                "duration": 0.14999999999999858,
                "tempo": 120.0
            },
            {
                "start_time": 58.324999999999996,
                "end_time": 58.474999999999994,
                "pitch": 45,
                "velocity": 80,
                "duration": 0.14999999999999858,
                "tempo": 120.0
            },
            {
                "start_time": 58.77954545454545,
                "end_time": 58.929545454545455,
                "pitch": 43,
                "velocity": 80,
                "duration": 0.15000000000000568,
                "tempo": 120.0
            },
            {
                "start_time": 59.23409090909091,
                "end_time": 59.38409090909091,
                "pitch": 45,
                "velocity": 80,
                "duration": 0.14999999999999858,
                "tempo": 120.0
            },
            {
                "start_time": 59.68863636363636,
                "end_time": 59.83863636363636,
                "pitch": 43,
                "velocity": 80,
                "duration": 0.14999999999999858,
                "tempo": 120.0
            },
            {
                "start_time": 60.14545454545454,
                "end_time": 60.293181818181814,
                "pitch": 45,
                "velocity": 80,
                "duration": 0.14772727272727337,
                "tempo": 120.0
            },
            {
                "start_time": 60.74545454545454,
                "end_time": 60.89545454545454,
                "pitch": 45,
                "velocity": 80,
                "duration": 0.14999999999999858,
                "tempo": 120.0
            },
            {
                "start_time": 61.199999999999996,
                "end_time": 61.349999999999994,
                "pitch": 43,
                "velocity": 80,
                "duration": 0.14999999999999858,
                "tempo": 120.0
            },
            {
                "start_time": 61.65681818181818,
                "end_time": 61.80681818181818,
                "pitch": 45,
                "velocity": 80,
                "duration": 0.14999999999999858,
                "tempo": 120.0
            },
            {
                "start_time": 62.111363636363635,
                "end_time": 62.26136363636363,
                "pitch": 43,
                "velocity": 80,
                "duration": 0.14999999999999858,
                "tempo": 120.0
            },
            {
                "start_time": 62.56590909090909,
                "end_time": 62.715909090909086,
                "pitch": 45,
                "velocity": 80,
                "duration": 0.14999999999999858,
                "tempo": 120.0
            },
            {
                "start_time": 63.17272727272727,
                "end_time": 63.320454545454545,
                "pitch": 45,
                "velocity": 80,
                "duration": 0.14772727272727337,
                "tempo": 120.0
            },
            {
                "start_time": 63.62272727272727,
                "end_time": 63.772727272727266,
                "pitch": 43,
                "velocity": 80,
                "duration": 0.14999999999999858,
                "tempo": 120.0
            },
            {
                "start_time": 64.08181818181818,
                "end_time": 64.23181818181818,
                "pitch": 45,
                "velocity": 80,
                "duration": 0.15000000000000568,
                "tempo": 120.0
            },
            {
                "start_time": 64.53863636363636,
                "end_time": 64.68863636363636,
                "pitch": 43,
                "velocity": 80,
                "duration": 0.15000000000000568,
                "tempo": 120.0
            },
            {
                "start_time": 64.99318181818181,
                "end_time": 65.14090909090909,
                "pitch": 45,
                "velocity": 80,
                "duration": 0.14772727272728048,
                "tempo": 120.0
            },
            {
                "start_time": 65.59545454545454,
                "end_time": 65.74318181818181,
                "pitch": 45,
                "velocity": 80,
                "duration": 0.14772727272726627,
                "tempo": 120.0
            },
            {
                "start_time": 66.04545454545455,
                "end_time": 66.19318181818181,
                "pitch": 43,
                "velocity": 80,
                "duration": 0.14772727272726627,
                "tempo": 120.0
            },
            {
                "start_time": 66.49772727272727,
                "end_time": 66.95,
                "pitch": 38,
                "velocity": 80,
                "duration": 0.45227272727272805,
                "tempo": 120.0
            },
            {
                "start_time": 66.95,
                "end_time": 67.39999999999999,
                "pitch": 39,
                "velocity": 80,
                "duration": 0.44999999999998863,
                "tempo": 120.0
            },
            {
                "start_time": 67.40227272727273,
                "end_time": 67.55227272727272,
                "pitch": 40,
                "velocity": 80,
                "duration": 0.14999999999999147,
                "tempo": 120.0
            }
        ],
        "Electric Piano 1": [
            {
                "start_time": 0.020454545454545454,
                "end_time": 0.11818181818181818,
                "pitch": 60,
                "velocity": 80,
                "duration": 0.09772727272727272,
                "tempo": 120.0
            },
            {
                "start_time": 0.11818181818181818,
                "end_time": 0.21818181818181817,
                "pitch": 60,
                "velocity": 80,
                "duration": 0.09999999999999999,
                "tempo": 120.0
            },
            {
                "start_time": 0.21818181818181817,
                "end_time": 0.5181818181818182,
                "pitch": 60,
                "velocity": 80,
                "duration": 0.30000000000000004,
                "tempo": 120.0
            },
            {
                "start_time": 0.5204545454545454,
                "end_time": 0.6704545454545454,
                "pitch": 60,
                "velocity": 80,
                "duration": 0.15000000000000002,
                "tempo": 120.0
            },
            {
                "start_time": 0.6727272727272727,
                "end_time": 0.975,
                "pitch": 59,
                "velocity": 80,
                "duration": 0.30227272727272725,
                "tempo": 120.0
            },
            {
                "start_time": 0.975,
                "end_time": 1.1272727272727272,
                "pitch": 59,
                "velocity": 80,
                "duration": 0.15227272727272723,
                "tempo": 120.0
            },
            {
                "start_time": 1.1272727272727272,
                "end_time": 1.4295454545454545,
                "pitch": 62,
                "velocity": 80,
                "duration": 0.30227272727272725,
                "tempo": 120.0
            },
            {
                "start_time": 1.4318181818181817,
                "end_time": 1.5795454545454544,
                "pitch": 60,
                "velocity": 80,
                "duration": 0.1477272727272727,
                "tempo": 120.0
            },
            {
                "start_time": 1.5818181818181818,
                "end_time": 2.0295454545454543,
                "pitch": 60,
                "velocity": 80,
                "duration": 0.44772727272727253,
                "tempo": 120.0
            },
            {
                "start_time": 2.0318181818181817,
                "end_time": 2.3318181818181816,
                "pitch": 60,
                "velocity": 80,
                "duration": 0.2999999999999998,
                "tempo": 120.0
            },
            {
                "start_time": 2.334090909090909,
                "end_time": 2.4818181818181815,
                "pitch": 60,
                "velocity": 80,
                "duration": 0.14772727272727249,
                "tempo": 120.0
            },
            {
                "start_time": 2.4818181818181815,
                "end_time": 2.631818181818182,
                "pitch": 60,
                "velocity": 80,
                "duration": 0.15000000000000036,
                "tempo": 120.0
            },
            {
                "start_time": 2.631818181818182,
                "end_time": 2.934090909090909,
                "pitch": 60,
                "velocity": 80,
                "duration": 0.30227272727272725,
                "tempo": 120.0
            },
            {
                "start_time": 2.936363636363636,
                "end_time": 3.0863636363636364,
                "pitch": 60,
                "velocity": 80,
                "duration": 0.15000000000000036,
                "tempo": 120.0
            },
            {
                "start_time": 3.0886363636363634,
                "end_time": 3.3886363636363637,
                "pitch": 59,
                "velocity": 80,
                "duration": 0.30000000000000027,
                "tempo": 120.0
            },
            {
                "start_time": 3.3909090909090907,
                "end_time": 3.5409090909090906,
                "pitch": 59,
                "velocity": 80,
                "duration": 0.1499999999999999,
                "tempo": 120.0
            },
            {
                "start_time": 3.543181818181818,
                "end_time": 3.8454545454545452,
                "pitch": 62,
                "velocity": 80,
                "duration": 0.30227272727272725,
                "tempo": 120.0
            },
            {
                "start_time": 3.8454545454545452,
                "end_time": 3.995454545454545,
                "pitch": 60,
                "velocity": 80,
                "duration": 0.1499999999999999,
                "tempo": 120.0
            },
            {
                "start_time": 3.9977272727272726,
                "end_time": 4.452272727272727,
                "pitch": 60,
                "velocity": 80,
                "duration": 0.4545454545454546,
                "tempo": 120.0
            },
            {
                "start_time": 4.452272727272727,
                "end_time": 4.754545454545454,
                "pitch": 60,
                "velocity": 80,
                "duration": 0.3022727272727268,
                "tempo": 120.0
            },
            {
                "start_time": 4.756818181818182,
                "end_time": 4.906818181818181,
                "pitch": 60,
                "velocity": 80,
                "duration": 0.14999999999999947,
                "tempo": 120.0
            },
            {
                "start_time": 4.909090909090909,
                "end_time": 5.059090909090909,
                "pitch": 60,
                "velocity": 80,
                "duration": 0.14999999999999947,
                "tempo": 120.0
            },
            {
                "start_time": 5.059090909090909,
                "end_time": 5.3590909090909085,
                "pitch": 60,
                "velocity": 80,
                "duration": 0.2999999999999998,
                "tempo": 120.0
            },
            {
                "start_time": 5.361363636363636,
                "end_time": 5.509090909090909,
                "pitch": 60,
                "velocity": 80,
                "duration": 0.14772727272727249,
                "tempo": 120.0
            },
            {
                "start_time": 5.511363636363636,
                "end_time": 5.8113636363636365,
                "pitch": 59,
                "velocity": 80,
                "duration": 0.3000000000000007,
                "tempo": 120.0
            },
            {
                "start_time": 5.8136363636363635,
                "end_time": 5.963636363636363,
                "pitch": 59,
                "velocity": 80,
                "duration": 0.14999999999999947,
                "tempo": 120.0
            },
            {
                "start_time": 5.963636363636363,
                "end_time": 6.265909090909091,
                "pitch": 62,
                "velocity": 80,
                "duration": 0.3022727272727277,
                "tempo": 120.0
            },
            {
                "start_time": 6.268181818181818,
                "end_time": 6.415909090909091,
                "pitch": 60,
                "velocity": 80,
                "duration": 0.14772727272727337,
                "tempo": 120.0
            },
            {
                "start_time": 6.418181818181818,
                "end_time": 6.86590909090909,
                "pitch": 60,
                "velocity": 80,
                "duration": 0.4477272727272723,
                "tempo": 120.0
            },
            {
                "start_time": 6.868181818181818,
                "end_time": 7.172727272727272,
                "pitch": 60,
                "velocity": 80,
                "duration": 0.3045454545454538,
                "tempo": 120.0
            },
            {
                "start_time": 7.175,
                "end_time": 7.327272727272727,
                "pitch": 60,
                "velocity": 80,
                "duration": 0.15227272727272734,
                "tempo": 120.0
            },
            {
                "start_time": 7.327272727272727,
                "end_time": 7.4795454545454545,
                "pitch": 60,
                "velocity": 80,
                "duration": 0.15227272727272734,
                "tempo": 120.0
            },
            {
                "start_time": 7.4818181818181815,
                "end_time": 7.779545454545454,
                "pitch": 60,
                "velocity": 80,
                "duration": 0.29772727272727284,
                "tempo": 120.0
            },
            {
                "start_time": 7.781818181818181,
                "end_time": 7.929545454545454,
                "pitch": 60,
                "velocity": 80,
                "duration": 0.14772727272727249,
                "tempo": 120.0
            },
            {
                "start_time": 7.931818181818182,
                "end_time": 8.23181818181818,
                "pitch": 59,
                "velocity": 80,
                "duration": 0.29999999999999893,
                "tempo": 120.0
            },
            {
                "start_time": 8.23409090909091,
                "end_time": 8.384090909090908,
                "pitch": 59,
                "velocity": 80,
                "duration": 0.14999999999999858,
                "tempo": 120.0
            },
            {
                "start_time": 8.386363636363637,
                "end_time": 8.686363636363636,
                "pitch": 62,
                "velocity": 80,
                "duration": 0.29999999999999893,
                "tempo": 120.0
            },
            {
                "start_time": 8.688636363636363,
                "end_time": 8.838636363636363,
                "pitch": 60,
                "velocity": 80,
                "duration": 0.15000000000000036,
                "tempo": 120.0
            },
            {
                "start_time": 8.838636363636363,
                "end_time": 9.288636363636364,
                "pitch": 60,
                "velocity": 80,
                "duration": 0.45000000000000107,
                "tempo": 120.0
            },
            {
                "start_time": 9.290909090909091,
                "end_time": 9.588636363636363,
                "pitch": 60,
                "velocity": 80,
                "duration": 0.29772727272727195,
                "tempo": 120.0
            },
            {
                "start_time": 9.59090909090909,
                "end_time": 9.738636363636363,
                "pitch": 57,
                "velocity": 80,
                "duration": 0.14772727272727337,
                "tempo": 120.0
            },
            {
                "start_time": 9.74090909090909,
                "end_time": 9.888636363636364,
                "pitch": 59,
                "velocity": 80,
                "duration": 0.14772727272727337,
                "tempo": 120.0
            },
            {
                "start_time": 9.89090909090909,
                "end_time": 10.038636363636364,
                "pitch": 60,
                "velocity": 80,
                "duration": 0.14772727272727337,
                "tempo": 120.0
            },
            {
                "start_time": 10.040909090909091,
                "end_time": 10.188636363636363,
                "pitch": 62,
                "velocity": 80,
                "duration": 0.1477272727272716,
                "tempo": 120.0
            },
            {
                "start_time": 10.19090909090909,
                "end_time": 10.338636363636363,
                "pitch": 64,
                "velocity": 80,
                "duration": 0.14772727272727337,
                "tempo": 120.0
            },
            {
                "start_time": 10.34090909090909,
                "end_time": 10.488636363636363,
                "pitch": 65,
                "velocity": 80,
                "duration": 0.14772727272727337,
                "tempo": 120.0
            },
            {
                "start_time": 10.49090909090909,
                "end_time": 10.64090909090909,
                "pitch": 67,
                "velocity": 80,
                "duration": 0.15000000000000036,
                "tempo": 120.0
            },
            {
                "start_time": 10.64090909090909,
                "end_time": 10.94090909090909,
                "pitch": 69,
                "velocity": 80,
                "duration": 0.29999999999999893,
                "tempo": 120.0
            },
            {
                "start_time": 10.94090909090909,
                "end_time": 11.09090909090909,
                "pitch": 71,
                "velocity": 80,
                "duration": 0.15000000000000036,
                "tempo": 120.0
            },
            {
                "start_time": 11.09090909090909,
                "end_time": 11.243181818181817,
                "pitch": 69,
                "velocity": 80,
                "duration": 0.15227272727272734,
                "tempo": 120.0
            },
            {
                "start_time": 11.243181818181817,
                "end_time": 11.393181818181818,
                "pitch": 64,
                "velocity": 80,
                "duration": 0.15000000000000036,
                "tempo": 120.0
            },
            {
                "start_time": 11.395454545454545,
                "end_time": 11.545454545454545,
                "pitch": 69,
                "velocity": 80,
                "duration": 0.15000000000000036,
                "tempo": 120.0
            },
            {
                "start_time": 11.547727272727272,
                "end_time": 11.697727272727272,
                "pitch": 64,
                "velocity": 80,
                "duration": 0.15000000000000036,
                "tempo": 120.0
            },
            {
                "start_time": 11.697727272727272,
                "end_time": 11.847727272727273,
                "pitch": 62,
                "velocity": 80,
                "duration": 0.15000000000000036,
                "tempo": 120.0
            },
            {
                "start_time": 11.85,
                "end_time": 11.997727272727273,
                "pitch": 64,
                "velocity": 80,
                "duration": 0.14772727272727337,
                "tempo": 120.0
            },
            {
                "start_time": 12.0,
                "end_time": 12.147727272727272,
                "pitch": 64,
                "velocity": 80,
                "duration": 0.1477272727272716,
                "tempo": 120.0
            },
            {
                "start_time": 12.149999999999999,
                "end_time": 12.297727272727272,
                "pitch": 71,
                "velocity": 80,
                "duration": 0.14772727272727337,
                "tempo": 120.0
            },
            {
                "start_time": 12.299999999999999,
                "end_time": 12.447727272727272,
                "pitch": 69,
                "velocity": 80,
                "duration": 0.14772727272727337,
                "tempo": 120.0
            },
            {
                "start_time": 12.45,
                "end_time": 12.597727272727273,
                "pitch": 64,
                "velocity": 80,
                "duration": 0.14772727272727337,
                "tempo": 120.0
            },
            {
                "start_time": 12.6,
                "end_time": 12.747727272727271,
                "pitch": 69,
                "velocity": 80,
                "duration": 0.1477272727272716,
                "tempo": 120.0
            },
            {
                "start_time": 12.75,
                "end_time": 12.899999999999999,
                "pitch": 64,
                "velocity": 80,
                "duration": 0.14999999999999858,
                "tempo": 120.0
            },
            {
                "start_time": 12.899999999999999,
                "end_time": 13.049999999999999,
                "pitch": 62,
                "velocity": 80,
                "duration": 0.15000000000000036,
                "tempo": 120.0
            },
            {
                "start_time": 13.049999999999999,
                "end_time": 13.2,
                "pitch": 64,
                "velocity": 80,
                "duration": 0.15000000000000036,
                "tempo": 120.0
            },
            {
                "start_time": 13.2,
                "end_time": 13.35,
                "pitch": 62,
                "velocity": 80,
                "duration": 0.15000000000000036,
                "tempo": 120.0
            },
            {
                "start_time": 13.35,
                "end_time": 13.5,
                "pitch": 69,
                "velocity": 80,
                "duration": 0.15000000000000036,
                "tempo": 120.0
            },
            {
                "start_time": 13.5,
                "end_time": 13.649999999999999,
                "pitch": 67,
                "velocity": 80,
                "duration": 0.14999999999999858,
                "tempo": 120.0
            },
            {
                "start_time": 13.652272727272727,
                "end_time": 13.799999999999999,
                "pitch": 65,
                "velocity": 80,
                "duration": 0.1477272727272716,
                "tempo": 120.0
            },
            {
                "start_time": 13.802272727272726,
                "end_time": 13.95,
                "pitch": 67,
                "velocity": 80,
                "duration": 0.14772727272727337,
                "tempo": 120.0
            },
            {
                "start_time": 13.952272727272726,
                "end_time": 14.1,
                "pitch": 65,
                "velocity": 80,
                "duration": 0.14772727272727337,
                "tempo": 120.0
            },
            {
                "start_time": 14.102272727272727,
                "end_time": 14.252272727272727,
                "pitch": 62,
                "velocity": 80,
                "duration": 0.15000000000000036,
                "tempo": 120.0
            },
            {
                "start_time": 14.254545454545454,
                "end_time": 14.404545454545454,
                "pitch": 64,
                "velocity": 80,
                "duration": 0.15000000000000036,
                "tempo": 120.0
            },
            {
                "start_time": 14.406818181818181,
                "end_time": 14.554545454545455,
                "pitch": 65,
                "velocity": 80,
                "duration": 0.14772727272727337,
                "tempo": 120.0
            },
            {
                "start_time": 14.556818181818182,
                "end_time": 14.70681818181818,
                "pitch": 64,
                "velocity": 80,
                "duration": 0.14999999999999858,
                "tempo": 120.0
            },
            {
                "start_time": 14.709090909090909,
                "end_time": 14.861363636363636,
                "pitch": 62,
                "velocity": 80,
                "duration": 0.15227272727272734,
                "tempo": 120.0
            },
            {
                "start_time": 14.861363636363636,
                "end_time": 15.013636363636364,
                "pitch": 64,
                "velocity": 80,
                "duration": 0.15227272727272734,
                "tempo": 120.0
            },
            {
                "start_time": 15.01590909090909,
                "end_time": 15.165909090909091,
                "pitch": 62,
                "velocity": 80,
                "duration": 0.15000000000000036,
                "tempo": 120.0
            },
            {
                "start_time": 15.168181818181818,
                "end_time": 15.320454545454545,
                "pitch": 60,
                "velocity": 80,
                "duration": 0.15227272727272734,
                "tempo": 120.0
            },
            {
                "start_time": 15.322727272727272,
                "end_time": 15.470454545454544,
                "pitch": 62,
                "velocity": 80,
                "duration": 0.1477272727272716,
                "tempo": 120.0
            },
            {
                "start_time": 15.472727272727273,
                "end_time": 15.620454545454544,
                "pitch": 64,
                "velocity": 80,
                "duration": 0.1477272727272716,
                "tempo": 120.0
            },
            {
                "start_time": 15.622727272727271,
                "end_time": 15.920454545454545,
                "pitch": 64,
                "velocity": 80,
                "duration": 0.29772727272727373,
                "tempo": 120.0
            },
            {
                "start_time": 15.922727272727272,
                "end_time": 16.070454545454545,
                "pitch": 59,
                "velocity": 80,
                "duration": 0.14772727272727337,
                "tempo": 120.0
            },
            {
                "start_time": 16.07272727272727,
                "end_time": 16.37272727272727,
                "pitch": 64,
                "velocity": 80,
                "duration": 0.3000000000000007,
                "tempo": 120.0
            },
            {
                "start_time": 16.37272727272727,
                "end_time": 16.522727272727273,
                "pitch": 59,
                "velocity": 80,
                "duration": 0.15000000000000213,
                "tempo": 120.0
            },
            {
                "start_time": 16.522727272727273,
                "end_time": 16.825,
                "pitch": 62,
                "velocity": 80,
                "duration": 0.3022727272727259,
                "tempo": 120.0
            },
            {
                "start_time": 16.827272727272728,
                "end_time": 17.279545454545453,
                "pitch": 64,
                "velocity": 80,
                "duration": 0.4522727272727245,
                "tempo": 120.0
            },
            {
                "start_time": 17.279545454545453,
                "end_time": 17.69772727272727,
                "pitch": 67,
                "velocity": 80,
                "duration": 0.418181818181818,
                "tempo": 120.0
            },
            {
                "start_time": 17.69772727272727,
                "end_time": 17.71363636363636,
                "pitch": 67,
                "velocity": 80,
                "duration": 0.01590909090909065,
                "tempo": 120.0
            },
            {
                "start_time": 17.71363636363636,
                "end_time": 17.729545454545455,
                "pitch": 67,
                "velocity": 80,
                "duration": 0.015909090909094203,
                "tempo": 120.0
            },
            {
                "start_time": 17.73181818181818,
                "end_time": 18.034090909090907,
                "pitch": 66,
                "velocity": 80,
                "duration": 0.3022727272727259,
                "tempo": 120.0
            },
            {
                "start_time": 18.034090909090907,
                "end_time": 18.488636363636363,
                "pitch": 65,
                "velocity": 80,
                "duration": 0.4545454545454568,
                "tempo": 120.0
            },
            {
                "start_time": 18.488636363636363,
                "end_time": 18.943181818181817,
                "pitch": 60,
                "velocity": 80,
                "duration": 0.45454545454545325,
                "tempo": 120.0
            },
            {
                "start_time": 18.945454545454545,
                "end_time": 19.243181818181817,
                "pitch": 62,
                "velocity": 80,
                "duration": 0.29772727272727195,
                "tempo": 120.0
            },
            {
                "start_time": 19.245454545454546,
                "end_time": 20.452272727272728,
                "pitch": 64,
                "velocity": 80,
                "duration": 1.206818181818182,
                "tempo": 120.0
            },
            {
                "start_time": 20.452272727272728,
                "end_time": 20.602272727272727,
                "pitch": 57,
                "velocity": 80,
                "duration": 0.14999999999999858,
                "tempo": 120.0
            },
            {
                "start_time": 20.602272727272727,
                "end_time": 20.752272727272725,
                "pitch": 59,
                "velocity": 80,
                "duration": 0.14999999999999858,
                "tempo": 120.0
            },
            {
                "start_time": 20.752272727272725,
                "end_time": 20.902272727272727,
                "pitch": 60,
                "velocity": 80,
                "duration": 0.15000000000000213,
                "tempo": 120.0
            },
            {
                "start_time": 20.904545454545453,
                "end_time": 21.054545454545455,
                "pitch": 62,
                "velocity": 80,
                "duration": 0.15000000000000213,
                "tempo": 120.0
            },
            {
                "start_time": 21.05681818181818,
                "end_time": 21.206818181818182,
                "pitch": 64,
                "velocity": 80,
                "duration": 0.15000000000000213,
                "tempo": 120.0
            },
            {
                "start_time": 21.209090909090907,
                "end_time": 21.35909090909091,
                "pitch": 65,
                "velocity": 80,
                "duration": 0.15000000000000213,
                "tempo": 120.0
            },
            {
                "start_time": 21.35909090909091,
                "end_time": 21.509090909090908,
                "pitch": 67,
                "velocity": 80,
                "duration": 0.14999999999999858,
                "tempo": 120.0
            },
            {
                "start_time": 21.511363636363637,
                "end_time": 21.813636363636363,
                "pitch": 69,
                "velocity": 80,
                "duration": 0.3022727272727259,
                "tempo": 120.0
            },
            {
                "start_time": 21.81590909090909,
                "end_time": 21.96590909090909,
                "pitch": 71,
                "velocity": 80,
                "duration": 0.14999999999999858,
                "tempo": 120.0
            },
            {
                "start_time": 21.96590909090909,
                "end_time": 22.11590909090909,
                "pitch": 69,
                "velocity": 80,
                "duration": 0.14999999999999858,
                "tempo": 120.0
            },
            {
                "start_time": 22.11590909090909,
                "end_time": 22.26590909090909,
                "pitch": 64,
                "velocity": 80,
                "duration": 0.15000000000000213,
                "tempo": 120.0
            },
            {
                "start_time": 22.26590909090909,
                "end_time": 22.41590909090909,
                "pitch": 69,
                "velocity": 80,
                "duration": 0.14999999999999858,
                "tempo": 120.0
            },
            {
                "start_time": 22.418181818181818,
                "end_time": 22.56590909090909,
                "pitch": 64,
                "velocity": 80,
                "duration": 0.14772727272727337,
                "tempo": 120.0
            },
            {
                "start_time": 22.568181818181817,
                "end_time": 22.71818181818182,
                "pitch": 62,
                "velocity": 80,
                "duration": 0.15000000000000213,
                "tempo": 120.0
            },
            {
                "start_time": 22.720454545454544,
                "end_time": 22.87272727272727,
                "pitch": 64,
                "velocity": 80,
                "duration": 0.15227272727272734,
                "tempo": 120.0
            },
            {
                "start_time": 22.875,
                "end_time": 23.025,
                "pitch": 64,
                "velocity": 80,
                "duration": 0.14999999999999858,
                "tempo": 120.0
            },
            {
                "start_time": 23.027272727272727,
                "end_time": 23.179545454545455,
                "pitch": 71,
                "velocity": 80,
                "duration": 0.15227272727272734,
                "tempo": 120.0
            },
            {
                "start_time": 23.179545454545455,
                "end_time": 23.331818181818182,
                "pitch": 69,
                "velocity": 80,
                "duration": 0.15227272727272734,
                "tempo": 120.0
            },
            {
                "start_time": 23.331818181818182,
                "end_time": 23.48181818181818,
                "pitch": 64,
                "velocity": 80,
                "duration": 0.14999999999999858,
                "tempo": 120.0
            },
            {
                "start_time": 23.48409090909091,
                "end_time": 23.634090909090908,
                "pitch": 69,
                "velocity": 80,
                "duration": 0.14999999999999858,
                "tempo": 120.0
            },
            {
                "start_time": 23.636363636363637,
                "end_time": 23.786363636363635,
                "pitch": 64,
                "velocity": 80,
                "duration": 0.14999999999999858,
                "tempo": 120.0
            },
            {
                "start_time": 23.786363636363635,
                "end_time": 23.938636363636363,
                "pitch": 62,
                "velocity": 80,
                "duration": 0.15227272727272734,
                "tempo": 120.0
            },
            {
                "start_time": 23.938636363636363,
                "end_time": 24.08863636363636,
                "pitch": 64,
                "velocity": 80,
                "duration": 0.14999999999999858,
                "tempo": 120.0
            },
            {
                "start_time": 24.09090909090909,
                "end_time": 24.24090909090909,
                "pitch": 62,
                "velocity": 80,
                "duration": 0.14999999999999858,
                "tempo": 120.0
            },
            {
                "start_time": 24.243181818181817,
                "end_time": 24.393181818181816,
                "pitch": 69,
                "velocity": 80,
                "duration": 0.14999999999999858,
                "tempo": 120.0
            },
            {
                "start_time": 24.393181818181816,
                "end_time": 24.543181818181818,
                "pitch": 67,
                "velocity": 80,
                "duration": 0.15000000000000213,
                "tempo": 120.0
            },
            {
                "start_time": 24.545454545454543,
                "end_time": 24.693181818181817,
                "pitch": 65,
                "velocity": 80,
                "duration": 0.14772727272727337,
                "tempo": 120.0
            },
            {
                "start_time": 24.695454545454545,
                "end_time": 24.84318181818182,
                "pitch": 67,
                "velocity": 80,
                "duration": 0.14772727272727337,
                "tempo": 120.0
            },
            {
                "start_time": 24.845454545454544,
                "end_time": 24.993181818181817,
                "pitch": 65,
                "velocity": 80,
                "duration": 0.14772727272727337,
                "tempo": 120.0
            },
            {
                "start_time": 24.995454545454542,
                "end_time": 25.145454545454545,
                "pitch": 62,
                "velocity": 80,
                "duration": 0.15000000000000213,
                "tempo": 120.0
            },
            {
                "start_time": 25.145454545454545,
                "end_time": 25.297727272727272,
                "pitch": 64,
                "velocity": 80,
                "duration": 0.15227272727272734,
                "tempo": 120.0
            },
            {
                "start_time": 25.297727272727272,
                "end_time": 25.44772727272727,
                "pitch": 65,
                "velocity": 80,
                "duration": 0.14999999999999858,
                "tempo": 120.0
            },
            {
                "start_time": 25.45,
                "end_time": 25.599999999999998,
                "pitch": 64,
                "velocity": 80,
                "duration": 0.14999999999999858,
                "tempo": 120.0
            },
            {
                "start_time": 25.602272727272727,
                "end_time": 25.75,
                "pitch": 62,
                "velocity": 80,
                "duration": 0.14772727272727337,
                "tempo": 120.0
            },
            {
                "start_time": 25.752272727272725,
                "end_time": 25.9,
                "pitch": 64,
                "velocity": 80,
                "duration": 0.14772727272727337,
                "tempo": 120.0
            },
            {
                "start_time": 25.902272727272727,
                "end_time": 26.049999999999997,
                "pitch": 62,
                "velocity": 80,
                "duration": 0.14772727272726982,
                "tempo": 120.0
            },
            {
                "start_time": 26.052272727272726,
                "end_time": 26.2,
                "pitch": 60,
                "velocity": 80,
                "duration": 0.14772727272727337,
                "tempo": 120.0
            },
            {
                "start_time": 26.202272727272724,
                "end_time": 26.352272727272727,
                "pitch": 62,
                "velocity": 80,
                "duration": 0.15000000000000213,
                "tempo": 120.0
            },
            {
                "start_time": 26.354545454545452,
                "end_time": 26.504545454545454,
                "pitch": 64,
                "velocity": 80,
                "duration": 0.15000000000000213,
                "tempo": 120.0
            },
            {
                "start_time": 26.50681818181818,
                "end_time": 26.80681818181818,
                "pitch": 64,
                "velocity": 80,
                "duration": 0.3000000000000007,
                "tempo": 120.0
            },
            {
                "start_time": 26.80909090909091,
                "end_time": 26.959090909090907,
                "pitch": 59,
                "velocity": 80,
                "duration": 0.14999999999999858,
                "tempo": 120.0
            },
            {
                "start_time": 26.961363636363636,
                "end_time": 27.263636363636362,
                "pitch": 64,
                "velocity": 80,
                "duration": 0.3022727272727259,
                "tempo": 120.0
            },
            {
                "start_time": 27.263636363636362,
                "end_time": 27.41590909090909,
                "pitch": 59,
                "velocity": 80,
                "duration": 0.15227272727272734,
                "tempo": 120.0
            },
            {
                "start_time": 27.41590909090909,
                "end_time": 27.71590909090909,
                "pitch": 62,
                "velocity": 80,
                "duration": 0.3000000000000007,
                "tempo": 120.0
            },
            {
                "start_time": 27.71590909090909,
                "end_time": 28.168181818181818,
                "pitch": 64,
                "velocity": 80,
                "duration": 0.45227272727272805,
                "tempo": 120.0
            },
            {
                "start_time": 28.168181818181818,
                "end_time": 28.52272727272727,
                "pitch": 67,
                "velocity": 80,
                "duration": 0.35454545454545183,
                "tempo": 120.0
            },
            {
                "start_time": 17.69772727272727,
                "end_time": 28.52272727272727,
                "pitch": 79,
                "velocity": 80,
                "duration": 10.825,
                "tempo": 120.0
            },
            {
                "start_time": 17.71363636363636,
                "end_time": 28.538636363636364,
                "pitch": 55,
                "velocity": 80,
                "duration": 10.825000000000003,
                "tempo": 120.0
            },
            {
                "start_time": 28.52272727272727,
                "end_time": 28.538636363636364,
                "pitch": 67,
                "velocity": 80,
                "duration": 0.015909090909094203,
                "tempo": 120.0
            },
            {
                "start_time": 28.538636363636364,
                "end_time": 28.62272727272727,
                "pitch": 67,
                "velocity": 80,
                "duration": 0.08409090909090722,
                "tempo": 120.0
            },
            {
                "start_time": 28.62272727272727,
                "end_time": 28.922727272727272,
                "pitch": 66,
                "velocity": 80,
                "duration": 0.3000000000000007,
                "tempo": 120.0
            },
            {
                "start_time": 28.924999999999997,
                "end_time": 29.375,
                "pitch": 65,
                "velocity": 80,
                "duration": 0.45000000000000284,
                "tempo": 120.0
            },
            {
                "start_time": 29.377272727272725,
                "end_time": 29.829545454545453,
                "pitch": 60,
                "velocity": 80,
                "duration": 0.45227272727272805,
                "tempo": 120.0
            },
            {
                "start_time": 29.831818181818182,
                "end_time": 30.134090909090908,
                "pitch": 62,
                "velocity": 80,
                "duration": 0.3022727272727259,
                "tempo": 120.0
            },
            {
                "start_time": 30.134090909090908,
                "end_time": 31.349999999999998,
                "pitch": 64,
                "velocity": 80,
                "duration": 1.21590909090909,
                "tempo": 120.0
            },
            {
                "start_time": 31.352272727272727,
                "end_time": 32.56136363636364,
                "pitch": 81,
                "velocity": 127,
                "duration": 1.2090909090909108,
                "tempo": 120.0
            },
            {
                "start_time": 32.56363636363636,
                "end_time": 33.77272727272727,
                "pitch": 76,
                "velocity": 127,
                "duration": 1.2090909090909108,
                "tempo": 120.0
            },
            {
                "start_time": 28.52272727272727,
                "end_time": 34.19090909090909,
                "pitch": 79,
                "velocity": 80,
                "duration": 5.668181818181818,
                "tempo": 120.0
            },
            {
                "start_time": 33.77272727272727,
                "end_time": 34.19090909090909,
                "pitch": 79,
                "velocity": 127,
                "duration": 0.41818181818181444,
                "tempo": 120.0
            },
            {
                "start_time": 34.19090909090909,
                "end_time": 34.20681818181818,
                "pitch": 79,
                "velocity": 127,
                "duration": 0.01590909090909065,
                "tempo": 120.0
            },
            {
                "start_time": 34.20681818181818,
                "end_time": 34.35909090909091,
                "pitch": 79,
                "velocity": 127,
                "duration": 0.1522727272727309,
                "tempo": 120.0
            },
            {
                "start_time": 34.19090909090909,
                "end_time": 34.35909090909091,
                "pitch": 91,
                "velocity": 127,
                "duration": 0.16818181818182154,
                "tempo": 120.0
            },
            {
                "start_time": 34.35909090909091,
                "end_time": 34.375,
                "pitch": 79,
                "velocity": 127,
                "duration": 0.01590909090909065,
                "tempo": 120.0
            },
            {
                "start_time": 34.377272727272725,
                "end_time": 34.98181818181818,
                "pitch": 81,
                "velocity": 127,
                "duration": 0.6045454545454518,
                "tempo": 120.0
            },
            {
                "start_time": 34.98409090909091,
                "end_time": 35.58863636363636,
                "pitch": 83,
                "velocity": 127,
                "duration": 0.6045454545454518,
                "tempo": 120.0
            },
            {
                "start_time": 34.35909090909091,
                "end_time": 36.04545454545455,
                "pitch": 91,
                "velocity": 127,
                "duration": 1.6863636363636374,
                "tempo": 120.0
            },
            {
                "start_time": 35.590909090909086,
                "end_time": 36.04545454545455,
                "pitch": 91,
                "velocity": 127,
                "duration": 0.45454545454546036,
                "tempo": 120.0
            },
            {
                "start_time": 36.04545454545455,
                "end_time": 36.06136363636364,
                "pitch": 91,
                "velocity": 127,
                "duration": 0.01590909090909065,
                "tempo": 120.0
            },
            {
                "start_time": 36.06136363636364,
                "end_time": 36.195454545454545,
                "pitch": 91,
                "velocity": 127,
                "duration": 0.13409090909090793,
                "tempo": 120.0
            },
            {
                "start_time": 36.19772727272727,
                "end_time": 36.55,
                "pitch": 91,
                "velocity": 127,
                "duration": 0.3522727272727266,
                "tempo": 120.0
            },
            {
                "start_time": 36.04545454545455,
                "end_time": 36.55,
                "pitch": 103,
                "velocity": 127,
                "duration": 0.5045454545454504,
                "tempo": 120.0
            },
            {
                "start_time": 36.06136363636364,
                "end_time": 36.56590909090909,
                "pitch": 79,
                "velocity": 127,
                "duration": 0.5045454545454504,
                "tempo": 120.0
            },
            {
                "start_time": 36.55,
                "end_time": 36.56590909090909,
                "pitch": 91,
                "velocity": 127,
                "duration": 0.01590909090909065,
                "tempo": 120.0
            },
            {
                "start_time": 36.56590909090909,
                "end_time": 36.715909090909086,
                "pitch": 91,
                "velocity": 127,
                "duration": 0.14999999999999858,
                "tempo": 120.0
            },
            {
                "start_time": 36.55,
                "end_time": 36.71818181818182,
                "pitch": 103,
                "velocity": 127,
                "duration": 0.16818181818182154,
                "tempo": 120.0
            },
            {
                "start_time": 36.715909090909086,
                "end_time": 36.71818181818182,
                "pitch": 103,
                "velocity": 127,
                "duration": 0.002272727272732311,
                "tempo": 120.0
            },
            {
                "start_time": 36.56590909090909,
                "end_time": 36.73409090909091,
                "pitch": 79,
                "velocity": 127,
                "duration": 0.16818181818182154,
                "tempo": 120.0
            },
            {
                "start_time": 36.71818181818182,
                "end_time": 36.73409090909091,
                "pitch": 91,
                "velocity": 127,
                "duration": 0.01590909090909065,
                "tempo": 120.0
            },
            {
                "start_time": 36.73409090909091,
                "end_time": 36.88409090909091,
                "pitch": 91,
                "velocity": 127,
                "duration": 0.14999999999999858,
                "tempo": 120.0
            },
            {
                "start_time": 36.73409090909091,
                "end_time": 36.9,
                "pitch": 79,
                "velocity": 127,
                "duration": 0.16590909090908923,
                "tempo": 120.0
            },
            {
                "start_time": 36.88409090909091,
                "end_time": 36.9,
                "pitch": 91,
                "velocity": 127,
                "duration": 0.01590909090909065,
                "tempo": 120.0
            },
            {
                "start_time": 36.9,
                "end_time": 37.05,
                "pitch": 91,
                "velocity": 127,
                "duration": 0.14999999999999858,
                "tempo": 120.0
            },
            {
                "start_time": 36.88409090909091,
                "end_time": 37.05,
                "pitch": 103,
                "velocity": 127,
                "duration": 0.16590909090908923,
                "tempo": 120.0
            },
            {
                "start_time": 36.9,
                "end_time": 37.06818181818181,
                "pitch": 79,
                "velocity": 127,
                "duration": 0.16818181818181444,
                "tempo": 120.0
            },
            {
                "start_time": 37.05,
                "end_time": 37.06818181818181,
                "pitch": 91,
                "velocity": 127,
                "duration": 0.018181818181815856,
                "tempo": 120.0
            },
            {
                "start_time": 37.06818181818181,
                "end_time": 37.1,
                "pitch": 91,
                "velocity": 127,
                "duration": 0.03181818181818841,
                "tempo": 120.0
            },
            {
                "start_time": 37.10227272727273,
                "end_time": 37.252272727272725,
                "pitch": 89,
                "velocity": 127,
                "duration": 0.14999999999999858,
                "tempo": 120.0
            },
            {
                "start_time": 37.252272727272725,
                "end_time": 37.404545454545456,
                "pitch": 88,
                "velocity": 127,
                "duration": 0.1522727272727309,
                "tempo": 120.0
            },
            {
                "start_time": 37.404545454545456,
                "end_time": 38.61818181818182,
                "pitch": 89,
                "velocity": 127,
                "duration": 1.2136363636363612,
                "tempo": 120.0
            },
            {
                "start_time": 38.61818181818182,
                "end_time": 39.22727272727273,
                "pitch": 88,
                "velocity": 127,
                "duration": 0.6090909090909093,
                "tempo": 120.0
            },
            {
                "start_time": 39.22954545454545,
                "end_time": 39.836363636363636,
                "pitch": 86,
                "velocity": 127,
                "duration": 0.6068181818181841,
                "tempo": 120.0
            },
            {
                "start_time": 39.83863636363636,
                "end_time": 40.44090909090909,
                "pitch": 84,
                "velocity": 127,
                "duration": 0.6022727272727266,
                "tempo": 120.0
            },
            {
                "start_time": 40.44318181818181,
                "end_time": 41.04545454545455,
                "pitch": 83,
                "velocity": 127,
                "duration": 0.6022727272727337,
                "tempo": 120.0
            },
            {
                "start_time": 41.04545454545455,
                "end_time": 42.25909090909091,
                "pitch": 81,
                "velocity": 127,
                "duration": 1.2136363636363612,
                "tempo": 120.0
            },
            {
                "start_time": 42.26136363636363,
                "end_time": 43.470454545454544,
                "pitch": 76,
                "velocity": 127,
                "duration": 1.2090909090909108,
                "tempo": 120.0
            },
            {
                "start_time": 37.06818181818181,
                "end_time": 43.78636363636363,
                "pitch": 79,
                "velocity": 127,
                "duration": 6.718181818181819,
                "tempo": 120.0
            },
            {
                "start_time": 43.470454545454544,
                "end_time": 43.78636363636363,
                "pitch": 79,
                "velocity": 127,
                "duration": 0.3159090909090878,
                "tempo": 120.0
            },
            {
                "start_time": 34.20681818181818,
                "end_time": 43.804545454545455,
                "pitch": 67,
                "velocity": 127,
                "duration": 9.597727272727276,
                "tempo": 120.0
            },
            {
                "start_time": 43.78636363636363,
                "end_time": 43.804545454545455,
                "pitch": 79,
                "velocity": 127,
                "duration": 0.018181818181822962,
                "tempo": 120.0
            },
            {
                "start_time": 43.804545454545455,
                "end_time": 43.95454545454545,
                "pitch": 79,
                "velocity": 127,
                "duration": 0.14999999999999858,
                "tempo": 120.0
            },
            {
                "start_time": 43.78636363636363,
                "end_time": 43.95681818181818,
                "pitch": 91,
                "velocity": 127,
                "duration": 0.17045454545454675,
                "tempo": 120.0
            },
            {
                "start_time": 43.95454545454545,
                "end_time": 43.95681818181818,
                "pitch": 91,
                "velocity": 127,
                "duration": 0.0022727272727252057,
                "tempo": 120.0
            },
            {
                "start_time": 43.804545454545455,
                "end_time": 43.97272727272727,
                "pitch": 67,
                "velocity": 127,
                "duration": 0.16818181818181444,
                "tempo": 120.0
            },
            {
                "start_time": 43.95681818181818,
                "end_time": 43.97272727272727,
                "pitch": 79,
                "velocity": 127,
                "duration": 0.01590909090909065,
                "tempo": 120.0
            },
            {
                "start_time": 43.97272727272727,
                "end_time": 44.07272727272727,
                "pitch": 79,
                "velocity": 127,
                "duration": 0.10000000000000142,
                "tempo": 120.0
            },
            {
                "start_time": 44.074999999999996,
                "end_time": 44.679545454545455,
                "pitch": 81,
                "velocity": 127,
                "duration": 0.6045454545454589,
                "tempo": 120.0
            },
            {
                "start_time": 44.68181818181818,
                "end_time": 45.28636363636363,
                "pitch": 83,
                "velocity": 127,
                "duration": 0.6045454545454518,
                "tempo": 120.0
            },
            {
                "start_time": 45.288636363636364,
                "end_time": 45.64090909090909,
                "pitch": 91,
                "velocity": 127,
                "duration": 0.3522727272727266,
                "tempo": 120.0
            },
            {
                "start_time": 37.05,
                "end_time": 45.64090909090909,
                "pitch": 103,
                "velocity": 127,
                "duration": 8.590909090909093,
                "tempo": 120.0
            },
            {
                "start_time": 45.64090909090909,
                "end_time": 45.65909090909091,
                "pitch": 91,
                "velocity": 127,
                "duration": 0.018181818181815856,
                "tempo": 120.0
            },
            {
                "start_time": 45.65909090909091,
                "end_time": 45.809090909090905,
                "pitch": 91,
                "velocity": 127,
                "duration": 0.14999999999999858,
                "tempo": 120.0
            },
            {
                "start_time": 45.64090909090909,
                "end_time": 45.809090909090905,
                "pitch": 103,
                "velocity": 127,
                "duration": 0.16818181818181444,
                "tempo": 120.0
            },
            {
                "start_time": 45.65909090909091,
                "end_time": 45.82727272727273,
                "pitch": 79,
                "velocity": 127,
                "duration": 0.16818181818182154,
                "tempo": 120.0
            },
            {
                "start_time": 45.809090909090905,
                "end_time": 45.82727272727273,
                "pitch": 91,
                "velocity": 127,
                "duration": 0.018181818181822962,
                "tempo": 120.0
            },
            {
                "start_time": 45.82727272727273,
                "end_time": 45.893181818181816,
                "pitch": 91,
                "velocity": 127,
                "duration": 0.06590909090908781,
                "tempo": 120.0
            },
            {
                "start_time": 45.89545454545454,
                "end_time": 46.31363636363636,
                "pitch": 91,
                "velocity": 127,
                "duration": 0.41818181818182154,
                "tempo": 120.0
            },
            {
                "start_time": 45.809090909090905,
                "end_time": 46.31363636363636,
                "pitch": 103,
                "velocity": 127,
                "duration": 0.5045454545454575,
                "tempo": 120.0
            },
            {
                "start_time": 45.82727272727273,
                "end_time": 46.33181818181818,
                "pitch": 79,
                "velocity": 127,
                "duration": 0.5045454545454504,
                "tempo": 120.0
            },
            {
                "start_time": 46.31363636363636,
                "end_time": 46.33181818181818,
                "pitch": 91,
                "velocity": 127,
                "duration": 0.018181818181815856,
                "tempo": 120.0
            },
            {
                "start_time": 46.33181818181818,
                "end_time": 46.48181818181818,
                "pitch": 91,
                "velocity": 127,
                "duration": 0.14999999999999858,
                "tempo": 120.0
            },
            {
                "start_time": 46.31363636363636,
                "end_time": 46.48181818181818,
                "pitch": 103,
                "velocity": 127,
                "duration": 0.16818181818181444,
                "tempo": 120.0
            },
            {
                "start_time": 46.33181818181818,
                "end_time": 46.49772727272727,
                "pitch": 79,
                "velocity": 127,
                "duration": 0.16590909090908923,
                "tempo": 120.0
            },
            {
                "start_time": 46.48181818181818,
                "end_time": 46.49772727272727,
                "pitch": 91,
                "velocity": 127,
                "duration": 0.01590909090909065,
                "tempo": 120.0
            },
            {
                "start_time": 46.49772727272727,
                "end_time": 46.64772727272727,
                "pitch": 91,
                "velocity": 127,
                "duration": 0.15000000000000568,
                "tempo": 120.0
            },
            {
                "start_time": 46.48181818181818,
                "end_time": 46.64772727272727,
                "pitch": 103,
                "velocity": 127,
                "duration": 0.16590909090909634,
                "tempo": 120.0
            },
            {
                "start_time": 46.64772727272727,
                "end_time": 46.663636363636364,
                "pitch": 91,
                "velocity": 127,
                "duration": 0.01590909090909065,
                "tempo": 120.0
            },
            {
                "start_time": 46.49772727272727,
                "end_time": 46.66590909090909,
                "pitch": 79,
                "velocity": 127,
                "duration": 0.16818181818182154,
                "tempo": 120.0
            },
            {
                "start_time": 46.663636363636364,
                "end_time": 46.66590909090909,
                "pitch": 79,
                "velocity": 127,
                "duration": 0.0022727272727252057,
                "tempo": 120.0
            },
            {
                "start_time": 46.66590909090909,
                "end_time": 46.79772727272727,
                "pitch": 91,
                "velocity": 127,
                "duration": 0.13181818181818272,
                "tempo": 120.0
            },
            {
                "start_time": 46.8,
                "end_time": 46.949999999999996,
                "pitch": 89,
                "velocity": 127,
                "duration": 0.14999999999999858,
                "tempo": 120.0
            },
            {
                "start_time": 46.949999999999996,
                "end_time": 47.10227272727273,
                "pitch": 88,
                "velocity": 127,
                "duration": 0.1522727272727309,
                "tempo": 120.0
            },
            {
                "start_time": 47.10227272727273,
                "end_time": 48.320454545454545,
                "pitch": 89,
                "velocity": 127,
                "duration": 1.2181818181818187,
                "tempo": 120.0
            },
            {
                "start_time": 48.32272727272727,
                "end_time": 48.92727272727272,
                "pitch": 88,
                "velocity": 127,
                "duration": 0.6045454545454518,
                "tempo": 120.0
            },
            {
                "start_time": 48.929545454545455,
                "end_time": 49.349999999999994,
                "pitch": 91,
                "velocity": 127,
                "duration": 0.42045454545453964,
                "tempo": 120.0
            },
            {
                "start_time": 46.64772727272727,
                "end_time": 49.349999999999994,
                "pitch": 103,
                "velocity": 127,
                "duration": 2.702272727272721,
                "tempo": 120.0
            },
            {
                "start_time": 49.349999999999994,
                "end_time": 49.365909090909085,
                "pitch": 91,
                "velocity": 127,
                "duration": 0.01590909090909065,
                "tempo": 120.0
            },
            {
                "start_time": 49.365909090909085,
                "end_time": 49.518181818181816,
                "pitch": 91,
                "velocity": 127,
                "duration": 0.1522727272727309,
                "tempo": 120.0
            },
            {
                "start_time": 49.349999999999994,
                "end_time": 49.518181818181816,
                "pitch": 103,
                "velocity": 127,
                "duration": 0.16818181818182154,
                "tempo": 120.0
            },
            {
                "start_time": 49.518181818181816,
                "end_time": 49.53409090909091,
                "pitch": 91,
                "velocity": 127,
                "duration": 0.01590909090909065,
                "tempo": 120.0
            },
            {
                "start_time": 49.53636363636363,
                "end_time": 50.14090909090909,
                "pitch": 96,
                "velocity": 127,
                "duration": 0.6045454545454589,
                "tempo": 120.0
            },
            {
                "start_time": 50.143181818181816,
                "end_time": 50.74545454545454,
                "pitch": 95,
                "velocity": 127,
                "duration": 0.6022727272727266,
                "tempo": 120.0
            },
            {
                "start_time": 50.74772727272727,
                "end_time": 50.89545454545454,
                "pitch": 69,
                "velocity": 80,
                "duration": 0.14772727272727337,
                "tempo": 120.0
            },
            {
                "start_time": 50.89545454545454,
                "end_time": 51.04545454545454,
                "pitch": 65,
                "velocity": 80,
                "duration": 0.14999999999999858,
                "tempo": 120.0
            },
            {
                "start_time": 51.04772727272727,
                "end_time": 51.19772727272727,
                "pitch": 62,
                "velocity": 80,
                "duration": 0.14999999999999858,
                "tempo": 120.0
            },
            {
                "start_time": 51.19772727272727,
                "end_time": 51.349999999999994,
                "pitch": 69,
                "velocity": 80,
                "duration": 0.15227272727272378,
                "tempo": 120.0
            },
            {
                "start_time": 51.349999999999994,
                "end_time": 51.5,
                "pitch": 65,
                "velocity": 80,
                "duration": 0.15000000000000568,
                "tempo": 120.0
            },
            {
                "start_time": 51.502272727272725,
                "end_time": 51.652272727272724,
                "pitch": 62,
                "velocity": 80,
                "duration": 0.14999999999999858,
                "tempo": 120.0
            },
            {
                "start_time": 51.65454545454545,
                "end_time": 51.804545454545455,
                "pitch": 69,
                "velocity": 80,
                "duration": 0.15000000000000568,
                "tempo": 120.0
            },
            {
                "start_time": 51.804545454545455,
                "end_time": 51.95681818181818,
                "pitch": 65,
                "velocity": 80,
                "duration": 0.15227272727272378,
                "tempo": 120.0
            },
            {
                "start_time": 51.95681818181818,
                "end_time": 52.10681818181818,
                "pitch": 62,
                "velocity": 80,
                "duration": 0.14999999999999858,
                "tempo": 120.0
            },
            {
                "start_time": 52.10909090909091,
                "end_time": 52.25909090909091,
                "pitch": 69,
                "velocity": 80,
                "duration": 0.14999999999999858,
                "tempo": 120.0
            },
            {
                "start_time": 52.26136363636363,
                "end_time": 52.41136363636363,
                "pitch": 65,
                "velocity": 80,
                "duration": 0.14999999999999858,
                "tempo": 120.0
            },
            {
                "start_time": 52.41136363636363,
                "end_time": 52.56363636363636,
                "pitch": 62,
                "velocity": 80,
                "duration": 0.1522727272727309,
                "tempo": 120.0
            },
            {
                "start_time": 52.56363636363636,
                "end_time": 52.71363636363636,
                "pitch": 69,
                "velocity": 80,
                "duration": 0.14999999999999858,
                "tempo": 120.0
            },
            {
                "start_time": 52.715909090909086,
                "end_time": 52.865909090909085,
                "pitch": 65,
                "velocity": 80,
                "duration": 0.14999999999999858,
                "tempo": 120.0
            },
            {
                "start_time": 52.86818181818182,
                "end_time": 53.018181818181816,
                "pitch": 62,
                "velocity": 80,
                "duration": 0.14999999999999858,
                "tempo": 120.0
            },
            {
                "start_time": 53.018181818181816,
                "end_time": 53.17045454545454,
                "pitch": 65,
                "velocity": 80,
                "duration": 0.15227272727272378,
                "tempo": 120.0
            },
            {
                "start_time": 43.97272727272727,
                "end_time": 53.320454545454545,
                "pitch": 67,
                "velocity": 127,
                "duration": 9.347727272727276,
                "tempo": 120.0
            },
            {
                "start_time": 53.17045454545454,
                "end_time": 53.320454545454545,
                "pitch": 67,
                "velocity": 80,
                "duration": 0.15000000000000568,
                "tempo": 120.0
            },
            {
                "start_time": 53.32272727272727,
                "end_time": 53.47272727272727,
                "pitch": 64,
                "velocity": 80,
                "duration": 0.14999999999999858,
                "tempo": 120.0
            },
            {
                "start_time": 53.474999999999994,
                "end_time": 53.62272727272727,
                "pitch": 60,
                "velocity": 80,
                "duration": 0.14772727272727337,
                "tempo": 120.0
            },
            {
                "start_time": 53.625,
                "end_time": 53.77272727272727,
                "pitch": 67,
                "velocity": 80,
                "duration": 0.14772727272727337,
                "tempo": 120.0
            },
            {
                "start_time": 53.775,
                "end_time": 53.92272727272727,
                "pitch": 64,
                "velocity": 80,
                "duration": 0.14772727272727337,
                "tempo": 120.0
            },
            {
                "start_time": 53.925,
                "end_time": 54.07272727272727,
                "pitch": 60,
                "velocity": 80,
                "duration": 0.14772727272727337,
                "tempo": 120.0
            },
            {
                "start_time": 54.074999999999996,
                "end_time": 54.22727272727273,
                "pitch": 67,
                "velocity": 80,
                "duration": 0.1522727272727309,
                "tempo": 120.0
            },
            {
                "start_time": 54.22727272727273,
                "end_time": 54.37954545454545,
                "pitch": 64,
                "velocity": 80,
                "duration": 0.15227272727272378,
                "tempo": 120.0
            },
            {
                "start_time": 54.38181818181818,
                "end_time": 54.53409090909091,
                "pitch": 60,
                "velocity": 80,
                "duration": 0.15227272727272378,
                "tempo": 120.0
            },
            {
                "start_time": 54.53409090909091,
                "end_time": 54.68636363636363,
                "pitch": 67,
                "velocity": 80,
                "duration": 0.15227272727272378,
                "tempo": 120.0
            },
            {
                "start_time": 54.68863636363636,
                "end_time": 54.83863636363636,
                "pitch": 64,
                "velocity": 80,
                "duration": 0.14999999999999858,
                "tempo": 120.0
            },
            {
                "start_time": 54.83863636363636,
                "end_time": 54.990909090909085,
                "pitch": 60,
                "velocity": 80,
                "duration": 0.15227272727272378,
                "tempo": 120.0
            },
            {
                "start_time": 54.990909090909085,
                "end_time": 55.14090909090909,
                "pitch": 67,
                "velocity": 80,
                "duration": 0.15000000000000568,
                "tempo": 120.0
            },
            {
                "start_time": 55.143181818181816,
                "end_time": 55.293181818181814,
                "pitch": 64,
                "velocity": 80,
                "duration": 0.14999999999999858,
                "tempo": 120.0
            },
            {
                "start_time": 55.29545454545454,
                "end_time": 55.445454545454545,
                "pitch": 67,
                "velocity": 80,
                "duration": 0.15000000000000568,
                "tempo": 120.0
            },
            {
                "start_time": 55.445454545454545,
                "end_time": 55.59772727272727,
                "pitch": 69,
                "velocity": 80,
                "duration": 0.15227272727272378,
                "tempo": 120.0
            },
            {
                "start_time": 55.59772727272727,
                "end_time": 55.74772727272727,
                "pitch": 69,
                "velocity": 80,
                "duration": 0.14999999999999858,
                "tempo": 120.0
            },
            {
                "start_time": 55.75,
                "end_time": 55.9,
                "pitch": 65,
                "velocity": 80,
                "duration": 0.14999999999999858,
                "tempo": 120.0
            },
            {
                "start_time": 55.902272727272724,
                "end_time": 56.05227272727272,
                "pitch": 62,
                "velocity": 80,
                "duration": 0.14999999999999858,
                "tempo": 120.0
            },
            {
                "start_time": 56.05227272727272,
                "end_time": 56.20454545454545,
                "pitch": 69,
                "velocity": 80,
                "duration": 0.1522727272727309,
                "tempo": 120.0
            },
            {
                "start_time": 56.20454545454545,
                "end_time": 56.35454545454545,
                "pitch": 65,
                "velocity": 80,
                "duration": 0.14999999999999858,
                "tempo": 120.0
            },
            {
                "start_time": 56.35681818181818,
                "end_time": 56.506818181818176,
                "pitch": 62,
                "velocity": 80,
                "duration": 0.14999999999999858,
                "tempo": 120.0
            },
            {
                "start_time": 56.50909090909091,
                "end_time": 56.65909090909091,
                "pitch": 69,
                "velocity": 80,
                "duration": 0.14999999999999858,
                "tempo": 120.0
            },
            {
                "start_time": 56.65909090909091,
                "end_time": 56.81136363636363,
                "pitch": 65,
                "velocity": 80,
                "duration": 0.15227272727272378,
                "tempo": 120.0
            },
            {
                "start_time": 56.81136363636363,
                "end_time": 56.961363636363636,
                "pitch": 62,
                "velocity": 80,
                "duration": 0.15000000000000568,
                "tempo": 120.0
            },
            {
                "start_time": 56.96363636363636,
                "end_time": 57.11363636363636,
                "pitch": 69,
                "velocity": 80,
                "duration": 0.14999999999999858,
                "tempo": 120.0
            },
            {
                "start_time": 57.115909090909085,
                "end_time": 57.26363636363636,
                "pitch": 65,
                "velocity": 80,
                "duration": 0.14772727272727337,
                "tempo": 120.0
            },
            {
                "start_time": 57.26590909090909,
                "end_time": 57.413636363636364,
                "pitch": 62,
                "velocity": 80,
                "duration": 0.14772727272727337,
                "tempo": 120.0
            },
            {
                "start_time": 57.41590909090909,
                "end_time": 57.56363636363636,
                "pitch": 69,
                "velocity": 80,
                "duration": 0.14772727272727337,
                "tempo": 120.0
            },
            {
                "start_time": 57.56590909090909,
                "end_time": 57.715909090909086,
                "pitch": 65,
                "velocity": 80,
                "duration": 0.14999999999999858,
                "tempo": 120.0
            },
            {
                "start_time": 57.715909090909086,
                "end_time": 57.865909090909085,
                "pitch": 62,
                "velocity": 80,
                "duration": 0.14999999999999858,
                "tempo": 120.0
            },
            {
                "start_time": 57.86818181818182,
                "end_time": 58.018181818181816,
                "pitch": 65,
                "velocity": 80,
                "duration": 0.14999999999999858,
                "tempo": 120.0
            },
            {
                "start_time": 58.32272727272727,
                "end_time": 58.47272727272727,
                "pitch": 57,
                "velocity": 64,
                "duration": 0.14999999999999858,
                "tempo": 120.0
            },
            {
                "start_time": 28.538636363636364,
                "end_time": 58.929545454545455,
                "pitch": 55,
                "velocity": 80,
                "duration": 30.39090909090909,
                "tempo": 120.0
            },
            {
                "start_time": 58.777272727272724,
                "end_time": 58.929545454545455,
                "pitch": 55,
                "velocity": 64,
                "duration": 0.1522727272727309,
                "tempo": 120.0
            },
            {
                "start_time": 59.23409090909091,
                "end_time": 59.38409090909091,
                "pitch": 57,
                "velocity": 64,
                "duration": 0.14999999999999858,
                "tempo": 120.0
            },
            {
                "start_time": 59.68863636363636,
                "end_time": 59.83863636363636,
                "pitch": 55,
                "velocity": 64,
                "duration": 0.14999999999999858,
                "tempo": 120.0
            },
            {
                "start_time": 60.143181818181816,
                "end_time": 60.293181818181814,
                "pitch": 57,
                "velocity": 64,
                "duration": 0.14999999999999858,
                "tempo": 120.0
            },
            {
                "start_time": 60.74318181818182,
                "end_time": 60.89545454545454,
                "pitch": 57,
                "velocity": 64,
                "duration": 0.15227272727272378,
                "tempo": 120.0
            },
            {
                "start_time": 61.199999999999996,
                "end_time": 61.349999999999994,
                "pitch": 55,
                "velocity": 64,
                "duration": 0.14999999999999858,
                "tempo": 120.0
            },
            {
                "start_time": 61.65454545454545,
                "end_time": 61.804545454545455,
                "pitch": 57,
                "velocity": 64,
                "duration": 0.15000000000000568,
                "tempo": 120.0
            },
            {
                "start_time": 62.10909090909091,
                "end_time": 62.25909090909091,
                "pitch": 55,
                "velocity": 64,
                "duration": 0.14999999999999858,
                "tempo": 120.0
            },
            {
                "start_time": 62.56363636363636,
                "end_time": 62.715909090909086,
                "pitch": 57,
                "velocity": 64,
                "duration": 0.15227272727272378,
                "tempo": 120.0
            },
            {
                "start_time": 63.17045454545454,
                "end_time": 63.320454545454545,
                "pitch": 57,
                "velocity": 64,
                "duration": 0.15000000000000568,
                "tempo": 120.0
            },
            {
                "start_time": 63.62272727272727,
                "end_time": 63.77045454545454,
                "pitch": 55,
                "velocity": 64,
                "duration": 0.14772727272727337,
                "tempo": 120.0
            },
            {
                "start_time": 64.07954545454545,
                "end_time": 64.23181818181818,
                "pitch": 57,
                "velocity": 64,
                "duration": 0.1522727272727309,
                "tempo": 120.0
            },
            {
                "start_time": 64.53636363636363,
                "end_time": 64.68863636363636,
                "pitch": 55,
                "velocity": 64,
                "duration": 0.1522727272727309,
                "tempo": 120.0
            },
            {
                "start_time": 64.99090909090908,
                "end_time": 65.14090909090909,
                "pitch": 57,
                "velocity": 64,
                "duration": 0.15000000000000568,
                "tempo": 120.0
            },
            {
                "start_time": 65.59318181818182,
                "end_time": 65.74090909090908,
                "pitch": 57,
                "velocity": 64,
                "duration": 0.14772727272726627,
                "tempo": 120.0
            },
            {
                "start_time": 66.04318181818182,
                "end_time": 66.19318181818181,
                "pitch": 55,
                "velocity": 64,
                "duration": 0.14999999999999147,
                "tempo": 120.0
            }
        ],
        "Acoustic Guitar (nylon)": [
            {
                "start_time": 9.593181818181817,
                "end_time": 9.74090909090909,
                "pitch": 60,
                "velocity": 80,
                "duration": 0.14772727272727337,
                "tempo": 120.0
            },
            {
                "start_time": 9.74090909090909,
                "end_time": 9.89090909090909,
                "pitch": 64,
                "velocity": 80,
                "duration": 0.15000000000000036,
                "tempo": 120.0
            },
            {
                "start_time": 9.89090909090909,
                "end_time": 10.040909090909091,
                "pitch": 69,
                "velocity": 80,
                "duration": 0.15000000000000036,
                "tempo": 120.0
            },
            {
                "start_time": 10.040909090909091,
                "end_time": 10.19090909090909,
                "pitch": 60,
                "velocity": 80,
                "duration": 0.14999999999999858,
                "tempo": 120.0
            },
            {
                "start_time": 10.193181818181818,
                "end_time": 10.34090909090909,
                "pitch": 64,
                "velocity": 80,
                "duration": 0.1477272727272716,
                "tempo": 120.0
            },
            {
                "start_time": 10.343181818181817,
                "end_time": 10.49090909090909,
                "pitch": 69,
                "velocity": 80,
                "duration": 0.14772727272727337,
                "tempo": 120.0
            },
            {
                "start_time": 10.493181818181817,
                "end_time": 10.64090909090909,
                "pitch": 60,
                "velocity": 80,
                "duration": 0.14772727272727337,
                "tempo": 120.0
            },
            {
                "start_time": 10.643181818181818,
                "end_time": 10.790909090909091,
                "pitch": 64,
                "velocity": 80,
                "duration": 0.14772727272727337,
                "tempo": 120.0
            },
            {
                "start_time": 10.793181818181818,
                "end_time": 10.94090909090909,
                "pitch": 60,
                "velocity": 80,
                "duration": 0.1477272727272716,
                "tempo": 120.0
            },
            {
                "start_time": 10.943181818181818,
                "end_time": 11.09090909090909,
                "pitch": 64,
                "velocity": 80,
                "duration": 0.1477272727272716,
                "tempo": 120.0
            },
            {
                "start_time": 11.093181818181817,
                "end_time": 11.243181818181817,
                "pitch": 69,
                "velocity": 80,
                "duration": 0.15000000000000036,
                "tempo": 120.0
            },
            {
                "start_time": 11.245454545454544,
                "end_time": 11.395454545454545,
                "pitch": 60,
                "velocity": 80,
                "duration": 0.15000000000000036,
                "tempo": 120.0
            },
            {
                "start_time": 11.397727272727272,
                "end_time": 11.547727272727272,
                "pitch": 64,
                "velocity": 80,
                "duration": 0.15000000000000036,
                "tempo": 120.0
            },
            {
                "start_time": 11.549999999999999,
                "end_time": 11.697727272727272,
                "pitch": 69,
                "velocity": 80,
                "duration": 0.14772727272727337,
                "tempo": 120.0
            },
            {
                "start_time": 11.7,
                "end_time": 11.85,
                "pitch": 60,
                "velocity": 80,
                "duration": 0.15000000000000036,
                "tempo": 120.0
            },
            {
                "start_time": 11.85,
                "end_time": 12.0,
                "pitch": 64,
                "velocity": 80,
                "duration": 0.15000000000000036,
                "tempo": 120.0
            },
            {
                "start_time": 12.002272727272727,
                "end_time": 12.149999999999999,
                "pitch": 60,
                "velocity": 80,
                "duration": 0.1477272727272716,
                "tempo": 120.0
            },
            {
                "start_time": 12.149999999999999,
                "end_time": 12.299999999999999,
                "pitch": 64,
                "velocity": 80,
                "duration": 0.15000000000000036,
                "tempo": 120.0
            },
            {
                "start_time": 12.302272727272726,
                "end_time": 12.45,
                "pitch": 69,
                "velocity": 80,
                "duration": 0.14772727272727337,
                "tempo": 120.0
            },
            {
                "start_time": 12.452272727272726,
                "end_time": 12.6,
                "pitch": 60,
                "velocity": 80,
                "duration": 0.14772727272727337,
                "tempo": 120.0
            },
            {
                "start_time": 12.602272727272727,
                "end_time": 12.75,
                "pitch": 64,
                "velocity": 80,
                "duration": 0.14772727272727337,
                "tempo": 120.0
            },
            {
                "start_time": 12.752272727272727,
                "end_time": 12.899999999999999,
                "pitch": 69,
                "velocity": 80,
                "duration": 0.1477272727272716,
                "tempo": 120.0
            },
            {
                "start_time": 12.902272727272727,
                "end_time": 13.049999999999999,
                "pitch": 60,
                "velocity": 80,
                "duration": 0.1477272727272716,
                "tempo": 120.0
            },
            {
                "start_time": 13.052272727272726,
                "end_time": 13.202272727272726,
                "pitch": 64,
                "velocity": 80,
                "duration": 0.15000000000000036,
                "tempo": 120.0
            },
            {
                "start_time": 13.202272727272726,
                "end_time": 13.35,
                "pitch": 59,
                "velocity": 80,
                "duration": 0.14772727272727337,
                "tempo": 120.0
            },
            {
                "start_time": 13.352272727272727,
                "end_time": 13.502272727272727,
                "pitch": 62,
                "velocity": 80,
                "duration": 0.15000000000000036,
                "tempo": 120.0
            },
            {
                "start_time": 13.502272727272727,
                "end_time": 13.652272727272727,
                "pitch": 67,
                "velocity": 80,
                "duration": 0.15000000000000036,
                "tempo": 120.0
            },
            {
                "start_time": 13.652272727272727,
                "end_time": 13.802272727272726,
                "pitch": 59,
                "velocity": 80,
                "duration": 0.14999999999999858,
                "tempo": 120.0
            },
            {
                "start_time": 13.802272727272726,
                "end_time": 13.952272727272726,
                "pitch": 62,
                "velocity": 80,
                "duration": 0.15000000000000036,
                "tempo": 120.0
            },
            {
                "start_time": 13.952272727272726,
                "end_time": 14.102272727272727,
                "pitch": 67,
                "velocity": 80,
                "duration": 0.15000000000000036,
                "tempo": 120.0
            },
            {
                "start_time": 14.104545454545454,
                "end_time": 14.254545454545454,
                "pitch": 59,
                "velocity": 80,
                "duration": 0.15000000000000036,
                "tempo": 120.0
            },
            {
                "start_time": 14.254545454545454,
                "end_time": 14.406818181818181,
                "pitch": 62,
                "velocity": 80,
                "duration": 0.15227272727272734,
                "tempo": 120.0
            },
            {
                "start_time": 14.406818181818181,
                "end_time": 14.556818181818182,
                "pitch": 57,
                "velocity": 80,
                "duration": 0.15000000000000036,
                "tempo": 120.0
            },
            {
                "start_time": 14.559090909090909,
                "end_time": 14.709090909090909,
                "pitch": 60,
                "velocity": 80,
                "duration": 0.15000000000000036,
                "tempo": 120.0
            },
            {
                "start_time": 14.709090909090909,
                "end_time": 14.861363636363636,
                "pitch": 65,
                "velocity": 80,
                "duration": 0.15227272727272734,
                "tempo": 120.0
            },
            {
                "start_time": 14.863636363636363,
                "end_time": 15.01590909090909,
                "pitch": 57,
                "velocity": 80,
                "duration": 0.15227272727272734,
                "tempo": 120.0
            },
            {
                "start_time": 15.01590909090909,
                "end_time": 15.168181818181818,
                "pitch": 60,
                "velocity": 80,
                "duration": 0.15227272727272734,
                "tempo": 120.0
            },
            {
                "start_time": 15.170454545454545,
                "end_time": 15.322727272727272,
                "pitch": 65,
                "velocity": 80,
                "duration": 0.15227272727272734,
                "tempo": 120.0
            },
            {
                "start_time": 15.322727272727272,
                "end_time": 15.472727272727273,
                "pitch": 57,
                "velocity": 80,
                "duration": 0.15000000000000036,
                "tempo": 120.0
            },
            {
                "start_time": 15.472727272727273,
                "end_time": 15.622727272727271,
                "pitch": 60,
                "velocity": 80,
                "duration": 0.14999999999999858,
                "tempo": 120.0
            },
            {
                "start_time": 15.625,
                "end_time": 15.772727272727272,
                "pitch": 59,
                "velocity": 80,
                "duration": 0.1477272727272716,
                "tempo": 120.0
            },
            {
                "start_time": 15.774999999999999,
                "end_time": 15.922727272727272,
                "pitch": 64,
                "velocity": 80,
                "duration": 0.14772727272727337,
                "tempo": 120.0
            },
            {
                "start_time": 15.924999999999999,
                "end_time": 16.07272727272727,
                "pitch": 67,
                "velocity": 80,
                "duration": 0.1477272727272716,
                "tempo": 120.0
            },
            {
                "start_time": 16.075,
                "end_time": 16.222727272727273,
                "pitch": 59,
                "velocity": 80,
                "duration": 0.14772727272727337,
                "tempo": 120.0
            },
            {
                "start_time": 16.224999999999998,
                "end_time": 16.37272727272727,
                "pitch": 64,
                "velocity": 80,
                "duration": 0.14772727272727337,
                "tempo": 120.0
            },
            {
                "start_time": 16.375,
                "end_time": 16.522727272727273,
                "pitch": 67,
                "velocity": 80,
                "duration": 0.14772727272727337,
                "tempo": 120.0
            },
            {
                "start_time": 16.525,
                "end_time": 16.675,
                "pitch": 59,
                "velocity": 80,
                "duration": 0.15000000000000213,
                "tempo": 120.0
            },
            {
                "start_time": 16.677272727272726,
                "end_time": 16.827272727272728,
                "pitch": 64,
                "velocity": 80,
                "duration": 0.15000000000000213,
                "tempo": 120.0
            },
            {
                "start_time": 16.829545454545453,
                "end_time": 16.977272727272727,
                "pitch": 59,
                "velocity": 80,
                "duration": 0.14772727272727337,
                "tempo": 120.0
            },
            {
                "start_time": 16.979545454545455,
                "end_time": 17.129545454545454,
                "pitch": 64,
                "velocity": 80,
                "duration": 0.14999999999999858,
                "tempo": 120.0
            },
            {
                "start_time": 17.131818181818183,
                "end_time": 17.279545454545453,
                "pitch": 67,
                "velocity": 80,
                "duration": 0.14772727272726982,
                "tempo": 120.0
            },
            {
                "start_time": 17.28181818181818,
                "end_time": 17.429545454545455,
                "pitch": 59,
                "velocity": 80,
                "duration": 0.14772727272727337,
                "tempo": 120.0
            },
            {
                "start_time": 17.43181818181818,
                "end_time": 17.579545454545453,
                "pitch": 64,
                "velocity": 80,
                "duration": 0.14772727272727337,
                "tempo": 120.0
            },
            {
                "start_time": 17.581818181818182,
                "end_time": 17.73181818181818,
                "pitch": 67,
                "velocity": 80,
                "duration": 0.14999999999999858,
                "tempo": 120.0
            },
            {
                "start_time": 17.73181818181818,
                "end_time": 17.881818181818183,
                "pitch": 59,
                "velocity": 80,
                "duration": 0.15000000000000213,
                "tempo": 120.0
            },
            {
                "start_time": 17.884090909090908,
                "end_time": 18.034090909090907,
                "pitch": 64,
                "velocity": 80,
                "duration": 0.14999999999999858,
                "tempo": 120.0
            },
            {
                "start_time": 18.036363636363635,
                "end_time": 18.186363636363634,
                "pitch": 59,
                "velocity": 80,
                "duration": 0.14999999999999858,
                "tempo": 120.0
            },
            {
                "start_time": 18.186363636363634,
                "end_time": 18.336363636363636,
                "pitch": 64,
                "velocity": 80,
                "duration": 0.15000000000000213,
                "tempo": 120.0
            },
            {
                "start_time": 18.33863636363636,
                "end_time": 18.488636363636363,
                "pitch": 67,
                "velocity": 80,
                "duration": 0.15000000000000213,
                "tempo": 120.0
            },
            {
                "start_time": 18.49090909090909,
                "end_time": 18.64090909090909,
                "pitch": 59,
                "velocity": 80,
                "duration": 0.15000000000000213,
                "tempo": 120.0
            },
            {
                "start_time": 18.643181818181816,
                "end_time": 18.793181818181818,
                "pitch": 64,
                "velocity": 80,
                "duration": 0.15000000000000213,
                "tempo": 120.0
            },
            {
                "start_time": 18.793181818181818,
                "end_time": 18.945454545454545,
                "pitch": 67,
                "velocity": 80,
                "duration": 0.15227272727272734,
                "tempo": 120.0
            },
            {
                "start_time": 18.945454545454545,
                "end_time": 19.095454545454544,
                "pitch": 59,
                "velocity": 80,
                "duration": 0.14999999999999858,
                "tempo": 120.0
            },
            {
                "start_time": 19.095454545454544,
                "end_time": 19.245454545454546,
                "pitch": 64,
                "velocity": 80,
                "duration": 0.15000000000000213,
                "tempo": 120.0
            },
            {
                "start_time": 19.24772727272727,
                "end_time": 19.395454545454545,
                "pitch": 59,
                "velocity": 80,
                "duration": 0.14772727272727337,
                "tempo": 120.0
            },
            {
                "start_time": 19.397727272727273,
                "end_time": 19.545454545454543,
                "pitch": 64,
                "velocity": 80,
                "duration": 0.14772727272726982,
                "tempo": 120.0
            },
            {
                "start_time": 19.547727272727272,
                "end_time": 19.69772727272727,
                "pitch": 67,
                "velocity": 80,
                "duration": 0.14999999999999858,
                "tempo": 120.0
            },
            {
                "start_time": 19.69772727272727,
                "end_time": 19.847727272727273,
                "pitch": 59,
                "velocity": 80,
                "duration": 0.15000000000000213,
                "tempo": 120.0
            },
            {
                "start_time": 19.849999999999998,
                "end_time": 20.0,
                "pitch": 64,
                "velocity": 80,
                "duration": 0.15000000000000213,
                "tempo": 120.0
            },
            {
                "start_time": 20.002272727272725,
                "end_time": 20.152272727272727,
                "pitch": 67,
                "velocity": 80,
                "duration": 0.15000000000000213,
                "tempo": 120.0
            },
            {
                "start_time": 20.154545454545453,
                "end_time": 20.302272727272726,
                "pitch": 59,
                "velocity": 80,
                "duration": 0.14772727272727337,
                "tempo": 120.0
            },
            {
                "start_time": 20.304545454545455,
                "end_time": 20.452272727272728,
                "pitch": 64,
                "velocity": 80,
                "duration": 0.14772727272727337,
                "tempo": 120.0
            },
            {
                "start_time": 20.454545454545453,
                "end_time": 20.602272727272727,
                "pitch": 60,
                "velocity": 80,
                "duration": 0.14772727272727337,
                "tempo": 120.0
            },
            {
                "start_time": 20.604545454545452,
                "end_time": 20.752272727272725,
                "pitch": 64,
                "velocity": 80,
                "duration": 0.14772727272727337,
                "tempo": 120.0
            },
            {
                "start_time": 20.754545454545454,
                "end_time": 20.904545454545453,
                "pitch": 69,
                "velocity": 80,
                "duration": 0.14999999999999858,
                "tempo": 120.0
            },
            {
                "start_time": 20.90681818181818,
                "end_time": 21.05681818181818,
                "pitch": 60,
                "velocity": 80,
                "duration": 0.14999999999999858,
                "tempo": 120.0
            },
            {
                "start_time": 21.05909090909091,
                "end_time": 21.209090909090907,
                "pitch": 64,
                "velocity": 80,
                "duration": 0.14999999999999858,
                "tempo": 120.0
            },
            {
                "start_time": 21.209090909090907,
                "end_time": 21.35909090909091,
                "pitch": 69,
                "velocity": 80,
                "duration": 0.15000000000000213,
                "tempo": 120.0
            },
            {
                "start_time": 21.361363636363635,
                "end_time": 21.511363636363637,
                "pitch": 60,
                "velocity": 80,
                "duration": 0.15000000000000213,
                "tempo": 120.0
            },
            {
                "start_time": 21.513636363636362,
                "end_time": 21.663636363636364,
                "pitch": 64,
                "velocity": 80,
                "duration": 0.15000000000000213,
                "tempo": 120.0
            },
            {
                "start_time": 21.66590909090909,
                "end_time": 21.81590909090909,
                "pitch": 60,
                "velocity": 80,
                "duration": 0.15000000000000213,
                "tempo": 120.0
            },
            {
                "start_time": 21.81590909090909,
                "end_time": 21.96590909090909,
                "pitch": 64,
                "velocity": 80,
                "duration": 0.14999999999999858,
                "tempo": 120.0
            },
            {
                "start_time": 21.96818181818182,
                "end_time": 22.11590909090909,
                "pitch": 69,
                "velocity": 80,
                "duration": 0.14772727272726982,
                "tempo": 120.0
            },
            {
                "start_time": 22.118181818181817,
                "end_time": 22.26590909090909,
                "pitch": 60,
                "velocity": 80,
                "duration": 0.14772727272727337,
                "tempo": 120.0
            },
            {
                "start_time": 22.268181818181816,
                "end_time": 22.418181818181818,
                "pitch": 64,
                "velocity": 80,
                "duration": 0.15000000000000213,
                "tempo": 120.0
            },
            {
                "start_time": 22.418181818181818,
                "end_time": 22.568181818181817,
                "pitch": 69,
                "velocity": 80,
                "duration": 0.14999999999999858,
                "tempo": 120.0
            },
            {
                "start_time": 22.568181818181817,
                "end_time": 22.720454545454544,
                "pitch": 60,
                "velocity": 80,
                "duration": 0.15227272727272734,
                "tempo": 120.0
            },
            {
                "start_time": 22.722727272727273,
                "end_time": 22.875,
                "pitch": 64,
                "velocity": 80,
                "duration": 0.15227272727272734,
                "tempo": 120.0
            },
            {
                "start_time": 22.877272727272725,
                "end_time": 23.027272727272727,
                "pitch": 60,
                "velocity": 80,
                "duration": 0.15000000000000213,
                "tempo": 120.0
            },
            {
                "start_time": 23.029545454545453,
                "end_time": 23.179545454545455,
                "pitch": 64,
                "velocity": 80,
                "duration": 0.15000000000000213,
                "tempo": 120.0
            },
            {
                "start_time": 23.18181818181818,
                "end_time": 23.331818181818182,
                "pitch": 69,
                "velocity": 80,
                "duration": 0.15000000000000213,
                "tempo": 120.0
            },
            {
                "start_time": 23.334090909090907,
                "end_time": 23.48409090909091,
                "pitch": 60,
                "velocity": 80,
                "duration": 0.15000000000000213,
                "tempo": 120.0
            },
            {
                "start_time": 23.486363636363635,
                "end_time": 23.636363636363637,
                "pitch": 64,
                "velocity": 80,
                "duration": 0.15000000000000213,
                "tempo": 120.0
            },
            {
                "start_time": 23.636363636363637,
                "end_time": 23.786363636363635,
                "pitch": 69,
                "velocity": 80,
                "duration": 0.14999999999999858,
                "tempo": 120.0
            },
            {
                "start_time": 23.788636363636364,
                "end_time": 23.938636363636363,
                "pitch": 60,
                "velocity": 80,
                "duration": 0.14999999999999858,
                "tempo": 120.0
            },
            {
                "start_time": 23.94090909090909,
                "end_time": 24.09090909090909,
                "pitch": 64,
                "velocity": 80,
                "duration": 0.14999999999999858,
                "tempo": 120.0
            },
            {
                "start_time": 24.09318181818182,
                "end_time": 24.243181818181817,
                "pitch": 59,
                "velocity": 80,
                "duration": 0.14999999999999858,
                "tempo": 120.0
            },
            {
                "start_time": 24.245454545454546,
                "end_time": 24.393181818181816,
                "pitch": 62,
                "velocity": 80,
                "duration": 0.14772727272726982,
                "tempo": 120.0
            },
            {
                "start_time": 24.395454545454545,
                "end_time": 24.545454545454543,
                "pitch": 67,
                "velocity": 80,
                "duration": 0.14999999999999858,
                "tempo": 120.0
            },
            {
                "start_time": 24.545454545454543,
                "end_time": 24.695454545454545,
                "pitch": 59,
                "velocity": 80,
                "duration": 0.15000000000000213,
                "tempo": 120.0
            },
            {
                "start_time": 24.695454545454545,
                "end_time": 24.845454545454544,
                "pitch": 62,
                "velocity": 80,
                "duration": 0.14999999999999858,
                "tempo": 120.0
            },
            {
                "start_time": 24.845454545454544,
                "end_time": 24.995454545454542,
                "pitch": 67,
                "velocity": 80,
                "duration": 0.14999999999999858,
                "tempo": 120.0
            },
            {
                "start_time": 24.99772727272727,
                "end_time": 25.145454545454545,
                "pitch": 59,
                "velocity": 80,
                "duration": 0.14772727272727337,
                "tempo": 120.0
            },
            {
                "start_time": 25.14772727272727,
                "end_time": 25.297727272727272,
                "pitch": 62,
                "velocity": 80,
                "duration": 0.15000000000000213,
                "tempo": 120.0
            },
            {
                "start_time": 25.299999999999997,
                "end_time": 25.45,
                "pitch": 57,
                "velocity": 80,
                "duration": 0.15000000000000213,
                "tempo": 120.0
            },
            {
                "start_time": 25.452272727272724,
                "end_time": 25.602272727272727,
                "pitch": 60,
                "velocity": 80,
                "duration": 0.15000000000000213,
                "tempo": 120.0
            },
            {
                "start_time": 25.602272727272727,
                "end_time": 25.752272727272725,
                "pitch": 65,
                "velocity": 80,
                "duration": 0.14999999999999858,
                "tempo": 120.0
            },
            {
                "start_time": 25.754545454545454,
                "end_time": 25.902272727272727,
                "pitch": 57,
                "velocity": 80,
                "duration": 0.14772727272727337,
                "tempo": 120.0
            },
            {
                "start_time": 25.904545454545453,
                "end_time": 26.052272727272726,
                "pitch": 60,
                "velocity": 80,
                "duration": 0.14772727272727337,
                "tempo": 120.0
            },
            {
                "start_time": 26.054545454545455,
                "end_time": 26.202272727272724,
                "pitch": 65,
                "velocity": 80,
                "duration": 0.14772727272726982,
                "tempo": 120.0
            },
            {
                "start_time": 26.204545454545453,
                "end_time": 26.354545454545452,
                "pitch": 57,
                "velocity": 80,
                "duration": 0.14999999999999858,
                "tempo": 120.0
            },
            {
                "start_time": 26.35681818181818,
                "end_time": 26.50681818181818,
                "pitch": 60,
                "velocity": 80,
                "duration": 0.14999999999999858,
                "tempo": 120.0
            },
            {
                "start_time": 26.509090909090908,
                "end_time": 26.65681818181818,
                "pitch": 59,
                "velocity": 80,
                "duration": 0.14772727272727337,
                "tempo": 120.0
            },
            {
                "start_time": 26.659090909090907,
                "end_time": 26.80909090909091,
                "pitch": 64,
                "velocity": 80,
                "duration": 0.15000000000000213,
                "tempo": 120.0
            },
            {
                "start_time": 26.811363636363634,
                "end_time": 26.961363636363636,
                "pitch": 67,
                "velocity": 80,
                "duration": 0.15000000000000213,
                "tempo": 120.0
            },
            {
                "start_time": 26.96363636363636,
                "end_time": 27.113636363636363,
                "pitch": 59,
                "velocity": 80,
                "duration": 0.15000000000000213,
                "tempo": 120.0
            },
            {
                "start_time": 27.113636363636363,
                "end_time": 27.263636363636362,
                "pitch": 64,
                "velocity": 80,
                "duration": 0.14999999999999858,
                "tempo": 120.0
            },
            {
                "start_time": 27.26590909090909,
                "end_time": 27.41590909090909,
                "pitch": 67,
                "velocity": 80,
                "duration": 0.14999999999999858,
                "tempo": 120.0
            },
            {
                "start_time": 27.418181818181818,
                "end_time": 27.565909090909088,
                "pitch": 59,
                "velocity": 80,
                "duration": 0.14772727272726982,
                "tempo": 120.0
            },
            {
                "start_time": 27.568181818181817,
                "end_time": 27.71590909090909,
                "pitch": 64,
                "velocity": 80,
                "duration": 0.14772727272727337,
                "tempo": 120.0
            },
            {
                "start_time": 27.718181818181815,
                "end_time": 27.86590909090909,
                "pitch": 59,
                "velocity": 80,
                "duration": 0.14772727272727337,
                "tempo": 120.0
            },
            {
                "start_time": 27.868181818181817,
                "end_time": 28.01590909090909,
                "pitch": 64,
                "velocity": 80,
                "duration": 0.14772727272727337,
                "tempo": 120.0
            },
            {
                "start_time": 28.018181818181816,
                "end_time": 28.168181818181818,
                "pitch": 67,
                "velocity": 80,
                "duration": 0.15000000000000213,
                "tempo": 120.0
            },
            {
                "start_time": 28.170454545454543,
                "end_time": 28.320454545454545,
                "pitch": 59,
                "velocity": 80,
                "duration": 0.15000000000000213,
                "tempo": 120.0
            },
            {
                "start_time": 28.32272727272727,
                "end_time": 28.472727272727273,
                "pitch": 64,
                "velocity": 80,
                "duration": 0.15000000000000213,
                "tempo": 120.0
            },
            {
                "start_time": 28.472727272727273,
                "end_time": 28.62272727272727,
                "pitch": 67,
                "velocity": 80,
                "duration": 0.14999999999999858,
                "tempo": 120.0
            },
            {
                "start_time": 28.625,
                "end_time": 28.77272727272727,
                "pitch": 59,
                "velocity": 80,
                "duration": 0.14772727272726982,
                "tempo": 120.0
            },
            {
                "start_time": 28.775,
                "end_time": 28.924999999999997,
                "pitch": 64,
                "velocity": 80,
                "duration": 0.14999999999999858,
                "tempo": 120.0
            },
            {
                "start_time": 28.927272727272726,
                "end_time": 29.075,
                "pitch": 59,
                "velocity": 80,
                "duration": 0.14772727272727337,
                "tempo": 120.0
            },
            {
                "start_time": 29.075,
                "end_time": 29.224999999999998,
                "pitch": 64,
                "velocity": 80,
                "duration": 0.14999999999999858,
                "tempo": 120.0
            },
            {
                "start_time": 29.224999999999998,
                "end_time": 29.377272727272725,
                "pitch": 67,
                "velocity": 80,
                "duration": 0.15227272727272734,
                "tempo": 120.0
            },
            {
                "start_time": 29.377272727272725,
                "end_time": 29.527272727272727,
                "pitch": 59,
                "velocity": 80,
                "duration": 0.15000000000000213,
                "tempo": 120.0
            },
            {
                "start_time": 29.529545454545453,
                "end_time": 29.679545454545455,
                "pitch": 64,
                "velocity": 80,
                "duration": 0.15000000000000213,
                "tempo": 120.0
            },
            {
                "start_time": 29.68181818181818,
                "end_time": 29.831818181818182,
                "pitch": 67,
                "velocity": 80,
                "duration": 0.15000000000000213,
                "tempo": 120.0
            },
            {
                "start_time": 29.834090909090907,
                "end_time": 29.98181818181818,
                "pitch": 59,
                "velocity": 80,
                "duration": 0.14772727272727337,
                "tempo": 120.0
            },
            {
                "start_time": 29.98409090909091,
                "end_time": 30.134090909090908,
                "pitch": 64,
                "velocity": 80,
                "duration": 0.14999999999999858,
                "tempo": 120.0
            },
            {
                "start_time": 30.136363636363633,
                "end_time": 30.286363636363635,
                "pitch": 59,
                "velocity": 80,
                "duration": 0.15000000000000213,
                "tempo": 120.0
            },
            {
                "start_time": 30.28863636363636,
                "end_time": 30.438636363636363,
                "pitch": 64,
                "velocity": 80,
                "duration": 0.15000000000000213,
                "tempo": 120.0
            },
            {
                "start_time": 30.438636363636363,
                "end_time": 30.59090909090909,
                "pitch": 67,
                "velocity": 80,
                "duration": 0.15227272727272734,
                "tempo": 120.0
            },
            {
                "start_time": 30.593181818181815,
                "end_time": 30.743181818181817,
                "pitch": 59,
                "velocity": 80,
                "duration": 0.15000000000000213,
                "tempo": 120.0
            },
            {
                "start_time": 30.745454545454542,
                "end_time": 30.89772727272727,
                "pitch": 64,
                "velocity": 80,
                "duration": 0.15227272727272734,
                "tempo": 120.0
            },
            {
                "start_time": 30.9,
                "end_time": 31.049999999999997,
                "pitch": 67,
                "velocity": 80,
                "duration": 0.14999999999999858,
                "tempo": 120.0
            },
            {
                "start_time": 31.052272727272726,
                "end_time": 31.2,
                "pitch": 59,
                "velocity": 80,
                "duration": 0.14772727272727337,
                "tempo": 120.0
            },
            {
                "start_time": 31.202272727272724,
                "end_time": 31.352272727272727,
                "pitch": 64,
                "velocity": 80,
                "duration": 0.15000000000000213,
                "tempo": 120.0
            }
        ],
        "Vibraphone": [
            {
                "start_time": 31.354545454545452,
                "end_time": 31.502272727272725,
                "pitch": 69,
                "velocity": 101,
                "duration": 0.14772727272727337,
                "tempo": 120.0
            },
            {
                "start_time": 31.502272727272725,
                "end_time": 31.652272727272727,
                "pitch": 64,
                "velocity": 101,
                "duration": 0.15000000000000213,
                "tempo": 120.0
            },
            {
                "start_time": 31.654545454545453,
                "end_time": 31.804545454545455,
                "pitch": 57,
                "velocity": 101,
                "duration": 0.15000000000000213,
                "tempo": 120.0
            },
            {
                "start_time": 31.804545454545455,
                "end_time": 31.954545454545453,
                "pitch": 64,
                "velocity": 101,
                "duration": 0.14999999999999858,
                "tempo": 120.0
            },
            {
                "start_time": 31.956818181818182,
                "end_time": 32.10681818181818,
                "pitch": 69,
                "velocity": 101,
                "duration": 0.14999999999999503,
                "tempo": 120.0
            },
            {
                "start_time": 32.10909090909091,
                "end_time": 32.25909090909091,
                "pitch": 64,
                "velocity": 101,
                "duration": 0.14999999999999858,
                "tempo": 120.0
            },
            {
                "start_time": 32.25909090909091,
                "end_time": 32.40909090909091,
                "pitch": 57,
                "velocity": 101,
                "duration": 0.14999999999999858,
                "tempo": 120.0
            },
            {
                "start_time": 32.41136363636363,
                "end_time": 32.56363636363636,
                "pitch": 64,
                "velocity": 101,
                "duration": 0.1522727272727309,
                "tempo": 120.0
            },
            {
                "start_time": 32.56363636363636,
                "end_time": 32.71363636363636,
                "pitch": 69,
                "velocity": 101,
                "duration": 0.14999999999999858,
                "tempo": 120.0
            },
            {
                "start_time": 32.715909090909086,
                "end_time": 32.86590909090909,
                "pitch": 64,
                "velocity": 101,
                "duration": 0.15000000000000568,
                "tempo": 120.0
            },
            {
                "start_time": 32.86818181818182,
                "end_time": 33.018181818181816,
                "pitch": 69,
                "velocity": 101,
                "duration": 0.14999999999999858,
                "tempo": 120.0
            },
            {
                "start_time": 33.018181818181816,
                "end_time": 33.320454545454545,
                "pitch": 76,
                "velocity": 101,
                "duration": 0.30227272727272947,
                "tempo": 120.0
            },
            {
                "start_time": 33.32272727272727,
                "end_time": 33.47272727272727,
                "pitch": 74,
                "velocity": 101,
                "duration": 0.14999999999999858,
                "tempo": 120.0
            },
            {
                "start_time": 33.47272727272727,
                "end_time": 33.77272727272727,
                "pitch": 72,
                "velocity": 101,
                "duration": 0.30000000000000426,
                "tempo": 120.0
            },
            {
                "start_time": 33.775,
                "end_time": 33.92272727272727,
                "pitch": 67,
                "velocity": 101,
                "duration": 0.14772727272727337,
                "tempo": 120.0
            },
            {
                "start_time": 33.925,
                "end_time": 34.07272727272727,
                "pitch": 62,
                "velocity": 101,
                "duration": 0.14772727272727337,
                "tempo": 120.0
            },
            {
                "start_time": 34.074999999999996,
                "end_time": 34.225,
                "pitch": 55,
                "velocity": 101,
                "duration": 0.15000000000000568,
                "tempo": 120.0
            },
            {
                "start_time": 34.22727272727273,
                "end_time": 34.377272727272725,
                "pitch": 62,
                "velocity": 101,
                "duration": 0.14999999999999858,
                "tempo": 120.0
            },
            {
                "start_time": 34.37954545454545,
                "end_time": 34.527272727272724,
                "pitch": 67,
                "velocity": 101,
                "duration": 0.14772727272727337,
                "tempo": 120.0
            },
            {
                "start_time": 34.529545454545456,
                "end_time": 34.679545454545455,
                "pitch": 62,
                "velocity": 101,
                "duration": 0.14999999999999858,
                "tempo": 120.0
            },
            {
                "start_time": 34.68181818181818,
                "end_time": 34.83181818181818,
                "pitch": 55,
                "velocity": 101,
                "duration": 0.14999999999999858,
                "tempo": 120.0
            },
            {
                "start_time": 34.83409090909091,
                "end_time": 34.98409090909091,
                "pitch": 62,
                "velocity": 101,
                "duration": 0.14999999999999858,
                "tempo": 120.0
            },
            {
                "start_time": 34.986363636363635,
                "end_time": 35.13409090909091,
                "pitch": 67,
                "velocity": 101,
                "duration": 0.14772727272727337,
                "tempo": 120.0
            },
            {
                "start_time": 35.13636363636363,
                "end_time": 35.28636363636363,
                "pitch": 62,
                "velocity": 101,
                "duration": 0.14999999999999858,
                "tempo": 120.0
            },
            {
                "start_time": 35.288636363636364,
                "end_time": 35.43863636363636,
                "pitch": 67,
                "velocity": 101,
                "duration": 0.14999999999999858,
                "tempo": 120.0
            },
            {
                "start_time": 35.44090909090909,
                "end_time": 35.74090909090909,
                "pitch": 79,
                "velocity": 101,
                "duration": 0.30000000000000426,
                "tempo": 120.0
            },
            {
                "start_time": 35.74318181818182,
                "end_time": 35.893181818181816,
                "pitch": 77,
                "velocity": 101,
                "duration": 0.14999999999999858,
                "tempo": 120.0
            },
            {
                "start_time": 35.89545454545454,
                "end_time": 36.04545454545455,
                "pitch": 76,
                "velocity": 101,
                "duration": 0.15000000000000568,
                "tempo": 120.0
            },
            {
                "start_time": 36.04772727272727,
                "end_time": 36.19772727272727,
                "pitch": 74,
                "velocity": 101,
                "duration": 0.14999999999999858,
                "tempo": 120.0
            },
            {
                "start_time": 36.199999999999996,
                "end_time": 36.34772727272727,
                "pitch": 65,
                "velocity": 101,
                "duration": 0.14772727272727337,
                "tempo": 120.0
            },
            {
                "start_time": 36.35,
                "end_time": 36.5,
                "pitch": 60,
                "velocity": 101,
                "duration": 0.14999999999999858,
                "tempo": 120.0
            },
            {
                "start_time": 36.502272727272725,
                "end_time": 36.65,
                "pitch": 53,
                "velocity": 101,
                "duration": 0.14772727272727337,
                "tempo": 120.0
            },
            {
                "start_time": 36.652272727272724,
                "end_time": 36.8,
                "pitch": 60,
                "velocity": 101,
                "duration": 0.14772727272727337,
                "tempo": 120.0
            },
            {
                "start_time": 36.80227272727272,
                "end_time": 36.949999999999996,
                "pitch": 65,
                "velocity": 101,
                "duration": 0.14772727272727337,
                "tempo": 120.0
            },
            {
                "start_time": 36.95227272727273,
                "end_time": 37.10227272727273,
                "pitch": 60,
                "velocity": 101,
                "duration": 0.14999999999999858,
                "tempo": 120.0
            },
            {
                "start_time": 37.10227272727273,
                "end_time": 37.25454545454545,
                "pitch": 53,
                "velocity": 101,
                "duration": 0.15227272727272378,
                "tempo": 120.0
            },
            {
                "start_time": 37.25454545454545,
                "end_time": 37.40681818181818,
                "pitch": 60,
                "velocity": 101,
                "duration": 0.1522727272727309,
                "tempo": 120.0
            },
            {
                "start_time": 37.40681818181818,
                "end_time": 37.55681818181818,
                "pitch": 65,
                "velocity": 101,
                "duration": 0.14999999999999858,
                "tempo": 120.0
            },
            {
                "start_time": 37.55681818181818,
                "end_time": 37.70909090909091,
                "pitch": 60,
                "velocity": 101,
                "duration": 0.1522727272727309,
                "tempo": 120.0
            },
            {
                "start_time": 37.70909090909091,
                "end_time": 37.85909090909091,
                "pitch": 65,
                "velocity": 101,
                "duration": 0.14999999999999858,
                "tempo": 120.0
            },
            {
                "start_time": 37.861363636363635,
                "end_time": 38.163636363636364,
                "pitch": 77,
                "velocity": 101,
                "duration": 0.30227272727272947,
                "tempo": 120.0
            },
            {
                "start_time": 38.16590909090909,
                "end_time": 38.31590909090909,
                "pitch": 76,
                "velocity": 101,
                "duration": 0.14999999999999858,
                "tempo": 120.0
            },
            {
                "start_time": 38.31590909090909,
                "end_time": 38.61818181818182,
                "pitch": 74,
                "velocity": 101,
                "duration": 0.30227272727272947,
                "tempo": 120.0
            },
            {
                "start_time": 38.62045454545454,
                "end_time": 38.77045454545454,
                "pitch": 76,
                "velocity": 101,
                "duration": 0.14999999999999858,
                "tempo": 120.0
            },
            {
                "start_time": 38.77272727272727,
                "end_time": 38.92272727272727,
                "pitch": 74,
                "velocity": 101,
                "duration": 0.14999999999999858,
                "tempo": 120.0
            },
            {
                "start_time": 38.92272727272727,
                "end_time": 39.074999999999996,
                "pitch": 72,
                "velocity": 101,
                "duration": 0.15227272727272378,
                "tempo": 120.0
            },
            {
                "start_time": 39.07727272727273,
                "end_time": 39.22954545454545,
                "pitch": 74,
                "velocity": 101,
                "duration": 0.15227272727272378,
                "tempo": 120.0
            },
            {
                "start_time": 39.22954545454545,
                "end_time": 39.38181818181818,
                "pitch": 72,
                "velocity": 101,
                "duration": 0.1522727272727309,
                "tempo": 120.0
            },
            {
                "start_time": 39.38409090909091,
                "end_time": 39.53409090909091,
                "pitch": 71,
                "velocity": 101,
                "duration": 0.14999999999999858,
                "tempo": 120.0
            },
            {
                "start_time": 39.53636363636363,
                "end_time": 39.68636363636364,
                "pitch": 72,
                "velocity": 101,
                "duration": 0.15000000000000568,
                "tempo": 120.0
            },
            {
                "start_time": 39.68863636363636,
                "end_time": 39.83863636363636,
                "pitch": 71,
                "velocity": 101,
                "duration": 0.14999999999999858,
                "tempo": 120.0
            },
            {
                "start_time": 39.840909090909086,
                "end_time": 39.98863636363636,
                "pitch": 69,
                "velocity": 101,
                "duration": 0.14772727272727337,
                "tempo": 120.0
            },
            {
                "start_time": 39.99090909090909,
                "end_time": 40.14090909090909,
                "pitch": 71,
                "velocity": 101,
                "duration": 0.14999999999999858,
                "tempo": 120.0
            },
            {
                "start_time": 40.143181818181816,
                "end_time": 40.29090909090909,
                "pitch": 69,
                "velocity": 101,
                "duration": 0.14772727272727337,
                "tempo": 120.0
            },
            {
                "start_time": 40.293181818181814,
                "end_time": 40.44318181818181,
                "pitch": 67,
                "velocity": 101,
                "duration": 0.14999999999999858,
                "tempo": 120.0
            },
            {
                "start_time": 40.44318181818181,
                "end_time": 40.74318181818182,
                "pitch": 64,
                "velocity": 101,
                "duration": 0.30000000000000426,
                "tempo": 120.0
            },
            {
                "start_time": 40.74318181818182,
                "end_time": 41.04545454545455,
                "pitch": 67,
                "velocity": 101,
                "duration": 0.30227272727272947,
                "tempo": 120.0
            },
            {
                "start_time": 41.04772727272727,
                "end_time": 41.19772727272727,
                "pitch": 69,
                "velocity": 101,
                "duration": 0.14999999999999858,
                "tempo": 120.0
            },
            {
                "start_time": 41.199999999999996,
                "end_time": 41.35,
                "pitch": 64,
                "velocity": 101,
                "duration": 0.15000000000000568,
                "tempo": 120.0
            },
            {
                "start_time": 41.35,
                "end_time": 41.5,
                "pitch": 57,
                "velocity": 101,
                "duration": 0.14999999999999858,
                "tempo": 120.0
            },
            {
                "start_time": 41.502272727272725,
                "end_time": 41.652272727272724,
                "pitch": 64,
                "velocity": 101,
                "duration": 0.14999999999999858,
                "tempo": 120.0
            },
            {
                "start_time": 41.65454545454545,
                "end_time": 41.804545454545455,
                "pitch": 69,
                "velocity": 101,
                "duration": 0.15000000000000568,
                "tempo": 120.0
            },
            {
                "start_time": 41.80681818181818,
                "end_time": 41.95681818181818,
                "pitch": 64,
                "velocity": 101,
                "duration": 0.14999999999999858,
                "tempo": 120.0
            },
            {
                "start_time": 41.95681818181818,
                "end_time": 42.10681818181818,
                "pitch": 57,
                "velocity": 101,
                "duration": 0.14999999999999858,
                "tempo": 120.0
            },
            {
                "start_time": 42.10909090909091,
                "end_time": 42.26136363636363,
                "pitch": 64,
                "velocity": 101,
                "duration": 0.15227272727272378,
                "tempo": 120.0
            },
            {
                "start_time": 42.26136363636363,
                "end_time": 42.41136363636363,
                "pitch": 69,
                "velocity": 101,
                "duration": 0.14999999999999858,
                "tempo": 120.0
            },
            {
                "start_time": 42.413636363636364,
                "end_time": 42.56363636363636,
                "pitch": 64,
                "velocity": 101,
                "duration": 0.14999999999999858,
                "tempo": 120.0
            },
            {
                "start_time": 42.56363636363636,
                "end_time": 42.71363636363636,
                "pitch": 69,
                "velocity": 101,
                "duration": 0.14999999999999858,
                "tempo": 120.0
            },
            {
                "start_time": 42.715909090909086,
                "end_time": 43.018181818181816,
                "pitch": 76,
                "velocity": 101,
                "duration": 0.30227272727272947,
                "tempo": 120.0
            },
            {
                "start_time": 43.02045454545454,
                "end_time": 43.17045454545455,
                "pitch": 74,
                "velocity": 101,
                "duration": 0.15000000000000568,
                "tempo": 120.0
            },
            {
                "start_time": 43.17045454545455,
                "end_time": 43.470454545454544,
                "pitch": 72,
                "velocity": 101,
                "duration": 0.29999999999999716,
                "tempo": 120.0
            },
            {
                "start_time": 43.47272727272727,
                "end_time": 43.62045454545454,
                "pitch": 67,
                "velocity": 101,
                "duration": 0.14772727272727337,
                "tempo": 120.0
            },
            {
                "start_time": 43.62272727272727,
                "end_time": 43.77045454545454,
                "pitch": 62,
                "velocity": 101,
                "duration": 0.14772727272727337,
                "tempo": 120.0
            },
            {
                "start_time": 43.77272727272727,
                "end_time": 43.92272727272727,
                "pitch": 55,
                "velocity": 101,
                "duration": 0.14999999999999858,
                "tempo": 120.0
            },
            {
                "start_time": 43.925,
                "end_time": 44.074999999999996,
                "pitch": 62,
                "velocity": 101,
                "duration": 0.14999999999999858,
                "tempo": 120.0
            },
            {
                "start_time": 44.074999999999996,
                "end_time": 44.224999999999994,
                "pitch": 67,
                "velocity": 101,
                "duration": 0.14999999999999858,
                "tempo": 120.0
            },
            {
                "start_time": 44.22727272727273,
                "end_time": 44.377272727272725,
                "pitch": 62,
                "velocity": 101,
                "duration": 0.14999999999999858,
                "tempo": 120.0
            },
            {
                "start_time": 44.37954545454545,
                "end_time": 44.52954545454545,
                "pitch": 55,
                "velocity": 101,
                "duration": 0.14999999999999858,
                "tempo": 120.0
            },
            {
                "start_time": 44.52954545454545,
                "end_time": 44.68181818181818,
                "pitch": 62,
                "velocity": 101,
                "duration": 0.1522727272727309,
                "tempo": 120.0
            },
            {
                "start_time": 44.684090909090905,
                "end_time": 44.83181818181818,
                "pitch": 67,
                "velocity": 101,
                "duration": 0.14772727272727337,
                "tempo": 120.0
            },
            {
                "start_time": 44.834090909090904,
                "end_time": 44.98409090909091,
                "pitch": 62,
                "velocity": 101,
                "duration": 0.15000000000000568,
                "tempo": 120.0
            },
            {
                "start_time": 44.986363636363635,
                "end_time": 45.13636363636363,
                "pitch": 67,
                "velocity": 101,
                "duration": 0.14999999999999858,
                "tempo": 120.0
            },
            {
                "start_time": 45.13863636363636,
                "end_time": 45.43863636363636,
                "pitch": 79,
                "velocity": 101,
                "duration": 0.30000000000000426,
                "tempo": 120.0
            },
            {
                "start_time": 45.44090909090909,
                "end_time": 45.590909090909086,
                "pitch": 77,
                "velocity": 101,
                "duration": 0.14999999999999858,
                "tempo": 120.0
            },
            {
                "start_time": 45.59318181818182,
                "end_time": 45.74318181818182,
                "pitch": 76,
                "velocity": 101,
                "duration": 0.14999999999999858,
                "tempo": 120.0
            },
            {
                "start_time": 45.74318181818182,
                "end_time": 45.89545454545454,
                "pitch": 74,
                "velocity": 101,
                "duration": 0.15227272727272378,
                "tempo": 120.0
            },
            {
                "start_time": 45.89772727272727,
                "end_time": 46.04545454545455,
                "pitch": 65,
                "velocity": 101,
                "duration": 0.14772727272727337,
                "tempo": 120.0
            },
            {
                "start_time": 46.04772727272727,
                "end_time": 46.19772727272727,
                "pitch": 60,
                "velocity": 101,
                "duration": 0.14999999999999858,
                "tempo": 120.0
            },
            {
                "start_time": 46.199999999999996,
                "end_time": 46.34772727272727,
                "pitch": 53,
                "velocity": 101,
                "duration": 0.14772727272727337,
                "tempo": 120.0
            },
            {
                "start_time": 46.349999999999994,
                "end_time": 46.49772727272727,
                "pitch": 60,
                "velocity": 101,
                "duration": 0.14772727272727337,
                "tempo": 120.0
            },
            {
                "start_time": 46.5,
                "end_time": 46.64772727272727,
                "pitch": 65,
                "velocity": 101,
                "duration": 0.14772727272727337,
                "tempo": 120.0
            },
            {
                "start_time": 46.65,
                "end_time": 46.8,
                "pitch": 60,
                "velocity": 101,
                "duration": 0.14999999999999858,
                "tempo": 120.0
            },
            {
                "start_time": 46.8,
                "end_time": 46.949999999999996,
                "pitch": 53,
                "velocity": 101,
                "duration": 0.14999999999999858,
                "tempo": 120.0
            },
            {
                "start_time": 46.95227272727273,
                "end_time": 47.10227272727273,
                "pitch": 60,
                "velocity": 101,
                "duration": 0.14999999999999858,
                "tempo": 120.0
            },
            {
                "start_time": 47.10454545454545,
                "end_time": 47.25454545454545,
                "pitch": 65,
                "velocity": 101,
                "duration": 0.14999999999999858,
                "tempo": 120.0
            },
            {
                "start_time": 47.25454545454545,
                "end_time": 47.40454545454545,
                "pitch": 60,
                "velocity": 101,
                "duration": 0.14999999999999858,
                "tempo": 120.0
            },
            {
                "start_time": 47.40681818181818,
                "end_time": 47.559090909090905,
                "pitch": 65,
                "velocity": 101,
                "duration": 0.15227272727272378,
                "tempo": 120.0
            },
            {
                "start_time": 47.56136363636364,
                "end_time": 47.86590909090909,
                "pitch": 77,
                "velocity": 101,
                "duration": 0.3045454545454547,
                "tempo": 120.0
            },
            {
                "start_time": 47.86818181818182,
                "end_time": 48.018181818181816,
                "pitch": 76,
                "velocity": 101,
                "duration": 0.14999999999999858,
                "tempo": 120.0
            },
            {
                "start_time": 48.02045454545454,
                "end_time": 48.32272727272727,
                "pitch": 74,
                "velocity": 101,
                "duration": 0.30227272727272947,
                "tempo": 120.0
            },
            {
                "start_time": 48.324999999999996,
                "end_time": 48.47272727272727,
                "pitch": 76,
                "velocity": 101,
                "duration": 0.14772727272727337,
                "tempo": 120.0
            },
            {
                "start_time": 48.474999999999994,
                "end_time": 48.625,
                "pitch": 74,
                "velocity": 101,
                "duration": 0.15000000000000568,
                "tempo": 120.0
            },
            {
                "start_time": 48.627272727272725,
                "end_time": 48.777272727272724,
                "pitch": 72,
                "velocity": 101,
                "duration": 0.14999999999999858,
                "tempo": 120.0
            },
            {
                "start_time": 48.77954545454545,
                "end_time": 48.929545454545455,
                "pitch": 74,
                "velocity": 101,
                "duration": 0.15000000000000568,
                "tempo": 120.0
            },
            {
                "start_time": 48.93181818181818,
                "end_time": 49.07954545454545,
                "pitch": 72,
                "velocity": 101,
                "duration": 0.14772727272727337,
                "tempo": 120.0
            },
            {
                "start_time": 49.08181818181818,
                "end_time": 49.23181818181818,
                "pitch": 71,
                "velocity": 101,
                "duration": 0.14999999999999858,
                "tempo": 120.0
            },
            {
                "start_time": 49.23409090909091,
                "end_time": 49.38409090909091,
                "pitch": 72,
                "velocity": 101,
                "duration": 0.14999999999999858,
                "tempo": 120.0
            },
            {
                "start_time": 49.38636363636363,
                "end_time": 49.53636363636363,
                "pitch": 71,
                "velocity": 101,
                "duration": 0.14999999999999858,
                "tempo": 120.0
            },
            {
                "start_time": 49.538636363636364,
                "end_time": 49.68636363636364,
                "pitch": 69,
                "velocity": 101,
                "duration": 0.14772727272727337,
                "tempo": 120.0
            },
            {
                "start_time": 49.68863636363636,
                "end_time": 49.83863636363636,
                "pitch": 71,
                "velocity": 101,
                "duration": 0.14999999999999858,
                "tempo": 120.0
            },
            {
                "start_time": 49.840909090909086,
                "end_time": 49.990909090909085,
                "pitch": 69,
                "velocity": 101,
                "duration": 0.14999999999999858,
                "tempo": 120.0
            },
            {
                "start_time": 49.99318181818182,
                "end_time": 50.143181818181816,
                "pitch": 67,
                "velocity": 101,
                "duration": 0.14999999999999858,
                "tempo": 120.0
            },
            {
                "start_time": 50.14545454545454,
                "end_time": 50.445454545454545,
                "pitch": 64,
                "velocity": 101,
                "duration": 0.30000000000000426,
                "tempo": 120.0
            },
            {
                "start_time": 50.44772727272727,
                "end_time": 50.74772727272727,
                "pitch": 67,
                "velocity": 101,
                "duration": 0.29999999999999716,
                "tempo": 120.0
            }
        ]
    }
}