{
    "track_id": "05 Mad Flame",
    "mood": "angry",
    "instruments": {
        "Acoustic Bass": [
            {
                "start_time": 0.03636363636363636,
                "end_time": 0.23409090909090907,
                "pitch": 32,
                "velocity": 80,
                "duration": 0.1977272727272727,
                "tempo": 120.0
            },
            {
                "start_time": 0.23409090909090907,
                "end_time": 0.4340909090909091,
                "pitch": 32,
                "velocity": 80,
                "duration": 0.2,
                "tempo": 120.0
            },
            {
                "start_time": 0.4340909090909091,
                "end_time": 0.634090909090909,
                "pitch": 32,
                "velocity": 80,
                "duration": 0.19999999999999996,
                "tempo": 120.0
            },
            {
                "start_time": 0.634090909090909,
                "end_time": 0.8340909090909091,
                "pitch": 32,
                "velocity": 80,
                "duration": 0.20000000000000007,
                "tempo": 120.0
            },
            {
                "start_time": 0.8340909090909091,
                "end_time": 1.034090909090909,
                "pitch": 32,
                "velocity": 80,
                "duration": 0.19999999999999984,
                "tempo": 120.0
            },
            {
                "start_time": 1.0363636363636364,
                "end_time": 1.2340909090909091,
                "pitch": 32,
                "velocity": 80,
                "duration": 0.19772727272727275,
                "tempo": 120.0
            },
            {
                "start_time": 1.2363636363636363,
                "end_time": 1.4363636363636363,
                "pitch": 32,
                "velocity": 80,
                "duration": 0.19999999999999996,
                "tempo": 120.0
            },
            {
                "start_time": 1.4363636363636363,
                "end_time": 1.6363636363636362,
                "pitch": 32,
                "velocity": 80,
                "duration": 0.19999999999999996,
                "tempo": 120.0
            },
            {
                "start_time": 1.6363636363636362,
                "end_time": 1.834090909090909,
                "pitch": 32,
                "velocity": 80,
                "duration": 0.19772727272727275,
                "tempo": 120.0
            },
            {
                "start_time": 1.8363636363636362,
                "end_time": 2.036363636363636,
                "pitch": 32,
                "velocity": 80,
                "duration": 0.19999999999999996,
                "tempo": 120.0
            },
            {
                "start_time": 2.036363636363636,
                "end_time": 2.2409090909090907,
                "pitch": 32,
                "velocity": 80,
                "duration": 0.20454545454545459,
                "tempo": 120.0
            },
            {
                "start_time": 2.243181818181818,
                "end_time": 2.4477272727272728,
                "pitch": 32,
                "velocity": 80,
                "duration": 0.20454545454545459,
                "tempo": 120.0
            },
            {
                "start_time": 2.4477272727272728,
                "end_time": 2.643181818181818,
                "pitch": 32,
                "velocity": 80,
                "duration": 0.19545454545454533,
                "tempo": 120.0
            },
            {
                "start_time": 2.643181818181818,
                "end_time": 2.8386363636363634,
                "pitch": 32,
                "velocity": 80,
                "duration": 0.19545454545454533,
                "tempo": 120.0
            },
            {
                "start_time": 2.840909090909091,
                "end_time": 3.0454545454545454,
                "pitch": 32,
                "velocity": 80,
                "duration": 0.20454545454545459,
                "tempo": 120.0
            },
            {
                "start_time": 3.0454545454545454,
                "end_time": 3.252272727272727,
                "pitch": 32,
                "velocity": 80,
                "duration": 0.20681818181818157,
                "tempo": 120.0
            },
            {
                "start_time": 3.252272727272727,
                "end_time": 3.452272727272727,
                "pitch": 30,
                "velocity": 80,
                "duration": 0.20000000000000018,
                "tempo": 120.0
            },
            {
                "start_time": 3.452272727272727,
                "end_time": 3.6545454545454543,
                "pitch": 30,
                "velocity": 80,
                "duration": 0.20227272727272716,
                "tempo": 120.0
            },
            {
                "start_time": 3.6545454545454543,
                "end_time": 3.8545454545454545,
                "pitch": 30,
                "velocity": 80,
                "duration": 0.20000000000000018,
                "tempo": 120.0
            },
            {
                "start_time": 3.8545454545454545,
                "end_time": 4.054545454545455,
                "pitch": 30,
                "velocity": 80,
                "duration": 0.20000000000000018,
                "tempo": 120.0
            },
            {
                "start_time": 4.054545454545455,
                "end_time": 4.254545454545454,
                "pitch": 30,
                "velocity": 80,
                "duration": 0.1999999999999993,
                "tempo": 120.0
            },
            {
                "start_time": 4.256818181818182,
                "end_time": 4.454545454545454,
                "pitch": 30,
                "velocity": 80,
                "duration": 0.1977272727272723,
                "tempo": 120.0
            },
            {
                "start_time": 4.456818181818182,
                "end_time": 4.656818181818181,
                "pitch": 30,
                "velocity": 80,
                "duration": 0.1999999999999993,
                "tempo": 120.0
            },
            {
                "start_time": 4.656818181818181,
                "end_time": 4.8590909090909085,
                "pitch": 30,
                "velocity": 80,
                "duration": 0.20227272727272716,
                "tempo": 120.0
            },
            {
                "start_time": 4.8590909090909085,
                "end_time": 5.059090909090909,
                "pitch": 30,
                "velocity": 80,
                "duration": 0.20000000000000018,
                "tempo": 120.0
            },
            {
                "start_time": 5.059090909090909,
                "end_time": 5.259090909090909,
                "pitch": 30,
                "velocity": 80,
                "duration": 0.20000000000000018,
                "tempo": 120.0
            },
            {
                "start_time": 5.259090909090909,
                "end_time": 5.459090909090909,
                "pitch": 30,
                "velocity": 80,
                "duration": 0.20000000000000018,
                "tempo": 120.0
            },
            {
                "start_time": 5.461363636363636,
                "end_time": 5.661363636363636,
                "pitch": 30,
                "velocity": 80,
                "duration": 0.20000000000000018,
                "tempo": 120.0
            },
            {
                "start_time": 5.663636363636363,
                "end_time": 5.761363636363636,
                "pitch": 37,
                "velocity": 80,
                "duration": 0.09772727272727266,
                "tempo": 120.0
            },
            {
                "start_time": 5.761363636363636,
                "end_time": 5.861363636363636,
                "pitch": 39,
                "velocity": 80,
                "duration": 0.10000000000000053,
                "tempo": 120.0
            },
            {
                "start_time": 5.863636363636363,
                "end_time": 5.961363636363636,
                "pitch": 35,
                "velocity": 80,
                "duration": 0.09772727272727266,
                "tempo": 120.0
            },
            {
                "start_time": 5.963636363636363,
                "end_time": 6.0613636363636365,
                "pitch": 37,
                "velocity": 80,
                "duration": 0.09772727272727355,
                "tempo": 120.0
            },
            {
                "start_time": 6.0636363636363635,
                "end_time": 6.161363636363636,
                "pitch": 34,
                "velocity": 80,
                "duration": 0.09772727272727266,
                "tempo": 120.0
            },
            {
                "start_time": 6.163636363636363,
                "end_time": 6.263636363636364,
                "pitch": 35,
                "velocity": 80,
                "duration": 0.10000000000000053,
                "tempo": 120.0
            },
            {
                "start_time": 6.263636363636364,
                "end_time": 6.363636363636363,
                "pitch": 32,
                "velocity": 80,
                "duration": 0.09999999999999964,
                "tempo": 120.0
            },
            {
                "start_time": 6.36590909090909,
                "end_time": 6.465909090909091,
                "pitch": 34,
                "velocity": 80,
                "duration": 0.10000000000000053,
                "tempo": 120.0
            },
            {
                "start_time": 6.468181818181818,
                "end_time": 6.668181818181818,
                "pitch": 28,
                "velocity": 80,
                "duration": 0.20000000000000018,
                "tempo": 120.0
            },
            {
                "start_time": 6.668181818181818,
                "end_time": 6.868181818181818,
                "pitch": 28,
                "velocity": 80,
                "duration": 0.20000000000000018,
                "tempo": 120.0
            },
            {
                "start_time": 6.870454545454545,
                "end_time": 7.070454545454545,
                "pitch": 28,
                "velocity": 80,
                "duration": 0.20000000000000018,
                "tempo": 120.0
            },
            {
                "start_time": 7.070454545454545,
                "end_time": 7.268181818181818,
                "pitch": 28,
                "velocity": 80,
                "duration": 0.1977272727272723,
                "tempo": 120.0
            },
            {
                "start_time": 7.2704545454545455,
                "end_time": 7.470454545454545,
                "pitch": 28,
                "velocity": 80,
                "duration": 0.1999999999999993,
                "tempo": 120.0
            },
            {
                "start_time": 7.472727272727273,
                "end_time": 7.672727272727272,
                "pitch": 28,
                "velocity": 80,
                "duration": 0.1999999999999993,
                "tempo": 120.0
            },
            {
                "start_time": 7.672727272727272,
                "end_time": 7.872727272727272,
                "pitch": 28,
                "velocity": 80,
                "duration": 0.20000000000000018,
                "tempo": 120.0
            },
            {
                "start_time": 7.875,
                "end_time": 8.072727272727272,
                "pitch": 28,
                "velocity": 80,
                "duration": 0.1977272727272723,
                "tempo": 120.0
            },
            {
                "start_time": 8.075,
                "end_time": 8.272727272727272,
                "pitch": 28,
                "velocity": 80,
                "duration": 0.1977272727272723,
                "tempo": 120.0
            },
            {
                "start_time": 8.275,
                "end_time": 8.475,
                "pitch": 28,
                "velocity": 80,
                "duration": 0.1999999999999993,
                "tempo": 120.0
            },
            {
                "start_time": 8.475,
                "end_time": 8.674999999999999,
                "pitch": 28,
                "velocity": 80,
                "duration": 0.1999999999999993,
                "tempo": 120.0
            },
            {
                "start_time": 8.677272727272728,
                "end_time": 8.877272727272727,
                "pitch": 28,
                "velocity": 80,
                "duration": 0.1999999999999993,
                "tempo": 120.0
            },
            {
                "start_time": 8.877272727272727,
                "end_time": 9.079545454545453,
                "pitch": 28,
                "velocity": 80,
                "duration": 0.20227272727272627,
                "tempo": 120.0
            },
            {
                "start_time": 9.079545454545453,
                "end_time": 9.279545454545454,
                "pitch": 28,
                "velocity": 80,
                "duration": 0.20000000000000107,
                "tempo": 120.0
            },
            {
                "start_time": 9.281818181818181,
                "end_time": 9.48181818181818,
                "pitch": 28,
                "velocity": 80,
                "duration": 0.1999999999999993,
                "tempo": 120.0
            },
            {
                "start_time": 9.48181818181818,
                "end_time": 9.684090909090909,
                "pitch": 28,
                "velocity": 80,
                "duration": 0.20227272727272805,
                "tempo": 120.0
            },
            {
                "start_time": 9.684090909090909,
                "end_time": 9.884090909090908,
                "pitch": 27,
                "velocity": 80,
                "duration": 0.1999999999999993,
                "tempo": 120.0
            },
            {
                "start_time": 9.886363636363637,
                "end_time": 10.086363636363636,
                "pitch": 27,
                "velocity": 80,
                "duration": 0.1999999999999993,
                "tempo": 120.0
            },
            {
                "start_time": 10.086363636363636,
                "end_time": 10.286363636363635,
                "pitch": 27,
                "velocity": 80,
                "duration": 0.1999999999999993,
                "tempo": 120.0
            },
            {
                "start_time": 10.286363636363635,
                "end_time": 10.486363636363636,
                "pitch": 27,
                "velocity": 80,
                "duration": 0.20000000000000107,
                "tempo": 120.0
            },
            {
                "start_time": 10.488636363636363,
                "end_time": 10.688636363636363,
                "pitch": 27,
                "velocity": 80,
                "duration": 0.1999999999999993,
                "tempo": 120.0
            },
            {
                "start_time": 10.688636363636363,
                "end_time": 10.89090909090909,
                "pitch": 27,
                "velocity": 80,
                "duration": 0.20227272727272805,
                "tempo": 120.0
            },
            {
                "start_time": 10.89090909090909,
                "end_time": 11.095454545454546,
                "pitch": 27,
                "velocity": 80,
                "duration": 0.20454545454545503,
                "tempo": 120.0
            },
            {
                "start_time": 11.095454545454546,
                "end_time": 11.302272727272726,
                "pitch": 27,
                "velocity": 80,
                "duration": 0.20681818181818024,
                "tempo": 120.0
            },
            {
                "start_time": 11.302272727272726,
                "end_time": 11.504545454545454,
                "pitch": 27,
                "velocity": 80,
                "duration": 0.20227272727272805,
                "tempo": 120.0
            },
            {
                "start_time": 11.504545454545454,
                "end_time": 11.704545454545453,
                "pitch": 27,
                "velocity": 80,
                "duration": 0.1999999999999993,
                "tempo": 120.0
            },
            {
                "start_time": 11.706818181818182,
                "end_time": 11.906818181818181,
                "pitch": 27,
                "velocity": 80,
                "duration": 0.1999999999999993,
                "tempo": 120.0
            },
            {
                "start_time": 11.906818181818181,
                "end_time": 12.10681818181818,
                "pitch": 27,
                "velocity": 80,
                "duration": 0.1999999999999993,
                "tempo": 120.0
            },
            {
                "start_time": 12.10909090909091,
                "end_time": 12.209090909090909,
                "pitch": 27,
                "velocity": 80,
                "duration": 0.09999999999999964,
                "tempo": 120.0
            },
            {
                "start_time": 12.209090909090909,
                "end_time": 12.309090909090909,
                "pitch": 31,
                "velocity": 80,
                "duration": 0.09999999999999964,
                "tempo": 120.0
            },
            {
                "start_time": 12.311363636363636,
                "end_time": 12.411363636363635,
                "pitch": 32,
                "velocity": 80,
                "duration": 0.09999999999999964,
                "tempo": 120.0
            },
            {
                "start_time": 12.411363636363635,
                "end_time": 12.511363636363635,
                "pitch": 34,
                "velocity": 80,
                "duration": 0.09999999999999964,
                "tempo": 120.0
            },
            {
                "start_time": 12.511363636363635,
                "end_time": 12.611363636363636,
                "pitch": 39,
                "velocity": 80,
                "duration": 0.10000000000000142,
                "tempo": 120.0
            },
            {
                "start_time": 12.611363636363636,
                "end_time": 12.711363636363636,
                "pitch": 40,
                "velocity": 80,
                "duration": 0.09999999999999964,
                "tempo": 120.0
            },
            {
                "start_time": 12.711363636363636,
                "end_time": 12.811363636363636,
                "pitch": 37,
                "velocity": 80,
                "duration": 0.09999999999999964,
                "tempo": 120.0
            },
            {
                "start_time": 12.811363636363636,
                "end_time": 12.913636363636362,
                "pitch": 39,
                "velocity": 80,
                "duration": 0.10227272727272663,
                "tempo": 120.0
            },
            {
                "start_time": 12.913636363636362,
                "end_time": 13.113636363636363,
                "pitch": 32,
                "velocity": 80,
                "duration": 0.20000000000000107,
                "tempo": 120.0
            },
            {
                "start_time": 13.113636363636363,
                "end_time": 13.31590909090909,
                "pitch": 32,
                "velocity": 80,
                "duration": 0.20227272727272627,
                "tempo": 120.0
            },
            {
                "start_time": 13.31590909090909,
                "end_time": 13.51590909090909,
                "pitch": 32,
                "velocity": 80,
                "duration": 0.20000000000000107,
                "tempo": 120.0
            },
            {
                "start_time": 13.518181818181818,
                "end_time": 13.718181818181817,
                "pitch": 32,
                "velocity": 80,
                "duration": 0.1999999999999993,
                "tempo": 120.0
            },
            {
                "start_time": 13.718181818181817,
                "end_time": 13.920454545454545,
                "pitch": 32,
                "velocity": 80,
                "duration": 0.20227272727272805,
                "tempo": 120.0
            },
            {
                "start_time": 13.920454545454545,
                "end_time": 14.120454545454544,
                "pitch": 32,
                "velocity": 80,
                "duration": 0.1999999999999993,
                "tempo": 120.0
            },
            {
                "start_time": 14.122727272727271,
                "end_time": 14.322727272727272,
                "pitch": 32,
                "velocity": 80,
                "duration": 0.20000000000000107,
                "tempo": 120.0
            },
            {
                "start_time": 14.325,
                "end_time": 14.524999999999999,
                "pitch": 32,
                "velocity": 80,
                "duration": 0.1999999999999993,
                "tempo": 120.0
            },
            {
                "start_time": 14.524999999999999,
                "end_time": 14.725,
                "pitch": 32,
                "velocity": 80,
                "duration": 0.20000000000000107,
                "tempo": 120.0
            },
            {
                "start_time": 14.725,
                "end_time": 14.924999999999999,
                "pitch": 32,
                "velocity": 80,
                "duration": 0.1999999999999993,
                "tempo": 120.0
            },
            {
                "start_time": 14.927272727272726,
                "end_time": 15.127272727272727,
                "pitch": 32,
                "velocity": 80,
                "duration": 0.20000000000000107,
                "tempo": 120.0
            },
            {
                "start_time": 15.127272727272727,
                "end_time": 15.327272727272726,
                "pitch": 32,
                "velocity": 80,
                "duration": 0.1999999999999993,
                "tempo": 120.0
            },
            {
                "start_time": 15.329545454545453,
                "end_time": 15.529545454545454,
                "pitch": 32,
                "velocity": 80,
                "duration": 0.20000000000000107,
                "tempo": 120.0
            },
            {
                "start_time": 15.531818181818181,
                "end_time": 15.73181818181818,
                "pitch": 32,
                "velocity": 80,
                "duration": 0.1999999999999993,
                "tempo": 120.0
            },
            {
                "start_time": 15.73181818181818,
                "end_time": 15.934090909090909,
                "pitch": 32,
                "velocity": 80,
                "duration": 0.20227272727272805,
                "tempo": 120.0
            },
            {
                "start_time": 15.934090909090909,
                "end_time": 16.136363636363637,
                "pitch": 32,
                "velocity": 80,
                "duration": 0.20227272727272805,
                "tempo": 120.0
            },
            {
                "start_time": 16.136363636363637,
                "end_time": 16.336363636363636,
                "pitch": 30,
                "velocity": 80,
                "duration": 0.1999999999999993,
                "tempo": 120.0
            },
            {
                "start_time": 16.336363636363636,
                "end_time": 16.538636363636364,
                "pitch": 30,
                "velocity": 80,
                "duration": 0.20227272727272805,
                "tempo": 120.0
            },
            {
                "start_time": 16.538636363636364,
                "end_time": 16.738636363636363,
                "pitch": 30,
                "velocity": 80,
                "duration": 0.1999999999999993,
                "tempo": 120.0
            },
            {
                "start_time": 16.738636363636363,
                "end_time": 16.938636363636363,
                "pitch": 30,
                "velocity": 80,
                "duration": 0.1999999999999993,
                "tempo": 120.0
            },
            {
                "start_time": 16.938636363636363,
                "end_time": 17.14090909090909,
                "pitch": 30,
                "velocity": 80,
                "duration": 0.20227272727272805,
                "tempo": 120.0
            },
            {
                "start_time": 17.14090909090909,
                "end_time": 17.34090909090909,
                "pitch": 30,
                "velocity": 80,
                "duration": 0.1999999999999993,
                "tempo": 120.0
            },
            {
                "start_time": 17.34318181818182,
                "end_time": 17.54090909090909,
                "pitch": 30,
                "velocity": 80,
                "duration": 0.19772727272727053,
                "tempo": 120.0
            },
            {
                "start_time": 17.543181818181818,
                "end_time": 17.743181818181817,
                "pitch": 30,
                "velocity": 80,
                "duration": 0.1999999999999993,
                "tempo": 120.0
            },
            {
                "start_time": 17.743181818181817,
                "end_time": 17.943181818181817,
                "pitch": 30,
                "velocity": 80,
                "duration": 0.1999999999999993,
                "tempo": 120.0
            },
            {
                "start_time": 17.943181818181817,
                "end_time": 18.143181818181816,
                "pitch": 30,
                "velocity": 80,
                "duration": 0.1999999999999993,
                "tempo": 120.0
            },
            {
                "start_time": 18.143181818181816,
                "end_time": 18.347727272727273,
                "pitch": 30,
                "velocity": 80,
                "duration": 0.2045454545454568,
                "tempo": 120.0
            },
            {
                "start_time": 18.349999999999998,
                "end_time": 18.554545454545455,
                "pitch": 30,
                "velocity": 80,
                "duration": 0.2045454545454568,
                "tempo": 120.0
            },
            {
                "start_time": 18.554545454545455,
                "end_time": 18.654545454545453,
                "pitch": 37,
                "velocity": 80,
                "duration": 0.09999999999999787,
                "tempo": 120.0
            },
            {
                "start_time": 18.654545454545453,
                "end_time": 18.754545454545454,
                "pitch": 39,
                "velocity": 80,
                "duration": 0.10000000000000142,
                "tempo": 120.0
            },
            {
                "start_time": 18.75681818181818,
                "end_time": 18.85681818181818,
                "pitch": 35,
                "velocity": 80,
                "duration": 0.10000000000000142,
                "tempo": 120.0
            },
            {
                "start_time": 18.85681818181818,
                "end_time": 18.956818181818182,
                "pitch": 37,
                "velocity": 80,
                "duration": 0.10000000000000142,
                "tempo": 120.0
            },
            {
                "start_time": 18.959090909090907,
                "end_time": 19.05681818181818,
                "pitch": 34,
                "velocity": 80,
                "duration": 0.09772727272727266,
                "tempo": 120.0
            },
            {
                "start_time": 19.05681818181818,
                "end_time": 19.15681818181818,
                "pitch": 35,
                "velocity": 80,
                "duration": 0.10000000000000142,
                "tempo": 120.0
            },
            {
                "start_time": 19.159090909090907,
                "end_time": 19.25681818181818,
                "pitch": 32,
                "velocity": 80,
                "duration": 0.09772727272727266,
                "tempo": 120.0
            },
            {
                "start_time": 19.259090909090908,
                "end_time": 19.35909090909091,
                "pitch": 34,
                "velocity": 80,
                "duration": 0.10000000000000142,
                "tempo": 120.0
            },
            {
                "start_time": 19.35909090909091,
                "end_time": 19.55909090909091,
                "pitch": 28,
                "velocity": 80,
                "duration": 0.1999999999999993,
                "tempo": 120.0
            },
            {
                "start_time": 19.561363636363634,
                "end_time": 19.761363636363637,
                "pitch": 28,
                "velocity": 80,
                "duration": 0.20000000000000284,
                "tempo": 120.0
            },
            {
                "start_time": 19.761363636363637,
                "end_time": 19.961363636363636,
                "pitch": 28,
                "velocity": 80,
                "duration": 0.1999999999999993,
                "tempo": 120.0
            },
            {
                "start_time": 19.961363636363636,
                "end_time": 20.161363636363635,
                "pitch": 28,
                "velocity": 80,
                "duration": 0.1999999999999993,
                "tempo": 120.0
            },
            {
                "start_time": 20.161363636363635,
                "end_time": 20.361363636363635,
                "pitch": 28,
                "velocity": 80,
                "duration": 0.1999999999999993,
                "tempo": 120.0
            },
            {
                "start_time": 20.363636363636363,
                "end_time": 20.561363636363634,
                "pitch": 28,
                "velocity": 80,
                "duration": 0.19772727272727053,
                "tempo": 120.0
            },
            {
                "start_time": 20.563636363636363,
                "end_time": 20.763636363636362,
                "pitch": 28,
                "velocity": 80,
                "duration": 0.1999999999999993,
                "tempo": 120.0
            },
            {
                "start_time": 20.763636363636362,
                "end_time": 20.96590909090909,
                "pitch": 28,
                "velocity": 80,
                "duration": 0.20227272727272805,
                "tempo": 120.0
            },
            {
                "start_time": 20.96590909090909,
                "end_time": 21.16590909090909,
                "pitch": 33,
                "velocity": 80,
                "duration": 0.1999999999999993,
                "tempo": 120.0
            },
            {
                "start_time": 21.16590909090909,
                "end_time": 21.36590909090909,
                "pitch": 33,
                "velocity": 80,
                "duration": 0.1999999999999993,
                "tempo": 120.0
            },
            {
                "start_time": 21.36590909090909,
                "end_time": 21.568181818181817,
                "pitch": 33,
                "velocity": 80,
                "duration": 0.20227272727272805,
                "tempo": 120.0
            },
            {
                "start_time": 21.568181818181817,
                "end_time": 21.768181818181816,
                "pitch": 33,
                "velocity": 80,
                "duration": 0.1999999999999993,
                "tempo": 120.0
            },
            {
                "start_time": 21.770454545454545,
                "end_time": 21.970454545454544,
                "pitch": 33,
                "velocity": 80,
                "duration": 0.1999999999999993,
                "tempo": 120.0
            },
            {
                "start_time": 21.970454545454544,
                "end_time": 22.170454545454543,
                "pitch": 33,
                "velocity": 80,
                "duration": 0.1999999999999993,
                "tempo": 120.0
            },
            {
                "start_time": 22.170454545454543,
                "end_time": 22.370454545454546,
                "pitch": 33,
                "velocity": 80,
                "duration": 0.20000000000000284,
                "tempo": 120.0
            },
            {
                "start_time": 22.370454545454546,
                "end_time": 22.570454545454545,
                "pitch": 33,
                "velocity": 80,
                "duration": 0.1999999999999993,
                "tempo": 120.0
            },
            {
                "start_time": 22.570454545454545,
                "end_time": 22.770454545454545,
                "pitch": 34,
                "velocity": 80,
                "duration": 0.1999999999999993,
                "tempo": 120.0
            },
            {
                "start_time": 22.772727272727273,
                "end_time": 22.972727272727273,
                "pitch": 34,
                "velocity": 80,
                "duration": 0.1999999999999993,
                "tempo": 120.0
            },
            {
                "start_time": 22.974999999999998,
                "end_time": 23.172727272727272,
                "pitch": 34,
                "velocity": 80,
                "duration": 0.19772727272727408,
                "tempo": 120.0
            },
            {
                "start_time": 23.174999999999997,
                "end_time": 23.37272727272727,
                "pitch": 34,
                "velocity": 80,
                "duration": 0.19772727272727408,
                "tempo": 120.0
            },
            {
                "start_time": 23.375,
                "end_time": 23.575,
                "pitch": 34,
                "velocity": 80,
                "duration": 0.1999999999999993,
                "tempo": 120.0
            },
            {
                "start_time": 23.575,
                "end_time": 23.777272727272727,
                "pitch": 34,
                "velocity": 80,
                "duration": 0.20227272727272805,
                "tempo": 120.0
            },
            {
                "start_time": 23.777272727272727,
                "end_time": 23.977272727272727,
                "pitch": 34,
                "velocity": 80,
                "duration": 0.1999999999999993,
                "tempo": 120.0
            },
            {
                "start_time": 23.977272727272727,
                "end_time": 24.177272727272726,
                "pitch": 34,
                "velocity": 80,
                "duration": 0.1999999999999993,
                "tempo": 120.0
            },
            {
                "start_time": 24.179545454545455,
                "end_time": 24.377272727272725,
                "pitch": 27,
                "velocity": 80,
                "duration": 0.19772727272727053,
                "tempo": 120.0
            },
            {
                "start_time": 24.379545454545454,
                "end_time": 24.577272727272724,
                "pitch": 27,
                "velocity": 80,
                "duration": 0.19772727272727053,
                "tempo": 120.0
            },
            {
                "start_time": 24.579545454545453,
                "end_time": 24.779545454545453,
                "pitch": 27,
                "velocity": 80,
                "duration": 0.1999999999999993,
                "tempo": 120.0
            },
            {
                "start_time": 24.78181818181818,
                "end_time": 24.98181818181818,
                "pitch": 27,
                "velocity": 80,
                "duration": 0.1999999999999993,
                "tempo": 120.0
            },
            {
                "start_time": 24.98181818181818,
                "end_time": 25.18181818181818,
                "pitch": 27,
                "velocity": 80,
                "duration": 0.1999999999999993,
                "tempo": 120.0
            },
            {
                "start_time": 25.18181818181818,
                "end_time": 25.38181818181818,
                "pitch": 27,
                "velocity": 80,
                "duration": 0.1999999999999993,
                "tempo": 120.0
            },
            {
                "start_time": 25.38181818181818,
                "end_time": 25.584090909090907,
                "pitch": 27,
                "velocity": 80,
                "duration": 0.20227272727272805,
                "tempo": 120.0
            },
            {
                "start_time": 25.584090909090907,
                "end_time": 25.786363636363635,
                "pitch": 27,
                "velocity": 80,
                "duration": 0.20227272727272805,
                "tempo": 120.0
            },
            {
                "start_time": 25.786363636363635,
                "end_time": 25.99090909090909,
                "pitch": 28,
                "velocity": 80,
                "duration": 0.20454545454545325,
                "tempo": 120.0
            },
            {
                "start_time": 25.99090909090909,
                "end_time": 26.195454545454545,
                "pitch": 28,
                "velocity": 80,
                "duration": 0.2045454545454568,
                "tempo": 120.0
            },
            {
                "start_time": 26.19772727272727,
                "end_time": 26.395454545454545,
                "pitch": 28,
                "velocity": 80,
                "duration": 0.19772727272727408,
                "tempo": 120.0
            },
            {
                "start_time": 26.39772727272727,
                "end_time": 26.597727272727273,
                "pitch": 28,
                "velocity": 80,
                "duration": 0.20000000000000284,
                "tempo": 120.0
            },
            {
                "start_time": 26.597727272727273,
                "end_time": 26.797727272727272,
                "pitch": 28,
                "velocity": 80,
                "duration": 0.1999999999999993,
                "tempo": 120.0
            },
            {
                "start_time": 26.797727272727272,
                "end_time": 26.99772727272727,
                "pitch": 28,
                "velocity": 80,
                "duration": 0.1999999999999993,
                "tempo": 120.0
            },
            {
                "start_time": 26.99772727272727,
                "end_time": 27.2,
                "pitch": 28,
                "velocity": 80,
                "duration": 0.20227272727272805,
                "tempo": 120.0
            },
            {
                "start_time": 27.2,
                "end_time": 27.4,
                "pitch": 30,
                "velocity": 80,
                "duration": 0.1999999999999993,
                "tempo": 120.0
            },
            {
                "start_time": 27.402272727272727,
                "end_time": 27.599999999999998,
                "pitch": 30,
                "velocity": 80,
                "duration": 0.19772727272727053,
                "tempo": 120.0
            },
            {
                "start_time": 27.602272727272727,
                "end_time": 27.799999999999997,
                "pitch": 30,
                "velocity": 80,
                "duration": 0.19772727272727053,
                "tempo": 120.0
            },
            {
                "start_time": 27.802272727272726,
                "end_time": 28.002272727272725,
                "pitch": 30,
                "velocity": 80,
                "duration": 0.1999999999999993,
                "tempo": 120.0
            },
            {
                "start_time": 28.004545454545454,
                "end_time": 28.204545454545453,
                "pitch": 30,
                "velocity": 80,
                "duration": 0.1999999999999993,
                "tempo": 120.0
            },
            {
                "start_time": 28.206818181818182,
                "end_time": 28.404545454545453,
                "pitch": 30,
                "velocity": 80,
                "duration": 0.19772727272727053,
                "tempo": 120.0
            },
            {
                "start_time": 28.404545454545453,
                "end_time": 28.604545454545452,
                "pitch": 30,
                "velocity": 80,
                "duration": 0.1999999999999993,
                "tempo": 120.0
            },
            {
                "start_time": 28.604545454545452,
                "end_time": 28.804545454545455,
                "pitch": 30,
                "velocity": 80,
                "duration": 0.20000000000000284,
                "tempo": 120.0
            },
            {
                "start_time": 28.80681818181818,
                "end_time": 29.004545454545454,
                "pitch": 32,
                "velocity": 80,
                "duration": 0.19772727272727408,
                "tempo": 120.0
            },
            {
                "start_time": 29.00681818181818,
                "end_time": 29.206818181818182,
                "pitch": 32,
                "velocity": 80,
                "duration": 0.20000000000000284,
                "tempo": 120.0
            },
            {
                "start_time": 29.206818181818182,
                "end_time": 29.409090909090907,
                "pitch": 32,
                "velocity": 80,
                "duration": 0.2022727272727245,
                "tempo": 120.0
            },
            {
                "start_time": 29.409090909090907,
                "end_time": 29.60909090909091,
                "pitch": 32,
                "velocity": 80,
                "duration": 0.20000000000000284,
                "tempo": 120.0
            },
            {
                "start_time": 29.60909090909091,
                "end_time": 29.80909090909091,
                "pitch": 32,
                "velocity": 80,
                "duration": 0.1999999999999993,
                "tempo": 120.0
            },
            {
                "start_time": 29.80909090909091,
                "end_time": 30.011363636363633,
                "pitch": 32,
                "velocity": 80,
                "duration": 0.2022727272727245,
                "tempo": 120.0
            },
            {
                "start_time": 30.011363636363633,
                "end_time": 30.211363636363636,
                "pitch": 32,
                "velocity": 80,
                "duration": 0.20000000000000284,
                "tempo": 120.0
            },
            {
                "start_time": 30.21363636363636,
                "end_time": 30.411363636363635,
                "pitch": 32,
                "velocity": 80,
                "duration": 0.19772727272727408,
                "tempo": 120.0
            },
            {
                "start_time": 30.41363636363636,
                "end_time": 30.613636363636363,
                "pitch": 32,
                "velocity": 80,
                "duration": 0.20000000000000284,
                "tempo": 120.0
            },
            {
                "start_time": 30.613636363636363,
                "end_time": 30.813636363636363,
                "pitch": 32,
                "velocity": 80,
                "duration": 0.1999999999999993,
                "tempo": 120.0
            },
            {
                "start_time": 30.813636363636363,
                "end_time": 31.013636363636362,
                "pitch": 32,
                "velocity": 80,
                "duration": 0.1999999999999993,
                "tempo": 120.0
            },
            {
                "start_time": 31.013636363636362,
                "end_time": 31.21590909090909,
                "pitch": 32,
                "velocity": 80,
                "duration": 0.20227272727272805,
                "tempo": 120.0
            },
            {
                "start_time": 31.21590909090909,
                "end_time": 31.41590909090909,
                "pitch": 32,
                "velocity": 80,
                "duration": 0.1999999999999993,
                "tempo": 120.0
            },
            {
                "start_time": 31.418181818181818,
                "end_time": 31.51590909090909,
                "pitch": 32,
                "velocity": 80,
                "duration": 0.09772727272727266,
                "tempo": 120.0
            },
            {
                "start_time": 31.518181818181816,
                "end_time": 31.61590909090909,
                "pitch": 44,
                "velocity": 80,
                "duration": 0.09772727272727266,
                "tempo": 120.0
            },
            {
                "start_time": 31.618181818181817,
                "end_time": 31.71590909090909,
                "pitch": 32,
                "velocity": 80,
                "duration": 0.09772727272727266,
                "tempo": 120.0
            },
            {
                "start_time": 31.718181818181815,
                "end_time": 31.818181818181817,
                "pitch": 44,
                "velocity": 80,
                "duration": 0.10000000000000142,
                "tempo": 120.0
            },
            {
                "start_time": 31.818181818181817,
                "end_time": 31.918181818181818,
                "pitch": 30,
                "velocity": 80,
                "duration": 0.10000000000000142,
                "tempo": 120.0
            },
            {
                "start_time": 31.918181818181818,
                "end_time": 32.018181818181816,
                "pitch": 42,
                "velocity": 80,
                "duration": 0.09999999999999787,
                "tempo": 120.0
            },
            {
                "start_time": 32.02045454545454,
                "end_time": 32.12045454545454,
                "pitch": 30,
                "velocity": 80,
                "duration": 0.10000000000000142,
                "tempo": 120.0
            },
            {
                "start_time": 32.12045454545454,
                "end_time": 32.22272727272727,
                "pitch": 42,
                "velocity": 80,
                "duration": 0.10227272727272663,
                "tempo": 120.0
            },
            {
                "start_time": 32.22272727272727,
                "end_time": 32.425,
                "pitch": 28,
                "velocity": 80,
                "duration": 0.20227272727272805,
                "tempo": 120.0
            },
            {
                "start_time": 32.42727272727272,
                "end_time": 32.63181818181818,
                "pitch": 28,
                "velocity": 80,
                "duration": 0.20454545454546036,
                "tempo": 120.0
            },
            {
                "start_time": 32.63181818181818,
                "end_time": 32.82727272727273,
                "pitch": 28,
                "velocity": 80,
                "duration": 0.19545454545454533,
                "tempo": 120.0
            },
            {
                "start_time": 32.82954545454545,
                "end_time": 33.025,
                "pitch": 28,
                "velocity": 80,
                "duration": 0.19545454545454533,
                "tempo": 120.0
            },
            {
                "start_time": 33.025,
                "end_time": 33.225,
                "pitch": 28,
                "velocity": 80,
                "duration": 0.20000000000000284,
                "tempo": 120.0
            },
            {
                "start_time": 33.225,
                "end_time": 33.425,
                "pitch": 28,
                "velocity": 80,
                "duration": 0.19999999999999574,
                "tempo": 120.0
            },
            {
                "start_time": 33.425,
                "end_time": 33.627272727272725,
                "pitch": 28,
                "velocity": 80,
                "duration": 0.20227272727272805,
                "tempo": 120.0
            },
            {
                "start_time": 33.627272727272725,
                "end_time": 33.82727272727273,
                "pitch": 30,
                "velocity": 80,
                "duration": 0.20000000000000284,
                "tempo": 120.0
            },
            {
                "start_time": 33.82954545454545,
                "end_time": 34.027272727272724,
                "pitch": 30,
                "velocity": 80,
                "duration": 0.19772727272727053,
                "tempo": 120.0
            },
            {
                "start_time": 34.029545454545456,
                "end_time": 34.22727272727273,
                "pitch": 30,
                "velocity": 80,
                "duration": 0.19772727272727053,
                "tempo": 120.0
            },
            {
                "start_time": 34.22954545454545,
                "end_time": 34.434090909090905,
                "pitch": 30,
                "velocity": 80,
                "duration": 0.20454545454545325,
                "tempo": 120.0
            },
            {
                "start_time": 34.434090909090905,
                "end_time": 34.64090909090909,
                "pitch": 30,
                "velocity": 80,
                "duration": 0.20681818181818556,
                "tempo": 120.0
            },
            {
                "start_time": 34.64090909090909,
                "end_time": 34.840909090909086,
                "pitch": 30,
                "velocity": 80,
                "duration": 0.19999999999999574,
                "tempo": 120.0
            },
            {
                "start_time": 34.840909090909086,
                "end_time": 35.04090909090909,
                "pitch": 30,
                "velocity": 80,
                "duration": 0.20000000000000284,
                "tempo": 120.0
            },
            {
                "start_time": 35.04090909090909,
                "end_time": 35.24318181818182,
                "pitch": 30,
                "velocity": 80,
                "duration": 0.20227272727272805,
                "tempo": 120.0
            },
            {
                "start_time": 35.24318181818182,
                "end_time": 35.44318181818181,
                "pitch": 32,
                "velocity": 80,
                "duration": 0.19999999999999574,
                "tempo": 120.0
            },
            {
                "start_time": 35.445454545454545,
                "end_time": 35.643181818181816,
                "pitch": 32,
                "velocity": 80,
                "duration": 0.19772727272727053,
                "tempo": 120.0
            },
            {
                "start_time": 35.64545454545454,
                "end_time": 35.84318181818182,
                "pitch": 32,
                "velocity": 80,
                "duration": 0.19772727272727764,
                "tempo": 120.0
            },
            {
                "start_time": 35.845454545454544,
                "end_time": 36.043181818181814,
                "pitch": 32,
                "velocity": 80,
                "duration": 0.19772727272727053,
                "tempo": 120.0
            },
            {
                "start_time": 36.04545454545455,
                "end_time": 36.24545454545454,
                "pitch": 32,
                "velocity": 80,
                "duration": 0.19999999999999574,
                "tempo": 120.0
            },
            {
                "start_time": 36.24545454545454,
                "end_time": 36.445454545454545,
                "pitch": 32,
                "velocity": 80,
                "duration": 0.20000000000000284,
                "tempo": 120.0
            },
            {
                "start_time": 36.445454545454545,
                "end_time": 36.64545454545454,
                "pitch": 32,
                "velocity": 80,
                "duration": 0.19999999999999574,
                "tempo": 120.0
            },
            {
                "start_time": 36.64545454545454,
                "end_time": 36.845454545454544,
                "pitch": 32,
                "velocity": 80,
                "duration": 0.20000000000000284,
                "tempo": 120.0
            },
            {
                "start_time": 36.845454545454544,
                "end_time": 37.04545454545455,
                "pitch": 32,
                "velocity": 80,
                "duration": 0.20000000000000284,
                "tempo": 120.0
            },
            {
                "start_time": 37.04772727272727,
                "end_time": 37.24772727272727,
                "pitch": 32,
                "velocity": 80,
                "duration": 0.19999999999999574,
                "tempo": 120.0
            },
            {
                "start_time": 37.24772727272727,
                "end_time": 37.44772727272727,
                "pitch": 32,
                "velocity": 80,
                "duration": 0.20000000000000284,
                "tempo": 120.0
            },
            {
                "start_time": 37.449999999999996,
                "end_time": 37.65,
                "pitch": 32,
                "velocity": 80,
                "duration": 0.20000000000000284,
                "tempo": 120.0
            },
            {
                "start_time": 37.65,
                "end_time": 37.85,
                "pitch": 32,
                "velocity": 80,
                "duration": 0.20000000000000284,
                "tempo": 120.0
            },
            {
                "start_time": 37.85,
                "end_time": 37.949999999999996,
                "pitch": 32,
                "velocity": 80,
                "duration": 0.09999999999999432,
                "tempo": 120.0
            },
            {
                "start_time": 37.949999999999996,
                "end_time": 38.05,
                "pitch": 44,
                "velocity": 80,
                "duration": 0.10000000000000142,
                "tempo": 120.0
            },
            {
                "start_time": 38.05,
                "end_time": 38.15,
                "pitch": 32,
                "velocity": 80,
                "duration": 0.10000000000000142,
                "tempo": 120.0
            },
            {
                "start_time": 38.15,
                "end_time": 38.25,
                "pitch": 44,
                "velocity": 80,
                "duration": 0.10000000000000142,
                "tempo": 120.0
            },
            {
                "start_time": 38.252272727272725,
                "end_time": 38.35,
                "pitch": 30,
                "velocity": 80,
                "duration": 0.09772727272727622,
                "tempo": 120.0
            },
            {
                "start_time": 38.35,
                "end_time": 38.449999999999996,
                "pitch": 42,
                "velocity": 80,
                "duration": 0.09999999999999432,
                "tempo": 120.0
            },
            {
                "start_time": 38.449999999999996,
                "end_time": 38.55,
                "pitch": 30,
                "velocity": 80,
                "duration": 0.10000000000000142,
                "tempo": 120.0
            },
            {
                "start_time": 38.55,
                "end_time": 38.652272727272724,
                "pitch": 42,
                "velocity": 80,
                "duration": 0.10227272727272663,
                "tempo": 120.0
            },
            {
                "start_time": 38.652272727272724,
                "end_time": 38.85,
                "pitch": 28,
                "velocity": 80,
                "duration": 0.19772727272727764,
                "tempo": 120.0
            },
            {
                "start_time": 38.85227272727273,
                "end_time": 39.05,
                "pitch": 28,
                "velocity": 80,
                "duration": 0.19772727272727053,
                "tempo": 120.0
            },
            {
                "start_time": 39.05227272727272,
                "end_time": 39.252272727272725,
                "pitch": 28,
                "velocity": 80,
                "duration": 0.20000000000000284,
                "tempo": 120.0
            },
            {
                "start_time": 39.252272727272725,
                "end_time": 39.45454545454545,
                "pitch": 28,
                "velocity": 80,
                "duration": 0.20227272727272805,
                "tempo": 120.0
            },
            {
                "start_time": 39.45454545454545,
                "end_time": 39.654545454545456,
                "pitch": 28,
                "velocity": 80,
                "duration": 0.20000000000000284,
                "tempo": 120.0
            },
            {
                "start_time": 39.654545454545456,
                "end_time": 39.85454545454545,
                "pitch": 28,
                "velocity": 80,
                "duration": 0.19999999999999574,
                "tempo": 120.0
            },
            {
                "start_time": 39.85681818181818,
                "end_time": 40.054545454545455,
                "pitch": 28,
                "velocity": 80,
                "duration": 0.19772727272727764,
                "tempo": 120.0
            },
            {
                "start_time": 40.05681818181818,
                "end_time": 40.25454545454545,
                "pitch": 30,
                "velocity": 80,
                "duration": 0.19772727272727053,
                "tempo": 120.0
            },
            {
                "start_time": 40.25681818181818,
                "end_time": 40.45454545454545,
                "pitch": 30,
                "velocity": 80,
                "duration": 0.19772727272727053,
                "tempo": 120.0
            },
            {
                "start_time": 40.45681818181818,
                "end_time": 40.65681818181818,
                "pitch": 30,
                "velocity": 80,
                "duration": 0.20000000000000284,
                "tempo": 120.0
            },
            {
                "start_time": 40.65681818181818,
                "end_time": 40.861363636363635,
                "pitch": 30,
                "velocity": 80,
                "duration": 0.20454545454545325,
                "tempo": 120.0
            },
            {
                "start_time": 40.861363636363635,
                "end_time": 41.06818181818181,
                "pitch": 30,
                "velocity": 80,
                "duration": 0.20681818181817846,
                "tempo": 120.0
            },
            {
                "start_time": 41.06818181818181,
                "end_time": 41.268181818181816,
                "pitch": 30,
                "velocity": 80,
                "duration": 0.20000000000000284,
                "tempo": 120.0
            },
            {
                "start_time": 41.268181818181816,
                "end_time": 41.46818181818182,
                "pitch": 30,
                "velocity": 80,
                "duration": 0.20000000000000284,
                "tempo": 120.0
            },
            {
                "start_time": 41.46818181818182,
                "end_time": 41.668181818181814,
                "pitch": 30,
                "velocity": 80,
                "duration": 0.19999999999999574,
                "tempo": 120.0
            },
            {
                "start_time": 41.67045454545455,
                "end_time": 41.86818181818182,
                "pitch": 32,
                "velocity": 80,
                "duration": 0.19772727272727053,
                "tempo": 120.0
            },
            {
                "start_time": 41.86818181818182,
                "end_time": 42.06818181818181,
                "pitch": 32,
                "velocity": 80,
                "duration": 0.19999999999999574,
                "tempo": 120.0
            },
            {
                "start_time": 42.06818181818181,
                "end_time": 42.268181818181816,
                "pitch": 32,
                "velocity": 80,
                "duration": 0.20000000000000284,
                "tempo": 120.0
            },
            {
                "start_time": 42.27045454545454,
                "end_time": 42.470454545454544,
                "pitch": 32,
                "velocity": 80,
                "duration": 0.20000000000000284,
                "tempo": 120.0
            },
            {
                "start_time": 42.470454545454544,
                "end_time": 42.67272727272727,
                "pitch": 32,
                "velocity": 80,
                "duration": 0.20227272727272805,
                "tempo": 120.0
            },
            {
                "start_time": 42.67272727272727,
                "end_time": 42.87272727272727,
                "pitch": 32,
                "velocity": 80,
                "duration": 0.19999999999999574,
                "tempo": 120.0
            },
            {
                "start_time": 42.87272727272727,
                "end_time": 43.07272727272727,
                "pitch": 32,
                "velocity": 80,
                "duration": 0.20000000000000284,
                "tempo": 120.0
            },
            {
                "start_time": 43.07272727272727,
                "end_time": 43.27272727272727,
                "pitch": 32,
                "velocity": 80,
                "duration": 0.20000000000000284,
                "tempo": 120.0
            },
            {
                "start_time": 43.27272727272727,
                "end_time": 43.47272727272727,
                "pitch": 32,
                "velocity": 80,
                "duration": 0.19999999999999574,
                "tempo": 120.0
            },
            {
                "start_time": 43.475,
                "end_time": 43.67272727272727,
                "pitch": 32,
                "velocity": 80,
                "duration": 0.19772727272727053,
                "tempo": 120.0
            },
            {
                "start_time": 43.675,
                "end_time": 43.87272727272727,
                "pitch": 32,
                "velocity": 80,
                "duration": 0.19772727272727053,
                "tempo": 120.0
            },
            {
                "start_time": 43.875,
                "end_time": 44.07272727272727,
                "pitch": 32,
                "velocity": 80,
                "duration": 0.19772727272727053,
                "tempo": 120.0
            },
            {
                "start_time": 44.074999999999996,
                "end_time": 44.275,
                "pitch": 32,
                "velocity": 80,
                "duration": 0.20000000000000284,
                "tempo": 120.0
            },
            {
                "start_time": 44.275,
                "end_time": 44.375,
                "pitch": 32,
                "velocity": 80,
                "duration": 0.10000000000000142,
                "tempo": 120.0
            },
            {
                "start_time": 44.375,
                "end_time": 44.474999999999994,
                "pitch": 44,
                "velocity": 80,
                "duration": 0.09999999999999432,
                "tempo": 120.0
            },
            {
                "start_time": 44.47727272727273,
                "end_time": 44.57727272727273,
                "pitch": 32,
                "velocity": 80,
                "duration": 0.10000000000000142,
                "tempo": 120.0
            },
            {
                "start_time": 44.57727272727273,
                "end_time": 44.67727272727272,
                "pitch": 44,
                "velocity": 80,
                "duration": 0.09999999999999432,
                "tempo": 120.0
            },
            {
                "start_time": 44.679545454545455,
                "end_time": 44.777272727272724,
                "pitch": 30,
                "velocity": 80,
                "duration": 0.09772727272726911,
                "tempo": 120.0
            },
            {
                "start_time": 44.777272727272724,
                "end_time": 44.877272727272725,
                "pitch": 42,
                "velocity": 80,
                "duration": 0.10000000000000142,
                "tempo": 120.0
            },
            {
                "start_time": 44.877272727272725,
                "end_time": 44.97727272727273,
                "pitch": 30,
                "velocity": 80,
                "duration": 0.10000000000000142,
                "tempo": 120.0
            },
            {
                "start_time": 44.97727272727273,
                "end_time": 45.07954545454545,
                "pitch": 42,
                "velocity": 80,
                "duration": 0.10227272727272663,
                "tempo": 120.0
            },
            {
                "start_time": 45.07954545454545,
                "end_time": 45.277272727272724,
                "pitch": 28,
                "velocity": 80,
                "duration": 0.19772727272727053,
                "tempo": 120.0
            },
            {
                "start_time": 45.27954545454545,
                "end_time": 45.47727272727273,
                "pitch": 28,
                "velocity": 80,
                "duration": 0.19772727272727764,
                "tempo": 120.0
            },
            {
                "start_time": 45.47954545454545,
                "end_time": 45.67727272727272,
                "pitch": 28,
                "velocity": 80,
                "duration": 0.19772727272727053,
                "tempo": 120.0
            },
            {
                "start_time": 45.679545454545455,
                "end_time": 45.87954545454545,
                "pitch": 28,
                "velocity": 80,
                "duration": 0.19999999999999574,
                "tempo": 120.0
            },
            {
                "start_time": 45.87954545454545,
                "end_time": 46.07954545454545,
                "pitch": 28,
                "velocity": 80,
                "duration": 0.20000000000000284,
                "tempo": 120.0
            },
            {
                "start_time": 46.07954545454545,
                "end_time": 46.27954545454545,
                "pitch": 28,
                "velocity": 80,
                "duration": 0.19999999999999574,
                "tempo": 120.0
            },
            {
                "start_time": 46.27954545454545,
                "end_time": 46.48181818181818,
                "pitch": 28,
                "velocity": 80,
                "duration": 0.20227272727272805,
                "tempo": 120.0
            },
            {
                "start_time": 46.48181818181818,
                "end_time": 46.68181818181818,
                "pitch": 30,
                "velocity": 80,
                "duration": 0.20000000000000284,
                "tempo": 120.0
            },
            {
                "start_time": 46.684090909090905,
                "end_time": 46.88181818181818,
                "pitch": 30,
                "velocity": 80,
                "duration": 0.19772727272727764,
                "tempo": 120.0
            },
            {
                "start_time": 46.88409090909091,
                "end_time": 47.084090909090904,
                "pitch": 30,
                "velocity": 80,
                "duration": 0.19999999999999574,
                "tempo": 120.0
            },
            {
                "start_time": 47.084090909090904,
                "end_time": 47.28409090909091,
                "pitch": 30,
                "velocity": 80,
                "duration": 0.20000000000000284,
                "tempo": 120.0
            },
            {
                "start_time": 47.28409090909091,
                "end_time": 47.48409090909091,
                "pitch": 30,
                "velocity": 80,
                "duration": 0.20000000000000284,
                "tempo": 120.0
            },
            {
                "start_time": 47.48409090909091,
                "end_time": 47.68863636363636,
                "pitch": 30,
                "velocity": 80,
                "duration": 0.20454545454545325,
                "tempo": 120.0
            },
            {
                "start_time": 47.68863636363636,
                "end_time": 47.89545454545454,
                "pitch": 30,
                "velocity": 80,
                "duration": 0.20681818181817846,
                "tempo": 120.0
            },
            {
                "start_time": 47.89545454545454,
                "end_time": 48.090909090909086,
                "pitch": 30,
                "velocity": 80,
                "duration": 0.19545454545454533,
                "tempo": 120.0
            },
            {
                "start_time": 48.09318181818182,
                "end_time": 48.288636363636364,
                "pitch": 27,
                "velocity": 80,
                "duration": 0.19545454545454533,
                "tempo": 120.0
            },
            {
                "start_time": 48.288636363636364,
                "end_time": 48.49318181818182,
                "pitch": 27,
                "velocity": 80,
                "duration": 0.20454545454545325,
                "tempo": 120.0
            },
            {
                "start_time": 48.49318181818182,
                "end_time": 48.69772727272727,
                "pitch": 27,
                "velocity": 80,
                "duration": 0.20454545454545325,
                "tempo": 120.0
            },
            {
                "start_time": 48.699999999999996,
                "end_time": 48.89545454545454,
                "pitch": 27,
                "velocity": 80,
                "duration": 0.19545454545454533,
                "tempo": 120.0
            },
            {
                "start_time": 48.89545454545454,
                "end_time": 49.090909090909086,
                "pitch": 27,
                "velocity": 80,
                "duration": 0.19545454545454533,
                "tempo": 120.0
            },
            {
                "start_time": 49.090909090909086,
                "end_time": 49.29090909090909,
                "pitch": 27,
                "velocity": 80,
                "duration": 0.20000000000000284,
                "tempo": 120.0
            },
            {
                "start_time": 49.29090909090909,
                "end_time": 49.490909090909085,
                "pitch": 27,
                "velocity": 80,
                "duration": 0.19999999999999574,
                "tempo": 120.0
            },
            {
                "start_time": 49.49318181818182,
                "end_time": 49.69772727272727,
                "pitch": 27,
                "velocity": 80,
                "duration": 0.20454545454545325,
                "tempo": 120.0
            },
            {
                "start_time": 49.69772727272727,
                "end_time": 49.90454545454545,
                "pitch": 27,
                "velocity": 80,
                "duration": 0.20681818181817846,
                "tempo": 120.0
            },
            {
                "start_time": 49.90454545454545,
                "end_time": 50.10454545454545,
                "pitch": 27,
                "velocity": 80,
                "duration": 0.20000000000000284,
                "tempo": 120.0
            },
            {
                "start_time": 50.10454545454545,
                "end_time": 50.30681818181818,
                "pitch": 27,
                "velocity": 80,
                "duration": 0.20227272727272805,
                "tempo": 120.0
            },
            {
                "start_time": 50.30681818181818,
                "end_time": 50.50681818181818,
                "pitch": 27,
                "velocity": 80,
                "duration": 0.20000000000000284,
                "tempo": 120.0
            },
            {
                "start_time": 50.50681818181818,
                "end_time": 50.70681818181818,
                "pitch": 27,
                "velocity": 80,
                "duration": 0.19999999999999574,
                "tempo": 120.0
            },
            {
                "start_time": 50.70681818181818,
                "end_time": 50.80681818181818,
                "pitch": 46,
                "velocity": 80,
                "duration": 0.10000000000000142,
                "tempo": 120.0
            },
            {
                "start_time": 50.80681818181818,
                "end_time": 50.90681818181818,
                "pitch": 40,
                "velocity": 80,
                "duration": 0.10000000000000142,
                "tempo": 120.0
            },
            {
                "start_time": 50.90681818181818,
                "end_time": 51.00681818181818,
                "pitch": 37,
                "velocity": 80,
                "duration": 0.10000000000000142,
                "tempo": 120.0
            },
            {
                "start_time": 51.00681818181818,
                "end_time": 51.10681818181818,
                "pitch": 39,
                "velocity": 80,
                "duration": 0.09999999999999432,
                "tempo": 120.0
            },
            {
                "start_time": 51.10909090909091,
                "end_time": 51.20681818181818,
                "pitch": 35,
                "velocity": 80,
                "duration": 0.09772727272726911,
                "tempo": 120.0
            },
            {
                "start_time": 51.209090909090904,
                "end_time": 51.30681818181818,
                "pitch": 37,
                "velocity": 80,
                "duration": 0.09772727272727622,
                "tempo": 120.0
            },
            {
                "start_time": 51.309090909090905,
                "end_time": 51.40681818181818,
                "pitch": 34,
                "velocity": 80,
                "duration": 0.09772727272727622,
                "tempo": 120.0
            },
            {
                "start_time": 51.40909090909091,
                "end_time": 51.50681818181818,
                "pitch": 35,
                "velocity": 80,
                "duration": 0.09772727272727622,
                "tempo": 120.0
            }
        ],
        "Trumpet": [
            {
                "start_time": 0.03409090909090909,
                "end_time": 0.2318181818181818,
                "pitch": 59,
                "velocity": 101,
                "duration": 0.19772727272727272,
                "tempo": 120.0
            },
            {
                "start_time": 0.2318181818181818,
                "end_time": 0.4318181818181818,
                "pitch": 59,
                "velocity": 101,
                "duration": 0.2,
                "tempo": 120.0
            },
            {
                "start_time": 0.4318181818181818,
                "end_time": 0.6318181818181818,
                "pitch": 58,
                "velocity": 101,
                "duration": 0.2,
                "tempo": 120.0
            },
            {
                "start_time": 0.634090909090909,
                "end_time": 1.0318181818181817,
                "pitch": 59,
                "velocity": 101,
                "duration": 0.3977272727272727,
                "tempo": 120.0
            },
            {
                "start_time": 1.034090909090909,
                "end_time": 1.434090909090909,
                "pitch": 61,
                "velocity": 101,
                "duration": 0.40000000000000013,
                "tempo": 120.0
            },
            {
                "start_time": 1.434090909090909,
                "end_time": 1.634090909090909,
                "pitch": 58,
                "velocity": 101,
                "duration": 0.19999999999999996,
                "tempo": 120.0
            },
            {
                "start_time": 1.634090909090909,
                "end_time": 2.034090909090909,
                "pitch": 59,
                "velocity": 101,
                "duration": 0.40000000000000013,
                "tempo": 120.0
            },
            {
                "start_time": 2.034090909090909,
                "end_time": 2.2386363636363633,
                "pitch": 58,
                "velocity": 101,
                "duration": 0.20454545454545414,
                "tempo": 120.0
            },
            {
                "start_time": 2.2409090909090907,
                "end_time": 2.6409090909090907,
                "pitch": 56,
                "velocity": 101,
                "duration": 0.3999999999999999,
                "tempo": 120.0
            },
            {
                "start_time": 2.643181818181818,
                "end_time": 3.25,
                "pitch": 54,
                "velocity": 101,
                "duration": 0.6068181818181819,
                "tempo": 120.0
            },
            {
                "start_time": 3.25,
                "end_time": 3.652272727272727,
                "pitch": 56,
                "velocity": 101,
                "duration": 0.4022727272727269,
                "tempo": 120.0
            },
            {
                "start_time": 3.652272727272727,
                "end_time": 3.852272727272727,
                "pitch": 58,
                "velocity": 101,
                "duration": 0.20000000000000018,
                "tempo": 120.0
            },
            {
                "start_time": 3.8545454545454545,
                "end_time": 4.252272727272727,
                "pitch": 56,
                "velocity": 101,
                "duration": 0.3977272727272725,
                "tempo": 120.0
            },
            {
                "start_time": 4.254545454545454,
                "end_time": 6.463636363636363,
                "pitch": 54,
                "velocity": 101,
                "duration": 2.209090909090909,
                "tempo": 120.0
            },
            {
                "start_time": 6.465909090909091,
                "end_time": 6.665909090909091,
                "pitch": 56,
                "velocity": 101,
                "duration": 0.20000000000000018,
                "tempo": 120.0
            },
            {
                "start_time": 6.665909090909091,
                "end_time": 6.868181818181818,
                "pitch": 56,
                "velocity": 101,
                "duration": 0.20227272727272716,
                "tempo": 120.0
            },
            {
                "start_time": 6.868181818181818,
                "end_time": 7.0681818181818175,
                "pitch": 58,
                "velocity": 101,
                "duration": 0.1999999999999993,
                "tempo": 120.0
            },
            {
                "start_time": 7.0681818181818175,
                "end_time": 7.470454545454545,
                "pitch": 59,
                "velocity": 101,
                "duration": 0.40227272727272734,
                "tempo": 120.0
            },
            {
                "start_time": 7.470454545454545,
                "end_time": 7.870454545454545,
                "pitch": 58,
                "velocity": 101,
                "duration": 0.40000000000000036,
                "tempo": 120.0
            },
            {
                "start_time": 7.872727272727272,
                "end_time": 8.072727272727272,
                "pitch": 56,
                "velocity": 101,
                "duration": 0.20000000000000018,
                "tempo": 120.0
            },
            {
                "start_time": 8.072727272727272,
                "end_time": 8.472727272727273,
                "pitch": 56,
                "velocity": 101,
                "duration": 0.40000000000000036,
                "tempo": 120.0
            },
            {
                "start_time": 8.472727272727273,
                "end_time": 8.672727272727272,
                "pitch": 63,
                "velocity": 101,
                "duration": 0.1999999999999993,
                "tempo": 120.0
            },
            {
                "start_time": 8.674999999999999,
                "end_time": 9.077272727272726,
                "pitch": 61,
                "velocity": 101,
                "duration": 0.40227272727272734,
                "tempo": 120.0
            },
            {
                "start_time": 9.077272727272726,
                "end_time": 9.681818181818182,
                "pitch": 59,
                "velocity": 101,
                "duration": 0.6045454545454554,
                "tempo": 120.0
            },
            {
                "start_time": 9.681818181818182,
                "end_time": 11.299999999999999,
                "pitch": 58,
                "velocity": 101,
                "duration": 1.6181818181818173,
                "tempo": 120.0
            },
            {
                "start_time": 11.302272727272726,
                "end_time": 11.502272727272727,
                "pitch": 63,
                "velocity": 101,
                "duration": 0.20000000000000107,
                "tempo": 120.0
            },
            {
                "start_time": 11.502272727272727,
                "end_time": 11.702272727272726,
                "pitch": 61,
                "velocity": 101,
                "duration": 0.1999999999999993,
                "tempo": 120.0
            },
            {
                "start_time": 11.704545454545453,
                "end_time": 11.904545454545454,
                "pitch": 66,
                "velocity": 101,
                "duration": 0.20000000000000107,
                "tempo": 120.0
            },
            {
                "start_time": 11.906818181818181,
                "end_time": 12.309090909090909,
                "pitch": 63,
                "velocity": 101,
                "duration": 0.40227272727272734,
                "tempo": 120.0
            },
            {
                "start_time": 12.309090909090909,
                "end_time": 12.911363636363635,
                "pitch": 61,
                "velocity": 101,
                "duration": 0.6022727272727266,
                "tempo": 120.0
            },
            {
                "start_time": 12.911363636363635,
                "end_time": 13.111363636363636,
                "pitch": 59,
                "velocity": 101,
                "duration": 0.20000000000000107,
                "tempo": 120.0
            },
            {
                "start_time": 13.113636363636363,
                "end_time": 13.313636363636363,
                "pitch": 59,
                "velocity": 101,
                "duration": 0.1999999999999993,
                "tempo": 120.0
            },
            {
                "start_time": 13.313636363636363,
                "end_time": 13.51590909090909,
                "pitch": 58,
                "velocity": 101,
                "duration": 0.20227272727272805,
                "tempo": 120.0
            },
            {
                "start_time": 13.51590909090909,
                "end_time": 13.918181818181818,
                "pitch": 59,
                "velocity": 101,
                "duration": 0.40227272727272734,
                "tempo": 120.0
            },
            {
                "start_time": 13.918181818181818,
                "end_time": 14.320454545454545,
                "pitch": 61,
                "velocity": 101,
                "duration": 0.40227272727272734,
                "tempo": 120.0
            },
            {
                "start_time": 14.322727272727272,
                "end_time": 14.522727272727272,
                "pitch": 58,
                "velocity": 101,
                "duration": 0.1999999999999993,
                "tempo": 120.0
            },
            {
                "start_time": 14.524999999999999,
                "end_time": 14.922727272727272,
                "pitch": 59,
                "velocity": 101,
                "duration": 0.3977272727272734,
                "tempo": 120.0
            },
            {
                "start_time": 14.924999999999999,
                "end_time": 15.125,
                "pitch": 58,
                "velocity": 101,
                "duration": 0.20000000000000107,
                "tempo": 120.0
            },
            {
                "start_time": 15.125,
                "end_time": 15.527272727272727,
                "pitch": 56,
                "velocity": 101,
                "duration": 0.40227272727272734,
                "tempo": 120.0
            },
            {
                "start_time": 15.529545454545454,
                "end_time": 16.134090909090908,
                "pitch": 54,
                "velocity": 101,
                "duration": 0.6045454545454536,
                "tempo": 120.0
            },
            {
                "start_time": 16.134090909090908,
                "end_time": 16.536363636363635,
                "pitch": 56,
                "velocity": 101,
                "duration": 0.40227272727272734,
                "tempo": 120.0
            },
            {
                "start_time": 16.536363636363635,
                "end_time": 16.736363636363635,
                "pitch": 58,
                "velocity": 101,
                "duration": 0.1999999999999993,
                "tempo": 120.0
            },
            {
                "start_time": 16.736363636363635,
                "end_time": 17.138636363636362,
                "pitch": 56,
                "velocity": 101,
                "duration": 0.40227272727272734,
                "tempo": 120.0
            },
            {
                "start_time": 17.138636363636362,
                "end_time": 19.35681818181818,
                "pitch": 54,
                "velocity": 101,
                "duration": 2.2181818181818187,
                "tempo": 120.0
            },
            {
                "start_time": 19.35681818181818,
                "end_time": 19.55681818181818,
                "pitch": 56,
                "velocity": 101,
                "duration": 0.1999999999999993,
                "tempo": 120.0
            },
            {
                "start_time": 19.55909090909091,
                "end_time": 19.759090909090908,
                "pitch": 56,
                "velocity": 101,
                "duration": 0.1999999999999993,
                "tempo": 120.0
            },
            {
                "start_time": 19.761363636363637,
                "end_time": 19.959090909090907,
                "pitch": 58,
                "velocity": 101,
                "duration": 0.19772727272727053,
                "tempo": 120.0
            },
            {
                "start_time": 19.961363636363636,
                "end_time": 20.361363636363635,
                "pitch": 59,
                "velocity": 101,
                "duration": 0.3999999999999986,
                "tempo": 120.0
            },
            {
                "start_time": 20.361363636363635,
                "end_time": 20.96363636363636,
                "pitch": 61,
                "velocity": 101,
                "duration": 0.6022727272727266,
                "tempo": 120.0
            },
            {
                "start_time": 20.96590909090909,
                "end_time": 21.363636363636363,
                "pitch": 63,
                "velocity": 101,
                "duration": 0.3977272727272734,
                "tempo": 120.0
            },
            {
                "start_time": 21.36590909090909,
                "end_time": 21.56590909090909,
                "pitch": 61,
                "velocity": 101,
                "duration": 0.20000000000000284,
                "tempo": 120.0
            },
            {
                "start_time": 21.56590909090909,
                "end_time": 21.96818181818182,
                "pitch": 66,
                "velocity": 101,
                "duration": 0.40227272727272734,
                "tempo": 120.0
            },
            {
                "start_time": 21.96818181818182,
                "end_time": 22.568181818181817,
                "pitch": 64,
                "velocity": 101,
                "duration": 0.5999999999999979,
                "tempo": 120.0
            },
            {
                "start_time": 22.570454545454545,
                "end_time": 24.177272727272726,
                "pitch": 63,
                "velocity": 101,
                "duration": 1.6068181818181806,
                "tempo": 120.0
            },
            {
                "start_time": 24.177272727272726,
                "end_time": 24.377272727272725,
                "pitch": 63,
                "velocity": 101,
                "duration": 0.1999999999999993,
                "tempo": 120.0
            },
            {
                "start_time": 24.377272727272725,
                "end_time": 24.577272727272724,
                "pitch": 61,
                "velocity": 101,
                "duration": 0.1999999999999993,
                "tempo": 120.0
            },
            {
                "start_time": 24.577272727272724,
                "end_time": 24.777272727272727,
                "pitch": 66,
                "velocity": 101,
                "duration": 0.20000000000000284,
                "tempo": 120.0
            },
            {
                "start_time": 24.779545454545453,
                "end_time": 25.784090909090907,
                "pitch": 63,
                "velocity": 101,
                "duration": 1.004545454545454,
                "tempo": 120.0
            },
            {
                "start_time": 25.784090909090907,
                "end_time": 26.995454545454542,
                "pitch": 59,
                "velocity": 101,
                "duration": 1.211363636363636,
                "tempo": 120.0
            },
            {
                "start_time": 26.99772727272727,
                "end_time": 27.19772727272727,
                "pitch": 56,
                "velocity": 101,
                "duration": 0.1999999999999993,
                "tempo": 120.0
            },
            {
                "start_time": 27.19772727272727,
                "end_time": 28.202272727272724,
                "pitch": 61,
                "velocity": 101,
                "duration": 1.004545454545454,
                "tempo": 120.0
            },
            {
                "start_time": 28.204545454545453,
                "end_time": 28.804545454545455,
                "pitch": 58,
                "velocity": 101,
                "duration": 0.6000000000000014,
                "tempo": 120.0
            },
            {
                "start_time": 28.804545454545455,
                "end_time": 31.41590909090909,
                "pitch": 63,
                "velocity": 101,
                "duration": 2.6113636363636346,
                "tempo": 120.0
            },
            {
                "start_time": 31.41590909090909,
                "end_time": 31.815909090909088,
                "pitch": 63,
                "velocity": 101,
                "duration": 0.3999999999999986,
                "tempo": 120.0
            },
            {
                "start_time": 31.815909090909088,
                "end_time": 32.21818181818182,
                "pitch": 61,
                "velocity": 101,
                "duration": 0.4022727272727309,
                "tempo": 120.0
            },
            {
                "start_time": 32.220454545454544,
                "end_time": 33.42272727272727,
                "pitch": 59,
                "velocity": 101,
                "duration": 1.202272727272728,
                "tempo": 120.0
            },
            {
                "start_time": 33.425,
                "end_time": 33.625,
                "pitch": 56,
                "velocity": 101,
                "duration": 0.20000000000000284,
                "tempo": 120.0
            },
            {
                "start_time": 33.625,
                "end_time": 34.638636363636365,
                "pitch": 61,
                "velocity": 101,
                "duration": 1.0136363636363654,
                "tempo": 120.0
            },
            {
                "start_time": 34.638636363636365,
                "end_time": 35.24090909090909,
                "pitch": 58,
                "velocity": 101,
                "duration": 0.6022727272727266,
                "tempo": 120.0
            },
            {
                "start_time": 35.24090909090909,
                "end_time": 37.84772727272727,
                "pitch": 63,
                "velocity": 101,
                "duration": 2.606818181818177,
                "tempo": 120.0
            },
            {
                "start_time": 37.84772727272727,
                "end_time": 38.24772727272727,
                "pitch": 63,
                "velocity": 101,
                "duration": 0.3999999999999986,
                "tempo": 120.0
            },
            {
                "start_time": 38.25,
                "end_time": 38.65,
                "pitch": 61,
                "velocity": 101,
                "duration": 0.3999999999999986,
                "tempo": 120.0
            },
            {
                "start_time": 38.65,
                "end_time": 39.85227272727273,
                "pitch": 71,
                "velocity": 101,
                "duration": 1.202272727272728,
                "tempo": 120.0
            },
            {
                "start_time": 39.85454545454545,
                "end_time": 40.05227272727272,
                "pitch": 68,
                "velocity": 101,
                "duration": 0.19772727272727053,
                "tempo": 120.0
            },
            {
                "start_time": 40.054545454545455,
                "end_time": 41.06590909090909,
                "pitch": 73,
                "velocity": 101,
                "duration": 1.0113636363636331,
                "tempo": 120.0
            },
            {
                "start_time": 41.06590909090909,
                "end_time": 41.66590909090909,
                "pitch": 70,
                "velocity": 101,
                "duration": 0.6000000000000014,
                "tempo": 120.0
            },
            {
                "start_time": 41.668181818181814,
                "end_time": 44.27272727272727,
                "pitch": 75,
                "velocity": 101,
                "duration": 2.604545454545459,
                "tempo": 120.0
            },
            {
                "start_time": 44.27272727272727,
                "end_time": 44.675,
                "pitch": 75,
                "velocity": 101,
                "duration": 0.4022727272727238,
                "tempo": 120.0
            },
            {
                "start_time": 44.67727272727272,
                "end_time": 45.07727272727273,
                "pitch": 73,
                "velocity": 101,
                "duration": 0.4000000000000057,
                "tempo": 120.0
            },
            {
                "start_time": 45.07727272727273,
                "end_time": 46.277272727272724,
                "pitch": 71,
                "velocity": 101,
                "duration": 1.1999999999999957,
                "tempo": 120.0
            },
            {
                "start_time": 46.27954545454545,
                "end_time": 46.47954545454545,
                "pitch": 68,
                "velocity": 101,
                "duration": 0.20000000000000284,
                "tempo": 120.0
            },
            {
                "start_time": 46.47954545454545,
                "end_time": 47.48181818181818,
                "pitch": 73,
                "velocity": 101,
                "duration": 1.0022727272727252,
                "tempo": 120.0
            },
            {
                "start_time": 47.48409090909091,
                "end_time": 48.08863636363636,
                "pitch": 71,
                "velocity": 101,
                "duration": 0.6045454545454518,
                "tempo": 120.0
            },
            {
                "start_time": 48.090909090909086,
                "end_time": 51.50681818181818,
                "pitch": 70,
                "velocity": 101,
                "duration": 3.4159090909090963,
                "tempo": 120.0
            },
            {
                "start_time": 51.51136363636363,
                "end_time": 51.51590909090909,
                "pitch": 59,
                "velocity": 101,
                "duration": 0.004545454545457517,
                "tempo": 120.0
            }
        ]
    }
}