{
    "track_id": "05 Stage-1",
    "mood": "angry",
    "instruments": {
        "Lead 2 (sawtooth)": [
            {
                "start_time": 0.006818181818181818,
                "end_time": 0.1477272727272727,
                "pitch": 45,
                "velocity": 101,
                "duration": 0.1409090909090909,
                "tempo": 120.0
            },
            {
                "start_time": 0.19772727272727272,
                "end_time": 0.2477272727272727,
                "pitch": 45,
                "velocity": 101,
                "duration": 0.04999999999999999,
                "tempo": 120.0
            },
            {
                "start_time": 0.29772727272727273,
                "end_time": 0.3477272727272727,
                "pitch": 57,
                "velocity": 80,
                "duration": 0.04999999999999999,
                "tempo": 120.0
            },
            {
                "start_time": 0.39999999999999997,
                "end_time": 0.5454545454545454,
                "pitch": 45,
                "velocity": 101,
                "duration": 0.14545454545454545,
                "tempo": 120.0
            },
            {
                "start_time": 0.5954545454545455,
                "end_time": 0.6431818181818182,
                "pitch": 45,
                "velocity": 101,
                "duration": 0.04772727272727273,
                "tempo": 120.0
            },
            {
                "start_time": 0.6931818181818181,
                "end_time": 0.7409090909090909,
                "pitch": 57,
                "velocity": 80,
                "duration": 0.04772727272727273,
                "tempo": 120.0
            },
            {
                "start_time": 0.7909090909090909,
                "end_time": 0.9409090909090909,
                "pitch": 45,
                "velocity": 101,
                "duration": 0.15000000000000002,
                "tempo": 120.0
            },
            {
                "start_time": 0.9909090909090909,
                "end_time": 1.0409090909090908,
                "pitch": 45,
                "velocity": 101,
                "duration": 0.04999999999999993,
                "tempo": 120.0
            },
            {
                "start_time": 1.0909090909090908,
                "end_time": 1.1409090909090909,
                "pitch": 57,
                "velocity": 80,
                "duration": 0.050000000000000044,
                "tempo": 120.0
            },
            {
                "start_time": 1.1931818181818181,
                "end_time": 1.3409090909090908,
                "pitch": 45,
                "velocity": 101,
                "duration": 0.1477272727272727,
                "tempo": 120.0
            },
            {
                "start_time": 1.3909090909090909,
                "end_time": 1.440909090909091,
                "pitch": 45,
                "velocity": 101,
                "duration": 0.050000000000000044,
                "tempo": 120.0
            },
            {
                "start_time": 1.4931818181818182,
                "end_time": 1.5409090909090908,
                "pitch": 57,
                "velocity": 80,
                "duration": 0.04772727272727262,
                "tempo": 120.0
            },
            {
                "start_time": 1.593181818181818,
                "end_time": 1.7431818181818182,
                "pitch": 45,
                "velocity": 101,
                "duration": 0.15000000000000013,
                "tempo": 120.0
            },
            {
                "start_time": 1.793181818181818,
                "end_time": 1.843181818181818,
                "pitch": 45,
                "velocity": 101,
                "duration": 0.050000000000000044,
                "tempo": 120.0
            },
            {
                "start_time": 1.8954545454545453,
                "end_time": 1.9431818181818181,
                "pitch": 57,
                "velocity": 80,
                "duration": 0.04772727272727284,
                "tempo": 120.0
            },
            {
                "start_time": 1.9954545454545454,
                "end_time": 2.1454545454545455,
                "pitch": 45,
                "velocity": 101,
                "duration": 0.15000000000000013,
                "tempo": 120.0
            },
            {
                "start_time": 2.1954545454545453,
                "end_time": 2.245454545454545,
                "pitch": 45,
                "velocity": 101,
                "duration": 0.04999999999999982,
                "tempo": 120.0
            },
            {
                "start_time": 2.2954545454545454,
                "end_time": 2.3454545454545452,
                "pitch": 57,
                "velocity": 80,
                "duration": 0.04999999999999982,
                "tempo": 120.0
            },
            {
                "start_time": 2.3977272727272725,
                "end_time": 2.5454545454545454,
                "pitch": 45,
                "velocity": 101,
                "duration": 0.14772727272727293,
                "tempo": 120.0
            },
            {
                "start_time": 2.5954545454545452,
                "end_time": 2.6454545454545455,
                "pitch": 45,
                "velocity": 101,
                "duration": 0.050000000000000266,
                "tempo": 120.0
            },
            {
                "start_time": 2.6977272727272728,
                "end_time": 2.745454545454545,
                "pitch": 57,
                "velocity": 80,
                "duration": 0.047727272727272396,
                "tempo": 120.0
            },
            {
                "start_time": 2.7977272727272724,
                "end_time": 2.9454545454545453,
                "pitch": 45,
                "velocity": 101,
                "duration": 0.14772727272727293,
                "tempo": 120.0
            },
            {
                "start_time": 2.9977272727272726,
                "end_time": 3.0454545454545454,
                "pitch": 45,
                "velocity": 101,
                "duration": 0.04772727272727284,
                "tempo": 120.0
            },
            {
                "start_time": 3.0977272727272727,
                "end_time": 3.1454545454545455,
                "pitch": 57,
                "velocity": 80,
                "duration": 0.04772727272727284,
                "tempo": 120.0
            },
            {
                "start_time": 3.1999999999999997,
                "end_time": 3.3499999999999996,
                "pitch": 45,
                "velocity": 101,
                "duration": 0.1499999999999999,
                "tempo": 120.0
            },
            {
                "start_time": 3.402272727272727,
                "end_time": 3.452272727272727,
                "pitch": 45,
                "velocity": 101,
                "duration": 0.050000000000000266,
                "tempo": 120.0
            },
            {
                "start_time": 3.5045454545454544,
                "end_time": 3.5545454545454542,
                "pitch": 57,
                "velocity": 80,
                "duration": 0.04999999999999982,
                "tempo": 120.0
            },
            {
                "start_time": 3.609090909090909,
                "end_time": 3.756818181818182,
                "pitch": 45,
                "velocity": 101,
                "duration": 0.14772727272727293,
                "tempo": 120.0
            },
            {
                "start_time": 3.809090909090909,
                "end_time": 3.8568181818181815,
                "pitch": 45,
                "velocity": 101,
                "duration": 0.047727272727272396,
                "tempo": 120.0
            },
            {
                "start_time": 3.9090909090909087,
                "end_time": 3.9568181818181816,
                "pitch": 57,
                "velocity": 80,
                "duration": 0.04772727272727284,
                "tempo": 120.0
            },
            {
                "start_time": 4.009090909090909,
                "end_time": 4.154545454545454,
                "pitch": 45,
                "velocity": 101,
                "duration": 0.1454545454545455,
                "tempo": 120.0
            },
            {
                "start_time": 4.204545454545454,
                "end_time": 4.252272727272727,
                "pitch": 45,
                "velocity": 101,
                "duration": 0.04772727272727284,
                "tempo": 120.0
            },
            {
                "start_time": 4.302272727272727,
                "end_time": 4.352272727272727,
                "pitch": 57,
                "velocity": 80,
                "duration": 0.04999999999999982,
                "tempo": 120.0
            },
            {
                "start_time": 4.402272727272727,
                "end_time": 4.554545454545455,
                "pitch": 45,
                "velocity": 101,
                "duration": 0.15227272727272734,
                "tempo": 120.0
            },
            {
                "start_time": 4.6068181818181815,
                "end_time": 4.656818181818181,
                "pitch": 45,
                "velocity": 101,
                "duration": 0.04999999999999982,
                "tempo": 120.0
            },
            {
                "start_time": 4.709090909090909,
                "end_time": 4.759090909090909,
                "pitch": 57,
                "velocity": 80,
                "duration": 0.04999999999999982,
                "tempo": 120.0
            },
            {
                "start_time": 4.8136363636363635,
                "end_time": 4.961363636363636,
                "pitch": 45,
                "velocity": 101,
                "duration": 0.14772727272727249,
                "tempo": 120.0
            },
            {
                "start_time": 5.013636363636364,
                "end_time": 5.0613636363636365,
                "pitch": 45,
                "velocity": 101,
                "duration": 0.04772727272727284,
                "tempo": 120.0
            },
            {
                "start_time": 5.113636363636363,
                "end_time": 5.161363636363636,
                "pitch": 57,
                "velocity": 80,
                "duration": 0.04772727272727284,
                "tempo": 120.0
            },
            {
                "start_time": 5.213636363636363,
                "end_time": 5.363636363636363,
                "pitch": 45,
                "velocity": 101,
                "duration": 0.15000000000000036,
                "tempo": 120.0
            },
            {
                "start_time": 5.415909090909091,
                "end_time": 5.463636363636363,
                "pitch": 45,
                "velocity": 101,
                "duration": 0.04772727272727195,
                "tempo": 120.0
            },
            {
                "start_time": 5.515909090909091,
                "end_time": 5.5659090909090905,
                "pitch": 57,
                "velocity": 80,
                "duration": 0.04999999999999982,
                "tempo": 120.0
            },
            {
                "start_time": 5.61590909090909,
                "end_time": 5.765909090909091,
                "pitch": 45,
                "velocity": 101,
                "duration": 0.15000000000000036,
                "tempo": 120.0
            },
            {
                "start_time": 5.818181818181818,
                "end_time": 5.868181818181818,
                "pitch": 45,
                "velocity": 101,
                "duration": 0.04999999999999982,
                "tempo": 120.0
            },
            {
                "start_time": 5.918181818181818,
                "end_time": 5.968181818181818,
                "pitch": 57,
                "velocity": 80,
                "duration": 0.04999999999999982,
                "tempo": 120.0
            },
            {
                "start_time": 6.0204545454545455,
                "end_time": 6.168181818181818,
                "pitch": 45,
                "velocity": 101,
                "duration": 0.14772727272727249,
                "tempo": 120.0
            },
            {
                "start_time": 6.220454545454545,
                "end_time": 6.268181818181818,
                "pitch": 45,
                "velocity": 101,
                "duration": 0.04772727272727284,
                "tempo": 120.0
            },
            {
                "start_time": 6.320454545454545,
                "end_time": 6.368181818181818,
                "pitch": 57,
                "velocity": 80,
                "duration": 0.04772727272727284,
                "tempo": 120.0
            },
            {
                "start_time": 6.420454545454545,
                "end_time": 6.570454545454545,
                "pitch": 45,
                "velocity": 101,
                "duration": 0.15000000000000036,
                "tempo": 120.0
            },
            {
                "start_time": 6.622727272727272,
                "end_time": 6.670454545454545,
                "pitch": 45,
                "velocity": 101,
                "duration": 0.04772727272727284,
                "tempo": 120.0
            },
            {
                "start_time": 6.722727272727273,
                "end_time": 6.7727272727272725,
                "pitch": 57,
                "velocity": 80,
                "duration": 0.04999999999999982,
                "tempo": 120.0
            },
            {
                "start_time": 6.824999999999999,
                "end_time": 6.972727272727273,
                "pitch": 45,
                "velocity": 101,
                "duration": 0.14772727272727337,
                "tempo": 120.0
            },
            {
                "start_time": 7.0249999999999995,
                "end_time": 7.072727272727272,
                "pitch": 45,
                "velocity": 101,
                "duration": 0.04772727272727284,
                "tempo": 120.0
            },
            {
                "start_time": 7.125,
                "end_time": 7.172727272727272,
                "pitch": 57,
                "velocity": 80,
                "duration": 0.04772727272727195,
                "tempo": 120.0
            },
            {
                "start_time": 7.225,
                "end_time": 7.375,
                "pitch": 45,
                "velocity": 101,
                "duration": 0.15000000000000036,
                "tempo": 120.0
            },
            {
                "start_time": 7.425,
                "end_time": 7.475,
                "pitch": 45,
                "velocity": 101,
                "duration": 0.04999999999999982,
                "tempo": 120.0
            },
            {
                "start_time": 7.527272727272727,
                "end_time": 7.574999999999999,
                "pitch": 57,
                "velocity": 80,
                "duration": 0.04772727272727195,
                "tempo": 120.0
            },
            {
                "start_time": 7.627272727272727,
                "end_time": 7.777272727272727,
                "pitch": 45,
                "velocity": 101,
                "duration": 0.15000000000000036,
                "tempo": 120.0
            },
            {
                "start_time": 7.829545454545454,
                "end_time": 7.877272727272727,
                "pitch": 45,
                "velocity": 101,
                "duration": 0.04772727272727284,
                "tempo": 120.0
            },
            {
                "start_time": 7.929545454545454,
                "end_time": 7.9795454545454545,
                "pitch": 57,
                "velocity": 80,
                "duration": 0.05000000000000071,
                "tempo": 120.0
            },
            {
                "start_time": 8.031818181818181,
                "end_time": 8.179545454545455,
                "pitch": 45,
                "velocity": 101,
                "duration": 0.14772727272727337,
                "tempo": 120.0
            },
            {
                "start_time": 8.23181818181818,
                "end_time": 8.279545454545454,
                "pitch": 45,
                "velocity": 101,
                "duration": 0.04772727272727373,
                "tempo": 120.0
            },
            {
                "start_time": 8.331818181818182,
                "end_time": 8.379545454545454,
                "pitch": 57,
                "velocity": 80,
                "duration": 0.04772727272727195,
                "tempo": 120.0
            },
            {
                "start_time": 8.431818181818182,
                "end_time": 8.581818181818182,
                "pitch": 45,
                "velocity": 101,
                "duration": 0.15000000000000036,
                "tempo": 120.0
            },
            {
                "start_time": 8.631818181818181,
                "end_time": 8.681818181818182,
                "pitch": 45,
                "velocity": 101,
                "duration": 0.05000000000000071,
                "tempo": 120.0
            },
            {
                "start_time": 8.73409090909091,
                "end_time": 8.781818181818181,
                "pitch": 57,
                "velocity": 80,
                "duration": 0.04772727272727195,
                "tempo": 120.0
            },
            {
                "start_time": 8.834090909090909,
                "end_time": 8.98409090909091,
                "pitch": 45,
                "velocity": 101,
                "duration": 0.15000000000000036,
                "tempo": 120.0
            },
            {
                "start_time": 9.034090909090908,
                "end_time": 9.084090909090909,
                "pitch": 45,
                "velocity": 101,
                "duration": 0.05000000000000071,
                "tempo": 120.0
            },
            {
                "start_time": 9.136363636363637,
                "end_time": 9.186363636363636,
                "pitch": 57,
                "velocity": 80,
                "duration": 0.049999999999998934,
                "tempo": 120.0
            },
            {
                "start_time": 9.236363636363636,
                "end_time": 9.386363636363637,
                "pitch": 45,
                "velocity": 101,
                "duration": 0.15000000000000036,
                "tempo": 120.0
            },
            {
                "start_time": 9.438636363636363,
                "end_time": 9.488636363636363,
                "pitch": 45,
                "velocity": 101,
                "duration": 0.05000000000000071,
                "tempo": 120.0
            },
            {
                "start_time": 9.538636363636364,
                "end_time": 9.588636363636363,
                "pitch": 57,
                "velocity": 80,
                "duration": 0.049999999999998934,
                "tempo": 120.0
            },
            {
                "start_time": 9.643181818181818,
                "end_time": 9.69090909090909,
                "pitch": 40,
                "velocity": 127,
                "duration": 0.04772727272727195,
                "tempo": 120.0
            },
            {
                "start_time": 9.743181818181817,
                "end_time": 9.793181818181818,
                "pitch": 40,
                "velocity": 101,
                "duration": 0.05000000000000071,
                "tempo": 120.0
            },
            {
                "start_time": 9.845454545454546,
                "end_time": 9.895454545454545,
                "pitch": 52,
                "velocity": 101,
                "duration": 0.049999999999998934,
                "tempo": 120.0
            },
            {
                "start_time": 9.95,
                "end_time": 10.0,
                "pitch": 40,
                "velocity": 101,
                "duration": 0.05000000000000071,
                "tempo": 120.0
            },
            {
                "start_time": 10.052272727272726,
                "end_time": 10.1,
                "pitch": 40,
                "velocity": 127,
                "duration": 0.04772727272727373,
                "tempo": 120.0
            },
            {
                "start_time": 10.15,
                "end_time": 10.197727272727272,
                "pitch": 52,
                "velocity": 101,
                "duration": 0.04772727272727195,
                "tempo": 120.0
            },
            {
                "start_time": 10.247727272727273,
                "end_time": 10.295454545454545,
                "pitch": 40,
                "velocity": 101,
                "duration": 0.04772727272727195,
                "tempo": 120.0
            },
            {
                "start_time": 10.345454545454546,
                "end_time": 10.393181818181818,
                "pitch": 40,
                "velocity": 101,
                "duration": 0.04772727272727195,
                "tempo": 120.0
            },
            {
                "start_time": 10.445454545454545,
                "end_time": 10.493181818181817,
                "pitch": 40,
                "velocity": 127,
                "duration": 0.04772727272727195,
                "tempo": 120.0
            },
            {
                "start_time": 10.545454545454545,
                "end_time": 10.597727272727273,
                "pitch": 40,
                "velocity": 101,
                "duration": 0.05227272727272769,
                "tempo": 120.0
            },
            {
                "start_time": 10.65,
                "end_time": 10.7,
                "pitch": 52,
                "velocity": 101,
                "duration": 0.049999999999998934,
                "tempo": 120.0
            },
            {
                "start_time": 10.752272727272727,
                "end_time": 10.802272727272726,
                "pitch": 40,
                "velocity": 101,
                "duration": 0.049999999999998934,
                "tempo": 120.0
            },
            {
                "start_time": 10.854545454545454,
                "end_time": 10.902272727272727,
                "pitch": 40,
                "velocity": 127,
                "duration": 0.04772727272727373,
                "tempo": 120.0
            },
            {
                "start_time": 10.952272727272726,
                "end_time": 11.002272727272727,
                "pitch": 52,
                "velocity": 101,
                "duration": 0.05000000000000071,
                "tempo": 120.0
            },
            {
                "start_time": 11.052272727272726,
                "end_time": 11.1,
                "pitch": 40,
                "velocity": 101,
                "duration": 0.04772727272727373,
                "tempo": 120.0
            },
            {
                "start_time": 11.149999999999999,
                "end_time": 11.197727272727272,
                "pitch": 40,
                "velocity": 101,
                "duration": 0.04772727272727373,
                "tempo": 120.0
            },
            {
                "start_time": 11.25,
                "end_time": 11.297727272727272,
                "pitch": 40,
                "velocity": 127,
                "duration": 0.04772727272727195,
                "tempo": 120.0
            },
            {
                "start_time": 11.35,
                "end_time": 11.399999999999999,
                "pitch": 40,
                "velocity": 101,
                "duration": 0.049999999999998934,
                "tempo": 120.0
            },
            {
                "start_time": 11.452272727272726,
                "end_time": 11.504545454545454,
                "pitch": 52,
                "velocity": 101,
                "duration": 0.05227272727272769,
                "tempo": 120.0
            },
            {
                "start_time": 11.556818181818182,
                "end_time": 11.60681818181818,
                "pitch": 40,
                "velocity": 101,
                "duration": 0.049999999999998934,
                "tempo": 120.0
            },
            {
                "start_time": 11.659090909090908,
                "end_time": 11.706818181818182,
                "pitch": 40,
                "velocity": 127,
                "duration": 0.04772727272727373,
                "tempo": 120.0
            },
            {
                "start_time": 11.756818181818181,
                "end_time": 11.804545454545455,
                "pitch": 52,
                "velocity": 101,
                "duration": 0.04772727272727373,
                "tempo": 120.0
            },
            {
                "start_time": 11.854545454545454,
                "end_time": 11.902272727272727,
                "pitch": 40,
                "velocity": 101,
                "duration": 0.04772727272727373,
                "tempo": 120.0
            },
            {
                "start_time": 11.952272727272726,
                "end_time": 12.002272727272727,
                "pitch": 40,
                "velocity": 101,
                "duration": 0.05000000000000071,
                "tempo": 120.0
            },
            {
                "start_time": 12.052272727272726,
                "end_time": 12.102272727272727,
                "pitch": 40,
                "velocity": 127,
                "duration": 0.05000000000000071,
                "tempo": 120.0
            },
            {
                "start_time": 12.154545454545454,
                "end_time": 12.204545454545453,
                "pitch": 40,
                "velocity": 101,
                "duration": 0.049999999999998934,
                "tempo": 120.0
            },
            {
                "start_time": 12.256818181818181,
                "end_time": 12.306818181818182,
                "pitch": 52,
                "velocity": 101,
                "duration": 0.05000000000000071,
                "tempo": 120.0
            },
            {
                "start_time": 12.361363636363636,
                "end_time": 12.409090909090908,
                "pitch": 40,
                "velocity": 101,
                "duration": 0.04772727272727195,
                "tempo": 120.0
            },
            {
                "start_time": 12.463636363636363,
                "end_time": 12.511363636363635,
                "pitch": 40,
                "velocity": 127,
                "duration": 0.04772727272727195,
                "tempo": 120.0
            },
            {
                "start_time": 12.563636363636363,
                "end_time": 12.613636363636363,
                "pitch": 52,
                "velocity": 101,
                "duration": 0.05000000000000071,
                "tempo": 120.0
            },
            {
                "start_time": 12.665909090909091,
                "end_time": 12.713636363636363,
                "pitch": 40,
                "velocity": 101,
                "duration": 0.04772727272727195,
                "tempo": 120.0
            },
            {
                "start_time": 12.763636363636364,
                "end_time": 12.813636363636363,
                "pitch": 40,
                "velocity": 101,
                "duration": 0.049999999999998934,
                "tempo": 120.0
            },
            {
                "start_time": 12.868181818181817,
                "end_time": 13.01590909090909,
                "pitch": 45,
                "velocity": 101,
                "duration": 0.14772727272727337,
                "tempo": 120.0
            },
            {
                "start_time": 13.068181818181818,
                "end_time": 13.11590909090909,
                "pitch": 45,
                "velocity": 101,
                "duration": 0.04772727272727195,
                "tempo": 120.0
            },
            {
                "start_time": 13.170454545454545,
                "end_time": 13.218181818181817,
                "pitch": 57,
                "velocity": 80,
                "duration": 0.04772727272727195,
                "tempo": 120.0
            },
            {
                "start_time": 13.270454545454545,
                "end_time": 13.420454545454545,
                "pitch": 45,
                "velocity": 101,
                "duration": 0.15000000000000036,
                "tempo": 120.0
            },
            {
                "start_time": 13.470454545454546,
                "end_time": 13.520454545454545,
                "pitch": 45,
                "velocity": 101,
                "duration": 0.049999999999998934,
                "tempo": 120.0
            },
            {
                "start_time": 13.570454545454545,
                "end_time": 13.620454545454544,
                "pitch": 57,
                "velocity": 80,
                "duration": 0.049999999999998934,
                "tempo": 120.0
            },
            {
                "start_time": 13.672727272727272,
                "end_time": 13.822727272727272,
                "pitch": 45,
                "velocity": 101,
                "duration": 0.15000000000000036,
                "tempo": 120.0
            },
            {
                "start_time": 13.872727272727271,
                "end_time": 13.922727272727272,
                "pitch": 45,
                "velocity": 101,
                "duration": 0.05000000000000071,
                "tempo": 120.0
            },
            {
                "start_time": 13.972727272727273,
                "end_time": 14.022727272727272,
                "pitch": 57,
                "velocity": 80,
                "duration": 0.049999999999998934,
                "tempo": 120.0
            },
            {
                "start_time": 14.072727272727272,
                "end_time": 14.222727272727273,
                "pitch": 45,
                "velocity": 101,
                "duration": 0.15000000000000036,
                "tempo": 120.0
            },
            {
                "start_time": 14.274999999999999,
                "end_time": 14.325,
                "pitch": 45,
                "velocity": 101,
                "duration": 0.05000000000000071,
                "tempo": 120.0
            },
            {
                "start_time": 14.375,
                "end_time": 14.424999999999999,
                "pitch": 57,
                "velocity": 80,
                "duration": 0.049999999999998934,
                "tempo": 120.0
            },
            {
                "start_time": 14.477272727272727,
                "end_time": 14.627272727272727,
                "pitch": 45,
                "velocity": 101,
                "duration": 0.15000000000000036,
                "tempo": 120.0
            },
            {
                "start_time": 14.677272727272726,
                "end_time": 14.727272727272727,
                "pitch": 45,
                "velocity": 101,
                "duration": 0.05000000000000071,
                "tempo": 120.0
            },
            {
                "start_time": 14.779545454545454,
                "end_time": 14.827272727272726,
                "pitch": 57,
                "velocity": 80,
                "duration": 0.04772727272727195,
                "tempo": 120.0
            },
            {
                "start_time": 14.879545454545454,
                "end_time": 15.029545454545454,
                "pitch": 45,
                "velocity": 101,
                "duration": 0.15000000000000036,
                "tempo": 120.0
            },
            {
                "start_time": 15.079545454545453,
                "end_time": 15.129545454545454,
                "pitch": 45,
                "velocity": 101,
                "duration": 0.05000000000000071,
                "tempo": 120.0
            },
            {
                "start_time": 15.181818181818182,
                "end_time": 15.23181818181818,
                "pitch": 57,
                "velocity": 80,
                "duration": 0.049999999999998934,
                "tempo": 120.0
            },
            {
                "start_time": 15.281818181818181,
                "end_time": 15.431818181818182,
                "pitch": 45,
                "velocity": 101,
                "duration": 0.15000000000000036,
                "tempo": 120.0
            },
            {
                "start_time": 15.484090909090908,
                "end_time": 15.534090909090908,
                "pitch": 45,
                "velocity": 101,
                "duration": 0.05000000000000071,
                "tempo": 120.0
            },
            {
                "start_time": 15.584090909090909,
                "end_time": 15.634090909090908,
                "pitch": 57,
                "velocity": 80,
                "duration": 0.049999999999998934,
                "tempo": 120.0
            },
            {
                "start_time": 15.686363636363636,
                "end_time": 15.834090909090909,
                "pitch": 45,
                "velocity": 101,
                "duration": 0.14772727272727337,
                "tempo": 120.0
            },
            {
                "start_time": 15.886363636363635,
                "end_time": 15.934090909090909,
                "pitch": 45,
                "velocity": 101,
                "duration": 0.04772727272727373,
                "tempo": 120.0
            },
            {
                "start_time": 15.986363636363636,
                "end_time": 16.036363636363635,
                "pitch": 57,
                "velocity": 80,
                "duration": 0.049999999999998934,
                "tempo": 120.0
            },
            {
                "start_time": 16.08863636363636,
                "end_time": 16.136363636363637,
                "pitch": 40,
                "velocity": 127,
                "duration": 0.047727272727275505,
                "tempo": 120.0
            },
            {
                "start_time": 16.186363636363634,
                "end_time": 16.236363636363635,
                "pitch": 40,
                "velocity": 101,
                "duration": 0.05000000000000071,
                "tempo": 120.0
            },
            {
                "start_time": 16.286363636363635,
                "end_time": 16.336363636363636,
                "pitch": 52,
                "velocity": 101,
                "duration": 0.05000000000000071,
                "tempo": 120.0
            },
            {
                "start_time": 16.388636363636362,
                "end_time": 16.438636363636363,
                "pitch": 40,
                "velocity": 101,
                "duration": 0.05000000000000071,
                "tempo": 120.0
            },
            {
                "start_time": 16.488636363636363,
                "end_time": 16.538636363636364,
                "pitch": 40,
                "velocity": 127,
                "duration": 0.05000000000000071,
                "tempo": 120.0
            },
            {
                "start_time": 16.59090909090909,
                "end_time": 16.638636363636362,
                "pitch": 52,
                "velocity": 101,
                "duration": 0.04772727272727195,
                "tempo": 120.0
            },
            {
                "start_time": 16.69090909090909,
                "end_time": 16.74090909090909,
                "pitch": 40,
                "velocity": 101,
                "duration": 0.04999999999999716,
                "tempo": 120.0
            },
            {
                "start_time": 16.79090909090909,
                "end_time": 16.84090909090909,
                "pitch": 40,
                "velocity": 101,
                "duration": 0.05000000000000071,
                "tempo": 120.0
            },
            {
                "start_time": 16.893181818181816,
                "end_time": 16.94090909090909,
                "pitch": 40,
                "velocity": 127,
                "duration": 0.047727272727275505,
                "tempo": 120.0
            },
            {
                "start_time": 16.993181818181817,
                "end_time": 17.04090909090909,
                "pitch": 40,
                "velocity": 101,
                "duration": 0.04772727272727195,
                "tempo": 120.0
            },
            {
                "start_time": 17.09318181818182,
                "end_time": 17.14090909090909,
                "pitch": 52,
                "velocity": 101,
                "duration": 0.04772727272727195,
                "tempo": 120.0
            },
            {
                "start_time": 17.193181818181817,
                "end_time": 17.243181818181817,
                "pitch": 40,
                "velocity": 101,
                "duration": 0.05000000000000071,
                "tempo": 120.0
            },
            {
                "start_time": 17.293181818181818,
                "end_time": 17.34318181818182,
                "pitch": 40,
                "velocity": 127,
                "duration": 0.05000000000000071,
                "tempo": 120.0
            },
            {
                "start_time": 17.393181818181816,
                "end_time": 17.443181818181817,
                "pitch": 52,
                "velocity": 101,
                "duration": 0.05000000000000071,
                "tempo": 120.0
            },
            {
                "start_time": 17.493181818181817,
                "end_time": 17.543181818181818,
                "pitch": 40,
                "velocity": 101,
                "duration": 0.05000000000000071,
                "tempo": 120.0
            },
            {
                "start_time": 17.59318181818182,
                "end_time": 17.643181818181816,
                "pitch": 40,
                "velocity": 101,
                "duration": 0.04999999999999716,
                "tempo": 120.0
            },
            {
                "start_time": 17.695454545454545,
                "end_time": 17.743181818181817,
                "pitch": 40,
                "velocity": 127,
                "duration": 0.04772727272727195,
                "tempo": 120.0
            },
            {
                "start_time": 17.795454545454543,
                "end_time": 17.847727272727273,
                "pitch": 40,
                "velocity": 101,
                "duration": 0.05227272727272947,
                "tempo": 120.0
            },
            {
                "start_time": 17.897727272727273,
                "end_time": 17.95,
                "pitch": 52,
                "velocity": 101,
                "duration": 0.052272727272725916,
                "tempo": 120.0
            },
            {
                "start_time": 18.002272727272725,
                "end_time": 18.052272727272726,
                "pitch": 40,
                "velocity": 101,
                "duration": 0.05000000000000071,
                "tempo": 120.0
            },
            {
                "start_time": 18.104545454545455,
                "end_time": 18.152272727272727,
                "pitch": 40,
                "velocity": 127,
                "duration": 0.04772727272727195,
                "tempo": 120.0
            },
            {
                "start_time": 18.202272727272728,
                "end_time": 18.252272727272725,
                "pitch": 52,
                "velocity": 101,
                "duration": 0.04999999999999716,
                "tempo": 120.0
            },
            {
                "start_time": 18.3,
                "end_time": 18.349999999999998,
                "pitch": 40,
                "velocity": 101,
                "duration": 0.04999999999999716,
                "tempo": 120.0
            },
            {
                "start_time": 18.4,
                "end_time": 18.44772727272727,
                "pitch": 40,
                "velocity": 101,
                "duration": 0.04772727272727195,
                "tempo": 120.0
            },
            {
                "start_time": 18.49772727272727,
                "end_time": 18.547727272727272,
                "pitch": 40,
                "velocity": 127,
                "duration": 0.05000000000000071,
                "tempo": 120.0
            },
            {
                "start_time": 18.599999999999998,
                "end_time": 18.65,
                "pitch": 40,
                "velocity": 101,
                "duration": 0.05000000000000071,
                "tempo": 120.0
            },
            {
                "start_time": 18.702272727272728,
                "end_time": 18.752272727272725,
                "pitch": 52,
                "velocity": 101,
                "duration": 0.04999999999999716,
                "tempo": 120.0
            },
            {
                "start_time": 18.80681818181818,
                "end_time": 18.85681818181818,
                "pitch": 40,
                "velocity": 101,
                "duration": 0.05000000000000071,
                "tempo": 120.0
            },
            {
                "start_time": 18.909090909090907,
                "end_time": 18.956818181818182,
                "pitch": 40,
                "velocity": 127,
                "duration": 0.047727272727275505,
                "tempo": 120.0
            },
            {
                "start_time": 19.00681818181818,
                "end_time": 19.054545454545455,
                "pitch": 52,
                "velocity": 101,
                "duration": 0.047727272727275505,
                "tempo": 120.0
            },
            {
                "start_time": 19.104545454545455,
                "end_time": 19.152272727272727,
                "pitch": 40,
                "velocity": 101,
                "duration": 0.04772727272727195,
                "tempo": 120.0
            },
            {
                "start_time": 19.202272727272728,
                "end_time": 19.252272727272725,
                "pitch": 40,
                "velocity": 101,
                "duration": 0.04999999999999716,
                "tempo": 120.0
            },
            {
                "start_time": 19.302272727272726,
                "end_time": 19.454545454545453,
                "pitch": 45,
                "velocity": 101,
                "duration": 0.15227272727272734,
                "tempo": 120.0
            },
            {
                "start_time": 19.50681818181818,
                "end_time": 19.55681818181818,
                "pitch": 45,
                "velocity": 101,
                "duration": 0.05000000000000071,
                "tempo": 120.0
            },
            {
                "start_time": 19.611363636363635,
                "end_time": 19.659090909090907,
                "pitch": 57,
                "velocity": 80,
                "duration": 0.04772727272727195,
                "tempo": 120.0
            },
            {
                "start_time": 19.71363636363636,
                "end_time": 19.85909090909091,
                "pitch": 45,
                "velocity": 101,
                "duration": 0.14545454545454817,
                "tempo": 120.0
            },
            {
                "start_time": 19.909090909090907,
                "end_time": 19.956818181818182,
                "pitch": 45,
                "velocity": 101,
                "duration": 0.047727272727275505,
                "tempo": 120.0
            },
            {
                "start_time": 20.00681818181818,
                "end_time": 20.054545454545455,
                "pitch": 57,
                "velocity": 80,
                "duration": 0.047727272727275505,
                "tempo": 120.0
            },
            {
                "start_time": 20.104545454545452,
                "end_time": 20.254545454545454,
                "pitch": 45,
                "velocity": 101,
                "duration": 0.15000000000000213,
                "tempo": 120.0
            },
            {
                "start_time": 20.304545454545455,
                "end_time": 20.354545454545452,
                "pitch": 45,
                "velocity": 101,
                "duration": 0.04999999999999716,
                "tempo": 120.0
            },
            {
                "start_time": 20.404545454545453,
                "end_time": 20.454545454545453,
                "pitch": 57,
                "velocity": 80,
                "duration": 0.05000000000000071,
                "tempo": 120.0
            },
            {
                "start_time": 20.50681818181818,
                "end_time": 20.65681818181818,
                "pitch": 45,
                "velocity": 101,
                "duration": 0.15000000000000213,
                "tempo": 120.0
            },
            {
                "start_time": 20.706818181818182,
                "end_time": 20.75681818181818,
                "pitch": 45,
                "velocity": 101,
                "duration": 0.04999999999999716,
                "tempo": 120.0
            },
            {
                "start_time": 20.80681818181818,
                "end_time": 20.85681818181818,
                "pitch": 57,
                "velocity": 80,
                "duration": 0.05000000000000071,
                "tempo": 120.0
            },
            {
                "start_time": 20.909090909090907,
                "end_time": 21.061363636363634,
                "pitch": 45,
                "velocity": 101,
                "duration": 0.15227272727272734,
                "tempo": 120.0
            },
            {
                "start_time": 21.113636363636363,
                "end_time": 21.163636363636364,
                "pitch": 45,
                "velocity": 101,
                "duration": 0.05000000000000071,
                "tempo": 120.0
            },
            {
                "start_time": 21.21818181818182,
                "end_time": 21.268181818181816,
                "pitch": 57,
                "velocity": 80,
                "duration": 0.04999999999999716,
                "tempo": 120.0
            },
            {
                "start_time": 21.320454545454545,
                "end_time": 21.470454545454544,
                "pitch": 45,
                "velocity": 101,
                "duration": 0.14999999999999858,
                "tempo": 120.0
            },
            {
                "start_time": 21.520454545454545,
                "end_time": 21.570454545454545,
                "pitch": 45,
                "velocity": 101,
                "duration": 0.05000000000000071,
                "tempo": 120.0
            },
            {
                "start_time": 21.62272727272727,
                "end_time": 21.672727272727272,
                "pitch": 57,
                "velocity": 80,
                "duration": 0.05000000000000071,
                "tempo": 120.0
            },
            {
                "start_time": 21.722727272727273,
                "end_time": 21.87272727272727,
                "pitch": 45,
                "velocity": 101,
                "duration": 0.14999999999999858,
                "tempo": 120.0
            },
            {
                "start_time": 21.922727272727272,
                "end_time": 21.972727272727273,
                "pitch": 45,
                "velocity": 101,
                "duration": 0.05000000000000071,
                "tempo": 120.0
            },
            {
                "start_time": 22.022727272727273,
                "end_time": 22.07272727272727,
                "pitch": 57,
                "velocity": 80,
                "duration": 0.04999999999999716,
                "tempo": 120.0
            },
            {
                "start_time": 22.125,
                "end_time": 22.275,
                "pitch": 45,
                "velocity": 101,
                "duration": 0.14999999999999858,
                "tempo": 120.0
            },
            {
                "start_time": 22.325,
                "end_time": 22.375,
                "pitch": 45,
                "velocity": 101,
                "duration": 0.05000000000000071,
                "tempo": 120.0
            },
            {
                "start_time": 22.427272727272726,
                "end_time": 22.474999999999998,
                "pitch": 57,
                "velocity": 80,
                "duration": 0.04772727272727195,
                "tempo": 120.0
            },
            {
                "start_time": 22.529545454545453,
                "end_time": 22.677272727272726,
                "pitch": 45,
                "velocity": 101,
                "duration": 0.14772727272727337,
                "tempo": 120.0
            },
            {
                "start_time": 22.727272727272727,
                "end_time": 22.777272727272727,
                "pitch": 45,
                "velocity": 101,
                "duration": 0.05000000000000071,
                "tempo": 120.0
            },
            {
                "start_time": 22.827272727272724,
                "end_time": 22.877272727272725,
                "pitch": 57,
                "velocity": 80,
                "duration": 0.05000000000000071,
                "tempo": 120.0
            },
            {
                "start_time": 22.929545454545455,
                "end_time": 23.077272727272724,
                "pitch": 45,
                "velocity": 101,
                "duration": 0.14772727272726982,
                "tempo": 120.0
            },
            {
                "start_time": 23.127272727272725,
                "end_time": 23.177272727272726,
                "pitch": 45,
                "velocity": 101,
                "duration": 0.05000000000000071,
                "tempo": 120.0
            },
            {
                "start_time": 23.229545454545452,
                "end_time": 23.277272727272727,
                "pitch": 57,
                "velocity": 80,
                "duration": 0.047727272727275505,
                "tempo": 120.0
            },
            {
                "start_time": 23.329545454545453,
                "end_time": 23.477272727272727,
                "pitch": 45,
                "velocity": 101,
                "duration": 0.14772727272727337,
                "tempo": 120.0
            },
            {
                "start_time": 23.529545454545453,
                "end_time": 23.579545454545453,
                "pitch": 45,
                "velocity": 101,
                "duration": 0.05000000000000071,
                "tempo": 120.0
            },
            {
                "start_time": 23.63181818181818,
                "end_time": 23.679545454545455,
                "pitch": 57,
                "velocity": 80,
                "duration": 0.047727272727275505,
                "tempo": 120.0
            },
            {
                "start_time": 23.73181818181818,
                "end_time": 23.879545454545454,
                "pitch": 45,
                "velocity": 101,
                "duration": 0.14772727272727337,
                "tempo": 120.0
            },
            {
                "start_time": 23.93181818181818,
                "end_time": 23.98181818181818,
                "pitch": 45,
                "velocity": 101,
                "duration": 0.05000000000000071,
                "tempo": 120.0
            },
            {
                "start_time": 24.03181818181818,
                "end_time": 24.081818181818182,
                "pitch": 57,
                "velocity": 80,
                "duration": 0.05000000000000071,
                "tempo": 120.0
            },
            {
                "start_time": 24.134090909090908,
                "end_time": 24.28181818181818,
                "pitch": 45,
                "velocity": 101,
                "duration": 0.14772727272727337,
                "tempo": 120.0
            },
            {
                "start_time": 24.334090909090907,
                "end_time": 24.38181818181818,
                "pitch": 45,
                "velocity": 101,
                "duration": 0.04772727272727195,
                "tempo": 120.0
            },
            {
                "start_time": 24.43409090909091,
                "end_time": 24.48409090909091,
                "pitch": 57,
                "velocity": 80,
                "duration": 0.05000000000000071,
                "tempo": 120.0
            },
            {
                "start_time": 24.536363636363635,
                "end_time": 24.68409090909091,
                "pitch": 45,
                "velocity": 101,
                "duration": 0.14772727272727337,
                "tempo": 120.0
            },
            {
                "start_time": 24.736363636363635,
                "end_time": 24.784090909090907,
                "pitch": 45,
                "velocity": 101,
                "duration": 0.04772727272727195,
                "tempo": 120.0
            },
            {
                "start_time": 24.836363636363636,
                "end_time": 24.884090909090908,
                "pitch": 57,
                "velocity": 80,
                "duration": 0.04772727272727195,
                "tempo": 120.0
            },
            {
                "start_time": 24.936363636363634,
                "end_time": 25.084090909090907,
                "pitch": 45,
                "velocity": 101,
                "duration": 0.14772727272727337,
                "tempo": 120.0
            },
            {
                "start_time": 25.136363636363637,
                "end_time": 25.18409090909091,
                "pitch": 45,
                "velocity": 101,
                "duration": 0.04772727272727195,
                "tempo": 120.0
            },
            {
                "start_time": 25.236363636363635,
                "end_time": 25.284090909090907,
                "pitch": 57,
                "velocity": 80,
                "duration": 0.04772727272727195,
                "tempo": 120.0
            },
            {
                "start_time": 25.336363636363636,
                "end_time": 25.486363636363635,
                "pitch": 45,
                "velocity": 101,
                "duration": 0.14999999999999858,
                "tempo": 120.0
            },
            {
                "start_time": 25.538636363636364,
                "end_time": 25.586363636363636,
                "pitch": 45,
                "velocity": 101,
                "duration": 0.04772727272727195,
                "tempo": 120.0
            },
            {
                "start_time": 25.638636363636362,
                "end_time": 25.688636363636363,
                "pitch": 57,
                "velocity": 80,
                "duration": 0.05000000000000071,
                "tempo": 120.0
            },
            {
                "start_time": 25.743181818181817,
                "end_time": 25.893181818181816,
                "pitch": 45,
                "velocity": 101,
                "duration": 0.14999999999999858,
                "tempo": 120.0
            },
            {
                "start_time": 25.945454545454545,
                "end_time": 25.995454545454542,
                "pitch": 45,
                "velocity": 101,
                "duration": 0.04999999999999716,
                "tempo": 120.0
            },
            {
                "start_time": 26.047727272727272,
                "end_time": 26.097727272727273,
                "pitch": 57,
                "velocity": 80,
                "duration": 0.05000000000000071,
                "tempo": 120.0
            },
            {
                "start_time": 26.152272727272727,
                "end_time": 26.297727272727272,
                "pitch": 45,
                "velocity": 101,
                "duration": 0.14545454545454461,
                "tempo": 120.0
            },
            {
                "start_time": 26.347727272727273,
                "end_time": 26.395454545454545,
                "pitch": 45,
                "velocity": 101,
                "duration": 0.04772727272727195,
                "tempo": 120.0
            },
            {
                "start_time": 26.445454545454545,
                "end_time": 26.493181818181817,
                "pitch": 57,
                "velocity": 80,
                "duration": 0.04772727272727195,
                "tempo": 120.0
            },
            {
                "start_time": 26.545454545454543,
                "end_time": 26.693181818181817,
                "pitch": 45,
                "velocity": 101,
                "duration": 0.14772727272727337,
                "tempo": 120.0
            },
            {
                "start_time": 26.743181818181817,
                "end_time": 26.793181818181818,
                "pitch": 45,
                "velocity": 101,
                "duration": 0.05000000000000071,
                "tempo": 120.0
            },
            {
                "start_time": 26.845454545454544,
                "end_time": 26.893181818181816,
                "pitch": 57,
                "velocity": 80,
                "duration": 0.04772727272727195,
                "tempo": 120.0
            },
            {
                "start_time": 26.945454545454545,
                "end_time": 27.093181818181815,
                "pitch": 45,
                "velocity": 101,
                "duration": 0.14772727272726982,
                "tempo": 120.0
            },
            {
                "start_time": 27.145454545454545,
                "end_time": 27.193181818181817,
                "pitch": 45,
                "velocity": 101,
                "duration": 0.04772727272727195,
                "tempo": 120.0
            },
            {
                "start_time": 27.245454545454542,
                "end_time": 27.293181818181818,
                "pitch": 57,
                "velocity": 80,
                "duration": 0.047727272727275505,
                "tempo": 120.0
            },
            {
                "start_time": 27.347727272727273,
                "end_time": 27.49772727272727,
                "pitch": 45,
                "velocity": 101,
                "duration": 0.14999999999999858,
                "tempo": 120.0
            },
            {
                "start_time": 27.549999999999997,
                "end_time": 27.599999999999998,
                "pitch": 45,
                "velocity": 101,
                "duration": 0.05000000000000071,
                "tempo": 120.0
            },
            {
                "start_time": 27.654545454545453,
                "end_time": 27.702272727272724,
                "pitch": 57,
                "velocity": 80,
                "duration": 0.04772727272727195,
                "tempo": 120.0
            },
            {
                "start_time": 27.75681818181818,
                "end_time": 27.902272727272727,
                "pitch": 45,
                "velocity": 101,
                "duration": 0.14545454545454817,
                "tempo": 120.0
            },
            {
                "start_time": 27.952272727272724,
                "end_time": 28.0,
                "pitch": 45,
                "velocity": 101,
                "duration": 0.047727272727275505,
                "tempo": 120.0
            },
            {
                "start_time": 28.049999999999997,
                "end_time": 28.097727272727273,
                "pitch": 57,
                "velocity": 80,
                "duration": 0.047727272727275505,
                "tempo": 120.0
            },
            {
                "start_time": 28.15,
                "end_time": 28.299999999999997,
                "pitch": 45,
                "velocity": 101,
                "duration": 0.14999999999999858,
                "tempo": 120.0
            },
            {
                "start_time": 28.354545454545452,
                "end_time": 28.404545454545453,
                "pitch": 45,
                "velocity": 101,
                "duration": 0.05000000000000071,
                "tempo": 120.0
            },
            {
                "start_time": 28.456818181818182,
                "end_time": 28.50681818181818,
                "pitch": 57,
                "velocity": 80,
                "duration": 0.04999999999999716,
                "tempo": 120.0
            },
            {
                "start_time": 28.55909090909091,
                "end_time": 28.704545454545453,
                "pitch": 45,
                "velocity": 101,
                "duration": 0.14545454545454461,
                "tempo": 120.0
            },
            {
                "start_time": 28.75681818181818,
                "end_time": 28.804545454545455,
                "pitch": 45,
                "velocity": 101,
                "duration": 0.047727272727275505,
                "tempo": 120.0
            },
            {
                "start_time": 28.854545454545452,
                "end_time": 28.902272727272727,
                "pitch": 57,
                "velocity": 80,
                "duration": 0.047727272727275505,
                "tempo": 120.0
            },
            {
                "start_time": 28.956818181818182,
                "end_time": 29.002272727272725,
                "pitch": 40,
                "velocity": 127,
                "duration": 0.045454545454543194,
                "tempo": 120.0
            },
            {
                "start_time": 29.054545454545455,
                "end_time": 29.104545454545452,
                "pitch": 40,
                "velocity": 101,
                "duration": 0.04999999999999716,
                "tempo": 120.0
            },
            {
                "start_time": 29.15681818181818,
                "end_time": 29.206818181818182,
                "pitch": 52,
                "velocity": 101,
                "duration": 0.05000000000000071,
                "tempo": 120.0
            },
            {
                "start_time": 29.261363636363637,
                "end_time": 29.311363636363634,
                "pitch": 40,
                "velocity": 101,
                "duration": 0.04999999999999716,
                "tempo": 120.0
            },
            {
                "start_time": 29.363636363636363,
                "end_time": 29.411363636363635,
                "pitch": 40,
                "velocity": 127,
                "duration": 0.04772727272727195,
                "tempo": 120.0
            },
            {
                "start_time": 29.461363636363636,
                "end_time": 29.509090909090908,
                "pitch": 52,
                "velocity": 101,
                "duration": 0.04772727272727195,
                "tempo": 120.0
            },
            {
                "start_time": 29.55909090909091,
                "end_time": 29.60681818181818,
                "pitch": 40,
                "velocity": 101,
                "duration": 0.04772727272727195,
                "tempo": 120.0
            },
            {
                "start_time": 29.65681818181818,
                "end_time": 29.704545454545453,
                "pitch": 40,
                "velocity": 101,
                "duration": 0.04772727272727195,
                "tempo": 120.0
            },
            {
                "start_time": 29.75681818181818,
                "end_time": 29.804545454545455,
                "pitch": 40,
                "velocity": 127,
                "duration": 0.047727272727275505,
                "tempo": 120.0
            },
            {
                "start_time": 29.85909090909091,
                "end_time": 29.909090909090907,
                "pitch": 40,
                "velocity": 101,
                "duration": 0.04999999999999716,
                "tempo": 120.0
            },
            {
                "start_time": 29.961363636363636,
                "end_time": 30.011363636363633,
                "pitch": 52,
                "velocity": 101,
                "duration": 0.04999999999999716,
                "tempo": 120.0
            },
            {
                "start_time": 30.063636363636363,
                "end_time": 30.113636363636363,
                "pitch": 40,
                "velocity": 101,
                "duration": 0.05000000000000071,
                "tempo": 120.0
            },
            {
                "start_time": 30.16590909090909,
                "end_time": 30.21590909090909,
                "pitch": 40,
                "velocity": 127,
                "duration": 0.05000000000000071,
                "tempo": 120.0
            },
            {
                "start_time": 30.26590909090909,
                "end_time": 30.315909090909088,
                "pitch": 52,
                "velocity": 101,
                "duration": 0.04999999999999716,
                "tempo": 120.0
            },
            {
                "start_time": 30.36590909090909,
                "end_time": 30.41590909090909,
                "pitch": 40,
                "velocity": 101,
                "duration": 0.05000000000000071,
                "tempo": 120.0
            },
            {
                "start_time": 30.46590909090909,
                "end_time": 30.51590909090909,
                "pitch": 40,
                "velocity": 101,
                "duration": 0.05000000000000071,
                "tempo": 120.0
            },
            {
                "start_time": 30.568181818181817,
                "end_time": 30.61590909090909,
                "pitch": 40,
                "velocity": 127,
                "duration": 0.04772727272727195,
                "tempo": 120.0
            },
            {
                "start_time": 30.668181818181818,
                "end_time": 30.718181818181815,
                "pitch": 40,
                "velocity": 101,
                "duration": 0.04999999999999716,
                "tempo": 120.0
            },
            {
                "start_time": 30.768181818181816,
                "end_time": 30.818181818181817,
                "pitch": 52,
                "velocity": 101,
                "duration": 0.05000000000000071,
                "tempo": 120.0
            },
            {
                "start_time": 30.870454545454542,
                "end_time": 30.918181818181818,
                "pitch": 40,
                "velocity": 101,
                "duration": 0.047727272727275505,
                "tempo": 120.0
            },
            {
                "start_time": 30.970454545454544,
                "end_time": 31.020454545454545,
                "pitch": 40,
                "velocity": 127,
                "duration": 0.05000000000000071,
                "tempo": 120.0
            },
            {
                "start_time": 31.070454545454545,
                "end_time": 31.120454545454542,
                "pitch": 52,
                "velocity": 101,
                "duration": 0.04999999999999716,
                "tempo": 120.0
            },
            {
                "start_time": 31.170454545454543,
                "end_time": 31.220454545454544,
                "pitch": 40,
                "velocity": 101,
                "duration": 0.05000000000000071,
                "tempo": 120.0
            },
            {
                "start_time": 31.270454545454545,
                "end_time": 31.320454545454545,
                "pitch": 40,
                "velocity": 101,
                "duration": 0.05000000000000071,
                "tempo": 120.0
            },
            {
                "start_time": 31.37272727272727,
                "end_time": 31.420454545454543,
                "pitch": 40,
                "velocity": 127,
                "duration": 0.04772727272727195,
                "tempo": 120.0
            },
            {
                "start_time": 31.472727272727273,
                "end_time": 31.520454545454545,
                "pitch": 40,
                "velocity": 101,
                "duration": 0.04772727272727195,
                "tempo": 120.0
            },
            {
                "start_time": 31.57272727272727,
                "end_time": 31.620454545454542,
                "pitch": 52,
                "velocity": 101,
                "duration": 0.04772727272727195,
                "tempo": 120.0
            },
            {
                "start_time": 31.672727272727272,
                "end_time": 31.720454545454544,
                "pitch": 40,
                "velocity": 101,
                "duration": 0.04772727272727195,
                "tempo": 120.0
            },
            {
                "start_time": 31.770454545454545,
                "end_time": 31.820454545454545,
                "pitch": 40,
                "velocity": 127,
                "duration": 0.05000000000000071,
                "tempo": 120.0
            },
            {
                "start_time": 31.87272727272727,
                "end_time": 31.922727272727272,
                "pitch": 52,
                "velocity": 101,
                "duration": 0.05000000000000071,
                "tempo": 120.0
            },
            {
                "start_time": 31.972727272727273,
                "end_time": 32.02272727272727,
                "pitch": 40,
                "velocity": 101,
                "duration": 0.05000000000000071,
                "tempo": 120.0
            },
            {
                "start_time": 32.07272727272727,
                "end_time": 32.12272727272727,
                "pitch": 40,
                "velocity": 101,
                "duration": 0.04999999999999716,
                "tempo": 120.0
            },
            {
                "start_time": 32.17727272727272,
                "end_time": 32.324999999999996,
                "pitch": 45,
                "velocity": 101,
                "duration": 0.14772727272727337,
                "tempo": 120.0
            },
            {
                "start_time": 32.375,
                "end_time": 32.425,
                "pitch": 45,
                "velocity": 101,
                "duration": 0.04999999999999716,
                "tempo": 120.0
            },
            {
                "start_time": 32.47727272727273,
                "end_time": 32.525,
                "pitch": 57,
                "velocity": 80,
                "duration": 0.04772727272727195,
                "tempo": 120.0
            },
            {
                "start_time": 32.574999999999996,
                "end_time": 32.725,
                "pitch": 45,
                "velocity": 101,
                "duration": 0.15000000000000568,
                "tempo": 120.0
            },
            {
                "start_time": 32.775,
                "end_time": 32.824999999999996,
                "pitch": 45,
                "velocity": 101,
                "duration": 0.04999999999999716,
                "tempo": 120.0
            },
            {
                "start_time": 32.875,
                "end_time": 32.925,
                "pitch": 57,
                "velocity": 80,
                "duration": 0.04999999999999716,
                "tempo": 120.0
            },
            {
                "start_time": 32.975,
                "end_time": 33.125,
                "pitch": 45,
                "velocity": 101,
                "duration": 0.14999999999999858,
                "tempo": 120.0
            },
            {
                "start_time": 33.17727272727272,
                "end_time": 33.22727272727273,
                "pitch": 45,
                "velocity": 101,
                "duration": 0.05000000000000426,
                "tempo": 120.0
            },
            {
                "start_time": 33.277272727272724,
                "end_time": 33.32727272727273,
                "pitch": 57,
                "velocity": 80,
                "duration": 0.05000000000000426,
                "tempo": 120.0
            },
            {
                "start_time": 33.37954545454545,
                "end_time": 33.527272727272724,
                "pitch": 45,
                "velocity": 101,
                "duration": 0.14772727272727337,
                "tempo": 120.0
            },
            {
                "start_time": 33.57954545454545,
                "end_time": 33.627272727272725,
                "pitch": 45,
                "velocity": 101,
                "duration": 0.04772727272727195,
                "tempo": 120.0
            },
            {
                "start_time": 33.679545454545455,
                "end_time": 33.72954545454545,
                "pitch": 57,
                "velocity": 80,
                "duration": 0.04999999999999716,
                "tempo": 120.0
            },
            {
                "start_time": 33.78181818181818,
                "end_time": 33.929545454545455,
                "pitch": 45,
                "velocity": 101,
                "duration": 0.14772727272727337,
                "tempo": 120.0
            },
            {
                "start_time": 33.97954545454545,
                "end_time": 34.029545454545456,
                "pitch": 45,
                "velocity": 101,
                "duration": 0.05000000000000426,
                "tempo": 120.0
            },
            {
                "start_time": 34.08181818181818,
                "end_time": 34.12954545454545,
                "pitch": 57,
                "velocity": 80,
                "duration": 0.04772727272727195,
                "tempo": 120.0
            },
            {
                "start_time": 34.179545454545455,
                "end_time": 34.32954545454545,
                "pitch": 45,
                "velocity": 101,
                "duration": 0.14999999999999858,
                "tempo": 120.0
            },
            {
                "start_time": 34.37954545454545,
                "end_time": 34.429545454545455,
                "pitch": 45,
                "velocity": 101,
                "duration": 0.05000000000000426,
                "tempo": 120.0
            },
            {
                "start_time": 34.47954545454545,
                "end_time": 34.529545454545456,
                "pitch": 57,
                "velocity": 80,
                "duration": 0.05000000000000426,
                "tempo": 120.0
            },
            {
                "start_time": 34.58181818181818,
                "end_time": 34.72954545454545,
                "pitch": 45,
                "velocity": 101,
                "duration": 0.14772727272727337,
                "tempo": 120.0
            },
            {
                "start_time": 34.779545454545456,
                "end_time": 34.82954545454545,
                "pitch": 45,
                "velocity": 101,
                "duration": 0.04999999999999716,
                "tempo": 120.0
            },
            {
                "start_time": 34.88181818181818,
                "end_time": 34.929545454545455,
                "pitch": 57,
                "velocity": 80,
                "duration": 0.04772727272727195,
                "tempo": 120.0
            },
            {
                "start_time": 34.98181818181818,
                "end_time": 35.13181818181818,
                "pitch": 45,
                "velocity": 101,
                "duration": 0.15000000000000568,
                "tempo": 120.0
            },
            {
                "start_time": 35.18181818181818,
                "end_time": 35.23181818181818,
                "pitch": 45,
                "velocity": 101,
                "duration": 0.04999999999999716,
                "tempo": 120.0
            },
            {
                "start_time": 35.28409090909091,
                "end_time": 35.33181818181818,
                "pitch": 57,
                "velocity": 80,
                "duration": 0.04772727272727195,
                "tempo": 120.0
            },
            {
                "start_time": 35.38636363636363,
                "end_time": 35.434090909090905,
                "pitch": 40,
                "velocity": 127,
                "duration": 0.04772727272727195,
                "tempo": 120.0
            },
            {
                "start_time": 35.486363636363635,
                "end_time": 35.53636363636363,
                "pitch": 40,
                "velocity": 101,
                "duration": 0.04999999999999716,
                "tempo": 120.0
            },
            {
                "start_time": 35.58863636363636,
                "end_time": 35.64090909090909,
                "pitch": 52,
                "velocity": 101,
                "duration": 0.05227272727272947,
                "tempo": 120.0
            },
            {
                "start_time": 35.69318181818181,
                "end_time": 35.74318181818182,
                "pitch": 40,
                "velocity": 101,
                "duration": 0.05000000000000426,
                "tempo": 120.0
            },
            {
                "start_time": 35.79545454545455,
                "end_time": 35.84318181818182,
                "pitch": 40,
                "velocity": 127,
                "duration": 0.04772727272727195,
                "tempo": 120.0
            },
            {
                "start_time": 35.893181818181816,
                "end_time": 35.94090909090909,
                "pitch": 52,
                "velocity": 101,
                "duration": 0.04772727272727195,
                "tempo": 120.0
            },
            {
                "start_time": 35.99318181818182,
                "end_time": 36.04090909090909,
                "pitch": 40,
                "velocity": 101,
                "duration": 0.04772727272727195,
                "tempo": 120.0
            },
            {
                "start_time": 36.090909090909086,
                "end_time": 36.13863636363636,
                "pitch": 40,
                "velocity": 101,
                "duration": 0.04772727272727195,
                "tempo": 120.0
            },
            {
                "start_time": 36.18863636363636,
                "end_time": 36.23863636363636,
                "pitch": 40,
                "velocity": 127,
                "duration": 0.04999999999999716,
                "tempo": 120.0
            },
            {
                "start_time": 36.29090909090909,
                "end_time": 36.340909090909086,
                "pitch": 40,
                "velocity": 101,
                "duration": 0.04999999999999716,
                "tempo": 120.0
            },
            {
                "start_time": 36.393181818181816,
                "end_time": 36.44318181818181,
                "pitch": 52,
                "velocity": 101,
                "duration": 0.04999999999999716,
                "tempo": 120.0
            },
            {
                "start_time": 36.49772727272727,
                "end_time": 36.54772727272727,
                "pitch": 40,
                "velocity": 101,
                "duration": 0.05000000000000426,
                "tempo": 120.0
            },
            {
                "start_time": 36.6,
                "end_time": 36.64772727272727,
                "pitch": 40,
                "velocity": 127,
                "duration": 0.04772727272727195,
                "tempo": 120.0
            },
            {
                "start_time": 36.69772727272727,
                "end_time": 36.74545454545454,
                "pitch": 52,
                "velocity": 101,
                "duration": 0.04772727272727195,
                "tempo": 120.0
            },
            {
                "start_time": 36.79545454545455,
                "end_time": 36.84318181818182,
                "pitch": 40,
                "velocity": 101,
                "duration": 0.04772727272727195,
                "tempo": 120.0
            },
            {
                "start_time": 36.893181818181816,
                "end_time": 36.94090909090909,
                "pitch": 40,
                "velocity": 101,
                "duration": 0.04772727272727195,
                "tempo": 120.0
            },
            {
                "start_time": 36.99318181818182,
                "end_time": 37.04090909090909,
                "pitch": 40,
                "velocity": 127,
                "duration": 0.04772727272727195,
                "tempo": 120.0
            },
            {
                "start_time": 37.095454545454544,
                "end_time": 37.14545454545454,
                "pitch": 40,
                "velocity": 101,
                "duration": 0.04999999999999716,
                "tempo": 120.0
            },
            {
                "start_time": 37.19772727272727,
                "end_time": 37.24772727272727,
                "pitch": 52,
                "velocity": 101,
                "duration": 0.04999999999999716,
                "tempo": 120.0
            },
            {
                "start_time": 37.3,
                "end_time": 37.35,
                "pitch": 40,
                "velocity": 101,
                "duration": 0.05000000000000426,
                "tempo": 120.0
            },
            {
                "start_time": 37.402272727272724,
                "end_time": 37.45227272727273,
                "pitch": 40,
                "velocity": 127,
                "duration": 0.05000000000000426,
                "tempo": 120.0
            },
            {
                "start_time": 37.50454545454545,
                "end_time": 37.55227272727272,
                "pitch": 52,
                "velocity": 101,
                "duration": 0.04772727272727195,
                "tempo": 120.0
            },
            {
                "start_time": 37.60454545454545,
                "end_time": 37.652272727272724,
                "pitch": 40,
                "velocity": 101,
                "duration": 0.04772727272727195,
                "tempo": 120.0
            },
            {
                "start_time": 37.70454545454545,
                "end_time": 37.752272727272725,
                "pitch": 40,
                "velocity": 101,
                "duration": 0.04772727272727195,
                "tempo": 120.0
            },
            {
                "start_time": 37.804545454545455,
                "end_time": 37.85227272727273,
                "pitch": 40,
                "velocity": 127,
                "duration": 0.04772727272727195,
                "tempo": 120.0
            },
            {
                "start_time": 37.904545454545456,
                "end_time": 37.95227272727273,
                "pitch": 40,
                "velocity": 101,
                "duration": 0.04772727272727195,
                "tempo": 120.0
            },
            {
                "start_time": 38.00454545454545,
                "end_time": 38.05227272727272,
                "pitch": 52,
                "velocity": 101,
                "duration": 0.04772727272727195,
                "tempo": 120.0
            },
            {
                "start_time": 38.10454545454545,
                "end_time": 38.152272727272724,
                "pitch": 40,
                "velocity": 101,
                "duration": 0.04772727272727195,
                "tempo": 120.0
            },
            {
                "start_time": 38.20454545454545,
                "end_time": 38.252272727272725,
                "pitch": 40,
                "velocity": 127,
                "duration": 0.04772727272727195,
                "tempo": 120.0
            },
            {
                "start_time": 38.30227272727272,
                "end_time": 38.35,
                "pitch": 52,
                "velocity": 101,
                "duration": 0.04772727272727906,
                "tempo": 120.0
            },
            {
                "start_time": 38.4,
                "end_time": 38.44772727272727,
                "pitch": 40,
                "velocity": 101,
                "duration": 0.04772727272727195,
                "tempo": 120.0
            },
            {
                "start_time": 38.5,
                "end_time": 38.54772727272727,
                "pitch": 40,
                "velocity": 101,
                "duration": 0.04772727272727195,
                "tempo": 120.0
            },
            {
                "start_time": 38.59772727272727,
                "end_time": 38.75,
                "pitch": 45,
                "velocity": 101,
                "duration": 0.1522727272727309,
                "tempo": 120.0
            },
            {
                "start_time": 38.80227272727272,
                "end_time": 38.85227272727273,
                "pitch": 45,
                "velocity": 101,
                "duration": 0.05000000000000426,
                "tempo": 120.0
            },
            {
                "start_time": 38.90681818181818,
                "end_time": 38.95454545454545,
                "pitch": 57,
                "velocity": 80,
                "duration": 0.04772727272727195,
                "tempo": 120.0
            },
            {
                "start_time": 39.00909090909091,
                "end_time": 39.15681818181818,
                "pitch": 45,
                "velocity": 101,
                "duration": 0.14772727272727337,
                "tempo": 120.0
            },
            {
                "start_time": 39.209090909090904,
                "end_time": 39.25681818181818,
                "pitch": 45,
                "velocity": 101,
                "duration": 0.04772727272727906,
                "tempo": 120.0
            },
            {
                "start_time": 39.309090909090905,
                "end_time": 39.35681818181818,
                "pitch": 57,
                "velocity": 80,
                "duration": 0.04772727272727195,
                "tempo": 120.0
            },
            {
                "start_time": 39.40909090909091,
                "end_time": 39.55681818181818,
                "pitch": 45,
                "velocity": 101,
                "duration": 0.14772727272727337,
                "tempo": 120.0
            },
            {
                "start_time": 39.60909090909091,
                "end_time": 39.65909090909091,
                "pitch": 45,
                "velocity": 101,
                "duration": 0.04999999999999716,
                "tempo": 120.0
            },
            {
                "start_time": 39.709090909090904,
                "end_time": 39.75909090909091,
                "pitch": 57,
                "velocity": 80,
                "duration": 0.05000000000000426,
                "tempo": 120.0
            },
            {
                "start_time": 39.809090909090905,
                "end_time": 39.959090909090904,
                "pitch": 45,
                "velocity": 101,
                "duration": 0.14999999999999858,
                "tempo": 120.0
            },
            {
                "start_time": 40.00909090909091,
                "end_time": 40.059090909090905,
                "pitch": 45,
                "velocity": 101,
                "duration": 0.04999999999999716,
                "tempo": 120.0
            },
            {
                "start_time": 40.10909090909091,
                "end_time": 40.15909090909091,
                "pitch": 57,
                "velocity": 80,
                "duration": 0.04999999999999716,
                "tempo": 120.0
            },
            {
                "start_time": 40.211363636363636,
                "end_time": 40.35909090909091,
                "pitch": 45,
                "velocity": 101,
                "duration": 0.14772727272727337,
                "tempo": 120.0
            },
            {
                "start_time": 40.40909090909091,
                "end_time": 40.459090909090904,
                "pitch": 45,
                "velocity": 101,
                "duration": 0.04999999999999716,
                "tempo": 120.0
            },
            {
                "start_time": 40.51136363636363,
                "end_time": 40.559090909090905,
                "pitch": 57,
                "velocity": 80,
                "duration": 0.04772727272727195,
                "tempo": 120.0
            },
            {
                "start_time": 40.611363636363635,
                "end_time": 40.76136363636363,
                "pitch": 45,
                "velocity": 101,
                "duration": 0.14999999999999858,
                "tempo": 120.0
            },
            {
                "start_time": 40.81136363636364,
                "end_time": 40.861363636363635,
                "pitch": 45,
                "velocity": 101,
                "duration": 0.04999999999999716,
                "tempo": 120.0
            },
            {
                "start_time": 40.913636363636364,
                "end_time": 40.961363636363636,
                "pitch": 57,
                "velocity": 80,
                "duration": 0.04772727272727195,
                "tempo": 120.0
            },
            {
                "start_time": 41.01363636363636,
                "end_time": 41.163636363636364,
                "pitch": 45,
                "velocity": 101,
                "duration": 0.15000000000000568,
                "tempo": 120.0
            },
            {
                "start_time": 41.21363636363636,
                "end_time": 41.26363636363636,
                "pitch": 45,
                "velocity": 101,
                "duration": 0.04999999999999716,
                "tempo": 120.0
            },
            {
                "start_time": 41.31363636363636,
                "end_time": 41.36363636363636,
                "pitch": 57,
                "velocity": 80,
                "duration": 0.04999999999999716,
                "tempo": 120.0
            },
            {
                "start_time": 41.413636363636364,
                "end_time": 41.56363636363636,
                "pitch": 45,
                "velocity": 101,
                "duration": 0.14999999999999858,
                "tempo": 120.0
            },
            {
                "start_time": 41.61363636363636,
                "end_time": 41.663636363636364,
                "pitch": 45,
                "velocity": 101,
                "duration": 0.05000000000000426,
                "tempo": 120.0
            },
            {
                "start_time": 41.71363636363636,
                "end_time": 41.76363636363636,
                "pitch": 57,
                "velocity": 80,
                "duration": 0.04999999999999716,
                "tempo": 120.0
            },
            {
                "start_time": 41.81590909090909,
                "end_time": 41.86363636363636,
                "pitch": 43,
                "velocity": 101,
                "duration": 0.04772727272727195,
                "tempo": 120.0
            },
            {
                "start_time": 41.918181818181814,
                "end_time": 41.96818181818182,
                "pitch": 55,
                "velocity": 101,
                "duration": 0.05000000000000426,
                "tempo": 120.0
            },
            {
                "start_time": 42.02045454545454,
                "end_time": 42.070454545454545,
                "pitch": 43,
                "velocity": 101,
                "duration": 0.05000000000000426,
                "tempo": 120.0
            },
            {
                "start_time": 42.12272727272727,
                "end_time": 42.17272727272727,
                "pitch": 55,
                "velocity": 101,
                "duration": 0.05000000000000426,
                "tempo": 120.0
            },
            {
                "start_time": 42.22727272727273,
                "end_time": 42.275,
                "pitch": 43,
                "velocity": 101,
                "duration": 0.04772727272727195,
                "tempo": 120.0
            },
            {
                "start_time": 42.32727272727273,
                "end_time": 42.375,
                "pitch": 55,
                "velocity": 101,
                "duration": 0.04772727272727195,
                "tempo": 120.0
            },
            {
                "start_time": 42.42727272727272,
                "end_time": 42.47727272727273,
                "pitch": 43,
                "velocity": 101,
                "duration": 0.05000000000000426,
                "tempo": 120.0
            },
            {
                "start_time": 42.527272727272724,
                "end_time": 42.57727272727273,
                "pitch": 55,
                "velocity": 101,
                "duration": 0.05000000000000426,
                "tempo": 120.0
            },
            {
                "start_time": 42.62954545454545,
                "end_time": 42.67727272727272,
                "pitch": 43,
                "velocity": 101,
                "duration": 0.04772727272727195,
                "tempo": 120.0
            },
            {
                "start_time": 42.72727272727273,
                "end_time": 42.775,
                "pitch": 55,
                "velocity": 101,
                "duration": 0.04772727272727195,
                "tempo": 120.0
            },
            {
                "start_time": 42.82727272727273,
                "end_time": 42.87272727272727,
                "pitch": 43,
                "velocity": 101,
                "duration": 0.04545454545453964,
                "tempo": 120.0
            },
            {
                "start_time": 42.92272727272727,
                "end_time": 42.970454545454544,
                "pitch": 43,
                "velocity": 101,
                "duration": 0.04772727272727195,
                "tempo": 120.0
            },
            {
                "start_time": 43.02272727272727,
                "end_time": 43.07272727272727,
                "pitch": 43,
                "velocity": 101,
                "duration": 0.04999999999999716,
                "tempo": 120.0
            },
            {
                "start_time": 43.12272727272727,
                "end_time": 43.175,
                "pitch": 43,
                "velocity": 101,
                "duration": 0.05227272727272947,
                "tempo": 120.0
            },
            {
                "start_time": 43.22727272727273,
                "end_time": 43.277272727272724,
                "pitch": 43,
                "velocity": 101,
                "duration": 0.04999999999999716,
                "tempo": 120.0
            },
            {
                "start_time": 43.32954545454545,
                "end_time": 43.37954545454545,
                "pitch": 43,
                "velocity": 101,
                "duration": 0.04999999999999716,
                "tempo": 120.0
            },
            {
                "start_time": 43.434090909090905,
                "end_time": 43.48181818181818,
                "pitch": 45,
                "velocity": 101,
                "duration": 0.04772727272727195,
                "tempo": 120.0
            },
            {
                "start_time": 43.53181818181818,
                "end_time": 43.57954545454545,
                "pitch": 57,
                "velocity": 101,
                "duration": 0.04772727272727195,
                "tempo": 120.0
            },
            {
                "start_time": 43.62954545454545,
                "end_time": 43.67727272727272,
                "pitch": 45,
                "velocity": 101,
                "duration": 0.04772727272727195,
                "tempo": 120.0
            },
            {
                "start_time": 43.72727272727273,
                "end_time": 43.775,
                "pitch": 57,
                "velocity": 101,
                "duration": 0.04772727272727195,
                "tempo": 120.0
            },
            {
                "start_time": 43.82727272727273,
                "end_time": 43.875,
                "pitch": 45,
                "velocity": 101,
                "duration": 0.04772727272727195,
                "tempo": 120.0
            },
            {
                "start_time": 43.925,
                "end_time": 43.974999999999994,
                "pitch": 57,
                "velocity": 101,
                "duration": 0.04999999999999716,
                "tempo": 120.0
            },
            {
                "start_time": 44.025,
                "end_time": 44.074999999999996,
                "pitch": 45,
                "velocity": 101,
                "duration": 0.04999999999999716,
                "tempo": 120.0
            },
            {
                "start_time": 44.125,
                "end_time": 44.175,
                "pitch": 57,
                "velocity": 101,
                "duration": 0.04999999999999716,
                "tempo": 120.0
            },
            {
                "start_time": 44.224999999999994,
                "end_time": 44.275,
                "pitch": 45,
                "velocity": 101,
                "duration": 0.05000000000000426,
                "tempo": 120.0
            },
            {
                "start_time": 44.324999999999996,
                "end_time": 44.375,
                "pitch": 57,
                "velocity": 101,
                "duration": 0.05000000000000426,
                "tempo": 120.0
            },
            {
                "start_time": 44.42727272727272,
                "end_time": 44.474999999999994,
                "pitch": 45,
                "velocity": 101,
                "duration": 0.04772727272727195,
                "tempo": 120.0
            },
            {
                "start_time": 44.525,
                "end_time": 44.574999999999996,
                "pitch": 45,
                "velocity": 101,
                "duration": 0.04999999999999716,
                "tempo": 120.0
            },
            {
                "start_time": 44.625,
                "end_time": 44.67727272727272,
                "pitch": 45,
                "velocity": 101,
                "duration": 0.052272727272722364,
                "tempo": 120.0
            },
            {
                "start_time": 44.72954545454545,
                "end_time": 44.77954545454545,
                "pitch": 45,
                "velocity": 101,
                "duration": 0.04999999999999716,
                "tempo": 120.0
            },
            {
                "start_time": 44.83181818181818,
                "end_time": 44.88181818181818,
                "pitch": 45,
                "velocity": 101,
                "duration": 0.05000000000000426,
                "tempo": 120.0
            },
            {
                "start_time": 44.934090909090905,
                "end_time": 44.986363636363635,
                "pitch": 45,
                "velocity": 101,
                "duration": 0.05227272727272947,
                "tempo": 120.0
            },
            {
                "start_time": 45.038636363636364,
                "end_time": 45.086363636363636,
                "pitch": 43,
                "velocity": 101,
                "duration": 0.04772727272727195,
                "tempo": 120.0
            },
            {
                "start_time": 45.13636363636363,
                "end_time": 45.184090909090905,
                "pitch": 55,
                "velocity": 101,
                "duration": 0.04772727272727195,
                "tempo": 120.0
            },
            {
                "start_time": 45.23409090909091,
                "end_time": 45.28181818181818,
                "pitch": 43,
                "velocity": 101,
                "duration": 0.04772727272727195,
                "tempo": 120.0
            },
            {
                "start_time": 45.33181818181818,
                "end_time": 45.37954545454545,
                "pitch": 55,
                "velocity": 101,
                "duration": 0.04772727272727195,
                "tempo": 120.0
            },
            {
                "start_time": 45.43181818181818,
                "end_time": 45.47954545454545,
                "pitch": 43,
                "velocity": 101,
                "duration": 0.04772727272727195,
                "tempo": 120.0
            },
            {
                "start_time": 45.52954545454545,
                "end_time": 45.57954545454545,
                "pitch": 55,
                "velocity": 101,
                "duration": 0.05000000000000426,
                "tempo": 120.0
            },
            {
                "start_time": 45.62954545454545,
                "end_time": 45.679545454545455,
                "pitch": 43,
                "velocity": 101,
                "duration": 0.05000000000000426,
                "tempo": 120.0
            },
            {
                "start_time": 45.72954545454545,
                "end_time": 45.77954545454545,
                "pitch": 55,
                "velocity": 101,
                "duration": 0.04999999999999716,
                "tempo": 120.0
            },
            {
                "start_time": 45.83181818181818,
                "end_time": 45.87954545454545,
                "pitch": 43,
                "velocity": 101,
                "duration": 0.04772727272727195,
                "tempo": 120.0
            },
            {
                "start_time": 45.929545454545455,
                "end_time": 45.97954545454545,
                "pitch": 55,
                "velocity": 101,
                "duration": 0.04999999999999716,
                "tempo": 120.0
            },
            {
                "start_time": 46.03181818181818,
                "end_time": 46.07954545454545,
                "pitch": 43,
                "velocity": 101,
                "duration": 0.04772727272727195,
                "tempo": 120.0
            },
            {
                "start_time": 46.13181818181818,
                "end_time": 46.179545454545455,
                "pitch": 43,
                "velocity": 101,
                "duration": 0.04772727272727195,
                "tempo": 120.0
            },
            {
                "start_time": 46.23181818181818,
                "end_time": 46.27954545454545,
                "pitch": 43,
                "velocity": 101,
                "duration": 0.04772727272727195,
                "tempo": 120.0
            },
            {
                "start_time": 46.33181818181818,
                "end_time": 46.37954545454545,
                "pitch": 43,
                "velocity": 101,
                "duration": 0.04772727272727195,
                "tempo": 120.0
            },
            {
                "start_time": 46.43181818181818,
                "end_time": 46.48181818181818,
                "pitch": 43,
                "velocity": 101,
                "duration": 0.04999999999999716,
                "tempo": 120.0
            },
            {
                "start_time": 46.53181818181818,
                "end_time": 46.58181818181818,
                "pitch": 43,
                "velocity": 101,
                "duration": 0.04999999999999716,
                "tempo": 120.0
            },
            {
                "start_time": 46.63181818181818,
                "end_time": 46.68181818181818,
                "pitch": 45,
                "velocity": 101,
                "duration": 0.04999999999999716,
                "tempo": 120.0
            },
            {
                "start_time": 46.73409090909091,
                "end_time": 46.78409090909091,
                "pitch": 57,
                "velocity": 101,
                "duration": 0.04999999999999716,
                "tempo": 120.0
            },
            {
                "start_time": 46.83863636363636,
                "end_time": 46.88863636363636,
                "pitch": 45,
                "velocity": 101,
                "duration": 0.04999999999999716,
                "tempo": 120.0
            },
            {
                "start_time": 46.94090909090909,
                "end_time": 46.99090909090909,
                "pitch": 57,
                "velocity": 101,
                "duration": 0.05000000000000426,
                "tempo": 120.0
            },
            {
                "start_time": 47.043181818181814,
                "end_time": 47.090909090909086,
                "pitch": 45,
                "velocity": 101,
                "duration": 0.04772727272727195,
                "tempo": 120.0
            },
            {
                "start_time": 47.14090909090909,
                "end_time": 47.18863636363636,
                "pitch": 57,
                "velocity": 101,
                "duration": 0.04772727272727195,
                "tempo": 120.0
            },
            {
                "start_time": 47.23863636363636,
                "end_time": 47.28636363636363,
                "pitch": 45,
                "velocity": 101,
                "duration": 0.04772727272727195,
                "tempo": 120.0
            },
            {
                "start_time": 47.336363636363636,
                "end_time": 47.38636363636363,
                "pitch": 57,
                "velocity": 101,
                "duration": 0.04999999999999716,
                "tempo": 120.0
            },
            {
                "start_time": 47.43636363636364,
                "end_time": 47.48409090909091,
                "pitch": 45,
                "velocity": 101,
                "duration": 0.04772727272727195,
                "tempo": 120.0
            },
            {
                "start_time": 47.53636363636363,
                "end_time": 47.584090909090904,
                "pitch": 57,
                "velocity": 101,
                "duration": 0.04772727272727195,
                "tempo": 120.0
            },
            {
                "start_time": 47.63636363636363,
                "end_time": 47.684090909090905,
                "pitch": 45,
                "velocity": 101,
                "duration": 0.04772727272727195,
                "tempo": 120.0
            },
            {
                "start_time": 47.736363636363635,
                "end_time": 47.78409090909091,
                "pitch": 45,
                "velocity": 101,
                "duration": 0.04772727272727195,
                "tempo": 120.0
            },
            {
                "start_time": 47.836363636363636,
                "end_time": 47.88636363636363,
                "pitch": 45,
                "velocity": 101,
                "duration": 0.04999999999999716,
                "tempo": 120.0
            },
            {
                "start_time": 47.93636363636364,
                "end_time": 47.986363636363635,
                "pitch": 45,
                "velocity": 101,
                "duration": 0.04999999999999716,
                "tempo": 120.0
            },
            {
                "start_time": 48.03636363636363,
                "end_time": 48.086363636363636,
                "pitch": 45,
                "velocity": 101,
                "duration": 0.05000000000000426,
                "tempo": 120.0
            },
            {
                "start_time": 48.13636363636363,
                "end_time": 48.18636363636364,
                "pitch": 45,
                "velocity": 101,
                "duration": 0.05000000000000426,
                "tempo": 120.0
            },
            {
                "start_time": 48.23863636363636,
                "end_time": 48.28636363636363,
                "pitch": 41,
                "velocity": 101,
                "duration": 0.04772727272727195,
                "tempo": 120.0
            },
            {
                "start_time": 48.336363636363636,
                "end_time": 48.38636363636363,
                "pitch": 53,
                "velocity": 101,
                "duration": 0.04999999999999716,
                "tempo": 120.0
            },
            {
                "start_time": 48.43863636363636,
                "end_time": 48.486363636363635,
                "pitch": 41,
                "velocity": 101,
                "duration": 0.04772727272727195,
                "tempo": 120.0
            },
            {
                "start_time": 48.53636363636363,
                "end_time": 48.586363636363636,
                "pitch": 53,
                "velocity": 101,
                "duration": 0.05000000000000426,
                "tempo": 120.0
            },
            {
                "start_time": 48.63863636363636,
                "end_time": 48.68636363636364,
                "pitch": 41,
                "velocity": 101,
                "duration": 0.04772727272727906,
                "tempo": 120.0
            },
            {
                "start_time": 48.73863636363636,
                "end_time": 48.788636363636364,
                "pitch": 53,
                "velocity": 101,
                "duration": 0.05000000000000426,
                "tempo": 120.0
            },
            {
                "start_time": 48.83863636363636,
                "end_time": 48.88863636363636,
                "pitch": 41,
                "velocity": 101,
                "duration": 0.04999999999999716,
                "tempo": 120.0
            },
            {
                "start_time": 48.93863636363636,
                "end_time": 48.98863636363636,
                "pitch": 53,
                "velocity": 101,
                "duration": 0.04999999999999716,
                "tempo": 120.0
            },
            {
                "start_time": 49.04090909090909,
                "end_time": 49.08863636363636,
                "pitch": 41,
                "velocity": 101,
                "duration": 0.04772727272727195,
                "tempo": 120.0
            },
            {
                "start_time": 49.14090909090909,
                "end_time": 49.18863636363636,
                "pitch": 53,
                "velocity": 101,
                "duration": 0.04772727272727195,
                "tempo": 120.0
            },
            {
                "start_time": 49.240909090909085,
                "end_time": 49.29090909090909,
                "pitch": 41,
                "velocity": 101,
                "duration": 0.05000000000000426,
                "tempo": 120.0
            },
            {
                "start_time": 49.340909090909086,
                "end_time": 49.39090909090909,
                "pitch": 41,
                "velocity": 101,
                "duration": 0.05000000000000426,
                "tempo": 120.0
            },
            {
                "start_time": 49.44090909090909,
                "end_time": 49.490909090909085,
                "pitch": 41,
                "velocity": 101,
                "duration": 0.04999999999999716,
                "tempo": 120.0
            },
            {
                "start_time": 49.543181818181814,
                "end_time": 49.59318181818182,
                "pitch": 41,
                "velocity": 101,
                "duration": 0.05000000000000426,
                "tempo": 120.0
            },
            {
                "start_time": 49.64545454545454,
                "end_time": 49.69772727272727,
                "pitch": 41,
                "velocity": 101,
                "duration": 0.05227272727272947,
                "tempo": 120.0
            },
            {
                "start_time": 49.75,
                "end_time": 49.8,
                "pitch": 41,
                "velocity": 101,
                "duration": 0.04999999999999716,
                "tempo": 120.0
            },
            {
                "start_time": 49.85454545454545,
                "end_time": 49.902272727272724,
                "pitch": 48,
                "velocity": 101,
                "duration": 0.04772727272727195,
                "tempo": 120.0
            },
            {
                "start_time": 49.95227272727273,
                "end_time": 50.002272727272725,
                "pitch": 60,
                "velocity": 101,
                "duration": 0.04999999999999716,
                "tempo": 120.0
            },
            {
                "start_time": 50.054545454545455,
                "end_time": 50.10227272727273,
                "pitch": 48,
                "velocity": 101,
                "duration": 0.04772727272727195,
                "tempo": 120.0
            },
            {
                "start_time": 50.152272727272724,
                "end_time": 50.20227272727273,
                "pitch": 60,
                "velocity": 101,
                "duration": 0.05000000000000426,
                "tempo": 120.0
            },
            {
                "start_time": 50.25454545454545,
                "end_time": 50.30227272727272,
                "pitch": 48,
                "velocity": 101,
                "duration": 0.04772727272727195,
                "tempo": 120.0
            },
            {
                "start_time": 50.35454545454545,
                "end_time": 50.402272727272724,
                "pitch": 60,
                "velocity": 101,
                "duration": 0.04772727272727195,
                "tempo": 120.0
            },
            {
                "start_time": 50.45454545454545,
                "end_time": 50.50454545454545,
                "pitch": 48,
                "velocity": 101,
                "duration": 0.04999999999999716,
                "tempo": 120.0
            },
            {
                "start_time": 50.554545454545455,
                "end_time": 50.60454545454545,
                "pitch": 60,
                "velocity": 101,
                "duration": 0.04999999999999716,
                "tempo": 120.0
            },
            {
                "start_time": 50.65681818181818,
                "end_time": 50.70454545454545,
                "pitch": 48,
                "velocity": 101,
                "duration": 0.04772727272727195,
                "tempo": 120.0
            },
            {
                "start_time": 50.75681818181818,
                "end_time": 50.804545454545455,
                "pitch": 60,
                "velocity": 101,
                "duration": 0.04772727272727195,
                "tempo": 120.0
            },
            {
                "start_time": 50.85681818181818,
                "end_time": 50.90454545454545,
                "pitch": 48,
                "velocity": 101,
                "duration": 0.04772727272727195,
                "tempo": 120.0
            },
            {
                "start_time": 50.95681818181818,
                "end_time": 51.00454545454545,
                "pitch": 48,
                "velocity": 101,
                "duration": 0.04772727272727195,
                "tempo": 120.0
            },
            {
                "start_time": 51.05681818181818,
                "end_time": 51.10681818181818,
                "pitch": 48,
                "velocity": 101,
                "duration": 0.04999999999999716,
                "tempo": 120.0
            },
            {
                "start_time": 51.15681818181818,
                "end_time": 51.20681818181818,
                "pitch": 48,
                "velocity": 101,
                "duration": 0.04999999999999716,
                "tempo": 120.0
            },
            {
                "start_time": 51.25681818181818,
                "end_time": 51.30681818181818,
                "pitch": 48,
                "velocity": 101,
                "duration": 0.04999999999999716,
                "tempo": 120.0
            },
            {
                "start_time": 51.35681818181818,
                "end_time": 51.40681818181818,
                "pitch": 48,
                "velocity": 101,
                "duration": 0.05000000000000426,
                "tempo": 120.0
            },
            {
                "start_time": 51.459090909090904,
                "end_time": 51.71363636363636,
                "pitch": 47,
                "velocity": 127,
                "duration": 0.2545454545454575,
                "tempo": 120.0
            },
            {
                "start_time": 51.76590909090909,
                "end_time": 52.01363636363636,
                "pitch": 45,
                "velocity": 127,
                "duration": 0.2477272727272677,
                "tempo": 120.0
            },
            {
                "start_time": 52.06590909090909,
                "end_time": 52.31136363636363,
                "pitch": 43,
                "velocity": 127,
                "duration": 0.24545454545454248,
                "tempo": 120.0
            },
            {
                "start_time": 52.36363636363636,
                "end_time": 52.62045454545454,
                "pitch": 41,
                "velocity": 127,
                "duration": 0.2568181818181827,
                "tempo": 120.0
            },
            {
                "start_time": 52.67272727272727,
                "end_time": 52.92272727272727,
                "pitch": 40,
                "velocity": 127,
                "duration": 0.25,
                "tempo": 120.0
            },
            {
                "start_time": 52.97272727272727,
                "end_time": 53.02272727272727,
                "pitch": 40,
                "velocity": 127,
                "duration": 0.05000000000000426,
                "tempo": 120.0
            },
            {
                "start_time": 53.07272727272727,
                "end_time": 53.42272727272727,
                "pitch": 40,
                "velocity": 64,
                "duration": 0.3500000000000014,
                "tempo": 120.0
            },
            {
                "start_time": 53.47272727272727,
                "end_time": 53.52272727272727,
                "pitch": 40,
                "velocity": 40,
                "duration": 0.05000000000000426,
                "tempo": 120.0
            },
            {
                "start_time": 53.574999999999996,
                "end_time": 53.62272727272727,
                "pitch": 40,
                "velocity": 51,
                "duration": 0.04772727272727195,
                "tempo": 120.0
            },
            {
                "start_time": 53.675,
                "end_time": 53.724999999999994,
                "pitch": 40,
                "velocity": 64,
                "duration": 0.04999999999999716,
                "tempo": 120.0
            },
            {
                "start_time": 53.777272727272724,
                "end_time": 53.824999999999996,
                "pitch": 40,
                "velocity": 80,
                "duration": 0.04772727272727195,
                "tempo": 120.0
            },
            {
                "start_time": 53.877272727272725,
                "end_time": 53.925,
                "pitch": 40,
                "velocity": 101,
                "duration": 0.04772727272727195,
                "tempo": 120.0
            },
            {
                "start_time": 53.97727272727273,
                "end_time": 54.025,
                "pitch": 40,
                "velocity": 127,
                "duration": 0.04772727272727195,
                "tempo": 120.0
            },
            {
                "start_time": 54.07727272727273,
                "end_time": 54.125,
                "pitch": 40,
                "velocity": 127,
                "duration": 0.04772727272727195,
                "tempo": 120.0
            },
            {
                "start_time": 54.17727272727272,
                "end_time": 54.224999999999994,
                "pitch": 52,
                "velocity": 127,
                "duration": 0.04772727272727195,
                "tempo": 120.0
            },
            {
                "start_time": 54.277272727272724,
                "end_time": 54.32727272727273,
                "pitch": 40,
                "velocity": 127,
                "duration": 0.05000000000000426,
                "tempo": 120.0
            },
            {
                "start_time": 54.377272727272725,
                "end_time": 54.42727272727272,
                "pitch": 52,
                "velocity": 127,
                "duration": 0.04999999999999716,
                "tempo": 120.0
            },
            {
                "start_time": 54.47727272727273,
                "end_time": 54.527272727272724,
                "pitch": 40,
                "velocity": 127,
                "duration": 0.04999999999999716,
                "tempo": 120.0
            },
            {
                "start_time": 54.57727272727273,
                "end_time": 54.627272727272725,
                "pitch": 52,
                "velocity": 127,
                "duration": 0.04999999999999716,
                "tempo": 120.0
            },
            {
                "start_time": 54.68181818181818,
                "end_time": 54.72727272727273,
                "pitch": 45,
                "velocity": 127,
                "duration": 0.045454545454546746,
                "tempo": 120.0
            }
        ],
        "Vibraphone": [
            {
                "start_time": 22.527272727272727,
                "end_time": 22.627272727272725,
                "pitch": 69,
                "velocity": 127,
                "duration": 0.09999999999999787,
                "tempo": 120.0
            },
            {
                "start_time": 22.627272727272725,
                "end_time": 22.727272727272727,
                "pitch": 69,
                "velocity": 127,
                "duration": 0.10000000000000142,
                "tempo": 120.0
            },
            {
                "start_time": 22.727272727272727,
                "end_time": 22.84318181818182,
                "pitch": 72,
                "velocity": 127,
                "duration": 0.11590909090909207,
                "tempo": 120.0
            },
            {
                "start_time": 22.927272727272726,
                "end_time": 23.043181818181818,
                "pitch": 71,
                "velocity": 127,
                "duration": 0.11590909090909207,
                "tempo": 120.0
            },
            {
                "start_time": 23.127272727272725,
                "end_time": 23.227272727272727,
                "pitch": 74,
                "velocity": 127,
                "duration": 0.10000000000000142,
                "tempo": 120.0
            },
            {
                "start_time": 23.227272727272727,
                "end_time": 23.427272727272726,
                "pitch": 69,
                "velocity": 127,
                "duration": 0.1999999999999993,
                "tempo": 120.0
            },
            {
                "start_time": 23.427272727272726,
                "end_time": 23.529545454545453,
                "pitch": 69,
                "velocity": 127,
                "duration": 0.10227272727272663,
                "tempo": 120.0
            },
            {
                "start_time": 22.727272727272727,
                "end_time": 23.529545454545453,
                "pitch": 76,
                "velocity": 127,
                "duration": 0.8022727272727259,
                "tempo": 120.0
            },
            {
                "start_time": 23.529545454545453,
                "end_time": 23.645454545454545,
                "pitch": 72,
                "velocity": 127,
                "duration": 0.11590909090909207,
                "tempo": 120.0
            },
            {
                "start_time": 23.73181818181818,
                "end_time": 23.847727272727273,
                "pitch": 71,
                "velocity": 127,
                "duration": 0.11590909090909207,
                "tempo": 120.0
            },
            {
                "start_time": 23.93181818181818,
                "end_time": 24.047727272727272,
                "pitch": 74,
                "velocity": 127,
                "duration": 0.11590909090909207,
                "tempo": 120.0
            },
            {
                "start_time": 25.74090909090909,
                "end_time": 25.788636363636364,
                "pitch": 69,
                "velocity": 127,
                "duration": 0.047727272727275505,
                "tempo": 120.0
            },
            {
                "start_time": 25.80681818181818,
                "end_time": 25.85681818181818,
                "pitch": 69,
                "velocity": 127,
                "duration": 0.05000000000000071,
                "tempo": 120.0
            },
            {
                "start_time": 25.875,
                "end_time": 25.927272727272726,
                "pitch": 69,
                "velocity": 127,
                "duration": 0.052272727272725916,
                "tempo": 120.0
            },
            {
                "start_time": 25.945454545454545,
                "end_time": 26.047727272727272,
                "pitch": 72,
                "velocity": 127,
                "duration": 0.10227272727272663,
                "tempo": 120.0
            },
            {
                "start_time": 26.047727272727272,
                "end_time": 26.24772727272727,
                "pitch": 71,
                "velocity": 127,
                "duration": 0.1999999999999993,
                "tempo": 120.0
            },
            {
                "start_time": 26.24772727272727,
                "end_time": 26.345454545454544,
                "pitch": 71,
                "velocity": 127,
                "duration": 0.09772727272727266,
                "tempo": 120.0
            },
            {
                "start_time": 26.345454545454544,
                "end_time": 26.445454545454545,
                "pitch": 74,
                "velocity": 127,
                "duration": 0.10000000000000142,
                "tempo": 120.0
            },
            {
                "start_time": 23.227272727272727,
                "end_time": 26.543181818181818,
                "pitch": 43,
                "velocity": 127,
                "duration": 3.3159090909090914,
                "tempo": 120.0
            },
            {
                "start_time": 26.445454545454545,
                "end_time": 26.543181818181818,
                "pitch": 74,
                "velocity": 127,
                "duration": 0.09772727272727266,
                "tempo": 120.0
            },
            {
                "start_time": 26.543181818181818,
                "end_time": 26.643181818181816,
                "pitch": 69,
                "velocity": 127,
                "duration": 0.09999999999999787,
                "tempo": 120.0
            },
            {
                "start_time": 23.529545454545453,
                "end_time": 26.643181818181816,
                "pitch": 76,
                "velocity": 127,
                "duration": 3.1136363636363633,
                "tempo": 120.0
            },
            {
                "start_time": 26.047727272727272,
                "end_time": 26.843181818181815,
                "pitch": 56,
                "velocity": 127,
                "duration": 0.7954545454545432,
                "tempo": 120.0
            },
            {
                "start_time": 26.643181818181816,
                "end_time": 26.843181818181815,
                "pitch": 72,
                "velocity": 127,
                "duration": 0.1999999999999993,
                "tempo": 120.0
            },
            {
                "start_time": 26.843181818181815,
                "end_time": 27.043181818181818,
                "pitch": 71,
                "velocity": 127,
                "duration": 0.20000000000000284,
                "tempo": 120.0
            },
            {
                "start_time": 27.043181818181818,
                "end_time": 27.143181818181816,
                "pitch": 71,
                "velocity": 127,
                "duration": 0.09999999999999787,
                "tempo": 120.0
            },
            {
                "start_time": 26.345454545454544,
                "end_time": 27.143181818181816,
                "pitch": 77,
                "velocity": 127,
                "duration": 0.797727272727272,
                "tempo": 120.0
            },
            {
                "start_time": 27.143181818181816,
                "end_time": 27.243181818181817,
                "pitch": 74,
                "velocity": 127,
                "duration": 0.10000000000000142,
                "tempo": 120.0
            }
        ],
        "Trumpet": [
            {
                "start_time": 0.00909090909090909,
                "end_time": 0.09772727272727272,
                "pitch": 57,
                "velocity": 80,
                "duration": 0.08863636363636362,
                "tempo": 120.0
            },
            {
                "start_time": 0.09772727272727272,
                "end_time": 0.19999999999999998,
                "pitch": 56,
                "velocity": 80,
                "duration": 0.10227272727272727,
                "tempo": 120.0
            },
            {
                "start_time": 0.19999999999999998,
                "end_time": 0.3,
                "pitch": 57,
                "velocity": 80,
                "duration": 0.1,
                "tempo": 120.0
            },
            {
                "start_time": 0.3,
                "end_time": 0.39999999999999997,
                "pitch": 59,
                "velocity": 80,
                "duration": 0.09999999999999998,
                "tempo": 120.0
            },
            {
                "start_time": 0.3,
                "end_time": 0.39999999999999997,
                "pitch": 59,
                "velocity": 80,
                "duration": 0.09999999999999998,
                "tempo": 120.0
            },
            {
                "start_time": 0.39999999999999997,
                "end_time": 0.4977272727272727,
                "pitch": 60,
                "velocity": 80,
                "duration": 0.09772727272727272,
                "tempo": 120.0
            },
            {
                "start_time": 0.4977272727272727,
                "end_time": 0.5954545454545455,
                "pitch": 59,
                "velocity": 80,
                "duration": 0.09772727272727277,
                "tempo": 120.0
            },
            {
                "start_time": 0.39999999999999997,
                "end_time": 0.5954545454545455,
                "pitch": 64,
                "velocity": 80,
                "duration": 0.1954545454545455,
                "tempo": 120.0
            },
            {
                "start_time": 0.5954545454545455,
                "end_time": 0.6931818181818181,
                "pitch": 60,
                "velocity": 80,
                "duration": 0.09772727272727266,
                "tempo": 120.0
            },
            {
                "start_time": 0.6954545454545454,
                "end_time": 0.7931818181818181,
                "pitch": 62,
                "velocity": 80,
                "duration": 0.09772727272727266,
                "tempo": 120.0
            },
            {
                "start_time": 0.5954545454545455,
                "end_time": 0.7931818181818181,
                "pitch": 64,
                "velocity": 80,
                "duration": 0.19772727272727264,
                "tempo": 120.0
            },
            {
                "start_time": 0.7931818181818181,
                "end_time": 0.8909090909090909,
                "pitch": 64,
                "velocity": 80,
                "duration": 0.09772727272727277,
                "tempo": 120.0
            },
            {
                "start_time": 0.7931818181818181,
                "end_time": 0.8909090909090909,
                "pitch": 64,
                "velocity": 80,
                "duration": 0.09772727272727277,
                "tempo": 120.0
            },
            {
                "start_time": 0.8909090909090909,
                "end_time": 0.9931818181818182,
                "pitch": 62,
                "velocity": 80,
                "duration": 0.10227272727272729,
                "tempo": 120.0
            },
            {
                "start_time": 0.8909090909090909,
                "end_time": 0.9931818181818182,
                "pitch": 62,
                "velocity": 80,
                "duration": 0.10227272727272729,
                "tempo": 120.0
            },
            {
                "start_time": 0.9931818181818182,
                "end_time": 1.093181818181818,
                "pitch": 64,
                "velocity": 80,
                "duration": 0.09999999999999987,
                "tempo": 120.0
            },
            {
                "start_time": 0.9931818181818182,
                "end_time": 1.093181818181818,
                "pitch": 64,
                "velocity": 80,
                "duration": 0.09999999999999987,
                "tempo": 120.0
            },
            {
                "start_time": 1.093181818181818,
                "end_time": 1.1931818181818181,
                "pitch": 65,
                "velocity": 80,
                "duration": 0.10000000000000009,
                "tempo": 120.0
            },
            {
                "start_time": 1.1931818181818181,
                "end_time": 1.2909090909090908,
                "pitch": 64,
                "velocity": 80,
                "duration": 0.09772727272727266,
                "tempo": 120.0
            },
            {
                "start_time": 1.2909090909090908,
                "end_time": 1.393181818181818,
                "pitch": 62,
                "velocity": 80,
                "duration": 0.10227272727272729,
                "tempo": 120.0
            },
            {
                "start_time": 1.2909090909090908,
                "end_time": 1.393181818181818,
                "pitch": 62,
                "velocity": 80,
                "duration": 0.10227272727272729,
                "tempo": 120.0
            },
            {
                "start_time": 0.4977272727272727,
                "end_time": 1.4931818181818182,
                "pitch": 44,
                "velocity": 80,
                "duration": 0.9954545454545455,
                "tempo": 120.0
            },
            {
                "start_time": 1.393181818181818,
                "end_time": 1.4931818181818182,
                "pitch": 60,
                "velocity": 80,
                "duration": 0.10000000000000009,
                "tempo": 120.0
            },
            {
                "start_time": 1.4931818181818182,
                "end_time": 1.5954545454545455,
                "pitch": 59,
                "velocity": 80,
                "duration": 0.10227272727272729,
                "tempo": 120.0
            },
            {
                "start_time": 1.5954545454545455,
                "end_time": 1.6931818181818181,
                "pitch": 57,
                "velocity": 80,
                "duration": 0.09772727272727266,
                "tempo": 120.0
            },
            {
                "start_time": 1.5954545454545455,
                "end_time": 1.6931818181818181,
                "pitch": 57,
                "velocity": 80,
                "duration": 0.09772727272727266,
                "tempo": 120.0
            },
            {
                "start_time": 1.6931818181818181,
                "end_time": 1.7954545454545454,
                "pitch": 56,
                "velocity": 80,
                "duration": 0.10227272727272729,
                "tempo": 120.0
            },
            {
                "start_time": 1.7954545454545454,
                "end_time": 1.8954545454545453,
                "pitch": 57,
                "velocity": 80,
                "duration": 0.09999999999999987,
                "tempo": 120.0
            },
            {
                "start_time": 1.8954545454545453,
                "end_time": 1.9977272727272726,
                "pitch": 59,
                "velocity": 80,
                "duration": 0.10227272727272729,
                "tempo": 120.0
            },
            {
                "start_time": 1.8954545454545453,
                "end_time": 1.9977272727272726,
                "pitch": 59,
                "velocity": 80,
                "duration": 0.10227272727272729,
                "tempo": 120.0
            },
            {
                "start_time": 1.4931818181818182,
                "end_time": 2.0954545454545452,
                "pitch": 44,
                "velocity": 80,
                "duration": 0.6022727272727271,
                "tempo": 120.0
            },
            {
                "start_time": 1.9977272727272726,
                "end_time": 2.0954545454545452,
                "pitch": 60,
                "velocity": 80,
                "duration": 0.09772727272727266,
                "tempo": 120.0
            },
            {
                "start_time": 2.0954545454545452,
                "end_time": 2.1954545454545453,
                "pitch": 59,
                "velocity": 80,
                "duration": 0.10000000000000009,
                "tempo": 120.0
            },
            {
                "start_time": 1.9977272727272726,
                "end_time": 2.1977272727272728,
                "pitch": 64,
                "velocity": 80,
                "duration": 0.20000000000000018,
                "tempo": 120.0
            },
            {
                "start_time": 2.1954545454545453,
                "end_time": 2.1977272727272728,
                "pitch": 64,
                "velocity": 80,
                "duration": 0.002272727272727426,
                "tempo": 120.0
            },
            {
                "start_time": 2.1977272727272728,
                "end_time": 2.2977272727272724,
                "pitch": 60,
                "velocity": 80,
                "duration": 0.09999999999999964,
                "tempo": 120.0
            },
            {
                "start_time": 2.2977272727272724,
                "end_time": 2.3977272727272725,
                "pitch": 62,
                "velocity": 80,
                "duration": 0.10000000000000009,
                "tempo": 120.0
            },
            {
                "start_time": 2.3977272727272725,
                "end_time": 2.495454545454545,
                "pitch": 64,
                "velocity": 80,
                "duration": 0.09772727272727266,
                "tempo": 120.0
            },
            {
                "start_time": 2.3977272727272725,
                "end_time": 2.495454545454545,
                "pitch": 64,
                "velocity": 80,
                "duration": 0.09772727272727266,
                "tempo": 120.0
            },
            {
                "start_time": 2.495454545454545,
                "end_time": 2.5977272727272727,
                "pitch": 62,
                "velocity": 80,
                "duration": 0.10227272727272751,
                "tempo": 120.0
            },
            {
                "start_time": 2.495454545454545,
                "end_time": 2.5977272727272727,
                "pitch": 62,
                "velocity": 80,
                "duration": 0.10227272727272751,
                "tempo": 120.0
            },
            {
                "start_time": 2.5977272727272727,
                "end_time": 2.6977272727272728,
                "pitch": 64,
                "velocity": 80,
                "duration": 0.10000000000000009,
                "tempo": 120.0
            },
            {
                "start_time": 2.5977272727272727,
                "end_time": 2.6977272727272728,
                "pitch": 64,
                "velocity": 80,
                "duration": 0.10000000000000009,
                "tempo": 120.0
            },
            {
                "start_time": 2.6977272727272728,
                "end_time": 2.7977272727272724,
                "pitch": 65,
                "velocity": 80,
                "duration": 0.09999999999999964,
                "tempo": 120.0
            },
            {
                "start_time": 2.7977272727272724,
                "end_time": 2.8977272727272725,
                "pitch": 64,
                "velocity": 80,
                "duration": 0.10000000000000009,
                "tempo": 120.0
            },
            {
                "start_time": 2.8977272727272725,
                "end_time": 2.9977272727272726,
                "pitch": 62,
                "velocity": 80,
                "duration": 0.10000000000000009,
                "tempo": 120.0
            },
            {
                "start_time": 2.8977272727272725,
                "end_time": 2.9977272727272726,
                "pitch": 62,
                "velocity": 80,
                "duration": 0.10000000000000009,
                "tempo": 120.0
            },
            {
                "start_time": 2.0954545454545452,
                "end_time": 3.0977272727272727,
                "pitch": 44,
                "velocity": 80,
                "duration": 1.0022727272727274,
                "tempo": 120.0
            },
            {
                "start_time": 2.9977272727272726,
                "end_time": 3.0977272727272727,
                "pitch": 60,
                "velocity": 80,
                "duration": 0.10000000000000009,
                "tempo": 120.0
            },
            {
                "start_time": 3.0977272727272727,
                "end_time": 3.2136363636363634,
                "pitch": 59,
                "velocity": 80,
                "duration": 0.11590909090909074,
                "tempo": 120.0
            },
            {
                "start_time": 3.2477272727272726,
                "end_time": 3.3499999999999996,
                "pitch": 57,
                "velocity": 80,
                "duration": 0.10227272727272707,
                "tempo": 120.0
            },
            {
                "start_time": 3.3499999999999996,
                "end_time": 3.452272727272727,
                "pitch": 57,
                "velocity": 80,
                "duration": 0.10227272727272751,
                "tempo": 120.0
            },
            {
                "start_time": 3.452272727272727,
                "end_time": 3.4545454545454546,
                "pitch": 64,
                "velocity": 80,
                "duration": 0.002272727272727426,
                "tempo": 120.0
            },
            {
                "start_time": 3.4545454545454546,
                "end_time": 3.5727272727272728,
                "pitch": 60,
                "velocity": 80,
                "duration": 0.11818181818181817,
                "tempo": 120.0
            },
            {
                "start_time": 3.6590909090909087,
                "end_time": 3.775,
                "pitch": 59,
                "velocity": 80,
                "duration": 0.11590909090909118,
                "tempo": 120.0
            },
            {
                "start_time": 3.859090909090909,
                "end_time": 3.959090909090909,
                "pitch": 62,
                "velocity": 80,
                "duration": 0.10000000000000009,
                "tempo": 120.0
            },
            {
                "start_time": 3.959090909090909,
                "end_time": 4.154545454545454,
                "pitch": 57,
                "velocity": 80,
                "duration": 0.19545454545454533,
                "tempo": 120.0
            },
            {
                "start_time": 4.154545454545454,
                "end_time": 4.254545454545454,
                "pitch": 57,
                "velocity": 80,
                "duration": 0.09999999999999964,
                "tempo": 120.0
            },
            {
                "start_time": 4.254545454545454,
                "end_time": 4.368181818181818,
                "pitch": 60,
                "velocity": 80,
                "duration": 0.1136363636363642,
                "tempo": 120.0
            },
            {
                "start_time": 4.452272727272727,
                "end_time": 4.570454545454545,
                "pitch": 59,
                "velocity": 80,
                "duration": 0.11818181818181817,
                "tempo": 120.0
            },
            {
                "start_time": 4.659090909090909,
                "end_time": 4.777272727272727,
                "pitch": 62,
                "velocity": 80,
                "duration": 0.11818181818181817,
                "tempo": 120.0
            },
            {
                "start_time": 4.861363636363636,
                "end_time": 4.963636363636363,
                "pitch": 57,
                "velocity": 80,
                "duration": 0.10227272727272663,
                "tempo": 120.0
            },
            {
                "start_time": 4.963636363636363,
                "end_time": 5.0636363636363635,
                "pitch": 57,
                "velocity": 80,
                "duration": 0.10000000000000053,
                "tempo": 120.0
            },
            {
                "start_time": 4.254545454545454,
                "end_time": 5.0636363636363635,
                "pitch": 64,
                "velocity": 80,
                "duration": 0.8090909090909095,
                "tempo": 120.0
            },
            {
                "start_time": 5.0636363636363635,
                "end_time": 5.179545454545455,
                "pitch": 60,
                "velocity": 80,
                "duration": 0.11590909090909118,
                "tempo": 120.0
            },
            {
                "start_time": 5.263636363636364,
                "end_time": 5.379545454545454,
                "pitch": 59,
                "velocity": 80,
                "duration": 0.1159090909090903,
                "tempo": 120.0
            },
            {
                "start_time": 5.465909090909091,
                "end_time": 5.5659090909090905,
                "pitch": 62,
                "velocity": 80,
                "duration": 0.09999999999999964,
                "tempo": 120.0
            },
            {
                "start_time": 3.0977272727272727,
                "end_time": 6.170454545454545,
                "pitch": 44,
                "velocity": 80,
                "duration": 3.0727272727272723,
                "tempo": 120.0
            },
            {
                "start_time": 5.5659090909090905,
                "end_time": 6.170454545454545,
                "pitch": 60,
                "velocity": 80,
                "duration": 0.6045454545454545,
                "tempo": 120.0
            },
            {
                "start_time": 6.170454545454545,
                "end_time": 6.2704545454545455,
                "pitch": 59,
                "velocity": 80,
                "duration": 0.10000000000000053,
                "tempo": 120.0
            },
            {
                "start_time": 6.2704545454545455,
                "end_time": 6.470454545454545,
                "pitch": 55,
                "velocity": 80,
                "duration": 0.1999999999999993,
                "tempo": 120.0
            },
            {
                "start_time": 6.2704545454545455,
                "end_time": 6.470454545454545,
                "pitch": 55,
                "velocity": 80,
                "duration": 0.1999999999999993,
                "tempo": 120.0
            },
            {
                "start_time": 6.470454545454545,
                "end_time": 6.570454545454545,
                "pitch": 57,
                "velocity": 80,
                "duration": 0.10000000000000053,
                "tempo": 120.0
            },
            {
                "start_time": 6.470454545454545,
                "end_time": 6.570454545454545,
                "pitch": 57,
                "velocity": 80,
                "duration": 0.10000000000000053,
                "tempo": 120.0
            },
            {
                "start_time": 6.570454545454545,
                "end_time": 6.672727272727273,
                "pitch": 57,
                "velocity": 80,
                "duration": 0.10227272727272751,
                "tempo": 120.0
            },
            {
                "start_time": 5.0636363636363635,
                "end_time": 6.672727272727273,
                "pitch": 64,
                "velocity": 80,
                "duration": 1.6090909090909093,
                "tempo": 120.0
            },
            {
                "start_time": 6.672727272727273,
                "end_time": 6.788636363636363,
                "pitch": 60,
                "velocity": 80,
                "duration": 0.1159090909090903,
                "tempo": 120.0
            },
            {
                "start_time": 6.872727272727272,
                "end_time": 6.988636363636363,
                "pitch": 59,
                "velocity": 80,
                "duration": 0.11590909090909118,
                "tempo": 120.0
            },
            {
                "start_time": 3.959090909090909,
                "end_time": 7.172727272727272,
                "pitch": 31,
                "velocity": 80,
                "duration": 3.213636363636363,
                "tempo": 120.0
            },
            {
                "start_time": 7.072727272727272,
                "end_time": 7.172727272727272,
                "pitch": 62,
                "velocity": 80,
                "duration": 0.09999999999999964,
                "tempo": 120.0
            },
            {
                "start_time": 7.172727272727272,
                "end_time": 7.375,
                "pitch": 57,
                "velocity": 80,
                "duration": 0.20227272727272805,
                "tempo": 120.0
            },
            {
                "start_time": 7.375,
                "end_time": 7.475,
                "pitch": 57,
                "velocity": 80,
                "duration": 0.09999999999999964,
                "tempo": 120.0
            },
            {
                "start_time": 6.672727272727273,
                "end_time": 7.475,
                "pitch": 64,
                "velocity": 80,
                "duration": 0.8022727272727268,
                "tempo": 120.0
            },
            {
                "start_time": 7.475,
                "end_time": 7.593181818181818,
                "pitch": 60,
                "velocity": 80,
                "duration": 0.11818181818181817,
                "tempo": 120.0
            },
            {
                "start_time": 7.677272727272727,
                "end_time": 7.793181818181818,
                "pitch": 59,
                "velocity": 80,
                "duration": 0.11590909090909118,
                "tempo": 120.0
            },
            {
                "start_time": 7.879545454545454,
                "end_time": 7.995454545454545,
                "pitch": 62,
                "velocity": 80,
                "duration": 0.11590909090909118,
                "tempo": 120.0
            },
            {
                "start_time": 8.079545454545455,
                "end_time": 8.179545454545455,
                "pitch": 57,
                "velocity": 80,
                "duration": 0.09999999999999964,
                "tempo": 120.0
            },
            {
                "start_time": 8.179545454545455,
                "end_time": 8.279545454545454,
                "pitch": 57,
                "velocity": 80,
                "duration": 0.09999999999999964,
                "tempo": 120.0
            },
            {
                "start_time": 7.475,
                "end_time": 8.279545454545454,
                "pitch": 64,
                "velocity": 80,
                "duration": 0.8045454545454547,
                "tempo": 120.0
            },
            {
                "start_time": 8.279545454545454,
                "end_time": 8.395454545454545,
                "pitch": 60,
                "velocity": 80,
                "duration": 0.1159090909090903,
                "tempo": 120.0
            },
            {
                "start_time": 8.48181818181818,
                "end_time": 8.597727272727273,
                "pitch": 59,
                "velocity": 80,
                "duration": 0.11590909090909207,
                "tempo": 120.0
            },
            {
                "start_time": 8.681818181818182,
                "end_time": 8.784090909090908,
                "pitch": 62,
                "velocity": 80,
                "duration": 0.10227272727272663,
                "tempo": 120.0
            },
            {
                "start_time": 8.784090909090908,
                "end_time": 9.645454545454545,
                "pitch": 60,
                "velocity": 80,
                "duration": 0.8613636363636363,
                "tempo": 120.0
            },
            {
                "start_time": 9.645454545454545,
                "end_time": 9.95,
                "pitch": 55,
                "velocity": 80,
                "duration": 0.3045454545454547,
                "tempo": 120.0
            },
            {
                "start_time": 9.95,
                "end_time": 10.445454545454545,
                "pitch": 53,
                "velocity": 80,
                "duration": 0.49545454545454604,
                "tempo": 120.0
            },
            {
                "start_time": 10.445454545454545,
                "end_time": 10.754545454545454,
                "pitch": 57,
                "velocity": 80,
                "duration": 0.30909090909090864,
                "tempo": 120.0
            },
            {
                "start_time": 10.754545454545454,
                "end_time": 11.25,
                "pitch": 55,
                "velocity": 80,
                "duration": 0.49545454545454604,
                "tempo": 120.0
            },
            {
                "start_time": 11.25,
                "end_time": 11.559090909090909,
                "pitch": 59,
                "velocity": 80,
                "duration": 0.30909090909090864,
                "tempo": 120.0
            },
            {
                "start_time": 11.25,
                "end_time": 11.559090909090909,
                "pitch": 59,
                "velocity": 80,
                "duration": 0.30909090909090864,
                "tempo": 120.0
            },
            {
                "start_time": 11.559090909090909,
                "end_time": 12.054545454545455,
                "pitch": 57,
                "velocity": 80,
                "duration": 0.49545454545454604,
                "tempo": 120.0
            },
            {
                "start_time": 11.559090909090909,
                "end_time": 12.054545454545455,
                "pitch": 57,
                "velocity": 80,
                "duration": 0.49545454545454604,
                "tempo": 120.0
            },
            {
                "start_time": 8.279545454545454,
                "end_time": 12.054545454545455,
                "pitch": 64,
                "velocity": 80,
                "duration": 3.7750000000000004,
                "tempo": 120.0
            },
            {
                "start_time": 6.170454545454545,
                "end_time": 12.361363636363636,
                "pitch": 44,
                "velocity": 80,
                "duration": 6.190909090909091,
                "tempo": 120.0
            },
            {
                "start_time": 12.054545454545455,
                "end_time": 12.361363636363636,
                "pitch": 60,
                "velocity": 80,
                "duration": 0.30681818181818166,
                "tempo": 120.0
            },
            {
                "start_time": 12.361363636363636,
                "end_time": 12.665909090909091,
                "pitch": 59,
                "velocity": 80,
                "duration": 0.3045454545454547,
                "tempo": 120.0
            },
            {
                "start_time": 12.665909090909091,
                "end_time": 12.868181818181817,
                "pitch": 59,
                "velocity": 80,
                "duration": 0.20227272727272627,
                "tempo": 120.0
            },
            {
                "start_time": 12.868181818181817,
                "end_time": 13.170454545454545,
                "pitch": 57,
                "velocity": 80,
                "duration": 0.3022727272727277,
                "tempo": 120.0
            },
            {
                "start_time": 12.868181818181817,
                "end_time": 13.170454545454545,
                "pitch": 57,
                "velocity": 80,
                "duration": 0.3022727272727277,
                "tempo": 120.0
            },
            {
                "start_time": 13.170454545454545,
                "end_time": 14.477272727272727,
                "pitch": 55,
                "velocity": 80,
                "duration": 1.3068181818181817,
                "tempo": 120.0
            },
            {
                "start_time": 9.95,
                "end_time": 14.477272727272727,
                "pitch": 66,
                "velocity": 80,
                "duration": 4.527272727272727,
                "tempo": 120.0
            },
            {
                "start_time": 14.479545454545454,
                "end_time": 14.781818181818181,
                "pitch": 53,
                "velocity": 80,
                "duration": 0.3022727272727277,
                "tempo": 120.0
            },
            {
                "start_time": 14.781818181818181,
                "end_time": 16.08863636363636,
                "pitch": 52,
                "velocity": 80,
                "duration": 1.3068181818181799,
                "tempo": 120.0
            },
            {
                "start_time": 16.08863636363636,
                "end_time": 16.39090909090909,
                "pitch": 67,
                "velocity": 80,
                "duration": 0.30227272727272947,
                "tempo": 120.0
            },
            {
                "start_time": 7.172727272727272,
                "end_time": 16.895454545454545,
                "pitch": 31,
                "velocity": 80,
                "duration": 9.722727272727273,
                "tempo": 120.0
            },
            {
                "start_time": 16.39090909090909,
                "end_time": 16.895454545454545,
                "pitch": 65,
                "velocity": 80,
                "duration": 0.504545454545454,
                "tempo": 120.0
            },
            {
                "start_time": 16.895454545454545,
                "end_time": 17.195454545454545,
                "pitch": 69,
                "velocity": 80,
                "duration": 0.3000000000000007,
                "tempo": 120.0
            },
            {
                "start_time": 17.195454545454545,
                "end_time": 17.695454545454545,
                "pitch": 67,
                "velocity": 80,
                "duration": 0.5,
                "tempo": 120.0
            },
            {
                "start_time": 17.695454545454545,
                "end_time": 18.004545454545454,
                "pitch": 67,
                "velocity": 80,
                "duration": 0.30909090909090864,
                "tempo": 120.0
            },
            {
                "start_time": 16.39090909090909,
                "end_time": 18.004545454545454,
                "pitch": 78,
                "velocity": 80,
                "duration": 1.6136363636363633,
                "tempo": 120.0
            },
            {
                "start_time": 16.895454545454545,
                "end_time": 18.5,
                "pitch": 31,
                "velocity": 80,
                "duration": 1.6045454545454554,
                "tempo": 120.0
            },
            {
                "start_time": 18.004545454545454,
                "end_time": 18.5,
                "pitch": 65,
                "velocity": 80,
                "duration": 0.49545454545454604,
                "tempo": 120.0
            },
            {
                "start_time": 18.5,
                "end_time": 18.80681818181818,
                "pitch": 69,
                "velocity": 80,
                "duration": 0.3068181818181799,
                "tempo": 120.0
            },
            {
                "start_time": 18.80681818181818,
                "end_time": 19.10681818181818,
                "pitch": 67,
                "velocity": 80,
                "duration": 0.3000000000000007,
                "tempo": 120.0
            },
            {
                "start_time": 19.10681818181818,
                "end_time": 19.304545454545455,
                "pitch": 67,
                "velocity": 80,
                "duration": 0.19772727272727408,
                "tempo": 120.0
            },
            {
                "start_time": 18.004545454545454,
                "end_time": 19.304545454545455,
                "pitch": 78,
                "velocity": 80,
                "duration": 1.3000000000000007,
                "tempo": 120.0
            },
            {
                "start_time": 19.304545454545455,
                "end_time": 19.611363636363635,
                "pitch": 65,
                "velocity": 80,
                "duration": 0.3068181818181799,
                "tempo": 120.0
            },
            {
                "start_time": 12.054545454545455,
                "end_time": 20.911363636363635,
                "pitch": 64,
                "velocity": 80,
                "duration": 8.85681818181818,
                "tempo": 120.0
            },
            {
                "start_time": 19.611363636363635,
                "end_time": 20.911363636363635,
                "pitch": 64,
                "velocity": 80,
                "duration": 1.3000000000000007,
                "tempo": 120.0
            },
            {
                "start_time": 20.911363636363635,
                "end_time": 21.220454545454544,
                "pitch": 62,
                "velocity": 80,
                "duration": 0.30909090909090864,
                "tempo": 120.0
            },
            {
                "start_time": 20.911363636363635,
                "end_time": 21.220454545454544,
                "pitch": 62,
                "velocity": 80,
                "duration": 0.30909090909090864,
                "tempo": 120.0
            },
            {
                "start_time": 18.5,
                "end_time": 22.53181818181818,
                "pitch": 31,
                "velocity": 80,
                "duration": 4.031818181818181,
                "tempo": 120.0
            },
            {
                "start_time": 21.220454545454544,
                "end_time": 22.53181818181818,
                "pitch": 60,
                "velocity": 80,
                "duration": 1.3113636363636374,
                "tempo": 120.0
            },
            {
                "start_time": 21.220454545454544,
                "end_time": 22.53181818181818,
                "pitch": 60,
                "velocity": 80,
                "duration": 1.3113636363636374,
                "tempo": 120.0
            },
            {
                "start_time": 22.53181818181818,
                "end_time": 22.627272727272725,
                "pitch": 57,
                "velocity": 80,
                "duration": 0.0954545454545439,
                "tempo": 120.0
            },
            {
                "start_time": 22.627272727272725,
                "end_time": 22.729545454545452,
                "pitch": 57,
                "velocity": 80,
                "duration": 0.10227272727272663,
                "tempo": 120.0
            },
            {
                "start_time": 22.729545454545452,
                "end_time": 22.84318181818182,
                "pitch": 60,
                "velocity": 80,
                "duration": 0.11363636363636687,
                "tempo": 120.0
            },
            {
                "start_time": 22.929545454545455,
                "end_time": 23.043181818181818,
                "pitch": 59,
                "velocity": 80,
                "duration": 0.11363636363636331,
                "tempo": 120.0
            },
            {
                "start_time": 22.53181818181818,
                "end_time": 23.229545454545452,
                "pitch": 31,
                "velocity": 80,
                "duration": 0.6977272727272705,
                "tempo": 120.0
            },
            {
                "start_time": 23.129545454545454,
                "end_time": 23.229545454545452,
                "pitch": 62,
                "velocity": 80,
                "duration": 0.09999999999999787,
                "tempo": 120.0
            },
            {
                "start_time": 23.229545454545452,
                "end_time": 23.429545454545455,
                "pitch": 57,
                "velocity": 80,
                "duration": 0.20000000000000284,
                "tempo": 120.0
            },
            {
                "start_time": 23.429545454545455,
                "end_time": 23.53181818181818,
                "pitch": 57,
                "velocity": 80,
                "duration": 0.10227272727272663,
                "tempo": 120.0
            },
            {
                "start_time": 22.729545454545452,
                "end_time": 23.53181818181818,
                "pitch": 64,
                "velocity": 80,
                "duration": 0.8022727272727295,
                "tempo": 120.0
            },
            {
                "start_time": 23.53181818181818,
                "end_time": 23.64772727272727,
                "pitch": 60,
                "velocity": 80,
                "duration": 0.11590909090908852,
                "tempo": 120.0
            },
            {
                "start_time": 23.73409090909091,
                "end_time": 23.847727272727273,
                "pitch": 59,
                "velocity": 80,
                "duration": 0.11363636363636331,
                "tempo": 120.0
            },
            {
                "start_time": 23.93409090909091,
                "end_time": 24.047727272727272,
                "pitch": 62,
                "velocity": 80,
                "duration": 0.11363636363636331,
                "tempo": 120.0
            },
            {
                "start_time": 24.136363636363637,
                "end_time": 24.23409090909091,
                "pitch": 57,
                "velocity": 80,
                "duration": 0.09772727272727266,
                "tempo": 120.0
            },
            {
                "start_time": 24.23409090909091,
                "end_time": 24.334090909090907,
                "pitch": 57,
                "velocity": 80,
                "duration": 0.09999999999999787,
                "tempo": 120.0
            },
            {
                "start_time": 23.53181818181818,
                "end_time": 24.334090909090907,
                "pitch": 64,
                "velocity": 80,
                "duration": 0.8022727272727259,
                "tempo": 120.0
            },
            {
                "start_time": 24.334090909090907,
                "end_time": 24.45,
                "pitch": 60,
                "velocity": 80,
                "duration": 0.11590909090909207,
                "tempo": 120.0
            },
            {
                "start_time": 24.536363636363635,
                "end_time": 24.652272727272727,
                "pitch": 59,
                "velocity": 80,
                "duration": 0.11590909090909207,
                "tempo": 120.0
            },
            {
                "start_time": 23.229545454545452,
                "end_time": 24.836363636363636,
                "pitch": 31,
                "velocity": 80,
                "duration": 1.6068181818181841,
                "tempo": 120.0
            },
            {
                "start_time": 24.736363636363635,
                "end_time": 24.836363636363636,
                "pitch": 62,
                "velocity": 80,
                "duration": 0.10000000000000142,
                "tempo": 120.0
            },
            {
                "start_time": 24.836363636363636,
                "end_time": 25.036363636363635,
                "pitch": 57,
                "velocity": 80,
                "duration": 0.1999999999999993,
                "tempo": 120.0
            },
            {
                "start_time": 25.036363636363635,
                "end_time": 25.136363636363637,
                "pitch": 57,
                "velocity": 80,
                "duration": 0.10000000000000142,
                "tempo": 120.0
            },
            {
                "start_time": 24.334090909090907,
                "end_time": 25.136363636363637,
                "pitch": 64,
                "velocity": 80,
                "duration": 0.8022727272727295,
                "tempo": 120.0
            },
            {
                "start_time": 25.136363636363637,
                "end_time": 25.252272727272725,
                "pitch": 60,
                "velocity": 80,
                "duration": 0.11590909090908852,
                "tempo": 120.0
            },
            {
                "start_time": 25.33863636363636,
                "end_time": 25.452272727272724,
                "pitch": 59,
                "velocity": 80,
                "duration": 0.11363636363636331,
                "tempo": 120.0
            },
            {
                "start_time": 25.538636363636364,
                "end_time": 25.654545454545453,
                "pitch": 62,
                "velocity": 80,
                "duration": 0.11590909090908852,
                "tempo": 120.0
            },
            {
                "start_time": 25.745454545454542,
                "end_time": 25.79090909090909,
                "pitch": 57,
                "velocity": 80,
                "duration": 0.045454545454546746,
                "tempo": 120.0
            },
            {
                "start_time": 25.80909090909091,
                "end_time": 25.85909090909091,
                "pitch": 57,
                "velocity": 80,
                "duration": 0.05000000000000071,
                "tempo": 120.0
            },
            {
                "start_time": 25.877272727272725,
                "end_time": 25.927272727272726,
                "pitch": 57,
                "velocity": 80,
                "duration": 0.05000000000000071,
                "tempo": 120.0
            },
            {
                "start_time": 12.361363636363636,
                "end_time": 26.049999999999997,
                "pitch": 44,
                "velocity": 80,
                "duration": 13.68863636363636,
                "tempo": 120.0
            },
            {
                "start_time": 25.94772727272727,
                "end_time": 26.049999999999997,
                "pitch": 60,
                "velocity": 80,
                "duration": 0.10227272727272663,
                "tempo": 120.0
            },
            {
                "start_time": 26.049999999999997,
                "end_time": 26.25,
                "pitch": 59,
                "velocity": 80,
                "duration": 0.20000000000000284,
                "tempo": 120.0
            },
            {
                "start_time": 26.25,
                "end_time": 26.347727272727273,
                "pitch": 59,
                "velocity": 80,
                "duration": 0.09772727272727266,
                "tempo": 120.0
            },
            {
                "start_time": 26.347727272727273,
                "end_time": 26.44772727272727,
                "pitch": 62,
                "velocity": 80,
                "duration": 0.09999999999999787,
                "tempo": 120.0
            },
            {
                "start_time": 24.836363636363636,
                "end_time": 26.545454545454543,
                "pitch": 31,
                "velocity": 80,
                "duration": 1.7090909090909072,
                "tempo": 120.0
            },
            {
                "start_time": 26.44772727272727,
                "end_time": 26.545454545454543,
                "pitch": 62,
                "velocity": 80,
                "duration": 0.09772727272727266,
                "tempo": 120.0
            },
            {
                "start_time": 26.545454545454543,
                "end_time": 26.643181818181816,
                "pitch": 57,
                "velocity": 80,
                "duration": 0.09772727272727266,
                "tempo": 120.0
            },
            {
                "start_time": 25.136363636363637,
                "end_time": 26.643181818181816,
                "pitch": 64,
                "velocity": 80,
                "duration": 1.5068181818181792,
                "tempo": 120.0
            },
            {
                "start_time": 26.049999999999997,
                "end_time": 26.845454545454544,
                "pitch": 44,
                "velocity": 80,
                "duration": 0.7954545454545467,
                "tempo": 120.0
            },
            {
                "start_time": 26.643181818181816,
                "end_time": 26.845454545454544,
                "pitch": 60,
                "velocity": 80,
                "duration": 0.20227272727272805,
                "tempo": 120.0
            },
            {
                "start_time": 26.845454545454544,
                "end_time": 27.045454545454543,
                "pitch": 59,
                "velocity": 80,
                "duration": 0.1999999999999993,
                "tempo": 120.0
            },
            {
                "start_time": 27.045454545454543,
                "end_time": 27.145454545454545,
                "pitch": 59,
                "velocity": 80,
                "duration": 0.10000000000000142,
                "tempo": 120.0
            },
            {
                "start_time": 26.347727272727273,
                "end_time": 27.145454545454545,
                "pitch": 65,
                "velocity": 80,
                "duration": 0.797727272727272,
                "tempo": 120.0
            },
            {
                "start_time": 27.145454545454545,
                "end_time": 27.245454545454542,
                "pitch": 62,
                "velocity": 80,
                "duration": 0.09999999999999787,
                "tempo": 120.0
            },
            {
                "start_time": 26.545454545454543,
                "end_time": 27.349999999999998,
                "pitch": 31,
                "velocity": 80,
                "duration": 0.8045454545454547,
                "tempo": 120.0
            },
            {
                "start_time": 27.245454545454542,
                "end_time": 27.349999999999998,
                "pitch": 62,
                "velocity": 80,
                "duration": 0.10454545454545539,
                "tempo": 120.0
            },
            {
                "start_time": 27.349999999999998,
                "end_time": 27.395454545454545,
                "pitch": 57,
                "velocity": 80,
                "duration": 0.045454545454546746,
                "tempo": 120.0
            },
            {
                "start_time": 27.413636363636364,
                "end_time": 27.46363636363636,
                "pitch": 57,
                "velocity": 80,
                "duration": 0.04999999999999716,
                "tempo": 120.0
            },
            {
                "start_time": 27.48181818181818,
                "end_time": 27.53181818181818,
                "pitch": 57,
                "velocity": 80,
                "duration": 0.05000000000000071,
                "tempo": 120.0
            },
            {
                "start_time": 26.845454545454544,
                "end_time": 27.654545454545453,
                "pitch": 44,
                "velocity": 80,
                "duration": 0.8090909090909086,
                "tempo": 120.0
            },
            {
                "start_time": 27.552272727272726,
                "end_time": 27.654545454545453,
                "pitch": 60,
                "velocity": 80,
                "duration": 0.10227272727272663,
                "tempo": 120.0
            },
            {
                "start_time": 27.654545454545453,
                "end_time": 27.854545454545452,
                "pitch": 59,
                "velocity": 80,
                "duration": 0.1999999999999993,
                "tempo": 120.0
            },
            {
                "start_time": 27.854545454545452,
                "end_time": 27.952272727272724,
                "pitch": 59,
                "velocity": 80,
                "duration": 0.09772727272727266,
                "tempo": 120.0
            },
            {
                "start_time": 27.145454545454545,
                "end_time": 27.952272727272724,
                "pitch": 65,
                "velocity": 80,
                "duration": 0.8068181818181799,
                "tempo": 120.0
            },
            {
                "start_time": 27.952272727272724,
                "end_time": 28.052272727272726,
                "pitch": 62,
                "velocity": 80,
                "duration": 0.10000000000000142,
                "tempo": 120.0
            },
            {
                "start_time": 27.349999999999998,
                "end_time": 28.15,
                "pitch": 31,
                "velocity": 80,
                "duration": 0.8000000000000007,
                "tempo": 120.0
            },
            {
                "start_time": 28.052272727272726,
                "end_time": 28.15,
                "pitch": 62,
                "velocity": 80,
                "duration": 0.09772727272727266,
                "tempo": 120.0
            },
            {
                "start_time": 28.15,
                "end_time": 28.25,
                "pitch": 57,
                "velocity": 80,
                "duration": 0.10000000000000142,
                "tempo": 120.0
            },
            {
                "start_time": 26.643181818181816,
                "end_time": 28.252272727272725,
                "pitch": 64,
                "velocity": 80,
                "duration": 1.6090909090909093,
                "tempo": 120.0
            },
            {
                "start_time": 28.25,
                "end_time": 28.252272727272725,
                "pitch": 64,
                "velocity": 80,
                "duration": 0.0022727272727252057,
                "tempo": 120.0
            },
            {
                "start_time": 27.654545454545453,
                "end_time": 28.459090909090907,
                "pitch": 44,
                "velocity": 80,
                "duration": 0.8045454545454547,
                "tempo": 120.0
            },
            {
                "start_time": 28.252272727272725,
                "end_time": 28.459090909090907,
                "pitch": 60,
                "velocity": 80,
                "duration": 0.206818181818182,
                "tempo": 120.0
            },
            {
                "start_time": 28.459090909090907,
                "end_time": 28.65681818181818,
                "pitch": 59,
                "velocity": 80,
                "duration": 0.19772727272727408,
                "tempo": 120.0
            },
            {
                "start_time": 28.65681818181818,
                "end_time": 28.75681818181818,
                "pitch": 59,
                "velocity": 80,
                "duration": 0.09999999999999787,
                "tempo": 120.0
            },
            {
                "start_time": 27.952272727272724,
                "end_time": 28.75681818181818,
                "pitch": 65,
                "velocity": 80,
                "duration": 0.8045454545454547,
                "tempo": 120.0
            },
            {
                "start_time": 28.75681818181818,
                "end_time": 28.854545454545452,
                "pitch": 62,
                "velocity": 80,
                "duration": 0.09772727272727266,
                "tempo": 120.0
            },
            {
                "start_time": 28.854545454545452,
                "end_time": 28.956818181818182,
                "pitch": 62,
                "velocity": 80,
                "duration": 0.10227272727273018,
                "tempo": 120.0
            },
            {
                "start_time": 28.956818181818182,
                "end_time": 29.261363636363637,
                "pitch": 67,
                "velocity": 80,
                "duration": 0.3045454545454547,
                "tempo": 120.0
            },
            {
                "start_time": 19.304545454545455,
                "end_time": 29.261363636363637,
                "pitch": 78,
                "velocity": 80,
                "duration": 9.956818181818182,
                "tempo": 120.0
            },
            {
                "start_time": 28.15,
                "end_time": 29.75681818181818,
                "pitch": 31,
                "velocity": 80,
                "duration": 1.6068181818181806,
                "tempo": 120.0
            },
            {
                "start_time": 28.75681818181818,
                "end_time": 29.75681818181818,
                "pitch": 65,
                "velocity": 80,
                "duration": 1.0,
                "tempo": 120.0
            },
            {
                "start_time": 29.261363636363637,
                "end_time": 29.75681818181818,
                "pitch": 65,
                "velocity": 80,
                "duration": 0.4954545454545425,
                "tempo": 120.0
            },
            {
                "start_time": 29.75681818181818,
                "end_time": 29.85909090909091,
                "pitch": 69,
                "velocity": 80,
                "duration": 0.10227272727273018,
                "tempo": 120.0
            },
            {
                "start_time": 29.85909090909091,
                "end_time": 30.065909090909088,
                "pitch": 69,
                "velocity": 80,
                "duration": 0.20681818181817846,
                "tempo": 120.0
            },
            {
                "start_time": 30.065909090909088,
                "end_time": 30.568181818181817,
                "pitch": 67,
                "velocity": 80,
                "duration": 0.5022727272727288,
                "tempo": 120.0
            },
            {
                "start_time": 30.568181818181817,
                "end_time": 30.670454545454543,
                "pitch": 71,
                "velocity": 80,
                "duration": 0.10227272727272663,
                "tempo": 120.0
            },
            {
                "start_time": 30.570454545454545,
                "end_time": 30.670454545454543,
                "pitch": 71,
                "velocity": 80,
                "duration": 0.09999999999999787,
                "tempo": 120.0
            },
            {
                "start_time": 30.670454545454543,
                "end_time": 30.870454545454542,
                "pitch": 71,
                "velocity": 80,
                "duration": 0.1999999999999993,
                "tempo": 120.0
            },
            {
                "start_time": 30.870454545454542,
                "end_time": 31.07272727272727,
                "pitch": 69,
                "velocity": 80,
                "duration": 0.20227272727272805,
                "tempo": 120.0
            },
            {
                "start_time": 31.07272727272727,
                "end_time": 31.172727272727272,
                "pitch": 69,
                "velocity": 80,
                "duration": 0.10000000000000142,
                "tempo": 120.0
            },
            {
                "start_time": 31.172727272727272,
                "end_time": 31.27272727272727,
                "pitch": 69,
                "velocity": 80,
                "duration": 0.09999999999999787,
                "tempo": 120.0
            },
            {
                "start_time": 31.27272727272727,
                "end_time": 31.37272727272727,
                "pitch": 69,
                "velocity": 80,
                "duration": 0.10000000000000142,
                "tempo": 120.0
            },
            {
                "start_time": 31.37272727272727,
                "end_time": 31.472727272727273,
                "pitch": 72,
                "velocity": 80,
                "duration": 0.10000000000000142,
                "tempo": 120.0
            },
            {
                "start_time": 31.472727272727273,
                "end_time": 31.57272727272727,
                "pitch": 72,
                "velocity": 80,
                "duration": 0.09999999999999787,
                "tempo": 120.0
            },
            {
                "start_time": 31.57272727272727,
                "end_time": 31.672727272727272,
                "pitch": 72,
                "velocity": 80,
                "duration": 0.10000000000000142,
                "tempo": 120.0
            },
            {
                "start_time": 31.672727272727272,
                "end_time": 31.87272727272727,
                "pitch": 71,
                "velocity": 80,
                "duration": 0.1999999999999993,
                "tempo": 120.0
            },
            {
                "start_time": 31.87272727272727,
                "end_time": 31.974999999999998,
                "pitch": 71,
                "velocity": 80,
                "duration": 0.10227272727272663,
                "tempo": 120.0
            },
            {
                "start_time": 31.974999999999998,
                "end_time": 32.17727272727272,
                "pitch": 71,
                "velocity": 80,
                "duration": 0.2022727272727245,
                "tempo": 120.0
            },
            {
                "start_time": 32.17727272727272,
                "end_time": 32.47727272727273,
                "pitch": 69,
                "velocity": 80,
                "duration": 0.30000000000000426,
                "tempo": 120.0
            },
            {
                "start_time": 32.47727272727273,
                "end_time": 33.78181818181818,
                "pitch": 67,
                "velocity": 80,
                "duration": 1.3045454545454547,
                "tempo": 120.0
            },
            {
                "start_time": 29.261363636363637,
                "end_time": 33.78181818181818,
                "pitch": 78,
                "velocity": 80,
                "duration": 4.520454545454545,
                "tempo": 120.0
            },
            {
                "start_time": 33.78181818181818,
                "end_time": 34.08181818181818,
                "pitch": 65,
                "velocity": 80,
                "duration": 0.29999999999999716,
                "tempo": 120.0
            },
            {
                "start_time": 34.08181818181818,
                "end_time": 35.38636363636363,
                "pitch": 64,
                "velocity": 80,
                "duration": 1.3045454545454547,
                "tempo": 120.0
            },
            {
                "start_time": 35.38636363636363,
                "end_time": 35.69318181818181,
                "pitch": 67,
                "velocity": 80,
                "duration": 0.3068181818181799,
                "tempo": 120.0
            },
            {
                "start_time": 33.78181818181818,
                "end_time": 35.69318181818181,
                "pitch": 78,
                "velocity": 80,
                "duration": 1.9113636363636317,
                "tempo": 120.0
            },
            {
                "start_time": 35.695454545454545,
                "end_time": 35.89545454545454,
                "pitch": 65,
                "velocity": 80,
                "duration": 0.19999999999999574,
                "tempo": 120.0
            },
            {
                "start_time": 35.89545454545454,
                "end_time": 35.99318181818182,
                "pitch": 65,
                "velocity": 80,
                "duration": 0.09772727272727622,
                "tempo": 120.0
            },
            {
                "start_time": 35.99318181818182,
                "end_time": 36.090909090909086,
                "pitch": 65,
                "velocity": 80,
                "duration": 0.09772727272726911,
                "tempo": 120.0
            },
            {
                "start_time": 29.75681818181818,
                "end_time": 36.19090909090909,
                "pitch": 31,
                "velocity": 80,
                "duration": 6.434090909090909,
                "tempo": 120.0
            },
            {
                "start_time": 36.090909090909086,
                "end_time": 36.19090909090909,
                "pitch": 65,
                "velocity": 80,
                "duration": 0.10000000000000142,
                "tempo": 120.0
            },
            {
                "start_time": 36.19090909090909,
                "end_time": 36.293181818181814,
                "pitch": 69,
                "velocity": 80,
                "duration": 0.10227272727272663,
                "tempo": 120.0
            },
            {
                "start_time": 36.293181818181814,
                "end_time": 36.49772727272727,
                "pitch": 69,
                "velocity": 80,
                "duration": 0.20454545454545325,
                "tempo": 120.0
            },
            {
                "start_time": 36.49772727272727,
                "end_time": 36.99318181818182,
                "pitch": 67,
                "velocity": 80,
                "duration": 0.4954545454545496,
                "tempo": 120.0
            },
            {
                "start_time": 36.99318181818182,
                "end_time": 37.095454545454544,
                "pitch": 67,
                "velocity": 80,
                "duration": 0.10227272727272663,
                "tempo": 120.0
            },
            {
                "start_time": 37.095454545454544,
                "end_time": 37.19772727272727,
                "pitch": 67,
                "velocity": 80,
                "duration": 0.10227272727272663,
                "tempo": 120.0
            },
            {
                "start_time": 37.19772727272727,
                "end_time": 37.30227272727272,
                "pitch": 67,
                "velocity": 80,
                "duration": 0.10454545454545183,
                "tempo": 120.0
            },
            {
                "start_time": 35.69318181818181,
                "end_time": 37.30227272727272,
                "pitch": 78,
                "velocity": 80,
                "duration": 1.6090909090909093,
                "tempo": 120.0
            },
            {
                "start_time": 37.30227272727272,
                "end_time": 37.50454545454545,
                "pitch": 65,
                "velocity": 80,
                "duration": 0.20227272727272805,
                "tempo": 120.0
            },
            {
                "start_time": 37.50454545454545,
                "end_time": 37.60454545454545,
                "pitch": 65,
                "velocity": 80,
                "duration": 0.10000000000000142,
                "tempo": 120.0
            },
            {
                "start_time": 37.60454545454545,
                "end_time": 37.70454545454545,
                "pitch": 65,
                "velocity": 80,
                "duration": 0.10000000000000142,
                "tempo": 120.0
            },
            {
                "start_time": 36.19090909090909,
                "end_time": 37.804545454545455,
                "pitch": 31,
                "velocity": 80,
                "duration": 1.6136363636363669,
                "tempo": 120.0
            },
            {
                "start_time": 37.70454545454545,
                "end_time": 37.804545454545455,
                "pitch": 65,
                "velocity": 80,
                "duration": 0.10000000000000142,
                "tempo": 120.0
            },
            {
                "start_time": 37.80681818181818,
                "end_time": 37.904545454545456,
                "pitch": 69,
                "velocity": 80,
                "duration": 0.09772727272727622,
                "tempo": 120.0
            },
            {
                "start_time": 37.904545454545456,
                "end_time": 38.00454545454545,
                "pitch": 69,
                "velocity": 80,
                "duration": 0.09999999999999432,
                "tempo": 120.0
            },
            {
                "start_time": 38.00454545454545,
                "end_time": 38.10454545454545,
                "pitch": 69,
                "velocity": 80,
                "duration": 0.10000000000000142,
                "tempo": 120.0
            },
            {
                "start_time": 38.10454545454545,
                "end_time": 38.402272727272724,
                "pitch": 67,
                "velocity": 80,
                "duration": 0.29772727272727195,
                "tempo": 120.0
            },
            {
                "start_time": 38.402272727272724,
                "end_time": 38.5,
                "pitch": 67,
                "velocity": 80,
                "duration": 0.09772727272727622,
                "tempo": 120.0
            },
            {
                "start_time": 38.5,
                "end_time": 38.6,
                "pitch": 67,
                "velocity": 80,
                "duration": 0.10000000000000142,
                "tempo": 120.0
            },
            {
                "start_time": 37.30227272727272,
                "end_time": 38.6,
                "pitch": 78,
                "velocity": 80,
                "duration": 1.297727272727279,
                "tempo": 120.0
            },
            {
                "start_time": 38.6,
                "end_time": 38.699999999999996,
                "pitch": 65,
                "velocity": 80,
                "duration": 0.09999999999999432,
                "tempo": 120.0
            },
            {
                "start_time": 38.699999999999996,
                "end_time": 38.804545454545455,
                "pitch": 65,
                "velocity": 80,
                "duration": 0.10454545454545894,
                "tempo": 120.0
            },
            {
                "start_time": 38.804545454545455,
                "end_time": 38.90681818181818,
                "pitch": 65,
                "velocity": 80,
                "duration": 0.10227272727272663,
                "tempo": 120.0
            },
            {
                "start_time": 38.90681818181818,
                "end_time": 40.211363636363636,
                "pitch": 64,
                "velocity": 80,
                "duration": 1.3045454545454547,
                "tempo": 120.0
            },
            {
                "start_time": 40.211363636363636,
                "end_time": 40.31136363636364,
                "pitch": 62,
                "velocity": 80,
                "duration": 0.10000000000000142,
                "tempo": 120.0
            },
            {
                "start_time": 40.211363636363636,
                "end_time": 40.31136363636364,
                "pitch": 62,
                "velocity": 80,
                "duration": 0.10000000000000142,
                "tempo": 120.0
            },
            {
                "start_time": 40.31136363636364,
                "end_time": 40.51136363636363,
                "pitch": 62,
                "velocity": 80,
                "duration": 0.19999999999999574,
                "tempo": 120.0
            },
            {
                "start_time": 40.51136363636363,
                "end_time": 41.81818181818181,
                "pitch": 60,
                "velocity": 80,
                "duration": 1.3068181818181799,
                "tempo": 120.0
            },
            {
                "start_time": 40.51363636363636,
                "end_time": 41.81818181818181,
                "pitch": 60,
                "velocity": 80,
                "duration": 1.3045454545454547,
                "tempo": 120.0
            },
            {
                "start_time": 41.81818181818181,
                "end_time": 41.918181818181814,
                "pitch": 55,
                "velocity": 101,
                "duration": 0.10000000000000142,
                "tempo": 120.0
            },
            {
                "start_time": 41.918181818181814,
                "end_time": 42.02272727272727,
                "pitch": 55,
                "velocity": 101,
                "duration": 0.10454545454545894,
                "tempo": 120.0
            },
            {
                "start_time": 42.02272727272727,
                "end_time": 42.125,
                "pitch": 59,
                "velocity": 101,
                "duration": 0.10227272727272663,
                "tempo": 120.0
            },
            {
                "start_time": 42.02272727272727,
                "end_time": 42.125,
                "pitch": 59,
                "velocity": 101,
                "duration": 0.10227272727272663,
                "tempo": 120.0
            },
            {
                "start_time": 37.804545454545455,
                "end_time": 43.434090909090905,
                "pitch": 31,
                "velocity": 80,
                "duration": 5.62954545454545,
                "tempo": 120.0
            },
            {
                "start_time": 42.125,
                "end_time": 43.434090909090905,
                "pitch": 62,
                "velocity": 101,
                "duration": 1.309090909090905,
                "tempo": 120.0
            },
            {
                "start_time": 43.434090909090905,
                "end_time": 43.53181818181818,
                "pitch": 57,
                "velocity": 101,
                "duration": 0.09772727272727622,
                "tempo": 120.0
            },
            {
                "start_time": 43.53181818181818,
                "end_time": 43.62954545454545,
                "pitch": 57,
                "velocity": 101,
                "duration": 0.09772727272726911,
                "tempo": 120.0
            },
            {
                "start_time": 43.62954545454545,
                "end_time": 43.63181818181818,
                "pitch": 59,
                "velocity": 101,
                "duration": 0.002272727272732311,
                "tempo": 120.0
            },
            {
                "start_time": 43.63181818181818,
                "end_time": 43.72727272727273,
                "pitch": 59,
                "velocity": 101,
                "duration": 0.0954545454545439,
                "tempo": 120.0
            },
            {
                "start_time": 43.72954545454545,
                "end_time": 45.038636363636364,
                "pitch": 60,
                "velocity": 101,
                "duration": 1.3090909090909122,
                "tempo": 120.0
            },
            {
                "start_time": 45.038636363636364,
                "end_time": 45.13636363636363,
                "pitch": 55,
                "velocity": 101,
                "duration": 0.09772727272726911,
                "tempo": 120.0
            },
            {
                "start_time": 45.13636363636363,
                "end_time": 45.236363636363635,
                "pitch": 59,
                "velocity": 101,
                "duration": 0.10000000000000142,
                "tempo": 120.0
            },
            {
                "start_time": 45.13636363636363,
                "end_time": 45.236363636363635,
                "pitch": 59,
                "velocity": 101,
                "duration": 0.10000000000000142,
                "tempo": 120.0
            },
            {
                "start_time": 42.125,
                "end_time": 45.236363636363635,
                "pitch": 65,
                "velocity": 101,
                "duration": 3.1113636363636346,
                "tempo": 120.0
            },
            {
                "start_time": 45.236363636363635,
                "end_time": 45.334090909090904,
                "pitch": 62,
                "velocity": 101,
                "duration": 0.09772727272726911,
                "tempo": 120.0
            },
            {
                "start_time": 45.334090909090904,
                "end_time": 46.03181818181818,
                "pitch": 67,
                "velocity": 101,
                "duration": 0.6977272727272776,
                "tempo": 120.0
            },
            {
                "start_time": 46.03409090909091,
                "end_time": 46.23181818181818,
                "pitch": 67,
                "velocity": 101,
                "duration": 0.19772727272727053,
                "tempo": 120.0
            },
            {
                "start_time": 38.6,
                "end_time": 46.23181818181818,
                "pitch": 78,
                "velocity": 80,
                "duration": 7.631818181818176,
                "tempo": 120.0
            },
            {
                "start_time": 45.236363636363635,
                "end_time": 46.53181818181818,
                "pitch": 65,
                "velocity": 101,
                "duration": 1.2954545454545467,
                "tempo": 120.0
            },
            {
                "start_time": 46.23181818181818,
                "end_time": 46.53181818181818,
                "pitch": 65,
                "velocity": 101,
                "duration": 0.30000000000000426,
                "tempo": 120.0
            },
            {
                "start_time": 43.434090909090905,
                "end_time": 46.63409090909091,
                "pitch": 31,
                "velocity": 101,
                "duration": 3.200000000000003,
                "tempo": 120.0
            },
            {
                "start_time": 43.72727272727273,
                "end_time": 46.63409090909091,
                "pitch": 64,
                "velocity": 101,
                "duration": 2.9068181818181813,
                "tempo": 120.0
            },
            {
                "start_time": 46.53409090909091,
                "end_time": 46.63409090909091,
                "pitch": 64,
                "velocity": 101,
                "duration": 0.10000000000000142,
                "tempo": 120.0
            },
            {
                "start_time": 46.63409090909091,
                "end_time": 46.736363636363635,
                "pitch": 57,
                "velocity": 101,
                "duration": 0.10227272727272663,
                "tempo": 120.0
            },
            {
                "start_time": 46.736363636363635,
                "end_time": 46.83863636363636,
                "pitch": 57,
                "velocity": 101,
                "duration": 0.10227272727272663,
                "tempo": 120.0
            },
            {
                "start_time": 46.83863636363636,
                "end_time": 46.94090909090909,
                "pitch": 57,
                "velocity": 101,
                "duration": 0.10227272727272663,
                "tempo": 120.0
            },
            {
                "start_time": 46.94090909090909,
                "end_time": 48.23863636363636,
                "pitch": 60,
                "velocity": 101,
                "duration": 1.297727272727272,
                "tempo": 120.0
            },
            {
                "start_time": 48.23863636363636,
                "end_time": 48.33863636363636,
                "pitch": 65,
                "velocity": 101,
                "duration": 0.10000000000000142,
                "tempo": 120.0
            },
            {
                "start_time": 48.23863636363636,
                "end_time": 48.33863636363636,
                "pitch": 65,
                "velocity": 101,
                "duration": 0.10000000000000142,
                "tempo": 120.0
            },
            {
                "start_time": 46.63409090909091,
                "end_time": 48.43863636363636,
                "pitch": 31,
                "velocity": 101,
                "duration": 1.8045454545454547,
                "tempo": 120.0
            },
            {
                "start_time": 48.33863636363636,
                "end_time": 48.43863636363636,
                "pitch": 65,
                "velocity": 101,
                "duration": 0.10000000000000142,
                "tempo": 120.0
            },
            {
                "start_time": 48.43863636363636,
                "end_time": 48.538636363636364,
                "pitch": 69,
                "velocity": 101,
                "duration": 0.10000000000000142,
                "tempo": 120.0
            },
            {
                "start_time": 31.37272727272727,
                "end_time": 48.538636363636364,
                "pitch": 76,
                "velocity": 80,
                "duration": 17.165909090909093,
                "tempo": 120.0
            },
            {
                "start_time": 31.672727272727272,
                "end_time": 49.85454545454545,
                "pitch": 56,
                "velocity": 80,
                "duration": 18.18181818181818,
                "tempo": 120.0
            },
            {
                "start_time": 48.538636363636364,
                "end_time": 49.85454545454545,
                "pitch": 72,
                "velocity": 101,
                "duration": 1.3159090909090878,
                "tempo": 120.0
            },
            {
                "start_time": 49.85454545454545,
                "end_time": 49.95454545454545,
                "pitch": 71,
                "velocity": 101,
                "duration": 0.10000000000000142,
                "tempo": 120.0
            },
            {
                "start_time": 49.95454545454545,
                "end_time": 50.054545454545455,
                "pitch": 71,
                "velocity": 101,
                "duration": 0.10000000000000142,
                "tempo": 120.0
            },
            {
                "start_time": 50.054545454545455,
                "end_time": 50.15454545454545,
                "pitch": 74,
                "velocity": 101,
                "duration": 0.09999999999999432,
                "tempo": 120.0
            },
            {
                "start_time": 50.054545454545455,
                "end_time": 50.15454545454545,
                "pitch": 77,
                "velocity": 101,
                "duration": 0.09999999999999432,
                "tempo": 120.0
            },
            {
                "start_time": 50.15454545454545,
                "end_time": 51.459090909090904,
                "pitch": 77,
                "velocity": 101,
                "duration": 1.3045454545454547,
                "tempo": 120.0
            },
            {
                "start_time": 50.15454545454545,
                "end_time": 51.459090909090904,
                "pitch": 77,
                "velocity": 101,
                "duration": 1.3045454545454547,
                "tempo": 120.0
            },
            {
                "start_time": 51.459090909090904,
                "end_time": 51.768181818181816,
                "pitch": 77,
                "velocity": 101,
                "duration": 0.3090909090909122,
                "tempo": 120.0
            },
            {
                "start_time": 48.538636363636364,
                "end_time": 52.06590909090909,
                "pitch": 76,
                "velocity": 101,
                "duration": 3.527272727272724,
                "tempo": 120.0
            },
            {
                "start_time": 51.768181818181816,
                "end_time": 52.06590909090909,
                "pitch": 76,
                "velocity": 101,
                "duration": 0.29772727272727195,
                "tempo": 120.0
            },
            {
                "start_time": 52.06590909090909,
                "end_time": 52.365909090909085,
                "pitch": 74,
                "velocity": 101,
                "duration": 0.29999999999999716,
                "tempo": 120.0
            },
            {
                "start_time": 52.06590909090909,
                "end_time": 52.365909090909085,
                "pitch": 74,
                "velocity": 101,
                "duration": 0.29999999999999716,
                "tempo": 120.0
            },
            {
                "start_time": 49.85454545454545,
                "end_time": 52.67272727272727,
                "pitch": 56,
                "velocity": 101,
                "duration": 2.81818181818182,
                "tempo": 120.0
            },
            {
                "start_time": 52.365909090909085,
                "end_time": 52.67272727272727,
                "pitch": 72,
                "velocity": 101,
                "duration": 0.306818181818187,
                "tempo": 120.0
            },
            {
                "start_time": 52.365909090909085,
                "end_time": 52.67272727272727,
                "pitch": 72,
                "velocity": 101,
                "duration": 0.306818181818187,
                "tempo": 120.0
            },
            {
                "start_time": 52.675,
                "end_time": 53.074999999999996,
                "pitch": 71,
                "velocity": 101,
                "duration": 0.3999999999999986,
                "tempo": 120.0
            },
            {
                "start_time": 53.074999999999996,
                "end_time": 53.67727272727272,
                "pitch": 71,
                "velocity": 101,
                "duration": 0.6022727272727266,
                "tempo": 120.0
            },
            {
                "start_time": 53.67727272727272,
                "end_time": 53.777272727272724,
                "pitch": 72,
                "velocity": 101,
                "duration": 0.10000000000000142,
                "tempo": 120.0
            },
            {
                "start_time": 53.777272727272724,
                "end_time": 53.877272727272725,
                "pitch": 74,
                "velocity": 101,
                "duration": 0.10000000000000142,
                "tempo": 120.0
            },
            {
                "start_time": 53.67727272727272,
                "end_time": 54.69318181818181,
                "pitch": 76,
                "velocity": 101,
                "duration": 1.0159090909090907,
                "tempo": 120.0
            },
            {
                "start_time": 53.877272727272725,
                "end_time": 54.69318181818181,
                "pitch": 76,
                "velocity": 101,
                "duration": 0.8159090909090878,
                "tempo": 120.0
            }
        ]
    }
}