{
    "track_id": "06 Area-2 (Lost World - The Island)",
    "mood": "angry",
    "instruments": {
        "Electric Piano 1": [
            {
                "start_time": 0.029545454545454545,
                "end_time": 0.46136363636363636,
                "pitch": 45,
                "velocity": 101,
                "duration": 0.4318181818181818,
                "tempo": 120.0
            },
            {
                "start_time": 0.4636363636363636,
                "end_time": 0.8795454545454545,
                "pitch": 44,
                "velocity": 101,
                "duration": 0.4159090909090909,
                "tempo": 120.0
            },
            {
                "start_time": 0.8795454545454545,
                "end_time": 1.3136363636363635,
                "pitch": 42,
                "velocity": 101,
                "duration": 0.43409090909090897,
                "tempo": 120.0
            },
            {
                "start_time": 1.315909090909091,
                "end_time": 1.7386363636363635,
                "pitch": 49,
                "velocity": 101,
                "duration": 0.4227272727272726,
                "tempo": 120.0
            },
            {
                "start_time": 2.184090909090909,
                "end_time": 2.6,
                "pitch": 47,
                "velocity": 101,
                "duration": 0.415909090909091,
                "tempo": 120.0
            },
            {
                "start_time": 2.6,
                "end_time": 3.025,
                "pitch": 45,
                "velocity": 101,
                "duration": 0.4249999999999998,
                "tempo": 120.0
            },
            {
                "start_time": 3.0272727272727273,
                "end_time": 3.459090909090909,
                "pitch": 44,
                "velocity": 101,
                "duration": 0.43181818181818166,
                "tempo": 120.0
            },
            {
                "start_time": 3.461363636363636,
                "end_time": 3.877272727272727,
                "pitch": 45,
                "velocity": 101,
                "duration": 0.415909090909091,
                "tempo": 120.0
            },
            {
                "start_time": 3.877272727272727,
                "end_time": 4.290909090909091,
                "pitch": 44,
                "velocity": 101,
                "duration": 0.413636363636364,
                "tempo": 120.0
            },
            {
                "start_time": 4.290909090909091,
                "end_time": 4.743181818181818,
                "pitch": 42,
                "velocity": 101,
                "duration": 0.45227272727272716,
                "tempo": 120.0
            },
            {
                "start_time": 4.743181818181818,
                "end_time": 5.168181818181818,
                "pitch": 37,
                "velocity": 101,
                "duration": 0.4249999999999998,
                "tempo": 120.0
            },
            {
                "start_time": 5.170454545454545,
                "end_time": 5.586363636363636,
                "pitch": 38,
                "velocity": 101,
                "duration": 0.415909090909091,
                "tempo": 120.0
            },
            {
                "start_time": 5.586363636363636,
                "end_time": 6.011363636363636,
                "pitch": 42,
                "velocity": 101,
                "duration": 0.4249999999999998,
                "tempo": 120.0
            },
            {
                "start_time": 6.011363636363636,
                "end_time": 6.454545454545454,
                "pitch": 44,
                "velocity": 101,
                "duration": 0.44318181818181834,
                "tempo": 120.0
            },
            {
                "start_time": 6.454545454545454,
                "end_time": 6.863636363636363,
                "pitch": 37,
                "velocity": 101,
                "duration": 0.40909090909090917,
                "tempo": 120.0
            },
            {
                "start_time": 6.863636363636363,
                "end_time": 7.288636363636363,
                "pitch": 45,
                "velocity": 101,
                "duration": 0.4249999999999998,
                "tempo": 120.0
            },
            {
                "start_time": 7.288636363636363,
                "end_time": 7.722727272727273,
                "pitch": 44,
                "velocity": 101,
                "duration": 0.4340909090909095,
                "tempo": 120.0
            },
            {
                "start_time": 7.722727272727273,
                "end_time": 8.165909090909091,
                "pitch": 42,
                "velocity": 101,
                "duration": 0.44318181818181834,
                "tempo": 120.0
            },
            {
                "start_time": 8.165909090909091,
                "end_time": 8.584090909090909,
                "pitch": 40,
                "velocity": 101,
                "duration": 0.418181818181818,
                "tempo": 120.0
            },
            {
                "start_time": 8.584090909090909,
                "end_time": 8.997727272727273,
                "pitch": 38,
                "velocity": 101,
                "duration": 0.413636363636364,
                "tempo": 120.0
            },
            {
                "start_time": 8.997727272727273,
                "end_time": 9.44090909090909,
                "pitch": 42,
                "velocity": 101,
                "duration": 0.44318181818181657,
                "tempo": 120.0
            },
            {
                "start_time": 9.44090909090909,
                "end_time": 9.86590909090909,
                "pitch": 44,
                "velocity": 101,
                "duration": 0.4250000000000007,
                "tempo": 120.0
            },
            {
                "start_time": 9.868181818181817,
                "end_time": 10.268181818181818,
                "pitch": 37,
                "velocity": 101,
                "duration": 0.40000000000000036,
                "tempo": 120.0
            },
            {
                "start_time": 10.270454545454545,
                "end_time": 10.711363636363636,
                "pitch": 45,
                "velocity": 101,
                "duration": 0.44090909090909136,
                "tempo": 120.0
            },
            {
                "start_time": 10.713636363636363,
                "end_time": 11.147727272727272,
                "pitch": 44,
                "velocity": 101,
                "duration": 0.43409090909090864,
                "tempo": 120.0
            },
            {
                "start_time": 11.147727272727272,
                "end_time": 11.572727272727272,
                "pitch": 42,
                "velocity": 101,
                "duration": 0.4250000000000007,
                "tempo": 120.0
            },
            {
                "start_time": 11.575,
                "end_time": 11.986363636363636,
                "pitch": 37,
                "velocity": 101,
                "duration": 0.41136363636363704,
                "tempo": 120.0
            },
            {
                "start_time": 11.988636363636363,
                "end_time": 12.420454545454545,
                "pitch": 38,
                "velocity": 101,
                "duration": 0.43181818181818166,
                "tempo": 120.0
            },
            {
                "start_time": 12.420454545454545,
                "end_time": 12.829545454545453,
                "pitch": 42,
                "velocity": 101,
                "duration": 0.4090909090909083,
                "tempo": 120.0
            },
            {
                "start_time": 12.829545454545453,
                "end_time": 13.263636363636364,
                "pitch": 44,
                "velocity": 101,
                "duration": 0.4340909090909104,
                "tempo": 120.0
            },
            {
                "start_time": 13.263636363636364,
                "end_time": 13.697727272727272,
                "pitch": 37,
                "velocity": 101,
                "duration": 0.43409090909090864,
                "tempo": 120.0
            },
            {
                "start_time": 13.697727272727272,
                "end_time": 14.122727272727271,
                "pitch": 45,
                "velocity": 101,
                "duration": 0.42499999999999893,
                "tempo": 120.0
            },
            {
                "start_time": 14.122727272727271,
                "end_time": 14.540909090909091,
                "pitch": 44,
                "velocity": 101,
                "duration": 0.41818181818181976,
                "tempo": 120.0
            },
            {
                "start_time": 14.540909090909091,
                "end_time": 14.984090909090908,
                "pitch": 42,
                "velocity": 101,
                "duration": 0.44318181818181657,
                "tempo": 120.0
            },
            {
                "start_time": 14.984090909090908,
                "end_time": 15.409090909090908,
                "pitch": 40,
                "velocity": 101,
                "duration": 0.4250000000000007,
                "tempo": 120.0
            },
            {
                "start_time": 15.409090909090908,
                "end_time": 15.818181818181817,
                "pitch": 38,
                "velocity": 101,
                "duration": 0.4090909090909083,
                "tempo": 120.0
            },
            {
                "start_time": 15.818181818181817,
                "end_time": 16.252272727272725,
                "pitch": 42,
                "velocity": 101,
                "duration": 0.43409090909090864,
                "tempo": 120.0
            },
            {
                "start_time": 16.252272727272725,
                "end_time": 16.693181818181817,
                "pitch": 44,
                "velocity": 101,
                "duration": 0.44090909090909136,
                "tempo": 120.0
            },
            {
                "start_time": 16.695454545454545,
                "end_time": 17.10681818181818,
                "pitch": 37,
                "velocity": 101,
                "duration": 0.41136363636363527,
                "tempo": 120.0
            },
            {
                "start_time": 17.10909090909091,
                "end_time": 17.534090909090907,
                "pitch": 45,
                "velocity": 101,
                "duration": 0.42499999999999716,
                "tempo": 120.0
            },
            {
                "start_time": 17.536363636363635,
                "end_time": 17.96818181818182,
                "pitch": 44,
                "velocity": 101,
                "duration": 0.43181818181818343,
                "tempo": 120.0
            },
            {
                "start_time": 17.970454545454544,
                "end_time": 18.402272727272727,
                "pitch": 42,
                "velocity": 101,
                "duration": 0.43181818181818343,
                "tempo": 120.0
            },
            {
                "start_time": 18.402272727272727,
                "end_time": 18.8,
                "pitch": 49,
                "velocity": 101,
                "duration": 0.3977272727272734,
                "tempo": 120.0
            },
            {
                "start_time": 18.802272727272726,
                "end_time": 19.243181818181817,
                "pitch": 42,
                "velocity": 101,
                "duration": 0.44090909090909136,
                "tempo": 120.0
            },
            {
                "start_time": 19.245454545454546,
                "end_time": 19.677272727272726,
                "pitch": 45,
                "velocity": 101,
                "duration": 0.4318181818181799,
                "tempo": 120.0
            },
            {
                "start_time": 19.677272727272726,
                "end_time": 20.102272727272727,
                "pitch": 44,
                "velocity": 101,
                "duration": 0.4250000000000007,
                "tempo": 120.0
            },
            {
                "start_time": 20.102272727272727,
                "end_time": 20.520454545454545,
                "pitch": 47,
                "velocity": 101,
                "duration": 0.418181818181818,
                "tempo": 120.0
            },
            {
                "start_time": 20.520454545454545,
                "end_time": 20.954545454545453,
                "pitch": 38,
                "velocity": 101,
                "duration": 0.43409090909090864,
                "tempo": 120.0
            },
            {
                "start_time": 20.954545454545453,
                "end_time": 21.388636363636362,
                "pitch": 42,
                "velocity": 101,
                "duration": 0.43409090909090864,
                "tempo": 120.0
            },
            {
                "start_time": 21.388636363636362,
                "end_time": 21.80681818181818,
                "pitch": 44,
                "velocity": 101,
                "duration": 0.418181818181818,
                "tempo": 120.0
            },
            {
                "start_time": 21.80681818181818,
                "end_time": 22.23181818181818,
                "pitch": 37,
                "velocity": 101,
                "duration": 0.4250000000000007,
                "tempo": 120.0
            },
            {
                "start_time": 22.23181818181818,
                "end_time": 22.66590909090909,
                "pitch": 45,
                "velocity": 101,
                "duration": 0.43409090909090864,
                "tempo": 120.0
            },
            {
                "start_time": 22.66590909090909,
                "end_time": 23.09090909090909,
                "pitch": 44,
                "velocity": 101,
                "duration": 0.4250000000000007,
                "tempo": 120.0
            },
            {
                "start_time": 23.09090909090909,
                "end_time": 23.518181818181816,
                "pitch": 42,
                "velocity": 101,
                "duration": 0.4272727272727259,
                "tempo": 120.0
            },
            {
                "start_time": 23.518181818181816,
                "end_time": 23.943181818181817,
                "pitch": 49,
                "velocity": 101,
                "duration": 0.4250000000000007,
                "tempo": 120.0
            },
            {
                "start_time": 23.943181818181817,
                "end_time": 24.384090909090908,
                "pitch": 38,
                "velocity": 101,
                "duration": 0.44090909090909136,
                "tempo": 120.0
            },
            {
                "start_time": 24.384090909090908,
                "end_time": 24.78181818181818,
                "pitch": 42,
                "velocity": 101,
                "duration": 0.3977272727272734,
                "tempo": 120.0
            },
            {
                "start_time": 24.784090909090907,
                "end_time": 25.224999999999998,
                "pitch": 44,
                "velocity": 101,
                "duration": 0.44090909090909136,
                "tempo": 120.0
            },
            {
                "start_time": 25.227272727272727,
                "end_time": 25.659090909090907,
                "pitch": 37,
                "velocity": 101,
                "duration": 0.4318181818181799,
                "tempo": 120.0
            },
            {
                "start_time": 25.659090909090907,
                "end_time": 26.07272727272727,
                "pitch": 42,
                "velocity": 101,
                "duration": 0.413636363636364,
                "tempo": 120.0
            },
            {
                "start_time": 26.07272727272727,
                "end_time": 26.5,
                "pitch": 45,
                "velocity": 101,
                "duration": 0.42727272727272947,
                "tempo": 120.0
            },
            {
                "start_time": 26.5,
                "end_time": 26.93409090909091,
                "pitch": 44,
                "velocity": 101,
                "duration": 0.43409090909090864,
                "tempo": 120.0
            },
            {
                "start_time": 26.93409090909091,
                "end_time": 27.347727272727273,
                "pitch": 47,
                "velocity": 101,
                "duration": 0.413636363636364,
                "tempo": 120.0
            },
            {
                "start_time": 27.347727272727273,
                "end_time": 27.775,
                "pitch": 38,
                "velocity": 101,
                "duration": 0.4272727272727259,
                "tempo": 120.0
            },
            {
                "start_time": 27.775,
                "end_time": 28.209090909090907,
                "pitch": 42,
                "velocity": 101,
                "duration": 0.43409090909090864,
                "tempo": 120.0
            },
            {
                "start_time": 28.209090909090907,
                "end_time": 28.65,
                "pitch": 44,
                "velocity": 101,
                "duration": 0.44090909090909136,
                "tempo": 120.0
            },
            {
                "start_time": 28.652272727272727,
                "end_time": 29.065909090909088,
                "pitch": 37,
                "velocity": 101,
                "duration": 0.41363636363636047,
                "tempo": 120.0
            },
            {
                "start_time": 29.065909090909088,
                "end_time": 29.48181818181818,
                "pitch": 45,
                "velocity": 101,
                "duration": 0.4159090909090928,
                "tempo": 120.0
            },
            {
                "start_time": 29.48409090909091,
                "end_time": 29.91590909090909,
                "pitch": 44,
                "velocity": 101,
                "duration": 0.4318181818181799,
                "tempo": 120.0
            },
            {
                "start_time": 29.918181818181818,
                "end_time": 30.349999999999998,
                "pitch": 42,
                "velocity": 101,
                "duration": 0.4318181818181799,
                "tempo": 120.0
            },
            {
                "start_time": 30.349999999999998,
                "end_time": 30.759090909090908,
                "pitch": 49,
                "velocity": 101,
                "duration": 0.40909090909091006,
                "tempo": 120.0
            },
            {
                "start_time": 30.761363636363633,
                "end_time": 31.202272727272724,
                "pitch": 50,
                "velocity": 101,
                "duration": 0.44090909090909136,
                "tempo": 120.0
            },
            {
                "start_time": 32.054545454545455,
                "end_time": 32.15681818181818,
                "pitch": 52,
                "velocity": 101,
                "duration": 0.10227272727272663,
                "tempo": 120.0
            },
            {
                "start_time": 32.15681818181818,
                "end_time": 32.377272727272725,
                "pitch": 56,
                "velocity": 101,
                "duration": 0.2204545454545439,
                "tempo": 120.0
            },
            {
                "start_time": 32.377272727272725,
                "end_time": 32.47954545454545,
                "pitch": 57,
                "velocity": 101,
                "duration": 0.10227272727272663,
                "tempo": 120.0
            },
            {
                "start_time": 32.913636363636364,
                "end_time": 33.32727272727273,
                "pitch": 47,
                "velocity": 101,
                "duration": 0.413636363636364,
                "tempo": 120.0
            },
            {
                "start_time": 33.32727272727273,
                "end_time": 33.75454545454545,
                "pitch": 45,
                "velocity": 101,
                "duration": 0.42727272727272236,
                "tempo": 120.0
            },
            {
                "start_time": 33.75454545454545,
                "end_time": 34.179545454545455,
                "pitch": 44,
                "velocity": 101,
                "duration": 0.42500000000000426,
                "tempo": 120.0
            }
        ],
        "Electric Guitar (clean)": [
            {
                "start_time": 0.029545454545454545,
                "end_time": 0.46136363636363636,
                "pitch": 42,
                "velocity": 80,
                "duration": 0.4318181818181818,
                "tempo": 120.0
            },
            {
                "start_time": 0.4636363636363636,
                "end_time": 0.6795454545454546,
                "pitch": 44,
                "velocity": 80,
                "duration": 0.21590909090909094,
                "tempo": 120.0
            },
            {
                "start_time": 0.6795454545454546,
                "end_time": 0.7795454545454545,
                "pitch": 40,
                "velocity": 80,
                "duration": 0.09999999999999998,
                "tempo": 120.0
            },
            {
                "start_time": 0.7795454545454545,
                "end_time": 0.9954545454545454,
                "pitch": 42,
                "velocity": 80,
                "duration": 0.21590909090909083,
                "tempo": 120.0
            },
            {
                "start_time": 0.9977272727272727,
                "end_time": 1.0977272727272727,
                "pitch": 42,
                "velocity": 80,
                "duration": 0.09999999999999998,
                "tempo": 120.0
            },
            {
                "start_time": 1.0977272727272727,
                "end_time": 1.3136363636363635,
                "pitch": 38,
                "velocity": 80,
                "duration": 0.21590909090909083,
                "tempo": 120.0
            },
            {
                "start_time": 1.315909090909091,
                "end_time": 1.5272727272727271,
                "pitch": 37,
                "velocity": 80,
                "duration": 0.2113636363636362,
                "tempo": 120.0
            },
            {
                "start_time": 1.5272727272727271,
                "end_time": 1.7386363636363635,
                "pitch": 33,
                "velocity": 80,
                "duration": 0.21136363636363642,
                "tempo": 120.0
            },
            {
                "start_time": 1.7409090909090907,
                "end_time": 1.9613636363636362,
                "pitch": 42,
                "velocity": 80,
                "duration": 0.22045454545454546,
                "tempo": 120.0
            },
            {
                "start_time": 1.9613636363636362,
                "end_time": 2.1818181818181817,
                "pitch": 42,
                "velocity": 80,
                "duration": 0.22045454545454546,
                "tempo": 120.0
            },
            {
                "start_time": 2.184090909090909,
                "end_time": 2.384090909090909,
                "pitch": 44,
                "velocity": 80,
                "duration": 0.19999999999999973,
                "tempo": 120.0
            },
            {
                "start_time": 2.384090909090909,
                "end_time": 2.5,
                "pitch": 40,
                "velocity": 80,
                "duration": 0.11590909090909118,
                "tempo": 120.0
            },
            {
                "start_time": 2.5,
                "end_time": 2.8136363636363635,
                "pitch": 42,
                "velocity": 80,
                "duration": 0.3136363636363635,
                "tempo": 120.0
            },
            {
                "start_time": 2.8136363636363635,
                "end_time": 3.025,
                "pitch": 37,
                "velocity": 80,
                "duration": 0.21136363636363642,
                "tempo": 120.0
            },
            {
                "start_time": 3.0272727272727273,
                "end_time": 3.243181818181818,
                "pitch": 40,
                "velocity": 80,
                "duration": 0.21590909090909083,
                "tempo": 120.0
            },
            {
                "start_time": 3.243181818181818,
                "end_time": 3.459090909090909,
                "pitch": 37,
                "velocity": 80,
                "duration": 0.21590909090909083,
                "tempo": 120.0
            },
            {
                "start_time": 3.461363636363636,
                "end_time": 3.559090909090909,
                "pitch": 42,
                "velocity": 80,
                "duration": 0.0977272727272731,
                "tempo": 120.0
            },
            {
                "start_time": 3.561363636363636,
                "end_time": 3.6772727272727272,
                "pitch": 30,
                "velocity": 80,
                "duration": 0.11590909090909118,
                "tempo": 120.0
            },
            {
                "start_time": 3.6772727272727272,
                "end_time": 3.877272727272727,
                "pitch": 42,
                "velocity": 80,
                "duration": 0.19999999999999973,
                "tempo": 120.0
            },
            {
                "start_time": 3.877272727272727,
                "end_time": 4.084090909090909,
                "pitch": 44,
                "velocity": 80,
                "duration": 0.206818181818182,
                "tempo": 120.0
            },
            {
                "start_time": 4.084090909090909,
                "end_time": 4.195454545454545,
                "pitch": 40,
                "velocity": 80,
                "duration": 0.11136363636363633,
                "tempo": 120.0
            },
            {
                "start_time": 4.195454545454545,
                "end_time": 4.411363636363636,
                "pitch": 42,
                "velocity": 80,
                "duration": 0.21590909090909083,
                "tempo": 120.0
            },
            {
                "start_time": 4.411363636363636,
                "end_time": 4.515909090909091,
                "pitch": 42,
                "velocity": 80,
                "duration": 0.1045454545454545,
                "tempo": 120.0
            },
            {
                "start_time": 4.515909090909091,
                "end_time": 4.743181818181818,
                "pitch": 38,
                "velocity": 80,
                "duration": 0.22727272727272751,
                "tempo": 120.0
            },
            {
                "start_time": 4.743181818181818,
                "end_time": 4.954545454545454,
                "pitch": 37,
                "velocity": 80,
                "duration": 0.21136363636363598,
                "tempo": 120.0
            },
            {
                "start_time": 4.956818181818182,
                "end_time": 5.168181818181818,
                "pitch": 33,
                "velocity": 80,
                "duration": 0.21136363636363598,
                "tempo": 120.0
            },
            {
                "start_time": 5.170454545454545,
                "end_time": 5.368181818181818,
                "pitch": 38,
                "velocity": 80,
                "duration": 0.1977272727272732,
                "tempo": 120.0
            },
            {
                "start_time": 5.368181818181818,
                "end_time": 5.586363636363636,
                "pitch": 38,
                "velocity": 80,
                "duration": 0.2181818181818178,
                "tempo": 120.0
            },
            {
                "start_time": 5.586363636363636,
                "end_time": 5.797727272727273,
                "pitch": 38,
                "velocity": 80,
                "duration": 0.21136363636363686,
                "tempo": 120.0
            },
            {
                "start_time": 5.8,
                "end_time": 5.913636363636363,
                "pitch": 38,
                "velocity": 80,
                "duration": 0.11363636363636331,
                "tempo": 120.0
            },
            {
                "start_time": 5.913636363636363,
                "end_time": 6.113636363636363,
                "pitch": 40,
                "velocity": 80,
                "duration": 0.20000000000000018,
                "tempo": 120.0
            },
            {
                "start_time": 6.113636363636363,
                "end_time": 6.2318181818181815,
                "pitch": 40,
                "velocity": 80,
                "duration": 0.11818181818181817,
                "tempo": 120.0
            },
            {
                "start_time": 6.2340909090909085,
                "end_time": 6.454545454545454,
                "pitch": 40,
                "velocity": 80,
                "duration": 0.22045454545454568,
                "tempo": 120.0
            },
            {
                "start_time": 6.454545454545454,
                "end_time": 6.665909090909091,
                "pitch": 40,
                "velocity": 80,
                "duration": 0.21136363636363686,
                "tempo": 120.0
            },
            {
                "start_time": 6.668181818181818,
                "end_time": 6.863636363636363,
                "pitch": 40,
                "velocity": 80,
                "duration": 0.19545454545454533,
                "tempo": 120.0
            },
            {
                "start_time": 6.863636363636363,
                "end_time": 7.074999999999999,
                "pitch": 42,
                "velocity": 80,
                "duration": 0.21136363636363598,
                "tempo": 120.0
            },
            {
                "start_time": 7.077272727272727,
                "end_time": 7.288636363636363,
                "pitch": 42,
                "velocity": 80,
                "duration": 0.21136363636363598,
                "tempo": 120.0
            },
            {
                "start_time": 7.288636363636363,
                "end_time": 7.504545454545454,
                "pitch": 44,
                "velocity": 80,
                "duration": 0.21590909090909083,
                "tempo": 120.0
            },
            {
                "start_time": 7.506818181818182,
                "end_time": 7.6045454545454545,
                "pitch": 40,
                "velocity": 80,
                "duration": 0.09772727272727266,
                "tempo": 120.0
            },
            {
                "start_time": 7.6068181818181815,
                "end_time": 7.824999999999999,
                "pitch": 42,
                "velocity": 80,
                "duration": 0.2181818181818178,
                "tempo": 120.0
            },
            {
                "start_time": 7.824999999999999,
                "end_time": 7.9431818181818175,
                "pitch": 42,
                "velocity": 80,
                "duration": 0.11818181818181817,
                "tempo": 120.0
            },
            {
                "start_time": 7.945454545454545,
                "end_time": 8.165909090909091,
                "pitch": 38,
                "velocity": 80,
                "duration": 0.22045454545454568,
                "tempo": 120.0
            },
            {
                "start_time": 8.165909090909091,
                "end_time": 8.36590909090909,
                "pitch": 37,
                "velocity": 80,
                "duration": 0.1999999999999993,
                "tempo": 120.0
            },
            {
                "start_time": 8.36590909090909,
                "end_time": 8.584090909090909,
                "pitch": 33,
                "velocity": 80,
                "duration": 0.2181818181818187,
                "tempo": 120.0
            },
            {
                "start_time": 8.584090909090909,
                "end_time": 8.790909090909091,
                "pitch": 38,
                "velocity": 80,
                "duration": 0.206818181818182,
                "tempo": 120.0
            },
            {
                "start_time": 8.790909090909091,
                "end_time": 8.997727272727273,
                "pitch": 38,
                "velocity": 80,
                "duration": 0.206818181818182,
                "tempo": 120.0
            },
            {
                "start_time": 8.997727272727273,
                "end_time": 9.218181818181817,
                "pitch": 38,
                "velocity": 80,
                "duration": 0.2204545454545439,
                "tempo": 120.0
            },
            {
                "start_time": 9.218181818181817,
                "end_time": 9.320454545454545,
                "pitch": 38,
                "velocity": 80,
                "duration": 0.1022727272727284,
                "tempo": 120.0
            },
            {
                "start_time": 9.320454545454545,
                "end_time": 9.543181818181818,
                "pitch": 40,
                "velocity": 80,
                "duration": 0.22272727272727266,
                "tempo": 120.0
            },
            {
                "start_time": 9.543181818181818,
                "end_time": 9.661363636363635,
                "pitch": 40,
                "velocity": 80,
                "duration": 0.11818181818181728,
                "tempo": 120.0
            },
            {
                "start_time": 9.663636363636364,
                "end_time": 9.86590909090909,
                "pitch": 40,
                "velocity": 80,
                "duration": 0.20227272727272627,
                "tempo": 120.0
            },
            {
                "start_time": 9.868181818181817,
                "end_time": 10.068181818181818,
                "pitch": 40,
                "velocity": 80,
                "duration": 0.20000000000000107,
                "tempo": 120.0
            },
            {
                "start_time": 10.068181818181818,
                "end_time": 10.270454545454545,
                "pitch": 40,
                "velocity": 80,
                "duration": 0.20227272727272627,
                "tempo": 120.0
            },
            {
                "start_time": 10.270454545454545,
                "end_time": 10.49090909090909,
                "pitch": 42,
                "velocity": 80,
                "duration": 0.22045454545454568,
                "tempo": 120.0
            },
            {
                "start_time": 10.49090909090909,
                "end_time": 10.713636363636363,
                "pitch": 42,
                "velocity": 80,
                "duration": 0.22272727272727266,
                "tempo": 120.0
            },
            {
                "start_time": 10.713636363636363,
                "end_time": 10.929545454545455,
                "pitch": 44,
                "velocity": 80,
                "duration": 0.21590909090909172,
                "tempo": 120.0
            },
            {
                "start_time": 10.929545454545455,
                "end_time": 11.029545454545454,
                "pitch": 40,
                "velocity": 80,
                "duration": 0.09999999999999964,
                "tempo": 120.0
            },
            {
                "start_time": 11.029545454545454,
                "end_time": 11.247727272727273,
                "pitch": 42,
                "velocity": 80,
                "duration": 0.2181818181818187,
                "tempo": 120.0
            },
            {
                "start_time": 11.25,
                "end_time": 11.35,
                "pitch": 42,
                "velocity": 80,
                "duration": 0.09999999999999964,
                "tempo": 120.0
            },
            {
                "start_time": 11.352272727272727,
                "end_time": 11.572727272727272,
                "pitch": 38,
                "velocity": 80,
                "duration": 0.22045454545454568,
                "tempo": 120.0
            },
            {
                "start_time": 11.575,
                "end_time": 11.779545454545454,
                "pitch": 37,
                "velocity": 80,
                "duration": 0.20454545454545503,
                "tempo": 120.0
            },
            {
                "start_time": 11.781818181818181,
                "end_time": 11.986363636363636,
                "pitch": 33,
                "velocity": 80,
                "duration": 0.20454545454545503,
                "tempo": 120.0
            },
            {
                "start_time": 11.988636363636363,
                "end_time": 12.186363636363636,
                "pitch": 38,
                "velocity": 80,
                "duration": 0.1977272727272723,
                "tempo": 120.0
            },
            {
                "start_time": 12.188636363636363,
                "end_time": 12.404545454545454,
                "pitch": 38,
                "velocity": 80,
                "duration": 0.21590909090909172,
                "tempo": 120.0
            },
            {
                "start_time": 12.404545454545454,
                "end_time": 12.61590909090909,
                "pitch": 38,
                "velocity": 80,
                "duration": 0.21136363636363598,
                "tempo": 120.0
            },
            {
                "start_time": 12.618181818181817,
                "end_time": 12.73181818181818,
                "pitch": 38,
                "velocity": 80,
                "duration": 0.11363636363636331,
                "tempo": 120.0
            },
            {
                "start_time": 12.73181818181818,
                "end_time": 12.929545454545455,
                "pitch": 40,
                "velocity": 80,
                "duration": 0.19772727272727408,
                "tempo": 120.0
            },
            {
                "start_time": 12.929545454545455,
                "end_time": 13.045454545454545,
                "pitch": 40,
                "velocity": 80,
                "duration": 0.1159090909090903,
                "tempo": 120.0
            },
            {
                "start_time": 13.047727272727272,
                "end_time": 13.263636363636364,
                "pitch": 40,
                "velocity": 80,
                "duration": 0.21590909090909172,
                "tempo": 120.0
            },
            {
                "start_time": 13.263636363636364,
                "end_time": 13.479545454545454,
                "pitch": 40,
                "velocity": 80,
                "duration": 0.21590909090908994,
                "tempo": 120.0
            },
            {
                "start_time": 13.48181818181818,
                "end_time": 13.681818181818182,
                "pitch": 40,
                "velocity": 80,
                "duration": 0.20000000000000107,
                "tempo": 120.0
            },
            {
                "start_time": 13.681818181818182,
                "end_time": 13.893181818181818,
                "pitch": 42,
                "velocity": 80,
                "duration": 0.21136363636363598,
                "tempo": 120.0
            },
            {
                "start_time": 13.895454545454545,
                "end_time": 14.10681818181818,
                "pitch": 42,
                "velocity": 80,
                "duration": 0.21136363636363598,
                "tempo": 120.0
            },
            {
                "start_time": 14.10681818181818,
                "end_time": 14.322727272727272,
                "pitch": 44,
                "velocity": 80,
                "duration": 0.21590909090909172,
                "tempo": 120.0
            },
            {
                "start_time": 14.325,
                "end_time": 14.422727272727272,
                "pitch": 40,
                "velocity": 80,
                "duration": 0.09772727272727266,
                "tempo": 120.0
            },
            {
                "start_time": 14.424999999999999,
                "end_time": 14.643181818181818,
                "pitch": 42,
                "velocity": 80,
                "duration": 0.2181818181818187,
                "tempo": 120.0
            },
            {
                "start_time": 14.643181818181818,
                "end_time": 14.761363636363635,
                "pitch": 42,
                "velocity": 80,
                "duration": 0.11818181818181728,
                "tempo": 120.0
            },
            {
                "start_time": 14.763636363636364,
                "end_time": 14.984090909090908,
                "pitch": 38,
                "velocity": 80,
                "duration": 0.2204545454545439,
                "tempo": 120.0
            },
            {
                "start_time": 14.984090909090908,
                "end_time": 15.179545454545455,
                "pitch": 37,
                "velocity": 80,
                "duration": 0.1954545454545471,
                "tempo": 120.0
            },
            {
                "start_time": 15.179545454545455,
                "end_time": 15.393181818181818,
                "pitch": 33,
                "velocity": 80,
                "duration": 0.21363636363636296,
                "tempo": 120.0
            },
            {
                "start_time": 15.393181818181818,
                "end_time": 15.604545454545454,
                "pitch": 38,
                "velocity": 80,
                "duration": 0.21136363636363598,
                "tempo": 120.0
            },
            {
                "start_time": 15.604545454545454,
                "end_time": 15.818181818181817,
                "pitch": 38,
                "velocity": 80,
                "duration": 0.21363636363636296,
                "tempo": 120.0
            },
            {
                "start_time": 15.818181818181817,
                "end_time": 16.03409090909091,
                "pitch": 38,
                "velocity": 80,
                "duration": 0.2159090909090935,
                "tempo": 120.0
            },
            {
                "start_time": 16.036363636363635,
                "end_time": 16.134090909090908,
                "pitch": 38,
                "velocity": 80,
                "duration": 0.09772727272727266,
                "tempo": 120.0
            },
            {
                "start_time": 16.136363636363637,
                "end_time": 16.354545454545455,
                "pitch": 40,
                "velocity": 80,
                "duration": 0.2181818181818187,
                "tempo": 120.0
            },
            {
                "start_time": 16.354545454545455,
                "end_time": 16.472727272727273,
                "pitch": 40,
                "velocity": 80,
                "duration": 0.11818181818181728,
                "tempo": 120.0
            },
            {
                "start_time": 16.474999999999998,
                "end_time": 16.677272727272726,
                "pitch": 40,
                "velocity": 80,
                "duration": 0.20227272727272805,
                "tempo": 120.0
            },
            {
                "start_time": 16.679545454545455,
                "end_time": 16.884090909090908,
                "pitch": 40,
                "velocity": 80,
                "duration": 0.20454545454545325,
                "tempo": 120.0
            },
            {
                "start_time": 16.886363636363637,
                "end_time": 17.09090909090909,
                "pitch": 40,
                "velocity": 80,
                "duration": 0.20454545454545325,
                "tempo": 120.0
            },
            {
                "start_time": 17.09318181818182,
                "end_time": 17.313636363636363,
                "pitch": 42,
                "velocity": 80,
                "duration": 0.2204545454545439,
                "tempo": 120.0
            },
            {
                "start_time": 17.313636363636363,
                "end_time": 17.534090909090907,
                "pitch": 42,
                "velocity": 80,
                "duration": 0.2204545454545439,
                "tempo": 120.0
            },
            {
                "start_time": 17.536363636363635,
                "end_time": 17.752272727272725,
                "pitch": 44,
                "velocity": 80,
                "duration": 0.21590909090908994,
                "tempo": 120.0
            },
            {
                "start_time": 17.752272727272725,
                "end_time": 17.852272727272727,
                "pitch": 40,
                "velocity": 80,
                "duration": 0.10000000000000142,
                "tempo": 120.0
            },
            {
                "start_time": 17.852272727272727,
                "end_time": 18.068181818181817,
                "pitch": 42,
                "velocity": 80,
                "duration": 0.21590909090908994,
                "tempo": 120.0
            },
            {
                "start_time": 18.070454545454545,
                "end_time": 18.170454545454543,
                "pitch": 42,
                "velocity": 80,
                "duration": 0.09999999999999787,
                "tempo": 120.0
            },
            {
                "start_time": 18.170454545454543,
                "end_time": 18.386363636363637,
                "pitch": 38,
                "velocity": 80,
                "duration": 0.2159090909090935,
                "tempo": 120.0
            },
            {
                "start_time": 18.386363636363637,
                "end_time": 18.59318181818182,
                "pitch": 37,
                "velocity": 80,
                "duration": 0.206818181818182,
                "tempo": 120.0
            },
            {
                "start_time": 18.59318181818182,
                "end_time": 18.8,
                "pitch": 33,
                "velocity": 80,
                "duration": 0.206818181818182,
                "tempo": 120.0
            },
            {
                "start_time": 18.802272727272726,
                "end_time": 19.243181818181817,
                "pitch": 35,
                "velocity": 80,
                "duration": 0.44090909090909136,
                "tempo": 120.0
            },
            {
                "start_time": 19.245454545454546,
                "end_time": 19.461363636363636,
                "pitch": 35,
                "velocity": 80,
                "duration": 0.21590909090908994,
                "tempo": 120.0
            },
            {
                "start_time": 19.461363636363636,
                "end_time": 19.561363636363634,
                "pitch": 35,
                "velocity": 80,
                "duration": 0.09999999999999787,
                "tempo": 120.0
            },
            {
                "start_time": 19.561363636363634,
                "end_time": 19.775,
                "pitch": 37,
                "velocity": 80,
                "duration": 0.21363636363636473,
                "tempo": 120.0
            },
            {
                "start_time": 19.775,
                "end_time": 19.87272727272727,
                "pitch": 37,
                "velocity": 80,
                "duration": 0.09772727272727266,
                "tempo": 120.0
            },
            {
                "start_time": 19.875,
                "end_time": 20.086363636363636,
                "pitch": 37,
                "velocity": 80,
                "duration": 0.21136363636363598,
                "tempo": 120.0
            },
            {
                "start_time": 20.086363636363636,
                "end_time": 20.302272727272726,
                "pitch": 37,
                "velocity": 80,
                "duration": 0.21590909090908994,
                "tempo": 120.0
            },
            {
                "start_time": 20.304545454545455,
                "end_time": 20.520454545454545,
                "pitch": 37,
                "velocity": 80,
                "duration": 0.21590909090908994,
                "tempo": 120.0
            },
            {
                "start_time": 20.520454545454545,
                "end_time": 20.954545454545453,
                "pitch": 38,
                "velocity": 80,
                "duration": 0.43409090909090864,
                "tempo": 120.0
            },
            {
                "start_time": 20.956818181818182,
                "end_time": 21.154545454545453,
                "pitch": 38,
                "velocity": 80,
                "duration": 0.19772727272727053,
                "tempo": 120.0
            },
            {
                "start_time": 21.15681818181818,
                "end_time": 21.272727272727273,
                "pitch": 38,
                "velocity": 80,
                "duration": 0.11590909090909207,
                "tempo": 120.0
            },
            {
                "start_time": 21.272727272727273,
                "end_time": 21.488636363636363,
                "pitch": 40,
                "velocity": 80,
                "duration": 0.21590909090908994,
                "tempo": 120.0
            },
            {
                "start_time": 21.488636363636363,
                "end_time": 21.58863636363636,
                "pitch": 40,
                "velocity": 80,
                "duration": 0.09999999999999787,
                "tempo": 120.0
            },
            {
                "start_time": 21.59090909090909,
                "end_time": 21.80681818181818,
                "pitch": 40,
                "velocity": 80,
                "duration": 0.21590909090908994,
                "tempo": 120.0
            },
            {
                "start_time": 21.80681818181818,
                "end_time": 22.018181818181816,
                "pitch": 40,
                "velocity": 80,
                "duration": 0.21136363636363598,
                "tempo": 120.0
            },
            {
                "start_time": 22.020454545454545,
                "end_time": 22.23181818181818,
                "pitch": 40,
                "velocity": 80,
                "duration": 0.21136363636363598,
                "tempo": 120.0
            },
            {
                "start_time": 22.23181818181818,
                "end_time": 22.65,
                "pitch": 42,
                "velocity": 80,
                "duration": 0.418181818181818,
                "tempo": 120.0
            },
            {
                "start_time": 22.65,
                "end_time": 22.861363636363635,
                "pitch": 44,
                "velocity": 80,
                "duration": 0.21136363636363598,
                "tempo": 120.0
            },
            {
                "start_time": 22.861363636363635,
                "end_time": 22.974999999999998,
                "pitch": 40,
                "velocity": 80,
                "duration": 0.11363636363636331,
                "tempo": 120.0
            },
            {
                "start_time": 22.977272727272727,
                "end_time": 23.193181818181817,
                "pitch": 42,
                "velocity": 80,
                "duration": 0.21590909090908994,
                "tempo": 120.0
            },
            {
                "start_time": 23.193181818181817,
                "end_time": 23.295454545454543,
                "pitch": 42,
                "velocity": 80,
                "duration": 0.10227272727272663,
                "tempo": 120.0
            },
            {
                "start_time": 23.295454545454543,
                "end_time": 23.518181818181816,
                "pitch": 38,
                "velocity": 80,
                "duration": 0.22272727272727266,
                "tempo": 120.0
            },
            {
                "start_time": 23.518181818181816,
                "end_time": 23.729545454545452,
                "pitch": 37,
                "velocity": 80,
                "duration": 0.21136363636363598,
                "tempo": 120.0
            },
            {
                "start_time": 23.729545454545452,
                "end_time": 23.943181818181817,
                "pitch": 33,
                "velocity": 80,
                "duration": 0.21363636363636473,
                "tempo": 120.0
            },
            {
                "start_time": 23.943181818181817,
                "end_time": 24.14772727272727,
                "pitch": 38,
                "velocity": 80,
                "duration": 0.20454545454545325,
                "tempo": 120.0
            },
            {
                "start_time": 24.14772727272727,
                "end_time": 24.368181818181817,
                "pitch": 38,
                "velocity": 80,
                "duration": 0.22045454545454746,
                "tempo": 120.0
            },
            {
                "start_time": 24.370454545454546,
                "end_time": 24.575,
                "pitch": 38,
                "velocity": 80,
                "duration": 0.20454545454545325,
                "tempo": 120.0
            },
            {
                "start_time": 24.577272727272724,
                "end_time": 24.686363636363634,
                "pitch": 38,
                "velocity": 80,
                "duration": 0.10909090909090935,
                "tempo": 120.0
            },
            {
                "start_time": 24.688636363636363,
                "end_time": 24.884090909090908,
                "pitch": 37,
                "velocity": 80,
                "duration": 0.19545454545454533,
                "tempo": 120.0
            },
            {
                "start_time": 24.884090909090908,
                "end_time": 25.002272727272725,
                "pitch": 37,
                "velocity": 80,
                "duration": 0.11818181818181728,
                "tempo": 120.0
            },
            {
                "start_time": 25.004545454545454,
                "end_time": 25.224999999999998,
                "pitch": 37,
                "velocity": 80,
                "duration": 0.2204545454545439,
                "tempo": 120.0
            },
            {
                "start_time": 25.227272727272727,
                "end_time": 25.443181818181817,
                "pitch": 37,
                "velocity": 80,
                "duration": 0.21590909090908994,
                "tempo": 120.0
            },
            {
                "start_time": 25.443181818181817,
                "end_time": 25.643181818181816,
                "pitch": 37,
                "velocity": 80,
                "duration": 0.1999999999999993,
                "tempo": 120.0
            },
            {
                "start_time": 25.643181818181816,
                "end_time": 26.05681818181818,
                "pitch": 35,
                "velocity": 80,
                "duration": 0.413636363636364,
                "tempo": 120.0
            },
            {
                "start_time": 26.05681818181818,
                "end_time": 26.277272727272727,
                "pitch": 35,
                "velocity": 80,
                "duration": 0.22045454545454746,
                "tempo": 120.0
            },
            {
                "start_time": 26.279545454545453,
                "end_time": 26.379545454545454,
                "pitch": 35,
                "velocity": 80,
                "duration": 0.10000000000000142,
                "tempo": 120.0
            },
            {
                "start_time": 26.38181818181818,
                "end_time": 26.599999999999998,
                "pitch": 37,
                "velocity": 80,
                "duration": 0.2181818181818187,
                "tempo": 120.0
            },
            {
                "start_time": 26.599999999999998,
                "end_time": 26.71590909090909,
                "pitch": 37,
                "velocity": 80,
                "duration": 0.11590909090909207,
                "tempo": 120.0
            },
            {
                "start_time": 26.718181818181815,
                "end_time": 26.93409090909091,
                "pitch": 37,
                "velocity": 80,
                "duration": 0.2159090909090935,
                "tempo": 120.0
            },
            {
                "start_time": 26.93409090909091,
                "end_time": 27.125,
                "pitch": 37,
                "velocity": 80,
                "duration": 0.19090909090909136,
                "tempo": 120.0
            },
            {
                "start_time": 27.125,
                "end_time": 27.331818181818182,
                "pitch": 37,
                "velocity": 80,
                "duration": 0.206818181818182,
                "tempo": 120.0
            },
            {
                "start_time": 27.331818181818182,
                "end_time": 27.775,
                "pitch": 38,
                "velocity": 80,
                "duration": 0.44318181818181657,
                "tempo": 120.0
            },
            {
                "start_time": 27.775,
                "end_time": 27.99090909090909,
                "pitch": 38,
                "velocity": 80,
                "duration": 0.21590909090908994,
                "tempo": 120.0
            },
            {
                "start_time": 27.993181818181817,
                "end_time": 28.09090909090909,
                "pitch": 38,
                "velocity": 80,
                "duration": 0.09772727272727266,
                "tempo": 120.0
            },
            {
                "start_time": 28.093181818181815,
                "end_time": 28.311363636363634,
                "pitch": 40,
                "velocity": 80,
                "duration": 0.2181818181818187,
                "tempo": 120.0
            },
            {
                "start_time": 28.311363636363634,
                "end_time": 28.429545454545455,
                "pitch": 40,
                "velocity": 80,
                "duration": 0.11818181818182083,
                "tempo": 120.0
            },
            {
                "start_time": 28.429545454545455,
                "end_time": 28.634090909090908,
                "pitch": 40,
                "velocity": 80,
                "duration": 0.20454545454545325,
                "tempo": 120.0
            },
            {
                "start_time": 28.636363636363637,
                "end_time": 28.84090909090909,
                "pitch": 40,
                "velocity": 80,
                "duration": 0.20454545454545325,
                "tempo": 120.0
            },
            {
                "start_time": 28.843181818181815,
                "end_time": 29.047727272727272,
                "pitch": 40,
                "velocity": 80,
                "duration": 0.2045454545454568,
                "tempo": 120.0
            },
            {
                "start_time": 29.049999999999997,
                "end_time": 29.48409090909091,
                "pitch": 42,
                "velocity": 80,
                "duration": 0.4340909090909122,
                "tempo": 120.0
            },
            {
                "start_time": 29.48409090909091,
                "end_time": 29.7,
                "pitch": 44,
                "velocity": 80,
                "duration": 0.21590909090908994,
                "tempo": 120.0
            },
            {
                "start_time": 29.7,
                "end_time": 29.799999999999997,
                "pitch": 40,
                "velocity": 80,
                "duration": 0.09999999999999787,
                "tempo": 120.0
            },
            {
                "start_time": 29.799999999999997,
                "end_time": 30.018181818181816,
                "pitch": 42,
                "velocity": 80,
                "duration": 0.2181818181818187,
                "tempo": 120.0
            },
            {
                "start_time": 30.018181818181816,
                "end_time": 30.118181818181817,
                "pitch": 42,
                "velocity": 80,
                "duration": 0.10000000000000142,
                "tempo": 120.0
            },
            {
                "start_time": 30.118181818181817,
                "end_time": 30.334090909090907,
                "pitch": 38,
                "velocity": 80,
                "duration": 0.21590909090908994,
                "tempo": 120.0
            },
            {
                "start_time": 30.336363636363636,
                "end_time": 30.547727272727272,
                "pitch": 37,
                "velocity": 80,
                "duration": 0.21136363636363598,
                "tempo": 120.0
            },
            {
                "start_time": 30.547727272727272,
                "end_time": 30.759090909090908,
                "pitch": 33,
                "velocity": 80,
                "duration": 0.21136363636363598,
                "tempo": 120.0
            },
            {
                "start_time": 30.761363636363633,
                "end_time": 31.202272727272724,
                "pitch": 35,
                "velocity": 80,
                "duration": 0.44090909090909136,
                "tempo": 120.0
            },
            {
                "start_time": 31.613636363636363,
                "end_time": 31.825,
                "pitch": 37,
                "velocity": 80,
                "duration": 0.21136363636363598,
                "tempo": 120.0
            },
            {
                "start_time": 31.825,
                "end_time": 32.03636363636363,
                "pitch": 37,
                "velocity": 80,
                "duration": 0.21136363636363242,
                "tempo": 120.0
            },
            {
                "start_time": 32.038636363636364,
                "end_time": 32.15681818181818,
                "pitch": 45,
                "velocity": 80,
                "duration": 0.11818181818181728,
                "tempo": 120.0
            },
            {
                "start_time": 32.15681818181818,
                "end_time": 32.361363636363635,
                "pitch": 44,
                "velocity": 80,
                "duration": 0.20454545454545325,
                "tempo": 120.0
            },
            {
                "start_time": 32.361363636363635,
                "end_time": 32.69772727272727,
                "pitch": 42,
                "velocity": 80,
                "duration": 0.336363636363636,
                "tempo": 120.0
            },
            {
                "start_time": 32.69772727272727,
                "end_time": 32.913636363636364,
                "pitch": 42,
                "velocity": 80,
                "duration": 0.2159090909090935,
                "tempo": 120.0
            },
            {
                "start_time": 32.913636363636364,
                "end_time": 33.10454545454545,
                "pitch": 44,
                "velocity": 80,
                "duration": 0.1909090909090878,
                "tempo": 120.0
            },
            {
                "start_time": 33.10454545454545,
                "end_time": 33.215909090909086,
                "pitch": 40,
                "velocity": 80,
                "duration": 0.11136363636363455,
                "tempo": 120.0
            },
            {
                "start_time": 33.215909090909086,
                "end_time": 33.53181818181818,
                "pitch": 42,
                "velocity": 80,
                "duration": 0.3159090909090949,
                "tempo": 120.0
            },
            {
                "start_time": 33.53409090909091,
                "end_time": 33.75454545454545,
                "pitch": 37,
                "velocity": 80,
                "duration": 0.2204545454545439,
                "tempo": 120.0
            },
            {
                "start_time": 33.75454545454545,
                "end_time": 33.965909090909086,
                "pitch": 40,
                "velocity": 80,
                "duration": 0.21136363636363598,
                "tempo": 120.0
            },
            {
                "start_time": 33.96818181818182,
                "end_time": 34.179545454545455,
                "pitch": 37,
                "velocity": 80,
                "duration": 0.21136363636363598,
                "tempo": 120.0
            }
        ]
    }
}