{
    "track_id": "06 Boss",
    "mood": "angry",
    "instruments": {
        "Electric Guitar (clean)": [
            {
                "start_time": 0.006818181818181818,
                "end_time": 0.07727272727272727,
                "pitch": 40,
                "velocity": 127,
                "duration": 0.07045454545454545,
                "tempo": 120.0
            },
            {
                "start_time": 0.09545454545454544,
                "end_time": 0.17727272727272728,
                "pitch": 52,
                "velocity": 127,
                "duration": 0.08181818181818183,
                "tempo": 120.0
            },
            {
                "start_time": 0.19545454545454544,
                "end_time": 0.2772727272727273,
                "pitch": 40,
                "velocity": 127,
                "duration": 0.08181818181818185,
                "tempo": 120.0
            },
            {
                "start_time": 0.2954545454545454,
                "end_time": 0.37727272727272726,
                "pitch": 52,
                "velocity": 127,
                "duration": 0.08181818181818185,
                "tempo": 120.0
            },
            {
                "start_time": 0.39545454545454545,
                "end_time": 0.4727272727272727,
                "pitch": 40,
                "velocity": 127,
                "duration": 0.07727272727272727,
                "tempo": 120.0
            },
            {
                "start_time": 0.4909090909090909,
                "end_time": 0.5681818181818181,
                "pitch": 52,
                "velocity": 127,
                "duration": 0.07727272727272722,
                "tempo": 120.0
            },
            {
                "start_time": 0.5863636363636363,
                "end_time": 0.6636363636363636,
                "pitch": 40,
                "velocity": 127,
                "duration": 0.07727272727272727,
                "tempo": 120.0
            },
            {
                "start_time": 0.6818181818181818,
                "end_time": 0.759090909090909,
                "pitch": 52,
                "velocity": 127,
                "duration": 0.07727272727272727,
                "tempo": 120.0
            },
            {
                "start_time": 0.7772727272727272,
                "end_time": 0.8613636363636363,
                "pitch": 40,
                "velocity": 127,
                "duration": 0.0840909090909091,
                "tempo": 120.0
            },
            {
                "start_time": 0.8795454545454545,
                "end_time": 0.9636363636363636,
                "pitch": 52,
                "velocity": 127,
                "duration": 0.0840909090909091,
                "tempo": 120.0
            },
            {
                "start_time": 0.984090909090909,
                "end_time": 1.065909090909091,
                "pitch": 40,
                "velocity": 127,
                "duration": 0.0818181818181819,
                "tempo": 120.0
            },
            {
                "start_time": 1.0863636363636364,
                "end_time": 1.1704545454545454,
                "pitch": 52,
                "velocity": 127,
                "duration": 0.084090909090909,
                "tempo": 120.0
            },
            {
                "start_time": 1.1886363636363635,
                "end_time": 1.2704545454545455,
                "pitch": 40,
                "velocity": 127,
                "duration": 0.08181818181818201,
                "tempo": 120.0
            },
            {
                "start_time": 1.2886363636363636,
                "end_time": 1.3704545454545454,
                "pitch": 52,
                "velocity": 127,
                "duration": 0.08181818181818179,
                "tempo": 120.0
            },
            {
                "start_time": 1.3886363636363637,
                "end_time": 1.4704545454545455,
                "pitch": 40,
                "velocity": 127,
                "duration": 0.08181818181818179,
                "tempo": 120.0
            },
            {
                "start_time": 1.4886363636363635,
                "end_time": 1.5704545454545453,
                "pitch": 52,
                "velocity": 127,
                "duration": 0.08181818181818179,
                "tempo": 120.0
            },
            {
                "start_time": 1.5909090909090908,
                "end_time": 1.6727272727272726,
                "pitch": 41,
                "velocity": 127,
                "duration": 0.08181818181818179,
                "tempo": 120.0
            },
            {
                "start_time": 1.6886363636363635,
                "end_time": 1.7727272727272727,
                "pitch": 53,
                "velocity": 127,
                "duration": 0.08409090909090922,
                "tempo": 120.0
            },
            {
                "start_time": 1.7909090909090908,
                "end_time": 1.8727272727272726,
                "pitch": 41,
                "velocity": 127,
                "duration": 0.08181818181818179,
                "tempo": 120.0
            },
            {
                "start_time": 1.8909090909090909,
                "end_time": 1.9749999999999999,
                "pitch": 53,
                "velocity": 127,
                "duration": 0.084090909090909,
                "tempo": 120.0
            },
            {
                "start_time": 1.9931818181818182,
                "end_time": 2.0749999999999997,
                "pitch": 41,
                "velocity": 127,
                "duration": 0.08181818181818157,
                "tempo": 120.0
            },
            {
                "start_time": 2.0931818181818183,
                "end_time": 2.175,
                "pitch": 53,
                "velocity": 127,
                "duration": 0.08181818181818157,
                "tempo": 120.0
            },
            {
                "start_time": 2.193181818181818,
                "end_time": 2.275,
                "pitch": 41,
                "velocity": 127,
                "duration": 0.08181818181818201,
                "tempo": 120.0
            },
            {
                "start_time": 2.293181818181818,
                "end_time": 2.375,
                "pitch": 53,
                "velocity": 127,
                "duration": 0.08181818181818201,
                "tempo": 120.0
            },
            {
                "start_time": 2.393181818181818,
                "end_time": 2.475,
                "pitch": 41,
                "velocity": 127,
                "duration": 0.08181818181818201,
                "tempo": 120.0
            },
            {
                "start_time": 2.493181818181818,
                "end_time": 2.5749999999999997,
                "pitch": 53,
                "velocity": 127,
                "duration": 0.08181818181818157,
                "tempo": 120.0
            },
            {
                "start_time": 2.5931818181818183,
                "end_time": 2.675,
                "pitch": 41,
                "velocity": 127,
                "duration": 0.08181818181818157,
                "tempo": 120.0
            },
            {
                "start_time": 2.693181818181818,
                "end_time": 2.775,
                "pitch": 53,
                "velocity": 127,
                "duration": 0.08181818181818201,
                "tempo": 120.0
            },
            {
                "start_time": 2.793181818181818,
                "end_time": 2.875,
                "pitch": 41,
                "velocity": 127,
                "duration": 0.08181818181818201,
                "tempo": 120.0
            },
            {
                "start_time": 2.893181818181818,
                "end_time": 2.9749999999999996,
                "pitch": 53,
                "velocity": 127,
                "duration": 0.08181818181818157,
                "tempo": 120.0
            },
            {
                "start_time": 2.995454545454545,
                "end_time": 3.0749999999999997,
                "pitch": 41,
                "velocity": 127,
                "duration": 0.07954545454545459,
                "tempo": 120.0
            },
            {
                "start_time": 3.093181818181818,
                "end_time": 3.175,
                "pitch": 53,
                "velocity": 127,
                "duration": 0.08181818181818201,
                "tempo": 120.0
            },
            {
                "start_time": 3.1954545454545453,
                "end_time": 3.277272727272727,
                "pitch": 43,
                "velocity": 127,
                "duration": 0.08181818181818157,
                "tempo": 120.0
            },
            {
                "start_time": 3.2954545454545454,
                "end_time": 3.377272727272727,
                "pitch": 55,
                "velocity": 127,
                "duration": 0.08181818181818157,
                "tempo": 120.0
            },
            {
                "start_time": 3.3954545454545455,
                "end_time": 3.477272727272727,
                "pitch": 43,
                "velocity": 127,
                "duration": 0.08181818181818157,
                "tempo": 120.0
            },
            {
                "start_time": 3.495454545454545,
                "end_time": 3.5795454545454546,
                "pitch": 55,
                "velocity": 127,
                "duration": 0.08409090909090944,
                "tempo": 120.0
            },
            {
                "start_time": 3.5977272727272727,
                "end_time": 3.6795454545454542,
                "pitch": 43,
                "velocity": 127,
                "duration": 0.08181818181818157,
                "tempo": 120.0
            },
            {
                "start_time": 3.6977272727272728,
                "end_time": 3.7795454545454543,
                "pitch": 55,
                "velocity": 127,
                "duration": 0.08181818181818157,
                "tempo": 120.0
            },
            {
                "start_time": 3.7977272727272724,
                "end_time": 3.8795454545454544,
                "pitch": 43,
                "velocity": 127,
                "duration": 0.08181818181818201,
                "tempo": 120.0
            },
            {
                "start_time": 3.8977272727272725,
                "end_time": 3.9795454545454545,
                "pitch": 55,
                "velocity": 127,
                "duration": 0.08181818181818201,
                "tempo": 120.0
            },
            {
                "start_time": 3.9977272727272726,
                "end_time": 4.079545454545454,
                "pitch": 43,
                "velocity": 127,
                "duration": 0.08181818181818157,
                "tempo": 120.0
            },
            {
                "start_time": 4.097727272727273,
                "end_time": 4.179545454545455,
                "pitch": 55,
                "velocity": 127,
                "duration": 0.08181818181818201,
                "tempo": 120.0
            },
            {
                "start_time": 4.197727272727272,
                "end_time": 4.279545454545454,
                "pitch": 43,
                "velocity": 127,
                "duration": 0.08181818181818201,
                "tempo": 120.0
            },
            {
                "start_time": 4.297727272727273,
                "end_time": 4.379545454545454,
                "pitch": 55,
                "velocity": 127,
                "duration": 0.08181818181818112,
                "tempo": 120.0
            },
            {
                "start_time": 4.3999999999999995,
                "end_time": 4.4795454545454545,
                "pitch": 43,
                "velocity": 127,
                "duration": 0.07954545454545503,
                "tempo": 120.0
            },
            {
                "start_time": 4.497727272727272,
                "end_time": 4.581818181818182,
                "pitch": 55,
                "velocity": 127,
                "duration": 0.08409090909090988,
                "tempo": 120.0
            },
            {
                "start_time": 4.6,
                "end_time": 4.681818181818182,
                "pitch": 43,
                "velocity": 127,
                "duration": 0.08181818181818201,
                "tempo": 120.0
            },
            {
                "start_time": 4.7,
                "end_time": 4.784090909090909,
                "pitch": 55,
                "velocity": 127,
                "duration": 0.084090909090909,
                "tempo": 120.0
            },
            {
                "start_time": 4.802272727272727,
                "end_time": 4.886363636363636,
                "pitch": 41,
                "velocity": 127,
                "duration": 0.084090909090909,
                "tempo": 120.0
            },
            {
                "start_time": 4.904545454545454,
                "end_time": 4.988636363636363,
                "pitch": 53,
                "velocity": 127,
                "duration": 0.084090909090909,
                "tempo": 120.0
            },
            {
                "start_time": 5.006818181818182,
                "end_time": 5.090909090909091,
                "pitch": 41,
                "velocity": 127,
                "duration": 0.084090909090909,
                "tempo": 120.0
            },
            {
                "start_time": 5.1090909090909085,
                "end_time": 5.193181818181818,
                "pitch": 53,
                "velocity": 127,
                "duration": 0.08409090909090988,
                "tempo": 120.0
            },
            {
                "start_time": 5.213636363636363,
                "end_time": 5.293181818181818,
                "pitch": 41,
                "velocity": 127,
                "duration": 0.07954545454545503,
                "tempo": 120.0
            },
            {
                "start_time": 5.3113636363636365,
                "end_time": 5.390909090909091,
                "pitch": 53,
                "velocity": 127,
                "duration": 0.07954545454545414,
                "tempo": 120.0
            },
            {
                "start_time": 5.409090909090909,
                "end_time": 5.488636363636363,
                "pitch": 41,
                "velocity": 127,
                "duration": 0.07954545454545414,
                "tempo": 120.0
            },
            {
                "start_time": 5.506818181818182,
                "end_time": 5.586363636363636,
                "pitch": 53,
                "velocity": 127,
                "duration": 0.07954545454545414,
                "tempo": 120.0
            },
            {
                "start_time": 5.6068181818181815,
                "end_time": 5.6863636363636365,
                "pitch": 41,
                "velocity": 127,
                "duration": 0.07954545454545503,
                "tempo": 120.0
            },
            {
                "start_time": 5.704545454545454,
                "end_time": 5.786363636363636,
                "pitch": 53,
                "velocity": 127,
                "duration": 0.08181818181818201,
                "tempo": 120.0
            },
            {
                "start_time": 5.806818181818182,
                "end_time": 5.886363636363636,
                "pitch": 41,
                "velocity": 127,
                "duration": 0.07954545454545414,
                "tempo": 120.0
            },
            {
                "start_time": 5.904545454545454,
                "end_time": 5.988636363636363,
                "pitch": 53,
                "velocity": 127,
                "duration": 0.084090909090909,
                "tempo": 120.0
            },
            {
                "start_time": 6.006818181818182,
                "end_time": 6.088636363636363,
                "pitch": 41,
                "velocity": 127,
                "duration": 0.08181818181818112,
                "tempo": 120.0
            },
            {
                "start_time": 6.1068181818181815,
                "end_time": 6.1886363636363635,
                "pitch": 53,
                "velocity": 127,
                "duration": 0.08181818181818201,
                "tempo": 120.0
            },
            {
                "start_time": 6.209090909090909,
                "end_time": 6.290909090909091,
                "pitch": 41,
                "velocity": 127,
                "duration": 0.08181818181818201,
                "tempo": 120.0
            },
            {
                "start_time": 6.309090909090909,
                "end_time": 6.390909090909091,
                "pitch": 53,
                "velocity": 127,
                "duration": 0.08181818181818201,
                "tempo": 120.0
            },
            {
                "start_time": 6.411363636363636,
                "end_time": 6.49090909090909,
                "pitch": 40,
                "velocity": 127,
                "duration": 0.07954545454545414,
                "tempo": 120.0
            },
            {
                "start_time": 6.509090909090909,
                "end_time": 6.593181818181818,
                "pitch": 52,
                "velocity": 127,
                "duration": 0.084090909090909,
                "tempo": 120.0
            },
            {
                "start_time": 6.611363636363636,
                "end_time": 6.6931818181818175,
                "pitch": 40,
                "velocity": 127,
                "duration": 0.08181818181818112,
                "tempo": 120.0
            },
            {
                "start_time": 6.711363636363636,
                "end_time": 6.793181818181818,
                "pitch": 52,
                "velocity": 127,
                "duration": 0.08181818181818201,
                "tempo": 120.0
            },
            {
                "start_time": 6.8136363636363635,
                "end_time": 6.893181818181818,
                "pitch": 40,
                "velocity": 127,
                "duration": 0.07954545454545414,
                "tempo": 120.0
            },
            {
                "start_time": 6.911363636363636,
                "end_time": 6.993181818181818,
                "pitch": 52,
                "velocity": 127,
                "duration": 0.08181818181818201,
                "tempo": 120.0
            },
            {
                "start_time": 7.013636363636364,
                "end_time": 7.095454545454545,
                "pitch": 40,
                "velocity": 127,
                "duration": 0.08181818181818112,
                "tempo": 120.0
            },
            {
                "start_time": 7.111363636363636,
                "end_time": 7.195454545454545,
                "pitch": 52,
                "velocity": 127,
                "duration": 0.084090909090909,
                "tempo": 120.0
            },
            {
                "start_time": 7.213636363636363,
                "end_time": 7.295454545454545,
                "pitch": 40,
                "velocity": 127,
                "duration": 0.08181818181818201,
                "tempo": 120.0
            },
            {
                "start_time": 7.3136363636363635,
                "end_time": 7.3954545454545455,
                "pitch": 52,
                "velocity": 127,
                "duration": 0.08181818181818201,
                "tempo": 120.0
            },
            {
                "start_time": 7.41590909090909,
                "end_time": 7.497727272727272,
                "pitch": 40,
                "velocity": 127,
                "duration": 0.08181818181818201,
                "tempo": 120.0
            },
            {
                "start_time": 7.515909090909091,
                "end_time": 7.597727272727273,
                "pitch": 52,
                "velocity": 127,
                "duration": 0.08181818181818201,
                "tempo": 120.0
            },
            {
                "start_time": 7.61590909090909,
                "end_time": 7.697727272727272,
                "pitch": 40,
                "velocity": 127,
                "duration": 0.08181818181818201,
                "tempo": 120.0
            },
            {
                "start_time": 7.715909090909091,
                "end_time": 7.797727272727272,
                "pitch": 52,
                "velocity": 127,
                "duration": 0.08181818181818112,
                "tempo": 120.0
            },
            {
                "start_time": 7.8159090909090905,
                "end_time": 7.8977272727272725,
                "pitch": 40,
                "velocity": 127,
                "duration": 0.08181818181818201,
                "tempo": 120.0
            },
            {
                "start_time": 7.91590909090909,
                "end_time": 7.997727272727272,
                "pitch": 52,
                "velocity": 127,
                "duration": 0.08181818181818201,
                "tempo": 120.0
            },
            {
                "start_time": 8.018181818181818,
                "end_time": 8.1,
                "pitch": 41,
                "velocity": 127,
                "duration": 0.08181818181818201,
                "tempo": 120.0
            },
            {
                "start_time": 8.118181818181817,
                "end_time": 8.202272727272726,
                "pitch": 53,
                "velocity": 127,
                "duration": 0.084090909090909,
                "tempo": 120.0
            },
            {
                "start_time": 8.222727272727273,
                "end_time": 8.306818181818182,
                "pitch": 41,
                "velocity": 127,
                "duration": 0.084090909090909,
                "tempo": 120.0
            },
            {
                "start_time": 8.325,
                "end_time": 8.409090909090908,
                "pitch": 53,
                "velocity": 127,
                "duration": 0.084090909090909,
                "tempo": 120.0
            },
            {
                "start_time": 8.429545454545455,
                "end_time": 8.511363636363637,
                "pitch": 41,
                "velocity": 127,
                "duration": 0.08181818181818201,
                "tempo": 120.0
            },
            {
                "start_time": 8.529545454545454,
                "end_time": 8.611363636363636,
                "pitch": 53,
                "velocity": 127,
                "duration": 0.08181818181818201,
                "tempo": 120.0
            },
            {
                "start_time": 8.629545454545454,
                "end_time": 8.711363636363636,
                "pitch": 41,
                "velocity": 127,
                "duration": 0.08181818181818201,
                "tempo": 120.0
            },
            {
                "start_time": 8.729545454545454,
                "end_time": 8.813636363636363,
                "pitch": 53,
                "velocity": 127,
                "duration": 0.084090909090909,
                "tempo": 120.0
            },
            {
                "start_time": 8.831818181818182,
                "end_time": 8.913636363636364,
                "pitch": 41,
                "velocity": 127,
                "duration": 0.08181818181818201,
                "tempo": 120.0
            },
            {
                "start_time": 8.931818181818182,
                "end_time": 9.013636363636364,
                "pitch": 53,
                "velocity": 127,
                "duration": 0.08181818181818201,
                "tempo": 120.0
            },
            {
                "start_time": 9.034090909090908,
                "end_time": 9.11590909090909,
                "pitch": 41,
                "velocity": 127,
                "duration": 0.08181818181818201,
                "tempo": 120.0
            },
            {
                "start_time": 9.134090909090908,
                "end_time": 9.21590909090909,
                "pitch": 53,
                "velocity": 127,
                "duration": 0.08181818181818201,
                "tempo": 120.0
            },
            {
                "start_time": 9.23409090909091,
                "end_time": 9.31590909090909,
                "pitch": 41,
                "velocity": 127,
                "duration": 0.08181818181818024,
                "tempo": 120.0
            },
            {
                "start_time": 9.334090909090909,
                "end_time": 9.418181818181818,
                "pitch": 53,
                "velocity": 127,
                "duration": 0.084090909090909,
                "tempo": 120.0
            },
            {
                "start_time": 9.436363636363636,
                "end_time": 9.518181818181818,
                "pitch": 41,
                "velocity": 127,
                "duration": 0.08181818181818201,
                "tempo": 120.0
            },
            {
                "start_time": 9.536363636363635,
                "end_time": 9.618181818181817,
                "pitch": 53,
                "velocity": 127,
                "duration": 0.08181818181818201,
                "tempo": 120.0
            },
            {
                "start_time": 9.638636363636364,
                "end_time": 9.720454545454546,
                "pitch": 43,
                "velocity": 127,
                "duration": 0.08181818181818201,
                "tempo": 120.0
            },
            {
                "start_time": 9.736363636363636,
                "end_time": 9.820454545454545,
                "pitch": 55,
                "velocity": 127,
                "duration": 0.084090909090909,
                "tempo": 120.0
            },
            {
                "start_time": 9.838636363636363,
                "end_time": 9.920454545454545,
                "pitch": 43,
                "velocity": 127,
                "duration": 0.08181818181818201,
                "tempo": 120.0
            },
            {
                "start_time": 9.938636363636363,
                "end_time": 10.020454545454545,
                "pitch": 55,
                "velocity": 127,
                "duration": 0.08181818181818201,
                "tempo": 120.0
            },
            {
                "start_time": 10.038636363636364,
                "end_time": 10.120454545454544,
                "pitch": 43,
                "velocity": 127,
                "duration": 0.08181818181818024,
                "tempo": 120.0
            },
            {
                "start_time": 10.138636363636364,
                "end_time": 10.220454545454546,
                "pitch": 55,
                "velocity": 127,
                "duration": 0.08181818181818201,
                "tempo": 120.0
            },
            {
                "start_time": 10.24090909090909,
                "end_time": 10.322727272727272,
                "pitch": 43,
                "velocity": 127,
                "duration": 0.08181818181818201,
                "tempo": 120.0
            },
            {
                "start_time": 10.34090909090909,
                "end_time": 10.422727272727272,
                "pitch": 55,
                "velocity": 127,
                "duration": 0.08181818181818201,
                "tempo": 120.0
            },
            {
                "start_time": 10.44090909090909,
                "end_time": 10.522727272727272,
                "pitch": 43,
                "velocity": 127,
                "duration": 0.08181818181818201,
                "tempo": 120.0
            },
            {
                "start_time": 10.540909090909091,
                "end_time": 10.625,
                "pitch": 55,
                "velocity": 127,
                "duration": 0.084090909090909,
                "tempo": 120.0
            },
            {
                "start_time": 10.643181818181818,
                "end_time": 10.725,
                "pitch": 43,
                "velocity": 127,
                "duration": 0.08181818181818201,
                "tempo": 120.0
            },
            {
                "start_time": 10.743181818181817,
                "end_time": 10.825,
                "pitch": 55,
                "velocity": 127,
                "duration": 0.08181818181818201,
                "tempo": 120.0
            },
            {
                "start_time": 10.845454545454546,
                "end_time": 10.927272727272726,
                "pitch": 43,
                "velocity": 127,
                "duration": 0.08181818181818024,
                "tempo": 120.0
            },
            {
                "start_time": 10.945454545454545,
                "end_time": 11.027272727272727,
                "pitch": 55,
                "velocity": 127,
                "duration": 0.08181818181818201,
                "tempo": 120.0
            },
            {
                "start_time": 11.047727272727272,
                "end_time": 11.129545454545454,
                "pitch": 43,
                "velocity": 127,
                "duration": 0.08181818181818201,
                "tempo": 120.0
            },
            {
                "start_time": 11.147727272727272,
                "end_time": 11.229545454545454,
                "pitch": 55,
                "velocity": 127,
                "duration": 0.08181818181818201,
                "tempo": 120.0
            },
            {
                "start_time": 11.247727272727273,
                "end_time": 11.329545454545453,
                "pitch": 44,
                "velocity": 127,
                "duration": 0.08181818181818024,
                "tempo": 120.0
            },
            {
                "start_time": 11.347727272727273,
                "end_time": 11.431818181818182,
                "pitch": 56,
                "velocity": 127,
                "duration": 0.084090909090909,
                "tempo": 120.0
            },
            {
                "start_time": 11.45,
                "end_time": 11.531818181818181,
                "pitch": 44,
                "velocity": 127,
                "duration": 0.08181818181818201,
                "tempo": 120.0
            },
            {
                "start_time": 11.549999999999999,
                "end_time": 11.631818181818181,
                "pitch": 56,
                "velocity": 127,
                "duration": 0.08181818181818201,
                "tempo": 120.0
            },
            {
                "start_time": 11.649999999999999,
                "end_time": 11.73181818181818,
                "pitch": 44,
                "velocity": 127,
                "duration": 0.08181818181818201,
                "tempo": 120.0
            },
            {
                "start_time": 11.75,
                "end_time": 11.831818181818182,
                "pitch": 56,
                "velocity": 127,
                "duration": 0.08181818181818201,
                "tempo": 120.0
            },
            {
                "start_time": 11.852272727272727,
                "end_time": 11.934090909090909,
                "pitch": 44,
                "velocity": 127,
                "duration": 0.08181818181818201,
                "tempo": 120.0
            },
            {
                "start_time": 11.95,
                "end_time": 12.034090909090908,
                "pitch": 56,
                "velocity": 127,
                "duration": 0.084090909090909,
                "tempo": 120.0
            },
            {
                "start_time": 12.052272727272726,
                "end_time": 12.134090909090908,
                "pitch": 44,
                "velocity": 127,
                "duration": 0.08181818181818201,
                "tempo": 120.0
            },
            {
                "start_time": 12.152272727272727,
                "end_time": 12.23409090909091,
                "pitch": 56,
                "velocity": 127,
                "duration": 0.08181818181818201,
                "tempo": 120.0
            },
            {
                "start_time": 12.252272727272727,
                "end_time": 12.336363636363636,
                "pitch": 44,
                "velocity": 127,
                "duration": 0.084090909090909,
                "tempo": 120.0
            },
            {
                "start_time": 12.354545454545454,
                "end_time": 12.436363636363636,
                "pitch": 56,
                "velocity": 127,
                "duration": 0.08181818181818201,
                "tempo": 120.0
            },
            {
                "start_time": 12.454545454545453,
                "end_time": 12.536363636363635,
                "pitch": 44,
                "velocity": 127,
                "duration": 0.08181818181818201,
                "tempo": 120.0
            },
            {
                "start_time": 12.554545454545455,
                "end_time": 12.638636363636364,
                "pitch": 56,
                "velocity": 127,
                "duration": 0.084090909090909,
                "tempo": 120.0
            },
            {
                "start_time": 12.656818181818181,
                "end_time": 12.738636363636363,
                "pitch": 44,
                "velocity": 127,
                "duration": 0.08181818181818201,
                "tempo": 120.0
            },
            {
                "start_time": 12.756818181818181,
                "end_time": 12.838636363636363,
                "pitch": 56,
                "velocity": 127,
                "duration": 0.08181818181818201,
                "tempo": 120.0
            },
            {
                "start_time": 12.861363636363636,
                "end_time": 12.94090909090909,
                "pitch": 40,
                "velocity": 127,
                "duration": 0.07954545454545325,
                "tempo": 120.0
            },
            {
                "start_time": 12.959090909090909,
                "end_time": 13.045454545454545,
                "pitch": 52,
                "velocity": 127,
                "duration": 0.08636363636363598,
                "tempo": 120.0
            },
            {
                "start_time": 13.063636363636363,
                "end_time": 13.147727272727272,
                "pitch": 40,
                "velocity": 127,
                "duration": 0.084090909090909,
                "tempo": 120.0
            },
            {
                "start_time": 13.165909090909091,
                "end_time": 13.25,
                "pitch": 52,
                "velocity": 127,
                "duration": 0.084090909090909,
                "tempo": 120.0
            },
            {
                "start_time": 13.268181818181818,
                "end_time": 13.35,
                "pitch": 40,
                "velocity": 127,
                "duration": 0.08181818181818201,
                "tempo": 120.0
            },
            {
                "start_time": 13.36590909090909,
                "end_time": 13.447727272727272,
                "pitch": 52,
                "velocity": 127,
                "duration": 0.08181818181818201,
                "tempo": 120.0
            },
            {
                "start_time": 13.46590909090909,
                "end_time": 13.545454545454545,
                "pitch": 40,
                "velocity": 127,
                "duration": 0.07954545454545503,
                "tempo": 120.0
            },
            {
                "start_time": 13.563636363636363,
                "end_time": 13.643181818181818,
                "pitch": 52,
                "velocity": 127,
                "duration": 0.07954545454545503,
                "tempo": 120.0
            },
            {
                "start_time": 13.661363636363635,
                "end_time": 13.745454545454544,
                "pitch": 41,
                "velocity": 127,
                "duration": 0.084090909090909,
                "tempo": 120.0
            },
            {
                "start_time": 13.763636363636364,
                "end_time": 13.847727272727273,
                "pitch": 53,
                "velocity": 127,
                "duration": 0.084090909090909,
                "tempo": 120.0
            },
            {
                "start_time": 13.86590909090909,
                "end_time": 13.95,
                "pitch": 41,
                "velocity": 127,
                "duration": 0.084090909090909,
                "tempo": 120.0
            },
            {
                "start_time": 13.970454545454544,
                "end_time": 14.054545454545455,
                "pitch": 53,
                "velocity": 127,
                "duration": 0.08409090909091077,
                "tempo": 120.0
            },
            {
                "start_time": 14.072727272727272,
                "end_time": 14.152272727272727,
                "pitch": 41,
                "velocity": 127,
                "duration": 0.07954545454545503,
                "tempo": 120.0
            },
            {
                "start_time": 14.170454545454545,
                "end_time": 14.25,
                "pitch": 53,
                "velocity": 127,
                "duration": 0.07954545454545503,
                "tempo": 120.0
            },
            {
                "start_time": 14.268181818181818,
                "end_time": 14.35,
                "pitch": 41,
                "velocity": 127,
                "duration": 0.08181818181818201,
                "tempo": 120.0
            },
            {
                "start_time": 14.36590909090909,
                "end_time": 14.447727272727272,
                "pitch": 53,
                "velocity": 127,
                "duration": 0.08181818181818201,
                "tempo": 120.0
            },
            {
                "start_time": 14.46590909090909,
                "end_time": 14.547727272727272,
                "pitch": 43,
                "velocity": 127,
                "duration": 0.08181818181818201,
                "tempo": 120.0
            },
            {
                "start_time": 14.56590909090909,
                "end_time": 14.647727272727272,
                "pitch": 55,
                "velocity": 127,
                "duration": 0.08181818181818201,
                "tempo": 120.0
            },
            {
                "start_time": 14.665909090909091,
                "end_time": 14.75,
                "pitch": 43,
                "velocity": 127,
                "duration": 0.084090909090909,
                "tempo": 120.0
            },
            {
                "start_time": 14.768181818181818,
                "end_time": 14.85,
                "pitch": 55,
                "velocity": 127,
                "duration": 0.08181818181818201,
                "tempo": 120.0
            },
            {
                "start_time": 14.868181818181817,
                "end_time": 14.95,
                "pitch": 43,
                "velocity": 127,
                "duration": 0.08181818181818201,
                "tempo": 120.0
            },
            {
                "start_time": 14.968181818181817,
                "end_time": 15.052272727272726,
                "pitch": 55,
                "velocity": 127,
                "duration": 0.084090909090909,
                "tempo": 120.0
            },
            {
                "start_time": 15.070454545454545,
                "end_time": 15.152272727272727,
                "pitch": 43,
                "velocity": 127,
                "duration": 0.08181818181818201,
                "tempo": 120.0
            },
            {
                "start_time": 15.170454545454545,
                "end_time": 15.252272727272727,
                "pitch": 55,
                "velocity": 127,
                "duration": 0.08181818181818201,
                "tempo": 120.0
            },
            {
                "start_time": 15.272727272727272,
                "end_time": 15.354545454545454,
                "pitch": 41,
                "velocity": 127,
                "duration": 0.08181818181818201,
                "tempo": 120.0
            },
            {
                "start_time": 15.372727272727271,
                "end_time": 15.454545454545453,
                "pitch": 53,
                "velocity": 127,
                "duration": 0.08181818181818201,
                "tempo": 120.0
            },
            {
                "start_time": 15.472727272727273,
                "end_time": 15.556818181818182,
                "pitch": 41,
                "velocity": 127,
                "duration": 0.084090909090909,
                "tempo": 120.0
            },
            {
                "start_time": 15.575,
                "end_time": 15.656818181818181,
                "pitch": 53,
                "velocity": 127,
                "duration": 0.08181818181818201,
                "tempo": 120.0
            },
            {
                "start_time": 15.674999999999999,
                "end_time": 15.756818181818181,
                "pitch": 41,
                "velocity": 127,
                "duration": 0.08181818181818201,
                "tempo": 120.0
            },
            {
                "start_time": 15.774999999999999,
                "end_time": 15.85681818181818,
                "pitch": 53,
                "velocity": 127,
                "duration": 0.08181818181818201,
                "tempo": 120.0
            },
            {
                "start_time": 15.875,
                "end_time": 15.95681818181818,
                "pitch": 41,
                "velocity": 127,
                "duration": 0.08181818181818024,
                "tempo": 120.0
            },
            {
                "start_time": 15.975,
                "end_time": 16.05681818181818,
                "pitch": 53,
                "velocity": 127,
                "duration": 0.08181818181818024,
                "tempo": 120.0
            },
            {
                "start_time": 16.077272727272728,
                "end_time": 16.15909090909091,
                "pitch": 40,
                "velocity": 127,
                "duration": 0.08181818181818201,
                "tempo": 120.0
            },
            {
                "start_time": 16.177272727272726,
                "end_time": 16.261363636363637,
                "pitch": 52,
                "velocity": 127,
                "duration": 0.08409090909091077,
                "tempo": 120.0
            },
            {
                "start_time": 16.28181818181818,
                "end_time": 16.36590909090909,
                "pitch": 40,
                "velocity": 127,
                "duration": 0.08409090909090722,
                "tempo": 120.0
            },
            {
                "start_time": 16.384090909090908,
                "end_time": 16.46818181818182,
                "pitch": 52,
                "velocity": 127,
                "duration": 0.08409090909091077,
                "tempo": 120.0
            },
            {
                "start_time": 16.486363636363635,
                "end_time": 16.570454545454545,
                "pitch": 40,
                "velocity": 127,
                "duration": 0.08409090909091077,
                "tempo": 120.0
            },
            {
                "start_time": 16.58863636363636,
                "end_time": 16.670454545454543,
                "pitch": 52,
                "velocity": 127,
                "duration": 0.08181818181818201,
                "tempo": 120.0
            },
            {
                "start_time": 16.688636363636363,
                "end_time": 16.770454545454545,
                "pitch": 40,
                "velocity": 127,
                "duration": 0.08181818181818201,
                "tempo": 120.0
            },
            {
                "start_time": 16.788636363636364,
                "end_time": 16.87272727272727,
                "pitch": 52,
                "velocity": 127,
                "duration": 0.08409090909090722,
                "tempo": 120.0
            },
            {
                "start_time": 16.89090909090909,
                "end_time": 16.972727272727273,
                "pitch": 41,
                "velocity": 127,
                "duration": 0.08181818181818201,
                "tempo": 120.0
            },
            {
                "start_time": 16.99090909090909,
                "end_time": 17.07272727272727,
                "pitch": 53,
                "velocity": 127,
                "duration": 0.08181818181818201,
                "tempo": 120.0
            },
            {
                "start_time": 17.09090909090909,
                "end_time": 17.172727272727272,
                "pitch": 41,
                "velocity": 127,
                "duration": 0.08181818181818201,
                "tempo": 120.0
            },
            {
                "start_time": 17.19090909090909,
                "end_time": 17.272727272727273,
                "pitch": 53,
                "velocity": 127,
                "duration": 0.08181818181818201,
                "tempo": 120.0
            },
            {
                "start_time": 17.29090909090909,
                "end_time": 17.37272727272727,
                "pitch": 41,
                "velocity": 127,
                "duration": 0.08181818181818201,
                "tempo": 120.0
            },
            {
                "start_time": 17.39090909090909,
                "end_time": 17.472727272727273,
                "pitch": 53,
                "velocity": 127,
                "duration": 0.08181818181818201,
                "tempo": 120.0
            },
            {
                "start_time": 17.49090909090909,
                "end_time": 17.57272727272727,
                "pitch": 41,
                "velocity": 127,
                "duration": 0.08181818181818201,
                "tempo": 120.0
            },
            {
                "start_time": 17.59090909090909,
                "end_time": 17.672727272727272,
                "pitch": 53,
                "velocity": 127,
                "duration": 0.08181818181818201,
                "tempo": 120.0
            },
            {
                "start_time": 17.69090909090909,
                "end_time": 17.772727272727273,
                "pitch": 43,
                "velocity": 127,
                "duration": 0.08181818181818201,
                "tempo": 120.0
            },
            {
                "start_time": 17.79090909090909,
                "end_time": 17.875,
                "pitch": 55,
                "velocity": 127,
                "duration": 0.08409090909091077,
                "tempo": 120.0
            },
            {
                "start_time": 17.893181818181816,
                "end_time": 17.974999999999998,
                "pitch": 43,
                "velocity": 127,
                "duration": 0.08181818181818201,
                "tempo": 120.0
            },
            {
                "start_time": 17.993181818181817,
                "end_time": 18.075,
                "pitch": 55,
                "velocity": 127,
                "duration": 0.08181818181818201,
                "tempo": 120.0
            },
            {
                "start_time": 18.09318181818182,
                "end_time": 18.177272727272726,
                "pitch": 43,
                "velocity": 127,
                "duration": 0.08409090909090722,
                "tempo": 120.0
            },
            {
                "start_time": 18.193181818181817,
                "end_time": 18.277272727272727,
                "pitch": 55,
                "velocity": 127,
                "duration": 0.08409090909091077,
                "tempo": 120.0
            },
            {
                "start_time": 18.295454545454543,
                "end_time": 18.377272727272725,
                "pitch": 43,
                "velocity": 127,
                "duration": 0.08181818181818201,
                "tempo": 120.0
            },
            {
                "start_time": 18.395454545454545,
                "end_time": 18.477272727272727,
                "pitch": 55,
                "velocity": 127,
                "duration": 0.08181818181818201,
                "tempo": 120.0
            },
            {
                "start_time": 18.495454545454546,
                "end_time": 18.577272727272728,
                "pitch": 44,
                "velocity": 127,
                "duration": 0.08181818181818201,
                "tempo": 120.0
            },
            {
                "start_time": 18.595454545454544,
                "end_time": 18.677272727272726,
                "pitch": 56,
                "velocity": 127,
                "duration": 0.08181818181818201,
                "tempo": 120.0
            },
            {
                "start_time": 18.695454545454545,
                "end_time": 18.779545454545453,
                "pitch": 44,
                "velocity": 127,
                "duration": 0.08409090909090722,
                "tempo": 120.0
            },
            {
                "start_time": 18.797727272727272,
                "end_time": 18.879545454545454,
                "pitch": 56,
                "velocity": 127,
                "duration": 0.08181818181818201,
                "tempo": 120.0
            },
            {
                "start_time": 18.897727272727273,
                "end_time": 18.979545454545455,
                "pitch": 44,
                "velocity": 127,
                "duration": 0.08181818181818201,
                "tempo": 120.0
            },
            {
                "start_time": 18.99772727272727,
                "end_time": 19.079545454545453,
                "pitch": 56,
                "velocity": 127,
                "duration": 0.08181818181818201,
                "tempo": 120.0
            },
            {
                "start_time": 19.097727272727273,
                "end_time": 19.179545454545455,
                "pitch": 44,
                "velocity": 127,
                "duration": 0.08181818181818201,
                "tempo": 120.0
            },
            {
                "start_time": 19.19772727272727,
                "end_time": 19.279545454545453,
                "pitch": 56,
                "velocity": 127,
                "duration": 0.08181818181818201,
                "tempo": 120.0
            },
            {
                "start_time": 19.3,
                "end_time": 19.379545454545454,
                "pitch": 40,
                "velocity": 127,
                "duration": 0.07954545454545325,
                "tempo": 120.0
            },
            {
                "start_time": 19.397727272727273,
                "end_time": 19.479545454545452,
                "pitch": 52,
                "velocity": 127,
                "duration": 0.08181818181817846,
                "tempo": 120.0
            },
            {
                "start_time": 19.49772727272727,
                "end_time": 19.581818181818182,
                "pitch": 40,
                "velocity": 127,
                "duration": 0.08409090909091077,
                "tempo": 120.0
            },
            {
                "start_time": 19.597727272727273,
                "end_time": 19.68181818181818,
                "pitch": 52,
                "velocity": 127,
                "duration": 0.08409090909090722,
                "tempo": 120.0
            },
            {
                "start_time": 19.7,
                "end_time": 19.78181818181818,
                "pitch": 40,
                "velocity": 127,
                "duration": 0.08181818181818201,
                "tempo": 120.0
            },
            {
                "start_time": 19.8,
                "end_time": 19.88181818181818,
                "pitch": 52,
                "velocity": 127,
                "duration": 0.08181818181817846,
                "tempo": 120.0
            },
            {
                "start_time": 19.9,
                "end_time": 19.98409090909091,
                "pitch": 40,
                "velocity": 127,
                "duration": 0.08409090909091077,
                "tempo": 120.0
            },
            {
                "start_time": 20.002272727272725,
                "end_time": 20.084090909090907,
                "pitch": 52,
                "velocity": 127,
                "duration": 0.08181818181818201,
                "tempo": 120.0
            },
            {
                "start_time": 20.102272727272727,
                "end_time": 20.18409090909091,
                "pitch": 41,
                "velocity": 127,
                "duration": 0.08181818181818201,
                "tempo": 120.0
            },
            {
                "start_time": 20.202272727272728,
                "end_time": 20.284090909090907,
                "pitch": 53,
                "velocity": 127,
                "duration": 0.08181818181817846,
                "tempo": 120.0
            },
            {
                "start_time": 20.302272727272726,
                "end_time": 20.384090909090908,
                "pitch": 41,
                "velocity": 127,
                "duration": 0.08181818181818201,
                "tempo": 120.0
            },
            {
                "start_time": 20.402272727272727,
                "end_time": 20.48409090909091,
                "pitch": 53,
                "velocity": 127,
                "duration": 0.08181818181818201,
                "tempo": 120.0
            },
            {
                "start_time": 20.502272727272725,
                "end_time": 20.586363636363636,
                "pitch": 41,
                "velocity": 127,
                "duration": 0.08409090909091077,
                "tempo": 120.0
            },
            {
                "start_time": 20.604545454545452,
                "end_time": 20.686363636363634,
                "pitch": 53,
                "velocity": 127,
                "duration": 0.08181818181818201,
                "tempo": 120.0
            },
            {
                "start_time": 20.704545454545453,
                "end_time": 20.786363636363635,
                "pitch": 41,
                "velocity": 127,
                "duration": 0.08181818181818201,
                "tempo": 120.0
            },
            {
                "start_time": 20.804545454545455,
                "end_time": 20.888636363636362,
                "pitch": 53,
                "velocity": 127,
                "duration": 0.08409090909090722,
                "tempo": 120.0
            },
            {
                "start_time": 20.90681818181818,
                "end_time": 20.988636363636363,
                "pitch": 43,
                "velocity": 127,
                "duration": 0.08181818181818201,
                "tempo": 120.0
            },
            {
                "start_time": 21.00681818181818,
                "end_time": 21.08863636363636,
                "pitch": 55,
                "velocity": 127,
                "duration": 0.08181818181818201,
                "tempo": 120.0
            },
            {
                "start_time": 21.10681818181818,
                "end_time": 21.188636363636363,
                "pitch": 43,
                "velocity": 127,
                "duration": 0.08181818181818201,
                "tempo": 120.0
            },
            {
                "start_time": 21.206818181818182,
                "end_time": 21.288636363636364,
                "pitch": 55,
                "velocity": 127,
                "duration": 0.08181818181818201,
                "tempo": 120.0
            },
            {
                "start_time": 21.30681818181818,
                "end_time": 21.388636363636362,
                "pitch": 43,
                "velocity": 127,
                "duration": 0.08181818181818201,
                "tempo": 120.0
            },
            {
                "start_time": 21.40681818181818,
                "end_time": 21.488636363636363,
                "pitch": 55,
                "velocity": 127,
                "duration": 0.08181818181818201,
                "tempo": 120.0
            },
            {
                "start_time": 21.50681818181818,
                "end_time": 21.58863636363636,
                "pitch": 43,
                "velocity": 127,
                "duration": 0.08181818181818201,
                "tempo": 120.0
            },
            {
                "start_time": 21.60681818181818,
                "end_time": 21.688636363636363,
                "pitch": 55,
                "velocity": 127,
                "duration": 0.08181818181818201,
                "tempo": 120.0
            },
            {
                "start_time": 21.706818181818182,
                "end_time": 21.788636363636364,
                "pitch": 41,
                "velocity": 127,
                "duration": 0.08181818181818201,
                "tempo": 120.0
            },
            {
                "start_time": 21.80681818181818,
                "end_time": 21.89090909090909,
                "pitch": 53,
                "velocity": 127,
                "duration": 0.08409090909091077,
                "tempo": 120.0
            },
            {
                "start_time": 21.909090909090907,
                "end_time": 21.99090909090909,
                "pitch": 41,
                "velocity": 127,
                "duration": 0.08181818181818201,
                "tempo": 120.0
            },
            {
                "start_time": 22.009090909090908,
                "end_time": 22.09090909090909,
                "pitch": 53,
                "velocity": 127,
                "duration": 0.08181818181818201,
                "tempo": 120.0
            },
            {
                "start_time": 22.10909090909091,
                "end_time": 22.193181818181817,
                "pitch": 41,
                "velocity": 127,
                "duration": 0.08409090909090722,
                "tempo": 120.0
            },
            {
                "start_time": 22.211363636363636,
                "end_time": 22.293181818181818,
                "pitch": 53,
                "velocity": 127,
                "duration": 0.08181818181818201,
                "tempo": 120.0
            },
            {
                "start_time": 22.311363636363634,
                "end_time": 22.393181818181816,
                "pitch": 41,
                "velocity": 127,
                "duration": 0.08181818181818201,
                "tempo": 120.0
            },
            {
                "start_time": 22.411363636363635,
                "end_time": 22.493181818181817,
                "pitch": 53,
                "velocity": 127,
                "duration": 0.08181818181818201,
                "tempo": 120.0
            },
            {
                "start_time": 22.511363636363637,
                "end_time": 22.59318181818182,
                "pitch": 40,
                "velocity": 127,
                "duration": 0.08181818181818201,
                "tempo": 120.0
            },
            {
                "start_time": 22.611363636363635,
                "end_time": 22.693181818181817,
                "pitch": 52,
                "velocity": 127,
                "duration": 0.08181818181818201,
                "tempo": 120.0
            },
            {
                "start_time": 22.711363636363636,
                "end_time": 22.795454545454543,
                "pitch": 40,
                "velocity": 127,
                "duration": 0.08409090909090722,
                "tempo": 120.0
            },
            {
                "start_time": 22.813636363636363,
                "end_time": 22.895454545454545,
                "pitch": 52,
                "velocity": 127,
                "duration": 0.08181818181818201,
                "tempo": 120.0
            },
            {
                "start_time": 22.913636363636364,
                "end_time": 22.99772727272727,
                "pitch": 40,
                "velocity": 127,
                "duration": 0.08409090909090722,
                "tempo": 120.0
            },
            {
                "start_time": 23.01590909090909,
                "end_time": 23.099999999999998,
                "pitch": 52,
                "velocity": 127,
                "duration": 0.08409090909090722,
                "tempo": 120.0
            },
            {
                "start_time": 23.120454545454546,
                "end_time": 23.204545454545453,
                "pitch": 40,
                "velocity": 127,
                "duration": 0.08409090909090722,
                "tempo": 120.0
            },
            {
                "start_time": 23.222727272727273,
                "end_time": 23.30681818181818,
                "pitch": 52,
                "velocity": 127,
                "duration": 0.08409090909090722,
                "tempo": 120.0
            },
            {
                "start_time": 23.325,
                "end_time": 23.40681818181818,
                "pitch": 41,
                "velocity": 127,
                "duration": 0.08181818181818201,
                "tempo": 120.0
            },
            {
                "start_time": 23.427272727272726,
                "end_time": 23.509090909090908,
                "pitch": 53,
                "velocity": 127,
                "duration": 0.08181818181818201,
                "tempo": 120.0
            },
            {
                "start_time": 23.527272727272727,
                "end_time": 23.60909090909091,
                "pitch": 41,
                "velocity": 127,
                "duration": 0.08181818181818201,
                "tempo": 120.0
            },
            {
                "start_time": 23.627272727272725,
                "end_time": 23.711363636363636,
                "pitch": 53,
                "velocity": 127,
                "duration": 0.08409090909091077,
                "tempo": 120.0
            },
            {
                "start_time": 23.729545454545452,
                "end_time": 23.811363636363634,
                "pitch": 41,
                "velocity": 127,
                "duration": 0.08181818181818201,
                "tempo": 120.0
            },
            {
                "start_time": 23.829545454545453,
                "end_time": 23.911363636363635,
                "pitch": 53,
                "velocity": 127,
                "duration": 0.08181818181818201,
                "tempo": 120.0
            },
            {
                "start_time": 23.929545454545455,
                "end_time": 24.011363636363637,
                "pitch": 41,
                "velocity": 127,
                "duration": 0.08181818181818201,
                "tempo": 120.0
            },
            {
                "start_time": 24.029545454545453,
                "end_time": 24.111363636363635,
                "pitch": 53,
                "velocity": 127,
                "duration": 0.08181818181818201,
                "tempo": 120.0
            },
            {
                "start_time": 24.129545454545454,
                "end_time": 24.211363636363636,
                "pitch": 43,
                "velocity": 127,
                "duration": 0.08181818181818201,
                "tempo": 120.0
            },
            {
                "start_time": 24.229545454545452,
                "end_time": 24.311363636363634,
                "pitch": 55,
                "velocity": 127,
                "duration": 0.08181818181818201,
                "tempo": 120.0
            },
            {
                "start_time": 24.329545454545453,
                "end_time": 24.413636363636364,
                "pitch": 43,
                "velocity": 127,
                "duration": 0.08409090909091077,
                "tempo": 120.0
            },
            {
                "start_time": 24.43181818181818,
                "end_time": 24.513636363636362,
                "pitch": 55,
                "velocity": 127,
                "duration": 0.08181818181818201,
                "tempo": 120.0
            },
            {
                "start_time": 24.53181818181818,
                "end_time": 24.613636363636363,
                "pitch": 43,
                "velocity": 127,
                "duration": 0.08181818181818201,
                "tempo": 120.0
            },
            {
                "start_time": 24.63181818181818,
                "end_time": 24.71363636363636,
                "pitch": 55,
                "velocity": 127,
                "duration": 0.08181818181818201,
                "tempo": 120.0
            },
            {
                "start_time": 24.73181818181818,
                "end_time": 24.813636363636363,
                "pitch": 43,
                "velocity": 127,
                "duration": 0.08181818181818201,
                "tempo": 120.0
            },
            {
                "start_time": 24.831818181818182,
                "end_time": 24.913636363636364,
                "pitch": 55,
                "velocity": 127,
                "duration": 0.08181818181818201,
                "tempo": 120.0
            },
            {
                "start_time": 24.93181818181818,
                "end_time": 25.01590909090909,
                "pitch": 44,
                "velocity": 127,
                "duration": 0.08409090909091077,
                "tempo": 120.0
            },
            {
                "start_time": 25.034090909090907,
                "end_time": 25.11590909090909,
                "pitch": 56,
                "velocity": 127,
                "duration": 0.08181818181818201,
                "tempo": 120.0
            },
            {
                "start_time": 25.134090909090908,
                "end_time": 25.21590909090909,
                "pitch": 44,
                "velocity": 127,
                "duration": 0.08181818181818201,
                "tempo": 120.0
            },
            {
                "start_time": 25.23409090909091,
                "end_time": 25.31590909090909,
                "pitch": 56,
                "velocity": 127,
                "duration": 0.08181818181818201,
                "tempo": 120.0
            },
            {
                "start_time": 25.334090909090907,
                "end_time": 25.41590909090909,
                "pitch": 44,
                "velocity": 127,
                "duration": 0.08181818181818201,
                "tempo": 120.0
            },
            {
                "start_time": 25.43409090909091,
                "end_time": 25.51590909090909,
                "pitch": 56,
                "velocity": 127,
                "duration": 0.08181818181818201,
                "tempo": 120.0
            },
            {
                "start_time": 25.534090909090907,
                "end_time": 25.618181818181817,
                "pitch": 44,
                "velocity": 127,
                "duration": 0.08409090909091077,
                "tempo": 120.0
            },
            {
                "start_time": 25.636363636363637,
                "end_time": 25.71818181818182,
                "pitch": 56,
                "velocity": 127,
                "duration": 0.08181818181818201,
                "tempo": 120.0
            },
            {
                "start_time": 25.74090909090909,
                "end_time": 25.818181818181817,
                "pitch": 40,
                "velocity": 127,
                "duration": 0.07727272727272805,
                "tempo": 120.0
            },
            {
                "start_time": 25.836363636363636,
                "end_time": 25.918181818181818,
                "pitch": 52,
                "velocity": 127,
                "duration": 0.08181818181818201,
                "tempo": 120.0
            },
            {
                "start_time": 25.936363636363634,
                "end_time": 26.018181818181816,
                "pitch": 40,
                "velocity": 127,
                "duration": 0.08181818181818201,
                "tempo": 120.0
            },
            {
                "start_time": 26.036363636363635,
                "end_time": 26.118181818181817,
                "pitch": 52,
                "velocity": 127,
                "duration": 0.08181818181818201,
                "tempo": 120.0
            },
            {
                "start_time": 26.138636363636362,
                "end_time": 26.220454545454544,
                "pitch": 40,
                "velocity": 127,
                "duration": 0.08181818181818201,
                "tempo": 120.0
            },
            {
                "start_time": 26.238636363636363,
                "end_time": 26.320454545454545,
                "pitch": 52,
                "velocity": 127,
                "duration": 0.08181818181818201,
                "tempo": 120.0
            },
            {
                "start_time": 26.33863636363636,
                "end_time": 26.420454545454543,
                "pitch": 40,
                "velocity": 127,
                "duration": 0.08181818181818201,
                "tempo": 120.0
            },
            {
                "start_time": 26.438636363636363,
                "end_time": 26.52272727272727,
                "pitch": 52,
                "velocity": 127,
                "duration": 0.08409090909090722,
                "tempo": 120.0
            },
            {
                "start_time": 26.54090909090909,
                "end_time": 26.62272727272727,
                "pitch": 41,
                "velocity": 127,
                "duration": 0.08181818181818201,
                "tempo": 120.0
            },
            {
                "start_time": 26.64090909090909,
                "end_time": 26.722727272727273,
                "pitch": 53,
                "velocity": 127,
                "duration": 0.08181818181818201,
                "tempo": 120.0
            },
            {
                "start_time": 26.74090909090909,
                "end_time": 26.82272727272727,
                "pitch": 41,
                "velocity": 127,
                "duration": 0.08181818181818201,
                "tempo": 120.0
            },
            {
                "start_time": 26.84090909090909,
                "end_time": 26.922727272727272,
                "pitch": 53,
                "velocity": 127,
                "duration": 0.08181818181818201,
                "tempo": 120.0
            },
            {
                "start_time": 26.94090909090909,
                "end_time": 27.02272727272727,
                "pitch": 41,
                "velocity": 127,
                "duration": 0.08181818181817846,
                "tempo": 120.0
            },
            {
                "start_time": 27.04090909090909,
                "end_time": 27.12272727272727,
                "pitch": 53,
                "velocity": 127,
                "duration": 0.08181818181818201,
                "tempo": 120.0
            },
            {
                "start_time": 27.14090909090909,
                "end_time": 27.222727272727273,
                "pitch": 41,
                "velocity": 127,
                "duration": 0.08181818181818201,
                "tempo": 120.0
            },
            {
                "start_time": 27.24090909090909,
                "end_time": 27.32272727272727,
                "pitch": 53,
                "velocity": 127,
                "duration": 0.08181818181818201,
                "tempo": 120.0
            },
            {
                "start_time": 27.343181818181815,
                "end_time": 27.424999999999997,
                "pitch": 40,
                "velocity": 127,
                "duration": 0.08181818181818201,
                "tempo": 120.0
            },
            {
                "start_time": 27.443181818181817,
                "end_time": 27.525,
                "pitch": 52,
                "velocity": 127,
                "duration": 0.08181818181818201,
                "tempo": 120.0
            },
            {
                "start_time": 27.543181818181818,
                "end_time": 27.625,
                "pitch": 40,
                "velocity": 127,
                "duration": 0.08181818181818201,
                "tempo": 120.0
            },
            {
                "start_time": 27.643181818181816,
                "end_time": 27.727272727272727,
                "pitch": 52,
                "velocity": 127,
                "duration": 0.08409090909091077,
                "tempo": 120.0
            },
            {
                "start_time": 27.745454545454542,
                "end_time": 27.827272727272724,
                "pitch": 40,
                "velocity": 127,
                "duration": 0.08181818181818201,
                "tempo": 120.0
            },
            {
                "start_time": 27.845454545454544,
                "end_time": 27.927272727272726,
                "pitch": 52,
                "velocity": 127,
                "duration": 0.08181818181818201,
                "tempo": 120.0
            },
            {
                "start_time": 27.945454545454545,
                "end_time": 28.027272727272727,
                "pitch": 40,
                "velocity": 127,
                "duration": 0.08181818181818201,
                "tempo": 120.0
            },
            {
                "start_time": 28.045454545454543,
                "end_time": 28.127272727272725,
                "pitch": 52,
                "velocity": 127,
                "duration": 0.08181818181818201,
                "tempo": 120.0
            },
            {
                "start_time": 28.145454545454545,
                "end_time": 28.227272727272727,
                "pitch": 39,
                "velocity": 127,
                "duration": 0.08181818181818201,
                "tempo": 120.0
            },
            {
                "start_time": 28.245454545454542,
                "end_time": 28.327272727272724,
                "pitch": 51,
                "velocity": 127,
                "duration": 0.08181818181818201,
                "tempo": 120.0
            },
            {
                "start_time": 28.347727272727273,
                "end_time": 28.429545454545455,
                "pitch": 39,
                "velocity": 127,
                "duration": 0.08181818181818201,
                "tempo": 120.0
            },
            {
                "start_time": 28.44772727272727,
                "end_time": 28.529545454545453,
                "pitch": 51,
                "velocity": 127,
                "duration": 0.08181818181818201,
                "tempo": 120.0
            },
            {
                "start_time": 28.547727272727272,
                "end_time": 28.629545454545454,
                "pitch": 39,
                "velocity": 127,
                "duration": 0.08181818181818201,
                "tempo": 120.0
            },
            {
                "start_time": 28.64772727272727,
                "end_time": 28.729545454545452,
                "pitch": 51,
                "velocity": 127,
                "duration": 0.08181818181818201,
                "tempo": 120.0
            },
            {
                "start_time": 28.75,
                "end_time": 28.829545454545453,
                "pitch": 39,
                "velocity": 127,
                "duration": 0.07954545454545325,
                "tempo": 120.0
            },
            {
                "start_time": 28.847727272727273,
                "end_time": 28.929545454545455,
                "pitch": 51,
                "velocity": 127,
                "duration": 0.08181818181818201,
                "tempo": 120.0
            },
            {
                "start_time": 28.95,
                "end_time": 29.03181818181818,
                "pitch": 40,
                "velocity": 127,
                "duration": 0.08181818181818201,
                "tempo": 120.0
            },
            {
                "start_time": 29.049999999999997,
                "end_time": 29.13181818181818,
                "pitch": 52,
                "velocity": 127,
                "duration": 0.08181818181818201,
                "tempo": 120.0
            },
            {
                "start_time": 29.15,
                "end_time": 29.23181818181818,
                "pitch": 40,
                "velocity": 127,
                "duration": 0.08181818181818201,
                "tempo": 120.0
            },
            {
                "start_time": 29.25,
                "end_time": 29.331818181818182,
                "pitch": 52,
                "velocity": 127,
                "duration": 0.08181818181818201,
                "tempo": 120.0
            },
            {
                "start_time": 29.349999999999998,
                "end_time": 29.43409090909091,
                "pitch": 40,
                "velocity": 127,
                "duration": 0.08409090909091077,
                "tempo": 120.0
            },
            {
                "start_time": 29.452272727272724,
                "end_time": 29.536363636363635,
                "pitch": 52,
                "velocity": 127,
                "duration": 0.08409090909091077,
                "tempo": 120.0
            },
            {
                "start_time": 29.554545454545455,
                "end_time": 29.638636363636362,
                "pitch": 40,
                "velocity": 127,
                "duration": 0.08409090909090722,
                "tempo": 120.0
            },
            {
                "start_time": 29.65681818181818,
                "end_time": 29.74090909090909,
                "pitch": 52,
                "velocity": 127,
                "duration": 0.08409090909090722,
                "tempo": 120.0
            },
            {
                "start_time": 29.761363636363637,
                "end_time": 29.84090909090909,
                "pitch": 41,
                "velocity": 127,
                "duration": 0.07954545454545325,
                "tempo": 120.0
            },
            {
                "start_time": 29.85909090909091,
                "end_time": 29.938636363636363,
                "pitch": 53,
                "velocity": 127,
                "duration": 0.07954545454545325,
                "tempo": 120.0
            },
            {
                "start_time": 29.956818181818182,
                "end_time": 30.036363636363635,
                "pitch": 41,
                "velocity": 127,
                "duration": 0.07954545454545325,
                "tempo": 120.0
            },
            {
                "start_time": 30.054545454545455,
                "end_time": 30.136363636363633,
                "pitch": 53,
                "velocity": 127,
                "duration": 0.08181818181817846,
                "tempo": 120.0
            },
            {
                "start_time": 30.154545454545453,
                "end_time": 30.236363636363635,
                "pitch": 41,
                "velocity": 127,
                "duration": 0.08181818181818201,
                "tempo": 120.0
            },
            {
                "start_time": 30.254545454545454,
                "end_time": 30.336363636363636,
                "pitch": 53,
                "velocity": 127,
                "duration": 0.08181818181818201,
                "tempo": 120.0
            },
            {
                "start_time": 30.354545454545452,
                "end_time": 30.436363636363634,
                "pitch": 41,
                "velocity": 127,
                "duration": 0.08181818181818201,
                "tempo": 120.0
            },
            {
                "start_time": 30.454545454545453,
                "end_time": 30.53863636363636,
                "pitch": 53,
                "velocity": 127,
                "duration": 0.08409090909090722,
                "tempo": 120.0
            },
            {
                "start_time": 30.55681818181818,
                "end_time": 30.64090909090909,
                "pitch": 40,
                "velocity": 127,
                "duration": 0.08409090909091077,
                "tempo": 120.0
            },
            {
                "start_time": 30.659090909090907,
                "end_time": 30.743181818181817,
                "pitch": 52,
                "velocity": 127,
                "duration": 0.08409090909091077,
                "tempo": 120.0
            },
            {
                "start_time": 30.761363636363633,
                "end_time": 30.845454545454544,
                "pitch": 40,
                "velocity": 127,
                "duration": 0.08409090909091077,
                "tempo": 120.0
            },
            {
                "start_time": 30.86590909090909,
                "end_time": 30.95,
                "pitch": 52,
                "velocity": 127,
                "duration": 0.08409090909091077,
                "tempo": 120.0
            },
            {
                "start_time": 30.968181818181815,
                "end_time": 31.049999999999997,
                "pitch": 40,
                "velocity": 127,
                "duration": 0.08181818181818201,
                "tempo": 120.0
            },
            {
                "start_time": 31.068181818181817,
                "end_time": 31.15,
                "pitch": 52,
                "velocity": 127,
                "duration": 0.08181818181818201,
                "tempo": 120.0
            },
            {
                "start_time": 31.168181818181818,
                "end_time": 31.25,
                "pitch": 40,
                "velocity": 127,
                "duration": 0.08181818181818201,
                "tempo": 120.0
            },
            {
                "start_time": 31.268181818181816,
                "end_time": 31.349999999999998,
                "pitch": 52,
                "velocity": 127,
                "duration": 0.08181818181818201,
                "tempo": 120.0
            },
            {
                "start_time": 31.368181818181817,
                "end_time": 31.45,
                "pitch": 39,
                "velocity": 127,
                "duration": 0.08181818181818201,
                "tempo": 120.0
            },
            {
                "start_time": 31.468181818181815,
                "end_time": 31.549999999999997,
                "pitch": 51,
                "velocity": 127,
                "duration": 0.08181818181818201,
                "tempo": 120.0
            },
            {
                "start_time": 31.568181818181817,
                "end_time": 31.65,
                "pitch": 39,
                "velocity": 127,
                "duration": 0.08181818181818201,
                "tempo": 120.0
            },
            {
                "start_time": 31.668181818181818,
                "end_time": 31.75,
                "pitch": 51,
                "velocity": 127,
                "duration": 0.08181818181818201,
                "tempo": 120.0
            },
            {
                "start_time": 31.770454545454545,
                "end_time": 31.852272727272727,
                "pitch": 39,
                "velocity": 127,
                "duration": 0.08181818181818201,
                "tempo": 120.0
            },
            {
                "start_time": 31.870454545454542,
                "end_time": 31.952272727272724,
                "pitch": 51,
                "velocity": 127,
                "duration": 0.08181818181818201,
                "tempo": 120.0
            },
            {
                "start_time": 31.970454545454544,
                "end_time": 32.05227272727272,
                "pitch": 39,
                "velocity": 127,
                "duration": 0.08181818181817846,
                "tempo": 120.0
            },
            {
                "start_time": 32.070454545454545,
                "end_time": 32.154545454545456,
                "pitch": 51,
                "velocity": 127,
                "duration": 0.08409090909091077,
                "tempo": 120.0
            }
        ],
        "Lead 2 (sawtooth)": [
            {
                "start_time": 12.85909090909091,
                "end_time": 12.906818181818181,
                "pitch": 64,
                "velocity": 127,
                "duration": 0.04772727272727195,
                "tempo": 120.0
            },
            {
                "start_time": 12.906818181818181,
                "end_time": 12.959090909090909,
                "pitch": 63,
                "velocity": 127,
                "duration": 0.05227272727272769,
                "tempo": 120.0
            },
            {
                "start_time": 12.959090909090909,
                "end_time": 13.011363636363635,
                "pitch": 62,
                "velocity": 127,
                "duration": 0.052272727272725916,
                "tempo": 120.0
            },
            {
                "start_time": 13.011363636363635,
                "end_time": 13.061363636363636,
                "pitch": 61,
                "velocity": 127,
                "duration": 0.05000000000000071,
                "tempo": 120.0
            },
            {
                "start_time": 13.061363636363636,
                "end_time": 13.113636363636363,
                "pitch": 60,
                "velocity": 127,
                "duration": 0.05227272727272769,
                "tempo": 120.0
            },
            {
                "start_time": 13.113636363636363,
                "end_time": 13.165909090909091,
                "pitch": 59,
                "velocity": 127,
                "duration": 0.05227272727272769,
                "tempo": 120.0
            },
            {
                "start_time": 13.165909090909091,
                "end_time": 13.21590909090909,
                "pitch": 58,
                "velocity": 127,
                "duration": 0.049999999999998934,
                "tempo": 120.0
            },
            {
                "start_time": 13.21590909090909,
                "end_time": 13.268181818181818,
                "pitch": 57,
                "velocity": 127,
                "duration": 0.05227272727272769,
                "tempo": 120.0
            },
            {
                "start_time": 13.268181818181818,
                "end_time": 13.31590909090909,
                "pitch": 56,
                "velocity": 127,
                "duration": 0.04772727272727195,
                "tempo": 120.0
            },
            {
                "start_time": 13.31590909090909,
                "end_time": 13.36590909090909,
                "pitch": 55,
                "velocity": 127,
                "duration": 0.05000000000000071,
                "tempo": 120.0
            },
            {
                "start_time": 13.36590909090909,
                "end_time": 13.415909090909091,
                "pitch": 54,
                "velocity": 127,
                "duration": 0.05000000000000071,
                "tempo": 120.0
            },
            {
                "start_time": 13.415909090909091,
                "end_time": 13.463636363636363,
                "pitch": 53,
                "velocity": 127,
                "duration": 0.04772727272727195,
                "tempo": 120.0
            },
            {
                "start_time": 13.463636363636363,
                "end_time": 13.513636363636364,
                "pitch": 52,
                "velocity": 127,
                "duration": 0.05000000000000071,
                "tempo": 120.0
            },
            {
                "start_time": 13.513636363636364,
                "end_time": 13.561363636363636,
                "pitch": 51,
                "velocity": 127,
                "duration": 0.04772727272727195,
                "tempo": 120.0
            },
            {
                "start_time": 13.561363636363636,
                "end_time": 13.611363636363636,
                "pitch": 50,
                "velocity": 127,
                "duration": 0.05000000000000071,
                "tempo": 120.0
            },
            {
                "start_time": 13.611363636363636,
                "end_time": 13.661363636363635,
                "pitch": 49,
                "velocity": 127,
                "duration": 0.049999999999998934,
                "tempo": 120.0
            },
            {
                "start_time": 13.661363636363635,
                "end_time": 13.711363636363636,
                "pitch": 65,
                "velocity": 127,
                "duration": 0.05000000000000071,
                "tempo": 120.0
            },
            {
                "start_time": 13.711363636363636,
                "end_time": 13.763636363636364,
                "pitch": 64,
                "velocity": 127,
                "duration": 0.05227272727272769,
                "tempo": 120.0
            },
            {
                "start_time": 13.763636363636364,
                "end_time": 13.813636363636363,
                "pitch": 63,
                "velocity": 127,
                "duration": 0.049999999999998934,
                "tempo": 120.0
            },
            {
                "start_time": 13.813636363636363,
                "end_time": 13.86590909090909,
                "pitch": 62,
                "velocity": 127,
                "duration": 0.05227272727272769,
                "tempo": 120.0
            },
            {
                "start_time": 13.86590909090909,
                "end_time": 13.918181818181818,
                "pitch": 61,
                "velocity": 127,
                "duration": 0.05227272727272769,
                "tempo": 120.0
            },
            {
                "start_time": 13.113636363636363,
                "end_time": 13.968181818181817,
                "pitch": 44,
                "velocity": 127,
                "duration": 0.8545454545454536,
                "tempo": 120.0
            },
            {
                "start_time": 13.918181818181818,
                "end_time": 13.968181818181817,
                "pitch": 60,
                "velocity": 127,
                "duration": 0.049999999999998934,
                "tempo": 120.0
            },
            {
                "start_time": 13.968181818181817,
                "end_time": 14.020454545454545,
                "pitch": 59,
                "velocity": 127,
                "duration": 0.05227272727272769,
                "tempo": 120.0
            },
            {
                "start_time": 14.020454545454545,
                "end_time": 14.070454545454545,
                "pitch": 58,
                "velocity": 127,
                "duration": 0.05000000000000071,
                "tempo": 120.0
            },
            {
                "start_time": 14.070454545454545,
                "end_time": 14.120454545454544,
                "pitch": 57,
                "velocity": 127,
                "duration": 0.049999999999998934,
                "tempo": 120.0
            },
            {
                "start_time": 14.120454545454544,
                "end_time": 14.170454545454545,
                "pitch": 56,
                "velocity": 127,
                "duration": 0.05000000000000071,
                "tempo": 120.0
            },
            {
                "start_time": 14.170454545454545,
                "end_time": 14.218181818181817,
                "pitch": 55,
                "velocity": 127,
                "duration": 0.04772727272727195,
                "tempo": 120.0
            },
            {
                "start_time": 13.36590909090909,
                "end_time": 14.218181818181817,
                "pitch": 66,
                "velocity": 127,
                "duration": 0.8522727272727266,
                "tempo": 120.0
            },
            {
                "start_time": 14.218181818181817,
                "end_time": 14.268181818181818,
                "pitch": 54,
                "velocity": 127,
                "duration": 0.05000000000000071,
                "tempo": 120.0
            },
            {
                "start_time": 13.661363636363635,
                "end_time": 14.31590909090909,
                "pitch": 53,
                "velocity": 127,
                "duration": 0.6545454545454543,
                "tempo": 120.0
            },
            {
                "start_time": 14.268181818181818,
                "end_time": 14.31590909090909,
                "pitch": 53,
                "velocity": 127,
                "duration": 0.04772727272727195,
                "tempo": 120.0
            },
            {
                "start_time": 14.31590909090909,
                "end_time": 14.36590909090909,
                "pitch": 52,
                "velocity": 127,
                "duration": 0.05000000000000071,
                "tempo": 120.0
            },
            {
                "start_time": 14.36590909090909,
                "end_time": 14.415909090909091,
                "pitch": 51,
                "velocity": 127,
                "duration": 0.05000000000000071,
                "tempo": 120.0
            },
            {
                "start_time": 14.415909090909091,
                "end_time": 14.463636363636363,
                "pitch": 50,
                "velocity": 127,
                "duration": 0.04772727272727195,
                "tempo": 120.0
            },
            {
                "start_time": 14.463636363636363,
                "end_time": 14.513636363636364,
                "pitch": 67,
                "velocity": 127,
                "duration": 0.05000000000000071,
                "tempo": 120.0
            },
            {
                "start_time": 14.218181818181817,
                "end_time": 14.56590909090909,
                "pitch": 66,
                "velocity": 127,
                "duration": 0.34772727272727266,
                "tempo": 120.0
            },
            {
                "start_time": 14.513636363636364,
                "end_time": 14.56590909090909,
                "pitch": 66,
                "velocity": 127,
                "duration": 0.052272727272725916,
                "tempo": 120.0
            },
            {
                "start_time": 14.56590909090909,
                "end_time": 14.61590909090909,
                "pitch": 65,
                "velocity": 127,
                "duration": 0.05000000000000071,
                "tempo": 120.0
            },
            {
                "start_time": 14.61590909090909,
                "end_time": 14.665909090909091,
                "pitch": 64,
                "velocity": 127,
                "duration": 0.05000000000000071,
                "tempo": 120.0
            },
            {
                "start_time": 14.665909090909091,
                "end_time": 14.71590909090909,
                "pitch": 63,
                "velocity": 127,
                "duration": 0.049999999999998934,
                "tempo": 120.0
            },
            {
                "start_time": 14.71590909090909,
                "end_time": 14.76590909090909,
                "pitch": 62,
                "velocity": 127,
                "duration": 0.05000000000000071,
                "tempo": 120.0
            },
            {
                "start_time": 14.76590909090909,
                "end_time": 14.81590909090909,
                "pitch": 61,
                "velocity": 127,
                "duration": 0.049999999999998934,
                "tempo": 120.0
            },
            {
                "start_time": 13.968181818181817,
                "end_time": 14.868181818181817,
                "pitch": 44,
                "velocity": 127,
                "duration": 0.9000000000000004,
                "tempo": 120.0
            },
            {
                "start_time": 14.81590909090909,
                "end_time": 14.868181818181817,
                "pitch": 60,
                "velocity": 127,
                "duration": 0.05227272727272769,
                "tempo": 120.0
            },
            {
                "start_time": 14.868181818181817,
                "end_time": 14.918181818181818,
                "pitch": 59,
                "velocity": 127,
                "duration": 0.05000000000000071,
                "tempo": 120.0
            },
            {
                "start_time": 14.918181818181818,
                "end_time": 14.968181818181817,
                "pitch": 58,
                "velocity": 127,
                "duration": 0.049999999999998934,
                "tempo": 120.0
            },
            {
                "start_time": 14.968181818181817,
                "end_time": 15.018181818181818,
                "pitch": 57,
                "velocity": 127,
                "duration": 0.05000000000000071,
                "tempo": 120.0
            },
            {
                "start_time": 15.018181818181818,
                "end_time": 15.068181818181817,
                "pitch": 56,
                "velocity": 127,
                "duration": 0.049999999999998934,
                "tempo": 120.0
            },
            {
                "start_time": 15.068181818181817,
                "end_time": 15.118181818181817,
                "pitch": 55,
                "velocity": 127,
                "duration": 0.05000000000000071,
                "tempo": 120.0
            },
            {
                "start_time": 15.120454545454544,
                "end_time": 15.170454545454545,
                "pitch": 54,
                "velocity": 127,
                "duration": 0.05000000000000071,
                "tempo": 120.0
            },
            {
                "start_time": 15.170454545454545,
                "end_time": 15.220454545454544,
                "pitch": 53,
                "velocity": 127,
                "duration": 0.049999999999998934,
                "tempo": 120.0
            },
            {
                "start_time": 15.220454545454544,
                "end_time": 15.270454545454545,
                "pitch": 52,
                "velocity": 127,
                "duration": 0.05000000000000071,
                "tempo": 120.0
            },
            {
                "start_time": 15.270454545454545,
                "end_time": 15.320454545454545,
                "pitch": 65,
                "velocity": 127,
                "duration": 0.05000000000000071,
                "tempo": 120.0
            },
            {
                "start_time": 15.320454545454545,
                "end_time": 15.370454545454544,
                "pitch": 64,
                "velocity": 127,
                "duration": 0.049999999999998934,
                "tempo": 120.0
            },
            {
                "start_time": 15.370454545454544,
                "end_time": 15.422727272727272,
                "pitch": 63,
                "velocity": 127,
                "duration": 0.05227272727272769,
                "tempo": 120.0
            },
            {
                "start_time": 15.422727272727272,
                "end_time": 15.472727272727273,
                "pitch": 62,
                "velocity": 127,
                "duration": 0.05000000000000071,
                "tempo": 120.0
            },
            {
                "start_time": 15.472727272727273,
                "end_time": 15.522727272727272,
                "pitch": 61,
                "velocity": 127,
                "duration": 0.049999999999998934,
                "tempo": 120.0
            },
            {
                "start_time": 14.868181818181817,
                "end_time": 15.572727272727272,
                "pitch": 44,
                "velocity": 127,
                "duration": 0.704545454545455,
                "tempo": 120.0
            },
            {
                "start_time": 15.522727272727272,
                "end_time": 15.572727272727272,
                "pitch": 60,
                "velocity": 127,
                "duration": 0.05000000000000071,
                "tempo": 120.0
            },
            {
                "start_time": 15.572727272727272,
                "end_time": 15.622727272727271,
                "pitch": 59,
                "velocity": 127,
                "duration": 0.049999999999998934,
                "tempo": 120.0
            },
            {
                "start_time": 15.622727272727271,
                "end_time": 15.672727272727272,
                "pitch": 58,
                "velocity": 127,
                "duration": 0.05000000000000071,
                "tempo": 120.0
            },
            {
                "start_time": 15.672727272727272,
                "end_time": 15.722727272727273,
                "pitch": 57,
                "velocity": 127,
                "duration": 0.05000000000000071,
                "tempo": 120.0
            },
            {
                "start_time": 15.722727272727273,
                "end_time": 15.772727272727272,
                "pitch": 56,
                "velocity": 127,
                "duration": 0.049999999999998934,
                "tempo": 120.0
            },
            {
                "start_time": 15.772727272727272,
                "end_time": 15.822727272727272,
                "pitch": 55,
                "velocity": 127,
                "duration": 0.05000000000000071,
                "tempo": 120.0
            },
            {
                "start_time": 15.118181818181817,
                "end_time": 15.822727272727272,
                "pitch": 66,
                "velocity": 127,
                "duration": 0.704545454545455,
                "tempo": 120.0
            },
            {
                "start_time": 15.825,
                "end_time": 15.875,
                "pitch": 54,
                "velocity": 127,
                "duration": 0.05000000000000071,
                "tempo": 120.0
            },
            {
                "start_time": 15.875,
                "end_time": 15.924999999999999,
                "pitch": 53,
                "velocity": 127,
                "duration": 0.049999999999998934,
                "tempo": 120.0
            },
            {
                "start_time": 15.924999999999999,
                "end_time": 15.975,
                "pitch": 52,
                "velocity": 127,
                "duration": 0.05000000000000071,
                "tempo": 120.0
            },
            {
                "start_time": 15.975,
                "end_time": 16.025,
                "pitch": 51,
                "velocity": 127,
                "duration": 0.049999999999998934,
                "tempo": 120.0
            },
            {
                "start_time": 16.025,
                "end_time": 16.075,
                "pitch": 50,
                "velocity": 127,
                "duration": 0.05000000000000071,
                "tempo": 120.0
            },
            {
                "start_time": 16.075,
                "end_time": 16.125,
                "pitch": 64,
                "velocity": 127,
                "duration": 0.05000000000000071,
                "tempo": 120.0
            },
            {
                "start_time": 16.125,
                "end_time": 16.177272727272726,
                "pitch": 63,
                "velocity": 127,
                "duration": 0.052272727272725916,
                "tempo": 120.0
            },
            {
                "start_time": 16.177272727272726,
                "end_time": 16.227272727272727,
                "pitch": 62,
                "velocity": 127,
                "duration": 0.05000000000000071,
                "tempo": 120.0
            },
            {
                "start_time": 16.227272727272727,
                "end_time": 16.279545454545453,
                "pitch": 61,
                "velocity": 127,
                "duration": 0.052272727272725916,
                "tempo": 120.0
            },
            {
                "start_time": 15.572727272727272,
                "end_time": 16.331818181818182,
                "pitch": 44,
                "velocity": 127,
                "duration": 0.7590909090909097,
                "tempo": 120.0
            },
            {
                "start_time": 16.279545454545453,
                "end_time": 16.331818181818182,
                "pitch": 60,
                "velocity": 127,
                "duration": 0.05227272727272947,
                "tempo": 120.0
            },
            {
                "start_time": 16.331818181818182,
                "end_time": 16.381818181818183,
                "pitch": 59,
                "velocity": 127,
                "duration": 0.05000000000000071,
                "tempo": 120.0
            },
            {
                "start_time": 16.381818181818183,
                "end_time": 16.43409090909091,
                "pitch": 58,
                "velocity": 127,
                "duration": 0.052272727272725916,
                "tempo": 120.0
            },
            {
                "start_time": 16.43409090909091,
                "end_time": 16.486363636363635,
                "pitch": 57,
                "velocity": 127,
                "duration": 0.052272727272725916,
                "tempo": 120.0
            },
            {
                "start_time": 16.486363636363635,
                "end_time": 16.536363636363635,
                "pitch": 56,
                "velocity": 127,
                "duration": 0.05000000000000071,
                "tempo": 120.0
            },
            {
                "start_time": 16.536363636363635,
                "end_time": 16.586363636363636,
                "pitch": 55,
                "velocity": 127,
                "duration": 0.05000000000000071,
                "tempo": 120.0
            },
            {
                "start_time": 15.822727272727272,
                "end_time": 16.586363636363636,
                "pitch": 66,
                "velocity": 127,
                "duration": 0.7636363636363637,
                "tempo": 120.0
            },
            {
                "start_time": 16.586363636363636,
                "end_time": 16.636363636363637,
                "pitch": 54,
                "velocity": 127,
                "duration": 0.05000000000000071,
                "tempo": 120.0
            },
            {
                "start_time": 16.636363636363637,
                "end_time": 16.686363636363634,
                "pitch": 53,
                "velocity": 127,
                "duration": 0.04999999999999716,
                "tempo": 120.0
            },
            {
                "start_time": 16.075,
                "end_time": 16.738636363636363,
                "pitch": 52,
                "velocity": 127,
                "duration": 0.663636363636364,
                "tempo": 120.0
            },
            {
                "start_time": 16.686363636363634,
                "end_time": 16.738636363636363,
                "pitch": 52,
                "velocity": 127,
                "duration": 0.05227272727272947,
                "tempo": 120.0
            },
            {
                "start_time": 16.738636363636363,
                "end_time": 16.788636363636364,
                "pitch": 51,
                "velocity": 127,
                "duration": 0.05000000000000071,
                "tempo": 120.0
            },
            {
                "start_time": 16.788636363636364,
                "end_time": 16.83863636363636,
                "pitch": 50,
                "velocity": 127,
                "duration": 0.04999999999999716,
                "tempo": 120.0
            },
            {
                "start_time": 16.83863636363636,
                "end_time": 16.888636363636362,
                "pitch": 49,
                "velocity": 127,
                "duration": 0.05000000000000071,
                "tempo": 120.0
            },
            {
                "start_time": 16.888636363636362,
                "end_time": 16.938636363636363,
                "pitch": 65,
                "velocity": 127,
                "duration": 0.05000000000000071,
                "tempo": 120.0
            },
            {
                "start_time": 16.938636363636363,
                "end_time": 16.988636363636363,
                "pitch": 64,
                "velocity": 127,
                "duration": 0.05000000000000071,
                "tempo": 120.0
            },
            {
                "start_time": 16.988636363636363,
                "end_time": 17.038636363636364,
                "pitch": 63,
                "velocity": 127,
                "duration": 0.05000000000000071,
                "tempo": 120.0
            },
            {
                "start_time": 17.038636363636364,
                "end_time": 17.08863636363636,
                "pitch": 62,
                "velocity": 127,
                "duration": 0.04999999999999716,
                "tempo": 120.0
            },
            {
                "start_time": 17.08863636363636,
                "end_time": 17.138636363636362,
                "pitch": 61,
                "velocity": 127,
                "duration": 0.05000000000000071,
                "tempo": 120.0
            },
            {
                "start_time": 16.331818181818182,
                "end_time": 17.188636363636363,
                "pitch": 44,
                "velocity": 127,
                "duration": 0.8568181818181806,
                "tempo": 120.0
            },
            {
                "start_time": 17.138636363636362,
                "end_time": 17.188636363636363,
                "pitch": 60,
                "velocity": 127,
                "duration": 0.05000000000000071,
                "tempo": 120.0
            },
            {
                "start_time": 17.188636363636363,
                "end_time": 17.238636363636363,
                "pitch": 59,
                "velocity": 127,
                "duration": 0.05000000000000071,
                "tempo": 120.0
            },
            {
                "start_time": 17.238636363636363,
                "end_time": 17.288636363636364,
                "pitch": 58,
                "velocity": 127,
                "duration": 0.05000000000000071,
                "tempo": 120.0
            },
            {
                "start_time": 17.288636363636364,
                "end_time": 17.33863636363636,
                "pitch": 57,
                "velocity": 127,
                "duration": 0.04999999999999716,
                "tempo": 120.0
            },
            {
                "start_time": 17.33863636363636,
                "end_time": 17.388636363636362,
                "pitch": 56,
                "velocity": 127,
                "duration": 0.05000000000000071,
                "tempo": 120.0
            },
            {
                "start_time": 17.388636363636362,
                "end_time": 17.438636363636363,
                "pitch": 55,
                "velocity": 127,
                "duration": 0.05000000000000071,
                "tempo": 120.0
            },
            {
                "start_time": 16.586363636363636,
                "end_time": 17.438636363636363,
                "pitch": 66,
                "velocity": 127,
                "duration": 0.8522727272727266,
                "tempo": 120.0
            },
            {
                "start_time": 17.438636363636363,
                "end_time": 17.488636363636363,
                "pitch": 54,
                "velocity": 127,
                "duration": 0.05000000000000071,
                "tempo": 120.0
            },
            {
                "start_time": 16.888636363636362,
                "end_time": 17.538636363636364,
                "pitch": 53,
                "velocity": 127,
                "duration": 0.6500000000000021,
                "tempo": 120.0
            },
            {
                "start_time": 17.488636363636363,
                "end_time": 17.538636363636364,
                "pitch": 53,
                "velocity": 127,
                "duration": 0.05000000000000071,
                "tempo": 120.0
            },
            {
                "start_time": 17.538636363636364,
                "end_time": 17.58863636363636,
                "pitch": 52,
                "velocity": 127,
                "duration": 0.04999999999999716,
                "tempo": 120.0
            },
            {
                "start_time": 17.59090909090909,
                "end_time": 17.64090909090909,
                "pitch": 51,
                "velocity": 127,
                "duration": 0.05000000000000071,
                "tempo": 120.0
            },
            {
                "start_time": 14.463636363636363,
                "end_time": 17.69090909090909,
                "pitch": 0,
                "velocity": 127,
                "duration": 3.2272727272727284,
                "tempo": 120.0
            },
            {
                "start_time": 17.64090909090909,
                "end_time": 17.69090909090909,
                "pitch": 50,
                "velocity": 127,
                "duration": 0.05000000000000071,
                "tempo": 120.0
            },
            {
                "start_time": 17.69090909090909,
                "end_time": 17.74090909090909,
                "pitch": 67,
                "velocity": 127,
                "duration": 0.04999999999999716,
                "tempo": 120.0
            },
            {
                "start_time": 14.513636363636364,
                "end_time": 17.74090909090909,
                "pitch": 78,
                "velocity": 127,
                "duration": 3.227272727272725,
                "tempo": 120.0
            },
            {
                "start_time": 17.438636363636363,
                "end_time": 17.79090909090909,
                "pitch": 66,
                "velocity": 127,
                "duration": 0.3522727272727266,
                "tempo": 120.0
            },
            {
                "start_time": 17.74090909090909,
                "end_time": 17.79090909090909,
                "pitch": 66,
                "velocity": 127,
                "duration": 0.05000000000000071,
                "tempo": 120.0
            },
            {
                "start_time": 17.79090909090909,
                "end_time": 17.84090909090909,
                "pitch": 65,
                "velocity": 127,
                "duration": 0.05000000000000071,
                "tempo": 120.0
            },
            {
                "start_time": 17.84090909090909,
                "end_time": 17.89090909090909,
                "pitch": 64,
                "velocity": 127,
                "duration": 0.05000000000000071,
                "tempo": 120.0
            },
            {
                "start_time": 17.89090909090909,
                "end_time": 17.94090909090909,
                "pitch": 63,
                "velocity": 127,
                "duration": 0.05000000000000071,
                "tempo": 120.0
            },
            {
                "start_time": 17.94090909090909,
                "end_time": 17.993181818181817,
                "pitch": 62,
                "velocity": 127,
                "duration": 0.052272727272725916,
                "tempo": 120.0
            },
            {
                "start_time": 17.993181818181817,
                "end_time": 18.043181818181818,
                "pitch": 61,
                "velocity": 127,
                "duration": 0.05000000000000071,
                "tempo": 120.0
            },
            {
                "start_time": 17.188636363636363,
                "end_time": 18.09318181818182,
                "pitch": 44,
                "velocity": 127,
                "duration": 0.9045454545454561,
                "tempo": 120.0
            },
            {
                "start_time": 18.043181818181818,
                "end_time": 18.09318181818182,
                "pitch": 60,
                "velocity": 127,
                "duration": 0.05000000000000071,
                "tempo": 120.0
            },
            {
                "start_time": 18.09318181818182,
                "end_time": 18.143181818181816,
                "pitch": 59,
                "velocity": 127,
                "duration": 0.04999999999999716,
                "tempo": 120.0
            },
            {
                "start_time": 18.143181818181816,
                "end_time": 18.193181818181817,
                "pitch": 58,
                "velocity": 127,
                "duration": 0.05000000000000071,
                "tempo": 120.0
            },
            {
                "start_time": 18.193181818181817,
                "end_time": 18.243181818181817,
                "pitch": 57,
                "velocity": 127,
                "duration": 0.05000000000000071,
                "tempo": 120.0
            },
            {
                "start_time": 18.243181818181817,
                "end_time": 18.293181818181818,
                "pitch": 56,
                "velocity": 127,
                "duration": 0.05000000000000071,
                "tempo": 120.0
            },
            {
                "start_time": 18.293181818181818,
                "end_time": 18.34318181818182,
                "pitch": 55,
                "velocity": 127,
                "duration": 0.05000000000000071,
                "tempo": 120.0
            },
            {
                "start_time": 18.34318181818182,
                "end_time": 18.393181818181816,
                "pitch": 54,
                "velocity": 127,
                "duration": 0.04999999999999716,
                "tempo": 120.0
            },
            {
                "start_time": 18.393181818181816,
                "end_time": 18.443181818181817,
                "pitch": 53,
                "velocity": 127,
                "duration": 0.05000000000000071,
                "tempo": 120.0
            },
            {
                "start_time": 18.443181818181817,
                "end_time": 18.493181818181817,
                "pitch": 52,
                "velocity": 127,
                "duration": 0.05000000000000071,
                "tempo": 120.0
            },
            {
                "start_time": 18.493181818181817,
                "end_time": 18.543181818181818,
                "pitch": 65,
                "velocity": 127,
                "duration": 0.05000000000000071,
                "tempo": 120.0
            },
            {
                "start_time": 18.543181818181818,
                "end_time": 18.595454545454544,
                "pitch": 64,
                "velocity": 127,
                "duration": 0.052272727272725916,
                "tempo": 120.0
            },
            {
                "start_time": 18.595454545454544,
                "end_time": 18.645454545454545,
                "pitch": 63,
                "velocity": 127,
                "duration": 0.05000000000000071,
                "tempo": 120.0
            },
            {
                "start_time": 18.645454545454545,
                "end_time": 18.695454545454545,
                "pitch": 62,
                "velocity": 127,
                "duration": 0.05000000000000071,
                "tempo": 120.0
            },
            {
                "start_time": 18.695454545454545,
                "end_time": 18.745454545454546,
                "pitch": 61,
                "velocity": 127,
                "duration": 0.05000000000000071,
                "tempo": 120.0
            },
            {
                "start_time": 18.09318181818182,
                "end_time": 18.795454545454543,
                "pitch": 44,
                "velocity": 127,
                "duration": 0.7022727272727245,
                "tempo": 120.0
            },
            {
                "start_time": 18.745454545454546,
                "end_time": 18.795454545454543,
                "pitch": 60,
                "velocity": 127,
                "duration": 0.04999999999999716,
                "tempo": 120.0
            },
            {
                "start_time": 18.795454545454543,
                "end_time": 18.845454545454544,
                "pitch": 59,
                "velocity": 127,
                "duration": 0.05000000000000071,
                "tempo": 120.0
            },
            {
                "start_time": 18.845454545454544,
                "end_time": 18.897727272727273,
                "pitch": 58,
                "velocity": 127,
                "duration": 0.05227272727272947,
                "tempo": 120.0
            },
            {
                "start_time": 18.897727272727273,
                "end_time": 18.94772727272727,
                "pitch": 57,
                "velocity": 127,
                "duration": 0.04999999999999716,
                "tempo": 120.0
            },
            {
                "start_time": 18.94772727272727,
                "end_time": 18.99772727272727,
                "pitch": 56,
                "velocity": 127,
                "duration": 0.05000000000000071,
                "tempo": 120.0
            },
            {
                "start_time": 18.99772727272727,
                "end_time": 19.047727272727272,
                "pitch": 55,
                "velocity": 127,
                "duration": 0.05000000000000071,
                "tempo": 120.0
            },
            {
                "start_time": 18.34318181818182,
                "end_time": 19.047727272727272,
                "pitch": 66,
                "velocity": 127,
                "duration": 0.7045454545454533,
                "tempo": 120.0
            },
            {
                "start_time": 19.047727272727272,
                "end_time": 19.097727272727273,
                "pitch": 54,
                "velocity": 127,
                "duration": 0.05000000000000071,
                "tempo": 120.0
            },
            {
                "start_time": 19.097727272727273,
                "end_time": 19.147727272727273,
                "pitch": 53,
                "velocity": 127,
                "duration": 0.05000000000000071,
                "tempo": 120.0
            },
            {
                "start_time": 19.147727272727273,
                "end_time": 19.19772727272727,
                "pitch": 52,
                "velocity": 127,
                "duration": 0.04999999999999716,
                "tempo": 120.0
            },
            {
                "start_time": 19.19772727272727,
                "end_time": 19.24772727272727,
                "pitch": 51,
                "velocity": 127,
                "duration": 0.05000000000000071,
                "tempo": 120.0
            },
            {
                "start_time": 19.24772727272727,
                "end_time": 19.3,
                "pitch": 50,
                "velocity": 127,
                "duration": 0.05227272727272947,
                "tempo": 120.0
            },
            {
                "start_time": 19.3,
                "end_time": 19.347727272727273,
                "pitch": 52,
                "velocity": 127,
                "duration": 0.04772727272727195,
                "tempo": 120.0
            },
            {
                "start_time": 19.3,
                "end_time": 19.347727272727273,
                "pitch": 52,
                "velocity": 127,
                "duration": 0.04772727272727195,
                "tempo": 120.0
            },
            {
                "start_time": 19.347727272727273,
                "end_time": 19.397727272727273,
                "pitch": 64,
                "velocity": 127,
                "duration": 0.05000000000000071,
                "tempo": 120.0
            },
            {
                "start_time": 19.397727272727273,
                "end_time": 19.44772727272727,
                "pitch": 53,
                "velocity": 127,
                "duration": 0.04999999999999716,
                "tempo": 120.0
            },
            {
                "start_time": 19.44772727272727,
                "end_time": 19.49772727272727,
                "pitch": 65,
                "velocity": 127,
                "duration": 0.05000000000000071,
                "tempo": 120.0
            },
            {
                "start_time": 19.49772727272727,
                "end_time": 19.547727272727272,
                "pitch": 54,
                "velocity": 127,
                "duration": 0.05000000000000071,
                "tempo": 120.0
            },
            {
                "start_time": 19.047727272727272,
                "end_time": 19.597727272727273,
                "pitch": 66,
                "velocity": 127,
                "duration": 0.5500000000000007,
                "tempo": 120.0
            },
            {
                "start_time": 19.547727272727272,
                "end_time": 19.597727272727273,
                "pitch": 66,
                "velocity": 127,
                "duration": 0.05000000000000071,
                "tempo": 120.0
            },
            {
                "start_time": 19.597727272727273,
                "end_time": 19.647727272727273,
                "pitch": 55,
                "velocity": 127,
                "duration": 0.05000000000000071,
                "tempo": 120.0
            },
            {
                "start_time": 19.647727272727273,
                "end_time": 19.69772727272727,
                "pitch": 67,
                "velocity": 127,
                "duration": 0.04999999999999716,
                "tempo": 120.0
            },
            {
                "start_time": 19.69772727272727,
                "end_time": 19.74772727272727,
                "pitch": 56,
                "velocity": 127,
                "duration": 0.05000000000000071,
                "tempo": 120.0
            },
            {
                "start_time": 19.74772727272727,
                "end_time": 19.797727272727272,
                "pitch": 68,
                "velocity": 127,
                "duration": 0.05000000000000071,
                "tempo": 120.0
            },
            {
                "start_time": 19.797727272727272,
                "end_time": 19.849999999999998,
                "pitch": 57,
                "velocity": 127,
                "duration": 0.052272727272725916,
                "tempo": 120.0
            },
            {
                "start_time": 19.849999999999998,
                "end_time": 19.9,
                "pitch": 69,
                "velocity": 127,
                "duration": 0.05000000000000071,
                "tempo": 120.0
            },
            {
                "start_time": 19.9,
                "end_time": 19.95,
                "pitch": 58,
                "velocity": 127,
                "duration": 0.05000000000000071,
                "tempo": 120.0
            },
            {
                "start_time": 19.95,
                "end_time": 20.0,
                "pitch": 70,
                "velocity": 127,
                "duration": 0.05000000000000071,
                "tempo": 120.0
            },
            {
                "start_time": 20.0,
                "end_time": 20.05,
                "pitch": 59,
                "velocity": 127,
                "duration": 0.05000000000000071,
                "tempo": 120.0
            },
            {
                "start_time": 20.05,
                "end_time": 20.099999999999998,
                "pitch": 71,
                "velocity": 127,
                "duration": 0.04999999999999716,
                "tempo": 120.0
            },
            {
                "start_time": 17.74090909090909,
                "end_time": 20.099999999999998,
                "pitch": 78,
                "velocity": 127,
                "duration": 2.3590909090909093,
                "tempo": 120.0
            },
            {
                "start_time": 20.099999999999998,
                "end_time": 20.15,
                "pitch": 53,
                "velocity": 127,
                "duration": 0.05000000000000071,
                "tempo": 120.0
            },
            {
                "start_time": 20.152272727272727,
                "end_time": 20.202272727272728,
                "pitch": 65,
                "velocity": 127,
                "duration": 0.05000000000000071,
                "tempo": 120.0
            },
            {
                "start_time": 20.202272727272728,
                "end_time": 20.252272727272725,
                "pitch": 54,
                "velocity": 127,
                "duration": 0.04999999999999716,
                "tempo": 120.0
            },
            {
                "start_time": 20.252272727272725,
                "end_time": 20.302272727272726,
                "pitch": 66,
                "velocity": 127,
                "duration": 0.05000000000000071,
                "tempo": 120.0
            },
            {
                "start_time": 20.302272727272726,
                "end_time": 20.352272727272727,
                "pitch": 55,
                "velocity": 127,
                "duration": 0.05000000000000071,
                "tempo": 120.0
            },
            {
                "start_time": 20.352272727272727,
                "end_time": 20.402272727272727,
                "pitch": 67,
                "velocity": 127,
                "duration": 0.05000000000000071,
                "tempo": 120.0
            },
            {
                "start_time": 20.402272727272727,
                "end_time": 20.452272727272728,
                "pitch": 56,
                "velocity": 127,
                "duration": 0.05000000000000071,
                "tempo": 120.0
            },
            {
                "start_time": 20.452272727272728,
                "end_time": 20.502272727272725,
                "pitch": 68,
                "velocity": 127,
                "duration": 0.04999999999999716,
                "tempo": 120.0
            },
            {
                "start_time": 20.502272727272725,
                "end_time": 20.552272727272726,
                "pitch": 57,
                "velocity": 127,
                "duration": 0.05000000000000071,
                "tempo": 120.0
            },
            {
                "start_time": 20.552272727272726,
                "end_time": 20.602272727272727,
                "pitch": 69,
                "velocity": 127,
                "duration": 0.05000000000000071,
                "tempo": 120.0
            },
            {
                "start_time": 20.602272727272727,
                "end_time": 20.652272727272727,
                "pitch": 58,
                "velocity": 127,
                "duration": 0.05000000000000071,
                "tempo": 120.0
            },
            {
                "start_time": 20.652272727272727,
                "end_time": 20.702272727272724,
                "pitch": 70,
                "velocity": 127,
                "duration": 0.04999999999999716,
                "tempo": 120.0
            },
            {
                "start_time": 20.702272727272724,
                "end_time": 20.754545454545454,
                "pitch": 59,
                "velocity": 127,
                "duration": 0.05227272727272947,
                "tempo": 120.0
            },
            {
                "start_time": 20.754545454545454,
                "end_time": 20.804545454545455,
                "pitch": 71,
                "velocity": 127,
                "duration": 0.05000000000000071,
                "tempo": 120.0
            },
            {
                "start_time": 20.804545454545455,
                "end_time": 20.854545454545452,
                "pitch": 60,
                "velocity": 127,
                "duration": 0.04999999999999716,
                "tempo": 120.0
            },
            {
                "start_time": 20.854545454545452,
                "end_time": 20.904545454545453,
                "pitch": 72,
                "velocity": 127,
                "duration": 0.05000000000000071,
                "tempo": 120.0
            },
            {
                "start_time": 20.904545454545453,
                "end_time": 20.954545454545453,
                "pitch": 55,
                "velocity": 127,
                "duration": 0.05000000000000071,
                "tempo": 120.0
            },
            {
                "start_time": 20.954545454545453,
                "end_time": 21.004545454545454,
                "pitch": 67,
                "velocity": 127,
                "duration": 0.05000000000000071,
                "tempo": 120.0
            },
            {
                "start_time": 21.004545454545454,
                "end_time": 21.054545454545455,
                "pitch": 56,
                "velocity": 127,
                "duration": 0.05000000000000071,
                "tempo": 120.0
            },
            {
                "start_time": 21.054545454545455,
                "end_time": 21.104545454545452,
                "pitch": 68,
                "velocity": 127,
                "duration": 0.04999999999999716,
                "tempo": 120.0
            },
            {
                "start_time": 21.104545454545452,
                "end_time": 21.154545454545453,
                "pitch": 57,
                "velocity": 127,
                "duration": 0.05000000000000071,
                "tempo": 120.0
            },
            {
                "start_time": 21.154545454545453,
                "end_time": 21.204545454545453,
                "pitch": 69,
                "velocity": 127,
                "duration": 0.05000000000000071,
                "tempo": 120.0
            },
            {
                "start_time": 21.204545454545453,
                "end_time": 21.254545454545454,
                "pitch": 58,
                "velocity": 127,
                "duration": 0.05000000000000071,
                "tempo": 120.0
            },
            {
                "start_time": 21.254545454545454,
                "end_time": 21.304545454545455,
                "pitch": 70,
                "velocity": 127,
                "duration": 0.05000000000000071,
                "tempo": 120.0
            },
            {
                "start_time": 21.304545454545455,
                "end_time": 21.354545454545452,
                "pitch": 59,
                "velocity": 127,
                "duration": 0.04999999999999716,
                "tempo": 120.0
            },
            {
                "start_time": 21.354545454545452,
                "end_time": 21.404545454545453,
                "pitch": 71,
                "velocity": 127,
                "duration": 0.05000000000000071,
                "tempo": 120.0
            },
            {
                "start_time": 20.804545454545455,
                "end_time": 21.404545454545453,
                "pitch": 76,
                "velocity": 127,
                "duration": 0.5999999999999979,
                "tempo": 120.0
            },
            {
                "start_time": 21.404545454545453,
                "end_time": 21.454545454545453,
                "pitch": 60,
                "velocity": 127,
                "duration": 0.05000000000000071,
                "tempo": 120.0
            },
            {
                "start_time": 21.454545454545453,
                "end_time": 21.504545454545454,
                "pitch": 72,
                "velocity": 127,
                "duration": 0.05000000000000071,
                "tempo": 120.0
            },
            {
                "start_time": 21.504545454545454,
                "end_time": 21.554545454545455,
                "pitch": 61,
                "velocity": 127,
                "duration": 0.05000000000000071,
                "tempo": 120.0
            },
            {
                "start_time": 21.55681818181818,
                "end_time": 21.604545454545452,
                "pitch": 73,
                "velocity": 127,
                "duration": 0.04772727272727195,
                "tempo": 120.0
            },
            {
                "start_time": 21.60681818181818,
                "end_time": 21.65681818181818,
                "pitch": 62,
                "velocity": 127,
                "duration": 0.05000000000000071,
                "tempo": 120.0
            },
            {
                "start_time": 21.65681818181818,
                "end_time": 21.706818181818182,
                "pitch": 74,
                "velocity": 127,
                "duration": 0.05000000000000071,
                "tempo": 120.0
            },
            {
                "start_time": 21.706818181818182,
                "end_time": 21.75681818181818,
                "pitch": 53,
                "velocity": 127,
                "duration": 0.04999999999999716,
                "tempo": 120.0
            },
            {
                "start_time": 21.75681818181818,
                "end_time": 21.80681818181818,
                "pitch": 65,
                "velocity": 127,
                "duration": 0.05000000000000071,
                "tempo": 120.0
            },
            {
                "start_time": 21.80681818181818,
                "end_time": 21.85681818181818,
                "pitch": 54,
                "velocity": 127,
                "duration": 0.05000000000000071,
                "tempo": 120.0
            },
            {
                "start_time": 21.85681818181818,
                "end_time": 21.90681818181818,
                "pitch": 66,
                "velocity": 127,
                "duration": 0.05000000000000071,
                "tempo": 120.0
            },
            {
                "start_time": 21.90681818181818,
                "end_time": 21.956818181818182,
                "pitch": 55,
                "velocity": 127,
                "duration": 0.05000000000000071,
                "tempo": 120.0
            },
            {
                "start_time": 21.956818181818182,
                "end_time": 22.009090909090908,
                "pitch": 67,
                "velocity": 127,
                "duration": 0.052272727272725916,
                "tempo": 120.0
            },
            {
                "start_time": 22.009090909090908,
                "end_time": 22.05909090909091,
                "pitch": 56,
                "velocity": 127,
                "duration": 0.05000000000000071,
                "tempo": 120.0
            },
            {
                "start_time": 22.05909090909091,
                "end_time": 22.10909090909091,
                "pitch": 68,
                "velocity": 127,
                "duration": 0.05000000000000071,
                "tempo": 120.0
            },
            {
                "start_time": 22.10909090909091,
                "end_time": 22.159090909090907,
                "pitch": 57,
                "velocity": 127,
                "duration": 0.04999999999999716,
                "tempo": 120.0
            },
            {
                "start_time": 22.159090909090907,
                "end_time": 22.209090909090907,
                "pitch": 69,
                "velocity": 127,
                "duration": 0.05000000000000071,
                "tempo": 120.0
            },
            {
                "start_time": 22.209090909090907,
                "end_time": 22.259090909090908,
                "pitch": 58,
                "velocity": 127,
                "duration": 0.05000000000000071,
                "tempo": 120.0
            },
            {
                "start_time": 22.259090909090908,
                "end_time": 22.30909090909091,
                "pitch": 70,
                "velocity": 127,
                "duration": 0.05000000000000071,
                "tempo": 120.0
            },
            {
                "start_time": 22.30909090909091,
                "end_time": 22.35909090909091,
                "pitch": 59,
                "velocity": 127,
                "duration": 0.05000000000000071,
                "tempo": 120.0
            },
            {
                "start_time": 22.35909090909091,
                "end_time": 22.409090909090907,
                "pitch": 71,
                "velocity": 127,
                "duration": 0.04999999999999716,
                "tempo": 120.0
            },
            {
                "start_time": 21.404545454545453,
                "end_time": 22.409090909090907,
                "pitch": 76,
                "velocity": 127,
                "duration": 1.004545454545454,
                "tempo": 120.0
            },
            {
                "start_time": 22.409090909090907,
                "end_time": 22.459090909090907,
                "pitch": 60,
                "velocity": 127,
                "duration": 0.05000000000000071,
                "tempo": 120.0
            },
            {
                "start_time": 22.459090909090907,
                "end_time": 22.509090909090908,
                "pitch": 72,
                "velocity": 127,
                "duration": 0.05000000000000071,
                "tempo": 120.0
            },
            {
                "start_time": 22.409090909090907,
                "end_time": 22.509090909090908,
                "pitch": 76,
                "velocity": 127,
                "duration": 0.10000000000000142,
                "tempo": 120.0
            },
            {
                "start_time": 22.509090909090908,
                "end_time": 22.55909090909091,
                "pitch": 52,
                "velocity": 127,
                "duration": 0.05000000000000071,
                "tempo": 120.0
            },
            {
                "start_time": 22.55909090909091,
                "end_time": 22.611363636363635,
                "pitch": 64,
                "velocity": 127,
                "duration": 0.052272727272725916,
                "tempo": 120.0
            },
            {
                "start_time": 22.611363636363635,
                "end_time": 22.661363636363635,
                "pitch": 53,
                "velocity": 127,
                "duration": 0.05000000000000071,
                "tempo": 120.0
            },
            {
                "start_time": 22.661363636363635,
                "end_time": 22.711363636363636,
                "pitch": 65,
                "velocity": 127,
                "duration": 0.05000000000000071,
                "tempo": 120.0
            },
            {
                "start_time": 22.711363636363636,
                "end_time": 22.761363636363637,
                "pitch": 54,
                "velocity": 127,
                "duration": 0.05000000000000071,
                "tempo": 120.0
            },
            {
                "start_time": 22.761363636363637,
                "end_time": 22.811363636363634,
                "pitch": 66,
                "velocity": 127,
                "duration": 0.04999999999999716,
                "tempo": 120.0
            },
            {
                "start_time": 22.811363636363634,
                "end_time": 22.861363636363635,
                "pitch": 55,
                "velocity": 127,
                "duration": 0.05000000000000071,
                "tempo": 120.0
            },
            {
                "start_time": 22.861363636363635,
                "end_time": 22.913636363636364,
                "pitch": 67,
                "velocity": 127,
                "duration": 0.05227272727272947,
                "tempo": 120.0
            },
            {
                "start_time": 22.913636363636364,
                "end_time": 22.96363636363636,
                "pitch": 56,
                "velocity": 127,
                "duration": 0.04999999999999716,
                "tempo": 120.0
            },
            {
                "start_time": 22.96363636363636,
                "end_time": 23.01590909090909,
                "pitch": 68,
                "velocity": 127,
                "duration": 0.05227272727272947,
                "tempo": 120.0
            },
            {
                "start_time": 23.01590909090909,
                "end_time": 23.06590909090909,
                "pitch": 57,
                "velocity": 127,
                "duration": 0.05000000000000071,
                "tempo": 120.0
            },
            {
                "start_time": 23.06590909090909,
                "end_time": 23.118181818181817,
                "pitch": 69,
                "velocity": 127,
                "duration": 0.052272727272725916,
                "tempo": 120.0
            },
            {
                "start_time": 23.118181818181817,
                "end_time": 23.170454545454543,
                "pitch": 58,
                "velocity": 127,
                "duration": 0.052272727272725916,
                "tempo": 120.0
            },
            {
                "start_time": 23.170454545454543,
                "end_time": 23.220454545454544,
                "pitch": 70,
                "velocity": 127,
                "duration": 0.05000000000000071,
                "tempo": 120.0
            },
            {
                "start_time": 23.220454545454544,
                "end_time": 23.272727272727273,
                "pitch": 59,
                "velocity": 127,
                "duration": 0.05227272727272947,
                "tempo": 120.0
            },
            {
                "start_time": 23.272727272727273,
                "end_time": 23.325,
                "pitch": 71,
                "velocity": 127,
                "duration": 0.052272727272725916,
                "tempo": 120.0
            },
            {
                "start_time": 20.099999999999998,
                "end_time": 23.325,
                "pitch": 78,
                "velocity": 127,
                "duration": 3.2250000000000014,
                "tempo": 120.0
            },
            {
                "start_time": 23.325,
                "end_time": 23.375,
                "pitch": 53,
                "velocity": 127,
                "duration": 0.05000000000000071,
                "tempo": 120.0
            },
            {
                "start_time": 23.375,
                "end_time": 23.424999999999997,
                "pitch": 65,
                "velocity": 127,
                "duration": 0.04999999999999716,
                "tempo": 120.0
            },
            {
                "start_time": 23.424999999999997,
                "end_time": 23.474999999999998,
                "pitch": 54,
                "velocity": 127,
                "duration": 0.05000000000000071,
                "tempo": 120.0
            },
            {
                "start_time": 23.474999999999998,
                "end_time": 23.525,
                "pitch": 66,
                "velocity": 127,
                "duration": 0.05000000000000071,
                "tempo": 120.0
            },
            {
                "start_time": 23.525,
                "end_time": 23.577272727272724,
                "pitch": 55,
                "velocity": 127,
                "duration": 0.052272727272725916,
                "tempo": 120.0
            },
            {
                "start_time": 23.577272727272724,
                "end_time": 23.627272727272725,
                "pitch": 67,
                "velocity": 127,
                "duration": 0.05000000000000071,
                "tempo": 120.0
            },
            {
                "start_time": 23.627272727272725,
                "end_time": 23.677272727272726,
                "pitch": 56,
                "velocity": 127,
                "duration": 0.05000000000000071,
                "tempo": 120.0
            },
            {
                "start_time": 23.677272727272726,
                "end_time": 23.727272727272727,
                "pitch": 68,
                "velocity": 127,
                "duration": 0.05000000000000071,
                "tempo": 120.0
            },
            {
                "start_time": 23.727272727272727,
                "end_time": 23.777272727272727,
                "pitch": 57,
                "velocity": 127,
                "duration": 0.05000000000000071,
                "tempo": 120.0
            },
            {
                "start_time": 23.777272727272727,
                "end_time": 23.827272727272724,
                "pitch": 69,
                "velocity": 127,
                "duration": 0.04999999999999716,
                "tempo": 120.0
            },
            {
                "start_time": 23.827272727272724,
                "end_time": 23.877272727272725,
                "pitch": 58,
                "velocity": 127,
                "duration": 0.05000000000000071,
                "tempo": 120.0
            },
            {
                "start_time": 23.877272727272725,
                "end_time": 23.927272727272726,
                "pitch": 70,
                "velocity": 127,
                "duration": 0.05000000000000071,
                "tempo": 120.0
            },
            {
                "start_time": 23.927272727272726,
                "end_time": 23.977272727272727,
                "pitch": 59,
                "velocity": 127,
                "duration": 0.05000000000000071,
                "tempo": 120.0
            },
            {
                "start_time": 23.977272727272727,
                "end_time": 24.027272727272727,
                "pitch": 71,
                "velocity": 127,
                "duration": 0.05000000000000071,
                "tempo": 120.0
            },
            {
                "start_time": 22.509090909090908,
                "end_time": 24.027272727272727,
                "pitch": 76,
                "velocity": 127,
                "duration": 1.5181818181818194,
                "tempo": 120.0
            },
            {
                "start_time": 24.027272727272727,
                "end_time": 24.077272727272724,
                "pitch": 60,
                "velocity": 127,
                "duration": 0.04999999999999716,
                "tempo": 120.0
            },
            {
                "start_time": 24.077272727272724,
                "end_time": 24.127272727272725,
                "pitch": 72,
                "velocity": 127,
                "duration": 0.05000000000000071,
                "tempo": 120.0
            },
            {
                "start_time": 24.127272727272725,
                "end_time": 24.177272727272726,
                "pitch": 55,
                "velocity": 127,
                "duration": 0.05000000000000071,
                "tempo": 120.0
            },
            {
                "start_time": 24.179545454545455,
                "end_time": 24.229545454545452,
                "pitch": 67,
                "velocity": 127,
                "duration": 0.04999999999999716,
                "tempo": 120.0
            },
            {
                "start_time": 24.229545454545452,
                "end_time": 24.279545454545453,
                "pitch": 56,
                "velocity": 127,
                "duration": 0.05000000000000071,
                "tempo": 120.0
            },
            {
                "start_time": 24.279545454545453,
                "end_time": 24.329545454545453,
                "pitch": 68,
                "velocity": 127,
                "duration": 0.05000000000000071,
                "tempo": 120.0
            },
            {
                "start_time": 24.329545454545453,
                "end_time": 24.379545454545454,
                "pitch": 57,
                "velocity": 127,
                "duration": 0.05000000000000071,
                "tempo": 120.0
            },
            {
                "start_time": 24.379545454545454,
                "end_time": 24.429545454545455,
                "pitch": 69,
                "velocity": 127,
                "duration": 0.05000000000000071,
                "tempo": 120.0
            },
            {
                "start_time": 24.429545454545455,
                "end_time": 24.48181818181818,
                "pitch": 58,
                "velocity": 127,
                "duration": 0.052272727272725916,
                "tempo": 120.0
            },
            {
                "start_time": 24.48181818181818,
                "end_time": 24.53181818181818,
                "pitch": 70,
                "velocity": 127,
                "duration": 0.05000000000000071,
                "tempo": 120.0
            },
            {
                "start_time": 24.53181818181818,
                "end_time": 24.581818181818182,
                "pitch": 59,
                "velocity": 127,
                "duration": 0.05000000000000071,
                "tempo": 120.0
            },
            {
                "start_time": 24.581818181818182,
                "end_time": 24.63181818181818,
                "pitch": 71,
                "velocity": 127,
                "duration": 0.04999999999999716,
                "tempo": 120.0
            },
            {
                "start_time": 24.027272727272727,
                "end_time": 24.63181818181818,
                "pitch": 76,
                "velocity": 127,
                "duration": 0.6045454545454518,
                "tempo": 120.0
            },
            {
                "start_time": 24.63181818181818,
                "end_time": 24.68181818181818,
                "pitch": 60,
                "velocity": 127,
                "duration": 0.05000000000000071,
                "tempo": 120.0
            },
            {
                "start_time": 24.68181818181818,
                "end_time": 24.73181818181818,
                "pitch": 72,
                "velocity": 127,
                "duration": 0.05000000000000071,
                "tempo": 120.0
            },
            {
                "start_time": 24.73181818181818,
                "end_time": 24.78181818181818,
                "pitch": 61,
                "velocity": 127,
                "duration": 0.05000000000000071,
                "tempo": 120.0
            },
            {
                "start_time": 24.78181818181818,
                "end_time": 24.831818181818182,
                "pitch": 73,
                "velocity": 127,
                "duration": 0.05000000000000071,
                "tempo": 120.0
            },
            {
                "start_time": 24.831818181818182,
                "end_time": 24.88181818181818,
                "pitch": 62,
                "velocity": 127,
                "duration": 0.04999999999999716,
                "tempo": 120.0
            },
            {
                "start_time": 24.88181818181818,
                "end_time": 24.93181818181818,
                "pitch": 74,
                "velocity": 127,
                "duration": 0.05000000000000071,
                "tempo": 120.0
            },
            {
                "start_time": 21.706818181818182,
                "end_time": 24.93181818181818,
                "pitch": 77,
                "velocity": 127,
                "duration": 3.224999999999998,
                "tempo": 120.0
            },
            {
                "start_time": 24.93181818181818,
                "end_time": 24.98181818181818,
                "pitch": 53,
                "velocity": 127,
                "duration": 0.05000000000000071,
                "tempo": 120.0
            },
            {
                "start_time": 24.98181818181818,
                "end_time": 25.03181818181818,
                "pitch": 65,
                "velocity": 127,
                "duration": 0.05000000000000071,
                "tempo": 120.0
            },
            {
                "start_time": 25.03181818181818,
                "end_time": 25.081818181818182,
                "pitch": 54,
                "velocity": 127,
                "duration": 0.05000000000000071,
                "tempo": 120.0
            },
            {
                "start_time": 25.081818181818182,
                "end_time": 25.13181818181818,
                "pitch": 66,
                "velocity": 127,
                "duration": 0.04999999999999716,
                "tempo": 120.0
            },
            {
                "start_time": 25.13181818181818,
                "end_time": 25.18181818181818,
                "pitch": 55,
                "velocity": 127,
                "duration": 0.05000000000000071,
                "tempo": 120.0
            },
            {
                "start_time": 25.18181818181818,
                "end_time": 25.23181818181818,
                "pitch": 67,
                "velocity": 127,
                "duration": 0.05000000000000071,
                "tempo": 120.0
            },
            {
                "start_time": 25.23181818181818,
                "end_time": 25.28181818181818,
                "pitch": 56,
                "velocity": 127,
                "duration": 0.05000000000000071,
                "tempo": 120.0
            },
            {
                "start_time": 25.28181818181818,
                "end_time": 25.331818181818182,
                "pitch": 68,
                "velocity": 127,
                "duration": 0.05000000000000071,
                "tempo": 120.0
            },
            {
                "start_time": 25.331818181818182,
                "end_time": 25.38181818181818,
                "pitch": 57,
                "velocity": 127,
                "duration": 0.04999999999999716,
                "tempo": 120.0
            },
            {
                "start_time": 25.38181818181818,
                "end_time": 25.43409090909091,
                "pitch": 69,
                "velocity": 127,
                "duration": 0.05227272727272947,
                "tempo": 120.0
            },
            {
                "start_time": 25.43409090909091,
                "end_time": 25.48409090909091,
                "pitch": 58,
                "velocity": 127,
                "duration": 0.05000000000000071,
                "tempo": 120.0
            },
            {
                "start_time": 25.48409090909091,
                "end_time": 25.534090909090907,
                "pitch": 70,
                "velocity": 127,
                "duration": 0.04999999999999716,
                "tempo": 120.0
            },
            {
                "start_time": 25.534090909090907,
                "end_time": 25.584090909090907,
                "pitch": 59,
                "velocity": 127,
                "duration": 0.05000000000000071,
                "tempo": 120.0
            },
            {
                "start_time": 25.584090909090907,
                "end_time": 25.634090909090908,
                "pitch": 71,
                "velocity": 127,
                "duration": 0.05000000000000071,
                "tempo": 120.0
            },
            {
                "start_time": 24.63181818181818,
                "end_time": 25.634090909090908,
                "pitch": 76,
                "velocity": 127,
                "duration": 1.0022727272727288,
                "tempo": 120.0
            },
            {
                "start_time": 25.634090909090908,
                "end_time": 25.68409090909091,
                "pitch": 60,
                "velocity": 127,
                "duration": 0.05000000000000071,
                "tempo": 120.0
            }
        ],
        "Synth Bass 1": [
            {
                "start_time": 25.738636363636363,
                "end_time": 25.786363636363635,
                "pitch": 52,
                "velocity": 80,
                "duration": 0.04772727272727195,
                "tempo": 120.0
            },
            {
                "start_time": 25.786363636363635,
                "end_time": 25.836363636363636,
                "pitch": 59,
                "velocity": 80,
                "duration": 0.05000000000000071,
                "tempo": 120.0
            },
            {
                "start_time": 25.836363636363636,
                "end_time": 25.886363636363637,
                "pitch": 64,
                "velocity": 80,
                "duration": 0.05000000000000071,
                "tempo": 120.0
            },
            {
                "start_time": 25.886363636363637,
                "end_time": 25.936363636363634,
                "pitch": 59,
                "velocity": 80,
                "duration": 0.04999999999999716,
                "tempo": 120.0
            },
            {
                "start_time": 25.836363636363636,
                "end_time": 25.936363636363634,
                "pitch": 66,
                "velocity": 80,
                "duration": 0.09999999999999787,
                "tempo": 120.0
            },
            {
                "start_time": 25.786363636363635,
                "end_time": 25.986363636363635,
                "pitch": 32,
                "velocity": 80,
                "duration": 0.1999999999999993,
                "tempo": 120.0
            },
            {
                "start_time": 25.936363636363634,
                "end_time": 25.986363636363635,
                "pitch": 52,
                "velocity": 80,
                "duration": 0.05000000000000071,
                "tempo": 120.0
            },
            {
                "start_time": 25.986363636363635,
                "end_time": 26.036363636363635,
                "pitch": 59,
                "velocity": 80,
                "duration": 0.05000000000000071,
                "tempo": 120.0
            },
            {
                "start_time": 25.936363636363634,
                "end_time": 26.036363636363635,
                "pitch": 66,
                "velocity": 80,
                "duration": 0.10000000000000142,
                "tempo": 120.0
            },
            {
                "start_time": 25.886363636363637,
                "end_time": 26.086363636363636,
                "pitch": 44,
                "velocity": 80,
                "duration": 0.1999999999999993,
                "tempo": 120.0
            },
            {
                "start_time": 26.036363636363635,
                "end_time": 26.086363636363636,
                "pitch": 64,
                "velocity": 80,
                "duration": 0.05000000000000071,
                "tempo": 120.0
            },
            {
                "start_time": 26.086363636363636,
                "end_time": 26.136363636363637,
                "pitch": 59,
                "velocity": 80,
                "duration": 0.05000000000000071,
                "tempo": 120.0
            },
            {
                "start_time": 26.036363636363635,
                "end_time": 26.136363636363637,
                "pitch": 66,
                "velocity": 80,
                "duration": 0.10000000000000142,
                "tempo": 120.0
            },
            {
                "start_time": 25.986363636363635,
                "end_time": 26.186363636363634,
                "pitch": 32,
                "velocity": 80,
                "duration": 0.1999999999999993,
                "tempo": 120.0
            },
            {
                "start_time": 26.136363636363637,
                "end_time": 26.186363636363634,
                "pitch": 52,
                "velocity": 80,
                "duration": 0.04999999999999716,
                "tempo": 120.0
            },
            {
                "start_time": 26.186363636363634,
                "end_time": 26.236363636363635,
                "pitch": 59,
                "velocity": 80,
                "duration": 0.05000000000000071,
                "tempo": 120.0
            },
            {
                "start_time": 26.136363636363637,
                "end_time": 26.236363636363635,
                "pitch": 66,
                "velocity": 80,
                "duration": 0.09999999999999787,
                "tempo": 120.0
            },
            {
                "start_time": 26.086363636363636,
                "end_time": 26.286363636363635,
                "pitch": 44,
                "velocity": 80,
                "duration": 0.1999999999999993,
                "tempo": 120.0
            },
            {
                "start_time": 26.236363636363635,
                "end_time": 26.286363636363635,
                "pitch": 64,
                "velocity": 80,
                "duration": 0.05000000000000071,
                "tempo": 120.0
            },
            {
                "start_time": 26.286363636363635,
                "end_time": 26.33863636363636,
                "pitch": 59,
                "velocity": 80,
                "duration": 0.052272727272725916,
                "tempo": 120.0
            },
            {
                "start_time": 26.236363636363635,
                "end_time": 26.33863636363636,
                "pitch": 66,
                "velocity": 80,
                "duration": 0.10227272727272663,
                "tempo": 120.0
            },
            {
                "start_time": 26.186363636363634,
                "end_time": 26.388636363636362,
                "pitch": 32,
                "velocity": 80,
                "duration": 0.20227272727272805,
                "tempo": 120.0
            },
            {
                "start_time": 26.33863636363636,
                "end_time": 26.388636363636362,
                "pitch": 52,
                "velocity": 80,
                "duration": 0.05000000000000071,
                "tempo": 120.0
            },
            {
                "start_time": 26.388636363636362,
                "end_time": 26.438636363636363,
                "pitch": 59,
                "velocity": 80,
                "duration": 0.05000000000000071,
                "tempo": 120.0
            },
            {
                "start_time": 26.33863636363636,
                "end_time": 26.438636363636363,
                "pitch": 66,
                "velocity": 80,
                "duration": 0.10000000000000142,
                "tempo": 120.0
            },
            {
                "start_time": 26.286363636363635,
                "end_time": 26.488636363636363,
                "pitch": 44,
                "velocity": 80,
                "duration": 0.20227272727272805,
                "tempo": 120.0
            },
            {
                "start_time": 26.438636363636363,
                "end_time": 26.488636363636363,
                "pitch": 64,
                "velocity": 80,
                "duration": 0.05000000000000071,
                "tempo": 120.0
            },
            {
                "start_time": 26.488636363636363,
                "end_time": 26.54090909090909,
                "pitch": 59,
                "velocity": 80,
                "duration": 0.052272727272725916,
                "tempo": 120.0
            },
            {
                "start_time": 26.438636363636363,
                "end_time": 26.54090909090909,
                "pitch": 66,
                "velocity": 80,
                "duration": 0.10227272727272663,
                "tempo": 120.0
            },
            {
                "start_time": 26.54090909090909,
                "end_time": 26.58863636363636,
                "pitch": 53,
                "velocity": 80,
                "duration": 0.04772727272727195,
                "tempo": 120.0
            },
            {
                "start_time": 26.58863636363636,
                "end_time": 26.638636363636362,
                "pitch": 60,
                "velocity": 80,
                "duration": 0.05000000000000071,
                "tempo": 120.0
            },
            {
                "start_time": 26.638636363636362,
                "end_time": 26.688636363636363,
                "pitch": 65,
                "velocity": 80,
                "duration": 0.05000000000000071,
                "tempo": 120.0
            },
            {
                "start_time": 26.638636363636362,
                "end_time": 26.688636363636363,
                "pitch": 65,
                "velocity": 80,
                "duration": 0.05000000000000071,
                "tempo": 120.0
            },
            {
                "start_time": 26.688636363636363,
                "end_time": 26.74090909090909,
                "pitch": 60,
                "velocity": 80,
                "duration": 0.052272727272725916,
                "tempo": 120.0
            },
            {
                "start_time": 26.688636363636363,
                "end_time": 26.74090909090909,
                "pitch": 60,
                "velocity": 80,
                "duration": 0.052272727272725916,
                "tempo": 120.0
            },
            {
                "start_time": 26.58863636363636,
                "end_time": 26.788636363636364,
                "pitch": 48,
                "velocity": 80,
                "duration": 0.20000000000000284,
                "tempo": 120.0
            },
            {
                "start_time": 26.74090909090909,
                "end_time": 26.788636363636364,
                "pitch": 53,
                "velocity": 80,
                "duration": 0.047727272727275505,
                "tempo": 120.0
            },
            {
                "start_time": 26.788636363636364,
                "end_time": 26.83863636363636,
                "pitch": 60,
                "velocity": 80,
                "duration": 0.04999999999999716,
                "tempo": 120.0
            },
            {
                "start_time": 26.74090909090909,
                "end_time": 26.83863636363636,
                "pitch": 65,
                "velocity": 80,
                "duration": 0.09772727272727266,
                "tempo": 120.0
            },
            {
                "start_time": 26.83863636363636,
                "end_time": 26.888636363636362,
                "pitch": 65,
                "velocity": 80,
                "duration": 0.05000000000000071,
                "tempo": 120.0
            },
            {
                "start_time": 26.83863636363636,
                "end_time": 26.888636363636362,
                "pitch": 65,
                "velocity": 80,
                "duration": 0.05000000000000071,
                "tempo": 120.0
            },
            {
                "start_time": 26.888636363636362,
                "end_time": 26.94090909090909,
                "pitch": 60,
                "velocity": 80,
                "duration": 0.05227272727272947,
                "tempo": 120.0
            },
            {
                "start_time": 26.888636363636362,
                "end_time": 26.94090909090909,
                "pitch": 60,
                "velocity": 80,
                "duration": 0.05227272727272947,
                "tempo": 120.0
            },
            {
                "start_time": 26.788636363636364,
                "end_time": 26.988636363636363,
                "pitch": 48,
                "velocity": 80,
                "duration": 0.1999999999999993,
                "tempo": 120.0
            },
            {
                "start_time": 26.94090909090909,
                "end_time": 26.988636363636363,
                "pitch": 53,
                "velocity": 80,
                "duration": 0.04772727272727195,
                "tempo": 120.0
            },
            {
                "start_time": 26.99090909090909,
                "end_time": 27.038636363636364,
                "pitch": 60,
                "velocity": 80,
                "duration": 0.047727272727275505,
                "tempo": 120.0
            },
            {
                "start_time": 26.94090909090909,
                "end_time": 27.038636363636364,
                "pitch": 65,
                "velocity": 80,
                "duration": 0.09772727272727266,
                "tempo": 120.0
            },
            {
                "start_time": 27.038636363636364,
                "end_time": 27.08863636363636,
                "pitch": 65,
                "velocity": 80,
                "duration": 0.04999999999999716,
                "tempo": 120.0
            },
            {
                "start_time": 27.04090909090909,
                "end_time": 27.08863636363636,
                "pitch": 65,
                "velocity": 80,
                "duration": 0.04772727272727195,
                "tempo": 120.0
            },
            {
                "start_time": 27.08863636363636,
                "end_time": 27.09090909090909,
                "pitch": 60,
                "velocity": 80,
                "duration": 0.0022727272727287584,
                "tempo": 120.0
            },
            {
                "start_time": 27.09090909090909,
                "end_time": 27.14090909090909,
                "pitch": 60,
                "velocity": 80,
                "duration": 0.05000000000000071,
                "tempo": 120.0
            },
            {
                "start_time": 26.988636363636363,
                "end_time": 27.19090909090909,
                "pitch": 48,
                "velocity": 80,
                "duration": 0.20227272727272805,
                "tempo": 120.0
            },
            {
                "start_time": 27.14090909090909,
                "end_time": 27.19090909090909,
                "pitch": 53,
                "velocity": 80,
                "duration": 0.05000000000000071,
                "tempo": 120.0
            },
            {
                "start_time": 27.19090909090909,
                "end_time": 27.24090909090909,
                "pitch": 60,
                "velocity": 80,
                "duration": 0.04999999999999716,
                "tempo": 120.0
            },
            {
                "start_time": 27.14090909090909,
                "end_time": 27.24090909090909,
                "pitch": 65,
                "velocity": 80,
                "duration": 0.09999999999999787,
                "tempo": 120.0
            },
            {
                "start_time": 27.24090909090909,
                "end_time": 27.29090909090909,
                "pitch": 65,
                "velocity": 80,
                "duration": 0.05000000000000071,
                "tempo": 120.0
            },
            {
                "start_time": 27.24090909090909,
                "end_time": 27.29090909090909,
                "pitch": 65,
                "velocity": 80,
                "duration": 0.05000000000000071,
                "tempo": 120.0
            },
            {
                "start_time": 27.29090909090909,
                "end_time": 27.34090909090909,
                "pitch": 60,
                "velocity": 80,
                "duration": 0.05000000000000071,
                "tempo": 120.0
            },
            {
                "start_time": 27.29090909090909,
                "end_time": 27.34090909090909,
                "pitch": 60,
                "velocity": 80,
                "duration": 0.05000000000000071,
                "tempo": 120.0
            },
            {
                "start_time": 26.388636363636362,
                "end_time": 27.39090909090909,
                "pitch": 32,
                "velocity": 80,
                "duration": 1.0022727272727288,
                "tempo": 120.0
            },
            {
                "start_time": 27.34090909090909,
                "end_time": 27.39090909090909,
                "pitch": 52,
                "velocity": 80,
                "duration": 0.05000000000000071,
                "tempo": 120.0
            },
            {
                "start_time": 27.39090909090909,
                "end_time": 27.440909090909088,
                "pitch": 59,
                "velocity": 80,
                "duration": 0.04999999999999716,
                "tempo": 120.0
            },
            {
                "start_time": 26.54090909090909,
                "end_time": 27.440909090909088,
                "pitch": 66,
                "velocity": 80,
                "duration": 0.8999999999999986,
                "tempo": 120.0
            },
            {
                "start_time": 26.488636363636363,
                "end_time": 27.49090909090909,
                "pitch": 44,
                "velocity": 80,
                "duration": 1.0022727272727252,
                "tempo": 120.0
            },
            {
                "start_time": 27.34090909090909,
                "end_time": 27.49090909090909,
                "pitch": 64,
                "velocity": 80,
                "duration": 0.14999999999999858,
                "tempo": 120.0
            },
            {
                "start_time": 27.440909090909088,
                "end_time": 27.49090909090909,
                "pitch": 64,
                "velocity": 80,
                "duration": 0.05000000000000071,
                "tempo": 120.0
            },
            {
                "start_time": 27.49090909090909,
                "end_time": 27.543181818181818,
                "pitch": 59,
                "velocity": 80,
                "duration": 0.05227272727272947,
                "tempo": 120.0
            },
            {
                "start_time": 27.440909090909088,
                "end_time": 27.543181818181818,
                "pitch": 66,
                "velocity": 80,
                "duration": 0.10227272727273018,
                "tempo": 120.0
            },
            {
                "start_time": 27.543181818181818,
                "end_time": 27.59090909090909,
                "pitch": 52,
                "velocity": 80,
                "duration": 0.04772727272727195,
                "tempo": 120.0
            },
            {
                "start_time": 27.39090909090909,
                "end_time": 27.593181818181815,
                "pitch": 32,
                "velocity": 80,
                "duration": 0.2022727272727245,
                "tempo": 120.0
            },
            {
                "start_time": 27.59090909090909,
                "end_time": 27.593181818181815,
                "pitch": 32,
                "velocity": 80,
                "duration": 0.0022727272727252057,
                "tempo": 120.0
            },
            {
                "start_time": 27.593181818181815,
                "end_time": 27.643181818181816,
                "pitch": 59,
                "velocity": 80,
                "duration": 0.05000000000000071,
                "tempo": 120.0
            },
            {
                "start_time": 27.543181818181818,
                "end_time": 27.643181818181816,
                "pitch": 66,
                "velocity": 80,
                "duration": 0.09999999999999787,
                "tempo": 120.0
            },
            {
                "start_time": 27.49090909090909,
                "end_time": 27.693181818181817,
                "pitch": 44,
                "velocity": 80,
                "duration": 0.20227272727272805,
                "tempo": 120.0
            },
            {
                "start_time": 27.643181818181816,
                "end_time": 27.693181818181817,
                "pitch": 64,
                "velocity": 80,
                "duration": 0.05000000000000071,
                "tempo": 120.0
            },
            {
                "start_time": 27.693181818181817,
                "end_time": 27.743181818181817,
                "pitch": 59,
                "velocity": 80,
                "duration": 0.05000000000000071,
                "tempo": 120.0
            },
            {
                "start_time": 27.643181818181816,
                "end_time": 27.743181818181817,
                "pitch": 66,
                "velocity": 80,
                "duration": 0.10000000000000142,
                "tempo": 120.0
            },
            {
                "start_time": 27.743181818181817,
                "end_time": 27.793181818181818,
                "pitch": 52,
                "velocity": 80,
                "duration": 0.05000000000000071,
                "tempo": 120.0
            },
            {
                "start_time": 27.793181818181818,
                "end_time": 27.843181818181815,
                "pitch": 59,
                "velocity": 80,
                "duration": 0.04999999999999716,
                "tempo": 120.0
            },
            {
                "start_time": 27.743181818181817,
                "end_time": 27.843181818181815,
                "pitch": 66,
                "velocity": 80,
                "duration": 0.09999999999999787,
                "tempo": 120.0
            },
            {
                "start_time": 27.693181818181817,
                "end_time": 27.893181818181816,
                "pitch": 44,
                "velocity": 80,
                "duration": 0.1999999999999993,
                "tempo": 120.0
            },
            {
                "start_time": 27.843181818181815,
                "end_time": 27.893181818181816,
                "pitch": 64,
                "velocity": 80,
                "duration": 0.05000000000000071,
                "tempo": 120.0
            },
            {
                "start_time": 27.893181818181816,
                "end_time": 27.943181818181817,
                "pitch": 59,
                "velocity": 80,
                "duration": 0.05000000000000071,
                "tempo": 120.0
            },
            {
                "start_time": 27.843181818181815,
                "end_time": 27.943181818181817,
                "pitch": 66,
                "velocity": 80,
                "duration": 0.10000000000000142,
                "tempo": 120.0
            },
            {
                "start_time": 27.793181818181818,
                "end_time": 27.993181818181817,
                "pitch": 32,
                "velocity": 80,
                "duration": 0.1999999999999993,
                "tempo": 120.0
            },
            {
                "start_time": 27.943181818181817,
                "end_time": 27.993181818181817,
                "pitch": 52,
                "velocity": 80,
                "duration": 0.05000000000000071,
                "tempo": 120.0
            },
            {
                "start_time": 27.993181818181817,
                "end_time": 28.043181818181818,
                "pitch": 59,
                "velocity": 80,
                "duration": 0.05000000000000071,
                "tempo": 120.0
            },
            {
                "start_time": 27.943181818181817,
                "end_time": 28.043181818181818,
                "pitch": 66,
                "velocity": 80,
                "duration": 0.10000000000000142,
                "tempo": 120.0
            },
            {
                "start_time": 27.893181818181816,
                "end_time": 28.093181818181815,
                "pitch": 44,
                "velocity": 80,
                "duration": 0.1999999999999993,
                "tempo": 120.0
            },
            {
                "start_time": 28.043181818181818,
                "end_time": 28.093181818181815,
                "pitch": 64,
                "velocity": 80,
                "duration": 0.04999999999999716,
                "tempo": 120.0
            },
            {
                "start_time": 28.093181818181815,
                "end_time": 28.145454545454545,
                "pitch": 59,
                "velocity": 80,
                "duration": 0.05227272727272947,
                "tempo": 120.0
            },
            {
                "start_time": 28.145454545454545,
                "end_time": 28.193181818181817,
                "pitch": 51,
                "velocity": 80,
                "duration": 0.04772727272727195,
                "tempo": 120.0
            },
            {
                "start_time": 28.193181818181817,
                "end_time": 28.245454545454542,
                "pitch": 58,
                "velocity": 80,
                "duration": 0.052272727272725916,
                "tempo": 120.0
            },
            {
                "start_time": 28.145454545454545,
                "end_time": 28.245454545454542,
                "pitch": 65,
                "velocity": 80,
                "duration": 0.09999999999999787,
                "tempo": 120.0
            },
            {
                "start_time": 28.245454545454542,
                "end_time": 28.295454545454543,
                "pitch": 63,
                "velocity": 80,
                "duration": 0.05000000000000071,
                "tempo": 120.0
            },
            {
                "start_time": 28.295454545454543,
                "end_time": 28.345454545454544,
                "pitch": 58,
                "velocity": 80,
                "duration": 0.05000000000000071,
                "tempo": 120.0
            },
            {
                "start_time": 28.245454545454542,
                "end_time": 28.345454545454544,
                "pitch": 65,
                "velocity": 80,
                "duration": 0.10000000000000142,
                "tempo": 120.0
            },
            {
                "start_time": 28.193181818181817,
                "end_time": 28.395454545454545,
                "pitch": 27,
                "velocity": 80,
                "duration": 0.20227272727272805,
                "tempo": 120.0
            },
            {
                "start_time": 28.345454545454544,
                "end_time": 28.395454545454545,
                "pitch": 51,
                "velocity": 80,
                "duration": 0.05000000000000071,
                "tempo": 120.0
            },
            {
                "start_time": 28.395454545454545,
                "end_time": 28.445454545454545,
                "pitch": 58,
                "velocity": 80,
                "duration": 0.05000000000000071,
                "tempo": 120.0
            },
            {
                "start_time": 28.345454545454544,
                "end_time": 28.445454545454545,
                "pitch": 65,
                "velocity": 80,
                "duration": 0.10000000000000142,
                "tempo": 120.0
            },
            {
                "start_time": 28.295454545454543,
                "end_time": 28.49772727272727,
                "pitch": 39,
                "velocity": 80,
                "duration": 0.20227272727272805,
                "tempo": 120.0
            },
            {
                "start_time": 28.445454545454545,
                "end_time": 28.49772727272727,
                "pitch": 63,
                "velocity": 80,
                "duration": 0.052272727272725916,
                "tempo": 120.0
            },
            {
                "start_time": 28.49772727272727,
                "end_time": 28.547727272727272,
                "pitch": 58,
                "velocity": 80,
                "duration": 0.05000000000000071,
                "tempo": 120.0
            },
            {
                "start_time": 28.445454545454545,
                "end_time": 28.547727272727272,
                "pitch": 65,
                "velocity": 80,
                "duration": 0.10227272727272663,
                "tempo": 120.0
            },
            {
                "start_time": 28.395454545454545,
                "end_time": 28.597727272727273,
                "pitch": 27,
                "velocity": 80,
                "duration": 0.20227272727272805,
                "tempo": 120.0
            },
            {
                "start_time": 28.547727272727272,
                "end_time": 28.597727272727273,
                "pitch": 51,
                "velocity": 80,
                "duration": 0.05000000000000071,
                "tempo": 120.0
            },
            {
                "start_time": 28.597727272727273,
                "end_time": 28.64772727272727,
                "pitch": 58,
                "velocity": 80,
                "duration": 0.04999999999999716,
                "tempo": 120.0
            },
            {
                "start_time": 28.547727272727272,
                "end_time": 28.64772727272727,
                "pitch": 65,
                "velocity": 80,
                "duration": 0.09999999999999787,
                "tempo": 120.0
            },
            {
                "start_time": 28.49772727272727,
                "end_time": 28.69772727272727,
                "pitch": 39,
                "velocity": 80,
                "duration": 0.1999999999999993,
                "tempo": 120.0
            },
            {
                "start_time": 28.64772727272727,
                "end_time": 28.69772727272727,
                "pitch": 63,
                "velocity": 80,
                "duration": 0.05000000000000071,
                "tempo": 120.0
            },
            {
                "start_time": 28.69772727272727,
                "end_time": 28.74772727272727,
                "pitch": 58,
                "velocity": 80,
                "duration": 0.05000000000000071,
                "tempo": 120.0
            },
            {
                "start_time": 28.64772727272727,
                "end_time": 28.74772727272727,
                "pitch": 65,
                "velocity": 80,
                "duration": 0.10000000000000142,
                "tempo": 120.0
            },
            {
                "start_time": 28.597727272727273,
                "end_time": 28.797727272727272,
                "pitch": 27,
                "velocity": 80,
                "duration": 0.1999999999999993,
                "tempo": 120.0
            },
            {
                "start_time": 28.74772727272727,
                "end_time": 28.797727272727272,
                "pitch": 51,
                "velocity": 80,
                "duration": 0.05000000000000071,
                "tempo": 120.0
            },
            {
                "start_time": 28.797727272727272,
                "end_time": 28.847727272727273,
                "pitch": 58,
                "velocity": 80,
                "duration": 0.05000000000000071,
                "tempo": 120.0
            },
            {
                "start_time": 28.74772727272727,
                "end_time": 28.847727272727273,
                "pitch": 65,
                "velocity": 80,
                "duration": 0.10000000000000142,
                "tempo": 120.0
            },
            {
                "start_time": 28.69772727272727,
                "end_time": 28.89772727272727,
                "pitch": 39,
                "velocity": 80,
                "duration": 0.1999999999999993,
                "tempo": 120.0
            },
            {
                "start_time": 28.847727272727273,
                "end_time": 28.89772727272727,
                "pitch": 63,
                "velocity": 80,
                "duration": 0.04999999999999716,
                "tempo": 120.0
            },
            {
                "start_time": 28.89772727272727,
                "end_time": 28.94772727272727,
                "pitch": 58,
                "velocity": 80,
                "duration": 0.05000000000000071,
                "tempo": 120.0
            },
            {
                "start_time": 28.043181818181818,
                "end_time": 28.94772727272727,
                "pitch": 66,
                "velocity": 80,
                "duration": 0.9045454545454525,
                "tempo": 120.0
            },
            {
                "start_time": 27.993181818181817,
                "end_time": 28.99772727272727,
                "pitch": 32,
                "velocity": 80,
                "duration": 1.004545454545454,
                "tempo": 120.0
            },
            {
                "start_time": 28.94772727272727,
                "end_time": 28.99772727272727,
                "pitch": 52,
                "velocity": 80,
                "duration": 0.05000000000000071,
                "tempo": 120.0
            },
            {
                "start_time": 28.99772727272727,
                "end_time": 29.047727272727272,
                "pitch": 59,
                "velocity": 80,
                "duration": 0.05000000000000071,
                "tempo": 120.0
            },
            {
                "start_time": 28.94772727272727,
                "end_time": 29.047727272727272,
                "pitch": 66,
                "velocity": 80,
                "duration": 0.10000000000000142,
                "tempo": 120.0
            },
            {
                "start_time": 28.093181818181815,
                "end_time": 29.097727272727273,
                "pitch": 44,
                "velocity": 80,
                "duration": 1.0045454545454575,
                "tempo": 120.0
            },
            {
                "start_time": 29.047727272727272,
                "end_time": 29.097727272727273,
                "pitch": 64,
                "velocity": 80,
                "duration": 0.05000000000000071,
                "tempo": 120.0
            },
            {
                "start_time": 29.097727272727273,
                "end_time": 29.14772727272727,
                "pitch": 59,
                "velocity": 80,
                "duration": 0.04999999999999716,
                "tempo": 120.0
            },
            {
                "start_time": 29.047727272727272,
                "end_time": 29.14772727272727,
                "pitch": 66,
                "velocity": 80,
                "duration": 0.09999999999999787,
                "tempo": 120.0
            },
            {
                "start_time": 28.99772727272727,
                "end_time": 29.19772727272727,
                "pitch": 32,
                "velocity": 80,
                "duration": 0.1999999999999993,
                "tempo": 120.0
            },
            {
                "start_time": 29.14772727272727,
                "end_time": 29.19772727272727,
                "pitch": 52,
                "velocity": 80,
                "duration": 0.05000000000000071,
                "tempo": 120.0
            },
            {
                "start_time": 29.19772727272727,
                "end_time": 29.24772727272727,
                "pitch": 59,
                "velocity": 80,
                "duration": 0.05000000000000071,
                "tempo": 120.0
            },
            {
                "start_time": 29.14772727272727,
                "end_time": 29.24772727272727,
                "pitch": 66,
                "velocity": 80,
                "duration": 0.10000000000000142,
                "tempo": 120.0
            },
            {
                "start_time": 29.097727272727273,
                "end_time": 29.297727272727272,
                "pitch": 44,
                "velocity": 80,
                "duration": 0.1999999999999993,
                "tempo": 120.0
            },
            {
                "start_time": 29.24772727272727,
                "end_time": 29.297727272727272,
                "pitch": 64,
                "velocity": 80,
                "duration": 0.05000000000000071,
                "tempo": 120.0
            },
            {
                "start_time": 29.297727272727272,
                "end_time": 29.347727272727273,
                "pitch": 59,
                "velocity": 80,
                "duration": 0.05000000000000071,
                "tempo": 120.0
            },
            {
                "start_time": 29.24772727272727,
                "end_time": 29.347727272727273,
                "pitch": 66,
                "velocity": 80,
                "duration": 0.10000000000000142,
                "tempo": 120.0
            },
            {
                "start_time": 29.19772727272727,
                "end_time": 29.4,
                "pitch": 32,
                "velocity": 80,
                "duration": 0.20227272727272805,
                "tempo": 120.0
            },
            {
                "start_time": 29.347727272727273,
                "end_time": 29.4,
                "pitch": 52,
                "velocity": 80,
                "duration": 0.052272727272725916,
                "tempo": 120.0
            },
            {
                "start_time": 29.4,
                "end_time": 29.45,
                "pitch": 59,
                "velocity": 80,
                "duration": 0.05000000000000071,
                "tempo": 120.0
            },
            {
                "start_time": 29.347727272727273,
                "end_time": 29.45,
                "pitch": 66,
                "velocity": 80,
                "duration": 0.10227272727272663,
                "tempo": 120.0
            },
            {
                "start_time": 29.297727272727272,
                "end_time": 29.502272727272725,
                "pitch": 44,
                "velocity": 80,
                "duration": 0.20454545454545325,
                "tempo": 120.0
            },
            {
                "start_time": 29.45,
                "end_time": 29.502272727272725,
                "pitch": 64,
                "velocity": 80,
                "duration": 0.052272727272725916,
                "tempo": 120.0
            },
            {
                "start_time": 29.502272727272725,
                "end_time": 29.554545454545455,
                "pitch": 59,
                "velocity": 80,
                "duration": 0.05227272727272947,
                "tempo": 120.0
            },
            {
                "start_time": 29.45,
                "end_time": 29.554545454545455,
                "pitch": 66,
                "velocity": 80,
                "duration": 0.10454545454545539,
                "tempo": 120.0
            },
            {
                "start_time": 29.4,
                "end_time": 29.604545454545452,
                "pitch": 32,
                "velocity": 80,
                "duration": 0.20454545454545325,
                "tempo": 120.0
            },
            {
                "start_time": 29.554545454545455,
                "end_time": 29.604545454545452,
                "pitch": 52,
                "velocity": 80,
                "duration": 0.04999999999999716,
                "tempo": 120.0
            },
            {
                "start_time": 29.604545454545452,
                "end_time": 29.65681818181818,
                "pitch": 59,
                "velocity": 80,
                "duration": 0.05227272727272947,
                "tempo": 120.0
            },
            {
                "start_time": 29.554545454545455,
                "end_time": 29.65681818181818,
                "pitch": 66,
                "velocity": 80,
                "duration": 0.10227272727272663,
                "tempo": 120.0
            },
            {
                "start_time": 29.502272727272725,
                "end_time": 29.706818181818182,
                "pitch": 44,
                "velocity": 80,
                "duration": 0.2045454545454568,
                "tempo": 120.0
            },
            {
                "start_time": 29.65681818181818,
                "end_time": 29.706818181818182,
                "pitch": 64,
                "velocity": 80,
                "duration": 0.05000000000000071,
                "tempo": 120.0
            },
            {
                "start_time": 29.709090909090907,
                "end_time": 29.759090909090908,
                "pitch": 59,
                "velocity": 80,
                "duration": 0.05000000000000071,
                "tempo": 120.0
            },
            {
                "start_time": 29.65681818181818,
                "end_time": 29.759090909090908,
                "pitch": 66,
                "velocity": 80,
                "duration": 0.10227272727272663,
                "tempo": 120.0
            },
            {
                "start_time": 27.19090909090909,
                "end_time": 29.80909090909091,
                "pitch": 48,
                "velocity": 80,
                "duration": 2.6181818181818173,
                "tempo": 120.0
            },
            {
                "start_time": 29.761363636363637,
                "end_time": 29.80909090909091,
                "pitch": 53,
                "velocity": 80,
                "duration": 0.04772727272727195,
                "tempo": 120.0
            },
            {
                "start_time": 29.80909090909091,
                "end_time": 29.85681818181818,
                "pitch": 60,
                "velocity": 80,
                "duration": 0.04772727272727195,
                "tempo": 120.0
            },
            {
                "start_time": 28.847727272727273,
                "end_time": 29.85681818181818,
                "pitch": 65,
                "velocity": 80,
                "duration": 1.009090909090908,
                "tempo": 120.0
            },
            {
                "start_time": 29.85681818181818,
                "end_time": 29.90681818181818,
                "pitch": 65,
                "velocity": 80,
                "duration": 0.05000000000000071,
                "tempo": 120.0
            },
            {
                "start_time": 29.85681818181818,
                "end_time": 29.90681818181818,
                "pitch": 65,
                "velocity": 80,
                "duration": 0.05000000000000071,
                "tempo": 120.0
            },
            {
                "start_time": 29.90681818181818,
                "end_time": 29.956818181818182,
                "pitch": 60,
                "velocity": 80,
                "duration": 0.05000000000000071,
                "tempo": 120.0
            },
            {
                "start_time": 29.90681818181818,
                "end_time": 29.956818181818182,
                "pitch": 60,
                "velocity": 80,
                "duration": 0.05000000000000071,
                "tempo": 120.0
            },
            {
                "start_time": 29.80909090909091,
                "end_time": 30.004545454545454,
                "pitch": 48,
                "velocity": 80,
                "duration": 0.19545454545454533,
                "tempo": 120.0
            },
            {
                "start_time": 29.956818181818182,
                "end_time": 30.004545454545454,
                "pitch": 53,
                "velocity": 80,
                "duration": 0.04772727272727195,
                "tempo": 120.0
            },
            {
                "start_time": 30.004545454545454,
                "end_time": 30.054545454545455,
                "pitch": 60,
                "velocity": 80,
                "duration": 0.05000000000000071,
                "tempo": 120.0
            },
            {
                "start_time": 29.956818181818182,
                "end_time": 30.054545454545455,
                "pitch": 65,
                "velocity": 80,
                "duration": 0.09772727272727266,
                "tempo": 120.0
            },
            {
                "start_time": 30.054545454545455,
                "end_time": 30.102272727272727,
                "pitch": 65,
                "velocity": 80,
                "duration": 0.04772727272727195,
                "tempo": 120.0
            },
            {
                "start_time": 30.054545454545455,
                "end_time": 30.102272727272727,
                "pitch": 65,
                "velocity": 80,
                "duration": 0.04772727272727195,
                "tempo": 120.0
            },
            {
                "start_time": 30.102272727272727,
                "end_time": 30.152272727272727,
                "pitch": 60,
                "velocity": 80,
                "duration": 0.05000000000000071,
                "tempo": 120.0
            },
            {
                "start_time": 30.102272727272727,
                "end_time": 30.152272727272727,
                "pitch": 60,
                "velocity": 80,
                "duration": 0.05000000000000071,
                "tempo": 120.0
            },
            {
                "start_time": 30.004545454545454,
                "end_time": 30.202272727272724,
                "pitch": 48,
                "velocity": 80,
                "duration": 0.19772727272727053,
                "tempo": 120.0
            },
            {
                "start_time": 30.152272727272727,
                "end_time": 30.202272727272724,
                "pitch": 53,
                "velocity": 80,
                "duration": 0.04999999999999716,
                "tempo": 120.0
            },
            {
                "start_time": 30.202272727272724,
                "end_time": 30.252272727272725,
                "pitch": 60,
                "velocity": 80,
                "duration": 0.05000000000000071,
                "tempo": 120.0
            },
            {
                "start_time": 30.152272727272727,
                "end_time": 30.252272727272725,
                "pitch": 65,
                "velocity": 80,
                "duration": 0.09999999999999787,
                "tempo": 120.0
            },
            {
                "start_time": 30.252272727272725,
                "end_time": 30.302272727272726,
                "pitch": 65,
                "velocity": 80,
                "duration": 0.05000000000000071,
                "tempo": 120.0
            },
            {
                "start_time": 30.252272727272725,
                "end_time": 30.302272727272726,
                "pitch": 65,
                "velocity": 80,
                "duration": 0.05000000000000071,
                "tempo": 120.0
            },
            {
                "start_time": 30.302272727272726,
                "end_time": 30.354545454545452,
                "pitch": 60,
                "velocity": 80,
                "duration": 0.052272727272725916,
                "tempo": 120.0
            },
            {
                "start_time": 30.302272727272726,
                "end_time": 30.354545454545452,
                "pitch": 60,
                "velocity": 80,
                "duration": 0.052272727272725916,
                "tempo": 120.0
            },
            {
                "start_time": 30.202272727272724,
                "end_time": 30.404545454545453,
                "pitch": 48,
                "velocity": 80,
                "duration": 0.20227272727272805,
                "tempo": 120.0
            },
            {
                "start_time": 30.354545454545452,
                "end_time": 30.404545454545453,
                "pitch": 53,
                "velocity": 80,
                "duration": 0.05000000000000071,
                "tempo": 120.0
            },
            {
                "start_time": 30.404545454545453,
                "end_time": 30.454545454545453,
                "pitch": 60,
                "velocity": 80,
                "duration": 0.05000000000000071,
                "tempo": 120.0
            },
            {
                "start_time": 30.354545454545452,
                "end_time": 30.454545454545453,
                "pitch": 65,
                "velocity": 80,
                "duration": 0.10000000000000142,
                "tempo": 120.0
            },
            {
                "start_time": 30.454545454545453,
                "end_time": 30.504545454545454,
                "pitch": 65,
                "velocity": 80,
                "duration": 0.05000000000000071,
                "tempo": 120.0
            },
            {
                "start_time": 30.454545454545453,
                "end_time": 30.504545454545454,
                "pitch": 65,
                "velocity": 80,
                "duration": 0.05000000000000071,
                "tempo": 120.0
            },
            {
                "start_time": 30.504545454545454,
                "end_time": 30.55681818181818,
                "pitch": 60,
                "velocity": 80,
                "duration": 0.052272727272725916,
                "tempo": 120.0
            },
            {
                "start_time": 30.504545454545454,
                "end_time": 30.55681818181818,
                "pitch": 60,
                "velocity": 80,
                "duration": 0.052272727272725916,
                "tempo": 120.0
            },
            {
                "start_time": 29.604545454545452,
                "end_time": 30.60681818181818,
                "pitch": 32,
                "velocity": 80,
                "duration": 1.0022727272727288,
                "tempo": 120.0
            },
            {
                "start_time": 30.55681818181818,
                "end_time": 30.60681818181818,
                "pitch": 52,
                "velocity": 80,
                "duration": 0.05000000000000071,
                "tempo": 120.0
            },
            {
                "start_time": 30.60681818181818,
                "end_time": 30.65681818181818,
                "pitch": 59,
                "velocity": 80,
                "duration": 0.05000000000000071,
                "tempo": 120.0
            },
            {
                "start_time": 29.759090909090908,
                "end_time": 30.65681818181818,
                "pitch": 66,
                "velocity": 80,
                "duration": 0.8977272727272734,
                "tempo": 120.0
            },
            {
                "start_time": 29.706818181818182,
                "end_time": 30.709090909090907,
                "pitch": 44,
                "velocity": 80,
                "duration": 1.0022727272727252,
                "tempo": 120.0
            },
            {
                "start_time": 30.55681818181818,
                "end_time": 30.709090909090907,
                "pitch": 64,
                "velocity": 80,
                "duration": 0.15227272727272734,
                "tempo": 120.0
            },
            {
                "start_time": 30.659090909090907,
                "end_time": 30.709090909090907,
                "pitch": 64,
                "velocity": 80,
                "duration": 0.05000000000000071,
                "tempo": 120.0
            },
            {
                "start_time": 30.709090909090907,
                "end_time": 30.761363636363633,
                "pitch": 59,
                "velocity": 80,
                "duration": 0.052272727272725916,
                "tempo": 120.0
            },
            {
                "start_time": 30.65681818181818,
                "end_time": 30.761363636363633,
                "pitch": 66,
                "velocity": 80,
                "duration": 0.10454545454545183,
                "tempo": 120.0
            },
            {
                "start_time": 30.60681818181818,
                "end_time": 30.811363636363634,
                "pitch": 32,
                "velocity": 80,
                "duration": 0.20454545454545325,
                "tempo": 120.0
            },
            {
                "start_time": 30.761363636363633,
                "end_time": 30.811363636363634,
                "pitch": 52,
                "velocity": 80,
                "duration": 0.05000000000000071,
                "tempo": 120.0
            },
            {
                "start_time": 30.811363636363634,
                "end_time": 30.863636363636363,
                "pitch": 59,
                "velocity": 80,
                "duration": 0.05227272727272947,
                "tempo": 120.0
            },
            {
                "start_time": 30.761363636363633,
                "end_time": 30.863636363636363,
                "pitch": 66,
                "velocity": 80,
                "duration": 0.10227272727273018,
                "tempo": 120.0
            },
            {
                "start_time": 30.709090909090907,
                "end_time": 30.91590909090909,
                "pitch": 44,
                "velocity": 80,
                "duration": 0.206818181818182,
                "tempo": 120.0
            },
            {
                "start_time": 30.863636363636363,
                "end_time": 30.91590909090909,
                "pitch": 64,
                "velocity": 80,
                "duration": 0.052272727272725916,
                "tempo": 120.0
            },
            {
                "start_time": 30.91590909090909,
                "end_time": 30.96590909090909,
                "pitch": 59,
                "velocity": 80,
                "duration": 0.05000000000000071,
                "tempo": 120.0
            },
            {
                "start_time": 30.863636363636363,
                "end_time": 30.96590909090909,
                "pitch": 66,
                "velocity": 80,
                "duration": 0.10227272727272663,
                "tempo": 120.0
            },
            {
                "start_time": 30.811363636363634,
                "end_time": 31.01590909090909,
                "pitch": 32,
                "velocity": 80,
                "duration": 0.2045454545454568,
                "tempo": 120.0
            },
            {
                "start_time": 30.968181818181815,
                "end_time": 31.01590909090909,
                "pitch": 52,
                "velocity": 80,
                "duration": 0.047727272727275505,
                "tempo": 120.0
            },
            {
                "start_time": 31.01590909090909,
                "end_time": 31.065909090909088,
                "pitch": 59,
                "velocity": 80,
                "duration": 0.04999999999999716,
                "tempo": 120.0
            },
            {
                "start_time": 30.96590909090909,
                "end_time": 31.065909090909088,
                "pitch": 66,
                "velocity": 80,
                "duration": 0.09999999999999787,
                "tempo": 120.0
            },
            {
                "start_time": 30.91590909090909,
                "end_time": 31.11590909090909,
                "pitch": 44,
                "velocity": 80,
                "duration": 0.1999999999999993,
                "tempo": 120.0
            },
            {
                "start_time": 31.065909090909088,
                "end_time": 31.11590909090909,
                "pitch": 64,
                "velocity": 80,
                "duration": 0.05000000000000071,
                "tempo": 120.0
            },
            {
                "start_time": 31.11590909090909,
                "end_time": 31.168181818181818,
                "pitch": 59,
                "velocity": 80,
                "duration": 0.05227272727272947,
                "tempo": 120.0
            },
            {
                "start_time": 31.065909090909088,
                "end_time": 31.168181818181818,
                "pitch": 66,
                "velocity": 80,
                "duration": 0.10227272727273018,
                "tempo": 120.0
            },
            {
                "start_time": 31.01590909090909,
                "end_time": 31.21590909090909,
                "pitch": 32,
                "velocity": 80,
                "duration": 0.1999999999999993,
                "tempo": 120.0
            },
            {
                "start_time": 31.168181818181818,
                "end_time": 31.21590909090909,
                "pitch": 52,
                "velocity": 80,
                "duration": 0.04772727272727195,
                "tempo": 120.0
            },
            {
                "start_time": 31.218181818181815,
                "end_time": 31.26590909090909,
                "pitch": 59,
                "velocity": 80,
                "duration": 0.047727272727275505,
                "tempo": 120.0
            },
            {
                "start_time": 31.168181818181818,
                "end_time": 31.268181818181816,
                "pitch": 66,
                "velocity": 80,
                "duration": 0.09999999999999787,
                "tempo": 120.0
            },
            {
                "start_time": 31.26590909090909,
                "end_time": 31.268181818181816,
                "pitch": 66,
                "velocity": 80,
                "duration": 0.0022727272727252057,
                "tempo": 120.0
            },
            {
                "start_time": 31.11590909090909,
                "end_time": 31.318181818181817,
                "pitch": 44,
                "velocity": 80,
                "duration": 0.20227272727272805,
                "tempo": 120.0
            },
            {
                "start_time": 31.268181818181816,
                "end_time": 31.318181818181817,
                "pitch": 64,
                "velocity": 80,
                "duration": 0.05000000000000071,
                "tempo": 120.0
            },
            {
                "start_time": 31.318181818181817,
                "end_time": 31.368181818181817,
                "pitch": 59,
                "velocity": 80,
                "duration": 0.05000000000000071,
                "tempo": 120.0
            },
            {
                "start_time": 28.797727272727272,
                "end_time": 31.418181818181818,
                "pitch": 27,
                "velocity": 80,
                "duration": 2.620454545454546,
                "tempo": 120.0
            },
            {
                "start_time": 31.368181818181817,
                "end_time": 31.418181818181818,
                "pitch": 51,
                "velocity": 80,
                "duration": 0.05000000000000071,
                "tempo": 120.0
            },
            {
                "start_time": 31.418181818181818,
                "end_time": 31.468181818181815,
                "pitch": 58,
                "velocity": 80,
                "duration": 0.04999999999999716,
                "tempo": 120.0
            },
            {
                "start_time": 31.368181818181817,
                "end_time": 31.468181818181815,
                "pitch": 65,
                "velocity": 80,
                "duration": 0.09999999999999787,
                "tempo": 120.0
            },
            {
                "start_time": 28.89772727272727,
                "end_time": 31.518181818181816,
                "pitch": 39,
                "velocity": 80,
                "duration": 2.620454545454546,
                "tempo": 120.0
            },
            {
                "start_time": 31.468181818181815,
                "end_time": 31.518181818181816,
                "pitch": 63,
                "velocity": 80,
                "duration": 0.05000000000000071,
                "tempo": 120.0
            },
            {
                "start_time": 31.518181818181816,
                "end_time": 31.568181818181817,
                "pitch": 58,
                "velocity": 80,
                "duration": 0.05000000000000071,
                "tempo": 120.0
            },
            {
                "start_time": 31.468181818181815,
                "end_time": 31.568181818181817,
                "pitch": 65,
                "velocity": 80,
                "duration": 0.10000000000000142,
                "tempo": 120.0
            },
            {
                "start_time": 31.418181818181818,
                "end_time": 31.618181818181817,
                "pitch": 27,
                "velocity": 80,
                "duration": 0.1999999999999993,
                "tempo": 120.0
            },
            {
                "start_time": 31.568181818181817,
                "end_time": 31.618181818181817,
                "pitch": 51,
                "velocity": 80,
                "duration": 0.05000000000000071,
                "tempo": 120.0
            },
            {
                "start_time": 31.618181818181817,
                "end_time": 31.668181818181818,
                "pitch": 58,
                "velocity": 80,
                "duration": 0.05000000000000071,
                "tempo": 120.0
            },
            {
                "start_time": 31.568181818181817,
                "end_time": 31.668181818181818,
                "pitch": 65,
                "velocity": 80,
                "duration": 0.10000000000000142,
                "tempo": 120.0
            },
            {
                "start_time": 31.518181818181816,
                "end_time": 31.718181818181815,
                "pitch": 39,
                "velocity": 80,
                "duration": 0.1999999999999993,
                "tempo": 120.0
            },
            {
                "start_time": 31.668181818181818,
                "end_time": 31.718181818181815,
                "pitch": 63,
                "velocity": 80,
                "duration": 0.04999999999999716,
                "tempo": 120.0
            },
            {
                "start_time": 31.718181818181815,
                "end_time": 31.768181818181816,
                "pitch": 58,
                "velocity": 80,
                "duration": 0.05000000000000071,
                "tempo": 120.0
            },
            {
                "start_time": 31.668181818181818,
                "end_time": 31.768181818181816,
                "pitch": 65,
                "velocity": 80,
                "duration": 0.09999999999999787,
                "tempo": 120.0
            },
            {
                "start_time": 31.618181818181817,
                "end_time": 31.818181818181817,
                "pitch": 27,
                "velocity": 80,
                "duration": 0.1999999999999993,
                "tempo": 120.0
            },
            {
                "start_time": 31.768181818181816,
                "end_time": 31.818181818181817,
                "pitch": 51,
                "velocity": 80,
                "duration": 0.05000000000000071,
                "tempo": 120.0
            },
            {
                "start_time": 31.818181818181817,
                "end_time": 31.868181818181817,
                "pitch": 58,
                "velocity": 80,
                "duration": 0.05000000000000071,
                "tempo": 120.0
            },
            {
                "start_time": 31.768181818181816,
                "end_time": 31.868181818181817,
                "pitch": 65,
                "velocity": 80,
                "duration": 0.10000000000000142,
                "tempo": 120.0
            },
            {
                "start_time": 31.718181818181815,
                "end_time": 31.918181818181818,
                "pitch": 39,
                "velocity": 80,
                "duration": 0.20000000000000284,
                "tempo": 120.0
            },
            {
                "start_time": 31.868181818181817,
                "end_time": 31.918181818181818,
                "pitch": 63,
                "velocity": 80,
                "duration": 0.05000000000000071,
                "tempo": 120.0
            },
            {
                "start_time": 31.918181818181818,
                "end_time": 31.970454545454544,
                "pitch": 58,
                "velocity": 80,
                "duration": 0.052272727272725916,
                "tempo": 120.0
            },
            {
                "start_time": 31.868181818181817,
                "end_time": 31.970454545454544,
                "pitch": 65,
                "velocity": 80,
                "duration": 0.10227272727272663,
                "tempo": 120.0
            },
            {
                "start_time": 31.818181818181817,
                "end_time": 32.02045454545454,
                "pitch": 27,
                "velocity": 80,
                "duration": 0.2022727272727245,
                "tempo": 120.0
            },
            {
                "start_time": 31.970454545454544,
                "end_time": 32.02045454545454,
                "pitch": 51,
                "velocity": 80,
                "duration": 0.04999999999999716,
                "tempo": 120.0
            },
            {
                "start_time": 32.02045454545454,
                "end_time": 32.070454545454545,
                "pitch": 58,
                "velocity": 80,
                "duration": 0.05000000000000426,
                "tempo": 120.0
            },
            {
                "start_time": 31.970454545454544,
                "end_time": 32.070454545454545,
                "pitch": 65,
                "velocity": 80,
                "duration": 0.10000000000000142,
                "tempo": 120.0
            },
            {
                "start_time": 31.918181818181818,
                "end_time": 32.12045454545454,
                "pitch": 39,
                "velocity": 80,
                "duration": 0.2022727272727245,
                "tempo": 120.0
            },
            {
                "start_time": 32.070454545454545,
                "end_time": 32.12045454545454,
                "pitch": 63,
                "velocity": 80,
                "duration": 0.04999999999999716,
                "tempo": 120.0
            },
            {
                "start_time": 32.12045454545454,
                "end_time": 32.17272727272727,
                "pitch": 58,
                "velocity": 80,
                "duration": 0.05227272727272947,
                "tempo": 120.0
            }
        ]
    }
}