{
    "track_id": "06 Crisis Area",
    "mood": "angry",
    "instruments": {
        "Electric Piano 1": [
            {
                "start_time": 0.7022727272727273,
                "end_time": 1.3909090909090909,
                "pitch": 33,
                "velocity": 51,
                "duration": 0.6886363636363636,
                "tempo": 120.0
            },
            {
                "start_time": 1.3909090909090909,
                "end_time": 1.9022727272727271,
                "pitch": 38,
                "velocity": 51,
                "duration": 0.5113636363636362,
                "tempo": 120.0
            },
            {
                "start_time": 1.9022727272727271,
                "end_time": 6.131818181818182,
                "pitch": 33,
                "velocity": 51,
                "duration": 4.2295454545454545,
                "tempo": 120.0
            },
            {
                "start_time": 6.131818181818182,
                "end_time": 6.822727272727272,
                "pitch": 33,
                "velocity": 64,
                "duration": 0.6909090909090905,
                "tempo": 120.0
            },
            {
                "start_time": 6.822727272727272,
                "end_time": 7.329545454545454,
                "pitch": 39,
                "velocity": 64,
                "duration": 0.5068181818181818,
                "tempo": 120.0
            },
            {
                "start_time": 7.329545454545454,
                "end_time": 11.552272727272726,
                "pitch": 33,
                "velocity": 64,
                "duration": 4.222727272727272,
                "tempo": 120.0
            },
            {
                "start_time": 11.554545454545455,
                "end_time": 12.23181818181818,
                "pitch": 33,
                "velocity": 64,
                "duration": 0.6772727272727259,
                "tempo": 120.0
            },
            {
                "start_time": 12.23409090909091,
                "end_time": 12.745454545454544,
                "pitch": 38,
                "velocity": 64,
                "duration": 0.5113636363636349,
                "tempo": 120.0
            },
            {
                "start_time": 12.745454545454544,
                "end_time": 16.972727272727273,
                "pitch": 33,
                "velocity": 64,
                "duration": 4.227272727272728,
                "tempo": 120.0
            },
            {
                "start_time": 16.974999999999998,
                "end_time": 17.654545454545453,
                "pitch": 33,
                "velocity": 64,
                "duration": 0.6795454545454547,
                "tempo": 120.0
            },
            {
                "start_time": 17.654545454545453,
                "end_time": 18.16590909090909,
                "pitch": 39,
                "velocity": 64,
                "duration": 0.5113636363636367,
                "tempo": 120.0
            },
            {
                "start_time": 18.16590909090909,
                "end_time": 22.395454545454545,
                "pitch": 33,
                "velocity": 64,
                "duration": 4.229545454545455,
                "tempo": 120.0
            },
            {
                "start_time": 22.395454545454545,
                "end_time": 23.075,
                "pitch": 33,
                "velocity": 64,
                "duration": 0.6795454545454547,
                "tempo": 120.0
            },
            {
                "start_time": 23.077272727272724,
                "end_time": 23.58863636363636,
                "pitch": 38,
                "velocity": 64,
                "duration": 0.5113636363636367,
                "tempo": 120.0
            },
            {
                "start_time": 23.58863636363636,
                "end_time": 27.818181818181817,
                "pitch": 33,
                "velocity": 64,
                "duration": 4.229545454545455,
                "tempo": 120.0
            },
            {
                "start_time": 27.818181818181817,
                "end_time": 28.49772727272727,
                "pitch": 33,
                "velocity": 64,
                "duration": 0.6795454545454547,
                "tempo": 120.0
            },
            {
                "start_time": 28.49772727272727,
                "end_time": 29.009090909090908,
                "pitch": 39,
                "velocity": 64,
                "duration": 0.5113636363636367,
                "tempo": 120.0
            },
            {
                "start_time": 29.011363636363637,
                "end_time": 33.24090909090909,
                "pitch": 33,
                "velocity": 64,
                "duration": 4.229545454545455,
                "tempo": 120.0
            },
            {
                "start_time": 33.24090909090909,
                "end_time": 33.929545454545455,
                "pitch": 33,
                "velocity": 64,
                "duration": 0.6886363636363626,
                "tempo": 120.0
            },
            {
                "start_time": 33.929545454545455,
                "end_time": 34.43636363636364,
                "pitch": 38,
                "velocity": 64,
                "duration": 0.5068181818181827,
                "tempo": 120.0
            },
            {
                "start_time": 34.43636363636364,
                "end_time": 38.67045454545455,
                "pitch": 33,
                "velocity": 64,
                "duration": 4.234090909090909,
                "tempo": 120.0
            },
            {
                "start_time": 38.67045454545455,
                "end_time": 39.340909090909086,
                "pitch": 33,
                "velocity": 64,
                "duration": 0.6704545454545396,
                "tempo": 120.0
            },
            {
                "start_time": 39.340909090909086,
                "end_time": 39.85681818181818,
                "pitch": 39,
                "velocity": 64,
                "duration": 0.5159090909090907,
                "tempo": 120.0
            },
            {
                "start_time": 39.85681818181818,
                "end_time": 44.09318181818182,
                "pitch": 33,
                "velocity": 64,
                "duration": 4.236363636363642,
                "tempo": 120.0
            },
            {
                "start_time": 44.09318181818182,
                "end_time": 44.76363636363636,
                "pitch": 33,
                "velocity": 64,
                "duration": 0.6704545454545396,
                "tempo": 120.0
            },
            {
                "start_time": 44.76363636363636,
                "end_time": 45.268181818181816,
                "pitch": 38,
                "velocity": 64,
                "duration": 0.5045454545454575,
                "tempo": 120.0
            },
            {
                "start_time": 45.27045454545454,
                "end_time": 49.502272727272725,
                "pitch": 33,
                "velocity": 64,
                "duration": 4.231818181818184,
                "tempo": 120.0
            },
            {
                "start_time": 49.502272727272725,
                "end_time": 50.18181818181818,
                "pitch": 33,
                "velocity": 64,
                "duration": 0.6795454545454547,
                "tempo": 120.0
            },
            {
                "start_time": 50.18181818181818,
                "end_time": 50.69318181818181,
                "pitch": 39,
                "velocity": 64,
                "duration": 0.5113636363636331,
                "tempo": 120.0
            },
            {
                "start_time": 50.695454545454545,
                "end_time": 54.92272727272727,
                "pitch": 33,
                "velocity": 64,
                "duration": 4.227272727272727,
                "tempo": 120.0
            },
            {
                "start_time": 54.92272727272727,
                "end_time": 60.35454545454545,
                "pitch": 26,
                "velocity": 80,
                "duration": 5.43181818181818,
                "tempo": 120.0
            },
            {
                "start_time": 60.35454545454545,
                "end_time": 65.77499999999999,
                "pitch": 26,
                "velocity": 80,
                "duration": 5.42045454545454,
                "tempo": 120.0
            },
            {
                "start_time": 65.77499999999999,
                "end_time": 71.19772727272726,
                "pitch": 34,
                "velocity": 80,
                "duration": 5.422727272727272,
                "tempo": 120.0
            },
            {
                "start_time": 71.19772727272726,
                "end_time": 73.9090909090909,
                "pitch": 31,
                "velocity": 80,
                "duration": 2.711363636363643,
                "tempo": 120.0
            },
            {
                "start_time": 73.9090909090909,
                "end_time": 76.62045454545454,
                "pitch": 33,
                "velocity": 80,
                "duration": 2.711363636363629,
                "tempo": 120.0
            },
            {
                "start_time": 76.62045454545454,
                "end_time": 82.04090909090908,
                "pitch": 26,
                "velocity": 80,
                "duration": 5.420454545454547,
                "tempo": 120.0
            },
            {
                "start_time": 82.04090909090908,
                "end_time": 87.46136363636363,
                "pitch": 26,
                "velocity": 80,
                "duration": 5.420454545454547,
                "tempo": 120.0
            },
            {
                "start_time": 87.46136363636363,
                "end_time": 92.8840909090909,
                "pitch": 34,
                "velocity": 80,
                "duration": 5.422727272727272,
                "tempo": 120.0
            },
            {
                "start_time": 92.8840909090909,
                "end_time": 95.59545454545454,
                "pitch": 31,
                "velocity": 80,
                "duration": 2.711363636363643,
                "tempo": 120.0
            },
            {
                "start_time": 95.59545454545454,
                "end_time": 98.30681818181817,
                "pitch": 33,
                "velocity": 80,
                "duration": 2.711363636363629,
                "tempo": 120.0
            },
            {
                "start_time": 98.30681818181817,
                "end_time": 103.72727272727272,
                "pitch": 26,
                "velocity": 80,
                "duration": 5.420454545454547,
                "tempo": 120.0
            },
            {
                "start_time": 103.72727272727272,
                "end_time": 109.14999999999999,
                "pitch": 26,
                "velocity": 80,
                "duration": 5.422727272727272,
                "tempo": 120.0
            },
            {
                "start_time": 109.15227272727272,
                "end_time": 109.82954545454545,
                "pitch": 33,
                "velocity": 51,
                "duration": 0.6772727272727366,
                "tempo": 120.0
            },
            {
                "start_time": 109.82954545454545,
                "end_time": 110.34318181818182,
                "pitch": 38,
                "velocity": 51,
                "duration": 0.5136363636363654,
                "tempo": 120.0
            },
            {
                "start_time": 110.34318181818182,
                "end_time": 114.57272727272726,
                "pitch": 33,
                "velocity": 51,
                "duration": 4.229545454545445,
                "tempo": 120.0
            },
            {
                "start_time": 114.57272727272726,
                "end_time": 115.25227272727273,
                "pitch": 33,
                "velocity": 64,
                "duration": 0.6795454545454618,
                "tempo": 120.0
            },
            {
                "start_time": 115.25227272727273,
                "end_time": 115.76363636363635,
                "pitch": 39,
                "velocity": 64,
                "duration": 0.511363636363626,
                "tempo": 120.0
            },
            {
                "start_time": 115.76590909090909,
                "end_time": 119.99318181818181,
                "pitch": 33,
                "velocity": 64,
                "duration": 4.2272727272727195,
                "tempo": 120.0
            },
            {
                "start_time": 119.99318181818181,
                "end_time": 120.66363636363636,
                "pitch": 33,
                "velocity": 64,
                "duration": 0.6704545454545467,
                "tempo": 120.0
            },
            {
                "start_time": 120.66363636363636,
                "end_time": 121.175,
                "pitch": 38,
                "velocity": 64,
                "duration": 0.5113636363636402,
                "tempo": 120.0
            },
            {
                "start_time": 121.175,
                "end_time": 125.41363636363636,
                "pitch": 33,
                "velocity": 64,
                "duration": 4.23863636363636,
                "tempo": 120.0
            },
            {
                "start_time": 125.41363636363636,
                "end_time": 126.0840909090909,
                "pitch": 33,
                "velocity": 64,
                "duration": 0.6704545454545467,
                "tempo": 120.0
            },
            {
                "start_time": 126.0840909090909,
                "end_time": 126.6,
                "pitch": 39,
                "velocity": 64,
                "duration": 0.5159090909090907,
                "tempo": 120.0
            },
            {
                "start_time": 126.6,
                "end_time": 130.8340909090909,
                "pitch": 33,
                "velocity": 64,
                "duration": 4.234090909090895,
                "tempo": 120.0
            },
            {
                "start_time": 130.8340909090909,
                "end_time": 131.51363636363635,
                "pitch": 33,
                "velocity": 64,
                "duration": 0.6795454545454618,
                "tempo": 120.0
            },
            {
                "start_time": 131.51363636363635,
                "end_time": 132.025,
                "pitch": 38,
                "velocity": 64,
                "duration": 0.5113636363636545,
                "tempo": 120.0
            },
            {
                "start_time": 132.02727272727273,
                "end_time": 136.25681818181818,
                "pitch": 33,
                "velocity": 64,
                "duration": 4.229545454545445,
                "tempo": 120.0
            },
            {
                "start_time": 136.25681818181818,
                "end_time": 136.93636363636364,
                "pitch": 33,
                "velocity": 64,
                "duration": 0.6795454545454618,
                "tempo": 120.0
            },
            {
                "start_time": 136.93636363636364,
                "end_time": 137.4431818181818,
                "pitch": 39,
                "velocity": 64,
                "duration": 0.5068181818181756,
                "tempo": 120.0
            },
            {
                "start_time": 137.4431818181818,
                "end_time": 141.6772727272727,
                "pitch": 33,
                "velocity": 64,
                "duration": 4.234090909090895,
                "tempo": 120.0
            },
            {
                "start_time": 141.6772727272727,
                "end_time": 142.35681818181817,
                "pitch": 33,
                "velocity": 64,
                "duration": 0.6795454545454618,
                "tempo": 120.0
            },
            {
                "start_time": 142.35681818181817,
                "end_time": 142.86818181818182,
                "pitch": 38,
                "velocity": 64,
                "duration": 0.5113636363636545,
                "tempo": 120.0
            },
            {
                "start_time": 142.86818181818182,
                "end_time": 147.09772727272727,
                "pitch": 33,
                "velocity": 64,
                "duration": 4.229545454545445,
                "tempo": 120.0
            },
            {
                "start_time": 147.09772727272727,
                "end_time": 147.77727272727273,
                "pitch": 33,
                "velocity": 64,
                "duration": 0.6795454545454618,
                "tempo": 120.0
            },
            {
                "start_time": 147.77727272727273,
                "end_time": 148.28863636363636,
                "pitch": 39,
                "velocity": 64,
                "duration": 0.511363636363626,
                "tempo": 120.0
            },
            {
                "start_time": 148.29090909090908,
                "end_time": 152.52045454545453,
                "pitch": 33,
                "velocity": 64,
                "duration": 4.229545454545445,
                "tempo": 120.0
            },
            {
                "start_time": 152.52045454545453,
                "end_time": 153.1909090909091,
                "pitch": 33,
                "velocity": 64,
                "duration": 0.670454545454561,
                "tempo": 120.0
            },
            {
                "start_time": 153.1909090909091,
                "end_time": 153.7022727272727,
                "pitch": 38,
                "velocity": 64,
                "duration": 0.511363636363626,
                "tempo": 120.0
            },
            {
                "start_time": 153.7022727272727,
                "end_time": 157.93863636363636,
                "pitch": 33,
                "velocity": 64,
                "duration": 4.236363636363649,
                "tempo": 120.0
            },
            {
                "start_time": 157.93863636363636,
                "end_time": 158.61818181818182,
                "pitch": 33,
                "velocity": 64,
                "duration": 0.6795454545454618,
                "tempo": 120.0
            },
            {
                "start_time": 158.61818181818182,
                "end_time": 159.13181818181818,
                "pitch": 39,
                "velocity": 64,
                "duration": 0.5136363636363512,
                "tempo": 120.0
            },
            {
                "start_time": 159.13181818181818,
                "end_time": 163.36136363636362,
                "pitch": 33,
                "velocity": 64,
                "duration": 4.229545454545445,
                "tempo": 120.0
            },
            {
                "start_time": 163.36136363636362,
                "end_time": 163.36363636363635,
                "pitch": 26,
                "velocity": 80,
                "duration": 0.0022727272727252057,
                "tempo": 120.0
            }
        ],
        "Trumpet": [
            {
                "start_time": 54.925,
                "end_time": 65.77727272727273,
                "pitch": 26,
                "velocity": 51,
                "duration": 10.852272727272734,
                "tempo": 120.0
            },
            {
                "start_time": 65.77954545454546,
                "end_time": 71.2,
                "pitch": 21,
                "velocity": 51,
                "duration": 5.420454545454547,
                "tempo": 120.0
            },
            {
                "start_time": 71.2,
                "end_time": 71.22954545454544,
                "pitch": 19,
                "velocity": 51,
                "duration": 0.029545454545441885,
                "tempo": 120.0
            },
            {
                "start_time": 71.22954545454544,
                "end_time": 71.28181818181818,
                "pitch": 19,
                "velocity": 51,
                "duration": 0.052272727272736574,
                "tempo": 120.0
            },
            {
                "start_time": 71.22954545454544,
                "end_time": 71.39772727272727,
                "pitch": 0,
                "velocity": 51,
                "duration": 0.16818181818182154,
                "tempo": 120.0
            },
            {
                "start_time": 71.28181818181818,
                "end_time": 71.39772727272727,
                "pitch": 19,
                "velocity": 51,
                "duration": 0.11590909090908497,
                "tempo": 120.0
            },
            {
                "start_time": 71.39772727272727,
                "end_time": 71.44772727272726,
                "pitch": 19,
                "velocity": 51,
                "duration": 0.04999999999999716,
                "tempo": 120.0
            },
            {
                "start_time": 71.28181818181818,
                "end_time": 71.44772727272726,
                "pitch": 31,
                "velocity": 51,
                "duration": 0.16590909090908212,
                "tempo": 120.0
            },
            {
                "start_time": 71.39772727272727,
                "end_time": 71.56590909090909,
                "pitch": 0,
                "velocity": 51,
                "duration": 0.16818181818182154,
                "tempo": 120.0
            },
            {
                "start_time": 71.44772727272726,
                "end_time": 71.56590909090909,
                "pitch": 19,
                "velocity": 51,
                "duration": 0.11818181818182438,
                "tempo": 120.0
            },
            {
                "start_time": 71.56590909090909,
                "end_time": 71.61590909090908,
                "pitch": 19,
                "velocity": 51,
                "duration": 0.04999999999999716,
                "tempo": 120.0
            },
            {
                "start_time": 71.44772727272726,
                "end_time": 71.61590909090908,
                "pitch": 31,
                "velocity": 51,
                "duration": 0.16818181818182154,
                "tempo": 120.0
            },
            {
                "start_time": 71.56590909090909,
                "end_time": 71.73409090909091,
                "pitch": 0,
                "velocity": 51,
                "duration": 0.16818181818182154,
                "tempo": 120.0
            },
            {
                "start_time": 71.61590909090908,
                "end_time": 71.73409090909091,
                "pitch": 19,
                "velocity": 51,
                "duration": 0.11818181818182438,
                "tempo": 120.0
            },
            {
                "start_time": 71.73409090909091,
                "end_time": 71.7840909090909,
                "pitch": 19,
                "velocity": 51,
                "duration": 0.04999999999999716,
                "tempo": 120.0
            },
            {
                "start_time": 71.61590909090908,
                "end_time": 71.7840909090909,
                "pitch": 31,
                "velocity": 51,
                "duration": 0.16818181818182154,
                "tempo": 120.0
            },
            {
                "start_time": 71.73409090909091,
                "end_time": 71.90227272727272,
                "pitch": 0,
                "velocity": 51,
                "duration": 0.16818181818180733,
                "tempo": 120.0
            },
            {
                "start_time": 71.7840909090909,
                "end_time": 71.90227272727272,
                "pitch": 19,
                "velocity": 51,
                "duration": 0.11818181818181017,
                "tempo": 120.0
            },
            {
                "start_time": 71.90227272727272,
                "end_time": 71.95454545454545,
                "pitch": 19,
                "velocity": 51,
                "duration": 0.052272727272736574,
                "tempo": 120.0
            },
            {
                "start_time": 71.7840909090909,
                "end_time": 71.95454545454545,
                "pitch": 31,
                "velocity": 51,
                "duration": 0.17045454545454675,
                "tempo": 120.0
            },
            {
                "start_time": 71.90227272727272,
                "end_time": 72.075,
                "pitch": 0,
                "velocity": 51,
                "duration": 0.17272727272728616,
                "tempo": 120.0
            },
            {
                "start_time": 71.95454545454545,
                "end_time": 72.075,
                "pitch": 19,
                "velocity": 51,
                "duration": 0.12045454545454959,
                "tempo": 120.0
            },
            {
                "start_time": 72.075,
                "end_time": 72.125,
                "pitch": 19,
                "velocity": 51,
                "duration": 0.04999999999999716,
                "tempo": 120.0
            },
            {
                "start_time": 71.95454545454545,
                "end_time": 72.12727272727273,
                "pitch": 31,
                "velocity": 51,
                "duration": 0.17272727272727195,
                "tempo": 120.0
            },
            {
                "start_time": 72.125,
                "end_time": 72.12727272727273,
                "pitch": 31,
                "velocity": 51,
                "duration": 0.0022727272727252057,
                "tempo": 120.0
            },
            {
                "start_time": 72.075,
                "end_time": 72.24545454545454,
                "pitch": 0,
                "velocity": 51,
                "duration": 0.17045454545453254,
                "tempo": 120.0
            },
            {
                "start_time": 72.12727272727273,
                "end_time": 72.24545454545454,
                "pitch": 19,
                "velocity": 51,
                "duration": 0.11818181818181017,
                "tempo": 120.0
            },
            {
                "start_time": 72.24545454545454,
                "end_time": 72.29545454545455,
                "pitch": 19,
                "velocity": 51,
                "duration": 0.05000000000001137,
                "tempo": 120.0
            },
            {
                "start_time": 72.24545454545454,
                "end_time": 72.41363636363636,
                "pitch": 0,
                "velocity": 51,
                "duration": 0.16818181818182154,
                "tempo": 120.0
            },
            {
                "start_time": 72.29545454545455,
                "end_time": 72.41363636363636,
                "pitch": 19,
                "velocity": 51,
                "duration": 0.11818181818181017,
                "tempo": 120.0
            },
            {
                "start_time": 72.41363636363636,
                "end_time": 72.46363636363635,
                "pitch": 19,
                "velocity": 51,
                "duration": 0.04999999999999716,
                "tempo": 120.0
            },
            {
                "start_time": 72.29545454545455,
                "end_time": 72.46363636363635,
                "pitch": 31,
                "velocity": 51,
                "duration": 0.16818181818180733,
                "tempo": 120.0
            },
            {
                "start_time": 72.41363636363636,
                "end_time": 72.58181818181818,
                "pitch": 0,
                "velocity": 51,
                "duration": 0.16818181818182154,
                "tempo": 120.0
            },
            {
                "start_time": 72.46363636363635,
                "end_time": 72.58181818181818,
                "pitch": 19,
                "velocity": 51,
                "duration": 0.11818181818182438,
                "tempo": 120.0
            },
            {
                "start_time": 72.58181818181818,
                "end_time": 72.6340909090909,
                "pitch": 19,
                "velocity": 51,
                "duration": 0.052272727272722364,
                "tempo": 120.0
            },
            {
                "start_time": 72.46363636363635,
                "end_time": 72.6340909090909,
                "pitch": 31,
                "velocity": 51,
                "duration": 0.17045454545454675,
                "tempo": 120.0
            },
            {
                "start_time": 72.58181818181818,
                "end_time": 72.75454545454545,
                "pitch": 0,
                "velocity": 51,
                "duration": 0.17272727272727195,
                "tempo": 120.0
            },
            {
                "start_time": 72.6340909090909,
                "end_time": 72.75454545454545,
                "pitch": 19,
                "velocity": 51,
                "duration": 0.12045454545454959,
                "tempo": 120.0
            },
            {
                "start_time": 72.75454545454545,
                "end_time": 72.80681818181817,
                "pitch": 19,
                "velocity": 51,
                "duration": 0.052272727272722364,
                "tempo": 120.0
            },
            {
                "start_time": 72.6340909090909,
                "end_time": 72.80681818181817,
                "pitch": 31,
                "velocity": 51,
                "duration": 0.17272727272727195,
                "tempo": 120.0
            },
            {
                "start_time": 72.75454545454545,
                "end_time": 72.925,
                "pitch": 0,
                "velocity": 51,
                "duration": 0.17045454545454675,
                "tempo": 120.0
            },
            {
                "start_time": 72.80681818181817,
                "end_time": 72.925,
                "pitch": 19,
                "velocity": 51,
                "duration": 0.11818181818182438,
                "tempo": 120.0
            },
            {
                "start_time": 72.925,
                "end_time": 72.97727272727272,
                "pitch": 19,
                "velocity": 51,
                "duration": 0.052272727272722364,
                "tempo": 120.0
            },
            {
                "start_time": 72.80681818181817,
                "end_time": 72.97727272727272,
                "pitch": 31,
                "velocity": 51,
                "duration": 0.17045454545454675,
                "tempo": 120.0
            },
            {
                "start_time": 72.925,
                "end_time": 73.09318181818182,
                "pitch": 0,
                "velocity": 51,
                "duration": 0.16818181818182154,
                "tempo": 120.0
            },
            {
                "start_time": 72.97727272727272,
                "end_time": 73.09318181818182,
                "pitch": 19,
                "velocity": 51,
                "duration": 0.11590909090909918,
                "tempo": 120.0
            },
            {
                "start_time": 73.09318181818182,
                "end_time": 73.14318181818182,
                "pitch": 19,
                "velocity": 51,
                "duration": 0.04999999999999716,
                "tempo": 120.0
            },
            {
                "start_time": 72.97727272727272,
                "end_time": 73.14318181818182,
                "pitch": 31,
                "velocity": 51,
                "duration": 0.16590909090909634,
                "tempo": 120.0
            },
            {
                "start_time": 73.14318181818182,
                "end_time": 73.22727272727272,
                "pitch": 19,
                "velocity": 51,
                "duration": 0.08409090909090366,
                "tempo": 120.0
            },
            {
                "start_time": 73.91136363636363,
                "end_time": 75.93863636363636,
                "pitch": 21,
                "velocity": 51,
                "duration": 2.027272727272731,
                "tempo": 120.0
            },
            {
                "start_time": 76.62272727272727,
                "end_time": 82.04318181818181,
                "pitch": 26,
                "velocity": 51,
                "duration": 5.4204545454545325,
                "tempo": 120.0
            },
            {
                "start_time": 82.04318181818181,
                "end_time": 87.46363636363635,
                "pitch": 26,
                "velocity": 51,
                "duration": 5.420454545454547,
                "tempo": 120.0
            },
            {
                "start_time": 87.46363636363635,
                "end_time": 92.88636363636363,
                "pitch": 21,
                "velocity": 51,
                "duration": 5.422727272727272,
                "tempo": 120.0
            },
            {
                "start_time": 73.09318181818182,
                "end_time": 92.91590909090908,
                "pitch": 0,
                "velocity": 51,
                "duration": 19.822727272727263,
                "tempo": 120.0
            },
            {
                "start_time": 92.88636363636363,
                "end_time": 92.91590909090908,
                "pitch": 19,
                "velocity": 51,
                "duration": 0.029545454545456096,
                "tempo": 120.0
            },
            {
                "start_time": 92.91590909090908,
                "end_time": 92.96818181818182,
                "pitch": 19,
                "velocity": 51,
                "duration": 0.052272727272736574,
                "tempo": 120.0
            },
            {
                "start_time": 73.14318181818182,
                "end_time": 92.96818181818182,
                "pitch": 31,
                "velocity": 51,
                "duration": 19.825000000000003,
                "tempo": 120.0
            },
            {
                "start_time": 92.91590909090908,
                "end_time": 93.0840909090909,
                "pitch": 0,
                "velocity": 51,
                "duration": 0.16818181818182154,
                "tempo": 120.0
            },
            {
                "start_time": 92.96818181818182,
                "end_time": 93.0840909090909,
                "pitch": 19,
                "velocity": 51,
                "duration": 0.11590909090908497,
                "tempo": 120.0
            },
            {
                "start_time": 93.0840909090909,
                "end_time": 93.1340909090909,
                "pitch": 19,
                "velocity": 51,
                "duration": 0.04999999999999716,
                "tempo": 120.0
            },
            {
                "start_time": 92.96818181818182,
                "end_time": 93.1340909090909,
                "pitch": 31,
                "velocity": 51,
                "duration": 0.16590909090908212,
                "tempo": 120.0
            },
            {
                "start_time": 93.0840909090909,
                "end_time": 93.25227272727273,
                "pitch": 0,
                "velocity": 51,
                "duration": 0.16818181818182154,
                "tempo": 120.0
            },
            {
                "start_time": 93.1340909090909,
                "end_time": 93.25227272727273,
                "pitch": 19,
                "velocity": 51,
                "duration": 0.11818181818182438,
                "tempo": 120.0
            },
            {
                "start_time": 93.25227272727273,
                "end_time": 93.30454545454545,
                "pitch": 19,
                "velocity": 51,
                "duration": 0.052272727272722364,
                "tempo": 120.0
            },
            {
                "start_time": 93.1340909090909,
                "end_time": 93.30454545454545,
                "pitch": 31,
                "velocity": 51,
                "duration": 0.17045454545454675,
                "tempo": 120.0
            },
            {
                "start_time": 93.25227272727273,
                "end_time": 93.425,
                "pitch": 0,
                "velocity": 51,
                "duration": 0.17272727272727195,
                "tempo": 120.0
            },
            {
                "start_time": 93.30454545454545,
                "end_time": 93.425,
                "pitch": 19,
                "velocity": 51,
                "duration": 0.12045454545454959,
                "tempo": 120.0
            },
            {
                "start_time": 93.425,
                "end_time": 93.47727272727272,
                "pitch": 19,
                "velocity": 51,
                "duration": 0.052272727272722364,
                "tempo": 120.0
            },
            {
                "start_time": 93.30454545454545,
                "end_time": 93.47727272727272,
                "pitch": 31,
                "velocity": 51,
                "duration": 0.17272727272727195,
                "tempo": 120.0
            },
            {
                "start_time": 93.425,
                "end_time": 93.59772727272727,
                "pitch": 0,
                "velocity": 51,
                "duration": 0.17272727272727195,
                "tempo": 120.0
            },
            {
                "start_time": 93.47727272727272,
                "end_time": 93.59772727272727,
                "pitch": 19,
                "velocity": 51,
                "duration": 0.12045454545454959,
                "tempo": 120.0
            },
            {
                "start_time": 93.59772727272727,
                "end_time": 93.64772727272727,
                "pitch": 19,
                "velocity": 51,
                "duration": 0.04999999999999716,
                "tempo": 120.0
            },
            {
                "start_time": 93.47727272727272,
                "end_time": 93.64772727272727,
                "pitch": 31,
                "velocity": 51,
                "duration": 0.17045454545454675,
                "tempo": 120.0
            },
            {
                "start_time": 93.59772727272727,
                "end_time": 93.76363636363637,
                "pitch": 0,
                "velocity": 51,
                "duration": 0.16590909090909634,
                "tempo": 120.0
            },
            {
                "start_time": 93.64772727272727,
                "end_time": 93.76363636363637,
                "pitch": 19,
                "velocity": 51,
                "duration": 0.11590909090909918,
                "tempo": 120.0
            },
            {
                "start_time": 93.76363636363637,
                "end_time": 93.81590909090909,
                "pitch": 19,
                "velocity": 51,
                "duration": 0.052272727272722364,
                "tempo": 120.0
            },
            {
                "start_time": 93.64772727272727,
                "end_time": 93.81590909090909,
                "pitch": 31,
                "velocity": 51,
                "duration": 0.16818181818182154,
                "tempo": 120.0
            },
            {
                "start_time": 93.76363636363637,
                "end_time": 93.93181818181817,
                "pitch": 0,
                "velocity": 51,
                "duration": 0.16818181818180733,
                "tempo": 120.0
            },
            {
                "start_time": 93.81590909090909,
                "end_time": 93.93181818181817,
                "pitch": 19,
                "velocity": 51,
                "duration": 0.11590909090908497,
                "tempo": 120.0
            },
            {
                "start_time": 93.93181818181817,
                "end_time": 93.98181818181818,
                "pitch": 19,
                "velocity": 51,
                "duration": 0.05000000000001137,
                "tempo": 120.0
            },
            {
                "start_time": 93.81590909090909,
                "end_time": 93.98181818181818,
                "pitch": 31,
                "velocity": 51,
                "duration": 0.16590909090909634,
                "tempo": 120.0
            },
            {
                "start_time": 93.93181818181817,
                "end_time": 94.1,
                "pitch": 0,
                "velocity": 51,
                "duration": 0.16818181818182154,
                "tempo": 120.0
            },
            {
                "start_time": 93.98181818181818,
                "end_time": 94.1,
                "pitch": 19,
                "velocity": 51,
                "duration": 0.11818181818181017,
                "tempo": 120.0
            },
            {
                "start_time": 94.1,
                "end_time": 94.14999999999999,
                "pitch": 19,
                "velocity": 51,
                "duration": 0.04999999999999716,
                "tempo": 120.0
            },
            {
                "start_time": 93.98181818181818,
                "end_time": 94.14999999999999,
                "pitch": 31,
                "velocity": 51,
                "duration": 0.16818181818180733,
                "tempo": 120.0
            },
            {
                "start_time": 94.1,
                "end_time": 94.26818181818182,
                "pitch": 0,
                "velocity": 51,
                "duration": 0.16818181818182154,
                "tempo": 120.0
            },
            {
                "start_time": 94.14999999999999,
                "end_time": 94.26818181818182,
                "pitch": 19,
                "velocity": 51,
                "duration": 0.11818181818182438,
                "tempo": 120.0
            },
            {
                "start_time": 94.26818181818182,
                "end_time": 94.32045454545454,
                "pitch": 19,
                "velocity": 51,
                "duration": 0.052272727272722364,
                "tempo": 120.0
            },
            {
                "start_time": 94.14999999999999,
                "end_time": 94.32045454545454,
                "pitch": 31,
                "velocity": 51,
                "duration": 0.17045454545454675,
                "tempo": 120.0
            },
            {
                "start_time": 94.26818181818182,
                "end_time": 94.44090909090909,
                "pitch": 0,
                "velocity": 51,
                "duration": 0.17272727272727195,
                "tempo": 120.0
            },
            {
                "start_time": 94.32045454545454,
                "end_time": 94.44090909090909,
                "pitch": 19,
                "velocity": 51,
                "duration": 0.12045454545454959,
                "tempo": 120.0
            },
            {
                "start_time": 94.44090909090909,
                "end_time": 94.49318181818181,
                "pitch": 19,
                "velocity": 51,
                "duration": 0.052272727272722364,
                "tempo": 120.0
            },
            {
                "start_time": 94.32045454545454,
                "end_time": 94.49318181818181,
                "pitch": 31,
                "velocity": 51,
                "duration": 0.17272727272727195,
                "tempo": 120.0
            },
            {
                "start_time": 94.49318181818181,
                "end_time": 94.61136363636363,
                "pitch": 19,
                "velocity": 51,
                "duration": 0.11818181818182438,
                "tempo": 120.0
            },
            {
                "start_time": 94.44090909090909,
                "end_time": 94.61363636363636,
                "pitch": 0,
                "velocity": 51,
                "duration": 0.17272727272727195,
                "tempo": 120.0
            },
            {
                "start_time": 94.61136363636363,
                "end_time": 94.61363636363636,
                "pitch": 0,
                "velocity": 51,
                "duration": 0.0022727272727252057,
                "tempo": 120.0
            },
            {
                "start_time": 94.61363636363636,
                "end_time": 94.66363636363636,
                "pitch": 19,
                "velocity": 51,
                "duration": 0.04999999999999716,
                "tempo": 120.0
            },
            {
                "start_time": 94.49318181818181,
                "end_time": 94.66363636363636,
                "pitch": 31,
                "velocity": 51,
                "duration": 0.17045454545454675,
                "tempo": 120.0
            },
            {
                "start_time": 94.66363636363636,
                "end_time": 94.77954545454546,
                "pitch": 19,
                "velocity": 51,
                "duration": 0.11590909090909918,
                "tempo": 120.0
            },
            {
                "start_time": 94.77954545454546,
                "end_time": 94.82954545454545,
                "pitch": 19,
                "velocity": 51,
                "duration": 0.04999999999999716,
                "tempo": 120.0
            },
            {
                "start_time": 94.66363636363636,
                "end_time": 94.82954545454545,
                "pitch": 31,
                "velocity": 51,
                "duration": 0.16590909090909634,
                "tempo": 120.0
            },
            {
                "start_time": 94.82954545454545,
                "end_time": 94.91363636363636,
                "pitch": 19,
                "velocity": 51,
                "duration": 0.08409090909090366,
                "tempo": 120.0
            },
            {
                "start_time": 95.59772727272727,
                "end_time": 97.625,
                "pitch": 21,
                "velocity": 51,
                "duration": 2.027272727272731,
                "tempo": 120.0
            },
            {
                "start_time": 98.3090909090909,
                "end_time": 103.72954545454544,
                "pitch": 26,
                "velocity": 51,
                "duration": 5.420454545454547,
                "tempo": 120.0
            },
            {
                "start_time": 103.72954545454544,
                "end_time": 109.15454545454546,
                "pitch": 26,
                "velocity": 51,
                "duration": 5.425000000000011,
                "tempo": 120.0
            }
        ],
        "Lead 2 (sawtooth)": [
            {
                "start_time": 33.24318181818182,
                "end_time": 33.445454545454545,
                "pitch": 48,
                "velocity": 32,
                "duration": 0.20227272727272805,
                "tempo": 120.0
            },
            {
                "start_time": 33.445454545454545,
                "end_time": 33.58409090909091,
                "pitch": 50,
                "velocity": 32,
                "duration": 0.13863636363636545,
                "tempo": 120.0
            },
            {
                "start_time": 33.586363636363636,
                "end_time": 33.84318181818182,
                "pitch": 50,
                "velocity": 32,
                "duration": 0.2568181818181827,
                "tempo": 120.0
            },
            {
                "start_time": 33.93181818181818,
                "end_time": 34.179545454545455,
                "pitch": 48,
                "velocity": 32,
                "duration": 0.2477272727272748,
                "tempo": 120.0
            },
            {
                "start_time": 34.26590909090909,
                "end_time": 34.470454545454544,
                "pitch": 48,
                "velocity": 32,
                "duration": 0.20454545454545325,
                "tempo": 120.0
            },
            {
                "start_time": 34.470454545454544,
                "end_time": 34.60909090909091,
                "pitch": 50,
                "velocity": 32,
                "duration": 0.13863636363636545,
                "tempo": 120.0
            },
            {
                "start_time": 34.60909090909091,
                "end_time": 34.73863636363636,
                "pitch": 50,
                "velocity": 32,
                "duration": 0.1295454545454504,
                "tempo": 120.0
            },
            {
                "start_time": 34.77272727272727,
                "end_time": 34.96818181818182,
                "pitch": 48,
                "velocity": 32,
                "duration": 0.19545454545454533,
                "tempo": 120.0
            },
            {
                "start_time": 34.96818181818182,
                "end_time": 35.10681818181818,
                "pitch": 50,
                "velocity": 32,
                "duration": 0.13863636363635834,
                "tempo": 120.0
            },
            {
                "start_time": 35.10681818181818,
                "end_time": 35.24318181818182,
                "pitch": 50,
                "velocity": 32,
                "duration": 0.13636363636364024,
                "tempo": 120.0
            },
            {
                "start_time": 35.279545454545456,
                "end_time": 35.47954545454545,
                "pitch": 48,
                "velocity": 32,
                "duration": 0.19999999999999574,
                "tempo": 120.0
            },
            {
                "start_time": 35.47954545454545,
                "end_time": 35.61363636363636,
                "pitch": 50,
                "velocity": 32,
                "duration": 0.13409090909090793,
                "tempo": 120.0
            },
            {
                "start_time": 35.61363636363636,
                "end_time": 35.87272727272727,
                "pitch": 50,
                "velocity": 32,
                "duration": 0.25909090909090793,
                "tempo": 120.0
            },
            {
                "start_time": 35.95909090909091,
                "end_time": 36.15909090909091,
                "pitch": 48,
                "velocity": 32,
                "duration": 0.19999999999999574,
                "tempo": 120.0
            },
            {
                "start_time": 36.15909090909091,
                "end_time": 36.29545454545455,
                "pitch": 50,
                "velocity": 32,
                "duration": 0.13636363636364024,
                "tempo": 120.0
            },
            {
                "start_time": 36.29545454545455,
                "end_time": 36.54545454545455,
                "pitch": 50,
                "velocity": 32,
                "duration": 0.25,
                "tempo": 120.0
            },
            {
                "start_time": 36.62954545454545,
                "end_time": 36.88636363636363,
                "pitch": 48,
                "velocity": 32,
                "duration": 0.2568181818181827,
                "tempo": 120.0
            },
            {
                "start_time": 36.975,
                "end_time": 37.179545454545455,
                "pitch": 48,
                "velocity": 32,
                "duration": 0.20454545454545325,
                "tempo": 120.0
            },
            {
                "start_time": 37.179545454545455,
                "end_time": 37.320454545454545,
                "pitch": 50,
                "velocity": 32,
                "duration": 0.14090909090909065,
                "tempo": 120.0
            },
            {
                "start_time": 37.320454545454545,
                "end_time": 37.45227272727273,
                "pitch": 50,
                "velocity": 32,
                "duration": 0.13181818181818272,
                "tempo": 120.0
            },
            {
                "start_time": 37.486363636363635,
                "end_time": 37.68636363636364,
                "pitch": 48,
                "velocity": 32,
                "duration": 0.20000000000000284,
                "tempo": 120.0
            },
            {
                "start_time": 37.68636363636364,
                "end_time": 37.82272727272727,
                "pitch": 50,
                "velocity": 32,
                "duration": 0.13636363636363313,
                "tempo": 120.0
            },
            {
                "start_time": 37.82272727272727,
                "end_time": 37.95454545454545,
                "pitch": 50,
                "velocity": 32,
                "duration": 0.13181818181818272,
                "tempo": 120.0
            },
            {
                "start_time": 37.99090909090909,
                "end_time": 38.19090909090909,
                "pitch": 48,
                "velocity": 32,
                "duration": 0.19999999999999574,
                "tempo": 120.0
            },
            {
                "start_time": 38.19090909090909,
                "end_time": 38.324999999999996,
                "pitch": 50,
                "velocity": 32,
                "duration": 0.13409090909090793,
                "tempo": 120.0
            },
            {
                "start_time": 38.324999999999996,
                "end_time": 38.58181818181818,
                "pitch": 50,
                "velocity": 32,
                "duration": 0.2568181818181827,
                "tempo": 120.0
            },
            {
                "start_time": 141.67954545454546,
                "end_time": 141.88181818181818,
                "pitch": 48,
                "velocity": 32,
                "duration": 0.20227272727271384,
                "tempo": 120.0
            },
            {
                "start_time": 141.88181818181818,
                "end_time": 142.02272727272725,
                "pitch": 50,
                "velocity": 32,
                "duration": 0.14090909090907644,
                "tempo": 120.0
            },
            {
                "start_time": 142.02272727272725,
                "end_time": 142.27272727272725,
                "pitch": 50,
                "velocity": 32,
                "duration": 0.25,
                "tempo": 120.0
            },
            {
                "start_time": 142.3590909090909,
                "end_time": 142.61363636363635,
                "pitch": 48,
                "velocity": 32,
                "duration": 0.2545454545454504,
                "tempo": 120.0
            },
            {
                "start_time": 142.7022727272727,
                "end_time": 142.90227272727273,
                "pitch": 48,
                "velocity": 32,
                "duration": 0.20000000000001705,
                "tempo": 120.0
            },
            {
                "start_time": 142.90227272727273,
                "end_time": 143.03863636363636,
                "pitch": 50,
                "velocity": 32,
                "duration": 0.13636363636362603,
                "tempo": 120.0
            },
            {
                "start_time": 143.03863636363636,
                "end_time": 143.17045454545453,
                "pitch": 50,
                "velocity": 32,
                "duration": 0.13181818181817562,
                "tempo": 120.0
            },
            {
                "start_time": 143.20454545454544,
                "end_time": 143.40454545454546,
                "pitch": 48,
                "velocity": 32,
                "duration": 0.20000000000001705,
                "tempo": 120.0
            },
            {
                "start_time": 143.40454545454546,
                "end_time": 143.54090909090908,
                "pitch": 50,
                "velocity": 32,
                "duration": 0.13636363636362603,
                "tempo": 120.0
            },
            {
                "start_time": 143.54090909090908,
                "end_time": 143.67272727272726,
                "pitch": 50,
                "velocity": 32,
                "duration": 0.13181818181817562,
                "tempo": 120.0
            },
            {
                "start_time": 143.7090909090909,
                "end_time": 143.91363636363636,
                "pitch": 48,
                "velocity": 32,
                "duration": 0.20454545454546746,
                "tempo": 120.0
            },
            {
                "start_time": 143.91363636363636,
                "end_time": 144.0522727272727,
                "pitch": 50,
                "velocity": 32,
                "duration": 0.13863636363635123,
                "tempo": 120.0
            },
            {
                "start_time": 144.05454545454543,
                "end_time": 144.30454545454543,
                "pitch": 50,
                "velocity": 32,
                "duration": 0.25,
                "tempo": 120.0
            },
            {
                "start_time": 144.38863636363635,
                "end_time": 144.58863636363637,
                "pitch": 48,
                "velocity": 32,
                "duration": 0.20000000000001705,
                "tempo": 120.0
            },
            {
                "start_time": 144.58863636363637,
                "end_time": 144.72272727272727,
                "pitch": 50,
                "velocity": 32,
                "duration": 0.13409090909090082,
                "tempo": 120.0
            },
            {
                "start_time": 144.725,
                "end_time": 144.98181818181817,
                "pitch": 50,
                "velocity": 32,
                "duration": 0.2568181818181756,
                "tempo": 120.0
            },
            {
                "start_time": 145.0681818181818,
                "end_time": 145.3181818181818,
                "pitch": 48,
                "velocity": 32,
                "duration": 0.25,
                "tempo": 120.0
            },
            {
                "start_time": 145.40454545454546,
                "end_time": 145.6090909090909,
                "pitch": 48,
                "velocity": 32,
                "duration": 0.20454545454543904,
                "tempo": 120.0
            },
            {
                "start_time": 145.6090909090909,
                "end_time": 145.74772727272727,
                "pitch": 50,
                "velocity": 32,
                "duration": 0.13863636363637966,
                "tempo": 120.0
            },
            {
                "start_time": 145.75,
                "end_time": 145.88636363636363,
                "pitch": 50,
                "velocity": 32,
                "duration": 0.13636363636362603,
                "tempo": 120.0
            },
            {
                "start_time": 145.92045454545453,
                "end_time": 146.125,
                "pitch": 48,
                "velocity": 32,
                "duration": 0.20454545454546746,
                "tempo": 120.0
            },
            {
                "start_time": 146.125,
                "end_time": 146.25454545454545,
                "pitch": 50,
                "velocity": 32,
                "duration": 0.1295454545454504,
                "tempo": 120.0
            },
            {
                "start_time": 146.25681818181818,
                "end_time": 146.3840909090909,
                "pitch": 50,
                "velocity": 32,
                "duration": 0.1272727272727252,
                "tempo": 120.0
            },
            {
                "start_time": 146.4181818181818,
                "end_time": 146.62272727272727,
                "pitch": 48,
                "velocity": 32,
                "duration": 0.20454545454546746,
                "tempo": 120.0
            },
            {
                "start_time": 146.62272727272727,
                "end_time": 146.76363636363635,
                "pitch": 50,
                "velocity": 32,
                "duration": 0.14090909090907644,
                "tempo": 120.0
            },
            {
                "start_time": 146.76363636363635,
                "end_time": 147.01363636363635,
                "pitch": 50,
                "velocity": 32,
                "duration": 0.25,
                "tempo": 120.0
            }
        ],
        "Acoustic Bass": [
            {
                "start_time": 0.7045454545454545,
                "end_time": 0.7522727272727272,
                "pitch": 33,
                "velocity": 64,
                "duration": 0.04772727272727273,
                "tempo": 120.0
            },
            {
                "start_time": 0.7522727272727272,
                "end_time": 0.8727272727272727,
                "pitch": 33,
                "velocity": 4,
                "duration": 0.12045454545454548,
                "tempo": 120.0
            },
            {
                "start_time": 0.8727272727272727,
                "end_time": 0.9249999999999999,
                "pitch": 33,
                "velocity": 64,
                "duration": 0.05227272727272725,
                "tempo": 120.0
            },
            {
                "start_time": 0.9249999999999999,
                "end_time": 1.0454545454545454,
                "pitch": 33,
                "velocity": 4,
                "duration": 0.12045454545454548,
                "tempo": 120.0
            },
            {
                "start_time": 1.0454545454545454,
                "end_time": 1.3545454545454545,
                "pitch": 36,
                "velocity": 64,
                "duration": 0.3090909090909091,
                "tempo": 120.0
            },
            {
                "start_time": 1.393181818181818,
                "end_time": 1.7,
                "pitch": 38,
                "velocity": 64,
                "duration": 0.3068181818181819,
                "tempo": 120.0
            },
            {
                "start_time": 1.7363636363636363,
                "end_time": 1.8181818181818181,
                "pitch": 39,
                "velocity": 64,
                "duration": 0.08181818181818179,
                "tempo": 120.0
            },
            {
                "start_time": 1.9045454545454545,
                "end_time": 1.9363636363636363,
                "pitch": 33,
                "velocity": 64,
                "duration": 0.031818181818181746,
                "tempo": 120.0
            },
            {
                "start_time": 1.9522727272727272,
                "end_time": 2.0204545454545455,
                "pitch": 33,
                "velocity": 4,
                "duration": 0.06818181818181834,
                "tempo": 120.0
            },
            {
                "start_time": 2.2386363636363633,
                "end_time": 2.2704545454545455,
                "pitch": 33,
                "velocity": 64,
                "duration": 0.03181818181818219,
                "tempo": 120.0
            },
            {
                "start_time": 2.2886363636363636,
                "end_time": 2.3545454545454545,
                "pitch": 33,
                "velocity": 4,
                "duration": 0.06590909090909092,
                "tempo": 120.0
            },
            {
                "start_time": 2.4068181818181817,
                "end_time": 2.7068181818181816,
                "pitch": 36,
                "velocity": 64,
                "duration": 0.2999999999999998,
                "tempo": 120.0
            },
            {
                "start_time": 2.7409090909090907,
                "end_time": 3.05,
                "pitch": 38,
                "velocity": 64,
                "duration": 0.3090909090909091,
                "tempo": 120.0
            },
            {
                "start_time": 3.0863636363636364,
                "end_time": 3.168181818181818,
                "pitch": 39,
                "velocity": 64,
                "duration": 0.08181818181818157,
                "tempo": 120.0
            },
            {
                "start_time": 6.134090909090909,
                "end_time": 6.165909090909091,
                "pitch": 33,
                "velocity": 64,
                "duration": 0.03181818181818219,
                "tempo": 120.0
            },
            {
                "start_time": 6.184090909090909,
                "end_time": 6.252272727272727,
                "pitch": 33,
                "velocity": 4,
                "duration": 0.06818181818181834,
                "tempo": 120.0
            },
            {
                "start_time": 6.304545454545455,
                "end_time": 6.338636363636363,
                "pitch": 33,
                "velocity": 64,
                "duration": 0.034090909090908283,
                "tempo": 120.0
            },
            {
                "start_time": 6.3568181818181815,
                "end_time": 6.425,
                "pitch": 33,
                "velocity": 4,
                "duration": 0.06818181818181834,
                "tempo": 120.0
            },
            {
                "start_time": 6.477272727272727,
                "end_time": 6.786363636363636,
                "pitch": 36,
                "velocity": 64,
                "duration": 0.3090909090909095,
                "tempo": 120.0
            },
            {
                "start_time": 6.824999999999999,
                "end_time": 7.122727272727272,
                "pitch": 38,
                "velocity": 64,
                "duration": 0.29772727272727284,
                "tempo": 120.0
            },
            {
                "start_time": 7.156818181818181,
                "end_time": 7.243181818181818,
                "pitch": 39,
                "velocity": 64,
                "duration": 0.08636363636363686,
                "tempo": 120.0
            },
            {
                "start_time": 7.331818181818181,
                "end_time": 7.41590909090909,
                "pitch": 33,
                "velocity": 64,
                "duration": 0.084090909090909,
                "tempo": 120.0
            },
            {
                "start_time": 8.674999999999999,
                "end_time": 8.756818181818181,
                "pitch": 31,
                "velocity": 64,
                "duration": 0.08181818181818201,
                "tempo": 120.0
            },
            {
                "start_time": 8.843181818181817,
                "end_time": 8.877272727272727,
                "pitch": 33,
                "velocity": 64,
                "duration": 0.03409090909091006,
                "tempo": 120.0
            },
            {
                "start_time": 8.893181818181818,
                "end_time": 8.961363636363636,
                "pitch": 33,
                "velocity": 4,
                "duration": 0.06818181818181834,
                "tempo": 120.0
            },
            {
                "start_time": 9.013636363636364,
                "end_time": 9.049999999999999,
                "pitch": 33,
                "velocity": 64,
                "duration": 0.036363636363635266,
                "tempo": 120.0
            },
            {
                "start_time": 9.06590909090909,
                "end_time": 9.134090909090908,
                "pitch": 33,
                "velocity": 4,
                "duration": 0.06818181818181834,
                "tempo": 120.0
            },
            {
                "start_time": 9.186363636363636,
                "end_time": 9.488636363636363,
                "pitch": 36,
                "velocity": 64,
                "duration": 0.3022727272727277,
                "tempo": 120.0
            },
            {
                "start_time": 9.522727272727272,
                "end_time": 9.831818181818182,
                "pitch": 38,
                "velocity": 64,
                "duration": 0.3090909090909104,
                "tempo": 120.0
            },
            {
                "start_time": 9.868181818181817,
                "end_time": 9.95,
                "pitch": 39,
                "velocity": 64,
                "duration": 0.08181818181818201,
                "tempo": 120.0
            },
            {
                "start_time": 14.095454545454544,
                "end_time": 14.263636363636364,
                "pitch": 31,
                "velocity": 64,
                "duration": 0.16818181818181976,
                "tempo": 120.0
            },
            {
                "start_time": 14.263636363636364,
                "end_time": 14.31590909090909,
                "pitch": 33,
                "velocity": 64,
                "duration": 0.052272727272725916,
                "tempo": 120.0
            },
            {
                "start_time": 14.31590909090909,
                "end_time": 14.436363636363636,
                "pitch": 33,
                "velocity": 4,
                "duration": 0.12045454545454604,
                "tempo": 120.0
            },
            {
                "start_time": 14.436363636363636,
                "end_time": 14.486363636363636,
                "pitch": 33,
                "velocity": 80,
                "duration": 0.05000000000000071,
                "tempo": 120.0
            },
            {
                "start_time": 14.488636363636363,
                "end_time": 14.609090909090908,
                "pitch": 33,
                "velocity": 4,
                "duration": 0.12045454545454426,
                "tempo": 120.0
            },
            {
                "start_time": 14.609090909090908,
                "end_time": 14.918181818181818,
                "pitch": 36,
                "velocity": 64,
                "duration": 0.3090909090909104,
                "tempo": 120.0
            },
            {
                "start_time": 14.954545454545453,
                "end_time": 15.254545454545454,
                "pitch": 38,
                "velocity": 64,
                "duration": 0.3000000000000007,
                "tempo": 120.0
            },
            {
                "start_time": 15.288636363636362,
                "end_time": 15.375,
                "pitch": 39,
                "velocity": 64,
                "duration": 0.08636363636363775,
                "tempo": 120.0
            },
            {
                "start_time": 15.461363636363636,
                "end_time": 15.547727272727272,
                "pitch": 33,
                "velocity": 64,
                "duration": 0.08636363636363598,
                "tempo": 120.0
            },
            {
                "start_time": 19.518181818181816,
                "end_time": 19.85681818181818,
                "pitch": 31,
                "velocity": 64,
                "duration": 0.33863636363636473,
                "tempo": 120.0
            },
            {
                "start_time": 19.85681818181818,
                "end_time": 20.029545454545453,
                "pitch": 31,
                "velocity": 64,
                "duration": 0.17272727272727195,
                "tempo": 120.0
            },
            {
                "start_time": 20.029545454545453,
                "end_time": 20.536363636363635,
                "pitch": 27,
                "velocity": 64,
                "duration": 0.5068181818181827,
                "tempo": 120.0
            },
            {
                "start_time": 41.20454545454545,
                "end_time": 41.543181818181814,
                "pitch": 31,
                "velocity": 64,
                "duration": 0.3386363636363612,
                "tempo": 120.0
            },
            {
                "start_time": 41.54545454545455,
                "end_time": 41.715909090909086,
                "pitch": 31,
                "velocity": 64,
                "duration": 0.17045454545453964,
                "tempo": 120.0
            },
            {
                "start_time": 41.71818181818182,
                "end_time": 42.22272727272727,
                "pitch": 27,
                "velocity": 64,
                "duration": 0.5045454545454504,
                "tempo": 120.0
            },
            {
                "start_time": 109.15454545454546,
                "end_time": 109.16590909090908,
                "pitch": 33,
                "velocity": 64,
                "duration": 0.011363636363626028,
                "tempo": 120.0
            },
            {
                "start_time": 109.20227272727273,
                "end_time": 109.23636363636363,
                "pitch": 33,
                "velocity": 4,
                "duration": 0.03409090909090651,
                "tempo": 120.0
            },
            {
                "start_time": 109.32272727272726,
                "end_time": 109.33863636363635,
                "pitch": 33,
                "velocity": 64,
                "duration": 0.01590909090909065,
                "tempo": 120.0
            },
            {
                "start_time": 109.375,
                "end_time": 109.4090909090909,
                "pitch": 33,
                "velocity": 4,
                "duration": 0.03409090909090651,
                "tempo": 120.0
            },
            {
                "start_time": 109.49545454545454,
                "end_time": 109.79545454545455,
                "pitch": 36,
                "velocity": 64,
                "duration": 0.30000000000001137,
                "tempo": 120.0
            },
            {
                "start_time": 109.83181818181818,
                "end_time": 110.14090909090909,
                "pitch": 38,
                "velocity": 64,
                "duration": 0.3090909090909122,
                "tempo": 120.0
            },
            {
                "start_time": 110.175,
                "end_time": 110.2590909090909,
                "pitch": 39,
                "velocity": 64,
                "duration": 0.08409090909090366,
                "tempo": 120.0
            },
            {
                "start_time": 110.34545454545454,
                "end_time": 110.37727272727273,
                "pitch": 33,
                "velocity": 64,
                "duration": 0.0318181818181813,
                "tempo": 120.0
            },
            {
                "start_time": 110.39318181818182,
                "end_time": 110.4590909090909,
                "pitch": 33,
                "velocity": 4,
                "duration": 0.06590909090908781,
                "tempo": 120.0
            },
            {
                "start_time": 110.67954545454545,
                "end_time": 110.71136363636363,
                "pitch": 33,
                "velocity": 64,
                "duration": 0.0318181818181813,
                "tempo": 120.0
            },
            {
                "start_time": 110.72727272727272,
                "end_time": 110.79545454545455,
                "pitch": 33,
                "velocity": 4,
                "duration": 0.06818181818182723,
                "tempo": 120.0
            },
            {
                "start_time": 110.84545454545454,
                "end_time": 111.14772727272727,
                "pitch": 36,
                "velocity": 64,
                "duration": 0.30227272727272236,
                "tempo": 120.0
            },
            {
                "start_time": 111.18181818181817,
                "end_time": 111.48181818181817,
                "pitch": 38,
                "velocity": 64,
                "duration": 0.29999999999999716,
                "tempo": 120.0
            },
            {
                "start_time": 111.51590909090909,
                "end_time": 111.60227272727272,
                "pitch": 39,
                "velocity": 64,
                "duration": 0.08636363636362887,
                "tempo": 120.0
            },
            {
                "start_time": 114.57499999999999,
                "end_time": 114.60454545454544,
                "pitch": 33,
                "velocity": 64,
                "duration": 0.029545454545456096,
                "tempo": 120.0
            },
            {
                "start_time": 114.62272727272726,
                "end_time": 114.68863636363636,
                "pitch": 33,
                "velocity": 4,
                "duration": 0.06590909090910202,
                "tempo": 120.0
            },
            {
                "start_time": 114.74090909090908,
                "end_time": 114.77272727272727,
                "pitch": 33,
                "velocity": 64,
                "duration": 0.0318181818181813,
                "tempo": 120.0
            },
            {
                "start_time": 114.79090909090908,
                "end_time": 114.85681818181817,
                "pitch": 33,
                "velocity": 4,
                "duration": 0.06590909090908781,
                "tempo": 120.0
            },
            {
                "start_time": 114.9090909090909,
                "end_time": 115.21818181818182,
                "pitch": 36,
                "velocity": 64,
                "duration": 0.3090909090909122,
                "tempo": 120.0
            },
            {
                "start_time": 115.25454545454545,
                "end_time": 115.56136363636364,
                "pitch": 38,
                "velocity": 64,
                "duration": 0.306818181818187,
                "tempo": 120.0
            },
            {
                "start_time": 115.59772727272727,
                "end_time": 115.68181818181817,
                "pitch": 39,
                "velocity": 64,
                "duration": 0.08409090909090366,
                "tempo": 120.0
            },
            {
                "start_time": 115.76818181818182,
                "end_time": 115.84772727272727,
                "pitch": 33,
                "velocity": 64,
                "duration": 0.07954545454545325,
                "tempo": 120.0
            },
            {
                "start_time": 117.10909090909091,
                "end_time": 117.19545454545454,
                "pitch": 31,
                "velocity": 64,
                "duration": 0.08636363636362887,
                "tempo": 120.0
            },
            {
                "start_time": 117.28181818181818,
                "end_time": 117.31590909090909,
                "pitch": 33,
                "velocity": 64,
                "duration": 0.03409090909090651,
                "tempo": 120.0
            },
            {
                "start_time": 117.33181818181818,
                "end_time": 117.39772727272727,
                "pitch": 33,
                "velocity": 4,
                "duration": 0.06590909090908781,
                "tempo": 120.0
            },
            {
                "start_time": 117.44999999999999,
                "end_time": 117.48409090909091,
                "pitch": 33,
                "velocity": 64,
                "duration": 0.03409090909092072,
                "tempo": 120.0
            },
            {
                "start_time": 117.5,
                "end_time": 117.56590909090909,
                "pitch": 33,
                "velocity": 4,
                "duration": 0.06590909090908781,
                "tempo": 120.0
            },
            {
                "start_time": 117.61818181818181,
                "end_time": 117.92727272727272,
                "pitch": 36,
                "velocity": 64,
                "duration": 0.3090909090909122,
                "tempo": 120.0
            },
            {
                "start_time": 117.96136363636363,
                "end_time": 118.26363636363635,
                "pitch": 38,
                "velocity": 64,
                "duration": 0.30227272727272236,
                "tempo": 120.0
            },
            {
                "start_time": 118.29772727272727,
                "end_time": 118.38181818181818,
                "pitch": 39,
                "velocity": 64,
                "duration": 0.08409090909090366,
                "tempo": 120.0
            },
            {
                "start_time": 122.53181818181818,
                "end_time": 122.70454545454545,
                "pitch": 31,
                "velocity": 64,
                "duration": 0.17272727272727195,
                "tempo": 120.0
            },
            {
                "start_time": 122.70454545454545,
                "end_time": 122.75454545454545,
                "pitch": 33,
                "velocity": 64,
                "duration": 0.04999999999999716,
                "tempo": 120.0
            },
            {
                "start_time": 122.75454545454545,
                "end_time": 122.87045454545454,
                "pitch": 33,
                "velocity": 4,
                "duration": 0.11590909090908497,
                "tempo": 120.0
            },
            {
                "start_time": 122.87272727272726,
                "end_time": 122.92045454545453,
                "pitch": 33,
                "velocity": 80,
                "duration": 0.04772727272727195,
                "tempo": 120.0
            },
            {
                "start_time": 122.92272727272727,
                "end_time": 123.03863636363636,
                "pitch": 33,
                "velocity": 4,
                "duration": 0.11590909090908497,
                "tempo": 120.0
            },
            {
                "start_time": 123.03863636363636,
                "end_time": 123.34772727272727,
                "pitch": 36,
                "velocity": 64,
                "duration": 0.3090909090909122,
                "tempo": 120.0
            },
            {
                "start_time": 123.3840909090909,
                "end_time": 123.69318181818181,
                "pitch": 38,
                "velocity": 64,
                "duration": 0.3090909090909122,
                "tempo": 120.0
            },
            {
                "start_time": 123.72954545454544,
                "end_time": 123.81136363636364,
                "pitch": 39,
                "velocity": 64,
                "duration": 0.08181818181819267,
                "tempo": 120.0
            },
            {
                "start_time": 123.89772727272727,
                "end_time": 123.97954545454544,
                "pitch": 33,
                "velocity": 64,
                "duration": 0.08181818181817846,
                "tempo": 120.0
            },
            {
                "start_time": 127.94999999999999,
                "end_time": 128.29090909090908,
                "pitch": 31,
                "velocity": 64,
                "duration": 0.3409090909090935,
                "tempo": 120.0
            },
            {
                "start_time": 128.29090909090908,
                "end_time": 128.45681818181816,
                "pitch": 31,
                "velocity": 64,
                "duration": 0.16590909090908212,
                "tempo": 120.0
            },
            {
                "start_time": 128.4590909090909,
                "end_time": 128.97045454545454,
                "pitch": 27,
                "velocity": 64,
                "duration": 0.5113636363636545,
                "tempo": 120.0
            },
            {
                "start_time": 149.64090909090908,
                "end_time": 149.97727272727272,
                "pitch": 31,
                "velocity": 64,
                "duration": 0.3363636363636431,
                "tempo": 120.0
            },
            {
                "start_time": 149.97727272727272,
                "end_time": 150.14545454545453,
                "pitch": 31,
                "velocity": 64,
                "duration": 0.16818181818180733,
                "tempo": 120.0
            },
            {
                "start_time": 150.14545454545453,
                "end_time": 150.65681818181818,
                "pitch": 27,
                "velocity": 64,
                "duration": 0.5113636363636545,
                "tempo": 120.0
            }
        ],
        "Vibraphone": [
            {
                "start_time": 60.35681818181818,
                "end_time": 60.40454545454545,
                "pitch": 81,
                "velocity": 51,
                "duration": 0.04772727272727195,
                "tempo": 120.0
            },
            {
                "start_time": 60.522727272727266,
                "end_time": 60.570454545454545,
                "pitch": 74,
                "velocity": 51,
                "duration": 0.04772727272727906,
                "tempo": 120.0
            },
            {
                "start_time": 60.68863636363636,
                "end_time": 60.740909090909085,
                "pitch": 74,
                "velocity": 25,
                "duration": 0.052272727272722364,
                "tempo": 120.0
            },
            {
                "start_time": 60.861363636363635,
                "end_time": 60.913636363636364,
                "pitch": 74,
                "velocity": 51,
                "duration": 0.05227272727272947,
                "tempo": 120.0
            },
            {
                "start_time": 61.03409090909091,
                "end_time": 61.084090909090904,
                "pitch": 79,
                "velocity": 51,
                "duration": 0.04999999999999716,
                "tempo": 120.0
            },
            {
                "start_time": 61.20227272727272,
                "end_time": 61.252272727272725,
                "pitch": 74,
                "velocity": 51,
                "duration": 0.05000000000000426,
                "tempo": 120.0
            },
            {
                "start_time": 61.37045454545454,
                "end_time": 61.418181818181814,
                "pitch": 74,
                "velocity": 25,
                "duration": 0.04772727272727195,
                "tempo": 120.0
            },
            {
                "start_time": 61.53636363636363,
                "end_time": 61.586363636363636,
                "pitch": 74,
                "velocity": 51,
                "duration": 0.05000000000000426,
                "tempo": 120.0
            },
            {
                "start_time": 61.70454545454545,
                "end_time": 61.75454545454545,
                "pitch": 77,
                "velocity": 51,
                "duration": 0.04999999999999716,
                "tempo": 120.0
            },
            {
                "start_time": 61.877272727272725,
                "end_time": 61.92727272727272,
                "pitch": 74,
                "velocity": 51,
                "duration": 0.04999999999999716,
                "tempo": 120.0
            },
            {
                "start_time": 62.05,
                "end_time": 62.099999999999994,
                "pitch": 76,
                "velocity": 51,
                "duration": 0.04999999999999716,
                "tempo": 120.0
            },
            {
                "start_time": 62.21818181818182,
                "end_time": 62.26590909090909,
                "pitch": 76,
                "velocity": 40,
                "duration": 0.04772727272727195,
                "tempo": 120.0
            },
            {
                "start_time": 62.38409090909091,
                "end_time": 62.434090909090905,
                "pitch": 74,
                "velocity": 40,
                "duration": 0.04999999999999716,
                "tempo": 120.0
            },
            {
                "start_time": 62.55227272727272,
                "end_time": 62.60227272727273,
                "pitch": 74,
                "velocity": 25,
                "duration": 0.05000000000000426,
                "tempo": 120.0
            },
            {
                "start_time": 64.76136363636364,
                "end_time": 65.09545454545454,
                "pitch": 74,
                "velocity": 32,
                "duration": 0.33409090909090366,
                "tempo": 120.0
            },
            {
                "start_time": 65.09545454545454,
                "end_time": 65.43181818181817,
                "pitch": 77,
                "velocity": 40,
                "duration": 0.33636363636362887,
                "tempo": 120.0
            },
            {
                "start_time": 65.43181818181817,
                "end_time": 65.77954545454546,
                "pitch": 79,
                "velocity": 40,
                "duration": 0.3477272727272833,
                "tempo": 120.0
            },
            {
                "start_time": 65.77954545454546,
                "end_time": 65.825,
                "pitch": 81,
                "velocity": 51,
                "duration": 0.045454545454546746,
                "tempo": 120.0
            },
            {
                "start_time": 65.94318181818181,
                "end_time": 65.99318181818181,
                "pitch": 76,
                "velocity": 51,
                "duration": 0.04999999999999716,
                "tempo": 120.0
            },
            {
                "start_time": 66.11136363636363,
                "end_time": 66.16136363636363,
                "pitch": 76,
                "velocity": 25,
                "duration": 0.04999999999999716,
                "tempo": 120.0
            },
            {
                "start_time": 66.27954545454546,
                "end_time": 66.32954545454545,
                "pitch": 76,
                "velocity": 51,
                "duration": 0.04999999999999716,
                "tempo": 120.0
            },
            {
                "start_time": 66.44772727272726,
                "end_time": 66.49772727272727,
                "pitch": 79,
                "velocity": 51,
                "duration": 0.05000000000001137,
                "tempo": 120.0
            },
            {
                "start_time": 66.61818181818181,
                "end_time": 66.67045454545455,
                "pitch": 76,
                "velocity": 51,
                "duration": 0.052272727272736574,
                "tempo": 120.0
            },
            {
                "start_time": 66.79090909090908,
                "end_time": 66.8409090909091,
                "pitch": 76,
                "velocity": 25,
                "duration": 0.05000000000001137,
                "tempo": 120.0
            },
            {
                "start_time": 66.9590909090909,
                "end_time": 67.0090909090909,
                "pitch": 76,
                "velocity": 51,
                "duration": 0.04999999999999716,
                "tempo": 120.0
            },
            {
                "start_time": 67.12727272727273,
                "end_time": 67.17727272727272,
                "pitch": 77,
                "velocity": 51,
                "duration": 0.04999999999999716,
                "tempo": 120.0
            },
            {
                "start_time": 67.29545454545455,
                "end_time": 67.34318181818182,
                "pitch": 76,
                "velocity": 51,
                "duration": 0.04772727272727195,
                "tempo": 120.0
            },
            {
                "start_time": 67.46136363636363,
                "end_time": 67.51363636363637,
                "pitch": 77,
                "velocity": 51,
                "duration": 0.052272727272736574,
                "tempo": 120.0
            },
            {
                "start_time": 67.6340909090909,
                "end_time": 67.68636363636364,
                "pitch": 77,
                "velocity": 40,
                "duration": 0.052272727272736574,
                "tempo": 120.0
            },
            {
                "start_time": 67.80681818181817,
                "end_time": 67.85681818181818,
                "pitch": 76,
                "velocity": 40,
                "duration": 0.05000000000001137,
                "tempo": 120.0
            },
            {
                "start_time": 67.975,
                "end_time": 68.02499999999999,
                "pitch": 76,
                "velocity": 25,
                "duration": 0.04999999999999716,
                "tempo": 120.0
            },
            {
                "start_time": 70.18181818181817,
                "end_time": 70.51818181818182,
                "pitch": 76,
                "velocity": 32,
                "duration": 0.3363636363636431,
                "tempo": 120.0
            },
            {
                "start_time": 70.51818181818182,
                "end_time": 70.85227272727272,
                "pitch": 77,
                "velocity": 40,
                "duration": 0.33409090909090366,
                "tempo": 120.0
            },
            {
                "start_time": 70.85227272727272,
                "end_time": 71.2,
                "pitch": 79,
                "velocity": 40,
                "duration": 0.3477272727272833,
                "tempo": 120.0
            },
            {
                "start_time": 71.2,
                "end_time": 71.24772727272727,
                "pitch": 81,
                "velocity": 51,
                "duration": 0.04772727272727195,
                "tempo": 120.0
            },
            {
                "start_time": 71.36590909090908,
                "end_time": 71.41590909090908,
                "pitch": 74,
                "velocity": 51,
                "duration": 0.04999999999999716,
                "tempo": 120.0
            },
            {
                "start_time": 71.5340909090909,
                "end_time": 71.58181818181818,
                "pitch": 74,
                "velocity": 25,
                "duration": 0.04772727272727195,
                "tempo": 120.0
            },
            {
                "start_time": 71.7,
                "end_time": 71.75,
                "pitch": 74,
                "velocity": 51,
                "duration": 0.04999999999999716,
                "tempo": 120.0
            },
            {
                "start_time": 71.86818181818181,
                "end_time": 71.92045454545455,
                "pitch": 79,
                "velocity": 51,
                "duration": 0.052272727272736574,
                "tempo": 120.0
            },
            {
                "start_time": 72.04090909090908,
                "end_time": 72.0909090909091,
                "pitch": 74,
                "velocity": 51,
                "duration": 0.05000000000001137,
                "tempo": 120.0
            },
            {
                "start_time": 72.21363636363635,
                "end_time": 72.26363636363637,
                "pitch": 74,
                "velocity": 25,
                "duration": 0.05000000000001137,
                "tempo": 120.0
            },
            {
                "start_time": 72.38181818181818,
                "end_time": 72.42954545454545,
                "pitch": 74,
                "velocity": 51,
                "duration": 0.04772727272727195,
                "tempo": 120.0
            },
            {
                "start_time": 72.55,
                "end_time": 72.6,
                "pitch": 77,
                "velocity": 51,
                "duration": 0.04999999999999716,
                "tempo": 120.0
            },
            {
                "start_time": 72.72045454545454,
                "end_time": 72.77272727272727,
                "pitch": 74,
                "velocity": 51,
                "duration": 0.052272727272722364,
                "tempo": 120.0
            },
            {
                "start_time": 72.89318181818182,
                "end_time": 72.94318181818181,
                "pitch": 76,
                "velocity": 51,
                "duration": 0.04999999999999716,
                "tempo": 120.0
            },
            {
                "start_time": 73.06136363636364,
                "end_time": 73.11136363636363,
                "pitch": 74,
                "velocity": 51,
                "duration": 0.04999999999999716,
                "tempo": 120.0
            },
            {
                "start_time": 73.22954545454544,
                "end_time": 73.27727272727272,
                "pitch": 77,
                "velocity": 51,
                "duration": 0.04772727272727195,
                "tempo": 120.0
            },
            {
                "start_time": 73.39545454545454,
                "end_time": 73.44545454545454,
                "pitch": 74,
                "velocity": 51,
                "duration": 0.04999999999999716,
                "tempo": 120.0
            },
            {
                "start_time": 73.56363636363636,
                "end_time": 73.61590909090908,
                "pitch": 79,
                "velocity": 51,
                "duration": 0.052272727272722364,
                "tempo": 120.0
            },
            {
                "start_time": 73.73636363636363,
                "end_time": 73.78863636363636,
                "pitch": 74,
                "velocity": 51,
                "duration": 0.052272727272722364,
                "tempo": 120.0
            },
            {
                "start_time": 73.91136363636363,
                "end_time": 73.9590909090909,
                "pitch": 81,
                "velocity": 51,
                "duration": 0.04772727272727195,
                "tempo": 120.0
            },
            {
                "start_time": 74.07727272727273,
                "end_time": 74.12727272727273,
                "pitch": 74,
                "velocity": 51,
                "duration": 0.04999999999999716,
                "tempo": 120.0
            },
            {
                "start_time": 74.24545454545454,
                "end_time": 74.29545454545455,
                "pitch": 74,
                "velocity": 25,
                "duration": 0.05000000000001137,
                "tempo": 120.0
            },
            {
                "start_time": 74.41590909090908,
                "end_time": 74.46818181818182,
                "pitch": 74,
                "velocity": 51,
                "duration": 0.052272727272736574,
                "tempo": 120.0
            },
            {
                "start_time": 74.58863636363635,
                "end_time": 74.63863636363637,
                "pitch": 79,
                "velocity": 51,
                "duration": 0.05000000000001137,
                "tempo": 120.0
            },
            {
                "start_time": 74.75681818181818,
                "end_time": 74.80681818181817,
                "pitch": 74,
                "velocity": 51,
                "duration": 0.04999999999999716,
                "tempo": 120.0
            },
            {
                "start_time": 74.925,
                "end_time": 74.975,
                "pitch": 74,
                "velocity": 25,
                "duration": 0.04999999999999716,
                "tempo": 120.0
            },
            {
                "start_time": 75.09318181818182,
                "end_time": 75.14090909090909,
                "pitch": 74,
                "velocity": 51,
                "duration": 0.04772727272727195,
                "tempo": 120.0
            },
            {
                "start_time": 75.2590909090909,
                "end_time": 75.30909090909091,
                "pitch": 77,
                "velocity": 51,
                "duration": 0.05000000000001137,
                "tempo": 120.0
            },
            {
                "start_time": 75.42727272727272,
                "end_time": 75.47727272727272,
                "pitch": 74,
                "velocity": 51,
                "duration": 0.04999999999999716,
                "tempo": 120.0
            },
            {
                "start_time": 75.59545454545454,
                "end_time": 75.64545454545454,
                "pitch": 76,
                "velocity": 51,
                "duration": 0.04999999999999716,
                "tempo": 120.0
            },
            {
                "start_time": 75.76818181818182,
                "end_time": 75.81818181818181,
                "pitch": 74,
                "velocity": 51,
                "duration": 0.04999999999999716,
                "tempo": 120.0
            },
            {
                "start_time": 75.94090909090909,
                "end_time": 75.98863636363636,
                "pitch": 77,
                "velocity": 51,
                "duration": 0.04772727272727195,
                "tempo": 120.0
            },
            {
                "start_time": 76.10681818181818,
                "end_time": 76.15681818181818,
                "pitch": 74,
                "velocity": 51,
                "duration": 0.04999999999999716,
                "tempo": 120.0
            },
            {
                "start_time": 76.27499999999999,
                "end_time": 76.325,
                "pitch": 79,
                "velocity": 51,
                "duration": 0.05000000000001137,
                "tempo": 120.0
            },
            {
                "start_time": 76.44772727272726,
                "end_time": 76.49772727272727,
                "pitch": 74,
                "velocity": 51,
                "duration": 0.05000000000001137,
                "tempo": 120.0
            },
            {
                "start_time": 76.62272727272727,
                "end_time": 76.67045454545455,
                "pitch": 81,
                "velocity": 51,
                "duration": 0.04772727272727195,
                "tempo": 120.0
            },
            {
                "start_time": 76.78863636363636,
                "end_time": 76.83636363636363,
                "pitch": 74,
                "velocity": 51,
                "duration": 0.04772727272727195,
                "tempo": 120.0
            },
            {
                "start_time": 76.95454545454545,
                "end_time": 77.00681818181818,
                "pitch": 74,
                "velocity": 25,
                "duration": 0.052272727272722364,
                "tempo": 120.0
            },
            {
                "start_time": 77.12727272727273,
                "end_time": 77.17954545454545,
                "pitch": 74,
                "velocity": 51,
                "duration": 0.052272727272722364,
                "tempo": 120.0
            },
            {
                "start_time": 77.3,
                "end_time": 77.35,
                "pitch": 79,
                "velocity": 51,
                "duration": 0.04999999999999716,
                "tempo": 120.0
            },
            {
                "start_time": 77.46818181818182,
                "end_time": 77.51818181818182,
                "pitch": 74,
                "velocity": 51,
                "duration": 0.04999999999999716,
                "tempo": 120.0
            },
            {
                "start_time": 77.63636363636363,
                "end_time": 77.68409090909091,
                "pitch": 74,
                "velocity": 25,
                "duration": 0.04772727272728616,
                "tempo": 120.0
            },
            {
                "start_time": 77.80227272727272,
                "end_time": 77.85227272727272,
                "pitch": 74,
                "velocity": 51,
                "duration": 0.04999999999999716,
                "tempo": 120.0
            },
            {
                "start_time": 77.97045454545454,
                "end_time": 78.02272727272727,
                "pitch": 77,
                "velocity": 51,
                "duration": 0.052272727272722364,
                "tempo": 120.0
            },
            {
                "start_time": 78.14318181818182,
                "end_time": 78.19318181818181,
                "pitch": 74,
                "velocity": 51,
                "duration": 0.04999999999999716,
                "tempo": 120.0
            },
            {
                "start_time": 78.31590909090909,
                "end_time": 78.36590909090908,
                "pitch": 76,
                "velocity": 51,
                "duration": 0.04999999999999716,
                "tempo": 120.0
            },
            {
                "start_time": 78.48409090909091,
                "end_time": 78.53181818181818,
                "pitch": 76,
                "velocity": 40,
                "duration": 0.04772727272727195,
                "tempo": 120.0
            },
            {
                "start_time": 78.64999999999999,
                "end_time": 78.7,
                "pitch": 74,
                "velocity": 40,
                "duration": 0.05000000000001137,
                "tempo": 120.0
            },
            {
                "start_time": 78.81818181818181,
                "end_time": 78.86818181818181,
                "pitch": 74,
                "velocity": 25,
                "duration": 0.04999999999999716,
                "tempo": 120.0
            },
            {
                "start_time": 82.04318181818181,
                "end_time": 82.0909090909091,
                "pitch": 81,
                "velocity": 51,
                "duration": 0.04772727272728616,
                "tempo": 120.0
            },
            {
                "start_time": 82.2090909090909,
                "end_time": 82.25681818181818,
                "pitch": 74,
                "velocity": 51,
                "duration": 0.04772727272727195,
                "tempo": 120.0
            },
            {
                "start_time": 82.375,
                "end_time": 82.42727272727272,
                "pitch": 74,
                "velocity": 25,
                "duration": 0.052272727272722364,
                "tempo": 120.0
            },
            {
                "start_time": 82.54772727272727,
                "end_time": 82.6,
                "pitch": 74,
                "velocity": 51,
                "duration": 0.052272727272722364,
                "tempo": 120.0
            },
            {
                "start_time": 82.72045454545454,
                "end_time": 82.77045454545454,
                "pitch": 79,
                "velocity": 51,
                "duration": 0.04999999999999716,
                "tempo": 120.0
            },
            {
                "start_time": 82.88863636363637,
                "end_time": 82.93863636363636,
                "pitch": 74,
                "velocity": 51,
                "duration": 0.04999999999999716,
                "tempo": 120.0
            },
            {
                "start_time": 83.05681818181817,
                "end_time": 83.10454545454544,
                "pitch": 74,
                "velocity": 25,
                "duration": 0.04772727272727195,
                "tempo": 120.0
            },
            {
                "start_time": 83.22272727272727,
                "end_time": 83.27272727272727,
                "pitch": 74,
                "velocity": 51,
                "duration": 0.04999999999999716,
                "tempo": 120.0
            },
            {
                "start_time": 83.39090909090909,
                "end_time": 83.44090909090909,
                "pitch": 77,
                "velocity": 51,
                "duration": 0.04999999999999716,
                "tempo": 120.0
            },
            {
                "start_time": 83.5590909090909,
                "end_time": 83.60909090909091,
                "pitch": 74,
                "velocity": 51,
                "duration": 0.05000000000001137,
                "tempo": 120.0
            },
            {
                "start_time": 83.72727272727272,
                "end_time": 83.77727272727272,
                "pitch": 76,
                "velocity": 51,
                "duration": 0.04999999999999716,
                "tempo": 120.0
            },
            {
                "start_time": 83.89999999999999,
                "end_time": 83.95,
                "pitch": 76,
                "velocity": 40,
                "duration": 0.05000000000001137,
                "tempo": 120.0
            },
            {
                "start_time": 84.07045454545454,
                "end_time": 84.12045454545454,
                "pitch": 74,
                "velocity": 40,
                "duration": 0.04999999999999716,
                "tempo": 120.0
            },
            {
                "start_time": 84.23863636363636,
                "end_time": 84.28863636363636,
                "pitch": 74,
                "velocity": 25,
                "duration": 0.04999999999999716,
                "tempo": 120.0
            },
            {
                "start_time": 86.44772727272726,
                "end_time": 86.78181818181818,
                "pitch": 74,
                "velocity": 32,
                "duration": 0.3340909090909179,
                "tempo": 120.0
            },
            {
                "start_time": 86.78181818181818,
                "end_time": 87.11818181818181,
                "pitch": 77,
                "velocity": 40,
                "duration": 0.33636363636362887,
                "tempo": 120.0
            },
            {
                "start_time": 87.11818181818181,
                "end_time": 87.4659090909091,
                "pitch": 79,
                "velocity": 40,
                "duration": 0.3477272727272833,
                "tempo": 120.0
            },
            {
                "start_time": 87.4659090909091,
                "end_time": 87.51136363636363,
                "pitch": 81,
                "velocity": 51,
                "duration": 0.045454545454532536,
                "tempo": 120.0
            },
            {
                "start_time": 87.62954545454545,
                "end_time": 87.67954545454545,
                "pitch": 76,
                "velocity": 51,
                "duration": 0.04999999999999716,
                "tempo": 120.0
            },
            {
                "start_time": 87.79772727272727,
                "end_time": 87.84772727272727,
                "pitch": 76,
                "velocity": 25,
                "duration": 0.04999999999999716,
                "tempo": 120.0
            },
            {
                "start_time": 87.97045454545454,
                "end_time": 88.02045454545454,
                "pitch": 76,
                "velocity": 51,
                "duration": 0.04999999999999716,
                "tempo": 120.0
            },
            {
                "start_time": 88.14318181818182,
                "end_time": 88.19090909090909,
                "pitch": 79,
                "velocity": 51,
                "duration": 0.04772727272727195,
                "tempo": 120.0
            },
            {
                "start_time": 88.3090909090909,
                "end_time": 88.35909090909091,
                "pitch": 76,
                "velocity": 51,
                "duration": 0.05000000000001137,
                "tempo": 120.0
            },
            {
                "start_time": 88.47727272727272,
                "end_time": 88.52727272727272,
                "pitch": 76,
                "velocity": 25,
                "duration": 0.04999999999999716,
                "tempo": 120.0
            },
            {
                "start_time": 88.64545454545454,
                "end_time": 88.69545454545454,
                "pitch": 76,
                "velocity": 51,
                "duration": 0.04999999999999716,
                "tempo": 120.0
            },
            {
                "start_time": 88.81363636363636,
                "end_time": 88.86363636363636,
                "pitch": 77,
                "velocity": 51,
                "duration": 0.04999999999999716,
                "tempo": 120.0
            },
            {
                "start_time": 88.98636363636363,
                "end_time": 89.03636363636363,
                "pitch": 76,
                "velocity": 51,
                "duration": 0.04999999999999716,
                "tempo": 120.0
            },
            {
                "start_time": 89.1590909090909,
                "end_time": 89.20681818181818,
                "pitch": 77,
                "velocity": 51,
                "duration": 0.04772727272727195,
                "tempo": 120.0
            },
            {
                "start_time": 89.32499999999999,
                "end_time": 89.375,
                "pitch": 77,
                "velocity": 40,
                "duration": 0.05000000000001137,
                "tempo": 120.0
            },
            {
                "start_time": 89.49318181818181,
                "end_time": 89.54318181818181,
                "pitch": 76,
                "velocity": 40,
                "duration": 0.04999999999999716,
                "tempo": 120.0
            },
            {
                "start_time": 89.66136363636363,
                "end_time": 89.71136363636363,
                "pitch": 76,
                "velocity": 25,
                "duration": 0.04999999999999716,
                "tempo": 120.0
            },
            {
                "start_time": 91.85909090909091,
                "end_time": 92.20454545454545,
                "pitch": 76,
                "velocity": 32,
                "duration": 0.3454545454545439,
                "tempo": 120.0
            },
            {
                "start_time": 92.20454545454545,
                "end_time": 92.53863636363636,
                "pitch": 77,
                "velocity": 40,
                "duration": 0.33409090909090366,
                "tempo": 120.0
            },
            {
                "start_time": 92.53863636363636,
                "end_time": 92.88636363636363,
                "pitch": 79,
                "velocity": 40,
                "duration": 0.3477272727272691,
                "tempo": 120.0
            },
            {
                "start_time": 92.88636363636363,
                "end_time": 92.9340909090909,
                "pitch": 81,
                "velocity": 51,
                "duration": 0.04772727272727195,
                "tempo": 120.0
            },
            {
                "start_time": 93.05227272727272,
                "end_time": 93.10227272727272,
                "pitch": 74,
                "velocity": 51,
                "duration": 0.04999999999999716,
                "tempo": 120.0
            },
            {
                "start_time": 93.22045454545454,
                "end_time": 93.27045454545454,
                "pitch": 74,
                "velocity": 25,
                "duration": 0.04999999999999716,
                "tempo": 120.0
            },
            {
                "start_time": 93.39090909090909,
                "end_time": 93.44318181818181,
                "pitch": 74,
                "velocity": 51,
                "duration": 0.052272727272722364,
                "tempo": 120.0
            },
            {
                "start_time": 93.56363636363636,
                "end_time": 93.61363636363636,
                "pitch": 79,
                "velocity": 51,
                "duration": 0.04999999999999716,
                "tempo": 120.0
            },
            {
                "start_time": 93.73181818181818,
                "end_time": 93.78181818181818,
                "pitch": 74,
                "velocity": 51,
                "duration": 0.04999999999999716,
                "tempo": 120.0
            },
            {
                "start_time": 93.89999999999999,
                "end_time": 93.94999999999999,
                "pitch": 74,
                "velocity": 25,
                "duration": 0.04999999999999716,
                "tempo": 120.0
            },
            {
                "start_time": 94.06818181818181,
                "end_time": 94.11590909090908,
                "pitch": 74,
                "velocity": 51,
                "duration": 0.04772727272727195,
                "tempo": 120.0
            },
            {
                "start_time": 94.23636363636363,
                "end_time": 94.28636363636363,
                "pitch": 77,
                "velocity": 51,
                "duration": 0.04999999999999716,
                "tempo": 120.0
            },
            {
                "start_time": 94.40681818181818,
                "end_time": 94.4590909090909,
                "pitch": 74,
                "velocity": 51,
                "duration": 0.052272727272722364,
                "tempo": 120.0
            },
            {
                "start_time": 94.57954545454545,
                "end_time": 94.62954545454545,
                "pitch": 76,
                "velocity": 51,
                "duration": 0.04999999999999716,
                "tempo": 120.0
            },
            {
                "start_time": 94.74772727272727,
                "end_time": 94.79772727272727,
                "pitch": 74,
                "velocity": 51,
                "duration": 0.04999999999999716,
                "tempo": 120.0
            },
            {
                "start_time": 94.91590909090908,
                "end_time": 94.96590909090908,
                "pitch": 77,
                "velocity": 51,
                "duration": 0.04999999999999716,
                "tempo": 120.0
            },
            {
                "start_time": 95.08181818181818,
                "end_time": 95.13181818181818,
                "pitch": 74,
                "velocity": 51,
                "duration": 0.04999999999999716,
                "tempo": 120.0
            },
            {
                "start_time": 95.25,
                "end_time": 95.30227272727272,
                "pitch": 79,
                "velocity": 51,
                "duration": 0.052272727272722364,
                "tempo": 120.0
            },
            {
                "start_time": 95.42272727272727,
                "end_time": 95.475,
                "pitch": 74,
                "velocity": 51,
                "duration": 0.052272727272722364,
                "tempo": 120.0
            },
            {
                "start_time": 95.59772727272727,
                "end_time": 95.64545454545454,
                "pitch": 81,
                "velocity": 51,
                "duration": 0.04772727272727195,
                "tempo": 120.0
            },
            {
                "start_time": 95.76363636363637,
                "end_time": 95.81363636363636,
                "pitch": 74,
                "velocity": 51,
                "duration": 0.04999999999999716,
                "tempo": 120.0
            },
            {
                "start_time": 95.93181818181817,
                "end_time": 95.98181818181818,
                "pitch": 74,
                "velocity": 25,
                "duration": 0.05000000000001137,
                "tempo": 120.0
            },
            {
                "start_time": 96.10227272727272,
                "end_time": 96.15454545454546,
                "pitch": 74,
                "velocity": 51,
                "duration": 0.052272727272736574,
                "tempo": 120.0
            },
            {
                "start_time": 96.27499999999999,
                "end_time": 96.32499999999999,
                "pitch": 79,
                "velocity": 51,
                "duration": 0.04999999999999716,
                "tempo": 120.0
            },
            {
                "start_time": 96.44318181818181,
                "end_time": 96.49318181818181,
                "pitch": 74,
                "velocity": 51,
                "duration": 0.04999999999999716,
                "tempo": 120.0
            },
            {
                "start_time": 96.61136363636363,
                "end_time": 96.66136363636363,
                "pitch": 74,
                "velocity": 25,
                "duration": 0.04999999999999716,
                "tempo": 120.0
            },
            {
                "start_time": 96.77954545454546,
                "end_time": 96.82727272727273,
                "pitch": 74,
                "velocity": 51,
                "duration": 0.04772727272727195,
                "tempo": 120.0
            },
            {
                "start_time": 96.94545454545454,
                "end_time": 96.99772727272727,
                "pitch": 77,
                "velocity": 51,
                "duration": 0.052272727272736574,
                "tempo": 120.0
            },
            {
                "start_time": 97.11818181818181,
                "end_time": 97.17045454545455,
                "pitch": 74,
                "velocity": 51,
                "duration": 0.052272727272736574,
                "tempo": 120.0
            },
            {
                "start_time": 97.29090909090908,
                "end_time": 97.34090909090908,
                "pitch": 76,
                "velocity": 51,
                "duration": 0.04999999999999716,
                "tempo": 120.0
            },
            {
                "start_time": 97.4590909090909,
                "end_time": 97.5090909090909,
                "pitch": 74,
                "velocity": 51,
                "duration": 0.04999999999999716,
                "tempo": 120.0
            },
            {
                "start_time": 97.62727272727273,
                "end_time": 97.675,
                "pitch": 77,
                "velocity": 51,
                "duration": 0.04772727272727195,
                "tempo": 120.0
            },
            {
                "start_time": 97.79318181818181,
                "end_time": 97.84318181818182,
                "pitch": 74,
                "velocity": 51,
                "duration": 0.05000000000001137,
                "tempo": 120.0
            },
            {
                "start_time": 97.96136363636363,
                "end_time": 98.01136363636363,
                "pitch": 79,
                "velocity": 51,
                "duration": 0.04999999999999716,
                "tempo": 120.0
            },
            {
                "start_time": 98.1340909090909,
                "end_time": 98.1840909090909,
                "pitch": 74,
                "velocity": 51,
                "duration": 0.04999999999999716,
                "tempo": 120.0
            },
            {
                "start_time": 98.3090909090909,
                "end_time": 98.35681818181818,
                "pitch": 81,
                "velocity": 51,
                "duration": 0.04772727272728616,
                "tempo": 120.0
            },
            {
                "start_time": 98.475,
                "end_time": 98.52272727272727,
                "pitch": 74,
                "velocity": 51,
                "duration": 0.04772727272727195,
                "tempo": 120.0
            },
            {
                "start_time": 98.64090909090909,
                "end_time": 98.69318181818181,
                "pitch": 74,
                "velocity": 25,
                "duration": 0.052272727272722364,
                "tempo": 120.0
            },
            {
                "start_time": 98.81363636363636,
                "end_time": 98.86590909090908,
                "pitch": 74,
                "velocity": 51,
                "duration": 0.052272727272722364,
                "tempo": 120.0
            },
            {
                "start_time": 98.98636363636363,
                "end_time": 99.03636363636363,
                "pitch": 79,
                "velocity": 51,
                "duration": 0.04999999999999716,
                "tempo": 120.0
            },
            {
                "start_time": 99.15454545454546,
                "end_time": 99.20454545454545,
                "pitch": 74,
                "velocity": 51,
                "duration": 0.04999999999999716,
                "tempo": 120.0
            },
            {
                "start_time": 99.32272727272726,
                "end_time": 99.37045454545454,
                "pitch": 74,
                "velocity": 25,
                "duration": 0.04772727272727195,
                "tempo": 120.0
            },
            {
                "start_time": 99.48863636363636,
                "end_time": 99.53863636363636,
                "pitch": 74,
                "velocity": 51,
                "duration": 0.04999999999999716,
                "tempo": 120.0
            },
            {
                "start_time": 99.65681818181818,
                "end_time": 99.7090909090909,
                "pitch": 77,
                "velocity": 51,
                "duration": 0.052272727272722364,
                "tempo": 120.0
            },
            {
                "start_time": 99.82954545454545,
                "end_time": 99.87954545454545,
                "pitch": 74,
                "velocity": 51,
                "duration": 0.04999999999999716,
                "tempo": 120.0
            },
            {
                "start_time": 100.00227272727273,
                "end_time": 100.05227272727272,
                "pitch": 76,
                "velocity": 51,
                "duration": 0.04999999999999716,
                "tempo": 120.0
            },
            {
                "start_time": 100.17045454545455,
                "end_time": 100.21818181818182,
                "pitch": 76,
                "velocity": 40,
                "duration": 0.04772727272727195,
                "tempo": 120.0
            },
            {
                "start_time": 100.33636363636363,
                "end_time": 100.38636363636363,
                "pitch": 74,
                "velocity": 40,
                "duration": 0.04999999999999716,
                "tempo": 120.0
            },
            {
                "start_time": 100.50454545454545,
                "end_time": 100.55454545454545,
                "pitch": 74,
                "velocity": 25,
                "duration": 0.04999999999999716,
                "tempo": 120.0
            }
        ]
    }
}