{
    "track_id": "06 Rapid Turning (Area Boss)",
    "mood": "angry",
    "instruments": {
        "Vibraphone": [
            {
                "start_time": 0.01818181818181818,
                "end_time": 0.11818181818181818,
                "pitch": 58,
                "velocity": 80,
                "duration": 0.1,
                "tempo": 120.0
            },
            {
                "start_time": 0.11818181818181818,
                "end_time": 0.21818181818181817,
                "pitch": 46,
                "velocity": 80,
                "duration": 0.09999999999999999,
                "tempo": 120.0
            },
            {
                "start_time": 0.21818181818181817,
                "end_time": 0.3181818181818182,
                "pitch": 53,
                "velocity": 80,
                "duration": 0.1,
                "tempo": 120.0
            },
            {
                "start_time": 0.3181818181818182,
                "end_time": 0.4204545454545454,
                "pitch": 65,
                "velocity": 80,
                "duration": 0.10227272727272724,
                "tempo": 120.0
            },
            {
                "start_time": 0.4204545454545454,
                "end_time": 0.5181818181818182,
                "pitch": 58,
                "velocity": 80,
                "duration": 0.09772727272727277,
                "tempo": 120.0
            },
            {
                "start_time": 0.21818181818181817,
                "end_time": 0.6181818181818182,
                "pitch": 46,
                "velocity": 80,
                "duration": 0.4,
                "tempo": 120.0
            },
            {
                "start_time": 0.5181818181818182,
                "end_time": 0.6181818181818182,
                "pitch": 46,
                "velocity": 80,
                "duration": 0.09999999999999998,
                "tempo": 120.0
            },
            {
                "start_time": 0.6181818181818182,
                "end_time": 0.7181818181818181,
                "pitch": 70,
                "velocity": 80,
                "duration": 0.09999999999999998,
                "tempo": 120.0
            },
            {
                "start_time": 0.7181818181818181,
                "end_time": 0.8181818181818181,
                "pitch": 46,
                "velocity": 80,
                "duration": 0.09999999999999998,
                "tempo": 120.0
            },
            {
                "start_time": 0.8181818181818181,
                "end_time": 0.9159090909090909,
                "pitch": 58,
                "velocity": 80,
                "duration": 0.09772727272727277,
                "tempo": 120.0
            },
            {
                "start_time": 0.9159090909090909,
                "end_time": 1.0136363636363637,
                "pitch": 46,
                "velocity": 80,
                "duration": 0.09772727272727277,
                "tempo": 120.0
            },
            {
                "start_time": 1.0136363636363637,
                "end_time": 1.1113636363636363,
                "pitch": 53,
                "velocity": 80,
                "duration": 0.09772727272727266,
                "tempo": 120.0
            },
            {
                "start_time": 1.1113636363636363,
                "end_time": 1.209090909090909,
                "pitch": 70,
                "velocity": 80,
                "duration": 0.09772727272727266,
                "tempo": 120.0
            },
            {
                "start_time": 1.0136363636363637,
                "end_time": 1.3113636363636363,
                "pitch": 46,
                "velocity": 80,
                "duration": 0.2977272727272726,
                "tempo": 120.0
            },
            {
                "start_time": 1.209090909090909,
                "end_time": 1.3113636363636363,
                "pitch": 46,
                "velocity": 80,
                "duration": 0.10227272727272729,
                "tempo": 120.0
            },
            {
                "start_time": 1.3113636363636363,
                "end_time": 1.4136363636363636,
                "pitch": 53,
                "velocity": 80,
                "duration": 0.10227272727272729,
                "tempo": 120.0
            },
            {
                "start_time": 1.4136363636363636,
                "end_time": 1.5159090909090909,
                "pitch": 58,
                "velocity": 80,
                "duration": 0.10227272727272729,
                "tempo": 120.0
            },
            {
                "start_time": 1.3113636363636363,
                "end_time": 1.6181818181818182,
                "pitch": 46,
                "velocity": 80,
                "duration": 0.3068181818181819,
                "tempo": 120.0
            },
            {
                "start_time": 1.5159090909090909,
                "end_time": 1.6181818181818182,
                "pitch": 46,
                "velocity": 80,
                "duration": 0.10227272727272729,
                "tempo": 120.0
            },
            {
                "start_time": 1.6181818181818182,
                "end_time": 1.718181818181818,
                "pitch": 58,
                "velocity": 80,
                "duration": 0.09999999999999987,
                "tempo": 120.0
            },
            {
                "start_time": 1.718181818181818,
                "end_time": 1.8204545454545453,
                "pitch": 46,
                "velocity": 80,
                "duration": 0.10227272727272729,
                "tempo": 120.0
            },
            {
                "start_time": 1.8204545454545453,
                "end_time": 1.9204545454545454,
                "pitch": 53,
                "velocity": 80,
                "duration": 0.10000000000000009,
                "tempo": 120.0
            },
            {
                "start_time": 1.4136363636363636,
                "end_time": 2.0204545454545455,
                "pitch": 65,
                "velocity": 80,
                "duration": 0.6068181818181819,
                "tempo": 120.0
            },
            {
                "start_time": 1.9204545454545454,
                "end_time": 2.0204545454545455,
                "pitch": 65,
                "velocity": 80,
                "duration": 0.10000000000000009,
                "tempo": 120.0
            },
            {
                "start_time": 2.0204545454545455,
                "end_time": 2.120454545454545,
                "pitch": 58,
                "velocity": 80,
                "duration": 0.09999999999999964,
                "tempo": 120.0
            },
            {
                "start_time": 2.120454545454545,
                "end_time": 2.2204545454545452,
                "pitch": 46,
                "velocity": 80,
                "duration": 0.10000000000000009,
                "tempo": 120.0
            },
            {
                "start_time": 2.2204545454545452,
                "end_time": 2.318181818181818,
                "pitch": 70,
                "velocity": 80,
                "duration": 0.09772727272727266,
                "tempo": 120.0
            },
            {
                "start_time": 2.318181818181818,
                "end_time": 2.418181818181818,
                "pitch": 46,
                "velocity": 80,
                "duration": 0.10000000000000009,
                "tempo": 120.0
            },
            {
                "start_time": 2.418181818181818,
                "end_time": 2.5159090909090907,
                "pitch": 58,
                "velocity": 80,
                "duration": 0.09772727272727266,
                "tempo": 120.0
            },
            {
                "start_time": 2.5159090909090907,
                "end_time": 2.6136363636363633,
                "pitch": 46,
                "velocity": 80,
                "duration": 0.09772727272727266,
                "tempo": 120.0
            },
            {
                "start_time": 2.6136363636363633,
                "end_time": 2.7113636363636364,
                "pitch": 53,
                "velocity": 80,
                "duration": 0.0977272727272731,
                "tempo": 120.0
            },
            {
                "start_time": 1.1113636363636363,
                "end_time": 2.7113636363636364,
                "pitch": 77,
                "velocity": 80,
                "duration": 1.6,
                "tempo": 120.0
            },
            {
                "start_time": 2.7113636363636364,
                "end_time": 2.809090909090909,
                "pitch": 70,
                "velocity": 80,
                "duration": 0.09772727272727266,
                "tempo": 120.0
            },
            {
                "start_time": 2.6136363636363633,
                "end_time": 2.909090909090909,
                "pitch": 46,
                "velocity": 80,
                "duration": 0.29545454545454586,
                "tempo": 120.0
            },
            {
                "start_time": 2.809090909090909,
                "end_time": 2.909090909090909,
                "pitch": 46,
                "velocity": 80,
                "duration": 0.10000000000000009,
                "tempo": 120.0
            },
            {
                "start_time": 2.909090909090909,
                "end_time": 3.009090909090909,
                "pitch": 53,
                "velocity": 80,
                "duration": 0.09999999999999964,
                "tempo": 120.0
            },
            {
                "start_time": 2.0204545454545455,
                "end_time": 3.009090909090909,
                "pitch": 65,
                "velocity": 80,
                "duration": 0.9886363636363633,
                "tempo": 120.0
            },
            {
                "start_time": 3.009090909090909,
                "end_time": 3.109090909090909,
                "pitch": 58,
                "velocity": 80,
                "duration": 0.10000000000000009,
                "tempo": 120.0
            },
            {
                "start_time": 2.909090909090909,
                "end_time": 3.209090909090909,
                "pitch": 46,
                "velocity": 80,
                "duration": 0.2999999999999998,
                "tempo": 120.0
            },
            {
                "start_time": 3.109090909090909,
                "end_time": 3.209090909090909,
                "pitch": 46,
                "velocity": 80,
                "duration": 0.10000000000000009,
                "tempo": 120.0
            },
            {
                "start_time": 3.209090909090909,
                "end_time": 3.309090909090909,
                "pitch": 58,
                "velocity": 80,
                "duration": 0.10000000000000009,
                "tempo": 120.0
            },
            {
                "start_time": 3.309090909090909,
                "end_time": 3.4090909090909087,
                "pitch": 46,
                "velocity": 80,
                "duration": 0.09999999999999964,
                "tempo": 120.0
            },
            {
                "start_time": 3.4090909090909087,
                "end_time": 3.506818181818182,
                "pitch": 53,
                "velocity": 80,
                "duration": 0.0977272727272731,
                "tempo": 120.0
            },
            {
                "start_time": 3.009090909090909,
                "end_time": 3.609090909090909,
                "pitch": 65,
                "velocity": 80,
                "duration": 0.6000000000000001,
                "tempo": 120.0
            },
            {
                "start_time": 3.506818181818182,
                "end_time": 3.609090909090909,
                "pitch": 65,
                "velocity": 80,
                "duration": 0.10227272727272707,
                "tempo": 120.0
            },
            {
                "start_time": 3.609090909090909,
                "end_time": 3.7068181818181816,
                "pitch": 58,
                "velocity": 80,
                "duration": 0.09772727272727266,
                "tempo": 120.0
            },
            {
                "start_time": 3.4090909090909087,
                "end_time": 3.8068181818181817,
                "pitch": 46,
                "velocity": 80,
                "duration": 0.39772727272727293,
                "tempo": 120.0
            },
            {
                "start_time": 3.7068181818181816,
                "end_time": 3.8068181818181817,
                "pitch": 46,
                "velocity": 80,
                "duration": 0.10000000000000009,
                "tempo": 120.0
            },
            {
                "start_time": 3.8068181818181817,
                "end_time": 3.9068181818181817,
                "pitch": 70,
                "velocity": 80,
                "duration": 0.10000000000000009,
                "tempo": 120.0
            },
            {
                "start_time": 3.9068181818181817,
                "end_time": 4.006818181818182,
                "pitch": 46,
                "velocity": 80,
                "duration": 0.10000000000000009,
                "tempo": 120.0
            },
            {
                "start_time": 4.006818181818182,
                "end_time": 4.1045454545454545,
                "pitch": 58,
                "velocity": 80,
                "duration": 0.09772727272727266,
                "tempo": 120.0
            },
            {
                "start_time": 4.1045454545454545,
                "end_time": 4.202272727272727,
                "pitch": 46,
                "velocity": 80,
                "duration": 0.09772727272727266,
                "tempo": 120.0
            },
            {
                "start_time": 4.202272727272727,
                "end_time": 4.3,
                "pitch": 53,
                "velocity": 80,
                "duration": 0.09772727272727266,
                "tempo": 120.0
            },
            {
                "start_time": 2.7113636363636364,
                "end_time": 4.3,
                "pitch": 77,
                "velocity": 80,
                "duration": 1.5886363636363634,
                "tempo": 120.0
            },
            {
                "start_time": 4.3,
                "end_time": 4.3977272727272725,
                "pitch": 70,
                "velocity": 80,
                "duration": 0.09772727272727266,
                "tempo": 120.0
            },
            {
                "start_time": 4.202272727272727,
                "end_time": 4.5,
                "pitch": 46,
                "velocity": 80,
                "duration": 0.29772727272727284,
                "tempo": 120.0
            },
            {
                "start_time": 4.3977272727272725,
                "end_time": 4.5,
                "pitch": 46,
                "velocity": 80,
                "duration": 0.10227272727272751,
                "tempo": 120.0
            },
            {
                "start_time": 4.5,
                "end_time": 4.602272727272727,
                "pitch": 53,
                "velocity": 80,
                "duration": 0.10227272727272663,
                "tempo": 120.0
            },
            {
                "start_time": 4.602272727272727,
                "end_time": 4.704545454545454,
                "pitch": 58,
                "velocity": 80,
                "duration": 0.10227272727272751,
                "tempo": 120.0
            },
            {
                "start_time": 4.5,
                "end_time": 4.806818181818182,
                "pitch": 46,
                "velocity": 80,
                "duration": 0.30681818181818166,
                "tempo": 120.0
            },
            {
                "start_time": 4.704545454545454,
                "end_time": 4.806818181818182,
                "pitch": 46,
                "velocity": 80,
                "duration": 0.10227272727272751,
                "tempo": 120.0
            },
            {
                "start_time": 4.806818181818182,
                "end_time": 4.906818181818181,
                "pitch": 58,
                "velocity": 80,
                "duration": 0.09999999999999964,
                "tempo": 120.0
            },
            {
                "start_time": 4.906818181818181,
                "end_time": 5.006818181818182,
                "pitch": 46,
                "velocity": 80,
                "duration": 0.10000000000000053,
                "tempo": 120.0
            },
            {
                "start_time": 5.006818181818182,
                "end_time": 5.1068181818181815,
                "pitch": 53,
                "velocity": 80,
                "duration": 0.09999999999999964,
                "tempo": 120.0
            },
            {
                "start_time": 4.602272727272727,
                "end_time": 5.206818181818181,
                "pitch": 65,
                "velocity": 80,
                "duration": 0.6045454545454545,
                "tempo": 120.0
            },
            {
                "start_time": 5.1068181818181815,
                "end_time": 5.206818181818181,
                "pitch": 65,
                "velocity": 80,
                "duration": 0.09999999999999964,
                "tempo": 120.0
            },
            {
                "start_time": 5.206818181818181,
                "end_time": 5.306818181818182,
                "pitch": 58,
                "velocity": 80,
                "duration": 0.10000000000000053,
                "tempo": 120.0
            },
            {
                "start_time": 5.006818181818182,
                "end_time": 5.406818181818181,
                "pitch": 46,
                "velocity": 80,
                "duration": 0.39999999999999947,
                "tempo": 120.0
            },
            {
                "start_time": 5.306818181818182,
                "end_time": 5.406818181818181,
                "pitch": 46,
                "velocity": 80,
                "duration": 0.09999999999999964,
                "tempo": 120.0
            },
            {
                "start_time": 5.406818181818181,
                "end_time": 5.506818181818182,
                "pitch": 70,
                "velocity": 80,
                "duration": 0.10000000000000053,
                "tempo": 120.0
            },
            {
                "start_time": 5.506818181818182,
                "end_time": 5.6068181818181815,
                "pitch": 46,
                "velocity": 80,
                "duration": 0.09999999999999964,
                "tempo": 120.0
            },
            {
                "start_time": 5.6068181818181815,
                "end_time": 5.704545454545454,
                "pitch": 58,
                "velocity": 80,
                "duration": 0.09772727272727266,
                "tempo": 120.0
            },
            {
                "start_time": 5.704545454545454,
                "end_time": 5.802272727272727,
                "pitch": 46,
                "velocity": 80,
                "duration": 0.09772727272727266,
                "tempo": 120.0
            },
            {
                "start_time": 5.802272727272727,
                "end_time": 5.8999999999999995,
                "pitch": 53,
                "velocity": 80,
                "duration": 0.09772727272727266,
                "tempo": 120.0
            },
            {
                "start_time": 5.8999999999999995,
                "end_time": 5.997727272727272,
                "pitch": 70,
                "velocity": 80,
                "duration": 0.09772727272727266,
                "tempo": 120.0
            },
            {
                "start_time": 5.997727272727272,
                "end_time": 6.097727272727273,
                "pitch": 46,
                "velocity": 80,
                "duration": 0.10000000000000053,
                "tempo": 120.0
            },
            {
                "start_time": 6.097727272727273,
                "end_time": 6.199999999999999,
                "pitch": 53,
                "velocity": 80,
                "duration": 0.10227272727272663,
                "tempo": 120.0
            },
            {
                "start_time": 6.199999999999999,
                "end_time": 6.3,
                "pitch": 58,
                "velocity": 80,
                "duration": 0.10000000000000053,
                "tempo": 120.0
            },
            {
                "start_time": 6.3,
                "end_time": 6.3999999999999995,
                "pitch": 46,
                "velocity": 80,
                "duration": 0.09999999999999964,
                "tempo": 120.0
            },
            {
                "start_time": 6.3999999999999995,
                "end_time": 6.5,
                "pitch": 60,
                "velocity": 80,
                "duration": 0.10000000000000053,
                "tempo": 120.0
            },
            {
                "start_time": 6.5,
                "end_time": 6.6,
                "pitch": 48,
                "velocity": 80,
                "duration": 0.09999999999999964,
                "tempo": 120.0
            },
            {
                "start_time": 6.6,
                "end_time": 6.699999999999999,
                "pitch": 55,
                "velocity": 80,
                "duration": 0.09999999999999964,
                "tempo": 120.0
            },
            {
                "start_time": 6.699999999999999,
                "end_time": 6.802272727272727,
                "pitch": 67,
                "velocity": 80,
                "duration": 0.10227272727272751,
                "tempo": 120.0
            },
            {
                "start_time": 6.6,
                "end_time": 6.8999999999999995,
                "pitch": 60,
                "velocity": 80,
                "duration": 0.2999999999999998,
                "tempo": 120.0
            },
            {
                "start_time": 6.802272727272727,
                "end_time": 6.8999999999999995,
                "pitch": 60,
                "velocity": 80,
                "duration": 0.09772727272727266,
                "tempo": 120.0
            },
            {
                "start_time": 6.8999999999999995,
                "end_time": 7.0,
                "pitch": 48,
                "velocity": 80,
                "duration": 0.10000000000000053,
                "tempo": 120.0
            },
            {
                "start_time": 7.0,
                "end_time": 7.1,
                "pitch": 72,
                "velocity": 80,
                "duration": 0.09999999999999964,
                "tempo": 120.0
            },
            {
                "start_time": 7.1,
                "end_time": 7.199999999999999,
                "pitch": 48,
                "velocity": 80,
                "duration": 0.09999999999999964,
                "tempo": 120.0
            },
            {
                "start_time": 7.199999999999999,
                "end_time": 7.3,
                "pitch": 60,
                "velocity": 80,
                "duration": 0.10000000000000053,
                "tempo": 120.0
            },
            {
                "start_time": 7.3,
                "end_time": 7.3999999999999995,
                "pitch": 48,
                "velocity": 80,
                "duration": 0.09999999999999964,
                "tempo": 120.0
            },
            {
                "start_time": 7.3999999999999995,
                "end_time": 7.5,
                "pitch": 55,
                "velocity": 80,
                "duration": 0.10000000000000053,
                "tempo": 120.0
            },
            {
                "start_time": 7.5,
                "end_time": 7.602272727272727,
                "pitch": 72,
                "velocity": 80,
                "duration": 0.10227272727272663,
                "tempo": 120.0
            },
            {
                "start_time": 7.602272727272727,
                "end_time": 7.699999999999999,
                "pitch": 48,
                "velocity": 80,
                "duration": 0.09772727272727266,
                "tempo": 120.0
            },
            {
                "start_time": 7.699999999999999,
                "end_time": 7.8,
                "pitch": 55,
                "velocity": 80,
                "duration": 0.10000000000000053,
                "tempo": 120.0
            },
            {
                "start_time": 7.699999999999999,
                "end_time": 7.8999999999999995,
                "pitch": 60,
                "velocity": 80,
                "duration": 0.20000000000000018,
                "tempo": 120.0
            },
            {
                "start_time": 7.8,
                "end_time": 7.8999999999999995,
                "pitch": 60,
                "velocity": 80,
                "duration": 0.09999999999999964,
                "tempo": 120.0
            },
            {
                "start_time": 7.8999999999999995,
                "end_time": 8.0,
                "pitch": 48,
                "velocity": 80,
                "duration": 0.10000000000000053,
                "tempo": 120.0
            },
            {
                "start_time": 8.0,
                "end_time": 8.1,
                "pitch": 60,
                "velocity": 80,
                "duration": 0.09999999999999964,
                "tempo": 120.0
            },
            {
                "start_time": 8.1,
                "end_time": 8.202272727272726,
                "pitch": 48,
                "velocity": 80,
                "duration": 0.10227272727272663,
                "tempo": 120.0
            },
            {
                "start_time": 7.8,
                "end_time": 8.299999999999999,
                "pitch": 55,
                "velocity": 80,
                "duration": 0.4999999999999991,
                "tempo": 120.0
            },
            {
                "start_time": 8.202272727272726,
                "end_time": 8.299999999999999,
                "pitch": 55,
                "velocity": 80,
                "duration": 0.09772727272727266,
                "tempo": 120.0
            },
            {
                "start_time": 7.5,
                "end_time": 8.402272727272727,
                "pitch": 67,
                "velocity": 80,
                "duration": 0.9022727272727273,
                "tempo": 120.0
            },
            {
                "start_time": 8.302272727272728,
                "end_time": 8.402272727272727,
                "pitch": 67,
                "velocity": 80,
                "duration": 0.09999999999999964,
                "tempo": 120.0
            },
            {
                "start_time": 8.202272727272726,
                "end_time": 8.502272727272727,
                "pitch": 60,
                "velocity": 80,
                "duration": 0.3000000000000007,
                "tempo": 120.0
            },
            {
                "start_time": 8.402272727272727,
                "end_time": 8.502272727272727,
                "pitch": 60,
                "velocity": 80,
                "duration": 0.09999999999999964,
                "tempo": 120.0
            },
            {
                "start_time": 8.502272727272727,
                "end_time": 8.602272727272727,
                "pitch": 48,
                "velocity": 80,
                "duration": 0.09999999999999964,
                "tempo": 120.0
            },
            {
                "start_time": 8.602272727272727,
                "end_time": 8.702272727272726,
                "pitch": 72,
                "velocity": 80,
                "duration": 0.09999999999999964,
                "tempo": 120.0
            },
            {
                "start_time": 8.702272727272726,
                "end_time": 8.802272727272728,
                "pitch": 48,
                "velocity": 80,
                "duration": 0.10000000000000142,
                "tempo": 120.0
            },
            {
                "start_time": 8.802272727272728,
                "end_time": 8.9,
                "pitch": 60,
                "velocity": 80,
                "duration": 0.09772727272727266,
                "tempo": 120.0
            },
            {
                "start_time": 8.9,
                "end_time": 8.997727272727273,
                "pitch": 48,
                "velocity": 80,
                "duration": 0.09772727272727266,
                "tempo": 120.0
            },
            {
                "start_time": 8.402272727272727,
                "end_time": 9.095454545454546,
                "pitch": 55,
                "velocity": 80,
                "duration": 0.6931818181818183,
                "tempo": 120.0
            },
            {
                "start_time": 8.997727272727273,
                "end_time": 9.095454545454546,
                "pitch": 55,
                "velocity": 80,
                "duration": 0.09772727272727266,
                "tempo": 120.0
            },
            {
                "start_time": 9.095454545454546,
                "end_time": 9.193181818181818,
                "pitch": 72,
                "velocity": 80,
                "duration": 0.09772727272727266,
                "tempo": 120.0
            },
            {
                "start_time": 9.193181818181818,
                "end_time": 9.293181818181818,
                "pitch": 48,
                "velocity": 80,
                "duration": 0.09999999999999964,
                "tempo": 120.0
            },
            {
                "start_time": 8.997727272727273,
                "end_time": 9.295454545454545,
                "pitch": 60,
                "velocity": 80,
                "duration": 0.29772727272727195,
                "tempo": 120.0
            },
            {
                "start_time": 9.295454545454545,
                "end_time": 9.395454545454545,
                "pitch": 55,
                "velocity": 80,
                "duration": 0.09999999999999964,
                "tempo": 120.0
            },
            {
                "start_time": 9.295454545454545,
                "end_time": 9.495454545454544,
                "pitch": 60,
                "velocity": 80,
                "duration": 0.1999999999999993,
                "tempo": 120.0
            },
            {
                "start_time": 9.395454545454545,
                "end_time": 9.495454545454544,
                "pitch": 60,
                "velocity": 80,
                "duration": 0.09999999999999964,
                "tempo": 120.0
            },
            {
                "start_time": 9.495454545454544,
                "end_time": 9.595454545454546,
                "pitch": 48,
                "velocity": 80,
                "duration": 0.10000000000000142,
                "tempo": 120.0
            },
            {
                "start_time": 9.595454545454546,
                "end_time": 9.695454545454545,
                "pitch": 60,
                "velocity": 80,
                "duration": 0.09999999999999964,
                "tempo": 120.0
            },
            {
                "start_time": 9.695454545454545,
                "end_time": 9.797727272727272,
                "pitch": 48,
                "velocity": 80,
                "duration": 0.10227272727272663,
                "tempo": 120.0
            },
            {
                "start_time": 9.395454545454545,
                "end_time": 9.895454545454545,
                "pitch": 55,
                "velocity": 80,
                "duration": 0.5,
                "tempo": 120.0
            },
            {
                "start_time": 9.797727272727272,
                "end_time": 9.895454545454545,
                "pitch": 55,
                "velocity": 80,
                "duration": 0.09772727272727266,
                "tempo": 120.0
            },
            {
                "start_time": 9.095454545454546,
                "end_time": 9.997727272727273,
                "pitch": 67,
                "velocity": 80,
                "duration": 0.9022727272727273,
                "tempo": 120.0
            },
            {
                "start_time": 9.895454545454545,
                "end_time": 9.997727272727273,
                "pitch": 67,
                "velocity": 80,
                "duration": 0.1022727272727284,
                "tempo": 120.0
            },
            {
                "start_time": 9.997727272727273,
                "end_time": 10.097727272727273,
                "pitch": 60,
                "velocity": 80,
                "duration": 0.09999999999999964,
                "tempo": 120.0
            },
            {
                "start_time": 10.097727272727273,
                "end_time": 10.197727272727272,
                "pitch": 48,
                "velocity": 80,
                "duration": 0.09999999999999964,
                "tempo": 120.0
            },
            {
                "start_time": 10.197727272727272,
                "end_time": 10.297727272727272,
                "pitch": 72,
                "velocity": 80,
                "duration": 0.09999999999999964,
                "tempo": 120.0
            },
            {
                "start_time": 10.297727272727272,
                "end_time": 10.397727272727272,
                "pitch": 48,
                "velocity": 80,
                "duration": 0.09999999999999964,
                "tempo": 120.0
            },
            {
                "start_time": 10.397727272727272,
                "end_time": 10.497727272727273,
                "pitch": 60,
                "velocity": 80,
                "duration": 0.10000000000000142,
                "tempo": 120.0
            },
            {
                "start_time": 10.497727272727273,
                "end_time": 10.6,
                "pitch": 48,
                "velocity": 80,
                "duration": 0.10227272727272663,
                "tempo": 120.0
            },
            {
                "start_time": 9.997727272727273,
                "end_time": 10.7,
                "pitch": 55,
                "velocity": 80,
                "duration": 0.7022727272727263,
                "tempo": 120.0
            },
            {
                "start_time": 10.6,
                "end_time": 10.7,
                "pitch": 55,
                "velocity": 80,
                "duration": 0.09999999999999964,
                "tempo": 120.0
            },
            {
                "start_time": 10.7,
                "end_time": 10.799999999999999,
                "pitch": 72,
                "velocity": 80,
                "duration": 0.09999999999999964,
                "tempo": 120.0
            },
            {
                "start_time": 10.799999999999999,
                "end_time": 10.9,
                "pitch": 48,
                "velocity": 80,
                "duration": 0.10000000000000142,
                "tempo": 120.0
            },
            {
                "start_time": 10.6,
                "end_time": 10.9,
                "pitch": 60,
                "velocity": 80,
                "duration": 0.3000000000000007,
                "tempo": 120.0
            },
            {
                "start_time": 10.9,
                "end_time": 11.0,
                "pitch": 55,
                "velocity": 80,
                "duration": 0.09999999999999964,
                "tempo": 120.0
            },
            {
                "start_time": 10.9,
                "end_time": 11.1,
                "pitch": 60,
                "velocity": 80,
                "duration": 0.1999999999999993,
                "tempo": 120.0
            },
            {
                "start_time": 11.0,
                "end_time": 11.1,
                "pitch": 60,
                "velocity": 80,
                "duration": 0.09999999999999964,
                "tempo": 120.0
            },
            {
                "start_time": 11.1,
                "end_time": 11.2,
                "pitch": 48,
                "velocity": 80,
                "duration": 0.09999999999999964,
                "tempo": 120.0
            },
            {
                "start_time": 11.2,
                "end_time": 11.299999999999999,
                "pitch": 60,
                "velocity": 80,
                "duration": 0.09999999999999964,
                "tempo": 120.0
            },
            {
                "start_time": 11.299999999999999,
                "end_time": 11.399999999999999,
                "pitch": 48,
                "velocity": 80,
                "duration": 0.09999999999999964,
                "tempo": 120.0
            },
            {
                "start_time": 11.0,
                "end_time": 11.5,
                "pitch": 55,
                "velocity": 80,
                "duration": 0.5,
                "tempo": 120.0
            },
            {
                "start_time": 11.399999999999999,
                "end_time": 11.5,
                "pitch": 55,
                "velocity": 80,
                "duration": 0.10000000000000142,
                "tempo": 120.0
            },
            {
                "start_time": 10.7,
                "end_time": 11.6,
                "pitch": 67,
                "velocity": 80,
                "duration": 0.9000000000000004,
                "tempo": 120.0
            },
            {
                "start_time": 11.5,
                "end_time": 11.6,
                "pitch": 67,
                "velocity": 80,
                "duration": 0.09999999999999964,
                "tempo": 120.0
            },
            {
                "start_time": 11.399999999999999,
                "end_time": 11.7,
                "pitch": 60,
                "velocity": 80,
                "duration": 0.3000000000000007,
                "tempo": 120.0
            },
            {
                "start_time": 11.6,
                "end_time": 11.7,
                "pitch": 60,
                "velocity": 80,
                "duration": 0.09999999999999964,
                "tempo": 120.0
            },
            {
                "start_time": 11.7,
                "end_time": 11.802272727272726,
                "pitch": 48,
                "velocity": 80,
                "duration": 0.10227272727272663,
                "tempo": 120.0
            },
            {
                "start_time": 11.802272727272726,
                "end_time": 11.902272727272727,
                "pitch": 72,
                "velocity": 80,
                "duration": 0.10000000000000142,
                "tempo": 120.0
            },
            {
                "start_time": 11.902272727272727,
                "end_time": 12.002272727272727,
                "pitch": 48,
                "velocity": 80,
                "duration": 0.09999999999999964,
                "tempo": 120.0
            },
            {
                "start_time": 12.002272727272727,
                "end_time": 12.1,
                "pitch": 60,
                "velocity": 80,
                "duration": 0.09772727272727266,
                "tempo": 120.0
            },
            {
                "start_time": 12.1,
                "end_time": 12.197727272727272,
                "pitch": 48,
                "velocity": 80,
                "duration": 0.09772727272727266,
                "tempo": 120.0
            },
            {
                "start_time": 11.6,
                "end_time": 12.295454545454545,
                "pitch": 55,
                "velocity": 80,
                "duration": 0.6954545454545453,
                "tempo": 120.0
            },
            {
                "start_time": 12.197727272727272,
                "end_time": 12.295454545454545,
                "pitch": 55,
                "velocity": 80,
                "duration": 0.09772727272727266,
                "tempo": 120.0
            },
            {
                "start_time": 12.295454545454545,
                "end_time": 12.393181818181818,
                "pitch": 72,
                "velocity": 80,
                "duration": 0.09772727272727266,
                "tempo": 120.0
            },
            {
                "start_time": 12.393181818181818,
                "end_time": 12.493181818181817,
                "pitch": 48,
                "velocity": 80,
                "duration": 0.09999999999999964,
                "tempo": 120.0
            },
            {
                "start_time": 12.493181818181817,
                "end_time": 12.593181818181817,
                "pitch": 55,
                "velocity": 80,
                "duration": 0.09999999999999964,
                "tempo": 120.0
            },
            {
                "start_time": 12.197727272727272,
                "end_time": 12.693181818181818,
                "pitch": 60,
                "velocity": 80,
                "duration": 0.49545454545454604,
                "tempo": 120.0
            },
            {
                "start_time": 12.593181818181817,
                "end_time": 12.693181818181818,
                "pitch": 60,
                "velocity": 80,
                "duration": 0.10000000000000142,
                "tempo": 120.0
            },
            {
                "start_time": 12.693181818181818,
                "end_time": 12.795454545454545,
                "pitch": 48,
                "velocity": 80,
                "duration": 0.10227272727272663,
                "tempo": 120.0
            }
        ],
        "Acoustic Bass": [
            {
                "start_time": 0.01818181818181818,
                "end_time": 0.21818181818181817,
                "pitch": 34,
                "velocity": 80,
                "duration": 0.19999999999999998,
                "tempo": 120.0
            },
            {
                "start_time": 0.21818181818181817,
                "end_time": 0.4204545454545454,
                "pitch": 46,
                "velocity": 80,
                "duration": 0.20227272727272724,
                "tempo": 120.0
            },
            {
                "start_time": 0.4204545454545454,
                "end_time": 0.6181818181818182,
                "pitch": 34,
                "velocity": 80,
                "duration": 0.19772727272727275,
                "tempo": 120.0
            },
            {
                "start_time": 0.6181818181818182,
                "end_time": 0.8181818181818181,
                "pitch": 46,
                "velocity": 80,
                "duration": 0.19999999999999996,
                "tempo": 120.0
            },
            {
                "start_time": 0.8181818181818181,
                "end_time": 1.0136363636363637,
                "pitch": 34,
                "velocity": 80,
                "duration": 0.19545454545454555,
                "tempo": 120.0
            },
            {
                "start_time": 1.0136363636363637,
                "end_time": 1.209090909090909,
                "pitch": 46,
                "velocity": 80,
                "duration": 0.19545454545454533,
                "tempo": 120.0
            },
            {
                "start_time": 1.209090909090909,
                "end_time": 1.4136363636363636,
                "pitch": 34,
                "velocity": 80,
                "duration": 0.20454545454545459,
                "tempo": 120.0
            },
            {
                "start_time": 1.4136363636363636,
                "end_time": 1.6181818181818182,
                "pitch": 46,
                "velocity": 80,
                "duration": 0.20454545454545459,
                "tempo": 120.0
            },
            {
                "start_time": 1.6181818181818182,
                "end_time": 1.8204545454545453,
                "pitch": 34,
                "velocity": 80,
                "duration": 0.20227272727272716,
                "tempo": 120.0
            },
            {
                "start_time": 1.8204545454545453,
                "end_time": 2.0204545454545455,
                "pitch": 46,
                "velocity": 80,
                "duration": 0.20000000000000018,
                "tempo": 120.0
            },
            {
                "start_time": 2.0204545454545455,
                "end_time": 2.2204545454545452,
                "pitch": 34,
                "velocity": 80,
                "duration": 0.19999999999999973,
                "tempo": 120.0
            },
            {
                "start_time": 2.2204545454545452,
                "end_time": 2.418181818181818,
                "pitch": 46,
                "velocity": 80,
                "duration": 0.19772727272727275,
                "tempo": 120.0
            },
            {
                "start_time": 2.418181818181818,
                "end_time": 2.6136363636363633,
                "pitch": 34,
                "velocity": 80,
                "duration": 0.19545454545454533,
                "tempo": 120.0
            },
            {
                "start_time": 2.6136363636363633,
                "end_time": 2.809090909090909,
                "pitch": 46,
                "velocity": 80,
                "duration": 0.19545454545454577,
                "tempo": 120.0
            },
            {
                "start_time": 2.809090909090909,
                "end_time": 3.009090909090909,
                "pitch": 34,
                "velocity": 80,
                "duration": 0.19999999999999973,
                "tempo": 120.0
            },
            {
                "start_time": 3.009090909090909,
                "end_time": 3.209090909090909,
                "pitch": 46,
                "velocity": 80,
                "duration": 0.20000000000000018,
                "tempo": 120.0
            },
            {
                "start_time": 3.209090909090909,
                "end_time": 3.4090909090909087,
                "pitch": 34,
                "velocity": 80,
                "duration": 0.19999999999999973,
                "tempo": 120.0
            },
            {
                "start_time": 3.4090909090909087,
                "end_time": 3.609090909090909,
                "pitch": 46,
                "velocity": 80,
                "duration": 0.20000000000000018,
                "tempo": 120.0
            },
            {
                "start_time": 3.609090909090909,
                "end_time": 3.8068181818181817,
                "pitch": 34,
                "velocity": 80,
                "duration": 0.19772727272727275,
                "tempo": 120.0
            },
            {
                "start_time": 3.8068181818181817,
                "end_time": 4.006818181818182,
                "pitch": 46,
                "velocity": 80,
                "duration": 0.20000000000000018,
                "tempo": 120.0
            },
            {
                "start_time": 4.006818181818182,
                "end_time": 4.202272727272727,
                "pitch": 34,
                "velocity": 80,
                "duration": 0.19545454545454533,
                "tempo": 120.0
            },
            {
                "start_time": 4.202272727272727,
                "end_time": 4.3977272727272725,
                "pitch": 46,
                "velocity": 80,
                "duration": 0.19545454545454533,
                "tempo": 120.0
            },
            {
                "start_time": 4.3977272727272725,
                "end_time": 4.602272727272727,
                "pitch": 34,
                "velocity": 80,
                "duration": 0.20454545454545414,
                "tempo": 120.0
            },
            {
                "start_time": 4.602272727272727,
                "end_time": 4.806818181818182,
                "pitch": 46,
                "velocity": 80,
                "duration": 0.20454545454545503,
                "tempo": 120.0
            },
            {
                "start_time": 4.806818181818182,
                "end_time": 5.006818181818182,
                "pitch": 34,
                "velocity": 80,
                "duration": 0.20000000000000018,
                "tempo": 120.0
            },
            {
                "start_time": 5.006818181818182,
                "end_time": 5.206818181818181,
                "pitch": 46,
                "velocity": 80,
                "duration": 0.1999999999999993,
                "tempo": 120.0
            },
            {
                "start_time": 5.206818181818181,
                "end_time": 5.406818181818181,
                "pitch": 34,
                "velocity": 80,
                "duration": 0.20000000000000018,
                "tempo": 120.0
            },
            {
                "start_time": 5.406818181818181,
                "end_time": 5.6068181818181815,
                "pitch": 46,
                "velocity": 80,
                "duration": 0.20000000000000018,
                "tempo": 120.0
            },
            {
                "start_time": 5.6068181818181815,
                "end_time": 5.802272727272727,
                "pitch": 34,
                "velocity": 80,
                "duration": 0.19545454545454533,
                "tempo": 120.0
            },
            {
                "start_time": 5.802272727272727,
                "end_time": 5.997727272727272,
                "pitch": 46,
                "velocity": 80,
                "duration": 0.19545454545454533,
                "tempo": 120.0
            },
            {
                "start_time": 5.997727272727272,
                "end_time": 6.199999999999999,
                "pitch": 34,
                "velocity": 80,
                "duration": 0.20227272727272716,
                "tempo": 120.0
            },
            {
                "start_time": 6.199999999999999,
                "end_time": 6.3999999999999995,
                "pitch": 46,
                "velocity": 80,
                "duration": 0.20000000000000018,
                "tempo": 120.0
            },
            {
                "start_time": 6.3999999999999995,
                "end_time": 6.6,
                "pitch": 34,
                "velocity": 80,
                "duration": 0.20000000000000018,
                "tempo": 120.0
            },
            {
                "start_time": 6.6,
                "end_time": 6.802272727272727,
                "pitch": 48,
                "velocity": 80,
                "duration": 0.20227272727272716,
                "tempo": 120.0
            },
            {
                "start_time": 6.802272727272727,
                "end_time": 7.0,
                "pitch": 36,
                "velocity": 80,
                "duration": 0.1977272727272732,
                "tempo": 120.0
            },
            {
                "start_time": 7.0,
                "end_time": 7.199999999999999,
                "pitch": 48,
                "velocity": 80,
                "duration": 0.1999999999999993,
                "tempo": 120.0
            },
            {
                "start_time": 7.199999999999999,
                "end_time": 7.3999999999999995,
                "pitch": 36,
                "velocity": 80,
                "duration": 0.20000000000000018,
                "tempo": 120.0
            },
            {
                "start_time": 7.3999999999999995,
                "end_time": 7.602272727272727,
                "pitch": 48,
                "velocity": 80,
                "duration": 0.20227272727272716,
                "tempo": 120.0
            },
            {
                "start_time": 7.602272727272727,
                "end_time": 7.8,
                "pitch": 36,
                "velocity": 80,
                "duration": 0.1977272727272732,
                "tempo": 120.0
            },
            {
                "start_time": 7.8,
                "end_time": 8.0,
                "pitch": 48,
                "velocity": 80,
                "duration": 0.20000000000000018,
                "tempo": 120.0
            },
            {
                "start_time": 8.0,
                "end_time": 8.202272727272726,
                "pitch": 36,
                "velocity": 80,
                "duration": 0.20227272727272627,
                "tempo": 120.0
            },
            {
                "start_time": 8.202272727272726,
                "end_time": 8.402272727272727,
                "pitch": 48,
                "velocity": 80,
                "duration": 0.20000000000000107,
                "tempo": 120.0
            },
            {
                "start_time": 8.402272727272727,
                "end_time": 8.602272727272727,
                "pitch": 36,
                "velocity": 80,
                "duration": 0.1999999999999993,
                "tempo": 120.0
            },
            {
                "start_time": 8.602272727272727,
                "end_time": 8.802272727272728,
                "pitch": 48,
                "velocity": 80,
                "duration": 0.20000000000000107,
                "tempo": 120.0
            },
            {
                "start_time": 8.802272727272728,
                "end_time": 8.997727272727273,
                "pitch": 36,
                "velocity": 80,
                "duration": 0.19545454545454533,
                "tempo": 120.0
            },
            {
                "start_time": 8.997727272727273,
                "end_time": 9.193181818181818,
                "pitch": 48,
                "velocity": 80,
                "duration": 0.19545454545454533,
                "tempo": 120.0
            },
            {
                "start_time": 9.193181818181818,
                "end_time": 9.395454545454545,
                "pitch": 36,
                "velocity": 80,
                "duration": 0.20227272727272627,
                "tempo": 120.0
            },
            {
                "start_time": 9.395454545454545,
                "end_time": 9.595454545454546,
                "pitch": 48,
                "velocity": 80,
                "duration": 0.20000000000000107,
                "tempo": 120.0
            },
            {
                "start_time": 9.595454545454546,
                "end_time": 9.797727272727272,
                "pitch": 36,
                "velocity": 80,
                "duration": 0.20227272727272627,
                "tempo": 120.0
            },
            {
                "start_time": 9.797727272727272,
                "end_time": 9.997727272727273,
                "pitch": 48,
                "velocity": 80,
                "duration": 0.20000000000000107,
                "tempo": 120.0
            },
            {
                "start_time": 9.997727272727273,
                "end_time": 10.197727272727272,
                "pitch": 36,
                "velocity": 80,
                "duration": 0.1999999999999993,
                "tempo": 120.0
            },
            {
                "start_time": 10.197727272727272,
                "end_time": 10.397727272727272,
                "pitch": 48,
                "velocity": 80,
                "duration": 0.1999999999999993,
                "tempo": 120.0
            },
            {
                "start_time": 10.397727272727272,
                "end_time": 10.6,
                "pitch": 36,
                "velocity": 80,
                "duration": 0.20227272727272805,
                "tempo": 120.0
            },
            {
                "start_time": 10.6,
                "end_time": 10.799999999999999,
                "pitch": 48,
                "velocity": 80,
                "duration": 0.1999999999999993,
                "tempo": 120.0
            },
            {
                "start_time": 10.799999999999999,
                "end_time": 11.0,
                "pitch": 36,
                "velocity": 80,
                "duration": 0.20000000000000107,
                "tempo": 120.0
            },
            {
                "start_time": 11.0,
                "end_time": 11.2,
                "pitch": 48,
                "velocity": 80,
                "duration": 0.1999999999999993,
                "tempo": 120.0
            },
            {
                "start_time": 11.2,
                "end_time": 11.399999999999999,
                "pitch": 36,
                "velocity": 80,
                "duration": 0.1999999999999993,
                "tempo": 120.0
            },
            {
                "start_time": 11.399999999999999,
                "end_time": 11.6,
                "pitch": 48,
                "velocity": 80,
                "duration": 0.20000000000000107,
                "tempo": 120.0
            },
            {
                "start_time": 11.6,
                "end_time": 11.802272727272726,
                "pitch": 36,
                "velocity": 80,
                "duration": 0.20227272727272627,
                "tempo": 120.0
            },
            {
                "start_time": 11.802272727272726,
                "end_time": 12.002272727272727,
                "pitch": 48,
                "velocity": 80,
                "duration": 0.20000000000000107,
                "tempo": 120.0
            },
            {
                "start_time": 12.002272727272727,
                "end_time": 12.197727272727272,
                "pitch": 36,
                "velocity": 80,
                "duration": 0.19545454545454533,
                "tempo": 120.0
            },
            {
                "start_time": 12.197727272727272,
                "end_time": 12.393181818181818,
                "pitch": 48,
                "velocity": 80,
                "duration": 0.19545454545454533,
                "tempo": 120.0
            },
            {
                "start_time": 12.393181818181818,
                "end_time": 12.593181818181817,
                "pitch": 36,
                "velocity": 80,
                "duration": 0.1999999999999993,
                "tempo": 120.0
            },
            {
                "start_time": 12.593181818181817,
                "end_time": 12.795454545454545,
                "pitch": 48,
                "velocity": 80,
                "duration": 0.20227272727272805,
                "tempo": 120.0
            }
        ]
    }
}