{
    "track_id": "07 Get the Luck",
    "mood": "angry",
    "instruments": {
        "Trumpet": [
            {
                "start_time": 0.03409090909090909,
                "end_time": 1.2431818181818182,
                "pitch": 38,
                "velocity": 80,
                "duration": 1.209090909090909,
                "tempo": 120.0
            },
            {
                "start_time": 1.2454545454545454,
                "end_time": 1.6545454545454545,
                "pitch": 41,
                "velocity": 80,
                "duration": 0.40909090909090917,
                "tempo": 120.0
            },
            {
                "start_time": 1.6568181818181817,
                "end_time": 2.0568181818181817,
                "pitch": 40,
                "velocity": 80,
                "duration": 0.3999999999999999,
                "tempo": 120.0
            },
            {
                "start_time": 2.0568181818181817,
                "end_time": 2.870454545454545,
                "pitch": 45,
                "velocity": 80,
                "duration": 0.8136363636363635,
                "tempo": 120.0
            },
            {
                "start_time": 2.870454545454545,
                "end_time": 3.6727272727272724,
                "pitch": 43,
                "velocity": 80,
                "duration": 0.8022727272727272,
                "tempo": 120.0
            },
            {
                "start_time": 3.675,
                "end_time": 7.259090909090909,
                "pitch": 40,
                "velocity": 80,
                "duration": 3.584090909090909,
                "tempo": 120.0
            },
            {
                "start_time": 7.259090909090909,
                "end_time": 7.668181818181818,
                "pitch": 64,
                "velocity": 64,
                "duration": 0.40909090909090917,
                "tempo": 120.0
            },
            {
                "start_time": 7.670454545454545,
                "end_time": 8.068181818181818,
                "pitch": 62,
                "velocity": 64,
                "duration": 0.3977272727272734,
                "tempo": 120.0
            },
            {
                "start_time": 8.270454545454545,
                "end_time": 8.470454545454546,
                "pitch": 62,
                "velocity": 64,
                "duration": 0.20000000000000107,
                "tempo": 120.0
            },
            {
                "start_time": 8.672727272727272,
                "end_time": 9.275,
                "pitch": 62,
                "velocity": 64,
                "duration": 0.6022727272727284,
                "tempo": 120.0
            },
            {
                "start_time": 9.277272727272727,
                "end_time": 9.686363636363636,
                "pitch": 60,
                "velocity": 64,
                "duration": 0.4090909090909083,
                "tempo": 120.0
            },
            {
                "start_time": 9.884090909090908,
                "end_time": 10.286363636363635,
                "pitch": 60,
                "velocity": 64,
                "duration": 0.40227272727272734,
                "tempo": 120.0
            },
            {
                "start_time": 10.286363636363635,
                "end_time": 10.49090909090909,
                "pitch": 59,
                "velocity": 64,
                "duration": 0.20454545454545503,
                "tempo": 120.0
            },
            {
                "start_time": 10.493181818181817,
                "end_time": 13.709090909090909,
                "pitch": 55,
                "velocity": 64,
                "duration": 3.2159090909090917,
                "tempo": 120.0
            },
            {
                "start_time": 13.711363636363636,
                "end_time": 14.111363636363636,
                "pitch": 64,
                "velocity": 64,
                "duration": 0.40000000000000036,
                "tempo": 120.0
            },
            {
                "start_time": 14.113636363636363,
                "end_time": 14.51590909090909,
                "pitch": 62,
                "velocity": 64,
                "duration": 0.40227272727272734,
                "tempo": 120.0
            },
            {
                "start_time": 14.71590909090909,
                "end_time": 14.915909090909091,
                "pitch": 62,
                "velocity": 64,
                "duration": 0.20000000000000107,
                "tempo": 120.0
            },
            {
                "start_time": 15.118181818181817,
                "end_time": 15.722727272727273,
                "pitch": 62,
                "velocity": 64,
                "duration": 0.6045454545454554,
                "tempo": 120.0
            },
            {
                "start_time": 15.722727272727273,
                "end_time": 16.125,
                "pitch": 60,
                "velocity": 64,
                "duration": 0.40227272727272734,
                "tempo": 120.0
            },
            {
                "start_time": 16.327272727272728,
                "end_time": 16.729545454545455,
                "pitch": 60,
                "velocity": 64,
                "duration": 0.40227272727272734,
                "tempo": 120.0
            },
            {
                "start_time": 16.729545454545455,
                "end_time": 16.929545454545455,
                "pitch": 59,
                "velocity": 64,
                "duration": 0.1999999999999993,
                "tempo": 120.0
            },
            {
                "start_time": 16.929545454545455,
                "end_time": 20.154545454545453,
                "pitch": 55,
                "velocity": 64,
                "duration": 3.224999999999998,
                "tempo": 120.0
            },
            {
                "start_time": 20.15681818181818,
                "end_time": 20.354545454545452,
                "pitch": 60,
                "velocity": 64,
                "duration": 0.19772727272727053,
                "tempo": 120.0
            },
            {
                "start_time": 20.35681818181818,
                "end_time": 20.554545454545455,
                "pitch": 59,
                "velocity": 64,
                "duration": 0.19772727272727408,
                "tempo": 120.0
            },
            {
                "start_time": 20.55681818181818,
                "end_time": 20.75681818181818,
                "pitch": 62,
                "velocity": 64,
                "duration": 0.1999999999999993,
                "tempo": 120.0
            },
            {
                "start_time": 20.75681818181818,
                "end_time": 21.159090909090907,
                "pitch": 60,
                "velocity": 64,
                "duration": 0.40227272727272734,
                "tempo": 120.0
            },
            {
                "start_time": 21.159090909090907,
                "end_time": 21.763636363636362,
                "pitch": 59,
                "velocity": 64,
                "duration": 0.6045454545454554,
                "tempo": 120.0
            },
            {
                "start_time": 21.763636363636362,
                "end_time": 21.961363636363636,
                "pitch": 60,
                "velocity": 64,
                "duration": 0.19772727272727408,
                "tempo": 120.0
            },
            {
                "start_time": 21.96363636363636,
                "end_time": 22.163636363636364,
                "pitch": 59,
                "velocity": 64,
                "duration": 0.20000000000000284,
                "tempo": 120.0
            },
            {
                "start_time": 22.163636363636364,
                "end_time": 22.363636363636363,
                "pitch": 62,
                "velocity": 64,
                "duration": 0.1999999999999993,
                "tempo": 120.0
            },
            {
                "start_time": 22.363636363636363,
                "end_time": 22.76590909090909,
                "pitch": 60,
                "velocity": 64,
                "duration": 0.40227272727272734,
                "tempo": 120.0
            },
            {
                "start_time": 22.76590909090909,
                "end_time": 23.368181818181817,
                "pitch": 59,
                "velocity": 64,
                "duration": 0.6022727272727266,
                "tempo": 120.0
            },
            {
                "start_time": 23.368181818181817,
                "end_time": 24.974999999999998,
                "pitch": 64,
                "velocity": 64,
                "duration": 1.6068181818181806,
                "tempo": 120.0
            },
            {
                "start_time": 24.974999999999998,
                "end_time": 25.577272727272724,
                "pitch": 62,
                "velocity": 64,
                "duration": 0.6022727272727266,
                "tempo": 120.0
            },
            {
                "start_time": 25.577272727272724,
                "end_time": 25.979545454545452,
                "pitch": 60,
                "velocity": 64,
                "duration": 0.40227272727272734,
                "tempo": 120.0
            },
            {
                "start_time": 25.979545454545452,
                "end_time": 26.59090909090909,
                "pitch": 59,
                "velocity": 64,
                "duration": 0.6113636363636381,
                "tempo": 120.0
            },
            {
                "start_time": 26.59090909090909,
                "end_time": 26.79090909090909,
                "pitch": 60,
                "velocity": 64,
                "duration": 0.1999999999999993,
                "tempo": 120.0
            },
            {
                "start_time": 26.79090909090909,
                "end_time": 26.99090909090909,
                "pitch": 59,
                "velocity": 64,
                "duration": 0.1999999999999993,
                "tempo": 120.0
            },
            {
                "start_time": 26.99090909090909,
                "end_time": 27.193181818181817,
                "pitch": 62,
                "velocity": 64,
                "duration": 0.20227272727272805,
                "tempo": 120.0
            },
            {
                "start_time": 27.193181818181817,
                "end_time": 27.593181818181815,
                "pitch": 60,
                "velocity": 64,
                "duration": 0.3999999999999986,
                "tempo": 120.0
            },
            {
                "start_time": 27.595454545454544,
                "end_time": 28.19772727272727,
                "pitch": 59,
                "velocity": 64,
                "duration": 0.6022727272727266,
                "tempo": 120.0
            },
            {
                "start_time": 28.19772727272727,
                "end_time": 28.39772727272727,
                "pitch": 60,
                "velocity": 64,
                "duration": 0.1999999999999993,
                "tempo": 120.0
            },
            {
                "start_time": 28.39772727272727,
                "end_time": 28.597727272727273,
                "pitch": 59,
                "velocity": 64,
                "duration": 0.20000000000000284,
                "tempo": 120.0
            },
            {
                "start_time": 28.599999999999998,
                "end_time": 28.797727272727272,
                "pitch": 62,
                "velocity": 64,
                "duration": 0.19772727272727408,
                "tempo": 120.0
            },
            {
                "start_time": 28.799999999999997,
                "end_time": 29.2,
                "pitch": 60,
                "velocity": 64,
                "duration": 0.40000000000000213,
                "tempo": 120.0
            },
            {
                "start_time": 29.202272727272724,
                "end_time": 29.802272727272726,
                "pitch": 59,
                "velocity": 64,
                "duration": 0.6000000000000014,
                "tempo": 120.0
            },
            {
                "start_time": 29.804545454545455,
                "end_time": 31.409090909090907,
                "pitch": 64,
                "velocity": 64,
                "duration": 1.6045454545454518,
                "tempo": 120.0
            },
            {
                "start_time": 31.411363636363635,
                "end_time": 32.01136363636363,
                "pitch": 62,
                "velocity": 64,
                "duration": 0.5999999999999979,
                "tempo": 120.0
            },
            {
                "start_time": 32.013636363636365,
                "end_time": 32.413636363636364,
                "pitch": 60,
                "velocity": 64,
                "duration": 0.3999999999999986,
                "tempo": 120.0
            },
            {
                "start_time": 32.41590909090909,
                "end_time": 33.025,
                "pitch": 59,
                "velocity": 64,
                "duration": 0.6090909090909093,
                "tempo": 120.0
            },
            {
                "start_time": 33.027272727272724,
                "end_time": 33.62272727272727,
                "pitch": 69,
                "velocity": 64,
                "duration": 0.5954545454545439,
                "tempo": 120.0
            },
            {
                "start_time": 33.625,
                "end_time": 34.63181818181818,
                "pitch": 64,
                "velocity": 64,
                "duration": 1.0068181818181827,
                "tempo": 120.0
            },
            {
                "start_time": 34.63409090909091,
                "end_time": 34.82954545454545,
                "pitch": 62,
                "velocity": 64,
                "duration": 0.19545454545454533,
                "tempo": 120.0
            },
            {
                "start_time": 34.82954545454545,
                "end_time": 35.025,
                "pitch": 64,
                "velocity": 64,
                "duration": 0.19545454545454533,
                "tempo": 120.0
            },
            {
                "start_time": 35.025,
                "end_time": 35.22954545454545,
                "pitch": 65,
                "velocity": 64,
                "duration": 0.20454545454545325,
                "tempo": 120.0
            },
            {
                "start_time": 35.23181818181818,
                "end_time": 35.836363636363636,
                "pitch": 64,
                "velocity": 64,
                "duration": 0.6045454545454589,
                "tempo": 120.0
            },
            {
                "start_time": 35.83863636363636,
                "end_time": 36.23863636363636,
                "pitch": 59,
                "velocity": 64,
                "duration": 0.3999999999999986,
                "tempo": 120.0
            },
            {
                "start_time": 36.23863636363636,
                "end_time": 37.84318181818182,
                "pitch": 60,
                "velocity": 64,
                "duration": 1.604545454545459,
                "tempo": 120.0
            },
            {
                "start_time": 37.84318181818182,
                "end_time": 38.44318181818181,
                "pitch": 60,
                "velocity": 64,
                "duration": 0.5999999999999943,
                "tempo": 120.0
            },
            {
                "start_time": 38.44318181818181,
                "end_time": 39.043181818181814,
                "pitch": 64,
                "velocity": 64,
                "duration": 0.6000000000000014,
                "tempo": 120.0
            },
            {
                "start_time": 39.04545454545455,
                "end_time": 39.44772727272727,
                "pitch": 67,
                "velocity": 64,
                "duration": 0.4022727272727238,
                "tempo": 120.0
            },
            {
                "start_time": 39.44772727272727,
                "end_time": 41.05,
                "pitch": 69,
                "velocity": 64,
                "duration": 1.6022727272727266,
                "tempo": 120.0
            },
            {
                "start_time": 41.05,
                "end_time": 41.25,
                "pitch": 69,
                "velocity": 64,
                "duration": 0.20000000000000284,
                "tempo": 120.0
            },
            {
                "start_time": 41.252272727272725,
                "end_time": 41.45227272727273,
                "pitch": 71,
                "velocity": 64,
                "duration": 0.20000000000000284,
                "tempo": 120.0
            },
            {
                "start_time": 41.45227272727273,
                "end_time": 41.652272727272724,
                "pitch": 72,
                "velocity": 64,
                "duration": 0.19999999999999574,
                "tempo": 120.0
            },
            {
                "start_time": 41.65454545454545,
                "end_time": 42.252272727272725,
                "pitch": 71,
                "velocity": 64,
                "duration": 0.5977272727272762,
                "tempo": 120.0
            },
            {
                "start_time": 42.25454545454545,
                "end_time": 42.66590909090909,
                "pitch": 66,
                "velocity": 64,
                "duration": 0.4113636363636388,
                "tempo": 120.0
            },
            {
                "start_time": 42.66590909090909,
                "end_time": 44.06590909090909,
                "pitch": 68,
                "velocity": 64,
                "duration": 1.3999999999999986,
                "tempo": 120.0
            },
            {
                "start_time": 44.06818181818181,
                "end_time": 44.46818181818182,
                "pitch": 71,
                "velocity": 64,
                "duration": 0.4000000000000057,
                "tempo": 120.0
            },
            {
                "start_time": 45.87272727272727,
                "end_time": 45.97272727272727,
                "pitch": 64,
                "velocity": 80,
                "duration": 0.10000000000000142,
                "tempo": 120.0
            },
            {
                "start_time": 45.97272727272727,
                "end_time": 46.07272727272727,
                "pitch": 64,
                "velocity": 80,
                "duration": 0.10000000000000142,
                "tempo": 120.0
            },
            {
                "start_time": 46.07272727272727,
                "end_time": 46.17272727272727,
                "pitch": 64,
                "velocity": 80,
                "duration": 0.10000000000000142,
                "tempo": 120.0
            },
            {
                "start_time": 46.27272727272727,
                "end_time": 46.47272727272727,
                "pitch": 65,
                "velocity": 80,
                "duration": 0.19999999999999574,
                "tempo": 120.0
            },
            {
                "start_time": 46.474999999999994,
                "end_time": 46.675,
                "pitch": 64,
                "velocity": 80,
                "duration": 0.20000000000000284,
                "tempo": 120.0
            },
            {
                "start_time": 46.675,
                "end_time": 46.875,
                "pitch": 62,
                "velocity": 80,
                "duration": 0.20000000000000284,
                "tempo": 120.0
            },
            {
                "start_time": 46.877272727272725,
                "end_time": 47.074999999999996,
                "pitch": 59,
                "velocity": 80,
                "duration": 0.19772727272727053,
                "tempo": 120.0
            },
            {
                "start_time": 47.277272727272724,
                "end_time": 48.277272727272724,
                "pitch": 64,
                "velocity": 80,
                "duration": 1.0,
                "tempo": 120.0
            },
            {
                "start_time": 48.277272727272724,
                "end_time": 48.679545454545455,
                "pitch": 52,
                "velocity": 80,
                "duration": 0.4022727272727309,
                "tempo": 120.0
            },
            {
                "start_time": 48.68181818181818,
                "end_time": 49.08181818181818,
                "pitch": 50,
                "velocity": 80,
                "duration": 0.3999999999999986,
                "tempo": 120.0
            },
            {
                "start_time": 49.08181818181818,
                "end_time": 49.18181818181818,
                "pitch": 64,
                "velocity": 80,
                "duration": 0.10000000000000142,
                "tempo": 120.0
            },
            {
                "start_time": 49.18181818181818,
                "end_time": 49.28181818181818,
                "pitch": 64,
                "velocity": 80,
                "duration": 0.10000000000000142,
                "tempo": 120.0
            },
            {
                "start_time": 49.28181818181818,
                "end_time": 49.38181818181818,
                "pitch": 64,
                "velocity": 80,
                "duration": 0.10000000000000142,
                "tempo": 120.0
            },
            {
                "start_time": 49.48181818181818,
                "end_time": 49.68636363636364,
                "pitch": 65,
                "velocity": 80,
                "duration": 0.20454545454546036,
                "tempo": 120.0
            },
            {
                "start_time": 49.68863636363636,
                "end_time": 49.893181818181816,
                "pitch": 64,
                "velocity": 80,
                "duration": 0.20454545454545325,
                "tempo": 120.0
            },
            {
                "start_time": 49.893181818181816,
                "end_time": 50.08863636363636,
                "pitch": 62,
                "velocity": 80,
                "duration": 0.19545454545454533,
                "tempo": 120.0
            },
            {
                "start_time": 50.090909090909086,
                "end_time": 50.28636363636363,
                "pitch": 59,
                "velocity": 80,
                "duration": 0.19545454545454533,
                "tempo": 120.0
            },
            {
                "start_time": 50.48863636363636,
                "end_time": 51.5,
                "pitch": 60,
                "velocity": 80,
                "duration": 1.0113636363636402,
                "tempo": 120.0
            },
            {
                "start_time": 51.502272727272725,
                "end_time": 51.893181818181816,
                "pitch": 48,
                "velocity": 80,
                "duration": 0.39090909090909065,
                "tempo": 120.0
            },
            {
                "start_time": 51.893181818181816,
                "end_time": 52.304545454545455,
                "pitch": 50,
                "velocity": 80,
                "duration": 0.4113636363636388,
                "tempo": 120.0
            },
            {
                "start_time": 52.30681818181818,
                "end_time": 52.40454545454545,
                "pitch": 64,
                "velocity": 80,
                "duration": 0.09772727272726911,
                "tempo": 120.0
            },
            {
                "start_time": 52.40681818181818,
                "end_time": 52.50454545454545,
                "pitch": 64,
                "velocity": 80,
                "duration": 0.09772727272726911,
                "tempo": 120.0
            },
            {
                "start_time": 52.50681818181818,
                "end_time": 52.60454545454545,
                "pitch": 64,
                "velocity": 80,
                "duration": 0.09772727272726911,
                "tempo": 120.0
            },
            {
                "start_time": 52.70681818181818,
                "end_time": 52.90454545454545,
                "pitch": 65,
                "velocity": 80,
                "duration": 0.19772727272727053,
                "tempo": 120.0
            },
            {
                "start_time": 52.90681818181818,
                "end_time": 53.10681818181818,
                "pitch": 64,
                "velocity": 80,
                "duration": 0.19999999999999574,
                "tempo": 120.0
            },
            {
                "start_time": 53.10681818181818,
                "end_time": 53.30681818181818,
                "pitch": 62,
                "velocity": 80,
                "duration": 0.20000000000000284,
                "tempo": 120.0
            },
            {
                "start_time": 53.30681818181818,
                "end_time": 53.50681818181818,
                "pitch": 59,
                "velocity": 80,
                "duration": 0.20000000000000284,
                "tempo": 120.0
            },
            {
                "start_time": 53.70681818181818,
                "end_time": 54.711363636363636,
                "pitch": 64,
                "velocity": 80,
                "duration": 1.0045454545454575,
                "tempo": 120.0
            },
            {
                "start_time": 54.711363636363636,
                "end_time": 55.111363636363635,
                "pitch": 52,
                "velocity": 80,
                "duration": 0.3999999999999986,
                "tempo": 120.0
            },
            {
                "start_time": 55.111363636363635,
                "end_time": 55.51136363636363,
                "pitch": 50,
                "velocity": 80,
                "duration": 0.3999999999999986,
                "tempo": 120.0
            },
            {
                "start_time": 55.51363636363636,
                "end_time": 55.611363636363635,
                "pitch": 64,
                "velocity": 80,
                "duration": 0.09772727272727622,
                "tempo": 120.0
            },
            {
                "start_time": 55.61363636363636,
                "end_time": 55.711363636363636,
                "pitch": 64,
                "velocity": 80,
                "duration": 0.09772727272727622,
                "tempo": 120.0
            },
            {
                "start_time": 55.71363636363636,
                "end_time": 55.81136363636363,
                "pitch": 64,
                "velocity": 80,
                "duration": 0.09772727272726911,
                "tempo": 120.0
            },
            {
                "start_time": 55.913636363636364,
                "end_time": 56.11363636363636,
                "pitch": 65,
                "velocity": 80,
                "duration": 0.19999999999999574,
                "tempo": 120.0
            },
            {
                "start_time": 56.11363636363636,
                "end_time": 56.31590909090909,
                "pitch": 64,
                "velocity": 80,
                "duration": 0.20227272727272805,
                "tempo": 120.0
            },
            {
                "start_time": 56.31590909090909,
                "end_time": 56.51590909090909,
                "pitch": 62,
                "velocity": 80,
                "duration": 0.20000000000000284,
                "tempo": 120.0
            },
            {
                "start_time": 56.51590909090909,
                "end_time": 56.715909090909086,
                "pitch": 59,
                "velocity": 80,
                "duration": 0.19999999999999574,
                "tempo": 120.0
            },
            {
                "start_time": 56.918181818181814,
                "end_time": 58.724999999999994,
                "pitch": 60,
                "velocity": 80,
                "duration": 1.8068181818181799,
                "tempo": 120.0
            },
            {
                "start_time": 58.72954545454545,
                "end_time": 58.82727272727272,
                "pitch": 64,
                "velocity": 64,
                "duration": 0.09772727272726911,
                "tempo": 120.0
            }
        ],
        "Acoustic Bass": [
            {
                "start_time": 7.263636363636364,
                "end_time": 7.463636363636363,
                "pitch": 33,
                "velocity": 80,
                "duration": 0.1999999999999993,
                "tempo": 120.0
            },
            {
                "start_time": 7.670454545454545,
                "end_time": 7.870454545454545,
                "pitch": 33,
                "velocity": 80,
                "duration": 0.20000000000000018,
                "tempo": 120.0
            },
            {
                "start_time": 8.070454545454545,
                "end_time": 8.270454545454545,
                "pitch": 33,
                "velocity": 80,
                "duration": 0.1999999999999993,
                "tempo": 120.0
            },
            {
                "start_time": 8.470454545454546,
                "end_time": 8.672727272727272,
                "pitch": 33,
                "velocity": 80,
                "duration": 0.20227272727272627,
                "tempo": 120.0
            },
            {
                "start_time": 8.875,
                "end_time": 9.075,
                "pitch": 33,
                "velocity": 80,
                "duration": 0.1999999999999993,
                "tempo": 120.0
            },
            {
                "start_time": 9.279545454545454,
                "end_time": 9.48181818181818,
                "pitch": 33,
                "velocity": 80,
                "duration": 0.20227272727272627,
                "tempo": 120.0
            },
            {
                "start_time": 9.688636363636363,
                "end_time": 9.886363636363637,
                "pitch": 33,
                "velocity": 80,
                "duration": 0.19772727272727408,
                "tempo": 120.0
            },
            {
                "start_time": 10.081818181818182,
                "end_time": 10.288636363636364,
                "pitch": 33,
                "velocity": 80,
                "duration": 0.206818181818182,
                "tempo": 120.0
            },
            {
                "start_time": 10.493181818181817,
                "end_time": 10.688636363636363,
                "pitch": 28,
                "velocity": 80,
                "duration": 0.19545454545454533,
                "tempo": 120.0
            },
            {
                "start_time": 10.884090909090908,
                "end_time": 11.09090909090909,
                "pitch": 28,
                "velocity": 80,
                "duration": 0.206818181818182,
                "tempo": 120.0
            },
            {
                "start_time": 11.295454545454545,
                "end_time": 11.49090909090909,
                "pitch": 28,
                "velocity": 80,
                "duration": 0.19545454545454533,
                "tempo": 120.0
            },
            {
                "start_time": 11.688636363636363,
                "end_time": 11.893181818181818,
                "pitch": 28,
                "velocity": 80,
                "duration": 0.20454545454545503,
                "tempo": 120.0
            },
            {
                "start_time": 12.1,
                "end_time": 12.299999999999999,
                "pitch": 28,
                "velocity": 80,
                "duration": 0.1999999999999993,
                "tempo": 120.0
            },
            {
                "start_time": 12.502272727272727,
                "end_time": 12.702272727272726,
                "pitch": 28,
                "velocity": 80,
                "duration": 0.1999999999999993,
                "tempo": 120.0
            },
            {
                "start_time": 12.904545454545454,
                "end_time": 13.104545454545454,
                "pitch": 28,
                "velocity": 80,
                "duration": 0.1999999999999993,
                "tempo": 120.0
            },
            {
                "start_time": 13.306818181818182,
                "end_time": 13.509090909090908,
                "pitch": 28,
                "velocity": 80,
                "duration": 0.20227272727272627,
                "tempo": 120.0
            },
            {
                "start_time": 13.713636363636363,
                "end_time": 13.911363636363635,
                "pitch": 33,
                "velocity": 80,
                "duration": 0.1977272727272723,
                "tempo": 120.0
            },
            {
                "start_time": 14.11590909090909,
                "end_time": 14.313636363636363,
                "pitch": 33,
                "velocity": 80,
                "duration": 0.1977272727272723,
                "tempo": 120.0
            },
            {
                "start_time": 14.51590909090909,
                "end_time": 14.718181818181817,
                "pitch": 33,
                "velocity": 80,
                "duration": 0.20227272727272627,
                "tempo": 120.0
            },
            {
                "start_time": 14.918181818181818,
                "end_time": 15.118181818181817,
                "pitch": 33,
                "velocity": 80,
                "duration": 0.1999999999999993,
                "tempo": 120.0
            },
            {
                "start_time": 15.320454545454545,
                "end_time": 15.520454545454545,
                "pitch": 33,
                "velocity": 80,
                "duration": 0.1999999999999993,
                "tempo": 120.0
            },
            {
                "start_time": 15.725,
                "end_time": 15.924999999999999,
                "pitch": 33,
                "velocity": 80,
                "duration": 0.1999999999999993,
                "tempo": 120.0
            },
            {
                "start_time": 16.127272727272725,
                "end_time": 16.329545454545453,
                "pitch": 33,
                "velocity": 80,
                "duration": 0.20227272727272805,
                "tempo": 120.0
            },
            {
                "start_time": 16.529545454545453,
                "end_time": 16.73181818181818,
                "pitch": 33,
                "velocity": 80,
                "duration": 0.20227272727272805,
                "tempo": 120.0
            },
            {
                "start_time": 16.93181818181818,
                "end_time": 17.131818181818183,
                "pitch": 28,
                "velocity": 80,
                "duration": 0.20000000000000284,
                "tempo": 120.0
            },
            {
                "start_time": 17.334090909090907,
                "end_time": 17.538636363636364,
                "pitch": 28,
                "velocity": 80,
                "duration": 0.2045454545454568,
                "tempo": 120.0
            },
            {
                "start_time": 17.745454545454546,
                "end_time": 17.94090909090909,
                "pitch": 28,
                "velocity": 80,
                "duration": 0.19545454545454533,
                "tempo": 120.0
            },
            {
                "start_time": 18.138636363636362,
                "end_time": 18.34318181818182,
                "pitch": 28,
                "velocity": 80,
                "duration": 0.2045454545454568,
                "tempo": 120.0
            },
            {
                "start_time": 18.547727272727272,
                "end_time": 18.743181818181817,
                "pitch": 28,
                "velocity": 80,
                "duration": 0.19545454545454533,
                "tempo": 120.0
            },
            {
                "start_time": 18.94090909090909,
                "end_time": 19.145454545454545,
                "pitch": 28,
                "velocity": 80,
                "duration": 0.20454545454545325,
                "tempo": 120.0
            },
            {
                "start_time": 19.352272727272727,
                "end_time": 19.554545454545455,
                "pitch": 28,
                "velocity": 80,
                "duration": 0.20227272727272805,
                "tempo": 120.0
            },
            {
                "start_time": 19.75681818181818,
                "end_time": 19.954545454545453,
                "pitch": 28,
                "velocity": 80,
                "duration": 0.19772727272727408,
                "tempo": 120.0
            },
            {
                "start_time": 20.159090909090907,
                "end_time": 20.35681818181818,
                "pitch": 33,
                "velocity": 80,
                "duration": 0.19772727272727408,
                "tempo": 120.0
            },
            {
                "start_time": 20.55681818181818,
                "end_time": 20.759090909090908,
                "pitch": 33,
                "velocity": 80,
                "duration": 0.20227272727272805,
                "tempo": 120.0
            },
            {
                "start_time": 20.959090909090907,
                "end_time": 21.161363636363635,
                "pitch": 33,
                "velocity": 80,
                "duration": 0.20227272727272805,
                "tempo": 120.0
            },
            {
                "start_time": 21.361363636363635,
                "end_time": 21.561363636363634,
                "pitch": 33,
                "velocity": 80,
                "duration": 0.1999999999999993,
                "tempo": 120.0
            },
            {
                "start_time": 21.76590909090909,
                "end_time": 21.96363636363636,
                "pitch": 31,
                "velocity": 80,
                "duration": 0.19772727272727053,
                "tempo": 120.0
            },
            {
                "start_time": 22.163636363636364,
                "end_time": 22.363636363636363,
                "pitch": 31,
                "velocity": 80,
                "duration": 0.1999999999999993,
                "tempo": 120.0
            },
            {
                "start_time": 22.56590909090909,
                "end_time": 22.768181818181816,
                "pitch": 31,
                "velocity": 80,
                "duration": 0.2022727272727245,
                "tempo": 120.0
            },
            {
                "start_time": 22.96818181818182,
                "end_time": 23.168181818181818,
                "pitch": 31,
                "velocity": 80,
                "duration": 0.1999999999999993,
                "tempo": 120.0
            },
            {
                "start_time": 23.370454545454546,
                "end_time": 23.570454545454545,
                "pitch": 30,
                "velocity": 80,
                "duration": 0.1999999999999993,
                "tempo": 120.0
            },
            {
                "start_time": 23.77272727272727,
                "end_time": 23.970454545454544,
                "pitch": 30,
                "velocity": 80,
                "duration": 0.19772727272727408,
                "tempo": 120.0
            },
            {
                "start_time": 24.172727272727272,
                "end_time": 24.37272727272727,
                "pitch": 30,
                "velocity": 80,
                "duration": 0.1999999999999993,
                "tempo": 120.0
            },
            {
                "start_time": 24.57272727272727,
                "end_time": 24.77272727272727,
                "pitch": 30,
                "velocity": 80,
                "duration": 0.1999999999999993,
                "tempo": 120.0
            },
            {
                "start_time": 24.977272727272727,
                "end_time": 25.174999999999997,
                "pitch": 29,
                "velocity": 80,
                "duration": 0.19772727272727053,
                "tempo": 120.0
            },
            {
                "start_time": 25.377272727272725,
                "end_time": 25.577272727272724,
                "pitch": 29,
                "velocity": 80,
                "duration": 0.1999999999999993,
                "tempo": 120.0
            },
            {
                "start_time": 25.779545454545453,
                "end_time": 25.98181818181818,
                "pitch": 28,
                "velocity": 80,
                "duration": 0.20227272727272805,
                "tempo": 120.0
            },
            {
                "start_time": 26.18181818181818,
                "end_time": 26.386363636363637,
                "pitch": 28,
                "velocity": 80,
                "duration": 0.2045454545454568,
                "tempo": 120.0
            },
            {
                "start_time": 26.593181818181815,
                "end_time": 26.79090909090909,
                "pitch": 33,
                "velocity": 80,
                "duration": 0.19772727272727408,
                "tempo": 120.0
            },
            {
                "start_time": 26.993181818181817,
                "end_time": 27.193181818181817,
                "pitch": 33,
                "velocity": 80,
                "duration": 0.1999999999999993,
                "tempo": 120.0
            },
            {
                "start_time": 27.395454545454545,
                "end_time": 27.595454545454544,
                "pitch": 33,
                "velocity": 80,
                "duration": 0.1999999999999993,
                "tempo": 120.0
            },
            {
                "start_time": 27.797727272727272,
                "end_time": 27.99772727272727,
                "pitch": 33,
                "velocity": 80,
                "duration": 0.1999999999999993,
                "tempo": 120.0
            },
            {
                "start_time": 28.2,
                "end_time": 28.4,
                "pitch": 31,
                "velocity": 80,
                "duration": 0.1999999999999993,
                "tempo": 120.0
            },
            {
                "start_time": 28.599999999999998,
                "end_time": 28.799999999999997,
                "pitch": 31,
                "velocity": 80,
                "duration": 0.1999999999999993,
                "tempo": 120.0
            },
            {
                "start_time": 29.0,
                "end_time": 29.202272727272724,
                "pitch": 31,
                "velocity": 80,
                "duration": 0.2022727272727245,
                "tempo": 120.0
            },
            {
                "start_time": 29.404545454545453,
                "end_time": 29.602272727272727,
                "pitch": 31,
                "velocity": 80,
                "duration": 0.19772727272727408,
                "tempo": 120.0
            },
            {
                "start_time": 29.804545454545455,
                "end_time": 30.004545454545454,
                "pitch": 30,
                "velocity": 80,
                "duration": 0.1999999999999993,
                "tempo": 120.0
            },
            {
                "start_time": 30.206818181818182,
                "end_time": 30.40681818181818,
                "pitch": 30,
                "velocity": 80,
                "duration": 0.1999999999999993,
                "tempo": 120.0
            },
            {
                "start_time": 30.60681818181818,
                "end_time": 30.80681818181818,
                "pitch": 30,
                "velocity": 80,
                "duration": 0.1999999999999993,
                "tempo": 120.0
            },
            {
                "start_time": 31.009090909090908,
                "end_time": 31.209090909090907,
                "pitch": 30,
                "velocity": 80,
                "duration": 0.1999999999999993,
                "tempo": 120.0
            },
            {
                "start_time": 31.41363636363636,
                "end_time": 31.611363636363635,
                "pitch": 29,
                "velocity": 80,
                "duration": 0.19772727272727408,
                "tempo": 120.0
            },
            {
                "start_time": 31.811363636363634,
                "end_time": 32.013636363636365,
                "pitch": 29,
                "velocity": 80,
                "duration": 0.2022727272727316,
                "tempo": 120.0
            },
            {
                "start_time": 32.215909090909086,
                "end_time": 32.41590909090909,
                "pitch": 28,
                "velocity": 80,
                "duration": 0.20000000000000284,
                "tempo": 120.0
            },
            {
                "start_time": 32.61590909090909,
                "end_time": 32.820454545454545,
                "pitch": 28,
                "velocity": 80,
                "duration": 0.20454545454545325,
                "tempo": 120.0
            },
            {
                "start_time": 33.029545454545456,
                "end_time": 33.22272727272727,
                "pitch": 29,
                "velocity": 80,
                "duration": 0.19318181818181301,
                "tempo": 120.0
            },
            {
                "start_time": 33.42045454545455,
                "end_time": 33.625,
                "pitch": 29,
                "velocity": 80,
                "duration": 0.20454545454545325,
                "tempo": 120.0
            },
            {
                "start_time": 33.83181818181818,
                "end_time": 34.027272727272724,
                "pitch": 29,
                "velocity": 80,
                "duration": 0.19545454545454533,
                "tempo": 120.0
            },
            {
                "start_time": 34.22272727272727,
                "end_time": 34.42727272727272,
                "pitch": 29,
                "velocity": 80,
                "duration": 0.20454545454545325,
                "tempo": 120.0
            },
            {
                "start_time": 34.63636363636363,
                "end_time": 34.82954545454545,
                "pitch": 28,
                "velocity": 80,
                "duration": 0.19318181818182012,
                "tempo": 120.0
            },
            {
                "start_time": 35.027272727272724,
                "end_time": 35.23181818181818,
                "pitch": 28,
                "velocity": 80,
                "duration": 0.20454545454545325,
                "tempo": 120.0
            },
            {
                "start_time": 35.43863636363636,
                "end_time": 35.638636363636365,
                "pitch": 28,
                "velocity": 80,
                "duration": 0.20000000000000284,
                "tempo": 120.0
            },
            {
                "start_time": 35.840909090909086,
                "end_time": 36.038636363636364,
                "pitch": 28,
                "velocity": 80,
                "duration": 0.19772727272727764,
                "tempo": 120.0
            },
            {
                "start_time": 36.24090909090909,
                "end_time": 36.43863636363636,
                "pitch": 33,
                "velocity": 80,
                "duration": 0.19772727272727053,
                "tempo": 120.0
            },
            {
                "start_time": 36.64090909090909,
                "end_time": 36.83863636363636,
                "pitch": 33,
                "velocity": 80,
                "duration": 0.19772727272727053,
                "tempo": 120.0
            },
            {
                "start_time": 37.04090909090909,
                "end_time": 37.24090909090909,
                "pitch": 33,
                "velocity": 80,
                "duration": 0.20000000000000284,
                "tempo": 120.0
            },
            {
                "start_time": 37.44318181818181,
                "end_time": 37.643181818181816,
                "pitch": 33,
                "velocity": 80,
                "duration": 0.20000000000000284,
                "tempo": 120.0
            },
            {
                "start_time": 37.845454545454544,
                "end_time": 38.043181818181814,
                "pitch": 36,
                "velocity": 80,
                "duration": 0.19772727272727053,
                "tempo": 120.0
            },
            {
                "start_time": 38.24545454545454,
                "end_time": 38.445454545454545,
                "pitch": 36,
                "velocity": 80,
                "duration": 0.20000000000000284,
                "tempo": 120.0
            },
            {
                "start_time": 38.64545454545454,
                "end_time": 38.845454545454544,
                "pitch": 36,
                "velocity": 80,
                "duration": 0.20000000000000284,
                "tempo": 120.0
            },
            {
                "start_time": 39.04772727272727,
                "end_time": 39.24772727272727,
                "pitch": 36,
                "velocity": 80,
                "duration": 0.19999999999999574,
                "tempo": 120.0
            },
            {
                "start_time": 39.449999999999996,
                "end_time": 39.64772727272727,
                "pitch": 38,
                "velocity": 80,
                "duration": 0.19772727272727764,
                "tempo": 120.0
            },
            {
                "start_time": 39.85,
                "end_time": 40.05,
                "pitch": 38,
                "velocity": 80,
                "duration": 0.19999999999999574,
                "tempo": 120.0
            },
            {
                "start_time": 40.25,
                "end_time": 40.449999999999996,
                "pitch": 38,
                "velocity": 80,
                "duration": 0.19999999999999574,
                "tempo": 120.0
            },
            {
                "start_time": 40.65,
                "end_time": 40.85,
                "pitch": 38,
                "velocity": 80,
                "duration": 0.20000000000000284,
                "tempo": 120.0
            },
            {
                "start_time": 41.05227272727272,
                "end_time": 41.252272727272725,
                "pitch": 35,
                "velocity": 80,
                "duration": 0.20000000000000284,
                "tempo": 120.0
            },
            {
                "start_time": 41.45454545454545,
                "end_time": 41.65454545454545,
                "pitch": 35,
                "velocity": 80,
                "duration": 0.19999999999999574,
                "tempo": 120.0
            },
            {
                "start_time": 41.85454545454545,
                "end_time": 42.054545454545455,
                "pitch": 35,
                "velocity": 80,
                "duration": 0.20000000000000284,
                "tempo": 120.0
            },
            {
                "start_time": 42.25681818181818,
                "end_time": 42.461363636363636,
                "pitch": 35,
                "velocity": 80,
                "duration": 0.20454545454545325,
                "tempo": 120.0
            },
            {
                "start_time": 42.668181818181814,
                "end_time": 42.86590909090909,
                "pitch": 40,
                "velocity": 80,
                "duration": 0.19772727272727764,
                "tempo": 120.0
            },
            {
                "start_time": 43.06818181818181,
                "end_time": 43.26590909090909,
                "pitch": 40,
                "velocity": 80,
                "duration": 0.19772727272727764,
                "tempo": 120.0
            },
            {
                "start_time": 43.46818181818182,
                "end_time": 43.668181818181814,
                "pitch": 40,
                "velocity": 80,
                "duration": 0.19999999999999574,
                "tempo": 120.0
            },
            {
                "start_time": 43.86818181818182,
                "end_time": 44.06818181818181,
                "pitch": 40,
                "velocity": 80,
                "duration": 0.19999999999999574,
                "tempo": 120.0
            },
            {
                "start_time": 44.27045454545454,
                "end_time": 44.46818181818182,
                "pitch": 28,
                "velocity": 80,
                "duration": 0.19772727272727764,
                "tempo": 120.0
            },
            {
                "start_time": 45.875,
                "end_time": 45.97272727272727,
                "pitch": 29,
                "velocity": 80,
                "duration": 0.09772727272726911,
                "tempo": 120.0
            },
            {
                "start_time": 45.974999999999994,
                "end_time": 46.074999999999996,
                "pitch": 29,
                "velocity": 80,
                "duration": 0.10000000000000142,
                "tempo": 120.0
            },
            {
                "start_time": 46.074999999999996,
                "end_time": 46.17272727272727,
                "pitch": 29,
                "velocity": 80,
                "duration": 0.09772727272727622,
                "tempo": 120.0
            },
            {
                "start_time": 46.67727272727272,
                "end_time": 46.877272727272725,
                "pitch": 28,
                "velocity": 80,
                "duration": 0.20000000000000284,
                "tempo": 120.0
            },
            {
                "start_time": 46.877272727272725,
                "end_time": 47.277272727272724,
                "pitch": 28,
                "velocity": 80,
                "duration": 0.3999999999999986,
                "tempo": 120.0
            },
            {
                "start_time": 47.27954545454545,
                "end_time": 48.27954545454545,
                "pitch": 33,
                "velocity": 80,
                "duration": 1.0,
                "tempo": 120.0
            },
            {
                "start_time": 48.27954545454545,
                "end_time": 48.68181818181818,
                "pitch": 33,
                "velocity": 80,
                "duration": 0.4022727272727309,
                "tempo": 120.0
            },
            {
                "start_time": 48.684090909090905,
                "end_time": 49.084090909090904,
                "pitch": 31,
                "velocity": 80,
                "duration": 0.3999999999999986,
                "tempo": 120.0
            },
            {
                "start_time": 49.084090909090904,
                "end_time": 49.184090909090905,
                "pitch": 29,
                "velocity": 80,
                "duration": 0.10000000000000142,
                "tempo": 120.0
            },
            {
                "start_time": 49.184090909090905,
                "end_time": 49.28409090909091,
                "pitch": 29,
                "velocity": 80,
                "duration": 0.10000000000000142,
                "tempo": 120.0
            },
            {
                "start_time": 49.28409090909091,
                "end_time": 49.38181818181818,
                "pitch": 29,
                "velocity": 80,
                "duration": 0.09772727272727622,
                "tempo": 120.0
            },
            {
                "start_time": 49.89545454545454,
                "end_time": 50.090909090909086,
                "pitch": 28,
                "velocity": 80,
                "duration": 0.19545454545454533,
                "tempo": 120.0
            },
            {
                "start_time": 50.090909090909086,
                "end_time": 50.48863636363636,
                "pitch": 28,
                "velocity": 80,
                "duration": 0.3977272727272734,
                "tempo": 120.0
            },
            {
                "start_time": 50.490909090909085,
                "end_time": 51.502272727272725,
                "pitch": 33,
                "velocity": 80,
                "duration": 1.0113636363636402,
                "tempo": 120.0
            },
            {
                "start_time": 51.50454545454545,
                "end_time": 51.89545454545454,
                "pitch": 33,
                "velocity": 80,
                "duration": 0.39090909090909065,
                "tempo": 120.0
            },
            {
                "start_time": 51.89545454545454,
                "end_time": 52.30681818181818,
                "pitch": 31,
                "velocity": 80,
                "duration": 0.4113636363636388,
                "tempo": 120.0
            },
            {
                "start_time": 52.309090909090905,
                "end_time": 52.40681818181818,
                "pitch": 29,
                "velocity": 80,
                "duration": 0.09772727272727622,
                "tempo": 120.0
            },
            {
                "start_time": 52.40681818181818,
                "end_time": 52.50681818181818,
                "pitch": 29,
                "velocity": 80,
                "duration": 0.10000000000000142,
                "tempo": 120.0
            },
            {
                "start_time": 52.50681818181818,
                "end_time": 52.60454545454545,
                "pitch": 29,
                "velocity": 80,
                "duration": 0.09772727272726911,
                "tempo": 120.0
            },
            {
                "start_time": 53.10909090909091,
                "end_time": 53.30681818181818,
                "pitch": 28,
                "velocity": 80,
                "duration": 0.19772727272727053,
                "tempo": 120.0
            },
            {
                "start_time": 53.309090909090905,
                "end_time": 53.709090909090904,
                "pitch": 28,
                "velocity": 80,
                "duration": 0.3999999999999986,
                "tempo": 120.0
            },
            {
                "start_time": 53.709090909090904,
                "end_time": 54.71363636363636,
                "pitch": 33,
                "velocity": 80,
                "duration": 1.0045454545454575,
                "tempo": 120.0
            },
            {
                "start_time": 54.71363636363636,
                "end_time": 55.11363636363636,
                "pitch": 33,
                "velocity": 80,
                "duration": 0.3999999999999986,
                "tempo": 120.0
            },
            {
                "start_time": 55.11363636363636,
                "end_time": 55.51363636363636,
                "pitch": 31,
                "velocity": 80,
                "duration": 0.3999999999999986,
                "tempo": 120.0
            },
            {
                "start_time": 55.51590909090909,
                "end_time": 55.61363636363636,
                "pitch": 29,
                "velocity": 80,
                "duration": 0.09772727272726911,
                "tempo": 120.0
            },
            {
                "start_time": 55.61363636363636,
                "end_time": 55.71363636363636,
                "pitch": 29,
                "velocity": 80,
                "duration": 0.10000000000000142,
                "tempo": 120.0
            },
            {
                "start_time": 55.71363636363636,
                "end_time": 55.81136363636363,
                "pitch": 29,
                "velocity": 80,
                "duration": 0.09772727272726911,
                "tempo": 120.0
            },
            {
                "start_time": 56.31818181818181,
                "end_time": 56.518181818181816,
                "pitch": 28,
                "velocity": 80,
                "duration": 0.20000000000000284,
                "tempo": 120.0
            },
            {
                "start_time": 56.518181818181816,
                "end_time": 56.918181818181814,
                "pitch": 28,
                "velocity": 80,
                "duration": 0.3999999999999986,
                "tempo": 120.0
            },
            {
                "start_time": 56.918181818181814,
                "end_time": 57.93181818181818,
                "pitch": 33,
                "velocity": 80,
                "duration": 1.0136363636363654,
                "tempo": 120.0
            },
            {
                "start_time": 57.934090909090905,
                "end_time": 58.03181818181818,
                "pitch": 33,
                "velocity": 80,
                "duration": 0.09772727272727622,
                "tempo": 120.0
            },
            {
                "start_time": 58.03181818181818,
                "end_time": 58.131818181818176,
                "pitch": 38,
                "velocity": 80,
                "duration": 0.09999999999999432,
                "tempo": 120.0
            },
            {
                "start_time": 58.13409090909091,
                "end_time": 58.23181818181818,
                "pitch": 40,
                "velocity": 80,
                "duration": 0.09772727272726911,
                "tempo": 120.0
            },
            {
                "start_time": 58.23181818181818,
                "end_time": 58.33181818181818,
                "pitch": 43,
                "velocity": 80,
                "duration": 0.10000000000000142,
                "tempo": 120.0
            },
            {
                "start_time": 58.33181818181818,
                "end_time": 58.429545454545455,
                "pitch": 45,
                "velocity": 80,
                "duration": 0.09772727272727622,
                "tempo": 120.0
            },
            {
                "start_time": 58.43181818181818,
                "end_time": 58.527272727272724,
                "pitch": 48,
                "velocity": 80,
                "duration": 0.0954545454545439,
                "tempo": 120.0
            },
            {
                "start_time": 58.52954545454545,
                "end_time": 58.627272727272725,
                "pitch": 47,
                "velocity": 80,
                "duration": 0.09772727272727622,
                "tempo": 120.0
            },
            {
                "start_time": 58.627272727272725,
                "end_time": 58.724999999999994,
                "pitch": 43,
                "velocity": 80,
                "duration": 0.09772727272726911,
                "tempo": 120.0
            },
            {
                "start_time": 58.73181818181818,
                "end_time": 58.82727272727272,
                "pitch": 33,
                "velocity": 80,
                "duration": 0.0954545454545439,
                "tempo": 120.0
            }
        ],
        "Harpsichord": [
            {
                "start_time": 33.027272727272724,
                "end_time": 33.12272727272727,
                "pitch": 53,
                "velocity": 40,
                "duration": 0.0954545454545439,
                "tempo": 120.0
            },
            {
                "start_time": 33.125,
                "end_time": 33.22272727272727,
                "pitch": 57,
                "velocity": 40,
                "duration": 0.09772727272726911,
                "tempo": 120.0
            },
            {
                "start_time": 33.22272727272727,
                "end_time": 33.320454545454545,
                "pitch": 48,
                "velocity": 40,
                "duration": 0.09772727272727622,
                "tempo": 120.0
            },
            {
                "start_time": 33.320454545454545,
                "end_time": 33.418181818181814,
                "pitch": 65,
                "velocity": 40,
                "duration": 0.09772727272726911,
                "tempo": 120.0
            },
            {
                "start_time": 33.418181818181814,
                "end_time": 33.52045454545454,
                "pitch": 53,
                "velocity": 40,
                "duration": 0.10227272727272663,
                "tempo": 120.0
            },
            {
                "start_time": 33.52272727272727,
                "end_time": 33.625,
                "pitch": 57,
                "velocity": 40,
                "duration": 0.10227272727272663,
                "tempo": 120.0
            },
            {
                "start_time": 33.625,
                "end_time": 33.72727272727273,
                "pitch": 48,
                "velocity": 40,
                "duration": 0.10227272727272663,
                "tempo": 120.0
            },
            {
                "start_time": 33.72727272727273,
                "end_time": 33.82954545454545,
                "pitch": 65,
                "velocity": 40,
                "duration": 0.10227272727272663,
                "tempo": 120.0
            },
            {
                "start_time": 33.82954545454545,
                "end_time": 33.92727272727272,
                "pitch": 53,
                "velocity": 40,
                "duration": 0.09772727272726911,
                "tempo": 120.0
            },
            {
                "start_time": 33.92727272727272,
                "end_time": 34.025,
                "pitch": 57,
                "velocity": 40,
                "duration": 0.09772727272727622,
                "tempo": 120.0
            },
            {
                "start_time": 34.027272727272724,
                "end_time": 34.12272727272727,
                "pitch": 48,
                "velocity": 40,
                "duration": 0.0954545454545439,
                "tempo": 120.0
            },
            {
                "start_time": 34.125,
                "end_time": 34.22272727272727,
                "pitch": 65,
                "velocity": 40,
                "duration": 0.09772727272726911,
                "tempo": 120.0
            },
            {
                "start_time": 34.22272727272727,
                "end_time": 34.324999999999996,
                "pitch": 53,
                "velocity": 40,
                "duration": 0.10227272727272663,
                "tempo": 120.0
            },
            {
                "start_time": 34.324999999999996,
                "end_time": 34.42727272727272,
                "pitch": 57,
                "velocity": 40,
                "duration": 0.10227272727272663,
                "tempo": 120.0
            },
            {
                "start_time": 34.42727272727272,
                "end_time": 34.529545454545456,
                "pitch": 48,
                "velocity": 40,
                "duration": 0.10227272727273373,
                "tempo": 120.0
            },
            {
                "start_time": 34.53181818181818,
                "end_time": 34.63409090909091,
                "pitch": 65,
                "velocity": 40,
                "duration": 0.10227272727272663,
                "tempo": 120.0
            },
            {
                "start_time": 34.63409090909091,
                "end_time": 34.73181818181818,
                "pitch": 52,
                "velocity": 40,
                "duration": 0.09772727272726911,
                "tempo": 120.0
            },
            {
                "start_time": 34.73181818181818,
                "end_time": 34.82954545454545,
                "pitch": 56,
                "velocity": 40,
                "duration": 0.09772727272727622,
                "tempo": 120.0
            },
            {
                "start_time": 34.82954545454545,
                "end_time": 34.92727272727272,
                "pitch": 59,
                "velocity": 40,
                "duration": 0.09772727272726911,
                "tempo": 120.0
            },
            {
                "start_time": 34.92727272727272,
                "end_time": 35.025,
                "pitch": 64,
                "velocity": 40,
                "duration": 0.09772727272727622,
                "tempo": 120.0
            },
            {
                "start_time": 35.027272727272724,
                "end_time": 35.127272727272725,
                "pitch": 52,
                "velocity": 40,
                "duration": 0.10000000000000142,
                "tempo": 120.0
            },
            {
                "start_time": 35.12954545454545,
                "end_time": 35.23181818181818,
                "pitch": 56,
                "velocity": 40,
                "duration": 0.10227272727272663,
                "tempo": 120.0
            },
            {
                "start_time": 35.23181818181818,
                "end_time": 35.33409090909091,
                "pitch": 59,
                "velocity": 40,
                "duration": 0.10227272727273373,
                "tempo": 120.0
            },
            {
                "start_time": 35.33409090909091,
                "end_time": 35.43636363636364,
                "pitch": 64,
                "velocity": 40,
                "duration": 0.10227272727272663,
                "tempo": 120.0
            },
            {
                "start_time": 35.43863636363636,
                "end_time": 35.53636363636363,
                "pitch": 52,
                "velocity": 40,
                "duration": 0.09772727272726911,
                "tempo": 120.0
            },
            {
                "start_time": 35.538636363636364,
                "end_time": 35.638636363636365,
                "pitch": 56,
                "velocity": 40,
                "duration": 0.10000000000000142,
                "tempo": 120.0
            },
            {
                "start_time": 35.638636363636365,
                "end_time": 35.73863636363636,
                "pitch": 59,
                "velocity": 40,
                "duration": 0.09999999999999432,
                "tempo": 120.0
            },
            {
                "start_time": 35.73863636363636,
                "end_time": 35.83863636363636,
                "pitch": 64,
                "velocity": 40,
                "duration": 0.10000000000000142,
                "tempo": 120.0
            },
            {
                "start_time": 35.83863636363636,
                "end_time": 35.93863636363636,
                "pitch": 52,
                "velocity": 40,
                "duration": 0.10000000000000142,
                "tempo": 120.0
            },
            {
                "start_time": 35.93863636363636,
                "end_time": 36.038636363636364,
                "pitch": 56,
                "velocity": 40,
                "duration": 0.10000000000000142,
                "tempo": 120.0
            },
            {
                "start_time": 36.038636363636364,
                "end_time": 36.13863636363636,
                "pitch": 59,
                "velocity": 40,
                "duration": 0.09999999999999432,
                "tempo": 120.0
            },
            {
                "start_time": 36.13863636363636,
                "end_time": 36.23863636363636,
                "pitch": 64,
                "velocity": 40,
                "duration": 0.10000000000000142,
                "tempo": 120.0
            },
            {
                "start_time": 36.24090909090909,
                "end_time": 36.33863636363636,
                "pitch": 57,
                "velocity": 40,
                "duration": 0.09772727272726911,
                "tempo": 120.0
            },
            {
                "start_time": 36.33863636363636,
                "end_time": 36.43863636363636,
                "pitch": 60,
                "velocity": 40,
                "duration": 0.10000000000000142,
                "tempo": 120.0
            },
            {
                "start_time": 36.43863636363636,
                "end_time": 36.538636363636364,
                "pitch": 64,
                "velocity": 40,
                "duration": 0.10000000000000142,
                "tempo": 120.0
            },
            {
                "start_time": 36.538636363636364,
                "end_time": 36.63863636363636,
                "pitch": 69,
                "velocity": 40,
                "duration": 0.09999999999999432,
                "tempo": 120.0
            },
            {
                "start_time": 36.63863636363636,
                "end_time": 36.73863636363636,
                "pitch": 57,
                "velocity": 40,
                "duration": 0.10000000000000142,
                "tempo": 120.0
            },
            {
                "start_time": 36.73863636363636,
                "end_time": 36.83863636363636,
                "pitch": 60,
                "velocity": 40,
                "duration": 0.10000000000000142,
                "tempo": 120.0
            },
            {
                "start_time": 36.83863636363636,
                "end_time": 36.93863636363636,
                "pitch": 64,
                "velocity": 40,
                "duration": 0.10000000000000142,
                "tempo": 120.0
            },
            {
                "start_time": 36.93863636363636,
                "end_time": 37.038636363636364,
                "pitch": 69,
                "velocity": 40,
                "duration": 0.10000000000000142,
                "tempo": 120.0
            },
            {
                "start_time": 37.04090909090909,
                "end_time": 37.14090909090909,
                "pitch": 57,
                "velocity": 40,
                "duration": 0.10000000000000142,
                "tempo": 120.0
            },
            {
                "start_time": 37.14090909090909,
                "end_time": 37.24090909090909,
                "pitch": 60,
                "velocity": 40,
                "duration": 0.10000000000000142,
                "tempo": 120.0
            },
            {
                "start_time": 37.24090909090909,
                "end_time": 37.340909090909086,
                "pitch": 64,
                "velocity": 40,
                "duration": 0.09999999999999432,
                "tempo": 120.0
            },
            {
                "start_time": 37.34318181818182,
                "end_time": 37.44318181818181,
                "pitch": 69,
                "velocity": 40,
                "duration": 0.09999999999999432,
                "tempo": 120.0
            },
            {
                "start_time": 37.44318181818181,
                "end_time": 37.543181818181814,
                "pitch": 57,
                "velocity": 40,
                "duration": 0.10000000000000142,
                "tempo": 120.0
            },
            {
                "start_time": 37.543181818181814,
                "end_time": 37.643181818181816,
                "pitch": 48,
                "velocity": 40,
                "duration": 0.10000000000000142,
                "tempo": 120.0
            },
            {
                "start_time": 37.643181818181816,
                "end_time": 37.74318181818182,
                "pitch": 52,
                "velocity": 40,
                "duration": 0.10000000000000142,
                "tempo": 120.0
            },
            {
                "start_time": 37.74318181818182,
                "end_time": 37.84318181818182,
                "pitch": 69,
                "velocity": 40,
                "duration": 0.10000000000000142,
                "tempo": 120.0
            },
            {
                "start_time": 37.845454545454544,
                "end_time": 37.94318181818181,
                "pitch": 55,
                "velocity": 40,
                "duration": 0.09772727272726911,
                "tempo": 120.0
            },
            {
                "start_time": 37.94318181818181,
                "end_time": 38.043181818181814,
                "pitch": 60,
                "velocity": 40,
                "duration": 0.10000000000000142,
                "tempo": 120.0
            },
            {
                "start_time": 38.043181818181814,
                "end_time": 38.143181818181816,
                "pitch": 64,
                "velocity": 40,
                "duration": 0.10000000000000142,
                "tempo": 120.0
            },
            {
                "start_time": 38.143181818181816,
                "end_time": 38.24318181818182,
                "pitch": 67,
                "velocity": 40,
                "duration": 0.10000000000000142,
                "tempo": 120.0
            },
            {
                "start_time": 38.24318181818182,
                "end_time": 38.34318181818182,
                "pitch": 55,
                "velocity": 40,
                "duration": 0.10000000000000142,
                "tempo": 120.0
            },
            {
                "start_time": 38.34318181818182,
                "end_time": 38.44318181818181,
                "pitch": 60,
                "velocity": 40,
                "duration": 0.09999999999999432,
                "tempo": 120.0
            },
            {
                "start_time": 38.445454545454545,
                "end_time": 38.543181818181814,
                "pitch": 64,
                "velocity": 40,
                "duration": 0.09772727272726911,
                "tempo": 120.0
            },
            {
                "start_time": 38.54545454545455,
                "end_time": 38.643181818181816,
                "pitch": 67,
                "velocity": 40,
                "duration": 0.09772727272726911,
                "tempo": 120.0
            },
            {
                "start_time": 38.64545454545454,
                "end_time": 38.74318181818182,
                "pitch": 55,
                "velocity": 40,
                "duration": 0.09772727272727622,
                "tempo": 120.0
            },
            {
                "start_time": 38.74545454545454,
                "end_time": 38.845454545454544,
                "pitch": 60,
                "velocity": 40,
                "duration": 0.10000000000000142,
                "tempo": 120.0
            },
            {
                "start_time": 38.845454545454544,
                "end_time": 38.945454545454545,
                "pitch": 64,
                "velocity": 40,
                "duration": 0.10000000000000142,
                "tempo": 120.0
            },
            {
                "start_time": 38.945454545454545,
                "end_time": 39.04545454545455,
                "pitch": 67,
                "velocity": 40,
                "duration": 0.10000000000000142,
                "tempo": 120.0
            },
            {
                "start_time": 39.04545454545455,
                "end_time": 39.14545454545454,
                "pitch": 55,
                "velocity": 40,
                "duration": 0.09999999999999432,
                "tempo": 120.0
            },
            {
                "start_time": 39.14545454545454,
                "end_time": 39.24545454545454,
                "pitch": 60,
                "velocity": 40,
                "duration": 0.10000000000000142,
                "tempo": 120.0
            },
            {
                "start_time": 39.24772727272727,
                "end_time": 39.34772727272727,
                "pitch": 64,
                "velocity": 40,
                "duration": 0.10000000000000142,
                "tempo": 120.0
            },
            {
                "start_time": 39.34772727272727,
                "end_time": 39.44772727272727,
                "pitch": 67,
                "velocity": 40,
                "duration": 0.10000000000000142,
                "tempo": 120.0
            },
            {
                "start_time": 39.449999999999996,
                "end_time": 39.54772727272727,
                "pitch": 57,
                "velocity": 40,
                "duration": 0.09772727272727622,
                "tempo": 120.0
            },
            {
                "start_time": 39.54772727272727,
                "end_time": 39.64772727272727,
                "pitch": 62,
                "velocity": 40,
                "duration": 0.10000000000000142,
                "tempo": 120.0
            },
            {
                "start_time": 39.64772727272727,
                "end_time": 39.74772727272727,
                "pitch": 65,
                "velocity": 40,
                "duration": 0.09999999999999432,
                "tempo": 120.0
            },
            {
                "start_time": 39.74772727272727,
                "end_time": 39.84772727272727,
                "pitch": 69,
                "velocity": 40,
                "duration": 0.10000000000000142,
                "tempo": 120.0
            },
            {
                "start_time": 39.85,
                "end_time": 39.94772727272727,
                "pitch": 57,
                "velocity": 40,
                "duration": 0.09772727272726911,
                "tempo": 120.0
            },
            {
                "start_time": 39.949999999999996,
                "end_time": 40.04772727272727,
                "pitch": 62,
                "velocity": 40,
                "duration": 0.09772727272727622,
                "tempo": 120.0
            },
            {
                "start_time": 40.05,
                "end_time": 40.14772727272727,
                "pitch": 65,
                "velocity": 40,
                "duration": 0.09772727272727622,
                "tempo": 120.0
            },
            {
                "start_time": 40.15,
                "end_time": 40.24772727272727,
                "pitch": 69,
                "velocity": 40,
                "duration": 0.09772727272726911,
                "tempo": 120.0
            },
            {
                "start_time": 40.25,
                "end_time": 40.34772727272727,
                "pitch": 57,
                "velocity": 40,
                "duration": 0.09772727272726911,
                "tempo": 120.0
            },
            {
                "start_time": 40.35,
                "end_time": 40.44772727272727,
                "pitch": 62,
                "velocity": 40,
                "duration": 0.09772727272726911,
                "tempo": 120.0
            },
            {
                "start_time": 40.449999999999996,
                "end_time": 40.55,
                "pitch": 65,
                "velocity": 40,
                "duration": 0.10000000000000142,
                "tempo": 120.0
            },
            {
                "start_time": 40.55,
                "end_time": 40.65,
                "pitch": 69,
                "velocity": 40,
                "duration": 0.10000000000000142,
                "tempo": 120.0
            },
            {
                "start_time": 40.65,
                "end_time": 40.75,
                "pitch": 57,
                "velocity": 40,
                "duration": 0.10000000000000142,
                "tempo": 120.0
            },
            {
                "start_time": 40.75,
                "end_time": 40.85,
                "pitch": 62,
                "velocity": 40,
                "duration": 0.10000000000000142,
                "tempo": 120.0
            },
            {
                "start_time": 40.85,
                "end_time": 40.949999999999996,
                "pitch": 65,
                "velocity": 40,
                "duration": 0.09999999999999432,
                "tempo": 120.0
            },
            {
                "start_time": 40.949999999999996,
                "end_time": 41.05,
                "pitch": 69,
                "velocity": 40,
                "duration": 0.10000000000000142,
                "tempo": 120.0
            },
            {
                "start_time": 41.05227272727272,
                "end_time": 41.15,
                "pitch": 59,
                "velocity": 40,
                "duration": 0.09772727272727622,
                "tempo": 120.0
            },
            {
                "start_time": 41.152272727272724,
                "end_time": 41.252272727272725,
                "pitch": 62,
                "velocity": 40,
                "duration": 0.10000000000000142,
                "tempo": 120.0
            },
            {
                "start_time": 41.252272727272725,
                "end_time": 41.35227272727273,
                "pitch": 65,
                "velocity": 40,
                "duration": 0.10000000000000142,
                "tempo": 120.0
            },
            {
                "start_time": 41.35227272727273,
                "end_time": 41.45227272727273,
                "pitch": 71,
                "velocity": 40,
                "duration": 0.10000000000000142,
                "tempo": 120.0
            },
            {
                "start_time": 41.45454545454545,
                "end_time": 41.55227272727272,
                "pitch": 59,
                "velocity": 40,
                "duration": 0.09772727272726911,
                "tempo": 120.0
            },
            {
                "start_time": 41.554545454545455,
                "end_time": 41.65454545454545,
                "pitch": 62,
                "velocity": 40,
                "duration": 0.09999999999999432,
                "tempo": 120.0
            },
            {
                "start_time": 41.65454545454545,
                "end_time": 41.752272727272725,
                "pitch": 65,
                "velocity": 40,
                "duration": 0.09772727272727622,
                "tempo": 120.0
            },
            {
                "start_time": 41.75454545454545,
                "end_time": 41.85227272727273,
                "pitch": 71,
                "velocity": 40,
                "duration": 0.09772727272727622,
                "tempo": 120.0
            },
            {
                "start_time": 41.85454545454545,
                "end_time": 41.95227272727273,
                "pitch": 59,
                "velocity": 40,
                "duration": 0.09772727272727622,
                "tempo": 120.0
            },
            {
                "start_time": 41.95454545454545,
                "end_time": 42.054545454545455,
                "pitch": 62,
                "velocity": 40,
                "duration": 0.10000000000000142,
                "tempo": 120.0
            },
            {
                "start_time": 42.054545454545455,
                "end_time": 42.15454545454545,
                "pitch": 65,
                "velocity": 40,
                "duration": 0.09999999999999432,
                "tempo": 120.0
            },
            {
                "start_time": 42.15454545454545,
                "end_time": 42.25454545454545,
                "pitch": 71,
                "velocity": 40,
                "duration": 0.10000000000000142,
                "tempo": 120.0
            },
            {
                "start_time": 42.25454545454545,
                "end_time": 42.35681818181818,
                "pitch": 59,
                "velocity": 40,
                "duration": 0.10227272727272663,
                "tempo": 120.0
            },
            {
                "start_time": 42.35681818181818,
                "end_time": 42.459090909090904,
                "pitch": 62,
                "velocity": 40,
                "duration": 0.10227272727272663,
                "tempo": 120.0
            },
            {
                "start_time": 42.461363636363636,
                "end_time": 42.56363636363636,
                "pitch": 65,
                "velocity": 40,
                "duration": 0.10227272727272663,
                "tempo": 120.0
            },
            {
                "start_time": 42.56363636363636,
                "end_time": 42.66590909090909,
                "pitch": 71,
                "velocity": 40,
                "duration": 0.10227272727272663,
                "tempo": 120.0
            },
            {
                "start_time": 42.66590909090909,
                "end_time": 42.76590909090909,
                "pitch": 59,
                "velocity": 40,
                "duration": 0.10000000000000142,
                "tempo": 120.0
            },
            {
                "start_time": 42.76590909090909,
                "end_time": 42.86590909090909,
                "pitch": 64,
                "velocity": 40,
                "duration": 0.10000000000000142,
                "tempo": 120.0
            },
            {
                "start_time": 42.86590909090909,
                "end_time": 42.965909090909086,
                "pitch": 69,
                "velocity": 40,
                "duration": 0.09999999999999432,
                "tempo": 120.0
            },
            {
                "start_time": 42.965909090909086,
                "end_time": 43.06590909090909,
                "pitch": 71,
                "velocity": 40,
                "duration": 0.10000000000000142,
                "tempo": 120.0
            },
            {
                "start_time": 43.06590909090909,
                "end_time": 43.16590909090909,
                "pitch": 59,
                "velocity": 40,
                "duration": 0.10000000000000142,
                "tempo": 120.0
            },
            {
                "start_time": 43.16590909090909,
                "end_time": 43.26590909090909,
                "pitch": 64,
                "velocity": 40,
                "duration": 0.10000000000000142,
                "tempo": 120.0
            },
            {
                "start_time": 43.26590909090909,
                "end_time": 43.36590909090909,
                "pitch": 69,
                "velocity": 40,
                "duration": 0.10000000000000142,
                "tempo": 120.0
            },
            {
                "start_time": 43.36590909090909,
                "end_time": 43.465909090909086,
                "pitch": 71,
                "velocity": 40,
                "duration": 0.09999999999999432,
                "tempo": 120.0
            },
            {
                "start_time": 43.46818181818182,
                "end_time": 43.56590909090909,
                "pitch": 59,
                "velocity": 40,
                "duration": 0.09772727272726911,
                "tempo": 120.0
            },
            {
                "start_time": 43.56818181818181,
                "end_time": 43.66590909090909,
                "pitch": 64,
                "velocity": 40,
                "duration": 0.09772727272727622,
                "tempo": 120.0
            },
            {
                "start_time": 43.668181818181814,
                "end_time": 43.76590909090909,
                "pitch": 69,
                "velocity": 40,
                "duration": 0.09772727272727622,
                "tempo": 120.0
            },
            {
                "start_time": 43.768181818181816,
                "end_time": 43.86590909090909,
                "pitch": 71,
                "velocity": 40,
                "duration": 0.09772727272727622,
                "tempo": 120.0
            },
            {
                "start_time": 43.86818181818182,
                "end_time": 43.965909090909086,
                "pitch": 59,
                "velocity": 40,
                "duration": 0.09772727272726911,
                "tempo": 120.0
            },
            {
                "start_time": 43.96818181818182,
                "end_time": 44.06818181818181,
                "pitch": 64,
                "velocity": 40,
                "duration": 0.09999999999999432,
                "tempo": 120.0
            },
            {
                "start_time": 44.06818181818181,
                "end_time": 44.168181818181814,
                "pitch": 69,
                "velocity": 40,
                "duration": 0.10000000000000142,
                "tempo": 120.0
            },
            {
                "start_time": 44.168181818181814,
                "end_time": 44.268181818181816,
                "pitch": 71,
                "velocity": 40,
                "duration": 0.10000000000000142,
                "tempo": 120.0
            },
            {
                "start_time": 44.268181818181816,
                "end_time": 44.46818181818182,
                "pitch": 56,
                "velocity": 40,
                "duration": 0.20000000000000284,
                "tempo": 120.0
            }
        ]
    }
}