{
    "track_id": "07 Make What Haste You Can!",
    "mood": "angry",
    "instruments": {
        "Lead 2 (sawtooth)": [
            {
                "start_time": 0.011363636363636364,
                "end_time": 0.10681818181818181,
                "pitch": 0,
                "velocity": 4,
                "duration": 0.09545454545454544,
                "tempo": 120.0
            },
            {
                "start_time": 0.10909090909090909,
                "end_time": 0.12045454545454545,
                "pitch": 69,
                "velocity": 101,
                "duration": 0.011363636363636367,
                "tempo": 120.0
            },
            {
                "start_time": 0.21136363636363636,
                "end_time": 0.22272727272727272,
                "pitch": 69,
                "velocity": 101,
                "duration": 0.011363636363636354,
                "tempo": 120.0
            },
            {
                "start_time": 0.3159090909090909,
                "end_time": 0.4113636363636363,
                "pitch": 69,
                "velocity": 101,
                "duration": 0.0954545454545454,
                "tempo": 120.0
            },
            {
                "start_time": 0.5204545454545454,
                "end_time": 0.5318181818181817,
                "pitch": 69,
                "velocity": 101,
                "duration": 0.011363636363636354,
                "tempo": 120.0
            },
            {
                "start_time": 0.6295454545454545,
                "end_time": 0.9613636363636363,
                "pitch": 70,
                "velocity": 101,
                "duration": 0.3318181818181818,
                "tempo": 120.0
            },
            {
                "start_time": 1.0204545454545455,
                "end_time": 1.4477272727272728,
                "pitch": 71,
                "velocity": 101,
                "duration": 0.42727272727272725,
                "tempo": 120.0
            },
            {
                "start_time": 1.5159090909090909,
                "end_time": 1.5522727272727272,
                "pitch": 71,
                "velocity": 64,
                "duration": 0.036363636363636376,
                "tempo": 120.0
            },
            {
                "start_time": 1.5522727272727272,
                "end_time": 1.593181818181818,
                "pitch": 70,
                "velocity": 64,
                "duration": 0.040909090909090784,
                "tempo": 120.0
            },
            {
                "start_time": 1.593181818181818,
                "end_time": 1.634090909090909,
                "pitch": 69,
                "velocity": 64,
                "duration": 0.040909090909091006,
                "tempo": 120.0
            },
            {
                "start_time": 1.634090909090909,
                "end_time": 1.6727272727272726,
                "pitch": 68,
                "velocity": 64,
                "duration": 0.03863636363636358,
                "tempo": 120.0
            },
            {
                "start_time": 1.6727272727272726,
                "end_time": 1.7136363636363636,
                "pitch": 67,
                "velocity": 64,
                "duration": 0.040909090909091006,
                "tempo": 120.0
            },
            {
                "start_time": 1.7136363636363636,
                "end_time": 1.7545454545454544,
                "pitch": 66,
                "velocity": 64,
                "duration": 0.040909090909090784,
                "tempo": 120.0
            },
            {
                "start_time": 1.7568181818181818,
                "end_time": 1.793181818181818,
                "pitch": 65,
                "velocity": 64,
                "duration": 0.036363636363636154,
                "tempo": 120.0
            },
            {
                "start_time": 1.7954545454545454,
                "end_time": 1.834090909090909,
                "pitch": 64,
                "velocity": 64,
                "duration": 0.03863636363636358,
                "tempo": 120.0
            },
            {
                "start_time": 1.834090909090909,
                "end_time": 1.875,
                "pitch": 63,
                "velocity": 64,
                "duration": 0.040909090909091006,
                "tempo": 120.0
            },
            {
                "start_time": 1.8772727272727272,
                "end_time": 1.918181818181818,
                "pitch": 62,
                "velocity": 64,
                "duration": 0.040909090909090784,
                "tempo": 120.0
            },
            {
                "start_time": 1.918181818181818,
                "end_time": 1.959090909090909,
                "pitch": 61,
                "velocity": 64,
                "duration": 0.040909090909091006,
                "tempo": 120.0
            },
            {
                "start_time": 1.9613636363636362,
                "end_time": 2.0045454545454544,
                "pitch": 60,
                "velocity": 64,
                "duration": 0.04318181818181821,
                "tempo": 120.0
            }
        ],
        "Harpsichord": [
            {
                "start_time": 2.006818181818182,
                "end_time": 2.3886363636363637,
                "pitch": 60,
                "velocity": 4,
                "duration": 0.38181818181818183,
                "tempo": 120.0
            },
            {
                "start_time": 2.3886363636363637,
                "end_time": 2.3909090909090907,
                "pitch": 64,
                "velocity": 4,
                "duration": 0.002272727272726982,
                "tempo": 120.0
            },
            {
                "start_time": 2.3909090909090907,
                "end_time": 2.4272727272727272,
                "pitch": 64,
                "velocity": 64,
                "duration": 0.0363636363636366,
                "tempo": 120.0
            },
            {
                "start_time": 2.643181818181818,
                "end_time": 2.768181818181818,
                "pitch": 64,
                "velocity": 4,
                "duration": 0.125,
                "tempo": 120.0
            },
            {
                "start_time": 2.7704545454545455,
                "end_time": 2.784090909090909,
                "pitch": 64,
                "velocity": 64,
                "duration": 0.013636363636363669,
                "tempo": 120.0
            },
            {
                "start_time": 2.8954545454545455,
                "end_time": 2.909090909090909,
                "pitch": 64,
                "velocity": 64,
                "duration": 0.013636363636363669,
                "tempo": 120.0
            },
            {
                "start_time": 3.018181818181818,
                "end_time": 3.1454545454545455,
                "pitch": 64,
                "velocity": 4,
                "duration": 0.12727272727272743,
                "tempo": 120.0
            },
            {
                "start_time": 3.1454545454545455,
                "end_time": 3.1818181818181817,
                "pitch": 64,
                "velocity": 64,
                "duration": 0.036363636363636154,
                "tempo": 120.0
            },
            {
                "start_time": 3.3954545454545455,
                "end_time": 3.5204545454545455,
                "pitch": 64,
                "velocity": 4,
                "duration": 0.125,
                "tempo": 120.0
            },
            {
                "start_time": 3.5204545454545455,
                "end_time": 3.536363636363636,
                "pitch": 64,
                "velocity": 64,
                "duration": 0.01590909090909065,
                "tempo": 120.0
            },
            {
                "start_time": 3.645454545454545,
                "end_time": 3.745454545454545,
                "pitch": 64,
                "velocity": 4,
                "duration": 0.10000000000000009,
                "tempo": 120.0
            },
            {
                "start_time": 3.745454545454545,
                "end_time": 3.756818181818182,
                "pitch": 64,
                "velocity": 64,
                "duration": 0.011363636363636687,
                "tempo": 120.0
            },
            {
                "start_time": 3.843181818181818,
                "end_time": 3.943181818181818,
                "pitch": 64,
                "velocity": 4,
                "duration": 0.10000000000000009,
                "tempo": 120.0
            },
            {
                "start_time": 3.9454545454545453,
                "end_time": 4.045454545454545,
                "pitch": 64,
                "velocity": 4,
                "duration": 0.09999999999999964,
                "tempo": 120.0
            },
            {
                "start_time": 4.045454545454545,
                "end_time": 4.075,
                "pitch": 64,
                "velocity": 64,
                "duration": 0.029545454545455208,
                "tempo": 120.0
            },
            {
                "start_time": 4.245454545454545,
                "end_time": 4.347727272727273,
                "pitch": 64,
                "velocity": 4,
                "duration": 0.10227272727272751,
                "tempo": 120.0
            },
            {
                "start_time": 4.347727272727273,
                "end_time": 4.361363636363636,
                "pitch": 64,
                "velocity": 64,
                "duration": 0.013636363636363669,
                "tempo": 120.0
            },
            {
                "start_time": 4.447727272727272,
                "end_time": 4.547727272727273,
                "pitch": 64,
                "velocity": 4,
                "duration": 0.10000000000000053,
                "tempo": 120.0
            },
            {
                "start_time": 4.55,
                "end_time": 4.5613636363636365,
                "pitch": 64,
                "velocity": 64,
                "duration": 0.011363636363636687,
                "tempo": 120.0
            },
            {
                "start_time": 4.6477272727272725,
                "end_time": 4.75,
                "pitch": 64,
                "velocity": 4,
                "duration": 0.10227272727272751,
                "tempo": 120.0
            },
            {
                "start_time": 4.75,
                "end_time": 4.761363636363636,
                "pitch": 64,
                "velocity": 64,
                "duration": 0.011363636363635798,
                "tempo": 120.0
            },
            {
                "start_time": 4.847727272727273,
                "end_time": 4.947727272727272,
                "pitch": 64,
                "velocity": 4,
                "duration": 0.09999999999999964,
                "tempo": 120.0
            },
            {
                "start_time": 4.947727272727272,
                "end_time": 4.959090909090909,
                "pitch": 64,
                "velocity": 64,
                "duration": 0.011363636363636687,
                "tempo": 120.0
            },
            {
                "start_time": 5.045454545454545,
                "end_time": 5.140909090909091,
                "pitch": 64,
                "velocity": 4,
                "duration": 0.09545454545454568,
                "tempo": 120.0
            },
            {
                "start_time": 5.143181818181818,
                "end_time": 5.24090909090909,
                "pitch": 64,
                "velocity": 4,
                "duration": 0.09772727272727266,
                "tempo": 120.0
            },
            {
                "start_time": 5.243181818181818,
                "end_time": 5.288636363636363,
                "pitch": 64,
                "velocity": 64,
                "duration": 0.04545454545454497,
                "tempo": 120.0
            },
            {
                "start_time": 5.556818181818182,
                "end_time": 5.8590909090909085,
                "pitch": 64,
                "velocity": 4,
                "duration": 0.3022727272727268,
                "tempo": 120.0
            },
            {
                "start_time": 5.861363636363636,
                "end_time": 5.888636363636364,
                "pitch": 64,
                "velocity": 64,
                "duration": 0.027272727272727337,
                "tempo": 120.0
            },
            {
                "start_time": 6.056818181818182,
                "end_time": 6.156818181818181,
                "pitch": 64,
                "velocity": 4,
                "duration": 0.09999999999999964,
                "tempo": 120.0
            },
            {
                "start_time": 6.159090909090909,
                "end_time": 6.170454545454545,
                "pitch": 64,
                "velocity": 64,
                "duration": 0.011363636363635798,
                "tempo": 120.0
            },
            {
                "start_time": 6.259090909090909,
                "end_time": 6.2704545454545455,
                "pitch": 64,
                "velocity": 64,
                "duration": 0.011363636363636687,
                "tempo": 120.0
            },
            {
                "start_time": 6.3590909090909085,
                "end_time": 6.459090909090909,
                "pitch": 64,
                "velocity": 4,
                "duration": 0.10000000000000053,
                "tempo": 120.0
            },
            {
                "start_time": 6.461363636363636,
                "end_time": 6.488636363636363,
                "pitch": 64,
                "velocity": 64,
                "duration": 0.027272727272727337,
                "tempo": 120.0
            },
            {
                "start_time": 6.659090909090909,
                "end_time": 6.759090909090909,
                "pitch": 64,
                "velocity": 4,
                "duration": 0.09999999999999964,
                "tempo": 120.0
            },
            {
                "start_time": 6.761363636363636,
                "end_time": 6.7727272727272725,
                "pitch": 64,
                "velocity": 64,
                "duration": 0.011363636363636687,
                "tempo": 120.0
            },
            {
                "start_time": 6.8590909090909085,
                "end_time": 6.959090909090909,
                "pitch": 64,
                "velocity": 4,
                "duration": 0.10000000000000053,
                "tempo": 120.0
            },
            {
                "start_time": 6.959090909090909,
                "end_time": 6.970454545454545,
                "pitch": 64,
                "velocity": 64,
                "duration": 0.011363636363635798,
                "tempo": 120.0
            },
            {
                "start_time": 7.054545454545454,
                "end_time": 7.152272727272727,
                "pitch": 64,
                "velocity": 4,
                "duration": 0.09772727272727355,
                "tempo": 120.0
            },
            {
                "start_time": 7.154545454545454,
                "end_time": 7.252272727272727,
                "pitch": 64,
                "velocity": 4,
                "duration": 0.09772727272727266,
                "tempo": 120.0
            },
            {
                "start_time": 7.254545454545454,
                "end_time": 7.284090909090909,
                "pitch": 64,
                "velocity": 64,
                "duration": 0.029545454545455208,
                "tempo": 120.0
            },
            {
                "start_time": 7.463636363636363,
                "end_time": 7.570454545454545,
                "pitch": 64,
                "velocity": 4,
                "duration": 0.10681818181818237,
                "tempo": 120.0
            },
            {
                "start_time": 7.570454545454545,
                "end_time": 7.584090909090909,
                "pitch": 64,
                "velocity": 64,
                "duration": 0.013636363636363669,
                "tempo": 120.0
            },
            {
                "start_time": 7.675,
                "end_time": 7.7727272727272725,
                "pitch": 64,
                "velocity": 4,
                "duration": 0.09772727272727266,
                "tempo": 120.0
            },
            {
                "start_time": 7.7749999999999995,
                "end_time": 7.786363636363636,
                "pitch": 64,
                "velocity": 64,
                "duration": 0.011363636363636687,
                "tempo": 120.0
            },
            {
                "start_time": 7.870454545454545,
                "end_time": 7.968181818181818,
                "pitch": 64,
                "velocity": 4,
                "duration": 0.09772727272727266,
                "tempo": 120.0
            },
            {
                "start_time": 8.781818181818181,
                "end_time": 9.077272727272726,
                "pitch": 57,
                "velocity": 4,
                "duration": 0.29545454545454497,
                "tempo": 120.0
            },
            {
                "start_time": 9.077272727272726,
                "end_time": 9.079545454545453,
                "pitch": 64,
                "velocity": 4,
                "duration": 0.002272727272726982,
                "tempo": 120.0
            },
            {
                "start_time": 9.079545454545453,
                "end_time": 9.10681818181818,
                "pitch": 64,
                "velocity": 64,
                "duration": 0.027272727272727337,
                "tempo": 120.0
            },
            {
                "start_time": 9.275,
                "end_time": 9.375,
                "pitch": 64,
                "velocity": 4,
                "duration": 0.09999999999999964,
                "tempo": 120.0
            },
            {
                "start_time": 9.375,
                "end_time": 9.388636363636364,
                "pitch": 64,
                "velocity": 64,
                "duration": 0.013636363636363669,
                "tempo": 120.0
            },
            {
                "start_time": 9.475,
                "end_time": 9.488636363636363,
                "pitch": 64,
                "velocity": 64,
                "duration": 0.013636363636363669,
                "tempo": 120.0
            },
            {
                "start_time": 9.575,
                "end_time": 9.674999999999999,
                "pitch": 64,
                "velocity": 4,
                "duration": 0.09999999999999964,
                "tempo": 120.0
            },
            {
                "start_time": 9.677272727272726,
                "end_time": 9.704545454545453,
                "pitch": 64,
                "velocity": 64,
                "duration": 0.027272727272727337,
                "tempo": 120.0
            },
            {
                "start_time": 9.877272727272727,
                "end_time": 9.977272727272727,
                "pitch": 64,
                "velocity": 4,
                "duration": 0.09999999999999964,
                "tempo": 120.0
            },
            {
                "start_time": 9.979545454545454,
                "end_time": 9.99090909090909,
                "pitch": 64,
                "velocity": 64,
                "duration": 0.011363636363636687,
                "tempo": 120.0
            },
            {
                "start_time": 10.079545454545453,
                "end_time": 10.179545454545455,
                "pitch": 64,
                "velocity": 4,
                "duration": 0.10000000000000142,
                "tempo": 120.0
            },
            {
                "start_time": 10.179545454545455,
                "end_time": 10.193181818181818,
                "pitch": 64,
                "velocity": 64,
                "duration": 0.013636363636363669,
                "tempo": 120.0
            },
            {
                "start_time": 10.279545454545454,
                "end_time": 10.379545454545454,
                "pitch": 64,
                "velocity": 4,
                "duration": 0.09999999999999964,
                "tempo": 120.0
            },
            {
                "start_time": 10.381818181818181,
                "end_time": 10.48181818181818,
                "pitch": 64,
                "velocity": 4,
                "duration": 0.09999999999999964,
                "tempo": 120.0
            },
            {
                "start_time": 10.48409090909091,
                "end_time": 10.511363636363637,
                "pitch": 64,
                "velocity": 64,
                "duration": 0.027272727272727337,
                "tempo": 120.0
            },
            {
                "start_time": 10.688636363636363,
                "end_time": 10.790909090909091,
                "pitch": 64,
                "velocity": 4,
                "duration": 0.1022727272727284,
                "tempo": 120.0
            },
            {
                "start_time": 10.790909090909091,
                "end_time": 10.804545454545455,
                "pitch": 64,
                "velocity": 64,
                "duration": 0.013636363636363669,
                "tempo": 120.0
            },
            {
                "start_time": 10.893181818181818,
                "end_time": 10.997727272727273,
                "pitch": 64,
                "velocity": 4,
                "duration": 0.10454545454545539,
                "tempo": 120.0
            },
            {
                "start_time": 10.997727272727273,
                "end_time": 11.009090909090908,
                "pitch": 64,
                "velocity": 64,
                "duration": 0.01136363636363491,
                "tempo": 120.0
            },
            {
                "start_time": 11.1,
                "end_time": 11.202272727272726,
                "pitch": 64,
                "velocity": 4,
                "duration": 0.10227272727272663,
                "tempo": 120.0
            },
            {
                "start_time": 11.202272727272726,
                "end_time": 11.21590909090909,
                "pitch": 64,
                "velocity": 64,
                "duration": 0.013636363636363669,
                "tempo": 120.0
            },
            {
                "start_time": 11.304545454545455,
                "end_time": 11.399999999999999,
                "pitch": 64,
                "velocity": 4,
                "duration": 0.0954545454545439,
                "tempo": 120.0
            },
            {
                "start_time": 11.399999999999999,
                "end_time": 11.411363636363635,
                "pitch": 64,
                "velocity": 64,
                "duration": 0.011363636363636687,
                "tempo": 120.0
            },
            {
                "start_time": 11.495454545454544,
                "end_time": 11.59090909090909,
                "pitch": 64,
                "velocity": 4,
                "duration": 0.09545454545454568,
                "tempo": 120.0
            },
            {
                "start_time": 11.59090909090909,
                "end_time": 11.686363636363636,
                "pitch": 64,
                "velocity": 4,
                "duration": 0.09545454545454568,
                "tempo": 120.0
            },
            {
                "start_time": 11.688636363636363,
                "end_time": 11.73409090909091,
                "pitch": 64,
                "velocity": 64,
                "duration": 0.045454545454546746,
                "tempo": 120.0
            },
            {
                "start_time": 11.995454545454544,
                "end_time": 12.299999999999999,
                "pitch": 64,
                "velocity": 4,
                "duration": 0.3045454545454547,
                "tempo": 120.0
            },
            {
                "start_time": 12.299999999999999,
                "end_time": 12.329545454545453,
                "pitch": 64,
                "velocity": 64,
                "duration": 0.02954545454545432,
                "tempo": 120.0
            },
            {
                "start_time": 12.502272727272727,
                "end_time": 12.604545454545454,
                "pitch": 64,
                "velocity": 4,
                "duration": 0.10227272727272663,
                "tempo": 120.0
            },
            {
                "start_time": 12.604545454545454,
                "end_time": 12.618181818181817,
                "pitch": 64,
                "velocity": 64,
                "duration": 0.013636363636363669,
                "tempo": 120.0
            },
            {
                "start_time": 12.706818181818182,
                "end_time": 12.720454545454546,
                "pitch": 64,
                "velocity": 64,
                "duration": 0.013636363636363669,
                "tempo": 120.0
            },
            {
                "start_time": 12.809090909090909,
                "end_time": 12.913636363636362,
                "pitch": 64,
                "velocity": 4,
                "duration": 0.10454545454545361,
                "tempo": 120.0
            },
            {
                "start_time": 12.913636363636362,
                "end_time": 12.943181818181818,
                "pitch": 64,
                "velocity": 64,
                "duration": 0.029545454545456096,
                "tempo": 120.0
            },
            {
                "start_time": 13.113636363636363,
                "end_time": 13.21590909090909,
                "pitch": 64,
                "velocity": 4,
                "duration": 0.10227272727272663,
                "tempo": 120.0
            },
            {
                "start_time": 13.21590909090909,
                "end_time": 13.229545454545454,
                "pitch": 64,
                "velocity": 64,
                "duration": 0.013636363636363669,
                "tempo": 120.0
            },
            {
                "start_time": 13.31590909090909,
                "end_time": 13.413636363636362,
                "pitch": 64,
                "velocity": 4,
                "duration": 0.09772727272727266,
                "tempo": 120.0
            },
            {
                "start_time": 13.415909090909091,
                "end_time": 13.427272727272726,
                "pitch": 64,
                "velocity": 64,
                "duration": 0.01136363636363491,
                "tempo": 120.0
            },
            {
                "start_time": 13.511363636363635,
                "end_time": 13.609090909090908,
                "pitch": 64,
                "velocity": 4,
                "duration": 0.09772727272727266,
                "tempo": 120.0
            },
            {
                "start_time": 13.611363636363636,
                "end_time": 13.709090909090909,
                "pitch": 64,
                "velocity": 4,
                "duration": 0.09772727272727266,
                "tempo": 120.0
            },
            {
                "start_time": 13.709090909090909,
                "end_time": 13.738636363636363,
                "pitch": 64,
                "velocity": 64,
                "duration": 0.02954545454545432,
                "tempo": 120.0
            },
            {
                "start_time": 13.913636363636362,
                "end_time": 14.018181818181818,
                "pitch": 64,
                "velocity": 4,
                "duration": 0.10454545454545539,
                "tempo": 120.0
            },
            {
                "start_time": 14.018181818181818,
                "end_time": 14.031818181818181,
                "pitch": 64,
                "velocity": 64,
                "duration": 0.013636363636363669,
                "tempo": 120.0
            },
            {
                "start_time": 14.120454545454544,
                "end_time": 14.218181818181817,
                "pitch": 64,
                "velocity": 4,
                "duration": 0.09772727272727266,
                "tempo": 120.0
            },
            {
                "start_time": 14.218181818181817,
                "end_time": 14.23181818181818,
                "pitch": 64,
                "velocity": 64,
                "duration": 0.013636363636363669,
                "tempo": 120.0
            },
            {
                "start_time": 14.31590909090909,
                "end_time": 14.413636363636362,
                "pitch": 64,
                "velocity": 4,
                "duration": 0.09772727272727266,
                "tempo": 120.0
            },
            {
                "start_time": 14.413636363636362,
                "end_time": 14.415909090909091,
                "pitch": 57,
                "velocity": 4,
                "duration": 0.0022727272727287584,
                "tempo": 120.0
            },
            {
                "start_time": 15.227272727272727,
                "end_time": 15.522727272727272,
                "pitch": 59,
                "velocity": 4,
                "duration": 0.29545454545454497,
                "tempo": 120.0
            },
            {
                "start_time": 15.522727272727272,
                "end_time": 15.552272727272726,
                "pitch": 64,
                "velocity": 4,
                "duration": 0.02954545454545432,
                "tempo": 120.0
            },
            {
                "start_time": 15.524999999999999,
                "end_time": 15.552272727272726,
                "pitch": 64,
                "velocity": 64,
                "duration": 0.027272727272727337,
                "tempo": 120.0
            },
            {
                "start_time": 15.720454545454544,
                "end_time": 15.820454545454545,
                "pitch": 64,
                "velocity": 4,
                "duration": 0.10000000000000142,
                "tempo": 120.0
            },
            {
                "start_time": 15.822727272727272,
                "end_time": 15.834090909090909,
                "pitch": 64,
                "velocity": 64,
                "duration": 0.011363636363636687,
                "tempo": 120.0
            },
            {
                "start_time": 15.922727272727272,
                "end_time": 15.934090909090909,
                "pitch": 64,
                "velocity": 64,
                "duration": 0.011363636363636687,
                "tempo": 120.0
            },
            {
                "start_time": 16.022727272727273,
                "end_time": 16.12272727272727,
                "pitch": 64,
                "velocity": 4,
                "duration": 0.09999999999999787,
                "tempo": 120.0
            },
            {
                "start_time": 16.125,
                "end_time": 16.152272727272727,
                "pitch": 64,
                "velocity": 64,
                "duration": 0.027272727272727337,
                "tempo": 120.0
            },
            {
                "start_time": 16.325,
                "end_time": 16.425,
                "pitch": 64,
                "velocity": 4,
                "duration": 0.10000000000000142,
                "tempo": 120.0
            },
            {
                "start_time": 16.427272727272726,
                "end_time": 16.438636363636363,
                "pitch": 64,
                "velocity": 64,
                "duration": 0.011363636363636687,
                "tempo": 120.0
            },
            {
                "start_time": 16.527272727272727,
                "end_time": 16.629545454545454,
                "pitch": 64,
                "velocity": 4,
                "duration": 0.10227272727272663,
                "tempo": 120.0
            },
            {
                "start_time": 16.629545454545454,
                "end_time": 16.643181818181816,
                "pitch": 64,
                "velocity": 64,
                "duration": 0.013636363636361892,
                "tempo": 120.0
            },
            {
                "start_time": 16.73181818181818,
                "end_time": 16.834090909090907,
                "pitch": 64,
                "velocity": 4,
                "duration": 0.10227272727272663,
                "tempo": 120.0
            },
            {
                "start_time": 16.834090909090907,
                "end_time": 16.938636363636363,
                "pitch": 64,
                "velocity": 4,
                "duration": 0.10454545454545539,
                "tempo": 120.0
            },
            {
                "start_time": 16.938636363636363,
                "end_time": 16.96818181818182,
                "pitch": 64,
                "velocity": 64,
                "duration": 0.029545454545456096,
                "tempo": 120.0
            },
            {
                "start_time": 17.138636363636362,
                "end_time": 17.24090909090909,
                "pitch": 64,
                "velocity": 4,
                "duration": 0.10227272727272663,
                "tempo": 120.0
            },
            {
                "start_time": 17.24090909090909,
                "end_time": 17.254545454545454,
                "pitch": 64,
                "velocity": 64,
                "duration": 0.013636363636365445,
                "tempo": 120.0
            },
            {
                "start_time": 17.34090909090909,
                "end_time": 17.443181818181817,
                "pitch": 64,
                "velocity": 4,
                "duration": 0.10227272727272663,
                "tempo": 120.0
            },
            {
                "start_time": 17.445454545454545,
                "end_time": 17.456818181818182,
                "pitch": 64,
                "velocity": 64,
                "duration": 0.011363636363636687,
                "tempo": 120.0
            },
            {
                "start_time": 17.547727272727272,
                "end_time": 17.65,
                "pitch": 64,
                "velocity": 4,
                "duration": 0.10227272727272663,
                "tempo": 120.0
            },
            {
                "start_time": 17.65,
                "end_time": 17.663636363636364,
                "pitch": 64,
                "velocity": 64,
                "duration": 0.013636363636365445,
                "tempo": 120.0
            },
            {
                "start_time": 17.752272727272725,
                "end_time": 17.847727272727273,
                "pitch": 64,
                "velocity": 4,
                "duration": 0.09545454545454746,
                "tempo": 120.0
            },
            {
                "start_time": 17.847727272727273,
                "end_time": 17.85909090909091,
                "pitch": 64,
                "velocity": 64,
                "duration": 0.011363636363636687,
                "tempo": 120.0
            },
            {
                "start_time": 17.943181818181817,
                "end_time": 18.036363636363635,
                "pitch": 64,
                "velocity": 4,
                "duration": 0.0931818181818187,
                "tempo": 120.0
            },
            {
                "start_time": 18.038636363636364,
                "end_time": 18.136363636363637,
                "pitch": 64,
                "velocity": 4,
                "duration": 0.09772727272727266,
                "tempo": 120.0
            },
            {
                "start_time": 18.136363636363637,
                "end_time": 18.18181818181818,
                "pitch": 64,
                "velocity": 64,
                "duration": 0.045454545454543194,
                "tempo": 120.0
            },
            {
                "start_time": 18.436363636363634,
                "end_time": 18.743181818181817,
                "pitch": 64,
                "velocity": 4,
                "duration": 0.30681818181818343,
                "tempo": 120.0
            },
            {
                "start_time": 18.745454545454546,
                "end_time": 18.775,
                "pitch": 64,
                "velocity": 64,
                "duration": 0.029545454545452543,
                "tempo": 120.0
            },
            {
                "start_time": 18.95,
                "end_time": 19.052272727272726,
                "pitch": 64,
                "velocity": 4,
                "duration": 0.10227272727272663,
                "tempo": 120.0
            },
            {
                "start_time": 19.054545454545455,
                "end_time": 19.06590909090909,
                "pitch": 64,
                "velocity": 64,
                "duration": 0.011363636363636687,
                "tempo": 120.0
            },
            {
                "start_time": 19.15681818181818,
                "end_time": 19.168181818181818,
                "pitch": 64,
                "velocity": 64,
                "duration": 0.011363636363636687,
                "tempo": 120.0
            },
            {
                "start_time": 19.259090909090908,
                "end_time": 19.361363636363635,
                "pitch": 64,
                "velocity": 4,
                "duration": 0.10227272727272663,
                "tempo": 120.0
            },
            {
                "start_time": 19.361363636363635,
                "end_time": 19.388636363636362,
                "pitch": 64,
                "velocity": 64,
                "duration": 0.027272727272727337,
                "tempo": 120.0
            },
            {
                "start_time": 19.552272727272726,
                "end_time": 19.647727272727273,
                "pitch": 64,
                "velocity": 4,
                "duration": 0.09545454545454746,
                "tempo": 120.0
            },
            {
                "start_time": 19.647727272727273,
                "end_time": 19.659090909090907,
                "pitch": 64,
                "velocity": 64,
                "duration": 0.011363636363633134,
                "tempo": 120.0
            },
            {
                "start_time": 19.743181818181817,
                "end_time": 19.84318181818182,
                "pitch": 64,
                "velocity": 4,
                "duration": 0.10000000000000142,
                "tempo": 120.0
            },
            {
                "start_time": 19.845454545454544,
                "end_time": 19.85681818181818,
                "pitch": 64,
                "velocity": 64,
                "duration": 0.011363636363636687,
                "tempo": 120.0
            },
            {
                "start_time": 19.943181818181817,
                "end_time": 20.043181818181818,
                "pitch": 64,
                "velocity": 4,
                "duration": 0.10000000000000142,
                "tempo": 120.0
            },
            {
                "start_time": 20.043181818181818,
                "end_time": 20.145454545454545,
                "pitch": 64,
                "velocity": 4,
                "duration": 0.10227272727272663,
                "tempo": 120.0
            },
            {
                "start_time": 20.145454545454545,
                "end_time": 20.175,
                "pitch": 64,
                "velocity": 64,
                "duration": 0.029545454545456096,
                "tempo": 120.0
            },
            {
                "start_time": 20.349999999999998,
                "end_time": 20.452272727272728,
                "pitch": 64,
                "velocity": 4,
                "duration": 0.10227272727273018,
                "tempo": 120.0
            },
            {
                "start_time": 20.454545454545453,
                "end_time": 20.46590909090909,
                "pitch": 64,
                "velocity": 64,
                "duration": 0.011363636363636687,
                "tempo": 120.0
            },
            {
                "start_time": 20.55681818181818,
                "end_time": 20.659090909090907,
                "pitch": 64,
                "velocity": 4,
                "duration": 0.10227272727272663,
                "tempo": 120.0
            },
            {
                "start_time": 20.659090909090907,
                "end_time": 20.672727272727272,
                "pitch": 64,
                "velocity": 64,
                "duration": 0.013636363636365445,
                "tempo": 120.0
            },
            {
                "start_time": 7.968181818181818,
                "end_time": 20.863636363636363,
                "pitch": 62,
                "velocity": 4,
                "duration": 12.895454545454545,
                "tempo": 120.0
            },
            {
                "start_time": 20.761363636363637,
                "end_time": 20.863636363636363,
                "pitch": 64,
                "velocity": 4,
                "duration": 0.10227272727272663,
                "tempo": 120.0
            },
            {
                "start_time": 21.66590909090909,
                "end_time": 21.96818181818182,
                "pitch": 57,
                "velocity": 4,
                "duration": 0.30227272727272947,
                "tempo": 120.0
            },
            {
                "start_time": 21.96818181818182,
                "end_time": 21.995454545454546,
                "pitch": 64,
                "velocity": 4,
                "duration": 0.027272727272727337,
                "tempo": 120.0
            },
            {
                "start_time": 21.96818181818182,
                "end_time": 21.995454545454546,
                "pitch": 64,
                "velocity": 64,
                "duration": 0.027272727272727337,
                "tempo": 120.0
            },
            {
                "start_time": 22.163636363636364,
                "end_time": 22.263636363636362,
                "pitch": 64,
                "velocity": 4,
                "duration": 0.09999999999999787,
                "tempo": 120.0
            },
            {
                "start_time": 22.26590909090909,
                "end_time": 22.277272727272727,
                "pitch": 64,
                "velocity": 64,
                "duration": 0.011363636363636687,
                "tempo": 120.0
            },
            {
                "start_time": 22.36590909090909,
                "end_time": 22.377272727272725,
                "pitch": 64,
                "velocity": 64,
                "duration": 0.011363636363636687,
                "tempo": 120.0
            },
            {
                "start_time": 22.46363636363636,
                "end_time": 22.56590909090909,
                "pitch": 64,
                "velocity": 4,
                "duration": 0.10227272727273018,
                "tempo": 120.0
            },
            {
                "start_time": 22.56590909090909,
                "end_time": 22.59318181818182,
                "pitch": 64,
                "velocity": 64,
                "duration": 0.027272727272727337,
                "tempo": 120.0
            },
            {
                "start_time": 22.763636363636362,
                "end_time": 22.86590909090909,
                "pitch": 64,
                "velocity": 4,
                "duration": 0.10227272727272663,
                "tempo": 120.0
            },
            {
                "start_time": 22.86590909090909,
                "end_time": 22.877272727272725,
                "pitch": 64,
                "velocity": 64,
                "duration": 0.011363636363636687,
                "tempo": 120.0
            },
            {
                "start_time": 22.96590909090909,
                "end_time": 23.06590909090909,
                "pitch": 64,
                "velocity": 4,
                "duration": 0.10000000000000142,
                "tempo": 120.0
            },
            {
                "start_time": 23.06590909090909,
                "end_time": 23.079545454545453,
                "pitch": 64,
                "velocity": 64,
                "duration": 0.013636363636361892,
                "tempo": 120.0
            },
            {
                "start_time": 23.16590909090909,
                "end_time": 23.26590909090909,
                "pitch": 64,
                "velocity": 4,
                "duration": 0.10000000000000142,
                "tempo": 120.0
            },
            {
                "start_time": 23.268181818181816,
                "end_time": 23.368181818181817,
                "pitch": 64,
                "velocity": 4,
                "duration": 0.10000000000000142,
                "tempo": 120.0
            },
            {
                "start_time": 23.370454545454546,
                "end_time": 23.39772727272727,
                "pitch": 64,
                "velocity": 64,
                "duration": 0.027272727272723785,
                "tempo": 120.0
            },
            {
                "start_time": 23.575,
                "end_time": 23.677272727272726,
                "pitch": 64,
                "velocity": 4,
                "duration": 0.10227272727272663,
                "tempo": 120.0
            },
            {
                "start_time": 23.677272727272726,
                "end_time": 23.69090909090909,
                "pitch": 64,
                "velocity": 64,
                "duration": 0.013636363636365445,
                "tempo": 120.0
            },
            {
                "start_time": 23.779545454545453,
                "end_time": 23.877272727272725,
                "pitch": 64,
                "velocity": 4,
                "duration": 0.09772727272727266,
                "tempo": 120.0
            },
            {
                "start_time": 23.879545454545454,
                "end_time": 23.89090909090909,
                "pitch": 64,
                "velocity": 64,
                "duration": 0.011363636363636687,
                "tempo": 120.0
            },
            {
                "start_time": 23.974999999999998,
                "end_time": 24.075,
                "pitch": 64,
                "velocity": 4,
                "duration": 0.10000000000000142,
                "tempo": 120.0
            },
            {
                "start_time": 24.075,
                "end_time": 24.086363636363636,
                "pitch": 64,
                "velocity": 64,
                "duration": 0.011363636363636687,
                "tempo": 120.0
            },
            {
                "start_time": 24.172727272727272,
                "end_time": 24.27272727272727,
                "pitch": 64,
                "velocity": 4,
                "duration": 0.09999999999999787,
                "tempo": 120.0
            },
            {
                "start_time": 24.27272727272727,
                "end_time": 24.286363636363635,
                "pitch": 64,
                "velocity": 64,
                "duration": 0.013636363636365445,
                "tempo": 120.0
            },
            {
                "start_time": 24.37272727272727,
                "end_time": 24.470454545454544,
                "pitch": 64,
                "velocity": 4,
                "duration": 0.09772727272727266,
                "tempo": 120.0
            },
            {
                "start_time": 24.472727272727273,
                "end_time": 24.57272727272727,
                "pitch": 64,
                "velocity": 4,
                "duration": 0.09999999999999787,
                "tempo": 120.0
            },
            {
                "start_time": 24.575,
                "end_time": 24.620454545454542,
                "pitch": 64,
                "velocity": 64,
                "duration": 0.045454545454543194,
                "tempo": 120.0
            },
            {
                "start_time": 24.88181818181818,
                "end_time": 25.18409090909091,
                "pitch": 64,
                "velocity": 4,
                "duration": 0.30227272727272947,
                "tempo": 120.0
            },
            {
                "start_time": 25.186363636363634,
                "end_time": 25.21363636363636,
                "pitch": 64,
                "velocity": 64,
                "duration": 0.027272727272727337,
                "tempo": 120.0
            },
            {
                "start_time": 25.384090909090908,
                "end_time": 25.48409090909091,
                "pitch": 64,
                "velocity": 4,
                "duration": 0.10000000000000142,
                "tempo": 120.0
            },
            {
                "start_time": 25.48409090909091,
                "end_time": 25.495454545454542,
                "pitch": 64,
                "velocity": 64,
                "duration": 0.011363636363633134,
                "tempo": 120.0
            },
            {
                "start_time": 25.581818181818182,
                "end_time": 25.59318181818182,
                "pitch": 64,
                "velocity": 64,
                "duration": 0.011363636363636687,
                "tempo": 120.0
            },
            {
                "start_time": 25.679545454545455,
                "end_time": 25.777272727272727,
                "pitch": 64,
                "velocity": 4,
                "duration": 0.09772727272727266,
                "tempo": 120.0
            },
            {
                "start_time": 25.779545454545453,
                "end_time": 25.80681818181818,
                "pitch": 64,
                "velocity": 64,
                "duration": 0.027272727272727337,
                "tempo": 120.0
            },
            {
                "start_time": 25.98409090909091,
                "end_time": 26.086363636363636,
                "pitch": 64,
                "velocity": 4,
                "duration": 0.10227272727272663,
                "tempo": 120.0
            },
            {
                "start_time": 26.086363636363636,
                "end_time": 26.099999999999998,
                "pitch": 64,
                "velocity": 64,
                "duration": 0.013636363636361892,
                "tempo": 120.0
            },
            {
                "start_time": 26.188636363636363,
                "end_time": 26.29090909090909,
                "pitch": 64,
                "velocity": 4,
                "duration": 0.10227272727272663,
                "tempo": 120.0
            },
            {
                "start_time": 26.29090909090909,
                "end_time": 26.302272727272726,
                "pitch": 64,
                "velocity": 64,
                "duration": 0.011363636363636687,
                "tempo": 120.0
            },
            {
                "start_time": 26.388636363636362,
                "end_time": 26.49090909090909,
                "pitch": 64,
                "velocity": 4,
                "duration": 0.10227272727272663,
                "tempo": 120.0
            },
            {
                "start_time": 26.49090909090909,
                "end_time": 26.593181818181815,
                "pitch": 64,
                "velocity": 4,
                "duration": 0.10227272727272663,
                "tempo": 120.0
            },
            {
                "start_time": 26.593181818181815,
                "end_time": 26.62272727272727,
                "pitch": 64,
                "velocity": 64,
                "duration": 0.029545454545456096,
                "tempo": 120.0
            },
            {
                "start_time": 26.793181818181818,
                "end_time": 26.893181818181816,
                "pitch": 64,
                "velocity": 4,
                "duration": 0.09999999999999787,
                "tempo": 120.0
            },
            {
                "start_time": 26.893181818181816,
                "end_time": 26.904545454545453,
                "pitch": 64,
                "velocity": 64,
                "duration": 0.011363636363636687,
                "tempo": 120.0
            },
            {
                "start_time": 26.993181818181817,
                "end_time": 27.093181818181815,
                "pitch": 64,
                "velocity": 4,
                "duration": 0.09999999999999787,
                "tempo": 120.0
            },
            {
                "start_time": 27.093181818181815,
                "end_time": 27.10681818181818,
                "pitch": 64,
                "velocity": 64,
                "duration": 0.013636363636365445,
                "tempo": 120.0
            },
            {
                "start_time": 20.863636363636363,
                "end_time": 27.293181818181818,
                "pitch": 62,
                "velocity": 4,
                "duration": 6.429545454545455,
                "tempo": 120.0
            },
            {
                "start_time": 27.193181818181817,
                "end_time": 27.293181818181818,
                "pitch": 64,
                "velocity": 4,
                "duration": 0.10000000000000142,
                "tempo": 120.0
            },
            {
                "start_time": 27.293181818181818,
                "end_time": 28.404545454545453,
                "pitch": 62,
                "velocity": 4,
                "duration": 1.1113636363636346,
                "tempo": 120.0
            },
            {
                "start_time": 28.10909090909091,
                "end_time": 28.404545454545453,
                "pitch": 62,
                "velocity": 4,
                "duration": 0.2954545454545432,
                "tempo": 120.0
            },
            {
                "start_time": 28.404545454545453,
                "end_time": 28.43409090909091,
                "pitch": 64,
                "velocity": 4,
                "duration": 0.029545454545456096,
                "tempo": 120.0
            },
            {
                "start_time": 28.404545454545453,
                "end_time": 28.43409090909091,
                "pitch": 64,
                "velocity": 64,
                "duration": 0.029545454545456096,
                "tempo": 120.0
            }
        ],
        "Trumpet": [
            {
                "start_time": 7.970454545454545,
                "end_time": 7.997727272727272,
                "pitch": 86,
                "velocity": 127,
                "duration": 0.027272727272727337,
                "tempo": 120.0
            },
            {
                "start_time": 8.065909090909091,
                "end_time": 8.097727272727273,
                "pitch": 86,
                "velocity": 127,
                "duration": 0.0318181818181813,
                "tempo": 120.0
            },
            {
                "start_time": 8.170454545454545,
                "end_time": 8.197727272727272,
                "pitch": 81,
                "velocity": 127,
                "duration": 0.027272727272727337,
                "tempo": 120.0
            },
            {
                "start_time": 8.270454545454545,
                "end_time": 8.299999999999999,
                "pitch": 81,
                "velocity": 127,
                "duration": 0.02954545454545432,
                "tempo": 120.0
            },
            {
                "start_time": 8.370454545454544,
                "end_time": 8.4,
                "pitch": 86,
                "velocity": 127,
                "duration": 0.029545454545456096,
                "tempo": 120.0
            },
            {
                "start_time": 8.472727272727273,
                "end_time": 8.502272727272727,
                "pitch": 86,
                "velocity": 127,
                "duration": 0.02954545454545432,
                "tempo": 120.0
            },
            {
                "start_time": 8.575,
                "end_time": 8.604545454545454,
                "pitch": 81,
                "velocity": 127,
                "duration": 0.02954545454545432,
                "tempo": 120.0
            },
            {
                "start_time": 8.677272727272728,
                "end_time": 8.706818181818182,
                "pitch": 81,
                "velocity": 127,
                "duration": 0.02954545454545432,
                "tempo": 120.0
            },
            {
                "start_time": 14.415909090909091,
                "end_time": 14.443181818181818,
                "pitch": 57,
                "velocity": 127,
                "duration": 0.027272727272727337,
                "tempo": 120.0
            },
            {
                "start_time": 14.511363636363635,
                "end_time": 14.543181818181818,
                "pitch": 56,
                "velocity": 127,
                "duration": 0.03181818181818308,
                "tempo": 120.0
            },
            {
                "start_time": 14.618181818181817,
                "end_time": 14.645454545454545,
                "pitch": 57,
                "velocity": 127,
                "duration": 0.027272727272727337,
                "tempo": 120.0
            },
            {
                "start_time": 14.720454545454544,
                "end_time": 14.747727272727271,
                "pitch": 59,
                "velocity": 127,
                "duration": 0.027272727272727337,
                "tempo": 120.0
            },
            {
                "start_time": 14.820454545454545,
                "end_time": 14.924999999999999,
                "pitch": 59,
                "velocity": 4,
                "duration": 0.10454545454545361,
                "tempo": 120.0
            },
            {
                "start_time": 14.924999999999999,
                "end_time": 14.954545454545453,
                "pitch": 64,
                "velocity": 4,
                "duration": 0.02954545454545432,
                "tempo": 120.0
            },
            {
                "start_time": 14.927272727272726,
                "end_time": 14.954545454545453,
                "pitch": 64,
                "velocity": 127,
                "duration": 0.027272727272727337,
                "tempo": 120.0
            },
            {
                "start_time": 15.022727272727272,
                "end_time": 15.127272727272727,
                "pitch": 64,
                "velocity": 4,
                "duration": 0.10454545454545539,
                "tempo": 120.0
            },
            {
                "start_time": 15.127272727272727,
                "end_time": 15.154545454545454,
                "pitch": 71,
                "velocity": 127,
                "duration": 0.027272727272727337,
                "tempo": 120.0
            },
            {
                "start_time": 20.86590909090909,
                "end_time": 20.895454545454545,
                "pitch": 86,
                "velocity": 127,
                "duration": 0.029545454545456096,
                "tempo": 120.0
            },
            {
                "start_time": 20.96590909090909,
                "end_time": 20.995454545454546,
                "pitch": 86,
                "velocity": 127,
                "duration": 0.029545454545456096,
                "tempo": 120.0
            },
            {
                "start_time": 21.063636363636363,
                "end_time": 21.09090909090909,
                "pitch": 81,
                "velocity": 127,
                "duration": 0.027272727272727337,
                "tempo": 120.0
            },
            {
                "start_time": 21.159090909090907,
                "end_time": 21.186363636363634,
                "pitch": 81,
                "velocity": 127,
                "duration": 0.027272727272727337,
                "tempo": 120.0
            },
            {
                "start_time": 21.254545454545454,
                "end_time": 21.28181818181818,
                "pitch": 86,
                "velocity": 127,
                "duration": 0.027272727272727337,
                "tempo": 120.0
            },
            {
                "start_time": 21.349999999999998,
                "end_time": 21.379545454545454,
                "pitch": 86,
                "velocity": 127,
                "duration": 0.029545454545456096,
                "tempo": 120.0
            },
            {
                "start_time": 21.454545454545453,
                "end_time": 21.486363636363635,
                "pitch": 81,
                "velocity": 127,
                "duration": 0.0318181818181813,
                "tempo": 120.0
            },
            {
                "start_time": 21.561363636363634,
                "end_time": 21.59090909090909,
                "pitch": 81,
                "velocity": 127,
                "duration": 0.029545454545456096,
                "tempo": 120.0
            },
            {
                "start_time": 27.295454545454543,
                "end_time": 27.32272727272727,
                "pitch": 74,
                "velocity": 127,
                "duration": 0.027272727272727337,
                "tempo": 120.0
            },
            {
                "start_time": 27.393181818181816,
                "end_time": 27.456818181818182,
                "pitch": 78,
                "velocity": 127,
                "duration": 0.06363636363636616,
                "tempo": 120.0
            },
            {
                "start_time": 27.599999999999998,
                "end_time": 27.629545454545454,
                "pitch": 78,
                "velocity": 127,
                "duration": 0.029545454545456096,
                "tempo": 120.0
            },
            {
                "start_time": 27.702272727272724,
                "end_time": 27.73181818181818,
                "pitch": 81,
                "velocity": 127,
                "duration": 0.029545454545456096,
                "tempo": 120.0
            },
            {
                "start_time": 27.80681818181818,
                "end_time": 27.818181818181817,
                "pitch": 74,
                "velocity": 127,
                "duration": 0.011363636363636687,
                "tempo": 120.0
            },
            {
                "start_time": 27.90681818181818,
                "end_time": 27.936363636363634,
                "pitch": 80,
                "velocity": 127,
                "duration": 0.029545454545452543,
                "tempo": 120.0
            },
            {
                "start_time": 28.009090909090908,
                "end_time": 28.036363636363635,
                "pitch": 74,
                "velocity": 127,
                "duration": 0.027272727272727337,
                "tempo": 120.0
            }
        ],
        "Acoustic Grand Piano": [
            {
                "start_time": 0.011363636363636364,
                "end_time": 0.10681818181818181,
                "pitch": 0,
                "velocity": 4,
                "duration": 0.09545454545454544,
                "tempo": 120.0
            },
            {
                "start_time": 0.10909090909090909,
                "end_time": 0.12045454545454545,
                "pitch": 38,
                "velocity": 101,
                "duration": 0.011363636363636367,
                "tempo": 120.0
            },
            {
                "start_time": 0.21136363636363636,
                "end_time": 0.22272727272727272,
                "pitch": 38,
                "velocity": 101,
                "duration": 0.011363636363636354,
                "tempo": 120.0
            },
            {
                "start_time": 0.3159090909090909,
                "end_time": 0.34318181818181814,
                "pitch": 38,
                "velocity": 101,
                "duration": 0.027272727272727226,
                "tempo": 120.0
            },
            {
                "start_time": 0.5204545454545454,
                "end_time": 0.5318181818181817,
                "pitch": 38,
                "velocity": 101,
                "duration": 0.011363636363636354,
                "tempo": 120.0
            },
            {
                "start_time": 0.6295454545454545,
                "end_time": 0.6795454545454546,
                "pitch": 39,
                "velocity": 101,
                "duration": 0.050000000000000044,
                "tempo": 120.0
            },
            {
                "start_time": 1.018181818181818,
                "end_time": 1.1363636363636362,
                "pitch": 51,
                "velocity": 4,
                "duration": 0.11818181818181817,
                "tempo": 120.0
            },
            {
                "start_time": 1.1363636363636362,
                "end_time": 1.1568181818181817,
                "pitch": 52,
                "velocity": 101,
                "duration": 0.020454545454545503,
                "tempo": 120.0
            },
            {
                "start_time": 1.268181818181818,
                "end_time": 1.2863636363636364,
                "pitch": 50,
                "velocity": 101,
                "duration": 0.0181818181818183,
                "tempo": 120.0
            },
            {
                "start_time": 1.3886363636363637,
                "end_time": 1.4068181818181817,
                "pitch": 47,
                "velocity": 101,
                "duration": 0.018181818181818077,
                "tempo": 120.0
            },
            {
                "start_time": 1.5136363636363637,
                "end_time": 1.5272727272727271,
                "pitch": 45,
                "velocity": 101,
                "duration": 0.013636363636363447,
                "tempo": 120.0
            },
            {
                "start_time": 1.634090909090909,
                "end_time": 1.65,
                "pitch": 44,
                "velocity": 101,
                "duration": 0.015909090909090873,
                "tempo": 120.0
            },
            {
                "start_time": 1.7568181818181818,
                "end_time": 1.7704545454545453,
                "pitch": 43,
                "velocity": 101,
                "duration": 0.013636363636363447,
                "tempo": 120.0
            },
            {
                "start_time": 1.8772727272727272,
                "end_time": 1.893181818181818,
                "pitch": 40,
                "velocity": 101,
                "duration": 0.015909090909090873,
                "tempo": 120.0
            },
            {
                "start_time": 2.006818181818182,
                "end_time": 2.0636363636363635,
                "pitch": 40,
                "velocity": 101,
                "duration": 0.05681818181818166,
                "tempo": 120.0
            },
            {
                "start_time": 2.3909090909090907,
                "end_time": 2.4068181818181817,
                "pitch": 40,
                "velocity": 101,
                "duration": 0.015909090909091095,
                "tempo": 120.0
            },
            {
                "start_time": 2.5136363636363637,
                "end_time": 2.534090909090909,
                "pitch": 28,
                "velocity": 101,
                "duration": 0.020454545454545503,
                "tempo": 120.0
            },
            {
                "start_time": 2.643181818181818,
                "end_time": 2.659090909090909,
                "pitch": 40,
                "velocity": 101,
                "duration": 0.015909090909091095,
                "tempo": 120.0
            },
            {
                "start_time": 2.7704545454545455,
                "end_time": 2.784090909090909,
                "pitch": 38,
                "velocity": 101,
                "duration": 0.013636363636363669,
                "tempo": 120.0
            },
            {
                "start_time": 2.8954545454545455,
                "end_time": 2.909090909090909,
                "pitch": 40,
                "velocity": 101,
                "duration": 0.013636363636363669,
                "tempo": 120.0
            },
            {
                "start_time": 3.018181818181818,
                "end_time": 3.0340909090909087,
                "pitch": 28,
                "velocity": 101,
                "duration": 0.01590909090909065,
                "tempo": 120.0
            },
            {
                "start_time": 3.1454545454545455,
                "end_time": 3.1818181818181817,
                "pitch": 38,
                "velocity": 101,
                "duration": 0.036363636363636154,
                "tempo": 120.0
            },
            {
                "start_time": 3.393181818181818,
                "end_time": 3.4090909090909087,
                "pitch": 28,
                "velocity": 101,
                "duration": 0.01590909090909065,
                "tempo": 120.0
            },
            {
                "start_time": 3.5204545454545455,
                "end_time": 3.536363636363636,
                "pitch": 38,
                "velocity": 101,
                "duration": 0.01590909090909065,
                "tempo": 120.0
            },
            {
                "start_time": 3.643181818181818,
                "end_time": 3.6568181818181817,
                "pitch": 28,
                "velocity": 101,
                "duration": 0.013636363636363669,
                "tempo": 120.0
            },
            {
                "start_time": 3.745454545454545,
                "end_time": 3.7727272727272725,
                "pitch": 37,
                "velocity": 101,
                "duration": 0.027272727272727337,
                "tempo": 120.0
            },
            {
                "start_time": 3.943181818181818,
                "end_time": 3.9568181818181816,
                "pitch": 28,
                "velocity": 101,
                "duration": 0.013636363636363669,
                "tempo": 120.0
            },
            {
                "start_time": 4.045454545454545,
                "end_time": 4.075,
                "pitch": 38,
                "velocity": 101,
                "duration": 0.029545454545455208,
                "tempo": 120.0
            },
            {
                "start_time": 4.245454545454545,
                "end_time": 4.259090909090909,
                "pitch": 28,
                "velocity": 101,
                "duration": 0.013636363636363669,
                "tempo": 120.0
            },
            {
                "start_time": 4.347727272727273,
                "end_time": 4.361363636363636,
                "pitch": 38,
                "velocity": 101,
                "duration": 0.013636363636363669,
                "tempo": 120.0
            },
            {
                "start_time": 4.447727272727272,
                "end_time": 4.461363636363636,
                "pitch": 28,
                "velocity": 101,
                "duration": 0.013636363636363669,
                "tempo": 120.0
            },
            {
                "start_time": 4.55,
                "end_time": 4.5613636363636365,
                "pitch": 37,
                "velocity": 101,
                "duration": 0.011363636363636687,
                "tempo": 120.0
            },
            {
                "start_time": 4.6477272727272725,
                "end_time": 4.661363636363636,
                "pitch": 28,
                "velocity": 101,
                "duration": 0.013636363636363669,
                "tempo": 120.0
            },
            {
                "start_time": 4.75,
                "end_time": 4.761363636363636,
                "pitch": 38,
                "velocity": 101,
                "duration": 0.011363636363635798,
                "tempo": 120.0
            },
            {
                "start_time": 4.847727272727273,
                "end_time": 4.861363636363636,
                "pitch": 28,
                "velocity": 101,
                "duration": 0.013636363636363669,
                "tempo": 120.0
            },
            {
                "start_time": 4.947727272727272,
                "end_time": 4.959090909090909,
                "pitch": 37,
                "velocity": 101,
                "duration": 0.011363636363636687,
                "tempo": 120.0
            },
            {
                "start_time": 5.045454545454545,
                "end_time": 5.056818181818182,
                "pitch": 28,
                "velocity": 101,
                "duration": 0.011363636363636687,
                "tempo": 120.0
            },
            {
                "start_time": 5.143181818181818,
                "end_time": 5.154545454545454,
                "pitch": 35,
                "velocity": 101,
                "duration": 0.011363636363636687,
                "tempo": 120.0
            },
            {
                "start_time": 5.243181818181818,
                "end_time": 5.288636363636363,
                "pitch": 33,
                "velocity": 101,
                "duration": 0.04545454545454497,
                "tempo": 120.0
            },
            {
                "start_time": 5.556818181818182,
                "end_time": 5.6068181818181815,
                "pitch": 28,
                "velocity": 101,
                "duration": 0.04999999999999982,
                "tempo": 120.0
            },
            {
                "start_time": 5.861363636363636,
                "end_time": 5.872727272727272,
                "pitch": 40,
                "velocity": 101,
                "duration": 0.011363636363635798,
                "tempo": 120.0
            },
            {
                "start_time": 5.954545454545454,
                "end_time": 5.970454545454545,
                "pitch": 28,
                "velocity": 101,
                "duration": 0.01590909090909065,
                "tempo": 120.0
            },
            {
                "start_time": 6.056818181818182,
                "end_time": 6.0681818181818175,
                "pitch": 40,
                "velocity": 101,
                "duration": 0.011363636363635798,
                "tempo": 120.0
            },
            {
                "start_time": 6.159090909090909,
                "end_time": 6.170454545454545,
                "pitch": 38,
                "velocity": 101,
                "duration": 0.011363636363635798,
                "tempo": 120.0
            },
            {
                "start_time": 6.259090909090909,
                "end_time": 6.2704545454545455,
                "pitch": 40,
                "velocity": 101,
                "duration": 0.011363636363636687,
                "tempo": 120.0
            },
            {
                "start_time": 6.3590909090909085,
                "end_time": 6.370454545454545,
                "pitch": 28,
                "velocity": 101,
                "duration": 0.011363636363636687,
                "tempo": 120.0
            },
            {
                "start_time": 6.461363636363636,
                "end_time": 6.488636363636363,
                "pitch": 38,
                "velocity": 101,
                "duration": 0.027272727272727337,
                "tempo": 120.0
            },
            {
                "start_time": 6.659090909090909,
                "end_time": 6.672727272727273,
                "pitch": 28,
                "velocity": 101,
                "duration": 0.013636363636363669,
                "tempo": 120.0
            },
            {
                "start_time": 6.761363636363636,
                "end_time": 6.7727272727272725,
                "pitch": 38,
                "velocity": 101,
                "duration": 0.011363636363636687,
                "tempo": 120.0
            },
            {
                "start_time": 6.8590909090909085,
                "end_time": 6.872727272727272,
                "pitch": 28,
                "velocity": 101,
                "duration": 0.013636363636363669,
                "tempo": 120.0
            },
            {
                "start_time": 6.959090909090909,
                "end_time": 6.986363636363636,
                "pitch": 40,
                "velocity": 101,
                "duration": 0.027272727272727337,
                "tempo": 120.0
            },
            {
                "start_time": 7.154545454545454,
                "end_time": 7.16590909090909,
                "pitch": 28,
                "velocity": 101,
                "duration": 0.011363636363635798,
                "tempo": 120.0
            },
            {
                "start_time": 7.254545454545454,
                "end_time": 7.284090909090909,
                "pitch": 38,
                "velocity": 101,
                "duration": 0.029545454545455208,
                "tempo": 120.0
            },
            {
                "start_time": 7.463636363636363,
                "end_time": 7.477272727272727,
                "pitch": 28,
                "velocity": 101,
                "duration": 0.013636363636363669,
                "tempo": 120.0
            },
            {
                "start_time": 7.570454545454545,
                "end_time": 7.584090909090909,
                "pitch": 38,
                "velocity": 101,
                "duration": 0.013636363636363669,
                "tempo": 120.0
            },
            {
                "start_time": 7.675,
                "end_time": 7.686363636363636,
                "pitch": 28,
                "velocity": 101,
                "duration": 0.011363636363635798,
                "tempo": 120.0
            },
            {
                "start_time": 7.7749999999999995,
                "end_time": 7.786363636363636,
                "pitch": 37,
                "velocity": 101,
                "duration": 0.011363636363636687,
                "tempo": 120.0
            },
            {
                "start_time": 7.870454545454545,
                "end_time": 7.884090909090909,
                "pitch": 28,
                "velocity": 101,
                "duration": 0.013636363636363669,
                "tempo": 120.0
            },
            {
                "start_time": 7.970454545454545,
                "end_time": 7.9818181818181815,
                "pitch": 32,
                "velocity": 101,
                "duration": 0.011363636363636687,
                "tempo": 120.0
            },
            {
                "start_time": 8.065909090909091,
                "end_time": 8.079545454545455,
                "pitch": 28,
                "velocity": 101,
                "duration": 0.013636363636363669,
                "tempo": 120.0
            },
            {
                "start_time": 8.170454545454545,
                "end_time": 8.181818181818182,
                "pitch": 33,
                "velocity": 101,
                "duration": 0.011363636363636687,
                "tempo": 120.0
            },
            {
                "start_time": 8.270454545454545,
                "end_time": 8.281818181818181,
                "pitch": 28,
                "velocity": 101,
                "duration": 0.011363636363636687,
                "tempo": 120.0
            },
            {
                "start_time": 8.370454545454544,
                "end_time": 8.381818181818181,
                "pitch": 35,
                "velocity": 101,
                "duration": 0.011363636363636687,
                "tempo": 120.0
            },
            {
                "start_time": 8.470454545454546,
                "end_time": 8.5,
                "pitch": 38,
                "velocity": 101,
                "duration": 0.02954545454545432,
                "tempo": 120.0
            },
            {
                "start_time": 8.677272727272728,
                "end_time": 8.688636363636363,
                "pitch": 28,
                "velocity": 101,
                "duration": 0.01136363636363491,
                "tempo": 120.0
            },
            {
                "start_time": 8.779545454545454,
                "end_time": 8.827272727272726,
                "pitch": 28,
                "velocity": 101,
                "duration": 0.04772727272727195,
                "tempo": 120.0
            },
            {
                "start_time": 9.079545454545453,
                "end_time": 9.09090909090909,
                "pitch": 40,
                "velocity": 101,
                "duration": 0.011363636363636687,
                "tempo": 120.0
            },
            {
                "start_time": 9.172727272727272,
                "end_time": 9.188636363636363,
                "pitch": 28,
                "velocity": 101,
                "duration": 0.01590909090909065,
                "tempo": 120.0
            },
            {
                "start_time": 9.275,
                "end_time": 9.286363636363635,
                "pitch": 40,
                "velocity": 101,
                "duration": 0.01136363636363491,
                "tempo": 120.0
            },
            {
                "start_time": 9.375,
                "end_time": 9.388636363636364,
                "pitch": 38,
                "velocity": 101,
                "duration": 0.013636363636363669,
                "tempo": 120.0
            },
            {
                "start_time": 9.475,
                "end_time": 9.488636363636363,
                "pitch": 40,
                "velocity": 101,
                "duration": 0.013636363636363669,
                "tempo": 120.0
            },
            {
                "start_time": 9.575,
                "end_time": 9.588636363636363,
                "pitch": 28,
                "velocity": 101,
                "duration": 0.013636363636363669,
                "tempo": 120.0
            },
            {
                "start_time": 9.677272727272726,
                "end_time": 9.704545454545453,
                "pitch": 38,
                "velocity": 101,
                "duration": 0.027272727272727337,
                "tempo": 120.0
            },
            {
                "start_time": 9.877272727272727,
                "end_time": 9.888636363636364,
                "pitch": 28,
                "velocity": 101,
                "duration": 0.011363636363636687,
                "tempo": 120.0
            },
            {
                "start_time": 9.979545454545454,
                "end_time": 9.99090909090909,
                "pitch": 38,
                "velocity": 101,
                "duration": 0.011363636363636687,
                "tempo": 120.0
            },
            {
                "start_time": 10.079545454545453,
                "end_time": 10.09090909090909,
                "pitch": 28,
                "velocity": 101,
                "duration": 0.011363636363636687,
                "tempo": 120.0
            },
            {
                "start_time": 10.179545454545455,
                "end_time": 10.209090909090909,
                "pitch": 37,
                "velocity": 101,
                "duration": 0.02954545454545432,
                "tempo": 120.0
            },
            {
                "start_time": 10.379545454545454,
                "end_time": 10.393181818181818,
                "pitch": 28,
                "velocity": 101,
                "duration": 0.013636363636363669,
                "tempo": 120.0
            },
            {
                "start_time": 10.48409090909091,
                "end_time": 10.511363636363637,
                "pitch": 38,
                "velocity": 101,
                "duration": 0.027272727272727337,
                "tempo": 120.0
            },
            {
                "start_time": 10.686363636363636,
                "end_time": 10.7,
                "pitch": 28,
                "velocity": 101,
                "duration": 0.013636363636363669,
                "tempo": 120.0
            },
            {
                "start_time": 10.790909090909091,
                "end_time": 10.804545454545455,
                "pitch": 38,
                "velocity": 101,
                "duration": 0.013636363636363669,
                "tempo": 120.0
            },
            {
                "start_time": 10.893181818181818,
                "end_time": 10.906818181818181,
                "pitch": 28,
                "velocity": 101,
                "duration": 0.013636363636363669,
                "tempo": 120.0
            },
            {
                "start_time": 10.997727272727273,
                "end_time": 11.009090909090908,
                "pitch": 37,
                "velocity": 101,
                "duration": 0.01136363636363491,
                "tempo": 120.0
            },
            {
                "start_time": 11.1,
                "end_time": 11.111363636363636,
                "pitch": 28,
                "velocity": 101,
                "duration": 0.011363636363636687,
                "tempo": 120.0
            },
            {
                "start_time": 11.202272727272726,
                "end_time": 11.21590909090909,
                "pitch": 38,
                "velocity": 101,
                "duration": 0.013636363636363669,
                "tempo": 120.0
            },
            {
                "start_time": 11.304545454545455,
                "end_time": 11.31590909090909,
                "pitch": 28,
                "velocity": 101,
                "duration": 0.01136363636363491,
                "tempo": 120.0
            },
            {
                "start_time": 11.399999999999999,
                "end_time": 11.411363636363635,
                "pitch": 37,
                "velocity": 101,
                "duration": 0.011363636363636687,
                "tempo": 120.0
            },
            {
                "start_time": 11.495454545454544,
                "end_time": 11.506818181818181,
                "pitch": 28,
                "velocity": 101,
                "duration": 0.011363636363636687,
                "tempo": 120.0
            },
            {
                "start_time": 11.59090909090909,
                "end_time": 11.602272727272727,
                "pitch": 35,
                "velocity": 101,
                "duration": 0.011363636363636687,
                "tempo": 120.0
            },
            {
                "start_time": 11.688636363636363,
                "end_time": 11.73409090909091,
                "pitch": 33,
                "velocity": 101,
                "duration": 0.045454545454546746,
                "tempo": 120.0
            },
            {
                "start_time": 11.995454545454544,
                "end_time": 12.043181818181818,
                "pitch": 28,
                "velocity": 101,
                "duration": 0.04772727272727373,
                "tempo": 120.0
            },
            {
                "start_time": 12.299999999999999,
                "end_time": 12.313636363636363,
                "pitch": 40,
                "velocity": 101,
                "duration": 0.013636363636363669,
                "tempo": 120.0
            },
            {
                "start_time": 12.397727272727272,
                "end_time": 12.413636363636362,
                "pitch": 28,
                "velocity": 101,
                "duration": 0.01590909090909065,
                "tempo": 120.0
            },
            {
                "start_time": 12.502272727272727,
                "end_time": 12.513636363636364,
                "pitch": 40,
                "velocity": 101,
                "duration": 0.011363636363636687,
                "tempo": 120.0
            },
            {
                "start_time": 12.604545454545454,
                "end_time": 12.618181818181817,
                "pitch": 38,
                "velocity": 101,
                "duration": 0.013636363636363669,
                "tempo": 120.0
            },
            {
                "start_time": 12.706818181818182,
                "end_time": 12.720454545454546,
                "pitch": 40,
                "velocity": 101,
                "duration": 0.013636363636363669,
                "tempo": 120.0
            },
            {
                "start_time": 12.809090909090909,
                "end_time": 12.822727272727272,
                "pitch": 28,
                "velocity": 101,
                "duration": 0.013636363636363669,
                "tempo": 120.0
            },
            {
                "start_time": 12.913636363636362,
                "end_time": 12.943181818181818,
                "pitch": 38,
                "velocity": 101,
                "duration": 0.029545454545456096,
                "tempo": 120.0
            },
            {
                "start_time": 13.113636363636363,
                "end_time": 13.127272727272727,
                "pitch": 28,
                "velocity": 101,
                "duration": 0.013636363636363669,
                "tempo": 120.0
            },
            {
                "start_time": 13.21590909090909,
                "end_time": 13.229545454545454,
                "pitch": 38,
                "velocity": 101,
                "duration": 0.013636363636363669,
                "tempo": 120.0
            },
            {
                "start_time": 13.31590909090909,
                "end_time": 13.329545454545453,
                "pitch": 28,
                "velocity": 101,
                "duration": 0.013636363636363669,
                "tempo": 120.0
            },
            {
                "start_time": 13.415909090909091,
                "end_time": 13.443181818181818,
                "pitch": 37,
                "velocity": 101,
                "duration": 0.027272727272727337,
                "tempo": 120.0
            },
            {
                "start_time": 13.609090909090908,
                "end_time": 13.622727272727271,
                "pitch": 28,
                "velocity": 101,
                "duration": 0.013636363636363669,
                "tempo": 120.0
            },
            {
                "start_time": 13.709090909090909,
                "end_time": 13.738636363636363,
                "pitch": 38,
                "velocity": 101,
                "duration": 0.02954545454545432,
                "tempo": 120.0
            },
            {
                "start_time": 13.913636363636362,
                "end_time": 13.927272727272726,
                "pitch": 28,
                "velocity": 101,
                "duration": 0.013636363636363669,
                "tempo": 120.0
            },
            {
                "start_time": 14.018181818181818,
                "end_time": 14.029545454545454,
                "pitch": 38,
                "velocity": 101,
                "duration": 0.011363636363636687,
                "tempo": 120.0
            },
            {
                "start_time": 14.120454545454544,
                "end_time": 14.131818181818181,
                "pitch": 28,
                "velocity": 101,
                "duration": 0.011363636363636687,
                "tempo": 120.0
            },
            {
                "start_time": 14.218181818181817,
                "end_time": 14.23181818181818,
                "pitch": 37,
                "velocity": 101,
                "duration": 0.013636363636363669,
                "tempo": 120.0
            },
            {
                "start_time": 14.31590909090909,
                "end_time": 14.329545454545453,
                "pitch": 28,
                "velocity": 101,
                "duration": 0.013636363636363669,
                "tempo": 120.0
            },
            {
                "start_time": 14.415909090909091,
                "end_time": 14.427272727272726,
                "pitch": 32,
                "velocity": 101,
                "duration": 0.01136363636363491,
                "tempo": 120.0
            },
            {
                "start_time": 14.511363636363635,
                "end_time": 14.524999999999999,
                "pitch": 28,
                "velocity": 101,
                "duration": 0.013636363636363669,
                "tempo": 120.0
            },
            {
                "start_time": 14.618181818181817,
                "end_time": 14.627272727272727,
                "pitch": 33,
                "velocity": 101,
                "duration": 0.009090909090909705,
                "tempo": 120.0
            },
            {
                "start_time": 14.720454545454544,
                "end_time": 14.73181818181818,
                "pitch": 28,
                "velocity": 101,
                "duration": 0.011363636363636687,
                "tempo": 120.0
            },
            {
                "start_time": 14.820454545454545,
                "end_time": 14.834090909090909,
                "pitch": 35,
                "velocity": 101,
                "duration": 0.013636363636363669,
                "tempo": 120.0
            },
            {
                "start_time": 14.924999999999999,
                "end_time": 14.954545454545453,
                "pitch": 38,
                "velocity": 101,
                "duration": 0.02954545454545432,
                "tempo": 120.0
            },
            {
                "start_time": 15.127272727272727,
                "end_time": 15.138636363636364,
                "pitch": 28,
                "velocity": 101,
                "duration": 0.011363636363636687,
                "tempo": 120.0
            },
            {
                "start_time": 15.227272727272727,
                "end_time": 15.272727272727272,
                "pitch": 28,
                "velocity": 101,
                "duration": 0.04545454545454497,
                "tempo": 120.0
            },
            {
                "start_time": 15.524999999999999,
                "end_time": 15.536363636363635,
                "pitch": 40,
                "velocity": 101,
                "duration": 0.011363636363636687,
                "tempo": 120.0
            },
            {
                "start_time": 15.618181818181817,
                "end_time": 15.634090909090908,
                "pitch": 28,
                "velocity": 101,
                "duration": 0.01590909090909065,
                "tempo": 120.0
            },
            {
                "start_time": 15.720454545454544,
                "end_time": 15.73181818181818,
                "pitch": 40,
                "velocity": 101,
                "duration": 0.011363636363636687,
                "tempo": 120.0
            },
            {
                "start_time": 15.822727272727272,
                "end_time": 15.834090909090909,
                "pitch": 38,
                "velocity": 101,
                "duration": 0.011363636363636687,
                "tempo": 120.0
            },
            {
                "start_time": 15.922727272727272,
                "end_time": 15.934090909090909,
                "pitch": 40,
                "velocity": 101,
                "duration": 0.011363636363636687,
                "tempo": 120.0
            },
            {
                "start_time": 16.022727272727273,
                "end_time": 16.03409090909091,
                "pitch": 28,
                "velocity": 101,
                "duration": 0.011363636363636687,
                "tempo": 120.0
            },
            {
                "start_time": 16.125,
                "end_time": 16.152272727272727,
                "pitch": 38,
                "velocity": 101,
                "duration": 0.027272727272727337,
                "tempo": 120.0
            },
            {
                "start_time": 16.325,
                "end_time": 16.33863636363636,
                "pitch": 28,
                "velocity": 101,
                "duration": 0.013636363636361892,
                "tempo": 120.0
            },
            {
                "start_time": 16.427272727272726,
                "end_time": 16.438636363636363,
                "pitch": 38,
                "velocity": 101,
                "duration": 0.011363636363636687,
                "tempo": 120.0
            },
            {
                "start_time": 16.527272727272727,
                "end_time": 16.538636363636364,
                "pitch": 28,
                "velocity": 101,
                "duration": 0.011363636363636687,
                "tempo": 120.0
            },
            {
                "start_time": 16.629545454545454,
                "end_time": 16.659090909090907,
                "pitch": 37,
                "velocity": 101,
                "duration": 0.029545454545452543,
                "tempo": 120.0
            },
            {
                "start_time": 16.834090909090907,
                "end_time": 16.847727272727273,
                "pitch": 28,
                "velocity": 101,
                "duration": 0.013636363636365445,
                "tempo": 120.0
            },
            {
                "start_time": 16.938636363636363,
                "end_time": 16.96818181818182,
                "pitch": 38,
                "velocity": 101,
                "duration": 0.029545454545456096,
                "tempo": 120.0
            },
            {
                "start_time": 17.138636363636362,
                "end_time": 17.152272727272727,
                "pitch": 28,
                "velocity": 101,
                "duration": 0.013636363636365445,
                "tempo": 120.0
            },
            {
                "start_time": 17.24090909090909,
                "end_time": 17.252272727272725,
                "pitch": 38,
                "velocity": 101,
                "duration": 0.011363636363636687,
                "tempo": 120.0
            },
            {
                "start_time": 17.34090909090909,
                "end_time": 17.354545454545455,
                "pitch": 28,
                "velocity": 101,
                "duration": 0.013636363636365445,
                "tempo": 120.0
            },
            {
                "start_time": 17.445454545454545,
                "end_time": 17.456818181818182,
                "pitch": 37,
                "velocity": 101,
                "duration": 0.011363636363636687,
                "tempo": 120.0
            },
            {
                "start_time": 17.547727272727272,
                "end_time": 17.55909090909091,
                "pitch": 28,
                "velocity": 101,
                "duration": 0.011363636363636687,
                "tempo": 120.0
            },
            {
                "start_time": 17.65,
                "end_time": 17.663636363636364,
                "pitch": 38,
                "velocity": 101,
                "duration": 0.013636363636365445,
                "tempo": 120.0
            },
            {
                "start_time": 17.752272727272725,
                "end_time": 17.763636363636362,
                "pitch": 28,
                "velocity": 101,
                "duration": 0.011363636363636687,
                "tempo": 120.0
            },
            {
                "start_time": 17.847727272727273,
                "end_time": 17.85909090909091,
                "pitch": 37,
                "velocity": 101,
                "duration": 0.011363636363636687,
                "tempo": 120.0
            },
            {
                "start_time": 17.943181818181817,
                "end_time": 17.954545454545453,
                "pitch": 28,
                "velocity": 101,
                "duration": 0.011363636363636687,
                "tempo": 120.0
            },
            {
                "start_time": 18.038636363636364,
                "end_time": 18.05,
                "pitch": 35,
                "velocity": 101,
                "duration": 0.011363636363636687,
                "tempo": 120.0
            },
            {
                "start_time": 18.136363636363637,
                "end_time": 18.18181818181818,
                "pitch": 33,
                "velocity": 101,
                "duration": 0.045454545454543194,
                "tempo": 120.0
            },
            {
                "start_time": 18.436363636363634,
                "end_time": 18.48409090909091,
                "pitch": 28,
                "velocity": 101,
                "duration": 0.047727272727275505,
                "tempo": 120.0
            },
            {
                "start_time": 18.745454545454546,
                "end_time": 18.75681818181818,
                "pitch": 40,
                "velocity": 101,
                "duration": 0.011363636363633134,
                "tempo": 120.0
            },
            {
                "start_time": 18.84318181818182,
                "end_time": 18.85909090909091,
                "pitch": 28,
                "velocity": 101,
                "duration": 0.01590909090909065,
                "tempo": 120.0
            },
            {
                "start_time": 18.95,
                "end_time": 18.96363636363636,
                "pitch": 40,
                "velocity": 101,
                "duration": 0.013636363636361892,
                "tempo": 120.0
            },
            {
                "start_time": 19.054545454545455,
                "end_time": 19.06590909090909,
                "pitch": 38,
                "velocity": 101,
                "duration": 0.011363636363636687,
                "tempo": 120.0
            },
            {
                "start_time": 19.15681818181818,
                "end_time": 19.168181818181818,
                "pitch": 40,
                "velocity": 101,
                "duration": 0.011363636363636687,
                "tempo": 120.0
            },
            {
                "start_time": 19.259090909090908,
                "end_time": 19.270454545454545,
                "pitch": 28,
                "velocity": 101,
                "duration": 0.011363636363636687,
                "tempo": 120.0
            },
            {
                "start_time": 19.361363636363635,
                "end_time": 19.388636363636362,
                "pitch": 38,
                "velocity": 101,
                "duration": 0.027272727272727337,
                "tempo": 120.0
            },
            {
                "start_time": 19.552272727272726,
                "end_time": 19.563636363636363,
                "pitch": 28,
                "velocity": 101,
                "duration": 0.011363636363636687,
                "tempo": 120.0
            },
            {
                "start_time": 19.647727272727273,
                "end_time": 19.659090909090907,
                "pitch": 38,
                "velocity": 101,
                "duration": 0.011363636363633134,
                "tempo": 120.0
            },
            {
                "start_time": 19.743181818181817,
                "end_time": 19.75681818181818,
                "pitch": 28,
                "velocity": 101,
                "duration": 0.013636363636361892,
                "tempo": 120.0
            },
            {
                "start_time": 19.845454545454544,
                "end_time": 19.87272727272727,
                "pitch": 40,
                "velocity": 101,
                "duration": 0.027272727272727337,
                "tempo": 120.0
            },
            {
                "start_time": 20.043181818181818,
                "end_time": 20.05681818181818,
                "pitch": 28,
                "velocity": 101,
                "duration": 0.013636363636361892,
                "tempo": 120.0
            },
            {
                "start_time": 20.145454545454545,
                "end_time": 20.175,
                "pitch": 38,
                "velocity": 101,
                "duration": 0.029545454545456096,
                "tempo": 120.0
            },
            {
                "start_time": 20.349999999999998,
                "end_time": 20.363636363636363,
                "pitch": 28,
                "velocity": 101,
                "duration": 0.013636363636365445,
                "tempo": 120.0
            },
            {
                "start_time": 20.454545454545453,
                "end_time": 20.46590909090909,
                "pitch": 38,
                "velocity": 101,
                "duration": 0.011363636363636687,
                "tempo": 120.0
            },
            {
                "start_time": 20.554545454545455,
                "end_time": 20.568181818181817,
                "pitch": 28,
                "velocity": 101,
                "duration": 0.013636363636361892,
                "tempo": 120.0
            },
            {
                "start_time": 20.659090909090907,
                "end_time": 20.672727272727272,
                "pitch": 37,
                "velocity": 101,
                "duration": 0.013636363636365445,
                "tempo": 120.0
            },
            {
                "start_time": 20.761363636363637,
                "end_time": 20.775,
                "pitch": 28,
                "velocity": 101,
                "duration": 0.013636363636361892,
                "tempo": 120.0
            },
            {
                "start_time": 20.86590909090909,
                "end_time": 20.877272727272725,
                "pitch": 32,
                "velocity": 101,
                "duration": 0.011363636363636687,
                "tempo": 120.0
            },
            {
                "start_time": 20.96590909090909,
                "end_time": 20.977272727272727,
                "pitch": 28,
                "velocity": 101,
                "duration": 0.011363636363636687,
                "tempo": 120.0
            },
            {
                "start_time": 21.063636363636363,
                "end_time": 21.075,
                "pitch": 33,
                "velocity": 101,
                "duration": 0.011363636363636687,
                "tempo": 120.0
            },
            {
                "start_time": 21.159090909090907,
                "end_time": 21.170454545454543,
                "pitch": 28,
                "velocity": 101,
                "duration": 0.011363636363636687,
                "tempo": 120.0
            },
            {
                "start_time": 21.254545454545454,
                "end_time": 21.26590909090909,
                "pitch": 35,
                "velocity": 101,
                "duration": 0.011363636363636687,
                "tempo": 120.0
            },
            {
                "start_time": 21.349999999999998,
                "end_time": 21.379545454545454,
                "pitch": 38,
                "velocity": 101,
                "duration": 0.029545454545456096,
                "tempo": 120.0
            },
            {
                "start_time": 21.561363636363634,
                "end_time": 21.57272727272727,
                "pitch": 28,
                "velocity": 101,
                "duration": 0.011363636363636687,
                "tempo": 120.0
            },
            {
                "start_time": 21.66590909090909,
                "end_time": 21.71363636363636,
                "pitch": 28,
                "velocity": 101,
                "duration": 0.04772727272727195,
                "tempo": 120.0
            },
            {
                "start_time": 21.96818181818182,
                "end_time": 21.979545454545452,
                "pitch": 40,
                "velocity": 101,
                "duration": 0.011363636363633134,
                "tempo": 120.0
            },
            {
                "start_time": 22.063636363636363,
                "end_time": 22.077272727272724,
                "pitch": 28,
                "velocity": 101,
                "duration": 0.013636363636361892,
                "tempo": 120.0
            },
            {
                "start_time": 22.163636363636364,
                "end_time": 22.177272727272726,
                "pitch": 40,
                "velocity": 101,
                "duration": 0.013636363636361892,
                "tempo": 120.0
            },
            {
                "start_time": 22.26590909090909,
                "end_time": 22.277272727272727,
                "pitch": 38,
                "velocity": 101,
                "duration": 0.011363636363636687,
                "tempo": 120.0
            },
            {
                "start_time": 22.363636363636363,
                "end_time": 22.377272727272725,
                "pitch": 40,
                "velocity": 101,
                "duration": 0.013636363636361892,
                "tempo": 120.0
            },
            {
                "start_time": 22.46363636363636,
                "end_time": 22.477272727272727,
                "pitch": 28,
                "velocity": 101,
                "duration": 0.013636363636365445,
                "tempo": 120.0
            },
            {
                "start_time": 22.56590909090909,
                "end_time": 22.59318181818182,
                "pitch": 38,
                "velocity": 101,
                "duration": 0.027272727272727337,
                "tempo": 120.0
            },
            {
                "start_time": 22.763636363636362,
                "end_time": 22.777272727272727,
                "pitch": 28,
                "velocity": 101,
                "duration": 0.013636363636365445,
                "tempo": 120.0
            },
            {
                "start_time": 22.86590909090909,
                "end_time": 22.877272727272725,
                "pitch": 38,
                "velocity": 101,
                "duration": 0.011363636363636687,
                "tempo": 120.0
            },
            {
                "start_time": 22.96590909090909,
                "end_time": 22.977272727272727,
                "pitch": 28,
                "velocity": 101,
                "duration": 0.011363636363636687,
                "tempo": 120.0
            },
            {
                "start_time": 23.06590909090909,
                "end_time": 23.095454545454544,
                "pitch": 37,
                "velocity": 101,
                "duration": 0.029545454545452543,
                "tempo": 120.0
            },
            {
                "start_time": 23.26590909090909,
                "end_time": 23.279545454545453,
                "pitch": 28,
                "velocity": 101,
                "duration": 0.013636363636361892,
                "tempo": 120.0
            },
            {
                "start_time": 23.370454545454546,
                "end_time": 23.39772727272727,
                "pitch": 38,
                "velocity": 101,
                "duration": 0.027272727272723785,
                "tempo": 120.0
            },
            {
                "start_time": 23.575,
                "end_time": 23.586363636363636,
                "pitch": 28,
                "velocity": 101,
                "duration": 0.011363636363636687,
                "tempo": 120.0
            },
            {
                "start_time": 23.677272727272726,
                "end_time": 23.69090909090909,
                "pitch": 38,
                "velocity": 101,
                "duration": 0.013636363636365445,
                "tempo": 120.0
            },
            {
                "start_time": 23.779545454545453,
                "end_time": 23.79090909090909,
                "pitch": 28,
                "velocity": 101,
                "duration": 0.011363636363636687,
                "tempo": 120.0
            },
            {
                "start_time": 23.879545454545454,
                "end_time": 23.89090909090909,
                "pitch": 37,
                "velocity": 101,
                "duration": 0.011363636363636687,
                "tempo": 120.0
            },
            {
                "start_time": 23.974999999999998,
                "end_time": 23.988636363636363,
                "pitch": 28,
                "velocity": 101,
                "duration": 0.013636363636365445,
                "tempo": 120.0
            },
            {
                "start_time": 24.075,
                "end_time": 24.086363636363636,
                "pitch": 38,
                "velocity": 101,
                "duration": 0.011363636363636687,
                "tempo": 120.0
            },
            {
                "start_time": 24.172727272727272,
                "end_time": 24.18409090909091,
                "pitch": 28,
                "velocity": 101,
                "duration": 0.011363636363636687,
                "tempo": 120.0
            },
            {
                "start_time": 24.27272727272727,
                "end_time": 24.286363636363635,
                "pitch": 37,
                "velocity": 101,
                "duration": 0.013636363636365445,
                "tempo": 120.0
            },
            {
                "start_time": 24.37272727272727,
                "end_time": 24.384090909090908,
                "pitch": 28,
                "velocity": 101,
                "duration": 0.011363636363636687,
                "tempo": 120.0
            },
            {
                "start_time": 24.472727272727273,
                "end_time": 24.486363636363635,
                "pitch": 35,
                "velocity": 101,
                "duration": 0.013636363636361892,
                "tempo": 120.0
            },
            {
                "start_time": 24.57272727272727,
                "end_time": 24.620454545454542,
                "pitch": 33,
                "velocity": 101,
                "duration": 0.04772727272727195,
                "tempo": 120.0
            },
            {
                "start_time": 24.88181818181818,
                "end_time": 24.929545454545455,
                "pitch": 28,
                "velocity": 101,
                "duration": 0.047727272727275505,
                "tempo": 120.0
            },
            {
                "start_time": 25.186363636363634,
                "end_time": 25.19772727272727,
                "pitch": 40,
                "velocity": 101,
                "duration": 0.011363636363636687,
                "tempo": 120.0
            },
            {
                "start_time": 25.28181818181818,
                "end_time": 25.297727272727272,
                "pitch": 28,
                "velocity": 101,
                "duration": 0.01590909090909065,
                "tempo": 120.0
            },
            {
                "start_time": 25.384090909090908,
                "end_time": 25.39772727272727,
                "pitch": 40,
                "velocity": 101,
                "duration": 0.013636363636361892,
                "tempo": 120.0
            },
            {
                "start_time": 25.48409090909091,
                "end_time": 25.495454545454542,
                "pitch": 38,
                "velocity": 101,
                "duration": 0.011363636363633134,
                "tempo": 120.0
            },
            {
                "start_time": 25.581818181818182,
                "end_time": 25.59318181818182,
                "pitch": 40,
                "velocity": 101,
                "duration": 0.011363636363636687,
                "tempo": 120.0
            },
            {
                "start_time": 25.679545454545455,
                "end_time": 25.69090909090909,
                "pitch": 28,
                "velocity": 101,
                "duration": 0.011363636363636687,
                "tempo": 120.0
            },
            {
                "start_time": 25.779545454545453,
                "end_time": 25.80681818181818,
                "pitch": 38,
                "velocity": 101,
                "duration": 0.027272727272727337,
                "tempo": 120.0
            },
            {
                "start_time": 25.98409090909091,
                "end_time": 25.995454545454542,
                "pitch": 28,
                "velocity": 101,
                "duration": 0.011363636363633134,
                "tempo": 120.0
            },
            {
                "start_time": 26.086363636363636,
                "end_time": 26.099999999999998,
                "pitch": 38,
                "velocity": 101,
                "duration": 0.013636363636361892,
                "tempo": 120.0
            },
            {
                "start_time": 26.188636363636363,
                "end_time": 26.202272727272724,
                "pitch": 28,
                "velocity": 101,
                "duration": 0.013636363636361892,
                "tempo": 120.0
            },
            {
                "start_time": 26.29090909090909,
                "end_time": 26.318181818181817,
                "pitch": 37,
                "velocity": 101,
                "duration": 0.027272727272727337,
                "tempo": 120.0
            },
            {
                "start_time": 26.49090909090909,
                "end_time": 26.504545454545454,
                "pitch": 28,
                "velocity": 101,
                "duration": 0.013636363636365445,
                "tempo": 120.0
            },
            {
                "start_time": 26.593181818181815,
                "end_time": 26.62272727272727,
                "pitch": 38,
                "velocity": 101,
                "duration": 0.029545454545456096,
                "tempo": 120.0
            },
            {
                "start_time": 26.793181818181818,
                "end_time": 26.804545454545455,
                "pitch": 28,
                "velocity": 101,
                "duration": 0.011363636363636687,
                "tempo": 120.0
            },
            {
                "start_time": 26.893181818181816,
                "end_time": 26.904545454545453,
                "pitch": 38,
                "velocity": 101,
                "duration": 0.011363636363636687,
                "tempo": 120.0
            },
            {
                "start_time": 26.993181818181817,
                "end_time": 27.004545454545454,
                "pitch": 28,
                "velocity": 101,
                "duration": 0.011363636363636687,
                "tempo": 120.0
            },
            {
                "start_time": 27.093181818181815,
                "end_time": 27.104545454545452,
                "pitch": 37,
                "velocity": 101,
                "duration": 0.011363636363636687,
                "tempo": 120.0
            },
            {
                "start_time": 27.193181818181817,
                "end_time": 27.204545454545453,
                "pitch": 28,
                "velocity": 101,
                "duration": 0.011363636363636687,
                "tempo": 120.0
            },
            {
                "start_time": 27.293181818181818,
                "end_time": 27.30681818181818,
                "pitch": 32,
                "velocity": 101,
                "duration": 0.013636363636361892,
                "tempo": 120.0
            },
            {
                "start_time": 27.393181818181816,
                "end_time": 27.40681818181818,
                "pitch": 28,
                "velocity": 101,
                "duration": 0.013636363636365445,
                "tempo": 120.0
            },
            {
                "start_time": 27.495454545454542,
                "end_time": 27.509090909090908,
                "pitch": 33,
                "velocity": 101,
                "duration": 0.013636363636365445,
                "tempo": 120.0
            },
            {
                "start_time": 27.599999999999998,
                "end_time": 27.611363636363635,
                "pitch": 28,
                "velocity": 101,
                "duration": 0.011363636363636687,
                "tempo": 120.0
            },
            {
                "start_time": 27.7,
                "end_time": 27.71363636363636,
                "pitch": 35,
                "velocity": 101,
                "duration": 0.013636363636361892,
                "tempo": 120.0
            },
            {
                "start_time": 27.80681818181818,
                "end_time": 27.834090909090907,
                "pitch": 38,
                "velocity": 101,
                "duration": 0.027272727272727337,
                "tempo": 120.0
            },
            {
                "start_time": 28.00681818181818,
                "end_time": 28.018181818181816,
                "pitch": 28,
                "velocity": 101,
                "duration": 0.011363636363636687,
                "tempo": 120.0
            },
            {
                "start_time": 28.10909090909091,
                "end_time": 28.152272727272727,
                "pitch": 28,
                "velocity": 101,
                "duration": 0.04318181818181799,
                "tempo": 120.0
            },
            {
                "start_time": 28.404545454545453,
                "end_time": 28.41590909090909,
                "pitch": 40,
                "velocity": 101,
                "duration": 0.011363636363636687,
                "tempo": 120.0
            }
        ]
    }
}