{
    "track_id": "07 Metal Creature B",
    "mood": "angry",
    "instruments": {
        "Electric Piano 1": [
            {
                "start_time": 0.029545454545454545,
                "end_time": 0.46136363636363636,
                "pitch": 45,
                "velocity": 101,
                "duration": 0.4318181818181818,
                "tempo": 120.0
            },
            {
                "start_time": 0.6795454545454546,
                "end_time": 0.8795454545454545,
                "pitch": 45,
                "velocity": 101,
                "duration": 0.19999999999999996,
                "tempo": 120.0
            },
            {
                "start_time": 0.8818181818181817,
                "end_time": 1.3045454545454545,
                "pitch": 45,
                "velocity": 101,
                "duration": 0.42272727272727273,
                "tempo": 120.0
            },
            {
                "start_time": 1.7409090909090907,
                "end_time": 1.9613636363636362,
                "pitch": 45,
                "velocity": 101,
                "duration": 0.22045454545454546,
                "tempo": 120.0
            },
            {
                "start_time": 1.9613636363636362,
                "end_time": 2.184090909090909,
                "pitch": 45,
                "velocity": 101,
                "duration": 0.22272727272727288,
                "tempo": 120.0
            },
            {
                "start_time": 2.384090909090909,
                "end_time": 2.6,
                "pitch": 45,
                "velocity": 101,
                "duration": 0.21590909090909127,
                "tempo": 120.0
            },
            {
                "start_time": 2.602272727272727,
                "end_time": 2.918181818181818,
                "pitch": 45,
                "velocity": 101,
                "duration": 0.3159090909090909,
                "tempo": 120.0
            },
            {
                "start_time": 2.9204545454545454,
                "end_time": 3.234090909090909,
                "pitch": 45,
                "velocity": 101,
                "duration": 0.3136363636363635,
                "tempo": 120.0
            },
            {
                "start_time": 3.2363636363636363,
                "end_time": 3.4568181818181816,
                "pitch": 33,
                "velocity": 101,
                "duration": 0.22045454545454524,
                "tempo": 120.0
            },
            {
                "start_time": 3.459090909090909,
                "end_time": 3.675,
                "pitch": 45,
                "velocity": 101,
                "duration": 0.21590909090909083,
                "tempo": 120.0
            },
            {
                "start_time": 3.675,
                "end_time": 3.775,
                "pitch": 33,
                "velocity": 101,
                "duration": 0.10000000000000009,
                "tempo": 120.0
            },
            {
                "start_time": 3.775,
                "end_time": 3.875,
                "pitch": 45,
                "velocity": 101,
                "duration": 0.10000000000000009,
                "tempo": 120.0
            },
            {
                "start_time": 4.081818181818182,
                "end_time": 4.288636363636363,
                "pitch": 45,
                "velocity": 101,
                "duration": 0.20681818181818112,
                "tempo": 120.0
            },
            {
                "start_time": 4.288636363636363,
                "end_time": 4.7318181818181815,
                "pitch": 45,
                "velocity": 101,
                "duration": 0.44318181818181834,
                "tempo": 120.0
            },
            {
                "start_time": 5.165909090909091,
                "end_time": 5.36590909090909,
                "pitch": 45,
                "velocity": 101,
                "duration": 0.1999999999999993,
                "tempo": 120.0
            },
            {
                "start_time": 5.368181818181818,
                "end_time": 5.584090909090909,
                "pitch": 45,
                "velocity": 101,
                "duration": 0.21590909090909083,
                "tempo": 120.0
            },
            {
                "start_time": 5.797727272727273,
                "end_time": 6.009090909090909,
                "pitch": 45,
                "velocity": 101,
                "duration": 0.21136363636363598,
                "tempo": 120.0
            },
            {
                "start_time": 6.009090909090909,
                "end_time": 6.324999999999999,
                "pitch": 45,
                "velocity": 101,
                "duration": 0.3159090909090905,
                "tempo": 120.0
            },
            {
                "start_time": 6.327272727272727,
                "end_time": 6.543181818181818,
                "pitch": 45,
                "velocity": 101,
                "duration": 0.21590909090909083,
                "tempo": 120.0
            },
            {
                "start_time": 6.543181818181818,
                "end_time": 6.659090909090909,
                "pitch": 44,
                "velocity": 101,
                "duration": 0.11590909090909118,
                "tempo": 120.0
            },
            {
                "start_time": 6.661363636363636,
                "end_time": 6.861363636363636,
                "pitch": 43,
                "velocity": 101,
                "duration": 0.20000000000000018,
                "tempo": 120.0
            },
            {
                "start_time": 6.861363636363636,
                "end_time": 7.286363636363636,
                "pitch": 45,
                "velocity": 101,
                "duration": 0.4249999999999998,
                "tempo": 120.0
            },
            {
                "start_time": 7.502272727272727,
                "end_time": 7.720454545454545,
                "pitch": 45,
                "velocity": 101,
                "duration": 0.2181818181818178,
                "tempo": 120.0
            },
            {
                "start_time": 7.720454545454545,
                "end_time": 8.154545454545454,
                "pitch": 45,
                "velocity": 101,
                "duration": 0.4340909090909095,
                "tempo": 120.0
            },
            {
                "start_time": 8.256818181818181,
                "end_time": 8.35909090909091,
                "pitch": 43,
                "velocity": 101,
                "duration": 0.1022727272727284,
                "tempo": 120.0
            },
            {
                "start_time": 8.35909090909091,
                "end_time": 8.477272727272727,
                "pitch": 45,
                "velocity": 101,
                "duration": 0.11818181818181728,
                "tempo": 120.0
            },
            {
                "start_time": 8.477272727272727,
                "end_time": 8.579545454545453,
                "pitch": 47,
                "velocity": 101,
                "duration": 0.10227272727272663,
                "tempo": 120.0
            },
            {
                "start_time": 8.581818181818182,
                "end_time": 8.786363636363635,
                "pitch": 45,
                "velocity": 101,
                "duration": 0.20454545454545325,
                "tempo": 120.0
            },
            {
                "start_time": 8.788636363636364,
                "end_time": 8.897727272727272,
                "pitch": 33,
                "velocity": 101,
                "duration": 0.10909090909090757,
                "tempo": 120.0
            },
            {
                "start_time": 8.9,
                "end_time": 8.993181818181817,
                "pitch": 45,
                "velocity": 101,
                "duration": 0.09318181818181692,
                "tempo": 120.0
            },
            {
                "start_time": 9.211363636363636,
                "end_time": 9.427272727272728,
                "pitch": 45,
                "velocity": 101,
                "duration": 0.21590909090909172,
                "tempo": 120.0
            },
            {
                "start_time": 9.429545454545455,
                "end_time": 9.854545454545454,
                "pitch": 45,
                "velocity": 101,
                "duration": 0.42499999999999893,
                "tempo": 120.0
            },
            {
                "start_time": 9.96590909090909,
                "end_time": 10.061363636363636,
                "pitch": 48,
                "velocity": 101,
                "duration": 0.09545454545454568,
                "tempo": 120.0
            },
            {
                "start_time": 10.061363636363636,
                "end_time": 10.172727272727272,
                "pitch": 47,
                "velocity": 101,
                "duration": 0.11136363636363633,
                "tempo": 120.0
            },
            {
                "start_time": 10.172727272727272,
                "end_time": 10.268181818181818,
                "pitch": 43,
                "velocity": 101,
                "duration": 0.09545454545454568,
                "tempo": 120.0
            },
            {
                "start_time": 10.268181818181818,
                "end_time": 10.711363636363636,
                "pitch": 45,
                "velocity": 101,
                "duration": 0.44318181818181834,
                "tempo": 120.0
            },
            {
                "start_time": 10.929545454545455,
                "end_time": 11.145454545454545,
                "pitch": 45,
                "velocity": 101,
                "duration": 0.21590909090908994,
                "tempo": 120.0
            },
            {
                "start_time": 11.147727272727272,
                "end_time": 11.563636363636363,
                "pitch": 45,
                "velocity": 101,
                "duration": 0.415909090909091,
                "tempo": 120.0
            },
            {
                "start_time": 11.674999999999999,
                "end_time": 11.770454545454545,
                "pitch": 43,
                "velocity": 101,
                "duration": 0.09545454545454568,
                "tempo": 120.0
            },
            {
                "start_time": 11.770454545454545,
                "end_time": 11.879545454545454,
                "pitch": 45,
                "velocity": 101,
                "duration": 0.10909090909090935,
                "tempo": 120.0
            },
            {
                "start_time": 11.881818181818181,
                "end_time": 11.977272727272727,
                "pitch": 47,
                "velocity": 101,
                "duration": 0.09545454545454568,
                "tempo": 120.0
            },
            {
                "start_time": 11.977272727272727,
                "end_time": 12.420454545454545,
                "pitch": 45,
                "velocity": 101,
                "duration": 0.44318181818181834,
                "tempo": 120.0
            },
            {
                "start_time": 12.638636363636364,
                "end_time": 12.836363636363636,
                "pitch": 45,
                "velocity": 101,
                "duration": 0.1977272727272723,
                "tempo": 120.0
            },
            {
                "start_time": 12.838636363636363,
                "end_time": 13.163636363636362,
                "pitch": 45,
                "velocity": 101,
                "duration": 0.3249999999999993,
                "tempo": 120.0
            },
            {
                "start_time": 13.165909090909091,
                "end_time": 13.379545454545454,
                "pitch": 45,
                "velocity": 101,
                "duration": 0.21363636363636296,
                "tempo": 120.0
            },
            {
                "start_time": 13.379545454545454,
                "end_time": 13.479545454545454,
                "pitch": 44,
                "velocity": 101,
                "duration": 0.09999999999999964,
                "tempo": 120.0
            },
            {
                "start_time": 13.479545454545454,
                "end_time": 13.695454545454545,
                "pitch": 43,
                "velocity": 101,
                "duration": 0.21590909090909172,
                "tempo": 120.0
            }
        ]
    }
}