{
    "track_id": "07 Ruins",
    "mood": "angry",
    "instruments": {
        "Acoustic Bass": [
            {
                "start_time": 5.45,
                "end_time": 6.127272727272727,
                "pitch": 43,
                "velocity": 80,
                "duration": 0.6772727272727268,
                "tempo": 120.0
            },
            {
                "start_time": 6.127272727272727,
                "end_time": 6.806818181818182,
                "pitch": 42,
                "velocity": 80,
                "duration": 0.6795454545454547,
                "tempo": 120.0
            },
            {
                "start_time": 6.809090909090909,
                "end_time": 7.477272727272727,
                "pitch": 43,
                "velocity": 80,
                "duration": 0.668181818181818,
                "tempo": 120.0
            },
            {
                "start_time": 7.4795454545454545,
                "end_time": 8.159090909090908,
                "pitch": 45,
                "velocity": 80,
                "duration": 0.6795454545454538,
                "tempo": 120.0
            },
            {
                "start_time": 8.159090909090908,
                "end_time": 8.829545454545453,
                "pitch": 46,
                "velocity": 80,
                "duration": 0.670454545454545,
                "tempo": 120.0
            },
            {
                "start_time": 8.829545454545453,
                "end_time": 9.509090909090908,
                "pitch": 45,
                "velocity": 80,
                "duration": 0.6795454545454547,
                "tempo": 120.0
            },
            {
                "start_time": 9.511363636363637,
                "end_time": 10.188636363636363,
                "pitch": 43,
                "velocity": 80,
                "duration": 0.6772727272727259,
                "tempo": 120.0
            },
            {
                "start_time": 10.19090909090909,
                "end_time": 10.870454545454544,
                "pitch": 42,
                "velocity": 80,
                "duration": 0.6795454545454547,
                "tempo": 120.0
            },
            {
                "start_time": 10.870454545454544,
                "end_time": 13.581818181818182,
                "pitch": 43,
                "velocity": 80,
                "duration": 2.7113636363636378,
                "tempo": 120.0
            },
            {
                "start_time": 13.584090909090909,
                "end_time": 13.681818181818182,
                "pitch": 43,
                "velocity": 80,
                "duration": 0.09772727272727266,
                "tempo": 120.0
            },
            {
                "start_time": 13.752272727272727,
                "end_time": 13.854545454545454,
                "pitch": 43,
                "velocity": 80,
                "duration": 0.10227272727272663,
                "tempo": 120.0
            },
            {
                "start_time": 13.924999999999999,
                "end_time": 14.022727272727272,
                "pitch": 43,
                "velocity": 80,
                "duration": 0.09772727272727266,
                "tempo": 120.0
            },
            {
                "start_time": 14.09090909090909,
                "end_time": 14.19090909090909,
                "pitch": 43,
                "velocity": 80,
                "duration": 0.09999999999999964,
                "tempo": 120.0
            },
            {
                "start_time": 14.259090909090908,
                "end_time": 14.359090909090908,
                "pitch": 43,
                "velocity": 80,
                "duration": 0.09999999999999964,
                "tempo": 120.0
            },
            {
                "start_time": 14.427272727272726,
                "end_time": 14.527272727272727,
                "pitch": 43,
                "velocity": 80,
                "duration": 0.10000000000000142,
                "tempo": 120.0
            },
            {
                "start_time": 14.595454545454544,
                "end_time": 14.697727272727272,
                "pitch": 43,
                "velocity": 80,
                "duration": 0.1022727272727284,
                "tempo": 120.0
            },
            {
                "start_time": 14.768181818181818,
                "end_time": 14.870454545454544,
                "pitch": 43,
                "velocity": 80,
                "duration": 0.10227272727272663,
                "tempo": 120.0
            },
            {
                "start_time": 14.94090909090909,
                "end_time": 15.038636363636362,
                "pitch": 43,
                "velocity": 80,
                "duration": 0.09772727272727266,
                "tempo": 120.0
            },
            {
                "start_time": 15.10681818181818,
                "end_time": 15.20681818181818,
                "pitch": 43,
                "velocity": 80,
                "duration": 0.09999999999999964,
                "tempo": 120.0
            },
            {
                "start_time": 15.274999999999999,
                "end_time": 15.377272727272727,
                "pitch": 43,
                "velocity": 80,
                "duration": 0.1022727272727284,
                "tempo": 120.0
            },
            {
                "start_time": 15.447727272727272,
                "end_time": 15.549999999999999,
                "pitch": 43,
                "velocity": 80,
                "duration": 0.10227272727272663,
                "tempo": 120.0
            },
            {
                "start_time": 15.620454545454544,
                "end_time": 15.718181818181817,
                "pitch": 43,
                "velocity": 80,
                "duration": 0.09772727272727266,
                "tempo": 120.0
            },
            {
                "start_time": 15.788636363636362,
                "end_time": 15.886363636363635,
                "pitch": 43,
                "velocity": 80,
                "duration": 0.09772727272727266,
                "tempo": 120.0
            },
            {
                "start_time": 15.954545454545453,
                "end_time": 16.054545454545455,
                "pitch": 43,
                "velocity": 80,
                "duration": 0.10000000000000142,
                "tempo": 120.0
            },
            {
                "start_time": 16.12272727272727,
                "end_time": 16.222727272727273,
                "pitch": 43,
                "velocity": 80,
                "duration": 0.10000000000000142,
                "tempo": 120.0
            },
            {
                "start_time": 16.293181818181818,
                "end_time": 16.393181818181816,
                "pitch": 43,
                "velocity": 80,
                "duration": 0.09999999999999787,
                "tempo": 120.0
            },
            {
                "start_time": 16.46363636363636,
                "end_time": 16.56590909090909,
                "pitch": 43,
                "velocity": 80,
                "duration": 0.10227272727273018,
                "tempo": 120.0
            },
            {
                "start_time": 16.636363636363637,
                "end_time": 16.73409090909091,
                "pitch": 43,
                "velocity": 80,
                "duration": 0.09772727272727266,
                "tempo": 120.0
            },
            {
                "start_time": 16.802272727272726,
                "end_time": 16.902272727272727,
                "pitch": 43,
                "velocity": 80,
                "duration": 0.10000000000000142,
                "tempo": 120.0
            },
            {
                "start_time": 16.970454545454544,
                "end_time": 17.070454545454545,
                "pitch": 43,
                "velocity": 80,
                "duration": 0.10000000000000142,
                "tempo": 120.0
            },
            {
                "start_time": 17.138636363636362,
                "end_time": 17.236363636363635,
                "pitch": 43,
                "velocity": 80,
                "duration": 0.09772727272727266,
                "tempo": 120.0
            },
            {
                "start_time": 17.30681818181818,
                "end_time": 17.409090909090907,
                "pitch": 43,
                "velocity": 80,
                "duration": 0.10227272727272663,
                "tempo": 120.0
            },
            {
                "start_time": 17.477272727272727,
                "end_time": 17.581818181818182,
                "pitch": 43,
                "velocity": 80,
                "duration": 0.10454545454545539,
                "tempo": 120.0
            },
            {
                "start_time": 17.652272727272727,
                "end_time": 17.75,
                "pitch": 39,
                "velocity": 80,
                "duration": 0.09772727272727266,
                "tempo": 120.0
            },
            {
                "start_time": 17.818181818181817,
                "end_time": 17.918181818181818,
                "pitch": 39,
                "velocity": 80,
                "duration": 0.10000000000000142,
                "tempo": 120.0
            },
            {
                "start_time": 17.986363636363635,
                "end_time": 18.08863636363636,
                "pitch": 39,
                "velocity": 80,
                "duration": 0.10227272727272663,
                "tempo": 120.0
            },
            {
                "start_time": 18.159090909090907,
                "end_time": 18.261363636363637,
                "pitch": 39,
                "velocity": 80,
                "duration": 0.10227272727273018,
                "tempo": 120.0
            },
            {
                "start_time": 18.331818181818182,
                "end_time": 18.429545454545455,
                "pitch": 39,
                "velocity": 80,
                "duration": 0.09772727272727266,
                "tempo": 120.0
            },
            {
                "start_time": 18.49772727272727,
                "end_time": 18.597727272727273,
                "pitch": 39,
                "velocity": 80,
                "duration": 0.10000000000000142,
                "tempo": 120.0
            },
            {
                "start_time": 18.66590909090909,
                "end_time": 18.76590909090909,
                "pitch": 39,
                "velocity": 80,
                "duration": 0.10000000000000142,
                "tempo": 120.0
            },
            {
                "start_time": 18.834090909090907,
                "end_time": 18.93409090909091,
                "pitch": 39,
                "velocity": 80,
                "duration": 0.10000000000000142,
                "tempo": 120.0
            },
            {
                "start_time": 19.002272727272725,
                "end_time": 19.102272727272727,
                "pitch": 43,
                "velocity": 80,
                "duration": 0.10000000000000142,
                "tempo": 120.0
            },
            {
                "start_time": 19.175,
                "end_time": 19.275,
                "pitch": 43,
                "velocity": 80,
                "duration": 0.09999999999999787,
                "tempo": 120.0
            },
            {
                "start_time": 19.347727272727273,
                "end_time": 19.445454545454545,
                "pitch": 43,
                "velocity": 80,
                "duration": 0.09772727272727266,
                "tempo": 120.0
            },
            {
                "start_time": 19.513636363636362,
                "end_time": 19.613636363636363,
                "pitch": 43,
                "velocity": 80,
                "duration": 0.10000000000000142,
                "tempo": 120.0
            },
            {
                "start_time": 19.68181818181818,
                "end_time": 19.779545454545453,
                "pitch": 43,
                "velocity": 80,
                "duration": 0.09772727272727266,
                "tempo": 120.0
            },
            {
                "start_time": 19.849999999999998,
                "end_time": 19.94772727272727,
                "pitch": 43,
                "velocity": 80,
                "duration": 0.09772727272727266,
                "tempo": 120.0
            },
            {
                "start_time": 20.018181818181816,
                "end_time": 20.118181818181817,
                "pitch": 43,
                "velocity": 80,
                "duration": 0.10000000000000142,
                "tempo": 120.0
            },
            {
                "start_time": 20.188636363636363,
                "end_time": 20.29090909090909,
                "pitch": 43,
                "velocity": 80,
                "duration": 0.10227272727272663,
                "tempo": 120.0
            },
            {
                "start_time": 20.363636363636363,
                "end_time": 20.461363636363636,
                "pitch": 43,
                "velocity": 80,
                "duration": 0.09772727272727266,
                "tempo": 120.0
            },
            {
                "start_time": 20.529545454545453,
                "end_time": 20.629545454545454,
                "pitch": 43,
                "velocity": 80,
                "duration": 0.10000000000000142,
                "tempo": 120.0
            },
            {
                "start_time": 20.69772727272727,
                "end_time": 20.8,
                "pitch": 43,
                "velocity": 80,
                "duration": 0.10227272727273018,
                "tempo": 120.0
            },
            {
                "start_time": 20.870454545454546,
                "end_time": 20.972727272727273,
                "pitch": 43,
                "velocity": 80,
                "duration": 0.10227272727272663,
                "tempo": 120.0
            },
            {
                "start_time": 21.043181818181818,
                "end_time": 21.14090909090909,
                "pitch": 43,
                "velocity": 80,
                "duration": 0.09772727272727266,
                "tempo": 120.0
            },
            {
                "start_time": 21.209090909090907,
                "end_time": 21.30909090909091,
                "pitch": 43,
                "velocity": 80,
                "duration": 0.10000000000000142,
                "tempo": 120.0
            },
            {
                "start_time": 21.377272727272725,
                "end_time": 21.477272727272727,
                "pitch": 43,
                "velocity": 80,
                "duration": 0.10000000000000142,
                "tempo": 120.0
            },
            {
                "start_time": 21.545454545454543,
                "end_time": 21.643181818181816,
                "pitch": 43,
                "velocity": 80,
                "duration": 0.09772727272727266,
                "tempo": 120.0
            },
            {
                "start_time": 21.71363636363636,
                "end_time": 21.813636363636363,
                "pitch": 39,
                "velocity": 80,
                "duration": 0.10000000000000142,
                "tempo": 120.0
            },
            {
                "start_time": 21.884090909090908,
                "end_time": 21.986363636363635,
                "pitch": 39,
                "velocity": 80,
                "duration": 0.10227272727272663,
                "tempo": 120.0
            },
            {
                "start_time": 22.05681818181818,
                "end_time": 22.15681818181818,
                "pitch": 39,
                "velocity": 80,
                "duration": 0.10000000000000142,
                "tempo": 120.0
            },
            {
                "start_time": 22.224999999999998,
                "end_time": 22.325,
                "pitch": 39,
                "velocity": 80,
                "duration": 0.10000000000000142,
                "tempo": 120.0
            },
            {
                "start_time": 22.393181818181816,
                "end_time": 22.49090909090909,
                "pitch": 39,
                "velocity": 80,
                "duration": 0.09772727272727266,
                "tempo": 120.0
            },
            {
                "start_time": 22.55909090909091,
                "end_time": 22.659090909090907,
                "pitch": 39,
                "velocity": 80,
                "duration": 0.09999999999999787,
                "tempo": 120.0
            },
            {
                "start_time": 22.727272727272727,
                "end_time": 22.829545454545453,
                "pitch": 39,
                "velocity": 80,
                "duration": 0.10227272727272663,
                "tempo": 120.0
            },
            {
                "start_time": 22.9,
                "end_time": 23.002272727272725,
                "pitch": 39,
                "velocity": 80,
                "duration": 0.10227272727272663,
                "tempo": 120.0
            },
            {
                "start_time": 23.075,
                "end_time": 23.172727272727272,
                "pitch": 36,
                "velocity": 80,
                "duration": 0.09772727272727266,
                "tempo": 120.0
            },
            {
                "start_time": 23.24090909090909,
                "end_time": 23.33863636363636,
                "pitch": 36,
                "velocity": 80,
                "duration": 0.09772727272727266,
                "tempo": 120.0
            },
            {
                "start_time": 23.409090909090907,
                "end_time": 23.511363636363637,
                "pitch": 38,
                "velocity": 80,
                "duration": 0.10227272727273018,
                "tempo": 120.0
            },
            {
                "start_time": 23.579545454545453,
                "end_time": 23.68181818181818,
                "pitch": 38,
                "velocity": 80,
                "duration": 0.10227272727272663,
                "tempo": 120.0
            },
            {
                "start_time": 23.752272727272725,
                "end_time": 23.852272727272727,
                "pitch": 39,
                "velocity": 80,
                "duration": 0.10000000000000142,
                "tempo": 120.0
            },
            {
                "start_time": 23.920454545454543,
                "end_time": 24.020454545454545,
                "pitch": 39,
                "velocity": 80,
                "duration": 0.10000000000000142,
                "tempo": 120.0
            },
            {
                "start_time": 24.086363636363636,
                "end_time": 24.186363636363634,
                "pitch": 39,
                "velocity": 80,
                "duration": 0.09999999999999787,
                "tempo": 120.0
            },
            {
                "start_time": 24.254545454545454,
                "end_time": 24.352272727272727,
                "pitch": 39,
                "velocity": 80,
                "duration": 0.09772727272727266,
                "tempo": 120.0
            },
            {
                "start_time": 24.424999999999997,
                "end_time": 24.525,
                "pitch": 43,
                "velocity": 80,
                "duration": 0.10000000000000142,
                "tempo": 120.0
            },
            {
                "start_time": 24.595454545454544,
                "end_time": 24.69772727272727,
                "pitch": 43,
                "velocity": 80,
                "duration": 0.10227272727272663,
                "tempo": 120.0
            },
            {
                "start_time": 24.768181818181816,
                "end_time": 24.868181818181817,
                "pitch": 43,
                "velocity": 80,
                "duration": 0.10000000000000142,
                "tempo": 120.0
            },
            {
                "start_time": 24.936363636363634,
                "end_time": 25.036363636363635,
                "pitch": 43,
                "velocity": 80,
                "duration": 0.10000000000000142,
                "tempo": 120.0
            },
            {
                "start_time": 25.104545454545452,
                "end_time": 25.202272727272724,
                "pitch": 43,
                "velocity": 80,
                "duration": 0.09772727272727266,
                "tempo": 120.0
            },
            {
                "start_time": 25.270454545454545,
                "end_time": 25.370454545454542,
                "pitch": 43,
                "velocity": 80,
                "duration": 0.09999999999999787,
                "tempo": 120.0
            },
            {
                "start_time": 25.438636363636363,
                "end_time": 25.54090909090909,
                "pitch": 43,
                "velocity": 80,
                "duration": 0.10227272727272663,
                "tempo": 120.0
            },
            {
                "start_time": 25.611363636363635,
                "end_time": 25.71363636363636,
                "pitch": 43,
                "velocity": 80,
                "duration": 0.10227272727272663,
                "tempo": 120.0
            },
            {
                "start_time": 25.784090909090907,
                "end_time": 25.88181818181818,
                "pitch": 43,
                "velocity": 80,
                "duration": 0.09772727272727266,
                "tempo": 120.0
            },
            {
                "start_time": 25.952272727272724,
                "end_time": 26.049999999999997,
                "pitch": 43,
                "velocity": 80,
                "duration": 0.09772727272727266,
                "tempo": 120.0
            },
            {
                "start_time": 26.120454545454542,
                "end_time": 26.220454545454544,
                "pitch": 43,
                "velocity": 80,
                "duration": 0.10000000000000142,
                "tempo": 120.0
            },
            {
                "start_time": 26.29090909090909,
                "end_time": 26.393181818181816,
                "pitch": 43,
                "velocity": 80,
                "duration": 0.10227272727272663,
                "tempo": 120.0
            },
            {
                "start_time": 26.46363636363636,
                "end_time": 26.563636363636363,
                "pitch": 43,
                "velocity": 80,
                "duration": 0.10000000000000142,
                "tempo": 120.0
            },
            {
                "start_time": 26.63181818181818,
                "end_time": 26.729545454545452,
                "pitch": 43,
                "velocity": 80,
                "duration": 0.09772727272727266,
                "tempo": 120.0
            },
            {
                "start_time": 26.799999999999997,
                "end_time": 26.89772727272727,
                "pitch": 43,
                "velocity": 80,
                "duration": 0.09772727272727266,
                "tempo": 120.0
            },
            {
                "start_time": 26.96590909090909,
                "end_time": 27.06590909090909,
                "pitch": 43,
                "velocity": 80,
                "duration": 0.10000000000000142,
                "tempo": 120.0
            },
            {
                "start_time": 27.136363636363637,
                "end_time": 27.236363636363635,
                "pitch": 43,
                "velocity": 80,
                "duration": 0.09999999999999787,
                "tempo": 120.0
            },
            {
                "start_time": 27.30681818181818,
                "end_time": 27.409090909090907,
                "pitch": 43,
                "velocity": 80,
                "duration": 0.10227272727272663,
                "tempo": 120.0
            },
            {
                "start_time": 27.479545454545452,
                "end_time": 27.579545454545453,
                "pitch": 43,
                "velocity": 80,
                "duration": 0.10000000000000142,
                "tempo": 120.0
            },
            {
                "start_time": 27.645454545454545,
                "end_time": 27.745454545454542,
                "pitch": 43,
                "velocity": 80,
                "duration": 0.09999999999999787,
                "tempo": 120.0
            },
            {
                "start_time": 27.815909090909088,
                "end_time": 27.913636363636364,
                "pitch": 43,
                "velocity": 80,
                "duration": 0.09772727272727622,
                "tempo": 120.0
            },
            {
                "start_time": 27.98181818181818,
                "end_time": 28.081818181818182,
                "pitch": 43,
                "velocity": 80,
                "duration": 0.10000000000000142,
                "tempo": 120.0
            },
            {
                "start_time": 28.15,
                "end_time": 28.252272727272725,
                "pitch": 43,
                "velocity": 80,
                "duration": 0.10227272727272663,
                "tempo": 120.0
            },
            {
                "start_time": 28.32272727272727,
                "end_time": 28.424999999999997,
                "pitch": 43,
                "velocity": 80,
                "duration": 0.10227272727272663,
                "tempo": 120.0
            },
            {
                "start_time": 28.495454545454542,
                "end_time": 28.593181818181815,
                "pitch": 39,
                "velocity": 80,
                "duration": 0.09772727272727266,
                "tempo": 120.0
            },
            {
                "start_time": 28.66363636363636,
                "end_time": 28.761363636363637,
                "pitch": 39,
                "velocity": 80,
                "duration": 0.09772727272727622,
                "tempo": 120.0
            },
            {
                "start_time": 28.829545454545453,
                "end_time": 28.93181818181818,
                "pitch": 39,
                "velocity": 80,
                "duration": 0.10227272727272663,
                "tempo": 120.0
            },
            {
                "start_time": 29.002272727272725,
                "end_time": 29.104545454545452,
                "pitch": 39,
                "velocity": 80,
                "duration": 0.10227272727272663,
                "tempo": 120.0
            },
            {
                "start_time": 29.174999999999997,
                "end_time": 29.27272727272727,
                "pitch": 39,
                "velocity": 80,
                "duration": 0.09772727272727266,
                "tempo": 120.0
            },
            {
                "start_time": 29.343181818181815,
                "end_time": 29.440909090909088,
                "pitch": 39,
                "velocity": 80,
                "duration": 0.09772727272727266,
                "tempo": 120.0
            },
            {
                "start_time": 29.511363636363637,
                "end_time": 29.60909090909091,
                "pitch": 39,
                "velocity": 80,
                "duration": 0.09772727272727266,
                "tempo": 120.0
            },
            {
                "start_time": 29.677272727272726,
                "end_time": 29.777272727272727,
                "pitch": 39,
                "velocity": 80,
                "duration": 0.10000000000000142,
                "tempo": 120.0
            },
            {
                "start_time": 29.847727272727273,
                "end_time": 29.94772727272727,
                "pitch": 43,
                "velocity": 80,
                "duration": 0.09999999999999787,
                "tempo": 120.0
            },
            {
                "start_time": 30.018181818181816,
                "end_time": 30.120454545454542,
                "pitch": 43,
                "velocity": 80,
                "duration": 0.10227272727272663,
                "tempo": 120.0
            },
            {
                "start_time": 30.190909090909088,
                "end_time": 30.28863636363636,
                "pitch": 43,
                "velocity": 80,
                "duration": 0.09772727272727266,
                "tempo": 120.0
            },
            {
                "start_time": 30.35681818181818,
                "end_time": 30.456818181818182,
                "pitch": 43,
                "velocity": 80,
                "duration": 0.10000000000000142,
                "tempo": 120.0
            },
            {
                "start_time": 30.525,
                "end_time": 30.625,
                "pitch": 43,
                "velocity": 80,
                "duration": 0.10000000000000142,
                "tempo": 120.0
            },
            {
                "start_time": 30.693181818181817,
                "end_time": 30.793181818181818,
                "pitch": 43,
                "velocity": 80,
                "duration": 0.10000000000000142,
                "tempo": 120.0
            },
            {
                "start_time": 30.861363636363635,
                "end_time": 30.96363636363636,
                "pitch": 43,
                "velocity": 80,
                "duration": 0.10227272727272663,
                "tempo": 120.0
            },
            {
                "start_time": 31.034090909090907,
                "end_time": 31.136363636363633,
                "pitch": 43,
                "velocity": 80,
                "duration": 0.10227272727272663,
                "tempo": 120.0
            },
            {
                "start_time": 31.206818181818182,
                "end_time": 31.304545454545455,
                "pitch": 43,
                "velocity": 80,
                "duration": 0.09772727272727266,
                "tempo": 120.0
            },
            {
                "start_time": 31.37272727272727,
                "end_time": 31.472727272727273,
                "pitch": 43,
                "velocity": 80,
                "duration": 0.10000000000000142,
                "tempo": 120.0
            },
            {
                "start_time": 31.54090909090909,
                "end_time": 31.643181818181816,
                "pitch": 43,
                "velocity": 80,
                "duration": 0.10227272727272663,
                "tempo": 120.0
            },
            {
                "start_time": 31.71363636363636,
                "end_time": 31.815909090909088,
                "pitch": 43,
                "velocity": 80,
                "duration": 0.10227272727272663,
                "tempo": 120.0
            },
            {
                "start_time": 31.886363636363633,
                "end_time": 31.984090909090906,
                "pitch": 43,
                "velocity": 80,
                "duration": 0.09772727272727266,
                "tempo": 120.0
            },
            {
                "start_time": 32.054545454545455,
                "end_time": 32.152272727272724,
                "pitch": 43,
                "velocity": 80,
                "duration": 0.09772727272726911,
                "tempo": 120.0
            },
            {
                "start_time": 32.220454545454544,
                "end_time": 32.320454545454545,
                "pitch": 43,
                "velocity": 80,
                "duration": 0.10000000000000142,
                "tempo": 120.0
            },
            {
                "start_time": 32.388636363636365,
                "end_time": 32.48863636363636,
                "pitch": 43,
                "velocity": 80,
                "duration": 0.09999999999999432,
                "tempo": 120.0
            },
            {
                "start_time": 32.55681818181818,
                "end_time": 32.65909090909091,
                "pitch": 39,
                "velocity": 80,
                "duration": 0.10227272727272663,
                "tempo": 120.0
            },
            {
                "start_time": 32.72954545454545,
                "end_time": 32.83181818181818,
                "pitch": 39,
                "velocity": 80,
                "duration": 0.10227272727272663,
                "tempo": 120.0
            },
            {
                "start_time": 32.902272727272724,
                "end_time": 33.0,
                "pitch": 39,
                "velocity": 80,
                "duration": 0.09772727272727622,
                "tempo": 120.0
            },
            {
                "start_time": 33.06818181818182,
                "end_time": 33.168181818181814,
                "pitch": 39,
                "velocity": 80,
                "duration": 0.09999999999999432,
                "tempo": 120.0
            },
            {
                "start_time": 33.236363636363635,
                "end_time": 33.33863636363636,
                "pitch": 39,
                "velocity": 80,
                "duration": 0.10227272727272663,
                "tempo": 120.0
            },
            {
                "start_time": 33.40909090909091,
                "end_time": 33.51136363636363,
                "pitch": 39,
                "velocity": 80,
                "duration": 0.10227272727272663,
                "tempo": 120.0
            },
            {
                "start_time": 33.58181818181818,
                "end_time": 33.68181818181818,
                "pitch": 39,
                "velocity": 80,
                "duration": 0.10000000000000142,
                "tempo": 120.0
            },
            {
                "start_time": 33.74772727272727,
                "end_time": 33.84772727272727,
                "pitch": 39,
                "velocity": 80,
                "duration": 0.10000000000000142,
                "tempo": 120.0
            },
            {
                "start_time": 33.918181818181814,
                "end_time": 34.01590909090909,
                "pitch": 36,
                "velocity": 80,
                "duration": 0.09772727272727622,
                "tempo": 120.0
            },
            {
                "start_time": 34.08409090909091,
                "end_time": 34.184090909090905,
                "pitch": 36,
                "velocity": 80,
                "duration": 0.09999999999999432,
                "tempo": 120.0
            },
            {
                "start_time": 34.252272727272725,
                "end_time": 34.35454545454545,
                "pitch": 38,
                "velocity": 80,
                "duration": 0.10227272727272663,
                "tempo": 120.0
            },
            {
                "start_time": 34.425,
                "end_time": 34.527272727272724,
                "pitch": 38,
                "velocity": 80,
                "duration": 0.10227272727272663,
                "tempo": 120.0
            },
            {
                "start_time": 34.59772727272727,
                "end_time": 34.695454545454545,
                "pitch": 39,
                "velocity": 80,
                "duration": 0.09772727272727622,
                "tempo": 120.0
            },
            {
                "start_time": 34.763636363636365,
                "end_time": 34.86363636363636,
                "pitch": 39,
                "velocity": 80,
                "duration": 0.09999999999999432,
                "tempo": 120.0
            },
            {
                "start_time": 34.93181818181818,
                "end_time": 35.03181818181818,
                "pitch": 39,
                "velocity": 80,
                "duration": 0.10000000000000142,
                "tempo": 120.0
            },
            {
                "start_time": 35.1,
                "end_time": 35.199999999999996,
                "pitch": 39,
                "velocity": 80,
                "duration": 0.09999999999999432,
                "tempo": 120.0
            },
            {
                "start_time": 35.27045454545454,
                "end_time": 35.36818181818182,
                "pitch": 43,
                "velocity": 80,
                "duration": 0.09772727272727622,
                "tempo": 120.0
            },
            {
                "start_time": 35.44090909090909,
                "end_time": 35.54090909090909,
                "pitch": 43,
                "velocity": 80,
                "duration": 0.10000000000000142,
                "tempo": 120.0
            },
            {
                "start_time": 35.61363636363636,
                "end_time": 35.711363636363636,
                "pitch": 43,
                "velocity": 80,
                "duration": 0.09772727272727622,
                "tempo": 120.0
            },
            {
                "start_time": 35.779545454545456,
                "end_time": 35.87954545454545,
                "pitch": 43,
                "velocity": 80,
                "duration": 0.09999999999999432,
                "tempo": 120.0
            },
            {
                "start_time": 35.94772727272727,
                "end_time": 36.04545454545455,
                "pitch": 43,
                "velocity": 80,
                "duration": 0.09772727272727622,
                "tempo": 120.0
            },
            {
                "start_time": 36.11590909090909,
                "end_time": 36.21363636363636,
                "pitch": 43,
                "velocity": 80,
                "duration": 0.09772727272726911,
                "tempo": 120.0
            },
            {
                "start_time": 36.28409090909091,
                "end_time": 36.38409090909091,
                "pitch": 43,
                "velocity": 80,
                "duration": 0.10000000000000142,
                "tempo": 120.0
            },
            {
                "start_time": 36.45454545454545,
                "end_time": 36.55681818181818,
                "pitch": 43,
                "velocity": 80,
                "duration": 0.10227272727272663,
                "tempo": 120.0
            },
            {
                "start_time": 36.627272727272725,
                "end_time": 36.725,
                "pitch": 39,
                "velocity": 80,
                "duration": 0.09772727272727622,
                "tempo": 120.0
            },
            {
                "start_time": 36.79545454545455,
                "end_time": 36.89545454545454,
                "pitch": 39,
                "velocity": 80,
                "duration": 0.09999999999999432,
                "tempo": 120.0
            },
            {
                "start_time": 36.96363636363636,
                "end_time": 37.06590909090909,
                "pitch": 39,
                "velocity": 80,
                "duration": 0.10227272727272663,
                "tempo": 120.0
            },
            {
                "start_time": 37.13636363636363,
                "end_time": 37.23863636363636,
                "pitch": 39,
                "velocity": 80,
                "duration": 0.10227272727272663,
                "tempo": 120.0
            },
            {
                "start_time": 37.309090909090905,
                "end_time": 37.40681818181818,
                "pitch": 39,
                "velocity": 80,
                "duration": 0.09772727272727622,
                "tempo": 120.0
            },
            {
                "start_time": 37.475,
                "end_time": 37.574999999999996,
                "pitch": 39,
                "velocity": 80,
                "duration": 0.09999999999999432,
                "tempo": 120.0
            },
            {
                "start_time": 37.643181818181816,
                "end_time": 37.74318181818182,
                "pitch": 39,
                "velocity": 80,
                "duration": 0.10000000000000142,
                "tempo": 120.0
            },
            {
                "start_time": 37.81136363636364,
                "end_time": 37.91136363636363,
                "pitch": 39,
                "velocity": 80,
                "duration": 0.09999999999999432,
                "tempo": 120.0
            },
            {
                "start_time": 37.97954545454545,
                "end_time": 38.07954545454545,
                "pitch": 41,
                "velocity": 80,
                "duration": 0.10000000000000142,
                "tempo": 120.0
            },
            {
                "start_time": 38.152272727272724,
                "end_time": 38.252272727272725,
                "pitch": 41,
                "velocity": 80,
                "duration": 0.10000000000000142,
                "tempo": 120.0
            },
            {
                "start_time": 38.32272727272727,
                "end_time": 38.42272727272727,
                "pitch": 41,
                "velocity": 80,
                "duration": 0.10000000000000142,
                "tempo": 120.0
            },
            {
                "start_time": 38.49090909090909,
                "end_time": 38.590909090909086,
                "pitch": 41,
                "velocity": 80,
                "duration": 0.09999999999999432,
                "tempo": 120.0
            },
            {
                "start_time": 38.65909090909091,
                "end_time": 38.75681818181818,
                "pitch": 41,
                "velocity": 80,
                "duration": 0.09772727272727622,
                "tempo": 120.0
            },
            {
                "start_time": 38.82727272727273,
                "end_time": 38.925,
                "pitch": 41,
                "velocity": 80,
                "duration": 0.09772727272726911,
                "tempo": 120.0
            },
            {
                "start_time": 38.99545454545454,
                "end_time": 39.095454545454544,
                "pitch": 41,
                "velocity": 80,
                "duration": 0.10000000000000142,
                "tempo": 120.0
            },
            {
                "start_time": 39.16590909090909,
                "end_time": 39.268181818181816,
                "pitch": 41,
                "velocity": 80,
                "duration": 0.10227272727272663,
                "tempo": 120.0
            },
            {
                "start_time": 39.33863636363636,
                "end_time": 39.43636363636364,
                "pitch": 38,
                "velocity": 80,
                "duration": 0.09772727272727622,
                "tempo": 120.0
            },
            {
                "start_time": 39.50681818181818,
                "end_time": 39.60454545454545,
                "pitch": 38,
                "velocity": 80,
                "duration": 0.09772727272726911,
                "tempo": 120.0
            },
            {
                "start_time": 39.675,
                "end_time": 39.777272727272724,
                "pitch": 38,
                "velocity": 80,
                "duration": 0.10227272727272663,
                "tempo": 120.0
            },
            {
                "start_time": 39.845454545454544,
                "end_time": 39.94772727272727,
                "pitch": 38,
                "velocity": 80,
                "duration": 0.10227272727272663,
                "tempo": 120.0
            },
            {
                "start_time": 40.018181818181816,
                "end_time": 40.11818181818182,
                "pitch": 38,
                "velocity": 80,
                "duration": 0.10000000000000142,
                "tempo": 120.0
            },
            {
                "start_time": 40.18636363636364,
                "end_time": 40.28636363636363,
                "pitch": 38,
                "velocity": 80,
                "duration": 0.09999999999999432,
                "tempo": 120.0
            },
            {
                "start_time": 40.35454545454545,
                "end_time": 40.45454545454545,
                "pitch": 38,
                "velocity": 80,
                "duration": 0.10000000000000142,
                "tempo": 120.0
            },
            {
                "start_time": 40.52272727272727,
                "end_time": 40.62045454545454,
                "pitch": 38,
                "velocity": 80,
                "duration": 0.09772727272726911,
                "tempo": 120.0
            },
            {
                "start_time": 40.69090909090909,
                "end_time": 40.79090909090909,
                "pitch": 39,
                "velocity": 80,
                "duration": 0.10000000000000142,
                "tempo": 120.0
            },
            {
                "start_time": 40.861363636363635,
                "end_time": 40.96363636363636,
                "pitch": 39,
                "velocity": 80,
                "duration": 0.10227272727272663,
                "tempo": 120.0
            },
            {
                "start_time": 41.03409090909091,
                "end_time": 41.13409090909091,
                "pitch": 39,
                "velocity": 80,
                "duration": 0.10000000000000142,
                "tempo": 120.0
            },
            {
                "start_time": 41.20227272727273,
                "end_time": 41.30227272727272,
                "pitch": 39,
                "velocity": 80,
                "duration": 0.09999999999999432,
                "tempo": 120.0
            },
            {
                "start_time": 41.37045454545454,
                "end_time": 41.46818181818182,
                "pitch": 39,
                "velocity": 80,
                "duration": 0.09772727272727622,
                "tempo": 120.0
            },
            {
                "start_time": 41.538636363636364,
                "end_time": 41.63636363636363,
                "pitch": 39,
                "velocity": 80,
                "duration": 0.09772727272726911,
                "tempo": 120.0
            },
            {
                "start_time": 41.70454545454545,
                "end_time": 41.80681818181818,
                "pitch": 39,
                "velocity": 80,
                "duration": 0.10227272727272663,
                "tempo": 120.0
            },
            {
                "start_time": 41.877272727272725,
                "end_time": 41.97954545454545,
                "pitch": 39,
                "velocity": 80,
                "duration": 0.10227272727272663,
                "tempo": 120.0
            },
            {
                "start_time": 42.05,
                "end_time": 42.14772727272727,
                "pitch": 36,
                "velocity": 80,
                "duration": 0.09772727272727622,
                "tempo": 120.0
            },
            {
                "start_time": 42.21818181818182,
                "end_time": 42.31590909090909,
                "pitch": 36,
                "velocity": 80,
                "duration": 0.09772727272726911,
                "tempo": 120.0
            },
            {
                "start_time": 42.38636363636363,
                "end_time": 42.486363636363635,
                "pitch": 36,
                "velocity": 80,
                "duration": 0.10000000000000142,
                "tempo": 120.0
            },
            {
                "start_time": 42.55681818181818,
                "end_time": 42.65909090909091,
                "pitch": 36,
                "velocity": 80,
                "duration": 0.10227272727272663,
                "tempo": 120.0
            },
            {
                "start_time": 42.72954545454545,
                "end_time": 42.82954545454545,
                "pitch": 36,
                "velocity": 80,
                "duration": 0.10000000000000142,
                "tempo": 120.0
            },
            {
                "start_time": 42.89772727272727,
                "end_time": 42.99545454545454,
                "pitch": 36,
                "velocity": 80,
                "duration": 0.09772727272726911,
                "tempo": 120.0
            },
            {
                "start_time": 43.06590909090909,
                "end_time": 43.163636363636364,
                "pitch": 36,
                "velocity": 80,
                "duration": 0.09772727272727622,
                "tempo": 120.0
            },
            {
                "start_time": 43.23181818181818,
                "end_time": 43.33181818181818,
                "pitch": 36,
                "velocity": 80,
                "duration": 0.10000000000000142,
                "tempo": 120.0
            },
            {
                "start_time": 43.402272727272724,
                "end_time": 43.502272727272725,
                "pitch": 38,
                "velocity": 80,
                "duration": 0.10000000000000142,
                "tempo": 120.0
            },
            {
                "start_time": 43.57272727272727,
                "end_time": 43.675,
                "pitch": 38,
                "velocity": 80,
                "duration": 0.10227272727272663,
                "tempo": 120.0
            },
            {
                "start_time": 43.74545454545454,
                "end_time": 43.845454545454544,
                "pitch": 38,
                "velocity": 80,
                "duration": 0.10000000000000142,
                "tempo": 120.0
            },
            {
                "start_time": 43.913636363636364,
                "end_time": 44.01136363636363,
                "pitch": 38,
                "velocity": 80,
                "duration": 0.09772727272726911,
                "tempo": 120.0
            },
            {
                "start_time": 44.08181818181818,
                "end_time": 44.179545454545455,
                "pitch": 38,
                "velocity": 80,
                "duration": 0.09772727272727622,
                "tempo": 120.0
            },
            {
                "start_time": 44.24772727272727,
                "end_time": 44.34772727272727,
                "pitch": 38,
                "velocity": 80,
                "duration": 0.10000000000000142,
                "tempo": 120.0
            },
            {
                "start_time": 44.41590909090909,
                "end_time": 44.518181818181816,
                "pitch": 38,
                "velocity": 80,
                "duration": 0.10227272727272663,
                "tempo": 120.0
            },
            {
                "start_time": 44.58863636363636,
                "end_time": 44.69090909090909,
                "pitch": 38,
                "velocity": 80,
                "duration": 0.10227272727272663,
                "tempo": 120.0
            },
            {
                "start_time": 44.76136363636363,
                "end_time": 44.85909090909091,
                "pitch": 39,
                "velocity": 80,
                "duration": 0.09772727272727622,
                "tempo": 120.0
            },
            {
                "start_time": 44.929545454545455,
                "end_time": 45.027272727272724,
                "pitch": 39,
                "velocity": 80,
                "duration": 0.09772727272726911,
                "tempo": 120.0
            },
            {
                "start_time": 45.09772727272727,
                "end_time": 45.19772727272727,
                "pitch": 42,
                "velocity": 80,
                "duration": 0.10000000000000142,
                "tempo": 120.0
            },
            {
                "start_time": 45.268181818181816,
                "end_time": 45.37045454545454,
                "pitch": 42,
                "velocity": 80,
                "duration": 0.10227272727272663,
                "tempo": 120.0
            },
            {
                "start_time": 45.44090909090909,
                "end_time": 45.538636363636364,
                "pitch": 43,
                "velocity": 80,
                "duration": 0.09772727272727622,
                "tempo": 120.0
            },
            {
                "start_time": 45.60909090909091,
                "end_time": 45.70681818181818,
                "pitch": 43,
                "velocity": 80,
                "duration": 0.09772727272726911,
                "tempo": 120.0
            },
            {
                "start_time": 45.777272727272724,
                "end_time": 45.875,
                "pitch": 45,
                "velocity": 80,
                "duration": 0.09772727272727622,
                "tempo": 120.0
            },
            {
                "start_time": 45.94318181818181,
                "end_time": 46.043181818181814,
                "pitch": 45,
                "velocity": 80,
                "duration": 0.10000000000000142,
                "tempo": 120.0
            },
            {
                "start_time": 46.111363636363635,
                "end_time": 46.211363636363636,
                "pitch": 46,
                "velocity": 80,
                "duration": 0.10000000000000142,
                "tempo": 120.0
            },
            {
                "start_time": 46.28409090909091,
                "end_time": 46.38636363636363,
                "pitch": 46,
                "velocity": 80,
                "duration": 0.10227272727272663,
                "tempo": 120.0
            },
            {
                "start_time": 46.45681818181818,
                "end_time": 46.554545454545455,
                "pitch": 46,
                "velocity": 80,
                "duration": 0.09772727272727622,
                "tempo": 120.0
            },
            {
                "start_time": 46.62272727272727,
                "end_time": 46.72272727272727,
                "pitch": 46,
                "velocity": 80,
                "duration": 0.10000000000000142,
                "tempo": 120.0
            },
            {
                "start_time": 46.79090909090909,
                "end_time": 46.89090909090909,
                "pitch": 46,
                "velocity": 80,
                "duration": 0.10000000000000142,
                "tempo": 120.0
            },
            {
                "start_time": 46.959090909090904,
                "end_time": 47.059090909090905,
                "pitch": 46,
                "velocity": 80,
                "duration": 0.10000000000000142,
                "tempo": 120.0
            },
            {
                "start_time": 47.127272727272725,
                "end_time": 47.22954545454545,
                "pitch": 46,
                "velocity": 80,
                "duration": 0.10227272727272663,
                "tempo": 120.0
            },
            {
                "start_time": 47.3,
                "end_time": 47.402272727272724,
                "pitch": 46,
                "velocity": 80,
                "duration": 0.10227272727272663,
                "tempo": 120.0
            },
            {
                "start_time": 47.47272727272727,
                "end_time": 47.570454545454545,
                "pitch": 48,
                "velocity": 80,
                "duration": 0.09772727272727622,
                "tempo": 120.0
            },
            {
                "start_time": 47.63863636363636,
                "end_time": 47.73863636363636,
                "pitch": 48,
                "velocity": 80,
                "duration": 0.10000000000000142,
                "tempo": 120.0
            },
            {
                "start_time": 47.809090909090905,
                "end_time": 47.90909090909091,
                "pitch": 48,
                "velocity": 80,
                "duration": 0.10000000000000142,
                "tempo": 120.0
            },
            {
                "start_time": 47.97954545454545,
                "end_time": 48.08181818181818,
                "pitch": 48,
                "velocity": 80,
                "duration": 0.10227272727272663,
                "tempo": 120.0
            },
            {
                "start_time": 48.152272727272724,
                "end_time": 48.25,
                "pitch": 48,
                "velocity": 80,
                "duration": 0.09772727272727622,
                "tempo": 120.0
            },
            {
                "start_time": 48.320454545454545,
                "end_time": 48.418181818181814,
                "pitch": 48,
                "velocity": 80,
                "duration": 0.09772727272726911,
                "tempo": 120.0
            },
            {
                "start_time": 48.48863636363636,
                "end_time": 48.586363636363636,
                "pitch": 48,
                "velocity": 80,
                "duration": 0.09772727272727622,
                "tempo": 120.0
            },
            {
                "start_time": 48.65454545454545,
                "end_time": 48.75454545454545,
                "pitch": 48,
                "velocity": 80,
                "duration": 0.10000000000000142,
                "tempo": 120.0
            },
            {
                "start_time": 48.824999999999996,
                "end_time": 48.925,
                "pitch": 45,
                "velocity": 80,
                "duration": 0.10000000000000142,
                "tempo": 120.0
            },
            {
                "start_time": 48.99545454545454,
                "end_time": 49.09772727272727,
                "pitch": 45,
                "velocity": 80,
                "duration": 0.10227272727272663,
                "tempo": 120.0
            },
            {
                "start_time": 49.168181818181814,
                "end_time": 49.26590909090909,
                "pitch": 45,
                "velocity": 80,
                "duration": 0.09772727272727622,
                "tempo": 120.0
            },
            {
                "start_time": 49.334090909090904,
                "end_time": 49.434090909090905,
                "pitch": 45,
                "velocity": 80,
                "duration": 0.10000000000000142,
                "tempo": 120.0
            },
            {
                "start_time": 49.502272727272725,
                "end_time": 49.60227272727273,
                "pitch": 45,
                "velocity": 80,
                "duration": 0.10000000000000142,
                "tempo": 120.0
            },
            {
                "start_time": 49.67045454545454,
                "end_time": 49.768181818181816,
                "pitch": 45,
                "velocity": 80,
                "duration": 0.09772727272727622,
                "tempo": 120.0
            },
            {
                "start_time": 49.83863636363636,
                "end_time": 49.94090909090909,
                "pitch": 45,
                "velocity": 80,
                "duration": 0.10227272727272663,
                "tempo": 120.0
            },
            {
                "start_time": 50.01136363636363,
                "end_time": 50.11363636363636,
                "pitch": 45,
                "velocity": 80,
                "duration": 0.10227272727272663,
                "tempo": 120.0
            },
            {
                "start_time": 50.184090909090905,
                "end_time": 50.28181818181818,
                "pitch": 46,
                "velocity": 80,
                "duration": 0.09772727272727622,
                "tempo": 120.0
            },
            {
                "start_time": 50.349999999999994,
                "end_time": 50.449999999999996,
                "pitch": 46,
                "velocity": 80,
                "duration": 0.10000000000000142,
                "tempo": 120.0
            },
            {
                "start_time": 50.518181818181816,
                "end_time": 50.62045454545454,
                "pitch": 46,
                "velocity": 80,
                "duration": 0.10227272727272663,
                "tempo": 120.0
            },
            {
                "start_time": 50.69090909090909,
                "end_time": 50.793181818181814,
                "pitch": 46,
                "velocity": 80,
                "duration": 0.10227272727272663,
                "tempo": 120.0
            },
            {
                "start_time": 50.86363636363636,
                "end_time": 50.961363636363636,
                "pitch": 46,
                "velocity": 80,
                "duration": 0.09772727272727622,
                "tempo": 120.0
            },
            {
                "start_time": 51.03181818181818,
                "end_time": 51.12954545454545,
                "pitch": 46,
                "velocity": 80,
                "duration": 0.09772727272726911,
                "tempo": 120.0
            },
            {
                "start_time": 51.199999999999996,
                "end_time": 51.29772727272727,
                "pitch": 46,
                "velocity": 80,
                "duration": 0.09772727272727622,
                "tempo": 120.0
            },
            {
                "start_time": 51.365909090909085,
                "end_time": 51.465909090909086,
                "pitch": 46,
                "velocity": 80,
                "duration": 0.10000000000000142,
                "tempo": 120.0
            },
            {
                "start_time": 51.53409090909091,
                "end_time": 51.63636363636363,
                "pitch": 43,
                "velocity": 80,
                "duration": 0.10227272727272663,
                "tempo": 120.0
            },
            {
                "start_time": 51.70681818181818,
                "end_time": 51.80681818181818,
                "pitch": 43,
                "velocity": 80,
                "duration": 0.10000000000000142,
                "tempo": 120.0
            },
            {
                "start_time": 51.87954545454545,
                "end_time": 51.97727272727273,
                "pitch": 43,
                "velocity": 80,
                "duration": 0.09772727272727622,
                "tempo": 120.0
            },
            {
                "start_time": 52.04545454545454,
                "end_time": 52.14545454545454,
                "pitch": 43,
                "velocity": 80,
                "duration": 0.10000000000000142,
                "tempo": 120.0
            },
            {
                "start_time": 52.21363636363636,
                "end_time": 52.31363636363636,
                "pitch": 43,
                "velocity": 80,
                "duration": 0.10000000000000142,
                "tempo": 120.0
            },
            {
                "start_time": 52.38181818181818,
                "end_time": 52.47954545454545,
                "pitch": 43,
                "velocity": 80,
                "duration": 0.09772727272726911,
                "tempo": 120.0
            },
            {
                "start_time": 52.55,
                "end_time": 52.652272727272724,
                "pitch": 43,
                "velocity": 80,
                "duration": 0.10227272727272663,
                "tempo": 120.0
            },
            {
                "start_time": 52.720454545454544,
                "end_time": 52.82272727272727,
                "pitch": 43,
                "velocity": 80,
                "duration": 0.10227272727272663,
                "tempo": 120.0
            },
            {
                "start_time": 52.893181818181816,
                "end_time": 52.990909090909085,
                "pitch": 45,
                "velocity": 80,
                "duration": 0.09772727272726911,
                "tempo": 120.0
            },
            {
                "start_time": 53.06136363636363,
                "end_time": 53.16136363636363,
                "pitch": 45,
                "velocity": 80,
                "duration": 0.10000000000000142,
                "tempo": 120.0
            },
            {
                "start_time": 53.22954545454545,
                "end_time": 53.33181818181818,
                "pitch": 45,
                "velocity": 80,
                "duration": 0.10227272727272663,
                "tempo": 120.0
            },
            {
                "start_time": 53.402272727272724,
                "end_time": 53.50454545454545,
                "pitch": 45,
                "velocity": 80,
                "duration": 0.10227272727272663,
                "tempo": 120.0
            },
            {
                "start_time": 53.574999999999996,
                "end_time": 53.67272727272727,
                "pitch": 45,
                "velocity": 80,
                "duration": 0.09772727272727622,
                "tempo": 120.0
            },
            {
                "start_time": 53.740909090909085,
                "end_time": 53.840909090909086,
                "pitch": 45,
                "velocity": 80,
                "duration": 0.10000000000000142,
                "tempo": 120.0
            },
            {
                "start_time": 53.90909090909091,
                "end_time": 54.01136363636363,
                "pitch": 45,
                "velocity": 80,
                "duration": 0.10227272727272663,
                "tempo": 120.0
            },
            {
                "start_time": 54.08181818181818,
                "end_time": 54.184090909090905,
                "pitch": 45,
                "velocity": 80,
                "duration": 0.10227272727272663,
                "tempo": 120.0
            },
            {
                "start_time": 54.25454545454545,
                "end_time": 54.756818181818176,
                "pitch": 38,
                "velocity": 80,
                "duration": 0.5022727272727252,
                "tempo": 120.0
            },
            {
                "start_time": 54.756818181818176,
                "end_time": 55.268181818181816,
                "pitch": 36,
                "velocity": 80,
                "duration": 0.5113636363636402,
                "tempo": 120.0
            },
            {
                "start_time": 55.27045454545454,
                "end_time": 55.60454545454545,
                "pitch": 39,
                "velocity": 80,
                "duration": 0.33409090909091077,
                "tempo": 120.0
            },
            {
                "start_time": 55.60454545454545,
                "end_time": 55.77045454545454,
                "pitch": 38,
                "velocity": 80,
                "duration": 0.16590909090908923,
                "tempo": 120.0
            },
            {
                "start_time": 56.961363636363636,
                "end_time": 57.05681818181818,
                "pitch": 43,
                "velocity": 80,
                "duration": 0.0954545454545439,
                "tempo": 120.0
            },
            {
                "start_time": 57.127272727272725,
                "end_time": 57.22727272727273,
                "pitch": 43,
                "velocity": 80,
                "duration": 0.10000000000000142,
                "tempo": 120.0
            },
            {
                "start_time": 57.3,
                "end_time": 57.39772727272727,
                "pitch": 43,
                "velocity": 80,
                "duration": 0.09772727272727622,
                "tempo": 120.0
            },
            {
                "start_time": 57.465909090909086,
                "end_time": 57.56590909090909,
                "pitch": 43,
                "velocity": 80,
                "duration": 0.10000000000000142,
                "tempo": 120.0
            },
            {
                "start_time": 57.63409090909091,
                "end_time": 57.736363636363635,
                "pitch": 43,
                "velocity": 80,
                "duration": 0.10227272727272663,
                "tempo": 120.0
            },
            {
                "start_time": 57.80681818181818,
                "end_time": 57.90909090909091,
                "pitch": 43,
                "velocity": 80,
                "duration": 0.10227272727272663,
                "tempo": 120.0
            },
            {
                "start_time": 57.97954545454545,
                "end_time": 58.07727272727272,
                "pitch": 43,
                "velocity": 80,
                "duration": 0.09772727272726911,
                "tempo": 120.0
            },
            {
                "start_time": 58.14772727272727,
                "end_time": 58.24545454545454,
                "pitch": 43,
                "velocity": 80,
                "duration": 0.09772727272726911,
                "tempo": 120.0
            },
            {
                "start_time": 58.31590909090909,
                "end_time": 58.413636363636364,
                "pitch": 43,
                "velocity": 80,
                "duration": 0.09772727272727622,
                "tempo": 120.0
            },
            {
                "start_time": 58.48181818181818,
                "end_time": 58.58181818181818,
                "pitch": 43,
                "velocity": 80,
                "duration": 0.10000000000000142,
                "tempo": 120.0
            },
            {
                "start_time": 58.65,
                "end_time": 58.752272727272725,
                "pitch": 43,
                "velocity": 80,
                "duration": 0.10227272727272663,
                "tempo": 120.0
            },
            {
                "start_time": 58.82272727272727,
                "end_time": 58.92272727272727,
                "pitch": 43,
                "velocity": 80,
                "duration": 0.10000000000000142,
                "tempo": 120.0
            },
            {
                "start_time": 58.99545454545454,
                "end_time": 59.09318181818182,
                "pitch": 43,
                "velocity": 80,
                "duration": 0.09772727272727622,
                "tempo": 120.0
            },
            {
                "start_time": 59.16136363636363,
                "end_time": 59.26136363636363,
                "pitch": 43,
                "velocity": 80,
                "duration": 0.10000000000000142,
                "tempo": 120.0
            },
            {
                "start_time": 59.32954545454545,
                "end_time": 59.43181818181818,
                "pitch": 43,
                "velocity": 80,
                "duration": 0.10227272727272663,
                "tempo": 120.0
            },
            {
                "start_time": 59.502272727272725,
                "end_time": 59.60454545454545,
                "pitch": 43,
                "velocity": 80,
                "duration": 0.10227272727272663,
                "tempo": 120.0
            },
            {
                "start_time": 59.67727272727272,
                "end_time": 59.77272727272727,
                "pitch": 43,
                "velocity": 80,
                "duration": 0.09545454545455101,
                "tempo": 120.0
            },
            {
                "start_time": 59.840909090909086,
                "end_time": 59.94090909090909,
                "pitch": 43,
                "velocity": 80,
                "duration": 0.10000000000000142,
                "tempo": 120.0
            },
            {
                "start_time": 60.00909090909091,
                "end_time": 60.10909090909091,
                "pitch": 43,
                "velocity": 80,
                "duration": 0.10000000000000142,
                "tempo": 120.0
            },
            {
                "start_time": 60.17727272727272,
                "end_time": 60.277272727272724,
                "pitch": 43,
                "velocity": 80,
                "duration": 0.10000000000000142,
                "tempo": 120.0
            },
            {
                "start_time": 60.345454545454544,
                "end_time": 60.44772727272727,
                "pitch": 43,
                "velocity": 80,
                "duration": 0.10227272727272663,
                "tempo": 120.0
            },
            {
                "start_time": 60.518181818181816,
                "end_time": 60.62045454545454,
                "pitch": 43,
                "velocity": 80,
                "duration": 0.10227272727272663,
                "tempo": 120.0
            },
            {
                "start_time": 60.69090909090909,
                "end_time": 60.788636363636364,
                "pitch": 43,
                "velocity": 80,
                "duration": 0.09772727272727622,
                "tempo": 120.0
            },
            {
                "start_time": 60.85681818181818,
                "end_time": 60.95681818181818,
                "pitch": 43,
                "velocity": 80,
                "duration": 0.10000000000000142,
                "tempo": 120.0
            },
            {
                "start_time": 61.027272727272724,
                "end_time": 61.125,
                "pitch": 39,
                "velocity": 80,
                "duration": 0.09772727272727622,
                "tempo": 120.0
            },
            {
                "start_time": 61.19318181818181,
                "end_time": 61.29090909090909,
                "pitch": 39,
                "velocity": 80,
                "duration": 0.09772727272727622,
                "tempo": 120.0
            },
            {
                "start_time": 61.361363636363635,
                "end_time": 61.461363636363636,
                "pitch": 39,
                "velocity": 80,
                "duration": 0.10000000000000142,
                "tempo": 120.0
            },
            {
                "start_time": 61.53409090909091,
                "end_time": 61.63409090909091,
                "pitch": 39,
                "velocity": 80,
                "duration": 0.10000000000000142,
                "tempo": 120.0
            },
            {
                "start_time": 61.70681818181818,
                "end_time": 61.804545454545455,
                "pitch": 39,
                "velocity": 80,
                "duration": 0.09772727272727622,
                "tempo": 120.0
            },
            {
                "start_time": 61.87272727272727,
                "end_time": 61.97272727272727,
                "pitch": 39,
                "velocity": 80,
                "duration": 0.10000000000000142,
                "tempo": 120.0
            },
            {
                "start_time": 62.04090909090909,
                "end_time": 62.13863636363636,
                "pitch": 39,
                "velocity": 80,
                "duration": 0.09772727272726911,
                "tempo": 120.0
            },
            {
                "start_time": 62.209090909090904,
                "end_time": 62.30681818181818,
                "pitch": 39,
                "velocity": 80,
                "duration": 0.09772727272727622,
                "tempo": 120.0
            },
            {
                "start_time": 62.377272727272725,
                "end_time": 62.47727272727273,
                "pitch": 43,
                "velocity": 80,
                "duration": 0.10000000000000142,
                "tempo": 120.0
            },
            {
                "start_time": 62.54772727272727,
                "end_time": 62.65,
                "pitch": 43,
                "velocity": 80,
                "duration": 0.10227272727272663,
                "tempo": 120.0
            },
            {
                "start_time": 62.720454545454544,
                "end_time": 62.820454545454545,
                "pitch": 43,
                "velocity": 80,
                "duration": 0.10000000000000142,
                "tempo": 120.0
            },
            {
                "start_time": 62.88863636363636,
                "end_time": 62.98863636363636,
                "pitch": 43,
                "velocity": 80,
                "duration": 0.10000000000000142,
                "tempo": 120.0
            },
            {
                "start_time": 63.05681818181818,
                "end_time": 63.15681818181818,
                "pitch": 43,
                "velocity": 80,
                "duration": 0.10000000000000142,
                "tempo": 120.0
            },
            {
                "start_time": 63.22954545454545,
                "end_time": 63.32954545454545,
                "pitch": 43,
                "velocity": 80,
                "duration": 0.10000000000000142,
                "tempo": 120.0
            },
            {
                "start_time": 63.4,
                "end_time": 63.5,
                "pitch": 43,
                "velocity": 80,
                "duration": 0.10000000000000142,
                "tempo": 120.0
            },
            {
                "start_time": 63.56818181818181,
                "end_time": 63.668181818181814,
                "pitch": 43,
                "velocity": 80,
                "duration": 0.10000000000000142,
                "tempo": 120.0
            },
            {
                "start_time": 63.73863636363636,
                "end_time": 63.836363636363636,
                "pitch": 43,
                "velocity": 80,
                "duration": 0.09772727272727622,
                "tempo": 120.0
            },
            {
                "start_time": 63.90454545454545,
                "end_time": 64.00227272727273,
                "pitch": 43,
                "velocity": 80,
                "duration": 0.09772727272727622,
                "tempo": 120.0
            },
            {
                "start_time": 64.07272727272726,
                "end_time": 64.17272727272727,
                "pitch": 43,
                "velocity": 80,
                "duration": 0.10000000000000853,
                "tempo": 120.0
            },
            {
                "start_time": 64.24318181818181,
                "end_time": 64.34545454545454,
                "pitch": 43,
                "velocity": 80,
                "duration": 0.10227272727273373,
                "tempo": 120.0
            },
            {
                "start_time": 64.41818181818182,
                "end_time": 64.51590909090909,
                "pitch": 43,
                "velocity": 80,
                "duration": 0.09772727272726911,
                "tempo": 120.0
            },
            {
                "start_time": 64.5840909090909,
                "end_time": 64.68409090909091,
                "pitch": 43,
                "velocity": 80,
                "duration": 0.10000000000000853,
                "tempo": 120.0
            },
            {
                "start_time": 64.75227272727273,
                "end_time": 64.85454545454544,
                "pitch": 43,
                "velocity": 80,
                "duration": 0.10227272727271952,
                "tempo": 120.0
            },
            {
                "start_time": 64.925,
                "end_time": 65.02499999999999,
                "pitch": 43,
                "velocity": 80,
                "duration": 0.09999999999999432,
                "tempo": 120.0
            },
            {
                "start_time": 65.09772727272727,
                "end_time": 65.19545454545454,
                "pitch": 39,
                "velocity": 80,
                "duration": 0.09772727272726911,
                "tempo": 120.0
            },
            {
                "start_time": 65.26363636363637,
                "end_time": 65.36363636363636,
                "pitch": 39,
                "velocity": 80,
                "duration": 0.09999999999999432,
                "tempo": 120.0
            },
            {
                "start_time": 65.43181818181817,
                "end_time": 65.53181818181818,
                "pitch": 39,
                "velocity": 80,
                "duration": 0.10000000000000853,
                "tempo": 120.0
            },
            {
                "start_time": 65.6,
                "end_time": 65.69772727272726,
                "pitch": 39,
                "velocity": 80,
                "duration": 0.09772727272726911,
                "tempo": 120.0
            },
            {
                "start_time": 65.76818181818182,
                "end_time": 65.86818181818181,
                "pitch": 39,
                "velocity": 80,
                "duration": 0.09999999999999432,
                "tempo": 120.0
            },
            {
                "start_time": 65.93863636363636,
                "end_time": 66.04090909090908,
                "pitch": 39,
                "velocity": 80,
                "duration": 0.10227272727271952,
                "tempo": 120.0
            },
            {
                "start_time": 66.11136363636363,
                "end_time": 66.21136363636363,
                "pitch": 39,
                "velocity": 80,
                "duration": 0.09999999999999432,
                "tempo": 120.0
            },
            {
                "start_time": 66.27954545454546,
                "end_time": 66.37954545454545,
                "pitch": 39,
                "velocity": 80,
                "duration": 0.09999999999999432,
                "tempo": 120.0
            },
            {
                "start_time": 66.45,
                "end_time": 66.54545454545455,
                "pitch": 36,
                "velocity": 80,
                "duration": 0.0954545454545439,
                "tempo": 120.0
            },
            {
                "start_time": 66.61590909090908,
                "end_time": 66.71363636363635,
                "pitch": 36,
                "velocity": 80,
                "duration": 0.09772727272726911,
                "tempo": 120.0
            },
            {
                "start_time": 66.78181818181818,
                "end_time": 66.8840909090909,
                "pitch": 38,
                "velocity": 80,
                "duration": 0.10227272727271952,
                "tempo": 120.0
            },
            {
                "start_time": 66.95454545454545,
                "end_time": 67.05681818181817,
                "pitch": 38,
                "velocity": 80,
                "duration": 0.10227272727271952,
                "tempo": 120.0
            },
            {
                "start_time": 67.12727272727273,
                "end_time": 67.22727272727272,
                "pitch": 39,
                "velocity": 80,
                "duration": 0.09999999999999432,
                "tempo": 120.0
            },
            {
                "start_time": 67.29545454545455,
                "end_time": 67.39318181818182,
                "pitch": 39,
                "velocity": 80,
                "duration": 0.09772727272726911,
                "tempo": 120.0
            },
            {
                "start_time": 67.46136363636363,
                "end_time": 67.56363636363636,
                "pitch": 39,
                "velocity": 80,
                "duration": 0.10227272727273373,
                "tempo": 120.0
            },
            {
                "start_time": 67.6340909090909,
                "end_time": 67.73636363636363,
                "pitch": 39,
                "velocity": 80,
                "duration": 0.10227272727273373,
                "tempo": 120.0
            },
            {
                "start_time": 67.80909090909091,
                "end_time": 67.90681818181818,
                "pitch": 43,
                "velocity": 80,
                "duration": 0.09772727272726911,
                "tempo": 120.0
            },
            {
                "start_time": 67.975,
                "end_time": 68.075,
                "pitch": 43,
                "velocity": 80,
                "duration": 0.10000000000000853,
                "tempo": 120.0
            },
            {
                "start_time": 68.14318181818182,
                "end_time": 68.24090909090908,
                "pitch": 43,
                "velocity": 80,
                "duration": 0.09772727272726911,
                "tempo": 120.0
            },
            {
                "start_time": 68.31136363636364,
                "end_time": 68.4090909090909,
                "pitch": 43,
                "velocity": 80,
                "duration": 0.09772727272726911,
                "tempo": 120.0
            },
            {
                "start_time": 68.47954545454544,
                "end_time": 68.57954545454545,
                "pitch": 43,
                "velocity": 80,
                "duration": 0.10000000000000853,
                "tempo": 120.0
            },
            {
                "start_time": 68.64999999999999,
                "end_time": 68.75227272727273,
                "pitch": 43,
                "velocity": 80,
                "duration": 0.10227272727273373,
                "tempo": 120.0
            },
            {
                "start_time": 68.82272727272726,
                "end_time": 68.92272727272727,
                "pitch": 43,
                "velocity": 80,
                "duration": 0.10000000000000853,
                "tempo": 120.0
            },
            {
                "start_time": 68.99090909090908,
                "end_time": 69.08863636363635,
                "pitch": 43,
                "velocity": 80,
                "duration": 0.09772727272726911,
                "tempo": 120.0
            },
            {
                "start_time": 69.1590909090909,
                "end_time": 69.25681818181818,
                "pitch": 43,
                "velocity": 80,
                "duration": 0.09772727272726911,
                "tempo": 120.0
            },
            {
                "start_time": 69.325,
                "end_time": 69.425,
                "pitch": 43,
                "velocity": 80,
                "duration": 0.09999999999999432,
                "tempo": 120.0
            },
            {
                "start_time": 69.49318181818181,
                "end_time": 69.59545454545454,
                "pitch": 43,
                "velocity": 80,
                "duration": 0.10227272727273373,
                "tempo": 120.0
            },
            {
                "start_time": 69.66590909090908,
                "end_time": 69.76818181818182,
                "pitch": 43,
                "velocity": 80,
                "duration": 0.10227272727273373,
                "tempo": 120.0
            },
            {
                "start_time": 69.83863636363635,
                "end_time": 69.93636363636364,
                "pitch": 43,
                "velocity": 80,
                "duration": 0.09772727272728332,
                "tempo": 120.0
            },
            {
                "start_time": 70.00681818181818,
                "end_time": 70.10454545454544,
                "pitch": 43,
                "velocity": 80,
                "duration": 0.09772727272726911,
                "tempo": 120.0
            },
            {
                "start_time": 70.17272727272727,
                "end_time": 70.27499999999999,
                "pitch": 43,
                "velocity": 80,
                "duration": 0.10227272727271952,
                "tempo": 120.0
            },
            {
                "start_time": 70.34545454545454,
                "end_time": 70.44772727272726,
                "pitch": 43,
                "velocity": 80,
                "duration": 0.10227272727271952,
                "tempo": 120.0
            },
            {
                "start_time": 70.52045454545454,
                "end_time": 70.61818181818181,
                "pitch": 43,
                "velocity": 80,
                "duration": 0.09772727272726911,
                "tempo": 120.0
            },
            {
                "start_time": 70.68636363636364,
                "end_time": 70.7840909090909,
                "pitch": 43,
                "velocity": 80,
                "duration": 0.09772727272726911,
                "tempo": 120.0
            },
            {
                "start_time": 70.85454545454544,
                "end_time": 70.95227272727273,
                "pitch": 43,
                "velocity": 80,
                "duration": 0.09772727272728332,
                "tempo": 120.0
            },
            {
                "start_time": 71.02045454545454,
                "end_time": 71.12045454545454,
                "pitch": 43,
                "velocity": 80,
                "duration": 0.09999999999999432,
                "tempo": 120.0
            },
            {
                "start_time": 71.19090909090909,
                "end_time": 71.29090909090908,
                "pitch": 43,
                "velocity": 80,
                "duration": 0.09999999999999432,
                "tempo": 120.0
            },
            {
                "start_time": 71.36136363636363,
                "end_time": 71.46363636363635,
                "pitch": 43,
                "velocity": 80,
                "duration": 0.10227272727271952,
                "tempo": 120.0
            },
            {
                "start_time": 71.5340909090909,
                "end_time": 71.63181818181818,
                "pitch": 43,
                "velocity": 80,
                "duration": 0.09772727272726911,
                "tempo": 120.0
            },
            {
                "start_time": 71.70227272727273,
                "end_time": 71.8,
                "pitch": 43,
                "velocity": 80,
                "duration": 0.09772727272726911,
                "tempo": 120.0
            },
            {
                "start_time": 71.87045454545454,
                "end_time": 71.96818181818182,
                "pitch": 39,
                "velocity": 80,
                "duration": 0.09772727272728332,
                "tempo": 120.0
            },
            {
                "start_time": 72.03636363636363,
                "end_time": 72.13636363636363,
                "pitch": 39,
                "velocity": 80,
                "duration": 0.09999999999999432,
                "tempo": 120.0
            },
            {
                "start_time": 72.20454545454545,
                "end_time": 72.30681818181817,
                "pitch": 39,
                "velocity": 80,
                "duration": 0.10227272727271952,
                "tempo": 120.0
            },
            {
                "start_time": 72.37727272727273,
                "end_time": 72.47954545454544,
                "pitch": 39,
                "velocity": 80,
                "duration": 0.10227272727271952,
                "tempo": 120.0
            },
            {
                "start_time": 72.55,
                "end_time": 72.64772727272727,
                "pitch": 39,
                "velocity": 80,
                "duration": 0.09772727272726911,
                "tempo": 120.0
            },
            {
                "start_time": 72.71818181818182,
                "end_time": 72.81590909090909,
                "pitch": 39,
                "velocity": 80,
                "duration": 0.09772727272726911,
                "tempo": 120.0
            },
            {
                "start_time": 72.8840909090909,
                "end_time": 72.98409090909091,
                "pitch": 39,
                "velocity": 80,
                "duration": 0.10000000000000853,
                "tempo": 120.0
            },
            {
                "start_time": 73.05227272727272,
                "end_time": 73.15227272727272,
                "pitch": 39,
                "velocity": 80,
                "duration": 0.09999999999999432,
                "tempo": 120.0
            },
            {
                "start_time": 73.22272727272727,
                "end_time": 73.32272727272726,
                "pitch": 43,
                "velocity": 80,
                "duration": 0.09999999999999432,
                "tempo": 120.0
            },
            {
                "start_time": 73.39318181818182,
                "end_time": 73.49318181818181,
                "pitch": 43,
                "velocity": 80,
                "duration": 0.09999999999999432,
                "tempo": 120.0
            },
            {
                "start_time": 73.56590909090909,
                "end_time": 73.66363636363636,
                "pitch": 43,
                "velocity": 80,
                "duration": 0.09772727272726911,
                "tempo": 120.0
            },
            {
                "start_time": 73.73181818181818,
                "end_time": 73.83181818181818,
                "pitch": 43,
                "velocity": 80,
                "duration": 0.09999999999999432,
                "tempo": 120.0
            },
            {
                "start_time": 73.89999999999999,
                "end_time": 74.00227272727273,
                "pitch": 43,
                "velocity": 80,
                "duration": 0.10227272727273373,
                "tempo": 120.0
            },
            {
                "start_time": 74.07272727272726,
                "end_time": 74.175,
                "pitch": 43,
                "velocity": 80,
                "duration": 0.10227272727273373,
                "tempo": 120.0
            },
            {
                "start_time": 74.24545454545454,
                "end_time": 74.34318181818182,
                "pitch": 43,
                "velocity": 80,
                "duration": 0.09772727272728332,
                "tempo": 120.0
            },
            {
                "start_time": 74.41363636363636,
                "end_time": 74.51136363636363,
                "pitch": 43,
                "velocity": 80,
                "duration": 0.09772727272726911,
                "tempo": 120.0
            },
            {
                "start_time": 74.58181818181818,
                "end_time": 74.67954545454545,
                "pitch": 43,
                "velocity": 80,
                "duration": 0.09772727272726911,
                "tempo": 120.0
            },
            {
                "start_time": 74.74772727272727,
                "end_time": 74.84772727272727,
                "pitch": 43,
                "velocity": 80,
                "duration": 0.09999999999999432,
                "tempo": 120.0
            },
            {
                "start_time": 74.91590909090908,
                "end_time": 75.01818181818182,
                "pitch": 43,
                "velocity": 80,
                "duration": 0.10227272727273373,
                "tempo": 120.0
            },
            {
                "start_time": 75.08863636363635,
                "end_time": 75.19090909090909,
                "pitch": 43,
                "velocity": 80,
                "duration": 0.10227272727273373,
                "tempo": 120.0
            },
            {
                "start_time": 75.26136363636363,
                "end_time": 75.35909090909091,
                "pitch": 43,
                "velocity": 80,
                "duration": 0.09772727272728332,
                "tempo": 120.0
            },
            {
                "start_time": 75.42727272727272,
                "end_time": 75.52727272727272,
                "pitch": 43,
                "velocity": 80,
                "duration": 0.09999999999999432,
                "tempo": 120.0
            },
            {
                "start_time": 75.59545454545454,
                "end_time": 75.69772727272726,
                "pitch": 43,
                "velocity": 80,
                "duration": 0.10227272727271952,
                "tempo": 120.0
            },
            {
                "start_time": 75.76818181818182,
                "end_time": 75.87045454545454,
                "pitch": 43,
                "velocity": 80,
                "duration": 0.10227272727271952,
                "tempo": 120.0
            },
            {
                "start_time": 75.94318181818181,
                "end_time": 76.03863636363636,
                "pitch": 39,
                "velocity": 80,
                "duration": 0.0954545454545439,
                "tempo": 120.0
            },
            {
                "start_time": 76.10681818181818,
                "end_time": 76.20681818181818,
                "pitch": 39,
                "velocity": 80,
                "duration": 0.09999999999999432,
                "tempo": 120.0
            },
            {
                "start_time": 76.27499999999999,
                "end_time": 76.375,
                "pitch": 39,
                "velocity": 80,
                "duration": 0.10000000000000853,
                "tempo": 120.0
            },
            {
                "start_time": 76.44318181818181,
                "end_time": 76.54318181818182,
                "pitch": 39,
                "velocity": 80,
                "duration": 0.10000000000000853,
                "tempo": 120.0
            },
            {
                "start_time": 76.61136363636363,
                "end_time": 76.71363636363635,
                "pitch": 39,
                "velocity": 80,
                "duration": 0.10227272727271952,
                "tempo": 120.0
            },
            {
                "start_time": 76.7840909090909,
                "end_time": 76.88636363636363,
                "pitch": 39,
                "velocity": 80,
                "duration": 0.10227272727271952,
                "tempo": 120.0
            },
            {
                "start_time": 76.95681818181818,
                "end_time": 77.05454545454545,
                "pitch": 39,
                "velocity": 80,
                "duration": 0.09772727272726911,
                "tempo": 120.0
            },
            {
                "start_time": 77.12272727272727,
                "end_time": 77.22272727272727,
                "pitch": 39,
                "velocity": 80,
                "duration": 0.09999999999999432,
                "tempo": 120.0
            },
            {
                "start_time": 77.29318181818181,
                "end_time": 77.39090909090909,
                "pitch": 36,
                "velocity": 80,
                "duration": 0.09772727272728332,
                "tempo": 120.0
            }
        ],
        "Electric Piano 1": [
            {
                "start_time": 0.03636363636363636,
                "end_time": 0.19999999999999998,
                "pitch": 67,
                "velocity": 101,
                "duration": 0.16363636363636364,
                "tempo": 120.0
            },
            {
                "start_time": 0.19999999999999998,
                "end_time": 0.3659090909090909,
                "pitch": 69,
                "velocity": 101,
                "duration": 0.16590909090909092,
                "tempo": 120.0
            },
            {
                "start_time": 0.36818181818181817,
                "end_time": 0.5340909090909091,
                "pitch": 70,
                "velocity": 101,
                "duration": 0.1659090909090909,
                "tempo": 120.0
            },
            {
                "start_time": 0.5363636363636364,
                "end_time": 0.7022727272727273,
                "pitch": 67,
                "velocity": 101,
                "duration": 0.1659090909090909,
                "tempo": 120.0
            },
            {
                "start_time": 0.7045454545454545,
                "end_time": 0.8704545454545454,
                "pitch": 69,
                "velocity": 101,
                "duration": 0.1659090909090909,
                "tempo": 120.0
            },
            {
                "start_time": 0.8704545454545454,
                "end_time": 1.0386363636363636,
                "pitch": 70,
                "velocity": 101,
                "duration": 0.1681818181818182,
                "tempo": 120.0
            },
            {
                "start_time": 1.0386363636363636,
                "end_time": 1.209090909090909,
                "pitch": 72,
                "velocity": 101,
                "duration": 0.17045454545454541,
                "tempo": 120.0
            },
            {
                "start_time": 1.2113636363636362,
                "end_time": 1.3818181818181818,
                "pitch": 69,
                "velocity": 101,
                "duration": 0.17045454545454564,
                "tempo": 120.0
            },
            {
                "start_time": 1.384090909090909,
                "end_time": 1.5499999999999998,
                "pitch": 70,
                "velocity": 101,
                "duration": 0.16590909090909078,
                "tempo": 120.0
            },
            {
                "start_time": 1.5522727272727272,
                "end_time": 1.718181818181818,
                "pitch": 72,
                "velocity": 101,
                "duration": 0.16590909090909078,
                "tempo": 120.0
            },
            {
                "start_time": 1.718181818181818,
                "end_time": 1.8863636363636362,
                "pitch": 74,
                "velocity": 101,
                "duration": 0.1681818181818182,
                "tempo": 120.0
            },
            {
                "start_time": 1.8863636363636362,
                "end_time": 2.0522727272727272,
                "pitch": 70,
                "velocity": 101,
                "duration": 0.165909090909091,
                "tempo": 120.0
            },
            {
                "start_time": 2.0545454545454542,
                "end_time": 2.225,
                "pitch": 72,
                "velocity": 101,
                "duration": 0.17045454545454586,
                "tempo": 120.0
            },
            {
                "start_time": 2.227272727272727,
                "end_time": 2.3977272727272725,
                "pitch": 74,
                "velocity": 101,
                "duration": 0.17045454545454541,
                "tempo": 120.0
            },
            {
                "start_time": 2.4,
                "end_time": 2.565909090909091,
                "pitch": 75,
                "velocity": 101,
                "duration": 0.165909090909091,
                "tempo": 120.0
            },
            {
                "start_time": 2.565909090909091,
                "end_time": 2.734090909090909,
                "pitch": 72,
                "velocity": 101,
                "duration": 0.168181818181818,
                "tempo": 120.0
            },
            {
                "start_time": 2.734090909090909,
                "end_time": 2.9045454545454543,
                "pitch": 74,
                "velocity": 101,
                "duration": 0.17045454545454541,
                "tempo": 120.0
            },
            {
                "start_time": 2.9068181818181817,
                "end_time": 3.077272727272727,
                "pitch": 72,
                "velocity": 101,
                "duration": 0.17045454545454541,
                "tempo": 120.0
            },
            {
                "start_time": 3.0795454545454546,
                "end_time": 3.245454545454545,
                "pitch": 74,
                "velocity": 101,
                "duration": 0.16590909090909056,
                "tempo": 120.0
            },
            {
                "start_time": 3.2477272727272726,
                "end_time": 3.4136363636363636,
                "pitch": 79,
                "velocity": 101,
                "duration": 0.165909090909091,
                "tempo": 120.0
            },
            {
                "start_time": 3.4159090909090906,
                "end_time": 3.5818181818181816,
                "pitch": 72,
                "velocity": 101,
                "duration": 0.165909090909091,
                "tempo": 120.0
            },
            {
                "start_time": 3.5818181818181816,
                "end_time": 3.7477272727272726,
                "pitch": 70,
                "velocity": 101,
                "duration": 0.165909090909091,
                "tempo": 120.0
            },
            {
                "start_time": 3.75,
                "end_time": 3.9159090909090906,
                "pitch": 72,
                "velocity": 101,
                "duration": 0.16590909090909056,
                "tempo": 120.0
            },
            {
                "start_time": 3.918181818181818,
                "end_time": 4.084090909090909,
                "pitch": 79,
                "velocity": 101,
                "duration": 0.165909090909091,
                "tempo": 120.0
            },
            {
                "start_time": 4.086363636363636,
                "end_time": 4.256818181818182,
                "pitch": 70,
                "velocity": 101,
                "duration": 0.17045454545454586,
                "tempo": 120.0
            },
            {
                "start_time": 4.256818181818182,
                "end_time": 4.429545454545455,
                "pitch": 69,
                "velocity": 101,
                "duration": 0.17272727272727284,
                "tempo": 120.0
            },
            {
                "start_time": 4.429545454545455,
                "end_time": 4.595454545454545,
                "pitch": 70,
                "velocity": 101,
                "duration": 0.16590909090909012,
                "tempo": 120.0
            },
            {
                "start_time": 4.597727272727273,
                "end_time": 4.763636363636364,
                "pitch": 74,
                "velocity": 101,
                "duration": 0.165909090909091,
                "tempo": 120.0
            },
            {
                "start_time": 4.765909090909091,
                "end_time": 4.9363636363636365,
                "pitch": 69,
                "velocity": 101,
                "duration": 0.17045454545454586,
                "tempo": 120.0
            },
            {
                "start_time": 4.9386363636363635,
                "end_time": 5.1090909090909085,
                "pitch": 67,
                "velocity": 101,
                "duration": 0.17045454545454497,
                "tempo": 120.0
            },
            {
                "start_time": 5.111363636363636,
                "end_time": 5.277272727272727,
                "pitch": 69,
                "velocity": 101,
                "duration": 0.165909090909091,
                "tempo": 120.0
            },
            {
                "start_time": 5.277272727272727,
                "end_time": 5.445454545454545,
                "pitch": 70,
                "velocity": 101,
                "duration": 0.168181818181818,
                "tempo": 120.0
            },
            {
                "start_time": 5.447727272727272,
                "end_time": 5.611363636363636,
                "pitch": 67,
                "velocity": 101,
                "duration": 0.16363636363636402,
                "tempo": 120.0
            },
            {
                "start_time": 5.613636363636363,
                "end_time": 5.779545454545454,
                "pitch": 69,
                "velocity": 101,
                "duration": 0.165909090909091,
                "tempo": 120.0
            },
            {
                "start_time": 5.781818181818181,
                "end_time": 5.952272727272727,
                "pitch": 70,
                "velocity": 101,
                "duration": 0.17045454545454586,
                "tempo": 120.0
            },
            {
                "start_time": 5.952272727272727,
                "end_time": 6.125,
                "pitch": 67,
                "velocity": 101,
                "duration": 0.17272727272727284,
                "tempo": 120.0
            },
            {
                "start_time": 6.125,
                "end_time": 6.290909090909091,
                "pitch": 69,
                "velocity": 101,
                "duration": 0.165909090909091,
                "tempo": 120.0
            },
            {
                "start_time": 6.293181818181818,
                "end_time": 6.459090909090909,
                "pitch": 70,
                "velocity": 101,
                "duration": 0.165909090909091,
                "tempo": 120.0
            },
            {
                "start_time": 6.461363636363636,
                "end_time": 6.631818181818182,
                "pitch": 72,
                "velocity": 101,
                "duration": 0.17045454545454586,
                "tempo": 120.0
            },
            {
                "start_time": 6.634090909090909,
                "end_time": 6.804545454545454,
                "pitch": 69,
                "velocity": 101,
                "duration": 0.17045454545454497,
                "tempo": 120.0
            },
            {
                "start_time": 6.806818181818182,
                "end_time": 6.972727272727273,
                "pitch": 70,
                "velocity": 101,
                "duration": 0.165909090909091,
                "tempo": 120.0
            },
            {
                "start_time": 6.972727272727273,
                "end_time": 7.138636363636364,
                "pitch": 72,
                "velocity": 101,
                "duration": 0.165909090909091,
                "tempo": 120.0
            },
            {
                "start_time": 7.140909090909091,
                "end_time": 7.306818181818182,
                "pitch": 74,
                "velocity": 101,
                "duration": 0.165909090909091,
                "tempo": 120.0
            },
            {
                "start_time": 7.309090909090909,
                "end_time": 7.475,
                "pitch": 70,
                "velocity": 101,
                "duration": 0.165909090909091,
                "tempo": 120.0
            },
            {
                "start_time": 7.477272727272727,
                "end_time": 7.6477272727272725,
                "pitch": 72,
                "velocity": 101,
                "duration": 0.17045454545454586,
                "tempo": 120.0
            },
            {
                "start_time": 7.6499999999999995,
                "end_time": 7.820454545454545,
                "pitch": 74,
                "velocity": 101,
                "duration": 0.17045454545454586,
                "tempo": 120.0
            },
            {
                "start_time": 7.820454545454545,
                "end_time": 7.986363636363636,
                "pitch": 75,
                "velocity": 101,
                "duration": 0.165909090909091,
                "tempo": 120.0
            },
            {
                "start_time": 7.988636363636363,
                "end_time": 8.154545454545454,
                "pitch": 72,
                "velocity": 101,
                "duration": 0.165909090909091,
                "tempo": 120.0
            },
            {
                "start_time": 8.156818181818181,
                "end_time": 8.322727272727272,
                "pitch": 74,
                "velocity": 101,
                "duration": 0.165909090909091,
                "tempo": 120.0
            },
            {
                "start_time": 8.325,
                "end_time": 8.49090909090909,
                "pitch": 72,
                "velocity": 101,
                "duration": 0.165909090909091,
                "tempo": 120.0
            },
            {
                "start_time": 8.49090909090909,
                "end_time": 8.659090909090908,
                "pitch": 74,
                "velocity": 101,
                "duration": 0.168181818181818,
                "tempo": 120.0
            },
            {
                "start_time": 8.659090909090908,
                "end_time": 8.827272727272726,
                "pitch": 79,
                "velocity": 101,
                "duration": 0.168181818181818,
                "tempo": 120.0
            },
            {
                "start_time": 8.827272727272726,
                "end_time": 8.997727272727273,
                "pitch": 72,
                "velocity": 101,
                "duration": 0.17045454545454675,
                "tempo": 120.0
            },
            {
                "start_time": 9.0,
                "end_time": 9.170454545454545,
                "pitch": 70,
                "velocity": 101,
                "duration": 0.17045454545454497,
                "tempo": 120.0
            },
            {
                "start_time": 9.172727272727272,
                "end_time": 9.338636363636363,
                "pitch": 72,
                "velocity": 101,
                "duration": 0.165909090909091,
                "tempo": 120.0
            },
            {
                "start_time": 9.338636363636363,
                "end_time": 9.506818181818181,
                "pitch": 79,
                "velocity": 101,
                "duration": 0.168181818181818,
                "tempo": 120.0
            },
            {
                "start_time": 9.506818181818181,
                "end_time": 9.677272727272726,
                "pitch": 70,
                "velocity": 101,
                "duration": 0.17045454545454497,
                "tempo": 120.0
            },
            {
                "start_time": 9.679545454545455,
                "end_time": 9.85,
                "pitch": 69,
                "velocity": 101,
                "duration": 0.17045454545454497,
                "tempo": 120.0
            },
            {
                "start_time": 9.852272727272727,
                "end_time": 10.018181818181818,
                "pitch": 70,
                "velocity": 101,
                "duration": 0.165909090909091,
                "tempo": 120.0
            },
            {
                "start_time": 10.020454545454545,
                "end_time": 10.186363636363636,
                "pitch": 74,
                "velocity": 101,
                "duration": 0.165909090909091,
                "tempo": 120.0
            },
            {
                "start_time": 10.188636363636363,
                "end_time": 10.35909090909091,
                "pitch": 69,
                "velocity": 101,
                "duration": 0.17045454545454675,
                "tempo": 120.0
            },
            {
                "start_time": 10.35909090909091,
                "end_time": 10.531818181818181,
                "pitch": 67,
                "velocity": 101,
                "duration": 0.17272727272727195,
                "tempo": 120.0
            },
            {
                "start_time": 10.531818181818181,
                "end_time": 10.697727272727272,
                "pitch": 69,
                "velocity": 101,
                "duration": 0.165909090909091,
                "tempo": 120.0
            },
            {
                "start_time": 10.7,
                "end_time": 10.86590909090909,
                "pitch": 70,
                "velocity": 101,
                "duration": 0.165909090909091,
                "tempo": 120.0
            },
            {
                "start_time": 10.868181818181817,
                "end_time": 11.211363636363636,
                "pitch": 67,
                "velocity": 101,
                "duration": 0.3431818181818187,
                "tempo": 120.0
            },
            {
                "start_time": 11.211363636363636,
                "end_time": 11.227272727272727,
                "pitch": 67,
                "velocity": 101,
                "duration": 0.01590909090909065,
                "tempo": 120.0
            },
            {
                "start_time": 11.227272727272727,
                "end_time": 11.34090909090909,
                "pitch": 67,
                "velocity": 101,
                "duration": 0.11363636363636331,
                "tempo": 120.0
            },
            {
                "start_time": 11.211363636363636,
                "end_time": 11.34090909090909,
                "pitch": 79,
                "velocity": 101,
                "duration": 0.12954545454545396,
                "tempo": 120.0
            },
            {
                "start_time": 11.227272727272727,
                "end_time": 11.35681818181818,
                "pitch": 55,
                "velocity": 101,
                "duration": 0.12954545454545396,
                "tempo": 120.0
            },
            {
                "start_time": 11.34090909090909,
                "end_time": 11.35681818181818,
                "pitch": 67,
                "velocity": 101,
                "duration": 0.01590909090909065,
                "tempo": 120.0
            },
            {
                "start_time": 11.35681818181818,
                "end_time": 11.470454545454546,
                "pitch": 67,
                "velocity": 101,
                "duration": 0.11363636363636509,
                "tempo": 120.0
            },
            {
                "start_time": 11.34090909090909,
                "end_time": 11.470454545454546,
                "pitch": 79,
                "velocity": 101,
                "duration": 0.12954545454545574,
                "tempo": 120.0
            },
            {
                "start_time": 11.35681818181818,
                "end_time": 11.486363636363636,
                "pitch": 55,
                "velocity": 101,
                "duration": 0.12954545454545574,
                "tempo": 120.0
            },
            {
                "start_time": 11.470454545454546,
                "end_time": 11.486363636363636,
                "pitch": 67,
                "velocity": 101,
                "duration": 0.01590909090909065,
                "tempo": 120.0
            },
            {
                "start_time": 11.486363636363636,
                "end_time": 11.602272727272727,
                "pitch": 67,
                "velocity": 101,
                "duration": 0.1159090909090903,
                "tempo": 120.0
            },
            {
                "start_time": 11.470454545454546,
                "end_time": 11.602272727272727,
                "pitch": 79,
                "velocity": 101,
                "duration": 0.13181818181818095,
                "tempo": 120.0
            },
            {
                "start_time": 11.486363636363636,
                "end_time": 11.620454545454544,
                "pitch": 55,
                "velocity": 101,
                "duration": 0.13409090909090793,
                "tempo": 120.0
            },
            {
                "start_time": 11.602272727272727,
                "end_time": 11.620454545454544,
                "pitch": 67,
                "velocity": 101,
                "duration": 0.018181818181817633,
                "tempo": 120.0
            },
            {
                "start_time": 11.620454545454544,
                "end_time": 11.736363636363636,
                "pitch": 67,
                "velocity": 101,
                "duration": 0.11590909090909207,
                "tempo": 120.0
            },
            {
                "start_time": 11.602272727272727,
                "end_time": 11.738636363636363,
                "pitch": 79,
                "velocity": 101,
                "duration": 0.1363636363636367,
                "tempo": 120.0
            },
            {
                "start_time": 11.736363636363636,
                "end_time": 11.738636363636363,
                "pitch": 79,
                "velocity": 101,
                "duration": 0.002272727272726982,
                "tempo": 120.0
            },
            {
                "start_time": 11.620454545454544,
                "end_time": 11.754545454545454,
                "pitch": 55,
                "velocity": 101,
                "duration": 0.1340909090909097,
                "tempo": 120.0
            },
            {
                "start_time": 11.738636363636363,
                "end_time": 11.754545454545454,
                "pitch": 67,
                "velocity": 101,
                "duration": 0.01590909090909065,
                "tempo": 120.0
            },
            {
                "start_time": 11.754545454545454,
                "end_time": 11.872727272727273,
                "pitch": 67,
                "velocity": 101,
                "duration": 0.11818181818181905,
                "tempo": 120.0
            },
            {
                "start_time": 11.754545454545454,
                "end_time": 11.888636363636364,
                "pitch": 55,
                "velocity": 101,
                "duration": 0.1340909090909097,
                "tempo": 120.0
            },
            {
                "start_time": 11.872727272727273,
                "end_time": 11.888636363636364,
                "pitch": 67,
                "velocity": 101,
                "duration": 0.01590909090909065,
                "tempo": 120.0
            },
            {
                "start_time": 11.888636363636364,
                "end_time": 12.013636363636364,
                "pitch": 67,
                "velocity": 101,
                "duration": 0.125,
                "tempo": 120.0
            },
            {
                "start_time": 11.872727272727273,
                "end_time": 12.013636363636364,
                "pitch": 79,
                "velocity": 101,
                "duration": 0.14090909090909065,
                "tempo": 120.0
            },
            {
                "start_time": 11.888636363636364,
                "end_time": 12.031818181818181,
                "pitch": 55,
                "velocity": 101,
                "duration": 0.14318181818181763,
                "tempo": 120.0
            },
            {
                "start_time": 12.013636363636364,
                "end_time": 12.031818181818181,
                "pitch": 67,
                "velocity": 101,
                "duration": 0.018181818181817633,
                "tempo": 120.0
            },
            {
                "start_time": 12.031818181818181,
                "end_time": 12.154545454545454,
                "pitch": 67,
                "velocity": 101,
                "duration": 0.12272727272727302,
                "tempo": 120.0
            },
            {
                "start_time": 12.013636363636364,
                "end_time": 12.154545454545454,
                "pitch": 79,
                "velocity": 101,
                "duration": 0.14090909090909065,
                "tempo": 120.0
            },
            {
                "start_time": 12.031818181818181,
                "end_time": 12.172727272727272,
                "pitch": 55,
                "velocity": 101,
                "duration": 0.14090909090909065,
                "tempo": 120.0
            },
            {
                "start_time": 12.154545454545454,
                "end_time": 12.172727272727272,
                "pitch": 67,
                "velocity": 101,
                "duration": 0.018181818181817633,
                "tempo": 120.0
            },
            {
                "start_time": 12.172727272727272,
                "end_time": 12.225,
                "pitch": 67,
                "velocity": 101,
                "duration": 0.05227272727272769,
                "tempo": 120.0
            },
            {
                "start_time": 13.070454545454545,
                "end_time": 13.154545454545454,
                "pitch": 85,
                "velocity": 80,
                "duration": 0.084090909090909,
                "tempo": 120.0
            },
            {
                "start_time": 13.156818181818181,
                "end_time": 13.24090909090909,
                "pitch": 85,
                "velocity": 80,
                "duration": 0.084090909090909,
                "tempo": 120.0
            },
            {
                "start_time": 13.243181818181817,
                "end_time": 13.325,
                "pitch": 61,
                "velocity": 80,
                "duration": 0.08181818181818201,
                "tempo": 120.0
            },
            {
                "start_time": 13.327272727272726,
                "end_time": 13.409090909090908,
                "pitch": 62,
                "velocity": 80,
                "duration": 0.08181818181818201,
                "tempo": 120.0
            },
            {
                "start_time": 13.411363636363635,
                "end_time": 13.493181818181817,
                "pitch": 50,
                "velocity": 80,
                "duration": 0.08181818181818201,
                "tempo": 120.0
            },
            {
                "start_time": 13.493181818181817,
                "end_time": 13.577272727272726,
                "pitch": 50,
                "velocity": 80,
                "duration": 0.084090909090909,
                "tempo": 120.0
            },
            {
                "start_time": 12.172727272727272,
                "end_time": 13.747727272727271,
                "pitch": 55,
                "velocity": 101,
                "duration": 1.5749999999999993,
                "tempo": 120.0
            },
            {
                "start_time": 13.579545454545453,
                "end_time": 13.747727272727271,
                "pitch": 55,
                "velocity": 101,
                "duration": 0.168181818181818,
                "tempo": 120.0
            },
            {
                "start_time": 13.75,
                "end_time": 13.920454545454545,
                "pitch": 57,
                "velocity": 101,
                "duration": 0.17045454545454497,
                "tempo": 120.0
            },
            {
                "start_time": 13.922727272727272,
                "end_time": 14.088636363636363,
                "pitch": 58,
                "velocity": 101,
                "duration": 0.165909090909091,
                "tempo": 120.0
            },
            {
                "start_time": 14.09090909090909,
                "end_time": 14.256818181818181,
                "pitch": 55,
                "velocity": 101,
                "duration": 0.165909090909091,
                "tempo": 120.0
            },
            {
                "start_time": 14.256818181818181,
                "end_time": 14.424999999999999,
                "pitch": 57,
                "velocity": 101,
                "duration": 0.168181818181818,
                "tempo": 120.0
            },
            {
                "start_time": 14.424999999999999,
                "end_time": 14.59090909090909,
                "pitch": 58,
                "velocity": 101,
                "duration": 0.165909090909091,
                "tempo": 120.0
            },
            {
                "start_time": 14.593181818181817,
                "end_time": 14.763636363636364,
                "pitch": 60,
                "velocity": 101,
                "duration": 0.17045454545454675,
                "tempo": 120.0
            },
            {
                "start_time": 14.76590909090909,
                "end_time": 14.936363636363636,
                "pitch": 57,
                "velocity": 101,
                "duration": 0.17045454545454497,
                "tempo": 120.0
            },
            {
                "start_time": 14.938636363636363,
                "end_time": 15.104545454545454,
                "pitch": 58,
                "velocity": 101,
                "duration": 0.165909090909091,
                "tempo": 120.0
            },
            {
                "start_time": 15.10681818181818,
                "end_time": 15.272727272727272,
                "pitch": 60,
                "velocity": 101,
                "duration": 0.165909090909091,
                "tempo": 120.0
            },
            {
                "start_time": 15.272727272727272,
                "end_time": 15.443181818181817,
                "pitch": 62,
                "velocity": 101,
                "duration": 0.17045454545454497,
                "tempo": 120.0
            },
            {
                "start_time": 15.445454545454545,
                "end_time": 15.61590909090909,
                "pitch": 58,
                "velocity": 101,
                "duration": 0.17045454545454497,
                "tempo": 120.0
            },
            {
                "start_time": 15.618181818181817,
                "end_time": 15.784090909090908,
                "pitch": 60,
                "velocity": 101,
                "duration": 0.165909090909091,
                "tempo": 120.0
            },
            {
                "start_time": 15.786363636363635,
                "end_time": 15.952272727272726,
                "pitch": 62,
                "velocity": 101,
                "duration": 0.165909090909091,
                "tempo": 120.0
            },
            {
                "start_time": 15.954545454545453,
                "end_time": 16.120454545454546,
                "pitch": 63,
                "velocity": 101,
                "duration": 0.16590909090909278,
                "tempo": 120.0
            },
            {
                "start_time": 16.120454545454546,
                "end_time": 16.288636363636364,
                "pitch": 60,
                "velocity": 101,
                "duration": 0.168181818181818,
                "tempo": 120.0
            },
            {
                "start_time": 16.288636363636364,
                "end_time": 16.631818181818183,
                "pitch": 62,
                "velocity": 101,
                "duration": 0.3431818181818187,
                "tempo": 120.0
            },
            {
                "start_time": 16.634090909090908,
                "end_time": 16.96818181818182,
                "pitch": 67,
                "velocity": 101,
                "duration": 0.33409090909091077,
                "tempo": 120.0
            },
            {
                "start_time": 16.96818181818182,
                "end_time": 17.302272727272726,
                "pitch": 66,
                "velocity": 101,
                "duration": 0.3340909090909072,
                "tempo": 120.0
            },
            {
                "start_time": 17.304545454545455,
                "end_time": 17.647727272727273,
                "pitch": 67,
                "velocity": 101,
                "duration": 0.3431818181818187,
                "tempo": 120.0
            },
            {
                "start_time": 17.65,
                "end_time": 17.81590909090909,
                "pitch": 63,
                "velocity": 101,
                "duration": 0.16590909090909278,
                "tempo": 120.0
            },
            {
                "start_time": 17.81590909090909,
                "end_time": 17.98181818181818,
                "pitch": 62,
                "velocity": 101,
                "duration": 0.16590909090908923,
                "tempo": 120.0
            },
            {
                "start_time": 17.98409090909091,
                "end_time": 18.154545454545453,
                "pitch": 60,
                "velocity": 101,
                "duration": 0.1704545454545432,
                "tempo": 120.0
            },
            {
                "start_time": 18.15681818181818,
                "end_time": 18.327272727272728,
                "pitch": 58,
                "velocity": 101,
                "duration": 0.17045454545454675,
                "tempo": 120.0
            },
            {
                "start_time": 18.329545454545453,
                "end_time": 18.411363636363635,
                "pitch": 57,
                "velocity": 101,
                "duration": 0.08181818181818201,
                "tempo": 120.0
            },
            {
                "start_time": 18.413636363636364,
                "end_time": 18.495454545454546,
                "pitch": 58,
                "velocity": 101,
                "duration": 0.08181818181818201,
                "tempo": 120.0
            },
            {
                "start_time": 18.49772727272727,
                "end_time": 18.579545454545453,
                "pitch": 57,
                "velocity": 101,
                "duration": 0.08181818181818201,
                "tempo": 120.0
            },
            {
                "start_time": 18.579545454545453,
                "end_time": 18.663636363636364,
                "pitch": 58,
                "velocity": 101,
                "duration": 0.08409090909091077,
                "tempo": 120.0
            },
            {
                "start_time": 18.663636363636364,
                "end_time": 18.831818181818182,
                "pitch": 57,
                "velocity": 101,
                "duration": 0.168181818181818,
                "tempo": 120.0
            },
            {
                "start_time": 18.831818181818182,
                "end_time": 18.913636363636364,
                "pitch": 55,
                "velocity": 101,
                "duration": 0.08181818181818201,
                "tempo": 120.0
            },
            {
                "start_time": 18.91590909090909,
                "end_time": 18.99772727272727,
                "pitch": 54,
                "velocity": 101,
                "duration": 0.08181818181818201,
                "tempo": 120.0
            },
            {
                "start_time": 19.0,
                "end_time": 19.170454545454543,
                "pitch": 55,
                "velocity": 101,
                "duration": 0.1704545454545432,
                "tempo": 120.0
            },
            {
                "start_time": 19.172727272727272,
                "end_time": 19.34318181818182,
                "pitch": 57,
                "velocity": 101,
                "duration": 0.17045454545454675,
                "tempo": 120.0
            },
            {
                "start_time": 19.345454545454544,
                "end_time": 19.511363636363637,
                "pitch": 58,
                "velocity": 101,
                "duration": 0.16590909090909278,
                "tempo": 120.0
            },
            {
                "start_time": 19.511363636363637,
                "end_time": 19.679545454545455,
                "pitch": 55,
                "velocity": 101,
                "duration": 0.168181818181818,
                "tempo": 120.0
            },
            {
                "start_time": 19.679545454545455,
                "end_time": 19.845454545454544,
                "pitch": 57,
                "velocity": 101,
                "duration": 0.16590909090908923,
                "tempo": 120.0
            },
            {
                "start_time": 19.847727272727273,
                "end_time": 20.013636363636362,
                "pitch": 58,
                "velocity": 101,
                "duration": 0.16590909090908923,
                "tempo": 120.0
            },
            {
                "start_time": 20.01590909090909,
                "end_time": 20.186363636363634,
                "pitch": 60,
                "velocity": 101,
                "duration": 0.1704545454545432,
                "tempo": 120.0
            },
            {
                "start_time": 20.186363636363634,
                "end_time": 20.35909090909091,
                "pitch": 57,
                "velocity": 101,
                "duration": 0.1727272727272755,
                "tempo": 120.0
            },
            {
                "start_time": 20.361363636363635,
                "end_time": 20.527272727272727,
                "pitch": 58,
                "velocity": 101,
                "duration": 0.16590909090909278,
                "tempo": 120.0
            },
            {
                "start_time": 20.527272727272727,
                "end_time": 20.693181818181817,
                "pitch": 60,
                "velocity": 101,
                "duration": 0.16590909090908923,
                "tempo": 120.0
            },
            {
                "start_time": 20.695454545454545,
                "end_time": 20.86590909090909,
                "pitch": 62,
                "velocity": 101,
                "duration": 0.1704545454545432,
                "tempo": 120.0
            },
            {
                "start_time": 20.868181818181817,
                "end_time": 21.038636363636364,
                "pitch": 58,
                "velocity": 101,
                "duration": 0.17045454545454675,
                "tempo": 120.0
            },
            {
                "start_time": 21.04090909090909,
                "end_time": 21.206818181818182,
                "pitch": 60,
                "velocity": 101,
                "duration": 0.16590909090909278,
                "tempo": 120.0
            },
            {
                "start_time": 21.206818181818182,
                "end_time": 21.375,
                "pitch": 62,
                "velocity": 101,
                "duration": 0.168181818181818,
                "tempo": 120.0
            },
            {
                "start_time": 21.375,
                "end_time": 21.54090909090909,
                "pitch": 63,
                "velocity": 101,
                "duration": 0.16590909090908923,
                "tempo": 120.0
            },
            {
                "start_time": 21.543181818181818,
                "end_time": 21.709090909090907,
                "pitch": 60,
                "velocity": 101,
                "duration": 0.16590909090908923,
                "tempo": 120.0
            },
            {
                "start_time": 21.711363636363636,
                "end_time": 22.054545454545455,
                "pitch": 62,
                "velocity": 101,
                "duration": 0.3431818181818187,
                "tempo": 120.0
            },
            {
                "start_time": 22.054545454545455,
                "end_time": 22.388636363636362,
                "pitch": 55,
                "velocity": 101,
                "duration": 0.3340909090909072,
                "tempo": 120.0
            },
            {
                "start_time": 22.39090909090909,
                "end_time": 22.724999999999998,
                "pitch": 54,
                "velocity": 101,
                "duration": 0.3340909090909072,
                "tempo": 120.0
            },
            {
                "start_time": 22.727272727272727,
                "end_time": 23.070454545454545,
                "pitch": 55,
                "velocity": 101,
                "duration": 0.3431818181818187,
                "tempo": 120.0
            },
            {
                "start_time": 23.070454545454545,
                "end_time": 23.236363636363635,
                "pitch": 60,
                "velocity": 101,
                "duration": 0.16590909090908923,
                "tempo": 120.0
            },
            {
                "start_time": 23.238636363636363,
                "end_time": 23.404545454545453,
                "pitch": 58,
                "velocity": 101,
                "duration": 0.16590909090908923,
                "tempo": 120.0
            },
            {
                "start_time": 23.40681818181818,
                "end_time": 23.577272727272724,
                "pitch": 57,
                "velocity": 101,
                "duration": 0.1704545454545432,
                "tempo": 120.0
            },
            {
                "start_time": 23.579545454545453,
                "end_time": 23.75,
                "pitch": 55,
                "velocity": 101,
                "duration": 0.17045454545454675,
                "tempo": 120.0
            },
            {
                "start_time": 23.75,
                "end_time": 24.084090909090907,
                "pitch": 54,
                "velocity": 101,
                "duration": 0.3340909090909072,
                "tempo": 120.0
            },
            {
                "start_time": 24.422727272727272,
                "end_time": 24.59318181818182,
                "pitch": 55,
                "velocity": 101,
                "duration": 0.17045454545454675,
                "tempo": 120.0
            },
            {
                "start_time": 24.59318181818182,
                "end_time": 24.76590909090909,
                "pitch": 57,
                "velocity": 101,
                "duration": 0.17272727272727195,
                "tempo": 120.0
            },
            {
                "start_time": 24.76590909090909,
                "end_time": 24.93181818181818,
                "pitch": 58,
                "velocity": 101,
                "duration": 0.16590909090908923,
                "tempo": 120.0
            },
            {
                "start_time": 24.93409090909091,
                "end_time": 25.099999999999998,
                "pitch": 55,
                "velocity": 101,
                "duration": 0.16590909090908923,
                "tempo": 120.0
            },
            {
                "start_time": 25.102272727272727,
                "end_time": 25.268181818181816,
                "pitch": 57,
                "velocity": 101,
                "duration": 0.16590909090908923,
                "tempo": 120.0
            },
            {
                "start_time": 25.270454545454545,
                "end_time": 25.436363636363634,
                "pitch": 58,
                "velocity": 101,
                "duration": 0.16590909090908923,
                "tempo": 120.0
            },
            {
                "start_time": 25.436363636363634,
                "end_time": 25.60909090909091,
                "pitch": 60,
                "velocity": 101,
                "duration": 0.1727272727272755,
                "tempo": 120.0
            },
            {
                "start_time": 25.60909090909091,
                "end_time": 25.78181818181818,
                "pitch": 57,
                "velocity": 101,
                "duration": 0.17272727272727195,
                "tempo": 120.0
            },
            {
                "start_time": 25.78181818181818,
                "end_time": 25.94772727272727,
                "pitch": 58,
                "velocity": 101,
                "duration": 0.16590909090908923,
                "tempo": 120.0
            },
            {
                "start_time": 25.95,
                "end_time": 26.11590909090909,
                "pitch": 60,
                "velocity": 101,
                "duration": 0.16590909090908923,
                "tempo": 120.0
            },
            {
                "start_time": 26.118181818181817,
                "end_time": 26.288636363636364,
                "pitch": 62,
                "velocity": 101,
                "duration": 0.17045454545454675,
                "tempo": 120.0
            },
            {
                "start_time": 26.288636363636364,
                "end_time": 26.461363636363636,
                "pitch": 58,
                "velocity": 101,
                "duration": 0.17272727272727195,
                "tempo": 120.0
            },
            {
                "start_time": 26.461363636363636,
                "end_time": 26.627272727272725,
                "pitch": 60,
                "velocity": 101,
                "duration": 0.16590909090908923,
                "tempo": 120.0
            },
            {
                "start_time": 26.629545454545454,
                "end_time": 26.795454545454543,
                "pitch": 62,
                "velocity": 101,
                "duration": 0.16590909090908923,
                "tempo": 120.0
            },
            {
                "start_time": 26.797727272727272,
                "end_time": 26.96363636363636,
                "pitch": 63,
                "velocity": 101,
                "duration": 0.16590909090908923,
                "tempo": 120.0
            },
            {
                "start_time": 26.96590909090909,
                "end_time": 27.13181818181818,
                "pitch": 60,
                "velocity": 101,
                "duration": 0.16590909090908923,
                "tempo": 120.0
            },
            {
                "start_time": 27.134090909090908,
                "end_time": 27.474999999999998,
                "pitch": 62,
                "velocity": 101,
                "duration": 0.34090909090908994,
                "tempo": 120.0
            },
            {
                "start_time": 27.477272727272727,
                "end_time": 27.811363636363634,
                "pitch": 67,
                "velocity": 101,
                "duration": 0.3340909090909072,
                "tempo": 120.0
            },
            {
                "start_time": 27.813636363636363,
                "end_time": 28.14772727272727,
                "pitch": 66,
                "velocity": 101,
                "duration": 0.3340909090909072,
                "tempo": 120.0
            },
            {
                "start_time": 28.14772727272727,
                "end_time": 28.49090909090909,
                "pitch": 67,
                "velocity": 101,
                "duration": 0.3431818181818187,
                "tempo": 120.0
            },
            {
                "start_time": 28.493181818181817,
                "end_time": 28.659090909090907,
                "pitch": 63,
                "velocity": 101,
                "duration": 0.16590909090908923,
                "tempo": 120.0
            },
            {
                "start_time": 28.661363636363635,
                "end_time": 28.827272727272724,
                "pitch": 62,
                "velocity": 101,
                "duration": 0.16590909090908923,
                "tempo": 120.0
            },
            {
                "start_time": 28.827272727272724,
                "end_time": 29.0,
                "pitch": 60,
                "velocity": 101,
                "duration": 0.1727272727272755,
                "tempo": 120.0
            },
            {
                "start_time": 29.0,
                "end_time": 29.170454545454543,
                "pitch": 58,
                "velocity": 101,
                "duration": 0.1704545454545432,
                "tempo": 120.0
            },
            {
                "start_time": 29.172727272727272,
                "end_time": 29.254545454545454,
                "pitch": 57,
                "velocity": 101,
                "duration": 0.08181818181818201,
                "tempo": 120.0
            },
            {
                "start_time": 29.25681818181818,
                "end_time": 29.33863636363636,
                "pitch": 58,
                "velocity": 101,
                "duration": 0.08181818181818201,
                "tempo": 120.0
            },
            {
                "start_time": 29.34090909090909,
                "end_time": 29.422727272727272,
                "pitch": 57,
                "velocity": 101,
                "duration": 0.08181818181818201,
                "tempo": 120.0
            },
            {
                "start_time": 29.424999999999997,
                "end_time": 29.50681818181818,
                "pitch": 58,
                "velocity": 101,
                "duration": 0.08181818181818201,
                "tempo": 120.0
            },
            {
                "start_time": 29.509090909090908,
                "end_time": 29.674999999999997,
                "pitch": 57,
                "velocity": 101,
                "duration": 0.16590909090908923,
                "tempo": 120.0
            },
            {
                "start_time": 29.674999999999997,
                "end_time": 29.759090909090908,
                "pitch": 55,
                "velocity": 101,
                "duration": 0.08409090909091077,
                "tempo": 120.0
            },
            {
                "start_time": 29.759090909090908,
                "end_time": 29.843181818181815,
                "pitch": 54,
                "velocity": 101,
                "duration": 0.08409090909090722,
                "tempo": 120.0
            },
            {
                "start_time": 29.843181818181815,
                "end_time": 30.013636363636362,
                "pitch": 55,
                "velocity": 101,
                "duration": 0.17045454545454675,
                "tempo": 120.0
            },
            {
                "start_time": 30.01590909090909,
                "end_time": 30.186363636363634,
                "pitch": 57,
                "velocity": 101,
                "duration": 0.1704545454545432,
                "tempo": 120.0
            },
            {
                "start_time": 30.188636363636363,
                "end_time": 30.354545454545452,
                "pitch": 58,
                "velocity": 101,
                "duration": 0.16590909090908923,
                "tempo": 120.0
            },
            {
                "start_time": 30.35681818181818,
                "end_time": 30.52272727272727,
                "pitch": 55,
                "velocity": 101,
                "duration": 0.16590909090908923,
                "tempo": 120.0
            },
            {
                "start_time": 30.52272727272727,
                "end_time": 30.690909090909088,
                "pitch": 57,
                "velocity": 101,
                "duration": 0.168181818181818,
                "tempo": 120.0
            },
            {
                "start_time": 30.690909090909088,
                "end_time": 30.85681818181818,
                "pitch": 58,
                "velocity": 101,
                "duration": 0.16590909090909278,
                "tempo": 120.0
            },
            {
                "start_time": 30.85909090909091,
                "end_time": 31.029545454545453,
                "pitch": 60,
                "velocity": 101,
                "duration": 0.1704545454545432,
                "tempo": 120.0
            },
            {
                "start_time": 31.03181818181818,
                "end_time": 31.202272727272724,
                "pitch": 57,
                "velocity": 101,
                "duration": 0.1704545454545432,
                "tempo": 120.0
            },
            {
                "start_time": 31.204545454545453,
                "end_time": 31.370454545454542,
                "pitch": 58,
                "velocity": 101,
                "duration": 0.16590909090908923,
                "tempo": 120.0
            },
            {
                "start_time": 31.37272727272727,
                "end_time": 31.53863636363636,
                "pitch": 60,
                "velocity": 101,
                "duration": 0.16590909090908923,
                "tempo": 120.0
            },
            {
                "start_time": 31.53863636363636,
                "end_time": 31.709090909090907,
                "pitch": 62,
                "velocity": 101,
                "duration": 0.17045454545454675,
                "tempo": 120.0
            },
            {
                "start_time": 31.711363636363636,
                "end_time": 31.88181818181818,
                "pitch": 58,
                "velocity": 101,
                "duration": 0.1704545454545432,
                "tempo": 120.0
            },
            {
                "start_time": 31.884090909090908,
                "end_time": 32.05,
                "pitch": 60,
                "velocity": 101,
                "duration": 0.16590909090908923,
                "tempo": 120.0
            },
            {
                "start_time": 32.05227272727272,
                "end_time": 32.21818181818182,
                "pitch": 62,
                "velocity": 101,
                "duration": 0.16590909090909634,
                "tempo": 120.0
            },
            {
                "start_time": 32.220454545454544,
                "end_time": 32.38636363636363,
                "pitch": 63,
                "velocity": 101,
                "duration": 0.16590909090908923,
                "tempo": 120.0
            },
            {
                "start_time": 32.38636363636363,
                "end_time": 32.554545454545455,
                "pitch": 60,
                "velocity": 101,
                "duration": 0.16818181818182154,
                "tempo": 120.0
            },
            {
                "start_time": 32.554545454545455,
                "end_time": 32.89772727272727,
                "pitch": 62,
                "velocity": 101,
                "duration": 0.3431818181818187,
                "tempo": 120.0
            },
            {
                "start_time": 32.9,
                "end_time": 33.23409090909091,
                "pitch": 55,
                "velocity": 101,
                "duration": 0.33409090909091077,
                "tempo": 120.0
            },
            {
                "start_time": 33.23409090909091,
                "end_time": 33.57727272727273,
                "pitch": 54,
                "velocity": 101,
                "duration": 0.3431818181818187,
                "tempo": 120.0
            },
            {
                "start_time": 33.57954545454545,
                "end_time": 33.913636363636364,
                "pitch": 55,
                "velocity": 101,
                "duration": 0.33409090909091077,
                "tempo": 120.0
            },
            {
                "start_time": 33.91590909090909,
                "end_time": 34.08181818181818,
                "pitch": 60,
                "velocity": 101,
                "duration": 0.16590909090908923,
                "tempo": 120.0
            },
            {
                "start_time": 34.08181818181818,
                "end_time": 34.24772727272727,
                "pitch": 58,
                "velocity": 101,
                "duration": 0.16590909090908923,
                "tempo": 120.0
            },
            {
                "start_time": 34.25,
                "end_time": 34.42045454545455,
                "pitch": 57,
                "velocity": 101,
                "duration": 0.17045454545454675,
                "tempo": 120.0
            },
            {
                "start_time": 34.42272727272727,
                "end_time": 34.59318181818182,
                "pitch": 55,
                "velocity": 101,
                "duration": 0.17045454545454675,
                "tempo": 120.0
            },
            {
                "start_time": 34.595454545454544,
                "end_time": 34.76136363636363,
                "pitch": 54,
                "velocity": 101,
                "duration": 0.16590909090908923,
                "tempo": 120.0
            },
            {
                "start_time": 34.763636363636365,
                "end_time": 34.929545454545455,
                "pitch": 55,
                "velocity": 101,
                "duration": 0.16590909090908923,
                "tempo": 120.0
            },
            {
                "start_time": 34.929545454545455,
                "end_time": 35.09772727272727,
                "pitch": 57,
                "velocity": 101,
                "duration": 0.16818181818181444,
                "tempo": 120.0
            },
            {
                "start_time": 35.09772727272727,
                "end_time": 35.263636363636365,
                "pitch": 54,
                "velocity": 101,
                "duration": 0.16590909090909634,
                "tempo": 120.0
            },
            {
                "start_time": 35.26590909090909,
                "end_time": 35.60909090909091,
                "pitch": 67,
                "velocity": 101,
                "duration": 0.3431818181818187,
                "tempo": 120.0
            },
            {
                "start_time": 12.154545454545454,
                "end_time": 35.60909090909091,
                "pitch": 79,
                "velocity": 101,
                "duration": 23.454545454545453,
                "tempo": 120.0
            },
            {
                "start_time": 35.60909090909091,
                "end_time": 35.627272727272725,
                "pitch": 67,
                "velocity": 101,
                "duration": 0.018181818181815856,
                "tempo": 120.0
            },
            {
                "start_time": 35.627272727272725,
                "end_time": 35.74318181818182,
                "pitch": 67,
                "velocity": 101,
                "duration": 0.11590909090909207,
                "tempo": 120.0
            },
            {
                "start_time": 35.60909090909091,
                "end_time": 35.74318181818182,
                "pitch": 79,
                "velocity": 101,
                "duration": 0.13409090909090793,
                "tempo": 120.0
            },
            {
                "start_time": 35.627272727272725,
                "end_time": 35.76136363636363,
                "pitch": 55,
                "velocity": 101,
                "duration": 0.13409090909090793,
                "tempo": 120.0
            },
            {
                "start_time": 35.74318181818182,
                "end_time": 35.76136363636363,
                "pitch": 67,
                "velocity": 101,
                "duration": 0.018181818181815856,
                "tempo": 120.0
            },
            {
                "start_time": 35.76136363636363,
                "end_time": 35.877272727272725,
                "pitch": 67,
                "velocity": 101,
                "duration": 0.11590909090909207,
                "tempo": 120.0
            },
            {
                "start_time": 35.74318181818182,
                "end_time": 35.877272727272725,
                "pitch": 79,
                "velocity": 101,
                "duration": 0.13409090909090793,
                "tempo": 120.0
            },
            {
                "start_time": 35.76136363636363,
                "end_time": 35.89545454545454,
                "pitch": 55,
                "velocity": 101,
                "duration": 0.13409090909090793,
                "tempo": 120.0
            },
            {
                "start_time": 35.877272727272725,
                "end_time": 35.89545454545454,
                "pitch": 67,
                "velocity": 101,
                "duration": 0.018181818181815856,
                "tempo": 120.0
            },
            {
                "start_time": 35.89545454545454,
                "end_time": 36.01136363636363,
                "pitch": 67,
                "velocity": 101,
                "duration": 0.11590909090909207,
                "tempo": 120.0
            },
            {
                "start_time": 35.877272727272725,
                "end_time": 36.01136363636363,
                "pitch": 79,
                "velocity": 101,
                "duration": 0.13409090909090793,
                "tempo": 120.0
            },
            {
                "start_time": 35.89545454545454,
                "end_time": 36.029545454545456,
                "pitch": 55,
                "velocity": 101,
                "duration": 0.13409090909091503,
                "tempo": 120.0
            },
            {
                "start_time": 36.01136363636363,
                "end_time": 36.029545454545456,
                "pitch": 67,
                "velocity": 101,
                "duration": 0.018181818181822962,
                "tempo": 120.0
            },
            {
                "start_time": 36.029545454545456,
                "end_time": 36.14545454545454,
                "pitch": 67,
                "velocity": 101,
                "duration": 0.11590909090908497,
                "tempo": 120.0
            },
            {
                "start_time": 36.01136363636363,
                "end_time": 36.14545454545454,
                "pitch": 79,
                "velocity": 101,
                "duration": 0.13409090909090793,
                "tempo": 120.0
            },
            {
                "start_time": 36.029545454545456,
                "end_time": 36.163636363636364,
                "pitch": 55,
                "velocity": 101,
                "duration": 0.13409090909090793,
                "tempo": 120.0
            },
            {
                "start_time": 36.14545454545454,
                "end_time": 36.163636363636364,
                "pitch": 67,
                "velocity": 101,
                "duration": 0.018181818181822962,
                "tempo": 120.0
            },
            {
                "start_time": 36.163636363636364,
                "end_time": 36.279545454545456,
                "pitch": 67,
                "velocity": 101,
                "duration": 0.11590909090909207,
                "tempo": 120.0
            },
            {
                "start_time": 36.14545454545454,
                "end_time": 36.28181818181818,
                "pitch": 79,
                "velocity": 101,
                "duration": 0.13636363636364024,
                "tempo": 120.0
            },
            {
                "start_time": 36.279545454545456,
                "end_time": 36.28181818181818,
                "pitch": 79,
                "velocity": 101,
                "duration": 0.0022727272727252057,
                "tempo": 120.0
            },
            {
                "start_time": 36.163636363636364,
                "end_time": 36.29772727272727,
                "pitch": 55,
                "velocity": 101,
                "duration": 0.13409090909090793,
                "tempo": 120.0
            },
            {
                "start_time": 36.28181818181818,
                "end_time": 36.29772727272727,
                "pitch": 67,
                "velocity": 101,
                "duration": 0.01590909090909065,
                "tempo": 120.0
            },
            {
                "start_time": 36.29772727272727,
                "end_time": 36.418181818181814,
                "pitch": 67,
                "velocity": 101,
                "duration": 0.12045454545454248,
                "tempo": 120.0
            },
            {
                "start_time": 36.29772727272727,
                "end_time": 36.43636363636364,
                "pitch": 55,
                "velocity": 101,
                "duration": 0.13863636363636545,
                "tempo": 120.0
            },
            {
                "start_time": 36.418181818181814,
                "end_time": 36.43636363636364,
                "pitch": 67,
                "velocity": 101,
                "duration": 0.018181818181822962,
                "tempo": 120.0
            },
            {
                "start_time": 36.43636363636364,
                "end_time": 36.55681818181818,
                "pitch": 67,
                "velocity": 101,
                "duration": 0.12045454545454248,
                "tempo": 120.0
            },
            {
                "start_time": 36.418181818181814,
                "end_time": 36.55681818181818,
                "pitch": 79,
                "velocity": 101,
                "duration": 0.13863636363636545,
                "tempo": 120.0
            },
            {
                "start_time": 36.43636363636364,
                "end_time": 36.57272727272727,
                "pitch": 55,
                "velocity": 101,
                "duration": 0.13636363636363313,
                "tempo": 120.0
            },
            {
                "start_time": 36.55681818181818,
                "end_time": 36.57272727272727,
                "pitch": 67,
                "velocity": 101,
                "duration": 0.01590909090909065,
                "tempo": 120.0
            },
            {
                "start_time": 36.57272727272727,
                "end_time": 36.625,
                "pitch": 67,
                "velocity": 101,
                "duration": 0.05227272727272947,
                "tempo": 120.0
            },
            {
                "start_time": 36.793181818181814,
                "end_time": 36.95909090909091,
                "pitch": 70,
                "velocity": 101,
                "duration": 0.16590909090909634,
                "tempo": 120.0
            },
            {
                "start_time": 36.961363636363636,
                "end_time": 37.13181818181818,
                "pitch": 72,
                "velocity": 101,
                "duration": 0.17045454545454675,
                "tempo": 120.0
            },
            {
                "start_time": 37.13409090909091,
                "end_time": 37.304545454545455,
                "pitch": 74,
                "velocity": 101,
                "duration": 0.17045454545454675,
                "tempo": 120.0
            },
            {
                "start_time": 37.30681818181818,
                "end_time": 37.47272727272727,
                "pitch": 75,
                "velocity": 101,
                "duration": 0.16590909090908923,
                "tempo": 120.0
            },
            {
                "start_time": 37.47272727272727,
                "end_time": 37.64090909090909,
                "pitch": 74,
                "velocity": 101,
                "duration": 0.16818181818182154,
                "tempo": 120.0
            },
            {
                "start_time": 37.64090909090909,
                "end_time": 37.80681818181818,
                "pitch": 75,
                "velocity": 101,
                "duration": 0.16590909090908923,
                "tempo": 120.0
            },
            {
                "start_time": 37.809090909090905,
                "end_time": 37.975,
                "pitch": 72,
                "velocity": 101,
                "duration": 0.16590909090909634,
                "tempo": 120.0
            },
            {
                "start_time": 37.97727272727273,
                "end_time": 39.336363636363636,
                "pitch": 69,
                "velocity": 101,
                "duration": 1.3590909090909093,
                "tempo": 120.0
            },
            {
                "start_time": 39.50454545454545,
                "end_time": 39.67045454545455,
                "pitch": 67,
                "velocity": 101,
                "duration": 0.16590909090909634,
                "tempo": 120.0
            },
            {
                "start_time": 39.67272727272727,
                "end_time": 39.84318181818182,
                "pitch": 70,
                "velocity": 101,
                "duration": 0.17045454545454675,
                "tempo": 120.0
            },
            {
                "start_time": 39.845454545454544,
                "end_time": 40.01590909090909,
                "pitch": 72,
                "velocity": 101,
                "duration": 0.17045454545454675,
                "tempo": 120.0
            },
            {
                "start_time": 40.01590909090909,
                "end_time": 40.184090909090905,
                "pitch": 74,
                "velocity": 101,
                "duration": 0.16818181818181444,
                "tempo": 120.0
            },
            {
                "start_time": 40.184090909090905,
                "end_time": 40.35,
                "pitch": 72,
                "velocity": 101,
                "duration": 0.16590909090909634,
                "tempo": 120.0
            },
            {
                "start_time": 40.35227272727273,
                "end_time": 40.518181818181816,
                "pitch": 74,
                "velocity": 101,
                "duration": 0.16590909090908923,
                "tempo": 120.0
            },
            {
                "start_time": 40.52045454545454,
                "end_time": 40.68636363636364,
                "pitch": 70,
                "velocity": 101,
                "duration": 0.16590909090909634,
                "tempo": 120.0
            },
            {
                "start_time": 40.68863636363636,
                "end_time": 41.03181818181818,
                "pitch": 67,
                "velocity": 101,
                "duration": 0.3431818181818187,
                "tempo": 120.0
            },
            {
                "start_time": 36.55681818181818,
                "end_time": 41.03181818181818,
                "pitch": 79,
                "velocity": 101,
                "duration": 4.475000000000001,
                "tempo": 120.0
            },
            {
                "start_time": 36.57272727272727,
                "end_time": 41.04772727272727,
                "pitch": 55,
                "velocity": 101,
                "duration": 4.475000000000001,
                "tempo": 120.0
            },
            {
                "start_time": 41.03181818181818,
                "end_time": 41.04772727272727,
                "pitch": 67,
                "velocity": 101,
                "duration": 0.01590909090909065,
                "tempo": 120.0
            },
            {
                "start_time": 41.04772727272727,
                "end_time": 41.16590909090909,
                "pitch": 67,
                "velocity": 101,
                "duration": 0.11818181818181728,
                "tempo": 120.0
            },
            {
                "start_time": 41.03181818181818,
                "end_time": 41.16590909090909,
                "pitch": 79,
                "velocity": 101,
                "duration": 0.13409090909090793,
                "tempo": 120.0
            },
            {
                "start_time": 41.04772727272727,
                "end_time": 41.18181818181818,
                "pitch": 55,
                "velocity": 101,
                "duration": 0.13409090909090793,
                "tempo": 120.0
            },
            {
                "start_time": 41.16590909090909,
                "end_time": 41.18181818181818,
                "pitch": 67,
                "velocity": 101,
                "duration": 0.01590909090909065,
                "tempo": 120.0
            },
            {
                "start_time": 41.18181818181818,
                "end_time": 41.3,
                "pitch": 67,
                "velocity": 101,
                "duration": 0.11818181818181728,
                "tempo": 120.0
            },
            {
                "start_time": 41.16590909090909,
                "end_time": 41.3,
                "pitch": 79,
                "velocity": 101,
                "duration": 0.13409090909090793,
                "tempo": 120.0
            },
            {
                "start_time": 41.18181818181818,
                "end_time": 41.31590909090909,
                "pitch": 55,
                "velocity": 101,
                "duration": 0.13409090909090793,
                "tempo": 120.0
            },
            {
                "start_time": 41.3,
                "end_time": 41.31590909090909,
                "pitch": 67,
                "velocity": 101,
                "duration": 0.01590909090909065,
                "tempo": 120.0
            },
            {
                "start_time": 41.31590909090909,
                "end_time": 41.434090909090905,
                "pitch": 67,
                "velocity": 101,
                "duration": 0.11818181818181728,
                "tempo": 120.0
            },
            {
                "start_time": 41.3,
                "end_time": 41.434090909090905,
                "pitch": 79,
                "velocity": 101,
                "duration": 0.13409090909090793,
                "tempo": 120.0
            },
            {
                "start_time": 41.31590909090909,
                "end_time": 41.449999999999996,
                "pitch": 55,
                "velocity": 101,
                "duration": 0.13409090909090793,
                "tempo": 120.0
            },
            {
                "start_time": 41.434090909090905,
                "end_time": 41.449999999999996,
                "pitch": 67,
                "velocity": 101,
                "duration": 0.01590909090909065,
                "tempo": 120.0
            },
            {
                "start_time": 41.449999999999996,
                "end_time": 41.56818181818181,
                "pitch": 67,
                "velocity": 101,
                "duration": 0.11818181818181728,
                "tempo": 120.0
            },
            {
                "start_time": 41.434090909090905,
                "end_time": 41.56818181818181,
                "pitch": 79,
                "velocity": 101,
                "duration": 0.13409090909090793,
                "tempo": 120.0
            },
            {
                "start_time": 41.449999999999996,
                "end_time": 41.584090909090904,
                "pitch": 55,
                "velocity": 101,
                "duration": 0.13409090909090793,
                "tempo": 120.0
            },
            {
                "start_time": 41.56818181818181,
                "end_time": 41.584090909090904,
                "pitch": 67,
                "velocity": 101,
                "duration": 0.01590909090909065,
                "tempo": 120.0
            },
            {
                "start_time": 41.584090909090904,
                "end_time": 41.70227272727273,
                "pitch": 67,
                "velocity": 101,
                "duration": 0.11818181818182438,
                "tempo": 120.0
            },
            {
                "start_time": 41.56818181818181,
                "end_time": 41.70227272727273,
                "pitch": 79,
                "velocity": 101,
                "duration": 0.13409090909091503,
                "tempo": 120.0
            },
            {
                "start_time": 41.584090909090904,
                "end_time": 41.720454545454544,
                "pitch": 55,
                "velocity": 101,
                "duration": 0.13636363636364024,
                "tempo": 120.0
            },
            {
                "start_time": 41.70227272727273,
                "end_time": 41.720454545454544,
                "pitch": 67,
                "velocity": 101,
                "duration": 0.018181818181815856,
                "tempo": 120.0
            },
            {
                "start_time": 41.720454545454544,
                "end_time": 41.840909090909086,
                "pitch": 67,
                "velocity": 101,
                "duration": 0.12045454545454248,
                "tempo": 120.0
            },
            {
                "start_time": 41.70227272727273,
                "end_time": 41.840909090909086,
                "pitch": 79,
                "velocity": 101,
                "duration": 0.13863636363635834,
                "tempo": 120.0
            },
            {
                "start_time": 41.720454545454544,
                "end_time": 41.85681818181818,
                "pitch": 55,
                "velocity": 101,
                "duration": 0.13636363636363313,
                "tempo": 120.0
            },
            {
                "start_time": 41.840909090909086,
                "end_time": 41.85681818181818,
                "pitch": 67,
                "velocity": 101,
                "duration": 0.01590909090909065,
                "tempo": 120.0
            },
            {
                "start_time": 41.85681818181818,
                "end_time": 41.97727272727273,
                "pitch": 67,
                "velocity": 101,
                "duration": 0.12045454545454959,
                "tempo": 120.0
            },
            {
                "start_time": 41.840909090909086,
                "end_time": 41.97727272727273,
                "pitch": 79,
                "velocity": 101,
                "duration": 0.13636363636364024,
                "tempo": 120.0
            },
            {
                "start_time": 41.85681818181818,
                "end_time": 41.99545454545454,
                "pitch": 55,
                "velocity": 101,
                "duration": 0.13863636363636545,
                "tempo": 120.0
            },
            {
                "start_time": 41.97727272727273,
                "end_time": 41.99545454545454,
                "pitch": 67,
                "velocity": 101,
                "duration": 0.018181818181815856,
                "tempo": 120.0
            },
            {
                "start_time": 41.99545454545454,
                "end_time": 42.04772727272727,
                "pitch": 67,
                "velocity": 101,
                "duration": 0.05227272727272947,
                "tempo": 120.0
            },
            {
                "start_time": 42.215909090909086,
                "end_time": 42.38181818181818,
                "pitch": 63,
                "velocity": 101,
                "duration": 0.16590909090909634,
                "tempo": 120.0
            },
            {
                "start_time": 42.38409090909091,
                "end_time": 42.554545454545455,
                "pitch": 67,
                "velocity": 101,
                "duration": 0.17045454545454675,
                "tempo": 120.0
            },
            {
                "start_time": 42.554545454545455,
                "end_time": 42.72727272727273,
                "pitch": 70,
                "velocity": 101,
                "duration": 0.17272727272727195,
                "tempo": 120.0
            },
            {
                "start_time": 42.72727272727273,
                "end_time": 42.893181818181816,
                "pitch": 72,
                "velocity": 101,
                "duration": 0.16590909090908923,
                "tempo": 120.0
            },
            {
                "start_time": 42.89545454545454,
                "end_time": 43.06136363636364,
                "pitch": 70,
                "velocity": 101,
                "duration": 0.16590909090909634,
                "tempo": 120.0
            },
            {
                "start_time": 43.06363636363636,
                "end_time": 43.22954545454545,
                "pitch": 72,
                "velocity": 101,
                "duration": 0.16590909090908923,
                "tempo": 120.0
            },
            {
                "start_time": 43.23181818181818,
                "end_time": 43.39772727272727,
                "pitch": 75,
                "velocity": 101,
                "duration": 0.16590909090909634,
                "tempo": 120.0
            },
            {
                "start_time": 43.4,
                "end_time": 44.07727272727273,
                "pitch": 74,
                "velocity": 101,
                "duration": 0.6772727272727295,
                "tempo": 120.0
            },
            {
                "start_time": 44.07954545454545,
                "end_time": 44.75681818181818,
                "pitch": 66,
                "velocity": 101,
                "duration": 0.6772727272727295,
                "tempo": 120.0
            },
            {
                "start_time": 44.75909090909091,
                "end_time": 45.09318181818182,
                "pitch": 67,
                "velocity": 101,
                "duration": 0.33409090909091077,
                "tempo": 120.0
            },
            {
                "start_time": 45.09318181818182,
                "end_time": 45.43863636363636,
                "pitch": 69,
                "velocity": 101,
                "duration": 0.3454545454545439,
                "tempo": 120.0
            },
            {
                "start_time": 45.43863636363636,
                "end_time": 45.77272727272727,
                "pitch": 70,
                "velocity": 101,
                "duration": 0.33409090909091077,
                "tempo": 120.0
            },
            {
                "start_time": 45.775,
                "end_time": 46.10909090909091,
                "pitch": 67,
                "velocity": 101,
                "duration": 0.33409090909091077,
                "tempo": 120.0
            },
            {
                "start_time": 46.10909090909091,
                "end_time": 47.46818181818182,
                "pitch": 62,
                "velocity": 101,
                "duration": 1.3590909090909093,
                "tempo": 120.0
            },
            {
                "start_time": 41.97727272727273,
                "end_time": 47.804545454545455,
                "pitch": 79,
                "velocity": 101,
                "duration": 5.827272727272728,
                "tempo": 120.0
            },
            {
                "start_time": 47.63863636363636,
                "end_time": 47.804545454545455,
                "pitch": 79,
                "velocity": 101,
                "duration": 0.16590909090909634,
                "tempo": 120.0
            },
            {
                "start_time": 47.804545454545455,
                "end_time": 47.974999999999994,
                "pitch": 77,
                "velocity": 101,
                "duration": 0.17045454545453964,
                "tempo": 120.0
            },
            {
                "start_time": 47.97727272727273,
                "end_time": 48.14772727272727,
                "pitch": 79,
                "velocity": 101,
                "duration": 0.17045454545454675,
                "tempo": 120.0
            },
            {
                "start_time": 48.15,
                "end_time": 48.31590909090909,
                "pitch": 75,
                "velocity": 101,
                "duration": 0.16590909090908923,
                "tempo": 120.0
            },
            {
                "start_time": 48.31818181818181,
                "end_time": 48.48409090909091,
                "pitch": 79,
                "velocity": 101,
                "duration": 0.16590909090909634,
                "tempo": 120.0
            },
            {
                "start_time": 48.486363636363635,
                "end_time": 48.652272727272724,
                "pitch": 78,
                "velocity": 101,
                "duration": 0.16590909090908923,
                "tempo": 120.0
            },
            {
                "start_time": 48.652272727272724,
                "end_time": 48.820454545454545,
                "pitch": 79,
                "velocity": 101,
                "duration": 0.16818181818182154,
                "tempo": 120.0
            },
            {
                "start_time": 48.820454545454545,
                "end_time": 50.179545454545455,
                "pitch": 72,
                "velocity": 101,
                "duration": 1.3590909090909093,
                "tempo": 120.0
            },
            {
                "start_time": 50.34772727272727,
                "end_time": 50.51590909090909,
                "pitch": 77,
                "velocity": 101,
                "duration": 0.16818181818182154,
                "tempo": 120.0
            },
            {
                "start_time": 50.51590909090909,
                "end_time": 50.68636363636364,
                "pitch": 75,
                "velocity": 101,
                "duration": 0.17045454545454675,
                "tempo": 120.0
            },
            {
                "start_time": 50.68863636363636,
                "end_time": 50.85909090909091,
                "pitch": 77,
                "velocity": 101,
                "duration": 0.17045454545454675,
                "tempo": 120.0
            },
            {
                "start_time": 50.861363636363635,
                "end_time": 51.027272727272724,
                "pitch": 74,
                "velocity": 101,
                "duration": 0.16590909090908923,
                "tempo": 120.0
            },
            {
                "start_time": 51.02954545454545,
                "end_time": 51.195454545454545,
                "pitch": 77,
                "velocity": 101,
                "duration": 0.16590909090909634,
                "tempo": 120.0
            },
            {
                "start_time": 51.195454545454545,
                "end_time": 51.36363636363636,
                "pitch": 72,
                "velocity": 101,
                "duration": 0.16818181818181444,
                "tempo": 120.0
            },
            {
                "start_time": 51.36363636363636,
                "end_time": 51.52954545454545,
                "pitch": 77,
                "velocity": 101,
                "duration": 0.16590909090908923,
                "tempo": 120.0
            },
            {
                "start_time": 51.53181818181818,
                "end_time": 52.89090909090909,
                "pitch": 70,
                "velocity": 101,
                "duration": 1.3590909090909093,
                "tempo": 120.0
            },
            {
                "start_time": 53.059090909090905,
                "end_time": 53.224999999999994,
                "pitch": 75,
                "velocity": 101,
                "duration": 0.16590909090908923,
                "tempo": 120.0
            },
            {
                "start_time": 53.22727272727273,
                "end_time": 53.39772727272727,
                "pitch": 74,
                "velocity": 101,
                "duration": 0.17045454545454675,
                "tempo": 120.0
            },
            {
                "start_time": 53.4,
                "end_time": 53.570454545454545,
                "pitch": 75,
                "velocity": 101,
                "duration": 0.17045454545454675,
                "tempo": 120.0
            },
            {
                "start_time": 53.57272727272727,
                "end_time": 53.73863636363636,
                "pitch": 72,
                "velocity": 101,
                "duration": 0.16590909090908923,
                "tempo": 120.0
            },
            {
                "start_time": 53.73863636363636,
                "end_time": 53.90681818181818,
                "pitch": 75,
                "velocity": 101,
                "duration": 0.16818181818182154,
                "tempo": 120.0
            },
            {
                "start_time": 53.90681818181818,
                "end_time": 54.07727272727273,
                "pitch": 70,
                "velocity": 101,
                "duration": 0.17045454545454675,
                "tempo": 120.0
            },
            {
                "start_time": 54.07954545454545,
                "end_time": 54.25,
                "pitch": 75,
                "velocity": 101,
                "duration": 0.17045454545454675,
                "tempo": 120.0
            },
            {
                "start_time": 54.252272727272725,
                "end_time": 54.75454545454545,
                "pitch": 74,
                "velocity": 101,
                "duration": 0.5022727272727252,
                "tempo": 120.0
            },
            {
                "start_time": 54.75454545454545,
                "end_time": 55.26590909090909,
                "pitch": 72,
                "velocity": 101,
                "duration": 0.5113636363636402,
                "tempo": 120.0
            },
            {
                "start_time": 55.268181818181816,
                "end_time": 55.60227272727273,
                "pitch": 75,
                "velocity": 101,
                "duration": 0.33409090909091077,
                "tempo": 120.0
            },
            {
                "start_time": 55.60227272727273,
                "end_time": 55.768181818181816,
                "pitch": 74,
                "velocity": 101,
                "duration": 0.16590909090908923,
                "tempo": 120.0
            },
            {
                "start_time": 41.99545454545454,
                "end_time": 57.125,
                "pitch": 55,
                "velocity": 101,
                "duration": 15.129545454545458,
                "tempo": 120.0
            },
            {
                "start_time": 56.959090909090904,
                "end_time": 57.125,
                "pitch": 55,
                "velocity": 101,
                "duration": 0.16590909090909634,
                "tempo": 120.0
            },
            {
                "start_time": 57.125,
                "end_time": 57.29772727272727,
                "pitch": 57,
                "velocity": 101,
                "duration": 0.17272727272727195,
                "tempo": 120.0
            },
            {
                "start_time": 57.29772727272727,
                "end_time": 57.46363636363636,
                "pitch": 58,
                "velocity": 101,
                "duration": 0.16590909090908923,
                "tempo": 120.0
            },
            {
                "start_time": 57.465909090909086,
                "end_time": 57.631818181818176,
                "pitch": 55,
                "velocity": 101,
                "duration": 0.16590909090908923,
                "tempo": 120.0
            },
            {
                "start_time": 57.63409090909091,
                "end_time": 57.804545454545455,
                "pitch": 57,
                "velocity": 101,
                "duration": 0.17045454545454675,
                "tempo": 120.0
            },
            {
                "start_time": 57.804545454545455,
                "end_time": 57.97727272727273,
                "pitch": 58,
                "velocity": 101,
                "duration": 0.17272727272727195,
                "tempo": 120.0
            },
            {
                "start_time": 57.97727272727273,
                "end_time": 58.14545454545454,
                "pitch": 60,
                "velocity": 101,
                "duration": 0.16818181818181444,
                "tempo": 120.0
            },
            {
                "start_time": 58.14545454545454,
                "end_time": 58.31363636363636,
                "pitch": 57,
                "velocity": 101,
                "duration": 0.16818181818182154,
                "tempo": 120.0
            },
            {
                "start_time": 58.31363636363636,
                "end_time": 58.47954545454545,
                "pitch": 58,
                "velocity": 101,
                "duration": 0.16590909090908923,
                "tempo": 120.0
            },
            {
                "start_time": 58.48181818181818,
                "end_time": 58.64772727272727,
                "pitch": 60,
                "velocity": 101,
                "duration": 0.16590909090909634,
                "tempo": 120.0
            },
            {
                "start_time": 58.64772727272727,
                "end_time": 58.820454545454545,
                "pitch": 62,
                "velocity": 101,
                "duration": 0.17272727272727195,
                "tempo": 120.0
            },
            {
                "start_time": 58.820454545454545,
                "end_time": 58.99318181818182,
                "pitch": 58,
                "velocity": 101,
                "duration": 0.17272727272727195,
                "tempo": 120.0
            },
            {
                "start_time": 58.99318181818182,
                "end_time": 59.15909090909091,
                "pitch": 60,
                "velocity": 101,
                "duration": 0.16590909090908923,
                "tempo": 120.0
            },
            {
                "start_time": 59.16136363636363,
                "end_time": 59.32727272727272,
                "pitch": 62,
                "velocity": 101,
                "duration": 0.16590909090908923,
                "tempo": 120.0
            },
            {
                "start_time": 59.32954545454545,
                "end_time": 59.5,
                "pitch": 63,
                "velocity": 101,
                "duration": 0.17045454545454675,
                "tempo": 120.0
            },
            {
                "start_time": 59.5,
                "end_time": 59.67272727272727,
                "pitch": 60,
                "velocity": 101,
                "duration": 0.17272727272727195,
                "tempo": 120.0
            },
            {
                "start_time": 59.675,
                "end_time": 60.006818181818176,
                "pitch": 62,
                "velocity": 101,
                "duration": 0.33181818181817846,
                "tempo": 120.0
            },
            {
                "start_time": 60.00909090909091,
                "end_time": 60.34318181818182,
                "pitch": 67,
                "velocity": 101,
                "duration": 0.33409090909091077,
                "tempo": 120.0
            },
            {
                "start_time": 60.34318181818182,
                "end_time": 60.68863636363636,
                "pitch": 66,
                "velocity": 101,
                "duration": 0.3454545454545439,
                "tempo": 120.0
            },
            {
                "start_time": 60.68863636363636,
                "end_time": 61.025,
                "pitch": 67,
                "velocity": 101,
                "duration": 0.336363636363636,
                "tempo": 120.0
            },
            {
                "start_time": 61.025,
                "end_time": 61.19090909090909,
                "pitch": 63,
                "velocity": 101,
                "duration": 0.16590909090908923,
                "tempo": 120.0
            },
            {
                "start_time": 61.19090909090909,
                "end_time": 61.35909090909091,
                "pitch": 62,
                "velocity": 101,
                "duration": 0.16818181818182154,
                "tempo": 120.0
            },
            {
                "start_time": 61.35909090909091,
                "end_time": 61.53181818181818,
                "pitch": 60,
                "velocity": 101,
                "duration": 0.17272727272727195,
                "tempo": 120.0
            },
            {
                "start_time": 61.53181818181818,
                "end_time": 61.70454545454545,
                "pitch": 58,
                "velocity": 101,
                "duration": 0.17272727272727195,
                "tempo": 120.0
            },
            {
                "start_time": 61.70454545454545,
                "end_time": 61.78636363636363,
                "pitch": 57,
                "velocity": 101,
                "duration": 0.08181818181817846,
                "tempo": 120.0
            },
            {
                "start_time": 61.788636363636364,
                "end_time": 61.87045454545454,
                "pitch": 58,
                "velocity": 101,
                "duration": 0.08181818181817846,
                "tempo": 120.0
            },
            {
                "start_time": 61.87272727272727,
                "end_time": 61.95454545454545,
                "pitch": 57,
                "velocity": 101,
                "duration": 0.08181818181818556,
                "tempo": 120.0
            },
            {
                "start_time": 61.95454545454545,
                "end_time": 62.038636363636364,
                "pitch": 58,
                "velocity": 101,
                "duration": 0.08409090909091077,
                "tempo": 120.0
            },
            {
                "start_time": 62.038636363636364,
                "end_time": 62.20681818181818,
                "pitch": 57,
                "velocity": 101,
                "duration": 0.16818181818181444,
                "tempo": 120.0
            },
            {
                "start_time": 62.20681818181818,
                "end_time": 62.29090909090909,
                "pitch": 55,
                "velocity": 101,
                "duration": 0.08409090909091077,
                "tempo": 120.0
            },
            {
                "start_time": 62.29090909090909,
                "end_time": 62.375,
                "pitch": 54,
                "velocity": 101,
                "duration": 0.08409090909091077,
                "tempo": 120.0
            },
            {
                "start_time": 62.375,
                "end_time": 62.54545454545454,
                "pitch": 55,
                "velocity": 101,
                "duration": 0.17045454545453964,
                "tempo": 120.0
            },
            {
                "start_time": 62.54772727272727,
                "end_time": 62.71818181818181,
                "pitch": 57,
                "velocity": 101,
                "duration": 0.17045454545453964,
                "tempo": 120.0
            },
            {
                "start_time": 62.720454545454544,
                "end_time": 62.88636363636363,
                "pitch": 58,
                "velocity": 101,
                "duration": 0.16590909090908923,
                "tempo": 120.0
            },
            {
                "start_time": 62.88636363636363,
                "end_time": 63.054545454545455,
                "pitch": 55,
                "velocity": 101,
                "duration": 0.16818181818182154,
                "tempo": 120.0
            },
            {
                "start_time": 63.054545454545455,
                "end_time": 63.22727272727273,
                "pitch": 57,
                "velocity": 101,
                "duration": 0.17272727272727195,
                "tempo": 120.0
            },
            {
                "start_time": 63.22727272727273,
                "end_time": 63.4,
                "pitch": 58,
                "velocity": 101,
                "duration": 0.17272727272727195,
                "tempo": 120.0
            },
            {
                "start_time": 63.4,
                "end_time": 63.56590909090909,
                "pitch": 60,
                "velocity": 101,
                "duration": 0.16590909090908923,
                "tempo": 120.0
            },
            {
                "start_time": 63.56818181818181,
                "end_time": 63.73409090909091,
                "pitch": 57,
                "velocity": 101,
                "duration": 0.16590909090909634,
                "tempo": 120.0
            },
            {
                "start_time": 63.736363636363635,
                "end_time": 63.902272727272724,
                "pitch": 58,
                "velocity": 101,
                "duration": 0.16590909090908923,
                "tempo": 120.0
            },
            {
                "start_time": 63.902272727272724,
                "end_time": 64.07045454545454,
                "pitch": 60,
                "velocity": 101,
                "duration": 0.16818181818181444,
                "tempo": 120.0
            },
            {
                "start_time": 64.07045454545454,
                "end_time": 64.24318181818181,
                "pitch": 62,
                "velocity": 101,
                "duration": 0.17272727272727195,
                "tempo": 120.0
            },
            {
                "start_time": 64.24318181818181,
                "end_time": 64.41363636363636,
                "pitch": 58,
                "velocity": 101,
                "duration": 0.17045454545454675,
                "tempo": 120.0
            },
            {
                "start_time": 64.41590909090908,
                "end_time": 64.58181818181818,
                "pitch": 60,
                "velocity": 101,
                "duration": 0.16590909090909634,
                "tempo": 120.0
            },
            {
                "start_time": 64.5840909090909,
                "end_time": 64.75,
                "pitch": 62,
                "velocity": 101,
                "duration": 0.16590909090909634,
                "tempo": 120.0
            },
            {
                "start_time": 64.75,
                "end_time": 64.92272727272727,
                "pitch": 63,
                "velocity": 101,
                "duration": 0.17272727272727195,
                "tempo": 120.0
            },
            {
                "start_time": 64.92272727272727,
                "end_time": 65.09545454545454,
                "pitch": 60,
                "velocity": 101,
                "duration": 0.17272727272727195,
                "tempo": 120.0
            },
            {
                "start_time": 65.09545454545454,
                "end_time": 65.42954545454545,
                "pitch": 62,
                "velocity": 101,
                "duration": 0.33409090909090366,
                "tempo": 120.0
            },
            {
                "start_time": 65.43181818181817,
                "end_time": 65.76590909090909,
                "pitch": 55,
                "velocity": 101,
                "duration": 0.3340909090909179,
                "tempo": 120.0
            },
            {
                "start_time": 65.76590909090909,
                "end_time": 66.10909090909091,
                "pitch": 54,
                "velocity": 101,
                "duration": 0.3431818181818187,
                "tempo": 120.0
            },
            {
                "start_time": 66.11136363636363,
                "end_time": 66.44545454545454,
                "pitch": 55,
                "velocity": 101,
                "duration": 0.33409090909090366,
                "tempo": 120.0
            },
            {
                "start_time": 66.44772727272726,
                "end_time": 66.61363636363636,
                "pitch": 60,
                "velocity": 101,
                "duration": 0.16590909090909634,
                "tempo": 120.0
            },
            {
                "start_time": 66.61363636363636,
                "end_time": 66.78181818181818,
                "pitch": 58,
                "velocity": 101,
                "duration": 0.16818181818182154,
                "tempo": 120.0
            },
            {
                "start_time": 66.78181818181818,
                "end_time": 66.95227272727273,
                "pitch": 57,
                "velocity": 101,
                "duration": 0.17045454545454675,
                "tempo": 120.0
            },
            {
                "start_time": 66.95454545454545,
                "end_time": 67.125,
                "pitch": 55,
                "velocity": 101,
                "duration": 0.17045454545454675,
                "tempo": 120.0
            },
            {
                "start_time": 67.12727272727273,
                "end_time": 67.46136363636363,
                "pitch": 54,
                "velocity": 101,
                "duration": 0.33409090909090366,
                "tempo": 120.0
            },
            {
                "start_time": 67.80681818181817,
                "end_time": 67.97272727272727,
                "pitch": 55,
                "velocity": 101,
                "duration": 0.16590909090909634,
                "tempo": 120.0
            },
            {
                "start_time": 67.975,
                "end_time": 68.14090909090909,
                "pitch": 57,
                "velocity": 101,
                "duration": 0.16590909090909634,
                "tempo": 120.0
            },
            {
                "start_time": 68.14090909090909,
                "end_time": 68.30909090909091,
                "pitch": 58,
                "velocity": 101,
                "duration": 0.16818181818182154,
                "tempo": 120.0
            },
            {
                "start_time": 68.30909090909091,
                "end_time": 68.47727272727272,
                "pitch": 55,
                "velocity": 101,
                "duration": 0.16818181818180733,
                "tempo": 120.0
            },
            {
                "start_time": 68.47727272727272,
                "end_time": 68.64772727272727,
                "pitch": 57,
                "velocity": 101,
                "duration": 0.17045454545454675,
                "tempo": 120.0
            },
            {
                "start_time": 68.64999999999999,
                "end_time": 68.82045454545454,
                "pitch": 58,
                "velocity": 101,
                "duration": 0.17045454545454675,
                "tempo": 120.0
            },
            {
                "start_time": 68.82272727272726,
                "end_time": 68.98863636363636,
                "pitch": 60,
                "velocity": 101,
                "duration": 0.16590909090909634,
                "tempo": 120.0
            },
            {
                "start_time": 68.98863636363636,
                "end_time": 69.15681818181818,
                "pitch": 57,
                "velocity": 101,
                "duration": 0.16818181818182154,
                "tempo": 120.0
            },
            {
                "start_time": 69.15681818181818,
                "end_time": 69.325,
                "pitch": 58,
                "velocity": 101,
                "duration": 0.16818181818182154,
                "tempo": 120.0
            },
            {
                "start_time": 69.325,
                "end_time": 69.49090909090908,
                "pitch": 60,
                "velocity": 101,
                "duration": 0.16590909090908212,
                "tempo": 120.0
            },
            {
                "start_time": 69.49318181818181,
                "end_time": 69.66363636363636,
                "pitch": 62,
                "velocity": 101,
                "duration": 0.17045454545454675,
                "tempo": 120.0
            },
            {
                "start_time": 69.66590909090908,
                "end_time": 69.83636363636363,
                "pitch": 58,
                "velocity": 101,
                "duration": 0.17045454545454675,
                "tempo": 120.0
            },
            {
                "start_time": 69.83636363636363,
                "end_time": 70.00454545454545,
                "pitch": 60,
                "velocity": 101,
                "duration": 0.16818181818182154,
                "tempo": 120.0
            },
            {
                "start_time": 70.00454545454545,
                "end_time": 70.17272727272727,
                "pitch": 62,
                "velocity": 101,
                "duration": 0.16818181818182154,
                "tempo": 120.0
            },
            {
                "start_time": 70.17272727272727,
                "end_time": 70.34318181818182,
                "pitch": 63,
                "velocity": 101,
                "duration": 0.17045454545454675,
                "tempo": 120.0
            },
            {
                "start_time": 70.34545454545454,
                "end_time": 70.51590909090909,
                "pitch": 60,
                "velocity": 101,
                "duration": 0.17045454545454675,
                "tempo": 120.0
            },
            {
                "start_time": 70.51818181818182,
                "end_time": 70.85227272727272,
                "pitch": 62,
                "velocity": 101,
                "duration": 0.33409090909090366,
                "tempo": 120.0
            },
            {
                "start_time": 70.85227272727272,
                "end_time": 71.18636363636364,
                "pitch": 67,
                "velocity": 101,
                "duration": 0.3340909090909179,
                "tempo": 120.0
            },
            {
                "start_time": 71.18863636363636,
                "end_time": 71.53181818181818,
                "pitch": 66,
                "velocity": 101,
                "duration": 0.3431818181818187,
                "tempo": 120.0
            },
            {
                "start_time": 71.53181818181818,
                "end_time": 71.86818181818181,
                "pitch": 67,
                "velocity": 101,
                "duration": 0.33636363636362887,
                "tempo": 120.0
            },
            {
                "start_time": 71.86818181818181,
                "end_time": 72.0340909090909,
                "pitch": 63,
                "velocity": 101,
                "duration": 0.16590909090909634,
                "tempo": 120.0
            },
            {
                "start_time": 72.03636363636363,
                "end_time": 72.20227272727273,
                "pitch": 62,
                "velocity": 101,
                "duration": 0.16590909090909634,
                "tempo": 120.0
            },
            {
                "start_time": 72.20454545454545,
                "end_time": 72.375,
                "pitch": 60,
                "velocity": 101,
                "duration": 0.17045454545454675,
                "tempo": 120.0
            },
            {
                "start_time": 72.375,
                "end_time": 72.54772727272727,
                "pitch": 58,
                "velocity": 101,
                "duration": 0.17272727272727195,
                "tempo": 120.0
            },
            {
                "start_time": 72.54772727272727,
                "end_time": 72.63181818181818,
                "pitch": 57,
                "velocity": 101,
                "duration": 0.08409090909090366,
                "tempo": 120.0
            },
            {
                "start_time": 72.63181818181818,
                "end_time": 72.7159090909091,
                "pitch": 58,
                "velocity": 101,
                "duration": 0.08409090909091788,
                "tempo": 120.0
            },
            {
                "start_time": 72.7159090909091,
                "end_time": 72.79772727272727,
                "pitch": 57,
                "velocity": 101,
                "duration": 0.08181818181817846,
                "tempo": 120.0
            },
            {
                "start_time": 72.8,
                "end_time": 72.88181818181818,
                "pitch": 58,
                "velocity": 101,
                "duration": 0.08181818181817846,
                "tempo": 120.0
            },
            {
                "start_time": 72.8840909090909,
                "end_time": 73.05,
                "pitch": 57,
                "velocity": 101,
                "duration": 0.16590909090909634,
                "tempo": 120.0
            },
            {
                "start_time": 73.05227272727272,
                "end_time": 73.1340909090909,
                "pitch": 55,
                "velocity": 101,
                "duration": 0.08181818181817846,
                "tempo": 120.0
            },
            {
                "start_time": 73.1340909090909,
                "end_time": 73.21818181818182,
                "pitch": 54,
                "velocity": 101,
                "duration": 0.08409090909091788,
                "tempo": 120.0
            },
            {
                "start_time": 73.22045454545454,
                "end_time": 73.39090909090909,
                "pitch": 55,
                "velocity": 101,
                "duration": 0.17045454545454675,
                "tempo": 120.0
            },
            {
                "start_time": 73.39090909090909,
                "end_time": 73.56363636363636,
                "pitch": 57,
                "velocity": 101,
                "duration": 0.17272727272727195,
                "tempo": 120.0
            },
            {
                "start_time": 73.56363636363636,
                "end_time": 73.72954545454544,
                "pitch": 58,
                "velocity": 101,
                "duration": 0.16590909090908212,
                "tempo": 120.0
            },
            {
                "start_time": 73.73181818181818,
                "end_time": 73.89772727272727,
                "pitch": 55,
                "velocity": 101,
                "duration": 0.16590909090908212,
                "tempo": 120.0
            },
            {
                "start_time": 73.89999999999999,
                "end_time": 74.07045454545454,
                "pitch": 57,
                "velocity": 101,
                "duration": 0.17045454545454675,
                "tempo": 120.0
            },
            {
                "start_time": 74.07045454545454,
                "end_time": 74.24318181818181,
                "pitch": 58,
                "velocity": 101,
                "duration": 0.17272727272727195,
                "tempo": 120.0
            },
            {
                "start_time": 74.24318181818181,
                "end_time": 74.41136363636363,
                "pitch": 60,
                "velocity": 101,
                "duration": 0.16818181818182154,
                "tempo": 120.0
            },
            {
                "start_time": 74.41136363636363,
                "end_time": 74.57954545454545,
                "pitch": 57,
                "velocity": 101,
                "duration": 0.16818181818182154,
                "tempo": 120.0
            },
            {
                "start_time": 74.57954545454545,
                "end_time": 74.74545454545454,
                "pitch": 58,
                "velocity": 101,
                "duration": 0.16590909090908212,
                "tempo": 120.0
            },
            {
                "start_time": 74.74772727272727,
                "end_time": 74.91363636363636,
                "pitch": 60,
                "velocity": 101,
                "duration": 0.16590909090908212,
                "tempo": 120.0
            },
            {
                "start_time": 74.91363636363636,
                "end_time": 75.08636363636363,
                "pitch": 62,
                "velocity": 101,
                "duration": 0.17272727272727195,
                "tempo": 120.0
            },
            {
                "start_time": 75.08636363636363,
                "end_time": 75.2590909090909,
                "pitch": 58,
                "velocity": 101,
                "duration": 0.17272727272727195,
                "tempo": 120.0
            },
            {
                "start_time": 75.2590909090909,
                "end_time": 75.425,
                "pitch": 60,
                "velocity": 101,
                "duration": 0.16590909090909634,
                "tempo": 120.0
            },
            {
                "start_time": 75.42727272727272,
                "end_time": 75.59318181818182,
                "pitch": 62,
                "velocity": 101,
                "duration": 0.16590909090909634,
                "tempo": 120.0
            },
            {
                "start_time": 75.59545454545454,
                "end_time": 75.76590909090909,
                "pitch": 63,
                "velocity": 101,
                "duration": 0.17045454545454675,
                "tempo": 120.0
            },
            {
                "start_time": 75.76590909090909,
                "end_time": 75.93863636363636,
                "pitch": 60,
                "velocity": 101,
                "duration": 0.17272727272727195,
                "tempo": 120.0
            },
            {
                "start_time": 75.94090909090909,
                "end_time": 76.27499999999999,
                "pitch": 62,
                "velocity": 101,
                "duration": 0.33409090909090366,
                "tempo": 120.0
            },
            {
                "start_time": 76.27499999999999,
                "end_time": 76.60909090909091,
                "pitch": 55,
                "velocity": 101,
                "duration": 0.3340909090909179,
                "tempo": 120.0
            },
            {
                "start_time": 76.60909090909091,
                "end_time": 76.95454545454545,
                "pitch": 54,
                "velocity": 101,
                "duration": 0.3454545454545439,
                "tempo": 120.0
            },
            {
                "start_time": 76.95454545454545,
                "end_time": 77.28863636363636,
                "pitch": 55,
                "velocity": 101,
                "duration": 0.33409090909090366,
                "tempo": 120.0
            },
            {
                "start_time": 77.29090909090908,
                "end_time": 77.45681818181818,
                "pitch": 60,
                "velocity": 101,
                "duration": 0.16590909090909634,
                "tempo": 120.0
            }
        ],
        "Church Organ": [
            {
                "start_time": 35.43863636363636,
                "end_time": 35.60909090909091,
                "pitch": 79,
                "velocity": 101,
                "duration": 0.17045454545454675,
                "tempo": 120.0
            },
            {
                "start_time": 35.611363636363635,
                "end_time": 35.777272727272724,
                "pitch": 74,
                "velocity": 101,
                "duration": 0.16590909090908923,
                "tempo": 120.0
            },
            {
                "start_time": 35.779545454545456,
                "end_time": 35.945454545454545,
                "pitch": 79,
                "velocity": 101,
                "duration": 0.16590909090908923,
                "tempo": 120.0
            },
            {
                "start_time": 35.94772727272727,
                "end_time": 36.11363636363636,
                "pitch": 70,
                "velocity": 101,
                "duration": 0.16590909090908923,
                "tempo": 120.0
            },
            {
                "start_time": 36.11363636363636,
                "end_time": 36.28181818181818,
                "pitch": 79,
                "velocity": 101,
                "duration": 0.16818181818182154,
                "tempo": 120.0
            },
            {
                "start_time": 36.28181818181818,
                "end_time": 36.45227272727273,
                "pitch": 74,
                "velocity": 101,
                "duration": 0.17045454545454675,
                "tempo": 120.0
            },
            {
                "start_time": 36.45454545454545,
                "end_time": 36.625,
                "pitch": 79,
                "velocity": 101,
                "duration": 0.17045454545454675,
                "tempo": 120.0
            },
            {
                "start_time": 37.97954545454545,
                "end_time": 38.14772727272727,
                "pitch": 69,
                "velocity": 101,
                "duration": 0.16818181818182154,
                "tempo": 120.0
            },
            {
                "start_time": 38.15,
                "end_time": 38.320454545454545,
                "pitch": 77,
                "velocity": 101,
                "duration": 0.17045454545454675,
                "tempo": 120.0
            },
            {
                "start_time": 38.32272727272727,
                "end_time": 38.48863636363636,
                "pitch": 72,
                "velocity": 101,
                "duration": 0.16590909090908923,
                "tempo": 120.0
            },
            {
                "start_time": 38.49090909090909,
                "end_time": 38.65681818181818,
                "pitch": 77,
                "velocity": 101,
                "duration": 0.16590909090908923,
                "tempo": 120.0
            },
            {
                "start_time": 38.65681818181818,
                "end_time": 38.824999999999996,
                "pitch": 69,
                "velocity": 101,
                "duration": 0.16818181818181444,
                "tempo": 120.0
            },
            {
                "start_time": 38.824999999999996,
                "end_time": 38.99090909090909,
                "pitch": 77,
                "velocity": 101,
                "duration": 0.16590909090909634,
                "tempo": 120.0
            },
            {
                "start_time": 38.99318181818182,
                "end_time": 39.163636363636364,
                "pitch": 72,
                "velocity": 101,
                "duration": 0.17045454545454675,
                "tempo": 120.0
            },
            {
                "start_time": 39.16590909090909,
                "end_time": 39.336363636363636,
                "pitch": 77,
                "velocity": 101,
                "duration": 0.17045454545454675,
                "tempo": 120.0
            },
            {
                "start_time": 40.68863636363636,
                "end_time": 40.85909090909091,
                "pitch": 67,
                "velocity": 101,
                "duration": 0.17045454545454675,
                "tempo": 120.0
            },
            {
                "start_time": 40.861363636363635,
                "end_time": 41.03181818181818,
                "pitch": 75,
                "velocity": 101,
                "duration": 0.17045454545454675,
                "tempo": 120.0
            },
            {
                "start_time": 41.03409090909091,
                "end_time": 41.199999999999996,
                "pitch": 70,
                "velocity": 101,
                "duration": 0.16590909090908923,
                "tempo": 120.0
            },
            {
                "start_time": 41.199999999999996,
                "end_time": 41.36818181818182,
                "pitch": 75,
                "velocity": 101,
                "duration": 0.16818181818182154,
                "tempo": 120.0
            },
            {
                "start_time": 41.36818181818182,
                "end_time": 41.53409090909091,
                "pitch": 67,
                "velocity": 101,
                "duration": 0.16590909090908923,
                "tempo": 120.0
            },
            {
                "start_time": 41.53636363636363,
                "end_time": 41.70227272727273,
                "pitch": 75,
                "velocity": 101,
                "duration": 0.16590909090909634,
                "tempo": 120.0
            },
            {
                "start_time": 41.70454545454545,
                "end_time": 41.875,
                "pitch": 70,
                "velocity": 101,
                "duration": 0.17045454545454675,
                "tempo": 120.0
            },
            {
                "start_time": 41.877272727272725,
                "end_time": 42.04772727272727,
                "pitch": 75,
                "velocity": 101,
                "duration": 0.17045454545454675,
                "tempo": 120.0
            },
            {
                "start_time": 43.4,
                "end_time": 43.570454545454545,
                "pitch": 66,
                "velocity": 101,
                "duration": 0.17045454545454675,
                "tempo": 120.0
            },
            {
                "start_time": 43.57272727272727,
                "end_time": 43.74318181818182,
                "pitch": 74,
                "velocity": 101,
                "duration": 0.17045454545454675,
                "tempo": 120.0
            },
            {
                "start_time": 43.74545454545454,
                "end_time": 43.91136363636363,
                "pitch": 69,
                "velocity": 101,
                "duration": 0.16590909090908923,
                "tempo": 120.0
            },
            {
                "start_time": 43.91136363636363,
                "end_time": 44.07954545454545,
                "pitch": 74,
                "velocity": 101,
                "duration": 0.16818181818182154,
                "tempo": 120.0
            },
            {
                "start_time": 44.07954545454545,
                "end_time": 44.24545454545454,
                "pitch": 66,
                "velocity": 101,
                "duration": 0.16590909090908923,
                "tempo": 120.0
            },
            {
                "start_time": 44.24772727272727,
                "end_time": 44.413636363636364,
                "pitch": 74,
                "velocity": 101,
                "duration": 0.16590909090909634,
                "tempo": 120.0
            },
            {
                "start_time": 44.41590909090909,
                "end_time": 44.586363636363636,
                "pitch": 69,
                "velocity": 101,
                "duration": 0.17045454545454675,
                "tempo": 120.0
            },
            {
                "start_time": 44.586363636363636,
                "end_time": 44.75909090909091,
                "pitch": 74,
                "velocity": 101,
                "duration": 0.17272727272727195,
                "tempo": 120.0
            },
            {
                "start_time": 46.28409090909091,
                "end_time": 46.45454545454545,
                "pitch": 79,
                "velocity": 101,
                "duration": 0.17045454545454675,
                "tempo": 120.0
            },
            {
                "start_time": 46.45454545454545,
                "end_time": 46.62045454545454,
                "pitch": 74,
                "velocity": 101,
                "duration": 0.16590909090908923,
                "tempo": 120.0
            },
            {
                "start_time": 46.62272727272727,
                "end_time": 46.788636363636364,
                "pitch": 79,
                "velocity": 101,
                "duration": 0.16590909090909634,
                "tempo": 120.0
            },
            {
                "start_time": 46.79090909090909,
                "end_time": 46.95681818181818,
                "pitch": 70,
                "velocity": 101,
                "duration": 0.16590909090908923,
                "tempo": 120.0
            },
            {
                "start_time": 46.959090909090904,
                "end_time": 47.125,
                "pitch": 79,
                "velocity": 101,
                "duration": 0.16590909090909634,
                "tempo": 120.0
            },
            {
                "start_time": 47.127272727272725,
                "end_time": 47.29772727272727,
                "pitch": 74,
                "velocity": 101,
                "duration": 0.17045454545454675,
                "tempo": 120.0
            },
            {
                "start_time": 47.29772727272727,
                "end_time": 47.46818181818182,
                "pitch": 79,
                "velocity": 101,
                "duration": 0.17045454545454675,
                "tempo": 120.0
            },
            {
                "start_time": 48.82272727272727,
                "end_time": 48.99318181818182,
                "pitch": 69,
                "velocity": 101,
                "duration": 0.17045454545454675,
                "tempo": 120.0
            },
            {
                "start_time": 48.99318181818182,
                "end_time": 49.16590909090909,
                "pitch": 77,
                "velocity": 101,
                "duration": 0.17272727272727195,
                "tempo": 120.0
            },
            {
                "start_time": 49.16590909090909,
                "end_time": 49.33181818181818,
                "pitch": 72,
                "velocity": 101,
                "duration": 0.16590909090908923,
                "tempo": 120.0
            },
            {
                "start_time": 49.334090909090904,
                "end_time": 49.5,
                "pitch": 77,
                "velocity": 101,
                "duration": 0.16590909090909634,
                "tempo": 120.0
            },
            {
                "start_time": 49.502272727272725,
                "end_time": 49.668181818181814,
                "pitch": 69,
                "velocity": 101,
                "duration": 0.16590909090908923,
                "tempo": 120.0
            },
            {
                "start_time": 49.67045454545454,
                "end_time": 49.836363636363636,
                "pitch": 77,
                "velocity": 101,
                "duration": 0.16590909090909634,
                "tempo": 120.0
            },
            {
                "start_time": 49.836363636363636,
                "end_time": 50.00909090909091,
                "pitch": 72,
                "velocity": 101,
                "duration": 0.17272727272727195,
                "tempo": 120.0
            },
            {
                "start_time": 50.00909090909091,
                "end_time": 50.179545454545455,
                "pitch": 77,
                "velocity": 101,
                "duration": 0.17045454545454675,
                "tempo": 120.0
            },
            {
                "start_time": 51.53409090909091,
                "end_time": 51.70454545454545,
                "pitch": 67,
                "velocity": 101,
                "duration": 0.17045454545454675,
                "tempo": 120.0
            },
            {
                "start_time": 51.70454545454545,
                "end_time": 51.875,
                "pitch": 75,
                "velocity": 101,
                "duration": 0.17045454545454675,
                "tempo": 120.0
            },
            {
                "start_time": 51.877272727272725,
                "end_time": 52.043181818181814,
                "pitch": 70,
                "velocity": 101,
                "duration": 0.16590909090908923,
                "tempo": 120.0
            },
            {
                "start_time": 52.04545454545454,
                "end_time": 52.211363636363636,
                "pitch": 75,
                "velocity": 101,
                "duration": 0.16590909090909634,
                "tempo": 120.0
            },
            {
                "start_time": 52.21363636363636,
                "end_time": 52.37954545454545,
                "pitch": 67,
                "velocity": 101,
                "duration": 0.16590909090908923,
                "tempo": 120.0
            },
            {
                "start_time": 52.37954545454545,
                "end_time": 52.54772727272727,
                "pitch": 75,
                "velocity": 101,
                "duration": 0.16818181818182154,
                "tempo": 120.0
            },
            {
                "start_time": 52.54772727272727,
                "end_time": 52.71818181818182,
                "pitch": 70,
                "velocity": 101,
                "duration": 0.17045454545454675,
                "tempo": 120.0
            },
            {
                "start_time": 52.720454545454544,
                "end_time": 52.89090909090909,
                "pitch": 75,
                "velocity": 101,
                "duration": 0.17045454545454675,
                "tempo": 120.0
            }
        ],
        "Lead 2 (sawtooth)": [
            {
                "start_time": 36.627272727272725,
                "end_time": 36.961363636363636,
                "pitch": 60,
                "velocity": 80,
                "duration": 0.33409090909091077,
                "tempo": 120.0
            },
            {
                "start_time": 36.96363636363636,
                "end_time": 37.30681818181818,
                "pitch": 55,
                "velocity": 80,
                "duration": 0.3431818181818187,
                "tempo": 120.0
            },
            {
                "start_time": 37.30681818181818,
                "end_time": 37.64090909090909,
                "pitch": 60,
                "velocity": 80,
                "duration": 0.33409090909091077,
                "tempo": 120.0
            },
            {
                "start_time": 37.643181818181816,
                "end_time": 37.97727272727273,
                "pitch": 58,
                "velocity": 80,
                "duration": 0.33409090909091077,
                "tempo": 120.0
            },
            {
                "start_time": 39.33863636363636,
                "end_time": 39.67272727272727,
                "pitch": 58,
                "velocity": 80,
                "duration": 0.33409090909091077,
                "tempo": 120.0
            },
            {
                "start_time": 39.675,
                "end_time": 40.01590909090909,
                "pitch": 53,
                "velocity": 80,
                "duration": 0.3409090909090935,
                "tempo": 120.0
            },
            {
                "start_time": 40.018181818181816,
                "end_time": 40.35227272727273,
                "pitch": 58,
                "velocity": 80,
                "duration": 0.33409090909091077,
                "tempo": 120.0
            },
            {
                "start_time": 40.35454545454545,
                "end_time": 40.68863636363636,
                "pitch": 57,
                "velocity": 80,
                "duration": 0.33409090909091077,
                "tempo": 120.0
            },
            {
                "start_time": 42.05,
                "end_time": 42.38409090909091,
                "pitch": 57,
                "velocity": 80,
                "duration": 0.33409090909091077,
                "tempo": 120.0
            },
            {
                "start_time": 42.38409090909091,
                "end_time": 42.72727272727273,
                "pitch": 51,
                "velocity": 80,
                "duration": 0.3431818181818187,
                "tempo": 120.0
            },
            {
                "start_time": 42.72954545454545,
                "end_time": 43.06363636363636,
                "pitch": 57,
                "velocity": 80,
                "duration": 0.33409090909091077,
                "tempo": 120.0
            },
            {
                "start_time": 43.06590909090909,
                "end_time": 43.4,
                "pitch": 55,
                "velocity": 80,
                "duration": 0.33409090909091077,
                "tempo": 120.0
            },
            {
                "start_time": 44.92727272727272,
                "end_time": 45.095454545454544,
                "pitch": 50,
                "velocity": 80,
                "duration": 0.16818181818182154,
                "tempo": 120.0
            },
            {
                "start_time": 45.095454545454544,
                "end_time": 45.26590909090909,
                "pitch": 51,
                "velocity": 80,
                "duration": 0.17045454545454675,
                "tempo": 120.0
            },
            {
                "start_time": 45.268181818181816,
                "end_time": 45.43863636363636,
                "pitch": 53,
                "velocity": 80,
                "duration": 0.17045454545454675,
                "tempo": 120.0
            },
            {
                "start_time": 45.44090909090909,
                "end_time": 45.60681818181818,
                "pitch": 55,
                "velocity": 80,
                "duration": 0.16590909090908923,
                "tempo": 120.0
            },
            {
                "start_time": 45.60681818181818,
                "end_time": 45.775,
                "pitch": 57,
                "velocity": 80,
                "duration": 0.16818181818182154,
                "tempo": 120.0
            },
            {
                "start_time": 45.775,
                "end_time": 45.94090909090909,
                "pitch": 58,
                "velocity": 80,
                "duration": 0.16590909090908923,
                "tempo": 120.0
            },
            {
                "start_time": 45.94318181818181,
                "end_time": 46.10909090909091,
                "pitch": 60,
                "velocity": 80,
                "duration": 0.16590909090909634,
                "tempo": 120.0
            },
            {
                "start_time": 47.470454545454544,
                "end_time": 47.804545454545455,
                "pitch": 60,
                "velocity": 80,
                "duration": 0.33409090909091077,
                "tempo": 120.0
            },
            {
                "start_time": 47.80681818181818,
                "end_time": 48.15,
                "pitch": 55,
                "velocity": 80,
                "duration": 0.3431818181818187,
                "tempo": 120.0
            },
            {
                "start_time": 48.152272727272724,
                "end_time": 48.486363636363635,
                "pitch": 60,
                "velocity": 80,
                "duration": 0.33409090909091077,
                "tempo": 120.0
            },
            {
                "start_time": 48.486363636363635,
                "end_time": 48.820454545454545,
                "pitch": 58,
                "velocity": 80,
                "duration": 0.33409090909091077,
                "tempo": 120.0
            },
            {
                "start_time": 50.18181818181818,
                "end_time": 50.51590909090909,
                "pitch": 58,
                "velocity": 80,
                "duration": 0.33409090909091077,
                "tempo": 120.0
            },
            {
                "start_time": 50.518181818181816,
                "end_time": 50.861363636363635,
                "pitch": 53,
                "velocity": 80,
                "duration": 0.3431818181818187,
                "tempo": 120.0
            },
            {
                "start_time": 50.861363636363635,
                "end_time": 51.195454545454545,
                "pitch": 58,
                "velocity": 80,
                "duration": 0.33409090909091077,
                "tempo": 120.0
            },
            {
                "start_time": 51.19772727272727,
                "end_time": 51.53181818181818,
                "pitch": 57,
                "velocity": 80,
                "duration": 0.33409090909091077,
                "tempo": 120.0
            },
            {
                "start_time": 52.893181818181816,
                "end_time": 53.22727272727273,
                "pitch": 57,
                "velocity": 80,
                "duration": 0.33409090909091077,
                "tempo": 120.0
            },
            {
                "start_time": 53.22954545454545,
                "end_time": 53.57272727272727,
                "pitch": 51,
                "velocity": 80,
                "duration": 0.3431818181818187,
                "tempo": 120.0
            },
            {
                "start_time": 53.57272727272727,
                "end_time": 53.90681818181818,
                "pitch": 57,
                "velocity": 80,
                "duration": 0.33409090909091077,
                "tempo": 120.0
            },
            {
                "start_time": 53.90909090909091,
                "end_time": 54.252272727272725,
                "pitch": 55,
                "velocity": 80,
                "duration": 0.3431818181818187,
                "tempo": 120.0
            }
        ]
    }
}