{
    "track_id": "07 Solvalou",
    "mood": "angry",
    "instruments": {
        "Vibraphone": [
            {
                "start_time": 0.0,
                "end_time": 0.17045454545454544,
                "pitch": 67,
                "velocity": 127,
                "duration": 0.17045454545454544,
                "tempo": 120.0
            },
            {
                "start_time": 0.17045454545454544,
                "end_time": 0.32045454545454544,
                "pitch": 79,
                "velocity": 127,
                "duration": 0.15,
                "tempo": 120.0
            },
            {
                "start_time": 0.32045454545454544,
                "end_time": 0.47045454545454546,
                "pitch": 74,
                "velocity": 127,
                "duration": 0.15000000000000002,
                "tempo": 120.0
            },
            {
                "start_time": 0.47045454545454546,
                "end_time": 0.6204545454545454,
                "pitch": 70,
                "velocity": 127,
                "duration": 0.1499999999999999,
                "tempo": 120.0
            },
            {
                "start_time": 0.6204545454545454,
                "end_time": 0.7749999999999999,
                "pitch": 79,
                "velocity": 127,
                "duration": 0.15454545454545454,
                "tempo": 120.0
            },
            {
                "start_time": 0.7749999999999999,
                "end_time": 0.9318181818181818,
                "pitch": 67,
                "velocity": 127,
                "duration": 0.15681818181818186,
                "tempo": 120.0
            },
            {
                "start_time": 0.32045454545454544,
                "end_time": 0.9318181818181818,
                "pitch": 69,
                "velocity": 127,
                "duration": 0.6113636363636363,
                "tempo": 120.0
            },
            {
                "start_time": 0.47045454545454546,
                "end_time": 1.0818181818181818,
                "pitch": 74,
                "velocity": 127,
                "duration": 0.6113636363636363,
                "tempo": 120.0
            },
            {
                "start_time": 0.9318181818181818,
                "end_time": 1.0818181818181818,
                "pitch": 74,
                "velocity": 127,
                "duration": 0.15000000000000002,
                "tempo": 120.0
            },
            {
                "start_time": 0.6204545454545454,
                "end_time": 1.2340909090909091,
                "pitch": 82,
                "velocity": 127,
                "duration": 0.6136363636363638,
                "tempo": 120.0
            },
            {
                "start_time": 1.0818181818181818,
                "end_time": 1.2340909090909091,
                "pitch": 82,
                "velocity": 127,
                "duration": 0.15227272727272734,
                "tempo": 120.0
            },
            {
                "start_time": 1.2340909090909091,
                "end_time": 1.3795454545454544,
                "pitch": 67,
                "velocity": 127,
                "duration": 0.14545454545454528,
                "tempo": 120.0
            },
            {
                "start_time": 0.9318181818181818,
                "end_time": 1.525,
                "pitch": 69,
                "velocity": 127,
                "duration": 0.5931818181818181,
                "tempo": 120.0
            },
            {
                "start_time": 1.3795454545454544,
                "end_time": 1.525,
                "pitch": 79,
                "velocity": 127,
                "duration": 0.1454545454545455,
                "tempo": 120.0
            },
            {
                "start_time": 1.525,
                "end_time": 1.6772727272727272,
                "pitch": 77,
                "velocity": 127,
                "duration": 0.15227272727272734,
                "tempo": 120.0
            },
            {
                "start_time": 1.2340909090909091,
                "end_time": 1.8272727272727272,
                "pitch": 70,
                "velocity": 127,
                "duration": 0.593181818181818,
                "tempo": 120.0
            },
            {
                "start_time": 1.6772727272727272,
                "end_time": 1.8272727272727272,
                "pitch": 70,
                "velocity": 127,
                "duration": 0.1499999999999999,
                "tempo": 120.0
            },
            {
                "start_time": 1.8272727272727272,
                "end_time": 1.9818181818181817,
                "pitch": 79,
                "velocity": 127,
                "duration": 0.15454545454545454,
                "tempo": 120.0
            },
            {
                "start_time": 1.9818181818181817,
                "end_time": 2.1386363636363637,
                "pitch": 67,
                "velocity": 127,
                "duration": 0.15681818181818197,
                "tempo": 120.0
            },
            {
                "start_time": 1.525,
                "end_time": 2.1386363636363637,
                "pitch": 69,
                "velocity": 127,
                "duration": 0.6136363636363638,
                "tempo": 120.0
            },
            {
                "start_time": 1.6772727272727272,
                "end_time": 2.284090909090909,
                "pitch": 77,
                "velocity": 127,
                "duration": 0.6068181818181819,
                "tempo": 120.0
            },
            {
                "start_time": 2.1386363636363637,
                "end_time": 2.284090909090909,
                "pitch": 77,
                "velocity": 127,
                "duration": 0.1454545454545455,
                "tempo": 120.0
            },
            {
                "start_time": 1.8272727272727272,
                "end_time": 2.4295454545454542,
                "pitch": 82,
                "velocity": 127,
                "duration": 0.6022727272727271,
                "tempo": 120.0
            },
            {
                "start_time": 2.284090909090909,
                "end_time": 2.4295454545454542,
                "pitch": 82,
                "velocity": 127,
                "duration": 0.14545454545454506,
                "tempo": 120.0
            },
            {
                "start_time": 2.4295454545454542,
                "end_time": 2.5818181818181816,
                "pitch": 72,
                "velocity": 127,
                "duration": 0.15227272727272734,
                "tempo": 120.0
            },
            {
                "start_time": 2.5818181818181816,
                "end_time": 2.7318181818181815,
                "pitch": 84,
                "velocity": 127,
                "duration": 0.1499999999999999,
                "tempo": 120.0
            },
            {
                "start_time": 1.0818181818181818,
                "end_time": 2.7318181818181815,
                "pitch": 86,
                "velocity": 127,
                "duration": 1.6499999999999997,
                "tempo": 120.0
            },
            {
                "start_time": 2.7318181818181815,
                "end_time": 2.881818181818182,
                "pitch": 79,
                "velocity": 127,
                "duration": 0.15000000000000036,
                "tempo": 120.0
            },
            {
                "start_time": 2.881818181818182,
                "end_time": 3.0318181818181817,
                "pitch": 75,
                "velocity": 127,
                "duration": 0.1499999999999999,
                "tempo": 120.0
            },
            {
                "start_time": 3.0318181818181817,
                "end_time": 3.1886363636363635,
                "pitch": 84,
                "velocity": 127,
                "duration": 0.15681818181818175,
                "tempo": 120.0
            },
            {
                "start_time": 3.1886363636363635,
                "end_time": 3.343181818181818,
                "pitch": 72,
                "velocity": 127,
                "duration": 0.15454545454545432,
                "tempo": 120.0
            },
            {
                "start_time": 2.7318181818181815,
                "end_time": 3.343181818181818,
                "pitch": 86,
                "velocity": 127,
                "duration": 0.6113636363636363,
                "tempo": 120.0
            },
            {
                "start_time": 3.343181818181818,
                "end_time": 3.4886363636363633,
                "pitch": 79,
                "velocity": 127,
                "duration": 0.1454545454545455,
                "tempo": 120.0
            },
            {
                "start_time": 3.0318181818181817,
                "end_time": 3.634090909090909,
                "pitch": 87,
                "velocity": 127,
                "duration": 0.6022727272727271,
                "tempo": 120.0
            },
            {
                "start_time": 3.4886363636363633,
                "end_time": 3.634090909090909,
                "pitch": 87,
                "velocity": 127,
                "duration": 0.1454545454545455,
                "tempo": 120.0
            },
            {
                "start_time": 3.634090909090909,
                "end_time": 3.7909090909090906,
                "pitch": 72,
                "velocity": 127,
                "duration": 0.15681818181818175,
                "tempo": 120.0
            },
            {
                "start_time": 3.7909090909090906,
                "end_time": 3.9454545454545453,
                "pitch": 84,
                "velocity": 127,
                "duration": 0.15454545454545476,
                "tempo": 120.0
            },
            {
                "start_time": 3.343181818181818,
                "end_time": 3.9454545454545453,
                "pitch": 86,
                "velocity": 127,
                "duration": 0.6022727272727275,
                "tempo": 120.0
            },
            {
                "start_time": 2.4295454545454542,
                "end_time": 4.095454545454546,
                "pitch": 70,
                "velocity": 127,
                "duration": 1.6659090909090915,
                "tempo": 120.0
            },
            {
                "start_time": 3.9454545454545453,
                "end_time": 4.095454545454546,
                "pitch": 82,
                "velocity": 127,
                "duration": 0.15000000000000036,
                "tempo": 120.0
            },
            {
                "start_time": 3.634090909090909,
                "end_time": 4.245454545454545,
                "pitch": 75,
                "velocity": 127,
                "duration": 0.6113636363636363,
                "tempo": 120.0
            },
            {
                "start_time": 4.095454545454546,
                "end_time": 4.245454545454545,
                "pitch": 75,
                "velocity": 127,
                "duration": 0.14999999999999947,
                "tempo": 120.0
            },
            {
                "start_time": 4.245454545454545,
                "end_time": 4.418181818181818,
                "pitch": 84,
                "velocity": 127,
                "duration": 0.17272727272727284,
                "tempo": 120.0
            },
            {
                "start_time": 4.418181818181818,
                "end_time": 4.575,
                "pitch": 72,
                "velocity": 127,
                "duration": 0.1568181818181822,
                "tempo": 120.0
            },
            {
                "start_time": 3.9454545454545453,
                "end_time": 4.575,
                "pitch": 86,
                "velocity": 127,
                "duration": 0.6295454545454549,
                "tempo": 120.0
            },
            {
                "start_time": 4.575,
                "end_time": 4.725,
                "pitch": 82,
                "velocity": 127,
                "duration": 0.14999999999999947,
                "tempo": 120.0
            },
            {
                "start_time": 4.245454545454545,
                "end_time": 4.875,
                "pitch": 87,
                "velocity": 127,
                "duration": 0.6295454545454549,
                "tempo": 120.0
            },
            {
                "start_time": 4.725,
                "end_time": 4.875,
                "pitch": 87,
                "velocity": 127,
                "duration": 0.15000000000000036,
                "tempo": 120.0
            },
            {
                "start_time": 2.881818181818182,
                "end_time": 5.029545454545454,
                "pitch": 67,
                "velocity": 127,
                "duration": 2.1477272727272725,
                "tempo": 120.0
            },
            {
                "start_time": 4.875,
                "end_time": 5.029545454545454,
                "pitch": 67,
                "velocity": 127,
                "duration": 0.15454545454545432,
                "tempo": 120.0
            },
            {
                "start_time": 3.4886363636363633,
                "end_time": 5.0636363636363635,
                "pitch": 79,
                "velocity": 127,
                "duration": 1.5750000000000002,
                "tempo": 120.0
            },
            {
                "start_time": 5.029545454545454,
                "end_time": 5.0636363636363635,
                "pitch": 79,
                "velocity": 127,
                "duration": 0.03409090909090917,
                "tempo": 120.0
            }
        ],
        "Acoustic Guitar (nylon)": [
            {
                "start_time": 0.0,
                "end_time": 0.17045454545454544,
                "pitch": 91,
                "velocity": 80,
                "duration": 0.17045454545454544,
                "tempo": 120.0
            },
            {
                "start_time": 0.17045454545454544,
                "end_time": 0.32045454545454544,
                "pitch": 103,
                "velocity": 80,
                "duration": 0.15,
                "tempo": 120.0
            },
            {
                "start_time": 0.32045454545454544,
                "end_time": 0.47045454545454546,
                "pitch": 98,
                "velocity": 80,
                "duration": 0.15000000000000002,
                "tempo": 120.0
            },
            {
                "start_time": 0.47045454545454546,
                "end_time": 0.6204545454545454,
                "pitch": 94,
                "velocity": 80,
                "duration": 0.1499999999999999,
                "tempo": 120.0
            },
            {
                "start_time": 0.6204545454545454,
                "end_time": 0.7772727272727272,
                "pitch": 103,
                "velocity": 80,
                "duration": 0.15681818181818186,
                "tempo": 120.0
            },
            {
                "start_time": 0.7772727272727272,
                "end_time": 0.9318181818181818,
                "pitch": 91,
                "velocity": 80,
                "duration": 0.15454545454545454,
                "tempo": 120.0
            },
            {
                "start_time": 0.32045454545454544,
                "end_time": 0.9318181818181818,
                "pitch": 93,
                "velocity": 80,
                "duration": 0.6113636363636363,
                "tempo": 120.0
            },
            {
                "start_time": 0.47045454545454546,
                "end_time": 1.0818181818181818,
                "pitch": 98,
                "velocity": 80,
                "duration": 0.6113636363636363,
                "tempo": 120.0
            },
            {
                "start_time": 0.9318181818181818,
                "end_time": 1.0818181818181818,
                "pitch": 98,
                "velocity": 80,
                "duration": 0.15000000000000002,
                "tempo": 120.0
            },
            {
                "start_time": 0.6204545454545454,
                "end_time": 1.2340909090909091,
                "pitch": 106,
                "velocity": 80,
                "duration": 0.6136363636363638,
                "tempo": 120.0
            },
            {
                "start_time": 1.0818181818181818,
                "end_time": 1.2340909090909091,
                "pitch": 106,
                "velocity": 80,
                "duration": 0.15227272727272734,
                "tempo": 120.0
            },
            {
                "start_time": 1.2340909090909091,
                "end_time": 1.3795454545454544,
                "pitch": 91,
                "velocity": 80,
                "duration": 0.14545454545454528,
                "tempo": 120.0
            },
            {
                "start_time": 0.9318181818181818,
                "end_time": 1.525,
                "pitch": 93,
                "velocity": 80,
                "duration": 0.5931818181818181,
                "tempo": 120.0
            },
            {
                "start_time": 1.3795454545454544,
                "end_time": 1.525,
                "pitch": 103,
                "velocity": 80,
                "duration": 0.1454545454545455,
                "tempo": 120.0
            },
            {
                "start_time": 1.525,
                "end_time": 1.6772727272727272,
                "pitch": 101,
                "velocity": 80,
                "duration": 0.15227272727272734,
                "tempo": 120.0
            },
            {
                "start_time": 1.2340909090909091,
                "end_time": 1.8272727272727272,
                "pitch": 94,
                "velocity": 80,
                "duration": 0.593181818181818,
                "tempo": 120.0
            },
            {
                "start_time": 1.6772727272727272,
                "end_time": 1.8272727272727272,
                "pitch": 94,
                "velocity": 80,
                "duration": 0.1499999999999999,
                "tempo": 120.0
            },
            {
                "start_time": 1.8272727272727272,
                "end_time": 1.984090909090909,
                "pitch": 103,
                "velocity": 80,
                "duration": 0.15681818181818175,
                "tempo": 120.0
            },
            {
                "start_time": 1.984090909090909,
                "end_time": 2.1386363636363637,
                "pitch": 91,
                "velocity": 80,
                "duration": 0.15454545454545476,
                "tempo": 120.0
            },
            {
                "start_time": 1.525,
                "end_time": 2.1386363636363637,
                "pitch": 93,
                "velocity": 80,
                "duration": 0.6136363636363638,
                "tempo": 120.0
            },
            {
                "start_time": 1.6772727272727272,
                "end_time": 2.284090909090909,
                "pitch": 101,
                "velocity": 80,
                "duration": 0.6068181818181819,
                "tempo": 120.0
            },
            {
                "start_time": 2.1386363636363637,
                "end_time": 2.284090909090909,
                "pitch": 101,
                "velocity": 80,
                "duration": 0.1454545454545455,
                "tempo": 120.0
            },
            {
                "start_time": 1.8272727272727272,
                "end_time": 2.4295454545454542,
                "pitch": 106,
                "velocity": 80,
                "duration": 0.6022727272727271,
                "tempo": 120.0
            },
            {
                "start_time": 2.284090909090909,
                "end_time": 2.4295454545454542,
                "pitch": 106,
                "velocity": 80,
                "duration": 0.14545454545454506,
                "tempo": 120.0
            },
            {
                "start_time": 0.0,
                "end_time": 2.5818181818181816,
                "pitch": 96,
                "velocity": 80,
                "duration": 2.5818181818181816,
                "tempo": 120.0
            },
            {
                "start_time": 2.4295454545454542,
                "end_time": 2.5818181818181816,
                "pitch": 96,
                "velocity": 80,
                "duration": 0.15227272727272734,
                "tempo": 120.0
            },
            {
                "start_time": 2.5818181818181816,
                "end_time": 2.7318181818181815,
                "pitch": 108,
                "velocity": 80,
                "duration": 0.1499999999999999,
                "tempo": 120.0
            },
            {
                "start_time": 1.0818181818181818,
                "end_time": 2.7318181818181815,
                "pitch": 110,
                "velocity": 80,
                "duration": 1.6499999999999997,
                "tempo": 120.0
            },
            {
                "start_time": 2.7318181818181815,
                "end_time": 2.881818181818182,
                "pitch": 103,
                "velocity": 80,
                "duration": 0.15000000000000036,
                "tempo": 120.0
            },
            {
                "start_time": 2.881818181818182,
                "end_time": 3.0318181818181817,
                "pitch": 99,
                "velocity": 80,
                "duration": 0.1499999999999999,
                "tempo": 120.0
            },
            {
                "start_time": 3.0318181818181817,
                "end_time": 3.1886363636363635,
                "pitch": 108,
                "velocity": 80,
                "duration": 0.15681818181818175,
                "tempo": 120.0
            },
            {
                "start_time": 3.1886363636363635,
                "end_time": 3.343181818181818,
                "pitch": 96,
                "velocity": 80,
                "duration": 0.15454545454545432,
                "tempo": 120.0
            },
            {
                "start_time": 2.7318181818181815,
                "end_time": 3.343181818181818,
                "pitch": 110,
                "velocity": 80,
                "duration": 0.6113636363636363,
                "tempo": 120.0
            },
            {
                "start_time": 3.343181818181818,
                "end_time": 3.4886363636363633,
                "pitch": 103,
                "velocity": 80,
                "duration": 0.1454545454545455,
                "tempo": 120.0
            },
            {
                "start_time": 3.0318181818181817,
                "end_time": 3.634090909090909,
                "pitch": 111,
                "velocity": 80,
                "duration": 0.6022727272727271,
                "tempo": 120.0
            },
            {
                "start_time": 3.4886363636363633,
                "end_time": 3.634090909090909,
                "pitch": 111,
                "velocity": 80,
                "duration": 0.1454545454545455,
                "tempo": 120.0
            },
            {
                "start_time": 3.634090909090909,
                "end_time": 3.7909090909090906,
                "pitch": 96,
                "velocity": 80,
                "duration": 0.15681818181818175,
                "tempo": 120.0
            },
            {
                "start_time": 3.7909090909090906,
                "end_time": 3.9454545454545453,
                "pitch": 108,
                "velocity": 80,
                "duration": 0.15454545454545476,
                "tempo": 120.0
            },
            {
                "start_time": 3.343181818181818,
                "end_time": 3.9454545454545453,
                "pitch": 110,
                "velocity": 80,
                "duration": 0.6022727272727275,
                "tempo": 120.0
            },
            {
                "start_time": 2.4295454545454542,
                "end_time": 4.095454545454546,
                "pitch": 94,
                "velocity": 80,
                "duration": 1.6659090909090915,
                "tempo": 120.0
            },
            {
                "start_time": 3.9454545454545453,
                "end_time": 4.095454545454546,
                "pitch": 106,
                "velocity": 80,
                "duration": 0.15000000000000036,
                "tempo": 120.0
            },
            {
                "start_time": 3.634090909090909,
                "end_time": 4.245454545454545,
                "pitch": 99,
                "velocity": 80,
                "duration": 0.6113636363636363,
                "tempo": 120.0
            },
            {
                "start_time": 4.095454545454546,
                "end_time": 4.245454545454545,
                "pitch": 99,
                "velocity": 80,
                "duration": 0.14999999999999947,
                "tempo": 120.0
            },
            {
                "start_time": 4.245454545454545,
                "end_time": 4.418181818181818,
                "pitch": 108,
                "velocity": 80,
                "duration": 0.17272727272727284,
                "tempo": 120.0
            },
            {
                "start_time": 4.418181818181818,
                "end_time": 4.575,
                "pitch": 96,
                "velocity": 80,
                "duration": 0.1568181818181822,
                "tempo": 120.0
            },
            {
                "start_time": 3.9454545454545453,
                "end_time": 4.575,
                "pitch": 110,
                "velocity": 80,
                "duration": 0.6295454545454549,
                "tempo": 120.0
            },
            {
                "start_time": 4.575,
                "end_time": 4.725,
                "pitch": 106,
                "velocity": 80,
                "duration": 0.14999999999999947,
                "tempo": 120.0
            },
            {
                "start_time": 4.245454545454545,
                "end_time": 4.875,
                "pitch": 111,
                "velocity": 80,
                "duration": 0.6295454545454549,
                "tempo": 120.0
            },
            {
                "start_time": 4.725,
                "end_time": 4.875,
                "pitch": 111,
                "velocity": 80,
                "duration": 0.15000000000000036,
                "tempo": 120.0
            },
            {
                "start_time": 2.881818181818182,
                "end_time": 5.029545454545454,
                "pitch": 91,
                "velocity": 80,
                "duration": 2.1477272727272725,
                "tempo": 120.0
            },
            {
                "start_time": 4.875,
                "end_time": 5.029545454545454,
                "pitch": 91,
                "velocity": 80,
                "duration": 0.15454545454545432,
                "tempo": 120.0
            },
            {
                "start_time": 3.4886363636363633,
                "end_time": 5.0636363636363635,
                "pitch": 103,
                "velocity": 80,
                "duration": 1.5750000000000002,
                "tempo": 120.0
            },
            {
                "start_time": 5.029545454545454,
                "end_time": 5.0636363636363635,
                "pitch": 103,
                "velocity": 80,
                "duration": 0.03409090909090917,
                "tempo": 120.0
            }
        ]
    }
}