{
    "track_id": "08 Act 2, 7",
    "mood": "angry",
    "instruments": {
        "Acoustic Grand Piano": [
            {
                "start_time": 0.038636363636363635,
                "end_time": 0.11136363636363636,
                "pitch": 24,
                "velocity": 127,
                "duration": 0.07272727272727272,
                "tempo": 120.0
            },
            {
                "start_time": 0.15,
                "end_time": 0.22272727272727272,
                "pitch": 31,
                "velocity": 127,
                "duration": 0.07272727272727272,
                "tempo": 120.0
            },
            {
                "start_time": 0.038636363636363635,
                "end_time": 0.2590909090909091,
                "pitch": 0,
                "velocity": 127,
                "duration": 0.22045454545454546,
                "tempo": 120.0
            },
            {
                "start_time": 0.2590909090909091,
                "end_time": 0.4068181818181818,
                "pitch": 27,
                "velocity": 127,
                "duration": 0.1477272727272727,
                "tempo": 120.0
            },
            {
                "start_time": 0.4795454545454545,
                "end_time": 0.5545454545454546,
                "pitch": 29,
                "velocity": 127,
                "duration": 0.07500000000000007,
                "tempo": 120.0
            },
            {
                "start_time": 0.5931818181818181,
                "end_time": 0.7431818181818182,
                "pitch": 24,
                "velocity": 127,
                "duration": 0.15000000000000002,
                "tempo": 120.0
            },
            {
                "start_time": 0.4795454545454545,
                "end_time": 0.8181818181818181,
                "pitch": 27,
                "velocity": 127,
                "duration": 0.3386363636363636,
                "tempo": 120.0
            },
            {
                "start_time": 0.8181818181818181,
                "end_time": 0.8931818181818182,
                "pitch": 22,
                "velocity": 127,
                "duration": 0.07500000000000007,
                "tempo": 120.0
            },
            {
                "start_time": 0.9318181818181818,
                "end_time": 1.0045454545454544,
                "pitch": 24,
                "velocity": 127,
                "duration": 0.07272727272727264,
                "tempo": 120.0
            },
            {
                "start_time": 0.15,
                "end_time": 1.0431818181818182,
                "pitch": 40,
                "velocity": 127,
                "duration": 0.8931818181818182,
                "tempo": 120.0
            },
            {
                "start_time": 1.0431818181818182,
                "end_time": 1.115909090909091,
                "pitch": 31,
                "velocity": 127,
                "duration": 0.07272727272727275,
                "tempo": 120.0
            },
            {
                "start_time": 0.2590909090909091,
                "end_time": 1.1522727272727271,
                "pitch": 0,
                "velocity": 127,
                "duration": 0.8931818181818181,
                "tempo": 120.0
            },
            {
                "start_time": 0.8181818181818181,
                "end_time": 1.3,
                "pitch": 27,
                "velocity": 127,
                "duration": 0.4818181818181819,
                "tempo": 120.0
            },
            {
                "start_time": 1.1522727272727271,
                "end_time": 1.3,
                "pitch": 27,
                "velocity": 127,
                "duration": 0.14772727272727293,
                "tempo": 120.0
            },
            {
                "start_time": 0.5931818181818181,
                "end_time": 1.4477272727272728,
                "pitch": 29,
                "velocity": 127,
                "duration": 0.8545454545454546,
                "tempo": 120.0
            },
            {
                "start_time": 1.375,
                "end_time": 1.4477272727272728,
                "pitch": 29,
                "velocity": 127,
                "duration": 0.07272727272727275,
                "tempo": 120.0
            },
            {
                "start_time": 1.4840909090909091,
                "end_time": 1.6318181818181818,
                "pitch": 24,
                "velocity": 127,
                "duration": 0.1477272727272727,
                "tempo": 120.0
            },
            {
                "start_time": 1.375,
                "end_time": 1.7045454545454544,
                "pitch": 27,
                "velocity": 127,
                "duration": 0.32954545454545436,
                "tempo": 120.0
            },
            {
                "start_time": 1.7045454545454544,
                "end_time": 1.7795454545454545,
                "pitch": 22,
                "velocity": 127,
                "duration": 0.07500000000000018,
                "tempo": 120.0
            },
            {
                "start_time": 0.9318181818181818,
                "end_time": 1.815909090909091,
                "pitch": 2,
                "velocity": 127,
                "duration": 0.8840909090909091,
                "tempo": 120.0
            },
            {
                "start_time": 1.815909090909091,
                "end_time": 1.8886363636363634,
                "pitch": 24,
                "velocity": 127,
                "duration": 0.07272727272727253,
                "tempo": 120.0
            },
            {
                "start_time": 1.0431818181818182,
                "end_time": 1.9249999999999998,
                "pitch": 40,
                "velocity": 127,
                "duration": 0.8818181818181816,
                "tempo": 120.0
            },
            {
                "start_time": 1.9249999999999998,
                "end_time": 2.0,
                "pitch": 31,
                "velocity": 127,
                "duration": 0.07500000000000018,
                "tempo": 120.0
            },
            {
                "start_time": 1.1522727272727271,
                "end_time": 2.036363636363636,
                "pitch": 0,
                "velocity": 127,
                "duration": 0.884090909090909,
                "tempo": 120.0
            },
            {
                "start_time": 1.7045454545454544,
                "end_time": 2.184090909090909,
                "pitch": 27,
                "velocity": 127,
                "duration": 0.4795454545454547,
                "tempo": 120.0
            },
            {
                "start_time": 2.036363636363636,
                "end_time": 2.184090909090909,
                "pitch": 27,
                "velocity": 127,
                "duration": 0.14772727272727293,
                "tempo": 120.0
            },
            {
                "start_time": 1.4840909090909091,
                "end_time": 2.3318181818181816,
                "pitch": 29,
                "velocity": 127,
                "duration": 0.8477272727272724,
                "tempo": 120.0
            },
            {
                "start_time": 2.256818181818182,
                "end_time": 2.3318181818181816,
                "pitch": 29,
                "velocity": 127,
                "duration": 0.07499999999999973,
                "tempo": 120.0
            },
            {
                "start_time": 2.368181818181818,
                "end_time": 2.5159090909090907,
                "pitch": 24,
                "velocity": 127,
                "duration": 0.14772727272727249,
                "tempo": 120.0
            },
            {
                "start_time": 2.256818181818182,
                "end_time": 2.5886363636363634,
                "pitch": 27,
                "velocity": 127,
                "duration": 0.33181818181818157,
                "tempo": 120.0
            },
            {
                "start_time": 2.5886363636363634,
                "end_time": 2.661363636363636,
                "pitch": 22,
                "velocity": 127,
                "duration": 0.07272727272727275,
                "tempo": 120.0
            },
            {
                "start_time": 1.815909090909091,
                "end_time": 2.6999999999999997,
                "pitch": 2,
                "velocity": 127,
                "duration": 0.8840909090909088,
                "tempo": 120.0
            },
            {
                "start_time": 2.6999999999999997,
                "end_time": 2.7727272727272725,
                "pitch": 24,
                "velocity": 127,
                "duration": 0.07272727272727275,
                "tempo": 120.0
            },
            {
                "start_time": 1.9249999999999998,
                "end_time": 2.809090909090909,
                "pitch": 40,
                "velocity": 127,
                "duration": 0.8840909090909093,
                "tempo": 120.0
            },
            {
                "start_time": 2.809090909090909,
                "end_time": 2.881818181818182,
                "pitch": 31,
                "velocity": 127,
                "duration": 0.07272727272727275,
                "tempo": 120.0
            },
            {
                "start_time": 2.036363636363636,
                "end_time": 2.9204545454545454,
                "pitch": 0,
                "velocity": 127,
                "duration": 0.8840909090909093,
                "tempo": 120.0
            },
            {
                "start_time": 2.5886363636363634,
                "end_time": 3.065909090909091,
                "pitch": 27,
                "velocity": 127,
                "duration": 0.4772727272727275,
                "tempo": 120.0
            },
            {
                "start_time": 2.9204545454545454,
                "end_time": 3.065909090909091,
                "pitch": 27,
                "velocity": 127,
                "duration": 0.1454545454545455,
                "tempo": 120.0
            },
            {
                "start_time": 2.368181818181818,
                "end_time": 3.2136363636363634,
                "pitch": 29,
                "velocity": 127,
                "duration": 0.8454545454545452,
                "tempo": 120.0
            },
            {
                "start_time": 3.1409090909090907,
                "end_time": 3.2136363636363634,
                "pitch": 29,
                "velocity": 127,
                "duration": 0.07272727272727275,
                "tempo": 120.0
            },
            {
                "start_time": 3.252272727272727,
                "end_time": 3.3977272727272725,
                "pitch": 24,
                "velocity": 127,
                "duration": 0.1454545454545455,
                "tempo": 120.0
            },
            {
                "start_time": 3.1409090909090907,
                "end_time": 3.4727272727272727,
                "pitch": 27,
                "velocity": 127,
                "duration": 0.331818181818182,
                "tempo": 120.0
            },
            {
                "start_time": 3.4727272727272727,
                "end_time": 3.5454545454545454,
                "pitch": 22,
                "velocity": 127,
                "duration": 0.07272727272727275,
                "tempo": 120.0
            },
            {
                "start_time": 2.6999999999999997,
                "end_time": 3.5818181818181816,
                "pitch": 2,
                "velocity": 127,
                "duration": 0.8818181818181818,
                "tempo": 120.0
            },
            {
                "start_time": 3.5818181818181816,
                "end_time": 3.6568181818181817,
                "pitch": 24,
                "velocity": 127,
                "duration": 0.07500000000000018,
                "tempo": 120.0
            },
            {
                "start_time": 2.809090909090909,
                "end_time": 3.6954545454545453,
                "pitch": 40,
                "velocity": 127,
                "duration": 0.8863636363636362,
                "tempo": 120.0
            },
            {
                "start_time": 3.6954545454545453,
                "end_time": 3.770454545454545,
                "pitch": 31,
                "velocity": 127,
                "duration": 0.07499999999999973,
                "tempo": 120.0
            },
            {
                "start_time": 2.9204545454545454,
                "end_time": 3.809090909090909,
                "pitch": 0,
                "velocity": 127,
                "duration": 0.8886363636363637,
                "tempo": 120.0
            },
            {
                "start_time": 3.4727272727272727,
                "end_time": 3.959090909090909,
                "pitch": 27,
                "velocity": 127,
                "duration": 0.48636363636363633,
                "tempo": 120.0
            },
            {
                "start_time": 3.809090909090909,
                "end_time": 3.959090909090909,
                "pitch": 27,
                "velocity": 127,
                "duration": 0.1499999999999999,
                "tempo": 120.0
            },
            {
                "start_time": 3.252272727272727,
                "end_time": 4.1068181818181815,
                "pitch": 29,
                "velocity": 127,
                "duration": 0.8545454545454545,
                "tempo": 120.0
            },
            {
                "start_time": 4.034090909090909,
                "end_time": 4.1068181818181815,
                "pitch": 29,
                "velocity": 127,
                "duration": 0.07272727272727231,
                "tempo": 120.0
            },
            {
                "start_time": 4.143181818181818,
                "end_time": 4.286363636363636,
                "pitch": 24,
                "velocity": 127,
                "duration": 0.14318181818181852,
                "tempo": 120.0
            },
            {
                "start_time": 4.034090909090909,
                "end_time": 4.3590909090909085,
                "pitch": 27,
                "velocity": 127,
                "duration": 0.3249999999999993,
                "tempo": 120.0
            },
            {
                "start_time": 4.3590909090909085,
                "end_time": 4.429545454545455,
                "pitch": 22,
                "velocity": 127,
                "duration": 0.07045454545454621,
                "tempo": 120.0
            },
            {
                "start_time": 3.5818181818181816,
                "end_time": 4.465909090909091,
                "pitch": 2,
                "velocity": 127,
                "duration": 0.8840909090909093,
                "tempo": 120.0
            },
            {
                "start_time": 4.465909090909091,
                "end_time": 4.538636363636363,
                "pitch": 24,
                "velocity": 127,
                "duration": 0.07272727272727231,
                "tempo": 120.0
            },
            {
                "start_time": 3.6954545454545453,
                "end_time": 4.577272727272727,
                "pitch": 40,
                "velocity": 127,
                "duration": 0.8818181818181818,
                "tempo": 120.0
            },
            {
                "start_time": 4.577272727272727,
                "end_time": 4.6499999999999995,
                "pitch": 31,
                "velocity": 127,
                "duration": 0.07272727272727231,
                "tempo": 120.0
            },
            {
                "start_time": 3.809090909090909,
                "end_time": 4.6863636363636365,
                "pitch": 0,
                "velocity": 127,
                "duration": 0.8772727272727274,
                "tempo": 120.0
            },
            {
                "start_time": 4.3590909090909085,
                "end_time": 4.834090909090909,
                "pitch": 27,
                "velocity": 127,
                "duration": 0.47500000000000053,
                "tempo": 120.0
            },
            {
                "start_time": 4.6863636363636365,
                "end_time": 4.834090909090909,
                "pitch": 27,
                "velocity": 127,
                "duration": 0.14772727272727249,
                "tempo": 120.0
            },
            {
                "start_time": 4.143181818181818,
                "end_time": 4.9818181818181815,
                "pitch": 29,
                "velocity": 127,
                "duration": 0.8386363636363638,
                "tempo": 120.0
            },
            {
                "start_time": 4.909090909090909,
                "end_time": 4.9818181818181815,
                "pitch": 29,
                "velocity": 127,
                "duration": 0.07272727272727231,
                "tempo": 120.0
            },
            {
                "start_time": 5.018181818181818,
                "end_time": 5.165909090909091,
                "pitch": 24,
                "velocity": 127,
                "duration": 0.14772727272727337,
                "tempo": 120.0
            },
            {
                "start_time": 4.909090909090909,
                "end_time": 5.238636363636363,
                "pitch": 27,
                "velocity": 127,
                "duration": 0.32954545454545414,
                "tempo": 120.0
            },
            {
                "start_time": 5.238636363636363,
                "end_time": 5.3136363636363635,
                "pitch": 22,
                "velocity": 127,
                "duration": 0.07500000000000018,
                "tempo": 120.0
            },
            {
                "start_time": 4.465909090909091,
                "end_time": 5.35,
                "pitch": 2,
                "velocity": 127,
                "duration": 0.8840909090909088,
                "tempo": 120.0
            },
            {
                "start_time": 5.35,
                "end_time": 5.422727272727273,
                "pitch": 24,
                "velocity": 127,
                "duration": 0.0727272727272732,
                "tempo": 120.0
            },
            {
                "start_time": 4.577272727272727,
                "end_time": 5.461363636363636,
                "pitch": 40,
                "velocity": 127,
                "duration": 0.8840909090909088,
                "tempo": 120.0
            },
            {
                "start_time": 5.459090909090909,
                "end_time": 5.461363636363636,
                "pitch": 40,
                "velocity": 127,
                "duration": 0.002272727272726982,
                "tempo": 120.0
            },
            {
                "start_time": 5.461363636363636,
                "end_time": 5.534090909090909,
                "pitch": 31,
                "velocity": 127,
                "duration": 0.0727272727272732,
                "tempo": 120.0
            },
            {
                "start_time": 4.6863636363636365,
                "end_time": 5.570454545454545,
                "pitch": 0,
                "velocity": 127,
                "duration": 0.8840909090909088,
                "tempo": 120.0
            },
            {
                "start_time": 5.238636363636363,
                "end_time": 5.718181818181818,
                "pitch": 27,
                "velocity": 127,
                "duration": 0.4795454545454545,
                "tempo": 120.0
            },
            {
                "start_time": 5.570454545454545,
                "end_time": 5.718181818181818,
                "pitch": 27,
                "velocity": 127,
                "duration": 0.14772727272727249,
                "tempo": 120.0
            },
            {
                "start_time": 5.018181818181818,
                "end_time": 5.86590909090909,
                "pitch": 29,
                "velocity": 127,
                "duration": 0.8477272727272727,
                "tempo": 120.0
            },
            {
                "start_time": 5.790909090909091,
                "end_time": 5.86590909090909,
                "pitch": 29,
                "velocity": 127,
                "duration": 0.07499999999999929,
                "tempo": 120.0
            },
            {
                "start_time": 5.902272727272727,
                "end_time": 6.05,
                "pitch": 24,
                "velocity": 127,
                "duration": 0.14772727272727249,
                "tempo": 120.0
            },
            {
                "start_time": 5.790909090909091,
                "end_time": 6.122727272727272,
                "pitch": 27,
                "velocity": 127,
                "duration": 0.3318181818181811,
                "tempo": 120.0
            },
            {
                "start_time": 6.122727272727272,
                "end_time": 6.195454545454545,
                "pitch": 22,
                "velocity": 127,
                "duration": 0.0727272727272732,
                "tempo": 120.0
            },
            {
                "start_time": 5.35,
                "end_time": 6.2340909090909085,
                "pitch": 2,
                "velocity": 127,
                "duration": 0.8840909090909088,
                "tempo": 120.0
            },
            {
                "start_time": 6.2340909090909085,
                "end_time": 6.306818181818182,
                "pitch": 24,
                "velocity": 127,
                "duration": 0.0727272727272732,
                "tempo": 120.0
            },
            {
                "start_time": 6.343181818181818,
                "end_time": 6.418181818181818,
                "pitch": 31,
                "velocity": 127,
                "duration": 0.07500000000000018,
                "tempo": 120.0
            },
            {
                "start_time": 5.570454545454545,
                "end_time": 6.454545454545454,
                "pitch": 0,
                "velocity": 127,
                "duration": 0.8840909090909088,
                "tempo": 120.0
            },
            {
                "start_time": 6.122727272727272,
                "end_time": 6.6,
                "pitch": 27,
                "velocity": 127,
                "duration": 0.4772727272727275,
                "tempo": 120.0
            },
            {
                "start_time": 6.454545454545454,
                "end_time": 6.6,
                "pitch": 27,
                "velocity": 127,
                "duration": 0.1454545454545455,
                "tempo": 120.0
            },
            {
                "start_time": 5.902272727272727,
                "end_time": 6.747727272727272,
                "pitch": 29,
                "velocity": 127,
                "duration": 0.8454545454545448,
                "tempo": 120.0
            },
            {
                "start_time": 6.675,
                "end_time": 6.747727272727272,
                "pitch": 29,
                "velocity": 127,
                "duration": 0.07272727272727231,
                "tempo": 120.0
            },
            {
                "start_time": 6.786363636363636,
                "end_time": 6.931818181818182,
                "pitch": 24,
                "velocity": 127,
                "duration": 0.1454545454545455,
                "tempo": 120.0
            },
            {
                "start_time": 6.675,
                "end_time": 7.006818181818182,
                "pitch": 27,
                "velocity": 127,
                "duration": 0.331818181818182,
                "tempo": 120.0
            },
            {
                "start_time": 7.006818181818182,
                "end_time": 7.079545454545454,
                "pitch": 22,
                "velocity": 127,
                "duration": 0.07272727272727231,
                "tempo": 120.0
            },
            {
                "start_time": 6.2340909090909085,
                "end_time": 7.11590909090909,
                "pitch": 2,
                "velocity": 127,
                "duration": 0.8818181818181818,
                "tempo": 120.0
            },
            {
                "start_time": 6.786363636363636,
                "end_time": 7.265909090909091,
                "pitch": 29,
                "velocity": 127,
                "duration": 0.4795454545454545,
                "tempo": 120.0
            },
            {
                "start_time": 7.11590909090909,
                "end_time": 7.265909090909091,
                "pitch": 29,
                "velocity": 127,
                "duration": 0.15000000000000036,
                "tempo": 120.0
            },
            {
                "start_time": 7.343181818181818,
                "end_time": 7.493181818181818,
                "pitch": 32,
                "velocity": 127,
                "duration": 0.15000000000000036,
                "tempo": 120.0
            },
            {
                "start_time": 7.5681818181818175,
                "end_time": 7.640909090909091,
                "pitch": 34,
                "velocity": 127,
                "duration": 0.0727272727272732,
                "tempo": 120.0
            },
            {
                "start_time": 7.11590909090909,
                "end_time": 7.679545454545454,
                "pitch": 2,
                "velocity": 127,
                "duration": 0.5636363636363635,
                "tempo": 120.0
            },
            {
                "start_time": 7.006818181818182,
                "end_time": 7.824999999999999,
                "pitch": 27,
                "velocity": 127,
                "duration": 0.8181818181818175,
                "tempo": 120.0
            },
            {
                "start_time": 7.679545454545454,
                "end_time": 7.824999999999999,
                "pitch": 27,
                "velocity": 127,
                "duration": 0.1454545454545455,
                "tempo": 120.0
            },
            {
                "start_time": 7.8999999999999995,
                "end_time": 7.972727272727273,
                "pitch": 27,
                "velocity": 127,
                "duration": 0.0727272727272732,
                "tempo": 120.0
            },
            {
                "start_time": 8.011363636363637,
                "end_time": 8.156818181818181,
                "pitch": 28,
                "velocity": 127,
                "duration": 0.14545454545454461,
                "tempo": 120.0
            },
            {
                "start_time": 7.343181818181818,
                "end_time": 8.23181818181818,
                "pitch": 42,
                "velocity": 127,
                "duration": 0.8886363636363628,
                "tempo": 120.0
            },
            {
                "start_time": 7.5681818181818175,
                "end_time": 8.377272727272727,
                "pitch": 32,
                "velocity": 127,
                "duration": 0.8090909090909095,
                "tempo": 120.0
            },
            {
                "start_time": 8.23181818181818,
                "end_time": 8.377272727272727,
                "pitch": 32,
                "velocity": 127,
                "duration": 0.1454545454545464,
                "tempo": 120.0
            },
            {
                "start_time": 8.452272727272726,
                "end_time": 8.522727272727272,
                "pitch": 34,
                "velocity": 127,
                "duration": 0.07045454545454533,
                "tempo": 120.0
            },
            {
                "start_time": 7.679545454545454,
                "end_time": 8.559090909090909,
                "pitch": 2,
                "velocity": 127,
                "duration": 0.8795454545454549,
                "tempo": 120.0
            },
            {
                "start_time": 8.559090909090909,
                "end_time": 8.704545454545453,
                "pitch": 27,
                "velocity": 127,
                "duration": 0.14545454545454461,
                "tempo": 120.0
            },
            {
                "start_time": 8.775,
                "end_time": 8.847727272727273,
                "pitch": 27,
                "velocity": 127,
                "duration": 0.07272727272727231,
                "tempo": 120.0
            },
            {
                "start_time": 8.884090909090908,
                "end_time": 9.034090909090908,
                "pitch": 28,
                "velocity": 127,
                "duration": 0.15000000000000036,
                "tempo": 120.0
            },
            {
                "start_time": 8.23181818181818,
                "end_time": 9.10909090909091,
                "pitch": 42,
                "velocity": 127,
                "duration": 0.8772727272727288,
                "tempo": 120.0
            },
            {
                "start_time": 8.452272727272726,
                "end_time": 9.259090909090908,
                "pitch": 32,
                "velocity": 127,
                "duration": 0.8068181818181817,
                "tempo": 120.0
            },
            {
                "start_time": 9.10909090909091,
                "end_time": 9.259090909090908,
                "pitch": 32,
                "velocity": 127,
                "duration": 0.14999999999999858,
                "tempo": 120.0
            },
            {
                "start_time": 9.336363636363636,
                "end_time": 9.409090909090908,
                "pitch": 34,
                "velocity": 127,
                "duration": 0.07272727272727231,
                "tempo": 120.0
            },
            {
                "start_time": 8.559090909090909,
                "end_time": 9.445454545454545,
                "pitch": 2,
                "velocity": 127,
                "duration": 0.8863636363636367,
                "tempo": 120.0
            },
            {
                "start_time": 9.445454545454545,
                "end_time": 9.593181818181817,
                "pitch": 27,
                "velocity": 127,
                "duration": 0.1477272727272716,
                "tempo": 120.0
            },
            {
                "start_time": 9.665909090909091,
                "end_time": 9.74090909090909,
                "pitch": 27,
                "velocity": 127,
                "duration": 0.07499999999999929,
                "tempo": 120.0
            },
            {
                "start_time": 9.777272727272727,
                "end_time": 9.924999999999999,
                "pitch": 28,
                "velocity": 127,
                "duration": 0.1477272727272716,
                "tempo": 120.0
            },
            {
                "start_time": 9.10909090909091,
                "end_time": 9.997727272727273,
                "pitch": 42,
                "velocity": 127,
                "duration": 0.8886363636363637,
                "tempo": 120.0
            },
            {
                "start_time": 9.336363636363636,
                "end_time": 10.145454545454545,
                "pitch": 32,
                "velocity": 127,
                "duration": 0.8090909090909086,
                "tempo": 120.0
            },
            {
                "start_time": 9.997727272727273,
                "end_time": 10.145454545454545,
                "pitch": 32,
                "velocity": 127,
                "duration": 0.1477272727272716,
                "tempo": 120.0
            },
            {
                "start_time": 10.218181818181817,
                "end_time": 10.293181818181818,
                "pitch": 34,
                "velocity": 127,
                "duration": 0.07500000000000107,
                "tempo": 120.0
            },
            {
                "start_time": 9.445454545454545,
                "end_time": 10.329545454545453,
                "pitch": 2,
                "velocity": 127,
                "duration": 0.8840909090909079,
                "tempo": 120.0
            },
            {
                "start_time": 10.329545454545453,
                "end_time": 10.477272727272727,
                "pitch": 27,
                "velocity": 127,
                "duration": 0.14772727272727337,
                "tempo": 120.0
            },
            {
                "start_time": 10.549999999999999,
                "end_time": 10.622727272727273,
                "pitch": 27,
                "velocity": 127,
                "duration": 0.07272727272727408,
                "tempo": 120.0
            },
            {
                "start_time": 10.661363636363635,
                "end_time": 10.806818181818182,
                "pitch": 28,
                "velocity": 127,
                "duration": 0.1454545454545464,
                "tempo": 120.0
            },
            {
                "start_time": 9.997727272727273,
                "end_time": 10.881818181818181,
                "pitch": 42,
                "velocity": 127,
                "duration": 0.8840909090909079,
                "tempo": 120.0
            },
            {
                "start_time": 10.218181818181817,
                "end_time": 11.029545454545454,
                "pitch": 32,
                "velocity": 127,
                "duration": 0.8113636363636374,
                "tempo": 120.0
            },
            {
                "start_time": 10.881818181818181,
                "end_time": 11.029545454545454,
                "pitch": 32,
                "velocity": 127,
                "duration": 0.14772727272727337,
                "tempo": 120.0
            },
            {
                "start_time": 11.102272727272727,
                "end_time": 11.174999999999999,
                "pitch": 34,
                "velocity": 127,
                "duration": 0.07272727272727231,
                "tempo": 120.0
            },
            {
                "start_time": 10.329545454545453,
                "end_time": 11.213636363636363,
                "pitch": 2,
                "velocity": 127,
                "duration": 0.8840909090909097,
                "tempo": 120.0
            },
            {
                "start_time": 11.213636363636363,
                "end_time": 11.35909090909091,
                "pitch": 27,
                "velocity": 127,
                "duration": 0.1454545454545464,
                "tempo": 120.0
            },
            {
                "start_time": 11.434090909090909,
                "end_time": 11.506818181818181,
                "pitch": 27,
                "velocity": 127,
                "duration": 0.07272727272727231,
                "tempo": 120.0
            },
            {
                "start_time": 11.545454545454545,
                "end_time": 11.69090909090909,
                "pitch": 28,
                "velocity": 127,
                "duration": 0.14545454545454461,
                "tempo": 120.0
            },
            {
                "start_time": 10.881818181818181,
                "end_time": 11.76590909090909,
                "pitch": 42,
                "velocity": 127,
                "duration": 0.8840909090909097,
                "tempo": 120.0
            },
            {
                "start_time": 11.102272727272727,
                "end_time": 11.911363636363635,
                "pitch": 32,
                "velocity": 127,
                "duration": 0.8090909090909086,
                "tempo": 120.0
            },
            {
                "start_time": 11.76590909090909,
                "end_time": 11.911363636363635,
                "pitch": 32,
                "velocity": 127,
                "duration": 0.14545454545454461,
                "tempo": 120.0
            },
            {
                "start_time": 11.986363636363636,
                "end_time": 12.059090909090909,
                "pitch": 34,
                "velocity": 127,
                "duration": 0.07272727272727231,
                "tempo": 120.0
            },
            {
                "start_time": 11.213636363636363,
                "end_time": 12.095454545454546,
                "pitch": 2,
                "velocity": 127,
                "duration": 0.8818181818181827,
                "tempo": 120.0
            },
            {
                "start_time": 12.095454545454546,
                "end_time": 12.243181818181817,
                "pitch": 27,
                "velocity": 127,
                "duration": 0.1477272727272716,
                "tempo": 120.0
            },
            {
                "start_time": 12.318181818181818,
                "end_time": 12.39090909090909,
                "pitch": 27,
                "velocity": 127,
                "duration": 0.07272727272727231,
                "tempo": 120.0
            },
            {
                "start_time": 12.427272727272726,
                "end_time": 12.575,
                "pitch": 28,
                "velocity": 127,
                "duration": 0.14772727272727337,
                "tempo": 120.0
            },
            {
                "start_time": 11.76590909090909,
                "end_time": 12.647727272727272,
                "pitch": 42,
                "velocity": 127,
                "duration": 0.881818181818181,
                "tempo": 120.0
            },
            {
                "start_time": 11.986363636363636,
                "end_time": 12.795454545454545,
                "pitch": 32,
                "velocity": 127,
                "duration": 0.8090909090909086,
                "tempo": 120.0
            },
            {
                "start_time": 12.647727272727272,
                "end_time": 12.795454545454545,
                "pitch": 32,
                "velocity": 127,
                "duration": 0.14772727272727337,
                "tempo": 120.0
            },
            {
                "start_time": 12.870454545454544,
                "end_time": 12.943181818181818,
                "pitch": 34,
                "velocity": 127,
                "duration": 0.07272727272727408,
                "tempo": 120.0
            },
            {
                "start_time": 12.095454545454546,
                "end_time": 12.979545454545454,
                "pitch": 2,
                "velocity": 127,
                "duration": 0.8840909090909079,
                "tempo": 120.0
            },
            {
                "start_time": 12.979545454545454,
                "end_time": 13.127272727272727,
                "pitch": 27,
                "velocity": 127,
                "duration": 0.14772727272727337,
                "tempo": 120.0
            },
            {
                "start_time": 13.2,
                "end_time": 13.274999999999999,
                "pitch": 27,
                "velocity": 127,
                "duration": 0.07499999999999929,
                "tempo": 120.0
            },
            {
                "start_time": 13.311363636363636,
                "end_time": 13.459090909090909,
                "pitch": 28,
                "velocity": 127,
                "duration": 0.14772727272727337,
                "tempo": 120.0
            },
            {
                "start_time": 12.647727272727272,
                "end_time": 13.531818181818181,
                "pitch": 42,
                "velocity": 127,
                "duration": 0.8840909090909097,
                "tempo": 120.0
            },
            {
                "start_time": 12.870454545454544,
                "end_time": 13.679545454545455,
                "pitch": 32,
                "velocity": 127,
                "duration": 0.8090909090909104,
                "tempo": 120.0
            },
            {
                "start_time": 13.531818181818181,
                "end_time": 13.679545454545455,
                "pitch": 32,
                "velocity": 127,
                "duration": 0.14772727272727337,
                "tempo": 120.0
            },
            {
                "start_time": 13.752272727272727,
                "end_time": 13.827272727272726,
                "pitch": 34,
                "velocity": 127,
                "duration": 0.07499999999999929,
                "tempo": 120.0
            },
            {
                "start_time": 12.979545454545454,
                "end_time": 13.863636363636363,
                "pitch": 2,
                "velocity": 127,
                "duration": 0.8840909090909097,
                "tempo": 120.0
            },
            {
                "start_time": 13.863636363636363,
                "end_time": 14.011363636363635,
                "pitch": 27,
                "velocity": 127,
                "duration": 0.1477272727272716,
                "tempo": 120.0
            },
            {
                "start_time": 14.084090909090909,
                "end_time": 14.156818181818181,
                "pitch": 27,
                "velocity": 127,
                "duration": 0.07272727272727231,
                "tempo": 120.0
            },
            {
                "start_time": 13.531818181818181,
                "end_time": 14.304545454545455,
                "pitch": 42,
                "velocity": 127,
                "duration": 0.7727272727272734,
                "tempo": 120.0
            },
            {
                "start_time": 14.304545454545455,
                "end_time": 14.379545454545454,
                "pitch": 31,
                "velocity": 127,
                "duration": 0.07499999999999929,
                "tempo": 120.0
            },
            {
                "start_time": 14.415909090909091,
                "end_time": 14.563636363636363,
                "pitch": 31,
                "velocity": 127,
                "duration": 0.1477272727272716,
                "tempo": 120.0
            },
            {
                "start_time": 14.636363636363635,
                "end_time": 14.709090909090909,
                "pitch": 31,
                "velocity": 127,
                "duration": 0.07272727272727408,
                "tempo": 120.0
            },
            {
                "start_time": 14.85681818181818,
                "end_time": 14.929545454545455,
                "pitch": 31,
                "velocity": 127,
                "duration": 0.07272727272727408,
                "tempo": 120.0
            },
            {
                "start_time": 14.968181818181817,
                "end_time": 15.040909090909091,
                "pitch": 31,
                "velocity": 127,
                "duration": 0.07272727272727408,
                "tempo": 120.0
            },
            {
                "start_time": 15.077272727272726,
                "end_time": 15.152272727272727,
                "pitch": 31,
                "velocity": 127,
                "duration": 0.07500000000000107,
                "tempo": 120.0
            },
            {
                "start_time": 15.19090909090909,
                "end_time": 15.26590909090909,
                "pitch": 33,
                "velocity": 127,
                "duration": 0.07500000000000107,
                "tempo": 120.0
            },
            {
                "start_time": 15.304545454545455,
                "end_time": 15.454545454545453,
                "pitch": 33,
                "velocity": 127,
                "duration": 0.14999999999999858,
                "tempo": 120.0
            },
            {
                "start_time": 13.863636363636363,
                "end_time": 15.529545454545454,
                "pitch": 2,
                "velocity": 127,
                "duration": 1.665909090909091,
                "tempo": 120.0
            },
            {
                "start_time": 15.529545454545454,
                "end_time": 15.602272727272727,
                "pitch": 24,
                "velocity": 127,
                "duration": 0.07272727272727231,
                "tempo": 120.0
            },
            {
                "start_time": 15.638636363636364,
                "end_time": 15.709090909090909,
                "pitch": 41,
                "velocity": 127,
                "duration": 0.07045454545454533,
                "tempo": 120.0
            },
            {
                "start_time": 15.745454545454544,
                "end_time": 15.818181818181817,
                "pitch": 41,
                "velocity": 127,
                "duration": 0.07272727272727231,
                "tempo": 120.0
            },
            {
                "start_time": 15.854545454545454,
                "end_time": 15.924999999999999,
                "pitch": 41,
                "velocity": 127,
                "duration": 0.07045454545454533,
                "tempo": 120.0
            },
            {
                "start_time": 14.304545454545455,
                "end_time": 15.961363636363636,
                "pitch": 42,
                "velocity": 127,
                "duration": 1.6568181818181813,
                "tempo": 120.0
            },
            {
                "start_time": 15.19090909090909,
                "end_time": 16.111363636363635,
                "pitch": 31,
                "velocity": 127,
                "duration": 0.920454545454545,
                "tempo": 120.0
            },
            {
                "start_time": 15.961363636363636,
                "end_time": 16.111363636363635,
                "pitch": 31,
                "velocity": 127,
                "duration": 0.14999999999999858,
                "tempo": 120.0
            },
            {
                "start_time": 16.186363636363634,
                "end_time": 16.261363636363637,
                "pitch": 31,
                "velocity": 127,
                "duration": 0.07500000000000284,
                "tempo": 120.0
            },
            {
                "start_time": 16.3,
                "end_time": 16.45,
                "pitch": 31,
                "velocity": 127,
                "duration": 0.14999999999999858,
                "tempo": 120.0
            },
            {
                "start_time": 16.520454545454545,
                "end_time": 16.59318181818182,
                "pitch": 31,
                "velocity": 127,
                "duration": 0.07272727272727408,
                "tempo": 120.0
            },
            {
                "start_time": 16.629545454545454,
                "end_time": 16.7,
                "pitch": 31,
                "velocity": 127,
                "duration": 0.07045454545454533,
                "tempo": 120.0
            },
            {
                "start_time": 16.736363636363635,
                "end_time": 16.80909090909091,
                "pitch": 31,
                "velocity": 127,
                "duration": 0.07272727272727408,
                "tempo": 120.0
            },
            {
                "start_time": 6.454545454545454,
                "end_time": 16.845454545454544,
                "pitch": 0,
                "velocity": 127,
                "duration": 10.39090909090909,
                "tempo": 120.0
            },
            {
                "start_time": 16.845454545454544,
                "end_time": 16.920454545454543,
                "pitch": 24,
                "velocity": 127,
                "duration": 0.07499999999999929,
                "tempo": 120.0
            },
            {
                "start_time": 16.956818181818182,
                "end_time": 17.10909090909091,
                "pitch": 24,
                "velocity": 127,
                "duration": 0.15227272727272734,
                "tempo": 120.0
            },
            {
                "start_time": 17.18409090909091,
                "end_time": 17.259090909090908,
                "pitch": 24,
                "velocity": 127,
                "duration": 0.07499999999999929,
                "tempo": 120.0
            },
            {
                "start_time": 17.297727272727272,
                "end_time": 17.368181818181817,
                "pitch": 27,
                "velocity": 127,
                "duration": 0.07045454545454533,
                "tempo": 120.0
            },
            {
                "start_time": 17.404545454545453,
                "end_time": 17.547727272727272,
                "pitch": 27,
                "velocity": 127,
                "duration": 0.1431818181818194,
                "tempo": 120.0
            },
            {
                "start_time": 17.620454545454546,
                "end_time": 17.693181818181817,
                "pitch": 27,
                "velocity": 127,
                "duration": 0.07272727272727053,
                "tempo": 120.0
            },
            {
                "start_time": 17.729545454545455,
                "end_time": 17.802272727272726,
                "pitch": 39,
                "velocity": 127,
                "duration": 0.07272727272727053,
                "tempo": 120.0
            },
            {
                "start_time": 17.84090909090909,
                "end_time": 17.91590909090909,
                "pitch": 39,
                "velocity": 127,
                "duration": 0.07499999999999929,
                "tempo": 120.0
            },
            {
                "start_time": 17.954545454545453,
                "end_time": 18.029545454545453,
                "pitch": 39,
                "velocity": 127,
                "duration": 0.07499999999999929,
                "tempo": 120.0
            },
            {
                "start_time": 18.068181818181817,
                "end_time": 18.21590909090909,
                "pitch": 39,
                "velocity": 127,
                "duration": 0.14772727272727337,
                "tempo": 120.0
            },
            {
                "start_time": 18.288636363636364,
                "end_time": 18.35909090909091,
                "pitch": 39,
                "velocity": 127,
                "duration": 0.07045454545454533,
                "tempo": 120.0
            },
            {
                "start_time": 15.638636363636364,
                "end_time": 18.46818181818182,
                "pitch": 36,
                "velocity": 127,
                "duration": 2.829545454545455,
                "tempo": 120.0
            },
            {
                "start_time": 18.395454545454545,
                "end_time": 18.46818181818182,
                "pitch": 36,
                "velocity": 127,
                "duration": 0.07272727272727408,
                "tempo": 120.0
            },
            {
                "start_time": 18.395454545454545,
                "end_time": 18.575,
                "pitch": 39,
                "velocity": 127,
                "duration": 0.17954545454545467,
                "tempo": 120.0
            },
            {
                "start_time": 18.504545454545454,
                "end_time": 18.575,
                "pitch": 39,
                "velocity": 127,
                "duration": 0.07045454545454533,
                "tempo": 120.0
            },
            {
                "start_time": 18.504545454545454,
                "end_time": 18.686363636363634,
                "pitch": 36,
                "velocity": 127,
                "duration": 0.18181818181817988,
                "tempo": 120.0
            },
            {
                "start_time": 18.611363636363635,
                "end_time": 18.686363636363634,
                "pitch": 36,
                "velocity": 127,
                "duration": 0.07499999999999929,
                "tempo": 120.0
            },
            {
                "start_time": 6.343181818181818,
                "end_time": 18.722727272727273,
                "pitch": 40,
                "velocity": 127,
                "duration": 12.379545454545454,
                "tempo": 120.0
            },
            {
                "start_time": 18.722727272727273,
                "end_time": 18.795454545454543,
                "pitch": 31,
                "velocity": 127,
                "duration": 0.07272727272727053,
                "tempo": 120.0
            },
            {
                "start_time": 18.834090909090907,
                "end_time": 18.90681818181818,
                "pitch": 34,
                "velocity": 127,
                "duration": 0.07272727272727408,
                "tempo": 120.0
            },
            {
                "start_time": 18.834090909090907,
                "end_time": 19.01590909090909,
                "pitch": 31,
                "velocity": 127,
                "duration": 0.18181818181818343,
                "tempo": 120.0
            },
            {
                "start_time": 18.943181818181817,
                "end_time": 19.01590909090909,
                "pitch": 31,
                "velocity": 127,
                "duration": 0.07272727272727408,
                "tempo": 120.0
            },
            {
                "start_time": 16.845454545454544,
                "end_time": 19.054545454545455,
                "pitch": 0,
                "velocity": 127,
                "duration": 2.2090909090909108,
                "tempo": 120.0
            },
            {
                "start_time": 19.054545454545455,
                "end_time": 19.129545454545454,
                "pitch": 36,
                "velocity": 127,
                "duration": 0.07499999999999929,
                "tempo": 120.0
            },
            {
                "start_time": 18.722727272727273,
                "end_time": 19.16590909090909,
                "pitch": 40,
                "velocity": 127,
                "duration": 0.44318181818181657,
                "tempo": 120.0
            },
            {
                "start_time": 19.16590909090909,
                "end_time": 19.318181818181817,
                "pitch": 31,
                "velocity": 127,
                "duration": 0.15227272727272734,
                "tempo": 120.0
            },
            {
                "start_time": 19.054545454545455,
                "end_time": 19.393181818181816,
                "pitch": 0,
                "velocity": 127,
                "duration": 0.3386363636363612,
                "tempo": 120.0
            },
            {
                "start_time": 19.393181818181816,
                "end_time": 19.46818181818182,
                "pitch": 30,
                "velocity": 127,
                "duration": 0.07500000000000284,
                "tempo": 120.0
            },
            {
                "start_time": 15.961363636363636,
                "end_time": 19.504545454545454,
                "pitch": 42,
                "velocity": 127,
                "duration": 3.543181818181818,
                "tempo": 120.0
            },
            {
                "start_time": 19.504545454545454,
                "end_time": 19.579545454545453,
                "pitch": 31,
                "velocity": 127,
                "duration": 0.07499999999999929,
                "tempo": 120.0
            },
            {
                "start_time": 19.61590909090909,
                "end_time": 19.763636363636362,
                "pitch": 31,
                "velocity": 127,
                "duration": 0.14772727272727337,
                "tempo": 120.0
            },
            {
                "start_time": 19.836363636363636,
                "end_time": 19.911363636363635,
                "pitch": 31,
                "velocity": 127,
                "duration": 0.07499999999999929,
                "tempo": 120.0
            },
            {
                "start_time": 19.393181818181816,
                "end_time": 19.94772727272727,
                "pitch": 0,
                "velocity": 127,
                "duration": 0.5545454545454547,
                "tempo": 120.0
            },
            {
                "start_time": 19.94772727272727,
                "end_time": 20.020454545454545,
                "pitch": 30,
                "velocity": 127,
                "duration": 0.07272727272727408,
                "tempo": 120.0
            },
            {
                "start_time": 20.05909090909091,
                "end_time": 20.204545454545453,
                "pitch": 30,
                "velocity": 127,
                "duration": 0.14545454545454461,
                "tempo": 120.0
            },
            {
                "start_time": 20.279545454545453,
                "end_time": 20.352272727272727,
                "pitch": 30,
                "velocity": 127,
                "duration": 0.07272727272727408,
                "tempo": 120.0
            },
            {
                "start_time": 20.388636363636362,
                "end_time": 20.46363636363636,
                "pitch": 30,
                "velocity": 127,
                "duration": 0.07499999999999929,
                "tempo": 120.0
            },
            {
                "start_time": 20.5,
                "end_time": 20.647727272727273,
                "pitch": 29,
                "velocity": 127,
                "duration": 0.14772727272727337,
                "tempo": 120.0
            },
            {
                "start_time": 20.720454545454544,
                "end_time": 20.793181818181818,
                "pitch": 29,
                "velocity": 127,
                "duration": 0.07272727272727408,
                "tempo": 120.0
            },
            {
                "start_time": 20.831818181818182,
                "end_time": 20.904545454545453,
                "pitch": 27,
                "velocity": 127,
                "duration": 0.07272727272727053,
                "tempo": 120.0
            },
            {
                "start_time": 20.94090909090909,
                "end_time": 21.013636363636362,
                "pitch": 27,
                "velocity": 127,
                "duration": 0.07272727272727053,
                "tempo": 120.0
            },
            {
                "start_time": 21.052272727272726,
                "end_time": 21.125,
                "pitch": 27,
                "velocity": 127,
                "duration": 0.07272727272727408,
                "tempo": 120.0
            },
            {
                "start_time": 13.752272727272727,
                "end_time": 21.347727272727273,
                "pitch": 32,
                "velocity": 127,
                "duration": 7.595454545454546,
                "tempo": 120.0
            },
            {
                "start_time": 21.161363636363635,
                "end_time": 21.347727272727273,
                "pitch": 32,
                "velocity": 127,
                "duration": 0.1863636363636374,
                "tempo": 120.0
            },
            {
                "start_time": 21.386363636363637,
                "end_time": 21.461363636363636,
                "pitch": 32,
                "velocity": 127,
                "duration": 0.07499999999999929,
                "tempo": 120.0
            },
            {
                "start_time": 21.49772727272727,
                "end_time": 21.647727272727273,
                "pitch": 32,
                "velocity": 127,
                "duration": 0.15000000000000213,
                "tempo": 120.0
            },
            {
                "start_time": 21.831818181818182,
                "end_time": 21.904545454545453,
                "pitch": 44,
                "velocity": 127,
                "duration": 0.07272727272727053,
                "tempo": 120.0
            },
            {
                "start_time": 19.16590909090909,
                "end_time": 22.26590909090909,
                "pitch": 40,
                "velocity": 127,
                "duration": 3.1000000000000014,
                "tempo": 120.0
            },
            {
                "start_time": 22.26590909090909,
                "end_time": 22.34090909090909,
                "pitch": 32,
                "velocity": 127,
                "duration": 0.07499999999999929,
                "tempo": 120.0
            },
            {
                "start_time": 22.377272727272725,
                "end_time": 22.525,
                "pitch": 32,
                "velocity": 127,
                "duration": 0.14772727272727337,
                "tempo": 120.0
            },
            {
                "start_time": 22.26590909090909,
                "end_time": 22.709090909090907,
                "pitch": 40,
                "velocity": 127,
                "duration": 0.44318181818181657,
                "tempo": 120.0
            },
            {
                "start_time": 22.709090909090907,
                "end_time": 22.854545454545452,
                "pitch": 32,
                "velocity": 127,
                "duration": 0.14545454545454461,
                "tempo": 120.0
            },
            {
                "start_time": 22.929545454545455,
                "end_time": 23.113636363636363,
                "pitch": 32,
                "velocity": 127,
                "duration": 0.18409090909090864,
                "tempo": 120.0
            },
            {
                "start_time": 23.152272727272727,
                "end_time": 23.227272727272727,
                "pitch": 32,
                "velocity": 127,
                "duration": 0.07499999999999929,
                "tempo": 120.0
            },
            {
                "start_time": 23.26590909090909,
                "end_time": 23.41590909090909,
                "pitch": 32,
                "velocity": 127,
                "duration": 0.14999999999999858,
                "tempo": 120.0
            },
            {
                "start_time": 21.831818181818182,
                "end_time": 23.599999999999998,
                "pitch": 52,
                "velocity": 127,
                "duration": 1.7681818181818159,
                "tempo": 120.0
            },
            {
                "start_time": 23.599999999999998,
                "end_time": 23.670454545454543,
                "pitch": 44,
                "velocity": 127,
                "duration": 0.07045454545454533,
                "tempo": 120.0
            },
            {
                "start_time": 22.709090909090907,
                "end_time": 24.034090909090907,
                "pitch": 40,
                "velocity": 127,
                "duration": 1.3249999999999993,
                "tempo": 120.0
            },
            {
                "start_time": 24.034090909090907,
                "end_time": 24.10681818181818,
                "pitch": 32,
                "velocity": 127,
                "duration": 0.07272727272727408,
                "tempo": 120.0
            },
            {
                "start_time": 24.145454545454545,
                "end_time": 24.29090909090909,
                "pitch": 32,
                "velocity": 127,
                "duration": 0.14545454545454461,
                "tempo": 120.0
            },
            {
                "start_time": 24.034090909090907,
                "end_time": 24.474999999999998,
                "pitch": 40,
                "velocity": 127,
                "duration": 0.44090909090909136,
                "tempo": 120.0
            },
            {
                "start_time": 24.474999999999998,
                "end_time": 24.62272727272727,
                "pitch": 32,
                "velocity": 127,
                "duration": 0.14772727272727337,
                "tempo": 120.0
            },
            {
                "start_time": 24.69772727272727,
                "end_time": 24.88181818181818,
                "pitch": 32,
                "velocity": 127,
                "duration": 0.18409090909090864,
                "tempo": 120.0
            },
            {
                "start_time": 24.920454545454543,
                "end_time": 24.995454545454542,
                "pitch": 32,
                "velocity": 127,
                "duration": 0.07499999999999929,
                "tempo": 120.0
            },
            {
                "start_time": 25.03181818181818,
                "end_time": 25.18181818181818,
                "pitch": 32,
                "velocity": 127,
                "duration": 0.14999999999999858,
                "tempo": 120.0
            },
            {
                "start_time": 23.599999999999998,
                "end_time": 25.36590909090909,
                "pitch": 52,
                "velocity": 127,
                "duration": 1.7659090909090907,
                "tempo": 120.0
            },
            {
                "start_time": 25.36590909090909,
                "end_time": 25.438636363636363,
                "pitch": 44,
                "velocity": 127,
                "duration": 0.07272727272727408,
                "tempo": 120.0
            },
            {
                "start_time": 24.474999999999998,
                "end_time": 25.802272727272726,
                "pitch": 40,
                "velocity": 127,
                "duration": 1.327272727272728,
                "tempo": 120.0
            },
            {
                "start_time": 25.802272727272726,
                "end_time": 25.877272727272725,
                "pitch": 32,
                "velocity": 127,
                "duration": 0.07499999999999929,
                "tempo": 120.0
            },
            {
                "start_time": 25.91590909090909,
                "end_time": 26.06590909090909,
                "pitch": 32,
                "velocity": 127,
                "duration": 0.15000000000000213,
                "tempo": 120.0
            },
            {
                "start_time": 25.802272727272726,
                "end_time": 26.25,
                "pitch": 40,
                "velocity": 127,
                "duration": 0.4477272727272741,
                "tempo": 120.0
            },
            {
                "start_time": 26.25,
                "end_time": 26.393181818181816,
                "pitch": 32,
                "velocity": 127,
                "duration": 0.14318181818181586,
                "tempo": 120.0
            },
            {
                "start_time": 26.46590909090909,
                "end_time": 26.64772727272727,
                "pitch": 32,
                "velocity": 127,
                "duration": 0.18181818181817988,
                "tempo": 120.0
            },
            {
                "start_time": 26.25,
                "end_time": 26.64772727272727,
                "pitch": 40,
                "velocity": 127,
                "duration": 0.3977272727272698,
                "tempo": 120.0
            },
            {
                "start_time": 26.64772727272727,
                "end_time": 26.686363636363634,
                "pitch": 40,
                "velocity": 127,
                "duration": 0.038636363636364024,
                "tempo": 120.0
            },
            {
                "start_time": 26.686363636363634,
                "end_time": 26.761363636363637,
                "pitch": 33,
                "velocity": 127,
                "duration": 0.07500000000000284,
                "tempo": 120.0
            },
            {
                "start_time": 26.799999999999997,
                "end_time": 26.95,
                "pitch": 33,
                "velocity": 127,
                "duration": 0.15000000000000213,
                "tempo": 120.0
            },
            {
                "start_time": 25.36590909090909,
                "end_time": 27.134090909090908,
                "pitch": 52,
                "velocity": 127,
                "duration": 1.7681818181818194,
                "tempo": 120.0
            },
            {
                "start_time": 27.134090909090908,
                "end_time": 27.204545454545453,
                "pitch": 45,
                "velocity": 127,
                "duration": 0.07045454545454533,
                "tempo": 120.0
            },
            {
                "start_time": 26.686363636363634,
                "end_time": 27.570454545454545,
                "pitch": 40,
                "velocity": 127,
                "duration": 0.8840909090909115,
                "tempo": 120.0
            },
            {
                "start_time": 27.570454545454545,
                "end_time": 27.645454545454545,
                "pitch": 33,
                "velocity": 127,
                "duration": 0.07499999999999929,
                "tempo": 120.0
            },
            {
                "start_time": 27.68409090909091,
                "end_time": 27.834090909090907,
                "pitch": 33,
                "velocity": 127,
                "duration": 0.14999999999999858,
                "tempo": 120.0
            },
            {
                "start_time": 27.570454545454545,
                "end_time": 28.01590909090909,
                "pitch": 40,
                "velocity": 127,
                "duration": 0.4454545454545453,
                "tempo": 120.0
            },
            {
                "start_time": 28.01590909090909,
                "end_time": 28.161363636363635,
                "pitch": 33,
                "velocity": 127,
                "duration": 0.14545454545454461,
                "tempo": 120.0
            },
            {
                "start_time": 28.23181818181818,
                "end_time": 28.304545454545455,
                "pitch": 33,
                "velocity": 127,
                "duration": 0.07272727272727408,
                "tempo": 120.0
            },
            {
                "start_time": 28.34090909090909,
                "end_time": 28.41590909090909,
                "pitch": 33,
                "velocity": 127,
                "duration": 0.07499999999999929,
                "tempo": 120.0
            },
            {
                "start_time": 18.943181818181817,
                "end_time": 28.529545454545453,
                "pitch": 34,
                "velocity": 127,
                "duration": 9.586363636363636,
                "tempo": 120.0
            },
            {
                "start_time": 28.454545454545453,
                "end_time": 28.529545454545453,
                "pitch": 34,
                "velocity": 127,
                "duration": 0.07499999999999929,
                "tempo": 120.0
            },
            {
                "start_time": 15.529545454545454,
                "end_time": 28.565909090909088,
                "pitch": 2,
                "velocity": 127,
                "duration": 13.036363636363633,
                "tempo": 120.0
            },
            {
                "start_time": 20.831818181818182,
                "end_time": 28.64090909090909,
                "pitch": 29,
                "velocity": 127,
                "duration": 7.809090909090909,
                "tempo": 120.0
            },
            {
                "start_time": 28.565909090909088,
                "end_time": 28.64090909090909,
                "pitch": 29,
                "velocity": 127,
                "duration": 0.07500000000000284,
                "tempo": 120.0
            },
            {
                "start_time": 19.504545454545454,
                "end_time": 28.679545454545455,
                "pitch": 42,
                "velocity": 127,
                "duration": 9.175,
                "tempo": 120.0
            },
            {
                "start_time": 28.679545454545455,
                "end_time": 28.827272727272724,
                "pitch": 34,
                "velocity": 127,
                "duration": 0.14772727272726982,
                "tempo": 120.0
            },
            {
                "start_time": 28.9,
                "end_time": 28.972727272727273,
                "pitch": 46,
                "velocity": 127,
                "duration": 0.07272727272727408,
                "tempo": 120.0
            },
            {
                "start_time": 29.009090909090908,
                "end_time": 29.079545454545453,
                "pitch": 32,
                "velocity": 127,
                "duration": 0.07045454545454533,
                "tempo": 120.0
            },
            {
                "start_time": 28.679545454545455,
                "end_time": 29.224999999999998,
                "pitch": 42,
                "velocity": 127,
                "duration": 0.5454545454545432,
                "tempo": 120.0
            },
            {
                "start_time": 29.009090909090908,
                "end_time": 29.297727272727272,
                "pitch": 34,
                "velocity": 127,
                "duration": 0.288636363636364,
                "tempo": 120.0
            },
            {
                "start_time": 29.224999999999998,
                "end_time": 29.297727272727272,
                "pitch": 34,
                "velocity": 127,
                "duration": 0.07272727272727408,
                "tempo": 120.0
            },
            {
                "start_time": 28.565909090909088,
                "end_time": 29.334090909090907,
                "pitch": 2,
                "velocity": 127,
                "duration": 0.7681818181818194,
                "tempo": 120.0
            },
            {
                "start_time": 29.334090909090907,
                "end_time": 29.48181818181818,
                "pitch": 29,
                "velocity": 127,
                "duration": 0.14772727272727337,
                "tempo": 120.0
            },
            {
                "start_time": 29.224999999999998,
                "end_time": 29.55681818181818,
                "pitch": 42,
                "velocity": 127,
                "duration": 0.331818181818182,
                "tempo": 120.0
            },
            {
                "start_time": 29.55681818181818,
                "end_time": 29.702272727272724,
                "pitch": 34,
                "velocity": 127,
                "duration": 0.14545454545454461,
                "tempo": 120.0
            },
            {
                "start_time": 29.334090909090907,
                "end_time": 29.777272727272727,
                "pitch": 2,
                "velocity": 127,
                "duration": 0.4431818181818201,
                "tempo": 120.0
            },
            {
                "start_time": 29.777272727272727,
                "end_time": 29.849999999999998,
                "pitch": 25,
                "velocity": 127,
                "duration": 0.07272727272727053,
                "tempo": 120.0
            },
            {
                "start_time": 29.886363636363637,
                "end_time": 29.961363636363636,
                "pitch": 29,
                "velocity": 127,
                "duration": 0.07499999999999929,
                "tempo": 120.0
            },
            {
                "start_time": 29.55681818181818,
                "end_time": 29.99772727272727,
                "pitch": 42,
                "velocity": 127,
                "duration": 0.44090909090909136,
                "tempo": 120.0
            },
            {
                "start_time": 29.99772727272727,
                "end_time": 30.070454545454545,
                "pitch": 34,
                "velocity": 127,
                "duration": 0.07272727272727408,
                "tempo": 120.0
            },
            {
                "start_time": 30.10909090909091,
                "end_time": 30.18181818181818,
                "pitch": 34,
                "velocity": 127,
                "duration": 0.07272727272727053,
                "tempo": 120.0
            },
            {
                "start_time": 30.218181818181815,
                "end_time": 30.29090909090909,
                "pitch": 34,
                "velocity": 127,
                "duration": 0.07272727272727408,
                "tempo": 120.0
            },
            {
                "start_time": 29.777272727272727,
                "end_time": 30.329545454545453,
                "pitch": 2,
                "velocity": 127,
                "duration": 0.5522727272727259,
                "tempo": 120.0
            },
            {
                "start_time": 30.329545454545453,
                "end_time": 30.402272727272727,
                "pitch": 29,
                "velocity": 127,
                "duration": 0.07272727272727408,
                "tempo": 120.0
            },
            {
                "start_time": 29.99772727272727,
                "end_time": 30.438636363636363,
                "pitch": 42,
                "velocity": 127,
                "duration": 0.44090909090909136,
                "tempo": 120.0
            },
            {
                "start_time": 30.438636363636363,
                "end_time": 30.586363636363636,
                "pitch": 34,
                "velocity": 127,
                "duration": 0.14772727272727337,
                "tempo": 120.0
            },
            {
                "start_time": 30.66363636363636,
                "end_time": 30.738636363636363,
                "pitch": 46,
                "velocity": 127,
                "duration": 0.07500000000000284,
                "tempo": 120.0
            },
            {
                "start_time": 30.775,
                "end_time": 30.849999999999998,
                "pitch": 32,
                "velocity": 127,
                "duration": 0.07499999999999929,
                "tempo": 120.0
            },
            {
                "start_time": 30.438636363636363,
                "end_time": 31.002272727272725,
                "pitch": 42,
                "velocity": 127,
                "duration": 0.5636363636363626,
                "tempo": 120.0
            },
            {
                "start_time": 30.775,
                "end_time": 31.075,
                "pitch": 34,
                "velocity": 127,
                "duration": 0.3000000000000007,
                "tempo": 120.0
            },
            {
                "start_time": 31.002272727272725,
                "end_time": 31.075,
                "pitch": 34,
                "velocity": 127,
                "duration": 0.07272727272727408,
                "tempo": 120.0
            },
            {
                "start_time": 30.329545454545453,
                "end_time": 31.111363636363635,
                "pitch": 2,
                "velocity": 127,
                "duration": 0.7818181818181813,
                "tempo": 120.0
            },
            {
                "start_time": 31.111363636363635,
                "end_time": 31.259090909090908,
                "pitch": 29,
                "velocity": 127,
                "duration": 0.14772727272727337,
                "tempo": 120.0
            },
            {
                "start_time": 31.002272727272725,
                "end_time": 31.331818181818182,
                "pitch": 42,
                "velocity": 127,
                "duration": 0.3295454545454568,
                "tempo": 120.0
            },
            {
                "start_time": 31.331818181818182,
                "end_time": 31.479545454545452,
                "pitch": 34,
                "velocity": 127,
                "duration": 0.14772727272726982,
                "tempo": 120.0
            },
            {
                "start_time": 31.111363636363635,
                "end_time": 31.554545454545455,
                "pitch": 2,
                "velocity": 127,
                "duration": 0.4431818181818201,
                "tempo": 120.0
            },
            {
                "start_time": 29.886363636363637,
                "end_time": 31.627272727272725,
                "pitch": 25,
                "velocity": 127,
                "duration": 1.7409090909090885,
                "tempo": 120.0
            },
            {
                "start_time": 31.554545454545455,
                "end_time": 31.627272727272725,
                "pitch": 25,
                "velocity": 127,
                "duration": 0.07272727272727053,
                "tempo": 120.0
            },
            {
                "start_time": 31.66363636363636,
                "end_time": 31.736363636363635,
                "pitch": 29,
                "velocity": 127,
                "duration": 0.07272727272727408,
                "tempo": 120.0
            },
            {
                "start_time": 31.331818181818182,
                "end_time": 31.775,
                "pitch": 42,
                "velocity": 127,
                "duration": 0.44318181818181657,
                "tempo": 120.0
            },
            {
                "start_time": 31.775,
                "end_time": 31.847727272727273,
                "pitch": 34,
                "velocity": 127,
                "duration": 0.07272727272727408,
                "tempo": 120.0
            },
            {
                "start_time": 31.884090909090908,
                "end_time": 31.959090909090907,
                "pitch": 34,
                "velocity": 127,
                "duration": 0.07499999999999929,
                "tempo": 120.0
            },
            {
                "start_time": 31.995454545454542,
                "end_time": 32.06818181818182,
                "pitch": 35,
                "velocity": 127,
                "duration": 0.07272727272727764,
                "tempo": 120.0
            },
            {
                "start_time": 32.10681818181818,
                "end_time": 32.179545454545455,
                "pitch": 30,
                "velocity": 127,
                "duration": 0.07272727272727764,
                "tempo": 120.0
            },
            {
                "start_time": 31.775,
                "end_time": 32.215909090909086,
                "pitch": 42,
                "velocity": 127,
                "duration": 0.4409090909090878,
                "tempo": 120.0
            },
            {
                "start_time": 32.215909090909086,
                "end_time": 32.36363636363636,
                "pitch": 35,
                "velocity": 127,
                "duration": 0.14772727272727337,
                "tempo": 120.0
            },
            {
                "start_time": 32.10681818181818,
                "end_time": 32.43636363636364,
                "pitch": 7,
                "velocity": 127,
                "duration": 0.32954545454546036,
                "tempo": 120.0
            },
            {
                "start_time": 32.43636363636364,
                "end_time": 32.51136363636363,
                "pitch": 26,
                "velocity": 127,
                "duration": 0.07499999999999574,
                "tempo": 120.0
            },
            {
                "start_time": 21.161363636363635,
                "end_time": 32.54772727272727,
                "pitch": 41,
                "velocity": 127,
                "duration": 11.386363636363637,
                "tempo": 120.0
            },
            {
                "start_time": 32.54772727272727,
                "end_time": 32.62045454545454,
                "pitch": 33,
                "velocity": 127,
                "duration": 0.07272727272727053,
                "tempo": 120.0
            },
            {
                "start_time": 32.215909090909086,
                "end_time": 32.768181818181816,
                "pitch": 42,
                "velocity": 127,
                "duration": 0.5522727272727295,
                "tempo": 120.0
            },
            {
                "start_time": 32.768181818181816,
                "end_time": 32.840909090909086,
                "pitch": 35,
                "velocity": 127,
                "duration": 0.07272727272727053,
                "tempo": 120.0
            },
            {
                "start_time": 32.43636363636364,
                "end_time": 32.87954545454545,
                "pitch": 7,
                "velocity": 127,
                "duration": 0.443181818181813,
                "tempo": 120.0
            },
            {
                "start_time": 32.87954545454545,
                "end_time": 33.025,
                "pitch": 30,
                "velocity": 127,
                "duration": 0.14545454545454817,
                "tempo": 120.0
            },
            {
                "start_time": 32.768181818181816,
                "end_time": 33.1,
                "pitch": 42,
                "velocity": 127,
                "duration": 0.33181818181818556,
                "tempo": 120.0
            },
            {
                "start_time": 33.1,
                "end_time": 33.24772727272727,
                "pitch": 35,
                "velocity": 127,
                "duration": 0.14772727272726627,
                "tempo": 120.0
            },
            {
                "start_time": 32.87954545454545,
                "end_time": 33.320454545454545,
                "pitch": 7,
                "velocity": 127,
                "duration": 0.4409090909090949,
                "tempo": 120.0
            },
            {
                "start_time": 33.320454545454545,
                "end_time": 33.393181818181816,
                "pitch": 26,
                "velocity": 127,
                "duration": 0.07272727272727053,
                "tempo": 120.0
            },
            {
                "start_time": 33.43181818181818,
                "end_time": 33.50454545454545,
                "pitch": 30,
                "velocity": 127,
                "duration": 0.07272727272727053,
                "tempo": 120.0
            },
            {
                "start_time": 33.1,
                "end_time": 33.54090909090909,
                "pitch": 42,
                "velocity": 127,
                "duration": 0.4409090909090878,
                "tempo": 120.0
            },
            {
                "start_time": 33.54090909090909,
                "end_time": 33.61590909090909,
                "pitch": 35,
                "velocity": 127,
                "duration": 0.07500000000000284,
                "tempo": 120.0
            },
            {
                "start_time": 33.652272727272724,
                "end_time": 33.725,
                "pitch": 35,
                "velocity": 127,
                "duration": 0.07272727272727764,
                "tempo": 120.0
            },
            {
                "start_time": 33.76136363636363,
                "end_time": 33.836363636363636,
                "pitch": 35,
                "velocity": 127,
                "duration": 0.07500000000000284,
                "tempo": 120.0
            },
            {
                "start_time": 33.320454545454545,
                "end_time": 33.87272727272727,
                "pitch": 7,
                "velocity": 127,
                "duration": 0.5522727272727224,
                "tempo": 120.0
            },
            {
                "start_time": 33.87272727272727,
                "end_time": 33.945454545454545,
                "pitch": 30,
                "velocity": 127,
                "duration": 0.07272727272727764,
                "tempo": 120.0
            },
            {
                "start_time": 33.54090909090909,
                "end_time": 33.98409090909091,
                "pitch": 42,
                "velocity": 127,
                "duration": 0.4431818181818201,
                "tempo": 120.0
            },
            {
                "start_time": 33.98409090909091,
                "end_time": 34.12954545454545,
                "pitch": 35,
                "velocity": 127,
                "duration": 0.14545454545454106,
                "tempo": 120.0
            },
            {
                "start_time": 33.87272727272727,
                "end_time": 34.20454545454545,
                "pitch": 7,
                "velocity": 127,
                "duration": 0.33181818181818556,
                "tempo": 120.0
            },
            {
                "start_time": 33.43181818181818,
                "end_time": 34.277272727272724,
                "pitch": 26,
                "velocity": 127,
                "duration": 0.8454545454545439,
                "tempo": 120.0
            },
            {
                "start_time": 34.20454545454545,
                "end_time": 34.277272727272724,
                "pitch": 26,
                "velocity": 127,
                "duration": 0.07272727272727053,
                "tempo": 120.0
            },
            {
                "start_time": 32.54772727272727,
                "end_time": 34.31363636363636,
                "pitch": 41,
                "velocity": 127,
                "duration": 1.7659090909090907,
                "tempo": 120.0
            },
            {
                "start_time": 34.31363636363636,
                "end_time": 34.388636363636365,
                "pitch": 33,
                "velocity": 127,
                "duration": 0.07500000000000284,
                "tempo": 120.0
            },
            {
                "start_time": 33.98409090909091,
                "end_time": 34.53636363636363,
                "pitch": 42,
                "velocity": 127,
                "duration": 0.5522727272727224,
                "tempo": 120.0
            },
            {
                "start_time": 34.53636363636363,
                "end_time": 34.60909090909091,
                "pitch": 35,
                "velocity": 127,
                "duration": 0.07272727272727764,
                "tempo": 120.0
            },
            {
                "start_time": 34.20454545454545,
                "end_time": 34.64545454545454,
                "pitch": 7,
                "velocity": 127,
                "duration": 0.4409090909090878,
                "tempo": 120.0
            },
            {
                "start_time": 34.64545454545454,
                "end_time": 34.793181818181814,
                "pitch": 30,
                "velocity": 127,
                "duration": 0.14772727272727337,
                "tempo": 120.0
            },
            {
                "start_time": 34.53636363636363,
                "end_time": 34.86590909090909,
                "pitch": 42,
                "velocity": 127,
                "duration": 0.32954545454546036,
                "tempo": 120.0
            },
            {
                "start_time": 34.86590909090909,
                "end_time": 35.013636363636365,
                "pitch": 35,
                "velocity": 127,
                "duration": 0.14772727272727337,
                "tempo": 120.0
            },
            {
                "start_time": 34.64545454545454,
                "end_time": 35.08863636363636,
                "pitch": 7,
                "velocity": 127,
                "duration": 0.4431818181818201,
                "tempo": 120.0
            },
            {
                "start_time": 35.086363636363636,
                "end_time": 35.08863636363636,
                "pitch": 7,
                "velocity": 127,
                "duration": 0.0022727272727252057,
                "tempo": 120.0
            },
            {
                "start_time": 35.08863636363636,
                "end_time": 35.16136363636363,
                "pitch": 26,
                "velocity": 127,
                "duration": 0.07272727272727053,
                "tempo": 120.0
            },
            {
                "start_time": 35.19772727272727,
                "end_time": 35.27045454545454,
                "pitch": 30,
                "velocity": 127,
                "duration": 0.07272727272727053,
                "tempo": 120.0
            },
            {
                "start_time": 34.86590909090909,
                "end_time": 35.309090909090905,
                "pitch": 42,
                "velocity": 127,
                "duration": 0.443181818181813,
                "tempo": 120.0
            },
            {
                "start_time": 35.309090909090905,
                "end_time": 35.38181818181818,
                "pitch": 35,
                "velocity": 127,
                "duration": 0.07272727272727764,
                "tempo": 120.0
            },
            {
                "start_time": 18.611363636363635,
                "end_time": 35.56818181818181,
                "pitch": 39,
                "velocity": 127,
                "duration": 16.95681818181818,
                "tempo": 120.0
            },
            {
                "start_time": 35.418181818181814,
                "end_time": 35.56818181818181,
                "pitch": 39,
                "velocity": 127,
                "duration": 0.14999999999999858,
                "tempo": 120.0
            },
            {
                "start_time": 35.64545454545454,
                "end_time": 35.720454545454544,
                "pitch": 39,
                "velocity": 127,
                "duration": 0.07500000000000284,
                "tempo": 120.0
            },
            {
                "start_time": 35.75681818181818,
                "end_time": 35.90681818181818,
                "pitch": 39,
                "velocity": 127,
                "duration": 0.14999999999999858,
                "tempo": 120.0
            },
            {
                "start_time": 35.97727272727273,
                "end_time": 36.12272727272727,
                "pitch": 39,
                "velocity": 127,
                "duration": 0.14545454545454106,
                "tempo": 120.0
            },
            {
                "start_time": 36.195454545454545,
                "end_time": 36.33863636363636,
                "pitch": 39,
                "velocity": 127,
                "duration": 0.14318181818181586,
                "tempo": 120.0
            },
            {
                "start_time": 36.413636363636364,
                "end_time": 36.559090909090905,
                "pitch": 39,
                "velocity": 127,
                "duration": 0.14545454545454106,
                "tempo": 120.0
            },
            {
                "start_time": 36.63409090909091,
                "end_time": 36.78181818181818,
                "pitch": 39,
                "velocity": 127,
                "duration": 0.14772727272727337,
                "tempo": 120.0
            },
            {
                "start_time": 36.85454545454545,
                "end_time": 36.92727272727272,
                "pitch": 39,
                "velocity": 127,
                "duration": 0.07272727272727053,
                "tempo": 120.0
            },
            {
                "start_time": 36.965909090909086,
                "end_time": 37.038636363636364,
                "pitch": 39,
                "velocity": 127,
                "duration": 0.07272727272727764,
                "tempo": 120.0
            },
            {
                "start_time": 37.074999999999996,
                "end_time": 37.15,
                "pitch": 39,
                "velocity": 127,
                "duration": 0.07500000000000284,
                "tempo": 120.0
            },
            {
                "start_time": 37.18636363636364,
                "end_time": 37.336363636363636,
                "pitch": 39,
                "velocity": 127,
                "duration": 0.14999999999999858,
                "tempo": 120.0
            },
            {
                "start_time": 37.41136363636363,
                "end_time": 37.486363636363635,
                "pitch": 39,
                "velocity": 127,
                "duration": 0.07500000000000284,
                "tempo": 120.0
            },
            {
                "start_time": 37.525,
                "end_time": 37.67272727272727,
                "pitch": 39,
                "velocity": 127,
                "duration": 0.14772727272727337,
                "tempo": 120.0
            },
            {
                "start_time": 37.74545454545454,
                "end_time": 37.88863636363636,
                "pitch": 39,
                "velocity": 127,
                "duration": 0.14318181818181586,
                "tempo": 120.0
            },
            {
                "start_time": 37.961363636363636,
                "end_time": 38.10681818181818,
                "pitch": 39,
                "velocity": 127,
                "duration": 0.14545454545454106,
                "tempo": 120.0
            },
            {
                "start_time": 38.18181818181818,
                "end_time": 38.33181818181818,
                "pitch": 39,
                "velocity": 127,
                "duration": 0.14999999999999858,
                "tempo": 120.0
            },
            {
                "start_time": 38.40909090909091,
                "end_time": 38.55681818181818,
                "pitch": 39,
                "velocity": 127,
                "duration": 0.14772727272727337,
                "tempo": 120.0
            },
            {
                "start_time": 38.62954545454545,
                "end_time": 38.699999999999996,
                "pitch": 39,
                "velocity": 127,
                "duration": 0.07045454545454533,
                "tempo": 120.0
            },
            {
                "start_time": 38.736363636363635,
                "end_time": 38.809090909090905,
                "pitch": 39,
                "velocity": 127,
                "duration": 0.07272727272727053,
                "tempo": 120.0
            },
            {
                "start_time": 38.845454545454544,
                "end_time": 38.91590909090909,
                "pitch": 39,
                "velocity": 127,
                "duration": 0.07045454545454533,
                "tempo": 120.0
            },
            {
                "start_time": 34.31363636363636,
                "end_time": 38.95227272727273,
                "pitch": 41,
                "velocity": 127,
                "duration": 4.6386363636363654,
                "tempo": 120.0
            },
            {
                "start_time": 38.95227272727273,
                "end_time": 39.029545454545456,
                "pitch": 32,
                "velocity": 127,
                "duration": 0.07727272727272805,
                "tempo": 120.0
            },
            {
                "start_time": 39.06818181818181,
                "end_time": 39.143181818181816,
                "pitch": 32,
                "velocity": 127,
                "duration": 0.07500000000000284,
                "tempo": 120.0
            },
            {
                "start_time": 39.29772727272727,
                "end_time": 39.449999999999996,
                "pitch": 30,
                "velocity": 127,
                "duration": 0.15227272727272378,
                "tempo": 120.0
            },
            {
                "start_time": 39.29772727272727,
                "end_time": 39.59318181818182,
                "pitch": 27,
                "velocity": 127,
                "duration": 0.29545454545454675,
                "tempo": 120.0
            },
            {
                "start_time": 39.52272727272727,
                "end_time": 39.59318181818182,
                "pitch": 27,
                "velocity": 127,
                "duration": 0.07045454545454533,
                "tempo": 120.0
            },
            {
                "start_time": 39.52272727272727,
                "end_time": 39.70227272727273,
                "pitch": 30,
                "velocity": 127,
                "duration": 0.17954545454545467,
                "tempo": 120.0
            },
            {
                "start_time": 39.62954545454545,
                "end_time": 39.70227272727273,
                "pitch": 30,
                "velocity": 127,
                "duration": 0.07272727272727764,
                "tempo": 120.0
            },
            {
                "start_time": 39.62954545454545,
                "end_time": 39.81136363636364,
                "pitch": 27,
                "velocity": 127,
                "duration": 0.18181818181818699,
                "tempo": 120.0
            },
            {
                "start_time": 39.73863636363636,
                "end_time": 39.81136363636364,
                "pitch": 27,
                "velocity": 127,
                "duration": 0.07272727272727764,
                "tempo": 120.0
            },
            {
                "start_time": 38.95227272727273,
                "end_time": 39.84772727272727,
                "pitch": 41,
                "velocity": 127,
                "duration": 0.8954545454545411,
                "tempo": 120.0
            },
            {
                "start_time": 39.84772727272727,
                "end_time": 39.92045454545455,
                "pitch": 32,
                "velocity": 127,
                "duration": 0.07272727272727764,
                "tempo": 120.0
            },
            {
                "start_time": 39.95681818181818,
                "end_time": 40.029545454545456,
                "pitch": 32,
                "velocity": 127,
                "duration": 0.07272727272727764,
                "tempo": 120.0
            },
            {
                "start_time": 39.73863636363636,
                "end_time": 40.324999999999996,
                "pitch": 30,
                "velocity": 127,
                "duration": 0.586363636363636,
                "tempo": 120.0
            },
            {
                "start_time": 40.17727272727272,
                "end_time": 40.324999999999996,
                "pitch": 30,
                "velocity": 127,
                "duration": 0.14772727272727337,
                "tempo": 120.0
            },
            {
                "start_time": 40.17727272727272,
                "end_time": 40.46818181818182,
                "pitch": 27,
                "velocity": 127,
                "duration": 0.29090909090909634,
                "tempo": 120.0
            },
            {
                "start_time": 40.39545454545454,
                "end_time": 40.46818181818182,
                "pitch": 27,
                "velocity": 127,
                "duration": 0.07272727272727764,
                "tempo": 120.0
            },
            {
                "start_time": 40.39545454545454,
                "end_time": 40.574999999999996,
                "pitch": 30,
                "velocity": 127,
                "duration": 0.17954545454545467,
                "tempo": 120.0
            },
            {
                "start_time": 40.50454545454545,
                "end_time": 40.574999999999996,
                "pitch": 30,
                "velocity": 127,
                "duration": 0.07045454545454533,
                "tempo": 120.0
            },
            {
                "start_time": 35.309090909090905,
                "end_time": 40.611363636363635,
                "pitch": 42,
                "velocity": 127,
                "duration": 5.3022727272727295,
                "tempo": 120.0
            },
            {
                "start_time": 40.611363636363635,
                "end_time": 40.684090909090905,
                "pitch": 31,
                "velocity": 127,
                "duration": 0.07272727272727053,
                "tempo": 120.0
            },
            {
                "start_time": 40.720454545454544,
                "end_time": 40.79545454545455,
                "pitch": 31,
                "velocity": 127,
                "duration": 0.07500000000000284,
                "tempo": 120.0
            },
            {
                "start_time": 40.834090909090904,
                "end_time": 40.90909090909091,
                "pitch": 31,
                "velocity": 127,
                "duration": 0.07500000000000284,
                "tempo": 120.0
            },
            {
                "start_time": 40.945454545454545,
                "end_time": 41.02045454545454,
                "pitch": 43,
                "velocity": 127,
                "duration": 0.07499999999999574,
                "tempo": 120.0
            },
            {
                "start_time": 41.059090909090905,
                "end_time": 41.209090909090904,
                "pitch": 31,
                "velocity": 127,
                "duration": 0.14999999999999858,
                "tempo": 120.0
            },
            {
                "start_time": 41.28181818181818,
                "end_time": 41.35681818181818,
                "pitch": 31,
                "velocity": 127,
                "duration": 0.07499999999999574,
                "tempo": 120.0
            },
            {
                "start_time": 41.393181818181816,
                "end_time": 41.465909090909086,
                "pitch": 43,
                "velocity": 127,
                "duration": 0.07272727272727053,
                "tempo": 120.0
            },
            {
                "start_time": 41.502272727272725,
                "end_time": 41.57727272727273,
                "pitch": 31,
                "velocity": 127,
                "duration": 0.07500000000000284,
                "tempo": 120.0
            },
            {
                "start_time": 19.94772727272727,
                "end_time": 41.61363636363636,
                "pitch": 0,
                "velocity": 127,
                "duration": 21.66590909090909,
                "tempo": 120.0
            },
            {
                "start_time": 41.61363636363636,
                "end_time": 41.68636363636364,
                "pitch": 29,
                "velocity": 127,
                "duration": 0.07272727272727764,
                "tempo": 120.0
            },
            {
                "start_time": 40.611363636363635,
                "end_time": 41.725,
                "pitch": 42,
                "velocity": 127,
                "duration": 1.1136363636363669,
                "tempo": 120.0
            },
            {
                "start_time": 41.725,
                "end_time": 41.87045454545454,
                "pitch": 34,
                "velocity": 127,
                "duration": 0.14545454545454106,
                "tempo": 120.0
            },
            {
                "start_time": 41.945454545454545,
                "end_time": 42.018181818181816,
                "pitch": 34,
                "velocity": 127,
                "duration": 0.07272727272727053,
                "tempo": 120.0
            },
            {
                "start_time": 31.554545454545455,
                "end_time": 42.054545454545455,
                "pitch": 2,
                "velocity": 127,
                "duration": 10.5,
                "tempo": 120.0
            },
            {
                "start_time": 42.054545454545455,
                "end_time": 42.12954545454545,
                "pitch": 28,
                "velocity": 127,
                "duration": 0.07499999999999574,
                "tempo": 120.0
            },
            {
                "start_time": 42.16590909090909,
                "end_time": 42.23863636363636,
                "pitch": 28,
                "velocity": 127,
                "duration": 0.07272727272727053,
                "tempo": 120.0
            },
            {
                "start_time": 41.725,
                "end_time": 42.277272727272724,
                "pitch": 42,
                "velocity": 127,
                "duration": 0.5522727272727224,
                "tempo": 120.0
            },
            {
                "start_time": 42.277272727272724,
                "end_time": 42.35,
                "pitch": 31,
                "velocity": 127,
                "duration": 0.07272727272727764,
                "tempo": 120.0
            },
            {
                "start_time": 42.38636363636363,
                "end_time": 42.459090909090904,
                "pitch": 34,
                "velocity": 127,
                "duration": 0.07272727272727053,
                "tempo": 120.0
            },
            {
                "start_time": 42.49772727272727,
                "end_time": 42.570454545454545,
                "pitch": 36,
                "velocity": 127,
                "duration": 0.07272727272727764,
                "tempo": 120.0
            },
            {
                "start_time": 42.60681818181818,
                "end_time": 42.68181818181818,
                "pitch": 36,
                "velocity": 127,
                "duration": 0.07500000000000284,
                "tempo": 120.0
            },
            {
                "start_time": 28.01590909090909,
                "end_time": 42.71818181818182,
                "pitch": 40,
                "velocity": 127,
                "duration": 14.702272727272728,
                "tempo": 120.0
            },
            {
                "start_time": 42.38636363636363,
                "end_time": 42.79090909090909,
                "pitch": 31,
                "velocity": 127,
                "duration": 0.4045454545454561,
                "tempo": 120.0
            },
            {
                "start_time": 42.71818181818182,
                "end_time": 42.79090909090909,
                "pitch": 31,
                "velocity": 127,
                "duration": 0.07272727272727053,
                "tempo": 120.0
            },
            {
                "start_time": 41.61363636363636,
                "end_time": 42.82954545454545,
                "pitch": 0,
                "velocity": 127,
                "duration": 1.2159090909090935,
                "tempo": 120.0
            },
            {
                "start_time": 42.82954545454545,
                "end_time": 42.975,
                "pitch": 36,
                "velocity": 127,
                "duration": 0.14545454545454817,
                "tempo": 120.0
            },
            {
                "start_time": 43.05,
                "end_time": 43.12272727272727,
                "pitch": 36,
                "velocity": 127,
                "duration": 0.07272727272727053,
                "tempo": 120.0
            },
            {
                "start_time": 42.71818181818182,
                "end_time": 43.15909090909091,
                "pitch": 40,
                "velocity": 127,
                "duration": 0.4409090909090878,
                "tempo": 120.0
            },
            {
                "start_time": 43.15909090909091,
                "end_time": 43.23409090909091,
                "pitch": 31,
                "velocity": 127,
                "duration": 0.07500000000000284,
                "tempo": 120.0
            },
            {
                "start_time": 42.82954545454545,
                "end_time": 43.27045454545454,
                "pitch": 0,
                "velocity": 127,
                "duration": 0.4409090909090878,
                "tempo": 120.0
            },
            {
                "start_time": 40.50454545454545,
                "end_time": 43.34318181818182,
                "pitch": 27,
                "velocity": 127,
                "duration": 2.8386363636363683,
                "tempo": 120.0
            },
            {
                "start_time": 43.27045454545454,
                "end_time": 43.34318181818182,
                "pitch": 27,
                "velocity": 127,
                "duration": 0.07272727272727764,
                "tempo": 120.0
            },
            {
                "start_time": 43.38181818181818,
                "end_time": 43.45454545454545,
                "pitch": 36,
                "velocity": 127,
                "duration": 0.07272727272727053,
                "tempo": 120.0
            },
            {
                "start_time": 43.49090909090909,
                "end_time": 43.56363636363636,
                "pitch": 36,
                "velocity": 127,
                "duration": 0.07272727272727053,
                "tempo": 120.0
            },
            {
                "start_time": 43.15909090909091,
                "end_time": 43.60227272727273,
                "pitch": 40,
                "velocity": 127,
                "duration": 0.4431818181818201,
                "tempo": 120.0
            },
            {
                "start_time": 43.60227272727273,
                "end_time": 43.675,
                "pitch": 31,
                "velocity": 127,
                "duration": 0.07272727272727053,
                "tempo": 120.0
            },
            {
                "start_time": 43.27045454545454,
                "end_time": 43.711363636363636,
                "pitch": 0,
                "velocity": 127,
                "duration": 0.4409090909090949,
                "tempo": 120.0
            },
            {
                "start_time": 43.711363636363636,
                "end_time": 43.85909090909091,
                "pitch": 36,
                "velocity": 127,
                "duration": 0.14772727272727337,
                "tempo": 120.0
            },
            {
                "start_time": 43.93181818181818,
                "end_time": 44.00681818181818,
                "pitch": 36,
                "velocity": 127,
                "duration": 0.07500000000000284,
                "tempo": 120.0
            },
            {
                "start_time": 43.60227272727273,
                "end_time": 44.043181818181814,
                "pitch": 40,
                "velocity": 127,
                "duration": 0.4409090909090878,
                "tempo": 120.0
            },
            {
                "start_time": 44.043181818181814,
                "end_time": 44.11590909090909,
                "pitch": 31,
                "velocity": 127,
                "duration": 0.07272727272727764,
                "tempo": 120.0
            },
            {
                "start_time": 44.15454545454545,
                "end_time": 44.22727272727273,
                "pitch": 34,
                "velocity": 127,
                "duration": 0.07272727272727764,
                "tempo": 120.0
            },
            {
                "start_time": 42.49772727272727,
                "end_time": 44.26363636363636,
                "pitch": 14,
                "velocity": 127,
                "duration": 1.7659090909090907,
                "tempo": 120.0
            },
            {
                "start_time": 44.26363636363636,
                "end_time": 44.33863636363636,
                "pitch": 36,
                "velocity": 127,
                "duration": 0.07500000000000284,
                "tempo": 120.0
            },
            {
                "start_time": 44.377272727272725,
                "end_time": 44.45227272727273,
                "pitch": 36,
                "velocity": 127,
                "duration": 0.07500000000000284,
                "tempo": 120.0
            },
            {
                "start_time": 44.043181818181814,
                "end_time": 44.49090909090909,
                "pitch": 40,
                "velocity": 127,
                "duration": 0.44772727272727764,
                "tempo": 120.0
            },
            {
                "start_time": 44.15454545454545,
                "end_time": 44.56590909090909,
                "pitch": 31,
                "velocity": 127,
                "duration": 0.4113636363636388,
                "tempo": 120.0
            },
            {
                "start_time": 44.49090909090909,
                "end_time": 44.56590909090909,
                "pitch": 31,
                "velocity": 127,
                "duration": 0.07499999999999574,
                "tempo": 120.0
            },
            {
                "start_time": 43.711363636363636,
                "end_time": 44.60227272727273,
                "pitch": 0,
                "velocity": 127,
                "duration": 0.8909090909090907,
                "tempo": 120.0
            },
            {
                "start_time": 44.60227272727273,
                "end_time": 44.752272727272725,
                "pitch": 36,
                "velocity": 127,
                "duration": 0.14999999999999858,
                "tempo": 120.0
            },
            {
                "start_time": 44.82272727272727,
                "end_time": 44.89545454545454,
                "pitch": 36,
                "velocity": 127,
                "duration": 0.07272727272727053,
                "tempo": 120.0
            },
            {
                "start_time": 44.49090909090909,
                "end_time": 44.93181818181818,
                "pitch": 40,
                "velocity": 127,
                "duration": 0.4409090909090878,
                "tempo": 120.0
            },
            {
                "start_time": 44.93181818181818,
                "end_time": 45.00454545454545,
                "pitch": 31,
                "velocity": 127,
                "duration": 0.07272727272727053,
                "tempo": 120.0
            },
            {
                "start_time": 44.60227272727273,
                "end_time": 45.04090909090909,
                "pitch": 0,
                "velocity": 127,
                "duration": 0.4386363636363626,
                "tempo": 120.0
            },
            {
                "start_time": 45.038636363636364,
                "end_time": 45.04090909090909,
                "pitch": 0,
                "velocity": 127,
                "duration": 0.0022727272727252057,
                "tempo": 120.0
            },
            {
                "start_time": 45.04090909090909,
                "end_time": 45.111363636363635,
                "pitch": 27,
                "velocity": 127,
                "duration": 0.07045454545454533,
                "tempo": 120.0
            },
            {
                "start_time": 43.38181818181818,
                "end_time": 45.14772727272727,
                "pitch": 39,
                "velocity": 127,
                "duration": 1.7659090909090907,
                "tempo": 120.0
            },
            {
                "start_time": 45.14772727272727,
                "end_time": 45.22272727272727,
                "pitch": 36,
                "velocity": 127,
                "duration": 0.07499999999999574,
                "tempo": 120.0
            },
            {
                "start_time": 45.26136363636363,
                "end_time": 45.336363636363636,
                "pitch": 36,
                "velocity": 127,
                "duration": 0.07500000000000284,
                "tempo": 120.0
            },
            {
                "start_time": 44.93181818181818,
                "end_time": 45.37272727272727,
                "pitch": 40,
                "velocity": 127,
                "duration": 0.4409090909090878,
                "tempo": 120.0
            },
            {
                "start_time": 45.37272727272727,
                "end_time": 45.44772727272727,
                "pitch": 31,
                "velocity": 127,
                "duration": 0.07500000000000284,
                "tempo": 120.0
            },
            {
                "start_time": 45.486363636363635,
                "end_time": 45.63409090909091,
                "pitch": 36,
                "velocity": 127,
                "duration": 0.14772727272727337,
                "tempo": 120.0
            },
            {
                "start_time": 45.70681818181818,
                "end_time": 45.77954545454545,
                "pitch": 36,
                "velocity": 127,
                "duration": 0.07272727272727053,
                "tempo": 120.0
            },
            {
                "start_time": 45.37272727272727,
                "end_time": 45.81590909090909,
                "pitch": 40,
                "velocity": 127,
                "duration": 0.4431818181818201,
                "tempo": 120.0
            },
            {
                "start_time": 45.81590909090909,
                "end_time": 45.88636363636363,
                "pitch": 31,
                "velocity": 127,
                "duration": 0.07045454545454533,
                "tempo": 120.0
            },
            {
                "start_time": 45.92272727272727,
                "end_time": 45.99545454545454,
                "pitch": 34,
                "velocity": 127,
                "duration": 0.07272727272727053,
                "tempo": 120.0
            },
            {
                "start_time": 44.26363636363636,
                "end_time": 46.03181818181818,
                "pitch": 14,
                "velocity": 127,
                "duration": 1.768181818181823,
                "tempo": 120.0
            },
            {
                "start_time": 46.03181818181818,
                "end_time": 46.10681818181818,
                "pitch": 37,
                "velocity": 127,
                "duration": 0.07499999999999574,
                "tempo": 120.0
            },
            {
                "start_time": 46.143181818181816,
                "end_time": 46.21818181818182,
                "pitch": 37,
                "velocity": 127,
                "duration": 0.07500000000000284,
                "tempo": 120.0
            },
            {
                "start_time": 45.81590909090909,
                "end_time": 46.25681818181818,
                "pitch": 40,
                "velocity": 127,
                "duration": 0.4409090909090949,
                "tempo": 120.0
            },
            {
                "start_time": 46.25681818181818,
                "end_time": 46.33181818181818,
                "pitch": 32,
                "velocity": 127,
                "duration": 0.07499999999999574,
                "tempo": 120.0
            },
            {
                "start_time": 46.590909090909086,
                "end_time": 46.66136363636363,
                "pitch": 37,
                "velocity": 127,
                "duration": 0.07045454545454533,
                "tempo": 120.0
            },
            {
                "start_time": 46.25681818181818,
                "end_time": 46.69772727272727,
                "pitch": 40,
                "velocity": 127,
                "duration": 0.4409090909090878,
                "tempo": 120.0
            },
            {
                "start_time": 46.69772727272727,
                "end_time": 46.77045454545454,
                "pitch": 32,
                "velocity": 127,
                "duration": 0.07272727272727053,
                "tempo": 120.0
            },
            {
                "start_time": 39.84772727272727,
                "end_time": 46.91590909090909,
                "pitch": 41,
                "velocity": 127,
                "duration": 7.06818181818182,
                "tempo": 120.0
            },
            {
                "start_time": 46.91590909090909,
                "end_time": 46.98863636363636,
                "pitch": 37,
                "velocity": 127,
                "duration": 0.07272727272727053,
                "tempo": 120.0
            },
            {
                "start_time": 47.027272727272724,
                "end_time": 47.10227272727273,
                "pitch": 37,
                "velocity": 127,
                "duration": 0.07500000000000284,
                "tempo": 120.0
            },
            {
                "start_time": 46.69772727272727,
                "end_time": 47.14090909090909,
                "pitch": 40,
                "velocity": 127,
                "duration": 0.4431818181818201,
                "tempo": 120.0
            },
            {
                "start_time": 47.14090909090909,
                "end_time": 47.215909090909086,
                "pitch": 32,
                "velocity": 127,
                "duration": 0.07499999999999574,
                "tempo": 120.0
            },
            {
                "start_time": 47.47727272727273,
                "end_time": 47.55,
                "pitch": 37,
                "velocity": 127,
                "duration": 0.07272727272727053,
                "tempo": 120.0
            },
            {
                "start_time": 31.66363636363636,
                "end_time": 47.586363636363636,
                "pitch": 25,
                "velocity": 127,
                "duration": 15.922727272727276,
                "tempo": 120.0
            },
            {
                "start_time": 47.586363636363636,
                "end_time": 47.66136363636363,
                "pitch": 29,
                "velocity": 127,
                "duration": 0.07499999999999574,
                "tempo": 120.0
            },
            {
                "start_time": 42.277272727272724,
                "end_time": 47.69772727272727,
                "pitch": 42,
                "velocity": 127,
                "duration": 5.420454545454547,
                "tempo": 120.0
            },
            {
                "start_time": 47.69772727272727,
                "end_time": 47.77045454545454,
                "pitch": 35,
                "velocity": 127,
                "duration": 0.07272727272727053,
                "tempo": 120.0
            },
            {
                "start_time": 35.418181818181814,
                "end_time": 47.809090909090905,
                "pitch": 19,
                "velocity": 127,
                "duration": 12.39090909090909,
                "tempo": 120.0
            },
            {
                "start_time": 47.809090909090905,
                "end_time": 47.88181818181818,
                "pitch": 37,
                "velocity": 127,
                "duration": 0.07272727272727764,
                "tempo": 120.0
            },
            {
                "start_time": 47.918181818181814,
                "end_time": 47.99090909090909,
                "pitch": 37,
                "velocity": 127,
                "duration": 0.07272727272727764,
                "tempo": 120.0
            },
            {
                "start_time": 47.14090909090909,
                "end_time": 48.02954545454545,
                "pitch": 40,
                "velocity": 127,
                "duration": 0.8886363636363583,
                "tempo": 120.0
            },
            {
                "start_time": 48.02954545454545,
                "end_time": 48.10227272727273,
                "pitch": 32,
                "velocity": 127,
                "duration": 0.07272727272727764,
                "tempo": 120.0
            },
            {
                "start_time": 48.35681818181818,
                "end_time": 48.429545454545455,
                "pitch": 37,
                "velocity": 127,
                "duration": 0.07272727272727764,
                "tempo": 120.0
            },
            {
                "start_time": 48.02954545454545,
                "end_time": 48.465909090909086,
                "pitch": 40,
                "velocity": 127,
                "duration": 0.4363636363636374,
                "tempo": 120.0
            },
            {
                "start_time": 48.465909090909086,
                "end_time": 48.538636363636364,
                "pitch": 32,
                "velocity": 127,
                "duration": 0.07272727272727764,
                "tempo": 120.0
            },
            {
                "start_time": 46.91590909090909,
                "end_time": 48.68181818181818,
                "pitch": 41,
                "velocity": 127,
                "duration": 1.7659090909090907,
                "tempo": 120.0
            },
            {
                "start_time": 48.68181818181818,
                "end_time": 48.75681818181818,
                "pitch": 37,
                "velocity": 127,
                "duration": 0.07500000000000284,
                "tempo": 120.0
            },
            {
                "start_time": 48.79545454545454,
                "end_time": 48.87045454545454,
                "pitch": 37,
                "velocity": 127,
                "duration": 0.07500000000000284,
                "tempo": 120.0
            },
            {
                "start_time": 48.465909090909086,
                "end_time": 48.90681818181818,
                "pitch": 40,
                "velocity": 127,
                "duration": 0.4409090909090949,
                "tempo": 120.0
            },
            {
                "start_time": 48.90681818181818,
                "end_time": 48.98181818181818,
                "pitch": 32,
                "velocity": 127,
                "duration": 0.07499999999999574,
                "tempo": 120.0
            },
            {
                "start_time": 49.24318181818182,
                "end_time": 49.31818181818181,
                "pitch": 37,
                "velocity": 127,
                "duration": 0.07499999999999574,
                "tempo": 120.0
            },
            {
                "start_time": 47.586363636363636,
                "end_time": 49.35454545454545,
                "pitch": 25,
                "velocity": 127,
                "duration": 1.7681818181818159,
                "tempo": 120.0
            },
            {
                "start_time": 49.35454545454545,
                "end_time": 49.42727272727272,
                "pitch": 29,
                "velocity": 127,
                "duration": 0.07272727272727053,
                "tempo": 120.0
            },
            {
                "start_time": 47.69772727272727,
                "end_time": 49.46363636363636,
                "pitch": 42,
                "velocity": 127,
                "duration": 1.7659090909090907,
                "tempo": 120.0
            },
            {
                "start_time": 49.46363636363636,
                "end_time": 49.538636363636364,
                "pitch": 35,
                "velocity": 127,
                "duration": 0.07500000000000284,
                "tempo": 120.0
            },
            {
                "start_time": 47.809090909090905,
                "end_time": 49.574999999999996,
                "pitch": 19,
                "velocity": 127,
                "duration": 1.7659090909090907,
                "tempo": 120.0
            },
            {
                "start_time": 49.574999999999996,
                "end_time": 49.64772727272727,
                "pitch": 36,
                "velocity": 127,
                "duration": 0.07272727272727764,
                "tempo": 120.0
            },
            {
                "start_time": 49.68636363636364,
                "end_time": 49.75909090909091,
                "pitch": 36,
                "velocity": 127,
                "duration": 0.07272727272727053,
                "tempo": 120.0
            },
            {
                "start_time": 48.90681818181818,
                "end_time": 49.79545454545454,
                "pitch": 40,
                "velocity": 127,
                "duration": 0.8886363636363583,
                "tempo": 120.0
            },
            {
                "start_time": 45.92272727272727,
                "end_time": 49.87045454545454,
                "pitch": 31,
                "velocity": 127,
                "duration": 3.9477272727272705,
                "tempo": 120.0
            },
            {
                "start_time": 49.79545454545454,
                "end_time": 49.87045454545454,
                "pitch": 31,
                "velocity": 127,
                "duration": 0.07500000000000284,
                "tempo": 120.0
            },
            {
                "start_time": 45.486363636363635,
                "end_time": 49.90681818181818,
                "pitch": 0,
                "velocity": 127,
                "duration": 4.420454545454547,
                "tempo": 120.0
            },
            {
                "start_time": 49.90681818181818,
                "end_time": 50.05227272727272,
                "pitch": 36,
                "velocity": 127,
                "duration": 0.14545454545454106,
                "tempo": 120.0
            },
            {
                "start_time": 50.125,
                "end_time": 50.19772727272727,
                "pitch": 36,
                "velocity": 127,
                "duration": 0.07272727272727053,
                "tempo": 120.0
            },
            {
                "start_time": 49.79545454545454,
                "end_time": 50.23409090909091,
                "pitch": 40,
                "velocity": 127,
                "duration": 0.4386363636363697,
                "tempo": 120.0
            },
            {
                "start_time": 50.23181818181818,
                "end_time": 50.23409090909091,
                "pitch": 40,
                "velocity": 127,
                "duration": 0.002272727272732311,
                "tempo": 120.0
            },
            {
                "start_time": 50.23409090909091,
                "end_time": 50.304545454545455,
                "pitch": 31,
                "velocity": 127,
                "duration": 0.07045454545454533,
                "tempo": 120.0
            },
            {
                "start_time": 49.90681818181818,
                "end_time": 50.340909090909086,
                "pitch": 0,
                "velocity": 127,
                "duration": 0.4340909090909051,
                "tempo": 120.0
            },
            {
                "start_time": 50.340909090909086,
                "end_time": 50.413636363636364,
                "pitch": 27,
                "velocity": 127,
                "duration": 0.07272727272727764,
                "tempo": 120.0
            },
            {
                "start_time": 45.14772727272727,
                "end_time": 50.449999999999996,
                "pitch": 39,
                "velocity": 127,
                "duration": 5.302272727272722,
                "tempo": 120.0
            },
            {
                "start_time": 50.449999999999996,
                "end_time": 50.52272727272727,
                "pitch": 36,
                "velocity": 127,
                "duration": 0.07272727272727764,
                "tempo": 120.0
            },
            {
                "start_time": 50.56136363636364,
                "end_time": 50.63636363636363,
                "pitch": 36,
                "velocity": 127,
                "duration": 0.07499999999999574,
                "tempo": 120.0
            },
            {
                "start_time": 50.675,
                "end_time": 50.75,
                "pitch": 31,
                "velocity": 127,
                "duration": 0.07500000000000284,
                "tempo": 120.0
            },
            {
                "start_time": 50.340909090909086,
                "end_time": 50.788636363636364,
                "pitch": 0,
                "velocity": 127,
                "duration": 0.44772727272727764,
                "tempo": 120.0
            },
            {
                "start_time": 50.788636363636364,
                "end_time": 50.93636363636364,
                "pitch": 36,
                "velocity": 127,
                "duration": 0.14772727272727337,
                "tempo": 120.0
            },
            {
                "start_time": 51.00909090909091,
                "end_time": 51.07954545454545,
                "pitch": 36,
                "velocity": 127,
                "duration": 0.07045454545454533,
                "tempo": 120.0
            },
            {
                "start_time": 50.675,
                "end_time": 51.115909090909085,
                "pitch": 40,
                "velocity": 127,
                "duration": 0.4409090909090878,
                "tempo": 120.0
            },
            {
                "start_time": 51.115909090909085,
                "end_time": 51.18863636363636,
                "pitch": 31,
                "velocity": 127,
                "duration": 0.07272727272727764,
                "tempo": 120.0
            },
            {
                "start_time": 51.224999999999994,
                "end_time": 51.29545454545454,
                "pitch": 34,
                "velocity": 127,
                "duration": 0.07045454545454533,
                "tempo": 120.0
            },
            {
                "start_time": 51.33181818181818,
                "end_time": 51.40681818181818,
                "pitch": 34,
                "velocity": 127,
                "duration": 0.07500000000000284,
                "tempo": 120.0
            },
            {
                "start_time": 35.19772727272727,
                "end_time": 51.63409090909091,
                "pitch": 26,
                "velocity": 127,
                "duration": 16.436363636363637,
                "tempo": 120.0
            },
            {
                "start_time": 51.559090909090905,
                "end_time": 51.63409090909091,
                "pitch": 26,
                "velocity": 127,
                "duration": 0.07500000000000284,
                "tempo": 120.0
            },
            {
                "start_time": 48.68181818181818,
                "end_time": 51.67045454545454,
                "pitch": 41,
                "velocity": 127,
                "duration": 2.9886363636363598,
                "tempo": 120.0
            },
            {
                "start_time": 51.67045454545454,
                "end_time": 51.820454545454545,
                "pitch": 33,
                "velocity": 127,
                "duration": 0.15000000000000568,
                "tempo": 120.0
            },
            {
                "start_time": 51.89545454545454,
                "end_time": 51.96818181818182,
                "pitch": 33,
                "velocity": 127,
                "duration": 0.07272727272727764,
                "tempo": 120.0
            },
            {
                "start_time": 51.559090909090905,
                "end_time": 52.115909090909085,
                "pitch": 30,
                "velocity": 127,
                "duration": 0.5568181818181799,
                "tempo": 120.0
            },
            {
                "start_time": 52.115909090909085,
                "end_time": 52.18863636363636,
                "pitch": 26,
                "velocity": 127,
                "duration": 0.07272727272727764,
                "tempo": 120.0
            },
            {
                "start_time": 51.67045454545454,
                "end_time": 52.224999999999994,
                "pitch": 41,
                "velocity": 127,
                "duration": 0.5545454545454547,
                "tempo": 120.0
            },
            {
                "start_time": 52.224999999999994,
                "end_time": 52.3,
                "pitch": 33,
                "velocity": 127,
                "duration": 0.07500000000000284,
                "tempo": 120.0
            },
            {
                "start_time": 52.115909090909085,
                "end_time": 52.44772727272727,
                "pitch": 30,
                "velocity": 127,
                "duration": 0.33181818181818556,
                "tempo": 120.0
            },
            {
                "start_time": 52.44772727272727,
                "end_time": 52.52045454545454,
                "pitch": 26,
                "velocity": 127,
                "duration": 0.07272727272727053,
                "tempo": 120.0
            },
            {
                "start_time": 52.224999999999994,
                "end_time": 52.55681818181818,
                "pitch": 41,
                "velocity": 127,
                "duration": 0.33181818181818556,
                "tempo": 120.0
            },
            {
                "start_time": 52.55681818181818,
                "end_time": 52.70454545454545,
                "pitch": 33,
                "velocity": 127,
                "duration": 0.14772727272727337,
                "tempo": 120.0
            },
            {
                "start_time": 52.55681818181818,
                "end_time": 52.88863636363636,
                "pitch": 41,
                "velocity": 127,
                "duration": 0.33181818181817846,
                "tempo": 120.0
            },
            {
                "start_time": 51.224999999999994,
                "end_time": 52.961363636363636,
                "pitch": 31,
                "velocity": 127,
                "duration": 1.7363636363636417,
                "tempo": 120.0
            },
            {
                "start_time": 52.88863636363636,
                "end_time": 52.961363636363636,
                "pitch": 31,
                "velocity": 127,
                "duration": 0.07272727272727764,
                "tempo": 120.0
            },
            {
                "start_time": 52.99772727272727,
                "end_time": 53.0,
                "pitch": 31,
                "velocity": 127,
                "duration": 0.002272727272732311,
                "tempo": 120.0
            },
            {
                "start_time": 53.0,
                "end_time": 53.07272727272727,
                "pitch": 34,
                "velocity": 127,
                "duration": 0.07272727272727053,
                "tempo": 120.0
            },
            {
                "start_time": 53.10909090909091,
                "end_time": 53.18181818181818,
                "pitch": 34,
                "velocity": 127,
                "duration": 0.07272727272727053,
                "tempo": 120.0
            },
            {
                "start_time": 53.220454545454544,
                "end_time": 53.293181818181814,
                "pitch": 32,
                "velocity": 127,
                "duration": 0.07272727272727053,
                "tempo": 120.0
            },
            {
                "start_time": 49.46363636363636,
                "end_time": 53.44090909090909,
                "pitch": 42,
                "velocity": 127,
                "duration": 3.9772727272727266,
                "tempo": 120.0
            },
            {
                "start_time": 53.220454545454544,
                "end_time": 53.58863636363636,
                "pitch": 35,
                "velocity": 127,
                "duration": 0.3681818181818173,
                "tempo": 120.0
            },
            {
                "start_time": 53.44090909090909,
                "end_time": 53.58863636363636,
                "pitch": 35,
                "velocity": 127,
                "duration": 0.14772727272727337,
                "tempo": 120.0
            },
            {
                "start_time": 53.66136363636363,
                "end_time": 53.73409090909091,
                "pitch": 35,
                "velocity": 127,
                "duration": 0.07272727272727764,
                "tempo": 120.0
            },
            {
                "start_time": 53.77272727272727,
                "end_time": 53.845454545454544,
                "pitch": 32,
                "velocity": 127,
                "duration": 0.07272727272727053,
                "tempo": 120.0
            },
            {
                "start_time": 53.44090909090909,
                "end_time": 53.99318181818182,
                "pitch": 42,
                "velocity": 127,
                "duration": 0.5522727272727295,
                "tempo": 120.0
            },
            {
                "start_time": 53.77272727272727,
                "end_time": 54.06590909090909,
                "pitch": 35,
                "velocity": 127,
                "duration": 0.29318181818181444,
                "tempo": 120.0
            },
            {
                "start_time": 53.99318181818182,
                "end_time": 54.06590909090909,
                "pitch": 35,
                "velocity": 127,
                "duration": 0.07272727272727053,
                "tempo": 120.0
            },
            {
                "start_time": 54.10227272727273,
                "end_time": 54.17727272727272,
                "pitch": 32,
                "velocity": 127,
                "duration": 0.07499999999999574,
                "tempo": 120.0
            },
            {
                "start_time": 53.99318181818182,
                "end_time": 54.324999999999996,
                "pitch": 42,
                "velocity": 127,
                "duration": 0.33181818181817846,
                "tempo": 120.0
            },
            {
                "start_time": 54.10227272727273,
                "end_time": 54.470454545454544,
                "pitch": 35,
                "velocity": 127,
                "duration": 0.3681818181818173,
                "tempo": 120.0
            },
            {
                "start_time": 54.324999999999996,
                "end_time": 54.470454545454544,
                "pitch": 35,
                "velocity": 127,
                "duration": 0.14545454545454817,
                "tempo": 120.0
            },
            {
                "start_time": 54.54545454545454,
                "end_time": 54.61818181818182,
                "pitch": 35,
                "velocity": 127,
                "duration": 0.07272727272727764,
                "tempo": 120.0
            },
            {
                "start_time": 54.65454545454545,
                "end_time": 54.72954545454545,
                "pitch": 32,
                "velocity": 127,
                "duration": 0.07500000000000284,
                "tempo": 120.0
            },
            {
                "start_time": 54.324999999999996,
                "end_time": 54.877272727272725,
                "pitch": 42,
                "velocity": 127,
                "duration": 0.5522727272727295,
                "tempo": 120.0
            },
            {
                "start_time": 54.65454545454545,
                "end_time": 54.949999999999996,
                "pitch": 35,
                "velocity": 127,
                "duration": 0.29545454545454675,
                "tempo": 120.0
            },
            {
                "start_time": 54.877272727272725,
                "end_time": 54.949999999999996,
                "pitch": 35,
                "velocity": 127,
                "duration": 0.07272727272727053,
                "tempo": 120.0
            },
            {
                "start_time": 54.98863636363636,
                "end_time": 55.06363636363636,
                "pitch": 32,
                "velocity": 127,
                "duration": 0.07500000000000284,
                "tempo": 120.0
            },
            {
                "start_time": 54.877272727272725,
                "end_time": 55.215909090909086,
                "pitch": 42,
                "velocity": 127,
                "duration": 0.3386363636363612,
                "tempo": 120.0
            },
            {
                "start_time": 54.98863636363636,
                "end_time": 55.36363636363636,
                "pitch": 35,
                "velocity": 127,
                "duration": 0.375,
                "tempo": 120.0
            },
            {
                "start_time": 55.215909090909086,
                "end_time": 55.36363636363636,
                "pitch": 35,
                "velocity": 127,
                "duration": 0.14772727272727337,
                "tempo": 120.0
            },
            {
                "start_time": 55.43636363636363,
                "end_time": 55.506818181818176,
                "pitch": 35,
                "velocity": 127,
                "duration": 0.07045454545454533,
                "tempo": 120.0
            },
            {
                "start_time": 55.543181818181814,
                "end_time": 55.615909090909085,
                "pitch": 32,
                "velocity": 127,
                "duration": 0.07272727272727053,
                "tempo": 120.0
            },
            {
                "start_time": 55.215909090909086,
                "end_time": 55.75909090909091,
                "pitch": 42,
                "velocity": 127,
                "duration": 0.5431818181818215,
                "tempo": 120.0
            },
            {
                "start_time": 55.543181818181814,
                "end_time": 55.834090909090904,
                "pitch": 35,
                "velocity": 127,
                "duration": 0.29090909090908923,
                "tempo": 120.0
            },
            {
                "start_time": 55.75909090909091,
                "end_time": 55.834090909090904,
                "pitch": 35,
                "velocity": 127,
                "duration": 0.07499999999999574,
                "tempo": 120.0
            },
            {
                "start_time": 55.87045454545454,
                "end_time": 55.94318181818181,
                "pitch": 32,
                "velocity": 127,
                "duration": 0.07272727272727053,
                "tempo": 120.0
            },
            {
                "start_time": 55.75909090909091,
                "end_time": 56.090909090909086,
                "pitch": 42,
                "velocity": 127,
                "duration": 0.33181818181817846,
                "tempo": 120.0
            },
            {
                "start_time": 55.87045454545454,
                "end_time": 56.23863636363636,
                "pitch": 35,
                "velocity": 127,
                "duration": 0.3681818181818173,
                "tempo": 120.0
            },
            {
                "start_time": 56.090909090909086,
                "end_time": 56.23863636363636,
                "pitch": 35,
                "velocity": 127,
                "duration": 0.14772727272727337,
                "tempo": 120.0
            },
            {
                "start_time": 56.31363636363636,
                "end_time": 56.38863636363636,
                "pitch": 35,
                "velocity": 127,
                "duration": 0.07499999999999574,
                "tempo": 120.0
            },
            {
                "start_time": 56.42727272727272,
                "end_time": 56.502272727272725,
                "pitch": 32,
                "velocity": 127,
                "duration": 0.07500000000000284,
                "tempo": 120.0
            },
            {
                "start_time": 17.297727272727272,
                "end_time": 56.65909090909091,
                "pitch": 24,
                "velocity": 127,
                "duration": 39.361363636363635,
                "tempo": 120.0
            },
            {
                "start_time": 56.65454545454545,
                "end_time": 56.65909090909091,
                "pitch": 24,
                "velocity": 127,
                "duration": 0.004545454545457517,
                "tempo": 120.0
            }
        ],
        "Harpsichord": [
            {
                "start_time": 19.95,
                "end_time": 20.022727272727273,
                "pitch": 60,
                "velocity": 80,
                "duration": 0.07272727272727408,
                "tempo": 120.0
            },
            {
                "start_time": 20.061363636363634,
                "end_time": 20.204545454545453,
                "pitch": 60,
                "velocity": 80,
                "duration": 0.1431818181818194,
                "tempo": 120.0
            },
            {
                "start_time": 20.28181818181818,
                "end_time": 20.352272727272727,
                "pitch": 60,
                "velocity": 80,
                "duration": 0.07045454545454533,
                "tempo": 120.0
            },
            {
                "start_time": 20.502272727272725,
                "end_time": 20.57272727272727,
                "pitch": 60,
                "velocity": 80,
                "duration": 0.07045454545454533,
                "tempo": 120.0
            },
            {
                "start_time": 20.611363636363635,
                "end_time": 20.68409090909091,
                "pitch": 60,
                "velocity": 80,
                "duration": 0.07272727272727408,
                "tempo": 120.0
            },
            {
                "start_time": 20.722727272727273,
                "end_time": 20.795454545454543,
                "pitch": 60,
                "velocity": 80,
                "duration": 0.07272727272727053,
                "tempo": 120.0
            },
            {
                "start_time": 20.943181818181817,
                "end_time": 21.01590909090909,
                "pitch": 60,
                "velocity": 80,
                "duration": 0.07272727272727408,
                "tempo": 120.0
            },
            {
                "start_time": 21.163636363636364,
                "end_time": 21.236363636363635,
                "pitch": 60,
                "velocity": 80,
                "duration": 0.07272727272727053,
                "tempo": 120.0
            }
        ],
        "Lead 2 (sawtooth)": [
            {
                "start_time": 0.04318181818181818,
                "end_time": 3.2886363636363636,
                "pitch": 63,
                "velocity": 64,
                "duration": 3.2454545454545456,
                "tempo": 120.0
            },
            {
                "start_time": 3.586363636363636,
                "end_time": 6.822727272727272,
                "pitch": 63,
                "velocity": 64,
                "duration": 3.2363636363636363,
                "tempo": 120.0
            },
            {
                "start_time": 7.120454545454545,
                "end_time": 10.477272727272727,
                "pitch": 68,
                "velocity": 64,
                "duration": 3.3568181818181815,
                "tempo": 120.0
            },
            {
                "start_time": 10.552272727272726,
                "end_time": 10.643181818181818,
                "pitch": 68,
                "velocity": 64,
                "duration": 0.09090909090909172,
                "tempo": 120.0
            },
            {
                "start_time": 10.663636363636362,
                "end_time": 13.899999999999999,
                "pitch": 67,
                "velocity": 64,
                "duration": 3.2363636363636363,
                "tempo": 120.0
            },
            {
                "start_time": 14.306818181818182,
                "end_time": 14.379545454545454,
                "pitch": 68,
                "velocity": 64,
                "duration": 0.07272727272727231,
                "tempo": 120.0
            },
            {
                "start_time": 14.638636363636364,
                "end_time": 14.711363636363636,
                "pitch": 67,
                "velocity": 64,
                "duration": 0.07272727272727231,
                "tempo": 120.0
            },
            {
                "start_time": 14.970454545454544,
                "end_time": 15.040909090909091,
                "pitch": 67,
                "velocity": 64,
                "duration": 0.0704545454545471,
                "tempo": 120.0
            },
            {
                "start_time": 15.079545454545453,
                "end_time": 15.08181818181818,
                "pitch": 67,
                "velocity": 64,
                "duration": 0.002272727272726982,
                "tempo": 120.0
            },
            {
                "start_time": 15.08181818181818,
                "end_time": 15.154545454545454,
                "pitch": 69,
                "velocity": 64,
                "duration": 0.07272727272727408,
                "tempo": 120.0
            },
            {
                "start_time": 15.193181818181817,
                "end_time": 15.26590909090909,
                "pitch": 69,
                "velocity": 64,
                "duration": 0.07272727272727408,
                "tempo": 120.0
            },
            {
                "start_time": 15.418181818181818,
                "end_time": 15.493181818181817,
                "pitch": 69,
                "velocity": 64,
                "duration": 0.07499999999999929,
                "tempo": 120.0
            },
            {
                "start_time": 15.64090909090909,
                "end_time": 15.711363636363636,
                "pitch": 69,
                "velocity": 64,
                "duration": 0.07045454545454533,
                "tempo": 120.0
            },
            {
                "start_time": 15.85681818181818,
                "end_time": 15.927272727272726,
                "pitch": 69,
                "velocity": 64,
                "duration": 0.07045454545454533,
                "tempo": 120.0
            },
            {
                "start_time": 16.075,
                "end_time": 16.077272727272728,
                "pitch": 69,
                "velocity": 64,
                "duration": 0.0022727272727287584,
                "tempo": 120.0
            },
            {
                "start_time": 16.077272727272728,
                "end_time": 16.15,
                "pitch": 67,
                "velocity": 64,
                "duration": 0.07272727272727053,
                "tempo": 120.0
            },
            {
                "start_time": 16.19090909090909,
                "end_time": 16.263636363636362,
                "pitch": 67,
                "velocity": 64,
                "duration": 0.07272727272727053,
                "tempo": 120.0
            },
            {
                "start_time": 16.522727272727273,
                "end_time": 16.59318181818182,
                "pitch": 67,
                "velocity": 64,
                "duration": 0.07045454545454533,
                "tempo": 120.0
            },
            {
                "start_time": 16.738636363636363,
                "end_time": 16.80909090909091,
                "pitch": 67,
                "velocity": 64,
                "duration": 0.07045454545454533,
                "tempo": 120.0
            },
            {
                "start_time": 16.847727272727273,
                "end_time": 16.920454545454543,
                "pitch": 69,
                "velocity": 64,
                "duration": 0.07272727272727053,
                "tempo": 120.0
            },
            {
                "start_time": 16.961363636363636,
                "end_time": 17.034090909090907,
                "pitch": 69,
                "velocity": 64,
                "duration": 0.07272727272727053,
                "tempo": 120.0
            },
            {
                "start_time": 17.07272727272727,
                "end_time": 17.145454545454545,
                "pitch": 69,
                "velocity": 64,
                "duration": 0.07272727272727408,
                "tempo": 120.0
            },
            {
                "start_time": 17.186363636363634,
                "end_time": 17.259090909090908,
                "pitch": 69,
                "velocity": 64,
                "duration": 0.07272727272727408,
                "tempo": 120.0
            },
            {
                "start_time": 17.40681818181818,
                "end_time": 17.477272727272727,
                "pitch": 69,
                "velocity": 64,
                "duration": 0.07045454545454533,
                "tempo": 120.0
            },
            {
                "start_time": 17.62272727272727,
                "end_time": 17.693181818181817,
                "pitch": 69,
                "velocity": 64,
                "duration": 0.07045454545454533,
                "tempo": 120.0
            },
            {
                "start_time": 21.277272727272727,
                "end_time": 24.513636363636362,
                "pitch": 76,
                "velocity": 101,
                "duration": 3.2363636363636346,
                "tempo": 120.0
            },
            {
                "start_time": 24.80909090909091,
                "end_time": 26.286363636363635,
                "pitch": 76,
                "velocity": 101,
                "duration": 1.4772727272727266,
                "tempo": 120.0
            },
            {
                "start_time": 7.120454545454545,
                "end_time": 28.054545454545455,
                "pitch": 77,
                "velocity": 64,
                "duration": 20.93409090909091,
                "tempo": 120.0
            },
            {
                "start_time": 26.577272727272724,
                "end_time": 28.054545454545455,
                "pitch": 77,
                "velocity": 101,
                "duration": 1.4772727272727302,
                "tempo": 120.0
            },
            {
                "start_time": 28.345454545454544,
                "end_time": 31.59090909090909,
                "pitch": 73,
                "velocity": 101,
                "duration": 3.245454545454546,
                "tempo": 120.0
            },
            {
                "start_time": 31.888636363636362,
                "end_time": 35.125,
                "pitch": 68,
                "velocity": 101,
                "duration": 3.236363636363638,
                "tempo": 120.0
            },
            {
                "start_time": 35.42272727272727,
                "end_time": 38.66590909090909,
                "pitch": 60,
                "velocity": 101,
                "duration": 3.2431818181818173,
                "tempo": 120.0
            },
            {
                "start_time": 31.888636363636362,
                "end_time": 38.95681818181818,
                "pitch": 76,
                "velocity": 101,
                "duration": 7.068181818181817,
                "tempo": 120.0
            },
            {
                "start_time": 38.95681818181818,
                "end_time": 40.434090909090905,
                "pitch": 68,
                "velocity": 127,
                "duration": 1.4772727272727266,
                "tempo": 120.0
            },
            {
                "start_time": 40.72272727272727,
                "end_time": 42.20227272727273,
                "pitch": 86,
                "velocity": 127,
                "duration": 1.479545454545459,
                "tempo": 120.0
            },
            {
                "start_time": 42.502272727272725,
                "end_time": 45.74318181818182,
                "pitch": 62,
                "velocity": 127,
                "duration": 3.240909090909092,
                "tempo": 120.0
            },
            {
                "start_time": 46.03409090909091,
                "end_time": 49.28181818181818,
                "pitch": 63,
                "velocity": 127,
                "duration": 3.247727272727275,
                "tempo": 120.0
            },
            {
                "start_time": 49.57727272727273,
                "end_time": 51.04545454545454,
                "pitch": 61,
                "velocity": 127,
                "duration": 1.4681818181818116,
                "tempo": 120.0
            },
            {
                "start_time": 51.334090909090904,
                "end_time": 52.81590909090909,
                "pitch": 63,
                "velocity": 127,
                "duration": 1.4818181818181841,
                "tempo": 120.0
            },
            {
                "start_time": 53.111363636363635,
                "end_time": 53.11363636363636,
                "pitch": 77,
                "velocity": 127,
                "duration": 0.0022727272727252057,
                "tempo": 120.0
            },
            {
                "start_time": 53.11363636363636,
                "end_time": 54.58181818181818,
                "pitch": 68,
                "velocity": 127,
                "duration": 1.4681818181818187,
                "tempo": 120.0
            },
            {
                "start_time": 35.42272727272727,
                "end_time": 54.87954545454545,
                "pitch": 19,
                "velocity": 101,
                "duration": 19.45681818181818,
                "tempo": 120.0
            },
            {
                "start_time": 54.87954545454545,
                "end_time": 56.35227272727273,
                "pitch": 64,
                "velocity": 127,
                "duration": 1.4727272727272762,
                "tempo": 120.0
            }
        ],
        "Violin": [
            {
                "start_time": 0.04318181818181818,
                "end_time": 3.3249999999999997,
                "pitch": 67,
                "velocity": 127,
                "duration": 3.2818181818181817,
                "tempo": 120.0
            },
            {
                "start_time": 3.3613636363636363,
                "end_time": 3.4545454545454546,
                "pitch": 63,
                "velocity": 127,
                "duration": 0.09318181818181825,
                "tempo": 120.0
            },
            {
                "start_time": 3.4727272727272727,
                "end_time": 3.5636363636363635,
                "pitch": 65,
                "velocity": 127,
                "duration": 0.09090909090909083,
                "tempo": 120.0
            },
            {
                "start_time": 3.586363636363636,
                "end_time": 6.822727272727272,
                "pitch": 67,
                "velocity": 127,
                "duration": 3.2363636363636363,
                "tempo": 120.0
            },
            {
                "start_time": 3.3613636363636363,
                "end_time": 7.120454545454545,
                "pitch": 0,
                "velocity": 127,
                "duration": 3.759090909090909,
                "tempo": 120.0
            },
            {
                "start_time": 7.120454545454545,
                "end_time": 10.477272727272727,
                "pitch": 72,
                "velocity": 127,
                "duration": 3.3568181818181815,
                "tempo": 120.0
            },
            {
                "start_time": 10.552272727272726,
                "end_time": 10.643181818181818,
                "pitch": 72,
                "velocity": 127,
                "duration": 0.09090909090909172,
                "tempo": 120.0
            },
            {
                "start_time": 10.663636363636362,
                "end_time": 13.899999999999999,
                "pitch": 72,
                "velocity": 127,
                "duration": 3.2363636363636363,
                "tempo": 120.0
            },
            {
                "start_time": 21.275,
                "end_time": 24.513636363636362,
                "pitch": 80,
                "velocity": 127,
                "duration": 3.2386363636363633,
                "tempo": 120.0
            },
            {
                "start_time": 24.80909090909091,
                "end_time": 26.286363636363635,
                "pitch": 80,
                "velocity": 127,
                "duration": 1.4772727272727266,
                "tempo": 120.0
            },
            {
                "start_time": 26.575,
                "end_time": 28.054545454545455,
                "pitch": 80,
                "velocity": 127,
                "duration": 1.4795454545454554,
                "tempo": 120.0
            },
            {
                "start_time": 28.343181818181815,
                "end_time": 31.59090909090909,
                "pitch": 77,
                "velocity": 127,
                "duration": 3.247727272727275,
                "tempo": 120.0
            },
            {
                "start_time": 3.586363636363636,
                "end_time": 31.888636363636362,
                "pitch": 78,
                "velocity": 127,
                "duration": 28.302272727272726,
                "tempo": 120.0
            },
            {
                "start_time": 31.888636363636362,
                "end_time": 35.125,
                "pitch": 71,
                "velocity": 127,
                "duration": 3.236363636363638,
                "tempo": 120.0
            },
            {
                "start_time": 3.4727272727272727,
                "end_time": 38.66590909090909,
                "pitch": 63,
                "velocity": 127,
                "duration": 35.19318181818181,
                "tempo": 120.0
            },
            {
                "start_time": 35.42272727272727,
                "end_time": 38.66590909090909,
                "pitch": 63,
                "velocity": 127,
                "duration": 3.2431818181818173,
                "tempo": 120.0
            },
            {
                "start_time": 38.95681818181818,
                "end_time": 40.43181818181818,
                "pitch": 72,
                "velocity": 127,
                "duration": 1.4750000000000014,
                "tempo": 120.0
            },
            {
                "start_time": 40.834090909090904,
                "end_time": 42.425,
                "pitch": 103,
                "velocity": 127,
                "duration": 1.5909090909090935,
                "tempo": 120.0
            },
            {
                "start_time": 53.111363636363635,
                "end_time": 54.58181818181818,
                "pitch": 80,
                "velocity": 101,
                "duration": 1.470454545454544,
                "tempo": 120.0
            },
            {
                "start_time": 54.87954545454545,
                "end_time": 56.35227272727273,
                "pitch": 68,
                "velocity": 101,
                "duration": 1.4727272727272762,
                "tempo": 120.0
            },
            {
                "start_time": 56.65681818181818,
                "end_time": 56.65909090909091,
                "pitch": 68,
                "velocity": 127,
                "duration": 0.0022727272727252057,
                "tempo": 120.0
            }
        ],
        "Vibraphone": [
            {
                "start_time": 28.34090909090909,
                "end_time": 28.43409090909091,
                "pitch": 89,
                "velocity": 127,
                "duration": 0.0931818181818187,
                "tempo": 120.0
            },
            {
                "start_time": 28.454545454545453,
                "end_time": 28.547727272727272,
                "pitch": 89,
                "velocity": 127,
                "duration": 0.0931818181818187,
                "tempo": 120.0
            },
            {
                "start_time": 28.565909090909088,
                "end_time": 28.661363636363635,
                "pitch": 89,
                "velocity": 127,
                "duration": 0.09545454545454746,
                "tempo": 120.0
            },
            {
                "start_time": 28.679545454545455,
                "end_time": 28.77272727272727,
                "pitch": 89,
                "velocity": 127,
                "duration": 0.09318181818181515,
                "tempo": 120.0
            },
            {
                "start_time": 30.10909090909091,
                "end_time": 30.2,
                "pitch": 89,
                "velocity": 127,
                "duration": 0.09090909090908994,
                "tempo": 120.0
            },
            {
                "start_time": 30.218181818181815,
                "end_time": 30.311363636363634,
                "pitch": 89,
                "velocity": 127,
                "duration": 0.0931818181818187,
                "tempo": 120.0
            },
            {
                "start_time": 30.329545454545453,
                "end_time": 30.420454545454543,
                "pitch": 89,
                "velocity": 127,
                "duration": 0.09090909090908994,
                "tempo": 120.0
            },
            {
                "start_time": 30.440909090909088,
                "end_time": 30.53181818181818,
                "pitch": 89,
                "velocity": 127,
                "duration": 0.09090909090909349,
                "tempo": 120.0
            },
            {
                "start_time": 42.49772727272727,
                "end_time": 42.68181818181818,
                "pitch": 60,
                "velocity": 127,
                "duration": 0.1840909090909122,
                "tempo": 120.0
            },
            {
                "start_time": 28.34090909090909,
                "end_time": 42.902272727272724,
                "pitch": 55,
                "velocity": 127,
                "duration": 14.561363636363634,
                "tempo": 120.0
            },
            {
                "start_time": 42.71818181818182,
                "end_time": 42.902272727272724,
                "pitch": 55,
                "velocity": 127,
                "duration": 0.18409090909090509,
                "tempo": 120.0
            },
            {
                "start_time": 42.93863636363636,
                "end_time": 43.12272727272727,
                "pitch": 60,
                "velocity": 127,
                "duration": 0.18409090909090509,
                "tempo": 120.0
            },
            {
                "start_time": 42.71818181818182,
                "end_time": 43.16136363636363,
                "pitch": 64,
                "velocity": 127,
                "duration": 0.443181818181813,
                "tempo": 120.0
            },
            {
                "start_time": 43.16136363636363,
                "end_time": 43.252272727272725,
                "pitch": 55,
                "velocity": 127,
                "duration": 0.09090909090909349,
                "tempo": 120.0
            },
            {
                "start_time": 42.93863636363636,
                "end_time": 43.27045454545454,
                "pitch": 0,
                "velocity": 127,
                "duration": 0.33181818181817846,
                "tempo": 120.0
            },
            {
                "start_time": 43.27045454545454,
                "end_time": 43.45454545454545,
                "pitch": 51,
                "velocity": 127,
                "duration": 0.1840909090909122,
                "tempo": 120.0
            },
            {
                "start_time": 43.49090909090909,
                "end_time": 43.584090909090904,
                "pitch": 60,
                "velocity": 127,
                "duration": 0.0931818181818116,
                "tempo": 120.0
            },
            {
                "start_time": 43.16136363636363,
                "end_time": 43.60227272727273,
                "pitch": 64,
                "velocity": 127,
                "duration": 0.4409090909090949,
                "tempo": 120.0
            },
            {
                "start_time": 43.60227272727273,
                "end_time": 43.69318181818181,
                "pitch": 55,
                "velocity": 127,
                "duration": 0.09090909090908639,
                "tempo": 120.0
            },
            {
                "start_time": 43.27045454545454,
                "end_time": 43.71363636363636,
                "pitch": 0,
                "velocity": 127,
                "duration": 0.4431818181818201,
                "tempo": 120.0
            },
            {
                "start_time": 43.71363636363636,
                "end_time": 43.804545454545455,
                "pitch": 51,
                "velocity": 127,
                "duration": 0.09090909090909349,
                "tempo": 120.0
            },
            {
                "start_time": 43.49090909090909,
                "end_time": 43.82272727272727,
                "pitch": 63,
                "velocity": 127,
                "duration": 0.33181818181817846,
                "tempo": 120.0
            },
            {
                "start_time": 43.82272727272727,
                "end_time": 44.00681818181818,
                "pitch": 60,
                "velocity": 127,
                "duration": 0.1840909090909122,
                "tempo": 120.0
            },
            {
                "start_time": 43.60227272727273,
                "end_time": 44.043181818181814,
                "pitch": 64,
                "velocity": 127,
                "duration": 0.4409090909090878,
                "tempo": 120.0
            },
            {
                "start_time": 44.043181818181814,
                "end_time": 44.13636363636363,
                "pitch": 55,
                "velocity": 127,
                "duration": 0.0931818181818187,
                "tempo": 120.0
            },
            {
                "start_time": 43.71363636363636,
                "end_time": 44.15454545454545,
                "pitch": 0,
                "velocity": 127,
                "duration": 0.4409090909090878,
                "tempo": 120.0
            },
            {
                "start_time": 44.15454545454545,
                "end_time": 44.24545454545454,
                "pitch": 51,
                "velocity": 127,
                "duration": 0.09090909090909349,
                "tempo": 120.0
            },
            {
                "start_time": 43.82272727272727,
                "end_time": 44.26590909090909,
                "pitch": 63,
                "velocity": 127,
                "duration": 0.4431818181818201,
                "tempo": 120.0
            },
            {
                "start_time": 44.26590909090909,
                "end_time": 44.45227272727273,
                "pitch": 60,
                "velocity": 127,
                "duration": 0.1863636363636374,
                "tempo": 120.0
            },
            {
                "start_time": 44.043181818181814,
                "end_time": 44.49090909090909,
                "pitch": 64,
                "velocity": 127,
                "duration": 0.44772727272727764,
                "tempo": 120.0
            },
            {
                "start_time": 44.49090909090909,
                "end_time": 44.67727272727272,
                "pitch": 55,
                "velocity": 127,
                "duration": 0.1863636363636303,
                "tempo": 120.0
            },
            {
                "start_time": 44.15454545454545,
                "end_time": 44.715909090909086,
                "pitch": 0,
                "velocity": 127,
                "duration": 0.5613636363636374,
                "tempo": 120.0
            },
            {
                "start_time": 44.715909090909086,
                "end_time": 44.89545454545454,
                "pitch": 60,
                "velocity": 127,
                "duration": 0.17954545454545467,
                "tempo": 120.0
            },
            {
                "start_time": 44.49090909090909,
                "end_time": 44.93181818181818,
                "pitch": 64,
                "velocity": 127,
                "duration": 0.4409090909090878,
                "tempo": 120.0
            },
            {
                "start_time": 44.93181818181818,
                "end_time": 45.02272727272727,
                "pitch": 55,
                "velocity": 127,
                "duration": 0.09090909090909349,
                "tempo": 120.0
            },
            {
                "start_time": 44.715909090909086,
                "end_time": 45.04090909090909,
                "pitch": 0,
                "velocity": 127,
                "duration": 0.32500000000000284,
                "tempo": 120.0
            },
            {
                "start_time": 45.04090909090909,
                "end_time": 45.22272727272727,
                "pitch": 51,
                "velocity": 127,
                "duration": 0.18181818181817988,
                "tempo": 120.0
            },
            {
                "start_time": 44.26590909090909,
                "end_time": 45.26136363636363,
                "pitch": 63,
                "velocity": 127,
                "duration": 0.9954545454545425,
                "tempo": 120.0
            },
            {
                "start_time": 45.26136363636363,
                "end_time": 45.35454545454545,
                "pitch": 60,
                "velocity": 127,
                "duration": 0.0931818181818187,
                "tempo": 120.0
            },
            {
                "start_time": 44.93181818181818,
                "end_time": 45.375,
                "pitch": 64,
                "velocity": 127,
                "duration": 0.4431818181818201,
                "tempo": 120.0
            },
            {
                "start_time": 45.37272727272727,
                "end_time": 45.375,
                "pitch": 64,
                "velocity": 127,
                "duration": 0.002272727272732311,
                "tempo": 120.0
            },
            {
                "start_time": 45.375,
                "end_time": 45.46818181818182,
                "pitch": 55,
                "velocity": 127,
                "duration": 0.0931818181818187,
                "tempo": 120.0
            },
            {
                "start_time": 45.04090909090909,
                "end_time": 45.486363636363635,
                "pitch": 0,
                "velocity": 127,
                "duration": 0.4454545454545453,
                "tempo": 120.0
            },
            {
                "start_time": 45.486363636363635,
                "end_time": 45.57954545454545,
                "pitch": 51,
                "velocity": 127,
                "duration": 0.0931818181818187,
                "tempo": 120.0
            },
            {
                "start_time": 45.26136363636363,
                "end_time": 45.599999999999994,
                "pitch": 63,
                "velocity": 127,
                "duration": 0.3386363636363612,
                "tempo": 120.0
            },
            {
                "start_time": 45.599999999999994,
                "end_time": 45.77954545454545,
                "pitch": 60,
                "velocity": 127,
                "duration": 0.17954545454545467,
                "tempo": 120.0
            },
            {
                "start_time": 45.81590909090909,
                "end_time": 45.90454545454545,
                "pitch": 55,
                "velocity": 127,
                "duration": 0.08863636363636118,
                "tempo": 120.0
            },
            {
                "start_time": 45.486363636363635,
                "end_time": 45.92272727272727,
                "pitch": 0,
                "velocity": 127,
                "duration": 0.4363636363636374,
                "tempo": 120.0
            },
            {
                "start_time": 45.92272727272727,
                "end_time": 46.01363636363636,
                "pitch": 51,
                "velocity": 127,
                "duration": 0.09090909090908639,
                "tempo": 120.0
            },
            {
                "start_time": 46.03181818181818,
                "end_time": 46.21818181818182,
                "pitch": 51,
                "velocity": 127,
                "duration": 0.1863636363636374,
                "tempo": 120.0
            },
            {
                "start_time": 46.25681818181818,
                "end_time": 46.445454545454545,
                "pitch": 44,
                "velocity": 127,
                "duration": 0.1886363636363626,
                "tempo": 120.0
            },
            {
                "start_time": 46.48181818181818,
                "end_time": 46.663636363636364,
                "pitch": 49,
                "velocity": 127,
                "duration": 0.18181818181818699,
                "tempo": 120.0
            },
            {
                "start_time": 46.25681818181818,
                "end_time": 46.699999999999996,
                "pitch": 52,
                "velocity": 127,
                "duration": 0.443181818181813,
                "tempo": 120.0
            },
            {
                "start_time": 46.699999999999996,
                "end_time": 46.788636363636364,
                "pitch": 44,
                "velocity": 127,
                "duration": 0.08863636363636829,
                "tempo": 120.0
            },
            {
                "start_time": 47.027272727272724,
                "end_time": 47.12045454545454,
                "pitch": 49,
                "velocity": 127,
                "duration": 0.0931818181818187,
                "tempo": 120.0
            },
            {
                "start_time": 46.699999999999996,
                "end_time": 47.14090909090909,
                "pitch": 52,
                "velocity": 127,
                "duration": 0.4409090909090949,
                "tempo": 120.0
            },
            {
                "start_time": 47.14090909090909,
                "end_time": 47.23409090909091,
                "pitch": 44,
                "velocity": 127,
                "duration": 0.0931818181818187,
                "tempo": 120.0
            },
            {
                "start_time": 47.027272727272724,
                "end_time": 47.36590909090909,
                "pitch": 53,
                "velocity": 127,
                "duration": 0.3386363636363683,
                "tempo": 120.0
            },
            {
                "start_time": 47.36590909090909,
                "end_time": 47.55,
                "pitch": 49,
                "velocity": 127,
                "duration": 0.18409090909090509,
                "tempo": 120.0
            },
            {
                "start_time": 47.14090909090909,
                "end_time": 47.58863636363636,
                "pitch": 52,
                "velocity": 127,
                "duration": 0.44772727272727053,
                "tempo": 120.0
            },
            {
                "start_time": 47.58863636363636,
                "end_time": 47.679545454545455,
                "pitch": 44,
                "velocity": 127,
                "duration": 0.09090909090909349,
                "tempo": 120.0
            },
            {
                "start_time": 47.58863636363636,
                "end_time": 47.809090909090905,
                "pitch": 52,
                "velocity": 127,
                "duration": 0.2204545454545439,
                "tempo": 120.0
            },
            {
                "start_time": 47.809090909090905,
                "end_time": 47.99318181818182,
                "pitch": 49,
                "velocity": 127,
                "duration": 0.1840909090909122,
                "tempo": 120.0
            },
            {
                "start_time": 47.809090909090905,
                "end_time": 48.02954545454545,
                "pitch": 52,
                "velocity": 127,
                "duration": 0.2204545454545439,
                "tempo": 120.0
            },
            {
                "start_time": 48.02954545454545,
                "end_time": 48.21363636363636,
                "pitch": 44,
                "velocity": 127,
                "duration": 0.1840909090909122,
                "tempo": 120.0
            },
            {
                "start_time": 46.48181818181818,
                "end_time": 48.25,
                "pitch": 7,
                "velocity": 127,
                "duration": 1.768181818181823,
                "tempo": 120.0
            },
            {
                "start_time": 48.25,
                "end_time": 48.429545454545455,
                "pitch": 49,
                "velocity": 127,
                "duration": 0.17954545454545467,
                "tempo": 120.0
            },
            {
                "start_time": 48.02954545454545,
                "end_time": 48.465909090909086,
                "pitch": 52,
                "velocity": 127,
                "duration": 0.4363636363636374,
                "tempo": 120.0
            },
            {
                "start_time": 48.465909090909086,
                "end_time": 48.55681818181818,
                "pitch": 44,
                "velocity": 127,
                "duration": 0.09090909090909349,
                "tempo": 120.0
            },
            {
                "start_time": 47.36590909090909,
                "end_time": 48.79545454545454,
                "pitch": 53,
                "velocity": 127,
                "duration": 1.4295454545454476,
                "tempo": 120.0
            },
            {
                "start_time": 48.79545454545454,
                "end_time": 48.88863636363636,
                "pitch": 49,
                "velocity": 127,
                "duration": 0.0931818181818187,
                "tempo": 120.0
            },
            {
                "start_time": 48.465909090909086,
                "end_time": 48.90909090909091,
                "pitch": 52,
                "velocity": 127,
                "duration": 0.4431818181818201,
                "tempo": 120.0
            },
            {
                "start_time": 48.90909090909091,
                "end_time": 49.002272727272725,
                "pitch": 44,
                "velocity": 127,
                "duration": 0.0931818181818187,
                "tempo": 120.0
            },
            {
                "start_time": 48.79545454545454,
                "end_time": 49.13409090909091,
                "pitch": 53,
                "velocity": 127,
                "duration": 0.3386363636363683,
                "tempo": 120.0
            },
            {
                "start_time": 49.13409090909091,
                "end_time": 49.31818181818181,
                "pitch": 49,
                "velocity": 127,
                "duration": 0.18409090909090509,
                "tempo": 120.0
            },
            {
                "start_time": 48.90909090909091,
                "end_time": 49.35454545454545,
                "pitch": 52,
                "velocity": 127,
                "duration": 0.4454545454545453,
                "tempo": 120.0
            },
            {
                "start_time": 49.35454545454545,
                "end_time": 49.445454545454545,
                "pitch": 44,
                "velocity": 127,
                "duration": 0.09090909090909349,
                "tempo": 120.0
            },
            {
                "start_time": 45.81590909090909,
                "end_time": 49.574999999999996,
                "pitch": 64,
                "velocity": 127,
                "duration": 3.759090909090908,
                "tempo": 120.0
            },
            {
                "start_time": 49.574999999999996,
                "end_time": 49.75909090909091,
                "pitch": 60,
                "velocity": 127,
                "duration": 0.1840909090909122,
                "tempo": 120.0
            },
            {
                "start_time": 49.574999999999996,
                "end_time": 49.79772727272727,
                "pitch": 64,
                "velocity": 127,
                "duration": 0.22272727272727622,
                "tempo": 120.0
            },
            {
                "start_time": 49.79545454545454,
                "end_time": 49.79772727272727,
                "pitch": 64,
                "velocity": 127,
                "duration": 0.002272727272732311,
                "tempo": 120.0
            },
            {
                "start_time": 49.79772727272727,
                "end_time": 49.97954545454545,
                "pitch": 55,
                "velocity": 127,
                "duration": 0.18181818181817988,
                "tempo": 120.0
            },
            {
                "start_time": 45.92272727272727,
                "end_time": 50.01590909090909,
                "pitch": 0,
                "velocity": 127,
                "duration": 4.093181818181819,
                "tempo": 120.0
            },
            {
                "start_time": 50.01590909090909,
                "end_time": 50.19772727272727,
                "pitch": 60,
                "velocity": 127,
                "duration": 0.18181818181817988,
                "tempo": 120.0
            },
            {
                "start_time": 50.23409090909091,
                "end_time": 50.32272727272727,
                "pitch": 55,
                "velocity": 127,
                "duration": 0.08863636363636118,
                "tempo": 120.0
            },
            {
                "start_time": 50.01590909090909,
                "end_time": 50.340909090909086,
                "pitch": 0,
                "velocity": 127,
                "duration": 0.32499999999999574,
                "tempo": 120.0
            },
            {
                "start_time": 50.340909090909086,
                "end_time": 50.43181818181818,
                "pitch": 51,
                "velocity": 127,
                "duration": 0.09090909090909349,
                "tempo": 120.0
            },
            {
                "start_time": 45.599999999999994,
                "end_time": 50.449999999999996,
                "pitch": 63,
                "velocity": 127,
                "duration": 4.850000000000001,
                "tempo": 120.0
            },
            {
                "start_time": 50.449999999999996,
                "end_time": 50.63636363636363,
                "pitch": 60,
                "velocity": 127,
                "duration": 0.1863636363636374,
                "tempo": 120.0
            },
            {
                "start_time": 50.23409090909091,
                "end_time": 50.675,
                "pitch": 64,
                "velocity": 127,
                "duration": 0.4409090909090878,
                "tempo": 120.0
            },
            {
                "start_time": 50.675,
                "end_time": 50.768181818181816,
                "pitch": 55,
                "velocity": 127,
                "duration": 0.0931818181818187,
                "tempo": 120.0
            },
            {
                "start_time": 50.340909090909086,
                "end_time": 50.788636363636364,
                "pitch": 0,
                "velocity": 127,
                "duration": 0.44772727272727764,
                "tempo": 120.0
            },
            {
                "start_time": 50.788636363636364,
                "end_time": 50.97272727272727,
                "pitch": 60,
                "velocity": 127,
                "duration": 0.18409090909090509,
                "tempo": 120.0
            },
            {
                "start_time": 50.675,
                "end_time": 51.00909090909091,
                "pitch": 64,
                "velocity": 127,
                "duration": 0.33409090909091077,
                "tempo": 120.0
            },
            {
                "start_time": 51.00909090909091,
                "end_time": 51.18863636363636,
                "pitch": 55,
                "velocity": 127,
                "duration": 0.17954545454545467,
                "tempo": 120.0
            },
            {
                "start_time": 51.224999999999994,
                "end_time": 51.31363636363636,
                "pitch": 58,
                "velocity": 127,
                "duration": 0.08863636363636829,
                "tempo": 120.0
            },
            {
                "start_time": 51.33181818181818,
                "end_time": 51.52045454545454,
                "pitch": 58,
                "velocity": 127,
                "duration": 0.1886363636363626,
                "tempo": 120.0
            },
            {
                "start_time": 51.559090909090905,
                "end_time": 51.74545454545454,
                "pitch": 54,
                "velocity": 127,
                "duration": 0.1863636363636374,
                "tempo": 120.0
            },
            {
                "start_time": 51.78409090909091,
                "end_time": 51.875,
                "pitch": 50,
                "velocity": 127,
                "duration": 0.09090909090909349,
                "tempo": 120.0
            },
            {
                "start_time": 51.89545454545454,
                "end_time": 52.07954545454545,
                "pitch": 57,
                "velocity": 127,
                "duration": 0.1840909090909122,
                "tempo": 120.0
            },
            {
                "start_time": 51.559090909090905,
                "end_time": 52.115909090909085,
                "pitch": 19,
                "velocity": 127,
                "duration": 0.5568181818181799,
                "tempo": 120.0
            },
            {
                "start_time": 51.78409090909091,
                "end_time": 52.20681818181818,
                "pitch": 54,
                "velocity": 127,
                "duration": 0.42272727272727195,
                "tempo": 120.0
            },
            {
                "start_time": 52.115909090909085,
                "end_time": 52.20681818181818,
                "pitch": 54,
                "velocity": 127,
                "duration": 0.09090909090909349,
                "tempo": 120.0
            },
            {
                "start_time": 52.22727272727273,
                "end_time": 52.31818181818181,
                "pitch": 50,
                "velocity": 127,
                "duration": 0.09090909090908639,
                "tempo": 120.0
            },
            {
                "start_time": 51.89545454545454,
                "end_time": 52.336363636363636,
                "pitch": 65,
                "velocity": 127,
                "duration": 0.4409090909090949,
                "tempo": 120.0
            },
            {
                "start_time": 52.336363636363636,
                "end_time": 52.52045454545454,
                "pitch": 57,
                "velocity": 127,
                "duration": 0.18409090909090509,
                "tempo": 120.0
            },
            {
                "start_time": 52.115909090909085,
                "end_time": 52.55681818181818,
                "pitch": 19,
                "velocity": 127,
                "duration": 0.4409090909090949,
                "tempo": 120.0
            },
            {
                "start_time": 52.55681818181818,
                "end_time": 52.65,
                "pitch": 50,
                "velocity": 127,
                "duration": 0.0931818181818187,
                "tempo": 120.0
            },
            {
                "start_time": 52.22727272727273,
                "end_time": 52.75909090909091,
                "pitch": 54,
                "velocity": 127,
                "duration": 0.5318181818181813,
                "tempo": 120.0
            },
            {
                "start_time": 52.668181818181814,
                "end_time": 52.75909090909091,
                "pitch": 54,
                "velocity": 127,
                "duration": 0.09090909090909349,
                "tempo": 120.0
            },
            {
                "start_time": 52.668181818181814,
                "end_time": 52.87045454545454,
                "pitch": 50,
                "velocity": 127,
                "duration": 0.20227272727272805,
                "tempo": 120.0
            },
            {
                "start_time": 52.77954545454545,
                "end_time": 52.87045454545454,
                "pitch": 50,
                "velocity": 127,
                "duration": 0.09090909090909349,
                "tempo": 120.0
            },
            {
                "start_time": 52.336363636363636,
                "end_time": 52.88863636363636,
                "pitch": 65,
                "velocity": 127,
                "duration": 0.5522727272727224,
                "tempo": 120.0
            },
            {
                "start_time": 51.224999999999994,
                "end_time": 52.97954545454545,
                "pitch": 55,
                "velocity": 127,
                "duration": 1.7545454545454575,
                "tempo": 120.0
            },
            {
                "start_time": 52.88863636363636,
                "end_time": 52.97954545454545,
                "pitch": 55,
                "velocity": 127,
                "duration": 0.09090909090909349,
                "tempo": 120.0
            },
            {
                "start_time": 53.0,
                "end_time": 53.090909090909086,
                "pitch": 58,
                "velocity": 127,
                "duration": 0.09090909090908639,
                "tempo": 120.0
            },
            {
                "start_time": 50.449999999999996,
                "end_time": 53.20227272727273,
                "pitch": 63,
                "velocity": 127,
                "duration": 2.7522727272727323,
                "tempo": 120.0
            },
            {
                "start_time": 53.10909090909091,
                "end_time": 53.20227272727273,
                "pitch": 63,
                "velocity": 127,
                "duration": 0.0931818181818187,
                "tempo": 120.0
            },
            {
                "start_time": 52.88863636363636,
                "end_time": 53.220454545454544,
                "pitch": 65,
                "velocity": 127,
                "duration": 0.33181818181818556,
                "tempo": 120.0
            },
            {
                "start_time": 53.220454545454544,
                "end_time": 53.31136363636363,
                "pitch": 58,
                "velocity": 127,
                "duration": 0.09090909090908639,
                "tempo": 120.0
            },
            {
                "start_time": 53.10909090909091,
                "end_time": 53.33181818181818,
                "pitch": 38,
                "velocity": 127,
                "duration": 0.2227272727272691,
                "tempo": 120.0
            },
            {
                "start_time": 53.33181818181818,
                "end_time": 53.42272727272727,
                "pitch": 63,
                "velocity": 127,
                "duration": 0.09090909090909349,
                "tempo": 120.0
            },
            {
                "start_time": 53.44090909090909,
                "end_time": 53.625,
                "pitch": 63,
                "velocity": 127,
                "duration": 0.1840909090909122,
                "tempo": 120.0
            },
            {
                "start_time": 53.220454545454544,
                "end_time": 53.66136363636363,
                "pitch": 65,
                "velocity": 127,
                "duration": 0.4409090909090878,
                "tempo": 120.0
            },
            {
                "start_time": 53.66136363636363,
                "end_time": 53.752272727272725,
                "pitch": 57,
                "velocity": 127,
                "duration": 0.09090909090909349,
                "tempo": 120.0
            },
            {
                "start_time": 42.49772727272727,
                "end_time": 53.86363636363636,
                "pitch": 62,
                "velocity": 127,
                "duration": 11.365909090909092,
                "tempo": 120.0
            },
            {
                "start_time": 53.77272727272727,
                "end_time": 53.86363636363636,
                "pitch": 62,
                "velocity": 127,
                "duration": 0.09090909090908639,
                "tempo": 120.0
            },
            {
                "start_time": 53.88181818181818,
                "end_time": 54.06590909090909,
                "pitch": 62,
                "velocity": 127,
                "duration": 0.18409090909090509,
                "tempo": 120.0
            },
            {
                "start_time": 51.00909090909091,
                "end_time": 54.10454545454545,
                "pitch": 64,
                "velocity": 127,
                "duration": 3.095454545454544,
                "tempo": 120.0
            },
            {
                "start_time": 54.10454545454545,
                "end_time": 54.195454545454545,
                "pitch": 56,
                "velocity": 127,
                "duration": 0.09090909090909349,
                "tempo": 120.0
            },
            {
                "start_time": 52.55681818181818,
                "end_time": 54.21363636363636,
                "pitch": 19,
                "velocity": 127,
                "duration": 1.6568181818181813,
                "tempo": 120.0
            },
            {
                "start_time": 54.21363636363636,
                "end_time": 54.304545454545455,
                "pitch": 61,
                "velocity": 127,
                "duration": 0.09090909090909349,
                "tempo": 120.0
            },
            {
                "start_time": 54.324999999999996,
                "end_time": 54.50909090909091,
                "pitch": 61,
                "velocity": 127,
                "duration": 0.1840909090909122,
                "tempo": 120.0
            },
            {
                "start_time": 54.10454545454545,
                "end_time": 54.54545454545454,
                "pitch": 64,
                "velocity": 127,
                "duration": 0.4409090909090878,
                "tempo": 120.0
            },
            {
                "start_time": 54.54545454545454,
                "end_time": 54.63636363636363,
                "pitch": 59,
                "velocity": 127,
                "duration": 0.09090909090909349,
                "tempo": 120.0
            },
            {
                "start_time": 54.65681818181818,
                "end_time": 54.74772727272727,
                "pitch": 59,
                "velocity": 127,
                "duration": 0.09090909090908639,
                "tempo": 120.0
            },
            {
                "start_time": 54.76590909090909,
                "end_time": 54.85681818181818,
                "pitch": 58,
                "velocity": 127,
                "duration": 0.09090909090908639,
                "tempo": 120.0
            },
            {
                "start_time": 53.77272727272727,
                "end_time": 54.877272727272725,
                "pitch": 31,
                "velocity": 127,
                "duration": 1.1045454545454518,
                "tempo": 120.0
            },
            {
                "start_time": 54.877272727272725,
                "end_time": 54.970454545454544,
                "pitch": 61,
                "velocity": 127,
                "duration": 0.0931818181818187,
                "tempo": 120.0
            },
            {
                "start_time": 54.54545454545454,
                "end_time": 54.98863636363636,
                "pitch": 64,
                "velocity": 127,
                "duration": 0.4431818181818201,
                "tempo": 120.0
            },
            {
                "start_time": 54.98863636363636,
                "end_time": 55.084090909090904,
                "pitch": 56,
                "velocity": 127,
                "duration": 0.0954545454545439,
                "tempo": 120.0
            },
            {
                "start_time": 54.21363636363636,
                "end_time": 55.10227272727273,
                "pitch": 19,
                "velocity": 127,
                "duration": 0.8886363636363654,
                "tempo": 120.0
            },
            {
                "start_time": 55.10227272727273,
                "end_time": 55.195454545454545,
                "pitch": 61,
                "velocity": 127,
                "duration": 0.0931818181818187,
                "tempo": 120.0
            },
            {
                "start_time": 55.215909090909086,
                "end_time": 55.4,
                "pitch": 61,
                "velocity": 127,
                "duration": 0.1840909090909122,
                "tempo": 120.0
            },
            {
                "start_time": 53.66136363636363,
                "end_time": 55.43636363636363,
                "pitch": 65,
                "velocity": 127,
                "duration": 1.7749999999999986,
                "tempo": 120.0
            },
            {
                "start_time": 55.43636363636363,
                "end_time": 55.525,
                "pitch": 56,
                "velocity": 127,
                "duration": 0.08863636363636829,
                "tempo": 120.0
            },
            {
                "start_time": 55.10227272727273,
                "end_time": 55.54545454545454,
                "pitch": 19,
                "velocity": 127,
                "duration": 0.443181818181813,
                "tempo": 120.0
            },
            {
                "start_time": 55.54545454545454,
                "end_time": 55.63409090909091,
                "pitch": 63,
                "velocity": 127,
                "duration": 0.08863636363636829,
                "tempo": 120.0
            },
            {
                "start_time": 55.652272727272724,
                "end_time": 55.834090909090904,
                "pitch": 63,
                "velocity": 127,
                "duration": 0.18181818181817988,
                "tempo": 120.0
            },
            {
                "start_time": 54.98863636363636,
                "end_time": 55.87045454545454,
                "pitch": 64,
                "velocity": 127,
                "duration": 0.8818181818181827,
                "tempo": 120.0
            },
            {
                "start_time": 55.87045454545454,
                "end_time": 55.961363636363636,
                "pitch": 61,
                "velocity": 127,
                "duration": 0.09090909090909349,
                "tempo": 120.0
            },
            {
                "start_time": 55.98181818181818,
                "end_time": 56.07272727272727,
                "pitch": 61,
                "velocity": 127,
                "duration": 0.09090909090909349,
                "tempo": 120.0
            },
            {
                "start_time": 56.090909090909086,
                "end_time": 56.184090909090905,
                "pitch": 63,
                "velocity": 127,
                "duration": 0.0931818181818187,
                "tempo": 120.0
            },
            {
                "start_time": 56.20227272727273,
                "end_time": 56.29545454545454,
                "pitch": 68,
                "velocity": 127,
                "duration": 0.0931818181818116,
                "tempo": 120.0
            },
            {
                "start_time": 56.31590909090909,
                "end_time": 56.57727272727273,
                "pitch": 71,
                "velocity": 127,
                "duration": 0.26136363636364024,
                "tempo": 120.0
            }
        ],
        "Trumpet": [
            {
                "start_time": 31.886363636363633,
                "end_time": 31.977272727272727,
                "pitch": 59,
                "velocity": 101,
                "duration": 0.09090909090909349,
                "tempo": 120.0
            },
            {
                "start_time": 31.995454545454542,
                "end_time": 32.086363636363636,
                "pitch": 59,
                "velocity": 101,
                "duration": 0.09090909090909349,
                "tempo": 120.0
            },
            {
                "start_time": 32.10681818181818,
                "end_time": 32.19772727272727,
                "pitch": 54,
                "velocity": 101,
                "duration": 0.09090909090909349,
                "tempo": 120.0
            },
            {
                "start_time": 32.215909090909086,
                "end_time": 32.21818181818182,
                "pitch": 66,
                "velocity": 101,
                "duration": 0.002272727272732311,
                "tempo": 120.0
            },
            {
                "start_time": 32.21818181818182,
                "end_time": 32.4,
                "pitch": 59,
                "velocity": 101,
                "duration": 0.18181818181817988,
                "tempo": 120.0
            },
            {
                "start_time": 32.10681818181818,
                "end_time": 32.43863636363636,
                "pitch": 32,
                "velocity": 101,
                "duration": 0.33181818181818556,
                "tempo": 120.0
            },
            {
                "start_time": 32.43863636363636,
                "end_time": 32.529545454545456,
                "pitch": 50,
                "velocity": 101,
                "duration": 0.09090909090909349,
                "tempo": 120.0
            },
            {
                "start_time": 32.54772727272727,
                "end_time": 32.638636363636365,
                "pitch": 57,
                "velocity": 101,
                "duration": 0.09090909090909349,
                "tempo": 120.0
            },
            {
                "start_time": 32.65909090909091,
                "end_time": 32.75,
                "pitch": 54,
                "velocity": 101,
                "duration": 0.09090909090909349,
                "tempo": 120.0
            },
            {
                "start_time": 32.768181818181816,
                "end_time": 32.861363636363635,
                "pitch": 59,
                "velocity": 101,
                "duration": 0.0931818181818187,
                "tempo": 120.0
            },
            {
                "start_time": 32.43863636363636,
                "end_time": 32.87954545454545,
                "pitch": 32,
                "velocity": 101,
                "duration": 0.4409090909090878,
                "tempo": 120.0
            },
            {
                "start_time": 32.87954545454545,
                "end_time": 33.06363636363636,
                "pitch": 54,
                "velocity": 101,
                "duration": 0.1840909090909122,
                "tempo": 120.0
            },
            {
                "start_time": 32.768181818181816,
                "end_time": 33.1,
                "pitch": 66,
                "velocity": 101,
                "duration": 0.33181818181818556,
                "tempo": 120.0
            },
            {
                "start_time": 33.1,
                "end_time": 33.28409090909091,
                "pitch": 59,
                "velocity": 101,
                "duration": 0.18409090909090509,
                "tempo": 120.0
            },
            {
                "start_time": 32.87954545454545,
                "end_time": 33.320454545454545,
                "pitch": 32,
                "velocity": 101,
                "duration": 0.4409090909090949,
                "tempo": 120.0
            },
            {
                "start_time": 33.320454545454545,
                "end_time": 33.413636363636364,
                "pitch": 50,
                "velocity": 101,
                "duration": 0.0931818181818187,
                "tempo": 120.0
            },
            {
                "start_time": 33.43181818181818,
                "end_time": 33.52272727272727,
                "pitch": 54,
                "velocity": 101,
                "duration": 0.09090909090909349,
                "tempo": 120.0
            },
            {
                "start_time": 33.1,
                "end_time": 33.543181818181814,
                "pitch": 66,
                "velocity": 101,
                "duration": 0.443181818181813,
                "tempo": 120.0
            },
            {
                "start_time": 33.543181818181814,
                "end_time": 33.63409090909091,
                "pitch": 59,
                "velocity": 101,
                "duration": 0.09090909090909349,
                "tempo": 120.0
            },
            {
                "start_time": 33.652272727272724,
                "end_time": 33.74318181818182,
                "pitch": 59,
                "velocity": 101,
                "duration": 0.09090909090909349,
                "tempo": 120.0
            },
            {
                "start_time": 33.763636363636365,
                "end_time": 33.85454545454545,
                "pitch": 59,
                "velocity": 101,
                "duration": 0.09090909090908639,
                "tempo": 120.0
            },
            {
                "start_time": 33.320454545454545,
                "end_time": 33.87272727272727,
                "pitch": 32,
                "velocity": 101,
                "duration": 0.5522727272727224,
                "tempo": 120.0
            },
            {
                "start_time": 33.87272727272727,
                "end_time": 33.965909090909086,
                "pitch": 54,
                "velocity": 101,
                "duration": 0.0931818181818187,
                "tempo": 120.0
            },
            {
                "start_time": 33.543181818181814,
                "end_time": 33.98409090909091,
                "pitch": 66,
                "velocity": 101,
                "duration": 0.4409090909090949,
                "tempo": 120.0
            },
            {
                "start_time": 33.98409090909091,
                "end_time": 34.168181818181814,
                "pitch": 59,
                "velocity": 101,
                "duration": 0.18409090909090509,
                "tempo": 120.0
            },
            {
                "start_time": 33.87272727272727,
                "end_time": 34.20454545454545,
                "pitch": 32,
                "velocity": 101,
                "duration": 0.33181818181818556,
                "tempo": 120.0
            },
            {
                "start_time": 33.43181818181818,
                "end_time": 34.29545454545455,
                "pitch": 50,
                "velocity": 101,
                "duration": 0.8636363636363669,
                "tempo": 120.0
            },
            {
                "start_time": 34.20454545454545,
                "end_time": 34.29545454545455,
                "pitch": 50,
                "velocity": 101,
                "duration": 0.09090909090909349,
                "tempo": 120.0
            },
            {
                "start_time": 32.54772727272727,
                "end_time": 34.31590909090909,
                "pitch": 65,
                "velocity": 101,
                "duration": 1.7681818181818159,
                "tempo": 120.0
            },
            {
                "start_time": 34.31590909090909,
                "end_time": 34.40681818181818,
                "pitch": 57,
                "velocity": 101,
                "duration": 0.09090909090909349,
                "tempo": 120.0
            },
            {
                "start_time": 32.65909090909091,
                "end_time": 34.425,
                "pitch": 19,
                "velocity": 101,
                "duration": 1.7659090909090907,
                "tempo": 120.0
            },
            {
                "start_time": 34.425,
                "end_time": 34.51590909090909,
                "pitch": 54,
                "velocity": 101,
                "duration": 0.09090909090909349,
                "tempo": 120.0
            },
            {
                "start_time": 33.98409090909091,
                "end_time": 34.53636363636363,
                "pitch": 66,
                "velocity": 101,
                "duration": 0.5522727272727224,
                "tempo": 120.0
            },
            {
                "start_time": 34.53636363636363,
                "end_time": 34.627272727272725,
                "pitch": 59,
                "velocity": 101,
                "duration": 0.09090909090909349,
                "tempo": 120.0
            },
            {
                "start_time": 34.20454545454545,
                "end_time": 34.64772727272727,
                "pitch": 32,
                "velocity": 101,
                "duration": 0.4431818181818201,
                "tempo": 120.0
            },
            {
                "start_time": 34.64772727272727,
                "end_time": 34.82954545454545,
                "pitch": 54,
                "velocity": 101,
                "duration": 0.18181818181817988,
                "tempo": 120.0
            },
            {
                "start_time": 34.53636363636363,
                "end_time": 34.86818181818182,
                "pitch": 66,
                "velocity": 101,
                "duration": 0.33181818181818556,
                "tempo": 120.0
            },
            {
                "start_time": 34.86818181818182,
                "end_time": 35.05,
                "pitch": 59,
                "velocity": 101,
                "duration": 0.18181818181817988,
                "tempo": 120.0
            },
            {
                "start_time": 34.64772727272727,
                "end_time": 35.08863636363636,
                "pitch": 32,
                "velocity": 101,
                "duration": 0.4409090909090878,
                "tempo": 120.0
            },
            {
                "start_time": 35.08863636363636,
                "end_time": 35.179545454545455,
                "pitch": 50,
                "velocity": 101,
                "duration": 0.09090909090909349,
                "tempo": 120.0
            },
            {
                "start_time": 35.19772727272727,
                "end_time": 35.29090909090909,
                "pitch": 54,
                "velocity": 101,
                "duration": 0.0931818181818187,
                "tempo": 120.0
            },
            {
                "start_time": 34.86818181818182,
                "end_time": 35.309090909090905,
                "pitch": 66,
                "velocity": 101,
                "duration": 0.4409090909090878,
                "tempo": 120.0
            },
            {
                "start_time": 35.309090909090905,
                "end_time": 35.4,
                "pitch": 59,
                "velocity": 101,
                "duration": 0.09090909090909349,
                "tempo": 120.0
            },
            {
                "start_time": 35.42045454545455,
                "end_time": 35.60681818181818,
                "pitch": 63,
                "velocity": 101,
                "duration": 0.1863636363636303,
                "tempo": 120.0
            },
            {
                "start_time": 35.64545454545454,
                "end_time": 35.73863636363636,
                "pitch": 63,
                "velocity": 101,
                "duration": 0.0931818181818187,
                "tempo": 120.0
            },
            {
                "start_time": 35.75909090909091,
                "end_time": 35.94318181818181,
                "pitch": 63,
                "velocity": 101,
                "duration": 0.18409090909090509,
                "tempo": 120.0
            },
            {
                "start_time": 35.97954545454545,
                "end_time": 36.15909090909091,
                "pitch": 63,
                "velocity": 101,
                "duration": 0.17954545454545467,
                "tempo": 120.0
            },
            {
                "start_time": 36.195454545454545,
                "end_time": 36.377272727272725,
                "pitch": 63,
                "velocity": 101,
                "duration": 0.18181818181817988,
                "tempo": 120.0
            },
            {
                "start_time": 36.413636363636364,
                "end_time": 36.59772727272727,
                "pitch": 63,
                "velocity": 101,
                "duration": 0.18409090909090509,
                "tempo": 120.0
            },
            {
                "start_time": 36.63409090909091,
                "end_time": 36.81818181818181,
                "pitch": 63,
                "velocity": 101,
                "duration": 0.18409090909090509,
                "tempo": 120.0
            },
            {
                "start_time": 36.85681818181818,
                "end_time": 36.94772727272727,
                "pitch": 63,
                "velocity": 101,
                "duration": 0.09090909090909349,
                "tempo": 120.0
            },
            {
                "start_time": 36.965909090909086,
                "end_time": 37.05681818181818,
                "pitch": 63,
                "velocity": 101,
                "duration": 0.09090909090909349,
                "tempo": 120.0
            },
            {
                "start_time": 37.07727272727273,
                "end_time": 37.168181818181814,
                "pitch": 63,
                "velocity": 101,
                "duration": 0.09090909090908639,
                "tempo": 120.0
            },
            {
                "start_time": 37.18636363636364,
                "end_time": 37.375,
                "pitch": 63,
                "velocity": 101,
                "duration": 0.1886363636363626,
                "tempo": 120.0
            },
            {
                "start_time": 37.41136363636363,
                "end_time": 37.50681818181818,
                "pitch": 63,
                "velocity": 101,
                "duration": 0.09545454545455101,
                "tempo": 120.0
            },
            {
                "start_time": 37.525,
                "end_time": 37.70909090909091,
                "pitch": 63,
                "velocity": 101,
                "duration": 0.1840909090909122,
                "tempo": 120.0
            },
            {
                "start_time": 37.74545454545454,
                "end_time": 37.925,
                "pitch": 63,
                "velocity": 101,
                "duration": 0.17954545454545467,
                "tempo": 120.0
            },
            {
                "start_time": 37.96363636363636,
                "end_time": 38.14545454545454,
                "pitch": 63,
                "velocity": 101,
                "duration": 0.18181818181817988,
                "tempo": 120.0
            },
            {
                "start_time": 38.184090909090905,
                "end_time": 38.37045454545454,
                "pitch": 63,
                "velocity": 101,
                "duration": 0.1863636363636374,
                "tempo": 120.0
            },
            {
                "start_time": 38.40909090909091,
                "end_time": 38.59318181818182,
                "pitch": 63,
                "velocity": 101,
                "duration": 0.1840909090909122,
                "tempo": 120.0
            },
            {
                "start_time": 38.62954545454545,
                "end_time": 38.71818181818182,
                "pitch": 63,
                "velocity": 101,
                "duration": 0.08863636363636829,
                "tempo": 120.0
            },
            {
                "start_time": 38.73863636363636,
                "end_time": 38.82727272727273,
                "pitch": 63,
                "velocity": 101,
                "duration": 0.08863636363636829,
                "tempo": 120.0
            },
            {
                "start_time": 38.845454545454544,
                "end_time": 38.934090909090905,
                "pitch": 63,
                "velocity": 101,
                "duration": 0.08863636363636118,
                "tempo": 120.0
            },
            {
                "start_time": 34.31590909090909,
                "end_time": 38.95454545454545,
                "pitch": 65,
                "velocity": 101,
                "duration": 4.6386363636363654,
                "tempo": 120.0
            },
            {
                "start_time": 38.95454545454545,
                "end_time": 39.04772727272727,
                "pitch": 56,
                "velocity": 101,
                "duration": 0.0931818181818187,
                "tempo": 120.0
            },
            {
                "start_time": 39.06818181818181,
                "end_time": 39.163636363636364,
                "pitch": 56,
                "velocity": 101,
                "duration": 0.09545454545455101,
                "tempo": 120.0
            },
            {
                "start_time": 39.184090909090905,
                "end_time": 39.279545454545456,
                "pitch": 51,
                "velocity": 101,
                "duration": 0.09545454545455101,
                "tempo": 120.0
            },
            {
                "start_time": 39.3,
                "end_time": 39.486363636363635,
                "pitch": 54,
                "velocity": 101,
                "duration": 0.1863636363636374,
                "tempo": 120.0
            },
            {
                "start_time": 39.3,
                "end_time": 39.61363636363636,
                "pitch": 51,
                "velocity": 101,
                "duration": 0.3136363636363626,
                "tempo": 120.0
            },
            {
                "start_time": 39.52272727272727,
                "end_time": 39.61363636363636,
                "pitch": 51,
                "velocity": 101,
                "duration": 0.09090909090908639,
                "tempo": 120.0
            },
            {
                "start_time": 39.52272727272727,
                "end_time": 39.720454545454544,
                "pitch": 54,
                "velocity": 101,
                "duration": 0.19772727272727053,
                "tempo": 120.0
            },
            {
                "start_time": 39.63181818181818,
                "end_time": 39.720454545454544,
                "pitch": 54,
                "velocity": 101,
                "duration": 0.08863636363636118,
                "tempo": 120.0
            },
            {
                "start_time": 39.63181818181818,
                "end_time": 39.82954545454545,
                "pitch": 51,
                "velocity": 101,
                "duration": 0.19772727272727053,
                "tempo": 120.0
            },
            {
                "start_time": 39.73863636363636,
                "end_time": 39.82954545454545,
                "pitch": 51,
                "velocity": 101,
                "duration": 0.09090909090909349,
                "tempo": 120.0
            },
            {
                "start_time": 38.95454545454545,
                "end_time": 39.84772727272727,
                "pitch": 65,
                "velocity": 101,
                "duration": 0.8931818181818159,
                "tempo": 120.0
            },
            {
                "start_time": 39.84772727272727,
                "end_time": 39.93863636363636,
                "pitch": 56,
                "velocity": 101,
                "duration": 0.09090909090909349,
                "tempo": 120.0
            },
            {
                "start_time": 39.95681818181818,
                "end_time": 40.05,
                "pitch": 56,
                "velocity": 101,
                "duration": 0.0931818181818187,
                "tempo": 120.0
            },
            {
                "start_time": 39.184090909090905,
                "end_time": 40.06818181818181,
                "pitch": 7,
                "velocity": 101,
                "duration": 0.8840909090909079,
                "tempo": 120.0
            },
            {
                "start_time": 40.06818181818181,
                "end_time": 40.15909090909091,
                "pitch": 51,
                "velocity": 101,
                "duration": 0.09090909090909349,
                "tempo": 120.0
            },
            {
                "start_time": 39.73863636363636,
                "end_time": 40.361363636363635,
                "pitch": 54,
                "velocity": 101,
                "duration": 0.6227272727272748,
                "tempo": 120.0
            },
            {
                "start_time": 40.179545454545455,
                "end_time": 40.361363636363635,
                "pitch": 54,
                "velocity": 101,
                "duration": 0.18181818181817988,
                "tempo": 120.0
            },
            {
                "start_time": 40.179545454545455,
                "end_time": 40.486363636363635,
                "pitch": 51,
                "velocity": 101,
                "duration": 0.3068181818181799,
                "tempo": 120.0
            },
            {
                "start_time": 40.39772727272727,
                "end_time": 40.486363636363635,
                "pitch": 51,
                "velocity": 101,
                "duration": 0.08863636363636118,
                "tempo": 120.0
            },
            {
                "start_time": 40.39772727272727,
                "end_time": 40.595454545454544,
                "pitch": 54,
                "velocity": 101,
                "duration": 0.19772727272727053,
                "tempo": 120.0
            },
            {
                "start_time": 40.50454545454545,
                "end_time": 40.595454545454544,
                "pitch": 54,
                "velocity": 101,
                "duration": 0.09090909090909349,
                "tempo": 120.0
            },
            {
                "start_time": 35.309090909090905,
                "end_time": 40.61363636363636,
                "pitch": 66,
                "velocity": 101,
                "duration": 5.304545454545455,
                "tempo": 120.0
            },
            {
                "start_time": 40.61363636363636,
                "end_time": 40.70227272727273,
                "pitch": 55,
                "velocity": 101,
                "duration": 0.08863636363636829,
                "tempo": 120.0
            },
            {
                "start_time": 40.72272727272727,
                "end_time": 40.81363636363636,
                "pitch": 55,
                "velocity": 101,
                "duration": 0.09090909090909349,
                "tempo": 120.0
            },
            {
                "start_time": 40.834090909090904,
                "end_time": 40.92727272727272,
                "pitch": 55,
                "velocity": 101,
                "duration": 0.0931818181818187,
                "tempo": 120.0
            },
            {
                "start_time": 40.94772727272727,
                "end_time": 41.04090909090909,
                "pitch": 67,
                "velocity": 101,
                "duration": 0.0931818181818187,
                "tempo": 120.0
            },
            {
                "start_time": 41.059090909090905,
                "end_time": 41.24545454545454,
                "pitch": 55,
                "velocity": 101,
                "duration": 0.1863636363636374,
                "tempo": 120.0
            },
            {
                "start_time": 41.28409090909091,
                "end_time": 41.375,
                "pitch": 55,
                "velocity": 101,
                "duration": 0.09090909090909349,
                "tempo": 120.0
            },
            {
                "start_time": 41.393181818181816,
                "end_time": 41.48409090909091,
                "pitch": 67,
                "velocity": 101,
                "duration": 0.09090909090909349,
                "tempo": 120.0
            },
            {
                "start_time": 41.50454545454545,
                "end_time": 41.595454545454544,
                "pitch": 55,
                "velocity": 101,
                "duration": 0.09090909090909349,
                "tempo": 120.0
            },
            {
                "start_time": 41.61363636363636,
                "end_time": 41.70681818181818,
                "pitch": 53,
                "velocity": 101,
                "duration": 0.0931818181818187,
                "tempo": 120.0
            },
            {
                "start_time": 40.61363636363636,
                "end_time": 41.725,
                "pitch": 66,
                "velocity": 101,
                "duration": 1.1113636363636417,
                "tempo": 120.0
            },
            {
                "start_time": 41.725,
                "end_time": 41.90909090909091,
                "pitch": 58,
                "velocity": 101,
                "duration": 0.18409090909090509,
                "tempo": 120.0
            },
            {
                "start_time": 41.945454545454545,
                "end_time": 42.03636363636363,
                "pitch": 58,
                "velocity": 101,
                "duration": 0.09090909090908639,
                "tempo": 120.0
            },
            {
                "start_time": 42.05681818181818,
                "end_time": 42.14772727272727,
                "pitch": 52,
                "velocity": 101,
                "duration": 0.09090909090909349,
                "tempo": 120.0
            },
            {
                "start_time": 42.16590909090909,
                "end_time": 42.25909090909091,
                "pitch": 52,
                "velocity": 101,
                "duration": 0.0931818181818187,
                "tempo": 120.0
            },
            {
                "start_time": 41.725,
                "end_time": 42.277272727272724,
                "pitch": 66,
                "velocity": 101,
                "duration": 0.5522727272727224,
                "tempo": 120.0
            },
            {
                "start_time": 42.277272727272724,
                "end_time": 42.36818181818182,
                "pitch": 55,
                "velocity": 101,
                "duration": 0.09090909090909349,
                "tempo": 120.0
            },
            {
                "start_time": 42.38636363636363,
                "end_time": 42.38863636363636,
                "pitch": 55,
                "velocity": 101,
                "duration": 0.0022727272727252057,
                "tempo": 120.0
            },
            {
                "start_time": 42.38863636363636,
                "end_time": 42.47954545454545,
                "pitch": 58,
                "velocity": 101,
                "duration": 0.09090909090909349,
                "tempo": 120.0
            },
            {
                "start_time": 53.111363636363635,
                "end_time": 54.58181818181818,
                "pitch": 81,
                "velocity": 101,
                "duration": 1.470454545454544,
                "tempo": 120.0
            },
            {
                "start_time": 54.877272727272725,
                "end_time": 56.35227272727273,
                "pitch": 71,
                "velocity": 101,
                "duration": 1.4750000000000014,
                "tempo": 120.0
            }
        ],
        "Electric Piano 1": [
            {
                "start_time": 38.95454545454545,
                "end_time": 40.43181818181818,
                "pitch": 72,
                "velocity": 101,
                "duration": 1.4772727272727266,
                "tempo": 120.0
            },
            {
                "start_time": 40.720454545454544,
                "end_time": 40.72272727272727,
                "pitch": 96,
                "velocity": 101,
                "duration": 0.0022727272727252057,
                "tempo": 120.0
            },
            {
                "start_time": 40.72272727272727,
                "end_time": 42.20227272727273,
                "pitch": 98,
                "velocity": 101,
                "duration": 1.479545454545459,
                "tempo": 120.0
            }
        ],
        "Church Organ": [
            {
                "start_time": 23.04090909090909,
                "end_time": 24.513636363636362,
                "pitch": 73,
                "velocity": 127,
                "duration": 1.4727272727272727,
                "tempo": 120.0
            },
            {
                "start_time": 24.80681818181818,
                "end_time": 26.286363636363635,
                "pitch": 73,
                "velocity": 127,
                "duration": 1.4795454545454554,
                "tempo": 120.0
            },
            {
                "start_time": 26.575,
                "end_time": 28.052272727272726,
                "pitch": 74,
                "velocity": 127,
                "duration": 1.4772727272727266,
                "tempo": 120.0
            }
        ]
    }
}