{
    "track_id": "08 Boss 1",
    "mood": "angry",
    "instruments": {
        "Lead 2 (sawtooth)": [
            {
                "start_time": 0.006818181818181818,
                "end_time": 0.7545454545454545,
                "pitch": 64,
                "velocity": 64,
                "duration": 0.7477272727272727,
                "tempo": 120.0
            },
            {
                "start_time": 0.7545454545454545,
                "end_time": 1.518181818181818,
                "pitch": 67,
                "velocity": 64,
                "duration": 0.7636363636363636,
                "tempo": 120.0
            },
            {
                "start_time": 1.518181818181818,
                "end_time": 1.909090909090909,
                "pitch": 64,
                "velocity": 64,
                "duration": 0.3909090909090909,
                "tempo": 120.0
            },
            {
                "start_time": 1.909090909090909,
                "end_time": 2.0977272727272727,
                "pitch": 76,
                "velocity": 64,
                "duration": 0.1886363636363637,
                "tempo": 120.0
            },
            {
                "start_time": 2.0977272727272727,
                "end_time": 3.065909090909091,
                "pitch": 75,
                "velocity": 64,
                "duration": 0.9681818181818183,
                "tempo": 120.0
            },
            {
                "start_time": 3.065909090909091,
                "end_time": 3.852272727272727,
                "pitch": 64,
                "velocity": 64,
                "duration": 0.7863636363636362,
                "tempo": 120.0
            },
            {
                "start_time": 3.852272727272727,
                "end_time": 4.61590909090909,
                "pitch": 67,
                "velocity": 64,
                "duration": 0.7636363636363632,
                "tempo": 120.0
            },
            {
                "start_time": 4.61590909090909,
                "end_time": 4.99090909090909,
                "pitch": 64,
                "velocity": 64,
                "duration": 0.375,
                "tempo": 120.0
            },
            {
                "start_time": 4.99090909090909,
                "end_time": 5.193181818181818,
                "pitch": 64,
                "velocity": 64,
                "duration": 0.20227272727272805,
                "tempo": 120.0
            },
            {
                "start_time": 5.193181818181818,
                "end_time": 6.163636363636363,
                "pitch": 63,
                "velocity": 64,
                "duration": 0.9704545454545448,
                "tempo": 120.0
            },
            {
                "start_time": 6.163636363636363,
                "end_time": 6.9409090909090905,
                "pitch": 64,
                "velocity": 64,
                "duration": 0.7772727272727273,
                "tempo": 120.0
            },
            {
                "start_time": 6.9431818181818175,
                "end_time": 7.715909090909091,
                "pitch": 67,
                "velocity": 64,
                "duration": 0.7727272727272734,
                "tempo": 120.0
            },
            {
                "start_time": 7.715909090909091,
                "end_time": 8.1,
                "pitch": 64,
                "velocity": 64,
                "duration": 0.3840909090909088,
                "tempo": 120.0
            },
            {
                "start_time": 8.1,
                "end_time": 8.295454545454545,
                "pitch": 76,
                "velocity": 64,
                "duration": 0.19545454545454533,
                "tempo": 120.0
            },
            {
                "start_time": 8.297727272727272,
                "end_time": 9.272727272727272,
                "pitch": 75,
                "velocity": 64,
                "duration": 0.9749999999999996,
                "tempo": 120.0
            },
            {
                "start_time": 9.272727272727272,
                "end_time": 10.025,
                "pitch": 64,
                "velocity": 64,
                "duration": 0.7522727272727288,
                "tempo": 120.0
            },
            {
                "start_time": 10.025,
                "end_time": 10.825,
                "pitch": 67,
                "velocity": 64,
                "duration": 0.7999999999999989,
                "tempo": 120.0
            },
            {
                "start_time": 10.825,
                "end_time": 11.2,
                "pitch": 64,
                "velocity": 64,
                "duration": 0.375,
                "tempo": 120.0
            },
            {
                "start_time": 11.2,
                "end_time": 11.395454545454545,
                "pitch": 64,
                "velocity": 64,
                "duration": 0.19545454545454533,
                "tempo": 120.0
            },
            {
                "start_time": 11.397727272727272,
                "end_time": 12.354545454545454,
                "pitch": 63,
                "velocity": 64,
                "duration": 0.956818181818182,
                "tempo": 120.0
            }
        ],
        "Synth Bass 1": [
            {
                "start_time": 0.0022727272727272726,
                "end_time": 0.18181818181818182,
                "pitch": 45,
                "velocity": 80,
                "duration": 0.17954545454545456,
                "tempo": 120.0
            },
            {
                "start_time": 0.18181818181818182,
                "end_time": 0.37727272727272726,
                "pitch": 45,
                "velocity": 80,
                "duration": 0.19545454545454544,
                "tempo": 120.0
            },
            {
                "start_time": 0.37727272727272726,
                "end_time": 0.5568181818181818,
                "pitch": 45,
                "velocity": 80,
                "duration": 0.1795454545454545,
                "tempo": 120.0
            },
            {
                "start_time": 0.5568181818181818,
                "end_time": 0.7545454545454545,
                "pitch": 45,
                "velocity": 80,
                "duration": 0.19772727272727275,
                "tempo": 120.0
            },
            {
                "start_time": 0.7545454545454545,
                "end_time": 0.95,
                "pitch": 45,
                "velocity": 80,
                "duration": 0.19545454545454544,
                "tempo": 120.0
            },
            {
                "start_time": 0.95,
                "end_time": 1.1295454545454544,
                "pitch": 45,
                "velocity": 80,
                "duration": 0.17954545454545445,
                "tempo": 120.0
            },
            {
                "start_time": 1.1295454545454544,
                "end_time": 1.3318181818181818,
                "pitch": 45,
                "velocity": 80,
                "duration": 0.20227272727272738,
                "tempo": 120.0
            },
            {
                "start_time": 1.3318181818181818,
                "end_time": 1.5159090909090909,
                "pitch": 45,
                "velocity": 80,
                "duration": 0.18409090909090908,
                "tempo": 120.0
            },
            {
                "start_time": 1.5159090909090909,
                "end_time": 1.7113636363636362,
                "pitch": 45,
                "velocity": 80,
                "duration": 0.19545454545454533,
                "tempo": 120.0
            },
            {
                "start_time": 1.7113636363636362,
                "end_time": 1.909090909090909,
                "pitch": 45,
                "velocity": 80,
                "duration": 0.19772727272727275,
                "tempo": 120.0
            },
            {
                "start_time": 1.909090909090909,
                "end_time": 2.0954545454545452,
                "pitch": 45,
                "velocity": 80,
                "duration": 0.1863636363636363,
                "tempo": 120.0
            },
            {
                "start_time": 2.0954545454545452,
                "end_time": 2.3022727272727272,
                "pitch": 45,
                "velocity": 80,
                "duration": 0.206818181818182,
                "tempo": 120.0
            },
            {
                "start_time": 2.3022727272727272,
                "end_time": 2.4818181818181815,
                "pitch": 45,
                "velocity": 80,
                "duration": 0.17954545454545423,
                "tempo": 120.0
            },
            {
                "start_time": 2.4818181818181815,
                "end_time": 2.6772727272727272,
                "pitch": 42,
                "velocity": 80,
                "duration": 0.19545454545454577,
                "tempo": 120.0
            },
            {
                "start_time": 2.6772727272727272,
                "end_time": 2.8795454545454544,
                "pitch": 43,
                "velocity": 80,
                "duration": 0.20227272727272716,
                "tempo": 120.0
            },
            {
                "start_time": 2.8795454545454544,
                "end_time": 3.0636363636363635,
                "pitch": 44,
                "velocity": 80,
                "duration": 0.18409090909090908,
                "tempo": 120.0
            },
            {
                "start_time": 3.0636363636363635,
                "end_time": 3.259090909090909,
                "pitch": 45,
                "velocity": 80,
                "duration": 0.19545454545454533,
                "tempo": 120.0
            },
            {
                "start_time": 3.259090909090909,
                "end_time": 3.4568181818181816,
                "pitch": 45,
                "velocity": 80,
                "duration": 0.19772727272727275,
                "tempo": 120.0
            },
            {
                "start_time": 3.4568181818181816,
                "end_time": 3.645454545454545,
                "pitch": 45,
                "velocity": 80,
                "duration": 0.1886363636363635,
                "tempo": 120.0
            },
            {
                "start_time": 3.645454545454545,
                "end_time": 3.852272727272727,
                "pitch": 45,
                "velocity": 80,
                "duration": 0.206818181818182,
                "tempo": 120.0
            },
            {
                "start_time": 3.852272727272727,
                "end_time": 4.031818181818181,
                "pitch": 45,
                "velocity": 80,
                "duration": 0.17954545454545423,
                "tempo": 120.0
            },
            {
                "start_time": 4.031818181818181,
                "end_time": 4.227272727272727,
                "pitch": 45,
                "velocity": 80,
                "duration": 0.19545454545454533,
                "tempo": 120.0
            },
            {
                "start_time": 4.2295454545454545,
                "end_time": 4.429545454545455,
                "pitch": 45,
                "velocity": 80,
                "duration": 0.20000000000000018,
                "tempo": 120.0
            },
            {
                "start_time": 4.429545454545455,
                "end_time": 4.613636363636363,
                "pitch": 45,
                "velocity": 80,
                "duration": 0.18409090909090864,
                "tempo": 120.0
            },
            {
                "start_time": 4.613636363636363,
                "end_time": 4.8113636363636365,
                "pitch": 45,
                "velocity": 80,
                "duration": 0.1977272727272732,
                "tempo": 120.0
            },
            {
                "start_time": 4.8113636363636365,
                "end_time": 4.99090909090909,
                "pitch": 45,
                "velocity": 80,
                "duration": 0.1795454545454538,
                "tempo": 120.0
            },
            {
                "start_time": 4.99090909090909,
                "end_time": 5.1909090909090905,
                "pitch": 45,
                "velocity": 80,
                "duration": 0.20000000000000018,
                "tempo": 120.0
            },
            {
                "start_time": 5.1909090909090905,
                "end_time": 5.393181818181818,
                "pitch": 45,
                "velocity": 80,
                "duration": 0.20227272727272716,
                "tempo": 120.0
            },
            {
                "start_time": 5.393181818181818,
                "end_time": 5.581818181818181,
                "pitch": 45,
                "velocity": 80,
                "duration": 0.1886363636363635,
                "tempo": 120.0
            },
            {
                "start_time": 5.581818181818181,
                "end_time": 5.786363636363636,
                "pitch": 42,
                "velocity": 80,
                "duration": 0.20454545454545503,
                "tempo": 120.0
            },
            {
                "start_time": 5.786363636363636,
                "end_time": 5.965909090909091,
                "pitch": 43,
                "velocity": 80,
                "duration": 0.17954545454545467,
                "tempo": 120.0
            },
            {
                "start_time": 5.965909090909091,
                "end_time": 6.163636363636363,
                "pitch": 44,
                "velocity": 80,
                "duration": 0.1977272727272723,
                "tempo": 120.0
            },
            {
                "start_time": 6.163636363636363,
                "end_time": 6.363636363636363,
                "pitch": 45,
                "velocity": 80,
                "duration": 0.20000000000000018,
                "tempo": 120.0
            },
            {
                "start_time": 6.363636363636363,
                "end_time": 6.547727272727273,
                "pitch": 45,
                "velocity": 80,
                "duration": 0.18409090909090953,
                "tempo": 120.0
            },
            {
                "start_time": 6.547727272727273,
                "end_time": 6.745454545454545,
                "pitch": 45,
                "velocity": 80,
                "duration": 0.1977272727272723,
                "tempo": 120.0
            },
            {
                "start_time": 6.745454545454545,
                "end_time": 6.9409090909090905,
                "pitch": 45,
                "velocity": 80,
                "duration": 0.19545454545454533,
                "tempo": 120.0
            },
            {
                "start_time": 6.9409090909090905,
                "end_time": 7.129545454545454,
                "pitch": 45,
                "velocity": 80,
                "duration": 0.1886363636363635,
                "tempo": 120.0
            },
            {
                "start_time": 7.129545454545454,
                "end_time": 7.336363636363636,
                "pitch": 45,
                "velocity": 80,
                "duration": 0.206818181818182,
                "tempo": 120.0
            },
            {
                "start_time": 7.336363636363636,
                "end_time": 7.515909090909091,
                "pitch": 45,
                "velocity": 80,
                "duration": 0.17954545454545467,
                "tempo": 120.0
            },
            {
                "start_time": 7.518181818181818,
                "end_time": 7.713636363636363,
                "pitch": 45,
                "velocity": 80,
                "duration": 0.19545454545454533,
                "tempo": 120.0
            },
            {
                "start_time": 7.713636363636363,
                "end_time": 7.913636363636363,
                "pitch": 45,
                "velocity": 80,
                "duration": 0.20000000000000018,
                "tempo": 120.0
            },
            {
                "start_time": 7.913636363636363,
                "end_time": 8.1,
                "pitch": 45,
                "velocity": 80,
                "duration": 0.1863636363636365,
                "tempo": 120.0
            },
            {
                "start_time": 8.1,
                "end_time": 8.295454545454545,
                "pitch": 45,
                "velocity": 80,
                "duration": 0.19545454545454533,
                "tempo": 120.0
            },
            {
                "start_time": 8.295454545454545,
                "end_time": 8.475,
                "pitch": 45,
                "velocity": 80,
                "duration": 0.17954545454545467,
                "tempo": 120.0
            },
            {
                "start_time": 8.475,
                "end_time": 8.670454545454545,
                "pitch": 45,
                "velocity": 80,
                "duration": 0.19545454545454533,
                "tempo": 120.0
            },
            {
                "start_time": 8.672727272727272,
                "end_time": 8.868181818181817,
                "pitch": 42,
                "velocity": 80,
                "duration": 0.19545454545454533,
                "tempo": 120.0
            },
            {
                "start_time": 8.868181818181817,
                "end_time": 9.061363636363636,
                "pitch": 43,
                "velocity": 80,
                "duration": 0.19318181818181834,
                "tempo": 120.0
            },
            {
                "start_time": 9.061363636363636,
                "end_time": 9.272727272727272,
                "pitch": 44,
                "velocity": 80,
                "duration": 0.21136363636363598,
                "tempo": 120.0
            },
            {
                "start_time": 9.272727272727272,
                "end_time": 9.468181818181817,
                "pitch": 45,
                "velocity": 80,
                "duration": 0.19545454545454533,
                "tempo": 120.0
            },
            {
                "start_time": 9.468181818181817,
                "end_time": 9.647727272727272,
                "pitch": 45,
                "velocity": 80,
                "duration": 0.17954545454545467,
                "tempo": 120.0
            },
            {
                "start_time": 9.647727272727272,
                "end_time": 9.843181818181817,
                "pitch": 45,
                "velocity": 80,
                "duration": 0.19545454545454533,
                "tempo": 120.0
            },
            {
                "start_time": 9.845454545454546,
                "end_time": 10.025,
                "pitch": 45,
                "velocity": 80,
                "duration": 0.17954545454545467,
                "tempo": 120.0
            },
            {
                "start_time": 10.025,
                "end_time": 10.225,
                "pitch": 45,
                "velocity": 80,
                "duration": 0.1999999999999993,
                "tempo": 120.0
            },
            {
                "start_time": 10.225,
                "end_time": 10.427272727272726,
                "pitch": 45,
                "velocity": 80,
                "duration": 0.20227272727272627,
                "tempo": 120.0
            },
            {
                "start_time": 10.427272727272726,
                "end_time": 10.61590909090909,
                "pitch": 45,
                "velocity": 80,
                "duration": 0.18863636363636438,
                "tempo": 120.0
            },
            {
                "start_time": 10.61590909090909,
                "end_time": 10.822727272727272,
                "pitch": 45,
                "velocity": 80,
                "duration": 0.206818181818182,
                "tempo": 120.0
            },
            {
                "start_time": 10.822727272727272,
                "end_time": 11.002272727272727,
                "pitch": 45,
                "velocity": 80,
                "duration": 0.17954545454545467,
                "tempo": 120.0
            },
            {
                "start_time": 11.002272727272727,
                "end_time": 11.2,
                "pitch": 45,
                "velocity": 80,
                "duration": 0.1977272727272723,
                "tempo": 120.0
            },
            {
                "start_time": 11.2,
                "end_time": 11.395454545454545,
                "pitch": 45,
                "velocity": 80,
                "duration": 0.19545454545454533,
                "tempo": 120.0
            },
            {
                "start_time": 11.395454545454545,
                "end_time": 11.575,
                "pitch": 45,
                "velocity": 80,
                "duration": 0.17954545454545467,
                "tempo": 120.0
            },
            {
                "start_time": 11.575,
                "end_time": 11.777272727272727,
                "pitch": 45,
                "velocity": 80,
                "duration": 0.20227272727272805,
                "tempo": 120.0
            },
            {
                "start_time": 11.777272727272727,
                "end_time": 11.961363636363636,
                "pitch": 42,
                "velocity": 80,
                "duration": 0.18409090909090864,
                "tempo": 120.0
            },
            {
                "start_time": 11.961363636363636,
                "end_time": 12.156818181818181,
                "pitch": 43,
                "velocity": 80,
                "duration": 0.19545454545454533,
                "tempo": 120.0
            },
            {
                "start_time": 12.156818181818181,
                "end_time": 12.354545454545454,
                "pitch": 44,
                "velocity": 80,
                "duration": 0.1977272727272723,
                "tempo": 120.0
            },
            {
                "start_time": 12.354545454545454,
                "end_time": 13.125,
                "pitch": 45,
                "velocity": 80,
                "duration": 0.7704545454545464,
                "tempo": 120.0
            },
            {
                "start_time": 13.125,
                "end_time": 13.904545454545454,
                "pitch": 51,
                "velocity": 80,
                "duration": 0.7795454545454543,
                "tempo": 120.0
            },
            {
                "start_time": 13.904545454545454,
                "end_time": 14.684090909090909,
                "pitch": 45,
                "velocity": 80,
                "duration": 0.7795454545454543,
                "tempo": 120.0
            },
            {
                "start_time": 14.684090909090909,
                "end_time": 15.452272727272726,
                "pitch": 55,
                "velocity": 80,
                "duration": 0.7681818181818176,
                "tempo": 120.0
            },
            {
                "start_time": 15.452272727272726,
                "end_time": 16.23181818181818,
                "pitch": 45,
                "velocity": 80,
                "duration": 0.7795454545454543,
                "tempo": 120.0
            },
            {
                "start_time": 16.23409090909091,
                "end_time": 16.995454545454546,
                "pitch": 51,
                "velocity": 80,
                "duration": 0.7613636363636367,
                "tempo": 120.0
            },
            {
                "start_time": 16.995454545454546,
                "end_time": 17.784090909090907,
                "pitch": 45,
                "velocity": 80,
                "duration": 0.7886363636363605,
                "tempo": 120.0
            },
            {
                "start_time": 17.784090909090907,
                "end_time": 18.545454545454543,
                "pitch": 55,
                "velocity": 80,
                "duration": 0.7613636363636367,
                "tempo": 120.0
            }
        ],
        "Electric Piano 1": [
            {
                "start_time": 0.006818181818181818,
                "end_time": 0.18181818181818182,
                "pitch": 45,
                "velocity": 64,
                "duration": 0.17500000000000002,
                "tempo": 120.0
            },
            {
                "start_time": 0.18181818181818182,
                "end_time": 0.37727272727272726,
                "pitch": 48,
                "velocity": 64,
                "duration": 0.19545454545454544,
                "tempo": 120.0
            },
            {
                "start_time": 0.3795454545454545,
                "end_time": 0.5590909090909091,
                "pitch": 52,
                "velocity": 64,
                "duration": 0.17954545454545456,
                "tempo": 120.0
            },
            {
                "start_time": 0.5590909090909091,
                "end_time": 0.95,
                "pitch": 51,
                "velocity": 64,
                "duration": 0.3909090909090909,
                "tempo": 120.0
            },
            {
                "start_time": 0.95,
                "end_time": 1.3318181818181818,
                "pitch": 50,
                "velocity": 64,
                "duration": 0.38181818181818183,
                "tempo": 120.0
            },
            {
                "start_time": 1.3318181818181818,
                "end_time": 1.5159090909090909,
                "pitch": 48,
                "velocity": 64,
                "duration": 0.18409090909090908,
                "tempo": 120.0
            },
            {
                "start_time": 1.5159090909090909,
                "end_time": 1.7136363636363636,
                "pitch": 45,
                "velocity": 64,
                "duration": 0.19772727272727275,
                "tempo": 120.0
            },
            {
                "start_time": 1.7136363636363636,
                "end_time": 2.0977272727272727,
                "pitch": 45,
                "velocity": 64,
                "duration": 0.38409090909090904,
                "tempo": 120.0
            },
            {
                "start_time": 2.0977272727272727,
                "end_time": 3.0636363636363635,
                "pitch": 56,
                "velocity": 64,
                "duration": 0.9659090909090908,
                "tempo": 120.0
            },
            {
                "start_time": 3.065909090909091,
                "end_time": 3.2613636363636362,
                "pitch": 45,
                "velocity": 64,
                "duration": 0.19545454545454533,
                "tempo": 120.0
            },
            {
                "start_time": 3.2613636363636362,
                "end_time": 3.4568181818181816,
                "pitch": 48,
                "velocity": 64,
                "duration": 0.19545454545454533,
                "tempo": 120.0
            },
            {
                "start_time": 3.4568181818181816,
                "end_time": 3.645454545454545,
                "pitch": 52,
                "velocity": 64,
                "duration": 0.1886363636363635,
                "tempo": 120.0
            },
            {
                "start_time": 3.6477272727272725,
                "end_time": 4.031818181818181,
                "pitch": 51,
                "velocity": 64,
                "duration": 0.3840909090909088,
                "tempo": 120.0
            },
            {
                "start_time": 4.034090909090909,
                "end_time": 4.429545454545455,
                "pitch": 50,
                "velocity": 64,
                "duration": 0.3954545454545455,
                "tempo": 120.0
            },
            {
                "start_time": 4.429545454545455,
                "end_time": 4.61590909090909,
                "pitch": 48,
                "velocity": 64,
                "duration": 0.18636363636363562,
                "tempo": 120.0
            },
            {
                "start_time": 4.61590909090909,
                "end_time": 4.8113636363636365,
                "pitch": 45,
                "velocity": 64,
                "duration": 0.1954545454545462,
                "tempo": 120.0
            },
            {
                "start_time": 4.8113636363636365,
                "end_time": 5.193181818181818,
                "pitch": 45,
                "velocity": 64,
                "duration": 0.38181818181818183,
                "tempo": 120.0
            },
            {
                "start_time": 5.193181818181818,
                "end_time": 6.163636363636363,
                "pitch": 44,
                "velocity": 64,
                "duration": 0.9704545454545448,
                "tempo": 120.0
            },
            {
                "start_time": 6.163636363636363,
                "end_time": 6.363636363636363,
                "pitch": 45,
                "velocity": 64,
                "duration": 0.20000000000000018,
                "tempo": 120.0
            },
            {
                "start_time": 6.36590909090909,
                "end_time": 6.55,
                "pitch": 48,
                "velocity": 64,
                "duration": 0.18409090909090953,
                "tempo": 120.0
            },
            {
                "start_time": 6.55,
                "end_time": 6.745454545454545,
                "pitch": 52,
                "velocity": 64,
                "duration": 0.19545454545454533,
                "tempo": 120.0
            },
            {
                "start_time": 6.745454545454545,
                "end_time": 7.131818181818182,
                "pitch": 51,
                "velocity": 64,
                "duration": 0.3863636363636367,
                "tempo": 120.0
            },
            {
                "start_time": 7.131818181818182,
                "end_time": 7.518181818181818,
                "pitch": 50,
                "velocity": 64,
                "duration": 0.3863636363636358,
                "tempo": 120.0
            },
            {
                "start_time": 7.518181818181818,
                "end_time": 7.713636363636363,
                "pitch": 48,
                "velocity": 64,
                "duration": 0.19545454545454533,
                "tempo": 120.0
            },
            {
                "start_time": 7.713636363636363,
                "end_time": 7.91590909090909,
                "pitch": 45,
                "velocity": 64,
                "duration": 0.20227272727272716,
                "tempo": 120.0
            },
            {
                "start_time": 7.91590909090909,
                "end_time": 8.295454545454545,
                "pitch": 45,
                "velocity": 64,
                "duration": 0.37954545454545485,
                "tempo": 120.0
            },
            {
                "start_time": 8.295454545454545,
                "end_time": 9.272727272727272,
                "pitch": 56,
                "velocity": 64,
                "duration": 0.9772727272727266,
                "tempo": 120.0
            },
            {
                "start_time": 9.272727272727272,
                "end_time": 9.468181818181817,
                "pitch": 45,
                "velocity": 64,
                "duration": 0.19545454545454533,
                "tempo": 120.0
            },
            {
                "start_time": 9.468181818181817,
                "end_time": 9.647727272727272,
                "pitch": 48,
                "velocity": 64,
                "duration": 0.17954545454545467,
                "tempo": 120.0
            },
            {
                "start_time": 9.65,
                "end_time": 9.845454545454546,
                "pitch": 52,
                "velocity": 64,
                "duration": 0.19545454545454533,
                "tempo": 120.0
            },
            {
                "start_time": 9.845454545454546,
                "end_time": 10.225,
                "pitch": 51,
                "velocity": 64,
                "duration": 0.37954545454545396,
                "tempo": 120.0
            },
            {
                "start_time": 10.227272727272727,
                "end_time": 10.61590909090909,
                "pitch": 50,
                "velocity": 64,
                "duration": 0.38863636363636367,
                "tempo": 120.0
            },
            {
                "start_time": 10.618181818181817,
                "end_time": 10.825,
                "pitch": 48,
                "velocity": 64,
                "duration": 0.206818181818182,
                "tempo": 120.0
            },
            {
                "start_time": 10.825,
                "end_time": 11.004545454545454,
                "pitch": 45,
                "velocity": 64,
                "duration": 0.17954545454545467,
                "tempo": 120.0
            },
            {
                "start_time": 11.004545454545454,
                "end_time": 11.395454545454545,
                "pitch": 45,
                "velocity": 64,
                "duration": 0.39090909090909065,
                "tempo": 120.0
            },
            {
                "start_time": 11.395454545454545,
                "end_time": 12.354545454545454,
                "pitch": 44,
                "velocity": 64,
                "duration": 0.959090909090909,
                "tempo": 120.0
            },
            {
                "start_time": 12.354545454545454,
                "end_time": 13.127272727272727,
                "pitch": 45,
                "velocity": 80,
                "duration": 0.7727272727272734,
                "tempo": 120.0
            },
            {
                "start_time": 13.127272727272727,
                "end_time": 13.904545454545454,
                "pitch": 51,
                "velocity": 80,
                "duration": 0.7772727272727273,
                "tempo": 120.0
            },
            {
                "start_time": 13.906818181818181,
                "end_time": 14.684090909090909,
                "pitch": 45,
                "velocity": 80,
                "duration": 0.7772727272727273,
                "tempo": 120.0
            },
            {
                "start_time": 14.684090909090909,
                "end_time": 15.454545454545453,
                "pitch": 55,
                "velocity": 80,
                "duration": 0.7704545454545446,
                "tempo": 120.0
            },
            {
                "start_time": 15.454545454545453,
                "end_time": 16.23409090909091,
                "pitch": 45,
                "velocity": 80,
                "duration": 0.7795454545454561,
                "tempo": 120.0
            },
            {
                "start_time": 16.23409090909091,
                "end_time": 16.995454545454546,
                "pitch": 51,
                "velocity": 80,
                "duration": 0.7613636363636367,
                "tempo": 120.0
            },
            {
                "start_time": 16.995454545454546,
                "end_time": 17.784090909090907,
                "pitch": 45,
                "velocity": 80,
                "duration": 0.7886363636363605,
                "tempo": 120.0
            },
            {
                "start_time": 17.784090909090907,
                "end_time": 18.545454545454543,
                "pitch": 55,
                "velocity": 80,
                "duration": 0.7613636363636367,
                "tempo": 120.0
            }
        ],
        "Trumpet": [
            {
                "start_time": 0.049999999999999996,
                "end_time": 0.8181818181818181,
                "pitch": 52,
                "velocity": 64,
                "duration": 0.7681818181818181,
                "tempo": 120.0
            },
            {
                "start_time": 0.8181818181818181,
                "end_time": 1.5159090909090909,
                "pitch": 55,
                "velocity": 64,
                "duration": 0.6977272727272728,
                "tempo": 120.0
            },
            {
                "start_time": 1.5818181818181818,
                "end_time": 1.959090909090909,
                "pitch": 52,
                "velocity": 64,
                "duration": 0.3772727272727272,
                "tempo": 120.0
            },
            {
                "start_time": 1.959090909090909,
                "end_time": 2.1636363636363636,
                "pitch": 64,
                "velocity": 64,
                "duration": 0.20454545454545459,
                "tempo": 120.0
            },
            {
                "start_time": 2.1636363636363636,
                "end_time": 3.0636363636363635,
                "pitch": 63,
                "velocity": 64,
                "duration": 0.8999999999999999,
                "tempo": 120.0
            },
            {
                "start_time": 3.1295454545454544,
                "end_time": 3.918181818181818,
                "pitch": 52,
                "velocity": 64,
                "duration": 0.7886363636363636,
                "tempo": 120.0
            },
            {
                "start_time": 3.918181818181818,
                "end_time": 4.613636363636363,
                "pitch": 55,
                "velocity": 64,
                "duration": 0.6954545454545453,
                "tempo": 120.0
            },
            {
                "start_time": 4.679545454545455,
                "end_time": 5.056818181818182,
                "pitch": 52,
                "velocity": 64,
                "duration": 0.377272727272727,
                "tempo": 120.0
            },
            {
                "start_time": 5.056818181818182,
                "end_time": 5.259090909090909,
                "pitch": 52,
                "velocity": 64,
                "duration": 0.20227272727272716,
                "tempo": 120.0
            },
            {
                "start_time": 5.259090909090909,
                "end_time": 6.163636363636363,
                "pitch": 51,
                "velocity": 64,
                "duration": 0.9045454545454543,
                "tempo": 120.0
            },
            {
                "start_time": 6.2295454545454545,
                "end_time": 6.99090909090909,
                "pitch": 52,
                "velocity": 64,
                "duration": 0.7613636363636358,
                "tempo": 120.0
            },
            {
                "start_time": 6.993181818181818,
                "end_time": 7.713636363636363,
                "pitch": 55,
                "velocity": 64,
                "duration": 0.7204545454545448,
                "tempo": 120.0
            },
            {
                "start_time": 7.779545454545454,
                "end_time": 8.163636363636364,
                "pitch": 52,
                "velocity": 64,
                "duration": 0.3840909090909097,
                "tempo": 120.0
            },
            {
                "start_time": 8.163636363636364,
                "end_time": 8.361363636363636,
                "pitch": 64,
                "velocity": 64,
                "duration": 0.1977272727272723,
                "tempo": 120.0
            },
            {
                "start_time": 8.361363636363636,
                "end_time": 9.272727272727272,
                "pitch": 63,
                "velocity": 64,
                "duration": 0.9113636363636353,
                "tempo": 120.0
            },
            {
                "start_time": 9.336363636363636,
                "end_time": 10.09090909090909,
                "pitch": 52,
                "velocity": 64,
                "duration": 0.754545454545454,
                "tempo": 120.0
            },
            {
                "start_time": 10.09090909090909,
                "end_time": 10.822727272727272,
                "pitch": 55,
                "velocity": 64,
                "duration": 0.7318181818181824,
                "tempo": 120.0
            },
            {
                "start_time": 10.888636363636364,
                "end_time": 11.263636363636364,
                "pitch": 52,
                "velocity": 64,
                "duration": 0.375,
                "tempo": 120.0
            },
            {
                "start_time": 11.263636363636364,
                "end_time": 11.461363636363636,
                "pitch": 52,
                "velocity": 64,
                "duration": 0.1977272727272723,
                "tempo": 120.0
            },
            {
                "start_time": 11.461363636363636,
                "end_time": 12.354545454545454,
                "pitch": 51,
                "velocity": 64,
                "duration": 0.8931818181818176,
                "tempo": 120.0
            }
        ]
    }
}