{
    "track_id": "08 Flying on a String",
    "mood": "angry",
    "instruments": {
        "Electric Piano 1": [
            {
                "start_time": 0.011363636363636364,
                "end_time": 0.125,
                "pitch": 74,
                "velocity": 40,
                "duration": 0.11363636363636363,
                "tempo": 120.0
            },
            {
                "start_time": 0.125,
                "end_time": 0.24318181818181817,
                "pitch": 69,
                "velocity": 40,
                "duration": 0.11818181818181817,
                "tempo": 120.0
            },
            {
                "start_time": 0.24318181818181817,
                "end_time": 0.36136363636363633,
                "pitch": 74,
                "velocity": 40,
                "duration": 0.11818181818181817,
                "tempo": 120.0
            },
            {
                "start_time": 0.36136363636363633,
                "end_time": 0.7204545454545455,
                "pitch": 74,
                "velocity": 40,
                "duration": 0.3590909090909091,
                "tempo": 120.0
            },
            {
                "start_time": 0.7204545454545455,
                "end_time": 0.9454545454545454,
                "pitch": 70,
                "velocity": 40,
                "duration": 0.22499999999999998,
                "tempo": 120.0
            },
            {
                "start_time": 0.9454545454545454,
                "end_time": 1.1954545454545453,
                "pitch": 74,
                "velocity": 40,
                "duration": 0.2499999999999999,
                "tempo": 120.0
            },
            {
                "start_time": 1.1954545454545453,
                "end_time": 1.4295454545454545,
                "pitch": 70,
                "velocity": 40,
                "duration": 0.23409090909090913,
                "tempo": 120.0
            },
            {
                "start_time": 1.4295454545454545,
                "end_time": 1.6681818181818182,
                "pitch": 74,
                "velocity": 40,
                "duration": 0.23863636363636376,
                "tempo": 120.0
            },
            {
                "start_time": 1.6681818181818182,
                "end_time": 1.8045454545454545,
                "pitch": 70,
                "velocity": 40,
                "duration": 0.13636363636363624,
                "tempo": 120.0
            },
            {
                "start_time": 1.8045454545454545,
                "end_time": 2.040909090909091,
                "pitch": 74,
                "velocity": 40,
                "duration": 0.23636363636363655,
                "tempo": 120.0
            },
            {
                "start_time": 2.040909090909091,
                "end_time": 2.159090909090909,
                "pitch": 70,
                "velocity": 40,
                "duration": 0.11818181818181817,
                "tempo": 120.0
            },
            {
                "start_time": 2.159090909090909,
                "end_time": 2.2727272727272725,
                "pitch": 74,
                "velocity": 40,
                "duration": 0.11363636363636331,
                "tempo": 120.0
            },
            {
                "start_time": 2.275,
                "end_time": 2.6477272727272725,
                "pitch": 74,
                "velocity": 40,
                "duration": 0.3727272727272726,
                "tempo": 120.0
            },
            {
                "start_time": 2.6477272727272725,
                "end_time": 2.8863636363636362,
                "pitch": 69,
                "velocity": 40,
                "duration": 0.23863636363636376,
                "tempo": 120.0
            },
            {
                "start_time": 2.8863636363636362,
                "end_time": 3.127272727272727,
                "pitch": 74,
                "velocity": 40,
                "duration": 0.24090909090909074,
                "tempo": 120.0
            },
            {
                "start_time": 3.127272727272727,
                "end_time": 3.352272727272727,
                "pitch": 69,
                "velocity": 40,
                "duration": 0.2250000000000001,
                "tempo": 120.0
            },
            {
                "start_time": 3.352272727272727,
                "end_time": 3.609090909090909,
                "pitch": 74,
                "velocity": 40,
                "duration": 0.25681818181818183,
                "tempo": 120.0
            },
            {
                "start_time": 3.609090909090909,
                "end_time": 3.727272727272727,
                "pitch": 69,
                "velocity": 40,
                "duration": 0.11818181818181817,
                "tempo": 120.0
            },
            {
                "start_time": 3.727272727272727,
                "end_time": 3.8477272727272727,
                "pitch": 74,
                "velocity": 40,
                "duration": 0.12045454545454559,
                "tempo": 120.0
            },
            {
                "start_time": 3.8499999999999996,
                "end_time": 3.9636363636363634,
                "pitch": 74,
                "velocity": 40,
                "duration": 0.11363636363636376,
                "tempo": 120.0
            },
            {
                "start_time": 3.9636363636363634,
                "end_time": 4.081818181818182,
                "pitch": 69,
                "velocity": 40,
                "duration": 0.11818181818181861,
                "tempo": 120.0
            },
            {
                "start_time": 4.081818181818182,
                "end_time": 4.213636363636364,
                "pitch": 74,
                "velocity": 40,
                "duration": 0.13181818181818183,
                "tempo": 120.0
            },
            {
                "start_time": 4.213636363636364,
                "end_time": 4.5659090909090905,
                "pitch": 74,
                "velocity": 40,
                "duration": 0.3522727272727266,
                "tempo": 120.0
            },
            {
                "start_time": 4.5659090909090905,
                "end_time": 4.8159090909090905,
                "pitch": 70,
                "velocity": 40,
                "duration": 0.25,
                "tempo": 120.0
            },
            {
                "start_time": 4.8159090909090905,
                "end_time": 5.054545454545455,
                "pitch": 74,
                "velocity": 40,
                "duration": 0.2386363636363642,
                "tempo": 120.0
            },
            {
                "start_time": 5.054545454545455,
                "end_time": 5.293181818181818,
                "pitch": 70,
                "velocity": 40,
                "duration": 0.2386363636363633,
                "tempo": 120.0
            },
            {
                "start_time": 5.295454545454545,
                "end_time": 5.540909090909091,
                "pitch": 74,
                "velocity": 40,
                "duration": 0.24545454545454604,
                "tempo": 120.0
            },
            {
                "start_time": 5.540909090909091,
                "end_time": 5.654545454545454,
                "pitch": 70,
                "velocity": 40,
                "duration": 0.11363636363636331,
                "tempo": 120.0
            },
            {
                "start_time": 5.654545454545454,
                "end_time": 5.886363636363636,
                "pitch": 74,
                "velocity": 40,
                "duration": 0.23181818181818148,
                "tempo": 120.0
            },
            {
                "start_time": 5.886363636363636,
                "end_time": 6.0204545454545455,
                "pitch": 70,
                "velocity": 40,
                "duration": 0.1340909090909097,
                "tempo": 120.0
            },
            {
                "start_time": 6.0204545454545455,
                "end_time": 6.136363636363636,
                "pitch": 74,
                "velocity": 40,
                "duration": 0.1159090909090903,
                "tempo": 120.0
            },
            {
                "start_time": 6.136363636363636,
                "end_time": 6.49090909090909,
                "pitch": 74,
                "velocity": 40,
                "duration": 0.3545454545454545,
                "tempo": 120.0
            },
            {
                "start_time": 6.49090909090909,
                "end_time": 6.743181818181818,
                "pitch": 69,
                "velocity": 40,
                "duration": 0.25227272727272787,
                "tempo": 120.0
            },
            {
                "start_time": 6.743181818181818,
                "end_time": 6.9818181818181815,
                "pitch": 74,
                "velocity": 40,
                "duration": 0.2386363636363633,
                "tempo": 120.0
            },
            {
                "start_time": 6.9818181818181815,
                "end_time": 7.238636363636363,
                "pitch": 69,
                "velocity": 40,
                "duration": 0.25681818181818183,
                "tempo": 120.0
            },
            {
                "start_time": 7.238636363636363,
                "end_time": 7.472727272727273,
                "pitch": 74,
                "velocity": 40,
                "duration": 0.23409090909090935,
                "tempo": 120.0
            },
            {
                "start_time": 7.472727272727273,
                "end_time": 7.588636363636363,
                "pitch": 69,
                "velocity": 40,
                "duration": 0.1159090909090903,
                "tempo": 120.0
            },
            {
                "start_time": 7.588636363636363,
                "end_time": 7.706818181818181,
                "pitch": 74,
                "velocity": 40,
                "duration": 0.11818181818181817,
                "tempo": 120.0
            },
            {
                "start_time": 7.706818181818181,
                "end_time": 7.836363636363636,
                "pitch": 74,
                "velocity": 40,
                "duration": 0.12954545454545485,
                "tempo": 120.0
            },
            {
                "start_time": 7.836363636363636,
                "end_time": 7.952272727272727,
                "pitch": 69,
                "velocity": 40,
                "duration": 0.11590909090909118,
                "tempo": 120.0
            },
            {
                "start_time": 7.952272727272727,
                "end_time": 8.065909090909091,
                "pitch": 74,
                "velocity": 40,
                "duration": 0.1136363636363642,
                "tempo": 120.0
            },
            {
                "start_time": 8.065909090909091,
                "end_time": 8.431818181818182,
                "pitch": 74,
                "velocity": 40,
                "duration": 0.3659090909090903,
                "tempo": 120.0
            },
            {
                "start_time": 8.431818181818182,
                "end_time": 8.665909090909091,
                "pitch": 70,
                "velocity": 40,
                "duration": 0.23409090909090935,
                "tempo": 120.0
            },
            {
                "start_time": 8.665909090909091,
                "end_time": 8.904545454545454,
                "pitch": 74,
                "velocity": 40,
                "duration": 0.2386363636363633,
                "tempo": 120.0
            },
            {
                "start_time": 8.904545454545454,
                "end_time": 9.161363636363635,
                "pitch": 70,
                "velocity": 40,
                "duration": 0.25681818181818095,
                "tempo": 120.0
            },
            {
                "start_time": 9.161363636363635,
                "end_time": 9.395454545454545,
                "pitch": 74,
                "velocity": 40,
                "duration": 0.23409090909090935,
                "tempo": 120.0
            },
            {
                "start_time": 9.397727272727272,
                "end_time": 9.513636363636364,
                "pitch": 70,
                "velocity": 40,
                "duration": 0.11590909090909207,
                "tempo": 120.0
            },
            {
                "start_time": 9.513636363636364,
                "end_time": 9.76590909090909,
                "pitch": 74,
                "velocity": 40,
                "duration": 0.252272727272727,
                "tempo": 120.0
            },
            {
                "start_time": 9.76590909090909,
                "end_time": 9.881818181818181,
                "pitch": 70,
                "velocity": 40,
                "duration": 0.1159090909090903,
                "tempo": 120.0
            },
            {
                "start_time": 9.884090909090908,
                "end_time": 9.997727272727273,
                "pitch": 74,
                "velocity": 40,
                "duration": 0.11363636363636509,
                "tempo": 120.0
            },
            {
                "start_time": 9.997727272727273,
                "end_time": 10.363636363636363,
                "pitch": 74,
                "velocity": 40,
                "duration": 0.3659090909090903,
                "tempo": 120.0
            },
            {
                "start_time": 10.363636363636363,
                "end_time": 10.593181818181817,
                "pitch": 69,
                "velocity": 40,
                "duration": 0.2295454545454536,
                "tempo": 120.0
            },
            {
                "start_time": 10.593181818181817,
                "end_time": 10.85,
                "pitch": 74,
                "velocity": 40,
                "duration": 0.2568181818181827,
                "tempo": 120.0
            },
            {
                "start_time": 10.85,
                "end_time": 11.088636363636363,
                "pitch": 69,
                "velocity": 40,
                "duration": 0.2386363636363633,
                "tempo": 120.0
            },
            {
                "start_time": 11.088636363636363,
                "end_time": 11.322727272727272,
                "pitch": 74,
                "velocity": 40,
                "duration": 0.23409090909090935,
                "tempo": 120.0
            },
            {
                "start_time": 11.325,
                "end_time": 11.459090909090909,
                "pitch": 69,
                "velocity": 40,
                "duration": 0.1340909090909097,
                "tempo": 120.0
            },
            {
                "start_time": 11.459090909090909,
                "end_time": 11.577272727272726,
                "pitch": 74,
                "velocity": 40,
                "duration": 0.11818181818181728,
                "tempo": 120.0
            },
            {
                "start_time": 11.577272727272726,
                "end_time": 11.693181818181818,
                "pitch": 74,
                "velocity": 40,
                "duration": 0.11590909090909207,
                "tempo": 120.0
            },
            {
                "start_time": 11.693181818181818,
                "end_time": 11.809090909090909,
                "pitch": 69,
                "velocity": 40,
                "duration": 0.1159090909090903,
                "tempo": 120.0
            },
            {
                "start_time": 11.809090909090909,
                "end_time": 11.924999999999999,
                "pitch": 74,
                "velocity": 40,
                "duration": 0.1159090909090903,
                "tempo": 120.0
            },
            {
                "start_time": 11.924999999999999,
                "end_time": 12.299999999999999,
                "pitch": 74,
                "velocity": 40,
                "duration": 0.375,
                "tempo": 120.0
            },
            {
                "start_time": 12.299999999999999,
                "end_time": 12.538636363636362,
                "pitch": 70,
                "velocity": 40,
                "duration": 0.2386363636363633,
                "tempo": 120.0
            },
            {
                "start_time": 12.538636363636362,
                "end_time": 12.779545454545454,
                "pitch": 74,
                "velocity": 40,
                "duration": 0.24090909090909207,
                "tempo": 120.0
            },
            {
                "start_time": 12.779545454545454,
                "end_time": 13.004545454545454,
                "pitch": 70,
                "velocity": 40,
                "duration": 0.22499999999999964,
                "tempo": 120.0
            },
            {
                "start_time": 13.004545454545454,
                "end_time": 13.259090909090908,
                "pitch": 74,
                "velocity": 40,
                "duration": 0.25454545454545396,
                "tempo": 120.0
            },
            {
                "start_time": 13.259090909090908,
                "end_time": 13.379545454545454,
                "pitch": 70,
                "velocity": 40,
                "duration": 0.12045454545454604,
                "tempo": 120.0
            },
            {
                "start_time": 13.379545454545454,
                "end_time": 13.61590909090909,
                "pitch": 74,
                "velocity": 40,
                "duration": 0.23636363636363633,
                "tempo": 120.0
            },
            {
                "start_time": 13.61590909090909,
                "end_time": 13.734090909090908,
                "pitch": 70,
                "velocity": 40,
                "duration": 0.11818181818181728,
                "tempo": 120.0
            },
            {
                "start_time": 13.734090909090908,
                "end_time": 13.868181818181817,
                "pitch": 74,
                "velocity": 40,
                "duration": 0.1340909090909097,
                "tempo": 120.0
            },
            {
                "start_time": 13.868181818181817,
                "end_time": 14.227272727272727,
                "pitch": 74,
                "velocity": 40,
                "duration": 0.35909090909090935,
                "tempo": 120.0
            },
            {
                "start_time": 14.227272727272727,
                "end_time": 14.484090909090908,
                "pitch": 69,
                "velocity": 40,
                "duration": 0.25681818181818095,
                "tempo": 120.0
            },
            {
                "start_time": 14.484090909090908,
                "end_time": 14.718181818181817,
                "pitch": 74,
                "velocity": 40,
                "duration": 0.23409090909090935,
                "tempo": 120.0
            },
            {
                "start_time": 14.718181818181817,
                "end_time": 14.954545454545453,
                "pitch": 69,
                "velocity": 40,
                "duration": 0.23636363636363633,
                "tempo": 120.0
            },
            {
                "start_time": 14.954545454545453,
                "end_time": 15.2,
                "pitch": 74,
                "velocity": 40,
                "duration": 0.24545454545454604,
                "tempo": 120.0
            },
            {
                "start_time": 15.2,
                "end_time": 15.31590909090909,
                "pitch": 69,
                "velocity": 40,
                "duration": 0.1159090909090903,
                "tempo": 120.0
            },
            {
                "start_time": 15.31590909090909,
                "end_time": 15.431818181818182,
                "pitch": 74,
                "velocity": 40,
                "duration": 0.11590909090909207,
                "tempo": 120.0
            },
            {
                "start_time": 15.431818181818182,
                "end_time": 15.547727272727272,
                "pitch": 74,
                "velocity": 40,
                "duration": 0.1159090909090903,
                "tempo": 120.0
            },
            {
                "start_time": 15.547727272727272,
                "end_time": 15.681818181818182,
                "pitch": 69,
                "velocity": 40,
                "duration": 0.1340909090909097,
                "tempo": 120.0
            },
            {
                "start_time": 15.681818181818182,
                "end_time": 15.799999999999999,
                "pitch": 74,
                "velocity": 40,
                "duration": 0.11818181818181728,
                "tempo": 120.0
            },
            {
                "start_time": 15.799999999999999,
                "end_time": 16.15681818181818,
                "pitch": 74,
                "velocity": 40,
                "duration": 0.35681818181818237,
                "tempo": 120.0
            },
            {
                "start_time": 16.15681818181818,
                "end_time": 16.413636363636364,
                "pitch": 69,
                "velocity": 40,
                "duration": 0.2568181818181827,
                "tempo": 120.0
            },
            {
                "start_time": 16.413636363636364,
                "end_time": 16.65,
                "pitch": 74,
                "velocity": 40,
                "duration": 0.23636363636363455,
                "tempo": 120.0
            },
            {
                "start_time": 16.65,
                "end_time": 16.902272727272727,
                "pitch": 69,
                "velocity": 40,
                "duration": 0.25227272727272876,
                "tempo": 120.0
            },
            {
                "start_time": 16.902272727272727,
                "end_time": 17.134090909090908,
                "pitch": 74,
                "velocity": 40,
                "duration": 0.2318181818181806,
                "tempo": 120.0
            },
            {
                "start_time": 17.136363636363637,
                "end_time": 17.252272727272725,
                "pitch": 69,
                "velocity": 40,
                "duration": 0.11590909090908852,
                "tempo": 120.0
            },
            {
                "start_time": 17.252272727272725,
                "end_time": 17.502272727272725,
                "pitch": 74,
                "velocity": 40,
                "duration": 0.25,
                "tempo": 120.0
            },
            {
                "start_time": 17.502272727272725,
                "end_time": 17.620454545454546,
                "pitch": 69,
                "velocity": 40,
                "duration": 0.11818181818182083,
                "tempo": 120.0
            },
            {
                "start_time": 17.620454545454546,
                "end_time": 17.736363636363635,
                "pitch": 74,
                "velocity": 40,
                "duration": 0.11590909090908852,
                "tempo": 120.0
            },
            {
                "start_time": 17.738636363636363,
                "end_time": 18.10909090909091,
                "pitch": 74,
                "velocity": 40,
                "duration": 0.37045454545454604,
                "tempo": 120.0
            },
            {
                "start_time": 18.10909090909091,
                "end_time": 18.345454545454544,
                "pitch": 69,
                "velocity": 40,
                "duration": 0.23636363636363455,
                "tempo": 120.0
            },
            {
                "start_time": 18.345454545454544,
                "end_time": 18.579545454545453,
                "pitch": 74,
                "velocity": 40,
                "duration": 0.23409090909090935,
                "tempo": 120.0
            },
            {
                "start_time": 18.579545454545453,
                "end_time": 18.831818181818182,
                "pitch": 69,
                "velocity": 40,
                "duration": 0.25227272727272876,
                "tempo": 120.0
            },
            {
                "start_time": 18.831818181818182,
                "end_time": 19.070454545454545,
                "pitch": 74,
                "velocity": 40,
                "duration": 0.2386363636363633,
                "tempo": 120.0
            },
            {
                "start_time": 19.070454545454545,
                "end_time": 19.19090909090909,
                "pitch": 69,
                "velocity": 40,
                "duration": 0.12045454545454604,
                "tempo": 120.0
            }
        ],
        "Lead 2 (sawtooth)": [
            {
                "start_time": 19.329545454545453,
                "end_time": 20.036363636363635,
                "pitch": 67,
                "velocity": 101,
                "duration": 0.706818181818182,
                "tempo": 120.0
            },
            {
                "start_time": 20.036363636363635,
                "end_time": 20.261363636363637,
                "pitch": 69,
                "velocity": 101,
                "duration": 0.22500000000000142,
                "tempo": 120.0
            },
            {
                "start_time": 20.261363636363637,
                "end_time": 20.518181818181816,
                "pitch": 70,
                "velocity": 101,
                "duration": 0.25681818181817917,
                "tempo": 120.0
            },
            {
                "start_time": 20.518181818181816,
                "end_time": 20.75681818181818,
                "pitch": 69,
                "velocity": 101,
                "duration": 0.2386363636363633,
                "tempo": 120.0
            },
            {
                "start_time": 20.75681818181818,
                "end_time": 20.993181818181817,
                "pitch": 67,
                "velocity": 101,
                "duration": 0.2363636363636381,
                "tempo": 120.0
            },
            {
                "start_time": 20.993181818181817,
                "end_time": 21.479545454545452,
                "pitch": 62,
                "velocity": 101,
                "duration": 0.48636363636363455,
                "tempo": 120.0
            },
            {
                "start_time": 21.479545454545452,
                "end_time": 21.96818181818182,
                "pitch": 74,
                "velocity": 101,
                "duration": 0.48863636363636687,
                "tempo": 120.0
            },
            {
                "start_time": 21.96818181818182,
                "end_time": 22.68409090909091,
                "pitch": 69,
                "velocity": 101,
                "duration": 0.7159090909090899,
                "tempo": 120.0
            },
            {
                "start_time": 22.68409090909091,
                "end_time": 23.172727272727272,
                "pitch": 69,
                "velocity": 101,
                "duration": 0.4886363636363633,
                "tempo": 120.0
            },
            {
                "start_time": 23.172727272727272,
                "end_time": 23.902272727272727,
                "pitch": 67,
                "velocity": 101,
                "duration": 0.7295454545454554,
                "tempo": 120.0
            },
            {
                "start_time": 23.902272727272727,
                "end_time": 24.154545454545453,
                "pitch": 69,
                "velocity": 101,
                "duration": 0.2522727272727252,
                "tempo": 120.0
            },
            {
                "start_time": 24.15681818181818,
                "end_time": 24.39090909090909,
                "pitch": 70,
                "velocity": 101,
                "duration": 0.23409090909090935,
                "tempo": 120.0
            },
            {
                "start_time": 24.39090909090909,
                "end_time": 24.625,
                "pitch": 69,
                "velocity": 101,
                "duration": 0.23409090909090935,
                "tempo": 120.0
            },
            {
                "start_time": 24.625,
                "end_time": 24.87272727272727,
                "pitch": 67,
                "velocity": 101,
                "duration": 0.24772727272727124,
                "tempo": 120.0
            },
            {
                "start_time": 24.87272727272727,
                "end_time": 25.352272727272727,
                "pitch": 62,
                "velocity": 101,
                "duration": 0.4795454545454554,
                "tempo": 120.0
            },
            {
                "start_time": 25.352272727272727,
                "end_time": 25.827272727272724,
                "pitch": 74,
                "velocity": 101,
                "duration": 0.47499999999999787,
                "tempo": 120.0
            },
            {
                "start_time": 25.827272727272724,
                "end_time": 26.081818181818182,
                "pitch": 67,
                "velocity": 101,
                "duration": 0.2545454545454575,
                "tempo": 120.0
            },
            {
                "start_time": 26.081818181818182,
                "end_time": 27.043181818181818,
                "pitch": 69,
                "velocity": 101,
                "duration": 0.961363636363636,
                "tempo": 120.0
            },
            {
                "start_time": 27.043181818181818,
                "end_time": 27.779545454545453,
                "pitch": 67,
                "velocity": 101,
                "duration": 0.7363636363636346,
                "tempo": 120.0
            },
            {
                "start_time": 27.779545454545453,
                "end_time": 28.013636363636362,
                "pitch": 69,
                "velocity": 101,
                "duration": 0.23409090909090935,
                "tempo": 120.0
            },
            {
                "start_time": 28.013636363636362,
                "end_time": 28.24772727272727,
                "pitch": 70,
                "velocity": 101,
                "duration": 0.23409090909090935,
                "tempo": 120.0
            },
            {
                "start_time": 28.25,
                "end_time": 28.5,
                "pitch": 69,
                "velocity": 101,
                "duration": 0.25,
                "tempo": 120.0
            },
            {
                "start_time": 28.5,
                "end_time": 28.736363636363635,
                "pitch": 67,
                "velocity": 101,
                "duration": 0.23636363636363455,
                "tempo": 120.0
            },
            {
                "start_time": 28.736363636363635,
                "end_time": 29.227272727272727,
                "pitch": 62,
                "velocity": 101,
                "duration": 0.49090909090909207,
                "tempo": 120.0
            },
            {
                "start_time": 29.227272727272727,
                "end_time": 29.71363636363636,
                "pitch": 74,
                "velocity": 101,
                "duration": 0.48636363636363455,
                "tempo": 120.0
            },
            {
                "start_time": 29.71363636363636,
                "end_time": 30.43181818181818,
                "pitch": 69,
                "velocity": 101,
                "duration": 0.7181818181818187,
                "tempo": 120.0
            },
            {
                "start_time": 30.43181818181818,
                "end_time": 30.920454545454543,
                "pitch": 69,
                "velocity": 101,
                "duration": 0.4886363636363633,
                "tempo": 120.0
            },
            {
                "start_time": 30.920454545454543,
                "end_time": 31.65,
                "pitch": 67,
                "velocity": 101,
                "duration": 0.7295454545454554,
                "tempo": 120.0
            },
            {
                "start_time": 31.65,
                "end_time": 31.886363636363633,
                "pitch": 69,
                "velocity": 101,
                "duration": 0.23636363636363455,
                "tempo": 120.0
            },
            {
                "start_time": 31.886363636363633,
                "end_time": 32.13181818181818,
                "pitch": 70,
                "velocity": 101,
                "duration": 0.2454545454545496,
                "tempo": 120.0
            },
            {
                "start_time": 32.13181818181818,
                "end_time": 32.361363636363635,
                "pitch": 69,
                "velocity": 101,
                "duration": 0.22954545454545183,
                "tempo": 120.0
            },
            {
                "start_time": 32.361363636363635,
                "end_time": 32.61363636363636,
                "pitch": 67,
                "velocity": 101,
                "duration": 0.2522727272727252,
                "tempo": 120.0
            },
            {
                "start_time": 32.61363636363636,
                "end_time": 33.08863636363636,
                "pitch": 62,
                "velocity": 101,
                "duration": 0.4750000000000014,
                "tempo": 120.0
            },
            {
                "start_time": 33.090909090909086,
                "end_time": 33.58181818181818,
                "pitch": 74,
                "velocity": 101,
                "duration": 0.49090909090909207,
                "tempo": 120.0
            },
            {
                "start_time": 33.58181818181818,
                "end_time": 33.83409090909091,
                "pitch": 67,
                "velocity": 101,
                "duration": 0.2522727272727323,
                "tempo": 120.0
            },
            {
                "start_time": 33.83409090909091,
                "end_time": 34.779545454545456,
                "pitch": 69,
                "velocity": 101,
                "duration": 0.9454545454545453,
                "tempo": 120.0
            },
            {
                "start_time": 34.779545454545456,
                "end_time": 35.50909090909091,
                "pitch": 73,
                "velocity": 101,
                "duration": 0.7295454545454518,
                "tempo": 120.0
            },
            {
                "start_time": 35.50909090909091,
                "end_time": 35.76136363636363,
                "pitch": 74,
                "velocity": 101,
                "duration": 0.2522727272727252,
                "tempo": 120.0
            },
            {
                "start_time": 35.76136363636363,
                "end_time": 36.25454545454545,
                "pitch": 76,
                "velocity": 101,
                "duration": 0.4931818181818173,
                "tempo": 120.0
            },
            {
                "start_time": 36.25681818181818,
                "end_time": 36.72727272727273,
                "pitch": 73,
                "velocity": 101,
                "duration": 0.4704545454545439,
                "tempo": 120.0
            },
            {
                "start_time": 36.72727272727273,
                "end_time": 36.85681818181818,
                "pitch": 78,
                "velocity": 101,
                "duration": 0.1295454545454504,
                "tempo": 120.0
            },
            {
                "start_time": 36.85681818181818,
                "end_time": 36.975,
                "pitch": 74,
                "velocity": 101,
                "duration": 0.11818181818182438,
                "tempo": 120.0
            },
            {
                "start_time": 36.975,
                "end_time": 37.086363636363636,
                "pitch": 74,
                "velocity": 101,
                "duration": 0.11136363636363455,
                "tempo": 120.0
            },
            {
                "start_time": 37.086363636363636,
                "end_time": 37.20454545454545,
                "pitch": 79,
                "velocity": 101,
                "duration": 0.11818181818181728,
                "tempo": 120.0
            },
            {
                "start_time": 37.20454545454545,
                "end_time": 37.31818181818181,
                "pitch": 74,
                "velocity": 101,
                "duration": 0.11363636363635976,
                "tempo": 120.0
            },
            {
                "start_time": 37.31818181818181,
                "end_time": 37.45454545454545,
                "pitch": 74,
                "velocity": 101,
                "duration": 0.13636363636364024,
                "tempo": 120.0
            },
            {
                "start_time": 37.45454545454545,
                "end_time": 37.92272727272727,
                "pitch": 81,
                "velocity": 101,
                "duration": 0.4681818181818187,
                "tempo": 120.0
            },
            {
                "start_time": 37.92272727272727,
                "end_time": 38.175,
                "pitch": 74,
                "velocity": 101,
                "duration": 0.2522727272727252,
                "tempo": 120.0
            },
            {
                "start_time": 38.175,
                "end_time": 38.41590909090909,
                "pitch": 84,
                "velocity": 101,
                "duration": 0.24090909090909207,
                "tempo": 120.0
            },
            {
                "start_time": 38.41590909090909,
                "end_time": 54.11363636363636,
                "pitch": 86,
                "velocity": 101,
                "duration": 15.69772727272727,
                "tempo": 120.0
            },
            {
                "start_time": 54.11363636363636,
                "end_time": 54.834090909090904,
                "pitch": 65,
                "velocity": 101,
                "duration": 0.7204545454545439,
                "tempo": 120.0
            },
            {
                "start_time": 54.836363636363636,
                "end_time": 55.090909090909086,
                "pitch": 67,
                "velocity": 101,
                "duration": 0.2545454545454504,
                "tempo": 120.0
            },
            {
                "start_time": 55.090909090909086,
                "end_time": 55.324999999999996,
                "pitch": 68,
                "velocity": 101,
                "duration": 0.23409090909090935,
                "tempo": 120.0
            },
            {
                "start_time": 55.324999999999996,
                "end_time": 55.574999999999996,
                "pitch": 67,
                "velocity": 101,
                "duration": 0.25,
                "tempo": 120.0
            },
            {
                "start_time": 55.574999999999996,
                "end_time": 55.81136363636363,
                "pitch": 65,
                "velocity": 101,
                "duration": 0.23636363636363455,
                "tempo": 120.0
            },
            {
                "start_time": 55.81136363636363,
                "end_time": 56.293181818181814,
                "pitch": 60,
                "velocity": 101,
                "duration": 0.48181818181818414,
                "tempo": 120.0
            },
            {
                "start_time": 56.293181818181814,
                "end_time": 56.77272727272727,
                "pitch": 72,
                "velocity": 101,
                "duration": 0.47954545454545894,
                "tempo": 120.0
            },
            {
                "start_time": 56.77272727272727,
                "end_time": 57.502272727272725,
                "pitch": 67,
                "velocity": 101,
                "duration": 0.7295454545454518,
                "tempo": 120.0
            },
            {
                "start_time": 57.502272727272725,
                "end_time": 57.990909090909085,
                "pitch": 67,
                "velocity": 101,
                "duration": 0.48863636363635976,
                "tempo": 120.0
            },
            {
                "start_time": 57.990909090909085,
                "end_time": 58.709090909090904,
                "pitch": 65,
                "velocity": 101,
                "duration": 0.7181818181818187,
                "tempo": 120.0
            },
            {
                "start_time": 58.709090909090904,
                "end_time": 58.934090909090905,
                "pitch": 67,
                "velocity": 101,
                "duration": 0.22500000000000142,
                "tempo": 120.0
            },
            {
                "start_time": 58.934090909090905,
                "end_time": 59.19090909090909,
                "pitch": 68,
                "velocity": 101,
                "duration": 0.2568181818181827,
                "tempo": 120.0
            },
            {
                "start_time": 59.19090909090909,
                "end_time": 59.429545454545455,
                "pitch": 67,
                "velocity": 101,
                "duration": 0.23863636363636687,
                "tempo": 120.0
            },
            {
                "start_time": 59.429545454545455,
                "end_time": 59.663636363636364,
                "pitch": 65,
                "velocity": 101,
                "duration": 0.23409090909090935,
                "tempo": 120.0
            },
            {
                "start_time": 59.663636363636364,
                "end_time": 60.15,
                "pitch": 60,
                "velocity": 101,
                "duration": 0.48636363636363455,
                "tempo": 120.0
            },
            {
                "start_time": 60.15,
                "end_time": 60.64090909090909,
                "pitch": 72,
                "velocity": 101,
                "duration": 0.49090909090909207,
                "tempo": 120.0
            },
            {
                "start_time": 60.64090909090909,
                "end_time": 61.840909090909086,
                "pitch": 65,
                "velocity": 101,
                "duration": 1.1999999999999957,
                "tempo": 120.0
            },
            {
                "start_time": 61.840909090909086,
                "end_time": 62.570454545454545,
                "pitch": 65,
                "velocity": 101,
                "duration": 0.7295454545454589,
                "tempo": 120.0
            },
            {
                "start_time": 62.570454545454545,
                "end_time": 62.820454545454545,
                "pitch": 67,
                "velocity": 101,
                "duration": 0.25,
                "tempo": 120.0
            },
            {
                "start_time": 62.820454545454545,
                "end_time": 63.05681818181818,
                "pitch": 68,
                "velocity": 101,
                "duration": 0.23636363636363455,
                "tempo": 120.0
            },
            {
                "start_time": 63.05681818181818,
                "end_time": 63.29090909090909,
                "pitch": 67,
                "velocity": 101,
                "duration": 0.23409090909090935,
                "tempo": 120.0
            },
            {
                "start_time": 63.29090909090909,
                "end_time": 63.53636363636363,
                "pitch": 65,
                "velocity": 101,
                "duration": 0.24545454545454248,
                "tempo": 120.0
            },
            {
                "start_time": 63.53636363636363,
                "end_time": 64.01818181818182,
                "pitch": 60,
                "velocity": 101,
                "duration": 0.48181818181818414,
                "tempo": 120.0
            },
            {
                "start_time": 64.01818181818182,
                "end_time": 64.49090909090908,
                "pitch": 72,
                "velocity": 101,
                "duration": 0.4727272727272691,
                "tempo": 120.0
            },
            {
                "start_time": 64.49090909090908,
                "end_time": 65.22954545454544,
                "pitch": 67,
                "velocity": 101,
                "duration": 0.7386363636363598,
                "tempo": 120.0
            },
            {
                "start_time": 65.22954545454544,
                "end_time": 65.71136363636363,
                "pitch": 67,
                "velocity": 101,
                "duration": 0.48181818181818414,
                "tempo": 120.0
            },
            {
                "start_time": 65.71136363636363,
                "end_time": 66.43636363636364,
                "pitch": 65,
                "velocity": 101,
                "duration": 0.7250000000000085,
                "tempo": 120.0
            },
            {
                "start_time": 66.43636363636364,
                "end_time": 66.67045454545455,
                "pitch": 67,
                "velocity": 101,
                "duration": 0.23409090909090935,
                "tempo": 120.0
            },
            {
                "start_time": 66.67045454545455,
                "end_time": 66.90681818181818,
                "pitch": 68,
                "velocity": 101,
                "duration": 0.23636363636363455,
                "tempo": 120.0
            },
            {
                "start_time": 66.90681818181818,
                "end_time": 67.15681818181818,
                "pitch": 67,
                "velocity": 101,
                "duration": 0.25,
                "tempo": 120.0
            },
            {
                "start_time": 67.15681818181818,
                "end_time": 67.39772727272727,
                "pitch": 65,
                "velocity": 101,
                "duration": 0.24090909090908497,
                "tempo": 120.0
            },
            {
                "start_time": 67.39772727272727,
                "end_time": 67.88863636363637,
                "pitch": 60,
                "velocity": 101,
                "duration": 0.4909090909090992,
                "tempo": 120.0
            },
            {
                "start_time": 67.88863636363637,
                "end_time": 68.37045454545454,
                "pitch": 72,
                "velocity": 101,
                "duration": 0.48181818181816993,
                "tempo": 120.0
            },
            {
                "start_time": 68.37045454545454,
                "end_time": 69.57727272727273,
                "pitch": 65,
                "velocity": 101,
                "duration": 1.2068181818181927,
                "tempo": 120.0
            },
            {
                "start_time": 69.57727272727273,
                "end_time": 70.30681818181817,
                "pitch": 71,
                "velocity": 101,
                "duration": 0.7295454545454447,
                "tempo": 120.0
            },
            {
                "start_time": 70.30909090909091,
                "end_time": 70.54318181818182,
                "pitch": 72,
                "velocity": 101,
                "duration": 0.23409090909090935,
                "tempo": 120.0
            },
            {
                "start_time": 70.54318181818182,
                "end_time": 71.01818181818182,
                "pitch": 74,
                "velocity": 101,
                "duration": 0.4749999999999943,
                "tempo": 120.0
            },
            {
                "start_time": 71.01818181818182,
                "end_time": 71.50681818181818,
                "pitch": 71,
                "velocity": 101,
                "duration": 0.48863636363635976,
                "tempo": 120.0
            },
            {
                "start_time": 71.50681818181818,
                "end_time": 71.625,
                "pitch": 76,
                "velocity": 101,
                "duration": 0.11818181818182438,
                "tempo": 120.0
            },
            {
                "start_time": 71.625,
                "end_time": 71.74772727272727,
                "pitch": 72,
                "velocity": 101,
                "duration": 0.1227272727272748,
                "tempo": 120.0
            },
            {
                "start_time": 71.74772727272727,
                "end_time": 71.88181818181818,
                "pitch": 72,
                "velocity": 101,
                "duration": 0.13409090909090082,
                "tempo": 120.0
            },
            {
                "start_time": 71.88181818181818,
                "end_time": 72.00454545454545,
                "pitch": 77,
                "velocity": 101,
                "duration": 0.1227272727272748,
                "tempo": 120.0
            },
            {
                "start_time": 72.00454545454545,
                "end_time": 72.11818181818181,
                "pitch": 72,
                "velocity": 101,
                "duration": 0.11363636363635976,
                "tempo": 120.0
            },
            {
                "start_time": 72.11818181818181,
                "end_time": 72.23863636363636,
                "pitch": 72,
                "velocity": 101,
                "duration": 0.12045454545454959,
                "tempo": 120.0
            },
            {
                "start_time": 72.23863636363636,
                "end_time": 72.73181818181818,
                "pitch": 79,
                "velocity": 101,
                "duration": 0.4931818181818244,
                "tempo": 120.0
            },
            {
                "start_time": 72.73181818181818,
                "end_time": 72.96818181818182,
                "pitch": 72,
                "velocity": 101,
                "duration": 0.23636363636363455,
                "tempo": 120.0
            },
            {
                "start_time": 72.97045454545454,
                "end_time": 73.19772727272726,
                "pitch": 82,
                "velocity": 101,
                "duration": 0.22727272727271952,
                "tempo": 120.0
            }
        ],
        "Violin": [
            {
                "start_time": 38.67272727272727,
                "end_time": 40.59772727272727,
                "pitch": 52,
                "velocity": 101,
                "duration": 1.9249999999999972,
                "tempo": 120.0
            },
            {
                "start_time": 40.59772727272727,
                "end_time": 42.51590909090909,
                "pitch": 52,
                "velocity": 101,
                "duration": 1.9181818181818215,
                "tempo": 120.0
            },
            {
                "start_time": 42.51590909090909,
                "end_time": 44.44318181818181,
                "pitch": 55,
                "velocity": 101,
                "duration": 1.9272727272727224,
                "tempo": 120.0
            },
            {
                "start_time": 44.44318181818181,
                "end_time": 46.393181818181816,
                "pitch": 52,
                "velocity": 101,
                "duration": 1.9500000000000028,
                "tempo": 120.0
            },
            {
                "start_time": 46.393181818181816,
                "end_time": 48.334090909090904,
                "pitch": 52,
                "velocity": 101,
                "duration": 1.9409090909090878,
                "tempo": 120.0
            },
            {
                "start_time": 48.334090909090904,
                "end_time": 50.25681818181818,
                "pitch": 52,
                "velocity": 101,
                "duration": 1.922727272727279,
                "tempo": 120.0
            },
            {
                "start_time": 50.25681818181818,
                "end_time": 52.184090909090905,
                "pitch": 55,
                "velocity": 101,
                "duration": 1.9272727272727224,
                "tempo": 120.0
            },
            {
                "start_time": 52.184090909090905,
                "end_time": 73.44772727272726,
                "pitch": 52,
                "velocity": 101,
                "duration": 21.26363636363636,
                "tempo": 120.0
            },
            {
                "start_time": 73.44772727272726,
                "end_time": 75.38863636363637,
                "pitch": 50,
                "velocity": 101,
                "duration": 1.940909090909102,
                "tempo": 120.0
            },
            {
                "start_time": 75.38863636363637,
                "end_time": 77.33181818181818,
                "pitch": 50,
                "velocity": 101,
                "duration": 1.943181818181813,
                "tempo": 120.0
            },
            {
                "start_time": 77.33181818181818,
                "end_time": 79.25,
                "pitch": 53,
                "velocity": 101,
                "duration": 1.9181818181818215,
                "tempo": 120.0
            },
            {
                "start_time": 79.25,
                "end_time": 81.19090909090909,
                "pitch": 50,
                "velocity": 101,
                "duration": 1.9409090909090878,
                "tempo": 120.0
            },
            {
                "start_time": 81.19090909090909,
                "end_time": 83.10909090909091,
                "pitch": 50,
                "velocity": 101,
                "duration": 1.9181818181818215,
                "tempo": 120.0
            },
            {
                "start_time": 83.10909090909091,
                "end_time": 85.0590909090909,
                "pitch": 50,
                "velocity": 101,
                "duration": 1.9499999999999886,
                "tempo": 120.0
            },
            {
                "start_time": 85.0590909090909,
                "end_time": 87.00227272727273,
                "pitch": 53,
                "velocity": 101,
                "duration": 1.9431818181818272,
                "tempo": 120.0
            },
            {
                "start_time": 87.00227272727273,
                "end_time": 88.92272727272727,
                "pitch": 50,
                "velocity": 101,
                "duration": 1.9204545454545467,
                "tempo": 120.0
            }
        ],
        "Acoustic Bass": [
            {
                "start_time": 38.67272727272727,
                "end_time": 38.904545454545456,
                "pitch": 33,
                "velocity": 101,
                "duration": 0.23181818181818414,
                "tempo": 120.0
            },
            {
                "start_time": 38.90681818181818,
                "end_time": 39.27045454545454,
                "pitch": 33,
                "velocity": 101,
                "duration": 0.36363636363635976,
                "tempo": 120.0
            },
            {
                "start_time": 39.27272727272727,
                "end_time": 39.61818181818182,
                "pitch": 33,
                "velocity": 101,
                "duration": 0.3454545454545439,
                "tempo": 120.0
            },
            {
                "start_time": 39.61818181818182,
                "end_time": 39.86818181818182,
                "pitch": 33,
                "velocity": 101,
                "duration": 0.25,
                "tempo": 120.0
            },
            {
                "start_time": 40.59772727272727,
                "end_time": 40.83181818181818,
                "pitch": 29,
                "velocity": 101,
                "duration": 0.23409090909090935,
                "tempo": 120.0
            },
            {
                "start_time": 40.83181818181818,
                "end_time": 41.199999999999996,
                "pitch": 29,
                "velocity": 101,
                "duration": 0.3681818181818173,
                "tempo": 120.0
            },
            {
                "start_time": 41.199999999999996,
                "end_time": 41.55227272727272,
                "pitch": 29,
                "velocity": 101,
                "duration": 0.3522727272727266,
                "tempo": 120.0
            },
            {
                "start_time": 41.55227272727272,
                "end_time": 41.79772727272727,
                "pitch": 29,
                "velocity": 101,
                "duration": 0.2454545454545496,
                "tempo": 120.0
            },
            {
                "start_time": 42.51590909090909,
                "end_time": 42.75454545454545,
                "pitch": 31,
                "velocity": 101,
                "duration": 0.23863636363635976,
                "tempo": 120.0
            },
            {
                "start_time": 42.75454545454545,
                "end_time": 43.12954545454545,
                "pitch": 31,
                "velocity": 101,
                "duration": 0.375,
                "tempo": 120.0
            },
            {
                "start_time": 43.12954545454545,
                "end_time": 43.5,
                "pitch": 31,
                "velocity": 101,
                "duration": 0.3704545454545496,
                "tempo": 120.0
            },
            {
                "start_time": 43.5,
                "end_time": 43.73863636363636,
                "pitch": 31,
                "velocity": 101,
                "duration": 0.23863636363635976,
                "tempo": 120.0
            },
            {
                "start_time": 44.445454545454545,
                "end_time": 44.94772727272727,
                "pitch": 32,
                "velocity": 101,
                "duration": 0.5022727272727252,
                "tempo": 120.0
            },
            {
                "start_time": 44.94772727272727,
                "end_time": 45.42272727272727,
                "pitch": 32,
                "velocity": 101,
                "duration": 0.4750000000000014,
                "tempo": 120.0
            },
            {
                "start_time": 45.42272727272727,
                "end_time": 45.918181818181814,
                "pitch": 32,
                "velocity": 101,
                "duration": 0.4954545454545425,
                "tempo": 120.0
            },
            {
                "start_time": 45.918181818181814,
                "end_time": 46.393181818181816,
                "pitch": 32,
                "velocity": 101,
                "duration": 0.4750000000000014,
                "tempo": 120.0
            },
            {
                "start_time": 46.393181818181816,
                "end_time": 46.63636363636363,
                "pitch": 33,
                "velocity": 101,
                "duration": 0.24318181818181728,
                "tempo": 120.0
            },
            {
                "start_time": 46.63636363636363,
                "end_time": 46.98181818181818,
                "pitch": 33,
                "velocity": 101,
                "duration": 0.3454545454545439,
                "tempo": 120.0
            },
            {
                "start_time": 46.98181818181818,
                "end_time": 47.349999999999994,
                "pitch": 33,
                "velocity": 101,
                "duration": 0.3681818181818173,
                "tempo": 120.0
            },
            {
                "start_time": 47.349999999999994,
                "end_time": 47.58863636363636,
                "pitch": 33,
                "velocity": 101,
                "duration": 0.23863636363636687,
                "tempo": 120.0
            },
            {
                "start_time": 48.334090909090904,
                "end_time": 48.56590909090909,
                "pitch": 29,
                "velocity": 101,
                "duration": 0.23181818181818414,
                "tempo": 120.0
            },
            {
                "start_time": 48.56590909090909,
                "end_time": 48.93181818181818,
                "pitch": 29,
                "velocity": 101,
                "duration": 0.36590909090909207,
                "tempo": 120.0
            },
            {
                "start_time": 48.93181818181818,
                "end_time": 49.277272727272724,
                "pitch": 29,
                "velocity": 101,
                "duration": 0.3454545454545439,
                "tempo": 120.0
            },
            {
                "start_time": 49.277272727272724,
                "end_time": 49.53409090909091,
                "pitch": 29,
                "velocity": 101,
                "duration": 0.2568181818181827,
                "tempo": 120.0
            },
            {
                "start_time": 50.25681818181818,
                "end_time": 50.490909090909085,
                "pitch": 31,
                "velocity": 101,
                "duration": 0.23409090909090224,
                "tempo": 120.0
            },
            {
                "start_time": 50.490909090909085,
                "end_time": 50.86363636363636,
                "pitch": 31,
                "velocity": 101,
                "duration": 0.3727272727272748,
                "tempo": 120.0
            },
            {
                "start_time": 50.86363636363636,
                "end_time": 51.22272727272727,
                "pitch": 31,
                "velocity": 101,
                "duration": 0.35909090909090935,
                "tempo": 120.0
            },
            {
                "start_time": 51.22272727272727,
                "end_time": 51.46363636363636,
                "pitch": 31,
                "velocity": 101,
                "duration": 0.24090909090909207,
                "tempo": 120.0
            },
            {
                "start_time": 52.184090909090905,
                "end_time": 52.679545454545455,
                "pitch": 32,
                "velocity": 101,
                "duration": 0.4954545454545496,
                "tempo": 120.0
            },
            {
                "start_time": 52.679545454545455,
                "end_time": 53.163636363636364,
                "pitch": 32,
                "velocity": 101,
                "duration": 0.48409090909090935,
                "tempo": 120.0
            },
            {
                "start_time": 53.163636363636364,
                "end_time": 53.63409090909091,
                "pitch": 32,
                "velocity": 101,
                "duration": 0.4704545454545439,
                "tempo": 120.0
            },
            {
                "start_time": 53.63409090909091,
                "end_time": 73.44772727272726,
                "pitch": 32,
                "velocity": 101,
                "duration": 19.813636363636355,
                "tempo": 120.0
            },
            {
                "start_time": 73.44772727272726,
                "end_time": 73.69772727272726,
                "pitch": 31,
                "velocity": 101,
                "duration": 0.25,
                "tempo": 120.0
            },
            {
                "start_time": 73.69772727272726,
                "end_time": 74.05,
                "pitch": 31,
                "velocity": 101,
                "duration": 0.35227272727273373,
                "tempo": 120.0
            },
            {
                "start_time": 74.05,
                "end_time": 74.42045454545455,
                "pitch": 31,
                "velocity": 101,
                "duration": 0.3704545454545496,
                "tempo": 120.0
            },
            {
                "start_time": 74.42045454545455,
                "end_time": 74.6590909090909,
                "pitch": 31,
                "velocity": 101,
                "duration": 0.23863636363635976,
                "tempo": 120.0
            },
            {
                "start_time": 75.38863636363637,
                "end_time": 75.6340909090909,
                "pitch": 27,
                "velocity": 101,
                "duration": 0.24545454545453538,
                "tempo": 120.0
            },
            {
                "start_time": 75.6340909090909,
                "end_time": 75.97954545454544,
                "pitch": 27,
                "velocity": 101,
                "duration": 0.3454545454545439,
                "tempo": 120.0
            },
            {
                "start_time": 75.97954545454544,
                "end_time": 76.34772727272727,
                "pitch": 27,
                "velocity": 101,
                "duration": 0.3681818181818244,
                "tempo": 120.0
            },
            {
                "start_time": 76.34772727272727,
                "end_time": 76.5840909090909,
                "pitch": 27,
                "velocity": 101,
                "duration": 0.23636363636363455,
                "tempo": 120.0
            },
            {
                "start_time": 77.33181818181818,
                "end_time": 77.56363636363636,
                "pitch": 29,
                "velocity": 101,
                "duration": 0.23181818181818414,
                "tempo": 120.0
            },
            {
                "start_time": 77.56590909090909,
                "end_time": 77.92954545454545,
                "pitch": 29,
                "velocity": 101,
                "duration": 0.36363636363635976,
                "tempo": 120.0
            },
            {
                "start_time": 77.92954545454545,
                "end_time": 78.27499999999999,
                "pitch": 29,
                "velocity": 101,
                "duration": 0.3454545454545439,
                "tempo": 120.0
            },
            {
                "start_time": 78.27499999999999,
                "end_time": 78.52727272727272,
                "pitch": 29,
                "velocity": 101,
                "duration": 0.2522727272727252,
                "tempo": 120.0
            },
            {
                "start_time": 79.25227272727273,
                "end_time": 79.74772727272727,
                "pitch": 30,
                "velocity": 101,
                "duration": 0.4954545454545496,
                "tempo": 120.0
            },
            {
                "start_time": 79.74772727272727,
                "end_time": 80.21818181818182,
                "pitch": 30,
                "velocity": 101,
                "duration": 0.4704545454545439,
                "tempo": 120.0
            },
            {
                "start_time": 80.21818181818182,
                "end_time": 80.70454545454545,
                "pitch": 30,
                "velocity": 101,
                "duration": 0.48636363636363455,
                "tempo": 120.0
            },
            {
                "start_time": 80.70454545454545,
                "end_time": 81.19318181818181,
                "pitch": 30,
                "velocity": 101,
                "duration": 0.48863636363635976,
                "tempo": 120.0
            },
            {
                "start_time": 81.19318181818181,
                "end_time": 81.425,
                "pitch": 31,
                "velocity": 101,
                "duration": 0.23181818181818414,
                "tempo": 120.0
            },
            {
                "start_time": 81.425,
                "end_time": 81.79318181818181,
                "pitch": 31,
                "velocity": 101,
                "duration": 0.36818181818181017,
                "tempo": 120.0
            },
            {
                "start_time": 81.79318181818181,
                "end_time": 82.16363636363636,
                "pitch": 31,
                "velocity": 101,
                "duration": 0.3704545454545496,
                "tempo": 120.0
            },
            {
                "start_time": 82.16363636363636,
                "end_time": 82.40454545454546,
                "pitch": 31,
                "velocity": 101,
                "duration": 0.24090909090909918,
                "tempo": 120.0
            },
            {
                "start_time": 83.10909090909091,
                "end_time": 83.36363636363636,
                "pitch": 27,
                "velocity": 101,
                "duration": 0.2545454545454504,
                "tempo": 120.0
            },
            {
                "start_time": 83.36363636363636,
                "end_time": 83.72045454545454,
                "pitch": 27,
                "velocity": 101,
                "duration": 0.35681818181818414,
                "tempo": 120.0
            },
            {
                "start_time": 83.72045454545454,
                "end_time": 84.0909090909091,
                "pitch": 27,
                "velocity": 101,
                "duration": 0.3704545454545496,
                "tempo": 120.0
            },
            {
                "start_time": 84.0909090909091,
                "end_time": 84.33181818181818,
                "pitch": 27,
                "velocity": 101,
                "duration": 0.24090909090908497,
                "tempo": 120.0
            },
            {
                "start_time": 85.0590909090909,
                "end_time": 85.30454545454545,
                "pitch": 29,
                "velocity": 101,
                "duration": 0.2454545454545496,
                "tempo": 120.0
            },
            {
                "start_time": 85.30454545454545,
                "end_time": 85.64999999999999,
                "pitch": 29,
                "velocity": 101,
                "duration": 0.3454545454545439,
                "tempo": 120.0
            },
            {
                "start_time": 85.64999999999999,
                "end_time": 86.01818181818182,
                "pitch": 29,
                "velocity": 101,
                "duration": 0.3681818181818244,
                "tempo": 120.0
            },
            {
                "start_time": 86.01818181818182,
                "end_time": 86.2590909090909,
                "pitch": 29,
                "velocity": 101,
                "duration": 0.24090909090908497,
                "tempo": 120.0
            },
            {
                "start_time": 87.00454545454545,
                "end_time": 87.47045454545454,
                "pitch": 30,
                "velocity": 101,
                "duration": 0.4659090909090935,
                "tempo": 120.0
            },
            {
                "start_time": 87.47045454545454,
                "end_time": 87.94545454545454,
                "pitch": 30,
                "velocity": 101,
                "duration": 0.4749999999999943,
                "tempo": 120.0
            },
            {
                "start_time": 87.94545454545454,
                "end_time": 88.44090909090909,
                "pitch": 30,
                "velocity": 101,
                "duration": 0.4954545454545496,
                "tempo": 120.0
            },
            {
                "start_time": 88.44090909090909,
                "end_time": 88.92272727272727,
                "pitch": 30,
                "velocity": 101,
                "duration": 0.48181818181818414,
                "tempo": 120.0
            }
        ]
    }
}