{
    "track_id": "08 The Challenger (Area 2)",
    "mood": "angry",
    "instruments": {
        "Lead 2 (sawtooth)": [
            {
                "start_time": 0.011363636363636364,
                "end_time": 0.959090909090909,
                "pitch": 78,
                "velocity": 51,
                "duration": 0.9477272727272726,
                "tempo": 120.0
            },
            {
                "start_time": 1.009090909090909,
                "end_time": 2.375,
                "pitch": 78,
                "velocity": 51,
                "duration": 1.365909090909091,
                "tempo": 120.0
            },
            {
                "start_time": 2.425,
                "end_time": 3.4749999999999996,
                "pitch": 77,
                "velocity": 51,
                "duration": 1.0499999999999998,
                "tempo": 120.0
            },
            {
                "start_time": 3.5409090909090906,
                "end_time": 4.906818181818181,
                "pitch": 76,
                "velocity": 51,
                "duration": 1.3659090909090907,
                "tempo": 120.0
            },
            {
                "start_time": 4.959090909090909,
                "end_time": 6.186363636363636,
                "pitch": 75,
                "velocity": 51,
                "duration": 1.2272727272727266,
                "tempo": 120.0
            },
            {
                "start_time": 6.238636363636363,
                "end_time": 7.436363636363636,
                "pitch": 76,
                "velocity": 51,
                "duration": 1.1977272727272723,
                "tempo": 120.0
            },
            {
                "start_time": 7.504545454545454,
                "end_time": 9.972727272727273,
                "pitch": 71,
                "velocity": 51,
                "duration": 2.4681818181818187,
                "tempo": 120.0
            },
            {
                "start_time": 10.022727272727272,
                "end_time": 10.286363636363635,
                "pitch": 83,
                "velocity": 51,
                "duration": 0.26363636363636367,
                "tempo": 120.0
            },
            {
                "start_time": 10.336363636363636,
                "end_time": 10.452272727272726,
                "pitch": 78,
                "velocity": 51,
                "duration": 0.1159090909090903,
                "tempo": 120.0
            },
            {
                "start_time": 10.502272727272727,
                "end_time": 10.768181818181818,
                "pitch": 80,
                "velocity": 51,
                "duration": 0.26590909090909065,
                "tempo": 120.0
            },
            {
                "start_time": 10.818181818181818,
                "end_time": 10.918181818181818,
                "pitch": 76,
                "velocity": 51,
                "duration": 0.09999999999999964,
                "tempo": 120.0
            },
            {
                "start_time": 10.968181818181817,
                "end_time": 11.868181818181817,
                "pitch": 78,
                "velocity": 51,
                "duration": 0.9000000000000004,
                "tempo": 120.0
            },
            {
                "start_time": 10.968181818181817,
                "end_time": 12.184090909090909,
                "pitch": 76,
                "velocity": 51,
                "duration": 1.2159090909090917,
                "tempo": 120.0
            },
            {
                "start_time": 11.918181818181818,
                "end_time": 12.184090909090909,
                "pitch": 76,
                "velocity": 51,
                "duration": 0.26590909090909065,
                "tempo": 120.0
            },
            {
                "start_time": 11.918181818181818,
                "end_time": 12.506818181818181,
                "pitch": 78,
                "velocity": 51,
                "duration": 0.588636363636363,
                "tempo": 120.0
            },
            {
                "start_time": 12.236363636363636,
                "end_time": 12.506818181818181,
                "pitch": 78,
                "velocity": 51,
                "duration": 0.2704545454545446,
                "tempo": 120.0
            },
            {
                "start_time": 12.559090909090909,
                "end_time": 15.047727272727272,
                "pitch": 71,
                "velocity": 51,
                "duration": 2.4886363636363633,
                "tempo": 120.0
            },
            {
                "start_time": 15.097727272727273,
                "end_time": 15.363636363636363,
                "pitch": 83,
                "velocity": 51,
                "duration": 0.26590909090909065,
                "tempo": 120.0
            },
            {
                "start_time": 10.336363636363636,
                "end_time": 15.413636363636362,
                "pitch": 69,
                "velocity": 51,
                "duration": 5.077272727272726,
                "tempo": 120.0
            },
            {
                "start_time": 12.559090909090909,
                "end_time": 15.513636363636364,
                "pitch": 78,
                "velocity": 51,
                "duration": 2.954545454545455,
                "tempo": 120.0
            },
            {
                "start_time": 15.413636363636362,
                "end_time": 15.513636363636364,
                "pitch": 78,
                "velocity": 51,
                "duration": 0.10000000000000142,
                "tempo": 120.0
            },
            {
                "start_time": 15.563636363636363,
                "end_time": 15.829545454545453,
                "pitch": 80,
                "velocity": 51,
                "duration": 0.26590909090909065,
                "tempo": 120.0
            },
            {
                "start_time": 12.236363636363636,
                "end_time": 15.979545454545454,
                "pitch": 76,
                "velocity": 51,
                "duration": 3.7431818181818173,
                "tempo": 120.0
            },
            {
                "start_time": 15.881818181818181,
                "end_time": 15.979545454545454,
                "pitch": 76,
                "velocity": 51,
                "duration": 0.09772727272727266,
                "tempo": 120.0
            },
            {
                "start_time": 16.047727272727272,
                "end_time": 16.94090909090909,
                "pitch": 78,
                "velocity": 51,
                "duration": 0.8931818181818194,
                "tempo": 120.0
            },
            {
                "start_time": 16.99090909090909,
                "end_time": 17.254545454545454,
                "pitch": 76,
                "velocity": 51,
                "duration": 0.26363636363636545,
                "tempo": 120.0
            },
            {
                "start_time": 16.99090909090909,
                "end_time": 17.568181818181817,
                "pitch": 78,
                "velocity": 51,
                "duration": 0.577272727272728,
                "tempo": 120.0
            },
            {
                "start_time": 17.304545454545455,
                "end_time": 17.568181818181817,
                "pitch": 78,
                "velocity": 51,
                "duration": 0.2636363636363619,
                "tempo": 120.0
            },
            {
                "start_time": 17.618181818181817,
                "end_time": 20.10909090909091,
                "pitch": 71,
                "velocity": 51,
                "duration": 2.490909090909092,
                "tempo": 120.0
            },
            {
                "start_time": 17.618181818181817,
                "end_time": 30.525,
                "pitch": 78,
                "velocity": 51,
                "duration": 12.906818181818181,
                "tempo": 120.0
            },
            {
                "start_time": 30.293181818181818,
                "end_time": 30.525,
                "pitch": 78,
                "velocity": 51,
                "duration": 0.2318181818181806,
                "tempo": 120.0
            }
        ],
        "Vibraphone": [
            {
                "start_time": 20.159090909090907,
                "end_time": 20.425,
                "pitch": 59,
                "velocity": 51,
                "duration": 0.2659090909090942,
                "tempo": 120.0
            },
            {
                "start_time": 20.477272727272727,
                "end_time": 20.743181818181817,
                "pitch": 71,
                "velocity": 51,
                "duration": 0.26590909090909065,
                "tempo": 120.0
            },
            {
                "start_time": 20.793181818181818,
                "end_time": 20.893181818181816,
                "pitch": 69,
                "velocity": 51,
                "duration": 0.09999999999999787,
                "tempo": 120.0
            },
            {
                "start_time": 20.959090909090907,
                "end_time": 21.209090909090907,
                "pitch": 64,
                "velocity": 51,
                "duration": 0.25,
                "tempo": 120.0
            },
            {
                "start_time": 21.259090909090908,
                "end_time": 21.69090909090909,
                "pitch": 66,
                "velocity": 51,
                "duration": 0.43181818181818343,
                "tempo": 120.0
            },
            {
                "start_time": 21.743181818181817,
                "end_time": 21.84090909090909,
                "pitch": 69,
                "velocity": 51,
                "duration": 0.09772727272727266,
                "tempo": 120.0
            },
            {
                "start_time": 21.893181818181816,
                "end_time": 22.009090909090908,
                "pitch": 69,
                "velocity": 51,
                "duration": 0.11590909090909207,
                "tempo": 120.0
            },
            {
                "start_time": 20.959090909090907,
                "end_time": 22.05909090909091,
                "pitch": 56,
                "velocity": 51,
                "duration": 1.1000000000000014,
                "tempo": 120.0
            },
            {
                "start_time": 22.05909090909091,
                "end_time": 22.159090909090907,
                "pitch": 66,
                "velocity": 51,
                "duration": 0.09999999999999787,
                "tempo": 120.0
            },
            {
                "start_time": 22.209090909090907,
                "end_time": 22.64090909090909,
                "pitch": 71,
                "velocity": 51,
                "duration": 0.43181818181818343,
                "tempo": 120.0
            },
            {
                "start_time": 22.69090909090909,
                "end_time": 23.74090909090909,
                "pitch": 76,
                "velocity": 51,
                "duration": 1.0499999999999972,
                "tempo": 120.0
            },
            {
                "start_time": 21.743181818181817,
                "end_time": 25.161363636363635,
                "pitch": 78,
                "velocity": 51,
                "duration": 3.418181818181818,
                "tempo": 120.0
            },
            {
                "start_time": 23.79090909090909,
                "end_time": 25.161363636363635,
                "pitch": 78,
                "velocity": 51,
                "duration": 1.370454545454546,
                "tempo": 120.0
            },
            {
                "start_time": 25.23181818181818,
                "end_time": 25.486363636363635,
                "pitch": 59,
                "velocity": 51,
                "duration": 0.25454545454545396,
                "tempo": 120.0
            },
            {
                "start_time": 25.536363636363635,
                "end_time": 25.799999999999997,
                "pitch": 71,
                "velocity": 51,
                "duration": 0.2636363636363619,
                "tempo": 120.0
            },
            {
                "start_time": 25.849999999999998,
                "end_time": 25.96590909090909,
                "pitch": 69,
                "velocity": 51,
                "duration": 0.11590909090909207,
                "tempo": 120.0
            },
            {
                "start_time": 26.01590909090909,
                "end_time": 26.279545454545453,
                "pitch": 64,
                "velocity": 51,
                "duration": 0.2636363636363619,
                "tempo": 120.0
            },
            {
                "start_time": 26.329545454545453,
                "end_time": 26.74090909090909,
                "pitch": 66,
                "velocity": 51,
                "duration": 0.41136363636363527,
                "tempo": 120.0
            },
            {
                "start_time": 26.79090909090909,
                "end_time": 26.909090909090907,
                "pitch": 69,
                "velocity": 51,
                "duration": 0.11818181818181728,
                "tempo": 120.0
            },
            {
                "start_time": 26.961363636363636,
                "end_time": 27.061363636363634,
                "pitch": 69,
                "velocity": 51,
                "duration": 0.09999999999999787,
                "tempo": 120.0
            },
            {
                "start_time": 27.113636363636363,
                "end_time": 27.23181818181818,
                "pitch": 66,
                "velocity": 51,
                "duration": 0.11818181818181728,
                "tempo": 120.0
            },
            {
                "start_time": 26.79090909090909,
                "end_time": 27.284090909090907,
                "pitch": 78,
                "velocity": 51,
                "duration": 0.4931818181818173,
                "tempo": 120.0
            },
            {
                "start_time": 27.284090909090907,
                "end_time": 27.552272727272726,
                "pitch": 71,
                "velocity": 51,
                "duration": 0.2681818181818194,
                "tempo": 120.0
            },
            {
                "start_time": 27.604545454545452,
                "end_time": 30.070454545454545,
                "pitch": 73,
                "velocity": 51,
                "duration": 2.4659090909090935,
                "tempo": 120.0
            }
        ],
        "Acoustic Bass": [
            {
                "start_time": 0.011363636363636364,
                "end_time": 0.1159090909090909,
                "pitch": 45,
                "velocity": 64,
                "duration": 0.10454545454545454,
                "tempo": 120.0
            },
            {
                "start_time": 0.1159090909090909,
                "end_time": 0.21136363636363636,
                "pitch": 47,
                "velocity": 64,
                "duration": 0.09545454545454546,
                "tempo": 120.0
            },
            {
                "start_time": 0.21136363636363636,
                "end_time": 0.37727272727272726,
                "pitch": 47,
                "velocity": 64,
                "duration": 0.1659090909090909,
                "tempo": 120.0
            },
            {
                "start_time": 0.1159090909090909,
                "end_time": 0.5272727272727272,
                "pitch": 45,
                "velocity": 64,
                "duration": 0.4113636363636363,
                "tempo": 120.0
            },
            {
                "start_time": 0.37727272727272726,
                "end_time": 0.5272727272727272,
                "pitch": 45,
                "velocity": 64,
                "duration": 0.14999999999999997,
                "tempo": 120.0
            },
            {
                "start_time": 0.37727272727272726,
                "end_time": 0.6931818181818181,
                "pitch": 47,
                "velocity": 64,
                "duration": 0.31590909090909086,
                "tempo": 120.0
            },
            {
                "start_time": 0.5272727272727272,
                "end_time": 0.6931818181818181,
                "pitch": 47,
                "velocity": 64,
                "duration": 0.1659090909090909,
                "tempo": 120.0
            },
            {
                "start_time": 0.6931818181818181,
                "end_time": 0.8431818181818181,
                "pitch": 47,
                "velocity": 64,
                "duration": 0.15000000000000002,
                "tempo": 120.0
            },
            {
                "start_time": 0.8431818181818181,
                "end_time": 1.009090909090909,
                "pitch": 40,
                "velocity": 64,
                "duration": 0.1659090909090909,
                "tempo": 120.0
            },
            {
                "start_time": 1.009090909090909,
                "end_time": 1.159090909090909,
                "pitch": 40,
                "velocity": 64,
                "duration": 0.1499999999999999,
                "tempo": 120.0
            },
            {
                "start_time": 0.5272727272727272,
                "end_time": 1.325,
                "pitch": 45,
                "velocity": 64,
                "duration": 0.7977272727272727,
                "tempo": 120.0
            },
            {
                "start_time": 1.159090909090909,
                "end_time": 1.325,
                "pitch": 45,
                "velocity": 64,
                "duration": 0.165909090909091,
                "tempo": 120.0
            },
            {
                "start_time": 1.325,
                "end_time": 1.4749999999999999,
                "pitch": 47,
                "velocity": 64,
                "duration": 0.1499999999999999,
                "tempo": 120.0
            },
            {
                "start_time": 1.4749999999999999,
                "end_time": 1.643181818181818,
                "pitch": 47,
                "velocity": 64,
                "duration": 0.1681818181818182,
                "tempo": 120.0
            },
            {
                "start_time": 1.325,
                "end_time": 1.793181818181818,
                "pitch": 45,
                "velocity": 64,
                "duration": 0.46818181818181803,
                "tempo": 120.0
            },
            {
                "start_time": 1.643181818181818,
                "end_time": 1.793181818181818,
                "pitch": 45,
                "velocity": 64,
                "duration": 0.1499999999999999,
                "tempo": 120.0
            },
            {
                "start_time": 1.793181818181818,
                "end_time": 1.959090909090909,
                "pitch": 47,
                "velocity": 64,
                "duration": 0.165909090909091,
                "tempo": 120.0
            },
            {
                "start_time": 0.8431818181818181,
                "end_time": 2.109090909090909,
                "pitch": 35,
                "velocity": 64,
                "duration": 1.2659090909090907,
                "tempo": 120.0
            },
            {
                "start_time": 1.959090909090909,
                "end_time": 2.109090909090909,
                "pitch": 47,
                "velocity": 64,
                "duration": 0.1499999999999999,
                "tempo": 120.0
            },
            {
                "start_time": 2.109090909090909,
                "end_time": 2.275,
                "pitch": 40,
                "velocity": 64,
                "duration": 0.165909090909091,
                "tempo": 120.0
            },
            {
                "start_time": 2.275,
                "end_time": 2.425,
                "pitch": 40,
                "velocity": 64,
                "duration": 0.1499999999999999,
                "tempo": 120.0
            },
            {
                "start_time": 1.159090909090909,
                "end_time": 2.425,
                "pitch": 54,
                "velocity": 64,
                "duration": 1.2659090909090909,
                "tempo": 120.0
            },
            {
                "start_time": 1.793181818181818,
                "end_time": 2.590909090909091,
                "pitch": 45,
                "velocity": 64,
                "duration": 0.7977272727272728,
                "tempo": 120.0
            },
            {
                "start_time": 2.425,
                "end_time": 2.590909090909091,
                "pitch": 45,
                "velocity": 64,
                "duration": 0.165909090909091,
                "tempo": 120.0
            },
            {
                "start_time": 2.590909090909091,
                "end_time": 2.7409090909090907,
                "pitch": 47,
                "velocity": 64,
                "duration": 0.1499999999999999,
                "tempo": 120.0
            },
            {
                "start_time": 2.7409090909090907,
                "end_time": 2.909090909090909,
                "pitch": 47,
                "velocity": 64,
                "duration": 0.16818181818181843,
                "tempo": 120.0
            },
            {
                "start_time": 2.590909090909091,
                "end_time": 3.059090909090909,
                "pitch": 45,
                "velocity": 64,
                "duration": 0.46818181818181825,
                "tempo": 120.0
            },
            {
                "start_time": 2.909090909090909,
                "end_time": 3.059090909090909,
                "pitch": 45,
                "velocity": 64,
                "duration": 0.1499999999999999,
                "tempo": 120.0
            },
            {
                "start_time": 3.059090909090909,
                "end_time": 3.2249999999999996,
                "pitch": 47,
                "velocity": 64,
                "duration": 0.16590909090909056,
                "tempo": 120.0
            },
            {
                "start_time": 2.109090909090909,
                "end_time": 3.375,
                "pitch": 35,
                "velocity": 64,
                "duration": 1.265909090909091,
                "tempo": 120.0
            },
            {
                "start_time": 3.2249999999999996,
                "end_time": 3.375,
                "pitch": 47,
                "velocity": 64,
                "duration": 0.15000000000000036,
                "tempo": 120.0
            },
            {
                "start_time": 3.375,
                "end_time": 3.5409090909090906,
                "pitch": 40,
                "velocity": 64,
                "duration": 0.16590909090909056,
                "tempo": 120.0
            },
            {
                "start_time": 3.5409090909090906,
                "end_time": 3.690909090909091,
                "pitch": 40,
                "velocity": 64,
                "duration": 0.15000000000000036,
                "tempo": 120.0
            },
            {
                "start_time": 3.059090909090909,
                "end_time": 3.859090909090909,
                "pitch": 45,
                "velocity": 64,
                "duration": 0.7999999999999998,
                "tempo": 120.0
            },
            {
                "start_time": 3.690909090909091,
                "end_time": 3.859090909090909,
                "pitch": 45,
                "velocity": 64,
                "duration": 0.168181818181818,
                "tempo": 120.0
            },
            {
                "start_time": 3.859090909090909,
                "end_time": 4.009090909090909,
                "pitch": 47,
                "velocity": 64,
                "duration": 0.1499999999999999,
                "tempo": 120.0
            },
            {
                "start_time": 4.009090909090909,
                "end_time": 4.159090909090909,
                "pitch": 47,
                "velocity": 64,
                "duration": 0.15000000000000036,
                "tempo": 120.0
            },
            {
                "start_time": 4.159090909090909,
                "end_time": 4.325,
                "pitch": 45,
                "velocity": 64,
                "duration": 0.165909090909091,
                "tempo": 120.0
            },
            {
                "start_time": 4.159090909090909,
                "end_time": 4.475,
                "pitch": 47,
                "velocity": 64,
                "duration": 0.3159090909090905,
                "tempo": 120.0
            },
            {
                "start_time": 4.325,
                "end_time": 4.475,
                "pitch": 47,
                "velocity": 64,
                "duration": 0.14999999999999947,
                "tempo": 120.0
            },
            {
                "start_time": 3.375,
                "end_time": 4.640909090909091,
                "pitch": 35,
                "velocity": 64,
                "duration": 1.2659090909090907,
                "tempo": 120.0
            },
            {
                "start_time": 4.475,
                "end_time": 4.640909090909091,
                "pitch": 47,
                "velocity": 64,
                "duration": 0.165909090909091,
                "tempo": 120.0
            },
            {
                "start_time": 4.640909090909091,
                "end_time": 4.790909090909091,
                "pitch": 40,
                "velocity": 64,
                "duration": 0.15000000000000036,
                "tempo": 120.0
            },
            {
                "start_time": 4.790909090909091,
                "end_time": 4.959090909090909,
                "pitch": 40,
                "velocity": 64,
                "duration": 0.168181818181818,
                "tempo": 120.0
            },
            {
                "start_time": 2.425,
                "end_time": 4.959090909090909,
                "pitch": 54,
                "velocity": 64,
                "duration": 2.534090909090909,
                "tempo": 120.0
            },
            {
                "start_time": 4.959090909090909,
                "end_time": 5.1068181818181815,
                "pitch": 43,
                "velocity": 64,
                "duration": 0.14772727272727249,
                "tempo": 120.0
            },
            {
                "start_time": 5.1068181818181815,
                "end_time": 5.2749999999999995,
                "pitch": 43,
                "velocity": 64,
                "duration": 0.168181818181818,
                "tempo": 120.0
            },
            {
                "start_time": 5.2749999999999995,
                "end_time": 5.427272727272727,
                "pitch": 43,
                "velocity": 64,
                "duration": 0.15227272727272734,
                "tempo": 120.0
            },
            {
                "start_time": 5.427272727272727,
                "end_time": 5.597727272727273,
                "pitch": 43,
                "velocity": 64,
                "duration": 0.17045454545454586,
                "tempo": 120.0
            },
            {
                "start_time": 5.597727272727273,
                "end_time": 5.75,
                "pitch": 43,
                "velocity": 64,
                "duration": 0.15227272727272734,
                "tempo": 120.0
            },
            {
                "start_time": 5.75,
                "end_time": 5.920454545454545,
                "pitch": 43,
                "velocity": 64,
                "duration": 0.17045454545454497,
                "tempo": 120.0
            },
            {
                "start_time": 5.920454545454545,
                "end_time": 6.070454545454545,
                "pitch": 43,
                "velocity": 64,
                "duration": 0.15000000000000036,
                "tempo": 120.0
            },
            {
                "start_time": 6.070454545454545,
                "end_time": 6.238636363636363,
                "pitch": 43,
                "velocity": 64,
                "duration": 0.168181818181818,
                "tempo": 120.0
            },
            {
                "start_time": 6.238636363636363,
                "end_time": 6.386363636363636,
                "pitch": 42,
                "velocity": 64,
                "duration": 0.14772727272727249,
                "tempo": 120.0
            },
            {
                "start_time": 6.386363636363636,
                "end_time": 6.554545454545454,
                "pitch": 42,
                "velocity": 64,
                "duration": 0.168181818181818,
                "tempo": 120.0
            },
            {
                "start_time": 6.554545454545454,
                "end_time": 6.704545454545454,
                "pitch": 42,
                "velocity": 64,
                "duration": 0.15000000000000036,
                "tempo": 120.0
            },
            {
                "start_time": 6.704545454545454,
                "end_time": 6.870454545454545,
                "pitch": 42,
                "velocity": 64,
                "duration": 0.165909090909091,
                "tempo": 120.0
            },
            {
                "start_time": 6.870454545454545,
                "end_time": 7.0204545454545455,
                "pitch": 42,
                "velocity": 64,
                "duration": 0.15000000000000036,
                "tempo": 120.0
            },
            {
                "start_time": 7.0204545454545455,
                "end_time": 7.186363636363636,
                "pitch": 42,
                "velocity": 64,
                "duration": 0.16590909090909012,
                "tempo": 120.0
            },
            {
                "start_time": 4.959090909090909,
                "end_time": 7.186363636363636,
                "pitch": 54,
                "velocity": 64,
                "duration": 2.2272727272727266,
                "tempo": 120.0
            },
            {
                "start_time": 7.186363636363636,
                "end_time": 7.336363636363636,
                "pitch": 43,
                "velocity": 64,
                "duration": 0.15000000000000036,
                "tempo": 120.0
            },
            {
                "start_time": 7.336363636363636,
                "end_time": 7.504545454545454,
                "pitch": 43,
                "velocity": 64,
                "duration": 0.168181818181818,
                "tempo": 120.0
            },
            {
                "start_time": 7.504545454545454,
                "end_time": 7.654545454545454,
                "pitch": 44,
                "velocity": 64,
                "duration": 0.15000000000000036,
                "tempo": 120.0
            },
            {
                "start_time": 7.654545454545454,
                "end_time": 7.820454545454545,
                "pitch": 47,
                "velocity": 64,
                "duration": 0.165909090909091,
                "tempo": 120.0
            },
            {
                "start_time": 7.820454545454545,
                "end_time": 7.970454545454545,
                "pitch": 47,
                "velocity": 64,
                "duration": 0.14999999999999947,
                "tempo": 120.0
            },
            {
                "start_time": 4.325,
                "end_time": 8.136363636363637,
                "pitch": 45,
                "velocity": 64,
                "duration": 3.8113636363636365,
                "tempo": 120.0
            },
            {
                "start_time": 7.970454545454545,
                "end_time": 8.136363636363637,
                "pitch": 45,
                "velocity": 64,
                "duration": 0.1659090909090919,
                "tempo": 120.0
            },
            {
                "start_time": 7.970454545454545,
                "end_time": 8.286363636363635,
                "pitch": 47,
                "velocity": 64,
                "duration": 0.3159090909090905,
                "tempo": 120.0
            },
            {
                "start_time": 8.136363636363637,
                "end_time": 8.286363636363635,
                "pitch": 47,
                "velocity": 64,
                "duration": 0.14999999999999858,
                "tempo": 120.0
            },
            {
                "start_time": 4.640909090909091,
                "end_time": 8.436363636363636,
                "pitch": 35,
                "velocity": 64,
                "duration": 3.795454545454545,
                "tempo": 120.0
            },
            {
                "start_time": 8.286363636363635,
                "end_time": 8.436363636363636,
                "pitch": 47,
                "velocity": 64,
                "duration": 0.15000000000000036,
                "tempo": 120.0
            },
            {
                "start_time": 8.436363636363636,
                "end_time": 8.602272727272727,
                "pitch": 40,
                "velocity": 64,
                "duration": 0.165909090909091,
                "tempo": 120.0
            },
            {
                "start_time": 8.602272727272727,
                "end_time": 8.75,
                "pitch": 40,
                "velocity": 64,
                "duration": 0.14772727272727337,
                "tempo": 120.0
            },
            {
                "start_time": 7.186363636363636,
                "end_time": 8.75,
                "pitch": 54,
                "velocity": 64,
                "duration": 1.5636363636363644,
                "tempo": 120.0
            },
            {
                "start_time": 8.75,
                "end_time": 8.915909090909091,
                "pitch": 45,
                "velocity": 64,
                "duration": 0.165909090909091,
                "tempo": 120.0
            },
            {
                "start_time": 8.915909090909091,
                "end_time": 9.063636363636363,
                "pitch": 47,
                "velocity": 64,
                "duration": 0.1477272727272716,
                "tempo": 120.0
            },
            {
                "start_time": 9.063636363636363,
                "end_time": 9.23181818181818,
                "pitch": 47,
                "velocity": 64,
                "duration": 0.168181818181818,
                "tempo": 120.0
            },
            {
                "start_time": 9.23181818181818,
                "end_time": 9.386363636363637,
                "pitch": 45,
                "velocity": 64,
                "duration": 0.1545454545454561,
                "tempo": 120.0
            },
            {
                "start_time": 9.386363636363637,
                "end_time": 9.556818181818182,
                "pitch": 47,
                "velocity": 64,
                "duration": 0.17045454545454497,
                "tempo": 120.0
            },
            {
                "start_time": 8.436363636363636,
                "end_time": 9.709090909090909,
                "pitch": 35,
                "velocity": 64,
                "duration": 1.2727272727272734,
                "tempo": 120.0
            },
            {
                "start_time": 9.556818181818182,
                "end_time": 9.709090909090909,
                "pitch": 47,
                "velocity": 64,
                "duration": 0.15227272727272734,
                "tempo": 120.0
            },
            {
                "start_time": 9.709090909090909,
                "end_time": 9.875,
                "pitch": 40,
                "velocity": 64,
                "duration": 0.165909090909091,
                "tempo": 120.0
            },
            {
                "start_time": 9.875,
                "end_time": 10.022727272727272,
                "pitch": 40,
                "velocity": 64,
                "duration": 0.1477272727272716,
                "tempo": 120.0
            },
            {
                "start_time": 10.022727272727272,
                "end_time": 10.188636363636363,
                "pitch": 45,
                "velocity": 64,
                "duration": 0.165909090909091,
                "tempo": 120.0
            },
            {
                "start_time": 10.188636363636363,
                "end_time": 10.336363636363636,
                "pitch": 47,
                "velocity": 64,
                "duration": 0.14772727272727337,
                "tempo": 120.0
            },
            {
                "start_time": 10.336363636363636,
                "end_time": 10.502272727272727,
                "pitch": 47,
                "velocity": 64,
                "duration": 0.165909090909091,
                "tempo": 120.0
            },
            {
                "start_time": 10.188636363636363,
                "end_time": 10.652272727272727,
                "pitch": 45,
                "velocity": 64,
                "duration": 0.46363636363636473,
                "tempo": 120.0
            },
            {
                "start_time": 10.502272727272727,
                "end_time": 10.652272727272727,
                "pitch": 45,
                "velocity": 64,
                "duration": 0.15000000000000036,
                "tempo": 120.0
            },
            {
                "start_time": 10.502272727272727,
                "end_time": 10.820454545454545,
                "pitch": 47,
                "velocity": 64,
                "duration": 0.31818181818181834,
                "tempo": 120.0
            },
            {
                "start_time": 10.652272727272727,
                "end_time": 10.820454545454545,
                "pitch": 47,
                "velocity": 64,
                "duration": 0.168181818181818,
                "tempo": 120.0
            },
            {
                "start_time": 9.709090909090909,
                "end_time": 10.970454545454546,
                "pitch": 35,
                "velocity": 64,
                "duration": 1.2613636363636367,
                "tempo": 120.0
            },
            {
                "start_time": 10.820454545454545,
                "end_time": 10.970454545454546,
                "pitch": 47,
                "velocity": 64,
                "duration": 0.15000000000000036,
                "tempo": 120.0
            },
            {
                "start_time": 10.970454545454546,
                "end_time": 11.136363636363637,
                "pitch": 40,
                "velocity": 64,
                "duration": 0.165909090909091,
                "tempo": 120.0
            },
            {
                "start_time": 11.136363636363637,
                "end_time": 11.286363636363635,
                "pitch": 40,
                "velocity": 64,
                "duration": 0.14999999999999858,
                "tempo": 120.0
            },
            {
                "start_time": 8.75,
                "end_time": 11.286363636363635,
                "pitch": 54,
                "velocity": 64,
                "duration": 2.5363636363636353,
                "tempo": 120.0
            },
            {
                "start_time": 10.652272727272727,
                "end_time": 11.452272727272726,
                "pitch": 45,
                "velocity": 64,
                "duration": 0.7999999999999989,
                "tempo": 120.0
            },
            {
                "start_time": 11.286363636363635,
                "end_time": 11.452272727272726,
                "pitch": 45,
                "velocity": 64,
                "duration": 0.165909090909091,
                "tempo": 120.0
            },
            {
                "start_time": 11.452272727272726,
                "end_time": 11.602272727272727,
                "pitch": 47,
                "velocity": 64,
                "duration": 0.15000000000000036,
                "tempo": 120.0
            },
            {
                "start_time": 11.602272727272727,
                "end_time": 11.768181818181818,
                "pitch": 47,
                "velocity": 64,
                "duration": 0.165909090909091,
                "tempo": 120.0
            },
            {
                "start_time": 11.768181818181818,
                "end_time": 11.918181818181818,
                "pitch": 45,
                "velocity": 64,
                "duration": 0.15000000000000036,
                "tempo": 120.0
            },
            {
                "start_time": 11.768181818181818,
                "end_time": 12.084090909090909,
                "pitch": 47,
                "velocity": 64,
                "duration": 0.31590909090909136,
                "tempo": 120.0
            },
            {
                "start_time": 11.918181818181818,
                "end_time": 12.084090909090909,
                "pitch": 47,
                "velocity": 64,
                "duration": 0.165909090909091,
                "tempo": 120.0
            },
            {
                "start_time": 10.970454545454546,
                "end_time": 12.236363636363636,
                "pitch": 35,
                "velocity": 64,
                "duration": 1.2659090909090907,
                "tempo": 120.0
            },
            {
                "start_time": 12.084090909090909,
                "end_time": 12.236363636363636,
                "pitch": 47,
                "velocity": 64,
                "duration": 0.15227272727272734,
                "tempo": 120.0
            },
            {
                "start_time": 12.236363636363636,
                "end_time": 12.404545454545454,
                "pitch": 40,
                "velocity": 64,
                "duration": 0.168181818181818,
                "tempo": 120.0
            },
            {
                "start_time": 12.404545454545454,
                "end_time": 12.559090909090909,
                "pitch": 40,
                "velocity": 64,
                "duration": 0.15454545454545432,
                "tempo": 120.0
            },
            {
                "start_time": 11.286363636363635,
                "end_time": 12.559090909090909,
                "pitch": 54,
                "velocity": 64,
                "duration": 1.2727272727272734,
                "tempo": 120.0
            },
            {
                "start_time": 11.918181818181818,
                "end_time": 12.711363636363636,
                "pitch": 45,
                "velocity": 64,
                "duration": 0.793181818181818,
                "tempo": 120.0
            },
            {
                "start_time": 12.559090909090909,
                "end_time": 12.711363636363636,
                "pitch": 45,
                "velocity": 64,
                "duration": 0.15227272727272734,
                "tempo": 120.0
            },
            {
                "start_time": 12.711363636363636,
                "end_time": 12.881818181818181,
                "pitch": 47,
                "velocity": 64,
                "duration": 0.17045454545454497,
                "tempo": 120.0
            },
            {
                "start_time": 12.881818181818181,
                "end_time": 13.031818181818181,
                "pitch": 47,
                "velocity": 64,
                "duration": 0.15000000000000036,
                "tempo": 120.0
            },
            {
                "start_time": 13.031818181818181,
                "end_time": 13.197727272727272,
                "pitch": 45,
                "velocity": 64,
                "duration": 0.165909090909091,
                "tempo": 120.0
            },
            {
                "start_time": 13.031818181818181,
                "end_time": 13.347727272727273,
                "pitch": 47,
                "velocity": 64,
                "duration": 0.31590909090909136,
                "tempo": 120.0
            },
            {
                "start_time": 13.197727272727272,
                "end_time": 13.347727272727273,
                "pitch": 47,
                "velocity": 64,
                "duration": 0.15000000000000036,
                "tempo": 120.0
            },
            {
                "start_time": 12.236363636363636,
                "end_time": 13.51590909090909,
                "pitch": 35,
                "velocity": 64,
                "duration": 1.2795454545454543,
                "tempo": 120.0
            },
            {
                "start_time": 13.347727272727273,
                "end_time": 13.51590909090909,
                "pitch": 47,
                "velocity": 64,
                "duration": 0.168181818181818,
                "tempo": 120.0
            },
            {
                "start_time": 13.51590909090909,
                "end_time": 13.665909090909091,
                "pitch": 40,
                "velocity": 64,
                "duration": 0.15000000000000036,
                "tempo": 120.0
            },
            {
                "start_time": 13.665909090909091,
                "end_time": 13.831818181818182,
                "pitch": 40,
                "velocity": 64,
                "duration": 0.165909090909091,
                "tempo": 120.0
            },
            {
                "start_time": 13.197727272727272,
                "end_time": 13.98181818181818,
                "pitch": 45,
                "velocity": 64,
                "duration": 0.7840909090909083,
                "tempo": 120.0
            },
            {
                "start_time": 13.831818181818182,
                "end_time": 13.98181818181818,
                "pitch": 45,
                "velocity": 64,
                "duration": 0.14999999999999858,
                "tempo": 120.0
            },
            {
                "start_time": 13.98181818181818,
                "end_time": 14.147727272727272,
                "pitch": 47,
                "velocity": 64,
                "duration": 0.165909090909091,
                "tempo": 120.0
            },
            {
                "start_time": 14.147727272727272,
                "end_time": 14.297727272727272,
                "pitch": 47,
                "velocity": 64,
                "duration": 0.15000000000000036,
                "tempo": 120.0
            },
            {
                "start_time": 14.297727272727272,
                "end_time": 14.463636363636363,
                "pitch": 45,
                "velocity": 64,
                "duration": 0.165909090909091,
                "tempo": 120.0
            },
            {
                "start_time": 14.463636363636363,
                "end_time": 14.613636363636363,
                "pitch": 47,
                "velocity": 64,
                "duration": 0.15000000000000036,
                "tempo": 120.0
            },
            {
                "start_time": 14.613636363636363,
                "end_time": 14.781818181818181,
                "pitch": 47,
                "velocity": 64,
                "duration": 0.168181818181818,
                "tempo": 120.0
            },
            {
                "start_time": 14.781818181818181,
                "end_time": 14.931818181818182,
                "pitch": 40,
                "velocity": 64,
                "duration": 0.15000000000000036,
                "tempo": 120.0
            },
            {
                "start_time": 14.931818181818182,
                "end_time": 15.097727272727273,
                "pitch": 40,
                "velocity": 64,
                "duration": 0.165909090909091,
                "tempo": 120.0
            },
            {
                "start_time": 12.559090909090909,
                "end_time": 15.097727272727273,
                "pitch": 54,
                "velocity": 64,
                "duration": 2.538636363636364,
                "tempo": 120.0
            },
            {
                "start_time": 14.463636363636363,
                "end_time": 15.247727272727271,
                "pitch": 45,
                "velocity": 64,
                "duration": 0.7840909090909083,
                "tempo": 120.0
            },
            {
                "start_time": 15.097727272727273,
                "end_time": 15.247727272727271,
                "pitch": 45,
                "velocity": 64,
                "duration": 0.14999999999999858,
                "tempo": 120.0
            },
            {
                "start_time": 15.247727272727271,
                "end_time": 15.413636363636362,
                "pitch": 47,
                "velocity": 64,
                "duration": 0.165909090909091,
                "tempo": 120.0
            },
            {
                "start_time": 15.413636363636362,
                "end_time": 15.563636363636363,
                "pitch": 47,
                "velocity": 64,
                "duration": 0.15000000000000036,
                "tempo": 120.0
            },
            {
                "start_time": 15.563636363636363,
                "end_time": 15.729545454545454,
                "pitch": 45,
                "velocity": 64,
                "duration": 0.165909090909091,
                "tempo": 120.0
            },
            {
                "start_time": 15.729545454545454,
                "end_time": 15.73181818181818,
                "pitch": 45,
                "velocity": 64,
                "duration": 0.002272727272726982,
                "tempo": 120.0
            },
            {
                "start_time": 15.563636363636363,
                "end_time": 15.881818181818181,
                "pitch": 47,
                "velocity": 64,
                "duration": 0.31818181818181834,
                "tempo": 120.0
            },
            {
                "start_time": 15.73181818181818,
                "end_time": 15.881818181818181,
                "pitch": 47,
                "velocity": 64,
                "duration": 0.15000000000000036,
                "tempo": 120.0
            },
            {
                "start_time": 13.51590909090909,
                "end_time": 16.047727272727272,
                "pitch": 35,
                "velocity": 64,
                "duration": 2.5318181818181813,
                "tempo": 120.0
            },
            {
                "start_time": 15.881818181818181,
                "end_time": 16.047727272727272,
                "pitch": 47,
                "velocity": 64,
                "duration": 0.165909090909091,
                "tempo": 120.0
            },
            {
                "start_time": 16.047727272727272,
                "end_time": 16.2,
                "pitch": 40,
                "velocity": 64,
                "duration": 0.15227272727272734,
                "tempo": 120.0
            },
            {
                "start_time": 16.2,
                "end_time": 16.370454545454546,
                "pitch": 40,
                "velocity": 64,
                "duration": 0.17045454545454675,
                "tempo": 120.0
            },
            {
                "start_time": 15.097727272727273,
                "end_time": 16.370454545454546,
                "pitch": 54,
                "velocity": 64,
                "duration": 1.2727272727272734,
                "tempo": 120.0
            },
            {
                "start_time": 16.370454545454546,
                "end_time": 16.522727272727273,
                "pitch": 45,
                "velocity": 64,
                "duration": 0.15227272727272734,
                "tempo": 120.0
            },
            {
                "start_time": 16.522727272727273,
                "end_time": 16.693181818181817,
                "pitch": 47,
                "velocity": 64,
                "duration": 0.1704545454545432,
                "tempo": 120.0
            },
            {
                "start_time": 16.693181818181817,
                "end_time": 16.84090909090909,
                "pitch": 47,
                "velocity": 64,
                "duration": 0.14772727272727337,
                "tempo": 120.0
            },
            {
                "start_time": 16.522727272727273,
                "end_time": 16.99090909090909,
                "pitch": 45,
                "velocity": 64,
                "duration": 0.46818181818181515,
                "tempo": 120.0
            },
            {
                "start_time": 16.84090909090909,
                "end_time": 16.99090909090909,
                "pitch": 45,
                "velocity": 64,
                "duration": 0.14999999999999858,
                "tempo": 120.0
            },
            {
                "start_time": 16.84090909090909,
                "end_time": 17.154545454545453,
                "pitch": 47,
                "velocity": 64,
                "duration": 0.3136363636363626,
                "tempo": 120.0
            },
            {
                "start_time": 16.99090909090909,
                "end_time": 17.154545454545453,
                "pitch": 47,
                "velocity": 64,
                "duration": 0.16363636363636402,
                "tempo": 120.0
            },
            {
                "start_time": 16.047727272727272,
                "end_time": 17.304545454545455,
                "pitch": 35,
                "velocity": 64,
                "duration": 1.2568181818181827,
                "tempo": 120.0
            },
            {
                "start_time": 17.154545454545453,
                "end_time": 17.304545454545455,
                "pitch": 47,
                "velocity": 64,
                "duration": 0.15000000000000213,
                "tempo": 120.0
            },
            {
                "start_time": 17.304545454545455,
                "end_time": 17.46818181818182,
                "pitch": 40,
                "velocity": 64,
                "duration": 0.16363636363636402,
                "tempo": 120.0
            },
            {
                "start_time": 17.46818181818182,
                "end_time": 17.618181818181817,
                "pitch": 40,
                "velocity": 64,
                "duration": 0.14999999999999858,
                "tempo": 120.0
            },
            {
                "start_time": 16.370454545454546,
                "end_time": 17.618181818181817,
                "pitch": 54,
                "velocity": 64,
                "duration": 1.2477272727272712,
                "tempo": 120.0
            },
            {
                "start_time": 17.618181818181817,
                "end_time": 17.78181818181818,
                "pitch": 45,
                "velocity": 64,
                "duration": 0.16363636363636402,
                "tempo": 120.0
            },
            {
                "start_time": 17.78181818181818,
                "end_time": 17.929545454545455,
                "pitch": 47,
                "velocity": 64,
                "duration": 0.14772727272727337,
                "tempo": 120.0
            },
            {
                "start_time": 17.929545454545455,
                "end_time": 18.097727272727273,
                "pitch": 47,
                "velocity": 64,
                "duration": 0.168181818181818,
                "tempo": 120.0
            },
            {
                "start_time": 17.78181818181818,
                "end_time": 18.245454545454546,
                "pitch": 45,
                "velocity": 64,
                "duration": 0.46363636363636473,
                "tempo": 120.0
            },
            {
                "start_time": 18.097727272727273,
                "end_time": 18.245454545454546,
                "pitch": 45,
                "velocity": 64,
                "duration": 0.14772727272727337,
                "tempo": 120.0
            },
            {
                "start_time": 18.245454545454546,
                "end_time": 18.413636363636364,
                "pitch": 47,
                "velocity": 64,
                "duration": 0.168181818181818,
                "tempo": 120.0
            },
            {
                "start_time": 18.413636363636364,
                "end_time": 18.563636363636363,
                "pitch": 47,
                "velocity": 64,
                "duration": 0.14999999999999858,
                "tempo": 120.0
            },
            {
                "start_time": 18.563636363636363,
                "end_time": 18.729545454545455,
                "pitch": 40,
                "velocity": 64,
                "duration": 0.16590909090909278,
                "tempo": 120.0
            },
            {
                "start_time": 18.729545454545455,
                "end_time": 18.879545454545454,
                "pitch": 40,
                "velocity": 64,
                "duration": 0.14999999999999858,
                "tempo": 120.0
            },
            {
                "start_time": 18.879545454545454,
                "end_time": 19.045454545454543,
                "pitch": 45,
                "velocity": 64,
                "duration": 0.16590909090908923,
                "tempo": 120.0
            },
            {
                "start_time": 19.045454545454543,
                "end_time": 19.195454545454545,
                "pitch": 47,
                "velocity": 64,
                "duration": 0.15000000000000213,
                "tempo": 120.0
            },
            {
                "start_time": 19.195454545454545,
                "end_time": 19.36590909090909,
                "pitch": 47,
                "velocity": 64,
                "duration": 0.1704545454545432,
                "tempo": 120.0
            },
            {
                "start_time": 19.045454545454543,
                "end_time": 19.520454545454545,
                "pitch": 45,
                "velocity": 64,
                "duration": 0.4750000000000014,
                "tempo": 120.0
            },
            {
                "start_time": 19.36590909090909,
                "end_time": 19.520454545454545,
                "pitch": 45,
                "velocity": 64,
                "duration": 0.1545454545454561,
                "tempo": 120.0
            },
            {
                "start_time": 19.36590909090909,
                "end_time": 19.688636363636363,
                "pitch": 47,
                "velocity": 64,
                "duration": 0.3227272727272741,
                "tempo": 120.0
            },
            {
                "start_time": 19.520454545454545,
                "end_time": 19.688636363636363,
                "pitch": 47,
                "velocity": 64,
                "duration": 0.168181818181818,
                "tempo": 120.0
            },
            {
                "start_time": 17.304545454545455,
                "end_time": 19.84318181818182,
                "pitch": 35,
                "velocity": 64,
                "duration": 2.538636363636364,
                "tempo": 120.0
            },
            {
                "start_time": 19.688636363636363,
                "end_time": 19.84318181818182,
                "pitch": 47,
                "velocity": 64,
                "duration": 0.1545454545454561,
                "tempo": 120.0
            },
            {
                "start_time": 19.84318181818182,
                "end_time": 20.009090909090908,
                "pitch": 40,
                "velocity": 64,
                "duration": 0.16590909090908923,
                "tempo": 120.0
            },
            {
                "start_time": 20.009090909090908,
                "end_time": 20.159090909090907,
                "pitch": 40,
                "velocity": 64,
                "duration": 0.14999999999999858,
                "tempo": 120.0
            },
            {
                "start_time": 20.159090909090907,
                "end_time": 20.325,
                "pitch": 50,
                "velocity": 64,
                "duration": 0.16590909090909278,
                "tempo": 120.0
            },
            {
                "start_time": 20.325,
                "end_time": 20.477272727272727,
                "pitch": 50,
                "velocity": 64,
                "duration": 0.15227272727272734,
                "tempo": 120.0
            },
            {
                "start_time": 20.477272727272727,
                "end_time": 20.643181818181816,
                "pitch": 50,
                "velocity": 64,
                "duration": 0.16590909090908923,
                "tempo": 120.0
            },
            {
                "start_time": 20.643181818181816,
                "end_time": 20.793181818181818,
                "pitch": 50,
                "velocity": 64,
                "duration": 0.15000000000000213,
                "tempo": 120.0
            },
            {
                "start_time": 20.793181818181818,
                "end_time": 20.959090909090907,
                "pitch": 50,
                "velocity": 64,
                "duration": 0.16590909090908923,
                "tempo": 120.0
            },
            {
                "start_time": 20.959090909090907,
                "end_time": 21.10909090909091,
                "pitch": 50,
                "velocity": 64,
                "duration": 0.15000000000000213,
                "tempo": 120.0
            },
            {
                "start_time": 21.10909090909091,
                "end_time": 21.259090909090908,
                "pitch": 50,
                "velocity": 64,
                "duration": 0.14999999999999858,
                "tempo": 120.0
            },
            {
                "start_time": 21.259090909090908,
                "end_time": 21.425,
                "pitch": 50,
                "velocity": 64,
                "duration": 0.16590909090909278,
                "tempo": 120.0
            },
            {
                "start_time": 21.425,
                "end_time": 21.575,
                "pitch": 40,
                "velocity": 64,
                "duration": 0.14999999999999858,
                "tempo": 120.0
            },
            {
                "start_time": 21.575,
                "end_time": 21.743181818181817,
                "pitch": 40,
                "velocity": 64,
                "duration": 0.168181818181818,
                "tempo": 120.0
            },
            {
                "start_time": 21.743181818181817,
                "end_time": 21.893181818181816,
                "pitch": 40,
                "velocity": 64,
                "duration": 0.14999999999999858,
                "tempo": 120.0
            },
            {
                "start_time": 21.893181818181816,
                "end_time": 22.05909090909091,
                "pitch": 40,
                "velocity": 64,
                "duration": 0.16590909090909278,
                "tempo": 120.0
            },
            {
                "start_time": 22.05909090909091,
                "end_time": 22.209090909090907,
                "pitch": 40,
                "velocity": 64,
                "duration": 0.14999999999999858,
                "tempo": 120.0
            },
            {
                "start_time": 22.209090909090907,
                "end_time": 22.375,
                "pitch": 40,
                "velocity": 64,
                "duration": 0.16590909090909278,
                "tempo": 120.0
            },
            {
                "start_time": 22.375,
                "end_time": 22.525,
                "pitch": 40,
                "velocity": 64,
                "duration": 0.14999999999999858,
                "tempo": 120.0
            },
            {
                "start_time": 22.525,
                "end_time": 22.693181818181817,
                "pitch": 40,
                "velocity": 64,
                "duration": 0.168181818181818,
                "tempo": 120.0
            },
            {
                "start_time": 22.693181818181817,
                "end_time": 22.84090909090909,
                "pitch": 59,
                "velocity": 64,
                "duration": 0.14772727272727337,
                "tempo": 120.0
            },
            {
                "start_time": 22.84090909090909,
                "end_time": 23.009090909090908,
                "pitch": 47,
                "velocity": 64,
                "duration": 0.168181818181818,
                "tempo": 120.0
            },
            {
                "start_time": 23.009090909090908,
                "end_time": 23.159090909090907,
                "pitch": 47,
                "velocity": 64,
                "duration": 0.14999999999999858,
                "tempo": 120.0
            },
            {
                "start_time": 23.159090909090907,
                "end_time": 23.325,
                "pitch": 59,
                "velocity": 64,
                "duration": 0.16590909090909278,
                "tempo": 120.0
            },
            {
                "start_time": 23.325,
                "end_time": 23.474999999999998,
                "pitch": 47,
                "velocity": 64,
                "duration": 0.14999999999999858,
                "tempo": 120.0
            },
            {
                "start_time": 23.474999999999998,
                "end_time": 23.64090909090909,
                "pitch": 47,
                "velocity": 64,
                "duration": 0.16590909090909278,
                "tempo": 120.0
            },
            {
                "start_time": 23.64090909090909,
                "end_time": 23.79090909090909,
                "pitch": 59,
                "velocity": 64,
                "duration": 0.14999999999999858,
                "tempo": 120.0
            },
            {
                "start_time": 23.79090909090909,
                "end_time": 23.956818181818182,
                "pitch": 47,
                "velocity": 64,
                "duration": 0.16590909090909278,
                "tempo": 120.0
            },
            {
                "start_time": 23.959090909090907,
                "end_time": 24.10681818181818,
                "pitch": 47,
                "velocity": 64,
                "duration": 0.14772727272727337,
                "tempo": 120.0
            },
            {
                "start_time": 24.10681818181818,
                "end_time": 24.275,
                "pitch": 47,
                "velocity": 64,
                "duration": 0.168181818181818,
                "tempo": 120.0
            },
            {
                "start_time": 24.275,
                "end_time": 24.424999999999997,
                "pitch": 59,
                "velocity": 64,
                "duration": 0.14999999999999858,
                "tempo": 120.0
            },
            {
                "start_time": 24.424999999999997,
                "end_time": 24.59090909090909,
                "pitch": 47,
                "velocity": 64,
                "duration": 0.16590909090909278,
                "tempo": 120.0
            },
            {
                "start_time": 24.59090909090909,
                "end_time": 24.74090909090909,
                "pitch": 47,
                "velocity": 64,
                "duration": 0.14999999999999858,
                "tempo": 120.0
            },
            {
                "start_time": 24.74090909090909,
                "end_time": 24.90681818181818,
                "pitch": 59,
                "velocity": 64,
                "duration": 0.16590909090909278,
                "tempo": 120.0
            },
            {
                "start_time": 24.90681818181818,
                "end_time": 25.061363636363634,
                "pitch": 47,
                "velocity": 64,
                "duration": 0.15454545454545254,
                "tempo": 120.0
            },
            {
                "start_time": 25.061363636363634,
                "end_time": 25.23181818181818,
                "pitch": 47,
                "velocity": 64,
                "duration": 0.17045454545454675,
                "tempo": 120.0
            },
            {
                "start_time": 25.23181818181818,
                "end_time": 25.384090909090908,
                "pitch": 50,
                "velocity": 64,
                "duration": 0.15227272727272734,
                "tempo": 120.0
            },
            {
                "start_time": 25.384090909090908,
                "end_time": 25.536363636363635,
                "pitch": 50,
                "velocity": 64,
                "duration": 0.15227272727272734,
                "tempo": 120.0
            },
            {
                "start_time": 25.536363636363635,
                "end_time": 25.702272727272724,
                "pitch": 50,
                "velocity": 64,
                "duration": 0.16590909090908923,
                "tempo": 120.0
            },
            {
                "start_time": 25.702272727272724,
                "end_time": 25.849999999999998,
                "pitch": 50,
                "velocity": 64,
                "duration": 0.14772727272727337,
                "tempo": 120.0
            },
            {
                "start_time": 25.849999999999998,
                "end_time": 26.01590909090909,
                "pitch": 50,
                "velocity": 64,
                "duration": 0.16590909090909278,
                "tempo": 120.0
            },
            {
                "start_time": 26.01590909090909,
                "end_time": 26.163636363636364,
                "pitch": 50,
                "velocity": 64,
                "duration": 0.14772727272727337,
                "tempo": 120.0
            },
            {
                "start_time": 26.163636363636364,
                "end_time": 26.329545454545453,
                "pitch": 50,
                "velocity": 64,
                "duration": 0.16590909090908923,
                "tempo": 120.0
            },
            {
                "start_time": 21.425,
                "end_time": 26.477272727272727,
                "pitch": 38,
                "velocity": 64,
                "duration": 5.052272727272726,
                "tempo": 120.0
            },
            {
                "start_time": 26.329545454545453,
                "end_time": 26.477272727272727,
                "pitch": 50,
                "velocity": 64,
                "duration": 0.14772727272727337,
                "tempo": 120.0
            },
            {
                "start_time": 26.477272727272727,
                "end_time": 26.64090909090909,
                "pitch": 40,
                "velocity": 64,
                "duration": 0.16363636363636402,
                "tempo": 120.0
            },
            {
                "start_time": 26.64090909090909,
                "end_time": 26.79090909090909,
                "pitch": 40,
                "velocity": 64,
                "duration": 0.14999999999999858,
                "tempo": 120.0
            },
            {
                "start_time": 26.79090909090909,
                "end_time": 26.961363636363636,
                "pitch": 40,
                "velocity": 64,
                "duration": 0.17045454545454675,
                "tempo": 120.0
            },
            {
                "start_time": 26.961363636363636,
                "end_time": 27.113636363636363,
                "pitch": 40,
                "velocity": 64,
                "duration": 0.15227272727272734,
                "tempo": 120.0
            },
            {
                "start_time": 27.113636363636363,
                "end_time": 27.284090909090907,
                "pitch": 40,
                "velocity": 64,
                "duration": 0.1704545454545432,
                "tempo": 120.0
            },
            {
                "start_time": 27.284090909090907,
                "end_time": 27.436363636363634,
                "pitch": 40,
                "velocity": 64,
                "duration": 0.15227272727272734,
                "tempo": 120.0
            },
            {
                "start_time": 27.436363636363634,
                "end_time": 27.604545454545452,
                "pitch": 40,
                "velocity": 64,
                "duration": 0.168181818181818,
                "tempo": 120.0
            },
            {
                "start_time": 27.604545454545452,
                "end_time": 27.754545454545454,
                "pitch": 40,
                "velocity": 64,
                "duration": 0.15000000000000213,
                "tempo": 120.0
            },
            {
                "start_time": 27.754545454545454,
                "end_time": 27.920454545454543,
                "pitch": 40,
                "velocity": 64,
                "duration": 0.16590909090908923,
                "tempo": 120.0
            },
            {
                "start_time": 27.920454545454543,
                "end_time": 28.070454545454545,
                "pitch": 42,
                "velocity": 64,
                "duration": 0.15000000000000213,
                "tempo": 120.0
            },
            {
                "start_time": 28.070454545454545,
                "end_time": 28.236363636363635,
                "pitch": 42,
                "velocity": 64,
                "duration": 0.16590909090908923,
                "tempo": 120.0
            },
            {
                "start_time": 17.618181818181817,
                "end_time": 28.552272727272726,
                "pitch": 54,
                "velocity": 64,
                "duration": 10.934090909090909,
                "tempo": 120.0
            },
            {
                "start_time": 28.236363636363635,
                "end_time": 28.552272727272726,
                "pitch": 54,
                "velocity": 64,
                "duration": 0.31590909090909136,
                "tempo": 120.0
            },
            {
                "start_time": 28.552272727272726,
                "end_time": 28.702272727272724,
                "pitch": 42,
                "velocity": 64,
                "duration": 0.14999999999999858,
                "tempo": 120.0
            },
            {
                "start_time": 28.702272727272724,
                "end_time": 28.870454545454542,
                "pitch": 42,
                "velocity": 64,
                "duration": 0.168181818181818,
                "tempo": 120.0
            },
            {
                "start_time": 28.870454545454542,
                "end_time": 29.020454545454545,
                "pitch": 40,
                "velocity": 64,
                "duration": 0.15000000000000213,
                "tempo": 120.0
            },
            {
                "start_time": 29.020454545454545,
                "end_time": 29.186363636363634,
                "pitch": 49,
                "velocity": 64,
                "duration": 0.16590909090908923,
                "tempo": 120.0
            },
            {
                "start_time": 29.186363636363634,
                "end_time": 29.336363636363636,
                "pitch": 49,
                "velocity": 64,
                "duration": 0.15000000000000213,
                "tempo": 120.0
            },
            {
                "start_time": 29.336363636363636,
                "end_time": 29.502272727272725,
                "pitch": 54,
                "velocity": 64,
                "duration": 0.16590909090908923,
                "tempo": 120.0
            },
            {
                "start_time": 29.502272727272725,
                "end_time": 29.652272727272727,
                "pitch": 42,
                "velocity": 64,
                "duration": 0.15000000000000213,
                "tempo": 120.0
            },
            {
                "start_time": 29.020454545454545,
                "end_time": 29.802272727272726,
                "pitch": 52,
                "velocity": 64,
                "duration": 0.7818181818181813,
                "tempo": 120.0
            },
            {
                "start_time": 29.652272727272727,
                "end_time": 29.802272727272726,
                "pitch": 52,
                "velocity": 64,
                "duration": 0.14999999999999858,
                "tempo": 120.0
            },
            {
                "start_time": 29.802272727272726,
                "end_time": 29.968181818181815,
                "pitch": 40,
                "velocity": 64,
                "duration": 0.16590909090908923,
                "tempo": 120.0
            },
            {
                "start_time": 29.336363636363636,
                "end_time": 30.12272727272727,
                "pitch": 49,
                "velocity": 64,
                "duration": 0.7863636363636353,
                "tempo": 120.0
            },
            {
                "start_time": 29.968181818181815,
                "end_time": 30.12272727272727,
                "pitch": 49,
                "velocity": 64,
                "duration": 0.1545454545454561,
                "tempo": 120.0
            },
            {
                "start_time": 30.12272727272727,
                "end_time": 30.293181818181818,
                "pitch": 49,
                "velocity": 64,
                "duration": 0.17045454545454675,
                "tempo": 120.0
            },
            {
                "start_time": 30.293181818181818,
                "end_time": 30.445454545454545,
                "pitch": 45,
                "velocity": 64,
                "duration": 0.15227272727272734,
                "tempo": 120.0
            },
            {
                "start_time": 25.23181818181818,
                "end_time": 30.525,
                "pitch": 47,
                "velocity": 64,
                "duration": 5.293181818181818,
                "tempo": 120.0
            },
            {
                "start_time": 30.445454545454545,
                "end_time": 30.525,
                "pitch": 47,
                "velocity": 64,
                "duration": 0.07954545454545325,
                "tempo": 120.0
            }
        ]
    }
}