{
    "track_id": "09 Act 3",
    "mood": "angry",
    "instruments": {
        "Harpsichord": [
            {
                "start_time": 0.8409090909090908,
                "end_time": 1.1704545454545454,
                "pitch": 76,
                "velocity": 51,
                "duration": 0.3295454545454546,
                "tempo": 120.0
            },
            {
                "start_time": 1.2363636363636363,
                "end_time": 1.5636363636363635,
                "pitch": 76,
                "velocity": 51,
                "duration": 0.32727272727272716,
                "tempo": 120.0
            },
            {
                "start_time": 1.6295454545454544,
                "end_time": 1.7977272727272726,
                "pitch": 74,
                "velocity": 51,
                "duration": 0.1681818181818182,
                "tempo": 120.0
            },
            {
                "start_time": 1.8318181818181818,
                "end_time": 2.0,
                "pitch": 76,
                "velocity": 51,
                "duration": 0.1681818181818182,
                "tempo": 120.0
            },
            {
                "start_time": 2.627272727272727,
                "end_time": 2.9545454545454546,
                "pitch": 76,
                "velocity": 51,
                "duration": 0.3272727272727276,
                "tempo": 120.0
            },
            {
                "start_time": 1.6295454545454544,
                "end_time": 3.0227272727272725,
                "pitch": 78,
                "velocity": 51,
                "duration": 1.393181818181818,
                "tempo": 120.0
            },
            {
                "start_time": 1.8318181818181818,
                "end_time": 3.186363636363636,
                "pitch": 74,
                "velocity": 51,
                "duration": 1.3545454545454543,
                "tempo": 120.0
            },
            {
                "start_time": 3.0227272727272725,
                "end_time": 3.186363636363636,
                "pitch": 74,
                "velocity": 51,
                "duration": 0.16363636363636358,
                "tempo": 120.0
            },
            {
                "start_time": 3.218181818181818,
                "end_time": 3.2204545454545452,
                "pitch": 74,
                "velocity": 51,
                "duration": 0.002272727272727426,
                "tempo": 120.0
            },
            {
                "start_time": 3.2204545454545452,
                "end_time": 3.3863636363636362,
                "pitch": 76,
                "velocity": 51,
                "duration": 0.165909090909091,
                "tempo": 120.0
            },
            {
                "start_time": 3.6227272727272726,
                "end_time": 3.9499999999999997,
                "pitch": 79,
                "velocity": 51,
                "duration": 0.32727272727272716,
                "tempo": 120.0
            },
            {
                "start_time": 4.015909090909091,
                "end_time": 4.459090909090909,
                "pitch": 81,
                "velocity": 51,
                "duration": 0.44318181818181834,
                "tempo": 120.0
            },
            {
                "start_time": 3.0227272727272725,
                "end_time": 4.9386363636363635,
                "pitch": 78,
                "velocity": 51,
                "duration": 1.915909090909091,
                "tempo": 120.0
            },
            {
                "start_time": 4.6090909090909085,
                "end_time": 4.9386363636363635,
                "pitch": 78,
                "velocity": 51,
                "duration": 0.32954545454545503,
                "tempo": 120.0
            },
            {
                "start_time": 3.6227272727272726,
                "end_time": 5.209090909090909,
                "pitch": 90,
                "velocity": 51,
                "duration": 1.5863636363636364,
                "tempo": 120.0
            },
            {
                "start_time": 4.015909090909091,
                "end_time": 5.372727272727272,
                "pitch": 79,
                "velocity": 51,
                "duration": 1.3568181818181815,
                "tempo": 120.0
            },
            {
                "start_time": 5.209090909090909,
                "end_time": 5.372727272727272,
                "pitch": 79,
                "velocity": 51,
                "duration": 0.16363636363636314,
                "tempo": 120.0
            },
            {
                "start_time": 0.8409090909090908,
                "end_time": 5.404545454545454,
                "pitch": 0,
                "velocity": 51,
                "duration": 4.5636363636363635,
                "tempo": 120.0
            },
            {
                "start_time": 5.404545454545454,
                "end_time": 5.568181818181818,
                "pitch": 78,
                "velocity": 51,
                "duration": 0.16363636363636402,
                "tempo": 120.0
            },
            {
                "start_time": 5.209090909090909,
                "end_time": 5.602272727272727,
                "pitch": 90,
                "velocity": 51,
                "duration": 0.39318181818181763,
                "tempo": 120.0
            },
            {
                "start_time": 5.602272727272727,
                "end_time": 5.765909090909091,
                "pitch": 79,
                "velocity": 51,
                "duration": 0.16363636363636402,
                "tempo": 120.0
            },
            {
                "start_time": 5.404545454545454,
                "end_time": 5.8,
                "pitch": 0,
                "velocity": 51,
                "duration": 0.3954545454545455,
                "tempo": 120.0
            },
            {
                "start_time": 5.8,
                "end_time": 6.127272727272727,
                "pitch": 76,
                "velocity": 51,
                "duration": 0.32727272727272716,
                "tempo": 120.0
            },
            {
                "start_time": 6.195454545454545,
                "end_time": 6.3590909090909085,
                "pitch": 74,
                "velocity": 51,
                "duration": 0.16363636363636314,
                "tempo": 120.0
            },
            {
                "start_time": 6.390909090909091,
                "end_time": 6.559090909090909,
                "pitch": 71,
                "velocity": 51,
                "duration": 0.168181818181818,
                "tempo": 120.0
            },
            {
                "start_time": 6.195454545454545,
                "end_time": 7.5204545454545455,
                "pitch": 76,
                "velocity": 51,
                "duration": 1.3250000000000002,
                "tempo": 120.0
            },
            {
                "start_time": 7.1909090909090905,
                "end_time": 7.5204545454545455,
                "pitch": 76,
                "velocity": 51,
                "duration": 0.32954545454545503,
                "tempo": 120.0
            },
            {
                "start_time": 7.586363636363636,
                "end_time": 7.913636363636363,
                "pitch": 76,
                "velocity": 51,
                "duration": 0.32727272727272716,
                "tempo": 120.0
            },
            {
                "start_time": 7.9818181818181815,
                "end_time": 8.15,
                "pitch": 74,
                "velocity": 51,
                "duration": 0.16818181818181888,
                "tempo": 120.0
            },
            {
                "start_time": 8.181818181818182,
                "end_time": 8.184090909090909,
                "pitch": 74,
                "velocity": 51,
                "duration": 0.002272727272726982,
                "tempo": 120.0
            },
            {
                "start_time": 8.184090909090909,
                "end_time": 8.352272727272727,
                "pitch": 76,
                "velocity": 51,
                "duration": 0.168181818181818,
                "tempo": 120.0
            },
            {
                "start_time": 8.977272727272727,
                "end_time": 9.306818181818182,
                "pitch": 76,
                "velocity": 51,
                "duration": 0.32954545454545503,
                "tempo": 120.0
            },
            {
                "start_time": 7.9818181818181815,
                "end_time": 9.372727272727273,
                "pitch": 78,
                "velocity": 51,
                "duration": 1.3909090909090915,
                "tempo": 120.0
            },
            {
                "start_time": 9.372727272727273,
                "end_time": 9.536363636363635,
                "pitch": 74,
                "velocity": 51,
                "duration": 0.16363636363636225,
                "tempo": 120.0
            },
            {
                "start_time": 9.570454545454545,
                "end_time": 9.738636363636363,
                "pitch": 76,
                "velocity": 51,
                "duration": 0.168181818181818,
                "tempo": 120.0
            },
            {
                "start_time": 5.602272727272727,
                "end_time": 9.975,
                "pitch": 90,
                "velocity": 51,
                "duration": 4.372727272727273,
                "tempo": 120.0
            },
            {
                "start_time": 9.975,
                "end_time": 10.302272727272726,
                "pitch": 79,
                "velocity": 51,
                "duration": 0.32727272727272627,
                "tempo": 120.0
            },
            {
                "start_time": 10.368181818181817,
                "end_time": 10.370454545454544,
                "pitch": 79,
                "velocity": 51,
                "duration": 0.002272727272726982,
                "tempo": 120.0
            },
            {
                "start_time": 10.370454545454544,
                "end_time": 10.813636363636363,
                "pitch": 81,
                "velocity": 51,
                "duration": 0.44318181818181834,
                "tempo": 120.0
            },
            {
                "start_time": 4.6090909090909085,
                "end_time": 10.961363636363636,
                "pitch": 43,
                "velocity": 51,
                "duration": 6.3522727272727275,
                "tempo": 120.0
            },
            {
                "start_time": 9.372727272727273,
                "end_time": 11.290909090909091,
                "pitch": 78,
                "velocity": 51,
                "duration": 1.918181818181818,
                "tempo": 120.0
            },
            {
                "start_time": 10.961363636363636,
                "end_time": 11.290909090909091,
                "pitch": 78,
                "velocity": 51,
                "duration": 0.32954545454545503,
                "tempo": 120.0
            },
            {
                "start_time": 9.975,
                "end_time": 11.554545454545455,
                "pitch": 90,
                "velocity": 51,
                "duration": 1.579545454545455,
                "tempo": 120.0
            },
            {
                "start_time": 11.554545454545455,
                "end_time": 11.722727272727273,
                "pitch": 79,
                "velocity": 51,
                "duration": 0.168181818181818,
                "tempo": 120.0
            },
            {
                "start_time": 5.8,
                "end_time": 11.756818181818181,
                "pitch": 0,
                "velocity": 51,
                "duration": 5.956818181818181,
                "tempo": 120.0
            },
            {
                "start_time": 11.756818181818181,
                "end_time": 11.924999999999999,
                "pitch": 78,
                "velocity": 51,
                "duration": 0.168181818181818,
                "tempo": 120.0
            },
            {
                "start_time": 11.554545454545455,
                "end_time": 11.959090909090909,
                "pitch": 90,
                "velocity": 51,
                "duration": 0.4045454545454543,
                "tempo": 120.0
            },
            {
                "start_time": 11.959090909090909,
                "end_time": 12.122727272727273,
                "pitch": 79,
                "velocity": 51,
                "duration": 0.16363636363636402,
                "tempo": 120.0
            },
            {
                "start_time": 11.756818181818181,
                "end_time": 12.156818181818181,
                "pitch": 0,
                "velocity": 51,
                "duration": 0.40000000000000036,
                "tempo": 120.0
            },
            {
                "start_time": 12.156818181818181,
                "end_time": 12.48409090909091,
                "pitch": 76,
                "velocity": 51,
                "duration": 0.32727272727272805,
                "tempo": 120.0
            },
            {
                "start_time": 9.570454545454545,
                "end_time": 12.713636363636363,
                "pitch": 74,
                "velocity": 51,
                "duration": 3.1431818181818176,
                "tempo": 120.0
            },
            {
                "start_time": 12.549999999999999,
                "end_time": 12.713636363636363,
                "pitch": 74,
                "velocity": 51,
                "duration": 0.16363636363636402,
                "tempo": 120.0
            },
            {
                "start_time": 6.390909090909091,
                "end_time": 12.747727272727271,
                "pitch": 77,
                "velocity": 51,
                "duration": 6.356818181818181,
                "tempo": 120.0
            },
            {
                "start_time": 12.747727272727271,
                "end_time": 12.915909090909091,
                "pitch": 71,
                "velocity": 51,
                "duration": 0.16818181818181976,
                "tempo": 120.0
            },
            {
                "start_time": 12.549999999999999,
                "end_time": 23.404545454545453,
                "pitch": 76,
                "velocity": 51,
                "duration": 10.854545454545454,
                "tempo": 120.0
            },
            {
                "start_time": 23.077272727272724,
                "end_time": 23.404545454545453,
                "pitch": 76,
                "velocity": 51,
                "duration": 0.32727272727272805,
                "tempo": 120.0
            },
            {
                "start_time": 23.470454545454544,
                "end_time": 23.799999999999997,
                "pitch": 76,
                "velocity": 51,
                "duration": 0.32954545454545325,
                "tempo": 120.0
            },
            {
                "start_time": 23.86590909090909,
                "end_time": 24.029545454545453,
                "pitch": 74,
                "velocity": 51,
                "duration": 0.16363636363636402,
                "tempo": 120.0
            },
            {
                "start_time": 24.061363636363634,
                "end_time": 24.063636363636363,
                "pitch": 74,
                "velocity": 51,
                "duration": 0.0022727272727287584,
                "tempo": 120.0
            },
            {
                "start_time": 24.063636363636363,
                "end_time": 24.227272727272727,
                "pitch": 76,
                "velocity": 51,
                "duration": 0.16363636363636402,
                "tempo": 120.0
            },
            {
                "start_time": 24.85909090909091,
                "end_time": 25.188636363636363,
                "pitch": 76,
                "velocity": 51,
                "duration": 0.32954545454545325,
                "tempo": 120.0
            },
            {
                "start_time": 23.86590909090909,
                "end_time": 25.254545454545454,
                "pitch": 78,
                "velocity": 51,
                "duration": 1.3886363636363654,
                "tempo": 120.0
            },
            {
                "start_time": 25.254545454545454,
                "end_time": 25.418181818181818,
                "pitch": 74,
                "velocity": 51,
                "duration": 0.16363636363636402,
                "tempo": 120.0
            },
            {
                "start_time": 25.452272727272724,
                "end_time": 25.620454545454542,
                "pitch": 76,
                "velocity": 51,
                "duration": 0.168181818181818,
                "tempo": 120.0
            },
            {
                "start_time": 11.959090909090909,
                "end_time": 25.85681818181818,
                "pitch": 90,
                "velocity": 51,
                "duration": 13.897727272727272,
                "tempo": 120.0
            },
            {
                "start_time": 25.85681818181818,
                "end_time": 26.18409090909091,
                "pitch": 79,
                "velocity": 51,
                "duration": 0.32727272727272805,
                "tempo": 120.0
            },
            {
                "start_time": 26.252272727272725,
                "end_time": 26.695454545454545,
                "pitch": 81,
                "velocity": 51,
                "duration": 0.4431818181818201,
                "tempo": 120.0
            },
            {
                "start_time": 10.961363636363636,
                "end_time": 26.843181818181815,
                "pitch": 43,
                "velocity": 51,
                "duration": 15.88181818181818,
                "tempo": 120.0
            },
            {
                "start_time": 25.254545454545454,
                "end_time": 27.172727272727272,
                "pitch": 78,
                "velocity": 51,
                "duration": 1.918181818181818,
                "tempo": 120.0
            },
            {
                "start_time": 26.843181818181815,
                "end_time": 27.172727272727272,
                "pitch": 78,
                "velocity": 51,
                "duration": 0.3295454545454568,
                "tempo": 120.0
            },
            {
                "start_time": 25.85681818181818,
                "end_time": 27.436363636363634,
                "pitch": 90,
                "velocity": 51,
                "duration": 1.5795454545454533,
                "tempo": 120.0
            },
            {
                "start_time": 26.252272727272725,
                "end_time": 27.602272727272727,
                "pitch": 79,
                "velocity": 51,
                "duration": 1.3500000000000014,
                "tempo": 120.0
            },
            {
                "start_time": 27.436363636363634,
                "end_time": 27.602272727272727,
                "pitch": 79,
                "velocity": 51,
                "duration": 0.16590909090909278,
                "tempo": 120.0
            },
            {
                "start_time": 12.156818181818181,
                "end_time": 27.636363636363637,
                "pitch": 0,
                "velocity": 51,
                "duration": 15.479545454545455,
                "tempo": 120.0
            },
            {
                "start_time": 27.636363636363637,
                "end_time": 27.804545454545455,
                "pitch": 78,
                "velocity": 51,
                "duration": 0.168181818181818,
                "tempo": 120.0
            },
            {
                "start_time": 27.436363636363634,
                "end_time": 27.83863636363636,
                "pitch": 90,
                "velocity": 51,
                "duration": 0.40227272727272734,
                "tempo": 120.0
            },
            {
                "start_time": 27.836363636363636,
                "end_time": 27.83863636363636,
                "pitch": 90,
                "velocity": 51,
                "duration": 0.0022727272727252057,
                "tempo": 120.0
            },
            {
                "start_time": 27.83863636363636,
                "end_time": 28.002272727272725,
                "pitch": 79,
                "velocity": 51,
                "duration": 0.16363636363636402,
                "tempo": 120.0
            },
            {
                "start_time": 27.636363636363637,
                "end_time": 28.036363636363635,
                "pitch": 0,
                "velocity": 51,
                "duration": 0.3999999999999986,
                "tempo": 120.0
            },
            {
                "start_time": 28.036363636363635,
                "end_time": 28.363636363636363,
                "pitch": 76,
                "velocity": 51,
                "duration": 0.32727272727272805,
                "tempo": 120.0
            },
            {
                "start_time": 25.452272727272724,
                "end_time": 28.593181818181815,
                "pitch": 74,
                "velocity": 51,
                "duration": 3.1409090909090907,
                "tempo": 120.0
            },
            {
                "start_time": 28.429545454545455,
                "end_time": 28.593181818181815,
                "pitch": 74,
                "velocity": 51,
                "duration": 0.16363636363636047,
                "tempo": 120.0
            },
            {
                "start_time": 12.747727272727271,
                "end_time": 28.627272727272725,
                "pitch": 77,
                "velocity": 51,
                "duration": 15.879545454545454,
                "tempo": 120.0
            },
            {
                "start_time": 28.627272727272725,
                "end_time": 28.79090909090909,
                "pitch": 71,
                "velocity": 51,
                "duration": 0.16363636363636402,
                "tempo": 120.0
            },
            {
                "start_time": 7.1909090909090905,
                "end_time": 29.424999999999997,
                "pitch": 56,
                "velocity": 51,
                "duration": 22.234090909090906,
                "tempo": 120.0
            },
            {
                "start_time": 28.429545454545455,
                "end_time": 29.752272727272725,
                "pitch": 76,
                "velocity": 51,
                "duration": 1.3227272727272705,
                "tempo": 120.0
            },
            {
                "start_time": 29.424999999999997,
                "end_time": 29.752272727272725,
                "pitch": 76,
                "velocity": 51,
                "duration": 0.32727272727272805,
                "tempo": 120.0
            },
            {
                "start_time": 29.818181818181817,
                "end_time": 30.14772727272727,
                "pitch": 76,
                "velocity": 51,
                "duration": 0.32954545454545325,
                "tempo": 120.0
            },
            {
                "start_time": 30.21363636363636,
                "end_time": 30.377272727272725,
                "pitch": 74,
                "velocity": 51,
                "duration": 0.16363636363636402,
                "tempo": 120.0
            },
            {
                "start_time": 30.411363636363635,
                "end_time": 30.575,
                "pitch": 76,
                "velocity": 51,
                "duration": 0.16363636363636402,
                "tempo": 120.0
            },
            {
                "start_time": 31.206818181818182,
                "end_time": 31.536363636363635,
                "pitch": 76,
                "velocity": 51,
                "duration": 0.32954545454545325,
                "tempo": 120.0
            },
            {
                "start_time": 30.21363636363636,
                "end_time": 31.602272727272727,
                "pitch": 78,
                "velocity": 51,
                "duration": 1.3886363636363654,
                "tempo": 120.0
            },
            {
                "start_time": 30.411363636363635,
                "end_time": 31.76590909090909,
                "pitch": 74,
                "velocity": 51,
                "duration": 1.3545454545454554,
                "tempo": 120.0
            },
            {
                "start_time": 31.602272727272727,
                "end_time": 31.76590909090909,
                "pitch": 74,
                "velocity": 51,
                "duration": 0.16363636363636402,
                "tempo": 120.0
            },
            {
                "start_time": 31.799999999999997,
                "end_time": 31.96363636363636,
                "pitch": 76,
                "velocity": 51,
                "duration": 0.16363636363636402,
                "tempo": 120.0
            },
            {
                "start_time": 32.195454545454545,
                "end_time": 32.529545454545456,
                "pitch": 79,
                "velocity": 51,
                "duration": 0.33409090909091077,
                "tempo": 120.0
            },
            {
                "start_time": 32.595454545454544,
                "end_time": 33.04090909090909,
                "pitch": 81,
                "velocity": 51,
                "duration": 0.4454545454545453,
                "tempo": 120.0
            },
            {
                "start_time": 26.843181818181815,
                "end_time": 33.18863636363636,
                "pitch": 43,
                "velocity": 51,
                "duration": 6.3454545454545475,
                "tempo": 120.0
            },
            {
                "start_time": 31.602272727272727,
                "end_time": 33.51590909090909,
                "pitch": 78,
                "velocity": 51,
                "duration": 1.913636363636364,
                "tempo": 120.0
            },
            {
                "start_time": 33.18863636363636,
                "end_time": 33.51590909090909,
                "pitch": 78,
                "velocity": 51,
                "duration": 0.32727272727272805,
                "tempo": 120.0
            },
            {
                "start_time": 32.195454545454545,
                "end_time": 33.78181818181818,
                "pitch": 90,
                "velocity": 51,
                "duration": 1.586363636363636,
                "tempo": 120.0
            },
            {
                "start_time": 32.595454545454544,
                "end_time": 33.94772727272727,
                "pitch": 79,
                "velocity": 51,
                "duration": 1.3522727272727266,
                "tempo": 120.0
            },
            {
                "start_time": 33.78181818181818,
                "end_time": 33.94772727272727,
                "pitch": 79,
                "velocity": 51,
                "duration": 0.16590909090908923,
                "tempo": 120.0
            },
            {
                "start_time": 28.036363636363635,
                "end_time": 33.98181818181818,
                "pitch": 0,
                "velocity": 51,
                "duration": 5.945454545454542,
                "tempo": 120.0
            },
            {
                "start_time": 33.98181818181818,
                "end_time": 34.15,
                "pitch": 78,
                "velocity": 51,
                "duration": 0.16818181818182154,
                "tempo": 120.0
            },
            {
                "start_time": 33.78181818181818,
                "end_time": 34.18181818181818,
                "pitch": 90,
                "velocity": 51,
                "duration": 0.3999999999999986,
                "tempo": 120.0
            },
            {
                "start_time": 34.18181818181818,
                "end_time": 34.34772727272727,
                "pitch": 79,
                "velocity": 51,
                "duration": 0.16590909090908923,
                "tempo": 120.0
            },
            {
                "start_time": 33.98181818181818,
                "end_time": 34.37954545454545,
                "pitch": 0,
                "velocity": 51,
                "duration": 0.3977272727272734,
                "tempo": 120.0
            },
            {
                "start_time": 34.37954545454545,
                "end_time": 34.70909090909091,
                "pitch": 76,
                "velocity": 51,
                "duration": 0.32954545454546036,
                "tempo": 120.0
            },
            {
                "start_time": 31.799999999999997,
                "end_time": 34.93863636363636,
                "pitch": 74,
                "velocity": 51,
                "duration": 3.1386363636363654,
                "tempo": 120.0
            },
            {
                "start_time": 34.775,
                "end_time": 34.93863636363636,
                "pitch": 74,
                "velocity": 51,
                "duration": 0.16363636363636402,
                "tempo": 120.0
            },
            {
                "start_time": 28.627272727272725,
                "end_time": 34.97272727272727,
                "pitch": 77,
                "velocity": 51,
                "duration": 6.345454545454544,
                "tempo": 120.0
            },
            {
                "start_time": 34.97272727272727,
                "end_time": 35.13636363636363,
                "pitch": 71,
                "velocity": 51,
                "duration": 0.16363636363636402,
                "tempo": 120.0
            }
        ],
        "Acoustic Guitar (nylon)": [
            {
                "start_time": 12.747727272727271,
                "end_time": 12.831818181818182,
                "pitch": 51,
                "velocity": 80,
                "duration": 0.08409090909091077,
                "tempo": 120.0
            },
            {
                "start_time": 12.847727272727273,
                "end_time": 12.931818181818182,
                "pitch": 54,
                "velocity": 80,
                "duration": 0.084090909090909,
                "tempo": 120.0
            },
            {
                "start_time": 12.947727272727272,
                "end_time": 13.031818181818181,
                "pitch": 56,
                "velocity": 80,
                "duration": 0.084090909090909,
                "tempo": 120.0
            },
            {
                "start_time": 13.049999999999999,
                "end_time": 13.131818181818181,
                "pitch": 59,
                "velocity": 80,
                "duration": 0.08181818181818201,
                "tempo": 120.0
            },
            {
                "start_time": 13.149999999999999,
                "end_time": 13.23181818181818,
                "pitch": 63,
                "velocity": 80,
                "duration": 0.08181818181818201,
                "tempo": 120.0
            },
            {
                "start_time": 12.947727272727272,
                "end_time": 13.329545454545453,
                "pitch": 66,
                "velocity": 80,
                "duration": 0.38181818181818095,
                "tempo": 120.0
            },
            {
                "start_time": 13.247727272727271,
                "end_time": 13.329545454545453,
                "pitch": 66,
                "velocity": 80,
                "duration": 0.08181818181818201,
                "tempo": 120.0
            },
            {
                "start_time": 13.347727272727273,
                "end_time": 13.429545454545455,
                "pitch": 68,
                "velocity": 80,
                "duration": 0.08181818181818201,
                "tempo": 120.0
            },
            {
                "start_time": 13.445454545454545,
                "end_time": 13.527272727272727,
                "pitch": 71,
                "velocity": 80,
                "duration": 0.08181818181818201,
                "tempo": 120.0
            },
            {
                "start_time": 13.049999999999999,
                "end_time": 13.545454545454545,
                "pitch": 56,
                "velocity": 80,
                "duration": 0.49545454545454604,
                "tempo": 120.0
            },
            {
                "start_time": 13.545454545454545,
                "end_time": 13.627272727272727,
                "pitch": 75,
                "velocity": 80,
                "duration": 0.08181818181818201,
                "tempo": 120.0
            },
            {
                "start_time": 13.347727272727273,
                "end_time": 13.725,
                "pitch": 78,
                "velocity": 80,
                "duration": 0.377272727272727,
                "tempo": 120.0
            },
            {
                "start_time": 13.643181818181818,
                "end_time": 13.725,
                "pitch": 78,
                "velocity": 80,
                "duration": 0.08181818181818201,
                "tempo": 120.0
            },
            {
                "start_time": 13.74090909090909,
                "end_time": 13.822727272727272,
                "pitch": 80,
                "velocity": 80,
                "duration": 0.08181818181818201,
                "tempo": 120.0
            },
            {
                "start_time": 13.84090909090909,
                "end_time": 13.922727272727272,
                "pitch": 83,
                "velocity": 80,
                "duration": 0.08181818181818201,
                "tempo": 120.0
            },
            {
                "start_time": 13.445454545454545,
                "end_time": 13.938636363636363,
                "pitch": 68,
                "velocity": 80,
                "duration": 0.4931818181818173,
                "tempo": 120.0
            },
            {
                "start_time": 13.938636363636363,
                "end_time": 14.020454545454545,
                "pitch": 87,
                "velocity": 80,
                "duration": 0.08181818181818201,
                "tempo": 120.0
            },
            {
                "start_time": 13.74090909090909,
                "end_time": 14.120454545454544,
                "pitch": 90,
                "velocity": 80,
                "duration": 0.37954545454545396,
                "tempo": 120.0
            },
            {
                "start_time": 14.038636363636362,
                "end_time": 14.120454545454544,
                "pitch": 90,
                "velocity": 80,
                "duration": 0.08181818181818201,
                "tempo": 120.0
            },
            {
                "start_time": 14.136363636363635,
                "end_time": 14.218181818181817,
                "pitch": 92,
                "velocity": 80,
                "duration": 0.08181818181818201,
                "tempo": 120.0
            },
            {
                "start_time": 14.234090909090908,
                "end_time": 14.31590909090909,
                "pitch": 95,
                "velocity": 80,
                "duration": 0.08181818181818201,
                "tempo": 120.0
            },
            {
                "start_time": 13.149999999999999,
                "end_time": 14.334090909090909,
                "pitch": 44,
                "velocity": 80,
                "duration": 1.1840909090909104,
                "tempo": 120.0
            },
            {
                "start_time": 13.247727272727271,
                "end_time": 14.415909090909091,
                "pitch": 63,
                "velocity": 80,
                "duration": 1.1681818181818198,
                "tempo": 120.0
            },
            {
                "start_time": 14.334090909090909,
                "end_time": 14.415909090909091,
                "pitch": 63,
                "velocity": 80,
                "duration": 0.08181818181818201,
                "tempo": 120.0
            },
            {
                "start_time": 14.431818181818182,
                "end_time": 14.513636363636364,
                "pitch": 66,
                "velocity": 80,
                "duration": 0.08181818181818201,
                "tempo": 120.0
            },
            {
                "start_time": 13.938636363636363,
                "end_time": 14.613636363636363,
                "pitch": 68,
                "velocity": 80,
                "duration": 0.6750000000000007,
                "tempo": 120.0
            },
            {
                "start_time": 14.531818181818181,
                "end_time": 14.613636363636363,
                "pitch": 68,
                "velocity": 80,
                "duration": 0.08181818181818201,
                "tempo": 120.0
            },
            {
                "start_time": 14.629545454545454,
                "end_time": 14.711363636363636,
                "pitch": 71,
                "velocity": 80,
                "duration": 0.08181818181818201,
                "tempo": 120.0
            },
            {
                "start_time": 13.545454545454545,
                "end_time": 14.727272727272727,
                "pitch": 56,
                "velocity": 80,
                "duration": 1.1818181818181817,
                "tempo": 120.0
            },
            {
                "start_time": 13.643181818181818,
                "end_time": 14.811363636363636,
                "pitch": 75,
                "velocity": 80,
                "duration": 1.168181818181818,
                "tempo": 120.0
            },
            {
                "start_time": 14.727272727272727,
                "end_time": 14.811363636363636,
                "pitch": 75,
                "velocity": 80,
                "duration": 0.084090909090909,
                "tempo": 120.0
            },
            {
                "start_time": 14.531818181818181,
                "end_time": 14.913636363636362,
                "pitch": 78,
                "velocity": 80,
                "duration": 0.38181818181818095,
                "tempo": 120.0
            },
            {
                "start_time": 14.829545454545453,
                "end_time": 14.913636363636362,
                "pitch": 78,
                "velocity": 80,
                "duration": 0.084090909090909,
                "tempo": 120.0
            },
            {
                "start_time": 13.84090909090909,
                "end_time": 15.01590909090909,
                "pitch": 80,
                "velocity": 80,
                "duration": 1.1750000000000007,
                "tempo": 120.0
            },
            {
                "start_time": 14.931818181818182,
                "end_time": 15.01590909090909,
                "pitch": 80,
                "velocity": 80,
                "duration": 0.084090909090909,
                "tempo": 120.0
            },
            {
                "start_time": 15.031818181818181,
                "end_time": 15.11590909090909,
                "pitch": 83,
                "velocity": 80,
                "duration": 0.084090909090909,
                "tempo": 120.0
            },
            {
                "start_time": 14.629545454545454,
                "end_time": 15.134090909090908,
                "pitch": 68,
                "velocity": 80,
                "duration": 0.504545454545454,
                "tempo": 120.0
            },
            {
                "start_time": 14.038636363636362,
                "end_time": 15.21590909090909,
                "pitch": 87,
                "velocity": 80,
                "duration": 1.1772727272727277,
                "tempo": 120.0
            },
            {
                "start_time": 15.134090909090908,
                "end_time": 15.21590909090909,
                "pitch": 87,
                "velocity": 80,
                "duration": 0.08181818181818201,
                "tempo": 120.0
            },
            {
                "start_time": 14.931818181818182,
                "end_time": 15.313636363636363,
                "pitch": 90,
                "velocity": 80,
                "duration": 0.38181818181818095,
                "tempo": 120.0
            },
            {
                "start_time": 15.23181818181818,
                "end_time": 15.313636363636363,
                "pitch": 90,
                "velocity": 80,
                "duration": 0.08181818181818201,
                "tempo": 120.0
            },
            {
                "start_time": 14.136363636363635,
                "end_time": 15.33181818181818,
                "pitch": 102,
                "velocity": 80,
                "duration": 1.1954545454545453,
                "tempo": 120.0
            },
            {
                "start_time": 14.234090909090908,
                "end_time": 15.413636363636362,
                "pitch": 92,
                "velocity": 80,
                "duration": 1.1795454545454547,
                "tempo": 120.0
            },
            {
                "start_time": 15.33181818181818,
                "end_time": 15.413636363636362,
                "pitch": 92,
                "velocity": 80,
                "duration": 0.08181818181818201,
                "tempo": 120.0
            },
            {
                "start_time": 15.429545454545455,
                "end_time": 15.511363636363635,
                "pitch": 95,
                "velocity": 80,
                "duration": 0.08181818181818024,
                "tempo": 120.0
            },
            {
                "start_time": 15.031818181818181,
                "end_time": 15.527272727272727,
                "pitch": 80,
                "velocity": 80,
                "duration": 0.49545454545454604,
                "tempo": 120.0
            },
            {
                "start_time": 15.527272727272727,
                "end_time": 15.609090909090908,
                "pitch": 99,
                "velocity": 80,
                "duration": 0.08181818181818024,
                "tempo": 120.0
            },
            {
                "start_time": 15.33181818181818,
                "end_time": 15.709090909090909,
                "pitch": 102,
                "velocity": 80,
                "duration": 0.37727272727272876,
                "tempo": 120.0
            },
            {
                "start_time": 15.627272727272727,
                "end_time": 15.709090909090909,
                "pitch": 102,
                "velocity": 80,
                "duration": 0.08181818181818201,
                "tempo": 120.0
            },
            {
                "start_time": 15.725,
                "end_time": 15.806818181818182,
                "pitch": 104,
                "velocity": 80,
                "duration": 0.08181818181818201,
                "tempo": 120.0
            },
            {
                "start_time": 15.825,
                "end_time": 15.906818181818181,
                "pitch": 107,
                "velocity": 80,
                "duration": 0.08181818181818201,
                "tempo": 120.0
            },
            {
                "start_time": 14.334090909090909,
                "end_time": 15.922727272727272,
                "pitch": 44,
                "velocity": 80,
                "duration": 1.588636363636363,
                "tempo": 120.0
            },
            {
                "start_time": 15.922727272727272,
                "end_time": 16.006818181818183,
                "pitch": 60,
                "velocity": 80,
                "duration": 0.08409090909091077,
                "tempo": 120.0
            },
            {
                "start_time": 16.022727272727273,
                "end_time": 16.10681818181818,
                "pitch": 62,
                "velocity": 80,
                "duration": 0.08409090909090722,
                "tempo": 120.0
            },
            {
                "start_time": 16.125,
                "end_time": 16.209090909090907,
                "pitch": 65,
                "velocity": 80,
                "duration": 0.08409090909090722,
                "tempo": 120.0
            },
            {
                "start_time": 16.227272727272727,
                "end_time": 16.311363636363634,
                "pitch": 69,
                "velocity": 80,
                "duration": 0.08409090909090722,
                "tempo": 120.0
            },
            {
                "start_time": 16.327272727272728,
                "end_time": 16.40909090909091,
                "pitch": 72,
                "velocity": 80,
                "duration": 0.08181818181818201,
                "tempo": 120.0
            },
            {
                "start_time": 16.427272727272726,
                "end_time": 16.509090909090908,
                "pitch": 74,
                "velocity": 80,
                "duration": 0.08181818181818201,
                "tempo": 120.0
            },
            {
                "start_time": 16.525,
                "end_time": 16.60681818181818,
                "pitch": 77,
                "velocity": 80,
                "duration": 0.08181818181818201,
                "tempo": 120.0
            },
            {
                "start_time": 16.62272727272727,
                "end_time": 16.706818181818182,
                "pitch": 81,
                "velocity": 80,
                "duration": 0.08409090909091077,
                "tempo": 120.0
            },
            {
                "start_time": 16.722727272727273,
                "end_time": 16.804545454545455,
                "pitch": 84,
                "velocity": 80,
                "duration": 0.08181818181818201,
                "tempo": 120.0
            },
            {
                "start_time": 16.820454545454545,
                "end_time": 16.902272727272727,
                "pitch": 86,
                "velocity": 80,
                "duration": 0.08181818181818201,
                "tempo": 120.0
            },
            {
                "start_time": 16.920454545454543,
                "end_time": 17.002272727272725,
                "pitch": 89,
                "velocity": 80,
                "duration": 0.08181818181818201,
                "tempo": 120.0
            },
            {
                "start_time": 17.018181818181816,
                "end_time": 17.099999999999998,
                "pitch": 93,
                "velocity": 80,
                "duration": 0.08181818181818201,
                "tempo": 120.0
            },
            {
                "start_time": 17.118181818181817,
                "end_time": 17.2,
                "pitch": 96,
                "velocity": 80,
                "duration": 0.08181818181818201,
                "tempo": 120.0
            },
            {
                "start_time": 17.21590909090909,
                "end_time": 17.297727272727272,
                "pitch": 98,
                "velocity": 80,
                "duration": 0.08181818181818201,
                "tempo": 120.0
            },
            {
                "start_time": 17.313636363636363,
                "end_time": 17.395454545454545,
                "pitch": 101,
                "velocity": 80,
                "duration": 0.08181818181818201,
                "tempo": 120.0
            },
            {
                "start_time": 15.725,
                "end_time": 17.413636363636364,
                "pitch": 114,
                "velocity": 80,
                "duration": 1.6886363636363644,
                "tempo": 120.0
            },
            {
                "start_time": 17.413636363636364,
                "end_time": 17.495454545454546,
                "pitch": 105,
                "velocity": 80,
                "duration": 0.08181818181818201,
                "tempo": 120.0
            },
            {
                "start_time": 16.125,
                "end_time": 17.595454545454544,
                "pitch": 62,
                "velocity": 80,
                "duration": 1.470454545454544,
                "tempo": 120.0
            },
            {
                "start_time": 17.511363636363637,
                "end_time": 17.595454545454544,
                "pitch": 62,
                "velocity": 80,
                "duration": 0.08409090909090722,
                "tempo": 120.0
            },
            {
                "start_time": 17.611363636363635,
                "end_time": 17.695454545454545,
                "pitch": 65,
                "velocity": 80,
                "duration": 0.08409090909091077,
                "tempo": 120.0
            },
            {
                "start_time": 16.227272727272727,
                "end_time": 17.71363636363636,
                "pitch": 78,
                "velocity": 80,
                "duration": 1.4863636363636346,
                "tempo": 120.0
            },
            {
                "start_time": 17.118181818181817,
                "end_time": 17.795454545454543,
                "pitch": 67,
                "velocity": 80,
                "duration": 0.6772727272727259,
                "tempo": 120.0
            },
            {
                "start_time": 17.71363636363636,
                "end_time": 17.795454545454543,
                "pitch": 67,
                "velocity": 80,
                "duration": 0.08181818181818201,
                "tempo": 120.0
            },
            {
                "start_time": 17.813636363636363,
                "end_time": 17.897727272727273,
                "pitch": 70,
                "velocity": 80,
                "duration": 0.08409090909091077,
                "tempo": 120.0
            },
            {
                "start_time": 16.525,
                "end_time": 17.995454545454546,
                "pitch": 74,
                "velocity": 80,
                "duration": 1.4704545454545475,
                "tempo": 120.0
            },
            {
                "start_time": 17.913636363636364,
                "end_time": 17.995454545454546,
                "pitch": 74,
                "velocity": 80,
                "duration": 0.08181818181818201,
                "tempo": 120.0
            },
            {
                "start_time": 18.013636363636362,
                "end_time": 18.095454545454544,
                "pitch": 77,
                "velocity": 80,
                "duration": 0.08181818181818201,
                "tempo": 120.0
            },
            {
                "start_time": 16.62272727272727,
                "end_time": 18.111363636363635,
                "pitch": 90,
                "velocity": 80,
                "duration": 1.4886363636363633,
                "tempo": 120.0
            },
            {
                "start_time": 18.111363636363635,
                "end_time": 18.193181818181817,
                "pitch": 79,
                "velocity": 80,
                "duration": 0.08181818181818201,
                "tempo": 120.0
            },
            {
                "start_time": 18.209090909090907,
                "end_time": 18.29090909090909,
                "pitch": 82,
                "velocity": 80,
                "duration": 0.08181818181818201,
                "tempo": 120.0
            },
            {
                "start_time": 17.611363636363635,
                "end_time": 18.30909090909091,
                "pitch": 62,
                "velocity": 80,
                "duration": 0.6977272727272741,
                "tempo": 120.0
            },
            {
                "start_time": 16.920454545454543,
                "end_time": 18.39090909090909,
                "pitch": 86,
                "velocity": 80,
                "duration": 1.4704545454545475,
                "tempo": 120.0
            },
            {
                "start_time": 18.30909090909091,
                "end_time": 18.39090909090909,
                "pitch": 86,
                "velocity": 80,
                "duration": 0.08181818181818201,
                "tempo": 120.0
            },
            {
                "start_time": 18.40681818181818,
                "end_time": 18.488636363636363,
                "pitch": 89,
                "velocity": 80,
                "duration": 0.08181818181818201,
                "tempo": 120.0
            },
            {
                "start_time": 17.018181818181816,
                "end_time": 18.50681818181818,
                "pitch": 102,
                "velocity": 80,
                "duration": 1.4886363636363633,
                "tempo": 120.0
            },
            {
                "start_time": 18.50681818181818,
                "end_time": 18.58863636363636,
                "pitch": 91,
                "velocity": 80,
                "duration": 0.08181818181818201,
                "tempo": 120.0
            },
            {
                "start_time": 18.604545454545455,
                "end_time": 18.686363636363634,
                "pitch": 94,
                "velocity": 80,
                "duration": 0.08181818181817846,
                "tempo": 120.0
            },
            {
                "start_time": 18.013636363636362,
                "end_time": 18.704545454545453,
                "pitch": 74,
                "velocity": 80,
                "duration": 0.6909090909090914,
                "tempo": 120.0
            },
            {
                "start_time": 18.702272727272728,
                "end_time": 18.704545454545453,
                "pitch": 74,
                "velocity": 80,
                "duration": 0.0022727272727252057,
                "tempo": 120.0
            },
            {
                "start_time": 17.313636363636363,
                "end_time": 18.786363636363635,
                "pitch": 98,
                "velocity": 80,
                "duration": 1.4727272727272727,
                "tempo": 120.0
            },
            {
                "start_time": 18.704545454545453,
                "end_time": 18.786363636363635,
                "pitch": 98,
                "velocity": 80,
                "duration": 0.08181818181818201,
                "tempo": 120.0
            },
            {
                "start_time": 18.802272727272726,
                "end_time": 18.884090909090908,
                "pitch": 101,
                "velocity": 80,
                "duration": 0.08181818181818201,
                "tempo": 120.0
            },
            {
                "start_time": 17.413636363636364,
                "end_time": 18.9,
                "pitch": 114,
                "velocity": 80,
                "duration": 1.4863636363636346,
                "tempo": 120.0
            },
            {
                "start_time": 18.9,
                "end_time": 18.98181818181818,
                "pitch": 103,
                "velocity": 80,
                "duration": 0.08181818181818201,
                "tempo": 120.0
            },
            {
                "start_time": 19.0,
                "end_time": 19.081818181818182,
                "pitch": 106,
                "velocity": 80,
                "duration": 0.08181818181818201,
                "tempo": 120.0
            },
            {
                "start_time": 16.022727272727273,
                "end_time": 19.18181818181818,
                "pitch": 60,
                "velocity": 80,
                "duration": 3.1590909090909065,
                "tempo": 120.0
            },
            {
                "start_time": 19.097727272727273,
                "end_time": 19.18181818181818,
                "pitch": 60,
                "velocity": 80,
                "duration": 0.08409090909090722,
                "tempo": 120.0
            },
            {
                "start_time": 18.30909090909091,
                "end_time": 19.284090909090907,
                "pitch": 62,
                "velocity": 80,
                "duration": 0.9749999999999979,
                "tempo": 120.0
            },
            {
                "start_time": 19.2,
                "end_time": 19.284090909090907,
                "pitch": 62,
                "velocity": 80,
                "duration": 0.08409090909090722,
                "tempo": 120.0
            },
            {
                "start_time": 19.3,
                "end_time": 19.384090909090908,
                "pitch": 65,
                "velocity": 80,
                "duration": 0.08409090909090722,
                "tempo": 120.0
            },
            {
                "start_time": 17.71363636363636,
                "end_time": 19.402272727272727,
                "pitch": 78,
                "velocity": 80,
                "duration": 1.6886363636363662,
                "tempo": 120.0
            },
            {
                "start_time": 19.402272727272727,
                "end_time": 19.486363636363635,
                "pitch": 69,
                "velocity": 80,
                "duration": 0.08409090909090722,
                "tempo": 120.0
            },
            {
                "start_time": 16.327272727272728,
                "end_time": 19.502272727272725,
                "pitch": 43,
                "velocity": 80,
                "duration": 3.174999999999997,
                "tempo": 120.0
            },
            {
                "start_time": 16.427272727272726,
                "end_time": 19.584090909090907,
                "pitch": 72,
                "velocity": 80,
                "duration": 3.1568181818181813,
                "tempo": 120.0
            },
            {
                "start_time": 19.502272727272725,
                "end_time": 19.584090909090907,
                "pitch": 72,
                "velocity": 80,
                "duration": 0.08181818181818201,
                "tempo": 120.0
            },
            {
                "start_time": 19.602272727272727,
                "end_time": 19.68409090909091,
                "pitch": 74,
                "velocity": 80,
                "duration": 0.08181818181818201,
                "tempo": 120.0
            },
            {
                "start_time": 19.7,
                "end_time": 19.78181818181818,
                "pitch": 77,
                "velocity": 80,
                "duration": 0.08181818181818201,
                "tempo": 120.0
            },
            {
                "start_time": 18.111363636363635,
                "end_time": 19.8,
                "pitch": 90,
                "velocity": 80,
                "duration": 1.6886363636363662,
                "tempo": 120.0
            },
            {
                "start_time": 19.8,
                "end_time": 19.88181818181818,
                "pitch": 81,
                "velocity": 80,
                "duration": 0.08181818181817846,
                "tempo": 120.0
            },
            {
                "start_time": 16.722727272727273,
                "end_time": 19.897727272727273,
                "pitch": 55,
                "velocity": 80,
                "duration": 3.1750000000000007,
                "tempo": 120.0
            },
            {
                "start_time": 16.820454545454545,
                "end_time": 19.979545454545452,
                "pitch": 84,
                "velocity": 80,
                "duration": 3.1590909090909065,
                "tempo": 120.0
            },
            {
                "start_time": 19.897727272727273,
                "end_time": 19.979545454545452,
                "pitch": 84,
                "velocity": 80,
                "duration": 0.08181818181817846,
                "tempo": 120.0
            },
            {
                "start_time": 18.40681818181818,
                "end_time": 20.077272727272728,
                "pitch": 86,
                "velocity": 80,
                "duration": 1.6704545454545467,
                "tempo": 120.0
            },
            {
                "start_time": 19.995454545454546,
                "end_time": 20.077272727272728,
                "pitch": 86,
                "velocity": 80,
                "duration": 0.08181818181818201,
                "tempo": 120.0
            },
            {
                "start_time": 20.095454545454544,
                "end_time": 20.177272727272726,
                "pitch": 89,
                "velocity": 80,
                "duration": 0.08181818181818201,
                "tempo": 120.0
            },
            {
                "start_time": 18.50681818181818,
                "end_time": 20.193181818181817,
                "pitch": 102,
                "velocity": 80,
                "duration": 1.6863636363636374,
                "tempo": 120.0
            },
            {
                "start_time": 20.193181818181817,
                "end_time": 20.275,
                "pitch": 93,
                "velocity": 80,
                "duration": 0.08181818181818201,
                "tempo": 120.0
            },
            {
                "start_time": 17.813636363636363,
                "end_time": 20.293181818181818,
                "pitch": 67,
                "velocity": 80,
                "duration": 2.4795454545454554,
                "tempo": 120.0
            },
            {
                "start_time": 17.21590909090909,
                "end_time": 20.375,
                "pitch": 96,
                "velocity": 80,
                "duration": 3.15909090909091,
                "tempo": 120.0
            },
            {
                "start_time": 20.293181818181818,
                "end_time": 20.375,
                "pitch": 96,
                "velocity": 80,
                "duration": 0.08181818181818201,
                "tempo": 120.0
            },
            {
                "start_time": 18.802272727272726,
                "end_time": 20.472727272727273,
                "pitch": 98,
                "velocity": 80,
                "duration": 1.6704545454545467,
                "tempo": 120.0
            },
            {
                "start_time": 20.39090909090909,
                "end_time": 20.472727272727273,
                "pitch": 98,
                "velocity": 80,
                "duration": 0.08181818181818201,
                "tempo": 120.0
            },
            {
                "start_time": 20.488636363636363,
                "end_time": 20.57272727272727,
                "pitch": 101,
                "velocity": 80,
                "duration": 0.08409090909090722,
                "tempo": 120.0
            },
            {
                "start_time": 18.9,
                "end_time": 20.58863636363636,
                "pitch": 114,
                "velocity": 80,
                "duration": 1.6886363636363626,
                "tempo": 120.0
            },
            {
                "start_time": 20.58863636363636,
                "end_time": 20.670454545454543,
                "pitch": 105,
                "velocity": 80,
                "duration": 0.08181818181818201,
                "tempo": 120.0
            },
            {
                "start_time": 20.686363636363634,
                "end_time": 20.770454545454545,
                "pitch": 105,
                "velocity": 80,
                "duration": 0.08409090909091077,
                "tempo": 120.0
            },
            {
                "start_time": 20.293181818181818,
                "end_time": 20.788636363636364,
                "pitch": 67,
                "velocity": 80,
                "duration": 0.49545454545454604,
                "tempo": 120.0
            },
            {
                "start_time": 20.788636363636364,
                "end_time": 20.87272727272727,
                "pitch": 101,
                "velocity": 80,
                "duration": 0.08409090909090722,
                "tempo": 120.0
            },
            {
                "start_time": 20.488636363636363,
                "end_time": 20.972727272727273,
                "pitch": 98,
                "velocity": 80,
                "duration": 0.48409090909090935,
                "tempo": 120.0
            },
            {
                "start_time": 20.888636363636362,
                "end_time": 20.972727272727273,
                "pitch": 98,
                "velocity": 80,
                "duration": 0.08409090909091077,
                "tempo": 120.0
            },
            {
                "start_time": 20.39090909090909,
                "end_time": 21.075,
                "pitch": 96,
                "velocity": 80,
                "duration": 0.6840909090909086,
                "tempo": 120.0
            },
            {
                "start_time": 20.99090909090909,
                "end_time": 21.075,
                "pitch": 96,
                "velocity": 80,
                "duration": 0.08409090909091077,
                "tempo": 120.0
            },
            {
                "start_time": 21.09090909090909,
                "end_time": 21.175,
                "pitch": 93,
                "velocity": 80,
                "duration": 0.08409090909091077,
                "tempo": 120.0
            },
            {
                "start_time": 19.897727272727273,
                "end_time": 21.19090909090909,
                "pitch": 55,
                "velocity": 80,
                "duration": 1.293181818181818,
                "tempo": 120.0
            },
            {
                "start_time": 21.19090909090909,
                "end_time": 21.272727272727273,
                "pitch": 89,
                "velocity": 80,
                "duration": 0.08181818181818201,
                "tempo": 120.0
            },
            {
                "start_time": 20.095454545454544,
                "end_time": 21.370454545454546,
                "pitch": 86,
                "velocity": 80,
                "duration": 1.2750000000000021,
                "tempo": 120.0
            },
            {
                "start_time": 21.288636363636364,
                "end_time": 21.370454545454546,
                "pitch": 86,
                "velocity": 80,
                "duration": 0.08181818181818201,
                "tempo": 120.0
            },
            {
                "start_time": 19.995454545454546,
                "end_time": 21.470454545454544,
                "pitch": 84,
                "velocity": 80,
                "duration": 1.4749999999999979,
                "tempo": 120.0
            },
            {
                "start_time": 21.388636363636362,
                "end_time": 21.470454545454544,
                "pitch": 84,
                "velocity": 80,
                "duration": 0.08181818181818201,
                "tempo": 120.0
            },
            {
                "start_time": 21.486363636363635,
                "end_time": 21.568181818181817,
                "pitch": 81,
                "velocity": 80,
                "duration": 0.08181818181818201,
                "tempo": 120.0
            },
            {
                "start_time": 19.502272727272725,
                "end_time": 21.586363636363636,
                "pitch": 43,
                "velocity": 80,
                "duration": 2.0840909090909108,
                "tempo": 120.0
            },
            {
                "start_time": 21.586363636363636,
                "end_time": 21.668181818181818,
                "pitch": 77,
                "velocity": 80,
                "duration": 0.08181818181818201,
                "tempo": 120.0
            },
            {
                "start_time": 19.7,
                "end_time": 21.76590909090909,
                "pitch": 74,
                "velocity": 80,
                "duration": 2.0659090909090914,
                "tempo": 120.0
            },
            {
                "start_time": 21.68409090909091,
                "end_time": 21.76590909090909,
                "pitch": 74,
                "velocity": 80,
                "duration": 0.08181818181818201,
                "tempo": 120.0
            },
            {
                "start_time": 19.602272727272727,
                "end_time": 21.863636363636363,
                "pitch": 72,
                "velocity": 80,
                "duration": 2.2613636363636367,
                "tempo": 120.0
            },
            {
                "start_time": 21.78181818181818,
                "end_time": 21.863636363636363,
                "pitch": 72,
                "velocity": 80,
                "duration": 0.08181818181818201,
                "tempo": 120.0
            },
            {
                "start_time": 21.88181818181818,
                "end_time": 21.96363636363636,
                "pitch": 69,
                "velocity": 80,
                "duration": 0.08181818181818201,
                "tempo": 120.0
            },
            {
                "start_time": 17.511363636363637,
                "end_time": 21.979545454545452,
                "pitch": 31,
                "velocity": 80,
                "duration": 4.468181818181815,
                "tempo": 120.0
            },
            {
                "start_time": 21.979545454545452,
                "end_time": 22.061363636363634,
                "pitch": 65,
                "velocity": 80,
                "duration": 0.08181818181818201,
                "tempo": 120.0
            },
            {
                "start_time": 19.3,
                "end_time": 22.161363636363635,
                "pitch": 62,
                "velocity": 80,
                "duration": 2.8613636363636346,
                "tempo": 120.0
            },
            {
                "start_time": 22.079545454545453,
                "end_time": 22.161363636363635,
                "pitch": 62,
                "velocity": 80,
                "duration": 0.08181818181818201,
                "tempo": 120.0
            },
            {
                "start_time": 19.2,
                "end_time": 22.259090909090908,
                "pitch": 60,
                "velocity": 80,
                "duration": 3.0590909090909086,
                "tempo": 120.0
            },
            {
                "start_time": 22.177272727272726,
                "end_time": 22.259090909090908,
                "pitch": 60,
                "velocity": 80,
                "duration": 0.08181818181818201,
                "tempo": 120.0
            },
            {
                "start_time": 12.747727272727271,
                "end_time": 34.97272727272727,
                "pitch": 32,
                "velocity": 80,
                "duration": 22.224999999999998,
                "tempo": 120.0
            },
            {
                "start_time": 12.847727272727273,
                "end_time": 35.054545454545455,
                "pitch": 51,
                "velocity": 80,
                "duration": 22.206818181818182,
                "tempo": 120.0
            },
            {
                "start_time": 34.97272727272727,
                "end_time": 35.054545454545455,
                "pitch": 51,
                "velocity": 80,
                "duration": 0.08181818181818556,
                "tempo": 120.0
            },
            {
                "start_time": 35.070454545454545,
                "end_time": 35.152272727272724,
                "pitch": 54,
                "velocity": 80,
                "duration": 0.08181818181817846,
                "tempo": 120.0
            },
            {
                "start_time": 14.727272727272727,
                "end_time": 35.252272727272725,
                "pitch": 56,
                "velocity": 80,
                "duration": 20.525,
                "tempo": 120.0
            },
            {
                "start_time": 35.168181818181814,
                "end_time": 35.252272727272725,
                "pitch": 56,
                "velocity": 80,
                "duration": 0.08409090909091077,
                "tempo": 120.0
            },
            {
                "start_time": 35.268181818181816,
                "end_time": 35.35,
                "pitch": 59,
                "velocity": 80,
                "duration": 0.08181818181818556,
                "tempo": 120.0
            },
            {
                "start_time": 15.922727272727272,
                "end_time": 35.36590909090909,
                "pitch": 44,
                "velocity": 80,
                "duration": 19.44318181818182,
                "tempo": 120.0
            },
            {
                "start_time": 14.431818181818182,
                "end_time": 35.449999999999996,
                "pitch": 63,
                "velocity": 80,
                "duration": 21.018181818181816,
                "tempo": 120.0
            },
            {
                "start_time": 35.36590909090909,
                "end_time": 35.449999999999996,
                "pitch": 63,
                "velocity": 80,
                "duration": 0.08409090909090366,
                "tempo": 120.0
            },
            {
                "start_time": 35.168181818181814,
                "end_time": 35.55,
                "pitch": 66,
                "velocity": 80,
                "duration": 0.3818181818181827,
                "tempo": 120.0
            },
            {
                "start_time": 35.465909090909086,
                "end_time": 35.55,
                "pitch": 66,
                "velocity": 80,
                "duration": 0.08409090909091077,
                "tempo": 120.0
            },
            {
                "start_time": 19.402272727272727,
                "end_time": 35.56818181818181,
                "pitch": 78,
                "velocity": 80,
                "duration": 16.165909090909086,
                "tempo": 120.0
            },
            {
                "start_time": 15.134090909090908,
                "end_time": 35.652272727272724,
                "pitch": 68,
                "velocity": 80,
                "duration": 20.518181818181816,
                "tempo": 120.0
            },
            {
                "start_time": 35.56818181818181,
                "end_time": 35.652272727272724,
                "pitch": 68,
                "velocity": 80,
                "duration": 0.08409090909091077,
                "tempo": 120.0
            },
            {
                "start_time": 35.668181818181814,
                "end_time": 35.752272727272725,
                "pitch": 71,
                "velocity": 80,
                "duration": 0.08409090909091077,
                "tempo": 120.0
            },
            {
                "start_time": 35.268181818181816,
                "end_time": 35.768181818181816,
                "pitch": 56,
                "velocity": 80,
                "duration": 0.5,
                "tempo": 120.0
            },
            {
                "start_time": 14.829545454545453,
                "end_time": 35.85,
                "pitch": 75,
                "velocity": 80,
                "duration": 21.020454545454548,
                "tempo": 120.0
            },
            {
                "start_time": 35.768181818181816,
                "end_time": 35.85,
                "pitch": 75,
                "velocity": 80,
                "duration": 0.08181818181818556,
                "tempo": 120.0
            },
            {
                "start_time": 35.56818181818181,
                "end_time": 35.949999999999996,
                "pitch": 78,
                "velocity": 80,
                "duration": 0.3818181818181827,
                "tempo": 120.0
            },
            {
                "start_time": 35.86818181818182,
                "end_time": 35.949999999999996,
                "pitch": 78,
                "velocity": 80,
                "duration": 0.08181818181817846,
                "tempo": 120.0
            },
            {
                "start_time": 19.8,
                "end_time": 35.965909090909086,
                "pitch": 90,
                "velocity": 80,
                "duration": 16.165909090909086,
                "tempo": 120.0
            },
            {
                "start_time": 15.527272727272727,
                "end_time": 36.04772727272727,
                "pitch": 80,
                "velocity": 80,
                "duration": 20.520454545454545,
                "tempo": 120.0
            },
            {
                "start_time": 35.965909090909086,
                "end_time": 36.04772727272727,
                "pitch": 80,
                "velocity": 80,
                "duration": 0.08181818181818556,
                "tempo": 120.0
            },
            {
                "start_time": 36.06590909090909,
                "end_time": 36.14772727272727,
                "pitch": 83,
                "velocity": 80,
                "duration": 0.08181818181818556,
                "tempo": 120.0
            },
            {
                "start_time": 35.668181818181814,
                "end_time": 36.163636363636364,
                "pitch": 68,
                "velocity": 80,
                "duration": 0.4954545454545496,
                "tempo": 120.0
            },
            {
                "start_time": 15.23181818181818,
                "end_time": 36.24545454545454,
                "pitch": 87,
                "velocity": 80,
                "duration": 21.013636363636362,
                "tempo": 120.0
            },
            {
                "start_time": 36.163636363636364,
                "end_time": 36.24545454545454,
                "pitch": 87,
                "velocity": 80,
                "duration": 0.08181818181817846,
                "tempo": 120.0
            },
            {
                "start_time": 35.965909090909086,
                "end_time": 36.34318181818182,
                "pitch": 90,
                "velocity": 80,
                "duration": 0.3772727272727323,
                "tempo": 120.0
            },
            {
                "start_time": 36.26136363636363,
                "end_time": 36.34318181818182,
                "pitch": 90,
                "velocity": 80,
                "duration": 0.08181818181818556,
                "tempo": 120.0
            },
            {
                "start_time": 20.193181818181817,
                "end_time": 36.361363636363635,
                "pitch": 102,
                "velocity": 80,
                "duration": 16.168181818181818,
                "tempo": 120.0
            },
            {
                "start_time": 15.429545454545455,
                "end_time": 36.44318181818181,
                "pitch": 92,
                "velocity": 80,
                "duration": 21.01363636363636,
                "tempo": 120.0
            },
            {
                "start_time": 36.361363636363635,
                "end_time": 36.44318181818181,
                "pitch": 92,
                "velocity": 80,
                "duration": 0.08181818181817846,
                "tempo": 120.0
            },
            {
                "start_time": 36.45909090909091,
                "end_time": 36.54090909090909,
                "pitch": 95,
                "velocity": 80,
                "duration": 0.08181818181817846,
                "tempo": 120.0
            },
            {
                "start_time": 35.36590909090909,
                "end_time": 36.559090909090905,
                "pitch": 44,
                "velocity": 80,
                "duration": 1.193181818181813,
                "tempo": 120.0
            },
            {
                "start_time": 35.465909090909086,
                "end_time": 36.64090909090909,
                "pitch": 63,
                "velocity": 80,
                "duration": 1.1750000000000043,
                "tempo": 120.0
            },
            {
                "start_time": 36.559090909090905,
                "end_time": 36.64090909090909,
                "pitch": 63,
                "velocity": 80,
                "duration": 0.08181818181818556,
                "tempo": 120.0
            },
            {
                "start_time": 36.65681818181818,
                "end_time": 36.73863636363636,
                "pitch": 66,
                "velocity": 80,
                "duration": 0.08181818181817846,
                "tempo": 120.0
            },
            {
                "start_time": 36.163636363636364,
                "end_time": 36.836363636363636,
                "pitch": 68,
                "velocity": 80,
                "duration": 0.672727272727272,
                "tempo": 120.0
            },
            {
                "start_time": 36.75454545454545,
                "end_time": 36.836363636363636,
                "pitch": 68,
                "velocity": 80,
                "duration": 0.08181818181818556,
                "tempo": 120.0
            },
            {
                "start_time": 36.85454545454545,
                "end_time": 36.93636363636364,
                "pitch": 71,
                "velocity": 80,
                "duration": 0.08181818181818556,
                "tempo": 120.0
            },
            {
                "start_time": 35.768181818181816,
                "end_time": 36.95227272727273,
                "pitch": 56,
                "velocity": 80,
                "duration": 1.1840909090909122,
                "tempo": 120.0
            },
            {
                "start_time": 35.86818181818182,
                "end_time": 37.03636363636363,
                "pitch": 75,
                "velocity": 80,
                "duration": 1.1681818181818144,
                "tempo": 120.0
            },
            {
                "start_time": 36.95227272727273,
                "end_time": 37.03636363636363,
                "pitch": 75,
                "velocity": 80,
                "duration": 0.08409090909090366,
                "tempo": 120.0
            },
            {
                "start_time": 36.75454545454545,
                "end_time": 37.13636363636363,
                "pitch": 78,
                "velocity": 80,
                "duration": 0.3818181818181827,
                "tempo": 120.0
            },
            {
                "start_time": 37.05227272727272,
                "end_time": 37.13636363636363,
                "pitch": 78,
                "velocity": 80,
                "duration": 0.08409090909091077,
                "tempo": 120.0
            },
            {
                "start_time": 36.06590909090909,
                "end_time": 37.236363636363635,
                "pitch": 80,
                "velocity": 80,
                "duration": 1.1704545454545467,
                "tempo": 120.0
            },
            {
                "start_time": 37.154545454545456,
                "end_time": 37.236363636363635,
                "pitch": 80,
                "velocity": 80,
                "duration": 0.08181818181817846,
                "tempo": 120.0
            },
            {
                "start_time": 37.25454545454545,
                "end_time": 37.33863636363636,
                "pitch": 83,
                "velocity": 80,
                "duration": 0.08409090909091077,
                "tempo": 120.0
            },
            {
                "start_time": 36.85454545454545,
                "end_time": 37.35454545454545,
                "pitch": 68,
                "velocity": 80,
                "duration": 0.5,
                "tempo": 120.0
            },
            {
                "start_time": 36.26136363636363,
                "end_time": 37.43636363636364,
                "pitch": 87,
                "velocity": 80,
                "duration": 1.1750000000000043,
                "tempo": 120.0
            },
            {
                "start_time": 37.35454545454545,
                "end_time": 37.43636363636364,
                "pitch": 87,
                "velocity": 80,
                "duration": 0.08181818181818556,
                "tempo": 120.0
            },
            {
                "start_time": 37.154545454545456,
                "end_time": 37.53636363636363,
                "pitch": 90,
                "velocity": 80,
                "duration": 0.3818181818181756,
                "tempo": 120.0
            },
            {
                "start_time": 37.45454545454545,
                "end_time": 37.53636363636363,
                "pitch": 90,
                "velocity": 80,
                "duration": 0.08181818181817846,
                "tempo": 120.0
            },
            {
                "start_time": 36.361363636363635,
                "end_time": 37.55227272727272,
                "pitch": 102,
                "velocity": 80,
                "duration": 1.1909090909090878,
                "tempo": 120.0
            },
            {
                "start_time": 36.45909090909091,
                "end_time": 37.63409090909091,
                "pitch": 92,
                "velocity": 80,
                "duration": 1.1749999999999972,
                "tempo": 120.0
            },
            {
                "start_time": 37.55227272727272,
                "end_time": 37.63409090909091,
                "pitch": 92,
                "velocity": 80,
                "duration": 0.08181818181818556,
                "tempo": 120.0
            },
            {
                "start_time": 37.652272727272724,
                "end_time": 37.73409090909091,
                "pitch": 95,
                "velocity": 80,
                "duration": 0.08181818181818556,
                "tempo": 120.0
            },
            {
                "start_time": 37.25454545454545,
                "end_time": 37.75,
                "pitch": 80,
                "velocity": 80,
                "duration": 0.4954545454545496,
                "tempo": 120.0
            },
            {
                "start_time": 15.627272727272727,
                "end_time": 37.83181818181818,
                "pitch": 99,
                "velocity": 80,
                "duration": 22.204545454545453,
                "tempo": 120.0
            },
            {
                "start_time": 37.75,
                "end_time": 37.83181818181818,
                "pitch": 99,
                "velocity": 80,
                "duration": 0.08181818181817846,
                "tempo": 120.0
            },
            {
                "start_time": 37.55227272727272,
                "end_time": 37.929545454545455,
                "pitch": 102,
                "velocity": 80,
                "duration": 0.3772727272727323,
                "tempo": 120.0
            },
            {
                "start_time": 37.84772727272727,
                "end_time": 37.929545454545455,
                "pitch": 102,
                "velocity": 80,
                "duration": 0.08181818181818556,
                "tempo": 120.0
            },
            {
                "start_time": 20.58863636363636,
                "end_time": 37.94772727272727,
                "pitch": 114,
                "velocity": 80,
                "duration": 17.35909090909091,
                "tempo": 120.0
            },
            {
                "start_time": 15.825,
                "end_time": 38.029545454545456,
                "pitch": 104,
                "velocity": 80,
                "duration": 22.204545454545457,
                "tempo": 120.0
            },
            {
                "start_time": 37.94772727272727,
                "end_time": 38.029545454545456,
                "pitch": 104,
                "velocity": 80,
                "duration": 0.08181818181818556,
                "tempo": 120.0
            },
            {
                "start_time": 38.04545454545455,
                "end_time": 38.127272727272725,
                "pitch": 107,
                "velocity": 80,
                "duration": 0.08181818181817846,
                "tempo": 120.0
            },
            {
                "start_time": 36.559090909090905,
                "end_time": 38.14545454545454,
                "pitch": 44,
                "velocity": 80,
                "duration": 1.586363636363636,
                "tempo": 120.0
            },
            {
                "start_time": 38.14545454545454,
                "end_time": 38.22727272727273,
                "pitch": 60,
                "velocity": 80,
                "duration": 0.08181818181818556,
                "tempo": 120.0
            },
            {
                "start_time": 22.177272727272726,
                "end_time": 38.324999999999996,
                "pitch": 62,
                "velocity": 80,
                "duration": 16.14772727272727,
                "tempo": 120.0
            },
            {
                "start_time": 38.24318181818182,
                "end_time": 38.324999999999996,
                "pitch": 62,
                "velocity": 80,
                "duration": 0.08181818181817846,
                "tempo": 120.0
            },
            {
                "start_time": 22.079545454545453,
                "end_time": 38.42272727272727,
                "pitch": 65,
                "velocity": 80,
                "duration": 16.34318181818182,
                "tempo": 120.0
            },
            {
                "start_time": 38.340909090909086,
                "end_time": 38.42272727272727,
                "pitch": 65,
                "velocity": 80,
                "duration": 0.08181818181818556,
                "tempo": 120.0
            },
            {
                "start_time": 38.44090909090909,
                "end_time": 38.52272727272727,
                "pitch": 69,
                "velocity": 80,
                "duration": 0.08181818181818556,
                "tempo": 120.0
            },
            {
                "start_time": 21.586363636363636,
                "end_time": 38.538636363636364,
                "pitch": 43,
                "velocity": 80,
                "duration": 16.952272727272728,
                "tempo": 120.0
            },
            {
                "start_time": 38.538636363636364,
                "end_time": 38.62272727272727,
                "pitch": 72,
                "velocity": 80,
                "duration": 0.08409090909090366,
                "tempo": 120.0
            },
            {
                "start_time": 21.78181818181818,
                "end_time": 38.72272727272727,
                "pitch": 74,
                "velocity": 80,
                "duration": 16.940909090909088,
                "tempo": 120.0
            },
            {
                "start_time": 38.63863636363636,
                "end_time": 38.72272727272727,
                "pitch": 74,
                "velocity": 80,
                "duration": 0.08409090909091077,
                "tempo": 120.0
            },
            {
                "start_time": 21.68409090909091,
                "end_time": 38.82272727272727,
                "pitch": 77,
                "velocity": 80,
                "duration": 17.138636363636362,
                "tempo": 120.0
            },
            {
                "start_time": 38.74090909090909,
                "end_time": 38.82272727272727,
                "pitch": 77,
                "velocity": 80,
                "duration": 0.08181818181817846,
                "tempo": 120.0
            },
            {
                "start_time": 38.840909090909086,
                "end_time": 38.925,
                "pitch": 81,
                "velocity": 80,
                "duration": 0.08409090909091077,
                "tempo": 120.0
            },
            {
                "start_time": 21.19090909090909,
                "end_time": 38.94090909090909,
                "pitch": 55,
                "velocity": 80,
                "duration": 17.749999999999996,
                "tempo": 120.0
            },
            {
                "start_time": 38.94090909090909,
                "end_time": 39.02272727272727,
                "pitch": 84,
                "velocity": 80,
                "duration": 0.08181818181818556,
                "tempo": 120.0
            },
            {
                "start_time": 21.388636363636362,
                "end_time": 39.12272727272727,
                "pitch": 86,
                "velocity": 80,
                "duration": 17.734090909090906,
                "tempo": 120.0
            },
            {
                "start_time": 39.04090909090909,
                "end_time": 39.12272727272727,
                "pitch": 86,
                "velocity": 80,
                "duration": 0.08181818181817846,
                "tempo": 120.0
            },
            {
                "start_time": 21.288636363636364,
                "end_time": 39.220454545454544,
                "pitch": 89,
                "velocity": 80,
                "duration": 17.93181818181818,
                "tempo": 120.0
            },
            {
                "start_time": 39.13863636363636,
                "end_time": 39.220454545454544,
                "pitch": 89,
                "velocity": 80,
                "duration": 0.08181818181818556,
                "tempo": 120.0
            },
            {
                "start_time": 39.23863636363636,
                "end_time": 39.320454545454545,
                "pitch": 93,
                "velocity": 80,
                "duration": 0.08181818181818556,
                "tempo": 120.0
            },
            {
                "start_time": 20.788636363636364,
                "end_time": 39.336363636363636,
                "pitch": 67,
                "velocity": 80,
                "duration": 18.547727272727272,
                "tempo": 120.0
            },
            {
                "start_time": 39.336363636363636,
                "end_time": 39.418181818181814,
                "pitch": 96,
                "velocity": 80,
                "duration": 0.08181818181817846,
                "tempo": 120.0
            },
            {
                "start_time": 20.99090909090909,
                "end_time": 39.51590909090909,
                "pitch": 98,
                "velocity": 80,
                "duration": 18.525000000000002,
                "tempo": 120.0
            },
            {
                "start_time": 39.434090909090905,
                "end_time": 39.51590909090909,
                "pitch": 98,
                "velocity": 80,
                "duration": 0.08181818181818556,
                "tempo": 120.0
            },
            {
                "start_time": 20.888636363636362,
                "end_time": 39.61590909090909,
                "pitch": 101,
                "velocity": 80,
                "duration": 18.72727272727273,
                "tempo": 120.0
            },
            {
                "start_time": 39.53409090909091,
                "end_time": 39.61590909090909,
                "pitch": 101,
                "velocity": 80,
                "duration": 0.08181818181818556,
                "tempo": 120.0
            },
            {
                "start_time": 37.94772727272727,
                "end_time": 39.63181818181818,
                "pitch": 114,
                "velocity": 80,
                "duration": 1.6840909090909122,
                "tempo": 120.0
            },
            {
                "start_time": 39.63181818181818,
                "end_time": 39.71363636363636,
                "pitch": 105,
                "velocity": 80,
                "duration": 0.08181818181817846,
                "tempo": 120.0
            },
            {
                "start_time": 21.979545454545452,
                "end_time": 39.73181818181818,
                "pitch": 31,
                "velocity": 80,
                "duration": 17.752272727272725,
                "tempo": 120.0
            },
            {
                "start_time": 38.340909090909086,
                "end_time": 39.81363636363636,
                "pitch": 62,
                "velocity": 80,
                "duration": 1.4727272727272762,
                "tempo": 120.0
            },
            {
                "start_time": 39.73181818181818,
                "end_time": 39.81363636363636,
                "pitch": 62,
                "velocity": 80,
                "duration": 0.08181818181818556,
                "tempo": 120.0
            },
            {
                "start_time": 39.82954545454545,
                "end_time": 39.91136363636363,
                "pitch": 65,
                "velocity": 80,
                "duration": 0.08181818181817846,
                "tempo": 120.0
            },
            {
                "start_time": 38.44090909090909,
                "end_time": 39.92727272727272,
                "pitch": 78,
                "velocity": 80,
                "duration": 1.4863636363636346,
                "tempo": 120.0
            },
            {
                "start_time": 39.336363636363636,
                "end_time": 40.00909090909091,
                "pitch": 67,
                "velocity": 80,
                "duration": 0.672727272727272,
                "tempo": 120.0
            },
            {
                "start_time": 39.92727272727272,
                "end_time": 40.00909090909091,
                "pitch": 67,
                "velocity": 80,
                "duration": 0.08181818181818556,
                "tempo": 120.0
            },
            {
                "start_time": 40.027272727272724,
                "end_time": 40.10909090909091,
                "pitch": 70,
                "velocity": 80,
                "duration": 0.08181818181818556,
                "tempo": 120.0
            },
            {
                "start_time": 17.913636363636364,
                "end_time": 40.125,
                "pitch": 50,
                "velocity": 80,
                "duration": 22.211363636363636,
                "tempo": 120.0
            },
            {
                "start_time": 38.74090909090909,
                "end_time": 40.20681818181818,
                "pitch": 74,
                "velocity": 80,
                "duration": 1.4659090909090864,
                "tempo": 120.0
            },
            {
                "start_time": 40.125,
                "end_time": 40.20681818181818,
                "pitch": 74,
                "velocity": 80,
                "duration": 0.08181818181817846,
                "tempo": 120.0
            },
            {
                "start_time": 40.225,
                "end_time": 40.30681818181818,
                "pitch": 77,
                "velocity": 80,
                "duration": 0.08181818181817846,
                "tempo": 120.0
            },
            {
                "start_time": 38.840909090909086,
                "end_time": 40.32272727272727,
                "pitch": 90,
                "velocity": 80,
                "duration": 1.4818181818181841,
                "tempo": 120.0
            },
            {
                "start_time": 18.209090909090907,
                "end_time": 40.404545454545456,
                "pitch": 79,
                "velocity": 80,
                "duration": 22.19545454545455,
                "tempo": 120.0
            },
            {
                "start_time": 40.32272727272727,
                "end_time": 40.404545454545456,
                "pitch": 79,
                "velocity": 80,
                "duration": 0.08181818181818556,
                "tempo": 120.0
            },
            {
                "start_time": 40.42045454545455,
                "end_time": 40.502272727272725,
                "pitch": 82,
                "velocity": 80,
                "duration": 0.08181818181817846,
                "tempo": 120.0
            },
            {
                "start_time": 39.82954545454545,
                "end_time": 40.52045454545454,
                "pitch": 62,
                "velocity": 80,
                "duration": 0.6909090909090878,
                "tempo": 120.0
            },
            {
                "start_time": 39.13863636363636,
                "end_time": 40.60454545454545,
                "pitch": 86,
                "velocity": 80,
                "duration": 1.4659090909090935,
                "tempo": 120.0
            },
            {
                "start_time": 40.52045454545454,
                "end_time": 40.60454545454545,
                "pitch": 86,
                "velocity": 80,
                "duration": 0.08409090909091077,
                "tempo": 120.0
            },
            {
                "start_time": 40.62045454545454,
                "end_time": 40.70454545454545,
                "pitch": 89,
                "velocity": 80,
                "duration": 0.08409090909091077,
                "tempo": 120.0
            },
            {
                "start_time": 39.23863636363636,
                "end_time": 40.720454545454544,
                "pitch": 102,
                "velocity": 80,
                "duration": 1.4818181818181841,
                "tempo": 120.0
            },
            {
                "start_time": 18.604545454545455,
                "end_time": 40.804545454545455,
                "pitch": 91,
                "velocity": 80,
                "duration": 22.2,
                "tempo": 120.0
            },
            {
                "start_time": 40.720454545454544,
                "end_time": 40.804545454545455,
                "pitch": 91,
                "velocity": 80,
                "duration": 0.08409090909091077,
                "tempo": 120.0
            },
            {
                "start_time": 40.82272727272727,
                "end_time": 40.904545454545456,
                "pitch": 94,
                "velocity": 80,
                "duration": 0.08181818181818556,
                "tempo": 120.0
            },
            {
                "start_time": 40.225,
                "end_time": 40.92272727272727,
                "pitch": 74,
                "velocity": 80,
                "duration": 0.6977272727272705,
                "tempo": 120.0
            },
            {
                "start_time": 39.53409090909091,
                "end_time": 41.00454545454545,
                "pitch": 98,
                "velocity": 80,
                "duration": 1.470454545454544,
                "tempo": 120.0
            },
            {
                "start_time": 40.92272727272727,
                "end_time": 41.00454545454545,
                "pitch": 98,
                "velocity": 80,
                "duration": 0.08181818181817846,
                "tempo": 120.0
            },
            {
                "start_time": 41.02045454545454,
                "end_time": 41.10227272727273,
                "pitch": 101,
                "velocity": 80,
                "duration": 0.08181818181818556,
                "tempo": 120.0
            },
            {
                "start_time": 39.63181818181818,
                "end_time": 41.12045454545454,
                "pitch": 114,
                "velocity": 80,
                "duration": 1.4886363636363598,
                "tempo": 120.0
            },
            {
                "start_time": 19.0,
                "end_time": 41.20227272727273,
                "pitch": 103,
                "velocity": 80,
                "duration": 22.202272727272728,
                "tempo": 120.0
            },
            {
                "start_time": 41.12045454545454,
                "end_time": 41.20227272727273,
                "pitch": 103,
                "velocity": 80,
                "duration": 0.08181818181818556,
                "tempo": 120.0
            },
            {
                "start_time": 41.21818181818182,
                "end_time": 41.3,
                "pitch": 106,
                "velocity": 80,
                "duration": 0.08181818181817846,
                "tempo": 120.0
            },
            {
                "start_time": 19.097727272727273,
                "end_time": 41.31818181818181,
                "pitch": 38,
                "velocity": 80,
                "duration": 22.22045454545454,
                "tempo": 120.0
            },
            {
                "start_time": 38.24318181818182,
                "end_time": 41.4,
                "pitch": 60,
                "velocity": 80,
                "duration": 3.1568181818181813,
                "tempo": 120.0
            },
            {
                "start_time": 41.31818181818181,
                "end_time": 41.4,
                "pitch": 60,
                "velocity": 80,
                "duration": 0.08181818181818556,
                "tempo": 120.0
            },
            {
                "start_time": 40.52045454545454,
                "end_time": 41.49772727272727,
                "pitch": 62,
                "velocity": 80,
                "duration": 0.9772727272727266,
                "tempo": 120.0
            },
            {
                "start_time": 41.41590909090909,
                "end_time": 41.49772727272727,
                "pitch": 62,
                "velocity": 80,
                "duration": 0.08181818181817846,
                "tempo": 120.0
            },
            {
                "start_time": 41.51363636363636,
                "end_time": 41.595454545454544,
                "pitch": 65,
                "velocity": 80,
                "duration": 0.08181818181818556,
                "tempo": 120.0
            },
            {
                "start_time": 39.92727272727272,
                "end_time": 41.61363636363636,
                "pitch": 78,
                "velocity": 80,
                "duration": 1.6863636363636374,
                "tempo": 120.0
            },
            {
                "start_time": 41.61363636363636,
                "end_time": 41.695454545454545,
                "pitch": 69,
                "velocity": 80,
                "duration": 0.08181818181818556,
                "tempo": 120.0
            },
            {
                "start_time": 38.538636363636364,
                "end_time": 41.711363636363636,
                "pitch": 43,
                "velocity": 80,
                "duration": 3.172727272727272,
                "tempo": 120.0
            },
            {
                "start_time": 38.63863636363636,
                "end_time": 41.79545454545455,
                "pitch": 72,
                "velocity": 80,
                "duration": 3.1568181818181884,
                "tempo": 120.0
            },
            {
                "start_time": 41.711363636363636,
                "end_time": 41.79545454545455,
                "pitch": 72,
                "velocity": 80,
                "duration": 0.08409090909091077,
                "tempo": 120.0
            },
            {
                "start_time": 40.92272727272727,
                "end_time": 41.89545454545454,
                "pitch": 74,
                "velocity": 80,
                "duration": 0.9727272727272691,
                "tempo": 120.0
            },
            {
                "start_time": 41.81136363636364,
                "end_time": 41.89545454545454,
                "pitch": 74,
                "velocity": 80,
                "duration": 0.08409090909090366,
                "tempo": 120.0
            },
            {
                "start_time": 41.913636363636364,
                "end_time": 41.99545454545454,
                "pitch": 77,
                "velocity": 80,
                "duration": 0.08181818181817846,
                "tempo": 120.0
            },
            {
                "start_time": 40.32272727272727,
                "end_time": 42.01363636363636,
                "pitch": 90,
                "velocity": 80,
                "duration": 1.6909090909090878,
                "tempo": 120.0
            },
            {
                "start_time": 42.01363636363636,
                "end_time": 42.09772727272727,
                "pitch": 81,
                "velocity": 80,
                "duration": 0.08409090909091077,
                "tempo": 120.0
            },
            {
                "start_time": 38.94090909090909,
                "end_time": 42.11363636363636,
                "pitch": 55,
                "velocity": 80,
                "duration": 3.172727272727272,
                "tempo": 120.0
            },
            {
                "start_time": 39.04090909090909,
                "end_time": 42.195454545454545,
                "pitch": 84,
                "velocity": 80,
                "duration": 3.154545454545456,
                "tempo": 120.0
            },
            {
                "start_time": 42.11363636363636,
                "end_time": 42.195454545454545,
                "pitch": 84,
                "velocity": 80,
                "duration": 0.08181818181818556,
                "tempo": 120.0
            },
            {
                "start_time": 40.62045454545454,
                "end_time": 42.29545454545455,
                "pitch": 86,
                "velocity": 80,
                "duration": 1.6750000000000043,
                "tempo": 120.0
            },
            {
                "start_time": 42.21363636363636,
                "end_time": 42.29545454545455,
                "pitch": 86,
                "velocity": 80,
                "duration": 0.08181818181818556,
                "tempo": 120.0
            },
            {
                "start_time": 42.31136363636364,
                "end_time": 42.393181818181816,
                "pitch": 89,
                "velocity": 80,
                "duration": 0.08181818181817846,
                "tempo": 120.0
            },
            {
                "start_time": 40.720454545454544,
                "end_time": 42.40909090909091,
                "pitch": 102,
                "velocity": 80,
                "duration": 1.6886363636363626,
                "tempo": 120.0
            },
            {
                "start_time": 42.40909090909091,
                "end_time": 42.49318181818182,
                "pitch": 93,
                "velocity": 80,
                "duration": 0.08409090909091077,
                "tempo": 120.0
            },
            {
                "start_time": 40.027272727272724,
                "end_time": 42.50909090909091,
                "pitch": 67,
                "velocity": 80,
                "duration": 2.481818181818184,
                "tempo": 120.0
            },
            {
                "start_time": 39.434090909090905,
                "end_time": 42.590909090909086,
                "pitch": 96,
                "velocity": 80,
                "duration": 3.1568181818181813,
                "tempo": 120.0
            },
            {
                "start_time": 42.50909090909091,
                "end_time": 42.590909090909086,
                "pitch": 96,
                "velocity": 80,
                "duration": 0.08181818181817846,
                "tempo": 120.0
            },
            {
                "start_time": 41.02045454545454,
                "end_time": 42.68863636363636,
                "pitch": 98,
                "velocity": 80,
                "duration": 1.6681818181818215,
                "tempo": 120.0
            },
            {
                "start_time": 42.60681818181818,
                "end_time": 42.68863636363636,
                "pitch": 98,
                "velocity": 80,
                "duration": 0.08181818181818556,
                "tempo": 120.0
            },
            {
                "start_time": 42.70681818181818,
                "end_time": 42.788636363636364,
                "pitch": 101,
                "velocity": 80,
                "duration": 0.08181818181818556,
                "tempo": 120.0
            },
            {
                "start_time": 41.12045454545454,
                "end_time": 42.804545454545455,
                "pitch": 114,
                "velocity": 80,
                "duration": 1.6840909090909122,
                "tempo": 120.0
            },
            {
                "start_time": 42.804545454545455,
                "end_time": 42.88636363636363,
                "pitch": 105,
                "velocity": 80,
                "duration": 0.08181818181817846,
                "tempo": 120.0
            },
            {
                "start_time": 42.90454545454545,
                "end_time": 42.986363636363635,
                "pitch": 105,
                "velocity": 80,
                "duration": 0.08181818181818556,
                "tempo": 120.0
            },
            {
                "start_time": 42.50909090909091,
                "end_time": 43.002272727272725,
                "pitch": 67,
                "velocity": 80,
                "duration": 0.4931818181818173,
                "tempo": 120.0
            },
            {
                "start_time": 43.002272727272725,
                "end_time": 43.084090909090904,
                "pitch": 101,
                "velocity": 80,
                "duration": 0.08181818181817846,
                "tempo": 120.0
            },
            {
                "start_time": 42.70681818181818,
                "end_time": 43.18181818181818,
                "pitch": 98,
                "velocity": 80,
                "duration": 0.4750000000000014,
                "tempo": 120.0
            },
            {
                "start_time": 43.1,
                "end_time": 43.18181818181818,
                "pitch": 98,
                "velocity": 80,
                "duration": 0.08181818181817846,
                "tempo": 120.0
            },
            {
                "start_time": 42.60681818181818,
                "end_time": 43.28181818181818,
                "pitch": 96,
                "velocity": 80,
                "duration": 0.6750000000000043,
                "tempo": 120.0
            },
            {
                "start_time": 43.199999999999996,
                "end_time": 43.28181818181818,
                "pitch": 96,
                "velocity": 80,
                "duration": 0.08181818181818556,
                "tempo": 120.0
            },
            {
                "start_time": 21.09090909090909,
                "end_time": 43.29772727272727,
                "pitch": 100,
                "velocity": 80,
                "duration": 22.206818181818182,
                "tempo": 120.0
            },
            {
                "start_time": 43.29772727272727,
                "end_time": 43.37954545454545,
                "pitch": 93,
                "velocity": 80,
                "duration": 0.08181818181817846,
                "tempo": 120.0
            },
            {
                "start_time": 42.11363636363636,
                "end_time": 43.39772727272727,
                "pitch": 55,
                "velocity": 80,
                "duration": 1.2840909090909136,
                "tempo": 120.0
            },
            {
                "start_time": 43.39772727272727,
                "end_time": 43.47954545454545,
                "pitch": 89,
                "velocity": 80,
                "duration": 0.08181818181817846,
                "tempo": 120.0
            },
            {
                "start_time": 42.31136363636364,
                "end_time": 43.57727272727273,
                "pitch": 86,
                "velocity": 80,
                "duration": 1.2659090909090907,
                "tempo": 120.0
            },
            {
                "start_time": 43.49545454545454,
                "end_time": 43.57727272727273,
                "pitch": 86,
                "velocity": 80,
                "duration": 0.08181818181818556,
                "tempo": 120.0
            },
            {
                "start_time": 42.21363636363636,
                "end_time": 43.675,
                "pitch": 84,
                "velocity": 80,
                "duration": 1.461363636363636,
                "tempo": 120.0
            },
            {
                "start_time": 43.59318181818182,
                "end_time": 43.675,
                "pitch": 84,
                "velocity": 80,
                "duration": 0.08181818181817846,
                "tempo": 120.0
            },
            {
                "start_time": 21.486363636363635,
                "end_time": 43.69318181818181,
                "pitch": 88,
                "velocity": 80,
                "duration": 22.20681818181818,
                "tempo": 120.0
            },
            {
                "start_time": 43.69318181818181,
                "end_time": 43.777272727272724,
                "pitch": 81,
                "velocity": 80,
                "duration": 0.08409090909091077,
                "tempo": 120.0
            },
            {
                "start_time": 41.711363636363636,
                "end_time": 43.793181818181814,
                "pitch": 43,
                "velocity": 80,
                "duration": 2.0818181818181785,
                "tempo": 120.0
            },
            {
                "start_time": 43.793181818181814,
                "end_time": 43.877272727272725,
                "pitch": 77,
                "velocity": 80,
                "duration": 0.08409090909091077,
                "tempo": 120.0
            },
            {
                "start_time": 41.913636363636364,
                "end_time": 43.97727272727273,
                "pitch": 74,
                "velocity": 80,
                "duration": 2.0636363636363626,
                "tempo": 120.0
            },
            {
                "start_time": 43.893181818181816,
                "end_time": 43.97727272727273,
                "pitch": 74,
                "velocity": 80,
                "duration": 0.08409090909091077,
                "tempo": 120.0
            },
            {
                "start_time": 41.81136363636364,
                "end_time": 44.07727272727273,
                "pitch": 72,
                "velocity": 80,
                "duration": 2.2659090909090907,
                "tempo": 120.0
            },
            {
                "start_time": 43.99545454545454,
                "end_time": 44.07727272727273,
                "pitch": 72,
                "velocity": 80,
                "duration": 0.08181818181818556,
                "tempo": 120.0
            },
            {
                "start_time": 21.88181818181818,
                "end_time": 44.095454545454544,
                "pitch": 76,
                "velocity": 80,
                "duration": 22.213636363636365,
                "tempo": 120.0
            },
            {
                "start_time": 44.095454545454544,
                "end_time": 44.17727272727272,
                "pitch": 69,
                "velocity": 80,
                "duration": 0.08181818181817846,
                "tempo": 120.0
            },
            {
                "start_time": 39.73181818181818,
                "end_time": 44.19318181818181,
                "pitch": 31,
                "velocity": 80,
                "duration": 4.461363636363636,
                "tempo": 120.0
            },
            {
                "start_time": 44.19318181818181,
                "end_time": 44.275,
                "pitch": 65,
                "velocity": 80,
                "duration": 0.08181818181818556,
                "tempo": 120.0
            },
            {
                "start_time": 41.51363636363636,
                "end_time": 44.375,
                "pitch": 62,
                "velocity": 80,
                "duration": 2.8613636363636417,
                "tempo": 120.0
            },
            {
                "start_time": 44.293181818181814,
                "end_time": 44.375,
                "pitch": 62,
                "velocity": 80,
                "duration": 0.08181818181818556,
                "tempo": 120.0
            },
            {
                "start_time": 41.41590909090909,
                "end_time": 44.47272727272727,
                "pitch": 60,
                "velocity": 80,
                "duration": 3.05681818181818,
                "tempo": 120.0
            },
            {
                "start_time": 44.39090909090909,
                "end_time": 44.47272727272727,
                "pitch": 60,
                "velocity": 80,
                "duration": 0.08181818181817846,
                "tempo": 120.0
            }
        ],
        "Acoustic Bass": [
            {
                "start_time": 44.49090909090909,
                "end_time": 44.57272727272727,
                "pitch": 35,
                "velocity": 80,
                "duration": 0.08181818181817846,
                "tempo": 120.0
            },
            {
                "start_time": 44.49090909090909,
                "end_time": 44.775,
                "pitch": 40,
                "velocity": 80,
                "duration": 0.2840909090909065,
                "tempo": 120.0
            },
            {
                "start_time": 44.69090909090909,
                "end_time": 44.775,
                "pitch": 40,
                "velocity": 80,
                "duration": 0.08409090909091077,
                "tempo": 120.0
            },
            {
                "start_time": 45.277272727272724,
                "end_time": 45.35909090909091,
                "pitch": 40,
                "velocity": 80,
                "duration": 0.08181818181818556,
                "tempo": 120.0
            },
            {
                "start_time": 45.47727272727273,
                "end_time": 45.56136363636364,
                "pitch": 40,
                "velocity": 80,
                "duration": 0.08409090909091077,
                "tempo": 120.0
            },
            {
                "start_time": 45.875,
                "end_time": 45.959090909090904,
                "pitch": 40,
                "velocity": 80,
                "duration": 0.08409090909090366,
                "tempo": 120.0
            },
            {
                "start_time": 46.07272727272727,
                "end_time": 46.15454545454545,
                "pitch": 35,
                "velocity": 80,
                "duration": 0.08181818181817846,
                "tempo": 120.0
            },
            {
                "start_time": 44.69090909090909,
                "end_time": 46.27045454545454,
                "pitch": 19,
                "velocity": 80,
                "duration": 1.5795454545454533,
                "tempo": 120.0
            },
            {
                "start_time": 46.27045454545454,
                "end_time": 46.35227272727273,
                "pitch": 40,
                "velocity": 80,
                "duration": 0.08181818181818556,
                "tempo": 120.0
            },
            {
                "start_time": 46.86363636363636,
                "end_time": 46.945454545454545,
                "pitch": 40,
                "velocity": 80,
                "duration": 0.08181818181818556,
                "tempo": 120.0
            },
            {
                "start_time": 47.06363636363636,
                "end_time": 47.14772727272727,
                "pitch": 40,
                "velocity": 80,
                "duration": 0.08409090909091077,
                "tempo": 120.0
            },
            {
                "start_time": 47.461363636363636,
                "end_time": 47.54545454545454,
                "pitch": 40,
                "velocity": 80,
                "duration": 0.08409090909090366,
                "tempo": 120.0
            },
            {
                "start_time": 47.65909090909091,
                "end_time": 47.74090909090909,
                "pitch": 36,
                "velocity": 80,
                "duration": 0.08181818181818556,
                "tempo": 120.0
            },
            {
                "start_time": 47.85681818181818,
                "end_time": 47.93863636363636,
                "pitch": 43,
                "velocity": 80,
                "duration": 0.08181818181818556,
                "tempo": 120.0
            },
            {
                "start_time": 48.449999999999996,
                "end_time": 48.53181818181818,
                "pitch": 43,
                "velocity": 80,
                "duration": 0.08181818181818556,
                "tempo": 120.0
            },
            {
                "start_time": 48.65,
                "end_time": 48.73409090909091,
                "pitch": 43,
                "velocity": 80,
                "duration": 0.08409090909091077,
                "tempo": 120.0
            },
            {
                "start_time": 49.04772727272727,
                "end_time": 49.13181818181818,
                "pitch": 43,
                "velocity": 80,
                "duration": 0.08409090909091077,
                "tempo": 120.0
            },
            {
                "start_time": 49.24545454545454,
                "end_time": 49.32727272727273,
                "pitch": 36,
                "velocity": 80,
                "duration": 0.08181818181818556,
                "tempo": 120.0
            },
            {
                "start_time": 47.85681818181818,
                "end_time": 49.44318181818181,
                "pitch": 52,
                "velocity": 80,
                "duration": 1.586363636363636,
                "tempo": 120.0
            },
            {
                "start_time": 49.44318181818181,
                "end_time": 49.525,
                "pitch": 43,
                "velocity": 80,
                "duration": 0.08181818181818556,
                "tempo": 120.0
            },
            {
                "start_time": 50.03636363636363,
                "end_time": 50.11818181818182,
                "pitch": 43,
                "velocity": 80,
                "duration": 0.08181818181818556,
                "tempo": 120.0
            },
            {
                "start_time": 50.23181818181818,
                "end_time": 50.31363636363636,
                "pitch": 43,
                "velocity": 80,
                "duration": 0.08181818181818556,
                "tempo": 120.0
            },
            {
                "start_time": 50.63181818181818,
                "end_time": 50.71363636363636,
                "pitch": 43,
                "velocity": 80,
                "duration": 0.08181818181817846,
                "tempo": 120.0
            },
            {
                "start_time": 50.83181818181818,
                "end_time": 50.913636363636364,
                "pitch": 35,
                "velocity": 80,
                "duration": 0.08181818181818556,
                "tempo": 120.0
            },
            {
                "start_time": 46.27045454545454,
                "end_time": 51.02954545454545,
                "pitch": 19,
                "velocity": 80,
                "duration": 4.759090909090908,
                "tempo": 120.0
            },
            {
                "start_time": 47.65909090909091,
                "end_time": 51.111363636363635,
                "pitch": 40,
                "velocity": 80,
                "duration": 3.452272727272728,
                "tempo": 120.0
            },
            {
                "start_time": 51.02954545454545,
                "end_time": 51.111363636363635,
                "pitch": 40,
                "velocity": 80,
                "duration": 0.08181818181818556,
                "tempo": 120.0
            },
            {
                "start_time": 51.62272727272727,
                "end_time": 51.70454545454545,
                "pitch": 40,
                "velocity": 80,
                "duration": 0.08181818181818556,
                "tempo": 120.0
            },
            {
                "start_time": 51.81818181818181,
                "end_time": 51.9,
                "pitch": 40,
                "velocity": 80,
                "duration": 0.08181818181818556,
                "tempo": 120.0
            },
            {
                "start_time": 52.21818181818182,
                "end_time": 52.3,
                "pitch": 40,
                "velocity": 80,
                "duration": 0.08181818181817846,
                "tempo": 120.0
            },
            {
                "start_time": 46.07272727272727,
                "end_time": 52.418181818181814,
                "pitch": 42,
                "velocity": 80,
                "duration": 6.345454545454544,
                "tempo": 120.0
            },
            {
                "start_time": 52.418181818181814,
                "end_time": 52.5,
                "pitch": 35,
                "velocity": 80,
                "duration": 0.08181818181818556,
                "tempo": 120.0
            },
            {
                "start_time": 51.02954545454545,
                "end_time": 52.615909090909085,
                "pitch": 19,
                "velocity": 80,
                "duration": 1.586363636363636,
                "tempo": 120.0
            },
            {
                "start_time": 52.615909090909085,
                "end_time": 52.69772727272727,
                "pitch": 40,
                "velocity": 80,
                "duration": 0.08181818181818556,
                "tempo": 120.0
            },
            {
                "start_time": 53.20681818181818,
                "end_time": 53.29090909090909,
                "pitch": 40,
                "velocity": 80,
                "duration": 0.08409090909091077,
                "tempo": 120.0
            },
            {
                "start_time": 53.40909090909091,
                "end_time": 53.49318181818182,
                "pitch": 40,
                "velocity": 80,
                "duration": 0.08409090909091077,
                "tempo": 120.0
            },
            {
                "start_time": 53.80681818181818,
                "end_time": 53.88863636363636,
                "pitch": 40,
                "velocity": 80,
                "duration": 0.08181818181817846,
                "tempo": 120.0
            },
            {
                "start_time": 54.00454545454545,
                "end_time": 54.086363636363636,
                "pitch": 36,
                "velocity": 80,
                "duration": 0.08181818181818556,
                "tempo": 120.0
            },
            {
                "start_time": 49.44318181818181,
                "end_time": 54.20227272727273,
                "pitch": 52,
                "velocity": 80,
                "duration": 4.759090909090915,
                "tempo": 120.0
            },
            {
                "start_time": 54.20227272727273,
                "end_time": 54.28409090909091,
                "pitch": 43,
                "velocity": 80,
                "duration": 0.08181818181817846,
                "tempo": 120.0
            },
            {
                "start_time": 54.793181818181814,
                "end_time": 54.877272727272725,
                "pitch": 43,
                "velocity": 80,
                "duration": 0.08409090909091077,
                "tempo": 120.0
            },
            {
                "start_time": 54.990909090909085,
                "end_time": 55.07272727272727,
                "pitch": 43,
                "velocity": 80,
                "duration": 0.08181818181818556,
                "tempo": 120.0
            },
            {
                "start_time": 55.39090909090909,
                "end_time": 55.47272727272727,
                "pitch": 43,
                "velocity": 80,
                "duration": 0.08181818181817846,
                "tempo": 120.0
            },
            {
                "start_time": 49.24545454545454,
                "end_time": 55.590909090909086,
                "pitch": 0,
                "velocity": 80,
                "duration": 6.345454545454544,
                "tempo": 120.0
            },
            {
                "start_time": 55.590909090909086,
                "end_time": 55.67272727272727,
                "pitch": 36,
                "velocity": 80,
                "duration": 0.08181818181818556,
                "tempo": 120.0
            },
            {
                "start_time": 54.20227272727273,
                "end_time": 55.788636363636364,
                "pitch": 52,
                "velocity": 80,
                "duration": 1.586363636363636,
                "tempo": 120.0
            },
            {
                "start_time": 55.788636363636364,
                "end_time": 55.87045454545454,
                "pitch": 43,
                "velocity": 80,
                "duration": 0.08181818181817846,
                "tempo": 120.0
            },
            {
                "start_time": 56.37954545454545,
                "end_time": 56.46363636363636,
                "pitch": 43,
                "velocity": 80,
                "duration": 0.08409090909091077,
                "tempo": 120.0
            },
            {
                "start_time": 56.57727272727273,
                "end_time": 56.65909090909091,
                "pitch": 43,
                "velocity": 80,
                "duration": 0.08181818181817846,
                "tempo": 120.0
            },
            {
                "start_time": 56.97727272727273,
                "end_time": 57.059090909090905,
                "pitch": 43,
                "velocity": 80,
                "duration": 0.08181818181817846,
                "tempo": 120.0
            },
            {
                "start_time": 50.83181818181818,
                "end_time": 57.17727272727272,
                "pitch": 31,
                "velocity": 80,
                "duration": 6.345454545454544,
                "tempo": 120.0
            },
            {
                "start_time": 57.17727272727272,
                "end_time": 57.25909090909091,
                "pitch": 35,
                "velocity": 80,
                "duration": 0.08181818181818556,
                "tempo": 120.0
            },
            {
                "start_time": 52.615909090909085,
                "end_time": 57.375,
                "pitch": 19,
                "velocity": 80,
                "duration": 4.759090909090915,
                "tempo": 120.0
            },
            {
                "start_time": 54.00454545454545,
                "end_time": 57.45681818181818,
                "pitch": 40,
                "velocity": 80,
                "duration": 3.452272727272728,
                "tempo": 120.0
            },
            {
                "start_time": 57.375,
                "end_time": 57.45681818181818,
                "pitch": 40,
                "velocity": 80,
                "duration": 0.08181818181817846,
                "tempo": 120.0
            },
            {
                "start_time": 57.965909090909086,
                "end_time": 58.05,
                "pitch": 40,
                "velocity": 80,
                "duration": 0.08409090909091077,
                "tempo": 120.0
            },
            {
                "start_time": 58.163636363636364,
                "end_time": 58.24545454545454,
                "pitch": 40,
                "velocity": 80,
                "duration": 0.08181818181817846,
                "tempo": 120.0
            },
            {
                "start_time": 58.56363636363636,
                "end_time": 58.64545454545454,
                "pitch": 40,
                "velocity": 80,
                "duration": 0.08181818181817846,
                "tempo": 120.0
            },
            {
                "start_time": 52.418181818181814,
                "end_time": 58.76363636363636,
                "pitch": 42,
                "velocity": 80,
                "duration": 6.345454545454544,
                "tempo": 120.0
            },
            {
                "start_time": 58.76363636363636,
                "end_time": 58.845454545454544,
                "pitch": 35,
                "velocity": 80,
                "duration": 0.08181818181818556,
                "tempo": 120.0
            },
            {
                "start_time": 57.375,
                "end_time": 58.961363636363636,
                "pitch": 19,
                "velocity": 80,
                "duration": 1.586363636363636,
                "tempo": 120.0
            },
            {
                "start_time": 58.961363636363636,
                "end_time": 59.043181818181814,
                "pitch": 40,
                "velocity": 80,
                "duration": 0.08181818181817846,
                "tempo": 120.0
            },
            {
                "start_time": 59.55227272727272,
                "end_time": 59.63409090909091,
                "pitch": 40,
                "velocity": 80,
                "duration": 0.08181818181818556,
                "tempo": 120.0
            },
            {
                "start_time": 59.75,
                "end_time": 59.83181818181818,
                "pitch": 40,
                "velocity": 80,
                "duration": 0.08181818181817846,
                "tempo": 120.0
            },
            {
                "start_time": 60.15,
                "end_time": 60.23409090909091,
                "pitch": 40,
                "velocity": 80,
                "duration": 0.08409090909091077,
                "tempo": 120.0
            },
            {
                "start_time": 60.35227272727273,
                "end_time": 60.434090909090905,
                "pitch": 36,
                "velocity": 80,
                "duration": 0.08181818181817846,
                "tempo": 120.0
            },
            {
                "start_time": 55.788636363636364,
                "end_time": 60.55,
                "pitch": 52,
                "velocity": 80,
                "duration": 4.761363636363633,
                "tempo": 120.0
            },
            {
                "start_time": 60.55,
                "end_time": 60.631818181818176,
                "pitch": 43,
                "velocity": 80,
                "duration": 0.08181818181817846,
                "tempo": 120.0
            },
            {
                "start_time": 61.143181818181816,
                "end_time": 61.224999999999994,
                "pitch": 43,
                "velocity": 80,
                "duration": 0.08181818181817846,
                "tempo": 120.0
            },
            {
                "start_time": 61.33863636363636,
                "end_time": 61.42045454545454,
                "pitch": 43,
                "velocity": 80,
                "duration": 0.08181818181817846,
                "tempo": 120.0
            },
            {
                "start_time": 61.73863636363636,
                "end_time": 61.82272727272727,
                "pitch": 43,
                "velocity": 80,
                "duration": 0.08409090909091077,
                "tempo": 120.0
            },
            {
                "start_time": 55.590909090909086,
                "end_time": 61.94090909090909,
                "pitch": 0,
                "velocity": 80,
                "duration": 6.350000000000001,
                "tempo": 120.0
            },
            {
                "start_time": 61.94090909090909,
                "end_time": 62.025,
                "pitch": 36,
                "velocity": 80,
                "duration": 0.08409090909091077,
                "tempo": 120.0
            },
            {
                "start_time": 60.55,
                "end_time": 62.13863636363636,
                "pitch": 52,
                "velocity": 80,
                "duration": 1.5886363636363612,
                "tempo": 120.0
            },
            {
                "start_time": 62.13863636363636,
                "end_time": 62.220454545454544,
                "pitch": 43,
                "velocity": 80,
                "duration": 0.08181818181818556,
                "tempo": 120.0
            },
            {
                "start_time": 62.73181818181818,
                "end_time": 62.81363636363636,
                "pitch": 43,
                "velocity": 80,
                "duration": 0.08181818181818556,
                "tempo": 120.0
            },
            {
                "start_time": 62.929545454545455,
                "end_time": 63.01136363636363,
                "pitch": 43,
                "velocity": 80,
                "duration": 0.08181818181817846,
                "tempo": 120.0
            },
            {
                "start_time": 63.32727272727272,
                "end_time": 63.413636363636364,
                "pitch": 43,
                "velocity": 80,
                "duration": 0.08636363636364308,
                "tempo": 120.0
            },
            {
                "start_time": 57.17727272727272,
                "end_time": 63.53181818181818,
                "pitch": 31,
                "velocity": 80,
                "duration": 6.354545454545459,
                "tempo": 120.0
            },
            {
                "start_time": 63.53181818181818,
                "end_time": 63.61363636363636,
                "pitch": 35,
                "velocity": 80,
                "duration": 0.08181818181817846,
                "tempo": 120.0
            },
            {
                "start_time": 58.961363636363636,
                "end_time": 63.72727272727273,
                "pitch": 19,
                "velocity": 80,
                "duration": 4.765909090909091,
                "tempo": 120.0
            },
            {
                "start_time": 60.35227272727273,
                "end_time": 63.81136363636363,
                "pitch": 40,
                "velocity": 80,
                "duration": 3.4590909090909037,
                "tempo": 120.0
            },
            {
                "start_time": 63.72727272727273,
                "end_time": 63.81136363636363,
                "pitch": 40,
                "velocity": 80,
                "duration": 0.08409090909090366,
                "tempo": 120.0
            },
            {
                "start_time": 64.32045454545454,
                "end_time": 64.40227272727273,
                "pitch": 40,
                "velocity": 80,
                "duration": 0.08181818181819267,
                "tempo": 120.0
            },
            {
                "start_time": 64.51818181818182,
                "end_time": 64.6,
                "pitch": 40,
                "velocity": 80,
                "duration": 0.08181818181817846,
                "tempo": 120.0
            },
            {
                "start_time": 64.91590909090908,
                "end_time": 65.0,
                "pitch": 40,
                "velocity": 80,
                "duration": 0.08409090909091788,
                "tempo": 120.0
            },
            {
                "start_time": 58.76363636363636,
                "end_time": 65.11818181818181,
                "pitch": 42,
                "velocity": 80,
                "duration": 6.354545454545452,
                "tempo": 120.0
            },
            {
                "start_time": 65.11818181818181,
                "end_time": 65.2,
                "pitch": 35,
                "velocity": 80,
                "duration": 0.08181818181819267,
                "tempo": 120.0
            },
            {
                "start_time": 63.72727272727273,
                "end_time": 65.31363636363636,
                "pitch": 19,
                "velocity": 80,
                "duration": 1.586363636363636,
                "tempo": 120.0
            },
            {
                "start_time": 65.31363636363636,
                "end_time": 65.39772727272727,
                "pitch": 40,
                "velocity": 80,
                "duration": 0.08409090909090366,
                "tempo": 120.0
            },
            {
                "start_time": 65.90681818181818,
                "end_time": 65.98863636363636,
                "pitch": 40,
                "velocity": 80,
                "duration": 0.08181818181817846,
                "tempo": 120.0
            },
            {
                "start_time": 66.10454545454544,
                "end_time": 66.18636363636364,
                "pitch": 40,
                "velocity": 80,
                "duration": 0.08181818181819267,
                "tempo": 120.0
            },
            {
                "start_time": 66.50454545454545,
                "end_time": 66.58863636363635,
                "pitch": 40,
                "velocity": 80,
                "duration": 0.08409090909090366,
                "tempo": 120.0
            },
            {
                "start_time": 66.70681818181818,
                "end_time": 66.78863636363636,
                "pitch": 36,
                "velocity": 80,
                "duration": 0.08181818181817846,
                "tempo": 120.0
            },
            {
                "start_time": 62.13863636363636,
                "end_time": 66.90454545454546,
                "pitch": 52,
                "velocity": 80,
                "duration": 4.765909090909098,
                "tempo": 120.0
            },
            {
                "start_time": 66.90454545454546,
                "end_time": 66.98636363636363,
                "pitch": 43,
                "velocity": 80,
                "duration": 0.08181818181817846,
                "tempo": 120.0
            },
            {
                "start_time": 67.49545454545454,
                "end_time": 67.57727272727273,
                "pitch": 43,
                "velocity": 80,
                "duration": 0.08181818181819267,
                "tempo": 120.0
            },
            {
                "start_time": 67.69318181818181,
                "end_time": 67.77499999999999,
                "pitch": 43,
                "velocity": 80,
                "duration": 0.08181818181817846,
                "tempo": 120.0
            },
            {
                "start_time": 68.0909090909091,
                "end_time": 68.175,
                "pitch": 43,
                "velocity": 80,
                "duration": 0.08409090909090366,
                "tempo": 120.0
            },
            {
                "start_time": 61.94090909090909,
                "end_time": 68.29318181818182,
                "pitch": 0,
                "velocity": 80,
                "duration": 6.352272727272734,
                "tempo": 120.0
            },
            {
                "start_time": 68.29318181818182,
                "end_time": 68.375,
                "pitch": 36,
                "velocity": 80,
                "duration": 0.08181818181817846,
                "tempo": 120.0
            },
            {
                "start_time": 66.90454545454546,
                "end_time": 68.49090909090908,
                "pitch": 52,
                "velocity": 80,
                "duration": 1.5863636363636289,
                "tempo": 120.0
            },
            {
                "start_time": 68.49090909090908,
                "end_time": 68.57272727272726,
                "pitch": 43,
                "velocity": 80,
                "duration": 0.08181818181817846,
                "tempo": 120.0
            },
            {
                "start_time": 69.08181818181818,
                "end_time": 69.16363636363636,
                "pitch": 43,
                "velocity": 80,
                "duration": 0.08181818181817846,
                "tempo": 120.0
            },
            {
                "start_time": 69.27954545454546,
                "end_time": 69.36136363636363,
                "pitch": 43,
                "velocity": 80,
                "duration": 0.08181818181817846,
                "tempo": 120.0
            },
            {
                "start_time": 69.67954545454545,
                "end_time": 69.76363636363637,
                "pitch": 43,
                "velocity": 80,
                "duration": 0.08409090909091788,
                "tempo": 120.0
            }
        ],
        "Violin": [
            {
                "start_time": 0.04772727272727272,
                "end_time": 2.9568181818181816,
                "pitch": 40,
                "velocity": 127,
                "duration": 2.9090909090909087,
                "tempo": 120.0
            },
            {
                "start_time": 3.2227272727272727,
                "end_time": 6.129545454545454,
                "pitch": 43,
                "velocity": 127,
                "duration": 2.9068181818181813,
                "tempo": 120.0
            },
            {
                "start_time": 0.04772727272727272,
                "end_time": 6.393181818181818,
                "pitch": 0,
                "velocity": 127,
                "duration": 6.345454545454545,
                "tempo": 120.0
            },
            {
                "start_time": 6.393181818181818,
                "end_time": 9.306818181818182,
                "pitch": 40,
                "velocity": 127,
                "duration": 2.913636363636364,
                "tempo": 120.0
            },
            {
                "start_time": 3.2227272727272727,
                "end_time": 9.572727272727272,
                "pitch": 54,
                "velocity": 127,
                "duration": 6.35,
                "tempo": 120.0
            },
            {
                "start_time": 9.572727272727272,
                "end_time": 12.486363636363636,
                "pitch": 43,
                "velocity": 127,
                "duration": 2.913636363636364,
                "tempo": 120.0
            },
            {
                "start_time": 6.393181818181818,
                "end_time": 12.75,
                "pitch": 0,
                "velocity": 127,
                "duration": 6.356818181818182,
                "tempo": 120.0
            },
            {
                "start_time": 12.75,
                "end_time": 15.661363636363635,
                "pitch": 40,
                "velocity": 127,
                "duration": 2.9113636363636353,
                "tempo": 120.0
            },
            {
                "start_time": 15.924999999999999,
                "end_time": 17.25,
                "pitch": 38,
                "velocity": 127,
                "duration": 1.325000000000001,
                "tempo": 120.0
            },
            {
                "start_time": 17.513636363636362,
                "end_time": 18.836363636363636,
                "pitch": 43,
                "velocity": 127,
                "duration": 1.322727272727274,
                "tempo": 120.0
            },
            {
                "start_time": 12.75,
                "end_time": 19.099999999999998,
                "pitch": 0,
                "velocity": 127,
                "duration": 6.349999999999998,
                "tempo": 120.0
            },
            {
                "start_time": 19.099999999999998,
                "end_time": 22.013636363636362,
                "pitch": 38,
                "velocity": 127,
                "duration": 2.913636363636364,
                "tempo": 120.0
            },
            {
                "start_time": 15.924999999999999,
                "end_time": 25.188636363636363,
                "pitch": 40,
                "velocity": 127,
                "duration": 9.263636363636364,
                "tempo": 120.0
            },
            {
                "start_time": 22.279545454545453,
                "end_time": 25.188636363636363,
                "pitch": 40,
                "velocity": 127,
                "duration": 2.90909090909091,
                "tempo": 120.0
            },
            {
                "start_time": 9.572727272727272,
                "end_time": 25.454545454545453,
                "pitch": 54,
                "velocity": 127,
                "duration": 15.881818181818181,
                "tempo": 120.0
            },
            {
                "start_time": 25.454545454545453,
                "end_time": 28.363636363636363,
                "pitch": 43,
                "velocity": 127,
                "duration": 2.90909090909091,
                "tempo": 120.0
            },
            {
                "start_time": 19.099999999999998,
                "end_time": 28.629545454545454,
                "pitch": 0,
                "velocity": 127,
                "duration": 9.529545454545456,
                "tempo": 120.0
            },
            {
                "start_time": 28.629545454545454,
                "end_time": 31.536363636363635,
                "pitch": 40,
                "velocity": 127,
                "duration": 2.9068181818181813,
                "tempo": 120.0
            },
            {
                "start_time": 25.454545454545453,
                "end_time": 31.802272727272726,
                "pitch": 54,
                "velocity": 127,
                "duration": 6.347727272727273,
                "tempo": 120.0
            },
            {
                "start_time": 31.802272727272726,
                "end_time": 34.70909090909091,
                "pitch": 43,
                "velocity": 127,
                "duration": 2.906818181818185,
                "tempo": 120.0
            },
            {
                "start_time": 28.629545454545454,
                "end_time": 34.975,
                "pitch": 0,
                "velocity": 127,
                "duration": 6.3454545454545475,
                "tempo": 120.0
            },
            {
                "start_time": 34.975,
                "end_time": 37.88181818181818,
                "pitch": 40,
                "velocity": 127,
                "duration": 2.9068181818181813,
                "tempo": 120.0
            },
            {
                "start_time": 22.279545454545453,
                "end_time": 39.46818181818182,
                "pitch": 38,
                "velocity": 127,
                "duration": 17.188636363636366,
                "tempo": 120.0
            },
            {
                "start_time": 38.14772727272727,
                "end_time": 39.46818181818182,
                "pitch": 38,
                "velocity": 127,
                "duration": 1.3204545454545453,
                "tempo": 120.0
            },
            {
                "start_time": 17.513636363636362,
                "end_time": 39.73409090909091,
                "pitch": 53,
                "velocity": 127,
                "duration": 22.220454545454547,
                "tempo": 120.0
            },
            {
                "start_time": 39.73409090909091,
                "end_time": 41.054545454545455,
                "pitch": 43,
                "velocity": 127,
                "duration": 1.3204545454545453,
                "tempo": 120.0
            },
            {
                "start_time": 34.975,
                "end_time": 41.320454545454545,
                "pitch": 0,
                "velocity": 127,
                "duration": 6.345454545454544,
                "tempo": 120.0
            },
            {
                "start_time": 41.320454545454545,
                "end_time": 44.22727272727273,
                "pitch": 38,
                "velocity": 127,
                "duration": 2.9068181818181813,
                "tempo": 120.0
            },
            {
                "start_time": 41.320454545454545,
                "end_time": 69.88636363636363,
                "pitch": 0,
                "velocity": 127,
                "duration": 28.56590909090908,
                "tempo": 120.0
            },
            {
                "start_time": 38.14772727272727,
                "end_time": 69.89772727272727,
                "pitch": 40,
                "velocity": 127,
                "duration": 31.749999999999993,
                "tempo": 120.0
            },
            {
                "start_time": 69.88636363636363,
                "end_time": 69.89772727272727,
                "pitch": 40,
                "velocity": 127,
                "duration": 0.01136363636364024,
                "tempo": 120.0
            }
        ],
        "Electric Piano 1": [
            {
                "start_time": 44.49545454545454,
                "end_time": 47.39772727272727,
                "pitch": 76,
                "velocity": 80,
                "duration": 2.902272727272731,
                "tempo": 120.0
            },
            {
                "start_time": 47.66136363636363,
                "end_time": 50.56590909090909,
                "pitch": 79,
                "velocity": 80,
                "duration": 2.904545454545456,
                "tempo": 120.0
            },
            {
                "start_time": 50.834090909090904,
                "end_time": 53.74318181818182,
                "pitch": 76,
                "velocity": 80,
                "duration": 2.9090909090909136,
                "tempo": 120.0
            },
            {
                "start_time": 47.66136363636363,
                "end_time": 54.00681818181818,
                "pitch": 90,
                "velocity": 80,
                "duration": 6.345454545454551,
                "tempo": 120.0
            },
            {
                "start_time": 54.00681818181818,
                "end_time": 56.90909090909091,
                "pitch": 79,
                "velocity": 80,
                "duration": 2.902272727272724,
                "tempo": 120.0
            },
            {
                "start_time": 50.834090909090904,
                "end_time": 57.179545454545455,
                "pitch": 0,
                "velocity": 80,
                "duration": 6.345454545454551,
                "tempo": 120.0
            },
            {
                "start_time": 57.179545454545455,
                "end_time": 60.084090909090904,
                "pitch": 76,
                "velocity": 80,
                "duration": 2.904545454545449,
                "tempo": 120.0
            },
            {
                "start_time": 54.00681818181818,
                "end_time": 60.35454545454545,
                "pitch": 90,
                "velocity": 80,
                "duration": 6.347727272727269,
                "tempo": 120.0
            },
            {
                "start_time": 60.35454545454545,
                "end_time": 63.26136363636363,
                "pitch": 79,
                "velocity": 80,
                "duration": 2.9068181818181813,
                "tempo": 120.0
            },
            {
                "start_time": 57.179545454545455,
                "end_time": 63.53409090909091,
                "pitch": 0,
                "velocity": 80,
                "duration": 6.354545454545452,
                "tempo": 120.0
            },
            {
                "start_time": 63.53409090909091,
                "end_time": 66.43636363636364,
                "pitch": 76,
                "velocity": 80,
                "duration": 2.902272727272731,
                "tempo": 120.0
            },
            {
                "start_time": 60.35454545454545,
                "end_time": 66.7090909090909,
                "pitch": 90,
                "velocity": 80,
                "duration": 6.354545454545452,
                "tempo": 120.0
            },
            {
                "start_time": 66.7090909090909,
                "end_time": 69.61136363636363,
                "pitch": 79,
                "velocity": 80,
                "duration": 2.902272727272731,
                "tempo": 120.0
            }
        ]
    }
}