{
    "track_id": "09 Bio-Monster",
    "mood": "angry",
    "instruments": {
        "Acoustic Bass": [
            {
                "start_time": 0.03636363636363636,
                "end_time": 0.23409090909090907,
                "pitch": 33,
                "velocity": 80,
                "duration": 0.1977272727272727,
                "tempo": 120.0
            },
            {
                "start_time": 0.23409090909090907,
                "end_time": 0.4318181818181818,
                "pitch": 33,
                "velocity": 80,
                "duration": 0.19772727272727275,
                "tempo": 120.0
            },
            {
                "start_time": 0.8454545454545455,
                "end_time": 1.0454545454545454,
                "pitch": 33,
                "velocity": 80,
                "duration": 0.19999999999999996,
                "tempo": 120.0
            },
            {
                "start_time": 1.0454545454545454,
                "end_time": 1.2454545454545454,
                "pitch": 33,
                "velocity": 80,
                "duration": 0.19999999999999996,
                "tempo": 120.0
            },
            {
                "start_time": 1.6454545454545453,
                "end_time": 1.8454545454545455,
                "pitch": 33,
                "velocity": 80,
                "duration": 0.20000000000000018,
                "tempo": 120.0
            },
            {
                "start_time": 1.8454545454545455,
                "end_time": 2.0454545454545454,
                "pitch": 33,
                "velocity": 80,
                "duration": 0.19999999999999996,
                "tempo": 120.0
            },
            {
                "start_time": 2.4477272727272728,
                "end_time": 2.6477272727272725,
                "pitch": 33,
                "velocity": 80,
                "duration": 0.19999999999999973,
                "tempo": 120.0
            },
            {
                "start_time": 2.65,
                "end_time": 2.8499999999999996,
                "pitch": 33,
                "velocity": 80,
                "duration": 0.19999999999999973,
                "tempo": 120.0
            },
            {
                "start_time": 3.05,
                "end_time": 3.15,
                "pitch": 38,
                "velocity": 80,
                "duration": 0.10000000000000009,
                "tempo": 120.0
            },
            {
                "start_time": 3.15,
                "end_time": 3.252272727272727,
                "pitch": 40,
                "velocity": 80,
                "duration": 0.10227272727272707,
                "tempo": 120.0
            },
            {
                "start_time": 3.252272727272727,
                "end_time": 3.452272727272727,
                "pitch": 33,
                "velocity": 80,
                "duration": 0.20000000000000018,
                "tempo": 120.0
            },
            {
                "start_time": 3.452272727272727,
                "end_time": 3.65,
                "pitch": 33,
                "velocity": 80,
                "duration": 0.19772727272727275,
                "tempo": 120.0
            },
            {
                "start_time": 4.0636363636363635,
                "end_time": 4.256818181818182,
                "pitch": 33,
                "velocity": 80,
                "duration": 0.19318181818181834,
                "tempo": 120.0
            },
            {
                "start_time": 4.259090909090909,
                "end_time": 4.454545454545454,
                "pitch": 33,
                "velocity": 80,
                "duration": 0.19545454545454533,
                "tempo": 120.0
            },
            {
                "start_time": 4.86590909090909,
                "end_time": 5.0659090909090905,
                "pitch": 33,
                "velocity": 80,
                "duration": 0.20000000000000018,
                "tempo": 120.0
            },
            {
                "start_time": 5.0659090909090905,
                "end_time": 5.265909090909091,
                "pitch": 33,
                "velocity": 80,
                "duration": 0.20000000000000018,
                "tempo": 120.0
            },
            {
                "start_time": 5.659090909090909,
                "end_time": 5.761363636363636,
                "pitch": 33,
                "velocity": 80,
                "duration": 0.10227272727272663,
                "tempo": 120.0
            },
            {
                "start_time": 5.763636363636364,
                "end_time": 5.86590909090909,
                "pitch": 45,
                "velocity": 80,
                "duration": 0.10227272727272663,
                "tempo": 120.0
            },
            {
                "start_time": 5.86590909090909,
                "end_time": 5.968181818181818,
                "pitch": 43,
                "velocity": 80,
                "duration": 0.10227272727272751,
                "tempo": 120.0
            },
            {
                "start_time": 5.968181818181818,
                "end_time": 6.070454545454545,
                "pitch": 40,
                "velocity": 80,
                "duration": 0.10227272727272751,
                "tempo": 120.0
            },
            {
                "start_time": 6.070454545454545,
                "end_time": 6.170454545454545,
                "pitch": 38,
                "velocity": 80,
                "duration": 0.09999999999999964,
                "tempo": 120.0
            },
            {
                "start_time": 6.172727272727273,
                "end_time": 6.2727272727272725,
                "pitch": 36,
                "velocity": 80,
                "duration": 0.09999999999999964,
                "tempo": 120.0
            },
            {
                "start_time": 6.2727272727272725,
                "end_time": 6.372727272727272,
                "pitch": 33,
                "velocity": 80,
                "duration": 0.09999999999999964,
                "tempo": 120.0
            },
            {
                "start_time": 6.372727272727272,
                "end_time": 6.475,
                "pitch": 31,
                "velocity": 80,
                "duration": 0.10227272727272751,
                "tempo": 120.0
            },
            {
                "start_time": 6.477272727272727,
                "end_time": 6.675,
                "pitch": 33,
                "velocity": 80,
                "duration": 0.1977272727272732,
                "tempo": 120.0
            },
            {
                "start_time": 6.677272727272727,
                "end_time": 6.875,
                "pitch": 33,
                "velocity": 80,
                "duration": 0.1977272727272732,
                "tempo": 120.0
            },
            {
                "start_time": 7.279545454545454,
                "end_time": 7.4795454545454545,
                "pitch": 33,
                "velocity": 80,
                "duration": 0.20000000000000018,
                "tempo": 120.0
            },
            {
                "start_time": 7.4795454545454545,
                "end_time": 7.679545454545454,
                "pitch": 33,
                "velocity": 80,
                "duration": 0.1999999999999993,
                "tempo": 120.0
            },
            {
                "start_time": 8.081818181818182,
                "end_time": 8.281818181818181,
                "pitch": 33,
                "velocity": 80,
                "duration": 0.1999999999999993,
                "tempo": 120.0
            },
            {
                "start_time": 8.281818181818181,
                "end_time": 8.48181818181818,
                "pitch": 33,
                "velocity": 80,
                "duration": 0.1999999999999993,
                "tempo": 120.0
            },
            {
                "start_time": 8.886363636363637,
                "end_time": 9.086363636363636,
                "pitch": 33,
                "velocity": 80,
                "duration": 0.1999999999999993,
                "tempo": 120.0
            },
            {
                "start_time": 9.086363636363636,
                "end_time": 9.288636363636364,
                "pitch": 33,
                "velocity": 80,
                "duration": 0.20227272727272805,
                "tempo": 120.0
            },
            {
                "start_time": 9.49090909090909,
                "end_time": 9.59090909090909,
                "pitch": 38,
                "velocity": 80,
                "duration": 0.09999999999999964,
                "tempo": 120.0
            },
            {
                "start_time": 9.59090909090909,
                "end_time": 9.693181818181818,
                "pitch": 40,
                "velocity": 80,
                "duration": 0.1022727272727284,
                "tempo": 120.0
            },
            {
                "start_time": 9.693181818181818,
                "end_time": 9.893181818181818,
                "pitch": 33,
                "velocity": 80,
                "duration": 0.1999999999999993,
                "tempo": 120.0
            },
            {
                "start_time": 9.895454545454545,
                "end_time": 10.093181818181817,
                "pitch": 33,
                "velocity": 80,
                "duration": 0.1977272727272723,
                "tempo": 120.0
            },
            {
                "start_time": 10.497727272727273,
                "end_time": 10.695454545454545,
                "pitch": 33,
                "velocity": 80,
                "duration": 0.1977272727272723,
                "tempo": 120.0
            },
            {
                "start_time": 10.697727272727272,
                "end_time": 10.897727272727272,
                "pitch": 33,
                "velocity": 80,
                "duration": 0.1999999999999993,
                "tempo": 120.0
            },
            {
                "start_time": 11.311363636363636,
                "end_time": 11.511363636363637,
                "pitch": 33,
                "velocity": 80,
                "duration": 0.20000000000000107,
                "tempo": 120.0
            },
            {
                "start_time": 11.511363636363637,
                "end_time": 11.713636363636363,
                "pitch": 33,
                "velocity": 80,
                "duration": 0.20227272727272627,
                "tempo": 120.0
            },
            {
                "start_time": 12.11590909090909,
                "end_time": 12.21590909090909,
                "pitch": 33,
                "velocity": 80,
                "duration": 0.09999999999999964,
                "tempo": 120.0
            },
            {
                "start_time": 12.218181818181817,
                "end_time": 12.318181818181818,
                "pitch": 45,
                "velocity": 80,
                "duration": 0.10000000000000142,
                "tempo": 120.0
            },
            {
                "start_time": 12.318181818181818,
                "end_time": 12.418181818181818,
                "pitch": 43,
                "velocity": 80,
                "duration": 0.09999999999999964,
                "tempo": 120.0
            },
            {
                "start_time": 12.420454545454545,
                "end_time": 12.520454545454545,
                "pitch": 40,
                "velocity": 80,
                "duration": 0.09999999999999964,
                "tempo": 120.0
            },
            {
                "start_time": 12.520454545454545,
                "end_time": 12.618181818181817,
                "pitch": 38,
                "velocity": 80,
                "duration": 0.09772727272727266,
                "tempo": 120.0
            },
            {
                "start_time": 12.620454545454544,
                "end_time": 12.720454545454546,
                "pitch": 36,
                "velocity": 80,
                "duration": 0.10000000000000142,
                "tempo": 120.0
            },
            {
                "start_time": 12.720454545454546,
                "end_time": 12.820454545454545,
                "pitch": 33,
                "velocity": 80,
                "duration": 0.09999999999999964,
                "tempo": 120.0
            },
            {
                "start_time": 12.820454545454545,
                "end_time": 12.922727272727272,
                "pitch": 31,
                "velocity": 80,
                "duration": 0.10227272727272663,
                "tempo": 120.0
            },
            {
                "start_time": 12.922727272727272,
                "end_time": 13.122727272727271,
                "pitch": 33,
                "velocity": 80,
                "duration": 0.1999999999999993,
                "tempo": 120.0
            },
            {
                "start_time": 13.122727272727271,
                "end_time": 13.325,
                "pitch": 33,
                "velocity": 80,
                "duration": 0.20227272727272805,
                "tempo": 120.0
            },
            {
                "start_time": 13.727272727272727,
                "end_time": 13.929545454545455,
                "pitch": 33,
                "velocity": 80,
                "duration": 0.20227272727272805,
                "tempo": 120.0
            },
            {
                "start_time": 13.929545454545455,
                "end_time": 14.129545454545454,
                "pitch": 33,
                "velocity": 80,
                "duration": 0.1999999999999993,
                "tempo": 120.0
            },
            {
                "start_time": 14.534090909090908,
                "end_time": 14.734090909090908,
                "pitch": 33,
                "velocity": 80,
                "duration": 0.1999999999999993,
                "tempo": 120.0
            },
            {
                "start_time": 14.734090909090908,
                "end_time": 14.934090909090909,
                "pitch": 33,
                "velocity": 80,
                "duration": 0.20000000000000107,
                "tempo": 120.0
            },
            {
                "start_time": 15.338636363636363,
                "end_time": 15.538636363636362,
                "pitch": 33,
                "velocity": 80,
                "duration": 0.1999999999999993,
                "tempo": 120.0
            },
            {
                "start_time": 15.540909090909091,
                "end_time": 15.74090909090909,
                "pitch": 33,
                "velocity": 80,
                "duration": 0.1999999999999993,
                "tempo": 120.0
            },
            {
                "start_time": 15.943181818181817,
                "end_time": 16.043181818181818,
                "pitch": 38,
                "velocity": 80,
                "duration": 0.10000000000000142,
                "tempo": 120.0
            },
            {
                "start_time": 16.043181818181818,
                "end_time": 16.143181818181816,
                "pitch": 40,
                "velocity": 80,
                "duration": 0.09999999999999787,
                "tempo": 120.0
            },
            {
                "start_time": 16.145454545454545,
                "end_time": 16.345454545454544,
                "pitch": 33,
                "velocity": 80,
                "duration": 0.1999999999999993,
                "tempo": 120.0
            },
            {
                "start_time": 16.345454545454544,
                "end_time": 16.547727272727272,
                "pitch": 33,
                "velocity": 80,
                "duration": 0.20227272727272805,
                "tempo": 120.0
            },
            {
                "start_time": 16.94772727272727,
                "end_time": 17.15,
                "pitch": 33,
                "velocity": 80,
                "duration": 0.20227272727272805,
                "tempo": 120.0
            },
            {
                "start_time": 17.15,
                "end_time": 17.349999999999998,
                "pitch": 33,
                "velocity": 80,
                "duration": 0.1999999999999993,
                "tempo": 120.0
            },
            {
                "start_time": 17.752272727272725,
                "end_time": 17.952272727272728,
                "pitch": 33,
                "velocity": 80,
                "duration": 0.20000000000000284,
                "tempo": 120.0
            },
            {
                "start_time": 17.952272727272728,
                "end_time": 18.152272727272727,
                "pitch": 33,
                "velocity": 80,
                "duration": 0.1999999999999993,
                "tempo": 120.0
            },
            {
                "start_time": 18.563636363636363,
                "end_time": 18.659090909090907,
                "pitch": 33,
                "velocity": 80,
                "duration": 0.0954545454545439,
                "tempo": 120.0
            },
            {
                "start_time": 18.661363636363635,
                "end_time": 18.759090909090908,
                "pitch": 45,
                "velocity": 80,
                "duration": 0.09772727272727266,
                "tempo": 120.0
            },
            {
                "start_time": 18.759090909090908,
                "end_time": 18.85681818181818,
                "pitch": 43,
                "velocity": 80,
                "duration": 0.09772727272727266,
                "tempo": 120.0
            },
            {
                "start_time": 18.85681818181818,
                "end_time": 18.954545454545453,
                "pitch": 40,
                "velocity": 80,
                "duration": 0.09772727272727266,
                "tempo": 120.0
            },
            {
                "start_time": 18.956818181818182,
                "end_time": 19.05681818181818,
                "pitch": 38,
                "velocity": 80,
                "duration": 0.09999999999999787,
                "tempo": 120.0
            },
            {
                "start_time": 19.05681818181818,
                "end_time": 19.161363636363635,
                "pitch": 36,
                "velocity": 80,
                "duration": 0.10454545454545539,
                "tempo": 120.0
            },
            {
                "start_time": 19.161363636363635,
                "end_time": 19.263636363636362,
                "pitch": 33,
                "velocity": 80,
                "duration": 0.10227272727272663,
                "tempo": 120.0
            },
            {
                "start_time": 19.263636363636362,
                "end_time": 19.36590909090909,
                "pitch": 31,
                "velocity": 80,
                "duration": 0.10227272727272663,
                "tempo": 120.0
            },
            {
                "start_time": 19.368181818181817,
                "end_time": 19.568181818181817,
                "pitch": 29,
                "velocity": 80,
                "duration": 0.1999999999999993,
                "tempo": 120.0
            },
            {
                "start_time": 19.568181818181817,
                "end_time": 19.770454545454545,
                "pitch": 29,
                "velocity": 80,
                "duration": 0.20227272727272805,
                "tempo": 120.0
            },
            {
                "start_time": 20.170454545454543,
                "end_time": 20.370454545454546,
                "pitch": 29,
                "velocity": 80,
                "duration": 0.20000000000000284,
                "tempo": 120.0
            },
            {
                "start_time": 20.370454545454546,
                "end_time": 20.570454545454545,
                "pitch": 29,
                "velocity": 80,
                "duration": 0.1999999999999993,
                "tempo": 120.0
            },
            {
                "start_time": 20.974999999999998,
                "end_time": 21.172727272727272,
                "pitch": 31,
                "velocity": 80,
                "duration": 0.19772727272727408,
                "tempo": 120.0
            },
            {
                "start_time": 21.175,
                "end_time": 21.375,
                "pitch": 31,
                "velocity": 80,
                "duration": 0.1999999999999993,
                "tempo": 120.0
            },
            {
                "start_time": 21.777272727272727,
                "end_time": 21.977272727272727,
                "pitch": 31,
                "velocity": 80,
                "duration": 0.1999999999999993,
                "tempo": 120.0
            },
            {
                "start_time": 21.979545454545452,
                "end_time": 22.179545454545455,
                "pitch": 31,
                "velocity": 80,
                "duration": 0.20000000000000284,
                "tempo": 120.0
            },
            {
                "start_time": 22.379545454545454,
                "end_time": 22.479545454545452,
                "pitch": 36,
                "velocity": 80,
                "duration": 0.09999999999999787,
                "tempo": 120.0
            },
            {
                "start_time": 22.479545454545452,
                "end_time": 22.579545454545453,
                "pitch": 38,
                "velocity": 80,
                "duration": 0.10000000000000142,
                "tempo": 120.0
            },
            {
                "start_time": 22.579545454545453,
                "end_time": 22.779545454545453,
                "pitch": 33,
                "velocity": 80,
                "duration": 0.1999999999999993,
                "tempo": 120.0
            },
            {
                "start_time": 22.78181818181818,
                "end_time": 22.98181818181818,
                "pitch": 33,
                "velocity": 80,
                "duration": 0.1999999999999993,
                "tempo": 120.0
            },
            {
                "start_time": 23.38181818181818,
                "end_time": 23.584090909090907,
                "pitch": 33,
                "velocity": 80,
                "duration": 0.20227272727272805,
                "tempo": 120.0
            },
            {
                "start_time": 23.584090909090907,
                "end_time": 23.786363636363635,
                "pitch": 33,
                "velocity": 80,
                "duration": 0.20227272727272805,
                "tempo": 120.0
            },
            {
                "start_time": 24.186363636363634,
                "end_time": 24.386363636363637,
                "pitch": 34,
                "velocity": 80,
                "duration": 0.20000000000000284,
                "tempo": 120.0
            },
            {
                "start_time": 24.386363636363637,
                "end_time": 24.586363636363636,
                "pitch": 34,
                "velocity": 80,
                "duration": 0.1999999999999993,
                "tempo": 120.0
            },
            {
                "start_time": 24.99090909090909,
                "end_time": 25.19090909090909,
                "pitch": 35,
                "velocity": 80,
                "duration": 0.20000000000000284,
                "tempo": 120.0
            },
            {
                "start_time": 25.19090909090909,
                "end_time": 25.39090909090909,
                "pitch": 35,
                "velocity": 80,
                "duration": 0.1999999999999993,
                "tempo": 120.0
            },
            {
                "start_time": 25.39090909090909,
                "end_time": 25.493181818181817,
                "pitch": 38,
                "velocity": 80,
                "duration": 0.10227272727272663,
                "tempo": 120.0
            },
            {
                "start_time": 25.493181818181817,
                "end_time": 25.595454545454544,
                "pitch": 40,
                "velocity": 80,
                "duration": 0.10227272727272663,
                "tempo": 120.0
            },
            {
                "start_time": 25.597727272727273,
                "end_time": 25.7,
                "pitch": 35,
                "velocity": 80,
                "duration": 0.10227272727272663,
                "tempo": 120.0
            },
            {
                "start_time": 25.7,
                "end_time": 25.802272727272726,
                "pitch": 36,
                "velocity": 80,
                "duration": 0.10227272727272663,
                "tempo": 120.0
            },
            {
                "start_time": 25.804545454545455,
                "end_time": 26.004545454545454,
                "pitch": 33,
                "velocity": 80,
                "duration": 0.1999999999999993,
                "tempo": 120.0
            },
            {
                "start_time": 26.004545454545454,
                "end_time": 26.204545454545453,
                "pitch": 33,
                "velocity": 80,
                "duration": 0.1999999999999993,
                "tempo": 120.0
            },
            {
                "start_time": 26.597727272727273,
                "end_time": 26.799999999999997,
                "pitch": 33,
                "velocity": 80,
                "duration": 0.2022727272727245,
                "tempo": 120.0
            },
            {
                "start_time": 26.799999999999997,
                "end_time": 27.0,
                "pitch": 33,
                "velocity": 80,
                "duration": 0.20000000000000284,
                "tempo": 120.0
            },
            {
                "start_time": 27.413636363636364,
                "end_time": 27.613636363636363,
                "pitch": 33,
                "velocity": 80,
                "duration": 0.1999999999999993,
                "tempo": 120.0
            },
            {
                "start_time": 27.613636363636363,
                "end_time": 27.813636363636363,
                "pitch": 33,
                "velocity": 80,
                "duration": 0.1999999999999993,
                "tempo": 120.0
            },
            {
                "start_time": 28.21590909090909,
                "end_time": 28.41590909090909,
                "pitch": 33,
                "velocity": 80,
                "duration": 0.1999999999999993,
                "tempo": 120.0
            },
            {
                "start_time": 28.418181818181818,
                "end_time": 28.61590909090909,
                "pitch": 33,
                "velocity": 80,
                "duration": 0.19772727272727053,
                "tempo": 120.0
            },
            {
                "start_time": 28.818181818181817,
                "end_time": 28.91590909090909,
                "pitch": 38,
                "velocity": 80,
                "duration": 0.09772727272727266,
                "tempo": 120.0
            },
            {
                "start_time": 28.918181818181818,
                "end_time": 29.018181818181816,
                "pitch": 40,
                "velocity": 80,
                "duration": 0.09999999999999787,
                "tempo": 120.0
            },
            {
                "start_time": 29.018181818181816,
                "end_time": 29.218181818181815,
                "pitch": 33,
                "velocity": 80,
                "duration": 0.1999999999999993,
                "tempo": 120.0
            },
            {
                "start_time": 29.220454545454544,
                "end_time": 29.420454545454543,
                "pitch": 33,
                "velocity": 80,
                "duration": 0.1999999999999993,
                "tempo": 120.0
            },
            {
                "start_time": 29.820454545454545,
                "end_time": 30.02272727272727,
                "pitch": 33,
                "velocity": 80,
                "duration": 0.2022727272727245,
                "tempo": 120.0
            },
            {
                "start_time": 30.02272727272727,
                "end_time": 30.222727272727273,
                "pitch": 33,
                "velocity": 80,
                "duration": 0.20000000000000284,
                "tempo": 120.0
            },
            {
                "start_time": 30.625,
                "end_time": 30.825,
                "pitch": 33,
                "velocity": 80,
                "duration": 0.1999999999999993,
                "tempo": 120.0
            },
            {
                "start_time": 30.825,
                "end_time": 31.025,
                "pitch": 33,
                "velocity": 80,
                "duration": 0.1999999999999993,
                "tempo": 120.0
            },
            {
                "start_time": 31.429545454545455,
                "end_time": 31.527272727272727,
                "pitch": 33,
                "velocity": 80,
                "duration": 0.09772727272727266,
                "tempo": 120.0
            },
            {
                "start_time": 31.529545454545453,
                "end_time": 31.629545454545454,
                "pitch": 45,
                "velocity": 80,
                "duration": 0.10000000000000142,
                "tempo": 120.0
            },
            {
                "start_time": 31.629545454545454,
                "end_time": 31.729545454545452,
                "pitch": 43,
                "velocity": 80,
                "duration": 0.09999999999999787,
                "tempo": 120.0
            },
            {
                "start_time": 31.729545454545452,
                "end_time": 31.829545454545453,
                "pitch": 40,
                "velocity": 80,
                "duration": 0.10000000000000142,
                "tempo": 120.0
            },
            {
                "start_time": 31.829545454545453,
                "end_time": 31.929545454545455,
                "pitch": 38,
                "velocity": 80,
                "duration": 0.10000000000000142,
                "tempo": 120.0
            },
            {
                "start_time": 31.929545454545455,
                "end_time": 32.03181818181818,
                "pitch": 36,
                "velocity": 80,
                "duration": 0.10227272727272663,
                "tempo": 120.0
            },
            {
                "start_time": 32.03181818181818,
                "end_time": 32.13181818181818,
                "pitch": 33,
                "velocity": 80,
                "duration": 0.10000000000000142,
                "tempo": 120.0
            },
            {
                "start_time": 32.13181818181818,
                "end_time": 32.23181818181818,
                "pitch": 31,
                "velocity": 80,
                "duration": 0.09999999999999432,
                "tempo": 120.0
            },
            {
                "start_time": 32.23409090909091,
                "end_time": 32.43181818181818,
                "pitch": 29,
                "velocity": 80,
                "duration": 0.19772727272727053,
                "tempo": 120.0
            },
            {
                "start_time": 32.43181818181818,
                "end_time": 32.63181818181818,
                "pitch": 29,
                "velocity": 80,
                "duration": 0.20000000000000284,
                "tempo": 120.0
            },
            {
                "start_time": 33.03409090909091,
                "end_time": 33.23181818181818,
                "pitch": 29,
                "velocity": 80,
                "duration": 0.19772727272727053,
                "tempo": 120.0
            },
            {
                "start_time": 33.23409090909091,
                "end_time": 33.434090909090905,
                "pitch": 29,
                "velocity": 80,
                "duration": 0.19999999999999574,
                "tempo": 120.0
            },
            {
                "start_time": 33.83863636363636,
                "end_time": 34.043181818181814,
                "pitch": 31,
                "velocity": 80,
                "duration": 0.20454545454545325,
                "tempo": 120.0
            },
            {
                "start_time": 34.043181818181814,
                "end_time": 34.24772727272727,
                "pitch": 31,
                "velocity": 80,
                "duration": 0.20454545454545325,
                "tempo": 120.0
            },
            {
                "start_time": 34.65,
                "end_time": 34.845454545454544,
                "pitch": 31,
                "velocity": 80,
                "duration": 0.19545454545454533,
                "tempo": 120.0
            },
            {
                "start_time": 34.845454545454544,
                "end_time": 35.04090909090909,
                "pitch": 31,
                "velocity": 80,
                "duration": 0.19545454545454533,
                "tempo": 120.0
            },
            {
                "start_time": 35.24772727272727,
                "end_time": 35.35,
                "pitch": 36,
                "velocity": 80,
                "duration": 0.10227272727273373,
                "tempo": 120.0
            },
            {
                "start_time": 35.35,
                "end_time": 35.45454545454545,
                "pitch": 38,
                "velocity": 80,
                "duration": 0.10454545454545183,
                "tempo": 120.0
            },
            {
                "start_time": 35.45454545454545,
                "end_time": 35.652272727272724,
                "pitch": 33,
                "velocity": 80,
                "duration": 0.19772727272727053,
                "tempo": 120.0
            },
            {
                "start_time": 35.654545454545456,
                "end_time": 35.85227272727273,
                "pitch": 33,
                "velocity": 80,
                "duration": 0.19772727272727053,
                "tempo": 120.0
            },
            {
                "start_time": 36.25454545454545,
                "end_time": 36.45454545454545,
                "pitch": 33,
                "velocity": 80,
                "duration": 0.20000000000000284,
                "tempo": 120.0
            },
            {
                "start_time": 36.45454545454545,
                "end_time": 36.654545454545456,
                "pitch": 33,
                "velocity": 80,
                "duration": 0.20000000000000284,
                "tempo": 120.0
            },
            {
                "start_time": 37.05681818181818,
                "end_time": 37.25681818181818,
                "pitch": 33,
                "velocity": 80,
                "duration": 0.20000000000000284,
                "tempo": 120.0
            },
            {
                "start_time": 37.25681818181818,
                "end_time": 37.45681818181818,
                "pitch": 33,
                "velocity": 80,
                "duration": 0.19999999999999574,
                "tempo": 120.0
            },
            {
                "start_time": 37.85909090909091,
                "end_time": 38.059090909090905,
                "pitch": 33,
                "velocity": 80,
                "duration": 0.19999999999999574,
                "tempo": 120.0
            },
            {
                "start_time": 38.059090909090905,
                "end_time": 38.25909090909091,
                "pitch": 33,
                "velocity": 80,
                "duration": 0.20000000000000284,
                "tempo": 120.0
            },
            {
                "start_time": 38.25909090909091,
                "end_time": 38.35909090909091,
                "pitch": 43,
                "velocity": 80,
                "duration": 0.10000000000000142,
                "tempo": 120.0
            },
            {
                "start_time": 38.35909090909091,
                "end_time": 38.45909090909091,
                "pitch": 45,
                "velocity": 80,
                "duration": 0.10000000000000142,
                "tempo": 120.0
            },
            {
                "start_time": 38.45909090909091,
                "end_time": 38.559090909090905,
                "pitch": 40,
                "velocity": 80,
                "duration": 0.09999999999999432,
                "tempo": 120.0
            },
            {
                "start_time": 38.56136363636364,
                "end_time": 38.66136363636363,
                "pitch": 43,
                "velocity": 80,
                "duration": 0.09999999999999432,
                "tempo": 120.0
            },
            {
                "start_time": 38.66136363636363,
                "end_time": 38.85909090909091,
                "pitch": 29,
                "velocity": 80,
                "duration": 0.19772727272727764,
                "tempo": 120.0
            },
            {
                "start_time": 38.861363636363635,
                "end_time": 39.059090909090905,
                "pitch": 29,
                "velocity": 80,
                "duration": 0.19772727272727053,
                "tempo": 120.0
            },
            {
                "start_time": 39.46363636363636,
                "end_time": 39.663636363636364,
                "pitch": 29,
                "velocity": 80,
                "duration": 0.20000000000000284,
                "tempo": 120.0
            },
            {
                "start_time": 39.663636363636364,
                "end_time": 39.86363636363636,
                "pitch": 29,
                "velocity": 80,
                "duration": 0.19999999999999574,
                "tempo": 120.0
            },
            {
                "start_time": 40.26590909090909,
                "end_time": 40.46363636363636,
                "pitch": 39,
                "velocity": 80,
                "duration": 0.19772727272727053,
                "tempo": 120.0
            },
            {
                "start_time": 40.465909090909086,
                "end_time": 40.66590909090909,
                "pitch": 39,
                "velocity": 80,
                "duration": 0.20000000000000284,
                "tempo": 120.0
            },
            {
                "start_time": 41.06590909090909,
                "end_time": 41.26590909090909,
                "pitch": 39,
                "velocity": 80,
                "duration": 0.20000000000000284,
                "tempo": 120.0
            },
            {
                "start_time": 41.268181818181816,
                "end_time": 41.46818181818182,
                "pitch": 39,
                "velocity": 80,
                "duration": 0.20000000000000284,
                "tempo": 120.0
            },
            {
                "start_time": 41.88181818181818,
                "end_time": 42.07954545454545,
                "pitch": 38,
                "velocity": 80,
                "duration": 0.19772727272727053,
                "tempo": 120.0
            },
            {
                "start_time": 42.08181818181818,
                "end_time": 42.27954545454545,
                "pitch": 38,
                "velocity": 80,
                "duration": 0.19772727272727053,
                "tempo": 120.0
            },
            {
                "start_time": 42.684090909090905,
                "end_time": 42.88409090909091,
                "pitch": 38,
                "velocity": 80,
                "duration": 0.20000000000000284,
                "tempo": 120.0
            },
            {
                "start_time": 42.88409090909091,
                "end_time": 43.084090909090904,
                "pitch": 38,
                "velocity": 80,
                "duration": 0.19999999999999574,
                "tempo": 120.0
            },
            {
                "start_time": 43.486363636363635,
                "end_time": 43.684090909090905,
                "pitch": 31,
                "velocity": 80,
                "duration": 0.19772727272727053,
                "tempo": 120.0
            },
            {
                "start_time": 43.68636363636364,
                "end_time": 43.88636363636363,
                "pitch": 31,
                "velocity": 80,
                "duration": 0.19999999999999574,
                "tempo": 120.0
            },
            {
                "start_time": 44.28636363636363,
                "end_time": 44.48863636363636,
                "pitch": 36,
                "velocity": 80,
                "duration": 0.20227272727272805,
                "tempo": 120.0
            },
            {
                "start_time": 44.48863636363636,
                "end_time": 44.68863636363636,
                "pitch": 36,
                "velocity": 80,
                "duration": 0.20000000000000284,
                "tempo": 120.0
            },
            {
                "start_time": 45.090909090909086,
                "end_time": 45.288636363636364,
                "pitch": 31,
                "velocity": 80,
                "duration": 0.19772727272727764,
                "tempo": 120.0
            },
            {
                "start_time": 45.29090909090909,
                "end_time": 45.49090909090909,
                "pitch": 31,
                "velocity": 80,
                "duration": 0.20000000000000284,
                "tempo": 120.0
            },
            {
                "start_time": 45.89090909090909,
                "end_time": 46.090909090909086,
                "pitch": 31,
                "velocity": 80,
                "duration": 0.19999999999999574,
                "tempo": 120.0
            },
            {
                "start_time": 46.090909090909086,
                "end_time": 46.29090909090909,
                "pitch": 31,
                "velocity": 80,
                "duration": 0.20000000000000284,
                "tempo": 120.0
            },
            {
                "start_time": 46.695454545454545,
                "end_time": 46.893181818181816,
                "pitch": 36,
                "velocity": 80,
                "duration": 0.19772727272727053,
                "tempo": 120.0
            },
            {
                "start_time": 46.89545454545454,
                "end_time": 47.095454545454544,
                "pitch": 36,
                "velocity": 80,
                "duration": 0.20000000000000284,
                "tempo": 120.0
            },
            {
                "start_time": 47.49545454545454,
                "end_time": 47.695454545454545,
                "pitch": 36,
                "velocity": 80,
                "duration": 0.20000000000000284,
                "tempo": 120.0
            },
            {
                "start_time": 47.695454545454545,
                "end_time": 47.89545454545454,
                "pitch": 36,
                "velocity": 80,
                "duration": 0.19999999999999574,
                "tempo": 120.0
            },
            {
                "start_time": 48.29772727272727,
                "end_time": 48.49772727272727,
                "pitch": 28,
                "velocity": 80,
                "duration": 0.19999999999999574,
                "tempo": 120.0
            },
            {
                "start_time": 48.49772727272727,
                "end_time": 48.699999999999996,
                "pitch": 28,
                "velocity": 80,
                "duration": 0.20227272727272805,
                "tempo": 120.0
            },
            {
                "start_time": 49.10227272727273,
                "end_time": 49.3,
                "pitch": 28,
                "velocity": 80,
                "duration": 0.19772727272727053,
                "tempo": 120.0
            },
            {
                "start_time": 49.30227272727272,
                "end_time": 49.5,
                "pitch": 28,
                "velocity": 80,
                "duration": 0.19772727272727764,
                "tempo": 120.0
            },
            {
                "start_time": 49.902272727272724,
                "end_time": 50.10681818181818,
                "pitch": 28,
                "velocity": 80,
                "duration": 0.20454545454545325,
                "tempo": 120.0
            },
            {
                "start_time": 50.10681818181818,
                "end_time": 50.31136363636364,
                "pitch": 28,
                "velocity": 80,
                "duration": 0.20454545454546036,
                "tempo": 120.0
            },
            {
                "start_time": 50.71363636363636,
                "end_time": 50.913636363636364,
                "pitch": 28,
                "velocity": 80,
                "duration": 0.20000000000000284,
                "tempo": 120.0
            },
            {
                "start_time": 50.913636363636364,
                "end_time": 51.11363636363636,
                "pitch": 28,
                "velocity": 80,
                "duration": 0.19999999999999574,
                "tempo": 120.0
            }
        ],
        "Trumpet": [
            {
                "start_time": 0.03409090909090909,
                "end_time": 0.1318181818181818,
                "pitch": 60,
                "velocity": 80,
                "duration": 0.09772727272727272,
                "tempo": 120.0
            },
            {
                "start_time": 0.1318181818181818,
                "end_time": 0.2318181818181818,
                "pitch": 60,
                "velocity": 80,
                "duration": 0.1,
                "tempo": 120.0
            },
            {
                "start_time": 0.2318181818181818,
                "end_time": 0.3318181818181818,
                "pitch": 60,
                "velocity": 80,
                "duration": 0.09999999999999998,
                "tempo": 120.0
            },
            {
                "start_time": 0.8454545454545455,
                "end_time": 1.4454545454545453,
                "pitch": 60,
                "velocity": 80,
                "duration": 0.5999999999999999,
                "tempo": 120.0
            },
            {
                "start_time": 1.4454545454545453,
                "end_time": 3.25,
                "pitch": 59,
                "velocity": 80,
                "duration": 1.8045454545454547,
                "tempo": 120.0
            },
            {
                "start_time": 3.25,
                "end_time": 3.3499999999999996,
                "pitch": 60,
                "velocity": 80,
                "duration": 0.09999999999999964,
                "tempo": 120.0
            },
            {
                "start_time": 3.3499999999999996,
                "end_time": 3.4499999999999997,
                "pitch": 60,
                "velocity": 80,
                "duration": 0.10000000000000009,
                "tempo": 120.0
            },
            {
                "start_time": 3.4499999999999997,
                "end_time": 3.55,
                "pitch": 60,
                "velocity": 80,
                "duration": 0.10000000000000009,
                "tempo": 120.0
            },
            {
                "start_time": 4.0613636363636365,
                "end_time": 4.659090909090909,
                "pitch": 60,
                "velocity": 80,
                "duration": 0.5977272727272727,
                "tempo": 120.0
            },
            {
                "start_time": 4.661363636363636,
                "end_time": 5.461363636363636,
                "pitch": 62,
                "velocity": 80,
                "duration": 0.7999999999999998,
                "tempo": 120.0
            },
            {
                "start_time": 5.463636363636363,
                "end_time": 6.472727272727273,
                "pitch": 59,
                "velocity": 80,
                "duration": 1.0090909090909097,
                "tempo": 120.0
            },
            {
                "start_time": 6.475,
                "end_time": 6.572727272727272,
                "pitch": 60,
                "velocity": 80,
                "duration": 0.09772727272727266,
                "tempo": 120.0
            },
            {
                "start_time": 6.574999999999999,
                "end_time": 6.675,
                "pitch": 60,
                "velocity": 80,
                "duration": 0.10000000000000053,
                "tempo": 120.0
            },
            {
                "start_time": 6.675,
                "end_time": 6.7749999999999995,
                "pitch": 60,
                "velocity": 80,
                "duration": 0.09999999999999964,
                "tempo": 120.0
            },
            {
                "start_time": 7.277272727272727,
                "end_time": 7.879545454545454,
                "pitch": 60,
                "velocity": 80,
                "duration": 0.6022727272727266,
                "tempo": 120.0
            },
            {
                "start_time": 7.881818181818182,
                "end_time": 9.69090909090909,
                "pitch": 59,
                "velocity": 80,
                "duration": 1.8090909090909078,
                "tempo": 120.0
            },
            {
                "start_time": 9.69090909090909,
                "end_time": 9.790909090909091,
                "pitch": 60,
                "velocity": 80,
                "duration": 0.10000000000000142,
                "tempo": 120.0
            },
            {
                "start_time": 9.790909090909091,
                "end_time": 9.89090909090909,
                "pitch": 60,
                "velocity": 80,
                "duration": 0.09999999999999964,
                "tempo": 120.0
            },
            {
                "start_time": 9.893181818181818,
                "end_time": 9.993181818181817,
                "pitch": 60,
                "velocity": 80,
                "duration": 0.09999999999999964,
                "tempo": 120.0
            },
            {
                "start_time": 10.495454545454544,
                "end_time": 11.102272727272727,
                "pitch": 60,
                "velocity": 80,
                "duration": 0.6068181818181824,
                "tempo": 120.0
            },
            {
                "start_time": 11.104545454545454,
                "end_time": 11.913636363636362,
                "pitch": 62,
                "velocity": 80,
                "duration": 0.8090909090909086,
                "tempo": 120.0
            },
            {
                "start_time": 11.913636363636362,
                "end_time": 12.918181818181818,
                "pitch": 59,
                "velocity": 80,
                "duration": 1.0045454545454557,
                "tempo": 120.0
            },
            {
                "start_time": 12.920454545454545,
                "end_time": 13.020454545454545,
                "pitch": 60,
                "velocity": 101,
                "duration": 0.09999999999999964,
                "tempo": 120.0
            },
            {
                "start_time": 13.020454545454545,
                "end_time": 13.120454545454544,
                "pitch": 52,
                "velocity": 101,
                "duration": 0.09999999999999964,
                "tempo": 120.0
            },
            {
                "start_time": 13.120454545454544,
                "end_time": 13.220454545454546,
                "pitch": 57,
                "velocity": 101,
                "duration": 0.10000000000000142,
                "tempo": 120.0
            },
            {
                "start_time": 13.222727272727273,
                "end_time": 13.322727272727272,
                "pitch": 59,
                "velocity": 101,
                "duration": 0.09999999999999964,
                "tempo": 120.0
            },
            {
                "start_time": 13.322727272727272,
                "end_time": 13.522727272727272,
                "pitch": 60,
                "velocity": 101,
                "duration": 0.1999999999999993,
                "tempo": 120.0
            },
            {
                "start_time": 13.524999999999999,
                "end_time": 13.927272727272726,
                "pitch": 62,
                "velocity": 101,
                "duration": 0.40227272727272734,
                "tempo": 120.0
            },
            {
                "start_time": 13.927272727272726,
                "end_time": 14.329545454545453,
                "pitch": 60,
                "velocity": 101,
                "duration": 0.40227272727272734,
                "tempo": 120.0
            },
            {
                "start_time": 14.33181818181818,
                "end_time": 14.631818181818181,
                "pitch": 59,
                "velocity": 101,
                "duration": 0.3000000000000007,
                "tempo": 120.0
            },
            {
                "start_time": 14.631818181818181,
                "end_time": 14.73181818181818,
                "pitch": 50,
                "velocity": 101,
                "duration": 0.09999999999999964,
                "tempo": 120.0
            },
            {
                "start_time": 14.73181818181818,
                "end_time": 14.83181818181818,
                "pitch": 55,
                "velocity": 101,
                "duration": 0.09999999999999964,
                "tempo": 120.0
            },
            {
                "start_time": 14.83181818181818,
                "end_time": 14.931818181818182,
                "pitch": 57,
                "velocity": 101,
                "duration": 0.10000000000000142,
                "tempo": 120.0
            },
            {
                "start_time": 14.931818181818182,
                "end_time": 15.134090909090908,
                "pitch": 59,
                "velocity": 101,
                "duration": 0.20227272727272627,
                "tempo": 120.0
            },
            {
                "start_time": 15.134090909090908,
                "end_time": 15.536363636363635,
                "pitch": 60,
                "velocity": 101,
                "duration": 0.40227272727272734,
                "tempo": 120.0
            },
            {
                "start_time": 15.538636363636362,
                "end_time": 15.94090909090909,
                "pitch": 59,
                "velocity": 101,
                "duration": 0.40227272727272734,
                "tempo": 120.0
            },
            {
                "start_time": 15.94090909090909,
                "end_time": 16.14090909090909,
                "pitch": 55,
                "velocity": 101,
                "duration": 0.20000000000000107,
                "tempo": 120.0
            },
            {
                "start_time": 16.143181818181816,
                "end_time": 16.243181818181817,
                "pitch": 60,
                "velocity": 101,
                "duration": 0.10000000000000142,
                "tempo": 120.0
            },
            {
                "start_time": 16.243181818181817,
                "end_time": 16.34318181818182,
                "pitch": 52,
                "velocity": 101,
                "duration": 0.10000000000000142,
                "tempo": 120.0
            },
            {
                "start_time": 16.34318181818182,
                "end_time": 16.443181818181817,
                "pitch": 57,
                "velocity": 101,
                "duration": 0.09999999999999787,
                "tempo": 120.0
            },
            {
                "start_time": 16.445454545454545,
                "end_time": 16.545454545454543,
                "pitch": 59,
                "velocity": 101,
                "duration": 0.09999999999999787,
                "tempo": 120.0
            },
            {
                "start_time": 16.545454545454543,
                "end_time": 16.745454545454546,
                "pitch": 60,
                "velocity": 101,
                "duration": 0.20000000000000284,
                "tempo": 120.0
            },
            {
                "start_time": 16.745454545454546,
                "end_time": 17.147727272727273,
                "pitch": 62,
                "velocity": 101,
                "duration": 0.40227272727272734,
                "tempo": 120.0
            },
            {
                "start_time": 17.147727272727273,
                "end_time": 17.55,
                "pitch": 60,
                "velocity": 101,
                "duration": 0.40227272727272734,
                "tempo": 120.0
            },
            {
                "start_time": 17.55,
                "end_time": 17.849999999999998,
                "pitch": 59,
                "velocity": 101,
                "duration": 0.29999999999999716,
                "tempo": 120.0
            },
            {
                "start_time": 17.849999999999998,
                "end_time": 17.95,
                "pitch": 50,
                "velocity": 101,
                "duration": 0.10000000000000142,
                "tempo": 120.0
            },
            {
                "start_time": 17.95,
                "end_time": 18.05,
                "pitch": 55,
                "velocity": 101,
                "duration": 0.10000000000000142,
                "tempo": 120.0
            },
            {
                "start_time": 18.05,
                "end_time": 18.15,
                "pitch": 57,
                "velocity": 101,
                "duration": 0.09999999999999787,
                "tempo": 120.0
            },
            {
                "start_time": 18.15,
                "end_time": 18.354545454545455,
                "pitch": 59,
                "velocity": 101,
                "duration": 0.2045454545454568,
                "tempo": 120.0
            },
            {
                "start_time": 18.35681818181818,
                "end_time": 18.75681818181818,
                "pitch": 60,
                "velocity": 101,
                "duration": 0.3999999999999986,
                "tempo": 120.0
            },
            {
                "start_time": 18.759090909090908,
                "end_time": 19.159090909090907,
                "pitch": 62,
                "velocity": 101,
                "duration": 0.3999999999999986,
                "tempo": 120.0
            },
            {
                "start_time": 19.159090909090907,
                "end_time": 19.36590909090909,
                "pitch": 64,
                "velocity": 101,
                "duration": 0.206818181818182,
                "tempo": 120.0
            },
            {
                "start_time": 19.36590909090909,
                "end_time": 19.96818181818182,
                "pitch": 60,
                "velocity": 101,
                "duration": 0.6022727272727302,
                "tempo": 120.0
            },
            {
                "start_time": 19.96818181818182,
                "end_time": 20.568181818181817,
                "pitch": 60,
                "velocity": 101,
                "duration": 0.5999999999999979,
                "tempo": 120.0
            },
            {
                "start_time": 20.570454545454545,
                "end_time": 20.670454545454543,
                "pitch": 57,
                "velocity": 101,
                "duration": 0.09999999999999787,
                "tempo": 120.0
            },
            {
                "start_time": 20.670454545454543,
                "end_time": 20.770454545454545,
                "pitch": 59,
                "velocity": 101,
                "duration": 0.10000000000000142,
                "tempo": 120.0
            },
            {
                "start_time": 20.772727272727273,
                "end_time": 20.972727272727273,
                "pitch": 60,
                "velocity": 101,
                "duration": 0.1999999999999993,
                "tempo": 120.0
            },
            {
                "start_time": 20.972727272727273,
                "end_time": 21.575,
                "pitch": 62,
                "velocity": 101,
                "duration": 0.6022727272727266,
                "tempo": 120.0
            },
            {
                "start_time": 21.575,
                "end_time": 22.177272727272726,
                "pitch": 62,
                "velocity": 101,
                "duration": 0.6022727272727266,
                "tempo": 120.0
            },
            {
                "start_time": 22.177272727272726,
                "end_time": 22.277272727272727,
                "pitch": 65,
                "velocity": 101,
                "duration": 0.10000000000000142,
                "tempo": 120.0
            },
            {
                "start_time": 22.277272727272727,
                "end_time": 22.377272727272725,
                "pitch": 64,
                "velocity": 101,
                "duration": 0.09999999999999787,
                "tempo": 120.0
            },
            {
                "start_time": 22.377272727272725,
                "end_time": 22.577272727272724,
                "pitch": 62,
                "velocity": 101,
                "duration": 0.1999999999999993,
                "tempo": 120.0
            },
            {
                "start_time": 22.577272727272724,
                "end_time": 22.979545454545452,
                "pitch": 60,
                "velocity": 101,
                "duration": 0.40227272727272734,
                "tempo": 120.0
            },
            {
                "start_time": 22.98181818181818,
                "end_time": 23.079545454545453,
                "pitch": 59,
                "velocity": 101,
                "duration": 0.09772727272727266,
                "tempo": 120.0
            },
            {
                "start_time": 23.081818181818182,
                "end_time": 23.179545454545455,
                "pitch": 60,
                "velocity": 101,
                "duration": 0.09772727272727266,
                "tempo": 120.0
            },
            {
                "start_time": 23.18181818181818,
                "end_time": 23.581818181818182,
                "pitch": 62,
                "velocity": 101,
                "duration": 0.40000000000000213,
                "tempo": 120.0
            },
            {
                "start_time": 23.584090909090907,
                "end_time": 23.98409090909091,
                "pitch": 59,
                "velocity": 101,
                "duration": 0.40000000000000213,
                "tempo": 120.0
            },
            {
                "start_time": 23.986363636363635,
                "end_time": 24.284090909090907,
                "pitch": 64,
                "velocity": 101,
                "duration": 0.29772727272727195,
                "tempo": 120.0
            },
            {
                "start_time": 24.286363636363635,
                "end_time": 24.384090909090908,
                "pitch": 65,
                "velocity": 101,
                "duration": 0.09772727272727266,
                "tempo": 120.0
            },
            {
                "start_time": 24.386363636363637,
                "end_time": 24.48409090909091,
                "pitch": 64,
                "velocity": 101,
                "duration": 0.09772727272727266,
                "tempo": 120.0
            },
            {
                "start_time": 24.486363636363635,
                "end_time": 24.584090909090907,
                "pitch": 62,
                "velocity": 101,
                "duration": 0.09772727272727266,
                "tempo": 120.0
            },
            {
                "start_time": 24.586363636363636,
                "end_time": 24.786363636363635,
                "pitch": 59,
                "velocity": 101,
                "duration": 0.1999999999999993,
                "tempo": 120.0
            },
            {
                "start_time": 24.786363636363635,
                "end_time": 25.188636363636363,
                "pitch": 60,
                "velocity": 101,
                "duration": 0.40227272727272734,
                "tempo": 120.0
            },
            {
                "start_time": 25.188636363636363,
                "end_time": 25.595454545454544,
                "pitch": 62,
                "velocity": 101,
                "duration": 0.4068181818181813,
                "tempo": 120.0
            },
            {
                "start_time": 25.595454545454544,
                "end_time": 25.799999999999997,
                "pitch": 64,
                "velocity": 101,
                "duration": 0.20454545454545325,
                "tempo": 120.0
            },
            {
                "start_time": 25.802272727272726,
                "end_time": 25.9,
                "pitch": 60,
                "velocity": 101,
                "duration": 0.09772727272727266,
                "tempo": 120.0
            },
            {
                "start_time": 25.902272727272727,
                "end_time": 26.002272727272725,
                "pitch": 52,
                "velocity": 101,
                "duration": 0.09999999999999787,
                "tempo": 120.0
            },
            {
                "start_time": 26.002272727272725,
                "end_time": 26.102272727272727,
                "pitch": 57,
                "velocity": 101,
                "duration": 0.10000000000000142,
                "tempo": 120.0
            },
            {
                "start_time": 26.102272727272727,
                "end_time": 26.202272727272724,
                "pitch": 59,
                "velocity": 101,
                "duration": 0.09999999999999787,
                "tempo": 120.0
            },
            {
                "start_time": 26.204545454545453,
                "end_time": 26.4,
                "pitch": 60,
                "velocity": 101,
                "duration": 0.19545454545454533,
                "tempo": 120.0
            },
            {
                "start_time": 26.4,
                "end_time": 26.797727272727272,
                "pitch": 62,
                "velocity": 101,
                "duration": 0.3977272727272734,
                "tempo": 120.0
            },
            {
                "start_time": 26.797727272727272,
                "end_time": 27.204545454545453,
                "pitch": 60,
                "velocity": 101,
                "duration": 0.4068181818181813,
                "tempo": 120.0
            },
            {
                "start_time": 27.206818181818182,
                "end_time": 27.511363636363637,
                "pitch": 59,
                "velocity": 101,
                "duration": 0.3045454545454547,
                "tempo": 120.0
            },
            {
                "start_time": 27.511363636363637,
                "end_time": 27.611363636363635,
                "pitch": 50,
                "velocity": 101,
                "duration": 0.09999999999999787,
                "tempo": 120.0
            },
            {
                "start_time": 27.611363636363635,
                "end_time": 27.711363636363636,
                "pitch": 55,
                "velocity": 101,
                "duration": 0.10000000000000142,
                "tempo": 120.0
            },
            {
                "start_time": 27.711363636363636,
                "end_time": 27.811363636363634,
                "pitch": 57,
                "velocity": 101,
                "duration": 0.09999999999999787,
                "tempo": 120.0
            },
            {
                "start_time": 27.811363636363634,
                "end_time": 28.013636363636362,
                "pitch": 59,
                "velocity": 101,
                "duration": 0.20227272727272805,
                "tempo": 120.0
            },
            {
                "start_time": 28.013636363636362,
                "end_time": 28.41590909090909,
                "pitch": 60,
                "velocity": 101,
                "duration": 0.40227272727272734,
                "tempo": 120.0
            },
            {
                "start_time": 28.41590909090909,
                "end_time": 28.815909090909088,
                "pitch": 59,
                "velocity": 101,
                "duration": 0.3999999999999986,
                "tempo": 120.0
            },
            {
                "start_time": 28.815909090909088,
                "end_time": 29.01590909090909,
                "pitch": 55,
                "velocity": 101,
                "duration": 0.20000000000000284,
                "tempo": 120.0
            },
            {
                "start_time": 29.01590909090909,
                "end_time": 29.11590909090909,
                "pitch": 60,
                "velocity": 101,
                "duration": 0.09999999999999787,
                "tempo": 120.0
            },
            {
                "start_time": 29.118181818181817,
                "end_time": 29.21590909090909,
                "pitch": 52,
                "velocity": 101,
                "duration": 0.09772727272727266,
                "tempo": 120.0
            },
            {
                "start_time": 29.218181818181815,
                "end_time": 29.318181818181817,
                "pitch": 57,
                "velocity": 101,
                "duration": 0.10000000000000142,
                "tempo": 120.0
            },
            {
                "start_time": 29.318181818181817,
                "end_time": 29.418181818181818,
                "pitch": 59,
                "velocity": 101,
                "duration": 0.10000000000000142,
                "tempo": 120.0
            },
            {
                "start_time": 29.420454545454543,
                "end_time": 29.618181818181817,
                "pitch": 60,
                "velocity": 101,
                "duration": 0.19772727272727408,
                "tempo": 120.0
            },
            {
                "start_time": 29.620454545454542,
                "end_time": 30.020454545454545,
                "pitch": 62,
                "velocity": 101,
                "duration": 0.40000000000000213,
                "tempo": 120.0
            },
            {
                "start_time": 30.020454545454545,
                "end_time": 30.422727272727272,
                "pitch": 60,
                "velocity": 101,
                "duration": 0.40227272727272734,
                "tempo": 120.0
            },
            {
                "start_time": 30.422727272727272,
                "end_time": 30.722727272727273,
                "pitch": 59,
                "velocity": 101,
                "duration": 0.3000000000000007,
                "tempo": 120.0
            },
            {
                "start_time": 30.722727272727273,
                "end_time": 30.82272727272727,
                "pitch": 50,
                "velocity": 101,
                "duration": 0.09999999999999787,
                "tempo": 120.0
            },
            {
                "start_time": 30.825,
                "end_time": 30.922727272727272,
                "pitch": 55,
                "velocity": 101,
                "duration": 0.09772727272727266,
                "tempo": 120.0
            },
            {
                "start_time": 30.924999999999997,
                "end_time": 31.02272727272727,
                "pitch": 57,
                "velocity": 101,
                "duration": 0.09772727272727266,
                "tempo": 120.0
            },
            {
                "start_time": 31.025,
                "end_time": 31.224999999999998,
                "pitch": 59,
                "velocity": 101,
                "duration": 0.1999999999999993,
                "tempo": 120.0
            },
            {
                "start_time": 31.224999999999998,
                "end_time": 31.627272727272725,
                "pitch": 60,
                "velocity": 101,
                "duration": 0.40227272727272734,
                "tempo": 120.0
            },
            {
                "start_time": 31.627272727272725,
                "end_time": 32.029545454545456,
                "pitch": 62,
                "velocity": 101,
                "duration": 0.4022727272727309,
                "tempo": 120.0
            },
            {
                "start_time": 32.029545454545456,
                "end_time": 32.22954545454545,
                "pitch": 64,
                "velocity": 101,
                "duration": 0.19999999999999574,
                "tempo": 120.0
            },
            {
                "start_time": 32.23181818181818,
                "end_time": 32.83181818181818,
                "pitch": 60,
                "velocity": 101,
                "duration": 0.6000000000000014,
                "tempo": 120.0
            },
            {
                "start_time": 32.83181818181818,
                "end_time": 33.43181818181818,
                "pitch": 60,
                "velocity": 101,
                "duration": 0.6000000000000014,
                "tempo": 120.0
            },
            {
                "start_time": 33.43181818181818,
                "end_time": 33.53181818181818,
                "pitch": 57,
                "velocity": 101,
                "duration": 0.10000000000000142,
                "tempo": 120.0
            },
            {
                "start_time": 33.53409090909091,
                "end_time": 33.63409090909091,
                "pitch": 59,
                "velocity": 101,
                "duration": 0.10000000000000142,
                "tempo": 120.0
            },
            {
                "start_time": 33.63409090909091,
                "end_time": 33.836363636363636,
                "pitch": 60,
                "velocity": 101,
                "duration": 0.20227272727272805,
                "tempo": 120.0
            },
            {
                "start_time": 33.836363636363636,
                "end_time": 34.44772727272727,
                "pitch": 62,
                "velocity": 101,
                "duration": 0.6113636363636346,
                "tempo": 120.0
            },
            {
                "start_time": 34.44772727272727,
                "end_time": 35.04090909090909,
                "pitch": 62,
                "velocity": 101,
                "duration": 0.5931818181818187,
                "tempo": 120.0
            },
            {
                "start_time": 35.04090909090909,
                "end_time": 35.143181818181816,
                "pitch": 65,
                "velocity": 101,
                "duration": 0.10227272727272663,
                "tempo": 120.0
            },
            {
                "start_time": 35.143181818181816,
                "end_time": 35.24545454545454,
                "pitch": 64,
                "velocity": 101,
                "duration": 0.10227272727272663,
                "tempo": 120.0
            },
            {
                "start_time": 35.24545454545454,
                "end_time": 35.45227272727273,
                "pitch": 62,
                "velocity": 101,
                "duration": 0.20681818181818556,
                "tempo": 120.0
            },
            {
                "start_time": 35.45227272727273,
                "end_time": 35.55227272727272,
                "pitch": 60,
                "velocity": 101,
                "duration": 0.09999999999999432,
                "tempo": 120.0
            },
            {
                "start_time": 35.55227272727272,
                "end_time": 35.652272727272724,
                "pitch": 59,
                "velocity": 101,
                "duration": 0.10000000000000142,
                "tempo": 120.0
            },
            {
                "start_time": 35.652272727272724,
                "end_time": 38.65909090909091,
                "pitch": 57,
                "velocity": 101,
                "duration": 3.0068181818181827,
                "tempo": 120.0
            },
            {
                "start_time": 38.65909090909091,
                "end_time": 39.861363636363635,
                "pitch": 60,
                "velocity": 101,
                "duration": 1.202272727272728,
                "tempo": 120.0
            },
            {
                "start_time": 40.06363636363636,
                "end_time": 40.163636363636364,
                "pitch": 65,
                "velocity": 101,
                "duration": 0.10000000000000142,
                "tempo": 120.0
            },
            {
                "start_time": 40.163636363636364,
                "end_time": 40.26363636363636,
                "pitch": 67,
                "velocity": 101,
                "duration": 0.09999999999999432,
                "tempo": 120.0
            },
            {
                "start_time": 40.26363636363636,
                "end_time": 40.663636363636364,
                "pitch": 70,
                "velocity": 101,
                "duration": 0.4000000000000057,
                "tempo": 120.0
            },
            {
                "start_time": 40.663636363636364,
                "end_time": 41.06363636363636,
                "pitch": 69,
                "velocity": 101,
                "duration": 0.3999999999999986,
                "tempo": 120.0
            },
            {
                "start_time": 41.06363636363636,
                "end_time": 41.46818181818182,
                "pitch": 67,
                "velocity": 101,
                "duration": 0.4045454545454561,
                "tempo": 120.0
            },
            {
                "start_time": 41.46818181818182,
                "end_time": 41.87954545454545,
                "pitch": 69,
                "velocity": 101,
                "duration": 0.4113636363636317,
                "tempo": 120.0
            },
            {
                "start_time": 41.87954545454545,
                "end_time": 43.48409090909091,
                "pitch": 65,
                "velocity": 101,
                "duration": 1.604545454545459,
                "tempo": 120.0
            },
            {
                "start_time": 43.48409090909091,
                "end_time": 43.88409090909091,
                "pitch": 67,
                "velocity": 101,
                "duration": 0.3999999999999986,
                "tempo": 120.0
            },
            {
                "start_time": 43.88409090909091,
                "end_time": 44.28409090909091,
                "pitch": 69,
                "velocity": 101,
                "duration": 0.3999999999999986,
                "tempo": 120.0
            },
            {
                "start_time": 44.28409090909091,
                "end_time": 44.68863636363636,
                "pitch": 67,
                "velocity": 101,
                "duration": 0.4045454545454561,
                "tempo": 120.0
            },
            {
                "start_time": 44.68863636363636,
                "end_time": 45.08863636363636,
                "pitch": 64,
                "velocity": 101,
                "duration": 0.3999999999999986,
                "tempo": 120.0
            },
            {
                "start_time": 45.08863636363636,
                "end_time": 46.288636363636364,
                "pitch": 65,
                "velocity": 101,
                "duration": 1.2000000000000028,
                "tempo": 120.0
            },
            {
                "start_time": 46.49318181818182,
                "end_time": 46.59318181818182,
                "pitch": 67,
                "velocity": 101,
                "duration": 0.10000000000000142,
                "tempo": 120.0
            },
            {
                "start_time": 46.59318181818182,
                "end_time": 46.69318181818181,
                "pitch": 69,
                "velocity": 101,
                "duration": 0.09999999999999432,
                "tempo": 120.0
            },
            {
                "start_time": 46.69318181818181,
                "end_time": 47.09318181818182,
                "pitch": 67,
                "velocity": 101,
                "duration": 0.4000000000000057,
                "tempo": 120.0
            },
            {
                "start_time": 47.09318181818182,
                "end_time": 47.49318181818182,
                "pitch": 65,
                "velocity": 101,
                "duration": 0.3999999999999986,
                "tempo": 120.0
            },
            {
                "start_time": 47.49545454545454,
                "end_time": 47.89545454545454,
                "pitch": 64,
                "velocity": 101,
                "duration": 0.3999999999999986,
                "tempo": 120.0
            },
            {
                "start_time": 47.89545454545454,
                "end_time": 48.29545454545454,
                "pitch": 67,
                "velocity": 101,
                "duration": 0.3999999999999986,
                "tempo": 120.0
            },
            {
                "start_time": 48.29545454545454,
                "end_time": 49.09772727272727,
                "pitch": 64,
                "velocity": 101,
                "duration": 0.8022727272727295,
                "tempo": 120.0
            },
            {
                "start_time": 49.099999999999994,
                "end_time": 49.4,
                "pitch": 68,
                "velocity": 101,
                "duration": 0.30000000000000426,
                "tempo": 120.0
            },
            {
                "start_time": 49.4,
                "end_time": 49.599999999999994,
                "pitch": 71,
                "velocity": 101,
                "duration": 0.19999999999999574,
                "tempo": 120.0
            },
            {
                "start_time": 49.599999999999994,
                "end_time": 49.9,
                "pitch": 73,
                "velocity": 101,
                "duration": 0.30000000000000426,
                "tempo": 120.0
            },
            {
                "start_time": 49.9,
                "end_time": 51.51136363636363,
                "pitch": 76,
                "velocity": 101,
                "duration": 1.6113636363636346,
                "tempo": 120.0
            },
            {
                "start_time": 51.518181818181816,
                "end_time": 51.52045454545454,
                "pitch": 60,
                "velocity": 80,
                "duration": 0.0022727272727252057,
                "tempo": 120.0
            }
        ],
        "Harpsichord": [
            {
                "start_time": 12.922727272727272,
                "end_time": 13.120454545454544,
                "pitch": 48,
                "velocity": 51,
                "duration": 0.1977272727272723,
                "tempo": 120.0
            },
            {
                "start_time": 13.122727272727271,
                "end_time": 13.222727272727273,
                "pitch": 48,
                "velocity": 51,
                "duration": 0.10000000000000142,
                "tempo": 120.0
            },
            {
                "start_time": 13.222727272727273,
                "end_time": 13.322727272727272,
                "pitch": 48,
                "velocity": 51,
                "duration": 0.09999999999999964,
                "tempo": 120.0
            },
            {
                "start_time": 13.322727272727272,
                "end_time": 13.524999999999999,
                "pitch": 48,
                "velocity": 51,
                "duration": 0.20227272727272627,
                "tempo": 120.0
            },
            {
                "start_time": 13.524999999999999,
                "end_time": 13.625,
                "pitch": 48,
                "velocity": 51,
                "duration": 0.10000000000000142,
                "tempo": 120.0
            },
            {
                "start_time": 13.625,
                "end_time": 13.725,
                "pitch": 48,
                "velocity": 51,
                "duration": 0.09999999999999964,
                "tempo": 120.0
            },
            {
                "start_time": 13.727272727272727,
                "end_time": 13.927272727272726,
                "pitch": 48,
                "velocity": 51,
                "duration": 0.1999999999999993,
                "tempo": 120.0
            },
            {
                "start_time": 13.929545454545455,
                "end_time": 14.027272727272727,
                "pitch": 48,
                "velocity": 51,
                "duration": 0.09772727272727266,
                "tempo": 120.0
            },
            {
                "start_time": 14.029545454545454,
                "end_time": 14.129545454545454,
                "pitch": 48,
                "velocity": 51,
                "duration": 0.09999999999999964,
                "tempo": 120.0
            },
            {
                "start_time": 14.129545454545454,
                "end_time": 14.33181818181818,
                "pitch": 48,
                "velocity": 51,
                "duration": 0.20227272727272627,
                "tempo": 120.0
            },
            {
                "start_time": 14.33181818181818,
                "end_time": 14.431818181818182,
                "pitch": 47,
                "velocity": 51,
                "duration": 0.10000000000000142,
                "tempo": 120.0
            },
            {
                "start_time": 14.431818181818182,
                "end_time": 14.531818181818181,
                "pitch": 47,
                "velocity": 51,
                "duration": 0.09999999999999964,
                "tempo": 120.0
            },
            {
                "start_time": 14.534090909090908,
                "end_time": 14.73181818181818,
                "pitch": 47,
                "velocity": 51,
                "duration": 0.1977272727272723,
                "tempo": 120.0
            },
            {
                "start_time": 14.734090909090908,
                "end_time": 14.83181818181818,
                "pitch": 47,
                "velocity": 51,
                "duration": 0.09772727272727266,
                "tempo": 120.0
            },
            {
                "start_time": 14.834090909090909,
                "end_time": 14.934090909090909,
                "pitch": 47,
                "velocity": 51,
                "duration": 0.09999999999999964,
                "tempo": 120.0
            },
            {
                "start_time": 14.934090909090909,
                "end_time": 15.134090909090908,
                "pitch": 47,
                "velocity": 51,
                "duration": 0.1999999999999993,
                "tempo": 120.0
            },
            {
                "start_time": 15.136363636363635,
                "end_time": 15.234090909090908,
                "pitch": 47,
                "velocity": 51,
                "duration": 0.09772727272727266,
                "tempo": 120.0
            },
            {
                "start_time": 15.236363636363636,
                "end_time": 15.336363636363636,
                "pitch": 47,
                "velocity": 51,
                "duration": 0.09999999999999964,
                "tempo": 120.0
            },
            {
                "start_time": 15.336363636363636,
                "end_time": 15.538636363636362,
                "pitch": 47,
                "velocity": 51,
                "duration": 0.20227272727272627,
                "tempo": 120.0
            },
            {
                "start_time": 15.538636363636362,
                "end_time": 15.638636363636364,
                "pitch": 47,
                "velocity": 51,
                "duration": 0.10000000000000142,
                "tempo": 120.0
            },
            {
                "start_time": 15.638636363636364,
                "end_time": 15.738636363636363,
                "pitch": 47,
                "velocity": 51,
                "duration": 0.09999999999999964,
                "tempo": 120.0
            },
            {
                "start_time": 15.74090909090909,
                "end_time": 15.94090909090909,
                "pitch": 47,
                "velocity": 51,
                "duration": 0.1999999999999993,
                "tempo": 120.0
            },
            {
                "start_time": 15.943181818181817,
                "end_time": 16.04090909090909,
                "pitch": 47,
                "velocity": 51,
                "duration": 0.09772727272727266,
                "tempo": 120.0
            },
            {
                "start_time": 16.043181818181818,
                "end_time": 16.143181818181816,
                "pitch": 47,
                "velocity": 51,
                "duration": 0.09999999999999787,
                "tempo": 120.0
            },
            {
                "start_time": 16.143181818181816,
                "end_time": 16.34318181818182,
                "pitch": 48,
                "velocity": 51,
                "duration": 0.20000000000000284,
                "tempo": 120.0
            },
            {
                "start_time": 16.345454545454544,
                "end_time": 16.445454545454545,
                "pitch": 48,
                "velocity": 51,
                "duration": 0.10000000000000142,
                "tempo": 120.0
            },
            {
                "start_time": 16.445454545454545,
                "end_time": 16.545454545454543,
                "pitch": 48,
                "velocity": 51,
                "duration": 0.09999999999999787,
                "tempo": 120.0
            },
            {
                "start_time": 16.547727272727272,
                "end_time": 16.745454545454546,
                "pitch": 48,
                "velocity": 51,
                "duration": 0.19772727272727408,
                "tempo": 120.0
            },
            {
                "start_time": 16.74772727272727,
                "end_time": 16.845454545454544,
                "pitch": 48,
                "velocity": 51,
                "duration": 0.09772727272727266,
                "tempo": 120.0
            },
            {
                "start_time": 16.845454545454544,
                "end_time": 16.945454545454545,
                "pitch": 48,
                "velocity": 51,
                "duration": 0.10000000000000142,
                "tempo": 120.0
            },
            {
                "start_time": 16.94772727272727,
                "end_time": 17.147727272727273,
                "pitch": 48,
                "velocity": 51,
                "duration": 0.20000000000000284,
                "tempo": 120.0
            },
            {
                "start_time": 17.147727272727273,
                "end_time": 17.24772727272727,
                "pitch": 48,
                "velocity": 51,
                "duration": 0.09999999999999787,
                "tempo": 120.0
            },
            {
                "start_time": 17.25,
                "end_time": 17.349999999999998,
                "pitch": 48,
                "velocity": 51,
                "duration": 0.09999999999999787,
                "tempo": 120.0
            },
            {
                "start_time": 17.349999999999998,
                "end_time": 17.55,
                "pitch": 48,
                "velocity": 51,
                "duration": 0.20000000000000284,
                "tempo": 120.0
            },
            {
                "start_time": 17.55,
                "end_time": 17.65,
                "pitch": 50,
                "velocity": 51,
                "duration": 0.09999999999999787,
                "tempo": 120.0
            },
            {
                "start_time": 17.65,
                "end_time": 17.75,
                "pitch": 50,
                "velocity": 51,
                "duration": 0.10000000000000142,
                "tempo": 120.0
            },
            {
                "start_time": 17.75,
                "end_time": 17.95,
                "pitch": 50,
                "velocity": 51,
                "duration": 0.1999999999999993,
                "tempo": 120.0
            },
            {
                "start_time": 17.95,
                "end_time": 18.05,
                "pitch": 50,
                "velocity": 51,
                "duration": 0.10000000000000142,
                "tempo": 120.0
            },
            {
                "start_time": 18.052272727272726,
                "end_time": 18.15,
                "pitch": 50,
                "velocity": 51,
                "duration": 0.09772727272727266,
                "tempo": 120.0
            },
            {
                "start_time": 18.152272727272727,
                "end_time": 18.35681818181818,
                "pitch": 50,
                "velocity": 51,
                "duration": 0.20454545454545325,
                "tempo": 120.0
            },
            {
                "start_time": 18.35681818181818,
                "end_time": 18.459090909090907,
                "pitch": 47,
                "velocity": 51,
                "duration": 0.10227272727272663,
                "tempo": 120.0
            },
            {
                "start_time": 18.459090909090907,
                "end_time": 18.561363636363634,
                "pitch": 47,
                "velocity": 51,
                "duration": 0.10227272727272663,
                "tempo": 120.0
            },
            {
                "start_time": 18.561363636363634,
                "end_time": 18.759090909090908,
                "pitch": 47,
                "velocity": 51,
                "duration": 0.19772727272727408,
                "tempo": 120.0
            },
            {
                "start_time": 18.759090909090908,
                "end_time": 18.85681818181818,
                "pitch": 47,
                "velocity": 51,
                "duration": 0.09772727272727266,
                "tempo": 120.0
            },
            {
                "start_time": 18.85681818181818,
                "end_time": 18.954545454545453,
                "pitch": 47,
                "velocity": 51,
                "duration": 0.09772727272727266,
                "tempo": 120.0
            },
            {
                "start_time": 18.954545454545453,
                "end_time": 19.159090909090907,
                "pitch": 47,
                "velocity": 51,
                "duration": 0.20454545454545325,
                "tempo": 120.0
            },
            {
                "start_time": 19.161363636363635,
                "end_time": 19.263636363636362,
                "pitch": 47,
                "velocity": 51,
                "duration": 0.10227272727272663,
                "tempo": 120.0
            },
            {
                "start_time": 19.263636363636362,
                "end_time": 19.36590909090909,
                "pitch": 47,
                "velocity": 51,
                "duration": 0.10227272727272663,
                "tempo": 120.0
            },
            {
                "start_time": 19.36590909090909,
                "end_time": 19.56590909090909,
                "pitch": 45,
                "velocity": 51,
                "duration": 0.20000000000000284,
                "tempo": 120.0
            },
            {
                "start_time": 19.568181818181817,
                "end_time": 19.668181818181818,
                "pitch": 45,
                "velocity": 51,
                "duration": 0.10000000000000142,
                "tempo": 120.0
            },
            {
                "start_time": 19.668181818181818,
                "end_time": 19.768181818181816,
                "pitch": 45,
                "velocity": 51,
                "duration": 0.09999999999999787,
                "tempo": 120.0
            },
            {
                "start_time": 19.768181818181816,
                "end_time": 19.96818181818182,
                "pitch": 45,
                "velocity": 51,
                "duration": 0.20000000000000284,
                "tempo": 120.0
            },
            {
                "start_time": 19.970454545454544,
                "end_time": 20.068181818181817,
                "pitch": 45,
                "velocity": 51,
                "duration": 0.09772727272727266,
                "tempo": 120.0
            },
            {
                "start_time": 20.070454545454545,
                "end_time": 20.168181818181818,
                "pitch": 45,
                "velocity": 51,
                "duration": 0.09772727272727266,
                "tempo": 120.0
            },
            {
                "start_time": 20.170454545454543,
                "end_time": 20.368181818181817,
                "pitch": 45,
                "velocity": 51,
                "duration": 0.19772727272727408,
                "tempo": 120.0
            },
            {
                "start_time": 20.370454545454546,
                "end_time": 20.470454545454544,
                "pitch": 45,
                "velocity": 51,
                "duration": 0.09999999999999787,
                "tempo": 120.0
            },
            {
                "start_time": 20.470454545454544,
                "end_time": 20.570454545454545,
                "pitch": 45,
                "velocity": 51,
                "duration": 0.10000000000000142,
                "tempo": 120.0
            },
            {
                "start_time": 20.570454545454545,
                "end_time": 20.772727272727273,
                "pitch": 45,
                "velocity": 51,
                "duration": 0.20227272727272805,
                "tempo": 120.0
            },
            {
                "start_time": 20.772727272727273,
                "end_time": 20.87272727272727,
                "pitch": 45,
                "velocity": 51,
                "duration": 0.09999999999999787,
                "tempo": 120.0
            },
            {
                "start_time": 20.87272727272727,
                "end_time": 20.972727272727273,
                "pitch": 45,
                "velocity": 51,
                "duration": 0.10000000000000142,
                "tempo": 120.0
            },
            {
                "start_time": 20.974999999999998,
                "end_time": 21.172727272727272,
                "pitch": 47,
                "velocity": 51,
                "duration": 0.19772727272727408,
                "tempo": 120.0
            },
            {
                "start_time": 21.172727272727272,
                "end_time": 21.272727272727273,
                "pitch": 47,
                "velocity": 51,
                "duration": 0.10000000000000142,
                "tempo": 120.0
            },
            {
                "start_time": 21.272727272727273,
                "end_time": 21.37272727272727,
                "pitch": 47,
                "velocity": 51,
                "duration": 0.09999999999999787,
                "tempo": 120.0
            },
            {
                "start_time": 21.375,
                "end_time": 21.575,
                "pitch": 47,
                "velocity": 51,
                "duration": 0.1999999999999993,
                "tempo": 120.0
            },
            {
                "start_time": 21.575,
                "end_time": 21.675,
                "pitch": 47,
                "velocity": 51,
                "duration": 0.10000000000000142,
                "tempo": 120.0
            },
            {
                "start_time": 21.677272727272726,
                "end_time": 21.777272727272727,
                "pitch": 47,
                "velocity": 51,
                "duration": 0.10000000000000142,
                "tempo": 120.0
            },
            {
                "start_time": 21.777272727272727,
                "end_time": 21.977272727272727,
                "pitch": 47,
                "velocity": 51,
                "duration": 0.1999999999999993,
                "tempo": 120.0
            },
            {
                "start_time": 21.977272727272727,
                "end_time": 22.077272727272724,
                "pitch": 47,
                "velocity": 51,
                "duration": 0.09999999999999787,
                "tempo": 120.0
            },
            {
                "start_time": 22.077272727272724,
                "end_time": 22.177272727272726,
                "pitch": 47,
                "velocity": 51,
                "duration": 0.10000000000000142,
                "tempo": 120.0
            },
            {
                "start_time": 22.179545454545455,
                "end_time": 22.377272727272725,
                "pitch": 47,
                "velocity": 51,
                "duration": 0.19772727272727053,
                "tempo": 120.0
            },
            {
                "start_time": 22.379545454545454,
                "end_time": 22.477272727272727,
                "pitch": 47,
                "velocity": 51,
                "duration": 0.09772727272727266,
                "tempo": 120.0
            },
            {
                "start_time": 22.479545454545452,
                "end_time": 22.577272727272724,
                "pitch": 47,
                "velocity": 51,
                "duration": 0.09772727272727266,
                "tempo": 120.0
            },
            {
                "start_time": 22.579545454545453,
                "end_time": 22.779545454545453,
                "pitch": 48,
                "velocity": 51,
                "duration": 0.1999999999999993,
                "tempo": 120.0
            },
            {
                "start_time": 22.779545454545453,
                "end_time": 22.879545454545454,
                "pitch": 48,
                "velocity": 51,
                "duration": 0.10000000000000142,
                "tempo": 120.0
            },
            {
                "start_time": 22.879545454545454,
                "end_time": 22.98181818181818,
                "pitch": 48,
                "velocity": 51,
                "duration": 0.10227272727272663,
                "tempo": 120.0
            },
            {
                "start_time": 22.98181818181818,
                "end_time": 23.18181818181818,
                "pitch": 48,
                "velocity": 51,
                "duration": 0.1999999999999993,
                "tempo": 120.0
            },
            {
                "start_time": 23.18181818181818,
                "end_time": 23.28181818181818,
                "pitch": 48,
                "velocity": 51,
                "duration": 0.10000000000000142,
                "tempo": 120.0
            },
            {
                "start_time": 23.28181818181818,
                "end_time": 23.38181818181818,
                "pitch": 48,
                "velocity": 51,
                "duration": 0.09999999999999787,
                "tempo": 120.0
            },
            {
                "start_time": 23.38181818181818,
                "end_time": 23.584090909090907,
                "pitch": 48,
                "velocity": 51,
                "duration": 0.20227272727272805,
                "tempo": 120.0
            },
            {
                "start_time": 23.584090909090907,
                "end_time": 23.68409090909091,
                "pitch": 48,
                "velocity": 51,
                "duration": 0.10000000000000142,
                "tempo": 120.0
            },
            {
                "start_time": 23.68409090909091,
                "end_time": 23.784090909090907,
                "pitch": 48,
                "velocity": 51,
                "duration": 0.09999999999999787,
                "tempo": 120.0
            },
            {
                "start_time": 23.784090909090907,
                "end_time": 23.986363636363635,
                "pitch": 48,
                "velocity": 51,
                "duration": 0.20227272727272805,
                "tempo": 120.0
            },
            {
                "start_time": 23.986363636363635,
                "end_time": 24.084090909090907,
                "pitch": 48,
                "velocity": 51,
                "duration": 0.09772727272727266,
                "tempo": 120.0
            },
            {
                "start_time": 24.086363636363636,
                "end_time": 24.186363636363634,
                "pitch": 48,
                "velocity": 51,
                "duration": 0.09999999999999787,
                "tempo": 120.0
            },
            {
                "start_time": 24.186363636363634,
                "end_time": 24.386363636363637,
                "pitch": 50,
                "velocity": 51,
                "duration": 0.20000000000000284,
                "tempo": 120.0
            },
            {
                "start_time": 24.386363636363637,
                "end_time": 24.486363636363635,
                "pitch": 50,
                "velocity": 51,
                "duration": 0.09999999999999787,
                "tempo": 120.0
            },
            {
                "start_time": 24.486363636363635,
                "end_time": 24.586363636363636,
                "pitch": 50,
                "velocity": 51,
                "duration": 0.10000000000000142,
                "tempo": 120.0
            },
            {
                "start_time": 24.586363636363636,
                "end_time": 24.788636363636364,
                "pitch": 50,
                "velocity": 51,
                "duration": 0.20227272727272805,
                "tempo": 120.0
            },
            {
                "start_time": 24.788636363636364,
                "end_time": 24.888636363636362,
                "pitch": 50,
                "velocity": 51,
                "duration": 0.09999999999999787,
                "tempo": 120.0
            },
            {
                "start_time": 24.888636363636362,
                "end_time": 24.988636363636363,
                "pitch": 50,
                "velocity": 51,
                "duration": 0.10000000000000142,
                "tempo": 120.0
            },
            {
                "start_time": 24.988636363636363,
                "end_time": 25.188636363636363,
                "pitch": 50,
                "velocity": 51,
                "duration": 0.1999999999999993,
                "tempo": 120.0
            },
            {
                "start_time": 25.19090909090909,
                "end_time": 25.288636363636364,
                "pitch": 50,
                "velocity": 51,
                "duration": 0.09772727272727266,
                "tempo": 120.0
            },
            {
                "start_time": 25.29090909090909,
                "end_time": 25.388636363636362,
                "pitch": 50,
                "velocity": 51,
                "duration": 0.09772727272727266,
                "tempo": 120.0
            },
            {
                "start_time": 25.39090909090909,
                "end_time": 25.595454545454544,
                "pitch": 50,
                "velocity": 51,
                "duration": 0.20454545454545325,
                "tempo": 120.0
            },
            {
                "start_time": 25.595454545454544,
                "end_time": 25.69772727272727,
                "pitch": 50,
                "velocity": 51,
                "duration": 0.10227272727272663,
                "tempo": 120.0
            },
            {
                "start_time": 25.69772727272727,
                "end_time": 25.802272727272726,
                "pitch": 50,
                "velocity": 51,
                "duration": 0.10454545454545539,
                "tempo": 120.0
            },
            {
                "start_time": 25.802272727272726,
                "end_time": 26.002272727272725,
                "pitch": 48,
                "velocity": 51,
                "duration": 0.1999999999999993,
                "tempo": 120.0
            },
            {
                "start_time": 26.004545454545454,
                "end_time": 26.104545454545452,
                "pitch": 48,
                "velocity": 51,
                "duration": 0.09999999999999787,
                "tempo": 120.0
            },
            {
                "start_time": 26.104545454545452,
                "end_time": 26.204545454545453,
                "pitch": 48,
                "velocity": 51,
                "duration": 0.10000000000000142,
                "tempo": 120.0
            },
            {
                "start_time": 26.204545454545453,
                "end_time": 26.4,
                "pitch": 48,
                "velocity": 51,
                "duration": 0.19545454545454533,
                "tempo": 120.0
            },
            {
                "start_time": 26.402272727272727,
                "end_time": 26.49772727272727,
                "pitch": 48,
                "velocity": 51,
                "duration": 0.0954545454545439,
                "tempo": 120.0
            },
            {
                "start_time": 26.5,
                "end_time": 26.595454545454544,
                "pitch": 48,
                "velocity": 51,
                "duration": 0.0954545454545439,
                "tempo": 120.0
            },
            {
                "start_time": 26.597727272727273,
                "end_time": 26.797727272727272,
                "pitch": 48,
                "velocity": 51,
                "duration": 0.1999999999999993,
                "tempo": 120.0
            },
            {
                "start_time": 26.799999999999997,
                "end_time": 26.89772727272727,
                "pitch": 48,
                "velocity": 51,
                "duration": 0.09772727272727266,
                "tempo": 120.0
            },
            {
                "start_time": 26.9,
                "end_time": 27.0,
                "pitch": 48,
                "velocity": 51,
                "duration": 0.10000000000000142,
                "tempo": 120.0
            },
            {
                "start_time": 27.0,
                "end_time": 27.206818181818182,
                "pitch": 48,
                "velocity": 51,
                "duration": 0.206818181818182,
                "tempo": 120.0
            },
            {
                "start_time": 27.206818181818182,
                "end_time": 27.30909090909091,
                "pitch": 47,
                "velocity": 51,
                "duration": 0.10227272727272663,
                "tempo": 120.0
            },
            {
                "start_time": 27.30909090909091,
                "end_time": 27.411363636363635,
                "pitch": 47,
                "velocity": 51,
                "duration": 0.10227272727272663,
                "tempo": 120.0
            },
            {
                "start_time": 27.411363636363635,
                "end_time": 27.611363636363635,
                "pitch": 47,
                "velocity": 51,
                "duration": 0.1999999999999993,
                "tempo": 120.0
            },
            {
                "start_time": 27.613636363636363,
                "end_time": 27.711363636363636,
                "pitch": 47,
                "velocity": 51,
                "duration": 0.09772727272727266,
                "tempo": 120.0
            },
            {
                "start_time": 27.71363636363636,
                "end_time": 27.811363636363634,
                "pitch": 47,
                "velocity": 51,
                "duration": 0.09772727272727266,
                "tempo": 120.0
            },
            {
                "start_time": 27.813636363636363,
                "end_time": 28.013636363636362,
                "pitch": 47,
                "velocity": 51,
                "duration": 0.1999999999999993,
                "tempo": 120.0
            },
            {
                "start_time": 28.013636363636362,
                "end_time": 28.113636363636363,
                "pitch": 47,
                "velocity": 51,
                "duration": 0.10000000000000142,
                "tempo": 120.0
            },
            {
                "start_time": 28.11590909090909,
                "end_time": 28.21590909090909,
                "pitch": 47,
                "velocity": 51,
                "duration": 0.10000000000000142,
                "tempo": 120.0
            },
            {
                "start_time": 28.21590909090909,
                "end_time": 28.41590909090909,
                "pitch": 47,
                "velocity": 51,
                "duration": 0.1999999999999993,
                "tempo": 120.0
            },
            {
                "start_time": 28.41590909090909,
                "end_time": 28.51590909090909,
                "pitch": 47,
                "velocity": 51,
                "duration": 0.10000000000000142,
                "tempo": 120.0
            },
            {
                "start_time": 28.51590909090909,
                "end_time": 28.61590909090909,
                "pitch": 47,
                "velocity": 51,
                "duration": 0.09999999999999787,
                "tempo": 120.0
            },
            {
                "start_time": 28.61590909090909,
                "end_time": 28.815909090909088,
                "pitch": 47,
                "velocity": 51,
                "duration": 0.1999999999999993,
                "tempo": 120.0
            },
            {
                "start_time": 28.818181818181817,
                "end_time": 28.91590909090909,
                "pitch": 47,
                "velocity": 51,
                "duration": 0.09772727272727266,
                "tempo": 120.0
            },
            {
                "start_time": 28.91590909090909,
                "end_time": 29.01590909090909,
                "pitch": 47,
                "velocity": 51,
                "duration": 0.10000000000000142,
                "tempo": 120.0
            },
            {
                "start_time": 29.018181818181816,
                "end_time": 29.218181818181815,
                "pitch": 48,
                "velocity": 51,
                "duration": 0.1999999999999993,
                "tempo": 120.0
            },
            {
                "start_time": 29.218181818181815,
                "end_time": 29.318181818181817,
                "pitch": 48,
                "velocity": 51,
                "duration": 0.10000000000000142,
                "tempo": 120.0
            },
            {
                "start_time": 29.320454545454545,
                "end_time": 29.420454545454543,
                "pitch": 48,
                "velocity": 51,
                "duration": 0.09999999999999787,
                "tempo": 120.0
            },
            {
                "start_time": 29.420454545454543,
                "end_time": 29.620454545454542,
                "pitch": 48,
                "velocity": 51,
                "duration": 0.1999999999999993,
                "tempo": 120.0
            },
            {
                "start_time": 29.620454545454542,
                "end_time": 29.720454545454544,
                "pitch": 48,
                "velocity": 51,
                "duration": 0.10000000000000142,
                "tempo": 120.0
            },
            {
                "start_time": 29.720454545454544,
                "end_time": 29.820454545454545,
                "pitch": 48,
                "velocity": 51,
                "duration": 0.10000000000000142,
                "tempo": 120.0
            },
            {
                "start_time": 29.820454545454545,
                "end_time": 30.02272727272727,
                "pitch": 48,
                "velocity": 51,
                "duration": 0.2022727272727245,
                "tempo": 120.0
            },
            {
                "start_time": 30.02272727272727,
                "end_time": 30.12272727272727,
                "pitch": 48,
                "velocity": 51,
                "duration": 0.10000000000000142,
                "tempo": 120.0
            },
            {
                "start_time": 30.12272727272727,
                "end_time": 30.222727272727273,
                "pitch": 48,
                "velocity": 51,
                "duration": 0.10000000000000142,
                "tempo": 120.0
            },
            {
                "start_time": 30.222727272727273,
                "end_time": 30.424999999999997,
                "pitch": 48,
                "velocity": 51,
                "duration": 0.2022727272727245,
                "tempo": 120.0
            },
            {
                "start_time": 30.424999999999997,
                "end_time": 30.52272727272727,
                "pitch": 50,
                "velocity": 51,
                "duration": 0.09772727272727266,
                "tempo": 120.0
            },
            {
                "start_time": 30.525,
                "end_time": 30.62272727272727,
                "pitch": 50,
                "velocity": 51,
                "duration": 0.09772727272727266,
                "tempo": 120.0
            },
            {
                "start_time": 30.625,
                "end_time": 30.825,
                "pitch": 50,
                "velocity": 51,
                "duration": 0.1999999999999993,
                "tempo": 120.0
            },
            {
                "start_time": 30.825,
                "end_time": 30.924999999999997,
                "pitch": 50,
                "velocity": 51,
                "duration": 0.09999999999999787,
                "tempo": 120.0
            },
            {
                "start_time": 30.924999999999997,
                "end_time": 31.025,
                "pitch": 50,
                "velocity": 51,
                "duration": 0.10000000000000142,
                "tempo": 120.0
            },
            {
                "start_time": 31.025,
                "end_time": 31.224999999999998,
                "pitch": 50,
                "velocity": 51,
                "duration": 0.1999999999999993,
                "tempo": 120.0
            },
            {
                "start_time": 31.227272727272727,
                "end_time": 31.327272727272724,
                "pitch": 47,
                "velocity": 51,
                "duration": 0.09999999999999787,
                "tempo": 120.0
            },
            {
                "start_time": 31.327272727272724,
                "end_time": 31.427272727272726,
                "pitch": 47,
                "velocity": 51,
                "duration": 0.10000000000000142,
                "tempo": 120.0
            },
            {
                "start_time": 31.427272727272726,
                "end_time": 31.627272727272725,
                "pitch": 47,
                "velocity": 51,
                "duration": 0.1999999999999993,
                "tempo": 120.0
            },
            {
                "start_time": 31.629545454545454,
                "end_time": 31.727272727272727,
                "pitch": 47,
                "velocity": 51,
                "duration": 0.09772727272727266,
                "tempo": 120.0
            },
            {
                "start_time": 31.729545454545452,
                "end_time": 31.827272727272724,
                "pitch": 47,
                "velocity": 51,
                "duration": 0.09772727272727266,
                "tempo": 120.0
            },
            {
                "start_time": 31.829545454545453,
                "end_time": 32.029545454545456,
                "pitch": 47,
                "velocity": 51,
                "duration": 0.20000000000000284,
                "tempo": 120.0
            },
            {
                "start_time": 32.03181818181818,
                "end_time": 32.12954545454545,
                "pitch": 47,
                "velocity": 51,
                "duration": 0.09772727272726911,
                "tempo": 120.0
            },
            {
                "start_time": 32.13181818181818,
                "end_time": 32.23181818181818,
                "pitch": 47,
                "velocity": 51,
                "duration": 0.09999999999999432,
                "tempo": 120.0
            },
            {
                "start_time": 32.23181818181818,
                "end_time": 32.43181818181818,
                "pitch": 45,
                "velocity": 51,
                "duration": 0.20000000000000284,
                "tempo": 120.0
            },
            {
                "start_time": 32.43181818181818,
                "end_time": 32.53181818181818,
                "pitch": 45,
                "velocity": 51,
                "duration": 0.10000000000000142,
                "tempo": 120.0
            },
            {
                "start_time": 32.53181818181818,
                "end_time": 32.63181818181818,
                "pitch": 45,
                "velocity": 51,
                "duration": 0.10000000000000142,
                "tempo": 120.0
            },
            {
                "start_time": 32.63181818181818,
                "end_time": 32.83181818181818,
                "pitch": 45,
                "velocity": 51,
                "duration": 0.19999999999999574,
                "tempo": 120.0
            },
            {
                "start_time": 32.83181818181818,
                "end_time": 32.93181818181818,
                "pitch": 45,
                "velocity": 51,
                "duration": 0.10000000000000142,
                "tempo": 120.0
            },
            {
                "start_time": 32.93181818181818,
                "end_time": 33.03181818181818,
                "pitch": 45,
                "velocity": 51,
                "duration": 0.10000000000000142,
                "tempo": 120.0
            },
            {
                "start_time": 33.03181818181818,
                "end_time": 33.23181818181818,
                "pitch": 45,
                "velocity": 51,
                "duration": 0.19999999999999574,
                "tempo": 120.0
            },
            {
                "start_time": 33.23181818181818,
                "end_time": 33.33181818181818,
                "pitch": 45,
                "velocity": 51,
                "duration": 0.10000000000000142,
                "tempo": 120.0
            },
            {
                "start_time": 33.33181818181818,
                "end_time": 33.43181818181818,
                "pitch": 45,
                "velocity": 51,
                "duration": 0.10000000000000142,
                "tempo": 120.0
            },
            {
                "start_time": 33.434090909090905,
                "end_time": 33.63409090909091,
                "pitch": 45,
                "velocity": 51,
                "duration": 0.20000000000000284,
                "tempo": 120.0
            },
            {
                "start_time": 33.63636363636363,
                "end_time": 33.73409090909091,
                "pitch": 45,
                "velocity": 51,
                "duration": 0.09772727272727622,
                "tempo": 120.0
            },
            {
                "start_time": 33.736363636363635,
                "end_time": 33.836363636363636,
                "pitch": 45,
                "velocity": 51,
                "duration": 0.10000000000000142,
                "tempo": 120.0
            },
            {
                "start_time": 33.836363636363636,
                "end_time": 34.04090909090909,
                "pitch": 47,
                "velocity": 51,
                "duration": 0.20454545454545325,
                "tempo": 120.0
            },
            {
                "start_time": 34.04090909090909,
                "end_time": 34.143181818181816,
                "pitch": 47,
                "velocity": 51,
                "duration": 0.10227272727272663,
                "tempo": 120.0
            },
            {
                "start_time": 34.14545454545454,
                "end_time": 34.24772727272727,
                "pitch": 47,
                "velocity": 51,
                "duration": 0.10227272727272663,
                "tempo": 120.0
            },
            {
                "start_time": 34.24772727272727,
                "end_time": 34.44772727272727,
                "pitch": 47,
                "velocity": 51,
                "duration": 0.20000000000000284,
                "tempo": 120.0
            },
            {
                "start_time": 34.44772727272727,
                "end_time": 34.54772727272727,
                "pitch": 47,
                "velocity": 51,
                "duration": 0.10000000000000142,
                "tempo": 120.0
            },
            {
                "start_time": 34.54772727272727,
                "end_time": 34.64772727272727,
                "pitch": 47,
                "velocity": 51,
                "duration": 0.10000000000000142,
                "tempo": 120.0
            },
            {
                "start_time": 34.64772727272727,
                "end_time": 34.84318181818182,
                "pitch": 47,
                "velocity": 51,
                "duration": 0.19545454545454533,
                "tempo": 120.0
            },
            {
                "start_time": 34.845454545454544,
                "end_time": 34.94318181818181,
                "pitch": 47,
                "velocity": 51,
                "duration": 0.09772727272726911,
                "tempo": 120.0
            },
            {
                "start_time": 34.94318181818181,
                "end_time": 35.04090909090909,
                "pitch": 47,
                "velocity": 51,
                "duration": 0.09772727272727622,
                "tempo": 120.0
            },
            {
                "start_time": 35.04090909090909,
                "end_time": 35.24545454545454,
                "pitch": 47,
                "velocity": 51,
                "duration": 0.20454545454545325,
                "tempo": 120.0
            },
            {
                "start_time": 35.24772727272727,
                "end_time": 35.35,
                "pitch": 47,
                "velocity": 51,
                "duration": 0.10227272727273373,
                "tempo": 120.0
            },
            {
                "start_time": 35.35,
                "end_time": 35.45227272727273,
                "pitch": 47,
                "velocity": 51,
                "duration": 0.10227272727272663,
                "tempo": 120.0
            },
            {
                "start_time": 35.45227272727273,
                "end_time": 35.652272727272724,
                "pitch": 48,
                "velocity": 51,
                "duration": 0.19999999999999574,
                "tempo": 120.0
            },
            {
                "start_time": 35.652272727272724,
                "end_time": 35.752272727272725,
                "pitch": 48,
                "velocity": 51,
                "duration": 0.10000000000000142,
                "tempo": 120.0
            },
            {
                "start_time": 35.752272727272725,
                "end_time": 35.85227272727273,
                "pitch": 48,
                "velocity": 51,
                "duration": 0.10000000000000142,
                "tempo": 120.0
            },
            {
                "start_time": 35.85227272727273,
                "end_time": 36.05227272727272,
                "pitch": 48,
                "velocity": 51,
                "duration": 0.19999999999999574,
                "tempo": 120.0
            },
            {
                "start_time": 36.05227272727272,
                "end_time": 36.152272727272724,
                "pitch": 48,
                "velocity": 51,
                "duration": 0.10000000000000142,
                "tempo": 120.0
            },
            {
                "start_time": 36.152272727272724,
                "end_time": 36.252272727272725,
                "pitch": 48,
                "velocity": 51,
                "duration": 0.10000000000000142,
                "tempo": 120.0
            },
            {
                "start_time": 36.252272727272725,
                "end_time": 36.45227272727273,
                "pitch": 48,
                "velocity": 51,
                "duration": 0.20000000000000284,
                "tempo": 120.0
            },
            {
                "start_time": 36.45454545454545,
                "end_time": 36.55227272727272,
                "pitch": 48,
                "velocity": 51,
                "duration": 0.09772727272726911,
                "tempo": 120.0
            },
            {
                "start_time": 36.554545454545455,
                "end_time": 36.652272727272724,
                "pitch": 48,
                "velocity": 51,
                "duration": 0.09772727272726911,
                "tempo": 120.0
            },
            {
                "start_time": 36.654545454545456,
                "end_time": 36.85454545454545,
                "pitch": 48,
                "velocity": 51,
                "duration": 0.19999999999999574,
                "tempo": 120.0
            },
            {
                "start_time": 36.85454545454545,
                "end_time": 36.95454545454545,
                "pitch": 48,
                "velocity": 51,
                "duration": 0.10000000000000142,
                "tempo": 120.0
            },
            {
                "start_time": 36.95454545454545,
                "end_time": 37.054545454545455,
                "pitch": 48,
                "velocity": 51,
                "duration": 0.10000000000000142,
                "tempo": 120.0
            },
            {
                "start_time": 37.054545454545455,
                "end_time": 37.25454545454545,
                "pitch": 48,
                "velocity": 51,
                "duration": 0.19999999999999574,
                "tempo": 120.0
            },
            {
                "start_time": 37.25681818181818,
                "end_time": 37.35681818181818,
                "pitch": 48,
                "velocity": 51,
                "duration": 0.09999999999999432,
                "tempo": 120.0
            },
            {
                "start_time": 37.35681818181818,
                "end_time": 37.45681818181818,
                "pitch": 48,
                "velocity": 51,
                "duration": 0.10000000000000142,
                "tempo": 120.0
            },
            {
                "start_time": 37.45681818181818,
                "end_time": 37.65681818181818,
                "pitch": 48,
                "velocity": 51,
                "duration": 0.20000000000000284,
                "tempo": 120.0
            },
            {
                "start_time": 37.65681818181818,
                "end_time": 37.75681818181818,
                "pitch": 48,
                "velocity": 51,
                "duration": 0.10000000000000142,
                "tempo": 120.0
            },
            {
                "start_time": 37.75681818181818,
                "end_time": 37.85681818181818,
                "pitch": 48,
                "velocity": 51,
                "duration": 0.09999999999999432,
                "tempo": 120.0
            },
            {
                "start_time": 37.85909090909091,
                "end_time": 38.05681818181818,
                "pitch": 48,
                "velocity": 51,
                "duration": 0.19772727272727053,
                "tempo": 120.0
            },
            {
                "start_time": 38.059090909090905,
                "end_time": 38.15909090909091,
                "pitch": 48,
                "velocity": 51,
                "duration": 0.10000000000000142,
                "tempo": 120.0
            },
            {
                "start_time": 38.15909090909091,
                "end_time": 38.25909090909091,
                "pitch": 48,
                "velocity": 51,
                "duration": 0.10000000000000142,
                "tempo": 120.0
            },
            {
                "start_time": 38.25909090909091,
                "end_time": 38.45909090909091,
                "pitch": 47,
                "velocity": 51,
                "duration": 0.20000000000000284,
                "tempo": 120.0
            },
            {
                "start_time": 38.45909090909091,
                "end_time": 38.559090909090905,
                "pitch": 47,
                "velocity": 51,
                "duration": 0.09999999999999432,
                "tempo": 120.0
            },
            {
                "start_time": 38.559090909090905,
                "end_time": 38.65909090909091,
                "pitch": 47,
                "velocity": 51,
                "duration": 0.10000000000000142,
                "tempo": 120.0
            },
            {
                "start_time": 38.65909090909091,
                "end_time": 38.85909090909091,
                "pitch": 45,
                "velocity": 51,
                "duration": 0.20000000000000284,
                "tempo": 120.0
            },
            {
                "start_time": 38.85909090909091,
                "end_time": 38.959090909090904,
                "pitch": 45,
                "velocity": 51,
                "duration": 0.09999999999999432,
                "tempo": 120.0
            },
            {
                "start_time": 38.959090909090904,
                "end_time": 39.059090909090905,
                "pitch": 45,
                "velocity": 51,
                "duration": 0.10000000000000142,
                "tempo": 120.0
            },
            {
                "start_time": 39.059090909090905,
                "end_time": 39.26136363636363,
                "pitch": 45,
                "velocity": 51,
                "duration": 0.20227272727272805,
                "tempo": 120.0
            },
            {
                "start_time": 39.26136363636363,
                "end_time": 39.361363636363635,
                "pitch": 45,
                "velocity": 51,
                "duration": 0.10000000000000142,
                "tempo": 120.0
            },
            {
                "start_time": 39.361363636363635,
                "end_time": 39.461363636363636,
                "pitch": 45,
                "velocity": 51,
                "duration": 0.10000000000000142,
                "tempo": 120.0
            },
            {
                "start_time": 39.46363636363636,
                "end_time": 39.66136363636363,
                "pitch": 45,
                "velocity": 51,
                "duration": 0.19772727272727053,
                "tempo": 120.0
            },
            {
                "start_time": 39.663636363636364,
                "end_time": 39.76136363636363,
                "pitch": 45,
                "velocity": 51,
                "duration": 0.09772727272726911,
                "tempo": 120.0
            },
            {
                "start_time": 39.76363636363636,
                "end_time": 39.861363636363635,
                "pitch": 45,
                "velocity": 51,
                "duration": 0.09772727272727622,
                "tempo": 120.0
            },
            {
                "start_time": 39.86363636363636,
                "end_time": 40.06363636363636,
                "pitch": 45,
                "velocity": 51,
                "duration": 0.20000000000000284,
                "tempo": 120.0
            },
            {
                "start_time": 40.06363636363636,
                "end_time": 40.163636363636364,
                "pitch": 45,
                "velocity": 51,
                "duration": 0.10000000000000142,
                "tempo": 120.0
            },
            {
                "start_time": 40.163636363636364,
                "end_time": 40.26363636363636,
                "pitch": 45,
                "velocity": 51,
                "duration": 0.09999999999999432,
                "tempo": 120.0
            },
            {
                "start_time": 40.26363636363636,
                "end_time": 40.46363636363636,
                "pitch": 46,
                "velocity": 51,
                "duration": 0.20000000000000284,
                "tempo": 120.0
            },
            {
                "start_time": 40.46363636363636,
                "end_time": 40.56363636363636,
                "pitch": 46,
                "velocity": 51,
                "duration": 0.10000000000000142,
                "tempo": 120.0
            },
            {
                "start_time": 40.56363636363636,
                "end_time": 40.663636363636364,
                "pitch": 46,
                "velocity": 51,
                "duration": 0.10000000000000142,
                "tempo": 120.0
            },
            {
                "start_time": 40.66590909090909,
                "end_time": 40.86363636363636,
                "pitch": 46,
                "velocity": 51,
                "duration": 0.19772727272727053,
                "tempo": 120.0
            },
            {
                "start_time": 40.86363636363636,
                "end_time": 40.96363636363636,
                "pitch": 46,
                "velocity": 51,
                "duration": 0.10000000000000142,
                "tempo": 120.0
            },
            {
                "start_time": 40.96363636363636,
                "end_time": 41.06363636363636,
                "pitch": 46,
                "velocity": 51,
                "duration": 0.10000000000000142,
                "tempo": 120.0
            },
            {
                "start_time": 41.06590909090909,
                "end_time": 41.26590909090909,
                "pitch": 46,
                "velocity": 51,
                "duration": 0.20000000000000284,
                "tempo": 120.0
            },
            {
                "start_time": 41.26590909090909,
                "end_time": 41.36590909090909,
                "pitch": 46,
                "velocity": 51,
                "duration": 0.10000000000000142,
                "tempo": 120.0
            },
            {
                "start_time": 41.36818181818182,
                "end_time": 41.46818181818182,
                "pitch": 46,
                "velocity": 51,
                "duration": 0.10000000000000142,
                "tempo": 120.0
            },
            {
                "start_time": 41.46818181818182,
                "end_time": 41.67272727272727,
                "pitch": 46,
                "velocity": 51,
                "duration": 0.20454545454545325,
                "tempo": 120.0
            },
            {
                "start_time": 41.675,
                "end_time": 41.777272727272724,
                "pitch": 46,
                "velocity": 51,
                "duration": 0.10227272727272663,
                "tempo": 120.0
            },
            {
                "start_time": 41.777272727272724,
                "end_time": 41.87954545454545,
                "pitch": 46,
                "velocity": 51,
                "duration": 0.10227272727272663,
                "tempo": 120.0
            },
            {
                "start_time": 41.87954545454545,
                "end_time": 42.07954545454545,
                "pitch": 45,
                "velocity": 51,
                "duration": 0.20000000000000284,
                "tempo": 120.0
            },
            {
                "start_time": 42.07954545454545,
                "end_time": 42.179545454545455,
                "pitch": 45,
                "velocity": 51,
                "duration": 0.10000000000000142,
                "tempo": 120.0
            },
            {
                "start_time": 42.179545454545455,
                "end_time": 42.27954545454545,
                "pitch": 45,
                "velocity": 51,
                "duration": 0.09999999999999432,
                "tempo": 120.0
            },
            {
                "start_time": 42.27954545454545,
                "end_time": 42.48181818181818,
                "pitch": 45,
                "velocity": 51,
                "duration": 0.20227272727272805,
                "tempo": 120.0
            },
            {
                "start_time": 42.48181818181818,
                "end_time": 42.58181818181818,
                "pitch": 45,
                "velocity": 51,
                "duration": 0.10000000000000142,
                "tempo": 120.0
            },
            {
                "start_time": 42.58181818181818,
                "end_time": 42.68181818181818,
                "pitch": 45,
                "velocity": 51,
                "duration": 0.10000000000000142,
                "tempo": 120.0
            },
            {
                "start_time": 42.684090909090905,
                "end_time": 42.88181818181818,
                "pitch": 45,
                "velocity": 51,
                "duration": 0.19772727272727764,
                "tempo": 120.0
            },
            {
                "start_time": 42.88409090909091,
                "end_time": 42.98181818181818,
                "pitch": 45,
                "velocity": 51,
                "duration": 0.09772727272726911,
                "tempo": 120.0
            },
            {
                "start_time": 42.98409090909091,
                "end_time": 43.084090909090904,
                "pitch": 45,
                "velocity": 51,
                "duration": 0.09999999999999432,
                "tempo": 120.0
            },
            {
                "start_time": 43.084090909090904,
                "end_time": 43.28409090909091,
                "pitch": 45,
                "velocity": 51,
                "duration": 0.20000000000000284,
                "tempo": 120.0
            },
            {
                "start_time": 43.28409090909091,
                "end_time": 43.38409090909091,
                "pitch": 45,
                "velocity": 51,
                "duration": 0.10000000000000142,
                "tempo": 120.0
            },
            {
                "start_time": 43.38409090909091,
                "end_time": 43.48409090909091,
                "pitch": 45,
                "velocity": 51,
                "duration": 0.10000000000000142,
                "tempo": 120.0
            },
            {
                "start_time": 43.486363636363635,
                "end_time": 43.684090909090905,
                "pitch": 46,
                "velocity": 51,
                "duration": 0.19772727272727053,
                "tempo": 120.0
            },
            {
                "start_time": 43.684090909090905,
                "end_time": 43.78409090909091,
                "pitch": 46,
                "velocity": 51,
                "duration": 0.10000000000000142,
                "tempo": 120.0
            },
            {
                "start_time": 43.78409090909091,
                "end_time": 43.88409090909091,
                "pitch": 46,
                "velocity": 51,
                "duration": 0.10000000000000142,
                "tempo": 120.0
            },
            {
                "start_time": 43.88636363636363,
                "end_time": 44.084090909090904,
                "pitch": 46,
                "velocity": 51,
                "duration": 0.19772727272727053,
                "tempo": 120.0
            },
            {
                "start_time": 44.084090909090904,
                "end_time": 44.184090909090905,
                "pitch": 46,
                "velocity": 51,
                "duration": 0.10000000000000142,
                "tempo": 120.0
            },
            {
                "start_time": 44.18636363636364,
                "end_time": 44.28409090909091,
                "pitch": 46,
                "velocity": 51,
                "duration": 0.09772727272726911,
                "tempo": 120.0
            },
            {
                "start_time": 44.28636363636363,
                "end_time": 44.486363636363635,
                "pitch": 46,
                "velocity": 51,
                "duration": 0.20000000000000284,
                "tempo": 120.0
            },
            {
                "start_time": 44.486363636363635,
                "end_time": 44.586363636363636,
                "pitch": 46,
                "velocity": 51,
                "duration": 0.10000000000000142,
                "tempo": 120.0
            },
            {
                "start_time": 44.58863636363636,
                "end_time": 44.68863636363636,
                "pitch": 46,
                "velocity": 51,
                "duration": 0.10000000000000142,
                "tempo": 120.0
            },
            {
                "start_time": 44.68863636363636,
                "end_time": 44.88863636363636,
                "pitch": 46,
                "velocity": 51,
                "duration": 0.19999999999999574,
                "tempo": 120.0
            },
            {
                "start_time": 44.88863636363636,
                "end_time": 44.98863636363636,
                "pitch": 46,
                "velocity": 51,
                "duration": 0.10000000000000142,
                "tempo": 120.0
            },
            {
                "start_time": 44.98863636363636,
                "end_time": 45.08863636363636,
                "pitch": 46,
                "velocity": 51,
                "duration": 0.10000000000000142,
                "tempo": 120.0
            },
            {
                "start_time": 45.090909090909086,
                "end_time": 45.288636363636364,
                "pitch": 46,
                "velocity": 51,
                "duration": 0.19772727272727764,
                "tempo": 120.0
            },
            {
                "start_time": 45.288636363636364,
                "end_time": 45.38863636363636,
                "pitch": 46,
                "velocity": 51,
                "duration": 0.09999999999999432,
                "tempo": 120.0
            },
            {
                "start_time": 45.38863636363636,
                "end_time": 45.48863636363636,
                "pitch": 46,
                "velocity": 51,
                "duration": 0.10000000000000142,
                "tempo": 120.0
            },
            {
                "start_time": 45.48863636363636,
                "end_time": 45.68863636363636,
                "pitch": 46,
                "velocity": 51,
                "duration": 0.20000000000000284,
                "tempo": 120.0
            },
            {
                "start_time": 45.69090909090909,
                "end_time": 45.788636363636364,
                "pitch": 46,
                "velocity": 51,
                "duration": 0.09772727272727622,
                "tempo": 120.0
            },
            {
                "start_time": 45.79090909090909,
                "end_time": 45.88863636363636,
                "pitch": 46,
                "velocity": 51,
                "duration": 0.09772727272726911,
                "tempo": 120.0
            },
            {
                "start_time": 45.89090909090909,
                "end_time": 46.08863636363636,
                "pitch": 46,
                "velocity": 51,
                "duration": 0.19772727272727053,
                "tempo": 120.0
            },
            {
                "start_time": 46.090909090909086,
                "end_time": 46.18863636363636,
                "pitch": 46,
                "velocity": 51,
                "duration": 0.09772727272727622,
                "tempo": 120.0
            },
            {
                "start_time": 46.19090909090909,
                "end_time": 46.288636363636364,
                "pitch": 46,
                "velocity": 51,
                "duration": 0.09772727272727622,
                "tempo": 120.0
            },
            {
                "start_time": 46.29090909090909,
                "end_time": 46.49318181818182,
                "pitch": 46,
                "velocity": 51,
                "duration": 0.20227272727272805,
                "tempo": 120.0
            },
            {
                "start_time": 46.49318181818182,
                "end_time": 46.59318181818182,
                "pitch": 46,
                "velocity": 51,
                "duration": 0.10000000000000142,
                "tempo": 120.0
            },
            {
                "start_time": 46.59318181818182,
                "end_time": 46.69318181818181,
                "pitch": 46,
                "velocity": 51,
                "duration": 0.09999999999999432,
                "tempo": 120.0
            },
            {
                "start_time": 46.695454545454545,
                "end_time": 46.893181818181816,
                "pitch": 43,
                "velocity": 51,
                "duration": 0.19772727272727053,
                "tempo": 120.0
            },
            {
                "start_time": 46.893181818181816,
                "end_time": 46.99318181818182,
                "pitch": 43,
                "velocity": 51,
                "duration": 0.10000000000000142,
                "tempo": 120.0
            },
            {
                "start_time": 46.99318181818182,
                "end_time": 47.09318181818182,
                "pitch": 43,
                "velocity": 51,
                "duration": 0.10000000000000142,
                "tempo": 120.0
            },
            {
                "start_time": 47.095454545454544,
                "end_time": 47.293181818181814,
                "pitch": 43,
                "velocity": 51,
                "duration": 0.19772727272727053,
                "tempo": 120.0
            },
            {
                "start_time": 47.29545454545454,
                "end_time": 47.393181818181816,
                "pitch": 43,
                "velocity": 51,
                "duration": 0.09772727272727622,
                "tempo": 120.0
            },
            {
                "start_time": 47.39545454545454,
                "end_time": 47.49545454545454,
                "pitch": 43,
                "velocity": 51,
                "duration": 0.10000000000000142,
                "tempo": 120.0
            },
            {
                "start_time": 47.49545454545454,
                "end_time": 47.695454545454545,
                "pitch": 43,
                "velocity": 51,
                "duration": 0.20000000000000284,
                "tempo": 120.0
            },
            {
                "start_time": 47.695454545454545,
                "end_time": 47.79545454545454,
                "pitch": 43,
                "velocity": 51,
                "duration": 0.09999999999999432,
                "tempo": 120.0
            },
            {
                "start_time": 47.79545454545454,
                "end_time": 47.89545454545454,
                "pitch": 43,
                "velocity": 51,
                "duration": 0.10000000000000142,
                "tempo": 120.0
            },
            {
                "start_time": 47.89545454545454,
                "end_time": 48.095454545454544,
                "pitch": 43,
                "velocity": 51,
                "duration": 0.20000000000000284,
                "tempo": 120.0
            },
            {
                "start_time": 48.095454545454544,
                "end_time": 48.195454545454545,
                "pitch": 43,
                "velocity": 51,
                "duration": 0.10000000000000142,
                "tempo": 120.0
            },
            {
                "start_time": 48.195454545454545,
                "end_time": 48.29545454545454,
                "pitch": 43,
                "velocity": 51,
                "duration": 0.09999999999999432,
                "tempo": 120.0
            },
            {
                "start_time": 48.29772727272727,
                "end_time": 48.49772727272727,
                "pitch": 45,
                "velocity": 51,
                "duration": 0.19999999999999574,
                "tempo": 120.0
            },
            {
                "start_time": 48.49772727272727,
                "end_time": 48.59772727272727,
                "pitch": 45,
                "velocity": 51,
                "duration": 0.10000000000000142,
                "tempo": 120.0
            },
            {
                "start_time": 48.59772727272727,
                "end_time": 48.69772727272727,
                "pitch": 45,
                "velocity": 51,
                "duration": 0.10000000000000142,
                "tempo": 120.0
            },
            {
                "start_time": 48.699999999999996,
                "end_time": 48.89772727272727,
                "pitch": 45,
                "velocity": 51,
                "duration": 0.19772727272727764,
                "tempo": 120.0
            },
            {
                "start_time": 48.9,
                "end_time": 48.99772727272727,
                "pitch": 45,
                "velocity": 51,
                "duration": 0.09772727272726911,
                "tempo": 120.0
            },
            {
                "start_time": 49.0,
                "end_time": 49.099999999999994,
                "pitch": 45,
                "velocity": 51,
                "duration": 0.09999999999999432,
                "tempo": 120.0
            },
            {
                "start_time": 49.099999999999994,
                "end_time": 49.3,
                "pitch": 45,
                "velocity": 51,
                "duration": 0.20000000000000284,
                "tempo": 120.0
            },
            {
                "start_time": 49.3,
                "end_time": 49.4,
                "pitch": 45,
                "velocity": 51,
                "duration": 0.10000000000000142,
                "tempo": 120.0
            },
            {
                "start_time": 49.4,
                "end_time": 49.5,
                "pitch": 45,
                "velocity": 51,
                "duration": 0.10000000000000142,
                "tempo": 120.0
            },
            {
                "start_time": 49.5,
                "end_time": 49.699999999999996,
                "pitch": 45,
                "velocity": 51,
                "duration": 0.19999999999999574,
                "tempo": 120.0
            },
            {
                "start_time": 49.70227272727273,
                "end_time": 49.8,
                "pitch": 45,
                "velocity": 51,
                "duration": 0.09772727272726911,
                "tempo": 120.0
            },
            {
                "start_time": 49.80227272727272,
                "end_time": 49.9,
                "pitch": 45,
                "velocity": 51,
                "duration": 0.09772727272727622,
                "tempo": 120.0
            },
            {
                "start_time": 49.902272727272724,
                "end_time": 50.10454545454545,
                "pitch": 44,
                "velocity": 51,
                "duration": 0.20227272727272805,
                "tempo": 120.0
            },
            {
                "start_time": 50.10681818181818,
                "end_time": 50.209090909090904,
                "pitch": 44,
                "velocity": 51,
                "duration": 0.10227272727272663,
                "tempo": 120.0
            },
            {
                "start_time": 50.209090909090904,
                "end_time": 50.31136363636364,
                "pitch": 44,
                "velocity": 51,
                "duration": 0.10227272727273373,
                "tempo": 120.0
            },
            {
                "start_time": 50.31136363636364,
                "end_time": 50.51136363636363,
                "pitch": 44,
                "velocity": 51,
                "duration": 0.19999999999999574,
                "tempo": 120.0
            },
            {
                "start_time": 50.51136363636363,
                "end_time": 50.611363636363635,
                "pitch": 44,
                "velocity": 51,
                "duration": 0.10000000000000142,
                "tempo": 120.0
            },
            {
                "start_time": 50.61363636363636,
                "end_time": 50.711363636363636,
                "pitch": 44,
                "velocity": 51,
                "duration": 0.09772727272727622,
                "tempo": 120.0
            },
            {
                "start_time": 50.71363636363636,
                "end_time": 50.913636363636364,
                "pitch": 44,
                "velocity": 51,
                "duration": 0.20000000000000284,
                "tempo": 120.0
            },
            {
                "start_time": 50.913636363636364,
                "end_time": 51.01363636363636,
                "pitch": 44,
                "velocity": 51,
                "duration": 0.09999999999999432,
                "tempo": 120.0
            },
            {
                "start_time": 51.01363636363636,
                "end_time": 51.11363636363636,
                "pitch": 44,
                "velocity": 51,
                "duration": 0.10000000000000142,
                "tempo": 120.0
            },
            {
                "start_time": 51.11363636363636,
                "end_time": 51.31363636363636,
                "pitch": 44,
                "velocity": 51,
                "duration": 0.20000000000000284,
                "tempo": 120.0
            },
            {
                "start_time": 51.31363636363636,
                "end_time": 51.413636363636364,
                "pitch": 44,
                "velocity": 51,
                "duration": 0.10000000000000142,
                "tempo": 120.0
            },
            {
                "start_time": 51.413636363636364,
                "end_time": 51.51363636363636,
                "pitch": 44,
                "velocity": 51,
                "duration": 0.09999999999999432,
                "tempo": 120.0
            }
        ]
    }
}