{
    "track_id": "09 Cavern",
    "mood": "angry",
    "instruments": {
        "Acoustic Bass": [
            {
                "start_time": 0.031818181818181815,
                "end_time": 0.12727272727272726,
                "pitch": 43,
                "velocity": 80,
                "duration": 0.09545454545454544,
                "tempo": 120.0
            },
            {
                "start_time": 0.12954545454545455,
                "end_time": 0.22727272727272727,
                "pitch": 43,
                "velocity": 80,
                "duration": 0.09772727272727272,
                "tempo": 120.0
            },
            {
                "start_time": 0.22727272727272727,
                "end_time": 0.32727272727272727,
                "pitch": 43,
                "velocity": 80,
                "duration": 0.1,
                "tempo": 120.0
            },
            {
                "start_time": 0.32954545454545453,
                "end_time": 0.42727272727272725,
                "pitch": 43,
                "velocity": 80,
                "duration": 0.09772727272727272,
                "tempo": 120.0
            },
            {
                "start_time": 0.6295454545454545,
                "end_time": 0.8272727272727273,
                "pitch": 43,
                "velocity": 80,
                "duration": 0.19772727272727275,
                "tempo": 120.0
            },
            {
                "start_time": 0.8295454545454545,
                "end_time": 0.9295454545454545,
                "pitch": 43,
                "velocity": 80,
                "duration": 0.09999999999999998,
                "tempo": 120.0
            },
            {
                "start_time": 0.9295454545454545,
                "end_time": 1.0272727272727271,
                "pitch": 43,
                "velocity": 80,
                "duration": 0.09772727272727266,
                "tempo": 120.0
            },
            {
                "start_time": 1.0295454545454545,
                "end_time": 1.1295454545454544,
                "pitch": 43,
                "velocity": 80,
                "duration": 0.09999999999999987,
                "tempo": 120.0
            },
            {
                "start_time": 1.1295454545454544,
                "end_time": 1.2295454545454545,
                "pitch": 43,
                "velocity": 80,
                "duration": 0.10000000000000009,
                "tempo": 120.0
            },
            {
                "start_time": 1.6295454545454544,
                "end_time": 1.7295454545454545,
                "pitch": 41,
                "velocity": 80,
                "duration": 0.10000000000000009,
                "tempo": 120.0
            },
            {
                "start_time": 1.7318181818181817,
                "end_time": 1.8318181818181818,
                "pitch": 41,
                "velocity": 80,
                "duration": 0.10000000000000009,
                "tempo": 120.0
            },
            {
                "start_time": 1.8318181818181818,
                "end_time": 1.9318181818181817,
                "pitch": 41,
                "velocity": 80,
                "duration": 0.09999999999999987,
                "tempo": 120.0
            },
            {
                "start_time": 1.9318181818181817,
                "end_time": 2.0318181818181817,
                "pitch": 41,
                "velocity": 80,
                "duration": 0.10000000000000009,
                "tempo": 120.0
            },
            {
                "start_time": 2.234090909090909,
                "end_time": 2.4318181818181817,
                "pitch": 41,
                "velocity": 80,
                "duration": 0.19772727272727275,
                "tempo": 120.0
            },
            {
                "start_time": 2.434090909090909,
                "end_time": 2.534090909090909,
                "pitch": 41,
                "velocity": 80,
                "duration": 0.10000000000000009,
                "tempo": 120.0
            },
            {
                "start_time": 2.534090909090909,
                "end_time": 2.634090909090909,
                "pitch": 41,
                "velocity": 80,
                "duration": 0.09999999999999964,
                "tempo": 120.0
            },
            {
                "start_time": 2.634090909090909,
                "end_time": 2.734090909090909,
                "pitch": 41,
                "velocity": 80,
                "duration": 0.10000000000000009,
                "tempo": 120.0
            },
            {
                "start_time": 2.734090909090909,
                "end_time": 2.834090909090909,
                "pitch": 41,
                "velocity": 80,
                "duration": 0.10000000000000009,
                "tempo": 120.0
            },
            {
                "start_time": 3.234090909090909,
                "end_time": 3.3363636363636364,
                "pitch": 39,
                "velocity": 80,
                "duration": 0.10227272727272751,
                "tempo": 120.0
            },
            {
                "start_time": 3.3386363636363634,
                "end_time": 3.4386363636363635,
                "pitch": 39,
                "velocity": 80,
                "duration": 0.10000000000000009,
                "tempo": 120.0
            },
            {
                "start_time": 3.440909090909091,
                "end_time": 3.543181818181818,
                "pitch": 39,
                "velocity": 80,
                "duration": 0.10227272727272707,
                "tempo": 120.0
            },
            {
                "start_time": 3.543181818181818,
                "end_time": 3.645454545454545,
                "pitch": 39,
                "velocity": 80,
                "duration": 0.10227272727272707,
                "tempo": 120.0
            },
            {
                "start_time": 3.8454545454545452,
                "end_time": 4.045454545454545,
                "pitch": 39,
                "velocity": 80,
                "duration": 0.19999999999999973,
                "tempo": 120.0
            },
            {
                "start_time": 4.045454545454545,
                "end_time": 4.143181818181818,
                "pitch": 39,
                "velocity": 80,
                "duration": 0.09772727272727266,
                "tempo": 120.0
            },
            {
                "start_time": 4.1454545454545455,
                "end_time": 4.24090909090909,
                "pitch": 39,
                "velocity": 80,
                "duration": 0.09545454545454479,
                "tempo": 120.0
            },
            {
                "start_time": 4.243181818181818,
                "end_time": 4.340909090909091,
                "pitch": 39,
                "velocity": 80,
                "duration": 0.09772727272727266,
                "tempo": 120.0
            },
            {
                "start_time": 4.340909090909091,
                "end_time": 4.4386363636363635,
                "pitch": 39,
                "velocity": 80,
                "duration": 0.09772727272727266,
                "tempo": 120.0
            },
            {
                "start_time": 4.843181818181818,
                "end_time": 4.945454545454545,
                "pitch": 38,
                "velocity": 80,
                "duration": 0.10227272727272751,
                "tempo": 120.0
            },
            {
                "start_time": 4.945454545454545,
                "end_time": 5.047727272727273,
                "pitch": 38,
                "velocity": 80,
                "duration": 0.10227272727272751,
                "tempo": 120.0
            },
            {
                "start_time": 5.047727272727273,
                "end_time": 5.1499999999999995,
                "pitch": 38,
                "velocity": 80,
                "duration": 0.10227272727272663,
                "tempo": 120.0
            },
            {
                "start_time": 5.152272727272727,
                "end_time": 5.252272727272727,
                "pitch": 38,
                "velocity": 80,
                "duration": 0.09999999999999964,
                "tempo": 120.0
            },
            {
                "start_time": 5.456818181818181,
                "end_time": 5.656818181818181,
                "pitch": 38,
                "velocity": 80,
                "duration": 0.20000000000000018,
                "tempo": 120.0
            },
            {
                "start_time": 5.656818181818181,
                "end_time": 5.756818181818182,
                "pitch": 38,
                "velocity": 80,
                "duration": 0.10000000000000053,
                "tempo": 120.0
            },
            {
                "start_time": 5.756818181818182,
                "end_time": 5.8568181818181815,
                "pitch": 38,
                "velocity": 80,
                "duration": 0.09999999999999964,
                "tempo": 120.0
            },
            {
                "start_time": 5.8568181818181815,
                "end_time": 5.956818181818181,
                "pitch": 38,
                "velocity": 80,
                "duration": 0.09999999999999964,
                "tempo": 120.0
            },
            {
                "start_time": 5.959090909090909,
                "end_time": 6.056818181818182,
                "pitch": 38,
                "velocity": 80,
                "duration": 0.09772727272727266,
                "tempo": 120.0
            },
            {
                "start_time": 6.461363636363636,
                "end_time": 6.561363636363636,
                "pitch": 43,
                "velocity": 80,
                "duration": 0.09999999999999964,
                "tempo": 120.0
            },
            {
                "start_time": 6.561363636363636,
                "end_time": 6.661363636363636,
                "pitch": 43,
                "velocity": 80,
                "duration": 0.10000000000000053,
                "tempo": 120.0
            },
            {
                "start_time": 6.661363636363636,
                "end_time": 6.761363636363636,
                "pitch": 43,
                "velocity": 80,
                "duration": 0.09999999999999964,
                "tempo": 120.0
            },
            {
                "start_time": 6.761363636363636,
                "end_time": 6.861363636363636,
                "pitch": 43,
                "velocity": 80,
                "duration": 0.10000000000000053,
                "tempo": 120.0
            },
            {
                "start_time": 7.0636363636363635,
                "end_time": 7.263636363636364,
                "pitch": 43,
                "velocity": 80,
                "duration": 0.20000000000000018,
                "tempo": 120.0
            },
            {
                "start_time": 7.263636363636364,
                "end_time": 7.36590909090909,
                "pitch": 43,
                "velocity": 80,
                "duration": 0.10227272727272663,
                "tempo": 120.0
            },
            {
                "start_time": 7.36590909090909,
                "end_time": 7.465909090909091,
                "pitch": 43,
                "velocity": 80,
                "duration": 0.10000000000000053,
                "tempo": 120.0
            },
            {
                "start_time": 7.465909090909091,
                "end_time": 7.5659090909090905,
                "pitch": 43,
                "velocity": 80,
                "duration": 0.09999999999999964,
                "tempo": 120.0
            },
            {
                "start_time": 7.5681818181818175,
                "end_time": 7.66590909090909,
                "pitch": 43,
                "velocity": 80,
                "duration": 0.09772727272727266,
                "tempo": 120.0
            },
            {
                "start_time": 8.068181818181818,
                "end_time": 8.168181818181818,
                "pitch": 41,
                "velocity": 80,
                "duration": 0.09999999999999964,
                "tempo": 120.0
            },
            {
                "start_time": 8.168181818181818,
                "end_time": 8.268181818181818,
                "pitch": 41,
                "velocity": 80,
                "duration": 0.09999999999999964,
                "tempo": 120.0
            },
            {
                "start_time": 8.268181818181818,
                "end_time": 8.368181818181817,
                "pitch": 41,
                "velocity": 80,
                "duration": 0.09999999999999964,
                "tempo": 120.0
            },
            {
                "start_time": 8.368181818181817,
                "end_time": 8.468181818181817,
                "pitch": 41,
                "velocity": 80,
                "duration": 0.09999999999999964,
                "tempo": 120.0
            },
            {
                "start_time": 8.670454545454545,
                "end_time": 8.870454545454544,
                "pitch": 41,
                "velocity": 80,
                "duration": 0.1999999999999993,
                "tempo": 120.0
            },
            {
                "start_time": 8.872727272727273,
                "end_time": 8.972727272727273,
                "pitch": 41,
                "velocity": 80,
                "duration": 0.09999999999999964,
                "tempo": 120.0
            },
            {
                "start_time": 8.972727272727273,
                "end_time": 9.072727272727272,
                "pitch": 41,
                "velocity": 80,
                "duration": 0.09999999999999964,
                "tempo": 120.0
            },
            {
                "start_time": 9.072727272727272,
                "end_time": 9.174999999999999,
                "pitch": 41,
                "velocity": 80,
                "duration": 0.10227272727272663,
                "tempo": 120.0
            },
            {
                "start_time": 9.174999999999999,
                "end_time": 9.275,
                "pitch": 41,
                "velocity": 80,
                "duration": 0.10000000000000142,
                "tempo": 120.0
            },
            {
                "start_time": 9.679545454545455,
                "end_time": 9.781818181818181,
                "pitch": 39,
                "velocity": 80,
                "duration": 0.10227272727272663,
                "tempo": 120.0
            },
            {
                "start_time": 9.781818181818181,
                "end_time": 9.884090909090908,
                "pitch": 39,
                "velocity": 80,
                "duration": 0.10227272727272663,
                "tempo": 120.0
            },
            {
                "start_time": 9.884090909090908,
                "end_time": 9.986363636363636,
                "pitch": 39,
                "velocity": 80,
                "duration": 0.1022727272727284,
                "tempo": 120.0
            },
            {
                "start_time": 9.988636363636363,
                "end_time": 10.088636363636363,
                "pitch": 39,
                "velocity": 80,
                "duration": 0.09999999999999964,
                "tempo": 120.0
            },
            {
                "start_time": 10.286363636363635,
                "end_time": 10.48181818181818,
                "pitch": 39,
                "velocity": 80,
                "duration": 0.19545454545454533,
                "tempo": 120.0
            },
            {
                "start_time": 10.48181818181818,
                "end_time": 10.584090909090909,
                "pitch": 39,
                "velocity": 80,
                "duration": 0.1022727272727284,
                "tempo": 120.0
            },
            {
                "start_time": 10.584090909090909,
                "end_time": 10.684090909090909,
                "pitch": 39,
                "velocity": 80,
                "duration": 0.09999999999999964,
                "tempo": 120.0
            },
            {
                "start_time": 10.684090909090909,
                "end_time": 10.784090909090908,
                "pitch": 39,
                "velocity": 80,
                "duration": 0.09999999999999964,
                "tempo": 120.0
            },
            {
                "start_time": 10.786363636363635,
                "end_time": 10.884090909090908,
                "pitch": 39,
                "velocity": 80,
                "duration": 0.09772727272727266,
                "tempo": 120.0
            },
            {
                "start_time": 11.288636363636362,
                "end_time": 11.39090909090909,
                "pitch": 38,
                "velocity": 80,
                "duration": 0.1022727272727284,
                "tempo": 120.0
            },
            {
                "start_time": 11.393181818181818,
                "end_time": 11.493181818181817,
                "pitch": 38,
                "velocity": 80,
                "duration": 0.09999999999999964,
                "tempo": 120.0
            },
            {
                "start_time": 11.495454545454544,
                "end_time": 11.597727272727273,
                "pitch": 38,
                "velocity": 80,
                "duration": 0.1022727272727284,
                "tempo": 120.0
            },
            {
                "start_time": 11.597727272727273,
                "end_time": 11.7,
                "pitch": 38,
                "velocity": 80,
                "duration": 0.10227272727272663,
                "tempo": 120.0
            },
            {
                "start_time": 11.902272727272727,
                "end_time": 12.102272727272727,
                "pitch": 38,
                "velocity": 80,
                "duration": 0.1999999999999993,
                "tempo": 120.0
            },
            {
                "start_time": 12.104545454545454,
                "end_time": 12.202272727272726,
                "pitch": 38,
                "velocity": 80,
                "duration": 0.09772727272727266,
                "tempo": 120.0
            },
            {
                "start_time": 12.204545454545453,
                "end_time": 12.302272727272726,
                "pitch": 38,
                "velocity": 80,
                "duration": 0.09772727272727266,
                "tempo": 120.0
            },
            {
                "start_time": 12.304545454545455,
                "end_time": 12.404545454545454,
                "pitch": 38,
                "velocity": 80,
                "duration": 0.09999999999999964,
                "tempo": 120.0
            },
            {
                "start_time": 12.404545454545454,
                "end_time": 12.502272727272727,
                "pitch": 38,
                "velocity": 80,
                "duration": 0.09772727272727266,
                "tempo": 120.0
            },
            {
                "start_time": 12.899999999999999,
                "end_time": 12.997727272727271,
                "pitch": 43,
                "velocity": 80,
                "duration": 0.09772727272727266,
                "tempo": 120.0
            },
            {
                "start_time": 13.0,
                "end_time": 13.102272727272727,
                "pitch": 43,
                "velocity": 80,
                "duration": 0.10227272727272663,
                "tempo": 120.0
            },
            {
                "start_time": 13.102272727272727,
                "end_time": 13.204545454545453,
                "pitch": 43,
                "velocity": 80,
                "duration": 0.10227272727272663,
                "tempo": 120.0
            },
            {
                "start_time": 13.204545454545453,
                "end_time": 13.311363636363636,
                "pitch": 43,
                "velocity": 80,
                "duration": 0.10681818181818237,
                "tempo": 120.0
            },
            {
                "start_time": 13.513636363636364,
                "end_time": 13.713636363636363,
                "pitch": 43,
                "velocity": 80,
                "duration": 0.1999999999999993,
                "tempo": 120.0
            },
            {
                "start_time": 13.713636363636363,
                "end_time": 13.813636363636363,
                "pitch": 43,
                "velocity": 80,
                "duration": 0.09999999999999964,
                "tempo": 120.0
            },
            {
                "start_time": 13.813636363636363,
                "end_time": 13.913636363636362,
                "pitch": 43,
                "velocity": 80,
                "duration": 0.09999999999999964,
                "tempo": 120.0
            },
            {
                "start_time": 13.915909090909091,
                "end_time": 14.013636363636364,
                "pitch": 43,
                "velocity": 80,
                "duration": 0.09772727272727266,
                "tempo": 120.0
            },
            {
                "start_time": 14.01590909090909,
                "end_time": 14.11590909090909,
                "pitch": 43,
                "velocity": 80,
                "duration": 0.09999999999999964,
                "tempo": 120.0
            },
            {
                "start_time": 14.518181818181818,
                "end_time": 14.61590909090909,
                "pitch": 43,
                "velocity": 80,
                "duration": 0.09772727272727266,
                "tempo": 120.0
            },
            {
                "start_time": 14.61590909090909,
                "end_time": 14.71590909090909,
                "pitch": 43,
                "velocity": 80,
                "duration": 0.09999999999999964,
                "tempo": 120.0
            },
            {
                "start_time": 14.718181818181817,
                "end_time": 14.818181818181818,
                "pitch": 43,
                "velocity": 80,
                "duration": 0.10000000000000142,
                "tempo": 120.0
            },
            {
                "start_time": 14.818181818181818,
                "end_time": 14.920454545454545,
                "pitch": 43,
                "velocity": 80,
                "duration": 0.10227272727272663,
                "tempo": 120.0
            },
            {
                "start_time": 15.120454545454544,
                "end_time": 15.322727272727272,
                "pitch": 43,
                "velocity": 80,
                "duration": 0.20227272727272805,
                "tempo": 120.0
            },
            {
                "start_time": 15.325,
                "end_time": 15.422727272727272,
                "pitch": 43,
                "velocity": 80,
                "duration": 0.09772727272727266,
                "tempo": 120.0
            },
            {
                "start_time": 15.422727272727272,
                "end_time": 15.524999999999999,
                "pitch": 43,
                "velocity": 80,
                "duration": 0.10227272727272663,
                "tempo": 120.0
            },
            {
                "start_time": 15.524999999999999,
                "end_time": 15.625,
                "pitch": 43,
                "velocity": 80,
                "duration": 0.10000000000000142,
                "tempo": 120.0
            },
            {
                "start_time": 15.625,
                "end_time": 15.725,
                "pitch": 43,
                "velocity": 80,
                "duration": 0.09999999999999964,
                "tempo": 120.0
            },
            {
                "start_time": 16.129545454545454,
                "end_time": 16.227272727272727,
                "pitch": 46,
                "velocity": 80,
                "duration": 0.09772727272727266,
                "tempo": 120.0
            },
            {
                "start_time": 16.229545454545455,
                "end_time": 16.329545454545453,
                "pitch": 46,
                "velocity": 80,
                "duration": 0.09999999999999787,
                "tempo": 120.0
            },
            {
                "start_time": 16.329545454545453,
                "end_time": 16.429545454545455,
                "pitch": 46,
                "velocity": 80,
                "duration": 0.10000000000000142,
                "tempo": 120.0
            },
            {
                "start_time": 16.429545454545455,
                "end_time": 16.529545454545453,
                "pitch": 46,
                "velocity": 80,
                "duration": 0.09999999999999787,
                "tempo": 120.0
            },
            {
                "start_time": 16.73181818181818,
                "end_time": 16.93181818181818,
                "pitch": 46,
                "velocity": 80,
                "duration": 0.1999999999999993,
                "tempo": 120.0
            },
            {
                "start_time": 16.93409090909091,
                "end_time": 17.03181818181818,
                "pitch": 46,
                "velocity": 80,
                "duration": 0.09772727272727266,
                "tempo": 120.0
            },
            {
                "start_time": 17.034090909090907,
                "end_time": 17.134090909090908,
                "pitch": 46,
                "velocity": 80,
                "duration": 0.10000000000000142,
                "tempo": 120.0
            },
            {
                "start_time": 17.134090909090908,
                "end_time": 17.23181818181818,
                "pitch": 46,
                "velocity": 80,
                "duration": 0.09772727272727266,
                "tempo": 120.0
            },
            {
                "start_time": 17.23181818181818,
                "end_time": 17.331818181818182,
                "pitch": 46,
                "velocity": 80,
                "duration": 0.10000000000000142,
                "tempo": 120.0
            },
            {
                "start_time": 17.73409090909091,
                "end_time": 17.836363636363636,
                "pitch": 46,
                "velocity": 80,
                "duration": 0.10227272727272663,
                "tempo": 120.0
            },
            {
                "start_time": 17.836363636363636,
                "end_time": 17.94090909090909,
                "pitch": 46,
                "velocity": 80,
                "duration": 0.10454545454545539,
                "tempo": 120.0
            },
            {
                "start_time": 17.94090909090909,
                "end_time": 18.04090909090909,
                "pitch": 46,
                "velocity": 80,
                "duration": 0.09999999999999787,
                "tempo": 120.0
            },
            {
                "start_time": 18.043181818181818,
                "end_time": 18.145454545454545,
                "pitch": 46,
                "velocity": 80,
                "duration": 0.10227272727272663,
                "tempo": 120.0
            },
            {
                "start_time": 18.347727272727273,
                "end_time": 18.55,
                "pitch": 46,
                "velocity": 80,
                "duration": 0.20227272727272805,
                "tempo": 120.0
            },
            {
                "start_time": 18.55,
                "end_time": 18.647727272727273,
                "pitch": 46,
                "velocity": 80,
                "duration": 0.09772727272727266,
                "tempo": 120.0
            },
            {
                "start_time": 18.647727272727273,
                "end_time": 18.75,
                "pitch": 46,
                "velocity": 80,
                "duration": 0.10227272727272663,
                "tempo": 120.0
            },
            {
                "start_time": 18.75,
                "end_time": 18.847727272727273,
                "pitch": 46,
                "velocity": 80,
                "duration": 0.09772727272727266,
                "tempo": 120.0
            },
            {
                "start_time": 18.849999999999998,
                "end_time": 18.95,
                "pitch": 46,
                "velocity": 80,
                "duration": 0.10000000000000142,
                "tempo": 120.0
            },
            {
                "start_time": 19.354545454545452,
                "end_time": 19.452272727272728,
                "pitch": 43,
                "velocity": 80,
                "duration": 0.09772727272727622,
                "tempo": 120.0
            },
            {
                "start_time": 19.452272727272728,
                "end_time": 19.552272727272726,
                "pitch": 43,
                "velocity": 80,
                "duration": 0.09999999999999787,
                "tempo": 120.0
            },
            {
                "start_time": 19.552272727272726,
                "end_time": 19.652272727272727,
                "pitch": 43,
                "velocity": 80,
                "duration": 0.10000000000000142,
                "tempo": 120.0
            },
            {
                "start_time": 19.652272727272727,
                "end_time": 19.754545454545454,
                "pitch": 43,
                "velocity": 80,
                "duration": 0.10227272727272663,
                "tempo": 120.0
            },
            {
                "start_time": 19.952272727272728,
                "end_time": 20.154545454545453,
                "pitch": 43,
                "velocity": 80,
                "duration": 0.2022727272727245,
                "tempo": 120.0
            },
            {
                "start_time": 20.154545454545453,
                "end_time": 20.252272727272725,
                "pitch": 43,
                "velocity": 80,
                "duration": 0.09772727272727266,
                "tempo": 120.0
            },
            {
                "start_time": 20.254545454545454,
                "end_time": 20.354545454545452,
                "pitch": 43,
                "velocity": 80,
                "duration": 0.09999999999999787,
                "tempo": 120.0
            },
            {
                "start_time": 20.35681818181818,
                "end_time": 20.454545454545453,
                "pitch": 43,
                "velocity": 80,
                "duration": 0.09772727272727266,
                "tempo": 120.0
            },
            {
                "start_time": 20.454545454545453,
                "end_time": 20.55681818181818,
                "pitch": 43,
                "velocity": 80,
                "duration": 0.10227272727272663,
                "tempo": 120.0
            },
            {
                "start_time": 20.956818181818182,
                "end_time": 21.05681818181818,
                "pitch": 43,
                "velocity": 80,
                "duration": 0.09999999999999787,
                "tempo": 120.0
            },
            {
                "start_time": 21.05681818181818,
                "end_time": 21.159090909090907,
                "pitch": 43,
                "velocity": 80,
                "duration": 0.10227272727272663,
                "tempo": 120.0
            },
            {
                "start_time": 21.159090909090907,
                "end_time": 21.259090909090908,
                "pitch": 43,
                "velocity": 80,
                "duration": 0.10000000000000142,
                "tempo": 120.0
            },
            {
                "start_time": 21.259090909090908,
                "end_time": 21.35909090909091,
                "pitch": 43,
                "velocity": 80,
                "duration": 0.10000000000000142,
                "tempo": 120.0
            },
            {
                "start_time": 21.561363636363634,
                "end_time": 21.761363636363637,
                "pitch": 43,
                "velocity": 80,
                "duration": 0.20000000000000284,
                "tempo": 120.0
            },
            {
                "start_time": 21.761363636363637,
                "end_time": 21.85909090909091,
                "pitch": 43,
                "velocity": 80,
                "duration": 0.09772727272727266,
                "tempo": 120.0
            },
            {
                "start_time": 21.861363636363635,
                "end_time": 21.961363636363636,
                "pitch": 43,
                "velocity": 80,
                "duration": 0.10000000000000142,
                "tempo": 120.0
            },
            {
                "start_time": 21.961363636363636,
                "end_time": 22.061363636363634,
                "pitch": 43,
                "velocity": 80,
                "duration": 0.09999999999999787,
                "tempo": 120.0
            },
            {
                "start_time": 22.061363636363634,
                "end_time": 22.161363636363635,
                "pitch": 43,
                "velocity": 80,
                "duration": 0.10000000000000142,
                "tempo": 120.0
            },
            {
                "start_time": 22.56590909090909,
                "end_time": 22.663636363636364,
                "pitch": 39,
                "velocity": 80,
                "duration": 0.09772727272727266,
                "tempo": 120.0
            },
            {
                "start_time": 22.663636363636364,
                "end_time": 22.763636363636362,
                "pitch": 39,
                "velocity": 80,
                "duration": 0.09999999999999787,
                "tempo": 120.0
            },
            {
                "start_time": 22.763636363636362,
                "end_time": 22.863636363636363,
                "pitch": 39,
                "velocity": 80,
                "duration": 0.10000000000000142,
                "tempo": 120.0
            },
            {
                "start_time": 22.86590909090909,
                "end_time": 22.96590909090909,
                "pitch": 39,
                "velocity": 80,
                "duration": 0.10000000000000142,
                "tempo": 120.0
            },
            {
                "start_time": 23.16590909090909,
                "end_time": 23.368181818181817,
                "pitch": 39,
                "velocity": 80,
                "duration": 0.20227272727272805,
                "tempo": 120.0
            },
            {
                "start_time": 23.370454545454546,
                "end_time": 23.46818181818182,
                "pitch": 39,
                "velocity": 80,
                "duration": 0.09772727272727266,
                "tempo": 120.0
            },
            {
                "start_time": 23.46818181818182,
                "end_time": 23.568181818181817,
                "pitch": 39,
                "velocity": 80,
                "duration": 0.09999999999999787,
                "tempo": 120.0
            },
            {
                "start_time": 23.568181818181817,
                "end_time": 23.668181818181818,
                "pitch": 39,
                "velocity": 80,
                "duration": 0.10000000000000142,
                "tempo": 120.0
            },
            {
                "start_time": 23.668181818181818,
                "end_time": 23.768181818181816,
                "pitch": 39,
                "velocity": 80,
                "duration": 0.09999999999999787,
                "tempo": 120.0
            },
            {
                "start_time": 24.170454545454543,
                "end_time": 24.268181818181816,
                "pitch": 39,
                "velocity": 80,
                "duration": 0.09772727272727266,
                "tempo": 120.0
            },
            {
                "start_time": 24.270454545454545,
                "end_time": 24.370454545454546,
                "pitch": 39,
                "velocity": 80,
                "duration": 0.10000000000000142,
                "tempo": 120.0
            },
            {
                "start_time": 24.37272727272727,
                "end_time": 24.470454545454544,
                "pitch": 39,
                "velocity": 80,
                "duration": 0.09772727272727266,
                "tempo": 120.0
            },
            {
                "start_time": 24.470454545454544,
                "end_time": 24.57272727272727,
                "pitch": 39,
                "velocity": 80,
                "duration": 0.10227272727272663,
                "tempo": 120.0
            },
            {
                "start_time": 24.777272727272727,
                "end_time": 24.986363636363635,
                "pitch": 39,
                "velocity": 80,
                "duration": 0.20909090909090722,
                "tempo": 120.0
            },
            {
                "start_time": 24.986363636363635,
                "end_time": 25.084090909090907,
                "pitch": 39,
                "velocity": 80,
                "duration": 0.09772727272727266,
                "tempo": 120.0
            },
            {
                "start_time": 25.084090909090907,
                "end_time": 25.18409090909091,
                "pitch": 39,
                "velocity": 80,
                "duration": 0.10000000000000142,
                "tempo": 120.0
            },
            {
                "start_time": 25.18409090909091,
                "end_time": 25.284090909090907,
                "pitch": 39,
                "velocity": 80,
                "duration": 0.09999999999999787,
                "tempo": 120.0
            },
            {
                "start_time": 25.286363636363635,
                "end_time": 25.384090909090908,
                "pitch": 39,
                "velocity": 80,
                "duration": 0.09772727272727266,
                "tempo": 120.0
            },
            {
                "start_time": 25.779545454545453,
                "end_time": 25.875,
                "pitch": 43,
                "velocity": 80,
                "duration": 0.09545454545454746,
                "tempo": 120.0
            },
            {
                "start_time": 25.875,
                "end_time": 25.974999999999998,
                "pitch": 43,
                "velocity": 80,
                "duration": 0.09999999999999787,
                "tempo": 120.0
            },
            {
                "start_time": 25.977272727272727,
                "end_time": 26.075,
                "pitch": 43,
                "velocity": 80,
                "duration": 0.09772727272727266,
                "tempo": 120.0
            },
            {
                "start_time": 26.077272727272724,
                "end_time": 26.179545454545455,
                "pitch": 43,
                "velocity": 80,
                "duration": 0.10227272727273018,
                "tempo": 120.0
            },
            {
                "start_time": 26.384090909090908,
                "end_time": 26.59090909090909,
                "pitch": 43,
                "velocity": 80,
                "duration": 0.206818181818182,
                "tempo": 120.0
            },
            {
                "start_time": 26.59090909090909,
                "end_time": 26.688636363636363,
                "pitch": 43,
                "velocity": 80,
                "duration": 0.09772727272727266,
                "tempo": 120.0
            },
            {
                "start_time": 26.69090909090909,
                "end_time": 26.79090909090909,
                "pitch": 43,
                "velocity": 80,
                "duration": 0.09999999999999787,
                "tempo": 120.0
            },
            {
                "start_time": 26.79090909090909,
                "end_time": 26.89090909090909,
                "pitch": 43,
                "velocity": 80,
                "duration": 0.10000000000000142,
                "tempo": 120.0
            },
            {
                "start_time": 26.89090909090909,
                "end_time": 26.993181818181817,
                "pitch": 43,
                "velocity": 80,
                "duration": 0.10227272727272663,
                "tempo": 120.0
            },
            {
                "start_time": 27.395454545454545,
                "end_time": 27.493181818181817,
                "pitch": 43,
                "velocity": 80,
                "duration": 0.09772727272727266,
                "tempo": 120.0
            },
            {
                "start_time": 27.493181818181817,
                "end_time": 27.593181818181815,
                "pitch": 43,
                "velocity": 80,
                "duration": 0.09999999999999787,
                "tempo": 120.0
            },
            {
                "start_time": 27.595454545454544,
                "end_time": 27.695454545454545,
                "pitch": 43,
                "velocity": 80,
                "duration": 0.10000000000000142,
                "tempo": 120.0
            },
            {
                "start_time": 27.695454545454545,
                "end_time": 27.797727272727272,
                "pitch": 43,
                "velocity": 80,
                "duration": 0.10227272727272663,
                "tempo": 120.0
            },
            {
                "start_time": 27.995454545454542,
                "end_time": 28.19772727272727,
                "pitch": 43,
                "velocity": 80,
                "duration": 0.20227272727272805,
                "tempo": 120.0
            },
            {
                "start_time": 28.19772727272727,
                "end_time": 28.295454545454543,
                "pitch": 43,
                "velocity": 80,
                "duration": 0.09772727272727266,
                "tempo": 120.0
            },
            {
                "start_time": 28.295454545454543,
                "end_time": 28.39772727272727,
                "pitch": 43,
                "velocity": 80,
                "duration": 0.10227272727272663,
                "tempo": 120.0
            },
            {
                "start_time": 28.39772727272727,
                "end_time": 28.495454545454542,
                "pitch": 43,
                "velocity": 80,
                "duration": 0.09772727272727266,
                "tempo": 120.0
            },
            {
                "start_time": 28.49772727272727,
                "end_time": 28.597727272727273,
                "pitch": 43,
                "velocity": 80,
                "duration": 0.10000000000000142,
                "tempo": 120.0
            },
            {
                "start_time": 29.0,
                "end_time": 29.099999999999998,
                "pitch": 46,
                "velocity": 80,
                "duration": 0.09999999999999787,
                "tempo": 120.0
            },
            {
                "start_time": 29.099999999999998,
                "end_time": 29.2,
                "pitch": 46,
                "velocity": 80,
                "duration": 0.10000000000000142,
                "tempo": 120.0
            },
            {
                "start_time": 29.2,
                "end_time": 29.299999999999997,
                "pitch": 46,
                "velocity": 80,
                "duration": 0.09999999999999787,
                "tempo": 120.0
            },
            {
                "start_time": 29.299999999999997,
                "end_time": 29.402272727272727,
                "pitch": 46,
                "velocity": 80,
                "duration": 0.10227272727273018,
                "tempo": 120.0
            },
            {
                "start_time": 29.602272727272727,
                "end_time": 29.804545454545455,
                "pitch": 46,
                "velocity": 80,
                "duration": 0.20227272727272805,
                "tempo": 120.0
            },
            {
                "start_time": 29.804545454545455,
                "end_time": 29.902272727272727,
                "pitch": 46,
                "velocity": 80,
                "duration": 0.09772727272727266,
                "tempo": 120.0
            },
            {
                "start_time": 29.904545454545453,
                "end_time": 30.004545454545454,
                "pitch": 46,
                "velocity": 80,
                "duration": 0.10000000000000142,
                "tempo": 120.0
            },
            {
                "start_time": 30.00681818181818,
                "end_time": 30.104545454545452,
                "pitch": 46,
                "velocity": 80,
                "duration": 0.09772727272727266,
                "tempo": 120.0
            },
            {
                "start_time": 30.104545454545452,
                "end_time": 30.204545454545453,
                "pitch": 46,
                "velocity": 80,
                "duration": 0.10000000000000142,
                "tempo": 120.0
            },
            {
                "start_time": 30.604545454545452,
                "end_time": 30.704545454545453,
                "pitch": 46,
                "velocity": 80,
                "duration": 0.10000000000000142,
                "tempo": 120.0
            },
            {
                "start_time": 30.706818181818182,
                "end_time": 30.80681818181818,
                "pitch": 46,
                "velocity": 80,
                "duration": 0.09999999999999787,
                "tempo": 120.0
            },
            {
                "start_time": 30.80681818181818,
                "end_time": 30.90681818181818,
                "pitch": 46,
                "velocity": 80,
                "duration": 0.10000000000000142,
                "tempo": 120.0
            },
            {
                "start_time": 30.90681818181818,
                "end_time": 31.00681818181818,
                "pitch": 46,
                "velocity": 80,
                "duration": 0.09999999999999787,
                "tempo": 120.0
            },
            {
                "start_time": 31.209090909090907,
                "end_time": 31.409090909090907,
                "pitch": 46,
                "velocity": 80,
                "duration": 0.1999999999999993,
                "tempo": 120.0
            },
            {
                "start_time": 31.411363636363635,
                "end_time": 31.509090909090908,
                "pitch": 46,
                "velocity": 80,
                "duration": 0.09772727272727266,
                "tempo": 120.0
            },
            {
                "start_time": 31.509090909090908,
                "end_time": 31.611363636363635,
                "pitch": 46,
                "velocity": 80,
                "duration": 0.10227272727272663,
                "tempo": 120.0
            },
            {
                "start_time": 31.611363636363635,
                "end_time": 31.711363636363636,
                "pitch": 46,
                "velocity": 80,
                "duration": 0.10000000000000142,
                "tempo": 120.0
            },
            {
                "start_time": 31.711363636363636,
                "end_time": 31.811363636363634,
                "pitch": 46,
                "velocity": 80,
                "duration": 0.09999999999999787,
                "tempo": 120.0
            },
            {
                "start_time": 32.21363636363636,
                "end_time": 32.31136363636364,
                "pitch": 43,
                "velocity": 80,
                "duration": 0.09772727272727622,
                "tempo": 120.0
            },
            {
                "start_time": 32.31363636363636,
                "end_time": 32.413636363636364,
                "pitch": 43,
                "velocity": 80,
                "duration": 0.10000000000000142,
                "tempo": 120.0
            },
            {
                "start_time": 32.413636363636364,
                "end_time": 32.513636363636365,
                "pitch": 43,
                "velocity": 80,
                "duration": 0.10000000000000142,
                "tempo": 120.0
            },
            {
                "start_time": 32.513636363636365,
                "end_time": 32.61590909090909,
                "pitch": 43,
                "velocity": 80,
                "duration": 0.10227272727272663,
                "tempo": 120.0
            },
            {
                "start_time": 32.820454545454545,
                "end_time": 33.027272727272724,
                "pitch": 43,
                "velocity": 80,
                "duration": 0.20681818181817846,
                "tempo": 120.0
            },
            {
                "start_time": 33.029545454545456,
                "end_time": 33.127272727272725,
                "pitch": 43,
                "velocity": 80,
                "duration": 0.09772727272726911,
                "tempo": 120.0
            },
            {
                "start_time": 33.127272727272725,
                "end_time": 33.22727272727273,
                "pitch": 43,
                "velocity": 80,
                "duration": 0.10000000000000142,
                "tempo": 120.0
            },
            {
                "start_time": 33.22727272727273,
                "end_time": 33.32727272727273,
                "pitch": 43,
                "velocity": 80,
                "duration": 0.10000000000000142,
                "tempo": 120.0
            },
            {
                "start_time": 33.32727272727273,
                "end_time": 33.42727272727272,
                "pitch": 43,
                "velocity": 80,
                "duration": 0.09999999999999432,
                "tempo": 120.0
            },
            {
                "start_time": 33.820454545454545,
                "end_time": 33.92272727272727,
                "pitch": 43,
                "velocity": 80,
                "duration": 0.10227272727272663,
                "tempo": 120.0
            },
            {
                "start_time": 33.92272727272727,
                "end_time": 34.025,
                "pitch": 43,
                "velocity": 80,
                "duration": 0.10227272727272663,
                "tempo": 120.0
            },
            {
                "start_time": 34.027272727272724,
                "end_time": 34.127272727272725,
                "pitch": 43,
                "velocity": 80,
                "duration": 0.10000000000000142,
                "tempo": 120.0
            },
            {
                "start_time": 34.12954545454545,
                "end_time": 34.23181818181818,
                "pitch": 43,
                "velocity": 80,
                "duration": 0.10227272727272663,
                "tempo": 120.0
            },
            {
                "start_time": 34.43181818181818,
                "end_time": 34.63409090909091,
                "pitch": 43,
                "velocity": 80,
                "duration": 0.20227272727272805,
                "tempo": 120.0
            },
            {
                "start_time": 34.63409090909091,
                "end_time": 34.73181818181818,
                "pitch": 43,
                "velocity": 80,
                "duration": 0.09772727272726911,
                "tempo": 120.0
            },
            {
                "start_time": 34.73181818181818,
                "end_time": 34.83181818181818,
                "pitch": 43,
                "velocity": 80,
                "duration": 0.10000000000000142,
                "tempo": 120.0
            },
            {
                "start_time": 34.83181818181818,
                "end_time": 34.93181818181818,
                "pitch": 43,
                "velocity": 80,
                "duration": 0.10000000000000142,
                "tempo": 120.0
            },
            {
                "start_time": 34.93181818181818,
                "end_time": 35.03181818181818,
                "pitch": 43,
                "velocity": 80,
                "duration": 0.10000000000000142,
                "tempo": 120.0
            },
            {
                "start_time": 35.42727272727272,
                "end_time": 35.527272727272724,
                "pitch": 39,
                "velocity": 80,
                "duration": 0.10000000000000142,
                "tempo": 120.0
            },
            {
                "start_time": 35.527272727272724,
                "end_time": 35.62954545454545,
                "pitch": 39,
                "velocity": 80,
                "duration": 0.10227272727272663,
                "tempo": 120.0
            },
            {
                "start_time": 35.63181818181818,
                "end_time": 35.73409090909091,
                "pitch": 39,
                "velocity": 80,
                "duration": 0.10227272727272663,
                "tempo": 120.0
            },
            {
                "start_time": 35.73409090909091,
                "end_time": 35.836363636363636,
                "pitch": 39,
                "velocity": 80,
                "duration": 0.10227272727272663,
                "tempo": 120.0
            },
            {
                "start_time": 36.03636363636363,
                "end_time": 36.23863636363636,
                "pitch": 39,
                "velocity": 80,
                "duration": 0.20227272727272805,
                "tempo": 120.0
            },
            {
                "start_time": 36.23863636363636,
                "end_time": 36.336363636363636,
                "pitch": 39,
                "velocity": 80,
                "duration": 0.09772727272727622,
                "tempo": 120.0
            },
            {
                "start_time": 36.336363636363636,
                "end_time": 36.43636363636364,
                "pitch": 39,
                "velocity": 80,
                "duration": 0.10000000000000142,
                "tempo": 120.0
            },
            {
                "start_time": 36.43863636363636,
                "end_time": 36.53636363636363,
                "pitch": 39,
                "velocity": 80,
                "duration": 0.09772727272726911,
                "tempo": 120.0
            },
            {
                "start_time": 36.53636363636363,
                "end_time": 36.63863636363636,
                "pitch": 39,
                "velocity": 80,
                "duration": 0.10227272727272663,
                "tempo": 120.0
            },
            {
                "start_time": 37.038636363636364,
                "end_time": 37.13863636363636,
                "pitch": 39,
                "velocity": 80,
                "duration": 0.09999999999999432,
                "tempo": 120.0
            },
            {
                "start_time": 37.13863636363636,
                "end_time": 37.23863636363636,
                "pitch": 39,
                "velocity": 80,
                "duration": 0.10000000000000142,
                "tempo": 120.0
            },
            {
                "start_time": 37.23863636363636,
                "end_time": 37.336363636363636,
                "pitch": 39,
                "velocity": 80,
                "duration": 0.09772727272727622,
                "tempo": 120.0
            },
            {
                "start_time": 37.33863636363636,
                "end_time": 37.43863636363636,
                "pitch": 39,
                "velocity": 80,
                "duration": 0.10000000000000142,
                "tempo": 120.0
            },
            {
                "start_time": 37.64090909090909,
                "end_time": 37.84318181818182,
                "pitch": 39,
                "velocity": 80,
                "duration": 0.20227272727272805,
                "tempo": 120.0
            },
            {
                "start_time": 37.84318181818182,
                "end_time": 37.94090909090909,
                "pitch": 39,
                "velocity": 80,
                "duration": 0.09772727272726911,
                "tempo": 120.0
            },
            {
                "start_time": 37.94318181818181,
                "end_time": 38.04090909090909,
                "pitch": 39,
                "velocity": 80,
                "duration": 0.09772727272727622,
                "tempo": 120.0
            },
            {
                "start_time": 38.043181818181814,
                "end_time": 38.14090909090909,
                "pitch": 39,
                "velocity": 80,
                "duration": 0.09772727272727622,
                "tempo": 120.0
            },
            {
                "start_time": 38.143181818181816,
                "end_time": 38.24318181818182,
                "pitch": 39,
                "velocity": 80,
                "duration": 0.10000000000000142,
                "tempo": 120.0
            },
            {
                "start_time": 38.64545454545454,
                "end_time": 38.74090909090909,
                "pitch": 41,
                "velocity": 80,
                "duration": 0.09545454545455101,
                "tempo": 120.0
            },
            {
                "start_time": 38.74090909090909,
                "end_time": 38.840909090909086,
                "pitch": 41,
                "velocity": 80,
                "duration": 0.09999999999999432,
                "tempo": 120.0
            },
            {
                "start_time": 38.840909090909086,
                "end_time": 38.94090909090909,
                "pitch": 41,
                "velocity": 80,
                "duration": 0.10000000000000142,
                "tempo": 120.0
            },
            {
                "start_time": 38.94318181818181,
                "end_time": 39.043181818181814,
                "pitch": 41,
                "velocity": 80,
                "duration": 0.10000000000000142,
                "tempo": 120.0
            },
            {
                "start_time": 39.24318181818182,
                "end_time": 39.44318181818181,
                "pitch": 41,
                "velocity": 80,
                "duration": 0.19999999999999574,
                "tempo": 120.0
            },
            {
                "start_time": 39.44318181818181,
                "end_time": 39.543181818181814,
                "pitch": 41,
                "velocity": 80,
                "duration": 0.10000000000000142,
                "tempo": 120.0
            },
            {
                "start_time": 39.54545454545455,
                "end_time": 39.64545454545454,
                "pitch": 41,
                "velocity": 80,
                "duration": 0.09999999999999432,
                "tempo": 120.0
            },
            {
                "start_time": 39.64545454545454,
                "end_time": 39.74545454545454,
                "pitch": 41,
                "velocity": 80,
                "duration": 0.10000000000000142,
                "tempo": 120.0
            },
            {
                "start_time": 39.74545454545454,
                "end_time": 39.845454545454544,
                "pitch": 41,
                "velocity": 80,
                "duration": 0.10000000000000142,
                "tempo": 120.0
            },
            {
                "start_time": 40.25,
                "end_time": 40.34772727272727,
                "pitch": 41,
                "velocity": 80,
                "duration": 0.09772727272726911,
                "tempo": 120.0
            },
            {
                "start_time": 40.34772727272727,
                "end_time": 40.44772727272727,
                "pitch": 41,
                "velocity": 80,
                "duration": 0.10000000000000142,
                "tempo": 120.0
            },
            {
                "start_time": 40.449999999999996,
                "end_time": 40.54772727272727,
                "pitch": 41,
                "velocity": 80,
                "duration": 0.09772727272727622,
                "tempo": 120.0
            },
            {
                "start_time": 40.54772727272727,
                "end_time": 40.64772727272727,
                "pitch": 41,
                "velocity": 80,
                "duration": 0.10000000000000142,
                "tempo": 120.0
            },
            {
                "start_time": 40.84772727272727,
                "end_time": 41.04772727272727,
                "pitch": 41,
                "velocity": 80,
                "duration": 0.20000000000000284,
                "tempo": 120.0
            },
            {
                "start_time": 41.04772727272727,
                "end_time": 41.15,
                "pitch": 41,
                "velocity": 80,
                "duration": 0.10227272727272663,
                "tempo": 120.0
            },
            {
                "start_time": 41.152272727272724,
                "end_time": 41.25454545454545,
                "pitch": 41,
                "velocity": 80,
                "duration": 0.10227272727272663,
                "tempo": 120.0
            },
            {
                "start_time": 41.25454545454545,
                "end_time": 41.35681818181818,
                "pitch": 41,
                "velocity": 80,
                "duration": 0.10227272727272663,
                "tempo": 120.0
            },
            {
                "start_time": 41.35681818181818,
                "end_time": 41.459090909090904,
                "pitch": 41,
                "velocity": 80,
                "duration": 0.10227272727272663,
                "tempo": 120.0
            },
            {
                "start_time": 41.85454545454545,
                "end_time": 41.95454545454545,
                "pitch": 38,
                "velocity": 80,
                "duration": 0.10000000000000142,
                "tempo": 120.0
            },
            {
                "start_time": 41.95454545454545,
                "end_time": 42.05681818181818,
                "pitch": 38,
                "velocity": 80,
                "duration": 0.10227272727272663,
                "tempo": 120.0
            },
            {
                "start_time": 42.05681818181818,
                "end_time": 42.16136363636363,
                "pitch": 38,
                "velocity": 80,
                "duration": 0.10454545454545183,
                "tempo": 120.0
            },
            {
                "start_time": 42.16136363636363,
                "end_time": 42.26363636363636,
                "pitch": 38,
                "velocity": 80,
                "duration": 0.10227272727272663,
                "tempo": 120.0
            },
            {
                "start_time": 42.46363636363636,
                "end_time": 42.663636363636364,
                "pitch": 38,
                "velocity": 80,
                "duration": 0.20000000000000284,
                "tempo": 120.0
            },
            {
                "start_time": 42.663636363636364,
                "end_time": 42.76363636363636,
                "pitch": 38,
                "velocity": 80,
                "duration": 0.09999999999999432,
                "tempo": 120.0
            },
            {
                "start_time": 42.76363636363636,
                "end_time": 42.86363636363636,
                "pitch": 38,
                "velocity": 80,
                "duration": 0.10000000000000142,
                "tempo": 120.0
            },
            {
                "start_time": 42.86363636363636,
                "end_time": 42.96363636363636,
                "pitch": 38,
                "velocity": 80,
                "duration": 0.10000000000000142,
                "tempo": 120.0
            },
            {
                "start_time": 42.965909090909086,
                "end_time": 43.06363636363636,
                "pitch": 38,
                "velocity": 80,
                "duration": 0.09772727272727622,
                "tempo": 120.0
            },
            {
                "start_time": 43.459090909090904,
                "end_time": 43.559090909090905,
                "pitch": 38,
                "velocity": 80,
                "duration": 0.10000000000000142,
                "tempo": 120.0
            },
            {
                "start_time": 43.559090909090905,
                "end_time": 43.66136363636363,
                "pitch": 38,
                "velocity": 80,
                "duration": 0.10227272727272663,
                "tempo": 120.0
            },
            {
                "start_time": 43.663636363636364,
                "end_time": 43.76590909090909,
                "pitch": 38,
                "velocity": 80,
                "duration": 0.10227272727272663,
                "tempo": 120.0
            },
            {
                "start_time": 43.76590909090909,
                "end_time": 43.86818181818182,
                "pitch": 38,
                "velocity": 80,
                "duration": 0.10227272727272663,
                "tempo": 120.0
            },
            {
                "start_time": 44.06818181818181,
                "end_time": 44.268181818181816,
                "pitch": 38,
                "velocity": 80,
                "duration": 0.20000000000000284,
                "tempo": 120.0
            },
            {
                "start_time": 44.27045454545454,
                "end_time": 44.36818181818182,
                "pitch": 38,
                "velocity": 80,
                "duration": 0.09772727272727622,
                "tempo": 120.0
            },
            {
                "start_time": 44.36818181818182,
                "end_time": 44.46818181818182,
                "pitch": 38,
                "velocity": 80,
                "duration": 0.10000000000000142,
                "tempo": 120.0
            },
            {
                "start_time": 44.470454545454544,
                "end_time": 44.56818181818181,
                "pitch": 38,
                "velocity": 80,
                "duration": 0.09772727272726911,
                "tempo": 120.0
            },
            {
                "start_time": 44.570454545454545,
                "end_time": 44.67045454545455,
                "pitch": 38,
                "velocity": 80,
                "duration": 0.10000000000000142,
                "tempo": 120.0
            },
            {
                "start_time": 45.07272727272727,
                "end_time": 45.17045454545455,
                "pitch": 41,
                "velocity": 80,
                "duration": 0.09772727272727622,
                "tempo": 120.0
            },
            {
                "start_time": 45.17045454545455,
                "end_time": 45.27045454545454,
                "pitch": 41,
                "velocity": 80,
                "duration": 0.09999999999999432,
                "tempo": 120.0
            },
            {
                "start_time": 45.27272727272727,
                "end_time": 45.37272727272727,
                "pitch": 41,
                "velocity": 80,
                "duration": 0.09999999999999432,
                "tempo": 120.0
            },
            {
                "start_time": 45.37272727272727,
                "end_time": 45.47272727272727,
                "pitch": 41,
                "velocity": 80,
                "duration": 0.10000000000000142,
                "tempo": 120.0
            },
            {
                "start_time": 45.675,
                "end_time": 45.87272727272727,
                "pitch": 41,
                "velocity": 80,
                "duration": 0.19772727272727053,
                "tempo": 120.0
            },
            {
                "start_time": 45.875,
                "end_time": 45.97272727272727,
                "pitch": 41,
                "velocity": 80,
                "duration": 0.09772727272726911,
                "tempo": 120.0
            },
            {
                "start_time": 45.974999999999994,
                "end_time": 46.07272727272727,
                "pitch": 41,
                "velocity": 80,
                "duration": 0.09772727272727622,
                "tempo": 120.0
            },
            {
                "start_time": 46.074999999999996,
                "end_time": 46.175,
                "pitch": 41,
                "velocity": 80,
                "duration": 0.10000000000000142,
                "tempo": 120.0
            },
            {
                "start_time": 46.175,
                "end_time": 46.275,
                "pitch": 41,
                "velocity": 80,
                "duration": 0.10000000000000142,
                "tempo": 120.0
            },
            {
                "start_time": 46.67727272727272,
                "end_time": 46.775,
                "pitch": 41,
                "velocity": 80,
                "duration": 0.09772727272727622,
                "tempo": 120.0
            },
            {
                "start_time": 46.775,
                "end_time": 46.875,
                "pitch": 41,
                "velocity": 80,
                "duration": 0.10000000000000142,
                "tempo": 120.0
            },
            {
                "start_time": 46.875,
                "end_time": 46.974999999999994,
                "pitch": 41,
                "velocity": 80,
                "duration": 0.09999999999999432,
                "tempo": 120.0
            },
            {
                "start_time": 46.974999999999994,
                "end_time": 47.074999999999996,
                "pitch": 41,
                "velocity": 80,
                "duration": 0.10000000000000142,
                "tempo": 120.0
            },
            {
                "start_time": 47.277272727272724,
                "end_time": 47.47727272727273,
                "pitch": 41,
                "velocity": 80,
                "duration": 0.20000000000000284,
                "tempo": 120.0
            },
            {
                "start_time": 47.47954545454545,
                "end_time": 47.57727272727273,
                "pitch": 41,
                "velocity": 80,
                "duration": 0.09772727272727622,
                "tempo": 120.0
            },
            {
                "start_time": 47.57954545454545,
                "end_time": 47.67727272727272,
                "pitch": 41,
                "velocity": 80,
                "duration": 0.09772727272726911,
                "tempo": 120.0
            },
            {
                "start_time": 47.679545454545455,
                "end_time": 47.77954545454545,
                "pitch": 41,
                "velocity": 80,
                "duration": 0.09999999999999432,
                "tempo": 120.0
            },
            {
                "start_time": 47.77954545454545,
                "end_time": 47.87954545454545,
                "pitch": 41,
                "velocity": 80,
                "duration": 0.10000000000000142,
                "tempo": 120.0
            },
            {
                "start_time": 48.28181818181818,
                "end_time": 48.37954545454545,
                "pitch": 45,
                "velocity": 80,
                "duration": 0.09772727272726911,
                "tempo": 120.0
            },
            {
                "start_time": 48.37954545454545,
                "end_time": 48.47954545454545,
                "pitch": 45,
                "velocity": 80,
                "duration": 0.10000000000000142,
                "tempo": 120.0
            },
            {
                "start_time": 48.48181818181818,
                "end_time": 48.57954545454545,
                "pitch": 45,
                "velocity": 80,
                "duration": 0.09772727272727622,
                "tempo": 120.0
            },
            {
                "start_time": 48.57954545454545,
                "end_time": 48.679545454545455,
                "pitch": 45,
                "velocity": 80,
                "duration": 0.10000000000000142,
                "tempo": 120.0
            },
            {
                "start_time": 48.87954545454545,
                "end_time": 49.07954545454545,
                "pitch": 45,
                "velocity": 80,
                "duration": 0.20000000000000284,
                "tempo": 120.0
            },
            {
                "start_time": 49.08181818181818,
                "end_time": 49.18181818181818,
                "pitch": 45,
                "velocity": 80,
                "duration": 0.10000000000000142,
                "tempo": 120.0
            },
            {
                "start_time": 49.18181818181818,
                "end_time": 49.28181818181818,
                "pitch": 45,
                "velocity": 80,
                "duration": 0.10000000000000142,
                "tempo": 120.0
            },
            {
                "start_time": 49.28181818181818,
                "end_time": 49.38181818181818,
                "pitch": 45,
                "velocity": 80,
                "duration": 0.10000000000000142,
                "tempo": 120.0
            },
            {
                "start_time": 49.38409090909091,
                "end_time": 49.48409090909091,
                "pitch": 45,
                "velocity": 80,
                "duration": 0.10000000000000142,
                "tempo": 120.0
            },
            {
                "start_time": 49.88636363636363,
                "end_time": 50.08863636363636,
                "pitch": 45,
                "velocity": 80,
                "duration": 0.20227272727272805,
                "tempo": 120.0
            },
            {
                "start_time": 50.090909090909086,
                "end_time": 50.29545454545454,
                "pitch": 57,
                "velocity": 80,
                "duration": 0.20454545454545325,
                "tempo": 120.0
            },
            {
                "start_time": 50.29772727272727,
                "end_time": 50.49772727272727,
                "pitch": 43,
                "velocity": 80,
                "duration": 0.19999999999999574,
                "tempo": 120.0
            },
            {
                "start_time": 50.49772727272727,
                "end_time": 50.69772727272727,
                "pitch": 55,
                "velocity": 80,
                "duration": 0.20000000000000284,
                "tempo": 120.0
            },
            {
                "start_time": 50.699999999999996,
                "end_time": 50.89772727272727,
                "pitch": 41,
                "velocity": 80,
                "duration": 0.19772727272727764,
                "tempo": 120.0
            },
            {
                "start_time": 50.9,
                "end_time": 51.09772727272727,
                "pitch": 53,
                "velocity": 80,
                "duration": 0.19772727272727053,
                "tempo": 120.0
            },
            {
                "start_time": 51.099999999999994,
                "end_time": 51.29545454545454,
                "pitch": 39,
                "velocity": 80,
                "duration": 0.19545454545454533,
                "tempo": 120.0
            },
            {
                "start_time": 51.29545454545454,
                "end_time": 51.490909090909085,
                "pitch": 51,
                "velocity": 80,
                "duration": 0.19545454545454533,
                "tempo": 120.0
            },
            {
                "start_time": 51.49318181818182,
                "end_time": 51.58863636363636,
                "pitch": 38,
                "velocity": 101,
                "duration": 0.0954545454545439,
                "tempo": 120.0
            },
            {
                "start_time": 51.590909090909086,
                "end_time": 51.788636363636364,
                "pitch": 38,
                "velocity": 101,
                "duration": 0.19772727272727764,
                "tempo": 120.0
            },
            {
                "start_time": 51.79090909090909,
                "end_time": 51.99318181818182,
                "pitch": 38,
                "velocity": 101,
                "duration": 0.20227272727272805,
                "tempo": 120.0
            },
            {
                "start_time": 51.99318181818182,
                "end_time": 52.095454545454544,
                "pitch": 48,
                "velocity": 101,
                "duration": 0.10227272727272663,
                "tempo": 120.0
            },
            {
                "start_time": 52.095454545454544,
                "end_time": 52.199999999999996,
                "pitch": 50,
                "velocity": 101,
                "duration": 0.10454545454545183,
                "tempo": 120.0
            },
            {
                "start_time": 52.199999999999996,
                "end_time": 52.30227272727272,
                "pitch": 38,
                "velocity": 101,
                "duration": 0.10227272727272663,
                "tempo": 120.0
            },
            {
                "start_time": 52.30227272727272,
                "end_time": 52.50681818181818,
                "pitch": 48,
                "velocity": 101,
                "duration": 0.20454545454546036,
                "tempo": 120.0
            },
            {
                "start_time": 52.50681818181818,
                "end_time": 52.60681818181818,
                "pitch": 38,
                "velocity": 101,
                "duration": 0.09999999999999432,
                "tempo": 120.0
            },
            {
                "start_time": 52.60909090909091,
                "end_time": 52.70454545454545,
                "pitch": 36,
                "velocity": 101,
                "duration": 0.0954545454545439,
                "tempo": 120.0
            },
            {
                "start_time": 52.70454545454545,
                "end_time": 53.00454545454545,
                "pitch": 46,
                "velocity": 101,
                "duration": 0.29999999999999716,
                "tempo": 120.0
            },
            {
                "start_time": 53.00454545454545,
                "end_time": 53.10681818181818,
                "pitch": 38,
                "velocity": 101,
                "duration": 0.10227272727272663,
                "tempo": 120.0
            },
            {
                "start_time": 53.10681818181818,
                "end_time": 53.20454545454545,
                "pitch": 46,
                "velocity": 101,
                "duration": 0.09772727272727622,
                "tempo": 120.0
            },
            {
                "start_time": 53.20681818181818,
                "end_time": 53.40454545454545,
                "pitch": 45,
                "velocity": 101,
                "duration": 0.19772727272727053,
                "tempo": 120.0
            },
            {
                "start_time": 53.40681818181818,
                "end_time": 53.70454545454545,
                "pitch": 38,
                "velocity": 101,
                "duration": 0.29772727272727195,
                "tempo": 120.0
            },
            {
                "start_time": 53.70681818181818,
                "end_time": 53.90681818181818,
                "pitch": 43,
                "velocity": 101,
                "duration": 0.20000000000000284,
                "tempo": 120.0
            },
            {
                "start_time": 53.90681818181818,
                "end_time": 54.00681818181818,
                "pitch": 53,
                "velocity": 101,
                "duration": 0.10000000000000142,
                "tempo": 120.0
            },
            {
                "start_time": 54.00681818181818,
                "end_time": 54.111363636363635,
                "pitch": 55,
                "velocity": 101,
                "duration": 0.10454545454545183,
                "tempo": 120.0
            },
            {
                "start_time": 54.00681818181818,
                "end_time": 54.211363636363636,
                "pitch": 43,
                "velocity": 101,
                "duration": 0.20454545454545325,
                "tempo": 120.0
            },
            {
                "start_time": 54.111363636363635,
                "end_time": 54.211363636363636,
                "pitch": 43,
                "velocity": 101,
                "duration": 0.10000000000000142,
                "tempo": 120.0
            },
            {
                "start_time": 54.211363636363636,
                "end_time": 54.30681818181818,
                "pitch": 53,
                "velocity": 101,
                "duration": 0.0954545454545439,
                "tempo": 120.0
            },
            {
                "start_time": 54.30681818181818,
                "end_time": 54.40909090909091,
                "pitch": 55,
                "velocity": 101,
                "duration": 0.10227272727272663,
                "tempo": 120.0
            },
            {
                "start_time": 54.30681818181818,
                "end_time": 54.50909090909091,
                "pitch": 43,
                "velocity": 101,
                "duration": 0.20227272727272805,
                "tempo": 120.0
            },
            {
                "start_time": 54.40909090909091,
                "end_time": 54.50909090909091,
                "pitch": 43,
                "velocity": 101,
                "duration": 0.10000000000000142,
                "tempo": 120.0
            },
            {
                "start_time": 54.50909090909091,
                "end_time": 54.60909090909091,
                "pitch": 55,
                "velocity": 101,
                "duration": 0.10000000000000142,
                "tempo": 120.0
            },
            {
                "start_time": 53.00454545454545,
                "end_time": 54.711363636363636,
                "pitch": 50,
                "velocity": 101,
                "duration": 1.7068181818181856,
                "tempo": 120.0
            },
            {
                "start_time": 54.60909090909091,
                "end_time": 54.711363636363636,
                "pitch": 50,
                "velocity": 101,
                "duration": 0.10227272727272663,
                "tempo": 120.0
            },
            {
                "start_time": 54.711363636363636,
                "end_time": 54.809090909090905,
                "pitch": 36,
                "velocity": 101,
                "duration": 0.09772727272726911,
                "tempo": 120.0
            },
            {
                "start_time": 54.81136363636363,
                "end_time": 55.00909090909091,
                "pitch": 36,
                "velocity": 101,
                "duration": 0.19772727272727764,
                "tempo": 120.0
            },
            {
                "start_time": 55.01136363636363,
                "end_time": 55.10909090909091,
                "pitch": 36,
                "velocity": 101,
                "duration": 0.09772727272727622,
                "tempo": 120.0
            },
            {
                "start_time": 55.111363636363635,
                "end_time": 55.31136363636363,
                "pitch": 46,
                "velocity": 101,
                "duration": 0.19999999999999574,
                "tempo": 120.0
            },
            {
                "start_time": 55.31136363636363,
                "end_time": 55.41136363636363,
                "pitch": 36,
                "velocity": 101,
                "duration": 0.10000000000000142,
                "tempo": 120.0
            },
            {
                "start_time": 55.41136363636363,
                "end_time": 55.51136363636363,
                "pitch": 36,
                "velocity": 101,
                "duration": 0.10000000000000142,
                "tempo": 120.0
            },
            {
                "start_time": 55.51136363636363,
                "end_time": 55.715909090909086,
                "pitch": 46,
                "velocity": 101,
                "duration": 0.20454545454545325,
                "tempo": 120.0
            },
            {
                "start_time": 55.715909090909086,
                "end_time": 55.81590909090909,
                "pitch": 36,
                "velocity": 101,
                "duration": 0.10000000000000142,
                "tempo": 120.0
            },
            {
                "start_time": 55.81590909090909,
                "end_time": 55.91136363636363,
                "pitch": 34,
                "velocity": 101,
                "duration": 0.0954545454545439,
                "tempo": 120.0
            },
            {
                "start_time": 55.913636363636364,
                "end_time": 56.115909090909085,
                "pitch": 45,
                "velocity": 101,
                "duration": 0.20227272727272094,
                "tempo": 120.0
            },
            {
                "start_time": 56.11818181818182,
                "end_time": 56.220454545454544,
                "pitch": 41,
                "velocity": 101,
                "duration": 0.10227272727272663,
                "tempo": 120.0
            },
            {
                "start_time": 56.220454545454544,
                "end_time": 56.32272727272727,
                "pitch": 36,
                "velocity": 101,
                "duration": 0.10227272727272663,
                "tempo": 120.0
            },
            {
                "start_time": 56.324999999999996,
                "end_time": 56.518181818181816,
                "pitch": 41,
                "velocity": 101,
                "duration": 0.19318181818182012,
                "tempo": 120.0
            },
            {
                "start_time": 56.52045454545454,
                "end_time": 56.715909090909086,
                "pitch": 53,
                "velocity": 101,
                "duration": 0.19545454545454533,
                "tempo": 120.0
            },
            {
                "start_time": 56.715909090909086,
                "end_time": 56.81590909090909,
                "pitch": 39,
                "velocity": 101,
                "duration": 0.10000000000000142,
                "tempo": 120.0
            },
            {
                "start_time": 56.81590909090909,
                "end_time": 57.01590909090909,
                "pitch": 51,
                "velocity": 101,
                "duration": 0.20000000000000284,
                "tempo": 120.0
            },
            {
                "start_time": 57.01590909090909,
                "end_time": 57.115909090909085,
                "pitch": 36,
                "velocity": 101,
                "duration": 0.09999999999999432,
                "tempo": 120.0
            },
            {
                "start_time": 57.115909090909085,
                "end_time": 57.215909090909086,
                "pitch": 48,
                "velocity": 101,
                "duration": 0.10000000000000142,
                "tempo": 120.0
            },
            {
                "start_time": 57.215909090909086,
                "end_time": 57.320454545454545,
                "pitch": 50,
                "velocity": 101,
                "duration": 0.10454545454545894,
                "tempo": 120.0
            },
            {
                "start_time": 57.320454545454545,
                "end_time": 57.42045454545454,
                "pitch": 36,
                "velocity": 101,
                "duration": 0.09999999999999432,
                "tempo": 120.0
            },
            {
                "start_time": 57.42045454545454,
                "end_time": 57.51590909090909,
                "pitch": 36,
                "velocity": 101,
                "duration": 0.09545454545455101,
                "tempo": 120.0
            },
            {
                "start_time": 57.518181818181816,
                "end_time": 57.615909090909085,
                "pitch": 50,
                "velocity": 101,
                "duration": 0.09772727272726911,
                "tempo": 120.0
            },
            {
                "start_time": 57.615909090909085,
                "end_time": 57.715909090909086,
                "pitch": 38,
                "velocity": 101,
                "duration": 0.10000000000000142,
                "tempo": 120.0
            },
            {
                "start_time": 57.71818181818182,
                "end_time": 57.918181818181814,
                "pitch": 51,
                "velocity": 101,
                "duration": 0.19999999999999574,
                "tempo": 120.0
            },
            {
                "start_time": 57.918181818181814,
                "end_time": 58.01590909090909,
                "pitch": 38,
                "velocity": 101,
                "duration": 0.09772727272727622,
                "tempo": 120.0
            },
            {
                "start_time": 58.018181818181816,
                "end_time": 58.215909090909086,
                "pitch": 38,
                "velocity": 101,
                "duration": 0.19772727272727053,
                "tempo": 120.0
            },
            {
                "start_time": 58.21818181818182,
                "end_time": 58.418181818181814,
                "pitch": 38,
                "velocity": 101,
                "duration": 0.19999999999999574,
                "tempo": 120.0
            },
            {
                "start_time": 57.320454545454545,
                "end_time": 58.52045454545454,
                "pitch": 48,
                "velocity": 101,
                "duration": 1.1999999999999957,
                "tempo": 120.0
            },
            {
                "start_time": 58.418181818181814,
                "end_time": 58.52045454545454,
                "pitch": 48,
                "velocity": 101,
                "duration": 0.10227272727272663,
                "tempo": 120.0
            },
            {
                "start_time": 58.52045454545454,
                "end_time": 58.62045454545454,
                "pitch": 50,
                "velocity": 101,
                "duration": 0.10000000000000142,
                "tempo": 120.0
            },
            {
                "start_time": 58.62045454545454,
                "end_time": 58.720454545454544,
                "pitch": 38,
                "velocity": 101,
                "duration": 0.10000000000000142,
                "tempo": 120.0
            },
            {
                "start_time": 58.72272727272727,
                "end_time": 58.925,
                "pitch": 48,
                "velocity": 101,
                "duration": 0.20227272727272805,
                "tempo": 120.0
            },
            {
                "start_time": 58.925,
                "end_time": 59.025,
                "pitch": 38,
                "velocity": 101,
                "duration": 0.10000000000000142,
                "tempo": 120.0
            },
            {
                "start_time": 59.025,
                "end_time": 59.12045454545454,
                "pitch": 36,
                "velocity": 101,
                "duration": 0.0954545454545439,
                "tempo": 120.0
            },
            {
                "start_time": 59.12272727272727,
                "end_time": 59.42272727272727,
                "pitch": 46,
                "velocity": 101,
                "duration": 0.30000000000000426,
                "tempo": 120.0
            },
            {
                "start_time": 59.42272727272727,
                "end_time": 59.52272727272727,
                "pitch": 38,
                "velocity": 101,
                "duration": 0.10000000000000142,
                "tempo": 120.0
            },
            {
                "start_time": 59.52272727272727,
                "end_time": 59.62045454545454,
                "pitch": 46,
                "velocity": 101,
                "duration": 0.09772727272726911,
                "tempo": 120.0
            },
            {
                "start_time": 59.62272727272727,
                "end_time": 59.82272727272727,
                "pitch": 45,
                "velocity": 101,
                "duration": 0.20000000000000284,
                "tempo": 120.0
            },
            {
                "start_time": 59.82272727272727,
                "end_time": 60.127272727272725,
                "pitch": 38,
                "velocity": 101,
                "duration": 0.3045454545454547,
                "tempo": 120.0
            },
            {
                "start_time": 60.12954545454545,
                "end_time": 60.334090909090904,
                "pitch": 43,
                "velocity": 101,
                "duration": 0.20454545454545325,
                "tempo": 120.0
            },
            {
                "start_time": 60.334090909090904,
                "end_time": 60.434090909090905,
                "pitch": 53,
                "velocity": 101,
                "duration": 0.10000000000000142,
                "tempo": 120.0
            },
            {
                "start_time": 60.434090909090905,
                "end_time": 60.538636363636364,
                "pitch": 55,
                "velocity": 101,
                "duration": 0.10454545454545894,
                "tempo": 120.0
            },
            {
                "start_time": 60.434090909090905,
                "end_time": 60.63636363636363,
                "pitch": 43,
                "velocity": 101,
                "duration": 0.20227272727272805,
                "tempo": 120.0
            },
            {
                "start_time": 60.538636363636364,
                "end_time": 60.63636363636363,
                "pitch": 43,
                "velocity": 101,
                "duration": 0.09772727272726911,
                "tempo": 120.0
            },
            {
                "start_time": 60.63863636363636,
                "end_time": 60.73409090909091,
                "pitch": 53,
                "velocity": 101,
                "duration": 0.09545454545455101,
                "tempo": 120.0
            },
            {
                "start_time": 60.73409090909091,
                "end_time": 60.834090909090904,
                "pitch": 55,
                "velocity": 101,
                "duration": 0.09999999999999432,
                "tempo": 120.0
            },
            {
                "start_time": 60.73409090909091,
                "end_time": 60.934090909090905,
                "pitch": 43,
                "velocity": 101,
                "duration": 0.19999999999999574,
                "tempo": 120.0
            },
            {
                "start_time": 60.834090909090904,
                "end_time": 60.934090909090905,
                "pitch": 43,
                "velocity": 101,
                "duration": 0.10000000000000142,
                "tempo": 120.0
            },
            {
                "start_time": 60.934090909090905,
                "end_time": 61.03409090909091,
                "pitch": 55,
                "velocity": 101,
                "duration": 0.10000000000000142,
                "tempo": 120.0
            },
            {
                "start_time": 59.42272727272727,
                "end_time": 61.13409090909091,
                "pitch": 50,
                "velocity": 101,
                "duration": 1.711363636363636,
                "tempo": 120.0
            },
            {
                "start_time": 61.03409090909091,
                "end_time": 61.13409090909091,
                "pitch": 50,
                "velocity": 101,
                "duration": 0.10000000000000142,
                "tempo": 120.0
            },
            {
                "start_time": 61.13636363636363,
                "end_time": 61.23409090909091,
                "pitch": 46,
                "velocity": 101,
                "duration": 0.09772727272727622,
                "tempo": 120.0
            },
            {
                "start_time": 61.236363636363635,
                "end_time": 61.434090909090905,
                "pitch": 53,
                "velocity": 101,
                "duration": 0.19772727272727053,
                "tempo": 120.0
            },
            {
                "start_time": 61.43636363636363,
                "end_time": 61.73409090909091,
                "pitch": 50,
                "velocity": 101,
                "duration": 0.29772727272727906,
                "tempo": 120.0
            },
            {
                "start_time": 61.736363636363635,
                "end_time": 61.93636363636363,
                "pitch": 46,
                "velocity": 101,
                "duration": 0.19999999999999574,
                "tempo": 120.0
            },
            {
                "start_time": 61.93636363636363,
                "end_time": 62.240909090909085,
                "pitch": 44,
                "velocity": 101,
                "duration": 0.3045454545454547,
                "tempo": 120.0
            },
            {
                "start_time": 62.24318181818182,
                "end_time": 62.538636363636364,
                "pitch": 45,
                "velocity": 101,
                "duration": 0.29545454545454675,
                "tempo": 120.0
            },
            {
                "start_time": 62.538636363636364,
                "end_time": 62.740909090909085,
                "pitch": 46,
                "velocity": 101,
                "duration": 0.20227272727272094,
                "tempo": 120.0
            }
        ],
        "Electric Piano 1": [
            {
                "start_time": 12.897727272727272,
                "end_time": 13.1,
                "pitch": 55,
                "velocity": 80,
                "duration": 0.20227272727272805,
                "tempo": 120.0
            },
            {
                "start_time": 13.102272727272727,
                "end_time": 13.306818181818182,
                "pitch": 57,
                "velocity": 80,
                "duration": 0.20454545454545503,
                "tempo": 120.0
            },
            {
                "start_time": 13.306818181818182,
                "end_time": 13.506818181818181,
                "pitch": 58,
                "velocity": 80,
                "duration": 0.1999999999999993,
                "tempo": 120.0
            },
            {
                "start_time": 13.509090909090908,
                "end_time": 13.709090909090909,
                "pitch": 60,
                "velocity": 80,
                "duration": 0.20000000000000107,
                "tempo": 120.0
            },
            {
                "start_time": 13.711363636363636,
                "end_time": 14.111363636363636,
                "pitch": 62,
                "velocity": 80,
                "duration": 0.40000000000000036,
                "tempo": 120.0
            },
            {
                "start_time": 14.113636363636363,
                "end_time": 14.513636363636364,
                "pitch": 60,
                "velocity": 80,
                "duration": 0.40000000000000036,
                "tempo": 120.0
            },
            {
                "start_time": 14.51590909090909,
                "end_time": 14.915909090909091,
                "pitch": 58,
                "velocity": 80,
                "duration": 0.40000000000000036,
                "tempo": 120.0
            },
            {
                "start_time": 14.918181818181818,
                "end_time": 15.318181818181817,
                "pitch": 65,
                "velocity": 80,
                "duration": 0.3999999999999986,
                "tempo": 120.0
            },
            {
                "start_time": 15.320454545454545,
                "end_time": 15.520454545454545,
                "pitch": 63,
                "velocity": 80,
                "duration": 0.1999999999999993,
                "tempo": 120.0
            },
            {
                "start_time": 15.522727272727272,
                "end_time": 16.125,
                "pitch": 62,
                "velocity": 80,
                "duration": 0.6022727272727284,
                "tempo": 120.0
            },
            {
                "start_time": 16.127272727272725,
                "end_time": 16.525,
                "pitch": 63,
                "velocity": 80,
                "duration": 0.3977272727272734,
                "tempo": 120.0
            },
            {
                "start_time": 16.527272727272727,
                "end_time": 16.727272727272727,
                "pitch": 65,
                "velocity": 80,
                "duration": 0.1999999999999993,
                "tempo": 120.0
            },
            {
                "start_time": 16.729545454545455,
                "end_time": 17.129545454545454,
                "pitch": 58,
                "velocity": 80,
                "duration": 0.3999999999999986,
                "tempo": 120.0
            },
            {
                "start_time": 17.131818181818183,
                "end_time": 17.529545454545453,
                "pitch": 60,
                "velocity": 80,
                "duration": 0.3977272727272698,
                "tempo": 120.0
            },
            {
                "start_time": 17.53181818181818,
                "end_time": 17.936363636363634,
                "pitch": 62,
                "velocity": 80,
                "duration": 0.40454545454545254,
                "tempo": 120.0
            },
            {
                "start_time": 17.938636363636363,
                "end_time": 18.14090909090909,
                "pitch": 60,
                "velocity": 80,
                "duration": 0.20227272727272805,
                "tempo": 120.0
            },
            {
                "start_time": 18.143181818181816,
                "end_time": 18.34318181818182,
                "pitch": 62,
                "velocity": 80,
                "duration": 0.20000000000000284,
                "tempo": 120.0
            },
            {
                "start_time": 18.345454545454544,
                "end_time": 18.545454545454543,
                "pitch": 60,
                "velocity": 80,
                "duration": 0.1999999999999993,
                "tempo": 120.0
            },
            {
                "start_time": 18.547727272727272,
                "end_time": 18.745454545454546,
                "pitch": 58,
                "velocity": 80,
                "duration": 0.19772727272727408,
                "tempo": 120.0
            },
            {
                "start_time": 18.74772727272727,
                "end_time": 19.18181818181818,
                "pitch": 55,
                "velocity": 80,
                "duration": 0.43409090909090864,
                "tempo": 120.0
            },
            {
                "start_time": 19.18181818181818,
                "end_time": 19.21590909090909,
                "pitch": 55,
                "velocity": 80,
                "duration": 0.03409090909091006,
                "tempo": 120.0
            },
            {
                "start_time": 19.21590909090909,
                "end_time": 19.349999999999998,
                "pitch": 55,
                "velocity": 80,
                "duration": 0.13409090909090793,
                "tempo": 120.0
            },
            {
                "start_time": 19.352272727272727,
                "end_time": 19.75,
                "pitch": 55,
                "velocity": 80,
                "duration": 0.3977272727272734,
                "tempo": 120.0
            },
            {
                "start_time": 19.75,
                "end_time": 20.15,
                "pitch": 62,
                "velocity": 80,
                "duration": 0.3999999999999986,
                "tempo": 120.0
            },
            {
                "start_time": 20.152272727272727,
                "end_time": 20.352272727272727,
                "pitch": 58,
                "velocity": 80,
                "duration": 0.1999999999999993,
                "tempo": 120.0
            },
            {
                "start_time": 20.352272727272727,
                "end_time": 20.752272727272725,
                "pitch": 60,
                "velocity": 80,
                "duration": 0.3999999999999986,
                "tempo": 120.0
            },
            {
                "start_time": 20.754545454545454,
                "end_time": 21.35681818181818,
                "pitch": 62,
                "velocity": 80,
                "duration": 0.6022727272727266,
                "tempo": 120.0
            },
            {
                "start_time": 21.35909090909091,
                "end_time": 21.75681818181818,
                "pitch": 65,
                "velocity": 80,
                "duration": 0.3977272727272698,
                "tempo": 120.0
            },
            {
                "start_time": 21.759090909090908,
                "end_time": 21.956818181818182,
                "pitch": 63,
                "velocity": 80,
                "duration": 0.19772727272727408,
                "tempo": 120.0
            },
            {
                "start_time": 21.959090909090907,
                "end_time": 22.561363636363634,
                "pitch": 58,
                "velocity": 80,
                "duration": 0.6022727272727266,
                "tempo": 120.0
            },
            {
                "start_time": 22.563636363636363,
                "end_time": 22.961363636363636,
                "pitch": 60,
                "velocity": 80,
                "duration": 0.3977272727272734,
                "tempo": 120.0
            },
            {
                "start_time": 22.96363636363636,
                "end_time": 23.363636363636363,
                "pitch": 58,
                "velocity": 80,
                "duration": 0.40000000000000213,
                "tempo": 120.0
            },
            {
                "start_time": 23.36590909090909,
                "end_time": 23.563636363636363,
                "pitch": 57,
                "velocity": 80,
                "duration": 0.19772727272727408,
                "tempo": 120.0
            },
            {
                "start_time": 23.56590909090909,
                "end_time": 23.76590909090909,
                "pitch": 58,
                "velocity": 80,
                "duration": 0.1999999999999993,
                "tempo": 120.0
            },
            {
                "start_time": 23.76590909090909,
                "end_time": 23.96590909090909,
                "pitch": 57,
                "velocity": 80,
                "duration": 0.1999999999999993,
                "tempo": 120.0
            },
            {
                "start_time": 23.96818181818182,
                "end_time": 24.368181818181817,
                "pitch": 55,
                "velocity": 80,
                "duration": 0.3999999999999986,
                "tempo": 120.0
            },
            {
                "start_time": 19.18181818181818,
                "end_time": 24.368181818181817,
                "pitch": 67,
                "velocity": 80,
                "duration": 5.186363636363637,
                "tempo": 120.0
            },
            {
                "start_time": 19.21590909090909,
                "end_time": 24.402272727272727,
                "pitch": 43,
                "velocity": 80,
                "duration": 5.186363636363637,
                "tempo": 120.0
            },
            {
                "start_time": 24.368181818181817,
                "end_time": 24.402272727272727,
                "pitch": 55,
                "velocity": 80,
                "duration": 0.03409090909091006,
                "tempo": 120.0
            },
            {
                "start_time": 24.402272727272727,
                "end_time": 24.536363636363635,
                "pitch": 55,
                "velocity": 80,
                "duration": 0.13409090909090793,
                "tempo": 120.0
            },
            {
                "start_time": 24.368181818181817,
                "end_time": 24.536363636363635,
                "pitch": 67,
                "velocity": 80,
                "duration": 0.168181818181818,
                "tempo": 120.0
            },
            {
                "start_time": 24.402272727272727,
                "end_time": 24.570454545454545,
                "pitch": 43,
                "velocity": 80,
                "duration": 0.168181818181818,
                "tempo": 120.0
            },
            {
                "start_time": 24.536363636363635,
                "end_time": 24.570454545454545,
                "pitch": 55,
                "velocity": 80,
                "duration": 0.03409090909091006,
                "tempo": 120.0
            },
            {
                "start_time": 24.570454545454545,
                "end_time": 24.706818181818182,
                "pitch": 55,
                "velocity": 80,
                "duration": 0.1363636363636367,
                "tempo": 120.0
            },
            {
                "start_time": 24.536363636363635,
                "end_time": 24.706818181818182,
                "pitch": 67,
                "velocity": 80,
                "duration": 0.17045454545454675,
                "tempo": 120.0
            },
            {
                "start_time": 24.570454545454545,
                "end_time": 24.74090909090909,
                "pitch": 43,
                "velocity": 80,
                "duration": 0.1704545454545432,
                "tempo": 120.0
            },
            {
                "start_time": 24.706818181818182,
                "end_time": 24.74090909090909,
                "pitch": 55,
                "velocity": 80,
                "duration": 0.03409090909090651,
                "tempo": 120.0
            },
            {
                "start_time": 24.74090909090909,
                "end_time": 24.879545454545454,
                "pitch": 55,
                "velocity": 80,
                "duration": 0.13863636363636545,
                "tempo": 120.0
            },
            {
                "start_time": 24.706818181818182,
                "end_time": 24.879545454545454,
                "pitch": 67,
                "velocity": 80,
                "duration": 0.17272727272727195,
                "tempo": 120.0
            },
            {
                "start_time": 24.74090909090909,
                "end_time": 24.913636363636364,
                "pitch": 43,
                "velocity": 80,
                "duration": 0.1727272727272755,
                "tempo": 120.0
            },
            {
                "start_time": 24.879545454545454,
                "end_time": 24.913636363636364,
                "pitch": 55,
                "velocity": 80,
                "duration": 0.03409090909091006,
                "tempo": 120.0
            },
            {
                "start_time": 24.913636363636364,
                "end_time": 24.979545454545452,
                "pitch": 55,
                "velocity": 80,
                "duration": 0.06590909090908781,
                "tempo": 120.0
            },
            {
                "start_time": 24.98181818181818,
                "end_time": 25.079545454545453,
                "pitch": 70,
                "velocity": 101,
                "duration": 0.09772727272727266,
                "tempo": 120.0
            },
            {
                "start_time": 25.081818181818182,
                "end_time": 25.179545454545455,
                "pitch": 69,
                "velocity": 101,
                "duration": 0.09772727272727266,
                "tempo": 120.0
            },
            {
                "start_time": 24.879545454545454,
                "end_time": 25.279545454545453,
                "pitch": 67,
                "velocity": 80,
                "duration": 0.3999999999999986,
                "tempo": 120.0
            },
            {
                "start_time": 25.18181818181818,
                "end_time": 25.279545454545453,
                "pitch": 67,
                "velocity": 101,
                "duration": 0.09772727272727266,
                "tempo": 120.0
            },
            {
                "start_time": 25.28181818181818,
                "end_time": 25.379545454545454,
                "pitch": 65,
                "velocity": 101,
                "duration": 0.09772727272727266,
                "tempo": 120.0
            },
            {
                "start_time": 25.38181818181818,
                "end_time": 25.479545454545452,
                "pitch": 67,
                "velocity": 101,
                "duration": 0.09772727272727266,
                "tempo": 120.0
            },
            {
                "start_time": 25.479545454545452,
                "end_time": 25.577272727272724,
                "pitch": 69,
                "velocity": 101,
                "duration": 0.09772727272727266,
                "tempo": 120.0
            },
            {
                "start_time": 25.579545454545453,
                "end_time": 25.674999999999997,
                "pitch": 70,
                "velocity": 101,
                "duration": 0.0954545454545439,
                "tempo": 120.0
            },
            {
                "start_time": 25.677272727272726,
                "end_time": 25.77272727272727,
                "pitch": 72,
                "velocity": 101,
                "duration": 0.0954545454545439,
                "tempo": 120.0
            },
            {
                "start_time": 25.777272727272727,
                "end_time": 25.972727272727273,
                "pitch": 55,
                "velocity": 80,
                "duration": 0.19545454545454533,
                "tempo": 120.0
            },
            {
                "start_time": 25.974999999999998,
                "end_time": 26.174999999999997,
                "pitch": 57,
                "velocity": 80,
                "duration": 0.1999999999999993,
                "tempo": 120.0
            },
            {
                "start_time": 26.174999999999997,
                "end_time": 26.379545454545454,
                "pitch": 58,
                "velocity": 80,
                "duration": 0.2045454545454568,
                "tempo": 120.0
            },
            {
                "start_time": 26.38181818181818,
                "end_time": 26.586363636363636,
                "pitch": 60,
                "velocity": 80,
                "duration": 0.2045454545454568,
                "tempo": 120.0
            },
            {
                "start_time": 26.586363636363636,
                "end_time": 26.988636363636363,
                "pitch": 62,
                "velocity": 80,
                "duration": 0.40227272727272734,
                "tempo": 120.0
            },
            {
                "start_time": 26.99090909090909,
                "end_time": 27.388636363636362,
                "pitch": 60,
                "velocity": 80,
                "duration": 0.3977272727272734,
                "tempo": 120.0
            },
            {
                "start_time": 27.39090909090909,
                "end_time": 27.793181818181818,
                "pitch": 58,
                "velocity": 80,
                "duration": 0.40227272727272734,
                "tempo": 120.0
            },
            {
                "start_time": 27.793181818181818,
                "end_time": 28.193181818181817,
                "pitch": 65,
                "velocity": 80,
                "duration": 0.3999999999999986,
                "tempo": 120.0
            },
            {
                "start_time": 28.195454545454545,
                "end_time": 28.393181818181816,
                "pitch": 63,
                "velocity": 80,
                "duration": 0.19772727272727053,
                "tempo": 120.0
            },
            {
                "start_time": 28.395454545454545,
                "end_time": 28.99772727272727,
                "pitch": 62,
                "velocity": 80,
                "duration": 0.6022727272727266,
                "tempo": 120.0
            },
            {
                "start_time": 29.0,
                "end_time": 29.39772727272727,
                "pitch": 63,
                "velocity": 80,
                "duration": 0.3977272727272698,
                "tempo": 120.0
            },
            {
                "start_time": 29.4,
                "end_time": 29.597727272727273,
                "pitch": 65,
                "velocity": 80,
                "duration": 0.19772727272727408,
                "tempo": 120.0
            },
            {
                "start_time": 29.599999999999998,
                "end_time": 30.0,
                "pitch": 58,
                "velocity": 80,
                "duration": 0.40000000000000213,
                "tempo": 120.0
            },
            {
                "start_time": 30.002272727272725,
                "end_time": 30.4,
                "pitch": 60,
                "velocity": 80,
                "duration": 0.3977272727272734,
                "tempo": 120.0
            },
            {
                "start_time": 30.402272727272727,
                "end_time": 30.802272727272726,
                "pitch": 62,
                "velocity": 80,
                "duration": 0.3999999999999986,
                "tempo": 120.0
            },
            {
                "start_time": 30.804545454545455,
                "end_time": 31.004545454545454,
                "pitch": 60,
                "velocity": 80,
                "duration": 0.1999999999999993,
                "tempo": 120.0
            },
            {
                "start_time": 31.00681818181818,
                "end_time": 31.204545454545453,
                "pitch": 62,
                "velocity": 80,
                "duration": 0.19772727272727408,
                "tempo": 120.0
            },
            {
                "start_time": 31.206818181818182,
                "end_time": 31.404545454545453,
                "pitch": 60,
                "velocity": 80,
                "duration": 0.19772727272727053,
                "tempo": 120.0
            },
            {
                "start_time": 31.40681818181818,
                "end_time": 31.60681818181818,
                "pitch": 58,
                "velocity": 80,
                "duration": 0.1999999999999993,
                "tempo": 120.0
            },
            {
                "start_time": 31.609090909090906,
                "end_time": 32.059090909090905,
                "pitch": 55,
                "velocity": 80,
                "duration": 0.4499999999999993,
                "tempo": 120.0
            },
            {
                "start_time": 24.913636363636364,
                "end_time": 32.09318181818182,
                "pitch": 43,
                "velocity": 80,
                "duration": 7.179545454545455,
                "tempo": 120.0
            },
            {
                "start_time": 32.059090909090905,
                "end_time": 32.09318181818182,
                "pitch": 55,
                "velocity": 80,
                "duration": 0.03409090909091361,
                "tempo": 120.0
            },
            {
                "start_time": 32.09318181818182,
                "end_time": 32.20909090909091,
                "pitch": 55,
                "velocity": 80,
                "duration": 0.11590909090909207,
                "tempo": 120.0
            },
            {
                "start_time": 32.211363636363636,
                "end_time": 32.611363636363635,
                "pitch": 55,
                "velocity": 80,
                "duration": 0.3999999999999986,
                "tempo": 120.0
            },
            {
                "start_time": 32.61363636363636,
                "end_time": 33.02272727272727,
                "pitch": 62,
                "velocity": 80,
                "duration": 0.4090909090909136,
                "tempo": 120.0
            },
            {
                "start_time": 33.025,
                "end_time": 33.22272727272727,
                "pitch": 58,
                "velocity": 80,
                "duration": 0.19772727272727053,
                "tempo": 120.0
            },
            {
                "start_time": 33.225,
                "end_time": 33.62045454545454,
                "pitch": 60,
                "velocity": 80,
                "duration": 0.39545454545454106,
                "tempo": 120.0
            },
            {
                "start_time": 33.62272727272727,
                "end_time": 34.22727272727273,
                "pitch": 62,
                "velocity": 80,
                "duration": 0.6045454545454589,
                "tempo": 120.0
            },
            {
                "start_time": 34.22954545454545,
                "end_time": 34.62954545454545,
                "pitch": 65,
                "velocity": 80,
                "duration": 0.3999999999999986,
                "tempo": 120.0
            },
            {
                "start_time": 34.62954545454545,
                "end_time": 34.82954545454545,
                "pitch": 63,
                "velocity": 80,
                "duration": 0.20000000000000284,
                "tempo": 120.0
            },
            {
                "start_time": 34.82954545454545,
                "end_time": 35.42272727272727,
                "pitch": 62,
                "velocity": 80,
                "duration": 0.5931818181818187,
                "tempo": 120.0
            },
            {
                "start_time": 35.425,
                "end_time": 35.83181818181818,
                "pitch": 60,
                "velocity": 80,
                "duration": 0.4068181818181813,
                "tempo": 120.0
            },
            {
                "start_time": 35.83409090909091,
                "end_time": 36.23409090909091,
                "pitch": 58,
                "velocity": 80,
                "duration": 0.3999999999999986,
                "tempo": 120.0
            },
            {
                "start_time": 36.236363636363635,
                "end_time": 36.434090909090905,
                "pitch": 57,
                "velocity": 80,
                "duration": 0.19772727272727053,
                "tempo": 120.0
            },
            {
                "start_time": 36.43636363636364,
                "end_time": 36.83409090909091,
                "pitch": 55,
                "velocity": 80,
                "duration": 0.3977272727272734,
                "tempo": 120.0
            },
            {
                "start_time": 36.836363636363636,
                "end_time": 37.434090909090905,
                "pitch": 63,
                "velocity": 80,
                "duration": 0.5977272727272691,
                "tempo": 120.0
            },
            {
                "start_time": 37.43636363636364,
                "end_time": 37.83863636363636,
                "pitch": 62,
                "velocity": 80,
                "duration": 0.4022727272727238,
                "tempo": 120.0
            },
            {
                "start_time": 37.840909090909086,
                "end_time": 38.038636363636364,
                "pitch": 58,
                "velocity": 80,
                "duration": 0.19772727272727764,
                "tempo": 120.0
            },
            {
                "start_time": 38.04090909090909,
                "end_time": 38.63863636363636,
                "pitch": 60,
                "velocity": 80,
                "duration": 0.5977272727272691,
                "tempo": 120.0
            },
            {
                "start_time": 38.643181818181816,
                "end_time": 40.043181818181814,
                "pitch": 60,
                "velocity": 101,
                "duration": 1.3999999999999986,
                "tempo": 120.0
            },
            {
                "start_time": 40.04545454545455,
                "end_time": 40.143181818181816,
                "pitch": 62,
                "velocity": 101,
                "duration": 0.09772727272726911,
                "tempo": 120.0
            },
            {
                "start_time": 40.14545454545454,
                "end_time": 40.24545454545454,
                "pitch": 63,
                "velocity": 101,
                "duration": 0.10000000000000142,
                "tempo": 120.0
            },
            {
                "start_time": 40.24545454545454,
                "end_time": 41.45681818181818,
                "pitch": 65,
                "velocity": 101,
                "duration": 1.211363636363636,
                "tempo": 120.0
            },
            {
                "start_time": 32.059090909090905,
                "end_time": 41.85,
                "pitch": 67,
                "velocity": 80,
                "duration": 9.790909090909096,
                "tempo": 120.0
            },
            {
                "start_time": 41.459090909090904,
                "end_time": 41.85,
                "pitch": 67,
                "velocity": 101,
                "duration": 0.39090909090909776,
                "tempo": 120.0
            },
            {
                "start_time": 41.85,
                "end_time": 43.45454545454545,
                "pitch": 65,
                "velocity": 101,
                "duration": 1.6045454545454518,
                "tempo": 120.0
            },
            {
                "start_time": 43.45681818181818,
                "end_time": 44.66590909090909,
                "pitch": 58,
                "velocity": 101,
                "duration": 1.2090909090909108,
                "tempo": 120.0
            },
            {
                "start_time": 44.668181818181814,
                "end_time": 45.06818181818181,
                "pitch": 60,
                "velocity": 101,
                "duration": 0.3999999999999986,
                "tempo": 120.0
            },
            {
                "start_time": 45.06818181818181,
                "end_time": 45.87045454545454,
                "pitch": 62,
                "velocity": 101,
                "duration": 0.8022727272727295,
                "tempo": 120.0
            },
            {
                "start_time": 45.87272727272727,
                "end_time": 46.17045454545455,
                "pitch": 63,
                "velocity": 101,
                "duration": 0.29772727272727906,
                "tempo": 120.0
            },
            {
                "start_time": 46.17272727272727,
                "end_time": 46.470454545454544,
                "pitch": 62,
                "velocity": 101,
                "duration": 0.29772727272727195,
                "tempo": 120.0
            },
            {
                "start_time": 46.47272727272727,
                "end_time": 46.67272727272727,
                "pitch": 60,
                "velocity": 101,
                "duration": 0.20000000000000284,
                "tempo": 120.0
            },
            {
                "start_time": 46.675,
                "end_time": 47.875,
                "pitch": 67,
                "velocity": 101,
                "duration": 1.2000000000000028,
                "tempo": 120.0
            },
            {
                "start_time": 47.877272727272725,
                "end_time": 48.074999999999996,
                "pitch": 69,
                "velocity": 101,
                "duration": 0.19772727272727053,
                "tempo": 120.0
            },
            {
                "start_time": 48.07727272727273,
                "end_time": 48.277272727272724,
                "pitch": 70,
                "velocity": 101,
                "duration": 0.19999999999999574,
                "tempo": 120.0
            },
            {
                "start_time": 48.27954545454545,
                "end_time": 49.47954545454545,
                "pitch": 72,
                "velocity": 101,
                "duration": 1.2000000000000028,
                "tempo": 120.0
            },
            {
                "start_time": 49.48181818181818,
                "end_time": 49.88181818181818,
                "pitch": 69,
                "velocity": 101,
                "duration": 0.4000000000000057,
                "tempo": 120.0
            },
            {
                "start_time": 49.88409090909091,
                "end_time": 51.48863636363636,
                "pitch": 74,
                "velocity": 101,
                "duration": 1.6045454545454518,
                "tempo": 120.0
            },
            {
                "start_time": 63.945454545454545,
                "end_time": 64.04318181818182,
                "pitch": 74,
                "velocity": 101,
                "duration": 0.09772727272727622,
                "tempo": 120.0
            },
            {
                "start_time": 64.04545454545455,
                "end_time": 64.14545454545454,
                "pitch": 74,
                "velocity": 101,
                "duration": 0.09999999999999432,
                "tempo": 120.0
            }
        ],
        "Harpsichord": [
            {
                "start_time": 52.50454545454545,
                "end_time": 52.570454545454545,
                "pitch": 67,
                "velocity": 127,
                "duration": 0.06590909090909491,
                "tempo": 120.0
            },
            {
                "start_time": 52.60454545454545,
                "end_time": 52.67045454545454,
                "pitch": 67,
                "velocity": 127,
                "duration": 0.06590909090908781,
                "tempo": 120.0
            },
            {
                "start_time": 54.10681818181818,
                "end_time": 54.17272727272727,
                "pitch": 67,
                "velocity": 127,
                "duration": 0.06590909090909491,
                "tempo": 120.0
            },
            {
                "start_time": 54.20681818181818,
                "end_time": 54.27272727272727,
                "pitch": 67,
                "velocity": 127,
                "duration": 0.06590909090909491,
                "tempo": 120.0
            },
            {
                "start_time": 55.71363636363636,
                "end_time": 55.777272727272724,
                "pitch": 65,
                "velocity": 127,
                "duration": 0.0636363636363626,
                "tempo": 120.0
            },
            {
                "start_time": 55.81363636363636,
                "end_time": 55.877272727272725,
                "pitch": 65,
                "velocity": 127,
                "duration": 0.0636363636363626,
                "tempo": 120.0
            },
            {
                "start_time": 57.31818181818181,
                "end_time": 57.381818181818176,
                "pitch": 65,
                "velocity": 127,
                "duration": 0.0636363636363626,
                "tempo": 120.0
            },
            {
                "start_time": 57.418181818181814,
                "end_time": 57.48181818181818,
                "pitch": 65,
                "velocity": 127,
                "duration": 0.0636363636363626,
                "tempo": 120.0
            },
            {
                "start_time": 58.92272727272727,
                "end_time": 58.986363636363635,
                "pitch": 67,
                "velocity": 127,
                "duration": 0.0636363636363626,
                "tempo": 120.0
            },
            {
                "start_time": 59.02272727272727,
                "end_time": 59.086363636363636,
                "pitch": 67,
                "velocity": 127,
                "duration": 0.0636363636363626,
                "tempo": 120.0
            },
            {
                "start_time": 60.53636363636363,
                "end_time": 60.599999999999994,
                "pitch": 67,
                "velocity": 127,
                "duration": 0.0636363636363626,
                "tempo": 120.0
            },
            {
                "start_time": 60.63409090909091,
                "end_time": 60.699999999999996,
                "pitch": 67,
                "velocity": 127,
                "duration": 0.06590909090908781,
                "tempo": 120.0
            },
            {
                "start_time": 62.13863636363636,
                "end_time": 62.20454545454545,
                "pitch": 70,
                "velocity": 127,
                "duration": 0.06590909090909491,
                "tempo": 120.0
            },
            {
                "start_time": 62.23863636363636,
                "end_time": 62.304545454545455,
                "pitch": 70,
                "velocity": 127,
                "duration": 0.06590909090909491,
                "tempo": 120.0
            }
        ],
        "Acoustic Grand Piano": [
            {
                "start_time": 0.029545454545454545,
                "end_time": 0.22499999999999998,
                "pitch": 62,
                "velocity": 80,
                "duration": 0.19545454545454544,
                "tempo": 120.0
            },
            {
                "start_time": 0.22727272727272727,
                "end_time": 0.425,
                "pitch": 67,
                "velocity": 80,
                "duration": 0.19772727272727272,
                "tempo": 120.0
            },
            {
                "start_time": 0.42727272727272725,
                "end_time": 0.6272727272727272,
                "pitch": 62,
                "velocity": 80,
                "duration": 0.19999999999999996,
                "tempo": 120.0
            },
            {
                "start_time": 0.6272727272727272,
                "end_time": 0.8272727272727273,
                "pitch": 69,
                "velocity": 80,
                "duration": 0.20000000000000007,
                "tempo": 120.0
            },
            {
                "start_time": 0.8272727272727273,
                "end_time": 1.0272727272727271,
                "pitch": 62,
                "velocity": 80,
                "duration": 0.19999999999999984,
                "tempo": 120.0
            },
            {
                "start_time": 1.0272727272727271,
                "end_time": 1.2272727272727273,
                "pitch": 70,
                "velocity": 80,
                "duration": 0.20000000000000018,
                "tempo": 120.0
            },
            {
                "start_time": 1.2272727272727273,
                "end_time": 1.4272727272727272,
                "pitch": 62,
                "velocity": 80,
                "duration": 0.19999999999999996,
                "tempo": 120.0
            },
            {
                "start_time": 1.4272727272727272,
                "end_time": 1.6272727272727272,
                "pitch": 69,
                "velocity": 80,
                "duration": 0.19999999999999996,
                "tempo": 120.0
            },
            {
                "start_time": 1.6295454545454544,
                "end_time": 1.8295454545454544,
                "pitch": 60,
                "velocity": 80,
                "duration": 0.19999999999999996,
                "tempo": 120.0
            },
            {
                "start_time": 1.8295454545454544,
                "end_time": 2.0318181818181817,
                "pitch": 65,
                "velocity": 80,
                "duration": 0.20227272727272738,
                "tempo": 120.0
            },
            {
                "start_time": 2.0318181818181817,
                "end_time": 2.231818181818182,
                "pitch": 60,
                "velocity": 80,
                "duration": 0.20000000000000018,
                "tempo": 120.0
            },
            {
                "start_time": 2.231818181818182,
                "end_time": 2.4318181818181817,
                "pitch": 67,
                "velocity": 80,
                "duration": 0.19999999999999973,
                "tempo": 120.0
            },
            {
                "start_time": 2.4318181818181817,
                "end_time": 2.631818181818182,
                "pitch": 60,
                "velocity": 80,
                "duration": 0.20000000000000018,
                "tempo": 120.0
            },
            {
                "start_time": 2.631818181818182,
                "end_time": 2.8318181818181816,
                "pitch": 69,
                "velocity": 80,
                "duration": 0.19999999999999973,
                "tempo": 120.0
            },
            {
                "start_time": 2.8318181818181816,
                "end_time": 3.0318181818181817,
                "pitch": 60,
                "velocity": 80,
                "duration": 0.20000000000000018,
                "tempo": 120.0
            },
            {
                "start_time": 3.0340909090909087,
                "end_time": 3.2318181818181815,
                "pitch": 67,
                "velocity": 80,
                "duration": 0.19772727272727275,
                "tempo": 120.0
            },
            {
                "start_time": 3.234090909090909,
                "end_time": 3.4386363636363635,
                "pitch": 58,
                "velocity": 80,
                "duration": 0.20454545454545459,
                "tempo": 120.0
            },
            {
                "start_time": 3.4386363636363635,
                "end_time": 3.643181818181818,
                "pitch": 63,
                "velocity": 80,
                "duration": 0.20454545454545459,
                "tempo": 120.0
            },
            {
                "start_time": 3.645454545454545,
                "end_time": 3.843181818181818,
                "pitch": 58,
                "velocity": 80,
                "duration": 0.19772727272727275,
                "tempo": 120.0
            },
            {
                "start_time": 3.8454545454545452,
                "end_time": 4.043181818181818,
                "pitch": 65,
                "velocity": 80,
                "duration": 0.19772727272727275,
                "tempo": 120.0
            },
            {
                "start_time": 4.045454545454545,
                "end_time": 4.24090909090909,
                "pitch": 58,
                "velocity": 80,
                "duration": 0.19545454545454533,
                "tempo": 120.0
            },
            {
                "start_time": 4.24090909090909,
                "end_time": 4.4363636363636365,
                "pitch": 67,
                "velocity": 80,
                "duration": 0.1954545454545462,
                "tempo": 120.0
            },
            {
                "start_time": 4.4386363636363635,
                "end_time": 4.638636363636364,
                "pitch": 58,
                "velocity": 80,
                "duration": 0.20000000000000018,
                "tempo": 120.0
            },
            {
                "start_time": 4.640909090909091,
                "end_time": 4.840909090909091,
                "pitch": 65,
                "velocity": 80,
                "duration": 0.20000000000000018,
                "tempo": 120.0
            },
            {
                "start_time": 4.840909090909091,
                "end_time": 5.045454545454545,
                "pitch": 57,
                "velocity": 80,
                "duration": 0.20454545454545414,
                "tempo": 120.0
            },
            {
                "start_time": 5.047727272727273,
                "end_time": 5.252272727272727,
                "pitch": 62,
                "velocity": 80,
                "duration": 0.20454545454545414,
                "tempo": 120.0
            },
            {
                "start_time": 5.252272727272727,
                "end_time": 5.452272727272727,
                "pitch": 57,
                "velocity": 80,
                "duration": 0.20000000000000018,
                "tempo": 120.0
            },
            {
                "start_time": 5.454545454545454,
                "end_time": 5.654545454545454,
                "pitch": 63,
                "velocity": 80,
                "duration": 0.20000000000000018,
                "tempo": 120.0
            },
            {
                "start_time": 5.656818181818181,
                "end_time": 5.8545454545454545,
                "pitch": 57,
                "velocity": 80,
                "duration": 0.1977272727272732,
                "tempo": 120.0
            },
            {
                "start_time": 5.8568181818181815,
                "end_time": 6.054545454545455,
                "pitch": 65,
                "velocity": 80,
                "duration": 0.1977272727272732,
                "tempo": 120.0
            },
            {
                "start_time": 6.056818181818182,
                "end_time": 6.256818181818182,
                "pitch": 57,
                "velocity": 80,
                "duration": 0.20000000000000018,
                "tempo": 120.0
            },
            {
                "start_time": 6.259090909090909,
                "end_time": 6.459090909090909,
                "pitch": 67,
                "velocity": 80,
                "duration": 0.20000000000000018,
                "tempo": 120.0
            },
            {
                "start_time": 6.461363636363636,
                "end_time": 6.659090909090909,
                "pitch": 62,
                "velocity": 80,
                "duration": 0.1977272727272732,
                "tempo": 120.0
            },
            {
                "start_time": 6.659090909090909,
                "end_time": 6.8590909090909085,
                "pitch": 67,
                "velocity": 80,
                "duration": 0.1999999999999993,
                "tempo": 120.0
            },
            {
                "start_time": 6.861363636363636,
                "end_time": 7.061363636363636,
                "pitch": 62,
                "velocity": 80,
                "duration": 0.1999999999999993,
                "tempo": 120.0
            },
            {
                "start_time": 7.061363636363636,
                "end_time": 7.261363636363636,
                "pitch": 69,
                "velocity": 80,
                "duration": 0.20000000000000018,
                "tempo": 120.0
            },
            {
                "start_time": 7.263636363636364,
                "end_time": 7.463636363636363,
                "pitch": 62,
                "velocity": 80,
                "duration": 0.1999999999999993,
                "tempo": 120.0
            },
            {
                "start_time": 7.465909090909091,
                "end_time": 7.66590909090909,
                "pitch": 70,
                "velocity": 80,
                "duration": 0.1999999999999993,
                "tempo": 120.0
            },
            {
                "start_time": 7.66590909090909,
                "end_time": 7.86590909090909,
                "pitch": 62,
                "velocity": 80,
                "duration": 0.20000000000000018,
                "tempo": 120.0
            },
            {
                "start_time": 7.86590909090909,
                "end_time": 8.065909090909091,
                "pitch": 69,
                "velocity": 80,
                "duration": 0.20000000000000107,
                "tempo": 120.0
            },
            {
                "start_time": 8.068181818181818,
                "end_time": 8.26590909090909,
                "pitch": 60,
                "velocity": 80,
                "duration": 0.1977272727272723,
                "tempo": 120.0
            },
            {
                "start_time": 8.268181818181818,
                "end_time": 8.46590909090909,
                "pitch": 65,
                "velocity": 80,
                "duration": 0.1977272727272723,
                "tempo": 120.0
            },
            {
                "start_time": 8.468181818181817,
                "end_time": 8.668181818181818,
                "pitch": 60,
                "velocity": 80,
                "duration": 0.20000000000000107,
                "tempo": 120.0
            },
            {
                "start_time": 8.668181818181818,
                "end_time": 8.870454545454544,
                "pitch": 67,
                "velocity": 80,
                "duration": 0.20227272727272627,
                "tempo": 120.0
            },
            {
                "start_time": 8.870454545454544,
                "end_time": 9.070454545454545,
                "pitch": 60,
                "velocity": 80,
                "duration": 0.20000000000000107,
                "tempo": 120.0
            },
            {
                "start_time": 9.072727272727272,
                "end_time": 9.272727272727272,
                "pitch": 69,
                "velocity": 80,
                "duration": 0.1999999999999993,
                "tempo": 120.0
            },
            {
                "start_time": 9.275,
                "end_time": 9.475,
                "pitch": 60,
                "velocity": 80,
                "duration": 0.1999999999999993,
                "tempo": 120.0
            },
            {
                "start_time": 9.475,
                "end_time": 9.677272727272726,
                "pitch": 67,
                "velocity": 80,
                "duration": 0.20227272727272627,
                "tempo": 120.0
            },
            {
                "start_time": 9.677272727272726,
                "end_time": 9.881818181818181,
                "pitch": 58,
                "velocity": 80,
                "duration": 0.20454545454545503,
                "tempo": 120.0
            },
            {
                "start_time": 9.884090909090908,
                "end_time": 10.086363636363636,
                "pitch": 63,
                "velocity": 80,
                "duration": 0.20227272727272805,
                "tempo": 120.0
            },
            {
                "start_time": 10.088636363636363,
                "end_time": 10.284090909090908,
                "pitch": 58,
                "velocity": 80,
                "duration": 0.19545454545454533,
                "tempo": 120.0
            },
            {
                "start_time": 10.284090909090908,
                "end_time": 10.479545454545454,
                "pitch": 65,
                "velocity": 80,
                "duration": 0.19545454545454533,
                "tempo": 120.0
            },
            {
                "start_time": 10.48181818181818,
                "end_time": 10.681818181818182,
                "pitch": 58,
                "velocity": 80,
                "duration": 0.20000000000000107,
                "tempo": 120.0
            },
            {
                "start_time": 10.681818181818182,
                "end_time": 10.884090909090908,
                "pitch": 67,
                "velocity": 80,
                "duration": 0.20227272727272627,
                "tempo": 120.0
            },
            {
                "start_time": 10.884090909090908,
                "end_time": 11.084090909090909,
                "pitch": 58,
                "velocity": 80,
                "duration": 0.20000000000000107,
                "tempo": 120.0
            },
            {
                "start_time": 11.086363636363636,
                "end_time": 11.286363636363635,
                "pitch": 65,
                "velocity": 80,
                "duration": 0.1999999999999993,
                "tempo": 120.0
            },
            {
                "start_time": 11.288636363636362,
                "end_time": 11.493181818181817,
                "pitch": 57,
                "velocity": 80,
                "duration": 0.20454545454545503,
                "tempo": 120.0
            },
            {
                "start_time": 11.493181818181817,
                "end_time": 11.697727272727272,
                "pitch": 62,
                "velocity": 80,
                "duration": 0.20454545454545503,
                "tempo": 120.0
            },
            {
                "start_time": 11.7,
                "end_time": 11.899999999999999,
                "pitch": 57,
                "velocity": 80,
                "duration": 0.1999999999999993,
                "tempo": 120.0
            },
            {
                "start_time": 11.899999999999999,
                "end_time": 12.102272727272727,
                "pitch": 63,
                "velocity": 80,
                "duration": 0.20227272727272805,
                "tempo": 120.0
            },
            {
                "start_time": 12.102272727272727,
                "end_time": 12.302272727272726,
                "pitch": 57,
                "velocity": 80,
                "duration": 0.1999999999999993,
                "tempo": 120.0
            },
            {
                "start_time": 12.302272727272726,
                "end_time": 12.502272727272727,
                "pitch": 65,
                "velocity": 80,
                "duration": 0.20000000000000107,
                "tempo": 120.0
            },
            {
                "start_time": 12.502272727272727,
                "end_time": 12.697727272727272,
                "pitch": 57,
                "velocity": 80,
                "duration": 0.19545454545454533,
                "tempo": 120.0
            },
            {
                "start_time": 12.7,
                "end_time": 12.895454545454545,
                "pitch": 67,
                "velocity": 80,
                "duration": 0.19545454545454533,
                "tempo": 120.0
            }
        ]
    }
}