{
    "track_id": "09 Level 5",
    "mood": "angry",
    "instruments": {
        "Clarinet": [
            {
                "start_time": 0.006818181818181818,
                "end_time": 2.875,
                "pitch": 64,
                "velocity": 101,
                "duration": 2.868181818181818,
                "tempo": 120.0
            },
            {
                "start_time": 2.875,
                "end_time": 3.836363636363636,
                "pitch": 66,
                "velocity": 101,
                "duration": 0.961363636363636,
                "tempo": 120.0
            },
            {
                "start_time": 3.836363636363636,
                "end_time": 5.534090909090909,
                "pitch": 64,
                "velocity": 101,
                "duration": 1.6977272727272732,
                "tempo": 120.0
            },
            {
                "start_time": 5.534090909090909,
                "end_time": 5.6454545454545455,
                "pitch": 66,
                "velocity": 101,
                "duration": 0.11136363636363633,
                "tempo": 120.0
            },
            {
                "start_time": 5.6454545454545455,
                "end_time": 5.759090909090909,
                "pitch": 64,
                "velocity": 101,
                "duration": 0.11363636363636331,
                "tempo": 120.0
            },
            {
                "start_time": 5.759090909090909,
                "end_time": 7.706818181818181,
                "pitch": 63,
                "velocity": 101,
                "duration": 1.9477272727272723,
                "tempo": 120.0
            },
            {
                "start_time": 7.706818181818181,
                "end_time": 10.593181818181817,
                "pitch": 66,
                "velocity": 101,
                "duration": 2.886363636363636,
                "tempo": 120.0
            },
            {
                "start_time": 10.593181818181817,
                "end_time": 11.577272727272726,
                "pitch": 67,
                "velocity": 101,
                "duration": 0.9840909090909093,
                "tempo": 120.0
            },
            {
                "start_time": 11.577272727272726,
                "end_time": 13.268181818181818,
                "pitch": 66,
                "velocity": 101,
                "duration": 1.6909090909090914,
                "tempo": 120.0
            },
            {
                "start_time": 13.268181818181818,
                "end_time": 13.384090909090908,
                "pitch": 67,
                "velocity": 101,
                "duration": 0.1159090909090903,
                "tempo": 120.0
            },
            {
                "start_time": 13.384090909090908,
                "end_time": 13.504545454545454,
                "pitch": 66,
                "velocity": 101,
                "duration": 0.12045454545454604,
                "tempo": 120.0
            },
            {
                "start_time": 13.504545454545454,
                "end_time": 14.475,
                "pitch": 64,
                "velocity": 101,
                "duration": 0.9704545454545457,
                "tempo": 120.0
            },
            {
                "start_time": 14.475,
                "end_time": 27.038636363636364,
                "pitch": 62,
                "velocity": 101,
                "duration": 12.563636363636364,
                "tempo": 120.0
            },
            {
                "start_time": 27.04090909090909,
                "end_time": 29.93409090909091,
                "pitch": 65,
                "velocity": 101,
                "duration": 2.8931818181818194,
                "tempo": 120.0
            },
            {
                "start_time": 29.93409090909091,
                "end_time": 30.918181818181818,
                "pitch": 67,
                "velocity": 101,
                "duration": 0.9840909090909093,
                "tempo": 120.0
            },
            {
                "start_time": 30.918181818181818,
                "end_time": 32.61363636363636,
                "pitch": 65,
                "velocity": 101,
                "duration": 1.6954545454545418,
                "tempo": 120.0
            },
            {
                "start_time": 32.61363636363636,
                "end_time": 32.72954545454545,
                "pitch": 67,
                "velocity": 101,
                "duration": 0.11590909090909207,
                "tempo": 120.0
            },
            {
                "start_time": 32.72954545454545,
                "end_time": 32.84772727272727,
                "pitch": 65,
                "velocity": 101,
                "duration": 0.11818181818181728,
                "tempo": 120.0
            },
            {
                "start_time": 32.84772727272727,
                "end_time": 34.77045454545454,
                "pitch": 64,
                "velocity": 101,
                "duration": 1.922727272727272,
                "tempo": 120.0
            },
            {
                "start_time": 34.77272727272727,
                "end_time": 37.67727272727272,
                "pitch": 67,
                "velocity": 101,
                "duration": 2.904545454545449,
                "tempo": 120.0
            },
            {
                "start_time": 37.679545454545455,
                "end_time": 38.66136363636363,
                "pitch": 68,
                "velocity": 101,
                "duration": 0.981818181818177,
                "tempo": 120.0
            },
            {
                "start_time": 38.66136363636363,
                "end_time": 40.32954545454545,
                "pitch": 67,
                "velocity": 101,
                "duration": 1.6681818181818215,
                "tempo": 120.0
            },
            {
                "start_time": 40.32954545454545,
                "end_time": 40.461363636363636,
                "pitch": 68,
                "velocity": 101,
                "duration": 0.13181818181818272,
                "tempo": 120.0
            },
            {
                "start_time": 40.461363636363636,
                "end_time": 40.58181818181818,
                "pitch": 67,
                "velocity": 101,
                "duration": 0.12045454545454248,
                "tempo": 120.0
            },
            {
                "start_time": 40.58181818181818,
                "end_time": 41.543181818181814,
                "pitch": 65,
                "velocity": 101,
                "duration": 0.961363636363636,
                "tempo": 120.0
            },
            {
                "start_time": 41.543181818181814,
                "end_time": 85.05454545454545,
                "pitch": 63,
                "velocity": 101,
                "duration": 43.51136363636363,
                "tempo": 120.0
            }
        ],
        "Trumpet": [
            {
                "start_time": 15.431818181818182,
                "end_time": 15.806818181818182,
                "pitch": 64,
                "velocity": 101,
                "duration": 0.375,
                "tempo": 120.0
            },
            {
                "start_time": 15.806818181818182,
                "end_time": 16.04090909090909,
                "pitch": 64,
                "velocity": 101,
                "duration": 0.23409090909090757,
                "tempo": 120.0
            },
            {
                "start_time": 16.04090909090909,
                "end_time": 16.138636363636362,
                "pitch": 64,
                "velocity": 101,
                "duration": 0.09772727272727266,
                "tempo": 120.0
            },
            {
                "start_time": 16.138636363636362,
                "end_time": 16.404545454545453,
                "pitch": 62,
                "velocity": 101,
                "duration": 0.26590909090909065,
                "tempo": 120.0
            },
            {
                "start_time": 16.404545454545453,
                "end_time": 16.761363636363637,
                "pitch": 64,
                "velocity": 101,
                "duration": 0.35681818181818414,
                "tempo": 120.0
            },
            {
                "start_time": 16.763636363636362,
                "end_time": 17.01590909090909,
                "pitch": 64,
                "velocity": 101,
                "duration": 0.25227272727272876,
                "tempo": 120.0
            },
            {
                "start_time": 17.01590909090909,
                "end_time": 17.134090909090908,
                "pitch": 64,
                "velocity": 101,
                "duration": 0.11818181818181728,
                "tempo": 120.0
            },
            {
                "start_time": 17.134090909090908,
                "end_time": 17.229545454545455,
                "pitch": 64,
                "velocity": 101,
                "duration": 0.09545454545454746,
                "tempo": 120.0
            },
            {
                "start_time": 17.229545454545455,
                "end_time": 17.36590909090909,
                "pitch": 62,
                "velocity": 101,
                "duration": 0.13636363636363313,
                "tempo": 120.0
            },
            {
                "start_time": 17.36590909090909,
                "end_time": 17.727272727272727,
                "pitch": 64,
                "velocity": 101,
                "duration": 0.3613636363636381,
                "tempo": 120.0
            },
            {
                "start_time": 17.727272727272727,
                "end_time": 17.959090909090907,
                "pitch": 64,
                "velocity": 101,
                "duration": 0.2318181818181806,
                "tempo": 120.0
            },
            {
                "start_time": 17.959090909090907,
                "end_time": 18.05909090909091,
                "pitch": 64,
                "velocity": 101,
                "duration": 0.10000000000000142,
                "tempo": 120.0
            },
            {
                "start_time": 18.05909090909091,
                "end_time": 18.329545454545453,
                "pitch": 62,
                "velocity": 101,
                "duration": 0.2704545454545446,
                "tempo": 120.0
            },
            {
                "start_time": 18.331818181818182,
                "end_time": 18.706818181818182,
                "pitch": 64,
                "velocity": 101,
                "duration": 0.375,
                "tempo": 120.0
            },
            {
                "start_time": 18.706818181818182,
                "end_time": 18.943181818181817,
                "pitch": 64,
                "velocity": 101,
                "duration": 0.23636363636363455,
                "tempo": 120.0
            },
            {
                "start_time": 18.943181818181817,
                "end_time": 19.061363636363634,
                "pitch": 64,
                "velocity": 101,
                "duration": 0.11818181818181728,
                "tempo": 120.0
            },
            {
                "start_time": 19.061363636363634,
                "end_time": 19.161363636363635,
                "pitch": 64,
                "velocity": 101,
                "duration": 0.10000000000000142,
                "tempo": 120.0
            },
            {
                "start_time": 19.161363636363635,
                "end_time": 19.313636363636363,
                "pitch": 62,
                "velocity": 101,
                "duration": 0.15227272727272734,
                "tempo": 120.0
            },
            {
                "start_time": 19.313636363636363,
                "end_time": 20.03181818181818,
                "pitch": 66,
                "velocity": 101,
                "duration": 0.7181818181818187,
                "tempo": 120.0
            },
            {
                "start_time": 20.03181818181818,
                "end_time": 20.261363636363637,
                "pitch": 64,
                "velocity": 101,
                "duration": 0.22954545454545539,
                "tempo": 120.0
            },
            {
                "start_time": 20.261363636363637,
                "end_time": 20.993181818181817,
                "pitch": 66,
                "velocity": 101,
                "duration": 0.7318181818181806,
                "tempo": 120.0
            },
            {
                "start_time": 20.993181818181817,
                "end_time": 21.245454545454546,
                "pitch": 64,
                "velocity": 101,
                "duration": 0.25227272727272876,
                "tempo": 120.0
            },
            {
                "start_time": 21.245454545454546,
                "end_time": 21.96818181818182,
                "pitch": 66,
                "velocity": 101,
                "duration": 0.7227272727272727,
                "tempo": 120.0
            },
            {
                "start_time": 21.96818181818182,
                "end_time": 22.206818181818182,
                "pitch": 64,
                "velocity": 101,
                "duration": 0.2386363636363633,
                "tempo": 120.0
            },
            {
                "start_time": 22.206818181818182,
                "end_time": 22.936363636363634,
                "pitch": 66,
                "velocity": 101,
                "duration": 0.7295454545454518,
                "tempo": 120.0
            },
            {
                "start_time": 22.936363636363634,
                "end_time": 23.172727272727272,
                "pitch": 64,
                "velocity": 101,
                "duration": 0.2363636363636381,
                "tempo": 120.0
            },
            {
                "start_time": 23.172727272727272,
                "end_time": 24.75681818181818,
                "pitch": 66,
                "velocity": 101,
                "duration": 1.5840909090909072,
                "tempo": 120.0
            },
            {
                "start_time": 24.75681818181818,
                "end_time": 24.87272727272727,
                "pitch": 64,
                "velocity": 101,
                "duration": 0.11590909090909207,
                "tempo": 120.0
            },
            {
                "start_time": 24.87272727272727,
                "end_time": 24.986363636363635,
                "pitch": 66,
                "velocity": 101,
                "duration": 0.11363636363636331,
                "tempo": 120.0
            },
            {
                "start_time": 24.986363636363635,
                "end_time": 25.102272727272727,
                "pitch": 64,
                "velocity": 101,
                "duration": 0.11590909090909207,
                "tempo": 120.0
            },
            {
                "start_time": 25.102272727272727,
                "end_time": 25.586363636363636,
                "pitch": 59,
                "velocity": 101,
                "duration": 0.48409090909090935,
                "tempo": 120.0
            },
            {
                "start_time": 25.586363636363636,
                "end_time": 26.081818181818182,
                "pitch": 57,
                "velocity": 101,
                "duration": 0.49545454545454604,
                "tempo": 120.0
            },
            {
                "start_time": 26.081818181818182,
                "end_time": 26.570454545454545,
                "pitch": 55,
                "velocity": 101,
                "duration": 0.4886363636363633,
                "tempo": 120.0
            },
            {
                "start_time": 26.570454545454545,
                "end_time": 42.518181818181816,
                "pitch": 54,
                "velocity": 101,
                "duration": 15.94772727272727,
                "tempo": 120.0
            },
            {
                "start_time": 42.518181818181816,
                "end_time": 42.88409090909091,
                "pitch": 65,
                "velocity": 101,
                "duration": 0.36590909090909207,
                "tempo": 120.0
            },
            {
                "start_time": 42.88409090909091,
                "end_time": 43.11818181818182,
                "pitch": 65,
                "velocity": 101,
                "duration": 0.23409090909090935,
                "tempo": 120.0
            },
            {
                "start_time": 43.11818181818182,
                "end_time": 43.21818181818182,
                "pitch": 65,
                "velocity": 101,
                "duration": 0.10000000000000142,
                "tempo": 120.0
            },
            {
                "start_time": 43.21818181818182,
                "end_time": 43.48863636363636,
                "pitch": 63,
                "velocity": 101,
                "duration": 0.27045454545454106,
                "tempo": 120.0
            },
            {
                "start_time": 43.48863636363636,
                "end_time": 43.84772727272727,
                "pitch": 65,
                "velocity": 101,
                "duration": 0.35909090909090935,
                "tempo": 120.0
            },
            {
                "start_time": 43.84772727272727,
                "end_time": 44.095454545454544,
                "pitch": 65,
                "velocity": 101,
                "duration": 0.2477272727272748,
                "tempo": 120.0
            },
            {
                "start_time": 44.095454545454544,
                "end_time": 44.209090909090904,
                "pitch": 65,
                "velocity": 101,
                "duration": 0.11363636363635976,
                "tempo": 120.0
            },
            {
                "start_time": 44.209090909090904,
                "end_time": 44.30227272727272,
                "pitch": 65,
                "velocity": 101,
                "duration": 0.0931818181818187,
                "tempo": 120.0
            },
            {
                "start_time": 44.30227272727272,
                "end_time": 44.434090909090905,
                "pitch": 63,
                "velocity": 101,
                "duration": 0.13181818181818272,
                "tempo": 120.0
            },
            {
                "start_time": 44.434090909090905,
                "end_time": 44.80227272727272,
                "pitch": 65,
                "velocity": 101,
                "duration": 0.3681818181818173,
                "tempo": 120.0
            },
            {
                "start_time": 44.80227272727272,
                "end_time": 45.038636363636364,
                "pitch": 65,
                "velocity": 101,
                "duration": 0.23636363636364166,
                "tempo": 120.0
            },
            {
                "start_time": 45.038636363636364,
                "end_time": 45.14090909090909,
                "pitch": 65,
                "velocity": 101,
                "duration": 0.10227272727272663,
                "tempo": 120.0
            },
            {
                "start_time": 45.14090909090909,
                "end_time": 45.41590909090909,
                "pitch": 63,
                "velocity": 101,
                "duration": 0.2749999999999986,
                "tempo": 120.0
            },
            {
                "start_time": 45.418181818181814,
                "end_time": 45.775,
                "pitch": 65,
                "velocity": 101,
                "duration": 0.35681818181818414,
                "tempo": 120.0
            },
            {
                "start_time": 45.775,
                "end_time": 46.02954545454545,
                "pitch": 65,
                "velocity": 101,
                "duration": 0.2545454545454504,
                "tempo": 120.0
            },
            {
                "start_time": 46.02954545454545,
                "end_time": 46.14772727272727,
                "pitch": 65,
                "velocity": 101,
                "duration": 0.11818181818182438,
                "tempo": 120.0
            },
            {
                "start_time": 46.14772727272727,
                "end_time": 46.24772727272727,
                "pitch": 65,
                "velocity": 101,
                "duration": 0.09999999999999432,
                "tempo": 120.0
            },
            {
                "start_time": 46.24772727272727,
                "end_time": 46.38409090909091,
                "pitch": 63,
                "velocity": 101,
                "duration": 0.13636363636364024,
                "tempo": 120.0
            },
            {
                "start_time": 46.38409090909091,
                "end_time": 47.111363636363635,
                "pitch": 67,
                "velocity": 101,
                "duration": 0.7272727272727266,
                "tempo": 120.0
            },
            {
                "start_time": 47.111363636363635,
                "end_time": 47.34318181818182,
                "pitch": 65,
                "velocity": 101,
                "duration": 0.23181818181818414,
                "tempo": 120.0
            },
            {
                "start_time": 47.34318181818182,
                "end_time": 48.074999999999996,
                "pitch": 67,
                "velocity": 101,
                "duration": 0.731818181818177,
                "tempo": 120.0
            },
            {
                "start_time": 48.074999999999996,
                "end_time": 48.32727272727273,
                "pitch": 65,
                "velocity": 101,
                "duration": 0.2522727272727323,
                "tempo": 120.0
            },
            {
                "start_time": 48.32727272727273,
                "end_time": 49.04090909090909,
                "pitch": 67,
                "velocity": 101,
                "duration": 0.7136363636363612,
                "tempo": 120.0
            },
            {
                "start_time": 49.04090909090909,
                "end_time": 49.27045454545454,
                "pitch": 65,
                "velocity": 101,
                "duration": 0.22954545454545183,
                "tempo": 120.0
            },
            {
                "start_time": 49.27045454545454,
                "end_time": 50.0,
                "pitch": 67,
                "velocity": 101,
                "duration": 0.7295454545454589,
                "tempo": 120.0
            },
            {
                "start_time": 50.0,
                "end_time": 50.25,
                "pitch": 65,
                "velocity": 101,
                "duration": 0.25,
                "tempo": 120.0
            },
            {
                "start_time": 50.25,
                "end_time": 51.8,
                "pitch": 67,
                "velocity": 101,
                "duration": 1.5499999999999972,
                "tempo": 120.0
            },
            {
                "start_time": 51.8,
                "end_time": 51.93863636363636,
                "pitch": 65,
                "velocity": 101,
                "duration": 0.13863636363636545,
                "tempo": 120.0
            },
            {
                "start_time": 51.93863636363636,
                "end_time": 52.05681818181818,
                "pitch": 67,
                "velocity": 101,
                "duration": 0.11818181818181728,
                "tempo": 120.0
            },
            {
                "start_time": 52.05681818181818,
                "end_time": 52.17727272727272,
                "pitch": 65,
                "velocity": 101,
                "duration": 0.12045454545454248,
                "tempo": 120.0
            },
            {
                "start_time": 52.17727272727272,
                "end_time": 52.66136363636363,
                "pitch": 60,
                "velocity": 101,
                "duration": 0.48409090909090935,
                "tempo": 120.0
            },
            {
                "start_time": 52.66136363636363,
                "end_time": 53.15,
                "pitch": 58,
                "velocity": 101,
                "duration": 0.48863636363636687,
                "tempo": 120.0
            },
            {
                "start_time": 53.15,
                "end_time": 53.627272727272725,
                "pitch": 56,
                "velocity": 101,
                "duration": 0.4772727272727266,
                "tempo": 120.0
            }
        ],
        "Acoustic Bass": [
            {
                "start_time": 0.006818181818181818,
                "end_time": 0.12272727272727273,
                "pitch": 40,
                "velocity": 80,
                "duration": 0.1159090909090909,
                "tempo": 120.0
            },
            {
                "start_time": 0.12272727272727273,
                "end_time": 0.2409090909090909,
                "pitch": 40,
                "velocity": 80,
                "duration": 0.11818181818181818,
                "tempo": 120.0
            },
            {
                "start_time": 0.2409090909090909,
                "end_time": 0.35909090909090907,
                "pitch": 40,
                "velocity": 80,
                "duration": 0.11818181818181817,
                "tempo": 120.0
            },
            {
                "start_time": 0.35909090909090907,
                "end_time": 0.475,
                "pitch": 40,
                "velocity": 80,
                "duration": 0.1159090909090909,
                "tempo": 120.0
            },
            {
                "start_time": 0.47727272727272724,
                "end_time": 0.6045454545454545,
                "pitch": 40,
                "velocity": 80,
                "duration": 0.12727272727272726,
                "tempo": 120.0
            },
            {
                "start_time": 0.6045454545454545,
                "end_time": 0.7159090909090908,
                "pitch": 40,
                "velocity": 80,
                "duration": 0.11136363636363633,
                "tempo": 120.0
            },
            {
                "start_time": 0.7159090909090908,
                "end_time": 0.8295454545454545,
                "pitch": 40,
                "velocity": 80,
                "duration": 0.11363636363636365,
                "tempo": 120.0
            },
            {
                "start_time": 0.8295454545454545,
                "end_time": 0.9409090909090909,
                "pitch": 40,
                "velocity": 80,
                "duration": 0.11136363636363644,
                "tempo": 120.0
            },
            {
                "start_time": 0.9409090909090909,
                "end_time": 1.059090909090909,
                "pitch": 40,
                "velocity": 80,
                "duration": 0.11818181818181817,
                "tempo": 120.0
            },
            {
                "start_time": 1.059090909090909,
                "end_time": 1.190909090909091,
                "pitch": 40,
                "velocity": 80,
                "duration": 0.13181818181818183,
                "tempo": 120.0
            },
            {
                "start_time": 1.190909090909091,
                "end_time": 1.309090909090909,
                "pitch": 40,
                "velocity": 80,
                "duration": 0.11818181818181817,
                "tempo": 120.0
            },
            {
                "start_time": 1.309090909090909,
                "end_time": 1.4249999999999998,
                "pitch": 40,
                "velocity": 80,
                "duration": 0.11590909090909074,
                "tempo": 120.0
            },
            {
                "start_time": 1.4249999999999998,
                "end_time": 1.5431818181818182,
                "pitch": 40,
                "velocity": 80,
                "duration": 0.11818181818181839,
                "tempo": 120.0
            },
            {
                "start_time": 1.5431818181818182,
                "end_time": 1.6636363636363636,
                "pitch": 40,
                "velocity": 80,
                "duration": 0.12045454545454537,
                "tempo": 120.0
            },
            {
                "start_time": 1.6659090909090908,
                "end_time": 1.7999999999999998,
                "pitch": 40,
                "velocity": 80,
                "duration": 0.13409090909090904,
                "tempo": 120.0
            },
            {
                "start_time": 1.7999999999999998,
                "end_time": 1.9204545454545454,
                "pitch": 40,
                "velocity": 80,
                "duration": 0.12045454545454559,
                "tempo": 120.0
            },
            {
                "start_time": 1.9204545454545454,
                "end_time": 2.0386363636363636,
                "pitch": 40,
                "velocity": 80,
                "duration": 0.11818181818181817,
                "tempo": 120.0
            },
            {
                "start_time": 2.0386363636363636,
                "end_time": 2.1545454545454543,
                "pitch": 40,
                "velocity": 80,
                "duration": 0.11590909090909074,
                "tempo": 120.0
            },
            {
                "start_time": 2.1545454545454543,
                "end_time": 2.2704545454545455,
                "pitch": 40,
                "velocity": 80,
                "duration": 0.11590909090909118,
                "tempo": 120.0
            },
            {
                "start_time": 2.2704545454545455,
                "end_time": 2.4045454545454543,
                "pitch": 40,
                "velocity": 80,
                "duration": 0.13409090909090882,
                "tempo": 120.0
            },
            {
                "start_time": 2.4045454545454543,
                "end_time": 2.5227272727272725,
                "pitch": 40,
                "velocity": 80,
                "duration": 0.11818181818181817,
                "tempo": 120.0
            },
            {
                "start_time": 2.5227272727272725,
                "end_time": 2.6409090909090907,
                "pitch": 40,
                "velocity": 80,
                "duration": 0.11818181818181817,
                "tempo": 120.0
            },
            {
                "start_time": 2.6409090909090907,
                "end_time": 2.759090909090909,
                "pitch": 40,
                "velocity": 80,
                "duration": 0.11818181818181817,
                "tempo": 120.0
            },
            {
                "start_time": 2.759090909090909,
                "end_time": 2.877272727272727,
                "pitch": 40,
                "velocity": 80,
                "duration": 0.11818181818181817,
                "tempo": 120.0
            },
            {
                "start_time": 2.877272727272727,
                "end_time": 3.006818181818182,
                "pitch": 40,
                "velocity": 80,
                "duration": 0.12954545454545485,
                "tempo": 120.0
            },
            {
                "start_time": 3.006818181818182,
                "end_time": 3.1227272727272726,
                "pitch": 40,
                "velocity": 80,
                "duration": 0.11590909090909074,
                "tempo": 120.0
            },
            {
                "start_time": 3.1227272727272726,
                "end_time": 3.2363636363636363,
                "pitch": 40,
                "velocity": 80,
                "duration": 0.11363636363636376,
                "tempo": 120.0
            },
            {
                "start_time": 3.2363636363636363,
                "end_time": 3.352272727272727,
                "pitch": 40,
                "velocity": 80,
                "duration": 0.11590909090909074,
                "tempo": 120.0
            },
            {
                "start_time": 3.352272727272727,
                "end_time": 3.468181818181818,
                "pitch": 40,
                "velocity": 80,
                "duration": 0.11590909090909074,
                "tempo": 120.0
            },
            {
                "start_time": 3.468181818181818,
                "end_time": 3.602272727272727,
                "pitch": 40,
                "velocity": 80,
                "duration": 0.13409090909090926,
                "tempo": 120.0
            },
            {
                "start_time": 3.602272727272727,
                "end_time": 3.718181818181818,
                "pitch": 40,
                "velocity": 80,
                "duration": 0.11590909090909074,
                "tempo": 120.0
            },
            {
                "start_time": 3.718181818181818,
                "end_time": 3.836363636363636,
                "pitch": 40,
                "velocity": 80,
                "duration": 0.11818181818181817,
                "tempo": 120.0
            },
            {
                "start_time": 3.836363636363636,
                "end_time": 3.954545454545454,
                "pitch": 39,
                "velocity": 80,
                "duration": 0.11818181818181817,
                "tempo": 120.0
            },
            {
                "start_time": 3.9568181818181816,
                "end_time": 4.075,
                "pitch": 39,
                "velocity": 80,
                "duration": 0.11818181818181861,
                "tempo": 120.0
            },
            {
                "start_time": 4.075,
                "end_time": 4.211363636363636,
                "pitch": 39,
                "velocity": 80,
                "duration": 0.1363636363636358,
                "tempo": 120.0
            },
            {
                "start_time": 4.211363636363636,
                "end_time": 4.331818181818182,
                "pitch": 39,
                "velocity": 80,
                "duration": 0.12045454545454604,
                "tempo": 120.0
            },
            {
                "start_time": 4.331818181818182,
                "end_time": 4.447727272727272,
                "pitch": 39,
                "velocity": 80,
                "duration": 0.1159090909090903,
                "tempo": 120.0
            },
            {
                "start_time": 4.447727272727272,
                "end_time": 4.5659090909090905,
                "pitch": 39,
                "velocity": 80,
                "duration": 0.11818181818181817,
                "tempo": 120.0
            },
            {
                "start_time": 4.5659090909090905,
                "end_time": 4.681818181818182,
                "pitch": 39,
                "velocity": 80,
                "duration": 0.11590909090909118,
                "tempo": 120.0
            },
            {
                "start_time": 4.681818181818182,
                "end_time": 4.8159090909090905,
                "pitch": 39,
                "velocity": 80,
                "duration": 0.13409090909090882,
                "tempo": 120.0
            },
            {
                "start_time": 4.8159090909090905,
                "end_time": 4.934090909090909,
                "pitch": 39,
                "velocity": 80,
                "duration": 0.11818181818181817,
                "tempo": 120.0
            },
            {
                "start_time": 4.9363636363636365,
                "end_time": 5.054545454545455,
                "pitch": 39,
                "velocity": 80,
                "duration": 0.11818181818181817,
                "tempo": 120.0
            },
            {
                "start_time": 5.054545454545455,
                "end_time": 5.175,
                "pitch": 39,
                "velocity": 80,
                "duration": 0.12045454545454515,
                "tempo": 120.0
            },
            {
                "start_time": 5.175,
                "end_time": 5.295454545454545,
                "pitch": 39,
                "velocity": 80,
                "duration": 0.12045454545454515,
                "tempo": 120.0
            },
            {
                "start_time": 5.295454545454545,
                "end_time": 5.422727272727273,
                "pitch": 39,
                "velocity": 80,
                "duration": 0.12727272727272787,
                "tempo": 120.0
            },
            {
                "start_time": 5.422727272727273,
                "end_time": 5.536363636363636,
                "pitch": 39,
                "velocity": 80,
                "duration": 0.11363636363636331,
                "tempo": 120.0
            },
            {
                "start_time": 5.536363636363636,
                "end_time": 5.6477272727272725,
                "pitch": 39,
                "velocity": 80,
                "duration": 0.11136363636363633,
                "tempo": 120.0
            },
            {
                "start_time": 5.6477272727272725,
                "end_time": 5.759090909090909,
                "pitch": 39,
                "velocity": 80,
                "duration": 0.11136363636363633,
                "tempo": 120.0
            },
            {
                "start_time": 5.759090909090909,
                "end_time": 5.879545454545454,
                "pitch": 39,
                "velocity": 80,
                "duration": 0.12045454545454515,
                "tempo": 120.0
            },
            {
                "start_time": 5.879545454545454,
                "end_time": 6.015909090909091,
                "pitch": 39,
                "velocity": 80,
                "duration": 0.1363636363636367,
                "tempo": 120.0
            },
            {
                "start_time": 6.015909090909091,
                "end_time": 6.136363636363636,
                "pitch": 39,
                "velocity": 80,
                "duration": 0.12045454545454515,
                "tempo": 120.0
            },
            {
                "start_time": 6.136363636363636,
                "end_time": 6.254545454545454,
                "pitch": 39,
                "velocity": 80,
                "duration": 0.11818181818181817,
                "tempo": 120.0
            },
            {
                "start_time": 6.254545454545454,
                "end_time": 6.372727272727272,
                "pitch": 39,
                "velocity": 80,
                "duration": 0.11818181818181817,
                "tempo": 120.0
            },
            {
                "start_time": 6.372727272727272,
                "end_time": 6.49090909090909,
                "pitch": 39,
                "velocity": 80,
                "duration": 0.11818181818181817,
                "tempo": 120.0
            },
            {
                "start_time": 6.49090909090909,
                "end_time": 6.625,
                "pitch": 39,
                "velocity": 80,
                "duration": 0.1340909090909097,
                "tempo": 120.0
            },
            {
                "start_time": 6.625,
                "end_time": 6.743181818181818,
                "pitch": 39,
                "velocity": 80,
                "duration": 0.11818181818181817,
                "tempo": 120.0
            },
            {
                "start_time": 6.743181818181818,
                "end_time": 6.861363636363636,
                "pitch": 39,
                "velocity": 80,
                "duration": 0.11818181818181817,
                "tempo": 120.0
            },
            {
                "start_time": 6.863636363636363,
                "end_time": 6.9818181818181815,
                "pitch": 39,
                "velocity": 80,
                "duration": 0.11818181818181817,
                "tempo": 120.0
            },
            {
                "start_time": 6.9818181818181815,
                "end_time": 7.102272727272727,
                "pitch": 39,
                "velocity": 80,
                "duration": 0.12045454545454515,
                "tempo": 120.0
            },
            {
                "start_time": 7.102272727272727,
                "end_time": 7.238636363636363,
                "pitch": 39,
                "velocity": 80,
                "duration": 0.1363636363636367,
                "tempo": 120.0
            },
            {
                "start_time": 7.238636363636363,
                "end_time": 7.3545454545454545,
                "pitch": 39,
                "velocity": 80,
                "duration": 0.11590909090909118,
                "tempo": 120.0
            },
            {
                "start_time": 7.3545454545454545,
                "end_time": 7.472727272727273,
                "pitch": 39,
                "velocity": 80,
                "duration": 0.11818181818181817,
                "tempo": 120.0
            },
            {
                "start_time": 7.472727272727273,
                "end_time": 7.588636363636363,
                "pitch": 39,
                "velocity": 80,
                "duration": 0.1159090909090903,
                "tempo": 120.0
            },
            {
                "start_time": 7.588636363636363,
                "end_time": 7.706818181818181,
                "pitch": 39,
                "velocity": 80,
                "duration": 0.11818181818181817,
                "tempo": 120.0
            },
            {
                "start_time": 7.706818181818181,
                "end_time": 7.836363636363636,
                "pitch": 39,
                "velocity": 80,
                "duration": 0.12954545454545485,
                "tempo": 120.0
            },
            {
                "start_time": 7.838636363636363,
                "end_time": 7.952272727272727,
                "pitch": 39,
                "velocity": 80,
                "duration": 0.1136363636363642,
                "tempo": 120.0
            },
            {
                "start_time": 7.952272727272727,
                "end_time": 8.068181818181818,
                "pitch": 39,
                "velocity": 80,
                "duration": 0.11590909090909118,
                "tempo": 120.0
            },
            {
                "start_time": 8.068181818181818,
                "end_time": 8.181818181818182,
                "pitch": 39,
                "velocity": 80,
                "duration": 0.11363636363636331,
                "tempo": 120.0
            },
            {
                "start_time": 8.181818181818182,
                "end_time": 8.297727272727272,
                "pitch": 39,
                "velocity": 80,
                "duration": 0.1159090909090903,
                "tempo": 120.0
            },
            {
                "start_time": 8.297727272727272,
                "end_time": 8.431818181818182,
                "pitch": 39,
                "velocity": 80,
                "duration": 0.1340909090909097,
                "tempo": 120.0
            },
            {
                "start_time": 8.431818181818182,
                "end_time": 8.549999999999999,
                "pitch": 39,
                "velocity": 80,
                "duration": 0.11818181818181728,
                "tempo": 120.0
            },
            {
                "start_time": 8.549999999999999,
                "end_time": 8.665909090909091,
                "pitch": 39,
                "velocity": 80,
                "duration": 0.11590909090909207,
                "tempo": 120.0
            },
            {
                "start_time": 8.665909090909091,
                "end_time": 8.786363636363635,
                "pitch": 39,
                "velocity": 80,
                "duration": 0.12045454545454426,
                "tempo": 120.0
            },
            {
                "start_time": 8.786363636363635,
                "end_time": 8.904545454545454,
                "pitch": 39,
                "velocity": 80,
                "duration": 0.11818181818181905,
                "tempo": 120.0
            },
            {
                "start_time": 8.904545454545454,
                "end_time": 9.040909090909091,
                "pitch": 39,
                "velocity": 80,
                "duration": 0.1363636363636367,
                "tempo": 120.0
            },
            {
                "start_time": 9.043181818181818,
                "end_time": 9.161363636363635,
                "pitch": 39,
                "velocity": 80,
                "duration": 0.11818181818181728,
                "tempo": 120.0
            },
            {
                "start_time": 9.161363636363635,
                "end_time": 9.279545454545454,
                "pitch": 39,
                "velocity": 80,
                "duration": 0.11818181818181905,
                "tempo": 120.0
            },
            {
                "start_time": 9.279545454545454,
                "end_time": 9.397727272727272,
                "pitch": 39,
                "velocity": 80,
                "duration": 0.11818181818181728,
                "tempo": 120.0
            },
            {
                "start_time": 9.397727272727272,
                "end_time": 9.513636363636364,
                "pitch": 39,
                "velocity": 80,
                "duration": 0.11590909090909207,
                "tempo": 120.0
            },
            {
                "start_time": 9.513636363636364,
                "end_time": 9.65,
                "pitch": 39,
                "velocity": 80,
                "duration": 0.1363636363636367,
                "tempo": 120.0
            },
            {
                "start_time": 9.65,
                "end_time": 9.76590909090909,
                "pitch": 39,
                "velocity": 80,
                "duration": 0.1159090909090903,
                "tempo": 120.0
            },
            {
                "start_time": 9.76590909090909,
                "end_time": 9.884090909090908,
                "pitch": 39,
                "velocity": 80,
                "duration": 0.11818181818181728,
                "tempo": 120.0
            },
            {
                "start_time": 9.884090909090908,
                "end_time": 10.0,
                "pitch": 39,
                "velocity": 80,
                "duration": 0.11590909090909207,
                "tempo": 120.0
            },
            {
                "start_time": 10.0,
                "end_time": 10.11590909090909,
                "pitch": 39,
                "velocity": 80,
                "duration": 0.1159090909090903,
                "tempo": 120.0
            },
            {
                "start_time": 10.118181818181817,
                "end_time": 10.247727272727273,
                "pitch": 39,
                "velocity": 80,
                "duration": 0.12954545454545574,
                "tempo": 120.0
            },
            {
                "start_time": 10.247727272727273,
                "end_time": 10.363636363636363,
                "pitch": 39,
                "velocity": 80,
                "duration": 0.1159090909090903,
                "tempo": 120.0
            },
            {
                "start_time": 10.363636363636363,
                "end_time": 10.477272727272727,
                "pitch": 39,
                "velocity": 80,
                "duration": 0.11363636363636331,
                "tempo": 120.0
            },
            {
                "start_time": 10.479545454545454,
                "end_time": 10.593181818181817,
                "pitch": 39,
                "velocity": 80,
                "duration": 0.11363636363636331,
                "tempo": 120.0
            },
            {
                "start_time": 10.593181818181817,
                "end_time": 10.711363636363636,
                "pitch": 39,
                "velocity": 80,
                "duration": 0.11818181818181905,
                "tempo": 120.0
            },
            {
                "start_time": 10.711363636363636,
                "end_time": 10.845454545454546,
                "pitch": 39,
                "velocity": 80,
                "duration": 0.1340909090909097,
                "tempo": 120.0
            },
            {
                "start_time": 10.845454545454546,
                "end_time": 10.963636363636363,
                "pitch": 39,
                "velocity": 80,
                "duration": 0.11818181818181728,
                "tempo": 120.0
            },
            {
                "start_time": 10.963636363636363,
                "end_time": 11.081818181818182,
                "pitch": 39,
                "velocity": 80,
                "duration": 0.11818181818181905,
                "tempo": 120.0
            },
            {
                "start_time": 11.081818181818182,
                "end_time": 11.2,
                "pitch": 39,
                "velocity": 80,
                "duration": 0.11818181818181728,
                "tempo": 120.0
            },
            {
                "start_time": 11.2,
                "end_time": 11.320454545454545,
                "pitch": 39,
                "velocity": 80,
                "duration": 0.12045454545454604,
                "tempo": 120.0
            },
            {
                "start_time": 11.320454545454545,
                "end_time": 11.456818181818182,
                "pitch": 39,
                "velocity": 80,
                "duration": 0.1363636363636367,
                "tempo": 120.0
            },
            {
                "start_time": 11.456818181818182,
                "end_time": 11.577272727272726,
                "pitch": 39,
                "velocity": 80,
                "duration": 0.12045454545454426,
                "tempo": 120.0
            },
            {
                "start_time": 11.577272727272726,
                "end_time": 11.693181818181818,
                "pitch": 40,
                "velocity": 80,
                "duration": 0.11590909090909207,
                "tempo": 120.0
            },
            {
                "start_time": 11.693181818181818,
                "end_time": 11.811363636363636,
                "pitch": 40,
                "velocity": 80,
                "duration": 0.11818181818181728,
                "tempo": 120.0
            },
            {
                "start_time": 11.811363636363636,
                "end_time": 11.927272727272726,
                "pitch": 40,
                "velocity": 80,
                "duration": 0.1159090909090903,
                "tempo": 120.0
            },
            {
                "start_time": 11.927272727272726,
                "end_time": 12.061363636363636,
                "pitch": 40,
                "velocity": 80,
                "duration": 0.1340909090909097,
                "tempo": 120.0
            },
            {
                "start_time": 12.061363636363636,
                "end_time": 12.179545454545455,
                "pitch": 40,
                "velocity": 80,
                "duration": 0.11818181818181905,
                "tempo": 120.0
            },
            {
                "start_time": 12.179545454545455,
                "end_time": 12.299999999999999,
                "pitch": 40,
                "velocity": 80,
                "duration": 0.12045454545454426,
                "tempo": 120.0
            },
            {
                "start_time": 12.299999999999999,
                "end_time": 12.420454545454545,
                "pitch": 40,
                "velocity": 80,
                "duration": 0.12045454545454604,
                "tempo": 120.0
            },
            {
                "start_time": 12.420454545454545,
                "end_time": 12.538636363636362,
                "pitch": 40,
                "velocity": 80,
                "duration": 0.11818181818181728,
                "tempo": 120.0
            },
            {
                "start_time": 12.538636363636362,
                "end_time": 12.670454545454545,
                "pitch": 40,
                "velocity": 80,
                "duration": 0.13181818181818272,
                "tempo": 120.0
            },
            {
                "start_time": 12.670454545454545,
                "end_time": 12.786363636363635,
                "pitch": 40,
                "velocity": 80,
                "duration": 0.1159090909090903,
                "tempo": 120.0
            },
            {
                "start_time": 12.786363636363635,
                "end_time": 12.899999999999999,
                "pitch": 40,
                "velocity": 80,
                "duration": 0.11363636363636331,
                "tempo": 120.0
            },
            {
                "start_time": 12.899999999999999,
                "end_time": 13.01590909090909,
                "pitch": 40,
                "velocity": 80,
                "duration": 0.11590909090909207,
                "tempo": 120.0
            },
            {
                "start_time": 13.01590909090909,
                "end_time": 13.131818181818181,
                "pitch": 40,
                "velocity": 80,
                "duration": 0.1159090909090903,
                "tempo": 120.0
            },
            {
                "start_time": 13.131818181818181,
                "end_time": 13.268181818181818,
                "pitch": 40,
                "velocity": 80,
                "duration": 0.1363636363636367,
                "tempo": 120.0
            },
            {
                "start_time": 13.268181818181818,
                "end_time": 13.386363636363635,
                "pitch": 40,
                "velocity": 80,
                "duration": 0.11818181818181728,
                "tempo": 120.0
            },
            {
                "start_time": 13.386363636363635,
                "end_time": 13.504545454545454,
                "pitch": 40,
                "velocity": 80,
                "duration": 0.11818181818181905,
                "tempo": 120.0
            },
            {
                "start_time": 13.504545454545454,
                "end_time": 13.620454545454544,
                "pitch": 40,
                "velocity": 80,
                "duration": 0.1159090909090903,
                "tempo": 120.0
            },
            {
                "start_time": 13.620454545454544,
                "end_time": 13.738636363636363,
                "pitch": 40,
                "velocity": 80,
                "duration": 0.11818181818181905,
                "tempo": 120.0
            },
            {
                "start_time": 13.738636363636363,
                "end_time": 13.872727272727271,
                "pitch": 40,
                "velocity": 80,
                "duration": 0.13409090909090793,
                "tempo": 120.0
            },
            {
                "start_time": 13.872727272727271,
                "end_time": 13.99090909090909,
                "pitch": 40,
                "velocity": 80,
                "duration": 0.11818181818181905,
                "tempo": 120.0
            },
            {
                "start_time": 13.99090909090909,
                "end_time": 14.10681818181818,
                "pitch": 40,
                "velocity": 80,
                "duration": 0.1159090909090903,
                "tempo": 120.0
            },
            {
                "start_time": 14.10681818181818,
                "end_time": 14.225,
                "pitch": 40,
                "velocity": 80,
                "duration": 0.11818181818181905,
                "tempo": 120.0
            },
            {
                "start_time": 14.225,
                "end_time": 14.34090909090909,
                "pitch": 40,
                "velocity": 80,
                "duration": 0.1159090909090903,
                "tempo": 120.0
            },
            {
                "start_time": 14.34090909090909,
                "end_time": 14.475,
                "pitch": 40,
                "velocity": 80,
                "duration": 0.1340909090909097,
                "tempo": 120.0
            },
            {
                "start_time": 14.475,
                "end_time": 14.595454545454544,
                "pitch": 40,
                "velocity": 80,
                "duration": 0.12045454545454426,
                "tempo": 120.0
            },
            {
                "start_time": 14.595454545454544,
                "end_time": 14.713636363636363,
                "pitch": 40,
                "velocity": 80,
                "duration": 0.11818181818181905,
                "tempo": 120.0
            },
            {
                "start_time": 14.71590909090909,
                "end_time": 14.834090909090909,
                "pitch": 40,
                "velocity": 80,
                "duration": 0.11818181818181905,
                "tempo": 120.0
            },
            {
                "start_time": 14.834090909090909,
                "end_time": 14.954545454545453,
                "pitch": 40,
                "velocity": 80,
                "duration": 0.12045454545454426,
                "tempo": 120.0
            },
            {
                "start_time": 14.954545454545453,
                "end_time": 15.086363636363636,
                "pitch": 40,
                "velocity": 80,
                "duration": 0.13181818181818272,
                "tempo": 120.0
            },
            {
                "start_time": 15.086363636363636,
                "end_time": 15.2,
                "pitch": 40,
                "velocity": 80,
                "duration": 0.11363636363636331,
                "tempo": 120.0
            },
            {
                "start_time": 15.2,
                "end_time": 15.31590909090909,
                "pitch": 40,
                "velocity": 80,
                "duration": 0.1159090909090903,
                "tempo": 120.0
            },
            {
                "start_time": 15.31590909090909,
                "end_time": 15.431818181818182,
                "pitch": 40,
                "velocity": 80,
                "duration": 0.11590909090909207,
                "tempo": 120.0
            },
            {
                "start_time": 15.431818181818182,
                "end_time": 15.549999999999999,
                "pitch": 36,
                "velocity": 80,
                "duration": 0.11818181818181728,
                "tempo": 120.0
            },
            {
                "start_time": 15.549999999999999,
                "end_time": 15.686363636363636,
                "pitch": 36,
                "velocity": 80,
                "duration": 0.1363636363636367,
                "tempo": 120.0
            },
            {
                "start_time": 15.686363636363636,
                "end_time": 15.806818181818182,
                "pitch": 36,
                "velocity": 80,
                "duration": 0.12045454545454604,
                "tempo": 120.0
            },
            {
                "start_time": 15.806818181818182,
                "end_time": 15.924999999999999,
                "pitch": 36,
                "velocity": 80,
                "duration": 0.11818181818181728,
                "tempo": 120.0
            },
            {
                "start_time": 15.924999999999999,
                "end_time": 16.04090909090909,
                "pitch": 36,
                "velocity": 80,
                "duration": 0.1159090909090903,
                "tempo": 120.0
            },
            {
                "start_time": 16.04090909090909,
                "end_time": 16.15681818181818,
                "pitch": 36,
                "velocity": 80,
                "duration": 0.11590909090909207,
                "tempo": 120.0
            },
            {
                "start_time": 16.15681818181818,
                "end_time": 16.286363636363635,
                "pitch": 36,
                "velocity": 80,
                "duration": 0.12954545454545396,
                "tempo": 120.0
            },
            {
                "start_time": 16.286363636363635,
                "end_time": 16.402272727272727,
                "pitch": 36,
                "velocity": 80,
                "duration": 0.11590909090909207,
                "tempo": 120.0
            },
            {
                "start_time": 16.402272727272727,
                "end_time": 16.520454545454545,
                "pitch": 36,
                "velocity": 80,
                "duration": 0.11818181818181728,
                "tempo": 120.0
            },
            {
                "start_time": 16.522727272727273,
                "end_time": 16.64090909090909,
                "pitch": 36,
                "velocity": 80,
                "duration": 0.11818181818181728,
                "tempo": 120.0
            },
            {
                "start_time": 16.64090909090909,
                "end_time": 16.761363636363637,
                "pitch": 36,
                "velocity": 80,
                "duration": 0.12045454545454604,
                "tempo": 120.0
            },
            {
                "start_time": 16.761363636363637,
                "end_time": 16.897727272727273,
                "pitch": 36,
                "velocity": 80,
                "duration": 0.1363636363636367,
                "tempo": 120.0
            },
            {
                "start_time": 16.897727272727273,
                "end_time": 17.013636363636362,
                "pitch": 36,
                "velocity": 80,
                "duration": 0.11590909090908852,
                "tempo": 120.0
            },
            {
                "start_time": 17.013636363636362,
                "end_time": 17.131818181818183,
                "pitch": 36,
                "velocity": 80,
                "duration": 0.11818181818182083,
                "tempo": 120.0
            },
            {
                "start_time": 17.131818181818183,
                "end_time": 17.24772727272727,
                "pitch": 36,
                "velocity": 80,
                "duration": 0.11590909090908852,
                "tempo": 120.0
            },
            {
                "start_time": 17.24772727272727,
                "end_time": 17.36590909090909,
                "pitch": 36,
                "velocity": 80,
                "duration": 0.11818181818181728,
                "tempo": 120.0
            },
            {
                "start_time": 17.36590909090909,
                "end_time": 17.495454545454546,
                "pitch": 35,
                "velocity": 80,
                "duration": 0.12954545454545752,
                "tempo": 120.0
            },
            {
                "start_time": 17.495454545454546,
                "end_time": 17.611363636363635,
                "pitch": 35,
                "velocity": 80,
                "duration": 0.11590909090908852,
                "tempo": 120.0
            },
            {
                "start_time": 17.611363636363635,
                "end_time": 17.727272727272727,
                "pitch": 35,
                "velocity": 80,
                "duration": 0.11590909090909207,
                "tempo": 120.0
            },
            {
                "start_time": 17.727272727272727,
                "end_time": 17.84090909090909,
                "pitch": 35,
                "velocity": 80,
                "duration": 0.11363636363636331,
                "tempo": 120.0
            },
            {
                "start_time": 17.84090909090909,
                "end_time": 17.959090909090907,
                "pitch": 35,
                "velocity": 80,
                "duration": 0.11818181818181728,
                "tempo": 120.0
            },
            {
                "start_time": 17.959090909090907,
                "end_time": 18.09318181818182,
                "pitch": 35,
                "velocity": 80,
                "duration": 0.13409090909091148,
                "tempo": 120.0
            },
            {
                "start_time": 18.09318181818182,
                "end_time": 18.211363636363636,
                "pitch": 35,
                "velocity": 80,
                "duration": 0.11818181818181728,
                "tempo": 120.0
            },
            {
                "start_time": 18.211363636363636,
                "end_time": 18.329545454545453,
                "pitch": 35,
                "velocity": 80,
                "duration": 0.11818181818181728,
                "tempo": 120.0
            },
            {
                "start_time": 18.329545454545453,
                "end_time": 18.44772727272727,
                "pitch": 35,
                "velocity": 80,
                "duration": 0.11818181818181728,
                "tempo": 120.0
            },
            {
                "start_time": 18.44772727272727,
                "end_time": 18.568181818181817,
                "pitch": 35,
                "velocity": 80,
                "duration": 0.12045454545454604,
                "tempo": 120.0
            },
            {
                "start_time": 18.568181818181817,
                "end_time": 18.704545454545453,
                "pitch": 35,
                "velocity": 80,
                "duration": 0.1363636363636367,
                "tempo": 120.0
            },
            {
                "start_time": 18.706818181818182,
                "end_time": 18.825,
                "pitch": 35,
                "velocity": 80,
                "duration": 0.11818181818181728,
                "tempo": 120.0
            },
            {
                "start_time": 18.825,
                "end_time": 18.943181818181817,
                "pitch": 35,
                "velocity": 80,
                "duration": 0.11818181818181728,
                "tempo": 120.0
            },
            {
                "start_time": 18.943181818181817,
                "end_time": 19.061363636363634,
                "pitch": 35,
                "velocity": 80,
                "duration": 0.11818181818181728,
                "tempo": 120.0
            },
            {
                "start_time": 19.061363636363634,
                "end_time": 19.177272727272726,
                "pitch": 35,
                "velocity": 80,
                "duration": 0.11590909090909207,
                "tempo": 120.0
            },
            {
                "start_time": 19.177272727272726,
                "end_time": 19.313636363636363,
                "pitch": 35,
                "velocity": 80,
                "duration": 0.1363636363636367,
                "tempo": 120.0
            },
            {
                "start_time": 19.313636363636363,
                "end_time": 19.429545454545455,
                "pitch": 34,
                "velocity": 80,
                "duration": 0.11590909090909207,
                "tempo": 120.0
            },
            {
                "start_time": 19.429545454545455,
                "end_time": 19.547727272727272,
                "pitch": 34,
                "velocity": 80,
                "duration": 0.11818181818181728,
                "tempo": 120.0
            },
            {
                "start_time": 19.547727272727272,
                "end_time": 19.66590909090909,
                "pitch": 34,
                "velocity": 80,
                "duration": 0.11818181818181728,
                "tempo": 120.0
            },
            {
                "start_time": 19.66590909090909,
                "end_time": 19.784090909090907,
                "pitch": 34,
                "velocity": 80,
                "duration": 0.11818181818181728,
                "tempo": 120.0
            },
            {
                "start_time": 19.784090909090907,
                "end_time": 19.913636363636364,
                "pitch": 34,
                "velocity": 80,
                "duration": 0.12954545454545752,
                "tempo": 120.0
            },
            {
                "start_time": 19.913636363636364,
                "end_time": 20.029545454545453,
                "pitch": 34,
                "velocity": 80,
                "duration": 0.11590909090908852,
                "tempo": 120.0
            },
            {
                "start_time": 20.029545454545453,
                "end_time": 20.145454545454545,
                "pitch": 34,
                "velocity": 80,
                "duration": 0.11590909090909207,
                "tempo": 120.0
            },
            {
                "start_time": 20.145454545454545,
                "end_time": 20.261363636363637,
                "pitch": 34,
                "velocity": 80,
                "duration": 0.11590909090909207,
                "tempo": 120.0
            },
            {
                "start_time": 20.261363636363637,
                "end_time": 20.379545454545454,
                "pitch": 34,
                "velocity": 80,
                "duration": 0.11818181818181728,
                "tempo": 120.0
            },
            {
                "start_time": 20.379545454545454,
                "end_time": 20.51590909090909,
                "pitch": 34,
                "velocity": 80,
                "duration": 0.1363636363636367,
                "tempo": 120.0
            },
            {
                "start_time": 20.51590909090909,
                "end_time": 20.636363636363637,
                "pitch": 34,
                "velocity": 80,
                "duration": 0.12045454545454604,
                "tempo": 120.0
            },
            {
                "start_time": 20.636363636363637,
                "end_time": 20.754545454545454,
                "pitch": 34,
                "velocity": 80,
                "duration": 0.11818181818181728,
                "tempo": 120.0
            },
            {
                "start_time": 20.75681818181818,
                "end_time": 20.87272727272727,
                "pitch": 34,
                "velocity": 80,
                "duration": 0.11590909090909207,
                "tempo": 120.0
            },
            {
                "start_time": 20.87272727272727,
                "end_time": 20.99090909090909,
                "pitch": 34,
                "velocity": 80,
                "duration": 0.11818181818181728,
                "tempo": 120.0
            },
            {
                "start_time": 20.99090909090909,
                "end_time": 21.125,
                "pitch": 34,
                "velocity": 80,
                "duration": 0.13409090909091148,
                "tempo": 120.0
            },
            {
                "start_time": 21.125,
                "end_time": 21.243181818181817,
                "pitch": 34,
                "velocity": 80,
                "duration": 0.11818181818181728,
                "tempo": 120.0
            },
            {
                "start_time": 21.243181818181817,
                "end_time": 21.35909090909091,
                "pitch": 34,
                "velocity": 80,
                "duration": 0.11590909090909207,
                "tempo": 120.0
            },
            {
                "start_time": 21.361363636363635,
                "end_time": 21.477272727272727,
                "pitch": 34,
                "velocity": 80,
                "duration": 0.11590909090909207,
                "tempo": 120.0
            },
            {
                "start_time": 21.477272727272727,
                "end_time": 21.59318181818182,
                "pitch": 34,
                "velocity": 80,
                "duration": 0.11590909090909207,
                "tempo": 120.0
            },
            {
                "start_time": 21.59318181818182,
                "end_time": 21.727272727272727,
                "pitch": 34,
                "velocity": 80,
                "duration": 0.13409090909090793,
                "tempo": 120.0
            },
            {
                "start_time": 21.727272727272727,
                "end_time": 21.845454545454544,
                "pitch": 34,
                "velocity": 80,
                "duration": 0.11818181818181728,
                "tempo": 120.0
            },
            {
                "start_time": 21.845454545454544,
                "end_time": 21.96590909090909,
                "pitch": 34,
                "velocity": 80,
                "duration": 0.12045454545454604,
                "tempo": 120.0
            },
            {
                "start_time": 21.96818181818182,
                "end_time": 22.086363636363636,
                "pitch": 34,
                "velocity": 80,
                "duration": 0.11818181818181728,
                "tempo": 120.0
            },
            {
                "start_time": 22.086363636363636,
                "end_time": 22.206818181818182,
                "pitch": 34,
                "velocity": 80,
                "duration": 0.12045454545454604,
                "tempo": 120.0
            },
            {
                "start_time": 22.206818181818182,
                "end_time": 22.336363636363636,
                "pitch": 34,
                "velocity": 80,
                "duration": 0.12954545454545396,
                "tempo": 120.0
            },
            {
                "start_time": 22.33863636363636,
                "end_time": 22.452272727272724,
                "pitch": 34,
                "velocity": 80,
                "duration": 0.11363636363636331,
                "tempo": 120.0
            },
            {
                "start_time": 22.452272727272724,
                "end_time": 22.568181818181817,
                "pitch": 34,
                "velocity": 80,
                "duration": 0.11590909090909207,
                "tempo": 120.0
            },
            {
                "start_time": 22.568181818181817,
                "end_time": 22.68181818181818,
                "pitch": 34,
                "velocity": 80,
                "duration": 0.11363636363636331,
                "tempo": 120.0
            },
            {
                "start_time": 22.68181818181818,
                "end_time": 22.799999999999997,
                "pitch": 34,
                "velocity": 80,
                "duration": 0.11818181818181728,
                "tempo": 120.0
            },
            {
                "start_time": 22.799999999999997,
                "end_time": 22.936363636363634,
                "pitch": 34,
                "velocity": 80,
                "duration": 0.1363636363636367,
                "tempo": 120.0
            },
            {
                "start_time": 22.936363636363634,
                "end_time": 23.052272727272726,
                "pitch": 34,
                "velocity": 80,
                "duration": 0.11590909090909207,
                "tempo": 120.0
            },
            {
                "start_time": 23.052272727272726,
                "end_time": 23.170454545454543,
                "pitch": 34,
                "velocity": 80,
                "duration": 0.11818181818181728,
                "tempo": 120.0
            },
            {
                "start_time": 23.170454545454543,
                "end_time": 23.288636363636364,
                "pitch": 35,
                "velocity": 80,
                "duration": 0.11818181818182083,
                "tempo": 120.0
            },
            {
                "start_time": 23.288636363636364,
                "end_time": 23.404545454545453,
                "pitch": 35,
                "velocity": 80,
                "duration": 0.11590909090908852,
                "tempo": 120.0
            },
            {
                "start_time": 23.40681818181818,
                "end_time": 23.54090909090909,
                "pitch": 35,
                "velocity": 80,
                "duration": 0.13409090909090793,
                "tempo": 120.0
            },
            {
                "start_time": 23.54090909090909,
                "end_time": 23.659090909090907,
                "pitch": 35,
                "velocity": 80,
                "duration": 0.11818181818181728,
                "tempo": 120.0
            },
            {
                "start_time": 23.659090909090907,
                "end_time": 23.777272727272727,
                "pitch": 35,
                "velocity": 80,
                "duration": 0.11818181818182083,
                "tempo": 120.0
            },
            {
                "start_time": 23.777272727272727,
                "end_time": 23.89772727272727,
                "pitch": 35,
                "velocity": 80,
                "duration": 0.12045454545454248,
                "tempo": 120.0
            },
            {
                "start_time": 23.89772727272727,
                "end_time": 24.01590909090909,
                "pitch": 35,
                "velocity": 80,
                "duration": 0.11818181818182083,
                "tempo": 120.0
            },
            {
                "start_time": 24.018181818181816,
                "end_time": 24.154545454545453,
                "pitch": 35,
                "velocity": 80,
                "duration": 0.1363636363636367,
                "tempo": 120.0
            },
            {
                "start_time": 24.154545454545453,
                "end_time": 24.270454545454545,
                "pitch": 35,
                "velocity": 80,
                "duration": 0.11590909090909207,
                "tempo": 120.0
            },
            {
                "start_time": 24.27272727272727,
                "end_time": 24.388636363636362,
                "pitch": 35,
                "velocity": 80,
                "duration": 0.11590909090909207,
                "tempo": 120.0
            },
            {
                "start_time": 24.388636363636362,
                "end_time": 24.50681818181818,
                "pitch": 35,
                "velocity": 80,
                "duration": 0.11818181818181728,
                "tempo": 120.0
            },
            {
                "start_time": 24.50681818181818,
                "end_time": 24.625,
                "pitch": 35,
                "velocity": 80,
                "duration": 0.11818181818182083,
                "tempo": 120.0
            },
            {
                "start_time": 24.625,
                "end_time": 24.754545454545454,
                "pitch": 35,
                "velocity": 80,
                "duration": 0.12954545454545396,
                "tempo": 120.0
            },
            {
                "start_time": 24.75681818181818,
                "end_time": 24.87272727272727,
                "pitch": 35,
                "velocity": 80,
                "duration": 0.11590909090909207,
                "tempo": 120.0
            },
            {
                "start_time": 24.87272727272727,
                "end_time": 24.986363636363635,
                "pitch": 35,
                "velocity": 80,
                "duration": 0.11363636363636331,
                "tempo": 120.0
            },
            {
                "start_time": 24.986363636363635,
                "end_time": 25.102272727272727,
                "pitch": 35,
                "velocity": 80,
                "duration": 0.11590909090909207,
                "tempo": 120.0
            },
            {
                "start_time": 25.102272727272727,
                "end_time": 25.21818181818182,
                "pitch": 35,
                "velocity": 80,
                "duration": 0.11590909090909207,
                "tempo": 120.0
            },
            {
                "start_time": 25.21818181818182,
                "end_time": 25.352272727272727,
                "pitch": 35,
                "velocity": 80,
                "duration": 0.13409090909090793,
                "tempo": 120.0
            },
            {
                "start_time": 25.352272727272727,
                "end_time": 25.46818181818182,
                "pitch": 35,
                "velocity": 80,
                "duration": 0.11590909090909207,
                "tempo": 120.0
            },
            {
                "start_time": 25.46818181818182,
                "end_time": 25.586363636363636,
                "pitch": 35,
                "velocity": 80,
                "duration": 0.11818181818181728,
                "tempo": 120.0
            },
            {
                "start_time": 25.586363636363636,
                "end_time": 25.704545454545453,
                "pitch": 35,
                "velocity": 80,
                "duration": 0.11818181818181728,
                "tempo": 120.0
            },
            {
                "start_time": 25.704545454545453,
                "end_time": 25.825,
                "pitch": 35,
                "velocity": 80,
                "duration": 0.12045454545454604,
                "tempo": 120.0
            },
            {
                "start_time": 25.825,
                "end_time": 25.961363636363636,
                "pitch": 35,
                "velocity": 80,
                "duration": 0.1363636363636367,
                "tempo": 120.0
            },
            {
                "start_time": 25.961363636363636,
                "end_time": 26.081818181818182,
                "pitch": 35,
                "velocity": 80,
                "duration": 0.12045454545454604,
                "tempo": 120.0
            },
            {
                "start_time": 26.081818181818182,
                "end_time": 26.19772727272727,
                "pitch": 35,
                "velocity": 80,
                "duration": 0.11590909090908852,
                "tempo": 120.0
            },
            {
                "start_time": 26.19772727272727,
                "end_time": 26.31590909090909,
                "pitch": 35,
                "velocity": 80,
                "duration": 0.11818181818182083,
                "tempo": 120.0
            },
            {
                "start_time": 26.31590909090909,
                "end_time": 26.43409090909091,
                "pitch": 35,
                "velocity": 80,
                "duration": 0.11818181818181728,
                "tempo": 120.0
            },
            {
                "start_time": 26.43409090909091,
                "end_time": 26.568181818181817,
                "pitch": 35,
                "velocity": 80,
                "duration": 0.13409090909090793,
                "tempo": 120.0
            },
            {
                "start_time": 26.570454545454545,
                "end_time": 26.686363636363634,
                "pitch": 35,
                "velocity": 80,
                "duration": 0.11590909090908852,
                "tempo": 120.0
            },
            {
                "start_time": 26.686363636363634,
                "end_time": 26.804545454545455,
                "pitch": 35,
                "velocity": 80,
                "duration": 0.11818181818182083,
                "tempo": 120.0
            },
            {
                "start_time": 26.804545454545455,
                "end_time": 26.922727272727272,
                "pitch": 35,
                "velocity": 80,
                "duration": 0.11818181818181728,
                "tempo": 120.0
            },
            {
                "start_time": 26.922727272727272,
                "end_time": 27.04090909090909,
                "pitch": 35,
                "velocity": 80,
                "duration": 0.11818181818181728,
                "tempo": 120.0
            },
            {
                "start_time": 27.04090909090909,
                "end_time": 27.174999999999997,
                "pitch": 41,
                "velocity": 80,
                "duration": 0.13409090909090793,
                "tempo": 120.0
            },
            {
                "start_time": 27.174999999999997,
                "end_time": 27.29090909090909,
                "pitch": 41,
                "velocity": 80,
                "duration": 0.11590909090909207,
                "tempo": 120.0
            },
            {
                "start_time": 27.29090909090909,
                "end_time": 27.409090909090907,
                "pitch": 41,
                "velocity": 80,
                "duration": 0.11818181818181728,
                "tempo": 120.0
            },
            {
                "start_time": 27.409090909090907,
                "end_time": 27.527272727272727,
                "pitch": 41,
                "velocity": 80,
                "duration": 0.11818181818182083,
                "tempo": 120.0
            },
            {
                "start_time": 27.527272727272727,
                "end_time": 27.643181818181816,
                "pitch": 41,
                "velocity": 80,
                "duration": 0.11590909090908852,
                "tempo": 120.0
            },
            {
                "start_time": 27.643181818181816,
                "end_time": 27.777272727272727,
                "pitch": 41,
                "velocity": 80,
                "duration": 0.13409090909091148,
                "tempo": 120.0
            },
            {
                "start_time": 27.777272727272727,
                "end_time": 27.895454545454545,
                "pitch": 41,
                "velocity": 80,
                "duration": 0.11818181818181728,
                "tempo": 120.0
            },
            {
                "start_time": 27.895454545454545,
                "end_time": 28.011363636363637,
                "pitch": 41,
                "velocity": 80,
                "duration": 0.11590909090909207,
                "tempo": 120.0
            },
            {
                "start_time": 28.011363636363637,
                "end_time": 28.129545454545454,
                "pitch": 41,
                "velocity": 80,
                "duration": 0.11818181818181728,
                "tempo": 120.0
            },
            {
                "start_time": 28.129545454545454,
                "end_time": 28.24772727272727,
                "pitch": 41,
                "velocity": 80,
                "duration": 0.11818181818181728,
                "tempo": 120.0
            },
            {
                "start_time": 28.24772727272727,
                "end_time": 28.38181818181818,
                "pitch": 41,
                "velocity": 80,
                "duration": 0.13409090909090793,
                "tempo": 120.0
            },
            {
                "start_time": 28.38181818181818,
                "end_time": 28.5,
                "pitch": 41,
                "velocity": 80,
                "duration": 0.11818181818182083,
                "tempo": 120.0
            },
            {
                "start_time": 28.5,
                "end_time": 28.61590909090909,
                "pitch": 41,
                "velocity": 80,
                "duration": 0.11590909090908852,
                "tempo": 120.0
            },
            {
                "start_time": 28.61590909090909,
                "end_time": 28.73409090909091,
                "pitch": 41,
                "velocity": 80,
                "duration": 0.11818181818182083,
                "tempo": 120.0
            },
            {
                "start_time": 28.73409090909091,
                "end_time": 28.852272727272727,
                "pitch": 41,
                "velocity": 80,
                "duration": 0.11818181818181728,
                "tempo": 120.0
            },
            {
                "start_time": 28.852272727272727,
                "end_time": 28.986363636363635,
                "pitch": 41,
                "velocity": 80,
                "duration": 0.13409090909090793,
                "tempo": 120.0
            },
            {
                "start_time": 28.988636363636363,
                "end_time": 29.104545454545452,
                "pitch": 41,
                "velocity": 80,
                "duration": 0.11590909090908852,
                "tempo": 120.0
            },
            {
                "start_time": 29.104545454545452,
                "end_time": 29.222727272727273,
                "pitch": 41,
                "velocity": 80,
                "duration": 0.11818181818182083,
                "tempo": 120.0
            },
            {
                "start_time": 29.222727272727273,
                "end_time": 29.34090909090909,
                "pitch": 41,
                "velocity": 80,
                "duration": 0.11818181818181728,
                "tempo": 120.0
            },
            {
                "start_time": 29.34090909090909,
                "end_time": 29.456818181818182,
                "pitch": 41,
                "velocity": 80,
                "duration": 0.11590909090909207,
                "tempo": 120.0
            },
            {
                "start_time": 29.459090909090907,
                "end_time": 29.58863636363636,
                "pitch": 41,
                "velocity": 80,
                "duration": 0.12954545454545396,
                "tempo": 120.0
            },
            {
                "start_time": 29.58863636363636,
                "end_time": 29.704545454545453,
                "pitch": 41,
                "velocity": 80,
                "duration": 0.11590909090909207,
                "tempo": 120.0
            },
            {
                "start_time": 29.704545454545453,
                "end_time": 29.818181818181817,
                "pitch": 41,
                "velocity": 80,
                "duration": 0.11363636363636331,
                "tempo": 120.0
            },
            {
                "start_time": 29.820454545454545,
                "end_time": 29.93409090909091,
                "pitch": 41,
                "velocity": 80,
                "duration": 0.11363636363636331,
                "tempo": 120.0
            },
            {
                "start_time": 29.93409090909091,
                "end_time": 30.054545454545455,
                "pitch": 41,
                "velocity": 80,
                "duration": 0.12045454545454604,
                "tempo": 120.0
            },
            {
                "start_time": 30.054545454545455,
                "end_time": 30.190909090909088,
                "pitch": 41,
                "velocity": 80,
                "duration": 0.13636363636363313,
                "tempo": 120.0
            },
            {
                "start_time": 30.190909090909088,
                "end_time": 30.30909090909091,
                "pitch": 41,
                "velocity": 80,
                "duration": 0.11818181818182083,
                "tempo": 120.0
            },
            {
                "start_time": 30.311363636363634,
                "end_time": 30.429545454545455,
                "pitch": 41,
                "velocity": 80,
                "duration": 0.11818181818182083,
                "tempo": 120.0
            },
            {
                "start_time": 30.429545454545455,
                "end_time": 30.545454545454543,
                "pitch": 41,
                "velocity": 80,
                "duration": 0.11590909090908852,
                "tempo": 120.0
            },
            {
                "start_time": 30.547727272727272,
                "end_time": 30.66590909090909,
                "pitch": 41,
                "velocity": 80,
                "duration": 0.11818181818181728,
                "tempo": 120.0
            },
            {
                "start_time": 30.66590909090909,
                "end_time": 30.797727272727272,
                "pitch": 41,
                "velocity": 80,
                "duration": 0.13181818181818272,
                "tempo": 120.0
            },
            {
                "start_time": 30.799999999999997,
                "end_time": 30.918181818181818,
                "pitch": 41,
                "velocity": 80,
                "duration": 0.11818181818182083,
                "tempo": 120.0
            },
            {
                "start_time": 30.918181818181818,
                "end_time": 31.034090909090907,
                "pitch": 40,
                "velocity": 80,
                "duration": 0.11590909090908852,
                "tempo": 120.0
            },
            {
                "start_time": 31.036363636363635,
                "end_time": 31.152272727272727,
                "pitch": 40,
                "velocity": 80,
                "duration": 0.11590909090909207,
                "tempo": 120.0
            },
            {
                "start_time": 31.152272727272727,
                "end_time": 31.270454545454545,
                "pitch": 40,
                "velocity": 80,
                "duration": 0.11818181818181728,
                "tempo": 120.0
            },
            {
                "start_time": 31.270454545454545,
                "end_time": 31.404545454545453,
                "pitch": 40,
                "velocity": 80,
                "duration": 0.13409090909090793,
                "tempo": 120.0
            },
            {
                "start_time": 31.40681818181818,
                "end_time": 31.525,
                "pitch": 40,
                "velocity": 80,
                "duration": 0.11818181818181728,
                "tempo": 120.0
            },
            {
                "start_time": 31.525,
                "end_time": 31.645454545454545,
                "pitch": 40,
                "velocity": 80,
                "duration": 0.12045454545454604,
                "tempo": 120.0
            },
            {
                "start_time": 31.645454545454545,
                "end_time": 31.763636363636362,
                "pitch": 40,
                "velocity": 80,
                "duration": 0.11818181818181728,
                "tempo": 120.0
            },
            {
                "start_time": 31.763636363636362,
                "end_time": 31.884090909090908,
                "pitch": 40,
                "velocity": 80,
                "duration": 0.12045454545454604,
                "tempo": 120.0
            },
            {
                "start_time": 31.884090909090908,
                "end_time": 32.01590909090909,
                "pitch": 40,
                "velocity": 80,
                "duration": 0.13181818181818272,
                "tempo": 120.0
            },
            {
                "start_time": 32.01590909090909,
                "end_time": 32.12954545454545,
                "pitch": 40,
                "velocity": 80,
                "duration": 0.11363636363635976,
                "tempo": 120.0
            },
            {
                "start_time": 32.13181818181818,
                "end_time": 32.24545454545454,
                "pitch": 40,
                "velocity": 80,
                "duration": 0.11363636363635976,
                "tempo": 120.0
            },
            {
                "start_time": 32.24545454545454,
                "end_time": 32.361363636363635,
                "pitch": 40,
                "velocity": 80,
                "duration": 0.11590909090909207,
                "tempo": 120.0
            },
            {
                "start_time": 32.361363636363635,
                "end_time": 32.47727272727273,
                "pitch": 40,
                "velocity": 80,
                "duration": 0.11590909090909207,
                "tempo": 120.0
            },
            {
                "start_time": 32.47727272727273,
                "end_time": 32.61363636363636,
                "pitch": 40,
                "velocity": 80,
                "duration": 0.13636363636363313,
                "tempo": 120.0
            },
            {
                "start_time": 32.61363636363636,
                "end_time": 32.72954545454545,
                "pitch": 40,
                "velocity": 80,
                "duration": 0.11590909090909207,
                "tempo": 120.0
            },
            {
                "start_time": 32.72954545454545,
                "end_time": 32.84772727272727,
                "pitch": 40,
                "velocity": 80,
                "duration": 0.11818181818181728,
                "tempo": 120.0
            },
            {
                "start_time": 32.85,
                "end_time": 32.965909090909086,
                "pitch": 40,
                "velocity": 80,
                "duration": 0.11590909090908497,
                "tempo": 120.0
            },
            {
                "start_time": 32.965909090909086,
                "end_time": 33.08181818181818,
                "pitch": 40,
                "velocity": 80,
                "duration": 0.11590909090909207,
                "tempo": 120.0
            },
            {
                "start_time": 33.08181818181818,
                "end_time": 33.215909090909086,
                "pitch": 40,
                "velocity": 80,
                "duration": 0.13409090909090793,
                "tempo": 120.0
            },
            {
                "start_time": 33.215909090909086,
                "end_time": 33.33181818181818,
                "pitch": 40,
                "velocity": 80,
                "duration": 0.11590909090909207,
                "tempo": 120.0
            },
            {
                "start_time": 33.33181818181818,
                "end_time": 33.449999999999996,
                "pitch": 40,
                "velocity": 80,
                "duration": 0.11818181818181728,
                "tempo": 120.0
            },
            {
                "start_time": 33.449999999999996,
                "end_time": 33.570454545454545,
                "pitch": 40,
                "velocity": 80,
                "duration": 0.12045454545454959,
                "tempo": 120.0
            },
            {
                "start_time": 33.57272727272727,
                "end_time": 33.69090909090909,
                "pitch": 40,
                "velocity": 80,
                "duration": 0.11818181818181728,
                "tempo": 120.0
            },
            {
                "start_time": 33.69090909090909,
                "end_time": 33.82727272727273,
                "pitch": 40,
                "velocity": 80,
                "duration": 0.13636363636364024,
                "tempo": 120.0
            },
            {
                "start_time": 33.82727272727273,
                "end_time": 33.945454545454545,
                "pitch": 40,
                "velocity": 80,
                "duration": 0.11818181818181728,
                "tempo": 120.0
            },
            {
                "start_time": 33.945454545454545,
                "end_time": 34.06136363636364,
                "pitch": 40,
                "velocity": 80,
                "duration": 0.11590909090909207,
                "tempo": 120.0
            },
            {
                "start_time": 34.06136363636364,
                "end_time": 34.17727272727272,
                "pitch": 40,
                "velocity": 80,
                "duration": 0.11590909090908497,
                "tempo": 120.0
            },
            {
                "start_time": 34.179545454545455,
                "end_time": 34.29545454545455,
                "pitch": 40,
                "velocity": 80,
                "duration": 0.11590909090909207,
                "tempo": 120.0
            },
            {
                "start_time": 34.29545454545455,
                "end_time": 34.425,
                "pitch": 40,
                "velocity": 80,
                "duration": 0.1295454545454504,
                "tempo": 120.0
            },
            {
                "start_time": 34.425,
                "end_time": 34.54090909090909,
                "pitch": 40,
                "velocity": 80,
                "duration": 0.11590909090909207,
                "tempo": 120.0
            },
            {
                "start_time": 34.54090909090909,
                "end_time": 34.654545454545456,
                "pitch": 40,
                "velocity": 80,
                "duration": 0.11363636363636687,
                "tempo": 120.0
            },
            {
                "start_time": 34.65681818181818,
                "end_time": 34.77272727272727,
                "pitch": 40,
                "velocity": 80,
                "duration": 0.11590909090909207,
                "tempo": 120.0
            },
            {
                "start_time": 34.77272727272727,
                "end_time": 34.888636363636365,
                "pitch": 40,
                "velocity": 80,
                "duration": 0.11590909090909207,
                "tempo": 120.0
            },
            {
                "start_time": 34.888636363636365,
                "end_time": 35.02272727272727,
                "pitch": 40,
                "velocity": 80,
                "duration": 0.13409090909090793,
                "tempo": 120.0
            },
            {
                "start_time": 35.025,
                "end_time": 35.14090909090909,
                "pitch": 40,
                "velocity": 80,
                "duration": 0.11590909090909207,
                "tempo": 120.0
            },
            {
                "start_time": 35.14090909090909,
                "end_time": 35.25909090909091,
                "pitch": 40,
                "velocity": 80,
                "duration": 0.11818181818181728,
                "tempo": 120.0
            },
            {
                "start_time": 35.25909090909091,
                "end_time": 35.377272727272725,
                "pitch": 40,
                "velocity": 80,
                "duration": 0.11818181818181728,
                "tempo": 120.0
            },
            {
                "start_time": 35.377272727272725,
                "end_time": 35.49772727272727,
                "pitch": 40,
                "velocity": 80,
                "duration": 0.12045454545454248,
                "tempo": 120.0
            },
            {
                "start_time": 35.49772727272727,
                "end_time": 35.63636363636363,
                "pitch": 40,
                "velocity": 80,
                "duration": 0.13863636363636545,
                "tempo": 120.0
            },
            {
                "start_time": 35.63636363636363,
                "end_time": 35.75454545454545,
                "pitch": 40,
                "velocity": 80,
                "duration": 0.11818181818181728,
                "tempo": 120.0
            },
            {
                "start_time": 35.75454545454545,
                "end_time": 35.87272727272727,
                "pitch": 40,
                "velocity": 80,
                "duration": 0.11818181818181728,
                "tempo": 120.0
            },
            {
                "start_time": 35.87272727272727,
                "end_time": 35.98863636363636,
                "pitch": 40,
                "velocity": 80,
                "duration": 0.11590909090909207,
                "tempo": 120.0
            },
            {
                "start_time": 35.98863636363636,
                "end_time": 36.10454545454545,
                "pitch": 40,
                "velocity": 80,
                "duration": 0.11590909090909207,
                "tempo": 120.0
            },
            {
                "start_time": 36.10454545454545,
                "end_time": 36.23863636363636,
                "pitch": 40,
                "velocity": 80,
                "duration": 0.13409090909090793,
                "tempo": 120.0
            },
            {
                "start_time": 36.23863636363636,
                "end_time": 36.35681818181818,
                "pitch": 40,
                "velocity": 80,
                "duration": 0.11818181818181728,
                "tempo": 120.0
            },
            {
                "start_time": 36.35681818181818,
                "end_time": 36.47727272727273,
                "pitch": 40,
                "velocity": 80,
                "duration": 0.12045454545454959,
                "tempo": 120.0
            },
            {
                "start_time": 36.47954545454545,
                "end_time": 36.59772727272727,
                "pitch": 40,
                "velocity": 80,
                "duration": 0.11818181818181728,
                "tempo": 120.0
            },
            {
                "start_time": 36.59772727272727,
                "end_time": 36.71818181818182,
                "pitch": 40,
                "velocity": 80,
                "duration": 0.12045454545454959,
                "tempo": 120.0
            },
            {
                "start_time": 36.71818181818182,
                "end_time": 36.845454545454544,
                "pitch": 40,
                "velocity": 80,
                "duration": 0.1272727272727252,
                "tempo": 120.0
            },
            {
                "start_time": 36.845454545454544,
                "end_time": 36.95909090909091,
                "pitch": 40,
                "velocity": 80,
                "duration": 0.11363636363636687,
                "tempo": 120.0
            },
            {
                "start_time": 36.95909090909091,
                "end_time": 37.070454545454545,
                "pitch": 40,
                "velocity": 80,
                "duration": 0.11136363636363455,
                "tempo": 120.0
            },
            {
                "start_time": 37.070454545454545,
                "end_time": 37.18181818181818,
                "pitch": 40,
                "velocity": 80,
                "duration": 0.11136363636363455,
                "tempo": 120.0
            },
            {
                "start_time": 37.184090909090905,
                "end_time": 37.30227272727272,
                "pitch": 40,
                "velocity": 80,
                "duration": 0.11818181818181728,
                "tempo": 120.0
            },
            {
                "start_time": 37.30227272727272,
                "end_time": 37.43863636363636,
                "pitch": 40,
                "velocity": 80,
                "duration": 0.13636363636364024,
                "tempo": 120.0
            },
            {
                "start_time": 37.43863636363636,
                "end_time": 37.559090909090905,
                "pitch": 40,
                "velocity": 80,
                "duration": 0.12045454545454248,
                "tempo": 120.0
            },
            {
                "start_time": 37.559090909090905,
                "end_time": 37.679545454545455,
                "pitch": 40,
                "velocity": 80,
                "duration": 0.12045454545454959,
                "tempo": 120.0
            },
            {
                "start_time": 37.679545454545455,
                "end_time": 37.79545454545455,
                "pitch": 40,
                "velocity": 80,
                "duration": 0.11590909090909207,
                "tempo": 120.0
            },
            {
                "start_time": 37.79545454545455,
                "end_time": 37.913636363636364,
                "pitch": 40,
                "velocity": 80,
                "duration": 0.11818181818181728,
                "tempo": 120.0
            },
            {
                "start_time": 37.913636363636364,
                "end_time": 38.04772727272727,
                "pitch": 40,
                "velocity": 80,
                "duration": 0.13409090909090793,
                "tempo": 120.0
            },
            {
                "start_time": 38.04772727272727,
                "end_time": 38.16590909090909,
                "pitch": 40,
                "velocity": 80,
                "duration": 0.11818181818181728,
                "tempo": 120.0
            },
            {
                "start_time": 38.16590909090909,
                "end_time": 38.28409090909091,
                "pitch": 40,
                "velocity": 80,
                "duration": 0.11818181818181728,
                "tempo": 120.0
            },
            {
                "start_time": 38.28409090909091,
                "end_time": 38.404545454545456,
                "pitch": 40,
                "velocity": 80,
                "duration": 0.12045454545454959,
                "tempo": 120.0
            },
            {
                "start_time": 38.40681818181818,
                "end_time": 38.525,
                "pitch": 40,
                "velocity": 80,
                "duration": 0.11818181818181728,
                "tempo": 120.0
            },
            {
                "start_time": 38.525,
                "end_time": 38.66136363636363,
                "pitch": 40,
                "velocity": 80,
                "duration": 0.13636363636363313,
                "tempo": 120.0
            },
            {
                "start_time": 38.663636363636364,
                "end_time": 38.779545454545456,
                "pitch": 41,
                "velocity": 80,
                "duration": 0.11590909090909207,
                "tempo": 120.0
            },
            {
                "start_time": 38.779545454545456,
                "end_time": 38.89772727272727,
                "pitch": 41,
                "velocity": 80,
                "duration": 0.11818181818181728,
                "tempo": 120.0
            },
            {
                "start_time": 38.89772727272727,
                "end_time": 39.01590909090909,
                "pitch": 41,
                "velocity": 80,
                "duration": 0.11818181818181728,
                "tempo": 120.0
            },
            {
                "start_time": 39.01590909090909,
                "end_time": 39.13181818181818,
                "pitch": 41,
                "velocity": 80,
                "duration": 0.11590909090909207,
                "tempo": 120.0
            },
            {
                "start_time": 39.13409090909091,
                "end_time": 39.26363636363636,
                "pitch": 41,
                "velocity": 80,
                "duration": 0.1295454545454504,
                "tempo": 120.0
            },
            {
                "start_time": 39.26363636363636,
                "end_time": 39.37954545454545,
                "pitch": 41,
                "velocity": 80,
                "duration": 0.11590909090909207,
                "tempo": 120.0
            },
            {
                "start_time": 39.37954545454545,
                "end_time": 39.49318181818182,
                "pitch": 41,
                "velocity": 80,
                "duration": 0.11363636363636687,
                "tempo": 120.0
            },
            {
                "start_time": 39.49545454545454,
                "end_time": 39.60909090909091,
                "pitch": 41,
                "velocity": 80,
                "duration": 0.11363636363636687,
                "tempo": 120.0
            },
            {
                "start_time": 39.60909090909091,
                "end_time": 39.725,
                "pitch": 41,
                "velocity": 80,
                "duration": 0.11590909090909207,
                "tempo": 120.0
            },
            {
                "start_time": 39.72727272727273,
                "end_time": 39.85909090909091,
                "pitch": 41,
                "velocity": 80,
                "duration": 0.13181818181818272,
                "tempo": 120.0
            },
            {
                "start_time": 39.85909090909091,
                "end_time": 39.97727272727273,
                "pitch": 41,
                "velocity": 80,
                "duration": 0.11818181818181728,
                "tempo": 120.0
            },
            {
                "start_time": 39.97727272727273,
                "end_time": 40.09318181818182,
                "pitch": 41,
                "velocity": 80,
                "duration": 0.11590909090909207,
                "tempo": 120.0
            },
            {
                "start_time": 40.09318181818182,
                "end_time": 40.209090909090904,
                "pitch": 41,
                "velocity": 80,
                "duration": 0.11590909090908497,
                "tempo": 120.0
            },
            {
                "start_time": 40.209090909090904,
                "end_time": 40.32954545454545,
                "pitch": 41,
                "velocity": 80,
                "duration": 0.12045454545454959,
                "tempo": 120.0
            },
            {
                "start_time": 40.32954545454545,
                "end_time": 40.46363636363636,
                "pitch": 41,
                "velocity": 80,
                "duration": 0.13409090909090793,
                "tempo": 120.0
            },
            {
                "start_time": 40.46363636363636,
                "end_time": 40.58181818181818,
                "pitch": 41,
                "velocity": 80,
                "duration": 0.11818181818181728,
                "tempo": 120.0
            },
            {
                "start_time": 40.58181818181818,
                "end_time": 40.699999999999996,
                "pitch": 41,
                "velocity": 80,
                "duration": 0.11818181818181728,
                "tempo": 120.0
            },
            {
                "start_time": 40.699999999999996,
                "end_time": 40.820454545454545,
                "pitch": 41,
                "velocity": 80,
                "duration": 0.12045454545454959,
                "tempo": 120.0
            },
            {
                "start_time": 40.820454545454545,
                "end_time": 40.94090909090909,
                "pitch": 41,
                "velocity": 80,
                "duration": 0.12045454545454248,
                "tempo": 120.0
            },
            {
                "start_time": 40.94090909090909,
                "end_time": 41.07727272727273,
                "pitch": 41,
                "velocity": 80,
                "duration": 0.13636363636364024,
                "tempo": 120.0
            },
            {
                "start_time": 41.07727272727273,
                "end_time": 41.19318181818181,
                "pitch": 41,
                "velocity": 80,
                "duration": 0.11590909090908497,
                "tempo": 120.0
            },
            {
                "start_time": 41.19318181818181,
                "end_time": 41.31136363636364,
                "pitch": 41,
                "velocity": 80,
                "duration": 0.11818181818182438,
                "tempo": 120.0
            },
            {
                "start_time": 41.31136363636364,
                "end_time": 41.42727272727272,
                "pitch": 41,
                "velocity": 80,
                "duration": 0.11590909090908497,
                "tempo": 120.0
            },
            {
                "start_time": 41.42727272727272,
                "end_time": 41.54545454545455,
                "pitch": 41,
                "velocity": 80,
                "duration": 0.11818181818182438,
                "tempo": 120.0
            },
            {
                "start_time": 41.54545454545455,
                "end_time": 41.675,
                "pitch": 41,
                "velocity": 80,
                "duration": 0.1295454545454504,
                "tempo": 120.0
            },
            {
                "start_time": 41.675,
                "end_time": 41.79090909090909,
                "pitch": 41,
                "velocity": 80,
                "duration": 0.11590909090909207,
                "tempo": 120.0
            },
            {
                "start_time": 41.79090909090909,
                "end_time": 41.90454545454545,
                "pitch": 41,
                "velocity": 80,
                "duration": 0.11363636363635976,
                "tempo": 120.0
            },
            {
                "start_time": 41.90454545454545,
                "end_time": 42.02045454545454,
                "pitch": 41,
                "velocity": 80,
                "duration": 0.11590909090909207,
                "tempo": 120.0
            },
            {
                "start_time": 42.02045454545454,
                "end_time": 42.13863636363636,
                "pitch": 41,
                "velocity": 80,
                "duration": 0.11818181818181728,
                "tempo": 120.0
            },
            {
                "start_time": 42.14090909090909,
                "end_time": 42.277272727272724,
                "pitch": 41,
                "velocity": 80,
                "duration": 0.13636363636363313,
                "tempo": 120.0
            },
            {
                "start_time": 42.277272727272724,
                "end_time": 42.39545454545454,
                "pitch": 41,
                "velocity": 80,
                "duration": 0.11818181818181728,
                "tempo": 120.0
            },
            {
                "start_time": 42.39545454545454,
                "end_time": 42.51590909090909,
                "pitch": 41,
                "velocity": 80,
                "duration": 0.12045454545454959,
                "tempo": 120.0
            },
            {
                "start_time": 42.51590909090909,
                "end_time": 42.63181818181818,
                "pitch": 37,
                "velocity": 80,
                "duration": 0.11590909090909207,
                "tempo": 120.0
            },
            {
                "start_time": 42.63181818181818,
                "end_time": 42.75,
                "pitch": 37,
                "velocity": 80,
                "duration": 0.11818181818181728,
                "tempo": 120.0
            },
            {
                "start_time": 42.75,
                "end_time": 42.88409090909091,
                "pitch": 37,
                "velocity": 80,
                "duration": 0.13409090909090793,
                "tempo": 120.0
            },
            {
                "start_time": 42.88409090909091,
                "end_time": 43.0,
                "pitch": 37,
                "velocity": 80,
                "duration": 0.11590909090909207,
                "tempo": 120.0
            },
            {
                "start_time": 43.0,
                "end_time": 43.11818181818182,
                "pitch": 37,
                "velocity": 80,
                "duration": 0.11818181818181728,
                "tempo": 120.0
            },
            {
                "start_time": 43.11818181818182,
                "end_time": 43.236363636363635,
                "pitch": 37,
                "velocity": 80,
                "duration": 0.11818181818181728,
                "tempo": 120.0
            },
            {
                "start_time": 43.236363636363635,
                "end_time": 43.35227272727273,
                "pitch": 37,
                "velocity": 80,
                "duration": 0.11590909090909207,
                "tempo": 120.0
            },
            {
                "start_time": 43.35227272727273,
                "end_time": 43.48863636363636,
                "pitch": 37,
                "velocity": 80,
                "duration": 0.13636363636363313,
                "tempo": 120.0
            },
            {
                "start_time": 43.48863636363636,
                "end_time": 43.60681818181818,
                "pitch": 37,
                "velocity": 80,
                "duration": 0.11818181818181728,
                "tempo": 120.0
            },
            {
                "start_time": 43.60681818181818,
                "end_time": 43.72727272727273,
                "pitch": 37,
                "velocity": 80,
                "duration": 0.12045454545454959,
                "tempo": 120.0
            },
            {
                "start_time": 43.72727272727273,
                "end_time": 43.84772727272727,
                "pitch": 37,
                "velocity": 80,
                "duration": 0.12045454545454248,
                "tempo": 120.0
            },
            {
                "start_time": 43.84772727272727,
                "end_time": 43.965909090909086,
                "pitch": 37,
                "velocity": 80,
                "duration": 0.11818181818181728,
                "tempo": 120.0
            },
            {
                "start_time": 43.965909090909086,
                "end_time": 44.09318181818182,
                "pitch": 37,
                "velocity": 80,
                "duration": 0.1272727272727323,
                "tempo": 120.0
            },
            {
                "start_time": 44.09318181818182,
                "end_time": 44.20681818181818,
                "pitch": 37,
                "velocity": 80,
                "duration": 0.11363636363635976,
                "tempo": 120.0
            },
            {
                "start_time": 44.20681818181818,
                "end_time": 44.31818181818181,
                "pitch": 37,
                "velocity": 80,
                "duration": 0.11136363636363455,
                "tempo": 120.0
            },
            {
                "start_time": 44.31818181818181,
                "end_time": 44.43181818181818,
                "pitch": 37,
                "velocity": 80,
                "duration": 0.11363636363636687,
                "tempo": 120.0
            },
            {
                "start_time": 44.43181818181818,
                "end_time": 44.55,
                "pitch": 36,
                "velocity": 80,
                "duration": 0.11818181818181728,
                "tempo": 120.0
            },
            {
                "start_time": 44.55,
                "end_time": 44.684090909090905,
                "pitch": 36,
                "velocity": 80,
                "duration": 0.13409090909090793,
                "tempo": 120.0
            },
            {
                "start_time": 44.684090909090905,
                "end_time": 44.80227272727272,
                "pitch": 36,
                "velocity": 80,
                "duration": 0.11818181818181728,
                "tempo": 120.0
            },
            {
                "start_time": 44.80227272727272,
                "end_time": 44.92045454545455,
                "pitch": 36,
                "velocity": 80,
                "duration": 0.11818181818182438,
                "tempo": 120.0
            },
            {
                "start_time": 44.92045454545455,
                "end_time": 45.038636363636364,
                "pitch": 36,
                "velocity": 80,
                "duration": 0.11818181818181728,
                "tempo": 120.0
            },
            {
                "start_time": 45.038636363636364,
                "end_time": 45.15909090909091,
                "pitch": 36,
                "velocity": 80,
                "duration": 0.12045454545454248,
                "tempo": 120.0
            },
            {
                "start_time": 45.15909090909091,
                "end_time": 45.29545454545455,
                "pitch": 36,
                "velocity": 80,
                "duration": 0.13636363636364024,
                "tempo": 120.0
            },
            {
                "start_time": 45.29545454545455,
                "end_time": 45.41590909090909,
                "pitch": 36,
                "velocity": 80,
                "duration": 0.12045454545454248,
                "tempo": 120.0
            },
            {
                "start_time": 45.41590909090909,
                "end_time": 45.53409090909091,
                "pitch": 36,
                "velocity": 80,
                "duration": 0.11818181818181728,
                "tempo": 120.0
            },
            {
                "start_time": 45.53409090909091,
                "end_time": 45.65454545454545,
                "pitch": 36,
                "velocity": 80,
                "duration": 0.12045454545454248,
                "tempo": 120.0
            },
            {
                "start_time": 45.65454545454545,
                "end_time": 45.775,
                "pitch": 36,
                "velocity": 80,
                "duration": 0.12045454545454959,
                "tempo": 120.0
            },
            {
                "start_time": 45.775,
                "end_time": 45.91136363636363,
                "pitch": 36,
                "velocity": 80,
                "duration": 0.13636363636363313,
                "tempo": 120.0
            },
            {
                "start_time": 45.91136363636363,
                "end_time": 46.027272727272724,
                "pitch": 36,
                "velocity": 80,
                "duration": 0.11590909090909207,
                "tempo": 120.0
            },
            {
                "start_time": 46.02954545454545,
                "end_time": 46.14772727272727,
                "pitch": 36,
                "velocity": 80,
                "duration": 0.11818181818182438,
                "tempo": 120.0
            },
            {
                "start_time": 46.14772727272727,
                "end_time": 46.26363636363636,
                "pitch": 36,
                "velocity": 80,
                "duration": 0.11590909090908497,
                "tempo": 120.0
            },
            {
                "start_time": 46.26363636363636,
                "end_time": 46.38181818181818,
                "pitch": 36,
                "velocity": 80,
                "duration": 0.11818181818182438,
                "tempo": 120.0
            },
            {
                "start_time": 46.38181818181818,
                "end_time": 46.51363636363636,
                "pitch": 35,
                "velocity": 80,
                "duration": 0.13181818181817562,
                "tempo": 120.0
            },
            {
                "start_time": 46.51363636363636,
                "end_time": 46.62954545454545,
                "pitch": 35,
                "velocity": 80,
                "duration": 0.11590909090909207,
                "tempo": 120.0
            },
            {
                "start_time": 46.62954545454545,
                "end_time": 46.74318181818182,
                "pitch": 35,
                "velocity": 80,
                "duration": 0.11363636363636687,
                "tempo": 120.0
            },
            {
                "start_time": 46.74318181818182,
                "end_time": 46.85909090909091,
                "pitch": 35,
                "velocity": 80,
                "duration": 0.11590909090909207,
                "tempo": 120.0
            },
            {
                "start_time": 46.85909090909091,
                "end_time": 46.974999999999994,
                "pitch": 35,
                "velocity": 80,
                "duration": 0.11590909090908497,
                "tempo": 120.0
            },
            {
                "start_time": 46.974999999999994,
                "end_time": 47.10909090909091,
                "pitch": 35,
                "velocity": 80,
                "duration": 0.13409090909091503,
                "tempo": 120.0
            },
            {
                "start_time": 47.10909090909091,
                "end_time": 47.224999999999994,
                "pitch": 35,
                "velocity": 80,
                "duration": 0.11590909090908497,
                "tempo": 120.0
            },
            {
                "start_time": 47.224999999999994,
                "end_time": 47.34318181818182,
                "pitch": 35,
                "velocity": 80,
                "duration": 0.11818181818182438,
                "tempo": 120.0
            },
            {
                "start_time": 47.34318181818182,
                "end_time": 47.461363636363636,
                "pitch": 35,
                "velocity": 80,
                "duration": 0.11818181818181728,
                "tempo": 120.0
            },
            {
                "start_time": 47.461363636363636,
                "end_time": 47.58181818181818,
                "pitch": 35,
                "velocity": 80,
                "duration": 0.12045454545454248,
                "tempo": 120.0
            },
            {
                "start_time": 47.58181818181818,
                "end_time": 47.71818181818182,
                "pitch": 35,
                "velocity": 80,
                "duration": 0.13636363636364024,
                "tempo": 120.0
            },
            {
                "start_time": 47.71818181818182,
                "end_time": 47.83863636363636,
                "pitch": 35,
                "velocity": 80,
                "duration": 0.12045454545454248,
                "tempo": 120.0
            },
            {
                "start_time": 47.83863636363636,
                "end_time": 47.95454545454545,
                "pitch": 35,
                "velocity": 80,
                "duration": 0.11590909090909207,
                "tempo": 120.0
            },
            {
                "start_time": 47.95454545454545,
                "end_time": 48.074999999999996,
                "pitch": 35,
                "velocity": 80,
                "duration": 0.12045454545454248,
                "tempo": 120.0
            },
            {
                "start_time": 48.074999999999996,
                "end_time": 48.19090909090909,
                "pitch": 35,
                "velocity": 80,
                "duration": 0.11590909090909207,
                "tempo": 120.0
            },
            {
                "start_time": 48.19090909090909,
                "end_time": 48.32727272727273,
                "pitch": 35,
                "velocity": 80,
                "duration": 0.13636363636364024,
                "tempo": 120.0
            },
            {
                "start_time": 48.32727272727273,
                "end_time": 48.44318181818181,
                "pitch": 35,
                "velocity": 80,
                "duration": 0.11590909090908497,
                "tempo": 120.0
            },
            {
                "start_time": 48.44318181818181,
                "end_time": 48.559090909090905,
                "pitch": 35,
                "velocity": 80,
                "duration": 0.11590909090909207,
                "tempo": 120.0
            },
            {
                "start_time": 48.559090909090905,
                "end_time": 48.67727272727272,
                "pitch": 35,
                "velocity": 80,
                "duration": 0.11818181818181728,
                "tempo": 120.0
            },
            {
                "start_time": 48.67727272727272,
                "end_time": 48.793181818181814,
                "pitch": 35,
                "velocity": 80,
                "duration": 0.11590909090909207,
                "tempo": 120.0
            },
            {
                "start_time": 48.793181818181814,
                "end_time": 48.92272727272727,
                "pitch": 35,
                "velocity": 80,
                "duration": 0.12954545454545752,
                "tempo": 120.0
            },
            {
                "start_time": 48.92272727272727,
                "end_time": 49.04090909090909,
                "pitch": 35,
                "velocity": 80,
                "duration": 0.11818181818181728,
                "tempo": 120.0
            },
            {
                "start_time": 49.04090909090909,
                "end_time": 49.15454545454545,
                "pitch": 35,
                "velocity": 80,
                "duration": 0.11363636363635976,
                "tempo": 120.0
            },
            {
                "start_time": 49.15454545454545,
                "end_time": 49.27045454545454,
                "pitch": 35,
                "velocity": 80,
                "duration": 0.11590909090909207,
                "tempo": 120.0
            },
            {
                "start_time": 49.27045454545454,
                "end_time": 49.38863636363636,
                "pitch": 35,
                "velocity": 80,
                "duration": 0.11818181818181728,
                "tempo": 120.0
            },
            {
                "start_time": 49.38863636363636,
                "end_time": 49.525,
                "pitch": 35,
                "velocity": 80,
                "duration": 0.13636363636364024,
                "tempo": 120.0
            },
            {
                "start_time": 49.525,
                "end_time": 49.64545454545454,
                "pitch": 35,
                "velocity": 80,
                "duration": 0.12045454545454248,
                "tempo": 120.0
            },
            {
                "start_time": 49.64545454545454,
                "end_time": 49.76590909090909,
                "pitch": 35,
                "velocity": 80,
                "duration": 0.12045454545454959,
                "tempo": 120.0
            },
            {
                "start_time": 49.76590909090909,
                "end_time": 49.88181818181818,
                "pitch": 35,
                "velocity": 80,
                "duration": 0.11590909090909207,
                "tempo": 120.0
            },
            {
                "start_time": 49.88181818181818,
                "end_time": 50.0,
                "pitch": 35,
                "velocity": 80,
                "duration": 0.11818181818181728,
                "tempo": 120.0
            },
            {
                "start_time": 50.0,
                "end_time": 50.13181818181818,
                "pitch": 35,
                "velocity": 80,
                "duration": 0.13181818181818272,
                "tempo": 120.0
            },
            {
                "start_time": 50.13181818181818,
                "end_time": 50.25,
                "pitch": 35,
                "velocity": 80,
                "duration": 0.11818181818181728,
                "tempo": 120.0
            },
            {
                "start_time": 50.25,
                "end_time": 50.365909090909085,
                "pitch": 36,
                "velocity": 80,
                "duration": 0.11590909090908497,
                "tempo": 120.0
            },
            {
                "start_time": 50.365909090909085,
                "end_time": 50.48409090909091,
                "pitch": 36,
                "velocity": 80,
                "duration": 0.11818181818182438,
                "tempo": 120.0
            },
            {
                "start_time": 50.48409090909091,
                "end_time": 50.60227272727273,
                "pitch": 36,
                "velocity": 80,
                "duration": 0.11818181818181728,
                "tempo": 120.0
            },
            {
                "start_time": 50.60227272727273,
                "end_time": 50.736363636363635,
                "pitch": 36,
                "velocity": 80,
                "duration": 0.13409090909090793,
                "tempo": 120.0
            },
            {
                "start_time": 50.736363636363635,
                "end_time": 50.85454545454545,
                "pitch": 36,
                "velocity": 80,
                "duration": 0.11818181818181728,
                "tempo": 120.0
            },
            {
                "start_time": 50.85454545454545,
                "end_time": 50.974999999999994,
                "pitch": 36,
                "velocity": 80,
                "duration": 0.12045454545454248,
                "tempo": 120.0
            },
            {
                "start_time": 50.97727272727273,
                "end_time": 51.095454545454544,
                "pitch": 36,
                "velocity": 80,
                "duration": 0.11818181818181728,
                "tempo": 120.0
            },
            {
                "start_time": 51.095454545454544,
                "end_time": 51.215909090909086,
                "pitch": 36,
                "velocity": 80,
                "duration": 0.12045454545454248,
                "tempo": 120.0
            },
            {
                "start_time": 51.215909090909086,
                "end_time": 51.34318181818182,
                "pitch": 36,
                "velocity": 80,
                "duration": 0.1272727272727323,
                "tempo": 120.0
            },
            {
                "start_time": 51.34318181818182,
                "end_time": 51.45681818181818,
                "pitch": 36,
                "velocity": 80,
                "duration": 0.11363636363635976,
                "tempo": 120.0
            },
            {
                "start_time": 51.45681818181818,
                "end_time": 51.56818181818181,
                "pitch": 36,
                "velocity": 80,
                "duration": 0.11136363636363455,
                "tempo": 120.0
            },
            {
                "start_time": 51.56818181818181,
                "end_time": 51.68181818181818,
                "pitch": 36,
                "velocity": 80,
                "duration": 0.11363636363636687,
                "tempo": 120.0
            },
            {
                "start_time": 51.68181818181818,
                "end_time": 51.8,
                "pitch": 36,
                "velocity": 80,
                "duration": 0.11818181818181728,
                "tempo": 120.0
            },
            {
                "start_time": 51.8,
                "end_time": 51.93636363636363,
                "pitch": 36,
                "velocity": 80,
                "duration": 0.13636363636363313,
                "tempo": 120.0
            },
            {
                "start_time": 51.93863636363636,
                "end_time": 52.05681818181818,
                "pitch": 36,
                "velocity": 80,
                "duration": 0.11818181818181728,
                "tempo": 120.0
            },
            {
                "start_time": 52.05681818181818,
                "end_time": 52.17727272727272,
                "pitch": 36,
                "velocity": 80,
                "duration": 0.12045454545454248,
                "tempo": 120.0
            },
            {
                "start_time": 52.17727272727272,
                "end_time": 52.293181818181814,
                "pitch": 36,
                "velocity": 80,
                "duration": 0.11590909090909207,
                "tempo": 120.0
            },
            {
                "start_time": 52.293181818181814,
                "end_time": 52.40909090909091,
                "pitch": 36,
                "velocity": 80,
                "duration": 0.11590909090909207,
                "tempo": 120.0
            },
            {
                "start_time": 52.40909090909091,
                "end_time": 52.543181818181814,
                "pitch": 36,
                "velocity": 80,
                "duration": 0.13409090909090793,
                "tempo": 120.0
            },
            {
                "start_time": 52.543181818181814,
                "end_time": 52.66136363636363,
                "pitch": 36,
                "velocity": 80,
                "duration": 0.11818181818181728,
                "tempo": 120.0
            },
            {
                "start_time": 52.66136363636363,
                "end_time": 52.777272727272724,
                "pitch": 36,
                "velocity": 80,
                "duration": 0.11590909090909207,
                "tempo": 120.0
            },
            {
                "start_time": 52.777272727272724,
                "end_time": 52.89545454545454,
                "pitch": 36,
                "velocity": 80,
                "duration": 0.11818181818181728,
                "tempo": 120.0
            },
            {
                "start_time": 52.89545454545454,
                "end_time": 53.01363636363636,
                "pitch": 36,
                "velocity": 80,
                "duration": 0.11818181818181728,
                "tempo": 120.0
            },
            {
                "start_time": 53.01363636363636,
                "end_time": 53.14772727272727,
                "pitch": 36,
                "velocity": 80,
                "duration": 0.13409090909091503,
                "tempo": 120.0
            },
            {
                "start_time": 53.14772727272727,
                "end_time": 53.268181818181816,
                "pitch": 36,
                "velocity": 80,
                "duration": 0.12045454545454248,
                "tempo": 120.0
            },
            {
                "start_time": 53.268181818181816,
                "end_time": 53.38636363636363,
                "pitch": 36,
                "velocity": 80,
                "duration": 0.11818181818181728,
                "tempo": 120.0
            },
            {
                "start_time": 53.38863636363636,
                "end_time": 53.50681818181818,
                "pitch": 36,
                "velocity": 80,
                "duration": 0.11818181818182438,
                "tempo": 120.0
            },
            {
                "start_time": 53.50681818181818,
                "end_time": 53.627272727272725,
                "pitch": 36,
                "velocity": 80,
                "duration": 0.12045454545454248,
                "tempo": 120.0
            },
            {
                "start_time": 53.627272727272725,
                "end_time": 53.75909090909091,
                "pitch": 36,
                "velocity": 80,
                "duration": 0.13181818181818272,
                "tempo": 120.0
            },
            {
                "start_time": 53.75909090909091,
                "end_time": 53.87272727272727,
                "pitch": 36,
                "velocity": 80,
                "duration": 0.11363636363635976,
                "tempo": 120.0
            },
            {
                "start_time": 53.87272727272727,
                "end_time": 53.98863636363636,
                "pitch": 36,
                "velocity": 80,
                "duration": 0.11590909090909207,
                "tempo": 120.0
            },
            {
                "start_time": 53.98863636363636,
                "end_time": 85.05454545454545,
                "pitch": 36,
                "velocity": 80,
                "duration": 31.065909090909088,
                "tempo": 120.0
            }
        ],
        "Electric Piano 1": [
            {
                "start_time": 61.83863636363636,
                "end_time": 61.95454545454545,
                "pitch": 75,
                "velocity": 40,
                "duration": 0.11590909090909207,
                "tempo": 120.0
            },
            {
                "start_time": 61.95454545454545,
                "end_time": 62.07272727272727,
                "pitch": 71,
                "velocity": 40,
                "duration": 0.11818181818181728,
                "tempo": 120.0
            },
            {
                "start_time": 62.07272727272727,
                "end_time": 62.20681818181818,
                "pitch": 75,
                "velocity": 40,
                "duration": 0.13409090909090793,
                "tempo": 120.0
            },
            {
                "start_time": 62.20681818181818,
                "end_time": 62.56363636363636,
                "pitch": 76,
                "velocity": 40,
                "duration": 0.35681818181818414,
                "tempo": 120.0
            },
            {
                "start_time": 62.56363636363636,
                "end_time": 62.820454545454545,
                "pitch": 71,
                "velocity": 40,
                "duration": 0.2568181818181827,
                "tempo": 120.0
            },
            {
                "start_time": 62.820454545454545,
                "end_time": 63.05681818181818,
                "pitch": 75,
                "velocity": 40,
                "duration": 0.23636363636363455,
                "tempo": 120.0
            },
            {
                "start_time": 63.05681818181818,
                "end_time": 63.29090909090909,
                "pitch": 71,
                "velocity": 40,
                "duration": 0.23409090909090935,
                "tempo": 120.0
            },
            {
                "start_time": 63.29090909090909,
                "end_time": 63.53636363636363,
                "pitch": 76,
                "velocity": 40,
                "duration": 0.24545454545454248,
                "tempo": 120.0
            },
            {
                "start_time": 63.538636363636364,
                "end_time": 63.652272727272724,
                "pitch": 71,
                "velocity": 40,
                "duration": 0.11363636363635976,
                "tempo": 120.0
            },
            {
                "start_time": 63.652272727272724,
                "end_time": 63.768181818181816,
                "pitch": 75,
                "velocity": 40,
                "duration": 0.11590909090909207,
                "tempo": 120.0
            },
            {
                "start_time": 63.77045454545454,
                "end_time": 63.88409090909091,
                "pitch": 75,
                "velocity": 40,
                "duration": 0.11363636363636687,
                "tempo": 120.0
            },
            {
                "start_time": 63.88409090909091,
                "end_time": 64.01818181818182,
                "pitch": 71,
                "velocity": 40,
                "duration": 0.13409090909090793,
                "tempo": 120.0
            },
            {
                "start_time": 64.01818181818182,
                "end_time": 64.1340909090909,
                "pitch": 75,
                "velocity": 40,
                "duration": 0.11590909090908497,
                "tempo": 120.0
            },
            {
                "start_time": 64.1340909090909,
                "end_time": 64.49090909090908,
                "pitch": 76,
                "velocity": 40,
                "duration": 0.35681818181818414,
                "tempo": 120.0
            },
            {
                "start_time": 64.49090909090908,
                "end_time": 64.74772727272727,
                "pitch": 71,
                "velocity": 40,
                "duration": 0.25681818181818983,
                "tempo": 120.0
            },
            {
                "start_time": 64.74772727272727,
                "end_time": 64.98181818181818,
                "pitch": 75,
                "velocity": 40,
                "duration": 0.23409090909090935,
                "tempo": 120.0
            },
            {
                "start_time": 64.98181818181818,
                "end_time": 65.23181818181818,
                "pitch": 71,
                "velocity": 40,
                "duration": 0.25,
                "tempo": 120.0
            },
            {
                "start_time": 65.23181818181818,
                "end_time": 65.4659090909091,
                "pitch": 76,
                "velocity": 40,
                "duration": 0.23409090909090935,
                "tempo": 120.0
            },
            {
                "start_time": 65.4659090909091,
                "end_time": 65.5840909090909,
                "pitch": 71,
                "velocity": 40,
                "duration": 0.11818181818181017,
                "tempo": 120.0
            },
            {
                "start_time": 65.5840909090909,
                "end_time": 65.70454545454545,
                "pitch": 75,
                "velocity": 40,
                "duration": 0.12045454545454959,
                "tempo": 120.0
            },
            {
                "start_time": 65.70454545454545,
                "end_time": 65.8340909090909,
                "pitch": 75,
                "velocity": 40,
                "duration": 0.1295454545454504,
                "tempo": 120.0
            },
            {
                "start_time": 65.8340909090909,
                "end_time": 65.94772727272726,
                "pitch": 71,
                "velocity": 40,
                "duration": 0.11363636363635976,
                "tempo": 120.0
            },
            {
                "start_time": 65.94772727272726,
                "end_time": 66.06363636363636,
                "pitch": 75,
                "velocity": 40,
                "duration": 0.11590909090909918,
                "tempo": 120.0
            },
            {
                "start_time": 66.06363636363636,
                "end_time": 66.43409090909091,
                "pitch": 76,
                "velocity": 40,
                "duration": 0.3704545454545496,
                "tempo": 120.0
            },
            {
                "start_time": 66.43409090909091,
                "end_time": 66.675,
                "pitch": 71,
                "velocity": 40,
                "duration": 0.24090909090908497,
                "tempo": 120.0
            },
            {
                "start_time": 66.675,
                "end_time": 66.9090909090909,
                "pitch": 75,
                "velocity": 40,
                "duration": 0.23409090909090935,
                "tempo": 120.0
            },
            {
                "start_time": 66.9090909090909,
                "end_time": 67.16136363636363,
                "pitch": 71,
                "velocity": 40,
                "duration": 0.2522727272727252,
                "tempo": 120.0
            },
            {
                "start_time": 67.16136363636363,
                "end_time": 67.39772727272727,
                "pitch": 76,
                "velocity": 40,
                "duration": 0.23636363636363455,
                "tempo": 120.0
            },
            {
                "start_time": 67.39772727272727,
                "end_time": 67.51590909090909,
                "pitch": 71,
                "velocity": 40,
                "duration": 0.11818181818182438,
                "tempo": 120.0
            },
            {
                "start_time": 67.51590909090909,
                "end_time": 67.65227272727273,
                "pitch": 75,
                "velocity": 40,
                "duration": 0.13636363636364024,
                "tempo": 120.0
            },
            {
                "start_time": 67.65227272727273,
                "end_time": 67.76818181818182,
                "pitch": 75,
                "velocity": 40,
                "duration": 0.11590909090908497,
                "tempo": 120.0
            },
            {
                "start_time": 67.76818181818182,
                "end_time": 67.8840909090909,
                "pitch": 71,
                "velocity": 40,
                "duration": 0.11590909090908497,
                "tempo": 120.0
            },
            {
                "start_time": 67.88636363636363,
                "end_time": 68.00227272727273,
                "pitch": 75,
                "velocity": 40,
                "duration": 0.11590909090909918,
                "tempo": 120.0
            },
            {
                "start_time": 68.00227272727273,
                "end_time": 68.37045454545454,
                "pitch": 76,
                "velocity": 40,
                "duration": 0.36818181818181017,
                "tempo": 120.0
            },
            {
                "start_time": 68.37045454545454,
                "end_time": 68.60454545454544,
                "pitch": 71,
                "velocity": 40,
                "duration": 0.23409090909090935,
                "tempo": 120.0
            },
            {
                "start_time": 68.60454545454544,
                "end_time": 68.85681818181818,
                "pitch": 75,
                "velocity": 40,
                "duration": 0.2522727272727394,
                "tempo": 120.0
            },
            {
                "start_time": 68.85681818181818,
                "end_time": 69.09318181818182,
                "pitch": 71,
                "velocity": 40,
                "duration": 0.23636363636363455,
                "tempo": 120.0
            },
            {
                "start_time": 69.09318181818182,
                "end_time": 69.33181818181818,
                "pitch": 76,
                "velocity": 40,
                "duration": 0.23863636363635976,
                "tempo": 120.0
            },
            {
                "start_time": 69.33181818181818,
                "end_time": 69.46818181818182,
                "pitch": 71,
                "velocity": 40,
                "duration": 0.13636363636364024,
                "tempo": 120.0
            },
            {
                "start_time": 69.46818181818182,
                "end_time": 69.5909090909091,
                "pitch": 75,
                "velocity": 40,
                "duration": 0.1227272727272748,
                "tempo": 120.0
            },
            {
                "start_time": 69.5909090909091,
                "end_time": 69.70227272727273,
                "pitch": 77,
                "velocity": 40,
                "duration": 0.11136363636363455,
                "tempo": 120.0
            },
            {
                "start_time": 69.70227272727273,
                "end_time": 69.81818181818181,
                "pitch": 73,
                "velocity": 40,
                "duration": 0.11590909090908497,
                "tempo": 120.0
            },
            {
                "start_time": 69.81818181818181,
                "end_time": 69.93181818181817,
                "pitch": 77,
                "velocity": 40,
                "duration": 0.11363636363635976,
                "tempo": 120.0
            },
            {
                "start_time": 69.93181818181817,
                "end_time": 70.30454545454545,
                "pitch": 78,
                "velocity": 40,
                "duration": 0.3727272727272748,
                "tempo": 120.0
            },
            {
                "start_time": 70.30454545454545,
                "end_time": 70.54318181818182,
                "pitch": 73,
                "velocity": 40,
                "duration": 0.23863636363637397,
                "tempo": 120.0
            },
            {
                "start_time": 70.54318181818182,
                "end_time": 70.78863636363636,
                "pitch": 77,
                "velocity": 40,
                "duration": 0.24545454545453538,
                "tempo": 120.0
            },
            {
                "start_time": 70.78863636363636,
                "end_time": 71.01818181818182,
                "pitch": 73,
                "velocity": 40,
                "duration": 0.22954545454545894,
                "tempo": 120.0
            },
            {
                "start_time": 71.01818181818182,
                "end_time": 71.27045454545454,
                "pitch": 78,
                "velocity": 40,
                "duration": 0.2522727272727252,
                "tempo": 120.0
            },
            {
                "start_time": 71.27272727272727,
                "end_time": 71.38863636363637,
                "pitch": 73,
                "velocity": 40,
                "duration": 0.11590909090909918,
                "tempo": 120.0
            },
            {
                "start_time": 71.39090909090909,
                "end_time": 71.5090909090909,
                "pitch": 77,
                "velocity": 40,
                "duration": 0.11818181818181017,
                "tempo": 120.0
            },
            {
                "start_time": 71.5090909090909,
                "end_time": 71.62272727272727,
                "pitch": 77,
                "velocity": 40,
                "duration": 0.11363636363637397,
                "tempo": 120.0
            },
            {
                "start_time": 71.62272727272727,
                "end_time": 71.74090909090908,
                "pitch": 73,
                "velocity": 40,
                "duration": 0.11818181818181017,
                "tempo": 120.0
            },
            {
                "start_time": 71.74090909090908,
                "end_time": 71.87272727272727,
                "pitch": 77,
                "velocity": 40,
                "duration": 0.13181818181818983,
                "tempo": 120.0
            },
            {
                "start_time": 71.87272727272727,
                "end_time": 72.22954545454544,
                "pitch": 78,
                "velocity": 40,
                "duration": 0.35681818181816993,
                "tempo": 120.0
            },
            {
                "start_time": 72.23181818181818,
                "end_time": 72.48636363636363,
                "pitch": 73,
                "velocity": 40,
                "duration": 0.2545454545454504,
                "tempo": 120.0
            },
            {
                "start_time": 72.48636363636363,
                "end_time": 72.72045454545454,
                "pitch": 77,
                "velocity": 40,
                "duration": 0.23409090909090935,
                "tempo": 120.0
            },
            {
                "start_time": 72.72045454545454,
                "end_time": 72.95454545454545,
                "pitch": 73,
                "velocity": 40,
                "duration": 0.23409090909090935,
                "tempo": 120.0
            },
            {
                "start_time": 72.95454545454545,
                "end_time": 73.2,
                "pitch": 78,
                "velocity": 40,
                "duration": 0.2454545454545496,
                "tempo": 120.0
            },
            {
                "start_time": 73.2,
                "end_time": 73.31590909090909,
                "pitch": 73,
                "velocity": 40,
                "duration": 0.11590909090908497,
                "tempo": 120.0
            },
            {
                "start_time": 73.31590909090909,
                "end_time": 73.43181818181817,
                "pitch": 77,
                "velocity": 40,
                "duration": 0.11590909090908497,
                "tempo": 120.0
            },
            {
                "start_time": 73.43181818181817,
                "end_time": 73.54772727272727,
                "pitch": 77,
                "velocity": 40,
                "duration": 0.11590909090909918,
                "tempo": 120.0
            },
            {
                "start_time": 73.54772727272727,
                "end_time": 73.68181818181817,
                "pitch": 73,
                "velocity": 40,
                "duration": 0.13409090909090082,
                "tempo": 120.0
            },
            {
                "start_time": 73.68181818181817,
                "end_time": 73.8,
                "pitch": 77,
                "velocity": 40,
                "duration": 0.11818181818182438,
                "tempo": 120.0
            },
            {
                "start_time": 73.8,
                "end_time": 74.15681818181818,
                "pitch": 78,
                "velocity": 40,
                "duration": 0.35681818181818414,
                "tempo": 120.0
            },
            {
                "start_time": 74.15681818181818,
                "end_time": 74.41363636363636,
                "pitch": 73,
                "velocity": 40,
                "duration": 0.2568181818181756,
                "tempo": 120.0
            },
            {
                "start_time": 74.41363636363636,
                "end_time": 74.64772727272727,
                "pitch": 77,
                "velocity": 40,
                "duration": 0.23409090909090935,
                "tempo": 120.0
            },
            {
                "start_time": 74.64772727272727,
                "end_time": 74.89772727272727,
                "pitch": 73,
                "velocity": 40,
                "duration": 0.25,
                "tempo": 120.0
            },
            {
                "start_time": 74.89772727272727,
                "end_time": 75.1340909090909,
                "pitch": 78,
                "velocity": 40,
                "duration": 0.23636363636363455,
                "tempo": 120.0
            },
            {
                "start_time": 75.1340909090909,
                "end_time": 75.25227272727273,
                "pitch": 73,
                "velocity": 40,
                "duration": 0.11818181818182438,
                "tempo": 120.0
            },
            {
                "start_time": 75.25227272727273,
                "end_time": 75.37045454545454,
                "pitch": 77,
                "velocity": 40,
                "duration": 0.11818181818181017,
                "tempo": 120.0
            },
            {
                "start_time": 75.37045454545454,
                "end_time": 75.5,
                "pitch": 77,
                "velocity": 40,
                "duration": 0.12954545454546462,
                "tempo": 120.0
            },
            {
                "start_time": 75.5,
                "end_time": 75.61590909090908,
                "pitch": 73,
                "velocity": 40,
                "duration": 0.11590909090908497,
                "tempo": 120.0
            },
            {
                "start_time": 75.61590909090908,
                "end_time": 75.72954545454544,
                "pitch": 77,
                "velocity": 40,
                "duration": 0.11363636363635976,
                "tempo": 120.0
            },
            {
                "start_time": 75.72954545454544,
                "end_time": 76.10227272727272,
                "pitch": 78,
                "velocity": 40,
                "duration": 0.3727272727272748,
                "tempo": 120.0
            },
            {
                "start_time": 76.10227272727272,
                "end_time": 76.3409090909091,
                "pitch": 73,
                "velocity": 40,
                "duration": 0.23863636363637397,
                "tempo": 120.0
            },
            {
                "start_time": 76.3409090909091,
                "end_time": 76.57727272727273,
                "pitch": 77,
                "velocity": 40,
                "duration": 0.23636363636363455,
                "tempo": 120.0
            },
            {
                "start_time": 76.57727272727273,
                "end_time": 76.82727272727273,
                "pitch": 73,
                "velocity": 40,
                "duration": 0.25,
                "tempo": 120.0
            },
            {
                "start_time": 76.82954545454545,
                "end_time": 77.06363636363636,
                "pitch": 78,
                "velocity": 40,
                "duration": 0.23409090909090935,
                "tempo": 120.0
            },
            {
                "start_time": 77.06363636363636,
                "end_time": 77.18181818181817,
                "pitch": 73,
                "velocity": 40,
                "duration": 0.11818181818181017,
                "tempo": 120.0
            },
            {
                "start_time": 77.18181818181817,
                "end_time": 77.31818181818181,
                "pitch": 77,
                "velocity": 40,
                "duration": 0.13636363636364024,
                "tempo": 120.0
            },
            {
                "start_time": 77.31818181818181,
                "end_time": 77.43409090909091,
                "pitch": 77,
                "velocity": 40,
                "duration": 0.11590909090909918,
                "tempo": 120.0
            },
            {
                "start_time": 77.43409090909091,
                "end_time": 77.55227272727272,
                "pitch": 73,
                "velocity": 40,
                "duration": 0.11818181818181017,
                "tempo": 120.0
            },
            {
                "start_time": 77.55227272727272,
                "end_time": 77.66818181818181,
                "pitch": 77,
                "velocity": 40,
                "duration": 0.11590909090908497,
                "tempo": 120.0
            },
            {
                "start_time": 77.66818181818181,
                "end_time": 78.03863636363636,
                "pitch": 78,
                "velocity": 40,
                "duration": 0.3704545454545496,
                "tempo": 120.0
            },
            {
                "start_time": 78.03863636363636,
                "end_time": 78.27045454545454,
                "pitch": 73,
                "velocity": 40,
                "duration": 0.23181818181818414,
                "tempo": 120.0
            },
            {
                "start_time": 78.27272727272727,
                "end_time": 78.52272727272727,
                "pitch": 77,
                "velocity": 40,
                "duration": 0.25,
                "tempo": 120.0
            },
            {
                "start_time": 78.52499999999999,
                "end_time": 78.7590909090909,
                "pitch": 73,
                "velocity": 40,
                "duration": 0.23409090909090935,
                "tempo": 120.0
            },
            {
                "start_time": 78.7590909090909,
                "end_time": 78.99772727272727,
                "pitch": 78,
                "velocity": 40,
                "duration": 0.23863636363637397,
                "tempo": 120.0
            },
            {
                "start_time": 78.99772727272727,
                "end_time": 79.1340909090909,
                "pitch": 73,
                "velocity": 40,
                "duration": 0.13636363636362603,
                "tempo": 120.0
            },
            {
                "start_time": 79.1340909090909,
                "end_time": 79.25681818181818,
                "pitch": 77,
                "velocity": 40,
                "duration": 0.1227272727272748,
                "tempo": 120.0
            },
            {
                "start_time": 79.25681818181818,
                "end_time": 79.37272727272727,
                "pitch": 77,
                "velocity": 40,
                "duration": 0.11590909090909918,
                "tempo": 120.0
            },
            {
                "start_time": 79.37272727272727,
                "end_time": 79.49090909090908,
                "pitch": 73,
                "velocity": 40,
                "duration": 0.11818181818181017,
                "tempo": 120.0
            },
            {
                "start_time": 79.49090909090908,
                "end_time": 79.60681818181818,
                "pitch": 77,
                "velocity": 40,
                "duration": 0.11590909090909918,
                "tempo": 120.0
            },
            {
                "start_time": 79.60681818181818,
                "end_time": 79.97727272727272,
                "pitch": 78,
                "velocity": 40,
                "duration": 0.3704545454545354,
                "tempo": 120.0
            },
            {
                "start_time": 79.97954545454544,
                "end_time": 80.21363636363635,
                "pitch": 73,
                "velocity": 40,
                "duration": 0.23409090909090935,
                "tempo": 120.0
            },
            {
                "start_time": 80.21363636363635,
                "end_time": 80.4590909090909,
                "pitch": 77,
                "velocity": 40,
                "duration": 0.2454545454545496,
                "tempo": 120.0
            },
            {
                "start_time": 80.46136363636363,
                "end_time": 80.69090909090909,
                "pitch": 73,
                "velocity": 40,
                "duration": 0.22954545454545894,
                "tempo": 120.0
            },
            {
                "start_time": 80.69090909090909,
                "end_time": 80.94318181818181,
                "pitch": 78,
                "velocity": 40,
                "duration": 0.2522727272727252,
                "tempo": 120.0
            },
            {
                "start_time": 80.94318181818181,
                "end_time": 81.05909090909091,
                "pitch": 73,
                "velocity": 40,
                "duration": 0.11590909090909918,
                "tempo": 120.0
            },
            {
                "start_time": 81.05909090909091,
                "end_time": 81.17954545454545,
                "pitch": 77,
                "velocity": 40,
                "duration": 0.12045454545453538,
                "tempo": 120.0
            },
            {
                "start_time": 81.17954545454545,
                "end_time": 81.29772727272727,
                "pitch": 77,
                "velocity": 40,
                "duration": 0.11818181818182438,
                "tempo": 120.0
            },
            {
                "start_time": 81.29772727272727,
                "end_time": 81.41818181818181,
                "pitch": 73,
                "velocity": 40,
                "duration": 0.12045454545453538,
                "tempo": 120.0
            },
            {
                "start_time": 81.41818181818181,
                "end_time": 81.55227272727272,
                "pitch": 77,
                "velocity": 40,
                "duration": 0.13409090909091503,
                "tempo": 120.0
            },
            {
                "start_time": 81.55227272727272,
                "end_time": 81.9090909090909,
                "pitch": 78,
                "velocity": 40,
                "duration": 0.35681818181818414,
                "tempo": 120.0
            },
            {
                "start_time": 81.9090909090909,
                "end_time": 82.16136363636363,
                "pitch": 73,
                "velocity": 40,
                "duration": 0.2522727272727252,
                "tempo": 120.0
            },
            {
                "start_time": 82.16136363636363,
                "end_time": 82.39999999999999,
                "pitch": 77,
                "velocity": 40,
                "duration": 0.23863636363635976,
                "tempo": 120.0
            },
            {
                "start_time": 82.39999999999999,
                "end_time": 82.63863636363637,
                "pitch": 73,
                "velocity": 40,
                "duration": 0.23863636363637397,
                "tempo": 120.0
            },
            {
                "start_time": 82.64090909090909,
                "end_time": 82.87954545454545,
                "pitch": 78,
                "velocity": 40,
                "duration": 0.23863636363635976,
                "tempo": 120.0
            },
            {
                "start_time": 82.87954545454545,
                "end_time": 82.99318181818181,
                "pitch": 73,
                "velocity": 40,
                "duration": 0.11363636363635976,
                "tempo": 120.0
            },
            {
                "start_time": 82.99318181818181,
                "end_time": 83.10681818181818,
                "pitch": 77,
                "velocity": 40,
                "duration": 0.11363636363637397,
                "tempo": 120.0
            },
            {
                "start_time": 83.10681818181818,
                "end_time": 83.225,
                "pitch": 77,
                "velocity": 40,
                "duration": 0.11818181818181017,
                "tempo": 120.0
            },
            {
                "start_time": 83.225,
                "end_time": 83.36136363636363,
                "pitch": 73,
                "velocity": 40,
                "duration": 0.13636363636364024,
                "tempo": 120.0
            },
            {
                "start_time": 83.36136363636363,
                "end_time": 83.47954545454544,
                "pitch": 77,
                "velocity": 40,
                "duration": 0.11818181818181017,
                "tempo": 120.0
            },
            {
                "start_time": 83.47954545454544,
                "end_time": 83.83636363636363,
                "pitch": 78,
                "velocity": 40,
                "duration": 0.35681818181818414,
                "tempo": 120.0
            },
            {
                "start_time": 83.83636363636363,
                "end_time": 84.08863636363635,
                "pitch": 73,
                "velocity": 40,
                "duration": 0.2522727272727252,
                "tempo": 120.0
            },
            {
                "start_time": 84.08863636363635,
                "end_time": 84.32727272727273,
                "pitch": 77,
                "velocity": 40,
                "duration": 0.23863636363637397,
                "tempo": 120.0
            },
            {
                "start_time": 84.32727272727273,
                "end_time": 84.5840909090909,
                "pitch": 73,
                "velocity": 40,
                "duration": 0.2568181818181756,
                "tempo": 120.0
            },
            {
                "start_time": 84.5840909090909,
                "end_time": 84.82045454545454,
                "pitch": 78,
                "velocity": 40,
                "duration": 0.23636363636363455,
                "tempo": 120.0
            },
            {
                "start_time": 84.82045454545454,
                "end_time": 84.93863636363636,
                "pitch": 73,
                "velocity": 40,
                "duration": 0.11818181818182438,
                "tempo": 120.0
            },
            {
                "start_time": 84.93863636363636,
                "end_time": 85.05454545454545,
                "pitch": 77,
                "velocity": 40,
                "duration": 0.11590909090908497,
                "tempo": 120.0
            }
        ],
        "Acoustic Guitar (nylon)": [
            {
                "start_time": 54.10681818181818,
                "end_time": 54.220454545454544,
                "pitch": 71,
                "velocity": 101,
                "duration": 0.11363636363636687,
                "tempo": 120.0
            },
            {
                "start_time": 54.22272727272727,
                "end_time": 54.35454545454545,
                "pitch": 59,
                "velocity": 101,
                "duration": 0.13181818181818272,
                "tempo": 120.0
            },
            {
                "start_time": 54.35454545454545,
                "end_time": 54.470454545454544,
                "pitch": 59,
                "velocity": 101,
                "duration": 0.11590909090909207,
                "tempo": 120.0
            },
            {
                "start_time": 54.470454545454544,
                "end_time": 54.58863636363636,
                "pitch": 71,
                "velocity": 101,
                "duration": 0.11818181818181728,
                "tempo": 120.0
            },
            {
                "start_time": 54.58863636363636,
                "end_time": 54.70454545454545,
                "pitch": 59,
                "velocity": 101,
                "duration": 0.11590909090909207,
                "tempo": 120.0
            },
            {
                "start_time": 54.70454545454545,
                "end_time": 54.824999999999996,
                "pitch": 59,
                "velocity": 101,
                "duration": 0.12045454545454248,
                "tempo": 120.0
            },
            {
                "start_time": 54.824999999999996,
                "end_time": 54.95681818181818,
                "pitch": 71,
                "velocity": 101,
                "duration": 0.13181818181818272,
                "tempo": 120.0
            },
            {
                "start_time": 54.95681818181818,
                "end_time": 55.07727272727273,
                "pitch": 59,
                "velocity": 101,
                "duration": 0.12045454545454959,
                "tempo": 120.0
            },
            {
                "start_time": 55.07727272727273,
                "end_time": 55.195454545454545,
                "pitch": 59,
                "velocity": 101,
                "duration": 0.11818181818181728,
                "tempo": 120.0
            },
            {
                "start_time": 55.195454545454545,
                "end_time": 55.31590909090909,
                "pitch": 71,
                "velocity": 101,
                "duration": 0.12045454545454248,
                "tempo": 120.0
            },
            {
                "start_time": 55.31590909090909,
                "end_time": 55.434090909090905,
                "pitch": 59,
                "velocity": 101,
                "duration": 0.11818181818181728,
                "tempo": 120.0
            },
            {
                "start_time": 55.434090909090905,
                "end_time": 55.57272727272727,
                "pitch": 59,
                "velocity": 101,
                "duration": 0.13863636363636545,
                "tempo": 120.0
            },
            {
                "start_time": 55.57272727272727,
                "end_time": 55.68863636363636,
                "pitch": 71,
                "velocity": 101,
                "duration": 0.11590909090909207,
                "tempo": 120.0
            },
            {
                "start_time": 55.68863636363636,
                "end_time": 55.80681818181818,
                "pitch": 59,
                "velocity": 101,
                "duration": 0.11818181818181728,
                "tempo": 120.0
            },
            {
                "start_time": 55.809090909090905,
                "end_time": 55.925,
                "pitch": 71,
                "velocity": 101,
                "duration": 0.11590909090909207,
                "tempo": 120.0
            },
            {
                "start_time": 55.925,
                "end_time": 56.04545454545454,
                "pitch": 59,
                "velocity": 101,
                "duration": 0.12045454545454248,
                "tempo": 120.0
            },
            {
                "start_time": 56.04545454545454,
                "end_time": 56.175,
                "pitch": 71,
                "velocity": 101,
                "duration": 0.12954545454545752,
                "tempo": 120.0
            },
            {
                "start_time": 56.175,
                "end_time": 56.29090909090909,
                "pitch": 57,
                "velocity": 101,
                "duration": 0.11590909090909207,
                "tempo": 120.0
            },
            {
                "start_time": 56.29090909090909,
                "end_time": 56.40454545454545,
                "pitch": 57,
                "velocity": 101,
                "duration": 0.11363636363635976,
                "tempo": 120.0
            },
            {
                "start_time": 56.40454545454545,
                "end_time": 56.52045454545454,
                "pitch": 71,
                "velocity": 101,
                "duration": 0.11590909090909207,
                "tempo": 120.0
            },
            {
                "start_time": 56.52045454545454,
                "end_time": 56.63409090909091,
                "pitch": 57,
                "velocity": 101,
                "duration": 0.11363636363636687,
                "tempo": 120.0
            },
            {
                "start_time": 56.63409090909091,
                "end_time": 56.77045454545454,
                "pitch": 57,
                "velocity": 101,
                "duration": 0.13636363636363313,
                "tempo": 120.0
            },
            {
                "start_time": 56.77045454545454,
                "end_time": 56.88636363636363,
                "pitch": 71,
                "velocity": 101,
                "duration": 0.11590909090909207,
                "tempo": 120.0
            },
            {
                "start_time": 56.88636363636363,
                "end_time": 57.00454545454545,
                "pitch": 57,
                "velocity": 101,
                "duration": 0.11818181818181728,
                "tempo": 120.0
            },
            {
                "start_time": 57.00454545454545,
                "end_time": 57.12272727272727,
                "pitch": 57,
                "velocity": 101,
                "duration": 0.11818181818181728,
                "tempo": 120.0
            },
            {
                "start_time": 57.12272727272727,
                "end_time": 57.24318181818182,
                "pitch": 71,
                "velocity": 101,
                "duration": 0.12045454545454959,
                "tempo": 120.0
            },
            {
                "start_time": 57.24318181818182,
                "end_time": 57.37954545454545,
                "pitch": 57,
                "velocity": 101,
                "duration": 0.13636363636363313,
                "tempo": 120.0
            },
            {
                "start_time": 57.37954545454545,
                "end_time": 57.5,
                "pitch": 57,
                "velocity": 101,
                "duration": 0.12045454545454959,
                "tempo": 120.0
            },
            {
                "start_time": 57.5,
                "end_time": 57.615909090909085,
                "pitch": 71,
                "velocity": 101,
                "duration": 0.11590909090908497,
                "tempo": 120.0
            },
            {
                "start_time": 57.615909090909085,
                "end_time": 57.73409090909091,
                "pitch": 57,
                "velocity": 101,
                "duration": 0.11818181818182438,
                "tempo": 120.0
            },
            {
                "start_time": 57.73409090909091,
                "end_time": 57.85227272727273,
                "pitch": 71,
                "velocity": 101,
                "duration": 0.11818181818181728,
                "tempo": 120.0
            },
            {
                "start_time": 57.85227272727273,
                "end_time": 57.98863636363636,
                "pitch": 57,
                "velocity": 101,
                "duration": 0.13636363636363313,
                "tempo": 120.0
            },
            {
                "start_time": 57.98863636363636,
                "end_time": 58.10454545454545,
                "pitch": 71,
                "velocity": 101,
                "duration": 0.11590909090909207,
                "tempo": 120.0
            },
            {
                "start_time": 58.10454545454545,
                "end_time": 58.220454545454544,
                "pitch": 56,
                "velocity": 101,
                "duration": 0.11590909090909207,
                "tempo": 120.0
            },
            {
                "start_time": 58.220454545454544,
                "end_time": 58.336363636363636,
                "pitch": 56,
                "velocity": 101,
                "duration": 0.11590909090909207,
                "tempo": 120.0
            },
            {
                "start_time": 58.336363636363636,
                "end_time": 58.45454545454545,
                "pitch": 71,
                "velocity": 101,
                "duration": 0.11818181818181728,
                "tempo": 120.0
            },
            {
                "start_time": 58.45454545454545,
                "end_time": 58.584090909090904,
                "pitch": 56,
                "velocity": 101,
                "duration": 0.1295454545454504,
                "tempo": 120.0
            },
            {
                "start_time": 58.584090909090904,
                "end_time": 58.699999999999996,
                "pitch": 56,
                "velocity": 101,
                "duration": 0.11590909090909207,
                "tempo": 120.0
            },
            {
                "start_time": 58.70227272727272,
                "end_time": 58.81363636363636,
                "pitch": 71,
                "velocity": 101,
                "duration": 0.11136363636364166,
                "tempo": 120.0
            },
            {
                "start_time": 58.81363636363636,
                "end_time": 58.93181818181818,
                "pitch": 56,
                "velocity": 101,
                "duration": 0.11818181818181728,
                "tempo": 120.0
            },
            {
                "start_time": 58.93181818181818,
                "end_time": 59.04772727272727,
                "pitch": 56,
                "velocity": 101,
                "duration": 0.11590909090909207,
                "tempo": 120.0
            },
            {
                "start_time": 59.05,
                "end_time": 59.18636363636363,
                "pitch": 71,
                "velocity": 101,
                "duration": 0.13636363636363313,
                "tempo": 120.0
            },
            {
                "start_time": 59.18636363636363,
                "end_time": 59.30681818181818,
                "pitch": 56,
                "velocity": 101,
                "duration": 0.12045454545454959,
                "tempo": 120.0
            },
            {
                "start_time": 59.30681818181818,
                "end_time": 59.42727272727272,
                "pitch": 56,
                "velocity": 101,
                "duration": 0.12045454545454248,
                "tempo": 120.0
            },
            {
                "start_time": 59.42727272727272,
                "end_time": 59.54090909090909,
                "pitch": 71,
                "velocity": 101,
                "duration": 0.11363636363636687,
                "tempo": 120.0
            },
            {
                "start_time": 59.543181818181814,
                "end_time": 59.65909090909091,
                "pitch": 56,
                "velocity": 101,
                "duration": 0.11590909090909207,
                "tempo": 120.0
            },
            {
                "start_time": 59.65909090909091,
                "end_time": 59.793181818181814,
                "pitch": 71,
                "velocity": 101,
                "duration": 0.13409090909090793,
                "tempo": 120.0
            },
            {
                "start_time": 59.793181818181814,
                "end_time": 59.91136363636363,
                "pitch": 56,
                "velocity": 101,
                "duration": 0.11818181818181728,
                "tempo": 120.0
            },
            {
                "start_time": 59.91136363636363,
                "end_time": 60.027272727272724,
                "pitch": 71,
                "velocity": 101,
                "duration": 0.11590909090909207,
                "tempo": 120.0
            },
            {
                "start_time": 60.027272727272724,
                "end_time": 60.14545454545454,
                "pitch": 57,
                "velocity": 101,
                "duration": 0.11818181818181728,
                "tempo": 120.0
            },
            {
                "start_time": 60.14545454545454,
                "end_time": 60.26363636363636,
                "pitch": 57,
                "velocity": 101,
                "duration": 0.11818181818181728,
                "tempo": 120.0
            },
            {
                "start_time": 60.26363636363636,
                "end_time": 60.397727272727266,
                "pitch": 71,
                "velocity": 101,
                "duration": 0.13409090909090793,
                "tempo": 120.0
            },
            {
                "start_time": 60.397727272727266,
                "end_time": 60.51590909090909,
                "pitch": 57,
                "velocity": 101,
                "duration": 0.11818181818182438,
                "tempo": 120.0
            },
            {
                "start_time": 60.51590909090909,
                "end_time": 60.63863636363636,
                "pitch": 57,
                "velocity": 101,
                "duration": 0.12272727272726769,
                "tempo": 120.0
            },
            {
                "start_time": 60.63863636363636,
                "end_time": 60.756818181818176,
                "pitch": 71,
                "velocity": 101,
                "duration": 0.11818181818181728,
                "tempo": 120.0
            },
            {
                "start_time": 60.756818181818176,
                "end_time": 60.877272727272725,
                "pitch": 57,
                "velocity": 101,
                "duration": 0.12045454545454959,
                "tempo": 120.0
            },
            {
                "start_time": 60.877272727272725,
                "end_time": 61.006818181818176,
                "pitch": 57,
                "velocity": 101,
                "duration": 0.1295454545454504,
                "tempo": 120.0
            },
            {
                "start_time": 61.006818181818176,
                "end_time": 61.12272727272727,
                "pitch": 71,
                "velocity": 101,
                "duration": 0.11590909090909207,
                "tempo": 120.0
            },
            {
                "start_time": 61.125,
                "end_time": 61.23863636363636,
                "pitch": 57,
                "velocity": 101,
                "duration": 0.11363636363635976,
                "tempo": 120.0
            },
            {
                "start_time": 61.23863636363636,
                "end_time": 61.35227272727273,
                "pitch": 57,
                "velocity": 101,
                "duration": 0.11363636363636687,
                "tempo": 120.0
            },
            {
                "start_time": 61.35227272727273,
                "end_time": 61.470454545454544,
                "pitch": 71,
                "velocity": 101,
                "duration": 0.11818181818181728,
                "tempo": 120.0
            },
            {
                "start_time": 61.470454545454544,
                "end_time": 61.60454545454545,
                "pitch": 57,
                "velocity": 101,
                "duration": 0.13409090909090793,
                "tempo": 120.0
            },
            {
                "start_time": 61.60454545454545,
                "end_time": 61.720454545454544,
                "pitch": 71,
                "velocity": 101,
                "duration": 0.11590909090909207,
                "tempo": 120.0
            },
            {
                "start_time": 61.720454545454544,
                "end_time": 61.83863636363636,
                "pitch": 57,
                "velocity": 101,
                "duration": 0.11818181818181728,
                "tempo": 120.0
            },
            {
                "start_time": 61.840909090909086,
                "end_time": 61.95454545454545,
                "pitch": 71,
                "velocity": 101,
                "duration": 0.11363636363636687,
                "tempo": 120.0
            },
            {
                "start_time": 61.95454545454545,
                "end_time": 62.07272727272727,
                "pitch": 59,
                "velocity": 101,
                "duration": 0.11818181818181728,
                "tempo": 120.0
            },
            {
                "start_time": 62.07272727272727,
                "end_time": 62.20681818181818,
                "pitch": 59,
                "velocity": 101,
                "duration": 0.13409090909090793,
                "tempo": 120.0
            },
            {
                "start_time": 62.20681818181818,
                "end_time": 62.324999999999996,
                "pitch": 71,
                "velocity": 101,
                "duration": 0.11818181818181728,
                "tempo": 120.0
            },
            {
                "start_time": 62.324999999999996,
                "end_time": 62.44318181818181,
                "pitch": 59,
                "velocity": 101,
                "duration": 0.11818181818181728,
                "tempo": 120.0
            },
            {
                "start_time": 62.44318181818181,
                "end_time": 62.56363636363636,
                "pitch": 59,
                "velocity": 101,
                "duration": 0.12045454545454959,
                "tempo": 120.0
            },
            {
                "start_time": 62.56590909090909,
                "end_time": 62.68181818181818,
                "pitch": 71,
                "velocity": 101,
                "duration": 0.11590909090909207,
                "tempo": 120.0
            },
            {
                "start_time": 62.68181818181818,
                "end_time": 62.820454545454545,
                "pitch": 59,
                "velocity": 101,
                "duration": 0.13863636363636545,
                "tempo": 120.0
            },
            {
                "start_time": 62.820454545454545,
                "end_time": 62.93636363636363,
                "pitch": 59,
                "velocity": 101,
                "duration": 0.11590909090908497,
                "tempo": 120.0
            },
            {
                "start_time": 62.93863636363636,
                "end_time": 63.05681818181818,
                "pitch": 71,
                "velocity": 101,
                "duration": 0.11818181818181728,
                "tempo": 120.0
            },
            {
                "start_time": 63.05681818181818,
                "end_time": 63.17272727272727,
                "pitch": 59,
                "velocity": 101,
                "duration": 0.11590909090909207,
                "tempo": 120.0
            },
            {
                "start_time": 63.17272727272727,
                "end_time": 63.29090909090909,
                "pitch": 59,
                "velocity": 101,
                "duration": 0.11818181818181728,
                "tempo": 120.0
            },
            {
                "start_time": 63.29090909090909,
                "end_time": 63.42272727272727,
                "pitch": 71,
                "velocity": 101,
                "duration": 0.13181818181818272,
                "tempo": 120.0
            },
            {
                "start_time": 63.42272727272727,
                "end_time": 63.538636363636364,
                "pitch": 59,
                "velocity": 101,
                "duration": 0.11590909090909207,
                "tempo": 120.0
            },
            {
                "start_time": 63.538636363636364,
                "end_time": 63.65454545454545,
                "pitch": 71,
                "velocity": 101,
                "duration": 0.11590909090908497,
                "tempo": 120.0
            },
            {
                "start_time": 63.65454545454545,
                "end_time": 63.77045454545454,
                "pitch": 59,
                "velocity": 101,
                "duration": 0.11590909090909207,
                "tempo": 120.0
            },
            {
                "start_time": 63.77045454545454,
                "end_time": 63.88409090909091,
                "pitch": 71,
                "velocity": 101,
                "duration": 0.11363636363636687,
                "tempo": 120.0
            },
            {
                "start_time": 63.88409090909091,
                "end_time": 64.01818181818182,
                "pitch": 57,
                "velocity": 101,
                "duration": 0.13409090909090793,
                "tempo": 120.0
            },
            {
                "start_time": 64.01818181818182,
                "end_time": 64.1340909090909,
                "pitch": 57,
                "velocity": 101,
                "duration": 0.11590909090908497,
                "tempo": 120.0
            },
            {
                "start_time": 64.1340909090909,
                "end_time": 64.25227272727273,
                "pitch": 71,
                "velocity": 101,
                "duration": 0.11818181818182438,
                "tempo": 120.0
            },
            {
                "start_time": 64.25227272727273,
                "end_time": 64.37045454545454,
                "pitch": 57,
                "velocity": 101,
                "duration": 0.11818181818181017,
                "tempo": 120.0
            },
            {
                "start_time": 64.37045454545454,
                "end_time": 64.49090909090908,
                "pitch": 57,
                "velocity": 101,
                "duration": 0.12045454545454959,
                "tempo": 120.0
            },
            {
                "start_time": 64.49090909090908,
                "end_time": 64.62727272727273,
                "pitch": 71,
                "velocity": 101,
                "duration": 0.13636363636364024,
                "tempo": 120.0
            },
            {
                "start_time": 64.62727272727273,
                "end_time": 64.74772727272727,
                "pitch": 57,
                "velocity": 101,
                "duration": 0.12045454545454959,
                "tempo": 120.0
            },
            {
                "start_time": 64.74772727272727,
                "end_time": 64.86363636363636,
                "pitch": 57,
                "velocity": 101,
                "duration": 0.11590909090908497,
                "tempo": 120.0
            },
            {
                "start_time": 64.86363636363636,
                "end_time": 64.98181818181818,
                "pitch": 71,
                "velocity": 101,
                "duration": 0.11818181818182438,
                "tempo": 120.0
            },
            {
                "start_time": 64.98181818181818,
                "end_time": 65.09772727272727,
                "pitch": 57,
                "velocity": 101,
                "duration": 0.11590909090908497,
                "tempo": 120.0
            },
            {
                "start_time": 65.09772727272727,
                "end_time": 65.23181818181818,
                "pitch": 57,
                "velocity": 101,
                "duration": 0.13409090909091503,
                "tempo": 120.0
            },
            {
                "start_time": 65.23181818181818,
                "end_time": 65.35,
                "pitch": 71,
                "velocity": 101,
                "duration": 0.11818181818181017,
                "tempo": 120.0
            },
            {
                "start_time": 65.35,
                "end_time": 65.4659090909091,
                "pitch": 57,
                "velocity": 101,
                "duration": 0.11590909090909918,
                "tempo": 120.0
            },
            {
                "start_time": 65.46818181818182,
                "end_time": 65.58636363636363,
                "pitch": 71,
                "velocity": 101,
                "duration": 0.11818181818181017,
                "tempo": 120.0
            },
            {
                "start_time": 65.58636363636363,
                "end_time": 65.70454545454545,
                "pitch": 57,
                "velocity": 101,
                "duration": 0.11818181818182438,
                "tempo": 120.0
            },
            {
                "start_time": 65.70454545454545,
                "end_time": 65.8340909090909,
                "pitch": 71,
                "velocity": 101,
                "duration": 0.1295454545454504,
                "tempo": 120.0
            },
            {
                "start_time": 65.8340909090909,
                "end_time": 65.95,
                "pitch": 56,
                "velocity": 101,
                "duration": 0.11590909090909918,
                "tempo": 120.0
            },
            {
                "start_time": 65.95,
                "end_time": 66.06363636363636,
                "pitch": 56,
                "velocity": 101,
                "duration": 0.11363636363635976,
                "tempo": 120.0
            },
            {
                "start_time": 66.06363636363636,
                "end_time": 66.17954545454545,
                "pitch": 71,
                "velocity": 101,
                "duration": 0.11590909090908497,
                "tempo": 120.0
            },
            {
                "start_time": 66.17954545454545,
                "end_time": 66.29772727272727,
                "pitch": 56,
                "velocity": 101,
                "duration": 0.11818181818182438,
                "tempo": 120.0
            },
            {
                "start_time": 66.29772727272727,
                "end_time": 66.43636363636364,
                "pitch": 56,
                "velocity": 101,
                "duration": 0.13863636363636545,
                "tempo": 120.0
            },
            {
                "start_time": 66.43636363636364,
                "end_time": 66.55454545454545,
                "pitch": 71,
                "velocity": 101,
                "duration": 0.11818181818181017,
                "tempo": 120.0
            },
            {
                "start_time": 66.55454545454545,
                "end_time": 66.675,
                "pitch": 56,
                "velocity": 101,
                "duration": 0.12045454545454959,
                "tempo": 120.0
            },
            {
                "start_time": 66.675,
                "end_time": 66.79090909090908,
                "pitch": 56,
                "velocity": 101,
                "duration": 0.11590909090908497,
                "tempo": 120.0
            },
            {
                "start_time": 66.79090909090908,
                "end_time": 66.9090909090909,
                "pitch": 71,
                "velocity": 101,
                "duration": 0.11818181818182438,
                "tempo": 120.0
            },
            {
                "start_time": 66.91136363636363,
                "end_time": 67.04318181818182,
                "pitch": 56,
                "velocity": 101,
                "duration": 0.13181818181818983,
                "tempo": 120.0
            },
            {
                "start_time": 67.04318181818182,
                "end_time": 67.16136363636363,
                "pitch": 56,
                "velocity": 101,
                "duration": 0.11818181818181017,
                "tempo": 120.0
            },
            {
                "start_time": 67.16136363636363,
                "end_time": 67.27954545454546,
                "pitch": 71,
                "velocity": 101,
                "duration": 0.11818181818182438,
                "tempo": 120.0
            },
            {
                "start_time": 67.27954545454546,
                "end_time": 67.39772727272727,
                "pitch": 56,
                "velocity": 101,
                "duration": 0.11818181818181017,
                "tempo": 120.0
            },
            {
                "start_time": 67.39772727272727,
                "end_time": 67.51590909090909,
                "pitch": 71,
                "velocity": 101,
                "duration": 0.11818181818182438,
                "tempo": 120.0
            },
            {
                "start_time": 67.51590909090909,
                "end_time": 67.65227272727273,
                "pitch": 56,
                "velocity": 101,
                "duration": 0.13636363636364024,
                "tempo": 120.0
            },
            {
                "start_time": 67.65227272727273,
                "end_time": 67.76818181818182,
                "pitch": 71,
                "velocity": 101,
                "duration": 0.11590909090908497,
                "tempo": 120.0
            },
            {
                "start_time": 67.76818181818182,
                "end_time": 67.88636363636363,
                "pitch": 57,
                "velocity": 101,
                "duration": 0.11818181818181017,
                "tempo": 120.0
            },
            {
                "start_time": 67.88636363636363,
                "end_time": 68.00227272727273,
                "pitch": 57,
                "velocity": 101,
                "duration": 0.11590909090909918,
                "tempo": 120.0
            },
            {
                "start_time": 68.00227272727273,
                "end_time": 68.12045454545454,
                "pitch": 71,
                "velocity": 101,
                "duration": 0.11818181818181017,
                "tempo": 120.0
            },
            {
                "start_time": 68.12045454545454,
                "end_time": 68.25227272727273,
                "pitch": 57,
                "velocity": 101,
                "duration": 0.13181818181818983,
                "tempo": 120.0
            },
            {
                "start_time": 68.25454545454545,
                "end_time": 68.37272727272727,
                "pitch": 57,
                "velocity": 101,
                "duration": 0.11818181818182438,
                "tempo": 120.0
            },
            {
                "start_time": 68.37272727272727,
                "end_time": 68.48636363636363,
                "pitch": 71,
                "velocity": 101,
                "duration": 0.11363636363635976,
                "tempo": 120.0
            },
            {
                "start_time": 68.48636363636363,
                "end_time": 68.60454545454544,
                "pitch": 57,
                "velocity": 101,
                "duration": 0.11818181818181017,
                "tempo": 120.0
            },
            {
                "start_time": 68.60454545454544,
                "end_time": 68.72272727272727,
                "pitch": 57,
                "velocity": 101,
                "duration": 0.11818181818182438,
                "tempo": 120.0
            },
            {
                "start_time": 68.72272727272727,
                "end_time": 68.85681818181818,
                "pitch": 71,
                "velocity": 101,
                "duration": 0.13409090909091503,
                "tempo": 120.0
            },
            {
                "start_time": 68.85681818181818,
                "end_time": 68.975,
                "pitch": 57,
                "velocity": 101,
                "duration": 0.11818181818181017,
                "tempo": 120.0
            },
            {
                "start_time": 68.975,
                "end_time": 69.09318181818182,
                "pitch": 57,
                "velocity": 101,
                "duration": 0.11818181818182438,
                "tempo": 120.0
            },
            {
                "start_time": 69.09318181818182,
                "end_time": 69.21136363636363,
                "pitch": 71,
                "velocity": 101,
                "duration": 0.11818181818181017,
                "tempo": 120.0
            },
            {
                "start_time": 69.21363636363635,
                "end_time": 69.33181818181818,
                "pitch": 57,
                "velocity": 101,
                "duration": 0.11818181818182438,
                "tempo": 120.0
            },
            {
                "start_time": 69.33181818181818,
                "end_time": 69.47045454545454,
                "pitch": 71,
                "velocity": 101,
                "duration": 0.13863636363636545,
                "tempo": 120.0
            },
            {
                "start_time": 69.47045454545454,
                "end_time": 69.5909090909091,
                "pitch": 57,
                "velocity": 101,
                "duration": 0.12045454545454959,
                "tempo": 120.0
            },
            {
                "start_time": 69.5909090909091,
                "end_time": 69.70227272727273,
                "pitch": 73,
                "velocity": 101,
                "duration": 0.11136363636363455,
                "tempo": 120.0
            },
            {
                "start_time": 69.70227272727273,
                "end_time": 69.81818181818181,
                "pitch": 61,
                "velocity": 101,
                "duration": 0.11590909090908497,
                "tempo": 120.0
            },
            {
                "start_time": 69.81818181818181,
                "end_time": 69.93181818181817,
                "pitch": 61,
                "velocity": 101,
                "duration": 0.11363636363635976,
                "tempo": 120.0
            },
            {
                "start_time": 69.93181818181817,
                "end_time": 70.06363636363636,
                "pitch": 73,
                "velocity": 101,
                "duration": 0.13181818181818983,
                "tempo": 120.0
            },
            {
                "start_time": 70.06590909090909,
                "end_time": 70.18409090909091,
                "pitch": 61,
                "velocity": 101,
                "duration": 0.11818181818182438,
                "tempo": 120.0
            },
            {
                "start_time": 70.18409090909091,
                "end_time": 70.30454545454545,
                "pitch": 61,
                "velocity": 101,
                "duration": 0.12045454545453538,
                "tempo": 120.0
            },
            {
                "start_time": 70.30454545454545,
                "end_time": 70.42272727272727,
                "pitch": 73,
                "velocity": 101,
                "duration": 0.11818181818182438,
                "tempo": 120.0
            },
            {
                "start_time": 70.42272727272727,
                "end_time": 70.54318181818182,
                "pitch": 61,
                "velocity": 101,
                "duration": 0.12045454545454959,
                "tempo": 120.0
            },
            {
                "start_time": 70.54318181818182,
                "end_time": 70.67272727272727,
                "pitch": 61,
                "velocity": 101,
                "duration": 0.1295454545454504,
                "tempo": 120.0
            },
            {
                "start_time": 70.675,
                "end_time": 70.79090909090908,
                "pitch": 73,
                "velocity": 101,
                "duration": 0.11590909090908497,
                "tempo": 120.0
            },
            {
                "start_time": 70.79090909090908,
                "end_time": 70.90454545454546,
                "pitch": 61,
                "velocity": 101,
                "duration": 0.11363636363637397,
                "tempo": 120.0
            },
            {
                "start_time": 70.90454545454546,
                "end_time": 71.02045454545454,
                "pitch": 61,
                "velocity": 101,
                "duration": 0.11590909090908497,
                "tempo": 120.0
            },
            {
                "start_time": 71.02045454545454,
                "end_time": 71.13636363636363,
                "pitch": 73,
                "velocity": 101,
                "duration": 0.11590909090908497,
                "tempo": 120.0
            },
            {
                "start_time": 71.13636363636363,
                "end_time": 71.27272727272727,
                "pitch": 61,
                "velocity": 101,
                "duration": 0.13636363636364024,
                "tempo": 120.0
            },
            {
                "start_time": 71.27272727272727,
                "end_time": 71.39090909090909,
                "pitch": 73,
                "velocity": 101,
                "duration": 0.11818181818182438,
                "tempo": 120.0
            },
            {
                "start_time": 71.39090909090909,
                "end_time": 71.5090909090909,
                "pitch": 61,
                "velocity": 101,
                "duration": 0.11818181818181017,
                "tempo": 120.0
            },
            {
                "start_time": 71.5090909090909,
                "end_time": 71.625,
                "pitch": 73,
                "velocity": 101,
                "duration": 0.11590909090909918,
                "tempo": 120.0
            },
            {
                "start_time": 71.625,
                "end_time": 71.74090909090908,
                "pitch": 59,
                "velocity": 101,
                "duration": 0.11590909090908497,
                "tempo": 120.0
            },
            {
                "start_time": 71.74090909090908,
                "end_time": 71.875,
                "pitch": 59,
                "velocity": 101,
                "duration": 0.13409090909091503,
                "tempo": 120.0
            },
            {
                "start_time": 71.875,
                "end_time": 71.99090909090908,
                "pitch": 73,
                "velocity": 101,
                "duration": 0.11590909090908497,
                "tempo": 120.0
            },
            {
                "start_time": 71.99090909090908,
                "end_time": 72.10909090909091,
                "pitch": 59,
                "velocity": 101,
                "duration": 0.11818181818182438,
                "tempo": 120.0
            },
            {
                "start_time": 72.10909090909091,
                "end_time": 72.23181818181818,
                "pitch": 59,
                "velocity": 101,
                "duration": 0.1227272727272748,
                "tempo": 120.0
            },
            {
                "start_time": 72.23181818181818,
                "end_time": 72.35,
                "pitch": 73,
                "velocity": 101,
                "duration": 0.11818181818181017,
                "tempo": 120.0
            },
            {
                "start_time": 72.35,
                "end_time": 72.48636363636363,
                "pitch": 59,
                "velocity": 101,
                "duration": 0.13636363636364024,
                "tempo": 120.0
            },
            {
                "start_time": 72.48863636363636,
                "end_time": 72.60227272727272,
                "pitch": 59,
                "velocity": 101,
                "duration": 0.11363636363635976,
                "tempo": 120.0
            },
            {
                "start_time": 72.60227272727272,
                "end_time": 72.72045454545454,
                "pitch": 73,
                "velocity": 101,
                "duration": 0.11818181818182438,
                "tempo": 120.0
            },
            {
                "start_time": 72.72045454545454,
                "end_time": 72.83636363636363,
                "pitch": 59,
                "velocity": 101,
                "duration": 0.11590909090908497,
                "tempo": 120.0
            },
            {
                "start_time": 72.83636363636363,
                "end_time": 72.95454545454545,
                "pitch": 59,
                "velocity": 101,
                "duration": 0.11818181818182438,
                "tempo": 120.0
            },
            {
                "start_time": 72.95454545454545,
                "end_time": 73.08636363636363,
                "pitch": 73,
                "velocity": 101,
                "duration": 0.13181818181817562,
                "tempo": 120.0
            },
            {
                "start_time": 73.08636363636363,
                "end_time": 73.2,
                "pitch": 59,
                "velocity": 101,
                "duration": 0.11363636363637397,
                "tempo": 120.0
            },
            {
                "start_time": 73.2,
                "end_time": 73.31590909090909,
                "pitch": 73,
                "velocity": 101,
                "duration": 0.11590909090908497,
                "tempo": 120.0
            },
            {
                "start_time": 73.31590909090909,
                "end_time": 73.43181818181817,
                "pitch": 59,
                "velocity": 101,
                "duration": 0.11590909090908497,
                "tempo": 120.0
            },
            {
                "start_time": 73.43181818181817,
                "end_time": 73.54772727272727,
                "pitch": 73,
                "velocity": 101,
                "duration": 0.11590909090909918,
                "tempo": 120.0
            },
            {
                "start_time": 73.54772727272727,
                "end_time": 73.68409090909091,
                "pitch": 58,
                "velocity": 101,
                "duration": 0.13636363636364024,
                "tempo": 120.0
            },
            {
                "start_time": 73.68409090909091,
                "end_time": 73.8,
                "pitch": 58,
                "velocity": 101,
                "duration": 0.11590909090908497,
                "tempo": 120.0
            },
            {
                "start_time": 73.8,
                "end_time": 73.91818181818182,
                "pitch": 73,
                "velocity": 101,
                "duration": 0.11818181818182438,
                "tempo": 120.0
            },
            {
                "start_time": 73.91818181818182,
                "end_time": 74.03636363636363,
                "pitch": 58,
                "velocity": 101,
                "duration": 0.11818181818181017,
                "tempo": 120.0
            },
            {
                "start_time": 74.03636363636363,
                "end_time": 74.1590909090909,
                "pitch": 58,
                "velocity": 101,
                "duration": 0.1227272727272748,
                "tempo": 120.0
            },
            {
                "start_time": 74.1590909090909,
                "end_time": 74.29318181818182,
                "pitch": 73,
                "velocity": 101,
                "duration": 0.13409090909091503,
                "tempo": 120.0
            },
            {
                "start_time": 74.29318181818182,
                "end_time": 74.41363636363636,
                "pitch": 58,
                "velocity": 101,
                "duration": 0.12045454545453538,
                "tempo": 120.0
            },
            {
                "start_time": 74.41363636363636,
                "end_time": 74.52954545454546,
                "pitch": 58,
                "velocity": 101,
                "duration": 0.11590909090909918,
                "tempo": 120.0
            },
            {
                "start_time": 74.52954545454546,
                "end_time": 74.64772727272727,
                "pitch": 73,
                "velocity": 101,
                "duration": 0.11818181818181017,
                "tempo": 120.0
            },
            {
                "start_time": 74.64772727272727,
                "end_time": 74.76363636363637,
                "pitch": 58,
                "velocity": 101,
                "duration": 0.11590909090909918,
                "tempo": 120.0
            },
            {
                "start_time": 74.76363636363637,
                "end_time": 74.89772727272727,
                "pitch": 58,
                "velocity": 101,
                "duration": 0.13409090909090082,
                "tempo": 120.0
            },
            {
                "start_time": 74.89772727272727,
                "end_time": 75.01590909090909,
                "pitch": 73,
                "velocity": 101,
                "duration": 0.11818181818182438,
                "tempo": 120.0
            },
            {
                "start_time": 75.01590909090909,
                "end_time": 75.1340909090909,
                "pitch": 58,
                "velocity": 101,
                "duration": 0.11818181818181017,
                "tempo": 120.0
            },
            {
                "start_time": 75.1340909090909,
                "end_time": 75.25227272727273,
                "pitch": 73,
                "velocity": 101,
                "duration": 0.11818181818182438,
                "tempo": 120.0
            },
            {
                "start_time": 75.25227272727273,
                "end_time": 75.37045454545454,
                "pitch": 58,
                "velocity": 101,
                "duration": 0.11818181818181017,
                "tempo": 120.0
            },
            {
                "start_time": 75.37045454545454,
                "end_time": 75.5,
                "pitch": 73,
                "velocity": 101,
                "duration": 0.12954545454546462,
                "tempo": 120.0
            },
            {
                "start_time": 75.5,
                "end_time": 75.61590909090908,
                "pitch": 59,
                "velocity": 101,
                "duration": 0.11590909090908497,
                "tempo": 120.0
            },
            {
                "start_time": 75.61590909090908,
                "end_time": 75.72954545454544,
                "pitch": 59,
                "velocity": 101,
                "duration": 0.11363636363635976,
                "tempo": 120.0
            },
            {
                "start_time": 75.72954545454544,
                "end_time": 75.84545454545454,
                "pitch": 73,
                "velocity": 101,
                "duration": 0.11590909090909918,
                "tempo": 120.0
            },
            {
                "start_time": 75.84545454545454,
                "end_time": 75.96363636363635,
                "pitch": 59,
                "velocity": 101,
                "duration": 0.11818181818181017,
                "tempo": 120.0
            },
            {
                "start_time": 75.96363636363635,
                "end_time": 76.10227272727272,
                "pitch": 59,
                "velocity": 101,
                "duration": 0.13863636363636545,
                "tempo": 120.0
            },
            {
                "start_time": 76.10227272727272,
                "end_time": 76.22045454545454,
                "pitch": 73,
                "velocity": 101,
                "duration": 0.11818181818182438,
                "tempo": 120.0
            },
            {
                "start_time": 76.22045454545454,
                "end_time": 76.3409090909091,
                "pitch": 59,
                "velocity": 101,
                "duration": 0.12045454545454959,
                "tempo": 120.0
            },
            {
                "start_time": 76.3409090909091,
                "end_time": 76.45681818181818,
                "pitch": 59,
                "velocity": 101,
                "duration": 0.11590909090908497,
                "tempo": 120.0
            },
            {
                "start_time": 76.4590909090909,
                "end_time": 76.57727272727273,
                "pitch": 73,
                "velocity": 101,
                "duration": 0.11818181818182438,
                "tempo": 120.0
            },
            {
                "start_time": 76.57727272727273,
                "end_time": 76.71136363636363,
                "pitch": 59,
                "velocity": 101,
                "duration": 0.13409090909090082,
                "tempo": 120.0
            },
            {
                "start_time": 76.71136363636363,
                "end_time": 76.82954545454545,
                "pitch": 59,
                "velocity": 101,
                "duration": 0.11818181818182438,
                "tempo": 120.0
            },
            {
                "start_time": 76.82954545454545,
                "end_time": 76.94772727272726,
                "pitch": 73,
                "velocity": 101,
                "duration": 0.11818181818181017,
                "tempo": 120.0
            },
            {
                "start_time": 76.94772727272726,
                "end_time": 77.06363636363636,
                "pitch": 59,
                "velocity": 101,
                "duration": 0.11590909090909918,
                "tempo": 120.0
            },
            {
                "start_time": 77.06363636363636,
                "end_time": 77.18181818181817,
                "pitch": 73,
                "velocity": 101,
                "duration": 0.11818181818181017,
                "tempo": 120.0
            },
            {
                "start_time": 77.18409090909091,
                "end_time": 77.31818181818181,
                "pitch": 59,
                "velocity": 101,
                "duration": 0.13409090909090082,
                "tempo": 120.0
            },
            {
                "start_time": 77.32045454545454,
                "end_time": 77.43409090909091,
                "pitch": 73,
                "velocity": 101,
                "duration": 0.11363636363637397,
                "tempo": 120.0
            },
            {
                "start_time": 77.43409090909091,
                "end_time": 77.55227272727272,
                "pitch": 61,
                "velocity": 101,
                "duration": 0.11818181818181017,
                "tempo": 120.0
            },
            {
                "start_time": 77.55227272727272,
                "end_time": 77.66818181818181,
                "pitch": 61,
                "velocity": 101,
                "duration": 0.11590909090908497,
                "tempo": 120.0
            },
            {
                "start_time": 77.67045454545455,
                "end_time": 77.78863636363636,
                "pitch": 73,
                "velocity": 101,
                "duration": 0.11818181818181017,
                "tempo": 120.0
            },
            {
                "start_time": 77.78863636363636,
                "end_time": 77.91818181818181,
                "pitch": 61,
                "velocity": 101,
                "duration": 0.1295454545454504,
                "tempo": 120.0
            },
            {
                "start_time": 77.92045454545455,
                "end_time": 78.03863636363636,
                "pitch": 61,
                "velocity": 101,
                "duration": 0.11818181818181017,
                "tempo": 120.0
            },
            {
                "start_time": 78.03863636363636,
                "end_time": 78.15454545454546,
                "pitch": 73,
                "velocity": 101,
                "duration": 0.11590909090909918,
                "tempo": 120.0
            },
            {
                "start_time": 78.15454545454546,
                "end_time": 78.27272727272727,
                "pitch": 61,
                "velocity": 101,
                "duration": 0.11818181818181017,
                "tempo": 120.0
            },
            {
                "start_time": 78.27272727272727,
                "end_time": 78.38863636363637,
                "pitch": 61,
                "velocity": 101,
                "duration": 0.11590909090909918,
                "tempo": 120.0
            },
            {
                "start_time": 78.38863636363637,
                "end_time": 78.52499999999999,
                "pitch": 73,
                "velocity": 101,
                "duration": 0.13636363636362603,
                "tempo": 120.0
            },
            {
                "start_time": 78.52499999999999,
                "end_time": 78.64090909090909,
                "pitch": 61,
                "velocity": 101,
                "duration": 0.11590909090909918,
                "tempo": 120.0
            },
            {
                "start_time": 78.64090909090909,
                "end_time": 78.7590909090909,
                "pitch": 61,
                "velocity": 101,
                "duration": 0.11818181818181017,
                "tempo": 120.0
            },
            {
                "start_time": 78.7590909090909,
                "end_time": 78.87727272727273,
                "pitch": 73,
                "velocity": 101,
                "duration": 0.11818181818182438,
                "tempo": 120.0
            },
            {
                "start_time": 78.87727272727273,
                "end_time": 78.99772727272727,
                "pitch": 61,
                "velocity": 101,
                "duration": 0.12045454545454959,
                "tempo": 120.0
            },
            {
                "start_time": 79.0,
                "end_time": 79.1340909090909,
                "pitch": 73,
                "velocity": 101,
                "duration": 0.13409090909090082,
                "tempo": 120.0
            },
            {
                "start_time": 79.13636363636363,
                "end_time": 79.25681818181818,
                "pitch": 61,
                "velocity": 101,
                "duration": 0.12045454545454959,
                "tempo": 120.0
            },
            {
                "start_time": 79.25681818181818,
                "end_time": 79.37272727272727,
                "pitch": 73,
                "velocity": 101,
                "duration": 0.11590909090909918,
                "tempo": 120.0
            },
            {
                "start_time": 79.37272727272727,
                "end_time": 79.49090909090908,
                "pitch": 59,
                "velocity": 101,
                "duration": 0.11818181818181017,
                "tempo": 120.0
            },
            {
                "start_time": 79.49090909090908,
                "end_time": 79.60681818181818,
                "pitch": 59,
                "velocity": 101,
                "duration": 0.11590909090909918,
                "tempo": 120.0
            },
            {
                "start_time": 79.60909090909091,
                "end_time": 79.74318181818181,
                "pitch": 73,
                "velocity": 101,
                "duration": 0.13409090909090082,
                "tempo": 120.0
            },
            {
                "start_time": 79.74318181818181,
                "end_time": 79.85909090909091,
                "pitch": 59,
                "velocity": 101,
                "duration": 0.11590909090909918,
                "tempo": 120.0
            },
            {
                "start_time": 79.85909090909091,
                "end_time": 79.97954545454544,
                "pitch": 59,
                "velocity": 101,
                "duration": 0.12045454545453538,
                "tempo": 120.0
            },
            {
                "start_time": 79.97954545454544,
                "end_time": 80.09545454545454,
                "pitch": 73,
                "velocity": 101,
                "duration": 0.11590909090909918,
                "tempo": 120.0
            },
            {
                "start_time": 80.09545454545454,
                "end_time": 80.21363636363635,
                "pitch": 59,
                "velocity": 101,
                "duration": 0.11818181818181017,
                "tempo": 120.0
            },
            {
                "start_time": 80.21363636363635,
                "end_time": 80.34318181818182,
                "pitch": 59,
                "velocity": 101,
                "duration": 0.12954545454546462,
                "tempo": 120.0
            },
            {
                "start_time": 80.34545454545454,
                "end_time": 80.46136363636363,
                "pitch": 73,
                "velocity": 101,
                "duration": 0.11590909090908497,
                "tempo": 120.0
            },
            {
                "start_time": 80.46136363636363,
                "end_time": 80.575,
                "pitch": 59,
                "velocity": 101,
                "duration": 0.11363636363637397,
                "tempo": 120.0
            },
            {
                "start_time": 80.575,
                "end_time": 80.69090909090909,
                "pitch": 59,
                "velocity": 101,
                "duration": 0.11590909090908497,
                "tempo": 120.0
            },
            {
                "start_time": 80.69090909090909,
                "end_time": 80.80681818181817,
                "pitch": 73,
                "velocity": 101,
                "duration": 0.11590909090908497,
                "tempo": 120.0
            },
            {
                "start_time": 80.80681818181817,
                "end_time": 80.94318181818181,
                "pitch": 59,
                "velocity": 101,
                "duration": 0.13636363636364024,
                "tempo": 120.0
            },
            {
                "start_time": 80.94318181818181,
                "end_time": 81.05909090909091,
                "pitch": 73,
                "velocity": 101,
                "duration": 0.11590909090909918,
                "tempo": 120.0
            },
            {
                "start_time": 81.06136363636364,
                "end_time": 81.17954545454545,
                "pitch": 59,
                "velocity": 101,
                "duration": 0.11818181818181017,
                "tempo": 120.0
            },
            {
                "start_time": 81.17954545454545,
                "end_time": 81.29772727272727,
                "pitch": 73,
                "velocity": 101,
                "duration": 0.11818181818182438,
                "tempo": 120.0
            },
            {
                "start_time": 81.29772727272727,
                "end_time": 81.41818181818181,
                "pitch": 58,
                "velocity": 101,
                "duration": 0.12045454545453538,
                "tempo": 120.0
            },
            {
                "start_time": 81.41818181818181,
                "end_time": 81.55454545454545,
                "pitch": 58,
                "velocity": 101,
                "duration": 0.13636363636364024,
                "tempo": 120.0
            },
            {
                "start_time": 81.55454545454545,
                "end_time": 81.675,
                "pitch": 73,
                "velocity": 101,
                "duration": 0.12045454545454959,
                "tempo": 120.0
            },
            {
                "start_time": 81.675,
                "end_time": 81.78863636363636,
                "pitch": 58,
                "velocity": 101,
                "duration": 0.11363636363635976,
                "tempo": 120.0
            },
            {
                "start_time": 81.79090909090908,
                "end_time": 81.9090909090909,
                "pitch": 58,
                "velocity": 101,
                "duration": 0.11818181818182438,
                "tempo": 120.0
            },
            {
                "start_time": 81.9090909090909,
                "end_time": 82.02499999999999,
                "pitch": 73,
                "velocity": 101,
                "duration": 0.11590909090908497,
                "tempo": 120.0
            },
            {
                "start_time": 82.02727272727272,
                "end_time": 82.16136363636363,
                "pitch": 58,
                "velocity": 101,
                "duration": 0.13409090909091503,
                "tempo": 120.0
            },
            {
                "start_time": 82.16136363636363,
                "end_time": 82.27954545454546,
                "pitch": 58,
                "velocity": 101,
                "duration": 0.11818181818182438,
                "tempo": 120.0
            },
            {
                "start_time": 82.27954545454546,
                "end_time": 82.40227272727272,
                "pitch": 73,
                "velocity": 101,
                "duration": 0.12272727272726058,
                "tempo": 120.0
            },
            {
                "start_time": 82.40227272727272,
                "end_time": 82.52045454545454,
                "pitch": 58,
                "velocity": 101,
                "duration": 0.11818181818182438,
                "tempo": 120.0
            },
            {
                "start_time": 82.52045454545454,
                "end_time": 82.64090909090909,
                "pitch": 58,
                "velocity": 101,
                "duration": 0.12045454545454959,
                "tempo": 120.0
            },
            {
                "start_time": 82.64090909090909,
                "end_time": 82.76818181818182,
                "pitch": 73,
                "velocity": 101,
                "duration": 0.1272727272727252,
                "tempo": 120.0
            },
            {
                "start_time": 82.76818181818182,
                "end_time": 82.88181818181818,
                "pitch": 58,
                "velocity": 101,
                "duration": 0.11363636363635976,
                "tempo": 120.0
            },
            {
                "start_time": 82.88181818181818,
                "end_time": 82.99318181818181,
                "pitch": 73,
                "velocity": 101,
                "duration": 0.11136363636363455,
                "tempo": 120.0
            },
            {
                "start_time": 82.99318181818181,
                "end_time": 83.10681818181818,
                "pitch": 58,
                "velocity": 101,
                "duration": 0.11363636363637397,
                "tempo": 120.0
            },
            {
                "start_time": 83.10681818181818,
                "end_time": 83.225,
                "pitch": 73,
                "velocity": 101,
                "duration": 0.11818181818181017,
                "tempo": 120.0
            },
            {
                "start_time": 83.225,
                "end_time": 83.36136363636363,
                "pitch": 59,
                "velocity": 101,
                "duration": 0.13636363636364024,
                "tempo": 120.0
            },
            {
                "start_time": 83.36136363636363,
                "end_time": 83.48181818181818,
                "pitch": 59,
                "velocity": 101,
                "duration": 0.12045454545454959,
                "tempo": 120.0
            },
            {
                "start_time": 83.48181818181818,
                "end_time": 83.60227272727272,
                "pitch": 73,
                "velocity": 101,
                "duration": 0.12045454545453538,
                "tempo": 120.0
            },
            {
                "start_time": 83.60227272727272,
                "end_time": 83.7159090909091,
                "pitch": 59,
                "velocity": 101,
                "duration": 0.11363636363637397,
                "tempo": 120.0
            },
            {
                "start_time": 83.7159090909091,
                "end_time": 83.83636363636363,
                "pitch": 59,
                "velocity": 101,
                "duration": 0.12045454545453538,
                "tempo": 120.0
            },
            {
                "start_time": 83.83636363636363,
                "end_time": 83.97045454545454,
                "pitch": 73,
                "velocity": 101,
                "duration": 0.13409090909091503,
                "tempo": 120.0
            },
            {
                "start_time": 83.97045454545454,
                "end_time": 84.08863636363635,
                "pitch": 59,
                "velocity": 101,
                "duration": 0.11818181818181017,
                "tempo": 120.0
            },
            {
                "start_time": 84.08863636363635,
                "end_time": 84.20681818181818,
                "pitch": 59,
                "velocity": 101,
                "duration": 0.11818181818182438,
                "tempo": 120.0
            },
            {
                "start_time": 84.20681818181818,
                "end_time": 84.32954545454545,
                "pitch": 73,
                "velocity": 101,
                "duration": 0.1227272727272748,
                "tempo": 120.0
            },
            {
                "start_time": 84.32954545454545,
                "end_time": 84.44772727272726,
                "pitch": 59,
                "velocity": 101,
                "duration": 0.11818181818181017,
                "tempo": 120.0
            },
            {
                "start_time": 84.44772727272726,
                "end_time": 84.5840909090909,
                "pitch": 59,
                "velocity": 101,
                "duration": 0.13636363636364024,
                "tempo": 120.0
            },
            {
                "start_time": 84.5840909090909,
                "end_time": 84.70227272727273,
                "pitch": 73,
                "velocity": 101,
                "duration": 0.11818181818182438,
                "tempo": 120.0
            },
            {
                "start_time": 84.70227272727273,
                "end_time": 84.82045454545454,
                "pitch": 59,
                "velocity": 101,
                "duration": 0.11818181818181017,
                "tempo": 120.0
            },
            {
                "start_time": 84.82045454545454,
                "end_time": 84.93863636363636,
                "pitch": 73,
                "velocity": 101,
                "duration": 0.11818181818182438,
                "tempo": 120.0
            },
            {
                "start_time": 84.93863636363636,
                "end_time": 85.05454545454545,
                "pitch": 59,
                "velocity": 101,
                "duration": 0.11590909090908497,
                "tempo": 120.0
            }
        ],
        "Vibraphone": [
            {
                "start_time": 0.011363636363636364,
                "end_time": 0.12272727272727273,
                "pitch": 67,
                "velocity": 80,
                "duration": 0.11136363636363636,
                "tempo": 120.0
            },
            {
                "start_time": 0.125,
                "end_time": 0.2409090909090909,
                "pitch": 52,
                "velocity": 80,
                "duration": 0.1159090909090909,
                "tempo": 120.0
            },
            {
                "start_time": 0.24318181818181817,
                "end_time": 0.35909090909090907,
                "pitch": 52,
                "velocity": 80,
                "duration": 0.1159090909090909,
                "tempo": 120.0
            },
            {
                "start_time": 0.35909090909090907,
                "end_time": 0.47727272727272724,
                "pitch": 67,
                "velocity": 80,
                "duration": 0.11818181818181817,
                "tempo": 120.0
            },
            {
                "start_time": 0.47727272727272724,
                "end_time": 0.6045454545454545,
                "pitch": 52,
                "velocity": 80,
                "duration": 0.12727272727272726,
                "tempo": 120.0
            },
            {
                "start_time": 0.6045454545454545,
                "end_time": 0.7181818181818181,
                "pitch": 52,
                "velocity": 80,
                "duration": 0.11363636363636365,
                "tempo": 120.0
            },
            {
                "start_time": 0.7181818181818181,
                "end_time": 0.8295454545454545,
                "pitch": 67,
                "velocity": 80,
                "duration": 0.11136363636363633,
                "tempo": 120.0
            },
            {
                "start_time": 0.8295454545454545,
                "end_time": 0.9431818181818181,
                "pitch": 52,
                "velocity": 80,
                "duration": 0.11363636363636365,
                "tempo": 120.0
            },
            {
                "start_time": 0.9431818181818181,
                "end_time": 1.059090909090909,
                "pitch": 52,
                "velocity": 80,
                "duration": 0.11590909090909096,
                "tempo": 120.0
            },
            {
                "start_time": 1.059090909090909,
                "end_time": 1.1931818181818181,
                "pitch": 67,
                "velocity": 80,
                "duration": 0.13409090909090904,
                "tempo": 120.0
            },
            {
                "start_time": 1.1931818181818181,
                "end_time": 1.309090909090909,
                "pitch": 52,
                "velocity": 80,
                "duration": 0.11590909090909096,
                "tempo": 120.0
            },
            {
                "start_time": 1.3113636363636363,
                "end_time": 1.4272727272727272,
                "pitch": 52,
                "velocity": 80,
                "duration": 0.11590909090909096,
                "tempo": 120.0
            },
            {
                "start_time": 1.4272727272727272,
                "end_time": 1.5454545454545454,
                "pitch": 67,
                "velocity": 80,
                "duration": 0.11818181818181817,
                "tempo": 120.0
            },
            {
                "start_time": 1.5454545454545454,
                "end_time": 1.6659090909090908,
                "pitch": 52,
                "velocity": 80,
                "duration": 0.12045454545454537,
                "tempo": 120.0
            },
            {
                "start_time": 1.6659090909090908,
                "end_time": 1.8022727272727272,
                "pitch": 67,
                "velocity": 80,
                "duration": 0.13636363636363646,
                "tempo": 120.0
            },
            {
                "start_time": 1.8022727272727272,
                "end_time": 1.9227272727272726,
                "pitch": 52,
                "velocity": 80,
                "duration": 0.12045454545454537,
                "tempo": 120.0
            },
            {
                "start_time": 1.9227272727272726,
                "end_time": 2.0386363636363636,
                "pitch": 67,
                "velocity": 80,
                "duration": 0.11590909090909096,
                "tempo": 120.0
            },
            {
                "start_time": 2.0386363636363636,
                "end_time": 2.1568181818181817,
                "pitch": 52,
                "velocity": 80,
                "duration": 0.11818181818181817,
                "tempo": 120.0
            },
            {
                "start_time": 2.1568181818181817,
                "end_time": 2.2727272727272725,
                "pitch": 52,
                "velocity": 80,
                "duration": 0.11590909090909074,
                "tempo": 120.0
            },
            {
                "start_time": 2.2727272727272725,
                "end_time": 2.4068181818181817,
                "pitch": 67,
                "velocity": 80,
                "duration": 0.13409090909090926,
                "tempo": 120.0
            },
            {
                "start_time": 2.4068181818181817,
                "end_time": 2.5227272727272725,
                "pitch": 52,
                "velocity": 80,
                "duration": 0.11590909090909074,
                "tempo": 120.0
            },
            {
                "start_time": 2.5227272727272725,
                "end_time": 2.6409090909090907,
                "pitch": 52,
                "velocity": 80,
                "duration": 0.11818181818181817,
                "tempo": 120.0
            },
            {
                "start_time": 2.643181818181818,
                "end_time": 2.759090909090909,
                "pitch": 67,
                "velocity": 80,
                "duration": 0.11590909090909074,
                "tempo": 120.0
            },
            {
                "start_time": 2.759090909090909,
                "end_time": 2.8795454545454544,
                "pitch": 52,
                "velocity": 80,
                "duration": 0.12045454545454559,
                "tempo": 120.0
            },
            {
                "start_time": 2.8795454545454544,
                "end_time": 3.009090909090909,
                "pitch": 52,
                "velocity": 80,
                "duration": 0.1295454545454544,
                "tempo": 120.0
            },
            {
                "start_time": 3.009090909090909,
                "end_time": 3.125,
                "pitch": 67,
                "velocity": 80,
                "duration": 0.11590909090909118,
                "tempo": 120.0
            },
            {
                "start_time": 3.125,
                "end_time": 3.2386363636363633,
                "pitch": 52,
                "velocity": 80,
                "duration": 0.11363636363636331,
                "tempo": 120.0
            },
            {
                "start_time": 3.2386363636363633,
                "end_time": 3.3545454545454545,
                "pitch": 52,
                "velocity": 80,
                "duration": 0.11590909090909118,
                "tempo": 120.0
            },
            {
                "start_time": 3.3545454545454545,
                "end_time": 3.4704545454545452,
                "pitch": 67,
                "velocity": 80,
                "duration": 0.11590909090909074,
                "tempo": 120.0
            },
            {
                "start_time": 3.4704545454545452,
                "end_time": 3.6045454545454545,
                "pitch": 52,
                "velocity": 80,
                "duration": 0.13409090909090926,
                "tempo": 120.0
            },
            {
                "start_time": 3.6045454545454545,
                "end_time": 3.7204545454545452,
                "pitch": 67,
                "velocity": 80,
                "duration": 0.11590909090909074,
                "tempo": 120.0
            },
            {
                "start_time": 3.7204545454545452,
                "end_time": 3.8386363636363634,
                "pitch": 52,
                "velocity": 80,
                "duration": 0.11818181818181817,
                "tempo": 120.0
            },
            {
                "start_time": 3.8386363636363634,
                "end_time": 3.9568181818181816,
                "pitch": 66,
                "velocity": 80,
                "duration": 0.11818181818181817,
                "tempo": 120.0
            },
            {
                "start_time": 3.9568181818181816,
                "end_time": 4.077272727272727,
                "pitch": 47,
                "velocity": 80,
                "duration": 0.12045454545454559,
                "tempo": 120.0
            },
            {
                "start_time": 4.077272727272727,
                "end_time": 4.213636363636364,
                "pitch": 47,
                "velocity": 80,
                "duration": 0.1363636363636367,
                "tempo": 120.0
            },
            {
                "start_time": 4.213636363636364,
                "end_time": 4.334090909090909,
                "pitch": 66,
                "velocity": 80,
                "duration": 0.12045454545454515,
                "tempo": 120.0
            },
            {
                "start_time": 4.334090909090909,
                "end_time": 4.45,
                "pitch": 47,
                "velocity": 80,
                "duration": 0.11590909090909118,
                "tempo": 120.0
            },
            {
                "start_time": 4.45,
                "end_time": 4.568181818181818,
                "pitch": 47,
                "velocity": 80,
                "duration": 0.11818181818181817,
                "tempo": 120.0
            },
            {
                "start_time": 4.568181818181818,
                "end_time": 4.684090909090909,
                "pitch": 66,
                "velocity": 80,
                "duration": 0.1159090909090903,
                "tempo": 120.0
            },
            {
                "start_time": 4.684090909090909,
                "end_time": 4.818181818181818,
                "pitch": 47,
                "velocity": 80,
                "duration": 0.1340909090909097,
                "tempo": 120.0
            },
            {
                "start_time": 4.818181818181818,
                "end_time": 4.9363636363636365,
                "pitch": 47,
                "velocity": 80,
                "duration": 0.11818181818181817,
                "tempo": 120.0
            },
            {
                "start_time": 4.9363636363636365,
                "end_time": 5.056818181818182,
                "pitch": 66,
                "velocity": 80,
                "duration": 0.12045454545454515,
                "tempo": 120.0
            },
            {
                "start_time": 5.056818181818182,
                "end_time": 5.177272727272727,
                "pitch": 47,
                "velocity": 80,
                "duration": 0.12045454545454515,
                "tempo": 120.0
            },
            {
                "start_time": 5.177272727272727,
                "end_time": 5.295454545454545,
                "pitch": 47,
                "velocity": 80,
                "duration": 0.11818181818181817,
                "tempo": 120.0
            },
            {
                "start_time": 5.295454545454545,
                "end_time": 5.422727272727273,
                "pitch": 66,
                "velocity": 80,
                "duration": 0.12727272727272787,
                "tempo": 120.0
            },
            {
                "start_time": 5.422727272727273,
                "end_time": 5.538636363636363,
                "pitch": 47,
                "velocity": 80,
                "duration": 0.1159090909090903,
                "tempo": 120.0
            },
            {
                "start_time": 5.538636363636363,
                "end_time": 5.6499999999999995,
                "pitch": 66,
                "velocity": 80,
                "duration": 0.11136363636363633,
                "tempo": 120.0
            },
            {
                "start_time": 5.6499999999999995,
                "end_time": 5.761363636363636,
                "pitch": 47,
                "velocity": 80,
                "duration": 0.11136363636363633,
                "tempo": 120.0
            },
            {
                "start_time": 5.761363636363636,
                "end_time": 5.879545454545454,
                "pitch": 66,
                "velocity": 80,
                "duration": 0.11818181818181817,
                "tempo": 120.0
            },
            {
                "start_time": 5.879545454545454,
                "end_time": 6.018181818181818,
                "pitch": 47,
                "velocity": 80,
                "duration": 0.13863636363636367,
                "tempo": 120.0
            },
            {
                "start_time": 6.018181818181818,
                "end_time": 6.136363636363636,
                "pitch": 47,
                "velocity": 80,
                "duration": 0.11818181818181817,
                "tempo": 120.0
            },
            {
                "start_time": 6.136363636363636,
                "end_time": 6.256818181818182,
                "pitch": 66,
                "velocity": 80,
                "duration": 0.12045454545454604,
                "tempo": 120.0
            },
            {
                "start_time": 6.256818181818182,
                "end_time": 6.372727272727272,
                "pitch": 47,
                "velocity": 80,
                "duration": 0.1159090909090903,
                "tempo": 120.0
            },
            {
                "start_time": 6.372727272727272,
                "end_time": 6.493181818181818,
                "pitch": 47,
                "velocity": 80,
                "duration": 0.12045454545454604,
                "tempo": 120.0
            },
            {
                "start_time": 6.493181818181818,
                "end_time": 6.627272727272727,
                "pitch": 66,
                "velocity": 80,
                "duration": 0.13409090909090882,
                "tempo": 120.0
            },
            {
                "start_time": 6.627272727272727,
                "end_time": 6.745454545454545,
                "pitch": 47,
                "velocity": 80,
                "duration": 0.11818181818181817,
                "tempo": 120.0
            },
            {
                "start_time": 6.745454545454545,
                "end_time": 6.863636363636363,
                "pitch": 47,
                "velocity": 80,
                "duration": 0.11818181818181817,
                "tempo": 120.0
            },
            {
                "start_time": 6.863636363636363,
                "end_time": 6.9840909090909085,
                "pitch": 66,
                "velocity": 80,
                "duration": 0.12045454545454515,
                "tempo": 120.0
            },
            {
                "start_time": 6.9840909090909085,
                "end_time": 7.1045454545454545,
                "pitch": 47,
                "velocity": 80,
                "duration": 0.12045454545454604,
                "tempo": 120.0
            },
            {
                "start_time": 7.1045454545454545,
                "end_time": 7.24090909090909,
                "pitch": 47,
                "velocity": 80,
                "duration": 0.1363636363636358,
                "tempo": 120.0
            },
            {
                "start_time": 7.24090909090909,
                "end_time": 7.3568181818181815,
                "pitch": 66,
                "velocity": 80,
                "duration": 0.11590909090909118,
                "tempo": 120.0
            },
            {
                "start_time": 7.3568181818181815,
                "end_time": 7.475,
                "pitch": 47,
                "velocity": 80,
                "duration": 0.11818181818181817,
                "tempo": 120.0
            },
            {
                "start_time": 7.475,
                "end_time": 7.590909090909091,
                "pitch": 66,
                "velocity": 80,
                "duration": 0.11590909090909118,
                "tempo": 120.0
            },
            {
                "start_time": 7.590909090909091,
                "end_time": 7.709090909090909,
                "pitch": 47,
                "velocity": 80,
                "duration": 0.11818181818181817,
                "tempo": 120.0
            },
            {
                "start_time": 7.709090909090909,
                "end_time": 7.838636363636363,
                "pitch": 66,
                "velocity": 80,
                "duration": 0.12954545454545396,
                "tempo": 120.0
            },
            {
                "start_time": 7.838636363636363,
                "end_time": 7.954545454545454,
                "pitch": 47,
                "velocity": 80,
                "duration": 0.11590909090909118,
                "tempo": 120.0
            },
            {
                "start_time": 7.954545454545454,
                "end_time": 8.068181818181818,
                "pitch": 47,
                "velocity": 80,
                "duration": 0.1136363636363642,
                "tempo": 120.0
            },
            {
                "start_time": 8.068181818181818,
                "end_time": 8.184090909090909,
                "pitch": 66,
                "velocity": 80,
                "duration": 0.1159090909090903,
                "tempo": 120.0
            },
            {
                "start_time": 8.184090909090909,
                "end_time": 8.299999999999999,
                "pitch": 47,
                "velocity": 80,
                "duration": 0.1159090909090903,
                "tempo": 120.0
            },
            {
                "start_time": 8.299999999999999,
                "end_time": 8.434090909090909,
                "pitch": 47,
                "velocity": 80,
                "duration": 0.1340909090909097,
                "tempo": 120.0
            },
            {
                "start_time": 8.434090909090909,
                "end_time": 8.549999999999999,
                "pitch": 66,
                "velocity": 80,
                "duration": 0.1159090909090903,
                "tempo": 120.0
            },
            {
                "start_time": 8.549999999999999,
                "end_time": 8.668181818181818,
                "pitch": 47,
                "velocity": 80,
                "duration": 0.11818181818181905,
                "tempo": 120.0
            },
            {
                "start_time": 8.668181818181818,
                "end_time": 8.786363636363635,
                "pitch": 47,
                "velocity": 80,
                "duration": 0.11818181818181728,
                "tempo": 120.0
            },
            {
                "start_time": 8.786363636363635,
                "end_time": 8.906818181818181,
                "pitch": 66,
                "velocity": 80,
                "duration": 0.12045454545454604,
                "tempo": 120.0
            },
            {
                "start_time": 8.906818181818181,
                "end_time": 9.043181818181818,
                "pitch": 47,
                "velocity": 80,
                "duration": 0.1363636363636367,
                "tempo": 120.0
            },
            {
                "start_time": 9.043181818181818,
                "end_time": 9.163636363636364,
                "pitch": 47,
                "velocity": 80,
                "duration": 0.12045454545454604,
                "tempo": 120.0
            },
            {
                "start_time": 9.163636363636364,
                "end_time": 9.279545454545454,
                "pitch": 66,
                "velocity": 80,
                "duration": 0.1159090909090903,
                "tempo": 120.0
            },
            {
                "start_time": 9.279545454545454,
                "end_time": 9.4,
                "pitch": 47,
                "velocity": 80,
                "duration": 0.12045454545454604,
                "tempo": 120.0
            },
            {
                "start_time": 9.4,
                "end_time": 9.51590909090909,
                "pitch": 66,
                "velocity": 80,
                "duration": 0.1159090909090903,
                "tempo": 120.0
            },
            {
                "start_time": 9.51590909090909,
                "end_time": 9.652272727272727,
                "pitch": 47,
                "velocity": 80,
                "duration": 0.1363636363636367,
                "tempo": 120.0
            },
            {
                "start_time": 9.652272727272727,
                "end_time": 9.768181818181818,
                "pitch": 66,
                "velocity": 80,
                "duration": 0.1159090909090903,
                "tempo": 120.0
            },
            {
                "start_time": 9.768181818181818,
                "end_time": 9.884090909090908,
                "pitch": 47,
                "velocity": 80,
                "duration": 0.1159090909090903,
                "tempo": 120.0
            },
            {
                "start_time": 9.884090909090908,
                "end_time": 10.002272727272727,
                "pitch": 47,
                "velocity": 80,
                "duration": 0.11818181818181905,
                "tempo": 120.0
            },
            {
                "start_time": 10.002272727272727,
                "end_time": 10.118181818181817,
                "pitch": 66,
                "velocity": 80,
                "duration": 0.1159090909090903,
                "tempo": 120.0
            },
            {
                "start_time": 10.118181818181817,
                "end_time": 10.247727272727273,
                "pitch": 47,
                "velocity": 80,
                "duration": 0.12954545454545574,
                "tempo": 120.0
            },
            {
                "start_time": 10.247727272727273,
                "end_time": 10.36590909090909,
                "pitch": 47,
                "velocity": 80,
                "duration": 0.11818181818181728,
                "tempo": 120.0
            },
            {
                "start_time": 10.36590909090909,
                "end_time": 10.479545454545454,
                "pitch": 66,
                "velocity": 80,
                "duration": 0.11363636363636331,
                "tempo": 120.0
            },
            {
                "start_time": 10.479545454545454,
                "end_time": 10.595454545454546,
                "pitch": 47,
                "velocity": 80,
                "duration": 0.11590909090909207,
                "tempo": 120.0
            },
            {
                "start_time": 10.595454545454546,
                "end_time": 10.711363636363636,
                "pitch": 47,
                "velocity": 80,
                "duration": 0.1159090909090903,
                "tempo": 120.0
            },
            {
                "start_time": 10.711363636363636,
                "end_time": 10.847727272727273,
                "pitch": 66,
                "velocity": 80,
                "duration": 0.1363636363636367,
                "tempo": 120.0
            },
            {
                "start_time": 10.847727272727273,
                "end_time": 10.96590909090909,
                "pitch": 47,
                "velocity": 80,
                "duration": 0.11818181818181728,
                "tempo": 120.0
            },
            {
                "start_time": 10.96590909090909,
                "end_time": 11.081818181818182,
                "pitch": 47,
                "velocity": 80,
                "duration": 0.11590909090909207,
                "tempo": 120.0
            },
            {
                "start_time": 11.081818181818182,
                "end_time": 11.202272727272726,
                "pitch": 66,
                "velocity": 80,
                "duration": 0.12045454545454426,
                "tempo": 120.0
            },
            {
                "start_time": 11.202272727272726,
                "end_time": 11.322727272727272,
                "pitch": 47,
                "velocity": 80,
                "duration": 0.12045454545454604,
                "tempo": 120.0
            },
            {
                "start_time": 11.322727272727272,
                "end_time": 11.456818181818182,
                "pitch": 66,
                "velocity": 80,
                "duration": 0.1340909090909097,
                "tempo": 120.0
            },
            {
                "start_time": 11.459090909090909,
                "end_time": 11.579545454545453,
                "pitch": 47,
                "velocity": 80,
                "duration": 0.12045454545454426,
                "tempo": 120.0
            },
            {
                "start_time": 11.579545454545453,
                "end_time": 11.695454545454545,
                "pitch": 64,
                "velocity": 80,
                "duration": 0.11590909090909207,
                "tempo": 120.0
            },
            {
                "start_time": 11.695454545454545,
                "end_time": 11.811363636363636,
                "pitch": 47,
                "velocity": 80,
                "duration": 0.1159090909090903,
                "tempo": 120.0
            },
            {
                "start_time": 11.811363636363636,
                "end_time": 11.927272727272726,
                "pitch": 47,
                "velocity": 80,
                "duration": 0.1159090909090903,
                "tempo": 120.0
            },
            {
                "start_time": 11.929545454545455,
                "end_time": 12.063636363636363,
                "pitch": 64,
                "velocity": 80,
                "duration": 0.13409090909090793,
                "tempo": 120.0
            },
            {
                "start_time": 12.063636363636363,
                "end_time": 12.179545454545455,
                "pitch": 47,
                "velocity": 80,
                "duration": 0.11590909090909207,
                "tempo": 120.0
            },
            {
                "start_time": 12.181818181818182,
                "end_time": 12.302272727272726,
                "pitch": 47,
                "velocity": 80,
                "duration": 0.12045454545454426,
                "tempo": 120.0
            },
            {
                "start_time": 12.302272727272726,
                "end_time": 12.420454545454545,
                "pitch": 64,
                "velocity": 80,
                "duration": 0.11818181818181905,
                "tempo": 120.0
            },
            {
                "start_time": 12.420454545454545,
                "end_time": 12.540909090909091,
                "pitch": 47,
                "velocity": 80,
                "duration": 0.12045454545454604,
                "tempo": 120.0
            },
            {
                "start_time": 12.540909090909091,
                "end_time": 12.672727272727272,
                "pitch": 47,
                "velocity": 80,
                "duration": 0.13181818181818095,
                "tempo": 120.0
            },
            {
                "start_time": 12.672727272727272,
                "end_time": 12.788636363636362,
                "pitch": 64,
                "velocity": 80,
                "duration": 0.1159090909090903,
                "tempo": 120.0
            },
            {
                "start_time": 12.788636363636362,
                "end_time": 12.902272727272727,
                "pitch": 47,
                "velocity": 80,
                "duration": 0.11363636363636509,
                "tempo": 120.0
            },
            {
                "start_time": 12.902272727272727,
                "end_time": 13.018181818181818,
                "pitch": 47,
                "velocity": 80,
                "duration": 0.1159090909090903,
                "tempo": 120.0
            },
            {
                "start_time": 13.018181818181818,
                "end_time": 13.134090909090908,
                "pitch": 64,
                "velocity": 80,
                "duration": 0.1159090909090903,
                "tempo": 120.0
            },
            {
                "start_time": 13.134090909090908,
                "end_time": 13.270454545454545,
                "pitch": 47,
                "velocity": 80,
                "duration": 0.1363636363636367,
                "tempo": 120.0
            },
            {
                "start_time": 13.270454545454545,
                "end_time": 13.388636363636364,
                "pitch": 64,
                "velocity": 80,
                "duration": 0.11818181818181905,
                "tempo": 120.0
            },
            {
                "start_time": 13.388636363636364,
                "end_time": 13.506818181818181,
                "pitch": 47,
                "velocity": 80,
                "duration": 0.11818181818181728,
                "tempo": 120.0
            },
            {
                "start_time": 13.506818181818181,
                "end_time": 13.622727272727271,
                "pitch": 64,
                "velocity": 80,
                "duration": 0.1159090909090903,
                "tempo": 120.0
            },
            {
                "start_time": 13.622727272727271,
                "end_time": 13.74090909090909,
                "pitch": 47,
                "velocity": 80,
                "duration": 0.11818181818181905,
                "tempo": 120.0
            },
            {
                "start_time": 13.74090909090909,
                "end_time": 13.875,
                "pitch": 47,
                "velocity": 80,
                "duration": 0.1340909090909097,
                "tempo": 120.0
            },
            {
                "start_time": 13.875,
                "end_time": 13.993181818181817,
                "pitch": 64,
                "velocity": 80,
                "duration": 0.11818181818181728,
                "tempo": 120.0
            },
            {
                "start_time": 13.993181818181817,
                "end_time": 14.109090909090908,
                "pitch": 47,
                "velocity": 80,
                "duration": 0.1159090909090903,
                "tempo": 120.0
            },
            {
                "start_time": 14.109090909090908,
                "end_time": 14.227272727272727,
                "pitch": 47,
                "velocity": 80,
                "duration": 0.11818181818181905,
                "tempo": 120.0
            },
            {
                "start_time": 14.227272727272727,
                "end_time": 14.343181818181817,
                "pitch": 64,
                "velocity": 80,
                "duration": 0.1159090909090903,
                "tempo": 120.0
            },
            {
                "start_time": 14.343181818181817,
                "end_time": 14.477272727272727,
                "pitch": 47,
                "velocity": 80,
                "duration": 0.1340909090909097,
                "tempo": 120.0
            },
            {
                "start_time": 14.477272727272727,
                "end_time": 14.595454545454544,
                "pitch": 47,
                "velocity": 80,
                "duration": 0.11818181818181728,
                "tempo": 120.0
            },
            {
                "start_time": 14.595454545454544,
                "end_time": 14.71590909090909,
                "pitch": 64,
                "velocity": 80,
                "duration": 0.12045454545454604,
                "tempo": 120.0
            },
            {
                "start_time": 14.71590909090909,
                "end_time": 14.836363636363636,
                "pitch": 47,
                "velocity": 80,
                "duration": 0.12045454545454604,
                "tempo": 120.0
            },
            {
                "start_time": 14.836363636363636,
                "end_time": 14.954545454545453,
                "pitch": 47,
                "velocity": 80,
                "duration": 0.11818181818181728,
                "tempo": 120.0
            },
            {
                "start_time": 14.954545454545453,
                "end_time": 15.086363636363636,
                "pitch": 64,
                "velocity": 80,
                "duration": 0.13181818181818272,
                "tempo": 120.0
            },
            {
                "start_time": 15.088636363636363,
                "end_time": 15.202272727272726,
                "pitch": 47,
                "velocity": 80,
                "duration": 0.11363636363636331,
                "tempo": 120.0
            },
            {
                "start_time": 15.202272727272726,
                "end_time": 15.318181818181817,
                "pitch": 64,
                "velocity": 80,
                "duration": 0.1159090909090903,
                "tempo": 120.0
            },
            {
                "start_time": 15.318181818181817,
                "end_time": 15.434090909090909,
                "pitch": 47,
                "velocity": 80,
                "duration": 0.11590909090909207,
                "tempo": 120.0
            },
            {
                "start_time": 15.434090909090909,
                "end_time": 15.549999999999999,
                "pitch": 64,
                "velocity": 80,
                "duration": 0.1159090909090903,
                "tempo": 120.0
            },
            {
                "start_time": 15.549999999999999,
                "end_time": 15.688636363636363,
                "pitch": 48,
                "velocity": 80,
                "duration": 0.13863636363636367,
                "tempo": 120.0
            },
            {
                "start_time": 15.688636363636363,
                "end_time": 15.809090909090909,
                "pitch": 48,
                "velocity": 80,
                "duration": 0.12045454545454604,
                "tempo": 120.0
            },
            {
                "start_time": 15.809090909090909,
                "end_time": 15.927272727272726,
                "pitch": 64,
                "velocity": 80,
                "duration": 0.11818181818181728,
                "tempo": 120.0
            },
            {
                "start_time": 15.927272727272726,
                "end_time": 16.04090909090909,
                "pitch": 48,
                "velocity": 80,
                "duration": 0.11363636363636331,
                "tempo": 120.0
            },
            {
                "start_time": 16.043181818181818,
                "end_time": 16.15909090909091,
                "pitch": 48,
                "velocity": 80,
                "duration": 0.11590909090909207,
                "tempo": 120.0
            },
            {
                "start_time": 16.15909090909091,
                "end_time": 16.288636363636364,
                "pitch": 64,
                "velocity": 80,
                "duration": 0.12954545454545396,
                "tempo": 120.0
            },
            {
                "start_time": 16.288636363636364,
                "end_time": 16.404545454545453,
                "pitch": 48,
                "velocity": 80,
                "duration": 0.11590909090908852,
                "tempo": 120.0
            },
            {
                "start_time": 16.404545454545453,
                "end_time": 16.522727272727273,
                "pitch": 48,
                "velocity": 80,
                "duration": 0.11818181818182083,
                "tempo": 120.0
            },
            {
                "start_time": 16.522727272727273,
                "end_time": 16.643181818181816,
                "pitch": 64,
                "velocity": 80,
                "duration": 0.12045454545454248,
                "tempo": 120.0
            },
            {
                "start_time": 16.643181818181816,
                "end_time": 16.763636363636362,
                "pitch": 48,
                "velocity": 80,
                "duration": 0.12045454545454604,
                "tempo": 120.0
            },
            {
                "start_time": 16.763636363636362,
                "end_time": 16.9,
                "pitch": 48,
                "velocity": 80,
                "duration": 0.1363636363636367,
                "tempo": 120.0
            },
            {
                "start_time": 16.9,
                "end_time": 17.01590909090909,
                "pitch": 64,
                "velocity": 80,
                "duration": 0.11590909090909207,
                "tempo": 120.0
            },
            {
                "start_time": 17.01590909090909,
                "end_time": 17.134090909090908,
                "pitch": 48,
                "velocity": 80,
                "duration": 0.11818181818181728,
                "tempo": 120.0
            },
            {
                "start_time": 17.134090909090908,
                "end_time": 17.25,
                "pitch": 64,
                "velocity": 80,
                "duration": 0.11590909090909207,
                "tempo": 120.0
            },
            {
                "start_time": 17.25,
                "end_time": 17.368181818181817,
                "pitch": 48,
                "velocity": 80,
                "duration": 0.11818181818181728,
                "tempo": 120.0
            },
            {
                "start_time": 17.368181818181817,
                "end_time": 17.49772727272727,
                "pitch": 64,
                "velocity": 80,
                "duration": 0.12954545454545396,
                "tempo": 120.0
            },
            {
                "start_time": 17.49772727272727,
                "end_time": 17.613636363636363,
                "pitch": 47,
                "velocity": 80,
                "duration": 0.11590909090909207,
                "tempo": 120.0
            },
            {
                "start_time": 17.613636363636363,
                "end_time": 17.727272727272727,
                "pitch": 47,
                "velocity": 80,
                "duration": 0.11363636363636331,
                "tempo": 120.0
            },
            {
                "start_time": 17.729545454545455,
                "end_time": 17.84318181818182,
                "pitch": 64,
                "velocity": 80,
                "duration": 0.11363636363636331,
                "tempo": 120.0
            },
            {
                "start_time": 17.84318181818182,
                "end_time": 17.961363636363636,
                "pitch": 47,
                "velocity": 80,
                "duration": 0.11818181818181728,
                "tempo": 120.0
            },
            {
                "start_time": 17.961363636363636,
                "end_time": 18.095454545454544,
                "pitch": 47,
                "velocity": 80,
                "duration": 0.13409090909090793,
                "tempo": 120.0
            },
            {
                "start_time": 18.095454545454544,
                "end_time": 18.211363636363636,
                "pitch": 64,
                "velocity": 80,
                "duration": 0.11590909090909207,
                "tempo": 120.0
            },
            {
                "start_time": 18.21363636363636,
                "end_time": 18.331818181818182,
                "pitch": 47,
                "velocity": 80,
                "duration": 0.11818181818182083,
                "tempo": 120.0
            },
            {
                "start_time": 18.331818181818182,
                "end_time": 18.45,
                "pitch": 47,
                "velocity": 80,
                "duration": 0.11818181818181728,
                "tempo": 120.0
            },
            {
                "start_time": 18.45,
                "end_time": 18.570454545454545,
                "pitch": 64,
                "velocity": 80,
                "duration": 0.12045454545454604,
                "tempo": 120.0
            },
            {
                "start_time": 18.570454545454545,
                "end_time": 18.706818181818182,
                "pitch": 47,
                "velocity": 80,
                "duration": 0.1363636363636367,
                "tempo": 120.0
            },
            {
                "start_time": 18.709090909090907,
                "end_time": 18.825,
                "pitch": 47,
                "velocity": 80,
                "duration": 0.11590909090909207,
                "tempo": 120.0
            },
            {
                "start_time": 18.827272727272728,
                "end_time": 18.943181818181817,
                "pitch": 64,
                "velocity": 80,
                "duration": 0.11590909090908852,
                "tempo": 120.0
            },
            {
                "start_time": 18.945454545454545,
                "end_time": 19.063636363636363,
                "pitch": 47,
                "velocity": 80,
                "duration": 0.11818181818181728,
                "tempo": 120.0
            },
            {
                "start_time": 19.063636363636363,
                "end_time": 19.179545454545455,
                "pitch": 64,
                "velocity": 80,
                "duration": 0.11590909090909207,
                "tempo": 120.0
            },
            {
                "start_time": 19.179545454545455,
                "end_time": 19.31590909090909,
                "pitch": 47,
                "velocity": 80,
                "duration": 0.1363636363636367,
                "tempo": 120.0
            },
            {
                "start_time": 19.31590909090909,
                "end_time": 19.43181818181818,
                "pitch": 64,
                "velocity": 80,
                "duration": 0.11590909090908852,
                "tempo": 120.0
            },
            {
                "start_time": 19.43181818181818,
                "end_time": 19.55,
                "pitch": 52,
                "velocity": 80,
                "duration": 0.11818181818182083,
                "tempo": 120.0
            },
            {
                "start_time": 19.55,
                "end_time": 19.66590909090909,
                "pitch": 52,
                "velocity": 80,
                "duration": 0.11590909090908852,
                "tempo": 120.0
            },
            {
                "start_time": 19.668181818181818,
                "end_time": 19.786363636363635,
                "pitch": 64,
                "velocity": 80,
                "duration": 0.11818181818181728,
                "tempo": 120.0
            },
            {
                "start_time": 19.786363636363635,
                "end_time": 19.91590909090909,
                "pitch": 52,
                "velocity": 80,
                "duration": 0.12954545454545396,
                "tempo": 120.0
            },
            {
                "start_time": 19.91590909090909,
                "end_time": 20.03181818181818,
                "pitch": 52,
                "velocity": 80,
                "duration": 0.11590909090909207,
                "tempo": 120.0
            },
            {
                "start_time": 20.03181818181818,
                "end_time": 20.145454545454545,
                "pitch": 64,
                "velocity": 80,
                "duration": 0.11363636363636331,
                "tempo": 120.0
            },
            {
                "start_time": 20.145454545454545,
                "end_time": 20.263636363636362,
                "pitch": 52,
                "velocity": 80,
                "duration": 0.11818181818181728,
                "tempo": 120.0
            },
            {
                "start_time": 20.263636363636362,
                "end_time": 20.379545454545454,
                "pitch": 52,
                "velocity": 80,
                "duration": 0.11590909090909207,
                "tempo": 120.0
            },
            {
                "start_time": 20.38181818181818,
                "end_time": 20.518181818181816,
                "pitch": 64,
                "velocity": 80,
                "duration": 0.1363636363636367,
                "tempo": 120.0
            },
            {
                "start_time": 20.518181818181816,
                "end_time": 20.636363636363637,
                "pitch": 52,
                "velocity": 80,
                "duration": 0.11818181818182083,
                "tempo": 120.0
            },
            {
                "start_time": 20.638636363636362,
                "end_time": 20.75681818181818,
                "pitch": 52,
                "velocity": 80,
                "duration": 0.11818181818181728,
                "tempo": 120.0
            },
            {
                "start_time": 20.75681818181818,
                "end_time": 20.875,
                "pitch": 64,
                "velocity": 80,
                "duration": 0.11818181818182083,
                "tempo": 120.0
            },
            {
                "start_time": 20.875,
                "end_time": 20.993181818181817,
                "pitch": 52,
                "velocity": 80,
                "duration": 0.11818181818181728,
                "tempo": 120.0
            },
            {
                "start_time": 20.993181818181817,
                "end_time": 21.127272727272725,
                "pitch": 64,
                "velocity": 80,
                "duration": 0.13409090909090793,
                "tempo": 120.0
            },
            {
                "start_time": 21.127272727272725,
                "end_time": 21.245454545454546,
                "pitch": 52,
                "velocity": 80,
                "duration": 0.11818181818182083,
                "tempo": 120.0
            },
            {
                "start_time": 21.245454545454546,
                "end_time": 21.361363636363635,
                "pitch": 64,
                "velocity": 80,
                "duration": 0.11590909090908852,
                "tempo": 120.0
            },
            {
                "start_time": 21.361363636363635,
                "end_time": 21.479545454545452,
                "pitch": 52,
                "velocity": 80,
                "duration": 0.11818181818181728,
                "tempo": 120.0
            },
            {
                "start_time": 21.479545454545452,
                "end_time": 21.595454545454544,
                "pitch": 52,
                "velocity": 80,
                "duration": 0.11590909090909207,
                "tempo": 120.0
            },
            {
                "start_time": 21.595454545454544,
                "end_time": 21.729545454545452,
                "pitch": 64,
                "velocity": 80,
                "duration": 0.13409090909090793,
                "tempo": 120.0
            },
            {
                "start_time": 21.729545454545452,
                "end_time": 21.847727272727273,
                "pitch": 52,
                "velocity": 80,
                "duration": 0.11818181818182083,
                "tempo": 120.0
            },
            {
                "start_time": 21.847727272727273,
                "end_time": 21.96818181818182,
                "pitch": 52,
                "velocity": 80,
                "duration": 0.12045454545454604,
                "tempo": 120.0
            },
            {
                "start_time": 21.970454545454544,
                "end_time": 22.086363636363636,
                "pitch": 64,
                "velocity": 80,
                "duration": 0.11590909090909207,
                "tempo": 120.0
            },
            {
                "start_time": 22.08863636363636,
                "end_time": 22.209090909090907,
                "pitch": 52,
                "velocity": 80,
                "duration": 0.12045454545454604,
                "tempo": 120.0
            },
            {
                "start_time": 22.209090909090907,
                "end_time": 22.33863636363636,
                "pitch": 52,
                "velocity": 80,
                "duration": 0.12954545454545396,
                "tempo": 120.0
            },
            {
                "start_time": 22.33863636363636,
                "end_time": 22.454545454545453,
                "pitch": 64,
                "velocity": 80,
                "duration": 0.11590909090909207,
                "tempo": 120.0
            },
            {
                "start_time": 22.454545454545453,
                "end_time": 22.568181818181817,
                "pitch": 52,
                "velocity": 80,
                "duration": 0.11363636363636331,
                "tempo": 120.0
            },
            {
                "start_time": 22.568181818181817,
                "end_time": 22.68409090909091,
                "pitch": 52,
                "velocity": 80,
                "duration": 0.11590909090909207,
                "tempo": 120.0
            },
            {
                "start_time": 22.68409090909091,
                "end_time": 22.799999999999997,
                "pitch": 64,
                "velocity": 80,
                "duration": 0.11590909090908852,
                "tempo": 120.0
            },
            {
                "start_time": 22.799999999999997,
                "end_time": 22.936363636363634,
                "pitch": 52,
                "velocity": 80,
                "duration": 0.1363636363636367,
                "tempo": 120.0
            },
            {
                "start_time": 22.938636363636363,
                "end_time": 23.052272727272726,
                "pitch": 64,
                "velocity": 80,
                "duration": 0.11363636363636331,
                "tempo": 120.0
            },
            {
                "start_time": 23.052272727272726,
                "end_time": 23.172727272727272,
                "pitch": 52,
                "velocity": 80,
                "duration": 0.12045454545454604,
                "tempo": 120.0
            },
            {
                "start_time": 23.172727272727272,
                "end_time": 23.288636363636364,
                "pitch": 64,
                "velocity": 80,
                "duration": 0.11590909090909207,
                "tempo": 120.0
            },
            {
                "start_time": 23.288636363636364,
                "end_time": 23.40681818181818,
                "pitch": 47,
                "velocity": 80,
                "duration": 0.11818181818181728,
                "tempo": 120.0
            },
            {
                "start_time": 23.40681818181818,
                "end_time": 23.54090909090909,
                "pitch": 47,
                "velocity": 80,
                "duration": 0.13409090909090793,
                "tempo": 120.0
            },
            {
                "start_time": 23.54090909090909,
                "end_time": 23.659090909090907,
                "pitch": 64,
                "velocity": 80,
                "duration": 0.11818181818181728,
                "tempo": 120.0
            },
            {
                "start_time": 23.659090909090907,
                "end_time": 23.777272727272727,
                "pitch": 47,
                "velocity": 80,
                "duration": 0.11818181818182083,
                "tempo": 120.0
            },
            {
                "start_time": 23.777272727272727,
                "end_time": 23.9,
                "pitch": 47,
                "velocity": 80,
                "duration": 0.12272727272727124,
                "tempo": 120.0
            },
            {
                "start_time": 23.9,
                "end_time": 24.018181818181816,
                "pitch": 64,
                "velocity": 80,
                "duration": 0.11818181818181728,
                "tempo": 120.0
            },
            {
                "start_time": 24.018181818181816,
                "end_time": 24.154545454545453,
                "pitch": 47,
                "velocity": 80,
                "duration": 0.1363636363636367,
                "tempo": 120.0
            },
            {
                "start_time": 24.154545454545453,
                "end_time": 24.27272727272727,
                "pitch": 47,
                "velocity": 80,
                "duration": 0.11818181818181728,
                "tempo": 120.0
            },
            {
                "start_time": 24.27272727272727,
                "end_time": 24.39090909090909,
                "pitch": 64,
                "velocity": 80,
                "duration": 0.11818181818182083,
                "tempo": 120.0
            },
            {
                "start_time": 24.39090909090909,
                "end_time": 24.509090909090908,
                "pitch": 47,
                "velocity": 80,
                "duration": 0.11818181818181728,
                "tempo": 120.0
            },
            {
                "start_time": 24.509090909090908,
                "end_time": 24.627272727272725,
                "pitch": 47,
                "velocity": 80,
                "duration": 0.11818181818181728,
                "tempo": 120.0
            },
            {
                "start_time": 24.627272727272725,
                "end_time": 24.75681818181818,
                "pitch": 64,
                "velocity": 80,
                "duration": 0.12954545454545396,
                "tempo": 120.0
            },
            {
                "start_time": 24.759090909090908,
                "end_time": 24.875,
                "pitch": 47,
                "velocity": 80,
                "duration": 0.11590909090909207,
                "tempo": 120.0
            },
            {
                "start_time": 24.875,
                "end_time": 24.988636363636363,
                "pitch": 64,
                "velocity": 80,
                "duration": 0.11363636363636331,
                "tempo": 120.0
            },
            {
                "start_time": 24.988636363636363,
                "end_time": 25.104545454545452,
                "pitch": 47,
                "velocity": 80,
                "duration": 0.11590909090908852,
                "tempo": 120.0
            },
            {
                "start_time": 25.104545454545452,
                "end_time": 25.21818181818182,
                "pitch": 64,
                "velocity": 80,
                "duration": 0.11363636363636687,
                "tempo": 120.0
            },
            {
                "start_time": 25.21818181818182,
                "end_time": 25.352272727272727,
                "pitch": 47,
                "velocity": 80,
                "duration": 0.13409090909090793,
                "tempo": 120.0
            },
            {
                "start_time": 25.352272727272727,
                "end_time": 25.46818181818182,
                "pitch": 47,
                "velocity": 80,
                "duration": 0.11590909090909207,
                "tempo": 120.0
            },
            {
                "start_time": 25.470454545454544,
                "end_time": 25.58863636363636,
                "pitch": 64,
                "velocity": 80,
                "duration": 0.11818181818181728,
                "tempo": 120.0
            },
            {
                "start_time": 25.58863636363636,
                "end_time": 25.704545454545453,
                "pitch": 47,
                "velocity": 80,
                "duration": 0.11590909090909207,
                "tempo": 120.0
            },
            {
                "start_time": 25.704545454545453,
                "end_time": 25.825,
                "pitch": 47,
                "velocity": 80,
                "duration": 0.12045454545454604,
                "tempo": 120.0
            },
            {
                "start_time": 25.825,
                "end_time": 25.961363636363636,
                "pitch": 64,
                "velocity": 80,
                "duration": 0.1363636363636367,
                "tempo": 120.0
            },
            {
                "start_time": 25.961363636363636,
                "end_time": 26.084090909090907,
                "pitch": 47,
                "velocity": 80,
                "duration": 0.12272727272727124,
                "tempo": 120.0
            },
            {
                "start_time": 26.084090909090907,
                "end_time": 26.2,
                "pitch": 47,
                "velocity": 80,
                "duration": 0.11590909090909207,
                "tempo": 120.0
            },
            {
                "start_time": 26.2,
                "end_time": 26.318181818181817,
                "pitch": 64,
                "velocity": 80,
                "duration": 0.11818181818181728,
                "tempo": 120.0
            },
            {
                "start_time": 26.318181818181817,
                "end_time": 26.436363636363634,
                "pitch": 47,
                "velocity": 80,
                "duration": 0.11818181818181728,
                "tempo": 120.0
            },
            {
                "start_time": 26.436363636363634,
                "end_time": 26.570454545454545,
                "pitch": 47,
                "velocity": 80,
                "duration": 0.13409090909091148,
                "tempo": 120.0
            },
            {
                "start_time": 26.570454545454545,
                "end_time": 26.688636363636363,
                "pitch": 64,
                "velocity": 80,
                "duration": 0.11818181818181728,
                "tempo": 120.0
            },
            {
                "start_time": 26.688636363636363,
                "end_time": 26.80681818181818,
                "pitch": 47,
                "velocity": 80,
                "duration": 0.11818181818181728,
                "tempo": 120.0
            },
            {
                "start_time": 26.80681818181818,
                "end_time": 26.922727272727272,
                "pitch": 64,
                "velocity": 80,
                "duration": 0.11590909090909207,
                "tempo": 120.0
            },
            {
                "start_time": 26.924999999999997,
                "end_time": 27.043181818181818,
                "pitch": 47,
                "velocity": 80,
                "duration": 0.11818181818182083,
                "tempo": 120.0
            },
            {
                "start_time": 27.043181818181818,
                "end_time": 27.174999999999997,
                "pitch": 68,
                "velocity": 80,
                "duration": 0.13181818181817917,
                "tempo": 120.0
            },
            {
                "start_time": 27.174999999999997,
                "end_time": 27.293181818181818,
                "pitch": 53,
                "velocity": 80,
                "duration": 0.11818181818182083,
                "tempo": 120.0
            },
            {
                "start_time": 27.293181818181818,
                "end_time": 27.411363636363635,
                "pitch": 53,
                "velocity": 80,
                "duration": 0.11818181818181728,
                "tempo": 120.0
            },
            {
                "start_time": 27.411363636363635,
                "end_time": 27.529545454545453,
                "pitch": 68,
                "velocity": 80,
                "duration": 0.11818181818181728,
                "tempo": 120.0
            },
            {
                "start_time": 27.529545454545453,
                "end_time": 27.645454545454545,
                "pitch": 53,
                "velocity": 80,
                "duration": 0.11590909090909207,
                "tempo": 120.0
            },
            {
                "start_time": 27.645454545454545,
                "end_time": 27.779545454545453,
                "pitch": 53,
                "velocity": 80,
                "duration": 0.13409090909090793,
                "tempo": 120.0
            },
            {
                "start_time": 27.779545454545453,
                "end_time": 27.895454545454545,
                "pitch": 68,
                "velocity": 80,
                "duration": 0.11590909090909207,
                "tempo": 120.0
            },
            {
                "start_time": 27.895454545454545,
                "end_time": 28.013636363636362,
                "pitch": 53,
                "velocity": 80,
                "duration": 0.11818181818181728,
                "tempo": 120.0
            },
            {
                "start_time": 28.013636363636362,
                "end_time": 28.129545454545454,
                "pitch": 53,
                "velocity": 80,
                "duration": 0.11590909090909207,
                "tempo": 120.0
            },
            {
                "start_time": 28.129545454545454,
                "end_time": 28.24772727272727,
                "pitch": 68,
                "velocity": 80,
                "duration": 0.11818181818181728,
                "tempo": 120.0
            },
            {
                "start_time": 28.24772727272727,
                "end_time": 28.38181818181818,
                "pitch": 53,
                "velocity": 80,
                "duration": 0.13409090909090793,
                "tempo": 120.0
            },
            {
                "start_time": 28.384090909090908,
                "end_time": 28.5,
                "pitch": 53,
                "velocity": 80,
                "duration": 0.11590909090909207,
                "tempo": 120.0
            },
            {
                "start_time": 28.5,
                "end_time": 28.618181818181817,
                "pitch": 68,
                "velocity": 80,
                "duration": 0.11818181818181728,
                "tempo": 120.0
            },
            {
                "start_time": 28.618181818181817,
                "end_time": 28.736363636363635,
                "pitch": 53,
                "velocity": 80,
                "duration": 0.11818181818181728,
                "tempo": 120.0
            },
            {
                "start_time": 28.736363636363635,
                "end_time": 28.852272727272727,
                "pitch": 68,
                "velocity": 80,
                "duration": 0.11590909090909207,
                "tempo": 120.0
            },
            {
                "start_time": 28.852272727272727,
                "end_time": 28.988636363636363,
                "pitch": 53,
                "velocity": 80,
                "duration": 0.1363636363636367,
                "tempo": 120.0
            },
            {
                "start_time": 28.988636363636363,
                "end_time": 29.10681818181818,
                "pitch": 68,
                "velocity": 80,
                "duration": 0.11818181818181728,
                "tempo": 120.0
            },
            {
                "start_time": 29.10681818181818,
                "end_time": 29.224999999999998,
                "pitch": 53,
                "velocity": 80,
                "duration": 0.11818181818181728,
                "tempo": 120.0
            },
            {
                "start_time": 29.224999999999998,
                "end_time": 29.34090909090909,
                "pitch": 53,
                "velocity": 80,
                "duration": 0.11590909090909207,
                "tempo": 120.0
            },
            {
                "start_time": 29.34090909090909,
                "end_time": 29.459090909090907,
                "pitch": 68,
                "velocity": 80,
                "duration": 0.11818181818181728,
                "tempo": 120.0
            },
            {
                "start_time": 29.459090909090907,
                "end_time": 29.58863636363636,
                "pitch": 53,
                "velocity": 80,
                "duration": 0.12954545454545396,
                "tempo": 120.0
            },
            {
                "start_time": 29.58863636363636,
                "end_time": 29.706818181818182,
                "pitch": 53,
                "velocity": 80,
                "duration": 0.11818181818182083,
                "tempo": 120.0
            },
            {
                "start_time": 29.706818181818182,
                "end_time": 29.820454545454545,
                "pitch": 68,
                "velocity": 80,
                "duration": 0.11363636363636331,
                "tempo": 120.0
            },
            {
                "start_time": 29.820454545454545,
                "end_time": 29.936363636363634,
                "pitch": 53,
                "velocity": 80,
                "duration": 0.11590909090908852,
                "tempo": 120.0
            },
            {
                "start_time": 29.936363636363634,
                "end_time": 30.054545454545455,
                "pitch": 53,
                "velocity": 80,
                "duration": 0.11818181818182083,
                "tempo": 120.0
            },
            {
                "start_time": 30.054545454545455,
                "end_time": 30.193181818181817,
                "pitch": 68,
                "velocity": 80,
                "duration": 0.1386363636363619,
                "tempo": 120.0
            },
            {
                "start_time": 30.193181818181817,
                "end_time": 30.311363636363634,
                "pitch": 53,
                "velocity": 80,
                "duration": 0.11818181818181728,
                "tempo": 120.0
            },
            {
                "start_time": 30.311363636363634,
                "end_time": 30.43181818181818,
                "pitch": 53,
                "velocity": 80,
                "duration": 0.12045454545454604,
                "tempo": 120.0
            },
            {
                "start_time": 30.43181818181818,
                "end_time": 30.547727272727272,
                "pitch": 68,
                "velocity": 80,
                "duration": 0.11590909090909207,
                "tempo": 120.0
            },
            {
                "start_time": 30.547727272727272,
                "end_time": 30.668181818181818,
                "pitch": 53,
                "velocity": 80,
                "duration": 0.12045454545454604,
                "tempo": 120.0
            },
            {
                "start_time": 30.668181818181818,
                "end_time": 30.799999999999997,
                "pitch": 68,
                "velocity": 80,
                "duration": 0.13181818181817917,
                "tempo": 120.0
            },
            {
                "start_time": 30.799999999999997,
                "end_time": 30.920454545454543,
                "pitch": 53,
                "velocity": 80,
                "duration": 0.12045454545454604,
                "tempo": 120.0
            },
            {
                "start_time": 30.920454545454543,
                "end_time": 31.036363636363635,
                "pitch": 67,
                "velocity": 80,
                "duration": 0.11590909090909207,
                "tempo": 120.0
            },
            {
                "start_time": 31.036363636363635,
                "end_time": 31.154545454545453,
                "pitch": 48,
                "velocity": 80,
                "duration": 0.11818181818181728,
                "tempo": 120.0
            },
            {
                "start_time": 31.154545454545453,
                "end_time": 31.27272727272727,
                "pitch": 48,
                "velocity": 80,
                "duration": 0.11818181818181728,
                "tempo": 120.0
            },
            {
                "start_time": 31.27272727272727,
                "end_time": 31.40681818181818,
                "pitch": 67,
                "velocity": 80,
                "duration": 0.13409090909091148,
                "tempo": 120.0
            },
            {
                "start_time": 31.40681818181818,
                "end_time": 31.525,
                "pitch": 48,
                "velocity": 80,
                "duration": 0.11818181818181728,
                "tempo": 120.0
            },
            {
                "start_time": 31.525,
                "end_time": 31.645454545454545,
                "pitch": 48,
                "velocity": 80,
                "duration": 0.12045454545454604,
                "tempo": 120.0
            },
            {
                "start_time": 31.645454545454545,
                "end_time": 31.76590909090909,
                "pitch": 67,
                "velocity": 80,
                "duration": 0.12045454545454604,
                "tempo": 120.0
            },
            {
                "start_time": 31.76590909090909,
                "end_time": 31.886363636363633,
                "pitch": 48,
                "velocity": 80,
                "duration": 0.12045454545454248,
                "tempo": 120.0
            },
            {
                "start_time": 31.886363636363633,
                "end_time": 32.01590909090909,
                "pitch": 48,
                "velocity": 80,
                "duration": 0.12954545454545752,
                "tempo": 120.0
            },
            {
                "start_time": 32.01590909090909,
                "end_time": 32.13181818181818,
                "pitch": 67,
                "velocity": 80,
                "duration": 0.11590909090909207,
                "tempo": 120.0
            },
            {
                "start_time": 32.13181818181818,
                "end_time": 32.24772727272727,
                "pitch": 48,
                "velocity": 80,
                "duration": 0.11590909090908497,
                "tempo": 120.0
            },
            {
                "start_time": 32.24772727272727,
                "end_time": 32.36363636363636,
                "pitch": 48,
                "velocity": 80,
                "duration": 0.11590909090909207,
                "tempo": 120.0
            },
            {
                "start_time": 32.36363636363636,
                "end_time": 32.47954545454545,
                "pitch": 67,
                "velocity": 80,
                "duration": 0.11590909090909207,
                "tempo": 120.0
            },
            {
                "start_time": 32.47954545454545,
                "end_time": 32.61590909090909,
                "pitch": 48,
                "velocity": 80,
                "duration": 0.13636363636364024,
                "tempo": 120.0
            },
            {
                "start_time": 32.61590909090909,
                "end_time": 32.73181818181818,
                "pitch": 67,
                "velocity": 80,
                "duration": 0.11590909090908497,
                "tempo": 120.0
            },
            {
                "start_time": 32.73181818181818,
                "end_time": 32.85,
                "pitch": 48,
                "velocity": 80,
                "duration": 0.11818181818182438,
                "tempo": 120.0
            },
            {
                "start_time": 32.85,
                "end_time": 32.965909090909086,
                "pitch": 67,
                "velocity": 80,
                "duration": 0.11590909090908497,
                "tempo": 120.0
            },
            {
                "start_time": 32.965909090909086,
                "end_time": 33.08409090909091,
                "pitch": 48,
                "velocity": 80,
                "duration": 0.11818181818182438,
                "tempo": 120.0
            },
            {
                "start_time": 33.08409090909091,
                "end_time": 33.215909090909086,
                "pitch": 48,
                "velocity": 80,
                "duration": 0.13181818181817562,
                "tempo": 120.0
            },
            {
                "start_time": 33.215909090909086,
                "end_time": 33.33409090909091,
                "pitch": 67,
                "velocity": 80,
                "duration": 0.11818181818182438,
                "tempo": 120.0
            },
            {
                "start_time": 33.33409090909091,
                "end_time": 33.45227272727273,
                "pitch": 48,
                "velocity": 80,
                "duration": 0.11818181818181728,
                "tempo": 120.0
            },
            {
                "start_time": 33.45227272727273,
                "end_time": 33.57272727272727,
                "pitch": 48,
                "velocity": 80,
                "duration": 0.12045454545454248,
                "tempo": 120.0
            },
            {
                "start_time": 33.57272727272727,
                "end_time": 33.69318181818181,
                "pitch": 67,
                "velocity": 80,
                "duration": 0.12045454545454248,
                "tempo": 120.0
            },
            {
                "start_time": 33.69318181818181,
                "end_time": 33.82954545454545,
                "pitch": 48,
                "velocity": 80,
                "duration": 0.13636363636364024,
                "tempo": 120.0
            },
            {
                "start_time": 33.82954545454545,
                "end_time": 33.945454545454545,
                "pitch": 48,
                "velocity": 80,
                "duration": 0.11590909090909207,
                "tempo": 120.0
            },
            {
                "start_time": 33.945454545454545,
                "end_time": 34.06363636363636,
                "pitch": 67,
                "velocity": 80,
                "duration": 0.11818181818181728,
                "tempo": 120.0
            },
            {
                "start_time": 34.06363636363636,
                "end_time": 34.179545454545455,
                "pitch": 48,
                "velocity": 80,
                "duration": 0.11590909090909207,
                "tempo": 120.0
            },
            {
                "start_time": 34.179545454545455,
                "end_time": 34.29545454545455,
                "pitch": 48,
                "velocity": 80,
                "duration": 0.11590909090909207,
                "tempo": 120.0
            },
            {
                "start_time": 34.29772727272727,
                "end_time": 34.42727272727272,
                "pitch": 67,
                "velocity": 80,
                "duration": 0.1295454545454504,
                "tempo": 120.0
            },
            {
                "start_time": 34.42727272727272,
                "end_time": 34.543181818181814,
                "pitch": 48,
                "velocity": 80,
                "duration": 0.11590909090909207,
                "tempo": 120.0
            },
            {
                "start_time": 34.543181818181814,
                "end_time": 34.65681818181818,
                "pitch": 67,
                "velocity": 80,
                "duration": 0.11363636363636687,
                "tempo": 120.0
            },
            {
                "start_time": 34.65681818181818,
                "end_time": 34.775,
                "pitch": 48,
                "velocity": 80,
                "duration": 0.11818181818181728,
                "tempo": 120.0
            },
            {
                "start_time": 34.775,
                "end_time": 34.89090909090909,
                "pitch": 67,
                "velocity": 80,
                "duration": 0.11590909090909207,
                "tempo": 120.0
            },
            {
                "start_time": 34.89090909090909,
                "end_time": 35.025,
                "pitch": 48,
                "velocity": 80,
                "duration": 0.13409090909090793,
                "tempo": 120.0
            },
            {
                "start_time": 35.025,
                "end_time": 35.143181818181816,
                "pitch": 48,
                "velocity": 80,
                "duration": 0.11818181818181728,
                "tempo": 120.0
            },
            {
                "start_time": 35.143181818181816,
                "end_time": 35.26136363636363,
                "pitch": 67,
                "velocity": 80,
                "duration": 0.11818181818181728,
                "tempo": 120.0
            },
            {
                "start_time": 35.26136363636363,
                "end_time": 35.37954545454545,
                "pitch": 48,
                "velocity": 80,
                "duration": 0.11818181818181728,
                "tempo": 120.0
            },
            {
                "start_time": 35.37954545454545,
                "end_time": 35.5,
                "pitch": 48,
                "velocity": 80,
                "duration": 0.12045454545454959,
                "tempo": 120.0
            },
            {
                "start_time": 35.5,
                "end_time": 35.63636363636363,
                "pitch": 67,
                "velocity": 80,
                "duration": 0.13636363636363313,
                "tempo": 120.0
            },
            {
                "start_time": 35.63636363636363,
                "end_time": 35.75681818181818,
                "pitch": 48,
                "velocity": 80,
                "duration": 0.12045454545454959,
                "tempo": 120.0
            },
            {
                "start_time": 35.75681818181818,
                "end_time": 35.87272727272727,
                "pitch": 48,
                "velocity": 80,
                "duration": 0.11590909090908497,
                "tempo": 120.0
            },
            {
                "start_time": 35.87272727272727,
                "end_time": 35.99090909090909,
                "pitch": 67,
                "velocity": 80,
                "duration": 0.11818181818182438,
                "tempo": 120.0
            },
            {
                "start_time": 35.99090909090909,
                "end_time": 36.10681818181818,
                "pitch": 48,
                "velocity": 80,
                "duration": 0.11590909090908497,
                "tempo": 120.0
            },
            {
                "start_time": 36.10681818181818,
                "end_time": 36.24090909090909,
                "pitch": 48,
                "velocity": 80,
                "duration": 0.13409090909091503,
                "tempo": 120.0
            },
            {
                "start_time": 36.24090909090909,
                "end_time": 36.35909090909091,
                "pitch": 67,
                "velocity": 80,
                "duration": 0.11818181818181728,
                "tempo": 120.0
            },
            {
                "start_time": 36.35909090909091,
                "end_time": 36.47954545454545,
                "pitch": 48,
                "velocity": 80,
                "duration": 0.12045454545454248,
                "tempo": 120.0
            },
            {
                "start_time": 36.47954545454545,
                "end_time": 36.59772727272727,
                "pitch": 67,
                "velocity": 80,
                "duration": 0.11818181818181728,
                "tempo": 120.0
            },
            {
                "start_time": 36.59772727272727,
                "end_time": 36.720454545454544,
                "pitch": 48,
                "velocity": 80,
                "duration": 0.1227272727272748,
                "tempo": 120.0
            },
            {
                "start_time": 36.720454545454544,
                "end_time": 36.84772727272727,
                "pitch": 67,
                "velocity": 80,
                "duration": 0.1272727272727252,
                "tempo": 120.0
            },
            {
                "start_time": 36.84772727272727,
                "end_time": 36.95909090909091,
                "pitch": 48,
                "velocity": 80,
                "duration": 0.11136363636364166,
                "tempo": 120.0
            },
            {
                "start_time": 36.95909090909091,
                "end_time": 37.070454545454545,
                "pitch": 48,
                "velocity": 80,
                "duration": 0.11136363636363455,
                "tempo": 120.0
            },
            {
                "start_time": 37.07272727272727,
                "end_time": 37.184090909090905,
                "pitch": 67,
                "velocity": 80,
                "duration": 0.11136363636363455,
                "tempo": 120.0
            },
            {
                "start_time": 37.184090909090905,
                "end_time": 37.30227272727272,
                "pitch": 48,
                "velocity": 80,
                "duration": 0.11818181818181728,
                "tempo": 120.0
            },
            {
                "start_time": 37.30227272727272,
                "end_time": 37.44090909090909,
                "pitch": 48,
                "velocity": 80,
                "duration": 0.13863636363636545,
                "tempo": 120.0
            },
            {
                "start_time": 37.44090909090909,
                "end_time": 37.559090909090905,
                "pitch": 67,
                "velocity": 80,
                "duration": 0.11818181818181728,
                "tempo": 120.0
            },
            {
                "start_time": 37.559090909090905,
                "end_time": 37.68181818181818,
                "pitch": 48,
                "velocity": 80,
                "duration": 0.1227272727272748,
                "tempo": 120.0
            },
            {
                "start_time": 37.68181818181818,
                "end_time": 37.79772727272727,
                "pitch": 48,
                "velocity": 80,
                "duration": 0.11590909090909207,
                "tempo": 120.0
            },
            {
                "start_time": 37.79772727272727,
                "end_time": 37.91590909090909,
                "pitch": 67,
                "velocity": 80,
                "duration": 0.11818181818181728,
                "tempo": 120.0
            },
            {
                "start_time": 37.91590909090909,
                "end_time": 38.05,
                "pitch": 48,
                "velocity": 80,
                "duration": 0.13409090909090793,
                "tempo": 120.0
            },
            {
                "start_time": 38.05,
                "end_time": 38.168181818181814,
                "pitch": 48,
                "velocity": 80,
                "duration": 0.11818181818181728,
                "tempo": 120.0
            },
            {
                "start_time": 38.168181818181814,
                "end_time": 38.28636363636363,
                "pitch": 67,
                "velocity": 80,
                "duration": 0.11818181818181728,
                "tempo": 120.0
            },
            {
                "start_time": 38.28636363636363,
                "end_time": 38.40681818181818,
                "pitch": 48,
                "velocity": 80,
                "duration": 0.12045454545454959,
                "tempo": 120.0
            },
            {
                "start_time": 38.40681818181818,
                "end_time": 38.525,
                "pitch": 67,
                "velocity": 80,
                "duration": 0.11818181818181728,
                "tempo": 120.0
            },
            {
                "start_time": 38.525,
                "end_time": 38.663636363636364,
                "pitch": 48,
                "velocity": 80,
                "duration": 0.13863636363636545,
                "tempo": 120.0
            },
            {
                "start_time": 38.66590909090909,
                "end_time": 38.78181818181818,
                "pitch": 65,
                "velocity": 80,
                "duration": 0.11590909090909207,
                "tempo": 120.0
            },
            {
                "start_time": 38.78181818181818,
                "end_time": 38.9,
                "pitch": 48,
                "velocity": 80,
                "duration": 0.11818181818181728,
                "tempo": 120.0
            },
            {
                "start_time": 38.9,
                "end_time": 39.01590909090909,
                "pitch": 48,
                "velocity": 80,
                "duration": 0.11590909090909207,
                "tempo": 120.0
            },
            {
                "start_time": 39.01590909090909,
                "end_time": 39.13409090909091,
                "pitch": 65,
                "velocity": 80,
                "duration": 0.11818181818181728,
                "tempo": 120.0
            },
            {
                "start_time": 39.13409090909091,
                "end_time": 39.26363636363636,
                "pitch": 48,
                "velocity": 80,
                "duration": 0.1295454545454504,
                "tempo": 120.0
            },
            {
                "start_time": 39.26590909090909,
                "end_time": 39.38181818181818,
                "pitch": 48,
                "velocity": 80,
                "duration": 0.11590909090909207,
                "tempo": 120.0
            },
            {
                "start_time": 39.38181818181818,
                "end_time": 39.49545454545454,
                "pitch": 65,
                "velocity": 80,
                "duration": 0.11363636363635976,
                "tempo": 120.0
            },
            {
                "start_time": 39.49545454545454,
                "end_time": 39.611363636363635,
                "pitch": 48,
                "velocity": 80,
                "duration": 0.11590909090909207,
                "tempo": 120.0
            },
            {
                "start_time": 39.611363636363635,
                "end_time": 39.72727272727273,
                "pitch": 48,
                "velocity": 80,
                "duration": 0.11590909090909207,
                "tempo": 120.0
            },
            {
                "start_time": 39.72727272727273,
                "end_time": 39.861363636363635,
                "pitch": 65,
                "velocity": 80,
                "duration": 0.13409090909090793,
                "tempo": 120.0
            },
            {
                "start_time": 39.861363636363635,
                "end_time": 39.97727272727273,
                "pitch": 48,
                "velocity": 80,
                "duration": 0.11590909090909207,
                "tempo": 120.0
            },
            {
                "start_time": 39.97727272727273,
                "end_time": 40.095454545454544,
                "pitch": 48,
                "velocity": 80,
                "duration": 0.11818181818181728,
                "tempo": 120.0
            },
            {
                "start_time": 40.095454545454544,
                "end_time": 40.211363636363636,
                "pitch": 65,
                "velocity": 80,
                "duration": 0.11590909090909207,
                "tempo": 120.0
            },
            {
                "start_time": 40.211363636363636,
                "end_time": 40.33181818181818,
                "pitch": 48,
                "velocity": 80,
                "duration": 0.12045454545454248,
                "tempo": 120.0
            },
            {
                "start_time": 40.33181818181818,
                "end_time": 40.465909090909086,
                "pitch": 65,
                "velocity": 80,
                "duration": 0.13409090909090793,
                "tempo": 120.0
            },
            {
                "start_time": 40.465909090909086,
                "end_time": 40.584090909090904,
                "pitch": 48,
                "velocity": 80,
                "duration": 0.11818181818181728,
                "tempo": 120.0
            },
            {
                "start_time": 40.584090909090904,
                "end_time": 40.70227272727273,
                "pitch": 65,
                "velocity": 80,
                "duration": 0.11818181818182438,
                "tempo": 120.0
            },
            {
                "start_time": 40.70227272727273,
                "end_time": 40.82272727272727,
                "pitch": 48,
                "velocity": 80,
                "duration": 0.12045454545454248,
                "tempo": 120.0
            },
            {
                "start_time": 40.82272727272727,
                "end_time": 40.94090909090909,
                "pitch": 48,
                "velocity": 80,
                "duration": 0.11818181818181728,
                "tempo": 120.0
            },
            {
                "start_time": 40.94090909090909,
                "end_time": 41.07954545454545,
                "pitch": 65,
                "velocity": 80,
                "duration": 0.13863636363636545,
                "tempo": 120.0
            },
            {
                "start_time": 41.07954545454545,
                "end_time": 41.19318181818181,
                "pitch": 48,
                "velocity": 80,
                "duration": 0.11363636363635976,
                "tempo": 120.0
            },
            {
                "start_time": 41.19318181818181,
                "end_time": 41.31136363636364,
                "pitch": 48,
                "velocity": 80,
                "duration": 0.11818181818182438,
                "tempo": 120.0
            },
            {
                "start_time": 41.31136363636364,
                "end_time": 41.42727272727272,
                "pitch": 65,
                "velocity": 80,
                "duration": 0.11590909090908497,
                "tempo": 120.0
            },
            {
                "start_time": 41.429545454545455,
                "end_time": 41.54772727272727,
                "pitch": 48,
                "velocity": 80,
                "duration": 0.11818181818181728,
                "tempo": 120.0
            },
            {
                "start_time": 41.54772727272727,
                "end_time": 41.67727272727272,
                "pitch": 48,
                "velocity": 80,
                "duration": 0.1295454545454504,
                "tempo": 120.0
            },
            {
                "start_time": 41.67727272727272,
                "end_time": 41.793181818181814,
                "pitch": 65,
                "velocity": 80,
                "duration": 0.11590909090909207,
                "tempo": 120.0
            },
            {
                "start_time": 41.793181818181814,
                "end_time": 41.90681818181818,
                "pitch": 48,
                "velocity": 80,
                "duration": 0.11363636363636687,
                "tempo": 120.0
            },
            {
                "start_time": 41.90681818181818,
                "end_time": 42.02045454545454,
                "pitch": 48,
                "velocity": 80,
                "duration": 0.11363636363635976,
                "tempo": 120.0
            },
            {
                "start_time": 42.02272727272727,
                "end_time": 42.14090909090909,
                "pitch": 65,
                "velocity": 80,
                "duration": 0.11818181818181728,
                "tempo": 120.0
            },
            {
                "start_time": 42.14090909090909,
                "end_time": 42.277272727272724,
                "pitch": 48,
                "velocity": 80,
                "duration": 0.13636363636363313,
                "tempo": 120.0
            },
            {
                "start_time": 42.27954545454545,
                "end_time": 42.39772727272727,
                "pitch": 65,
                "velocity": 80,
                "duration": 0.11818181818182438,
                "tempo": 120.0
            },
            {
                "start_time": 42.39772727272727,
                "end_time": 42.518181818181816,
                "pitch": 48,
                "velocity": 80,
                "duration": 0.12045454545454248,
                "tempo": 120.0
            },
            {
                "start_time": 42.518181818181816,
                "end_time": 42.63409090909091,
                "pitch": 65,
                "velocity": 80,
                "duration": 0.11590909090909207,
                "tempo": 120.0
            },
            {
                "start_time": 42.63409090909091,
                "end_time": 42.75,
                "pitch": 49,
                "velocity": 80,
                "duration": 0.11590909090909207,
                "tempo": 120.0
            },
            {
                "start_time": 42.752272727272725,
                "end_time": 42.88409090909091,
                "pitch": 49,
                "velocity": 80,
                "duration": 0.13181818181818272,
                "tempo": 120.0
            },
            {
                "start_time": 42.88636363636363,
                "end_time": 43.002272727272725,
                "pitch": 65,
                "velocity": 80,
                "duration": 0.11590909090909207,
                "tempo": 120.0
            },
            {
                "start_time": 43.002272727272725,
                "end_time": 43.11818181818182,
                "pitch": 49,
                "velocity": 80,
                "duration": 0.11590909090909207,
                "tempo": 120.0
            },
            {
                "start_time": 43.11818181818182,
                "end_time": 43.23863636363636,
                "pitch": 49,
                "velocity": 80,
                "duration": 0.12045454545454248,
                "tempo": 120.0
            },
            {
                "start_time": 43.23863636363636,
                "end_time": 43.35454545454545,
                "pitch": 65,
                "velocity": 80,
                "duration": 0.11590909090909207,
                "tempo": 120.0
            },
            {
                "start_time": 43.35454545454545,
                "end_time": 43.49090909090909,
                "pitch": 49,
                "velocity": 80,
                "duration": 0.13636363636364024,
                "tempo": 120.0
            },
            {
                "start_time": 43.49090909090909,
                "end_time": 43.60909090909091,
                "pitch": 49,
                "velocity": 80,
                "duration": 0.11818181818181728,
                "tempo": 120.0
            },
            {
                "start_time": 43.60909090909091,
                "end_time": 43.72954545454545,
                "pitch": 65,
                "velocity": 80,
                "duration": 0.12045454545454248,
                "tempo": 120.0
            },
            {
                "start_time": 43.72954545454545,
                "end_time": 43.85,
                "pitch": 49,
                "velocity": 80,
                "duration": 0.12045454545454959,
                "tempo": 120.0
            },
            {
                "start_time": 43.85,
                "end_time": 43.96818181818182,
                "pitch": 49,
                "velocity": 80,
                "duration": 0.11818181818181728,
                "tempo": 120.0
            },
            {
                "start_time": 43.96818181818182,
                "end_time": 44.095454545454544,
                "pitch": 65,
                "velocity": 80,
                "duration": 0.1272727272727252,
                "tempo": 120.0
            },
            {
                "start_time": 44.095454545454544,
                "end_time": 44.209090909090904,
                "pitch": 49,
                "velocity": 80,
                "duration": 0.11363636363635976,
                "tempo": 120.0
            },
            {
                "start_time": 44.209090909090904,
                "end_time": 44.320454545454545,
                "pitch": 65,
                "velocity": 80,
                "duration": 0.11136363636364166,
                "tempo": 120.0
            },
            {
                "start_time": 44.320454545454545,
                "end_time": 44.434090909090905,
                "pitch": 49,
                "velocity": 80,
                "duration": 0.11363636363635976,
                "tempo": 120.0
            },
            {
                "start_time": 44.434090909090905,
                "end_time": 44.55,
                "pitch": 65,
                "velocity": 80,
                "duration": 0.11590909090909207,
                "tempo": 120.0
            },
            {
                "start_time": 44.55,
                "end_time": 44.68636363636364,
                "pitch": 48,
                "velocity": 80,
                "duration": 0.13636363636364024,
                "tempo": 120.0
            },
            {
                "start_time": 44.68636363636364,
                "end_time": 44.804545454545455,
                "pitch": 48,
                "velocity": 80,
                "duration": 0.11818181818181728,
                "tempo": 120.0
            },
            {
                "start_time": 44.804545454545455,
                "end_time": 44.92045454545455,
                "pitch": 65,
                "velocity": 80,
                "duration": 0.11590909090909207,
                "tempo": 120.0
            },
            {
                "start_time": 44.92045454545455,
                "end_time": 45.04090909090909,
                "pitch": 48,
                "velocity": 80,
                "duration": 0.12045454545454248,
                "tempo": 120.0
            },
            {
                "start_time": 45.04090909090909,
                "end_time": 45.16136363636363,
                "pitch": 48,
                "velocity": 80,
                "duration": 0.12045454545454248,
                "tempo": 120.0
            },
            {
                "start_time": 45.16136363636363,
                "end_time": 45.29772727272727,
                "pitch": 65,
                "velocity": 80,
                "duration": 0.13636363636364024,
                "tempo": 120.0
            },
            {
                "start_time": 45.29772727272727,
                "end_time": 45.418181818181814,
                "pitch": 48,
                "velocity": 80,
                "duration": 0.12045454545454248,
                "tempo": 120.0
            },
            {
                "start_time": 45.418181818181814,
                "end_time": 45.53636363636363,
                "pitch": 48,
                "velocity": 80,
                "duration": 0.11818181818181728,
                "tempo": 120.0
            },
            {
                "start_time": 45.53636363636363,
                "end_time": 45.65681818181818,
                "pitch": 65,
                "velocity": 80,
                "duration": 0.12045454545454959,
                "tempo": 120.0
            },
            {
                "start_time": 45.65681818181818,
                "end_time": 45.777272727272724,
                "pitch": 48,
                "velocity": 80,
                "duration": 0.12045454545454248,
                "tempo": 120.0
            },
            {
                "start_time": 45.777272727272724,
                "end_time": 45.91136363636363,
                "pitch": 48,
                "velocity": 80,
                "duration": 0.13409090909090793,
                "tempo": 120.0
            },
            {
                "start_time": 45.913636363636364,
                "end_time": 46.02954545454545,
                "pitch": 65,
                "velocity": 80,
                "duration": 0.11590909090908497,
                "tempo": 120.0
            },
            {
                "start_time": 46.03181818181818,
                "end_time": 46.15,
                "pitch": 48,
                "velocity": 80,
                "duration": 0.11818181818181728,
                "tempo": 120.0
            },
            {
                "start_time": 46.15,
                "end_time": 46.26590909090909,
                "pitch": 65,
                "velocity": 80,
                "duration": 0.11590909090909207,
                "tempo": 120.0
            },
            {
                "start_time": 46.26590909090909,
                "end_time": 46.38409090909091,
                "pitch": 48,
                "velocity": 80,
                "duration": 0.11818181818181728,
                "tempo": 120.0
            },
            {
                "start_time": 46.38409090909091,
                "end_time": 46.51363636363636,
                "pitch": 65,
                "velocity": 80,
                "duration": 0.1295454545454504,
                "tempo": 120.0
            },
            {
                "start_time": 46.51590909090909,
                "end_time": 46.62954545454545,
                "pitch": 53,
                "velocity": 80,
                "duration": 0.11363636363635976,
                "tempo": 120.0
            },
            {
                "start_time": 46.62954545454545,
                "end_time": 46.74545454545454,
                "pitch": 53,
                "velocity": 80,
                "duration": 0.11590909090909207,
                "tempo": 120.0
            },
            {
                "start_time": 46.74545454545454,
                "end_time": 46.861363636363635,
                "pitch": 65,
                "velocity": 80,
                "duration": 0.11590909090909207,
                "tempo": 120.0
            },
            {
                "start_time": 46.861363636363635,
                "end_time": 46.974999999999994,
                "pitch": 53,
                "velocity": 80,
                "duration": 0.11363636363635976,
                "tempo": 120.0
            },
            {
                "start_time": 46.974999999999994,
                "end_time": 47.111363636363635,
                "pitch": 53,
                "velocity": 80,
                "duration": 0.13636363636364024,
                "tempo": 120.0
            },
            {
                "start_time": 47.111363636363635,
                "end_time": 47.22727272727273,
                "pitch": 65,
                "velocity": 80,
                "duration": 0.11590909090909207,
                "tempo": 120.0
            },
            {
                "start_time": 47.22727272727273,
                "end_time": 47.345454545454544,
                "pitch": 53,
                "velocity": 80,
                "duration": 0.11818181818181728,
                "tempo": 120.0
            },
            {
                "start_time": 47.345454545454544,
                "end_time": 47.46363636363636,
                "pitch": 53,
                "velocity": 80,
                "duration": 0.11818181818181728,
                "tempo": 120.0
            },
            {
                "start_time": 47.46363636363636,
                "end_time": 47.584090909090904,
                "pitch": 65,
                "velocity": 80,
                "duration": 0.12045454545454248,
                "tempo": 120.0
            },
            {
                "start_time": 47.584090909090904,
                "end_time": 47.720454545454544,
                "pitch": 53,
                "velocity": 80,
                "duration": 0.13636363636364024,
                "tempo": 120.0
            },
            {
                "start_time": 47.720454545454544,
                "end_time": 47.83863636363636,
                "pitch": 53,
                "velocity": 80,
                "duration": 0.11818181818181728,
                "tempo": 120.0
            },
            {
                "start_time": 47.83863636363636,
                "end_time": 47.95681818181818,
                "pitch": 65,
                "velocity": 80,
                "duration": 0.11818181818181728,
                "tempo": 120.0
            },
            {
                "start_time": 47.95681818181818,
                "end_time": 48.07727272727273,
                "pitch": 53,
                "velocity": 80,
                "duration": 0.12045454545454959,
                "tempo": 120.0
            },
            {
                "start_time": 48.07727272727273,
                "end_time": 48.19318181818181,
                "pitch": 65,
                "velocity": 80,
                "duration": 0.11590909090908497,
                "tempo": 120.0
            },
            {
                "start_time": 48.19318181818181,
                "end_time": 48.32954545454545,
                "pitch": 53,
                "velocity": 80,
                "duration": 0.13636363636364024,
                "tempo": 120.0
            },
            {
                "start_time": 48.32954545454545,
                "end_time": 48.44318181818181,
                "pitch": 65,
                "velocity": 80,
                "duration": 0.11363636363635976,
                "tempo": 120.0
            },
            {
                "start_time": 48.44318181818181,
                "end_time": 48.56136363636364,
                "pitch": 53,
                "velocity": 80,
                "duration": 0.11818181818182438,
                "tempo": 120.0
            },
            {
                "start_time": 48.56136363636364,
                "end_time": 48.67727272727272,
                "pitch": 53,
                "velocity": 80,
                "duration": 0.11590909090908497,
                "tempo": 120.0
            },
            {
                "start_time": 48.67727272727272,
                "end_time": 48.79545454545454,
                "pitch": 65,
                "velocity": 80,
                "duration": 0.11818181818181728,
                "tempo": 120.0
            },
            {
                "start_time": 48.79545454545454,
                "end_time": 48.925,
                "pitch": 53,
                "velocity": 80,
                "duration": 0.12954545454545752,
                "tempo": 120.0
            },
            {
                "start_time": 48.925,
                "end_time": 49.043181818181814,
                "pitch": 53,
                "velocity": 80,
                "duration": 0.11818181818181728,
                "tempo": 120.0
            },
            {
                "start_time": 49.043181818181814,
                "end_time": 49.15454545454545,
                "pitch": 65,
                "velocity": 80,
                "duration": 0.11136363636363455,
                "tempo": 120.0
            },
            {
                "start_time": 49.15681818181818,
                "end_time": 49.27272727272727,
                "pitch": 53,
                "velocity": 80,
                "duration": 0.11590909090909207,
                "tempo": 120.0
            },
            {
                "start_time": 49.27272727272727,
                "end_time": 49.39090909090909,
                "pitch": 53,
                "velocity": 80,
                "duration": 0.11818181818181728,
                "tempo": 120.0
            },
            {
                "start_time": 49.39090909090909,
                "end_time": 49.527272727272724,
                "pitch": 65,
                "velocity": 80,
                "duration": 0.13636363636363313,
                "tempo": 120.0
            },
            {
                "start_time": 49.527272727272724,
                "end_time": 49.64772727272727,
                "pitch": 53,
                "velocity": 80,
                "duration": 0.12045454545454959,
                "tempo": 120.0
            },
            {
                "start_time": 49.64772727272727,
                "end_time": 49.76590909090909,
                "pitch": 53,
                "velocity": 80,
                "duration": 0.11818181818181728,
                "tempo": 120.0
            },
            {
                "start_time": 49.76590909090909,
                "end_time": 49.88181818181818,
                "pitch": 65,
                "velocity": 80,
                "duration": 0.11590909090909207,
                "tempo": 120.0
            },
            {
                "start_time": 49.88181818181818,
                "end_time": 50.002272727272725,
                "pitch": 53,
                "velocity": 80,
                "duration": 0.12045454545454248,
                "tempo": 120.0
            },
            {
                "start_time": 50.002272727272725,
                "end_time": 50.13181818181818,
                "pitch": 65,
                "velocity": 80,
                "duration": 0.12954545454545752,
                "tempo": 120.0
            },
            {
                "start_time": 50.13409090909091,
                "end_time": 50.252272727272725,
                "pitch": 53,
                "velocity": 80,
                "duration": 0.11818181818181728,
                "tempo": 120.0
            },
            {
                "start_time": 50.252272727272725,
                "end_time": 50.36818181818182,
                "pitch": 65,
                "velocity": 80,
                "duration": 0.11590909090909207,
                "tempo": 120.0
            },
            {
                "start_time": 50.36818181818182,
                "end_time": 50.486363636363635,
                "pitch": 48,
                "velocity": 80,
                "duration": 0.11818181818181728,
                "tempo": 120.0
            },
            {
                "start_time": 50.486363636363635,
                "end_time": 50.60227272727273,
                "pitch": 48,
                "velocity": 80,
                "duration": 0.11590909090909207,
                "tempo": 120.0
            },
            {
                "start_time": 50.60454545454545,
                "end_time": 50.73863636363636,
                "pitch": 65,
                "velocity": 80,
                "duration": 0.13409090909090793,
                "tempo": 120.0
            },
            {
                "start_time": 50.73863636363636,
                "end_time": 50.85681818181818,
                "pitch": 48,
                "velocity": 80,
                "duration": 0.11818181818181728,
                "tempo": 120.0
            },
            {
                "start_time": 50.85681818181818,
                "end_time": 50.97727272727273,
                "pitch": 48,
                "velocity": 80,
                "duration": 0.12045454545454959,
                "tempo": 120.0
            },
            {
                "start_time": 50.97727272727273,
                "end_time": 51.09772727272727,
                "pitch": 65,
                "velocity": 80,
                "duration": 0.12045454545454248,
                "tempo": 120.0
            },
            {
                "start_time": 51.09772727272727,
                "end_time": 51.215909090909086,
                "pitch": 48,
                "velocity": 80,
                "duration": 0.11818181818181728,
                "tempo": 120.0
            },
            {
                "start_time": 51.21818181818182,
                "end_time": 51.345454545454544,
                "pitch": 48,
                "velocity": 80,
                "duration": 0.1272727272727252,
                "tempo": 120.0
            },
            {
                "start_time": 51.345454545454544,
                "end_time": 51.45681818181818,
                "pitch": 65,
                "velocity": 80,
                "duration": 0.11136363636363455,
                "tempo": 120.0
            },
            {
                "start_time": 51.45681818181818,
                "end_time": 51.570454545454545,
                "pitch": 48,
                "velocity": 80,
                "duration": 0.11363636363636687,
                "tempo": 120.0
            },
            {
                "start_time": 51.570454545454545,
                "end_time": 51.68181818181818,
                "pitch": 48,
                "velocity": 80,
                "duration": 0.11136363636363455,
                "tempo": 120.0
            },
            {
                "start_time": 51.68181818181818,
                "end_time": 51.80227272727272,
                "pitch": 65,
                "velocity": 80,
                "duration": 0.12045454545454248,
                "tempo": 120.0
            },
            {
                "start_time": 51.80227272727272,
                "end_time": 51.93863636363636,
                "pitch": 48,
                "velocity": 80,
                "duration": 0.13636363636364024,
                "tempo": 120.0
            },
            {
                "start_time": 51.94090909090909,
                "end_time": 52.059090909090905,
                "pitch": 65,
                "velocity": 80,
                "duration": 0.11818181818181728,
                "tempo": 120.0
            },
            {
                "start_time": 52.059090909090905,
                "end_time": 52.179545454545455,
                "pitch": 48,
                "velocity": 80,
                "duration": 0.12045454545454959,
                "tempo": 120.0
            },
            {
                "start_time": 52.179545454545455,
                "end_time": 52.293181818181814,
                "pitch": 65,
                "velocity": 80,
                "duration": 0.11363636363635976,
                "tempo": 120.0
            },
            {
                "start_time": 52.293181818181814,
                "end_time": 52.41136363636363,
                "pitch": 48,
                "velocity": 80,
                "duration": 0.11818181818181728,
                "tempo": 120.0
            },
            {
                "start_time": 52.41136363636363,
                "end_time": 52.54545454545454,
                "pitch": 48,
                "velocity": 80,
                "duration": 0.13409090909090793,
                "tempo": 120.0
            },
            {
                "start_time": 52.54545454545454,
                "end_time": 52.663636363636364,
                "pitch": 65,
                "velocity": 80,
                "duration": 0.11818181818182438,
                "tempo": 120.0
            },
            {
                "start_time": 52.663636363636364,
                "end_time": 52.777272727272724,
                "pitch": 48,
                "velocity": 80,
                "duration": 0.11363636363635976,
                "tempo": 120.0
            },
            {
                "start_time": 52.777272727272724,
                "end_time": 52.89772727272727,
                "pitch": 48,
                "velocity": 80,
                "duration": 0.12045454545454959,
                "tempo": 120.0
            },
            {
                "start_time": 52.89772727272727,
                "end_time": 53.01363636363636,
                "pitch": 65,
                "velocity": 80,
                "duration": 0.11590909090908497,
                "tempo": 120.0
            },
            {
                "start_time": 53.01363636363636,
                "end_time": 53.15,
                "pitch": 48,
                "velocity": 80,
                "duration": 0.13636363636364024,
                "tempo": 120.0
            },
            {
                "start_time": 53.15,
                "end_time": 53.268181818181816,
                "pitch": 48,
                "velocity": 80,
                "duration": 0.11818181818181728,
                "tempo": 120.0
            },
            {
                "start_time": 53.268181818181816,
                "end_time": 53.38863636363636,
                "pitch": 65,
                "velocity": 80,
                "duration": 0.12045454545454248,
                "tempo": 120.0
            },
            {
                "start_time": 53.38863636363636,
                "end_time": 53.50909090909091,
                "pitch": 48,
                "velocity": 80,
                "duration": 0.12045454545454959,
                "tempo": 120.0
            },
            {
                "start_time": 53.50909090909091,
                "end_time": 53.62954545454545,
                "pitch": 48,
                "velocity": 80,
                "duration": 0.12045454545454248,
                "tempo": 120.0
            },
            {
                "start_time": 53.62954545454545,
                "end_time": 53.75909090909091,
                "pitch": 65,
                "velocity": 80,
                "duration": 0.12954545454545752,
                "tempo": 120.0
            },
            {
                "start_time": 53.75909090909091,
                "end_time": 53.875,
                "pitch": 48,
                "velocity": 80,
                "duration": 0.11590909090909207,
                "tempo": 120.0
            },
            {
                "start_time": 53.875,
                "end_time": 53.990909090909085,
                "pitch": 65,
                "velocity": 80,
                "duration": 0.11590909090908497,
                "tempo": 120.0
            }
        ]
    }
}