{
    "track_id": "09 Tension of Dark Side (Area 3)",
    "mood": "angry",
    "instruments": {
        "Harpsichord": [
            {
                "start_time": 0.022727272727272728,
                "end_time": 0.3045454545454545,
                "pitch": 43,
                "velocity": 51,
                "duration": 0.2818181818181818,
                "tempo": 120.0
            },
            {
                "start_time": 0.3045454545454545,
                "end_time": 0.40454545454545454,
                "pitch": 43,
                "velocity": 51,
                "duration": 0.10000000000000003,
                "tempo": 120.0
            },
            {
                "start_time": 0.40454545454545454,
                "end_time": 0.6386363636363636,
                "pitch": 43,
                "velocity": 51,
                "duration": 0.23409090909090902,
                "tempo": 120.0
            },
            {
                "start_time": 0.6386363636363636,
                "end_time": 0.7386363636363636,
                "pitch": 43,
                "velocity": 51,
                "duration": 0.10000000000000009,
                "tempo": 120.0
            },
            {
                "start_time": 0.7386363636363636,
                "end_time": 0.9704545454545455,
                "pitch": 43,
                "velocity": 51,
                "duration": 0.2318181818181818,
                "tempo": 120.0
            },
            {
                "start_time": 0.9704545454545455,
                "end_time": 1.1931818181818181,
                "pitch": 43,
                "velocity": 51,
                "duration": 0.22272727272727266,
                "tempo": 120.0
            },
            {
                "start_time": 1.1931818181818181,
                "end_time": 1.4136363636363636,
                "pitch": 43,
                "velocity": 51,
                "duration": 0.22045454545454546,
                "tempo": 120.0
            },
            {
                "start_time": 1.4136363636363636,
                "end_time": 1.6477272727272727,
                "pitch": 43,
                "velocity": 51,
                "duration": 0.23409090909090913,
                "tempo": 120.0
            },
            {
                "start_time": 1.6477272727272727,
                "end_time": 1.8659090909090907,
                "pitch": 43,
                "velocity": 51,
                "duration": 0.21818181818181803,
                "tempo": 120.0
            },
            {
                "start_time": 1.8659090909090907,
                "end_time": 2.0863636363636364,
                "pitch": 43,
                "velocity": 51,
                "duration": 0.22045454545454568,
                "tempo": 120.0
            },
            {
                "start_time": 2.0863636363636364,
                "end_time": 2.309090909090909,
                "pitch": 43,
                "velocity": 51,
                "duration": 0.22272727272727266,
                "tempo": 120.0
            },
            {
                "start_time": 2.309090909090909,
                "end_time": 2.4227272727272724,
                "pitch": 43,
                "velocity": 51,
                "duration": 0.11363636363636331,
                "tempo": 120.0
            },
            {
                "start_time": 2.4227272727272724,
                "end_time": 2.631818181818182,
                "pitch": 43,
                "velocity": 51,
                "duration": 0.20909090909090944,
                "tempo": 120.0
            },
            {
                "start_time": 2.631818181818182,
                "end_time": 2.7477272727272726,
                "pitch": 43,
                "velocity": 51,
                "duration": 0.11590909090909074,
                "tempo": 120.0
            },
            {
                "start_time": 2.7477272727272726,
                "end_time": 2.965909090909091,
                "pitch": 43,
                "velocity": 51,
                "duration": 0.21818181818181825,
                "tempo": 120.0
            },
            {
                "start_time": 2.965909090909091,
                "end_time": 3.1999999999999997,
                "pitch": 43,
                "velocity": 51,
                "duration": 0.2340909090909089,
                "tempo": 120.0
            },
            {
                "start_time": 3.1999999999999997,
                "end_time": 3.3,
                "pitch": 43,
                "velocity": 51,
                "duration": 0.10000000000000009,
                "tempo": 120.0
            },
            {
                "start_time": 3.3,
                "end_time": 3.5318181818181817,
                "pitch": 43,
                "velocity": 51,
                "duration": 0.23181818181818192,
                "tempo": 120.0
            },
            {
                "start_time": 3.5318181818181817,
                "end_time": 3.634090909090909,
                "pitch": 43,
                "velocity": 51,
                "duration": 0.10227272727272707,
                "tempo": 120.0
            },
            {
                "start_time": 3.634090909090909,
                "end_time": 3.8659090909090907,
                "pitch": 43,
                "velocity": 51,
                "duration": 0.23181818181818192,
                "tempo": 120.0
            },
            {
                "start_time": 3.8659090909090907,
                "end_time": 4.084090909090909,
                "pitch": 43,
                "velocity": 51,
                "duration": 0.21818181818181825,
                "tempo": 120.0
            },
            {
                "start_time": 4.084090909090909,
                "end_time": 4.3,
                "pitch": 43,
                "velocity": 51,
                "duration": 0.21590909090909083,
                "tempo": 120.0
            },
            {
                "start_time": 4.3,
                "end_time": 4.420454545454545,
                "pitch": 43,
                "velocity": 51,
                "duration": 0.12045454545454515,
                "tempo": 120.0
            },
            {
                "start_time": 4.420454545454545,
                "end_time": 4.643181818181818,
                "pitch": 43,
                "velocity": 51,
                "duration": 0.22272727272727266,
                "tempo": 120.0
            },
            {
                "start_time": 4.643181818181818,
                "end_time": 4.756818181818182,
                "pitch": 43,
                "velocity": 51,
                "duration": 0.1136363636363642,
                "tempo": 120.0
            },
            {
                "start_time": 4.756818181818182,
                "end_time": 4.965909090909091,
                "pitch": 43,
                "velocity": 51,
                "duration": 0.209090909090909,
                "tempo": 120.0
            },
            {
                "start_time": 4.965909090909091,
                "end_time": 5.1886363636363635,
                "pitch": 43,
                "velocity": 51,
                "duration": 0.22272727272727266,
                "tempo": 120.0
            },
            {
                "start_time": 5.1886363636363635,
                "end_time": 5.427272727272727,
                "pitch": 43,
                "velocity": 51,
                "duration": 0.2386363636363633,
                "tempo": 120.0
            },
            {
                "start_time": 5.427272727272727,
                "end_time": 5.643181818181818,
                "pitch": 43,
                "velocity": 51,
                "duration": 0.21590909090909083,
                "tempo": 120.0
            },
            {
                "start_time": 5.643181818181818,
                "end_time": 5.861363636363636,
                "pitch": 43,
                "velocity": 51,
                "duration": 0.2181818181818187,
                "tempo": 120.0
            },
            {
                "start_time": 5.861363636363636,
                "end_time": 6.095454545454545,
                "pitch": 43,
                "velocity": 51,
                "duration": 0.23409090909090846,
                "tempo": 120.0
            },
            {
                "start_time": 6.095454545454545,
                "end_time": 6.311363636363636,
                "pitch": 43,
                "velocity": 51,
                "duration": 0.21590909090909083,
                "tempo": 120.0
            },
            {
                "start_time": 6.311363636363636,
                "end_time": 6.431818181818182,
                "pitch": 43,
                "velocity": 51,
                "duration": 0.12045454545454604,
                "tempo": 120.0
            },
            {
                "start_time": 6.431818181818182,
                "end_time": 6.654545454545454,
                "pitch": 43,
                "velocity": 51,
                "duration": 0.22272727272727266,
                "tempo": 120.0
            },
            {
                "start_time": 6.654545454545454,
                "end_time": 6.754545454545454,
                "pitch": 43,
                "velocity": 51,
                "duration": 0.09999999999999964,
                "tempo": 120.0
            },
            {
                "start_time": 6.754545454545454,
                "end_time": 6.988636363636363,
                "pitch": 43,
                "velocity": 51,
                "duration": 0.23409090909090935,
                "tempo": 120.0
            },
            {
                "start_time": 6.988636363636363,
                "end_time": 7.211363636363636,
                "pitch": 43,
                "velocity": 51,
                "duration": 0.22272727272727266,
                "tempo": 120.0
            },
            {
                "start_time": 7.211363636363636,
                "end_time": 7.331818181818181,
                "pitch": 43,
                "velocity": 51,
                "duration": 0.12045454545454515,
                "tempo": 120.0
            },
            {
                "start_time": 7.331818181818181,
                "end_time": 7.54090909090909,
                "pitch": 43,
                "velocity": 51,
                "duration": 0.209090909090909,
                "tempo": 120.0
            },
            {
                "start_time": 7.54090909090909,
                "end_time": 7.654545454545454,
                "pitch": 43,
                "velocity": 51,
                "duration": 0.1136363636363642,
                "tempo": 120.0
            },
            {
                "start_time": 7.654545454545454,
                "end_time": 7.877272727272727,
                "pitch": 43,
                "velocity": 51,
                "duration": 0.22272727272727266,
                "tempo": 120.0
            },
            {
                "start_time": 7.877272727272727,
                "end_time": 8.097727272727273,
                "pitch": 43,
                "velocity": 51,
                "duration": 0.22045454545454568,
                "tempo": 120.0
            },
            {
                "start_time": 8.097727272727273,
                "end_time": 8.213636363636363,
                "pitch": 51,
                "velocity": 51,
                "duration": 0.1159090909090903,
                "tempo": 120.0
            },
            {
                "start_time": 8.213636363636363,
                "end_time": 8.331818181818182,
                "pitch": 51,
                "velocity": 51,
                "duration": 0.11818181818181905,
                "tempo": 120.0
            },
            {
                "start_time": 8.331818181818182,
                "end_time": 8.434090909090909,
                "pitch": 51,
                "velocity": 51,
                "duration": 0.10227272727272663,
                "tempo": 120.0
            },
            {
                "start_time": 8.434090909090909,
                "end_time": 8.656818181818181,
                "pitch": 51,
                "velocity": 51,
                "duration": 0.22272727272727266,
                "tempo": 120.0
            },
            {
                "start_time": 8.656818181818181,
                "end_time": 8.877272727272727,
                "pitch": 51,
                "velocity": 51,
                "duration": 0.22045454545454568,
                "tempo": 120.0
            },
            {
                "start_time": 8.877272727272727,
                "end_time": 8.970454545454546,
                "pitch": 51,
                "velocity": 51,
                "duration": 0.0931818181818187,
                "tempo": 120.0
            },
            {
                "start_time": 8.970454545454546,
                "end_time": 9.204545454545453,
                "pitch": 51,
                "velocity": 51,
                "duration": 0.23409090909090757,
                "tempo": 120.0
            },
            {
                "start_time": 9.204545454545453,
                "end_time": 9.420454545454545,
                "pitch": 51,
                "velocity": 51,
                "duration": 0.21590909090909172,
                "tempo": 120.0
            },
            {
                "start_time": 9.420454545454545,
                "end_time": 9.638636363636364,
                "pitch": 51,
                "velocity": 51,
                "duration": 0.2181818181818187,
                "tempo": 120.0
            },
            {
                "start_time": 8.097727272727273,
                "end_time": 9.756818181818181,
                "pitch": 43,
                "velocity": 51,
                "duration": 1.6590909090909083,
                "tempo": 120.0
            },
            {
                "start_time": 9.638636363636364,
                "end_time": 9.756818181818181,
                "pitch": 43,
                "velocity": 51,
                "duration": 0.11818181818181728,
                "tempo": 120.0
            },
            {
                "start_time": 9.756818181818181,
                "end_time": 9.877272727272727,
                "pitch": 43,
                "velocity": 51,
                "duration": 0.12045454545454604,
                "tempo": 120.0
            },
            {
                "start_time": 9.877272727272727,
                "end_time": 9.98181818181818,
                "pitch": 43,
                "velocity": 51,
                "duration": 0.10454545454545361,
                "tempo": 120.0
            },
            {
                "start_time": 9.98181818181818,
                "end_time": 10.213636363636363,
                "pitch": 43,
                "velocity": 51,
                "duration": 0.23181818181818237,
                "tempo": 120.0
            },
            {
                "start_time": 10.213636363636363,
                "end_time": 10.431818181818182,
                "pitch": 43,
                "velocity": 51,
                "duration": 0.2181818181818187,
                "tempo": 120.0
            },
            {
                "start_time": 10.431818181818182,
                "end_time": 10.547727272727272,
                "pitch": 43,
                "velocity": 51,
                "duration": 0.1159090909090903,
                "tempo": 120.0
            },
            {
                "start_time": 10.547727272727272,
                "end_time": 10.76590909090909,
                "pitch": 43,
                "velocity": 51,
                "duration": 0.2181818181818187,
                "tempo": 120.0
            },
            {
                "start_time": 10.76590909090909,
                "end_time": 10.98181818181818,
                "pitch": 43,
                "velocity": 51,
                "duration": 0.21590909090908994,
                "tempo": 120.0
            },
            {
                "start_time": 10.98181818181818,
                "end_time": 11.1,
                "pitch": 43,
                "velocity": 51,
                "duration": 0.11818181818181905,
                "tempo": 120.0
            },
            {
                "start_time": 11.1,
                "end_time": 11.2,
                "pitch": 43,
                "velocity": 51,
                "duration": 0.09999999999999964,
                "tempo": 120.0
            },
            {
                "start_time": 9.638636363636364,
                "end_time": 11.31590909090909,
                "pitch": 51,
                "velocity": 51,
                "duration": 1.677272727272726,
                "tempo": 120.0
            },
            {
                "start_time": 11.2,
                "end_time": 11.31590909090909,
                "pitch": 51,
                "velocity": 51,
                "duration": 0.1159090909090903,
                "tempo": 120.0
            },
            {
                "start_time": 11.31590909090909,
                "end_time": 11.431818181818182,
                "pitch": 51,
                "velocity": 51,
                "duration": 0.11590909090909207,
                "tempo": 120.0
            },
            {
                "start_time": 11.431818181818182,
                "end_time": 11.534090909090908,
                "pitch": 51,
                "velocity": 51,
                "duration": 0.10227272727272663,
                "tempo": 120.0
            },
            {
                "start_time": 11.534090909090908,
                "end_time": 11.770454545454545,
                "pitch": 51,
                "velocity": 51,
                "duration": 0.23636363636363633,
                "tempo": 120.0
            },
            {
                "start_time": 11.770454545454545,
                "end_time": 11.993181818181817,
                "pitch": 51,
                "velocity": 51,
                "duration": 0.22272727272727266,
                "tempo": 120.0
            },
            {
                "start_time": 11.993181818181817,
                "end_time": 12.10909090909091,
                "pitch": 51,
                "velocity": 51,
                "duration": 0.11590909090909207,
                "tempo": 120.0
            },
            {
                "start_time": 12.10909090909091,
                "end_time": 12.327272727272726,
                "pitch": 51,
                "velocity": 51,
                "duration": 0.21818181818181692,
                "tempo": 120.0
            },
            {
                "start_time": 12.327272727272726,
                "end_time": 12.543181818181818,
                "pitch": 51,
                "velocity": 51,
                "duration": 0.21590909090909172,
                "tempo": 120.0
            },
            {
                "start_time": 12.543181818181818,
                "end_time": 12.777272727272727,
                "pitch": 51,
                "velocity": 51,
                "duration": 0.23409090909090935,
                "tempo": 120.0
            },
            {
                "start_time": 11.2,
                "end_time": 12.877272727272727,
                "pitch": 43,
                "velocity": 51,
                "duration": 1.6772727272727277,
                "tempo": 120.0
            },
            {
                "start_time": 12.777272727272727,
                "end_time": 12.877272727272727,
                "pitch": 43,
                "velocity": 51,
                "duration": 0.09999999999999964,
                "tempo": 120.0
            },
            {
                "start_time": 12.877272727272727,
                "end_time": 12.995454545454544,
                "pitch": 43,
                "velocity": 51,
                "duration": 0.11818181818181728,
                "tempo": 120.0
            },
            {
                "start_time": 12.995454545454544,
                "end_time": 13.097727272727273,
                "pitch": 43,
                "velocity": 51,
                "duration": 0.1022727272727284,
                "tempo": 120.0
            },
            {
                "start_time": 13.097727272727273,
                "end_time": 13.338636363636363,
                "pitch": 43,
                "velocity": 51,
                "duration": 0.2409090909090903,
                "tempo": 120.0
            },
            {
                "start_time": 13.338636363636363,
                "end_time": 13.554545454545455,
                "pitch": 43,
                "velocity": 51,
                "duration": 0.21590909090909172,
                "tempo": 120.0
            },
            {
                "start_time": 13.554545454545455,
                "end_time": 13.670454545454545,
                "pitch": 43,
                "velocity": 51,
                "duration": 0.1159090909090903,
                "tempo": 120.0
            },
            {
                "start_time": 13.670454545454545,
                "end_time": 13.893181818181818,
                "pitch": 43,
                "velocity": 51,
                "duration": 0.22272727272727266,
                "tempo": 120.0
            },
            {
                "start_time": 13.893181818181818,
                "end_time": 14.111363636363636,
                "pitch": 43,
                "velocity": 51,
                "duration": 0.2181818181818187,
                "tempo": 120.0
            },
            {
                "start_time": 14.111363636363636,
                "end_time": 14.225,
                "pitch": 43,
                "velocity": 51,
                "duration": 0.11363636363636331,
                "tempo": 120.0
            },
            {
                "start_time": 14.225,
                "end_time": 14.338636363636363,
                "pitch": 43,
                "velocity": 51,
                "duration": 0.11363636363636331,
                "tempo": 120.0
            },
            {
                "start_time": 14.338636363636363,
                "end_time": 14.670454545454545,
                "pitch": 43,
                "velocity": 51,
                "duration": 0.331818181818182,
                "tempo": 120.0
            },
            {
                "start_time": 14.670454545454545,
                "end_time": 15.013636363636364,
                "pitch": 44,
                "velocity": 51,
                "duration": 0.3431818181818187,
                "tempo": 120.0
            },
            {
                "start_time": 15.013636363636364,
                "end_time": 15.33181818181818,
                "pitch": 44,
                "velocity": 51,
                "duration": 0.31818181818181657,
                "tempo": 120.0
            },
            {
                "start_time": 15.33181818181818,
                "end_time": 15.559090909090909,
                "pitch": 44,
                "velocity": 51,
                "duration": 0.2272727272727284,
                "tempo": 120.0
            },
            {
                "start_time": 15.559090909090909,
                "end_time": 15.770454545454545,
                "pitch": 44,
                "velocity": 51,
                "duration": 0.21136363636363598,
                "tempo": 120.0
            },
            {
                "start_time": 15.770454545454545,
                "end_time": 15.988636363636363,
                "pitch": 44,
                "velocity": 51,
                "duration": 0.2181818181818187,
                "tempo": 120.0
            },
            {
                "start_time": 15.988636363636363,
                "end_time": 16.32272727272727,
                "pitch": 44,
                "velocity": 51,
                "duration": 0.3340909090909072,
                "tempo": 120.0
            },
            {
                "start_time": 16.32272727272727,
                "end_time": 16.65681818181818,
                "pitch": 44,
                "velocity": 51,
                "duration": 0.33409090909091077,
                "tempo": 120.0
            },
            {
                "start_time": 16.65681818181818,
                "end_time": 17.0,
                "pitch": 44,
                "velocity": 51,
                "duration": 0.3431818181818187,
                "tempo": 120.0
            },
            {
                "start_time": 17.0,
                "end_time": 17.21590909090909,
                "pitch": 44,
                "velocity": 51,
                "duration": 0.21590909090908994,
                "tempo": 120.0
            },
            {
                "start_time": 17.21590909090909,
                "end_time": 17.45,
                "pitch": 44,
                "velocity": 51,
                "duration": 0.23409090909090935,
                "tempo": 120.0
            },
            {
                "start_time": 17.45,
                "end_time": 17.66590909090909,
                "pitch": 44,
                "velocity": 51,
                "duration": 0.21590909090908994,
                "tempo": 120.0
            },
            {
                "start_time": 17.66590909090909,
                "end_time": 18.0,
                "pitch": 46,
                "velocity": 51,
                "duration": 0.33409090909091077,
                "tempo": 120.0
            },
            {
                "start_time": 18.0,
                "end_time": 18.334090909090907,
                "pitch": 46,
                "velocity": 51,
                "duration": 0.3340909090909072,
                "tempo": 120.0
            },
            {
                "start_time": 18.334090909090907,
                "end_time": 18.677272727272726,
                "pitch": 46,
                "velocity": 51,
                "duration": 0.3431818181818187,
                "tempo": 120.0
            },
            {
                "start_time": 18.677272727272726,
                "end_time": 18.893181818181816,
                "pitch": 46,
                "velocity": 51,
                "duration": 0.21590909090908994,
                "tempo": 120.0
            },
            {
                "start_time": 18.893181818181816,
                "end_time": 19.127272727272725,
                "pitch": 46,
                "velocity": 51,
                "duration": 0.23409090909090935,
                "tempo": 120.0
            },
            {
                "start_time": 19.127272727272725,
                "end_time": 19.345454545454544,
                "pitch": 46,
                "velocity": 51,
                "duration": 0.2181818181818187,
                "tempo": 120.0
            },
            {
                "start_time": 19.345454545454544,
                "end_time": 19.679545454545455,
                "pitch": 46,
                "velocity": 51,
                "duration": 0.33409090909091077,
                "tempo": 120.0
            },
            {
                "start_time": 19.679545454545455,
                "end_time": 20.011363636363637,
                "pitch": 46,
                "velocity": 51,
                "duration": 0.331818181818182,
                "tempo": 120.0
            },
            {
                "start_time": 20.011363636363637,
                "end_time": 20.354545454545452,
                "pitch": 46,
                "velocity": 51,
                "duration": 0.34318181818181515,
                "tempo": 120.0
            },
            {
                "start_time": 20.354545454545452,
                "end_time": 20.57272727272727,
                "pitch": 46,
                "velocity": 51,
                "duration": 0.2181818181818187,
                "tempo": 120.0
            },
            {
                "start_time": 20.57272727272727,
                "end_time": 20.788636363636364,
                "pitch": 46,
                "velocity": 51,
                "duration": 0.2159090909090935,
                "tempo": 120.0
            },
            {
                "start_time": 20.788636363636364,
                "end_time": 21.022727272727273,
                "pitch": 46,
                "velocity": 51,
                "duration": 0.23409090909090935,
                "tempo": 120.0
            },
            {
                "start_time": 21.022727272727273,
                "end_time": 21.35681818181818,
                "pitch": 46,
                "velocity": 51,
                "duration": 0.3340909090909072,
                "tempo": 120.0
            },
            {
                "start_time": 21.35681818181818,
                "end_time": 21.672727272727272,
                "pitch": 48,
                "velocity": 51,
                "duration": 0.31590909090909136,
                "tempo": 120.0
            },
            {
                "start_time": 21.672727272727272,
                "end_time": 21.99772727272727,
                "pitch": 48,
                "velocity": 51,
                "duration": 0.3249999999999993,
                "tempo": 120.0
            },
            {
                "start_time": 21.99772727272727,
                "end_time": 22.113636363636363,
                "pitch": 48,
                "velocity": 51,
                "duration": 0.11590909090909207,
                "tempo": 120.0
            },
            {
                "start_time": 22.113636363636363,
                "end_time": 22.229545454545452,
                "pitch": 48,
                "velocity": 51,
                "duration": 0.11590909090908852,
                "tempo": 120.0
            },
            {
                "start_time": 22.229545454545452,
                "end_time": 22.331818181818182,
                "pitch": 46,
                "velocity": 51,
                "duration": 0.10227272727273018,
                "tempo": 120.0
            },
            {
                "start_time": 22.331818181818182,
                "end_time": 22.44772727272727,
                "pitch": 47,
                "velocity": 51,
                "duration": 0.11590909090908852,
                "tempo": 120.0
            },
            {
                "start_time": 22.44772727272727,
                "end_time": 22.663636363636364,
                "pitch": 48,
                "velocity": 51,
                "duration": 0.2159090909090935,
                "tempo": 120.0
            },
            {
                "start_time": 22.663636363636364,
                "end_time": 22.897727272727273,
                "pitch": 48,
                "velocity": 51,
                "duration": 0.23409090909090935,
                "tempo": 120.0
            },
            {
                "start_time": 22.897727272727273,
                "end_time": 22.99772727272727,
                "pitch": 48,
                "velocity": 51,
                "duration": 0.09999999999999787,
                "tempo": 120.0
            },
            {
                "start_time": 22.99772727272727,
                "end_time": 23.34090909090909,
                "pitch": 48,
                "velocity": 51,
                "duration": 0.3431818181818187,
                "tempo": 120.0
            },
            {
                "start_time": 23.34090909090909,
                "end_time": 23.459090909090907,
                "pitch": 50,
                "velocity": 51,
                "duration": 0.11818181818181728,
                "tempo": 120.0
            },
            {
                "start_time": 23.459090909090907,
                "end_time": 23.674999999999997,
                "pitch": 50,
                "velocity": 51,
                "duration": 0.21590909090908994,
                "tempo": 120.0
            },
            {
                "start_time": 23.674999999999997,
                "end_time": 23.795454545454543,
                "pitch": 50,
                "velocity": 51,
                "duration": 0.12045454545454604,
                "tempo": 120.0
            },
            {
                "start_time": 23.795454545454543,
                "end_time": 24.018181818181816,
                "pitch": 50,
                "velocity": 51,
                "duration": 0.22272727272727266,
                "tempo": 120.0
            },
            {
                "start_time": 24.018181818181816,
                "end_time": 24.23409090909091,
                "pitch": 50,
                "velocity": 51,
                "duration": 0.2159090909090935,
                "tempo": 120.0
            },
            {
                "start_time": 24.23409090909091,
                "end_time": 24.352272727272727,
                "pitch": 50,
                "velocity": 51,
                "duration": 0.11818181818181728,
                "tempo": 120.0
            },
            {
                "start_time": 24.352272727272727,
                "end_time": 24.568181818181817,
                "pitch": 50,
                "velocity": 51,
                "duration": 0.21590909090908994,
                "tempo": 120.0
            },
            {
                "start_time": 24.568181818181817,
                "end_time": 24.686363636363634,
                "pitch": 50,
                "velocity": 51,
                "duration": 0.11818181818181728,
                "tempo": 120.0
            },
            {
                "start_time": 24.686363636363634,
                "end_time": 24.902272727272727,
                "pitch": 50,
                "velocity": 51,
                "duration": 0.2159090909090935,
                "tempo": 120.0
            },
            {
                "start_time": 24.902272727272727,
                "end_time": 25.136363636363637,
                "pitch": 50,
                "velocity": 51,
                "duration": 0.23409090909090935,
                "tempo": 120.0
            },
            {
                "start_time": 25.136363636363637,
                "end_time": 25.236363636363635,
                "pitch": 50,
                "velocity": 51,
                "duration": 0.09999999999999787,
                "tempo": 120.0
            },
            {
                "start_time": 25.236363636363635,
                "end_time": 25.470454545454544,
                "pitch": 50,
                "velocity": 51,
                "duration": 0.23409090909090935,
                "tempo": 120.0
            },
            {
                "start_time": 25.470454545454544,
                "end_time": 25.570454545454545,
                "pitch": 50,
                "velocity": 51,
                "duration": 0.10000000000000142,
                "tempo": 120.0
            },
            {
                "start_time": 25.570454545454545,
                "end_time": 25.786363636363635,
                "pitch": 50,
                "velocity": 51,
                "duration": 0.21590909090908994,
                "tempo": 120.0
            },
            {
                "start_time": 25.786363636363635,
                "end_time": 26.020454545454545,
                "pitch": 50,
                "velocity": 51,
                "duration": 0.23409090909090935,
                "tempo": 120.0
            },
            {
                "start_time": 23.34090909090909,
                "end_time": 26.12272727272727,
                "pitch": 48,
                "velocity": 51,
                "duration": 2.7818181818181813,
                "tempo": 120.0
            },
            {
                "start_time": 26.020454545454545,
                "end_time": 26.12272727272727,
                "pitch": 48,
                "velocity": 51,
                "duration": 0.10227272727272663,
                "tempo": 120.0
            },
            {
                "start_time": 26.12272727272727,
                "end_time": 26.363636363636363,
                "pitch": 48,
                "velocity": 51,
                "duration": 0.24090909090909207,
                "tempo": 120.0
            },
            {
                "start_time": 26.363636363636363,
                "end_time": 26.46363636363636,
                "pitch": 48,
                "velocity": 51,
                "duration": 0.09999999999999787,
                "tempo": 120.0
            },
            {
                "start_time": 26.46363636363636,
                "end_time": 26.69772727272727,
                "pitch": 48,
                "velocity": 51,
                "duration": 0.23409090909090935,
                "tempo": 120.0
            },
            {
                "start_time": 26.69772727272727,
                "end_time": 26.91590909090909,
                "pitch": 48,
                "velocity": 51,
                "duration": 0.2181818181818187,
                "tempo": 120.0
            },
            {
                "start_time": 26.91590909090909,
                "end_time": 27.03181818181818,
                "pitch": 48,
                "velocity": 51,
                "duration": 0.11590909090909207,
                "tempo": 120.0
            },
            {
                "start_time": 27.03181818181818,
                "end_time": 27.254545454545454,
                "pitch": 48,
                "velocity": 51,
                "duration": 0.22272727272727266,
                "tempo": 120.0
            },
            {
                "start_time": 27.254545454545454,
                "end_time": 27.375,
                "pitch": 48,
                "velocity": 51,
                "duration": 0.12045454545454604,
                "tempo": 120.0
            },
            {
                "start_time": 27.375,
                "end_time": 27.613636363636363,
                "pitch": 48,
                "velocity": 51,
                "duration": 0.2386363636363633,
                "tempo": 120.0
            },
            {
                "start_time": 27.613636363636363,
                "end_time": 27.854545454545452,
                "pitch": 48,
                "velocity": 51,
                "duration": 0.24090909090908852,
                "tempo": 120.0
            },
            {
                "start_time": 26.020454545454545,
                "end_time": 27.993181818181817,
                "pitch": 50,
                "velocity": 51,
                "duration": 1.9727272727272727,
                "tempo": 120.0
            },
            {
                "start_time": 27.854545454545452,
                "end_time": 27.993181818181817,
                "pitch": 50,
                "velocity": 51,
                "duration": 0.13863636363636545,
                "tempo": 120.0
            },
            {
                "start_time": 27.993181818181817,
                "end_time": 28.25,
                "pitch": 50,
                "velocity": 51,
                "duration": 0.2568181818181827,
                "tempo": 120.0
            },
            {
                "start_time": 28.25,
                "end_time": 28.36590909090909,
                "pitch": 50,
                "velocity": 51,
                "duration": 0.11590909090908852,
                "tempo": 120.0
            },
            {
                "start_time": 28.36590909090909,
                "end_time": 28.584090909090907,
                "pitch": 50,
                "velocity": 51,
                "duration": 0.2181818181818187,
                "tempo": 120.0
            },
            {
                "start_time": 28.584090909090907,
                "end_time": 28.80681818181818,
                "pitch": 50,
                "velocity": 51,
                "duration": 0.22272727272727266,
                "tempo": 120.0
            },
            {
                "start_time": 28.80681818181818,
                "end_time": 28.927272727272726,
                "pitch": 50,
                "velocity": 51,
                "duration": 0.12045454545454604,
                "tempo": 120.0
            },
            {
                "start_time": 28.927272727272726,
                "end_time": 29.136363636363637,
                "pitch": 50,
                "velocity": 51,
                "duration": 0.20909090909091077,
                "tempo": 120.0
            },
            {
                "start_time": 29.136363636363637,
                "end_time": 29.25,
                "pitch": 50,
                "velocity": 51,
                "duration": 0.11363636363636331,
                "tempo": 120.0
            },
            {
                "start_time": 29.25,
                "end_time": 29.472727272727273,
                "pitch": 50,
                "velocity": 51,
                "duration": 0.22272727272727266,
                "tempo": 120.0
            },
            {
                "start_time": 29.472727272727273,
                "end_time": 29.709090909090907,
                "pitch": 50,
                "velocity": 51,
                "duration": 0.23636363636363455,
                "tempo": 120.0
            },
            {
                "start_time": 29.709090909090907,
                "end_time": 29.80909090909091,
                "pitch": 50,
                "velocity": 51,
                "duration": 0.10000000000000142,
                "tempo": 120.0
            },
            {
                "start_time": 29.80909090909091,
                "end_time": 30.043181818181818,
                "pitch": 50,
                "velocity": 51,
                "duration": 0.23409090909090935,
                "tempo": 120.0
            },
            {
                "start_time": 30.043181818181818,
                "end_time": 30.143181818181816,
                "pitch": 50,
                "velocity": 51,
                "duration": 0.09999999999999787,
                "tempo": 120.0
            },
            {
                "start_time": 30.143181818181816,
                "end_time": 30.361363636363635,
                "pitch": 50,
                "velocity": 51,
                "duration": 0.2181818181818187,
                "tempo": 120.0
            },
            {
                "start_time": 30.361363636363635,
                "end_time": 30.595454545454544,
                "pitch": 50,
                "velocity": 51,
                "duration": 0.23409090909090935,
                "tempo": 120.0
            },
            {
                "start_time": 30.595454545454544,
                "end_time": 30.693181818181817,
                "pitch": 48,
                "velocity": 51,
                "duration": 0.09772727272727266,
                "tempo": 120.0
            },
            {
                "start_time": 30.693181818181817,
                "end_time": 30.927272727272726,
                "pitch": 48,
                "velocity": 51,
                "duration": 0.23409090909090935,
                "tempo": 120.0
            },
            {
                "start_time": 30.927272727272726,
                "end_time": 31.029545454545453,
                "pitch": 48,
                "velocity": 51,
                "duration": 0.10227272727272663,
                "tempo": 120.0
            },
            {
                "start_time": 31.029545454545453,
                "end_time": 31.270454545454545,
                "pitch": 48,
                "velocity": 51,
                "duration": 0.24090909090909207,
                "tempo": 120.0
            },
            {
                "start_time": 31.270454545454545,
                "end_time": 31.488636363636363,
                "pitch": 48,
                "velocity": 51,
                "duration": 0.2181818181818187,
                "tempo": 120.0
            },
            {
                "start_time": 31.488636363636363,
                "end_time": 31.604545454545452,
                "pitch": 48,
                "velocity": 51,
                "duration": 0.11590909090908852,
                "tempo": 120.0
            },
            {
                "start_time": 31.604545454545452,
                "end_time": 31.827272727272724,
                "pitch": 48,
                "velocity": 51,
                "duration": 0.22272727272727266,
                "tempo": 120.0
            },
            {
                "start_time": 31.827272727272724,
                "end_time": 31.94772727272727,
                "pitch": 48,
                "velocity": 51,
                "duration": 0.12045454545454604,
                "tempo": 120.0
            },
            {
                "start_time": 31.94772727272727,
                "end_time": 32.16590909090909,
                "pitch": 48,
                "velocity": 51,
                "duration": 0.2181818181818187,
                "tempo": 120.0
            },
            {
                "start_time": 32.16590909090909,
                "end_time": 32.37954545454545,
                "pitch": 48,
                "velocity": 51,
                "duration": 0.21363636363636118,
                "tempo": 120.0
            },
            {
                "start_time": 32.37954545454545,
                "end_time": 32.49090909090909,
                "pitch": 48,
                "velocity": 51,
                "duration": 0.11136363636364166,
                "tempo": 120.0
            },
            {
                "start_time": 32.49090909090909,
                "end_time": 32.70227272727273,
                "pitch": 47,
                "velocity": 51,
                "duration": 0.21136363636363598,
                "tempo": 120.0
            },
            {
                "start_time": 32.70227272727273,
                "end_time": 32.81363636363636,
                "pitch": 47,
                "velocity": 51,
                "duration": 0.11136363636363455,
                "tempo": 120.0
            },
            {
                "start_time": 32.81363636363636,
                "end_time": 33.029545454545456,
                "pitch": 47,
                "velocity": 51,
                "duration": 0.2159090909090935,
                "tempo": 120.0
            },
            {
                "start_time": 33.029545454545456,
                "end_time": 33.24545454545454,
                "pitch": 47,
                "velocity": 51,
                "duration": 0.2159090909090864,
                "tempo": 120.0
            },
            {
                "start_time": 33.24545454545454,
                "end_time": 33.36590909090909,
                "pitch": 47,
                "velocity": 51,
                "duration": 0.12045454545454959,
                "tempo": 120.0
            },
            {
                "start_time": 33.36590909090909,
                "end_time": 33.58863636363636,
                "pitch": 47,
                "velocity": 51,
                "duration": 0.2227272727272691,
                "tempo": 120.0
            },
            {
                "start_time": 33.58863636363636,
                "end_time": 33.70454545454545,
                "pitch": 47,
                "velocity": 51,
                "duration": 0.11590909090909207,
                "tempo": 120.0
            },
            {
                "start_time": 33.70454545454545,
                "end_time": 33.92272727272727,
                "pitch": 47,
                "velocity": 51,
                "duration": 0.2181818181818187,
                "tempo": 120.0
            },
            {
                "start_time": 33.92272727272727,
                "end_time": 34.15681818181818,
                "pitch": 47,
                "velocity": 51,
                "duration": 0.23409090909090935,
                "tempo": 120.0
            },
            {
                "start_time": 34.15681818181818,
                "end_time": 34.25681818181818,
                "pitch": 47,
                "velocity": 51,
                "duration": 0.10000000000000142,
                "tempo": 120.0
            },
            {
                "start_time": 34.25681818181818,
                "end_time": 34.47272727272727,
                "pitch": 47,
                "velocity": 51,
                "duration": 0.2159090909090864,
                "tempo": 120.0
            },
            {
                "start_time": 34.47272727272727,
                "end_time": 34.58863636363636,
                "pitch": 47,
                "velocity": 51,
                "duration": 0.11590909090909207,
                "tempo": 120.0
            },
            {
                "start_time": 34.58863636363636,
                "end_time": 34.81363636363636,
                "pitch": 47,
                "velocity": 51,
                "duration": 0.22500000000000142,
                "tempo": 120.0
            },
            {
                "start_time": 34.81363636363636,
                "end_time": 35.04545454545455,
                "pitch": 47,
                "velocity": 51,
                "duration": 0.23181818181818414,
                "tempo": 120.0
            },
            {
                "start_time": 35.04545454545455,
                "end_time": 35.143181818181816,
                "pitch": 47,
                "velocity": 51,
                "duration": 0.09772727272726911,
                "tempo": 120.0
            },
            {
                "start_time": 35.143181818181816,
                "end_time": 35.375,
                "pitch": 47,
                "velocity": 51,
                "duration": 0.23181818181818414,
                "tempo": 120.0
            },
            {
                "start_time": 35.375,
                "end_time": 35.47954545454545,
                "pitch": 47,
                "velocity": 51,
                "duration": 0.10454545454545183,
                "tempo": 120.0
            },
            {
                "start_time": 35.47954545454545,
                "end_time": 35.715909090909086,
                "pitch": 47,
                "velocity": 51,
                "duration": 0.23636363636363455,
                "tempo": 120.0
            },
            {
                "start_time": 35.715909090909086,
                "end_time": 35.934090909090905,
                "pitch": 47,
                "velocity": 51,
                "duration": 0.2181818181818187,
                "tempo": 120.0
            }
        ]
    }
}