{
    "track_id": "09 Zeodalley",
    "mood": "angry",
    "instruments": {
        "Vibraphone": [
            {
                "start_time": 0.0,
                "end_time": 0.21818181818181817,
                "pitch": 69,
                "velocity": 127,
                "duration": 0.21818181818181817,
                "tempo": 120.0
            },
            {
                "start_time": 0.21818181818181817,
                "end_time": 0.3840909090909091,
                "pitch": 72,
                "velocity": 127,
                "duration": 0.16590909090909092,
                "tempo": 120.0
            },
            {
                "start_time": 0.3840909090909091,
                "end_time": 0.5477272727272727,
                "pitch": 76,
                "velocity": 127,
                "duration": 0.16363636363636364,
                "tempo": 120.0
            },
            {
                "start_time": 0.21818181818181817,
                "end_time": 0.7181818181818181,
                "pitch": 69,
                "velocity": 127,
                "duration": 0.5,
                "tempo": 120.0
            },
            {
                "start_time": 0.5477272727272727,
                "end_time": 0.7181818181818181,
                "pitch": 69,
                "velocity": 127,
                "duration": 0.17045454545454541,
                "tempo": 120.0
            },
            {
                "start_time": 0.7181818181818181,
                "end_time": 0.8886363636363636,
                "pitch": 74,
                "velocity": 127,
                "duration": 0.17045454545454541,
                "tempo": 120.0
            },
            {
                "start_time": 0.8886363636363636,
                "end_time": 1.0522727272727272,
                "pitch": 78,
                "velocity": 127,
                "duration": 0.1636363636363637,
                "tempo": 120.0
            },
            {
                "start_time": 1.0522727272727272,
                "end_time": 1.0545454545454545,
                "pitch": 78,
                "velocity": 127,
                "duration": 0.002272727272727204,
                "tempo": 120.0
            },
            {
                "start_time": 0.7181818181818181,
                "end_time": 1.218181818181818,
                "pitch": 69,
                "velocity": 127,
                "duration": 0.4999999999999999,
                "tempo": 120.0
            },
            {
                "start_time": 1.0545454545454545,
                "end_time": 1.218181818181818,
                "pitch": 69,
                "velocity": 127,
                "duration": 0.16363636363636358,
                "tempo": 120.0
            },
            {
                "start_time": 0.5477272727272727,
                "end_time": 1.3886363636363637,
                "pitch": 76,
                "velocity": 127,
                "duration": 0.8409090909090909,
                "tempo": 120.0
            },
            {
                "start_time": 1.218181818181818,
                "end_time": 1.3886363636363637,
                "pitch": 76,
                "velocity": 127,
                "duration": 0.17045454545454564,
                "tempo": 120.0
            },
            {
                "start_time": 0.0,
                "end_time": 1.559090909090909,
                "pitch": 79,
                "velocity": 127,
                "duration": 1.559090909090909,
                "tempo": 120.0
            },
            {
                "start_time": 1.3886363636363637,
                "end_time": 1.559090909090909,
                "pitch": 79,
                "velocity": 127,
                "duration": 0.17045454545454541,
                "tempo": 120.0
            },
            {
                "start_time": 1.559090909090909,
                "end_time": 1.7227272727272727,
                "pitch": 67,
                "velocity": 127,
                "duration": 0.16363636363636358,
                "tempo": 120.0
            },
            {
                "start_time": 1.218181818181818,
                "end_time": 1.7227272727272727,
                "pitch": 69,
                "velocity": 127,
                "duration": 0.5045454545454546,
                "tempo": 120.0
            },
            {
                "start_time": 1.7227272727272727,
                "end_time": 1.8886363636363634,
                "pitch": 78,
                "velocity": 127,
                "duration": 0.16590909090909078,
                "tempo": 120.0
            },
            {
                "start_time": 1.8886363636363634,
                "end_time": 2.0545454545454542,
                "pitch": 81,
                "velocity": 127,
                "duration": 0.16590909090909078,
                "tempo": 120.0
            },
            {
                "start_time": 1.7227272727272727,
                "end_time": 2.2181818181818183,
                "pitch": 69,
                "velocity": 127,
                "duration": 0.4954545454545456,
                "tempo": 120.0
            },
            {
                "start_time": 2.0545454545454542,
                "end_time": 2.2181818181818183,
                "pitch": 69,
                "velocity": 127,
                "duration": 0.16363636363636402,
                "tempo": 120.0
            },
            {
                "start_time": 0.3840909090909091,
                "end_time": 2.3886363636363637,
                "pitch": 72,
                "velocity": 127,
                "duration": 2.0045454545454544,
                "tempo": 120.0
            },
            {
                "start_time": 2.2181818181818183,
                "end_time": 2.3886363636363637,
                "pitch": 72,
                "velocity": 127,
                "duration": 0.17045454545454541,
                "tempo": 120.0
            },
            {
                "start_time": 2.3886363636363637,
                "end_time": 2.559090909090909,
                "pitch": 76,
                "velocity": 127,
                "duration": 0.17045454545454541,
                "tempo": 120.0
            },
            {
                "start_time": 2.2181818181818183,
                "end_time": 2.7227272727272727,
                "pitch": 69,
                "velocity": 127,
                "duration": 0.5045454545454544,
                "tempo": 120.0
            },
            {
                "start_time": 2.559090909090909,
                "end_time": 2.7227272727272727,
                "pitch": 69,
                "velocity": 127,
                "duration": 0.16363636363636358,
                "tempo": 120.0
            },
            {
                "start_time": 0.8886363636363636,
                "end_time": 2.8886363636363637,
                "pitch": 74,
                "velocity": 127,
                "duration": 2.0,
                "tempo": 120.0
            },
            {
                "start_time": 2.7227272727272727,
                "end_time": 2.8886363636363637,
                "pitch": 74,
                "velocity": 127,
                "duration": 0.165909090909091,
                "tempo": 120.0
            },
            {
                "start_time": 2.8886363636363637,
                "end_time": 3.059090909090909,
                "pitch": 78,
                "velocity": 127,
                "duration": 0.17045454545454541,
                "tempo": 120.0
            },
            {
                "start_time": 2.7227272727272727,
                "end_time": 3.227272727272727,
                "pitch": 69,
                "velocity": 127,
                "duration": 0.5045454545454544,
                "tempo": 120.0
            },
            {
                "start_time": 3.059090909090909,
                "end_time": 3.227272727272727,
                "pitch": 69,
                "velocity": 127,
                "duration": 0.168181818181818,
                "tempo": 120.0
            },
            {
                "start_time": 2.559090909090909,
                "end_time": 3.393181818181818,
                "pitch": 76,
                "velocity": 127,
                "duration": 0.834090909090909,
                "tempo": 120.0
            },
            {
                "start_time": 3.2295454545454545,
                "end_time": 3.393181818181818,
                "pitch": 76,
                "velocity": 127,
                "duration": 0.16363636363636358,
                "tempo": 120.0
            },
            {
                "start_time": 1.3886363636363637,
                "end_time": 3.393181818181818,
                "pitch": 88,
                "velocity": 127,
                "duration": 2.0045454545454544,
                "tempo": 120.0
            },
            {
                "start_time": 3.393181818181818,
                "end_time": 3.559090909090909,
                "pitch": 79,
                "velocity": 127,
                "duration": 0.165909090909091,
                "tempo": 120.0
            },
            {
                "start_time": 3.559090909090909,
                "end_time": 3.7249999999999996,
                "pitch": 67,
                "velocity": 127,
                "duration": 0.16590909090909056,
                "tempo": 120.0
            },
            {
                "start_time": 3.2295454545454545,
                "end_time": 3.7249999999999996,
                "pitch": 69,
                "velocity": 127,
                "duration": 0.49545454545454515,
                "tempo": 120.0
            },
            {
                "start_time": 3.059090909090909,
                "end_time": 3.8886363636363637,
                "pitch": 78,
                "velocity": 127,
                "duration": 0.8295454545454546,
                "tempo": 120.0
            },
            {
                "start_time": 3.7249999999999996,
                "end_time": 3.8886363636363637,
                "pitch": 78,
                "velocity": 127,
                "duration": 0.16363636363636402,
                "tempo": 120.0
            },
            {
                "start_time": 1.8886363636363634,
                "end_time": 3.8886363636363637,
                "pitch": 90,
                "velocity": 127,
                "duration": 2.0,
                "tempo": 120.0
            },
            {
                "start_time": 3.8886363636363637,
                "end_time": 4.059090909090909,
                "pitch": 81,
                "velocity": 127,
                "duration": 0.17045454545454497,
                "tempo": 120.0
            },
            {
                "start_time": 4.059090909090909,
                "end_time": 4.2295454545454545,
                "pitch": 62,
                "velocity": 127,
                "duration": 0.17045454545454586,
                "tempo": 120.0
            },
            {
                "start_time": 4.2295454545454545,
                "end_time": 4.415909090909091,
                "pitch": 65,
                "velocity": 127,
                "duration": 0.1863636363636365,
                "tempo": 120.0
            },
            {
                "start_time": 4.059090909090909,
                "end_time": 4.586363636363636,
                "pitch": 57,
                "velocity": 127,
                "duration": 0.5272727272727273,
                "tempo": 120.0
            },
            {
                "start_time": 3.7249999999999996,
                "end_time": 4.586363636363636,
                "pitch": 69,
                "velocity": 127,
                "duration": 0.8613636363636363,
                "tempo": 120.0
            },
            {
                "start_time": 4.415909090909091,
                "end_time": 4.586363636363636,
                "pitch": 69,
                "velocity": 127,
                "duration": 0.17045454545454497,
                "tempo": 120.0
            },
            {
                "start_time": 4.2295454545454545,
                "end_time": 4.754545454545454,
                "pitch": 62,
                "velocity": 127,
                "duration": 0.5249999999999995,
                "tempo": 120.0
            },
            {
                "start_time": 4.586363636363636,
                "end_time": 4.754545454545454,
                "pitch": 62,
                "velocity": 127,
                "duration": 0.168181818181818,
                "tempo": 120.0
            },
            {
                "start_time": 2.8886363636363637,
                "end_time": 4.754545454545454,
                "pitch": 74,
                "velocity": 127,
                "duration": 1.8659090909090903,
                "tempo": 120.0
            },
            {
                "start_time": 4.754545454545454,
                "end_time": 4.925,
                "pitch": 67,
                "velocity": 127,
                "duration": 0.17045454545454586,
                "tempo": 120.0
            },
            {
                "start_time": 4.925,
                "end_time": 5.090909090909091,
                "pitch": 71,
                "velocity": 127,
                "duration": 0.165909090909091,
                "tempo": 120.0
            },
            {
                "start_time": 5.090909090909091,
                "end_time": 5.254545454545454,
                "pitch": 62,
                "velocity": 127,
                "duration": 0.16363636363636314,
                "tempo": 120.0
            },
            {
                "start_time": 4.754545454545454,
                "end_time": 5.254545454545454,
                "pitch": 74,
                "velocity": 127,
                "duration": 0.5,
                "tempo": 120.0
            },
            {
                "start_time": 5.254545454545454,
                "end_time": 5.425,
                "pitch": 69,
                "velocity": 127,
                "duration": 0.17045454545454586,
                "tempo": 120.0
            },
            {
                "start_time": 2.3886363636363637,
                "end_time": 5.595454545454545,
                "pitch": 72,
                "velocity": 127,
                "duration": 3.206818181818181,
                "tempo": 120.0
            },
            {
                "start_time": 5.425,
                "end_time": 5.595454545454545,
                "pitch": 72,
                "velocity": 127,
                "duration": 0.17045454545454497,
                "tempo": 120.0
            },
            {
                "start_time": 5.595454545454545,
                "end_time": 5.761363636363636,
                "pitch": 62,
                "velocity": 127,
                "duration": 0.165909090909091,
                "tempo": 120.0
            },
            {
                "start_time": 5.254545454545454,
                "end_time": 5.761363636363636,
                "pitch": 74,
                "velocity": 127,
                "duration": 0.5068181818181818,
                "tempo": 120.0
            },
            {
                "start_time": 5.761363636363636,
                "end_time": 5.925,
                "pitch": 71,
                "velocity": 127,
                "duration": 0.16363636363636402,
                "tempo": 120.0
            },
            {
                "start_time": 5.761363636363636,
                "end_time": 6.090909090909091,
                "pitch": 74,
                "velocity": 127,
                "duration": 0.32954545454545503,
                "tempo": 120.0
            },
            {
                "start_time": 5.925,
                "end_time": 6.090909090909091,
                "pitch": 74,
                "velocity": 127,
                "duration": 0.165909090909091,
                "tempo": 120.0
            },
            {
                "start_time": 6.090909090909091,
                "end_time": 6.256818181818182,
                "pitch": 62,
                "velocity": 127,
                "duration": 0.165909090909091,
                "tempo": 120.0
            },
            {
                "start_time": 6.256818181818182,
                "end_time": 6.425,
                "pitch": 65,
                "velocity": 127,
                "duration": 0.168181818181818,
                "tempo": 120.0
            },
            {
                "start_time": 4.415909090909091,
                "end_time": 6.425,
                "pitch": 77,
                "velocity": 127,
                "duration": 2.009090909090909,
                "tempo": 120.0
            },
            {
                "start_time": 4.586363636363636,
                "end_time": 6.595454545454545,
                "pitch": 57,
                "velocity": 127,
                "duration": 2.009090909090909,
                "tempo": 120.0
            },
            {
                "start_time": 5.425,
                "end_time": 6.595454545454545,
                "pitch": 69,
                "velocity": 127,
                "duration": 1.170454545454545,
                "tempo": 120.0
            },
            {
                "start_time": 6.425,
                "end_time": 6.595454545454545,
                "pitch": 69,
                "velocity": 127,
                "duration": 0.17045454545454497,
                "tempo": 120.0
            },
            {
                "start_time": 6.256818181818182,
                "end_time": 6.765909090909091,
                "pitch": 62,
                "velocity": 127,
                "duration": 0.5090909090909088,
                "tempo": 120.0
            },
            {
                "start_time": 6.595454545454545,
                "end_time": 6.765909090909091,
                "pitch": 62,
                "velocity": 127,
                "duration": 0.17045454545454586,
                "tempo": 120.0
            },
            {
                "start_time": 4.925,
                "end_time": 6.934090909090909,
                "pitch": 67,
                "velocity": 127,
                "duration": 2.009090909090909,
                "tempo": 120.0
            },
            {
                "start_time": 6.765909090909091,
                "end_time": 6.934090909090909,
                "pitch": 67,
                "velocity": 127,
                "duration": 0.168181818181818,
                "tempo": 120.0
            },
            {
                "start_time": 5.090909090909091,
                "end_time": 7.1,
                "pitch": 59,
                "velocity": 127,
                "duration": 2.009090909090909,
                "tempo": 120.0
            },
            {
                "start_time": 5.925,
                "end_time": 7.1,
                "pitch": 71,
                "velocity": 127,
                "duration": 1.1749999999999998,
                "tempo": 120.0
            },
            {
                "start_time": 6.934090909090909,
                "end_time": 7.1,
                "pitch": 71,
                "velocity": 127,
                "duration": 0.165909090909091,
                "tempo": 120.0
            },
            {
                "start_time": 7.1,
                "end_time": 7.265909090909091,
                "pitch": 62,
                "velocity": 127,
                "duration": 0.165909090909091,
                "tempo": 120.0
            },
            {
                "start_time": 6.765909090909091,
                "end_time": 7.265909090909091,
                "pitch": 74,
                "velocity": 127,
                "duration": 0.5,
                "tempo": 120.0
            },
            {
                "start_time": 7.265909090909091,
                "end_time": 7.431818181818182,
                "pitch": 69,
                "velocity": 127,
                "duration": 0.165909090909091,
                "tempo": 120.0
            },
            {
                "start_time": 5.595454545454545,
                "end_time": 7.595454545454545,
                "pitch": 60,
                "velocity": 127,
                "duration": 2.0,
                "tempo": 120.0
            },
            {
                "start_time": 7.431818181818182,
                "end_time": 7.595454545454545,
                "pitch": 72,
                "velocity": 127,
                "duration": 0.16363636363636314,
                "tempo": 120.0
            },
            {
                "start_time": 7.595454545454545,
                "end_time": 7.761363636363636,
                "pitch": 62,
                "velocity": 127,
                "duration": 0.165909090909091,
                "tempo": 120.0
            },
            {
                "start_time": 7.265909090909091,
                "end_time": 7.761363636363636,
                "pitch": 74,
                "velocity": 127,
                "duration": 0.49545454545454515,
                "tempo": 120.0
            },
            {
                "start_time": 7.761363636363636,
                "end_time": 7.927272727272727,
                "pitch": 71,
                "velocity": 127,
                "duration": 0.165909090909091,
                "tempo": 120.0
            },
            {
                "start_time": 7.761363636363636,
                "end_time": 8.097727272727273,
                "pitch": 74,
                "velocity": 127,
                "duration": 0.33636363636363686,
                "tempo": 120.0
            },
            {
                "start_time": 7.927272727272727,
                "end_time": 8.097727272727273,
                "pitch": 74,
                "velocity": 127,
                "duration": 0.17045454545454586,
                "tempo": 120.0
            },
            {
                "start_time": 7.431818181818182,
                "end_time": 8.26590909090909,
                "pitch": 69,
                "velocity": 127,
                "duration": 0.834090909090909,
                "tempo": 120.0
            },
            {
                "start_time": 8.097727272727273,
                "end_time": 8.26590909090909,
                "pitch": 69,
                "velocity": 127,
                "duration": 0.168181818181818,
                "tempo": 120.0
            },
            {
                "start_time": 8.26590909090909,
                "end_time": 8.431818181818182,
                "pitch": 72,
                "velocity": 127,
                "duration": 0.165909090909091,
                "tempo": 120.0
            },
            {
                "start_time": 8.431818181818182,
                "end_time": 8.595454545454546,
                "pitch": 76,
                "velocity": 127,
                "duration": 0.16363636363636402,
                "tempo": 120.0
            },
            {
                "start_time": 8.26590909090909,
                "end_time": 8.747727272727273,
                "pitch": 69,
                "velocity": 127,
                "duration": 0.48181818181818237,
                "tempo": 120.0
            },
            {
                "start_time": 8.595454545454546,
                "end_time": 8.747727272727273,
                "pitch": 69,
                "velocity": 127,
                "duration": 0.15227272727272734,
                "tempo": 120.0
            }
        ],
        "Electric Guitar (clean)": [
            {
                "start_time": 0.0,
                "end_time": 0.21818181818181817,
                "pitch": 45,
                "velocity": 127,
                "duration": 0.21818181818181817,
                "tempo": 120.0
            },
            {
                "start_time": 0.21818181818181817,
                "end_time": 0.3840909090909091,
                "pitch": 45,
                "velocity": 127,
                "duration": 0.16590909090909092,
                "tempo": 120.0
            },
            {
                "start_time": 0.3840909090909091,
                "end_time": 0.5477272727272727,
                "pitch": 57,
                "velocity": 127,
                "duration": 0.16363636363636364,
                "tempo": 120.0
            },
            {
                "start_time": 0.5477272727272727,
                "end_time": 0.7181818181818181,
                "pitch": 45,
                "velocity": 127,
                "duration": 0.17045454545454541,
                "tempo": 120.0
            },
            {
                "start_time": 0.0,
                "end_time": 0.8886363636363636,
                "pitch": 50,
                "velocity": 127,
                "duration": 0.8886363636363636,
                "tempo": 120.0
            },
            {
                "start_time": 0.7181818181818181,
                "end_time": 0.8886363636363636,
                "pitch": 50,
                "velocity": 127,
                "duration": 0.17045454545454541,
                "tempo": 120.0
            },
            {
                "start_time": 0.7181818181818181,
                "end_time": 1.0545454545454545,
                "pitch": 45,
                "velocity": 127,
                "duration": 0.3363636363636363,
                "tempo": 120.0
            },
            {
                "start_time": 0.8886363636363636,
                "end_time": 1.0545454545454545,
                "pitch": 45,
                "velocity": 127,
                "duration": 0.1659090909090909,
                "tempo": 120.0
            },
            {
                "start_time": 1.0545454545454545,
                "end_time": 1.218181818181818,
                "pitch": 48,
                "velocity": 127,
                "duration": 0.16363636363636358,
                "tempo": 120.0
            },
            {
                "start_time": 1.0545454545454545,
                "end_time": 1.3886363636363637,
                "pitch": 45,
                "velocity": 127,
                "duration": 0.3340909090909092,
                "tempo": 120.0
            },
            {
                "start_time": 1.218181818181818,
                "end_time": 1.3886363636363637,
                "pitch": 45,
                "velocity": 127,
                "duration": 0.17045454545454564,
                "tempo": 120.0
            },
            {
                "start_time": 1.3886363636363637,
                "end_time": 1.559090909090909,
                "pitch": 45,
                "velocity": 127,
                "duration": 0.17045454545454541,
                "tempo": 120.0
            },
            {
                "start_time": 1.559090909090909,
                "end_time": 1.7227272727272727,
                "pitch": 45,
                "velocity": 127,
                "duration": 0.16363636363636358,
                "tempo": 120.0
            },
            {
                "start_time": 1.7227272727272727,
                "end_time": 1.8886363636363634,
                "pitch": 57,
                "velocity": 127,
                "duration": 0.16590909090909078,
                "tempo": 120.0
            },
            {
                "start_time": 1.8886363636363634,
                "end_time": 2.0545454545454542,
                "pitch": 57,
                "velocity": 127,
                "duration": 0.16590909090909078,
                "tempo": 120.0
            },
            {
                "start_time": 2.0545454545454542,
                "end_time": 2.2181818181818183,
                "pitch": 45,
                "velocity": 127,
                "duration": 0.16363636363636402,
                "tempo": 120.0
            },
            {
                "start_time": 2.2181818181818183,
                "end_time": 2.3886363636363637,
                "pitch": 45,
                "velocity": 127,
                "duration": 0.17045454545454541,
                "tempo": 120.0
            },
            {
                "start_time": 2.3886363636363637,
                "end_time": 2.559090909090909,
                "pitch": 57,
                "velocity": 127,
                "duration": 0.17045454545454541,
                "tempo": 120.0
            },
            {
                "start_time": 2.559090909090909,
                "end_time": 2.7227272727272727,
                "pitch": 45,
                "velocity": 127,
                "duration": 0.16363636363636358,
                "tempo": 120.0
            },
            {
                "start_time": 0.8886363636363636,
                "end_time": 2.8886363636363637,
                "pitch": 50,
                "velocity": 127,
                "duration": 2.0,
                "tempo": 120.0
            },
            {
                "start_time": 2.7227272727272727,
                "end_time": 2.8886363636363637,
                "pitch": 50,
                "velocity": 127,
                "duration": 0.165909090909091,
                "tempo": 120.0
            },
            {
                "start_time": 2.7227272727272727,
                "end_time": 3.059090909090909,
                "pitch": 45,
                "velocity": 127,
                "duration": 0.3363636363636364,
                "tempo": 120.0
            },
            {
                "start_time": 2.8886363636363637,
                "end_time": 3.059090909090909,
                "pitch": 45,
                "velocity": 127,
                "duration": 0.17045454545454541,
                "tempo": 120.0
            },
            {
                "start_time": 1.218181818181818,
                "end_time": 3.2295454545454545,
                "pitch": 48,
                "velocity": 127,
                "duration": 2.0113636363636367,
                "tempo": 120.0
            },
            {
                "start_time": 3.059090909090909,
                "end_time": 3.2295454545454545,
                "pitch": 48,
                "velocity": 127,
                "duration": 0.17045454545454541,
                "tempo": 120.0
            },
            {
                "start_time": 3.059090909090909,
                "end_time": 3.393181818181818,
                "pitch": 45,
                "velocity": 127,
                "duration": 0.334090909090909,
                "tempo": 120.0
            },
            {
                "start_time": 3.2295454545454545,
                "end_time": 3.393181818181818,
                "pitch": 45,
                "velocity": 127,
                "duration": 0.16363636363636358,
                "tempo": 120.0
            },
            {
                "start_time": 3.393181818181818,
                "end_time": 3.559090909090909,
                "pitch": 45,
                "velocity": 127,
                "duration": 0.165909090909091,
                "tempo": 120.0
            },
            {
                "start_time": 3.559090909090909,
                "end_time": 3.7249999999999996,
                "pitch": 45,
                "velocity": 127,
                "duration": 0.16590909090909056,
                "tempo": 120.0
            },
            {
                "start_time": 3.7249999999999996,
                "end_time": 3.8886363636363637,
                "pitch": 57,
                "velocity": 127,
                "duration": 0.16363636363636402,
                "tempo": 120.0
            },
            {
                "start_time": 3.8886363636363637,
                "end_time": 4.059090909090909,
                "pitch": 57,
                "velocity": 127,
                "duration": 0.17045454545454497,
                "tempo": 120.0
            },
            {
                "start_time": 4.059090909090909,
                "end_time": 4.2295454545454545,
                "pitch": 38,
                "velocity": 127,
                "duration": 0.17045454545454586,
                "tempo": 120.0
            },
            {
                "start_time": 4.2295454545454545,
                "end_time": 4.415909090909091,
                "pitch": 38,
                "velocity": 127,
                "duration": 0.1863636363636365,
                "tempo": 120.0
            },
            {
                "start_time": 2.8886363636363637,
                "end_time": 4.586363636363636,
                "pitch": 50,
                "velocity": 127,
                "duration": 1.6977272727272723,
                "tempo": 120.0
            },
            {
                "start_time": 4.415909090909091,
                "end_time": 4.586363636363636,
                "pitch": 50,
                "velocity": 127,
                "duration": 0.17045454545454497,
                "tempo": 120.0
            },
            {
                "start_time": 4.586363636363636,
                "end_time": 4.754545454545454,
                "pitch": 38,
                "velocity": 127,
                "duration": 0.168181818181818,
                "tempo": 120.0
            },
            {
                "start_time": 4.754545454545454,
                "end_time": 4.925,
                "pitch": 43,
                "velocity": 127,
                "duration": 0.17045454545454586,
                "tempo": 120.0
            },
            {
                "start_time": 4.925,
                "end_time": 5.090909090909091,
                "pitch": 38,
                "velocity": 127,
                "duration": 0.165909090909091,
                "tempo": 120.0
            },
            {
                "start_time": 5.090909090909091,
                "end_time": 5.254545454545454,
                "pitch": 41,
                "velocity": 127,
                "duration": 0.16363636363636314,
                "tempo": 120.0
            },
            {
                "start_time": 5.090909090909091,
                "end_time": 5.425,
                "pitch": 38,
                "velocity": 127,
                "duration": 0.334090909090909,
                "tempo": 120.0
            },
            {
                "start_time": 5.254545454545454,
                "end_time": 5.425,
                "pitch": 38,
                "velocity": 127,
                "duration": 0.17045454545454586,
                "tempo": 120.0
            },
            {
                "start_time": 5.425,
                "end_time": 5.595454545454545,
                "pitch": 38,
                "velocity": 127,
                "duration": 0.17045454545454497,
                "tempo": 120.0
            },
            {
                "start_time": 5.595454545454545,
                "end_time": 5.761363636363636,
                "pitch": 38,
                "velocity": 127,
                "duration": 0.165909090909091,
                "tempo": 120.0
            },
            {
                "start_time": 4.754545454545454,
                "end_time": 5.925,
                "pitch": 50,
                "velocity": 127,
                "duration": 1.1704545454545459,
                "tempo": 120.0
            },
            {
                "start_time": 5.761363636363636,
                "end_time": 5.925,
                "pitch": 50,
                "velocity": 127,
                "duration": 0.16363636363636402,
                "tempo": 120.0
            },
            {
                "start_time": 5.925,
                "end_time": 6.090909090909091,
                "pitch": 50,
                "velocity": 127,
                "duration": 0.165909090909091,
                "tempo": 120.0
            },
            {
                "start_time": 6.090909090909091,
                "end_time": 6.256818181818182,
                "pitch": 38,
                "velocity": 127,
                "duration": 0.165909090909091,
                "tempo": 120.0
            },
            {
                "start_time": 6.256818181818182,
                "end_time": 6.425,
                "pitch": 38,
                "velocity": 127,
                "duration": 0.168181818181818,
                "tempo": 120.0
            },
            {
                "start_time": 6.425,
                "end_time": 6.595454545454545,
                "pitch": 50,
                "velocity": 127,
                "duration": 0.17045454545454497,
                "tempo": 120.0
            },
            {
                "start_time": 6.595454545454545,
                "end_time": 6.765909090909091,
                "pitch": 38,
                "velocity": 127,
                "duration": 0.17045454545454586,
                "tempo": 120.0
            },
            {
                "start_time": 4.925,
                "end_time": 6.936363636363636,
                "pitch": 31,
                "velocity": 127,
                "duration": 2.011363636363636,
                "tempo": 120.0
            },
            {
                "start_time": 6.765909090909091,
                "end_time": 6.936363636363636,
                "pitch": 43,
                "velocity": 127,
                "duration": 0.17045454545454497,
                "tempo": 120.0
            },
            {
                "start_time": 6.936363636363636,
                "end_time": 7.1,
                "pitch": 38,
                "velocity": 127,
                "duration": 0.16363636363636402,
                "tempo": 120.0
            },
            {
                "start_time": 5.254545454545454,
                "end_time": 7.265909090909091,
                "pitch": 41,
                "velocity": 127,
                "duration": 2.0113636363636367,
                "tempo": 120.0
            },
            {
                "start_time": 7.1,
                "end_time": 7.265909090909091,
                "pitch": 41,
                "velocity": 127,
                "duration": 0.165909090909091,
                "tempo": 120.0
            },
            {
                "start_time": 7.1,
                "end_time": 7.431818181818182,
                "pitch": 38,
                "velocity": 127,
                "duration": 0.331818181818182,
                "tempo": 120.0
            },
            {
                "start_time": 7.265909090909091,
                "end_time": 7.431818181818182,
                "pitch": 38,
                "velocity": 127,
                "duration": 0.165909090909091,
                "tempo": 120.0
            },
            {
                "start_time": 7.431818181818182,
                "end_time": 7.595454545454545,
                "pitch": 38,
                "velocity": 127,
                "duration": 0.16363636363636314,
                "tempo": 120.0
            },
            {
                "start_time": 7.595454545454545,
                "end_time": 7.761363636363636,
                "pitch": 38,
                "velocity": 127,
                "duration": 0.165909090909091,
                "tempo": 120.0
            },
            {
                "start_time": 6.765909090909091,
                "end_time": 7.927272727272727,
                "pitch": 50,
                "velocity": 127,
                "duration": 1.1613636363636362,
                "tempo": 120.0
            },
            {
                "start_time": 7.761363636363636,
                "end_time": 7.927272727272727,
                "pitch": 50,
                "velocity": 127,
                "duration": 0.165909090909091,
                "tempo": 120.0
            },
            {
                "start_time": 7.927272727272727,
                "end_time": 8.097727272727273,
                "pitch": 50,
                "velocity": 127,
                "duration": 0.17045454545454586,
                "tempo": 120.0
            },
            {
                "start_time": 8.097727272727273,
                "end_time": 8.26590909090909,
                "pitch": 45,
                "velocity": 127,
                "duration": 0.168181818181818,
                "tempo": 120.0
            },
            {
                "start_time": 8.26590909090909,
                "end_time": 8.431818181818182,
                "pitch": 45,
                "velocity": 127,
                "duration": 0.165909090909091,
                "tempo": 120.0
            },
            {
                "start_time": 8.431818181818182,
                "end_time": 8.595454545454546,
                "pitch": 57,
                "velocity": 127,
                "duration": 0.16363636363636402,
                "tempo": 120.0
            },
            {
                "start_time": 8.595454545454546,
                "end_time": 8.747727272727273,
                "pitch": 45,
                "velocity": 127,
                "duration": 0.15227272727272734,
                "tempo": 120.0
            }
        ],
        "Acoustic Guitar (nylon)": [
            {
                "start_time": 0.3,
                "end_time": 0.4659090909090909,
                "pitch": 57,
                "velocity": 101,
                "duration": 0.1659090909090909,
                "tempo": 120.0
            },
            {
                "start_time": 0.4659090909090909,
                "end_time": 0.634090909090909,
                "pitch": 60,
                "velocity": 101,
                "duration": 0.16818181818181815,
                "tempo": 120.0
            },
            {
                "start_time": 0.634090909090909,
                "end_time": 0.8022727272727272,
                "pitch": 64,
                "velocity": 101,
                "duration": 0.1681818181818182,
                "tempo": 120.0
            },
            {
                "start_time": 0.4659090909090909,
                "end_time": 0.9704545454545455,
                "pitch": 57,
                "velocity": 101,
                "duration": 0.5045454545454546,
                "tempo": 120.0
            },
            {
                "start_time": 0.8022727272727272,
                "end_time": 0.9704545454545455,
                "pitch": 57,
                "velocity": 101,
                "duration": 0.1681818181818182,
                "tempo": 120.0
            },
            {
                "start_time": 0.3,
                "end_time": 1.1363636363636362,
                "pitch": 62,
                "velocity": 101,
                "duration": 0.8363636363636362,
                "tempo": 120.0
            },
            {
                "start_time": 0.9704545454545455,
                "end_time": 1.1363636363636362,
                "pitch": 62,
                "velocity": 101,
                "duration": 0.16590909090909078,
                "tempo": 120.0
            },
            {
                "start_time": 1.1363636363636362,
                "end_time": 1.3022727272727272,
                "pitch": 66,
                "velocity": 101,
                "duration": 0.165909090909091,
                "tempo": 120.0
            },
            {
                "start_time": 0.9704545454545455,
                "end_time": 1.4727272727272727,
                "pitch": 57,
                "velocity": 101,
                "duration": 0.5022727272727272,
                "tempo": 120.0
            },
            {
                "start_time": 1.3022727272727272,
                "end_time": 1.4727272727272727,
                "pitch": 57,
                "velocity": 101,
                "duration": 0.17045454545454541,
                "tempo": 120.0
            },
            {
                "start_time": 0.8022727272727272,
                "end_time": 1.6409090909090909,
                "pitch": 64,
                "velocity": 101,
                "duration": 0.8386363636363636,
                "tempo": 120.0
            },
            {
                "start_time": 1.4727272727272727,
                "end_time": 1.6409090909090909,
                "pitch": 64,
                "velocity": 101,
                "duration": 0.1681818181818182,
                "tempo": 120.0
            },
            {
                "start_time": 1.6409090909090909,
                "end_time": 1.8068181818181817,
                "pitch": 67,
                "velocity": 101,
                "duration": 0.16590909090909078,
                "tempo": 120.0
            },
            {
                "start_time": 1.8068181818181817,
                "end_time": 1.9704545454545455,
                "pitch": 55,
                "velocity": 101,
                "duration": 0.1636363636363638,
                "tempo": 120.0
            },
            {
                "start_time": 1.4727272727272727,
                "end_time": 1.9704545454545455,
                "pitch": 57,
                "velocity": 101,
                "duration": 0.4977272727272728,
                "tempo": 120.0
            },
            {
                "start_time": 1.3022727272727272,
                "end_time": 2.1363636363636362,
                "pitch": 66,
                "velocity": 101,
                "duration": 0.834090909090909,
                "tempo": 120.0
            },
            {
                "start_time": 1.9704545454545455,
                "end_time": 2.1363636363636362,
                "pitch": 66,
                "velocity": 101,
                "duration": 0.16590909090909078,
                "tempo": 120.0
            },
            {
                "start_time": 2.1363636363636362,
                "end_time": 2.3045454545454542,
                "pitch": 69,
                "velocity": 101,
                "duration": 0.168181818181818,
                "tempo": 120.0
            },
            {
                "start_time": 1.9704545454545455,
                "end_time": 2.4727272727272727,
                "pitch": 57,
                "velocity": 101,
                "duration": 0.5022727272727272,
                "tempo": 120.0
            },
            {
                "start_time": 2.3045454545454542,
                "end_time": 2.4727272727272727,
                "pitch": 57,
                "velocity": 101,
                "duration": 0.16818181818181843,
                "tempo": 120.0
            },
            {
                "start_time": 0.634090909090909,
                "end_time": 2.6409090909090907,
                "pitch": 60,
                "velocity": 101,
                "duration": 2.006818181818182,
                "tempo": 120.0
            },
            {
                "start_time": 2.4727272727272727,
                "end_time": 2.6409090909090907,
                "pitch": 60,
                "velocity": 101,
                "duration": 0.168181818181818,
                "tempo": 120.0
            },
            {
                "start_time": 2.6409090909090907,
                "end_time": 2.8068181818181817,
                "pitch": 64,
                "velocity": 101,
                "duration": 0.165909090909091,
                "tempo": 120.0
            },
            {
                "start_time": 2.4727272727272727,
                "end_time": 2.9727272727272727,
                "pitch": 57,
                "velocity": 101,
                "duration": 0.5,
                "tempo": 120.0
            },
            {
                "start_time": 2.8068181818181817,
                "end_time": 2.9727272727272727,
                "pitch": 57,
                "velocity": 101,
                "duration": 0.165909090909091,
                "tempo": 120.0
            },
            {
                "start_time": 1.1363636363636362,
                "end_time": 3.143181818181818,
                "pitch": 62,
                "velocity": 101,
                "duration": 2.006818181818182,
                "tempo": 120.0
            },
            {
                "start_time": 2.9727272727272727,
                "end_time": 3.143181818181818,
                "pitch": 62,
                "velocity": 101,
                "duration": 0.17045454545454541,
                "tempo": 120.0
            },
            {
                "start_time": 3.143181818181818,
                "end_time": 3.311363636363636,
                "pitch": 66,
                "velocity": 101,
                "duration": 0.168181818181818,
                "tempo": 120.0
            },
            {
                "start_time": 2.9727272727272727,
                "end_time": 3.4749999999999996,
                "pitch": 57,
                "velocity": 101,
                "duration": 0.502272727272727,
                "tempo": 120.0
            },
            {
                "start_time": 3.311363636363636,
                "end_time": 3.4749999999999996,
                "pitch": 57,
                "velocity": 101,
                "duration": 0.16363636363636358,
                "tempo": 120.0
            },
            {
                "start_time": 3.4749999999999996,
                "end_time": 3.477272727272727,
                "pitch": 57,
                "velocity": 101,
                "duration": 0.002272727272727426,
                "tempo": 120.0
            },
            {
                "start_time": 2.8068181818181817,
                "end_time": 3.6409090909090907,
                "pitch": 64,
                "velocity": 101,
                "duration": 0.834090909090909,
                "tempo": 120.0
            },
            {
                "start_time": 3.477272727272727,
                "end_time": 3.6409090909090907,
                "pitch": 64,
                "velocity": 101,
                "duration": 0.16363636363636358,
                "tempo": 120.0
            },
            {
                "start_time": 1.6409090909090909,
                "end_time": 3.6409090909090907,
                "pitch": 76,
                "velocity": 101,
                "duration": 1.9999999999999998,
                "tempo": 120.0
            },
            {
                "start_time": 3.6409090909090907,
                "end_time": 3.8068181818181817,
                "pitch": 67,
                "velocity": 101,
                "duration": 0.165909090909091,
                "tempo": 120.0
            },
            {
                "start_time": 3.8068181818181817,
                "end_time": 3.9727272727272727,
                "pitch": 55,
                "velocity": 101,
                "duration": 0.165909090909091,
                "tempo": 120.0
            },
            {
                "start_time": 3.311363636363636,
                "end_time": 4.143181818181818,
                "pitch": 66,
                "velocity": 101,
                "duration": 0.8318181818181816,
                "tempo": 120.0
            },
            {
                "start_time": 3.9727272727272727,
                "end_time": 4.143181818181818,
                "pitch": 66,
                "velocity": 101,
                "duration": 0.17045454545454497,
                "tempo": 120.0
            },
            {
                "start_time": 2.1363636363636362,
                "end_time": 4.143181818181818,
                "pitch": 78,
                "velocity": 101,
                "duration": 2.0068181818181814,
                "tempo": 120.0
            },
            {
                "start_time": 4.143181818181818,
                "end_time": 4.3136363636363635,
                "pitch": 69,
                "velocity": 101,
                "duration": 0.17045454545454586,
                "tempo": 120.0
            },
            {
                "start_time": 4.3136363636363635,
                "end_time": 4.5,
                "pitch": 50,
                "velocity": 101,
                "duration": 0.1863636363636365,
                "tempo": 120.0
            },
            {
                "start_time": 4.5,
                "end_time": 4.670454545454545,
                "pitch": 53,
                "velocity": 101,
                "duration": 0.17045454545454497,
                "tempo": 120.0
            },
            {
                "start_time": 4.3136363636363635,
                "end_time": 4.840909090909091,
                "pitch": 45,
                "velocity": 101,
                "duration": 0.5272727272727273,
                "tempo": 120.0
            },
            {
                "start_time": 3.9727272727272727,
                "end_time": 4.840909090909091,
                "pitch": 57,
                "velocity": 101,
                "duration": 0.8681818181818182,
                "tempo": 120.0
            },
            {
                "start_time": 4.670454545454545,
                "end_time": 4.840909090909091,
                "pitch": 57,
                "velocity": 101,
                "duration": 0.17045454545454586,
                "tempo": 120.0
            },
            {
                "start_time": 4.5,
                "end_time": 5.006818181818182,
                "pitch": 50,
                "velocity": 101,
                "duration": 0.5068181818181818,
                "tempo": 120.0
            },
            {
                "start_time": 4.840909090909091,
                "end_time": 5.006818181818182,
                "pitch": 50,
                "velocity": 101,
                "duration": 0.165909090909091,
                "tempo": 120.0
            },
            {
                "start_time": 3.143181818181818,
                "end_time": 5.006818181818182,
                "pitch": 62,
                "velocity": 101,
                "duration": 1.8636363636363638,
                "tempo": 120.0
            },
            {
                "start_time": 5.006818181818182,
                "end_time": 5.172727272727273,
                "pitch": 55,
                "velocity": 101,
                "duration": 0.165909090909091,
                "tempo": 120.0
            },
            {
                "start_time": 5.172727272727273,
                "end_time": 5.340909090909091,
                "pitch": 59,
                "velocity": 101,
                "duration": 0.168181818181818,
                "tempo": 120.0
            },
            {
                "start_time": 5.340909090909091,
                "end_time": 5.509090909090909,
                "pitch": 50,
                "velocity": 101,
                "duration": 0.168181818181818,
                "tempo": 120.0
            },
            {
                "start_time": 5.006818181818182,
                "end_time": 5.509090909090909,
                "pitch": 62,
                "velocity": 101,
                "duration": 0.502272727272727,
                "tempo": 120.0
            },
            {
                "start_time": 5.509090909090909,
                "end_time": 5.677272727272727,
                "pitch": 57,
                "velocity": 101,
                "duration": 0.168181818181818,
                "tempo": 120.0
            },
            {
                "start_time": 2.6409090909090907,
                "end_time": 5.843181818181818,
                "pitch": 60,
                "velocity": 101,
                "duration": 3.202272727272727,
                "tempo": 120.0
            },
            {
                "start_time": 5.677272727272727,
                "end_time": 5.843181818181818,
                "pitch": 60,
                "velocity": 101,
                "duration": 0.165909090909091,
                "tempo": 120.0
            },
            {
                "start_time": 5.843181818181818,
                "end_time": 6.006818181818182,
                "pitch": 50,
                "velocity": 101,
                "duration": 0.16363636363636402,
                "tempo": 120.0
            },
            {
                "start_time": 5.509090909090909,
                "end_time": 6.006818181818182,
                "pitch": 62,
                "velocity": 101,
                "duration": 0.497727272727273,
                "tempo": 120.0
            },
            {
                "start_time": 6.006818181818182,
                "end_time": 6.172727272727273,
                "pitch": 59,
                "velocity": 101,
                "duration": 0.165909090909091,
                "tempo": 120.0
            },
            {
                "start_time": 6.006818181818182,
                "end_time": 6.340909090909091,
                "pitch": 62,
                "velocity": 101,
                "duration": 0.334090909090909,
                "tempo": 120.0
            },
            {
                "start_time": 6.172727272727273,
                "end_time": 6.340909090909091,
                "pitch": 62,
                "velocity": 101,
                "duration": 0.168181818181818,
                "tempo": 120.0
            },
            {
                "start_time": 6.340909090909091,
                "end_time": 6.511363636363636,
                "pitch": 50,
                "velocity": 101,
                "duration": 0.17045454545454497,
                "tempo": 120.0
            },
            {
                "start_time": 6.511363636363636,
                "end_time": 6.679545454545454,
                "pitch": 53,
                "velocity": 101,
                "duration": 0.168181818181818,
                "tempo": 120.0
            },
            {
                "start_time": 4.670454545454545,
                "end_time": 6.679545454545454,
                "pitch": 65,
                "velocity": 101,
                "duration": 2.009090909090909,
                "tempo": 120.0
            },
            {
                "start_time": 4.840909090909091,
                "end_time": 6.85,
                "pitch": 45,
                "velocity": 101,
                "duration": 2.009090909090909,
                "tempo": 120.0
            },
            {
                "start_time": 5.677272727272727,
                "end_time": 6.85,
                "pitch": 57,
                "velocity": 101,
                "duration": 1.1727272727272728,
                "tempo": 120.0
            },
            {
                "start_time": 6.679545454545454,
                "end_time": 6.85,
                "pitch": 57,
                "velocity": 101,
                "duration": 0.17045454545454586,
                "tempo": 120.0
            },
            {
                "start_time": 6.511363636363636,
                "end_time": 7.018181818181818,
                "pitch": 50,
                "velocity": 101,
                "duration": 0.5068181818181818,
                "tempo": 120.0
            },
            {
                "start_time": 6.85,
                "end_time": 7.018181818181818,
                "pitch": 50,
                "velocity": 101,
                "duration": 0.168181818181818,
                "tempo": 120.0
            },
            {
                "start_time": 5.172727272727273,
                "end_time": 7.181818181818182,
                "pitch": 55,
                "velocity": 101,
                "duration": 2.009090909090909,
                "tempo": 120.0
            },
            {
                "start_time": 7.018181818181818,
                "end_time": 7.181818181818182,
                "pitch": 55,
                "velocity": 101,
                "duration": 0.16363636363636402,
                "tempo": 120.0
            },
            {
                "start_time": 7.181818181818182,
                "end_time": 7.184090909090909,
                "pitch": 55,
                "velocity": 101,
                "duration": 0.002272727272726982,
                "tempo": 120.0
            },
            {
                "start_time": 5.340909090909091,
                "end_time": 7.347727272727273,
                "pitch": 47,
                "velocity": 101,
                "duration": 2.006818181818182,
                "tempo": 120.0
            },
            {
                "start_time": 6.172727272727273,
                "end_time": 7.347727272727273,
                "pitch": 59,
                "velocity": 101,
                "duration": 1.1749999999999998,
                "tempo": 120.0
            },
            {
                "start_time": 7.184090909090909,
                "end_time": 7.347727272727273,
                "pitch": 59,
                "velocity": 101,
                "duration": 0.16363636363636402,
                "tempo": 120.0
            },
            {
                "start_time": 7.347727272727273,
                "end_time": 7.513636363636364,
                "pitch": 50,
                "velocity": 101,
                "duration": 0.165909090909091,
                "tempo": 120.0
            },
            {
                "start_time": 7.018181818181818,
                "end_time": 7.513636363636364,
                "pitch": 62,
                "velocity": 101,
                "duration": 0.49545454545454604,
                "tempo": 120.0
            },
            {
                "start_time": 7.513636363636364,
                "end_time": 7.679545454545454,
                "pitch": 57,
                "velocity": 101,
                "duration": 0.16590909090909012,
                "tempo": 120.0
            },
            {
                "start_time": 5.843181818181818,
                "end_time": 7.843181818181818,
                "pitch": 48,
                "velocity": 101,
                "duration": 2.0,
                "tempo": 120.0
            },
            {
                "start_time": 7.679545454545454,
                "end_time": 7.843181818181818,
                "pitch": 60,
                "velocity": 101,
                "duration": 0.16363636363636402,
                "tempo": 120.0
            },
            {
                "start_time": 7.843181818181818,
                "end_time": 8.011363636363637,
                "pitch": 50,
                "velocity": 101,
                "duration": 0.16818181818181888,
                "tempo": 120.0
            },
            {
                "start_time": 7.513636363636364,
                "end_time": 8.011363636363637,
                "pitch": 62,
                "velocity": 101,
                "duration": 0.497727272727273,
                "tempo": 120.0
            },
            {
                "start_time": 8.011363636363637,
                "end_time": 8.181818181818182,
                "pitch": 59,
                "velocity": 101,
                "duration": 0.17045454545454497,
                "tempo": 120.0
            },
            {
                "start_time": 8.011363636363637,
                "end_time": 8.347727272727273,
                "pitch": 62,
                "velocity": 101,
                "duration": 0.336363636363636,
                "tempo": 120.0
            },
            {
                "start_time": 8.181818181818182,
                "end_time": 8.347727272727273,
                "pitch": 62,
                "velocity": 101,
                "duration": 0.165909090909091,
                "tempo": 120.0
            },
            {
                "start_time": 7.679545454545454,
                "end_time": 8.513636363636364,
                "pitch": 57,
                "velocity": 101,
                "duration": 0.8340909090909099,
                "tempo": 120.0
            },
            {
                "start_time": 8.347727272727273,
                "end_time": 8.513636363636364,
                "pitch": 57,
                "velocity": 101,
                "duration": 0.165909090909091,
                "tempo": 120.0
            },
            {
                "start_time": 8.513636363636364,
                "end_time": 8.697727272727272,
                "pitch": 60,
                "velocity": 101,
                "duration": 0.18409090909090864,
                "tempo": 120.0
            },
            {
                "start_time": 8.697727272727272,
                "end_time": 8.747727272727273,
                "pitch": 64,
                "velocity": 101,
                "duration": 0.05000000000000071,
                "tempo": 120.0
            }
        ],
        "Harpsichord": [
            {
                "start_time": 0.0,
                "end_time": 0.21818181818181817,
                "pitch": 57,
                "velocity": 101,
                "duration": 0.21818181818181817,
                "tempo": 120.0
            },
            {
                "start_time": 0.21818181818181817,
                "end_time": 0.3840909090909091,
                "pitch": 57,
                "velocity": 101,
                "duration": 0.16590909090909092,
                "tempo": 120.0
            },
            {
                "start_time": 0.3840909090909091,
                "end_time": 0.5499999999999999,
                "pitch": 69,
                "velocity": 101,
                "duration": 0.16590909090909084,
                "tempo": 120.0
            },
            {
                "start_time": 0.5499999999999999,
                "end_time": 0.7181818181818181,
                "pitch": 57,
                "velocity": 101,
                "duration": 0.1681818181818182,
                "tempo": 120.0
            },
            {
                "start_time": 0.7181818181818181,
                "end_time": 0.8886363636363636,
                "pitch": 62,
                "velocity": 101,
                "duration": 0.17045454545454541,
                "tempo": 120.0
            },
            {
                "start_time": 0.7181818181818181,
                "end_time": 1.0545454545454545,
                "pitch": 57,
                "velocity": 101,
                "duration": 0.3363636363636363,
                "tempo": 120.0
            },
            {
                "start_time": 0.8886363636363636,
                "end_time": 1.0545454545454545,
                "pitch": 57,
                "velocity": 101,
                "duration": 0.1659090909090909,
                "tempo": 120.0
            },
            {
                "start_time": 1.0545454545454545,
                "end_time": 1.218181818181818,
                "pitch": 60,
                "velocity": 101,
                "duration": 0.16363636363636358,
                "tempo": 120.0
            },
            {
                "start_time": 1.0545454545454545,
                "end_time": 1.3886363636363637,
                "pitch": 57,
                "velocity": 101,
                "duration": 0.3340909090909092,
                "tempo": 120.0
            },
            {
                "start_time": 1.218181818181818,
                "end_time": 1.3886363636363637,
                "pitch": 57,
                "velocity": 101,
                "duration": 0.17045454545454564,
                "tempo": 120.0
            },
            {
                "start_time": 1.3886363636363637,
                "end_time": 1.559090909090909,
                "pitch": 57,
                "velocity": 101,
                "duration": 0.17045454545454541,
                "tempo": 120.0
            },
            {
                "start_time": 1.559090909090909,
                "end_time": 1.7227272727272727,
                "pitch": 57,
                "velocity": 101,
                "duration": 0.16363636363636358,
                "tempo": 120.0
            },
            {
                "start_time": 1.7227272727272727,
                "end_time": 1.8886363636363634,
                "pitch": 69,
                "velocity": 101,
                "duration": 0.16590909090909078,
                "tempo": 120.0
            },
            {
                "start_time": 1.8886363636363634,
                "end_time": 2.0545454545454542,
                "pitch": 69,
                "velocity": 101,
                "duration": 0.16590909090909078,
                "tempo": 120.0
            },
            {
                "start_time": 2.0545454545454542,
                "end_time": 2.2181818181818183,
                "pitch": 57,
                "velocity": 101,
                "duration": 0.16363636363636402,
                "tempo": 120.0
            },
            {
                "start_time": 2.2181818181818183,
                "end_time": 2.3886363636363637,
                "pitch": 57,
                "velocity": 101,
                "duration": 0.17045454545454541,
                "tempo": 120.0
            },
            {
                "start_time": 2.3886363636363637,
                "end_time": 2.559090909090909,
                "pitch": 69,
                "velocity": 101,
                "duration": 0.17045454545454541,
                "tempo": 120.0
            },
            {
                "start_time": 2.559090909090909,
                "end_time": 2.725,
                "pitch": 57,
                "velocity": 101,
                "duration": 0.165909090909091,
                "tempo": 120.0
            },
            {
                "start_time": 0.8886363636363636,
                "end_time": 2.8886363636363637,
                "pitch": 62,
                "velocity": 101,
                "duration": 2.0,
                "tempo": 120.0
            },
            {
                "start_time": 2.725,
                "end_time": 2.8886363636363637,
                "pitch": 62,
                "velocity": 101,
                "duration": 0.16363636363636358,
                "tempo": 120.0
            },
            {
                "start_time": 2.725,
                "end_time": 3.059090909090909,
                "pitch": 57,
                "velocity": 101,
                "duration": 0.334090909090909,
                "tempo": 120.0
            },
            {
                "start_time": 2.8886363636363637,
                "end_time": 3.059090909090909,
                "pitch": 57,
                "velocity": 101,
                "duration": 0.17045454545454541,
                "tempo": 120.0
            },
            {
                "start_time": 1.218181818181818,
                "end_time": 3.2295454545454545,
                "pitch": 60,
                "velocity": 101,
                "duration": 2.0113636363636367,
                "tempo": 120.0
            },
            {
                "start_time": 3.059090909090909,
                "end_time": 3.2295454545454545,
                "pitch": 60,
                "velocity": 101,
                "duration": 0.17045454545454541,
                "tempo": 120.0
            },
            {
                "start_time": 3.059090909090909,
                "end_time": 3.393181818181818,
                "pitch": 57,
                "velocity": 101,
                "duration": 0.334090909090909,
                "tempo": 120.0
            },
            {
                "start_time": 3.2295454545454545,
                "end_time": 3.393181818181818,
                "pitch": 57,
                "velocity": 101,
                "duration": 0.16363636363636358,
                "tempo": 120.0
            },
            {
                "start_time": 3.393181818181818,
                "end_time": 3.559090909090909,
                "pitch": 57,
                "velocity": 101,
                "duration": 0.165909090909091,
                "tempo": 120.0
            },
            {
                "start_time": 3.559090909090909,
                "end_time": 3.7249999999999996,
                "pitch": 57,
                "velocity": 101,
                "duration": 0.16590909090909056,
                "tempo": 120.0
            },
            {
                "start_time": 3.7249999999999996,
                "end_time": 3.8886363636363637,
                "pitch": 69,
                "velocity": 101,
                "duration": 0.16363636363636402,
                "tempo": 120.0
            },
            {
                "start_time": 3.8886363636363637,
                "end_time": 4.059090909090909,
                "pitch": 69,
                "velocity": 101,
                "duration": 0.17045454545454497,
                "tempo": 120.0
            },
            {
                "start_time": 4.059090909090909,
                "end_time": 4.2295454545454545,
                "pitch": 50,
                "velocity": 101,
                "duration": 0.17045454545454586,
                "tempo": 120.0
            },
            {
                "start_time": 4.2295454545454545,
                "end_time": 4.415909090909091,
                "pitch": 50,
                "velocity": 101,
                "duration": 0.1863636363636365,
                "tempo": 120.0
            },
            {
                "start_time": 2.8886363636363637,
                "end_time": 4.586363636363636,
                "pitch": 62,
                "velocity": 101,
                "duration": 1.6977272727272723,
                "tempo": 120.0
            },
            {
                "start_time": 4.415909090909091,
                "end_time": 4.586363636363636,
                "pitch": 62,
                "velocity": 101,
                "duration": 0.17045454545454497,
                "tempo": 120.0
            },
            {
                "start_time": 4.586363636363636,
                "end_time": 4.754545454545454,
                "pitch": 50,
                "velocity": 101,
                "duration": 0.168181818181818,
                "tempo": 120.0
            },
            {
                "start_time": 4.754545454545454,
                "end_time": 4.756818181818182,
                "pitch": 62,
                "velocity": 101,
                "duration": 0.0022727272727278702,
                "tempo": 120.0
            },
            {
                "start_time": 0.0,
                "end_time": 4.925,
                "pitch": 55,
                "velocity": 101,
                "duration": 4.925,
                "tempo": 120.0
            },
            {
                "start_time": 4.756818181818182,
                "end_time": 4.925,
                "pitch": 55,
                "velocity": 101,
                "duration": 0.168181818181818,
                "tempo": 120.0
            },
            {
                "start_time": 4.925,
                "end_time": 5.090909090909091,
                "pitch": 50,
                "velocity": 101,
                "duration": 0.165909090909091,
                "tempo": 120.0
            },
            {
                "start_time": 5.090909090909091,
                "end_time": 5.256818181818182,
                "pitch": 53,
                "velocity": 101,
                "duration": 0.165909090909091,
                "tempo": 120.0
            },
            {
                "start_time": 5.090909090909091,
                "end_time": 5.425,
                "pitch": 50,
                "velocity": 101,
                "duration": 0.334090909090909,
                "tempo": 120.0
            },
            {
                "start_time": 5.256818181818182,
                "end_time": 5.425,
                "pitch": 50,
                "velocity": 101,
                "duration": 0.168181818181818,
                "tempo": 120.0
            },
            {
                "start_time": 5.425,
                "end_time": 5.595454545454545,
                "pitch": 50,
                "velocity": 101,
                "duration": 0.17045454545454497,
                "tempo": 120.0
            },
            {
                "start_time": 5.595454545454545,
                "end_time": 5.761363636363636,
                "pitch": 50,
                "velocity": 101,
                "duration": 0.165909090909091,
                "tempo": 120.0
            },
            {
                "start_time": 5.761363636363636,
                "end_time": 5.925,
                "pitch": 62,
                "velocity": 101,
                "duration": 0.16363636363636402,
                "tempo": 120.0
            },
            {
                "start_time": 5.925,
                "end_time": 6.090909090909091,
                "pitch": 62,
                "velocity": 101,
                "duration": 0.165909090909091,
                "tempo": 120.0
            },
            {
                "start_time": 6.090909090909091,
                "end_time": 6.256818181818182,
                "pitch": 50,
                "velocity": 101,
                "duration": 0.165909090909091,
                "tempo": 120.0
            },
            {
                "start_time": 6.256818181818182,
                "end_time": 6.425,
                "pitch": 50,
                "velocity": 101,
                "duration": 0.168181818181818,
                "tempo": 120.0
            },
            {
                "start_time": 6.425,
                "end_time": 6.595454545454545,
                "pitch": 62,
                "velocity": 101,
                "duration": 0.17045454545454497,
                "tempo": 120.0
            },
            {
                "start_time": 6.595454545454545,
                "end_time": 6.765909090909091,
                "pitch": 50,
                "velocity": 101,
                "duration": 0.17045454545454586,
                "tempo": 120.0
            },
            {
                "start_time": 4.925,
                "end_time": 6.936363636363636,
                "pitch": 43,
                "velocity": 101,
                "duration": 2.011363636363636,
                "tempo": 120.0
            },
            {
                "start_time": 6.765909090909091,
                "end_time": 6.936363636363636,
                "pitch": 55,
                "velocity": 101,
                "duration": 0.17045454545454497,
                "tempo": 120.0
            },
            {
                "start_time": 6.936363636363636,
                "end_time": 7.1,
                "pitch": 50,
                "velocity": 101,
                "duration": 0.16363636363636402,
                "tempo": 120.0
            },
            {
                "start_time": 5.256818181818182,
                "end_time": 7.265909090909091,
                "pitch": 53,
                "velocity": 101,
                "duration": 2.009090909090909,
                "tempo": 120.0
            },
            {
                "start_time": 7.1,
                "end_time": 7.265909090909091,
                "pitch": 53,
                "velocity": 101,
                "duration": 0.165909090909091,
                "tempo": 120.0
            },
            {
                "start_time": 7.1,
                "end_time": 7.431818181818182,
                "pitch": 50,
                "velocity": 101,
                "duration": 0.331818181818182,
                "tempo": 120.0
            },
            {
                "start_time": 7.265909090909091,
                "end_time": 7.431818181818182,
                "pitch": 50,
                "velocity": 101,
                "duration": 0.165909090909091,
                "tempo": 120.0
            },
            {
                "start_time": 7.431818181818182,
                "end_time": 7.595454545454545,
                "pitch": 50,
                "velocity": 101,
                "duration": 0.16363636363636314,
                "tempo": 120.0
            },
            {
                "start_time": 7.595454545454545,
                "end_time": 7.761363636363636,
                "pitch": 50,
                "velocity": 101,
                "duration": 0.165909090909091,
                "tempo": 120.0
            },
            {
                "start_time": 6.765909090909091,
                "end_time": 7.927272727272727,
                "pitch": 62,
                "velocity": 101,
                "duration": 1.1613636363636362,
                "tempo": 120.0
            },
            {
                "start_time": 7.761363636363636,
                "end_time": 7.927272727272727,
                "pitch": 62,
                "velocity": 101,
                "duration": 0.165909090909091,
                "tempo": 120.0
            },
            {
                "start_time": 7.927272727272727,
                "end_time": 8.097727272727273,
                "pitch": 62,
                "velocity": 101,
                "duration": 0.17045454545454586,
                "tempo": 120.0
            },
            {
                "start_time": 8.097727272727273,
                "end_time": 8.26590909090909,
                "pitch": 57,
                "velocity": 101,
                "duration": 0.168181818181818,
                "tempo": 120.0
            },
            {
                "start_time": 8.26590909090909,
                "end_time": 8.431818181818182,
                "pitch": 57,
                "velocity": 101,
                "duration": 0.165909090909091,
                "tempo": 120.0
            },
            {
                "start_time": 8.431818181818182,
                "end_time": 8.597727272727273,
                "pitch": 69,
                "velocity": 101,
                "duration": 0.165909090909091,
                "tempo": 120.0
            },
            {
                "start_time": 8.597727272727273,
                "end_time": 8.747727272727273,
                "pitch": 57,
                "velocity": 101,
                "duration": 0.15000000000000036,
                "tempo": 120.0
            }
        ]
    }
}