{
    "track_id": "10 Boss 3",
    "mood": "angry",
    "instruments": {
        "Electric Piano 1": [
            {
                "start_time": 6.243181818181818,
                "end_time": 6.75,
                "pitch": 57,
                "velocity": 32,
                "duration": 0.5068181818181818,
                "tempo": 120.0
            },
            {
                "start_time": 6.768181818181818,
                "end_time": 7.268181818181818,
                "pitch": 52,
                "velocity": 32,
                "duration": 0.5,
                "tempo": 120.0
            },
            {
                "start_time": 7.302272727272727,
                "end_time": 7.620454545454545,
                "pitch": 57,
                "velocity": 32,
                "duration": 0.31818181818181834,
                "tempo": 120.0
            },
            {
                "start_time": 7.654545454545454,
                "end_time": 8.154545454545454,
                "pitch": 63,
                "velocity": 32,
                "duration": 0.5,
                "tempo": 120.0
            },
            {
                "start_time": 8.188636363636363,
                "end_time": 8.674999999999999,
                "pitch": 62,
                "velocity": 32,
                "duration": 0.48636363636363633,
                "tempo": 120.0
            },
            {
                "start_time": 8.709090909090909,
                "end_time": 9.025,
                "pitch": 60,
                "velocity": 32,
                "duration": 0.31590909090909136,
                "tempo": 120.0
            },
            {
                "start_time": 9.059090909090909,
                "end_time": 9.561363636363636,
                "pitch": 59,
                "velocity": 32,
                "duration": 0.502272727272727,
                "tempo": 120.0
            },
            {
                "start_time": 9.595454545454546,
                "end_time": 10.097727272727273,
                "pitch": 60,
                "velocity": 32,
                "duration": 0.502272727272727,
                "tempo": 120.0
            },
            {
                "start_time": 10.11590909090909,
                "end_time": 10.456818181818182,
                "pitch": 59,
                "velocity": 32,
                "duration": 0.3409090909090917,
                "tempo": 120.0
            },
            {
                "start_time": 10.475,
                "end_time": 10.970454545454546,
                "pitch": 57,
                "velocity": 32,
                "duration": 0.49545454545454604,
                "tempo": 120.0
            },
            {
                "start_time": 11.002272727272727,
                "end_time": 11.502272727272727,
                "pitch": 59,
                "velocity": 32,
                "duration": 0.5,
                "tempo": 120.0
            },
            {
                "start_time": 11.538636363636362,
                "end_time": 11.863636363636363,
                "pitch": 60,
                "velocity": 32,
                "duration": 0.32500000000000107,
                "tempo": 120.0
            },
            {
                "start_time": 11.897727272727272,
                "end_time": 12.415909090909091,
                "pitch": 51,
                "velocity": 32,
                "duration": 0.5181818181818194,
                "tempo": 120.0
            },
            {
                "start_time": 12.415909090909091,
                "end_time": 12.595454545454546,
                "pitch": 55,
                "velocity": 32,
                "duration": 0.17954545454545467,
                "tempo": 120.0
            },
            {
                "start_time": 12.595454545454546,
                "end_time": 13.656818181818181,
                "pitch": 53,
                "velocity": 32,
                "duration": 1.0613636363636356,
                "tempo": 120.0
            },
            {
                "start_time": 13.656818181818181,
                "end_time": 14.693181818181818,
                "pitch": 57,
                "velocity": 32,
                "duration": 1.036363636363637,
                "tempo": 120.0
            },
            {
                "start_time": 14.727272727272727,
                "end_time": 15.245454545454544,
                "pitch": 51,
                "velocity": 32,
                "duration": 0.5181818181818176,
                "tempo": 120.0
            },
            {
                "start_time": 15.245454545454544,
                "end_time": 15.429545454545455,
                "pitch": 55,
                "velocity": 32,
                "duration": 0.18409090909091042,
                "tempo": 120.0
            },
            {
                "start_time": 12.595454545454546,
                "end_time": 15.429545454545455,
                "pitch": 66,
                "velocity": 32,
                "duration": 2.834090909090909,
                "tempo": 120.0
            },
            {
                "start_time": 15.429545454545455,
                "end_time": 16.48181818181818,
                "pitch": 53,
                "velocity": 32,
                "duration": 1.052272727272726,
                "tempo": 120.0
            },
            {
                "start_time": 16.48181818181818,
                "end_time": 17.502272727272725,
                "pitch": 57,
                "velocity": 32,
                "duration": 1.0204545454545446,
                "tempo": 120.0
            },
            {
                "start_time": 17.536363636363635,
                "end_time": 18.036363636363635,
                "pitch": 57,
                "velocity": 32,
                "duration": 0.5,
                "tempo": 120.0
            },
            {
                "start_time": 18.070454545454545,
                "end_time": 18.57272727272727,
                "pitch": 52,
                "velocity": 32,
                "duration": 0.5022727272727252,
                "tempo": 120.0
            },
            {
                "start_time": 18.58863636363636,
                "end_time": 18.922727272727272,
                "pitch": 57,
                "velocity": 32,
                "duration": 0.33409090909091077,
                "tempo": 120.0
            },
            {
                "start_time": 18.94090909090909,
                "end_time": 19.443181818181817,
                "pitch": 63,
                "velocity": 32,
                "duration": 0.5022727272727252,
                "tempo": 120.0
            },
            {
                "start_time": 19.474999999999998,
                "end_time": 19.977272727272727,
                "pitch": 62,
                "velocity": 32,
                "duration": 0.5022727272727288,
                "tempo": 120.0
            },
            {
                "start_time": 20.011363636363637,
                "end_time": 20.329545454545453,
                "pitch": 60,
                "velocity": 32,
                "duration": 0.31818181818181657,
                "tempo": 120.0
            },
            {
                "start_time": 20.361363636363635,
                "end_time": 20.847727272727273,
                "pitch": 59,
                "velocity": 32,
                "duration": 0.4863636363636381,
                "tempo": 120.0
            },
            {
                "start_time": 20.88181818181818,
                "end_time": 21.384090909090908,
                "pitch": 60,
                "velocity": 32,
                "duration": 0.5022727272727288,
                "tempo": 120.0
            },
            {
                "start_time": 21.418181818181818,
                "end_time": 21.74090909090909,
                "pitch": 59,
                "velocity": 32,
                "duration": 0.32272727272727053,
                "tempo": 120.0
            },
            {
                "start_time": 21.775,
                "end_time": 22.28181818181818,
                "pitch": 57,
                "velocity": 32,
                "duration": 0.5068181818181827,
                "tempo": 120.0
            },
            {
                "start_time": 22.299999999999997,
                "end_time": 22.80681818181818,
                "pitch": 59,
                "velocity": 32,
                "duration": 0.5068181818181827,
                "tempo": 120.0
            },
            {
                "start_time": 22.84090909090909,
                "end_time": 23.159090909090907,
                "pitch": 60,
                "velocity": 32,
                "duration": 0.31818181818181657,
                "tempo": 120.0
            },
            {
                "start_time": 23.193181818181817,
                "end_time": 23.720454545454544,
                "pitch": 51,
                "velocity": 32,
                "duration": 0.5272727272727273,
                "tempo": 120.0
            },
            {
                "start_time": 23.720454545454544,
                "end_time": 23.902272727272727,
                "pitch": 55,
                "velocity": 32,
                "duration": 0.18181818181818343,
                "tempo": 120.0
            },
            {
                "start_time": 15.429545454545455,
                "end_time": 23.902272727272727,
                "pitch": 66,
                "velocity": 32,
                "duration": 8.472727272727273,
                "tempo": 120.0
            },
            {
                "start_time": 23.902272727272727,
                "end_time": 24.959090909090907,
                "pitch": 53,
                "velocity": 32,
                "duration": 1.0568181818181799,
                "tempo": 120.0
            },
            {
                "start_time": 24.959090909090907,
                "end_time": 25.977272727272727,
                "pitch": 57,
                "velocity": 32,
                "duration": 1.0181818181818194,
                "tempo": 120.0
            },
            {
                "start_time": 26.011363636363637,
                "end_time": 26.547727272727272,
                "pitch": 51,
                "velocity": 32,
                "duration": 0.5363636363636353,
                "tempo": 120.0
            },
            {
                "start_time": 26.547727272727272,
                "end_time": 26.71363636363636,
                "pitch": 55,
                "velocity": 32,
                "duration": 0.16590909090908923,
                "tempo": 120.0
            },
            {
                "start_time": 23.902272727272727,
                "end_time": 26.71363636363636,
                "pitch": 66,
                "velocity": 32,
                "duration": 2.811363636363634,
                "tempo": 120.0
            },
            {
                "start_time": 26.71363636363636,
                "end_time": 27.768181818181816,
                "pitch": 53,
                "velocity": 32,
                "duration": 1.0545454545454547,
                "tempo": 120.0
            },
            {
                "start_time": 27.768181818181816,
                "end_time": 28.80681818181818,
                "pitch": 57,
                "velocity": 32,
                "duration": 1.038636363636364,
                "tempo": 120.0
            },
            {
                "start_time": 28.84090909090909,
                "end_time": 28.977272727272727,
                "pitch": 57,
                "velocity": 32,
                "duration": 0.1363636363636367,
                "tempo": 120.0
            },
            {
                "start_time": 29.013636363636362,
                "end_time": 29.327272727272724,
                "pitch": 57,
                "velocity": 20,
                "duration": 0.3136363636363626,
                "tempo": 120.0
            },
            {
                "start_time": 29.35909090909091,
                "end_time": 29.674999999999997,
                "pitch": 59,
                "velocity": 32,
                "duration": 0.3159090909090878,
                "tempo": 120.0
            },
            {
                "start_time": 29.709090909090907,
                "end_time": 30.025,
                "pitch": 59,
                "velocity": 20,
                "duration": 0.31590909090909136,
                "tempo": 120.0
            },
            {
                "start_time": 30.245454545454542,
                "end_time": 30.384090909090908,
                "pitch": 60,
                "velocity": 32,
                "duration": 0.13863636363636545,
                "tempo": 120.0
            },
            {
                "start_time": 30.418181818181818,
                "end_time": 30.74772727272727,
                "pitch": 60,
                "velocity": 20,
                "duration": 0.32954545454545325,
                "tempo": 120.0
            },
            {
                "start_time": 30.763636363636362,
                "end_time": 31.10909090909091,
                "pitch": 62,
                "velocity": 32,
                "duration": 0.34545454545454746,
                "tempo": 120.0
            },
            {
                "start_time": 31.127272727272725,
                "end_time": 31.46590909090909,
                "pitch": 62,
                "velocity": 20,
                "duration": 0.33863636363636473,
                "tempo": 120.0
            },
            {
                "start_time": 31.668181818181818,
                "end_time": 31.825,
                "pitch": 60,
                "velocity": 32,
                "duration": 0.1568181818181813,
                "tempo": 120.0
            },
            {
                "start_time": 31.84090909090909,
                "end_time": 32.17272727272727,
                "pitch": 60,
                "velocity": 20,
                "duration": 0.331818181818182,
                "tempo": 120.0
            },
            {
                "start_time": 32.18863636363636,
                "end_time": 32.52045454545454,
                "pitch": 59,
                "velocity": 32,
                "duration": 0.33181818181817846,
                "tempo": 120.0
            },
            {
                "start_time": 32.53636363636363,
                "end_time": 32.87045454545454,
                "pitch": 59,
                "velocity": 20,
                "duration": 0.33409090909091077,
                "tempo": 120.0
            },
            {
                "start_time": 33.074999999999996,
                "end_time": 33.22954545454545,
                "pitch": 60,
                "velocity": 32,
                "duration": 0.1545454545454561,
                "tempo": 120.0
            },
            {
                "start_time": 33.263636363636365,
                "end_time": 33.57727272727273,
                "pitch": 60,
                "velocity": 20,
                "duration": 0.3136363636363626,
                "tempo": 120.0
            },
            {
                "start_time": 33.611363636363635,
                "end_time": 33.925,
                "pitch": 60,
                "velocity": 32,
                "duration": 0.3136363636363626,
                "tempo": 120.0
            },
            {
                "start_time": 33.95909090909091,
                "end_time": 34.09318181818182,
                "pitch": 59,
                "velocity": 32,
                "duration": 0.13409090909090793,
                "tempo": 120.0
            },
            {
                "start_time": 34.12954545454545,
                "end_time": 34.28409090909091,
                "pitch": 57,
                "velocity": 32,
                "duration": 0.1545454545454561,
                "tempo": 120.0
            },
            {
                "start_time": 34.31818181818181,
                "end_time": 34.45454545454545,
                "pitch": 55,
                "velocity": 32,
                "duration": 0.13636363636364024,
                "tempo": 120.0
            },
            {
                "start_time": 34.48863636363636,
                "end_time": 34.99090909090909,
                "pitch": 57,
                "velocity": 32,
                "duration": 0.5022727272727323,
                "tempo": 120.0
            },
            {
                "start_time": 35.02272727272727,
                "end_time": 35.51590909090909,
                "pitch": 52,
                "velocity": 32,
                "duration": 0.4931818181818173,
                "tempo": 120.0
            },
            {
                "start_time": 35.53409090909091,
                "end_time": 35.877272727272725,
                "pitch": 57,
                "velocity": 32,
                "duration": 0.3431818181818187,
                "tempo": 120.0
            },
            {
                "start_time": 35.893181818181816,
                "end_time": 36.39545454545454,
                "pitch": 63,
                "velocity": 32,
                "duration": 0.5022727272727252,
                "tempo": 120.0
            },
            {
                "start_time": 36.429545454545455,
                "end_time": 36.929545454545455,
                "pitch": 62,
                "velocity": 32,
                "duration": 0.5,
                "tempo": 120.0
            },
            {
                "start_time": 36.94772727272727,
                "end_time": 37.28181818181818,
                "pitch": 60,
                "velocity": 32,
                "duration": 0.33409090909091077,
                "tempo": 120.0
            },
            {
                "start_time": 37.31590909090909,
                "end_time": 37.8,
                "pitch": 59,
                "velocity": 32,
                "duration": 0.48409090909090935,
                "tempo": 120.0
            },
            {
                "start_time": 37.83409090909091,
                "end_time": 38.33409090909091,
                "pitch": 60,
                "velocity": 32,
                "duration": 0.5,
                "tempo": 120.0
            },
            {
                "start_time": 38.36818181818182,
                "end_time": 38.68636363636364,
                "pitch": 59,
                "velocity": 32,
                "duration": 0.3181818181818201,
                "tempo": 120.0
            },
            {
                "start_time": 38.720454545454544,
                "end_time": 39.220454545454544,
                "pitch": 57,
                "velocity": 32,
                "duration": 0.5,
                "tempo": 120.0
            },
            {
                "start_time": 39.23863636363636,
                "end_time": 39.75909090909091,
                "pitch": 59,
                "velocity": 32,
                "duration": 0.5204545454545482,
                "tempo": 120.0
            },
            {
                "start_time": 39.793181818181814,
                "end_time": 40.111363636363635,
                "pitch": 60,
                "velocity": 32,
                "duration": 0.3181818181818201,
                "tempo": 120.0
            },
            {
                "start_time": 40.14545454545454,
                "end_time": 40.29545454545455,
                "pitch": 57,
                "velocity": 32,
                "duration": 0.15000000000000568,
                "tempo": 120.0
            },
            {
                "start_time": 40.31136363636364,
                "end_time": 40.64545454545454,
                "pitch": 57,
                "velocity": 20,
                "duration": 0.33409090909090366,
                "tempo": 120.0
            },
            {
                "start_time": 40.663636363636364,
                "end_time": 40.99772727272727,
                "pitch": 59,
                "velocity": 32,
                "duration": 0.33409090909090366,
                "tempo": 120.0
            },
            {
                "start_time": 41.01363636363636,
                "end_time": 41.34772727272727,
                "pitch": 59,
                "velocity": 20,
                "duration": 0.33409090909091077,
                "tempo": 120.0
            },
            {
                "start_time": 41.55,
                "end_time": 41.70681818181818,
                "pitch": 60,
                "velocity": 32,
                "duration": 0.1568181818181813,
                "tempo": 120.0
            },
            {
                "start_time": 41.74090909090909,
                "end_time": 42.054545454545455,
                "pitch": 60,
                "velocity": 20,
                "duration": 0.3136363636363626,
                "tempo": 120.0
            },
            {
                "start_time": 42.086363636363636,
                "end_time": 42.402272727272724,
                "pitch": 62,
                "velocity": 32,
                "duration": 0.3159090909090878,
                "tempo": 120.0
            },
            {
                "start_time": 42.43636363636364,
                "end_time": 42.752272727272725,
                "pitch": 62,
                "velocity": 20,
                "duration": 0.3159090909090878,
                "tempo": 120.0
            },
            {
                "start_time": 42.95681818181818,
                "end_time": 43.111363636363635,
                "pitch": 60,
                "velocity": 32,
                "duration": 0.1545454545454561,
                "tempo": 120.0
            },
            {
                "start_time": 43.14545454545454,
                "end_time": 43.459090909090904,
                "pitch": 60,
                "velocity": 20,
                "duration": 0.3136363636363626,
                "tempo": 120.0
            },
            {
                "start_time": 43.49318181818182,
                "end_time": 43.80681818181818,
                "pitch": 59,
                "velocity": 32,
                "duration": 0.3136363636363626,
                "tempo": 120.0
            },
            {
                "start_time": 43.840909090909086,
                "end_time": 44.15909090909091,
                "pitch": 59,
                "velocity": 20,
                "duration": 0.3181818181818201,
                "tempo": 120.0
            },
            {
                "start_time": 44.361363636363635,
                "end_time": 44.51590909090909,
                "pitch": 60,
                "velocity": 32,
                "duration": 0.1545454545454561,
                "tempo": 120.0
            },
            {
                "start_time": 44.55,
                "end_time": 44.86363636363636,
                "pitch": 60,
                "velocity": 20,
                "duration": 0.3136363636363626,
                "tempo": 120.0
            },
            {
                "start_time": 44.89772727272727,
                "end_time": 45.211363636363636,
                "pitch": 60,
                "velocity": 32,
                "duration": 0.3136363636363626,
                "tempo": 120.0
            },
            {
                "start_time": 45.24545454545454,
                "end_time": 45.39772727272727,
                "pitch": 59,
                "velocity": 32,
                "duration": 0.1522727272727309,
                "tempo": 120.0
            },
            {
                "start_time": 45.41590909090909,
                "end_time": 45.570454545454545,
                "pitch": 60,
                "velocity": 32,
                "duration": 0.1545454545454561,
                "tempo": 120.0
            },
            {
                "start_time": 45.60454545454545,
                "end_time": 45.75909090909091,
                "pitch": 62,
                "velocity": 32,
                "duration": 0.1545454545454561,
                "tempo": 120.0
            },
            {
                "start_time": 45.793181818181814,
                "end_time": 46.277272727272724,
                "pitch": 64,
                "velocity": 32,
                "duration": 0.48409090909090935,
                "tempo": 120.0
            },
            {
                "start_time": 46.31136363636364,
                "end_time": 46.80227272727272,
                "pitch": 65,
                "velocity": 32,
                "duration": 0.49090909090908497,
                "tempo": 120.0
            },
            {
                "start_time": 46.83863636363636,
                "end_time": 47.163636363636364,
                "pitch": 64,
                "velocity": 32,
                "duration": 0.32500000000000284,
                "tempo": 120.0
            },
            {
                "start_time": 47.19772727272727,
                "end_time": 47.68181818181818,
                "pitch": 62,
                "velocity": 32,
                "duration": 0.48409090909090935,
                "tempo": 120.0
            },
            {
                "start_time": 47.715909090909086,
                "end_time": 48.22954545454545,
                "pitch": 60,
                "velocity": 32,
                "duration": 0.5136363636363654,
                "tempo": 120.0
            },
            {
                "start_time": 48.26363636363636,
                "end_time": 48.58863636363636,
                "pitch": 59,
                "velocity": 32,
                "duration": 0.32500000000000284,
                "tempo": 120.0
            },
            {
                "start_time": 48.62272727272727,
                "end_time": 49.125,
                "pitch": 64,
                "velocity": 32,
                "duration": 0.5022727272727323,
                "tempo": 120.0
            },
            {
                "start_time": 49.143181818181816,
                "end_time": 49.63409090909091,
                "pitch": 65,
                "velocity": 32,
                "duration": 0.49090909090909207,
                "tempo": 120.0
            },
            {
                "start_time": 49.67045454545454,
                "end_time": 49.99545454545454,
                "pitch": 67,
                "velocity": 32,
                "duration": 0.32500000000000284,
                "tempo": 120.0
            },
            {
                "start_time": 50.02954545454545,
                "end_time": 51.4,
                "pitch": 68,
                "velocity": 32,
                "duration": 1.3704545454545496,
                "tempo": 120.0
            }
        ],
        "Vibraphone": [
            {
                "start_time": 6.154545454545454,
                "end_time": 6.206818181818181,
                "pitch": 76,
                "velocity": 80,
                "duration": 0.052272727272726804,
                "tempo": 120.0
            },
            {
                "start_time": 6.24090909090909,
                "end_time": 6.290909090909091,
                "pitch": 81,
                "velocity": 80,
                "duration": 0.05000000000000071,
                "tempo": 120.0
            },
            {
                "start_time": 6.327272727272727,
                "end_time": 6.3954545454545455,
                "pitch": 83,
                "velocity": 80,
                "duration": 0.06818181818181834,
                "tempo": 120.0
            },
            {
                "start_time": 6.413636363636363,
                "end_time": 6.4818181818181815,
                "pitch": 86,
                "velocity": 80,
                "duration": 0.06818181818181834,
                "tempo": 120.0
            },
            {
                "start_time": 6.515909090909091,
                "end_time": 6.5659090909090905,
                "pitch": 84,
                "velocity": 80,
                "duration": 0.04999999999999982,
                "tempo": 120.0
            },
            {
                "start_time": 6.6,
                "end_time": 6.6499999999999995,
                "pitch": 83,
                "velocity": 80,
                "duration": 0.04999999999999982,
                "tempo": 120.0
            },
            {
                "start_time": 6.684090909090909,
                "end_time": 6.75,
                "pitch": 84,
                "velocity": 80,
                "duration": 0.06590909090909136,
                "tempo": 120.0
            },
            {
                "start_time": 6.768181818181818,
                "end_time": 6.834090909090909,
                "pitch": 81,
                "velocity": 80,
                "duration": 0.06590909090909136,
                "tempo": 120.0
            },
            {
                "start_time": 6.868181818181818,
                "end_time": 6.918181818181818,
                "pitch": 83,
                "velocity": 80,
                "duration": 0.04999999999999982,
                "tempo": 120.0
            },
            {
                "start_time": 6.952272727272727,
                "end_time": 7.018181818181818,
                "pitch": 84,
                "velocity": 80,
                "duration": 0.06590909090909047,
                "tempo": 120.0
            },
            {
                "start_time": 7.034090909090909,
                "end_time": 7.102272727272727,
                "pitch": 86,
                "velocity": 80,
                "duration": 0.06818181818181746,
                "tempo": 120.0
            },
            {
                "start_time": 7.136363636363636,
                "end_time": 7.184090909090909,
                "pitch": 83,
                "velocity": 80,
                "duration": 0.04772727272727284,
                "tempo": 120.0
            },
            {
                "start_time": 7.218181818181818,
                "end_time": 7.268181818181818,
                "pitch": 84,
                "velocity": 80,
                "duration": 0.04999999999999982,
                "tempo": 120.0
            },
            {
                "start_time": 7.302272727272727,
                "end_time": 7.368181818181818,
                "pitch": 86,
                "velocity": 80,
                "duration": 0.06590909090909136,
                "tempo": 120.0
            },
            {
                "start_time": 7.386363636363636,
                "end_time": 7.452272727272727,
                "pitch": 88,
                "velocity": 80,
                "duration": 0.06590909090909136,
                "tempo": 120.0
            },
            {
                "start_time": 7.486363636363636,
                "end_time": 7.536363636363636,
                "pitch": 84,
                "velocity": 80,
                "duration": 0.04999999999999982,
                "tempo": 120.0
            },
            {
                "start_time": 7.570454545454545,
                "end_time": 7.620454545454545,
                "pitch": 76,
                "velocity": 80,
                "duration": 0.04999999999999982,
                "tempo": 120.0
            },
            {
                "start_time": 7.654545454545454,
                "end_time": 7.720454545454545,
                "pitch": 81,
                "velocity": 80,
                "duration": 0.06590909090909047,
                "tempo": 120.0
            },
            {
                "start_time": 7.736363636363636,
                "end_time": 7.804545454545454,
                "pitch": 83,
                "velocity": 80,
                "duration": 0.06818181818181746,
                "tempo": 120.0
            },
            {
                "start_time": 7.838636363636363,
                "end_time": 7.888636363636364,
                "pitch": 86,
                "velocity": 80,
                "duration": 0.05000000000000071,
                "tempo": 120.0
            },
            {
                "start_time": 7.920454545454545,
                "end_time": 7.970454545454545,
                "pitch": 84,
                "velocity": 80,
                "duration": 0.04999999999999982,
                "tempo": 120.0
            },
            {
                "start_time": 8.004545454545454,
                "end_time": 8.070454545454545,
                "pitch": 83,
                "velocity": 80,
                "duration": 0.06590909090909136,
                "tempo": 120.0
            },
            {
                "start_time": 8.088636363636363,
                "end_time": 8.154545454545454,
                "pitch": 84,
                "velocity": 80,
                "duration": 0.06590909090909136,
                "tempo": 120.0
            },
            {
                "start_time": 8.188636363636363,
                "end_time": 8.238636363636363,
                "pitch": 81,
                "velocity": 80,
                "duration": 0.05000000000000071,
                "tempo": 120.0
            },
            {
                "start_time": 8.272727272727272,
                "end_time": 8.322727272727272,
                "pitch": 83,
                "velocity": 80,
                "duration": 0.05000000000000071,
                "tempo": 120.0
            },
            {
                "start_time": 8.35681818181818,
                "end_time": 8.422727272727272,
                "pitch": 84,
                "velocity": 80,
                "duration": 0.06590909090909136,
                "tempo": 120.0
            },
            {
                "start_time": 8.438636363636363,
                "end_time": 8.506818181818181,
                "pitch": 86,
                "velocity": 80,
                "duration": 0.06818181818181834,
                "tempo": 120.0
            },
            {
                "start_time": 8.540909090909091,
                "end_time": 8.59090909090909,
                "pitch": 83,
                "velocity": 80,
                "duration": 0.049999999999998934,
                "tempo": 120.0
            },
            {
                "start_time": 8.622727272727273,
                "end_time": 8.672727272727272,
                "pitch": 84,
                "velocity": 80,
                "duration": 0.049999999999998934,
                "tempo": 120.0
            },
            {
                "start_time": 8.706818181818182,
                "end_time": 8.775,
                "pitch": 86,
                "velocity": 80,
                "duration": 0.06818181818181834,
                "tempo": 120.0
            },
            {
                "start_time": 8.790909090909091,
                "end_time": 8.85681818181818,
                "pitch": 88,
                "velocity": 80,
                "duration": 0.06590909090908958,
                "tempo": 120.0
            },
            {
                "start_time": 8.89090909090909,
                "end_time": 8.940909090909091,
                "pitch": 84,
                "velocity": 80,
                "duration": 0.05000000000000071,
                "tempo": 120.0
            },
            {
                "start_time": 8.975,
                "end_time": 9.025,
                "pitch": 76,
                "velocity": 80,
                "duration": 0.05000000000000071,
                "tempo": 120.0
            },
            {
                "start_time": 9.059090909090909,
                "end_time": 9.125,
                "pitch": 81,
                "velocity": 80,
                "duration": 0.06590909090909136,
                "tempo": 120.0
            },
            {
                "start_time": 9.159090909090908,
                "end_time": 9.209090909090909,
                "pitch": 83,
                "velocity": 80,
                "duration": 0.05000000000000071,
                "tempo": 120.0
            },
            {
                "start_time": 9.243181818181817,
                "end_time": 9.293181818181818,
                "pitch": 86,
                "velocity": 80,
                "duration": 0.05000000000000071,
                "tempo": 120.0
            },
            {
                "start_time": 9.325,
                "end_time": 9.393181818181818,
                "pitch": 84,
                "velocity": 80,
                "duration": 0.06818181818181834,
                "tempo": 120.0
            },
            {
                "start_time": 9.409090909090908,
                "end_time": 9.477272727272727,
                "pitch": 83,
                "velocity": 80,
                "duration": 0.06818181818181834,
                "tempo": 120.0
            },
            {
                "start_time": 9.509090909090908,
                "end_time": 9.559090909090909,
                "pitch": 84,
                "velocity": 80,
                "duration": 0.05000000000000071,
                "tempo": 120.0
            },
            {
                "start_time": 9.593181818181817,
                "end_time": 9.643181818181818,
                "pitch": 81,
                "velocity": 80,
                "duration": 0.05000000000000071,
                "tempo": 120.0
            },
            {
                "start_time": 9.677272727272726,
                "end_time": 9.743181818181817,
                "pitch": 83,
                "velocity": 80,
                "duration": 0.06590909090909136,
                "tempo": 120.0
            },
            {
                "start_time": 9.761363636363637,
                "end_time": 9.827272727272726,
                "pitch": 84,
                "velocity": 80,
                "duration": 0.06590909090908958,
                "tempo": 120.0
            },
            {
                "start_time": 9.861363636363636,
                "end_time": 9.911363636363635,
                "pitch": 86,
                "velocity": 80,
                "duration": 0.049999999999998934,
                "tempo": 120.0
            },
            {
                "start_time": 9.945454545454545,
                "end_time": 9.995454545454544,
                "pitch": 83,
                "velocity": 80,
                "duration": 0.049999999999998934,
                "tempo": 120.0
            },
            {
                "start_time": 10.029545454545454,
                "end_time": 10.097727272727273,
                "pitch": 84,
                "velocity": 80,
                "duration": 0.06818181818181834,
                "tempo": 120.0
            },
            {
                "start_time": 10.113636363636363,
                "end_time": 10.184090909090909,
                "pitch": 86,
                "velocity": 80,
                "duration": 0.07045454545454533,
                "tempo": 120.0
            },
            {
                "start_time": 10.218181818181817,
                "end_time": 10.268181818181818,
                "pitch": 88,
                "velocity": 80,
                "duration": 0.05000000000000071,
                "tempo": 120.0
            },
            {
                "start_time": 10.304545454545455,
                "end_time": 10.354545454545454,
                "pitch": 84,
                "velocity": 80,
                "duration": 0.049999999999998934,
                "tempo": 120.0
            },
            {
                "start_time": 10.39090909090909,
                "end_time": 10.456818181818182,
                "pitch": 76,
                "velocity": 80,
                "duration": 0.06590909090909136,
                "tempo": 120.0
            },
            {
                "start_time": 10.475,
                "end_time": 10.540909090909091,
                "pitch": 81,
                "velocity": 80,
                "duration": 0.06590909090909136,
                "tempo": 120.0
            },
            {
                "start_time": 10.575,
                "end_time": 10.625,
                "pitch": 83,
                "velocity": 80,
                "duration": 0.05000000000000071,
                "tempo": 120.0
            },
            {
                "start_time": 10.659090909090908,
                "end_time": 10.706818181818182,
                "pitch": 86,
                "velocity": 80,
                "duration": 0.04772727272727373,
                "tempo": 120.0
            },
            {
                "start_time": 10.74090909090909,
                "end_time": 10.806818181818182,
                "pitch": 84,
                "velocity": 80,
                "duration": 0.06590909090909136,
                "tempo": 120.0
            },
            {
                "start_time": 10.822727272727272,
                "end_time": 10.888636363636364,
                "pitch": 83,
                "velocity": 80,
                "duration": 0.06590909090909136,
                "tempo": 120.0
            },
            {
                "start_time": 10.920454545454545,
                "end_time": 10.968181818181817,
                "pitch": 84,
                "velocity": 80,
                "duration": 0.04772727272727195,
                "tempo": 120.0
            },
            {
                "start_time": 11.002272727272727,
                "end_time": 11.049999999999999,
                "pitch": 81,
                "velocity": 80,
                "duration": 0.04772727272727195,
                "tempo": 120.0
            },
            {
                "start_time": 11.081818181818182,
                "end_time": 11.149999999999999,
                "pitch": 83,
                "velocity": 80,
                "duration": 0.06818181818181657,
                "tempo": 120.0
            },
            {
                "start_time": 11.165909090909091,
                "end_time": 11.23409090909091,
                "pitch": 84,
                "velocity": 80,
                "duration": 0.06818181818181834,
                "tempo": 120.0
            },
            {
                "start_time": 11.26590909090909,
                "end_time": 11.31590909090909,
                "pitch": 86,
                "velocity": 80,
                "duration": 0.049999999999998934,
                "tempo": 120.0
            },
            {
                "start_time": 11.35,
                "end_time": 11.418181818181818,
                "pitch": 83,
                "velocity": 80,
                "duration": 0.06818181818181834,
                "tempo": 120.0
            },
            {
                "start_time": 11.434090909090909,
                "end_time": 11.502272727272727,
                "pitch": 84,
                "velocity": 80,
                "duration": 0.06818181818181834,
                "tempo": 120.0
            },
            {
                "start_time": 11.536363636363635,
                "end_time": 11.588636363636363,
                "pitch": 86,
                "velocity": 80,
                "duration": 0.05227272727272769,
                "tempo": 120.0
            },
            {
                "start_time": 11.622727272727273,
                "end_time": 11.674999999999999,
                "pitch": 88,
                "velocity": 80,
                "duration": 0.052272727272725916,
                "tempo": 120.0
            },
            {
                "start_time": 11.709090909090909,
                "end_time": 11.777272727272727,
                "pitch": 84,
                "velocity": 80,
                "duration": 0.06818181818181834,
                "tempo": 120.0
            },
            {
                "start_time": 11.795454545454545,
                "end_time": 11.861363636363636,
                "pitch": 76,
                "velocity": 80,
                "duration": 0.06590909090909136,
                "tempo": 120.0
            },
            {
                "start_time": 11.895454545454545,
                "end_time": 11.945454545454545,
                "pitch": 81,
                "velocity": 80,
                "duration": 0.05000000000000071,
                "tempo": 120.0
            },
            {
                "start_time": 11.979545454545454,
                "end_time": 12.029545454545454,
                "pitch": 83,
                "velocity": 80,
                "duration": 0.05000000000000071,
                "tempo": 120.0
            },
            {
                "start_time": 12.063636363636363,
                "end_time": 12.129545454545454,
                "pitch": 86,
                "velocity": 80,
                "duration": 0.06590909090909136,
                "tempo": 120.0
            },
            {
                "start_time": 12.147727272727272,
                "end_time": 12.213636363636363,
                "pitch": 84,
                "velocity": 80,
                "duration": 0.06590909090909136,
                "tempo": 120.0
            },
            {
                "start_time": 12.247727272727273,
                "end_time": 12.297727272727272,
                "pitch": 83,
                "velocity": 80,
                "duration": 0.049999999999998934,
                "tempo": 120.0
            },
            {
                "start_time": 12.331818181818182,
                "end_time": 12.381818181818181,
                "pitch": 84,
                "velocity": 80,
                "duration": 0.049999999999998934,
                "tempo": 120.0
            },
            {
                "start_time": 12.413636363636362,
                "end_time": 12.48181818181818,
                "pitch": 81,
                "velocity": 80,
                "duration": 0.06818181818181834,
                "tempo": 120.0
            },
            {
                "start_time": 12.497727272727271,
                "end_time": 12.563636363636363,
                "pitch": 83,
                "velocity": 80,
                "duration": 0.06590909090909136,
                "tempo": 120.0
            },
            {
                "start_time": 12.595454545454546,
                "end_time": 12.643181818181818,
                "pitch": 84,
                "velocity": 80,
                "duration": 0.04772727272727195,
                "tempo": 120.0
            },
            {
                "start_time": 12.677272727272726,
                "end_time": 12.725,
                "pitch": 86,
                "velocity": 80,
                "duration": 0.04772727272727373,
                "tempo": 120.0
            },
            {
                "start_time": 12.759090909090908,
                "end_time": 12.822727272727272,
                "pitch": 83,
                "velocity": 80,
                "duration": 0.06363636363636438,
                "tempo": 120.0
            },
            {
                "start_time": 12.838636363636363,
                "end_time": 12.906818181818181,
                "pitch": 84,
                "velocity": 80,
                "duration": 0.06818181818181834,
                "tempo": 120.0
            },
            {
                "start_time": 12.943181818181818,
                "end_time": 12.993181818181817,
                "pitch": 86,
                "velocity": 80,
                "duration": 0.049999999999998934,
                "tempo": 120.0
            },
            {
                "start_time": 13.029545454545454,
                "end_time": 13.079545454545453,
                "pitch": 88,
                "velocity": 80,
                "duration": 0.049999999999998934,
                "tempo": 120.0
            },
            {
                "start_time": 13.113636363636363,
                "end_time": 13.184090909090909,
                "pitch": 84,
                "velocity": 80,
                "duration": 0.07045454545454533,
                "tempo": 120.0
            },
            {
                "start_time": 13.2,
                "end_time": 13.268181818181818,
                "pitch": 76,
                "velocity": 80,
                "duration": 0.06818181818181834,
                "tempo": 120.0
            },
            {
                "start_time": 13.302272727272726,
                "end_time": 13.352272727272727,
                "pitch": 81,
                "velocity": 80,
                "duration": 0.05000000000000071,
                "tempo": 120.0
            },
            {
                "start_time": 13.384090909090908,
                "end_time": 13.452272727272726,
                "pitch": 83,
                "velocity": 80,
                "duration": 0.06818181818181834,
                "tempo": 120.0
            },
            {
                "start_time": 13.468181818181817,
                "end_time": 13.536363636363635,
                "pitch": 86,
                "velocity": 80,
                "duration": 0.06818181818181834,
                "tempo": 120.0
            },
            {
                "start_time": 13.568181818181818,
                "end_time": 13.620454545454544,
                "pitch": 84,
                "velocity": 80,
                "duration": 0.052272727272725916,
                "tempo": 120.0
            },
            {
                "start_time": 13.656818181818181,
                "end_time": 13.709090909090909,
                "pitch": 83,
                "velocity": 80,
                "duration": 0.05227272727272769,
                "tempo": 120.0
            },
            {
                "start_time": 13.745454545454544,
                "end_time": 13.81590909090909,
                "pitch": 84,
                "velocity": 80,
                "duration": 0.07045454545454533,
                "tempo": 120.0
            },
            {
                "start_time": 13.834090909090909,
                "end_time": 13.904545454545454,
                "pitch": 81,
                "velocity": 80,
                "duration": 0.07045454545454533,
                "tempo": 120.0
            },
            {
                "start_time": 13.938636363636363,
                "end_time": 13.988636363636363,
                "pitch": 83,
                "velocity": 80,
                "duration": 0.05000000000000071,
                "tempo": 120.0
            },
            {
                "start_time": 14.020454545454545,
                "end_time": 14.068181818181818,
                "pitch": 84,
                "velocity": 80,
                "duration": 0.04772727272727373,
                "tempo": 120.0
            },
            {
                "start_time": 14.102272727272727,
                "end_time": 14.165909090909091,
                "pitch": 86,
                "velocity": 80,
                "duration": 0.06363636363636438,
                "tempo": 120.0
            },
            {
                "start_time": 14.181818181818182,
                "end_time": 14.247727272727271,
                "pitch": 83,
                "velocity": 80,
                "duration": 0.06590909090908958,
                "tempo": 120.0
            },
            {
                "start_time": 14.279545454545454,
                "end_time": 14.33181818181818,
                "pitch": 84,
                "velocity": 80,
                "duration": 0.052272727272725916,
                "tempo": 120.0
            },
            {
                "start_time": 14.36590909090909,
                "end_time": 14.418181818181818,
                "pitch": 86,
                "velocity": 80,
                "duration": 0.05227272727272769,
                "tempo": 120.0
            },
            {
                "start_time": 14.452272727272726,
                "end_time": 14.520454545454545,
                "pitch": 88,
                "velocity": 80,
                "duration": 0.06818181818181834,
                "tempo": 120.0
            },
            {
                "start_time": 14.538636363636362,
                "end_time": 14.60681818181818,
                "pitch": 84,
                "velocity": 80,
                "duration": 0.06818181818181834,
                "tempo": 120.0
            },
            {
                "start_time": 14.643181818181818,
                "end_time": 14.69090909090909,
                "pitch": 76,
                "velocity": 80,
                "duration": 0.04772727272727195,
                "tempo": 120.0
            },
            {
                "start_time": 14.725,
                "end_time": 14.774999999999999,
                "pitch": 81,
                "velocity": 80,
                "duration": 0.049999999999998934,
                "tempo": 120.0
            },
            {
                "start_time": 14.809090909090909,
                "end_time": 14.875,
                "pitch": 83,
                "velocity": 80,
                "duration": 0.06590909090909136,
                "tempo": 120.0
            },
            {
                "start_time": 14.893181818181818,
                "end_time": 14.959090909090909,
                "pitch": 86,
                "velocity": 80,
                "duration": 0.06590909090909136,
                "tempo": 120.0
            },
            {
                "start_time": 14.993181818181817,
                "end_time": 15.043181818181818,
                "pitch": 84,
                "velocity": 80,
                "duration": 0.05000000000000071,
                "tempo": 120.0
            },
            {
                "start_time": 15.077272727272726,
                "end_time": 15.127272727272727,
                "pitch": 83,
                "velocity": 80,
                "duration": 0.05000000000000071,
                "tempo": 120.0
            },
            {
                "start_time": 15.161363636363635,
                "end_time": 15.227272727272727,
                "pitch": 84,
                "velocity": 80,
                "duration": 0.06590909090909136,
                "tempo": 120.0
            },
            {
                "start_time": 15.243181818181817,
                "end_time": 15.311363636363636,
                "pitch": 81,
                "velocity": 80,
                "duration": 0.06818181818181834,
                "tempo": 120.0
            },
            {
                "start_time": 15.343181818181817,
                "end_time": 15.393181818181818,
                "pitch": 83,
                "velocity": 80,
                "duration": 0.05000000000000071,
                "tempo": 120.0
            },
            {
                "start_time": 15.427272727272726,
                "end_time": 15.477272727272727,
                "pitch": 84,
                "velocity": 80,
                "duration": 0.05000000000000071,
                "tempo": 120.0
            },
            {
                "start_time": 15.511363636363635,
                "end_time": 15.577272727272726,
                "pitch": 86,
                "velocity": 80,
                "duration": 0.06590909090909136,
                "tempo": 120.0
            },
            {
                "start_time": 15.611363636363636,
                "end_time": 15.661363636363635,
                "pitch": 83,
                "velocity": 80,
                "duration": 0.049999999999998934,
                "tempo": 120.0
            },
            {
                "start_time": 15.695454545454545,
                "end_time": 15.745454545454544,
                "pitch": 84,
                "velocity": 80,
                "duration": 0.049999999999998934,
                "tempo": 120.0
            },
            {
                "start_time": 15.779545454545454,
                "end_time": 15.845454545454544,
                "pitch": 86,
                "velocity": 80,
                "duration": 0.06590909090908958,
                "tempo": 120.0
            },
            {
                "start_time": 15.863636363636363,
                "end_time": 15.929545454545453,
                "pitch": 88,
                "velocity": 80,
                "duration": 0.06590909090908958,
                "tempo": 120.0
            },
            {
                "start_time": 15.963636363636363,
                "end_time": 16.013636363636362,
                "pitch": 84,
                "velocity": 80,
                "duration": 0.049999999999998934,
                "tempo": 120.0
            },
            {
                "start_time": 16.047727272727272,
                "end_time": 16.097727272727273,
                "pitch": 76,
                "velocity": 80,
                "duration": 0.05000000000000071,
                "tempo": 120.0
            },
            {
                "start_time": 16.129545454545454,
                "end_time": 16.19772727272727,
                "pitch": 81,
                "velocity": 80,
                "duration": 0.06818181818181657,
                "tempo": 120.0
            },
            {
                "start_time": 16.21363636363636,
                "end_time": 16.279545454545453,
                "pitch": 83,
                "velocity": 80,
                "duration": 0.06590909090909136,
                "tempo": 120.0
            },
            {
                "start_time": 16.313636363636363,
                "end_time": 16.363636363636363,
                "pitch": 86,
                "velocity": 80,
                "duration": 0.05000000000000071,
                "tempo": 120.0
            },
            {
                "start_time": 16.397727272727273,
                "end_time": 16.44772727272727,
                "pitch": 84,
                "velocity": 80,
                "duration": 0.04999999999999716,
                "tempo": 120.0
            },
            {
                "start_time": 16.48181818181818,
                "end_time": 16.547727272727272,
                "pitch": 83,
                "velocity": 80,
                "duration": 0.06590909090909136,
                "tempo": 120.0
            },
            {
                "start_time": 16.56590909090909,
                "end_time": 16.631818181818183,
                "pitch": 84,
                "velocity": 80,
                "duration": 0.06590909090909136,
                "tempo": 120.0
            },
            {
                "start_time": 16.66590909090909,
                "end_time": 16.71590909090909,
                "pitch": 81,
                "velocity": 80,
                "duration": 0.05000000000000071,
                "tempo": 120.0
            },
            {
                "start_time": 16.75,
                "end_time": 16.8,
                "pitch": 83,
                "velocity": 80,
                "duration": 0.05000000000000071,
                "tempo": 120.0
            },
            {
                "start_time": 16.831818181818182,
                "end_time": 16.9,
                "pitch": 84,
                "velocity": 80,
                "duration": 0.06818181818181657,
                "tempo": 120.0
            },
            {
                "start_time": 16.91590909090909,
                "end_time": 16.98409090909091,
                "pitch": 86,
                "velocity": 80,
                "duration": 0.06818181818182012,
                "tempo": 120.0
            },
            {
                "start_time": 17.01590909090909,
                "end_time": 17.06590909090909,
                "pitch": 83,
                "velocity": 80,
                "duration": 0.05000000000000071,
                "tempo": 120.0
            },
            {
                "start_time": 17.099999999999998,
                "end_time": 17.15,
                "pitch": 84,
                "velocity": 80,
                "duration": 0.05000000000000071,
                "tempo": 120.0
            },
            {
                "start_time": 17.18409090909091,
                "end_time": 17.25,
                "pitch": 86,
                "velocity": 80,
                "duration": 0.06590909090909136,
                "tempo": 120.0
            },
            {
                "start_time": 17.268181818181816,
                "end_time": 17.334090909090907,
                "pitch": 88,
                "velocity": 80,
                "duration": 0.06590909090909136,
                "tempo": 120.0
            },
            {
                "start_time": 17.368181818181817,
                "end_time": 17.418181818181818,
                "pitch": 84,
                "velocity": 80,
                "duration": 0.05000000000000071,
                "tempo": 120.0
            },
            {
                "start_time": 17.452272727272728,
                "end_time": 17.502272727272725,
                "pitch": 76,
                "velocity": 80,
                "duration": 0.04999999999999716,
                "tempo": 120.0
            },
            {
                "start_time": 17.534090909090907,
                "end_time": 17.602272727272727,
                "pitch": 81,
                "velocity": 80,
                "duration": 0.06818181818182012,
                "tempo": 120.0
            },
            {
                "start_time": 17.618181818181817,
                "end_time": 17.686363636363634,
                "pitch": 83,
                "velocity": 80,
                "duration": 0.06818181818181657,
                "tempo": 120.0
            },
            {
                "start_time": 17.71818181818182,
                "end_time": 17.768181818181816,
                "pitch": 86,
                "velocity": 80,
                "duration": 0.04999999999999716,
                "tempo": 120.0
            },
            {
                "start_time": 17.802272727272726,
                "end_time": 17.870454545454546,
                "pitch": 84,
                "velocity": 80,
                "duration": 0.06818181818182012,
                "tempo": 120.0
            },
            {
                "start_time": 17.886363636363637,
                "end_time": 17.952272727272728,
                "pitch": 83,
                "velocity": 80,
                "duration": 0.06590909090909136,
                "tempo": 120.0
            },
            {
                "start_time": 17.986363636363635,
                "end_time": 18.036363636363635,
                "pitch": 84,
                "velocity": 80,
                "duration": 0.05000000000000071,
                "tempo": 120.0
            },
            {
                "start_time": 18.070454545454545,
                "end_time": 18.120454545454546,
                "pitch": 81,
                "velocity": 80,
                "duration": 0.05000000000000071,
                "tempo": 120.0
            },
            {
                "start_time": 18.154545454545453,
                "end_time": 18.220454545454544,
                "pitch": 83,
                "velocity": 80,
                "duration": 0.06590909090909136,
                "tempo": 120.0
            },
            {
                "start_time": 18.238636363636363,
                "end_time": 18.304545454545455,
                "pitch": 84,
                "velocity": 80,
                "duration": 0.06590909090909136,
                "tempo": 120.0
            },
            {
                "start_time": 18.33863636363636,
                "end_time": 18.388636363636362,
                "pitch": 86,
                "velocity": 80,
                "duration": 0.05000000000000071,
                "tempo": 120.0
            },
            {
                "start_time": 18.422727272727272,
                "end_time": 18.470454545454544,
                "pitch": 83,
                "velocity": 80,
                "duration": 0.04772727272727195,
                "tempo": 120.0
            },
            {
                "start_time": 18.504545454545454,
                "end_time": 18.57272727272727,
                "pitch": 84,
                "velocity": 80,
                "duration": 0.06818181818181657,
                "tempo": 120.0
            },
            {
                "start_time": 18.58863636363636,
                "end_time": 18.654545454545453,
                "pitch": 86,
                "velocity": 80,
                "duration": 0.06590909090909136,
                "tempo": 120.0
            },
            {
                "start_time": 18.688636363636363,
                "end_time": 18.738636363636363,
                "pitch": 88,
                "velocity": 80,
                "duration": 0.05000000000000071,
                "tempo": 120.0
            },
            {
                "start_time": 18.772727272727273,
                "end_time": 18.82272727272727,
                "pitch": 84,
                "velocity": 80,
                "duration": 0.04999999999999716,
                "tempo": 120.0
            },
            {
                "start_time": 18.85681818181818,
                "end_time": 18.922727272727272,
                "pitch": 76,
                "velocity": 80,
                "duration": 0.06590909090909136,
                "tempo": 120.0
            },
            {
                "start_time": 18.94090909090909,
                "end_time": 19.00681818181818,
                "pitch": 81,
                "velocity": 80,
                "duration": 0.06590909090908781,
                "tempo": 120.0
            },
            {
                "start_time": 19.04090909090909,
                "end_time": 19.09090909090909,
                "pitch": 83,
                "velocity": 80,
                "duration": 0.05000000000000071,
                "tempo": 120.0
            },
            {
                "start_time": 19.125,
                "end_time": 19.175,
                "pitch": 86,
                "velocity": 80,
                "duration": 0.05000000000000071,
                "tempo": 120.0
            },
            {
                "start_time": 19.206818181818182,
                "end_time": 19.275,
                "pitch": 84,
                "velocity": 80,
                "duration": 0.06818181818181657,
                "tempo": 120.0
            },
            {
                "start_time": 19.29090909090909,
                "end_time": 19.35681818181818,
                "pitch": 83,
                "velocity": 80,
                "duration": 0.06590909090909136,
                "tempo": 120.0
            },
            {
                "start_time": 19.39090909090909,
                "end_time": 19.44090909090909,
                "pitch": 84,
                "velocity": 80,
                "duration": 0.05000000000000071,
                "tempo": 120.0
            },
            {
                "start_time": 19.474999999999998,
                "end_time": 19.525,
                "pitch": 81,
                "velocity": 80,
                "duration": 0.05000000000000071,
                "tempo": 120.0
            },
            {
                "start_time": 19.55909090909091,
                "end_time": 19.625,
                "pitch": 83,
                "velocity": 80,
                "duration": 0.06590909090909136,
                "tempo": 120.0
            },
            {
                "start_time": 19.643181818181816,
                "end_time": 19.709090909090907,
                "pitch": 84,
                "velocity": 80,
                "duration": 0.06590909090909136,
                "tempo": 120.0
            },
            {
                "start_time": 19.743181818181817,
                "end_time": 19.793181818181818,
                "pitch": 86,
                "velocity": 80,
                "duration": 0.05000000000000071,
                "tempo": 120.0
            },
            {
                "start_time": 19.827272727272728,
                "end_time": 19.893181818181816,
                "pitch": 83,
                "velocity": 80,
                "duration": 0.06590909090908781,
                "tempo": 120.0
            },
            {
                "start_time": 19.909090909090907,
                "end_time": 19.977272727272727,
                "pitch": 84,
                "velocity": 80,
                "duration": 0.06818181818182012,
                "tempo": 120.0
            },
            {
                "start_time": 20.011363636363637,
                "end_time": 20.061363636363634,
                "pitch": 86,
                "velocity": 80,
                "duration": 0.04999999999999716,
                "tempo": 120.0
            },
            {
                "start_time": 20.09318181818182,
                "end_time": 20.143181818181816,
                "pitch": 88,
                "velocity": 80,
                "duration": 0.04999999999999716,
                "tempo": 120.0
            },
            {
                "start_time": 20.177272727272726,
                "end_time": 20.243181818181817,
                "pitch": 84,
                "velocity": 80,
                "duration": 0.06590909090909136,
                "tempo": 120.0
            },
            {
                "start_time": 20.261363636363637,
                "end_time": 20.327272727272728,
                "pitch": 76,
                "velocity": 80,
                "duration": 0.06590909090909136,
                "tempo": 120.0
            },
            {
                "start_time": 20.361363636363635,
                "end_time": 20.411363636363635,
                "pitch": 81,
                "velocity": 80,
                "duration": 0.05000000000000071,
                "tempo": 120.0
            },
            {
                "start_time": 20.445454545454545,
                "end_time": 20.495454545454546,
                "pitch": 83,
                "velocity": 80,
                "duration": 0.05000000000000071,
                "tempo": 120.0
            },
            {
                "start_time": 20.529545454545453,
                "end_time": 20.595454545454544,
                "pitch": 86,
                "velocity": 80,
                "duration": 0.06590909090909136,
                "tempo": 120.0
            },
            {
                "start_time": 20.611363636363635,
                "end_time": 20.679545454545455,
                "pitch": 84,
                "velocity": 80,
                "duration": 0.06818181818182012,
                "tempo": 120.0
            },
            {
                "start_time": 20.71363636363636,
                "end_time": 20.763636363636362,
                "pitch": 83,
                "velocity": 80,
                "duration": 0.05000000000000071,
                "tempo": 120.0
            },
            {
                "start_time": 20.795454545454543,
                "end_time": 20.845454545454544,
                "pitch": 84,
                "velocity": 80,
                "duration": 0.05000000000000071,
                "tempo": 120.0
            },
            {
                "start_time": 20.879545454545454,
                "end_time": 20.94772727272727,
                "pitch": 81,
                "velocity": 80,
                "duration": 0.06818181818181657,
                "tempo": 120.0
            },
            {
                "start_time": 20.96363636363636,
                "end_time": 21.029545454545453,
                "pitch": 83,
                "velocity": 80,
                "duration": 0.06590909090909136,
                "tempo": 120.0
            },
            {
                "start_time": 21.063636363636363,
                "end_time": 21.113636363636363,
                "pitch": 84,
                "velocity": 80,
                "duration": 0.05000000000000071,
                "tempo": 120.0
            },
            {
                "start_time": 21.147727272727273,
                "end_time": 21.19772727272727,
                "pitch": 86,
                "velocity": 80,
                "duration": 0.04999999999999716,
                "tempo": 120.0
            },
            {
                "start_time": 21.23181818181818,
                "end_time": 21.297727272727272,
                "pitch": 83,
                "velocity": 80,
                "duration": 0.06590909090909136,
                "tempo": 120.0
            },
            {
                "start_time": 21.31590909090909,
                "end_time": 21.384090909090908,
                "pitch": 84,
                "velocity": 80,
                "duration": 0.06818181818181657,
                "tempo": 120.0
            },
            {
                "start_time": 21.418181818181818,
                "end_time": 21.470454545454544,
                "pitch": 86,
                "velocity": 80,
                "duration": 0.052272727272725916,
                "tempo": 120.0
            },
            {
                "start_time": 21.504545454545454,
                "end_time": 21.554545454545455,
                "pitch": 88,
                "velocity": 80,
                "duration": 0.05000000000000071,
                "tempo": 120.0
            },
            {
                "start_time": 21.59090909090909,
                "end_time": 21.659090909090907,
                "pitch": 84,
                "velocity": 80,
                "duration": 0.06818181818181657,
                "tempo": 120.0
            },
            {
                "start_time": 21.677272727272726,
                "end_time": 21.74090909090909,
                "pitch": 76,
                "velocity": 80,
                "duration": 0.0636363636363626,
                "tempo": 120.0
            },
            {
                "start_time": 21.775,
                "end_time": 21.82272727272727,
                "pitch": 81,
                "velocity": 80,
                "duration": 0.04772727272727195,
                "tempo": 120.0
            },
            {
                "start_time": 21.854545454545452,
                "end_time": 21.904545454545453,
                "pitch": 83,
                "velocity": 80,
                "duration": 0.05000000000000071,
                "tempo": 120.0
            },
            {
                "start_time": 21.936363636363634,
                "end_time": 22.002272727272725,
                "pitch": 86,
                "velocity": 80,
                "duration": 0.06590909090909136,
                "tempo": 120.0
            },
            {
                "start_time": 22.034090909090907,
                "end_time": 22.086363636363636,
                "pitch": 84,
                "velocity": 80,
                "duration": 0.05227272727272947,
                "tempo": 120.0
            },
            {
                "start_time": 22.12272727272727,
                "end_time": 22.174999999999997,
                "pitch": 83,
                "velocity": 80,
                "duration": 0.052272727272725916,
                "tempo": 120.0
            },
            {
                "start_time": 22.211363636363636,
                "end_time": 22.279545454545453,
                "pitch": 84,
                "velocity": 80,
                "duration": 0.06818181818181657,
                "tempo": 120.0
            },
            {
                "start_time": 22.297727272727272,
                "end_time": 22.368181818181817,
                "pitch": 81,
                "velocity": 80,
                "duration": 0.07045454545454533,
                "tempo": 120.0
            },
            {
                "start_time": 22.404545454545453,
                "end_time": 22.454545454545453,
                "pitch": 83,
                "velocity": 80,
                "duration": 0.05000000000000071,
                "tempo": 120.0
            },
            {
                "start_time": 22.488636363636363,
                "end_time": 22.538636363636364,
                "pitch": 84,
                "velocity": 80,
                "duration": 0.05000000000000071,
                "tempo": 120.0
            },
            {
                "start_time": 22.57272727272727,
                "end_time": 22.638636363636362,
                "pitch": 86,
                "velocity": 80,
                "duration": 0.06590909090909136,
                "tempo": 120.0
            },
            {
                "start_time": 22.654545454545453,
                "end_time": 22.722727272727273,
                "pitch": 83,
                "velocity": 80,
                "duration": 0.06818181818182012,
                "tempo": 120.0
            },
            {
                "start_time": 22.75681818181818,
                "end_time": 22.804545454545455,
                "pitch": 84,
                "velocity": 80,
                "duration": 0.047727272727275505,
                "tempo": 120.0
            },
            {
                "start_time": 22.83863636363636,
                "end_time": 22.888636363636362,
                "pitch": 86,
                "velocity": 80,
                "duration": 0.05000000000000071,
                "tempo": 120.0
            },
            {
                "start_time": 22.922727272727272,
                "end_time": 22.988636363636363,
                "pitch": 88,
                "velocity": 80,
                "duration": 0.06590909090909136,
                "tempo": 120.0
            },
            {
                "start_time": 23.00681818181818,
                "end_time": 23.07272727272727,
                "pitch": 84,
                "velocity": 80,
                "duration": 0.06590909090909136,
                "tempo": 120.0
            },
            {
                "start_time": 23.10681818181818,
                "end_time": 23.159090909090907,
                "pitch": 76,
                "velocity": 80,
                "duration": 0.052272727272725916,
                "tempo": 120.0
            },
            {
                "start_time": 23.193181818181817,
                "end_time": 23.243181818181817,
                "pitch": 81,
                "velocity": 80,
                "duration": 0.05000000000000071,
                "tempo": 120.0
            },
            {
                "start_time": 23.279545454545453,
                "end_time": 23.347727272727273,
                "pitch": 83,
                "velocity": 80,
                "duration": 0.06818181818182012,
                "tempo": 120.0
            },
            {
                "start_time": 23.36590909090909,
                "end_time": 23.43409090909091,
                "pitch": 86,
                "velocity": 80,
                "duration": 0.06818181818182012,
                "tempo": 120.0
            },
            {
                "start_time": 23.46818181818182,
                "end_time": 23.518181818181816,
                "pitch": 84,
                "velocity": 80,
                "duration": 0.04999999999999716,
                "tempo": 120.0
            },
            {
                "start_time": 23.552272727272726,
                "end_time": 23.602272727272727,
                "pitch": 83,
                "velocity": 80,
                "duration": 0.05000000000000071,
                "tempo": 120.0
            },
            {
                "start_time": 23.636363636363637,
                "end_time": 23.702272727272724,
                "pitch": 84,
                "velocity": 80,
                "duration": 0.06590909090908781,
                "tempo": 120.0
            },
            {
                "start_time": 23.720454545454544,
                "end_time": 23.786363636363635,
                "pitch": 81,
                "velocity": 80,
                "duration": 0.06590909090909136,
                "tempo": 120.0
            },
            {
                "start_time": 23.820454545454545,
                "end_time": 23.868181818181817,
                "pitch": 83,
                "velocity": 80,
                "duration": 0.04772727272727195,
                "tempo": 120.0
            },
            {
                "start_time": 23.902272727272727,
                "end_time": 23.95,
                "pitch": 84,
                "velocity": 80,
                "duration": 0.04772727272727195,
                "tempo": 120.0
            },
            {
                "start_time": 23.98181818181818,
                "end_time": 24.047727272727272,
                "pitch": 86,
                "velocity": 80,
                "duration": 0.06590909090909136,
                "tempo": 120.0
            },
            {
                "start_time": 24.063636363636363,
                "end_time": 24.129545454545454,
                "pitch": 83,
                "velocity": 80,
                "duration": 0.06590909090909136,
                "tempo": 120.0
            },
            {
                "start_time": 24.161363636363635,
                "end_time": 24.211363636363636,
                "pitch": 84,
                "velocity": 80,
                "duration": 0.05000000000000071,
                "tempo": 120.0
            },
            {
                "start_time": 24.24772727272727,
                "end_time": 24.31590909090909,
                "pitch": 86,
                "velocity": 80,
                "duration": 0.06818181818182012,
                "tempo": 120.0
            },
            {
                "start_time": 24.331818181818182,
                "end_time": 24.402272727272727,
                "pitch": 88,
                "velocity": 80,
                "duration": 0.07045454545454533,
                "tempo": 120.0
            },
            {
                "start_time": 24.436363636363634,
                "end_time": 24.488636363636363,
                "pitch": 84,
                "velocity": 80,
                "duration": 0.05227272727272947,
                "tempo": 120.0
            },
            {
                "start_time": 24.52272727272727,
                "end_time": 24.57272727272727,
                "pitch": 76,
                "velocity": 80,
                "duration": 0.05000000000000071,
                "tempo": 120.0
            },
            {
                "start_time": 24.60681818181818,
                "end_time": 24.672727272727272,
                "pitch": 81,
                "velocity": 80,
                "duration": 0.06590909090909136,
                "tempo": 120.0
            },
            {
                "start_time": 24.69090909090909,
                "end_time": 24.75681818181818,
                "pitch": 83,
                "velocity": 80,
                "duration": 0.06590909090908781,
                "tempo": 120.0
            },
            {
                "start_time": 24.79090909090909,
                "end_time": 24.84090909090909,
                "pitch": 86,
                "velocity": 80,
                "duration": 0.05000000000000071,
                "tempo": 120.0
            },
            {
                "start_time": 24.875,
                "end_time": 24.922727272727272,
                "pitch": 84,
                "velocity": 80,
                "duration": 0.04772727272727195,
                "tempo": 120.0
            },
            {
                "start_time": 24.956818181818182,
                "end_time": 25.025,
                "pitch": 83,
                "velocity": 80,
                "duration": 0.06818181818181657,
                "tempo": 120.0
            },
            {
                "start_time": 25.04090909090909,
                "end_time": 25.10681818181818,
                "pitch": 84,
                "velocity": 80,
                "duration": 0.06590909090909136,
                "tempo": 120.0
            },
            {
                "start_time": 25.14090909090909,
                "end_time": 25.19090909090909,
                "pitch": 81,
                "velocity": 80,
                "duration": 0.05000000000000071,
                "tempo": 120.0
            },
            {
                "start_time": 25.224999999999998,
                "end_time": 25.275,
                "pitch": 83,
                "velocity": 80,
                "duration": 0.05000000000000071,
                "tempo": 120.0
            },
            {
                "start_time": 25.30909090909091,
                "end_time": 25.375,
                "pitch": 84,
                "velocity": 80,
                "duration": 0.06590909090909136,
                "tempo": 120.0
            },
            {
                "start_time": 25.393181818181816,
                "end_time": 25.459090909090907,
                "pitch": 86,
                "velocity": 80,
                "duration": 0.06590909090909136,
                "tempo": 120.0
            },
            {
                "start_time": 25.493181818181817,
                "end_time": 25.543181818181818,
                "pitch": 83,
                "velocity": 80,
                "duration": 0.05000000000000071,
                "tempo": 120.0
            },
            {
                "start_time": 25.577272727272724,
                "end_time": 25.627272727272725,
                "pitch": 84,
                "velocity": 80,
                "duration": 0.05000000000000071,
                "tempo": 120.0
            },
            {
                "start_time": 25.659090909090907,
                "end_time": 25.727272727272727,
                "pitch": 86,
                "velocity": 80,
                "duration": 0.06818181818182012,
                "tempo": 120.0
            },
            {
                "start_time": 25.743181818181817,
                "end_time": 25.811363636363634,
                "pitch": 88,
                "velocity": 80,
                "duration": 0.06818181818181657,
                "tempo": 120.0
            },
            {
                "start_time": 25.84318181818182,
                "end_time": 25.893181818181816,
                "pitch": 84,
                "velocity": 80,
                "duration": 0.04999999999999716,
                "tempo": 120.0
            },
            {
                "start_time": 25.927272727272726,
                "end_time": 25.977272727272727,
                "pitch": 76,
                "velocity": 80,
                "duration": 0.05000000000000071,
                "tempo": 120.0
            },
            {
                "start_time": 26.011363636363637,
                "end_time": 26.077272727272724,
                "pitch": 81,
                "velocity": 80,
                "duration": 0.06590909090908781,
                "tempo": 120.0
            },
            {
                "start_time": 26.095454545454544,
                "end_time": 26.161363636363635,
                "pitch": 83,
                "velocity": 80,
                "duration": 0.06590909090909136,
                "tempo": 120.0
            },
            {
                "start_time": 26.195454545454545,
                "end_time": 26.245454545454542,
                "pitch": 86,
                "velocity": 80,
                "duration": 0.04999999999999716,
                "tempo": 120.0
            },
            {
                "start_time": 26.279545454545453,
                "end_time": 26.345454545454544,
                "pitch": 84,
                "velocity": 80,
                "duration": 0.06590909090909136,
                "tempo": 120.0
            },
            {
                "start_time": 26.361363636363635,
                "end_time": 26.429545454545455,
                "pitch": 83,
                "velocity": 80,
                "duration": 0.06818181818182012,
                "tempo": 120.0
            },
            {
                "start_time": 26.46363636363636,
                "end_time": 26.513636363636362,
                "pitch": 84,
                "velocity": 80,
                "duration": 0.05000000000000071,
                "tempo": 120.0
            },
            {
                "start_time": 26.545454545454543,
                "end_time": 26.595454545454544,
                "pitch": 81,
                "velocity": 80,
                "duration": 0.05000000000000071,
                "tempo": 120.0
            },
            {
                "start_time": 26.629545454545454,
                "end_time": 26.69772727272727,
                "pitch": 83,
                "velocity": 80,
                "duration": 0.06818181818181657,
                "tempo": 120.0
            },
            {
                "start_time": 26.71363636363636,
                "end_time": 26.779545454545453,
                "pitch": 84,
                "velocity": 80,
                "duration": 0.06590909090909136,
                "tempo": 120.0
            },
            {
                "start_time": 26.813636363636363,
                "end_time": 26.863636363636363,
                "pitch": 86,
                "velocity": 80,
                "duration": 0.05000000000000071,
                "tempo": 120.0
            },
            {
                "start_time": 26.89772727272727,
                "end_time": 26.94772727272727,
                "pitch": 83,
                "velocity": 80,
                "duration": 0.05000000000000071,
                "tempo": 120.0
            },
            {
                "start_time": 26.98181818181818,
                "end_time": 27.047727272727272,
                "pitch": 84,
                "velocity": 80,
                "duration": 0.06590909090909136,
                "tempo": 120.0
            },
            {
                "start_time": 27.06590909090909,
                "end_time": 27.13181818181818,
                "pitch": 86,
                "velocity": 80,
                "duration": 0.06590909090908781,
                "tempo": 120.0
            },
            {
                "start_time": 27.16590909090909,
                "end_time": 27.21590909090909,
                "pitch": 88,
                "velocity": 80,
                "duration": 0.05000000000000071,
                "tempo": 120.0
            },
            {
                "start_time": 27.24772727272727,
                "end_time": 27.297727272727272,
                "pitch": 84,
                "velocity": 80,
                "duration": 0.05000000000000071,
                "tempo": 120.0
            },
            {
                "start_time": 27.331818181818182,
                "end_time": 27.4,
                "pitch": 76,
                "velocity": 80,
                "duration": 0.06818181818181657,
                "tempo": 120.0
            },
            {
                "start_time": 27.41590909090909,
                "end_time": 27.48181818181818,
                "pitch": 81,
                "velocity": 80,
                "duration": 0.06590909090909136,
                "tempo": 120.0
            },
            {
                "start_time": 27.51590909090909,
                "end_time": 27.565909090909088,
                "pitch": 83,
                "velocity": 80,
                "duration": 0.04999999999999716,
                "tempo": 120.0
            },
            {
                "start_time": 27.599999999999998,
                "end_time": 27.65,
                "pitch": 86,
                "velocity": 80,
                "duration": 0.05000000000000071,
                "tempo": 120.0
            },
            {
                "start_time": 27.68409090909091,
                "end_time": 27.75,
                "pitch": 84,
                "velocity": 80,
                "duration": 0.06590909090909136,
                "tempo": 120.0
            },
            {
                "start_time": 27.768181818181816,
                "end_time": 27.834090909090907,
                "pitch": 83,
                "velocity": 80,
                "duration": 0.06590909090909136,
                "tempo": 120.0
            },
            {
                "start_time": 27.868181818181817,
                "end_time": 27.918181818181818,
                "pitch": 84,
                "velocity": 80,
                "duration": 0.05000000000000071,
                "tempo": 120.0
            },
            {
                "start_time": 27.952272727272724,
                "end_time": 28.002272727272725,
                "pitch": 81,
                "velocity": 80,
                "duration": 0.05000000000000071,
                "tempo": 120.0
            },
            {
                "start_time": 28.034090909090907,
                "end_time": 28.102272727272727,
                "pitch": 83,
                "velocity": 80,
                "duration": 0.06818181818182012,
                "tempo": 120.0
            },
            {
                "start_time": 28.118181818181817,
                "end_time": 28.18409090909091,
                "pitch": 84,
                "velocity": 80,
                "duration": 0.06590909090909136,
                "tempo": 120.0
            },
            {
                "start_time": 28.218181818181815,
                "end_time": 28.268181818181816,
                "pitch": 86,
                "velocity": 80,
                "duration": 0.05000000000000071,
                "tempo": 120.0
            },
            {
                "start_time": 28.302272727272726,
                "end_time": 28.352272727272727,
                "pitch": 83,
                "velocity": 80,
                "duration": 0.05000000000000071,
                "tempo": 120.0
            },
            {
                "start_time": 28.386363636363637,
                "end_time": 28.452272727272724,
                "pitch": 84,
                "velocity": 80,
                "duration": 0.06590909090908781,
                "tempo": 120.0
            },
            {
                "start_time": 28.486363636363635,
                "end_time": 28.536363636363635,
                "pitch": 86,
                "velocity": 80,
                "duration": 0.05000000000000071,
                "tempo": 120.0
            },
            {
                "start_time": 28.570454545454545,
                "end_time": 28.620454545454542,
                "pitch": 88,
                "velocity": 80,
                "duration": 0.04999999999999716,
                "tempo": 120.0
            },
            {
                "start_time": 28.654545454545453,
                "end_time": 28.720454545454544,
                "pitch": 84,
                "velocity": 80,
                "duration": 0.06590909090909136,
                "tempo": 120.0
            },
            {
                "start_time": 34.404545454545456,
                "end_time": 34.45454545454545,
                "pitch": 76,
                "velocity": 80,
                "duration": 0.04999999999999716,
                "tempo": 120.0
            },
            {
                "start_time": 34.48863636363636,
                "end_time": 34.554545454545455,
                "pitch": 81,
                "velocity": 80,
                "duration": 0.06590909090909491,
                "tempo": 120.0
            },
            {
                "start_time": 34.570454545454545,
                "end_time": 34.638636363636365,
                "pitch": 83,
                "velocity": 80,
                "duration": 0.06818181818182012,
                "tempo": 120.0
            },
            {
                "start_time": 34.67272727272727,
                "end_time": 34.72272727272727,
                "pitch": 86,
                "velocity": 80,
                "duration": 0.04999999999999716,
                "tempo": 120.0
            },
            {
                "start_time": 34.75454545454545,
                "end_time": 34.804545454545455,
                "pitch": 84,
                "velocity": 80,
                "duration": 0.05000000000000426,
                "tempo": 120.0
            },
            {
                "start_time": 34.83863636363636,
                "end_time": 34.904545454545456,
                "pitch": 83,
                "velocity": 80,
                "duration": 0.06590909090909491,
                "tempo": 120.0
            },
            {
                "start_time": 34.93863636363636,
                "end_time": 34.98863636363636,
                "pitch": 84,
                "velocity": 80,
                "duration": 0.04999999999999716,
                "tempo": 120.0
            },
            {
                "start_time": 35.02272727272727,
                "end_time": 35.07272727272727,
                "pitch": 81,
                "velocity": 80,
                "duration": 0.04999999999999716,
                "tempo": 120.0
            },
            {
                "start_time": 35.10681818181818,
                "end_time": 35.17045454545455,
                "pitch": 83,
                "velocity": 80,
                "duration": 0.06363636363636971,
                "tempo": 120.0
            },
            {
                "start_time": 35.18863636363636,
                "end_time": 35.252272727272725,
                "pitch": 84,
                "velocity": 80,
                "duration": 0.0636363636363626,
                "tempo": 120.0
            },
            {
                "start_time": 35.28636363636363,
                "end_time": 35.33409090909091,
                "pitch": 86,
                "velocity": 80,
                "duration": 0.04772727272727906,
                "tempo": 120.0
            },
            {
                "start_time": 35.36590909090909,
                "end_time": 35.41590909090909,
                "pitch": 83,
                "velocity": 80,
                "duration": 0.04999999999999716,
                "tempo": 120.0
            },
            {
                "start_time": 35.44772727272727,
                "end_time": 35.51590909090909,
                "pitch": 84,
                "velocity": 80,
                "duration": 0.06818181818182012,
                "tempo": 120.0
            },
            {
                "start_time": 35.53409090909091,
                "end_time": 35.60227272727273,
                "pitch": 86,
                "velocity": 80,
                "duration": 0.06818181818182012,
                "tempo": 120.0
            },
            {
                "start_time": 35.63636363636363,
                "end_time": 35.68863636363636,
                "pitch": 88,
                "velocity": 80,
                "duration": 0.05227272727272947,
                "tempo": 120.0
            },
            {
                "start_time": 35.72272727272727,
                "end_time": 35.775,
                "pitch": 84,
                "velocity": 80,
                "duration": 0.05227272727272947,
                "tempo": 120.0
            },
            {
                "start_time": 35.809090909090905,
                "end_time": 35.875,
                "pitch": 76,
                "velocity": 80,
                "duration": 0.06590909090909491,
                "tempo": 120.0
            },
            {
                "start_time": 35.893181818181816,
                "end_time": 35.95909090909091,
                "pitch": 81,
                "velocity": 80,
                "duration": 0.06590909090909491,
                "tempo": 120.0
            },
            {
                "start_time": 35.99318181818182,
                "end_time": 36.043181818181814,
                "pitch": 83,
                "velocity": 80,
                "duration": 0.04999999999999716,
                "tempo": 120.0
            },
            {
                "start_time": 36.07727272727273,
                "end_time": 36.127272727272725,
                "pitch": 86,
                "velocity": 80,
                "duration": 0.04999999999999716,
                "tempo": 120.0
            },
            {
                "start_time": 36.16136363636363,
                "end_time": 36.22727272727273,
                "pitch": 84,
                "velocity": 80,
                "duration": 0.06590909090909491,
                "tempo": 120.0
            },
            {
                "start_time": 36.24318181818182,
                "end_time": 36.31136363636364,
                "pitch": 83,
                "velocity": 80,
                "duration": 0.06818181818182012,
                "tempo": 120.0
            },
            {
                "start_time": 36.345454545454544,
                "end_time": 36.39545454545454,
                "pitch": 84,
                "velocity": 80,
                "duration": 0.04999999999999716,
                "tempo": 120.0
            },
            {
                "start_time": 36.42727272727272,
                "end_time": 36.47727272727273,
                "pitch": 81,
                "velocity": 80,
                "duration": 0.05000000000000426,
                "tempo": 120.0
            },
            {
                "start_time": 36.51136363636363,
                "end_time": 36.57727272727273,
                "pitch": 83,
                "velocity": 80,
                "duration": 0.06590909090909491,
                "tempo": 120.0
            },
            {
                "start_time": 36.595454545454544,
                "end_time": 36.66136363636363,
                "pitch": 84,
                "velocity": 80,
                "duration": 0.06590909090908781,
                "tempo": 120.0
            },
            {
                "start_time": 36.695454545454545,
                "end_time": 36.74545454545454,
                "pitch": 86,
                "velocity": 80,
                "duration": 0.04999999999999716,
                "tempo": 120.0
            },
            {
                "start_time": 36.779545454545456,
                "end_time": 36.82954545454545,
                "pitch": 83,
                "velocity": 80,
                "duration": 0.04999999999999716,
                "tempo": 120.0
            },
            {
                "start_time": 36.86363636363636,
                "end_time": 36.929545454545455,
                "pitch": 84,
                "velocity": 80,
                "duration": 0.06590909090909491,
                "tempo": 120.0
            },
            {
                "start_time": 36.945454545454545,
                "end_time": 37.01363636363636,
                "pitch": 86,
                "velocity": 80,
                "duration": 0.06818181818181301,
                "tempo": 120.0
            },
            {
                "start_time": 37.04772727272727,
                "end_time": 37.09772727272727,
                "pitch": 88,
                "velocity": 80,
                "duration": 0.04999999999999716,
                "tempo": 120.0
            },
            {
                "start_time": 37.12954545454545,
                "end_time": 37.19772727272727,
                "pitch": 84,
                "velocity": 80,
                "duration": 0.06818181818182012,
                "tempo": 120.0
            },
            {
                "start_time": 37.215909090909086,
                "end_time": 37.28181818181818,
                "pitch": 76,
                "velocity": 80,
                "duration": 0.06590909090909491,
                "tempo": 120.0
            },
            {
                "start_time": 37.31363636363636,
                "end_time": 37.36363636363636,
                "pitch": 81,
                "velocity": 80,
                "duration": 0.04999999999999716,
                "tempo": 120.0
            },
            {
                "start_time": 37.39772727272727,
                "end_time": 37.44772727272727,
                "pitch": 83,
                "velocity": 80,
                "duration": 0.04999999999999716,
                "tempo": 120.0
            },
            {
                "start_time": 37.48181818181818,
                "end_time": 37.54772727272727,
                "pitch": 86,
                "velocity": 80,
                "duration": 0.06590909090909491,
                "tempo": 120.0
            },
            {
                "start_time": 37.56590909090909,
                "end_time": 37.63181818181818,
                "pitch": 84,
                "velocity": 80,
                "duration": 0.06590909090909491,
                "tempo": 120.0
            },
            {
                "start_time": 37.66590909090909,
                "end_time": 37.715909090909086,
                "pitch": 83,
                "velocity": 80,
                "duration": 0.04999999999999716,
                "tempo": 120.0
            },
            {
                "start_time": 37.75,
                "end_time": 37.8,
                "pitch": 84,
                "velocity": 80,
                "duration": 0.04999999999999716,
                "tempo": 120.0
            },
            {
                "start_time": 37.83409090909091,
                "end_time": 37.9,
                "pitch": 81,
                "velocity": 80,
                "duration": 0.06590909090908781,
                "tempo": 120.0
            },
            {
                "start_time": 37.91590909090909,
                "end_time": 37.98409090909091,
                "pitch": 83,
                "velocity": 80,
                "duration": 0.06818181818182012,
                "tempo": 120.0
            },
            {
                "start_time": 38.01590909090909,
                "end_time": 38.06590909090909,
                "pitch": 84,
                "velocity": 80,
                "duration": 0.04999999999999716,
                "tempo": 120.0
            },
            {
                "start_time": 38.1,
                "end_time": 38.15,
                "pitch": 86,
                "velocity": 80,
                "duration": 0.04999999999999716,
                "tempo": 120.0
            },
            {
                "start_time": 38.184090909090905,
                "end_time": 38.25,
                "pitch": 83,
                "velocity": 80,
                "duration": 0.06590909090909491,
                "tempo": 120.0
            },
            {
                "start_time": 38.268181818181816,
                "end_time": 38.33409090909091,
                "pitch": 84,
                "velocity": 80,
                "duration": 0.06590909090909491,
                "tempo": 120.0
            },
            {
                "start_time": 38.36818181818182,
                "end_time": 38.418181818181814,
                "pitch": 86,
                "velocity": 80,
                "duration": 0.04999999999999716,
                "tempo": 120.0
            },
            {
                "start_time": 38.45227272727273,
                "end_time": 38.502272727272725,
                "pitch": 88,
                "velocity": 80,
                "duration": 0.04999999999999716,
                "tempo": 120.0
            },
            {
                "start_time": 38.53636363636363,
                "end_time": 38.60227272727273,
                "pitch": 84,
                "velocity": 80,
                "duration": 0.06590909090909491,
                "tempo": 120.0
            },
            {
                "start_time": 38.62045454545454,
                "end_time": 38.68636363636364,
                "pitch": 76,
                "velocity": 80,
                "duration": 0.06590909090909491,
                "tempo": 120.0
            },
            {
                "start_time": 38.720454545454544,
                "end_time": 38.768181818181816,
                "pitch": 81,
                "velocity": 80,
                "duration": 0.04772727272727195,
                "tempo": 120.0
            },
            {
                "start_time": 38.80227272727272,
                "end_time": 38.85227272727273,
                "pitch": 83,
                "velocity": 80,
                "duration": 0.05000000000000426,
                "tempo": 120.0
            },
            {
                "start_time": 38.88636363636363,
                "end_time": 38.95227272727273,
                "pitch": 86,
                "velocity": 80,
                "duration": 0.06590909090909491,
                "tempo": 120.0
            },
            {
                "start_time": 38.970454545454544,
                "end_time": 39.03636363636363,
                "pitch": 84,
                "velocity": 80,
                "duration": 0.06590909090908781,
                "tempo": 120.0
            },
            {
                "start_time": 39.070454545454545,
                "end_time": 39.12045454545454,
                "pitch": 83,
                "velocity": 80,
                "duration": 0.04999999999999716,
                "tempo": 120.0
            },
            {
                "start_time": 39.154545454545456,
                "end_time": 39.220454545454544,
                "pitch": 84,
                "velocity": 80,
                "duration": 0.06590909090908781,
                "tempo": 120.0
            },
            {
                "start_time": 39.23863636363636,
                "end_time": 39.304545454545455,
                "pitch": 81,
                "velocity": 80,
                "duration": 0.06590909090909491,
                "tempo": 120.0
            },
            {
                "start_time": 39.33863636363636,
                "end_time": 39.39090909090909,
                "pitch": 83,
                "velocity": 80,
                "duration": 0.05227272727272947,
                "tempo": 120.0
            },
            {
                "start_time": 39.42727272727272,
                "end_time": 39.47954545454545,
                "pitch": 84,
                "velocity": 80,
                "duration": 0.05227272727272947,
                "tempo": 120.0
            },
            {
                "start_time": 39.51363636363636,
                "end_time": 39.584090909090904,
                "pitch": 86,
                "velocity": 80,
                "duration": 0.07045454545454533,
                "tempo": 120.0
            },
            {
                "start_time": 39.60227272727273,
                "end_time": 39.67272727272727,
                "pitch": 83,
                "velocity": 80,
                "duration": 0.07045454545454533,
                "tempo": 120.0
            },
            {
                "start_time": 39.709090909090904,
                "end_time": 39.75909090909091,
                "pitch": 84,
                "velocity": 80,
                "duration": 0.05000000000000426,
                "tempo": 120.0
            },
            {
                "start_time": 39.793181818181814,
                "end_time": 39.84318181818182,
                "pitch": 86,
                "velocity": 80,
                "duration": 0.05000000000000426,
                "tempo": 120.0
            },
            {
                "start_time": 39.875,
                "end_time": 39.94318181818181,
                "pitch": 88,
                "velocity": 80,
                "duration": 0.06818181818181301,
                "tempo": 120.0
            },
            {
                "start_time": 39.959090909090904,
                "end_time": 40.027272727272724,
                "pitch": 84,
                "velocity": 80,
                "duration": 0.06818181818182012,
                "tempo": 120.0
            },
            {
                "start_time": 45.69090909090909,
                "end_time": 45.75681818181818,
                "pitch": 76,
                "velocity": 80,
                "duration": 0.06590909090909491,
                "tempo": 120.0
            },
            {
                "start_time": 45.79090909090909,
                "end_time": 45.840909090909086,
                "pitch": 80,
                "velocity": 80,
                "duration": 0.04999999999999716,
                "tempo": 120.0
            },
            {
                "start_time": 45.875,
                "end_time": 45.925,
                "pitch": 83,
                "velocity": 80,
                "duration": 0.04999999999999716,
                "tempo": 120.0
            },
            {
                "start_time": 45.959090909090904,
                "end_time": 46.025,
                "pitch": 86,
                "velocity": 80,
                "duration": 0.06590909090909491,
                "tempo": 120.0
            },
            {
                "start_time": 46.043181818181814,
                "end_time": 46.10909090909091,
                "pitch": 84,
                "velocity": 80,
                "duration": 0.06590909090909491,
                "tempo": 120.0
            },
            {
                "start_time": 46.143181818181816,
                "end_time": 46.19318181818181,
                "pitch": 83,
                "velocity": 80,
                "duration": 0.04999999999999716,
                "tempo": 120.0
            },
            {
                "start_time": 46.22727272727273,
                "end_time": 46.277272727272724,
                "pitch": 84,
                "velocity": 80,
                "duration": 0.04999999999999716,
                "tempo": 120.0
            },
            {
                "start_time": 46.309090909090905,
                "end_time": 46.377272727272725,
                "pitch": 80,
                "velocity": 80,
                "duration": 0.06818181818182012,
                "tempo": 120.0
            },
            {
                "start_time": 46.393181818181816,
                "end_time": 46.459090909090904,
                "pitch": 83,
                "velocity": 80,
                "duration": 0.06590909090908781,
                "tempo": 120.0
            },
            {
                "start_time": 46.49090909090909,
                "end_time": 46.538636363636364,
                "pitch": 84,
                "velocity": 80,
                "duration": 0.04772727272727195,
                "tempo": 120.0
            },
            {
                "start_time": 46.57272727272727,
                "end_time": 46.62045454545454,
                "pitch": 86,
                "velocity": 80,
                "duration": 0.04772727272727195,
                "tempo": 120.0
            },
            {
                "start_time": 46.65454545454545,
                "end_time": 46.71818181818182,
                "pitch": 83,
                "velocity": 80,
                "duration": 0.06363636363636971,
                "tempo": 120.0
            },
            {
                "start_time": 46.73409090909091,
                "end_time": 46.80227272727272,
                "pitch": 84,
                "velocity": 80,
                "duration": 0.06818181818181301,
                "tempo": 120.0
            },
            {
                "start_time": 46.83863636363636,
                "end_time": 46.88863636363636,
                "pitch": 86,
                "velocity": 80,
                "duration": 0.04999999999999716,
                "tempo": 120.0
            },
            {
                "start_time": 46.92272727272727,
                "end_time": 46.974999999999994,
                "pitch": 88,
                "velocity": 80,
                "duration": 0.052272727272722364,
                "tempo": 120.0
            },
            {
                "start_time": 47.00909090909091,
                "end_time": 47.07954545454545,
                "pitch": 84,
                "velocity": 80,
                "duration": 0.07045454545454533,
                "tempo": 120.0
            },
            {
                "start_time": 47.095454545454544,
                "end_time": 47.163636363636364,
                "pitch": 76,
                "velocity": 80,
                "duration": 0.06818181818182012,
                "tempo": 120.0
            },
            {
                "start_time": 47.195454545454545,
                "end_time": 47.24545454545454,
                "pitch": 80,
                "velocity": 80,
                "duration": 0.04999999999999716,
                "tempo": 120.0
            },
            {
                "start_time": 47.27954545454545,
                "end_time": 47.32954545454545,
                "pitch": 83,
                "velocity": 80,
                "duration": 0.05000000000000426,
                "tempo": 120.0
            },
            {
                "start_time": 47.36363636363636,
                "end_time": 47.429545454545455,
                "pitch": 86,
                "velocity": 80,
                "duration": 0.06590909090909491,
                "tempo": 120.0
            },
            {
                "start_time": 47.44772727272727,
                "end_time": 47.51363636363636,
                "pitch": 84,
                "velocity": 80,
                "duration": 0.06590909090908781,
                "tempo": 120.0
            },
            {
                "start_time": 47.54772727272727,
                "end_time": 47.59772727272727,
                "pitch": 83,
                "velocity": 80,
                "duration": 0.04999999999999716,
                "tempo": 120.0
            },
            {
                "start_time": 47.63181818181818,
                "end_time": 47.68181818181818,
                "pitch": 84,
                "velocity": 80,
                "duration": 0.04999999999999716,
                "tempo": 120.0
            },
            {
                "start_time": 47.715909090909086,
                "end_time": 47.78181818181818,
                "pitch": 80,
                "velocity": 80,
                "duration": 0.06590909090909491,
                "tempo": 120.0
            },
            {
                "start_time": 47.81590909090909,
                "end_time": 47.86590909090909,
                "pitch": 83,
                "velocity": 80,
                "duration": 0.05000000000000426,
                "tempo": 120.0
            },
            {
                "start_time": 47.902272727272724,
                "end_time": 47.95227272727273,
                "pitch": 84,
                "velocity": 80,
                "duration": 0.05000000000000426,
                "tempo": 120.0
            },
            {
                "start_time": 47.98863636363636,
                "end_time": 48.05681818181818,
                "pitch": 86,
                "velocity": 80,
                "duration": 0.06818181818182012,
                "tempo": 120.0
            },
            {
                "start_time": 48.074999999999996,
                "end_time": 48.143181818181816,
                "pitch": 83,
                "velocity": 80,
                "duration": 0.06818181818182012,
                "tempo": 120.0
            },
            {
                "start_time": 48.17727272727272,
                "end_time": 48.22954545454545,
                "pitch": 84,
                "velocity": 80,
                "duration": 0.05227272727272947,
                "tempo": 120.0
            },
            {
                "start_time": 48.26363636363636,
                "end_time": 48.31363636363636,
                "pitch": 86,
                "velocity": 80,
                "duration": 0.05000000000000426,
                "tempo": 120.0
            },
            {
                "start_time": 48.349999999999994,
                "end_time": 48.418181818181814,
                "pitch": 88,
                "velocity": 80,
                "duration": 0.06818181818182012,
                "tempo": 120.0
            },
            {
                "start_time": 48.43636363636364,
                "end_time": 48.50454545454545,
                "pitch": 84,
                "velocity": 80,
                "duration": 0.06818181818181301,
                "tempo": 120.0
            },
            {
                "start_time": 48.538636363636364,
                "end_time": 48.58863636363636,
                "pitch": 76,
                "velocity": 80,
                "duration": 0.04999999999999716,
                "tempo": 120.0
            },
            {
                "start_time": 48.62272727272727,
                "end_time": 48.67272727272727,
                "pitch": 80,
                "velocity": 80,
                "duration": 0.05000000000000426,
                "tempo": 120.0
            },
            {
                "start_time": 48.70681818181818,
                "end_time": 48.77272727272727,
                "pitch": 83,
                "velocity": 80,
                "duration": 0.06590909090909491,
                "tempo": 120.0
            },
            {
                "start_time": 48.79090909090909,
                "end_time": 48.85681818181818,
                "pitch": 86,
                "velocity": 80,
                "duration": 0.06590909090908781,
                "tempo": 120.0
            },
            {
                "start_time": 48.89090909090909,
                "end_time": 48.94090909090909,
                "pitch": 84,
                "velocity": 80,
                "duration": 0.04999999999999716,
                "tempo": 120.0
            },
            {
                "start_time": 48.974999999999994,
                "end_time": 49.025,
                "pitch": 83,
                "velocity": 80,
                "duration": 0.05000000000000426,
                "tempo": 120.0
            },
            {
                "start_time": 49.05681818181818,
                "end_time": 49.125,
                "pitch": 84,
                "velocity": 80,
                "duration": 0.06818181818182012,
                "tempo": 120.0
            },
            {
                "start_time": 49.14090909090909,
                "end_time": 49.209090909090904,
                "pitch": 80,
                "velocity": 80,
                "duration": 0.06818181818181301,
                "tempo": 120.0
            },
            {
                "start_time": 49.240909090909085,
                "end_time": 49.29090909090909,
                "pitch": 83,
                "velocity": 80,
                "duration": 0.05000000000000426,
                "tempo": 120.0
            },
            {
                "start_time": 49.32272727272727,
                "end_time": 49.37045454545454,
                "pitch": 84,
                "velocity": 80,
                "duration": 0.04772727272727195,
                "tempo": 120.0
            },
            {
                "start_time": 49.40454545454545,
                "end_time": 49.46818181818182,
                "pitch": 86,
                "velocity": 80,
                "duration": 0.06363636363636971,
                "tempo": 120.0
            },
            {
                "start_time": 49.486363636363635,
                "end_time": 49.55,
                "pitch": 83,
                "velocity": 80,
                "duration": 0.0636363636363626,
                "tempo": 120.0
            },
            {
                "start_time": 49.58181818181818,
                "end_time": 49.63409090909091,
                "pitch": 84,
                "velocity": 80,
                "duration": 0.05227272727272947,
                "tempo": 120.0
            },
            {
                "start_time": 49.668181818181814,
                "end_time": 49.720454545454544,
                "pitch": 86,
                "velocity": 80,
                "duration": 0.05227272727272947,
                "tempo": 120.0
            },
            {
                "start_time": 49.75454545454545,
                "end_time": 49.82272727272727,
                "pitch": 88,
                "velocity": 80,
                "duration": 0.06818181818182012,
                "tempo": 120.0
            },
            {
                "start_time": 49.840909090909086,
                "end_time": 49.90909090909091,
                "pitch": 84,
                "velocity": 80,
                "duration": 0.06818181818182012,
                "tempo": 120.0
            },
            {
                "start_time": 49.945454545454545,
                "end_time": 49.99545454545454,
                "pitch": 76,
                "velocity": 80,
                "duration": 0.04999999999999716,
                "tempo": 120.0
            },
            {
                "start_time": 50.027272727272724,
                "end_time": 50.095454545454544,
                "pitch": 80,
                "velocity": 80,
                "duration": 0.06818181818182012,
                "tempo": 120.0
            },
            {
                "start_time": 50.111363636363635,
                "end_time": 50.17727272727272,
                "pitch": 83,
                "velocity": 80,
                "duration": 0.06590909090908781,
                "tempo": 120.0
            },
            {
                "start_time": 50.211363636363636,
                "end_time": 50.26136363636363,
                "pitch": 86,
                "velocity": 80,
                "duration": 0.04999999999999716,
                "tempo": 120.0
            },
            {
                "start_time": 50.29545454545454,
                "end_time": 50.345454545454544,
                "pitch": 84,
                "velocity": 80,
                "duration": 0.05000000000000426,
                "tempo": 120.0
            },
            {
                "start_time": 50.37954545454545,
                "end_time": 50.445454545454545,
                "pitch": 83,
                "velocity": 80,
                "duration": 0.06590909090909491,
                "tempo": 120.0
            },
            {
                "start_time": 50.46363636363636,
                "end_time": 50.52954545454545,
                "pitch": 84,
                "velocity": 80,
                "duration": 0.06590909090908781,
                "tempo": 120.0
            },
            {
                "start_time": 50.56363636363636,
                "end_time": 50.61363636363636,
                "pitch": 80,
                "velocity": 80,
                "duration": 0.04999999999999716,
                "tempo": 120.0
            },
            {
                "start_time": 50.64772727272727,
                "end_time": 50.69772727272727,
                "pitch": 83,
                "velocity": 80,
                "duration": 0.04999999999999716,
                "tempo": 120.0
            },
            {
                "start_time": 50.72954545454545,
                "end_time": 50.79772727272727,
                "pitch": 84,
                "velocity": 80,
                "duration": 0.06818181818182012,
                "tempo": 120.0
            },
            {
                "start_time": 50.81363636363636,
                "end_time": 50.88181818181818,
                "pitch": 86,
                "velocity": 80,
                "duration": 0.06818181818182012,
                "tempo": 120.0
            },
            {
                "start_time": 50.913636363636364,
                "end_time": 50.96363636363636,
                "pitch": 83,
                "velocity": 80,
                "duration": 0.04999999999999716,
                "tempo": 120.0
            },
            {
                "start_time": 50.99772727272727,
                "end_time": 51.04772727272727,
                "pitch": 84,
                "velocity": 80,
                "duration": 0.05000000000000426,
                "tempo": 120.0
            },
            {
                "start_time": 51.08181818181818,
                "end_time": 51.14772727272727,
                "pitch": 86,
                "velocity": 80,
                "duration": 0.06590909090909491,
                "tempo": 120.0
            },
            {
                "start_time": 51.16590909090909,
                "end_time": 51.23181818181818,
                "pitch": 88,
                "velocity": 80,
                "duration": 0.06590909090908781,
                "tempo": 120.0
            },
            {
                "start_time": 51.26590909090909,
                "end_time": 51.31590909090909,
                "pitch": 84,
                "velocity": 80,
                "duration": 0.04999999999999716,
                "tempo": 120.0
            },
            {
                "start_time": 51.349999999999994,
                "end_time": 51.4,
                "pitch": 76,
                "velocity": 80,
                "duration": 0.05000000000000426,
                "tempo": 120.0
            },
            {
                "start_time": 51.43181818181818,
                "end_time": 51.5,
                "pitch": 81,
                "velocity": 80,
                "duration": 0.06818181818182012,
                "tempo": 120.0
            },
            {
                "start_time": 51.51590909090909,
                "end_time": 51.584090909090904,
                "pitch": 83,
                "velocity": 80,
                "duration": 0.06818181818181301,
                "tempo": 120.0
            },
            {
                "start_time": 51.615909090909085,
                "end_time": 51.66590909090909,
                "pitch": 86,
                "velocity": 80,
                "duration": 0.05000000000000426,
                "tempo": 120.0
            },
            {
                "start_time": 51.699999999999996,
                "end_time": 51.75,
                "pitch": 84,
                "velocity": 80,
                "duration": 0.05000000000000426,
                "tempo": 120.0
            },
            {
                "start_time": 51.78409090909091,
                "end_time": 51.849999999999994,
                "pitch": 83,
                "velocity": 80,
                "duration": 0.06590909090908781,
                "tempo": 120.0
            },
            {
                "start_time": 51.86818181818182,
                "end_time": 51.934090909090905,
                "pitch": 84,
                "velocity": 80,
                "duration": 0.06590909090908781,
                "tempo": 120.0
            },
            {
                "start_time": 51.96818181818182,
                "end_time": 52.018181818181816,
                "pitch": 81,
                "velocity": 80,
                "duration": 0.04999999999999716,
                "tempo": 120.0
            },
            {
                "start_time": 52.05227272727272,
                "end_time": 52.11818181818182,
                "pitch": 83,
                "velocity": 80,
                "duration": 0.06590909090909491,
                "tempo": 120.0
            },
            {
                "start_time": 52.13636363636363,
                "end_time": 52.20227272727273,
                "pitch": 84,
                "velocity": 80,
                "duration": 0.06590909090909491,
                "tempo": 120.0
            },
            {
                "start_time": 52.236363636363635,
                "end_time": 52.28636363636363,
                "pitch": 86,
                "velocity": 80,
                "duration": 0.04999999999999716,
                "tempo": 120.0
            },
            {
                "start_time": 52.320454545454545,
                "end_time": 52.36818181818182,
                "pitch": 83,
                "velocity": 80,
                "duration": 0.04772727272727195,
                "tempo": 120.0
            },
            {
                "start_time": 52.402272727272724,
                "end_time": 52.470454545454544,
                "pitch": 84,
                "velocity": 80,
                "duration": 0.06818181818182012,
                "tempo": 120.0
            },
            {
                "start_time": 52.486363636363635,
                "end_time": 52.55227272727272,
                "pitch": 86,
                "velocity": 80,
                "duration": 0.06590909090908781,
                "tempo": 120.0
            },
            {
                "start_time": 52.586363636363636,
                "end_time": 52.63636363636363,
                "pitch": 88,
                "velocity": 80,
                "duration": 0.04999999999999716,
                "tempo": 120.0
            },
            {
                "start_time": 52.67045454545454,
                "end_time": 52.720454545454544,
                "pitch": 84,
                "velocity": 80,
                "duration": 0.05000000000000426,
                "tempo": 120.0
            },
            {
                "start_time": 52.75454545454545,
                "end_time": 52.82272727272727,
                "pitch": 76,
                "velocity": 80,
                "duration": 0.06818181818182012,
                "tempo": 120.0
            },
            {
                "start_time": 52.840909090909086,
                "end_time": 52.90909090909091,
                "pitch": 81,
                "velocity": 80,
                "duration": 0.06818181818182012,
                "tempo": 120.0
            },
            {
                "start_time": 52.94318181818181,
                "end_time": 52.99545454545454,
                "pitch": 83,
                "velocity": 80,
                "duration": 0.05227272727272947,
                "tempo": 120.0
            },
            {
                "start_time": 53.02954545454545,
                "end_time": 53.08181818181818,
                "pitch": 86,
                "velocity": 80,
                "duration": 0.05227272727272947,
                "tempo": 120.0
            },
            {
                "start_time": 53.115909090909085,
                "end_time": 53.18181818181818,
                "pitch": 84,
                "velocity": 80,
                "duration": 0.06590909090909491,
                "tempo": 120.0
            },
            {
                "start_time": 53.199999999999996,
                "end_time": 53.26590909090909,
                "pitch": 83,
                "velocity": 80,
                "duration": 0.06590909090909491,
                "tempo": 120.0
            },
            {
                "start_time": 53.3,
                "end_time": 53.349999999999994,
                "pitch": 84,
                "velocity": 80,
                "duration": 0.04999999999999716,
                "tempo": 120.0
            },
            {
                "start_time": 53.38409090909091,
                "end_time": 53.434090909090905,
                "pitch": 81,
                "velocity": 80,
                "duration": 0.04999999999999716,
                "tempo": 120.0
            },
            {
                "start_time": 53.46818181818182,
                "end_time": 53.53409090909091,
                "pitch": 83,
                "velocity": 80,
                "duration": 0.06590909090908781,
                "tempo": 120.0
            },
            {
                "start_time": 53.55,
                "end_time": 53.61818181818182,
                "pitch": 84,
                "velocity": 80,
                "duration": 0.06818181818182012,
                "tempo": 120.0
            },
            {
                "start_time": 53.65,
                "end_time": 53.699999999999996,
                "pitch": 86,
                "velocity": 80,
                "duration": 0.04999999999999716,
                "tempo": 120.0
            },
            {
                "start_time": 53.73409090909091,
                "end_time": 53.78409090909091,
                "pitch": 83,
                "velocity": 80,
                "duration": 0.04999999999999716,
                "tempo": 120.0
            },
            {
                "start_time": 53.81818181818181,
                "end_time": 53.88409090909091,
                "pitch": 84,
                "velocity": 80,
                "duration": 0.06590909090909491,
                "tempo": 120.0
            },
            {
                "start_time": 53.902272727272724,
                "end_time": 53.96818181818182,
                "pitch": 86,
                "velocity": 80,
                "duration": 0.06590909090909491,
                "tempo": 120.0
            },
            {
                "start_time": 54.002272727272725,
                "end_time": 54.05227272727272,
                "pitch": 88,
                "velocity": 80,
                "duration": 0.04999999999999716,
                "tempo": 120.0
            },
            {
                "start_time": 54.086363636363636,
                "end_time": 54.13636363636363,
                "pitch": 84,
                "velocity": 80,
                "duration": 0.04999999999999716,
                "tempo": 120.0
            },
            {
                "start_time": 54.17045454545454,
                "end_time": 54.236363636363635,
                "pitch": 76,
                "velocity": 80,
                "duration": 0.06590909090909491,
                "tempo": 120.0
            },
            {
                "start_time": 54.27045454545454,
                "end_time": 54.320454545454545,
                "pitch": 81,
                "velocity": 80,
                "duration": 0.05000000000000426,
                "tempo": 120.0
            },
            {
                "start_time": 54.35454545454545,
                "end_time": 54.40454545454545,
                "pitch": 83,
                "velocity": 80,
                "duration": 0.04999999999999716,
                "tempo": 120.0
            },
            {
                "start_time": 54.43636363636363,
                "end_time": 54.50454545454545,
                "pitch": 86,
                "velocity": 80,
                "duration": 0.06818181818182012,
                "tempo": 120.0
            },
            {
                "start_time": 54.52045454545454,
                "end_time": 54.586363636363636,
                "pitch": 84,
                "velocity": 80,
                "duration": 0.06590909090909491,
                "tempo": 120.0
            },
            {
                "start_time": 54.62045454545454,
                "end_time": 54.67045454545454,
                "pitch": 83,
                "velocity": 80,
                "duration": 0.04999999999999716,
                "tempo": 120.0
            },
            {
                "start_time": 54.70454545454545,
                "end_time": 54.75454545454545,
                "pitch": 84,
                "velocity": 80,
                "duration": 0.04999999999999716,
                "tempo": 120.0
            },
            {
                "start_time": 54.788636363636364,
                "end_time": 54.85454545454545,
                "pitch": 81,
                "velocity": 80,
                "duration": 0.06590909090908781,
                "tempo": 120.0
            },
            {
                "start_time": 54.87272727272727,
                "end_time": 54.93863636363636,
                "pitch": 83,
                "velocity": 80,
                "duration": 0.06590909090909491,
                "tempo": 120.0
            },
            {
                "start_time": 54.97272727272727,
                "end_time": 55.02272727272727,
                "pitch": 84,
                "velocity": 80,
                "duration": 0.05000000000000426,
                "tempo": 120.0
            },
            {
                "start_time": 55.05681818181818,
                "end_time": 55.10681818181818,
                "pitch": 86,
                "velocity": 80,
                "duration": 0.04999999999999716,
                "tempo": 120.0
            },
            {
                "start_time": 55.13863636363636,
                "end_time": 55.20681818181818,
                "pitch": 83,
                "velocity": 80,
                "duration": 0.06818181818182012,
                "tempo": 120.0
            },
            {
                "start_time": 55.22272727272727,
                "end_time": 55.29090909090909,
                "pitch": 84,
                "velocity": 80,
                "duration": 0.06818181818182012,
                "tempo": 120.0
            },
            {
                "start_time": 55.32272727272727,
                "end_time": 55.37272727272727,
                "pitch": 86,
                "velocity": 80,
                "duration": 0.04999999999999716,
                "tempo": 120.0
            },
            {
                "start_time": 55.40681818181818,
                "end_time": 55.45681818181818,
                "pitch": 88,
                "velocity": 80,
                "duration": 0.04999999999999716,
                "tempo": 120.0
            },
            {
                "start_time": 55.490909090909085,
                "end_time": 55.55681818181818,
                "pitch": 84,
                "velocity": 80,
                "duration": 0.06590909090909491,
                "tempo": 120.0
            },
            {
                "start_time": 55.574999999999996,
                "end_time": 55.64090909090909,
                "pitch": 76,
                "velocity": 80,
                "duration": 0.06590909090909491,
                "tempo": 120.0
            },
            {
                "start_time": 55.675,
                "end_time": 55.724999999999994,
                "pitch": 81,
                "velocity": 80,
                "duration": 0.04999999999999716,
                "tempo": 120.0
            },
            {
                "start_time": 55.75909090909091,
                "end_time": 55.809090909090905,
                "pitch": 83,
                "velocity": 80,
                "duration": 0.04999999999999716,
                "tempo": 120.0
            },
            {
                "start_time": 55.84318181818182,
                "end_time": 55.90909090909091,
                "pitch": 86,
                "velocity": 80,
                "duration": 0.06590909090908781,
                "tempo": 120.0
            },
            {
                "start_time": 55.925,
                "end_time": 55.99318181818182,
                "pitch": 84,
                "velocity": 80,
                "duration": 0.06818181818182012,
                "tempo": 120.0
            },
            {
                "start_time": 56.025,
                "end_time": 56.074999999999996,
                "pitch": 83,
                "velocity": 80,
                "duration": 0.04999999999999716,
                "tempo": 120.0
            },
            {
                "start_time": 56.10909090909091,
                "end_time": 56.15909090909091,
                "pitch": 84,
                "velocity": 80,
                "duration": 0.04999999999999716,
                "tempo": 120.0
            },
            {
                "start_time": 56.19318181818181,
                "end_time": 56.25909090909091,
                "pitch": 81,
                "velocity": 80,
                "duration": 0.06590909090909491,
                "tempo": 120.0
            },
            {
                "start_time": 56.277272727272724,
                "end_time": 56.34318181818182,
                "pitch": 83,
                "velocity": 80,
                "duration": 0.06590909090909491,
                "tempo": 120.0
            },
            {
                "start_time": 56.377272727272725,
                "end_time": 56.42727272727272,
                "pitch": 84,
                "velocity": 80,
                "duration": 0.04999999999999716,
                "tempo": 120.0
            },
            {
                "start_time": 56.461363636363636,
                "end_time": 56.527272727272724,
                "pitch": 86,
                "velocity": 80,
                "duration": 0.06590909090908781,
                "tempo": 120.0
            },
            {
                "start_time": 56.54545454545454,
                "end_time": 56.611363636363635,
                "pitch": 83,
                "velocity": 80,
                "duration": 0.06590909090909491,
                "tempo": 120.0
            },
            {
                "start_time": 56.64545454545454,
                "end_time": 56.695454545454545,
                "pitch": 84,
                "velocity": 80,
                "duration": 0.05000000000000426,
                "tempo": 120.0
            },
            {
                "start_time": 56.73181818181818,
                "end_time": 56.78181818181818,
                "pitch": 86,
                "velocity": 80,
                "duration": 0.05000000000000426,
                "tempo": 120.0
            },
            {
                "start_time": 56.81590909090909,
                "end_time": 56.88636363636363,
                "pitch": 88,
                "velocity": 80,
                "duration": 0.07045454545454533,
                "tempo": 120.0
            },
            {
                "start_time": 56.902272727272724,
                "end_time": 56.97272727272727,
                "pitch": 84,
                "velocity": 80,
                "duration": 0.07045454545454533,
                "tempo": 120.0
            },
            {
                "start_time": 57.006818181818176,
                "end_time": 57.059090909090905,
                "pitch": 74,
                "velocity": 80,
                "duration": 0.05227272727272947,
                "tempo": 120.0
            },
            {
                "start_time": 57.09318181818182,
                "end_time": 57.143181818181816,
                "pitch": 79,
                "velocity": 80,
                "duration": 0.04999999999999716,
                "tempo": 120.0
            },
            {
                "start_time": 57.179545454545455,
                "end_time": 57.24772727272727,
                "pitch": 83,
                "velocity": 80,
                "duration": 0.06818181818181301,
                "tempo": 120.0
            },
            {
                "start_time": 57.26590909090909,
                "end_time": 57.334090909090904,
                "pitch": 86,
                "velocity": 80,
                "duration": 0.06818181818181301,
                "tempo": 120.0
            },
            {
                "start_time": 57.36818181818182,
                "end_time": 57.418181818181814,
                "pitch": 84,
                "velocity": 80,
                "duration": 0.04999999999999716,
                "tempo": 120.0
            },
            {
                "start_time": 57.45227272727272,
                "end_time": 57.502272727272725,
                "pitch": 83,
                "velocity": 80,
                "duration": 0.05000000000000426,
                "tempo": 120.0
            },
            {
                "start_time": 57.53636363636363,
                "end_time": 57.60227272727273,
                "pitch": 84,
                "velocity": 80,
                "duration": 0.06590909090909491,
                "tempo": 120.0
            },
            {
                "start_time": 57.62045454545454,
                "end_time": 57.68636363636363,
                "pitch": 74,
                "velocity": 80,
                "duration": 0.06590909090908781,
                "tempo": 120.0
            },
            {
                "start_time": 57.720454545454544,
                "end_time": 57.77045454545454,
                "pitch": 83,
                "velocity": 80,
                "duration": 0.04999999999999716,
                "tempo": 120.0
            },
            {
                "start_time": 57.804545454545455,
                "end_time": 57.85454545454545,
                "pitch": 84,
                "velocity": 80,
                "duration": 0.04999999999999716,
                "tempo": 120.0
            },
            {
                "start_time": 57.88636363636363,
                "end_time": 57.95454545454545,
                "pitch": 86,
                "velocity": 80,
                "duration": 0.06818181818182012,
                "tempo": 120.0
            },
            {
                "start_time": 57.970454545454544,
                "end_time": 58.03636363636363,
                "pitch": 83,
                "velocity": 80,
                "duration": 0.06590909090908781,
                "tempo": 120.0
            },
            {
                "start_time": 58.070454545454545,
                "end_time": 58.12045454545454,
                "pitch": 84,
                "velocity": 80,
                "duration": 0.04999999999999716,
                "tempo": 120.0
            },
            {
                "start_time": 58.15454545454545,
                "end_time": 58.20454545454545,
                "pitch": 86,
                "velocity": 80,
                "duration": 0.05000000000000426,
                "tempo": 120.0
            },
            {
                "start_time": 58.23863636363636,
                "end_time": 58.304545454545455,
                "pitch": 83,
                "velocity": 80,
                "duration": 0.06590909090909491,
                "tempo": 120.0
            },
            {
                "start_time": 58.32272727272727,
                "end_time": 58.38863636363636,
                "pitch": 79,
                "velocity": 80,
                "duration": 0.06590909090908781,
                "tempo": 120.0
            },
            {
                "start_time": 58.42272727272727,
                "end_time": 58.47272727272727,
                "pitch": 74,
                "velocity": 80,
                "duration": 0.04999999999999716,
                "tempo": 120.0
            },
            {
                "start_time": 58.506818181818176,
                "end_time": 58.57272727272727,
                "pitch": 79,
                "velocity": 80,
                "duration": 0.06590909090909491,
                "tempo": 120.0
            },
            {
                "start_time": 58.58863636363636,
                "end_time": 58.65681818181818,
                "pitch": 83,
                "velocity": 80,
                "duration": 0.06818181818182012,
                "tempo": 120.0
            },
            {
                "start_time": 58.69090909090909,
                "end_time": 58.740909090909085,
                "pitch": 86,
                "velocity": 80,
                "duration": 0.04999999999999716,
                "tempo": 120.0
            },
            {
                "start_time": 58.77272727272727,
                "end_time": 58.82272727272727,
                "pitch": 84,
                "velocity": 80,
                "duration": 0.04999999999999716,
                "tempo": 120.0
            },
            {
                "start_time": 58.85681818181818,
                "end_time": 58.92272727272727,
                "pitch": 83,
                "velocity": 80,
                "duration": 0.06590909090909491,
                "tempo": 120.0
            },
            {
                "start_time": 58.94090909090909,
                "end_time": 59.006818181818176,
                "pitch": 84,
                "velocity": 80,
                "duration": 0.06590909090908781,
                "tempo": 120.0
            },
            {
                "start_time": 59.04090909090909,
                "end_time": 59.090909090909086,
                "pitch": 74,
                "velocity": 80,
                "duration": 0.04999999999999716,
                "tempo": 120.0
            },
            {
                "start_time": 59.125,
                "end_time": 59.175,
                "pitch": 83,
                "velocity": 80,
                "duration": 0.04999999999999716,
                "tempo": 120.0
            },
            {
                "start_time": 59.209090909090904,
                "end_time": 59.275,
                "pitch": 84,
                "velocity": 80,
                "duration": 0.06590909090909491,
                "tempo": 120.0
            },
            {
                "start_time": 59.29090909090909,
                "end_time": 59.35909090909091,
                "pitch": 86,
                "velocity": 80,
                "duration": 0.06818181818182012,
                "tempo": 120.0
            },
            {
                "start_time": 59.393181818181816,
                "end_time": 59.44318181818181,
                "pitch": 83,
                "velocity": 80,
                "duration": 0.04999999999999716,
                "tempo": 120.0
            },
            {
                "start_time": 59.474999999999994,
                "end_time": 59.525,
                "pitch": 84,
                "velocity": 80,
                "duration": 0.05000000000000426,
                "tempo": 120.0
            },
            {
                "start_time": 59.559090909090905,
                "end_time": 59.627272727272725,
                "pitch": 86,
                "velocity": 80,
                "duration": 0.06818181818182012,
                "tempo": 120.0
            },
            {
                "start_time": 59.643181818181816,
                "end_time": 59.709090909090904,
                "pitch": 83,
                "velocity": 80,
                "duration": 0.06590909090908781,
                "tempo": 120.0
            },
            {
                "start_time": 59.74318181818182,
                "end_time": 59.793181818181814,
                "pitch": 79,
                "velocity": 80,
                "duration": 0.04999999999999716,
                "tempo": 120.0
            },
            {
                "start_time": 59.82727272727272,
                "end_time": 59.877272727272725,
                "pitch": 74,
                "velocity": 80,
                "duration": 0.05000000000000426,
                "tempo": 120.0
            },
            {
                "start_time": 59.91136363636363,
                "end_time": 59.97727272727273,
                "pitch": 79,
                "velocity": 80,
                "duration": 0.06590909090909491,
                "tempo": 120.0
            },
            {
                "start_time": 59.99545454545454,
                "end_time": 60.06136363636363,
                "pitch": 83,
                "velocity": 80,
                "duration": 0.06590909090908781,
                "tempo": 120.0
            },
            {
                "start_time": 60.095454545454544,
                "end_time": 60.14545454545454,
                "pitch": 86,
                "velocity": 80,
                "duration": 0.04999999999999716,
                "tempo": 120.0
            },
            {
                "start_time": 60.17727272727272,
                "end_time": 60.22727272727273,
                "pitch": 84,
                "velocity": 80,
                "duration": 0.05000000000000426,
                "tempo": 120.0
            },
            {
                "start_time": 60.26136363636363,
                "end_time": 60.32954545454545,
                "pitch": 83,
                "velocity": 80,
                "duration": 0.06818181818182012,
                "tempo": 120.0
            },
            {
                "start_time": 60.345454545454544,
                "end_time": 60.41136363636363,
                "pitch": 84,
                "velocity": 80,
                "duration": 0.06590909090908781,
                "tempo": 120.0
            },
            {
                "start_time": 60.445454545454545,
                "end_time": 60.49545454545454,
                "pitch": 74,
                "velocity": 80,
                "duration": 0.04999999999999716,
                "tempo": 120.0
            },
            {
                "start_time": 60.52954545454545,
                "end_time": 60.57954545454545,
                "pitch": 83,
                "velocity": 80,
                "duration": 0.05000000000000426,
                "tempo": 120.0
            },
            {
                "start_time": 60.61363636363636,
                "end_time": 60.679545454545455,
                "pitch": 84,
                "velocity": 80,
                "duration": 0.06590909090909491,
                "tempo": 120.0
            },
            {
                "start_time": 60.71363636363636,
                "end_time": 60.76363636363636,
                "pitch": 86,
                "velocity": 80,
                "duration": 0.04999999999999716,
                "tempo": 120.0
            },
            {
                "start_time": 60.79772727272727,
                "end_time": 60.84772727272727,
                "pitch": 83,
                "velocity": 80,
                "duration": 0.04999999999999716,
                "tempo": 120.0
            },
            {
                "start_time": 60.881818181818176,
                "end_time": 60.94772727272727,
                "pitch": 84,
                "velocity": 80,
                "duration": 0.06590909090909491,
                "tempo": 120.0
            },
            {
                "start_time": 60.96363636363636,
                "end_time": 61.03181818181818,
                "pitch": 86,
                "velocity": 80,
                "duration": 0.06818181818182012,
                "tempo": 120.0
            },
            {
                "start_time": 61.06590909090909,
                "end_time": 61.11363636363636,
                "pitch": 83,
                "velocity": 80,
                "duration": 0.04772727272727195,
                "tempo": 120.0
            },
            {
                "start_time": 61.147727272727266,
                "end_time": 61.19772727272727,
                "pitch": 79,
                "velocity": 80,
                "duration": 0.05000000000000426,
                "tempo": 120.0
            },
            {
                "start_time": 61.23181818181818,
                "end_time": 61.29772727272727,
                "pitch": 74,
                "velocity": 80,
                "duration": 0.06590909090909491,
                "tempo": 120.0
            },
            {
                "start_time": 61.31590909090909,
                "end_time": 61.381818181818176,
                "pitch": 79,
                "velocity": 80,
                "duration": 0.06590909090908781,
                "tempo": 120.0
            },
            {
                "start_time": 61.41590909090909,
                "end_time": 61.465909090909086,
                "pitch": 83,
                "velocity": 80,
                "duration": 0.04999999999999716,
                "tempo": 120.0
            },
            {
                "start_time": 61.5,
                "end_time": 61.55,
                "pitch": 86,
                "velocity": 80,
                "duration": 0.04999999999999716,
                "tempo": 120.0
            },
            {
                "start_time": 61.584090909090904,
                "end_time": 61.65,
                "pitch": 84,
                "velocity": 80,
                "duration": 0.06590909090909491,
                "tempo": 120.0
            },
            {
                "start_time": 61.66590909090909,
                "end_time": 61.73409090909091,
                "pitch": 83,
                "velocity": 80,
                "duration": 0.06818181818182012,
                "tempo": 120.0
            },
            {
                "start_time": 61.768181818181816,
                "end_time": 61.81818181818181,
                "pitch": 84,
                "velocity": 80,
                "duration": 0.04999999999999716,
                "tempo": 120.0
            },
            {
                "start_time": 61.849999999999994,
                "end_time": 61.9,
                "pitch": 74,
                "velocity": 80,
                "duration": 0.05000000000000426,
                "tempo": 120.0
            },
            {
                "start_time": 61.934090909090905,
                "end_time": 62.002272727272725,
                "pitch": 83,
                "velocity": 80,
                "duration": 0.06818181818182012,
                "tempo": 120.0
            },
            {
                "start_time": 62.018181818181816,
                "end_time": 62.084090909090904,
                "pitch": 84,
                "velocity": 80,
                "duration": 0.06590909090908781,
                "tempo": 120.0
            },
            {
                "start_time": 62.11818181818182,
                "end_time": 62.168181818181814,
                "pitch": 86,
                "velocity": 80,
                "duration": 0.04999999999999716,
                "tempo": 120.0
            },
            {
                "start_time": 62.20227272727272,
                "end_time": 62.252272727272725,
                "pitch": 83,
                "velocity": 80,
                "duration": 0.05000000000000426,
                "tempo": 120.0
            },
            {
                "start_time": 62.28636363636363,
                "end_time": 62.35227272727273,
                "pitch": 84,
                "velocity": 80,
                "duration": 0.06590909090909491,
                "tempo": 120.0
            },
            {
                "start_time": 62.36818181818182,
                "end_time": 62.43636363636363,
                "pitch": 86,
                "velocity": 80,
                "duration": 0.06818181818181301,
                "tempo": 120.0
            },
            {
                "start_time": 62.470454545454544,
                "end_time": 62.52045454545454,
                "pitch": 83,
                "velocity": 80,
                "duration": 0.04999999999999716,
                "tempo": 120.0
            },
            {
                "start_time": 62.55227272727272,
                "end_time": 62.60227272727273,
                "pitch": 79,
                "velocity": 80,
                "duration": 0.05000000000000426,
                "tempo": 120.0
            },
            {
                "start_time": 62.63636363636363,
                "end_time": 62.70454545454545,
                "pitch": 76,
                "velocity": 80,
                "duration": 0.06818181818182012,
                "tempo": 120.0
            },
            {
                "start_time": 62.72272727272727,
                "end_time": 62.79090909090909,
                "pitch": 81,
                "velocity": 80,
                "duration": 0.06818181818182012,
                "tempo": 120.0
            },
            {
                "start_time": 62.824999999999996,
                "end_time": 62.877272727272725,
                "pitch": 83,
                "velocity": 80,
                "duration": 0.05227272727272947,
                "tempo": 120.0
            },
            {
                "start_time": 62.91136363636363,
                "end_time": 62.98181818181818,
                "pitch": 86,
                "velocity": 80,
                "duration": 0.07045454545454533,
                "tempo": 120.0
            },
            {
                "start_time": 62.99772727272727,
                "end_time": 63.06363636363636,
                "pitch": 84,
                "velocity": 80,
                "duration": 0.06590909090909491,
                "tempo": 120.0
            },
            {
                "start_time": 63.095454545454544,
                "end_time": 63.14545454545454,
                "pitch": 83,
                "velocity": 80,
                "duration": 0.04999999999999716,
                "tempo": 120.0
            },
            {
                "start_time": 63.17727272727272,
                "end_time": 63.224999999999994,
                "pitch": 84,
                "velocity": 80,
                "duration": 0.04772727272727195,
                "tempo": 120.0
            },
            {
                "start_time": 63.25909090909091,
                "end_time": 63.32272727272727,
                "pitch": 81,
                "velocity": 80,
                "duration": 0.0636363636363626,
                "tempo": 120.0
            },
            {
                "start_time": 63.33863636363636,
                "end_time": 63.40681818181818,
                "pitch": 83,
                "velocity": 80,
                "duration": 0.06818181818182012,
                "tempo": 120.0
            },
            {
                "start_time": 63.44090909090909,
                "end_time": 63.490909090909085,
                "pitch": 84,
                "velocity": 80,
                "duration": 0.04999999999999716,
                "tempo": 120.0
            },
            {
                "start_time": 63.522727272727266,
                "end_time": 63.57272727272727,
                "pitch": 86,
                "velocity": 80,
                "duration": 0.05000000000000426,
                "tempo": 120.0
            },
            {
                "start_time": 63.60681818181818,
                "end_time": 63.675,
                "pitch": 83,
                "velocity": 80,
                "duration": 0.06818181818182012,
                "tempo": 120.0
            },
            {
                "start_time": 63.69090909090909,
                "end_time": 63.756818181818176,
                "pitch": 84,
                "velocity": 80,
                "duration": 0.06590909090908781,
                "tempo": 120.0
            },
            {
                "start_time": 63.79090909090909,
                "end_time": 63.840909090909086,
                "pitch": 86,
                "velocity": 80,
                "duration": 0.04999999999999716,
                "tempo": 120.0
            },
            {
                "start_time": 63.875,
                "end_time": 63.925,
                "pitch": 88,
                "velocity": 80,
                "duration": 0.04999999999999716,
                "tempo": 120.0
            },
            {
                "start_time": 63.959090909090904,
                "end_time": 64.02499999999999,
                "pitch": 84,
                "velocity": 80,
                "duration": 0.06590909090908781,
                "tempo": 120.0
            },
            {
                "start_time": 64.04318181818182,
                "end_time": 64.11136363636363,
                "pitch": 76,
                "velocity": 80,
                "duration": 0.06818181818181301,
                "tempo": 120.0
            },
            {
                "start_time": 64.14545454545454,
                "end_time": 64.19545454545454,
                "pitch": 81,
                "velocity": 80,
                "duration": 0.04999999999999716,
                "tempo": 120.0
            },
            {
                "start_time": 64.23181818181818,
                "end_time": 64.28181818181818,
                "pitch": 83,
                "velocity": 80,
                "duration": 0.04999999999999716,
                "tempo": 120.0
            },
            {
                "start_time": 64.31818181818181,
                "end_time": 64.38636363636364,
                "pitch": 86,
                "velocity": 80,
                "duration": 0.06818181818182723,
                "tempo": 120.0
            },
            {
                "start_time": 64.40454545454546,
                "end_time": 64.47045454545454,
                "pitch": 84,
                "velocity": 80,
                "duration": 0.06590909090908781,
                "tempo": 120.0
            },
            {
                "start_time": 64.50454545454545,
                "end_time": 64.55454545454545,
                "pitch": 83,
                "velocity": 80,
                "duration": 0.04999999999999716,
                "tempo": 120.0
            },
            {
                "start_time": 64.58863636363635,
                "end_time": 64.63863636363637,
                "pitch": 84,
                "velocity": 80,
                "duration": 0.05000000000001137,
                "tempo": 120.0
            },
            {
                "start_time": 64.67045454545455,
                "end_time": 64.73863636363636,
                "pitch": 81,
                "velocity": 80,
                "duration": 0.06818181818181301,
                "tempo": 120.0
            },
            {
                "start_time": 64.75454545454545,
                "end_time": 64.82272727272726,
                "pitch": 83,
                "velocity": 80,
                "duration": 0.06818181818181301,
                "tempo": 120.0
            },
            {
                "start_time": 64.85454545454544,
                "end_time": 64.90454545454546,
                "pitch": 84,
                "velocity": 80,
                "duration": 0.05000000000001137,
                "tempo": 120.0
            },
            {
                "start_time": 64.93863636363636,
                "end_time": 65.00681818181818,
                "pitch": 86,
                "velocity": 80,
                "duration": 0.06818181818181301,
                "tempo": 120.0
            },
            {
                "start_time": 65.02272727272727,
                "end_time": 65.08863636363635,
                "pitch": 83,
                "velocity": 80,
                "duration": 0.06590909090908781,
                "tempo": 120.0
            },
            {
                "start_time": 65.12272727272727,
                "end_time": 65.175,
                "pitch": 84,
                "velocity": 80,
                "duration": 0.052272727272722364,
                "tempo": 120.0
            },
            {
                "start_time": 65.2090909090909,
                "end_time": 65.26136363636364,
                "pitch": 86,
                "velocity": 80,
                "duration": 0.052272727272736574,
                "tempo": 120.0
            },
            {
                "start_time": 65.29545454545455,
                "end_time": 65.36363636363636,
                "pitch": 88,
                "velocity": 80,
                "duration": 0.06818181818181301,
                "tempo": 120.0
            },
            {
                "start_time": 65.38181818181818,
                "end_time": 65.45,
                "pitch": 84,
                "velocity": 80,
                "duration": 0.06818181818182723,
                "tempo": 120.0
            },
            {
                "start_time": 65.48636363636363,
                "end_time": 65.53636363636363,
                "pitch": 76,
                "velocity": 80,
                "duration": 0.04999999999999716,
                "tempo": 120.0
            },
            {
                "start_time": 65.57045454545454,
                "end_time": 65.62272727272727,
                "pitch": 81,
                "velocity": 80,
                "duration": 0.052272727272736574,
                "tempo": 120.0
            },
            {
                "start_time": 65.65681818181818,
                "end_time": 65.725,
                "pitch": 83,
                "velocity": 80,
                "duration": 0.06818181818181301,
                "tempo": 120.0
            },
            {
                "start_time": 65.74318181818181,
                "end_time": 65.81136363636364,
                "pitch": 86,
                "velocity": 80,
                "duration": 0.06818181818182723,
                "tempo": 120.0
            },
            {
                "start_time": 65.84545454545454,
                "end_time": 65.89772727272727,
                "pitch": 84,
                "velocity": 80,
                "duration": 0.052272727272722364,
                "tempo": 120.0
            },
            {
                "start_time": 65.92954545454545,
                "end_time": 65.97954545454544,
                "pitch": 83,
                "velocity": 80,
                "duration": 0.04999999999999716,
                "tempo": 120.0
            },
            {
                "start_time": 66.01363636363637,
                "end_time": 66.08181818181818,
                "pitch": 84,
                "velocity": 80,
                "duration": 0.06818181818181301,
                "tempo": 120.0
            },
            {
                "start_time": 66.09772727272727,
                "end_time": 66.16363636363636,
                "pitch": 81,
                "velocity": 80,
                "duration": 0.06590909090908781,
                "tempo": 120.0
            },
            {
                "start_time": 66.19772727272726,
                "end_time": 66.24772727272727,
                "pitch": 83,
                "velocity": 80,
                "duration": 0.05000000000001137,
                "tempo": 120.0
            },
            {
                "start_time": 66.28181818181818,
                "end_time": 66.33181818181818,
                "pitch": 84,
                "velocity": 80,
                "duration": 0.04999999999999716,
                "tempo": 120.0
            },
            {
                "start_time": 66.36590909090908,
                "end_time": 66.43181818181817,
                "pitch": 86,
                "velocity": 80,
                "duration": 0.06590909090908781,
                "tempo": 120.0
            },
            {
                "start_time": 66.45,
                "end_time": 66.51590909090909,
                "pitch": 83,
                "velocity": 80,
                "duration": 0.06590909090908781,
                "tempo": 120.0
            },
            {
                "start_time": 66.55,
                "end_time": 66.59772727272727,
                "pitch": 84,
                "velocity": 80,
                "duration": 0.04772727272727195,
                "tempo": 120.0
            },
            {
                "start_time": 66.62954545454545,
                "end_time": 66.67954545454545,
                "pitch": 86,
                "velocity": 80,
                "duration": 0.04999999999999716,
                "tempo": 120.0
            },
            {
                "start_time": 66.71136363636363,
                "end_time": 66.77727272727273,
                "pitch": 88,
                "velocity": 80,
                "duration": 0.06590909090910202,
                "tempo": 120.0
            },
            {
                "start_time": 66.79318181818182,
                "end_time": 66.85681818181818,
                "pitch": 84,
                "velocity": 80,
                "duration": 0.0636363636363626,
                "tempo": 120.0
            },
            {
                "start_time": 66.89090909090909,
                "end_time": 66.94090909090909,
                "pitch": 76,
                "velocity": 80,
                "duration": 0.04999999999999716,
                "tempo": 120.0
            },
            {
                "start_time": 66.975,
                "end_time": 67.02727272727273,
                "pitch": 81,
                "velocity": 80,
                "duration": 0.052272727272736574,
                "tempo": 120.0
            },
            {
                "start_time": 67.06136363636364,
                "end_time": 67.13181818181818,
                "pitch": 83,
                "velocity": 80,
                "duration": 0.07045454545453822,
                "tempo": 120.0
            },
            {
                "start_time": 67.16590909090908,
                "end_time": 67.2159090909091,
                "pitch": 86,
                "velocity": 80,
                "duration": 0.05000000000001137,
                "tempo": 120.0
            },
            {
                "start_time": 67.25227272727273,
                "end_time": 67.30227272727272,
                "pitch": 84,
                "velocity": 80,
                "duration": 0.04999999999999716,
                "tempo": 120.0
            },
            {
                "start_time": 67.33636363636363,
                "end_time": 67.40227272727273,
                "pitch": 83,
                "velocity": 80,
                "duration": 0.06590909090910202,
                "tempo": 120.0
            },
            {
                "start_time": 67.42045454545455,
                "end_time": 67.48636363636363,
                "pitch": 84,
                "velocity": 80,
                "duration": 0.06590909090908781,
                "tempo": 120.0
            },
            {
                "start_time": 67.52045454545454,
                "end_time": 67.57045454545454,
                "pitch": 81,
                "velocity": 80,
                "duration": 0.04999999999999716,
                "tempo": 120.0
            },
            {
                "start_time": 67.60227272727272,
                "end_time": 67.65227272727273,
                "pitch": 83,
                "velocity": 80,
                "duration": 0.05000000000001137,
                "tempo": 120.0
            },
            {
                "start_time": 67.68636363636364,
                "end_time": 67.75454545454545,
                "pitch": 84,
                "velocity": 80,
                "duration": 0.06818181818181301,
                "tempo": 120.0
            },
            {
                "start_time": 67.77045454545454,
                "end_time": 67.83636363636363,
                "pitch": 86,
                "velocity": 80,
                "duration": 0.06590909090908781,
                "tempo": 120.0
            },
            {
                "start_time": 67.87045454545454,
                "end_time": 67.92045454545455,
                "pitch": 83,
                "velocity": 80,
                "duration": 0.05000000000001137,
                "tempo": 120.0
            },
            {
                "start_time": 67.95454545454545,
                "end_time": 68.00454545454545,
                "pitch": 84,
                "velocity": 80,
                "duration": 0.04999999999999716,
                "tempo": 120.0
            },
            {
                "start_time": 68.03863636363636,
                "end_time": 68.10454545454544,
                "pitch": 86,
                "velocity": 80,
                "duration": 0.06590909090908781,
                "tempo": 120.0
            },
            {
                "start_time": 68.12272727272727,
                "end_time": 68.18863636363636,
                "pitch": 88,
                "velocity": 80,
                "duration": 0.06590909090908781,
                "tempo": 120.0
            },
            {
                "start_time": 68.22272727272727,
                "end_time": 68.27272727272727,
                "pitch": 84,
                "velocity": 80,
                "duration": 0.04999999999999716,
                "tempo": 120.0
            },
            {
                "start_time": 68.30681818181817,
                "end_time": 68.35454545454544,
                "pitch": 74,
                "velocity": 80,
                "duration": 0.04772727272727195,
                "tempo": 120.0
            },
            {
                "start_time": 68.38863636363637,
                "end_time": 68.45681818181818,
                "pitch": 79,
                "velocity": 80,
                "duration": 0.06818181818181301,
                "tempo": 120.0
            },
            {
                "start_time": 68.47272727272727,
                "end_time": 68.53863636363636,
                "pitch": 83,
                "velocity": 80,
                "duration": 0.06590909090908781,
                "tempo": 120.0
            },
            {
                "start_time": 68.57272727272726,
                "end_time": 68.62272727272727,
                "pitch": 86,
                "velocity": 80,
                "duration": 0.05000000000001137,
                "tempo": 120.0
            },
            {
                "start_time": 68.65681818181818,
                "end_time": 68.70681818181818,
                "pitch": 84,
                "velocity": 80,
                "duration": 0.04999999999999716,
                "tempo": 120.0
            },
            {
                "start_time": 68.74090909090908,
                "end_time": 68.80681818181817,
                "pitch": 83,
                "velocity": 80,
                "duration": 0.06590909090908781,
                "tempo": 120.0
            },
            {
                "start_time": 68.825,
                "end_time": 68.89090909090909,
                "pitch": 84,
                "velocity": 80,
                "duration": 0.06590909090908781,
                "tempo": 120.0
            },
            {
                "start_time": 68.925,
                "end_time": 68.975,
                "pitch": 74,
                "velocity": 80,
                "duration": 0.04999999999999716,
                "tempo": 120.0
            },
            {
                "start_time": 69.0090909090909,
                "end_time": 69.05909090909091,
                "pitch": 83,
                "velocity": 80,
                "duration": 0.05000000000001137,
                "tempo": 120.0
            },
            {
                "start_time": 69.0909090909091,
                "end_time": 69.1590909090909,
                "pitch": 84,
                "velocity": 80,
                "duration": 0.06818181818181301,
                "tempo": 120.0
            },
            {
                "start_time": 69.175,
                "end_time": 69.24090909090908,
                "pitch": 86,
                "velocity": 80,
                "duration": 0.06590909090908781,
                "tempo": 120.0
            },
            {
                "start_time": 69.27499999999999,
                "end_time": 69.325,
                "pitch": 83,
                "velocity": 80,
                "duration": 0.05000000000001137,
                "tempo": 120.0
            },
            {
                "start_time": 69.35909090909091,
                "end_time": 69.425,
                "pitch": 84,
                "velocity": 80,
                "duration": 0.06590909090908781,
                "tempo": 120.0
            },
            {
                "start_time": 69.44318181818181,
                "end_time": 69.5090909090909,
                "pitch": 86,
                "velocity": 80,
                "duration": 0.06590909090908781,
                "tempo": 120.0
            },
            {
                "start_time": 69.54318181818182,
                "end_time": 69.59318181818182,
                "pitch": 83,
                "velocity": 80,
                "duration": 0.04999999999999716,
                "tempo": 120.0
            },
            {
                "start_time": 69.62727272727273,
                "end_time": 69.67727272727272,
                "pitch": 79,
                "velocity": 80,
                "duration": 0.04999999999999716,
                "tempo": 120.0
            },
            {
                "start_time": 69.71136363636363,
                "end_time": 69.77727272727273,
                "pitch": 74,
                "velocity": 80,
                "duration": 0.06590909090910202,
                "tempo": 120.0
            },
            {
                "start_time": 69.79318181818182,
                "end_time": 69.86136363636363,
                "pitch": 79,
                "velocity": 80,
                "duration": 0.06818181818181301,
                "tempo": 120.0
            },
            {
                "start_time": 69.89545454545454,
                "end_time": 69.94545454545454,
                "pitch": 83,
                "velocity": 80,
                "duration": 0.04999999999999716,
                "tempo": 120.0
            },
            {
                "start_time": 69.97727272727272,
                "end_time": 70.02727272727273,
                "pitch": 86,
                "velocity": 80,
                "duration": 0.05000000000001137,
                "tempo": 120.0
            },
            {
                "start_time": 70.06136363636364,
                "end_time": 70.12954545454545,
                "pitch": 84,
                "velocity": 80,
                "duration": 0.06818181818181301,
                "tempo": 120.0
            },
            {
                "start_time": 70.14545454545454,
                "end_time": 70.21136363636363,
                "pitch": 83,
                "velocity": 80,
                "duration": 0.06590909090908781,
                "tempo": 120.0
            },
            {
                "start_time": 70.24545454545454,
                "end_time": 70.29545454545455,
                "pitch": 84,
                "velocity": 80,
                "duration": 0.05000000000001137,
                "tempo": 120.0
            },
            {
                "start_time": 70.32954545454545,
                "end_time": 70.37954545454545,
                "pitch": 74,
                "velocity": 80,
                "duration": 0.04999999999999716,
                "tempo": 120.0
            },
            {
                "start_time": 70.41363636363636,
                "end_time": 70.47954545454544,
                "pitch": 83,
                "velocity": 80,
                "duration": 0.06590909090908781,
                "tempo": 120.0
            },
            {
                "start_time": 70.49772727272727,
                "end_time": 70.56363636363636,
                "pitch": 84,
                "velocity": 80,
                "duration": 0.06590909090908781,
                "tempo": 120.0
            },
            {
                "start_time": 70.59772727272727,
                "end_time": 70.64772727272727,
                "pitch": 86,
                "velocity": 80,
                "duration": 0.04999999999999716,
                "tempo": 120.0
            },
            {
                "start_time": 70.67954545454545,
                "end_time": 70.72954545454544,
                "pitch": 83,
                "velocity": 80,
                "duration": 0.04999999999999716,
                "tempo": 120.0
            },
            {
                "start_time": 70.76363636363637,
                "end_time": 70.83181818181818,
                "pitch": 84,
                "velocity": 80,
                "duration": 0.06818181818181301,
                "tempo": 120.0
            },
            {
                "start_time": 70.84772727272727,
                "end_time": 70.91363636363636,
                "pitch": 86,
                "velocity": 80,
                "duration": 0.06590909090908781,
                "tempo": 120.0
            },
            {
                "start_time": 70.94772727272726,
                "end_time": 70.99772727272727,
                "pitch": 83,
                "velocity": 80,
                "duration": 0.05000000000001137,
                "tempo": 120.0
            },
            {
                "start_time": 71.03181818181818,
                "end_time": 71.08181818181818,
                "pitch": 79,
                "velocity": 80,
                "duration": 0.04999999999999716,
                "tempo": 120.0
            },
            {
                "start_time": 71.11590909090908,
                "end_time": 71.18181818181817,
                "pitch": 74,
                "velocity": 80,
                "duration": 0.06590909090908781,
                "tempo": 120.0
            },
            {
                "start_time": 71.2,
                "end_time": 71.26590909090909,
                "pitch": 79,
                "velocity": 80,
                "duration": 0.06590909090908781,
                "tempo": 120.0
            },
            {
                "start_time": 71.3,
                "end_time": 71.35,
                "pitch": 83,
                "velocity": 80,
                "duration": 0.04999999999999716,
                "tempo": 120.0
            },
            {
                "start_time": 71.3840909090909,
                "end_time": 71.45,
                "pitch": 86,
                "velocity": 80,
                "duration": 0.06590909090910202,
                "tempo": 120.0
            },
            {
                "start_time": 71.4659090909091,
                "end_time": 71.5340909090909,
                "pitch": 84,
                "velocity": 80,
                "duration": 0.06818181818181301,
                "tempo": 120.0
            },
            {
                "start_time": 71.56818181818181,
                "end_time": 71.61590909090908,
                "pitch": 83,
                "velocity": 80,
                "duration": 0.04772727272727195,
                "tempo": 120.0
            },
            {
                "start_time": 71.64999999999999,
                "end_time": 71.7,
                "pitch": 84,
                "velocity": 80,
                "duration": 0.05000000000001137,
                "tempo": 120.0
            },
            {
                "start_time": 71.73409090909091,
                "end_time": 71.8,
                "pitch": 74,
                "velocity": 80,
                "duration": 0.06590909090908781,
                "tempo": 120.0
            },
            {
                "start_time": 71.81818181818181,
                "end_time": 71.8840909090909,
                "pitch": 83,
                "velocity": 80,
                "duration": 0.06590909090908781,
                "tempo": 120.0
            },
            {
                "start_time": 71.91818181818182,
                "end_time": 71.96818181818182,
                "pitch": 84,
                "velocity": 80,
                "duration": 0.04999999999999716,
                "tempo": 120.0
            },
            {
                "start_time": 72.00227272727273,
                "end_time": 72.05227272727272,
                "pitch": 86,
                "velocity": 80,
                "duration": 0.04999999999999716,
                "tempo": 120.0
            },
            {
                "start_time": 72.08636363636363,
                "end_time": 72.15227272727272,
                "pitch": 83,
                "velocity": 80,
                "duration": 0.06590909090908781,
                "tempo": 120.0
            },
            {
                "start_time": 72.16818181818182,
                "end_time": 72.23636363636363,
                "pitch": 84,
                "velocity": 80,
                "duration": 0.06818181818181301,
                "tempo": 120.0
            },
            {
                "start_time": 72.27045454545454,
                "end_time": 72.32045454545454,
                "pitch": 86,
                "velocity": 80,
                "duration": 0.04999999999999716,
                "tempo": 120.0
            },
            {
                "start_time": 72.35227272727272,
                "end_time": 72.40227272727272,
                "pitch": 83,
                "velocity": 80,
                "duration": 0.04999999999999716,
                "tempo": 120.0
            },
            {
                "start_time": 72.43636363636364,
                "end_time": 72.50227272727273,
                "pitch": 79,
                "velocity": 80,
                "duration": 0.06590909090908781,
                "tempo": 120.0
            },
            {
                "start_time": 72.52045454545454,
                "end_time": 72.58636363636363,
                "pitch": 74,
                "velocity": 80,
                "duration": 0.06590909090908781,
                "tempo": 120.0
            },
            {
                "start_time": 72.62045454545454,
                "end_time": 72.67045454545455,
                "pitch": 79,
                "velocity": 80,
                "duration": 0.05000000000001137,
                "tempo": 120.0
            },
            {
                "start_time": 72.70454545454545,
                "end_time": 72.75454545454545,
                "pitch": 83,
                "velocity": 80,
                "duration": 0.04999999999999716,
                "tempo": 120.0
            },
            {
                "start_time": 72.78863636363636,
                "end_time": 72.85454545454544,
                "pitch": 86,
                "velocity": 80,
                "duration": 0.06590909090908781,
                "tempo": 120.0
            },
            {
                "start_time": 72.87045454545454,
                "end_time": 72.93863636363636,
                "pitch": 84,
                "velocity": 80,
                "duration": 0.06818181818182723,
                "tempo": 120.0
            },
            {
                "start_time": 72.97272727272727,
                "end_time": 73.02272727272727,
                "pitch": 83,
                "velocity": 80,
                "duration": 0.04999999999999716,
                "tempo": 120.0
            },
            {
                "start_time": 73.05454545454545,
                "end_time": 73.10454545454544,
                "pitch": 84,
                "velocity": 80,
                "duration": 0.04999999999999716,
                "tempo": 120.0
            },
            {
                "start_time": 73.13863636363637,
                "end_time": 73.20681818181818,
                "pitch": 74,
                "velocity": 80,
                "duration": 0.06818181818181301,
                "tempo": 120.0
            },
            {
                "start_time": 73.22272727272727,
                "end_time": 73.29090909090908,
                "pitch": 83,
                "velocity": 80,
                "duration": 0.06818181818181301,
                "tempo": 120.0
            },
            {
                "start_time": 73.325,
                "end_time": 73.37727272727273,
                "pitch": 84,
                "velocity": 80,
                "duration": 0.052272727272722364,
                "tempo": 120.0
            },
            {
                "start_time": 73.41136363636363,
                "end_time": 73.46363636363635,
                "pitch": 86,
                "velocity": 80,
                "duration": 0.052272727272722364,
                "tempo": 120.0
            },
            {
                "start_time": 73.49772727272727,
                "end_time": 73.56590909090909,
                "pitch": 83,
                "velocity": 80,
                "duration": 0.06818181818181301,
                "tempo": 120.0
            },
            {
                "start_time": 73.60227272727272,
                "end_time": 73.65227272727272,
                "pitch": 84,
                "velocity": 80,
                "duration": 0.04999999999999716,
                "tempo": 120.0
            },
            {
                "start_time": 73.68636363636364,
                "end_time": 73.73863636363636,
                "pitch": 86,
                "velocity": 80,
                "duration": 0.052272727272722364,
                "tempo": 120.0
            },
            {
                "start_time": 73.77272727272727,
                "end_time": 73.84318181818182,
                "pitch": 83,
                "velocity": 80,
                "duration": 0.07045454545455243,
                "tempo": 120.0
            },
            {
                "start_time": 73.85909090909091,
                "end_time": 73.92954545454545,
                "pitch": 79,
                "velocity": 80,
                "duration": 0.07045454545453822,
                "tempo": 120.0
            },
            {
                "start_time": 73.96363636363635,
                "end_time": 74.01363636363637,
                "pitch": 76,
                "velocity": 80,
                "duration": 0.05000000000001137,
                "tempo": 120.0
            },
            {
                "start_time": 74.04772727272727,
                "end_time": 74.09772727272727,
                "pitch": 81,
                "velocity": 80,
                "duration": 0.04999999999999716,
                "tempo": 120.0
            },
            {
                "start_time": 74.12954545454545,
                "end_time": 74.19772727272726,
                "pitch": 83,
                "velocity": 80,
                "duration": 0.06818181818181301,
                "tempo": 120.0
            },
            {
                "start_time": 74.21363636363635,
                "end_time": 74.28181818181818,
                "pitch": 86,
                "velocity": 80,
                "duration": 0.06818181818182723,
                "tempo": 120.0
            },
            {
                "start_time": 74.31363636363636,
                "end_time": 74.36363636363636,
                "pitch": 84,
                "velocity": 80,
                "duration": 0.04999999999999716,
                "tempo": 120.0
            },
            {
                "start_time": 74.39772727272727,
                "end_time": 74.44772727272726,
                "pitch": 83,
                "velocity": 80,
                "duration": 0.04999999999999716,
                "tempo": 120.0
            },
            {
                "start_time": 74.48181818181818,
                "end_time": 74.54772727272727,
                "pitch": 84,
                "velocity": 80,
                "duration": 0.06590909090908781,
                "tempo": 120.0
            },
            {
                "start_time": 74.56590909090909,
                "end_time": 74.63181818181818,
                "pitch": 81,
                "velocity": 80,
                "duration": 0.06590909090908781,
                "tempo": 120.0
            },
            {
                "start_time": 74.66590909090908,
                "end_time": 74.7159090909091,
                "pitch": 83,
                "velocity": 80,
                "duration": 0.05000000000001137,
                "tempo": 120.0
            },
            {
                "start_time": 74.75,
                "end_time": 74.8,
                "pitch": 84,
                "velocity": 80,
                "duration": 0.04999999999999716,
                "tempo": 120.0
            },
            {
                "start_time": 74.8340909090909,
                "end_time": 74.89999999999999,
                "pitch": 86,
                "velocity": 80,
                "duration": 0.06590909090908781,
                "tempo": 120.0
            },
            {
                "start_time": 74.91590909090908,
                "end_time": 74.98409090909091,
                "pitch": 83,
                "velocity": 80,
                "duration": 0.06818181818182723,
                "tempo": 120.0
            },
            {
                "start_time": 75.01590909090909,
                "end_time": 75.06590909090909,
                "pitch": 84,
                "velocity": 80,
                "duration": 0.04999999999999716,
                "tempo": 120.0
            },
            {
                "start_time": 75.1,
                "end_time": 75.14999999999999,
                "pitch": 86,
                "velocity": 80,
                "duration": 0.04999999999999716,
                "tempo": 120.0
            },
            {
                "start_time": 75.18409090909091,
                "end_time": 75.25,
                "pitch": 88,
                "velocity": 80,
                "duration": 0.06590909090908781,
                "tempo": 120.0
            },
            {
                "start_time": 75.26818181818182,
                "end_time": 75.3340909090909,
                "pitch": 84,
                "velocity": 80,
                "duration": 0.06590909090908781,
                "tempo": 120.0
            },
            {
                "start_time": 75.36818181818181,
                "end_time": 75.41818181818182,
                "pitch": 76,
                "velocity": 80,
                "duration": 0.05000000000001137,
                "tempo": 120.0
            },
            {
                "start_time": 75.45227272727273,
                "end_time": 75.50227272727273,
                "pitch": 81,
                "velocity": 80,
                "duration": 0.04999999999999716,
                "tempo": 120.0
            },
            {
                "start_time": 75.53636363636363,
                "end_time": 75.60227272727272,
                "pitch": 83,
                "velocity": 80,
                "duration": 0.06590909090908781,
                "tempo": 120.0
            },
            {
                "start_time": 75.61818181818181,
                "end_time": 75.68636363636364,
                "pitch": 86,
                "velocity": 80,
                "duration": 0.06818181818182723,
                "tempo": 120.0
            },
            {
                "start_time": 75.72045454545454,
                "end_time": 75.77045454545454,
                "pitch": 84,
                "velocity": 80,
                "duration": 0.04999999999999716,
                "tempo": 120.0
            },
            {
                "start_time": 75.80227272727272,
                "end_time": 75.87045454545454,
                "pitch": 83,
                "velocity": 80,
                "duration": 0.06818181818181301,
                "tempo": 120.0
            },
            {
                "start_time": 75.88636363636363,
                "end_time": 75.95227272727273,
                "pitch": 84,
                "velocity": 80,
                "duration": 0.06590909090910202,
                "tempo": 120.0
            },
            {
                "start_time": 75.98636363636363,
                "end_time": 76.03636363636363,
                "pitch": 81,
                "velocity": 80,
                "duration": 0.04999999999999716,
                "tempo": 120.0
            },
            {
                "start_time": 76.07045454545454,
                "end_time": 76.12045454545454,
                "pitch": 83,
                "velocity": 80,
                "duration": 0.04999999999999716,
                "tempo": 120.0
            },
            {
                "start_time": 76.15454545454546,
                "end_time": 76.22045454545454,
                "pitch": 84,
                "velocity": 80,
                "duration": 0.06590909090908781,
                "tempo": 120.0
            },
            {
                "start_time": 76.23863636363636,
                "end_time": 76.30454545454545,
                "pitch": 86,
                "velocity": 80,
                "duration": 0.06590909090908781,
                "tempo": 120.0
            },
            {
                "start_time": 76.33863636363635,
                "end_time": 76.38863636363637,
                "pitch": 83,
                "velocity": 80,
                "duration": 0.05000000000001137,
                "tempo": 120.0
            },
            {
                "start_time": 76.42272727272727,
                "end_time": 76.47272727272727,
                "pitch": 84,
                "velocity": 80,
                "duration": 0.04999999999999716,
                "tempo": 120.0
            },
            {
                "start_time": 76.50454545454545,
                "end_time": 76.57272727272726,
                "pitch": 86,
                "velocity": 80,
                "duration": 0.06818181818181301,
                "tempo": 120.0
            },
            {
                "start_time": 76.58863636363635,
                "end_time": 76.65681818181818,
                "pitch": 88,
                "velocity": 80,
                "duration": 0.06818181818182723,
                "tempo": 120.0
            },
            {
                "start_time": 76.68863636363636,
                "end_time": 76.73863636363636,
                "pitch": 84,
                "velocity": 80,
                "duration": 0.04999999999999716,
                "tempo": 120.0
            },
            {
                "start_time": 76.77272727272727,
                "end_time": 76.825,
                "pitch": 76,
                "velocity": 80,
                "duration": 0.052272727272736574,
                "tempo": 120.0
            },
            {
                "start_time": 76.85909090909091,
                "end_time": 76.92727272727272,
                "pitch": 81,
                "velocity": 80,
                "duration": 0.06818181818181301,
                "tempo": 120.0
            },
            {
                "start_time": 76.94545454545454,
                "end_time": 77.01363636363637,
                "pitch": 83,
                "velocity": 80,
                "duration": 0.06818181818182723,
                "tempo": 120.0
            },
            {
                "start_time": 77.04772727272727,
                "end_time": 77.1,
                "pitch": 86,
                "velocity": 80,
                "duration": 0.052272727272722364,
                "tempo": 120.0
            },
            {
                "start_time": 77.1340909090909,
                "end_time": 77.18409090909091,
                "pitch": 84,
                "velocity": 80,
                "duration": 0.05000000000001137,
                "tempo": 120.0
            },
            {
                "start_time": 77.2159090909091,
                "end_time": 77.27954545454546,
                "pitch": 83,
                "velocity": 80,
                "duration": 0.0636363636363626,
                "tempo": 120.0
            },
            {
                "start_time": 77.29772727272727,
                "end_time": 77.36136363636363,
                "pitch": 84,
                "velocity": 80,
                "duration": 0.0636363636363626,
                "tempo": 120.0
            },
            {
                "start_time": 77.39545454545454,
                "end_time": 77.44318181818181,
                "pitch": 81,
                "velocity": 80,
                "duration": 0.04772727272727195,
                "tempo": 120.0
            },
            {
                "start_time": 77.475,
                "end_time": 77.52727272727272,
                "pitch": 83,
                "velocity": 80,
                "duration": 0.052272727272722364,
                "tempo": 120.0
            },
            {
                "start_time": 77.56136363636364,
                "end_time": 77.62954545454545,
                "pitch": 84,
                "velocity": 80,
                "duration": 0.06818181818181301,
                "tempo": 120.0
            },
            {
                "start_time": 77.64772727272727,
                "end_time": 77.7159090909091,
                "pitch": 86,
                "velocity": 80,
                "duration": 0.06818181818182723,
                "tempo": 120.0
            },
            {
                "start_time": 77.75,
                "end_time": 77.80227272727272,
                "pitch": 83,
                "velocity": 80,
                "duration": 0.052272727272722364,
                "tempo": 120.0
            },
            {
                "start_time": 77.83636363636363,
                "end_time": 77.90454545454546,
                "pitch": 84,
                "velocity": 80,
                "duration": 0.06818181818182723,
                "tempo": 120.0
            },
            {
                "start_time": 77.92045454545455,
                "end_time": 77.98863636363636,
                "pitch": 86,
                "velocity": 80,
                "duration": 0.06818181818181301,
                "tempo": 120.0
            },
            {
                "start_time": 78.02045454545454,
                "end_time": 78.07045454545454,
                "pitch": 88,
                "velocity": 80,
                "duration": 0.04999999999999716,
                "tempo": 120.0
            },
            {
                "start_time": 78.10454545454544,
                "end_time": 78.15454545454546,
                "pitch": 84,
                "velocity": 80,
                "duration": 0.05000000000001137,
                "tempo": 120.0
            },
            {
                "start_time": 78.18863636363636,
                "end_time": 78.25454545454545,
                "pitch": 76,
                "velocity": 80,
                "duration": 0.06590909090908781,
                "tempo": 120.0
            },
            {
                "start_time": 78.27272727272727,
                "end_time": 78.33863636363635,
                "pitch": 81,
                "velocity": 80,
                "duration": 0.06590909090908781,
                "tempo": 120.0
            },
            {
                "start_time": 78.37272727272727,
                "end_time": 78.42272727272727,
                "pitch": 83,
                "velocity": 80,
                "duration": 0.04999999999999716,
                "tempo": 120.0
            },
            {
                "start_time": 78.45681818181818,
                "end_time": 78.50681818181818,
                "pitch": 86,
                "velocity": 80,
                "duration": 0.04999999999999716,
                "tempo": 120.0
            },
            {
                "start_time": 78.53863636363636,
                "end_time": 78.60681818181818,
                "pitch": 84,
                "velocity": 80,
                "duration": 0.06818181818182723,
                "tempo": 120.0
            },
            {
                "start_time": 78.62272727272727,
                "end_time": 78.69090909090909,
                "pitch": 83,
                "velocity": 80,
                "duration": 0.06818181818181301,
                "tempo": 120.0
            },
            {
                "start_time": 78.72272727272727,
                "end_time": 78.77272727272727,
                "pitch": 84,
                "velocity": 80,
                "duration": 0.04999999999999716,
                "tempo": 120.0
            },
            {
                "start_time": 78.80681818181817,
                "end_time": 78.85681818181818,
                "pitch": 81,
                "velocity": 80,
                "duration": 0.05000000000001137,
                "tempo": 120.0
            },
            {
                "start_time": 78.89090909090909,
                "end_time": 78.95681818181818,
                "pitch": 83,
                "velocity": 80,
                "duration": 0.06590909090908781,
                "tempo": 120.0
            },
            {
                "start_time": 78.975,
                "end_time": 79.04090909090908,
                "pitch": 84,
                "velocity": 80,
                "duration": 0.06590909090908781,
                "tempo": 120.0
            },
            {
                "start_time": 79.075,
                "end_time": 79.125,
                "pitch": 86,
                "velocity": 80,
                "duration": 0.04999999999999716,
                "tempo": 120.0
            },
            {
                "start_time": 79.1590909090909,
                "end_time": 79.2090909090909,
                "pitch": 83,
                "velocity": 80,
                "duration": 0.04999999999999716,
                "tempo": 120.0
            },
            {
                "start_time": 79.24318181818181,
                "end_time": 79.30909090909091,
                "pitch": 84,
                "velocity": 80,
                "duration": 0.06590909090910202,
                "tempo": 120.0
            },
            {
                "start_time": 79.325,
                "end_time": 79.39318181818182,
                "pitch": 86,
                "velocity": 80,
                "duration": 0.06818181818181301,
                "tempo": 120.0
            },
            {
                "start_time": 79.425,
                "end_time": 79.475,
                "pitch": 88,
                "velocity": 80,
                "duration": 0.04999999999999716,
                "tempo": 120.0
            },
            {
                "start_time": 79.5090909090909,
                "end_time": 79.55909090909091,
                "pitch": 84,
                "velocity": 80,
                "duration": 0.05000000000001137,
                "tempo": 120.0
            },
            {
                "start_time": 79.59545454545454,
                "end_time": 79.6590909090909,
                "pitch": 76,
                "velocity": 80,
                "duration": 0.0636363636363626,
                "tempo": 120.0
            },
            {
                "start_time": 79.67727272727272,
                "end_time": 79.67954545454545,
                "pitch": 81,
                "velocity": 80,
                "duration": 0.0022727272727252057,
                "tempo": 120.0
            }
        ],
        "Violin": [
            {
                "start_time": 0.004545454545454545,
                "end_time": 0.42272727272727273,
                "pitch": 60,
                "velocity": 101,
                "duration": 0.4181818181818182,
                "tempo": 120.0
            },
            {
                "start_time": 0.42272727272727273,
                "end_time": 0.975,
                "pitch": 62,
                "velocity": 101,
                "duration": 0.5522727272727272,
                "tempo": 120.0
            },
            {
                "start_time": 0.975,
                "end_time": 1.0295454545454545,
                "pitch": 64,
                "velocity": 101,
                "duration": 0.054545454545454564,
                "tempo": 120.0
            },
            {
                "start_time": 1.065909090909091,
                "end_time": 1.5113636363636362,
                "pitch": 60,
                "velocity": 101,
                "duration": 0.4454545454545453,
                "tempo": 120.0
            },
            {
                "start_time": 1.5113636363636362,
                "end_time": 2.0795454545454546,
                "pitch": 62,
                "velocity": 101,
                "duration": 0.5681818181818183,
                "tempo": 120.0
            },
            {
                "start_time": 2.0795454545454546,
                "end_time": 2.0954545454545452,
                "pitch": 64,
                "velocity": 101,
                "duration": 0.01590909090909065,
                "tempo": 120.0
            },
            {
                "start_time": 2.131818181818182,
                "end_time": 2.565909090909091,
                "pitch": 60,
                "velocity": 101,
                "duration": 0.4340909090909091,
                "tempo": 120.0
            },
            {
                "start_time": 2.565909090909091,
                "end_time": 3.1136363636363633,
                "pitch": 62,
                "velocity": 101,
                "duration": 0.5477272727272724,
                "tempo": 120.0
            },
            {
                "start_time": 3.1136363636363633,
                "end_time": 3.131818181818182,
                "pitch": 64,
                "velocity": 101,
                "duration": 0.01818181818181852,
                "tempo": 120.0
            },
            {
                "start_time": 3.1659090909090906,
                "end_time": 3.6068181818181815,
                "pitch": 60,
                "velocity": 101,
                "duration": 0.4409090909090909,
                "tempo": 120.0
            },
            {
                "start_time": 3.6068181818181815,
                "end_time": 4.1454545454545455,
                "pitch": 62,
                "velocity": 101,
                "duration": 0.538636363636364,
                "tempo": 120.0
            },
            {
                "start_time": 4.179545454545455,
                "end_time": 4.613636363636363,
                "pitch": 60,
                "velocity": 101,
                "duration": 0.43409090909090864,
                "tempo": 120.0
            },
            {
                "start_time": 4.613636363636363,
                "end_time": 5.1477272727272725,
                "pitch": 62,
                "velocity": 101,
                "duration": 0.5340909090909092,
                "tempo": 120.0
            },
            {
                "start_time": 5.184090909090909,
                "end_time": 5.6090909090909085,
                "pitch": 60,
                "velocity": 101,
                "duration": 0.4249999999999998,
                "tempo": 120.0
            },
            {
                "start_time": 5.6090909090909085,
                "end_time": 6.120454545454545,
                "pitch": 62,
                "velocity": 101,
                "duration": 0.5113636363636367,
                "tempo": 120.0
            }
        ],
        "Church Organ": [
            {
                "start_time": 51.35227272727273,
                "end_time": 51.4,
                "pitch": 64,
                "velocity": 80,
                "duration": 0.04772727272727195,
                "tempo": 120.0
            },
            {
                "start_time": 51.434090909090905,
                "end_time": 51.5,
                "pitch": 60,
                "velocity": 80,
                "duration": 0.06590909090909491,
                "tempo": 120.0
            },
            {
                "start_time": 51.518181818181816,
                "end_time": 51.584090909090904,
                "pitch": 64,
                "velocity": 80,
                "duration": 0.06590909090908781,
                "tempo": 120.0
            },
            {
                "start_time": 51.61818181818182,
                "end_time": 51.668181818181814,
                "pitch": 60,
                "velocity": 80,
                "duration": 0.04999999999999716,
                "tempo": 120.0
            },
            {
                "start_time": 51.70227272727273,
                "end_time": 51.75,
                "pitch": 64,
                "velocity": 80,
                "duration": 0.04772727272727195,
                "tempo": 120.0
            },
            {
                "start_time": 51.86818181818182,
                "end_time": 51.934090909090905,
                "pitch": 64,
                "velocity": 80,
                "duration": 0.06590909090908781,
                "tempo": 120.0
            },
            {
                "start_time": 51.96818181818182,
                "end_time": 52.018181818181816,
                "pitch": 60,
                "velocity": 80,
                "duration": 0.04999999999999716,
                "tempo": 120.0
            },
            {
                "start_time": 52.05227272727272,
                "end_time": 52.11818181818182,
                "pitch": 64,
                "velocity": 80,
                "duration": 0.06590909090909491,
                "tempo": 120.0
            },
            {
                "start_time": 52.13636363636363,
                "end_time": 52.20227272727273,
                "pitch": 60,
                "velocity": 80,
                "duration": 0.06590909090909491,
                "tempo": 120.0
            },
            {
                "start_time": 52.236363636363635,
                "end_time": 52.28636363636363,
                "pitch": 64,
                "velocity": 80,
                "duration": 0.04999999999999716,
                "tempo": 120.0
            },
            {
                "start_time": 52.40454545454545,
                "end_time": 52.470454545454544,
                "pitch": 64,
                "velocity": 80,
                "duration": 0.06590909090909491,
                "tempo": 120.0
            },
            {
                "start_time": 52.48863636363636,
                "end_time": 52.554545454545455,
                "pitch": 63,
                "velocity": 80,
                "duration": 0.06590909090909491,
                "tempo": 120.0
            },
            {
                "start_time": 52.58863636363636,
                "end_time": 52.63636363636363,
                "pitch": 62,
                "velocity": 80,
                "duration": 0.04772727272727195,
                "tempo": 120.0
            },
            {
                "start_time": 52.67045454545454,
                "end_time": 52.720454545454544,
                "pitch": 61,
                "velocity": 80,
                "duration": 0.05000000000000426,
                "tempo": 120.0
            },
            {
                "start_time": 52.75681818181818,
                "end_time": 52.82272727272727,
                "pitch": 64,
                "velocity": 80,
                "duration": 0.06590909090908781,
                "tempo": 120.0
            },
            {
                "start_time": 52.840909090909086,
                "end_time": 52.90909090909091,
                "pitch": 60,
                "velocity": 80,
                "duration": 0.06818181818182012,
                "tempo": 120.0
            },
            {
                "start_time": 52.945454545454545,
                "end_time": 52.99545454545454,
                "pitch": 64,
                "velocity": 80,
                "duration": 0.04999999999999716,
                "tempo": 120.0
            },
            {
                "start_time": 53.02954545454545,
                "end_time": 53.08181818181818,
                "pitch": 60,
                "velocity": 80,
                "duration": 0.05227272727272947,
                "tempo": 120.0
            },
            {
                "start_time": 53.115909090909085,
                "end_time": 53.184090909090905,
                "pitch": 64,
                "velocity": 80,
                "duration": 0.06818181818182012,
                "tempo": 120.0
            },
            {
                "start_time": 53.30227272727272,
                "end_time": 53.349999999999994,
                "pitch": 64,
                "velocity": 80,
                "duration": 0.04772727272727195,
                "tempo": 120.0
            },
            {
                "start_time": 53.38409090909091,
                "end_time": 53.434090909090905,
                "pitch": 60,
                "velocity": 80,
                "duration": 0.04999999999999716,
                "tempo": 120.0
            },
            {
                "start_time": 53.46818181818182,
                "end_time": 53.53409090909091,
                "pitch": 64,
                "velocity": 80,
                "duration": 0.06590909090908781,
                "tempo": 120.0
            },
            {
                "start_time": 53.55227272727272,
                "end_time": 53.61818181818182,
                "pitch": 60,
                "velocity": 80,
                "duration": 0.06590909090909491,
                "tempo": 120.0
            },
            {
                "start_time": 53.652272727272724,
                "end_time": 53.70227272727273,
                "pitch": 64,
                "velocity": 80,
                "duration": 0.05000000000000426,
                "tempo": 120.0
            },
            {
                "start_time": 53.820454545454545,
                "end_time": 53.88636363636363,
                "pitch": 64,
                "velocity": 80,
                "duration": 0.06590909090908781,
                "tempo": 120.0
            },
            {
                "start_time": 53.902272727272724,
                "end_time": 53.970454545454544,
                "pitch": 63,
                "velocity": 80,
                "duration": 0.06818181818182012,
                "tempo": 120.0
            },
            {
                "start_time": 54.00454545454545,
                "end_time": 54.05227272727272,
                "pitch": 62,
                "velocity": 80,
                "duration": 0.04772727272727195,
                "tempo": 120.0
            },
            {
                "start_time": 54.086363636363636,
                "end_time": 54.13636363636363,
                "pitch": 61,
                "velocity": 80,
                "duration": 0.04999999999999716,
                "tempo": 120.0
            },
            {
                "start_time": 54.17272727272727,
                "end_time": 54.236363636363635,
                "pitch": 62,
                "velocity": 80,
                "duration": 0.0636363636363626,
                "tempo": 120.0
            },
            {
                "start_time": 54.27045454545454,
                "end_time": 54.320454545454545,
                "pitch": 59,
                "velocity": 80,
                "duration": 0.05000000000000426,
                "tempo": 120.0
            },
            {
                "start_time": 54.35454545454545,
                "end_time": 54.40454545454545,
                "pitch": 62,
                "velocity": 80,
                "duration": 0.04999999999999716,
                "tempo": 120.0
            },
            {
                "start_time": 54.43863636363636,
                "end_time": 54.50454545454545,
                "pitch": 59,
                "velocity": 80,
                "duration": 0.06590909090908781,
                "tempo": 120.0
            },
            {
                "start_time": 54.52272727272727,
                "end_time": 54.58863636363636,
                "pitch": 62,
                "velocity": 80,
                "duration": 0.06590909090908781,
                "tempo": 120.0
            },
            {
                "start_time": 54.70681818181818,
                "end_time": 54.75454545454545,
                "pitch": 62,
                "velocity": 80,
                "duration": 0.04772727272727195,
                "tempo": 120.0
            },
            {
                "start_time": 54.788636363636364,
                "end_time": 54.85681818181818,
                "pitch": 59,
                "velocity": 80,
                "duration": 0.06818181818181301,
                "tempo": 120.0
            },
            {
                "start_time": 54.87272727272727,
                "end_time": 54.93863636363636,
                "pitch": 62,
                "velocity": 80,
                "duration": 0.06590909090909491,
                "tempo": 120.0
            },
            {
                "start_time": 54.97272727272727,
                "end_time": 55.02272727272727,
                "pitch": 59,
                "velocity": 80,
                "duration": 0.05000000000000426,
                "tempo": 120.0
            },
            {
                "start_time": 55.05681818181818,
                "end_time": 55.10681818181818,
                "pitch": 62,
                "velocity": 80,
                "duration": 0.04999999999999716,
                "tempo": 120.0
            },
            {
                "start_time": 55.224999999999994,
                "end_time": 55.29090909090909,
                "pitch": 62,
                "velocity": 80,
                "duration": 0.06590909090909491,
                "tempo": 120.0
            },
            {
                "start_time": 55.324999999999996,
                "end_time": 55.375,
                "pitch": 61,
                "velocity": 80,
                "duration": 0.05000000000000426,
                "tempo": 120.0
            },
            {
                "start_time": 55.40909090909091,
                "end_time": 55.45681818181818,
                "pitch": 60,
                "velocity": 80,
                "duration": 0.04772727272727195,
                "tempo": 120.0
            },
            {
                "start_time": 55.490909090909085,
                "end_time": 55.559090909090905,
                "pitch": 59,
                "velocity": 80,
                "duration": 0.06818181818182012,
                "tempo": 120.0
            },
            {
                "start_time": 55.57727272727273,
                "end_time": 55.64090909090909,
                "pitch": 62,
                "velocity": 80,
                "duration": 0.0636363636363626,
                "tempo": 120.0
            },
            {
                "start_time": 55.675,
                "end_time": 55.724999999999994,
                "pitch": 59,
                "velocity": 80,
                "duration": 0.04999999999999716,
                "tempo": 120.0
            },
            {
                "start_time": 55.75909090909091,
                "end_time": 55.809090909090905,
                "pitch": 62,
                "velocity": 80,
                "duration": 0.04999999999999716,
                "tempo": 120.0
            },
            {
                "start_time": 55.84318181818182,
                "end_time": 55.90909090909091,
                "pitch": 59,
                "velocity": 80,
                "duration": 0.06590909090908781,
                "tempo": 120.0
            },
            {
                "start_time": 55.92727272727272,
                "end_time": 55.99318181818182,
                "pitch": 62,
                "velocity": 80,
                "duration": 0.06590909090909491,
                "tempo": 120.0
            },
            {
                "start_time": 56.111363636363635,
                "end_time": 56.15909090909091,
                "pitch": 62,
                "velocity": 80,
                "duration": 0.04772727272727195,
                "tempo": 120.0
            },
            {
                "start_time": 56.195454545454545,
                "end_time": 56.26136363636363,
                "pitch": 59,
                "velocity": 80,
                "duration": 0.06590909090908781,
                "tempo": 120.0
            },
            {
                "start_time": 56.277272727272724,
                "end_time": 56.34318181818182,
                "pitch": 62,
                "velocity": 80,
                "duration": 0.06590909090909491,
                "tempo": 120.0
            },
            {
                "start_time": 56.37954545454545,
                "end_time": 56.42727272727272,
                "pitch": 59,
                "velocity": 80,
                "duration": 0.04772727272727195,
                "tempo": 120.0
            },
            {
                "start_time": 56.461363636363636,
                "end_time": 56.527272727272724,
                "pitch": 62,
                "velocity": 80,
                "duration": 0.06590909090908781,
                "tempo": 120.0
            },
            {
                "start_time": 56.64545454545454,
                "end_time": 56.69772727272727,
                "pitch": 62,
                "velocity": 80,
                "duration": 0.05227272727272947,
                "tempo": 120.0
            },
            {
                "start_time": 56.73181818181818,
                "end_time": 56.78409090909091,
                "pitch": 61,
                "velocity": 80,
                "duration": 0.05227272727272947,
                "tempo": 120.0
            },
            {
                "start_time": 56.81818181818181,
                "end_time": 56.88636363636363,
                "pitch": 60,
                "velocity": 80,
                "duration": 0.06818181818182012,
                "tempo": 120.0
            },
            {
                "start_time": 56.90454545454545,
                "end_time": 56.97272727272727,
                "pitch": 59,
                "velocity": 80,
                "duration": 0.06818181818182012,
                "tempo": 120.0
            },
            {
                "start_time": 57.00909090909091,
                "end_time": 57.059090909090905,
                "pitch": 60,
                "velocity": 80,
                "duration": 0.04999999999999716,
                "tempo": 120.0
            },
            {
                "start_time": 57.09318181818182,
                "end_time": 57.14545454545454,
                "pitch": 57,
                "velocity": 80,
                "duration": 0.052272727272722364,
                "tempo": 120.0
            },
            {
                "start_time": 57.179545454545455,
                "end_time": 57.24772727272727,
                "pitch": 60,
                "velocity": 80,
                "duration": 0.06818181818181301,
                "tempo": 120.0
            },
            {
                "start_time": 57.26590909090909,
                "end_time": 57.334090909090904,
                "pitch": 57,
                "velocity": 80,
                "duration": 0.06818181818181301,
                "tempo": 120.0
            },
            {
                "start_time": 57.37045454545454,
                "end_time": 57.418181818181814,
                "pitch": 60,
                "velocity": 80,
                "duration": 0.04772727272727195,
                "tempo": 120.0
            },
            {
                "start_time": 57.53636363636363,
                "end_time": 57.60227272727273,
                "pitch": 60,
                "velocity": 80,
                "duration": 0.06590909090909491,
                "tempo": 120.0
            },
            {
                "start_time": 57.62045454545454,
                "end_time": 57.68636363636363,
                "pitch": 57,
                "velocity": 80,
                "duration": 0.06590909090908781,
                "tempo": 120.0
            },
            {
                "start_time": 57.720454545454544,
                "end_time": 57.77045454545454,
                "pitch": 60,
                "velocity": 80,
                "duration": 0.04999999999999716,
                "tempo": 120.0
            },
            {
                "start_time": 57.804545454545455,
                "end_time": 57.85454545454545,
                "pitch": 57,
                "velocity": 80,
                "duration": 0.04999999999999716,
                "tempo": 120.0
            },
            {
                "start_time": 57.88863636363636,
                "end_time": 57.95454545454545,
                "pitch": 60,
                "velocity": 80,
                "duration": 0.06590909090909491,
                "tempo": 120.0
            },
            {
                "start_time": 58.07272727272727,
                "end_time": 58.12272727272727,
                "pitch": 60,
                "velocity": 80,
                "duration": 0.04999999999999716,
                "tempo": 120.0
            },
            {
                "start_time": 58.15681818181818,
                "end_time": 58.20454545454545,
                "pitch": 62,
                "velocity": 80,
                "duration": 0.04772727272727195,
                "tempo": 120.0
            },
            {
                "start_time": 58.240909090909085,
                "end_time": 58.304545454545455,
                "pitch": 65,
                "velocity": 80,
                "duration": 0.06363636363636971,
                "tempo": 120.0
            },
            {
                "start_time": 58.32272727272727,
                "end_time": 58.38863636363636,
                "pitch": 60,
                "velocity": 80,
                "duration": 0.06590909090908781,
                "tempo": 120.0
            },
            {
                "start_time": 58.425,
                "end_time": 58.47272727272727,
                "pitch": 60,
                "velocity": 80,
                "duration": 0.04772727272727195,
                "tempo": 120.0
            },
            {
                "start_time": 58.506818181818176,
                "end_time": 58.57272727272727,
                "pitch": 57,
                "velocity": 80,
                "duration": 0.06590909090909491,
                "tempo": 120.0
            },
            {
                "start_time": 58.590909090909086,
                "end_time": 58.65681818181818,
                "pitch": 60,
                "velocity": 80,
                "duration": 0.06590909090909491,
                "tempo": 120.0
            },
            {
                "start_time": 58.69090909090909,
                "end_time": 58.740909090909085,
                "pitch": 57,
                "velocity": 80,
                "duration": 0.04999999999999716,
                "tempo": 120.0
            },
            {
                "start_time": 58.775,
                "end_time": 58.824999999999996,
                "pitch": 60,
                "velocity": 80,
                "duration": 0.04999999999999716,
                "tempo": 120.0
            },
            {
                "start_time": 58.94318181818181,
                "end_time": 59.00909090909091,
                "pitch": 60,
                "velocity": 80,
                "duration": 0.06590909090909491,
                "tempo": 120.0
            },
            {
                "start_time": 59.043181818181814,
                "end_time": 59.090909090909086,
                "pitch": 57,
                "velocity": 80,
                "duration": 0.04772727272727195,
                "tempo": 120.0
            },
            {
                "start_time": 59.127272727272725,
                "end_time": 59.175,
                "pitch": 60,
                "velocity": 80,
                "duration": 0.04772727272727195,
                "tempo": 120.0
            },
            {
                "start_time": 59.209090909090904,
                "end_time": 59.275,
                "pitch": 57,
                "velocity": 80,
                "duration": 0.06590909090909491,
                "tempo": 120.0
            },
            {
                "start_time": 59.293181818181814,
                "end_time": 59.35909090909091,
                "pitch": 60,
                "velocity": 80,
                "duration": 0.06590909090909491,
                "tempo": 120.0
            },
            {
                "start_time": 59.47727272727273,
                "end_time": 59.527272727272724,
                "pitch": 60,
                "velocity": 80,
                "duration": 0.04999999999999716,
                "tempo": 120.0
            },
            {
                "start_time": 59.56136363636363,
                "end_time": 59.627272727272725,
                "pitch": 62,
                "velocity": 80,
                "duration": 0.06590909090909491,
                "tempo": 120.0
            },
            {
                "start_time": 59.64545454545454,
                "end_time": 59.711363636363636,
                "pitch": 65,
                "velocity": 80,
                "duration": 0.06590909090909491,
                "tempo": 120.0
            },
            {
                "start_time": 59.74545454545454,
                "end_time": 59.793181818181814,
                "pitch": 60,
                "velocity": 80,
                "duration": 0.04772727272727195,
                "tempo": 120.0
            },
            {
                "start_time": 59.82954545454545,
                "end_time": 59.877272727272725,
                "pitch": 62,
                "velocity": 80,
                "duration": 0.04772727272727195,
                "tempo": 120.0
            },
            {
                "start_time": 59.91136363636363,
                "end_time": 59.97727272727273,
                "pitch": 59,
                "velocity": 80,
                "duration": 0.06590909090909491,
                "tempo": 120.0
            },
            {
                "start_time": 59.99545454545454,
                "end_time": 60.06136363636363,
                "pitch": 62,
                "velocity": 80,
                "duration": 0.06590909090908781,
                "tempo": 120.0
            },
            {
                "start_time": 60.095454545454544,
                "end_time": 60.14545454545454,
                "pitch": 59,
                "velocity": 80,
                "duration": 0.04999999999999716,
                "tempo": 120.0
            },
            {
                "start_time": 60.179545454545455,
                "end_time": 60.22954545454545,
                "pitch": 62,
                "velocity": 80,
                "duration": 0.04999999999999716,
                "tempo": 120.0
            },
            {
                "start_time": 60.34772727272727,
                "end_time": 60.413636363636364,
                "pitch": 62,
                "velocity": 80,
                "duration": 0.06590909090909491,
                "tempo": 120.0
            },
            {
                "start_time": 60.44772727272727,
                "end_time": 60.49772727272727,
                "pitch": 59,
                "velocity": 80,
                "duration": 0.04999999999999716,
                "tempo": 120.0
            },
            {
                "start_time": 60.53181818181818,
                "end_time": 60.57954545454545,
                "pitch": 62,
                "velocity": 80,
                "duration": 0.04772727272727195,
                "tempo": 120.0
            },
            {
                "start_time": 60.61363636363636,
                "end_time": 60.68181818181818,
                "pitch": 59,
                "velocity": 80,
                "duration": 0.06818181818182012,
                "tempo": 120.0
            },
            {
                "start_time": 60.715909090909086,
                "end_time": 60.76363636363636,
                "pitch": 62,
                "velocity": 80,
                "duration": 0.04772727272727195,
                "tempo": 120.0
            },
            {
                "start_time": 60.881818181818176,
                "end_time": 60.94772727272727,
                "pitch": 62,
                "velocity": 80,
                "duration": 0.06590909090909491,
                "tempo": 120.0
            },
            {
                "start_time": 60.965909090909086,
                "end_time": 61.03181818181818,
                "pitch": 65,
                "velocity": 80,
                "duration": 0.06590909090909491,
                "tempo": 120.0
            },
            {
                "start_time": 61.06590909090909,
                "end_time": 61.115909090909085,
                "pitch": 67,
                "velocity": 80,
                "duration": 0.04999999999999716,
                "tempo": 120.0
            },
            {
                "start_time": 61.15,
                "end_time": 61.199999999999996,
                "pitch": 62,
                "velocity": 80,
                "duration": 0.04999999999999716,
                "tempo": 120.0
            },
            {
                "start_time": 61.23409090909091,
                "end_time": 61.3,
                "pitch": 62,
                "velocity": 80,
                "duration": 0.06590909090908781,
                "tempo": 120.0
            },
            {
                "start_time": 61.31590909090909,
                "end_time": 61.38409090909091,
                "pitch": 59,
                "velocity": 80,
                "duration": 0.06818181818182012,
                "tempo": 120.0
            },
            {
                "start_time": 61.418181818181814,
                "end_time": 61.465909090909086,
                "pitch": 62,
                "velocity": 80,
                "duration": 0.04772727272727195,
                "tempo": 120.0
            },
            {
                "start_time": 61.5,
                "end_time": 61.55,
                "pitch": 59,
                "velocity": 80,
                "duration": 0.04999999999999716,
                "tempo": 120.0
            },
            {
                "start_time": 61.584090909090904,
                "end_time": 61.65,
                "pitch": 62,
                "velocity": 80,
                "duration": 0.06590909090909491,
                "tempo": 120.0
            },
            {
                "start_time": 61.768181818181816,
                "end_time": 61.81818181818181,
                "pitch": 62,
                "velocity": 80,
                "duration": 0.04999999999999716,
                "tempo": 120.0
            },
            {
                "start_time": 61.85227272727273,
                "end_time": 61.902272727272724,
                "pitch": 59,
                "velocity": 80,
                "duration": 0.04999999999999716,
                "tempo": 120.0
            },
            {
                "start_time": 61.93636363636363,
                "end_time": 62.002272727272725,
                "pitch": 62,
                "velocity": 80,
                "duration": 0.06590909090909491,
                "tempo": 120.0
            },
            {
                "start_time": 62.018181818181816,
                "end_time": 62.086363636363636,
                "pitch": 59,
                "velocity": 80,
                "duration": 0.06818181818182012,
                "tempo": 120.0
            },
            {
                "start_time": 62.12045454545454,
                "end_time": 62.168181818181814,
                "pitch": 62,
                "velocity": 80,
                "duration": 0.04772727272727195,
                "tempo": 120.0
            },
            {
                "start_time": 62.28636363636363,
                "end_time": 62.35227272727273,
                "pitch": 62,
                "velocity": 80,
                "duration": 0.06590909090909491,
                "tempo": 120.0
            },
            {
                "start_time": 62.37045454545454,
                "end_time": 62.43636363636363,
                "pitch": 65,
                "velocity": 80,
                "duration": 0.06590909090908781,
                "tempo": 120.0
            },
            {
                "start_time": 62.470454545454544,
                "end_time": 62.52045454545454,
                "pitch": 67,
                "velocity": 80,
                "duration": 0.04999999999999716,
                "tempo": 120.0
            },
            {
                "start_time": 62.554545454545455,
                "end_time": 62.60454545454545,
                "pitch": 62,
                "velocity": 80,
                "duration": 0.04999999999999716,
                "tempo": 120.0
            },
            {
                "start_time": 62.64090909090909,
                "end_time": 62.70681818181818,
                "pitch": 64,
                "velocity": 80,
                "duration": 0.06590909090908781,
                "tempo": 120.0
            },
            {
                "start_time": 62.72272727272727,
                "end_time": 62.793181818181814,
                "pitch": 60,
                "velocity": 80,
                "duration": 0.07045454545454533,
                "tempo": 120.0
            },
            {
                "start_time": 62.82727272727272,
                "end_time": 62.877272727272725,
                "pitch": 64,
                "velocity": 80,
                "duration": 0.05000000000000426,
                "tempo": 120.0
            },
            {
                "start_time": 62.913636363636364,
                "end_time": 62.98181818181818,
                "pitch": 60,
                "velocity": 80,
                "duration": 0.06818181818181301,
                "tempo": 120.0
            },
            {
                "start_time": 63.0,
                "end_time": 63.06363636363636,
                "pitch": 64,
                "velocity": 80,
                "duration": 0.0636363636363626,
                "tempo": 120.0
            },
            {
                "start_time": 63.179545454545455,
                "end_time": 63.22727272727273,
                "pitch": 64,
                "velocity": 80,
                "duration": 0.04772727272727195,
                "tempo": 120.0
            },
            {
                "start_time": 63.25909090909091,
                "end_time": 63.324999999999996,
                "pitch": 60,
                "velocity": 80,
                "duration": 0.06590909090908781,
                "tempo": 120.0
            },
            {
                "start_time": 63.340909090909086,
                "end_time": 63.40681818181818,
                "pitch": 64,
                "velocity": 80,
                "duration": 0.06590909090909491,
                "tempo": 120.0
            },
            {
                "start_time": 63.44090909090909,
                "end_time": 63.490909090909085,
                "pitch": 60,
                "velocity": 80,
                "duration": 0.04999999999999716,
                "tempo": 120.0
            },
            {
                "start_time": 63.525,
                "end_time": 63.574999999999996,
                "pitch": 64,
                "velocity": 80,
                "duration": 0.04999999999999716,
                "tempo": 120.0
            },
            {
                "start_time": 63.69318181818181,
                "end_time": 63.75909090909091,
                "pitch": 64,
                "velocity": 80,
                "duration": 0.06590909090909491,
                "tempo": 120.0
            },
            {
                "start_time": 63.793181818181814,
                "end_time": 63.840909090909086,
                "pitch": 63,
                "velocity": 80,
                "duration": 0.04772727272727195,
                "tempo": 120.0
            },
            {
                "start_time": 63.877272727272725,
                "end_time": 63.925,
                "pitch": 62,
                "velocity": 80,
                "duration": 0.04772727272727195,
                "tempo": 120.0
            },
            {
                "start_time": 63.959090909090904,
                "end_time": 64.02499999999999,
                "pitch": 61,
                "velocity": 80,
                "duration": 0.06590909090908781,
                "tempo": 120.0
            },
            {
                "start_time": 64.04545454545455,
                "end_time": 64.11136363636363,
                "pitch": 64,
                "velocity": 80,
                "duration": 0.06590909090908781,
                "tempo": 120.0
            },
            {
                "start_time": 64.14545454545454,
                "end_time": 64.19772727272726,
                "pitch": 60,
                "velocity": 80,
                "duration": 0.052272727272722364,
                "tempo": 120.0
            },
            {
                "start_time": 64.23181818181818,
                "end_time": 64.2840909090909,
                "pitch": 64,
                "velocity": 80,
                "duration": 0.052272727272722364,
                "tempo": 120.0
            },
            {
                "start_time": 64.31818181818181,
                "end_time": 64.38636363636364,
                "pitch": 60,
                "velocity": 80,
                "duration": 0.06818181818182723,
                "tempo": 120.0
            },
            {
                "start_time": 64.40454545454546,
                "end_time": 64.47045454545454,
                "pitch": 64,
                "velocity": 80,
                "duration": 0.06590909090908781,
                "tempo": 120.0
            },
            {
                "start_time": 64.58863636363635,
                "end_time": 64.63863636363637,
                "pitch": 64,
                "velocity": 80,
                "duration": 0.05000000000001137,
                "tempo": 120.0
            },
            {
                "start_time": 64.67272727272727,
                "end_time": 64.73863636363636,
                "pitch": 60,
                "velocity": 80,
                "duration": 0.06590909090908781,
                "tempo": 120.0
            },
            {
                "start_time": 64.75681818181818,
                "end_time": 64.82272727272726,
                "pitch": 64,
                "velocity": 80,
                "duration": 0.06590909090908781,
                "tempo": 120.0
            },
            {
                "start_time": 64.85681818181818,
                "end_time": 64.90681818181818,
                "pitch": 60,
                "velocity": 80,
                "duration": 0.04999999999999716,
                "tempo": 120.0
            },
            {
                "start_time": 64.94090909090909,
                "end_time": 65.00681818181818,
                "pitch": 64,
                "velocity": 80,
                "duration": 0.06590909090908781,
                "tempo": 120.0
            },
            {
                "start_time": 65.125,
                "end_time": 65.175,
                "pitch": 64,
                "velocity": 80,
                "duration": 0.04999999999999716,
                "tempo": 120.0
            },
            {
                "start_time": 65.2090909090909,
                "end_time": 65.26136363636364,
                "pitch": 63,
                "velocity": 80,
                "duration": 0.052272727272736574,
                "tempo": 120.0
            },
            {
                "start_time": 65.29772727272727,
                "end_time": 65.36363636363636,
                "pitch": 62,
                "velocity": 80,
                "duration": 0.06590909090908781,
                "tempo": 120.0
            },
            {
                "start_time": 65.38181818181818,
                "end_time": 65.45,
                "pitch": 61,
                "velocity": 80,
                "duration": 0.06818181818182723,
                "tempo": 120.0
            },
            {
                "start_time": 65.48863636363636,
                "end_time": 65.53636363636363,
                "pitch": 62,
                "velocity": 80,
                "duration": 0.04772727272727195,
                "tempo": 120.0
            },
            {
                "start_time": 65.57272727272726,
                "end_time": 65.62272727272727,
                "pitch": 59,
                "velocity": 80,
                "duration": 0.05000000000001137,
                "tempo": 120.0
            },
            {
                "start_time": 65.6590909090909,
                "end_time": 65.72727272727272,
                "pitch": 62,
                "velocity": 80,
                "duration": 0.06818181818181301,
                "tempo": 120.0
            },
            {
                "start_time": 65.74545454545454,
                "end_time": 65.81363636363636,
                "pitch": 59,
                "velocity": 80,
                "duration": 0.06818181818182723,
                "tempo": 120.0
            },
            {
                "start_time": 65.84772727272727,
                "end_time": 65.89772727272727,
                "pitch": 62,
                "velocity": 80,
                "duration": 0.04999999999999716,
                "tempo": 120.0
            },
            {
                "start_time": 66.01590909090909,
                "end_time": 66.08181818181818,
                "pitch": 62,
                "velocity": 80,
                "duration": 0.06590909090908781,
                "tempo": 120.0
            },
            {
                "start_time": 66.1,
                "end_time": 66.16590909090908,
                "pitch": 59,
                "velocity": 80,
                "duration": 0.06590909090908781,
                "tempo": 120.0
            },
            {
                "start_time": 66.2,
                "end_time": 66.24772727272727,
                "pitch": 62,
                "velocity": 80,
                "duration": 0.04772727272727195,
                "tempo": 120.0
            },
            {
                "start_time": 66.28181818181818,
                "end_time": 66.33181818181818,
                "pitch": 59,
                "velocity": 80,
                "duration": 0.04999999999999716,
                "tempo": 120.0
            },
            {
                "start_time": 66.36590909090908,
                "end_time": 66.43181818181817,
                "pitch": 62,
                "velocity": 80,
                "duration": 0.06590909090908781,
                "tempo": 120.0
            },
            {
                "start_time": 66.55,
                "end_time": 66.59772727272727,
                "pitch": 62,
                "velocity": 80,
                "duration": 0.04772727272727195,
                "tempo": 120.0
            },
            {
                "start_time": 66.63181818181818,
                "end_time": 66.67954545454545,
                "pitch": 61,
                "velocity": 80,
                "duration": 0.04772727272727195,
                "tempo": 120.0
            },
            {
                "start_time": 66.71363636363635,
                "end_time": 66.77727272727273,
                "pitch": 60,
                "velocity": 80,
                "duration": 0.06363636363637681,
                "tempo": 120.0
            },
            {
                "start_time": 66.79318181818182,
                "end_time": 66.85909090909091,
                "pitch": 59,
                "velocity": 80,
                "duration": 0.06590909090908781,
                "tempo": 120.0
            },
            {
                "start_time": 66.89318181818182,
                "end_time": 66.94090909090909,
                "pitch": 62,
                "velocity": 80,
                "duration": 0.04772727272727195,
                "tempo": 120.0
            },
            {
                "start_time": 66.97727272727272,
                "end_time": 67.02727272727273,
                "pitch": 59,
                "velocity": 80,
                "duration": 0.05000000000001137,
                "tempo": 120.0
            },
            {
                "start_time": 67.06363636363636,
                "end_time": 67.13181818181818,
                "pitch": 62,
                "velocity": 80,
                "duration": 0.06818181818181301,
                "tempo": 120.0
            },
            {
                "start_time": 67.16590909090908,
                "end_time": 67.21818181818182,
                "pitch": 59,
                "velocity": 80,
                "duration": 0.052272727272736574,
                "tempo": 120.0
            },
            {
                "start_time": 67.25227272727273,
                "end_time": 67.30227272727272,
                "pitch": 62,
                "velocity": 80,
                "duration": 0.04999999999999716,
                "tempo": 120.0
            },
            {
                "start_time": 67.42045454545455,
                "end_time": 67.48636363636363,
                "pitch": 62,
                "velocity": 80,
                "duration": 0.06590909090908781,
                "tempo": 120.0
            },
            {
                "start_time": 67.52045454545454,
                "end_time": 67.57045454545454,
                "pitch": 59,
                "velocity": 80,
                "duration": 0.04999999999999716,
                "tempo": 120.0
            },
            {
                "start_time": 67.60454545454544,
                "end_time": 67.65454545454546,
                "pitch": 62,
                "velocity": 80,
                "duration": 0.05000000000001137,
                "tempo": 120.0
            },
            {
                "start_time": 67.68863636363636,
                "end_time": 67.75454545454545,
                "pitch": 59,
                "velocity": 80,
                "duration": 0.06590909090908781,
                "tempo": 120.0
            },
            {
                "start_time": 67.77272727272727,
                "end_time": 67.83863636363635,
                "pitch": 62,
                "velocity": 80,
                "duration": 0.06590909090908781,
                "tempo": 120.0
            },
            {
                "start_time": 67.95681818181818,
                "end_time": 68.00454545454545,
                "pitch": 62,
                "velocity": 80,
                "duration": 0.04772727272727195,
                "tempo": 120.0
            },
            {
                "start_time": 68.03863636363636,
                "end_time": 68.10454545454544,
                "pitch": 61,
                "velocity": 80,
                "duration": 0.06590909090908781,
                "tempo": 120.0
            },
            {
                "start_time": 68.12272727272727,
                "end_time": 68.18863636363636,
                "pitch": 60,
                "velocity": 80,
                "duration": 0.06590909090908781,
                "tempo": 120.0
            },
            {
                "start_time": 68.22272727272727,
                "end_time": 68.27272727272727,
                "pitch": 59,
                "velocity": 80,
                "duration": 0.04999999999999716,
                "tempo": 120.0
            },
            {
                "start_time": 68.30909090909091,
                "end_time": 68.35681818181818,
                "pitch": 60,
                "velocity": 80,
                "duration": 0.04772727272727195,
                "tempo": 120.0
            },
            {
                "start_time": 68.39090909090909,
                "end_time": 68.45681818181818,
                "pitch": 57,
                "velocity": 80,
                "duration": 0.06590909090908781,
                "tempo": 120.0
            },
            {
                "start_time": 68.475,
                "end_time": 68.54090909090908,
                "pitch": 60,
                "velocity": 80,
                "duration": 0.06590909090908781,
                "tempo": 120.0
            },
            {
                "start_time": 68.575,
                "end_time": 68.625,
                "pitch": 57,
                "velocity": 80,
                "duration": 0.04999999999999716,
                "tempo": 120.0
            },
            {
                "start_time": 68.6590909090909,
                "end_time": 68.70681818181818,
                "pitch": 60,
                "velocity": 80,
                "duration": 0.04772727272727195,
                "tempo": 120.0
            },
            {
                "start_time": 68.825,
                "end_time": 68.89090909090909,
                "pitch": 60,
                "velocity": 80,
                "duration": 0.06590909090908781,
                "tempo": 120.0
            },
            {
                "start_time": 68.925,
                "end_time": 68.975,
                "pitch": 57,
                "velocity": 80,
                "duration": 0.04999999999999716,
                "tempo": 120.0
            },
            {
                "start_time": 69.0090909090909,
                "end_time": 69.05909090909091,
                "pitch": 60,
                "velocity": 80,
                "duration": 0.05000000000001137,
                "tempo": 120.0
            },
            {
                "start_time": 69.09318181818182,
                "end_time": 69.1590909090909,
                "pitch": 57,
                "velocity": 80,
                "duration": 0.06590909090908781,
                "tempo": 120.0
            },
            {
                "start_time": 69.17727272727272,
                "end_time": 69.24318181818181,
                "pitch": 60,
                "velocity": 80,
                "duration": 0.06590909090908781,
                "tempo": 120.0
            },
            {
                "start_time": 69.36136363636363,
                "end_time": 69.42727272727272,
                "pitch": 60,
                "velocity": 80,
                "duration": 0.06590909090908781,
                "tempo": 120.0
            },
            {
                "start_time": 69.44318181818181,
                "end_time": 69.51136363636363,
                "pitch": 62,
                "velocity": 80,
                "duration": 0.06818181818181301,
                "tempo": 120.0
            },
            {
                "start_time": 69.54545454545455,
                "end_time": 69.59318181818182,
                "pitch": 65,
                "velocity": 80,
                "duration": 0.04772727272727195,
                "tempo": 120.0
            },
            {
                "start_time": 69.62727272727273,
                "end_time": 69.67727272727272,
                "pitch": 60,
                "velocity": 80,
                "duration": 0.04999999999999716,
                "tempo": 120.0
            },
            {
                "start_time": 69.71363636363635,
                "end_time": 69.77727272727273,
                "pitch": 60,
                "velocity": 80,
                "duration": 0.06363636363637681,
                "tempo": 120.0
            },
            {
                "start_time": 69.79545454545455,
                "end_time": 69.86136363636363,
                "pitch": 57,
                "velocity": 80,
                "duration": 0.06590909090908781,
                "tempo": 120.0
            },
            {
                "start_time": 69.89545454545454,
                "end_time": 69.94545454545454,
                "pitch": 60,
                "velocity": 80,
                "duration": 0.04999999999999716,
                "tempo": 120.0
            },
            {
                "start_time": 69.97954545454544,
                "end_time": 70.02954545454546,
                "pitch": 57,
                "velocity": 80,
                "duration": 0.05000000000001137,
                "tempo": 120.0
            },
            {
                "start_time": 70.06363636363636,
                "end_time": 70.12954545454545,
                "pitch": 60,
                "velocity": 80,
                "duration": 0.06590909090908781,
                "tempo": 120.0
            },
            {
                "start_time": 70.24772727272727,
                "end_time": 70.29545454545455,
                "pitch": 60,
                "velocity": 80,
                "duration": 0.04772727272727195,
                "tempo": 120.0
            },
            {
                "start_time": 70.32954545454545,
                "end_time": 70.37954545454545,
                "pitch": 57,
                "velocity": 80,
                "duration": 0.04999999999999716,
                "tempo": 120.0
            },
            {
                "start_time": 70.41363636363636,
                "end_time": 70.47954545454544,
                "pitch": 60,
                "velocity": 80,
                "duration": 0.06590909090908781,
                "tempo": 120.0
            },
            {
                "start_time": 70.49772727272727,
                "end_time": 70.56363636363636,
                "pitch": 57,
                "velocity": 80,
                "duration": 0.06590909090908781,
                "tempo": 120.0
            },
            {
                "start_time": 70.59772727272727,
                "end_time": 70.64772727272727,
                "pitch": 60,
                "velocity": 80,
                "duration": 0.04999999999999716,
                "tempo": 120.0
            },
            {
                "start_time": 70.76590909090909,
                "end_time": 70.83181818181818,
                "pitch": 60,
                "velocity": 80,
                "duration": 0.06590909090908781,
                "tempo": 120.0
            },
            {
                "start_time": 70.85,
                "end_time": 70.91590909090908,
                "pitch": 62,
                "velocity": 80,
                "duration": 0.06590909090908781,
                "tempo": 120.0
            },
            {
                "start_time": 70.95,
                "end_time": 70.99772727272727,
                "pitch": 65,
                "velocity": 80,
                "duration": 0.04772727272727195,
                "tempo": 120.0
            },
            {
                "start_time": 71.03181818181818,
                "end_time": 71.08181818181818,
                "pitch": 60,
                "velocity": 80,
                "duration": 0.04999999999999716,
                "tempo": 120.0
            },
            {
                "start_time": 71.11818181818181,
                "end_time": 71.18181818181817,
                "pitch": 62,
                "velocity": 80,
                "duration": 0.0636363636363626,
                "tempo": 120.0
            },
            {
                "start_time": 71.2,
                "end_time": 71.26590909090909,
                "pitch": 59,
                "velocity": 80,
                "duration": 0.06590909090908781,
                "tempo": 120.0
            },
            {
                "start_time": 71.3,
                "end_time": 71.35,
                "pitch": 62,
                "velocity": 80,
                "duration": 0.04999999999999716,
                "tempo": 120.0
            },
            {
                "start_time": 71.3840909090909,
                "end_time": 71.45,
                "pitch": 59,
                "velocity": 80,
                "duration": 0.06590909090910202,
                "tempo": 120.0
            },
            {
                "start_time": 71.46818181818182,
                "end_time": 71.5340909090909,
                "pitch": 62,
                "velocity": 80,
                "duration": 0.06590909090908781,
                "tempo": 120.0
            },
            {
                "start_time": 71.65227272727273,
                "end_time": 71.70227272727273,
                "pitch": 62,
                "velocity": 80,
                "duration": 0.04999999999999716,
                "tempo": 120.0
            },
            {
                "start_time": 71.73636363636363,
                "end_time": 71.80227272727272,
                "pitch": 59,
                "velocity": 80,
                "duration": 0.06590909090908781,
                "tempo": 120.0
            },
            {
                "start_time": 71.82045454545454,
                "end_time": 71.8840909090909,
                "pitch": 62,
                "velocity": 80,
                "duration": 0.0636363636363626,
                "tempo": 120.0
            },
            {
                "start_time": 71.92045454545455,
                "end_time": 71.96818181818182,
                "pitch": 59,
                "velocity": 80,
                "duration": 0.04772727272727195,
                "tempo": 120.0
            },
            {
                "start_time": 72.00454545454545,
                "end_time": 72.05227272727272,
                "pitch": 62,
                "velocity": 80,
                "duration": 0.04772727272727195,
                "tempo": 120.0
            },
            {
                "start_time": 72.17045454545455,
                "end_time": 72.23636363636363,
                "pitch": 62,
                "velocity": 80,
                "duration": 0.06590909090908781,
                "tempo": 120.0
            },
            {
                "start_time": 72.27045454545454,
                "end_time": 72.32045454545454,
                "pitch": 65,
                "velocity": 80,
                "duration": 0.04999999999999716,
                "tempo": 120.0
            },
            {
                "start_time": 72.35454545454544,
                "end_time": 72.40454545454546,
                "pitch": 67,
                "velocity": 80,
                "duration": 0.05000000000001137,
                "tempo": 120.0
            },
            {
                "start_time": 72.43863636363636,
                "end_time": 72.50454545454545,
                "pitch": 62,
                "velocity": 80,
                "duration": 0.06590909090908781,
                "tempo": 120.0
            },
            {
                "start_time": 72.52272727272727,
                "end_time": 72.58863636363635,
                "pitch": 62,
                "velocity": 80,
                "duration": 0.06590909090908781,
                "tempo": 120.0
            },
            {
                "start_time": 72.62272727272727,
                "end_time": 72.67045454545455,
                "pitch": 59,
                "velocity": 80,
                "duration": 0.04772727272727195,
                "tempo": 120.0
            },
            {
                "start_time": 72.70681818181818,
                "end_time": 72.75454545454545,
                "pitch": 62,
                "velocity": 80,
                "duration": 0.04772727272727195,
                "tempo": 120.0
            },
            {
                "start_time": 72.78863636363636,
                "end_time": 72.85454545454544,
                "pitch": 59,
                "velocity": 80,
                "duration": 0.06590909090908781,
                "tempo": 120.0
            },
            {
                "start_time": 72.87272727272727,
                "end_time": 72.93863636363636,
                "pitch": 62,
                "velocity": 80,
                "duration": 0.06590909090908781,
                "tempo": 120.0
            },
            {
                "start_time": 73.05681818181817,
                "end_time": 73.10681818181818,
                "pitch": 62,
                "velocity": 80,
                "duration": 0.05000000000001137,
                "tempo": 120.0
            },
            {
                "start_time": 73.14090909090909,
                "end_time": 73.20681818181818,
                "pitch": 59,
                "velocity": 80,
                "duration": 0.06590909090908781,
                "tempo": 120.0
            },
            {
                "start_time": 73.225,
                "end_time": 73.29090909090908,
                "pitch": 62,
                "velocity": 80,
                "duration": 0.06590909090908781,
                "tempo": 120.0
            },
            {
                "start_time": 73.32727272727273,
                "end_time": 73.37727272727273,
                "pitch": 59,
                "velocity": 80,
                "duration": 0.04999999999999716,
                "tempo": 120.0
            },
            {
                "start_time": 73.41363636363636,
                "end_time": 73.46363636363635,
                "pitch": 62,
                "velocity": 80,
                "duration": 0.04999999999999716,
                "tempo": 120.0
            },
            {
                "start_time": 73.60227272727272,
                "end_time": 73.65454545454546,
                "pitch": 62,
                "velocity": 80,
                "duration": 0.052272727272736574,
                "tempo": 120.0
            },
            {
                "start_time": 73.68863636363636,
                "end_time": 73.73863636363636,
                "pitch": 65,
                "velocity": 80,
                "duration": 0.04999999999999716,
                "tempo": 120.0
            },
            {
                "start_time": 73.77499999999999,
                "end_time": 73.84318181818182,
                "pitch": 67,
                "velocity": 80,
                "duration": 0.06818181818182723,
                "tempo": 120.0
            },
            {
                "start_time": 73.86136363636363,
                "end_time": 73.92954545454545,
                "pitch": 62,
                "velocity": 80,
                "duration": 0.06818181818181301,
                "tempo": 120.0
            },
            {
                "start_time": 73.9659090909091,
                "end_time": 73.97954545454544,
                "pitch": 64,
                "velocity": 80,
                "duration": 0.013636363636351234,
                "tempo": 120.0
            },
            {
                "start_time": 74.01363636363637,
                "end_time": 74.04772727272727,
                "pitch": 65,
                "velocity": 80,
                "duration": 0.03409090909090651,
                "tempo": 120.0
            },
            {
                "start_time": 74.08181818181818,
                "end_time": 74.09772727272727,
                "pitch": 66,
                "velocity": 80,
                "duration": 0.01590909090909065,
                "tempo": 120.0
            },
            {
                "start_time": 74.13181818181818,
                "end_time": 74.16363636363636,
                "pitch": 67,
                "velocity": 80,
                "duration": 0.0318181818181813,
                "tempo": 120.0
            },
            {
                "start_time": 74.19772727272726,
                "end_time": 74.2159090909091,
                "pitch": 68,
                "velocity": 80,
                "duration": 0.018181818181830067,
                "tempo": 120.0
            },
            {
                "start_time": 74.24772727272727,
                "end_time": 74.28181818181818,
                "pitch": 69,
                "velocity": 80,
                "duration": 0.03409090909090651,
                "tempo": 120.0
            },
            {
                "start_time": 74.31590909090909,
                "end_time": 74.33181818181818,
                "pitch": 70,
                "velocity": 80,
                "duration": 0.01590909090909065,
                "tempo": 120.0
            },
            {
                "start_time": 74.36590909090908,
                "end_time": 74.39772727272727,
                "pitch": 71,
                "velocity": 80,
                "duration": 0.0318181818181813,
                "tempo": 120.0
            },
            {
                "start_time": 74.43181818181817,
                "end_time": 74.45,
                "pitch": 72,
                "velocity": 80,
                "duration": 0.018181818181830067,
                "tempo": 120.0
            },
            {
                "start_time": 74.48409090909091,
                "end_time": 74.51590909090909,
                "pitch": 73,
                "velocity": 80,
                "duration": 0.0318181818181813,
                "tempo": 120.0
            },
            {
                "start_time": 74.55,
                "end_time": 74.56590909090909,
                "pitch": 74,
                "velocity": 80,
                "duration": 0.01590909090909065,
                "tempo": 120.0
            },
            {
                "start_time": 74.6,
                "end_time": 74.63181818181818,
                "pitch": 75,
                "velocity": 80,
                "duration": 0.0318181818181813,
                "tempo": 120.0
            },
            {
                "start_time": 74.66818181818182,
                "end_time": 74.68181818181817,
                "pitch": 76,
                "velocity": 80,
                "duration": 0.013636363636351234,
                "tempo": 120.0
            },
            {
                "start_time": 74.7159090909091,
                "end_time": 74.75,
                "pitch": 77,
                "velocity": 80,
                "duration": 0.03409090909090651,
                "tempo": 120.0
            },
            {
                "start_time": 74.7840909090909,
                "end_time": 74.8,
                "pitch": 78,
                "velocity": 80,
                "duration": 0.01590909090909065,
                "tempo": 120.0
            },
            {
                "start_time": 74.8340909090909,
                "end_time": 74.86590909090908,
                "pitch": 79,
                "velocity": 80,
                "duration": 0.0318181818181813,
                "tempo": 120.0
            },
            {
                "start_time": 74.89999999999999,
                "end_time": 74.91818181818182,
                "pitch": 80,
                "velocity": 80,
                "duration": 0.018181818181830067,
                "tempo": 120.0
            },
            {
                "start_time": 74.95,
                "end_time": 74.98409090909091,
                "pitch": 81,
                "velocity": 80,
                "duration": 0.03409090909090651,
                "tempo": 120.0
            },
            {
                "start_time": 75.01818181818182,
                "end_time": 75.0340909090909,
                "pitch": 82,
                "velocity": 80,
                "duration": 0.01590909090909065,
                "tempo": 120.0
            },
            {
                "start_time": 75.06818181818181,
                "end_time": 75.10227272727272,
                "pitch": 83,
                "velocity": 80,
                "duration": 0.03409090909090651,
                "tempo": 120.0
            },
            {
                "start_time": 75.1340909090909,
                "end_time": 75.15227272727272,
                "pitch": 84,
                "velocity": 80,
                "duration": 0.018181818181815856,
                "tempo": 120.0
            },
            {
                "start_time": 75.18636363636364,
                "end_time": 75.21818181818182,
                "pitch": 85,
                "velocity": 80,
                "duration": 0.0318181818181813,
                "tempo": 120.0
            },
            {
                "start_time": 75.25227272727273,
                "end_time": 75.26818181818182,
                "pitch": 86,
                "velocity": 80,
                "duration": 0.01590909090909065,
                "tempo": 120.0
            },
            {
                "start_time": 75.30227272727272,
                "end_time": 75.33636363636363,
                "pitch": 87,
                "velocity": 80,
                "duration": 0.03409090909090651,
                "tempo": 120.0
            },
            {
                "start_time": 75.37045454545454,
                "end_time": 75.3840909090909,
                "pitch": 88,
                "velocity": 80,
                "duration": 0.013636363636365445,
                "tempo": 120.0
            },
            {
                "start_time": 75.41818181818182,
                "end_time": 75.45227272727273,
                "pitch": 89,
                "velocity": 80,
                "duration": 0.03409090909090651,
                "tempo": 120.0
            },
            {
                "start_time": 75.48636363636363,
                "end_time": 75.50227272727273,
                "pitch": 90,
                "velocity": 80,
                "duration": 0.01590909090909065,
                "tempo": 120.0
            },
            {
                "start_time": 75.53636363636363,
                "end_time": 75.56818181818181,
                "pitch": 91,
                "velocity": 80,
                "duration": 0.0318181818181813,
                "tempo": 120.0
            },
            {
                "start_time": 75.60227272727272,
                "end_time": 75.62045454545454,
                "pitch": 92,
                "velocity": 80,
                "duration": 0.018181818181815856,
                "tempo": 120.0
            },
            {
                "start_time": 75.65227272727272,
                "end_time": 75.68636363636364,
                "pitch": 93,
                "velocity": 80,
                "duration": 0.03409090909092072,
                "tempo": 120.0
            },
            {
                "start_time": 75.72045454545454,
                "end_time": 75.75227272727273,
                "pitch": 94,
                "velocity": 80,
                "duration": 0.0318181818181813,
                "tempo": 120.0
            },
            {
                "start_time": 75.77045454545454,
                "end_time": 75.80454545454545,
                "pitch": 95,
                "velocity": 80,
                "duration": 0.03409090909090651,
                "tempo": 120.0
            },
            {
                "start_time": 75.83636363636363,
                "end_time": 75.87045454545454,
                "pitch": 96,
                "velocity": 80,
                "duration": 0.03409090909090651,
                "tempo": 120.0
            },
            {
                "start_time": 75.88863636363637,
                "end_time": 75.92045454545455,
                "pitch": 97,
                "velocity": 80,
                "duration": 0.0318181818181813,
                "tempo": 120.0
            },
            {
                "start_time": 75.95454545454545,
                "end_time": 75.98863636363636,
                "pitch": 98,
                "velocity": 80,
                "duration": 0.03409090909090651,
                "tempo": 120.0
            },
            {
                "start_time": 76.00454545454545,
                "end_time": 76.03863636363636,
                "pitch": 99,
                "velocity": 80,
                "duration": 0.03409090909090651,
                "tempo": 120.0
            },
            {
                "start_time": 76.07272727272726,
                "end_time": 76.10454545454544,
                "pitch": 100,
                "velocity": 80,
                "duration": 0.0318181818181813,
                "tempo": 120.0
            },
            {
                "start_time": 76.12272727272727,
                "end_time": 76.15454545454546,
                "pitch": 99,
                "velocity": 80,
                "duration": 0.0318181818181813,
                "tempo": 120.0
            },
            {
                "start_time": 76.18863636363636,
                "end_time": 76.22272727272727,
                "pitch": 98,
                "velocity": 80,
                "duration": 0.03409090909090651,
                "tempo": 120.0
            },
            {
                "start_time": 76.23863636363636,
                "end_time": 76.27045454545454,
                "pitch": 97,
                "velocity": 80,
                "duration": 0.0318181818181813,
                "tempo": 120.0
            },
            {
                "start_time": 76.30454545454545,
                "end_time": 76.33863636363635,
                "pitch": 96,
                "velocity": 80,
                "duration": 0.03409090909090651,
                "tempo": 120.0
            },
            {
                "start_time": 76.35454545454544,
                "end_time": 76.38863636363637,
                "pitch": 95,
                "velocity": 80,
                "duration": 0.03409090909092072,
                "tempo": 120.0
            },
            {
                "start_time": 76.42272727272727,
                "end_time": 76.45454545454545,
                "pitch": 94,
                "velocity": 80,
                "duration": 0.0318181818181813,
                "tempo": 120.0
            },
            {
                "start_time": 76.47272727272727,
                "end_time": 76.50681818181818,
                "pitch": 93,
                "velocity": 80,
                "duration": 0.03409090909090651,
                "tempo": 120.0
            },
            {
                "start_time": 76.53863636363636,
                "end_time": 76.57272727272726,
                "pitch": 92,
                "velocity": 80,
                "duration": 0.03409090909090651,
                "tempo": 120.0
            },
            {
                "start_time": 76.5909090909091,
                "end_time": 76.62272727272727,
                "pitch": 91,
                "velocity": 80,
                "duration": 0.0318181818181813,
                "tempo": 120.0
            },
            {
                "start_time": 76.65681818181818,
                "end_time": 76.69090909090909,
                "pitch": 90,
                "velocity": 80,
                "duration": 0.03409090909090651,
                "tempo": 120.0
            },
            {
                "start_time": 76.70681818181818,
                "end_time": 76.74090909090908,
                "pitch": 89,
                "velocity": 80,
                "duration": 0.03409090909090651,
                "tempo": 120.0
            },
            {
                "start_time": 76.77727272727272,
                "end_time": 76.80681818181817,
                "pitch": 88,
                "velocity": 80,
                "duration": 0.029545454545456096,
                "tempo": 120.0
            },
            {
                "start_time": 76.825,
                "end_time": 76.85909090909091,
                "pitch": 87,
                "velocity": 80,
                "duration": 0.03409090909090651,
                "tempo": 120.0
            },
            {
                "start_time": 76.89318181818182,
                "end_time": 76.92727272727272,
                "pitch": 86,
                "velocity": 80,
                "duration": 0.03409090909090651,
                "tempo": 120.0
            },
            {
                "start_time": 76.94545454545454,
                "end_time": 76.97954545454544,
                "pitch": 85,
                "velocity": 80,
                "duration": 0.03409090909090651,
                "tempo": 120.0
            },
            {
                "start_time": 77.01363636363637,
                "end_time": 77.05,
                "pitch": 84,
                "velocity": 80,
                "duration": 0.03636363636363171,
                "tempo": 120.0
            },
            {
                "start_time": 77.06590909090909,
                "end_time": 77.1,
                "pitch": 83,
                "velocity": 80,
                "duration": 0.03409090909090651,
                "tempo": 120.0
            },
            {
                "start_time": 77.13636363636363,
                "end_time": 77.16818181818181,
                "pitch": 82,
                "velocity": 80,
                "duration": 0.0318181818181813,
                "tempo": 120.0
            },
            {
                "start_time": 77.18409090909091,
                "end_time": 77.2159090909091,
                "pitch": 81,
                "velocity": 80,
                "duration": 0.0318181818181813,
                "tempo": 120.0
            },
            {
                "start_time": 77.25,
                "end_time": 77.28181818181818,
                "pitch": 80,
                "velocity": 80,
                "duration": 0.0318181818181813,
                "tempo": 120.0
            },
            {
                "start_time": 77.29772727272727,
                "end_time": 77.32954545454545,
                "pitch": 79,
                "velocity": 80,
                "duration": 0.0318181818181813,
                "tempo": 120.0
            },
            {
                "start_time": 77.36363636363636,
                "end_time": 77.39545454545454,
                "pitch": 78,
                "velocity": 80,
                "duration": 0.0318181818181813,
                "tempo": 120.0
            },
            {
                "start_time": 77.41136363636363,
                "end_time": 77.44318181818181,
                "pitch": 77,
                "velocity": 80,
                "duration": 0.0318181818181813,
                "tempo": 120.0
            },
            {
                "start_time": 77.47727272727272,
                "end_time": 77.5090909090909,
                "pitch": 76,
                "velocity": 80,
                "duration": 0.0318181818181813,
                "tempo": 120.0
            },
            {
                "start_time": 77.52727272727272,
                "end_time": 77.56136363636364,
                "pitch": 75,
                "velocity": 80,
                "duration": 0.03409090909092072,
                "tempo": 120.0
            },
            {
                "start_time": 77.59545454545454,
                "end_time": 77.63181818181818,
                "pitch": 74,
                "velocity": 80,
                "duration": 0.03636363636363171,
                "tempo": 120.0
            },
            {
                "start_time": 77.64999999999999,
                "end_time": 77.68181818181817,
                "pitch": 73,
                "velocity": 80,
                "duration": 0.0318181818181813,
                "tempo": 120.0
            },
            {
                "start_time": 77.71818181818182,
                "end_time": 77.75227272727273,
                "pitch": 72,
                "velocity": 80,
                "duration": 0.03409090909090651,
                "tempo": 120.0
            },
            {
                "start_time": 77.76818181818182,
                "end_time": 77.80227272727272,
                "pitch": 71,
                "velocity": 80,
                "duration": 0.03409090909090651,
                "tempo": 120.0
            },
            {
                "start_time": 77.83863636363635,
                "end_time": 77.87045454545454,
                "pitch": 70,
                "velocity": 80,
                "duration": 0.0318181818181813,
                "tempo": 120.0
            },
            {
                "start_time": 77.90454545454546,
                "end_time": 77.92045454545455,
                "pitch": 69,
                "velocity": 80,
                "duration": 0.01590909090909065,
                "tempo": 120.0
            },
            {
                "start_time": 77.95454545454545,
                "end_time": 77.98863636363636,
                "pitch": 68,
                "velocity": 80,
                "duration": 0.03409090909090651,
                "tempo": 120.0
            },
            {
                "start_time": 78.02272727272727,
                "end_time": 78.03863636363636,
                "pitch": 67,
                "velocity": 80,
                "duration": 0.01590909090909065,
                "tempo": 120.0
            },
            {
                "start_time": 78.07272727272726,
                "end_time": 78.10454545454544,
                "pitch": 66,
                "velocity": 80,
                "duration": 0.0318181818181813,
                "tempo": 120.0
            },
            {
                "start_time": 78.13863636363637,
                "end_time": 78.15454545454546,
                "pitch": 65,
                "velocity": 80,
                "duration": 0.01590909090909065,
                "tempo": 120.0
            },
            {
                "start_time": 78.19090909090909,
                "end_time": 78.22272727272727,
                "pitch": 64,
                "velocity": 80,
                "duration": 0.0318181818181813,
                "tempo": 120.0
            },
            {
                "start_time": 78.25681818181818,
                "end_time": 78.27272727272727,
                "pitch": 65,
                "velocity": 80,
                "duration": 0.01590909090909065,
                "tempo": 120.0
            },
            {
                "start_time": 78.30681818181817,
                "end_time": 78.33863636363635,
                "pitch": 66,
                "velocity": 80,
                "duration": 0.0318181818181813,
                "tempo": 120.0
            },
            {
                "start_time": 78.375,
                "end_time": 78.38863636363637,
                "pitch": 67,
                "velocity": 80,
                "duration": 0.013636363636365445,
                "tempo": 120.0
            },
            {
                "start_time": 78.42272727272727,
                "end_time": 78.45681818181818,
                "pitch": 68,
                "velocity": 80,
                "duration": 0.03409090909090651,
                "tempo": 120.0
            },
            {
                "start_time": 78.49090909090908,
                "end_time": 78.50681818181818,
                "pitch": 69,
                "velocity": 80,
                "duration": 0.01590909090909065,
                "tempo": 120.0
            },
            {
                "start_time": 78.54090909090908,
                "end_time": 78.57272727272726,
                "pitch": 70,
                "velocity": 80,
                "duration": 0.0318181818181813,
                "tempo": 120.0
            },
            {
                "start_time": 78.60681818181818,
                "end_time": 78.625,
                "pitch": 71,
                "velocity": 80,
                "duration": 0.018181818181815856,
                "tempo": 120.0
            },
            {
                "start_time": 78.65681818181818,
                "end_time": 78.69090909090909,
                "pitch": 72,
                "velocity": 80,
                "duration": 0.03409090909090651,
                "tempo": 120.0
            },
            {
                "start_time": 78.725,
                "end_time": 78.74090909090908,
                "pitch": 73,
                "velocity": 80,
                "duration": 0.01590909090909065,
                "tempo": 120.0
            },
            {
                "start_time": 78.77499999999999,
                "end_time": 78.80909090909091,
                "pitch": 74,
                "velocity": 80,
                "duration": 0.03409090909092072,
                "tempo": 120.0
            },
            {
                "start_time": 78.8409090909091,
                "end_time": 78.85909090909091,
                "pitch": 75,
                "velocity": 80,
                "duration": 0.018181818181815856,
                "tempo": 120.0
            },
            {
                "start_time": 78.89318181818182,
                "end_time": 78.925,
                "pitch": 76,
                "velocity": 80,
                "duration": 0.0318181818181813,
                "tempo": 120.0
            },
            {
                "start_time": 78.9590909090909,
                "end_time": 78.975,
                "pitch": 77,
                "velocity": 80,
                "duration": 0.01590909090909065,
                "tempo": 120.0
            },
            {
                "start_time": 79.0090909090909,
                "end_time": 79.04090909090908,
                "pitch": 78,
                "velocity": 80,
                "duration": 0.0318181818181813,
                "tempo": 120.0
            },
            {
                "start_time": 79.07727272727273,
                "end_time": 79.0909090909091,
                "pitch": 79,
                "velocity": 80,
                "duration": 0.013636363636365445,
                "tempo": 120.0
            },
            {
                "start_time": 79.125,
                "end_time": 79.1590909090909,
                "pitch": 80,
                "velocity": 80,
                "duration": 0.03409090909090651,
                "tempo": 120.0
            },
            {
                "start_time": 79.19318181818181,
                "end_time": 79.2090909090909,
                "pitch": 81,
                "velocity": 80,
                "duration": 0.01590909090909065,
                "tempo": 120.0
            },
            {
                "start_time": 79.24318181818181,
                "end_time": 79.27499999999999,
                "pitch": 82,
                "velocity": 80,
                "duration": 0.0318181818181813,
                "tempo": 120.0
            },
            {
                "start_time": 79.30909090909091,
                "end_time": 79.32727272727273,
                "pitch": 83,
                "velocity": 80,
                "duration": 0.018181818181815856,
                "tempo": 120.0
            },
            {
                "start_time": 79.35909090909091,
                "end_time": 79.39318181818182,
                "pitch": 84,
                "velocity": 80,
                "duration": 0.03409090909090651,
                "tempo": 120.0
            },
            {
                "start_time": 79.42727272727272,
                "end_time": 79.44318181818181,
                "pitch": 85,
                "velocity": 80,
                "duration": 0.01590909090909065,
                "tempo": 120.0
            },
            {
                "start_time": 79.47727272727272,
                "end_time": 79.51136363636363,
                "pitch": 86,
                "velocity": 80,
                "duration": 0.03409090909090651,
                "tempo": 120.0
            },
            {
                "start_time": 79.54318181818181,
                "end_time": 79.56136363636364,
                "pitch": 87,
                "velocity": 80,
                "duration": 0.018181818181830067,
                "tempo": 120.0
            }
        ],
        "Acoustic Bass": [
            {
                "start_time": 0.006818181818181818,
                "end_time": 0.17045454545454544,
                "pitch": 33,
                "velocity": 101,
                "duration": 0.16363636363636364,
                "tempo": 120.0
            },
            {
                "start_time": 0.20227272727272727,
                "end_time": 0.35454545454545455,
                "pitch": 33,
                "velocity": 101,
                "duration": 0.15227272727272728,
                "tempo": 120.0
            },
            {
                "start_time": 0.38636363636363635,
                "end_time": 0.5454545454545454,
                "pitch": 33,
                "velocity": 101,
                "duration": 0.15909090909090906,
                "tempo": 120.0
            },
            {
                "start_time": 0.5818181818181818,
                "end_time": 0.6522727272727272,
                "pitch": 33,
                "velocity": 101,
                "duration": 0.07045454545454544,
                "tempo": 120.0
            },
            {
                "start_time": 0.6863636363636363,
                "end_time": 0.8477272727272727,
                "pitch": 33,
                "velocity": 101,
                "duration": 0.16136363636363638,
                "tempo": 120.0
            },
            {
                "start_time": 0.884090909090909,
                "end_time": 0.9568181818181818,
                "pitch": 33,
                "velocity": 101,
                "duration": 0.07272727272727275,
                "tempo": 120.0
            },
            {
                "start_time": 0.9931818181818182,
                "end_time": 1.065909090909091,
                "pitch": 33,
                "velocity": 101,
                "duration": 0.07272727272727275,
                "tempo": 120.0
            },
            {
                "start_time": 1.084090909090909,
                "end_time": 1.1568181818181817,
                "pitch": 33,
                "velocity": 101,
                "duration": 0.07272727272727275,
                "tempo": 120.0
            },
            {
                "start_time": 1.1931818181818181,
                "end_time": 1.3704545454545454,
                "pitch": 33,
                "velocity": 101,
                "duration": 0.17727272727272725,
                "tempo": 120.0
            },
            {
                "start_time": 1.3886363636363637,
                "end_time": 1.459090909090909,
                "pitch": 33,
                "velocity": 101,
                "duration": 0.07045454545454533,
                "tempo": 120.0
            },
            {
                "start_time": 1.4931818181818182,
                "end_time": 1.5636363636363635,
                "pitch": 33,
                "velocity": 101,
                "duration": 0.07045454545454533,
                "tempo": 120.0
            },
            {
                "start_time": 1.6022727272727273,
                "end_time": 1.768181818181818,
                "pitch": 33,
                "velocity": 101,
                "duration": 0.16590909090909078,
                "tempo": 120.0
            },
            {
                "start_time": 1.8045454545454545,
                "end_time": 1.9727272727272727,
                "pitch": 33,
                "velocity": 101,
                "duration": 0.1681818181818182,
                "tempo": 120.0
            },
            {
                "start_time": 2.0113636363636362,
                "end_time": 2.165909090909091,
                "pitch": 33,
                "velocity": 101,
                "duration": 0.15454545454545476,
                "tempo": 120.0
            },
            {
                "start_time": 2.1999999999999997,
                "end_time": 2.268181818181818,
                "pitch": 33,
                "velocity": 101,
                "duration": 0.06818181818181834,
                "tempo": 120.0
            },
            {
                "start_time": 2.286363636363636,
                "end_time": 2.459090909090909,
                "pitch": 33,
                "velocity": 101,
                "duration": 0.17272727272727284,
                "tempo": 120.0
            },
            {
                "start_time": 2.477272727272727,
                "end_time": 2.5477272727272724,
                "pitch": 33,
                "velocity": 101,
                "duration": 0.07045454545454533,
                "tempo": 120.0
            },
            {
                "start_time": 2.584090909090909,
                "end_time": 2.6545454545454543,
                "pitch": 33,
                "velocity": 101,
                "duration": 0.07045454545454533,
                "tempo": 120.0
            },
            {
                "start_time": 2.690909090909091,
                "end_time": 2.743181818181818,
                "pitch": 33,
                "velocity": 101,
                "duration": 0.05227272727272725,
                "tempo": 120.0
            },
            {
                "start_time": 2.7772727272727273,
                "end_time": 2.936363636363636,
                "pitch": 33,
                "velocity": 101,
                "duration": 0.15909090909090873,
                "tempo": 120.0
            },
            {
                "start_time": 2.9727272727272727,
                "end_time": 3.043181818181818,
                "pitch": 33,
                "velocity": 101,
                "duration": 0.07045454545454533,
                "tempo": 120.0
            },
            {
                "start_time": 3.077272727272727,
                "end_time": 3.131818181818182,
                "pitch": 33,
                "velocity": 101,
                "duration": 0.054545454545454675,
                "tempo": 120.0
            },
            {
                "start_time": 3.168181818181818,
                "end_time": 3.3249999999999997,
                "pitch": 33,
                "velocity": 101,
                "duration": 0.15681818181818175,
                "tempo": 120.0
            },
            {
                "start_time": 3.3613636363636363,
                "end_time": 3.5204545454545455,
                "pitch": 33,
                "velocity": 101,
                "duration": 0.15909090909090917,
                "tempo": 120.0
            },
            {
                "start_time": 3.5545454545454542,
                "end_time": 3.709090909090909,
                "pitch": 33,
                "velocity": 101,
                "duration": 0.15454545454545476,
                "tempo": 120.0
            },
            {
                "start_time": 3.745454545454545,
                "end_time": 3.7954545454545454,
                "pitch": 33,
                "velocity": 101,
                "duration": 0.050000000000000266,
                "tempo": 120.0
            },
            {
                "start_time": 3.8318181818181816,
                "end_time": 3.9863636363636363,
                "pitch": 33,
                "velocity": 101,
                "duration": 0.15454545454545476,
                "tempo": 120.0
            },
            {
                "start_time": 4.0227272727272725,
                "end_time": 4.093181818181818,
                "pitch": 33,
                "velocity": 101,
                "duration": 0.07045454545454533,
                "tempo": 120.0
            },
            {
                "start_time": 4.127272727272727,
                "end_time": 4.181818181818182,
                "pitch": 33,
                "velocity": 101,
                "duration": 0.054545454545454675,
                "tempo": 120.0
            },
            {
                "start_time": 4.215909090909091,
                "end_time": 4.286363636363636,
                "pitch": 33,
                "velocity": 101,
                "duration": 0.07045454545454533,
                "tempo": 120.0
            },
            {
                "start_time": 4.322727272727272,
                "end_time": 4.477272727272727,
                "pitch": 33,
                "velocity": 101,
                "duration": 0.15454545454545432,
                "tempo": 120.0
            },
            {
                "start_time": 4.495454545454545,
                "end_time": 4.5636363636363635,
                "pitch": 33,
                "velocity": 101,
                "duration": 0.06818181818181834,
                "tempo": 120.0
            },
            {
                "start_time": 4.597727272727273,
                "end_time": 4.6499999999999995,
                "pitch": 33,
                "velocity": 101,
                "duration": 0.052272727272726804,
                "tempo": 120.0
            },
            {
                "start_time": 4.684090909090909,
                "end_time": 4.838636363636363,
                "pitch": 33,
                "velocity": 101,
                "duration": 0.15454545454545432,
                "tempo": 120.0
            },
            {
                "start_time": 4.872727272727272,
                "end_time": 5.029545454545454,
                "pitch": 33,
                "velocity": 101,
                "duration": 0.1568181818181822,
                "tempo": 120.0
            },
            {
                "start_time": 5.0636363636363635,
                "end_time": 5.218181818181818,
                "pitch": 33,
                "velocity": 101,
                "duration": 0.15454545454545432,
                "tempo": 120.0
            },
            {
                "start_time": 5.2340909090909085,
                "end_time": 5.304545454545455,
                "pitch": 33,
                "velocity": 101,
                "duration": 0.07045454545454621,
                "tempo": 120.0
            },
            {
                "start_time": 5.338636363636363,
                "end_time": 5.49090909090909,
                "pitch": 33,
                "velocity": 101,
                "duration": 0.15227272727272734,
                "tempo": 120.0
            },
            {
                "start_time": 5.509090909090909,
                "end_time": 5.574999999999999,
                "pitch": 33,
                "velocity": 101,
                "duration": 0.06590909090909047,
                "tempo": 120.0
            },
            {
                "start_time": 5.6090909090909085,
                "end_time": 5.659090909090909,
                "pitch": 33,
                "velocity": 101,
                "duration": 0.05000000000000071,
                "tempo": 120.0
            },
            {
                "start_time": 5.693181818181818,
                "end_time": 5.759090909090909,
                "pitch": 33,
                "velocity": 101,
                "duration": 0.06590909090909047,
                "tempo": 120.0
            },
            {
                "start_time": 5.777272727272727,
                "end_time": 5.931818181818182,
                "pitch": 33,
                "velocity": 101,
                "duration": 0.15454545454545432,
                "tempo": 120.0
            },
            {
                "start_time": 5.965909090909091,
                "end_time": 6.034090909090909,
                "pitch": 33,
                "velocity": 101,
                "duration": 0.06818181818181834,
                "tempo": 120.0
            },
            {
                "start_time": 6.052272727272727,
                "end_time": 6.120454545454545,
                "pitch": 33,
                "velocity": 101,
                "duration": 0.06818181818181834,
                "tempo": 120.0
            },
            {
                "start_time": 6.156818181818181,
                "end_time": 6.293181818181818,
                "pitch": 33,
                "velocity": 101,
                "duration": 0.1363636363636367,
                "tempo": 120.0
            },
            {
                "start_time": 6.327272727272727,
                "end_time": 6.4818181818181815,
                "pitch": 33,
                "velocity": 101,
                "duration": 0.15454545454545432,
                "tempo": 120.0
            },
            {
                "start_time": 6.515909090909091,
                "end_time": 6.6499999999999995,
                "pitch": 33,
                "velocity": 101,
                "duration": 0.13409090909090882,
                "tempo": 120.0
            },
            {
                "start_time": 6.684090909090909,
                "end_time": 6.834090909090909,
                "pitch": 28,
                "velocity": 101,
                "duration": 0.15000000000000036,
                "tempo": 120.0
            },
            {
                "start_time": 6.868181818181818,
                "end_time": 7.018181818181818,
                "pitch": 33,
                "velocity": 101,
                "duration": 0.14999999999999947,
                "tempo": 120.0
            },
            {
                "start_time": 7.036363636363636,
                "end_time": 7.186363636363636,
                "pitch": 40,
                "velocity": 101,
                "duration": 0.14999999999999947,
                "tempo": 120.0
            },
            {
                "start_time": 7.220454545454545,
                "end_time": 7.370454545454545,
                "pitch": 38,
                "velocity": 101,
                "duration": 0.15000000000000036,
                "tempo": 120.0
            },
            {
                "start_time": 7.386363636363636,
                "end_time": 7.536363636363636,
                "pitch": 36,
                "velocity": 101,
                "duration": 0.15000000000000036,
                "tempo": 120.0
            },
            {
                "start_time": 7.570454545454545,
                "end_time": 7.720454545454545,
                "pitch": 33,
                "velocity": 101,
                "duration": 0.14999999999999947,
                "tempo": 120.0
            },
            {
                "start_time": 7.738636363636363,
                "end_time": 7.888636363636364,
                "pitch": 33,
                "velocity": 101,
                "duration": 0.15000000000000036,
                "tempo": 120.0
            },
            {
                "start_time": 7.922727272727272,
                "end_time": 8.072727272727272,
                "pitch": 33,
                "velocity": 101,
                "duration": 0.15000000000000036,
                "tempo": 120.0
            },
            {
                "start_time": 8.088636363636363,
                "end_time": 8.238636363636363,
                "pitch": 28,
                "velocity": 101,
                "duration": 0.15000000000000036,
                "tempo": 120.0
            },
            {
                "start_time": 8.272727272727272,
                "end_time": 8.422727272727272,
                "pitch": 33,
                "velocity": 101,
                "duration": 0.15000000000000036,
                "tempo": 120.0
            },
            {
                "start_time": 8.440909090909091,
                "end_time": 8.59090909090909,
                "pitch": 40,
                "velocity": 101,
                "duration": 0.14999999999999858,
                "tempo": 120.0
            },
            {
                "start_time": 8.625,
                "end_time": 8.775,
                "pitch": 38,
                "velocity": 101,
                "duration": 0.15000000000000036,
                "tempo": 120.0
            },
            {
                "start_time": 8.790909090909091,
                "end_time": 8.940909090909091,
                "pitch": 36,
                "velocity": 101,
                "duration": 0.15000000000000036,
                "tempo": 120.0
            },
            {
                "start_time": 8.977272727272727,
                "end_time": 9.125,
                "pitch": 33,
                "velocity": 101,
                "duration": 0.14772727272727337,
                "tempo": 120.0
            },
            {
                "start_time": 9.159090909090908,
                "end_time": 9.293181818181818,
                "pitch": 33,
                "velocity": 101,
                "duration": 0.1340909090909097,
                "tempo": 120.0
            },
            {
                "start_time": 9.327272727272726,
                "end_time": 9.477272727272727,
                "pitch": 33,
                "velocity": 101,
                "duration": 0.15000000000000036,
                "tempo": 120.0
            },
            {
                "start_time": 9.511363636363637,
                "end_time": 9.643181818181818,
                "pitch": 28,
                "velocity": 101,
                "duration": 0.13181818181818095,
                "tempo": 120.0
            },
            {
                "start_time": 9.677272727272726,
                "end_time": 9.827272727272726,
                "pitch": 33,
                "velocity": 101,
                "duration": 0.15000000000000036,
                "tempo": 120.0
            },
            {
                "start_time": 9.861363636363636,
                "end_time": 9.995454545454544,
                "pitch": 40,
                "velocity": 101,
                "duration": 0.13409090909090793,
                "tempo": 120.0
            },
            {
                "start_time": 10.029545454545454,
                "end_time": 10.184090909090909,
                "pitch": 38,
                "velocity": 101,
                "duration": 0.15454545454545432,
                "tempo": 120.0
            },
            {
                "start_time": 10.218181818181817,
                "end_time": 10.35681818181818,
                "pitch": 36,
                "velocity": 101,
                "duration": 0.13863636363636367,
                "tempo": 120.0
            },
            {
                "start_time": 10.39090909090909,
                "end_time": 10.540909090909091,
                "pitch": 33,
                "velocity": 101,
                "duration": 0.15000000000000036,
                "tempo": 120.0
            },
            {
                "start_time": 10.575,
                "end_time": 10.709090909090909,
                "pitch": 33,
                "velocity": 101,
                "duration": 0.1340909090909097,
                "tempo": 120.0
            },
            {
                "start_time": 10.743181818181817,
                "end_time": 10.888636363636364,
                "pitch": 33,
                "velocity": 101,
                "duration": 0.1454545454545464,
                "tempo": 120.0
            },
            {
                "start_time": 10.920454545454545,
                "end_time": 11.049999999999999,
                "pitch": 28,
                "velocity": 101,
                "duration": 0.12954545454545396,
                "tempo": 120.0
            },
            {
                "start_time": 11.084090909090909,
                "end_time": 11.23409090909091,
                "pitch": 33,
                "velocity": 101,
                "duration": 0.15000000000000036,
                "tempo": 120.0
            },
            {
                "start_time": 11.268181818181818,
                "end_time": 11.418181818181818,
                "pitch": 40,
                "velocity": 101,
                "duration": 0.15000000000000036,
                "tempo": 120.0
            },
            {
                "start_time": 11.434090909090909,
                "end_time": 11.588636363636363,
                "pitch": 38,
                "velocity": 101,
                "duration": 0.15454545454545432,
                "tempo": 120.0
            },
            {
                "start_time": 11.622727272727273,
                "end_time": 11.779545454545454,
                "pitch": 36,
                "velocity": 101,
                "duration": 0.1568181818181813,
                "tempo": 120.0
            },
            {
                "start_time": 11.797727272727272,
                "end_time": 11.945454545454545,
                "pitch": 33,
                "velocity": 101,
                "duration": 0.14772727272727337,
                "tempo": 120.0
            },
            {
                "start_time": 11.98181818181818,
                "end_time": 12.129545454545454,
                "pitch": 33,
                "velocity": 101,
                "duration": 0.14772727272727337,
                "tempo": 120.0
            },
            {
                "start_time": 12.147727272727272,
                "end_time": 12.297727272727272,
                "pitch": 33,
                "velocity": 101,
                "duration": 0.15000000000000036,
                "tempo": 120.0
            },
            {
                "start_time": 12.331818181818182,
                "end_time": 12.48181818181818,
                "pitch": 28,
                "velocity": 101,
                "duration": 0.14999999999999858,
                "tempo": 120.0
            },
            {
                "start_time": 12.5,
                "end_time": 12.645454545454545,
                "pitch": 33,
                "velocity": 101,
                "duration": 0.14545454545454461,
                "tempo": 120.0
            },
            {
                "start_time": 12.677272727272726,
                "end_time": 12.822727272727272,
                "pitch": 40,
                "velocity": 101,
                "duration": 0.1454545454545464,
                "tempo": 120.0
            },
            {
                "start_time": 12.84090909090909,
                "end_time": 12.993181818181817,
                "pitch": 38,
                "velocity": 101,
                "duration": 0.15227272727272734,
                "tempo": 120.0
            },
            {
                "start_time": 13.029545454545454,
                "end_time": 13.184090909090909,
                "pitch": 36,
                "velocity": 101,
                "duration": 0.15454545454545432,
                "tempo": 120.0
            },
            {
                "start_time": 13.202272727272726,
                "end_time": 13.352272727272727,
                "pitch": 33,
                "velocity": 101,
                "duration": 0.15000000000000036,
                "tempo": 120.0
            },
            {
                "start_time": 13.386363636363635,
                "end_time": 13.536363636363635,
                "pitch": 33,
                "velocity": 101,
                "duration": 0.15000000000000036,
                "tempo": 120.0
            },
            {
                "start_time": 13.570454545454545,
                "end_time": 13.709090909090909,
                "pitch": 33,
                "velocity": 101,
                "duration": 0.13863636363636367,
                "tempo": 120.0
            },
            {
                "start_time": 13.745454545454544,
                "end_time": 13.904545454545454,
                "pitch": 28,
                "velocity": 101,
                "duration": 0.15909090909091006,
                "tempo": 120.0
            },
            {
                "start_time": 13.94090909090909,
                "end_time": 14.068181818181818,
                "pitch": 33,
                "velocity": 101,
                "duration": 0.12727272727272876,
                "tempo": 120.0
            },
            {
                "start_time": 14.102272727272727,
                "end_time": 14.247727272727271,
                "pitch": 40,
                "velocity": 101,
                "duration": 0.14545454545454461,
                "tempo": 120.0
            },
            {
                "start_time": 14.281818181818181,
                "end_time": 14.418181818181818,
                "pitch": 38,
                "velocity": 101,
                "duration": 0.1363636363636367,
                "tempo": 120.0
            },
            {
                "start_time": 14.452272727272726,
                "end_time": 14.60681818181818,
                "pitch": 36,
                "velocity": 101,
                "duration": 0.15454545454545432,
                "tempo": 120.0
            },
            {
                "start_time": 14.643181818181818,
                "end_time": 14.774999999999999,
                "pitch": 33,
                "velocity": 101,
                "duration": 0.13181818181818095,
                "tempo": 120.0
            },
            {
                "start_time": 14.809090909090909,
                "end_time": 14.959090909090909,
                "pitch": 33,
                "velocity": 101,
                "duration": 0.15000000000000036,
                "tempo": 120.0
            },
            {
                "start_time": 14.993181818181817,
                "end_time": 15.127272727272727,
                "pitch": 33,
                "velocity": 101,
                "duration": 0.1340909090909097,
                "tempo": 120.0
            },
            {
                "start_time": 15.161363636363635,
                "end_time": 15.311363636363636,
                "pitch": 28,
                "velocity": 101,
                "duration": 0.15000000000000036,
                "tempo": 120.0
            },
            {
                "start_time": 15.345454545454544,
                "end_time": 15.477272727272727,
                "pitch": 33,
                "velocity": 101,
                "duration": 0.13181818181818272,
                "tempo": 120.0
            },
            {
                "start_time": 15.513636363636364,
                "end_time": 15.661363636363635,
                "pitch": 40,
                "velocity": 101,
                "duration": 0.1477272727272716,
                "tempo": 120.0
            },
            {
                "start_time": 15.695454545454545,
                "end_time": 15.845454545454544,
                "pitch": 38,
                "velocity": 101,
                "duration": 0.14999999999999858,
                "tempo": 120.0
            },
            {
                "start_time": 15.863636363636363,
                "end_time": 16.013636363636362,
                "pitch": 36,
                "velocity": 101,
                "duration": 0.14999999999999858,
                "tempo": 120.0
            },
            {
                "start_time": 16.047727272727272,
                "end_time": 16.19772727272727,
                "pitch": 33,
                "velocity": 101,
                "duration": 0.14999999999999858,
                "tempo": 120.0
            },
            {
                "start_time": 16.21590909090909,
                "end_time": 16.363636363636363,
                "pitch": 33,
                "velocity": 101,
                "duration": 0.14772727272727337,
                "tempo": 120.0
            },
            {
                "start_time": 16.4,
                "end_time": 16.547727272727272,
                "pitch": 33,
                "velocity": 101,
                "duration": 0.14772727272727337,
                "tempo": 120.0
            },
            {
                "start_time": 16.56590909090909,
                "end_time": 16.71590909090909,
                "pitch": 28,
                "velocity": 101,
                "duration": 0.14999999999999858,
                "tempo": 120.0
            },
            {
                "start_time": 16.75,
                "end_time": 16.9,
                "pitch": 33,
                "velocity": 101,
                "duration": 0.14999999999999858,
                "tempo": 120.0
            },
            {
                "start_time": 16.918181818181818,
                "end_time": 17.06590909090909,
                "pitch": 40,
                "velocity": 101,
                "duration": 0.14772727272727337,
                "tempo": 120.0
            },
            {
                "start_time": 17.102272727272727,
                "end_time": 17.25,
                "pitch": 38,
                "velocity": 101,
                "duration": 0.14772727272727337,
                "tempo": 120.0
            },
            {
                "start_time": 17.268181818181816,
                "end_time": 17.418181818181818,
                "pitch": 36,
                "velocity": 101,
                "duration": 0.15000000000000213,
                "tempo": 120.0
            },
            {
                "start_time": 17.454545454545453,
                "end_time": 17.602272727272727,
                "pitch": 33,
                "velocity": 101,
                "duration": 0.14772727272727337,
                "tempo": 120.0
            },
            {
                "start_time": 17.620454545454546,
                "end_time": 17.770454545454545,
                "pitch": 33,
                "velocity": 101,
                "duration": 0.14999999999999858,
                "tempo": 120.0
            },
            {
                "start_time": 17.802272727272726,
                "end_time": 17.954545454545453,
                "pitch": 33,
                "velocity": 101,
                "duration": 0.15227272727272734,
                "tempo": 120.0
            },
            {
                "start_time": 17.988636363636363,
                "end_time": 18.120454545454546,
                "pitch": 28,
                "velocity": 101,
                "duration": 0.13181818181818272,
                "tempo": 120.0
            },
            {
                "start_time": 18.154545454545453,
                "end_time": 18.304545454545455,
                "pitch": 33,
                "velocity": 101,
                "duration": 0.15000000000000213,
                "tempo": 120.0
            },
            {
                "start_time": 18.33863636363636,
                "end_time": 18.472727272727273,
                "pitch": 40,
                "velocity": 101,
                "duration": 0.13409090909091148,
                "tempo": 120.0
            },
            {
                "start_time": 18.50681818181818,
                "end_time": 18.65681818181818,
                "pitch": 38,
                "velocity": 101,
                "duration": 0.15000000000000213,
                "tempo": 120.0
            },
            {
                "start_time": 18.688636363636363,
                "end_time": 18.82272727272727,
                "pitch": 36,
                "velocity": 101,
                "duration": 0.13409090909090793,
                "tempo": 120.0
            },
            {
                "start_time": 18.85681818181818,
                "end_time": 19.00681818181818,
                "pitch": 33,
                "velocity": 101,
                "duration": 0.14999999999999858,
                "tempo": 120.0
            },
            {
                "start_time": 19.04090909090909,
                "end_time": 19.175,
                "pitch": 33,
                "velocity": 101,
                "duration": 0.13409090909091148,
                "tempo": 120.0
            },
            {
                "start_time": 19.209090909090907,
                "end_time": 19.35909090909091,
                "pitch": 33,
                "velocity": 101,
                "duration": 0.15000000000000213,
                "tempo": 120.0
            },
            {
                "start_time": 19.393181818181816,
                "end_time": 19.525,
                "pitch": 28,
                "velocity": 101,
                "duration": 0.13181818181818272,
                "tempo": 120.0
            },
            {
                "start_time": 19.55909090909091,
                "end_time": 19.709090909090907,
                "pitch": 33,
                "velocity": 101,
                "duration": 0.14999999999999858,
                "tempo": 120.0
            },
            {
                "start_time": 19.743181818181817,
                "end_time": 19.893181818181816,
                "pitch": 40,
                "velocity": 101,
                "duration": 0.14999999999999858,
                "tempo": 120.0
            },
            {
                "start_time": 19.911363636363635,
                "end_time": 20.061363636363634,
                "pitch": 38,
                "velocity": 101,
                "duration": 0.14999999999999858,
                "tempo": 120.0
            },
            {
                "start_time": 20.095454545454544,
                "end_time": 20.245454545454546,
                "pitch": 36,
                "velocity": 101,
                "duration": 0.15000000000000213,
                "tempo": 120.0
            },
            {
                "start_time": 20.263636363636362,
                "end_time": 20.411363636363635,
                "pitch": 33,
                "velocity": 101,
                "duration": 0.14772727272727337,
                "tempo": 120.0
            },
            {
                "start_time": 20.445454545454545,
                "end_time": 20.595454545454544,
                "pitch": 33,
                "velocity": 101,
                "duration": 0.14999999999999858,
                "tempo": 120.0
            },
            {
                "start_time": 20.613636363636363,
                "end_time": 20.763636363636362,
                "pitch": 33,
                "velocity": 101,
                "duration": 0.14999999999999858,
                "tempo": 120.0
            },
            {
                "start_time": 20.797727272727272,
                "end_time": 20.94772727272727,
                "pitch": 28,
                "velocity": 101,
                "duration": 0.14999999999999858,
                "tempo": 120.0
            },
            {
                "start_time": 20.96363636363636,
                "end_time": 21.113636363636363,
                "pitch": 33,
                "velocity": 101,
                "duration": 0.15000000000000213,
                "tempo": 120.0
            },
            {
                "start_time": 21.147727272727273,
                "end_time": 21.297727272727272,
                "pitch": 40,
                "velocity": 101,
                "duration": 0.14999999999999858,
                "tempo": 120.0
            },
            {
                "start_time": 21.31590909090909,
                "end_time": 21.470454545454544,
                "pitch": 38,
                "velocity": 101,
                "duration": 0.15454545454545254,
                "tempo": 120.0
            },
            {
                "start_time": 21.504545454545454,
                "end_time": 21.659090909090907,
                "pitch": 36,
                "velocity": 101,
                "duration": 0.15454545454545254,
                "tempo": 120.0
            },
            {
                "start_time": 21.677272727272726,
                "end_time": 21.82272727272727,
                "pitch": 33,
                "velocity": 101,
                "duration": 0.14545454545454461,
                "tempo": 120.0
            },
            {
                "start_time": 21.854545454545452,
                "end_time": 22.002272727272725,
                "pitch": 33,
                "velocity": 101,
                "duration": 0.14772727272727337,
                "tempo": 120.0
            },
            {
                "start_time": 22.034090909090907,
                "end_time": 22.174999999999997,
                "pitch": 33,
                "velocity": 101,
                "duration": 0.14090909090909065,
                "tempo": 120.0
            },
            {
                "start_time": 22.211363636363636,
                "end_time": 22.368181818181817,
                "pitch": 28,
                "velocity": 101,
                "duration": 0.1568181818181813,
                "tempo": 120.0
            },
            {
                "start_time": 22.404545454545453,
                "end_time": 22.538636363636364,
                "pitch": 33,
                "velocity": 101,
                "duration": 0.13409090909091148,
                "tempo": 120.0
            },
            {
                "start_time": 22.57272727272727,
                "end_time": 22.722727272727273,
                "pitch": 40,
                "velocity": 101,
                "duration": 0.15000000000000213,
                "tempo": 120.0
            },
            {
                "start_time": 22.75681818181818,
                "end_time": 22.888636363636362,
                "pitch": 38,
                "velocity": 101,
                "duration": 0.13181818181818272,
                "tempo": 120.0
            },
            {
                "start_time": 22.922727272727272,
                "end_time": 23.07272727272727,
                "pitch": 36,
                "velocity": 101,
                "duration": 0.14999999999999858,
                "tempo": 120.0
            },
            {
                "start_time": 23.10909090909091,
                "end_time": 23.245454545454546,
                "pitch": 33,
                "velocity": 101,
                "duration": 0.1363636363636367,
                "tempo": 120.0
            },
            {
                "start_time": 23.279545454545453,
                "end_time": 23.43409090909091,
                "pitch": 33,
                "velocity": 101,
                "duration": 0.1545454545454561,
                "tempo": 120.0
            },
            {
                "start_time": 23.470454545454544,
                "end_time": 23.602272727272727,
                "pitch": 33,
                "velocity": 101,
                "duration": 0.13181818181818272,
                "tempo": 120.0
            },
            {
                "start_time": 23.636363636363637,
                "end_time": 23.786363636363635,
                "pitch": 28,
                "velocity": 101,
                "duration": 0.14999999999999858,
                "tempo": 120.0
            },
            {
                "start_time": 23.820454545454545,
                "end_time": 23.95,
                "pitch": 33,
                "velocity": 101,
                "duration": 0.12954545454545396,
                "tempo": 120.0
            },
            {
                "start_time": 23.98409090909091,
                "end_time": 24.129545454545454,
                "pitch": 40,
                "velocity": 101,
                "duration": 0.14545454545454461,
                "tempo": 120.0
            },
            {
                "start_time": 24.161363636363635,
                "end_time": 24.31590909090909,
                "pitch": 38,
                "velocity": 101,
                "duration": 0.1545454545454561,
                "tempo": 120.0
            },
            {
                "start_time": 24.334090909090907,
                "end_time": 24.488636363636363,
                "pitch": 36,
                "velocity": 101,
                "duration": 0.1545454545454561,
                "tempo": 120.0
            },
            {
                "start_time": 24.52272727272727,
                "end_time": 24.672727272727272,
                "pitch": 33,
                "velocity": 101,
                "duration": 0.15000000000000213,
                "tempo": 120.0
            },
            {
                "start_time": 24.69090909090909,
                "end_time": 24.84090909090909,
                "pitch": 33,
                "velocity": 101,
                "duration": 0.14999999999999858,
                "tempo": 120.0
            },
            {
                "start_time": 24.875,
                "end_time": 25.025,
                "pitch": 33,
                "velocity": 101,
                "duration": 0.14999999999999858,
                "tempo": 120.0
            },
            {
                "start_time": 25.043181818181818,
                "end_time": 25.19090909090909,
                "pitch": 28,
                "velocity": 101,
                "duration": 0.14772727272727337,
                "tempo": 120.0
            },
            {
                "start_time": 25.224999999999998,
                "end_time": 25.375,
                "pitch": 33,
                "velocity": 101,
                "duration": 0.15000000000000213,
                "tempo": 120.0
            },
            {
                "start_time": 25.393181818181816,
                "end_time": 25.543181818181818,
                "pitch": 40,
                "velocity": 101,
                "duration": 0.15000000000000213,
                "tempo": 120.0
            },
            {
                "start_time": 25.577272727272724,
                "end_time": 25.727272727272727,
                "pitch": 38,
                "velocity": 101,
                "duration": 0.15000000000000213,
                "tempo": 120.0
            },
            {
                "start_time": 25.745454545454542,
                "end_time": 25.895454545454545,
                "pitch": 36,
                "velocity": 101,
                "duration": 0.15000000000000213,
                "tempo": 120.0
            },
            {
                "start_time": 25.929545454545455,
                "end_time": 26.077272727272724,
                "pitch": 33,
                "velocity": 101,
                "duration": 0.14772727272726982,
                "tempo": 120.0
            },
            {
                "start_time": 26.095454545454544,
                "end_time": 26.245454545454542,
                "pitch": 33,
                "velocity": 101,
                "duration": 0.14999999999999858,
                "tempo": 120.0
            },
            {
                "start_time": 26.279545454545453,
                "end_time": 26.429545454545455,
                "pitch": 33,
                "velocity": 101,
                "duration": 0.15000000000000213,
                "tempo": 120.0
            },
            {
                "start_time": 26.46363636363636,
                "end_time": 26.597727272727273,
                "pitch": 28,
                "velocity": 101,
                "duration": 0.13409090909091148,
                "tempo": 120.0
            },
            {
                "start_time": 26.63181818181818,
                "end_time": 26.779545454545453,
                "pitch": 33,
                "velocity": 101,
                "duration": 0.14772727272727337,
                "tempo": 120.0
            },
            {
                "start_time": 26.81590909090909,
                "end_time": 26.94772727272727,
                "pitch": 40,
                "velocity": 101,
                "duration": 0.13181818181817917,
                "tempo": 120.0
            },
            {
                "start_time": 26.98181818181818,
                "end_time": 27.13181818181818,
                "pitch": 38,
                "velocity": 101,
                "duration": 0.14999999999999858,
                "tempo": 120.0
            },
            {
                "start_time": 27.16590909090909,
                "end_time": 27.299999999999997,
                "pitch": 36,
                "velocity": 101,
                "duration": 0.13409090909090793,
                "tempo": 120.0
            },
            {
                "start_time": 27.334090909090907,
                "end_time": 27.48409090909091,
                "pitch": 33,
                "velocity": 101,
                "duration": 0.15000000000000213,
                "tempo": 120.0
            },
            {
                "start_time": 27.518181818181816,
                "end_time": 27.65,
                "pitch": 33,
                "velocity": 101,
                "duration": 0.13181818181818272,
                "tempo": 120.0
            },
            {
                "start_time": 27.68409090909091,
                "end_time": 27.834090909090907,
                "pitch": 33,
                "velocity": 101,
                "duration": 0.14999999999999858,
                "tempo": 120.0
            },
            {
                "start_time": 27.868181818181817,
                "end_time": 28.002272727272725,
                "pitch": 28,
                "velocity": 101,
                "duration": 0.13409090909090793,
                "tempo": 120.0
            },
            {
                "start_time": 28.036363636363635,
                "end_time": 28.186363636363634,
                "pitch": 33,
                "velocity": 101,
                "duration": 0.14999999999999858,
                "tempo": 120.0
            },
            {
                "start_time": 28.220454545454544,
                "end_time": 28.352272727272727,
                "pitch": 40,
                "velocity": 101,
                "duration": 0.13181818181818272,
                "tempo": 120.0
            },
            {
                "start_time": 28.386363636363637,
                "end_time": 28.536363636363635,
                "pitch": 38,
                "velocity": 101,
                "duration": 0.14999999999999858,
                "tempo": 120.0
            },
            {
                "start_time": 28.570454545454545,
                "end_time": 28.720454545454544,
                "pitch": 36,
                "velocity": 101,
                "duration": 0.14999999999999858,
                "tempo": 120.0
            },
            {
                "start_time": 28.74090909090909,
                "end_time": 28.893181818181816,
                "pitch": 29,
                "velocity": 101,
                "duration": 0.15227272727272734,
                "tempo": 120.0
            },
            {
                "start_time": 28.927272727272726,
                "end_time": 29.081818181818182,
                "pitch": 29,
                "velocity": 101,
                "duration": 0.1545454545454561,
                "tempo": 120.0
            },
            {
                "start_time": 29.097727272727273,
                "end_time": 29.245454545454542,
                "pitch": 29,
                "velocity": 101,
                "duration": 0.14772727272726982,
                "tempo": 120.0
            },
            {
                "start_time": 29.279545454545453,
                "end_time": 29.422727272727272,
                "pitch": 33,
                "velocity": 101,
                "duration": 0.1431818181818194,
                "tempo": 120.0
            },
            {
                "start_time": 29.440909090909088,
                "end_time": 29.59090909090909,
                "pitch": 29,
                "velocity": 101,
                "duration": 0.15000000000000213,
                "tempo": 120.0
            },
            {
                "start_time": 29.625,
                "end_time": 29.775,
                "pitch": 33,
                "velocity": 101,
                "duration": 0.14999999999999858,
                "tempo": 120.0
            },
            {
                "start_time": 29.79090909090909,
                "end_time": 29.940909090909088,
                "pitch": 35,
                "velocity": 101,
                "duration": 0.14999999999999858,
                "tempo": 120.0
            },
            {
                "start_time": 29.977272727272727,
                "end_time": 30.125,
                "pitch": 36,
                "velocity": 101,
                "duration": 0.14772727272727337,
                "tempo": 120.0
            },
            {
                "start_time": 30.143181818181816,
                "end_time": 30.297727272727272,
                "pitch": 29,
                "velocity": 101,
                "duration": 0.1545454545454561,
                "tempo": 120.0
            },
            {
                "start_time": 30.331818181818182,
                "end_time": 30.486363636363635,
                "pitch": 29,
                "velocity": 101,
                "duration": 0.15454545454545254,
                "tempo": 120.0
            },
            {
                "start_time": 30.504545454545454,
                "end_time": 30.65,
                "pitch": 29,
                "velocity": 101,
                "duration": 0.14545454545454461,
                "tempo": 120.0
            },
            {
                "start_time": 30.68409090909091,
                "end_time": 30.829545454545453,
                "pitch": 33,
                "velocity": 101,
                "duration": 0.14545454545454461,
                "tempo": 120.0
            },
            {
                "start_time": 30.861363636363635,
                "end_time": 31.002272727272725,
                "pitch": 29,
                "velocity": 101,
                "duration": 0.14090909090909065,
                "tempo": 120.0
            },
            {
                "start_time": 31.03863636363636,
                "end_time": 31.195454545454545,
                "pitch": 33,
                "velocity": 101,
                "duration": 0.15681818181818485,
                "tempo": 120.0
            },
            {
                "start_time": 31.23181818181818,
                "end_time": 31.36590909090909,
                "pitch": 35,
                "velocity": 101,
                "duration": 0.13409090909090793,
                "tempo": 120.0
            },
            {
                "start_time": 31.4,
                "end_time": 31.549999999999997,
                "pitch": 36,
                "velocity": 101,
                "duration": 0.14999999999999858,
                "tempo": 120.0
            },
            {
                "start_time": 31.584090909090907,
                "end_time": 31.720454545454544,
                "pitch": 29,
                "velocity": 101,
                "duration": 0.1363636363636367,
                "tempo": 120.0
            },
            {
                "start_time": 31.75681818181818,
                "end_time": 31.909090909090907,
                "pitch": 29,
                "velocity": 101,
                "duration": 0.15227272727272734,
                "tempo": 120.0
            },
            {
                "start_time": 31.945454545454545,
                "end_time": 32.074999999999996,
                "pitch": 29,
                "velocity": 101,
                "duration": 0.1295454545454504,
                "tempo": 120.0
            },
            {
                "start_time": 32.10909090909091,
                "end_time": 32.25454545454545,
                "pitch": 33,
                "velocity": 101,
                "duration": 0.14545454545454106,
                "tempo": 120.0
            },
            {
                "start_time": 32.28636363636363,
                "end_time": 32.42045454545455,
                "pitch": 29,
                "velocity": 101,
                "duration": 0.13409090909091503,
                "tempo": 120.0
            },
            {
                "start_time": 32.45454545454545,
                "end_time": 32.60454545454545,
                "pitch": 33,
                "velocity": 101,
                "duration": 0.14999999999999858,
                "tempo": 120.0
            },
            {
                "start_time": 32.63636363636363,
                "end_time": 32.788636363636364,
                "pitch": 35,
                "velocity": 101,
                "duration": 0.1522727272727309,
                "tempo": 120.0
            },
            {
                "start_time": 32.804545454545455,
                "end_time": 32.95454545454545,
                "pitch": 36,
                "velocity": 101,
                "duration": 0.14999999999999858,
                "tempo": 120.0
            },
            {
                "start_time": 32.99090909090909,
                "end_time": 33.143181818181816,
                "pitch": 29,
                "velocity": 101,
                "duration": 0.15227272727272378,
                "tempo": 120.0
            },
            {
                "start_time": 33.16136363636363,
                "end_time": 33.31590909090909,
                "pitch": 29,
                "velocity": 101,
                "duration": 0.1545454545454561,
                "tempo": 120.0
            },
            {
                "start_time": 33.35,
                "end_time": 33.49545454545454,
                "pitch": 29,
                "velocity": 101,
                "duration": 0.14545454545454106,
                "tempo": 120.0
            },
            {
                "start_time": 33.513636363636365,
                "end_time": 33.65909090909091,
                "pitch": 33,
                "velocity": 101,
                "duration": 0.14545454545454106,
                "tempo": 120.0
            },
            {
                "start_time": 33.69090909090909,
                "end_time": 33.840909090909086,
                "pitch": 29,
                "velocity": 101,
                "duration": 0.14999999999999858,
                "tempo": 120.0
            },
            {
                "start_time": 33.85909090909091,
                "end_time": 34.00909090909091,
                "pitch": 33,
                "velocity": 101,
                "duration": 0.14999999999999858,
                "tempo": 120.0
            },
            {
                "start_time": 34.043181818181814,
                "end_time": 34.19772727272727,
                "pitch": 35,
                "velocity": 101,
                "duration": 0.1545454545454561,
                "tempo": 120.0
            },
            {
                "start_time": 34.215909090909086,
                "end_time": 34.37045454545454,
                "pitch": 36,
                "velocity": 101,
                "duration": 0.1545454545454561,
                "tempo": 120.0
            },
            {
                "start_time": 34.40681818181818,
                "end_time": 34.554545454545455,
                "pitch": 33,
                "velocity": 101,
                "duration": 0.14772727272727337,
                "tempo": 120.0
            },
            {
                "start_time": 34.57272727272727,
                "end_time": 34.72272727272727,
                "pitch": 33,
                "velocity": 101,
                "duration": 0.14999999999999858,
                "tempo": 120.0
            },
            {
                "start_time": 34.75681818181818,
                "end_time": 34.90681818181818,
                "pitch": 33,
                "velocity": 101,
                "duration": 0.14999999999999858,
                "tempo": 120.0
            },
            {
                "start_time": 34.94090909090909,
                "end_time": 35.07272727272727,
                "pitch": 28,
                "velocity": 101,
                "duration": 0.13181818181818272,
                "tempo": 120.0
            },
            {
                "start_time": 35.10681818181818,
                "end_time": 35.252272727272725,
                "pitch": 33,
                "velocity": 101,
                "duration": 0.14545454545454817,
                "tempo": 120.0
            },
            {
                "start_time": 35.28636363636363,
                "end_time": 35.41590909090909,
                "pitch": 40,
                "velocity": 101,
                "duration": 0.12954545454545752,
                "tempo": 120.0
            },
            {
                "start_time": 35.44772727272727,
                "end_time": 35.60227272727273,
                "pitch": 38,
                "velocity": 101,
                "duration": 0.1545454545454561,
                "tempo": 120.0
            },
            {
                "start_time": 35.63636363636363,
                "end_time": 35.775,
                "pitch": 36,
                "velocity": 101,
                "duration": 0.13863636363636545,
                "tempo": 120.0
            },
            {
                "start_time": 35.81136363636364,
                "end_time": 35.95909090909091,
                "pitch": 33,
                "velocity": 101,
                "duration": 0.14772727272727337,
                "tempo": 120.0
            },
            {
                "start_time": 35.99318181818182,
                "end_time": 36.127272727272725,
                "pitch": 33,
                "velocity": 101,
                "duration": 0.13409090909090793,
                "tempo": 120.0
            },
            {
                "start_time": 36.16136363636363,
                "end_time": 36.31136363636364,
                "pitch": 33,
                "velocity": 101,
                "duration": 0.15000000000000568,
                "tempo": 120.0
            },
            {
                "start_time": 36.345454545454544,
                "end_time": 36.47727272727273,
                "pitch": 28,
                "velocity": 101,
                "duration": 0.13181818181818272,
                "tempo": 120.0
            },
            {
                "start_time": 36.51136363636363,
                "end_time": 36.66136363636363,
                "pitch": 33,
                "velocity": 101,
                "duration": 0.14999999999999858,
                "tempo": 120.0
            },
            {
                "start_time": 36.695454545454545,
                "end_time": 36.82954545454545,
                "pitch": 40,
                "velocity": 101,
                "duration": 0.13409090909090793,
                "tempo": 120.0
            },
            {
                "start_time": 36.86363636363636,
                "end_time": 37.01363636363636,
                "pitch": 38,
                "velocity": 101,
                "duration": 0.14999999999999858,
                "tempo": 120.0
            },
            {
                "start_time": 37.04772727272727,
                "end_time": 37.19772727272727,
                "pitch": 36,
                "velocity": 101,
                "duration": 0.14999999999999858,
                "tempo": 120.0
            },
            {
                "start_time": 37.215909090909086,
                "end_time": 37.36590909090909,
                "pitch": 33,
                "velocity": 101,
                "duration": 0.15000000000000568,
                "tempo": 120.0
            },
            {
                "start_time": 37.39772727272727,
                "end_time": 37.54772727272727,
                "pitch": 33,
                "velocity": 101,
                "duration": 0.14999999999999858,
                "tempo": 120.0
            },
            {
                "start_time": 37.56590909090909,
                "end_time": 37.715909090909086,
                "pitch": 33,
                "velocity": 101,
                "duration": 0.14999999999999858,
                "tempo": 120.0
            },
            {
                "start_time": 37.75,
                "end_time": 37.9,
                "pitch": 28,
                "velocity": 101,
                "duration": 0.14999999999999858,
                "tempo": 120.0
            },
            {
                "start_time": 37.918181818181814,
                "end_time": 38.06818181818181,
                "pitch": 33,
                "velocity": 101,
                "duration": 0.14999999999999858,
                "tempo": 120.0
            },
            {
                "start_time": 38.10227272727273,
                "end_time": 38.252272727272725,
                "pitch": 40,
                "velocity": 101,
                "duration": 0.14999999999999858,
                "tempo": 120.0
            },
            {
                "start_time": 38.268181818181816,
                "end_time": 38.418181818181814,
                "pitch": 38,
                "velocity": 101,
                "duration": 0.14999999999999858,
                "tempo": 120.0
            },
            {
                "start_time": 38.45227272727273,
                "end_time": 38.60227272727273,
                "pitch": 36,
                "velocity": 101,
                "duration": 0.14999999999999858,
                "tempo": 120.0
            },
            {
                "start_time": 38.62045454545454,
                "end_time": 38.77045454545454,
                "pitch": 33,
                "velocity": 101,
                "duration": 0.14999999999999858,
                "tempo": 120.0
            },
            {
                "start_time": 38.804545454545455,
                "end_time": 38.95454545454545,
                "pitch": 33,
                "velocity": 101,
                "duration": 0.14999999999999858,
                "tempo": 120.0
            },
            {
                "start_time": 38.970454545454544,
                "end_time": 39.12045454545454,
                "pitch": 33,
                "velocity": 101,
                "duration": 0.14999999999999858,
                "tempo": 120.0
            },
            {
                "start_time": 39.154545454545456,
                "end_time": 39.304545454545455,
                "pitch": 28,
                "velocity": 101,
                "duration": 0.14999999999999858,
                "tempo": 120.0
            },
            {
                "start_time": 39.33863636363636,
                "end_time": 39.47954545454545,
                "pitch": 33,
                "velocity": 101,
                "duration": 0.14090909090909065,
                "tempo": 120.0
            },
            {
                "start_time": 39.51590909090909,
                "end_time": 39.67272727272727,
                "pitch": 40,
                "velocity": 101,
                "duration": 0.1568181818181813,
                "tempo": 120.0
            },
            {
                "start_time": 39.709090909090904,
                "end_time": 39.84318181818182,
                "pitch": 38,
                "velocity": 101,
                "duration": 0.13409090909091503,
                "tempo": 120.0
            },
            {
                "start_time": 39.877272727272725,
                "end_time": 40.027272727272724,
                "pitch": 36,
                "velocity": 101,
                "duration": 0.14999999999999858,
                "tempo": 120.0
            },
            {
                "start_time": 40.06363636363636,
                "end_time": 40.19318181818181,
                "pitch": 29,
                "velocity": 101,
                "duration": 0.1295454545454504,
                "tempo": 120.0
            },
            {
                "start_time": 40.22954545454545,
                "end_time": 40.377272727272725,
                "pitch": 29,
                "velocity": 101,
                "duration": 0.14772727272727337,
                "tempo": 120.0
            },
            {
                "start_time": 40.41136363636363,
                "end_time": 40.54545454545455,
                "pitch": 29,
                "velocity": 101,
                "duration": 0.13409090909091503,
                "tempo": 120.0
            },
            {
                "start_time": 40.57954545454545,
                "end_time": 40.72954545454545,
                "pitch": 33,
                "velocity": 101,
                "duration": 0.14999999999999858,
                "tempo": 120.0
            },
            {
                "start_time": 40.76363636363636,
                "end_time": 40.89772727272727,
                "pitch": 29,
                "velocity": 101,
                "duration": 0.13409090909091503,
                "tempo": 120.0
            },
            {
                "start_time": 40.93181818181818,
                "end_time": 41.07954545454545,
                "pitch": 33,
                "velocity": 101,
                "duration": 0.14772727272727337,
                "tempo": 120.0
            },
            {
                "start_time": 41.11363636363636,
                "end_time": 41.24772727272727,
                "pitch": 35,
                "velocity": 101,
                "duration": 0.13409090909090793,
                "tempo": 120.0
            },
            {
                "start_time": 41.28181818181818,
                "end_time": 41.43181818181818,
                "pitch": 36,
                "velocity": 101,
                "duration": 0.14999999999999858,
                "tempo": 120.0
            },
            {
                "start_time": 41.465909090909086,
                "end_time": 41.62045454545454,
                "pitch": 29,
                "velocity": 101,
                "duration": 0.1545454545454561,
                "tempo": 120.0
            },
            {
                "start_time": 41.63863636363636,
                "end_time": 41.79090909090909,
                "pitch": 29,
                "velocity": 101,
                "duration": 0.1522727272727309,
                "tempo": 120.0
            },
            {
                "start_time": 41.82727272727273,
                "end_time": 41.97272727272727,
                "pitch": 29,
                "velocity": 101,
                "duration": 0.14545454545454106,
                "tempo": 120.0
            },
            {
                "start_time": 41.99090909090909,
                "end_time": 42.13636363636363,
                "pitch": 33,
                "velocity": 101,
                "duration": 0.14545454545454106,
                "tempo": 120.0
            },
            {
                "start_time": 42.168181818181814,
                "end_time": 42.31818181818181,
                "pitch": 29,
                "velocity": 101,
                "duration": 0.14999999999999858,
                "tempo": 120.0
            },
            {
                "start_time": 42.336363636363636,
                "end_time": 42.486363636363635,
                "pitch": 33,
                "velocity": 101,
                "duration": 0.14999999999999858,
                "tempo": 120.0
            },
            {
                "start_time": 42.518181818181816,
                "end_time": 42.67045454545455,
                "pitch": 35,
                "velocity": 101,
                "duration": 0.1522727272727309,
                "tempo": 120.0
            },
            {
                "start_time": 42.68636363636364,
                "end_time": 42.836363636363636,
                "pitch": 36,
                "velocity": 101,
                "duration": 0.14999999999999858,
                "tempo": 120.0
            },
            {
                "start_time": 42.87045454545454,
                "end_time": 43.025,
                "pitch": 29,
                "velocity": 101,
                "duration": 0.1545454545454561,
                "tempo": 120.0
            },
            {
                "start_time": 43.043181818181814,
                "end_time": 43.19772727272727,
                "pitch": 29,
                "velocity": 101,
                "duration": 0.1545454545454561,
                "tempo": 120.0
            },
            {
                "start_time": 43.23181818181818,
                "end_time": 43.377272727272725,
                "pitch": 29,
                "velocity": 101,
                "duration": 0.14545454545454817,
                "tempo": 120.0
            },
            {
                "start_time": 43.39545454545454,
                "end_time": 43.54090909090909,
                "pitch": 33,
                "velocity": 101,
                "duration": 0.14545454545454817,
                "tempo": 120.0
            },
            {
                "start_time": 43.57272727272727,
                "end_time": 43.72272727272727,
                "pitch": 29,
                "velocity": 101,
                "duration": 0.14999999999999858,
                "tempo": 120.0
            },
            {
                "start_time": 43.75909090909091,
                "end_time": 43.89090909090909,
                "pitch": 33,
                "velocity": 101,
                "duration": 0.13181818181818272,
                "tempo": 120.0
            },
            {
                "start_time": 43.925,
                "end_time": 44.074999999999996,
                "pitch": 35,
                "velocity": 101,
                "duration": 0.14999999999999858,
                "tempo": 120.0
            },
            {
                "start_time": 44.10909090909091,
                "end_time": 44.24318181818182,
                "pitch": 36,
                "velocity": 101,
                "duration": 0.13409090909090793,
                "tempo": 120.0
            },
            {
                "start_time": 44.277272727272724,
                "end_time": 44.429545454545455,
                "pitch": 29,
                "velocity": 101,
                "duration": 0.1522727272727309,
                "tempo": 120.0
            },
            {
                "start_time": 44.465909090909086,
                "end_time": 44.60227272727273,
                "pitch": 29,
                "velocity": 101,
                "duration": 0.13636363636364024,
                "tempo": 120.0
            },
            {
                "start_time": 44.63636363636363,
                "end_time": 44.78409090909091,
                "pitch": 29,
                "velocity": 101,
                "duration": 0.14772727272727337,
                "tempo": 120.0
            },
            {
                "start_time": 44.81590909090909,
                "end_time": 44.945454545454545,
                "pitch": 33,
                "velocity": 101,
                "duration": 0.12954545454545752,
                "tempo": 120.0
            },
            {
                "start_time": 44.97727272727273,
                "end_time": 45.12954545454545,
                "pitch": 29,
                "velocity": 101,
                "duration": 0.15227272727272378,
                "tempo": 120.0
            },
            {
                "start_time": 45.163636363636364,
                "end_time": 45.29545454545455,
                "pitch": 33,
                "velocity": 101,
                "duration": 0.13181818181818272,
                "tempo": 120.0
            },
            {
                "start_time": 45.32954545454545,
                "end_time": 45.48409090909091,
                "pitch": 35,
                "velocity": 101,
                "duration": 0.1545454545454561,
                "tempo": 120.0
            },
            {
                "start_time": 45.52045454545454,
                "end_time": 45.67272727272727,
                "pitch": 36,
                "velocity": 101,
                "duration": 0.1522727272727309,
                "tempo": 120.0
            },
            {
                "start_time": 45.69318181818181,
                "end_time": 45.840909090909086,
                "pitch": 28,
                "velocity": 101,
                "duration": 0.14772727272727337,
                "tempo": 120.0
            },
            {
                "start_time": 45.875,
                "end_time": 46.025,
                "pitch": 28,
                "velocity": 101,
                "duration": 0.14999999999999858,
                "tempo": 120.0
            },
            {
                "start_time": 46.043181818181814,
                "end_time": 46.19318181818181,
                "pitch": 28,
                "velocity": 101,
                "duration": 0.14999999999999858,
                "tempo": 120.0
            },
            {
                "start_time": 46.22727272727273,
                "end_time": 46.377272727272725,
                "pitch": 35,
                "velocity": 101,
                "duration": 0.14999999999999858,
                "tempo": 120.0
            },
            {
                "start_time": 46.393181818181816,
                "end_time": 46.54090909090909,
                "pitch": 28,
                "velocity": 101,
                "duration": 0.14772727272727337,
                "tempo": 120.0
            },
            {
                "start_time": 46.57272727272727,
                "end_time": 46.71818181818182,
                "pitch": 38,
                "velocity": 101,
                "duration": 0.14545454545454817,
                "tempo": 120.0
            },
            {
                "start_time": 46.736363636363635,
                "end_time": 46.88863636363636,
                "pitch": 36,
                "velocity": 101,
                "duration": 0.15227272727272378,
                "tempo": 120.0
            },
            {
                "start_time": 46.925,
                "end_time": 47.07954545454545,
                "pitch": 35,
                "velocity": 101,
                "duration": 0.1545454545454561,
                "tempo": 120.0
            },
            {
                "start_time": 47.09772727272727,
                "end_time": 47.24772727272727,
                "pitch": 28,
                "velocity": 101,
                "duration": 0.14999999999999858,
                "tempo": 120.0
            },
            {
                "start_time": 47.28181818181818,
                "end_time": 47.43181818181818,
                "pitch": 28,
                "velocity": 101,
                "duration": 0.14999999999999858,
                "tempo": 120.0
            },
            {
                "start_time": 47.44772727272727,
                "end_time": 47.59772727272727,
                "pitch": 28,
                "velocity": 101,
                "duration": 0.14999999999999858,
                "tempo": 120.0
            },
            {
                "start_time": 47.63181818181818,
                "end_time": 47.78181818181818,
                "pitch": 35,
                "velocity": 101,
                "duration": 0.14999999999999858,
                "tempo": 120.0
            },
            {
                "start_time": 47.81590909090909,
                "end_time": 47.95227272727273,
                "pitch": 28,
                "velocity": 101,
                "duration": 0.13636363636364024,
                "tempo": 120.0
            },
            {
                "start_time": 47.98863636363636,
                "end_time": 48.143181818181816,
                "pitch": 38,
                "velocity": 101,
                "duration": 0.1545454545454561,
                "tempo": 120.0
            },
            {
                "start_time": 48.17727272727272,
                "end_time": 48.31590909090909,
                "pitch": 36,
                "velocity": 101,
                "duration": 0.13863636363636545,
                "tempo": 120.0
            },
            {
                "start_time": 48.349999999999994,
                "end_time": 48.50454545454545,
                "pitch": 35,
                "velocity": 101,
                "duration": 0.1545454545454561,
                "tempo": 120.0
            },
            {
                "start_time": 48.54090909090909,
                "end_time": 48.67272727272727,
                "pitch": 28,
                "velocity": 101,
                "duration": 0.13181818181818272,
                "tempo": 120.0
            },
            {
                "start_time": 48.70681818181818,
                "end_time": 48.85681818181818,
                "pitch": 28,
                "velocity": 101,
                "duration": 0.14999999999999858,
                "tempo": 120.0
            },
            {
                "start_time": 48.89090909090909,
                "end_time": 49.025,
                "pitch": 28,
                "velocity": 101,
                "duration": 0.13409090909090793,
                "tempo": 120.0
            },
            {
                "start_time": 49.059090909090905,
                "end_time": 49.209090909090904,
                "pitch": 35,
                "velocity": 101,
                "duration": 0.14999999999999858,
                "tempo": 120.0
            },
            {
                "start_time": 49.24318181818182,
                "end_time": 49.37272727272727,
                "pitch": 28,
                "velocity": 101,
                "duration": 0.1295454545454504,
                "tempo": 120.0
            },
            {
                "start_time": 49.40454545454545,
                "end_time": 49.55,
                "pitch": 38,
                "velocity": 101,
                "duration": 0.14545454545454817,
                "tempo": 120.0
            },
            {
                "start_time": 49.584090909090904,
                "end_time": 49.720454545454544,
                "pitch": 36,
                "velocity": 101,
                "duration": 0.13636363636364024,
                "tempo": 120.0
            },
            {
                "start_time": 49.75454545454545,
                "end_time": 49.90909090909091,
                "pitch": 35,
                "velocity": 101,
                "duration": 0.1545454545454561,
                "tempo": 120.0
            },
            {
                "start_time": 49.945454545454545,
                "end_time": 50.095454545454544,
                "pitch": 28,
                "velocity": 101,
                "duration": 0.14999999999999858,
                "tempo": 120.0
            },
            {
                "start_time": 50.111363636363635,
                "end_time": 50.26136363636363,
                "pitch": 28,
                "velocity": 101,
                "duration": 0.14999999999999858,
                "tempo": 120.0
            },
            {
                "start_time": 50.29545454545454,
                "end_time": 50.445454545454545,
                "pitch": 28,
                "velocity": 101,
                "duration": 0.15000000000000568,
                "tempo": 120.0
            },
            {
                "start_time": 50.46363636363636,
                "end_time": 50.61363636363636,
                "pitch": 35,
                "velocity": 101,
                "duration": 0.14999999999999858,
                "tempo": 120.0
            },
            {
                "start_time": 50.64772727272727,
                "end_time": 50.79772727272727,
                "pitch": 28,
                "velocity": 101,
                "duration": 0.14999999999999858,
                "tempo": 120.0
            },
            {
                "start_time": 50.81363636363636,
                "end_time": 50.96363636363636,
                "pitch": 38,
                "velocity": 101,
                "duration": 0.14999999999999858,
                "tempo": 120.0
            },
            {
                "start_time": 50.99772727272727,
                "end_time": 51.14772727272727,
                "pitch": 36,
                "velocity": 101,
                "duration": 0.15000000000000568,
                "tempo": 120.0
            },
            {
                "start_time": 51.16590909090909,
                "end_time": 51.31590909090909,
                "pitch": 35,
                "velocity": 101,
                "duration": 0.14999999999999858,
                "tempo": 120.0
            },
            {
                "start_time": 51.35227272727273,
                "end_time": 51.5,
                "pitch": 33,
                "velocity": 101,
                "duration": 0.14772727272727337,
                "tempo": 120.0
            },
            {
                "start_time": 51.518181818181816,
                "end_time": 51.668181818181814,
                "pitch": 33,
                "velocity": 101,
                "duration": 0.14999999999999858,
                "tempo": 120.0
            },
            {
                "start_time": 51.70227272727273,
                "end_time": 51.85227272727273,
                "pitch": 33,
                "velocity": 101,
                "duration": 0.14999999999999858,
                "tempo": 120.0
            },
            {
                "start_time": 51.86818181818182,
                "end_time": 52.018181818181816,
                "pitch": 28,
                "velocity": 101,
                "duration": 0.14999999999999858,
                "tempo": 120.0
            },
            {
                "start_time": 52.05227272727272,
                "end_time": 52.20227272727273,
                "pitch": 33,
                "velocity": 101,
                "duration": 0.15000000000000568,
                "tempo": 120.0
            },
            {
                "start_time": 52.236363636363635,
                "end_time": 52.37045454545454,
                "pitch": 40,
                "velocity": 101,
                "duration": 0.13409090909090793,
                "tempo": 120.0
            },
            {
                "start_time": 52.40454545454545,
                "end_time": 52.554545454545455,
                "pitch": 38,
                "velocity": 101,
                "duration": 0.15000000000000568,
                "tempo": 120.0
            },
            {
                "start_time": 52.58863636363636,
                "end_time": 52.720454545454544,
                "pitch": 36,
                "velocity": 101,
                "duration": 0.13181818181818272,
                "tempo": 120.0
            },
            {
                "start_time": 52.75681818181818,
                "end_time": 52.90909090909091,
                "pitch": 33,
                "velocity": 101,
                "duration": 0.15227272727272378,
                "tempo": 120.0
            },
            {
                "start_time": 52.94318181818181,
                "end_time": 53.08181818181818,
                "pitch": 33,
                "velocity": 101,
                "duration": 0.13863636363636545,
                "tempo": 120.0
            },
            {
                "start_time": 53.115909090909085,
                "end_time": 53.26590909090909,
                "pitch": 33,
                "velocity": 101,
                "duration": 0.15000000000000568,
                "tempo": 120.0
            },
            {
                "start_time": 53.3,
                "end_time": 53.434090909090905,
                "pitch": 28,
                "velocity": 101,
                "duration": 0.13409090909090793,
                "tempo": 120.0
            },
            {
                "start_time": 53.46818181818182,
                "end_time": 53.61818181818182,
                "pitch": 33,
                "velocity": 101,
                "duration": 0.14999999999999858,
                "tempo": 120.0
            },
            {
                "start_time": 53.652272727272724,
                "end_time": 53.78409090909091,
                "pitch": 40,
                "velocity": 101,
                "duration": 0.13181818181818272,
                "tempo": 120.0
            },
            {
                "start_time": 53.820454545454545,
                "end_time": 53.96818181818182,
                "pitch": 38,
                "velocity": 101,
                "duration": 0.14772727272727337,
                "tempo": 120.0
            },
            {
                "start_time": 54.002272727272725,
                "end_time": 54.13636363636363,
                "pitch": 36,
                "velocity": 101,
                "duration": 0.13409090909090793,
                "tempo": 120.0
            },
            {
                "start_time": 54.17272727272727,
                "end_time": 54.320454545454545,
                "pitch": 31,
                "velocity": 101,
                "duration": 0.14772727272727337,
                "tempo": 120.0
            },
            {
                "start_time": 54.35454545454545,
                "end_time": 54.50454545454545,
                "pitch": 31,
                "velocity": 101,
                "duration": 0.14999999999999858,
                "tempo": 120.0
            },
            {
                "start_time": 54.52272727272727,
                "end_time": 54.67272727272727,
                "pitch": 31,
                "velocity": 101,
                "duration": 0.14999999999999858,
                "tempo": 120.0
            },
            {
                "start_time": 54.70681818181818,
                "end_time": 54.85454545454545,
                "pitch": 35,
                "velocity": 101,
                "duration": 0.14772727272727337,
                "tempo": 120.0
            },
            {
                "start_time": 54.87272727272727,
                "end_time": 55.02272727272727,
                "pitch": 31,
                "velocity": 101,
                "duration": 0.15000000000000568,
                "tempo": 120.0
            },
            {
                "start_time": 55.05681818181818,
                "end_time": 55.20681818181818,
                "pitch": 38,
                "velocity": 101,
                "duration": 0.14999999999999858,
                "tempo": 120.0
            },
            {
                "start_time": 55.224999999999994,
                "end_time": 55.375,
                "pitch": 36,
                "velocity": 101,
                "duration": 0.15000000000000568,
                "tempo": 120.0
            },
            {
                "start_time": 55.40909090909091,
                "end_time": 55.559090909090905,
                "pitch": 35,
                "velocity": 101,
                "duration": 0.14999999999999858,
                "tempo": 120.0
            },
            {
                "start_time": 55.574999999999996,
                "end_time": 55.724999999999994,
                "pitch": 31,
                "velocity": 101,
                "duration": 0.14999999999999858,
                "tempo": 120.0
            },
            {
                "start_time": 55.75909090909091,
                "end_time": 55.90909090909091,
                "pitch": 31,
                "velocity": 101,
                "duration": 0.14999999999999858,
                "tempo": 120.0
            },
            {
                "start_time": 55.92727272727272,
                "end_time": 56.07727272727273,
                "pitch": 31,
                "velocity": 101,
                "duration": 0.15000000000000568,
                "tempo": 120.0
            },
            {
                "start_time": 56.111363636363635,
                "end_time": 56.26136363636363,
                "pitch": 35,
                "velocity": 101,
                "duration": 0.14999999999999858,
                "tempo": 120.0
            },
            {
                "start_time": 56.277272727272724,
                "end_time": 56.42727272727272,
                "pitch": 31,
                "velocity": 101,
                "duration": 0.14999999999999858,
                "tempo": 120.0
            },
            {
                "start_time": 56.461363636363636,
                "end_time": 56.611363636363635,
                "pitch": 38,
                "velocity": 101,
                "duration": 0.14999999999999858,
                "tempo": 120.0
            },
            {
                "start_time": 56.64545454545454,
                "end_time": 56.78181818181818,
                "pitch": 36,
                "velocity": 101,
                "duration": 0.13636363636364024,
                "tempo": 120.0
            },
            {
                "start_time": 56.81818181818181,
                "end_time": 56.97272727272727,
                "pitch": 35,
                "velocity": 101,
                "duration": 0.1545454545454561,
                "tempo": 120.0
            },
            {
                "start_time": 57.00909090909091,
                "end_time": 57.14545454545454,
                "pitch": 29,
                "velocity": 101,
                "duration": 0.13636363636363313,
                "tempo": 120.0
            },
            {
                "start_time": 57.179545454545455,
                "end_time": 57.334090909090904,
                "pitch": 29,
                "velocity": 101,
                "duration": 0.154545454545449,
                "tempo": 120.0
            },
            {
                "start_time": 57.37045454545454,
                "end_time": 57.502272727272725,
                "pitch": 29,
                "velocity": 101,
                "duration": 0.13181818181818272,
                "tempo": 120.0
            },
            {
                "start_time": 57.53636363636363,
                "end_time": 57.68636363636363,
                "pitch": 33,
                "velocity": 101,
                "duration": 0.14999999999999858,
                "tempo": 120.0
            },
            {
                "start_time": 57.720454545454544,
                "end_time": 57.85454545454545,
                "pitch": 29,
                "velocity": 101,
                "duration": 0.13409090909090793,
                "tempo": 120.0
            },
            {
                "start_time": 57.88863636363636,
                "end_time": 58.038636363636364,
                "pitch": 33,
                "velocity": 101,
                "duration": 0.15000000000000568,
                "tempo": 120.0
            },
            {
                "start_time": 58.07272727272727,
                "end_time": 58.20454545454545,
                "pitch": 35,
                "velocity": 101,
                "duration": 0.13181818181818272,
                "tempo": 120.0
            },
            {
                "start_time": 58.23863636363636,
                "end_time": 58.38863636363636,
                "pitch": 36,
                "velocity": 101,
                "duration": 0.14999999999999858,
                "tempo": 120.0
            },
            {
                "start_time": 58.42272727272727,
                "end_time": 58.57272727272727,
                "pitch": 29,
                "velocity": 101,
                "duration": 0.14999999999999858,
                "tempo": 120.0
            },
            {
                "start_time": 58.590909090909086,
                "end_time": 58.740909090909085,
                "pitch": 29,
                "velocity": 101,
                "duration": 0.14999999999999858,
                "tempo": 120.0
            },
            {
                "start_time": 58.775,
                "end_time": 58.925,
                "pitch": 29,
                "velocity": 101,
                "duration": 0.14999999999999858,
                "tempo": 120.0
            },
            {
                "start_time": 58.94090909090909,
                "end_time": 59.090909090909086,
                "pitch": 33,
                "velocity": 101,
                "duration": 0.14999999999999858,
                "tempo": 120.0
            },
            {
                "start_time": 59.125,
                "end_time": 59.275,
                "pitch": 29,
                "velocity": 101,
                "duration": 0.14999999999999858,
                "tempo": 120.0
            },
            {
                "start_time": 59.293181818181814,
                "end_time": 59.44318181818181,
                "pitch": 33,
                "velocity": 101,
                "duration": 0.14999999999999858,
                "tempo": 120.0
            },
            {
                "start_time": 59.47727272727273,
                "end_time": 59.627272727272725,
                "pitch": 35,
                "velocity": 101,
                "duration": 0.14999999999999858,
                "tempo": 120.0
            },
            {
                "start_time": 59.64545454545454,
                "end_time": 59.793181818181814,
                "pitch": 36,
                "velocity": 101,
                "duration": 0.14772727272727337,
                "tempo": 120.0
            },
            {
                "start_time": 59.82954545454545,
                "end_time": 59.97727272727273,
                "pitch": 31,
                "velocity": 101,
                "duration": 0.14772727272727337,
                "tempo": 120.0
            },
            {
                "start_time": 59.99545454545454,
                "end_time": 60.14545454545454,
                "pitch": 31,
                "velocity": 101,
                "duration": 0.14999999999999858,
                "tempo": 120.0
            },
            {
                "start_time": 60.179545454545455,
                "end_time": 60.32954545454545,
                "pitch": 31,
                "velocity": 101,
                "duration": 0.14999999999999858,
                "tempo": 120.0
            },
            {
                "start_time": 60.34772727272727,
                "end_time": 60.49545454545454,
                "pitch": 35,
                "velocity": 101,
                "duration": 0.14772727272727337,
                "tempo": 120.0
            },
            {
                "start_time": 60.52954545454545,
                "end_time": 60.679545454545455,
                "pitch": 31,
                "velocity": 101,
                "duration": 0.15000000000000568,
                "tempo": 120.0
            },
            {
                "start_time": 60.71363636363636,
                "end_time": 60.84772727272727,
                "pitch": 38,
                "velocity": 101,
                "duration": 0.13409090909090793,
                "tempo": 120.0
            },
            {
                "start_time": 60.881818181818176,
                "end_time": 61.03181818181818,
                "pitch": 36,
                "velocity": 101,
                "duration": 0.15000000000000568,
                "tempo": 120.0
            },
            {
                "start_time": 61.06590909090909,
                "end_time": 61.199999999999996,
                "pitch": 35,
                "velocity": 101,
                "duration": 0.13409090909090793,
                "tempo": 120.0
            },
            {
                "start_time": 61.23409090909091,
                "end_time": 61.381818181818176,
                "pitch": 31,
                "velocity": 101,
                "duration": 0.14772727272726627,
                "tempo": 120.0
            },
            {
                "start_time": 61.41590909090909,
                "end_time": 61.55,
                "pitch": 31,
                "velocity": 101,
                "duration": 0.13409090909090793,
                "tempo": 120.0
            },
            {
                "start_time": 61.584090909090904,
                "end_time": 61.73409090909091,
                "pitch": 31,
                "velocity": 101,
                "duration": 0.15000000000000568,
                "tempo": 120.0
            },
            {
                "start_time": 61.768181818181816,
                "end_time": 61.902272727272724,
                "pitch": 35,
                "velocity": 101,
                "duration": 0.13409090909090793,
                "tempo": 120.0
            },
            {
                "start_time": 61.93636363636363,
                "end_time": 62.086363636363636,
                "pitch": 31,
                "velocity": 101,
                "duration": 0.15000000000000568,
                "tempo": 120.0
            },
            {
                "start_time": 62.12045454545454,
                "end_time": 62.252272727272725,
                "pitch": 38,
                "velocity": 101,
                "duration": 0.13181818181818272,
                "tempo": 120.0
            },
            {
                "start_time": 62.28636363636363,
                "end_time": 62.43636363636363,
                "pitch": 36,
                "velocity": 101,
                "duration": 0.14999999999999858,
                "tempo": 120.0
            },
            {
                "start_time": 62.470454545454544,
                "end_time": 62.60454545454545,
                "pitch": 35,
                "velocity": 101,
                "duration": 0.13409090909090793,
                "tempo": 120.0
            },
            {
                "start_time": 62.63863636363636,
                "end_time": 62.79090909090909,
                "pitch": 33,
                "velocity": 101,
                "duration": 0.1522727272727309,
                "tempo": 120.0
            },
            {
                "start_time": 62.82727272727272,
                "end_time": 62.98181818181818,
                "pitch": 33,
                "velocity": 101,
                "duration": 0.1545454545454561,
                "tempo": 120.0
            },
            {
                "start_time": 63.0,
                "end_time": 63.14545454545454,
                "pitch": 33,
                "velocity": 101,
                "duration": 0.14545454545454106,
                "tempo": 120.0
            },
            {
                "start_time": 63.17727272727272,
                "end_time": 63.32272727272727,
                "pitch": 28,
                "velocity": 101,
                "duration": 0.14545454545454817,
                "tempo": 120.0
            },
            {
                "start_time": 63.340909090909086,
                "end_time": 63.490909090909085,
                "pitch": 33,
                "velocity": 101,
                "duration": 0.14999999999999858,
                "tempo": 120.0
            },
            {
                "start_time": 63.525,
                "end_time": 63.675,
                "pitch": 40,
                "velocity": 101,
                "duration": 0.14999999999999858,
                "tempo": 120.0
            },
            {
                "start_time": 63.69090909090909,
                "end_time": 63.840909090909086,
                "pitch": 38,
                "velocity": 101,
                "duration": 0.14999999999999858,
                "tempo": 120.0
            },
            {
                "start_time": 63.875,
                "end_time": 64.02499999999999,
                "pitch": 36,
                "velocity": 101,
                "duration": 0.14999999999999147,
                "tempo": 120.0
            },
            {
                "start_time": 64.04318181818182,
                "end_time": 64.19772727272726,
                "pitch": 33,
                "velocity": 101,
                "duration": 0.15454545454544188,
                "tempo": 120.0
            },
            {
                "start_time": 64.23181818181818,
                "end_time": 64.38636363636364,
                "pitch": 33,
                "velocity": 101,
                "duration": 0.1545454545454561,
                "tempo": 120.0
            },
            {
                "start_time": 64.40454545454546,
                "end_time": 64.55454545454545,
                "pitch": 33,
                "velocity": 101,
                "duration": 0.14999999999999147,
                "tempo": 120.0
            },
            {
                "start_time": 64.58863636363635,
                "end_time": 64.73863636363636,
                "pitch": 28,
                "velocity": 101,
                "duration": 0.15000000000000568,
                "tempo": 120.0
            },
            {
                "start_time": 64.75681818181818,
                "end_time": 64.90681818181818,
                "pitch": 33,
                "velocity": 101,
                "duration": 0.15000000000000568,
                "tempo": 120.0
            },
            {
                "start_time": 64.94090909090909,
                "end_time": 65.0909090909091,
                "pitch": 40,
                "velocity": 101,
                "duration": 0.15000000000000568,
                "tempo": 120.0
            },
            {
                "start_time": 65.125,
                "end_time": 65.26136363636364,
                "pitch": 38,
                "velocity": 101,
                "duration": 0.13636363636364024,
                "tempo": 120.0
            },
            {
                "start_time": 65.29545454545455,
                "end_time": 65.45,
                "pitch": 36,
                "velocity": 101,
                "duration": 0.1545454545454561,
                "tempo": 120.0
            },
            {
                "start_time": 65.48636363636363,
                "end_time": 65.62272727272727,
                "pitch": 31,
                "velocity": 101,
                "duration": 0.13636363636364024,
                "tempo": 120.0
            },
            {
                "start_time": 65.6590909090909,
                "end_time": 65.81136363636364,
                "pitch": 31,
                "velocity": 101,
                "duration": 0.1522727272727309,
                "tempo": 120.0
            },
            {
                "start_time": 65.84772727272727,
                "end_time": 65.98181818181818,
                "pitch": 31,
                "velocity": 101,
                "duration": 0.13409090909091503,
                "tempo": 120.0
            },
            {
                "start_time": 66.01590909090909,
                "end_time": 66.16590909090908,
                "pitch": 35,
                "velocity": 101,
                "duration": 0.14999999999999147,
                "tempo": 120.0
            },
            {
                "start_time": 66.2,
                "end_time": 66.33181818181818,
                "pitch": 31,
                "velocity": 101,
                "duration": 0.13181818181817562,
                "tempo": 120.0
            },
            {
                "start_time": 66.36590909090908,
                "end_time": 66.51590909090909,
                "pitch": 38,
                "velocity": 101,
                "duration": 0.15000000000000568,
                "tempo": 120.0
            },
            {
                "start_time": 66.55,
                "end_time": 66.67954545454545,
                "pitch": 36,
                "velocity": 101,
                "duration": 0.1295454545454504,
                "tempo": 120.0
            },
            {
                "start_time": 66.71363636363635,
                "end_time": 66.85909090909091,
                "pitch": 35,
                "velocity": 101,
                "duration": 0.14545454545455527,
                "tempo": 120.0
            },
            {
                "start_time": 66.89090909090909,
                "end_time": 67.02727272727273,
                "pitch": 31,
                "velocity": 101,
                "duration": 0.13636363636364024,
                "tempo": 120.0
            },
            {
                "start_time": 67.06363636363636,
                "end_time": 67.21818181818182,
                "pitch": 31,
                "velocity": 101,
                "duration": 0.1545454545454561,
                "tempo": 120.0
            },
            {
                "start_time": 67.25227272727273,
                "end_time": 67.40227272727273,
                "pitch": 31,
                "velocity": 101,
                "duration": 0.15000000000000568,
                "tempo": 120.0
            },
            {
                "start_time": 67.42045454545455,
                "end_time": 67.57045454545454,
                "pitch": 35,
                "velocity": 101,
                "duration": 0.14999999999999147,
                "tempo": 120.0
            },
            {
                "start_time": 67.60454545454544,
                "end_time": 67.75454545454545,
                "pitch": 31,
                "velocity": 101,
                "duration": 0.15000000000000568,
                "tempo": 120.0
            },
            {
                "start_time": 67.77045454545454,
                "end_time": 67.92045454545455,
                "pitch": 38,
                "velocity": 101,
                "duration": 0.15000000000000568,
                "tempo": 120.0
            },
            {
                "start_time": 67.95454545454545,
                "end_time": 68.10454545454544,
                "pitch": 36,
                "velocity": 101,
                "duration": 0.14999999999999147,
                "tempo": 120.0
            },
            {
                "start_time": 68.12272727272727,
                "end_time": 68.27272727272727,
                "pitch": 35,
                "velocity": 101,
                "duration": 0.14999999999999147,
                "tempo": 120.0
            },
            {
                "start_time": 68.30909090909091,
                "end_time": 68.45681818181818,
                "pitch": 29,
                "velocity": 101,
                "duration": 0.14772727272726627,
                "tempo": 120.0
            },
            {
                "start_time": 68.475,
                "end_time": 68.62272727272727,
                "pitch": 29,
                "velocity": 101,
                "duration": 0.14772727272728048,
                "tempo": 120.0
            },
            {
                "start_time": 68.65681818181818,
                "end_time": 68.80681818181817,
                "pitch": 29,
                "velocity": 101,
                "duration": 0.14999999999999147,
                "tempo": 120.0
            },
            {
                "start_time": 68.825,
                "end_time": 68.975,
                "pitch": 33,
                "velocity": 101,
                "duration": 0.14999999999999147,
                "tempo": 120.0
            },
            {
                "start_time": 69.0090909090909,
                "end_time": 69.1590909090909,
                "pitch": 29,
                "velocity": 101,
                "duration": 0.15000000000000568,
                "tempo": 120.0
            },
            {
                "start_time": 69.17727272727272,
                "end_time": 69.32727272727273,
                "pitch": 33,
                "velocity": 101,
                "duration": 0.15000000000000568,
                "tempo": 120.0
            },
            {
                "start_time": 69.36136363636363,
                "end_time": 69.5090909090909,
                "pitch": 35,
                "velocity": 101,
                "duration": 0.14772727272726627,
                "tempo": 120.0
            },
            {
                "start_time": 69.54545454545455,
                "end_time": 69.67727272727272,
                "pitch": 36,
                "velocity": 101,
                "duration": 0.13181818181817562,
                "tempo": 120.0
            },
            {
                "start_time": 69.71136363636363,
                "end_time": 69.86136363636363,
                "pitch": 29,
                "velocity": 101,
                "duration": 0.15000000000000568,
                "tempo": 120.0
            },
            {
                "start_time": 69.89545454545454,
                "end_time": 70.02954545454546,
                "pitch": 29,
                "velocity": 101,
                "duration": 0.13409090909091503,
                "tempo": 120.0
            },
            {
                "start_time": 70.06363636363636,
                "end_time": 70.21363636363635,
                "pitch": 29,
                "velocity": 101,
                "duration": 0.14999999999999147,
                "tempo": 120.0
            },
            {
                "start_time": 70.24772727272727,
                "end_time": 70.37954545454545,
                "pitch": 33,
                "velocity": 101,
                "duration": 0.13181818181817562,
                "tempo": 120.0
            },
            {
                "start_time": 70.41363636363636,
                "end_time": 70.56363636363636,
                "pitch": 29,
                "velocity": 101,
                "duration": 0.15000000000000568,
                "tempo": 120.0
            },
            {
                "start_time": 70.59772727272727,
                "end_time": 70.73181818181818,
                "pitch": 33,
                "velocity": 101,
                "duration": 0.13409090909091503,
                "tempo": 120.0
            },
            {
                "start_time": 70.76590909090909,
                "end_time": 70.91590909090908,
                "pitch": 35,
                "velocity": 101,
                "duration": 0.14999999999999147,
                "tempo": 120.0
            },
            {
                "start_time": 70.95,
                "end_time": 71.08181818181818,
                "pitch": 36,
                "velocity": 101,
                "duration": 0.13181818181817562,
                "tempo": 120.0
            },
            {
                "start_time": 71.11818181818181,
                "end_time": 71.26590909090909,
                "pitch": 31,
                "velocity": 101,
                "duration": 0.14772727272728048,
                "tempo": 120.0
            },
            {
                "start_time": 71.3,
                "end_time": 71.45,
                "pitch": 31,
                "velocity": 101,
                "duration": 0.15000000000000568,
                "tempo": 120.0
            },
            {
                "start_time": 71.46818181818182,
                "end_time": 71.61818181818181,
                "pitch": 31,
                "velocity": 101,
                "duration": 0.14999999999999147,
                "tempo": 120.0
            },
            {
                "start_time": 71.65227272727273,
                "end_time": 71.80227272727272,
                "pitch": 35,
                "velocity": 101,
                "duration": 0.14999999999999147,
                "tempo": 120.0
            },
            {
                "start_time": 71.81818181818181,
                "end_time": 71.96818181818182,
                "pitch": 31,
                "velocity": 101,
                "duration": 0.15000000000000568,
                "tempo": 120.0
            },
            {
                "start_time": 72.00227272727273,
                "end_time": 72.15227272727272,
                "pitch": 38,
                "velocity": 101,
                "duration": 0.14999999999999147,
                "tempo": 120.0
            },
            {
                "start_time": 72.17045454545455,
                "end_time": 72.32045454545454,
                "pitch": 36,
                "velocity": 101,
                "duration": 0.14999999999999147,
                "tempo": 120.0
            },
            {
                "start_time": 72.35454545454544,
                "end_time": 72.50454545454545,
                "pitch": 35,
                "velocity": 101,
                "duration": 0.15000000000000568,
                "tempo": 120.0
            },
            {
                "start_time": 72.52272727272727,
                "end_time": 72.67045454545455,
                "pitch": 31,
                "velocity": 101,
                "duration": 0.14772727272728048,
                "tempo": 120.0
            },
            {
                "start_time": 72.70454545454545,
                "end_time": 72.85454545454544,
                "pitch": 31,
                "velocity": 101,
                "duration": 0.14999999999999147,
                "tempo": 120.0
            },
            {
                "start_time": 72.87272727272727,
                "end_time": 73.02272727272727,
                "pitch": 31,
                "velocity": 101,
                "duration": 0.14999999999999147,
                "tempo": 120.0
            },
            {
                "start_time": 73.05681818181817,
                "end_time": 73.20681818181818,
                "pitch": 35,
                "velocity": 101,
                "duration": 0.15000000000000568,
                "tempo": 120.0
            },
            {
                "start_time": 73.22272727272727,
                "end_time": 73.37727272727273,
                "pitch": 31,
                "velocity": 101,
                "duration": 0.1545454545454561,
                "tempo": 120.0
            },
            {
                "start_time": 73.41363636363636,
                "end_time": 73.56818181818181,
                "pitch": 38,
                "velocity": 101,
                "duration": 0.1545454545454561,
                "tempo": 120.0
            },
            {
                "start_time": 73.60227272727272,
                "end_time": 73.73863636363636,
                "pitch": 36,
                "velocity": 101,
                "duration": 0.13636363636364024,
                "tempo": 120.0
            },
            {
                "start_time": 73.77499999999999,
                "end_time": 73.92954545454545,
                "pitch": 35,
                "velocity": 101,
                "duration": 0.1545454545454561,
                "tempo": 120.0
            },
            {
                "start_time": 73.9659090909091,
                "end_time": 74.09772727272727,
                "pitch": 33,
                "velocity": 101,
                "duration": 0.13181818181817562,
                "tempo": 120.0
            },
            {
                "start_time": 74.13181818181818,
                "end_time": 74.28181818181818,
                "pitch": 33,
                "velocity": 101,
                "duration": 0.15000000000000568,
                "tempo": 120.0
            },
            {
                "start_time": 74.31590909090909,
                "end_time": 74.44772727272726,
                "pitch": 33,
                "velocity": 101,
                "duration": 0.13181818181817562,
                "tempo": 120.0
            },
            {
                "start_time": 74.48181818181818,
                "end_time": 74.63181818181818,
                "pitch": 28,
                "velocity": 101,
                "duration": 0.14999999999999147,
                "tempo": 120.0
            },
            {
                "start_time": 74.66590909090908,
                "end_time": 74.8,
                "pitch": 33,
                "velocity": 101,
                "duration": 0.13409090909091503,
                "tempo": 120.0
            },
            {
                "start_time": 74.8340909090909,
                "end_time": 74.98409090909091,
                "pitch": 40,
                "velocity": 101,
                "duration": 0.15000000000000568,
                "tempo": 120.0
            },
            {
                "start_time": 75.01818181818182,
                "end_time": 75.14999999999999,
                "pitch": 38,
                "velocity": 101,
                "duration": 0.13181818181817562,
                "tempo": 120.0
            },
            {
                "start_time": 75.18409090909091,
                "end_time": 75.3340909090909,
                "pitch": 36,
                "velocity": 101,
                "duration": 0.14999999999999147,
                "tempo": 120.0
            },
            {
                "start_time": 75.37045454545454,
                "end_time": 75.50227272727273,
                "pitch": 33,
                "velocity": 101,
                "duration": 0.13181818181818983,
                "tempo": 120.0
            },
            {
                "start_time": 75.53636363636363,
                "end_time": 75.68636363636364,
                "pitch": 33,
                "velocity": 101,
                "duration": 0.15000000000000568,
                "tempo": 120.0
            },
            {
                "start_time": 75.72045454545454,
                "end_time": 75.87045454545454,
                "pitch": 33,
                "velocity": 101,
                "duration": 0.14999999999999147,
                "tempo": 120.0
            },
            {
                "start_time": 75.88863636363637,
                "end_time": 76.03636363636363,
                "pitch": 28,
                "velocity": 101,
                "duration": 0.14772727272726627,
                "tempo": 120.0
            },
            {
                "start_time": 76.07272727272726,
                "end_time": 76.22045454545454,
                "pitch": 33,
                "velocity": 101,
                "duration": 0.14772727272728048,
                "tempo": 120.0
            },
            {
                "start_time": 76.23863636363636,
                "end_time": 76.38863636363637,
                "pitch": 40,
                "velocity": 101,
                "duration": 0.15000000000000568,
                "tempo": 120.0
            },
            {
                "start_time": 76.42272727272727,
                "end_time": 76.57272727272726,
                "pitch": 38,
                "velocity": 101,
                "duration": 0.14999999999999147,
                "tempo": 120.0
            },
            {
                "start_time": 76.5909090909091,
                "end_time": 76.74090909090908,
                "pitch": 36,
                "velocity": 101,
                "duration": 0.14999999999999147,
                "tempo": 120.0
            },
            {
                "start_time": 76.77499999999999,
                "end_time": 76.92727272727272,
                "pitch": 33,
                "velocity": 101,
                "duration": 0.1522727272727309,
                "tempo": 120.0
            },
            {
                "start_time": 76.94545454545454,
                "end_time": 77.1,
                "pitch": 33,
                "velocity": 101,
                "duration": 0.1545454545454561,
                "tempo": 120.0
            },
            {
                "start_time": 77.13636363636363,
                "end_time": 77.28181818181818,
                "pitch": 33,
                "velocity": 101,
                "duration": 0.14545454545455527,
                "tempo": 120.0
            },
            {
                "start_time": 77.29772727272727,
                "end_time": 77.44318181818181,
                "pitch": 28,
                "velocity": 101,
                "duration": 0.14545454545454106,
                "tempo": 120.0
            },
            {
                "start_time": 77.47727272727272,
                "end_time": 77.62954545454545,
                "pitch": 33,
                "velocity": 101,
                "duration": 0.1522727272727309,
                "tempo": 120.0
            },
            {
                "start_time": 77.64772727272727,
                "end_time": 77.80227272727272,
                "pitch": 40,
                "velocity": 101,
                "duration": 0.1545454545454561,
                "tempo": 120.0
            },
            {
                "start_time": 77.83863636363635,
                "end_time": 77.98863636363636,
                "pitch": 38,
                "velocity": 101,
                "duration": 0.15000000000000568,
                "tempo": 120.0
            },
            {
                "start_time": 78.02272727272727,
                "end_time": 78.15454545454546,
                "pitch": 36,
                "velocity": 101,
                "duration": 0.13181818181818983,
                "tempo": 120.0
            },
            {
                "start_time": 78.19090909090909,
                "end_time": 78.33863636363635,
                "pitch": 33,
                "velocity": 101,
                "duration": 0.14772727272726627,
                "tempo": 120.0
            },
            {
                "start_time": 78.37272727272727,
                "end_time": 78.50681818181818,
                "pitch": 33,
                "velocity": 101,
                "duration": 0.13409090909090082,
                "tempo": 120.0
            },
            {
                "start_time": 78.54090909090908,
                "end_time": 78.69090909090909,
                "pitch": 33,
                "velocity": 101,
                "duration": 0.15000000000000568,
                "tempo": 120.0
            },
            {
                "start_time": 78.725,
                "end_time": 78.85681818181818,
                "pitch": 28,
                "velocity": 101,
                "duration": 0.13181818181818983,
                "tempo": 120.0
            },
            {
                "start_time": 78.89318181818182,
                "end_time": 79.04090909090908,
                "pitch": 33,
                "velocity": 101,
                "duration": 0.14772727272726627,
                "tempo": 120.0
            },
            {
                "start_time": 79.075,
                "end_time": 79.2090909090909,
                "pitch": 40,
                "velocity": 101,
                "duration": 0.13409090909090082,
                "tempo": 120.0
            },
            {
                "start_time": 79.24318181818181,
                "end_time": 79.39318181818182,
                "pitch": 38,
                "velocity": 101,
                "duration": 0.15000000000000568,
                "tempo": 120.0
            },
            {
                "start_time": 79.42727272727272,
                "end_time": 79.55909090909091,
                "pitch": 36,
                "velocity": 101,
                "duration": 0.13181818181818983,
                "tempo": 120.0
            },
            {
                "start_time": 79.59772727272727,
                "end_time": 79.67954545454545,
                "pitch": 33,
                "velocity": 101,
                "duration": 0.08181818181817846,
                "tempo": 120.0
            }
        ]
    }
}