{
    "track_id": "10 GAMP Mission",
    "mood": "angry",
    "instruments": {
        "Lead 2 (sawtooth)": [
            {
                "start_time": 0.0,
                "end_time": 0.1340909090909091,
                "pitch": 57,
                "velocity": 127,
                "duration": 0.1340909090909091,
                "tempo": 120.0
            },
            {
                "start_time": 0.1340909090909091,
                "end_time": 0.2659090909090909,
                "pitch": 64,
                "velocity": 127,
                "duration": 0.13181818181818178,
                "tempo": 120.0
            },
            {
                "start_time": 0.2659090909090909,
                "end_time": 0.39999999999999997,
                "pitch": 66,
                "velocity": 127,
                "duration": 0.1340909090909091,
                "tempo": 120.0
            },
            {
                "start_time": 0.39999999999999997,
                "end_time": 0.5340909090909091,
                "pitch": 67,
                "velocity": 127,
                "duration": 0.1340909090909091,
                "tempo": 120.0
            },
            {
                "start_time": 0.5340909090909091,
                "end_time": 0.6681818181818181,
                "pitch": 66,
                "velocity": 127,
                "duration": 0.13409090909090904,
                "tempo": 120.0
            },
            {
                "start_time": 0.2659090909090909,
                "end_time": 0.7999999999999999,
                "pitch": 64,
                "velocity": 127,
                "duration": 0.5340909090909091,
                "tempo": 120.0
            },
            {
                "start_time": 0.6681818181818181,
                "end_time": 0.7999999999999999,
                "pitch": 64,
                "velocity": 127,
                "duration": 0.13181818181818183,
                "tempo": 120.0
            },
            {
                "start_time": 0.1340909090909091,
                "end_time": 0.9340909090909091,
                "pitch": 59,
                "velocity": 127,
                "duration": 0.8,
                "tempo": 120.0
            },
            {
                "start_time": 0.7999999999999999,
                "end_time": 0.9340909090909091,
                "pitch": 59,
                "velocity": 127,
                "duration": 0.13409090909090915,
                "tempo": 120.0
            },
            {
                "start_time": 0.7999999999999999,
                "end_time": 1.0681818181818181,
                "pitch": 64,
                "velocity": 127,
                "duration": 0.2681818181818182,
                "tempo": 120.0
            },
            {
                "start_time": 0.9340909090909091,
                "end_time": 1.0681818181818181,
                "pitch": 64,
                "velocity": 127,
                "duration": 0.13409090909090904,
                "tempo": 120.0
            },
            {
                "start_time": 0.6681818181818181,
                "end_time": 1.2022727272727272,
                "pitch": 66,
                "velocity": 127,
                "duration": 0.5340909090909091,
                "tempo": 120.0
            },
            {
                "start_time": 1.0681818181818181,
                "end_time": 1.2022727272727272,
                "pitch": 66,
                "velocity": 127,
                "duration": 0.13409090909090904,
                "tempo": 120.0
            },
            {
                "start_time": 0.39999999999999997,
                "end_time": 1.2022727272727272,
                "pitch": 78,
                "velocity": 127,
                "duration": 0.8022727272727272,
                "tempo": 120.0
            },
            {
                "start_time": 0.5340909090909091,
                "end_time": 1.334090909090909,
                "pitch": 55,
                "velocity": 127,
                "duration": 0.7999999999999999,
                "tempo": 120.0
            },
            {
                "start_time": 1.2022727272727272,
                "end_time": 1.334090909090909,
                "pitch": 67,
                "velocity": 127,
                "duration": 0.13181818181818183,
                "tempo": 120.0
            },
            {
                "start_time": 1.334090909090909,
                "end_time": 1.468181818181818,
                "pitch": 66,
                "velocity": 127,
                "duration": 0.13409090909090904,
                "tempo": 120.0
            },
            {
                "start_time": 1.0681818181818181,
                "end_time": 1.6022727272727273,
                "pitch": 64,
                "velocity": 127,
                "duration": 0.5340909090909092,
                "tempo": 120.0
            },
            {
                "start_time": 1.468181818181818,
                "end_time": 1.6022727272727273,
                "pitch": 64,
                "velocity": 127,
                "duration": 0.13409090909090926,
                "tempo": 120.0
            },
            {
                "start_time": 0.9340909090909091,
                "end_time": 1.7363636363636363,
                "pitch": 59,
                "velocity": 127,
                "duration": 0.8022727272727272,
                "tempo": 120.0
            },
            {
                "start_time": 1.6022727272727273,
                "end_time": 1.7363636363636363,
                "pitch": 59,
                "velocity": 127,
                "duration": 0.13409090909090904,
                "tempo": 120.0
            },
            {
                "start_time": 1.6022727272727273,
                "end_time": 1.8681818181818182,
                "pitch": 64,
                "velocity": 127,
                "duration": 0.2659090909090909,
                "tempo": 120.0
            },
            {
                "start_time": 1.7363636363636363,
                "end_time": 1.8681818181818182,
                "pitch": 64,
                "velocity": 127,
                "duration": 0.13181818181818183,
                "tempo": 120.0
            },
            {
                "start_time": 1.468181818181818,
                "end_time": 2.002272727272727,
                "pitch": 66,
                "velocity": 127,
                "duration": 0.534090909090909,
                "tempo": 120.0
            },
            {
                "start_time": 1.8681818181818182,
                "end_time": 2.002272727272727,
                "pitch": 66,
                "velocity": 127,
                "duration": 0.13409090909090882,
                "tempo": 120.0
            },
            {
                "start_time": 1.2022727272727272,
                "end_time": 2.002272727272727,
                "pitch": 78,
                "velocity": 127,
                "duration": 0.7999999999999998,
                "tempo": 120.0
            },
            {
                "start_time": 1.334090909090909,
                "end_time": 2.1363636363636362,
                "pitch": 55,
                "velocity": 127,
                "duration": 0.8022727272727272,
                "tempo": 120.0
            },
            {
                "start_time": 2.002272727272727,
                "end_time": 2.1363636363636362,
                "pitch": 67,
                "velocity": 127,
                "duration": 0.13409090909090926,
                "tempo": 120.0
            },
            {
                "start_time": 2.1363636363636362,
                "end_time": 2.2704545454545455,
                "pitch": 66,
                "velocity": 127,
                "duration": 0.13409090909090926,
                "tempo": 120.0
            },
            {
                "start_time": 1.8681818181818182,
                "end_time": 2.4022727272727273,
                "pitch": 64,
                "velocity": 127,
                "duration": 0.5340909090909092,
                "tempo": 120.0
            },
            {
                "start_time": 2.2704545454545455,
                "end_time": 2.4022727272727273,
                "pitch": 64,
                "velocity": 127,
                "duration": 0.13181818181818183,
                "tempo": 120.0
            },
            {
                "start_time": 1.7363636363636363,
                "end_time": 2.536363636363636,
                "pitch": 59,
                "velocity": 127,
                "duration": 0.7999999999999998,
                "tempo": 120.0
            },
            {
                "start_time": 2.4022727272727273,
                "end_time": 2.536363636363636,
                "pitch": 59,
                "velocity": 127,
                "duration": 0.13409090909090882,
                "tempo": 120.0
            },
            {
                "start_time": 2.4022727272727273,
                "end_time": 2.6704545454545454,
                "pitch": 64,
                "velocity": 127,
                "duration": 0.2681818181818181,
                "tempo": 120.0
            },
            {
                "start_time": 2.536363636363636,
                "end_time": 2.6704545454545454,
                "pitch": 64,
                "velocity": 127,
                "duration": 0.13409090909090926,
                "tempo": 120.0
            },
            {
                "start_time": 2.2704545454545455,
                "end_time": 2.8045454545454542,
                "pitch": 66,
                "velocity": 127,
                "duration": 0.5340909090909087,
                "tempo": 120.0
            },
            {
                "start_time": 2.6704545454545454,
                "end_time": 2.8045454545454542,
                "pitch": 66,
                "velocity": 127,
                "duration": 0.13409090909090882,
                "tempo": 120.0
            },
            {
                "start_time": 2.002272727272727,
                "end_time": 2.8045454545454542,
                "pitch": 78,
                "velocity": 127,
                "duration": 0.8022727272727272,
                "tempo": 120.0
            },
            {
                "start_time": 2.1363636363636362,
                "end_time": 2.9386363636363635,
                "pitch": 55,
                "velocity": 127,
                "duration": 0.8022727272727272,
                "tempo": 120.0
            },
            {
                "start_time": 2.8045454545454542,
                "end_time": 2.9386363636363635,
                "pitch": 67,
                "velocity": 127,
                "duration": 0.13409090909090926,
                "tempo": 120.0
            },
            {
                "start_time": 2.9386363636363635,
                "end_time": 3.0727272727272728,
                "pitch": 66,
                "velocity": 127,
                "duration": 0.13409090909090926,
                "tempo": 120.0
            },
            {
                "start_time": 2.6704545454545454,
                "end_time": 3.209090909090909,
                "pitch": 64,
                "velocity": 127,
                "duration": 0.5386363636363636,
                "tempo": 120.0
            },
            {
                "start_time": 3.0727272727272728,
                "end_time": 3.209090909090909,
                "pitch": 64,
                "velocity": 127,
                "duration": 0.13636363636363624,
                "tempo": 120.0
            },
            {
                "start_time": 2.536363636363636,
                "end_time": 3.3477272727272727,
                "pitch": 59,
                "velocity": 127,
                "duration": 0.8113636363636365,
                "tempo": 120.0
            },
            {
                "start_time": 3.209090909090909,
                "end_time": 3.3477272727272727,
                "pitch": 59,
                "velocity": 127,
                "duration": 0.13863636363636367,
                "tempo": 120.0
            },
            {
                "start_time": 3.209090909090909,
                "end_time": 3.484090909090909,
                "pitch": 64,
                "velocity": 127,
                "duration": 0.2749999999999999,
                "tempo": 120.0
            },
            {
                "start_time": 3.3477272727272727,
                "end_time": 3.484090909090909,
                "pitch": 64,
                "velocity": 127,
                "duration": 0.13636363636363624,
                "tempo": 120.0
            },
            {
                "start_time": 3.0727272727272728,
                "end_time": 3.6159090909090907,
                "pitch": 66,
                "velocity": 127,
                "duration": 0.543181818181818,
                "tempo": 120.0
            },
            {
                "start_time": 3.484090909090909,
                "end_time": 3.6159090909090907,
                "pitch": 66,
                "velocity": 127,
                "duration": 0.13181818181818183,
                "tempo": 120.0
            },
            {
                "start_time": 2.8045454545454542,
                "end_time": 3.6159090909090907,
                "pitch": 78,
                "velocity": 127,
                "duration": 0.8113636363636365,
                "tempo": 120.0
            },
            {
                "start_time": 2.9386363636363635,
                "end_time": 3.745454545454545,
                "pitch": 55,
                "velocity": 127,
                "duration": 0.8068181818181817,
                "tempo": 120.0
            },
            {
                "start_time": 3.6159090909090907,
                "end_time": 3.745454545454545,
                "pitch": 67,
                "velocity": 127,
                "duration": 0.1295454545454544,
                "tempo": 120.0
            },
            {
                "start_time": 3.745454545454545,
                "end_time": 3.877272727272727,
                "pitch": 66,
                "velocity": 127,
                "duration": 0.13181818181818183,
                "tempo": 120.0
            },
            {
                "start_time": 3.484090909090909,
                "end_time": 4.013636363636364,
                "pitch": 64,
                "velocity": 127,
                "duration": 0.5295454545454548,
                "tempo": 120.0
            },
            {
                "start_time": 3.877272727272727,
                "end_time": 4.013636363636364,
                "pitch": 64,
                "velocity": 127,
                "duration": 0.1363636363636367,
                "tempo": 120.0
            },
            {
                "start_time": 3.3477272727272727,
                "end_time": 4.1499999999999995,
                "pitch": 59,
                "velocity": 127,
                "duration": 0.8022727272727268,
                "tempo": 120.0
            },
            {
                "start_time": 4.013636363636364,
                "end_time": 4.1499999999999995,
                "pitch": 59,
                "velocity": 127,
                "duration": 0.1363636363636358,
                "tempo": 120.0
            },
            {
                "start_time": 4.013636363636364,
                "end_time": 4.288636363636363,
                "pitch": 64,
                "velocity": 127,
                "duration": 0.27499999999999947,
                "tempo": 120.0
            },
            {
                "start_time": 4.1499999999999995,
                "end_time": 4.288636363636363,
                "pitch": 64,
                "velocity": 127,
                "duration": 0.13863636363636367,
                "tempo": 120.0
            },
            {
                "start_time": 3.877272727272727,
                "end_time": 4.422727272727273,
                "pitch": 66,
                "velocity": 127,
                "duration": 0.5454545454545459,
                "tempo": 120.0
            },
            {
                "start_time": 4.288636363636363,
                "end_time": 4.422727272727273,
                "pitch": 66,
                "velocity": 127,
                "duration": 0.1340909090909097,
                "tempo": 120.0
            },
            {
                "start_time": 3.6159090909090907,
                "end_time": 4.422727272727273,
                "pitch": 78,
                "velocity": 127,
                "duration": 0.8068181818181821,
                "tempo": 120.0
            },
            {
                "start_time": 3.745454545454545,
                "end_time": 4.554545454545455,
                "pitch": 55,
                "velocity": 127,
                "duration": 0.8090909090909095,
                "tempo": 120.0
            },
            {
                "start_time": 4.422727272727273,
                "end_time": 4.554545454545455,
                "pitch": 67,
                "velocity": 127,
                "duration": 0.13181818181818183,
                "tempo": 120.0
            },
            {
                "start_time": 4.554545454545455,
                "end_time": 4.6886363636363635,
                "pitch": 66,
                "velocity": 127,
                "duration": 0.13409090909090882,
                "tempo": 120.0
            },
            {
                "start_time": 4.288636363636363,
                "end_time": 4.822727272727272,
                "pitch": 64,
                "velocity": 127,
                "duration": 0.5340909090909092,
                "tempo": 120.0
            },
            {
                "start_time": 4.6886363636363635,
                "end_time": 4.822727272727272,
                "pitch": 64,
                "velocity": 127,
                "duration": 0.13409090909090882,
                "tempo": 120.0
            },
            {
                "start_time": 4.1499999999999995,
                "end_time": 4.956818181818182,
                "pitch": 59,
                "velocity": 127,
                "duration": 0.8068181818181825,
                "tempo": 120.0
            },
            {
                "start_time": 4.822727272727272,
                "end_time": 4.956818181818182,
                "pitch": 59,
                "velocity": 127,
                "duration": 0.1340909090909097,
                "tempo": 120.0
            },
            {
                "start_time": 4.822727272727272,
                "end_time": 5.090909090909091,
                "pitch": 64,
                "velocity": 127,
                "duration": 0.2681818181818185,
                "tempo": 120.0
            },
            {
                "start_time": 4.956818181818182,
                "end_time": 5.090909090909091,
                "pitch": 64,
                "velocity": 127,
                "duration": 0.13409090909090882,
                "tempo": 120.0
            },
            {
                "start_time": 4.6886363636363635,
                "end_time": 5.225,
                "pitch": 66,
                "velocity": 127,
                "duration": 0.5363636363636362,
                "tempo": 120.0
            },
            {
                "start_time": 5.090909090909091,
                "end_time": 5.225,
                "pitch": 66,
                "velocity": 127,
                "duration": 0.13409090909090882,
                "tempo": 120.0
            },
            {
                "start_time": 4.422727272727273,
                "end_time": 5.225,
                "pitch": 78,
                "velocity": 127,
                "duration": 0.8022727272727268,
                "tempo": 120.0
            },
            {
                "start_time": 4.554545454545455,
                "end_time": 5.3590909090909085,
                "pitch": 55,
                "velocity": 127,
                "duration": 0.8045454545454538,
                "tempo": 120.0
            },
            {
                "start_time": 5.225,
                "end_time": 5.3590909090909085,
                "pitch": 67,
                "velocity": 127,
                "duration": 0.13409090909090882,
                "tempo": 120.0
            },
            {
                "start_time": 5.3590909090909085,
                "end_time": 5.493181818181818,
                "pitch": 66,
                "velocity": 127,
                "duration": 0.1340909090909097,
                "tempo": 120.0
            },
            {
                "start_time": 5.090909090909091,
                "end_time": 5.627272727272727,
                "pitch": 64,
                "velocity": 127,
                "duration": 0.5363636363636362,
                "tempo": 120.0
            },
            {
                "start_time": 5.493181818181818,
                "end_time": 5.627272727272727,
                "pitch": 64,
                "velocity": 127,
                "duration": 0.13409090909090882,
                "tempo": 120.0
            },
            {
                "start_time": 4.956818181818182,
                "end_time": 5.761363636363636,
                "pitch": 59,
                "velocity": 127,
                "duration": 0.8045454545454538,
                "tempo": 120.0
            },
            {
                "start_time": 5.627272727272727,
                "end_time": 5.761363636363636,
                "pitch": 59,
                "velocity": 127,
                "duration": 0.13409090909090882,
                "tempo": 120.0
            },
            {
                "start_time": 5.627272727272727,
                "end_time": 5.8954545454545455,
                "pitch": 64,
                "velocity": 127,
                "duration": 0.2681818181818185,
                "tempo": 120.0
            },
            {
                "start_time": 5.761363636363636,
                "end_time": 5.8954545454545455,
                "pitch": 64,
                "velocity": 127,
                "duration": 0.1340909090909097,
                "tempo": 120.0
            },
            {
                "start_time": 5.493181818181818,
                "end_time": 6.029545454545454,
                "pitch": 66,
                "velocity": 127,
                "duration": 0.5363636363636362,
                "tempo": 120.0
            },
            {
                "start_time": 5.8954545454545455,
                "end_time": 6.029545454545454,
                "pitch": 66,
                "velocity": 127,
                "duration": 0.13409090909090882,
                "tempo": 120.0
            },
            {
                "start_time": 5.225,
                "end_time": 6.029545454545454,
                "pitch": 78,
                "velocity": 127,
                "duration": 0.8045454545454547,
                "tempo": 120.0
            },
            {
                "start_time": 5.3590909090909085,
                "end_time": 6.163636363636363,
                "pitch": 55,
                "velocity": 127,
                "duration": 0.8045454545454547,
                "tempo": 120.0
            },
            {
                "start_time": 6.029545454545454,
                "end_time": 6.163636363636363,
                "pitch": 67,
                "velocity": 127,
                "duration": 0.13409090909090882,
                "tempo": 120.0
            },
            {
                "start_time": 6.163636363636363,
                "end_time": 6.295454545454545,
                "pitch": 66,
                "velocity": 127,
                "duration": 0.13181818181818183,
                "tempo": 120.0
            },
            {
                "start_time": 5.8954545454545455,
                "end_time": 6.431818181818182,
                "pitch": 64,
                "velocity": 127,
                "duration": 0.5363636363636362,
                "tempo": 120.0
            },
            {
                "start_time": 6.295454545454545,
                "end_time": 6.431818181818182,
                "pitch": 64,
                "velocity": 127,
                "duration": 0.1363636363636367,
                "tempo": 120.0
            },
            {
                "start_time": 6.431818181818182,
                "end_time": 6.5659090909090905,
                "pitch": 57,
                "velocity": 127,
                "duration": 0.13409090909090882,
                "tempo": 120.0
            },
            {
                "start_time": 6.5659090909090905,
                "end_time": 6.699999999999999,
                "pitch": 62,
                "velocity": 127,
                "duration": 0.13409090909090882,
                "tempo": 120.0
            },
            {
                "start_time": 6.431818181818182,
                "end_time": 6.834090909090909,
                "pitch": 64,
                "velocity": 127,
                "duration": 0.40227272727272734,
                "tempo": 120.0
            },
            {
                "start_time": 6.699999999999999,
                "end_time": 6.834090909090909,
                "pitch": 64,
                "velocity": 127,
                "duration": 0.1340909090909097,
                "tempo": 120.0
            },
            {
                "start_time": 6.834090909090909,
                "end_time": 6.968181818181818,
                "pitch": 64,
                "velocity": 127,
                "duration": 0.13409090909090882,
                "tempo": 120.0
            },
            {
                "start_time": 6.968181818181818,
                "end_time": 7.102272727272727,
                "pitch": 65,
                "velocity": 127,
                "duration": 0.13409090909090882,
                "tempo": 120.0
            },
            {
                "start_time": 6.699999999999999,
                "end_time": 7.236363636363636,
                "pitch": 62,
                "velocity": 127,
                "duration": 0.536363636363637,
                "tempo": 120.0
            },
            {
                "start_time": 7.102272727272727,
                "end_time": 7.236363636363636,
                "pitch": 62,
                "velocity": 127,
                "duration": 0.1340909090909097,
                "tempo": 120.0
            },
            {
                "start_time": 6.5659090909090905,
                "end_time": 7.370454545454545,
                "pitch": 57,
                "velocity": 127,
                "duration": 0.8045454545454547,
                "tempo": 120.0
            },
            {
                "start_time": 7.236363636363636,
                "end_time": 7.370454545454545,
                "pitch": 57,
                "velocity": 127,
                "duration": 0.13409090909090882,
                "tempo": 120.0
            },
            {
                "start_time": 7.236363636363636,
                "end_time": 7.502272727272727,
                "pitch": 62,
                "velocity": 127,
                "duration": 0.26590909090909065,
                "tempo": 120.0
            },
            {
                "start_time": 7.370454545454545,
                "end_time": 7.502272727272727,
                "pitch": 62,
                "velocity": 127,
                "duration": 0.13181818181818183,
                "tempo": 120.0
            },
            {
                "start_time": 7.102272727272727,
                "end_time": 7.636363636363636,
                "pitch": 64,
                "velocity": 127,
                "duration": 0.5340909090909092,
                "tempo": 120.0
            },
            {
                "start_time": 7.502272727272727,
                "end_time": 7.636363636363636,
                "pitch": 64,
                "velocity": 127,
                "duration": 0.13409090909090882,
                "tempo": 120.0
            },
            {
                "start_time": 7.636363636363636,
                "end_time": 7.7727272727272725,
                "pitch": 64,
                "velocity": 127,
                "duration": 0.1363636363636367,
                "tempo": 120.0
            },
            {
                "start_time": 7.7727272727272725,
                "end_time": 7.906818181818181,
                "pitch": 65,
                "velocity": 127,
                "duration": 0.13409090909090882,
                "tempo": 120.0
            },
            {
                "start_time": 7.502272727272727,
                "end_time": 8.040909090909091,
                "pitch": 62,
                "velocity": 127,
                "duration": 0.538636363636364,
                "tempo": 120.0
            },
            {
                "start_time": 7.906818181818181,
                "end_time": 8.040909090909091,
                "pitch": 62,
                "velocity": 127,
                "duration": 0.1340909090909097,
                "tempo": 120.0
            },
            {
                "start_time": 7.370454545454545,
                "end_time": 8.172727272727272,
                "pitch": 57,
                "velocity": 127,
                "duration": 0.8022727272727268,
                "tempo": 120.0
            },
            {
                "start_time": 8.040909090909091,
                "end_time": 8.172727272727272,
                "pitch": 57,
                "velocity": 127,
                "duration": 0.13181818181818095,
                "tempo": 120.0
            },
            {
                "start_time": 8.040909090909091,
                "end_time": 8.306818181818182,
                "pitch": 62,
                "velocity": 127,
                "duration": 0.26590909090909065,
                "tempo": 120.0
            },
            {
                "start_time": 8.172727272727272,
                "end_time": 8.306818181818182,
                "pitch": 62,
                "velocity": 127,
                "duration": 0.1340909090909097,
                "tempo": 120.0
            },
            {
                "start_time": 7.906818181818181,
                "end_time": 8.440909090909091,
                "pitch": 64,
                "velocity": 127,
                "duration": 0.5340909090909101,
                "tempo": 120.0
            },
            {
                "start_time": 8.306818181818182,
                "end_time": 8.440909090909091,
                "pitch": 64,
                "velocity": 127,
                "duration": 0.1340909090909097,
                "tempo": 120.0
            },
            {
                "start_time": 8.440909090909091,
                "end_time": 8.575,
                "pitch": 64,
                "velocity": 127,
                "duration": 0.13409090909090793,
                "tempo": 120.0
            },
            {
                "start_time": 8.575,
                "end_time": 8.706818181818182,
                "pitch": 65,
                "velocity": 127,
                "duration": 0.13181818181818272,
                "tempo": 120.0
            },
            {
                "start_time": 8.306818181818182,
                "end_time": 8.84090909090909,
                "pitch": 62,
                "velocity": 127,
                "duration": 0.5340909090909083,
                "tempo": 120.0
            },
            {
                "start_time": 8.706818181818182,
                "end_time": 8.84090909090909,
                "pitch": 62,
                "velocity": 127,
                "duration": 0.13409090909090793,
                "tempo": 120.0
            },
            {
                "start_time": 8.172727272727272,
                "end_time": 8.975,
                "pitch": 57,
                "velocity": 127,
                "duration": 0.8022727272727277,
                "tempo": 120.0
            },
            {
                "start_time": 8.84090909090909,
                "end_time": 8.975,
                "pitch": 57,
                "velocity": 127,
                "duration": 0.1340909090909097,
                "tempo": 120.0
            },
            {
                "start_time": 8.975,
                "end_time": 8.977272727272727,
                "pitch": 57,
                "velocity": 127,
                "duration": 0.002272727272726982,
                "tempo": 120.0
            },
            {
                "start_time": 8.84090909090909,
                "end_time": 9.111363636363636,
                "pitch": 62,
                "velocity": 127,
                "duration": 0.2704545454545464,
                "tempo": 120.0
            },
            {
                "start_time": 8.977272727272727,
                "end_time": 9.111363636363636,
                "pitch": 62,
                "velocity": 127,
                "duration": 0.1340909090909097,
                "tempo": 120.0
            },
            {
                "start_time": 8.706818181818182,
                "end_time": 9.245454545454544,
                "pitch": 64,
                "velocity": 127,
                "duration": 0.5386363636363622,
                "tempo": 120.0
            },
            {
                "start_time": 9.111363636363636,
                "end_time": 9.245454545454544,
                "pitch": 64,
                "velocity": 127,
                "duration": 0.13409090909090793,
                "tempo": 120.0
            },
            {
                "start_time": 9.245454545454544,
                "end_time": 9.379545454545454,
                "pitch": 64,
                "velocity": 127,
                "duration": 0.1340909090909097,
                "tempo": 120.0
            },
            {
                "start_time": 9.379545454545454,
                "end_time": 9.513636363636364,
                "pitch": 65,
                "velocity": 127,
                "duration": 0.1340909090909097,
                "tempo": 120.0
            },
            {
                "start_time": 9.111363636363636,
                "end_time": 9.65,
                "pitch": 62,
                "velocity": 127,
                "duration": 0.538636363636364,
                "tempo": 120.0
            },
            {
                "start_time": 9.513636363636364,
                "end_time": 9.65,
                "pitch": 62,
                "velocity": 127,
                "duration": 0.1363636363636367,
                "tempo": 120.0
            },
            {
                "start_time": 9.65,
                "end_time": 9.788636363636364,
                "pitch": 57,
                "velocity": 127,
                "duration": 0.13863636363636367,
                "tempo": 120.0
            },
            {
                "start_time": 9.65,
                "end_time": 9.924999999999999,
                "pitch": 62,
                "velocity": 127,
                "duration": 0.2749999999999986,
                "tempo": 120.0
            },
            {
                "start_time": 9.788636363636364,
                "end_time": 9.924999999999999,
                "pitch": 62,
                "velocity": 127,
                "duration": 0.1363636363636349,
                "tempo": 120.0
            },
            {
                "start_time": 9.513636363636364,
                "end_time": 10.056818181818182,
                "pitch": 64,
                "velocity": 127,
                "duration": 0.543181818181818,
                "tempo": 120.0
            },
            {
                "start_time": 9.924999999999999,
                "end_time": 10.056818181818182,
                "pitch": 64,
                "velocity": 127,
                "duration": 0.13181818181818272,
                "tempo": 120.0
            },
            {
                "start_time": 10.056818181818182,
                "end_time": 10.186363636363636,
                "pitch": 64,
                "velocity": 127,
                "duration": 0.12954545454545396,
                "tempo": 120.0
            },
            {
                "start_time": 10.186363636363636,
                "end_time": 10.318181818181818,
                "pitch": 65,
                "velocity": 127,
                "duration": 0.13181818181818272,
                "tempo": 120.0
            },
            {
                "start_time": 9.924999999999999,
                "end_time": 10.452272727272726,
                "pitch": 62,
                "velocity": 127,
                "duration": 0.5272727272727273,
                "tempo": 120.0
            },
            {
                "start_time": 10.318181818181818,
                "end_time": 10.452272727272726,
                "pitch": 62,
                "velocity": 127,
                "duration": 0.13409090909090793,
                "tempo": 120.0
            },
            {
                "start_time": 9.788636363636364,
                "end_time": 10.584090909090909,
                "pitch": 57,
                "velocity": 127,
                "duration": 0.795454545454545,
                "tempo": 120.0
            },
            {
                "start_time": 10.452272727272726,
                "end_time": 10.584090909090909,
                "pitch": 57,
                "velocity": 127,
                "duration": 0.13181818181818272,
                "tempo": 120.0
            },
            {
                "start_time": 10.452272727272726,
                "end_time": 10.718181818181817,
                "pitch": 62,
                "velocity": 127,
                "duration": 0.26590909090909065,
                "tempo": 120.0
            },
            {
                "start_time": 10.584090909090909,
                "end_time": 10.718181818181817,
                "pitch": 62,
                "velocity": 127,
                "duration": 0.13409090909090793,
                "tempo": 120.0
            },
            {
                "start_time": 10.318181818181818,
                "end_time": 10.852272727272727,
                "pitch": 64,
                "velocity": 127,
                "duration": 0.5340909090909083,
                "tempo": 120.0
            },
            {
                "start_time": 10.718181818181817,
                "end_time": 10.852272727272727,
                "pitch": 64,
                "velocity": 127,
                "duration": 0.1340909090909097,
                "tempo": 120.0
            },
            {
                "start_time": 10.852272727272727,
                "end_time": 10.986363636363636,
                "pitch": 64,
                "velocity": 127,
                "duration": 0.1340909090909097,
                "tempo": 120.0
            },
            {
                "start_time": 10.986363636363636,
                "end_time": 11.120454545454544,
                "pitch": 65,
                "velocity": 127,
                "duration": 0.13409090909090793,
                "tempo": 120.0
            },
            {
                "start_time": 10.718181818181817,
                "end_time": 11.259090909090908,
                "pitch": 62,
                "velocity": 127,
                "duration": 0.540909090909091,
                "tempo": 120.0
            },
            {
                "start_time": 11.120454545454544,
                "end_time": 11.259090909090908,
                "pitch": 62,
                "velocity": 127,
                "duration": 0.13863636363636367,
                "tempo": 120.0
            },
            {
                "start_time": 10.584090909090909,
                "end_time": 11.395454545454545,
                "pitch": 57,
                "velocity": 127,
                "duration": 0.8113636363636356,
                "tempo": 120.0
            },
            {
                "start_time": 11.259090909090908,
                "end_time": 11.395454545454545,
                "pitch": 57,
                "velocity": 127,
                "duration": 0.1363636363636367,
                "tempo": 120.0
            },
            {
                "start_time": 11.259090909090908,
                "end_time": 11.531818181818181,
                "pitch": 62,
                "velocity": 127,
                "duration": 0.2727272727272734,
                "tempo": 120.0
            },
            {
                "start_time": 11.395454545454545,
                "end_time": 11.531818181818181,
                "pitch": 62,
                "velocity": 127,
                "duration": 0.1363636363636367,
                "tempo": 120.0
            },
            {
                "start_time": 11.120454545454544,
                "end_time": 11.663636363636362,
                "pitch": 64,
                "velocity": 127,
                "duration": 0.543181818181818,
                "tempo": 120.0
            },
            {
                "start_time": 11.531818181818181,
                "end_time": 11.663636363636362,
                "pitch": 64,
                "velocity": 127,
                "duration": 0.13181818181818095,
                "tempo": 120.0
            },
            {
                "start_time": 11.663636363636362,
                "end_time": 11.795454545454545,
                "pitch": 64,
                "velocity": 127,
                "duration": 0.13181818181818272,
                "tempo": 120.0
            },
            {
                "start_time": 11.795454545454545,
                "end_time": 11.924999999999999,
                "pitch": 65,
                "velocity": 127,
                "duration": 0.12954545454545396,
                "tempo": 120.0
            },
            {
                "start_time": 11.531818181818181,
                "end_time": 12.059090909090909,
                "pitch": 62,
                "velocity": 127,
                "duration": 0.5272727272727273,
                "tempo": 120.0
            },
            {
                "start_time": 11.924999999999999,
                "end_time": 12.059090909090909,
                "pitch": 62,
                "velocity": 127,
                "duration": 0.1340909090909097,
                "tempo": 120.0
            },
            {
                "start_time": 11.395454545454545,
                "end_time": 12.193181818181818,
                "pitch": 57,
                "velocity": 127,
                "duration": 0.7977272727272737,
                "tempo": 120.0
            },
            {
                "start_time": 12.059090909090909,
                "end_time": 12.193181818181818,
                "pitch": 57,
                "velocity": 127,
                "duration": 0.1340909090909097,
                "tempo": 120.0
            },
            {
                "start_time": 12.059090909090909,
                "end_time": 12.329545454545453,
                "pitch": 62,
                "velocity": 127,
                "duration": 0.2704545454545446,
                "tempo": 120.0
            },
            {
                "start_time": 12.193181818181818,
                "end_time": 12.329545454545453,
                "pitch": 62,
                "velocity": 127,
                "duration": 0.1363636363636349,
                "tempo": 120.0
            },
            {
                "start_time": 11.924999999999999,
                "end_time": 12.46590909090909,
                "pitch": 64,
                "velocity": 127,
                "duration": 0.540909090909091,
                "tempo": 120.0
            },
            {
                "start_time": 12.329545454545453,
                "end_time": 12.46590909090909,
                "pitch": 64,
                "velocity": 127,
                "duration": 0.1363636363636367,
                "tempo": 120.0
            },
            {
                "start_time": 12.46590909090909,
                "end_time": 12.602272727272727,
                "pitch": 64,
                "velocity": 127,
                "duration": 0.1363636363636367,
                "tempo": 120.0
            },
            {
                "start_time": 12.602272727272727,
                "end_time": 12.738636363636363,
                "pitch": 65,
                "velocity": 127,
                "duration": 0.1363636363636367,
                "tempo": 120.0
            },
            {
                "start_time": 12.329545454545453,
                "end_time": 12.875,
                "pitch": 62,
                "velocity": 127,
                "duration": 0.5454545454545467,
                "tempo": 120.0
            },
            {
                "start_time": 12.738636363636363,
                "end_time": 12.875,
                "pitch": 62,
                "velocity": 127,
                "duration": 0.1363636363636367,
                "tempo": 120.0
            },
            {
                "start_time": 5.761363636363636,
                "end_time": 13.006818181818181,
                "pitch": 59,
                "velocity": 127,
                "duration": 7.245454545454545,
                "tempo": 120.0
            },
            {
                "start_time": 12.875,
                "end_time": 13.006818181818181,
                "pitch": 59,
                "velocity": 127,
                "duration": 0.13181818181818095,
                "tempo": 120.0
            },
            {
                "start_time": 12.738636363636363,
                "end_time": 13.056818181818182,
                "pitch": 64,
                "velocity": 127,
                "duration": 0.31818181818181834,
                "tempo": 120.0
            },
            {
                "start_time": 13.006818181818181,
                "end_time": 13.056818181818182,
                "pitch": 64,
                "velocity": 127,
                "duration": 0.05000000000000071,
                "tempo": 120.0
            }
        ],
        "Acoustic Bass": [
            {
                "start_time": 0.0,
                "end_time": 0.1340909090909091,
                "pitch": 40,
                "velocity": 127,
                "duration": 0.1340909090909091,
                "tempo": 120.0
            },
            {
                "start_time": 0.1340909090909091,
                "end_time": 0.2659090909090909,
                "pitch": 64,
                "velocity": 127,
                "duration": 0.13181818181818178,
                "tempo": 120.0
            },
            {
                "start_time": 0.2659090909090909,
                "end_time": 0.39999999999999997,
                "pitch": 40,
                "velocity": 127,
                "duration": 0.1340909090909091,
                "tempo": 120.0
            },
            {
                "start_time": 0.39999999999999997,
                "end_time": 0.5340909090909091,
                "pitch": 40,
                "velocity": 127,
                "duration": 0.1340909090909091,
                "tempo": 120.0
            },
            {
                "start_time": 0.5340909090909091,
                "end_time": 0.6681818181818181,
                "pitch": 52,
                "velocity": 127,
                "duration": 0.13409090909090904,
                "tempo": 120.0
            },
            {
                "start_time": 0.6681818181818181,
                "end_time": 0.7999999999999999,
                "pitch": 40,
                "velocity": 127,
                "duration": 0.13181818181818183,
                "tempo": 120.0
            },
            {
                "start_time": 0.7999999999999999,
                "end_time": 0.9340909090909091,
                "pitch": 40,
                "velocity": 127,
                "duration": 0.13409090909090915,
                "tempo": 120.0
            },
            {
                "start_time": 0.9340909090909091,
                "end_time": 1.0681818181818181,
                "pitch": 52,
                "velocity": 127,
                "duration": 0.13409090909090904,
                "tempo": 120.0
            },
            {
                "start_time": 1.0681818181818181,
                "end_time": 1.2022727272727272,
                "pitch": 40,
                "velocity": 127,
                "duration": 0.13409090909090904,
                "tempo": 120.0
            },
            {
                "start_time": 1.2022727272727272,
                "end_time": 1.334090909090909,
                "pitch": 40,
                "velocity": 127,
                "duration": 0.13181818181818183,
                "tempo": 120.0
            },
            {
                "start_time": 1.334090909090909,
                "end_time": 1.468181818181818,
                "pitch": 52,
                "velocity": 127,
                "duration": 0.13409090909090904,
                "tempo": 120.0
            },
            {
                "start_time": 1.468181818181818,
                "end_time": 1.6022727272727273,
                "pitch": 40,
                "velocity": 127,
                "duration": 0.13409090909090926,
                "tempo": 120.0
            },
            {
                "start_time": 1.6022727272727273,
                "end_time": 1.7363636363636363,
                "pitch": 40,
                "velocity": 127,
                "duration": 0.13409090909090904,
                "tempo": 120.0
            },
            {
                "start_time": 1.7363636363636363,
                "end_time": 1.8681818181818182,
                "pitch": 64,
                "velocity": 127,
                "duration": 0.13181818181818183,
                "tempo": 120.0
            },
            {
                "start_time": 1.8681818181818182,
                "end_time": 2.002272727272727,
                "pitch": 40,
                "velocity": 127,
                "duration": 0.13409090909090882,
                "tempo": 120.0
            },
            {
                "start_time": 2.002272727272727,
                "end_time": 2.1363636363636362,
                "pitch": 40,
                "velocity": 127,
                "duration": 0.13409090909090926,
                "tempo": 120.0
            },
            {
                "start_time": 2.1363636363636362,
                "end_time": 2.2704545454545455,
                "pitch": 52,
                "velocity": 127,
                "duration": 0.13409090909090926,
                "tempo": 120.0
            },
            {
                "start_time": 2.2704545454545455,
                "end_time": 2.4022727272727273,
                "pitch": 40,
                "velocity": 127,
                "duration": 0.13181818181818183,
                "tempo": 120.0
            },
            {
                "start_time": 2.4022727272727273,
                "end_time": 2.536363636363636,
                "pitch": 40,
                "velocity": 127,
                "duration": 0.13409090909090882,
                "tempo": 120.0
            },
            {
                "start_time": 2.536363636363636,
                "end_time": 2.6704545454545454,
                "pitch": 52,
                "velocity": 127,
                "duration": 0.13409090909090926,
                "tempo": 120.0
            },
            {
                "start_time": 2.6704545454545454,
                "end_time": 2.8045454545454542,
                "pitch": 40,
                "velocity": 127,
                "duration": 0.13409090909090882,
                "tempo": 120.0
            },
            {
                "start_time": 2.8045454545454542,
                "end_time": 2.9386363636363635,
                "pitch": 40,
                "velocity": 127,
                "duration": 0.13409090909090926,
                "tempo": 120.0
            },
            {
                "start_time": 2.9386363636363635,
                "end_time": 3.0727272727272728,
                "pitch": 52,
                "velocity": 127,
                "duration": 0.13409090909090926,
                "tempo": 120.0
            },
            {
                "start_time": 3.0727272727272728,
                "end_time": 3.2113636363636364,
                "pitch": 40,
                "velocity": 127,
                "duration": 0.13863636363636367,
                "tempo": 120.0
            },
            {
                "start_time": 3.2113636363636364,
                "end_time": 3.3477272727272727,
                "pitch": 40,
                "velocity": 127,
                "duration": 0.13636363636363624,
                "tempo": 120.0
            },
            {
                "start_time": 3.3477272727272727,
                "end_time": 3.484090909090909,
                "pitch": 64,
                "velocity": 127,
                "duration": 0.13636363636363624,
                "tempo": 120.0
            },
            {
                "start_time": 3.484090909090909,
                "end_time": 3.6159090909090907,
                "pitch": 40,
                "velocity": 127,
                "duration": 0.13181818181818183,
                "tempo": 120.0
            },
            {
                "start_time": 3.6159090909090907,
                "end_time": 3.745454545454545,
                "pitch": 40,
                "velocity": 127,
                "duration": 0.1295454545454544,
                "tempo": 120.0
            },
            {
                "start_time": 3.745454545454545,
                "end_time": 3.877272727272727,
                "pitch": 52,
                "velocity": 127,
                "duration": 0.13181818181818183,
                "tempo": 120.0
            },
            {
                "start_time": 3.877272727272727,
                "end_time": 4.013636363636364,
                "pitch": 40,
                "velocity": 127,
                "duration": 0.1363636363636367,
                "tempo": 120.0
            },
            {
                "start_time": 4.013636363636364,
                "end_time": 4.1499999999999995,
                "pitch": 40,
                "velocity": 127,
                "duration": 0.1363636363636358,
                "tempo": 120.0
            },
            {
                "start_time": 4.1499999999999995,
                "end_time": 4.288636363636363,
                "pitch": 52,
                "velocity": 127,
                "duration": 0.13863636363636367,
                "tempo": 120.0
            },
            {
                "start_time": 4.288636363636363,
                "end_time": 4.422727272727273,
                "pitch": 40,
                "velocity": 127,
                "duration": 0.1340909090909097,
                "tempo": 120.0
            },
            {
                "start_time": 4.422727272727273,
                "end_time": 4.554545454545455,
                "pitch": 40,
                "velocity": 127,
                "duration": 0.13181818181818183,
                "tempo": 120.0
            },
            {
                "start_time": 4.554545454545455,
                "end_time": 4.6886363636363635,
                "pitch": 52,
                "velocity": 127,
                "duration": 0.13409090909090882,
                "tempo": 120.0
            },
            {
                "start_time": 4.6886363636363635,
                "end_time": 4.822727272727272,
                "pitch": 40,
                "velocity": 127,
                "duration": 0.13409090909090882,
                "tempo": 120.0
            },
            {
                "start_time": 4.822727272727272,
                "end_time": 4.956818181818182,
                "pitch": 40,
                "velocity": 127,
                "duration": 0.1340909090909097,
                "tempo": 120.0
            },
            {
                "start_time": 4.956818181818182,
                "end_time": 5.090909090909091,
                "pitch": 64,
                "velocity": 127,
                "duration": 0.13409090909090882,
                "tempo": 120.0
            },
            {
                "start_time": 5.093181818181818,
                "end_time": 5.225,
                "pitch": 40,
                "velocity": 127,
                "duration": 0.13181818181818183,
                "tempo": 120.0
            },
            {
                "start_time": 5.225,
                "end_time": 5.3590909090909085,
                "pitch": 40,
                "velocity": 127,
                "duration": 0.13409090909090882,
                "tempo": 120.0
            },
            {
                "start_time": 5.3590909090909085,
                "end_time": 5.493181818181818,
                "pitch": 52,
                "velocity": 127,
                "duration": 0.1340909090909097,
                "tempo": 120.0
            },
            {
                "start_time": 5.493181818181818,
                "end_time": 5.627272727272727,
                "pitch": 40,
                "velocity": 127,
                "duration": 0.13409090909090882,
                "tempo": 120.0
            },
            {
                "start_time": 5.627272727272727,
                "end_time": 5.761363636363636,
                "pitch": 40,
                "velocity": 127,
                "duration": 0.13409090909090882,
                "tempo": 120.0
            },
            {
                "start_time": 5.761363636363636,
                "end_time": 5.8954545454545455,
                "pitch": 52,
                "velocity": 127,
                "duration": 0.1340909090909097,
                "tempo": 120.0
            },
            {
                "start_time": 5.8954545454545455,
                "end_time": 6.029545454545454,
                "pitch": 40,
                "velocity": 127,
                "duration": 0.13409090909090882,
                "tempo": 120.0
            },
            {
                "start_time": 6.029545454545454,
                "end_time": 6.163636363636363,
                "pitch": 40,
                "velocity": 127,
                "duration": 0.13409090909090882,
                "tempo": 120.0
            },
            {
                "start_time": 6.163636363636363,
                "end_time": 6.295454545454545,
                "pitch": 52,
                "velocity": 127,
                "duration": 0.13181818181818183,
                "tempo": 120.0
            },
            {
                "start_time": 6.295454545454545,
                "end_time": 6.431818181818182,
                "pitch": 40,
                "velocity": 127,
                "duration": 0.1363636363636367,
                "tempo": 120.0
            },
            {
                "start_time": 6.431818181818182,
                "end_time": 6.5659090909090905,
                "pitch": 38,
                "velocity": 127,
                "duration": 0.13409090909090882,
                "tempo": 120.0
            },
            {
                "start_time": 6.5659090909090905,
                "end_time": 6.699999999999999,
                "pitch": 62,
                "velocity": 127,
                "duration": 0.13409090909090882,
                "tempo": 120.0
            },
            {
                "start_time": 6.699999999999999,
                "end_time": 6.834090909090909,
                "pitch": 38,
                "velocity": 127,
                "duration": 0.1340909090909097,
                "tempo": 120.0
            },
            {
                "start_time": 6.834090909090909,
                "end_time": 6.968181818181818,
                "pitch": 38,
                "velocity": 127,
                "duration": 0.13409090909090882,
                "tempo": 120.0
            },
            {
                "start_time": 6.968181818181818,
                "end_time": 7.102272727272727,
                "pitch": 50,
                "velocity": 127,
                "duration": 0.13409090909090882,
                "tempo": 120.0
            },
            {
                "start_time": 7.102272727272727,
                "end_time": 7.236363636363636,
                "pitch": 38,
                "velocity": 127,
                "duration": 0.1340909090909097,
                "tempo": 120.0
            },
            {
                "start_time": 7.236363636363636,
                "end_time": 7.370454545454545,
                "pitch": 38,
                "velocity": 127,
                "duration": 0.13409090909090882,
                "tempo": 120.0
            },
            {
                "start_time": 7.370454545454545,
                "end_time": 7.502272727272727,
                "pitch": 50,
                "velocity": 127,
                "duration": 0.13181818181818183,
                "tempo": 120.0
            },
            {
                "start_time": 7.502272727272727,
                "end_time": 7.638636363636364,
                "pitch": 38,
                "velocity": 127,
                "duration": 0.1363636363636367,
                "tempo": 120.0
            },
            {
                "start_time": 7.638636363636364,
                "end_time": 7.7727272727272725,
                "pitch": 38,
                "velocity": 127,
                "duration": 0.13409090909090882,
                "tempo": 120.0
            },
            {
                "start_time": 7.7727272727272725,
                "end_time": 7.906818181818181,
                "pitch": 50,
                "velocity": 127,
                "duration": 0.13409090909090882,
                "tempo": 120.0
            },
            {
                "start_time": 7.906818181818181,
                "end_time": 8.040909090909091,
                "pitch": 38,
                "velocity": 127,
                "duration": 0.1340909090909097,
                "tempo": 120.0
            },
            {
                "start_time": 8.040909090909091,
                "end_time": 8.172727272727272,
                "pitch": 38,
                "velocity": 127,
                "duration": 0.13181818181818095,
                "tempo": 120.0
            },
            {
                "start_time": 8.172727272727272,
                "end_time": 8.306818181818182,
                "pitch": 62,
                "velocity": 127,
                "duration": 0.1340909090909097,
                "tempo": 120.0
            },
            {
                "start_time": 8.306818181818182,
                "end_time": 8.440909090909091,
                "pitch": 38,
                "velocity": 127,
                "duration": 0.1340909090909097,
                "tempo": 120.0
            },
            {
                "start_time": 8.440909090909091,
                "end_time": 8.575,
                "pitch": 38,
                "velocity": 127,
                "duration": 0.13409090909090793,
                "tempo": 120.0
            },
            {
                "start_time": 8.575,
                "end_time": 8.706818181818182,
                "pitch": 50,
                "velocity": 127,
                "duration": 0.13181818181818272,
                "tempo": 120.0
            },
            {
                "start_time": 8.706818181818182,
                "end_time": 8.84090909090909,
                "pitch": 38,
                "velocity": 127,
                "duration": 0.13409090909090793,
                "tempo": 120.0
            },
            {
                "start_time": 8.84090909090909,
                "end_time": 8.977272727272727,
                "pitch": 38,
                "velocity": 127,
                "duration": 0.1363636363636367,
                "tempo": 120.0
            },
            {
                "start_time": 8.977272727272727,
                "end_time": 9.111363636363636,
                "pitch": 50,
                "velocity": 127,
                "duration": 0.1340909090909097,
                "tempo": 120.0
            },
            {
                "start_time": 9.111363636363636,
                "end_time": 9.245454545454544,
                "pitch": 38,
                "velocity": 127,
                "duration": 0.13409090909090793,
                "tempo": 120.0
            },
            {
                "start_time": 9.245454545454544,
                "end_time": 9.379545454545454,
                "pitch": 38,
                "velocity": 127,
                "duration": 0.1340909090909097,
                "tempo": 120.0
            },
            {
                "start_time": 9.379545454545454,
                "end_time": 9.513636363636364,
                "pitch": 50,
                "velocity": 127,
                "duration": 0.1340909090909097,
                "tempo": 120.0
            },
            {
                "start_time": 9.513636363636364,
                "end_time": 9.65,
                "pitch": 38,
                "velocity": 127,
                "duration": 0.1363636363636367,
                "tempo": 120.0
            },
            {
                "start_time": 9.65,
                "end_time": 9.788636363636364,
                "pitch": 38,
                "velocity": 127,
                "duration": 0.13863636363636367,
                "tempo": 120.0
            },
            {
                "start_time": 9.788636363636364,
                "end_time": 9.924999999999999,
                "pitch": 62,
                "velocity": 127,
                "duration": 0.1363636363636349,
                "tempo": 120.0
            },
            {
                "start_time": 9.924999999999999,
                "end_time": 10.056818181818182,
                "pitch": 38,
                "velocity": 127,
                "duration": 0.13181818181818272,
                "tempo": 120.0
            },
            {
                "start_time": 10.056818181818182,
                "end_time": 10.186363636363636,
                "pitch": 38,
                "velocity": 127,
                "duration": 0.12954545454545396,
                "tempo": 120.0
            },
            {
                "start_time": 10.186363636363636,
                "end_time": 10.318181818181818,
                "pitch": 50,
                "velocity": 127,
                "duration": 0.13181818181818272,
                "tempo": 120.0
            },
            {
                "start_time": 10.318181818181818,
                "end_time": 10.452272727272726,
                "pitch": 38,
                "velocity": 127,
                "duration": 0.13409090909090793,
                "tempo": 120.0
            },
            {
                "start_time": 10.452272727272726,
                "end_time": 10.584090909090909,
                "pitch": 38,
                "velocity": 127,
                "duration": 0.13181818181818272,
                "tempo": 120.0
            },
            {
                "start_time": 10.584090909090909,
                "end_time": 10.718181818181817,
                "pitch": 50,
                "velocity": 127,
                "duration": 0.13409090909090793,
                "tempo": 120.0
            },
            {
                "start_time": 10.718181818181817,
                "end_time": 10.852272727272727,
                "pitch": 38,
                "velocity": 127,
                "duration": 0.1340909090909097,
                "tempo": 120.0
            },
            {
                "start_time": 10.852272727272727,
                "end_time": 10.986363636363636,
                "pitch": 38,
                "velocity": 127,
                "duration": 0.1340909090909097,
                "tempo": 120.0
            },
            {
                "start_time": 10.986363636363636,
                "end_time": 11.120454545454544,
                "pitch": 50,
                "velocity": 127,
                "duration": 0.13409090909090793,
                "tempo": 120.0
            },
            {
                "start_time": 11.120454545454544,
                "end_time": 11.259090909090908,
                "pitch": 38,
                "velocity": 127,
                "duration": 0.13863636363636367,
                "tempo": 120.0
            },
            {
                "start_time": 11.259090909090908,
                "end_time": 11.395454545454545,
                "pitch": 38,
                "velocity": 127,
                "duration": 0.1363636363636367,
                "tempo": 120.0
            },
            {
                "start_time": 11.395454545454545,
                "end_time": 11.531818181818181,
                "pitch": 62,
                "velocity": 127,
                "duration": 0.1363636363636367,
                "tempo": 120.0
            },
            {
                "start_time": 11.531818181818181,
                "end_time": 11.663636363636362,
                "pitch": 38,
                "velocity": 127,
                "duration": 0.13181818181818095,
                "tempo": 120.0
            },
            {
                "start_time": 11.663636363636362,
                "end_time": 11.795454545454545,
                "pitch": 38,
                "velocity": 127,
                "duration": 0.13181818181818272,
                "tempo": 120.0
            },
            {
                "start_time": 11.795454545454545,
                "end_time": 11.924999999999999,
                "pitch": 50,
                "velocity": 127,
                "duration": 0.12954545454545396,
                "tempo": 120.0
            },
            {
                "start_time": 11.924999999999999,
                "end_time": 12.059090909090909,
                "pitch": 38,
                "velocity": 127,
                "duration": 0.1340909090909097,
                "tempo": 120.0
            },
            {
                "start_time": 12.059090909090909,
                "end_time": 12.193181818181818,
                "pitch": 38,
                "velocity": 127,
                "duration": 0.1340909090909097,
                "tempo": 120.0
            },
            {
                "start_time": 12.193181818181818,
                "end_time": 12.329545454545453,
                "pitch": 50,
                "velocity": 127,
                "duration": 0.1363636363636349,
                "tempo": 120.0
            },
            {
                "start_time": 12.329545454545453,
                "end_time": 12.46590909090909,
                "pitch": 38,
                "velocity": 127,
                "duration": 0.1363636363636367,
                "tempo": 120.0
            },
            {
                "start_time": 12.46590909090909,
                "end_time": 12.602272727272727,
                "pitch": 38,
                "velocity": 127,
                "duration": 0.1363636363636367,
                "tempo": 120.0
            },
            {
                "start_time": 12.602272727272727,
                "end_time": 12.74090909090909,
                "pitch": 50,
                "velocity": 127,
                "duration": 0.13863636363636367,
                "tempo": 120.0
            },
            {
                "start_time": 12.74090909090909,
                "end_time": 12.875,
                "pitch": 38,
                "velocity": 127,
                "duration": 0.1340909090909097,
                "tempo": 120.0
            },
            {
                "start_time": 6.431818181818182,
                "end_time": 13.006818181818181,
                "pitch": 40,
                "velocity": 127,
                "duration": 6.574999999999999,
                "tempo": 120.0
            },
            {
                "start_time": 12.875,
                "end_time": 13.006818181818181,
                "pitch": 40,
                "velocity": 127,
                "duration": 0.13181818181818095,
                "tempo": 120.0
            },
            {
                "start_time": 13.006818181818181,
                "end_time": 13.056818181818182,
                "pitch": 64,
                "velocity": 127,
                "duration": 0.05000000000000071,
                "tempo": 120.0
            }
        ]
    }
}