{
    "track_id": "10 Stage-4",
    "mood": "angry",
    "instruments": {
        "Lead 2 (sawtooth)": [
            {
                "start_time": 0.125,
                "end_time": 0.4204545454545454,
                "pitch": 69,
                "velocity": 64,
                "duration": 0.2954545454545454,
                "tempo": 120.0
            },
            {
                "start_time": 0.4204545454545454,
                "end_time": 0.6931818181818181,
                "pitch": 71,
                "velocity": 64,
                "duration": 0.2727272727272727,
                "tempo": 120.0
            },
            {
                "start_time": 0.6931818181818181,
                "end_time": 1.0795454545454546,
                "pitch": 72,
                "velocity": 64,
                "duration": 0.38636363636363646,
                "tempo": 120.0
            },
            {
                "start_time": 1.0795454545454546,
                "end_time": 1.268181818181818,
                "pitch": 71,
                "velocity": 64,
                "duration": 0.1886363636363635,
                "tempo": 120.0
            },
            {
                "start_time": 0.6931818181818181,
                "end_time": 1.268181818181818,
                "pitch": 76,
                "velocity": 64,
                "duration": 0.575,
                "tempo": 120.0
            },
            {
                "start_time": 1.268181818181818,
                "end_time": 1.3613636363636363,
                "pitch": 72,
                "velocity": 64,
                "duration": 0.09318181818181825,
                "tempo": 120.0
            },
            {
                "start_time": 1.3613636363636363,
                "end_time": 1.6454545454545453,
                "pitch": 74,
                "velocity": 64,
                "duration": 0.28409090909090895,
                "tempo": 120.0
            },
            {
                "start_time": 1.3613636363636363,
                "end_time": 1.6454545454545453,
                "pitch": 74,
                "velocity": 64,
                "duration": 0.28409090909090895,
                "tempo": 120.0
            },
            {
                "start_time": 1.6454545454545453,
                "end_time": 1.8477272727272727,
                "pitch": 72,
                "velocity": 64,
                "duration": 0.20227272727272738,
                "tempo": 120.0
            },
            {
                "start_time": 1.6454545454545453,
                "end_time": 1.8477272727272727,
                "pitch": 72,
                "velocity": 64,
                "duration": 0.20227272727272738,
                "tempo": 120.0
            },
            {
                "start_time": 1.9272727272727272,
                "end_time": 2.1295454545454544,
                "pitch": 71,
                "velocity": 64,
                "duration": 0.20227272727272716,
                "tempo": 120.0
            },
            {
                "start_time": 2.2113636363636364,
                "end_time": 3.2409090909090907,
                "pitch": 69,
                "velocity": 64,
                "duration": 1.0295454545454543,
                "tempo": 120.0
            },
            {
                "start_time": 3.2409090909090907,
                "end_time": 3.5386363636363636,
                "pitch": 69,
                "velocity": 64,
                "duration": 0.29772727272727284,
                "tempo": 120.0
            },
            {
                "start_time": 3.5386363636363636,
                "end_time": 3.834090909090909,
                "pitch": 71,
                "velocity": 64,
                "duration": 0.2954545454545454,
                "tempo": 120.0
            },
            {
                "start_time": 1.268181818181818,
                "end_time": 3.834090909090909,
                "pitch": 76,
                "velocity": 64,
                "duration": 2.565909090909091,
                "tempo": 120.0
            },
            {
                "start_time": 3.834090909090909,
                "end_time": 4.2340909090909085,
                "pitch": 72,
                "velocity": 64,
                "duration": 0.39999999999999947,
                "tempo": 120.0
            },
            {
                "start_time": 1.0795454545454546,
                "end_time": 4.236363636363636,
                "pitch": 56,
                "velocity": 64,
                "duration": 3.1568181818181817,
                "tempo": 120.0
            },
            {
                "start_time": 4.2340909090909085,
                "end_time": 4.236363636363636,
                "pitch": 56,
                "velocity": 64,
                "duration": 0.0022727272727278702,
                "tempo": 120.0
            },
            {
                "start_time": 4.236363636363636,
                "end_time": 4.4363636363636365,
                "pitch": 71,
                "velocity": 64,
                "duration": 0.20000000000000018,
                "tempo": 120.0
            },
            {
                "start_time": 3.834090909090909,
                "end_time": 4.4386363636363635,
                "pitch": 76,
                "velocity": 64,
                "duration": 0.6045454545454545,
                "tempo": 120.0
            },
            {
                "start_time": 4.4363636363636365,
                "end_time": 4.4386363636363635,
                "pitch": 76,
                "velocity": 64,
                "duration": 0.002272727272726982,
                "tempo": 120.0
            },
            {
                "start_time": 4.4386363636363635,
                "end_time": 4.538636363636363,
                "pitch": 72,
                "velocity": 64,
                "duration": 0.09999999999999964,
                "tempo": 120.0
            },
            {
                "start_time": 4.538636363636363,
                "end_time": 4.847727272727273,
                "pitch": 74,
                "velocity": 64,
                "duration": 0.3090909090909095,
                "tempo": 120.0
            },
            {
                "start_time": 4.538636363636363,
                "end_time": 4.847727272727273,
                "pitch": 74,
                "velocity": 64,
                "duration": 0.3090909090909095,
                "tempo": 120.0
            },
            {
                "start_time": 4.847727272727273,
                "end_time": 5.0636363636363635,
                "pitch": 72,
                "velocity": 64,
                "duration": 0.21590909090909083,
                "tempo": 120.0
            },
            {
                "start_time": 4.847727272727273,
                "end_time": 5.0636363636363635,
                "pitch": 72,
                "velocity": 64,
                "duration": 0.21590909090909083,
                "tempo": 120.0
            },
            {
                "start_time": 5.1454545454545455,
                "end_time": 5.3545454545454545,
                "pitch": 71,
                "velocity": 64,
                "duration": 0.209090909090909,
                "tempo": 120.0
            },
            {
                "start_time": 5.4409090909090905,
                "end_time": 6.404545454545454,
                "pitch": 72,
                "velocity": 64,
                "duration": 0.9636363636363638,
                "tempo": 120.0
            },
            {
                "start_time": 6.404545454545454,
                "end_time": 6.704545454545454,
                "pitch": 72,
                "velocity": 80,
                "duration": 0.2999999999999998,
                "tempo": 120.0
            },
            {
                "start_time": 6.704545454545454,
                "end_time": 6.995454545454545,
                "pitch": 74,
                "velocity": 80,
                "duration": 0.290909090909091,
                "tempo": 120.0
            },
            {
                "start_time": 6.704545454545454,
                "end_time": 6.995454545454545,
                "pitch": 74,
                "velocity": 80,
                "duration": 0.290909090909091,
                "tempo": 120.0
            },
            {
                "start_time": 6.995454545454545,
                "end_time": 7.3999999999999995,
                "pitch": 76,
                "velocity": 80,
                "duration": 0.4045454545454543,
                "tempo": 120.0
            },
            {
                "start_time": 6.995454545454545,
                "end_time": 7.3999999999999995,
                "pitch": 76,
                "velocity": 80,
                "duration": 0.4045454545454543,
                "tempo": 120.0
            },
            {
                "start_time": 7.3999999999999995,
                "end_time": 7.6090909090909085,
                "pitch": 74,
                "velocity": 80,
                "duration": 0.209090909090909,
                "tempo": 120.0
            },
            {
                "start_time": 7.3999999999999995,
                "end_time": 7.6090909090909085,
                "pitch": 74,
                "velocity": 80,
                "duration": 0.209090909090909,
                "tempo": 120.0
            },
            {
                "start_time": 7.6090909090909085,
                "end_time": 7.709090909090909,
                "pitch": 76,
                "velocity": 80,
                "duration": 0.10000000000000053,
                "tempo": 120.0
            },
            {
                "start_time": 7.6090909090909085,
                "end_time": 7.709090909090909,
                "pitch": 76,
                "velocity": 80,
                "duration": 0.10000000000000053,
                "tempo": 120.0
            },
            {
                "start_time": 7.709090909090909,
                "end_time": 8.011363636363637,
                "pitch": 77,
                "velocity": 80,
                "duration": 0.3022727272727277,
                "tempo": 120.0
            },
            {
                "start_time": 8.011363636363637,
                "end_time": 8.227272727272727,
                "pitch": 76,
                "velocity": 80,
                "duration": 0.21590909090908994,
                "tempo": 120.0
            },
            {
                "start_time": 8.311363636363636,
                "end_time": 8.520454545454545,
                "pitch": 74,
                "velocity": 80,
                "duration": 0.209090909090909,
                "tempo": 120.0
            },
            {
                "start_time": 8.604545454545454,
                "end_time": 9.618181818181817,
                "pitch": 72,
                "velocity": 80,
                "duration": 1.0136363636363637,
                "tempo": 120.0
            },
            {
                "start_time": 9.618181818181817,
                "end_time": 9.918181818181818,
                "pitch": 72,
                "velocity": 80,
                "duration": 0.3000000000000007,
                "tempo": 120.0
            },
            {
                "start_time": 9.918181818181818,
                "end_time": 10.211363636363636,
                "pitch": 74,
                "velocity": 80,
                "duration": 0.293181818181818,
                "tempo": 120.0
            },
            {
                "start_time": 9.918181818181818,
                "end_time": 10.211363636363636,
                "pitch": 74,
                "velocity": 80,
                "duration": 0.293181818181818,
                "tempo": 120.0
            },
            {
                "start_time": 10.211363636363636,
                "end_time": 10.61590909090909,
                "pitch": 76,
                "velocity": 80,
                "duration": 0.4045454545454543,
                "tempo": 120.0
            },
            {
                "start_time": 10.211363636363636,
                "end_time": 10.61590909090909,
                "pitch": 76,
                "velocity": 80,
                "duration": 0.4045454545454543,
                "tempo": 120.0
            },
            {
                "start_time": 10.61590909090909,
                "end_time": 10.822727272727272,
                "pitch": 74,
                "velocity": 80,
                "duration": 0.206818181818182,
                "tempo": 120.0
            },
            {
                "start_time": 10.61590909090909,
                "end_time": 10.822727272727272,
                "pitch": 74,
                "velocity": 80,
                "duration": 0.206818181818182,
                "tempo": 120.0
            },
            {
                "start_time": 10.822727272727272,
                "end_time": 10.924999999999999,
                "pitch": 76,
                "velocity": 80,
                "duration": 0.10227272727272663,
                "tempo": 120.0
            },
            {
                "start_time": 10.822727272727272,
                "end_time": 10.924999999999999,
                "pitch": 76,
                "velocity": 80,
                "duration": 0.10227272727272663,
                "tempo": 120.0
            },
            {
                "start_time": 10.924999999999999,
                "end_time": 11.225,
                "pitch": 77,
                "velocity": 80,
                "duration": 0.3000000000000007,
                "tempo": 120.0
            },
            {
                "start_time": 11.225,
                "end_time": 11.443181818181818,
                "pitch": 76,
                "velocity": 80,
                "duration": 0.2181818181818187,
                "tempo": 120.0
            },
            {
                "start_time": 11.524999999999999,
                "end_time": 11.73409090909091,
                "pitch": 74,
                "velocity": 80,
                "duration": 0.20909090909091077,
                "tempo": 120.0
            },
            {
                "start_time": 11.818181818181818,
                "end_time": 36.95681818181818,
                "pitch": 76,
                "velocity": 80,
                "duration": 25.13863636363636,
                "tempo": 120.0
            },
            {
                "start_time": 36.95681818181818,
                "end_time": 37.21363636363636,
                "pitch": 76,
                "velocity": 64,
                "duration": 0.2568181818181827,
                "tempo": 120.0
            },
            {
                "start_time": 37.21363636363636,
                "end_time": 37.34318181818182,
                "pitch": 74,
                "velocity": 64,
                "duration": 0.12954545454545752,
                "tempo": 120.0
            },
            {
                "start_time": 37.21363636363636,
                "end_time": 37.34318181818182,
                "pitch": 74,
                "velocity": 64,
                "duration": 0.12954545454545752,
                "tempo": 120.0
            },
            {
                "start_time": 37.34318181818182,
                "end_time": 38.220454545454544,
                "pitch": 72,
                "velocity": 64,
                "duration": 0.8772727272727252,
                "tempo": 120.0
            },
            {
                "start_time": 37.34318181818182,
                "end_time": 38.220454545454544,
                "pitch": 72,
                "velocity": 64,
                "duration": 0.8772727272727252,
                "tempo": 120.0
            },
            {
                "start_time": 38.220454545454544,
                "end_time": 38.47272727272727,
                "pitch": 64,
                "velocity": 64,
                "duration": 0.2522727272727252,
                "tempo": 120.0
            },
            {
                "start_time": 38.47272727272727,
                "end_time": 38.595454545454544,
                "pitch": 67,
                "velocity": 64,
                "duration": 0.1227272727272748,
                "tempo": 120.0
            },
            {
                "start_time": 38.220454545454544,
                "end_time": 38.97272727272727,
                "pitch": 76,
                "velocity": 64,
                "duration": 0.7522727272727252,
                "tempo": 120.0
            },
            {
                "start_time": 38.59772727272727,
                "end_time": 38.97272727272727,
                "pitch": 76,
                "velocity": 64,
                "duration": 0.375,
                "tempo": 120.0
            },
            {
                "start_time": 38.97272727272727,
                "end_time": 39.22272727272727,
                "pitch": 74,
                "velocity": 64,
                "duration": 0.25,
                "tempo": 120.0
            },
            {
                "start_time": 38.97272727272727,
                "end_time": 39.22272727272727,
                "pitch": 74,
                "velocity": 64,
                "duration": 0.25,
                "tempo": 120.0
            },
            {
                "start_time": 39.22272727272727,
                "end_time": 39.34772727272727,
                "pitch": 71,
                "velocity": 64,
                "duration": 0.125,
                "tempo": 120.0
            },
            {
                "start_time": 39.34772727272727,
                "end_time": 40.22272727272727,
                "pitch": 67,
                "velocity": 64,
                "duration": 0.875,
                "tempo": 120.0
            },
            {
                "start_time": 39.34772727272727,
                "end_time": 40.22272727272727,
                "pitch": 67,
                "velocity": 64,
                "duration": 0.875,
                "tempo": 120.0
            },
            {
                "start_time": 38.595454545454544,
                "end_time": 40.22272727272727,
                "pitch": 78,
                "velocity": 64,
                "duration": 1.6272727272727252,
                "tempo": 120.0
            },
            {
                "start_time": 40.22272727272727,
                "end_time": 40.475,
                "pitch": 64,
                "velocity": 64,
                "duration": 0.2522727272727323,
                "tempo": 120.0
            },
            {
                "start_time": 40.475,
                "end_time": 40.6,
                "pitch": 67,
                "velocity": 64,
                "duration": 0.125,
                "tempo": 120.0
            },
            {
                "start_time": 40.60227272727273,
                "end_time": 40.97727272727273,
                "pitch": 74,
                "velocity": 64,
                "duration": 0.375,
                "tempo": 120.0
            },
            {
                "start_time": 40.97727272727273,
                "end_time": 41.22954545454545,
                "pitch": 72,
                "velocity": 64,
                "duration": 0.2522727272727252,
                "tempo": 120.0
            },
            {
                "start_time": 40.97727272727273,
                "end_time": 41.22954545454545,
                "pitch": 72,
                "velocity": 64,
                "duration": 0.2522727272727252,
                "tempo": 120.0
            },
            {
                "start_time": 41.22954545454545,
                "end_time": 41.35454545454545,
                "pitch": 69,
                "velocity": 64,
                "duration": 0.125,
                "tempo": 120.0
            },
            {
                "start_time": 40.22272727272727,
                "end_time": 41.35454545454545,
                "pitch": 78,
                "velocity": 64,
                "duration": 1.1318181818181827,
                "tempo": 120.0
            },
            {
                "start_time": 41.35454545454545,
                "end_time": 42.22954545454545,
                "pitch": 65,
                "velocity": 64,
                "duration": 0.875,
                "tempo": 120.0
            },
            {
                "start_time": 42.22954545454545,
                "end_time": 42.48181818181818,
                "pitch": 62,
                "velocity": 64,
                "duration": 0.2522727272727252,
                "tempo": 120.0
            },
            {
                "start_time": 42.22954545454545,
                "end_time": 42.48181818181818,
                "pitch": 62,
                "velocity": 64,
                "duration": 0.2522727272727252,
                "tempo": 120.0
            },
            {
                "start_time": 42.48181818181818,
                "end_time": 42.60454545454545,
                "pitch": 65,
                "velocity": 64,
                "duration": 0.1227272727272748,
                "tempo": 120.0
            },
            {
                "start_time": 42.48181818181818,
                "end_time": 42.60454545454545,
                "pitch": 65,
                "velocity": 64,
                "duration": 0.1227272727272748,
                "tempo": 120.0
            },
            {
                "start_time": 39.22272727272727,
                "end_time": 42.98409090909091,
                "pitch": 56,
                "velocity": 64,
                "duration": 3.7613636363636402,
                "tempo": 120.0
            },
            {
                "start_time": 42.60681818181818,
                "end_time": 42.98409090909091,
                "pitch": 72,
                "velocity": 64,
                "duration": 0.3772727272727323,
                "tempo": 120.0
            },
            {
                "start_time": 42.98409090909091,
                "end_time": 43.13181818181818,
                "pitch": 71,
                "velocity": 64,
                "duration": 0.14772727272727337,
                "tempo": 120.0
            },
            {
                "start_time": 42.98409090909091,
                "end_time": 43.37045454545454,
                "pitch": 56,
                "velocity": 64,
                "duration": 0.38636363636363313,
                "tempo": 120.0
            },
            {
                "start_time": 43.24318181818182,
                "end_time": 43.37045454545454,
                "pitch": 72,
                "velocity": 64,
                "duration": 0.1272727272727252,
                "tempo": 120.0
            },
            {
                "start_time": 43.37045454545454,
                "end_time": 43.51363636363636,
                "pitch": 71,
                "velocity": 64,
                "duration": 0.14318181818181586,
                "tempo": 120.0
            },
            {
                "start_time": 43.62045454545454,
                "end_time": 43.76363636363636,
                "pitch": 72,
                "velocity": 64,
                "duration": 0.14318181818181586,
                "tempo": 120.0
            },
            {
                "start_time": 43.87272727272727,
                "end_time": 44.24545454545454,
                "pitch": 76,
                "velocity": 64,
                "duration": 0.3727272727272748,
                "tempo": 120.0
            },
            {
                "start_time": 44.24545454545454,
                "end_time": 44.49772727272727,
                "pitch": 74,
                "velocity": 64,
                "duration": 0.2522727272727252,
                "tempo": 120.0
            },
            {
                "start_time": 44.24545454545454,
                "end_time": 44.49772727272727,
                "pitch": 74,
                "velocity": 64,
                "duration": 0.2522727272727252,
                "tempo": 120.0
            },
            {
                "start_time": 43.37045454545454,
                "end_time": 44.74772727272727,
                "pitch": 56,
                "velocity": 64,
                "duration": 1.3772727272727252,
                "tempo": 120.0
            },
            {
                "start_time": 44.49772727272727,
                "end_time": 44.74772727272727,
                "pitch": 72,
                "velocity": 64,
                "duration": 0.25,
                "tempo": 120.0
            },
            {
                "start_time": 44.49772727272727,
                "end_time": 44.74772727272727,
                "pitch": 72,
                "velocity": 64,
                "duration": 0.25,
                "tempo": 120.0
            }
        ],
        "French Horn": [
            {
                "start_time": 12.902272727272727,
                "end_time": 13.193181818181818,
                "pitch": 64,
                "velocity": 64,
                "duration": 0.290909090909091,
                "tempo": 120.0
            },
            {
                "start_time": 13.193181818181818,
                "end_time": 13.570454545454545,
                "pitch": 62,
                "velocity": 64,
                "duration": 0.377272727272727,
                "tempo": 120.0
            },
            {
                "start_time": 13.570454545454545,
                "end_time": 13.820454545454545,
                "pitch": 60,
                "velocity": 64,
                "duration": 0.25,
                "tempo": 120.0
            },
            {
                "start_time": 13.570454545454545,
                "end_time": 13.820454545454545,
                "pitch": 60,
                "velocity": 64,
                "duration": 0.25,
                "tempo": 120.0
            },
            {
                "start_time": 13.820454545454545,
                "end_time": 13.822727272727272,
                "pitch": 65,
                "velocity": 64,
                "duration": 0.002272727272726982,
                "tempo": 120.0
            },
            {
                "start_time": 13.822727272727272,
                "end_time": 14.197727272727272,
                "pitch": 65,
                "velocity": 64,
                "duration": 0.375,
                "tempo": 120.0
            },
            {
                "start_time": 14.197727272727272,
                "end_time": 14.575,
                "pitch": 62,
                "velocity": 64,
                "duration": 0.377272727272727,
                "tempo": 120.0
            },
            {
                "start_time": 14.197727272727272,
                "end_time": 14.575,
                "pitch": 62,
                "velocity": 64,
                "duration": 0.377272727272727,
                "tempo": 120.0
            },
            {
                "start_time": 14.575,
                "end_time": 14.827272727272726,
                "pitch": 59,
                "velocity": 64,
                "duration": 0.252272727272727,
                "tempo": 120.0
            },
            {
                "start_time": 14.827272727272726,
                "end_time": 15.204545454545453,
                "pitch": 56,
                "velocity": 64,
                "duration": 0.377272727272727,
                "tempo": 120.0
            },
            {
                "start_time": 14.827272727272726,
                "end_time": 15.204545454545453,
                "pitch": 56,
                "velocity": 64,
                "duration": 0.377272727272727,
                "tempo": 120.0
            },
            {
                "start_time": 15.204545454545453,
                "end_time": 15.584090909090909,
                "pitch": 59,
                "velocity": 64,
                "duration": 0.37954545454545574,
                "tempo": 120.0
            },
            {
                "start_time": 15.204545454545453,
                "end_time": 15.584090909090909,
                "pitch": 59,
                "velocity": 64,
                "duration": 0.37954545454545574,
                "tempo": 120.0
            },
            {
                "start_time": 15.584090909090909,
                "end_time": 15.836363636363636,
                "pitch": 60,
                "velocity": 64,
                "duration": 0.252272727272727,
                "tempo": 120.0
            },
            {
                "start_time": 15.836363636363636,
                "end_time": 16.21363636363636,
                "pitch": 62,
                "velocity": 64,
                "duration": 0.3772727272727252,
                "tempo": 120.0
            },
            {
                "start_time": 15.836363636363636,
                "end_time": 16.21363636363636,
                "pitch": 62,
                "velocity": 64,
                "duration": 0.3772727272727252,
                "tempo": 120.0
            },
            {
                "start_time": 15.584090909090909,
                "end_time": 16.58863636363636,
                "pitch": 64,
                "velocity": 64,
                "duration": 1.0045454545454522,
                "tempo": 120.0
            },
            {
                "start_time": 16.21363636363636,
                "end_time": 16.58863636363636,
                "pitch": 64,
                "velocity": 64,
                "duration": 0.375,
                "tempo": 120.0
            },
            {
                "start_time": 16.58863636363636,
                "end_time": 16.84090909090909,
                "pitch": 65,
                "velocity": 64,
                "duration": 0.25227272727272876,
                "tempo": 120.0
            },
            {
                "start_time": 16.84090909090909,
                "end_time": 17.21818181818182,
                "pitch": 64,
                "velocity": 64,
                "duration": 0.37727272727272876,
                "tempo": 120.0
            },
            {
                "start_time": 17.21818181818182,
                "end_time": 17.59318181818182,
                "pitch": 62,
                "velocity": 64,
                "duration": 0.375,
                "tempo": 120.0
            },
            {
                "start_time": 14.575,
                "end_time": 17.84318181818182,
                "pitch": 44,
                "velocity": 64,
                "duration": 3.2681818181818194,
                "tempo": 120.0
            },
            {
                "start_time": 17.59318181818182,
                "end_time": 17.84318181818182,
                "pitch": 60,
                "velocity": 64,
                "duration": 0.25,
                "tempo": 120.0
            },
            {
                "start_time": 17.59318181818182,
                "end_time": 17.84318181818182,
                "pitch": 60,
                "velocity": 64,
                "duration": 0.25,
                "tempo": 120.0
            },
            {
                "start_time": 17.845454545454544,
                "end_time": 18.220454545454544,
                "pitch": 59,
                "velocity": 64,
                "duration": 0.375,
                "tempo": 120.0
            },
            {
                "start_time": 18.220454545454544,
                "end_time": 18.597727272727273,
                "pitch": 57,
                "velocity": 64,
                "duration": 0.37727272727272876,
                "tempo": 120.0
            },
            {
                "start_time": 18.597727272727273,
                "end_time": 18.849999999999998,
                "pitch": 59,
                "velocity": 64,
                "duration": 0.2522727272727252,
                "tempo": 120.0
            },
            {
                "start_time": 17.84318181818182,
                "end_time": 19.224999999999998,
                "pitch": 44,
                "velocity": 64,
                "duration": 1.3818181818181792,
                "tempo": 120.0
            },
            {
                "start_time": 18.849999999999998,
                "end_time": 19.224999999999998,
                "pitch": 65,
                "velocity": 64,
                "duration": 0.375,
                "tempo": 120.0
            },
            {
                "start_time": 19.224999999999998,
                "end_time": 19.60909090909091,
                "pitch": 59,
                "velocity": 64,
                "duration": 0.3840909090909115,
                "tempo": 120.0
            },
            {
                "start_time": 19.60909090909091,
                "end_time": 19.86590909090909,
                "pitch": 56,
                "velocity": 64,
                "duration": 0.25681818181817917,
                "tempo": 120.0
            },
            {
                "start_time": 19.611363636363635,
                "end_time": 19.86590909090909,
                "pitch": 56,
                "velocity": 64,
                "duration": 0.25454545454545396,
                "tempo": 120.0
            },
            {
                "start_time": 18.849999999999998,
                "end_time": 19.86590909090909,
                "pitch": 66,
                "velocity": 64,
                "duration": 1.0159090909090907,
                "tempo": 120.0
            },
            {
                "start_time": 19.86590909090909,
                "end_time": 51.44772727272727,
                "pitch": 52,
                "velocity": 64,
                "duration": 31.581818181818182,
                "tempo": 120.0
            },
            {
                "start_time": 51.449999999999996,
                "end_time": 51.54772727272727,
                "pitch": 67,
                "velocity": 51,
                "duration": 0.09772727272727622,
                "tempo": 120.0
            },
            {
                "start_time": 51.54772727272727,
                "end_time": 51.65,
                "pitch": 65,
                "velocity": 51,
                "duration": 0.10227272727272663,
                "tempo": 120.0
            },
            {
                "start_time": 51.65,
                "end_time": 51.75,
                "pitch": 64,
                "velocity": 51,
                "duration": 0.10000000000000142,
                "tempo": 120.0
            },
            {
                "start_time": 51.75,
                "end_time": 51.849999999999994,
                "pitch": 65,
                "velocity": 51,
                "duration": 0.09999999999999432,
                "tempo": 120.0
            },
            {
                "start_time": 51.849999999999994,
                "end_time": 51.949999999999996,
                "pitch": 64,
                "velocity": 51,
                "duration": 0.10000000000000142,
                "tempo": 120.0
            },
            {
                "start_time": 51.949999999999996,
                "end_time": 52.05,
                "pitch": 62,
                "velocity": 51,
                "duration": 0.10000000000000142,
                "tempo": 120.0
            },
            {
                "start_time": 52.05,
                "end_time": 52.15,
                "pitch": 64,
                "velocity": 51,
                "duration": 0.10000000000000142,
                "tempo": 120.0
            },
            {
                "start_time": 52.15,
                "end_time": 52.252272727272725,
                "pitch": 62,
                "velocity": 51,
                "duration": 0.10227272727272663,
                "tempo": 120.0
            },
            {
                "start_time": 52.252272727272725,
                "end_time": 52.345454545454544,
                "pitch": 60,
                "velocity": 51,
                "duration": 0.0931818181818187,
                "tempo": 120.0
            },
            {
                "start_time": 52.252272727272725,
                "end_time": 52.345454545454544,
                "pitch": 60,
                "velocity": 51,
                "duration": 0.0931818181818187,
                "tempo": 120.0
            },
            {
                "start_time": 52.345454545454544,
                "end_time": 52.43863636363636,
                "pitch": 62,
                "velocity": 51,
                "duration": 0.0931818181818187,
                "tempo": 120.0
            },
            {
                "start_time": 52.345454545454544,
                "end_time": 52.43863636363636,
                "pitch": 62,
                "velocity": 51,
                "duration": 0.0931818181818187,
                "tempo": 120.0
            },
            {
                "start_time": 19.224999999999998,
                "end_time": 52.53409090909091,
                "pitch": 44,
                "velocity": 64,
                "duration": 33.30909090909091,
                "tempo": 120.0
            },
            {
                "start_time": 52.43863636363636,
                "end_time": 52.53409090909091,
                "pitch": 60,
                "velocity": 51,
                "duration": 0.0954545454545439,
                "tempo": 120.0
            },
            {
                "start_time": 52.43863636363636,
                "end_time": 52.53409090909091,
                "pitch": 60,
                "velocity": 51,
                "duration": 0.0954545454545439,
                "tempo": 120.0
            },
            {
                "start_time": 52.53409090909091,
                "end_time": 52.627272727272725,
                "pitch": 59,
                "velocity": 51,
                "duration": 0.0931818181818187,
                "tempo": 120.0
            },
            {
                "start_time": 52.53409090909091,
                "end_time": 52.72272727272727,
                "pitch": 44,
                "velocity": 51,
                "duration": 0.1886363636363626,
                "tempo": 120.0
            },
            {
                "start_time": 52.627272727272725,
                "end_time": 52.72272727272727,
                "pitch": 60,
                "velocity": 51,
                "duration": 0.0954545454545439,
                "tempo": 120.0
            },
            {
                "start_time": 52.72272727272727,
                "end_time": 52.81590909090909,
                "pitch": 59,
                "velocity": 51,
                "duration": 0.0931818181818187,
                "tempo": 120.0
            },
            {
                "start_time": 52.81590909090909,
                "end_time": 52.91136363636363,
                "pitch": 57,
                "velocity": 51,
                "duration": 0.0954545454545439,
                "tempo": 120.0
            },
            {
                "start_time": 52.91136363636363,
                "end_time": 53.00454545454545,
                "pitch": 55,
                "velocity": 51,
                "duration": 0.0931818181818187,
                "tempo": 120.0
            },
            {
                "start_time": 19.86590909090909,
                "end_time": 53.00454545454545,
                "pitch": 66,
                "velocity": 64,
                "duration": 33.138636363636365,
                "tempo": 120.0
            },
            {
                "start_time": 53.00454545454545,
                "end_time": 53.663636363636364,
                "pitch": 53,
                "velocity": 64,
                "duration": 0.6590909090909136,
                "tempo": 120.0
            },
            {
                "start_time": 53.663636363636364,
                "end_time": 53.75681818181818,
                "pitch": 52,
                "velocity": 64,
                "duration": 0.0931818181818187,
                "tempo": 120.0
            }
        ],
        "Trumpet": [
            {
                "start_time": 20.36590909090909,
                "end_time": 20.49090909090909,
                "pitch": 69,
                "velocity": 127,
                "duration": 0.125,
                "tempo": 120.0
            },
            {
                "start_time": 20.49090909090909,
                "end_time": 20.61590909090909,
                "pitch": 71,
                "velocity": 127,
                "duration": 0.125,
                "tempo": 120.0
            },
            {
                "start_time": 20.61590909090909,
                "end_time": 21.243181818181817,
                "pitch": 72,
                "velocity": 127,
                "duration": 0.6272727272727288,
                "tempo": 120.0
            },
            {
                "start_time": 21.243181818181817,
                "end_time": 21.495454545454546,
                "pitch": 71,
                "velocity": 127,
                "duration": 0.25227272727272876,
                "tempo": 120.0
            },
            {
                "start_time": 20.61590909090909,
                "end_time": 21.495454545454546,
                "pitch": 76,
                "velocity": 127,
                "duration": 0.8795454545454575,
                "tempo": 120.0
            },
            {
                "start_time": 21.495454545454546,
                "end_time": 21.620454545454546,
                "pitch": 72,
                "velocity": 127,
                "duration": 0.125,
                "tempo": 120.0
            },
            {
                "start_time": 21.620454545454546,
                "end_time": 21.99772727272727,
                "pitch": 74,
                "velocity": 127,
                "duration": 0.3772727272727252,
                "tempo": 120.0
            },
            {
                "start_time": 21.620454545454546,
                "end_time": 21.99772727272727,
                "pitch": 74,
                "velocity": 127,
                "duration": 0.3772727272727252,
                "tempo": 120.0
            },
            {
                "start_time": 21.243181818181817,
                "end_time": 22.24772727272727,
                "pitch": 56,
                "velocity": 127,
                "duration": 1.004545454545454,
                "tempo": 120.0
            },
            {
                "start_time": 21.99772727272727,
                "end_time": 22.24772727272727,
                "pitch": 72,
                "velocity": 127,
                "duration": 0.25,
                "tempo": 120.0
            },
            {
                "start_time": 21.99772727272727,
                "end_time": 22.24772727272727,
                "pitch": 72,
                "velocity": 127,
                "duration": 0.25,
                "tempo": 120.0
            },
            {
                "start_time": 22.24772727272727,
                "end_time": 22.5,
                "pitch": 71,
                "velocity": 127,
                "duration": 0.25227272727272876,
                "tempo": 120.0
            },
            {
                "start_time": 21.495454545454546,
                "end_time": 22.5,
                "pitch": 76,
                "velocity": 127,
                "duration": 1.004545454545454,
                "tempo": 120.0
            },
            {
                "start_time": 22.24772727272727,
                "end_time": 22.625,
                "pitch": 56,
                "velocity": 127,
                "duration": 0.37727272727272876,
                "tempo": 120.0
            },
            {
                "start_time": 22.5,
                "end_time": 22.625,
                "pitch": 72,
                "velocity": 127,
                "duration": 0.125,
                "tempo": 120.0
            },
            {
                "start_time": 22.625,
                "end_time": 23.002272727272725,
                "pitch": 71,
                "velocity": 127,
                "duration": 0.3772727272727252,
                "tempo": 120.0
            },
            {
                "start_time": 23.002272727272725,
                "end_time": 23.252272727272725,
                "pitch": 67,
                "velocity": 127,
                "duration": 0.25,
                "tempo": 120.0
            },
            {
                "start_time": 23.002272727272725,
                "end_time": 23.252272727272725,
                "pitch": 67,
                "velocity": 127,
                "duration": 0.25,
                "tempo": 120.0
            },
            {
                "start_time": 23.252272727272725,
                "end_time": 23.379545454545454,
                "pitch": 64,
                "velocity": 127,
                "duration": 0.12727272727272876,
                "tempo": 120.0
            },
            {
                "start_time": 23.379545454545454,
                "end_time": 23.529545454545453,
                "pitch": 71,
                "velocity": 127,
                "duration": 0.14999999999999858,
                "tempo": 120.0
            },
            {
                "start_time": 23.638636363636362,
                "end_time": 24.39090909090909,
                "pitch": 69,
                "velocity": 127,
                "duration": 0.7522727272727288,
                "tempo": 120.0
            },
            {
                "start_time": 24.39090909090909,
                "end_time": 24.513636363636362,
                "pitch": 69,
                "velocity": 127,
                "duration": 0.12272727272727124,
                "tempo": 120.0
            },
            {
                "start_time": 24.513636363636362,
                "end_time": 24.636363636363637,
                "pitch": 71,
                "velocity": 127,
                "duration": 0.1227272727272748,
                "tempo": 120.0
            },
            {
                "start_time": 22.5,
                "end_time": 24.636363636363637,
                "pitch": 76,
                "velocity": 127,
                "duration": 2.1363636363636367,
                "tempo": 120.0
            },
            {
                "start_time": 24.636363636363637,
                "end_time": 25.261363636363637,
                "pitch": 72,
                "velocity": 127,
                "duration": 0.625,
                "tempo": 120.0
            },
            {
                "start_time": 22.625,
                "end_time": 25.263636363636362,
                "pitch": 56,
                "velocity": 127,
                "duration": 2.638636363636362,
                "tempo": 120.0
            },
            {
                "start_time": 25.261363636363637,
                "end_time": 25.263636363636362,
                "pitch": 56,
                "velocity": 127,
                "duration": 0.0022727272727252057,
                "tempo": 120.0
            },
            {
                "start_time": 25.263636363636362,
                "end_time": 25.518181818181816,
                "pitch": 71,
                "velocity": 127,
                "duration": 0.25454545454545396,
                "tempo": 120.0
            },
            {
                "start_time": 24.636363636363637,
                "end_time": 25.520454545454545,
                "pitch": 76,
                "velocity": 127,
                "duration": 0.8840909090909079,
                "tempo": 120.0
            },
            {
                "start_time": 25.518181818181816,
                "end_time": 25.520454545454545,
                "pitch": 76,
                "velocity": 127,
                "duration": 0.0022727272727287584,
                "tempo": 120.0
            },
            {
                "start_time": 25.520454545454545,
                "end_time": 25.64772727272727,
                "pitch": 72,
                "velocity": 127,
                "duration": 0.1272727272727252,
                "tempo": 120.0
            },
            {
                "start_time": 25.64772727272727,
                "end_time": 26.029545454545453,
                "pitch": 74,
                "velocity": 127,
                "duration": 0.3818181818181827,
                "tempo": 120.0
            },
            {
                "start_time": 25.64772727272727,
                "end_time": 26.029545454545453,
                "pitch": 74,
                "velocity": 127,
                "duration": 0.3818181818181827,
                "tempo": 120.0
            },
            {
                "start_time": 26.029545454545453,
                "end_time": 26.28181818181818,
                "pitch": 72,
                "velocity": 127,
                "duration": 0.25227272727272876,
                "tempo": 120.0
            },
            {
                "start_time": 26.029545454545453,
                "end_time": 26.28181818181818,
                "pitch": 72,
                "velocity": 127,
                "duration": 0.25227272727272876,
                "tempo": 120.0
            },
            {
                "start_time": 26.28181818181818,
                "end_time": 26.53181818181818,
                "pitch": 71,
                "velocity": 127,
                "duration": 0.25,
                "tempo": 120.0
            },
            {
                "start_time": 26.28181818181818,
                "end_time": 26.65681818181818,
                "pitch": 56,
                "velocity": 127,
                "duration": 0.375,
                "tempo": 120.0
            },
            {
                "start_time": 26.53181818181818,
                "end_time": 26.65681818181818,
                "pitch": 72,
                "velocity": 127,
                "duration": 0.125,
                "tempo": 120.0
            },
            {
                "start_time": 26.65681818181818,
                "end_time": 28.404545454545453,
                "pitch": 71,
                "velocity": 127,
                "duration": 1.7477272727272712,
                "tempo": 120.0
            },
            {
                "start_time": 28.404545454545453,
                "end_time": 28.534090909090907,
                "pitch": 69,
                "velocity": 127,
                "duration": 0.12954545454545396,
                "tempo": 120.0
            },
            {
                "start_time": 28.534090909090907,
                "end_time": 28.66363636363636,
                "pitch": 71,
                "velocity": 127,
                "duration": 0.12954545454545396,
                "tempo": 120.0
            },
            {
                "start_time": 26.53181818181818,
                "end_time": 28.66363636363636,
                "pitch": 76,
                "velocity": 127,
                "duration": 2.131818181818179,
                "tempo": 120.0
            },
            {
                "start_time": 26.65681818181818,
                "end_time": 29.293181818181818,
                "pitch": 56,
                "velocity": 127,
                "duration": 2.6363636363636367,
                "tempo": 120.0
            },
            {
                "start_time": 28.66363636363636,
                "end_time": 29.293181818181818,
                "pitch": 72,
                "velocity": 127,
                "duration": 0.6295454545454575,
                "tempo": 120.0
            },
            {
                "start_time": 29.293181818181818,
                "end_time": 29.543181818181818,
                "pitch": 71,
                "velocity": 127,
                "duration": 0.25,
                "tempo": 120.0
            },
            {
                "start_time": 28.66363636363636,
                "end_time": 29.543181818181818,
                "pitch": 76,
                "velocity": 127,
                "duration": 0.8795454545454575,
                "tempo": 120.0
            },
            {
                "start_time": 29.543181818181818,
                "end_time": 29.670454545454543,
                "pitch": 72,
                "velocity": 127,
                "duration": 0.1272727272727252,
                "tempo": 120.0
            },
            {
                "start_time": 29.670454545454543,
                "end_time": 30.047727272727272,
                "pitch": 74,
                "velocity": 127,
                "duration": 0.37727272727272876,
                "tempo": 120.0
            },
            {
                "start_time": 29.670454545454543,
                "end_time": 30.047727272727272,
                "pitch": 74,
                "velocity": 127,
                "duration": 0.37727272727272876,
                "tempo": 120.0
            },
            {
                "start_time": 29.293181818181818,
                "end_time": 30.297727272727272,
                "pitch": 56,
                "velocity": 127,
                "duration": 1.004545454545454,
                "tempo": 120.0
            },
            {
                "start_time": 30.047727272727272,
                "end_time": 30.297727272727272,
                "pitch": 72,
                "velocity": 127,
                "duration": 0.25,
                "tempo": 120.0
            },
            {
                "start_time": 30.047727272727272,
                "end_time": 30.297727272727272,
                "pitch": 72,
                "velocity": 127,
                "duration": 0.25,
                "tempo": 120.0
            },
            {
                "start_time": 30.297727272727272,
                "end_time": 30.547727272727272,
                "pitch": 71,
                "velocity": 127,
                "duration": 0.25,
                "tempo": 120.0
            },
            {
                "start_time": 29.543181818181818,
                "end_time": 30.547727272727272,
                "pitch": 76,
                "velocity": 127,
                "duration": 1.004545454545454,
                "tempo": 120.0
            },
            {
                "start_time": 30.297727272727272,
                "end_time": 30.672727272727272,
                "pitch": 56,
                "velocity": 127,
                "duration": 0.375,
                "tempo": 120.0
            },
            {
                "start_time": 30.547727272727272,
                "end_time": 30.672727272727272,
                "pitch": 72,
                "velocity": 127,
                "duration": 0.125,
                "tempo": 120.0
            },
            {
                "start_time": 30.672727272727272,
                "end_time": 31.049999999999997,
                "pitch": 71,
                "velocity": 127,
                "duration": 0.3772727272727252,
                "tempo": 120.0
            },
            {
                "start_time": 31.049999999999997,
                "end_time": 31.302272727272726,
                "pitch": 67,
                "velocity": 127,
                "duration": 0.25227272727272876,
                "tempo": 120.0
            },
            {
                "start_time": 31.049999999999997,
                "end_time": 31.302272727272726,
                "pitch": 67,
                "velocity": 127,
                "duration": 0.25227272727272876,
                "tempo": 120.0
            },
            {
                "start_time": 23.252272727272725,
                "end_time": 31.302272727272726,
                "pitch": 78,
                "velocity": 127,
                "duration": 8.05,
                "tempo": 120.0
            },
            {
                "start_time": 23.379545454545454,
                "end_time": 31.429545454545455,
                "pitch": 44,
                "velocity": 127,
                "duration": 8.05,
                "tempo": 120.0
            },
            {
                "start_time": 31.302272727272726,
                "end_time": 31.429545454545455,
                "pitch": 64,
                "velocity": 127,
                "duration": 0.12727272727272876,
                "tempo": 120.0
            },
            {
                "start_time": 31.429545454545455,
                "end_time": 31.579545454545453,
                "pitch": 71,
                "velocity": 127,
                "duration": 0.14999999999999858,
                "tempo": 120.0
            },
            {
                "start_time": 31.686363636363634,
                "end_time": 32.43181818181818,
                "pitch": 69,
                "velocity": 127,
                "duration": 0.745454545454546,
                "tempo": 120.0
            },
            {
                "start_time": 32.43181818181818,
                "end_time": 32.55681818181818,
                "pitch": 69,
                "velocity": 127,
                "duration": 0.125,
                "tempo": 120.0
            },
            {
                "start_time": 32.55681818181818,
                "end_time": 32.68181818181818,
                "pitch": 71,
                "velocity": 127,
                "duration": 0.125,
                "tempo": 120.0
            },
            {
                "start_time": 30.547727272727272,
                "end_time": 32.68181818181818,
                "pitch": 76,
                "velocity": 127,
                "duration": 2.134090909090908,
                "tempo": 120.0
            },
            {
                "start_time": 30.672727272727272,
                "end_time": 33.309090909090905,
                "pitch": 56,
                "velocity": 127,
                "duration": 2.636363636363633,
                "tempo": 120.0
            },
            {
                "start_time": 32.68181818181818,
                "end_time": 33.309090909090905,
                "pitch": 72,
                "velocity": 127,
                "duration": 0.6272727272727252,
                "tempo": 120.0
            },
            {
                "start_time": 33.309090909090905,
                "end_time": 33.56590909090909,
                "pitch": 71,
                "velocity": 127,
                "duration": 0.2568181818181827,
                "tempo": 120.0
            },
            {
                "start_time": 32.68181818181818,
                "end_time": 33.56590909090909,
                "pitch": 76,
                "velocity": 127,
                "duration": 0.8840909090909079,
                "tempo": 120.0
            },
            {
                "start_time": 33.56590909090909,
                "end_time": 33.69318181818181,
                "pitch": 72,
                "velocity": 127,
                "duration": 0.1272727272727252,
                "tempo": 120.0
            },
            {
                "start_time": 33.69318181818181,
                "end_time": 34.32727272727273,
                "pitch": 74,
                "velocity": 127,
                "duration": 0.634090909090915,
                "tempo": 120.0
            },
            {
                "start_time": 33.69318181818181,
                "end_time": 34.32727272727273,
                "pitch": 74,
                "velocity": 127,
                "duration": 0.634090909090915,
                "tempo": 120.0
            },
            {
                "start_time": 34.32727272727273,
                "end_time": 34.449999999999996,
                "pitch": 74,
                "velocity": 127,
                "duration": 0.12272727272726769,
                "tempo": 120.0
            },
            {
                "start_time": 34.449999999999996,
                "end_time": 34.590909090909086,
                "pitch": 79,
                "velocity": 127,
                "duration": 0.14090909090909065,
                "tempo": 120.0
            }
        ],
        "Electric Guitar (clean)": [
            {
                "start_time": 54.50681818181818,
                "end_time": 54.793181818181814,
                "pitch": 69,
                "velocity": 64,
                "duration": 0.2863636363636317,
                "tempo": 120.0
            },
            {
                "start_time": 54.793181818181814,
                "end_time": 55.06590909090909,
                "pitch": 71,
                "velocity": 64,
                "duration": 0.2727272727272734,
                "tempo": 120.0
            },
            {
                "start_time": 55.06590909090909,
                "end_time": 55.06818181818181,
                "pitch": 76,
                "velocity": 64,
                "duration": 0.0022727272727252057,
                "tempo": 120.0
            },
            {
                "start_time": 55.06818181818181,
                "end_time": 55.45227272727273,
                "pitch": 72,
                "velocity": 64,
                "duration": 0.38409090909091503,
                "tempo": 120.0
            },
            {
                "start_time": 55.45227272727273,
                "end_time": 55.643181818181816,
                "pitch": 71,
                "velocity": 64,
                "duration": 0.1909090909090878,
                "tempo": 120.0
            },
            {
                "start_time": 55.643181818181816,
                "end_time": 55.73409090909091,
                "pitch": 72,
                "velocity": 64,
                "duration": 0.09090909090909349,
                "tempo": 120.0
            },
            {
                "start_time": 55.73409090909091,
                "end_time": 56.01590909090909,
                "pitch": 74,
                "velocity": 64,
                "duration": 0.2818181818181813,
                "tempo": 120.0
            },
            {
                "start_time": 55.73409090909091,
                "end_time": 56.01590909090909,
                "pitch": 74,
                "velocity": 64,
                "duration": 0.2818181818181813,
                "tempo": 120.0
            },
            {
                "start_time": 56.01590909090909,
                "end_time": 56.21818181818182,
                "pitch": 72,
                "velocity": 64,
                "duration": 0.20227272727272805,
                "tempo": 120.0
            },
            {
                "start_time": 56.01590909090909,
                "end_time": 56.21818181818182,
                "pitch": 72,
                "velocity": 64,
                "duration": 0.20227272727272805,
                "tempo": 120.0
            },
            {
                "start_time": 56.3,
                "end_time": 56.502272727272725,
                "pitch": 71,
                "velocity": 64,
                "duration": 0.20227272727272805,
                "tempo": 120.0
            },
            {
                "start_time": 56.58181818181818,
                "end_time": 57.611363636363635,
                "pitch": 69,
                "velocity": 64,
                "duration": 1.029545454545456,
                "tempo": 120.0
            },
            {
                "start_time": 57.611363636363635,
                "end_time": 57.90909090909091,
                "pitch": 69,
                "velocity": 64,
                "duration": 0.29772727272727195,
                "tempo": 120.0
            },
            {
                "start_time": 57.90909090909091,
                "end_time": 58.20454545454545,
                "pitch": 71,
                "velocity": 64,
                "duration": 0.29545454545454675,
                "tempo": 120.0
            },
            {
                "start_time": 55.643181818181816,
                "end_time": 58.20454545454545,
                "pitch": 76,
                "velocity": 64,
                "duration": 2.5613636363636374,
                "tempo": 120.0
            },
            {
                "start_time": 55.45227272727273,
                "end_time": 58.611363636363635,
                "pitch": 56,
                "velocity": 64,
                "duration": 3.1590909090909065,
                "tempo": 120.0
            },
            {
                "start_time": 58.20454545454545,
                "end_time": 58.611363636363635,
                "pitch": 72,
                "velocity": 64,
                "duration": 0.4068181818181813,
                "tempo": 120.0
            },
            {
                "start_time": 58.611363636363635,
                "end_time": 58.81818181818181,
                "pitch": 71,
                "velocity": 64,
                "duration": 0.20681818181817846,
                "tempo": 120.0
            },
            {
                "start_time": 58.20454545454545,
                "end_time": 58.81818181818181,
                "pitch": 76,
                "velocity": 64,
                "duration": 0.6136363636363598,
                "tempo": 120.0
            },
            {
                "start_time": 58.81818181818181,
                "end_time": 58.91590909090909,
                "pitch": 72,
                "velocity": 64,
                "duration": 0.09772727272727622,
                "tempo": 120.0
            },
            {
                "start_time": 58.91590909090909,
                "end_time": 59.21818181818182,
                "pitch": 74,
                "velocity": 64,
                "duration": 0.30227272727272947,
                "tempo": 120.0
            },
            {
                "start_time": 58.91590909090909,
                "end_time": 59.21818181818182,
                "pitch": 74,
                "velocity": 64,
                "duration": 0.30227272727272947,
                "tempo": 120.0
            },
            {
                "start_time": 59.21818181818182,
                "end_time": 59.434090909090905,
                "pitch": 72,
                "velocity": 64,
                "duration": 0.2159090909090864,
                "tempo": 120.0
            },
            {
                "start_time": 59.21818181818182,
                "end_time": 59.434090909090905,
                "pitch": 72,
                "velocity": 64,
                "duration": 0.2159090909090864,
                "tempo": 120.0
            },
            {
                "start_time": 59.51590909090909,
                "end_time": 59.724999999999994,
                "pitch": 71,
                "velocity": 64,
                "duration": 0.20909090909090366,
                "tempo": 120.0
            },
            {
                "start_time": 59.81136363636363,
                "end_time": 60.775,
                "pitch": 72,
                "velocity": 64,
                "duration": 0.9636363636363683,
                "tempo": 120.0
            },
            {
                "start_time": 60.775,
                "end_time": 61.074999999999996,
                "pitch": 72,
                "velocity": 80,
                "duration": 0.29999999999999716,
                "tempo": 120.0
            },
            {
                "start_time": 61.074999999999996,
                "end_time": 61.365909090909085,
                "pitch": 74,
                "velocity": 80,
                "duration": 0.29090909090908923,
                "tempo": 120.0
            },
            {
                "start_time": 61.074999999999996,
                "end_time": 61.365909090909085,
                "pitch": 74,
                "velocity": 80,
                "duration": 0.29090909090908923,
                "tempo": 120.0
            },
            {
                "start_time": 58.81818181818181,
                "end_time": 61.365909090909085,
                "pitch": 76,
                "velocity": 64,
                "duration": 2.547727272727272,
                "tempo": 120.0
            },
            {
                "start_time": 61.365909090909085,
                "end_time": 61.77045454545454,
                "pitch": 76,
                "velocity": 80,
                "duration": 0.4045454545454561,
                "tempo": 120.0
            },
            {
                "start_time": 61.365909090909085,
                "end_time": 61.77045454545454,
                "pitch": 76,
                "velocity": 80,
                "duration": 0.4045454545454561,
                "tempo": 120.0
            },
            {
                "start_time": 61.77045454545454,
                "end_time": 61.97954545454545,
                "pitch": 74,
                "velocity": 80,
                "duration": 0.20909090909091077,
                "tempo": 120.0
            },
            {
                "start_time": 61.77045454545454,
                "end_time": 61.97954545454545,
                "pitch": 74,
                "velocity": 80,
                "duration": 0.20909090909091077,
                "tempo": 120.0
            },
            {
                "start_time": 61.97954545454545,
                "end_time": 62.07954545454545,
                "pitch": 76,
                "velocity": 80,
                "duration": 0.10000000000000142,
                "tempo": 120.0
            },
            {
                "start_time": 61.97954545454545,
                "end_time": 62.07954545454545,
                "pitch": 76,
                "velocity": 80,
                "duration": 0.10000000000000142,
                "tempo": 120.0
            },
            {
                "start_time": 62.07954545454545,
                "end_time": 62.381818181818176,
                "pitch": 77,
                "velocity": 80,
                "duration": 0.30227272727272236,
                "tempo": 120.0
            },
            {
                "start_time": 62.381818181818176,
                "end_time": 62.59772727272727,
                "pitch": 76,
                "velocity": 80,
                "duration": 0.2159090909090935,
                "tempo": 120.0
            },
            {
                "start_time": 62.68181818181818,
                "end_time": 62.89090909090909,
                "pitch": 74,
                "velocity": 80,
                "duration": 0.20909090909091077,
                "tempo": 120.0
            },
            {
                "start_time": 62.974999999999994,
                "end_time": 63.98863636363636,
                "pitch": 72,
                "velocity": 80,
                "duration": 1.0136363636363654,
                "tempo": 120.0
            },
            {
                "start_time": 63.98863636363636,
                "end_time": 64.28863636363636,
                "pitch": 72,
                "velocity": 80,
                "duration": 0.29999999999999716,
                "tempo": 120.0
            },
            {
                "start_time": 64.28863636363636,
                "end_time": 64.58181818181818,
                "pitch": 74,
                "velocity": 80,
                "duration": 0.29318181818182154,
                "tempo": 120.0
            },
            {
                "start_time": 64.28863636363636,
                "end_time": 64.58181818181818,
                "pitch": 74,
                "velocity": 80,
                "duration": 0.29318181818182154,
                "tempo": 120.0
            },
            {
                "start_time": 64.58181818181818,
                "end_time": 64.98636363636363,
                "pitch": 76,
                "velocity": 80,
                "duration": 0.4045454545454561,
                "tempo": 120.0
            },
            {
                "start_time": 64.58181818181818,
                "end_time": 64.98636363636363,
                "pitch": 76,
                "velocity": 80,
                "duration": 0.4045454545454561,
                "tempo": 120.0
            },
            {
                "start_time": 64.98636363636363,
                "end_time": 65.19318181818181,
                "pitch": 74,
                "velocity": 80,
                "duration": 0.20681818181817846,
                "tempo": 120.0
            },
            {
                "start_time": 64.98636363636363,
                "end_time": 65.19318181818181,
                "pitch": 74,
                "velocity": 80,
                "duration": 0.20681818181817846,
                "tempo": 120.0
            },
            {
                "start_time": 65.19318181818181,
                "end_time": 65.29545454545455,
                "pitch": 76,
                "velocity": 80,
                "duration": 0.10227272727273373,
                "tempo": 120.0
            },
            {
                "start_time": 65.19318181818181,
                "end_time": 65.29545454545455,
                "pitch": 76,
                "velocity": 80,
                "duration": 0.10227272727273373,
                "tempo": 120.0
            },
            {
                "start_time": 65.29545454545455,
                "end_time": 65.59545454545454,
                "pitch": 77,
                "velocity": 80,
                "duration": 0.29999999999999716,
                "tempo": 120.0
            },
            {
                "start_time": 65.59545454545454,
                "end_time": 65.81363636363636,
                "pitch": 76,
                "velocity": 80,
                "duration": 0.2181818181818187,
                "tempo": 120.0
            },
            {
                "start_time": 65.89772727272727,
                "end_time": 66.11363636363636,
                "pitch": 74,
                "velocity": 80,
                "duration": 0.2159090909090935,
                "tempo": 120.0
            },
            {
                "start_time": 66.19772727272726,
                "end_time": 66.54090909090908,
                "pitch": 76,
                "velocity": 80,
                "duration": 0.3431818181818187,
                "tempo": 120.0
            }
        ],
        "Vibraphone": [
            {
                "start_time": 27.788636363636364,
                "end_time": 27.929545454545455,
                "pitch": 64,
                "velocity": 101,
                "duration": 0.14090909090909065,
                "tempo": 120.0
            },
            {
                "start_time": 28.034090909090907,
                "end_time": 28.174999999999997,
                "pitch": 64,
                "velocity": 101,
                "duration": 0.14090909090909065,
                "tempo": 120.0
            },
            {
                "start_time": 28.279545454545453,
                "end_time": 28.427272727272726,
                "pitch": 64,
                "velocity": 101,
                "duration": 0.14772727272727337,
                "tempo": 120.0
            },
            {
                "start_time": 28.538636363636364,
                "end_time": 28.68409090909091,
                "pitch": 64,
                "velocity": 101,
                "duration": 0.14545454545454461,
                "tempo": 120.0
            },
            {
                "start_time": 44.99772727272727,
                "end_time": 45.24090909090909,
                "pitch": 69,
                "velocity": 101,
                "duration": 0.24318181818182438,
                "tempo": 120.0
            },
            {
                "start_time": 45.24090909090909,
                "end_time": 45.334090909090904,
                "pitch": 72,
                "velocity": 101,
                "duration": 0.0931818181818116,
                "tempo": 120.0
            },
            {
                "start_time": 45.334090909090904,
                "end_time": 45.52272727272727,
                "pitch": 69,
                "velocity": 101,
                "duration": 0.1886363636363697,
                "tempo": 120.0
            },
            {
                "start_time": 45.24090909090909,
                "end_time": 45.52272727272727,
                "pitch": 76,
                "velocity": 101,
                "duration": 0.2818181818181813,
                "tempo": 120.0
            },
            {
                "start_time": 45.334090909090904,
                "end_time": 45.62045454545454,
                "pitch": 44,
                "velocity": 101,
                "duration": 0.2863636363636388,
                "tempo": 120.0
            },
            {
                "start_time": 45.52272727272727,
                "end_time": 45.62045454545454,
                "pitch": 72,
                "velocity": 101,
                "duration": 0.09772727272726911,
                "tempo": 120.0
            },
            {
                "start_time": 45.62045454545454,
                "end_time": 45.81363636363636,
                "pitch": 69,
                "velocity": 101,
                "duration": 0.19318181818182012,
                "tempo": 120.0
            },
            {
                "start_time": 45.52272727272727,
                "end_time": 45.81363636363636,
                "pitch": 76,
                "velocity": 101,
                "duration": 0.29090909090908923,
                "tempo": 120.0
            },
            {
                "start_time": 45.62045454545454,
                "end_time": 45.913636363636364,
                "pitch": 44,
                "velocity": 101,
                "duration": 0.29318181818182154,
                "tempo": 120.0
            },
            {
                "start_time": 45.81363636363636,
                "end_time": 45.913636363636364,
                "pitch": 72,
                "velocity": 101,
                "duration": 0.10000000000000142,
                "tempo": 120.0
            },
            {
                "start_time": 45.913636363636364,
                "end_time": 46.11590909090909,
                "pitch": 69,
                "velocity": 101,
                "duration": 0.20227272727272805,
                "tempo": 120.0
            },
            {
                "start_time": 45.81363636363636,
                "end_time": 46.11590909090909,
                "pitch": 76,
                "velocity": 101,
                "duration": 0.30227272727272947,
                "tempo": 120.0
            },
            {
                "start_time": 45.913636363636364,
                "end_time": 46.215909090909086,
                "pitch": 44,
                "velocity": 101,
                "duration": 0.30227272727272236,
                "tempo": 120.0
            },
            {
                "start_time": 46.11590909090909,
                "end_time": 46.215909090909086,
                "pitch": 72,
                "velocity": 101,
                "duration": 0.09999999999999432,
                "tempo": 120.0
            },
            {
                "start_time": 46.215909090909086,
                "end_time": 46.42272727272727,
                "pitch": 69,
                "velocity": 101,
                "duration": 0.20681818181818556,
                "tempo": 120.0
            },
            {
                "start_time": 46.11590909090909,
                "end_time": 46.42272727272727,
                "pitch": 76,
                "velocity": 101,
                "duration": 0.3068181818181799,
                "tempo": 120.0
            },
            {
                "start_time": 46.42272727272727,
                "end_time": 46.527272727272724,
                "pitch": 72,
                "velocity": 101,
                "duration": 0.10454545454545183,
                "tempo": 120.0
            },
            {
                "start_time": 46.215909090909086,
                "end_time": 46.52954545454545,
                "pitch": 44,
                "velocity": 101,
                "duration": 0.3136363636363626,
                "tempo": 120.0
            },
            {
                "start_time": 46.527272727272724,
                "end_time": 46.52954545454545,
                "pitch": 44,
                "velocity": 101,
                "duration": 0.0022727272727252057,
                "tempo": 120.0
            },
            {
                "start_time": 46.52954545454545,
                "end_time": 46.627272727272725,
                "pitch": 69,
                "velocity": 101,
                "duration": 0.09772727272727622,
                "tempo": 120.0
            },
            {
                "start_time": 46.627272727272725,
                "end_time": 46.72727272727273,
                "pitch": 71,
                "velocity": 101,
                "duration": 0.10000000000000142,
                "tempo": 120.0
            },
            {
                "start_time": 46.42272727272727,
                "end_time": 46.72727272727273,
                "pitch": 76,
                "velocity": 101,
                "duration": 0.3045454545454547,
                "tempo": 120.0
            },
            {
                "start_time": 46.72727272727273,
                "end_time": 46.82954545454545,
                "pitch": 72,
                "velocity": 101,
                "duration": 0.10227272727272663,
                "tempo": 120.0
            },
            {
                "start_time": 46.82954545454545,
                "end_time": 46.929545454545455,
                "pitch": 74,
                "velocity": 101,
                "duration": 0.10000000000000142,
                "tempo": 120.0
            },
            {
                "start_time": 46.929545454545455,
                "end_time": 47.027272727272724,
                "pitch": 71,
                "velocity": 101,
                "duration": 0.09772727272726911,
                "tempo": 120.0
            },
            {
                "start_time": 46.72727272727273,
                "end_time": 47.027272727272724,
                "pitch": 76,
                "velocity": 101,
                "duration": 0.29999999999999716,
                "tempo": 120.0
            },
            {
                "start_time": 47.027272727272724,
                "end_time": 47.12954545454545,
                "pitch": 72,
                "velocity": 101,
                "duration": 0.10227272727272663,
                "tempo": 120.0
            },
            {
                "start_time": 46.929545454545455,
                "end_time": 47.22727272727273,
                "pitch": 56,
                "velocity": 101,
                "duration": 0.29772727272727195,
                "tempo": 120.0
            },
            {
                "start_time": 47.12954545454545,
                "end_time": 47.22727272727273,
                "pitch": 74,
                "velocity": 101,
                "duration": 0.09772727272727622,
                "tempo": 120.0
            },
            {
                "start_time": 47.22727272727273,
                "end_time": 47.32272727272727,
                "pitch": 71,
                "velocity": 101,
                "duration": 0.0954545454545439,
                "tempo": 120.0
            },
            {
                "start_time": 47.027272727272724,
                "end_time": 47.32272727272727,
                "pitch": 76,
                "velocity": 101,
                "duration": 0.29545454545454675,
                "tempo": 120.0
            },
            {
                "start_time": 47.32272727272727,
                "end_time": 47.42272727272727,
                "pitch": 72,
                "velocity": 101,
                "duration": 0.10000000000000142,
                "tempo": 120.0
            },
            {
                "start_time": 47.22727272727273,
                "end_time": 47.52045454545454,
                "pitch": 56,
                "velocity": 101,
                "duration": 0.29318181818181444,
                "tempo": 120.0
            },
            {
                "start_time": 47.42272727272727,
                "end_time": 47.52045454545454,
                "pitch": 74,
                "velocity": 101,
                "duration": 0.09772727272726911,
                "tempo": 120.0
            },
            {
                "start_time": 47.52045454545454,
                "end_time": 47.62045454545454,
                "pitch": 71,
                "velocity": 101,
                "duration": 0.10000000000000142,
                "tempo": 120.0
            },
            {
                "start_time": 47.32272727272727,
                "end_time": 47.62045454545454,
                "pitch": 76,
                "velocity": 101,
                "duration": 0.29772727272727195,
                "tempo": 120.0
            },
            {
                "start_time": 47.62045454545454,
                "end_time": 47.72272727272727,
                "pitch": 72,
                "velocity": 101,
                "duration": 0.10227272727272663,
                "tempo": 120.0
            },
            {
                "start_time": 47.52045454545454,
                "end_time": 47.824999999999996,
                "pitch": 56,
                "velocity": 101,
                "duration": 0.3045454545454547,
                "tempo": 120.0
            },
            {
                "start_time": 47.72272727272727,
                "end_time": 47.824999999999996,
                "pitch": 74,
                "velocity": 101,
                "duration": 0.10227272727272663,
                "tempo": 120.0
            },
            {
                "start_time": 47.824999999999996,
                "end_time": 47.92727272727272,
                "pitch": 71,
                "velocity": 101,
                "duration": 0.10227272727272663,
                "tempo": 120.0
            },
            {
                "start_time": 47.62045454545454,
                "end_time": 47.92727272727272,
                "pitch": 76,
                "velocity": 101,
                "duration": 0.3068181818181799,
                "tempo": 120.0
            },
            {
                "start_time": 47.92727272727272,
                "end_time": 48.03181818181818,
                "pitch": 72,
                "velocity": 101,
                "duration": 0.10454545454545894,
                "tempo": 120.0
            },
            {
                "start_time": 47.824999999999996,
                "end_time": 48.13636363636363,
                "pitch": 56,
                "velocity": 101,
                "duration": 0.3113636363636374,
                "tempo": 120.0
            },
            {
                "start_time": 48.03181818181818,
                "end_time": 48.13636363636363,
                "pitch": 74,
                "velocity": 101,
                "duration": 0.10454545454545183,
                "tempo": 120.0
            },
            {
                "start_time": 48.13636363636363,
                "end_time": 48.23409090909091,
                "pitch": 71,
                "velocity": 101,
                "duration": 0.09772727272727622,
                "tempo": 120.0
            },
            {
                "start_time": 47.92727272727272,
                "end_time": 48.23409090909091,
                "pitch": 76,
                "velocity": 101,
                "duration": 0.306818181818187,
                "tempo": 120.0
            },
            {
                "start_time": 48.23409090909091,
                "end_time": 48.334090909090904,
                "pitch": 72,
                "velocity": 101,
                "duration": 0.09999999999999432,
                "tempo": 120.0
            },
            {
                "start_time": 48.334090909090904,
                "end_time": 48.43636363636364,
                "pitch": 74,
                "velocity": 101,
                "duration": 0.10227272727273373,
                "tempo": 120.0
            },
            {
                "start_time": 48.23409090909091,
                "end_time": 48.53636363636363,
                "pitch": 76,
                "velocity": 101,
                "duration": 0.30227272727272236,
                "tempo": 120.0
            },
            {
                "start_time": 48.43636363636364,
                "end_time": 48.53636363636363,
                "pitch": 76,
                "velocity": 101,
                "duration": 0.09999999999999432,
                "tempo": 120.0
            },
            {
                "start_time": 48.53636363636363,
                "end_time": 48.63409090909091,
                "pitch": 72,
                "velocity": 101,
                "duration": 0.09772727272727622,
                "tempo": 120.0
            },
            {
                "start_time": 48.63409090909091,
                "end_time": 48.736363636363635,
                "pitch": 74,
                "velocity": 101,
                "duration": 0.10227272727272663,
                "tempo": 120.0
            },
            {
                "start_time": 48.736363636363635,
                "end_time": 48.834090909090904,
                "pitch": 76,
                "velocity": 101,
                "duration": 0.09772727272726911,
                "tempo": 120.0
            },
            {
                "start_time": 48.834090909090904,
                "end_time": 48.929545454545455,
                "pitch": 72,
                "velocity": 101,
                "duration": 0.09545454545455101,
                "tempo": 120.0
            },
            {
                "start_time": 48.929545454545455,
                "end_time": 49.02954545454545,
                "pitch": 74,
                "velocity": 101,
                "duration": 0.09999999999999432,
                "tempo": 120.0
            },
            {
                "start_time": 49.02954545454545,
                "end_time": 49.127272727272725,
                "pitch": 76,
                "velocity": 101,
                "duration": 0.09772727272727622,
                "tempo": 120.0
            },
            {
                "start_time": 49.127272727272725,
                "end_time": 49.22727272727273,
                "pitch": 72,
                "velocity": 101,
                "duration": 0.10000000000000142,
                "tempo": 120.0
            },
            {
                "start_time": 49.22727272727273,
                "end_time": 49.32954545454545,
                "pitch": 74,
                "velocity": 101,
                "duration": 0.10227272727272663,
                "tempo": 120.0
            },
            {
                "start_time": 49.32954545454545,
                "end_time": 49.43181818181818,
                "pitch": 76,
                "velocity": 101,
                "duration": 0.10227272727272663,
                "tempo": 120.0
            },
            {
                "start_time": 49.43181818181818,
                "end_time": 49.53636363636363,
                "pitch": 72,
                "velocity": 101,
                "duration": 0.10454545454545183,
                "tempo": 120.0
            },
            {
                "start_time": 49.53636363636363,
                "end_time": 49.63863636363636,
                "pitch": 74,
                "velocity": 101,
                "duration": 0.10227272727272663,
                "tempo": 120.0
            },
            {
                "start_time": 49.63863636363636,
                "end_time": 49.74318181818182,
                "pitch": 76,
                "velocity": 101,
                "duration": 0.10454545454545894,
                "tempo": 120.0
            },
            {
                "start_time": 49.74318181818182,
                "end_time": 49.84318181818182,
                "pitch": 72,
                "velocity": 101,
                "duration": 0.10000000000000142,
                "tempo": 120.0
            },
            {
                "start_time": 49.84318181818182,
                "end_time": 49.94090909090909,
                "pitch": 74,
                "velocity": 101,
                "duration": 0.09772727272726911,
                "tempo": 120.0
            },
            {
                "start_time": 49.84318181818182,
                "end_time": 49.94090909090909,
                "pitch": 74,
                "velocity": 101,
                "duration": 0.09772727272726911,
                "tempo": 120.0
            },
            {
                "start_time": 49.94090909090909,
                "end_time": 50.143181818181816,
                "pitch": 76,
                "velocity": 101,
                "duration": 0.20227272727272805,
                "tempo": 120.0
            },
            {
                "start_time": 50.143181818181816,
                "end_time": 50.24318181818182,
                "pitch": 74,
                "velocity": 101,
                "duration": 0.10000000000000142,
                "tempo": 120.0
            },
            {
                "start_time": 50.24318181818182,
                "end_time": 50.44090909090909,
                "pitch": 76,
                "velocity": 101,
                "duration": 0.19772727272727053,
                "tempo": 120.0
            },
            {
                "start_time": 50.44090909090909,
                "end_time": 50.53636363636363,
                "pitch": 74,
                "velocity": 101,
                "duration": 0.0954545454545439,
                "tempo": 120.0
            },
            {
                "start_time": 50.53636363636363,
                "end_time": 50.736363636363635,
                "pitch": 76,
                "velocity": 101,
                "duration": 0.20000000000000284,
                "tempo": 120.0
            },
            {
                "start_time": 50.736363636363635,
                "end_time": 50.834090909090904,
                "pitch": 74,
                "velocity": 101,
                "duration": 0.09772727272726911,
                "tempo": 120.0
            },
            {
                "start_time": 50.834090909090904,
                "end_time": 51.038636363636364,
                "pitch": 76,
                "velocity": 101,
                "duration": 0.20454545454546036,
                "tempo": 120.0
            },
            {
                "start_time": 51.038636363636364,
                "end_time": 51.143181818181816,
                "pitch": 74,
                "velocity": 101,
                "duration": 0.10454545454545183,
                "tempo": 120.0
            },
            {
                "start_time": 51.143181818181816,
                "end_time": 51.349999999999994,
                "pitch": 76,
                "velocity": 101,
                "duration": 0.20681818181817846,
                "tempo": 120.0
            }
        ]
    }
}