{
    "track_id": "10 Underground Dungeon (The Lost Talisman)",
    "mood": "angry",
    "instruments": {
        "Lead 2 (sawtooth)": [
            {
                "start_time": 0.5545454545454546,
                "end_time": 2.2704545454545455,
                "pitch": 65,
                "velocity": 64,
                "duration": 1.7159090909090908,
                "tempo": 120.0
            },
            {
                "start_time": 2.2704545454545455,
                "end_time": 3.745454545454545,
                "pitch": 63,
                "velocity": 64,
                "duration": 1.4749999999999996,
                "tempo": 120.0
            },
            {
                "start_time": 2.2704545454545455,
                "end_time": 3.745454545454545,
                "pitch": 65,
                "velocity": 64,
                "duration": 1.4749999999999996,
                "tempo": 120.0
            },
            {
                "start_time": 3.745454545454545,
                "end_time": 3.959090909090909,
                "pitch": 58,
                "velocity": 64,
                "duration": 0.21363636363636385,
                "tempo": 120.0
            },
            {
                "start_time": 3.959090909090909,
                "end_time": 4.61590909090909,
                "pitch": 61,
                "velocity": 64,
                "duration": 0.6568181818181813,
                "tempo": 120.0
            },
            {
                "start_time": 4.61590909090909,
                "end_time": 5.668181818181818,
                "pitch": 61,
                "velocity": 64,
                "duration": 1.0522727272727277,
                "tempo": 120.0
            },
            {
                "start_time": 5.668181818181818,
                "end_time": 6.322727272727272,
                "pitch": 60,
                "velocity": 64,
                "duration": 0.6545454545454543,
                "tempo": 120.0
            },
            {
                "start_time": 6.322727272727272,
                "end_time": 7.381818181818182,
                "pitch": 63,
                "velocity": 64,
                "duration": 1.0590909090909095,
                "tempo": 120.0
            },
            {
                "start_time": 3.745454545454545,
                "end_time": 9.084090909090909,
                "pitch": 65,
                "velocity": 64,
                "duration": 5.338636363636364,
                "tempo": 120.0
            },
            {
                "start_time": 7.384090909090909,
                "end_time": 9.084090909090909,
                "pitch": 65,
                "velocity": 64,
                "duration": 1.7000000000000002,
                "tempo": 120.0
            },
            {
                "start_time": 7.384090909090909,
                "end_time": 10.584090909090909,
                "pitch": 63,
                "velocity": 64,
                "duration": 3.2,
                "tempo": 120.0
            },
            {
                "start_time": 9.084090909090909,
                "end_time": 10.584090909090909,
                "pitch": 63,
                "velocity": 64,
                "duration": 1.5,
                "tempo": 120.0
            },
            {
                "start_time": 6.322727272727272,
                "end_time": 10.65,
                "pitch": 61,
                "velocity": 64,
                "duration": 4.327272727272728,
                "tempo": 120.0
            },
            {
                "start_time": 10.584090909090909,
                "end_time": 10.65,
                "pitch": 61,
                "velocity": 51,
                "duration": 0.06590909090909136,
                "tempo": 120.0
            },
            {
                "start_time": 10.652272727272727,
                "end_time": 10.718181818181817,
                "pitch": 61,
                "velocity": 51,
                "duration": 0.06590909090908958,
                "tempo": 120.0
            },
            {
                "start_time": 3.959090909090909,
                "end_time": 10.802272727272726,
                "pitch": 37,
                "velocity": 64,
                "duration": 6.843181818181817,
                "tempo": 120.0
            },
            {
                "start_time": 10.718181818181817,
                "end_time": 10.802272727272726,
                "pitch": 58,
                "velocity": 51,
                "duration": 0.084090909090909,
                "tempo": 120.0
            },
            {
                "start_time": 10.802272727272726,
                "end_time": 12.48409090909091,
                "pitch": 60,
                "velocity": 64,
                "duration": 1.6818181818181834,
                "tempo": 120.0
            },
            {
                "start_time": 12.48409090909091,
                "end_time": 12.915909090909091,
                "pitch": 77,
                "velocity": 80,
                "duration": 0.43181818181818166,
                "tempo": 120.0
            },
            {
                "start_time": 12.915909090909091,
                "end_time": 13.35,
                "pitch": 75,
                "velocity": 80,
                "duration": 0.43409090909090864,
                "tempo": 120.0
            },
            {
                "start_time": 13.35,
                "end_time": 13.774999999999999,
                "pitch": 80,
                "velocity": 80,
                "duration": 0.42499999999999893,
                "tempo": 120.0
            },
            {
                "start_time": 13.774999999999999,
                "end_time": 14.202272727272726,
                "pitch": 78,
                "velocity": 80,
                "duration": 0.4272727272727277,
                "tempo": 120.0
            },
            {
                "start_time": 14.202272727272726,
                "end_time": 14.311363636363636,
                "pitch": 78,
                "velocity": 80,
                "duration": 0.10909090909090935,
                "tempo": 120.0
            },
            {
                "start_time": 12.915909090909091,
                "end_time": 14.406818181818181,
                "pitch": 77,
                "velocity": 80,
                "duration": 1.4909090909090903,
                "tempo": 120.0
            },
            {
                "start_time": 14.311363636363636,
                "end_time": 14.406818181818181,
                "pitch": 77,
                "velocity": 80,
                "duration": 0.09545454545454568,
                "tempo": 120.0
            },
            {
                "start_time": 14.406818181818181,
                "end_time": 14.518181818181818,
                "pitch": 75,
                "velocity": 80,
                "duration": 0.11136363636363633,
                "tempo": 120.0
            },
            {
                "start_time": 14.406818181818181,
                "end_time": 15.056818181818182,
                "pitch": 77,
                "velocity": 80,
                "duration": 0.6500000000000004,
                "tempo": 120.0
            },
            {
                "start_time": 14.518181818181818,
                "end_time": 15.056818181818182,
                "pitch": 77,
                "velocity": 80,
                "duration": 0.538636363636364,
                "tempo": 120.0
            },
            {
                "start_time": 15.056818181818182,
                "end_time": 15.375,
                "pitch": 77,
                "velocity": 80,
                "duration": 0.31818181818181834,
                "tempo": 120.0
            },
            {
                "start_time": 15.375,
                "end_time": 15.679545454545453,
                "pitch": 77,
                "velocity": 80,
                "duration": 0.3045454545454529,
                "tempo": 120.0
            },
            {
                "start_time": 15.679545454545453,
                "end_time": 15.681818181818182,
                "pitch": 90,
                "velocity": 80,
                "duration": 0.0022727272727287584,
                "tempo": 120.0
            },
            {
                "start_time": 13.774999999999999,
                "end_time": 15.886363636363635,
                "pitch": 27,
                "velocity": 80,
                "duration": 2.1113636363636363,
                "tempo": 120.0
            },
            {
                "start_time": 15.681818181818182,
                "end_time": 15.886363636363635,
                "pitch": 80,
                "velocity": 80,
                "duration": 0.20454545454545325,
                "tempo": 120.0
            },
            {
                "start_time": 15.886363636363635,
                "end_time": 16.004545454545454,
                "pitch": 77,
                "velocity": 80,
                "duration": 0.11818181818181905,
                "tempo": 120.0
            },
            {
                "start_time": 16.004545454545454,
                "end_time": 16.104545454545455,
                "pitch": 77,
                "velocity": 80,
                "duration": 0.10000000000000142,
                "tempo": 120.0
            },
            {
                "start_time": 14.518181818181818,
                "end_time": 16.204545454545453,
                "pitch": 75,
                "velocity": 80,
                "duration": 1.6863636363636356,
                "tempo": 120.0
            },
            {
                "start_time": 16.104545454545455,
                "end_time": 16.204545454545453,
                "pitch": 75,
                "velocity": 80,
                "duration": 0.09999999999999787,
                "tempo": 120.0
            },
            {
                "start_time": 16.104545454545455,
                "end_time": 16.763636363636362,
                "pitch": 77,
                "velocity": 80,
                "duration": 0.6590909090909065,
                "tempo": 120.0
            },
            {
                "start_time": 16.204545454545453,
                "end_time": 16.763636363636362,
                "pitch": 77,
                "velocity": 80,
                "duration": 0.5590909090909086,
                "tempo": 120.0
            },
            {
                "start_time": 16.763636363636362,
                "end_time": 17.081818181818182,
                "pitch": 70,
                "velocity": 80,
                "duration": 0.3181818181818201,
                "tempo": 120.0
            },
            {
                "start_time": 12.48409090909091,
                "end_time": 17.388636363636362,
                "pitch": 72,
                "velocity": 80,
                "duration": 4.9045454545454525,
                "tempo": 120.0
            },
            {
                "start_time": 17.081818181818182,
                "end_time": 17.388636363636362,
                "pitch": 72,
                "velocity": 80,
                "duration": 0.3068181818181799,
                "tempo": 120.0
            },
            {
                "start_time": 17.388636363636362,
                "end_time": 17.59318181818182,
                "pitch": 72,
                "velocity": 80,
                "duration": 0.2045454545454568,
                "tempo": 120.0
            },
            {
                "start_time": 17.59318181818182,
                "end_time": 17.695454545454545,
                "pitch": 73,
                "velocity": 80,
                "duration": 0.10227272727272663,
                "tempo": 120.0
            },
            {
                "start_time": 16.204545454545453,
                "end_time": 17.81590909090909,
                "pitch": 75,
                "velocity": 80,
                "duration": 1.611363636363638,
                "tempo": 120.0
            },
            {
                "start_time": 17.695454545454545,
                "end_time": 17.81590909090909,
                "pitch": 75,
                "velocity": 80,
                "duration": 0.12045454545454604,
                "tempo": 120.0
            },
            {
                "start_time": 17.81590909090909,
                "end_time": 17.918181818181818,
                "pitch": 75,
                "velocity": 80,
                "duration": 0.10227272727272663,
                "tempo": 120.0
            },
            {
                "start_time": 17.918181818181818,
                "end_time": 18.454545454545453,
                "pitch": 73,
                "velocity": 80,
                "duration": 0.5363636363636353,
                "tempo": 120.0
            },
            {
                "start_time": 18.454545454545453,
                "end_time": 18.772727272727273,
                "pitch": 75,
                "velocity": 80,
                "duration": 0.3181818181818201,
                "tempo": 120.0
            },
            {
                "start_time": 18.772727272727273,
                "end_time": 19.08863636363636,
                "pitch": 77,
                "velocity": 80,
                "duration": 0.3159090909090878,
                "tempo": 120.0
            },
            {
                "start_time": 18.772727272727273,
                "end_time": 19.30909090909091,
                "pitch": 75,
                "velocity": 80,
                "duration": 0.5363636363636353,
                "tempo": 120.0
            },
            {
                "start_time": 19.08863636363636,
                "end_time": 19.30909090909091,
                "pitch": 75,
                "velocity": 80,
                "duration": 0.22045454545454746,
                "tempo": 120.0
            },
            {
                "start_time": 19.30909090909091,
                "end_time": 19.625,
                "pitch": 72,
                "velocity": 80,
                "duration": 0.31590909090909136,
                "tempo": 120.0
            },
            {
                "start_time": 17.081818181818182,
                "end_time": 19.943181818181817,
                "pitch": 49,
                "velocity": 80,
                "duration": 2.8613636363636346,
                "tempo": 120.0
            },
            {
                "start_time": 19.625,
                "end_time": 19.943181818181817,
                "pitch": 70,
                "velocity": 80,
                "duration": 0.31818181818181657,
                "tempo": 120.0
            },
            {
                "start_time": 19.943181818181817,
                "end_time": 21.00681818181818,
                "pitch": 72,
                "velocity": 80,
                "duration": 1.0636363636363626,
                "tempo": 120.0
            },
            {
                "start_time": 19.08863636363636,
                "end_time": 21.10909090909091,
                "pitch": 77,
                "velocity": 80,
                "duration": 2.020454545454548,
                "tempo": 120.0
            },
            {
                "start_time": 21.00681818181818,
                "end_time": 21.10909090909091,
                "pitch": 77,
                "velocity": 80,
                "duration": 0.10227272727273018,
                "tempo": 120.0
            },
            {
                "start_time": 21.10909090909091,
                "end_time": 21.229545454545452,
                "pitch": 77,
                "velocity": 80,
                "duration": 0.12045454545454248,
                "tempo": 120.0
            },
            {
                "start_time": 19.30909090909091,
                "end_time": 21.331818181818182,
                "pitch": 75,
                "velocity": 80,
                "duration": 2.0227272727272734,
                "tempo": 120.0
            },
            {
                "start_time": 21.229545454545452,
                "end_time": 21.331818181818182,
                "pitch": 75,
                "velocity": 80,
                "duration": 0.10227272727273018,
                "tempo": 120.0
            },
            {
                "start_time": 21.229545454545452,
                "end_time": 21.847727272727273,
                "pitch": 77,
                "velocity": 80,
                "duration": 0.6181818181818208,
                "tempo": 120.0
            },
            {
                "start_time": 21.331818181818182,
                "end_time": 21.847727272727273,
                "pitch": 77,
                "velocity": 80,
                "duration": 0.5159090909090907,
                "tempo": 120.0
            },
            {
                "start_time": 21.847727272727273,
                "end_time": 22.163636363636364,
                "pitch": 77,
                "velocity": 80,
                "duration": 0.31590909090909136,
                "tempo": 120.0
            },
            {
                "start_time": 22.163636363636364,
                "end_time": 22.502272727272725,
                "pitch": 77,
                "velocity": 80,
                "duration": 0.3386363636363612,
                "tempo": 120.0
            },
            {
                "start_time": 22.502272727272725,
                "end_time": 22.722727272727273,
                "pitch": 80,
                "velocity": 80,
                "duration": 0.22045454545454746,
                "tempo": 120.0
            },
            {
                "start_time": 15.886363636363635,
                "end_time": 22.724999999999998,
                "pitch": 27,
                "velocity": 80,
                "duration": 6.838636363636363,
                "tempo": 120.0
            },
            {
                "start_time": 22.722727272727273,
                "end_time": 22.724999999999998,
                "pitch": 27,
                "velocity": 80,
                "duration": 0.0022727272727252057,
                "tempo": 120.0
            },
            {
                "start_time": 22.724999999999998,
                "end_time": 22.82272727272727,
                "pitch": 77,
                "velocity": 80,
                "duration": 0.09772727272727266,
                "tempo": 120.0
            },
            {
                "start_time": 22.825,
                "end_time": 22.922727272727272,
                "pitch": 77,
                "velocity": 80,
                "duration": 0.09772727272727266,
                "tempo": 120.0
            },
            {
                "start_time": 21.331818181818182,
                "end_time": 23.04090909090909,
                "pitch": 75,
                "velocity": 80,
                "duration": 1.7090909090909072,
                "tempo": 120.0
            },
            {
                "start_time": 22.922727272727272,
                "end_time": 23.04090909090909,
                "pitch": 75,
                "velocity": 80,
                "duration": 0.11818181818181728,
                "tempo": 120.0
            },
            {
                "start_time": 22.922727272727272,
                "end_time": 23.56590909090909,
                "pitch": 77,
                "velocity": 80,
                "duration": 0.6431818181818194,
                "tempo": 120.0
            },
            {
                "start_time": 23.04090909090909,
                "end_time": 23.56590909090909,
                "pitch": 77,
                "velocity": 80,
                "duration": 0.5250000000000021,
                "tempo": 120.0
            },
            {
                "start_time": 23.56590909090909,
                "end_time": 23.875,
                "pitch": 77,
                "velocity": 80,
                "duration": 0.30909090909090864,
                "tempo": 120.0
            },
            {
                "start_time": 23.04090909090909,
                "end_time": 24.206818181818182,
                "pitch": 75,
                "velocity": 80,
                "duration": 1.1659090909090928,
                "tempo": 120.0
            },
            {
                "start_time": 23.875,
                "end_time": 24.206818181818182,
                "pitch": 75,
                "velocity": 80,
                "duration": 0.331818181818182,
                "tempo": 120.0
            },
            {
                "start_time": 23.875,
                "end_time": 24.40681818181818,
                "pitch": 77,
                "velocity": 80,
                "duration": 0.5318181818181813,
                "tempo": 120.0
            },
            {
                "start_time": 24.206818181818182,
                "end_time": 24.40681818181818,
                "pitch": 77,
                "velocity": 80,
                "duration": 0.1999999999999993,
                "tempo": 120.0
            },
            {
                "start_time": 24.40681818181818,
                "end_time": 24.73409090909091,
                "pitch": 73,
                "velocity": 80,
                "duration": 0.32727272727272805,
                "tempo": 120.0
            },
            {
                "start_time": 19.625,
                "end_time": 24.73409090909091,
                "pitch": 76,
                "velocity": 80,
                "duration": 5.109090909090909,
                "tempo": 120.0
            },
            {
                "start_time": 24.73409090909091,
                "end_time": 25.052272727272726,
                "pitch": 70,
                "velocity": 80,
                "duration": 0.31818181818181657,
                "tempo": 120.0
            },
            {
                "start_time": 19.943181818181817,
                "end_time": 25.054545454545455,
                "pitch": 49,
                "velocity": 80,
                "duration": 5.111363636363638,
                "tempo": 120.0
            },
            {
                "start_time": 25.052272727272726,
                "end_time": 25.054545454545455,
                "pitch": 49,
                "velocity": 80,
                "duration": 0.0022727272727287584,
                "tempo": 120.0
            },
            {
                "start_time": 25.054545454545455,
                "end_time": 25.709090909090907,
                "pitch": 73,
                "velocity": 80,
                "duration": 0.6545454545454525,
                "tempo": 120.0
            },
            {
                "start_time": 24.73409090909091,
                "end_time": 25.709090909090907,
                "pitch": 76,
                "velocity": 80,
                "duration": 0.9749999999999979,
                "tempo": 120.0
            },
            {
                "start_time": 25.709090909090907,
                "end_time": 25.80909090909091,
                "pitch": 70,
                "velocity": 80,
                "duration": 0.10000000000000142,
                "tempo": 120.0
            },
            {
                "start_time": 21.00681818181818,
                "end_time": 25.909090909090907,
                "pitch": 72,
                "velocity": 80,
                "duration": 4.902272727272727,
                "tempo": 120.0
            },
            {
                "start_time": 25.80909090909091,
                "end_time": 25.909090909090907,
                "pitch": 72,
                "velocity": 80,
                "duration": 0.09999999999999787,
                "tempo": 120.0
            },
            {
                "start_time": 25.909090909090907,
                "end_time": 26.125,
                "pitch": 72,
                "velocity": 80,
                "duration": 0.2159090909090935,
                "tempo": 120.0
            },
            {
                "start_time": 26.125,
                "end_time": 26.452272727272724,
                "pitch": 73,
                "velocity": 80,
                "duration": 0.3272727272727245,
                "tempo": 120.0
            },
            {
                "start_time": 24.206818181818182,
                "end_time": 26.452272727272724,
                "pitch": 75,
                "velocity": 80,
                "duration": 2.2454545454545425,
                "tempo": 120.0
            },
            {
                "start_time": 26.452272727272724,
                "end_time": 26.768181818181816,
                "pitch": 72,
                "velocity": 80,
                "duration": 0.31590909090909136,
                "tempo": 120.0
            },
            {
                "start_time": 9.084090909090909,
                "end_time": 27.813636363636363,
                "pitch": 65,
                "velocity": 64,
                "duration": 18.729545454545452,
                "tempo": 120.0
            },
            {
                "start_time": 26.452272727272724,
                "end_time": 27.813636363636363,
                "pitch": 75,
                "velocity": 80,
                "duration": 1.361363636363638,
                "tempo": 120.0
            },
            {
                "start_time": 26.768181818181816,
                "end_time": 27.813636363636363,
                "pitch": 75,
                "velocity": 80,
                "duration": 1.0454545454545467,
                "tempo": 120.0
            },
            {
                "start_time": 10.802272727272726,
                "end_time": 27.93181818181818,
                "pitch": 37,
                "velocity": 64,
                "duration": 17.129545454545454,
                "tempo": 120.0
            },
            {
                "start_time": 27.813636363636363,
                "end_time": 27.93181818181818,
                "pitch": 58,
                "velocity": 101,
                "duration": 0.11818181818181728,
                "tempo": 120.0
            },
            {
                "start_time": 27.93181818181818,
                "end_time": 28.034090909090907,
                "pitch": 60,
                "velocity": 101,
                "duration": 0.10227272727272663,
                "tempo": 120.0
            },
            {
                "start_time": 28.034090909090907,
                "end_time": 28.136363636363637,
                "pitch": 60,
                "velocity": 101,
                "duration": 0.10227272727273018,
                "tempo": 120.0
            },
            {
                "start_time": 10.584090909090909,
                "end_time": 28.25681818181818,
                "pitch": 63,
                "velocity": 51,
                "duration": 17.672727272727272,
                "tempo": 120.0
            },
            {
                "start_time": 28.136363636363637,
                "end_time": 28.25681818181818,
                "pitch": 63,
                "velocity": 101,
                "duration": 0.12045454545454248,
                "tempo": 120.0
            },
            {
                "start_time": 27.813636363636363,
                "end_time": 28.7,
                "pitch": 65,
                "velocity": 101,
                "duration": 0.8863636363636367,
                "tempo": 120.0
            },
            {
                "start_time": 28.25681818181818,
                "end_time": 28.7,
                "pitch": 65,
                "velocity": 101,
                "duration": 0.4431818181818201,
                "tempo": 120.0
            },
            {
                "start_time": 28.7,
                "end_time": 29.009090909090908,
                "pitch": 65,
                "velocity": 101,
                "duration": 0.30909090909090864,
                "tempo": 120.0
            },
            {
                "start_time": 28.25681818181818,
                "end_time": 29.320454545454545,
                "pitch": 63,
                "velocity": 101,
                "duration": 1.0636363636363662,
                "tempo": 120.0
            },
            {
                "start_time": 29.009090909090908,
                "end_time": 29.320454545454545,
                "pitch": 63,
                "velocity": 101,
                "duration": 0.3113636363636374,
                "tempo": 120.0
            },
            {
                "start_time": 28.136363636363637,
                "end_time": 29.534090909090907,
                "pitch": 61,
                "velocity": 101,
                "duration": 1.3977272727272698,
                "tempo": 120.0
            },
            {
                "start_time": 29.320454545454545,
                "end_time": 29.534090909090907,
                "pitch": 61,
                "velocity": 101,
                "duration": 0.21363636363636118,
                "tempo": 120.0
            },
            {
                "start_time": 29.320454545454545,
                "end_time": 29.63181818181818,
                "pitch": 63,
                "velocity": 101,
                "duration": 0.31136363636363384,
                "tempo": 120.0
            },
            {
                "start_time": 29.534090909090907,
                "end_time": 29.63181818181818,
                "pitch": 63,
                "velocity": 101,
                "duration": 0.09772727272727266,
                "tempo": 120.0
            },
            {
                "start_time": 29.009090909090908,
                "end_time": 29.63181818181818,
                "pitch": 65,
                "velocity": 101,
                "duration": 0.6227272727272712,
                "tempo": 120.0
            },
            {
                "start_time": 29.63181818181818,
                "end_time": 29.75,
                "pitch": 58,
                "velocity": 101,
                "duration": 0.11818181818182083,
                "tempo": 120.0
            },
            {
                "start_time": 29.75,
                "end_time": 29.849999999999998,
                "pitch": 55,
                "velocity": 101,
                "duration": 0.09999999999999787,
                "tempo": 120.0
            },
            {
                "start_time": 29.849999999999998,
                "end_time": 29.96590909090909,
                "pitch": 55,
                "velocity": 101,
                "duration": 0.11590909090909207,
                "tempo": 120.0
            },
            {
                "start_time": 29.96590909090909,
                "end_time": 30.068181818181817,
                "pitch": 51,
                "velocity": 101,
                "duration": 0.10227272727272663,
                "tempo": 120.0
            },
            {
                "start_time": 29.96590909090909,
                "end_time": 30.186363636363634,
                "pitch": 53,
                "velocity": 101,
                "duration": 0.2204545454545439,
                "tempo": 120.0
            },
            {
                "start_time": 30.068181818181817,
                "end_time": 30.186363636363634,
                "pitch": 53,
                "velocity": 101,
                "duration": 0.11818181818181728,
                "tempo": 120.0
            },
            {
                "start_time": 30.186363636363634,
                "end_time": 30.28863636363636,
                "pitch": 53,
                "velocity": 101,
                "duration": 0.10227272727272663,
                "tempo": 120.0
            },
            {
                "start_time": 30.28863636363636,
                "end_time": 30.29090909090909,
                "pitch": 67,
                "velocity": 101,
                "duration": 0.0022727272727287584,
                "tempo": 120.0
            },
            {
                "start_time": 27.93181818181818,
                "end_time": 30.393181818181816,
                "pitch": 37,
                "velocity": 101,
                "duration": 2.461363636363636,
                "tempo": 120.0
            },
            {
                "start_time": 30.29090909090909,
                "end_time": 30.393181818181816,
                "pitch": 58,
                "velocity": 101,
                "duration": 0.10227272727272663,
                "tempo": 120.0
            },
            {
                "start_time": 29.534090909090907,
                "end_time": 30.504545454545454,
                "pitch": 61,
                "velocity": 101,
                "duration": 0.9704545454545475,
                "tempo": 120.0
            },
            {
                "start_time": 30.393181818181816,
                "end_time": 30.504545454545454,
                "pitch": 61,
                "velocity": 101,
                "duration": 0.11136363636363811,
                "tempo": 120.0
            },
            {
                "start_time": 10.718181818181817,
                "end_time": 30.504545454545454,
                "pitch": 64,
                "velocity": 51,
                "duration": 19.78636363636364,
                "tempo": 120.0
            },
            {
                "start_time": 30.504545454545454,
                "end_time": 30.597727272727273,
                "pitch": 58,
                "velocity": 101,
                "duration": 0.0931818181818187,
                "tempo": 120.0
            },
            {
                "start_time": 30.393181818181816,
                "end_time": 30.599999999999998,
                "pitch": 37,
                "velocity": 101,
                "duration": 0.206818181818182,
                "tempo": 120.0
            },
            {
                "start_time": 30.599999999999998,
                "end_time": 30.709090909090907,
                "pitch": 61,
                "velocity": 101,
                "duration": 0.10909090909090935,
                "tempo": 120.0
            },
            {
                "start_time": 30.709090909090907,
                "end_time": 30.80681818181818,
                "pitch": 66,
                "velocity": 101,
                "duration": 0.09772727272727266,
                "tempo": 120.0
            },
            {
                "start_time": 29.63181818181818,
                "end_time": 30.922727272727272,
                "pitch": 65,
                "velocity": 101,
                "duration": 1.2909090909090928,
                "tempo": 120.0
            },
            {
                "start_time": 30.80681818181818,
                "end_time": 30.922727272727272,
                "pitch": 66,
                "velocity": 101,
                "duration": 0.11590909090909207,
                "tempo": 120.0
            },
            {
                "start_time": 30.922727272727272,
                "end_time": 31.02272727272727,
                "pitch": 63,
                "velocity": 101,
                "duration": 0.09999999999999787,
                "tempo": 120.0
            },
            {
                "start_time": 30.709090909090907,
                "end_time": 31.12272727272727,
                "pitch": 61,
                "velocity": 101,
                "duration": 0.413636363636364,
                "tempo": 120.0
            },
            {
                "start_time": 31.02272727272727,
                "end_time": 31.12272727272727,
                "pitch": 61,
                "velocity": 101,
                "duration": 0.10000000000000142,
                "tempo": 120.0
            },
            {
                "start_time": 31.12272727272727,
                "end_time": 31.24090909090909,
                "pitch": 61,
                "velocity": 101,
                "duration": 0.11818181818181728,
                "tempo": 120.0
            },
            {
                "start_time": 26.768181818181816,
                "end_time": 34.75,
                "pitch": 72,
                "velocity": 80,
                "duration": 7.981818181818184,
                "tempo": 120.0
            },
            {
                "start_time": 34.65,
                "end_time": 34.75,
                "pitch": 72,
                "velocity": 80,
                "duration": 0.10000000000000142,
                "tempo": 120.0
            },
            {
                "start_time": 34.75,
                "end_time": 34.85227272727273,
                "pitch": 73,
                "velocity": 80,
                "duration": 0.10227272727272663,
                "tempo": 120.0
            },
            {
                "start_time": 25.709090909090907,
                "end_time": 34.85227272727273,
                "pitch": 76,
                "velocity": 80,
                "duration": 9.14318181818182,
                "tempo": 120.0
            },
            {
                "start_time": 25.80909090909091,
                "end_time": 34.97272727272727,
                "pitch": 49,
                "velocity": 80,
                "duration": 9.16363636363636,
                "tempo": 120.0
            },
            {
                "start_time": 34.85227272727273,
                "end_time": 34.97272727272727,
                "pitch": 70,
                "velocity": 80,
                "duration": 0.12045454545454248,
                "tempo": 120.0
            },
            {
                "start_time": 34.97272727272727,
                "end_time": 35.18863636363636,
                "pitch": 73,
                "velocity": 80,
                "duration": 0.2159090909090935,
                "tempo": 120.0
            },
            {
                "start_time": 34.85227272727273,
                "end_time": 35.18863636363636,
                "pitch": 76,
                "velocity": 80,
                "duration": 0.336363636363636,
                "tempo": 120.0
            },
            {
                "start_time": 34.97272727272727,
                "end_time": 35.5,
                "pitch": 49,
                "velocity": 80,
                "duration": 0.5272727272727309,
                "tempo": 120.0
            },
            {
                "start_time": 35.18863636363636,
                "end_time": 35.5,
                "pitch": 70,
                "velocity": 80,
                "duration": 0.3113636363636374,
                "tempo": 120.0
            },
            {
                "start_time": 35.5,
                "end_time": 35.6,
                "pitch": 73,
                "velocity": 64,
                "duration": 0.10000000000000142,
                "tempo": 120.0
            },
            {
                "start_time": 35.6,
                "end_time": 35.715909090909086,
                "pitch": 73,
                "velocity": 64,
                "duration": 0.11590909090908497,
                "tempo": 120.0
            },
            {
                "start_time": 35.18863636363636,
                "end_time": 35.715909090909086,
                "pitch": 76,
                "velocity": 80,
                "duration": 0.5272727272727238,
                "tempo": 120.0
            },
            {
                "start_time": 35.715909090909086,
                "end_time": 35.81590909090909,
                "pitch": 70,
                "velocity": 64,
                "duration": 0.10000000000000142,
                "tempo": 120.0
            },
            {
                "start_time": 35.5,
                "end_time": 35.81818181818181,
                "pitch": 49,
                "velocity": 64,
                "duration": 0.318181818181813,
                "tempo": 120.0
            },
            {
                "start_time": 35.81818181818181,
                "end_time": 36.03409090909091,
                "pitch": 73,
                "velocity": 64,
                "duration": 0.2159090909090935,
                "tempo": 120.0
            },
            {
                "start_time": 35.715909090909086,
                "end_time": 36.03409090909091,
                "pitch": 76,
                "velocity": 64,
                "duration": 0.3181818181818201,
                "tempo": 120.0
            },
            {
                "start_time": 36.03409090909091,
                "end_time": 36.35909090909091,
                "pitch": 70,
                "velocity": 64,
                "duration": 0.32500000000000284,
                "tempo": 120.0
            },
            {
                "start_time": 35.81818181818181,
                "end_time": 36.361363636363635,
                "pitch": 49,
                "velocity": 64,
                "duration": 0.5431818181818215,
                "tempo": 120.0
            },
            {
                "start_time": 36.361363636363635,
                "end_time": 36.470454545454544,
                "pitch": 75,
                "velocity": 80,
                "duration": 0.10909090909090935,
                "tempo": 120.0
            },
            {
                "start_time": 36.470454545454544,
                "end_time": 36.56590909090909,
                "pitch": 75,
                "velocity": 80,
                "duration": 0.0954545454545439,
                "tempo": 120.0
            },
            {
                "start_time": 36.56590909090909,
                "end_time": 36.67727272727272,
                "pitch": 73,
                "velocity": 80,
                "duration": 0.11136363636363455,
                "tempo": 120.0
            },
            {
                "start_time": 36.67727272727272,
                "end_time": 36.88863636363636,
                "pitch": 75,
                "velocity": 80,
                "duration": 0.21136363636363598,
                "tempo": 120.0
            },
            {
                "start_time": 36.67727272727272,
                "end_time": 37.20681818181818,
                "pitch": 72,
                "velocity": 80,
                "duration": 0.5295454545454561,
                "tempo": 120.0
            },
            {
                "start_time": 36.88863636363636,
                "end_time": 37.20681818181818,
                "pitch": 72,
                "velocity": 80,
                "duration": 0.3181818181818201,
                "tempo": 120.0
            },
            {
                "start_time": 36.88863636363636,
                "end_time": 37.304545454545455,
                "pitch": 75,
                "velocity": 80,
                "duration": 0.41590909090909634,
                "tempo": 120.0
            },
            {
                "start_time": 37.20681818181818,
                "end_time": 37.304545454545455,
                "pitch": 75,
                "velocity": 64,
                "duration": 0.09772727272727622,
                "tempo": 120.0
            },
            {
                "start_time": 37.30681818181818,
                "end_time": 37.42272727272727,
                "pitch": 75,
                "velocity": 64,
                "duration": 0.11590909090909207,
                "tempo": 120.0
            },
            {
                "start_time": 37.20681818181818,
                "end_time": 37.52272727272727,
                "pitch": 72,
                "velocity": 64,
                "duration": 0.3159090909090949,
                "tempo": 120.0
            },
            {
                "start_time": 37.42272727272727,
                "end_time": 37.52272727272727,
                "pitch": 73,
                "velocity": 64,
                "duration": 0.10000000000000142,
                "tempo": 120.0
            },
            {
                "start_time": 37.52272727272727,
                "end_time": 37.73863636363636,
                "pitch": 75,
                "velocity": 64,
                "duration": 0.2159090909090864,
                "tempo": 120.0
            },
            {
                "start_time": 37.52272727272727,
                "end_time": 38.05681818181818,
                "pitch": 72,
                "velocity": 64,
                "duration": 0.5340909090909065,
                "tempo": 120.0
            },
            {
                "start_time": 37.73863636363636,
                "end_time": 38.05681818181818,
                "pitch": 72,
                "velocity": 64,
                "duration": 0.3181818181818201,
                "tempo": 120.0
            },
            {
                "start_time": 24.40681818181818,
                "end_time": 38.17045454545455,
                "pitch": 77,
                "velocity": 80,
                "duration": 13.763636363636365,
                "tempo": 120.0
            },
            {
                "start_time": 38.059090909090905,
                "end_time": 38.17045454545455,
                "pitch": 77,
                "velocity": 80,
                "duration": 0.11136363636364166,
                "tempo": 120.0
            },
            {
                "start_time": 37.73863636363636,
                "end_time": 38.268181818181816,
                "pitch": 75,
                "velocity": 64,
                "duration": 0.5295454545454561,
                "tempo": 120.0
            },
            {
                "start_time": 38.17045454545455,
                "end_time": 38.268181818181816,
                "pitch": 75,
                "velocity": 80,
                "duration": 0.09772727272726911,
                "tempo": 120.0
            },
            {
                "start_time": 38.059090909090905,
                "end_time": 38.38409090909091,
                "pitch": 72,
                "velocity": 80,
                "duration": 0.32500000000000284,
                "tempo": 120.0
            },
            {
                "start_time": 38.268181818181816,
                "end_time": 38.38409090909091,
                "pitch": 72,
                "velocity": 80,
                "duration": 0.11590909090909207,
                "tempo": 120.0
            },
            {
                "start_time": 38.38409090909091,
                "end_time": 38.48181818181818,
                "pitch": 72,
                "velocity": 80,
                "duration": 0.09772727272726911,
                "tempo": 120.0
            },
            {
                "start_time": 38.17045454545455,
                "end_time": 38.58181818181818,
                "pitch": 77,
                "velocity": 80,
                "duration": 0.4113636363636317,
                "tempo": 120.0
            },
            {
                "start_time": 38.48181818181818,
                "end_time": 38.58181818181818,
                "pitch": 77,
                "velocity": 80,
                "duration": 0.10000000000000142,
                "tempo": 120.0
            },
            {
                "start_time": 38.268181818181816,
                "end_time": 38.69772727272727,
                "pitch": 75,
                "velocity": 80,
                "duration": 0.4295454545454547,
                "tempo": 120.0
            },
            {
                "start_time": 38.58181818181818,
                "end_time": 38.69772727272727,
                "pitch": 75,
                "velocity": 80,
                "duration": 0.11590909090909207,
                "tempo": 120.0
            },
            {
                "start_time": 13.35,
                "end_time": 38.69772727272727,
                "pitch": 89,
                "velocity": 80,
                "duration": 25.34772727272727,
                "tempo": 120.0
            },
            {
                "start_time": 38.69772727272727,
                "end_time": 38.79772727272727,
                "pitch": 80,
                "velocity": 80,
                "duration": 0.10000000000000142,
                "tempo": 120.0
            },
            {
                "start_time": 16.763636363636362,
                "end_time": 38.91590909090909,
                "pitch": 78,
                "velocity": 80,
                "duration": 22.152272727272727,
                "tempo": 120.0
            },
            {
                "start_time": 38.79772727272727,
                "end_time": 38.91590909090909,
                "pitch": 78,
                "velocity": 80,
                "duration": 0.11818181818181728,
                "tempo": 120.0
            },
            {
                "start_time": 38.91590909090909,
                "end_time": 39.01590909090909,
                "pitch": 78,
                "velocity": 80,
                "duration": 0.10000000000000142,
                "tempo": 120.0
            },
            {
                "start_time": 38.58181818181818,
                "end_time": 39.13181818181818,
                "pitch": 77,
                "velocity": 80,
                "duration": 0.5500000000000043,
                "tempo": 120.0
            },
            {
                "start_time": 39.01590909090909,
                "end_time": 39.13181818181818,
                "pitch": 77,
                "velocity": 80,
                "duration": 0.11590909090909207,
                "tempo": 120.0
            },
            {
                "start_time": 39.13181818181818,
                "end_time": 39.23181818181818,
                "pitch": 75,
                "velocity": 80,
                "duration": 0.09999999999999432,
                "tempo": 120.0
            },
            {
                "start_time": 39.23181818181818,
                "end_time": 39.33181818181818,
                "pitch": 77,
                "velocity": 80,
                "duration": 0.10000000000000142,
                "tempo": 120.0
            },
            {
                "start_time": 38.48181818181818,
                "end_time": 39.445454545454545,
                "pitch": 73,
                "velocity": 80,
                "duration": 0.9636363636363683,
                "tempo": 120.0
            },
            {
                "start_time": 39.334090909090904,
                "end_time": 39.445454545454545,
                "pitch": 73,
                "velocity": 80,
                "duration": 0.11136363636364166,
                "tempo": 120.0
            },
            {
                "start_time": 39.445454545454545,
                "end_time": 39.54545454545455,
                "pitch": 73,
                "velocity": 80,
                "duration": 0.10000000000000142,
                "tempo": 120.0
            },
            {
                "start_time": 39.23181818181818,
                "end_time": 39.54545454545455,
                "pitch": 75,
                "velocity": 80,
                "duration": 0.3136363636363697,
                "tempo": 120.0
            },
            {
                "start_time": 39.54545454545455,
                "end_time": 39.65909090909091,
                "pitch": 72,
                "velocity": 80,
                "duration": 0.11363636363635976,
                "tempo": 120.0
            },
            {
                "start_time": 39.65909090909091,
                "end_time": 39.75681818181818,
                "pitch": 72,
                "velocity": 80,
                "duration": 0.09772727272727622,
                "tempo": 120.0
            },
            {
                "start_time": 30.922727272727272,
                "end_time": 39.87272727272727,
                "pitch": 65,
                "velocity": 101,
                "duration": 8.949999999999996,
                "tempo": 120.0
            },
            {
                "start_time": 39.75681818181818,
                "end_time": 39.87272727272727,
                "pitch": 65,
                "velocity": 80,
                "duration": 0.11590909090908497,
                "tempo": 120.0
            },
            {
                "start_time": 31.02272727272727,
                "end_time": 39.97272727272727,
                "pitch": 63,
                "velocity": 101,
                "duration": 8.95,
                "tempo": 120.0
            },
            {
                "start_time": 39.87272727272727,
                "end_time": 39.97272727272727,
                "pitch": 63,
                "velocity": 80,
                "duration": 0.10000000000000142,
                "tempo": 120.0
            },
            {
                "start_time": 39.97272727272727,
                "end_time": 40.07272727272727,
                "pitch": 60,
                "velocity": 80,
                "duration": 0.10000000000000142,
                "tempo": 120.0
            },
            {
                "start_time": 40.07272727272727,
                "end_time": 40.19090909090909,
                "pitch": 60,
                "velocity": 80,
                "duration": 0.11818181818181728,
                "tempo": 120.0
            },
            {
                "start_time": 39.75681818181818,
                "end_time": 40.19090909090909,
                "pitch": 61,
                "velocity": 80,
                "duration": 0.4340909090909051,
                "tempo": 120.0
            },
            {
                "start_time": 39.87272727272727,
                "end_time": 40.293181818181814,
                "pitch": 65,
                "velocity": 80,
                "duration": 0.42045454545454675,
                "tempo": 120.0
            },
            {
                "start_time": 40.19090909090909,
                "end_time": 40.293181818181814,
                "pitch": 65,
                "velocity": 80,
                "duration": 0.10227272727272663,
                "tempo": 120.0
            },
            {
                "start_time": 39.97272727272727,
                "end_time": 40.41136363636363,
                "pitch": 63,
                "velocity": 80,
                "duration": 0.4386363636363626,
                "tempo": 120.0
            },
            {
                "start_time": 40.293181818181814,
                "end_time": 40.41136363636363,
                "pitch": 63,
                "velocity": 80,
                "duration": 0.11818181818181728,
                "tempo": 120.0
            },
            {
                "start_time": 39.334090909090904,
                "end_time": 40.41136363636363,
                "pitch": 77,
                "velocity": 80,
                "duration": 1.077272727272728,
                "tempo": 120.0
            },
            {
                "start_time": 40.41136363636363,
                "end_time": 40.51363636363636,
                "pitch": 68,
                "velocity": 80,
                "duration": 0.10227272727272663,
                "tempo": 120.0
            },
            {
                "start_time": 40.293181818181814,
                "end_time": 40.63409090909091,
                "pitch": 65,
                "velocity": 80,
                "duration": 0.3409090909090935,
                "tempo": 120.0
            },
            {
                "start_time": 40.51363636363636,
                "end_time": 40.63409090909091,
                "pitch": 65,
                "velocity": 80,
                "duration": 0.12045454545454959,
                "tempo": 120.0
            },
            {
                "start_time": 39.13181818181818,
                "end_time": 40.63409090909091,
                "pitch": 78,
                "velocity": 80,
                "duration": 1.5022727272727252,
                "tempo": 120.0
            },
            {
                "start_time": 36.361363636363635,
                "end_time": 41.47727272727273,
                "pitch": 49,
                "velocity": 80,
                "duration": 5.115909090909092,
                "tempo": 120.0
            },
            {
                "start_time": 40.63409090909091,
                "end_time": 41.47727272727273,
                "pitch": 70,
                "velocity": 80,
                "duration": 0.8431818181818187,
                "tempo": 120.0
            },
            {
                "start_time": 41.47727272727273,
                "end_time": 41.57272727272727,
                "pitch": 73,
                "velocity": 80,
                "duration": 0.0954545454545439,
                "tempo": 120.0
            },
            {
                "start_time": 41.57272727272727,
                "end_time": 41.68863636363636,
                "pitch": 73,
                "velocity": 80,
                "duration": 0.11590909090909207,
                "tempo": 120.0
            },
            {
                "start_time": 36.03409090909091,
                "end_time": 41.68863636363636,
                "pitch": 76,
                "velocity": 64,
                "duration": 5.654545454545456,
                "tempo": 120.0
            },
            {
                "start_time": 41.47727272727273,
                "end_time": 41.78636363636363,
                "pitch": 49,
                "velocity": 80,
                "duration": 0.3090909090909051,
                "tempo": 120.0
            },
            {
                "start_time": 41.68863636363636,
                "end_time": 41.78636363636363,
                "pitch": 70,
                "velocity": 80,
                "duration": 0.09772727272726911,
                "tempo": 120.0
            },
            {
                "start_time": 41.78636363636363,
                "end_time": 42.0,
                "pitch": 73,
                "velocity": 80,
                "duration": 0.2136363636363683,
                "tempo": 120.0
            },
            {
                "start_time": 41.68863636363636,
                "end_time": 42.0,
                "pitch": 76,
                "velocity": 80,
                "duration": 0.3113636363636374,
                "tempo": 120.0
            },
            {
                "start_time": 41.78636363636363,
                "end_time": 42.31818181818181,
                "pitch": 49,
                "velocity": 80,
                "duration": 0.5318181818181813,
                "tempo": 120.0
            },
            {
                "start_time": 42.0,
                "end_time": 42.31818181818181,
                "pitch": 70,
                "velocity": 80,
                "duration": 0.318181818181813,
                "tempo": 120.0
            },
            {
                "start_time": 42.31818181818181,
                "end_time": 42.43181818181818,
                "pitch": 73,
                "velocity": 64,
                "duration": 0.11363636363636687,
                "tempo": 120.0
            },
            {
                "start_time": 42.43181818181818,
                "end_time": 42.52954545454545,
                "pitch": 73,
                "velocity": 64,
                "duration": 0.09772727272726911,
                "tempo": 120.0
            },
            {
                "start_time": 42.0,
                "end_time": 42.52954545454545,
                "pitch": 76,
                "velocity": 80,
                "duration": 0.529545454545449,
                "tempo": 120.0
            },
            {
                "start_time": 42.31818181818181,
                "end_time": 42.64545454545454,
                "pitch": 49,
                "velocity": 64,
                "duration": 0.32727272727272805,
                "tempo": 120.0
            },
            {
                "start_time": 42.52954545454545,
                "end_time": 42.64545454545454,
                "pitch": 70,
                "velocity": 64,
                "duration": 0.11590909090909207,
                "tempo": 120.0
            },
            {
                "start_time": 42.64545454545454,
                "end_time": 42.85909090909091,
                "pitch": 73,
                "velocity": 64,
                "duration": 0.2136363636363683,
                "tempo": 120.0
            },
            {
                "start_time": 42.52954545454545,
                "end_time": 42.85909090909091,
                "pitch": 76,
                "velocity": 64,
                "duration": 0.32954545454546036,
                "tempo": 120.0
            },
            {
                "start_time": 42.64545454545454,
                "end_time": 43.17727272727272,
                "pitch": 49,
                "velocity": 64,
                "duration": 0.5318181818181813,
                "tempo": 120.0
            },
            {
                "start_time": 42.85909090909091,
                "end_time": 43.17727272727272,
                "pitch": 70,
                "velocity": 64,
                "duration": 0.318181818181813,
                "tempo": 120.0
            },
            {
                "start_time": 39.54545454545455,
                "end_time": 43.275,
                "pitch": 75,
                "velocity": 80,
                "duration": 3.729545454545452,
                "tempo": 120.0
            },
            {
                "start_time": 43.17727272727272,
                "end_time": 43.275,
                "pitch": 75,
                "velocity": 80,
                "duration": 0.09772727272727622,
                "tempo": 120.0
            },
            {
                "start_time": 43.275,
                "end_time": 43.393181818181816,
                "pitch": 75,
                "velocity": 80,
                "duration": 0.11818181818181728,
                "tempo": 120.0
            },
            {
                "start_time": 43.393181818181816,
                "end_time": 43.49318181818182,
                "pitch": 73,
                "velocity": 80,
                "duration": 0.10000000000000142,
                "tempo": 120.0
            },
            {
                "start_time": 43.49318181818182,
                "end_time": 43.709090909090904,
                "pitch": 75,
                "velocity": 80,
                "duration": 0.2159090909090864,
                "tempo": 120.0
            },
            {
                "start_time": 43.49318181818182,
                "end_time": 44.027272727272724,
                "pitch": 72,
                "velocity": 80,
                "duration": 0.5340909090909065,
                "tempo": 120.0
            },
            {
                "start_time": 43.709090909090904,
                "end_time": 44.027272727272724,
                "pitch": 72,
                "velocity": 80,
                "duration": 0.3181818181818201,
                "tempo": 120.0
            },
            {
                "start_time": 43.709090909090904,
                "end_time": 44.14090909090909,
                "pitch": 75,
                "velocity": 80,
                "duration": 0.431818181818187,
                "tempo": 120.0
            },
            {
                "start_time": 44.027272727272724,
                "end_time": 44.14090909090909,
                "pitch": 75,
                "velocity": 64,
                "duration": 0.11363636363636687,
                "tempo": 120.0
            },
            {
                "start_time": 44.14090909090909,
                "end_time": 44.23863636363636,
                "pitch": 75,
                "velocity": 64,
                "duration": 0.09772727272726911,
                "tempo": 120.0
            },
            {
                "start_time": 44.027272727272724,
                "end_time": 44.35227272727273,
                "pitch": 72,
                "velocity": 64,
                "duration": 0.32500000000000284,
                "tempo": 120.0
            },
            {
                "start_time": 44.23863636363636,
                "end_time": 44.35227272727273,
                "pitch": 73,
                "velocity": 64,
                "duration": 0.11363636363636687,
                "tempo": 120.0
            },
            {
                "start_time": 44.35227272727273,
                "end_time": 44.55,
                "pitch": 75,
                "velocity": 64,
                "duration": 0.19772727272727053,
                "tempo": 120.0
            },
            {
                "start_time": 44.35227272727273,
                "end_time": 44.88636363636363,
                "pitch": 72,
                "velocity": 64,
                "duration": 0.5340909090909065,
                "tempo": 120.0
            },
            {
                "start_time": 44.55,
                "end_time": 44.88636363636363,
                "pitch": 72,
                "velocity": 64,
                "duration": 0.336363636363636,
                "tempo": 120.0
            },
            {
                "start_time": 42.85909090909091,
                "end_time": 44.88636363636363,
                "pitch": 76,
                "velocity": 64,
                "duration": 2.027272727272724,
                "tempo": 120.0
            },
            {
                "start_time": 43.17727272727272,
                "end_time": 46.60227272727273,
                "pitch": 49,
                "velocity": 80,
                "duration": 3.4250000000000043,
                "tempo": 120.0
            },
            {
                "start_time": 44.88636363636363,
                "end_time": 46.60227272727273,
                "pitch": 70,
                "velocity": 80,
                "duration": 1.7159090909090935,
                "tempo": 120.0
            },
            {
                "start_time": 40.41136363636363,
                "end_time": 47.018181818181816,
                "pitch": 77,
                "velocity": 80,
                "duration": 6.606818181818184,
                "tempo": 120.0
            },
            {
                "start_time": 46.60227272727273,
                "end_time": 47.018181818181816,
                "pitch": 77,
                "velocity": 80,
                "duration": 0.41590909090908923,
                "tempo": 120.0
            },
            {
                "start_time": 44.55,
                "end_time": 47.44318181818181,
                "pitch": 75,
                "velocity": 64,
                "duration": 2.893181818181816,
                "tempo": 120.0
            },
            {
                "start_time": 47.018181818181816,
                "end_time": 47.44318181818181,
                "pitch": 75,
                "velocity": 80,
                "duration": 0.42499999999999716,
                "tempo": 120.0
            },
            {
                "start_time": 38.69772727272727,
                "end_time": 47.44318181818181,
                "pitch": 89,
                "velocity": 80,
                "duration": 8.745454545454542,
                "tempo": 120.0
            },
            {
                "start_time": 38.79772727272727,
                "end_time": 47.877272727272725,
                "pitch": 27,
                "velocity": 80,
                "duration": 9.079545454545453,
                "tempo": 120.0
            },
            {
                "start_time": 47.44318181818181,
                "end_time": 47.877272727272725,
                "pitch": 80,
                "velocity": 80,
                "duration": 0.4340909090909122,
                "tempo": 120.0
            },
            {
                "start_time": 40.63409090909091,
                "end_time": 48.29545454545454,
                "pitch": 78,
                "velocity": 80,
                "duration": 7.661363636363632,
                "tempo": 120.0
            },
            {
                "start_time": 47.877272727272725,
                "end_time": 48.29545454545454,
                "pitch": 78,
                "velocity": 80,
                "duration": 0.41818181818181444,
                "tempo": 120.0
            }
        ],
        "Acoustic Guitar (nylon)": [
            {
                "start_time": 31.24090909090909,
                "end_time": 31.33863636363636,
                "pitch": 58,
                "velocity": 101,
                "duration": 0.09772727272727266,
                "tempo": 120.0
            },
            {
                "start_time": 31.33863636363636,
                "end_time": 31.454545454545453,
                "pitch": 60,
                "velocity": 101,
                "duration": 0.11590909090909207,
                "tempo": 120.0
            },
            {
                "start_time": 31.456818181818182,
                "end_time": 31.55681818181818,
                "pitch": 60,
                "velocity": 101,
                "duration": 0.09999999999999787,
                "tempo": 120.0
            },
            {
                "start_time": 31.55681818181818,
                "end_time": 31.672727272727272,
                "pitch": 63,
                "velocity": 101,
                "duration": 0.11590909090909207,
                "tempo": 120.0
            },
            {
                "start_time": 31.672727272727272,
                "end_time": 32.090909090909086,
                "pitch": 65,
                "velocity": 101,
                "duration": 0.41818181818181444,
                "tempo": 120.0
            },
            {
                "start_time": 32.090909090909086,
                "end_time": 32.41590909090909,
                "pitch": 65,
                "velocity": 101,
                "duration": 0.32500000000000284,
                "tempo": 120.0
            },
            {
                "start_time": 31.672727272727272,
                "end_time": 32.73181818181818,
                "pitch": 63,
                "velocity": 101,
                "duration": 1.059090909090905,
                "tempo": 120.0
            },
            {
                "start_time": 32.41590909090909,
                "end_time": 32.73181818181818,
                "pitch": 63,
                "velocity": 101,
                "duration": 0.3159090909090878,
                "tempo": 120.0
            },
            {
                "start_time": 31.55681818181818,
                "end_time": 32.949999999999996,
                "pitch": 61,
                "velocity": 101,
                "duration": 1.3931818181818159,
                "tempo": 120.0
            },
            {
                "start_time": 32.73181818181818,
                "end_time": 32.949999999999996,
                "pitch": 61,
                "velocity": 101,
                "duration": 0.2181818181818187,
                "tempo": 120.0
            },
            {
                "start_time": 32.73181818181818,
                "end_time": 33.04772727272727,
                "pitch": 63,
                "velocity": 101,
                "duration": 0.3159090909090949,
                "tempo": 120.0
            },
            {
                "start_time": 32.949999999999996,
                "end_time": 33.04772727272727,
                "pitch": 63,
                "velocity": 101,
                "duration": 0.09772727272727622,
                "tempo": 120.0
            },
            {
                "start_time": 32.41590909090909,
                "end_time": 33.04772727272727,
                "pitch": 65,
                "velocity": 101,
                "duration": 0.6318181818181827,
                "tempo": 120.0
            },
            {
                "start_time": 33.04772727272727,
                "end_time": 33.16590909090909,
                "pitch": 58,
                "velocity": 101,
                "duration": 0.11818181818181728,
                "tempo": 120.0
            },
            {
                "start_time": 33.16590909090909,
                "end_time": 33.26590909090909,
                "pitch": 55,
                "velocity": 101,
                "duration": 0.10000000000000142,
                "tempo": 120.0
            },
            {
                "start_time": 33.26590909090909,
                "end_time": 33.36590909090909,
                "pitch": 55,
                "velocity": 101,
                "duration": 0.10000000000000142,
                "tempo": 120.0
            },
            {
                "start_time": 33.36590909090909,
                "end_time": 33.47954545454545,
                "pitch": 51,
                "velocity": 101,
                "duration": 0.11363636363635976,
                "tempo": 120.0
            },
            {
                "start_time": 33.36590909090909,
                "end_time": 33.57727272727273,
                "pitch": 53,
                "velocity": 101,
                "duration": 0.21136363636363598,
                "tempo": 120.0
            },
            {
                "start_time": 33.47954545454545,
                "end_time": 33.57727272727273,
                "pitch": 53,
                "velocity": 101,
                "duration": 0.09772727272727622,
                "tempo": 120.0
            },
            {
                "start_time": 33.57727272727273,
                "end_time": 33.69090909090909,
                "pitch": 53,
                "velocity": 101,
                "duration": 0.11363636363635976,
                "tempo": 120.0
            },
            {
                "start_time": 33.69090909090909,
                "end_time": 33.69318181818181,
                "pitch": 67,
                "velocity": 101,
                "duration": 0.0022727272727252057,
                "tempo": 120.0
            },
            {
                "start_time": 31.33863636363636,
                "end_time": 33.79090909090909,
                "pitch": 37,
                "velocity": 101,
                "duration": 2.452272727272728,
                "tempo": 120.0
            },
            {
                "start_time": 33.69318181818181,
                "end_time": 33.79090909090909,
                "pitch": 58,
                "velocity": 101,
                "duration": 0.09772727272727622,
                "tempo": 120.0
            },
            {
                "start_time": 32.949999999999996,
                "end_time": 33.90681818181818,
                "pitch": 61,
                "velocity": 101,
                "duration": 0.9568181818181856,
                "tempo": 120.0
            },
            {
                "start_time": 33.79090909090909,
                "end_time": 33.90681818181818,
                "pitch": 61,
                "velocity": 101,
                "duration": 0.11590909090909207,
                "tempo": 120.0
            },
            {
                "start_time": 31.24090909090909,
                "end_time": 33.90681818181818,
                "pitch": 64,
                "velocity": 101,
                "duration": 2.665909090909093,
                "tempo": 120.0
            },
            {
                "start_time": 33.79090909090909,
                "end_time": 34.00681818181818,
                "pitch": 37,
                "velocity": 101,
                "duration": 0.2159090909090935,
                "tempo": 120.0
            },
            {
                "start_time": 33.90681818181818,
                "end_time": 34.00681818181818,
                "pitch": 58,
                "velocity": 101,
                "duration": 0.10000000000000142,
                "tempo": 120.0
            },
            {
                "start_time": 34.00681818181818,
                "end_time": 34.10681818181818,
                "pitch": 61,
                "velocity": 101,
                "duration": 0.09999999999999432,
                "tempo": 120.0
            },
            {
                "start_time": 34.10681818181818,
                "end_time": 34.225,
                "pitch": 66,
                "velocity": 101,
                "duration": 0.11818181818182438,
                "tempo": 120.0
            },
            {
                "start_time": 33.04772727272727,
                "end_time": 34.320454545454545,
                "pitch": 65,
                "velocity": 101,
                "duration": 1.2727272727272734,
                "tempo": 120.0
            },
            {
                "start_time": 34.225,
                "end_time": 34.320454545454545,
                "pitch": 66,
                "velocity": 101,
                "duration": 0.0954545454545439,
                "tempo": 120.0
            },
            {
                "start_time": 34.320454545454545,
                "end_time": 34.43636363636364,
                "pitch": 63,
                "velocity": 101,
                "duration": 0.11590909090909207,
                "tempo": 120.0
            },
            {
                "start_time": 34.10681818181818,
                "end_time": 34.53409090909091,
                "pitch": 61,
                "velocity": 101,
                "duration": 0.42727272727272947,
                "tempo": 120.0
            },
            {
                "start_time": 34.43636363636364,
                "end_time": 34.53409090909091,
                "pitch": 61,
                "velocity": 101,
                "duration": 0.09772727272726911,
                "tempo": 120.0
            },
            {
                "start_time": 34.53409090909091,
                "end_time": 34.65,
                "pitch": 61,
                "velocity": 101,
                "duration": 0.11590909090909207,
                "tempo": 120.0
            }
        ],
        "Electric Guitar (clean)": [
            {
                "start_time": 0.5545454545454546,
                "end_time": 0.759090909090909,
                "pitch": 46,
                "velocity": 25,
                "duration": 0.20454545454545447,
                "tempo": 120.0
            },
            {
                "start_time": 0.759090909090909,
                "end_time": 0.8704545454545454,
                "pitch": 46,
                "velocity": 25,
                "duration": 0.11136363636363633,
                "tempo": 120.0
            },
            {
                "start_time": 0.8704545454545454,
                "end_time": 0.9659090909090908,
                "pitch": 46,
                "velocity": 25,
                "duration": 0.09545454545454546,
                "tempo": 120.0
            },
            {
                "start_time": 0.9659090909090908,
                "end_time": 1.1818181818181817,
                "pitch": 46,
                "velocity": 25,
                "duration": 0.21590909090909083,
                "tempo": 120.0
            },
            {
                "start_time": 1.1818181818181817,
                "end_time": 1.5022727272727272,
                "pitch": 53,
                "velocity": 25,
                "duration": 0.32045454545454555,
                "tempo": 120.0
            },
            {
                "start_time": 1.5022727272727272,
                "end_time": 1.7227272727272727,
                "pitch": 46,
                "velocity": 25,
                "duration": 0.22045454545454546,
                "tempo": 120.0
            },
            {
                "start_time": 1.1818181818181817,
                "end_time": 1.843181818181818,
                "pitch": 25,
                "velocity": 25,
                "duration": 0.6613636363636364,
                "tempo": 120.0
            },
            {
                "start_time": 1.7227272727272727,
                "end_time": 1.843181818181818,
                "pitch": 46,
                "velocity": 25,
                "duration": 0.12045454545454537,
                "tempo": 120.0
            },
            {
                "start_time": 1.843181818181818,
                "end_time": 2.047727272727273,
                "pitch": 49,
                "velocity": 25,
                "duration": 0.2045454545454548,
                "tempo": 120.0
            },
            {
                "start_time": 2.047727272727273,
                "end_time": 2.2704545454545455,
                "pitch": 51,
                "velocity": 25,
                "duration": 0.22272727272727266,
                "tempo": 120.0
            },
            {
                "start_time": 2.2704545454545455,
                "end_time": 2.477272727272727,
                "pitch": 46,
                "velocity": 25,
                "duration": 0.20681818181818157,
                "tempo": 120.0
            },
            {
                "start_time": 2.477272727272727,
                "end_time": 2.5886363636363634,
                "pitch": 46,
                "velocity": 25,
                "duration": 0.11136363636363633,
                "tempo": 120.0
            },
            {
                "start_time": 2.5886363636363634,
                "end_time": 2.6818181818181817,
                "pitch": 46,
                "velocity": 25,
                "duration": 0.09318181818181825,
                "tempo": 120.0
            },
            {
                "start_time": 1.843181818181818,
                "end_time": 2.9,
                "pitch": 25,
                "velocity": 25,
                "duration": 1.0568181818181819,
                "tempo": 120.0
            },
            {
                "start_time": 2.684090909090909,
                "end_time": 2.9,
                "pitch": 46,
                "velocity": 25,
                "duration": 0.21590909090909083,
                "tempo": 120.0
            },
            {
                "start_time": 2.2704545454545455,
                "end_time": 3.215909090909091,
                "pitch": 53,
                "velocity": 25,
                "duration": 0.9454545454545453,
                "tempo": 120.0
            },
            {
                "start_time": 2.9,
                "end_time": 3.215909090909091,
                "pitch": 53,
                "velocity": 25,
                "duration": 0.3159090909090909,
                "tempo": 120.0
            },
            {
                "start_time": 1.5022727272727272,
                "end_time": 3.215909090909091,
                "pitch": 54,
                "velocity": 25,
                "duration": 1.7136363636363636,
                "tempo": 120.0
            },
            {
                "start_time": 3.215909090909091,
                "end_time": 3.434090909090909,
                "pitch": 46,
                "velocity": 25,
                "duration": 0.21818181818181825,
                "tempo": 120.0
            },
            {
                "start_time": 2.9,
                "end_time": 3.5340909090909087,
                "pitch": 25,
                "velocity": 25,
                "duration": 0.6340909090909088,
                "tempo": 120.0
            },
            {
                "start_time": 3.434090909090909,
                "end_time": 3.5340909090909087,
                "pitch": 46,
                "velocity": 25,
                "duration": 0.09999999999999964,
                "tempo": 120.0
            },
            {
                "start_time": 2.047727272727273,
                "end_time": 3.7477272727272726,
                "pitch": 49,
                "velocity": 25,
                "duration": 1.6999999999999997,
                "tempo": 120.0
            },
            {
                "start_time": 3.5340909090909087,
                "end_time": 3.7477272727272726,
                "pitch": 49,
                "velocity": 25,
                "duration": 0.21363636363636385,
                "tempo": 120.0
            },
            {
                "start_time": 3.7477272727272726,
                "end_time": 3.959090909090909,
                "pitch": 51,
                "velocity": 25,
                "duration": 0.21136363636363642,
                "tempo": 120.0
            },
            {
                "start_time": 3.215909090909091,
                "end_time": 4.175,
                "pitch": 54,
                "velocity": 25,
                "duration": 0.959090909090909,
                "tempo": 120.0
            },
            {
                "start_time": 3.961363636363636,
                "end_time": 4.175,
                "pitch": 54,
                "velocity": 25,
                "duration": 0.21363636363636385,
                "tempo": 120.0
            },
            {
                "start_time": 4.175,
                "end_time": 4.2749999999999995,
                "pitch": 54,
                "velocity": 25,
                "duration": 0.09999999999999964,
                "tempo": 120.0
            },
            {
                "start_time": 4.2749999999999995,
                "end_time": 4.393181818181818,
                "pitch": 54,
                "velocity": 25,
                "duration": 0.11818181818181817,
                "tempo": 120.0
            },
            {
                "start_time": 4.393181818181818,
                "end_time": 4.61590909090909,
                "pitch": 54,
                "velocity": 25,
                "duration": 0.22272727272727266,
                "tempo": 120.0
            },
            {
                "start_time": 3.7477272727272726,
                "end_time": 4.9363636363636365,
                "pitch": 49,
                "velocity": 25,
                "duration": 1.188636363636364,
                "tempo": 120.0
            },
            {
                "start_time": 4.61590909090909,
                "end_time": 4.9363636363636365,
                "pitch": 61,
                "velocity": 25,
                "duration": 0.3204545454545462,
                "tempo": 120.0
            },
            {
                "start_time": 4.9363636363636365,
                "end_time": 5.152272727272727,
                "pitch": 54,
                "velocity": 25,
                "duration": 0.21590909090909083,
                "tempo": 120.0
            },
            {
                "start_time": 5.152272727272727,
                "end_time": 5.252272727272727,
                "pitch": 54,
                "velocity": 25,
                "duration": 0.09999999999999964,
                "tempo": 120.0
            },
            {
                "start_time": 4.61590909090909,
                "end_time": 5.252272727272727,
                "pitch": 66,
                "velocity": 25,
                "duration": 0.6363636363636367,
                "tempo": 120.0
            },
            {
                "start_time": 5.252272727272727,
                "end_time": 5.459090909090909,
                "pitch": 58,
                "velocity": 25,
                "duration": 0.206818181818182,
                "tempo": 120.0
            },
            {
                "start_time": 5.459090909090909,
                "end_time": 5.668181818181818,
                "pitch": 60,
                "velocity": 25,
                "duration": 0.209090909090909,
                "tempo": 120.0
            },
            {
                "start_time": 5.668181818181818,
                "end_time": 5.881818181818182,
                "pitch": 54,
                "velocity": 25,
                "duration": 0.21363636363636385,
                "tempo": 120.0
            },
            {
                "start_time": 5.881818181818182,
                "end_time": 5.9818181818181815,
                "pitch": 54,
                "velocity": 25,
                "duration": 0.09999999999999964,
                "tempo": 120.0
            },
            {
                "start_time": 5.9840909090909085,
                "end_time": 6.1,
                "pitch": 54,
                "velocity": 25,
                "duration": 0.11590909090909118,
                "tempo": 120.0
            },
            {
                "start_time": 6.1,
                "end_time": 6.322727272727272,
                "pitch": 54,
                "velocity": 25,
                "duration": 0.22272727272727266,
                "tempo": 120.0
            },
            {
                "start_time": 5.252272727272727,
                "end_time": 6.322727272727272,
                "pitch": 66,
                "velocity": 25,
                "duration": 1.0704545454545453,
                "tempo": 120.0
            },
            {
                "start_time": 6.322727272727272,
                "end_time": 6.636363636363636,
                "pitch": 61,
                "velocity": 25,
                "duration": 0.3136363636363635,
                "tempo": 120.0
            },
            {
                "start_time": 4.9363636363636365,
                "end_time": 6.638636363636364,
                "pitch": 49,
                "velocity": 25,
                "duration": 1.7022727272727272,
                "tempo": 120.0
            },
            {
                "start_time": 6.638636363636364,
                "end_time": 6.843181818181818,
                "pitch": 54,
                "velocity": 25,
                "duration": 0.20454545454545414,
                "tempo": 120.0
            },
            {
                "start_time": 6.843181818181818,
                "end_time": 6.9386363636363635,
                "pitch": 54,
                "velocity": 25,
                "duration": 0.09545454545454568,
                "tempo": 120.0
            },
            {
                "start_time": 6.322727272727272,
                "end_time": 6.9386363636363635,
                "pitch": 66,
                "velocity": 25,
                "duration": 0.6159090909090912,
                "tempo": 120.0
            },
            {
                "start_time": 6.9386363636363635,
                "end_time": 7.159090909090909,
                "pitch": 58,
                "velocity": 25,
                "duration": 0.22045454545454568,
                "tempo": 120.0
            },
            {
                "start_time": 5.459090909090909,
                "end_time": 7.161363636363636,
                "pitch": 37,
                "velocity": 25,
                "duration": 1.7022727272727272,
                "tempo": 120.0
            },
            {
                "start_time": 7.159090909090909,
                "end_time": 7.161363636363636,
                "pitch": 37,
                "velocity": 25,
                "duration": 0.002272727272726982,
                "tempo": 120.0
            },
            {
                "start_time": 7.161363636363636,
                "end_time": 7.384090909090909,
                "pitch": 60,
                "velocity": 25,
                "duration": 0.22272727272727266,
                "tempo": 120.0
            },
            {
                "start_time": 7.384090909090909,
                "end_time": 7.593181818181818,
                "pitch": 46,
                "velocity": 25,
                "duration": 0.209090909090909,
                "tempo": 120.0
            },
            {
                "start_time": 7.593181818181818,
                "end_time": 7.6931818181818175,
                "pitch": 46,
                "velocity": 25,
                "duration": 0.09999999999999964,
                "tempo": 120.0
            },
            {
                "start_time": 7.6931818181818175,
                "end_time": 7.806818181818182,
                "pitch": 46,
                "velocity": 25,
                "duration": 0.1136363636363642,
                "tempo": 120.0
            },
            {
                "start_time": 3.5340909090909087,
                "end_time": 8.011363636363637,
                "pitch": 25,
                "velocity": 25,
                "duration": 4.477272727272728,
                "tempo": 120.0
            },
            {
                "start_time": 7.806818181818182,
                "end_time": 8.011363636363637,
                "pitch": 46,
                "velocity": 25,
                "duration": 0.20454545454545503,
                "tempo": 120.0
            },
            {
                "start_time": 8.011363636363637,
                "end_time": 8.347727272727273,
                "pitch": 53,
                "velocity": 25,
                "duration": 0.336363636363636,
                "tempo": 120.0
            },
            {
                "start_time": 8.347727272727273,
                "end_time": 8.559090909090909,
                "pitch": 46,
                "velocity": 25,
                "duration": 0.21136363636363598,
                "tempo": 120.0
            },
            {
                "start_time": 8.559090909090909,
                "end_time": 8.656818181818181,
                "pitch": 46,
                "velocity": 25,
                "duration": 0.09772727272727266,
                "tempo": 120.0
            },
            {
                "start_time": 8.011363636363637,
                "end_time": 8.659090909090908,
                "pitch": 25,
                "velocity": 25,
                "duration": 0.6477272727272716,
                "tempo": 120.0
            },
            {
                "start_time": 6.638636363636364,
                "end_time": 8.870454545454544,
                "pitch": 49,
                "velocity": 25,
                "duration": 2.2318181818181806,
                "tempo": 120.0
            },
            {
                "start_time": 8.659090909090908,
                "end_time": 8.870454545454544,
                "pitch": 49,
                "velocity": 25,
                "duration": 0.21136363636363598,
                "tempo": 120.0
            },
            {
                "start_time": 3.961363636363636,
                "end_time": 9.084090909090909,
                "pitch": 51,
                "velocity": 25,
                "duration": 5.122727272727273,
                "tempo": 120.0
            },
            {
                "start_time": 8.870454545454544,
                "end_time": 9.084090909090909,
                "pitch": 51,
                "velocity": 25,
                "duration": 0.21363636363636473,
                "tempo": 120.0
            },
            {
                "start_time": 9.084090909090909,
                "end_time": 9.299999999999999,
                "pitch": 46,
                "velocity": 25,
                "duration": 0.21590909090908994,
                "tempo": 120.0
            },
            {
                "start_time": 9.299999999999999,
                "end_time": 9.4,
                "pitch": 46,
                "velocity": 25,
                "duration": 0.10000000000000142,
                "tempo": 120.0
            },
            {
                "start_time": 9.4,
                "end_time": 9.5,
                "pitch": 46,
                "velocity": 25,
                "duration": 0.09999999999999964,
                "tempo": 120.0
            },
            {
                "start_time": 8.659090909090908,
                "end_time": 9.71590909090909,
                "pitch": 25,
                "velocity": 25,
                "duration": 1.0568181818181817,
                "tempo": 120.0
            },
            {
                "start_time": 9.5,
                "end_time": 9.71590909090909,
                "pitch": 46,
                "velocity": 25,
                "duration": 0.21590909090908994,
                "tempo": 120.0
            },
            {
                "start_time": 9.084090909090909,
                "end_time": 10.049999999999999,
                "pitch": 53,
                "velocity": 25,
                "duration": 0.9659090909090899,
                "tempo": 120.0
            },
            {
                "start_time": 9.71590909090909,
                "end_time": 10.049999999999999,
                "pitch": 53,
                "velocity": 25,
                "duration": 0.334090909090909,
                "tempo": 120.0
            },
            {
                "start_time": 8.347727272727273,
                "end_time": 10.049999999999999,
                "pitch": 54,
                "velocity": 25,
                "duration": 1.7022727272727263,
                "tempo": 120.0
            },
            {
                "start_time": 10.049999999999999,
                "end_time": 10.25,
                "pitch": 46,
                "velocity": 25,
                "duration": 0.20000000000000107,
                "tempo": 120.0
            },
            {
                "start_time": 9.71590909090909,
                "end_time": 10.368181818181817,
                "pitch": 25,
                "velocity": 25,
                "duration": 0.6522727272727273,
                "tempo": 120.0
            },
            {
                "start_time": 10.25,
                "end_time": 10.368181818181817,
                "pitch": 46,
                "velocity": 25,
                "duration": 0.11818181818181728,
                "tempo": 120.0
            },
            {
                "start_time": 8.870454545454544,
                "end_time": 10.584090909090909,
                "pitch": 49,
                "velocity": 25,
                "duration": 1.7136363636363647,
                "tempo": 120.0
            },
            {
                "start_time": 10.368181818181817,
                "end_time": 10.584090909090909,
                "pitch": 49,
                "velocity": 25,
                "duration": 0.21590909090909172,
                "tempo": 120.0
            },
            {
                "start_time": 10.586363636363636,
                "end_time": 10.802272727272726,
                "pitch": 51,
                "velocity": 25,
                "duration": 0.21590909090908994,
                "tempo": 120.0
            },
            {
                "start_time": 10.804545454545455,
                "end_time": 11.002272727272727,
                "pitch": 53,
                "velocity": 25,
                "duration": 0.1977272727272723,
                "tempo": 120.0
            },
            {
                "start_time": 11.002272727272727,
                "end_time": 11.120454545454544,
                "pitch": 53,
                "velocity": 25,
                "duration": 0.11818181818181728,
                "tempo": 120.0
            },
            {
                "start_time": 11.120454545454544,
                "end_time": 11.220454545454546,
                "pitch": 53,
                "velocity": 25,
                "duration": 0.10000000000000142,
                "tempo": 120.0
            },
            {
                "start_time": 6.9386363636363635,
                "end_time": 11.220454545454546,
                "pitch": 66,
                "velocity": 25,
                "duration": 4.281818181818182,
                "tempo": 120.0
            },
            {
                "start_time": 11.220454545454546,
                "end_time": 11.427272727272726,
                "pitch": 58,
                "velocity": 25,
                "duration": 0.20681818181818024,
                "tempo": 120.0
            },
            {
                "start_time": 5.668181818181818,
                "end_time": 11.73181818181818,
                "pitch": 48,
                "velocity": 25,
                "duration": 6.063636363636363,
                "tempo": 120.0
            },
            {
                "start_time": 11.427272727272726,
                "end_time": 11.73181818181818,
                "pitch": 60,
                "velocity": 25,
                "duration": 0.3045454545454547,
                "tempo": 120.0
            },
            {
                "start_time": 11.73181818181818,
                "end_time": 11.947727272727272,
                "pitch": 53,
                "velocity": 25,
                "duration": 0.21590909090909172,
                "tempo": 120.0
            },
            {
                "start_time": 11.95,
                "end_time": 12.06590909090909,
                "pitch": 53,
                "velocity": 25,
                "duration": 0.1159090909090903,
                "tempo": 120.0
            },
            {
                "start_time": 10.804545454545455,
                "end_time": 12.281818181818181,
                "pitch": 51,
                "velocity": 25,
                "duration": 1.4772727272727266,
                "tempo": 120.0
            },
            {
                "start_time": 12.06590909090909,
                "end_time": 12.281818181818181,
                "pitch": 51,
                "velocity": 25,
                "duration": 0.21590909090909172,
                "tempo": 120.0
            },
            {
                "start_time": 12.281818181818181,
                "end_time": 12.48409090909091,
                "pitch": 51,
                "velocity": 25,
                "duration": 0.20227272727272805,
                "tempo": 120.0
            },
            {
                "start_time": 7.384090909090909,
                "end_time": 12.697727272727272,
                "pitch": 52,
                "velocity": 25,
                "duration": 5.3136363636363635,
                "tempo": 120.0
            },
            {
                "start_time": 12.48409090909091,
                "end_time": 12.697727272727272,
                "pitch": 52,
                "velocity": 25,
                "duration": 0.21363636363636296,
                "tempo": 120.0
            },
            {
                "start_time": 12.06590909090909,
                "end_time": 12.81590909090909,
                "pitch": 53,
                "velocity": 25,
                "duration": 0.75,
                "tempo": 120.0
            },
            {
                "start_time": 12.697727272727272,
                "end_time": 12.81590909090909,
                "pitch": 53,
                "velocity": 25,
                "duration": 0.11818181818181728,
                "tempo": 120.0
            },
            {
                "start_time": 12.81590909090909,
                "end_time": 12.915909090909091,
                "pitch": 53,
                "velocity": 25,
                "duration": 0.10000000000000142,
                "tempo": 120.0
            },
            {
                "start_time": 11.220454545454546,
                "end_time": 12.918181818181818,
                "pitch": 66,
                "velocity": 25,
                "duration": 1.6977272727272723,
                "tempo": 120.0
            },
            {
                "start_time": 11.427272727272726,
                "end_time": 13.131818181818181,
                "pitch": 37,
                "velocity": 25,
                "duration": 1.704545454545455,
                "tempo": 120.0
            },
            {
                "start_time": 12.918181818181818,
                "end_time": 13.131818181818181,
                "pitch": 58,
                "velocity": 25,
                "duration": 0.21363636363636296,
                "tempo": 120.0
            },
            {
                "start_time": 11.73181818181818,
                "end_time": 13.447727272727272,
                "pitch": 48,
                "velocity": 25,
                "duration": 1.7159090909090917,
                "tempo": 120.0
            },
            {
                "start_time": 13.131818181818181,
                "end_time": 13.447727272727272,
                "pitch": 60,
                "velocity": 25,
                "duration": 0.31590909090909136,
                "tempo": 120.0
            },
            {
                "start_time": 13.447727272727272,
                "end_time": 13.561363636363636,
                "pitch": 53,
                "velocity": 25,
                "duration": 0.11363636363636331,
                "tempo": 120.0
            },
            {
                "start_time": 13.561363636363636,
                "end_time": 13.659090909090908,
                "pitch": 51,
                "velocity": 25,
                "duration": 0.09772727272727266,
                "tempo": 120.0
            },
            {
                "start_time": 13.447727272727272,
                "end_time": 13.774999999999999,
                "pitch": 48,
                "velocity": 25,
                "duration": 0.32727272727272627,
                "tempo": 120.0
            },
            {
                "start_time": 13.659090909090908,
                "end_time": 13.774999999999999,
                "pitch": 48,
                "velocity": 25,
                "duration": 0.1159090909090903,
                "tempo": 120.0
            },
            {
                "start_time": 13.774999999999999,
                "end_time": 13.875,
                "pitch": 46,
                "velocity": 25,
                "duration": 0.10000000000000142,
                "tempo": 120.0
            },
            {
                "start_time": 10.368181818181817,
                "end_time": 13.877272727272727,
                "pitch": 25,
                "velocity": 25,
                "duration": 3.5090909090909097,
                "tempo": 120.0
            },
            {
                "start_time": 13.877272727272727,
                "end_time": 13.977272727272727,
                "pitch": 48,
                "velocity": 25,
                "duration": 0.09999999999999964,
                "tempo": 120.0
            },
            {
                "start_time": 13.659090909090908,
                "end_time": 14.097727272727273,
                "pitch": 51,
                "velocity": 25,
                "duration": 0.4386363636363644,
                "tempo": 120.0
            },
            {
                "start_time": 13.979545454545454,
                "end_time": 14.097727272727273,
                "pitch": 51,
                "velocity": 25,
                "duration": 0.11818181818181905,
                "tempo": 120.0
            },
            {
                "start_time": 13.561363636363636,
                "end_time": 14.202272727272726,
                "pitch": 53,
                "velocity": 25,
                "duration": 0.6409090909090907,
                "tempo": 120.0
            },
            {
                "start_time": 14.097727272727273,
                "end_time": 14.202272727272726,
                "pitch": 53,
                "velocity": 25,
                "duration": 0.10454545454545361,
                "tempo": 120.0
            },
            {
                "start_time": 14.202272727272726,
                "end_time": 14.406818181818181,
                "pitch": 34,
                "velocity": 25,
                "duration": 0.20454545454545503,
                "tempo": 120.0
            },
            {
                "start_time": 14.406818181818181,
                "end_time": 14.518181818181818,
                "pitch": 34,
                "velocity": 25,
                "duration": 0.11136363636363633,
                "tempo": 120.0
            },
            {
                "start_time": 14.518181818181818,
                "end_time": 14.613636363636363,
                "pitch": 34,
                "velocity": 25,
                "duration": 0.09545454545454568,
                "tempo": 120.0
            },
            {
                "start_time": 14.613636363636363,
                "end_time": 14.834090909090909,
                "pitch": 34,
                "velocity": 25,
                "duration": 0.22045454545454568,
                "tempo": 120.0
            },
            {
                "start_time": 14.834090909090909,
                "end_time": 15.156818181818181,
                "pitch": 41,
                "velocity": 25,
                "duration": 0.3227272727272723,
                "tempo": 120.0
            },
            {
                "start_time": 14.202272727272726,
                "end_time": 15.156818181818181,
                "pitch": 42,
                "velocity": 25,
                "duration": 0.954545454545455,
                "tempo": 120.0
            },
            {
                "start_time": 15.156818181818181,
                "end_time": 15.375,
                "pitch": 34,
                "velocity": 25,
                "duration": 0.2181818181818187,
                "tempo": 120.0
            },
            {
                "start_time": 14.834090909090909,
                "end_time": 15.472727272727273,
                "pitch": 13,
                "velocity": 25,
                "duration": 0.6386363636363637,
                "tempo": 120.0
            },
            {
                "start_time": 15.375,
                "end_time": 15.472727272727273,
                "pitch": 34,
                "velocity": 25,
                "duration": 0.09772727272727266,
                "tempo": 120.0
            },
            {
                "start_time": 13.131818181818181,
                "end_time": 15.681818181818182,
                "pitch": 37,
                "velocity": 25,
                "duration": 2.5500000000000007,
                "tempo": 120.0
            },
            {
                "start_time": 15.472727272727273,
                "end_time": 15.681818181818182,
                "pitch": 37,
                "velocity": 25,
                "duration": 0.209090909090909,
                "tempo": 120.0
            },
            {
                "start_time": 15.681818181818182,
                "end_time": 15.888636363636364,
                "pitch": 39,
                "velocity": 25,
                "duration": 0.206818181818182,
                "tempo": 120.0
            },
            {
                "start_time": 15.888636363636364,
                "end_time": 16.104545454545455,
                "pitch": 34,
                "velocity": 25,
                "duration": 0.21590909090909172,
                "tempo": 120.0
            },
            {
                "start_time": 16.104545454545455,
                "end_time": 16.204545454545453,
                "pitch": 34,
                "velocity": 25,
                "duration": 0.09999999999999787,
                "tempo": 120.0
            },
            {
                "start_time": 16.204545454545453,
                "end_time": 16.320454545454545,
                "pitch": 34,
                "velocity": 25,
                "duration": 0.11590909090909207,
                "tempo": 120.0
            },
            {
                "start_time": 15.472727272727273,
                "end_time": 16.54090909090909,
                "pitch": 13,
                "velocity": 25,
                "duration": 1.0681818181818166,
                "tempo": 120.0
            },
            {
                "start_time": 16.320454545454545,
                "end_time": 16.54090909090909,
                "pitch": 34,
                "velocity": 25,
                "duration": 0.2204545454545439,
                "tempo": 120.0
            },
            {
                "start_time": 15.888636363636364,
                "end_time": 16.863636363636363,
                "pitch": 41,
                "velocity": 25,
                "duration": 0.9749999999999996,
                "tempo": 120.0
            },
            {
                "start_time": 16.54090909090909,
                "end_time": 16.863636363636363,
                "pitch": 41,
                "velocity": 25,
                "duration": 0.3227272727272741,
                "tempo": 120.0
            },
            {
                "start_time": 15.156818181818181,
                "end_time": 16.863636363636363,
                "pitch": 42,
                "velocity": 25,
                "duration": 1.706818181818182,
                "tempo": 120.0
            },
            {
                "start_time": 16.863636363636363,
                "end_time": 17.081818181818182,
                "pitch": 34,
                "velocity": 25,
                "duration": 0.2181818181818187,
                "tempo": 120.0
            },
            {
                "start_time": 16.54090909090909,
                "end_time": 17.179545454545455,
                "pitch": 13,
                "velocity": 25,
                "duration": 0.6386363636363654,
                "tempo": 120.0
            },
            {
                "start_time": 17.081818181818182,
                "end_time": 17.179545454545455,
                "pitch": 34,
                "velocity": 25,
                "duration": 0.09772727272727266,
                "tempo": 120.0
            },
            {
                "start_time": 15.681818181818182,
                "end_time": 17.388636363636362,
                "pitch": 37,
                "velocity": 25,
                "duration": 1.7068181818181802,
                "tempo": 120.0
            },
            {
                "start_time": 17.179545454545455,
                "end_time": 17.388636363636362,
                "pitch": 37,
                "velocity": 25,
                "duration": 0.20909090909090722,
                "tempo": 120.0
            },
            {
                "start_time": 17.388636363636362,
                "end_time": 17.595454545454544,
                "pitch": 39,
                "velocity": 25,
                "duration": 0.206818181818182,
                "tempo": 120.0
            },
            {
                "start_time": 17.595454545454544,
                "end_time": 17.81590909090909,
                "pitch": 32,
                "velocity": 25,
                "duration": 0.22045454545454746,
                "tempo": 120.0
            },
            {
                "start_time": 17.81590909090909,
                "end_time": 17.918181818181818,
                "pitch": 32,
                "velocity": 25,
                "duration": 0.10227272727272663,
                "tempo": 120.0
            },
            {
                "start_time": 17.918181818181818,
                "end_time": 18.036363636363635,
                "pitch": 32,
                "velocity": 25,
                "duration": 0.11818181818181728,
                "tempo": 120.0
            },
            {
                "start_time": 18.036363636363635,
                "end_time": 18.252272727272725,
                "pitch": 32,
                "velocity": 25,
                "duration": 0.21590909090908994,
                "tempo": 120.0
            },
            {
                "start_time": 17.595454545454544,
                "end_time": 18.563636363636363,
                "pitch": 41,
                "velocity": 25,
                "duration": 0.9681818181818187,
                "tempo": 120.0
            },
            {
                "start_time": 18.563636363636363,
                "end_time": 18.772727272727273,
                "pitch": 32,
                "velocity": 25,
                "duration": 0.20909090909091077,
                "tempo": 120.0
            },
            {
                "start_time": 18.772727272727273,
                "end_time": 18.86590909090909,
                "pitch": 32,
                "velocity": 25,
                "duration": 0.09318181818181515,
                "tempo": 120.0
            },
            {
                "start_time": 17.179545454545455,
                "end_time": 19.08863636363636,
                "pitch": 13,
                "velocity": 25,
                "duration": 1.9090909090909065,
                "tempo": 120.0
            },
            {
                "start_time": 18.86590909090909,
                "end_time": 19.08863636363636,
                "pitch": 32,
                "velocity": 25,
                "duration": 0.22272727272727266,
                "tempo": 120.0
            },
            {
                "start_time": 19.08863636363636,
                "end_time": 19.30909090909091,
                "pitch": 36,
                "velocity": 25,
                "duration": 0.22045454545454746,
                "tempo": 120.0
            },
            {
                "start_time": 18.563636363636363,
                "end_time": 19.525,
                "pitch": 41,
                "velocity": 25,
                "duration": 0.961363636363636,
                "tempo": 120.0
            },
            {
                "start_time": 19.311363636363634,
                "end_time": 19.525,
                "pitch": 41,
                "velocity": 25,
                "duration": 0.21363636363636473,
                "tempo": 120.0
            },
            {
                "start_time": 19.525,
                "end_time": 19.627272727272725,
                "pitch": 41,
                "velocity": 25,
                "duration": 0.10227272727272663,
                "tempo": 120.0
            },
            {
                "start_time": 19.627272727272725,
                "end_time": 19.743181818181817,
                "pitch": 41,
                "velocity": 25,
                "duration": 0.11590909090909207,
                "tempo": 120.0
            },
            {
                "start_time": 10.049999999999999,
                "end_time": 19.743181818181817,
                "pitch": 54,
                "velocity": 25,
                "duration": 9.693181818181818,
                "tempo": 120.0
            },
            {
                "start_time": 13.877272727272727,
                "end_time": 19.943181818181817,
                "pitch": 25,
                "velocity": 25,
                "duration": 6.06590909090909,
                "tempo": 120.0
            },
            {
                "start_time": 19.743181818181817,
                "end_time": 19.943181818181817,
                "pitch": 46,
                "velocity": 25,
                "duration": 0.1999999999999993,
                "tempo": 120.0
            },
            {
                "start_time": 19.311363636363634,
                "end_time": 20.270454545454545,
                "pitch": 36,
                "velocity": 25,
                "duration": 0.9590909090909108,
                "tempo": 120.0
            },
            {
                "start_time": 13.979545454545454,
                "end_time": 20.270454545454545,
                "pitch": 48,
                "velocity": 25,
                "duration": 6.290909090909091,
                "tempo": 120.0
            },
            {
                "start_time": 19.943181818181817,
                "end_time": 20.270454545454545,
                "pitch": 48,
                "velocity": 25,
                "duration": 0.32727272727272805,
                "tempo": 120.0
            },
            {
                "start_time": 20.270454545454545,
                "end_time": 20.477272727272727,
                "pitch": 41,
                "velocity": 25,
                "duration": 0.206818181818182,
                "tempo": 120.0
            },
            {
                "start_time": 20.477272727272727,
                "end_time": 20.575,
                "pitch": 41,
                "velocity": 25,
                "duration": 0.09772727272727266,
                "tempo": 120.0
            },
            {
                "start_time": 20.575,
                "end_time": 20.788636363636364,
                "pitch": 41,
                "velocity": 25,
                "duration": 0.21363636363636473,
                "tempo": 120.0
            },
            {
                "start_time": 20.788636363636364,
                "end_time": 21.009090909090908,
                "pitch": 39,
                "velocity": 25,
                "duration": 0.2204545454545439,
                "tempo": 120.0
            },
            {
                "start_time": 21.009090909090908,
                "end_time": 21.229545454545452,
                "pitch": 46,
                "velocity": 25,
                "duration": 0.2204545454545439,
                "tempo": 120.0
            },
            {
                "start_time": 21.229545454545452,
                "end_time": 21.331818181818182,
                "pitch": 46,
                "velocity": 25,
                "duration": 0.10227272727273018,
                "tempo": 120.0
            },
            {
                "start_time": 21.331818181818182,
                "end_time": 21.43181818181818,
                "pitch": 46,
                "velocity": 25,
                "duration": 0.09999999999999787,
                "tempo": 120.0
            },
            {
                "start_time": 19.943181818181817,
                "end_time": 21.638636363636362,
                "pitch": 25,
                "velocity": 25,
                "duration": 1.6954545454545453,
                "tempo": 120.0
            },
            {
                "start_time": 21.43181818181818,
                "end_time": 21.638636363636362,
                "pitch": 46,
                "velocity": 25,
                "duration": 0.206818181818182,
                "tempo": 120.0
            },
            {
                "start_time": 21.009090909090908,
                "end_time": 21.961363636363636,
                "pitch": 53,
                "velocity": 25,
                "duration": 0.952272727272728,
                "tempo": 120.0
            },
            {
                "start_time": 21.638636363636362,
                "end_time": 21.961363636363636,
                "pitch": 53,
                "velocity": 25,
                "duration": 0.3227272727272741,
                "tempo": 120.0
            },
            {
                "start_time": 19.743181818181817,
                "end_time": 21.96363636363636,
                "pitch": 54,
                "velocity": 25,
                "duration": 2.220454545454544,
                "tempo": 120.0
            },
            {
                "start_time": 21.961363636363636,
                "end_time": 21.96363636363636,
                "pitch": 54,
                "velocity": 25,
                "duration": 0.0022727272727252057,
                "tempo": 120.0
            },
            {
                "start_time": 21.96363636363636,
                "end_time": 22.163636363636364,
                "pitch": 46,
                "velocity": 25,
                "duration": 0.20000000000000284,
                "tempo": 120.0
            },
            {
                "start_time": 21.638636363636362,
                "end_time": 22.279545454545453,
                "pitch": 25,
                "velocity": 25,
                "duration": 0.6409090909090907,
                "tempo": 120.0
            },
            {
                "start_time": 22.163636363636364,
                "end_time": 22.279545454545453,
                "pitch": 46,
                "velocity": 25,
                "duration": 0.11590909090908852,
                "tempo": 120.0
            },
            {
                "start_time": 10.586363636363636,
                "end_time": 22.502272727272725,
                "pitch": 49,
                "velocity": 25,
                "duration": 11.91590909090909,
                "tempo": 120.0
            },
            {
                "start_time": 22.279545454545453,
                "end_time": 22.502272727272725,
                "pitch": 49,
                "velocity": 25,
                "duration": 0.22272727272727266,
                "tempo": 120.0
            },
            {
                "start_time": 14.097727272727273,
                "end_time": 22.724999999999998,
                "pitch": 51,
                "velocity": 25,
                "duration": 8.627272727272725,
                "tempo": 120.0
            },
            {
                "start_time": 22.502272727272725,
                "end_time": 22.724999999999998,
                "pitch": 51,
                "velocity": 25,
                "duration": 0.22272727272727266,
                "tempo": 120.0
            },
            {
                "start_time": 22.724999999999998,
                "end_time": 22.924999999999997,
                "pitch": 46,
                "velocity": 25,
                "duration": 0.1999999999999993,
                "tempo": 120.0
            },
            {
                "start_time": 22.924999999999997,
                "end_time": 23.04090909090909,
                "pitch": 46,
                "velocity": 25,
                "duration": 0.11590909090909207,
                "tempo": 120.0
            },
            {
                "start_time": 23.04090909090909,
                "end_time": 23.138636363636362,
                "pitch": 46,
                "velocity": 25,
                "duration": 0.09772727272727266,
                "tempo": 120.0
            },
            {
                "start_time": 22.279545454545453,
                "end_time": 23.352272727272727,
                "pitch": 25,
                "velocity": 25,
                "duration": 1.072727272727274,
                "tempo": 120.0
            },
            {
                "start_time": 23.138636363636362,
                "end_time": 23.352272727272727,
                "pitch": 46,
                "velocity": 25,
                "duration": 0.21363636363636473,
                "tempo": 120.0
            },
            {
                "start_time": 22.724999999999998,
                "end_time": 23.661363636363635,
                "pitch": 53,
                "velocity": 25,
                "duration": 0.9363636363636374,
                "tempo": 120.0
            },
            {
                "start_time": 23.352272727272727,
                "end_time": 23.661363636363635,
                "pitch": 53,
                "velocity": 25,
                "duration": 0.30909090909090864,
                "tempo": 120.0
            },
            {
                "start_time": 23.663636363636364,
                "end_time": 23.877272727272725,
                "pitch": 46,
                "velocity": 25,
                "duration": 0.21363636363636118,
                "tempo": 120.0
            },
            {
                "start_time": 23.352272727272727,
                "end_time": 23.988636363636363,
                "pitch": 25,
                "velocity": 25,
                "duration": 0.6363636363636367,
                "tempo": 120.0
            },
            {
                "start_time": 23.877272727272725,
                "end_time": 23.988636363636363,
                "pitch": 46,
                "velocity": 25,
                "duration": 0.11136363636363811,
                "tempo": 120.0
            },
            {
                "start_time": 22.502272727272725,
                "end_time": 24.206818181818182,
                "pitch": 49,
                "velocity": 25,
                "duration": 1.7045454545454568,
                "tempo": 120.0
            },
            {
                "start_time": 23.988636363636363,
                "end_time": 24.206818181818182,
                "pitch": 49,
                "velocity": 25,
                "duration": 0.2181818181818187,
                "tempo": 120.0
            },
            {
                "start_time": 24.206818181818182,
                "end_time": 24.40681818181818,
                "pitch": 51,
                "velocity": 25,
                "duration": 0.1999999999999993,
                "tempo": 120.0
            },
            {
                "start_time": 23.663636363636364,
                "end_time": 24.618181818181817,
                "pitch": 54,
                "velocity": 25,
                "duration": 0.9545454545454533,
                "tempo": 120.0
            },
            {
                "start_time": 24.409090909090907,
                "end_time": 24.618181818181817,
                "pitch": 54,
                "velocity": 25,
                "duration": 0.20909090909091077,
                "tempo": 120.0
            },
            {
                "start_time": 24.618181818181817,
                "end_time": 24.73409090909091,
                "pitch": 54,
                "velocity": 25,
                "duration": 0.11590909090909207,
                "tempo": 120.0
            },
            {
                "start_time": 24.73409090909091,
                "end_time": 24.831818181818182,
                "pitch": 54,
                "velocity": 25,
                "duration": 0.09772727272727266,
                "tempo": 120.0
            },
            {
                "start_time": 24.831818181818182,
                "end_time": 25.054545454545455,
                "pitch": 54,
                "velocity": 25,
                "duration": 0.22272727272727266,
                "tempo": 120.0
            },
            {
                "start_time": 12.918181818181818,
                "end_time": 25.054545454545455,
                "pitch": 66,
                "velocity": 25,
                "duration": 12.136363636363637,
                "tempo": 120.0
            },
            {
                "start_time": 24.206818181818182,
                "end_time": 25.375,
                "pitch": 49,
                "velocity": 25,
                "duration": 1.168181818181818,
                "tempo": 120.0
            },
            {
                "start_time": 25.054545454545455,
                "end_time": 25.375,
                "pitch": 61,
                "velocity": 25,
                "duration": 0.3204545454545453,
                "tempo": 120.0
            },
            {
                "start_time": 25.375,
                "end_time": 25.59090909090909,
                "pitch": 54,
                "velocity": 25,
                "duration": 0.21590909090908994,
                "tempo": 120.0
            },
            {
                "start_time": 25.59090909090909,
                "end_time": 25.709090909090907,
                "pitch": 54,
                "velocity": 25,
                "duration": 0.11818181818181728,
                "tempo": 120.0
            },
            {
                "start_time": 25.054545454545455,
                "end_time": 25.709090909090907,
                "pitch": 66,
                "velocity": 25,
                "duration": 0.6545454545454525,
                "tempo": 120.0
            },
            {
                "start_time": 25.709090909090907,
                "end_time": 25.909090909090907,
                "pitch": 56,
                "velocity": 25,
                "duration": 0.1999999999999993,
                "tempo": 120.0
            },
            {
                "start_time": 25.909090909090907,
                "end_time": 26.127272727272725,
                "pitch": 56,
                "velocity": 25,
                "duration": 0.2181818181818187,
                "tempo": 120.0
            },
            {
                "start_time": 26.127272727272725,
                "end_time": 26.336363636363636,
                "pitch": 44,
                "velocity": 25,
                "duration": 0.20909090909091077,
                "tempo": 120.0
            },
            {
                "start_time": 26.336363636363636,
                "end_time": 26.452272727272724,
                "pitch": 56,
                "velocity": 25,
                "duration": 0.11590909090908852,
                "tempo": 120.0
            },
            {
                "start_time": 26.452272727272724,
                "end_time": 26.65,
                "pitch": 44,
                "velocity": 25,
                "duration": 0.19772727272727408,
                "tempo": 120.0
            },
            {
                "start_time": 26.65,
                "end_time": 26.768181818181816,
                "pitch": 48,
                "velocity": 25,
                "duration": 0.11818181818181728,
                "tempo": 120.0
            },
            {
                "start_time": 24.409090909090907,
                "end_time": 26.98409090909091,
                "pitch": 51,
                "velocity": 25,
                "duration": 2.575000000000003,
                "tempo": 120.0
            },
            {
                "start_time": 26.768181818181816,
                "end_time": 26.98409090909091,
                "pitch": 51,
                "velocity": 25,
                "duration": 0.2159090909090935,
                "tempo": 120.0
            },
            {
                "start_time": 26.98409090909091,
                "end_time": 27.2,
                "pitch": 44,
                "velocity": 25,
                "duration": 0.21590909090908994,
                "tempo": 120.0
            },
            {
                "start_time": 27.202272727272724,
                "end_time": 27.299999999999997,
                "pitch": 56,
                "velocity": 25,
                "duration": 0.09772727272727266,
                "tempo": 120.0
            },
            {
                "start_time": 27.299999999999997,
                "end_time": 27.4,
                "pitch": 56,
                "velocity": 25,
                "duration": 0.10000000000000142,
                "tempo": 120.0
            },
            {
                "start_time": 27.402272727272727,
                "end_time": 27.60681818181818,
                "pitch": 44,
                "velocity": 25,
                "duration": 0.20454545454545325,
                "tempo": 120.0
            },
            {
                "start_time": 27.60681818181818,
                "end_time": 27.718181818181815,
                "pitch": 57,
                "velocity": 25,
                "duration": 0.11136363636363455,
                "tempo": 120.0
            },
            {
                "start_time": 27.718181818181815,
                "end_time": 27.815909090909088,
                "pitch": 57,
                "velocity": 25,
                "duration": 0.09772727272727266,
                "tempo": 120.0
            },
            {
                "start_time": 27.815909090909088,
                "end_time": 27.93181818181818,
                "pitch": 45,
                "velocity": 25,
                "duration": 0.11590909090909207,
                "tempo": 120.0
            },
            {
                "start_time": 26.127272727272725,
                "end_time": 28.034090909090907,
                "pitch": 46,
                "velocity": 25,
                "duration": 1.9068181818181813,
                "tempo": 120.0
            },
            {
                "start_time": 27.93181818181818,
                "end_time": 28.034090909090907,
                "pitch": 46,
                "velocity": 25,
                "duration": 0.10227272727272663,
                "tempo": 120.0
            },
            {
                "start_time": 28.034090909090907,
                "end_time": 28.136363636363637,
                "pitch": 58,
                "velocity": 25,
                "duration": 0.10227272727273018,
                "tempo": 120.0
            },
            {
                "start_time": 28.136363636363637,
                "end_time": 28.25681818181818,
                "pitch": 46,
                "velocity": 25,
                "duration": 0.12045454545454248,
                "tempo": 120.0
            },
            {
                "start_time": 28.25681818181818,
                "end_time": 28.35909090909091,
                "pitch": 46,
                "velocity": 25,
                "duration": 0.10227272727273018,
                "tempo": 120.0
            },
            {
                "start_time": 28.35909090909091,
                "end_time": 28.477272727272727,
                "pitch": 58,
                "velocity": 25,
                "duration": 0.11818181818181728,
                "tempo": 120.0
            },
            {
                "start_time": 28.477272727272727,
                "end_time": 28.579545454545453,
                "pitch": 46,
                "velocity": 25,
                "duration": 0.10227272727272663,
                "tempo": 120.0
            },
            {
                "start_time": 28.579545454545453,
                "end_time": 28.7,
                "pitch": 58,
                "velocity": 25,
                "duration": 0.12045454545454604,
                "tempo": 120.0
            },
            {
                "start_time": 28.7,
                "end_time": 28.702272727272724,
                "pitch": 46,
                "velocity": 25,
                "duration": 0.0022727272727252057,
                "tempo": 120.0
            },
            {
                "start_time": 28.477272727272727,
                "end_time": 28.797727272727272,
                "pitch": 44,
                "velocity": 25,
                "duration": 0.3204545454545453,
                "tempo": 120.0
            },
            {
                "start_time": 28.702272727272724,
                "end_time": 28.797727272727272,
                "pitch": 44,
                "velocity": 25,
                "duration": 0.09545454545454746,
                "tempo": 120.0
            },
            {
                "start_time": 28.797727272727272,
                "end_time": 28.895454545454545,
                "pitch": 44,
                "velocity": 25,
                "duration": 0.09772727272727266,
                "tempo": 120.0
            },
            {
                "start_time": 28.895454545454545,
                "end_time": 29.009090909090908,
                "pitch": 56,
                "velocity": 25,
                "duration": 0.11363636363636331,
                "tempo": 120.0
            },
            {
                "start_time": 29.011363636363637,
                "end_time": 29.10681818181818,
                "pitch": 44,
                "velocity": 25,
                "duration": 0.0954545454545439,
                "tempo": 120.0
            },
            {
                "start_time": 29.10681818181818,
                "end_time": 29.222727272727273,
                "pitch": 44,
                "velocity": 25,
                "duration": 0.11590909090909207,
                "tempo": 120.0
            },
            {
                "start_time": 29.222727272727273,
                "end_time": 29.320454545454545,
                "pitch": 56,
                "velocity": 25,
                "duration": 0.09772727272727266,
                "tempo": 120.0
            },
            {
                "start_time": 29.320454545454545,
                "end_time": 29.43409090909091,
                "pitch": 44,
                "velocity": 25,
                "duration": 0.11363636363636331,
                "tempo": 120.0
            },
            {
                "start_time": 29.43409090909091,
                "end_time": 29.534090909090907,
                "pitch": 56,
                "velocity": 25,
                "duration": 0.09999999999999787,
                "tempo": 120.0
            },
            {
                "start_time": 0.5545454545454546,
                "end_time": 29.75,
                "pitch": 43,
                "velocity": 25,
                "duration": 29.195454545454545,
                "tempo": 120.0
            },
            {
                "start_time": 29.63181818181818,
                "end_time": 29.75,
                "pitch": 43,
                "velocity": 25,
                "duration": 0.11818181818182083,
                "tempo": 120.0
            },
            {
                "start_time": 29.75,
                "end_time": 29.849999999999998,
                "pitch": 55,
                "velocity": 25,
                "duration": 0.09999999999999787,
                "tempo": 120.0
            },
            {
                "start_time": 29.849999999999998,
                "end_time": 29.96590909090909,
                "pitch": 43,
                "velocity": 25,
                "duration": 0.11590909090909207,
                "tempo": 120.0
            },
            {
                "start_time": 29.96590909090909,
                "end_time": 30.068181818181817,
                "pitch": 43,
                "velocity": 25,
                "duration": 0.10227272727272663,
                "tempo": 120.0
            },
            {
                "start_time": 30.068181818181817,
                "end_time": 30.188636363636363,
                "pitch": 55,
                "velocity": 25,
                "duration": 0.12045454545454604,
                "tempo": 120.0
            },
            {
                "start_time": 30.188636363636363,
                "end_time": 30.29090909090909,
                "pitch": 43,
                "velocity": 25,
                "duration": 0.10227272727272663,
                "tempo": 120.0
            },
            {
                "start_time": 30.29090909090909,
                "end_time": 30.393181818181816,
                "pitch": 55,
                "velocity": 25,
                "duration": 0.10227272727272663,
                "tempo": 120.0
            },
            {
                "start_time": 30.393181818181816,
                "end_time": 30.504545454545454,
                "pitch": 43,
                "velocity": 25,
                "duration": 0.11136363636363811,
                "tempo": 120.0
            },
            {
                "start_time": 16.863636363636363,
                "end_time": 30.599999999999998,
                "pitch": 42,
                "velocity": 25,
                "duration": 13.736363636363635,
                "tempo": 120.0
            },
            {
                "start_time": 30.504545454545454,
                "end_time": 30.599999999999998,
                "pitch": 42,
                "velocity": 25,
                "duration": 0.0954545454545439,
                "tempo": 120.0
            },
            {
                "start_time": 30.599999999999998,
                "end_time": 30.711363636363636,
                "pitch": 54,
                "velocity": 25,
                "duration": 0.11136363636363811,
                "tempo": 120.0
            },
            {
                "start_time": 30.711363636363636,
                "end_time": 30.80681818181818,
                "pitch": 54,
                "velocity": 25,
                "duration": 0.0954545454545439,
                "tempo": 120.0
            },
            {
                "start_time": 30.80681818181818,
                "end_time": 30.922727272727272,
                "pitch": 42,
                "velocity": 25,
                "duration": 0.11590909090909207,
                "tempo": 120.0
            },
            {
                "start_time": 30.922727272727272,
                "end_time": 31.02272727272727,
                "pitch": 41,
                "velocity": 25,
                "duration": 0.09999999999999787,
                "tempo": 120.0
            },
            {
                "start_time": 26.98409090909091,
                "end_time": 31.12272727272727,
                "pitch": 53,
                "velocity": 25,
                "duration": 4.138636363636362,
                "tempo": 120.0
            },
            {
                "start_time": 31.02272727272727,
                "end_time": 31.12272727272727,
                "pitch": 53,
                "velocity": 25,
                "duration": 0.10000000000000142,
                "tempo": 120.0
            },
            {
                "start_time": 31.12272727272727,
                "end_time": 31.24090909090909,
                "pitch": 53,
                "velocity": 25,
                "duration": 0.11818181818181728,
                "tempo": 120.0
            },
            {
                "start_time": 31.24090909090909,
                "end_time": 31.33863636363636,
                "pitch": 46,
                "velocity": 25,
                "duration": 0.09772727272727266,
                "tempo": 120.0
            },
            {
                "start_time": 31.33863636363636,
                "end_time": 31.456818181818182,
                "pitch": 46,
                "velocity": 25,
                "duration": 0.11818181818182083,
                "tempo": 120.0
            },
            {
                "start_time": 31.456818181818182,
                "end_time": 31.55681818181818,
                "pitch": 58,
                "velocity": 25,
                "duration": 0.09999999999999787,
                "tempo": 120.0
            },
            {
                "start_time": 31.55681818181818,
                "end_time": 31.672727272727272,
                "pitch": 46,
                "velocity": 25,
                "duration": 0.11590909090909207,
                "tempo": 120.0
            },
            {
                "start_time": 31.672727272727272,
                "end_time": 31.77272727272727,
                "pitch": 46,
                "velocity": 25,
                "duration": 0.09999999999999787,
                "tempo": 120.0
            },
            {
                "start_time": 31.77272727272727,
                "end_time": 31.87272727272727,
                "pitch": 58,
                "velocity": 25,
                "duration": 0.10000000000000142,
                "tempo": 120.0
            },
            {
                "start_time": 31.87272727272727,
                "end_time": 31.988636363636363,
                "pitch": 46,
                "velocity": 25,
                "duration": 0.11590909090909207,
                "tempo": 120.0
            },
            {
                "start_time": 31.988636363636363,
                "end_time": 32.090909090909086,
                "pitch": 58,
                "velocity": 25,
                "duration": 0.10227272727272307,
                "tempo": 120.0
            },
            {
                "start_time": 31.87272727272727,
                "end_time": 32.20454545454545,
                "pitch": 44,
                "velocity": 25,
                "duration": 0.331818181818182,
                "tempo": 120.0
            },
            {
                "start_time": 32.090909090909086,
                "end_time": 32.20454545454545,
                "pitch": 44,
                "velocity": 25,
                "duration": 0.11363636363636687,
                "tempo": 120.0
            },
            {
                "start_time": 32.20454545454545,
                "end_time": 32.30227272727272,
                "pitch": 44,
                "velocity": 25,
                "duration": 0.09772727272726911,
                "tempo": 120.0
            },
            {
                "start_time": 32.30227272727272,
                "end_time": 32.41590909090909,
                "pitch": 56,
                "velocity": 25,
                "duration": 0.11363636363636687,
                "tempo": 120.0
            },
            {
                "start_time": 32.41590909090909,
                "end_time": 32.513636363636365,
                "pitch": 44,
                "velocity": 25,
                "duration": 0.09772727272727622,
                "tempo": 120.0
            },
            {
                "start_time": 32.513636363636365,
                "end_time": 32.61363636363636,
                "pitch": 44,
                "velocity": 25,
                "duration": 0.09999999999999432,
                "tempo": 120.0
            },
            {
                "start_time": 32.61363636363636,
                "end_time": 32.73181818181818,
                "pitch": 56,
                "velocity": 25,
                "duration": 0.11818181818181728,
                "tempo": 120.0
            },
            {
                "start_time": 32.73181818181818,
                "end_time": 32.83181818181818,
                "pitch": 44,
                "velocity": 25,
                "duration": 0.10000000000000142,
                "tempo": 120.0
            },
            {
                "start_time": 32.83181818181818,
                "end_time": 32.949999999999996,
                "pitch": 56,
                "velocity": 25,
                "duration": 0.11818181818181728,
                "tempo": 120.0
            },
            {
                "start_time": 33.04772727272727,
                "end_time": 33.16590909090909,
                "pitch": 43,
                "velocity": 25,
                "duration": 0.11818181818181728,
                "tempo": 120.0
            },
            {
                "start_time": 33.16590909090909,
                "end_time": 33.26590909090909,
                "pitch": 55,
                "velocity": 25,
                "duration": 0.10000000000000142,
                "tempo": 120.0
            },
            {
                "start_time": 33.26590909090909,
                "end_time": 33.36590909090909,
                "pitch": 43,
                "velocity": 25,
                "duration": 0.10000000000000142,
                "tempo": 120.0
            },
            {
                "start_time": 33.36590909090909,
                "end_time": 33.47954545454545,
                "pitch": 43,
                "velocity": 25,
                "duration": 0.11363636363635976,
                "tempo": 120.0
            },
            {
                "start_time": 33.47954545454545,
                "end_time": 33.57727272727273,
                "pitch": 55,
                "velocity": 25,
                "duration": 0.09772727272727622,
                "tempo": 120.0
            },
            {
                "start_time": 33.57727272727273,
                "end_time": 33.69318181818181,
                "pitch": 43,
                "velocity": 25,
                "duration": 0.11590909090908497,
                "tempo": 120.0
            },
            {
                "start_time": 33.69318181818181,
                "end_time": 33.79090909090909,
                "pitch": 55,
                "velocity": 25,
                "duration": 0.09772727272727622,
                "tempo": 120.0
            },
            {
                "start_time": 33.79090909090909,
                "end_time": 33.90681818181818,
                "pitch": 43,
                "velocity": 25,
                "duration": 0.11590909090909207,
                "tempo": 120.0
            },
            {
                "start_time": 33.90681818181818,
                "end_time": 34.00681818181818,
                "pitch": 42,
                "velocity": 25,
                "duration": 0.10000000000000142,
                "tempo": 120.0
            },
            {
                "start_time": 31.24090909090909,
                "end_time": 34.10681818181818,
                "pitch": 54,
                "velocity": 25,
                "duration": 2.8659090909090885,
                "tempo": 120.0
            },
            {
                "start_time": 34.00681818181818,
                "end_time": 34.10681818181818,
                "pitch": 54,
                "velocity": 25,
                "duration": 0.09999999999999432,
                "tempo": 120.0
            },
            {
                "start_time": 34.10681818181818,
                "end_time": 34.225,
                "pitch": 54,
                "velocity": 25,
                "duration": 0.11818181818182438,
                "tempo": 120.0
            },
            {
                "start_time": 34.225,
                "end_time": 34.32272727272727,
                "pitch": 42,
                "velocity": 25,
                "duration": 0.09772727272726911,
                "tempo": 120.0
            },
            {
                "start_time": 34.32272727272727,
                "end_time": 34.43636363636364,
                "pitch": 41,
                "velocity": 25,
                "duration": 0.11363636363636687,
                "tempo": 120.0
            },
            {
                "start_time": 34.43636363636364,
                "end_time": 34.53409090909091,
                "pitch": 53,
                "velocity": 25,
                "duration": 0.09772727272726911,
                "tempo": 120.0
            },
            {
                "start_time": 34.53409090909091,
                "end_time": 34.65,
                "pitch": 53,
                "velocity": 25,
                "duration": 0.11590909090909207,
                "tempo": 120.0
            },
            {
                "start_time": 34.65,
                "end_time": 34.85227272727273,
                "pitch": 41,
                "velocity": 25,
                "duration": 0.20227272727272805,
                "tempo": 120.0
            },
            {
                "start_time": 34.85227272727273,
                "end_time": 34.97272727272727,
                "pitch": 42,
                "velocity": 25,
                "duration": 0.12045454545454248,
                "tempo": 120.0
            },
            {
                "start_time": 17.388636363636362,
                "end_time": 35.18863636363636,
                "pitch": 37,
                "velocity": 25,
                "duration": 17.8,
                "tempo": 120.0
            },
            {
                "start_time": 25.375,
                "end_time": 35.18863636363636,
                "pitch": 49,
                "velocity": 25,
                "duration": 9.813636363636363,
                "tempo": 120.0
            },
            {
                "start_time": 34.97272727272727,
                "end_time": 35.18863636363636,
                "pitch": 49,
                "velocity": 25,
                "duration": 0.2159090909090935,
                "tempo": 120.0
            },
            {
                "start_time": 35.18863636363636,
                "end_time": 35.28636363636363,
                "pitch": 42,
                "velocity": 25,
                "duration": 0.09772727272726911,
                "tempo": 120.0
            },
            {
                "start_time": 35.28636363636363,
                "end_time": 35.4,
                "pitch": 40,
                "velocity": 25,
                "duration": 0.11363636363636687,
                "tempo": 120.0
            },
            {
                "start_time": 35.402272727272724,
                "end_time": 35.5,
                "pitch": 40,
                "velocity": 25,
                "duration": 0.09772727272727622,
                "tempo": 120.0
            },
            {
                "start_time": 35.5,
                "end_time": 35.715909090909086,
                "pitch": 41,
                "velocity": 25,
                "duration": 0.2159090909090864,
                "tempo": 120.0
            },
            {
                "start_time": 35.28636363636363,
                "end_time": 35.81818181818181,
                "pitch": 42,
                "velocity": 25,
                "duration": 0.5318181818181813,
                "tempo": 120.0
            },
            {
                "start_time": 35.715909090909086,
                "end_time": 35.81818181818181,
                "pitch": 42,
                "velocity": 25,
                "duration": 0.10227272727272663,
                "tempo": 120.0
            },
            {
                "start_time": 34.97272727272727,
                "end_time": 35.81818181818181,
                "pitch": 54,
                "velocity": 25,
                "duration": 0.8454545454545439,
                "tempo": 120.0
            },
            {
                "start_time": 35.18863636363636,
                "end_time": 36.03636363636363,
                "pitch": 37,
                "velocity": 25,
                "duration": 0.8477272727272691,
                "tempo": 120.0
            },
            {
                "start_time": 35.81818181818181,
                "end_time": 36.03636363636363,
                "pitch": 49,
                "velocity": 25,
                "duration": 0.2181818181818187,
                "tempo": 120.0
            },
            {
                "start_time": 36.03636363636363,
                "end_time": 36.154545454545456,
                "pitch": 42,
                "velocity": 25,
                "duration": 0.11818181818182438,
                "tempo": 120.0
            },
            {
                "start_time": 35.81818181818181,
                "end_time": 36.154545454545456,
                "pitch": 54,
                "velocity": 25,
                "duration": 0.3363636363636431,
                "tempo": 120.0
            },
            {
                "start_time": 36.154545454545456,
                "end_time": 36.25681818181818,
                "pitch": 44,
                "velocity": 25,
                "duration": 0.10227272727272663,
                "tempo": 120.0
            },
            {
                "start_time": 32.090909090909086,
                "end_time": 36.361363636363635,
                "pitch": 46,
                "velocity": 25,
                "duration": 4.270454545454548,
                "tempo": 120.0
            },
            {
                "start_time": 36.25681818181818,
                "end_time": 36.361363636363635,
                "pitch": 46,
                "velocity": 25,
                "duration": 0.10454545454545183,
                "tempo": 120.0
            },
            {
                "start_time": 36.25681818181818,
                "end_time": 36.56590909090909,
                "pitch": 44,
                "velocity": 25,
                "duration": 0.3090909090909051,
                "tempo": 120.0
            },
            {
                "start_time": 36.361363636363635,
                "end_time": 36.56590909090909,
                "pitch": 44,
                "velocity": 25,
                "duration": 0.20454545454545325,
                "tempo": 120.0
            },
            {
                "start_time": 26.65,
                "end_time": 36.67727272727272,
                "pitch": 2,
                "velocity": 25,
                "duration": 10.027272727272724,
                "tempo": 120.0
            },
            {
                "start_time": 36.56590909090909,
                "end_time": 36.67727272727272,
                "pitch": 44,
                "velocity": 25,
                "duration": 0.11136363636363455,
                "tempo": 120.0
            },
            {
                "start_time": 36.67727272727272,
                "end_time": 36.88863636363636,
                "pitch": 51,
                "velocity": 25,
                "duration": 0.21136363636363598,
                "tempo": 120.0
            },
            {
                "start_time": 36.88863636363636,
                "end_time": 36.98863636363636,
                "pitch": 44,
                "velocity": 25,
                "duration": 0.10000000000000142,
                "tempo": 120.0
            },
            {
                "start_time": 37.08863636363636,
                "end_time": 37.20681818181818,
                "pitch": 39,
                "velocity": 25,
                "duration": 0.11818181818181728,
                "tempo": 120.0
            },
            {
                "start_time": 36.154545454545456,
                "end_time": 37.20681818181818,
                "pitch": 54,
                "velocity": 25,
                "duration": 1.0522727272727224,
                "tempo": 120.0
            },
            {
                "start_time": 37.20681818181818,
                "end_time": 37.42272727272727,
                "pitch": 44,
                "velocity": 25,
                "duration": 0.2159090909090935,
                "tempo": 120.0
            },
            {
                "start_time": 37.42272727272727,
                "end_time": 37.52272727272727,
                "pitch": 44,
                "velocity": 25,
                "duration": 0.10000000000000142,
                "tempo": 120.0
            },
            {
                "start_time": 37.52272727272727,
                "end_time": 37.74090909090909,
                "pitch": 44,
                "velocity": 25,
                "duration": 0.2181818181818187,
                "tempo": 120.0
            },
            {
                "start_time": 37.74090909090909,
                "end_time": 37.83863636363636,
                "pitch": 56,
                "velocity": 25,
                "duration": 0.09772727272726911,
                "tempo": 120.0
            },
            {
                "start_time": 37.83863636363636,
                "end_time": 37.95681818181818,
                "pitch": 44,
                "velocity": 25,
                "duration": 0.11818181818181728,
                "tempo": 120.0
            },
            {
                "start_time": 37.95681818181818,
                "end_time": 38.059090909090905,
                "pitch": 57,
                "velocity": 25,
                "duration": 0.10227272727272663,
                "tempo": 120.0
            },
            {
                "start_time": 38.059090909090905,
                "end_time": 38.27045454545454,
                "pitch": 45,
                "velocity": 25,
                "duration": 0.21136363636363598,
                "tempo": 120.0
            },
            {
                "start_time": 38.27045454545454,
                "end_time": 38.38409090909091,
                "pitch": 58,
                "velocity": 25,
                "duration": 0.11363636363636687,
                "tempo": 120.0
            },
            {
                "start_time": 23.988636363636363,
                "end_time": 38.58181818181818,
                "pitch": 25,
                "velocity": 25,
                "duration": 14.593181818181815,
                "tempo": 120.0
            },
            {
                "start_time": 36.361363636363635,
                "end_time": 38.58181818181818,
                "pitch": 46,
                "velocity": 25,
                "duration": 2.220454545454544,
                "tempo": 120.0
            },
            {
                "start_time": 38.38409090909091,
                "end_time": 38.58181818181818,
                "pitch": 46,
                "velocity": 25,
                "duration": 0.19772727272727053,
                "tempo": 120.0
            },
            {
                "start_time": 38.58181818181818,
                "end_time": 38.69772727272727,
                "pitch": 49,
                "velocity": 25,
                "duration": 0.11590909090909207,
                "tempo": 120.0
            },
            {
                "start_time": 38.69772727272727,
                "end_time": 38.79772727272727,
                "pitch": 49,
                "velocity": 25,
                "duration": 0.10000000000000142,
                "tempo": 120.0
            },
            {
                "start_time": 26.768181818181816,
                "end_time": 38.91590909090909,
                "pitch": 48,
                "velocity": 25,
                "duration": 12.147727272727273,
                "tempo": 120.0
            },
            {
                "start_time": 38.79772727272727,
                "end_time": 38.91590909090909,
                "pitch": 48,
                "velocity": 25,
                "duration": 0.11818181818181728,
                "tempo": 120.0
            },
            {
                "start_time": 13.774999999999999,
                "end_time": 38.91590909090909,
                "pitch": 52,
                "velocity": 25,
                "duration": 25.14090909090909,
                "tempo": 120.0
            },
            {
                "start_time": 38.91590909090909,
                "end_time": 39.01590909090909,
                "pitch": 46,
                "velocity": 25,
                "duration": 0.10000000000000142,
                "tempo": 120.0
            },
            {
                "start_time": 39.01590909090909,
                "end_time": 39.13409090909091,
                "pitch": 58,
                "velocity": 25,
                "duration": 0.11818181818181728,
                "tempo": 120.0
            },
            {
                "start_time": 39.13409090909091,
                "end_time": 39.23181818181818,
                "pitch": 46,
                "velocity": 25,
                "duration": 0.09772727272726911,
                "tempo": 120.0
            },
            {
                "start_time": 38.58181818181818,
                "end_time": 39.334090909090904,
                "pitch": 25,
                "velocity": 25,
                "duration": 0.7522727272727252,
                "tempo": 120.0
            },
            {
                "start_time": 39.23181818181818,
                "end_time": 39.334090909090904,
                "pitch": 58,
                "velocity": 25,
                "duration": 0.10227272727272663,
                "tempo": 120.0
            },
            {
                "start_time": 39.334090909090904,
                "end_time": 39.44772727272727,
                "pitch": 48,
                "velocity": 25,
                "duration": 0.11363636363636687,
                "tempo": 120.0
            },
            {
                "start_time": 39.44772727272727,
                "end_time": 39.54545454545455,
                "pitch": 60,
                "velocity": 25,
                "duration": 0.09772727272727622,
                "tempo": 120.0
            },
            {
                "start_time": 39.54545454545455,
                "end_time": 39.65909090909091,
                "pitch": 48,
                "velocity": 25,
                "duration": 0.11363636363635976,
                "tempo": 120.0
            },
            {
                "start_time": 38.91590909090909,
                "end_time": 39.75909090909091,
                "pitch": 52,
                "velocity": 25,
                "duration": 0.8431818181818187,
                "tempo": 120.0
            },
            {
                "start_time": 39.65909090909091,
                "end_time": 39.75909090909091,
                "pitch": 61,
                "velocity": 25,
                "duration": 0.10000000000000142,
                "tempo": 120.0
            },
            {
                "start_time": 39.75909090909091,
                "end_time": 39.97272727272727,
                "pitch": 46,
                "velocity": 25,
                "duration": 0.21363636363636118,
                "tempo": 120.0
            },
            {
                "start_time": 39.97272727272727,
                "end_time": 40.07272727272727,
                "pitch": 58,
                "velocity": 25,
                "duration": 0.10000000000000142,
                "tempo": 120.0
            },
            {
                "start_time": 39.334090909090904,
                "end_time": 40.293181818181814,
                "pitch": 25,
                "velocity": 25,
                "duration": 0.9590909090909108,
                "tempo": 120.0
            },
            {
                "start_time": 40.074999999999996,
                "end_time": 40.293181818181814,
                "pitch": 46,
                "velocity": 25,
                "duration": 0.2181818181818187,
                "tempo": 120.0
            },
            {
                "start_time": 40.293181818181814,
                "end_time": 40.41136363636363,
                "pitch": 49,
                "velocity": 25,
                "duration": 0.11818181818181728,
                "tempo": 120.0
            },
            {
                "start_time": 40.41136363636363,
                "end_time": 40.51363636363636,
                "pitch": 49,
                "velocity": 25,
                "duration": 0.10227272727272663,
                "tempo": 120.0
            },
            {
                "start_time": 40.51363636363636,
                "end_time": 40.63409090909091,
                "pitch": 48,
                "velocity": 25,
                "duration": 0.12045454545454959,
                "tempo": 120.0
            },
            {
                "start_time": 39.75909090909091,
                "end_time": 40.63409090909091,
                "pitch": 52,
                "velocity": 25,
                "duration": 0.875,
                "tempo": 120.0
            },
            {
                "start_time": 40.63409090909091,
                "end_time": 40.834090909090904,
                "pitch": 46,
                "velocity": 25,
                "duration": 0.19999999999999574,
                "tempo": 120.0
            },
            {
                "start_time": 40.834090909090904,
                "end_time": 40.95227272727273,
                "pitch": 58,
                "velocity": 25,
                "duration": 0.11818181818182438,
                "tempo": 120.0
            },
            {
                "start_time": 40.293181818181814,
                "end_time": 41.16590909090909,
                "pitch": 25,
                "velocity": 25,
                "duration": 0.8727272727272748,
                "tempo": 120.0
            },
            {
                "start_time": 40.95227272727273,
                "end_time": 41.16590909090909,
                "pitch": 46,
                "velocity": 25,
                "duration": 0.21363636363636118,
                "tempo": 120.0
            },
            {
                "start_time": 41.16590909090909,
                "end_time": 41.26363636363636,
                "pitch": 49,
                "velocity": 25,
                "duration": 0.09772727272726911,
                "tempo": 120.0
            },
            {
                "start_time": 41.26363636363636,
                "end_time": 41.377272727272725,
                "pitch": 51,
                "velocity": 25,
                "duration": 0.11363636363636687,
                "tempo": 120.0
            },
            {
                "start_time": 36.88863636363636,
                "end_time": 41.47727272727273,
                "pitch": 53,
                "velocity": 25,
                "duration": 4.588636363636368,
                "tempo": 120.0
            },
            {
                "start_time": 41.377272727272725,
                "end_time": 41.47727272727273,
                "pitch": 53,
                "velocity": 25,
                "duration": 0.10000000000000142,
                "tempo": 120.0
            },
            {
                "start_time": 41.47727272727273,
                "end_time": 41.68863636363636,
                "pitch": 41,
                "velocity": 25,
                "duration": 0.21136363636363598,
                "tempo": 120.0
            },
            {
                "start_time": 41.68863636363636,
                "end_time": 41.78636363636363,
                "pitch": 42,
                "velocity": 25,
                "duration": 0.09772727272726911,
                "tempo": 120.0
            },
            {
                "start_time": 37.20681818181818,
                "end_time": 41.78636363636363,
                "pitch": 54,
                "velocity": 25,
                "duration": 4.579545454545453,
                "tempo": 120.0
            },
            {
                "start_time": 36.03636363636363,
                "end_time": 42.0,
                "pitch": 37,
                "velocity": 25,
                "duration": 5.963636363636368,
                "tempo": 120.0
            },
            {
                "start_time": 41.26363636363636,
                "end_time": 42.0,
                "pitch": 49,
                "velocity": 25,
                "duration": 0.7363636363636417,
                "tempo": 120.0
            },
            {
                "start_time": 41.78636363636363,
                "end_time": 42.0,
                "pitch": 49,
                "velocity": 25,
                "duration": 0.2136363636363683,
                "tempo": 120.0
            },
            {
                "start_time": 42.0,
                "end_time": 42.11590909090909,
                "pitch": 42,
                "velocity": 25,
                "duration": 0.11590909090909207,
                "tempo": 120.0
            },
            {
                "start_time": 42.11590909090909,
                "end_time": 42.11818181818182,
                "pitch": 42,
                "velocity": 25,
                "duration": 0.0022727272727252057,
                "tempo": 120.0
            },
            {
                "start_time": 42.11818181818182,
                "end_time": 42.215909090909086,
                "pitch": 40,
                "velocity": 25,
                "duration": 0.09772727272726911,
                "tempo": 120.0
            },
            {
                "start_time": 42.21818181818182,
                "end_time": 42.31818181818181,
                "pitch": 40,
                "velocity": 25,
                "duration": 0.09999999999999432,
                "tempo": 120.0
            },
            {
                "start_time": 42.31818181818181,
                "end_time": 42.52954545454545,
                "pitch": 41,
                "velocity": 25,
                "duration": 0.21136363636363598,
                "tempo": 120.0
            },
            {
                "start_time": 42.52954545454545,
                "end_time": 42.64545454545454,
                "pitch": 42,
                "velocity": 25,
                "duration": 0.11590909090909207,
                "tempo": 120.0
            },
            {
                "start_time": 41.78636363636363,
                "end_time": 42.64545454545454,
                "pitch": 54,
                "velocity": 25,
                "duration": 0.8590909090909093,
                "tempo": 120.0
            },
            {
                "start_time": 42.0,
                "end_time": 42.85909090909091,
                "pitch": 37,
                "velocity": 25,
                "duration": 0.8590909090909093,
                "tempo": 120.0
            },
            {
                "start_time": 42.64545454545454,
                "end_time": 42.85909090909091,
                "pitch": 49,
                "velocity": 25,
                "duration": 0.2136363636363683,
                "tempo": 120.0
            },
            {
                "start_time": 42.85909090909091,
                "end_time": 42.959090909090904,
                "pitch": 42,
                "velocity": 25,
                "duration": 0.09999999999999432,
                "tempo": 120.0
            },
            {
                "start_time": 42.64545454545454,
                "end_time": 42.959090909090904,
                "pitch": 54,
                "velocity": 25,
                "duration": 0.3136363636363626,
                "tempo": 120.0
            },
            {
                "start_time": 42.959090909090904,
                "end_time": 43.059090909090905,
                "pitch": 44,
                "velocity": 25,
                "duration": 0.10000000000000142,
                "tempo": 120.0
            },
            {
                "start_time": 43.059090909090905,
                "end_time": 43.17727272727272,
                "pitch": 46,
                "velocity": 25,
                "duration": 0.11818181818181728,
                "tempo": 120.0
            },
            {
                "start_time": 43.059090909090905,
                "end_time": 43.393181818181816,
                "pitch": 44,
                "velocity": 25,
                "duration": 0.33409090909091077,
                "tempo": 120.0
            },
            {
                "start_time": 43.17727272727272,
                "end_time": 43.393181818181816,
                "pitch": 44,
                "velocity": 25,
                "duration": 0.2159090909090935,
                "tempo": 120.0
            },
            {
                "start_time": 36.67727272727272,
                "end_time": 43.49318181818182,
                "pitch": 2,
                "velocity": 25,
                "duration": 6.815909090909095,
                "tempo": 120.0
            },
            {
                "start_time": 43.393181818181816,
                "end_time": 43.49318181818182,
                "pitch": 44,
                "velocity": 25,
                "duration": 0.10000000000000142,
                "tempo": 120.0
            },
            {
                "start_time": 41.377272727272725,
                "end_time": 43.709090909090904,
                "pitch": 51,
                "velocity": 25,
                "duration": 2.3318181818181785,
                "tempo": 120.0
            },
            {
                "start_time": 43.49318181818182,
                "end_time": 43.709090909090904,
                "pitch": 51,
                "velocity": 25,
                "duration": 0.2159090909090864,
                "tempo": 120.0
            },
            {
                "start_time": 43.709090909090904,
                "end_time": 43.809090909090905,
                "pitch": 44,
                "velocity": 25,
                "duration": 0.10000000000000142,
                "tempo": 120.0
            },
            {
                "start_time": 43.92727272727272,
                "end_time": 44.027272727272724,
                "pitch": 39,
                "velocity": 25,
                "duration": 0.10000000000000142,
                "tempo": 120.0
            },
            {
                "start_time": 42.959090909090904,
                "end_time": 44.02954545454545,
                "pitch": 54,
                "velocity": 25,
                "duration": 1.0704545454545453,
                "tempo": 120.0
            },
            {
                "start_time": 44.027272727272724,
                "end_time": 44.02954545454545,
                "pitch": 54,
                "velocity": 25,
                "duration": 0.0022727272727252057,
                "tempo": 120.0
            },
            {
                "start_time": 44.02954545454545,
                "end_time": 44.23863636363636,
                "pitch": 44,
                "velocity": 25,
                "duration": 0.20909090909091077,
                "tempo": 120.0
            },
            {
                "start_time": 44.23863636363636,
                "end_time": 44.35227272727273,
                "pitch": 44,
                "velocity": 25,
                "duration": 0.11363636363636687,
                "tempo": 120.0
            },
            {
                "start_time": 44.35454545454545,
                "end_time": 44.55227272727272,
                "pitch": 44,
                "velocity": 25,
                "duration": 0.19772727272727053,
                "tempo": 120.0
            },
            {
                "start_time": 44.55227272727272,
                "end_time": 44.668181818181814,
                "pitch": 56,
                "velocity": 25,
                "duration": 0.11590909090909207,
                "tempo": 120.0
            },
            {
                "start_time": 44.668181818181814,
                "end_time": 44.768181818181816,
                "pitch": 44,
                "velocity": 25,
                "duration": 0.10000000000000142,
                "tempo": 120.0
            },
            {
                "start_time": 44.768181818181816,
                "end_time": 44.88636363636363,
                "pitch": 57,
                "velocity": 25,
                "duration": 0.11818181818181728,
                "tempo": 120.0
            },
            {
                "start_time": 44.88636363636363,
                "end_time": 45.10681818181818,
                "pitch": 45,
                "velocity": 25,
                "duration": 0.2204545454545439,
                "tempo": 120.0
            },
            {
                "start_time": 45.10681818181818,
                "end_time": 45.209090909090904,
                "pitch": 58,
                "velocity": 25,
                "duration": 0.10227272727272663,
                "tempo": 120.0
            },
            {
                "start_time": 43.17727272727272,
                "end_time": 45.42272727272727,
                "pitch": 46,
                "velocity": 25,
                "duration": 2.2454545454545496,
                "tempo": 120.0
            },
            {
                "start_time": 45.209090909090904,
                "end_time": 45.42272727272727,
                "pitch": 46,
                "velocity": 25,
                "duration": 0.2136363636363683,
                "tempo": 120.0
            },
            {
                "start_time": 45.42272727272727,
                "end_time": 45.518181818181816,
                "pitch": 46,
                "velocity": 25,
                "duration": 0.0954545454545439,
                "tempo": 120.0
            },
            {
                "start_time": 45.518181818181816,
                "end_time": 45.62954545454545,
                "pitch": 58,
                "velocity": 25,
                "duration": 0.11136363636363455,
                "tempo": 120.0
            },
            {
                "start_time": 45.62954545454545,
                "end_time": 45.724999999999994,
                "pitch": 46,
                "velocity": 25,
                "duration": 0.0954545454545439,
                "tempo": 120.0
            },
            {
                "start_time": 45.724999999999994,
                "end_time": 45.84318181818182,
                "pitch": 46,
                "velocity": 25,
                "duration": 0.11818181818182438,
                "tempo": 120.0
            },
            {
                "start_time": 41.16590909090909,
                "end_time": 45.945454545454545,
                "pitch": 25,
                "velocity": 25,
                "duration": 4.779545454545456,
                "tempo": 120.0
            },
            {
                "start_time": 45.84318181818182,
                "end_time": 45.945454545454545,
                "pitch": 58,
                "velocity": 25,
                "duration": 0.10227272727272663,
                "tempo": 120.0
            },
            {
                "start_time": 45.945454545454545,
                "end_time": 46.04772727272727,
                "pitch": 50,
                "velocity": 25,
                "duration": 0.10227272727272663,
                "tempo": 120.0
            },
            {
                "start_time": 46.04772727272727,
                "end_time": 46.16590909090909,
                "pitch": 62,
                "velocity": 25,
                "duration": 0.11818181818181728,
                "tempo": 120.0
            },
            {
                "start_time": 46.16590909090909,
                "end_time": 46.26590909090909,
                "pitch": 50,
                "velocity": 25,
                "duration": 0.10000000000000142,
                "tempo": 120.0
            },
            {
                "start_time": 46.268181818181816,
                "end_time": 46.38409090909091,
                "pitch": 63,
                "velocity": 25,
                "duration": 0.11590909090909207,
                "tempo": 120.0
            },
            {
                "start_time": 46.38409090909091,
                "end_time": 46.48409090909091,
                "pitch": 51,
                "velocity": 25,
                "duration": 0.10000000000000142,
                "tempo": 120.0
            },
            {
                "start_time": 46.48409090909091,
                "end_time": 46.60227272727273,
                "pitch": 64,
                "velocity": 25,
                "duration": 0.11818181818181728,
                "tempo": 120.0
            },
            {
                "start_time": 40.63409090909091,
                "end_time": 46.8,
                "pitch": 52,
                "velocity": 25,
                "duration": 6.165909090909089,
                "tempo": 120.0
            },
            {
                "start_time": 46.60227272727273,
                "end_time": 46.8,
                "pitch": 52,
                "velocity": 25,
                "duration": 0.19772727272727053,
                "tempo": 120.0
            },
            {
                "start_time": 46.8,
                "end_time": 46.918181818181814,
                "pitch": 65,
                "velocity": 25,
                "duration": 0.11818181818181728,
                "tempo": 120.0
            },
            {
                "start_time": 43.709090909090904,
                "end_time": 47.13181818181818,
                "pitch": 53,
                "velocity": 25,
                "duration": 3.422727272727279,
                "tempo": 120.0
            },
            {
                "start_time": 46.918181818181814,
                "end_time": 47.13181818181818,
                "pitch": 53,
                "velocity": 25,
                "duration": 0.2136363636363683,
                "tempo": 120.0
            },
            {
                "start_time": 47.13181818181818,
                "end_time": 47.22954545454545,
                "pitch": 53,
                "velocity": 25,
                "duration": 0.09772727272726911,
                "tempo": 120.0
            },
            {
                "start_time": 25.709090909090907,
                "end_time": 47.22954545454545,
                "pitch": 66,
                "velocity": 25,
                "duration": 21.520454545454545,
                "tempo": 120.0
            },
            {
                "start_time": 42.85909090909091,
                "end_time": 47.345454545454544,
                "pitch": 37,
                "velocity": 25,
                "duration": 4.4863636363636346,
                "tempo": 120.0
            },
            {
                "start_time": 47.22954545454545,
                "end_time": 47.345454545454544,
                "pitch": 58,
                "velocity": 25,
                "duration": 0.11590909090909207,
                "tempo": 120.0
            },
            {
                "start_time": 47.345454545454544,
                "end_time": 47.44318181818181,
                "pitch": 60,
                "velocity": 25,
                "duration": 0.09772727272726911,
                "tempo": 120.0
            },
            {
                "start_time": 47.445454545454545,
                "end_time": 47.65909090909091,
                "pitch": 53,
                "velocity": 25,
                "duration": 0.21363636363636118,
                "tempo": 120.0
            },
            {
                "start_time": 47.65909090909091,
                "end_time": 47.75909090909091,
                "pitch": 65,
                "velocity": 25,
                "duration": 0.10000000000000142,
                "tempo": 120.0
            },
            {
                "start_time": 47.75909090909091,
                "end_time": 47.97727272727273,
                "pitch": 53,
                "velocity": 25,
                "duration": 0.2181818181818187,
                "tempo": 120.0
            },
            {
                "start_time": 47.97727272727273,
                "end_time": 48.09318181818182,
                "pitch": 53,
                "velocity": 25,
                "duration": 0.11590909090909207,
                "tempo": 120.0
            },
            {
                "start_time": 48.09318181818182,
                "end_time": 48.19318181818181,
                "pitch": 51,
                "velocity": 25,
                "duration": 0.09999999999999432,
                "tempo": 120.0
            },
            {
                "start_time": 48.19318181818181,
                "end_time": 48.29545454545454,
                "pitch": 51,
                "velocity": 25,
                "duration": 0.10227272727272663,
                "tempo": 120.0
            }
        ],
        "Acoustic Grand Piano": [
            {
                "start_time": 0.5568181818181818,
                "end_time": 0.6636363636363636,
                "pitch": 34,
                "velocity": 51,
                "duration": 0.10681818181818181,
                "tempo": 120.0
            },
            {
                "start_time": 0.8704545454545454,
                "end_time": 0.9659090909090908,
                "pitch": 34,
                "velocity": 51,
                "duration": 0.09545454545454546,
                "tempo": 120.0
            },
            {
                "start_time": 0.9659090909090908,
                "end_time": 1.0818181818181818,
                "pitch": 41,
                "velocity": 51,
                "duration": 0.11590909090909096,
                "tempo": 120.0
            },
            {
                "start_time": 1.184090909090909,
                "end_time": 1.2818181818181817,
                "pitch": 46,
                "velocity": 51,
                "duration": 0.09772727272727266,
                "tempo": 120.0
            },
            {
                "start_time": 0.9659090909090908,
                "end_time": 1.284090909090909,
                "pitch": 13,
                "velocity": 51,
                "duration": 0.3181818181818181,
                "tempo": 120.0
            },
            {
                "start_time": 1.284090909090909,
                "end_time": 1.4,
                "pitch": 41,
                "velocity": 51,
                "duration": 0.11590909090909096,
                "tempo": 120.0
            },
            {
                "start_time": 0.8704545454545454,
                "end_time": 1.4,
                "pitch": 42,
                "velocity": 51,
                "duration": 0.5295454545454545,
                "tempo": 120.0
            },
            {
                "start_time": 1.4,
                "end_time": 1.5022727272727272,
                "pitch": 34,
                "velocity": 51,
                "duration": 0.10227272727272729,
                "tempo": 120.0
            },
            {
                "start_time": 1.4,
                "end_time": 1.7249999999999999,
                "pitch": 42,
                "velocity": 51,
                "duration": 0.32499999999999996,
                "tempo": 120.0
            },
            {
                "start_time": 1.284090909090909,
                "end_time": 1.843181818181818,
                "pitch": 13,
                "velocity": 51,
                "duration": 0.5590909090909091,
                "tempo": 120.0
            },
            {
                "start_time": 1.7249999999999999,
                "end_time": 1.843181818181818,
                "pitch": 34,
                "velocity": 51,
                "duration": 0.11818181818181817,
                "tempo": 120.0
            },
            {
                "start_time": 1.843181818181818,
                "end_time": 1.9454545454545453,
                "pitch": 41,
                "velocity": 51,
                "duration": 0.10227272727272729,
                "tempo": 120.0
            },
            {
                "start_time": 1.184090909090909,
                "end_time": 2.047727272727273,
                "pitch": 54,
                "velocity": 51,
                "duration": 0.8636363636363638,
                "tempo": 120.0
            },
            {
                "start_time": 1.843181818181818,
                "end_time": 2.168181818181818,
                "pitch": 13,
                "velocity": 51,
                "duration": 0.32499999999999996,
                "tempo": 120.0
            },
            {
                "start_time": 2.047727272727273,
                "end_time": 2.168181818181818,
                "pitch": 46,
                "velocity": 51,
                "duration": 0.12045454545454515,
                "tempo": 120.0
            },
            {
                "start_time": 2.168181818181818,
                "end_time": 2.2727272727272725,
                "pitch": 41,
                "velocity": 51,
                "duration": 0.1045454545454545,
                "tempo": 120.0
            },
            {
                "start_time": 1.7249999999999999,
                "end_time": 2.2727272727272725,
                "pitch": 42,
                "velocity": 51,
                "duration": 0.5477272727272726,
                "tempo": 120.0
            },
            {
                "start_time": 2.2727272727272725,
                "end_time": 2.381818181818182,
                "pitch": 34,
                "velocity": 51,
                "duration": 0.10909090909090935,
                "tempo": 120.0
            },
            {
                "start_time": 2.2727272727272725,
                "end_time": 2.5886363636363634,
                "pitch": 42,
                "velocity": 51,
                "duration": 0.3159090909090909,
                "tempo": 120.0
            },
            {
                "start_time": 2.168181818181818,
                "end_time": 2.684090909090909,
                "pitch": 13,
                "velocity": 51,
                "duration": 0.5159090909090911,
                "tempo": 120.0
            },
            {
                "start_time": 2.5886363636363634,
                "end_time": 2.684090909090909,
                "pitch": 34,
                "velocity": 51,
                "duration": 0.09545454545454568,
                "tempo": 120.0
            },
            {
                "start_time": 2.684090909090909,
                "end_time": 2.7818181818181817,
                "pitch": 41,
                "velocity": 51,
                "duration": 0.09772727272727266,
                "tempo": 120.0
            },
            {
                "start_time": 2.047727272727273,
                "end_time": 2.9,
                "pitch": 54,
                "velocity": 51,
                "duration": 0.8522727272727271,
                "tempo": 120.0
            },
            {
                "start_time": 2.684090909090909,
                "end_time": 3.0,
                "pitch": 13,
                "velocity": 51,
                "duration": 0.3159090909090909,
                "tempo": 120.0
            },
            {
                "start_time": 2.9,
                "end_time": 3.0,
                "pitch": 46,
                "velocity": 51,
                "duration": 0.10000000000000009,
                "tempo": 120.0
            },
            {
                "start_time": 3.0,
                "end_time": 3.1159090909090907,
                "pitch": 41,
                "velocity": 51,
                "duration": 0.11590909090909074,
                "tempo": 120.0
            },
            {
                "start_time": 2.5886363636363634,
                "end_time": 3.118181818181818,
                "pitch": 42,
                "velocity": 51,
                "duration": 0.5295454545454548,
                "tempo": 120.0
            },
            {
                "start_time": 3.118181818181818,
                "end_time": 3.218181818181818,
                "pitch": 34,
                "velocity": 51,
                "duration": 0.09999999999999964,
                "tempo": 120.0
            },
            {
                "start_time": 3.118181818181818,
                "end_time": 3.434090909090909,
                "pitch": 42,
                "velocity": 51,
                "duration": 0.3159090909090909,
                "tempo": 120.0
            },
            {
                "start_time": 3.0,
                "end_time": 3.5340909090909087,
                "pitch": 13,
                "velocity": 51,
                "duration": 0.5340909090909087,
                "tempo": 120.0
            },
            {
                "start_time": 3.434090909090909,
                "end_time": 3.5340909090909087,
                "pitch": 34,
                "velocity": 51,
                "duration": 0.09999999999999964,
                "tempo": 120.0
            },
            {
                "start_time": 3.5340909090909087,
                "end_time": 3.6477272727272725,
                "pitch": 41,
                "velocity": 51,
                "duration": 0.11363636363636376,
                "tempo": 120.0
            },
            {
                "start_time": 2.9,
                "end_time": 3.7477272727272726,
                "pitch": 54,
                "velocity": 51,
                "duration": 0.8477272727272727,
                "tempo": 120.0
            },
            {
                "start_time": 3.5340909090909087,
                "end_time": 3.8613636363636363,
                "pitch": 13,
                "velocity": 51,
                "duration": 0.3272727272727276,
                "tempo": 120.0
            },
            {
                "start_time": 3.7477272727272726,
                "end_time": 3.8613636363636363,
                "pitch": 46,
                "velocity": 51,
                "duration": 0.11363636363636376,
                "tempo": 120.0
            },
            {
                "start_time": 3.8613636363636363,
                "end_time": 3.961363636363636,
                "pitch": 41,
                "velocity": 51,
                "duration": 0.09999999999999964,
                "tempo": 120.0
            },
            {
                "start_time": 3.434090909090909,
                "end_time": 3.961363636363636,
                "pitch": 42,
                "velocity": 51,
                "duration": 0.5272727272727269,
                "tempo": 120.0
            },
            {
                "start_time": 3.961363636363636,
                "end_time": 4.075,
                "pitch": 34,
                "velocity": 51,
                "duration": 0.1136363636363642,
                "tempo": 120.0
            },
            {
                "start_time": 3.961363636363636,
                "end_time": 4.277272727272727,
                "pitch": 42,
                "velocity": 51,
                "duration": 0.31590909090909136,
                "tempo": 120.0
            },
            {
                "start_time": 3.8613636363636363,
                "end_time": 4.393181818181818,
                "pitch": 13,
                "velocity": 51,
                "duration": 0.5318181818181813,
                "tempo": 120.0
            },
            {
                "start_time": 4.277272727272727,
                "end_time": 4.393181818181818,
                "pitch": 34,
                "velocity": 51,
                "duration": 0.1159090909090903,
                "tempo": 120.0
            },
            {
                "start_time": 4.393181818181818,
                "end_time": 4.495454545454545,
                "pitch": 41,
                "velocity": 51,
                "duration": 0.10227272727272751,
                "tempo": 120.0
            },
            {
                "start_time": 3.7477272727272726,
                "end_time": 4.61590909090909,
                "pitch": 54,
                "velocity": 51,
                "duration": 0.8681818181818177,
                "tempo": 120.0
            },
            {
                "start_time": 4.393181818181818,
                "end_time": 4.715909090909091,
                "pitch": 13,
                "velocity": 51,
                "duration": 0.3227272727272732,
                "tempo": 120.0
            },
            {
                "start_time": 4.61590909090909,
                "end_time": 4.715909090909091,
                "pitch": 46,
                "velocity": 51,
                "duration": 0.10000000000000053,
                "tempo": 120.0
            },
            {
                "start_time": 4.715909090909091,
                "end_time": 4.836363636363636,
                "pitch": 41,
                "velocity": 51,
                "duration": 0.12045454545454515,
                "tempo": 120.0
            },
            {
                "start_time": 4.277272727272727,
                "end_time": 4.836363636363636,
                "pitch": 42,
                "velocity": 51,
                "duration": 0.5590909090909086,
                "tempo": 120.0
            },
            {
                "start_time": 4.836363636363636,
                "end_time": 4.9363636363636365,
                "pitch": 34,
                "velocity": 51,
                "duration": 0.10000000000000053,
                "tempo": 120.0
            },
            {
                "start_time": 4.836363636363636,
                "end_time": 5.154545454545454,
                "pitch": 42,
                "velocity": 51,
                "duration": 0.31818181818181834,
                "tempo": 120.0
            },
            {
                "start_time": 5.154545454545454,
                "end_time": 5.252272727272727,
                "pitch": 34,
                "velocity": 51,
                "duration": 0.09772727272727266,
                "tempo": 120.0
            },
            {
                "start_time": 4.715909090909091,
                "end_time": 5.254545454545454,
                "pitch": 13,
                "velocity": 51,
                "duration": 0.5386363636363631,
                "tempo": 120.0
            },
            {
                "start_time": 5.254545454545454,
                "end_time": 5.363636363636363,
                "pitch": 41,
                "velocity": 51,
                "duration": 0.10909090909090935,
                "tempo": 120.0
            },
            {
                "start_time": 4.61590909090909,
                "end_time": 5.461363636363636,
                "pitch": 54,
                "velocity": 51,
                "duration": 0.8454545454545457,
                "tempo": 120.0
            },
            {
                "start_time": 5.254545454545454,
                "end_time": 5.570454545454545,
                "pitch": 13,
                "velocity": 51,
                "duration": 0.31590909090909136,
                "tempo": 120.0
            },
            {
                "start_time": 5.461363636363636,
                "end_time": 5.570454545454545,
                "pitch": 46,
                "velocity": 51,
                "duration": 0.10909090909090935,
                "tempo": 120.0
            },
            {
                "start_time": 5.570454545454545,
                "end_time": 5.668181818181818,
                "pitch": 41,
                "velocity": 51,
                "duration": 0.09772727272727266,
                "tempo": 120.0
            },
            {
                "start_time": 5.154545454545454,
                "end_time": 5.668181818181818,
                "pitch": 42,
                "velocity": 51,
                "duration": 0.5136363636363637,
                "tempo": 120.0
            },
            {
                "start_time": 5.668181818181818,
                "end_time": 5.765909090909091,
                "pitch": 34,
                "velocity": 51,
                "duration": 0.09772727272727266,
                "tempo": 120.0
            },
            {
                "start_time": 5.668181818181818,
                "end_time": 5.9840909090909085,
                "pitch": 42,
                "velocity": 51,
                "duration": 0.3159090909090905,
                "tempo": 120.0
            },
            {
                "start_time": 5.570454545454545,
                "end_time": 6.1,
                "pitch": 13,
                "velocity": 51,
                "duration": 0.5295454545454543,
                "tempo": 120.0
            },
            {
                "start_time": 5.9840909090909085,
                "end_time": 6.1,
                "pitch": 34,
                "velocity": 51,
                "duration": 0.11590909090909118,
                "tempo": 120.0
            },
            {
                "start_time": 6.1,
                "end_time": 6.202272727272727,
                "pitch": 41,
                "velocity": 51,
                "duration": 0.10227272727272751,
                "tempo": 120.0
            },
            {
                "start_time": 5.461363636363636,
                "end_time": 6.322727272727272,
                "pitch": 54,
                "velocity": 51,
                "duration": 0.8613636363636363,
                "tempo": 120.0
            },
            {
                "start_time": 6.1,
                "end_time": 6.422727272727273,
                "pitch": 13,
                "velocity": 51,
                "duration": 0.3227272727272732,
                "tempo": 120.0
            },
            {
                "start_time": 6.322727272727272,
                "end_time": 6.422727272727273,
                "pitch": 46,
                "velocity": 51,
                "duration": 0.10000000000000053,
                "tempo": 120.0
            },
            {
                "start_time": 6.422727272727273,
                "end_time": 6.5249999999999995,
                "pitch": 41,
                "velocity": 51,
                "duration": 0.10227272727272663,
                "tempo": 120.0
            },
            {
                "start_time": 5.9840909090909085,
                "end_time": 6.527272727272727,
                "pitch": 42,
                "velocity": 51,
                "duration": 0.5431818181818189,
                "tempo": 120.0
            },
            {
                "start_time": 6.527272727272727,
                "end_time": 6.638636363636364,
                "pitch": 34,
                "velocity": 51,
                "duration": 0.11136363636363633,
                "tempo": 120.0
            },
            {
                "start_time": 6.527272727272727,
                "end_time": 6.845454545454545,
                "pitch": 42,
                "velocity": 51,
                "duration": 0.31818181818181746,
                "tempo": 120.0
            },
            {
                "start_time": 6.422727272727273,
                "end_time": 6.9409090909090905,
                "pitch": 13,
                "velocity": 51,
                "duration": 0.5181818181818176,
                "tempo": 120.0
            },
            {
                "start_time": 6.845454545454545,
                "end_time": 6.9409090909090905,
                "pitch": 34,
                "velocity": 51,
                "duration": 0.09545454545454568,
                "tempo": 120.0
            },
            {
                "start_time": 6.9409090909090905,
                "end_time": 7.056818181818182,
                "pitch": 41,
                "velocity": 51,
                "duration": 0.11590909090909118,
                "tempo": 120.0
            },
            {
                "start_time": 6.322727272727272,
                "end_time": 7.161363636363636,
                "pitch": 54,
                "velocity": 51,
                "duration": 0.8386363636363638,
                "tempo": 120.0
            },
            {
                "start_time": 7.161363636363636,
                "end_time": 7.261363636363636,
                "pitch": 46,
                "velocity": 51,
                "duration": 0.09999999999999964,
                "tempo": 120.0
            },
            {
                "start_time": 6.9409090909090905,
                "end_time": 7.263636363636364,
                "pitch": 13,
                "velocity": 51,
                "duration": 0.3227272727272732,
                "tempo": 120.0
            },
            {
                "start_time": 7.263636363636364,
                "end_time": 7.384090909090909,
                "pitch": 41,
                "velocity": 51,
                "duration": 0.12045454545454515,
                "tempo": 120.0
            },
            {
                "start_time": 6.845454545454545,
                "end_time": 7.384090909090909,
                "pitch": 42,
                "velocity": 51,
                "duration": 0.538636363636364,
                "tempo": 120.0
            },
            {
                "start_time": 7.384090909090909,
                "end_time": 7.4795454545454545,
                "pitch": 34,
                "velocity": 51,
                "duration": 0.09545454545454568,
                "tempo": 120.0
            },
            {
                "start_time": 7.384090909090909,
                "end_time": 7.6931818181818175,
                "pitch": 42,
                "velocity": 51,
                "duration": 0.30909090909090864,
                "tempo": 120.0
            },
            {
                "start_time": 7.263636363636364,
                "end_time": 7.806818181818182,
                "pitch": 13,
                "velocity": 51,
                "duration": 0.543181818181818,
                "tempo": 120.0
            },
            {
                "start_time": 7.6931818181818175,
                "end_time": 7.806818181818182,
                "pitch": 34,
                "velocity": 51,
                "duration": 0.1136363636363642,
                "tempo": 120.0
            },
            {
                "start_time": 7.806818181818182,
                "end_time": 7.909090909090908,
                "pitch": 41,
                "velocity": 51,
                "duration": 0.10227272727272663,
                "tempo": 120.0
            },
            {
                "start_time": 7.161363636363636,
                "end_time": 8.011363636363637,
                "pitch": 54,
                "velocity": 51,
                "duration": 0.8500000000000005,
                "tempo": 120.0
            },
            {
                "start_time": 7.806818181818182,
                "end_time": 8.129545454545454,
                "pitch": 13,
                "velocity": 51,
                "duration": 0.3227272727272723,
                "tempo": 120.0
            },
            {
                "start_time": 8.011363636363637,
                "end_time": 8.129545454545454,
                "pitch": 46,
                "velocity": 51,
                "duration": 0.11818181818181728,
                "tempo": 120.0
            },
            {
                "start_time": 8.129545454545454,
                "end_time": 8.23181818181818,
                "pitch": 41,
                "velocity": 51,
                "duration": 0.10227272727272663,
                "tempo": 120.0
            },
            {
                "start_time": 7.6931818181818175,
                "end_time": 8.23409090909091,
                "pitch": 42,
                "velocity": 51,
                "duration": 0.5409090909090919,
                "tempo": 120.0
            },
            {
                "start_time": 8.23409090909091,
                "end_time": 8.347727272727273,
                "pitch": 34,
                "velocity": 51,
                "duration": 0.11363636363636331,
                "tempo": 120.0
            },
            {
                "start_time": 8.23409090909091,
                "end_time": 8.561363636363636,
                "pitch": 42,
                "velocity": 51,
                "duration": 0.32727272727272627,
                "tempo": 120.0
            },
            {
                "start_time": 8.129545454545454,
                "end_time": 8.659090909090908,
                "pitch": 13,
                "velocity": 51,
                "duration": 0.5295454545454543,
                "tempo": 120.0
            },
            {
                "start_time": 8.561363636363636,
                "end_time": 8.659090909090908,
                "pitch": 34,
                "velocity": 51,
                "duration": 0.09772727272727266,
                "tempo": 120.0
            },
            {
                "start_time": 8.659090909090908,
                "end_time": 8.756818181818181,
                "pitch": 41,
                "velocity": 51,
                "duration": 0.09772727272727266,
                "tempo": 120.0
            },
            {
                "start_time": 8.011363636363637,
                "end_time": 8.870454545454544,
                "pitch": 54,
                "velocity": 51,
                "duration": 0.8590909090909076,
                "tempo": 120.0
            },
            {
                "start_time": 8.659090909090908,
                "end_time": 8.968181818181817,
                "pitch": 13,
                "velocity": 51,
                "duration": 0.30909090909090864,
                "tempo": 120.0
            },
            {
                "start_time": 8.870454545454544,
                "end_time": 8.968181818181817,
                "pitch": 46,
                "velocity": 51,
                "duration": 0.09772727272727266,
                "tempo": 120.0
            },
            {
                "start_time": 8.968181818181817,
                "end_time": 9.084090909090909,
                "pitch": 41,
                "velocity": 51,
                "duration": 0.11590909090909207,
                "tempo": 120.0
            },
            {
                "start_time": 8.561363636363636,
                "end_time": 9.086363636363636,
                "pitch": 42,
                "velocity": 51,
                "duration": 0.5250000000000004,
                "tempo": 120.0
            },
            {
                "start_time": 9.086363636363636,
                "end_time": 9.181818181818182,
                "pitch": 34,
                "velocity": 51,
                "duration": 0.09545454545454568,
                "tempo": 120.0
            },
            {
                "start_time": 9.086363636363636,
                "end_time": 9.4,
                "pitch": 42,
                "velocity": 51,
                "duration": 0.3136363636363644,
                "tempo": 120.0
            },
            {
                "start_time": 8.968181818181817,
                "end_time": 9.5,
                "pitch": 13,
                "velocity": 51,
                "duration": 0.5318181818181831,
                "tempo": 120.0
            },
            {
                "start_time": 9.4,
                "end_time": 9.5,
                "pitch": 34,
                "velocity": 51,
                "duration": 0.09999999999999964,
                "tempo": 120.0
            },
            {
                "start_time": 9.5,
                "end_time": 9.61590909090909,
                "pitch": 41,
                "velocity": 51,
                "duration": 0.1159090909090903,
                "tempo": 120.0
            },
            {
                "start_time": 8.870454545454544,
                "end_time": 9.718181818181817,
                "pitch": 54,
                "velocity": 51,
                "duration": 0.8477272727272727,
                "tempo": 120.0
            },
            {
                "start_time": 9.5,
                "end_time": 9.834090909090909,
                "pitch": 13,
                "velocity": 51,
                "duration": 0.334090909090909,
                "tempo": 120.0
            },
            {
                "start_time": 9.718181818181817,
                "end_time": 9.834090909090909,
                "pitch": 46,
                "velocity": 51,
                "duration": 0.11590909090909207,
                "tempo": 120.0
            },
            {
                "start_time": 9.834090909090909,
                "end_time": 9.934090909090909,
                "pitch": 41,
                "velocity": 51,
                "duration": 0.09999999999999964,
                "tempo": 120.0
            },
            {
                "start_time": 9.4,
                "end_time": 9.934090909090909,
                "pitch": 42,
                "velocity": 51,
                "duration": 0.5340909090909083,
                "tempo": 120.0
            },
            {
                "start_time": 9.934090909090909,
                "end_time": 10.049999999999999,
                "pitch": 34,
                "velocity": 51,
                "duration": 0.1159090909090903,
                "tempo": 120.0
            },
            {
                "start_time": 9.934090909090909,
                "end_time": 10.252272727272727,
                "pitch": 42,
                "velocity": 51,
                "duration": 0.31818181818181834,
                "tempo": 120.0
            },
            {
                "start_time": 9.834090909090909,
                "end_time": 10.368181818181817,
                "pitch": 13,
                "velocity": 51,
                "duration": 0.5340909090909083,
                "tempo": 120.0
            },
            {
                "start_time": 10.252272727272727,
                "end_time": 10.368181818181817,
                "pitch": 34,
                "velocity": 51,
                "duration": 0.1159090909090903,
                "tempo": 120.0
            },
            {
                "start_time": 10.368181818181817,
                "end_time": 10.468181818181817,
                "pitch": 41,
                "velocity": 51,
                "duration": 0.09999999999999964,
                "tempo": 120.0
            },
            {
                "start_time": 9.718181818181817,
                "end_time": 10.586363636363636,
                "pitch": 54,
                "velocity": 51,
                "duration": 0.868181818181819,
                "tempo": 120.0
            },
            {
                "start_time": 10.368181818181817,
                "end_time": 10.684090909090909,
                "pitch": 13,
                "velocity": 51,
                "duration": 0.31590909090909136,
                "tempo": 120.0
            },
            {
                "start_time": 10.586363636363636,
                "end_time": 10.684090909090909,
                "pitch": 46,
                "velocity": 51,
                "duration": 0.09772727272727266,
                "tempo": 120.0
            },
            {
                "start_time": 10.684090909090909,
                "end_time": 10.804545454545455,
                "pitch": 41,
                "velocity": 51,
                "duration": 0.12045454545454604,
                "tempo": 120.0
            },
            {
                "start_time": 10.252272727272727,
                "end_time": 10.804545454545455,
                "pitch": 42,
                "velocity": 51,
                "duration": 0.5522727272727277,
                "tempo": 120.0
            },
            {
                "start_time": 10.804545454545455,
                "end_time": 10.902272727272727,
                "pitch": 34,
                "velocity": 51,
                "duration": 0.09772727272727266,
                "tempo": 120.0
            },
            {
                "start_time": 10.804545454545455,
                "end_time": 11.120454545454544,
                "pitch": 42,
                "velocity": 51,
                "duration": 0.3159090909090896,
                "tempo": 120.0
            },
            {
                "start_time": 10.684090909090909,
                "end_time": 11.220454545454546,
                "pitch": 13,
                "velocity": 51,
                "duration": 0.536363636363637,
                "tempo": 120.0
            },
            {
                "start_time": 11.120454545454544,
                "end_time": 11.220454545454546,
                "pitch": 34,
                "velocity": 51,
                "duration": 0.10000000000000142,
                "tempo": 120.0
            },
            {
                "start_time": 11.220454545454546,
                "end_time": 11.331818181818182,
                "pitch": 41,
                "velocity": 51,
                "duration": 0.11136363636363633,
                "tempo": 120.0
            },
            {
                "start_time": 10.586363636363636,
                "end_time": 11.427272727272726,
                "pitch": 54,
                "velocity": 51,
                "duration": 0.8409090909090899,
                "tempo": 120.0
            },
            {
                "start_time": 11.220454545454546,
                "end_time": 11.538636363636362,
                "pitch": 13,
                "velocity": 51,
                "duration": 0.31818181818181657,
                "tempo": 120.0
            },
            {
                "start_time": 11.427272727272726,
                "end_time": 11.538636363636362,
                "pitch": 46,
                "velocity": 51,
                "duration": 0.11136363636363633,
                "tempo": 120.0
            },
            {
                "start_time": 11.538636363636362,
                "end_time": 11.634090909090908,
                "pitch": 41,
                "velocity": 51,
                "duration": 0.09545454545454568,
                "tempo": 120.0
            },
            {
                "start_time": 11.120454545454544,
                "end_time": 11.634090909090908,
                "pitch": 42,
                "velocity": 51,
                "duration": 0.5136363636363637,
                "tempo": 120.0
            },
            {
                "start_time": 11.634090909090908,
                "end_time": 11.73181818181818,
                "pitch": 34,
                "velocity": 51,
                "duration": 0.09772727272727266,
                "tempo": 120.0
            },
            {
                "start_time": 11.634090909090908,
                "end_time": 11.95,
                "pitch": 42,
                "velocity": 51,
                "duration": 0.31590909090909136,
                "tempo": 120.0
            },
            {
                "start_time": 11.538636363636362,
                "end_time": 12.06590909090909,
                "pitch": 13,
                "velocity": 51,
                "duration": 0.5272727272727273,
                "tempo": 120.0
            },
            {
                "start_time": 11.95,
                "end_time": 12.06590909090909,
                "pitch": 34,
                "velocity": 51,
                "duration": 0.1159090909090903,
                "tempo": 120.0
            },
            {
                "start_time": 12.06590909090909,
                "end_time": 12.165909090909091,
                "pitch": 41,
                "velocity": 51,
                "duration": 0.10000000000000142,
                "tempo": 120.0
            },
            {
                "start_time": 11.427272727272726,
                "end_time": 12.284090909090908,
                "pitch": 54,
                "velocity": 51,
                "duration": 0.8568181818181824,
                "tempo": 120.0
            },
            {
                "start_time": 12.06590909090909,
                "end_time": 12.381818181818181,
                "pitch": 13,
                "velocity": 51,
                "duration": 0.31590909090909136,
                "tempo": 120.0
            },
            {
                "start_time": 12.284090909090908,
                "end_time": 12.381818181818181,
                "pitch": 46,
                "velocity": 51,
                "duration": 0.09772727272727266,
                "tempo": 120.0
            },
            {
                "start_time": 12.381818181818181,
                "end_time": 12.48409090909091,
                "pitch": 41,
                "velocity": 51,
                "duration": 0.1022727272727284,
                "tempo": 120.0
            },
            {
                "start_time": 11.95,
                "end_time": 12.486363636363636,
                "pitch": 42,
                "velocity": 51,
                "duration": 0.536363636363637,
                "tempo": 120.0
            },
            {
                "start_time": 12.486363636363636,
                "end_time": 12.597727272727273,
                "pitch": 34,
                "velocity": 51,
                "duration": 0.11136363636363633,
                "tempo": 120.0
            },
            {
                "start_time": 12.486363636363636,
                "end_time": 12.81590909090909,
                "pitch": 42,
                "velocity": 51,
                "duration": 0.32954545454545325,
                "tempo": 120.0
            },
            {
                "start_time": 12.381818181818181,
                "end_time": 12.918181818181818,
                "pitch": 13,
                "velocity": 51,
                "duration": 0.536363636363637,
                "tempo": 120.0
            },
            {
                "start_time": 12.81590909090909,
                "end_time": 12.918181818181818,
                "pitch": 34,
                "velocity": 51,
                "duration": 0.1022727272727284,
                "tempo": 120.0
            },
            {
                "start_time": 12.918181818181818,
                "end_time": 13.031818181818181,
                "pitch": 41,
                "velocity": 51,
                "duration": 0.11363636363636331,
                "tempo": 120.0
            },
            {
                "start_time": 12.284090909090908,
                "end_time": 13.134090909090908,
                "pitch": 54,
                "velocity": 51,
                "duration": 0.8499999999999996,
                "tempo": 120.0
            },
            {
                "start_time": 12.918181818181818,
                "end_time": 13.23181818181818,
                "pitch": 13,
                "velocity": 51,
                "duration": 0.3136363636363626,
                "tempo": 120.0
            },
            {
                "start_time": 13.134090909090908,
                "end_time": 13.23181818181818,
                "pitch": 46,
                "velocity": 51,
                "duration": 0.09772727272727266,
                "tempo": 120.0
            },
            {
                "start_time": 13.23181818181818,
                "end_time": 13.352272727272727,
                "pitch": 41,
                "velocity": 51,
                "duration": 0.12045454545454604,
                "tempo": 120.0
            },
            {
                "start_time": 12.81590909090909,
                "end_time": 13.352272727272727,
                "pitch": 42,
                "velocity": 51,
                "duration": 0.536363636363637,
                "tempo": 120.0
            },
            {
                "start_time": 13.352272727272727,
                "end_time": 13.447727272727272,
                "pitch": 34,
                "velocity": 51,
                "duration": 0.09545454545454568,
                "tempo": 120.0
            },
            {
                "start_time": 13.563636363636363,
                "end_time": 13.661363636363635,
                "pitch": 25,
                "velocity": 51,
                "duration": 0.09772727272727266,
                "tempo": 120.0
            },
            {
                "start_time": 13.661363636363635,
                "end_time": 13.777272727272727,
                "pitch": 34,
                "velocity": 51,
                "duration": 0.11590909090909207,
                "tempo": 120.0
            },
            {
                "start_time": 13.563636363636363,
                "end_time": 13.877272727272727,
                "pitch": 29,
                "velocity": 51,
                "duration": 0.3136363636363644,
                "tempo": 120.0
            },
            {
                "start_time": 13.877272727272727,
                "end_time": 13.979545454545454,
                "pitch": 25,
                "velocity": 51,
                "duration": 0.10227272727272663,
                "tempo": 120.0
            },
            {
                "start_time": 13.877272727272727,
                "end_time": 14.097727272727273,
                "pitch": 29,
                "velocity": 51,
                "duration": 0.22045454545454568,
                "tempo": 120.0
            },
            {
                "start_time": 13.979545454545454,
                "end_time": 14.097727272727273,
                "pitch": 29,
                "velocity": 51,
                "duration": 0.11818181818181905,
                "tempo": 120.0
            },
            {
                "start_time": 14.097727272727273,
                "end_time": 14.202272727272726,
                "pitch": 29,
                "velocity": 51,
                "duration": 0.10454545454545361,
                "tempo": 120.0
            },
            {
                "start_time": 14.202272727272726,
                "end_time": 14.313636363636363,
                "pitch": 58,
                "velocity": 51,
                "duration": 0.11136363636363633,
                "tempo": 120.0
            },
            {
                "start_time": 14.202272727272726,
                "end_time": 14.520454545454545,
                "pitch": 66,
                "velocity": 51,
                "duration": 0.31818181818181834,
                "tempo": 120.0
            },
            {
                "start_time": 14.520454545454545,
                "end_time": 14.613636363636363,
                "pitch": 58,
                "velocity": 51,
                "duration": 0.0931818181818187,
                "tempo": 120.0
            },
            {
                "start_time": 14.613636363636363,
                "end_time": 14.713636363636363,
                "pitch": 65,
                "velocity": 51,
                "duration": 0.09999999999999964,
                "tempo": 120.0
            },
            {
                "start_time": 14.613636363636363,
                "end_time": 14.936363636363636,
                "pitch": 37,
                "velocity": 51,
                "duration": 0.3227272727272723,
                "tempo": 120.0
            },
            {
                "start_time": 14.834090909090909,
                "end_time": 14.936363636363636,
                "pitch": 70,
                "velocity": 51,
                "duration": 0.10227272727272663,
                "tempo": 120.0
            },
            {
                "start_time": 14.936363636363636,
                "end_time": 15.056818181818182,
                "pitch": 65,
                "velocity": 51,
                "duration": 0.12045454545454604,
                "tempo": 120.0
            },
            {
                "start_time": 14.520454545454545,
                "end_time": 15.059090909090909,
                "pitch": 66,
                "velocity": 51,
                "duration": 0.538636363636364,
                "tempo": 120.0
            },
            {
                "start_time": 15.056818181818182,
                "end_time": 15.059090909090909,
                "pitch": 66,
                "velocity": 51,
                "duration": 0.002272727272726982,
                "tempo": 120.0
            },
            {
                "start_time": 15.059090909090909,
                "end_time": 15.156818181818181,
                "pitch": 58,
                "velocity": 51,
                "duration": 0.09772727272727266,
                "tempo": 120.0
            },
            {
                "start_time": 14.936363636363636,
                "end_time": 15.472727272727273,
                "pitch": 37,
                "velocity": 51,
                "duration": 0.536363636363637,
                "tempo": 120.0
            },
            {
                "start_time": 15.375,
                "end_time": 15.472727272727273,
                "pitch": 58,
                "velocity": 51,
                "duration": 0.09772727272727266,
                "tempo": 120.0
            },
            {
                "start_time": 15.472727272727273,
                "end_time": 15.584090909090909,
                "pitch": 65,
                "velocity": 51,
                "duration": 0.11136363636363633,
                "tempo": 120.0
            },
            {
                "start_time": 14.834090909090909,
                "end_time": 15.681818181818182,
                "pitch": 78,
                "velocity": 51,
                "duration": 0.8477272727272727,
                "tempo": 120.0
            },
            {
                "start_time": 15.472727272727273,
                "end_time": 15.790909090909091,
                "pitch": 37,
                "velocity": 51,
                "duration": 0.31818181818181834,
                "tempo": 120.0
            },
            {
                "start_time": 15.681818181818182,
                "end_time": 15.790909090909091,
                "pitch": 70,
                "velocity": 51,
                "duration": 0.10909090909090935,
                "tempo": 120.0
            },
            {
                "start_time": 15.790909090909091,
                "end_time": 15.888636363636364,
                "pitch": 65,
                "velocity": 51,
                "duration": 0.09772727272727266,
                "tempo": 120.0
            },
            {
                "start_time": 15.375,
                "end_time": 15.888636363636364,
                "pitch": 66,
                "velocity": 51,
                "duration": 0.5136363636363637,
                "tempo": 120.0
            },
            {
                "start_time": 15.888636363636364,
                "end_time": 16.004545454545454,
                "pitch": 58,
                "velocity": 51,
                "duration": 0.1159090909090903,
                "tempo": 120.0
            },
            {
                "start_time": 15.888636363636364,
                "end_time": 16.204545454545453,
                "pitch": 66,
                "velocity": 51,
                "duration": 0.3159090909090896,
                "tempo": 120.0
            },
            {
                "start_time": 15.790909090909091,
                "end_time": 16.320454545454545,
                "pitch": 37,
                "velocity": 51,
                "duration": 0.5295454545454543,
                "tempo": 120.0
            },
            {
                "start_time": 16.204545454545453,
                "end_time": 16.320454545454545,
                "pitch": 58,
                "velocity": 51,
                "duration": 0.11590909090909207,
                "tempo": 120.0
            },
            {
                "start_time": 16.320454545454545,
                "end_time": 16.422727272727272,
                "pitch": 65,
                "velocity": 51,
                "duration": 0.10227272727272663,
                "tempo": 120.0
            },
            {
                "start_time": 15.681818181818182,
                "end_time": 16.543181818181818,
                "pitch": 78,
                "velocity": 51,
                "duration": 0.8613636363636363,
                "tempo": 120.0
            },
            {
                "start_time": 16.320454545454545,
                "end_time": 16.643181818181816,
                "pitch": 37,
                "velocity": 51,
                "duration": 0.32272727272727053,
                "tempo": 120.0
            },
            {
                "start_time": 16.543181818181818,
                "end_time": 16.643181818181816,
                "pitch": 70,
                "velocity": 51,
                "duration": 0.09999999999999787,
                "tempo": 120.0
            },
            {
                "start_time": 16.643181818181816,
                "end_time": 16.763636363636362,
                "pitch": 65,
                "velocity": 51,
                "duration": 0.12045454545454604,
                "tempo": 120.0
            },
            {
                "start_time": 16.204545454545453,
                "end_time": 16.76590909090909,
                "pitch": 66,
                "velocity": 51,
                "duration": 0.5613636363636374,
                "tempo": 120.0
            },
            {
                "start_time": 16.763636363636362,
                "end_time": 16.76590909090909,
                "pitch": 66,
                "velocity": 51,
                "duration": 0.0022727272727287584,
                "tempo": 120.0
            },
            {
                "start_time": 16.76590909090909,
                "end_time": 16.863636363636363,
                "pitch": 58,
                "velocity": 51,
                "duration": 0.09772727272727266,
                "tempo": 120.0
            },
            {
                "start_time": 17.081818181818182,
                "end_time": 17.179545454545455,
                "pitch": 58,
                "velocity": 51,
                "duration": 0.09772727272727266,
                "tempo": 120.0
            },
            {
                "start_time": 16.643181818181816,
                "end_time": 17.18181818181818,
                "pitch": 37,
                "velocity": 51,
                "duration": 0.538636363636364,
                "tempo": 120.0
            },
            {
                "start_time": 17.18181818181818,
                "end_time": 17.29090909090909,
                "pitch": 65,
                "velocity": 51,
                "duration": 0.10909090909090935,
                "tempo": 120.0
            },
            {
                "start_time": 16.543181818181818,
                "end_time": 17.388636363636362,
                "pitch": 78,
                "velocity": 51,
                "duration": 0.8454545454545439,
                "tempo": 120.0
            },
            {
                "start_time": 17.18181818181818,
                "end_time": 17.49772727272727,
                "pitch": 37,
                "velocity": 51,
                "duration": 0.31590909090909136,
                "tempo": 120.0
            },
            {
                "start_time": 17.388636363636362,
                "end_time": 17.49772727272727,
                "pitch": 70,
                "velocity": 51,
                "duration": 0.10909090909090935,
                "tempo": 120.0
            },
            {
                "start_time": 17.49772727272727,
                "end_time": 17.595454545454544,
                "pitch": 65,
                "velocity": 51,
                "duration": 0.09772727272727266,
                "tempo": 120.0
            },
            {
                "start_time": 17.081818181818182,
                "end_time": 17.595454545454544,
                "pitch": 66,
                "velocity": 51,
                "duration": 0.5136363636363619,
                "tempo": 120.0
            },
            {
                "start_time": 17.595454545454544,
                "end_time": 17.695454545454545,
                "pitch": 58,
                "velocity": 51,
                "duration": 0.10000000000000142,
                "tempo": 120.0
            },
            {
                "start_time": 17.595454545454544,
                "end_time": 17.918181818181818,
                "pitch": 66,
                "velocity": 51,
                "duration": 0.3227272727272741,
                "tempo": 120.0
            },
            {
                "start_time": 17.49772727272727,
                "end_time": 18.036363636363635,
                "pitch": 37,
                "velocity": 51,
                "duration": 0.538636363636364,
                "tempo": 120.0
            },
            {
                "start_time": 17.918181818181818,
                "end_time": 18.036363636363635,
                "pitch": 58,
                "velocity": 51,
                "duration": 0.11818181818181728,
                "tempo": 120.0
            },
            {
                "start_time": 18.036363636363635,
                "end_time": 18.136363636363637,
                "pitch": 65,
                "velocity": 51,
                "duration": 0.10000000000000142,
                "tempo": 120.0
            },
            {
                "start_time": 17.388636363636362,
                "end_time": 18.254545454545454,
                "pitch": 78,
                "velocity": 51,
                "duration": 0.8659090909090921,
                "tempo": 120.0
            },
            {
                "start_time": 18.036363636363635,
                "end_time": 18.352272727272727,
                "pitch": 37,
                "velocity": 51,
                "duration": 0.31590909090909136,
                "tempo": 120.0
            },
            {
                "start_time": 18.254545454545454,
                "end_time": 18.352272727272727,
                "pitch": 70,
                "velocity": 51,
                "duration": 0.09772727272727266,
                "tempo": 120.0
            },
            {
                "start_time": 18.352272727272727,
                "end_time": 18.454545454545453,
                "pitch": 65,
                "velocity": 51,
                "duration": 0.10227272727272663,
                "tempo": 120.0
            },
            {
                "start_time": 17.918181818181818,
                "end_time": 18.454545454545453,
                "pitch": 66,
                "velocity": 51,
                "duration": 0.5363636363636353,
                "tempo": 120.0
            },
            {
                "start_time": 18.454545454545453,
                "end_time": 18.563636363636363,
                "pitch": 58,
                "velocity": 51,
                "duration": 0.10909090909090935,
                "tempo": 120.0
            },
            {
                "start_time": 18.454545454545453,
                "end_time": 18.772727272727273,
                "pitch": 66,
                "velocity": 51,
                "duration": 0.3181818181818201,
                "tempo": 120.0
            },
            {
                "start_time": 18.352272727272727,
                "end_time": 18.86590909090909,
                "pitch": 37,
                "velocity": 51,
                "duration": 0.5136363636363619,
                "tempo": 120.0
            },
            {
                "start_time": 18.772727272727273,
                "end_time": 18.86590909090909,
                "pitch": 58,
                "velocity": 51,
                "duration": 0.09318181818181515,
                "tempo": 120.0
            },
            {
                "start_time": 18.86590909090909,
                "end_time": 18.98409090909091,
                "pitch": 65,
                "velocity": 51,
                "duration": 0.11818181818182083,
                "tempo": 120.0
            },
            {
                "start_time": 18.254545454545454,
                "end_time": 19.08863636363636,
                "pitch": 78,
                "velocity": 51,
                "duration": 0.8340909090909072,
                "tempo": 120.0
            },
            {
                "start_time": 18.86590909090909,
                "end_time": 19.188636363636363,
                "pitch": 37,
                "velocity": 51,
                "duration": 0.3227272727272741,
                "tempo": 120.0
            },
            {
                "start_time": 19.08863636363636,
                "end_time": 19.188636363636363,
                "pitch": 70,
                "velocity": 51,
                "duration": 0.10000000000000142,
                "tempo": 120.0
            },
            {
                "start_time": 19.188636363636363,
                "end_time": 19.311363636363634,
                "pitch": 65,
                "velocity": 51,
                "duration": 0.12272727272727124,
                "tempo": 120.0
            },
            {
                "start_time": 18.772727272727273,
                "end_time": 19.311363636363634,
                "pitch": 66,
                "velocity": 51,
                "duration": 0.5386363636363605,
                "tempo": 120.0
            },
            {
                "start_time": 19.311363636363634,
                "end_time": 19.409090909090907,
                "pitch": 58,
                "velocity": 51,
                "duration": 0.09772727272727266,
                "tempo": 120.0
            },
            {
                "start_time": 19.311363636363634,
                "end_time": 19.627272727272725,
                "pitch": 66,
                "velocity": 51,
                "duration": 0.31590909090909136,
                "tempo": 120.0
            },
            {
                "start_time": 19.627272727272725,
                "end_time": 19.743181818181817,
                "pitch": 58,
                "velocity": 51,
                "duration": 0.11590909090909207,
                "tempo": 120.0
            },
            {
                "start_time": 19.188636363636363,
                "end_time": 19.745454545454546,
                "pitch": 37,
                "velocity": 51,
                "duration": 0.5568181818181834,
                "tempo": 120.0
            },
            {
                "start_time": 19.745454545454546,
                "end_time": 19.84318181818182,
                "pitch": 65,
                "velocity": 51,
                "duration": 0.09772727272727266,
                "tempo": 120.0
            },
            {
                "start_time": 19.08863636363636,
                "end_time": 19.943181818181817,
                "pitch": 78,
                "velocity": 51,
                "duration": 0.8545454545454554,
                "tempo": 120.0
            },
            {
                "start_time": 19.745454545454546,
                "end_time": 20.061363636363634,
                "pitch": 37,
                "velocity": 51,
                "duration": 0.3159090909090878,
                "tempo": 120.0
            },
            {
                "start_time": 19.943181818181817,
                "end_time": 20.061363636363634,
                "pitch": 70,
                "velocity": 51,
                "duration": 0.11818181818181728,
                "tempo": 120.0
            },
            {
                "start_time": 20.061363636363634,
                "end_time": 20.161363636363635,
                "pitch": 65,
                "velocity": 51,
                "duration": 0.10000000000000142,
                "tempo": 120.0
            },
            {
                "start_time": 19.627272727272725,
                "end_time": 20.161363636363635,
                "pitch": 66,
                "velocity": 51,
                "duration": 0.5340909090909101,
                "tempo": 120.0
            },
            {
                "start_time": 20.161363636363635,
                "end_time": 20.272727272727273,
                "pitch": 58,
                "velocity": 51,
                "duration": 0.11136363636363811,
                "tempo": 120.0
            },
            {
                "start_time": 20.161363636363635,
                "end_time": 20.479545454545452,
                "pitch": 66,
                "velocity": 51,
                "duration": 0.31818181818181657,
                "tempo": 120.0
            },
            {
                "start_time": 20.061363636363634,
                "end_time": 20.575,
                "pitch": 37,
                "velocity": 51,
                "duration": 0.5136363636363654,
                "tempo": 120.0
            },
            {
                "start_time": 20.479545454545452,
                "end_time": 20.575,
                "pitch": 58,
                "velocity": 51,
                "duration": 0.09545454545454746,
                "tempo": 120.0
            },
            {
                "start_time": 20.575,
                "end_time": 20.672727272727272,
                "pitch": 65,
                "velocity": 51,
                "duration": 0.09772727272727266,
                "tempo": 120.0
            },
            {
                "start_time": 19.943181818181817,
                "end_time": 20.79090909090909,
                "pitch": 78,
                "velocity": 51,
                "duration": 0.8477272727272727,
                "tempo": 120.0
            },
            {
                "start_time": 20.79090909090909,
                "end_time": 20.888636363636362,
                "pitch": 70,
                "velocity": 51,
                "duration": 0.09772727272727266,
                "tempo": 120.0
            },
            {
                "start_time": 20.575,
                "end_time": 20.89090909090909,
                "pitch": 37,
                "velocity": 51,
                "duration": 0.31590909090909136,
                "tempo": 120.0
            },
            {
                "start_time": 20.89090909090909,
                "end_time": 21.009090909090908,
                "pitch": 65,
                "velocity": 51,
                "duration": 0.11818181818181728,
                "tempo": 120.0
            },
            {
                "start_time": 20.479545454545452,
                "end_time": 21.009090909090908,
                "pitch": 66,
                "velocity": 51,
                "duration": 0.5295454545454561,
                "tempo": 120.0
            },
            {
                "start_time": 21.009090909090908,
                "end_time": 21.111363636363635,
                "pitch": 58,
                "velocity": 51,
                "duration": 0.10227272727272663,
                "tempo": 120.0
            },
            {
                "start_time": 21.009090909090908,
                "end_time": 21.331818181818182,
                "pitch": 66,
                "velocity": 51,
                "duration": 0.3227272727272741,
                "tempo": 120.0
            },
            {
                "start_time": 20.89090909090909,
                "end_time": 21.43409090909091,
                "pitch": 37,
                "velocity": 51,
                "duration": 0.543181818181818,
                "tempo": 120.0
            },
            {
                "start_time": 21.331818181818182,
                "end_time": 21.43409090909091,
                "pitch": 58,
                "velocity": 51,
                "duration": 0.10227272727272663,
                "tempo": 120.0
            },
            {
                "start_time": 21.43409090909091,
                "end_time": 21.543181818181818,
                "pitch": 65,
                "velocity": 51,
                "duration": 0.10909090909090935,
                "tempo": 120.0
            },
            {
                "start_time": 20.79090909090909,
                "end_time": 21.64090909090909,
                "pitch": 78,
                "velocity": 51,
                "duration": 0.8500000000000014,
                "tempo": 120.0
            },
            {
                "start_time": 21.43409090909091,
                "end_time": 21.75,
                "pitch": 37,
                "velocity": 51,
                "duration": 0.31590909090909136,
                "tempo": 120.0
            },
            {
                "start_time": 21.64090909090909,
                "end_time": 21.75,
                "pitch": 70,
                "velocity": 51,
                "duration": 0.10909090909090935,
                "tempo": 120.0
            },
            {
                "start_time": 21.75,
                "end_time": 21.847727272727273,
                "pitch": 65,
                "velocity": 51,
                "duration": 0.09772727272727266,
                "tempo": 120.0
            },
            {
                "start_time": 21.331818181818182,
                "end_time": 21.847727272727273,
                "pitch": 66,
                "velocity": 51,
                "duration": 0.5159090909090907,
                "tempo": 120.0
            },
            {
                "start_time": 21.847727272727273,
                "end_time": 21.96363636363636,
                "pitch": 58,
                "velocity": 51,
                "duration": 0.11590909090908852,
                "tempo": 120.0
            },
            {
                "start_time": 21.847727272727273,
                "end_time": 22.16590909090909,
                "pitch": 66,
                "velocity": 51,
                "duration": 0.31818181818181657,
                "tempo": 120.0
            },
            {
                "start_time": 21.75,
                "end_time": 22.279545454545453,
                "pitch": 37,
                "velocity": 51,
                "duration": 0.5295454545454525,
                "tempo": 120.0
            },
            {
                "start_time": 22.16590909090909,
                "end_time": 22.279545454545453,
                "pitch": 58,
                "velocity": 51,
                "duration": 0.11363636363636331,
                "tempo": 120.0
            },
            {
                "start_time": 22.279545454545453,
                "end_time": 22.38181818181818,
                "pitch": 65,
                "velocity": 51,
                "duration": 0.10227272727272663,
                "tempo": 120.0
            },
            {
                "start_time": 21.64090909090909,
                "end_time": 22.504545454545454,
                "pitch": 78,
                "velocity": 51,
                "duration": 0.8636363636363633,
                "tempo": 120.0
            },
            {
                "start_time": 22.504545454545454,
                "end_time": 22.602272727272727,
                "pitch": 70,
                "velocity": 51,
                "duration": 0.09772727272727266,
                "tempo": 120.0
            },
            {
                "start_time": 22.279545454545453,
                "end_time": 22.604545454545452,
                "pitch": 37,
                "velocity": 51,
                "duration": 0.3249999999999993,
                "tempo": 120.0
            },
            {
                "start_time": 22.604545454545452,
                "end_time": 22.724999999999998,
                "pitch": 65,
                "velocity": 51,
                "duration": 0.12045454545454604,
                "tempo": 120.0
            },
            {
                "start_time": 22.16590909090909,
                "end_time": 22.724999999999998,
                "pitch": 66,
                "velocity": 51,
                "duration": 0.5590909090909086,
                "tempo": 120.0
            },
            {
                "start_time": 22.724999999999998,
                "end_time": 22.825,
                "pitch": 58,
                "velocity": 51,
                "duration": 0.10000000000000142,
                "tempo": 120.0
            },
            {
                "start_time": 22.724999999999998,
                "end_time": 23.043181818181818,
                "pitch": 66,
                "velocity": 51,
                "duration": 0.3181818181818201,
                "tempo": 120.0
            },
            {
                "start_time": 22.604545454545452,
                "end_time": 23.14090909090909,
                "pitch": 37,
                "velocity": 51,
                "duration": 0.5363636363636388,
                "tempo": 120.0
            },
            {
                "start_time": 23.043181818181818,
                "end_time": 23.14090909090909,
                "pitch": 58,
                "velocity": 51,
                "duration": 0.09772727272727266,
                "tempo": 120.0
            },
            {
                "start_time": 23.14090909090909,
                "end_time": 23.254545454545454,
                "pitch": 65,
                "velocity": 51,
                "duration": 0.11363636363636331,
                "tempo": 120.0
            },
            {
                "start_time": 22.504545454545454,
                "end_time": 23.352272727272727,
                "pitch": 78,
                "velocity": 51,
                "duration": 0.8477272727272727,
                "tempo": 120.0
            },
            {
                "start_time": 23.14090909090909,
                "end_time": 23.46590909090909,
                "pitch": 37,
                "velocity": 51,
                "duration": 0.3249999999999993,
                "tempo": 120.0
            },
            {
                "start_time": 23.352272727272727,
                "end_time": 23.46590909090909,
                "pitch": 70,
                "velocity": 51,
                "duration": 0.11363636363636331,
                "tempo": 120.0
            },
            {
                "start_time": 23.46590909090909,
                "end_time": 23.56590909090909,
                "pitch": 65,
                "velocity": 51,
                "duration": 0.10000000000000142,
                "tempo": 120.0
            },
            {
                "start_time": 23.043181818181818,
                "end_time": 23.56590909090909,
                "pitch": 66,
                "velocity": 51,
                "duration": 0.5227272727272734,
                "tempo": 120.0
            },
            {
                "start_time": 23.56590909090909,
                "end_time": 23.663636363636364,
                "pitch": 58,
                "velocity": 51,
                "duration": 0.09772727272727266,
                "tempo": 120.0
            },
            {
                "start_time": 23.56590909090909,
                "end_time": 23.877272727272725,
                "pitch": 66,
                "velocity": 51,
                "duration": 0.31136363636363384,
                "tempo": 120.0
            },
            {
                "start_time": 23.877272727272725,
                "end_time": 23.988636363636363,
                "pitch": 58,
                "velocity": 51,
                "duration": 0.11136363636363811,
                "tempo": 120.0
            },
            {
                "start_time": 23.46590909090909,
                "end_time": 23.99090909090909,
                "pitch": 37,
                "velocity": 51,
                "duration": 0.5249999999999986,
                "tempo": 120.0
            },
            {
                "start_time": 23.99090909090909,
                "end_time": 24.08863636363636,
                "pitch": 65,
                "velocity": 51,
                "duration": 0.09772727272727266,
                "tempo": 120.0
            },
            {
                "start_time": 23.352272727272727,
                "end_time": 24.209090909090907,
                "pitch": 78,
                "velocity": 51,
                "duration": 0.8568181818181806,
                "tempo": 120.0
            },
            {
                "start_time": 23.99090909090909,
                "end_time": 24.30681818181818,
                "pitch": 37,
                "velocity": 51,
                "duration": 0.31590909090909136,
                "tempo": 120.0
            },
            {
                "start_time": 24.209090909090907,
                "end_time": 24.30681818181818,
                "pitch": 70,
                "velocity": 51,
                "duration": 0.09772727272727266,
                "tempo": 120.0
            },
            {
                "start_time": 24.30681818181818,
                "end_time": 24.409090909090907,
                "pitch": 65,
                "velocity": 51,
                "duration": 0.10227272727272663,
                "tempo": 120.0
            },
            {
                "start_time": 23.877272727272725,
                "end_time": 24.409090909090907,
                "pitch": 66,
                "velocity": 51,
                "duration": 0.5318181818181813,
                "tempo": 120.0
            },
            {
                "start_time": 24.409090909090907,
                "end_time": 24.520454545454545,
                "pitch": 58,
                "velocity": 51,
                "duration": 0.11136363636363811,
                "tempo": 120.0
            },
            {
                "start_time": 24.409090909090907,
                "end_time": 24.736363636363635,
                "pitch": 66,
                "velocity": 51,
                "duration": 0.32727272727272805,
                "tempo": 120.0
            },
            {
                "start_time": 24.30681818181818,
                "end_time": 24.831818181818182,
                "pitch": 37,
                "velocity": 51,
                "duration": 0.5250000000000021,
                "tempo": 120.0
            },
            {
                "start_time": 24.736363636363635,
                "end_time": 24.831818181818182,
                "pitch": 58,
                "velocity": 51,
                "duration": 0.09545454545454746,
                "tempo": 120.0
            },
            {
                "start_time": 24.831818181818182,
                "end_time": 24.95,
                "pitch": 65,
                "velocity": 51,
                "duration": 0.11818181818181728,
                "tempo": 120.0
            },
            {
                "start_time": 24.209090909090907,
                "end_time": 25.054545454545455,
                "pitch": 78,
                "velocity": 51,
                "duration": 0.8454545454545475,
                "tempo": 120.0
            },
            {
                "start_time": 24.831818181818182,
                "end_time": 25.154545454545453,
                "pitch": 37,
                "velocity": 51,
                "duration": 0.32272727272727053,
                "tempo": 120.0
            },
            {
                "start_time": 25.054545454545455,
                "end_time": 25.154545454545453,
                "pitch": 70,
                "velocity": 51,
                "duration": 0.09999999999999787,
                "tempo": 120.0
            },
            {
                "start_time": 25.154545454545453,
                "end_time": 25.275,
                "pitch": 65,
                "velocity": 51,
                "duration": 0.12045454545454604,
                "tempo": 120.0
            },
            {
                "start_time": 24.736363636363635,
                "end_time": 25.275,
                "pitch": 66,
                "velocity": 51,
                "duration": 0.538636363636364,
                "tempo": 120.0
            },
            {
                "start_time": 25.275,
                "end_time": 25.375,
                "pitch": 58,
                "velocity": 51,
                "duration": 0.10000000000000142,
                "tempo": 120.0
            },
            {
                "start_time": 25.275,
                "end_time": 25.59090909090909,
                "pitch": 66,
                "velocity": 51,
                "duration": 0.31590909090909136,
                "tempo": 120.0
            },
            {
                "start_time": 25.154545454545453,
                "end_time": 25.709090909090907,
                "pitch": 37,
                "velocity": 51,
                "duration": 0.5545454545454547,
                "tempo": 120.0
            },
            {
                "start_time": 25.59090909090909,
                "end_time": 25.709090909090907,
                "pitch": 58,
                "velocity": 51,
                "duration": 0.11818181818181728,
                "tempo": 120.0
            },
            {
                "start_time": 25.709090909090907,
                "end_time": 25.80909090909091,
                "pitch": 65,
                "velocity": 51,
                "duration": 0.10000000000000142,
                "tempo": 120.0
            },
            {
                "start_time": 25.054545454545455,
                "end_time": 25.911363636363635,
                "pitch": 78,
                "velocity": 51,
                "duration": 0.8568181818181806,
                "tempo": 120.0
            },
            {
                "start_time": 25.709090909090907,
                "end_time": 26.025,
                "pitch": 37,
                "velocity": 51,
                "duration": 0.31590909090909136,
                "tempo": 120.0
            },
            {
                "start_time": 25.911363636363635,
                "end_time": 26.025,
                "pitch": 70,
                "velocity": 51,
                "duration": 0.11363636363636331,
                "tempo": 120.0
            },
            {
                "start_time": 26.025,
                "end_time": 26.127272727272725,
                "pitch": 65,
                "velocity": 51,
                "duration": 0.10227272727272663,
                "tempo": 120.0
            },
            {
                "start_time": 25.59090909090909,
                "end_time": 26.127272727272725,
                "pitch": 66,
                "velocity": 51,
                "duration": 0.5363636363636353,
                "tempo": 120.0
            },
            {
                "start_time": 26.127272727272725,
                "end_time": 26.238636363636363,
                "pitch": 58,
                "velocity": 51,
                "duration": 0.11136363636363811,
                "tempo": 120.0
            },
            {
                "start_time": 26.127272727272725,
                "end_time": 26.454545454545453,
                "pitch": 66,
                "velocity": 51,
                "duration": 0.32727272727272805,
                "tempo": 120.0
            },
            {
                "start_time": 26.025,
                "end_time": 26.549999999999997,
                "pitch": 37,
                "velocity": 51,
                "duration": 0.5249999999999986,
                "tempo": 120.0
            },
            {
                "start_time": 26.454545454545453,
                "end_time": 26.549999999999997,
                "pitch": 58,
                "velocity": 51,
                "duration": 0.0954545454545439,
                "tempo": 120.0
            },
            {
                "start_time": 26.549999999999997,
                "end_time": 26.65,
                "pitch": 65,
                "velocity": 51,
                "duration": 0.10000000000000142,
                "tempo": 120.0
            },
            {
                "start_time": 25.911363636363635,
                "end_time": 26.768181818181816,
                "pitch": 78,
                "velocity": 51,
                "duration": 0.8568181818181806,
                "tempo": 120.0
            },
            {
                "start_time": 26.549999999999997,
                "end_time": 26.86590909090909,
                "pitch": 37,
                "velocity": 51,
                "duration": 0.31590909090909136,
                "tempo": 120.0
            },
            {
                "start_time": 26.768181818181816,
                "end_time": 26.86590909090909,
                "pitch": 70,
                "velocity": 51,
                "duration": 0.09772727272727266,
                "tempo": 120.0
            },
            {
                "start_time": 26.86590909090909,
                "end_time": 26.98409090909091,
                "pitch": 65,
                "velocity": 51,
                "duration": 0.11818181818182083,
                "tempo": 120.0
            },
            {
                "start_time": 26.986363636363635,
                "end_time": 27.084090909090907,
                "pitch": 53,
                "velocity": 51,
                "duration": 0.09772727272727266,
                "tempo": 120.0
            },
            {
                "start_time": 27.202272727272724,
                "end_time": 27.299999999999997,
                "pitch": 65,
                "velocity": 51,
                "duration": 0.09772727272727266,
                "tempo": 120.0
            },
            {
                "start_time": 27.299999999999997,
                "end_time": 27.402272727272727,
                "pitch": 65,
                "velocity": 51,
                "duration": 0.10227272727273018,
                "tempo": 120.0
            },
            {
                "start_time": 27.402272727272727,
                "end_time": 27.511363636363637,
                "pitch": 73,
                "velocity": 51,
                "duration": 0.10909090909090935,
                "tempo": 120.0
            },
            {
                "start_time": 26.86590909090909,
                "end_time": 27.60681818181818,
                "pitch": 37,
                "velocity": 51,
                "duration": 0.7409090909090921,
                "tempo": 120.0
            },
            {
                "start_time": 27.511363636363637,
                "end_time": 27.60681818181818,
                "pitch": 70,
                "velocity": 51,
                "duration": 0.0954545454545439,
                "tempo": 120.0
            },
            {
                "start_time": 27.60681818181818,
                "end_time": 27.718181818181815,
                "pitch": 65,
                "velocity": 51,
                "duration": 0.11136363636363455,
                "tempo": 120.0
            },
            {
                "start_time": 13.661363636363635,
                "end_time": 27.815909090909088,
                "pitch": 40,
                "velocity": 51,
                "duration": 14.154545454545453,
                "tempo": 120.0
            },
            {
                "start_time": 27.718181818181815,
                "end_time": 27.815909090909088,
                "pitch": 61,
                "velocity": 51,
                "duration": 0.09772727272727266,
                "tempo": 120.0
            },
            {
                "start_time": 27.815909090909088,
                "end_time": 27.93409090909091,
                "pitch": 34,
                "velocity": 51,
                "duration": 0.11818181818182083,
                "tempo": 120.0
            },
            {
                "start_time": 28.25681818181818,
                "end_time": 28.35909090909091,
                "pitch": 41,
                "velocity": 51,
                "duration": 0.10227272727273018,
                "tempo": 120.0
            },
            {
                "start_time": 13.352272727272727,
                "end_time": 28.702272727272724,
                "pitch": 42,
                "velocity": 51,
                "duration": 15.349999999999998,
                "tempo": 120.0
            },
            {
                "start_time": 28.702272727272724,
                "end_time": 28.797727272727272,
                "pitch": 34,
                "velocity": 51,
                "duration": 0.09545454545454746,
                "tempo": 120.0
            },
            {
                "start_time": 29.10909090909091,
                "end_time": 29.222727272727273,
                "pitch": 41,
                "velocity": 51,
                "duration": 0.11363636363636331,
                "tempo": 120.0
            },
            {
                "start_time": 28.702272727272724,
                "end_time": 29.534090909090907,
                "pitch": 42,
                "velocity": 51,
                "duration": 0.831818181818182,
                "tempo": 120.0
            },
            {
                "start_time": 29.534090909090907,
                "end_time": 29.634090909090908,
                "pitch": 34,
                "velocity": 51,
                "duration": 0.10000000000000142,
                "tempo": 120.0
            },
            {
                "start_time": 29.968181818181815,
                "end_time": 30.068181818181817,
                "pitch": 41,
                "velocity": 51,
                "duration": 0.10000000000000142,
                "tempo": 120.0
            },
            {
                "start_time": 29.534090909090907,
                "end_time": 30.395454545454545,
                "pitch": 42,
                "velocity": 51,
                "duration": 0.8613636363636381,
                "tempo": 120.0
            },
            {
                "start_time": 30.395454545454545,
                "end_time": 30.504545454545454,
                "pitch": 34,
                "velocity": 51,
                "duration": 0.10909090909090935,
                "tempo": 120.0
            },
            {
                "start_time": 30.80681818181818,
                "end_time": 30.922727272727272,
                "pitch": 41,
                "velocity": 51,
                "duration": 0.11590909090909207,
                "tempo": 120.0
            },
            {
                "start_time": 30.395454545454545,
                "end_time": 31.24090909090909,
                "pitch": 42,
                "velocity": 51,
                "duration": 0.8454545454545439,
                "tempo": 120.0
            },
            {
                "start_time": 31.24090909090909,
                "end_time": 31.34090909090909,
                "pitch": 34,
                "velocity": 51,
                "duration": 0.10000000000000142,
                "tempo": 120.0
            },
            {
                "start_time": 31.674999999999997,
                "end_time": 31.77272727272727,
                "pitch": 41,
                "velocity": 51,
                "duration": 0.09772727272727266,
                "tempo": 120.0
            },
            {
                "start_time": 31.24090909090909,
                "end_time": 32.09318181818182,
                "pitch": 42,
                "velocity": 51,
                "duration": 0.8522727272727302,
                "tempo": 120.0
            },
            {
                "start_time": 32.09318181818182,
                "end_time": 32.20454545454545,
                "pitch": 34,
                "velocity": 51,
                "duration": 0.11136363636363455,
                "tempo": 120.0
            },
            {
                "start_time": 32.51590909090909,
                "end_time": 32.61590909090909,
                "pitch": 41,
                "velocity": 51,
                "duration": 0.10000000000000142,
                "tempo": 120.0
            },
            {
                "start_time": 32.09318181818182,
                "end_time": 32.949999999999996,
                "pitch": 42,
                "velocity": 51,
                "duration": 0.856818181818177,
                "tempo": 120.0
            },
            {
                "start_time": 32.949999999999996,
                "end_time": 33.05,
                "pitch": 34,
                "velocity": 51,
                "duration": 0.10000000000000142,
                "tempo": 120.0
            },
            {
                "start_time": 33.36590909090909,
                "end_time": 33.48181818181818,
                "pitch": 41,
                "velocity": 51,
                "duration": 0.11590909090908497,
                "tempo": 120.0
            },
            {
                "start_time": 33.793181818181814,
                "end_time": 33.90681818181818,
                "pitch": 29,
                "velocity": 51,
                "duration": 0.11363636363636687,
                "tempo": 120.0
            },
            {
                "start_time": 13.134090909090908,
                "end_time": 33.90681818181818,
                "pitch": 54,
                "velocity": 51,
                "duration": 20.772727272727273,
                "tempo": 120.0
            },
            {
                "start_time": 33.90681818181818,
                "end_time": 34.00681818181818,
                "pitch": 46,
                "velocity": 51,
                "duration": 0.10000000000000142,
                "tempo": 120.0
            },
            {
                "start_time": 34.00681818181818,
                "end_time": 34.10681818181818,
                "pitch": 46,
                "velocity": 51,
                "duration": 0.09999999999999432,
                "tempo": 120.0
            },
            {
                "start_time": 13.23181818181818,
                "end_time": 34.225,
                "pitch": 13,
                "velocity": 51,
                "duration": 20.99318181818182,
                "tempo": 120.0
            },
            {
                "start_time": 34.10909090909091,
                "end_time": 34.225,
                "pitch": 46,
                "velocity": 51,
                "duration": 0.11590909090909207,
                "tempo": 120.0
            },
            {
                "start_time": 34.225,
                "end_time": 34.32272727272727,
                "pitch": 41,
                "velocity": 51,
                "duration": 0.09772727272726911,
                "tempo": 120.0
            },
            {
                "start_time": 34.32272727272727,
                "end_time": 34.43636363636364,
                "pitch": 41,
                "velocity": 51,
                "duration": 0.11363636363636687,
                "tempo": 120.0
            },
            {
                "start_time": 27.60681818181818,
                "end_time": 34.53409090909091,
                "pitch": 37,
                "velocity": 51,
                "duration": 6.927272727272726,
                "tempo": 120.0
            },
            {
                "start_time": 34.43636363636364,
                "end_time": 34.53409090909091,
                "pitch": 37,
                "velocity": 51,
                "duration": 0.09772727272726911,
                "tempo": 120.0
            },
            {
                "start_time": 34.53409090909091,
                "end_time": 34.65,
                "pitch": 37,
                "velocity": 51,
                "duration": 0.11590909090909207,
                "tempo": 120.0
            },
            {
                "start_time": 27.815909090909088,
                "end_time": 34.652272727272724,
                "pitch": 40,
                "velocity": 51,
                "duration": 6.836363636363636,
                "tempo": 120.0
            },
            {
                "start_time": 34.652272727272724,
                "end_time": 34.75,
                "pitch": 34,
                "velocity": 51,
                "duration": 0.09772727272727622,
                "tempo": 120.0
            },
            {
                "start_time": 34.43636363636364,
                "end_time": 35.19090909090909,
                "pitch": 41,
                "velocity": 51,
                "duration": 0.7545454545454504,
                "tempo": 120.0
            },
            {
                "start_time": 35.074999999999996,
                "end_time": 35.19090909090909,
                "pitch": 41,
                "velocity": 51,
                "duration": 0.11590909090909207,
                "tempo": 120.0
            },
            {
                "start_time": 32.949999999999996,
                "end_time": 35.502272727272725,
                "pitch": 42,
                "velocity": 51,
                "duration": 2.5522727272727295,
                "tempo": 120.0
            },
            {
                "start_time": 35.502272727272725,
                "end_time": 35.6,
                "pitch": 34,
                "velocity": 51,
                "duration": 0.09772727272727622,
                "tempo": 120.0
            },
            {
                "start_time": 35.934090909090905,
                "end_time": 36.03636363636363,
                "pitch": 41,
                "velocity": 51,
                "duration": 0.10227272727272663,
                "tempo": 120.0
            },
            {
                "start_time": 35.502272727272725,
                "end_time": 36.361363636363635,
                "pitch": 42,
                "velocity": 51,
                "duration": 0.8590909090909093,
                "tempo": 120.0
            },
            {
                "start_time": 36.361363636363635,
                "end_time": 36.470454545454544,
                "pitch": 34,
                "velocity": 51,
                "duration": 0.10909090909090935,
                "tempo": 120.0
            },
            {
                "start_time": 36.77272727272727,
                "end_time": 36.89090909090909,
                "pitch": 41,
                "velocity": 51,
                "duration": 0.11818181818181728,
                "tempo": 120.0
            },
            {
                "start_time": 36.361363636363635,
                "end_time": 37.20909090909091,
                "pitch": 42,
                "velocity": 51,
                "duration": 0.8477272727272762,
                "tempo": 120.0
            },
            {
                "start_time": 37.20909090909091,
                "end_time": 37.30681818181818,
                "pitch": 34,
                "velocity": 51,
                "duration": 0.09772727272726911,
                "tempo": 120.0
            },
            {
                "start_time": 37.64090909090909,
                "end_time": 37.74090909090909,
                "pitch": 41,
                "velocity": 51,
                "duration": 0.10000000000000142,
                "tempo": 120.0
            },
            {
                "start_time": 37.20909090909091,
                "end_time": 38.059090909090905,
                "pitch": 42,
                "velocity": 51,
                "duration": 0.8499999999999943,
                "tempo": 120.0
            },
            {
                "start_time": 38.059090909090905,
                "end_time": 38.17045454545455,
                "pitch": 34,
                "velocity": 51,
                "duration": 0.11136363636364166,
                "tempo": 120.0
            },
            {
                "start_time": 38.48181818181818,
                "end_time": 38.58181818181818,
                "pitch": 41,
                "velocity": 51,
                "duration": 0.10000000000000142,
                "tempo": 120.0
            },
            {
                "start_time": 38.059090909090905,
                "end_time": 38.918181818181814,
                "pitch": 42,
                "velocity": 51,
                "duration": 0.8590909090909093,
                "tempo": 120.0
            },
            {
                "start_time": 38.918181818181814,
                "end_time": 39.01590909090909,
                "pitch": 34,
                "velocity": 51,
                "duration": 0.09772727272727622,
                "tempo": 120.0
            },
            {
                "start_time": 39.334090909090904,
                "end_time": 39.44772727272727,
                "pitch": 41,
                "velocity": 51,
                "duration": 0.11363636363636687,
                "tempo": 120.0
            },
            {
                "start_time": 38.918181818181814,
                "end_time": 39.75909090909091,
                "pitch": 42,
                "velocity": 51,
                "duration": 0.8409090909090935,
                "tempo": 120.0
            },
            {
                "start_time": 39.75909090909091,
                "end_time": 39.87272727272727,
                "pitch": 34,
                "velocity": 51,
                "duration": 0.11363636363635976,
                "tempo": 120.0
            },
            {
                "start_time": 40.19090909090909,
                "end_time": 40.293181818181814,
                "pitch": 41,
                "velocity": 51,
                "duration": 0.10227272727272663,
                "tempo": 120.0
            },
            {
                "start_time": 33.90681818181818,
                "end_time": 40.63636363636363,
                "pitch": 54,
                "velocity": 51,
                "duration": 6.729545454545452,
                "tempo": 120.0
            },
            {
                "start_time": 34.225,
                "end_time": 40.73409090909091,
                "pitch": 13,
                "velocity": 51,
                "duration": 6.509090909090908,
                "tempo": 120.0
            },
            {
                "start_time": 40.63636363636363,
                "end_time": 40.73409090909091,
                "pitch": 46,
                "velocity": 51,
                "duration": 0.09772727272727622,
                "tempo": 120.0
            },
            {
                "start_time": 40.73409090909091,
                "end_time": 40.834090909090904,
                "pitch": 37,
                "velocity": 51,
                "duration": 0.09999999999999432,
                "tempo": 120.0
            },
            {
                "start_time": 40.834090909090904,
                "end_time": 40.95227272727273,
                "pitch": 37,
                "velocity": 51,
                "duration": 0.11818181818182438,
                "tempo": 120.0
            },
            {
                "start_time": 40.73409090909091,
                "end_time": 41.05,
                "pitch": 13,
                "velocity": 51,
                "duration": 0.3159090909090878,
                "tempo": 120.0
            },
            {
                "start_time": 40.95227272727273,
                "end_time": 41.05,
                "pitch": 46,
                "velocity": 51,
                "duration": 0.09772727272726911,
                "tempo": 120.0
            },
            {
                "start_time": 41.05,
                "end_time": 41.16590909090909,
                "pitch": 37,
                "velocity": 51,
                "duration": 0.11590909090909207,
                "tempo": 120.0
            },
            {
                "start_time": 41.16590909090909,
                "end_time": 41.26363636363636,
                "pitch": 37,
                "velocity": 51,
                "duration": 0.09772727272726911,
                "tempo": 120.0
            },
            {
                "start_time": 40.95227272727273,
                "end_time": 41.26590909090909,
                "pitch": 52,
                "velocity": 51,
                "duration": 0.3136363636363626,
                "tempo": 120.0
            },
            {
                "start_time": 41.05,
                "end_time": 41.377272727272725,
                "pitch": 13,
                "velocity": 51,
                "duration": 0.32727272727272805,
                "tempo": 120.0
            },
            {
                "start_time": 41.26590909090909,
                "end_time": 41.377272727272725,
                "pitch": 46,
                "velocity": 51,
                "duration": 0.11136363636363455,
                "tempo": 120.0
            },
            {
                "start_time": 41.377272727272725,
                "end_time": 41.47727272727273,
                "pitch": 37,
                "velocity": 51,
                "duration": 0.10000000000000142,
                "tempo": 120.0
            },
            {
                "start_time": 34.652272727272724,
                "end_time": 41.47727272727273,
                "pitch": 40,
                "velocity": 51,
                "duration": 6.825000000000003,
                "tempo": 120.0
            },
            {
                "start_time": 41.47727272727273,
                "end_time": 41.574999999999996,
                "pitch": 34,
                "velocity": 51,
                "duration": 0.09772727272726911,
                "tempo": 120.0
            },
            {
                "start_time": 41.9,
                "end_time": 42.002272727272725,
                "pitch": 41,
                "velocity": 51,
                "duration": 0.10227272727272663,
                "tempo": 120.0
            },
            {
                "start_time": 39.75909090909091,
                "end_time": 42.320454545454545,
                "pitch": 42,
                "velocity": 51,
                "duration": 2.5613636363636374,
                "tempo": 120.0
            },
            {
                "start_time": 42.320454545454545,
                "end_time": 42.43181818181818,
                "pitch": 34,
                "velocity": 51,
                "duration": 0.11136363636363455,
                "tempo": 120.0
            },
            {
                "start_time": 42.74318181818182,
                "end_time": 42.85909090909091,
                "pitch": 41,
                "velocity": 51,
                "duration": 0.11590909090909207,
                "tempo": 120.0
            },
            {
                "start_time": 42.320454545454545,
                "end_time": 43.179545454545455,
                "pitch": 42,
                "velocity": 51,
                "duration": 0.8590909090909093,
                "tempo": 120.0
            },
            {
                "start_time": 43.179545454545455,
                "end_time": 43.275,
                "pitch": 34,
                "velocity": 51,
                "duration": 0.0954545454545439,
                "tempo": 120.0
            },
            {
                "start_time": 43.60909090909091,
                "end_time": 43.711363636363636,
                "pitch": 41,
                "velocity": 51,
                "duration": 0.10227272727272663,
                "tempo": 120.0
            },
            {
                "start_time": 43.179545454545455,
                "end_time": 44.02954545454545,
                "pitch": 42,
                "velocity": 51,
                "duration": 0.8499999999999943,
                "tempo": 120.0
            },
            {
                "start_time": 44.02954545454545,
                "end_time": 44.14090909090909,
                "pitch": 34,
                "velocity": 51,
                "duration": 0.11136363636364166,
                "tempo": 120.0
            },
            {
                "start_time": 44.45227272727273,
                "end_time": 44.55227272727272,
                "pitch": 41,
                "velocity": 51,
                "duration": 0.09999999999999432,
                "tempo": 120.0
            },
            {
                "start_time": 44.02954545454545,
                "end_time": 44.88863636363636,
                "pitch": 42,
                "velocity": 51,
                "duration": 0.8590909090909093,
                "tempo": 120.0
            },
            {
                "start_time": 44.88863636363636,
                "end_time": 44.986363636363635,
                "pitch": 34,
                "velocity": 51,
                "duration": 0.09772727272727622,
                "tempo": 120.0
            },
            {
                "start_time": 45.31136363636364,
                "end_time": 45.42272727272727,
                "pitch": 41,
                "velocity": 51,
                "duration": 0.11136363636363455,
                "tempo": 120.0
            },
            {
                "start_time": 44.88863636363636,
                "end_time": 45.724999999999994,
                "pitch": 42,
                "velocity": 51,
                "duration": 0.836363636363636,
                "tempo": 120.0
            },
            {
                "start_time": 45.724999999999994,
                "end_time": 45.84318181818182,
                "pitch": 34,
                "velocity": 51,
                "duration": 0.11818181818182438,
                "tempo": 120.0
            },
            {
                "start_time": 46.168181818181814,
                "end_time": 46.268181818181816,
                "pitch": 41,
                "velocity": 51,
                "duration": 0.10000000000000142,
                "tempo": 120.0
            },
            {
                "start_time": 45.724999999999994,
                "end_time": 46.60454545454545,
                "pitch": 42,
                "velocity": 51,
                "duration": 0.8795454545454575,
                "tempo": 120.0
            },
            {
                "start_time": 46.60454545454545,
                "end_time": 46.699999999999996,
                "pitch": 34,
                "velocity": 51,
                "duration": 0.0954545454545439,
                "tempo": 120.0
            },
            {
                "start_time": 47.02045454545454,
                "end_time": 47.13409090909091,
                "pitch": 41,
                "velocity": 51,
                "duration": 0.11363636363636687,
                "tempo": 120.0
            },
            {
                "start_time": 40.63636363636363,
                "end_time": 47.445454545454545,
                "pitch": 54,
                "velocity": 51,
                "duration": 6.809090909090912,
                "tempo": 120.0
            },
            {
                "start_time": 41.377272727272725,
                "end_time": 47.543181818181814,
                "pitch": 13,
                "velocity": 51,
                "duration": 6.165909090909089,
                "tempo": 120.0
            },
            {
                "start_time": 47.445454545454545,
                "end_time": 47.543181818181814,
                "pitch": 46,
                "velocity": 51,
                "duration": 0.09772727272726911,
                "tempo": 120.0
            },
            {
                "start_time": 47.543181818181814,
                "end_time": 47.65909090909091,
                "pitch": 37,
                "velocity": 51,
                "duration": 0.11590909090909207,
                "tempo": 120.0
            },
            {
                "start_time": 47.65909090909091,
                "end_time": 47.75909090909091,
                "pitch": 37,
                "velocity": 51,
                "duration": 0.10000000000000142,
                "tempo": 120.0
            },
            {
                "start_time": 41.26590909090909,
                "end_time": 47.76136363636363,
                "pitch": 52,
                "velocity": 51,
                "duration": 6.4954545454545425,
                "tempo": 120.0
            },
            {
                "start_time": 47.543181818181814,
                "end_time": 47.877272727272725,
                "pitch": 13,
                "velocity": 51,
                "duration": 0.33409090909091077,
                "tempo": 120.0
            },
            {
                "start_time": 47.76136363636363,
                "end_time": 47.877272727272725,
                "pitch": 46,
                "velocity": 51,
                "duration": 0.11590909090909207,
                "tempo": 120.0
            },
            {
                "start_time": 47.877272727272725,
                "end_time": 47.97727272727273,
                "pitch": 37,
                "velocity": 51,
                "duration": 0.10000000000000142,
                "tempo": 120.0
            },
            {
                "start_time": 47.97727272727273,
                "end_time": 48.09318181818182,
                "pitch": 37,
                "velocity": 51,
                "duration": 0.11590909090909207,
                "tempo": 120.0
            },
            {
                "start_time": 47.76136363636363,
                "end_time": 48.09318181818182,
                "pitch": 52,
                "velocity": 51,
                "duration": 0.33181818181818556,
                "tempo": 120.0
            },
            {
                "start_time": 47.877272727272725,
                "end_time": 48.19318181818181,
                "pitch": 13,
                "velocity": 51,
                "duration": 0.3159090909090878,
                "tempo": 120.0
            },
            {
                "start_time": 48.09318181818182,
                "end_time": 48.19318181818181,
                "pitch": 46,
                "velocity": 51,
                "duration": 0.09999999999999432,
                "tempo": 120.0
            },
            {
                "start_time": 48.19318181818181,
                "end_time": 48.29545454545454,
                "pitch": 37,
                "velocity": 51,
                "duration": 0.10227272727272663,
                "tempo": 120.0
            }
        ],
        "Clarinet": [
            {
                "start_time": 0.759090909090909,
                "end_time": 0.8704545454545454,
                "pitch": 29,
                "velocity": 51,
                "duration": 0.11136363636363633,
                "tempo": 120.0
            },
            {
                "start_time": 1.084090909090909,
                "end_time": 1.184090909090909,
                "pitch": 41,
                "velocity": 51,
                "duration": 0.10000000000000009,
                "tempo": 120.0
            },
            {
                "start_time": 1.6204545454545454,
                "end_time": 1.7249999999999999,
                "pitch": 29,
                "velocity": 51,
                "duration": 0.1045454545454545,
                "tempo": 120.0
            },
            {
                "start_time": 1.9454545454545453,
                "end_time": 2.047727272727273,
                "pitch": 41,
                "velocity": 51,
                "duration": 0.10227272727272751,
                "tempo": 120.0
            },
            {
                "start_time": 2.477272727272727,
                "end_time": 2.5886363636363634,
                "pitch": 29,
                "velocity": 51,
                "duration": 0.11136363636363633,
                "tempo": 120.0
            },
            {
                "start_time": 2.784090909090909,
                "end_time": 2.9,
                "pitch": 41,
                "velocity": 51,
                "duration": 0.11590909090909074,
                "tempo": 120.0
            },
            {
                "start_time": 3.334090909090909,
                "end_time": 3.434090909090909,
                "pitch": 29,
                "velocity": 51,
                "duration": 0.10000000000000009,
                "tempo": 120.0
            },
            {
                "start_time": 3.6477272727272725,
                "end_time": 3.7477272727272726,
                "pitch": 41,
                "velocity": 51,
                "duration": 0.10000000000000009,
                "tempo": 120.0
            },
            {
                "start_time": 4.175,
                "end_time": 4.2749999999999995,
                "pitch": 29,
                "velocity": 51,
                "duration": 0.09999999999999964,
                "tempo": 120.0
            },
            {
                "start_time": 4.495454545454545,
                "end_time": 4.61590909090909,
                "pitch": 41,
                "velocity": 51,
                "duration": 0.12045454545454515,
                "tempo": 120.0
            },
            {
                "start_time": 5.036363636363636,
                "end_time": 5.152272727272727,
                "pitch": 29,
                "velocity": 51,
                "duration": 0.11590909090909118,
                "tempo": 120.0
            },
            {
                "start_time": 5.363636363636363,
                "end_time": 5.459090909090909,
                "pitch": 41,
                "velocity": 51,
                "duration": 0.09545454545454568,
                "tempo": 120.0
            },
            {
                "start_time": 5.884090909090909,
                "end_time": 5.9840909090909085,
                "pitch": 29,
                "velocity": 51,
                "duration": 0.09999999999999964,
                "tempo": 120.0
            },
            {
                "start_time": 6.202272727272727,
                "end_time": 6.322727272727272,
                "pitch": 41,
                "velocity": 51,
                "duration": 0.12045454545454515,
                "tempo": 120.0
            },
            {
                "start_time": 6.7340909090909085,
                "end_time": 6.845454545454545,
                "pitch": 29,
                "velocity": 51,
                "duration": 0.11136363636363633,
                "tempo": 120.0
            },
            {
                "start_time": 7.059090909090909,
                "end_time": 7.161363636363636,
                "pitch": 41,
                "velocity": 51,
                "duration": 0.10227272727272751,
                "tempo": 120.0
            },
            {
                "start_time": 7.595454545454545,
                "end_time": 7.6931818181818175,
                "pitch": 29,
                "velocity": 51,
                "duration": 0.09772727272727266,
                "tempo": 120.0
            },
            {
                "start_time": 7.909090909090908,
                "end_time": 8.011363636363637,
                "pitch": 41,
                "velocity": 51,
                "duration": 0.1022727272727284,
                "tempo": 120.0
            },
            {
                "start_time": 8.445454545454545,
                "end_time": 8.561363636363636,
                "pitch": 29,
                "velocity": 51,
                "duration": 0.1159090909090903,
                "tempo": 120.0
            },
            {
                "start_time": 8.756818181818181,
                "end_time": 8.870454545454544,
                "pitch": 41,
                "velocity": 51,
                "duration": 0.11363636363636331,
                "tempo": 120.0
            },
            {
                "start_time": 9.299999999999999,
                "end_time": 9.4,
                "pitch": 29,
                "velocity": 51,
                "duration": 0.10000000000000142,
                "tempo": 120.0
            },
            {
                "start_time": 9.61590909090909,
                "end_time": 9.718181818181817,
                "pitch": 41,
                "velocity": 51,
                "duration": 0.10227272727272663,
                "tempo": 120.0
            },
            {
                "start_time": 10.15,
                "end_time": 10.252272727272727,
                "pitch": 29,
                "velocity": 51,
                "duration": 0.10227272727272663,
                "tempo": 120.0
            },
            {
                "start_time": 10.468181818181817,
                "end_time": 10.586363636363636,
                "pitch": 41,
                "velocity": 51,
                "duration": 0.11818181818181905,
                "tempo": 120.0
            },
            {
                "start_time": 11.004545454545454,
                "end_time": 11.120454545454544,
                "pitch": 29,
                "velocity": 51,
                "duration": 0.1159090909090903,
                "tempo": 120.0
            },
            {
                "start_time": 11.331818181818182,
                "end_time": 11.427272727272726,
                "pitch": 41,
                "velocity": 51,
                "duration": 0.0954545454545439,
                "tempo": 120.0
            },
            {
                "start_time": 11.85,
                "end_time": 11.95,
                "pitch": 29,
                "velocity": 51,
                "duration": 0.09999999999999964,
                "tempo": 120.0
            },
            {
                "start_time": 12.165909090909091,
                "end_time": 12.284090909090908,
                "pitch": 41,
                "velocity": 51,
                "duration": 0.11818181818181728,
                "tempo": 120.0
            },
            {
                "start_time": 12.7,
                "end_time": 12.81590909090909,
                "pitch": 29,
                "velocity": 51,
                "duration": 0.1159090909090903,
                "tempo": 120.0
            },
            {
                "start_time": 13.031818181818181,
                "end_time": 13.134090909090908,
                "pitch": 41,
                "velocity": 51,
                "duration": 0.10227272727272663,
                "tempo": 120.0
            },
            {
                "start_time": 14.313636363636363,
                "end_time": 14.409090909090908,
                "pitch": 53,
                "velocity": 51,
                "duration": 0.09545454545454568,
                "tempo": 120.0
            },
            {
                "start_time": 14.409090909090908,
                "end_time": 14.520454545454545,
                "pitch": 53,
                "velocity": 51,
                "duration": 0.11136363636363633,
                "tempo": 120.0
            },
            {
                "start_time": 14.71590909090909,
                "end_time": 14.834090909090909,
                "pitch": 65,
                "velocity": 51,
                "duration": 0.11818181818181905,
                "tempo": 120.0
            },
            {
                "start_time": 14.313636363636363,
                "end_time": 15.156818181818181,
                "pitch": 25,
                "velocity": 51,
                "duration": 0.8431818181818187,
                "tempo": 120.0
            },
            {
                "start_time": 15.156818181818181,
                "end_time": 15.272727272727272,
                "pitch": 53,
                "velocity": 51,
                "duration": 0.1159090909090903,
                "tempo": 120.0
            },
            {
                "start_time": 15.272727272727272,
                "end_time": 15.375,
                "pitch": 53,
                "velocity": 51,
                "duration": 0.1022727272727284,
                "tempo": 120.0
            },
            {
                "start_time": 15.584090909090909,
                "end_time": 15.681818181818182,
                "pitch": 65,
                "velocity": 51,
                "duration": 0.09772727272727266,
                "tempo": 120.0
            },
            {
                "start_time": 15.156818181818181,
                "end_time": 16.004545454545454,
                "pitch": 25,
                "velocity": 51,
                "duration": 0.8477272727272727,
                "tempo": 120.0
            },
            {
                "start_time": 16.004545454545454,
                "end_time": 16.104545454545455,
                "pitch": 53,
                "velocity": 51,
                "duration": 0.10000000000000142,
                "tempo": 120.0
            },
            {
                "start_time": 16.104545454545455,
                "end_time": 16.204545454545453,
                "pitch": 53,
                "velocity": 51,
                "duration": 0.09999999999999787,
                "tempo": 120.0
            },
            {
                "start_time": 16.422727272727272,
                "end_time": 16.54090909090909,
                "pitch": 65,
                "velocity": 51,
                "duration": 0.11818181818181728,
                "tempo": 120.0
            },
            {
                "start_time": 16.004545454545454,
                "end_time": 16.863636363636363,
                "pitch": 25,
                "velocity": 51,
                "duration": 0.8590909090909093,
                "tempo": 120.0
            },
            {
                "start_time": 16.863636363636363,
                "end_time": 16.96363636363636,
                "pitch": 53,
                "velocity": 51,
                "duration": 0.09999999999999787,
                "tempo": 120.0
            },
            {
                "start_time": 16.96363636363636,
                "end_time": 17.081818181818182,
                "pitch": 53,
                "velocity": 51,
                "duration": 0.11818181818182083,
                "tempo": 120.0
            },
            {
                "start_time": 17.29090909090909,
                "end_time": 17.388636363636362,
                "pitch": 65,
                "velocity": 51,
                "duration": 0.09772727272727266,
                "tempo": 120.0
            },
            {
                "start_time": 16.863636363636363,
                "end_time": 17.69772727272727,
                "pitch": 25,
                "velocity": 51,
                "duration": 0.8340909090909072,
                "tempo": 120.0
            },
            {
                "start_time": 17.69772727272727,
                "end_time": 17.81590909090909,
                "pitch": 53,
                "velocity": 51,
                "duration": 0.11818181818182083,
                "tempo": 120.0
            },
            {
                "start_time": 17.81590909090909,
                "end_time": 17.918181818181818,
                "pitch": 53,
                "velocity": 51,
                "duration": 0.10227272727272663,
                "tempo": 120.0
            },
            {
                "start_time": 18.136363636363637,
                "end_time": 18.252272727272725,
                "pitch": 65,
                "velocity": 51,
                "duration": 0.11590909090908852,
                "tempo": 120.0
            },
            {
                "start_time": 17.69772727272727,
                "end_time": 18.56590909090909,
                "pitch": 25,
                "velocity": 51,
                "duration": 0.8681818181818208,
                "tempo": 120.0
            },
            {
                "start_time": 18.56590909090909,
                "end_time": 18.659090909090907,
                "pitch": 53,
                "velocity": 51,
                "duration": 0.09318181818181515,
                "tempo": 120.0
            },
            {
                "start_time": 18.659090909090907,
                "end_time": 18.772727272727273,
                "pitch": 53,
                "velocity": 51,
                "duration": 0.11363636363636687,
                "tempo": 120.0
            },
            {
                "start_time": 18.98409090909091,
                "end_time": 19.08863636363636,
                "pitch": 65,
                "velocity": 51,
                "duration": 0.10454545454545183,
                "tempo": 120.0
            },
            {
                "start_time": 18.56590909090909,
                "end_time": 19.409090909090907,
                "pitch": 25,
                "velocity": 51,
                "duration": 0.8431818181818151,
                "tempo": 120.0
            },
            {
                "start_time": 19.409090909090907,
                "end_time": 19.527272727272727,
                "pitch": 53,
                "velocity": 51,
                "duration": 0.11818181818182083,
                "tempo": 120.0
            },
            {
                "start_time": 19.527272727272727,
                "end_time": 19.627272727272725,
                "pitch": 53,
                "velocity": 51,
                "duration": 0.09999999999999787,
                "tempo": 120.0
            },
            {
                "start_time": 19.84318181818182,
                "end_time": 19.943181818181817,
                "pitch": 65,
                "velocity": 51,
                "duration": 0.09999999999999787,
                "tempo": 120.0
            },
            {
                "start_time": 19.409090909090907,
                "end_time": 20.272727272727273,
                "pitch": 25,
                "velocity": 51,
                "duration": 0.8636363636363669,
                "tempo": 120.0
            },
            {
                "start_time": 20.272727272727273,
                "end_time": 20.36590909090909,
                "pitch": 53,
                "velocity": 51,
                "duration": 0.09318181818181515,
                "tempo": 120.0
            },
            {
                "start_time": 20.36590909090909,
                "end_time": 20.479545454545452,
                "pitch": 53,
                "velocity": 51,
                "duration": 0.11363636363636331,
                "tempo": 120.0
            },
            {
                "start_time": 20.672727272727272,
                "end_time": 20.79090909090909,
                "pitch": 65,
                "velocity": 51,
                "duration": 0.11818181818181728,
                "tempo": 120.0
            },
            {
                "start_time": 20.272727272727273,
                "end_time": 21.111363636363635,
                "pitch": 25,
                "velocity": 51,
                "duration": 0.8386363636363612,
                "tempo": 120.0
            },
            {
                "start_time": 21.111363636363635,
                "end_time": 21.229545454545452,
                "pitch": 53,
                "velocity": 51,
                "duration": 0.11818181818181728,
                "tempo": 120.0
            },
            {
                "start_time": 21.229545454545452,
                "end_time": 21.331818181818182,
                "pitch": 53,
                "velocity": 51,
                "duration": 0.10227272727273018,
                "tempo": 120.0
            },
            {
                "start_time": 21.543181818181818,
                "end_time": 21.638636363636362,
                "pitch": 65,
                "velocity": 51,
                "duration": 0.0954545454545439,
                "tempo": 120.0
            },
            {
                "start_time": 21.111363636363635,
                "end_time": 21.96363636363636,
                "pitch": 25,
                "velocity": 51,
                "duration": 0.8522727272727266,
                "tempo": 120.0
            },
            {
                "start_time": 21.96363636363636,
                "end_time": 22.063636363636363,
                "pitch": 53,
                "velocity": 51,
                "duration": 0.10000000000000142,
                "tempo": 120.0
            },
            {
                "start_time": 22.063636363636363,
                "end_time": 22.16590909090909,
                "pitch": 53,
                "velocity": 51,
                "duration": 0.10227272727272663,
                "tempo": 120.0
            },
            {
                "start_time": 22.38181818181818,
                "end_time": 22.502272727272725,
                "pitch": 65,
                "velocity": 51,
                "duration": 0.12045454545454604,
                "tempo": 120.0
            },
            {
                "start_time": 21.96363636363636,
                "end_time": 22.825,
                "pitch": 25,
                "velocity": 51,
                "duration": 0.8613636363636381,
                "tempo": 120.0
            },
            {
                "start_time": 22.825,
                "end_time": 22.924999999999997,
                "pitch": 53,
                "velocity": 51,
                "duration": 0.09999999999999787,
                "tempo": 120.0
            },
            {
                "start_time": 22.924999999999997,
                "end_time": 23.04090909090909,
                "pitch": 53,
                "velocity": 51,
                "duration": 0.11590909090909207,
                "tempo": 120.0
            },
            {
                "start_time": 23.254545454545454,
                "end_time": 23.352272727272727,
                "pitch": 65,
                "velocity": 51,
                "duration": 0.09772727272727266,
                "tempo": 120.0
            },
            {
                "start_time": 22.825,
                "end_time": 23.663636363636364,
                "pitch": 25,
                "velocity": 51,
                "duration": 0.8386363636363647,
                "tempo": 120.0
            },
            {
                "start_time": 23.663636363636364,
                "end_time": 23.777272727272727,
                "pitch": 53,
                "velocity": 51,
                "duration": 0.11363636363636331,
                "tempo": 120.0
            },
            {
                "start_time": 23.777272727272727,
                "end_time": 23.877272727272725,
                "pitch": 53,
                "velocity": 51,
                "duration": 0.09999999999999787,
                "tempo": 120.0
            },
            {
                "start_time": 24.08863636363636,
                "end_time": 24.209090909090907,
                "pitch": 65,
                "velocity": 51,
                "duration": 0.12045454545454604,
                "tempo": 120.0
            },
            {
                "start_time": 23.663636363636364,
                "end_time": 24.520454545454545,
                "pitch": 25,
                "velocity": 51,
                "duration": 0.8568181818181806,
                "tempo": 120.0
            },
            {
                "start_time": 24.520454545454545,
                "end_time": 24.618181818181817,
                "pitch": 53,
                "velocity": 51,
                "duration": 0.09772727272727266,
                "tempo": 120.0
            },
            {
                "start_time": 24.618181818181817,
                "end_time": 24.73409090909091,
                "pitch": 53,
                "velocity": 51,
                "duration": 0.11590909090909207,
                "tempo": 120.0
            },
            {
                "start_time": 24.95,
                "end_time": 25.054545454545455,
                "pitch": 65,
                "velocity": 51,
                "duration": 0.10454545454545539,
                "tempo": 120.0
            },
            {
                "start_time": 24.520454545454545,
                "end_time": 25.375,
                "pitch": 25,
                "velocity": 51,
                "duration": 0.8545454545454554,
                "tempo": 120.0
            },
            {
                "start_time": 25.375,
                "end_time": 25.49090909090909,
                "pitch": 53,
                "velocity": 51,
                "duration": 0.11590909090908852,
                "tempo": 120.0
            },
            {
                "start_time": 25.49090909090909,
                "end_time": 25.59090909090909,
                "pitch": 53,
                "velocity": 51,
                "duration": 0.10000000000000142,
                "tempo": 120.0
            },
            {
                "start_time": 25.80909090909091,
                "end_time": 25.909090909090907,
                "pitch": 65,
                "velocity": 51,
                "duration": 0.09999999999999787,
                "tempo": 120.0
            },
            {
                "start_time": 25.375,
                "end_time": 26.238636363636363,
                "pitch": 25,
                "velocity": 51,
                "duration": 0.8636363636363633,
                "tempo": 120.0
            },
            {
                "start_time": 26.238636363636363,
                "end_time": 26.33863636363636,
                "pitch": 53,
                "velocity": 51,
                "duration": 0.09999999999999787,
                "tempo": 120.0
            },
            {
                "start_time": 26.33863636363636,
                "end_time": 26.454545454545453,
                "pitch": 53,
                "velocity": 51,
                "duration": 0.11590909090909207,
                "tempo": 120.0
            },
            {
                "start_time": 26.65,
                "end_time": 26.768181818181816,
                "pitch": 65,
                "velocity": 51,
                "duration": 0.11818181818181728,
                "tempo": 120.0
            },
            {
                "start_time": 27.084090909090907,
                "end_time": 27.202272727272724,
                "pitch": 53,
                "velocity": 51,
                "duration": 0.11818181818181728,
                "tempo": 120.0
            },
            {
                "start_time": 28.036363636363635,
                "end_time": 28.138636363636362,
                "pitch": 29,
                "velocity": 51,
                "duration": 0.10227272727272663,
                "tempo": 120.0
            },
            {
                "start_time": 28.138636363636362,
                "end_time": 28.25681818181818,
                "pitch": 29,
                "velocity": 51,
                "duration": 0.11818181818181728,
                "tempo": 120.0
            },
            {
                "start_time": 28.35909090909091,
                "end_time": 28.477272727272727,
                "pitch": 41,
                "velocity": 51,
                "duration": 0.11818181818181728,
                "tempo": 120.0
            },
            {
                "start_time": 28.477272727272727,
                "end_time": 28.579545454545453,
                "pitch": 41,
                "velocity": 51,
                "duration": 0.10227272727272663,
                "tempo": 120.0
            },
            {
                "start_time": 28.581818181818182,
                "end_time": 28.702272727272724,
                "pitch": 41,
                "velocity": 51,
                "duration": 0.12045454545454248,
                "tempo": 120.0
            },
            {
                "start_time": 28.895454545454545,
                "end_time": 29.011363636363637,
                "pitch": 29,
                "velocity": 51,
                "duration": 0.11590909090909207,
                "tempo": 120.0
            },
            {
                "start_time": 29.011363636363637,
                "end_time": 29.10909090909091,
                "pitch": 29,
                "velocity": 51,
                "duration": 0.09772727272727266,
                "tempo": 120.0
            },
            {
                "start_time": 29.222727272727273,
                "end_time": 29.320454545454545,
                "pitch": 41,
                "velocity": 51,
                "duration": 0.09772727272727266,
                "tempo": 120.0
            },
            {
                "start_time": 29.320454545454545,
                "end_time": 29.43409090909091,
                "pitch": 41,
                "velocity": 51,
                "duration": 0.11363636363636331,
                "tempo": 120.0
            },
            {
                "start_time": 29.43409090909091,
                "end_time": 29.534090909090907,
                "pitch": 41,
                "velocity": 51,
                "duration": 0.09999999999999787,
                "tempo": 120.0
            },
            {
                "start_time": 29.75,
                "end_time": 29.849999999999998,
                "pitch": 29,
                "velocity": 51,
                "duration": 0.09999999999999787,
                "tempo": 120.0
            },
            {
                "start_time": 29.849999999999998,
                "end_time": 29.968181818181815,
                "pitch": 29,
                "velocity": 51,
                "duration": 0.11818181818181728,
                "tempo": 120.0
            },
            {
                "start_time": 30.070454545454545,
                "end_time": 30.188636363636363,
                "pitch": 41,
                "velocity": 51,
                "duration": 0.11818181818181728,
                "tempo": 120.0
            },
            {
                "start_time": 30.188636363636363,
                "end_time": 30.29090909090909,
                "pitch": 41,
                "velocity": 51,
                "duration": 0.10227272727272663,
                "tempo": 120.0
            },
            {
                "start_time": 30.29090909090909,
                "end_time": 30.393181818181816,
                "pitch": 41,
                "velocity": 51,
                "duration": 0.10227272727272663,
                "tempo": 120.0
            },
            {
                "start_time": 30.599999999999998,
                "end_time": 30.711363636363636,
                "pitch": 29,
                "velocity": 51,
                "duration": 0.11136363636363811,
                "tempo": 120.0
            },
            {
                "start_time": 30.711363636363636,
                "end_time": 30.80681818181818,
                "pitch": 29,
                "velocity": 51,
                "duration": 0.0954545454545439,
                "tempo": 120.0
            },
            {
                "start_time": 30.922727272727272,
                "end_time": 31.02272727272727,
                "pitch": 41,
                "velocity": 51,
                "duration": 0.09999999999999787,
                "tempo": 120.0
            },
            {
                "start_time": 31.02272727272727,
                "end_time": 31.12272727272727,
                "pitch": 41,
                "velocity": 51,
                "duration": 0.10000000000000142,
                "tempo": 120.0
            },
            {
                "start_time": 31.12272727272727,
                "end_time": 31.24090909090909,
                "pitch": 41,
                "velocity": 51,
                "duration": 0.11818181818181728,
                "tempo": 120.0
            },
            {
                "start_time": 31.456818181818182,
                "end_time": 31.55681818181818,
                "pitch": 29,
                "velocity": 51,
                "duration": 0.09999999999999787,
                "tempo": 120.0
            },
            {
                "start_time": 31.55681818181818,
                "end_time": 31.672727272727272,
                "pitch": 29,
                "velocity": 51,
                "duration": 0.11590909090909207,
                "tempo": 120.0
            },
            {
                "start_time": 31.77272727272727,
                "end_time": 31.87272727272727,
                "pitch": 41,
                "velocity": 51,
                "duration": 0.10000000000000142,
                "tempo": 120.0
            },
            {
                "start_time": 31.87272727272727,
                "end_time": 31.99090909090909,
                "pitch": 41,
                "velocity": 51,
                "duration": 0.11818181818181728,
                "tempo": 120.0
            },
            {
                "start_time": 31.99090909090909,
                "end_time": 32.090909090909086,
                "pitch": 41,
                "velocity": 51,
                "duration": 0.09999999999999787,
                "tempo": 120.0
            },
            {
                "start_time": 32.30227272727272,
                "end_time": 32.418181818181814,
                "pitch": 29,
                "velocity": 51,
                "duration": 0.11590909090909207,
                "tempo": 120.0
            },
            {
                "start_time": 32.418181818181814,
                "end_time": 32.51590909090909,
                "pitch": 29,
                "velocity": 51,
                "duration": 0.09772727272727622,
                "tempo": 120.0
            },
            {
                "start_time": 32.61590909090909,
                "end_time": 32.73181818181818,
                "pitch": 41,
                "velocity": 51,
                "duration": 0.11590909090908497,
                "tempo": 120.0
            },
            {
                "start_time": 32.73181818181818,
                "end_time": 32.83181818181818,
                "pitch": 41,
                "velocity": 51,
                "duration": 0.10000000000000142,
                "tempo": 120.0
            },
            {
                "start_time": 32.83181818181818,
                "end_time": 32.949999999999996,
                "pitch": 41,
                "velocity": 51,
                "duration": 0.11818181818181728,
                "tempo": 120.0
            },
            {
                "start_time": 33.16590909090909,
                "end_time": 33.26590909090909,
                "pitch": 29,
                "velocity": 51,
                "duration": 0.10000000000000142,
                "tempo": 120.0
            },
            {
                "start_time": 33.26590909090909,
                "end_time": 33.36590909090909,
                "pitch": 29,
                "velocity": 51,
                "duration": 0.10000000000000142,
                "tempo": 120.0
            },
            {
                "start_time": 33.48181818181818,
                "end_time": 33.57954545454545,
                "pitch": 41,
                "velocity": 51,
                "duration": 0.09772727272727622,
                "tempo": 120.0
            },
            {
                "start_time": 33.57954545454545,
                "end_time": 33.69318181818181,
                "pitch": 41,
                "velocity": 51,
                "duration": 0.11363636363635976,
                "tempo": 120.0
            },
            {
                "start_time": 33.69318181818181,
                "end_time": 33.793181818181814,
                "pitch": 41,
                "velocity": 51,
                "duration": 0.10000000000000142,
                "tempo": 120.0
            },
            {
                "start_time": 34.85454545454545,
                "end_time": 34.97272727272727,
                "pitch": 29,
                "velocity": 51,
                "duration": 0.11818181818181728,
                "tempo": 120.0
            },
            {
                "start_time": 34.97272727272727,
                "end_time": 35.074999999999996,
                "pitch": 29,
                "velocity": 51,
                "duration": 0.10227272727272663,
                "tempo": 120.0
            },
            {
                "start_time": 35.19090909090909,
                "end_time": 35.28636363636363,
                "pitch": 41,
                "velocity": 51,
                "duration": 0.0954545454545439,
                "tempo": 120.0
            },
            {
                "start_time": 35.28636363636363,
                "end_time": 35.402272727272724,
                "pitch": 41,
                "velocity": 51,
                "duration": 0.11590909090909207,
                "tempo": 120.0
            },
            {
                "start_time": 35.402272727272724,
                "end_time": 35.502272727272725,
                "pitch": 41,
                "velocity": 51,
                "duration": 0.10000000000000142,
                "tempo": 120.0
            },
            {
                "start_time": 35.71818181818182,
                "end_time": 35.81818181818181,
                "pitch": 29,
                "velocity": 51,
                "duration": 0.09999999999999432,
                "tempo": 120.0
            },
            {
                "start_time": 35.81818181818181,
                "end_time": 35.93181818181818,
                "pitch": 29,
                "velocity": 51,
                "duration": 0.11363636363636687,
                "tempo": 120.0
            },
            {
                "start_time": 36.03636363636363,
                "end_time": 36.15681818181818,
                "pitch": 41,
                "velocity": 51,
                "duration": 0.12045454545454959,
                "tempo": 120.0
            },
            {
                "start_time": 36.15681818181818,
                "end_time": 36.25681818181818,
                "pitch": 41,
                "velocity": 51,
                "duration": 0.10000000000000142,
                "tempo": 120.0
            },
            {
                "start_time": 36.25681818181818,
                "end_time": 36.361363636363635,
                "pitch": 41,
                "velocity": 51,
                "duration": 0.10454545454545183,
                "tempo": 120.0
            },
            {
                "start_time": 36.56590909090909,
                "end_time": 36.67727272727272,
                "pitch": 29,
                "velocity": 51,
                "duration": 0.11136363636363455,
                "tempo": 120.0
            },
            {
                "start_time": 36.67727272727272,
                "end_time": 36.77272727272727,
                "pitch": 29,
                "velocity": 51,
                "duration": 0.09545454545455101,
                "tempo": 120.0
            },
            {
                "start_time": 36.89090909090909,
                "end_time": 36.98863636363636,
                "pitch": 41,
                "velocity": 51,
                "duration": 0.09772727272726911,
                "tempo": 120.0
            },
            {
                "start_time": 36.98863636363636,
                "end_time": 37.08863636363636,
                "pitch": 41,
                "velocity": 51,
                "duration": 0.10000000000000142,
                "tempo": 120.0
            },
            {
                "start_time": 37.08863636363636,
                "end_time": 37.20909090909091,
                "pitch": 41,
                "velocity": 51,
                "duration": 0.12045454545454959,
                "tempo": 120.0
            },
            {
                "start_time": 37.42272727272727,
                "end_time": 37.52272727272727,
                "pitch": 29,
                "velocity": 51,
                "duration": 0.10000000000000142,
                "tempo": 120.0
            },
            {
                "start_time": 37.52272727272727,
                "end_time": 37.63863636363636,
                "pitch": 29,
                "velocity": 51,
                "duration": 0.11590909090908497,
                "tempo": 120.0
            },
            {
                "start_time": 37.74090909090909,
                "end_time": 37.840909090909086,
                "pitch": 41,
                "velocity": 51,
                "duration": 0.09999999999999432,
                "tempo": 120.0
            },
            {
                "start_time": 37.840909090909086,
                "end_time": 37.95681818181818,
                "pitch": 41,
                "velocity": 51,
                "duration": 0.11590909090909207,
                "tempo": 120.0
            },
            {
                "start_time": 37.95681818181818,
                "end_time": 38.059090909090905,
                "pitch": 41,
                "velocity": 51,
                "duration": 0.10227272727272663,
                "tempo": 120.0
            },
            {
                "start_time": 38.27045454545454,
                "end_time": 38.38409090909091,
                "pitch": 29,
                "velocity": 51,
                "duration": 0.11363636363636687,
                "tempo": 120.0
            },
            {
                "start_time": 38.38409090909091,
                "end_time": 38.48181818181818,
                "pitch": 29,
                "velocity": 51,
                "duration": 0.09772727272726911,
                "tempo": 120.0
            },
            {
                "start_time": 38.58181818181818,
                "end_time": 38.699999999999996,
                "pitch": 41,
                "velocity": 51,
                "duration": 0.11818181818181728,
                "tempo": 120.0
            },
            {
                "start_time": 38.699999999999996,
                "end_time": 38.8,
                "pitch": 41,
                "velocity": 51,
                "duration": 0.10000000000000142,
                "tempo": 120.0
            },
            {
                "start_time": 38.8,
                "end_time": 38.918181818181814,
                "pitch": 41,
                "velocity": 51,
                "duration": 0.11818181818181728,
                "tempo": 120.0
            },
            {
                "start_time": 39.13409090909091,
                "end_time": 39.23181818181818,
                "pitch": 29,
                "velocity": 51,
                "duration": 0.09772727272726911,
                "tempo": 120.0
            },
            {
                "start_time": 39.23409090909091,
                "end_time": 39.334090909090904,
                "pitch": 29,
                "velocity": 51,
                "duration": 0.09999999999999432,
                "tempo": 120.0
            },
            {
                "start_time": 39.44772727272727,
                "end_time": 39.54545454545455,
                "pitch": 41,
                "velocity": 51,
                "duration": 0.09772727272727622,
                "tempo": 120.0
            },
            {
                "start_time": 39.54545454545455,
                "end_time": 39.65909090909091,
                "pitch": 41,
                "velocity": 51,
                "duration": 0.11363636363635976,
                "tempo": 120.0
            },
            {
                "start_time": 39.65909090909091,
                "end_time": 39.75909090909091,
                "pitch": 41,
                "velocity": 51,
                "duration": 0.10000000000000142,
                "tempo": 120.0
            },
            {
                "start_time": 39.975,
                "end_time": 40.074999999999996,
                "pitch": 29,
                "velocity": 51,
                "duration": 0.09999999999999432,
                "tempo": 120.0
            },
            {
                "start_time": 40.074999999999996,
                "end_time": 40.19090909090909,
                "pitch": 29,
                "velocity": 51,
                "duration": 0.11590909090909207,
                "tempo": 120.0
            },
            {
                "start_time": 40.293181818181814,
                "end_time": 40.413636363636364,
                "pitch": 41,
                "velocity": 51,
                "duration": 0.12045454545454959,
                "tempo": 120.0
            },
            {
                "start_time": 40.413636363636364,
                "end_time": 40.51590909090909,
                "pitch": 41,
                "velocity": 51,
                "duration": 0.10227272727272663,
                "tempo": 120.0
            },
            {
                "start_time": 40.51590909090909,
                "end_time": 40.63636363636363,
                "pitch": 41,
                "velocity": 51,
                "duration": 0.12045454545454248,
                "tempo": 120.0
            },
            {
                "start_time": 41.68863636363636,
                "end_time": 41.78636363636363,
                "pitch": 29,
                "velocity": 51,
                "duration": 0.09772727272726911,
                "tempo": 120.0
            },
            {
                "start_time": 41.78636363636363,
                "end_time": 41.9,
                "pitch": 29,
                "velocity": 51,
                "duration": 0.11363636363636687,
                "tempo": 120.0
            },
            {
                "start_time": 42.002272727272725,
                "end_time": 42.11818181818182,
                "pitch": 41,
                "velocity": 51,
                "duration": 0.11590909090909207,
                "tempo": 120.0
            },
            {
                "start_time": 42.11818181818182,
                "end_time": 42.21818181818182,
                "pitch": 41,
                "velocity": 51,
                "duration": 0.10000000000000142,
                "tempo": 120.0
            },
            {
                "start_time": 42.21818181818182,
                "end_time": 42.320454545454545,
                "pitch": 41,
                "velocity": 51,
                "duration": 0.10227272727272663,
                "tempo": 120.0
            },
            {
                "start_time": 42.52954545454545,
                "end_time": 42.64545454545454,
                "pitch": 29,
                "velocity": 51,
                "duration": 0.11590909090909207,
                "tempo": 120.0
            },
            {
                "start_time": 42.64545454545454,
                "end_time": 42.74090909090909,
                "pitch": 29,
                "velocity": 51,
                "duration": 0.09545454545455101,
                "tempo": 120.0
            },
            {
                "start_time": 42.85909090909091,
                "end_time": 42.959090909090904,
                "pitch": 41,
                "velocity": 51,
                "duration": 0.09999999999999432,
                "tempo": 120.0
            },
            {
                "start_time": 42.961363636363636,
                "end_time": 43.059090909090905,
                "pitch": 41,
                "velocity": 51,
                "duration": 0.09772727272726911,
                "tempo": 120.0
            },
            {
                "start_time": 43.059090909090905,
                "end_time": 43.17727272727272,
                "pitch": 41,
                "velocity": 51,
                "duration": 0.11818181818181728,
                "tempo": 120.0
            },
            {
                "start_time": 43.393181818181816,
                "end_time": 43.49318181818182,
                "pitch": 29,
                "velocity": 51,
                "duration": 0.10000000000000142,
                "tempo": 120.0
            },
            {
                "start_time": 43.49318181818182,
                "end_time": 43.60909090909091,
                "pitch": 29,
                "velocity": 51,
                "duration": 0.11590909090909207,
                "tempo": 120.0
            },
            {
                "start_time": 43.711363636363636,
                "end_time": 43.809090909090905,
                "pitch": 41,
                "velocity": 51,
                "duration": 0.09772727272726911,
                "tempo": 120.0
            },
            {
                "start_time": 43.809090909090905,
                "end_time": 43.92727272727272,
                "pitch": 41,
                "velocity": 51,
                "duration": 0.11818181818181728,
                "tempo": 120.0
            },
            {
                "start_time": 43.92727272727272,
                "end_time": 44.02954545454545,
                "pitch": 41,
                "velocity": 51,
                "duration": 0.10227272727272663,
                "tempo": 120.0
            },
            {
                "start_time": 44.23863636363636,
                "end_time": 44.35454545454545,
                "pitch": 29,
                "velocity": 51,
                "duration": 0.11590909090909207,
                "tempo": 120.0
            },
            {
                "start_time": 44.35454545454545,
                "end_time": 44.449999999999996,
                "pitch": 29,
                "velocity": 51,
                "duration": 0.0954545454545439,
                "tempo": 120.0
            },
            {
                "start_time": 44.55227272727272,
                "end_time": 44.668181818181814,
                "pitch": 41,
                "velocity": 51,
                "duration": 0.11590909090909207,
                "tempo": 120.0
            },
            {
                "start_time": 44.668181818181814,
                "end_time": 44.768181818181816,
                "pitch": 41,
                "velocity": 51,
                "duration": 0.10000000000000142,
                "tempo": 120.0
            },
            {
                "start_time": 44.768181818181816,
                "end_time": 44.88863636363636,
                "pitch": 41,
                "velocity": 51,
                "duration": 0.12045454545454248,
                "tempo": 120.0
            },
            {
                "start_time": 45.10681818181818,
                "end_time": 45.209090909090904,
                "pitch": 29,
                "velocity": 51,
                "duration": 0.10227272727272663,
                "tempo": 120.0
            },
            {
                "start_time": 45.209090909090904,
                "end_time": 45.31136363636364,
                "pitch": 29,
                "velocity": 51,
                "duration": 0.10227272727273373,
                "tempo": 120.0
            },
            {
                "start_time": 45.42272727272727,
                "end_time": 45.518181818181816,
                "pitch": 41,
                "velocity": 51,
                "duration": 0.0954545454545439,
                "tempo": 120.0
            },
            {
                "start_time": 45.518181818181816,
                "end_time": 45.62954545454545,
                "pitch": 41,
                "velocity": 51,
                "duration": 0.11136363636363455,
                "tempo": 120.0
            },
            {
                "start_time": 45.62954545454545,
                "end_time": 45.724999999999994,
                "pitch": 41,
                "velocity": 51,
                "duration": 0.0954545454545439,
                "tempo": 120.0
            },
            {
                "start_time": 45.945454545454545,
                "end_time": 46.04772727272727,
                "pitch": 29,
                "velocity": 51,
                "duration": 0.10227272727272663,
                "tempo": 120.0
            },
            {
                "start_time": 46.04772727272727,
                "end_time": 46.168181818181814,
                "pitch": 29,
                "velocity": 51,
                "duration": 0.12045454545454248,
                "tempo": 120.0
            },
            {
                "start_time": 46.268181818181816,
                "end_time": 46.38409090909091,
                "pitch": 41,
                "velocity": 51,
                "duration": 0.11590909090909207,
                "tempo": 120.0
            },
            {
                "start_time": 46.38409090909091,
                "end_time": 46.48409090909091,
                "pitch": 41,
                "velocity": 51,
                "duration": 0.10000000000000142,
                "tempo": 120.0
            },
            {
                "start_time": 46.48409090909091,
                "end_time": 46.60454545454545,
                "pitch": 41,
                "velocity": 51,
                "duration": 0.12045454545454248,
                "tempo": 120.0
            },
            {
                "start_time": 46.80227272727272,
                "end_time": 46.918181818181814,
                "pitch": 29,
                "velocity": 51,
                "duration": 0.11590909090909207,
                "tempo": 120.0
            },
            {
                "start_time": 46.918181818181814,
                "end_time": 47.02045454545454,
                "pitch": 29,
                "velocity": 51,
                "duration": 0.10227272727272663,
                "tempo": 120.0
            },
            {
                "start_time": 47.13409090909091,
                "end_time": 47.23181818181818,
                "pitch": 41,
                "velocity": 51,
                "duration": 0.09772727272726911,
                "tempo": 120.0
            },
            {
                "start_time": 47.23181818181818,
                "end_time": 47.345454545454544,
                "pitch": 41,
                "velocity": 51,
                "duration": 0.11363636363636687,
                "tempo": 120.0
            },
            {
                "start_time": 47.345454545454544,
                "end_time": 47.445454545454545,
                "pitch": 41,
                "velocity": 51,
                "duration": 0.10000000000000142,
                "tempo": 120.0
            }
        ]
    }
}