{
    "track_id": "11 Act 5, 8",
    "mood": "angry",
    "instruments": {
        "Lead 2 (sawtooth)": [
            {
                "start_time": 28.020454545454545,
                "end_time": 28.286363636363635,
                "pitch": 76,
                "velocity": 127,
                "duration": 0.26590909090909065,
                "tempo": 120.0
            },
            {
                "start_time": 28.34090909090909,
                "end_time": 28.602272727272727,
                "pitch": 74,
                "velocity": 127,
                "duration": 0.2613636363636367,
                "tempo": 120.0
            },
            {
                "start_time": 28.65681818181818,
                "end_time": 28.924999999999997,
                "pitch": 72,
                "velocity": 127,
                "duration": 0.26818181818181586,
                "tempo": 120.0
            },
            {
                "start_time": 28.34090909090909,
                "end_time": 28.98181818181818,
                "pitch": 76,
                "velocity": 127,
                "duration": 0.6409090909090907,
                "tempo": 120.0
            },
            {
                "start_time": 28.98181818181818,
                "end_time": 29.24090909090909,
                "pitch": 71,
                "velocity": 127,
                "duration": 0.25909090909090793,
                "tempo": 120.0
            },
            {
                "start_time": 29.295454545454543,
                "end_time": 29.554545454545455,
                "pitch": 64,
                "velocity": 127,
                "duration": 0.2590909090909115,
                "tempo": 120.0
            },
            {
                "start_time": 29.60909090909091,
                "end_time": 29.877272727272725,
                "pitch": 62,
                "velocity": 127,
                "duration": 0.26818181818181586,
                "tempo": 120.0
            },
            {
                "start_time": 29.93409090909091,
                "end_time": 30.195454545454545,
                "pitch": 60,
                "velocity": 127,
                "duration": 0.2613636363636367,
                "tempo": 120.0
            },
            {
                "start_time": 29.60909090909091,
                "end_time": 30.24772727272727,
                "pitch": 64,
                "velocity": 127,
                "duration": 0.6386363636363619,
                "tempo": 120.0
            },
            {
                "start_time": 30.24772727272727,
                "end_time": 30.509090909090908,
                "pitch": 59,
                "velocity": 127,
                "duration": 0.2613636363636367,
                "tempo": 120.0
            },
            {
                "start_time": 30.563636363636363,
                "end_time": 31.095454545454544,
                "pitch": 52,
                "velocity": 127,
                "duration": 0.5318181818181813,
                "tempo": 120.0
            },
            {
                "start_time": 31.202272727272724,
                "end_time": 31.722727272727273,
                "pitch": 52,
                "velocity": 127,
                "duration": 0.5204545454545482,
                "tempo": 120.0
            },
            {
                "start_time": 31.829545454545453,
                "end_time": 32.09772727272727,
                "pitch": 65,
                "velocity": 127,
                "duration": 0.26818181818181586,
                "tempo": 120.0
            },
            {
                "start_time": 30.24772727272727,
                "end_time": 32.413636363636364,
                "pitch": 64,
                "velocity": 127,
                "duration": 2.165909090909093,
                "tempo": 120.0
            },
            {
                "start_time": 32.154545454545456,
                "end_time": 32.413636363636364,
                "pitch": 64,
                "velocity": 127,
                "duration": 0.25909090909090793,
                "tempo": 120.0
            },
            {
                "start_time": 32.46818181818182,
                "end_time": 32.736363636363635,
                "pitch": 65,
                "velocity": 127,
                "duration": 0.26818181818181586,
                "tempo": 120.0
            },
            {
                "start_time": 32.793181818181814,
                "end_time": 33.05227272727272,
                "pitch": 68,
                "velocity": 127,
                "duration": 0.25909090909090793,
                "tempo": 120.0
            },
            {
                "start_time": 32.793181818181814,
                "end_time": 40.73181818181818,
                "pitch": 78,
                "velocity": 127,
                "duration": 7.938636363636363,
                "tempo": 120.0
            },
            {
                "start_time": 40.73181818181818,
                "end_time": 40.809090909090905,
                "pitch": 71,
                "velocity": 101,
                "duration": 0.07727272727272805,
                "tempo": 120.0
            },
            {
                "start_time": 40.83863636363636,
                "end_time": 40.918181818181814,
                "pitch": 68,
                "velocity": 101,
                "duration": 0.07954545454545325,
                "tempo": 120.0
            },
            {
                "start_time": 40.945454545454545,
                "end_time": 41.027272727272724,
                "pitch": 64,
                "velocity": 101,
                "duration": 0.08181818181817846,
                "tempo": 120.0
            },
            {
                "start_time": 40.73181818181818,
                "end_time": 41.054545454545455,
                "pitch": 78,
                "velocity": 101,
                "duration": 0.32272727272727764,
                "tempo": 120.0
            },
            {
                "start_time": 41.054545454545455,
                "end_time": 41.13181818181818,
                "pitch": 67,
                "velocity": 101,
                "duration": 0.07727272727272805,
                "tempo": 120.0
            },
            {
                "start_time": 41.15909090909091,
                "end_time": 41.236363636363635,
                "pitch": 65,
                "velocity": 101,
                "duration": 0.07727272727272805,
                "tempo": 120.0
            },
            {
                "start_time": 41.26363636363636,
                "end_time": 41.340909090909086,
                "pitch": 65,
                "velocity": 101,
                "duration": 0.07727272727272805,
                "tempo": 120.0
            },
            {
                "start_time": 41.054545454545455,
                "end_time": 41.36818181818182,
                "pitch": 78,
                "velocity": 101,
                "duration": 0.3136363636363626,
                "tempo": 120.0
            },
            {
                "start_time": 41.36818181818182,
                "end_time": 41.445454545454545,
                "pitch": 67,
                "velocity": 101,
                "duration": 0.07727272727272805,
                "tempo": 120.0
            },
            {
                "start_time": 41.15909090909091,
                "end_time": 41.47272727272727,
                "pitch": 0,
                "velocity": 101,
                "duration": 0.3136363636363626,
                "tempo": 120.0
            },
            {
                "start_time": 41.47272727272727,
                "end_time": 41.55,
                "pitch": 65,
                "velocity": 101,
                "duration": 0.07727272727272805,
                "tempo": 120.0
            },
            {
                "start_time": 41.57727272727273,
                "end_time": 41.65681818181818,
                "pitch": 65,
                "velocity": 101,
                "duration": 0.07954545454545325,
                "tempo": 120.0
            },
            {
                "start_time": 41.36818181818182,
                "end_time": 41.68181818181818,
                "pitch": 78,
                "velocity": 101,
                "duration": 0.3136363636363626,
                "tempo": 120.0
            },
            {
                "start_time": 41.68181818181818,
                "end_time": 41.76136363636363,
                "pitch": 68,
                "velocity": 101,
                "duration": 0.07954545454545325,
                "tempo": 120.0
            },
            {
                "start_time": 41.788636363636364,
                "end_time": 41.86590909090909,
                "pitch": 68,
                "velocity": 101,
                "duration": 0.07727272727272805,
                "tempo": 120.0
            },
            {
                "start_time": 41.47272727272727,
                "end_time": 41.893181818181816,
                "pitch": 0,
                "velocity": 101,
                "duration": 0.42045454545454675,
                "tempo": 120.0
            },
            {
                "start_time": 41.893181818181816,
                "end_time": 41.970454545454544,
                "pitch": 65,
                "velocity": 101,
                "duration": 0.07727272727272805,
                "tempo": 120.0
            },
            {
                "start_time": 41.68181818181818,
                "end_time": 41.99772727272727,
                "pitch": 78,
                "velocity": 101,
                "duration": 0.3159090909090878,
                "tempo": 120.0
            },
            {
                "start_time": 41.99772727272727,
                "end_time": 42.07727272727273,
                "pitch": 67,
                "velocity": 101,
                "duration": 0.07954545454546036,
                "tempo": 120.0
            },
            {
                "start_time": 41.893181818181816,
                "end_time": 42.10454545454545,
                "pitch": 0,
                "velocity": 101,
                "duration": 0.21136363636363598,
                "tempo": 120.0
            },
            {
                "start_time": 42.10454545454545,
                "end_time": 42.18636363636364,
                "pitch": 65,
                "velocity": 101,
                "duration": 0.08181818181818556,
                "tempo": 120.0
            },
            {
                "start_time": 42.21363636363636,
                "end_time": 42.293181818181814,
                "pitch": 65,
                "velocity": 101,
                "duration": 0.07954545454545325,
                "tempo": 120.0
            },
            {
                "start_time": 42.32272727272727,
                "end_time": 42.4,
                "pitch": 64,
                "velocity": 101,
                "duration": 0.07727272727272805,
                "tempo": 120.0
            },
            {
                "start_time": 42.425,
                "end_time": 42.50454545454545,
                "pitch": 65,
                "velocity": 101,
                "duration": 0.07954545454545325,
                "tempo": 120.0
            },
            {
                "start_time": 29.93409090909091,
                "end_time": 42.60909090909091,
                "pitch": 62,
                "velocity": 127,
                "duration": 12.675,
                "tempo": 120.0
            },
            {
                "start_time": 42.53181818181818,
                "end_time": 42.60909090909091,
                "pitch": 62,
                "velocity": 101,
                "duration": 0.07727272727272805,
                "tempo": 120.0
            },
            {
                "start_time": 42.53181818181818,
                "end_time": 42.715909090909086,
                "pitch": 64,
                "velocity": 101,
                "duration": 0.18409090909090509,
                "tempo": 120.0
            },
            {
                "start_time": 42.63636363636363,
                "end_time": 42.715909090909086,
                "pitch": 64,
                "velocity": 101,
                "duration": 0.07954545454545325,
                "tempo": 120.0
            },
            {
                "start_time": 42.63636363636363,
                "end_time": 42.824999999999996,
                "pitch": 62,
                "velocity": 101,
                "duration": 0.1886363636363626,
                "tempo": 120.0
            },
            {
                "start_time": 42.74318181818182,
                "end_time": 42.824999999999996,
                "pitch": 62,
                "velocity": 101,
                "duration": 0.08181818181817846,
                "tempo": 120.0
            },
            {
                "start_time": 42.85227272727273,
                "end_time": 42.93181818181818,
                "pitch": 60,
                "velocity": 101,
                "duration": 0.07954545454545325,
                "tempo": 120.0
            },
            {
                "start_time": 42.85227272727273,
                "end_time": 43.038636363636364,
                "pitch": 62,
                "velocity": 101,
                "duration": 0.1863636363636374,
                "tempo": 120.0
            },
            {
                "start_time": 42.961363636363636,
                "end_time": 43.038636363636364,
                "pitch": 62,
                "velocity": 101,
                "duration": 0.07727272727272805,
                "tempo": 120.0
            },
            {
                "start_time": 42.961363636363636,
                "end_time": 43.143181818181816,
                "pitch": 60,
                "velocity": 101,
                "duration": 0.18181818181817988,
                "tempo": 120.0
            },
            {
                "start_time": 43.06363636363636,
                "end_time": 43.143181818181816,
                "pitch": 60,
                "velocity": 101,
                "duration": 0.07954545454545325,
                "tempo": 120.0
            },
            {
                "start_time": 42.74318181818182,
                "end_time": 43.17045454545455,
                "pitch": 64,
                "velocity": 101,
                "duration": 0.42727272727272947,
                "tempo": 120.0
            },
            {
                "start_time": 43.17045454545455,
                "end_time": 43.24772727272727,
                "pitch": 59,
                "velocity": 101,
                "duration": 0.07727272727272094,
                "tempo": 120.0
            }
        ],
        "Church Organ": [
            {
                "start_time": 17.861363636363635,
                "end_time": 18.909090909090907,
                "pitch": 52,
                "velocity": 80,
                "duration": 1.047727272727272,
                "tempo": 120.0
            },
            {
                "start_time": 19.127272727272725,
                "end_time": 19.91590909090909,
                "pitch": 50,
                "velocity": 80,
                "duration": 0.788636363636364,
                "tempo": 120.0
            },
            {
                "start_time": 19.970454545454544,
                "end_time": 20.23409090909091,
                "pitch": 45,
                "velocity": 80,
                "duration": 0.26363636363636545,
                "tempo": 120.0
            },
            {
                "start_time": 20.29090909090909,
                "end_time": 21.454545454545453,
                "pitch": 48,
                "velocity": 80,
                "duration": 1.163636363636364,
                "tempo": 120.0
            },
            {
                "start_time": 19.127272727272725,
                "end_time": 21.670454545454543,
                "pitch": 52,
                "velocity": 80,
                "duration": 2.543181818181818,
                "tempo": 120.0
            },
            {
                "start_time": 21.670454545454543,
                "end_time": 22.193181818181817,
                "pitch": 47,
                "velocity": 80,
                "duration": 0.5227272727272734,
                "tempo": 120.0
            },
            {
                "start_time": 22.51590909090909,
                "end_time": 22.674999999999997,
                "pitch": 48,
                "velocity": 80,
                "duration": 0.1590909090909065,
                "tempo": 120.0
            },
            {
                "start_time": 22.729545454545452,
                "end_time": 22.884090909090908,
                "pitch": 50,
                "velocity": 80,
                "duration": 0.1545454545454561,
                "tempo": 120.0
            },
            {
                "start_time": 21.670454545454543,
                "end_time": 23.995454545454546,
                "pitch": 52,
                "velocity": 80,
                "duration": 2.325000000000003,
                "tempo": 120.0
            },
            {
                "start_time": 22.938636363636363,
                "end_time": 23.995454545454546,
                "pitch": 52,
                "velocity": 80,
                "duration": 1.0568181818181834,
                "tempo": 120.0
            },
            {
                "start_time": 22.938636363636363,
                "end_time": 25.0,
                "pitch": 50,
                "velocity": 80,
                "duration": 2.0613636363636374,
                "tempo": 120.0
            },
            {
                "start_time": 24.206818181818182,
                "end_time": 25.0,
                "pitch": 50,
                "velocity": 80,
                "duration": 0.793181818181818,
                "tempo": 120.0
            },
            {
                "start_time": 19.970454545454544,
                "end_time": 25.052272727272726,
                "pitch": 53,
                "velocity": 80,
                "duration": 5.081818181818182,
                "tempo": 120.0
            },
            {
                "start_time": 25.052272727272726,
                "end_time": 25.318181818181817,
                "pitch": 45,
                "velocity": 80,
                "duration": 0.26590909090909065,
                "tempo": 120.0
            },
            {
                "start_time": 20.29090909090909,
                "end_time": 25.375,
                "pitch": 19,
                "velocity": 80,
                "duration": 5.084090909090911,
                "tempo": 120.0
            },
            {
                "start_time": 22.729545454545452,
                "end_time": 26.54090909090909,
                "pitch": 48,
                "velocity": 80,
                "duration": 3.8113636363636374,
                "tempo": 120.0
            },
            {
                "start_time": 25.375,
                "end_time": 26.54090909090909,
                "pitch": 48,
                "velocity": 80,
                "duration": 1.1659090909090892,
                "tempo": 120.0
            },
            {
                "start_time": 24.206818181818182,
                "end_time": 26.75,
                "pitch": 52,
                "velocity": 80,
                "duration": 2.543181818181818,
                "tempo": 120.0
            },
            {
                "start_time": 26.75,
                "end_time": 27.80681818181818,
                "pitch": 47,
                "velocity": 80,
                "duration": 1.0568181818181799,
                "tempo": 120.0
            }
        ],
        "Harpsichord": [
            {
                "start_time": 28.01590909090909,
                "end_time": 28.177272727272726,
                "pitch": 64,
                "velocity": 101,
                "duration": 0.16136363636363527,
                "tempo": 120.0
            },
            {
                "start_time": 28.23181818181818,
                "end_time": 28.311363636363634,
                "pitch": 64,
                "velocity": 101,
                "duration": 0.07954545454545325,
                "tempo": 120.0
            },
            {
                "start_time": 28.33863636363636,
                "end_time": 28.418181818181818,
                "pitch": 64,
                "velocity": 101,
                "duration": 0.0795454545454568,
                "tempo": 120.0
            },
            {
                "start_time": 28.443181818181817,
                "end_time": 28.52272727272727,
                "pitch": 64,
                "velocity": 101,
                "duration": 0.07954545454545325,
                "tempo": 120.0
            },
            {
                "start_time": 28.549999999999997,
                "end_time": 28.627272727272725,
                "pitch": 64,
                "velocity": 101,
                "duration": 0.07727272727272805,
                "tempo": 120.0
            },
            {
                "start_time": 28.654545454545453,
                "end_time": 28.693181818181817,
                "pitch": 64,
                "velocity": 101,
                "duration": 0.038636363636364024,
                "tempo": 120.0
            },
            {
                "start_time": 28.706818181818182,
                "end_time": 28.74772727272727,
                "pitch": 65,
                "velocity": 101,
                "duration": 0.04090909090908923,
                "tempo": 120.0
            },
            {
                "start_time": 28.761363636363637,
                "end_time": 28.802272727272726,
                "pitch": 65,
                "velocity": 101,
                "duration": 0.04090909090908923,
                "tempo": 120.0
            },
            {
                "start_time": 28.815909090909088,
                "end_time": 28.85681818181818,
                "pitch": 65,
                "velocity": 101,
                "duration": 0.04090909090909278,
                "tempo": 120.0
            },
            {
                "start_time": 28.870454545454542,
                "end_time": 28.909090909090907,
                "pitch": 65,
                "velocity": 101,
                "duration": 0.038636363636364024,
                "tempo": 120.0
            },
            {
                "start_time": 28.922727272727272,
                "end_time": 28.96363636363636,
                "pitch": 65,
                "velocity": 101,
                "duration": 0.04090909090908923,
                "tempo": 120.0
            },
            {
                "start_time": 28.977272727272727,
                "end_time": 29.018181818181816,
                "pitch": 65,
                "velocity": 101,
                "duration": 0.04090909090908923,
                "tempo": 120.0
            },
            {
                "start_time": 29.029545454545453,
                "end_time": 29.070454545454545,
                "pitch": 65,
                "velocity": 101,
                "duration": 0.04090909090909278,
                "tempo": 120.0
            },
            {
                "start_time": 29.081818181818182,
                "end_time": 29.12272727272727,
                "pitch": 65,
                "velocity": 101,
                "duration": 0.04090909090908923,
                "tempo": 120.0
            },
            {
                "start_time": 29.134090909090908,
                "end_time": 29.174999999999997,
                "pitch": 65,
                "velocity": 101,
                "duration": 0.04090909090908923,
                "tempo": 120.0
            },
            {
                "start_time": 29.188636363636363,
                "end_time": 29.227272727272727,
                "pitch": 65,
                "velocity": 101,
                "duration": 0.038636363636364024,
                "tempo": 120.0
            },
            {
                "start_time": 29.24090909090909,
                "end_time": 29.279545454545453,
                "pitch": 65,
                "velocity": 101,
                "duration": 0.038636363636364024,
                "tempo": 120.0
            },
            {
                "start_time": 29.293181818181818,
                "end_time": 29.45,
                "pitch": 65,
                "velocity": 101,
                "duration": 0.1568181818181813,
                "tempo": 120.0
            },
            {
                "start_time": 29.502272727272725,
                "end_time": 29.579545454545453,
                "pitch": 64,
                "velocity": 101,
                "duration": 0.07727272727272805,
                "tempo": 120.0
            },
            {
                "start_time": 29.60681818181818,
                "end_time": 29.686363636363634,
                "pitch": 64,
                "velocity": 101,
                "duration": 0.07954545454545325,
                "tempo": 120.0
            },
            {
                "start_time": 29.71363636363636,
                "end_time": 29.795454545454543,
                "pitch": 64,
                "velocity": 101,
                "duration": 0.08181818181818201,
                "tempo": 120.0
            },
            {
                "start_time": 29.82272727272727,
                "end_time": 29.904545454545453,
                "pitch": 64,
                "velocity": 101,
                "duration": 0.08181818181818201,
                "tempo": 120.0
            },
            {
                "start_time": 29.93181818181818,
                "end_time": 29.970454545454544,
                "pitch": 64,
                "velocity": 101,
                "duration": 0.038636363636364024,
                "tempo": 120.0
            },
            {
                "start_time": 29.98409090909091,
                "end_time": 30.02272727272727,
                "pitch": 65,
                "velocity": 101,
                "duration": 0.03863636363636047,
                "tempo": 120.0
            },
            {
                "start_time": 30.036363636363635,
                "end_time": 30.075,
                "pitch": 65,
                "velocity": 101,
                "duration": 0.038636363636364024,
                "tempo": 120.0
            },
            {
                "start_time": 30.08863636363636,
                "end_time": 30.127272727272725,
                "pitch": 65,
                "velocity": 101,
                "duration": 0.038636363636364024,
                "tempo": 120.0
            },
            {
                "start_time": 30.14090909090909,
                "end_time": 30.179545454545455,
                "pitch": 65,
                "velocity": 101,
                "duration": 0.038636363636364024,
                "tempo": 120.0
            },
            {
                "start_time": 30.193181818181817,
                "end_time": 30.23181818181818,
                "pitch": 65,
                "velocity": 101,
                "duration": 0.038636363636364024,
                "tempo": 120.0
            },
            {
                "start_time": 30.245454545454542,
                "end_time": 30.284090909090907,
                "pitch": 65,
                "velocity": 101,
                "duration": 0.038636363636364024,
                "tempo": 120.0
            },
            {
                "start_time": 30.297727272727272,
                "end_time": 30.336363636363636,
                "pitch": 65,
                "velocity": 101,
                "duration": 0.038636363636364024,
                "tempo": 120.0
            },
            {
                "start_time": 30.349999999999998,
                "end_time": 30.388636363636362,
                "pitch": 65,
                "velocity": 101,
                "duration": 0.038636363636364024,
                "tempo": 120.0
            },
            {
                "start_time": 30.402272727272727,
                "end_time": 30.440909090909088,
                "pitch": 65,
                "velocity": 101,
                "duration": 0.03863636363636047,
                "tempo": 120.0
            },
            {
                "start_time": 30.454545454545453,
                "end_time": 30.493181818181817,
                "pitch": 65,
                "velocity": 101,
                "duration": 0.038636363636364024,
                "tempo": 120.0
            },
            {
                "start_time": 30.50681818181818,
                "end_time": 30.545454545454543,
                "pitch": 65,
                "velocity": 101,
                "duration": 0.038636363636364024,
                "tempo": 120.0
            },
            {
                "start_time": 33.10454545454545,
                "end_time": 33.28636363636363,
                "pitch": 57,
                "velocity": 101,
                "duration": 0.18181818181817988,
                "tempo": 120.0
            },
            {
                "start_time": 33.31363636363636,
                "end_time": 33.393181818181816,
                "pitch": 58,
                "velocity": 101,
                "duration": 0.07954545454545325,
                "tempo": 120.0
            },
            {
                "start_time": 33.418181818181814,
                "end_time": 33.5,
                "pitch": 58,
                "velocity": 101,
                "duration": 0.08181818181818556,
                "tempo": 120.0
            },
            {
                "start_time": 33.527272727272724,
                "end_time": 33.60681818181818,
                "pitch": 58,
                "velocity": 101,
                "duration": 0.07954545454545325,
                "tempo": 120.0
            },
            {
                "start_time": 33.63409090909091,
                "end_time": 33.715909090909086,
                "pitch": 58,
                "velocity": 101,
                "duration": 0.08181818181817846,
                "tempo": 120.0
            },
            {
                "start_time": 33.74318181818182,
                "end_time": 33.78181818181818,
                "pitch": 58,
                "velocity": 101,
                "duration": 0.038636363636364024,
                "tempo": 120.0
            },
            {
                "start_time": 33.79545454545455,
                "end_time": 33.83409090909091,
                "pitch": 59,
                "velocity": 101,
                "duration": 0.038636363636364024,
                "tempo": 120.0
            },
            {
                "start_time": 33.84772727272727,
                "end_time": 33.88636363636363,
                "pitch": 59,
                "velocity": 101,
                "duration": 0.038636363636364024,
                "tempo": 120.0
            },
            {
                "start_time": 33.9,
                "end_time": 33.93863636363636,
                "pitch": 59,
                "velocity": 101,
                "duration": 0.038636363636364024,
                "tempo": 120.0
            },
            {
                "start_time": 33.95227272727273,
                "end_time": 33.99090909090909,
                "pitch": 59,
                "velocity": 101,
                "duration": 0.038636363636364024,
                "tempo": 120.0
            },
            {
                "start_time": 34.00454545454545,
                "end_time": 34.043181818181814,
                "pitch": 59,
                "velocity": 101,
                "duration": 0.038636363636364024,
                "tempo": 120.0
            },
            {
                "start_time": 34.05681818181818,
                "end_time": 34.095454545454544,
                "pitch": 59,
                "velocity": 101,
                "duration": 0.038636363636364024,
                "tempo": 120.0
            },
            {
                "start_time": 34.10909090909091,
                "end_time": 34.14772727272727,
                "pitch": 59,
                "velocity": 101,
                "duration": 0.038636363636364024,
                "tempo": 120.0
            },
            {
                "start_time": 34.16136363636363,
                "end_time": 34.199999999999996,
                "pitch": 59,
                "velocity": 101,
                "duration": 0.038636363636364024,
                "tempo": 120.0
            },
            {
                "start_time": 34.21363636363636,
                "end_time": 34.252272727272725,
                "pitch": 59,
                "velocity": 101,
                "duration": 0.038636363636364024,
                "tempo": 120.0
            },
            {
                "start_time": 34.26590909090909,
                "end_time": 34.30681818181818,
                "pitch": 59,
                "velocity": 101,
                "duration": 0.04090909090908923,
                "tempo": 120.0
            },
            {
                "start_time": 34.31818181818181,
                "end_time": 34.35909090909091,
                "pitch": 59,
                "velocity": 101,
                "duration": 0.040909090909096335,
                "tempo": 120.0
            },
            {
                "start_time": 34.37272727272727,
                "end_time": 34.554545454545455,
                "pitch": 59,
                "velocity": 101,
                "duration": 0.18181818181818699,
                "tempo": 120.0
            },
            {
                "start_time": 34.58181818181818,
                "end_time": 34.65909090909091,
                "pitch": 58,
                "velocity": 101,
                "duration": 0.07727272727272805,
                "tempo": 120.0
            },
            {
                "start_time": 34.68636363636364,
                "end_time": 34.76590909090909,
                "pitch": 58,
                "velocity": 101,
                "duration": 0.07954545454545325,
                "tempo": 120.0
            },
            {
                "start_time": 34.793181818181814,
                "end_time": 34.875,
                "pitch": 58,
                "velocity": 101,
                "duration": 0.08181818181818556,
                "tempo": 120.0
            },
            {
                "start_time": 34.902272727272724,
                "end_time": 34.98181818181818,
                "pitch": 58,
                "velocity": 101,
                "duration": 0.07954545454545325,
                "tempo": 120.0
            },
            {
                "start_time": 35.00909090909091,
                "end_time": 35.05,
                "pitch": 58,
                "velocity": 101,
                "duration": 0.04090909090908923,
                "tempo": 120.0
            },
            {
                "start_time": 35.06136363636364,
                "end_time": 35.10227272727273,
                "pitch": 59,
                "velocity": 101,
                "duration": 0.04090909090908923,
                "tempo": 120.0
            },
            {
                "start_time": 35.11590909090909,
                "end_time": 35.154545454545456,
                "pitch": 59,
                "velocity": 101,
                "duration": 0.038636363636364024,
                "tempo": 120.0
            },
            {
                "start_time": 35.168181818181814,
                "end_time": 35.20681818181818,
                "pitch": 59,
                "velocity": 101,
                "duration": 0.038636363636364024,
                "tempo": 120.0
            },
            {
                "start_time": 35.220454545454544,
                "end_time": 35.25909090909091,
                "pitch": 59,
                "velocity": 101,
                "duration": 0.038636363636364024,
                "tempo": 120.0
            },
            {
                "start_time": 35.27272727272727,
                "end_time": 35.31136363636364,
                "pitch": 59,
                "velocity": 101,
                "duration": 0.038636363636364024,
                "tempo": 120.0
            },
            {
                "start_time": 35.324999999999996,
                "end_time": 35.36363636363636,
                "pitch": 59,
                "velocity": 101,
                "duration": 0.038636363636364024,
                "tempo": 120.0
            },
            {
                "start_time": 35.377272727272725,
                "end_time": 35.418181818181814,
                "pitch": 59,
                "velocity": 101,
                "duration": 0.04090909090908923,
                "tempo": 120.0
            },
            {
                "start_time": 35.43181818181818,
                "end_time": 35.47272727272727,
                "pitch": 59,
                "velocity": 101,
                "duration": 0.04090909090908923,
                "tempo": 120.0
            },
            {
                "start_time": 35.486363636363635,
                "end_time": 35.527272727272724,
                "pitch": 59,
                "velocity": 101,
                "duration": 0.04090909090908923,
                "tempo": 120.0
            },
            {
                "start_time": 35.54090909090909,
                "end_time": 35.58181818181818,
                "pitch": 59,
                "velocity": 101,
                "duration": 0.04090909090908923,
                "tempo": 120.0
            },
            {
                "start_time": 35.595454545454544,
                "end_time": 35.63409090909091,
                "pitch": 59,
                "velocity": 101,
                "duration": 0.038636363636364024,
                "tempo": 120.0
            }
        ],
        "Electric Piano 1": [
            {
                "start_time": 30.561363636363634,
                "end_time": 30.64090909090909,
                "pitch": 41,
                "velocity": 127,
                "duration": 0.0795454545454568,
                "tempo": 120.0
            },
            {
                "start_time": 30.668181818181818,
                "end_time": 30.74772727272727,
                "pitch": 40,
                "velocity": 127,
                "duration": 0.07954545454545325,
                "tempo": 120.0
            },
            {
                "start_time": 30.775,
                "end_time": 30.85681818181818,
                "pitch": 41,
                "velocity": 127,
                "duration": 0.08181818181818201,
                "tempo": 120.0
            },
            {
                "start_time": 30.884090909090908,
                "end_time": 30.961363636363636,
                "pitch": 43,
                "velocity": 127,
                "duration": 0.07727272727272805,
                "tempo": 120.0
            },
            {
                "start_time": 30.988636363636363,
                "end_time": 31.068181818181817,
                "pitch": 38,
                "velocity": 127,
                "duration": 0.07954545454545325,
                "tempo": 120.0
            },
            {
                "start_time": 31.093181818181815,
                "end_time": 31.172727272727272,
                "pitch": 40,
                "velocity": 127,
                "duration": 0.0795454545454568,
                "tempo": 120.0
            },
            {
                "start_time": 31.19772727272727,
                "end_time": 31.277272727272727,
                "pitch": 40,
                "velocity": 127,
                "duration": 0.0795454545454568,
                "tempo": 120.0
            },
            {
                "start_time": 31.302272727272726,
                "end_time": 31.38181818181818,
                "pitch": 40,
                "velocity": 127,
                "duration": 0.07954545454545325,
                "tempo": 120.0
            },
            {
                "start_time": 31.40681818181818,
                "end_time": 31.486363636363635,
                "pitch": 41,
                "velocity": 127,
                "duration": 0.07954545454545325,
                "tempo": 120.0
            },
            {
                "start_time": 30.884090909090908,
                "end_time": 31.513636363636362,
                "pitch": 54,
                "velocity": 127,
                "duration": 0.629545454545454,
                "tempo": 120.0
            },
            {
                "start_time": 31.513636363636362,
                "end_time": 31.59090909090909,
                "pitch": 43,
                "velocity": 127,
                "duration": 0.07727272727272805,
                "tempo": 120.0
            },
            {
                "start_time": 30.988636363636363,
                "end_time": 31.618181818181817,
                "pitch": 0,
                "velocity": 127,
                "duration": 0.629545454545454,
                "tempo": 120.0
            },
            {
                "start_time": 31.093181818181815,
                "end_time": 31.695454545454545,
                "pitch": 38,
                "velocity": 127,
                "duration": 0.6022727272727302,
                "tempo": 120.0
            },
            {
                "start_time": 31.618181818181817,
                "end_time": 31.695454545454545,
                "pitch": 38,
                "velocity": 127,
                "duration": 0.07727272727272805,
                "tempo": 120.0
            },
            {
                "start_time": 31.722727272727273,
                "end_time": 31.799999999999997,
                "pitch": 40,
                "velocity": 127,
                "duration": 0.0772727272727245,
                "tempo": 120.0
            },
            {
                "start_time": 31.722727272727273,
                "end_time": 31.90681818181818,
                "pitch": 38,
                "velocity": 127,
                "duration": 0.18409090909090864,
                "tempo": 120.0
            },
            {
                "start_time": 31.827272727272724,
                "end_time": 31.90681818181818,
                "pitch": 38,
                "velocity": 127,
                "duration": 0.0795454545454568,
                "tempo": 120.0
            },
            {
                "start_time": 31.827272727272724,
                "end_time": 32.01590909090909,
                "pitch": 40,
                "velocity": 127,
                "duration": 0.18863636363636616,
                "tempo": 120.0
            },
            {
                "start_time": 31.93409090909091,
                "end_time": 32.01590909090909,
                "pitch": 40,
                "velocity": 127,
                "duration": 0.08181818181818201,
                "tempo": 120.0
            },
            {
                "start_time": 31.93409090909091,
                "end_time": 32.12272727272727,
                "pitch": 38,
                "velocity": 127,
                "duration": 0.18863636363635905,
                "tempo": 120.0
            },
            {
                "start_time": 32.043181818181814,
                "end_time": 32.12272727272727,
                "pitch": 38,
                "velocity": 127,
                "duration": 0.07954545454545325,
                "tempo": 120.0
            },
            {
                "start_time": 32.15,
                "end_time": 32.152272727272724,
                "pitch": 38,
                "velocity": 127,
                "duration": 0.0022727272727252057,
                "tempo": 120.0
            },
            {
                "start_time": 32.152272727272724,
                "end_time": 32.22954545454545,
                "pitch": 41,
                "velocity": 127,
                "duration": 0.07727272727272805,
                "tempo": 120.0
            },
            {
                "start_time": 32.25681818181818,
                "end_time": 32.33409090909091,
                "pitch": 41,
                "velocity": 127,
                "duration": 0.07727272727272805,
                "tempo": 120.0
            },
            {
                "start_time": 32.043181818181814,
                "end_time": 32.43863636363636,
                "pitch": 40,
                "velocity": 127,
                "duration": 0.39545454545454817,
                "tempo": 120.0
            },
            {
                "start_time": 32.361363636363635,
                "end_time": 32.43863636363636,
                "pitch": 40,
                "velocity": 127,
                "duration": 0.07727272727272805,
                "tempo": 120.0
            },
            {
                "start_time": 31.513636363636362,
                "end_time": 32.465909090909086,
                "pitch": 54,
                "velocity": 127,
                "duration": 0.9522727272727245,
                "tempo": 120.0
            },
            {
                "start_time": 32.465909090909086,
                "end_time": 32.54545454545455,
                "pitch": 44,
                "velocity": 127,
                "duration": 0.07954545454546036,
                "tempo": 120.0
            },
            {
                "start_time": 32.465909090909086,
                "end_time": 32.68181818181818,
                "pitch": 54,
                "velocity": 127,
                "duration": 0.2159090909090935,
                "tempo": 120.0
            },
            {
                "start_time": 32.68181818181818,
                "end_time": 32.76136363636363,
                "pitch": 44,
                "velocity": 127,
                "duration": 0.07954545454545325,
                "tempo": 120.0
            },
            {
                "start_time": 32.788636363636364,
                "end_time": 32.86818181818182,
                "pitch": 44,
                "velocity": 127,
                "duration": 0.07954545454545325,
                "tempo": 120.0
            },
            {
                "start_time": 32.89545454545454,
                "end_time": 32.97272727272727,
                "pitch": 45,
                "velocity": 127,
                "duration": 0.07727272727272805,
                "tempo": 120.0
            },
            {
                "start_time": 33.0,
                "end_time": 33.07727272727273,
                "pitch": 44,
                "velocity": 127,
                "duration": 0.07727272727272805,
                "tempo": 120.0
            }
        ],
        "Electric Guitar (clean)": [
            {
                "start_time": 0.05454545454545454,
                "end_time": 0.23636363636363636,
                "pitch": 28,
                "velocity": 127,
                "duration": 0.18181818181818182,
                "tempo": 120.0
            },
            {
                "start_time": 0.2636363636363636,
                "end_time": 0.34318181818181814,
                "pitch": 28,
                "velocity": 127,
                "duration": 0.07954545454545453,
                "tempo": 120.0
            },
            {
                "start_time": 1.018181818181818,
                "end_time": 1.2,
                "pitch": 28,
                "velocity": 127,
                "duration": 0.18181818181818188,
                "tempo": 120.0
            },
            {
                "start_time": 1.2272727272727273,
                "end_time": 1.3045454545454545,
                "pitch": 28,
                "velocity": 127,
                "duration": 0.07727272727272716,
                "tempo": 120.0
            },
            {
                "start_time": 1.3318181818181818,
                "end_time": 1.5204545454545453,
                "pitch": 28,
                "velocity": 127,
                "duration": 0.1886363636363635,
                "tempo": 120.0
            },
            {
                "start_time": 1.5477272727272726,
                "end_time": 1.6295454545454544,
                "pitch": 28,
                "velocity": 127,
                "duration": 0.08181818181818179,
                "tempo": 120.0
            },
            {
                "start_time": 2.6,
                "end_time": 2.7818181818181817,
                "pitch": 28,
                "velocity": 127,
                "duration": 0.18181818181818166,
                "tempo": 120.0
            },
            {
                "start_time": 2.809090909090909,
                "end_time": 2.8863636363636362,
                "pitch": 28,
                "velocity": 127,
                "duration": 0.07727272727272716,
                "tempo": 120.0
            },
            {
                "start_time": 3.5522727272727272,
                "end_time": 3.734090909090909,
                "pitch": 28,
                "velocity": 127,
                "duration": 0.18181818181818166,
                "tempo": 120.0
            },
            {
                "start_time": 3.7613636363636362,
                "end_time": 3.840909090909091,
                "pitch": 28,
                "velocity": 127,
                "duration": 0.07954545454545459,
                "tempo": 120.0
            },
            {
                "start_time": 3.8659090909090907,
                "end_time": 4.054545454545455,
                "pitch": 28,
                "velocity": 127,
                "duration": 0.18863636363636394,
                "tempo": 120.0
            },
            {
                "start_time": 4.081818181818182,
                "end_time": 4.163636363636363,
                "pitch": 28,
                "velocity": 127,
                "duration": 0.08181818181818112,
                "tempo": 120.0
            },
            {
                "start_time": 5.143181818181818,
                "end_time": 5.1454545454545455,
                "pitch": 42,
                "velocity": 127,
                "duration": 0.0022727272727278702,
                "tempo": 120.0
            },
            {
                "start_time": 5.1454545454545455,
                "end_time": 5.331818181818181,
                "pitch": 33,
                "velocity": 127,
                "duration": 0.18636363636363562,
                "tempo": 120.0
            },
            {
                "start_time": 5.3590909090909085,
                "end_time": 5.4409090909090905,
                "pitch": 33,
                "velocity": 127,
                "duration": 0.08181818181818201,
                "tempo": 120.0
            },
            {
                "start_time": 5.468181818181818,
                "end_time": 5.545454545454545,
                "pitch": 45,
                "velocity": 127,
                "duration": 0.07727272727272716,
                "tempo": 120.0
            },
            {
                "start_time": 5.572727272727272,
                "end_time": 5.652272727272727,
                "pitch": 40,
                "velocity": 127,
                "duration": 0.07954545454545503,
                "tempo": 120.0
            },
            {
                "start_time": 5.677272727272727,
                "end_time": 5.756818181818182,
                "pitch": 43,
                "velocity": 127,
                "duration": 0.07954545454545503,
                "tempo": 120.0
            },
            {
                "start_time": 5.781818181818181,
                "end_time": 5.965909090909091,
                "pitch": 33,
                "velocity": 127,
                "duration": 0.18409090909090953,
                "tempo": 120.0
            },
            {
                "start_time": 5.99090909090909,
                "end_time": 6.070454545454545,
                "pitch": 33,
                "velocity": 127,
                "duration": 0.07954545454545503,
                "tempo": 120.0
            },
            {
                "start_time": 6.097727272727273,
                "end_time": 6.175,
                "pitch": 43,
                "velocity": 127,
                "duration": 0.07727272727272716,
                "tempo": 120.0
            },
            {
                "start_time": 0.05454545454545454,
                "end_time": 6.202272727272727,
                "pitch": 0,
                "velocity": 127,
                "duration": 6.1477272727272725,
                "tempo": 120.0
            },
            {
                "start_time": 6.202272727272727,
                "end_time": 6.279545454545454,
                "pitch": 38,
                "velocity": 127,
                "duration": 0.07727272727272716,
                "tempo": 120.0
            },
            {
                "start_time": 6.306818181818182,
                "end_time": 6.384090909090909,
                "pitch": 41,
                "velocity": 127,
                "duration": 0.07727272727272716,
                "tempo": 120.0
            },
            {
                "start_time": 6.411363636363636,
                "end_time": 6.6,
                "pitch": 33,
                "velocity": 127,
                "duration": 0.1886363636363635,
                "tempo": 120.0
            },
            {
                "start_time": 6.627272727272727,
                "end_time": 6.706818181818181,
                "pitch": 33,
                "velocity": 127,
                "duration": 0.07954545454545414,
                "tempo": 120.0
            },
            {
                "start_time": 5.572727272727272,
                "end_time": 6.736363636363636,
                "pitch": 7,
                "velocity": 127,
                "duration": 1.163636363636364,
                "tempo": 120.0
            },
            {
                "start_time": 6.736363636363636,
                "end_time": 6.997727272727272,
                "pitch": 41,
                "velocity": 127,
                "duration": 0.2613636363636358,
                "tempo": 120.0
            },
            {
                "start_time": 6.306818181818182,
                "end_time": 7.311363636363636,
                "pitch": 38,
                "velocity": 127,
                "duration": 1.004545454545454,
                "tempo": 120.0
            },
            {
                "start_time": 7.05,
                "end_time": 7.311363636363636,
                "pitch": 38,
                "velocity": 127,
                "duration": 0.2613636363636358,
                "tempo": 120.0
            },
            {
                "start_time": 7.363636363636363,
                "end_time": 7.634090909090909,
                "pitch": 40,
                "velocity": 127,
                "duration": 0.2704545454545455,
                "tempo": 120.0
            },
            {
                "start_time": 6.411363636363636,
                "end_time": 7.6886363636363635,
                "pitch": 42,
                "velocity": 127,
                "duration": 1.2772727272727273,
                "tempo": 120.0
            },
            {
                "start_time": 7.6886363636363635,
                "end_time": 7.870454545454545,
                "pitch": 33,
                "velocity": 127,
                "duration": 0.18181818181818166,
                "tempo": 120.0
            },
            {
                "start_time": 7.8977272727272725,
                "end_time": 7.977272727272727,
                "pitch": 33,
                "velocity": 127,
                "duration": 0.07954545454545414,
                "tempo": 120.0
            },
            {
                "start_time": 6.097727272727273,
                "end_time": 8.081818181818182,
                "pitch": 45,
                "velocity": 127,
                "duration": 1.9840909090909093,
                "tempo": 120.0
            },
            {
                "start_time": 8.002272727272727,
                "end_time": 8.081818181818182,
                "pitch": 45,
                "velocity": 127,
                "duration": 0.07954545454545503,
                "tempo": 120.0
            },
            {
                "start_time": 6.736363636363636,
                "end_time": 8.10681818181818,
                "pitch": 7,
                "velocity": 127,
                "duration": 1.3704545454545443,
                "tempo": 120.0
            },
            {
                "start_time": 8.10681818181818,
                "end_time": 8.186363636363636,
                "pitch": 40,
                "velocity": 127,
                "duration": 0.07954545454545503,
                "tempo": 120.0
            },
            {
                "start_time": 5.677272727272727,
                "end_time": 8.211363636363636,
                "pitch": 54,
                "velocity": 127,
                "duration": 2.534090909090909,
                "tempo": 120.0
            },
            {
                "start_time": 8.211363636363636,
                "end_time": 8.290909090909091,
                "pitch": 43,
                "velocity": 127,
                "duration": 0.07954545454545503,
                "tempo": 120.0
            },
            {
                "start_time": 5.781818181818181,
                "end_time": 8.318181818181818,
                "pitch": 31,
                "velocity": 127,
                "duration": 2.536363636363637,
                "tempo": 120.0
            },
            {
                "start_time": 8.315909090909091,
                "end_time": 8.318181818181818,
                "pitch": 31,
                "velocity": 127,
                "duration": 0.002272727272726982,
                "tempo": 120.0
            },
            {
                "start_time": 8.318181818181818,
                "end_time": 8.506818181818181,
                "pitch": 33,
                "velocity": 127,
                "duration": 0.1886363636363626,
                "tempo": 120.0
            },
            {
                "start_time": 8.531818181818181,
                "end_time": 8.613636363636363,
                "pitch": 33,
                "velocity": 127,
                "duration": 0.08181818181818201,
                "tempo": 120.0
            },
            {
                "start_time": 8.64090909090909,
                "end_time": 8.720454545454546,
                "pitch": 43,
                "velocity": 127,
                "duration": 0.07954545454545503,
                "tempo": 120.0
            },
            {
                "start_time": 6.202272727272727,
                "end_time": 8.745454545454544,
                "pitch": 0,
                "velocity": 127,
                "duration": 2.543181818181817,
                "tempo": 120.0
            },
            {
                "start_time": 7.363636363636363,
                "end_time": 8.825,
                "pitch": 38,
                "velocity": 127,
                "duration": 1.461363636363636,
                "tempo": 120.0
            },
            {
                "start_time": 8.745454545454544,
                "end_time": 8.825,
                "pitch": 38,
                "velocity": 127,
                "duration": 0.07954545454545503,
                "tempo": 120.0
            },
            {
                "start_time": 7.05,
                "end_time": 8.929545454545455,
                "pitch": 41,
                "velocity": 127,
                "duration": 1.8795454545454549,
                "tempo": 120.0
            },
            {
                "start_time": 8.85,
                "end_time": 8.929545454545455,
                "pitch": 41,
                "velocity": 127,
                "duration": 0.07954545454545503,
                "tempo": 120.0
            },
            {
                "start_time": 7.6886363636363635,
                "end_time": 8.956818181818182,
                "pitch": 42,
                "velocity": 127,
                "duration": 1.2681818181818185,
                "tempo": 120.0
            },
            {
                "start_time": 8.956818181818182,
                "end_time": 9.143181818181818,
                "pitch": 33,
                "velocity": 127,
                "duration": 0.18636363636363562,
                "tempo": 120.0
            },
            {
                "start_time": 9.170454545454545,
                "end_time": 9.252272727272727,
                "pitch": 33,
                "velocity": 127,
                "duration": 0.08181818181818201,
                "tempo": 120.0
            },
            {
                "start_time": 8.10681818181818,
                "end_time": 9.279545454545454,
                "pitch": 7,
                "velocity": 127,
                "duration": 1.1727272727272737,
                "tempo": 120.0
            },
            {
                "start_time": 9.279545454545454,
                "end_time": 9.540909090909091,
                "pitch": 41,
                "velocity": 127,
                "duration": 0.2613636363636367,
                "tempo": 120.0
            },
            {
                "start_time": 9.593181818181817,
                "end_time": 9.595454545454546,
                "pitch": 41,
                "velocity": 127,
                "duration": 0.0022727272727287584,
                "tempo": 120.0
            },
            {
                "start_time": 8.85,
                "end_time": 9.85681818181818,
                "pitch": 38,
                "velocity": 127,
                "duration": 1.006818181818181,
                "tempo": 120.0
            },
            {
                "start_time": 9.595454545454546,
                "end_time": 9.85681818181818,
                "pitch": 38,
                "velocity": 127,
                "duration": 0.2613636363636349,
                "tempo": 120.0
            },
            {
                "start_time": 9.909090909090908,
                "end_time": 10.177272727272726,
                "pitch": 40,
                "velocity": 127,
                "duration": 0.26818181818181763,
                "tempo": 120.0
            },
            {
                "start_time": 8.956818181818182,
                "end_time": 10.23409090909091,
                "pitch": 42,
                "velocity": 127,
                "duration": 1.2772727272727273,
                "tempo": 120.0
            },
            {
                "start_time": 10.23409090909091,
                "end_time": 10.415909090909091,
                "pitch": 33,
                "velocity": 127,
                "duration": 0.18181818181818166,
                "tempo": 120.0
            },
            {
                "start_time": 10.443181818181818,
                "end_time": 10.520454545454545,
                "pitch": 33,
                "velocity": 127,
                "duration": 0.07727272727272627,
                "tempo": 120.0
            },
            {
                "start_time": 8.64090909090909,
                "end_time": 10.625,
                "pitch": 45,
                "velocity": 127,
                "duration": 1.9840909090909093,
                "tempo": 120.0
            },
            {
                "start_time": 10.547727272727272,
                "end_time": 10.625,
                "pitch": 45,
                "velocity": 127,
                "duration": 0.07727272727272805,
                "tempo": 120.0
            },
            {
                "start_time": 9.279545454545454,
                "end_time": 10.652272727272727,
                "pitch": 7,
                "velocity": 127,
                "duration": 1.372727272727273,
                "tempo": 120.0
            },
            {
                "start_time": 10.652272727272727,
                "end_time": 10.729545454545454,
                "pitch": 40,
                "velocity": 127,
                "duration": 0.07727272727272627,
                "tempo": 120.0
            },
            {
                "start_time": 8.211363636363636,
                "end_time": 10.756818181818181,
                "pitch": 54,
                "velocity": 127,
                "duration": 2.545454545454545,
                "tempo": 120.0
            },
            {
                "start_time": 10.756818181818181,
                "end_time": 10.836363636363636,
                "pitch": 43,
                "velocity": 127,
                "duration": 0.07954545454545503,
                "tempo": 120.0
            },
            {
                "start_time": 10.861363636363636,
                "end_time": 11.045454545454545,
                "pitch": 33,
                "velocity": 127,
                "duration": 0.18409090909090864,
                "tempo": 120.0
            },
            {
                "start_time": 11.070454545454545,
                "end_time": 11.149999999999999,
                "pitch": 33,
                "velocity": 127,
                "duration": 0.07954545454545325,
                "tempo": 120.0
            },
            {
                "start_time": 11.177272727272726,
                "end_time": 11.256818181818181,
                "pitch": 43,
                "velocity": 127,
                "duration": 0.07954545454545503,
                "tempo": 120.0
            },
            {
                "start_time": 8.745454545454544,
                "end_time": 11.284090909090908,
                "pitch": 0,
                "velocity": 127,
                "duration": 2.538636363636364,
                "tempo": 120.0
            },
            {
                "start_time": 9.909090909090908,
                "end_time": 11.363636363636363,
                "pitch": 38,
                "velocity": 127,
                "duration": 1.454545454545455,
                "tempo": 120.0
            },
            {
                "start_time": 11.284090909090908,
                "end_time": 11.363636363636363,
                "pitch": 38,
                "velocity": 127,
                "duration": 0.07954545454545503,
                "tempo": 120.0
            },
            {
                "start_time": 11.393181818181818,
                "end_time": 11.472727272727273,
                "pitch": 41,
                "velocity": 127,
                "duration": 0.07954545454545503,
                "tempo": 120.0
            },
            {
                "start_time": 10.23409090909091,
                "end_time": 11.5,
                "pitch": 42,
                "velocity": 127,
                "duration": 1.2659090909090907,
                "tempo": 120.0
            },
            {
                "start_time": 11.5,
                "end_time": 11.684090909090909,
                "pitch": 33,
                "velocity": 127,
                "duration": 0.18409090909090864,
                "tempo": 120.0
            },
            {
                "start_time": 11.709090909090909,
                "end_time": 11.788636363636362,
                "pitch": 33,
                "velocity": 127,
                "duration": 0.07954545454545325,
                "tempo": 120.0
            },
            {
                "start_time": 10.652272727272727,
                "end_time": 11.81590909090909,
                "pitch": 7,
                "velocity": 127,
                "duration": 1.1636363636363622,
                "tempo": 120.0
            },
            {
                "start_time": 11.81590909090909,
                "end_time": 12.084090909090909,
                "pitch": 41,
                "velocity": 127,
                "duration": 0.2681818181818194,
                "tempo": 120.0
            },
            {
                "start_time": 11.393181818181818,
                "end_time": 12.399999999999999,
                "pitch": 38,
                "velocity": 127,
                "duration": 1.006818181818181,
                "tempo": 120.0
            },
            {
                "start_time": 12.138636363636364,
                "end_time": 12.399999999999999,
                "pitch": 38,
                "velocity": 127,
                "duration": 0.2613636363636349,
                "tempo": 120.0
            },
            {
                "start_time": 12.454545454545453,
                "end_time": 12.71590909090909,
                "pitch": 40,
                "velocity": 127,
                "duration": 0.2613636363636367,
                "tempo": 120.0
            },
            {
                "start_time": 11.5,
                "end_time": 12.768181818181818,
                "pitch": 42,
                "velocity": 127,
                "duration": 1.2681818181818176,
                "tempo": 120.0
            },
            {
                "start_time": 12.768181818181818,
                "end_time": 12.956818181818182,
                "pitch": 33,
                "velocity": 127,
                "duration": 0.18863636363636438,
                "tempo": 120.0
            },
            {
                "start_time": 12.984090909090908,
                "end_time": 13.063636363636363,
                "pitch": 33,
                "velocity": 127,
                "duration": 0.07954545454545503,
                "tempo": 120.0
            },
            {
                "start_time": 11.177272727272726,
                "end_time": 13.170454545454545,
                "pitch": 45,
                "velocity": 127,
                "duration": 1.993181818181819,
                "tempo": 120.0
            },
            {
                "start_time": 13.09090909090909,
                "end_time": 13.170454545454545,
                "pitch": 45,
                "velocity": 127,
                "duration": 0.07954545454545503,
                "tempo": 120.0
            },
            {
                "start_time": 11.81590909090909,
                "end_time": 13.197727272727272,
                "pitch": 7,
                "velocity": 127,
                "duration": 1.3818181818181827,
                "tempo": 120.0
            },
            {
                "start_time": 13.197727272727272,
                "end_time": 13.274999999999999,
                "pitch": 40,
                "velocity": 127,
                "duration": 0.07727272727272627,
                "tempo": 120.0
            },
            {
                "start_time": 10.756818181818181,
                "end_time": 13.302272727272726,
                "pitch": 54,
                "velocity": 127,
                "duration": 2.545454545454545,
                "tempo": 120.0
            },
            {
                "start_time": 13.302272727272726,
                "end_time": 13.379545454545454,
                "pitch": 43,
                "velocity": 127,
                "duration": 0.07727272727272805,
                "tempo": 120.0
            },
            {
                "start_time": 10.861363636363636,
                "end_time": 13.406818181818181,
                "pitch": 31,
                "velocity": 127,
                "duration": 2.545454545454545,
                "tempo": 120.0
            },
            {
                "start_time": 13.406818181818181,
                "end_time": 13.588636363636363,
                "pitch": 33,
                "velocity": 127,
                "duration": 0.18181818181818166,
                "tempo": 120.0
            },
            {
                "start_time": 13.61590909090909,
                "end_time": 13.693181818181818,
                "pitch": 33,
                "velocity": 127,
                "duration": 0.07727272727272805,
                "tempo": 120.0
            },
            {
                "start_time": 13.720454545454544,
                "end_time": 13.797727272727272,
                "pitch": 43,
                "velocity": 127,
                "duration": 0.07727272727272805,
                "tempo": 120.0
            },
            {
                "start_time": 11.284090909090908,
                "end_time": 13.825,
                "pitch": 0,
                "velocity": 127,
                "duration": 2.540909090909091,
                "tempo": 120.0
            },
            {
                "start_time": 12.454545454545453,
                "end_time": 13.904545454545454,
                "pitch": 38,
                "velocity": 127,
                "duration": 1.450000000000001,
                "tempo": 120.0
            },
            {
                "start_time": 13.825,
                "end_time": 13.904545454545454,
                "pitch": 38,
                "velocity": 127,
                "duration": 0.07954545454545503,
                "tempo": 120.0
            },
            {
                "start_time": 12.138636363636364,
                "end_time": 14.009090909090908,
                "pitch": 41,
                "velocity": 127,
                "duration": 1.8704545454545443,
                "tempo": 120.0
            },
            {
                "start_time": 13.929545454545455,
                "end_time": 14.009090909090908,
                "pitch": 41,
                "velocity": 127,
                "duration": 0.07954545454545325,
                "tempo": 120.0
            },
            {
                "start_time": 12.768181818181818,
                "end_time": 14.036363636363635,
                "pitch": 42,
                "velocity": 127,
                "duration": 1.2681818181818176,
                "tempo": 120.0
            },
            {
                "start_time": 14.034090909090908,
                "end_time": 14.036363636363635,
                "pitch": 42,
                "velocity": 127,
                "duration": 0.002272727272726982,
                "tempo": 120.0
            },
            {
                "start_time": 14.036363636363635,
                "end_time": 14.222727272727273,
                "pitch": 33,
                "velocity": 127,
                "duration": 0.1863636363636374,
                "tempo": 120.0
            },
            {
                "start_time": 14.25,
                "end_time": 14.33181818181818,
                "pitch": 33,
                "velocity": 127,
                "duration": 0.08181818181818024,
                "tempo": 120.0
            },
            {
                "start_time": 13.197727272727272,
                "end_time": 14.359090909090908,
                "pitch": 7,
                "velocity": 127,
                "duration": 1.1613636363636353,
                "tempo": 120.0
            },
            {
                "start_time": 14.359090909090908,
                "end_time": 14.620454545454544,
                "pitch": 41,
                "velocity": 127,
                "duration": 0.2613636363636367,
                "tempo": 120.0
            },
            {
                "start_time": 13.929545454545455,
                "end_time": 14.943181818181818,
                "pitch": 38,
                "velocity": 127,
                "duration": 1.0136363636363637,
                "tempo": 120.0
            },
            {
                "start_time": 14.672727272727272,
                "end_time": 14.943181818181818,
                "pitch": 38,
                "velocity": 127,
                "duration": 0.2704545454545464,
                "tempo": 120.0
            },
            {
                "start_time": 14.997727272727271,
                "end_time": 15.259090909090908,
                "pitch": 40,
                "velocity": 127,
                "duration": 0.2613636363636367,
                "tempo": 120.0
            },
            {
                "start_time": 15.313636363636363,
                "end_time": 17.102272727272727,
                "pitch": 28,
                "velocity": 127,
                "duration": 1.788636363636364,
                "tempo": 120.0
            },
            {
                "start_time": 17.209090909090907,
                "end_time": 17.288636363636364,
                "pitch": 40,
                "velocity": 127,
                "duration": 0.0795454545454568,
                "tempo": 120.0
            },
            {
                "start_time": 17.31590909090909,
                "end_time": 17.397727272727273,
                "pitch": 40,
                "velocity": 127,
                "duration": 0.08181818181818201,
                "tempo": 120.0
            },
            {
                "start_time": 14.672727272727272,
                "end_time": 17.504545454545454,
                "pitch": 41,
                "velocity": 127,
                "duration": 2.831818181818182,
                "tempo": 120.0
            },
            {
                "start_time": 17.425,
                "end_time": 17.504545454545454,
                "pitch": 41,
                "velocity": 127,
                "duration": 0.07954545454545325,
                "tempo": 120.0
            },
            {
                "start_time": 14.997727272727271,
                "end_time": 17.613636363636363,
                "pitch": 38,
                "velocity": 127,
                "duration": 2.615909090909092,
                "tempo": 120.0
            },
            {
                "start_time": 17.53181818181818,
                "end_time": 17.613636363636363,
                "pitch": 38,
                "velocity": 127,
                "duration": 0.08181818181818201,
                "tempo": 120.0
            },
            {
                "start_time": 17.64090909090909,
                "end_time": 17.720454545454544,
                "pitch": 35,
                "velocity": 127,
                "duration": 0.07954545454545325,
                "tempo": 120.0
            },
            {
                "start_time": 17.75,
                "end_time": 17.829545454545453,
                "pitch": 36,
                "velocity": 127,
                "duration": 0.07954545454545325,
                "tempo": 120.0
            },
            {
                "start_time": 17.53181818181818,
                "end_time": 17.85681818181818,
                "pitch": 40,
                "velocity": 127,
                "duration": 0.3249999999999993,
                "tempo": 120.0
            },
            {
                "start_time": 17.85681818181818,
                "end_time": 18.04090909090909,
                "pitch": 33,
                "velocity": 127,
                "duration": 0.18409090909090864,
                "tempo": 120.0
            },
            {
                "start_time": 18.06590909090909,
                "end_time": 18.145454545454545,
                "pitch": 33,
                "velocity": 127,
                "duration": 0.07954545454545325,
                "tempo": 120.0
            },
            {
                "start_time": 18.170454545454543,
                "end_time": 18.25,
                "pitch": 33,
                "velocity": 127,
                "duration": 0.0795454545454568,
                "tempo": 120.0
            },
            {
                "start_time": 13.406818181818181,
                "end_time": 18.459090909090907,
                "pitch": 31,
                "velocity": 127,
                "duration": 5.052272727272726,
                "tempo": 120.0
            },
            {
                "start_time": 18.38181818181818,
                "end_time": 18.459090909090907,
                "pitch": 31,
                "velocity": 127,
                "duration": 0.07727272727272805,
                "tempo": 120.0
            },
            {
                "start_time": 18.486363636363635,
                "end_time": 18.668181818181818,
                "pitch": 33,
                "velocity": 127,
                "duration": 0.18181818181818343,
                "tempo": 120.0
            },
            {
                "start_time": 18.695454545454545,
                "end_time": 18.772727272727273,
                "pitch": 33,
                "velocity": 127,
                "duration": 0.07727272727272805,
                "tempo": 120.0
            },
            {
                "start_time": 14.359090909090908,
                "end_time": 18.8,
                "pitch": 7,
                "velocity": 127,
                "duration": 4.440909090909093,
                "tempo": 120.0
            },
            {
                "start_time": 18.8,
                "end_time": 18.879545454545454,
                "pitch": 36,
                "velocity": 127,
                "duration": 0.07954545454545325,
                "tempo": 120.0
            },
            {
                "start_time": 17.85681818181818,
                "end_time": 18.909090909090907,
                "pitch": 40,
                "velocity": 127,
                "duration": 1.052272727272726,
                "tempo": 120.0
            },
            {
                "start_time": 18.909090909090907,
                "end_time": 18.988636363636363,
                "pitch": 35,
                "velocity": 127,
                "duration": 0.0795454545454568,
                "tempo": 120.0
            },
            {
                "start_time": 17.75,
                "end_time": 19.01590909090909,
                "pitch": 19,
                "velocity": 127,
                "duration": 1.2659090909090907,
                "tempo": 120.0
            },
            {
                "start_time": 19.01590909090909,
                "end_time": 19.097727272727273,
                "pitch": 38,
                "velocity": 127,
                "duration": 0.08181818181818201,
                "tempo": 120.0
            },
            {
                "start_time": 17.64090909090909,
                "end_time": 19.125,
                "pitch": 41,
                "velocity": 127,
                "duration": 1.4840909090909093,
                "tempo": 120.0
            },
            {
                "start_time": 19.125,
                "end_time": 19.30681818181818,
                "pitch": 33,
                "velocity": 127,
                "duration": 0.18181818181817988,
                "tempo": 120.0
            },
            {
                "start_time": 19.334090909090907,
                "end_time": 19.411363636363635,
                "pitch": 33,
                "velocity": 127,
                "duration": 0.07727272727272805,
                "tempo": 120.0
            },
            {
                "start_time": 19.438636363636363,
                "end_time": 19.51590909090909,
                "pitch": 33,
                "velocity": 127,
                "duration": 0.07727272727272805,
                "tempo": 120.0
            },
            {
                "start_time": 18.38181818181818,
                "end_time": 19.647727272727273,
                "pitch": 42,
                "velocity": 127,
                "duration": 1.2659090909090942,
                "tempo": 120.0
            },
            {
                "start_time": 18.486363636363635,
                "end_time": 19.727272727272727,
                "pitch": 31,
                "velocity": 127,
                "duration": 1.240909090909092,
                "tempo": 120.0
            },
            {
                "start_time": 19.647727272727273,
                "end_time": 19.727272727272727,
                "pitch": 31,
                "velocity": 127,
                "duration": 0.07954545454545325,
                "tempo": 120.0
            },
            {
                "start_time": 19.752272727272725,
                "end_time": 19.94090909090909,
                "pitch": 33,
                "velocity": 127,
                "duration": 0.18863636363636616,
                "tempo": 120.0
            },
            {
                "start_time": 19.96818181818182,
                "end_time": 20.05,
                "pitch": 33,
                "velocity": 127,
                "duration": 0.08181818181818201,
                "tempo": 120.0
            },
            {
                "start_time": 18.8,
                "end_time": 20.077272727272728,
                "pitch": 7,
                "velocity": 127,
                "duration": 1.2772727272727273,
                "tempo": 120.0
            },
            {
                "start_time": 20.077272727272728,
                "end_time": 20.154545454545453,
                "pitch": 36,
                "velocity": 127,
                "duration": 0.0772727272727245,
                "tempo": 120.0
            },
            {
                "start_time": 18.909090909090907,
                "end_time": 20.18181818181818,
                "pitch": 40,
                "velocity": 127,
                "duration": 1.2727272727272734,
                "tempo": 120.0
            },
            {
                "start_time": 20.18181818181818,
                "end_time": 20.261363636363637,
                "pitch": 35,
                "velocity": 127,
                "duration": 0.0795454545454568,
                "tempo": 120.0
            },
            {
                "start_time": 19.01590909090909,
                "end_time": 20.286363636363635,
                "pitch": 19,
                "velocity": 127,
                "duration": 1.2704545454545446,
                "tempo": 120.0
            },
            {
                "start_time": 20.286363636363635,
                "end_time": 20.36590909090909,
                "pitch": 38,
                "velocity": 127,
                "duration": 0.07954545454545325,
                "tempo": 120.0
            },
            {
                "start_time": 19.125,
                "end_time": 20.39090909090909,
                "pitch": 41,
                "velocity": 127,
                "duration": 1.2659090909090907,
                "tempo": 120.0
            },
            {
                "start_time": 20.39090909090909,
                "end_time": 20.579545454545453,
                "pitch": 33,
                "velocity": 127,
                "duration": 0.1886363636363626,
                "tempo": 120.0
            },
            {
                "start_time": 20.60681818181818,
                "end_time": 20.688636363636363,
                "pitch": 33,
                "velocity": 127,
                "duration": 0.08181818181818201,
                "tempo": 120.0
            },
            {
                "start_time": 20.71590909090909,
                "end_time": 20.793181818181818,
                "pitch": 33,
                "velocity": 127,
                "duration": 0.07727272727272805,
                "tempo": 120.0
            },
            {
                "start_time": 19.647727272727273,
                "end_time": 20.925,
                "pitch": 42,
                "velocity": 127,
                "duration": 1.2772727272727273,
                "tempo": 120.0
            },
            {
                "start_time": 19.752272727272725,
                "end_time": 21.004545454545454,
                "pitch": 31,
                "velocity": 127,
                "duration": 1.2522727272727288,
                "tempo": 120.0
            },
            {
                "start_time": 20.925,
                "end_time": 21.004545454545454,
                "pitch": 31,
                "velocity": 127,
                "duration": 0.07954545454545325,
                "tempo": 120.0
            },
            {
                "start_time": 21.029545454545453,
                "end_time": 21.21363636363636,
                "pitch": 33,
                "velocity": 127,
                "duration": 0.18409090909090864,
                "tempo": 120.0
            },
            {
                "start_time": 21.24090909090909,
                "end_time": 21.318181818181817,
                "pitch": 33,
                "velocity": 127,
                "duration": 0.07727272727272805,
                "tempo": 120.0
            },
            {
                "start_time": 20.077272727272728,
                "end_time": 21.345454545454544,
                "pitch": 7,
                "velocity": 127,
                "duration": 1.2681818181818159,
                "tempo": 120.0
            },
            {
                "start_time": 21.345454545454544,
                "end_time": 21.425,
                "pitch": 36,
                "velocity": 127,
                "duration": 0.0795454545454568,
                "tempo": 120.0
            },
            {
                "start_time": 20.18181818181818,
                "end_time": 21.452272727272724,
                "pitch": 40,
                "velocity": 127,
                "duration": 1.2704545454545446,
                "tempo": 120.0
            },
            {
                "start_time": 21.452272727272724,
                "end_time": 21.534090909090907,
                "pitch": 35,
                "velocity": 127,
                "duration": 0.08181818181818201,
                "tempo": 120.0
            },
            {
                "start_time": 20.286363636363635,
                "end_time": 21.561363636363634,
                "pitch": 19,
                "velocity": 127,
                "duration": 1.2749999999999986,
                "tempo": 120.0
            },
            {
                "start_time": 21.561363636363634,
                "end_time": 21.64090909090909,
                "pitch": 36,
                "velocity": 127,
                "duration": 0.0795454545454568,
                "tempo": 120.0
            },
            {
                "start_time": 21.452272727272724,
                "end_time": 21.852272727272727,
                "pitch": 40,
                "velocity": 127,
                "duration": 0.40000000000000213,
                "tempo": 120.0
            },
            {
                "start_time": 21.668181818181818,
                "end_time": 21.852272727272727,
                "pitch": 40,
                "velocity": 127,
                "duration": 0.18409090909090864,
                "tempo": 120.0
            },
            {
                "start_time": 21.879545454545454,
                "end_time": 21.956818181818182,
                "pitch": 40,
                "velocity": 127,
                "duration": 0.07727272727272805,
                "tempo": 120.0
            },
            {
                "start_time": 21.98409090909091,
                "end_time": 22.16590909090909,
                "pitch": 40,
                "velocity": 127,
                "duration": 0.18181818181817988,
                "tempo": 120.0
            },
            {
                "start_time": 22.193181818181817,
                "end_time": 22.270454545454545,
                "pitch": 40,
                "velocity": 127,
                "duration": 0.07727272727272805,
                "tempo": 120.0
            },
            {
                "start_time": 22.297727272727272,
                "end_time": 22.377272727272725,
                "pitch": 40,
                "velocity": 127,
                "duration": 0.07954545454545325,
                "tempo": 120.0
            },
            {
                "start_time": 22.404545454545453,
                "end_time": 22.486363636363635,
                "pitch": 38,
                "velocity": 127,
                "duration": 0.08181818181818201,
                "tempo": 120.0
            },
            {
                "start_time": 21.668181818181818,
                "end_time": 22.59318181818182,
                "pitch": 36,
                "velocity": 127,
                "duration": 0.9250000000000007,
                "tempo": 120.0
            },
            {
                "start_time": 22.513636363636362,
                "end_time": 22.59318181818182,
                "pitch": 36,
                "velocity": 127,
                "duration": 0.0795454545454568,
                "tempo": 120.0
            },
            {
                "start_time": 22.513636363636362,
                "end_time": 22.7,
                "pitch": 38,
                "velocity": 127,
                "duration": 0.1863636363636374,
                "tempo": 120.0
            },
            {
                "start_time": 22.62272727272727,
                "end_time": 22.7,
                "pitch": 38,
                "velocity": 127,
                "duration": 0.07727272727272805,
                "tempo": 120.0
            },
            {
                "start_time": 22.62272727272727,
                "end_time": 22.804545454545455,
                "pitch": 36,
                "velocity": 127,
                "duration": 0.18181818181818343,
                "tempo": 120.0
            },
            {
                "start_time": 22.727272727272727,
                "end_time": 22.804545454545455,
                "pitch": 36,
                "velocity": 127,
                "duration": 0.07727272727272805,
                "tempo": 120.0
            },
            {
                "start_time": 22.404545454545453,
                "end_time": 22.831818181818182,
                "pitch": 40,
                "velocity": 127,
                "duration": 0.42727272727272947,
                "tempo": 120.0
            },
            {
                "start_time": 22.831818181818182,
                "end_time": 22.909090909090907,
                "pitch": 35,
                "velocity": 127,
                "duration": 0.0772727272727245,
                "tempo": 120.0
            },
            {
                "start_time": 22.936363636363634,
                "end_time": 23.125,
                "pitch": 33,
                "velocity": 127,
                "duration": 0.18863636363636616,
                "tempo": 120.0
            },
            {
                "start_time": 23.152272727272727,
                "end_time": 23.23181818181818,
                "pitch": 33,
                "velocity": 127,
                "duration": 0.07954545454545325,
                "tempo": 120.0
            },
            {
                "start_time": 23.261363636363637,
                "end_time": 23.33863636363636,
                "pitch": 33,
                "velocity": 127,
                "duration": 0.0772727272727245,
                "tempo": 120.0
            },
            {
                "start_time": 20.925,
                "end_time": 23.470454545454544,
                "pitch": 42,
                "velocity": 127,
                "duration": 2.545454545454543,
                "tempo": 120.0
            },
            {
                "start_time": 21.029545454545453,
                "end_time": 23.547727272727272,
                "pitch": 31,
                "velocity": 127,
                "duration": 2.5181818181818194,
                "tempo": 120.0
            },
            {
                "start_time": 23.470454545454544,
                "end_time": 23.547727272727272,
                "pitch": 31,
                "velocity": 127,
                "duration": 0.07727272727272805,
                "tempo": 120.0
            },
            {
                "start_time": 23.575,
                "end_time": 23.75681818181818,
                "pitch": 33,
                "velocity": 127,
                "duration": 0.18181818181817988,
                "tempo": 120.0
            },
            {
                "start_time": 23.784090909090907,
                "end_time": 23.863636363636363,
                "pitch": 33,
                "velocity": 127,
                "duration": 0.0795454545454568,
                "tempo": 120.0
            },
            {
                "start_time": 21.345454545454544,
                "end_time": 23.888636363636362,
                "pitch": 7,
                "velocity": 127,
                "duration": 2.543181818181818,
                "tempo": 120.0
            },
            {
                "start_time": 23.888636363636362,
                "end_time": 23.96818181818182,
                "pitch": 36,
                "velocity": 127,
                "duration": 0.0795454545454568,
                "tempo": 120.0
            },
            {
                "start_time": 22.831818181818182,
                "end_time": 23.993181818181817,
                "pitch": 40,
                "velocity": 127,
                "duration": 1.1613636363636353,
                "tempo": 120.0
            },
            {
                "start_time": 22.936363636363634,
                "end_time": 24.07272727272727,
                "pitch": 35,
                "velocity": 127,
                "duration": 1.1363636363636367,
                "tempo": 120.0
            },
            {
                "start_time": 23.993181818181817,
                "end_time": 24.07272727272727,
                "pitch": 35,
                "velocity": 127,
                "duration": 0.07954545454545325,
                "tempo": 120.0
            },
            {
                "start_time": 21.561363636363634,
                "end_time": 24.099999999999998,
                "pitch": 19,
                "velocity": 127,
                "duration": 2.538636363636364,
                "tempo": 120.0
            },
            {
                "start_time": 24.097727272727273,
                "end_time": 24.099999999999998,
                "pitch": 19,
                "velocity": 127,
                "duration": 0.0022727272727252057,
                "tempo": 120.0
            },
            {
                "start_time": 22.727272727272727,
                "end_time": 24.177272727272726,
                "pitch": 38,
                "velocity": 127,
                "duration": 1.4499999999999993,
                "tempo": 120.0
            },
            {
                "start_time": 24.099999999999998,
                "end_time": 24.177272727272726,
                "pitch": 38,
                "velocity": 127,
                "duration": 0.07727272727272805,
                "tempo": 120.0
            },
            {
                "start_time": 20.39090909090909,
                "end_time": 24.204545454545453,
                "pitch": 41,
                "velocity": 127,
                "duration": 3.8136363636363626,
                "tempo": 120.0
            },
            {
                "start_time": 24.204545454545453,
                "end_time": 24.39090909090909,
                "pitch": 33,
                "velocity": 127,
                "duration": 0.1863636363636374,
                "tempo": 120.0
            },
            {
                "start_time": 24.420454545454543,
                "end_time": 24.5,
                "pitch": 33,
                "velocity": 127,
                "duration": 0.0795454545454568,
                "tempo": 120.0
            },
            {
                "start_time": 24.527272727272727,
                "end_time": 24.60681818181818,
                "pitch": 33,
                "velocity": 127,
                "duration": 0.07954545454545325,
                "tempo": 120.0
            },
            {
                "start_time": 23.470454545454544,
                "end_time": 24.736363636363635,
                "pitch": 42,
                "velocity": 127,
                "duration": 1.2659090909090907,
                "tempo": 120.0
            },
            {
                "start_time": 23.575,
                "end_time": 24.81590909090909,
                "pitch": 31,
                "velocity": 127,
                "duration": 1.240909090909092,
                "tempo": 120.0
            },
            {
                "start_time": 24.736363636363635,
                "end_time": 24.81590909090909,
                "pitch": 31,
                "velocity": 127,
                "duration": 0.0795454545454568,
                "tempo": 120.0
            },
            {
                "start_time": 24.84318181818182,
                "end_time": 25.025,
                "pitch": 33,
                "velocity": 127,
                "duration": 0.18181818181817988,
                "tempo": 120.0
            },
            {
                "start_time": 25.052272727272726,
                "end_time": 25.129545454545454,
                "pitch": 33,
                "velocity": 127,
                "duration": 0.07727272727272805,
                "tempo": 120.0
            },
            {
                "start_time": 23.888636363636362,
                "end_time": 25.15681818181818,
                "pitch": 7,
                "velocity": 127,
                "duration": 1.2681818181818194,
                "tempo": 120.0
            },
            {
                "start_time": 25.15681818181818,
                "end_time": 25.236363636363635,
                "pitch": 36,
                "velocity": 127,
                "duration": 0.07954545454545325,
                "tempo": 120.0
            },
            {
                "start_time": 23.993181818181817,
                "end_time": 25.263636363636362,
                "pitch": 40,
                "velocity": 127,
                "duration": 1.2704545454545446,
                "tempo": 120.0
            },
            {
                "start_time": 25.263636363636362,
                "end_time": 25.345454545454544,
                "pitch": 35,
                "velocity": 127,
                "duration": 0.08181818181818201,
                "tempo": 120.0
            },
            {
                "start_time": 25.37272727272727,
                "end_time": 25.452272727272724,
                "pitch": 38,
                "velocity": 127,
                "duration": 0.07954545454545325,
                "tempo": 120.0
            },
            {
                "start_time": 24.204545454545453,
                "end_time": 25.48181818181818,
                "pitch": 41,
                "velocity": 127,
                "duration": 1.2772727272727273,
                "tempo": 120.0
            },
            {
                "start_time": 25.48181818181818,
                "end_time": 25.670454545454543,
                "pitch": 33,
                "velocity": 127,
                "duration": 0.1886363636363626,
                "tempo": 120.0
            },
            {
                "start_time": 25.69772727272727,
                "end_time": 25.777272727272727,
                "pitch": 33,
                "velocity": 127,
                "duration": 0.0795454545454568,
                "tempo": 120.0
            },
            {
                "start_time": 25.804545454545455,
                "end_time": 25.88181818181818,
                "pitch": 33,
                "velocity": 127,
                "duration": 0.0772727272727245,
                "tempo": 120.0
            },
            {
                "start_time": 24.736363636363635,
                "end_time": 26.009090909090908,
                "pitch": 42,
                "velocity": 127,
                "duration": 1.2727272727272734,
                "tempo": 120.0
            },
            {
                "start_time": 24.84318181818182,
                "end_time": 26.084090909090907,
                "pitch": 31,
                "velocity": 127,
                "duration": 1.2409090909090885,
                "tempo": 120.0
            },
            {
                "start_time": 26.009090909090908,
                "end_time": 26.084090909090907,
                "pitch": 31,
                "velocity": 127,
                "duration": 0.07499999999999929,
                "tempo": 120.0
            },
            {
                "start_time": 26.10909090909091,
                "end_time": 26.297727272727272,
                "pitch": 33,
                "velocity": 127,
                "duration": 0.1886363636363626,
                "tempo": 120.0
            },
            {
                "start_time": 26.325,
                "end_time": 26.40681818181818,
                "pitch": 33,
                "velocity": 127,
                "duration": 0.08181818181818201,
                "tempo": 120.0
            },
            {
                "start_time": 25.15681818181818,
                "end_time": 26.43409090909091,
                "pitch": 7,
                "velocity": 127,
                "duration": 1.2772727272727273,
                "tempo": 120.0
            },
            {
                "start_time": 26.43409090909091,
                "end_time": 26.511363636363637,
                "pitch": 36,
                "velocity": 127,
                "duration": 0.07727272727272805,
                "tempo": 120.0
            },
            {
                "start_time": 25.263636363636362,
                "end_time": 26.538636363636364,
                "pitch": 40,
                "velocity": 127,
                "duration": 1.2750000000000021,
                "tempo": 120.0
            },
            {
                "start_time": 26.538636363636364,
                "end_time": 26.61590909090909,
                "pitch": 35,
                "velocity": 127,
                "duration": 0.0772727272727245,
                "tempo": 120.0
            },
            {
                "start_time": 25.37272727272727,
                "end_time": 26.643181818181816,
                "pitch": 19,
                "velocity": 127,
                "duration": 1.2704545454545446,
                "tempo": 120.0
            },
            {
                "start_time": 26.643181818181816,
                "end_time": 26.722727272727273,
                "pitch": 36,
                "velocity": 127,
                "duration": 0.0795454545454568,
                "tempo": 120.0
            },
            {
                "start_time": 26.538636363636364,
                "end_time": 26.74772727272727,
                "pitch": 40,
                "velocity": 127,
                "duration": 0.20909090909090722,
                "tempo": 120.0
            },
            {
                "start_time": 26.74772727272727,
                "end_time": 26.827272727272724,
                "pitch": 33,
                "velocity": 127,
                "duration": 0.07954545454545325,
                "tempo": 120.0
            },
            {
                "start_time": 26.852272727272727,
                "end_time": 26.93181818181818,
                "pitch": 35,
                "velocity": 127,
                "duration": 0.07954545454545325,
                "tempo": 120.0
            },
            {
                "start_time": 26.643181818181816,
                "end_time": 26.959090909090907,
                "pitch": 19,
                "velocity": 127,
                "duration": 0.31590909090909136,
                "tempo": 120.0
            },
            {
                "start_time": 26.956818181818182,
                "end_time": 26.959090909090907,
                "pitch": 19,
                "velocity": 127,
                "duration": 0.0022727272727252057,
                "tempo": 120.0
            },
            {
                "start_time": 26.959090909090907,
                "end_time": 27.036363636363635,
                "pitch": 36,
                "velocity": 127,
                "duration": 0.07727272727272805,
                "tempo": 120.0
            },
            {
                "start_time": 26.74772727272727,
                "end_time": 27.063636363636363,
                "pitch": 40,
                "velocity": 127,
                "duration": 0.31590909090909136,
                "tempo": 120.0
            },
            {
                "start_time": 27.063636363636363,
                "end_time": 27.14090909090909,
                "pitch": 35,
                "velocity": 127,
                "duration": 0.07727272727272805,
                "tempo": 120.0
            },
            {
                "start_time": 27.168181818181818,
                "end_time": 27.245454545454542,
                "pitch": 36,
                "velocity": 127,
                "duration": 0.0772727272727245,
                "tempo": 120.0
            },
            {
                "start_time": 27.27272727272727,
                "end_time": 27.349999999999998,
                "pitch": 38,
                "velocity": 127,
                "duration": 0.07727272727272805,
                "tempo": 120.0
            },
            {
                "start_time": 27.27272727272727,
                "end_time": 27.456818181818182,
                "pitch": 36,
                "velocity": 127,
                "duration": 0.1840909090909122,
                "tempo": 120.0
            },
            {
                "start_time": 27.377272727272725,
                "end_time": 27.456818181818182,
                "pitch": 36,
                "velocity": 127,
                "duration": 0.0795454545454568,
                "tempo": 120.0
            },
            {
                "start_time": 27.377272727272725,
                "end_time": 27.565909090909088,
                "pitch": 38,
                "velocity": 127,
                "duration": 0.1886363636363626,
                "tempo": 120.0
            },
            {
                "start_time": 27.48409090909091,
                "end_time": 27.565909090909088,
                "pitch": 38,
                "velocity": 127,
                "duration": 0.08181818181817846,
                "tempo": 120.0
            },
            {
                "start_time": 27.063636363636363,
                "end_time": 27.672727272727272,
                "pitch": 40,
                "velocity": 127,
                "duration": 0.6090909090909093,
                "tempo": 120.0
            },
            {
                "start_time": 27.593181818181815,
                "end_time": 27.672727272727272,
                "pitch": 40,
                "velocity": 127,
                "duration": 0.0795454545454568,
                "tempo": 120.0
            },
            {
                "start_time": 27.593181818181815,
                "end_time": 27.779545454545453,
                "pitch": 38,
                "velocity": 127,
                "duration": 0.1863636363636374,
                "tempo": 120.0
            },
            {
                "start_time": 27.702272727272724,
                "end_time": 27.779545454545453,
                "pitch": 38,
                "velocity": 127,
                "duration": 0.07727272727272805,
                "tempo": 120.0
            },
            {
                "start_time": 27.702272727272724,
                "end_time": 27.884090909090908,
                "pitch": 40,
                "velocity": 127,
                "duration": 0.18181818181818343,
                "tempo": 120.0
            },
            {
                "start_time": 27.80681818181818,
                "end_time": 27.884090909090908,
                "pitch": 40,
                "velocity": 127,
                "duration": 0.07727272727272805,
                "tempo": 120.0
            },
            {
                "start_time": 27.911363636363635,
                "end_time": 27.988636363636363,
                "pitch": 40,
                "velocity": 127,
                "duration": 0.07727272727272805,
                "tempo": 120.0
            },
            {
                "start_time": 28.01590909090909,
                "end_time": 28.284090909090907,
                "pitch": 29,
                "velocity": 127,
                "duration": 0.26818181818181586,
                "tempo": 120.0
            },
            {
                "start_time": 28.34090909090909,
                "end_time": 28.418181818181818,
                "pitch": 28,
                "velocity": 127,
                "duration": 0.07727272727272805,
                "tempo": 120.0
            },
            {
                "start_time": 28.445454545454545,
                "end_time": 28.52272727272727,
                "pitch": 28,
                "velocity": 127,
                "duration": 0.0772727272727245,
                "tempo": 120.0
            },
            {
                "start_time": 28.549999999999997,
                "end_time": 28.627272727272725,
                "pitch": 28,
                "velocity": 127,
                "duration": 0.07727272727272805,
                "tempo": 120.0
            },
            {
                "start_time": 28.654545454545453,
                "end_time": 28.924999999999997,
                "pitch": 23,
                "velocity": 127,
                "duration": 0.2704545454545446,
                "tempo": 120.0
            },
            {
                "start_time": 26.43409090909091,
                "end_time": 28.979545454545452,
                "pitch": 7,
                "velocity": 127,
                "duration": 2.545454545454543,
                "tempo": 120.0
            },
            {
                "start_time": 28.979545454545452,
                "end_time": 29.24090909090909,
                "pitch": 29,
                "velocity": 127,
                "duration": 0.2613636363636367,
                "tempo": 120.0
            },
            {
                "start_time": 29.293181818181818,
                "end_time": 29.554545454545455,
                "pitch": 29,
                "velocity": 127,
                "duration": 0.2613636363636367,
                "tempo": 120.0
            },
            {
                "start_time": 29.60681818181818,
                "end_time": 29.688636363636363,
                "pitch": 28,
                "velocity": 127,
                "duration": 0.08181818181818201,
                "tempo": 120.0
            },
            {
                "start_time": 29.71590909090909,
                "end_time": 29.795454545454543,
                "pitch": 28,
                "velocity": 127,
                "duration": 0.07954545454545325,
                "tempo": 120.0
            },
            {
                "start_time": 29.82272727272727,
                "end_time": 29.904545454545453,
                "pitch": 28,
                "velocity": 127,
                "duration": 0.08181818181818201,
                "tempo": 120.0
            },
            {
                "start_time": 28.654545454545453,
                "end_time": 29.93181818181818,
                "pitch": 30,
                "velocity": 127,
                "duration": 1.2772727272727273,
                "tempo": 120.0
            },
            {
                "start_time": 29.93181818181818,
                "end_time": 30.193181818181817,
                "pitch": 23,
                "velocity": 127,
                "duration": 0.2613636363636367,
                "tempo": 120.0
            },
            {
                "start_time": 28.979545454545452,
                "end_time": 30.245454545454542,
                "pitch": 7,
                "velocity": 127,
                "duration": 1.2659090909090907,
                "tempo": 120.0
            },
            {
                "start_time": 30.245454545454542,
                "end_time": 30.50681818181818,
                "pitch": 29,
                "velocity": 127,
                "duration": 0.2613636363636367,
                "tempo": 120.0
            },
            {
                "start_time": 30.561363636363634,
                "end_time": 30.74772727272727,
                "pitch": 29,
                "velocity": 127,
                "duration": 0.1863636363636374,
                "tempo": 120.0
            },
            {
                "start_time": 30.775,
                "end_time": 30.85681818181818,
                "pitch": 28,
                "velocity": 127,
                "duration": 0.08181818181818201,
                "tempo": 120.0
            },
            {
                "start_time": 30.884090909090908,
                "end_time": 30.96363636363636,
                "pitch": 28,
                "velocity": 127,
                "duration": 0.07954545454545325,
                "tempo": 120.0
            },
            {
                "start_time": 30.988636363636363,
                "end_time": 31.068181818181817,
                "pitch": 28,
                "velocity": 127,
                "duration": 0.07954545454545325,
                "tempo": 120.0
            },
            {
                "start_time": 31.093181818181815,
                "end_time": 31.172727272727272,
                "pitch": 28,
                "velocity": 127,
                "duration": 0.0795454545454568,
                "tempo": 120.0
            },
            {
                "start_time": 31.2,
                "end_time": 31.38181818181818,
                "pitch": 28,
                "velocity": 127,
                "duration": 0.18181818181817988,
                "tempo": 120.0
            },
            {
                "start_time": 31.409090909090907,
                "end_time": 31.486363636363635,
                "pitch": 28,
                "velocity": 127,
                "duration": 0.07727272727272805,
                "tempo": 120.0
            },
            {
                "start_time": 31.513636363636362,
                "end_time": 31.59090909090909,
                "pitch": 28,
                "velocity": 127,
                "duration": 0.07727272727272805,
                "tempo": 120.0
            },
            {
                "start_time": 31.618181818181817,
                "end_time": 31.695454545454545,
                "pitch": 28,
                "velocity": 127,
                "duration": 0.07727272727272805,
                "tempo": 120.0
            },
            {
                "start_time": 31.722727272727273,
                "end_time": 31.799999999999997,
                "pitch": 28,
                "velocity": 127,
                "duration": 0.0772727272727245,
                "tempo": 120.0
            },
            {
                "start_time": 26.009090909090908,
                "end_time": 31.827272727272724,
                "pitch": 42,
                "velocity": 127,
                "duration": 5.818181818181817,
                "tempo": 120.0
            },
            {
                "start_time": 31.827272727272724,
                "end_time": 32.09772727272727,
                "pitch": 35,
                "velocity": 127,
                "duration": 0.2704545454545446,
                "tempo": 120.0
            },
            {
                "start_time": 27.168181818181818,
                "end_time": 32.152272727272724,
                "pitch": 19,
                "velocity": 127,
                "duration": 4.984090909090906,
                "tempo": 120.0
            },
            {
                "start_time": 27.48409090909091,
                "end_time": 32.413636363636364,
                "pitch": 36,
                "velocity": 127,
                "duration": 4.929545454545455,
                "tempo": 120.0
            },
            {
                "start_time": 32.152272727272724,
                "end_time": 32.413636363636364,
                "pitch": 36,
                "velocity": 127,
                "duration": 0.26136363636364024,
                "tempo": 120.0
            },
            {
                "start_time": 27.80681818181818,
                "end_time": 32.736363636363635,
                "pitch": 38,
                "velocity": 127,
                "duration": 4.929545454545455,
                "tempo": 120.0
            },
            {
                "start_time": 32.465909090909086,
                "end_time": 32.736363636363635,
                "pitch": 38,
                "velocity": 127,
                "duration": 0.27045454545454817,
                "tempo": 120.0
            },
            {
                "start_time": 32.79090909090909,
                "end_time": 33.05227272727272,
                "pitch": 40,
                "velocity": 127,
                "duration": 0.26136363636363313,
                "tempo": 120.0
            },
            {
                "start_time": 31.827272727272724,
                "end_time": 33.10454545454545,
                "pitch": 42,
                "velocity": 127,
                "duration": 1.2772727272727273,
                "tempo": 120.0
            },
            {
                "start_time": 33.10454545454545,
                "end_time": 33.36590909090909,
                "pitch": 34,
                "velocity": 127,
                "duration": 0.26136363636364024,
                "tempo": 120.0
            },
            {
                "start_time": 33.418181818181814,
                "end_time": 33.5,
                "pitch": 34,
                "velocity": 127,
                "duration": 0.08181818181818556,
                "tempo": 120.0
            },
            {
                "start_time": 33.527272727272724,
                "end_time": 33.60681818181818,
                "pitch": 34,
                "velocity": 127,
                "duration": 0.07954545454545325,
                "tempo": 120.0
            },
            {
                "start_time": 33.63409090909091,
                "end_time": 33.715909090909086,
                "pitch": 34,
                "velocity": 127,
                "duration": 0.08181818181817846,
                "tempo": 120.0
            },
            {
                "start_time": 33.74318181818182,
                "end_time": 34.00454545454545,
                "pitch": 28,
                "velocity": 127,
                "duration": 0.26136363636363313,
                "tempo": 120.0
            },
            {
                "start_time": 33.10454545454545,
                "end_time": 34.05681818181818,
                "pitch": 42,
                "velocity": 127,
                "duration": 0.952272727272728,
                "tempo": 120.0
            },
            {
                "start_time": 34.05681818181818,
                "end_time": 34.320454545454545,
                "pitch": 35,
                "velocity": 127,
                "duration": 0.26363636363636545,
                "tempo": 120.0
            },
            {
                "start_time": 34.37272727272727,
                "end_time": 34.63409090909091,
                "pitch": 35,
                "velocity": 127,
                "duration": 0.26136363636364024,
                "tempo": 120.0
            },
            {
                "start_time": 34.68636363636364,
                "end_time": 34.76590909090909,
                "pitch": 34,
                "velocity": 127,
                "duration": 0.07954545454545325,
                "tempo": 120.0
            },
            {
                "start_time": 34.793181818181814,
                "end_time": 34.875,
                "pitch": 34,
                "velocity": 127,
                "duration": 0.08181818181818556,
                "tempo": 120.0
            },
            {
                "start_time": 34.902272727272724,
                "end_time": 34.98409090909091,
                "pitch": 34,
                "velocity": 127,
                "duration": 0.08181818181818556,
                "tempo": 120.0
            },
            {
                "start_time": 33.74318181818182,
                "end_time": 35.01136363636363,
                "pitch": 2,
                "velocity": 127,
                "duration": 1.2681818181818159,
                "tempo": 120.0
            },
            {
                "start_time": 35.01136363636363,
                "end_time": 35.27272727272727,
                "pitch": 28,
                "velocity": 127,
                "duration": 0.26136363636364024,
                "tempo": 120.0
            },
            {
                "start_time": 34.05681818181818,
                "end_time": 35.324999999999996,
                "pitch": 42,
                "velocity": 127,
                "duration": 1.2681818181818159,
                "tempo": 120.0
            },
            {
                "start_time": 35.324999999999996,
                "end_time": 35.595454545454544,
                "pitch": 35,
                "velocity": 127,
                "duration": 0.27045454545454817,
                "tempo": 120.0
            },
            {
                "start_time": 35.65,
                "end_time": 35.83863636363636,
                "pitch": 35,
                "velocity": 127,
                "duration": 0.1886363636363626,
                "tempo": 120.0
            },
            {
                "start_time": 35.86590909090909,
                "end_time": 35.945454545454545,
                "pitch": 34,
                "velocity": 127,
                "duration": 0.07954545454545325,
                "tempo": 120.0
            },
            {
                "start_time": 35.97272727272727,
                "end_time": 36.05,
                "pitch": 34,
                "velocity": 127,
                "duration": 0.07727272727272805,
                "tempo": 120.0
            },
            {
                "start_time": 36.074999999999996,
                "end_time": 36.15,
                "pitch": 34,
                "velocity": 127,
                "duration": 0.07500000000000284,
                "tempo": 120.0
            },
            {
                "start_time": 36.17727272727272,
                "end_time": 36.252272727272725,
                "pitch": 34,
                "velocity": 127,
                "duration": 0.07500000000000284,
                "tempo": 120.0
            },
            {
                "start_time": 36.279545454545456,
                "end_time": 36.461363636363636,
                "pitch": 34,
                "velocity": 127,
                "duration": 0.18181818181817988,
                "tempo": 120.0
            },
            {
                "start_time": 36.48863636363636,
                "end_time": 36.56590909090909,
                "pitch": 34,
                "velocity": 127,
                "duration": 0.07727272727272805,
                "tempo": 120.0
            },
            {
                "start_time": 36.59318181818182,
                "end_time": 36.67272727272727,
                "pitch": 34,
                "velocity": 127,
                "duration": 0.07954545454545325,
                "tempo": 120.0
            },
            {
                "start_time": 36.699999999999996,
                "end_time": 36.78181818181818,
                "pitch": 34,
                "velocity": 127,
                "duration": 0.08181818181818556,
                "tempo": 120.0
            },
            {
                "start_time": 36.809090909090905,
                "end_time": 36.88863636363636,
                "pitch": 34,
                "velocity": 127,
                "duration": 0.07954545454545325,
                "tempo": 120.0
            },
            {
                "start_time": 36.918181818181814,
                "end_time": 36.99545454545454,
                "pitch": 40,
                "velocity": 127,
                "duration": 0.07727272727272805,
                "tempo": 120.0
            },
            {
                "start_time": 37.02272727272727,
                "end_time": 37.1,
                "pitch": 40,
                "velocity": 127,
                "duration": 0.07727272727272805,
                "tempo": 120.0
            },
            {
                "start_time": 37.127272727272725,
                "end_time": 37.20454545454545,
                "pitch": 40,
                "velocity": 127,
                "duration": 0.07727272727272805,
                "tempo": 120.0
            },
            {
                "start_time": 37.23181818181818,
                "end_time": 37.309090909090905,
                "pitch": 40,
                "velocity": 127,
                "duration": 0.07727272727272805,
                "tempo": 120.0
            },
            {
                "start_time": 37.336363636363636,
                "end_time": 37.413636363636364,
                "pitch": 40,
                "velocity": 127,
                "duration": 0.07727272727272805,
                "tempo": 120.0
            },
            {
                "start_time": 37.44090909090909,
                "end_time": 37.518181818181816,
                "pitch": 40,
                "velocity": 127,
                "duration": 0.07727272727272805,
                "tempo": 120.0
            },
            {
                "start_time": 37.54545454545455,
                "end_time": 37.627272727272725,
                "pitch": 40,
                "velocity": 127,
                "duration": 0.08181818181817846,
                "tempo": 120.0
            },
            {
                "start_time": 37.654545454545456,
                "end_time": 37.73409090909091,
                "pitch": 40,
                "velocity": 127,
                "duration": 0.07954545454545325,
                "tempo": 120.0
            },
            {
                "start_time": 37.76136363636363,
                "end_time": 37.84318181818182,
                "pitch": 40,
                "velocity": 127,
                "duration": 0.08181818181818556,
                "tempo": 120.0
            },
            {
                "start_time": 37.87045454545454,
                "end_time": 37.94772727272727,
                "pitch": 40,
                "velocity": 127,
                "duration": 0.07727272727272805,
                "tempo": 120.0
            },
            {
                "start_time": 37.975,
                "end_time": 38.05227272727272,
                "pitch": 40,
                "velocity": 127,
                "duration": 0.07727272727272094,
                "tempo": 120.0
            },
            {
                "start_time": 38.07954545454545,
                "end_time": 38.15681818181818,
                "pitch": 40,
                "velocity": 127,
                "duration": 0.07727272727272805,
                "tempo": 120.0
            },
            {
                "start_time": 35.324999999999996,
                "end_time": 38.184090909090905,
                "pitch": 42,
                "velocity": 127,
                "duration": 2.8590909090909093,
                "tempo": 120.0
            },
            {
                "start_time": 26.852272727272727,
                "end_time": 38.37272727272727,
                "pitch": 33,
                "velocity": 127,
                "duration": 11.520454545454541,
                "tempo": 120.0
            },
            {
                "start_time": 38.184090909090905,
                "end_time": 38.37272727272727,
                "pitch": 33,
                "velocity": 127,
                "duration": 0.1886363636363626,
                "tempo": 120.0
            },
            {
                "start_time": 38.4,
                "end_time": 38.48181818181818,
                "pitch": 33,
                "velocity": 127,
                "duration": 0.08181818181817846,
                "tempo": 120.0
            },
            {
                "start_time": 38.50909090909091,
                "end_time": 38.69090909090909,
                "pitch": 33,
                "velocity": 127,
                "duration": 0.18181818181817988,
                "tempo": 120.0
            },
            {
                "start_time": 38.71818181818182,
                "end_time": 38.79545454545455,
                "pitch": 33,
                "velocity": 127,
                "duration": 0.07727272727272805,
                "tempo": 120.0
            },
            {
                "start_time": 38.82272727272727,
                "end_time": 39.00681818181818,
                "pitch": 33,
                "velocity": 127,
                "duration": 0.1840909090909122,
                "tempo": 120.0
            },
            {
                "start_time": 39.03181818181818,
                "end_time": 39.111363636363635,
                "pitch": 33,
                "velocity": 127,
                "duration": 0.07954545454545325,
                "tempo": 120.0
            },
            {
                "start_time": 39.13636363636363,
                "end_time": 39.324999999999996,
                "pitch": 33,
                "velocity": 127,
                "duration": 0.1886363636363626,
                "tempo": 120.0
            },
            {
                "start_time": 39.35227272727273,
                "end_time": 39.434090909090905,
                "pitch": 33,
                "velocity": 127,
                "duration": 0.08181818181817846,
                "tempo": 120.0
            },
            {
                "start_time": 39.461363636363636,
                "end_time": 39.64545454545454,
                "pitch": 33,
                "velocity": 127,
                "duration": 0.18409090909090509,
                "tempo": 120.0
            },
            {
                "start_time": 39.67045454545455,
                "end_time": 39.75,
                "pitch": 33,
                "velocity": 127,
                "duration": 0.07954545454545325,
                "tempo": 120.0
            },
            {
                "start_time": 39.775,
                "end_time": 39.959090909090904,
                "pitch": 33,
                "velocity": 127,
                "duration": 0.18409090909090509,
                "tempo": 120.0
            },
            {
                "start_time": 39.986363636363635,
                "end_time": 40.06363636363636,
                "pitch": 33,
                "velocity": 127,
                "duration": 0.07727272727272805,
                "tempo": 120.0
            },
            {
                "start_time": 40.090909090909086,
                "end_time": 40.279545454545456,
                "pitch": 33,
                "velocity": 127,
                "duration": 0.1886363636363697,
                "tempo": 120.0
            },
            {
                "start_time": 40.30681818181818,
                "end_time": 40.38636363636363,
                "pitch": 33,
                "velocity": 127,
                "duration": 0.07954545454545325,
                "tempo": 120.0
            },
            {
                "start_time": 40.413636363636364,
                "end_time": 40.59772727272727,
                "pitch": 33,
                "velocity": 127,
                "duration": 0.18409090909090509,
                "tempo": 120.0
            },
            {
                "start_time": 40.625,
                "end_time": 40.70227272727273,
                "pitch": 33,
                "velocity": 127,
                "duration": 0.07727272727272805,
                "tempo": 120.0
            },
            {
                "start_time": 40.945454545454545,
                "end_time": 41.025,
                "pitch": 28,
                "velocity": 127,
                "duration": 0.07954545454545325,
                "tempo": 120.0
            },
            {
                "start_time": 41.05227272727272,
                "end_time": 41.236363636363635,
                "pitch": 28,
                "velocity": 127,
                "duration": 0.1840909090909122,
                "tempo": 120.0
            },
            {
                "start_time": 41.26363636363636,
                "end_time": 41.340909090909086,
                "pitch": 28,
                "velocity": 127,
                "duration": 0.07727272727272805,
                "tempo": 120.0
            },
            {
                "start_time": 41.36818181818182,
                "end_time": 41.55,
                "pitch": 28,
                "velocity": 127,
                "duration": 0.18181818181817988,
                "tempo": 120.0
            },
            {
                "start_time": 41.57727272727273,
                "end_time": 41.65454545454545,
                "pitch": 28,
                "velocity": 127,
                "duration": 0.07727272727272094,
                "tempo": 120.0
            },
            {
                "start_time": 41.68181818181818,
                "end_time": 41.86590909090909,
                "pitch": 28,
                "velocity": 127,
                "duration": 0.1840909090909122,
                "tempo": 120.0
            },
            {
                "start_time": 41.89090909090909,
                "end_time": 41.970454545454544,
                "pitch": 28,
                "velocity": 127,
                "duration": 0.07954545454545325,
                "tempo": 120.0
            },
            {
                "start_time": 41.99545454545454,
                "end_time": 42.184090909090905,
                "pitch": 28,
                "velocity": 127,
                "duration": 0.1886363636363626,
                "tempo": 120.0
            },
            {
                "start_time": 42.211363636363636,
                "end_time": 42.293181818181814,
                "pitch": 28,
                "velocity": 127,
                "duration": 0.08181818181817846,
                "tempo": 120.0
            },
            {
                "start_time": 42.320454545454545,
                "end_time": 42.502272727272725,
                "pitch": 28,
                "velocity": 127,
                "duration": 0.18181818181817988,
                "tempo": 120.0
            },
            {
                "start_time": 42.52954545454545,
                "end_time": 42.60909090909091,
                "pitch": 28,
                "velocity": 127,
                "duration": 0.07954545454546036,
                "tempo": 120.0
            },
            {
                "start_time": 42.63409090909091,
                "end_time": 42.82272727272727,
                "pitch": 28,
                "velocity": 127,
                "duration": 0.1886363636363626,
                "tempo": 120.0
            },
            {
                "start_time": 42.85,
                "end_time": 42.93181818181818,
                "pitch": 28,
                "velocity": 127,
                "duration": 0.08181818181817846,
                "tempo": 120.0
            },
            {
                "start_time": 42.959090909090904,
                "end_time": 43.14090909090909,
                "pitch": 28,
                "velocity": 127,
                "duration": 0.18181818181818699,
                "tempo": 120.0
            },
            {
                "start_time": 43.168181818181814,
                "end_time": 43.24772727272727,
                "pitch": 28,
                "velocity": 127,
                "duration": 0.07954545454545325,
                "tempo": 120.0
            },
            {
                "start_time": 43.27272727272727,
                "end_time": 43.461363636363636,
                "pitch": 28,
                "velocity": 127,
                "duration": 0.1886363636363626,
                "tempo": 120.0
            },
            {
                "start_time": 43.48863636363636,
                "end_time": 43.570454545454545,
                "pitch": 29,
                "velocity": 127,
                "duration": 0.08181818181818556,
                "tempo": 120.0
            },
            {
                "start_time": 43.59772727272727,
                "end_time": 43.77954545454545,
                "pitch": 29,
                "velocity": 127,
                "duration": 0.18181818181817988,
                "tempo": 120.0
            },
            {
                "start_time": 43.80681818181818,
                "end_time": 43.88636363636363,
                "pitch": 29,
                "velocity": 127,
                "duration": 0.07954545454545325,
                "tempo": 120.0
            },
            {
                "start_time": 38.184090909090905,
                "end_time": 43.91136363636363,
                "pitch": 42,
                "velocity": 127,
                "duration": 5.727272727272727,
                "tempo": 120.0
            },
            {
                "start_time": 26.10909090909091,
                "end_time": 44.095454545454544,
                "pitch": 31,
                "velocity": 127,
                "duration": 17.986363636363635,
                "tempo": 120.0
            },
            {
                "start_time": 43.91136363636363,
                "end_time": 44.095454545454544,
                "pitch": 31,
                "velocity": 127,
                "duration": 0.1840909090909122,
                "tempo": 120.0
            },
            {
                "start_time": 44.12272727272727,
                "end_time": 44.199999999999996,
                "pitch": 31,
                "velocity": 127,
                "duration": 0.07727272727272805,
                "tempo": 120.0
            },
            {
                "start_time": 44.22727272727273,
                "end_time": 44.40909090909091,
                "pitch": 31,
                "velocity": 127,
                "duration": 0.18181818181817988,
                "tempo": 120.0
            },
            {
                "start_time": 44.43636363636364,
                "end_time": 44.51363636363636,
                "pitch": 31,
                "velocity": 127,
                "duration": 0.07727272727272094,
                "tempo": 120.0
            },
            {
                "start_time": 13.825,
                "end_time": 44.54090909090909,
                "pitch": 0,
                "velocity": 127,
                "duration": 30.71590909090909,
                "tempo": 120.0
            },
            {
                "start_time": 44.54090909090909,
                "end_time": 44.72954545454545,
                "pitch": 28,
                "velocity": 127,
                "duration": 0.1886363636363626,
                "tempo": 120.0
            },
            {
                "start_time": 44.75681818181818,
                "end_time": 44.836363636363636,
                "pitch": 28,
                "velocity": 127,
                "duration": 0.07954545454545325,
                "tempo": 120.0
            },
            {
                "start_time": 44.86590909090909,
                "end_time": 45.04772727272727,
                "pitch": 28,
                "velocity": 127,
                "duration": 0.18181818181817988,
                "tempo": 120.0
            },
            {
                "start_time": 45.074999999999996,
                "end_time": 45.152272727272724,
                "pitch": 28,
                "velocity": 127,
                "duration": 0.07727272727272805,
                "tempo": 120.0
            },
            {
                "start_time": 43.91136363636363,
                "end_time": 45.179545454545455,
                "pitch": 42,
                "velocity": 127,
                "duration": 1.268181818181823,
                "tempo": 120.0
            },
            {
                "start_time": 45.179545454545455,
                "end_time": 45.361363636363635,
                "pitch": 35,
                "velocity": 127,
                "duration": 0.18181818181817988,
                "tempo": 120.0
            },
            {
                "start_time": 45.38863636363636,
                "end_time": 45.465909090909086,
                "pitch": 35,
                "velocity": 127,
                "duration": 0.07727272727272805,
                "tempo": 120.0
            },
            {
                "start_time": 45.49318181818182,
                "end_time": 45.68181818181818,
                "pitch": 35,
                "velocity": 127,
                "duration": 0.1886363636363626,
                "tempo": 120.0
            },
            {
                "start_time": 45.709090909090904,
                "end_time": 45.79090909090909,
                "pitch": 35,
                "velocity": 127,
                "duration": 0.08181818181818556,
                "tempo": 120.0
            },
            {
                "start_time": 45.81818181818181,
                "end_time": 46.0,
                "pitch": 33,
                "velocity": 127,
                "duration": 0.18181818181818699,
                "tempo": 120.0
            },
            {
                "start_time": 46.027272727272724,
                "end_time": 46.10454545454545,
                "pitch": 33,
                "velocity": 127,
                "duration": 0.07727272727272805,
                "tempo": 120.0
            },
            {
                "start_time": 46.13181818181818,
                "end_time": 46.31590909090909,
                "pitch": 33,
                "velocity": 127,
                "duration": 0.18409090909090509,
                "tempo": 120.0
            },
            {
                "start_time": 46.340909090909086,
                "end_time": 46.42045454545455,
                "pitch": 33,
                "velocity": 127,
                "duration": 0.07954545454546036,
                "tempo": 120.0
            },
            {
                "start_time": 46.44772727272727,
                "end_time": 46.63409090909091,
                "pitch": 33,
                "velocity": 127,
                "duration": 0.1863636363636374,
                "tempo": 120.0
            },
            {
                "start_time": 46.663636363636364,
                "end_time": 46.74318181818182,
                "pitch": 33,
                "velocity": 127,
                "duration": 0.07954545454545325,
                "tempo": 120.0
            },
            {
                "start_time": 46.77045454545454,
                "end_time": 46.95454545454545,
                "pitch": 33,
                "velocity": 127,
                "duration": 0.1840909090909122,
                "tempo": 120.0
            },
            {
                "start_time": 46.97954545454545,
                "end_time": 47.059090909090905,
                "pitch": 33,
                "velocity": 127,
                "duration": 0.07954545454545325,
                "tempo": 120.0
            },
            {
                "start_time": 30.245454545454542,
                "end_time": 47.086363636363636,
                "pitch": 7,
                "velocity": 127,
                "duration": 16.840909090909093,
                "tempo": 120.0
            },
            {
                "start_time": 47.086363636363636,
                "end_time": 47.163636363636364,
                "pitch": 40,
                "velocity": 127,
                "duration": 0.07727272727272805,
                "tempo": 120.0
            },
            {
                "start_time": 47.18863636363636,
                "end_time": 47.268181818181816,
                "pitch": 40,
                "velocity": 127,
                "duration": 0.07954545454545325,
                "tempo": 120.0
            },
            {
                "start_time": 47.29545454545454,
                "end_time": 47.37272727272727,
                "pitch": 40,
                "velocity": 127,
                "duration": 0.07727272727272805,
                "tempo": 120.0
            },
            {
                "start_time": 47.4,
                "end_time": 47.47727272727273,
                "pitch": 40,
                "velocity": 127,
                "duration": 0.07727272727272805,
                "tempo": 120.0
            },
            {
                "start_time": 47.50454545454545,
                "end_time": 47.58181818181818,
                "pitch": 40,
                "velocity": 127,
                "duration": 0.07727272727272805,
                "tempo": 120.0
            },
            {
                "start_time": 47.60909090909091,
                "end_time": 47.68636363636364,
                "pitch": 40,
                "velocity": 127,
                "duration": 0.07727272727272805,
                "tempo": 120.0
            },
            {
                "start_time": 47.71363636363636,
                "end_time": 47.793181818181814,
                "pitch": 40,
                "velocity": 127,
                "duration": 0.07954545454545325,
                "tempo": 120.0
            },
            {
                "start_time": 32.79090909090909,
                "end_time": 47.902272727272724,
                "pitch": 38,
                "velocity": 127,
                "duration": 15.111363636363635,
                "tempo": 120.0
            },
            {
                "start_time": 47.820454545454545,
                "end_time": 47.902272727272724,
                "pitch": 38,
                "velocity": 127,
                "duration": 0.08181818181817846,
                "tempo": 120.0
            },
            {
                "start_time": 32.465909090909086,
                "end_time": 48.01136363636363,
                "pitch": 36,
                "velocity": 127,
                "duration": 15.545454545454547,
                "tempo": 120.0
            },
            {
                "start_time": 47.929545454545455,
                "end_time": 48.01136363636363,
                "pitch": 36,
                "velocity": 127,
                "duration": 0.08181818181817846,
                "tempo": 120.0
            },
            {
                "start_time": 47.820454545454545,
                "end_time": 48.038636363636364,
                "pitch": 40,
                "velocity": 127,
                "duration": 0.2181818181818187,
                "tempo": 120.0
            },
            {
                "start_time": 48.038636363636364,
                "end_time": 48.11590909090909,
                "pitch": 32,
                "velocity": 127,
                "duration": 0.07727272727272805,
                "tempo": 120.0
            },
            {
                "start_time": 48.143181818181816,
                "end_time": 48.220454545454544,
                "pitch": 32,
                "velocity": 127,
                "duration": 0.07727272727272805,
                "tempo": 120.0
            },
            {
                "start_time": 45.81818181818181,
                "end_time": 48.324999999999996,
                "pitch": 35,
                "velocity": 127,
                "duration": 2.5068181818181827,
                "tempo": 120.0
            },
            {
                "start_time": 48.24772727272727,
                "end_time": 48.324999999999996,
                "pitch": 35,
                "velocity": 127,
                "duration": 0.07727272727272805,
                "tempo": 120.0
            },
            {
                "start_time": 47.086363636363636,
                "end_time": 48.35454545454545,
                "pitch": 7,
                "velocity": 127,
                "duration": 1.2681818181818159,
                "tempo": 120.0
            },
            {
                "start_time": 48.35454545454545,
                "end_time": 48.35909090909091,
                "pitch": 28,
                "velocity": 127,
                "duration": 0.004545454545457517,
                "tempo": 120.0
            }
        ],
        "French Horn": [
            {
                "start_time": 28.01590909090909,
                "end_time": 28.018181818181816,
                "pitch": 56,
                "velocity": 101,
                "duration": 0.0022727272727252057,
                "tempo": 120.0
            },
            {
                "start_time": 28.018181818181816,
                "end_time": 28.286363636363635,
                "pitch": 76,
                "velocity": 101,
                "duration": 0.2681818181818194,
                "tempo": 120.0
            },
            {
                "start_time": 28.34090909090909,
                "end_time": 28.602272727272727,
                "pitch": 74,
                "velocity": 101,
                "duration": 0.2613636363636367,
                "tempo": 120.0
            },
            {
                "start_time": 28.654545454545453,
                "end_time": 28.924999999999997,
                "pitch": 72,
                "velocity": 101,
                "duration": 0.2704545454545446,
                "tempo": 120.0
            },
            {
                "start_time": 28.34090909090909,
                "end_time": 28.979545454545452,
                "pitch": 76,
                "velocity": 101,
                "duration": 0.6386363636363619,
                "tempo": 120.0
            },
            {
                "start_time": 28.979545454545452,
                "end_time": 29.24090909090909,
                "pitch": 71,
                "velocity": 101,
                "duration": 0.2613636363636367,
                "tempo": 120.0
            },
            {
                "start_time": 28.979545454545452,
                "end_time": 29.554545454545455,
                "pitch": 76,
                "velocity": 101,
                "duration": 0.5750000000000028,
                "tempo": 120.0
            },
            {
                "start_time": 29.293181818181818,
                "end_time": 29.554545454545455,
                "pitch": 76,
                "velocity": 101,
                "duration": 0.2613636363636367,
                "tempo": 120.0
            },
            {
                "start_time": 28.654545454545453,
                "end_time": 29.877272727272725,
                "pitch": 74,
                "velocity": 101,
                "duration": 1.2227272727272727,
                "tempo": 120.0
            },
            {
                "start_time": 29.60681818181818,
                "end_time": 29.877272727272725,
                "pitch": 74,
                "velocity": 101,
                "duration": 0.2704545454545446,
                "tempo": 120.0
            },
            {
                "start_time": 29.93181818181818,
                "end_time": 30.193181818181817,
                "pitch": 72,
                "velocity": 101,
                "duration": 0.2613636363636367,
                "tempo": 120.0
            },
            {
                "start_time": 29.60681818181818,
                "end_time": 30.245454545454542,
                "pitch": 76,
                "velocity": 101,
                "duration": 0.6386363636363619,
                "tempo": 120.0
            },
            {
                "start_time": 30.245454545454542,
                "end_time": 30.50681818181818,
                "pitch": 71,
                "velocity": 101,
                "duration": 0.2613636363636367,
                "tempo": 120.0
            },
            {
                "start_time": 30.561363636363634,
                "end_time": 31.093181818181815,
                "pitch": 64,
                "velocity": 101,
                "duration": 0.5318181818181813,
                "tempo": 120.0
            },
            {
                "start_time": 31.2,
                "end_time": 31.722727272727273,
                "pitch": 64,
                "velocity": 101,
                "duration": 0.5227272727272734,
                "tempo": 120.0
            },
            {
                "start_time": 31.827272727272724,
                "end_time": 32.09772727272727,
                "pitch": 77,
                "velocity": 101,
                "duration": 0.2704545454545446,
                "tempo": 120.0
            },
            {
                "start_time": 30.245454545454542,
                "end_time": 32.413636363636364,
                "pitch": 76,
                "velocity": 101,
                "duration": 2.1681818181818215,
                "tempo": 120.0
            },
            {
                "start_time": 32.152272727272724,
                "end_time": 32.413636363636364,
                "pitch": 76,
                "velocity": 101,
                "duration": 0.26136363636364024,
                "tempo": 120.0
            },
            {
                "start_time": 32.465909090909086,
                "end_time": 32.736363636363635,
                "pitch": 77,
                "velocity": 101,
                "duration": 0.27045454545454817,
                "tempo": 120.0
            },
            {
                "start_time": 32.79090909090909,
                "end_time": 33.05227272727272,
                "pitch": 80,
                "velocity": 101,
                "duration": 0.26136363636363313,
                "tempo": 120.0
            },
            {
                "start_time": 40.72954545454545,
                "end_time": 41.94318181818181,
                "pitch": 76,
                "velocity": 101,
                "duration": 1.2136363636363612,
                "tempo": 120.0
            },
            {
                "start_time": 41.99772727272727,
                "end_time": 42.26590909090909,
                "pitch": 76,
                "velocity": 127,
                "duration": 0.26818181818182296,
                "tempo": 120.0
            },
            {
                "start_time": 42.320454545454545,
                "end_time": 42.58181818181818,
                "pitch": 76,
                "velocity": 127,
                "duration": 0.26136363636363313,
                "tempo": 120.0
            },
            {
                "start_time": 32.79090909090909,
                "end_time": 42.63636363636363,
                "pitch": 90,
                "velocity": 101,
                "duration": 9.845454545454544,
                "tempo": 120.0
            },
            {
                "start_time": 42.63636363636363,
                "end_time": 42.90454545454545,
                "pitch": 79,
                "velocity": 127,
                "duration": 0.26818181818181586,
                "tempo": 120.0
            },
            {
                "start_time": 42.959090909090904,
                "end_time": 43.220454545454544,
                "pitch": 77,
                "velocity": 127,
                "duration": 0.26136363636364024,
                "tempo": 120.0
            },
            {
                "start_time": 29.93181818181818,
                "end_time": 43.675,
                "pitch": 74,
                "velocity": 101,
                "duration": 13.743181818181817,
                "tempo": 120.0
            },
            {
                "start_time": 43.275,
                "end_time": 43.675,
                "pitch": 74,
                "velocity": 101,
                "duration": 0.3999999999999986,
                "tempo": 120.0
            },
            {
                "start_time": 43.275,
                "end_time": 43.70227272727273,
                "pitch": 77,
                "velocity": 101,
                "duration": 0.42727272727272947,
                "tempo": 120.0
            },
            {
                "start_time": 43.70227272727273,
                "end_time": 44.48863636363636,
                "pitch": 69,
                "velocity": 101,
                "duration": 0.7863636363636317,
                "tempo": 120.0
            },
            {
                "start_time": 44.54090909090909,
                "end_time": 44.94318181818181,
                "pitch": 69,
                "velocity": 101,
                "duration": 0.4022727272727238,
                "tempo": 120.0
            },
            {
                "start_time": 44.970454545454544,
                "end_time": 45.76363636363636,
                "pitch": 68,
                "velocity": 101,
                "duration": 0.7931818181818144,
                "tempo": 120.0
            },
            {
                "start_time": 45.81818181818181,
                "end_time": 46.211363636363636,
                "pitch": 62,
                "velocity": 101,
                "duration": 0.39318181818182296,
                "tempo": 120.0
            },
            {
                "start_time": 46.23863636363636,
                "end_time": 47.03181818181818,
                "pitch": 62,
                "velocity": 101,
                "duration": 0.7931818181818215,
                "tempo": 120.0
            },
            {
                "start_time": 47.086363636363636,
                "end_time": 47.24318181818182,
                "pitch": 64,
                "velocity": 101,
                "duration": 0.1568181818181813,
                "tempo": 120.0
            },
            {
                "start_time": 47.29545454545454,
                "end_time": 47.45227272727273,
                "pitch": 64,
                "velocity": 101,
                "duration": 0.1568181818181884,
                "tempo": 120.0
            },
            {
                "start_time": 47.50454545454545,
                "end_time": 47.66136363636363,
                "pitch": 64,
                "velocity": 101,
                "duration": 0.1568181818181813,
                "tempo": 120.0
            },
            {
                "start_time": 47.71363636363636,
                "end_time": 48.07727272727273,
                "pitch": 64,
                "velocity": 101,
                "duration": 0.36363636363636687,
                "tempo": 120.0
            }
        ],
        "Trumpet": [
            {
                "start_time": 33.10909090909091,
                "end_time": 33.63636363636363,
                "pitch": 56,
                "velocity": 101,
                "duration": 0.5272727272727238,
                "tempo": 120.0
            },
            {
                "start_time": 33.74545454545454,
                "end_time": 34.268181818181816,
                "pitch": 57,
                "velocity": 101,
                "duration": 0.5227272727272734,
                "tempo": 120.0
            },
            {
                "start_time": 34.375,
                "end_time": 34.902272727272724,
                "pitch": 58,
                "velocity": 101,
                "duration": 0.5272727272727238,
                "tempo": 120.0
            },
            {
                "start_time": 35.01136363636363,
                "end_time": 35.54090909090909,
                "pitch": 57,
                "velocity": 101,
                "duration": 0.5295454545454561,
                "tempo": 120.0
            },
            {
                "start_time": 35.652272727272724,
                "end_time": 35.72954545454545,
                "pitch": 52,
                "velocity": 101,
                "duration": 0.07727272727272805,
                "tempo": 120.0
            },
            {
                "start_time": 35.86590909090909,
                "end_time": 35.94772727272727,
                "pitch": 52,
                "velocity": 101,
                "duration": 0.08181818181817846,
                "tempo": 120.0
            },
            {
                "start_time": 35.975,
                "end_time": 36.05,
                "pitch": 52,
                "velocity": 101,
                "duration": 0.07499999999999574,
                "tempo": 120.0
            },
            {
                "start_time": 36.074999999999996,
                "end_time": 36.152272727272724,
                "pitch": 52,
                "velocity": 101,
                "duration": 0.07727272727272805,
                "tempo": 120.0
            },
            {
                "start_time": 36.17727272727272,
                "end_time": 36.252272727272725,
                "pitch": 52,
                "velocity": 101,
                "duration": 0.07500000000000284,
                "tempo": 120.0
            },
            {
                "start_time": 36.279545454545456,
                "end_time": 36.35681818181818,
                "pitch": 52,
                "velocity": 101,
                "duration": 0.07727272727272094,
                "tempo": 120.0
            },
            {
                "start_time": 36.48863636363636,
                "end_time": 36.56590909090909,
                "pitch": 52,
                "velocity": 101,
                "duration": 0.07727272727272805,
                "tempo": 120.0
            },
            {
                "start_time": 36.59318181818182,
                "end_time": 36.675,
                "pitch": 52,
                "velocity": 101,
                "duration": 0.08181818181817846,
                "tempo": 120.0
            },
            {
                "start_time": 36.70227272727273,
                "end_time": 36.78181818181818,
                "pitch": 52,
                "velocity": 101,
                "duration": 0.07954545454545325,
                "tempo": 120.0
            },
            {
                "start_time": 36.809090909090905,
                "end_time": 36.89090909090909,
                "pitch": 52,
                "velocity": 101,
                "duration": 0.08181818181818556,
                "tempo": 120.0
            },
            {
                "start_time": 36.92045454545455,
                "end_time": 37.074999999999996,
                "pitch": 64,
                "velocity": 101,
                "duration": 0.154545454545449,
                "tempo": 120.0
            },
            {
                "start_time": 37.127272727272725,
                "end_time": 37.28409090909091,
                "pitch": 64,
                "velocity": 101,
                "duration": 0.1568181818181813,
                "tempo": 120.0
            },
            {
                "start_time": 37.336363636363636,
                "end_time": 37.49318181818182,
                "pitch": 64,
                "velocity": 101,
                "duration": 0.1568181818181813,
                "tempo": 120.0
            },
            {
                "start_time": 37.54772727272727,
                "end_time": 37.70681818181818,
                "pitch": 64,
                "velocity": 101,
                "duration": 0.1590909090909065,
                "tempo": 120.0
            },
            {
                "start_time": 37.76363636363636,
                "end_time": 37.92272727272727,
                "pitch": 64,
                "velocity": 101,
                "duration": 0.1590909090909136,
                "tempo": 120.0
            },
            {
                "start_time": 37.97727272727273,
                "end_time": 38.13181818181818,
                "pitch": 64,
                "velocity": 101,
                "duration": 0.1545454545454561,
                "tempo": 120.0
            },
            {
                "start_time": 47.08863636363636,
                "end_time": 47.24318181818182,
                "pitch": 64,
                "velocity": 101,
                "duration": 0.1545454545454561,
                "tempo": 120.0
            },
            {
                "start_time": 47.29545454545454,
                "end_time": 47.45227272727273,
                "pitch": 64,
                "velocity": 101,
                "duration": 0.1568181818181884,
                "tempo": 120.0
            },
            {
                "start_time": 47.50681818181818,
                "end_time": 47.66136363636363,
                "pitch": 64,
                "velocity": 101,
                "duration": 0.154545454545449,
                "tempo": 120.0
            },
            {
                "start_time": 47.715909090909086,
                "end_time": 47.98409090909091,
                "pitch": 64,
                "velocity": 101,
                "duration": 0.26818181818182296,
                "tempo": 120.0
            }
        ],
        "Vibraphone": [
            {
                "start_time": 15.31590909090909,
                "end_time": 15.836363636363636,
                "pitch": 52,
                "velocity": 127,
                "duration": 0.5204545454545464,
                "tempo": 120.0
            },
            {
                "start_time": 15.94090909090909,
                "end_time": 16.470454545454544,
                "pitch": 52,
                "velocity": 127,
                "duration": 0.5295454545454543,
                "tempo": 120.0
            },
            {
                "start_time": 16.581818181818182,
                "end_time": 16.84090909090909,
                "pitch": 53,
                "velocity": 127,
                "duration": 0.25909090909090793,
                "tempo": 120.0
            },
            {
                "start_time": 16.895454545454545,
                "end_time": 17.15681818181818,
                "pitch": 52,
                "velocity": 127,
                "duration": 0.2613636363636367,
                "tempo": 120.0
            },
            {
                "start_time": 17.209090909090907,
                "end_time": 17.477272727272727,
                "pitch": 52,
                "velocity": 127,
                "duration": 0.2681818181818194,
                "tempo": 120.0
            },
            {
                "start_time": 17.534090909090907,
                "end_time": 17.802272727272726,
                "pitch": 52,
                "velocity": 127,
                "duration": 0.2681818181818194,
                "tempo": 120.0
            }
        ],
        "Acoustic Bass": [
            {
                "start_time": 0.05909090909090909,
                "end_time": 0.23863636363636362,
                "pitch": 45,
                "velocity": 101,
                "duration": 0.17954545454545454,
                "tempo": 120.0
            },
            {
                "start_time": 0.2659090909090909,
                "end_time": 0.34318181818181814,
                "pitch": 45,
                "velocity": 101,
                "duration": 0.07727272727272727,
                "tempo": 120.0
            },
            {
                "start_time": 0.3704545454545454,
                "end_time": 0.44999999999999996,
                "pitch": 45,
                "velocity": 101,
                "duration": 0.07954545454545453,
                "tempo": 120.0
            },
            {
                "start_time": 0.47727272727272724,
                "end_time": 0.5590909090909091,
                "pitch": 38,
                "velocity": 101,
                "duration": 0.08181818181818185,
                "tempo": 120.0
            },
            {
                "start_time": 0.5863636363636363,
                "end_time": 0.6659090909090909,
                "pitch": 40,
                "velocity": 101,
                "duration": 0.07954545454545459,
                "tempo": 120.0
            },
            {
                "start_time": 0.6931818181818181,
                "end_time": 0.8818181818181817,
                "pitch": 45,
                "velocity": 101,
                "duration": 0.1886363636363636,
                "tempo": 120.0
            },
            {
                "start_time": 0.9113636363636363,
                "end_time": 0.9909090909090909,
                "pitch": 45,
                "velocity": 101,
                "duration": 0.07954545454545459,
                "tempo": 120.0
            },
            {
                "start_time": 1.0204545454545455,
                "end_time": 1.0954545454545455,
                "pitch": 48,
                "velocity": 101,
                "duration": 0.07499999999999996,
                "tempo": 120.0
            },
            {
                "start_time": 1.1227272727272726,
                "end_time": 1.2022727272727272,
                "pitch": 47,
                "velocity": 101,
                "duration": 0.07954545454545459,
                "tempo": 120.0
            },
            {
                "start_time": 1.2295454545454545,
                "end_time": 1.3068181818181817,
                "pitch": 50,
                "velocity": 101,
                "duration": 0.07727272727272716,
                "tempo": 120.0
            },
            {
                "start_time": 1.334090909090909,
                "end_time": 1.5204545454545453,
                "pitch": 45,
                "velocity": 101,
                "duration": 0.1863636363636363,
                "tempo": 120.0
            },
            {
                "start_time": 1.5499999999999998,
                "end_time": 1.6295454545454544,
                "pitch": 45,
                "velocity": 101,
                "duration": 0.07954545454545459,
                "tempo": 120.0
            },
            {
                "start_time": 1.6568181818181817,
                "end_time": 1.7318181818181817,
                "pitch": 45,
                "velocity": 101,
                "duration": 0.07499999999999996,
                "tempo": 120.0
            },
            {
                "start_time": 0.47727272727272724,
                "end_time": 1.759090909090909,
                "pitch": 7,
                "velocity": 101,
                "duration": 1.2818181818181817,
                "tempo": 120.0
            },
            {
                "start_time": 0.5863636363636363,
                "end_time": 1.834090909090909,
                "pitch": 38,
                "velocity": 101,
                "duration": 1.2477272727272726,
                "tempo": 120.0
            },
            {
                "start_time": 1.759090909090909,
                "end_time": 1.834090909090909,
                "pitch": 38,
                "velocity": 101,
                "duration": 0.07499999999999996,
                "tempo": 120.0
            },
            {
                "start_time": 1.859090909090909,
                "end_time": 1.9363636363636363,
                "pitch": 40,
                "velocity": 101,
                "duration": 0.07727272727272738,
                "tempo": 120.0
            },
            {
                "start_time": 0.6931818181818181,
                "end_time": 1.9613636363636362,
                "pitch": 54,
                "velocity": 101,
                "duration": 1.268181818181818,
                "tempo": 120.0
            },
            {
                "start_time": 1.9613636363636362,
                "end_time": 2.15,
                "pitch": 45,
                "velocity": 101,
                "duration": 0.1886363636363637,
                "tempo": 120.0
            },
            {
                "start_time": 2.1772727272727272,
                "end_time": 2.256818181818182,
                "pitch": 45,
                "velocity": 101,
                "duration": 0.07954545454545459,
                "tempo": 120.0
            },
            {
                "start_time": 1.0204545454545455,
                "end_time": 2.286363636363636,
                "pitch": 19,
                "velocity": 101,
                "duration": 1.2659090909090907,
                "tempo": 120.0
            },
            {
                "start_time": 2.286363636363636,
                "end_time": 2.3636363636363633,
                "pitch": 48,
                "velocity": 101,
                "duration": 0.07727272727272716,
                "tempo": 120.0
            },
            {
                "start_time": 1.1227272727272726,
                "end_time": 2.3909090909090907,
                "pitch": 52,
                "velocity": 101,
                "duration": 1.268181818181818,
                "tempo": 120.0
            },
            {
                "start_time": 2.3909090909090907,
                "end_time": 2.4681818181818183,
                "pitch": 47,
                "velocity": 101,
                "duration": 0.0772727272727276,
                "tempo": 120.0
            },
            {
                "start_time": 1.2295454545454545,
                "end_time": 2.495454545454545,
                "pitch": 32,
                "velocity": 101,
                "duration": 1.2659090909090907,
                "tempo": 120.0
            },
            {
                "start_time": 2.495454545454545,
                "end_time": 2.5727272727272728,
                "pitch": 50,
                "velocity": 101,
                "duration": 0.0772727272727276,
                "tempo": 120.0
            },
            {
                "start_time": 1.334090909090909,
                "end_time": 2.6045454545454545,
                "pitch": 53,
                "velocity": 101,
                "duration": 1.2704545454545455,
                "tempo": 120.0
            },
            {
                "start_time": 2.6045454545454545,
                "end_time": 2.7818181818181817,
                "pitch": 45,
                "velocity": 101,
                "duration": 0.17727272727272725,
                "tempo": 120.0
            },
            {
                "start_time": 2.811363636363636,
                "end_time": 2.8886363636363637,
                "pitch": 45,
                "velocity": 101,
                "duration": 0.0772727272727276,
                "tempo": 120.0
            },
            {
                "start_time": 2.9159090909090906,
                "end_time": 2.993181818181818,
                "pitch": 45,
                "velocity": 101,
                "duration": 0.0772727272727276,
                "tempo": 120.0
            },
            {
                "start_time": 1.759090909090909,
                "end_time": 3.018181818181818,
                "pitch": 7,
                "velocity": 101,
                "duration": 1.259090909090909,
                "tempo": 120.0
            },
            {
                "start_time": 1.859090909090909,
                "end_time": 3.0977272727272727,
                "pitch": 38,
                "velocity": 101,
                "duration": 1.2386363636363638,
                "tempo": 120.0
            },
            {
                "start_time": 3.018181818181818,
                "end_time": 3.0977272727272727,
                "pitch": 38,
                "velocity": 101,
                "duration": 0.07954545454545459,
                "tempo": 120.0
            },
            {
                "start_time": 3.1227272727272726,
                "end_time": 3.202272727272727,
                "pitch": 40,
                "velocity": 101,
                "duration": 0.07954545454545459,
                "tempo": 120.0
            },
            {
                "start_time": 1.9613636363636362,
                "end_time": 3.2295454545454545,
                "pitch": 54,
                "velocity": 101,
                "duration": 1.2681818181818183,
                "tempo": 120.0
            },
            {
                "start_time": 3.2295454545454545,
                "end_time": 3.418181818181818,
                "pitch": 45,
                "velocity": 101,
                "duration": 0.1886363636363635,
                "tempo": 120.0
            },
            {
                "start_time": 3.4454545454545453,
                "end_time": 3.525,
                "pitch": 45,
                "velocity": 101,
                "duration": 0.07954545454545459,
                "tempo": 120.0
            },
            {
                "start_time": 2.286363636363636,
                "end_time": 3.5545454545454542,
                "pitch": 19,
                "velocity": 101,
                "duration": 1.268181818181818,
                "tempo": 120.0
            },
            {
                "start_time": 3.5545454545454542,
                "end_time": 3.631818181818182,
                "pitch": 48,
                "velocity": 101,
                "duration": 0.0772727272727276,
                "tempo": 120.0
            },
            {
                "start_time": 2.3909090909090907,
                "end_time": 3.6568181818181817,
                "pitch": 52,
                "velocity": 101,
                "duration": 1.265909090909091,
                "tempo": 120.0
            },
            {
                "start_time": 3.6568181818181817,
                "end_time": 3.7363636363636363,
                "pitch": 47,
                "velocity": 101,
                "duration": 0.07954545454545459,
                "tempo": 120.0
            },
            {
                "start_time": 2.495454545454545,
                "end_time": 3.7636363636363637,
                "pitch": 32,
                "velocity": 101,
                "duration": 1.2681818181818185,
                "tempo": 120.0
            },
            {
                "start_time": 3.7636363636363637,
                "end_time": 3.840909090909091,
                "pitch": 50,
                "velocity": 101,
                "duration": 0.07727272727272716,
                "tempo": 120.0
            },
            {
                "start_time": 2.6045454545454545,
                "end_time": 3.870454545454545,
                "pitch": 53,
                "velocity": 101,
                "duration": 1.2659090909090907,
                "tempo": 120.0
            },
            {
                "start_time": 3.870454545454545,
                "end_time": 4.056818181818182,
                "pitch": 45,
                "velocity": 101,
                "duration": 0.1863636363636365,
                "tempo": 120.0
            },
            {
                "start_time": 4.084090909090909,
                "end_time": 4.163636363636363,
                "pitch": 45,
                "velocity": 101,
                "duration": 0.07954545454545414,
                "tempo": 120.0
            },
            {
                "start_time": 4.193181818181818,
                "end_time": 4.2727272727272725,
                "pitch": 45,
                "velocity": 101,
                "duration": 0.07954545454545414,
                "tempo": 120.0
            },
            {
                "start_time": 3.018181818181818,
                "end_time": 4.3,
                "pitch": 7,
                "velocity": 101,
                "duration": 1.2818181818181817,
                "tempo": 120.0
            },
            {
                "start_time": 3.1227272727272726,
                "end_time": 4.379545454545454,
                "pitch": 38,
                "velocity": 101,
                "duration": 1.2568181818181814,
                "tempo": 120.0
            },
            {
                "start_time": 4.3,
                "end_time": 4.379545454545454,
                "pitch": 38,
                "velocity": 101,
                "duration": 0.07954545454545414,
                "tempo": 120.0
            },
            {
                "start_time": 4.406818181818181,
                "end_time": 4.488636363636363,
                "pitch": 40,
                "velocity": 101,
                "duration": 0.08181818181818201,
                "tempo": 120.0
            },
            {
                "start_time": 3.2295454545454545,
                "end_time": 4.515909090909091,
                "pitch": 54,
                "velocity": 101,
                "duration": 1.2863636363636362,
                "tempo": 120.0
            },
            {
                "start_time": 4.515909090909091,
                "end_time": 4.7,
                "pitch": 45,
                "velocity": 101,
                "duration": 0.18409090909090953,
                "tempo": 120.0
            },
            {
                "start_time": 4.725,
                "end_time": 4.804545454545455,
                "pitch": 45,
                "velocity": 101,
                "duration": 0.07954545454545503,
                "tempo": 120.0
            },
            {
                "start_time": 3.5545454545454542,
                "end_time": 4.831818181818182,
                "pitch": 19,
                "velocity": 101,
                "duration": 1.2772727272727278,
                "tempo": 120.0
            },
            {
                "start_time": 4.831818181818182,
                "end_time": 4.909090909090909,
                "pitch": 48,
                "velocity": 101,
                "duration": 0.07727272727272716,
                "tempo": 120.0
            },
            {
                "start_time": 3.6568181818181817,
                "end_time": 4.934090909090909,
                "pitch": 52,
                "velocity": 101,
                "duration": 1.277272727272727,
                "tempo": 120.0
            },
            {
                "start_time": 4.934090909090909,
                "end_time": 5.013636363636364,
                "pitch": 47,
                "velocity": 101,
                "duration": 0.07954545454545503,
                "tempo": 120.0
            },
            {
                "start_time": 3.7636363636363637,
                "end_time": 5.040909090909091,
                "pitch": 32,
                "velocity": 101,
                "duration": 1.2772727272727273,
                "tempo": 120.0
            },
            {
                "start_time": 5.040909090909091,
                "end_time": 5.118181818181818,
                "pitch": 50,
                "velocity": 101,
                "duration": 0.07727272727272716,
                "tempo": 120.0
            },
            {
                "start_time": 3.870454545454545,
                "end_time": 5.1477272727272725,
                "pitch": 53,
                "velocity": 101,
                "duration": 1.2772727272727273,
                "tempo": 120.0
            },
            {
                "start_time": 5.1477272727272725,
                "end_time": 5.334090909090909,
                "pitch": 45,
                "velocity": 101,
                "duration": 0.1863636363636365,
                "tempo": 120.0
            },
            {
                "start_time": 5.361363636363636,
                "end_time": 5.4409090909090905,
                "pitch": 45,
                "velocity": 101,
                "duration": 0.07954545454545414,
                "tempo": 120.0
            },
            {
                "start_time": 5.470454545454545,
                "end_time": 5.547727272727273,
                "pitch": 57,
                "velocity": 101,
                "duration": 0.07727272727272805,
                "tempo": 120.0
            },
            {
                "start_time": 4.831818181818182,
                "end_time": 5.572727272727272,
                "pitch": 19,
                "velocity": 101,
                "duration": 0.7409090909090903,
                "tempo": 120.0
            },
            {
                "start_time": 4.934090909090909,
                "end_time": 5.652272727272727,
                "pitch": 52,
                "velocity": 101,
                "duration": 0.7181818181818187,
                "tempo": 120.0
            },
            {
                "start_time": 5.572727272727272,
                "end_time": 5.652272727272727,
                "pitch": 52,
                "velocity": 101,
                "duration": 0.07954545454545503,
                "tempo": 120.0
            },
            {
                "start_time": 5.679545454545455,
                "end_time": 5.756818181818182,
                "pitch": 55,
                "velocity": 101,
                "duration": 0.07727272727272716,
                "tempo": 120.0
            },
            {
                "start_time": 0.05909090909090909,
                "end_time": 5.784090909090909,
                "pitch": 43,
                "velocity": 101,
                "duration": 5.725,
                "tempo": 120.0
            },
            {
                "start_time": 5.784090909090909,
                "end_time": 5.965909090909091,
                "pitch": 45,
                "velocity": 101,
                "duration": 0.18181818181818166,
                "tempo": 120.0
            },
            {
                "start_time": 5.993181818181818,
                "end_time": 6.070454545454545,
                "pitch": 45,
                "velocity": 101,
                "duration": 0.07727272727272716,
                "tempo": 120.0
            },
            {
                "start_time": 6.1,
                "end_time": 6.175,
                "pitch": 55,
                "velocity": 101,
                "duration": 0.07500000000000018,
                "tempo": 120.0
            },
            {
                "start_time": 6.202272727272727,
                "end_time": 6.279545454545454,
                "pitch": 50,
                "velocity": 101,
                "duration": 0.07727272727272716,
                "tempo": 120.0
            },
            {
                "start_time": 5.1477272727272725,
                "end_time": 6.386363636363636,
                "pitch": 53,
                "velocity": 101,
                "duration": 1.2386363636363633,
                "tempo": 120.0
            },
            {
                "start_time": 6.306818181818182,
                "end_time": 6.386363636363636,
                "pitch": 53,
                "velocity": 101,
                "duration": 0.07954545454545414,
                "tempo": 120.0
            },
            {
                "start_time": 4.515909090909091,
                "end_time": 6.413636363636363,
                "pitch": 54,
                "velocity": 101,
                "duration": 1.8977272727272725,
                "tempo": 120.0
            },
            {
                "start_time": 6.413636363636363,
                "end_time": 6.6,
                "pitch": 45,
                "velocity": 101,
                "duration": 0.1863636363636365,
                "tempo": 120.0
            },
            {
                "start_time": 6.629545454545454,
                "end_time": 6.709090909090909,
                "pitch": 45,
                "velocity": 101,
                "duration": 0.07954545454545503,
                "tempo": 120.0
            },
            {
                "start_time": 5.572727272727272,
                "end_time": 6.738636363636363,
                "pitch": 19,
                "velocity": 101,
                "duration": 1.165909090909091,
                "tempo": 120.0
            },
            {
                "start_time": 6.738636363636363,
                "end_time": 6.997727272727272,
                "pitch": 53,
                "velocity": 101,
                "duration": 0.2590909090909088,
                "tempo": 120.0
            },
            {
                "start_time": 6.306818181818182,
                "end_time": 7.311363636363636,
                "pitch": 50,
                "velocity": 101,
                "duration": 1.004545454545454,
                "tempo": 120.0
            },
            {
                "start_time": 7.052272727272727,
                "end_time": 7.311363636363636,
                "pitch": 50,
                "velocity": 101,
                "duration": 0.2590909090909088,
                "tempo": 120.0
            },
            {
                "start_time": 7.36590909090909,
                "end_time": 7.634090909090909,
                "pitch": 52,
                "velocity": 101,
                "duration": 0.2681818181818185,
                "tempo": 120.0
            },
            {
                "start_time": 6.413636363636363,
                "end_time": 7.6909090909090905,
                "pitch": 54,
                "velocity": 101,
                "duration": 1.2772727272727273,
                "tempo": 120.0
            },
            {
                "start_time": 7.6909090909090905,
                "end_time": 7.872727272727272,
                "pitch": 45,
                "velocity": 101,
                "duration": 0.18181818181818166,
                "tempo": 120.0
            },
            {
                "start_time": 7.8999999999999995,
                "end_time": 7.977272727272727,
                "pitch": 45,
                "velocity": 101,
                "duration": 0.07727272727272716,
                "tempo": 120.0
            },
            {
                "start_time": 6.1,
                "end_time": 8.081818181818182,
                "pitch": 57,
                "velocity": 101,
                "duration": 1.9818181818181824,
                "tempo": 120.0
            },
            {
                "start_time": 8.004545454545454,
                "end_time": 8.081818181818182,
                "pitch": 57,
                "velocity": 101,
                "duration": 0.07727272727272805,
                "tempo": 120.0
            },
            {
                "start_time": 6.738636363636363,
                "end_time": 8.10909090909091,
                "pitch": 19,
                "velocity": 101,
                "duration": 1.370454545454546,
                "tempo": 120.0
            },
            {
                "start_time": 8.10909090909091,
                "end_time": 8.186363636363636,
                "pitch": 52,
                "velocity": 101,
                "duration": 0.07727272727272627,
                "tempo": 120.0
            },
            {
                "start_time": 5.679545454545455,
                "end_time": 8.213636363636363,
                "pitch": 66,
                "velocity": 101,
                "duration": 2.5340909090909083,
                "tempo": 120.0
            },
            {
                "start_time": 8.213636363636363,
                "end_time": 8.290909090909091,
                "pitch": 55,
                "velocity": 101,
                "duration": 0.07727272727272805,
                "tempo": 120.0
            },
            {
                "start_time": 5.784090909090909,
                "end_time": 8.318181818181818,
                "pitch": 43,
                "velocity": 101,
                "duration": 2.534090909090909,
                "tempo": 120.0
            },
            {
                "start_time": 8.318181818181818,
                "end_time": 8.506818181818181,
                "pitch": 45,
                "velocity": 101,
                "duration": 0.1886363636363626,
                "tempo": 120.0
            },
            {
                "start_time": 8.534090909090908,
                "end_time": 8.61590909090909,
                "pitch": 45,
                "velocity": 101,
                "duration": 0.08181818181818201,
                "tempo": 120.0
            },
            {
                "start_time": 8.643181818181818,
                "end_time": 8.720454545454546,
                "pitch": 55,
                "velocity": 101,
                "duration": 0.07727272727272805,
                "tempo": 120.0
            },
            {
                "start_time": 6.202272727272727,
                "end_time": 8.747727272727273,
                "pitch": 0,
                "velocity": 101,
                "duration": 2.545454545454546,
                "tempo": 120.0
            },
            {
                "start_time": 7.36590909090909,
                "end_time": 8.825,
                "pitch": 50,
                "velocity": 101,
                "duration": 1.459090909090909,
                "tempo": 120.0
            },
            {
                "start_time": 8.747727272727273,
                "end_time": 8.825,
                "pitch": 50,
                "velocity": 101,
                "duration": 0.07727272727272627,
                "tempo": 120.0
            },
            {
                "start_time": 7.052272727272727,
                "end_time": 8.929545454545455,
                "pitch": 53,
                "velocity": 101,
                "duration": 1.8772727272727279,
                "tempo": 120.0
            },
            {
                "start_time": 8.852272727272727,
                "end_time": 8.929545454545455,
                "pitch": 53,
                "velocity": 101,
                "duration": 0.07727272727272805,
                "tempo": 120.0
            },
            {
                "start_time": 7.6909090909090905,
                "end_time": 8.959090909090909,
                "pitch": 54,
                "velocity": 101,
                "duration": 1.2681818181818185,
                "tempo": 120.0
            },
            {
                "start_time": 8.959090909090909,
                "end_time": 9.145454545454545,
                "pitch": 45,
                "velocity": 101,
                "duration": 0.18636363636363562,
                "tempo": 120.0
            },
            {
                "start_time": 9.172727272727272,
                "end_time": 9.252272727272727,
                "pitch": 45,
                "velocity": 101,
                "duration": 0.07954545454545503,
                "tempo": 120.0
            },
            {
                "start_time": 8.10909090909091,
                "end_time": 9.281818181818181,
                "pitch": 19,
                "velocity": 101,
                "duration": 1.172727272727272,
                "tempo": 120.0
            },
            {
                "start_time": 9.281818181818181,
                "end_time": 9.543181818181818,
                "pitch": 53,
                "velocity": 101,
                "duration": 0.2613636363636367,
                "tempo": 120.0
            },
            {
                "start_time": 8.852272727272727,
                "end_time": 9.85681818181818,
                "pitch": 50,
                "velocity": 101,
                "duration": 1.004545454545454,
                "tempo": 120.0
            },
            {
                "start_time": 9.597727272727273,
                "end_time": 9.85681818181818,
                "pitch": 50,
                "velocity": 101,
                "duration": 0.25909090909090793,
                "tempo": 120.0
            },
            {
                "start_time": 9.911363636363635,
                "end_time": 10.179545454545455,
                "pitch": 52,
                "velocity": 101,
                "duration": 0.2681818181818194,
                "tempo": 120.0
            },
            {
                "start_time": 8.959090909090909,
                "end_time": 10.236363636363636,
                "pitch": 54,
                "velocity": 101,
                "duration": 1.2772727272727273,
                "tempo": 120.0
            },
            {
                "start_time": 10.236363636363636,
                "end_time": 10.415909090909091,
                "pitch": 45,
                "velocity": 101,
                "duration": 0.17954545454545467,
                "tempo": 120.0
            },
            {
                "start_time": 10.445454545454545,
                "end_time": 10.522727272727272,
                "pitch": 45,
                "velocity": 101,
                "duration": 0.07727272727272627,
                "tempo": 120.0
            },
            {
                "start_time": 8.643181818181818,
                "end_time": 10.627272727272727,
                "pitch": 57,
                "velocity": 101,
                "duration": 1.9840909090909093,
                "tempo": 120.0
            },
            {
                "start_time": 10.549999999999999,
                "end_time": 10.627272727272727,
                "pitch": 57,
                "velocity": 101,
                "duration": 0.07727272727272805,
                "tempo": 120.0
            },
            {
                "start_time": 9.281818181818181,
                "end_time": 10.652272727272727,
                "pitch": 19,
                "velocity": 101,
                "duration": 1.370454545454546,
                "tempo": 120.0
            },
            {
                "start_time": 10.652272727272727,
                "end_time": 10.73181818181818,
                "pitch": 52,
                "velocity": 101,
                "duration": 0.07954545454545325,
                "tempo": 120.0
            },
            {
                "start_time": 8.213636363636363,
                "end_time": 10.759090909090908,
                "pitch": 66,
                "velocity": 101,
                "duration": 2.545454545454545,
                "tempo": 120.0
            },
            {
                "start_time": 10.759090909090908,
                "end_time": 10.836363636363636,
                "pitch": 55,
                "velocity": 101,
                "duration": 0.07727272727272805,
                "tempo": 120.0
            },
            {
                "start_time": 8.318181818181818,
                "end_time": 10.863636363636363,
                "pitch": 43,
                "velocity": 101,
                "duration": 2.545454545454545,
                "tempo": 120.0
            },
            {
                "start_time": 10.863636363636363,
                "end_time": 11.045454545454545,
                "pitch": 45,
                "velocity": 101,
                "duration": 0.18181818181818166,
                "tempo": 120.0
            },
            {
                "start_time": 11.072727272727272,
                "end_time": 11.149999999999999,
                "pitch": 45,
                "velocity": 101,
                "duration": 0.07727272727272627,
                "tempo": 120.0
            },
            {
                "start_time": 11.179545454545455,
                "end_time": 11.256818181818181,
                "pitch": 55,
                "velocity": 101,
                "duration": 0.07727272727272627,
                "tempo": 120.0
            },
            {
                "start_time": 8.747727272727273,
                "end_time": 11.284090909090908,
                "pitch": 0,
                "velocity": 101,
                "duration": 2.5363636363636353,
                "tempo": 120.0
            },
            {
                "start_time": 9.911363636363635,
                "end_time": 11.36590909090909,
                "pitch": 50,
                "velocity": 101,
                "duration": 1.454545454545455,
                "tempo": 120.0
            },
            {
                "start_time": 11.284090909090908,
                "end_time": 11.36590909090909,
                "pitch": 50,
                "velocity": 101,
                "duration": 0.08181818181818201,
                "tempo": 120.0
            },
            {
                "start_time": 9.597727272727273,
                "end_time": 11.472727272727273,
                "pitch": 53,
                "velocity": 101,
                "duration": 1.875,
                "tempo": 120.0
            },
            {
                "start_time": 11.393181818181818,
                "end_time": 11.472727272727273,
                "pitch": 53,
                "velocity": 101,
                "duration": 0.07954545454545503,
                "tempo": 120.0
            },
            {
                "start_time": 10.236363636363636,
                "end_time": 11.502272727272727,
                "pitch": 54,
                "velocity": 101,
                "duration": 1.2659090909090907,
                "tempo": 120.0
            },
            {
                "start_time": 11.502272727272727,
                "end_time": 11.684090909090909,
                "pitch": 45,
                "velocity": 101,
                "duration": 0.18181818181818166,
                "tempo": 120.0
            },
            {
                "start_time": 11.711363636363636,
                "end_time": 11.788636363636362,
                "pitch": 45,
                "velocity": 101,
                "duration": 0.07727272727272627,
                "tempo": 120.0
            },
            {
                "start_time": 10.652272727272727,
                "end_time": 11.818181818181818,
                "pitch": 19,
                "velocity": 101,
                "duration": 1.165909090909091,
                "tempo": 120.0
            },
            {
                "start_time": 11.818181818181818,
                "end_time": 12.086363636363636,
                "pitch": 53,
                "velocity": 101,
                "duration": 0.26818181818181763,
                "tempo": 120.0
            },
            {
                "start_time": 11.393181818181818,
                "end_time": 12.402272727272727,
                "pitch": 50,
                "velocity": 101,
                "duration": 1.0090909090909097,
                "tempo": 120.0
            },
            {
                "start_time": 12.14090909090909,
                "end_time": 12.402272727272727,
                "pitch": 50,
                "velocity": 101,
                "duration": 0.2613636363636367,
                "tempo": 120.0
            },
            {
                "start_time": 12.456818181818182,
                "end_time": 12.71590909090909,
                "pitch": 52,
                "velocity": 101,
                "duration": 0.25909090909090793,
                "tempo": 120.0
            },
            {
                "start_time": 11.502272727272727,
                "end_time": 12.770454545454545,
                "pitch": 54,
                "velocity": 101,
                "duration": 1.2681818181818176,
                "tempo": 120.0
            },
            {
                "start_time": 12.770454545454545,
                "end_time": 12.956818181818182,
                "pitch": 45,
                "velocity": 101,
                "duration": 0.1863636363636374,
                "tempo": 120.0
            },
            {
                "start_time": 12.986363636363636,
                "end_time": 13.06590909090909,
                "pitch": 45,
                "velocity": 101,
                "duration": 0.07954545454545325,
                "tempo": 120.0
            },
            {
                "start_time": 11.179545454545455,
                "end_time": 13.170454545454545,
                "pitch": 57,
                "velocity": 101,
                "duration": 1.9909090909090903,
                "tempo": 120.0
            },
            {
                "start_time": 13.095454545454546,
                "end_time": 13.170454545454545,
                "pitch": 57,
                "velocity": 101,
                "duration": 0.07499999999999929,
                "tempo": 120.0
            },
            {
                "start_time": 11.818181818181818,
                "end_time": 13.197727272727272,
                "pitch": 19,
                "velocity": 101,
                "duration": 1.379545454545454,
                "tempo": 120.0
            },
            {
                "start_time": 13.197727272727272,
                "end_time": 13.274999999999999,
                "pitch": 52,
                "velocity": 101,
                "duration": 0.07727272727272627,
                "tempo": 120.0
            },
            {
                "start_time": 10.759090909090908,
                "end_time": 13.302272727272726,
                "pitch": 66,
                "velocity": 101,
                "duration": 2.543181818181818,
                "tempo": 120.0
            },
            {
                "start_time": 13.302272727272726,
                "end_time": 13.379545454545454,
                "pitch": 55,
                "velocity": 101,
                "duration": 0.07727272727272805,
                "tempo": 120.0
            },
            {
                "start_time": 10.863636363636363,
                "end_time": 13.409090909090908,
                "pitch": 43,
                "velocity": 101,
                "duration": 2.545454545454545,
                "tempo": 120.0
            },
            {
                "start_time": 13.409090909090908,
                "end_time": 13.59090909090909,
                "pitch": 45,
                "velocity": 101,
                "duration": 0.18181818181818166,
                "tempo": 120.0
            },
            {
                "start_time": 13.618181818181817,
                "end_time": 13.695454545454545,
                "pitch": 45,
                "velocity": 101,
                "duration": 0.07727272727272805,
                "tempo": 120.0
            },
            {
                "start_time": 13.722727272727273,
                "end_time": 13.799999999999999,
                "pitch": 55,
                "velocity": 101,
                "duration": 0.07727272727272627,
                "tempo": 120.0
            },
            {
                "start_time": 11.284090909090908,
                "end_time": 13.827272727272726,
                "pitch": 0,
                "velocity": 101,
                "duration": 2.543181818181818,
                "tempo": 120.0
            },
            {
                "start_time": 12.456818181818182,
                "end_time": 13.904545454545454,
                "pitch": 50,
                "velocity": 101,
                "duration": 1.4477272727272723,
                "tempo": 120.0
            },
            {
                "start_time": 13.827272727272726,
                "end_time": 13.904545454545454,
                "pitch": 50,
                "velocity": 101,
                "duration": 0.07727272727272805,
                "tempo": 120.0
            },
            {
                "start_time": 12.14090909090909,
                "end_time": 14.009090909090908,
                "pitch": 53,
                "velocity": 101,
                "duration": 1.8681818181818173,
                "tempo": 120.0
            },
            {
                "start_time": 13.931818181818182,
                "end_time": 14.009090909090908,
                "pitch": 53,
                "velocity": 101,
                "duration": 0.07727272727272627,
                "tempo": 120.0
            },
            {
                "start_time": 12.770454545454545,
                "end_time": 14.036363636363635,
                "pitch": 54,
                "velocity": 101,
                "duration": 1.2659090909090907,
                "tempo": 120.0
            },
            {
                "start_time": 14.036363636363635,
                "end_time": 14.225,
                "pitch": 45,
                "velocity": 101,
                "duration": 0.18863636363636438,
                "tempo": 120.0
            },
            {
                "start_time": 14.252272727272727,
                "end_time": 14.33181818181818,
                "pitch": 45,
                "velocity": 101,
                "duration": 0.07954545454545325,
                "tempo": 120.0
            },
            {
                "start_time": 13.197727272727272,
                "end_time": 14.361363636363636,
                "pitch": 19,
                "velocity": 101,
                "duration": 1.163636363636364,
                "tempo": 120.0
            },
            {
                "start_time": 14.361363636363636,
                "end_time": 14.622727272727271,
                "pitch": 53,
                "velocity": 101,
                "duration": 0.2613636363636349,
                "tempo": 120.0
            },
            {
                "start_time": 13.931818181818182,
                "end_time": 14.943181818181818,
                "pitch": 50,
                "velocity": 101,
                "duration": 1.0113636363636367,
                "tempo": 120.0
            },
            {
                "start_time": 14.677272727272726,
                "end_time": 14.943181818181818,
                "pitch": 50,
                "velocity": 101,
                "duration": 0.2659090909090924,
                "tempo": 120.0
            },
            {
                "start_time": 15.0,
                "end_time": 15.261363636363635,
                "pitch": 52,
                "velocity": 101,
                "duration": 0.2613636363636349,
                "tempo": 120.0
            },
            {
                "start_time": 14.036363636363635,
                "end_time": 48.35681818181818,
                "pitch": 54,
                "velocity": 101,
                "duration": 34.32045454545454,
                "tempo": 120.0
            },
            {
                "start_time": 48.35681818181818,
                "end_time": 48.35909090909091,
                "pitch": 45,
                "velocity": 101,
                "duration": 0.002272727272732311,
                "tempo": 120.0
            }
        ],
        "Acoustic Guitar (nylon)": [
            {
                "start_time": 45.820454545454545,
                "end_time": 45.85681818181818,
                "pitch": 62,
                "velocity": 101,
                "duration": 0.03636363636363171,
                "tempo": 120.0
            },
            {
                "start_time": 45.87045454545454,
                "end_time": 45.90909090909091,
                "pitch": 62,
                "velocity": 101,
                "duration": 0.038636363636364024,
                "tempo": 120.0
            },
            {
                "start_time": 45.92272727272727,
                "end_time": 45.961363636363636,
                "pitch": 62,
                "velocity": 101,
                "duration": 0.038636363636364024,
                "tempo": 120.0
            },
            {
                "start_time": 45.974999999999994,
                "end_time": 46.01363636363636,
                "pitch": 62,
                "velocity": 101,
                "duration": 0.038636363636364024,
                "tempo": 120.0
            },
            {
                "start_time": 46.02954545454545,
                "end_time": 46.06590909090909,
                "pitch": 62,
                "velocity": 101,
                "duration": 0.03636363636363882,
                "tempo": 120.0
            },
            {
                "start_time": 46.07954545454545,
                "end_time": 46.11818181818182,
                "pitch": 62,
                "velocity": 101,
                "duration": 0.038636363636364024,
                "tempo": 120.0
            },
            {
                "start_time": 46.13409090909091,
                "end_time": 46.17045454545455,
                "pitch": 64,
                "velocity": 101,
                "duration": 0.03636363636363882,
                "tempo": 120.0
            },
            {
                "start_time": 46.184090909090905,
                "end_time": 46.224999999999994,
                "pitch": 64,
                "velocity": 101,
                "duration": 0.04090909090908923,
                "tempo": 120.0
            },
            {
                "start_time": 46.23863636363636,
                "end_time": 46.277272727272724,
                "pitch": 64,
                "velocity": 101,
                "duration": 0.038636363636364024,
                "tempo": 120.0
            },
            {
                "start_time": 46.288636363636364,
                "end_time": 46.32954545454545,
                "pitch": 64,
                "velocity": 101,
                "duration": 0.04090909090908923,
                "tempo": 120.0
            },
            {
                "start_time": 46.34318181818182,
                "end_time": 46.38181818181818,
                "pitch": 64,
                "velocity": 101,
                "duration": 0.038636363636364024,
                "tempo": 120.0
            },
            {
                "start_time": 46.39545454545454,
                "end_time": 46.434090909090905,
                "pitch": 64,
                "velocity": 101,
                "duration": 0.038636363636364024,
                "tempo": 120.0
            },
            {
                "start_time": 46.44772727272727,
                "end_time": 46.486363636363635,
                "pitch": 64,
                "velocity": 101,
                "duration": 0.038636363636364024,
                "tempo": 120.0
            },
            {
                "start_time": 46.5,
                "end_time": 46.54090909090909,
                "pitch": 65,
                "velocity": 101,
                "duration": 0.04090909090908923,
                "tempo": 120.0
            },
            {
                "start_time": 46.554545454545455,
                "end_time": 46.595454545454544,
                "pitch": 65,
                "velocity": 101,
                "duration": 0.04090909090908923,
                "tempo": 120.0
            },
            {
                "start_time": 46.60909090909091,
                "end_time": 46.65,
                "pitch": 65,
                "velocity": 101,
                "duration": 0.04090909090908923,
                "tempo": 120.0
            },
            {
                "start_time": 46.663636363636364,
                "end_time": 46.70227272727273,
                "pitch": 65,
                "velocity": 101,
                "duration": 0.038636363636364024,
                "tempo": 120.0
            },
            {
                "start_time": 46.715909090909086,
                "end_time": 46.75681818181818,
                "pitch": 65,
                "velocity": 101,
                "duration": 0.040909090909096335,
                "tempo": 120.0
            },
            {
                "start_time": 46.77272727272727,
                "end_time": 46.809090909090905,
                "pitch": 68,
                "velocity": 101,
                "duration": 0.03636363636363171,
                "tempo": 120.0
            },
            {
                "start_time": 46.82272727272727,
                "end_time": 46.86363636363636,
                "pitch": 68,
                "velocity": 101,
                "duration": 0.04090909090908923,
                "tempo": 120.0
            },
            {
                "start_time": 46.877272727272725,
                "end_time": 46.91590909090909,
                "pitch": 68,
                "velocity": 101,
                "duration": 0.038636363636364024,
                "tempo": 120.0
            },
            {
                "start_time": 46.92727272727272,
                "end_time": 46.96818181818182,
                "pitch": 68,
                "velocity": 101,
                "duration": 0.040909090909096335,
                "tempo": 120.0
            },
            {
                "start_time": 46.98181818181818,
                "end_time": 47.02045454545454,
                "pitch": 68,
                "velocity": 101,
                "duration": 0.038636363636364024,
                "tempo": 120.0
            },
            {
                "start_time": 47.03409090909091,
                "end_time": 47.07272727272727,
                "pitch": 68,
                "velocity": 101,
                "duration": 0.038636363636364024,
                "tempo": 120.0
            }
        ]
    }
}