{
    "track_id": "11 Boss",
    "mood": "angry",
    "instruments": {
        "Acoustic Bass": [
            {
                "start_time": 0.020454545454545454,
                "end_time": 0.18409090909090908,
                "pitch": 45,
                "velocity": 80,
                "duration": 0.16363636363636364,
                "tempo": 120.0
            },
            {
                "start_time": 0.18636363636363634,
                "end_time": 0.35227272727272724,
                "pitch": 45,
                "velocity": 80,
                "duration": 0.1659090909090909,
                "tempo": 120.0
            },
            {
                "start_time": 0.35454545454545455,
                "end_time": 0.5204545454545454,
                "pitch": 48,
                "velocity": 80,
                "duration": 0.16590909090909084,
                "tempo": 120.0
            },
            {
                "start_time": 0.5204545454545454,
                "end_time": 0.6886363636363636,
                "pitch": 45,
                "velocity": 80,
                "duration": 0.1681818181818182,
                "tempo": 120.0
            },
            {
                "start_time": 0.6886363636363636,
                "end_time": 0.8568181818181818,
                "pitch": 45,
                "velocity": 80,
                "duration": 0.1681818181818182,
                "tempo": 120.0
            },
            {
                "start_time": 0.8568181818181818,
                "end_time": 1.0227272727272727,
                "pitch": 50,
                "velocity": 80,
                "duration": 0.1659090909090909,
                "tempo": 120.0
            },
            {
                "start_time": 1.025,
                "end_time": 1.190909090909091,
                "pitch": 45,
                "velocity": 80,
                "duration": 0.165909090909091,
                "tempo": 120.0
            },
            {
                "start_time": 1.190909090909091,
                "end_time": 1.3590909090909091,
                "pitch": 45,
                "velocity": 80,
                "duration": 0.1681818181818182,
                "tempo": 120.0
            },
            {
                "start_time": 1.3590909090909091,
                "end_time": 1.5318181818181817,
                "pitch": 45,
                "velocity": 80,
                "duration": 0.17272727272727262,
                "tempo": 120.0
            },
            {
                "start_time": 1.5318181818181817,
                "end_time": 1.7045454545454544,
                "pitch": 45,
                "velocity": 80,
                "duration": 0.17272727272727262,
                "tempo": 120.0
            },
            {
                "start_time": 1.7045454545454544,
                "end_time": 1.8704545454545454,
                "pitch": 52,
                "velocity": 80,
                "duration": 0.165909090909091,
                "tempo": 120.0
            },
            {
                "start_time": 1.8727272727272726,
                "end_time": 2.0386363636363636,
                "pitch": 45,
                "velocity": 80,
                "duration": 0.165909090909091,
                "tempo": 120.0
            },
            {
                "start_time": 2.0386363636363636,
                "end_time": 2.2068181818181816,
                "pitch": 45,
                "velocity": 80,
                "duration": 0.168181818181818,
                "tempo": 120.0
            },
            {
                "start_time": 2.2068181818181816,
                "end_time": 2.375,
                "pitch": 55,
                "velocity": 80,
                "duration": 0.16818181818181843,
                "tempo": 120.0
            },
            {
                "start_time": 2.375,
                "end_time": 2.5454545454545454,
                "pitch": 45,
                "velocity": 80,
                "duration": 0.17045454545454541,
                "tempo": 120.0
            },
            {
                "start_time": 2.5477272727272724,
                "end_time": 2.7204545454545452,
                "pitch": 57,
                "velocity": 80,
                "duration": 0.17272727272727284,
                "tempo": 120.0
            },
            {
                "start_time": 2.7204545454545452,
                "end_time": 2.8909090909090907,
                "pitch": 45,
                "velocity": 80,
                "duration": 0.17045454545454541,
                "tempo": 120.0
            },
            {
                "start_time": 2.893181818181818,
                "end_time": 3.0636363636363635,
                "pitch": 45,
                "velocity": 80,
                "duration": 0.17045454545454541,
                "tempo": 120.0
            },
            {
                "start_time": 3.065909090909091,
                "end_time": 3.2318181818181815,
                "pitch": 48,
                "velocity": 80,
                "duration": 0.16590909090909056,
                "tempo": 120.0
            },
            {
                "start_time": 3.2318181818181815,
                "end_time": 3.4,
                "pitch": 45,
                "velocity": 80,
                "duration": 0.16818181818181843,
                "tempo": 120.0
            },
            {
                "start_time": 3.4,
                "end_time": 3.568181818181818,
                "pitch": 45,
                "velocity": 80,
                "duration": 0.168181818181818,
                "tempo": 120.0
            },
            {
                "start_time": 3.568181818181818,
                "end_time": 3.734090909090909,
                "pitch": 50,
                "velocity": 80,
                "duration": 0.165909090909091,
                "tempo": 120.0
            },
            {
                "start_time": 3.7363636363636363,
                "end_time": 3.9068181818181817,
                "pitch": 45,
                "velocity": 80,
                "duration": 0.17045454545454541,
                "tempo": 120.0
            },
            {
                "start_time": 3.9068181818181817,
                "end_time": 4.079545454545454,
                "pitch": 45,
                "velocity": 80,
                "duration": 0.1727272727272724,
                "tempo": 120.0
            },
            {
                "start_time": 4.081818181818182,
                "end_time": 4.247727272727272,
                "pitch": 45,
                "velocity": 80,
                "duration": 0.16590909090909012,
                "tempo": 120.0
            },
            {
                "start_time": 4.247727272727272,
                "end_time": 4.415909090909091,
                "pitch": 45,
                "velocity": 80,
                "duration": 0.16818181818181888,
                "tempo": 120.0
            },
            {
                "start_time": 4.415909090909091,
                "end_time": 4.581818181818182,
                "pitch": 52,
                "velocity": 80,
                "duration": 0.165909090909091,
                "tempo": 120.0
            },
            {
                "start_time": 4.584090909090909,
                "end_time": 4.75,
                "pitch": 45,
                "velocity": 80,
                "duration": 0.165909090909091,
                "tempo": 120.0
            },
            {
                "start_time": 4.75,
                "end_time": 4.918181818181818,
                "pitch": 45,
                "velocity": 80,
                "duration": 0.168181818181818,
                "tempo": 120.0
            },
            {
                "start_time": 4.918181818181818,
                "end_time": 5.086363636363636,
                "pitch": 55,
                "velocity": 80,
                "duration": 0.168181818181818,
                "tempo": 120.0
            },
            {
                "start_time": 5.086363636363636,
                "end_time": 5.256818181818182,
                "pitch": 45,
                "velocity": 80,
                "duration": 0.17045454545454586,
                "tempo": 120.0
            },
            {
                "start_time": 5.259090909090909,
                "end_time": 5.431818181818182,
                "pitch": 57,
                "velocity": 80,
                "duration": 0.17272727272727284,
                "tempo": 120.0
            },
            {
                "start_time": 5.431818181818182,
                "end_time": 5.597727272727273,
                "pitch": 45,
                "velocity": 80,
                "duration": 0.165909090909091,
                "tempo": 120.0
            },
            {
                "start_time": 5.597727272727273,
                "end_time": 5.765909090909091,
                "pitch": 45,
                "velocity": 80,
                "duration": 0.168181818181818,
                "tempo": 120.0
            },
            {
                "start_time": 5.765909090909091,
                "end_time": 5.9386363636363635,
                "pitch": 48,
                "velocity": 80,
                "duration": 0.17272727272727284,
                "tempo": 120.0
            },
            {
                "start_time": 5.9386363636363635,
                "end_time": 6.111363636363636,
                "pitch": 45,
                "velocity": 80,
                "duration": 0.17272727272727284,
                "tempo": 120.0
            },
            {
                "start_time": 6.111363636363636,
                "end_time": 6.277272727272727,
                "pitch": 45,
                "velocity": 80,
                "duration": 0.165909090909091,
                "tempo": 120.0
            },
            {
                "start_time": 6.279545454545454,
                "end_time": 6.445454545454545,
                "pitch": 50,
                "velocity": 80,
                "duration": 0.165909090909091,
                "tempo": 120.0
            },
            {
                "start_time": 6.445454545454545,
                "end_time": 6.613636363636363,
                "pitch": 45,
                "velocity": 80,
                "duration": 0.168181818181818,
                "tempo": 120.0
            },
            {
                "start_time": 6.613636363636363,
                "end_time": 6.781818181818181,
                "pitch": 45,
                "velocity": 80,
                "duration": 0.168181818181818,
                "tempo": 120.0
            },
            {
                "start_time": 6.781818181818181,
                "end_time": 6.952272727272727,
                "pitch": 45,
                "velocity": 80,
                "duration": 0.17045454545454586,
                "tempo": 120.0
            },
            {
                "start_time": 6.954545454545454,
                "end_time": 7.125,
                "pitch": 45,
                "velocity": 80,
                "duration": 0.17045454545454586,
                "tempo": 120.0
            },
            {
                "start_time": 7.127272727272727,
                "end_time": 7.293181818181818,
                "pitch": 52,
                "velocity": 80,
                "duration": 0.165909090909091,
                "tempo": 120.0
            },
            {
                "start_time": 7.295454545454545,
                "end_time": 7.461363636363636,
                "pitch": 45,
                "velocity": 80,
                "duration": 0.165909090909091,
                "tempo": 120.0
            },
            {
                "start_time": 7.461363636363636,
                "end_time": 7.629545454545454,
                "pitch": 45,
                "velocity": 80,
                "duration": 0.168181818181818,
                "tempo": 120.0
            },
            {
                "start_time": 7.629545454545454,
                "end_time": 7.795454545454545,
                "pitch": 55,
                "velocity": 80,
                "duration": 0.165909090909091,
                "tempo": 120.0
            },
            {
                "start_time": 7.797727272727272,
                "end_time": 7.968181818181818,
                "pitch": 45,
                "velocity": 80,
                "duration": 0.17045454545454586,
                "tempo": 120.0
            },
            {
                "start_time": 7.970454545454545,
                "end_time": 8.14090909090909,
                "pitch": 57,
                "velocity": 80,
                "duration": 0.17045454545454586,
                "tempo": 120.0
            },
            {
                "start_time": 8.143181818181818,
                "end_time": 8.309090909090909,
                "pitch": 45,
                "velocity": 80,
                "duration": 0.165909090909091,
                "tempo": 120.0
            },
            {
                "start_time": 8.309090909090909,
                "end_time": 8.477272727272727,
                "pitch": 45,
                "velocity": 80,
                "duration": 0.168181818181818,
                "tempo": 120.0
            },
            {
                "start_time": 8.477272727272727,
                "end_time": 8.65,
                "pitch": 48,
                "velocity": 80,
                "duration": 0.17272727272727373,
                "tempo": 120.0
            },
            {
                "start_time": 8.65,
                "end_time": 8.820454545454545,
                "pitch": 45,
                "velocity": 80,
                "duration": 0.17045454545454497,
                "tempo": 120.0
            },
            {
                "start_time": 8.822727272727272,
                "end_time": 8.988636363636363,
                "pitch": 45,
                "velocity": 80,
                "duration": 0.165909090909091,
                "tempo": 120.0
            },
            {
                "start_time": 8.99090909090909,
                "end_time": 9.156818181818181,
                "pitch": 50,
                "velocity": 80,
                "duration": 0.165909090909091,
                "tempo": 120.0
            },
            {
                "start_time": 9.156818181818181,
                "end_time": 9.329545454545453,
                "pitch": 45,
                "velocity": 80,
                "duration": 0.17272727272727195,
                "tempo": 120.0
            },
            {
                "start_time": 9.329545454545453,
                "end_time": 9.502272727272727,
                "pitch": 45,
                "velocity": 80,
                "duration": 0.17272727272727373,
                "tempo": 120.0
            },
            {
                "start_time": 9.502272727272727,
                "end_time": 9.668181818181818,
                "pitch": 45,
                "velocity": 80,
                "duration": 0.165909090909091,
                "tempo": 120.0
            },
            {
                "start_time": 9.670454545454545,
                "end_time": 9.836363636363636,
                "pitch": 45,
                "velocity": 80,
                "duration": 0.165909090909091,
                "tempo": 120.0
            },
            {
                "start_time": 9.838636363636363,
                "end_time": 10.004545454545454,
                "pitch": 52,
                "velocity": 80,
                "duration": 0.165909090909091,
                "tempo": 120.0
            },
            {
                "start_time": 10.004545454545454,
                "end_time": 10.172727272727272,
                "pitch": 45,
                "velocity": 80,
                "duration": 0.168181818181818,
                "tempo": 120.0
            },
            {
                "start_time": 10.172727272727272,
                "end_time": 10.34090909090909,
                "pitch": 45,
                "velocity": 80,
                "duration": 0.168181818181818,
                "tempo": 120.0
            },
            {
                "start_time": 10.34090909090909,
                "end_time": 10.506818181818181,
                "pitch": 55,
                "velocity": 80,
                "duration": 0.165909090909091,
                "tempo": 120.0
            },
            {
                "start_time": 10.509090909090908,
                "end_time": 10.679545454545455,
                "pitch": 45,
                "velocity": 80,
                "duration": 0.17045454545454675,
                "tempo": 120.0
            },
            {
                "start_time": 10.681818181818182,
                "end_time": 10.854545454545454,
                "pitch": 57,
                "velocity": 80,
                "duration": 0.17272727272727195,
                "tempo": 120.0
            },
            {
                "start_time": 10.85681818181818,
                "end_time": 10.952272727272726,
                "pitch": 45,
                "velocity": 80,
                "duration": 0.09545454545454568,
                "tempo": 120.0
            },
            {
                "start_time": 11.020454545454545,
                "end_time": 11.120454545454544,
                "pitch": 45,
                "velocity": 80,
                "duration": 0.09999999999999964,
                "tempo": 120.0
            },
            {
                "start_time": 11.188636363636363,
                "end_time": 11.290909090909091,
                "pitch": 57,
                "velocity": 80,
                "duration": 0.1022727272727284,
                "tempo": 120.0
            },
            {
                "start_time": 11.361363636363636,
                "end_time": 11.7,
                "pitch": 45,
                "velocity": 80,
                "duration": 0.33863636363636296,
                "tempo": 120.0
            },
            {
                "start_time": 11.7,
                "end_time": 11.868181818181817,
                "pitch": 55,
                "velocity": 80,
                "duration": 0.168181818181818,
                "tempo": 120.0
            },
            {
                "start_time": 11.868181818181817,
                "end_time": 11.968181818181817,
                "pitch": 57,
                "velocity": 80,
                "duration": 0.09999999999999964,
                "tempo": 120.0
            },
            {
                "start_time": 12.036363636363635,
                "end_time": 12.134090909090908,
                "pitch": 45,
                "velocity": 80,
                "duration": 0.09772727272727266,
                "tempo": 120.0
            },
            {
                "start_time": 12.204545454545453,
                "end_time": 12.375,
                "pitch": 53,
                "velocity": 80,
                "duration": 0.17045454545454675,
                "tempo": 120.0
            },
            {
                "start_time": 12.377272727272727,
                "end_time": 12.477272727272727,
                "pitch": 55,
                "velocity": 80,
                "duration": 0.09999999999999964,
                "tempo": 120.0
            },
            {
                "start_time": 12.549999999999999,
                "end_time": 12.647727272727272,
                "pitch": 52,
                "velocity": 80,
                "duration": 0.09772727272727266,
                "tempo": 120.0
            },
            {
                "start_time": 12.71590909090909,
                "end_time": 13.056818181818182,
                "pitch": 45,
                "velocity": 80,
                "duration": 0.3409090909090917,
                "tempo": 120.0
            },
            {
                "start_time": 13.056818181818182,
                "end_time": 13.227272727272727,
                "pitch": 43,
                "velocity": 80,
                "duration": 0.17045454545454497,
                "tempo": 120.0
            },
            {
                "start_time": 13.229545454545454,
                "end_time": 13.327272727272726,
                "pitch": 45,
                "velocity": 80,
                "duration": 0.09772727272727266,
                "tempo": 120.0
            },
            {
                "start_time": 13.395454545454545,
                "end_time": 13.495454545454544,
                "pitch": 45,
                "velocity": 80,
                "duration": 0.09999999999999964,
                "tempo": 120.0
            },
            {
                "start_time": 13.56590909090909,
                "end_time": 13.663636363636362,
                "pitch": 43,
                "velocity": 80,
                "duration": 0.09772727272727266,
                "tempo": 120.0
            },
            {
                "start_time": 13.73181818181818,
                "end_time": 13.829545454545453,
                "pitch": 43,
                "velocity": 80,
                "duration": 0.09772727272727266,
                "tempo": 120.0
            },
            {
                "start_time": 13.899999999999999,
                "end_time": 14.0,
                "pitch": 55,
                "velocity": 80,
                "duration": 0.10000000000000142,
                "tempo": 120.0
            },
            {
                "start_time": 14.072727272727272,
                "end_time": 14.411363636363635,
                "pitch": 43,
                "velocity": 80,
                "duration": 0.33863636363636296,
                "tempo": 120.0
            },
            {
                "start_time": 14.411363636363635,
                "end_time": 14.579545454545453,
                "pitch": 53,
                "velocity": 80,
                "duration": 0.168181818181818,
                "tempo": 120.0
            },
            {
                "start_time": 14.579545454545453,
                "end_time": 14.677272727272726,
                "pitch": 55,
                "velocity": 80,
                "duration": 0.09772727272727266,
                "tempo": 120.0
            },
            {
                "start_time": 14.747727272727271,
                "end_time": 14.845454545454544,
                "pitch": 43,
                "velocity": 80,
                "duration": 0.09772727272727266,
                "tempo": 120.0
            },
            {
                "start_time": 14.915909090909091,
                "end_time": 15.086363636363636,
                "pitch": 50,
                "velocity": 80,
                "duration": 0.17045454545454497,
                "tempo": 120.0
            },
            {
                "start_time": 15.086363636363636,
                "end_time": 15.188636363636363,
                "pitch": 52,
                "velocity": 80,
                "duration": 0.10227272727272663,
                "tempo": 120.0
            },
            {
                "start_time": 15.259090909090908,
                "end_time": 15.359090909090908,
                "pitch": 43,
                "velocity": 80,
                "duration": 0.09999999999999964,
                "tempo": 120.0
            },
            {
                "start_time": 15.427272727272726,
                "end_time": 15.595454545454544,
                "pitch": 52,
                "velocity": 80,
                "duration": 0.168181818181818,
                "tempo": 120.0
            },
            {
                "start_time": 15.595454545454544,
                "end_time": 15.695454545454545,
                "pitch": 53,
                "velocity": 80,
                "duration": 0.10000000000000142,
                "tempo": 120.0
            },
            {
                "start_time": 15.768181818181818,
                "end_time": 15.868181818181817,
                "pitch": 43,
                "velocity": 80,
                "duration": 0.09999999999999964,
                "tempo": 120.0
            },
            {
                "start_time": 15.94090909090909,
                "end_time": 16.10681818181818,
                "pitch": 53,
                "velocity": 80,
                "duration": 0.165909090909091,
                "tempo": 120.0
            },
            {
                "start_time": 16.10681818181818,
                "end_time": 16.206818181818182,
                "pitch": 55,
                "velocity": 80,
                "duration": 0.10000000000000142,
                "tempo": 120.0
            },
            {
                "start_time": 16.277272727272727,
                "end_time": 16.37272727272727,
                "pitch": 41,
                "velocity": 80,
                "duration": 0.0954545454545439,
                "tempo": 120.0
            },
            {
                "start_time": 16.443181818181817,
                "end_time": 16.54090909090909,
                "pitch": 41,
                "velocity": 80,
                "duration": 0.09772727272727266,
                "tempo": 120.0
            },
            {
                "start_time": 16.611363636363635,
                "end_time": 16.711363636363636,
                "pitch": 53,
                "velocity": 80,
                "duration": 0.10000000000000142,
                "tempo": 120.0
            },
            {
                "start_time": 16.784090909090907,
                "end_time": 17.12272727272727,
                "pitch": 41,
                "velocity": 80,
                "duration": 0.33863636363636473,
                "tempo": 120.0
            },
            {
                "start_time": 17.12272727272727,
                "end_time": 17.29090909090909,
                "pitch": 52,
                "velocity": 80,
                "duration": 0.168181818181818,
                "tempo": 120.0
            },
            {
                "start_time": 17.29090909090909,
                "end_time": 17.388636363636362,
                "pitch": 53,
                "velocity": 80,
                "duration": 0.09772727272727266,
                "tempo": 120.0
            },
            {
                "start_time": 17.459090909090907,
                "end_time": 17.55681818181818,
                "pitch": 41,
                "velocity": 80,
                "duration": 0.09772727272727266,
                "tempo": 120.0
            },
            {
                "start_time": 17.627272727272725,
                "end_time": 17.793181818181818,
                "pitch": 50,
                "velocity": 80,
                "duration": 0.16590909090909278,
                "tempo": 120.0
            },
            {
                "start_time": 17.793181818181818,
                "end_time": 17.893181818181816,
                "pitch": 52,
                "velocity": 80,
                "duration": 0.09999999999999787,
                "tempo": 120.0
            },
            {
                "start_time": 17.961363636363636,
                "end_time": 18.063636363636363,
                "pitch": 48,
                "velocity": 80,
                "duration": 0.10227272727272663,
                "tempo": 120.0
            },
            {
                "start_time": 18.134090909090908,
                "end_time": 18.477272727272727,
                "pitch": 41,
                "velocity": 80,
                "duration": 0.3431818181818187,
                "tempo": 120.0
            },
            {
                "start_time": 18.479545454545455,
                "end_time": 18.65,
                "pitch": 40,
                "velocity": 80,
                "duration": 0.1704545454545432,
                "tempo": 120.0
            },
            {
                "start_time": 18.652272727272727,
                "end_time": 18.75,
                "pitch": 41,
                "velocity": 80,
                "duration": 0.09772727272727266,
                "tempo": 120.0
            },
            {
                "start_time": 18.818181818181817,
                "end_time": 18.918181818181818,
                "pitch": 53,
                "velocity": 80,
                "duration": 0.10000000000000142,
                "tempo": 120.0
            },
            {
                "start_time": 18.988636363636363,
                "end_time": 19.084090909090907,
                "pitch": 40,
                "velocity": 80,
                "duration": 0.0954545454545439,
                "tempo": 120.0
            },
            {
                "start_time": 19.154545454545453,
                "end_time": 19.252272727272725,
                "pitch": 40,
                "velocity": 80,
                "duration": 0.09772727272727266,
                "tempo": 120.0
            },
            {
                "start_time": 19.32272727272727,
                "end_time": 19.422727272727272,
                "pitch": 52,
                "velocity": 80,
                "duration": 0.10000000000000142,
                "tempo": 120.0
            },
            {
                "start_time": 19.493181818181817,
                "end_time": 19.834090909090907,
                "pitch": 40,
                "velocity": 80,
                "duration": 0.34090909090908994,
                "tempo": 120.0
            },
            {
                "start_time": 19.834090909090907,
                "end_time": 20.002272727272725,
                "pitch": 50,
                "velocity": 80,
                "duration": 0.168181818181818,
                "tempo": 120.0
            },
            {
                "start_time": 20.002272727272725,
                "end_time": 20.099999999999998,
                "pitch": 52,
                "velocity": 80,
                "duration": 0.09772727272727266,
                "tempo": 120.0
            },
            {
                "start_time": 20.170454545454543,
                "end_time": 20.268181818181816,
                "pitch": 40,
                "velocity": 80,
                "duration": 0.09772727272727266,
                "tempo": 120.0
            },
            {
                "start_time": 20.33863636363636,
                "end_time": 20.436363636363634,
                "pitch": 40,
                "velocity": 80,
                "duration": 0.09772727272727266,
                "tempo": 120.0
            },
            {
                "start_time": 20.504545454545454,
                "end_time": 20.604545454545452,
                "pitch": 52,
                "velocity": 80,
                "duration": 0.09999999999999787,
                "tempo": 120.0
            },
            {
                "start_time": 20.672727272727272,
                "end_time": 20.775,
                "pitch": 41,
                "velocity": 80,
                "duration": 0.10227272727272663,
                "tempo": 120.0
            },
            {
                "start_time": 20.845454545454544,
                "end_time": 20.945454545454545,
                "pitch": 53,
                "velocity": 80,
                "duration": 0.10000000000000142,
                "tempo": 120.0
            },
            {
                "start_time": 21.018181818181816,
                "end_time": 21.118181818181817,
                "pitch": 43,
                "velocity": 80,
                "duration": 0.10000000000000142,
                "tempo": 120.0
            },
            {
                "start_time": 21.19090909090909,
                "end_time": 21.29090909090909,
                "pitch": 55,
                "velocity": 80,
                "duration": 0.09999999999999787,
                "tempo": 120.0
            },
            {
                "start_time": 21.361363636363635,
                "end_time": 21.461363636363636,
                "pitch": 45,
                "velocity": 80,
                "duration": 0.10000000000000142,
                "tempo": 120.0
            },
            {
                "start_time": 21.529545454545453,
                "end_time": 21.629545454545454,
                "pitch": 57,
                "velocity": 80,
                "duration": 0.10000000000000142,
                "tempo": 120.0
            },
            {
                "start_time": 21.7,
                "end_time": 21.795454545454543,
                "pitch": 45,
                "velocity": 80,
                "duration": 0.0954545454545439,
                "tempo": 120.0
            },
            {
                "start_time": 21.86590909090909,
                "end_time": 21.96363636363636,
                "pitch": 45,
                "velocity": 80,
                "duration": 0.09772727272727266,
                "tempo": 120.0
            },
            {
                "start_time": 22.034090909090907,
                "end_time": 22.134090909090908,
                "pitch": 57,
                "velocity": 80,
                "duration": 0.10000000000000142,
                "tempo": 120.0
            },
            {
                "start_time": 22.204545454545453,
                "end_time": 22.545454545454543,
                "pitch": 45,
                "velocity": 80,
                "duration": 0.34090909090908994,
                "tempo": 120.0
            },
            {
                "start_time": 22.545454545454543,
                "end_time": 22.71363636363636,
                "pitch": 55,
                "velocity": 80,
                "duration": 0.168181818181818,
                "tempo": 120.0
            },
            {
                "start_time": 22.71363636363636,
                "end_time": 22.811363636363634,
                "pitch": 57,
                "velocity": 80,
                "duration": 0.09772727272727266,
                "tempo": 120.0
            },
            {
                "start_time": 22.879545454545454,
                "end_time": 22.979545454545452,
                "pitch": 45,
                "velocity": 80,
                "duration": 0.09999999999999787,
                "tempo": 120.0
            },
            {
                "start_time": 23.049999999999997,
                "end_time": 23.220454545454544,
                "pitch": 53,
                "velocity": 80,
                "duration": 0.17045454545454675,
                "tempo": 120.0
            },
            {
                "start_time": 23.220454545454544,
                "end_time": 23.32272727272727,
                "pitch": 55,
                "velocity": 80,
                "duration": 0.10227272727272663,
                "tempo": 120.0
            },
            {
                "start_time": 23.393181818181816,
                "end_time": 23.49090909090909,
                "pitch": 52,
                "velocity": 80,
                "duration": 0.09772727272727266,
                "tempo": 120.0
            },
            {
                "start_time": 23.561363636363634,
                "end_time": 23.9,
                "pitch": 45,
                "velocity": 80,
                "duration": 0.33863636363636473,
                "tempo": 120.0
            },
            {
                "start_time": 23.902272727272727,
                "end_time": 24.07272727272727,
                "pitch": 43,
                "velocity": 80,
                "duration": 0.1704545454545432,
                "tempo": 120.0
            },
            {
                "start_time": 24.07272727272727,
                "end_time": 24.172727272727272,
                "pitch": 45,
                "velocity": 80,
                "duration": 0.10000000000000142,
                "tempo": 120.0
            },
            {
                "start_time": 24.24090909090909,
                "end_time": 24.33863636363636,
                "pitch": 45,
                "velocity": 80,
                "duration": 0.09772727272727266,
                "tempo": 120.0
            },
            {
                "start_time": 24.409090909090907,
                "end_time": 24.50681818181818,
                "pitch": 43,
                "velocity": 80,
                "duration": 0.09772727272727266,
                "tempo": 120.0
            },
            {
                "start_time": 24.577272727272724,
                "end_time": 24.674999999999997,
                "pitch": 43,
                "velocity": 80,
                "duration": 0.09772727272727266,
                "tempo": 120.0
            },
            {
                "start_time": 24.743181818181817,
                "end_time": 24.845454545454544,
                "pitch": 55,
                "velocity": 80,
                "duration": 0.10227272727272663,
                "tempo": 120.0
            },
            {
                "start_time": 24.91590909090909,
                "end_time": 25.254545454545454,
                "pitch": 43,
                "velocity": 80,
                "duration": 0.33863636363636473,
                "tempo": 120.0
            },
            {
                "start_time": 25.25681818181818,
                "end_time": 25.422727272727272,
                "pitch": 53,
                "velocity": 80,
                "duration": 0.16590909090909278,
                "tempo": 120.0
            },
            {
                "start_time": 25.424999999999997,
                "end_time": 25.52272727272727,
                "pitch": 55,
                "velocity": 80,
                "duration": 0.09772727272727266,
                "tempo": 120.0
            },
            {
                "start_time": 25.59090909090909,
                "end_time": 25.69090909090909,
                "pitch": 43,
                "velocity": 80,
                "duration": 0.10000000000000142,
                "tempo": 120.0
            },
            {
                "start_time": 25.761363636363637,
                "end_time": 25.93181818181818,
                "pitch": 50,
                "velocity": 80,
                "duration": 0.1704545454545432,
                "tempo": 120.0
            },
            {
                "start_time": 25.93181818181818,
                "end_time": 26.034090909090907,
                "pitch": 52,
                "velocity": 80,
                "duration": 0.10227272727272663,
                "tempo": 120.0
            },
            {
                "start_time": 26.104545454545452,
                "end_time": 26.202272727272724,
                "pitch": 43,
                "velocity": 80,
                "duration": 0.09772727272727266,
                "tempo": 120.0
            },
            {
                "start_time": 26.27272727272727,
                "end_time": 26.438636363636363,
                "pitch": 52,
                "velocity": 80,
                "duration": 0.16590909090909278,
                "tempo": 120.0
            },
            {
                "start_time": 26.438636363636363,
                "end_time": 26.54090909090909,
                "pitch": 53,
                "velocity": 80,
                "duration": 0.10227272727272663,
                "tempo": 120.0
            },
            {
                "start_time": 26.611363636363635,
                "end_time": 26.71363636363636,
                "pitch": 43,
                "velocity": 80,
                "duration": 0.10227272727272663,
                "tempo": 120.0
            },
            {
                "start_time": 26.784090909090907,
                "end_time": 26.95,
                "pitch": 53,
                "velocity": 80,
                "duration": 0.16590909090909278,
                "tempo": 120.0
            },
            {
                "start_time": 26.952272727272724,
                "end_time": 27.049999999999997,
                "pitch": 55,
                "velocity": 80,
                "duration": 0.09772727272727266,
                "tempo": 120.0
            },
            {
                "start_time": 27.120454545454542,
                "end_time": 27.218181818181815,
                "pitch": 41,
                "velocity": 80,
                "duration": 0.09772727272727266,
                "tempo": 120.0
            },
            {
                "start_time": 27.288636363636364,
                "end_time": 27.386363636363637,
                "pitch": 41,
                "velocity": 80,
                "duration": 0.09772727272727266,
                "tempo": 120.0
            },
            {
                "start_time": 27.454545454545453,
                "end_time": 27.55681818181818,
                "pitch": 53,
                "velocity": 80,
                "duration": 0.10227272727272663,
                "tempo": 120.0
            },
            {
                "start_time": 27.627272727272725,
                "end_time": 27.96590909090909,
                "pitch": 41,
                "velocity": 80,
                "duration": 0.33863636363636473,
                "tempo": 120.0
            },
            {
                "start_time": 27.968181818181815,
                "end_time": 28.134090909090908,
                "pitch": 52,
                "velocity": 80,
                "duration": 0.16590909090909278,
                "tempo": 120.0
            },
            {
                "start_time": 28.136363636363637,
                "end_time": 28.23409090909091,
                "pitch": 53,
                "velocity": 80,
                "duration": 0.09772727272727266,
                "tempo": 120.0
            },
            {
                "start_time": 28.302272727272726,
                "end_time": 28.402272727272727,
                "pitch": 41,
                "velocity": 80,
                "duration": 0.10000000000000142,
                "tempo": 120.0
            },
            {
                "start_time": 28.470454545454544,
                "end_time": 28.64090909090909,
                "pitch": 50,
                "velocity": 80,
                "duration": 0.17045454545454675,
                "tempo": 120.0
            },
            {
                "start_time": 28.643181818181816,
                "end_time": 28.743181818181817,
                "pitch": 52,
                "velocity": 80,
                "duration": 0.10000000000000142,
                "tempo": 120.0
            },
            {
                "start_time": 28.815909090909088,
                "end_time": 28.91363636363636,
                "pitch": 48,
                "velocity": 80,
                "duration": 0.09772727272727266,
                "tempo": 120.0
            },
            {
                "start_time": 28.98409090909091,
                "end_time": 29.32272727272727,
                "pitch": 41,
                "velocity": 80,
                "duration": 0.3386363636363612,
                "tempo": 120.0
            },
            {
                "start_time": 29.32272727272727,
                "end_time": 29.495454545454542,
                "pitch": 40,
                "velocity": 80,
                "duration": 0.17272727272727195,
                "tempo": 120.0
            },
            {
                "start_time": 29.495454545454542,
                "end_time": 29.593181818181815,
                "pitch": 41,
                "velocity": 80,
                "duration": 0.09772727272727266,
                "tempo": 120.0
            },
            {
                "start_time": 29.661363636363635,
                "end_time": 29.761363636363637,
                "pitch": 53,
                "velocity": 80,
                "duration": 0.10000000000000142,
                "tempo": 120.0
            },
            {
                "start_time": 29.831818181818182,
                "end_time": 29.929545454545455,
                "pitch": 40,
                "velocity": 80,
                "duration": 0.09772727272727266,
                "tempo": 120.0
            },
            {
                "start_time": 29.99772727272727,
                "end_time": 30.097727272727273,
                "pitch": 40,
                "velocity": 80,
                "duration": 0.10000000000000142,
                "tempo": 120.0
            },
            {
                "start_time": 30.16590909090909,
                "end_time": 30.268181818181816,
                "pitch": 52,
                "velocity": 80,
                "duration": 0.10227272727272663,
                "tempo": 120.0
            },
            {
                "start_time": 30.33863636363636,
                "end_time": 30.677272727272726,
                "pitch": 40,
                "velocity": 80,
                "duration": 0.33863636363636473,
                "tempo": 120.0
            },
            {
                "start_time": 30.679545454545455,
                "end_time": 30.845454545454544,
                "pitch": 50,
                "velocity": 80,
                "duration": 0.16590909090908923,
                "tempo": 120.0
            },
            {
                "start_time": 30.847727272727273,
                "end_time": 30.94772727272727,
                "pitch": 52,
                "velocity": 80,
                "duration": 0.09999999999999787,
                "tempo": 120.0
            },
            {
                "start_time": 31.018181818181816,
                "end_time": 31.120454545454542,
                "pitch": 40,
                "velocity": 80,
                "duration": 0.10227272727272663,
                "tempo": 120.0
            },
            {
                "start_time": 31.190909090909088,
                "end_time": 31.28863636363636,
                "pitch": 40,
                "velocity": 80,
                "duration": 0.09772727272727266,
                "tempo": 120.0
            },
            {
                "start_time": 31.359090909090906,
                "end_time": 31.456818181818182,
                "pitch": 52,
                "velocity": 80,
                "duration": 0.09772727272727622,
                "tempo": 120.0
            },
            {
                "start_time": 31.527272727272727,
                "end_time": 31.625,
                "pitch": 41,
                "velocity": 80,
                "duration": 0.09772727272727266,
                "tempo": 120.0
            },
            {
                "start_time": 31.695454545454545,
                "end_time": 31.793181818181818,
                "pitch": 53,
                "velocity": 80,
                "duration": 0.09772727272727266,
                "tempo": 120.0
            },
            {
                "start_time": 31.861363636363635,
                "end_time": 31.959090909090907,
                "pitch": 43,
                "velocity": 80,
                "duration": 0.09772727272727266,
                "tempo": 120.0
            },
            {
                "start_time": 32.029545454545456,
                "end_time": 32.127272727272725,
                "pitch": 55,
                "velocity": 80,
                "duration": 0.09772727272726911,
                "tempo": 120.0
            },
            {
                "start_time": 32.19772727272727,
                "end_time": 32.29772727272727,
                "pitch": 45,
                "velocity": 80,
                "duration": 0.10000000000000142,
                "tempo": 120.0
            },
            {
                "start_time": 32.36818181818182,
                "end_time": 32.470454545454544,
                "pitch": 57,
                "velocity": 80,
                "duration": 0.10227272727272663,
                "tempo": 120.0
            }
        ],
        "Church Organ": [
            {
                "start_time": 0.01818181818181818,
                "end_time": 0.1159090909090909,
                "pitch": 69,
                "velocity": 127,
                "duration": 0.09772727272727272,
                "tempo": 120.0
            },
            {
                "start_time": 0.18409090909090908,
                "end_time": 0.28409090909090906,
                "pitch": 69,
                "velocity": 127,
                "duration": 0.09999999999999998,
                "tempo": 120.0
            },
            {
                "start_time": 0.35227272727272724,
                "end_time": 0.5181818181818182,
                "pitch": 72,
                "velocity": 127,
                "duration": 0.16590909090909095,
                "tempo": 120.0
            },
            {
                "start_time": 0.5204545454545454,
                "end_time": 0.6181818181818182,
                "pitch": 69,
                "velocity": 127,
                "duration": 0.09772727272727277,
                "tempo": 120.0
            },
            {
                "start_time": 0.6863636363636363,
                "end_time": 0.7863636363636364,
                "pitch": 69,
                "velocity": 127,
                "duration": 0.10000000000000009,
                "tempo": 120.0
            },
            {
                "start_time": 0.8545454545454545,
                "end_time": 1.0204545454545455,
                "pitch": 74,
                "velocity": 127,
                "duration": 0.165909090909091,
                "tempo": 120.0
            },
            {
                "start_time": 1.0227272727272727,
                "end_time": 1.1227272727272726,
                "pitch": 69,
                "velocity": 127,
                "duration": 0.09999999999999987,
                "tempo": 120.0
            },
            {
                "start_time": 1.190909090909091,
                "end_time": 1.2886363636363636,
                "pitch": 69,
                "velocity": 127,
                "duration": 0.09772727272727266,
                "tempo": 120.0
            },
            {
                "start_time": 1.3590909090909091,
                "end_time": 1.459090909090909,
                "pitch": 69,
                "velocity": 127,
                "duration": 0.09999999999999987,
                "tempo": 120.0
            },
            {
                "start_time": 1.5295454545454545,
                "end_time": 1.6318181818181818,
                "pitch": 69,
                "velocity": 127,
                "duration": 0.10227272727272729,
                "tempo": 120.0
            },
            {
                "start_time": 1.7022727272727272,
                "end_time": 1.8681818181818182,
                "pitch": 76,
                "velocity": 127,
                "duration": 0.165909090909091,
                "tempo": 120.0
            },
            {
                "start_time": 1.8704545454545454,
                "end_time": 1.9704545454545455,
                "pitch": 69,
                "velocity": 127,
                "duration": 0.10000000000000009,
                "tempo": 120.0
            },
            {
                "start_time": 2.0386363636363636,
                "end_time": 2.1363636363636362,
                "pitch": 69,
                "velocity": 127,
                "duration": 0.09772727272727266,
                "tempo": 120.0
            },
            {
                "start_time": 2.2045454545454546,
                "end_time": 2.3727272727272726,
                "pitch": 74,
                "velocity": 127,
                "duration": 0.168181818181818,
                "tempo": 120.0
            },
            {
                "start_time": 2.3727272727272726,
                "end_time": 2.475,
                "pitch": 69,
                "velocity": 127,
                "duration": 0.10227272727272751,
                "tempo": 120.0
            },
            {
                "start_time": 2.5454545454545454,
                "end_time": 2.6477272727272725,
                "pitch": 69,
                "velocity": 127,
                "duration": 0.10227272727272707,
                "tempo": 120.0
            },
            {
                "start_time": 2.7181818181818183,
                "end_time": 2.8204545454545453,
                "pitch": 69,
                "velocity": 127,
                "duration": 0.10227272727272707,
                "tempo": 120.0
            },
            {
                "start_time": 2.8909090909090907,
                "end_time": 2.993181818181818,
                "pitch": 69,
                "velocity": 127,
                "duration": 0.10227272727272751,
                "tempo": 120.0
            },
            {
                "start_time": 3.0636363636363635,
                "end_time": 3.2295454545454545,
                "pitch": 72,
                "velocity": 127,
                "duration": 0.165909090909091,
                "tempo": 120.0
            },
            {
                "start_time": 3.2295454545454545,
                "end_time": 3.3295454545454546,
                "pitch": 69,
                "velocity": 127,
                "duration": 0.10000000000000009,
                "tempo": 120.0
            },
            {
                "start_time": 3.3977272727272725,
                "end_time": 3.4977272727272726,
                "pitch": 69,
                "velocity": 127,
                "duration": 0.10000000000000009,
                "tempo": 120.0
            },
            {
                "start_time": 3.565909090909091,
                "end_time": 3.7318181818181815,
                "pitch": 74,
                "velocity": 127,
                "duration": 0.16590909090909056,
                "tempo": 120.0
            },
            {
                "start_time": 3.734090909090909,
                "end_time": 3.836363636363636,
                "pitch": 69,
                "velocity": 127,
                "duration": 0.10227272727272707,
                "tempo": 120.0
            },
            {
                "start_time": 3.9068181818181817,
                "end_time": 4.009090909090909,
                "pitch": 69,
                "velocity": 127,
                "duration": 0.10227272727272707,
                "tempo": 120.0
            },
            {
                "start_time": 4.079545454545454,
                "end_time": 4.177272727272727,
                "pitch": 69,
                "velocity": 127,
                "duration": 0.09772727272727266,
                "tempo": 120.0
            },
            {
                "start_time": 4.245454545454545,
                "end_time": 4.345454545454546,
                "pitch": 69,
                "velocity": 127,
                "duration": 0.10000000000000053,
                "tempo": 120.0
            },
            {
                "start_time": 4.413636363636363,
                "end_time": 4.579545454545454,
                "pitch": 76,
                "velocity": 127,
                "duration": 0.165909090909091,
                "tempo": 120.0
            },
            {
                "start_time": 4.581818181818182,
                "end_time": 4.681818181818182,
                "pitch": 69,
                "velocity": 127,
                "duration": 0.09999999999999964,
                "tempo": 120.0
            },
            {
                "start_time": 4.75,
                "end_time": 4.847727272727273,
                "pitch": 69,
                "velocity": 127,
                "duration": 0.09772727272727266,
                "tempo": 120.0
            },
            {
                "start_time": 4.915909090909091,
                "end_time": 5.084090909090909,
                "pitch": 74,
                "velocity": 127,
                "duration": 0.168181818181818,
                "tempo": 120.0
            },
            {
                "start_time": 5.084090909090909,
                "end_time": 5.1863636363636365,
                "pitch": 69,
                "velocity": 127,
                "duration": 0.10227272727272751,
                "tempo": 120.0
            },
            {
                "start_time": 5.256818181818182,
                "end_time": 5.3590909090909085,
                "pitch": 69,
                "velocity": 127,
                "duration": 0.10227272727272663,
                "tempo": 120.0
            },
            {
                "start_time": 5.429545454545455,
                "end_time": 5.529545454545454,
                "pitch": 69,
                "velocity": 127,
                "duration": 0.09999999999999964,
                "tempo": 120.0
            },
            {
                "start_time": 5.597727272727273,
                "end_time": 5.695454545454545,
                "pitch": 69,
                "velocity": 127,
                "duration": 0.09772727272727266,
                "tempo": 120.0
            },
            {
                "start_time": 5.763636363636364,
                "end_time": 5.9363636363636365,
                "pitch": 72,
                "velocity": 127,
                "duration": 0.17272727272727284,
                "tempo": 120.0
            },
            {
                "start_time": 5.9363636363636365,
                "end_time": 6.038636363636363,
                "pitch": 69,
                "velocity": 127,
                "duration": 0.10227272727272663,
                "tempo": 120.0
            },
            {
                "start_time": 6.1090909090909085,
                "end_time": 6.209090909090909,
                "pitch": 69,
                "velocity": 127,
                "duration": 0.10000000000000053,
                "tempo": 120.0
            },
            {
                "start_time": 6.277272727272727,
                "end_time": 6.4431818181818175,
                "pitch": 74,
                "velocity": 127,
                "duration": 0.16590909090909012,
                "tempo": 120.0
            },
            {
                "start_time": 6.445454545454545,
                "end_time": 6.543181818181818,
                "pitch": 69,
                "velocity": 127,
                "duration": 0.09772727272727266,
                "tempo": 120.0
            },
            {
                "start_time": 6.611363636363636,
                "end_time": 6.711363636363636,
                "pitch": 69,
                "velocity": 127,
                "duration": 0.09999999999999964,
                "tempo": 120.0
            },
            {
                "start_time": 6.779545454545454,
                "end_time": 6.881818181818182,
                "pitch": 69,
                "velocity": 127,
                "duration": 0.10227272727272751,
                "tempo": 120.0
            },
            {
                "start_time": 6.952272727272727,
                "end_time": 7.054545454545454,
                "pitch": 69,
                "velocity": 127,
                "duration": 0.10227272727272663,
                "tempo": 120.0
            },
            {
                "start_time": 7.125,
                "end_time": 7.29090909090909,
                "pitch": 76,
                "velocity": 127,
                "duration": 0.16590909090909012,
                "tempo": 120.0
            },
            {
                "start_time": 7.293181818181818,
                "end_time": 7.390909090909091,
                "pitch": 69,
                "velocity": 127,
                "duration": 0.09772727272727266,
                "tempo": 120.0
            },
            {
                "start_time": 7.459090909090909,
                "end_time": 7.559090909090909,
                "pitch": 69,
                "velocity": 127,
                "duration": 0.09999999999999964,
                "tempo": 120.0
            },
            {
                "start_time": 7.627272727272727,
                "end_time": 7.795454545454545,
                "pitch": 74,
                "velocity": 127,
                "duration": 0.168181818181818,
                "tempo": 120.0
            },
            {
                "start_time": 7.795454545454545,
                "end_time": 7.8977272727272725,
                "pitch": 69,
                "velocity": 127,
                "duration": 0.10227272727272751,
                "tempo": 120.0
            },
            {
                "start_time": 7.968181818181818,
                "end_time": 8.070454545454545,
                "pitch": 69,
                "velocity": 127,
                "duration": 0.10227272727272751,
                "tempo": 120.0
            },
            {
                "start_time": 8.14090909090909,
                "end_time": 8.238636363636363,
                "pitch": 69,
                "velocity": 127,
                "duration": 0.09772727272727266,
                "tempo": 120.0
            },
            {
                "start_time": 8.306818181818182,
                "end_time": 8.406818181818181,
                "pitch": 69,
                "velocity": 127,
                "duration": 0.09999999999999964,
                "tempo": 120.0
            },
            {
                "start_time": 8.475,
                "end_time": 8.647727272727272,
                "pitch": 72,
                "velocity": 127,
                "duration": 0.17272727272727195,
                "tempo": 120.0
            },
            {
                "start_time": 8.647727272727272,
                "end_time": 8.75,
                "pitch": 69,
                "velocity": 127,
                "duration": 0.1022727272727284,
                "tempo": 120.0
            },
            {
                "start_time": 8.820454545454545,
                "end_time": 8.920454545454545,
                "pitch": 69,
                "velocity": 127,
                "duration": 0.09999999999999964,
                "tempo": 120.0
            },
            {
                "start_time": 8.988636363636363,
                "end_time": 9.154545454545454,
                "pitch": 74,
                "velocity": 127,
                "duration": 0.165909090909091,
                "tempo": 120.0
            },
            {
                "start_time": 9.154545454545454,
                "end_time": 9.256818181818181,
                "pitch": 69,
                "velocity": 127,
                "duration": 0.10227272727272663,
                "tempo": 120.0
            },
            {
                "start_time": 9.327272727272726,
                "end_time": 9.429545454545455,
                "pitch": 69,
                "velocity": 127,
                "duration": 0.1022727272727284,
                "tempo": 120.0
            },
            {
                "start_time": 9.5,
                "end_time": 9.6,
                "pitch": 69,
                "velocity": 127,
                "duration": 0.09999999999999964,
                "tempo": 120.0
            },
            {
                "start_time": 9.668181818181818,
                "end_time": 9.768181818181818,
                "pitch": 69,
                "velocity": 127,
                "duration": 0.09999999999999964,
                "tempo": 120.0
            },
            {
                "start_time": 9.836363636363636,
                "end_time": 10.002272727272727,
                "pitch": 76,
                "velocity": 127,
                "duration": 0.165909090909091,
                "tempo": 120.0
            },
            {
                "start_time": 10.002272727272727,
                "end_time": 10.102272727272727,
                "pitch": 69,
                "velocity": 127,
                "duration": 0.09999999999999964,
                "tempo": 120.0
            },
            {
                "start_time": 10.170454545454545,
                "end_time": 10.270454545454545,
                "pitch": 69,
                "velocity": 127,
                "duration": 0.09999999999999964,
                "tempo": 120.0
            },
            {
                "start_time": 10.338636363636363,
                "end_time": 10.504545454545454,
                "pitch": 74,
                "velocity": 127,
                "duration": 0.165909090909091,
                "tempo": 120.0
            },
            {
                "start_time": 10.506818181818181,
                "end_time": 10.60909090909091,
                "pitch": 69,
                "velocity": 127,
                "duration": 0.1022727272727284,
                "tempo": 120.0
            },
            {
                "start_time": 10.679545454545455,
                "end_time": 10.781818181818181,
                "pitch": 69,
                "velocity": 127,
                "duration": 0.10227272727272663,
                "tempo": 120.0
            },
            {
                "start_time": 32.54545454545455,
                "end_time": 32.54772727272727,
                "pitch": 69,
                "velocity": 127,
                "duration": 0.0022727272727252057,
                "tempo": 120.0
            }
        ],
        "Harpsichord": [
            {
                "start_time": 10.854545454545454,
                "end_time": 11.020454545454545,
                "pitch": 69,
                "velocity": 80,
                "duration": 0.165909090909091,
                "tempo": 120.0
            },
            {
                "start_time": 11.020454545454545,
                "end_time": 11.186363636363636,
                "pitch": 71,
                "velocity": 80,
                "duration": 0.165909090909091,
                "tempo": 120.0
            },
            {
                "start_time": 11.188636363636363,
                "end_time": 11.35909090909091,
                "pitch": 72,
                "velocity": 80,
                "duration": 0.17045454545454675,
                "tempo": 120.0
            },
            {
                "start_time": 11.361363636363636,
                "end_time": 11.531818181818181,
                "pitch": 76,
                "velocity": 80,
                "duration": 0.17045454545454497,
                "tempo": 120.0
            },
            {
                "start_time": 11.531818181818181,
                "end_time": 11.7,
                "pitch": 69,
                "velocity": 80,
                "duration": 0.168181818181818,
                "tempo": 120.0
            },
            {
                "start_time": 11.7,
                "end_time": 11.868181818181817,
                "pitch": 71,
                "velocity": 80,
                "duration": 0.168181818181818,
                "tempo": 120.0
            },
            {
                "start_time": 11.868181818181817,
                "end_time": 12.034090909090908,
                "pitch": 72,
                "velocity": 80,
                "duration": 0.165909090909091,
                "tempo": 120.0
            },
            {
                "start_time": 12.036363636363635,
                "end_time": 12.202272727272726,
                "pitch": 76,
                "velocity": 80,
                "duration": 0.165909090909091,
                "tempo": 120.0
            },
            {
                "start_time": 12.204545454545453,
                "end_time": 12.375,
                "pitch": 69,
                "velocity": 80,
                "duration": 0.17045454545454675,
                "tempo": 120.0
            },
            {
                "start_time": 12.375,
                "end_time": 12.547727272727272,
                "pitch": 71,
                "velocity": 80,
                "duration": 0.17272727272727195,
                "tempo": 120.0
            },
            {
                "start_time": 12.547727272727272,
                "end_time": 12.713636363636363,
                "pitch": 72,
                "velocity": 80,
                "duration": 0.165909090909091,
                "tempo": 120.0
            },
            {
                "start_time": 12.71590909090909,
                "end_time": 12.881818181818181,
                "pitch": 76,
                "velocity": 80,
                "duration": 0.165909090909091,
                "tempo": 120.0
            },
            {
                "start_time": 12.884090909090908,
                "end_time": 13.054545454545455,
                "pitch": 69,
                "velocity": 80,
                "duration": 0.17045454545454675,
                "tempo": 120.0
            },
            {
                "start_time": 13.056818181818182,
                "end_time": 13.227272727272727,
                "pitch": 71,
                "velocity": 80,
                "duration": 0.17045454545454497,
                "tempo": 120.0
            },
            {
                "start_time": 13.227272727272727,
                "end_time": 13.395454545454545,
                "pitch": 72,
                "velocity": 80,
                "duration": 0.168181818181818,
                "tempo": 120.0
            },
            {
                "start_time": 13.395454545454545,
                "end_time": 13.563636363636363,
                "pitch": 76,
                "velocity": 80,
                "duration": 0.168181818181818,
                "tempo": 120.0
            },
            {
                "start_time": 13.563636363636363,
                "end_time": 13.729545454545454,
                "pitch": 67,
                "velocity": 80,
                "duration": 0.165909090909091,
                "tempo": 120.0
            },
            {
                "start_time": 13.73181818181818,
                "end_time": 13.897727272727272,
                "pitch": 69,
                "velocity": 80,
                "duration": 0.165909090909091,
                "tempo": 120.0
            },
            {
                "start_time": 13.897727272727272,
                "end_time": 14.070454545454545,
                "pitch": 71,
                "velocity": 80,
                "duration": 0.17272727272727373,
                "tempo": 120.0
            },
            {
                "start_time": 14.070454545454545,
                "end_time": 14.243181818181817,
                "pitch": 74,
                "velocity": 80,
                "duration": 0.17272727272727195,
                "tempo": 120.0
            },
            {
                "start_time": 14.243181818181817,
                "end_time": 14.409090909090908,
                "pitch": 67,
                "velocity": 80,
                "duration": 0.165909090909091,
                "tempo": 120.0
            },
            {
                "start_time": 14.411363636363635,
                "end_time": 14.577272727272726,
                "pitch": 69,
                "velocity": 80,
                "duration": 0.165909090909091,
                "tempo": 120.0
            },
            {
                "start_time": 14.579545454545453,
                "end_time": 14.745454545454544,
                "pitch": 71,
                "velocity": 80,
                "duration": 0.165909090909091,
                "tempo": 120.0
            },
            {
                "start_time": 14.745454545454544,
                "end_time": 14.913636363636362,
                "pitch": 74,
                "velocity": 80,
                "duration": 0.168181818181818,
                "tempo": 120.0
            },
            {
                "start_time": 14.915909090909091,
                "end_time": 15.086363636363636,
                "pitch": 67,
                "velocity": 80,
                "duration": 0.17045454545454497,
                "tempo": 120.0
            },
            {
                "start_time": 15.086363636363636,
                "end_time": 15.259090909090908,
                "pitch": 69,
                "velocity": 80,
                "duration": 0.17272727272727195,
                "tempo": 120.0
            },
            {
                "start_time": 15.259090909090908,
                "end_time": 15.424999999999999,
                "pitch": 71,
                "velocity": 80,
                "duration": 0.165909090909091,
                "tempo": 120.0
            },
            {
                "start_time": 15.427272727272726,
                "end_time": 15.593181818181817,
                "pitch": 74,
                "velocity": 80,
                "duration": 0.165909090909091,
                "tempo": 120.0
            },
            {
                "start_time": 15.595454545454544,
                "end_time": 15.76590909090909,
                "pitch": 67,
                "velocity": 80,
                "duration": 0.17045454545454675,
                "tempo": 120.0
            },
            {
                "start_time": 15.76590909090909,
                "end_time": 15.938636363636363,
                "pitch": 69,
                "velocity": 80,
                "duration": 0.17272727272727195,
                "tempo": 120.0
            },
            {
                "start_time": 15.938636363636363,
                "end_time": 16.104545454545455,
                "pitch": 71,
                "velocity": 80,
                "duration": 0.16590909090909278,
                "tempo": 120.0
            },
            {
                "start_time": 16.10681818181818,
                "end_time": 16.275,
                "pitch": 74,
                "velocity": 80,
                "duration": 0.168181818181818,
                "tempo": 120.0
            },
            {
                "start_time": 16.275,
                "end_time": 16.44090909090909,
                "pitch": 65,
                "velocity": 80,
                "duration": 0.16590909090909278,
                "tempo": 120.0
            },
            {
                "start_time": 16.443181818181817,
                "end_time": 16.60909090909091,
                "pitch": 67,
                "velocity": 80,
                "duration": 0.16590909090909278,
                "tempo": 120.0
            },
            {
                "start_time": 16.60909090909091,
                "end_time": 16.78181818181818,
                "pitch": 69,
                "velocity": 80,
                "duration": 0.17272727272727195,
                "tempo": 120.0
            },
            {
                "start_time": 16.78181818181818,
                "end_time": 16.954545454545453,
                "pitch": 72,
                "velocity": 80,
                "duration": 0.17272727272727195,
                "tempo": 120.0
            },
            {
                "start_time": 16.954545454545453,
                "end_time": 17.120454545454546,
                "pitch": 65,
                "velocity": 80,
                "duration": 0.16590909090909278,
                "tempo": 120.0
            },
            {
                "start_time": 17.12272727272727,
                "end_time": 17.288636363636364,
                "pitch": 67,
                "velocity": 80,
                "duration": 0.16590909090909278,
                "tempo": 120.0
            },
            {
                "start_time": 17.29090909090909,
                "end_time": 17.456818181818182,
                "pitch": 69,
                "velocity": 80,
                "duration": 0.16590909090909278,
                "tempo": 120.0
            },
            {
                "start_time": 17.456818181818182,
                "end_time": 17.625,
                "pitch": 72,
                "velocity": 80,
                "duration": 0.168181818181818,
                "tempo": 120.0
            },
            {
                "start_time": 17.625,
                "end_time": 17.79090909090909,
                "pitch": 65,
                "velocity": 80,
                "duration": 0.16590909090908923,
                "tempo": 120.0
            },
            {
                "start_time": 17.793181818181818,
                "end_time": 17.959090909090907,
                "pitch": 67,
                "velocity": 80,
                "duration": 0.16590909090908923,
                "tempo": 120.0
            },
            {
                "start_time": 17.961363636363636,
                "end_time": 18.13181818181818,
                "pitch": 69,
                "velocity": 80,
                "duration": 0.1704545454545432,
                "tempo": 120.0
            },
            {
                "start_time": 18.134090909090908,
                "end_time": 18.304545454545455,
                "pitch": 72,
                "velocity": 80,
                "duration": 0.17045454545454675,
                "tempo": 120.0
            },
            {
                "start_time": 18.304545454545455,
                "end_time": 18.477272727272727,
                "pitch": 65,
                "velocity": 80,
                "duration": 0.17272727272727195,
                "tempo": 120.0
            },
            {
                "start_time": 18.477272727272727,
                "end_time": 18.65,
                "pitch": 67,
                "velocity": 80,
                "duration": 0.17272727272727195,
                "tempo": 120.0
            },
            {
                "start_time": 18.65,
                "end_time": 18.81590909090909,
                "pitch": 69,
                "velocity": 80,
                "duration": 0.16590909090909278,
                "tempo": 120.0
            },
            {
                "start_time": 18.818181818181817,
                "end_time": 18.986363636363635,
                "pitch": 72,
                "velocity": 80,
                "duration": 0.168181818181818,
                "tempo": 120.0
            },
            {
                "start_time": 18.986363636363635,
                "end_time": 19.152272727272727,
                "pitch": 64,
                "velocity": 80,
                "duration": 0.16590909090909278,
                "tempo": 120.0
            },
            {
                "start_time": 19.152272727272727,
                "end_time": 19.320454545454545,
                "pitch": 65,
                "velocity": 80,
                "duration": 0.168181818181818,
                "tempo": 120.0
            },
            {
                "start_time": 19.320454545454545,
                "end_time": 19.493181818181817,
                "pitch": 67,
                "velocity": 80,
                "duration": 0.17272727272727195,
                "tempo": 120.0
            },
            {
                "start_time": 19.493181818181817,
                "end_time": 19.66590909090909,
                "pitch": 71,
                "velocity": 80,
                "duration": 0.17272727272727195,
                "tempo": 120.0
            },
            {
                "start_time": 19.66590909090909,
                "end_time": 19.831818181818182,
                "pitch": 64,
                "velocity": 80,
                "duration": 0.16590909090909278,
                "tempo": 120.0
            },
            {
                "start_time": 19.834090909090907,
                "end_time": 20.0,
                "pitch": 65,
                "velocity": 80,
                "duration": 0.16590909090909278,
                "tempo": 120.0
            },
            {
                "start_time": 20.002272727272725,
                "end_time": 20.168181818181818,
                "pitch": 67,
                "velocity": 80,
                "duration": 0.16590909090909278,
                "tempo": 120.0
            },
            {
                "start_time": 20.168181818181818,
                "end_time": 20.336363636363636,
                "pitch": 71,
                "velocity": 80,
                "duration": 0.168181818181818,
                "tempo": 120.0
            },
            {
                "start_time": 20.336363636363636,
                "end_time": 20.502272727272725,
                "pitch": 64,
                "velocity": 80,
                "duration": 0.16590909090908923,
                "tempo": 120.0
            },
            {
                "start_time": 20.504545454545454,
                "end_time": 20.670454545454543,
                "pitch": 52,
                "velocity": 80,
                "duration": 0.16590909090908923,
                "tempo": 120.0
            },
            {
                "start_time": 20.672727272727272,
                "end_time": 20.84318181818182,
                "pitch": 55,
                "velocity": 80,
                "duration": 0.17045454545454675,
                "tempo": 120.0
            },
            {
                "start_time": 20.84318181818182,
                "end_time": 21.01590909090909,
                "pitch": 59,
                "velocity": 80,
                "duration": 0.17272727272727195,
                "tempo": 120.0
            },
            {
                "start_time": 21.018181818181816,
                "end_time": 21.188636363636363,
                "pitch": 64,
                "velocity": 80,
                "duration": 0.17045454545454675,
                "tempo": 120.0
            },
            {
                "start_time": 21.188636363636363,
                "end_time": 21.361363636363635,
                "pitch": 67,
                "velocity": 80,
                "duration": 0.17272727272727195,
                "tempo": 120.0
            },
            {
                "start_time": 21.361363636363635,
                "end_time": 21.527272727272727,
                "pitch": 71,
                "velocity": 80,
                "duration": 0.16590909090909278,
                "tempo": 120.0
            },
            {
                "start_time": 21.529545454545453,
                "end_time": 21.69772727272727,
                "pitch": 76,
                "velocity": 80,
                "duration": 0.168181818181818,
                "tempo": 120.0
            },
            {
                "start_time": 21.69772727272727,
                "end_time": 21.863636363636363,
                "pitch": 69,
                "velocity": 80,
                "duration": 0.16590909090909278,
                "tempo": 120.0
            },
            {
                "start_time": 21.86590909090909,
                "end_time": 22.03181818181818,
                "pitch": 71,
                "velocity": 80,
                "duration": 0.16590909090909278,
                "tempo": 120.0
            },
            {
                "start_time": 22.03181818181818,
                "end_time": 22.375,
                "pitch": 72,
                "velocity": 80,
                "duration": 0.3431818181818187,
                "tempo": 120.0
            },
            {
                "start_time": 22.377272727272725,
                "end_time": 22.543181818181818,
                "pitch": 69,
                "velocity": 80,
                "duration": 0.16590909090909278,
                "tempo": 120.0
            },
            {
                "start_time": 22.545454545454543,
                "end_time": 22.711363636363636,
                "pitch": 71,
                "velocity": 80,
                "duration": 0.16590909090909278,
                "tempo": 120.0
            },
            {
                "start_time": 22.71363636363636,
                "end_time": 23.047727272727272,
                "pitch": 72,
                "velocity": 80,
                "duration": 0.33409090909091077,
                "tempo": 120.0
            },
            {
                "start_time": 23.047727272727272,
                "end_time": 23.21818181818182,
                "pitch": 69,
                "velocity": 80,
                "duration": 0.17045454545454675,
                "tempo": 120.0
            },
            {
                "start_time": 23.220454545454544,
                "end_time": 23.39090909090909,
                "pitch": 71,
                "velocity": 80,
                "duration": 0.17045454545454675,
                "tempo": 120.0
            },
            {
                "start_time": 23.393181818181816,
                "end_time": 23.55909090909091,
                "pitch": 72,
                "velocity": 80,
                "duration": 0.16590909090909278,
                "tempo": 120.0
            },
            {
                "start_time": 23.55909090909091,
                "end_time": 23.9,
                "pitch": 69,
                "velocity": 80,
                "duration": 0.34090909090908994,
                "tempo": 120.0
            },
            {
                "start_time": 23.9,
                "end_time": 24.070454545454545,
                "pitch": 71,
                "velocity": 80,
                "duration": 0.17045454545454675,
                "tempo": 120.0
            },
            {
                "start_time": 24.07272727272727,
                "end_time": 24.40681818181818,
                "pitch": 72,
                "velocity": 80,
                "duration": 0.33409090909091077,
                "tempo": 120.0
            },
            {
                "start_time": 24.409090909090907,
                "end_time": 24.575,
                "pitch": 67,
                "velocity": 80,
                "duration": 0.16590909090909278,
                "tempo": 120.0
            },
            {
                "start_time": 24.575,
                "end_time": 24.743181818181817,
                "pitch": 69,
                "velocity": 80,
                "duration": 0.168181818181818,
                "tempo": 120.0
            },
            {
                "start_time": 24.743181818181817,
                "end_time": 25.086363636363636,
                "pitch": 71,
                "velocity": 80,
                "duration": 0.3431818181818187,
                "tempo": 120.0
            },
            {
                "start_time": 25.08863636363636,
                "end_time": 25.254545454545454,
                "pitch": 67,
                "velocity": 80,
                "duration": 0.16590909090909278,
                "tempo": 120.0
            },
            {
                "start_time": 25.254545454545454,
                "end_time": 25.422727272727272,
                "pitch": 69,
                "velocity": 80,
                "duration": 0.168181818181818,
                "tempo": 120.0
            },
            {
                "start_time": 25.422727272727272,
                "end_time": 25.759090909090908,
                "pitch": 71,
                "velocity": 80,
                "duration": 0.336363636363636,
                "tempo": 120.0
            },
            {
                "start_time": 25.759090909090908,
                "end_time": 25.929545454545455,
                "pitch": 67,
                "velocity": 80,
                "duration": 0.17045454545454675,
                "tempo": 120.0
            },
            {
                "start_time": 25.93181818181818,
                "end_time": 26.102272727272727,
                "pitch": 69,
                "velocity": 80,
                "duration": 0.17045454545454675,
                "tempo": 120.0
            },
            {
                "start_time": 26.104545454545452,
                "end_time": 26.270454545454545,
                "pitch": 71,
                "velocity": 80,
                "duration": 0.16590909090909278,
                "tempo": 120.0
            },
            {
                "start_time": 26.270454545454545,
                "end_time": 26.611363636363635,
                "pitch": 67,
                "velocity": 80,
                "duration": 0.34090909090908994,
                "tempo": 120.0
            },
            {
                "start_time": 26.611363636363635,
                "end_time": 26.78181818181818,
                "pitch": 69,
                "velocity": 80,
                "duration": 0.17045454545454675,
                "tempo": 120.0
            },
            {
                "start_time": 26.784090909090907,
                "end_time": 27.118181818181817,
                "pitch": 71,
                "velocity": 80,
                "duration": 0.33409090909091077,
                "tempo": 120.0
            },
            {
                "start_time": 27.120454545454542,
                "end_time": 27.286363636363635,
                "pitch": 65,
                "velocity": 80,
                "duration": 0.16590909090909278,
                "tempo": 120.0
            },
            {
                "start_time": 27.286363636363635,
                "end_time": 27.452272727272724,
                "pitch": 67,
                "velocity": 80,
                "duration": 0.16590909090908923,
                "tempo": 120.0
            },
            {
                "start_time": 27.454545454545453,
                "end_time": 27.797727272727272,
                "pitch": 69,
                "velocity": 80,
                "duration": 0.3431818181818187,
                "tempo": 120.0
            },
            {
                "start_time": 27.797727272727272,
                "end_time": 27.96590909090909,
                "pitch": 65,
                "velocity": 80,
                "duration": 0.168181818181818,
                "tempo": 120.0
            },
            {
                "start_time": 27.96590909090909,
                "end_time": 28.134090909090908,
                "pitch": 67,
                "velocity": 80,
                "duration": 0.168181818181818,
                "tempo": 120.0
            },
            {
                "start_time": 28.134090909090908,
                "end_time": 28.470454545454544,
                "pitch": 69,
                "velocity": 80,
                "duration": 0.336363636363636,
                "tempo": 120.0
            },
            {
                "start_time": 28.470454545454544,
                "end_time": 28.64090909090909,
                "pitch": 65,
                "velocity": 80,
                "duration": 0.17045454545454675,
                "tempo": 120.0
            },
            {
                "start_time": 28.64090909090909,
                "end_time": 28.813636363636363,
                "pitch": 67,
                "velocity": 80,
                "duration": 0.17272727272727195,
                "tempo": 120.0
            },
            {
                "start_time": 28.813636363636363,
                "end_time": 28.98181818181818,
                "pitch": 69,
                "velocity": 80,
                "duration": 0.168181818181818,
                "tempo": 120.0
            },
            {
                "start_time": 28.98181818181818,
                "end_time": 29.320454545454545,
                "pitch": 65,
                "velocity": 80,
                "duration": 0.33863636363636473,
                "tempo": 120.0
            },
            {
                "start_time": 29.32272727272727,
                "end_time": 29.493181818181817,
                "pitch": 67,
                "velocity": 80,
                "duration": 0.17045454545454675,
                "tempo": 120.0
            },
            {
                "start_time": 29.495454545454542,
                "end_time": 29.829545454545453,
                "pitch": 69,
                "velocity": 80,
                "duration": 0.33409090909091077,
                "tempo": 120.0
            },
            {
                "start_time": 29.829545454545453,
                "end_time": 29.995454545454542,
                "pitch": 64,
                "velocity": 80,
                "duration": 0.16590909090908923,
                "tempo": 120.0
            },
            {
                "start_time": 29.99772727272727,
                "end_time": 30.16363636363636,
                "pitch": 65,
                "velocity": 80,
                "duration": 0.16590909090908923,
                "tempo": 120.0
            },
            {
                "start_time": 30.16590909090909,
                "end_time": 30.509090909090908,
                "pitch": 67,
                "velocity": 80,
                "duration": 0.3431818181818187,
                "tempo": 120.0
            },
            {
                "start_time": 30.509090909090908,
                "end_time": 30.677272727272726,
                "pitch": 64,
                "velocity": 80,
                "duration": 0.168181818181818,
                "tempo": 120.0
            },
            {
                "start_time": 30.677272727272726,
                "end_time": 30.845454545454544,
                "pitch": 65,
                "velocity": 80,
                "duration": 0.168181818181818,
                "tempo": 120.0
            },
            {
                "start_time": 30.845454545454544,
                "end_time": 31.190909090909088,
                "pitch": 67,
                "velocity": 80,
                "duration": 0.3454545454545439,
                "tempo": 120.0
            },
            {
                "start_time": 31.190909090909088,
                "end_time": 31.35681818181818,
                "pitch": 64,
                "velocity": 80,
                "duration": 0.16590909090909278,
                "tempo": 120.0
            },
            {
                "start_time": 31.35681818181818,
                "end_time": 31.525,
                "pitch": 65,
                "velocity": 80,
                "duration": 0.168181818181818,
                "tempo": 120.0
            },
            {
                "start_time": 31.525,
                "end_time": 31.693181818181817,
                "pitch": 67,
                "velocity": 80,
                "duration": 0.168181818181818,
                "tempo": 120.0
            },
            {
                "start_time": 31.693181818181817,
                "end_time": 32.027272727272724,
                "pitch": 69,
                "velocity": 80,
                "duration": 0.3340909090909072,
                "tempo": 120.0
            },
            {
                "start_time": 32.027272727272724,
                "end_time": 32.195454545454545,
                "pitch": 71,
                "velocity": 80,
                "duration": 0.16818181818182154,
                "tempo": 120.0
            },
            {
                "start_time": 32.195454545454545,
                "end_time": 32.470454545454544,
                "pitch": 72,
                "velocity": 80,
                "duration": 0.2749999999999986,
                "tempo": 120.0
            }
        ],
        "Electric Piano 1": [
            {
                "start_time": 10.854545454545454,
                "end_time": 11.018181818181818,
                "pitch": 52,
                "velocity": 101,
                "duration": 0.16363636363636402,
                "tempo": 120.0
            },
            {
                "start_time": 11.020454545454545,
                "end_time": 11.35681818181818,
                "pitch": 57,
                "velocity": 101,
                "duration": 0.336363636363636,
                "tempo": 120.0
            },
            {
                "start_time": 11.35909090909091,
                "end_time": 11.86590909090909,
                "pitch": 60,
                "velocity": 101,
                "duration": 0.506818181818181,
                "tempo": 120.0
            },
            {
                "start_time": 11.868181818181817,
                "end_time": 12.202272727272726,
                "pitch": 59,
                "velocity": 101,
                "duration": 0.334090909090909,
                "tempo": 120.0
            },
            {
                "start_time": 12.202272727272726,
                "end_time": 12.545454545454545,
                "pitch": 57,
                "velocity": 101,
                "duration": 0.3431818181818187,
                "tempo": 120.0
            },
            {
                "start_time": 12.547727272727272,
                "end_time": 12.847727272727273,
                "pitch": 55,
                "velocity": 101,
                "duration": 0.3000000000000007,
                "tempo": 120.0
            },
            {
                "start_time": 12.847727272727273,
                "end_time": 12.881818181818181,
                "pitch": 55,
                "velocity": 101,
                "duration": 0.034090909090908283,
                "tempo": 120.0
            },
            {
                "start_time": 12.881818181818181,
                "end_time": 13.052272727272726,
                "pitch": 53,
                "velocity": 101,
                "duration": 0.17045454545454497,
                "tempo": 120.0
            },
            {
                "start_time": 13.054545454545455,
                "end_time": 13.361363636363636,
                "pitch": 55,
                "velocity": 101,
                "duration": 0.30681818181818166,
                "tempo": 120.0
            },
            {
                "start_time": 12.847727272727273,
                "end_time": 13.361363636363636,
                "pitch": 67,
                "velocity": 101,
                "duration": 0.5136363636363637,
                "tempo": 120.0
            },
            {
                "start_time": 13.361363636363636,
                "end_time": 13.411363636363635,
                "pitch": 55,
                "velocity": 101,
                "duration": 0.049999999999998934,
                "tempo": 120.0
            },
            {
                "start_time": 13.411363636363635,
                "end_time": 13.527272727272727,
                "pitch": 55,
                "velocity": 101,
                "duration": 0.11590909090909207,
                "tempo": 120.0
            },
            {
                "start_time": 13.361363636363636,
                "end_time": 13.529545454545454,
                "pitch": 67,
                "velocity": 101,
                "duration": 0.168181818181818,
                "tempo": 120.0
            },
            {
                "start_time": 13.527272727272727,
                "end_time": 13.529545454545454,
                "pitch": 67,
                "velocity": 101,
                "duration": 0.002272727272726982,
                "tempo": 120.0
            },
            {
                "start_time": 13.529545454545454,
                "end_time": 13.561363636363636,
                "pitch": 55,
                "velocity": 101,
                "duration": 0.0318181818181813,
                "tempo": 120.0
            },
            {
                "start_time": 13.563636363636363,
                "end_time": 13.729545454545454,
                "pitch": 50,
                "velocity": 101,
                "duration": 0.165909090909091,
                "tempo": 120.0
            },
            {
                "start_time": 13.729545454545454,
                "end_time": 14.034090909090908,
                "pitch": 55,
                "velocity": 101,
                "duration": 0.3045454545454547,
                "tempo": 120.0
            },
            {
                "start_time": 14.034090909090908,
                "end_time": 14.068181818181818,
                "pitch": 55,
                "velocity": 101,
                "duration": 0.03409090909091006,
                "tempo": 120.0
            },
            {
                "start_time": 14.070454545454545,
                "end_time": 14.577272727272726,
                "pitch": 59,
                "velocity": 101,
                "duration": 0.506818181818181,
                "tempo": 120.0
            },
            {
                "start_time": 14.577272727272726,
                "end_time": 14.911363636363635,
                "pitch": 57,
                "velocity": 101,
                "duration": 0.334090909090909,
                "tempo": 120.0
            },
            {
                "start_time": 14.913636363636362,
                "end_time": 15.222727272727273,
                "pitch": 55,
                "velocity": 101,
                "duration": 0.3090909090909104,
                "tempo": 120.0
            },
            {
                "start_time": 14.034090909090908,
                "end_time": 15.222727272727273,
                "pitch": 67,
                "velocity": 101,
                "duration": 1.1886363636363644,
                "tempo": 120.0
            },
            {
                "start_time": 15.222727272727273,
                "end_time": 15.256818181818181,
                "pitch": 55,
                "velocity": 101,
                "duration": 0.034090909090908283,
                "tempo": 120.0
            },
            {
                "start_time": 15.259090909090908,
                "end_time": 15.593181818181817,
                "pitch": 53,
                "velocity": 101,
                "duration": 0.334090909090909,
                "tempo": 120.0
            },
            {
                "start_time": 15.593181818181817,
                "end_time": 15.763636363636364,
                "pitch": 52,
                "velocity": 101,
                "duration": 0.17045454545454675,
                "tempo": 120.0
            },
            {
                "start_time": 15.76590909090909,
                "end_time": 16.272727272727273,
                "pitch": 53,
                "velocity": 101,
                "duration": 0.5068181818181827,
                "tempo": 120.0
            },
            {
                "start_time": 16.275,
                "end_time": 16.44090909090909,
                "pitch": 48,
                "velocity": 101,
                "duration": 0.16590909090909278,
                "tempo": 120.0
            },
            {
                "start_time": 16.44090909090909,
                "end_time": 16.779545454545453,
                "pitch": 50,
                "velocity": 101,
                "duration": 0.3386363636363612,
                "tempo": 120.0
            },
            {
                "start_time": 16.78181818181818,
                "end_time": 17.288636363636364,
                "pitch": 57,
                "velocity": 101,
                "duration": 0.5068181818181827,
                "tempo": 120.0
            },
            {
                "start_time": 17.288636363636364,
                "end_time": 17.59090909090909,
                "pitch": 55,
                "velocity": 101,
                "duration": 0.3022727272727259,
                "tempo": 120.0
            },
            {
                "start_time": 15.222727272727273,
                "end_time": 17.59090909090909,
                "pitch": 67,
                "velocity": 101,
                "duration": 2.3681818181818173,
                "tempo": 120.0
            },
            {
                "start_time": 17.59090909090909,
                "end_time": 17.62272727272727,
                "pitch": 55,
                "velocity": 101,
                "duration": 0.0318181818181813,
                "tempo": 120.0
            },
            {
                "start_time": 17.625,
                "end_time": 18.13181818181818,
                "pitch": 53,
                "velocity": 101,
                "duration": 0.5068181818181792,
                "tempo": 120.0
            },
            {
                "start_time": 18.13181818181818,
                "end_time": 18.647727272727273,
                "pitch": 52,
                "velocity": 101,
                "duration": 0.5159090909090942,
                "tempo": 120.0
            },
            {
                "start_time": 18.65,
                "end_time": 18.98409090909091,
                "pitch": 53,
                "velocity": 101,
                "duration": 0.33409090909091077,
                "tempo": 120.0
            },
            {
                "start_time": 18.986363636363635,
                "end_time": 19.318181818181817,
                "pitch": 48,
                "velocity": 101,
                "duration": 0.331818181818182,
                "tempo": 120.0
            },
            {
                "start_time": 19.320454545454545,
                "end_time": 19.663636363636364,
                "pitch": 48,
                "velocity": 101,
                "duration": 0.3431818181818187,
                "tempo": 120.0
            },
            {
                "start_time": 19.66590909090909,
                "end_time": 19.831818181818182,
                "pitch": 48,
                "velocity": 101,
                "duration": 0.16590909090909278,
                "tempo": 120.0
            },
            {
                "start_time": 19.831818181818182,
                "end_time": 20.0,
                "pitch": 47,
                "velocity": 101,
                "duration": 0.168181818181818,
                "tempo": 120.0
            },
            {
                "start_time": 20.0,
                "end_time": 20.16590909090909,
                "pitch": 45,
                "velocity": 101,
                "duration": 0.16590909090908923,
                "tempo": 120.0
            },
            {
                "start_time": 20.168181818181818,
                "end_time": 20.670454545454543,
                "pitch": 47,
                "velocity": 101,
                "duration": 0.5022727272727252,
                "tempo": 120.0
            },
            {
                "start_time": 20.670454545454543,
                "end_time": 21.013636363636362,
                "pitch": 48,
                "velocity": 101,
                "duration": 0.3431818181818187,
                "tempo": 120.0
            },
            {
                "start_time": 21.01590909090909,
                "end_time": 21.186363636363634,
                "pitch": 50,
                "velocity": 101,
                "duration": 0.1704545454545432,
                "tempo": 120.0
            },
            {
                "start_time": 21.188636363636363,
                "end_time": 21.695454545454545,
                "pitch": 52,
                "velocity": 101,
                "duration": 0.5068181818181827,
                "tempo": 120.0
            },
            {
                "start_time": 21.69772727272727,
                "end_time": 21.861363636363635,
                "pitch": 52,
                "velocity": 101,
                "duration": 0.16363636363636402,
                "tempo": 120.0
            },
            {
                "start_time": 21.863636363636363,
                "end_time": 22.202272727272724,
                "pitch": 57,
                "velocity": 101,
                "duration": 0.3386363636363612,
                "tempo": 120.0
            },
            {
                "start_time": 22.204545454545453,
                "end_time": 22.709090909090907,
                "pitch": 60,
                "velocity": 101,
                "duration": 0.504545454545454,
                "tempo": 120.0
            },
            {
                "start_time": 22.711363636363636,
                "end_time": 23.045454545454543,
                "pitch": 59,
                "velocity": 101,
                "duration": 0.3340909090909072,
                "tempo": 120.0
            },
            {
                "start_time": 23.047727272727272,
                "end_time": 23.39090909090909,
                "pitch": 57,
                "velocity": 101,
                "duration": 0.3431818181818187,
                "tempo": 120.0
            },
            {
                "start_time": 23.39090909090909,
                "end_time": 23.693181818181817,
                "pitch": 55,
                "velocity": 101,
                "duration": 0.3022727272727259,
                "tempo": 120.0
            },
            {
                "start_time": 17.59090909090909,
                "end_time": 23.693181818181817,
                "pitch": 67,
                "velocity": 101,
                "duration": 6.102272727272727,
                "tempo": 120.0
            },
            {
                "start_time": 23.693181818181817,
                "end_time": 23.724999999999998,
                "pitch": 55,
                "velocity": 101,
                "duration": 0.0318181818181813,
                "tempo": 120.0
            },
            {
                "start_time": 23.727272727272727,
                "end_time": 23.89772727272727,
                "pitch": 53,
                "velocity": 101,
                "duration": 0.1704545454545432,
                "tempo": 120.0
            },
            {
                "start_time": 23.9,
                "end_time": 24.204545454545453,
                "pitch": 55,
                "velocity": 101,
                "duration": 0.3045454545454547,
                "tempo": 120.0
            },
            {
                "start_time": 23.693181818181817,
                "end_time": 24.204545454545453,
                "pitch": 67,
                "velocity": 101,
                "duration": 0.5113636363636367,
                "tempo": 120.0
            },
            {
                "start_time": 13.411363636363635,
                "end_time": 24.254545454545454,
                "pitch": 43,
                "velocity": 101,
                "duration": 10.843181818181819,
                "tempo": 120.0
            },
            {
                "start_time": 24.204545454545453,
                "end_time": 24.254545454545454,
                "pitch": 55,
                "velocity": 101,
                "duration": 0.05000000000000071,
                "tempo": 120.0
            },
            {
                "start_time": 24.254545454545454,
                "end_time": 24.37272727272727,
                "pitch": 55,
                "velocity": 101,
                "duration": 0.11818181818181728,
                "tempo": 120.0
            },
            {
                "start_time": 24.204545454545453,
                "end_time": 24.37272727272727,
                "pitch": 67,
                "velocity": 101,
                "duration": 0.168181818181818,
                "tempo": 120.0
            },
            {
                "start_time": 24.37272727272727,
                "end_time": 24.40681818181818,
                "pitch": 55,
                "velocity": 101,
                "duration": 0.03409090909091006,
                "tempo": 120.0
            },
            {
                "start_time": 24.40681818181818,
                "end_time": 24.57272727272727,
                "pitch": 50,
                "velocity": 101,
                "duration": 0.16590909090908923,
                "tempo": 120.0
            },
            {
                "start_time": 24.575,
                "end_time": 24.879545454545454,
                "pitch": 55,
                "velocity": 101,
                "duration": 0.3045454545454547,
                "tempo": 120.0
            },
            {
                "start_time": 24.37272727272727,
                "end_time": 24.879545454545454,
                "pitch": 67,
                "velocity": 101,
                "duration": 0.5068181818181827,
                "tempo": 120.0
            },
            {
                "start_time": 24.879545454545454,
                "end_time": 24.913636363636364,
                "pitch": 55,
                "velocity": 101,
                "duration": 0.03409090909091006,
                "tempo": 120.0
            },
            {
                "start_time": 24.91590909090909,
                "end_time": 25.420454545454543,
                "pitch": 59,
                "velocity": 101,
                "duration": 0.504545454545454,
                "tempo": 120.0
            },
            {
                "start_time": 25.422727272727272,
                "end_time": 25.75681818181818,
                "pitch": 57,
                "velocity": 101,
                "duration": 0.3340909090909072,
                "tempo": 120.0
            },
            {
                "start_time": 25.759090909090908,
                "end_time": 26.068181818181817,
                "pitch": 55,
                "velocity": 101,
                "duration": 0.30909090909090864,
                "tempo": 120.0
            },
            {
                "start_time": 24.879545454545454,
                "end_time": 26.068181818181817,
                "pitch": 67,
                "velocity": 101,
                "duration": 1.1886363636363626,
                "tempo": 120.0
            },
            {
                "start_time": 26.068181818181817,
                "end_time": 26.102272727272727,
                "pitch": 55,
                "velocity": 101,
                "duration": 0.03409090909091006,
                "tempo": 120.0
            },
            {
                "start_time": 26.102272727272727,
                "end_time": 26.436363636363634,
                "pitch": 53,
                "velocity": 101,
                "duration": 0.3340909090909072,
                "tempo": 120.0
            },
            {
                "start_time": 26.438636363636363,
                "end_time": 26.60909090909091,
                "pitch": 52,
                "velocity": 101,
                "duration": 0.17045454545454675,
                "tempo": 120.0
            },
            {
                "start_time": 26.611363636363635,
                "end_time": 27.118181818181817,
                "pitch": 53,
                "velocity": 101,
                "duration": 0.5068181818181827,
                "tempo": 120.0
            },
            {
                "start_time": 27.118181818181817,
                "end_time": 27.284090909090907,
                "pitch": 48,
                "velocity": 101,
                "duration": 0.16590909090908923,
                "tempo": 120.0
            },
            {
                "start_time": 27.286363636363635,
                "end_time": 27.625,
                "pitch": 50,
                "velocity": 101,
                "duration": 0.33863636363636473,
                "tempo": 120.0
            },
            {
                "start_time": 27.625,
                "end_time": 28.13181818181818,
                "pitch": 57,
                "velocity": 101,
                "duration": 0.5068181818181792,
                "tempo": 120.0
            },
            {
                "start_time": 28.134090909090908,
                "end_time": 28.43409090909091,
                "pitch": 55,
                "velocity": 101,
                "duration": 0.3000000000000007,
                "tempo": 120.0
            },
            {
                "start_time": 26.068181818181817,
                "end_time": 28.43409090909091,
                "pitch": 67,
                "velocity": 101,
                "duration": 2.365909090909092,
                "tempo": 120.0
            },
            {
                "start_time": 28.43409090909091,
                "end_time": 28.468181818181815,
                "pitch": 55,
                "velocity": 101,
                "duration": 0.03409090909090651,
                "tempo": 120.0
            },
            {
                "start_time": 28.470454545454544,
                "end_time": 28.979545454545452,
                "pitch": 53,
                "velocity": 101,
                "duration": 0.5090909090909079,
                "tempo": 120.0
            },
            {
                "start_time": 28.98181818181818,
                "end_time": 29.493181818181817,
                "pitch": 52,
                "velocity": 101,
                "duration": 0.5113636363636367,
                "tempo": 120.0
            },
            {
                "start_time": 29.493181818181817,
                "end_time": 29.827272727272724,
                "pitch": 50,
                "velocity": 101,
                "duration": 0.3340909090909072,
                "tempo": 120.0
            },
            {
                "start_time": 29.829545454545453,
                "end_time": 30.336363636363636,
                "pitch": 52,
                "velocity": 101,
                "duration": 0.5068181818181827,
                "tempo": 120.0
            },
            {
                "start_time": 30.336363636363636,
                "end_time": 30.843181818181815,
                "pitch": 47,
                "velocity": 101,
                "duration": 0.5068181818181792,
                "tempo": 120.0
            },
            {
                "start_time": 30.845454545454544,
                "end_time": 31.188636363636363,
                "pitch": 48,
                "velocity": 101,
                "duration": 0.3431818181818187,
                "tempo": 120.0
            },
            {
                "start_time": 31.188636363636363,
                "end_time": 31.690909090909088,
                "pitch": 50,
                "velocity": 101,
                "duration": 0.5022727272727252,
                "tempo": 120.0
            },
            {
                "start_time": 31.693181818181817,
                "end_time": 32.19318181818182,
                "pitch": 52,
                "velocity": 101,
                "duration": 0.5000000000000036,
                "tempo": 120.0
            },
            {
                "start_time": 32.195454545454545,
                "end_time": 32.470454545454544,
                "pitch": 55,
                "velocity": 101,
                "duration": 0.2749999999999986,
                "tempo": 120.0
            }
        ]
    }
}