{
    "track_id": "11 Ending",
    "mood": "angry",
    "instruments": {
        "Trumpet": [
            {
                "start_time": 32.79772727272727,
                "end_time": 32.96818181818182,
                "pitch": 67,
                "velocity": 101,
                "duration": 0.17045454545454675,
                "tempo": 120.0
            },
            {
                "start_time": 32.96818181818182,
                "end_time": 33.14090909090909,
                "pitch": 65,
                "velocity": 101,
                "duration": 0.17272727272727195,
                "tempo": 120.0
            },
            {
                "start_time": 33.14090909090909,
                "end_time": 33.309090909090905,
                "pitch": 65,
                "velocity": 101,
                "duration": 0.16818181818181444,
                "tempo": 120.0
            },
            {
                "start_time": 33.309090909090905,
                "end_time": 33.643181818181816,
                "pitch": 63,
                "velocity": 101,
                "duration": 0.33409090909091077,
                "tempo": 120.0
            },
            {
                "start_time": 33.643181818181816,
                "end_time": 33.64545454545454,
                "pitch": 62,
                "velocity": 101,
                "duration": 0.0022727272727252057,
                "tempo": 120.0
            },
            {
                "start_time": 33.64545454545454,
                "end_time": 34.15681818181818,
                "pitch": 60,
                "velocity": 101,
                "duration": 0.5113636363636402,
                "tempo": 120.0
            },
            {
                "start_time": 34.15681818181818,
                "end_time": 34.324999999999996,
                "pitch": 65,
                "velocity": 101,
                "duration": 0.16818181818181444,
                "tempo": 120.0
            },
            {
                "start_time": 34.324999999999996,
                "end_time": 34.49318181818182,
                "pitch": 65,
                "velocity": 101,
                "duration": 0.16818181818182154,
                "tempo": 120.0
            },
            {
                "start_time": 34.49318181818182,
                "end_time": 34.663636363636364,
                "pitch": 63,
                "velocity": 101,
                "duration": 0.17045454545454675,
                "tempo": 120.0
            },
            {
                "start_time": 34.15681818181818,
                "end_time": 35.02045454545454,
                "pitch": 60,
                "velocity": 101,
                "duration": 0.8636363636363598,
                "tempo": 120.0
            },
            {
                "start_time": 34.663636363636364,
                "end_time": 35.02045454545454,
                "pitch": 60,
                "velocity": 101,
                "duration": 0.35681818181817704,
                "tempo": 120.0
            },
            {
                "start_time": 35.02045454545454,
                "end_time": 35.543181818181814,
                "pitch": 58,
                "velocity": 101,
                "duration": 0.5227272727272734,
                "tempo": 120.0
            },
            {
                "start_time": 35.543181818181814,
                "end_time": 35.711363636363636,
                "pitch": 63,
                "velocity": 101,
                "duration": 0.16818181818182154,
                "tempo": 120.0
            },
            {
                "start_time": 34.663636363636364,
                "end_time": 35.87954545454545,
                "pitch": 62,
                "velocity": 101,
                "duration": 1.2159090909090864,
                "tempo": 120.0
            },
            {
                "start_time": 35.711363636363636,
                "end_time": 35.87954545454545,
                "pitch": 63,
                "velocity": 101,
                "duration": 0.16818181818181444,
                "tempo": 120.0
            },
            {
                "start_time": 35.02045454545454,
                "end_time": 36.05227272727272,
                "pitch": 60,
                "velocity": 101,
                "duration": 1.0318181818181813,
                "tempo": 120.0
            },
            {
                "start_time": 35.87954545454545,
                "end_time": 36.05227272727272,
                "pitch": 60,
                "velocity": 101,
                "duration": 0.17272727272727195,
                "tempo": 120.0
            },
            {
                "start_time": 35.543181818181814,
                "end_time": 36.39090909090909,
                "pitch": 58,
                "velocity": 101,
                "duration": 0.8477272727272762,
                "tempo": 120.0
            },
            {
                "start_time": 36.05227272727272,
                "end_time": 36.39090909090909,
                "pitch": 58,
                "velocity": 101,
                "duration": 0.3386363636363683,
                "tempo": 120.0
            },
            {
                "start_time": 36.39090909090909,
                "end_time": 36.89545454545454,
                "pitch": 58,
                "velocity": 101,
                "duration": 0.5045454545454504,
                "tempo": 120.0
            },
            {
                "start_time": 36.05227272727272,
                "end_time": 37.40681818181818,
                "pitch": 60,
                "velocity": 101,
                "duration": 1.354545454545459,
                "tempo": 120.0
            },
            {
                "start_time": 36.89545454545454,
                "end_time": 37.40681818181818,
                "pitch": 60,
                "velocity": 101,
                "duration": 0.5113636363636402,
                "tempo": 120.0
            },
            {
                "start_time": 35.87954545454545,
                "end_time": 38.25454545454545,
                "pitch": 62,
                "velocity": 101,
                "duration": 2.375,
                "tempo": 120.0
            },
            {
                "start_time": 37.40681818181818,
                "end_time": 38.25454545454545,
                "pitch": 62,
                "velocity": 101,
                "duration": 0.8477272727272691,
                "tempo": 120.0
            },
            {
                "start_time": 32.79772727272727,
                "end_time": 38.25454545454545,
                "pitch": 74,
                "velocity": 101,
                "duration": 5.4568181818181785,
                "tempo": 120.0
            },
            {
                "start_time": 32.96818181818182,
                "end_time": 38.42272727272727,
                "pitch": 55,
                "velocity": 101,
                "duration": 5.454545454545453,
                "tempo": 120.0
            },
            {
                "start_time": 38.25454545454545,
                "end_time": 38.42272727272727,
                "pitch": 67,
                "velocity": 101,
                "duration": 0.16818181818182154,
                "tempo": 120.0
            },
            {
                "start_time": 38.42272727272727,
                "end_time": 38.590909090909086,
                "pitch": 65,
                "velocity": 101,
                "duration": 0.16818181818181444,
                "tempo": 120.0
            },
            {
                "start_time": 38.590909090909086,
                "end_time": 38.76136363636363,
                "pitch": 65,
                "velocity": 101,
                "duration": 0.17045454545454675,
                "tempo": 120.0
            },
            {
                "start_time": 38.76136363636363,
                "end_time": 39.10227272727273,
                "pitch": 63,
                "velocity": 101,
                "duration": 0.3409090909090935,
                "tempo": 120.0
            },
            {
                "start_time": 37.40681818181818,
                "end_time": 39.64090909090909,
                "pitch": 60,
                "velocity": 101,
                "duration": 2.2340909090909093,
                "tempo": 120.0
            },
            {
                "start_time": 39.10227272727273,
                "end_time": 39.64090909090909,
                "pitch": 60,
                "velocity": 101,
                "duration": 0.538636363636364,
                "tempo": 120.0
            },
            {
                "start_time": 39.64090909090909,
                "end_time": 39.809090909090905,
                "pitch": 65,
                "velocity": 101,
                "duration": 0.16818181818181444,
                "tempo": 120.0
            },
            {
                "start_time": 39.809090909090905,
                "end_time": 39.97727272727273,
                "pitch": 65,
                "velocity": 101,
                "duration": 0.16818181818182154,
                "tempo": 120.0
            },
            {
                "start_time": 39.10227272727273,
                "end_time": 40.15,
                "pitch": 62,
                "velocity": 101,
                "duration": 1.047727272727272,
                "tempo": 120.0
            },
            {
                "start_time": 39.97727272727273,
                "end_time": 40.15,
                "pitch": 63,
                "velocity": 101,
                "duration": 0.17272727272727195,
                "tempo": 120.0
            },
            {
                "start_time": 39.64090909090909,
                "end_time": 40.48863636363636,
                "pitch": 60,
                "velocity": 101,
                "duration": 0.8477272727272691,
                "tempo": 120.0
            },
            {
                "start_time": 40.15,
                "end_time": 40.48863636363636,
                "pitch": 60,
                "velocity": 101,
                "duration": 0.3386363636363612,
                "tempo": 120.0
            },
            {
                "start_time": 40.48863636363636,
                "end_time": 41.002272727272725,
                "pitch": 58,
                "velocity": 101,
                "duration": 0.5136363636363654,
                "tempo": 120.0
            },
            {
                "start_time": 41.002272727272725,
                "end_time": 41.168181818181814,
                "pitch": 63,
                "velocity": 101,
                "duration": 0.16590909090908923,
                "tempo": 120.0
            },
            {
                "start_time": 40.15,
                "end_time": 41.336363636363636,
                "pitch": 62,
                "velocity": 101,
                "duration": 1.1863636363636374,
                "tempo": 120.0
            },
            {
                "start_time": 41.168181818181814,
                "end_time": 41.336363636363636,
                "pitch": 63,
                "velocity": 101,
                "duration": 0.16818181818182154,
                "tempo": 120.0
            },
            {
                "start_time": 40.48863636363636,
                "end_time": 41.50909090909091,
                "pitch": 60,
                "velocity": 101,
                "duration": 1.0204545454545482,
                "tempo": 120.0
            },
            {
                "start_time": 41.336363636363636,
                "end_time": 41.50909090909091,
                "pitch": 60,
                "velocity": 101,
                "duration": 0.17272727272727195,
                "tempo": 120.0
            },
            {
                "start_time": 41.002272727272725,
                "end_time": 41.85,
                "pitch": 58,
                "velocity": 101,
                "duration": 0.8477272727272762,
                "tempo": 120.0
            },
            {
                "start_time": 41.50909090909091,
                "end_time": 41.85,
                "pitch": 58,
                "velocity": 101,
                "duration": 0.3409090909090935,
                "tempo": 120.0
            },
            {
                "start_time": 41.85,
                "end_time": 42.35227272727273,
                "pitch": 58,
                "velocity": 101,
                "duration": 0.5022727272727252,
                "tempo": 120.0
            },
            {
                "start_time": 36.89545454545454,
                "end_time": 42.59318181818182,
                "pitch": 57,
                "velocity": 101,
                "duration": 5.697727272727278,
                "tempo": 120.0
            },
            {
                "start_time": 42.35227272727273,
                "end_time": 42.59318181818182,
                "pitch": 57,
                "velocity": 101,
                "duration": 0.24090909090909207,
                "tempo": 120.0
            },
            {
                "start_time": 42.59318181818182,
                "end_time": 42.81363636363636,
                "pitch": 57,
                "velocity": 101,
                "duration": 0.2204545454545439,
                "tempo": 120.0
            },
            {
                "start_time": 42.81363636363636,
                "end_time": 43.03181818181818,
                "pitch": 53,
                "velocity": 101,
                "duration": 0.2181818181818187,
                "tempo": 120.0
            },
            {
                "start_time": 43.03181818181818,
                "end_time": 43.27272727272727,
                "pitch": 51,
                "velocity": 101,
                "duration": 0.24090909090909207,
                "tempo": 120.0
            },
            {
                "start_time": 43.27272727272727,
                "end_time": 43.49318181818182,
                "pitch": 51,
                "velocity": 101,
                "duration": 0.2204545454545439,
                "tempo": 120.0
            }
        ],
        "Acoustic Bass": [
            {
                "start_time": 0.0,
                "end_time": 0.35227272727272724,
                "pitch": 43,
                "velocity": 101,
                "duration": 0.35227272727272724,
                "tempo": 120.0
            },
            {
                "start_time": 0.35227272727272724,
                "end_time": 0.5295454545454545,
                "pitch": 43,
                "velocity": 101,
                "duration": 0.1772727272727273,
                "tempo": 120.0
            },
            {
                "start_time": 0.5295454545454545,
                "end_time": 0.8727272727272727,
                "pitch": 43,
                "velocity": 101,
                "duration": 0.34318181818181814,
                "tempo": 120.0
            },
            {
                "start_time": 0.8727272727272727,
                "end_time": 1.0409090909090908,
                "pitch": 43,
                "velocity": 101,
                "duration": 0.1681818181818181,
                "tempo": 120.0
            },
            {
                "start_time": 1.0409090909090908,
                "end_time": 1.3863636363636362,
                "pitch": 43,
                "velocity": 101,
                "duration": 0.34545454545454546,
                "tempo": 120.0
            },
            {
                "start_time": 1.3863636363636362,
                "end_time": 1.7318181818181817,
                "pitch": 43,
                "velocity": 101,
                "duration": 0.34545454545454546,
                "tempo": 120.0
            },
            {
                "start_time": 1.7318181818181817,
                "end_time": 1.9,
                "pitch": 43,
                "velocity": 101,
                "duration": 0.1681818181818182,
                "tempo": 120.0
            },
            {
                "start_time": 1.9,
                "end_time": 2.234090909090909,
                "pitch": 43,
                "velocity": 101,
                "duration": 0.334090909090909,
                "tempo": 120.0
            },
            {
                "start_time": 2.234090909090909,
                "end_time": 2.4022727272727273,
                "pitch": 43,
                "velocity": 101,
                "duration": 0.16818181818181843,
                "tempo": 120.0
            },
            {
                "start_time": 2.4022727272727273,
                "end_time": 2.7477272727272726,
                "pitch": 43,
                "velocity": 101,
                "duration": 0.34545454545454524,
                "tempo": 120.0
            },
            {
                "start_time": 2.7477272727272726,
                "end_time": 3.0818181818181816,
                "pitch": 43,
                "velocity": 101,
                "duration": 0.334090909090909,
                "tempo": 120.0
            },
            {
                "start_time": 3.0818181818181816,
                "end_time": 3.25,
                "pitch": 43,
                "velocity": 101,
                "duration": 0.16818181818181843,
                "tempo": 120.0
            },
            {
                "start_time": 3.25,
                "end_time": 3.5886363636363634,
                "pitch": 43,
                "velocity": 101,
                "duration": 0.3386363636363634,
                "tempo": 120.0
            },
            {
                "start_time": 3.5886363636363634,
                "end_time": 3.7613636363636362,
                "pitch": 43,
                "velocity": 101,
                "duration": 0.17272727272727284,
                "tempo": 120.0
            },
            {
                "start_time": 3.7613636363636362,
                "end_time": 4.097727272727273,
                "pitch": 43,
                "velocity": 101,
                "duration": 0.3363636363636364,
                "tempo": 120.0
            },
            {
                "start_time": 4.097727272727273,
                "end_time": 4.459090909090909,
                "pitch": 43,
                "velocity": 101,
                "duration": 0.36136363636363633,
                "tempo": 120.0
            },
            {
                "start_time": 4.459090909090909,
                "end_time": 4.636363636363636,
                "pitch": 43,
                "velocity": 101,
                "duration": 0.1772727272727268,
                "tempo": 120.0
            },
            {
                "start_time": 4.636363636363636,
                "end_time": 4.9818181818181815,
                "pitch": 43,
                "velocity": 101,
                "duration": 0.3454545454545457,
                "tempo": 120.0
            },
            {
                "start_time": 4.9818181818181815,
                "end_time": 5.1499999999999995,
                "pitch": 43,
                "velocity": 101,
                "duration": 0.168181818181818,
                "tempo": 120.0
            },
            {
                "start_time": 5.1499999999999995,
                "end_time": 5.486363636363636,
                "pitch": 43,
                "velocity": 101,
                "duration": 0.33636363636363686,
                "tempo": 120.0
            },
            {
                "start_time": 5.486363636363636,
                "end_time": 5.820454545454545,
                "pitch": 43,
                "velocity": 101,
                "duration": 0.334090909090909,
                "tempo": 120.0
            },
            {
                "start_time": 5.820454545454545,
                "end_time": 5.993181818181818,
                "pitch": 45,
                "velocity": 101,
                "duration": 0.17272727272727284,
                "tempo": 120.0
            },
            {
                "start_time": 5.993181818181818,
                "end_time": 6.331818181818181,
                "pitch": 45,
                "velocity": 101,
                "duration": 0.33863636363636296,
                "tempo": 120.0
            },
            {
                "start_time": 6.331818181818181,
                "end_time": 6.5,
                "pitch": 45,
                "velocity": 101,
                "duration": 0.16818181818181888,
                "tempo": 120.0
            },
            {
                "start_time": 6.5,
                "end_time": 6.845454545454545,
                "pitch": 45,
                "velocity": 101,
                "duration": 0.3454545454545448,
                "tempo": 120.0
            },
            {
                "start_time": 6.845454545454545,
                "end_time": 7.179545454545454,
                "pitch": 45,
                "velocity": 101,
                "duration": 0.334090909090909,
                "tempo": 120.0
            },
            {
                "start_time": 7.179545454545454,
                "end_time": 7.352272727272727,
                "pitch": 45,
                "velocity": 101,
                "duration": 0.17272727272727284,
                "tempo": 120.0
            },
            {
                "start_time": 7.352272727272727,
                "end_time": 7.6931818181818175,
                "pitch": 45,
                "velocity": 101,
                "duration": 0.34090909090909083,
                "tempo": 120.0
            },
            {
                "start_time": 7.6931818181818175,
                "end_time": 7.861363636363636,
                "pitch": 45,
                "velocity": 101,
                "duration": 0.16818181818181888,
                "tempo": 120.0
            },
            {
                "start_time": 7.861363636363636,
                "end_time": 8.197727272727272,
                "pitch": 45,
                "velocity": 101,
                "duration": 0.336363636363636,
                "tempo": 120.0
            },
            {
                "start_time": 8.197727272727272,
                "end_time": 8.540909090909091,
                "pitch": 45,
                "velocity": 101,
                "duration": 0.3431818181818187,
                "tempo": 120.0
            },
            {
                "start_time": 8.540909090909091,
                "end_time": 8.709090909090909,
                "pitch": 45,
                "velocity": 101,
                "duration": 0.168181818181818,
                "tempo": 120.0
            },
            {
                "start_time": 8.709090909090909,
                "end_time": 9.06590909090909,
                "pitch": 45,
                "velocity": 101,
                "duration": 0.3568181818181806,
                "tempo": 120.0
            },
            {
                "start_time": 9.06590909090909,
                "end_time": 9.238636363636363,
                "pitch": 45,
                "velocity": 101,
                "duration": 0.17272727272727373,
                "tempo": 120.0
            },
            {
                "start_time": 9.238636363636363,
                "end_time": 9.584090909090909,
                "pitch": 45,
                "velocity": 101,
                "duration": 0.3454545454545457,
                "tempo": 120.0
            },
            {
                "start_time": 9.584090909090909,
                "end_time": 9.927272727272726,
                "pitch": 45,
                "velocity": 101,
                "duration": 0.3431818181818169,
                "tempo": 120.0
            },
            {
                "start_time": 9.927272727272726,
                "end_time": 10.095454545454546,
                "pitch": 45,
                "velocity": 101,
                "duration": 0.16818181818181976,
                "tempo": 120.0
            },
            {
                "start_time": 10.095454545454546,
                "end_time": 10.429545454545455,
                "pitch": 45,
                "velocity": 101,
                "duration": 0.334090909090909,
                "tempo": 120.0
            },
            {
                "start_time": 10.429545454545455,
                "end_time": 10.597727272727273,
                "pitch": 45,
                "velocity": 101,
                "duration": 0.168181818181818,
                "tempo": 120.0
            },
            {
                "start_time": 10.597727272727273,
                "end_time": 10.943181818181818,
                "pitch": 45,
                "velocity": 101,
                "duration": 0.3454545454545457,
                "tempo": 120.0
            },
            {
                "start_time": 10.943181818181818,
                "end_time": 10.945454545454545,
                "pitch": 45,
                "velocity": 101,
                "duration": 0.002272727272726982,
                "tempo": 120.0
            },
            {
                "start_time": 10.945454545454545,
                "end_time": 11.277272727272727,
                "pitch": 48,
                "velocity": 101,
                "duration": 0.331818181818182,
                "tempo": 120.0
            },
            {
                "start_time": 11.277272727272727,
                "end_time": 11.45,
                "pitch": 48,
                "velocity": 101,
                "duration": 0.17272727272727195,
                "tempo": 120.0
            },
            {
                "start_time": 11.45,
                "end_time": 11.790909090909091,
                "pitch": 48,
                "velocity": 101,
                "duration": 0.3409090909090917,
                "tempo": 120.0
            },
            {
                "start_time": 11.790909090909091,
                "end_time": 11.959090909090909,
                "pitch": 48,
                "velocity": 101,
                "duration": 0.168181818181818,
                "tempo": 120.0
            },
            {
                "start_time": 11.959090909090909,
                "end_time": 12.295454545454545,
                "pitch": 48,
                "velocity": 101,
                "duration": 0.336363636363636,
                "tempo": 120.0
            },
            {
                "start_time": 12.295454545454545,
                "end_time": 12.638636363636364,
                "pitch": 48,
                "velocity": 101,
                "duration": 0.3431818181818187,
                "tempo": 120.0
            },
            {
                "start_time": 12.638636363636364,
                "end_time": 12.806818181818182,
                "pitch": 48,
                "velocity": 101,
                "duration": 0.168181818181818,
                "tempo": 120.0
            },
            {
                "start_time": 12.806818181818182,
                "end_time": 13.163636363636362,
                "pitch": 48,
                "velocity": 101,
                "duration": 0.3568181818181806,
                "tempo": 120.0
            },
            {
                "start_time": 13.163636363636362,
                "end_time": 13.336363636363636,
                "pitch": 48,
                "velocity": 101,
                "duration": 0.17272727272727373,
                "tempo": 120.0
            },
            {
                "start_time": 13.336363636363636,
                "end_time": 13.69090909090909,
                "pitch": 48,
                "velocity": 101,
                "duration": 0.3545454545454536,
                "tempo": 120.0
            },
            {
                "start_time": 13.69090909090909,
                "end_time": 14.024999999999999,
                "pitch": 45,
                "velocity": 101,
                "duration": 0.334090909090909,
                "tempo": 120.0
            },
            {
                "start_time": 14.024999999999999,
                "end_time": 14.193181818181818,
                "pitch": 45,
                "velocity": 101,
                "duration": 0.16818181818181976,
                "tempo": 120.0
            },
            {
                "start_time": 14.193181818181818,
                "end_time": 14.529545454545454,
                "pitch": 45,
                "velocity": 101,
                "duration": 0.336363636363636,
                "tempo": 120.0
            },
            {
                "start_time": 14.529545454545454,
                "end_time": 14.697727272727272,
                "pitch": 45,
                "velocity": 101,
                "duration": 0.168181818181818,
                "tempo": 120.0
            },
            {
                "start_time": 14.697727272727272,
                "end_time": 15.043181818181818,
                "pitch": 45,
                "velocity": 101,
                "duration": 0.3454545454545457,
                "tempo": 120.0
            },
            {
                "start_time": 15.043181818181818,
                "end_time": 15.377272727272727,
                "pitch": 45,
                "velocity": 101,
                "duration": 0.334090909090909,
                "tempo": 120.0
            },
            {
                "start_time": 15.377272727272727,
                "end_time": 15.549999999999999,
                "pitch": 45,
                "velocity": 101,
                "duration": 0.17272727272727195,
                "tempo": 120.0
            },
            {
                "start_time": 15.549999999999999,
                "end_time": 15.888636363636364,
                "pitch": 45,
                "velocity": 101,
                "duration": 0.33863636363636473,
                "tempo": 120.0
            },
            {
                "start_time": 15.888636363636364,
                "end_time": 16.05681818181818,
                "pitch": 45,
                "velocity": 101,
                "duration": 0.1681818181818162,
                "tempo": 120.0
            },
            {
                "start_time": 16.05681818181818,
                "end_time": 16.402272727272727,
                "pitch": 45,
                "velocity": 101,
                "duration": 0.34545454545454746,
                "tempo": 120.0
            },
            {
                "start_time": 16.402272727272727,
                "end_time": 16.736363636363635,
                "pitch": 45,
                "velocity": 101,
                "duration": 0.3340909090909072,
                "tempo": 120.0
            },
            {
                "start_time": 16.736363636363635,
                "end_time": 16.909090909090907,
                "pitch": 43,
                "velocity": 101,
                "duration": 0.17272727272727195,
                "tempo": 120.0
            },
            {
                "start_time": 16.909090909090907,
                "end_time": 17.25,
                "pitch": 43,
                "velocity": 101,
                "duration": 0.3409090909090935,
                "tempo": 120.0
            },
            {
                "start_time": 17.25,
                "end_time": 17.418181818181818,
                "pitch": 43,
                "velocity": 101,
                "duration": 0.168181818181818,
                "tempo": 120.0
            },
            {
                "start_time": 17.418181818181818,
                "end_time": 17.770454545454545,
                "pitch": 43,
                "velocity": 101,
                "duration": 0.3522727272727266,
                "tempo": 120.0
            },
            {
                "start_time": 17.770454545454545,
                "end_time": 18.125,
                "pitch": 46,
                "velocity": 101,
                "duration": 0.3545454545454554,
                "tempo": 120.0
            },
            {
                "start_time": 18.125,
                "end_time": 18.297727272727272,
                "pitch": 46,
                "velocity": 101,
                "duration": 0.17272727272727195,
                "tempo": 120.0
            },
            {
                "start_time": 18.297727272727272,
                "end_time": 18.636363636363637,
                "pitch": 46,
                "velocity": 101,
                "duration": 0.33863636363636473,
                "tempo": 120.0
            },
            {
                "start_time": 18.636363636363637,
                "end_time": 18.804545454545455,
                "pitch": 46,
                "velocity": 101,
                "duration": 0.168181818181818,
                "tempo": 120.0
            },
            {
                "start_time": 18.804545454545455,
                "end_time": 19.14090909090909,
                "pitch": 46,
                "velocity": 101,
                "duration": 0.336363636363636,
                "tempo": 120.0
            },
            {
                "start_time": 17.770454545454545,
                "end_time": 19.48409090909091,
                "pitch": 43,
                "velocity": 101,
                "duration": 1.7136363636363647,
                "tempo": 120.0
            },
            {
                "start_time": 19.14090909090909,
                "end_time": 19.48409090909091,
                "pitch": 43,
                "velocity": 101,
                "duration": 0.3431818181818187,
                "tempo": 120.0
            },
            {
                "start_time": 19.48409090909091,
                "end_time": 19.652272727272727,
                "pitch": 43,
                "velocity": 101,
                "duration": 0.168181818181818,
                "tempo": 120.0
            },
            {
                "start_time": 19.652272727272727,
                "end_time": 19.988636363636363,
                "pitch": 43,
                "velocity": 101,
                "duration": 0.336363636363636,
                "tempo": 120.0
            },
            {
                "start_time": 19.988636363636363,
                "end_time": 20.15681818181818,
                "pitch": 43,
                "velocity": 101,
                "duration": 0.168181818181818,
                "tempo": 120.0
            },
            {
                "start_time": 20.15681818181818,
                "end_time": 20.5,
                "pitch": 43,
                "velocity": 101,
                "duration": 0.3431818181818187,
                "tempo": 120.0
            },
            {
                "start_time": 20.5,
                "end_time": 20.836363636363636,
                "pitch": 43,
                "velocity": 101,
                "duration": 0.336363636363636,
                "tempo": 120.0
            },
            {
                "start_time": 20.836363636363636,
                "end_time": 21.009090909090908,
                "pitch": 43,
                "velocity": 101,
                "duration": 0.17272727272727195,
                "tempo": 120.0
            },
            {
                "start_time": 21.009090909090908,
                "end_time": 21.347727272727273,
                "pitch": 43,
                "velocity": 101,
                "duration": 0.33863636363636473,
                "tempo": 120.0
            },
            {
                "start_time": 21.347727272727273,
                "end_time": 21.51590909090909,
                "pitch": 43,
                "velocity": 101,
                "duration": 0.168181818181818,
                "tempo": 120.0
            },
            {
                "start_time": 21.51590909090909,
                "end_time": 21.870454545454546,
                "pitch": 43,
                "velocity": 101,
                "duration": 0.3545454545454554,
                "tempo": 120.0
            },
            {
                "start_time": 21.870454545454546,
                "end_time": 22.222727272727273,
                "pitch": 43,
                "velocity": 101,
                "duration": 0.3522727272727266,
                "tempo": 120.0
            },
            {
                "start_time": 22.222727272727273,
                "end_time": 22.395454545454545,
                "pitch": 43,
                "velocity": 101,
                "duration": 0.17272727272727195,
                "tempo": 120.0
            },
            {
                "start_time": 22.395454545454545,
                "end_time": 22.736363636363635,
                "pitch": 43,
                "velocity": 101,
                "duration": 0.34090909090908994,
                "tempo": 120.0
            },
            {
                "start_time": 22.736363636363635,
                "end_time": 22.904545454545453,
                "pitch": 43,
                "velocity": 101,
                "duration": 0.168181818181818,
                "tempo": 120.0
            },
            {
                "start_time": 22.904545454545453,
                "end_time": 23.238636363636363,
                "pitch": 43,
                "velocity": 101,
                "duration": 0.33409090909091077,
                "tempo": 120.0
            },
            {
                "start_time": 23.238636363636363,
                "end_time": 23.575,
                "pitch": 43,
                "velocity": 101,
                "duration": 0.336363636363636,
                "tempo": 120.0
            },
            {
                "start_time": 23.575,
                "end_time": 23.74772727272727,
                "pitch": 43,
                "velocity": 101,
                "duration": 0.17272727272727195,
                "tempo": 120.0
            },
            {
                "start_time": 23.74772727272727,
                "end_time": 24.086363636363636,
                "pitch": 43,
                "velocity": 101,
                "duration": 0.33863636363636473,
                "tempo": 120.0
            },
            {
                "start_time": 24.086363636363636,
                "end_time": 24.254545454545454,
                "pitch": 43,
                "velocity": 101,
                "duration": 0.168181818181818,
                "tempo": 120.0
            },
            {
                "start_time": 24.254545454545454,
                "end_time": 24.599999999999998,
                "pitch": 43,
                "velocity": 101,
                "duration": 0.3454545454545439,
                "tempo": 120.0
            },
            {
                "start_time": 24.599999999999998,
                "end_time": 24.93409090909091,
                "pitch": 43,
                "velocity": 101,
                "duration": 0.33409090909091077,
                "tempo": 120.0
            },
            {
                "start_time": 24.93409090909091,
                "end_time": 25.10681818181818,
                "pitch": 45,
                "velocity": 101,
                "duration": 0.17272727272727195,
                "tempo": 120.0
            },
            {
                "start_time": 25.10681818181818,
                "end_time": 25.445454545454545,
                "pitch": 45,
                "velocity": 101,
                "duration": 0.33863636363636473,
                "tempo": 120.0
            },
            {
                "start_time": 25.44772727272727,
                "end_time": 25.613636363636363,
                "pitch": 45,
                "velocity": 101,
                "duration": 0.16590909090909278,
                "tempo": 120.0
            },
            {
                "start_time": 25.613636363636363,
                "end_time": 25.95,
                "pitch": 45,
                "velocity": 101,
                "duration": 0.336363636363636,
                "tempo": 120.0
            },
            {
                "start_time": 25.95,
                "end_time": 26.311363636363634,
                "pitch": 45,
                "velocity": 101,
                "duration": 0.36136363636363455,
                "tempo": 120.0
            },
            {
                "start_time": 26.311363636363634,
                "end_time": 26.488636363636363,
                "pitch": 45,
                "velocity": 101,
                "duration": 0.17727272727272947,
                "tempo": 120.0
            },
            {
                "start_time": 26.488636363636363,
                "end_time": 26.834090909090907,
                "pitch": 45,
                "velocity": 101,
                "duration": 0.3454545454545439,
                "tempo": 120.0
            },
            {
                "start_time": 26.834090909090907,
                "end_time": 27.002272727272725,
                "pitch": 45,
                "velocity": 101,
                "duration": 0.168181818181818,
                "tempo": 120.0
            },
            {
                "start_time": 27.002272727272725,
                "end_time": 27.33863636363636,
                "pitch": 45,
                "velocity": 101,
                "duration": 0.336363636363636,
                "tempo": 120.0
            },
            {
                "start_time": 27.33863636363636,
                "end_time": 27.68181818181818,
                "pitch": 45,
                "velocity": 101,
                "duration": 0.3431818181818187,
                "tempo": 120.0
            },
            {
                "start_time": 27.68181818181818,
                "end_time": 27.849999999999998,
                "pitch": 43,
                "velocity": 101,
                "duration": 0.168181818181818,
                "tempo": 120.0
            },
            {
                "start_time": 27.849999999999998,
                "end_time": 28.18409090909091,
                "pitch": 43,
                "velocity": 101,
                "duration": 0.33409090909091077,
                "tempo": 120.0
            },
            {
                "start_time": 28.18409090909091,
                "end_time": 28.352272727272727,
                "pitch": 43,
                "velocity": 101,
                "duration": 0.168181818181818,
                "tempo": 120.0
            },
            {
                "start_time": 28.352272727272727,
                "end_time": 28.69772727272727,
                "pitch": 43,
                "velocity": 101,
                "duration": 0.3454545454545439,
                "tempo": 120.0
            },
            {
                "start_time": 28.69772727272727,
                "end_time": 29.03181818181818,
                "pitch": 43,
                "velocity": 101,
                "duration": 0.33409090909091077,
                "tempo": 120.0
            },
            {
                "start_time": 29.03181818181818,
                "end_time": 29.204545454545453,
                "pitch": 43,
                "velocity": 101,
                "duration": 0.17272727272727195,
                "tempo": 120.0
            },
            {
                "start_time": 29.204545454545453,
                "end_time": 29.545454545454543,
                "pitch": 43,
                "velocity": 101,
                "duration": 0.34090909090908994,
                "tempo": 120.0
            },
            {
                "start_time": 29.545454545454543,
                "end_time": 29.71363636363636,
                "pitch": 43,
                "velocity": 101,
                "duration": 0.168181818181818,
                "tempo": 120.0
            },
            {
                "start_time": 29.71363636363636,
                "end_time": 30.05909090909091,
                "pitch": 43,
                "velocity": 101,
                "duration": 0.34545454545454746,
                "tempo": 120.0
            },
            {
                "start_time": 30.05909090909091,
                "end_time": 30.393181818181816,
                "pitch": 43,
                "velocity": 101,
                "duration": 0.3340909090909072,
                "tempo": 120.0
            },
            {
                "start_time": 30.393181818181816,
                "end_time": 30.577272727272724,
                "pitch": 45,
                "velocity": 101,
                "duration": 0.18409090909090864,
                "tempo": 120.0
            },
            {
                "start_time": 30.577272727272724,
                "end_time": 30.922727272727272,
                "pitch": 45,
                "velocity": 101,
                "duration": 0.34545454545454746,
                "tempo": 120.0
            },
            {
                "start_time": 30.922727272727272,
                "end_time": 31.099999999999998,
                "pitch": 45,
                "velocity": 101,
                "duration": 0.17727272727272592,
                "tempo": 120.0
            },
            {
                "start_time": 31.099999999999998,
                "end_time": 31.445454545454545,
                "pitch": 45,
                "velocity": 101,
                "duration": 0.34545454545454746,
                "tempo": 120.0
            },
            {
                "start_time": 31.445454545454545,
                "end_time": 31.779545454545453,
                "pitch": 45,
                "velocity": 101,
                "duration": 0.3340909090909072,
                "tempo": 120.0
            },
            {
                "start_time": 31.779545454545453,
                "end_time": 31.94772727272727,
                "pitch": 45,
                "velocity": 101,
                "duration": 0.168181818181818,
                "tempo": 120.0
            },
            {
                "start_time": 31.94772727272727,
                "end_time": 32.288636363636364,
                "pitch": 45,
                "velocity": 101,
                "duration": 0.3409090909090935,
                "tempo": 120.0
            },
            {
                "start_time": 32.288636363636364,
                "end_time": 32.461363636363636,
                "pitch": 45,
                "velocity": 101,
                "duration": 0.17272727272727195,
                "tempo": 120.0
            },
            {
                "start_time": 32.461363636363636,
                "end_time": 32.79772727272727,
                "pitch": 45,
                "velocity": 101,
                "duration": 0.336363636363636,
                "tempo": 120.0
            },
            {
                "start_time": 0.0,
                "end_time": 33.14090909090909,
                "pitch": 50,
                "velocity": 101,
                "duration": 33.14090909090909,
                "tempo": 120.0
            },
            {
                "start_time": 32.79772727272727,
                "end_time": 33.14090909090909,
                "pitch": 50,
                "velocity": 101,
                "duration": 0.3431818181818187,
                "tempo": 120.0
            },
            {
                "start_time": 33.14090909090909,
                "end_time": 33.309090909090905,
                "pitch": 50,
                "velocity": 101,
                "duration": 0.16818181818181444,
                "tempo": 120.0
            },
            {
                "start_time": 33.309090909090905,
                "end_time": 33.64545454545454,
                "pitch": 50,
                "velocity": 101,
                "duration": 0.336363636363636,
                "tempo": 120.0
            },
            {
                "start_time": 33.64545454545454,
                "end_time": 33.81136363636364,
                "pitch": 50,
                "velocity": 101,
                "duration": 0.16590909090909634,
                "tempo": 120.0
            },
            {
                "start_time": 33.81136363636364,
                "end_time": 34.15681818181818,
                "pitch": 50,
                "velocity": 101,
                "duration": 0.3454545454545439,
                "tempo": 120.0
            },
            {
                "start_time": 13.69090909090909,
                "end_time": 34.49318181818182,
                "pitch": 48,
                "velocity": 101,
                "duration": 20.80227272727273,
                "tempo": 120.0
            },
            {
                "start_time": 34.15681818181818,
                "end_time": 34.49318181818182,
                "pitch": 48,
                "velocity": 101,
                "duration": 0.336363636363636,
                "tempo": 120.0
            },
            {
                "start_time": 34.49318181818182,
                "end_time": 34.663636363636364,
                "pitch": 48,
                "velocity": 101,
                "duration": 0.17045454545454675,
                "tempo": 120.0
            },
            {
                "start_time": 34.663636363636364,
                "end_time": 35.02045454545454,
                "pitch": 48,
                "velocity": 101,
                "duration": 0.35681818181817704,
                "tempo": 120.0
            },
            {
                "start_time": 35.02045454545454,
                "end_time": 35.18863636363636,
                "pitch": 48,
                "velocity": 101,
                "duration": 0.16818181818182154,
                "tempo": 120.0
            },
            {
                "start_time": 35.18863636363636,
                "end_time": 35.543181818181814,
                "pitch": 48,
                "velocity": 101,
                "duration": 0.35454545454545183,
                "tempo": 120.0
            },
            {
                "start_time": 35.543181818181814,
                "end_time": 35.87954545454545,
                "pitch": 48,
                "velocity": 101,
                "duration": 0.336363636363636,
                "tempo": 120.0
            },
            {
                "start_time": 19.14090909090909,
                "end_time": 36.05227272727272,
                "pitch": 46,
                "velocity": 101,
                "duration": 16.91136363636363,
                "tempo": 120.0
            },
            {
                "start_time": 35.87954545454545,
                "end_time": 36.05227272727272,
                "pitch": 46,
                "velocity": 101,
                "duration": 0.17272727272727195,
                "tempo": 120.0
            },
            {
                "start_time": 36.05227272727272,
                "end_time": 36.39090909090909,
                "pitch": 46,
                "velocity": 101,
                "duration": 0.3386363636363683,
                "tempo": 120.0
            },
            {
                "start_time": 36.39090909090909,
                "end_time": 36.559090909090905,
                "pitch": 46,
                "velocity": 101,
                "duration": 0.16818181818181444,
                "tempo": 120.0
            },
            {
                "start_time": 36.559090909090905,
                "end_time": 36.89545454545454,
                "pitch": 46,
                "velocity": 101,
                "duration": 0.336363636363636,
                "tempo": 120.0
            },
            {
                "start_time": 36.89545454545454,
                "end_time": 37.23863636363636,
                "pitch": 46,
                "velocity": 101,
                "duration": 0.3431818181818187,
                "tempo": 120.0
            },
            {
                "start_time": 32.79772727272727,
                "end_time": 37.40681818181818,
                "pitch": 45,
                "velocity": 101,
                "duration": 4.609090909090909,
                "tempo": 120.0
            },
            {
                "start_time": 37.23863636363636,
                "end_time": 37.40681818181818,
                "pitch": 45,
                "velocity": 101,
                "duration": 0.16818181818182154,
                "tempo": 120.0
            },
            {
                "start_time": 37.40681818181818,
                "end_time": 37.74090909090909,
                "pitch": 45,
                "velocity": 101,
                "duration": 0.33409090909091077,
                "tempo": 120.0
            },
            {
                "start_time": 37.74090909090909,
                "end_time": 37.90909090909091,
                "pitch": 45,
                "velocity": 101,
                "duration": 0.16818181818181444,
                "tempo": 120.0
            },
            {
                "start_time": 37.90909090909091,
                "end_time": 38.25454545454545,
                "pitch": 45,
                "velocity": 101,
                "duration": 0.3454545454545439,
                "tempo": 120.0
            },
            {
                "start_time": 34.15681818181818,
                "end_time": 38.590909090909086,
                "pitch": 50,
                "velocity": 101,
                "duration": 4.434090909090905,
                "tempo": 120.0
            },
            {
                "start_time": 38.25454545454545,
                "end_time": 38.590909090909086,
                "pitch": 50,
                "velocity": 101,
                "duration": 0.336363636363636,
                "tempo": 120.0
            },
            {
                "start_time": 38.590909090909086,
                "end_time": 38.76136363636363,
                "pitch": 50,
                "velocity": 101,
                "duration": 0.17045454545454675,
                "tempo": 120.0
            },
            {
                "start_time": 38.76363636363636,
                "end_time": 39.10227272727273,
                "pitch": 50,
                "velocity": 101,
                "duration": 0.3386363636363683,
                "tempo": 120.0
            },
            {
                "start_time": 39.10227272727273,
                "end_time": 39.28636363636363,
                "pitch": 50,
                "velocity": 101,
                "duration": 0.18409090909090509,
                "tempo": 120.0
            },
            {
                "start_time": 39.28636363636363,
                "end_time": 39.643181818181816,
                "pitch": 50,
                "velocity": 101,
                "duration": 0.35681818181818414,
                "tempo": 120.0
            },
            {
                "start_time": 39.643181818181816,
                "end_time": 39.97727272727273,
                "pitch": 48,
                "velocity": 101,
                "duration": 0.33409090909091077,
                "tempo": 120.0
            },
            {
                "start_time": 39.97727272727273,
                "end_time": 40.15,
                "pitch": 48,
                "velocity": 101,
                "duration": 0.17272727272727195,
                "tempo": 120.0
            },
            {
                "start_time": 40.15,
                "end_time": 40.48863636363636,
                "pitch": 48,
                "velocity": 101,
                "duration": 0.3386363636363612,
                "tempo": 120.0
            },
            {
                "start_time": 40.48863636363636,
                "end_time": 40.65681818181818,
                "pitch": 48,
                "velocity": 101,
                "duration": 0.16818181818182154,
                "tempo": 120.0
            },
            {
                "start_time": 40.65681818181818,
                "end_time": 41.002272727272725,
                "pitch": 48,
                "velocity": 101,
                "duration": 0.3454545454545439,
                "tempo": 120.0
            },
            {
                "start_time": 41.002272727272725,
                "end_time": 41.336363636363636,
                "pitch": 48,
                "velocity": 101,
                "duration": 0.33409090909091077,
                "tempo": 120.0
            },
            {
                "start_time": 41.336363636363636,
                "end_time": 41.50909090909091,
                "pitch": 46,
                "velocity": 101,
                "duration": 0.17272727272727195,
                "tempo": 120.0
            },
            {
                "start_time": 41.50909090909091,
                "end_time": 41.85,
                "pitch": 46,
                "velocity": 101,
                "duration": 0.3409090909090935,
                "tempo": 120.0
            },
            {
                "start_time": 41.85,
                "end_time": 42.01590909090909,
                "pitch": 46,
                "velocity": 101,
                "duration": 0.16590909090908923,
                "tempo": 120.0
            },
            {
                "start_time": 42.01590909090909,
                "end_time": 42.35227272727273,
                "pitch": 46,
                "velocity": 101,
                "duration": 0.336363636363636,
                "tempo": 120.0
            },
            {
                "start_time": 42.35227272727273,
                "end_time": 42.695454545454545,
                "pitch": 46,
                "velocity": 101,
                "duration": 0.3431818181818187,
                "tempo": 120.0
            },
            {
                "start_time": 38.25454545454545,
                "end_time": 42.86363636363636,
                "pitch": 45,
                "velocity": 101,
                "duration": 4.609090909090909,
                "tempo": 120.0
            },
            {
                "start_time": 42.695454545454545,
                "end_time": 42.86363636363636,
                "pitch": 45,
                "velocity": 101,
                "duration": 0.16818181818181444,
                "tempo": 120.0
            },
            {
                "start_time": 42.86363636363636,
                "end_time": 43.20454545454545,
                "pitch": 45,
                "velocity": 101,
                "duration": 0.3409090909090935,
                "tempo": 120.0
            },
            {
                "start_time": 43.20454545454545,
                "end_time": 43.377272727272725,
                "pitch": 45,
                "velocity": 101,
                "duration": 0.17272727272727195,
                "tempo": 120.0
            },
            {
                "start_time": 43.377272727272725,
                "end_time": 43.72954545454545,
                "pitch": 45,
                "velocity": 101,
                "duration": 0.3522727272727266,
                "tempo": 120.0
            },
            {
                "start_time": 43.72954545454545,
                "end_time": 44.09318181818182,
                "pitch": 45,
                "velocity": 101,
                "duration": 0.36363636363636687,
                "tempo": 120.0
            },
            {
                "start_time": 44.09318181818182,
                "end_time": 44.25454545454545,
                "pitch": 43,
                "velocity": 101,
                "duration": 0.1613636363636317,
                "tempo": 120.0
            },
            {
                "start_time": 44.25454545454545,
                "end_time": 44.586363636363636,
                "pitch": 43,
                "velocity": 101,
                "duration": 0.33181818181818556,
                "tempo": 120.0
            },
            {
                "start_time": 44.586363636363636,
                "end_time": 44.75454545454545,
                "pitch": 43,
                "velocity": 101,
                "duration": 0.16818181818181444,
                "tempo": 120.0
            },
            {
                "start_time": 44.75454545454545,
                "end_time": 45.099999999999994,
                "pitch": 43,
                "velocity": 101,
                "duration": 0.3454545454545439,
                "tempo": 120.0
            },
            {
                "start_time": 45.099999999999994,
                "end_time": 45.434090909090905,
                "pitch": 43,
                "velocity": 101,
                "duration": 0.33409090909091077,
                "tempo": 120.0
            },
            {
                "start_time": 45.434090909090905,
                "end_time": 45.60681818181818,
                "pitch": 43,
                "velocity": 101,
                "duration": 0.17272727272727195,
                "tempo": 120.0
            },
            {
                "start_time": 45.60681818181818,
                "end_time": 45.945454545454545,
                "pitch": 43,
                "velocity": 101,
                "duration": 0.3386363636363683,
                "tempo": 120.0
            },
            {
                "start_time": 45.945454545454545,
                "end_time": 46.11363636363636,
                "pitch": 43,
                "velocity": 101,
                "duration": 0.16818181818181444,
                "tempo": 120.0
            },
            {
                "start_time": 46.11363636363636,
                "end_time": 46.449999999999996,
                "pitch": 43,
                "velocity": 101,
                "duration": 0.336363636363636,
                "tempo": 120.0
            },
            {
                "start_time": 46.449999999999996,
                "end_time": 46.793181818181814,
                "pitch": 43,
                "velocity": 101,
                "duration": 0.3431818181818187,
                "tempo": 120.0
            },
            {
                "start_time": 46.793181818181814,
                "end_time": 46.961363636363636,
                "pitch": 43,
                "velocity": 101,
                "duration": 0.16818181818182154,
                "tempo": 120.0
            },
            {
                "start_time": 46.961363636363636,
                "end_time": 47.29545454545454,
                "pitch": 43,
                "velocity": 101,
                "duration": 0.33409090909090366,
                "tempo": 120.0
            },
            {
                "start_time": 47.29545454545454,
                "end_time": 47.46363636363636,
                "pitch": 43,
                "velocity": 101,
                "duration": 0.16818181818182154,
                "tempo": 120.0
            },
            {
                "start_time": 47.46363636363636,
                "end_time": 47.809090909090905,
                "pitch": 43,
                "velocity": 101,
                "duration": 0.3454545454545439,
                "tempo": 120.0
            },
            {
                "start_time": 47.809090909090905,
                "end_time": 48.17045454545454,
                "pitch": 43,
                "velocity": 101,
                "duration": 0.36136363636363455,
                "tempo": 120.0
            },
            {
                "start_time": 48.17045454545454,
                "end_time": 48.34318181818182,
                "pitch": 43,
                "velocity": 101,
                "duration": 0.17272727272727906,
                "tempo": 120.0
            },
            {
                "start_time": 48.34318181818182,
                "end_time": 48.684090909090905,
                "pitch": 43,
                "velocity": 101,
                "duration": 0.3409090909090864,
                "tempo": 120.0
            },
            {
                "start_time": 48.684090909090905,
                "end_time": 48.85227272727273,
                "pitch": 43,
                "velocity": 101,
                "duration": 0.16818181818182154,
                "tempo": 120.0
            },
            {
                "start_time": 48.85227272727273,
                "end_time": 49.19772727272727,
                "pitch": 43,
                "velocity": 101,
                "duration": 0.3454545454545439,
                "tempo": 120.0
            },
            {
                "start_time": 49.19772727272727,
                "end_time": 49.53181818181818,
                "pitch": 43,
                "velocity": 101,
                "duration": 0.33409090909091077,
                "tempo": 120.0
            },
            {
                "start_time": 49.53181818181818,
                "end_time": 49.70454545454545,
                "pitch": 45,
                "velocity": 101,
                "duration": 0.17272727272727195,
                "tempo": 120.0
            },
            {
                "start_time": 49.70454545454545,
                "end_time": 50.043181818181814,
                "pitch": 45,
                "velocity": 101,
                "duration": 0.3386363636363612,
                "tempo": 120.0
            },
            {
                "start_time": 50.043181818181814,
                "end_time": 50.211363636363636,
                "pitch": 45,
                "velocity": 101,
                "duration": 0.16818181818182154,
                "tempo": 120.0
            },
            {
                "start_time": 50.211363636363636,
                "end_time": 50.54772727272727,
                "pitch": 45,
                "velocity": 101,
                "duration": 0.336363636363636,
                "tempo": 120.0
            },
            {
                "start_time": 50.54772727272727,
                "end_time": 50.89090909090909,
                "pitch": 45,
                "velocity": 101,
                "duration": 0.3431818181818187,
                "tempo": 120.0
            },
            {
                "start_time": 50.89090909090909,
                "end_time": 51.059090909090905,
                "pitch": 45,
                "velocity": 101,
                "duration": 0.16818181818181444,
                "tempo": 120.0
            },
            {
                "start_time": 51.059090909090905,
                "end_time": 51.39545454545454,
                "pitch": 45,
                "velocity": 101,
                "duration": 0.336363636363636,
                "tempo": 120.0
            },
            {
                "start_time": 51.39545454545454,
                "end_time": 51.56363636363636,
                "pitch": 45,
                "velocity": 101,
                "duration": 0.16818181818182154,
                "tempo": 120.0
            },
            {
                "start_time": 51.56363636363636,
                "end_time": 51.90909090909091,
                "pitch": 45,
                "velocity": 101,
                "duration": 0.3454545454545439,
                "tempo": 120.0
            },
            {
                "start_time": 51.90909090909091,
                "end_time": 52.252272727272725,
                "pitch": 45,
                "velocity": 101,
                "duration": 0.3431818181818187,
                "tempo": 120.0
            },
            {
                "start_time": 52.252272727272725,
                "end_time": 52.43636363636363,
                "pitch": 45,
                "velocity": 101,
                "duration": 0.18409090909090509,
                "tempo": 120.0
            },
            {
                "start_time": 52.43636363636363,
                "end_time": 52.777272727272724,
                "pitch": 45,
                "velocity": 101,
                "duration": 0.3409090909090935,
                "tempo": 120.0
            },
            {
                "start_time": 52.777272727272724,
                "end_time": 52.949999999999996,
                "pitch": 45,
                "velocity": 101,
                "duration": 0.17272727272727195,
                "tempo": 120.0
            },
            {
                "start_time": 52.949999999999996,
                "end_time": 53.29545454545454,
                "pitch": 45,
                "velocity": 101,
                "duration": 0.3454545454545439,
                "tempo": 120.0
            },
            {
                "start_time": 53.29545454545454,
                "end_time": 53.62954545454545,
                "pitch": 45,
                "velocity": 101,
                "duration": 0.33409090909091077,
                "tempo": 120.0
            },
            {
                "start_time": 53.62954545454545,
                "end_time": 53.80227272727272,
                "pitch": 45,
                "velocity": 101,
                "duration": 0.17272727272727195,
                "tempo": 120.0
            },
            {
                "start_time": 53.80227272727272,
                "end_time": 54.14090909090909,
                "pitch": 45,
                "velocity": 101,
                "duration": 0.3386363636363683,
                "tempo": 120.0
            },
            {
                "start_time": 54.14090909090909,
                "end_time": 54.309090909090905,
                "pitch": 45,
                "velocity": 101,
                "duration": 0.16818181818181444,
                "tempo": 120.0
            },
            {
                "start_time": 54.309090909090905,
                "end_time": 54.65454545454545,
                "pitch": 45,
                "velocity": 101,
                "duration": 0.3454545454545439,
                "tempo": 120.0
            },
            {
                "start_time": 54.65454545454545,
                "end_time": 54.98863636363636,
                "pitch": 48,
                "velocity": 101,
                "duration": 0.33409090909091077,
                "tempo": 120.0
            },
            {
                "start_time": 54.98863636363636,
                "end_time": 55.16136363636363,
                "pitch": 48,
                "velocity": 101,
                "duration": 0.17272727272727195,
                "tempo": 120.0
            },
            {
                "start_time": 55.16136363636363,
                "end_time": 55.502272727272725,
                "pitch": 48,
                "velocity": 101,
                "duration": 0.3409090909090935,
                "tempo": 120.0
            },
            {
                "start_time": 55.502272727272725,
                "end_time": 55.67045454545454,
                "pitch": 48,
                "velocity": 101,
                "duration": 0.16818181818181444,
                "tempo": 120.0
            },
            {
                "start_time": 55.67045454545454,
                "end_time": 56.006818181818176,
                "pitch": 48,
                "velocity": 101,
                "duration": 0.336363636363636,
                "tempo": 120.0
            },
            {
                "start_time": 56.006818181818176,
                "end_time": 56.349999999999994,
                "pitch": 48,
                "velocity": 101,
                "duration": 0.3431818181818187,
                "tempo": 120.0
            },
            {
                "start_time": 56.349999999999994,
                "end_time": 56.518181818181816,
                "pitch": 48,
                "velocity": 101,
                "duration": 0.16818181818182154,
                "tempo": 120.0
            },
            {
                "start_time": 56.518181818181816,
                "end_time": 56.875,
                "pitch": 48,
                "velocity": 101,
                "duration": 0.35681818181818414,
                "tempo": 120.0
            },
            {
                "start_time": 56.875,
                "end_time": 57.04772727272727,
                "pitch": 48,
                "velocity": 101,
                "duration": 0.17272727272727195,
                "tempo": 120.0
            },
            {
                "start_time": 57.04772727272727,
                "end_time": 57.393181818181816,
                "pitch": 48,
                "velocity": 101,
                "duration": 0.3454545454545439,
                "tempo": 120.0
            },
            {
                "start_time": 54.65454545454545,
                "end_time": 57.736363636363635,
                "pitch": 45,
                "velocity": 101,
                "duration": 3.0818181818181856,
                "tempo": 120.0
            },
            {
                "start_time": 57.393181818181816,
                "end_time": 57.736363636363635,
                "pitch": 45,
                "velocity": 101,
                "duration": 0.3431818181818187,
                "tempo": 120.0
            },
            {
                "start_time": 57.736363636363635,
                "end_time": 57.90454545454545,
                "pitch": 45,
                "velocity": 101,
                "duration": 0.16818181818181444,
                "tempo": 120.0
            },
            {
                "start_time": 57.90454545454545,
                "end_time": 58.23863636363636,
                "pitch": 45,
                "velocity": 101,
                "duration": 0.33409090909091077,
                "tempo": 120.0
            },
            {
                "start_time": 58.23863636363636,
                "end_time": 58.40681818181818,
                "pitch": 45,
                "velocity": 101,
                "duration": 0.16818181818182154,
                "tempo": 120.0
            },
            {
                "start_time": 58.40681818181818,
                "end_time": 58.752272727272725,
                "pitch": 45,
                "velocity": 101,
                "duration": 0.3454545454545439,
                "tempo": 120.0
            },
            {
                "start_time": 58.752272727272725,
                "end_time": 59.086363636363636,
                "pitch": 45,
                "velocity": 101,
                "duration": 0.33409090909091077,
                "tempo": 120.0
            },
            {
                "start_time": 59.086363636363636,
                "end_time": 59.25909090909091,
                "pitch": 45,
                "velocity": 101,
                "duration": 0.17272727272727195,
                "tempo": 120.0
            },
            {
                "start_time": 59.25909090909091,
                "end_time": 59.599999999999994,
                "pitch": 45,
                "velocity": 101,
                "duration": 0.3409090909090864,
                "tempo": 120.0
            },
            {
                "start_time": 59.599999999999994,
                "end_time": 59.768181818181816,
                "pitch": 45,
                "velocity": 101,
                "duration": 0.16818181818182154,
                "tempo": 120.0
            },
            {
                "start_time": 59.768181818181816,
                "end_time": 60.10454545454545,
                "pitch": 45,
                "velocity": 101,
                "duration": 0.336363636363636,
                "tempo": 120.0
            },
            {
                "start_time": 60.10454545454545,
                "end_time": 60.44772727272727,
                "pitch": 45,
                "velocity": 101,
                "duration": 0.3431818181818187,
                "tempo": 120.0
            },
            {
                "start_time": 60.44772727272727,
                "end_time": 60.615909090909085,
                "pitch": 43,
                "velocity": 101,
                "duration": 0.16818181818181444,
                "tempo": 120.0
            },
            {
                "start_time": 60.615909090909085,
                "end_time": 60.95454545454545,
                "pitch": 43,
                "velocity": 101,
                "duration": 0.3386363636363683,
                "tempo": 120.0
            },
            {
                "start_time": 60.95454545454545,
                "end_time": 61.14545454545454,
                "pitch": 43,
                "velocity": 101,
                "duration": 0.1909090909090878,
                "tempo": 120.0
            },
            {
                "start_time": 61.14545454545454,
                "end_time": 61.5,
                "pitch": 43,
                "velocity": 101,
                "duration": 0.35454545454545894,
                "tempo": 120.0
            },
            {
                "start_time": 61.5,
                "end_time": 61.834090909090904,
                "pitch": 46,
                "velocity": 101,
                "duration": 0.33409090909090366,
                "tempo": 120.0
            },
            {
                "start_time": 61.834090909090904,
                "end_time": 62.00454545454545,
                "pitch": 46,
                "velocity": 101,
                "duration": 0.17045454545454675,
                "tempo": 120.0
            },
            {
                "start_time": 62.00454545454545,
                "end_time": 62.33863636363636,
                "pitch": 46,
                "velocity": 101,
                "duration": 0.33409090909091077,
                "tempo": 120.0
            },
            {
                "start_time": 62.33863636363636,
                "end_time": 62.506818181818176,
                "pitch": 46,
                "velocity": 101,
                "duration": 0.16818181818181444,
                "tempo": 120.0
            },
            {
                "start_time": 62.506818181818176,
                "end_time": 62.85227272727273,
                "pitch": 46,
                "velocity": 101,
                "duration": 0.345454545454551,
                "tempo": 120.0
            },
            {
                "start_time": 61.5,
                "end_time": 63.18636363636363,
                "pitch": 43,
                "velocity": 101,
                "duration": 1.6863636363636303,
                "tempo": 120.0
            },
            {
                "start_time": 62.85227272727273,
                "end_time": 63.18636363636363,
                "pitch": 43,
                "velocity": 101,
                "duration": 0.33409090909090366,
                "tempo": 120.0
            },
            {
                "start_time": 63.18636363636363,
                "end_time": 63.35909090909091,
                "pitch": 43,
                "velocity": 101,
                "duration": 0.17272727272727906,
                "tempo": 120.0
            },
            {
                "start_time": 63.35909090909091,
                "end_time": 63.69772727272727,
                "pitch": 43,
                "velocity": 101,
                "duration": 0.3386363636363612,
                "tempo": 120.0
            },
            {
                "start_time": 63.69772727272727,
                "end_time": 63.865909090909085,
                "pitch": 43,
                "velocity": 101,
                "duration": 0.16818181818181444,
                "tempo": 120.0
            },
            {
                "start_time": 63.865909090909085,
                "end_time": 64.21136363636363,
                "pitch": 43,
                "velocity": 101,
                "duration": 0.3454545454545439,
                "tempo": 120.0
            },
            {
                "start_time": 64.21136363636363,
                "end_time": 64.54545454545455,
                "pitch": 43,
                "velocity": 101,
                "duration": 0.3340909090909179,
                "tempo": 120.0
            },
            {
                "start_time": 64.54545454545455,
                "end_time": 64.71363636363635,
                "pitch": 43,
                "velocity": 101,
                "duration": 0.16818181818180733,
                "tempo": 120.0
            },
            {
                "start_time": 64.71363636363635,
                "end_time": 65.05454545454545,
                "pitch": 43,
                "velocity": 101,
                "duration": 0.3409090909090935,
                "tempo": 120.0
            },
            {
                "start_time": 65.05454545454545,
                "end_time": 65.22727272727272,
                "pitch": 43,
                "velocity": 101,
                "duration": 0.17272727272727195,
                "tempo": 120.0
            },
            {
                "start_time": 65.22727272727272,
                "end_time": 65.56136363636364,
                "pitch": 43,
                "velocity": 101,
                "duration": 0.3340909090909179,
                "tempo": 120.0
            }
        ],
        "Harpsichord": [
            {
                "start_time": 0.0,
                "end_time": 1.3886363636363637,
                "pitch": 62,
                "velocity": 101,
                "duration": 1.3886363636363637,
                "tempo": 120.0
            },
            {
                "start_time": 1.3886363636363637,
                "end_time": 1.9,
                "pitch": 67,
                "velocity": 101,
                "duration": 0.5113636363636362,
                "tempo": 120.0
            },
            {
                "start_time": 1.9,
                "end_time": 2.4022727272727273,
                "pitch": 65,
                "velocity": 101,
                "duration": 0.5022727272727274,
                "tempo": 120.0
            },
            {
                "start_time": 2.4022727272727273,
                "end_time": 2.7477272727272726,
                "pitch": 65,
                "velocity": 101,
                "duration": 0.34545454545454524,
                "tempo": 120.0
            },
            {
                "start_time": 2.7477272727272726,
                "end_time": 5.486363636363636,
                "pitch": 63,
                "velocity": 101,
                "duration": 2.7386363636363638,
                "tempo": 120.0
            },
            {
                "start_time": 1.3886363636363637,
                "end_time": 5.486363636363636,
                "pitch": 74,
                "velocity": 101,
                "duration": 4.097727272727273,
                "tempo": 120.0
            },
            {
                "start_time": 5.486363636363636,
                "end_time": 6.845454545454545,
                "pitch": 69,
                "velocity": 101,
                "duration": 1.3590909090909085,
                "tempo": 120.0
            },
            {
                "start_time": 6.845454545454545,
                "end_time": 7.352272727272727,
                "pitch": 69,
                "velocity": 101,
                "duration": 0.5068181818181818,
                "tempo": 120.0
            },
            {
                "start_time": 7.352272727272727,
                "end_time": 7.861363636363636,
                "pitch": 70,
                "velocity": 101,
                "duration": 0.5090909090909097,
                "tempo": 120.0
            },
            {
                "start_time": 7.861363636363636,
                "end_time": 8.197727272727272,
                "pitch": 72,
                "velocity": 101,
                "duration": 0.336363636363636,
                "tempo": 120.0
            },
            {
                "start_time": 8.197727272727272,
                "end_time": 10.945454545454545,
                "pitch": 72,
                "velocity": 101,
                "duration": 2.747727272727273,
                "tempo": 120.0
            },
            {
                "start_time": 5.486363636363636,
                "end_time": 12.295454545454545,
                "pitch": 74,
                "velocity": 101,
                "duration": 6.809090909090909,
                "tempo": 120.0
            },
            {
                "start_time": 10.945454545454545,
                "end_time": 12.295454545454545,
                "pitch": 74,
                "velocity": 101,
                "duration": 1.3499999999999996,
                "tempo": 120.0
            },
            {
                "start_time": 12.295454545454545,
                "end_time": 12.806818181818182,
                "pitch": 75,
                "velocity": 101,
                "duration": 0.5113636363636367,
                "tempo": 120.0
            },
            {
                "start_time": 12.806818181818182,
                "end_time": 13.336363636363636,
                "pitch": 75,
                "velocity": 101,
                "duration": 0.5295454545454543,
                "tempo": 120.0
            },
            {
                "start_time": 13.336363636363636,
                "end_time": 13.69090909090909,
                "pitch": 70,
                "velocity": 101,
                "duration": 0.3545454545454536,
                "tempo": 120.0
            },
            {
                "start_time": 7.861363636363636,
                "end_time": 15.043181818181818,
                "pitch": 69,
                "velocity": 101,
                "duration": 7.181818181818182,
                "tempo": 120.0
            },
            {
                "start_time": 13.693181818181818,
                "end_time": 15.043181818181818,
                "pitch": 70,
                "velocity": 101,
                "duration": 1.3499999999999996,
                "tempo": 120.0
            },
            {
                "start_time": 12.295454545454545,
                "end_time": 16.402272727272727,
                "pitch": 72,
                "velocity": 101,
                "duration": 4.106818181818182,
                "tempo": 120.0
            },
            {
                "start_time": 15.043181818181818,
                "end_time": 16.402272727272727,
                "pitch": 72,
                "velocity": 101,
                "duration": 1.3590909090909093,
                "tempo": 120.0
            },
            {
                "start_time": 16.402272727272727,
                "end_time": 17.770454545454545,
                "pitch": 67,
                "velocity": 101,
                "duration": 1.3681818181818173,
                "tempo": 120.0
            },
            {
                "start_time": 17.770454545454545,
                "end_time": 18.297727272727272,
                "pitch": 70,
                "velocity": 101,
                "duration": 0.5272727272727273,
                "tempo": 120.0
            },
            {
                "start_time": 18.297727272727272,
                "end_time": 18.80681818181818,
                "pitch": 70,
                "velocity": 101,
                "duration": 0.5090909090909079,
                "tempo": 120.0
            },
            {
                "start_time": 18.80681818181818,
                "end_time": 19.14090909090909,
                "pitch": 65,
                "velocity": 101,
                "duration": 0.33409090909091077,
                "tempo": 120.0
            },
            {
                "start_time": 17.770454545454545,
                "end_time": 21.870454545454546,
                "pitch": 67,
                "velocity": 101,
                "duration": 4.100000000000001,
                "tempo": 120.0
            },
            {
                "start_time": 19.14090909090909,
                "end_time": 21.870454545454546,
                "pitch": 67,
                "velocity": 101,
                "duration": 2.7295454545454554,
                "tempo": 120.0
            },
            {
                "start_time": 13.336363636363636,
                "end_time": 22.395454545454545,
                "pitch": 74,
                "velocity": 101,
                "duration": 9.059090909090909,
                "tempo": 120.0
            },
            {
                "start_time": 21.870454545454546,
                "end_time": 22.395454545454545,
                "pitch": 74,
                "velocity": 127,
                "duration": 0.5249999999999986,
                "tempo": 120.0
            },
            {
                "start_time": 16.402272727272727,
                "end_time": 22.904545454545453,
                "pitch": 72,
                "velocity": 101,
                "duration": 6.502272727272725,
                "tempo": 120.0
            },
            {
                "start_time": 22.395454545454545,
                "end_time": 22.904545454545453,
                "pitch": 74,
                "velocity": 127,
                "duration": 0.5090909090909079,
                "tempo": 120.0
            },
            {
                "start_time": 22.904545454545453,
                "end_time": 23.238636363636363,
                "pitch": 75,
                "velocity": 127,
                "duration": 0.33409090909091077,
                "tempo": 120.0
            },
            {
                "start_time": 23.24090909090909,
                "end_time": 23.74772727272727,
                "pitch": 75,
                "velocity": 127,
                "duration": 0.5068181818181827,
                "tempo": 120.0
            },
            {
                "start_time": 22.904545454545453,
                "end_time": 24.254545454545454,
                "pitch": 72,
                "velocity": 127,
                "duration": 1.3500000000000014,
                "tempo": 120.0
            },
            {
                "start_time": 23.74772727272727,
                "end_time": 24.254545454545454,
                "pitch": 74,
                "velocity": 127,
                "duration": 0.5068181818181827,
                "tempo": 120.0
            },
            {
                "start_time": 24.254545454545454,
                "end_time": 24.599999999999998,
                "pitch": 70,
                "velocity": 127,
                "duration": 0.3454545454545439,
                "tempo": 120.0
            },
            {
                "start_time": 15.043181818181818,
                "end_time": 25.95,
                "pitch": 69,
                "velocity": 101,
                "duration": 10.906818181818181,
                "tempo": 120.0
            },
            {
                "start_time": 24.599999999999998,
                "end_time": 25.95,
                "pitch": 70,
                "velocity": 127,
                "duration": 1.3500000000000014,
                "tempo": 120.0
            },
            {
                "start_time": 24.254545454545454,
                "end_time": 27.33863636363636,
                "pitch": 72,
                "velocity": 127,
                "duration": 3.084090909090907,
                "tempo": 120.0
            },
            {
                "start_time": 25.95,
                "end_time": 27.33863636363636,
                "pitch": 72,
                "velocity": 127,
                "duration": 1.388636363636362,
                "tempo": 120.0
            },
            {
                "start_time": 27.33863636363636,
                "end_time": 27.849999999999998,
                "pitch": 72,
                "velocity": 127,
                "duration": 0.5113636363636367,
                "tempo": 120.0
            },
            {
                "start_time": 27.849999999999998,
                "end_time": 28.352272727272727,
                "pitch": 74,
                "velocity": 127,
                "duration": 0.5022727272727288,
                "tempo": 120.0
            },
            {
                "start_time": 28.354545454545452,
                "end_time": 28.69772727272727,
                "pitch": 75,
                "velocity": 127,
                "duration": 0.3431818181818187,
                "tempo": 120.0
            },
            {
                "start_time": 28.69772727272727,
                "end_time": 29.206818181818182,
                "pitch": 75,
                "velocity": 127,
                "duration": 0.5090909090909115,
                "tempo": 120.0
            },
            {
                "start_time": 28.354545454545452,
                "end_time": 29.71363636363636,
                "pitch": 72,
                "velocity": 127,
                "duration": 1.3590909090909093,
                "tempo": 120.0
            },
            {
                "start_time": 29.206818181818182,
                "end_time": 29.71363636363636,
                "pitch": 74,
                "velocity": 127,
                "duration": 0.5068181818181792,
                "tempo": 120.0
            },
            {
                "start_time": 19.14090909090909,
                "end_time": 30.05909090909091,
                "pitch": 77,
                "velocity": 101,
                "duration": 10.918181818181818,
                "tempo": 120.0
            },
            {
                "start_time": 29.71363636363636,
                "end_time": 30.05909090909091,
                "pitch": 77,
                "velocity": 127,
                "duration": 0.34545454545454746,
                "tempo": 120.0
            },
            {
                "start_time": 30.05909090909091,
                "end_time": 31.445454545454545,
                "pitch": 77,
                "velocity": 127,
                "duration": 1.3863636363636367,
                "tempo": 120.0
            }
        ]
    }
}