{
    "track_id": "11 Mission 4",
    "mood": "angry",
    "instruments": {
        "French Horn": [
            {
                "start_time": 5.697727272727272,
                "end_time": 6.559090909090909,
                "pitch": 60,
                "velocity": 64,
                "duration": 0.8613636363636363,
                "tempo": 120.0
            },
            {
                "start_time": 6.593181818181818,
                "end_time": 6.738636363636363,
                "pitch": 62,
                "velocity": 64,
                "duration": 0.1454545454545455,
                "tempo": 120.0
            },
            {
                "start_time": 6.7727272727272725,
                "end_time": 6.925,
                "pitch": 64,
                "velocity": 64,
                "duration": 0.15227272727272734,
                "tempo": 120.0
            },
            {
                "start_time": 6.961363636363636,
                "end_time": 7.986363636363636,
                "pitch": 62,
                "velocity": 64,
                "duration": 1.0250000000000004,
                "tempo": 120.0
            },
            {
                "start_time": 8.018181818181818,
                "end_time": 8.163636363636364,
                "pitch": 64,
                "velocity": 64,
                "duration": 0.1454545454545464,
                "tempo": 120.0
            },
            {
                "start_time": 8.197727272727272,
                "end_time": 8.352272727272727,
                "pitch": 65,
                "velocity": 64,
                "duration": 0.15454545454545432,
                "tempo": 120.0
            },
            {
                "start_time": 8.368181818181817,
                "end_time": 10.85,
                "pitch": 67,
                "velocity": 64,
                "duration": 2.4818181818181824,
                "tempo": 120.0
            },
            {
                "start_time": 10.881818181818181,
                "end_time": 11.027272727272727,
                "pitch": 67,
                "velocity": 64,
                "duration": 0.1454545454545464,
                "tempo": 120.0
            },
            {
                "start_time": 11.061363636363636,
                "end_time": 11.386363636363637,
                "pitch": 67,
                "velocity": 64,
                "duration": 0.32500000000000107,
                "tempo": 120.0
            },
            {
                "start_time": 11.422727272727272,
                "end_time": 11.745454545454544,
                "pitch": 74,
                "velocity": 64,
                "duration": 0.3227272727272723,
                "tempo": 120.0
            },
            {
                "start_time": 11.779545454545454,
                "end_time": 12.104545454545454,
                "pitch": 72,
                "velocity": 64,
                "duration": 0.3249999999999993,
                "tempo": 120.0
            },
            {
                "start_time": 12.138636363636364,
                "end_time": 12.463636363636363,
                "pitch": 71,
                "velocity": 64,
                "duration": 0.3249999999999993,
                "tempo": 120.0
            },
            {
                "start_time": 12.48181818181818,
                "end_time": 12.806818181818182,
                "pitch": 69,
                "velocity": 64,
                "duration": 0.32500000000000107,
                "tempo": 120.0
            },
            {
                "start_time": 12.838636363636363,
                "end_time": 13.524999999999999,
                "pitch": 68,
                "velocity": 64,
                "duration": 0.6863636363636356,
                "tempo": 120.0
            },
            {
                "start_time": 13.556818181818182,
                "end_time": 13.899999999999999,
                "pitch": 64,
                "velocity": 64,
                "duration": 0.3431818181818169,
                "tempo": 120.0
            },
            {
                "start_time": 13.918181818181818,
                "end_time": 14.243181818181817,
                "pitch": 68,
                "velocity": 64,
                "duration": 0.3249999999999993,
                "tempo": 120.0
            },
            {
                "start_time": 14.277272727272727,
                "end_time": 14.618181818181817,
                "pitch": 69,
                "velocity": 64,
                "duration": 0.34090909090908994,
                "tempo": 120.0
            },
            {
                "start_time": 14.636363636363635,
                "end_time": 14.781818181818181,
                "pitch": 71,
                "velocity": 64,
                "duration": 0.1454545454545464,
                "tempo": 120.0
            },
            {
                "start_time": 14.81590909090909,
                "end_time": 17.10681818181818,
                "pitch": 72,
                "velocity": 64,
                "duration": 2.290909090909091,
                "tempo": 120.0
            },
            {
                "start_time": 17.14090909090909,
                "end_time": 18.177272727272726,
                "pitch": 69,
                "velocity": 64,
                "duration": 1.0363636363636353,
                "tempo": 120.0
            },
            {
                "start_time": 18.211363636363636,
                "end_time": 18.536363636363635,
                "pitch": 67,
                "velocity": 64,
                "duration": 0.3249999999999993,
                "tempo": 120.0
            },
            {
                "start_time": 18.570454545454545,
                "end_time": 18.895454545454545,
                "pitch": 66,
                "velocity": 64,
                "duration": 0.3249999999999993,
                "tempo": 120.0
            },
            {
                "start_time": 18.929545454545455,
                "end_time": 19.254545454545454,
                "pitch": 62,
                "velocity": 64,
                "duration": 0.3249999999999993,
                "tempo": 120.0
            },
            {
                "start_time": 19.288636363636364,
                "end_time": 19.613636363636363,
                "pitch": 66,
                "velocity": 64,
                "duration": 0.3249999999999993,
                "tempo": 120.0
            },
            {
                "start_time": 19.647727272727273,
                "end_time": 19.972727272727273,
                "pitch": 69,
                "velocity": 64,
                "duration": 0.3249999999999993,
                "tempo": 120.0
            },
            {
                "start_time": 20.00681818181818,
                "end_time": 20.50681818181818,
                "pitch": 67,
                "velocity": 64,
                "duration": 0.5,
                "tempo": 120.0
            },
            {
                "start_time": 20.54090909090909,
                "end_time": 21.043181818181818,
                "pitch": 62,
                "velocity": 64,
                "duration": 0.5022727272727288,
                "tempo": 120.0
            },
            {
                "start_time": 21.077272727272724,
                "end_time": 21.402272727272727,
                "pitch": 67,
                "velocity": 64,
                "duration": 0.32500000000000284,
                "tempo": 120.0
            },
            {
                "start_time": 21.436363636363634,
                "end_time": 21.94090909090909,
                "pitch": 68,
                "velocity": 64,
                "duration": 0.5045454545454575,
                "tempo": 120.0
            },
            {
                "start_time": 21.974999999999998,
                "end_time": 22.84090909090909,
                "pitch": 68,
                "velocity": 64,
                "duration": 0.8659090909090921,
                "tempo": 120.0
            },
            {
                "start_time": 22.85909090909091,
                "end_time": 23.71363636363636,
                "pitch": 60,
                "velocity": 64,
                "duration": 0.8545454545454518,
                "tempo": 120.0
            },
            {
                "start_time": 23.745454545454546,
                "end_time": 23.89090909090909,
                "pitch": 62,
                "velocity": 64,
                "duration": 0.14545454545454461,
                "tempo": 120.0
            },
            {
                "start_time": 23.924999999999997,
                "end_time": 24.079545454545453,
                "pitch": 64,
                "velocity": 64,
                "duration": 0.1545454545454561,
                "tempo": 120.0
            },
            {
                "start_time": 24.113636363636363,
                "end_time": 25.15,
                "pitch": 62,
                "velocity": 64,
                "duration": 1.0363636363636353,
                "tempo": 120.0
            },
            {
                "start_time": 25.18181818181818,
                "end_time": 25.327272727272724,
                "pitch": 64,
                "velocity": 64,
                "duration": 0.14545454545454461,
                "tempo": 120.0
            },
            {
                "start_time": 25.361363636363635,
                "end_time": 25.51590909090909,
                "pitch": 65,
                "velocity": 64,
                "duration": 0.1545454545454561,
                "tempo": 120.0
            },
            {
                "start_time": 25.549999999999997,
                "end_time": 28.013636363636362,
                "pitch": 67,
                "velocity": 64,
                "duration": 2.4636363636363647,
                "tempo": 120.0
            },
            {
                "start_time": 28.045454545454543,
                "end_time": 28.193181818181817,
                "pitch": 67,
                "velocity": 64,
                "duration": 0.14772727272727337,
                "tempo": 120.0
            },
            {
                "start_time": 28.224999999999998,
                "end_time": 28.549999999999997,
                "pitch": 67,
                "velocity": 64,
                "duration": 0.3249999999999993,
                "tempo": 120.0
            },
            {
                "start_time": 28.586363636363636,
                "end_time": 28.911363636363635,
                "pitch": 74,
                "velocity": 64,
                "duration": 0.3249999999999993,
                "tempo": 120.0
            },
            {
                "start_time": 28.943181818181817,
                "end_time": 29.268181818181816,
                "pitch": 72,
                "velocity": 64,
                "duration": 0.3249999999999993,
                "tempo": 120.0
            },
            {
                "start_time": 29.302272727272726,
                "end_time": 29.629545454545454,
                "pitch": 71,
                "velocity": 64,
                "duration": 0.32727272727272805,
                "tempo": 120.0
            },
            {
                "start_time": 29.661363636363635,
                "end_time": 29.979545454545452,
                "pitch": 69,
                "velocity": 64,
                "duration": 0.31818181818181657,
                "tempo": 120.0
            },
            {
                "start_time": 30.013636363636362,
                "end_time": 30.7,
                "pitch": 68,
                "velocity": 64,
                "duration": 0.6863636363636374,
                "tempo": 120.0
            },
            {
                "start_time": 30.73409090909091,
                "end_time": 31.05909090909091,
                "pitch": 64,
                "velocity": 64,
                "duration": 0.3249999999999993,
                "tempo": 120.0
            },
            {
                "start_time": 31.09090909090909,
                "end_time": 31.41590909090909,
                "pitch": 68,
                "velocity": 64,
                "duration": 0.3249999999999993,
                "tempo": 120.0
            },
            {
                "start_time": 31.452272727272724,
                "end_time": 33.92045454545455,
                "pitch": 64,
                "velocity": 64,
                "duration": 2.4681818181818223,
                "tempo": 120.0
            },
            {
                "start_time": 34.30681818181818,
                "end_time": 34.804545454545455,
                "pitch": 65,
                "velocity": 64,
                "duration": 0.4977272727272748,
                "tempo": 120.0
            },
            {
                "start_time": 34.836363636363636,
                "end_time": 35.35681818181818,
                "pitch": 67,
                "velocity": 64,
                "duration": 0.5204545454545411,
                "tempo": 120.0
            },
            {
                "start_time": 35.375,
                "end_time": 35.699999999999996,
                "pitch": 69,
                "velocity": 64,
                "duration": 0.32499999999999574,
                "tempo": 120.0
            },
            {
                "start_time": 35.73409090909091,
                "end_time": 36.23181818181818,
                "pitch": 67,
                "velocity": 64,
                "duration": 0.4977272727272677,
                "tempo": 120.0
            },
            {
                "start_time": 36.26363636363636,
                "end_time": 36.78636363636363,
                "pitch": 69,
                "velocity": 64,
                "duration": 0.5227272727272734,
                "tempo": 120.0
            },
            {
                "start_time": 36.804545454545455,
                "end_time": 37.12954545454545,
                "pitch": 71,
                "velocity": 64,
                "duration": 0.32499999999999574,
                "tempo": 120.0
            },
            {
                "start_time": 37.16136363636363,
                "end_time": 37.668181818181814,
                "pitch": 69,
                "velocity": 64,
                "duration": 0.5068181818181827,
                "tempo": 120.0
            },
            {
                "start_time": 37.699999999999996,
                "end_time": 38.20454545454545,
                "pitch": 67,
                "velocity": 64,
                "duration": 0.5045454545454575,
                "tempo": 120.0
            },
            {
                "start_time": 38.23863636363636,
                "end_time": 38.56363636363636,
                "pitch": 65,
                "velocity": 64,
                "duration": 0.32500000000000284,
                "tempo": 120.0
            },
            {
                "start_time": 38.59772727272727,
                "end_time": 38.91590909090909,
                "pitch": 67,
                "velocity": 64,
                "duration": 0.3181818181818201,
                "tempo": 120.0
            },
            {
                "start_time": 38.949999999999996,
                "end_time": 39.1,
                "pitch": 65,
                "velocity": 64,
                "duration": 0.15000000000000568,
                "tempo": 120.0
            },
            {
                "start_time": 39.13409090909091,
                "end_time": 39.99545454545454,
                "pitch": 64,
                "velocity": 64,
                "duration": 0.8613636363636346,
                "tempo": 120.0
            },
            {
                "start_time": 40.027272727272724,
                "end_time": 40.53409090909091,
                "pitch": 65,
                "velocity": 64,
                "duration": 0.5068181818181827,
                "tempo": 120.0
            },
            {
                "start_time": 40.56590909090909,
                "end_time": 41.070454545454545,
                "pitch": 67,
                "velocity": 64,
                "duration": 0.5045454545454575,
                "tempo": 120.0
            },
            {
                "start_time": 41.10681818181818,
                "end_time": 41.43181818181818,
                "pitch": 69,
                "velocity": 64,
                "duration": 0.32500000000000284,
                "tempo": 120.0
            },
            {
                "start_time": 41.46363636363636,
                "end_time": 41.961363636363636,
                "pitch": 67,
                "velocity": 64,
                "duration": 0.4977272727272748,
                "tempo": 120.0
            },
            {
                "start_time": 41.99545454545454,
                "end_time": 42.5,
                "pitch": 69,
                "velocity": 64,
                "duration": 0.5045454545454575,
                "tempo": 120.0
            },
            {
                "start_time": 42.53409090909091,
                "end_time": 42.85909090909091,
                "pitch": 71,
                "velocity": 64,
                "duration": 0.32500000000000284,
                "tempo": 120.0
            },
            {
                "start_time": 42.89090909090909,
                "end_time": 43.39772727272727,
                "pitch": 72,
                "velocity": 64,
                "duration": 0.5068181818181827,
                "tempo": 120.0
            },
            {
                "start_time": 43.43181818181818,
                "end_time": 43.918181818181814,
                "pitch": 71,
                "velocity": 64,
                "duration": 0.48636363636363455,
                "tempo": 120.0
            },
            {
                "start_time": 43.95227272727273,
                "end_time": 44.293181818181814,
                "pitch": 69,
                "velocity": 64,
                "duration": 0.3409090909090864,
                "tempo": 120.0
            },
            {
                "start_time": 44.31136363636364,
                "end_time": 44.63636363636363,
                "pitch": 68,
                "velocity": 64,
                "duration": 0.32499999999999574,
                "tempo": 120.0
            },
            {
                "start_time": 44.67045454545455,
                "end_time": 44.82272727272727,
                "pitch": 64,
                "velocity": 64,
                "duration": 0.15227272727272378,
                "tempo": 120.0
            },
            {
                "start_time": 44.85681818181818,
                "end_time": 45.72954545454545,
                "pitch": 68,
                "velocity": 64,
                "duration": 0.8727272727272748,
                "tempo": 120.0
            },
            {
                "start_time": 45.74772727272727,
                "end_time": 45.89545454545454,
                "pitch": 69,
                "velocity": 64,
                "duration": 0.14772727272727337,
                "tempo": 120.0
            },
            {
                "start_time": 45.92727272727272,
                "end_time": 46.07272727272727,
                "pitch": 64,
                "velocity": 64,
                "duration": 0.14545454545454817,
                "tempo": 120.0
            },
            {
                "start_time": 46.10681818181818,
                "end_time": 46.25681818181818,
                "pitch": 60,
                "velocity": 64,
                "duration": 0.15000000000000568,
                "tempo": 120.0
            },
            {
                "start_time": 46.29090909090909,
                "end_time": 46.60454545454545,
                "pitch": 69,
                "velocity": 64,
                "duration": 0.3136363636363626,
                "tempo": 120.0
            },
            {
                "start_time": 46.63636363636363,
                "end_time": 46.78181818181818,
                "pitch": 64,
                "velocity": 64,
                "duration": 0.14545454545454817,
                "tempo": 120.0
            },
            {
                "start_time": 46.81590909090909,
                "end_time": 46.970454545454544,
                "pitch": 60,
                "velocity": 64,
                "duration": 0.1545454545454561,
                "tempo": 120.0
            },
            {
                "start_time": 47.00454545454545,
                "end_time": 47.32272727272727,
                "pitch": 67,
                "velocity": 64,
                "duration": 0.3181818181818201,
                "tempo": 120.0
            },
            {
                "start_time": 47.35454545454545,
                "end_time": 47.5,
                "pitch": 64,
                "velocity": 64,
                "duration": 0.14545454545454817,
                "tempo": 120.0
            },
            {
                "start_time": 47.53409090909091,
                "end_time": 47.68636363636364,
                "pitch": 60,
                "velocity": 64,
                "duration": 0.1522727272727309,
                "tempo": 120.0
            },
            {
                "start_time": 47.72272727272727,
                "end_time": 48.03636363636363,
                "pitch": 67,
                "velocity": 64,
                "duration": 0.3136363636363626,
                "tempo": 120.0
            },
            {
                "start_time": 48.06818181818181,
                "end_time": 48.209090909090904,
                "pitch": 64,
                "velocity": 64,
                "duration": 0.14090909090909065,
                "tempo": 120.0
            },
            {
                "start_time": 48.24090909090909,
                "end_time": 48.4,
                "pitch": 60,
                "velocity": 64,
                "duration": 0.1590909090909065,
                "tempo": 120.0
            },
            {
                "start_time": 48.418181818181814,
                "end_time": 48.75454545454545,
                "pitch": 69,
                "velocity": 64,
                "duration": 0.336363636363636,
                "tempo": 120.0
            },
            {
                "start_time": 48.78636363636363,
                "end_time": 48.92727272727272,
                "pitch": 66,
                "velocity": 64,
                "duration": 0.14090909090909065,
                "tempo": 120.0
            },
            {
                "start_time": 48.959090909090904,
                "end_time": 49.11363636363636,
                "pitch": 62,
                "velocity": 64,
                "duration": 0.1545454545454561,
                "tempo": 120.0
            },
            {
                "start_time": 49.13181818181818,
                "end_time": 49.465909090909086,
                "pitch": 69,
                "velocity": 64,
                "duration": 0.33409090909090366,
                "tempo": 120.0
            },
            {
                "start_time": 49.49772727272727,
                "end_time": 49.64545454545454,
                "pitch": 66,
                "velocity": 64,
                "duration": 0.14772727272727337,
                "tempo": 120.0
            },
            {
                "start_time": 49.67727272727272,
                "end_time": 49.83181818181818,
                "pitch": 62,
                "velocity": 64,
                "duration": 0.1545454545454561,
                "tempo": 120.0
            },
            {
                "start_time": 49.849999999999994,
                "end_time": 50.002272727272725,
                "pitch": 69,
                "velocity": 64,
                "duration": 0.1522727272727309,
                "tempo": 120.0
            },
            {
                "start_time": 50.038636363636364,
                "end_time": 50.184090909090905,
                "pitch": 68,
                "velocity": 64,
                "duration": 0.14545454545454106,
                "tempo": 120.0
            },
            {
                "start_time": 50.215909090909086,
                "end_time": 50.36363636363636,
                "pitch": 62,
                "velocity": 64,
                "duration": 0.14772727272727337,
                "tempo": 120.0
            },
            {
                "start_time": 50.39545454545454,
                "end_time": 50.55,
                "pitch": 66,
                "velocity": 64,
                "duration": 0.1545454545454561,
                "tempo": 120.0
            },
            {
                "start_time": 50.56818181818181,
                "end_time": 50.902272727272724,
                "pitch": 68,
                "velocity": 64,
                "duration": 0.33409090909091077,
                "tempo": 120.0
            },
            {
                "start_time": 50.934090909090905,
                "end_time": 51.08181818181818,
                "pitch": 62,
                "velocity": 64,
                "duration": 0.14772727272727337,
                "tempo": 120.0
            },
            {
                "start_time": 51.11363636363636,
                "end_time": 51.26363636363636,
                "pitch": 66,
                "velocity": 64,
                "duration": 0.14999999999999858,
                "tempo": 120.0
            },
            {
                "start_time": 51.28181818181818,
                "end_time": 51.43181818181818,
                "pitch": 68,
                "velocity": 64,
                "duration": 0.14999999999999858,
                "tempo": 120.0
            },
            {
                "start_time": 51.465909090909086,
                "end_time": 51.615909090909085,
                "pitch": 69,
                "velocity": 64,
                "duration": 0.14999999999999858,
                "tempo": 120.0
            },
            {
                "start_time": 51.65,
                "end_time": 51.8,
                "pitch": 64,
                "velocity": 64,
                "duration": 0.14999999999999858,
                "tempo": 120.0
            },
            {
                "start_time": 51.834090909090904,
                "end_time": 51.98409090909091,
                "pitch": 60,
                "velocity": 64,
                "duration": 0.15000000000000568,
                "tempo": 120.0
            },
            {
                "start_time": 52.002272727272725,
                "end_time": 52.33181818181818,
                "pitch": 69,
                "velocity": 64,
                "duration": 0.32954545454545325,
                "tempo": 120.0
            },
            {
                "start_time": 52.365909090909085,
                "end_time": 52.51136363636363,
                "pitch": 64,
                "velocity": 64,
                "duration": 0.14545454545454817,
                "tempo": 120.0
            },
            {
                "start_time": 52.543181818181814,
                "end_time": 52.679545454545455,
                "pitch": 60,
                "velocity": 64,
                "duration": 0.13636363636364024,
                "tempo": 120.0
            },
            {
                "start_time": 52.715909090909086,
                "end_time": 53.05,
                "pitch": 67,
                "velocity": 64,
                "duration": 0.33409090909091077,
                "tempo": 120.0
            },
            {
                "start_time": 53.084090909090904,
                "end_time": 53.22954545454545,
                "pitch": 64,
                "velocity": 64,
                "duration": 0.14545454545454817,
                "tempo": 120.0
            },
            {
                "start_time": 53.24545454545454,
                "end_time": 53.39090909090909,
                "pitch": 60,
                "velocity": 64,
                "duration": 0.14545454545454817,
                "tempo": 120.0
            },
            {
                "start_time": 53.425,
                "end_time": 53.75454545454545,
                "pitch": 67,
                "velocity": 64,
                "duration": 0.32954545454545325,
                "tempo": 120.0
            },
            {
                "start_time": 53.788636363636364,
                "end_time": 53.93863636363636,
                "pitch": 64,
                "velocity": 64,
                "duration": 0.14999999999999858,
                "tempo": 120.0
            },
            {
                "start_time": 53.95454545454545,
                "end_time": 54.10681818181818,
                "pitch": 60,
                "velocity": 64,
                "duration": 0.15227272727272378,
                "tempo": 120.0
            },
            {
                "start_time": 54.14090909090909,
                "end_time": 54.474999999999994,
                "pitch": 69,
                "velocity": 64,
                "duration": 0.33409090909090366,
                "tempo": 120.0
            },
            {
                "start_time": 54.50909090909091,
                "end_time": 54.65909090909091,
                "pitch": 66,
                "velocity": 64,
                "duration": 0.14999999999999858,
                "tempo": 120.0
            },
            {
                "start_time": 54.675,
                "end_time": 54.824999999999996,
                "pitch": 62,
                "velocity": 64,
                "duration": 0.14999999999999858,
                "tempo": 120.0
            },
            {
                "start_time": 54.85909090909091,
                "end_time": 55.195454545454545,
                "pitch": 69,
                "velocity": 64,
                "duration": 0.336363636363636,
                "tempo": 120.0
            },
            {
                "start_time": 55.22954545454545,
                "end_time": 55.37954545454545,
                "pitch": 66,
                "velocity": 64,
                "duration": 0.14999999999999858,
                "tempo": 120.0
            },
            {
                "start_time": 55.39545454545454,
                "end_time": 55.54090909090909,
                "pitch": 62,
                "velocity": 64,
                "duration": 0.14545454545454817,
                "tempo": 120.0
            },
            {
                "start_time": 55.574999999999996,
                "end_time": 55.720454545454544,
                "pitch": 69,
                "velocity": 64,
                "duration": 0.14545454545454817,
                "tempo": 120.0
            },
            {
                "start_time": 55.75454545454545,
                "end_time": 55.90681818181818,
                "pitch": 68,
                "velocity": 64,
                "duration": 0.1522727272727309,
                "tempo": 120.0
            },
            {
                "start_time": 55.94318181818181,
                "end_time": 56.095454545454544,
                "pitch": 62,
                "velocity": 64,
                "duration": 0.1522727272727309,
                "tempo": 120.0
            },
            {
                "start_time": 56.11363636363636,
                "end_time": 56.25909090909091,
                "pitch": 66,
                "velocity": 64,
                "duration": 0.14545454545454817,
                "tempo": 120.0
            },
            {
                "start_time": 56.293181818181814,
                "end_time": 56.62272727272727,
                "pitch": 68,
                "velocity": 64,
                "duration": 0.32954545454545325,
                "tempo": 120.0
            },
            {
                "start_time": 56.65681818181818,
                "end_time": 56.80681818181818,
                "pitch": 62,
                "velocity": 64,
                "duration": 0.14999999999999858,
                "tempo": 120.0
            },
            {
                "start_time": 56.824999999999996,
                "end_time": 56.974999999999994,
                "pitch": 66,
                "velocity": 64,
                "duration": 0.14999999999999858,
                "tempo": 120.0
            },
            {
                "start_time": 57.00909090909091,
                "end_time": 57.15909090909091,
                "pitch": 68,
                "velocity": 64,
                "duration": 0.14999999999999858,
                "tempo": 120.0
            },
            {
                "start_time": 57.19318181818181,
                "end_time": 59.65681818181818,
                "pitch": 64,
                "velocity": 64,
                "duration": 2.4636363636363683,
                "tempo": 120.0
            },
            {
                "start_time": 62.929545454545455,
                "end_time": 63.01136363636363,
                "pitch": 60,
                "velocity": 64,
                "duration": 0.08181818181817846,
                "tempo": 120.0
            }
        ],
        "Acoustic Bass": [
            {
                "start_time": 0.006818181818181818,
                "end_time": 0.15,
                "pitch": 33,
                "velocity": 64,
                "duration": 0.1431818181818182,
                "tempo": 120.0
            },
            {
                "start_time": 0.16818181818181818,
                "end_time": 0.3136363636363636,
                "pitch": 33,
                "velocity": 64,
                "duration": 0.14545454545454542,
                "tempo": 120.0
            },
            {
                "start_time": 0.34545454545454546,
                "end_time": 0.49318181818181817,
                "pitch": 33,
                "velocity": 64,
                "duration": 0.1477272727272727,
                "tempo": 120.0
            },
            {
                "start_time": 0.525,
                "end_time": 0.6704545454545454,
                "pitch": 33,
                "velocity": 64,
                "duration": 0.1454545454545454,
                "tempo": 120.0
            },
            {
                "start_time": 0.7045454545454545,
                "end_time": 0.8545454545454545,
                "pitch": 33,
                "velocity": 64,
                "duration": 0.15000000000000002,
                "tempo": 120.0
            },
            {
                "start_time": 0.8704545454545454,
                "end_time": 1.0227272727272727,
                "pitch": 33,
                "velocity": 64,
                "duration": 0.15227272727272734,
                "tempo": 120.0
            },
            {
                "start_time": 1.0568181818181817,
                "end_time": 1.2022727272727272,
                "pitch": 33,
                "velocity": 64,
                "duration": 0.1454545454545455,
                "tempo": 120.0
            },
            {
                "start_time": 1.2340909090909091,
                "end_time": 1.3818181818181818,
                "pitch": 33,
                "velocity": 64,
                "duration": 0.1477272727272727,
                "tempo": 120.0
            },
            {
                "start_time": 1.4136363636363636,
                "end_time": 1.5499999999999998,
                "pitch": 31,
                "velocity": 64,
                "duration": 0.13636363636363624,
                "tempo": 120.0
            },
            {
                "start_time": 1.584090909090909,
                "end_time": 1.7386363636363635,
                "pitch": 31,
                "velocity": 64,
                "duration": 0.15454545454545454,
                "tempo": 120.0
            },
            {
                "start_time": 1.775,
                "end_time": 1.9204545454545454,
                "pitch": 31,
                "velocity": 64,
                "duration": 0.1454545454545455,
                "tempo": 120.0
            },
            {
                "start_time": 1.9522727272727272,
                "end_time": 2.1,
                "pitch": 31,
                "velocity": 64,
                "duration": 0.14772727272727293,
                "tempo": 120.0
            },
            {
                "start_time": 2.1159090909090907,
                "end_time": 2.2613636363636362,
                "pitch": 31,
                "velocity": 64,
                "duration": 0.1454545454545455,
                "tempo": 120.0
            },
            {
                "start_time": 2.293181818181818,
                "end_time": 2.440909090909091,
                "pitch": 31,
                "velocity": 64,
                "duration": 0.14772727272727293,
                "tempo": 120.0
            },
            {
                "start_time": 2.4727272727272727,
                "end_time": 2.627272727272727,
                "pitch": 31,
                "velocity": 64,
                "duration": 0.15454545454545432,
                "tempo": 120.0
            },
            {
                "start_time": 2.661363636363636,
                "end_time": 2.815909090909091,
                "pitch": 31,
                "velocity": 64,
                "duration": 0.15454545454545476,
                "tempo": 120.0
            },
            {
                "start_time": 2.834090909090909,
                "end_time": 2.9795454545454545,
                "pitch": 29,
                "velocity": 64,
                "duration": 0.1454545454545455,
                "tempo": 120.0
            },
            {
                "start_time": 3.0113636363636362,
                "end_time": 3.1590909090909087,
                "pitch": 29,
                "velocity": 64,
                "duration": 0.14772727272727249,
                "tempo": 120.0
            },
            {
                "start_time": 3.190909090909091,
                "end_time": 3.3454545454545452,
                "pitch": 29,
                "velocity": 64,
                "duration": 0.15454545454545432,
                "tempo": 120.0
            },
            {
                "start_time": 3.3795454545454544,
                "end_time": 3.5340909090909087,
                "pitch": 29,
                "velocity": 64,
                "duration": 0.15454545454545432,
                "tempo": 120.0
            },
            {
                "start_time": 3.55,
                "end_time": 3.693181818181818,
                "pitch": 29,
                "velocity": 64,
                "duration": 0.14318181818181808,
                "tempo": 120.0
            },
            {
                "start_time": 3.7249999999999996,
                "end_time": 3.8659090909090907,
                "pitch": 29,
                "velocity": 64,
                "duration": 0.1409090909090911,
                "tempo": 120.0
            },
            {
                "start_time": 3.8977272727272725,
                "end_time": 4.052272727272727,
                "pitch": 29,
                "velocity": 64,
                "duration": 0.15454545454545432,
                "tempo": 120.0
            },
            {
                "start_time": 4.088636363636364,
                "end_time": 4.24090909090909,
                "pitch": 29,
                "velocity": 64,
                "duration": 0.15227272727272645,
                "tempo": 120.0
            },
            {
                "start_time": 4.259090909090909,
                "end_time": 4.404545454545454,
                "pitch": 28,
                "velocity": 64,
                "duration": 0.1454545454545455,
                "tempo": 120.0
            },
            {
                "start_time": 4.4386363636363635,
                "end_time": 4.584090909090909,
                "pitch": 28,
                "velocity": 64,
                "duration": 0.1454545454545455,
                "tempo": 120.0
            },
            {
                "start_time": 4.61590909090909,
                "end_time": 4.7704545454545455,
                "pitch": 28,
                "velocity": 64,
                "duration": 0.1545454545454552,
                "tempo": 120.0
            },
            {
                "start_time": 4.806818181818182,
                "end_time": 4.959090909090909,
                "pitch": 28,
                "velocity": 64,
                "duration": 0.15227272727272734,
                "tempo": 120.0
            },
            {
                "start_time": 4.977272727272727,
                "end_time": 5.122727272727272,
                "pitch": 28,
                "velocity": 64,
                "duration": 0.1454545454545455,
                "tempo": 120.0
            },
            {
                "start_time": 5.156818181818181,
                "end_time": 5.302272727272727,
                "pitch": 28,
                "velocity": 64,
                "duration": 0.1454545454545455,
                "tempo": 120.0
            },
            {
                "start_time": 5.334090909090909,
                "end_time": 5.488636363636363,
                "pitch": 28,
                "velocity": 64,
                "duration": 0.15454545454545432,
                "tempo": 120.0
            },
            {
                "start_time": 5.5227272727272725,
                "end_time": 5.677272727272727,
                "pitch": 28,
                "velocity": 64,
                "duration": 0.15454545454545432,
                "tempo": 120.0
            },
            {
                "start_time": 5.697727272727272,
                "end_time": 5.840909090909091,
                "pitch": 33,
                "velocity": 64,
                "duration": 0.14318181818181852,
                "tempo": 120.0
            },
            {
                "start_time": 5.875,
                "end_time": 6.0204545454545455,
                "pitch": 33,
                "velocity": 64,
                "duration": 0.1454545454545455,
                "tempo": 120.0
            },
            {
                "start_time": 6.052272727272727,
                "end_time": 6.206818181818181,
                "pitch": 33,
                "velocity": 64,
                "duration": 0.15454545454545432,
                "tempo": 120.0
            },
            {
                "start_time": 6.24090909090909,
                "end_time": 6.379545454545454,
                "pitch": 33,
                "velocity": 64,
                "duration": 0.13863636363636367,
                "tempo": 120.0
            },
            {
                "start_time": 6.413636363636363,
                "end_time": 6.4795454545454545,
                "pitch": 33,
                "velocity": 64,
                "duration": 0.06590909090909136,
                "tempo": 120.0
            },
            {
                "start_time": 6.511363636363636,
                "end_time": 6.559090909090909,
                "pitch": 33,
                "velocity": 64,
                "duration": 0.04772727272727284,
                "tempo": 120.0
            },
            {
                "start_time": 6.593181818181818,
                "end_time": 6.738636363636363,
                "pitch": 33,
                "velocity": 64,
                "duration": 0.1454545454545455,
                "tempo": 120.0
            },
            {
                "start_time": 6.7727272727272725,
                "end_time": 6.925,
                "pitch": 33,
                "velocity": 64,
                "duration": 0.15227272727272734,
                "tempo": 120.0
            },
            {
                "start_time": 6.961363636363636,
                "end_time": 7.097727272727273,
                "pitch": 33,
                "velocity": 64,
                "duration": 0.1363636363636367,
                "tempo": 120.0
            },
            {
                "start_time": 7.131818181818182,
                "end_time": 7.2727272727272725,
                "pitch": 31,
                "velocity": 64,
                "duration": 0.14090909090909065,
                "tempo": 120.0
            },
            {
                "start_time": 7.304545454545454,
                "end_time": 7.447727272727272,
                "pitch": 31,
                "velocity": 64,
                "duration": 0.14318181818181852,
                "tempo": 120.0
            },
            {
                "start_time": 7.4795454545454545,
                "end_time": 7.634090909090909,
                "pitch": 31,
                "velocity": 64,
                "duration": 0.15454545454545432,
                "tempo": 120.0
            },
            {
                "start_time": 7.6499999999999995,
                "end_time": 7.804545454545454,
                "pitch": 31,
                "velocity": 64,
                "duration": 0.15454545454545432,
                "tempo": 120.0
            },
            {
                "start_time": 7.838636363636363,
                "end_time": 7.904545454545454,
                "pitch": 31,
                "velocity": 64,
                "duration": 0.06590909090909136,
                "tempo": 120.0
            },
            {
                "start_time": 7.936363636363636,
                "end_time": 7.986363636363636,
                "pitch": 31,
                "velocity": 64,
                "duration": 0.05000000000000071,
                "tempo": 120.0
            },
            {
                "start_time": 8.018181818181818,
                "end_time": 8.163636363636364,
                "pitch": 31,
                "velocity": 64,
                "duration": 0.1454545454545464,
                "tempo": 120.0
            },
            {
                "start_time": 8.197727272727272,
                "end_time": 8.352272727272727,
                "pitch": 31,
                "velocity": 64,
                "duration": 0.15454545454545432,
                "tempo": 120.0
            },
            {
                "start_time": 8.370454545454544,
                "end_time": 8.522727272727272,
                "pitch": 31,
                "velocity": 64,
                "duration": 0.15227272727272734,
                "tempo": 120.0
            },
            {
                "start_time": 8.556818181818182,
                "end_time": 8.704545454545453,
                "pitch": 36,
                "velocity": 64,
                "duration": 0.1477272727272716,
                "tempo": 120.0
            },
            {
                "start_time": 8.736363636363636,
                "end_time": 8.881818181818181,
                "pitch": 36,
                "velocity": 64,
                "duration": 0.14545454545454461,
                "tempo": 120.0
            },
            {
                "start_time": 8.915909090909091,
                "end_time": 9.068181818181818,
                "pitch": 36,
                "velocity": 64,
                "duration": 0.15227272727272734,
                "tempo": 120.0
            },
            {
                "start_time": 9.086363636363636,
                "end_time": 9.24090909090909,
                "pitch": 36,
                "velocity": 64,
                "duration": 0.15454545454545432,
                "tempo": 120.0
            },
            {
                "start_time": 9.275,
                "end_time": 9.422727272727272,
                "pitch": 36,
                "velocity": 64,
                "duration": 0.1477272727272716,
                "tempo": 120.0
            },
            {
                "start_time": 9.454545454545453,
                "end_time": 9.6,
                "pitch": 36,
                "velocity": 64,
                "duration": 0.1454545454545464,
                "tempo": 120.0
            },
            {
                "start_time": 9.634090909090908,
                "end_time": 9.786363636363635,
                "pitch": 36,
                "velocity": 64,
                "duration": 0.15227272727272734,
                "tempo": 120.0
            },
            {
                "start_time": 9.804545454545455,
                "end_time": 9.872727272727273,
                "pitch": 31,
                "velocity": 64,
                "duration": 0.06818181818181834,
                "tempo": 120.0
            },
            {
                "start_time": 9.906818181818181,
                "end_time": 9.959090909090909,
                "pitch": 33,
                "velocity": 64,
                "duration": 0.05227272727272769,
                "tempo": 120.0
            },
            {
                "start_time": 9.993181818181817,
                "end_time": 10.14090909090909,
                "pitch": 36,
                "velocity": 64,
                "duration": 0.14772727272727337,
                "tempo": 120.0
            },
            {
                "start_time": 10.172727272727272,
                "end_time": 10.318181818181818,
                "pitch": 36,
                "velocity": 64,
                "duration": 0.1454545454545464,
                "tempo": 120.0
            },
            {
                "start_time": 10.352272727272727,
                "end_time": 10.502272727272727,
                "pitch": 36,
                "velocity": 64,
                "duration": 0.15000000000000036,
                "tempo": 120.0
            },
            {
                "start_time": 10.518181818181818,
                "end_time": 10.670454545454545,
                "pitch": 36,
                "velocity": 64,
                "duration": 0.15227272727272734,
                "tempo": 120.0
            },
            {
                "start_time": 10.702272727272726,
                "end_time": 10.768181818181818,
                "pitch": 36,
                "velocity": 64,
                "duration": 0.06590909090909136,
                "tempo": 120.0
            },
            {
                "start_time": 10.784090909090908,
                "end_time": 10.85,
                "pitch": 36,
                "velocity": 64,
                "duration": 0.06590909090909136,
                "tempo": 120.0
            },
            {
                "start_time": 10.884090909090908,
                "end_time": 11.029545454545454,
                "pitch": 31,
                "velocity": 64,
                "duration": 0.1454545454545464,
                "tempo": 120.0
            },
            {
                "start_time": 11.061363636363636,
                "end_time": 11.21590909090909,
                "pitch": 33,
                "velocity": 64,
                "duration": 0.15454545454545432,
                "tempo": 120.0
            },
            {
                "start_time": 11.23181818181818,
                "end_time": 11.386363636363637,
                "pitch": 36,
                "velocity": 64,
                "duration": 0.1545454545454561,
                "tempo": 120.0
            },
            {
                "start_time": 11.422727272727272,
                "end_time": 11.568181818181818,
                "pitch": 35,
                "velocity": 64,
                "duration": 0.1454545454545464,
                "tempo": 120.0
            },
            {
                "start_time": 11.6,
                "end_time": 11.747727272727273,
                "pitch": 35,
                "velocity": 64,
                "duration": 0.14772727272727337,
                "tempo": 120.0
            },
            {
                "start_time": 11.779545454545454,
                "end_time": 11.915909090909091,
                "pitch": 35,
                "velocity": 64,
                "duration": 0.1363636363636367,
                "tempo": 120.0
            },
            {
                "start_time": 11.95,
                "end_time": 12.104545454545454,
                "pitch": 35,
                "velocity": 64,
                "duration": 0.15454545454545432,
                "tempo": 120.0
            },
            {
                "start_time": 12.14090909090909,
                "end_time": 12.204545454545453,
                "pitch": 35,
                "velocity": 64,
                "duration": 0.0636363636363626,
                "tempo": 120.0
            },
            {
                "start_time": 12.220454545454546,
                "end_time": 12.286363636363635,
                "pitch": 35,
                "velocity": 64,
                "duration": 0.06590909090908958,
                "tempo": 120.0
            },
            {
                "start_time": 12.318181818181818,
                "end_time": 12.46590909090909,
                "pitch": 35,
                "velocity": 64,
                "duration": 0.1477272727272716,
                "tempo": 120.0
            },
            {
                "start_time": 12.48181818181818,
                "end_time": 12.627272727272727,
                "pitch": 35,
                "velocity": 64,
                "duration": 0.1454545454545464,
                "tempo": 120.0
            },
            {
                "start_time": 12.661363636363635,
                "end_time": 12.806818181818182,
                "pitch": 35,
                "velocity": 64,
                "duration": 0.1454545454545464,
                "tempo": 120.0
            },
            {
                "start_time": 12.838636363636363,
                "end_time": 12.993181818181817,
                "pitch": 40,
                "velocity": 64,
                "duration": 0.15454545454545432,
                "tempo": 120.0
            },
            {
                "start_time": 13.027272727272727,
                "end_time": 13.181818181818182,
                "pitch": 40,
                "velocity": 64,
                "duration": 0.15454545454545432,
                "tempo": 120.0
            },
            {
                "start_time": 13.2,
                "end_time": 13.345454545454546,
                "pitch": 40,
                "velocity": 64,
                "duration": 0.1454545454545464,
                "tempo": 120.0
            },
            {
                "start_time": 13.377272727272727,
                "end_time": 13.443181818181818,
                "pitch": 35,
                "velocity": 64,
                "duration": 0.06590909090909136,
                "tempo": 120.0
            },
            {
                "start_time": 13.475,
                "end_time": 13.524999999999999,
                "pitch": 38,
                "velocity": 64,
                "duration": 0.049999999999998934,
                "tempo": 120.0
            },
            {
                "start_time": 13.556818181818182,
                "end_time": 13.711363636363636,
                "pitch": 40,
                "velocity": 64,
                "duration": 0.15454545454545432,
                "tempo": 120.0
            },
            {
                "start_time": 13.745454545454544,
                "end_time": 13.899999999999999,
                "pitch": 35,
                "velocity": 64,
                "duration": 0.15454545454545432,
                "tempo": 120.0
            },
            {
                "start_time": 13.918181818181818,
                "end_time": 13.98181818181818,
                "pitch": 38,
                "velocity": 64,
                "duration": 0.0636363636363626,
                "tempo": 120.0
            },
            {
                "start_time": 14.01590909090909,
                "end_time": 14.063636363636363,
                "pitch": 40,
                "velocity": 64,
                "duration": 0.04772727272727195,
                "tempo": 120.0
            },
            {
                "start_time": 14.095454545454544,
                "end_time": 14.243181818181817,
                "pitch": 35,
                "velocity": 64,
                "duration": 0.14772727272727337,
                "tempo": 120.0
            },
            {
                "start_time": 14.277272727272727,
                "end_time": 14.429545454545455,
                "pitch": 33,
                "velocity": 64,
                "duration": 0.15227272727272734,
                "tempo": 120.0
            },
            {
                "start_time": 14.463636363636363,
                "end_time": 14.618181818181817,
                "pitch": 33,
                "velocity": 64,
                "duration": 0.15454545454545432,
                "tempo": 120.0
            },
            {
                "start_time": 14.636363636363635,
                "end_time": 14.781818181818181,
                "pitch": 33,
                "velocity": 64,
                "duration": 0.1454545454545464,
                "tempo": 120.0
            },
            {
                "start_time": 14.81590909090909,
                "end_time": 14.961363636363636,
                "pitch": 33,
                "velocity": 64,
                "duration": 0.1454545454545464,
                "tempo": 120.0
            },
            {
                "start_time": 14.993181818181817,
                "end_time": 15.143181818181818,
                "pitch": 33,
                "velocity": 64,
                "duration": 0.15000000000000036,
                "tempo": 120.0
            },
            {
                "start_time": 15.177272727272726,
                "end_time": 15.327272727272726,
                "pitch": 33,
                "velocity": 64,
                "duration": 0.15000000000000036,
                "tempo": 120.0
            },
            {
                "start_time": 15.345454545454544,
                "end_time": 15.49090909090909,
                "pitch": 33,
                "velocity": 64,
                "duration": 0.1454545454545464,
                "tempo": 120.0
            },
            {
                "start_time": 15.524999999999999,
                "end_time": 15.670454545454545,
                "pitch": 33,
                "velocity": 64,
                "duration": 0.1454545454545464,
                "tempo": 120.0
            },
            {
                "start_time": 15.702272727272726,
                "end_time": 15.85681818181818,
                "pitch": 31,
                "velocity": 64,
                "duration": 0.15454545454545432,
                "tempo": 120.0
            },
            {
                "start_time": 15.89090909090909,
                "end_time": 16.045454545454543,
                "pitch": 31,
                "velocity": 64,
                "duration": 0.15454545454545254,
                "tempo": 120.0
            },
            {
                "start_time": 16.063636363636363,
                "end_time": 16.209090909090907,
                "pitch": 31,
                "velocity": 64,
                "duration": 0.14545454545454461,
                "tempo": 120.0
            },
            {
                "start_time": 16.243181818181817,
                "end_time": 16.30681818181818,
                "pitch": 31,
                "velocity": 64,
                "duration": 0.0636363636363626,
                "tempo": 120.0
            },
            {
                "start_time": 16.32272727272727,
                "end_time": 16.388636363636362,
                "pitch": 31,
                "velocity": 64,
                "duration": 0.06590909090909136,
                "tempo": 120.0
            },
            {
                "start_time": 16.420454545454543,
                "end_time": 16.57272727272727,
                "pitch": 31,
                "velocity": 64,
                "duration": 0.15227272727272734,
                "tempo": 120.0
            },
            {
                "start_time": 16.604545454545455,
                "end_time": 16.738636363636363,
                "pitch": 31,
                "velocity": 64,
                "duration": 0.13409090909090793,
                "tempo": 120.0
            },
            {
                "start_time": 16.772727272727273,
                "end_time": 16.83863636363636,
                "pitch": 31,
                "velocity": 64,
                "duration": 0.06590909090908781,
                "tempo": 120.0
            },
            {
                "start_time": 16.87272727272727,
                "end_time": 16.922727272727272,
                "pitch": 43,
                "velocity": 64,
                "duration": 0.05000000000000071,
                "tempo": 120.0
            },
            {
                "start_time": 16.956818181818182,
                "end_time": 17.10909090909091,
                "pitch": 31,
                "velocity": 64,
                "duration": 0.15227272727272734,
                "tempo": 120.0
            },
            {
                "start_time": 17.143181818181816,
                "end_time": 17.29090909090909,
                "pitch": 30,
                "velocity": 64,
                "duration": 0.14772727272727337,
                "tempo": 120.0
            },
            {
                "start_time": 17.325,
                "end_time": 17.459090909090907,
                "pitch": 30,
                "velocity": 64,
                "duration": 0.13409090909090793,
                "tempo": 120.0
            },
            {
                "start_time": 17.493181818181817,
                "end_time": 17.638636363636362,
                "pitch": 30,
                "velocity": 64,
                "duration": 0.14545454545454461,
                "tempo": 120.0
            },
            {
                "start_time": 17.672727272727272,
                "end_time": 17.818181818181817,
                "pitch": 30,
                "velocity": 64,
                "duration": 0.14545454545454461,
                "tempo": 120.0
            },
            {
                "start_time": 17.849999999999998,
                "end_time": 17.902272727272727,
                "pitch": 30,
                "velocity": 64,
                "duration": 0.05227272727272947,
                "tempo": 120.0
            },
            {
                "start_time": 17.936363636363634,
                "end_time": 18.004545454545454,
                "pitch": 30,
                "velocity": 64,
                "duration": 0.06818181818182012,
                "tempo": 120.0
            },
            {
                "start_time": 18.022727272727273,
                "end_time": 18.177272727272726,
                "pitch": 30,
                "velocity": 64,
                "duration": 0.15454545454545254,
                "tempo": 120.0
            },
            {
                "start_time": 18.211363636363636,
                "end_time": 18.35681818181818,
                "pitch": 30,
                "velocity": 64,
                "duration": 0.14545454545454461,
                "tempo": 120.0
            },
            {
                "start_time": 18.39090909090909,
                "end_time": 18.536363636363635,
                "pitch": 30,
                "velocity": 64,
                "duration": 0.14545454545454461,
                "tempo": 120.0
            },
            {
                "start_time": 18.570454545454545,
                "end_time": 18.722727272727273,
                "pitch": 38,
                "velocity": 64,
                "duration": 0.15227272727272734,
                "tempo": 120.0
            },
            {
                "start_time": 18.74090909090909,
                "end_time": 18.895454545454545,
                "pitch": 38,
                "velocity": 64,
                "duration": 0.1545454545454561,
                "tempo": 120.0
            },
            {
                "start_time": 18.929545454545455,
                "end_time": 19.075,
                "pitch": 38,
                "velocity": 64,
                "duration": 0.14545454545454461,
                "tempo": 120.0
            },
            {
                "start_time": 19.10909090909091,
                "end_time": 19.254545454545454,
                "pitch": 38,
                "velocity": 64,
                "duration": 0.14545454545454461,
                "tempo": 120.0
            },
            {
                "start_time": 19.288636363636364,
                "end_time": 19.33863636363636,
                "pitch": 38,
                "velocity": 64,
                "duration": 0.04999999999999716,
                "tempo": 120.0
            },
            {
                "start_time": 19.37272727272727,
                "end_time": 19.44090909090909,
                "pitch": 38,
                "velocity": 64,
                "duration": 0.06818181818182012,
                "tempo": 120.0
            },
            {
                "start_time": 19.459090909090907,
                "end_time": 19.613636363636363,
                "pitch": 26,
                "velocity": 64,
                "duration": 0.1545454545454561,
                "tempo": 120.0
            },
            {
                "start_time": 19.647727272727273,
                "end_time": 19.793181818181818,
                "pitch": 28,
                "velocity": 64,
                "duration": 0.14545454545454461,
                "tempo": 120.0
            },
            {
                "start_time": 19.827272727272728,
                "end_time": 19.972727272727273,
                "pitch": 30,
                "velocity": 64,
                "duration": 0.14545454545454461,
                "tempo": 120.0
            },
            {
                "start_time": 20.00681818181818,
                "end_time": 20.15681818181818,
                "pitch": 31,
                "velocity": 64,
                "duration": 0.15000000000000213,
                "tempo": 120.0
            },
            {
                "start_time": 20.172727272727272,
                "end_time": 20.32272727272727,
                "pitch": 31,
                "velocity": 64,
                "duration": 0.14999999999999858,
                "tempo": 120.0
            },
            {
                "start_time": 20.35681818181818,
                "end_time": 20.509090909090908,
                "pitch": 31,
                "velocity": 64,
                "duration": 0.15227272727272734,
                "tempo": 120.0
            },
            {
                "start_time": 20.543181818181818,
                "end_time": 20.69090909090909,
                "pitch": 31,
                "velocity": 64,
                "duration": 0.14772727272727337,
                "tempo": 120.0
            },
            {
                "start_time": 20.724999999999998,
                "end_time": 20.775,
                "pitch": 31,
                "velocity": 64,
                "duration": 0.05000000000000071,
                "tempo": 120.0
            },
            {
                "start_time": 20.80909090909091,
                "end_time": 20.877272727272725,
                "pitch": 31,
                "velocity": 64,
                "duration": 0.06818181818181657,
                "tempo": 120.0
            },
            {
                "start_time": 20.893181818181816,
                "end_time": 21.043181818181818,
                "pitch": 31,
                "velocity": 64,
                "duration": 0.15000000000000213,
                "tempo": 120.0
            },
            {
                "start_time": 21.077272727272724,
                "end_time": 21.222727272727273,
                "pitch": 31,
                "velocity": 64,
                "duration": 0.14545454545454817,
                "tempo": 120.0
            },
            {
                "start_time": 21.25681818181818,
                "end_time": 21.402272727272727,
                "pitch": 31,
                "velocity": 64,
                "duration": 0.14545454545454817,
                "tempo": 120.0
            },
            {
                "start_time": 21.436363636363634,
                "end_time": 21.58863636363636,
                "pitch": 32,
                "velocity": 64,
                "duration": 0.15227272727272734,
                "tempo": 120.0
            },
            {
                "start_time": 21.60681818181818,
                "end_time": 21.761363636363637,
                "pitch": 32,
                "velocity": 64,
                "duration": 0.1545454545454561,
                "tempo": 120.0
            },
            {
                "start_time": 21.795454545454543,
                "end_time": 21.943181818181817,
                "pitch": 32,
                "velocity": 64,
                "duration": 0.14772727272727337,
                "tempo": 120.0
            },
            {
                "start_time": 21.974999999999998,
                "end_time": 22.286363636363635,
                "pitch": 28,
                "velocity": 64,
                "duration": 0.3113636363636374,
                "tempo": 120.0
            },
            {
                "start_time": 22.320454545454545,
                "end_time": 22.472727272727273,
                "pitch": 28,
                "velocity": 64,
                "duration": 0.15227272727272734,
                "tempo": 120.0
            },
            {
                "start_time": 22.504545454545454,
                "end_time": 22.65681818181818,
                "pitch": 28,
                "velocity": 64,
                "duration": 0.15227272727272734,
                "tempo": 120.0
            },
            {
                "start_time": 22.688636363636363,
                "end_time": 22.84090909090909,
                "pitch": 28,
                "velocity": 64,
                "duration": 0.15227272727272734,
                "tempo": 120.0
            },
            {
                "start_time": 22.85909090909091,
                "end_time": 23.004545454545454,
                "pitch": 33,
                "velocity": 64,
                "duration": 0.14545454545454461,
                "tempo": 120.0
            },
            {
                "start_time": 23.036363636363635,
                "end_time": 23.18181818181818,
                "pitch": 33,
                "velocity": 64,
                "duration": 0.14545454545454461,
                "tempo": 120.0
            },
            {
                "start_time": 23.21590909090909,
                "end_time": 23.36590909090909,
                "pitch": 33,
                "velocity": 64,
                "duration": 0.14999999999999858,
                "tempo": 120.0
            },
            {
                "start_time": 23.4,
                "end_time": 23.549999999999997,
                "pitch": 33,
                "velocity": 64,
                "duration": 0.14999999999999858,
                "tempo": 120.0
            },
            {
                "start_time": 23.56590909090909,
                "end_time": 23.63181818181818,
                "pitch": 33,
                "velocity": 64,
                "duration": 0.06590909090908781,
                "tempo": 120.0
            },
            {
                "start_time": 23.663636363636364,
                "end_time": 23.71363636363636,
                "pitch": 33,
                "velocity": 64,
                "duration": 0.04999999999999716,
                "tempo": 120.0
            },
            {
                "start_time": 23.745454545454546,
                "end_time": 23.893181818181816,
                "pitch": 33,
                "velocity": 64,
                "duration": 0.14772727272726982,
                "tempo": 120.0
            },
            {
                "start_time": 23.924999999999997,
                "end_time": 24.079545454545453,
                "pitch": 33,
                "velocity": 64,
                "duration": 0.1545454545454561,
                "tempo": 120.0
            },
            {
                "start_time": 24.113636363636363,
                "end_time": 24.268181818181816,
                "pitch": 33,
                "velocity": 64,
                "duration": 0.15454545454545254,
                "tempo": 120.0
            },
            {
                "start_time": 24.284090909090907,
                "end_time": 24.43181818181818,
                "pitch": 31,
                "velocity": 64,
                "duration": 0.14772727272727337,
                "tempo": 120.0
            },
            {
                "start_time": 24.46363636363636,
                "end_time": 24.60909090909091,
                "pitch": 31,
                "velocity": 64,
                "duration": 0.14545454545454817,
                "tempo": 120.0
            },
            {
                "start_time": 24.643181818181816,
                "end_time": 24.797727272727272,
                "pitch": 31,
                "velocity": 64,
                "duration": 0.1545454545454561,
                "tempo": 120.0
            },
            {
                "start_time": 24.831818181818182,
                "end_time": 24.986363636363635,
                "pitch": 31,
                "velocity": 64,
                "duration": 0.15454545454545254,
                "tempo": 120.0
            },
            {
                "start_time": 25.002272727272725,
                "end_time": 25.068181818181817,
                "pitch": 31,
                "velocity": 64,
                "duration": 0.06590909090909136,
                "tempo": 120.0
            },
            {
                "start_time": 25.099999999999998,
                "end_time": 25.15,
                "pitch": 31,
                "velocity": 64,
                "duration": 0.05000000000000071,
                "tempo": 120.0
            },
            {
                "start_time": 25.18181818181818,
                "end_time": 25.329545454545453,
                "pitch": 31,
                "velocity": 64,
                "duration": 0.14772727272727337,
                "tempo": 120.0
            },
            {
                "start_time": 25.361363636363635,
                "end_time": 25.51590909090909,
                "pitch": 31,
                "velocity": 64,
                "duration": 0.1545454545454561,
                "tempo": 120.0
            },
            {
                "start_time": 25.549999999999997,
                "end_time": 25.704545454545453,
                "pitch": 31,
                "velocity": 64,
                "duration": 0.1545454545454561,
                "tempo": 120.0
            },
            {
                "start_time": 25.720454545454544,
                "end_time": 25.868181818181817,
                "pitch": 36,
                "velocity": 64,
                "duration": 0.14772727272727337,
                "tempo": 120.0
            },
            {
                "start_time": 25.9,
                "end_time": 26.045454545454543,
                "pitch": 36,
                "velocity": 64,
                "duration": 0.14545454545454461,
                "tempo": 120.0
            },
            {
                "start_time": 26.079545454545453,
                "end_time": 26.229545454545452,
                "pitch": 36,
                "velocity": 64,
                "duration": 0.14999999999999858,
                "tempo": 120.0
            },
            {
                "start_time": 26.263636363636362,
                "end_time": 26.413636363636364,
                "pitch": 36,
                "velocity": 64,
                "duration": 0.15000000000000213,
                "tempo": 120.0
            },
            {
                "start_time": 26.43181818181818,
                "end_time": 26.577272727272724,
                "pitch": 36,
                "velocity": 64,
                "duration": 0.14545454545454461,
                "tempo": 120.0
            },
            {
                "start_time": 26.60909090909091,
                "end_time": 26.75681818181818,
                "pitch": 36,
                "velocity": 64,
                "duration": 0.14772727272726982,
                "tempo": 120.0
            },
            {
                "start_time": 26.788636363636364,
                "end_time": 26.943181818181817,
                "pitch": 36,
                "velocity": 64,
                "duration": 0.15454545454545254,
                "tempo": 120.0
            },
            {
                "start_time": 26.977272727272727,
                "end_time": 27.029545454545453,
                "pitch": 31,
                "velocity": 64,
                "duration": 0.052272727272725916,
                "tempo": 120.0
            },
            {
                "start_time": 27.063636363636363,
                "end_time": 27.113636363636363,
                "pitch": 33,
                "velocity": 64,
                "duration": 0.05000000000000071,
                "tempo": 120.0
            },
            {
                "start_time": 27.15,
                "end_time": 27.295454545454543,
                "pitch": 36,
                "velocity": 64,
                "duration": 0.14545454545454461,
                "tempo": 120.0
            },
            {
                "start_time": 27.327272727272724,
                "end_time": 27.474999999999998,
                "pitch": 36,
                "velocity": 64,
                "duration": 0.14772727272727337,
                "tempo": 120.0
            },
            {
                "start_time": 27.50681818181818,
                "end_time": 27.661363636363635,
                "pitch": 36,
                "velocity": 64,
                "duration": 0.1545454545454561,
                "tempo": 120.0
            },
            {
                "start_time": 27.677272727272726,
                "end_time": 27.831818181818182,
                "pitch": 36,
                "velocity": 64,
                "duration": 0.1545454545454561,
                "tempo": 120.0
            },
            {
                "start_time": 27.86590909090909,
                "end_time": 27.93181818181818,
                "pitch": 36,
                "velocity": 64,
                "duration": 0.06590909090909136,
                "tempo": 120.0
            },
            {
                "start_time": 27.96590909090909,
                "end_time": 28.013636363636362,
                "pitch": 36,
                "velocity": 64,
                "duration": 0.04772727272727195,
                "tempo": 120.0
            },
            {
                "start_time": 28.047727272727272,
                "end_time": 28.193181818181817,
                "pitch": 31,
                "velocity": 64,
                "duration": 0.14545454545454461,
                "tempo": 120.0
            },
            {
                "start_time": 28.224999999999998,
                "end_time": 28.379545454545454,
                "pitch": 33,
                "velocity": 64,
                "duration": 0.1545454545454561,
                "tempo": 120.0
            },
            {
                "start_time": 28.395454545454545,
                "end_time": 28.549999999999997,
                "pitch": 36,
                "velocity": 64,
                "duration": 0.15454545454545254,
                "tempo": 120.0
            },
            {
                "start_time": 28.586363636363636,
                "end_time": 28.73181818181818,
                "pitch": 35,
                "velocity": 64,
                "duration": 0.14545454545454461,
                "tempo": 120.0
            },
            {
                "start_time": 28.763636363636362,
                "end_time": 28.911363636363635,
                "pitch": 35,
                "velocity": 64,
                "duration": 0.14772727272727337,
                "tempo": 120.0
            },
            {
                "start_time": 28.943181818181817,
                "end_time": 29.097727272727273,
                "pitch": 35,
                "velocity": 64,
                "duration": 0.1545454545454561,
                "tempo": 120.0
            },
            {
                "start_time": 29.113636363636363,
                "end_time": 29.268181818181816,
                "pitch": 35,
                "velocity": 64,
                "duration": 0.15454545454545254,
                "tempo": 120.0
            },
            {
                "start_time": 29.304545454545455,
                "end_time": 29.368181818181817,
                "pitch": 35,
                "velocity": 64,
                "duration": 0.0636363636363626,
                "tempo": 120.0
            },
            {
                "start_time": 29.402272727272727,
                "end_time": 29.45,
                "pitch": 35,
                "velocity": 64,
                "duration": 0.04772727272727195,
                "tempo": 120.0
            },
            {
                "start_time": 29.48181818181818,
                "end_time": 29.629545454545454,
                "pitch": 35,
                "velocity": 64,
                "duration": 0.14772727272727337,
                "tempo": 120.0
            },
            {
                "start_time": 29.661363636363635,
                "end_time": 29.811363636363634,
                "pitch": 35,
                "velocity": 64,
                "duration": 0.14999999999999858,
                "tempo": 120.0
            },
            {
                "start_time": 29.829545454545453,
                "end_time": 29.979545454545452,
                "pitch": 35,
                "velocity": 64,
                "duration": 0.14999999999999858,
                "tempo": 120.0
            },
            {
                "start_time": 30.013636363636362,
                "end_time": 30.16363636363636,
                "pitch": 40,
                "velocity": 64,
                "duration": 0.14999999999999858,
                "tempo": 120.0
            },
            {
                "start_time": 30.19772727272727,
                "end_time": 30.347727272727273,
                "pitch": 40,
                "velocity": 64,
                "duration": 0.15000000000000213,
                "tempo": 120.0
            },
            {
                "start_time": 30.38181818181818,
                "end_time": 30.53181818181818,
                "pitch": 40,
                "velocity": 64,
                "duration": 0.15000000000000213,
                "tempo": 120.0
            },
            {
                "start_time": 30.549999999999997,
                "end_time": 30.61590909090909,
                "pitch": 35,
                "velocity": 64,
                "duration": 0.06590909090909136,
                "tempo": 120.0
            },
            {
                "start_time": 30.65,
                "end_time": 30.7,
                "pitch": 38,
                "velocity": 64,
                "duration": 0.05000000000000071,
                "tempo": 120.0
            },
            {
                "start_time": 30.73409090909091,
                "end_time": 30.879545454545454,
                "pitch": 40,
                "velocity": 64,
                "duration": 0.14545454545454461,
                "tempo": 120.0
            },
            {
                "start_time": 30.911363636363635,
                "end_time": 31.05909090909091,
                "pitch": 35,
                "velocity": 64,
                "duration": 0.14772727272727337,
                "tempo": 120.0
            },
            {
                "start_time": 31.093181818181815,
                "end_time": 31.143181818181816,
                "pitch": 38,
                "velocity": 64,
                "duration": 0.05000000000000071,
                "tempo": 120.0
            },
            {
                "start_time": 31.177272727272726,
                "end_time": 31.245454545454542,
                "pitch": 40,
                "velocity": 64,
                "duration": 0.06818181818181657,
                "tempo": 120.0
            },
            {
                "start_time": 31.263636363636362,
                "end_time": 31.418181818181818,
                "pitch": 35,
                "velocity": 64,
                "duration": 0.1545454545454561,
                "tempo": 120.0
            },
            {
                "start_time": 31.452272727272724,
                "end_time": 31.597727272727273,
                "pitch": 33,
                "velocity": 64,
                "duration": 0.14545454545454817,
                "tempo": 120.0
            },
            {
                "start_time": 31.629545454545454,
                "end_time": 31.777272727272727,
                "pitch": 33,
                "velocity": 64,
                "duration": 0.14772727272727337,
                "tempo": 120.0
            },
            {
                "start_time": 31.80909090909091,
                "end_time": 31.945454545454545,
                "pitch": 33,
                "velocity": 64,
                "duration": 0.1363636363636367,
                "tempo": 120.0
            },
            {
                "start_time": 31.979545454545452,
                "end_time": 32.13409090909091,
                "pitch": 33,
                "velocity": 64,
                "duration": 0.1545454545454561,
                "tempo": 120.0
            },
            {
                "start_time": 32.168181818181814,
                "end_time": 32.31136363636364,
                "pitch": 33,
                "velocity": 64,
                "duration": 0.14318181818182296,
                "tempo": 120.0
            },
            {
                "start_time": 32.34318181818182,
                "end_time": 32.48409090909091,
                "pitch": 33,
                "velocity": 64,
                "duration": 0.14090909090909065,
                "tempo": 120.0
            },
            {
                "start_time": 32.51590909090909,
                "end_time": 32.654545454545456,
                "pitch": 33,
                "velocity": 64,
                "duration": 0.13863636363636545,
                "tempo": 120.0
            },
            {
                "start_time": 32.68863636363636,
                "end_time": 32.75681818181818,
                "pitch": 28,
                "velocity": 64,
                "duration": 0.06818181818182012,
                "tempo": 120.0
            },
            {
                "start_time": 32.79090909090909,
                "end_time": 32.84318181818182,
                "pitch": 31,
                "velocity": 64,
                "duration": 0.05227272727272947,
                "tempo": 120.0
            },
            {
                "start_time": 32.877272727272725,
                "end_time": 33.02272727272727,
                "pitch": 33,
                "velocity": 64,
                "duration": 0.14545454545454817,
                "tempo": 120.0
            },
            {
                "start_time": 33.05681818181818,
                "end_time": 33.20227272727273,
                "pitch": 33,
                "velocity": 64,
                "duration": 0.14545454545454817,
                "tempo": 120.0
            },
            {
                "start_time": 33.21818181818182,
                "end_time": 33.36590909090909,
                "pitch": 33,
                "velocity": 64,
                "duration": 0.14772727272727337,
                "tempo": 120.0
            },
            {
                "start_time": 33.39772727272727,
                "end_time": 33.543181818181814,
                "pitch": 33,
                "velocity": 64,
                "duration": 0.14545454545454106,
                "tempo": 120.0
            },
            {
                "start_time": 33.57727272727273,
                "end_time": 33.72954545454545,
                "pitch": 33,
                "velocity": 64,
                "duration": 0.15227272727272378,
                "tempo": 120.0
            },
            {
                "start_time": 33.76590909090909,
                "end_time": 33.81590909090909,
                "pitch": 43,
                "velocity": 64,
                "duration": 0.04999999999999716,
                "tempo": 120.0
            },
            {
                "start_time": 33.85,
                "end_time": 33.92045454545455,
                "pitch": 45,
                "velocity": 64,
                "duration": 0.07045454545454533,
                "tempo": 120.0
            },
            {
                "start_time": 33.93636363636364,
                "end_time": 34.08863636363636,
                "pitch": 31,
                "velocity": 64,
                "duration": 0.15227272727272378,
                "tempo": 120.0
            },
            {
                "start_time": 34.12045454545454,
                "end_time": 34.27272727272727,
                "pitch": 43,
                "velocity": 64,
                "duration": 0.1522727272727309,
                "tempo": 120.0
            },
            {
                "start_time": 34.30681818181818,
                "end_time": 34.64090909090909,
                "pitch": 29,
                "velocity": 64,
                "duration": 0.33409090909091077,
                "tempo": 120.0
            },
            {
                "start_time": 34.836363636363636,
                "end_time": 35.699999999999996,
                "pitch": 29,
                "velocity": 64,
                "duration": 0.8636363636363598,
                "tempo": 120.0
            },
            {
                "start_time": 35.73409090909091,
                "end_time": 36.06818181818181,
                "pitch": 29,
                "velocity": 64,
                "duration": 0.33409090909090366,
                "tempo": 120.0
            },
            {
                "start_time": 36.26590909090909,
                "end_time": 37.12954545454545,
                "pitch": 29,
                "velocity": 64,
                "duration": 0.8636363636363598,
                "tempo": 120.0
            },
            {
                "start_time": 37.16136363636363,
                "end_time": 37.486363636363635,
                "pitch": 29,
                "velocity": 64,
                "duration": 0.32500000000000284,
                "tempo": 120.0
            },
            {
                "start_time": 37.70227272727273,
                "end_time": 38.56590909090909,
                "pitch": 29,
                "velocity": 64,
                "duration": 0.8636363636363598,
                "tempo": 120.0
            },
            {
                "start_time": 38.59772727272727,
                "end_time": 38.91590909090909,
                "pitch": 29,
                "velocity": 64,
                "duration": 0.3181818181818201,
                "tempo": 120.0
            },
            {
                "start_time": 39.13409090909091,
                "end_time": 39.63636363636363,
                "pitch": 29,
                "velocity": 64,
                "duration": 0.5022727272727252,
                "tempo": 120.0
            },
            {
                "start_time": 39.67045454545455,
                "end_time": 39.99545454545454,
                "pitch": 28,
                "velocity": 64,
                "duration": 0.32499999999999574,
                "tempo": 120.0
            },
            {
                "start_time": 40.027272727272724,
                "end_time": 40.35227272727273,
                "pitch": 26,
                "velocity": 64,
                "duration": 0.32500000000000284,
                "tempo": 120.0
            },
            {
                "start_time": 40.56818181818181,
                "end_time": 41.43181818181818,
                "pitch": 26,
                "velocity": 64,
                "duration": 0.8636363636363669,
                "tempo": 120.0
            },
            {
                "start_time": 41.46363636363636,
                "end_time": 41.78181818181818,
                "pitch": 26,
                "velocity": 64,
                "duration": 0.3181818181818201,
                "tempo": 120.0
            },
            {
                "start_time": 41.99545454545454,
                "end_time": 42.85909090909091,
                "pitch": 26,
                "velocity": 64,
                "duration": 0.8636363636363669,
                "tempo": 120.0
            },
            {
                "start_time": 42.893181818181816,
                "end_time": 43.215909090909086,
                "pitch": 26,
                "velocity": 64,
                "duration": 0.32272727272727053,
                "tempo": 120.0
            },
            {
                "start_time": 43.43181818181818,
                "end_time": 44.293181818181814,
                "pitch": 26,
                "velocity": 64,
                "duration": 0.8613636363636346,
                "tempo": 120.0
            },
            {
                "start_time": 44.31136363636364,
                "end_time": 44.63636363636363,
                "pitch": 28,
                "velocity": 64,
                "duration": 0.32499999999999574,
                "tempo": 120.0
            },
            {
                "start_time": 44.85909090909091,
                "end_time": 45.72954545454545,
                "pitch": 28,
                "velocity": 64,
                "duration": 0.8704545454545425,
                "tempo": 120.0
            },
            {
                "start_time": 45.75,
                "end_time": 45.89545454545454,
                "pitch": 33,
                "velocity": 64,
                "duration": 0.14545454545454106,
                "tempo": 120.0
            },
            {
                "start_time": 45.92727272727272,
                "end_time": 46.07272727272727,
                "pitch": 33,
                "velocity": 64,
                "duration": 0.14545454545454817,
                "tempo": 120.0
            },
            {
                "start_time": 46.10681818181818,
                "end_time": 46.25681818181818,
                "pitch": 33,
                "velocity": 64,
                "duration": 0.15000000000000568,
                "tempo": 120.0
            },
            {
                "start_time": 46.29090909090909,
                "end_time": 46.44090909090909,
                "pitch": 33,
                "velocity": 64,
                "duration": 0.14999999999999858,
                "tempo": 120.0
            },
            {
                "start_time": 46.45681818181818,
                "end_time": 46.60454545454545,
                "pitch": 33,
                "velocity": 64,
                "duration": 0.14772727272727337,
                "tempo": 120.0
            },
            {
                "start_time": 46.63636363636363,
                "end_time": 46.78409090909091,
                "pitch": 33,
                "velocity": 64,
                "duration": 0.14772727272727337,
                "tempo": 120.0
            },
            {
                "start_time": 46.81590909090909,
                "end_time": 46.970454545454544,
                "pitch": 33,
                "velocity": 64,
                "duration": 0.1545454545454561,
                "tempo": 120.0
            },
            {
                "start_time": 47.00454545454545,
                "end_time": 47.15909090909091,
                "pitch": 33,
                "velocity": 64,
                "duration": 0.1545454545454561,
                "tempo": 120.0
            },
            {
                "start_time": 47.175,
                "end_time": 47.32272727272727,
                "pitch": 36,
                "velocity": 64,
                "duration": 0.14772727272727337,
                "tempo": 120.0
            },
            {
                "start_time": 47.35454545454545,
                "end_time": 47.502272727272725,
                "pitch": 36,
                "velocity": 64,
                "duration": 0.14772727272727337,
                "tempo": 120.0
            },
            {
                "start_time": 47.53409090909091,
                "end_time": 47.68863636363636,
                "pitch": 36,
                "velocity": 64,
                "duration": 0.1545454545454561,
                "tempo": 120.0
            },
            {
                "start_time": 47.72272727272727,
                "end_time": 47.85909090909091,
                "pitch": 36,
                "velocity": 64,
                "duration": 0.13636363636364024,
                "tempo": 120.0
            },
            {
                "start_time": 47.893181818181816,
                "end_time": 48.03636363636363,
                "pitch": 36,
                "velocity": 64,
                "duration": 0.14318181818181586,
                "tempo": 120.0
            },
            {
                "start_time": 48.06818181818181,
                "end_time": 48.209090909090904,
                "pitch": 36,
                "velocity": 64,
                "duration": 0.14090909090909065,
                "tempo": 120.0
            },
            {
                "start_time": 48.24090909090909,
                "end_time": 48.4,
                "pitch": 36,
                "velocity": 64,
                "duration": 0.1590909090909065,
                "tempo": 120.0
            },
            {
                "start_time": 48.418181818181814,
                "end_time": 48.574999999999996,
                "pitch": 36,
                "velocity": 64,
                "duration": 0.1568181818181813,
                "tempo": 120.0
            },
            {
                "start_time": 48.611363636363635,
                "end_time": 48.75454545454545,
                "pitch": 38,
                "velocity": 64,
                "duration": 0.14318181818181586,
                "tempo": 120.0
            },
            {
                "start_time": 48.78636363636363,
                "end_time": 48.92727272727272,
                "pitch": 38,
                "velocity": 64,
                "duration": 0.14090909090909065,
                "tempo": 120.0
            },
            {
                "start_time": 48.959090909090904,
                "end_time": 49.11363636363636,
                "pitch": 38,
                "velocity": 64,
                "duration": 0.1545454545454561,
                "tempo": 120.0
            },
            {
                "start_time": 49.13181818181818,
                "end_time": 49.28409090909091,
                "pitch": 38,
                "velocity": 64,
                "duration": 0.15227272727272378,
                "tempo": 120.0
            },
            {
                "start_time": 49.320454545454545,
                "end_time": 49.465909090909086,
                "pitch": 38,
                "velocity": 64,
                "duration": 0.14545454545454106,
                "tempo": 120.0
            },
            {
                "start_time": 49.5,
                "end_time": 49.64545454545454,
                "pitch": 38,
                "velocity": 64,
                "duration": 0.14545454545454106,
                "tempo": 120.0
            },
            {
                "start_time": 49.67727272727272,
                "end_time": 49.83181818181818,
                "pitch": 38,
                "velocity": 64,
                "duration": 0.1545454545454561,
                "tempo": 120.0
            },
            {
                "start_time": 49.849999999999994,
                "end_time": 50.002272727272725,
                "pitch": 38,
                "velocity": 64,
                "duration": 0.1522727272727309,
                "tempo": 120.0
            },
            {
                "start_time": 50.038636363636364,
                "end_time": 50.184090909090905,
                "pitch": 40,
                "velocity": 64,
                "duration": 0.14545454545454106,
                "tempo": 120.0
            },
            {
                "start_time": 50.21818181818182,
                "end_time": 50.36363636363636,
                "pitch": 40,
                "velocity": 64,
                "duration": 0.14545454545454106,
                "tempo": 120.0
            },
            {
                "start_time": 50.39545454545454,
                "end_time": 50.55,
                "pitch": 40,
                "velocity": 64,
                "duration": 0.1545454545454561,
                "tempo": 120.0
            },
            {
                "start_time": 50.56818181818181,
                "end_time": 50.720454545454544,
                "pitch": 40,
                "velocity": 64,
                "duration": 0.1522727272727309,
                "tempo": 120.0
            },
            {
                "start_time": 50.75454545454545,
                "end_time": 50.902272727272724,
                "pitch": 40,
                "velocity": 64,
                "duration": 0.14772727272727337,
                "tempo": 120.0
            },
            {
                "start_time": 50.93636363636364,
                "end_time": 51.08181818181818,
                "pitch": 40,
                "velocity": 64,
                "duration": 0.14545454545454106,
                "tempo": 120.0
            },
            {
                "start_time": 51.11363636363636,
                "end_time": 51.26363636363636,
                "pitch": 40,
                "velocity": 64,
                "duration": 0.14999999999999858,
                "tempo": 120.0
            },
            {
                "start_time": 51.28181818181818,
                "end_time": 51.43181818181818,
                "pitch": 40,
                "velocity": 64,
                "duration": 0.14999999999999858,
                "tempo": 120.0
            },
            {
                "start_time": 51.46818181818182,
                "end_time": 51.615909090909085,
                "pitch": 33,
                "velocity": 64,
                "duration": 0.14772727272726627,
                "tempo": 120.0
            },
            {
                "start_time": 51.65,
                "end_time": 51.8,
                "pitch": 33,
                "velocity": 64,
                "duration": 0.14999999999999858,
                "tempo": 120.0
            },
            {
                "start_time": 51.834090909090904,
                "end_time": 51.98409090909091,
                "pitch": 33,
                "velocity": 64,
                "duration": 0.15000000000000568,
                "tempo": 120.0
            },
            {
                "start_time": 52.002272727272725,
                "end_time": 52.152272727272724,
                "pitch": 33,
                "velocity": 64,
                "duration": 0.14999999999999858,
                "tempo": 120.0
            },
            {
                "start_time": 52.18636363636363,
                "end_time": 52.33181818181818,
                "pitch": 33,
                "velocity": 64,
                "duration": 0.14545454545454817,
                "tempo": 120.0
            },
            {
                "start_time": 52.365909090909085,
                "end_time": 52.51136363636363,
                "pitch": 33,
                "velocity": 64,
                "duration": 0.14545454545454817,
                "tempo": 120.0
            },
            {
                "start_time": 52.54545454545454,
                "end_time": 52.68181818181818,
                "pitch": 33,
                "velocity": 64,
                "duration": 0.13636363636364024,
                "tempo": 120.0
            },
            {
                "start_time": 52.715909090909086,
                "end_time": 52.86818181818182,
                "pitch": 33,
                "velocity": 64,
                "duration": 0.1522727272727309,
                "tempo": 120.0
            },
            {
                "start_time": 52.90454545454545,
                "end_time": 53.05,
                "pitch": 36,
                "velocity": 64,
                "duration": 0.14545454545454817,
                "tempo": 120.0
            },
            {
                "start_time": 53.084090909090904,
                "end_time": 53.22954545454545,
                "pitch": 36,
                "velocity": 64,
                "duration": 0.14545454545454817,
                "tempo": 120.0
            },
            {
                "start_time": 53.24545454545454,
                "end_time": 53.39090909090909,
                "pitch": 36,
                "velocity": 64,
                "duration": 0.14545454545454817,
                "tempo": 120.0
            },
            {
                "start_time": 53.425,
                "end_time": 53.570454545454545,
                "pitch": 36,
                "velocity": 64,
                "duration": 0.14545454545454817,
                "tempo": 120.0
            },
            {
                "start_time": 53.60227272727273,
                "end_time": 53.75454545454545,
                "pitch": 36,
                "velocity": 64,
                "duration": 0.15227272727272378,
                "tempo": 120.0
            },
            {
                "start_time": 53.788636363636364,
                "end_time": 53.93863636363636,
                "pitch": 36,
                "velocity": 64,
                "duration": 0.14999999999999858,
                "tempo": 120.0
            },
            {
                "start_time": 53.95681818181818,
                "end_time": 54.10681818181818,
                "pitch": 36,
                "velocity": 64,
                "duration": 0.14999999999999858,
                "tempo": 120.0
            },
            {
                "start_time": 54.14090909090909,
                "end_time": 54.29090909090909,
                "pitch": 36,
                "velocity": 64,
                "duration": 0.14999999999999858,
                "tempo": 120.0
            },
            {
                "start_time": 54.32272727272727,
                "end_time": 54.474999999999994,
                "pitch": 38,
                "velocity": 64,
                "duration": 0.15227272727272378,
                "tempo": 120.0
            },
            {
                "start_time": 54.50909090909091,
                "end_time": 54.65909090909091,
                "pitch": 38,
                "velocity": 64,
                "duration": 0.14999999999999858,
                "tempo": 120.0
            },
            {
                "start_time": 54.67727272727272,
                "end_time": 54.82727272727273,
                "pitch": 38,
                "velocity": 64,
                "duration": 0.15000000000000568,
                "tempo": 120.0
            },
            {
                "start_time": 54.861363636363635,
                "end_time": 55.01136363636363,
                "pitch": 38,
                "velocity": 64,
                "duration": 0.14999999999999858,
                "tempo": 120.0
            },
            {
                "start_time": 55.043181818181814,
                "end_time": 55.195454545454545,
                "pitch": 38,
                "velocity": 64,
                "duration": 0.1522727272727309,
                "tempo": 120.0
            },
            {
                "start_time": 55.22954545454545,
                "end_time": 55.37954545454545,
                "pitch": 38,
                "velocity": 64,
                "duration": 0.14999999999999858,
                "tempo": 120.0
            },
            {
                "start_time": 55.39772727272727,
                "end_time": 55.543181818181814,
                "pitch": 38,
                "velocity": 64,
                "duration": 0.14545454545454106,
                "tempo": 120.0
            },
            {
                "start_time": 55.574999999999996,
                "end_time": 55.720454545454544,
                "pitch": 38,
                "velocity": 64,
                "duration": 0.14545454545454817,
                "tempo": 120.0
            },
            {
                "start_time": 55.75454545454545,
                "end_time": 55.90681818181818,
                "pitch": 40,
                "velocity": 64,
                "duration": 0.1522727272727309,
                "tempo": 120.0
            },
            {
                "start_time": 55.94318181818181,
                "end_time": 56.09772727272727,
                "pitch": 40,
                "velocity": 64,
                "duration": 0.1545454545454561,
                "tempo": 120.0
            },
            {
                "start_time": 56.11363636363636,
                "end_time": 56.26136363636363,
                "pitch": 40,
                "velocity": 64,
                "duration": 0.14772727272727337,
                "tempo": 120.0
            },
            {
                "start_time": 56.293181818181814,
                "end_time": 56.43863636363636,
                "pitch": 40,
                "velocity": 64,
                "duration": 0.14545454545454817,
                "tempo": 120.0
            },
            {
                "start_time": 56.47272727272727,
                "end_time": 56.62272727272727,
                "pitch": 40,
                "velocity": 64,
                "duration": 0.14999999999999858,
                "tempo": 120.0
            },
            {
                "start_time": 56.65681818181818,
                "end_time": 56.80681818181818,
                "pitch": 40,
                "velocity": 64,
                "duration": 0.14999999999999858,
                "tempo": 120.0
            },
            {
                "start_time": 56.824999999999996,
                "end_time": 56.974999999999994,
                "pitch": 40,
                "velocity": 64,
                "duration": 0.14999999999999858,
                "tempo": 120.0
            },
            {
                "start_time": 57.00909090909091,
                "end_time": 57.15909090909091,
                "pitch": 40,
                "velocity": 64,
                "duration": 0.14999999999999858,
                "tempo": 120.0
            },
            {
                "start_time": 57.195454545454545,
                "end_time": 57.345454545454544,
                "pitch": 33,
                "velocity": 64,
                "duration": 0.14999999999999858,
                "tempo": 120.0
            },
            {
                "start_time": 57.37954545454545,
                "end_time": 57.518181818181816,
                "pitch": 33,
                "velocity": 64,
                "duration": 0.13863636363636545,
                "tempo": 120.0
            },
            {
                "start_time": 57.55227272727272,
                "end_time": 57.699999999999996,
                "pitch": 33,
                "velocity": 64,
                "duration": 0.14772727272727337,
                "tempo": 120.0
            },
            {
                "start_time": 57.73181818181818,
                "end_time": 57.877272727272725,
                "pitch": 33,
                "velocity": 64,
                "duration": 0.14545454545454817,
                "tempo": 120.0
            },
            {
                "start_time": 57.91136363636363,
                "end_time": 58.06136363636363,
                "pitch": 33,
                "velocity": 64,
                "duration": 0.14999999999999858,
                "tempo": 120.0
            },
            {
                "start_time": 58.095454545454544,
                "end_time": 58.22954545454545,
                "pitch": 33,
                "velocity": 64,
                "duration": 0.13409090909090793,
                "tempo": 120.0
            },
            {
                "start_time": 58.26136363636363,
                "end_time": 58.40909090909091,
                "pitch": 33,
                "velocity": 64,
                "duration": 0.14772727272727337,
                "tempo": 120.0
            },
            {
                "start_time": 58.44090909090909,
                "end_time": 58.586363636363636,
                "pitch": 33,
                "velocity": 64,
                "duration": 0.14545454545454817,
                "tempo": 120.0
            },
            {
                "start_time": 58.62045454545454,
                "end_time": 58.775,
                "pitch": 31,
                "velocity": 64,
                "duration": 0.1545454545454561,
                "tempo": 120.0
            },
            {
                "start_time": 58.79090909090909,
                "end_time": 58.945454545454545,
                "pitch": 31,
                "velocity": 64,
                "duration": 0.1545454545454561,
                "tempo": 120.0
            },
            {
                "start_time": 58.97954545454545,
                "end_time": 59.127272727272725,
                "pitch": 31,
                "velocity": 64,
                "duration": 0.14772727272727337,
                "tempo": 120.0
            },
            {
                "start_time": 59.15909090909091,
                "end_time": 59.304545454545455,
                "pitch": 31,
                "velocity": 64,
                "duration": 0.14545454545454817,
                "tempo": 120.0
            },
            {
                "start_time": 59.33863636363636,
                "end_time": 59.48863636363636,
                "pitch": 31,
                "velocity": 64,
                "duration": 0.14999999999999858,
                "tempo": 120.0
            },
            {
                "start_time": 59.506818181818176,
                "end_time": 59.65681818181818,
                "pitch": 31,
                "velocity": 64,
                "duration": 0.15000000000000568,
                "tempo": 120.0
            },
            {
                "start_time": 59.69090909090909,
                "end_time": 59.840909090909086,
                "pitch": 31,
                "velocity": 64,
                "duration": 0.14999999999999858,
                "tempo": 120.0
            },
            {
                "start_time": 59.875,
                "end_time": 60.025,
                "pitch": 31,
                "velocity": 64,
                "duration": 0.14999999999999858,
                "tempo": 120.0
            },
            {
                "start_time": 60.059090909090905,
                "end_time": 60.209090909090904,
                "pitch": 29,
                "velocity": 64,
                "duration": 0.14999999999999858,
                "tempo": 120.0
            },
            {
                "start_time": 60.224999999999994,
                "end_time": 60.377272727272725,
                "pitch": 29,
                "velocity": 64,
                "duration": 0.1522727272727309,
                "tempo": 120.0
            },
            {
                "start_time": 60.41136363636363,
                "end_time": 60.55681818181818,
                "pitch": 29,
                "velocity": 64,
                "duration": 0.14545454545454817,
                "tempo": 120.0
            },
            {
                "start_time": 60.58863636363636,
                "end_time": 60.736363636363635,
                "pitch": 29,
                "velocity": 64,
                "duration": 0.14772727272727337,
                "tempo": 120.0
            },
            {
                "start_time": 60.768181818181816,
                "end_time": 60.92272727272727,
                "pitch": 29,
                "velocity": 64,
                "duration": 0.1545454545454561,
                "tempo": 120.0
            },
            {
                "start_time": 60.93863636363636,
                "end_time": 61.09318181818182,
                "pitch": 29,
                "velocity": 64,
                "duration": 0.1545454545454561,
                "tempo": 120.0
            },
            {
                "start_time": 61.12954545454545,
                "end_time": 61.275,
                "pitch": 29,
                "velocity": 64,
                "duration": 0.14545454545454817,
                "tempo": 120.0
            },
            {
                "start_time": 61.30681818181818,
                "end_time": 61.45454545454545,
                "pitch": 29,
                "velocity": 64,
                "duration": 0.14772727272727337,
                "tempo": 120.0
            },
            {
                "start_time": 61.486363636363635,
                "end_time": 61.63636363636363,
                "pitch": 28,
                "velocity": 64,
                "duration": 0.14999999999999858,
                "tempo": 120.0
            },
            {
                "start_time": 61.65454545454545,
                "end_time": 61.804545454545455,
                "pitch": 28,
                "velocity": 64,
                "duration": 0.15000000000000568,
                "tempo": 120.0
            },
            {
                "start_time": 61.83863636363636,
                "end_time": 61.98863636363636,
                "pitch": 28,
                "velocity": 64,
                "duration": 0.14999999999999858,
                "tempo": 120.0
            },
            {
                "start_time": 62.022727272727266,
                "end_time": 62.17272727272727,
                "pitch": 28,
                "velocity": 64,
                "duration": 0.15000000000000568,
                "tempo": 120.0
            },
            {
                "start_time": 62.20681818181818,
                "end_time": 62.35681818181818,
                "pitch": 28,
                "velocity": 64,
                "duration": 0.14999999999999858,
                "tempo": 120.0
            },
            {
                "start_time": 62.375,
                "end_time": 62.525,
                "pitch": 28,
                "velocity": 64,
                "duration": 0.14999999999999858,
                "tempo": 120.0
            },
            {
                "start_time": 62.559090909090905,
                "end_time": 62.709090909090904,
                "pitch": 28,
                "velocity": 64,
                "duration": 0.14999999999999858,
                "tempo": 120.0
            },
            {
                "start_time": 62.74318181818182,
                "end_time": 62.893181818181816,
                "pitch": 28,
                "velocity": 64,
                "duration": 0.14999999999999858,
                "tempo": 120.0
            },
            {
                "start_time": 62.929545454545455,
                "end_time": 63.01136363636363,
                "pitch": 33,
                "velocity": 64,
                "duration": 0.08181818181817846,
                "tempo": 120.0
            }
        ],
        "Violin": [
            {
                "start_time": 5.699999999999999,
                "end_time": 5.793181818181818,
                "pitch": 81,
                "velocity": 64,
                "duration": 0.0931818181818187,
                "tempo": 120.0
            },
            {
                "start_time": 5.875,
                "end_time": 5.954545454545454,
                "pitch": 72,
                "velocity": 64,
                "duration": 0.07954545454545414,
                "tempo": 120.0
            },
            {
                "start_time": 6.054545454545455,
                "end_time": 6.138636363636364,
                "pitch": 76,
                "velocity": 64,
                "duration": 0.084090909090909,
                "tempo": 120.0
            },
            {
                "start_time": 6.243181818181818,
                "end_time": 6.327272727272727,
                "pitch": 81,
                "velocity": 64,
                "duration": 0.084090909090909,
                "tempo": 120.0
            },
            {
                "start_time": 6.413636363636363,
                "end_time": 6.511363636363636,
                "pitch": 76,
                "velocity": 64,
                "duration": 0.09772727272727266,
                "tempo": 120.0
            },
            {
                "start_time": 6.593181818181818,
                "end_time": 6.672727272727273,
                "pitch": 72,
                "velocity": 64,
                "duration": 0.07954545454545503,
                "tempo": 120.0
            },
            {
                "start_time": 6.7727272727272725,
                "end_time": 6.8568181818181815,
                "pitch": 81,
                "velocity": 64,
                "duration": 0.084090909090909,
                "tempo": 120.0
            },
            {
                "start_time": 6.961363636363636,
                "end_time": 7.045454545454545,
                "pitch": 72,
                "velocity": 64,
                "duration": 0.084090909090909,
                "tempo": 120.0
            },
            {
                "start_time": 7.131818181818182,
                "end_time": 7.225,
                "pitch": 79,
                "velocity": 64,
                "duration": 0.09318181818181781,
                "tempo": 120.0
            },
            {
                "start_time": 7.304545454545454,
                "end_time": 7.384090909090909,
                "pitch": 71,
                "velocity": 64,
                "duration": 0.07954545454545503,
                "tempo": 120.0
            },
            {
                "start_time": 7.4795454545454545,
                "end_time": 7.5636363636363635,
                "pitch": 74,
                "velocity": 64,
                "duration": 0.084090909090909,
                "tempo": 120.0
            },
            {
                "start_time": 7.6499999999999995,
                "end_time": 7.752272727272727,
                "pitch": 79,
                "velocity": 64,
                "duration": 0.10227272727272751,
                "tempo": 120.0
            },
            {
                "start_time": 7.838636363636363,
                "end_time": 7.936363636363636,
                "pitch": 74,
                "velocity": 64,
                "duration": 0.09772727272727266,
                "tempo": 120.0
            },
            {
                "start_time": 8.020454545454545,
                "end_time": 8.1,
                "pitch": 71,
                "velocity": 64,
                "duration": 0.07954545454545503,
                "tempo": 120.0
            },
            {
                "start_time": 8.197727272727272,
                "end_time": 8.281818181818181,
                "pitch": 79,
                "velocity": 64,
                "duration": 0.084090909090909,
                "tempo": 120.0
            },
            {
                "start_time": 8.370454545454544,
                "end_time": 8.470454545454546,
                "pitch": 71,
                "velocity": 64,
                "duration": 0.10000000000000142,
                "tempo": 120.0
            },
            {
                "start_time": 8.559090909090909,
                "end_time": 8.654545454545454,
                "pitch": 79,
                "velocity": 64,
                "duration": 0.09545454545454568,
                "tempo": 120.0
            },
            {
                "start_time": 8.736363636363636,
                "end_time": 8.818181818181818,
                "pitch": 67,
                "velocity": 64,
                "duration": 0.08181818181818201,
                "tempo": 120.0
            },
            {
                "start_time": 8.915909090909091,
                "end_time": 9.0,
                "pitch": 72,
                "velocity": 64,
                "duration": 0.084090909090909,
                "tempo": 120.0
            },
            {
                "start_time": 9.086363636363636,
                "end_time": 9.188636363636363,
                "pitch": 79,
                "velocity": 64,
                "duration": 0.10227272727272663,
                "tempo": 120.0
            },
            {
                "start_time": 9.275,
                "end_time": 9.372727272727273,
                "pitch": 76,
                "velocity": 64,
                "duration": 0.09772727272727266,
                "tempo": 120.0
            },
            {
                "start_time": 9.454545454545453,
                "end_time": 9.536363636363635,
                "pitch": 67,
                "velocity": 64,
                "duration": 0.08181818181818201,
                "tempo": 120.0
            },
            {
                "start_time": 9.634090909090908,
                "end_time": 9.718181818181817,
                "pitch": 79,
                "velocity": 64,
                "duration": 0.084090909090909,
                "tempo": 120.0
            },
            {
                "start_time": 9.804545454545455,
                "end_time": 9.906818181818181,
                "pitch": 67,
                "velocity": 64,
                "duration": 0.10227272727272663,
                "tempo": 120.0
            },
            {
                "start_time": 9.993181818181817,
                "end_time": 10.075,
                "pitch": 79,
                "velocity": 64,
                "duration": 0.08181818181818201,
                "tempo": 120.0
            },
            {
                "start_time": 10.172727272727272,
                "end_time": 10.254545454545454,
                "pitch": 67,
                "velocity": 64,
                "duration": 0.08181818181818201,
                "tempo": 120.0
            },
            {
                "start_time": 10.352272727272727,
                "end_time": 10.434090909090909,
                "pitch": 72,
                "velocity": 64,
                "duration": 0.08181818181818201,
                "tempo": 120.0
            },
            {
                "start_time": 10.520454545454545,
                "end_time": 10.620454545454544,
                "pitch": 79,
                "velocity": 64,
                "duration": 0.09999999999999964,
                "tempo": 120.0
            },
            {
                "start_time": 10.704545454545453,
                "end_time": 10.784090909090908,
                "pitch": 76,
                "velocity": 64,
                "duration": 0.07954545454545503,
                "tempo": 120.0
            },
            {
                "start_time": 10.884090909090908,
                "end_time": 10.963636363636363,
                "pitch": 67,
                "velocity": 64,
                "duration": 0.07954545454545503,
                "tempo": 120.0
            },
            {
                "start_time": 11.061363636363636,
                "end_time": 11.147727272727272,
                "pitch": 79,
                "velocity": 64,
                "duration": 0.08636363636363598,
                "tempo": 120.0
            },
            {
                "start_time": 11.23409090909091,
                "end_time": 11.336363636363636,
                "pitch": 67,
                "velocity": 64,
                "duration": 0.10227272727272663,
                "tempo": 120.0
            },
            {
                "start_time": 11.422727272727272,
                "end_time": 11.502272727272727,
                "pitch": 77,
                "velocity": 64,
                "duration": 0.07954545454545503,
                "tempo": 120.0
            },
            {
                "start_time": 11.6,
                "end_time": 11.681818181818182,
                "pitch": 71,
                "velocity": 64,
                "duration": 0.08181818181818201,
                "tempo": 120.0
            },
            {
                "start_time": 11.779545454545454,
                "end_time": 11.863636363636363,
                "pitch": 74,
                "velocity": 64,
                "duration": 0.084090909090909,
                "tempo": 120.0
            },
            {
                "start_time": 11.95,
                "end_time": 12.054545454545455,
                "pitch": 81,
                "velocity": 64,
                "duration": 0.10454545454545539,
                "tempo": 120.0
            },
            {
                "start_time": 12.14090909090909,
                "end_time": 12.220454545454546,
                "pitch": 77,
                "velocity": 64,
                "duration": 0.07954545454545503,
                "tempo": 120.0
            },
            {
                "start_time": 12.318181818181818,
                "end_time": 12.399999999999999,
                "pitch": 71,
                "velocity": 64,
                "duration": 0.08181818181818024,
                "tempo": 120.0
            },
            {
                "start_time": 12.48181818181818,
                "end_time": 12.579545454545453,
                "pitch": 74,
                "velocity": 64,
                "duration": 0.09772727272727266,
                "tempo": 120.0
            },
            {
                "start_time": 12.661363636363635,
                "end_time": 12.756818181818181,
                "pitch": 71,
                "velocity": 64,
                "duration": 0.09545454545454568,
                "tempo": 120.0
            },
            {
                "start_time": 12.84090909090909,
                "end_time": 12.924999999999999,
                "pitch": 76,
                "velocity": 64,
                "duration": 0.084090909090909,
                "tempo": 120.0
            },
            {
                "start_time": 13.027272727272727,
                "end_time": 13.113636363636363,
                "pitch": 68,
                "velocity": 64,
                "duration": 0.08636363636363598,
                "tempo": 120.0
            },
            {
                "start_time": 13.2,
                "end_time": 13.297727272727272,
                "pitch": 71,
                "velocity": 64,
                "duration": 0.09772727272727266,
                "tempo": 120.0
            },
            {
                "start_time": 13.379545454545454,
                "end_time": 13.475,
                "pitch": 76,
                "velocity": 64,
                "duration": 0.09545454545454568,
                "tempo": 120.0
            },
            {
                "start_time": 13.559090909090909,
                "end_time": 13.643181818181818,
                "pitch": 71,
                "velocity": 64,
                "duration": 0.084090909090909,
                "tempo": 120.0
            },
            {
                "start_time": 13.745454545454544,
                "end_time": 13.831818181818182,
                "pitch": 68,
                "velocity": 64,
                "duration": 0.08636363636363775,
                "tempo": 120.0
            },
            {
                "start_time": 13.918181818181818,
                "end_time": 14.01590909090909,
                "pitch": 76,
                "velocity": 64,
                "duration": 0.09772727272727266,
                "tempo": 120.0
            },
            {
                "start_time": 14.097727272727273,
                "end_time": 14.193181818181818,
                "pitch": 68,
                "velocity": 64,
                "duration": 0.09545454545454568,
                "tempo": 120.0
            },
            {
                "start_time": 14.277272727272727,
                "end_time": 14.361363636363636,
                "pitch": 81,
                "velocity": 64,
                "duration": 0.084090909090909,
                "tempo": 120.0
            },
            {
                "start_time": 14.463636363636363,
                "end_time": 14.549999999999999,
                "pitch": 72,
                "velocity": 64,
                "duration": 0.08636363636363598,
                "tempo": 120.0
            },
            {
                "start_time": 14.636363636363635,
                "end_time": 14.734090909090908,
                "pitch": 76,
                "velocity": 64,
                "duration": 0.09772727272727266,
                "tempo": 120.0
            },
            {
                "start_time": 14.81590909090909,
                "end_time": 14.895454545454545,
                "pitch": 81,
                "velocity": 64,
                "duration": 0.07954545454545503,
                "tempo": 120.0
            },
            {
                "start_time": 14.993181818181817,
                "end_time": 15.077272727272726,
                "pitch": 76,
                "velocity": 64,
                "duration": 0.084090909090909,
                "tempo": 120.0
            },
            {
                "start_time": 15.177272727272726,
                "end_time": 15.261363636363635,
                "pitch": 72,
                "velocity": 64,
                "duration": 0.084090909090909,
                "tempo": 120.0
            },
            {
                "start_time": 15.345454545454544,
                "end_time": 15.443181818181817,
                "pitch": 81,
                "velocity": 64,
                "duration": 0.09772727272727266,
                "tempo": 120.0
            },
            {
                "start_time": 15.524999999999999,
                "end_time": 15.604545454545454,
                "pitch": 76,
                "velocity": 64,
                "duration": 0.07954545454545503,
                "tempo": 120.0
            },
            {
                "start_time": 15.702272727272726,
                "end_time": 15.788636363636362,
                "pitch": 81,
                "velocity": 64,
                "duration": 0.08636363636363598,
                "tempo": 120.0
            },
            {
                "start_time": 15.89090909090909,
                "end_time": 15.977272727272727,
                "pitch": 72,
                "velocity": 64,
                "duration": 0.08636363636363598,
                "tempo": 120.0
            },
            {
                "start_time": 16.063636363636363,
                "end_time": 16.161363636363635,
                "pitch": 76,
                "velocity": 64,
                "duration": 0.09772727272727266,
                "tempo": 120.0
            },
            {
                "start_time": 16.243181818181817,
                "end_time": 16.32272727272727,
                "pitch": 81,
                "velocity": 64,
                "duration": 0.07954545454545325,
                "tempo": 120.0
            },
            {
                "start_time": 16.422727272727272,
                "end_time": 16.504545454545454,
                "pitch": 76,
                "velocity": 64,
                "duration": 0.08181818181818201,
                "tempo": 120.0
            },
            {
                "start_time": 16.60681818181818,
                "end_time": 16.688636363636363,
                "pitch": 72,
                "velocity": 64,
                "duration": 0.08181818181818201,
                "tempo": 120.0
            },
            {
                "start_time": 16.772727272727273,
                "end_time": 16.87272727272727,
                "pitch": 81,
                "velocity": 64,
                "duration": 0.09999999999999787,
                "tempo": 120.0
            },
            {
                "start_time": 16.956818181818182,
                "end_time": 17.04090909090909,
                "pitch": 76,
                "velocity": 64,
                "duration": 0.08409090909090722,
                "tempo": 120.0
            },
            {
                "start_time": 17.143181818181816,
                "end_time": 17.224999999999998,
                "pitch": 81,
                "velocity": 64,
                "duration": 0.08181818181818201,
                "tempo": 120.0
            },
            {
                "start_time": 17.327272727272728,
                "end_time": 17.409090909090907,
                "pitch": 69,
                "velocity": 64,
                "duration": 0.08181818181817846,
                "tempo": 120.0
            },
            {
                "start_time": 17.493181818181817,
                "end_time": 17.59090909090909,
                "pitch": 74,
                "velocity": 64,
                "duration": 0.09772727272727266,
                "tempo": 120.0
            },
            {
                "start_time": 17.672727272727272,
                "end_time": 17.752272727272725,
                "pitch": 81,
                "velocity": 64,
                "duration": 0.07954545454545325,
                "tempo": 120.0
            },
            {
                "start_time": 17.852272727272727,
                "end_time": 17.936363636363634,
                "pitch": 78,
                "velocity": 64,
                "duration": 0.08409090909090722,
                "tempo": 120.0
            },
            {
                "start_time": 18.022727272727273,
                "end_time": 18.125,
                "pitch": 69,
                "velocity": 64,
                "duration": 0.10227272727272663,
                "tempo": 120.0
            },
            {
                "start_time": 18.21363636363636,
                "end_time": 18.30909090909091,
                "pitch": 81,
                "velocity": 64,
                "duration": 0.09545454545454746,
                "tempo": 120.0
            },
            {
                "start_time": 18.39090909090909,
                "end_time": 18.470454545454544,
                "pitch": 69,
                "velocity": 64,
                "duration": 0.07954545454545325,
                "tempo": 120.0
            },
            {
                "start_time": 18.570454545454545,
                "end_time": 18.654545454545453,
                "pitch": 78,
                "velocity": 64,
                "duration": 0.08409090909090722,
                "tempo": 120.0
            },
            {
                "start_time": 18.74090909090909,
                "end_time": 18.84318181818182,
                "pitch": 69,
                "velocity": 64,
                "duration": 0.10227272727273018,
                "tempo": 120.0
            },
            {
                "start_time": 18.93181818181818,
                "end_time": 19.027272727272727,
                "pitch": 74,
                "velocity": 64,
                "duration": 0.09545454545454746,
                "tempo": 120.0
            },
            {
                "start_time": 19.10909090909091,
                "end_time": 19.188636363636363,
                "pitch": 81,
                "velocity": 64,
                "duration": 0.07954545454545325,
                "tempo": 120.0
            },
            {
                "start_time": 19.288636363636364,
                "end_time": 19.37272727272727,
                "pitch": 78,
                "velocity": 64,
                "duration": 0.08409090909090722,
                "tempo": 120.0
            },
            {
                "start_time": 19.459090909090907,
                "end_time": 19.561363636363634,
                "pitch": 69,
                "velocity": 64,
                "duration": 0.10227272727272663,
                "tempo": 120.0
            },
            {
                "start_time": 19.647727272727273,
                "end_time": 19.745454545454546,
                "pitch": 74,
                "velocity": 64,
                "duration": 0.09772727272727266,
                "tempo": 120.0
            },
            {
                "start_time": 19.827272727272728,
                "end_time": 19.90681818181818,
                "pitch": 69,
                "velocity": 64,
                "duration": 0.07954545454545325,
                "tempo": 120.0
            },
            {
                "start_time": 20.00681818181818,
                "end_time": 20.08863636363636,
                "pitch": 79,
                "velocity": 64,
                "duration": 0.08181818181818201,
                "tempo": 120.0
            },
            {
                "start_time": 20.175,
                "end_time": 20.272727272727273,
                "pitch": 74,
                "velocity": 64,
                "duration": 0.09772727272727266,
                "tempo": 120.0
            },
            {
                "start_time": 20.35909090909091,
                "end_time": 20.44090909090909,
                "pitch": 71,
                "velocity": 64,
                "duration": 0.08181818181818201,
                "tempo": 120.0
            },
            {
                "start_time": 20.543181818181818,
                "end_time": 20.625,
                "pitch": 79,
                "velocity": 64,
                "duration": 0.08181818181818201,
                "tempo": 120.0
            },
            {
                "start_time": 20.727272727272727,
                "end_time": 20.80909090909091,
                "pitch": 74,
                "velocity": 64,
                "duration": 0.08181818181818201,
                "tempo": 120.0
            },
            {
                "start_time": 20.893181818181816,
                "end_time": 20.993181818181817,
                "pitch": 79,
                "velocity": 64,
                "duration": 0.10000000000000142,
                "tempo": 120.0
            },
            {
                "start_time": 21.079545454545453,
                "end_time": 21.159090909090907,
                "pitch": 74,
                "velocity": 64,
                "duration": 0.07954545454545325,
                "tempo": 120.0
            },
            {
                "start_time": 21.25681818181818,
                "end_time": 21.33863636363636,
                "pitch": 71,
                "velocity": 64,
                "duration": 0.08181818181818201,
                "tempo": 120.0
            },
            {
                "start_time": 21.436363636363634,
                "end_time": 21.520454545454545,
                "pitch": 80,
                "velocity": 64,
                "duration": 0.08409090909091077,
                "tempo": 120.0
            },
            {
                "start_time": 21.60681818181818,
                "end_time": 21.709090909090907,
                "pitch": 71,
                "velocity": 64,
                "duration": 0.10227272727272663,
                "tempo": 120.0
            },
            {
                "start_time": 21.795454545454543,
                "end_time": 21.877272727272725,
                "pitch": 76,
                "velocity": 64,
                "duration": 0.08181818181818201,
                "tempo": 120.0
            },
            {
                "start_time": 21.974999999999998,
                "end_time": 22.05681818181818,
                "pitch": 83,
                "velocity": 64,
                "duration": 0.08181818181818201,
                "tempo": 120.0
            },
            {
                "start_time": 22.154545454545453,
                "end_time": 22.236363636363635,
                "pitch": 80,
                "velocity": 64,
                "duration": 0.08181818181818201,
                "tempo": 120.0
            },
            {
                "start_time": 22.32272727272727,
                "end_time": 22.420454545454543,
                "pitch": 71,
                "velocity": 64,
                "duration": 0.09772727272727266,
                "tempo": 120.0
            },
            {
                "start_time": 22.50681818181818,
                "end_time": 22.58863636363636,
                "pitch": 76,
                "velocity": 64,
                "duration": 0.08181818181818201,
                "tempo": 120.0
            },
            {
                "start_time": 22.69090909090909,
                "end_time": 22.772727272727273,
                "pitch": 71,
                "velocity": 64,
                "duration": 0.08181818181818201,
                "tempo": 120.0
            },
            {
                "start_time": 22.85909090909091,
                "end_time": 22.954545454545453,
                "pitch": 81,
                "velocity": 64,
                "duration": 0.0954545454545439,
                "tempo": 120.0
            },
            {
                "start_time": 23.036363636363635,
                "end_time": 23.134090909090908,
                "pitch": 72,
                "velocity": 64,
                "duration": 0.09772727272727266,
                "tempo": 120.0
            },
            {
                "start_time": 23.21590909090909,
                "end_time": 23.297727272727272,
                "pitch": 76,
                "velocity": 64,
                "duration": 0.08181818181818201,
                "tempo": 120.0
            },
            {
                "start_time": 23.4,
                "end_time": 23.48181818181818,
                "pitch": 81,
                "velocity": 64,
                "duration": 0.08181818181818201,
                "tempo": 120.0
            },
            {
                "start_time": 23.568181818181817,
                "end_time": 23.663636363636364,
                "pitch": 76,
                "velocity": 64,
                "duration": 0.09545454545454746,
                "tempo": 120.0
            },
            {
                "start_time": 23.74772727272727,
                "end_time": 23.84318181818182,
                "pitch": 72,
                "velocity": 64,
                "duration": 0.09545454545454746,
                "tempo": 120.0
            },
            {
                "start_time": 23.924999999999997,
                "end_time": 24.009090909090908,
                "pitch": 81,
                "velocity": 64,
                "duration": 0.08409090909091077,
                "tempo": 120.0
            },
            {
                "start_time": 24.113636363636363,
                "end_time": 24.2,
                "pitch": 72,
                "velocity": 64,
                "duration": 0.08636363636363598,
                "tempo": 120.0
            },
            {
                "start_time": 24.286363636363635,
                "end_time": 24.38181818181818,
                "pitch": 79,
                "velocity": 64,
                "duration": 0.0954545454545439,
                "tempo": 120.0
            },
            {
                "start_time": 24.46363636363636,
                "end_time": 24.561363636363634,
                "pitch": 71,
                "velocity": 64,
                "duration": 0.09772727272727266,
                "tempo": 120.0
            },
            {
                "start_time": 24.643181818181816,
                "end_time": 24.727272727272727,
                "pitch": 74,
                "velocity": 64,
                "duration": 0.08409090909091077,
                "tempo": 120.0
            },
            {
                "start_time": 24.831818181818182,
                "end_time": 24.91590909090909,
                "pitch": 79,
                "velocity": 64,
                "duration": 0.08409090909090722,
                "tempo": 120.0
            },
            {
                "start_time": 25.004545454545454,
                "end_time": 25.099999999999998,
                "pitch": 74,
                "velocity": 64,
                "duration": 0.0954545454545439,
                "tempo": 120.0
            },
            {
                "start_time": 25.18409090909091,
                "end_time": 25.263636363636362,
                "pitch": 71,
                "velocity": 64,
                "duration": 0.07954545454545325,
                "tempo": 120.0
            },
            {
                "start_time": 25.361363636363635,
                "end_time": 25.445454545454545,
                "pitch": 79,
                "velocity": 64,
                "duration": 0.08409090909091077,
                "tempo": 120.0
            },
            {
                "start_time": 25.549999999999997,
                "end_time": 25.634090909090908,
                "pitch": 71,
                "velocity": 64,
                "duration": 0.08409090909091077,
                "tempo": 120.0
            },
            {
                "start_time": 25.722727272727273,
                "end_time": 25.818181818181817,
                "pitch": 79,
                "velocity": 64,
                "duration": 0.0954545454545439,
                "tempo": 120.0
            },
            {
                "start_time": 25.9,
                "end_time": 25.98181818181818,
                "pitch": 67,
                "velocity": 64,
                "duration": 0.08181818181818201,
                "tempo": 120.0
            },
            {
                "start_time": 26.079545454545453,
                "end_time": 26.163636363636364,
                "pitch": 72,
                "velocity": 64,
                "duration": 0.08409090909091077,
                "tempo": 120.0
            },
            {
                "start_time": 26.263636363636362,
                "end_time": 26.347727272727273,
                "pitch": 79,
                "velocity": 64,
                "duration": 0.08409090909091077,
                "tempo": 120.0
            },
            {
                "start_time": 26.43181818181818,
                "end_time": 26.527272727272727,
                "pitch": 76,
                "velocity": 64,
                "duration": 0.09545454545454746,
                "tempo": 120.0
            },
            {
                "start_time": 26.611363636363635,
                "end_time": 26.69090909090909,
                "pitch": 67,
                "velocity": 64,
                "duration": 0.0795454545454568,
                "tempo": 120.0
            },
            {
                "start_time": 26.788636363636364,
                "end_time": 26.875,
                "pitch": 79,
                "velocity": 64,
                "duration": 0.08636363636363598,
                "tempo": 120.0
            },
            {
                "start_time": 26.977272727272727,
                "end_time": 27.063636363636363,
                "pitch": 67,
                "velocity": 64,
                "duration": 0.08636363636363598,
                "tempo": 120.0
            },
            {
                "start_time": 27.15,
                "end_time": 27.245454545454542,
                "pitch": 79,
                "velocity": 64,
                "duration": 0.0954545454545439,
                "tempo": 120.0
            },
            {
                "start_time": 27.329545454545453,
                "end_time": 27.409090909090907,
                "pitch": 67,
                "velocity": 64,
                "duration": 0.07954545454545325,
                "tempo": 120.0
            },
            {
                "start_time": 27.50681818181818,
                "end_time": 27.593181818181815,
                "pitch": 72,
                "velocity": 64,
                "duration": 0.08636363636363598,
                "tempo": 120.0
            },
            {
                "start_time": 27.679545454545455,
                "end_time": 27.78181818181818,
                "pitch": 79,
                "velocity": 64,
                "duration": 0.10227272727272663,
                "tempo": 120.0
            },
            {
                "start_time": 27.868181818181817,
                "end_time": 27.96590909090909,
                "pitch": 76,
                "velocity": 64,
                "duration": 0.09772727272727266,
                "tempo": 120.0
            },
            {
                "start_time": 28.047727272727272,
                "end_time": 28.127272727272725,
                "pitch": 67,
                "velocity": 64,
                "duration": 0.07954545454545325,
                "tempo": 120.0
            },
            {
                "start_time": 28.227272727272727,
                "end_time": 28.311363636363634,
                "pitch": 79,
                "velocity": 64,
                "duration": 0.08409090909090722,
                "tempo": 120.0
            },
            {
                "start_time": 28.39772727272727,
                "end_time": 28.5,
                "pitch": 67,
                "velocity": 64,
                "duration": 0.10227272727273018,
                "tempo": 120.0
            },
            {
                "start_time": 28.586363636363636,
                "end_time": 28.68181818181818,
                "pitch": 77,
                "velocity": 64,
                "duration": 0.0954545454545439,
                "tempo": 120.0
            },
            {
                "start_time": 28.76590909090909,
                "end_time": 28.845454545454544,
                "pitch": 71,
                "velocity": 64,
                "duration": 0.07954545454545325,
                "tempo": 120.0
            },
            {
                "start_time": 28.943181818181817,
                "end_time": 29.027272727272727,
                "pitch": 74,
                "velocity": 64,
                "duration": 0.08409090909091077,
                "tempo": 120.0
            },
            {
                "start_time": 29.11590909090909,
                "end_time": 29.218181818181815,
                "pitch": 81,
                "velocity": 64,
                "duration": 0.10227272727272663,
                "tempo": 120.0
            },
            {
                "start_time": 29.304545454545455,
                "end_time": 29.402272727272727,
                "pitch": 77,
                "velocity": 64,
                "duration": 0.09772727272727266,
                "tempo": 120.0
            },
            {
                "start_time": 29.48409090909091,
                "end_time": 29.563636363636363,
                "pitch": 71,
                "velocity": 64,
                "duration": 0.07954545454545325,
                "tempo": 120.0
            },
            {
                "start_time": 29.66363636363636,
                "end_time": 29.745454545454542,
                "pitch": 74,
                "velocity": 64,
                "duration": 0.08181818181818201,
                "tempo": 120.0
            },
            {
                "start_time": 29.829545454545453,
                "end_time": 29.929545454545455,
                "pitch": 71,
                "velocity": 64,
                "duration": 0.10000000000000142,
                "tempo": 120.0
            },
            {
                "start_time": 30.013636363636362,
                "end_time": 30.113636363636363,
                "pitch": 76,
                "velocity": 64,
                "duration": 0.10000000000000142,
                "tempo": 120.0
            },
            {
                "start_time": 30.19772727272727,
                "end_time": 30.28181818181818,
                "pitch": 68,
                "velocity": 64,
                "duration": 0.08409090909091077,
                "tempo": 120.0
            },
            {
                "start_time": 30.38181818181818,
                "end_time": 30.46590909090909,
                "pitch": 71,
                "velocity": 64,
                "duration": 0.08409090909091077,
                "tempo": 120.0
            },
            {
                "start_time": 30.549999999999997,
                "end_time": 30.65,
                "pitch": 76,
                "velocity": 64,
                "duration": 0.10000000000000142,
                "tempo": 120.0
            },
            {
                "start_time": 30.73409090909091,
                "end_time": 30.813636363636363,
                "pitch": 71,
                "velocity": 64,
                "duration": 0.07954545454545325,
                "tempo": 120.0
            },
            {
                "start_time": 30.91363636363636,
                "end_time": 30.993181818181817,
                "pitch": 68,
                "velocity": 64,
                "duration": 0.0795454545454568,
                "tempo": 120.0
            },
            {
                "start_time": 31.093181818181815,
                "end_time": 31.177272727272726,
                "pitch": 76,
                "velocity": 64,
                "duration": 0.08409090909091077,
                "tempo": 120.0
            },
            {
                "start_time": 31.263636363636362,
                "end_time": 31.36590909090909,
                "pitch": 68,
                "velocity": 64,
                "duration": 0.10227272727272663,
                "tempo": 120.0
            },
            {
                "start_time": 31.454545454545453,
                "end_time": 31.53181818181818,
                "pitch": 81,
                "velocity": 64,
                "duration": 0.07727272727272805,
                "tempo": 120.0
            },
            {
                "start_time": 31.63181818181818,
                "end_time": 31.711363636363636,
                "pitch": 72,
                "velocity": 64,
                "duration": 0.0795454545454568,
                "tempo": 120.0
            },
            {
                "start_time": 31.80909090909091,
                "end_time": 31.895454545454545,
                "pitch": 76,
                "velocity": 64,
                "duration": 0.08636363636363598,
                "tempo": 120.0
            },
            {
                "start_time": 31.98181818181818,
                "end_time": 32.08409090909091,
                "pitch": 81,
                "velocity": 64,
                "duration": 0.10227272727273018,
                "tempo": 120.0
            },
            {
                "start_time": 32.17045454545455,
                "end_time": 32.24772727272727,
                "pitch": 76,
                "velocity": 64,
                "duration": 0.07727272727272094,
                "tempo": 120.0
            },
            {
                "start_time": 32.34318181818182,
                "end_time": 32.42272727272727,
                "pitch": 72,
                "velocity": 64,
                "duration": 0.07954545454545325,
                "tempo": 120.0
            },
            {
                "start_time": 32.518181818181816,
                "end_time": 32.60227272727273,
                "pitch": 81,
                "velocity": 64,
                "duration": 0.08409090909091077,
                "tempo": 120.0
            },
            {
                "start_time": 32.68863636363636,
                "end_time": 32.79090909090909,
                "pitch": 72,
                "velocity": 64,
                "duration": 0.10227272727272663,
                "tempo": 120.0
            },
            {
                "start_time": 32.877272727272725,
                "end_time": 32.95909090909091,
                "pitch": 81,
                "velocity": 64,
                "duration": 0.08181818181818556,
                "tempo": 120.0
            },
            {
                "start_time": 33.05681818181818,
                "end_time": 33.13636363636363,
                "pitch": 72,
                "velocity": 64,
                "duration": 0.07954545454545325,
                "tempo": 120.0
            },
            {
                "start_time": 33.21818181818182,
                "end_time": 33.31590909090909,
                "pitch": 76,
                "velocity": 64,
                "duration": 0.09772727272726911,
                "tempo": 120.0
            },
            {
                "start_time": 33.39772727272727,
                "end_time": 33.49545454545454,
                "pitch": 81,
                "velocity": 64,
                "duration": 0.09772727272726911,
                "tempo": 120.0
            },
            {
                "start_time": 33.57727272727273,
                "end_time": 33.66136363636363,
                "pitch": 84,
                "velocity": 64,
                "duration": 0.08409090909090366,
                "tempo": 120.0
            },
            {
                "start_time": 33.76590909090909,
                "end_time": 33.85227272727273,
                "pitch": 81,
                "velocity": 64,
                "duration": 0.08636363636363598,
                "tempo": 120.0
            },
            {
                "start_time": 33.93863636363636,
                "end_time": 34.03636363636363,
                "pitch": 76,
                "velocity": 64,
                "duration": 0.09772727272726911,
                "tempo": 120.0
            },
            {
                "start_time": 34.12272727272727,
                "end_time": 34.22272727272727,
                "pitch": 72,
                "velocity": 64,
                "duration": 0.10000000000000142,
                "tempo": 120.0
            },
            {
                "start_time": 45.75,
                "end_time": 45.81363636363636,
                "pitch": 81,
                "velocity": 64,
                "duration": 0.0636363636363626,
                "tempo": 120.0
            },
            {
                "start_time": 45.845454545454544,
                "end_time": 45.89545454545454,
                "pitch": 76,
                "velocity": 64,
                "duration": 0.04999999999999716,
                "tempo": 120.0
            },
            {
                "start_time": 45.92727272727272,
                "end_time": 45.99090909090909,
                "pitch": 72,
                "velocity": 64,
                "duration": 0.06363636363636971,
                "tempo": 120.0
            },
            {
                "start_time": 46.00909090909091,
                "end_time": 46.07272727272727,
                "pitch": 69,
                "velocity": 64,
                "duration": 0.0636363636363626,
                "tempo": 120.0
            },
            {
                "start_time": 46.10681818181818,
                "end_time": 46.15681818181818,
                "pitch": 81,
                "velocity": 64,
                "duration": 0.05000000000000426,
                "tempo": 120.0
            },
            {
                "start_time": 46.18863636363636,
                "end_time": 46.25681818181818,
                "pitch": 76,
                "velocity": 64,
                "duration": 0.06818181818182012,
                "tempo": 120.0
            },
            {
                "start_time": 46.29090909090909,
                "end_time": 46.340909090909086,
                "pitch": 72,
                "velocity": 64,
                "duration": 0.04999999999999716,
                "tempo": 120.0
            },
            {
                "start_time": 46.375,
                "end_time": 46.44090909090909,
                "pitch": 69,
                "velocity": 64,
                "duration": 0.06590909090908781,
                "tempo": 120.0
            },
            {
                "start_time": 46.459090909090904,
                "end_time": 46.52272727272727,
                "pitch": 81,
                "velocity": 64,
                "duration": 0.06363636363636971,
                "tempo": 120.0
            },
            {
                "start_time": 46.554545454545455,
                "end_time": 46.60454545454545,
                "pitch": 76,
                "velocity": 64,
                "duration": 0.04999999999999716,
                "tempo": 120.0
            },
            {
                "start_time": 46.63863636363636,
                "end_time": 46.70227272727273,
                "pitch": 72,
                "velocity": 64,
                "duration": 0.06363636363636971,
                "tempo": 120.0
            },
            {
                "start_time": 46.71818181818182,
                "end_time": 46.78409090909091,
                "pitch": 69,
                "velocity": 64,
                "duration": 0.06590909090908781,
                "tempo": 120.0
            },
            {
                "start_time": 46.81590909090909,
                "end_time": 46.86590909090909,
                "pitch": 81,
                "velocity": 64,
                "duration": 0.05000000000000426,
                "tempo": 120.0
            },
            {
                "start_time": 46.9,
                "end_time": 46.970454545454544,
                "pitch": 76,
                "velocity": 64,
                "duration": 0.07045454545454533,
                "tempo": 120.0
            },
            {
                "start_time": 47.00454545454545,
                "end_time": 47.054545454545455,
                "pitch": 72,
                "velocity": 64,
                "duration": 0.05000000000000426,
                "tempo": 120.0
            },
            {
                "start_time": 47.090909090909086,
                "end_time": 47.15909090909091,
                "pitch": 69,
                "velocity": 64,
                "duration": 0.06818181818182012,
                "tempo": 120.0
            },
            {
                "start_time": 47.17727272727272,
                "end_time": 47.24090909090909,
                "pitch": 79,
                "velocity": 64,
                "duration": 0.06363636363636971,
                "tempo": 120.0
            },
            {
                "start_time": 47.27272727272727,
                "end_time": 47.32272727272727,
                "pitch": 76,
                "velocity": 64,
                "duration": 0.04999999999999716,
                "tempo": 120.0
            },
            {
                "start_time": 47.35681818181818,
                "end_time": 47.42045454545454,
                "pitch": 72,
                "velocity": 64,
                "duration": 0.0636363636363626,
                "tempo": 120.0
            },
            {
                "start_time": 47.43636363636364,
                "end_time": 47.502272727272725,
                "pitch": 67,
                "velocity": 64,
                "duration": 0.06590909090908781,
                "tempo": 120.0
            },
            {
                "start_time": 47.53409090909091,
                "end_time": 47.584090909090904,
                "pitch": 79,
                "velocity": 64,
                "duration": 0.04999999999999716,
                "tempo": 120.0
            },
            {
                "start_time": 47.61818181818182,
                "end_time": 47.68863636363636,
                "pitch": 76,
                "velocity": 64,
                "duration": 0.07045454545454533,
                "tempo": 120.0
            },
            {
                "start_time": 47.72272727272727,
                "end_time": 47.77272727272727,
                "pitch": 72,
                "velocity": 64,
                "duration": 0.05000000000000426,
                "tempo": 120.0
            },
            {
                "start_time": 47.80681818181818,
                "end_time": 47.85909090909091,
                "pitch": 67,
                "velocity": 64,
                "duration": 0.05227272727272947,
                "tempo": 120.0
            },
            {
                "start_time": 47.893181818181816,
                "end_time": 47.95681818181818,
                "pitch": 79,
                "velocity": 64,
                "duration": 0.0636363636363626,
                "tempo": 120.0
            },
            {
                "start_time": 47.98863636363636,
                "end_time": 48.03636363636363,
                "pitch": 76,
                "velocity": 64,
                "duration": 0.04772727272727195,
                "tempo": 120.0
            },
            {
                "start_time": 48.06818181818181,
                "end_time": 48.12954545454545,
                "pitch": 72,
                "velocity": 64,
                "duration": 0.0613636363636374,
                "tempo": 120.0
            },
            {
                "start_time": 48.14545454545454,
                "end_time": 48.209090909090904,
                "pitch": 67,
                "velocity": 64,
                "duration": 0.0636363636363626,
                "tempo": 120.0
            },
            {
                "start_time": 48.24318181818182,
                "end_time": 48.293181818181814,
                "pitch": 79,
                "velocity": 64,
                "duration": 0.04999999999999716,
                "tempo": 120.0
            },
            {
                "start_time": 48.32954545454545,
                "end_time": 48.4,
                "pitch": 76,
                "velocity": 64,
                "duration": 0.07045454545454533,
                "tempo": 120.0
            },
            {
                "start_time": 48.418181818181814,
                "end_time": 48.48863636363636,
                "pitch": 72,
                "velocity": 64,
                "duration": 0.07045454545454533,
                "tempo": 120.0
            },
            {
                "start_time": 48.52272727272727,
                "end_time": 48.57727272727273,
                "pitch": 67,
                "velocity": 64,
                "duration": 0.054545454545454675,
                "tempo": 120.0
            },
            {
                "start_time": 48.611363636363635,
                "end_time": 48.675,
                "pitch": 78,
                "velocity": 64,
                "duration": 0.0636363636363626,
                "tempo": 120.0
            },
            {
                "start_time": 48.70681818181818,
                "end_time": 48.75454545454545,
                "pitch": 74,
                "velocity": 64,
                "duration": 0.04772727272727195,
                "tempo": 120.0
            },
            {
                "start_time": 48.78636363636363,
                "end_time": 48.84772727272727,
                "pitch": 69,
                "velocity": 64,
                "duration": 0.0613636363636374,
                "tempo": 120.0
            },
            {
                "start_time": 48.86363636363636,
                "end_time": 48.92727272727272,
                "pitch": 66,
                "velocity": 64,
                "duration": 0.0636363636363626,
                "tempo": 120.0
            },
            {
                "start_time": 48.961363636363636,
                "end_time": 49.01136363636363,
                "pitch": 78,
                "velocity": 64,
                "duration": 0.04999999999999716,
                "tempo": 120.0
            },
            {
                "start_time": 49.04545454545454,
                "end_time": 49.11363636363636,
                "pitch": 74,
                "velocity": 64,
                "duration": 0.06818181818182012,
                "tempo": 120.0
            },
            {
                "start_time": 49.13181818181818,
                "end_time": 49.199999999999996,
                "pitch": 69,
                "velocity": 64,
                "duration": 0.06818181818181301,
                "tempo": 120.0
            },
            {
                "start_time": 49.23409090909091,
                "end_time": 49.28636363636363,
                "pitch": 66,
                "velocity": 64,
                "duration": 0.052272727272722364,
                "tempo": 120.0
            },
            {
                "start_time": 49.320454545454545,
                "end_time": 49.38409090909091,
                "pitch": 78,
                "velocity": 64,
                "duration": 0.0636363636363626,
                "tempo": 120.0
            },
            {
                "start_time": 49.418181818181814,
                "end_time": 49.465909090909086,
                "pitch": 74,
                "velocity": 64,
                "duration": 0.04772727272727195,
                "tempo": 120.0
            },
            {
                "start_time": 49.5,
                "end_time": 49.56363636363636,
                "pitch": 69,
                "velocity": 64,
                "duration": 0.0636363636363626,
                "tempo": 120.0
            },
            {
                "start_time": 49.57954545454545,
                "end_time": 49.64545454545454,
                "pitch": 66,
                "velocity": 64,
                "duration": 0.06590909090908781,
                "tempo": 120.0
            },
            {
                "start_time": 49.679545454545455,
                "end_time": 49.72954545454545,
                "pitch": 78,
                "velocity": 64,
                "duration": 0.04999999999999716,
                "tempo": 120.0
            },
            {
                "start_time": 49.76363636363636,
                "end_time": 49.83181818181818,
                "pitch": 74,
                "velocity": 64,
                "duration": 0.06818181818182012,
                "tempo": 120.0
            },
            {
                "start_time": 49.849999999999994,
                "end_time": 49.918181818181814,
                "pitch": 69,
                "velocity": 64,
                "duration": 0.06818181818182012,
                "tempo": 120.0
            },
            {
                "start_time": 49.95227272727273,
                "end_time": 50.00454545454545,
                "pitch": 66,
                "velocity": 64,
                "duration": 0.052272727272722364,
                "tempo": 120.0
            },
            {
                "start_time": 50.038636363636364,
                "end_time": 50.10227272727273,
                "pitch": 80,
                "velocity": 64,
                "duration": 0.0636363636363626,
                "tempo": 120.0
            },
            {
                "start_time": 50.13636363636363,
                "end_time": 50.184090909090905,
                "pitch": 76,
                "velocity": 64,
                "duration": 0.04772727272727195,
                "tempo": 120.0
            },
            {
                "start_time": 50.21818181818182,
                "end_time": 50.26590909090909,
                "pitch": 71,
                "velocity": 64,
                "duration": 0.04772727272727195,
                "tempo": 120.0
            },
            {
                "start_time": 50.29772727272727,
                "end_time": 50.36363636363636,
                "pitch": 68,
                "velocity": 64,
                "duration": 0.06590909090908781,
                "tempo": 120.0
            },
            {
                "start_time": 50.39772727272727,
                "end_time": 50.445454545454545,
                "pitch": 80,
                "velocity": 64,
                "duration": 0.04772727272727195,
                "tempo": 120.0
            },
            {
                "start_time": 50.48181818181818,
                "end_time": 50.55,
                "pitch": 76,
                "velocity": 64,
                "duration": 0.06818181818182012,
                "tempo": 120.0
            },
            {
                "start_time": 50.56818181818181,
                "end_time": 50.63636363636363,
                "pitch": 71,
                "velocity": 64,
                "duration": 0.06818181818182012,
                "tempo": 120.0
            },
            {
                "start_time": 50.67045454545454,
                "end_time": 50.720454545454544,
                "pitch": 68,
                "velocity": 64,
                "duration": 0.05000000000000426,
                "tempo": 120.0
            },
            {
                "start_time": 50.75681818181818,
                "end_time": 50.820454545454545,
                "pitch": 80,
                "velocity": 64,
                "duration": 0.0636363636363626,
                "tempo": 120.0
            },
            {
                "start_time": 50.836363636363636,
                "end_time": 50.902272727272724,
                "pitch": 76,
                "velocity": 64,
                "duration": 0.06590909090908781,
                "tempo": 120.0
            },
            {
                "start_time": 50.93636363636364,
                "end_time": 50.98409090909091,
                "pitch": 71,
                "velocity": 64,
                "duration": 0.04772727272727195,
                "tempo": 120.0
            },
            {
                "start_time": 51.01590909090909,
                "end_time": 51.08181818181818,
                "pitch": 68,
                "velocity": 64,
                "duration": 0.06590909090908781,
                "tempo": 120.0
            },
            {
                "start_time": 51.115909090909085,
                "end_time": 51.163636363636364,
                "pitch": 80,
                "velocity": 64,
                "duration": 0.04772727272727906,
                "tempo": 120.0
            },
            {
                "start_time": 51.19772727272727,
                "end_time": 51.26590909090909,
                "pitch": 76,
                "velocity": 64,
                "duration": 0.06818181818182012,
                "tempo": 120.0
            },
            {
                "start_time": 51.28181818181818,
                "end_time": 51.34772727272727,
                "pitch": 71,
                "velocity": 64,
                "duration": 0.06590909090908781,
                "tempo": 120.0
            },
            {
                "start_time": 51.38181818181818,
                "end_time": 51.43181818181818,
                "pitch": 68,
                "velocity": 64,
                "duration": 0.04999999999999716,
                "tempo": 120.0
            },
            {
                "start_time": 51.46818181818182,
                "end_time": 51.53181818181818,
                "pitch": 81,
                "velocity": 64,
                "duration": 0.0636363636363626,
                "tempo": 120.0
            },
            {
                "start_time": 51.55,
                "end_time": 51.615909090909085,
                "pitch": 76,
                "velocity": 64,
                "duration": 0.06590909090908781,
                "tempo": 120.0
            },
            {
                "start_time": 51.652272727272724,
                "end_time": 51.699999999999996,
                "pitch": 72,
                "velocity": 64,
                "duration": 0.04772727272727195,
                "tempo": 120.0
            },
            {
                "start_time": 51.73409090909091,
                "end_time": 51.8,
                "pitch": 69,
                "velocity": 64,
                "duration": 0.06590909090908781,
                "tempo": 120.0
            },
            {
                "start_time": 51.836363636363636,
                "end_time": 51.88409090909091,
                "pitch": 81,
                "velocity": 64,
                "duration": 0.04772727272727195,
                "tempo": 120.0
            },
            {
                "start_time": 51.918181818181814,
                "end_time": 51.98409090909091,
                "pitch": 76,
                "velocity": 64,
                "duration": 0.06590909090909491,
                "tempo": 120.0
            },
            {
                "start_time": 52.002272727272725,
                "end_time": 52.06818181818181,
                "pitch": 72,
                "velocity": 64,
                "duration": 0.06590909090908781,
                "tempo": 120.0
            },
            {
                "start_time": 52.10227272727273,
                "end_time": 52.152272727272724,
                "pitch": 69,
                "velocity": 64,
                "duration": 0.04999999999999716,
                "tempo": 120.0
            },
            {
                "start_time": 52.18636363636363,
                "end_time": 52.25,
                "pitch": 81,
                "velocity": 64,
                "duration": 0.06363636363636971,
                "tempo": 120.0
            },
            {
                "start_time": 52.268181818181816,
                "end_time": 52.33181818181818,
                "pitch": 76,
                "velocity": 64,
                "duration": 0.0636363636363626,
                "tempo": 120.0
            },
            {
                "start_time": 52.365909090909085,
                "end_time": 52.413636363636364,
                "pitch": 72,
                "velocity": 64,
                "duration": 0.04772727272727906,
                "tempo": 120.0
            },
            {
                "start_time": 52.445454545454545,
                "end_time": 52.51136363636363,
                "pitch": 69,
                "velocity": 64,
                "duration": 0.06590909090908781,
                "tempo": 120.0
            },
            {
                "start_time": 52.54545454545454,
                "end_time": 52.595454545454544,
                "pitch": 81,
                "velocity": 64,
                "duration": 0.05000000000000426,
                "tempo": 120.0
            },
            {
                "start_time": 52.62954545454545,
                "end_time": 52.68181818181818,
                "pitch": 76,
                "velocity": 64,
                "duration": 0.05227272727272947,
                "tempo": 120.0
            },
            {
                "start_time": 52.715909090909086,
                "end_time": 52.78409090909091,
                "pitch": 72,
                "velocity": 64,
                "duration": 0.06818181818182012,
                "tempo": 120.0
            },
            {
                "start_time": 52.81818181818181,
                "end_time": 52.87045454545454,
                "pitch": 69,
                "velocity": 64,
                "duration": 0.05227272727272947,
                "tempo": 120.0
            },
            {
                "start_time": 52.90454545454545,
                "end_time": 52.96818181818182,
                "pitch": 79,
                "velocity": 64,
                "duration": 0.06363636363636971,
                "tempo": 120.0
            },
            {
                "start_time": 52.986363636363635,
                "end_time": 53.05,
                "pitch": 76,
                "velocity": 64,
                "duration": 0.0636363636363626,
                "tempo": 120.0
            },
            {
                "start_time": 53.084090909090904,
                "end_time": 53.13181818181818,
                "pitch": 72,
                "velocity": 64,
                "duration": 0.04772727272727906,
                "tempo": 120.0
            },
            {
                "start_time": 53.163636363636364,
                "end_time": 53.22954545454545,
                "pitch": 67,
                "velocity": 64,
                "duration": 0.06590909090908781,
                "tempo": 120.0
            },
            {
                "start_time": 53.24772727272727,
                "end_time": 53.31136363636363,
                "pitch": 79,
                "velocity": 64,
                "duration": 0.0636363636363626,
                "tempo": 120.0
            },
            {
                "start_time": 53.34318181818182,
                "end_time": 53.393181818181816,
                "pitch": 76,
                "velocity": 64,
                "duration": 0.04999999999999716,
                "tempo": 120.0
            },
            {
                "start_time": 53.425,
                "end_time": 53.48863636363636,
                "pitch": 72,
                "velocity": 64,
                "duration": 0.0636363636363626,
                "tempo": 120.0
            },
            {
                "start_time": 53.52272727272727,
                "end_time": 53.570454545454545,
                "pitch": 67,
                "velocity": 64,
                "duration": 0.04772727272727195,
                "tempo": 120.0
            },
            {
                "start_time": 53.60454545454545,
                "end_time": 53.67045454545454,
                "pitch": 79,
                "velocity": 64,
                "duration": 0.06590909090908781,
                "tempo": 120.0
            },
            {
                "start_time": 53.68636363636363,
                "end_time": 53.75454545454545,
                "pitch": 76,
                "velocity": 64,
                "duration": 0.06818181818182012,
                "tempo": 120.0
            },
            {
                "start_time": 53.788636363636364,
                "end_time": 53.83863636363636,
                "pitch": 72,
                "velocity": 64,
                "duration": 0.04999999999999716,
                "tempo": 120.0
            },
            {
                "start_time": 53.87045454545454,
                "end_time": 53.93863636363636,
                "pitch": 67,
                "velocity": 64,
                "duration": 0.06818181818182012,
                "tempo": 120.0
            },
            {
                "start_time": 53.95681818181818,
                "end_time": 54.02272727272727,
                "pitch": 79,
                "velocity": 64,
                "duration": 0.06590909090909491,
                "tempo": 120.0
            },
            {
                "start_time": 54.05681818181818,
                "end_time": 54.10681818181818,
                "pitch": 76,
                "velocity": 64,
                "duration": 0.04999999999999716,
                "tempo": 120.0
            },
            {
                "start_time": 54.14090909090909,
                "end_time": 54.20681818181818,
                "pitch": 72,
                "velocity": 64,
                "duration": 0.06590909090908781,
                "tempo": 120.0
            },
            {
                "start_time": 54.240909090909085,
                "end_time": 54.29090909090909,
                "pitch": 67,
                "velocity": 64,
                "duration": 0.05000000000000426,
                "tempo": 120.0
            },
            {
                "start_time": 54.324999999999996,
                "end_time": 54.39090909090909,
                "pitch": 78,
                "velocity": 64,
                "duration": 0.06590909090909491,
                "tempo": 120.0
            },
            {
                "start_time": 54.40681818181818,
                "end_time": 54.474999999999994,
                "pitch": 74,
                "velocity": 64,
                "duration": 0.06818181818181301,
                "tempo": 120.0
            },
            {
                "start_time": 54.50909090909091,
                "end_time": 54.559090909090905,
                "pitch": 69,
                "velocity": 64,
                "duration": 0.04999999999999716,
                "tempo": 120.0
            },
            {
                "start_time": 54.590909090909086,
                "end_time": 54.65909090909091,
                "pitch": 66,
                "velocity": 64,
                "duration": 0.06818181818182012,
                "tempo": 120.0
            },
            {
                "start_time": 54.67727272727272,
                "end_time": 54.74318181818182,
                "pitch": 78,
                "velocity": 64,
                "duration": 0.06590909090909491,
                "tempo": 120.0
            },
            {
                "start_time": 54.775,
                "end_time": 54.82727272727273,
                "pitch": 74,
                "velocity": 64,
                "duration": 0.05227272727272947,
                "tempo": 120.0
            },
            {
                "start_time": 54.861363636363635,
                "end_time": 54.92727272727272,
                "pitch": 69,
                "velocity": 64,
                "duration": 0.06590909090908781,
                "tempo": 120.0
            },
            {
                "start_time": 54.961363636363636,
                "end_time": 55.01136363636363,
                "pitch": 66,
                "velocity": 64,
                "duration": 0.04999999999999716,
                "tempo": 120.0
            },
            {
                "start_time": 55.04545454545454,
                "end_time": 55.09318181818182,
                "pitch": 78,
                "velocity": 64,
                "duration": 0.04772727272727906,
                "tempo": 120.0
            },
            {
                "start_time": 55.127272727272725,
                "end_time": 55.195454545454545,
                "pitch": 74,
                "velocity": 64,
                "duration": 0.06818181818182012,
                "tempo": 120.0
            },
            {
                "start_time": 55.22954545454545,
                "end_time": 55.277272727272724,
                "pitch": 69,
                "velocity": 64,
                "duration": 0.04772727272727195,
                "tempo": 120.0
            },
            {
                "start_time": 55.31136363636363,
                "end_time": 55.37954545454545,
                "pitch": 66,
                "velocity": 64,
                "duration": 0.06818181818182012,
                "tempo": 120.0
            },
            {
                "start_time": 55.39772727272727,
                "end_time": 55.461363636363636,
                "pitch": 78,
                "velocity": 64,
                "duration": 0.0636363636363626,
                "tempo": 120.0
            },
            {
                "start_time": 55.49318181818182,
                "end_time": 55.543181818181814,
                "pitch": 74,
                "velocity": 64,
                "duration": 0.04999999999999716,
                "tempo": 120.0
            },
            {
                "start_time": 55.574999999999996,
                "end_time": 55.63863636363636,
                "pitch": 69,
                "velocity": 64,
                "duration": 0.0636363636363626,
                "tempo": 120.0
            },
            {
                "start_time": 55.67272727272727,
                "end_time": 55.720454545454544,
                "pitch": 66,
                "velocity": 64,
                "duration": 0.04772727272727195,
                "tempo": 120.0
            },
            {
                "start_time": 55.75454545454545,
                "end_time": 55.804545454545455,
                "pitch": 80,
                "velocity": 64,
                "duration": 0.05000000000000426,
                "tempo": 120.0
            },
            {
                "start_time": 55.83863636363636,
                "end_time": 55.90909090909091,
                "pitch": 76,
                "velocity": 64,
                "duration": 0.07045454545454533,
                "tempo": 120.0
            },
            {
                "start_time": 55.94318181818181,
                "end_time": 55.99318181818182,
                "pitch": 71,
                "velocity": 64,
                "duration": 0.05000000000000426,
                "tempo": 120.0
            },
            {
                "start_time": 56.027272727272724,
                "end_time": 56.09772727272727,
                "pitch": 68,
                "velocity": 64,
                "duration": 0.07045454545454533,
                "tempo": 120.0
            },
            {
                "start_time": 56.115909090909085,
                "end_time": 56.179545454545455,
                "pitch": 80,
                "velocity": 64,
                "duration": 0.06363636363636971,
                "tempo": 120.0
            },
            {
                "start_time": 56.211363636363636,
                "end_time": 56.26136363636363,
                "pitch": 76,
                "velocity": 64,
                "duration": 0.04999999999999716,
                "tempo": 120.0
            },
            {
                "start_time": 56.293181818181814,
                "end_time": 56.35681818181818,
                "pitch": 71,
                "velocity": 64,
                "duration": 0.0636363636363626,
                "tempo": 120.0
            },
            {
                "start_time": 56.375,
                "end_time": 56.43863636363636,
                "pitch": 68,
                "velocity": 64,
                "duration": 0.0636363636363626,
                "tempo": 120.0
            },
            {
                "start_time": 56.47272727272727,
                "end_time": 56.52272727272727,
                "pitch": 80,
                "velocity": 64,
                "duration": 0.05000000000000426,
                "tempo": 120.0
            },
            {
                "start_time": 56.554545454545455,
                "end_time": 56.62272727272727,
                "pitch": 76,
                "velocity": 64,
                "duration": 0.06818181818181301,
                "tempo": 120.0
            },
            {
                "start_time": 56.65681818181818,
                "end_time": 56.70681818181818,
                "pitch": 71,
                "velocity": 64,
                "duration": 0.04999999999999716,
                "tempo": 120.0
            },
            {
                "start_time": 56.740909090909085,
                "end_time": 56.80681818181818,
                "pitch": 68,
                "velocity": 64,
                "duration": 0.06590909090909491,
                "tempo": 120.0
            },
            {
                "start_time": 56.824999999999996,
                "end_time": 56.89090909090909,
                "pitch": 80,
                "velocity": 64,
                "duration": 0.06590909090909491,
                "tempo": 120.0
            },
            {
                "start_time": 56.925,
                "end_time": 56.974999999999994,
                "pitch": 76,
                "velocity": 64,
                "duration": 0.04999999999999716,
                "tempo": 120.0
            },
            {
                "start_time": 57.00909090909091,
                "end_time": 57.074999999999996,
                "pitch": 71,
                "velocity": 64,
                "duration": 0.06590909090908781,
                "tempo": 120.0
            },
            {
                "start_time": 57.090909090909086,
                "end_time": 57.15909090909091,
                "pitch": 68,
                "velocity": 64,
                "duration": 0.06818181818182012,
                "tempo": 120.0
            },
            {
                "start_time": 62.93181818181818,
                "end_time": 63.01136363636363,
                "pitch": 81,
                "velocity": 64,
                "duration": 0.07954545454545325,
                "tempo": 120.0
            }
        ],
        "Flute": [
            {
                "start_time": 34.309090909090905,
                "end_time": 34.45681818181818,
                "pitch": 77,
                "velocity": 40,
                "duration": 0.14772727272727337,
                "tempo": 120.0
            },
            {
                "start_time": 34.49090909090909,
                "end_time": 34.64090909090909,
                "pitch": 79,
                "velocity": 40,
                "duration": 0.14999999999999858,
                "tempo": 120.0
            },
            {
                "start_time": 34.65909090909091,
                "end_time": 34.804545454545455,
                "pitch": 81,
                "velocity": 40,
                "duration": 0.14545454545454817,
                "tempo": 120.0
            },
            {
                "start_time": 34.83863636363636,
                "end_time": 34.98181818181818,
                "pitch": 83,
                "velocity": 40,
                "duration": 0.14318181818181586,
                "tempo": 120.0
            },
            {
                "start_time": 35.01590909090909,
                "end_time": 35.17045454545455,
                "pitch": 77,
                "velocity": 32,
                "duration": 0.1545454545454561,
                "tempo": 120.0
            },
            {
                "start_time": 35.20454545454545,
                "end_time": 35.35909090909091,
                "pitch": 79,
                "velocity": 32,
                "duration": 0.1545454545454561,
                "tempo": 120.0
            },
            {
                "start_time": 35.377272727272725,
                "end_time": 35.52272727272727,
                "pitch": 81,
                "velocity": 32,
                "duration": 0.14545454545454817,
                "tempo": 120.0
            },
            {
                "start_time": 35.554545454545455,
                "end_time": 35.70227272727273,
                "pitch": 83,
                "velocity": 32,
                "duration": 0.14772727272727337,
                "tempo": 120.0
            },
            {
                "start_time": 35.736363636363635,
                "end_time": 35.88409090909091,
                "pitch": 77,
                "velocity": 40,
                "duration": 0.14772727272727337,
                "tempo": 120.0
            },
            {
                "start_time": 35.918181818181814,
                "end_time": 36.06818181818181,
                "pitch": 79,
                "velocity": 40,
                "duration": 0.14999999999999858,
                "tempo": 120.0
            },
            {
                "start_time": 36.086363636363636,
                "end_time": 36.23181818181818,
                "pitch": 81,
                "velocity": 40,
                "duration": 0.14545454545454106,
                "tempo": 120.0
            },
            {
                "start_time": 36.26590909090909,
                "end_time": 36.41136363636363,
                "pitch": 83,
                "velocity": 40,
                "duration": 0.14545454545454106,
                "tempo": 120.0
            },
            {
                "start_time": 36.44318181818181,
                "end_time": 36.59772727272727,
                "pitch": 77,
                "velocity": 32,
                "duration": 0.1545454545454561,
                "tempo": 120.0
            },
            {
                "start_time": 36.63181818181818,
                "end_time": 36.78636363636363,
                "pitch": 79,
                "velocity": 32,
                "duration": 0.154545454545449,
                "tempo": 120.0
            },
            {
                "start_time": 36.804545454545455,
                "end_time": 36.949999999999996,
                "pitch": 81,
                "velocity": 32,
                "duration": 0.14545454545454106,
                "tempo": 120.0
            },
            {
                "start_time": 36.98181818181818,
                "end_time": 37.12954545454545,
                "pitch": 83,
                "velocity": 32,
                "duration": 0.14772727272727337,
                "tempo": 120.0
            },
            {
                "start_time": 37.163636363636364,
                "end_time": 37.31590909090909,
                "pitch": 77,
                "velocity": 40,
                "duration": 0.15227272727272378,
                "tempo": 120.0
            },
            {
                "start_time": 37.35,
                "end_time": 37.486363636363635,
                "pitch": 79,
                "velocity": 40,
                "duration": 0.13636363636363313,
                "tempo": 120.0
            },
            {
                "start_time": 37.52272727272727,
                "end_time": 37.668181818181814,
                "pitch": 81,
                "velocity": 40,
                "duration": 0.14545454545454106,
                "tempo": 120.0
            },
            {
                "start_time": 37.70227272727273,
                "end_time": 37.84772727272727,
                "pitch": 83,
                "velocity": 40,
                "duration": 0.14545454545454106,
                "tempo": 120.0
            },
            {
                "start_time": 37.87954545454545,
                "end_time": 38.03409090909091,
                "pitch": 77,
                "velocity": 32,
                "duration": 0.1545454545454561,
                "tempo": 120.0
            },
            {
                "start_time": 38.05,
                "end_time": 38.20454545454545,
                "pitch": 79,
                "velocity": 32,
                "duration": 0.1545454545454561,
                "tempo": 120.0
            },
            {
                "start_time": 38.24090909090909,
                "end_time": 38.38636363636363,
                "pitch": 81,
                "velocity": 32,
                "duration": 0.14545454545454106,
                "tempo": 120.0
            },
            {
                "start_time": 38.418181818181814,
                "end_time": 38.56590909090909,
                "pitch": 83,
                "velocity": 32,
                "duration": 0.14772727272727337,
                "tempo": 120.0
            },
            {
                "start_time": 38.6,
                "end_time": 38.74772727272727,
                "pitch": 77,
                "velocity": 40,
                "duration": 0.14772727272726627,
                "tempo": 120.0
            },
            {
                "start_time": 38.76590909090909,
                "end_time": 38.91590909090909,
                "pitch": 79,
                "velocity": 40,
                "duration": 0.14999999999999858,
                "tempo": 120.0
            },
            {
                "start_time": 38.949999999999996,
                "end_time": 39.1,
                "pitch": 81,
                "velocity": 40,
                "duration": 0.15000000000000568,
                "tempo": 120.0
            },
            {
                "start_time": 39.13636363636363,
                "end_time": 39.28409090909091,
                "pitch": 83,
                "velocity": 40,
                "duration": 0.14772727272727337,
                "tempo": 120.0
            },
            {
                "start_time": 39.31818181818181,
                "end_time": 39.46818181818182,
                "pitch": 77,
                "velocity": 32,
                "duration": 0.15000000000000568,
                "tempo": 120.0
            },
            {
                "start_time": 39.486363636363635,
                "end_time": 39.63636363636363,
                "pitch": 79,
                "velocity": 32,
                "duration": 0.14999999999999858,
                "tempo": 120.0
            },
            {
                "start_time": 39.67045454545455,
                "end_time": 39.81590909090909,
                "pitch": 81,
                "velocity": 32,
                "duration": 0.14545454545454106,
                "tempo": 120.0
            },
            {
                "start_time": 39.85,
                "end_time": 39.99545454545454,
                "pitch": 83,
                "velocity": 32,
                "duration": 0.14545454545454106,
                "tempo": 120.0
            },
            {
                "start_time": 40.029545454545456,
                "end_time": 40.18181818181818,
                "pitch": 77,
                "velocity": 40,
                "duration": 0.15227272727272378,
                "tempo": 120.0
            },
            {
                "start_time": 40.199999999999996,
                "end_time": 40.35454545454545,
                "pitch": 79,
                "velocity": 40,
                "duration": 0.1545454545454561,
                "tempo": 120.0
            },
            {
                "start_time": 40.38863636363636,
                "end_time": 40.53409090909091,
                "pitch": 81,
                "velocity": 40,
                "duration": 0.14545454545454817,
                "tempo": 120.0
            },
            {
                "start_time": 40.56818181818181,
                "end_time": 40.71363636363636,
                "pitch": 83,
                "velocity": 40,
                "duration": 0.14545454545454817,
                "tempo": 120.0
            },
            {
                "start_time": 40.74545454545454,
                "end_time": 40.9,
                "pitch": 77,
                "velocity": 32,
                "duration": 0.1545454545454561,
                "tempo": 120.0
            },
            {
                "start_time": 40.918181818181814,
                "end_time": 41.07272727272727,
                "pitch": 79,
                "velocity": 32,
                "duration": 0.1545454545454561,
                "tempo": 120.0
            },
            {
                "start_time": 41.10681818181818,
                "end_time": 41.252272727272725,
                "pitch": 81,
                "velocity": 32,
                "duration": 0.14545454545454817,
                "tempo": 120.0
            },
            {
                "start_time": 41.28636363636363,
                "end_time": 41.43181818181818,
                "pitch": 83,
                "velocity": 32,
                "duration": 0.14545454545454817,
                "tempo": 120.0
            },
            {
                "start_time": 41.465909090909086,
                "end_time": 41.61363636363636,
                "pitch": 77,
                "velocity": 40,
                "duration": 0.14772727272727337,
                "tempo": 120.0
            },
            {
                "start_time": 41.63181818181818,
                "end_time": 41.78181818181818,
                "pitch": 79,
                "velocity": 40,
                "duration": 0.14999999999999858,
                "tempo": 120.0
            },
            {
                "start_time": 41.81590909090909,
                "end_time": 41.961363636363636,
                "pitch": 81,
                "velocity": 40,
                "duration": 0.14545454545454817,
                "tempo": 120.0
            },
            {
                "start_time": 41.99545454545454,
                "end_time": 42.14090909090909,
                "pitch": 83,
                "velocity": 40,
                "duration": 0.14545454545454817,
                "tempo": 120.0
            },
            {
                "start_time": 42.175,
                "end_time": 42.31136363636364,
                "pitch": 77,
                "velocity": 32,
                "duration": 0.13636363636364024,
                "tempo": 120.0
            },
            {
                "start_time": 42.345454545454544,
                "end_time": 42.5,
                "pitch": 79,
                "velocity": 32,
                "duration": 0.1545454545454561,
                "tempo": 120.0
            },
            {
                "start_time": 42.53409090909091,
                "end_time": 42.679545454545455,
                "pitch": 81,
                "velocity": 32,
                "duration": 0.14545454545454817,
                "tempo": 120.0
            },
            {
                "start_time": 42.71363636363636,
                "end_time": 42.85909090909091,
                "pitch": 83,
                "velocity": 32,
                "duration": 0.14545454545454817,
                "tempo": 120.0
            },
            {
                "start_time": 42.893181818181816,
                "end_time": 43.02954545454545,
                "pitch": 77,
                "velocity": 40,
                "duration": 0.13636363636363313,
                "tempo": 120.0
            },
            {
                "start_time": 43.06363636363636,
                "end_time": 43.21818181818182,
                "pitch": 79,
                "velocity": 40,
                "duration": 0.1545454545454561,
                "tempo": 120.0
            },
            {
                "start_time": 43.252272727272725,
                "end_time": 43.39772727272727,
                "pitch": 81,
                "velocity": 40,
                "duration": 0.14545454545454817,
                "tempo": 120.0
            },
            {
                "start_time": 43.43181818181818,
                "end_time": 43.57727272727273,
                "pitch": 83,
                "velocity": 40,
                "duration": 0.14545454545454817,
                "tempo": 120.0
            },
            {
                "start_time": 43.59318181818182,
                "end_time": 43.73863636363636,
                "pitch": 77,
                "velocity": 32,
                "duration": 0.14545454545454106,
                "tempo": 120.0
            },
            {
                "start_time": 43.77272727272727,
                "end_time": 43.918181818181814,
                "pitch": 79,
                "velocity": 32,
                "duration": 0.14545454545454106,
                "tempo": 120.0
            },
            {
                "start_time": 43.95227272727273,
                "end_time": 44.10454545454545,
                "pitch": 81,
                "velocity": 32,
                "duration": 0.15227272727272378,
                "tempo": 120.0
            },
            {
                "start_time": 44.14090909090909,
                "end_time": 44.29545454545455,
                "pitch": 83,
                "velocity": 32,
                "duration": 0.1545454545454561,
                "tempo": 120.0
            },
            {
                "start_time": 44.31363636363636,
                "end_time": 44.45681818181818,
                "pitch": 76,
                "velocity": 40,
                "duration": 0.14318181818181586,
                "tempo": 120.0
            },
            {
                "start_time": 44.49090909090909,
                "end_time": 44.63636363636363,
                "pitch": 76,
                "velocity": 40,
                "duration": 0.14545454545454106,
                "tempo": 120.0
            },
            {
                "start_time": 44.67045454545455,
                "end_time": 44.82272727272727,
                "pitch": 78,
                "velocity": 40,
                "duration": 0.15227272727272378,
                "tempo": 120.0
            },
            {
                "start_time": 44.85909090909091,
                "end_time": 45.01136363636363,
                "pitch": 80,
                "velocity": 40,
                "duration": 0.15227272727272378,
                "tempo": 120.0
            },
            {
                "start_time": 45.02954545454545,
                "end_time": 45.17045454545455,
                "pitch": 76,
                "velocity": 32,
                "duration": 0.14090909090909776,
                "tempo": 120.0
            },
            {
                "start_time": 45.20227272727273,
                "end_time": 45.345454545454544,
                "pitch": 76,
                "velocity": 32,
                "duration": 0.14318181818181586,
                "tempo": 120.0
            },
            {
                "start_time": 45.377272727272725,
                "end_time": 45.53409090909091,
                "pitch": 78,
                "velocity": 32,
                "duration": 0.1568181818181813,
                "tempo": 120.0
            },
            {
                "start_time": 45.570454545454545,
                "end_time": 45.72954545454545,
                "pitch": 80,
                "velocity": 32,
                "duration": 0.1590909090909065,
                "tempo": 120.0
            },
            {
                "start_time": 57.19772727272727,
                "end_time": 57.24318181818182,
                "pitch": 57,
                "velocity": 40,
                "duration": 0.045454545454546746,
                "tempo": 120.0
            },
            {
                "start_time": 57.277272727272724,
                "end_time": 57.34772727272727,
                "pitch": 57,
                "velocity": 40,
                "duration": 0.07045454545454533,
                "tempo": 120.0
            },
            {
                "start_time": 57.381818181818176,
                "end_time": 57.43181818181818,
                "pitch": 57,
                "velocity": 40,
                "duration": 0.05000000000000426,
                "tempo": 120.0
            },
            {
                "start_time": 57.46818181818182,
                "end_time": 57.518181818181816,
                "pitch": 57,
                "velocity": 40,
                "duration": 0.04999999999999716,
                "tempo": 120.0
            },
            {
                "start_time": 57.554545454545455,
                "end_time": 57.61818181818182,
                "pitch": 57,
                "velocity": 40,
                "duration": 0.0636363636363626,
                "tempo": 120.0
            },
            {
                "start_time": 57.65,
                "end_time": 57.699999999999996,
                "pitch": 57,
                "velocity": 40,
                "duration": 0.04999999999999716,
                "tempo": 120.0
            },
            {
                "start_time": 57.73181818181818,
                "end_time": 57.79772727272727,
                "pitch": 57,
                "velocity": 40,
                "duration": 0.06590909090909491,
                "tempo": 120.0
            },
            {
                "start_time": 57.81363636363636,
                "end_time": 57.877272727272725,
                "pitch": 57,
                "velocity": 40,
                "duration": 0.0636363636363626,
                "tempo": 120.0
            },
            {
                "start_time": 57.91136363636363,
                "end_time": 57.961363636363636,
                "pitch": 57,
                "velocity": 40,
                "duration": 0.05000000000000426,
                "tempo": 120.0
            },
            {
                "start_time": 57.99545454545454,
                "end_time": 58.06136363636363,
                "pitch": 57,
                "velocity": 40,
                "duration": 0.06590909090908781,
                "tempo": 120.0
            },
            {
                "start_time": 58.095454545454544,
                "end_time": 58.14545454545454,
                "pitch": 57,
                "velocity": 40,
                "duration": 0.04999999999999716,
                "tempo": 120.0
            },
            {
                "start_time": 58.179545454545455,
                "end_time": 58.22954545454545,
                "pitch": 57,
                "velocity": 40,
                "duration": 0.04999999999999716,
                "tempo": 120.0
            },
            {
                "start_time": 58.26363636363636,
                "end_time": 58.32727272727272,
                "pitch": 57,
                "velocity": 40,
                "duration": 0.0636363636363626,
                "tempo": 120.0
            },
            {
                "start_time": 58.361363636363635,
                "end_time": 58.40909090909091,
                "pitch": 57,
                "velocity": 40,
                "duration": 0.04772727272727195,
                "tempo": 120.0
            },
            {
                "start_time": 58.44318181818181,
                "end_time": 58.506818181818176,
                "pitch": 57,
                "velocity": 40,
                "duration": 0.0636363636363626,
                "tempo": 120.0
            },
            {
                "start_time": 58.52272727272727,
                "end_time": 58.58863636363636,
                "pitch": 57,
                "velocity": 40,
                "duration": 0.06590909090908781,
                "tempo": 120.0
            },
            {
                "start_time": 58.62045454545454,
                "end_time": 58.67045454545454,
                "pitch": 57,
                "velocity": 40,
                "duration": 0.04999999999999716,
                "tempo": 120.0
            },
            {
                "start_time": 58.70681818181818,
                "end_time": 58.775,
                "pitch": 57,
                "velocity": 40,
                "duration": 0.06818181818182012,
                "tempo": 120.0
            },
            {
                "start_time": 58.793181818181814,
                "end_time": 58.861363636363635,
                "pitch": 57,
                "velocity": 40,
                "duration": 0.06818181818182012,
                "tempo": 120.0
            },
            {
                "start_time": 58.89545454545454,
                "end_time": 58.945454545454545,
                "pitch": 57,
                "velocity": 40,
                "duration": 0.05000000000000426,
                "tempo": 120.0
            },
            {
                "start_time": 58.98181818181818,
                "end_time": 59.04545454545454,
                "pitch": 57,
                "velocity": 40,
                "duration": 0.0636363636363626,
                "tempo": 120.0
            },
            {
                "start_time": 59.07954545454545,
                "end_time": 59.127272727272725,
                "pitch": 57,
                "velocity": 40,
                "duration": 0.04772727272727195,
                "tempo": 120.0
            },
            {
                "start_time": 59.16136363636363,
                "end_time": 59.224999999999994,
                "pitch": 57,
                "velocity": 40,
                "duration": 0.0636363636363626,
                "tempo": 120.0
            },
            {
                "start_time": 59.240909090909085,
                "end_time": 59.30681818181818,
                "pitch": 57,
                "velocity": 40,
                "duration": 0.06590909090909491,
                "tempo": 120.0
            },
            {
                "start_time": 59.340909090909086,
                "end_time": 59.38863636363636,
                "pitch": 57,
                "velocity": 40,
                "duration": 0.04772727272727195,
                "tempo": 120.0
            },
            {
                "start_time": 59.42272727272727,
                "end_time": 59.48863636363636,
                "pitch": 57,
                "velocity": 40,
                "duration": 0.06590909090908781,
                "tempo": 120.0
            },
            {
                "start_time": 59.506818181818176,
                "end_time": 59.57272727272727,
                "pitch": 57,
                "velocity": 40,
                "duration": 0.06590909090909491,
                "tempo": 120.0
            },
            {
                "start_time": 59.60681818181818,
                "end_time": 59.65681818181818,
                "pitch": 57,
                "velocity": 40,
                "duration": 0.05000000000000426,
                "tempo": 120.0
            },
            {
                "start_time": 59.69318181818181,
                "end_time": 59.756818181818176,
                "pitch": 57,
                "velocity": 40,
                "duration": 0.0636363636363626,
                "tempo": 120.0
            },
            {
                "start_time": 59.79090909090909,
                "end_time": 59.840909090909086,
                "pitch": 57,
                "velocity": 40,
                "duration": 0.04999999999999716,
                "tempo": 120.0
            },
            {
                "start_time": 59.875,
                "end_time": 59.94090909090909,
                "pitch": 57,
                "velocity": 40,
                "duration": 0.06590909090908781,
                "tempo": 120.0
            },
            {
                "start_time": 59.959090909090904,
                "end_time": 60.025,
                "pitch": 57,
                "velocity": 40,
                "duration": 0.06590909090909491,
                "tempo": 120.0
            },
            {
                "start_time": 60.059090909090905,
                "end_time": 60.10909090909091,
                "pitch": 57,
                "velocity": 40,
                "duration": 0.05000000000000426,
                "tempo": 120.0
            },
            {
                "start_time": 60.143181818181816,
                "end_time": 60.209090909090904,
                "pitch": 57,
                "velocity": 40,
                "duration": 0.06590909090908781,
                "tempo": 120.0
            },
            {
                "start_time": 60.22727272727273,
                "end_time": 60.293181818181814,
                "pitch": 57,
                "velocity": 40,
                "duration": 0.06590909090908781,
                "tempo": 120.0
            },
            {
                "start_time": 60.32727272727272,
                "end_time": 60.377272727272725,
                "pitch": 57,
                "velocity": 40,
                "duration": 0.05000000000000426,
                "tempo": 120.0
            },
            {
                "start_time": 60.41136363636363,
                "end_time": 60.474999999999994,
                "pitch": 57,
                "velocity": 40,
                "duration": 0.0636363636363626,
                "tempo": 120.0
            },
            {
                "start_time": 60.50909090909091,
                "end_time": 60.55681818181818,
                "pitch": 57,
                "velocity": 40,
                "duration": 0.04772727272727195,
                "tempo": 120.0
            },
            {
                "start_time": 60.590909090909086,
                "end_time": 60.63863636363636,
                "pitch": 57,
                "velocity": 40,
                "duration": 0.04772727272727195,
                "tempo": 120.0
            },
            {
                "start_time": 60.67045454545454,
                "end_time": 60.736363636363635,
                "pitch": 57,
                "velocity": 40,
                "duration": 0.06590909090909491,
                "tempo": 120.0
            },
            {
                "start_time": 60.77045454545454,
                "end_time": 60.820454545454545,
                "pitch": 57,
                "velocity": 40,
                "duration": 0.05000000000000426,
                "tempo": 120.0
            },
            {
                "start_time": 60.85454545454545,
                "end_time": 60.92272727272727,
                "pitch": 57,
                "velocity": 40,
                "duration": 0.06818181818182012,
                "tempo": 120.0
            },
            {
                "start_time": 60.94090909090909,
                "end_time": 61.00909090909091,
                "pitch": 57,
                "velocity": 40,
                "duration": 0.06818181818182012,
                "tempo": 120.0
            },
            {
                "start_time": 61.043181818181814,
                "end_time": 61.095454545454544,
                "pitch": 57,
                "velocity": 40,
                "duration": 0.05227272727272947,
                "tempo": 120.0
            },
            {
                "start_time": 61.12954545454545,
                "end_time": 61.19318181818181,
                "pitch": 57,
                "velocity": 40,
                "duration": 0.0636363636363626,
                "tempo": 120.0
            },
            {
                "start_time": 61.211363636363636,
                "end_time": 61.275,
                "pitch": 57,
                "velocity": 40,
                "duration": 0.0636363636363626,
                "tempo": 120.0
            },
            {
                "start_time": 61.309090909090905,
                "end_time": 61.35681818181818,
                "pitch": 57,
                "velocity": 40,
                "duration": 0.04772727272727195,
                "tempo": 120.0
            },
            {
                "start_time": 61.38863636363636,
                "end_time": 61.45454545454545,
                "pitch": 57,
                "velocity": 40,
                "duration": 0.06590909090909491,
                "tempo": 120.0
            },
            {
                "start_time": 61.48863636363636,
                "end_time": 61.53636363636363,
                "pitch": 57,
                "velocity": 40,
                "duration": 0.04772727272727195,
                "tempo": 120.0
            },
            {
                "start_time": 61.570454545454545,
                "end_time": 61.63636363636363,
                "pitch": 57,
                "velocity": 40,
                "duration": 0.06590909090908781,
                "tempo": 120.0
            },
            {
                "start_time": 61.65454545454545,
                "end_time": 61.720454545454544,
                "pitch": 57,
                "velocity": 40,
                "duration": 0.06590909090909491,
                "tempo": 120.0
            },
            {
                "start_time": 61.75454545454545,
                "end_time": 61.804545454545455,
                "pitch": 57,
                "velocity": 40,
                "duration": 0.05000000000000426,
                "tempo": 120.0
            },
            {
                "start_time": 61.83863636363636,
                "end_time": 61.90454545454545,
                "pitch": 57,
                "velocity": 40,
                "duration": 0.06590909090908781,
                "tempo": 120.0
            },
            {
                "start_time": 61.92272727272727,
                "end_time": 61.98863636363636,
                "pitch": 57,
                "velocity": 40,
                "duration": 0.06590909090908781,
                "tempo": 120.0
            },
            {
                "start_time": 62.022727272727266,
                "end_time": 62.07272727272727,
                "pitch": 57,
                "velocity": 40,
                "duration": 0.05000000000000426,
                "tempo": 120.0
            },
            {
                "start_time": 62.10681818181818,
                "end_time": 62.17272727272727,
                "pitch": 57,
                "velocity": 40,
                "duration": 0.06590909090909491,
                "tempo": 120.0
            },
            {
                "start_time": 62.209090909090904,
                "end_time": 62.256818181818176,
                "pitch": 56,
                "velocity": 40,
                "duration": 0.04772727272727195,
                "tempo": 120.0
            },
            {
                "start_time": 62.29090909090909,
                "end_time": 62.35681818181818,
                "pitch": 56,
                "velocity": 40,
                "duration": 0.06590909090908781,
                "tempo": 120.0
            },
            {
                "start_time": 62.375,
                "end_time": 62.44090909090909,
                "pitch": 56,
                "velocity": 40,
                "duration": 0.06590909090908781,
                "tempo": 120.0
            },
            {
                "start_time": 62.474999999999994,
                "end_time": 62.525,
                "pitch": 56,
                "velocity": 40,
                "duration": 0.05000000000000426,
                "tempo": 120.0
            },
            {
                "start_time": 62.559090909090905,
                "end_time": 62.625,
                "pitch": 56,
                "velocity": 40,
                "duration": 0.06590909090909491,
                "tempo": 120.0
            },
            {
                "start_time": 62.643181818181816,
                "end_time": 62.709090909090904,
                "pitch": 56,
                "velocity": 40,
                "duration": 0.06590909090908781,
                "tempo": 120.0
            },
            {
                "start_time": 62.74318181818182,
                "end_time": 62.793181818181814,
                "pitch": 56,
                "velocity": 40,
                "duration": 0.04999999999999716,
                "tempo": 120.0
            },
            {
                "start_time": 62.82727272727272,
                "end_time": 62.893181818181816,
                "pitch": 56,
                "velocity": 40,
                "duration": 0.06590909090909491,
                "tempo": 120.0
            }
        ],
        "Vibraphone": [
            {
                "start_time": 5.702272727272727,
                "end_time": 6.561363636363636,
                "pitch": 93,
                "velocity": 51,
                "duration": 0.8590909090909085,
                "tempo": 120.0
            },
            {
                "start_time": 6.595454545454545,
                "end_time": 6.74090909090909,
                "pitch": 95,
                "velocity": 51,
                "duration": 0.1454545454545455,
                "tempo": 120.0
            },
            {
                "start_time": 6.7727272727272725,
                "end_time": 6.927272727272727,
                "pitch": 96,
                "velocity": 51,
                "duration": 0.15454545454545432,
                "tempo": 120.0
            },
            {
                "start_time": 6.961363636363636,
                "end_time": 7.986363636363636,
                "pitch": 95,
                "velocity": 51,
                "duration": 1.0250000000000004,
                "tempo": 120.0
            },
            {
                "start_time": 8.020454545454545,
                "end_time": 8.165909090909091,
                "pitch": 96,
                "velocity": 51,
                "duration": 0.1454545454545464,
                "tempo": 120.0
            },
            {
                "start_time": 8.2,
                "end_time": 8.352272727272727,
                "pitch": 98,
                "velocity": 51,
                "duration": 0.15227272727272734,
                "tempo": 120.0
            },
            {
                "start_time": 8.370454545454544,
                "end_time": 10.85,
                "pitch": 100,
                "velocity": 51,
                "duration": 2.4795454545454554,
                "tempo": 120.0
            },
            {
                "start_time": 10.884090909090908,
                "end_time": 11.029545454545454,
                "pitch": 98,
                "velocity": 51,
                "duration": 0.1454545454545464,
                "tempo": 120.0
            },
            {
                "start_time": 11.063636363636363,
                "end_time": 11.388636363636364,
                "pitch": 100,
                "velocity": 51,
                "duration": 0.32500000000000107,
                "tempo": 120.0
            },
            {
                "start_time": 11.424999999999999,
                "end_time": 12.46590909090909,
                "pitch": 101,
                "velocity": 51,
                "duration": 1.040909090909091,
                "tempo": 120.0
            },
            {
                "start_time": 12.48409090909091,
                "end_time": 12.627272727272727,
                "pitch": 100,
                "velocity": 51,
                "duration": 0.14318181818181763,
                "tempo": 120.0
            },
            {
                "start_time": 12.661363636363635,
                "end_time": 12.806818181818182,
                "pitch": 98,
                "velocity": 51,
                "duration": 0.1454545454545464,
                "tempo": 120.0
            },
            {
                "start_time": 12.84090909090909,
                "end_time": 13.181818181818182,
                "pitch": 100,
                "velocity": 51,
                "duration": 0.3409090909090917,
                "tempo": 120.0
            },
            {
                "start_time": 13.2,
                "end_time": 13.524999999999999,
                "pitch": 98,
                "velocity": 51,
                "duration": 0.3249999999999993,
                "tempo": 120.0
            },
            {
                "start_time": 13.559090909090909,
                "end_time": 13.899999999999999,
                "pitch": 96,
                "velocity": 51,
                "duration": 0.34090909090908994,
                "tempo": 120.0
            },
            {
                "start_time": 13.920454545454545,
                "end_time": 14.243181818181817,
                "pitch": 95,
                "velocity": 51,
                "duration": 0.3227272727272723,
                "tempo": 120.0
            },
            {
                "start_time": 14.279545454545454,
                "end_time": 14.618181818181817,
                "pitch": 96,
                "velocity": 51,
                "duration": 0.33863636363636296,
                "tempo": 120.0
            },
            {
                "start_time": 14.636363636363635,
                "end_time": 14.781818181818181,
                "pitch": 98,
                "velocity": 51,
                "duration": 0.1454545454545464,
                "tempo": 120.0
            },
            {
                "start_time": 14.81590909090909,
                "end_time": 17.10909090909091,
                "pitch": 100,
                "velocity": 51,
                "duration": 2.2931818181818198,
                "tempo": 120.0
            },
            {
                "start_time": 17.143181818181816,
                "end_time": 18.177272727272726,
                "pitch": 98,
                "velocity": 51,
                "duration": 1.03409090909091,
                "tempo": 120.0
            },
            {
                "start_time": 18.21363636363636,
                "end_time": 18.35909090909091,
                "pitch": 96,
                "velocity": 51,
                "duration": 0.14545454545454817,
                "tempo": 120.0
            },
            {
                "start_time": 18.393181818181816,
                "end_time": 18.536363636363635,
                "pitch": 95,
                "velocity": 51,
                "duration": 0.1431818181818194,
                "tempo": 120.0
            },
            {
                "start_time": 18.57272727272727,
                "end_time": 18.895454545454545,
                "pitch": 96,
                "velocity": 51,
                "duration": 0.3227272727272741,
                "tempo": 120.0
            },
            {
                "start_time": 18.93181818181818,
                "end_time": 19.254545454545454,
                "pitch": 90,
                "velocity": 51,
                "duration": 0.3227272727272741,
                "tempo": 120.0
            },
            {
                "start_time": 19.288636363636364,
                "end_time": 19.613636363636363,
                "pitch": 93,
                "velocity": 51,
                "duration": 0.3249999999999993,
                "tempo": 120.0
            },
            {
                "start_time": 19.65,
                "end_time": 19.972727272727273,
                "pitch": 96,
                "velocity": 51,
                "duration": 0.3227272727272741,
                "tempo": 120.0
            },
            {
                "start_time": 20.00681818181818,
                "end_time": 20.15681818181818,
                "pitch": 96,
                "velocity": 51,
                "duration": 0.15000000000000213,
                "tempo": 120.0
            },
            {
                "start_time": 20.175,
                "end_time": 20.325,
                "pitch": 95,
                "velocity": 51,
                "duration": 0.14999999999999858,
                "tempo": 120.0
            },
            {
                "start_time": 20.35909090909091,
                "end_time": 20.509090909090908,
                "pitch": 93,
                "velocity": 51,
                "duration": 0.14999999999999858,
                "tempo": 120.0
            },
            {
                "start_time": 20.543181818181818,
                "end_time": 21.404545454545453,
                "pitch": 95,
                "velocity": 51,
                "duration": 0.8613636363636346,
                "tempo": 120.0
            },
            {
                "start_time": 21.438636363636363,
                "end_time": 21.59090909090909,
                "pitch": 98,
                "velocity": 51,
                "duration": 0.15227272727272734,
                "tempo": 120.0
            },
            {
                "start_time": 21.60909090909091,
                "end_time": 21.761363636363637,
                "pitch": 96,
                "velocity": 51,
                "duration": 0.15227272727272734,
                "tempo": 120.0
            },
            {
                "start_time": 21.797727272727272,
                "end_time": 21.943181818181817,
                "pitch": 95,
                "velocity": 51,
                "duration": 0.14545454545454461,
                "tempo": 120.0
            },
            {
                "start_time": 21.977272727272727,
                "end_time": 22.472727272727273,
                "pitch": 100,
                "velocity": 51,
                "duration": 0.49545454545454604,
                "tempo": 120.0
            },
            {
                "start_time": 22.861363636363635,
                "end_time": 23.71363636363636,
                "pitch": 93,
                "velocity": 51,
                "duration": 0.8522727272727266,
                "tempo": 120.0
            },
            {
                "start_time": 23.74772727272727,
                "end_time": 23.893181818181816,
                "pitch": 95,
                "velocity": 51,
                "duration": 0.14545454545454461,
                "tempo": 120.0
            },
            {
                "start_time": 23.927272727272726,
                "end_time": 24.079545454545453,
                "pitch": 96,
                "velocity": 51,
                "duration": 0.15227272727272734,
                "tempo": 120.0
            },
            {
                "start_time": 24.11590909090909,
                "end_time": 25.15,
                "pitch": 95,
                "velocity": 51,
                "duration": 1.03409090909091,
                "tempo": 120.0
            },
            {
                "start_time": 25.18409090909091,
                "end_time": 25.329545454545453,
                "pitch": 96,
                "velocity": 51,
                "duration": 0.14545454545454461,
                "tempo": 120.0
            },
            {
                "start_time": 25.363636363636363,
                "end_time": 25.51590909090909,
                "pitch": 98,
                "velocity": 51,
                "duration": 0.15227272727272734,
                "tempo": 120.0
            },
            {
                "start_time": 25.552272727272726,
                "end_time": 28.013636363636362,
                "pitch": 100,
                "velocity": 51,
                "duration": 2.461363636363636,
                "tempo": 120.0
            },
            {
                "start_time": 28.047727272727272,
                "end_time": 28.193181818181817,
                "pitch": 98,
                "velocity": 51,
                "duration": 0.14545454545454461,
                "tempo": 120.0
            },
            {
                "start_time": 28.227272727272727,
                "end_time": 28.552272727272726,
                "pitch": 100,
                "velocity": 51,
                "duration": 0.3249999999999993,
                "tempo": 120.0
            },
            {
                "start_time": 28.58863636363636,
                "end_time": 29.629545454545454,
                "pitch": 101,
                "velocity": 51,
                "duration": 1.0409090909090928,
                "tempo": 120.0
            },
            {
                "start_time": 29.66363636363636,
                "end_time": 29.813636363636363,
                "pitch": 100,
                "velocity": 51,
                "duration": 0.15000000000000213,
                "tempo": 120.0
            },
            {
                "start_time": 29.831818181818182,
                "end_time": 29.979545454545452,
                "pitch": 98,
                "velocity": 51,
                "duration": 0.14772727272726982,
                "tempo": 120.0
            },
            {
                "start_time": 30.01590909090909,
                "end_time": 30.347727272727273,
                "pitch": 100,
                "velocity": 51,
                "duration": 0.331818181818182,
                "tempo": 120.0
            },
            {
                "start_time": 30.384090909090908,
                "end_time": 30.7,
                "pitch": 98,
                "velocity": 51,
                "duration": 0.31590909090909136,
                "tempo": 120.0
            },
            {
                "start_time": 30.736363636363635,
                "end_time": 31.05909090909091,
                "pitch": 96,
                "velocity": 51,
                "duration": 0.3227272727272741,
                "tempo": 120.0
            },
            {
                "start_time": 31.093181818181815,
                "end_time": 31.418181818181818,
                "pitch": 95,
                "velocity": 51,
                "duration": 0.32500000000000284,
                "tempo": 120.0
            },
            {
                "start_time": 31.454545454545453,
                "end_time": 33.92045454545455,
                "pitch": 93,
                "velocity": 51,
                "duration": 2.4659090909090935,
                "tempo": 120.0
            },
            {
                "start_time": 34.31136363636364,
                "end_time": 34.804545454545455,
                "pitch": 93,
                "velocity": 51,
                "duration": 0.4931818181818173,
                "tempo": 120.0
            },
            {
                "start_time": 34.83863636363636,
                "end_time": 35.35909090909091,
                "pitch": 95,
                "velocity": 51,
                "duration": 0.5204545454545482,
                "tempo": 120.0
            },
            {
                "start_time": 35.377272727272725,
                "end_time": 35.70227272727273,
                "pitch": 96,
                "velocity": 51,
                "duration": 0.32500000000000284,
                "tempo": 120.0
            },
            {
                "start_time": 35.736363636363635,
                "end_time": 36.23181818181818,
                "pitch": 95,
                "velocity": 51,
                "duration": 0.4954545454545425,
                "tempo": 120.0
            },
            {
                "start_time": 36.26590909090909,
                "end_time": 36.78636363636363,
                "pitch": 96,
                "velocity": 51,
                "duration": 0.5204545454545411,
                "tempo": 120.0
            },
            {
                "start_time": 36.804545454545455,
                "end_time": 37.12954545454545,
                "pitch": 98,
                "velocity": 51,
                "duration": 0.32499999999999574,
                "tempo": 120.0
            },
            {
                "start_time": 37.163636363636364,
                "end_time": 37.668181818181814,
                "pitch": 96,
                "velocity": 51,
                "duration": 0.5045454545454504,
                "tempo": 120.0
            },
            {
                "start_time": 37.70227272727273,
                "end_time": 38.20681818181818,
                "pitch": 95,
                "velocity": 51,
                "duration": 0.5045454545454504,
                "tempo": 120.0
            },
            {
                "start_time": 38.24090909090909,
                "end_time": 38.56590909090909,
                "pitch": 93,
                "velocity": 51,
                "duration": 0.32499999999999574,
                "tempo": 120.0
            },
            {
                "start_time": 38.6,
                "end_time": 38.91590909090909,
                "pitch": 95,
                "velocity": 51,
                "duration": 0.3159090909090878,
                "tempo": 120.0
            },
            {
                "start_time": 38.95227272727273,
                "end_time": 39.1,
                "pitch": 93,
                "velocity": 51,
                "duration": 0.14772727272727337,
                "tempo": 120.0
            },
            {
                "start_time": 39.13636363636363,
                "end_time": 39.99545454545454,
                "pitch": 91,
                "velocity": 51,
                "duration": 0.8590909090909093,
                "tempo": 120.0
            },
            {
                "start_time": 40.029545454545456,
                "end_time": 40.53409090909091,
                "pitch": 93,
                "velocity": 51,
                "duration": 0.5045454545454504,
                "tempo": 120.0
            },
            {
                "start_time": 40.56818181818181,
                "end_time": 41.07272727272727,
                "pitch": 95,
                "velocity": 51,
                "duration": 0.5045454545454575,
                "tempo": 120.0
            },
            {
                "start_time": 41.10681818181818,
                "end_time": 41.43181818181818,
                "pitch": 96,
                "velocity": 51,
                "duration": 0.32500000000000284,
                "tempo": 120.0
            },
            {
                "start_time": 41.465909090909086,
                "end_time": 41.96363636363636,
                "pitch": 95,
                "velocity": 51,
                "duration": 0.4977272727272748,
                "tempo": 120.0
            },
            {
                "start_time": 41.99772727272727,
                "end_time": 42.5,
                "pitch": 96,
                "velocity": 51,
                "duration": 0.5022727272727323,
                "tempo": 120.0
            },
            {
                "start_time": 42.53636363636363,
                "end_time": 42.85909090909091,
                "pitch": 98,
                "velocity": 51,
                "duration": 0.32272727272727764,
                "tempo": 120.0
            },
            {
                "start_time": 42.89545454545454,
                "end_time": 43.4,
                "pitch": 100,
                "velocity": 51,
                "duration": 0.5045454545454575,
                "tempo": 120.0
            },
            {
                "start_time": 43.43181818181818,
                "end_time": 43.918181818181814,
                "pitch": 98,
                "velocity": 51,
                "duration": 0.48636363636363455,
                "tempo": 120.0
            },
            {
                "start_time": 43.95227272727273,
                "end_time": 44.29545454545455,
                "pitch": 96,
                "velocity": 51,
                "duration": 0.3431818181818187,
                "tempo": 120.0
            },
            {
                "start_time": 44.31363636363636,
                "end_time": 44.63863636363636,
                "pitch": 98,
                "velocity": 51,
                "duration": 0.32499999999999574,
                "tempo": 120.0
            },
            {
                "start_time": 44.67045454545455,
                "end_time": 44.824999999999996,
                "pitch": 96,
                "velocity": 51,
                "duration": 0.154545454545449,
                "tempo": 120.0
            },
            {
                "start_time": 44.85909090909091,
                "end_time": 45.72954545454545,
                "pitch": 95,
                "velocity": 51,
                "duration": 0.8704545454545425,
                "tempo": 120.0
            },
            {
                "start_time": 45.75454545454545,
                "end_time": 45.89545454545454,
                "pitch": 96,
                "velocity": 51,
                "duration": 0.14090909090909065,
                "tempo": 120.0
            },
            {
                "start_time": 45.929545454545455,
                "end_time": 46.074999999999996,
                "pitch": 95,
                "velocity": 51,
                "duration": 0.14545454545454106,
                "tempo": 120.0
            },
            {
                "start_time": 46.10909090909091,
                "end_time": 46.25681818181818,
                "pitch": 93,
                "velocity": 51,
                "duration": 0.14772727272727337,
                "tempo": 120.0
            },
            {
                "start_time": 46.293181818181814,
                "end_time": 46.60454545454545,
                "pitch": 96,
                "velocity": 51,
                "duration": 0.3113636363636374,
                "tempo": 120.0
            },
            {
                "start_time": 46.63863636363636,
                "end_time": 46.78409090909091,
                "pitch": 95,
                "velocity": 51,
                "duration": 0.14545454545454817,
                "tempo": 120.0
            },
            {
                "start_time": 46.81818181818181,
                "end_time": 46.970454545454544,
                "pitch": 93,
                "velocity": 51,
                "duration": 0.1522727272727309,
                "tempo": 120.0
            },
            {
                "start_time": 47.00681818181818,
                "end_time": 47.32272727272727,
                "pitch": 96,
                "velocity": 51,
                "duration": 0.3159090909090878,
                "tempo": 120.0
            },
            {
                "start_time": 47.35681818181818,
                "end_time": 47.502272727272725,
                "pitch": 95,
                "velocity": 51,
                "duration": 0.14545454545454817,
                "tempo": 120.0
            },
            {
                "start_time": 47.53636363636363,
                "end_time": 47.68863636363636,
                "pitch": 93,
                "velocity": 51,
                "duration": 0.1522727272727309,
                "tempo": 120.0
            },
            {
                "start_time": 47.724999999999994,
                "end_time": 48.03636363636363,
                "pitch": 96,
                "velocity": 51,
                "duration": 0.3113636363636374,
                "tempo": 120.0
            },
            {
                "start_time": 48.070454545454545,
                "end_time": 48.211363636363636,
                "pitch": 95,
                "velocity": 51,
                "duration": 0.14090909090909065,
                "tempo": 120.0
            },
            {
                "start_time": 48.24318181818182,
                "end_time": 48.4,
                "pitch": 93,
                "velocity": 51,
                "duration": 0.1568181818181813,
                "tempo": 120.0
            },
            {
                "start_time": 48.42045454545454,
                "end_time": 48.75454545454545,
                "pitch": 98,
                "velocity": 51,
                "duration": 0.33409090909091077,
                "tempo": 120.0
            },
            {
                "start_time": 48.788636363636364,
                "end_time": 48.929545454545455,
                "pitch": 96,
                "velocity": 51,
                "duration": 0.14090909090909065,
                "tempo": 120.0
            },
            {
                "start_time": 48.961363636363636,
                "end_time": 49.11363636363636,
                "pitch": 93,
                "velocity": 51,
                "duration": 0.15227272727272378,
                "tempo": 120.0
            },
            {
                "start_time": 49.13409090909091,
                "end_time": 49.465909090909086,
                "pitch": 98,
                "velocity": 51,
                "duration": 0.33181818181817846,
                "tempo": 120.0
            },
            {
                "start_time": 49.5,
                "end_time": 49.64545454545454,
                "pitch": 96,
                "velocity": 51,
                "duration": 0.14545454545454106,
                "tempo": 120.0
            },
            {
                "start_time": 49.679545454545455,
                "end_time": 49.83181818181818,
                "pitch": 93,
                "velocity": 51,
                "duration": 0.15227272727272378,
                "tempo": 120.0
            },
            {
                "start_time": 49.85227272727273,
                "end_time": 50.00454545454545,
                "pitch": 96,
                "velocity": 51,
                "duration": 0.15227272727272378,
                "tempo": 120.0
            },
            {
                "start_time": 50.04090909090909,
                "end_time": 50.184090909090905,
                "pitch": 95,
                "velocity": 51,
                "duration": 0.14318181818181586,
                "tempo": 120.0
            },
            {
                "start_time": 50.21818181818182,
                "end_time": 50.36363636363636,
                "pitch": 92,
                "velocity": 51,
                "duration": 0.14545454545454106,
                "tempo": 120.0
            },
            {
                "start_time": 50.39772727272727,
                "end_time": 50.55,
                "pitch": 93,
                "velocity": 51,
                "duration": 0.15227272727272378,
                "tempo": 120.0
            },
            {
                "start_time": 50.56818181818181,
                "end_time": 50.902272727272724,
                "pitch": 95,
                "velocity": 51,
                "duration": 0.33409090909091077,
                "tempo": 120.0
            },
            {
                "start_time": 50.93636363636364,
                "end_time": 51.08181818181818,
                "pitch": 92,
                "velocity": 51,
                "duration": 0.14545454545454106,
                "tempo": 120.0
            },
            {
                "start_time": 51.115909090909085,
                "end_time": 51.26590909090909,
                "pitch": 93,
                "velocity": 51,
                "duration": 0.15000000000000568,
                "tempo": 120.0
            },
            {
                "start_time": 51.28409090909091,
                "end_time": 51.43181818181818,
                "pitch": 95,
                "velocity": 51,
                "duration": 0.14772727272727337,
                "tempo": 120.0
            },
            {
                "start_time": 51.470454545454544,
                "end_time": 51.61818181818182,
                "pitch": 96,
                "velocity": 51,
                "duration": 0.14772727272727337,
                "tempo": 120.0
            },
            {
                "start_time": 51.652272727272724,
                "end_time": 51.80227272727272,
                "pitch": 95,
                "velocity": 51,
                "duration": 0.14999999999999858,
                "tempo": 120.0
            },
            {
                "start_time": 51.836363636363636,
                "end_time": 51.986363636363635,
                "pitch": 93,
                "velocity": 51,
                "duration": 0.14999999999999858,
                "tempo": 120.0
            },
            {
                "start_time": 52.00454545454545,
                "end_time": 52.334090909090904,
                "pitch": 96,
                "velocity": 51,
                "duration": 0.32954545454545325,
                "tempo": 120.0
            },
            {
                "start_time": 52.36818181818182,
                "end_time": 52.51136363636363,
                "pitch": 95,
                "velocity": 51,
                "duration": 0.14318181818181586,
                "tempo": 120.0
            },
            {
                "start_time": 52.54545454545454,
                "end_time": 52.68181818181818,
                "pitch": 93,
                "velocity": 51,
                "duration": 0.13636363636364024,
                "tempo": 120.0
            },
            {
                "start_time": 52.71818181818182,
                "end_time": 53.05227272727272,
                "pitch": 96,
                "velocity": 51,
                "duration": 0.33409090909090366,
                "tempo": 120.0
            },
            {
                "start_time": 53.086363636363636,
                "end_time": 53.22954545454545,
                "pitch": 95,
                "velocity": 51,
                "duration": 0.14318181818181586,
                "tempo": 120.0
            },
            {
                "start_time": 53.24772727272727,
                "end_time": 53.393181818181816,
                "pitch": 93,
                "velocity": 51,
                "duration": 0.14545454545454817,
                "tempo": 120.0
            },
            {
                "start_time": 53.42727272727272,
                "end_time": 53.75454545454545,
                "pitch": 96,
                "velocity": 51,
                "duration": 0.32727272727272805,
                "tempo": 120.0
            },
            {
                "start_time": 53.79090909090909,
                "end_time": 53.93863636363636,
                "pitch": 95,
                "velocity": 51,
                "duration": 0.14772727272727337,
                "tempo": 120.0
            },
            {
                "start_time": 53.95681818181818,
                "end_time": 54.10681818181818,
                "pitch": 93,
                "velocity": 51,
                "duration": 0.14999999999999858,
                "tempo": 120.0
            },
            {
                "start_time": 54.14090909090909,
                "end_time": 54.474999999999994,
                "pitch": 98,
                "velocity": 51,
                "duration": 0.33409090909090366,
                "tempo": 120.0
            },
            {
                "start_time": 54.51136363636363,
                "end_time": 54.65909090909091,
                "pitch": 96,
                "velocity": 51,
                "duration": 0.14772727272727337,
                "tempo": 120.0
            },
            {
                "start_time": 54.67727272727272,
                "end_time": 54.82727272727273,
                "pitch": 93,
                "velocity": 51,
                "duration": 0.15000000000000568,
                "tempo": 120.0
            },
            {
                "start_time": 54.861363636363635,
                "end_time": 55.195454545454545,
                "pitch": 98,
                "velocity": 51,
                "duration": 0.33409090909091077,
                "tempo": 120.0
            },
            {
                "start_time": 55.22954545454545,
                "end_time": 55.37954545454545,
                "pitch": 96,
                "velocity": 51,
                "duration": 0.14999999999999858,
                "tempo": 120.0
            },
            {
                "start_time": 55.39772727272727,
                "end_time": 55.543181818181814,
                "pitch": 93,
                "velocity": 51,
                "duration": 0.14545454545454106,
                "tempo": 120.0
            },
            {
                "start_time": 55.57727272727273,
                "end_time": 55.72272727272727,
                "pitch": 96,
                "velocity": 51,
                "duration": 0.14545454545454106,
                "tempo": 120.0
            },
            {
                "start_time": 55.756818181818176,
                "end_time": 55.90909090909091,
                "pitch": 95,
                "velocity": 51,
                "duration": 0.1522727272727309,
                "tempo": 120.0
            },
            {
                "start_time": 55.945454545454545,
                "end_time": 56.09772727272727,
                "pitch": 92,
                "velocity": 51,
                "duration": 0.15227272727272378,
                "tempo": 120.0
            },
            {
                "start_time": 56.115909090909085,
                "end_time": 56.26136363636363,
                "pitch": 93,
                "velocity": 51,
                "duration": 0.14545454545454817,
                "tempo": 120.0
            },
            {
                "start_time": 56.29545454545454,
                "end_time": 56.62272727272727,
                "pitch": 95,
                "velocity": 51,
                "duration": 0.32727272727272805,
                "tempo": 120.0
            },
            {
                "start_time": 56.65909090909091,
                "end_time": 56.80681818181818,
                "pitch": 92,
                "velocity": 51,
                "duration": 0.14772727272727337,
                "tempo": 120.0
            },
            {
                "start_time": 56.824999999999996,
                "end_time": 56.974999999999994,
                "pitch": 93,
                "velocity": 51,
                "duration": 0.14999999999999858,
                "tempo": 120.0
            },
            {
                "start_time": 57.01136363636363,
                "end_time": 57.15909090909091,
                "pitch": 95,
                "velocity": 51,
                "duration": 0.14772727272727337,
                "tempo": 120.0
            },
            {
                "start_time": 57.19772727272727,
                "end_time": 59.65681818181818,
                "pitch": 93,
                "velocity": 51,
                "duration": 2.4590909090909108,
                "tempo": 120.0
            },
            {
                "start_time": 62.934090909090905,
                "end_time": 63.01136363636363,
                "pitch": 93,
                "velocity": 51,
                "duration": 0.07727272727272805,
                "tempo": 120.0
            }
        ],
        "Electric Piano 1": [
            {
                "start_time": 22.509090909090908,
                "end_time": 22.522727272727273,
                "pitch": 32,
                "velocity": 64,
                "duration": 0.013636363636365445,
                "tempo": 120.0
            },
            {
                "start_time": 22.522727272727273,
                "end_time": 22.554545454545455,
                "pitch": 30,
                "velocity": 64,
                "duration": 0.0318181818181813,
                "tempo": 120.0
            },
            {
                "start_time": 22.554545454545455,
                "end_time": 22.57272727272727,
                "pitch": 27,
                "velocity": 64,
                "duration": 0.018181818181815856,
                "tempo": 120.0
            },
            {
                "start_time": 22.58863636363636,
                "end_time": 22.60681818181818,
                "pitch": 32,
                "velocity": 64,
                "duration": 0.01818181818181941,
                "tempo": 120.0
            },
            {
                "start_time": 22.522727272727273,
                "end_time": 22.60681818181818,
                "pitch": 42,
                "velocity": 64,
                "duration": 0.08409090909090722,
                "tempo": 120.0
            },
            {
                "start_time": 22.60681818181818,
                "end_time": 22.638636363636362,
                "pitch": 30,
                "velocity": 64,
                "duration": 0.0318181818181813,
                "tempo": 120.0
            },
            {
                "start_time": 22.638636363636362,
                "end_time": 22.65681818181818,
                "pitch": 27,
                "velocity": 64,
                "duration": 0.01818181818181941,
                "tempo": 120.0
            },
            {
                "start_time": 22.69090909090909,
                "end_time": 22.706818181818182,
                "pitch": 28,
                "velocity": 64,
                "duration": 0.01590909090909065,
                "tempo": 120.0
            },
            {
                "start_time": 22.706818181818182,
                "end_time": 22.74090909090909,
                "pitch": 26,
                "velocity": 64,
                "duration": 0.03409090909090651,
                "tempo": 120.0
            },
            {
                "start_time": 22.775,
                "end_time": 22.79090909090909,
                "pitch": 28,
                "velocity": 64,
                "duration": 0.01590909090909065,
                "tempo": 120.0
            },
            {
                "start_time": 22.79090909090909,
                "end_time": 22.82272727272727,
                "pitch": 26,
                "velocity": 64,
                "duration": 0.0318181818181813,
                "tempo": 120.0
            },
            {
                "start_time": 22.82272727272727,
                "end_time": 22.84090909090909,
                "pitch": 23,
                "velocity": 64,
                "duration": 0.01818181818181941,
                "tempo": 120.0
            },
            {
                "start_time": 34.12272727272727,
                "end_time": 34.138636363636365,
                "pitch": 28,
                "velocity": 64,
                "duration": 0.015909090909097756,
                "tempo": 120.0
            },
            {
                "start_time": 34.138636363636365,
                "end_time": 34.17045454545455,
                "pitch": 26,
                "velocity": 64,
                "duration": 0.0318181818181813,
                "tempo": 120.0
            },
            {
                "start_time": 34.17045454545455,
                "end_time": 34.18863636363636,
                "pitch": 23,
                "velocity": 64,
                "duration": 0.018181818181815856,
                "tempo": 120.0
            },
            {
                "start_time": 34.22272727272727,
                "end_time": 34.23863636363636,
                "pitch": 28,
                "velocity": 64,
                "duration": 0.01590909090909065,
                "tempo": 120.0
            },
            {
                "start_time": 34.23863636363636,
                "end_time": 34.27272727272727,
                "pitch": 26,
                "velocity": 64,
                "duration": 0.03409090909091361,
                "tempo": 120.0
            }
        ]
    }
}