{
    "track_id": "11 Stage 6",
    "mood": "angry",
    "instruments": {
        "Electric Piano 1": [
            {
                "start_time": 1.018181818181818,
                "end_time": 1.1863636363636363,
                "pitch": 57,
                "velocity": 51,
                "duration": 0.1681818181818182,
                "tempo": 120.0
            },
            {
                "start_time": 1.1863636363636363,
                "end_time": 1.3545454545454545,
                "pitch": 60,
                "velocity": 51,
                "duration": 0.1681818181818182,
                "tempo": 120.0
            },
            {
                "start_time": 1.3545454545454545,
                "end_time": 2.034090909090909,
                "pitch": 59,
                "velocity": 51,
                "duration": 0.6795454545454547,
                "tempo": 120.0
            },
            {
                "start_time": 2.034090909090909,
                "end_time": 2.7136363636363634,
                "pitch": 52,
                "velocity": 51,
                "duration": 0.6795454545454542,
                "tempo": 120.0
            },
            {
                "start_time": 3.7295454545454545,
                "end_time": 3.8977272727272725,
                "pitch": 57,
                "velocity": 51,
                "duration": 0.168181818181818,
                "tempo": 120.0
            },
            {
                "start_time": 3.8977272727272725,
                "end_time": 4.0659090909090905,
                "pitch": 60,
                "velocity": 51,
                "duration": 0.168181818181818,
                "tempo": 120.0
            },
            {
                "start_time": 4.0659090909090905,
                "end_time": 4.745454545454545,
                "pitch": 59,
                "velocity": 51,
                "duration": 0.6795454545454547,
                "tempo": 120.0
            },
            {
                "start_time": 4.745454545454545,
                "end_time": 5.425,
                "pitch": 56,
                "velocity": 51,
                "duration": 0.6795454545454547,
                "tempo": 120.0
            },
            {
                "start_time": 6.4409090909090905,
                "end_time": 6.6068181818181815,
                "pitch": 57,
                "velocity": 51,
                "duration": 0.165909090909091,
                "tempo": 120.0
            },
            {
                "start_time": 6.6090909090909085,
                "end_time": 6.777272727272727,
                "pitch": 60,
                "velocity": 51,
                "duration": 0.16818181818181888,
                "tempo": 120.0
            },
            {
                "start_time": 6.777272727272727,
                "end_time": 7.456818181818181,
                "pitch": 59,
                "velocity": 51,
                "duration": 0.6795454545454538,
                "tempo": 120.0
            },
            {
                "start_time": 7.456818181818181,
                "end_time": 8.136363636363637,
                "pitch": 52,
                "velocity": 51,
                "duration": 0.6795454545454556,
                "tempo": 120.0
            },
            {
                "start_time": 9.152272727272727,
                "end_time": 9.318181818181818,
                "pitch": 57,
                "velocity": 51,
                "duration": 0.165909090909091,
                "tempo": 120.0
            },
            {
                "start_time": 9.318181818181818,
                "end_time": 9.486363636363636,
                "pitch": 60,
                "velocity": 51,
                "duration": 0.168181818181818,
                "tempo": 120.0
            },
            {
                "start_time": 9.488636363636363,
                "end_time": 10.165909090909091,
                "pitch": 59,
                "velocity": 51,
                "duration": 0.6772727272727277,
                "tempo": 120.0
            },
            {
                "start_time": 10.168181818181818,
                "end_time": 10.847727272727273,
                "pitch": 56,
                "velocity": 51,
                "duration": 0.6795454545454547,
                "tempo": 120.0
            },
            {
                "start_time": 21.693181818181817,
                "end_time": 21.85909090909091,
                "pitch": 59,
                "velocity": 25,
                "duration": 0.16590909090909278,
                "tempo": 120.0
            },
            {
                "start_time": 21.85909090909091,
                "end_time": 22.027272727272727,
                "pitch": 60,
                "velocity": 25,
                "duration": 0.168181818181818,
                "tempo": 120.0
            },
            {
                "start_time": 22.027272727272727,
                "end_time": 22.19772727272727,
                "pitch": 59,
                "velocity": 25,
                "duration": 0.1704545454545432,
                "tempo": 120.0
            },
            {
                "start_time": 22.2,
                "end_time": 22.37272727272727,
                "pitch": 60,
                "velocity": 25,
                "duration": 0.17272727272727195,
                "tempo": 120.0
            },
            {
                "start_time": 22.37272727272727,
                "end_time": 22.538636363636364,
                "pitch": 59,
                "velocity": 32,
                "duration": 0.16590909090909278,
                "tempo": 120.0
            },
            {
                "start_time": 22.538636363636364,
                "end_time": 22.709090909090907,
                "pitch": 60,
                "velocity": 32,
                "duration": 0.1704545454545432,
                "tempo": 120.0
            },
            {
                "start_time": 22.709090909090907,
                "end_time": 22.875,
                "pitch": 59,
                "velocity": 32,
                "duration": 0.16590909090909278,
                "tempo": 120.0
            },
            {
                "start_time": 22.875,
                "end_time": 23.043181818181818,
                "pitch": 60,
                "velocity": 32,
                "duration": 0.168181818181818,
                "tempo": 120.0
            },
            {
                "start_time": 23.043181818181818,
                "end_time": 23.21363636363636,
                "pitch": 59,
                "velocity": 40,
                "duration": 0.1704545454545432,
                "tempo": 120.0
            },
            {
                "start_time": 23.21363636363636,
                "end_time": 23.388636363636362,
                "pitch": 60,
                "velocity": 40,
                "duration": 0.1750000000000007,
                "tempo": 120.0
            },
            {
                "start_time": 23.388636363636362,
                "end_time": 23.554545454545455,
                "pitch": 59,
                "velocity": 40,
                "duration": 0.16590909090909278,
                "tempo": 120.0
            },
            {
                "start_time": 23.554545454545455,
                "end_time": 23.722727272727273,
                "pitch": 60,
                "velocity": 40,
                "duration": 0.168181818181818,
                "tempo": 120.0
            },
            {
                "start_time": 23.722727272727273,
                "end_time": 23.893181818181816,
                "pitch": 59,
                "velocity": 51,
                "duration": 0.1704545454545432,
                "tempo": 120.0
            },
            {
                "start_time": 23.895454545454545,
                "end_time": 24.068181818181817,
                "pitch": 60,
                "velocity": 51,
                "duration": 0.17272727272727195,
                "tempo": 120.0
            },
            {
                "start_time": 24.068181818181817,
                "end_time": 24.23409090909091,
                "pitch": 59,
                "velocity": 51,
                "duration": 0.16590909090909278,
                "tempo": 120.0
            },
            {
                "start_time": 24.23409090909091,
                "end_time": 24.402272727272727,
                "pitch": 60,
                "velocity": 51,
                "duration": 0.168181818181818,
                "tempo": 120.0
            },
            {
                "start_time": 24.402272727272727,
                "end_time": 24.570454545454545,
                "pitch": 59,
                "velocity": 64,
                "duration": 0.168181818181818,
                "tempo": 120.0
            },
            {
                "start_time": 24.570454545454545,
                "end_time": 24.738636363636363,
                "pitch": 60,
                "velocity": 64,
                "duration": 0.168181818181818,
                "tempo": 120.0
            },
            {
                "start_time": 24.738636363636363,
                "end_time": 24.909090909090907,
                "pitch": 59,
                "velocity": 64,
                "duration": 0.1704545454545432,
                "tempo": 120.0
            },
            {
                "start_time": 24.909090909090907,
                "end_time": 25.084090909090907,
                "pitch": 60,
                "velocity": 64,
                "duration": 0.1750000000000007,
                "tempo": 120.0
            },
            {
                "start_time": 25.084090909090907,
                "end_time": 25.25,
                "pitch": 59,
                "velocity": 80,
                "duration": 0.16590909090909278,
                "tempo": 120.0
            },
            {
                "start_time": 25.25,
                "end_time": 25.418181818181818,
                "pitch": 60,
                "velocity": 80,
                "duration": 0.168181818181818,
                "tempo": 120.0
            },
            {
                "start_time": 25.420454545454543,
                "end_time": 25.59090909090909,
                "pitch": 59,
                "velocity": 80,
                "duration": 0.17045454545454675,
                "tempo": 120.0
            },
            {
                "start_time": 25.59090909090909,
                "end_time": 25.763636363636362,
                "pitch": 60,
                "velocity": 80,
                "duration": 0.17272727272727195,
                "tempo": 120.0
            },
            {
                "start_time": 25.763636363636362,
                "end_time": 25.929545454545455,
                "pitch": 59,
                "velocity": 80,
                "duration": 0.16590909090909278,
                "tempo": 120.0
            },
            {
                "start_time": 25.929545454545455,
                "end_time": 26.099999999999998,
                "pitch": 60,
                "velocity": 80,
                "duration": 0.1704545454545432,
                "tempo": 120.0
            },
            {
                "start_time": 26.099999999999998,
                "end_time": 26.26590909090909,
                "pitch": 59,
                "velocity": 80,
                "duration": 0.16590909090909278,
                "tempo": 120.0
            },
            {
                "start_time": 26.26590909090909,
                "end_time": 26.43409090909091,
                "pitch": 60,
                "velocity": 80,
                "duration": 0.168181818181818,
                "tempo": 120.0
            },
            {
                "start_time": 26.43409090909091,
                "end_time": 26.604545454545452,
                "pitch": 59,
                "velocity": 80,
                "duration": 0.1704545454545432,
                "tempo": 120.0
            },
            {
                "start_time": 26.60681818181818,
                "end_time": 26.779545454545453,
                "pitch": 60,
                "velocity": 80,
                "duration": 0.17272727272727195,
                "tempo": 120.0
            },
            {
                "start_time": 26.779545454545453,
                "end_time": 26.945454545454545,
                "pitch": 59,
                "velocity": 80,
                "duration": 0.16590909090909278,
                "tempo": 120.0
            },
            {
                "start_time": 26.945454545454545,
                "end_time": 27.113636363636363,
                "pitch": 60,
                "velocity": 80,
                "duration": 0.168181818181818,
                "tempo": 120.0
            }
        ],
        "Synth Bass 1": [
            {
                "start_time": 0.006818181818181818,
                "end_time": 0.08409090909090909,
                "pitch": 81,
                "velocity": 80,
                "duration": 0.07727272727272727,
                "tempo": 120.0
            },
            {
                "start_time": 0.17045454545454544,
                "end_time": 0.25227272727272726,
                "pitch": 81,
                "velocity": 40,
                "duration": 0.08181818181818182,
                "tempo": 120.0
            },
            {
                "start_time": 0.33636363636363636,
                "end_time": 0.42272727272727273,
                "pitch": 81,
                "velocity": 32,
                "duration": 0.08636363636363636,
                "tempo": 120.0
            },
            {
                "start_time": 0.509090909090909,
                "end_time": 0.5954545454545455,
                "pitch": 81,
                "velocity": 20,
                "duration": 0.08636363636363642,
                "tempo": 120.0
            },
            {
                "start_time": 0.6818181818181818,
                "end_time": 0.7636363636363636,
                "pitch": 76,
                "velocity": 80,
                "duration": 0.08181818181818179,
                "tempo": 120.0
            },
            {
                "start_time": 0.85,
                "end_time": 0.9318181818181818,
                "pitch": 76,
                "velocity": 40,
                "duration": 0.08181818181818179,
                "tempo": 120.0
            },
            {
                "start_time": 1.018181818181818,
                "end_time": 1.0999999999999999,
                "pitch": 76,
                "velocity": 32,
                "duration": 0.08181818181818179,
                "tempo": 120.0
            },
            {
                "start_time": 1.184090909090909,
                "end_time": 1.268181818181818,
                "pitch": 76,
                "velocity": 20,
                "duration": 0.084090909090909,
                "tempo": 120.0
            },
            {
                "start_time": 1.3545454545454545,
                "end_time": 1.4386363636363635,
                "pitch": 71,
                "velocity": 80,
                "duration": 0.084090909090909,
                "tempo": 120.0
            },
            {
                "start_time": 1.525,
                "end_time": 1.609090909090909,
                "pitch": 71,
                "velocity": 40,
                "duration": 0.084090909090909,
                "tempo": 120.0
            },
            {
                "start_time": 1.6977272727272728,
                "end_time": 1.7795454545454545,
                "pitch": 71,
                "velocity": 32,
                "duration": 0.08181818181818179,
                "tempo": 120.0
            },
            {
                "start_time": 1.8659090909090907,
                "end_time": 1.9477272727272725,
                "pitch": 71,
                "velocity": 20,
                "duration": 0.08181818181818179,
                "tempo": 120.0
            },
            {
                "start_time": 2.034090909090909,
                "end_time": 2.1159090909090907,
                "pitch": 68,
                "velocity": 80,
                "duration": 0.08181818181818157,
                "tempo": 120.0
            },
            {
                "start_time": 2.1999999999999997,
                "end_time": 2.284090909090909,
                "pitch": 68,
                "velocity": 40,
                "duration": 0.08409090909090944,
                "tempo": 120.0
            },
            {
                "start_time": 2.368181818181818,
                "end_time": 2.4545454545454546,
                "pitch": 68,
                "velocity": 32,
                "duration": 0.08636363636363642,
                "tempo": 120.0
            },
            {
                "start_time": 2.540909090909091,
                "end_time": 2.625,
                "pitch": 68,
                "velocity": 20,
                "duration": 0.084090909090909,
                "tempo": 120.0
            },
            {
                "start_time": 2.7136363636363634,
                "end_time": 2.7954545454545454,
                "pitch": 81,
                "velocity": 80,
                "duration": 0.08181818181818201,
                "tempo": 120.0
            },
            {
                "start_time": 2.881818181818182,
                "end_time": 2.9636363636363634,
                "pitch": 81,
                "velocity": 40,
                "duration": 0.08181818181818157,
                "tempo": 120.0
            },
            {
                "start_time": 3.0477272727272724,
                "end_time": 3.134090909090909,
                "pitch": 81,
                "velocity": 32,
                "duration": 0.08636363636363642,
                "tempo": 120.0
            },
            {
                "start_time": 3.2204545454545452,
                "end_time": 3.3068181818181817,
                "pitch": 81,
                "velocity": 20,
                "duration": 0.08636363636363642,
                "tempo": 120.0
            },
            {
                "start_time": 3.393181818181818,
                "end_time": 3.4749999999999996,
                "pitch": 76,
                "velocity": 80,
                "duration": 0.08181818181818157,
                "tempo": 120.0
            },
            {
                "start_time": 3.561363636363636,
                "end_time": 3.643181818181818,
                "pitch": 76,
                "velocity": 40,
                "duration": 0.08181818181818201,
                "tempo": 120.0
            },
            {
                "start_time": 3.727272727272727,
                "end_time": 3.811363636363636,
                "pitch": 76,
                "velocity": 32,
                "duration": 0.084090909090909,
                "tempo": 120.0
            },
            {
                "start_time": 3.895454545454545,
                "end_time": 3.9795454545454545,
                "pitch": 76,
                "velocity": 20,
                "duration": 0.08409090909090944,
                "tempo": 120.0
            },
            {
                "start_time": 4.0659090909090905,
                "end_time": 4.1499999999999995,
                "pitch": 71,
                "velocity": 80,
                "duration": 0.084090909090909,
                "tempo": 120.0
            },
            {
                "start_time": 4.236363636363636,
                "end_time": 4.320454545454545,
                "pitch": 71,
                "velocity": 40,
                "duration": 0.084090909090909,
                "tempo": 120.0
            },
            {
                "start_time": 4.409090909090909,
                "end_time": 4.49090909090909,
                "pitch": 71,
                "velocity": 32,
                "duration": 0.08181818181818112,
                "tempo": 120.0
            },
            {
                "start_time": 4.577272727272727,
                "end_time": 4.659090909090909,
                "pitch": 71,
                "velocity": 20,
                "duration": 0.08181818181818201,
                "tempo": 120.0
            },
            {
                "start_time": 4.743181818181818,
                "end_time": 4.827272727272727,
                "pitch": 64,
                "velocity": 80,
                "duration": 0.084090909090909,
                "tempo": 120.0
            },
            {
                "start_time": 4.911363636363636,
                "end_time": 4.995454545454545,
                "pitch": 64,
                "velocity": 40,
                "duration": 0.084090909090909,
                "tempo": 120.0
            },
            {
                "start_time": 5.079545454545454,
                "end_time": 5.163636363636363,
                "pitch": 64,
                "velocity": 32,
                "duration": 0.084090909090909,
                "tempo": 120.0
            },
            {
                "start_time": 5.252272727272727,
                "end_time": 5.336363636363636,
                "pitch": 64,
                "velocity": 20,
                "duration": 0.084090909090909,
                "tempo": 120.0
            },
            {
                "start_time": 5.425,
                "end_time": 5.506818181818182,
                "pitch": 81,
                "velocity": 80,
                "duration": 0.08181818181818201,
                "tempo": 120.0
            },
            {
                "start_time": 5.593181818181818,
                "end_time": 5.675,
                "pitch": 81,
                "velocity": 40,
                "duration": 0.08181818181818201,
                "tempo": 120.0
            },
            {
                "start_time": 5.759090909090909,
                "end_time": 5.843181818181818,
                "pitch": 81,
                "velocity": 32,
                "duration": 0.084090909090909,
                "tempo": 120.0
            },
            {
                "start_time": 5.927272727272727,
                "end_time": 6.009090909090909,
                "pitch": 81,
                "velocity": 20,
                "duration": 0.08181818181818201,
                "tempo": 120.0
            },
            {
                "start_time": 6.095454545454545,
                "end_time": 6.179545454545455,
                "pitch": 76,
                "velocity": 80,
                "duration": 0.08409090909090988,
                "tempo": 120.0
            },
            {
                "start_time": 6.268181818181818,
                "end_time": 6.352272727272727,
                "pitch": 76,
                "velocity": 40,
                "duration": 0.084090909090909,
                "tempo": 120.0
            },
            {
                "start_time": 6.4386363636363635,
                "end_time": 6.5227272727272725,
                "pitch": 76,
                "velocity": 32,
                "duration": 0.084090909090909,
                "tempo": 120.0
            },
            {
                "start_time": 6.6068181818181815,
                "end_time": 6.6909090909090905,
                "pitch": 76,
                "velocity": 20,
                "duration": 0.084090909090909,
                "tempo": 120.0
            },
            {
                "start_time": 6.7749999999999995,
                "end_time": 6.8590909090909085,
                "pitch": 71,
                "velocity": 80,
                "duration": 0.084090909090909,
                "tempo": 120.0
            },
            {
                "start_time": 6.947727272727272,
                "end_time": 7.031818181818181,
                "pitch": 71,
                "velocity": 40,
                "duration": 0.084090909090909,
                "tempo": 120.0
            },
            {
                "start_time": 7.120454545454545,
                "end_time": 7.202272727272727,
                "pitch": 71,
                "velocity": 32,
                "duration": 0.08181818181818201,
                "tempo": 120.0
            },
            {
                "start_time": 7.288636363636363,
                "end_time": 7.370454545454545,
                "pitch": 71,
                "velocity": 20,
                "duration": 0.08181818181818201,
                "tempo": 120.0
            },
            {
                "start_time": 7.454545454545454,
                "end_time": 7.538636363636363,
                "pitch": 68,
                "velocity": 80,
                "duration": 0.084090909090909,
                "tempo": 120.0
            },
            {
                "start_time": 7.622727272727272,
                "end_time": 7.704545454545454,
                "pitch": 68,
                "velocity": 40,
                "duration": 0.08181818181818201,
                "tempo": 120.0
            },
            {
                "start_time": 7.79090909090909,
                "end_time": 7.875,
                "pitch": 68,
                "velocity": 32,
                "duration": 0.08409090909090988,
                "tempo": 120.0
            },
            {
                "start_time": 7.963636363636363,
                "end_time": 8.047727272727272,
                "pitch": 68,
                "velocity": 20,
                "duration": 0.084090909090909,
                "tempo": 120.0
            },
            {
                "start_time": 8.136363636363637,
                "end_time": 8.218181818181817,
                "pitch": 81,
                "velocity": 80,
                "duration": 0.08181818181818024,
                "tempo": 120.0
            },
            {
                "start_time": 8.302272727272728,
                "end_time": 8.386363636363637,
                "pitch": 81,
                "velocity": 40,
                "duration": 0.084090909090909,
                "tempo": 120.0
            },
            {
                "start_time": 8.470454545454546,
                "end_time": 8.556818181818182,
                "pitch": 81,
                "velocity": 32,
                "duration": 0.08636363636363598,
                "tempo": 120.0
            },
            {
                "start_time": 8.643181818181818,
                "end_time": 8.727272727272727,
                "pitch": 81,
                "velocity": 20,
                "duration": 0.084090909090909,
                "tempo": 120.0
            },
            {
                "start_time": 8.815909090909091,
                "end_time": 8.897727272727272,
                "pitch": 76,
                "velocity": 80,
                "duration": 0.08181818181818024,
                "tempo": 120.0
            },
            {
                "start_time": 8.98409090909091,
                "end_time": 9.06590909090909,
                "pitch": 76,
                "velocity": 40,
                "duration": 0.08181818181818024,
                "tempo": 120.0
            },
            {
                "start_time": 9.15,
                "end_time": 9.23409090909091,
                "pitch": 76,
                "velocity": 32,
                "duration": 0.084090909090909,
                "tempo": 120.0
            },
            {
                "start_time": 9.318181818181818,
                "end_time": 9.402272727272727,
                "pitch": 76,
                "velocity": 20,
                "duration": 0.084090909090909,
                "tempo": 120.0
            },
            {
                "start_time": 9.486363636363636,
                "end_time": 9.570454545454545,
                "pitch": 71,
                "velocity": 80,
                "duration": 0.084090909090909,
                "tempo": 120.0
            },
            {
                "start_time": 9.659090909090908,
                "end_time": 9.743181818181817,
                "pitch": 71,
                "velocity": 40,
                "duration": 0.084090909090909,
                "tempo": 120.0
            },
            {
                "start_time": 9.831818181818182,
                "end_time": 9.913636363636364,
                "pitch": 71,
                "velocity": 32,
                "duration": 0.08181818181818201,
                "tempo": 120.0
            },
            {
                "start_time": 10.0,
                "end_time": 10.081818181818182,
                "pitch": 71,
                "velocity": 20,
                "duration": 0.08181818181818201,
                "tempo": 120.0
            },
            {
                "start_time": 10.165909090909091,
                "end_time": 10.25,
                "pitch": 64,
                "velocity": 80,
                "duration": 0.084090909090909,
                "tempo": 120.0
            },
            {
                "start_time": 10.334090909090909,
                "end_time": 10.415909090909091,
                "pitch": 64,
                "velocity": 40,
                "duration": 0.08181818181818201,
                "tempo": 120.0
            },
            {
                "start_time": 10.502272727272727,
                "end_time": 10.586363636363636,
                "pitch": 64,
                "velocity": 32,
                "duration": 0.084090909090909,
                "tempo": 120.0
            },
            {
                "start_time": 10.674999999999999,
                "end_time": 10.759090909090908,
                "pitch": 64,
                "velocity": 20,
                "duration": 0.084090909090909,
                "tempo": 120.0
            }
        ],
        "Lead 2 (sawtooth)": [
            {
                "start_time": 22.027272727272727,
                "end_time": 22.370454545454546,
                "pitch": 56,
                "velocity": 64,
                "duration": 0.3431818181818187,
                "tempo": 120.0
            },
            {
                "start_time": 22.370454545454546,
                "end_time": 22.706818181818182,
                "pitch": 57,
                "velocity": 64,
                "duration": 0.336363636363636,
                "tempo": 120.0
            },
            {
                "start_time": 22.706818181818182,
                "end_time": 23.04090909090909,
                "pitch": 59,
                "velocity": 64,
                "duration": 0.3340909090909072,
                "tempo": 120.0
            },
            {
                "start_time": 23.386363636363637,
                "end_time": 23.722727272727273,
                "pitch": 56,
                "velocity": 64,
                "duration": 0.336363636363636,
                "tempo": 120.0
            },
            {
                "start_time": 23.722727272727273,
                "end_time": 24.06590909090909,
                "pitch": 59,
                "velocity": 64,
                "duration": 0.3431818181818187,
                "tempo": 120.0
            },
            {
                "start_time": 24.06590909090909,
                "end_time": 24.402272727272727,
                "pitch": 57,
                "velocity": 64,
                "duration": 0.336363636363636,
                "tempo": 120.0
            },
            {
                "start_time": 24.738636363636363,
                "end_time": 25.081818181818182,
                "pitch": 56,
                "velocity": 64,
                "duration": 0.3431818181818187,
                "tempo": 120.0
            },
            {
                "start_time": 25.081818181818182,
                "end_time": 25.418181818181818,
                "pitch": 57,
                "velocity": 64,
                "duration": 0.336363636363636,
                "tempo": 120.0
            },
            {
                "start_time": 25.418181818181818,
                "end_time": 25.761363636363637,
                "pitch": 59,
                "velocity": 64,
                "duration": 0.3431818181818187,
                "tempo": 120.0
            },
            {
                "start_time": 26.097727272727273,
                "end_time": 26.43409090909091,
                "pitch": 56,
                "velocity": 64,
                "duration": 0.336363636363636,
                "tempo": 120.0
            },
            {
                "start_time": 26.43409090909091,
                "end_time": 26.777272727272727,
                "pitch": 59,
                "velocity": 64,
                "duration": 0.3431818181818187,
                "tempo": 120.0
            },
            {
                "start_time": 26.777272727272727,
                "end_time": 27.113636363636363,
                "pitch": 57,
                "velocity": 64,
                "duration": 0.336363636363636,
                "tempo": 120.0
            }
        ],
        "Acoustic Grand Piano": [
            {
                "start_time": 10.847727272727273,
                "end_time": 11.354545454545454,
                "pitch": 74,
                "velocity": 51,
                "duration": 0.506818181818181,
                "tempo": 120.0
            },
            {
                "start_time": 11.354545454545454,
                "end_time": 11.861363636363636,
                "pitch": 69,
                "velocity": 51,
                "duration": 0.5068181818181827,
                "tempo": 120.0
            },
            {
                "start_time": 11.861363636363636,
                "end_time": 12.206818181818182,
                "pitch": 74,
                "velocity": 51,
                "duration": 0.3454545454545457,
                "tempo": 120.0
            },
            {
                "start_time": 12.206818181818182,
                "end_time": 12.709090909090909,
                "pitch": 72,
                "velocity": 51,
                "duration": 0.502272727272727,
                "tempo": 120.0
            },
            {
                "start_time": 12.709090909090909,
                "end_time": 13.222727272727273,
                "pitch": 67,
                "velocity": 51,
                "duration": 0.5136363636363637,
                "tempo": 120.0
            },
            {
                "start_time": 13.222727272727273,
                "end_time": 13.556818181818182,
                "pitch": 72,
                "velocity": 51,
                "duration": 0.334090909090909,
                "tempo": 120.0
            },
            {
                "start_time": 13.559090909090909,
                "end_time": 14.06590909090909,
                "pitch": 74,
                "velocity": 51,
                "duration": 0.506818181818181,
                "tempo": 120.0
            },
            {
                "start_time": 14.06590909090909,
                "end_time": 14.572727272727272,
                "pitch": 70,
                "velocity": 51,
                "duration": 0.5068181818181827,
                "tempo": 120.0
            },
            {
                "start_time": 14.572727272727272,
                "end_time": 14.909090909090908,
                "pitch": 74,
                "velocity": 51,
                "duration": 0.336363636363636,
                "tempo": 120.0
            },
            {
                "start_time": 14.909090909090908,
                "end_time": 16.268181818181816,
                "pitch": 73,
                "velocity": 51,
                "duration": 1.3590909090909076,
                "tempo": 120.0
            },
            {
                "start_time": 16.268181818181816,
                "end_time": 16.777272727272727,
                "pitch": 74,
                "velocity": 51,
                "duration": 0.5090909090909115,
                "tempo": 120.0
            },
            {
                "start_time": 16.777272727272727,
                "end_time": 17.284090909090907,
                "pitch": 69,
                "velocity": 51,
                "duration": 0.5068181818181792,
                "tempo": 120.0
            },
            {
                "start_time": 17.284090909090907,
                "end_time": 17.629545454545454,
                "pitch": 74,
                "velocity": 51,
                "duration": 0.34545454545454746,
                "tempo": 120.0
            },
            {
                "start_time": 17.629545454545454,
                "end_time": 18.13181818181818,
                "pitch": 72,
                "velocity": 51,
                "duration": 0.5022727272727252,
                "tempo": 120.0
            },
            {
                "start_time": 18.13181818181818,
                "end_time": 18.643181818181816,
                "pitch": 74,
                "velocity": 51,
                "duration": 0.5113636363636367,
                "tempo": 120.0
            },
            {
                "start_time": 18.645454545454545,
                "end_time": 18.979545454545455,
                "pitch": 76,
                "velocity": 51,
                "duration": 0.33409090909091077,
                "tempo": 120.0
            },
            {
                "start_time": 18.979545454545455,
                "end_time": 19.488636363636363,
                "pitch": 79,
                "velocity": 51,
                "duration": 0.5090909090909079,
                "tempo": 120.0
            },
            {
                "start_time": 19.488636363636363,
                "end_time": 19.995454545454546,
                "pitch": 77,
                "velocity": 51,
                "duration": 0.5068181818181827,
                "tempo": 120.0
            },
            {
                "start_time": 19.995454545454546,
                "end_time": 20.34090909090909,
                "pitch": 76,
                "velocity": 51,
                "duration": 0.3454545454545439,
                "tempo": 120.0
            },
            {
                "start_time": 20.34090909090909,
                "end_time": 21.69090909090909,
                "pitch": 73,
                "velocity": 51,
                "duration": 1.3500000000000014,
                "tempo": 120.0
            }
        ],
        "Violin": [
            {
                "start_time": 0.004545454545454545,
                "end_time": 2.368181818181818,
                "pitch": 93,
                "velocity": 80,
                "duration": 2.3636363636363638,
                "tempo": 120.0
            },
            {
                "start_time": 2.368181818181818,
                "end_time": 2.7136363636363634,
                "pitch": 92,
                "velocity": 80,
                "duration": 0.34545454545454524,
                "tempo": 120.0
            },
            {
                "start_time": 2.7136363636363634,
                "end_time": 5.079545454545454,
                "pitch": 93,
                "velocity": 80,
                "duration": 2.3659090909090907,
                "tempo": 120.0
            },
            {
                "start_time": 5.079545454545454,
                "end_time": 5.425,
                "pitch": 92,
                "velocity": 80,
                "duration": 0.3454545454545457,
                "tempo": 120.0
            },
            {
                "start_time": 5.425,
                "end_time": 7.79090909090909,
                "pitch": 93,
                "velocity": 80,
                "duration": 2.3659090909090903,
                "tempo": 120.0
            },
            {
                "start_time": 7.79090909090909,
                "end_time": 8.134090909090908,
                "pitch": 92,
                "velocity": 80,
                "duration": 0.3431818181818178,
                "tempo": 120.0
            },
            {
                "start_time": 8.136363636363637,
                "end_time": 10.5,
                "pitch": 93,
                "velocity": 80,
                "duration": 2.3636363636363633,
                "tempo": 120.0
            },
            {
                "start_time": 10.502272727272727,
                "end_time": 10.845454545454546,
                "pitch": 92,
                "velocity": 80,
                "duration": 0.3431818181818187,
                "tempo": 120.0
            }
        ],
        "Acoustic Guitar (nylon)": [
            {
                "start_time": 0.0022727272727272726,
                "end_time": 0.11818181818181818,
                "pitch": 33,
                "velocity": 101,
                "duration": 0.1159090909090909,
                "tempo": 120.0
            },
            {
                "start_time": 0.16818181818181818,
                "end_time": 0.42272727272727273,
                "pitch": 33,
                "velocity": 101,
                "duration": 0.2545454545454545,
                "tempo": 120.0
            },
            {
                "start_time": 0.509090909090909,
                "end_time": 0.6295454545454545,
                "pitch": 33,
                "velocity": 101,
                "duration": 0.12045454545454548,
                "tempo": 120.0
            },
            {
                "start_time": 0.6818181818181818,
                "end_time": 0.7977272727272727,
                "pitch": 36,
                "velocity": 101,
                "duration": 0.11590909090909096,
                "tempo": 120.0
            },
            {
                "start_time": 0.85,
                "end_time": 1.0999999999999999,
                "pitch": 36,
                "velocity": 101,
                "duration": 0.2499999999999999,
                "tempo": 120.0
            },
            {
                "start_time": 1.184090909090909,
                "end_time": 1.3,
                "pitch": 36,
                "velocity": 101,
                "duration": 0.11590909090909096,
                "tempo": 120.0
            },
            {
                "start_time": 1.3522727272727273,
                "end_time": 1.4727272727272727,
                "pitch": 35,
                "velocity": 101,
                "duration": 0.12045454545454537,
                "tempo": 120.0
            },
            {
                "start_time": 1.525,
                "end_time": 1.7795454545454545,
                "pitch": 35,
                "velocity": 101,
                "duration": 0.25454545454545463,
                "tempo": 120.0
            },
            {
                "start_time": 1.8636363636363635,
                "end_time": 1.9818181818181817,
                "pitch": 35,
                "velocity": 101,
                "duration": 0.11818181818181817,
                "tempo": 120.0
            },
            {
                "start_time": 2.0318181818181817,
                "end_time": 2.1477272727272725,
                "pitch": 40,
                "velocity": 101,
                "duration": 0.11590909090909074,
                "tempo": 120.0
            },
            {
                "start_time": 2.1999999999999997,
                "end_time": 2.452272727272727,
                "pitch": 40,
                "velocity": 101,
                "duration": 0.2522727272727274,
                "tempo": 120.0
            },
            {
                "start_time": 2.540909090909091,
                "end_time": 2.659090909090909,
                "pitch": 40,
                "velocity": 101,
                "duration": 0.11818181818181817,
                "tempo": 120.0
            },
            {
                "start_time": 2.7113636363636364,
                "end_time": 2.8295454545454546,
                "pitch": 33,
                "velocity": 101,
                "duration": 0.11818181818181817,
                "tempo": 120.0
            },
            {
                "start_time": 2.8795454545454544,
                "end_time": 3.134090909090909,
                "pitch": 33,
                "velocity": 101,
                "duration": 0.2545454545454544,
                "tempo": 120.0
            },
            {
                "start_time": 3.2204545454545452,
                "end_time": 3.340909090909091,
                "pitch": 33,
                "velocity": 101,
                "duration": 0.12045454545454559,
                "tempo": 120.0
            },
            {
                "start_time": 3.393181818181818,
                "end_time": 3.509090909090909,
                "pitch": 36,
                "velocity": 101,
                "duration": 0.11590909090909074,
                "tempo": 120.0
            },
            {
                "start_time": 3.561363636363636,
                "end_time": 3.811363636363636,
                "pitch": 36,
                "velocity": 101,
                "duration": 0.25,
                "tempo": 120.0
            },
            {
                "start_time": 3.895454545454545,
                "end_time": 4.011363636363636,
                "pitch": 36,
                "velocity": 101,
                "duration": 0.11590909090909074,
                "tempo": 120.0
            },
            {
                "start_time": 4.0636363636363635,
                "end_time": 4.184090909090909,
                "pitch": 35,
                "velocity": 101,
                "duration": 0.12045454545454515,
                "tempo": 120.0
            },
            {
                "start_time": 4.236363636363636,
                "end_time": 4.49090909090909,
                "pitch": 35,
                "velocity": 101,
                "duration": 0.25454545454545396,
                "tempo": 120.0
            },
            {
                "start_time": 4.575,
                "end_time": 4.693181818181818,
                "pitch": 35,
                "velocity": 101,
                "duration": 0.11818181818181817,
                "tempo": 120.0
            },
            {
                "start_time": 4.743181818181818,
                "end_time": 4.8590909090909085,
                "pitch": 40,
                "velocity": 101,
                "duration": 0.1159090909090903,
                "tempo": 120.0
            },
            {
                "start_time": 4.911363636363636,
                "end_time": 5.163636363636363,
                "pitch": 40,
                "velocity": 101,
                "duration": 0.252272727272727,
                "tempo": 120.0
            },
            {
                "start_time": 5.252272727272727,
                "end_time": 5.370454545454545,
                "pitch": 40,
                "velocity": 101,
                "duration": 0.11818181818181817,
                "tempo": 120.0
            },
            {
                "start_time": 5.422727272727273,
                "end_time": 5.540909090909091,
                "pitch": 33,
                "velocity": 101,
                "duration": 0.11818181818181817,
                "tempo": 120.0
            },
            {
                "start_time": 5.590909090909091,
                "end_time": 5.840909090909091,
                "pitch": 33,
                "velocity": 101,
                "duration": 0.25,
                "tempo": 120.0
            },
            {
                "start_time": 5.927272727272727,
                "end_time": 6.043181818181818,
                "pitch": 33,
                "velocity": 101,
                "duration": 0.11590909090909118,
                "tempo": 120.0
            },
            {
                "start_time": 6.095454545454545,
                "end_time": 6.213636363636363,
                "pitch": 36,
                "velocity": 101,
                "duration": 0.11818181818181817,
                "tempo": 120.0
            },
            {
                "start_time": 6.265909090909091,
                "end_time": 6.5227272727272725,
                "pitch": 36,
                "velocity": 101,
                "duration": 0.25681818181818183,
                "tempo": 120.0
            },
            {
                "start_time": 6.6068181818181815,
                "end_time": 6.722727272727273,
                "pitch": 36,
                "velocity": 101,
                "duration": 0.11590909090909118,
                "tempo": 120.0
            },
            {
                "start_time": 6.7749999999999995,
                "end_time": 6.893181818181818,
                "pitch": 35,
                "velocity": 101,
                "duration": 0.11818181818181817,
                "tempo": 120.0
            },
            {
                "start_time": 6.947727272727272,
                "end_time": 7.202272727272727,
                "pitch": 35,
                "velocity": 101,
                "duration": 0.25454545454545485,
                "tempo": 120.0
            },
            {
                "start_time": 7.286363636363636,
                "end_time": 7.404545454545454,
                "pitch": 35,
                "velocity": 101,
                "duration": 0.11818181818181817,
                "tempo": 120.0
            },
            {
                "start_time": 7.454545454545454,
                "end_time": 7.570454545454545,
                "pitch": 40,
                "velocity": 101,
                "duration": 0.11590909090909118,
                "tempo": 120.0
            },
            {
                "start_time": 7.622727272727272,
                "end_time": 7.875,
                "pitch": 40,
                "velocity": 101,
                "duration": 0.25227272727272787,
                "tempo": 120.0
            },
            {
                "start_time": 7.961363636363636,
                "end_time": 8.081818181818182,
                "pitch": 40,
                "velocity": 101,
                "duration": 0.12045454545454604,
                "tempo": 120.0
            },
            {
                "start_time": 8.134090909090908,
                "end_time": 8.252272727272727,
                "pitch": 33,
                "velocity": 101,
                "duration": 0.11818181818181905,
                "tempo": 120.0
            },
            {
                "start_time": 8.302272727272728,
                "end_time": 8.554545454545455,
                "pitch": 33,
                "velocity": 101,
                "duration": 0.252272727272727,
                "tempo": 120.0
            },
            {
                "start_time": 8.643181818181818,
                "end_time": 8.761363636363637,
                "pitch": 33,
                "velocity": 101,
                "duration": 0.11818181818181905,
                "tempo": 120.0
            },
            {
                "start_time": 8.815909090909091,
                "end_time": 8.931818181818182,
                "pitch": 36,
                "velocity": 101,
                "duration": 0.1159090909090903,
                "tempo": 120.0
            },
            {
                "start_time": 8.98181818181818,
                "end_time": 9.23409090909091,
                "pitch": 36,
                "velocity": 101,
                "duration": 0.25227272727272876,
                "tempo": 120.0
            },
            {
                "start_time": 9.318181818181818,
                "end_time": 9.434090909090909,
                "pitch": 36,
                "velocity": 101,
                "duration": 0.1159090909090903,
                "tempo": 120.0
            },
            {
                "start_time": 9.486363636363636,
                "end_time": 9.604545454545454,
                "pitch": 35,
                "velocity": 101,
                "duration": 0.11818181818181728,
                "tempo": 120.0
            },
            {
                "start_time": 9.659090909090908,
                "end_time": 9.913636363636364,
                "pitch": 35,
                "velocity": 101,
                "duration": 0.25454545454545574,
                "tempo": 120.0
            },
            {
                "start_time": 9.997727272727273,
                "end_time": 10.113636363636363,
                "pitch": 35,
                "velocity": 101,
                "duration": 0.1159090909090903,
                "tempo": 120.0
            },
            {
                "start_time": 10.165909090909091,
                "end_time": 10.281818181818181,
                "pitch": 40,
                "velocity": 101,
                "duration": 0.1159090909090903,
                "tempo": 120.0
            },
            {
                "start_time": 10.334090909090909,
                "end_time": 10.586363636363636,
                "pitch": 40,
                "velocity": 101,
                "duration": 0.252272727272727,
                "tempo": 120.0
            },
            {
                "start_time": 10.672727272727272,
                "end_time": 10.793181818181818,
                "pitch": 40,
                "velocity": 101,
                "duration": 0.12045454545454604,
                "tempo": 120.0
            },
            {
                "start_time": 10.845454545454546,
                "end_time": 10.961363636363636,
                "pitch": 38,
                "velocity": 101,
                "duration": 0.1159090909090903,
                "tempo": 120.0
            },
            {
                "start_time": 11.013636363636364,
                "end_time": 11.26590909090909,
                "pitch": 38,
                "velocity": 101,
                "duration": 0.252272727272727,
                "tempo": 120.0
            },
            {
                "start_time": 11.354545454545454,
                "end_time": 11.472727272727273,
                "pitch": 38,
                "velocity": 101,
                "duration": 0.11818181818181905,
                "tempo": 120.0
            },
            {
                "start_time": 11.524999999999999,
                "end_time": 11.643181818181818,
                "pitch": 38,
                "velocity": 101,
                "duration": 0.11818181818181905,
                "tempo": 120.0
            },
            {
                "start_time": 11.693181818181818,
                "end_time": 11.947727272727272,
                "pitch": 38,
                "velocity": 101,
                "duration": 0.25454545454545396,
                "tempo": 120.0
            },
            {
                "start_time": 12.034090909090908,
                "end_time": 12.154545454545454,
                "pitch": 38,
                "velocity": 101,
                "duration": 0.12045454545454604,
                "tempo": 120.0
            },
            {
                "start_time": 12.206818181818182,
                "end_time": 12.322727272727272,
                "pitch": 36,
                "velocity": 101,
                "duration": 0.1159090909090903,
                "tempo": 120.0
            },
            {
                "start_time": 12.375,
                "end_time": 12.625,
                "pitch": 36,
                "velocity": 101,
                "duration": 0.25,
                "tempo": 120.0
            },
            {
                "start_time": 12.709090909090909,
                "end_time": 12.825,
                "pitch": 36,
                "velocity": 101,
                "duration": 0.1159090909090903,
                "tempo": 120.0
            },
            {
                "start_time": 12.877272727272727,
                "end_time": 12.997727272727271,
                "pitch": 36,
                "velocity": 101,
                "duration": 0.12045454545454426,
                "tempo": 120.0
            },
            {
                "start_time": 13.049999999999999,
                "end_time": 13.304545454545455,
                "pitch": 36,
                "velocity": 101,
                "duration": 0.25454545454545574,
                "tempo": 120.0
            },
            {
                "start_time": 13.388636363636364,
                "end_time": 13.506818181818181,
                "pitch": 36,
                "velocity": 101,
                "duration": 0.11818181818181728,
                "tempo": 120.0
            },
            {
                "start_time": 13.556818181818182,
                "end_time": 13.672727272727272,
                "pitch": 34,
                "velocity": 101,
                "duration": 0.1159090909090903,
                "tempo": 120.0
            },
            {
                "start_time": 13.725,
                "end_time": 13.977272727272727,
                "pitch": 34,
                "velocity": 101,
                "duration": 0.252272727272727,
                "tempo": 120.0
            },
            {
                "start_time": 14.06590909090909,
                "end_time": 14.184090909090909,
                "pitch": 34,
                "velocity": 101,
                "duration": 0.11818181818181905,
                "tempo": 120.0
            },
            {
                "start_time": 14.236363636363636,
                "end_time": 14.354545454545454,
                "pitch": 34,
                "velocity": 101,
                "duration": 0.11818181818181728,
                "tempo": 120.0
            },
            {
                "start_time": 14.404545454545454,
                "end_time": 14.654545454545454,
                "pitch": 34,
                "velocity": 101,
                "duration": 0.25,
                "tempo": 120.0
            },
            {
                "start_time": 14.74090909090909,
                "end_time": 14.85681818181818,
                "pitch": 34,
                "velocity": 101,
                "duration": 0.1159090909090903,
                "tempo": 120.0
            },
            {
                "start_time": 14.909090909090908,
                "end_time": 15.027272727272727,
                "pitch": 33,
                "velocity": 101,
                "duration": 0.11818181818181905,
                "tempo": 120.0
            },
            {
                "start_time": 15.079545454545453,
                "end_time": 15.336363636363636,
                "pitch": 33,
                "velocity": 101,
                "duration": 0.2568181818181827,
                "tempo": 120.0
            },
            {
                "start_time": 15.420454545454545,
                "end_time": 15.536363636363635,
                "pitch": 33,
                "velocity": 101,
                "duration": 0.1159090909090903,
                "tempo": 120.0
            },
            {
                "start_time": 15.588636363636363,
                "end_time": 15.70681818181818,
                "pitch": 33,
                "velocity": 101,
                "duration": 0.11818181818181728,
                "tempo": 120.0
            },
            {
                "start_time": 15.761363636363635,
                "end_time": 16.01590909090909,
                "pitch": 33,
                "velocity": 101,
                "duration": 0.25454545454545574,
                "tempo": 120.0
            },
            {
                "start_time": 16.099999999999998,
                "end_time": 16.21818181818182,
                "pitch": 33,
                "velocity": 101,
                "duration": 0.11818181818182083,
                "tempo": 120.0
            },
            {
                "start_time": 16.268181818181816,
                "end_time": 16.384090909090908,
                "pitch": 38,
                "velocity": 101,
                "duration": 0.11590909090909207,
                "tempo": 120.0
            },
            {
                "start_time": 16.436363636363634,
                "end_time": 16.688636363636363,
                "pitch": 38,
                "velocity": 101,
                "duration": 0.25227272727272876,
                "tempo": 120.0
            },
            {
                "start_time": 16.775,
                "end_time": 16.895454545454545,
                "pitch": 38,
                "velocity": 101,
                "duration": 0.12045454545454604,
                "tempo": 120.0
            },
            {
                "start_time": 16.94772727272727,
                "end_time": 17.06590909090909,
                "pitch": 38,
                "velocity": 101,
                "duration": 0.11818181818182083,
                "tempo": 120.0
            },
            {
                "start_time": 17.11590909090909,
                "end_time": 17.368181818181817,
                "pitch": 38,
                "velocity": 101,
                "duration": 0.25227272727272876,
                "tempo": 120.0
            },
            {
                "start_time": 17.456818181818182,
                "end_time": 17.575,
                "pitch": 38,
                "velocity": 101,
                "duration": 0.11818181818181728,
                "tempo": 120.0
            },
            {
                "start_time": 17.629545454545454,
                "end_time": 17.745454545454546,
                "pitch": 36,
                "velocity": 101,
                "duration": 0.11590909090909207,
                "tempo": 120.0
            },
            {
                "start_time": 17.795454545454543,
                "end_time": 18.047727272727272,
                "pitch": 36,
                "velocity": 101,
                "duration": 0.25227272727272876,
                "tempo": 120.0
            },
            {
                "start_time": 18.13181818181818,
                "end_time": 18.24772727272727,
                "pitch": 36,
                "velocity": 101,
                "duration": 0.11590909090909207,
                "tempo": 120.0
            },
            {
                "start_time": 18.3,
                "end_time": 18.418181818181818,
                "pitch": 36,
                "velocity": 101,
                "duration": 0.11818181818181728,
                "tempo": 120.0
            },
            {
                "start_time": 18.472727272727273,
                "end_time": 18.727272727272727,
                "pitch": 36,
                "velocity": 101,
                "duration": 0.25454545454545396,
                "tempo": 120.0
            },
            {
                "start_time": 18.811363636363634,
                "end_time": 18.927272727272726,
                "pitch": 36,
                "velocity": 101,
                "duration": 0.11590909090909207,
                "tempo": 120.0
            },
            {
                "start_time": 18.979545454545455,
                "end_time": 19.095454545454544,
                "pitch": 34,
                "velocity": 101,
                "duration": 0.11590909090908852,
                "tempo": 120.0
            },
            {
                "start_time": 19.147727272727273,
                "end_time": 19.4,
                "pitch": 34,
                "velocity": 101,
                "duration": 0.2522727272727252,
                "tempo": 120.0
            },
            {
                "start_time": 19.486363636363635,
                "end_time": 19.60681818181818,
                "pitch": 34,
                "velocity": 101,
                "duration": 0.12045454545454604,
                "tempo": 120.0
            },
            {
                "start_time": 19.659090909090907,
                "end_time": 19.777272727272727,
                "pitch": 34,
                "velocity": 101,
                "duration": 0.11818181818182083,
                "tempo": 120.0
            },
            {
                "start_time": 19.827272727272728,
                "end_time": 20.079545454545453,
                "pitch": 34,
                "velocity": 101,
                "duration": 0.2522727272727252,
                "tempo": 120.0
            },
            {
                "start_time": 20.168181818181818,
                "end_time": 20.286363636363635,
                "pitch": 34,
                "velocity": 101,
                "duration": 0.11818181818181728,
                "tempo": 120.0
            },
            {
                "start_time": 20.34090909090909,
                "end_time": 20.456818181818182,
                "pitch": 33,
                "velocity": 101,
                "duration": 0.11590909090909207,
                "tempo": 120.0
            },
            {
                "start_time": 20.50681818181818,
                "end_time": 20.759090909090908,
                "pitch": 33,
                "velocity": 101,
                "duration": 0.25227272727272876,
                "tempo": 120.0
            },
            {
                "start_time": 20.84318181818182,
                "end_time": 20.959090909090907,
                "pitch": 33,
                "velocity": 101,
                "duration": 0.11590909090908852,
                "tempo": 120.0
            },
            {
                "start_time": 21.011363636363637,
                "end_time": 21.127272727272725,
                "pitch": 33,
                "velocity": 101,
                "duration": 0.11590909090908852,
                "tempo": 120.0
            },
            {
                "start_time": 21.177272727272726,
                "end_time": 21.43181818181818,
                "pitch": 33,
                "velocity": 101,
                "duration": 0.25454545454545396,
                "tempo": 120.0
            },
            {
                "start_time": 21.518181818181816,
                "end_time": 21.638636363636362,
                "pitch": 33,
                "velocity": 101,
                "duration": 0.12045454545454604,
                "tempo": 120.0
            },
            {
                "start_time": 21.69090909090909,
                "end_time": 21.94090909090909,
                "pitch": 40,
                "velocity": 101,
                "duration": 0.25,
                "tempo": 120.0
            },
            {
                "start_time": 22.025,
                "end_time": 22.284090909090907,
                "pitch": 35,
                "velocity": 101,
                "duration": 0.25909090909090793,
                "tempo": 120.0
            },
            {
                "start_time": 22.370454545454546,
                "end_time": 22.620454545454546,
                "pitch": 36,
                "velocity": 101,
                "duration": 0.25,
                "tempo": 120.0
            },
            {
                "start_time": 22.706818181818182,
                "end_time": 22.956818181818182,
                "pitch": 38,
                "velocity": 101,
                "duration": 0.25,
                "tempo": 120.0
            },
            {
                "start_time": 23.04090909090909,
                "end_time": 23.299999999999997,
                "pitch": 40,
                "velocity": 101,
                "duration": 0.25909090909090793,
                "tempo": 120.0
            },
            {
                "start_time": 23.386363636363637,
                "end_time": 23.636363636363637,
                "pitch": 35,
                "velocity": 101,
                "duration": 0.25,
                "tempo": 120.0
            },
            {
                "start_time": 23.722727272727273,
                "end_time": 23.979545454545452,
                "pitch": 43,
                "velocity": 101,
                "duration": 0.25681818181817917,
                "tempo": 120.0
            },
            {
                "start_time": 24.06590909090909,
                "end_time": 24.318181818181817,
                "pitch": 41,
                "velocity": 101,
                "duration": 0.2522727272727252,
                "tempo": 120.0
            },
            {
                "start_time": 24.402272727272727,
                "end_time": 24.652272727272727,
                "pitch": 40,
                "velocity": 101,
                "duration": 0.25,
                "tempo": 120.0
            },
            {
                "start_time": 24.736363636363635,
                "end_time": 24.995454545454542,
                "pitch": 35,
                "velocity": 101,
                "duration": 0.25909090909090793,
                "tempo": 120.0
            },
            {
                "start_time": 25.081818181818182,
                "end_time": 25.331818181818182,
                "pitch": 36,
                "velocity": 101,
                "duration": 0.25,
                "tempo": 120.0
            },
            {
                "start_time": 25.418181818181818,
                "end_time": 25.674999999999997,
                "pitch": 38,
                "velocity": 101,
                "duration": 0.25681818181817917,
                "tempo": 120.0
            },
            {
                "start_time": 25.761363636363637,
                "end_time": 26.013636363636362,
                "pitch": 40,
                "velocity": 101,
                "duration": 0.2522727272727252,
                "tempo": 120.0
            },
            {
                "start_time": 26.097727272727273,
                "end_time": 26.347727272727273,
                "pitch": 35,
                "velocity": 101,
                "duration": 0.25,
                "tempo": 120.0
            },
            {
                "start_time": 26.43181818181818,
                "end_time": 26.69090909090909,
                "pitch": 43,
                "velocity": 101,
                "duration": 0.2590909090909115,
                "tempo": 120.0
            },
            {
                "start_time": 26.777272727272727,
                "end_time": 27.029545454545453,
                "pitch": 41,
                "velocity": 101,
                "duration": 0.2522727272727252,
                "tempo": 120.0
            }
        ]
    }
}