{
    "track_id": "11 Stage-5",
    "mood": "angry",
    "instruments": {
        "Lead 2 (sawtooth)": [
            {
                "start_time": 7.218181818181818,
                "end_time": 9.045454545454545,
                "pitch": 60,
                "velocity": 127,
                "duration": 1.8272727272727272,
                "tempo": 120.0
            },
            {
                "start_time": 9.181818181818182,
                "end_time": 9.334090909090909,
                "pitch": 57,
                "velocity": 127,
                "duration": 0.15227272727272734,
                "tempo": 120.0
            },
            {
                "start_time": 9.334090909090909,
                "end_time": 9.5,
                "pitch": 59,
                "velocity": 127,
                "duration": 0.165909090909091,
                "tempo": 120.0
            },
            {
                "start_time": 9.334090909090909,
                "end_time": 9.5,
                "pitch": 59,
                "velocity": 127,
                "duration": 0.165909090909091,
                "tempo": 120.0
            },
            {
                "start_time": 9.634090909090908,
                "end_time": 11.452272727272726,
                "pitch": 60,
                "velocity": 127,
                "duration": 1.8181818181818183,
                "tempo": 120.0
            },
            {
                "start_time": 11.586363636363636,
                "end_time": 11.738636363636363,
                "pitch": 59,
                "velocity": 127,
                "duration": 0.15227272727272734,
                "tempo": 120.0
            },
            {
                "start_time": 11.738636363636363,
                "end_time": 11.906818181818181,
                "pitch": 57,
                "velocity": 127,
                "duration": 0.168181818181818,
                "tempo": 120.0
            },
            {
                "start_time": 11.738636363636363,
                "end_time": 11.906818181818181,
                "pitch": 57,
                "velocity": 127,
                "duration": 0.168181818181818,
                "tempo": 120.0
            },
            {
                "start_time": 12.040909090909091,
                "end_time": 13.245454545454544,
                "pitch": 52,
                "velocity": 127,
                "duration": 1.2045454545454533,
                "tempo": 120.0
            },
            {
                "start_time": 13.245454545454544,
                "end_time": 13.395454545454545,
                "pitch": 53,
                "velocity": 127,
                "duration": 0.15000000000000036,
                "tempo": 120.0
            },
            {
                "start_time": 13.395454545454545,
                "end_time": 13.545454545454545,
                "pitch": 55,
                "velocity": 127,
                "duration": 0.15000000000000036,
                "tempo": 120.0
            },
            {
                "start_time": 13.545454545454545,
                "end_time": 13.547727272727272,
                "pitch": 57,
                "velocity": 127,
                "duration": 0.002272727272726982,
                "tempo": 120.0
            },
            {
                "start_time": 13.547727272727272,
                "end_time": 13.7,
                "pitch": 57,
                "velocity": 127,
                "duration": 0.15227272727272734,
                "tempo": 120.0
            },
            {
                "start_time": 13.7,
                "end_time": 13.852272727272727,
                "pitch": 55,
                "velocity": 127,
                "duration": 0.15227272727272734,
                "tempo": 120.0
            },
            {
                "start_time": 13.7,
                "end_time": 13.852272727272727,
                "pitch": 55,
                "velocity": 127,
                "duration": 0.15227272727272734,
                "tempo": 120.0
            },
            {
                "start_time": 13.852272727272727,
                "end_time": 14.006818181818181,
                "pitch": 57,
                "velocity": 127,
                "duration": 0.15454545454545432,
                "tempo": 120.0
            },
            {
                "start_time": 13.852272727272727,
                "end_time": 14.006818181818181,
                "pitch": 57,
                "velocity": 127,
                "duration": 0.15454545454545432,
                "tempo": 120.0
            },
            {
                "start_time": 14.006818181818181,
                "end_time": 14.156818181818181,
                "pitch": 59,
                "velocity": 127,
                "duration": 0.15000000000000036,
                "tempo": 120.0
            },
            {
                "start_time": 14.006818181818181,
                "end_time": 14.156818181818181,
                "pitch": 59,
                "velocity": 127,
                "duration": 0.15000000000000036,
                "tempo": 120.0
            },
            {
                "start_time": 14.156818181818181,
                "end_time": 14.306818181818182,
                "pitch": 57,
                "velocity": 127,
                "duration": 0.15000000000000036,
                "tempo": 120.0
            },
            {
                "start_time": 14.156818181818181,
                "end_time": 14.306818181818182,
                "pitch": 57,
                "velocity": 127,
                "duration": 0.15000000000000036,
                "tempo": 120.0
            },
            {
                "start_time": 14.306818181818182,
                "end_time": 14.454545454545453,
                "pitch": 59,
                "velocity": 127,
                "duration": 0.1477272727272716,
                "tempo": 120.0
            },
            {
                "start_time": 14.306818181818182,
                "end_time": 14.454545454545453,
                "pitch": 59,
                "velocity": 127,
                "duration": 0.1477272727272716,
                "tempo": 120.0
            },
            {
                "start_time": 14.454545454545453,
                "end_time": 16.875,
                "pitch": 60,
                "velocity": 127,
                "duration": 2.4204545454545467,
                "tempo": 120.0
            },
            {
                "start_time": 16.875,
                "end_time": 18.38181818181818,
                "pitch": 59,
                "velocity": 127,
                "duration": 1.5068181818181792,
                "tempo": 120.0
            },
            {
                "start_time": 14.454545454545453,
                "end_time": 18.38181818181818,
                "pitch": 64,
                "velocity": 127,
                "duration": 3.927272727272726,
                "tempo": 120.0
            },
            {
                "start_time": 18.384090909090908,
                "end_time": 18.686363636363634,
                "pitch": 60,
                "velocity": 127,
                "duration": 0.3022727272727259,
                "tempo": 120.0
            },
            {
                "start_time": 18.686363636363634,
                "end_time": 18.988636363636363,
                "pitch": 62,
                "velocity": 127,
                "duration": 0.30227272727272947,
                "tempo": 120.0
            },
            {
                "start_time": 18.38181818181818,
                "end_time": 18.99090909090909,
                "pitch": 64,
                "velocity": 127,
                "duration": 0.6090909090909093,
                "tempo": 120.0
            },
            {
                "start_time": 18.988636363636363,
                "end_time": 18.99090909090909,
                "pitch": 64,
                "velocity": 127,
                "duration": 0.0022727272727252057,
                "tempo": 120.0
            },
            {
                "start_time": 18.99090909090909,
                "end_time": 19.293181818181818,
                "pitch": 64,
                "velocity": 127,
                "duration": 0.30227272727272947,
                "tempo": 120.0
            },
            {
                "start_time": 19.293181818181818,
                "end_time": 19.74772727272727,
                "pitch": 62,
                "velocity": 127,
                "duration": 0.45454545454545325,
                "tempo": 120.0
            },
            {
                "start_time": 19.293181818181818,
                "end_time": 19.74772727272727,
                "pitch": 62,
                "velocity": 127,
                "duration": 0.45454545454545325,
                "tempo": 120.0
            },
            {
                "start_time": 19.74772727272727,
                "end_time": 20.804545454545455,
                "pitch": 60,
                "velocity": 127,
                "duration": 1.0568181818181834,
                "tempo": 120.0
            },
            {
                "start_time": 20.804545454545455,
                "end_time": 21.104545454545452,
                "pitch": 62,
                "velocity": 127,
                "duration": 0.29999999999999716,
                "tempo": 120.0
            },
            {
                "start_time": 21.104545454545452,
                "end_time": 21.404545454545453,
                "pitch": 64,
                "velocity": 127,
                "duration": 0.3000000000000007,
                "tempo": 120.0
            },
            {
                "start_time": 21.104545454545452,
                "end_time": 21.404545454545453,
                "pitch": 64,
                "velocity": 127,
                "duration": 0.3000000000000007,
                "tempo": 120.0
            },
            {
                "start_time": 21.404545454545453,
                "end_time": 21.709090909090907,
                "pitch": 65,
                "velocity": 127,
                "duration": 0.3045454545454547,
                "tempo": 120.0
            },
            {
                "start_time": 21.709090909090907,
                "end_time": 24.136363636363637,
                "pitch": 64,
                "velocity": 127,
                "duration": 2.4272727272727295,
                "tempo": 120.0
            },
            {
                "start_time": 16.875,
                "end_time": 25.04090909090909,
                "pitch": 44,
                "velocity": 127,
                "duration": 8.16590909090909,
                "tempo": 120.0
            },
            {
                "start_time": 24.136363636363637,
                "end_time": 25.04090909090909,
                "pitch": 60,
                "velocity": 127,
                "duration": 0.9045454545454525,
                "tempo": 120.0
            },
            {
                "start_time": 24.136363636363637,
                "end_time": 25.04090909090909,
                "pitch": 60,
                "velocity": 127,
                "duration": 0.9045454545454525,
                "tempo": 120.0
            },
            {
                "start_time": 25.04090909090909,
                "end_time": 25.34318181818182,
                "pitch": 59,
                "velocity": 127,
                "duration": 0.30227272727272947,
                "tempo": 120.0
            },
            {
                "start_time": 25.34318181818182,
                "end_time": 25.64772727272727,
                "pitch": 57,
                "velocity": 127,
                "duration": 0.3045454545454511,
                "tempo": 120.0
            },
            {
                "start_time": 25.34318181818182,
                "end_time": 25.64772727272727,
                "pitch": 57,
                "velocity": 127,
                "duration": 0.3045454545454511,
                "tempo": 120.0
            },
            {
                "start_time": 25.64772727272727,
                "end_time": 25.797727272727272,
                "pitch": 59,
                "velocity": 127,
                "duration": 0.15000000000000213,
                "tempo": 120.0
            },
            {
                "start_time": 25.64772727272727,
                "end_time": 25.797727272727272,
                "pitch": 59,
                "velocity": 127,
                "duration": 0.15000000000000213,
                "tempo": 120.0
            },
            {
                "start_time": 25.797727272727272,
                "end_time": 25.96590909090909,
                "pitch": 60,
                "velocity": 127,
                "duration": 0.168181818181818,
                "tempo": 120.0
            },
            {
                "start_time": 26.102272727272727,
                "end_time": 26.252272727272725,
                "pitch": 59,
                "velocity": 127,
                "duration": 0.14999999999999858,
                "tempo": 120.0
            },
            {
                "start_time": 26.252272727272725,
                "end_time": 26.554545454545455,
                "pitch": 57,
                "velocity": 127,
                "duration": 0.30227272727272947,
                "tempo": 120.0
            },
            {
                "start_time": 26.252272727272725,
                "end_time": 26.554545454545455,
                "pitch": 57,
                "velocity": 127,
                "duration": 0.30227272727272947,
                "tempo": 120.0
            },
            {
                "start_time": 26.554545454545455,
                "end_time": 28.061363636363634,
                "pitch": 55,
                "velocity": 127,
                "duration": 1.5068181818181792,
                "tempo": 120.0
            },
            {
                "start_time": 26.554545454545455,
                "end_time": 28.061363636363634,
                "pitch": 55,
                "velocity": 127,
                "duration": 1.5068181818181792,
                "tempo": 120.0
            },
            {
                "start_time": 28.061363636363634,
                "end_time": 28.36590909090909,
                "pitch": 59,
                "velocity": 127,
                "duration": 0.3045454545454547,
                "tempo": 120.0
            },
            {
                "start_time": 28.061363636363634,
                "end_time": 28.36590909090909,
                "pitch": 59,
                "velocity": 127,
                "duration": 0.3045454545454547,
                "tempo": 120.0
            },
            {
                "start_time": 25.797727272727272,
                "end_time": 28.36590909090909,
                "pitch": 64,
                "velocity": 127,
                "duration": 2.5681818181818166,
                "tempo": 120.0
            },
            {
                "start_time": 28.36590909090909,
                "end_time": 28.670454545454543,
                "pitch": 60,
                "velocity": 127,
                "duration": 0.3045454545454547,
                "tempo": 120.0
            },
            {
                "start_time": 28.36590909090909,
                "end_time": 28.670454545454543,
                "pitch": 64,
                "velocity": 127,
                "duration": 0.3045454545454547,
                "tempo": 120.0
            },
            {
                "start_time": 28.670454545454543,
                "end_time": 28.977272727272727,
                "pitch": 64,
                "velocity": 127,
                "duration": 0.30681818181818343,
                "tempo": 120.0
            },
            {
                "start_time": 28.670454545454543,
                "end_time": 28.977272727272727,
                "pitch": 64,
                "velocity": 127,
                "duration": 0.30681818181818343,
                "tempo": 120.0
            },
            {
                "start_time": 28.977272727272727,
                "end_time": 29.429545454545455,
                "pitch": 62,
                "velocity": 127,
                "duration": 0.45227272727272805,
                "tempo": 120.0
            },
            {
                "start_time": 28.977272727272727,
                "end_time": 29.429545454545455,
                "pitch": 62,
                "velocity": 127,
                "duration": 0.45227272727272805,
                "tempo": 120.0
            },
            {
                "start_time": 29.429545454545455,
                "end_time": 30.48181818181818,
                "pitch": 60,
                "velocity": 127,
                "duration": 1.052272727272726,
                "tempo": 120.0
            },
            {
                "start_time": 30.48409090909091,
                "end_time": 30.784090909090907,
                "pitch": 62,
                "velocity": 127,
                "duration": 0.29999999999999716,
                "tempo": 120.0
            },
            {
                "start_time": 30.784090909090907,
                "end_time": 31.084090909090907,
                "pitch": 64,
                "velocity": 127,
                "duration": 0.3000000000000007,
                "tempo": 120.0
            },
            {
                "start_time": 30.784090909090907,
                "end_time": 31.084090909090907,
                "pitch": 64,
                "velocity": 127,
                "duration": 0.3000000000000007,
                "tempo": 120.0
            },
            {
                "start_time": 31.084090909090907,
                "end_time": 31.39090909090909,
                "pitch": 65,
                "velocity": 127,
                "duration": 0.30681818181818343,
                "tempo": 120.0
            },
            {
                "start_time": 31.39090909090909,
                "end_time": 32.904545454545456,
                "pitch": 64,
                "velocity": 127,
                "duration": 1.5136363636363654,
                "tempo": 120.0
            },
            {
                "start_time": 32.904545454545456,
                "end_time": 33.20909090909091,
                "pitch": 62,
                "velocity": 127,
                "duration": 0.3045454545454547,
                "tempo": 120.0
            },
            {
                "start_time": 32.904545454545456,
                "end_time": 33.20909090909091,
                "pitch": 62,
                "velocity": 127,
                "duration": 0.3045454545454547,
                "tempo": 120.0
            },
            {
                "start_time": 25.04090909090909,
                "end_time": 33.51136363636363,
                "pitch": 44,
                "velocity": 127,
                "duration": 8.470454545454544,
                "tempo": 120.0
            },
            {
                "start_time": 33.20909090909091,
                "end_time": 33.51136363636363,
                "pitch": 60,
                "velocity": 127,
                "duration": 0.30227272727272236,
                "tempo": 120.0
            },
            {
                "start_time": 33.51136363636363,
                "end_time": 62.88863636363636,
                "pitch": 59,
                "velocity": 127,
                "duration": 29.377272727272725,
                "tempo": 120.0
            },
            {
                "start_time": 62.88863636363636,
                "end_time": 65.00681818181818,
                "pitch": 72,
                "velocity": 80,
                "duration": 2.1181818181818173,
                "tempo": 120.0
            },
            {
                "start_time": 65.00681818181818,
                "end_time": 65.175,
                "pitch": 71,
                "velocity": 80,
                "duration": 0.16818181818182154,
                "tempo": 120.0
            },
            {
                "start_time": 65.00681818181818,
                "end_time": 67.42272727272727,
                "pitch": 56,
                "velocity": 80,
                "duration": 2.4159090909090963,
                "tempo": 120.0
            },
            {
                "start_time": 65.31136363636364,
                "end_time": 67.42272727272727,
                "pitch": 72,
                "velocity": 80,
                "duration": 2.1113636363636346,
                "tempo": 120.0
            },
            {
                "start_time": 67.42272727272727,
                "end_time": 67.5909090909091,
                "pitch": 71,
                "velocity": 80,
                "duration": 0.16818181818182154,
                "tempo": 120.0
            },
            {
                "start_time": 67.72727272727272,
                "end_time": 69.0840909090909,
                "pitch": 69,
                "velocity": 80,
                "duration": 1.3568181818181841,
                "tempo": 120.0
            },
            {
                "start_time": 69.0840909090909,
                "end_time": 69.23636363636363,
                "pitch": 69,
                "velocity": 80,
                "duration": 0.1522727272727309,
                "tempo": 120.0
            },
            {
                "start_time": 69.23636363636363,
                "end_time": 69.38636363636363,
                "pitch": 67,
                "velocity": 80,
                "duration": 0.14999999999999147,
                "tempo": 120.0
            },
            {
                "start_time": 69.38636363636363,
                "end_time": 69.53636363636363,
                "pitch": 64,
                "velocity": 80,
                "duration": 0.15000000000000568,
                "tempo": 120.0
            },
            {
                "start_time": 69.53636363636363,
                "end_time": 69.68636363636364,
                "pitch": 62,
                "velocity": 80,
                "duration": 0.15000000000000568,
                "tempo": 120.0
            },
            {
                "start_time": 69.53636363636363,
                "end_time": 69.68636363636364,
                "pitch": 62,
                "velocity": 80,
                "duration": 0.15000000000000568,
                "tempo": 120.0
            },
            {
                "start_time": 33.51136363636363,
                "end_time": 69.99090909090908,
                "pitch": 44,
                "velocity": 127,
                "duration": 36.47954545454545,
                "tempo": 120.0
            },
            {
                "start_time": 69.68636363636364,
                "end_time": 69.99090909090908,
                "pitch": 60,
                "velocity": 80,
                "duration": 0.30454545454544757,
                "tempo": 120.0
            },
            {
                "start_time": 69.99090909090908,
                "end_time": 70.10909090909091,
                "pitch": 59,
                "velocity": 80,
                "duration": 0.11818181818182438,
                "tempo": 120.0
            }
        ],
        "Electric Guitar (clean)": [
            {
                "start_time": 0.21136363636363636,
                "end_time": 0.31136363636363634,
                "pitch": 57,
                "velocity": 101,
                "duration": 0.09999999999999998,
                "tempo": 120.0
            },
            {
                "start_time": 0.6613636363636364,
                "end_time": 0.7613636363636364,
                "pitch": 57,
                "velocity": 101,
                "duration": 0.09999999999999998,
                "tempo": 120.0
            },
            {
                "start_time": 1.1204545454545454,
                "end_time": 1.5227272727272727,
                "pitch": 55,
                "velocity": 101,
                "duration": 0.40227272727272734,
                "tempo": 120.0
            },
            {
                "start_time": 1.575,
                "end_time": 1.9704545454545455,
                "pitch": 53,
                "velocity": 101,
                "duration": 0.3954545454545455,
                "tempo": 120.0
            },
            {
                "start_time": 2.0204545454545455,
                "end_time": 2.275,
                "pitch": 52,
                "velocity": 101,
                "duration": 0.2545454545454544,
                "tempo": 120.0
            },
            {
                "start_time": 2.634090909090909,
                "end_time": 2.734090909090909,
                "pitch": 57,
                "velocity": 101,
                "duration": 0.10000000000000009,
                "tempo": 120.0
            },
            {
                "start_time": 3.0886363636363634,
                "end_time": 3.1886363636363635,
                "pitch": 57,
                "velocity": 101,
                "duration": 0.10000000000000009,
                "tempo": 120.0
            },
            {
                "start_time": 3.5409090909090906,
                "end_time": 3.940909090909091,
                "pitch": 55,
                "velocity": 101,
                "duration": 0.40000000000000036,
                "tempo": 120.0
            },
            {
                "start_time": 3.993181818181818,
                "end_time": 4.3954545454545455,
                "pitch": 53,
                "velocity": 101,
                "duration": 0.40227272727272734,
                "tempo": 120.0
            },
            {
                "start_time": 4.447727272727272,
                "end_time": 4.7,
                "pitch": 52,
                "velocity": 101,
                "duration": 0.25227272727272787,
                "tempo": 120.0
            },
            {
                "start_time": 5.054545454545455,
                "end_time": 5.154545454545454,
                "pitch": 53,
                "velocity": 101,
                "duration": 0.09999999999999964,
                "tempo": 120.0
            },
            {
                "start_time": 5.504545454545454,
                "end_time": 5.6045454545454545,
                "pitch": 53,
                "velocity": 101,
                "duration": 0.10000000000000053,
                "tempo": 120.0
            },
            {
                "start_time": 5.959090909090909,
                "end_time": 6.361363636363636,
                "pitch": 55,
                "velocity": 101,
                "duration": 0.40227272727272734,
                "tempo": 120.0
            },
            {
                "start_time": 6.411363636363636,
                "end_time": 6.811363636363636,
                "pitch": 53,
                "velocity": 101,
                "duration": 0.39999999999999947,
                "tempo": 120.0
            },
            {
                "start_time": 6.863636363636363,
                "end_time": 7.11590909090909,
                "pitch": 55,
                "velocity": 101,
                "duration": 0.252272727272727,
                "tempo": 120.0
            },
            {
                "start_time": 7.3181818181818175,
                "end_time": 7.418181818181818,
                "pitch": 57,
                "velocity": 64,
                "duration": 0.10000000000000053,
                "tempo": 120.0
            },
            {
                "start_time": 7.7704545454545455,
                "end_time": 7.868181818181818,
                "pitch": 57,
                "velocity": 64,
                "duration": 0.09772727272727266,
                "tempo": 120.0
            },
            {
                "start_time": 8.370454545454544,
                "end_time": 8.470454545454546,
                "pitch": 57,
                "velocity": 64,
                "duration": 0.10000000000000142,
                "tempo": 120.0
            },
            {
                "start_time": 8.825,
                "end_time": 9.079545454545453,
                "pitch": 53,
                "velocity": 64,
                "duration": 0.25454545454545396,
                "tempo": 120.0
            },
            {
                "start_time": 9.131818181818181,
                "end_time": 9.23181818181818,
                "pitch": 53,
                "velocity": 64,
                "duration": 0.09999999999999964,
                "tempo": 120.0
            },
            {
                "start_time": 9.284090909090908,
                "end_time": 9.534090909090908,
                "pitch": 55,
                "velocity": 64,
                "duration": 0.25,
                "tempo": 120.0
            },
            {
                "start_time": 9.73409090909091,
                "end_time": 9.834090909090909,
                "pitch": 57,
                "velocity": 64,
                "duration": 0.09999999999999964,
                "tempo": 120.0
            },
            {
                "start_time": 10.184090909090909,
                "end_time": 10.284090909090908,
                "pitch": 57,
                "velocity": 64,
                "duration": 0.09999999999999964,
                "tempo": 120.0
            },
            {
                "start_time": 10.786363636363635,
                "end_time": 10.886363636363637,
                "pitch": 57,
                "velocity": 64,
                "duration": 0.10000000000000142,
                "tempo": 120.0
            },
            {
                "start_time": 11.236363636363636,
                "end_time": 11.486363636363636,
                "pitch": 53,
                "velocity": 64,
                "duration": 0.25,
                "tempo": 120.0
            },
            {
                "start_time": 11.536363636363635,
                "end_time": 11.636363636363637,
                "pitch": 53,
                "velocity": 64,
                "duration": 0.10000000000000142,
                "tempo": 120.0
            },
            {
                "start_time": 11.686363636363636,
                "end_time": 11.938636363636363,
                "pitch": 55,
                "velocity": 64,
                "duration": 0.252272727272727,
                "tempo": 120.0
            },
            {
                "start_time": 12.143181818181818,
                "end_time": 12.243181818181817,
                "pitch": 52,
                "velocity": 64,
                "duration": 0.09999999999999964,
                "tempo": 120.0
            },
            {
                "start_time": 12.593181818181817,
                "end_time": 12.693181818181818,
                "pitch": 52,
                "velocity": 64,
                "duration": 0.10000000000000142,
                "tempo": 120.0
            },
            {
                "start_time": 13.195454545454545,
                "end_time": 13.295454545454545,
                "pitch": 53,
                "velocity": 64,
                "duration": 0.09999999999999964,
                "tempo": 120.0
            },
            {
                "start_time": 13.802272727272726,
                "end_time": 14.056818181818182,
                "pitch": 53,
                "velocity": 64,
                "duration": 0.25454545454545574,
                "tempo": 120.0
            },
            {
                "start_time": 14.109090909090908,
                "end_time": 14.354545454545454,
                "pitch": 55,
                "velocity": 64,
                "duration": 0.24545454545454604,
                "tempo": 120.0
            },
            {
                "start_time": 14.702272727272726,
                "end_time": 14.804545454545455,
                "pitch": 57,
                "velocity": 64,
                "duration": 0.1022727272727284,
                "tempo": 120.0
            },
            {
                "start_time": 15.163636363636362,
                "end_time": 15.563636363636363,
                "pitch": 57,
                "velocity": 64,
                "duration": 0.40000000000000036,
                "tempo": 120.0
            },
            {
                "start_time": 15.911363636363635,
                "end_time": 16.011363636363637,
                "pitch": 57,
                "velocity": 64,
                "duration": 0.10000000000000142,
                "tempo": 120.0
            },
            {
                "start_time": 16.370454545454546,
                "end_time": 16.438636363636363,
                "pitch": 57,
                "velocity": 64,
                "duration": 0.06818181818181657,
                "tempo": 120.0
            },
            {
                "start_time": 16.522727272727273,
                "end_time": 16.58863636363636,
                "pitch": 57,
                "velocity": 64,
                "duration": 0.06590909090908781,
                "tempo": 120.0
            },
            {
                "start_time": 16.672727272727272,
                "end_time": 16.74090909090909,
                "pitch": 57,
                "velocity": 64,
                "duration": 0.06818181818181657,
                "tempo": 120.0
            },
            {
                "start_time": 17.125,
                "end_time": 17.224999999999998,
                "pitch": 55,
                "velocity": 64,
                "duration": 0.09999999999999787,
                "tempo": 120.0
            },
            {
                "start_time": 17.579545454545453,
                "end_time": 17.98181818181818,
                "pitch": 55,
                "velocity": 64,
                "duration": 0.40227272727272734,
                "tempo": 120.0
            },
            {
                "start_time": 18.331818181818182,
                "end_time": 18.43181818181818,
                "pitch": 55,
                "velocity": 64,
                "duration": 0.09999999999999787,
                "tempo": 120.0
            },
            {
                "start_time": 18.786363636363635,
                "end_time": 18.854545454545455,
                "pitch": 55,
                "velocity": 64,
                "duration": 0.06818181818182012,
                "tempo": 120.0
            },
            {
                "start_time": 18.938636363636363,
                "end_time": 19.00681818181818,
                "pitch": 55,
                "velocity": 64,
                "duration": 0.06818181818181657,
                "tempo": 120.0
            },
            {
                "start_time": 19.09090909090909,
                "end_time": 19.15681818181818,
                "pitch": 55,
                "velocity": 64,
                "duration": 0.06590909090909136,
                "tempo": 120.0
            },
            {
                "start_time": 19.545454545454543,
                "end_time": 19.645454545454545,
                "pitch": 53,
                "velocity": 64,
                "duration": 0.10000000000000142,
                "tempo": 120.0
            },
            {
                "start_time": 19.99772727272727,
                "end_time": 20.397727272727273,
                "pitch": 53,
                "velocity": 64,
                "duration": 0.40000000000000213,
                "tempo": 120.0
            },
            {
                "start_time": 20.752272727272725,
                "end_time": 20.852272727272727,
                "pitch": 53,
                "velocity": 64,
                "duration": 0.10000000000000142,
                "tempo": 120.0
            },
            {
                "start_time": 21.204545454545453,
                "end_time": 21.270454545454545,
                "pitch": 53,
                "velocity": 64,
                "duration": 0.06590909090909136,
                "tempo": 120.0
            },
            {
                "start_time": 21.354545454545452,
                "end_time": 21.420454545454543,
                "pitch": 53,
                "velocity": 64,
                "duration": 0.06590909090909136,
                "tempo": 120.0
            },
            {
                "start_time": 21.50681818181818,
                "end_time": 21.57272727272727,
                "pitch": 53,
                "velocity": 64,
                "duration": 0.06590909090909136,
                "tempo": 120.0
            },
            {
                "start_time": 21.961363636363636,
                "end_time": 22.063636363636363,
                "pitch": 52,
                "velocity": 64,
                "duration": 0.10227272727272663,
                "tempo": 120.0
            },
            {
                "start_time": 22.420454545454543,
                "end_time": 22.820454545454545,
                "pitch": 52,
                "velocity": 64,
                "duration": 0.40000000000000213,
                "tempo": 120.0
            },
            {
                "start_time": 23.168181818181818,
                "end_time": 23.270454545454545,
                "pitch": 52,
                "velocity": 64,
                "duration": 0.10227272727272663,
                "tempo": 120.0
            },
            {
                "start_time": 23.629545454545454,
                "end_time": 23.695454545454545,
                "pitch": 52,
                "velocity": 64,
                "duration": 0.06590909090909136,
                "tempo": 120.0
            },
            {
                "start_time": 23.78181818181818,
                "end_time": 23.847727272727273,
                "pitch": 52,
                "velocity": 64,
                "duration": 0.06590909090909136,
                "tempo": 120.0
            },
            {
                "start_time": 23.93409090909091,
                "end_time": 24.0,
                "pitch": 52,
                "velocity": 64,
                "duration": 0.06590909090909136,
                "tempo": 120.0
            },
            {
                "start_time": 24.388636363636362,
                "end_time": 24.488636363636363,
                "pitch": 57,
                "velocity": 64,
                "duration": 0.10000000000000142,
                "tempo": 120.0
            },
            {
                "start_time": 24.83863636363636,
                "end_time": 25.24090909090909,
                "pitch": 57,
                "velocity": 64,
                "duration": 0.40227272727272734,
                "tempo": 120.0
            },
            {
                "start_time": 25.595454545454544,
                "end_time": 25.695454545454545,
                "pitch": 57,
                "velocity": 64,
                "duration": 0.10000000000000142,
                "tempo": 120.0
            },
            {
                "start_time": 26.052272727272726,
                "end_time": 26.118181818181817,
                "pitch": 57,
                "velocity": 64,
                "duration": 0.06590909090909136,
                "tempo": 120.0
            },
            {
                "start_time": 26.202272727272724,
                "end_time": 26.268181818181816,
                "pitch": 57,
                "velocity": 64,
                "duration": 0.06590909090909136,
                "tempo": 120.0
            },
            {
                "start_time": 26.352272727272727,
                "end_time": 26.418181818181818,
                "pitch": 57,
                "velocity": 64,
                "duration": 0.06590909090909136,
                "tempo": 120.0
            },
            {
                "start_time": 26.804545454545455,
                "end_time": 26.904545454545453,
                "pitch": 55,
                "velocity": 64,
                "duration": 0.09999999999999787,
                "tempo": 120.0
            },
            {
                "start_time": 27.259090909090908,
                "end_time": 27.659090909090907,
                "pitch": 55,
                "velocity": 64,
                "duration": 0.3999999999999986,
                "tempo": 120.0
            },
            {
                "start_time": 28.011363636363637,
                "end_time": 28.111363636363635,
                "pitch": 55,
                "velocity": 64,
                "duration": 0.09999999999999787,
                "tempo": 120.0
            },
            {
                "start_time": 28.46590909090909,
                "end_time": 28.534090909090907,
                "pitch": 55,
                "velocity": 64,
                "duration": 0.06818181818181657,
                "tempo": 120.0
            },
            {
                "start_time": 28.618181818181817,
                "end_time": 28.686363636363634,
                "pitch": 55,
                "velocity": 64,
                "duration": 0.06818181818181657,
                "tempo": 120.0
            },
            {
                "start_time": 28.770454545454545,
                "end_time": 28.83863636363636,
                "pitch": 55,
                "velocity": 64,
                "duration": 0.06818181818181657,
                "tempo": 120.0
            },
            {
                "start_time": 29.23181818181818,
                "end_time": 29.329545454545453,
                "pitch": 53,
                "velocity": 64,
                "duration": 0.09772727272727266,
                "tempo": 120.0
            },
            {
                "start_time": 29.677272727272726,
                "end_time": 30.077272727272724,
                "pitch": 53,
                "velocity": 64,
                "duration": 0.3999999999999986,
                "tempo": 120.0
            },
            {
                "start_time": 30.43181818181818,
                "end_time": 30.53181818181818,
                "pitch": 53,
                "velocity": 64,
                "duration": 0.10000000000000142,
                "tempo": 120.0
            },
            {
                "start_time": 30.884090909090908,
                "end_time": 30.95,
                "pitch": 53,
                "velocity": 64,
                "duration": 0.06590909090909136,
                "tempo": 120.0
            },
            {
                "start_time": 31.034090909090907,
                "end_time": 31.099999999999998,
                "pitch": 53,
                "velocity": 64,
                "duration": 0.06590909090909136,
                "tempo": 120.0
            },
            {
                "start_time": 31.186363636363634,
                "end_time": 31.254545454545454,
                "pitch": 53,
                "velocity": 64,
                "duration": 0.06818181818182012,
                "tempo": 120.0
            },
            {
                "start_time": 31.645454545454545,
                "end_time": 31.745454545454542,
                "pitch": 52,
                "velocity": 64,
                "duration": 0.09999999999999787,
                "tempo": 120.0
            },
            {
                "start_time": 32.09772727272727,
                "end_time": 32.5,
                "pitch": 52,
                "velocity": 64,
                "duration": 0.4022727272727309,
                "tempo": 120.0
            },
            {
                "start_time": 32.85454545454545,
                "end_time": 32.95454545454545,
                "pitch": 52,
                "velocity": 64,
                "duration": 0.10000000000000142,
                "tempo": 120.0
            },
            {
                "start_time": 33.309090909090905,
                "end_time": 33.375,
                "pitch": 52,
                "velocity": 64,
                "duration": 0.06590909090909491,
                "tempo": 120.0
            },
            {
                "start_time": 33.461363636363636,
                "end_time": 33.527272727272724,
                "pitch": 52,
                "velocity": 64,
                "duration": 0.06590909090908781,
                "tempo": 120.0
            },
            {
                "start_time": 33.61363636363636,
                "end_time": 33.679545454545455,
                "pitch": 52,
                "velocity": 64,
                "duration": 0.06590909090909491,
                "tempo": 120.0
            },
            {
                "start_time": 63.14090909090909,
                "end_time": 63.24318181818182,
                "pitch": 57,
                "velocity": 101,
                "duration": 0.10227272727272663,
                "tempo": 120.0
            },
            {
                "start_time": 63.59772727272727,
                "end_time": 63.69772727272727,
                "pitch": 57,
                "velocity": 101,
                "duration": 0.10000000000000142,
                "tempo": 120.0
            },
            {
                "start_time": 64.05227272727272,
                "end_time": 64.45454545454545,
                "pitch": 55,
                "velocity": 101,
                "duration": 0.4022727272727309,
                "tempo": 120.0
            },
            {
                "start_time": 64.50681818181818,
                "end_time": 64.90454545454546,
                "pitch": 53,
                "velocity": 101,
                "duration": 0.3977272727272805,
                "tempo": 120.0
            },
            {
                "start_time": 64.95681818181818,
                "end_time": 65.2090909090909,
                "pitch": 52,
                "velocity": 101,
                "duration": 0.2522727272727252,
                "tempo": 120.0
            },
            {
                "start_time": 65.56363636363636,
                "end_time": 65.66363636363636,
                "pitch": 57,
                "velocity": 101,
                "duration": 0.09999999999999432,
                "tempo": 120.0
            },
            {
                "start_time": 66.01818181818182,
                "end_time": 66.11818181818181,
                "pitch": 57,
                "velocity": 101,
                "duration": 0.09999999999999432,
                "tempo": 120.0
            },
            {
                "start_time": 66.47045454545454,
                "end_time": 66.87045454545454,
                "pitch": 55,
                "velocity": 101,
                "duration": 0.3999999999999915,
                "tempo": 120.0
            },
            {
                "start_time": 66.92045454545455,
                "end_time": 67.32045454545454,
                "pitch": 53,
                "velocity": 101,
                "duration": 0.3999999999999915,
                "tempo": 120.0
            },
            {
                "start_time": 67.37272727272727,
                "end_time": 67.625,
                "pitch": 52,
                "velocity": 101,
                "duration": 0.2522727272727252,
                "tempo": 120.0
            },
            {
                "start_time": 67.97954545454544,
                "end_time": 68.07727272727273,
                "pitch": 53,
                "velocity": 101,
                "duration": 0.09772727272728332,
                "tempo": 120.0
            },
            {
                "start_time": 68.42954545454545,
                "end_time": 68.52954545454546,
                "pitch": 53,
                "velocity": 101,
                "duration": 0.10000000000000853,
                "tempo": 120.0
            },
            {
                "start_time": 68.8840909090909,
                "end_time": 69.28636363636363,
                "pitch": 55,
                "velocity": 101,
                "duration": 0.4022727272727309,
                "tempo": 120.0
            },
            {
                "start_time": 69.33636363636363,
                "end_time": 69.73636363636363,
                "pitch": 53,
                "velocity": 101,
                "duration": 0.4000000000000057,
                "tempo": 120.0
            },
            {
                "start_time": 69.78636363636363,
                "end_time": 70.04090909090908,
                "pitch": 55,
                "velocity": 101,
                "duration": 0.2545454545454504,
                "tempo": 120.0
            }
        ],
        "Violin": [
            {
                "start_time": 40.725,
                "end_time": 40.975,
                "pitch": 55,
                "velocity": 80,
                "duration": 0.25,
                "tempo": 120.0
            },
            {
                "start_time": 41.025,
                "end_time": 42.79090909090909,
                "pitch": 57,
                "velocity": 80,
                "duration": 1.7659090909090907,
                "tempo": 120.0
            },
            {
                "start_time": 42.84318181818182,
                "end_time": 43.39772727272727,
                "pitch": 55,
                "velocity": 80,
                "duration": 0.5545454545454547,
                "tempo": 120.0
            },
            {
                "start_time": 43.449999999999996,
                "end_time": 45.51590909090909,
                "pitch": 57,
                "velocity": 80,
                "duration": 2.065909090909095,
                "tempo": 120.0
            },
            {
                "start_time": 45.56818181818181,
                "end_time": 45.820454545454545,
                "pitch": 55,
                "velocity": 80,
                "duration": 0.2522727272727323,
                "tempo": 120.0
            },
            {
                "start_time": 45.87045454545454,
                "end_time": 47.63636363636363,
                "pitch": 57,
                "velocity": 80,
                "duration": 1.7659090909090907,
                "tempo": 120.0
            },
            {
                "start_time": 47.68863636363636,
                "end_time": 48.24090909090909,
                "pitch": 55,
                "velocity": 80,
                "duration": 0.5522727272727295,
                "tempo": 120.0
            },
            {
                "start_time": 48.293181818181814,
                "end_time": 50.66590909090909,
                "pitch": 57,
                "velocity": 80,
                "duration": 2.372727272727275,
                "tempo": 120.0
            },
            {
                "start_time": 50.71818181818182,
                "end_time": 52.48409090909091,
                "pitch": 53,
                "velocity": 101,
                "duration": 1.7659090909090907,
                "tempo": 120.0
            },
            {
                "start_time": 52.53409090909091,
                "end_time": 52.63409090909091,
                "pitch": 53,
                "velocity": 101,
                "duration": 0.10000000000000142,
                "tempo": 120.0
            },
            {
                "start_time": 52.68636363636363,
                "end_time": 53.090909090909086,
                "pitch": 53,
                "velocity": 101,
                "duration": 0.4045454545454561,
                "tempo": 120.0
            },
            {
                "start_time": 53.14090909090909,
                "end_time": 54.90681818181818,
                "pitch": 52,
                "velocity": 101,
                "duration": 1.7659090909090907,
                "tempo": 120.0
            },
            {
                "start_time": 54.959090909090904,
                "end_time": 55.51136363636363,
                "pitch": 52,
                "velocity": 101,
                "duration": 0.5522727272727295,
                "tempo": 120.0
            },
            {
                "start_time": 55.56363636363636,
                "end_time": 56.724999999999994,
                "pitch": 53,
                "velocity": 101,
                "duration": 1.1613636363636317,
                "tempo": 120.0
            },
            {
                "start_time": 56.777272727272724,
                "end_time": 57.33181818181818,
                "pitch": 55,
                "velocity": 101,
                "duration": 0.5545454545454547,
                "tempo": 120.0
            },
            {
                "start_time": 57.38409090909091,
                "end_time": 57.93636363636363,
                "pitch": 53,
                "velocity": 101,
                "duration": 0.5522727272727224,
                "tempo": 120.0
            },
            {
                "start_time": 57.986363636363635,
                "end_time": 59.752272727272725,
                "pitch": 52,
                "velocity": 101,
                "duration": 1.7659090909090907,
                "tempo": 120.0
            },
            {
                "start_time": 59.804545454545455,
                "end_time": 60.35909090909091,
                "pitch": 52,
                "velocity": 101,
                "duration": 0.5545454545454547,
                "tempo": 120.0
            },
            {
                "start_time": 60.41136363636363,
                "end_time": 61.56818181818181,
                "pitch": 53,
                "velocity": 101,
                "duration": 1.1568181818181813,
                "tempo": 120.0
            },
            {
                "start_time": 61.61818181818182,
                "end_time": 62.175,
                "pitch": 55,
                "velocity": 101,
                "duration": 0.5568181818181799,
                "tempo": 120.0
            },
            {
                "start_time": 62.224999999999994,
                "end_time": 62.47727272727273,
                "pitch": 53,
                "velocity": 101,
                "duration": 0.2522727272727323,
                "tempo": 120.0
            },
            {
                "start_time": 62.52954545454545,
                "end_time": 62.78409090909091,
                "pitch": 55,
                "velocity": 101,
                "duration": 0.2545454545454575,
                "tempo": 120.0
            }
        ],
        "Harpsichord": [
            {
                "start_time": 33.81590909090909,
                "end_time": 33.965909090909086,
                "pitch": 57,
                "velocity": 51,
                "duration": 0.14999999999999858,
                "tempo": 120.0
            },
            {
                "start_time": 33.965909090909086,
                "end_time": 34.11818181818182,
                "pitch": 59,
                "velocity": 51,
                "duration": 0.1522727272727309,
                "tempo": 120.0
            },
            {
                "start_time": 33.965909090909086,
                "end_time": 34.11818181818182,
                "pitch": 59,
                "velocity": 51,
                "duration": 0.1522727272727309,
                "tempo": 120.0
            },
            {
                "start_time": 34.11818181818182,
                "end_time": 34.268181818181816,
                "pitch": 60,
                "velocity": 51,
                "duration": 0.14999999999999858,
                "tempo": 120.0
            },
            {
                "start_time": 34.268181818181816,
                "end_time": 34.56818181818181,
                "pitch": 59,
                "velocity": 51,
                "duration": 0.29999999999999716,
                "tempo": 120.0
            },
            {
                "start_time": 34.56818181818181,
                "end_time": 35.02272727272727,
                "pitch": 57,
                "velocity": 51,
                "duration": 0.45454545454546036,
                "tempo": 120.0
            },
            {
                "start_time": 34.56818181818181,
                "end_time": 35.02272727272727,
                "pitch": 57,
                "velocity": 51,
                "duration": 0.45454545454546036,
                "tempo": 120.0
            },
            {
                "start_time": 35.02272727272727,
                "end_time": 35.175,
                "pitch": 55,
                "velocity": 51,
                "duration": 0.15227272727272378,
                "tempo": 120.0
            },
            {
                "start_time": 35.02272727272727,
                "end_time": 35.175,
                "pitch": 55,
                "velocity": 51,
                "duration": 0.15227272727272378,
                "tempo": 120.0
            },
            {
                "start_time": 35.175,
                "end_time": 35.225,
                "pitch": 57,
                "velocity": 51,
                "duration": 0.05000000000000426,
                "tempo": 120.0
            },
            {
                "start_time": 35.175,
                "end_time": 35.225,
                "pitch": 57,
                "velocity": 51,
                "duration": 0.05000000000000426,
                "tempo": 120.0
            },
            {
                "start_time": 35.225,
                "end_time": 35.275,
                "pitch": 59,
                "velocity": 51,
                "duration": 0.04999999999999716,
                "tempo": 120.0
            },
            {
                "start_time": 35.225,
                "end_time": 35.275,
                "pitch": 59,
                "velocity": 51,
                "duration": 0.04999999999999716,
                "tempo": 120.0
            },
            {
                "start_time": 35.275,
                "end_time": 35.324999999999996,
                "pitch": 57,
                "velocity": 51,
                "duration": 0.04999999999999716,
                "tempo": 120.0
            },
            {
                "start_time": 35.275,
                "end_time": 35.324999999999996,
                "pitch": 57,
                "velocity": 51,
                "duration": 0.04999999999999716,
                "tempo": 120.0
            },
            {
                "start_time": 35.324999999999996,
                "end_time": 35.47727272727273,
                "pitch": 55,
                "velocity": 51,
                "duration": 0.1522727272727309,
                "tempo": 120.0
            },
            {
                "start_time": 35.324999999999996,
                "end_time": 35.47727272727273,
                "pitch": 55,
                "velocity": 51,
                "duration": 0.1522727272727309,
                "tempo": 120.0
            },
            {
                "start_time": 35.47727272727273,
                "end_time": 35.78181818181818,
                "pitch": 53,
                "velocity": 51,
                "duration": 0.3045454545454547,
                "tempo": 120.0
            },
            {
                "start_time": 35.78181818181818,
                "end_time": 36.24090909090909,
                "pitch": 52,
                "velocity": 51,
                "duration": 0.45909090909091077,
                "tempo": 120.0
            },
            {
                "start_time": 36.24090909090909,
                "end_time": 36.393181818181816,
                "pitch": 57,
                "velocity": 51,
                "duration": 0.15227272727272378,
                "tempo": 120.0
            },
            {
                "start_time": 36.393181818181816,
                "end_time": 36.54545454545455,
                "pitch": 59,
                "velocity": 51,
                "duration": 0.1522727272727309,
                "tempo": 120.0
            },
            {
                "start_time": 36.393181818181816,
                "end_time": 36.54545454545455,
                "pitch": 59,
                "velocity": 51,
                "duration": 0.1522727272727309,
                "tempo": 120.0
            },
            {
                "start_time": 34.11818181818182,
                "end_time": 36.54545454545455,
                "pitch": 64,
                "velocity": 51,
                "duration": 2.4272727272727295,
                "tempo": 120.0
            },
            {
                "start_time": 34.268181818181816,
                "end_time": 36.69318181818181,
                "pitch": 44,
                "velocity": 51,
                "duration": 2.424999999999997,
                "tempo": 120.0
            },
            {
                "start_time": 36.54545454545455,
                "end_time": 36.69318181818181,
                "pitch": 60,
                "velocity": 51,
                "duration": 0.14772727272726627,
                "tempo": 120.0
            },
            {
                "start_time": 36.69318181818181,
                "end_time": 36.99090909090909,
                "pitch": 59,
                "velocity": 51,
                "duration": 0.29772727272727906,
                "tempo": 120.0
            },
            {
                "start_time": 36.99090909090909,
                "end_time": 37.44090909090909,
                "pitch": 57,
                "velocity": 51,
                "duration": 0.44999999999999574,
                "tempo": 120.0
            },
            {
                "start_time": 36.99090909090909,
                "end_time": 37.44090909090909,
                "pitch": 57,
                "velocity": 51,
                "duration": 0.44999999999999574,
                "tempo": 120.0
            },
            {
                "start_time": 37.44090909090909,
                "end_time": 37.590909090909086,
                "pitch": 55,
                "velocity": 51,
                "duration": 0.14999999999999858,
                "tempo": 120.0
            },
            {
                "start_time": 37.44090909090909,
                "end_time": 37.590909090909086,
                "pitch": 55,
                "velocity": 51,
                "duration": 0.14999999999999858,
                "tempo": 120.0
            },
            {
                "start_time": 37.590909090909086,
                "end_time": 37.64090909090909,
                "pitch": 57,
                "velocity": 51,
                "duration": 0.05000000000000426,
                "tempo": 120.0
            },
            {
                "start_time": 37.590909090909086,
                "end_time": 37.64090909090909,
                "pitch": 57,
                "velocity": 51,
                "duration": 0.05000000000000426,
                "tempo": 120.0
            },
            {
                "start_time": 37.64090909090909,
                "end_time": 37.69090909090909,
                "pitch": 59,
                "velocity": 51,
                "duration": 0.04999999999999716,
                "tempo": 120.0
            },
            {
                "start_time": 37.64090909090909,
                "end_time": 37.69090909090909,
                "pitch": 59,
                "velocity": 51,
                "duration": 0.04999999999999716,
                "tempo": 120.0
            },
            {
                "start_time": 37.69090909090909,
                "end_time": 37.74090909090909,
                "pitch": 57,
                "velocity": 51,
                "duration": 0.05000000000000426,
                "tempo": 120.0
            },
            {
                "start_time": 37.69090909090909,
                "end_time": 37.74090909090909,
                "pitch": 57,
                "velocity": 51,
                "duration": 0.05000000000000426,
                "tempo": 120.0
            },
            {
                "start_time": 37.74090909090909,
                "end_time": 37.89545454545454,
                "pitch": 55,
                "velocity": 51,
                "duration": 0.154545454545449,
                "tempo": 120.0
            },
            {
                "start_time": 37.74090909090909,
                "end_time": 37.89545454545454,
                "pitch": 55,
                "velocity": 51,
                "duration": 0.154545454545449,
                "tempo": 120.0
            },
            {
                "start_time": 35.47727272727273,
                "end_time": 37.89545454545454,
                "pitch": 66,
                "velocity": 51,
                "duration": 2.4181818181818144,
                "tempo": 120.0
            },
            {
                "start_time": 37.89545454545454,
                "end_time": 38.20227272727273,
                "pitch": 53,
                "velocity": 51,
                "duration": 0.306818181818187,
                "tempo": 120.0
            }
        ],
        "Trumpet": [
            {
                "start_time": 38.65909090909091,
                "end_time": 39.10909090909091,
                "pitch": 48,
                "velocity": 101,
                "duration": 0.45000000000000284,
                "tempo": 120.0
            },
            {
                "start_time": 39.10909090909091,
                "end_time": 39.55681818181818,
                "pitch": 50,
                "velocity": 101,
                "duration": 0.44772727272727053,
                "tempo": 120.0
            },
            {
                "start_time": 39.55681818181818,
                "end_time": 39.86363636363636,
                "pitch": 52,
                "velocity": 101,
                "duration": 0.3068181818181799,
                "tempo": 120.0
            },
            {
                "start_time": 39.55681818181818,
                "end_time": 39.86363636363636,
                "pitch": 52,
                "velocity": 101,
                "duration": 0.3068181818181799,
                "tempo": 120.0
            },
            {
                "start_time": 39.86363636363636,
                "end_time": 40.320454545454545,
                "pitch": 50,
                "velocity": 101,
                "duration": 0.45681818181818556,
                "tempo": 120.0
            },
            {
                "start_time": 39.86363636363636,
                "end_time": 40.320454545454545,
                "pitch": 50,
                "velocity": 101,
                "duration": 0.45681818181818556,
                "tempo": 120.0
            },
            {
                "start_time": 40.320454545454545,
                "end_time": 40.775,
                "pitch": 52,
                "velocity": 101,
                "duration": 0.45454545454545325,
                "tempo": 120.0
            },
            {
                "start_time": 40.320454545454545,
                "end_time": 40.775,
                "pitch": 52,
                "velocity": 101,
                "duration": 0.45454545454545325,
                "tempo": 120.0
            },
            {
                "start_time": 40.775,
                "end_time": 41.074999999999996,
                "pitch": 55,
                "velocity": 101,
                "duration": 0.29999999999999716,
                "tempo": 120.0
            },
            {
                "start_time": 41.074999999999996,
                "end_time": 42.893181818181816,
                "pitch": 57,
                "velocity": 101,
                "duration": 1.8181818181818201,
                "tempo": 120.0
            },
            {
                "start_time": 41.074999999999996,
                "end_time": 42.893181818181816,
                "pitch": 57,
                "velocity": 101,
                "duration": 1.8181818181818201,
                "tempo": 120.0
            },
            {
                "start_time": 42.893181818181816,
                "end_time": 43.502272727272725,
                "pitch": 59,
                "velocity": 101,
                "duration": 0.6090909090909093,
                "tempo": 120.0
            },
            {
                "start_time": 42.893181818181816,
                "end_time": 43.502272727272725,
                "pitch": 59,
                "velocity": 101,
                "duration": 0.6090909090909093,
                "tempo": 120.0
            },
            {
                "start_time": 43.502272727272725,
                "end_time": 45.61818181818182,
                "pitch": 60,
                "velocity": 101,
                "duration": 2.115909090909092,
                "tempo": 120.0
            },
            {
                "start_time": 45.61818181818182,
                "end_time": 45.92272727272727,
                "pitch": 62,
                "velocity": 101,
                "duration": 0.3045454545454547,
                "tempo": 120.0
            },
            {
                "start_time": 43.502272727272725,
                "end_time": 45.92272727272727,
                "pitch": 64,
                "velocity": 101,
                "duration": 2.4204545454545467,
                "tempo": 120.0
            },
            {
                "start_time": 45.92272727272727,
                "end_time": 47.74090909090909,
                "pitch": 64,
                "velocity": 101,
                "duration": 1.8181818181818201,
                "tempo": 120.0
            },
            {
                "start_time": 45.92272727272727,
                "end_time": 47.74090909090909,
                "pitch": 64,
                "velocity": 101,
                "duration": 1.8181818181818201,
                "tempo": 120.0
            },
            {
                "start_time": 47.74090909090909,
                "end_time": 48.34318181818182,
                "pitch": 67,
                "velocity": 101,
                "duration": 0.6022727272727266,
                "tempo": 120.0
            },
            {
                "start_time": 48.34318181818182,
                "end_time": 49.709090909090904,
                "pitch": 69,
                "velocity": 101,
                "duration": 1.365909090909085,
                "tempo": 120.0
            },
            {
                "start_time": 49.709090909090904,
                "end_time": 49.85909090909091,
                "pitch": 69,
                "velocity": 101,
                "duration": 0.15000000000000568,
                "tempo": 120.0
            },
            {
                "start_time": 49.85909090909091,
                "end_time": 50.01136363636363,
                "pitch": 67,
                "velocity": 101,
                "duration": 0.15227272727272378,
                "tempo": 120.0
            },
            {
                "start_time": 50.01136363636363,
                "end_time": 50.163636363636364,
                "pitch": 64,
                "velocity": 101,
                "duration": 0.1522727272727309,
                "tempo": 120.0
            },
            {
                "start_time": 50.163636363636364,
                "end_time": 50.31590909090909,
                "pitch": 62,
                "velocity": 101,
                "duration": 0.15227272727272378,
                "tempo": 120.0
            },
            {
                "start_time": 50.163636363636364,
                "end_time": 50.31590909090909,
                "pitch": 62,
                "velocity": 101,
                "duration": 0.15227272727272378,
                "tempo": 120.0
            },
            {
                "start_time": 50.31590909090909,
                "end_time": 50.41590909090909,
                "pitch": 60,
                "velocity": 101,
                "duration": 0.10000000000000142,
                "tempo": 120.0
            },
            {
                "start_time": 50.41590909090909,
                "end_time": 50.51590909090909,
                "pitch": 62,
                "velocity": 101,
                "duration": 0.10000000000000142,
                "tempo": 120.0
            },
            {
                "start_time": 50.51590909090909,
                "end_time": 50.615909090909085,
                "pitch": 60,
                "velocity": 101,
                "duration": 0.09999999999999432,
                "tempo": 120.0
            },
            {
                "start_time": 50.615909090909085,
                "end_time": 50.768181818181816,
                "pitch": 59,
                "velocity": 101,
                "duration": 0.1522727272727309,
                "tempo": 120.0
            },
            {
                "start_time": 50.768181818181816,
                "end_time": 51.220454545454544,
                "pitch": 60,
                "velocity": 101,
                "duration": 0.45227272727272805,
                "tempo": 120.0
            },
            {
                "start_time": 51.220454545454544,
                "end_time": 51.675,
                "pitch": 62,
                "velocity": 101,
                "duration": 0.45454545454545325,
                "tempo": 120.0
            },
            {
                "start_time": 50.768181818181816,
                "end_time": 51.675,
                "pitch": 64,
                "velocity": 101,
                "duration": 0.9068181818181813,
                "tempo": 120.0
            },
            {
                "start_time": 51.675,
                "end_time": 51.97727272727273,
                "pitch": 64,
                "velocity": 101,
                "duration": 0.30227272727272947,
                "tempo": 120.0
            },
            {
                "start_time": 51.675,
                "end_time": 51.97727272727273,
                "pitch": 64,
                "velocity": 101,
                "duration": 0.30227272727272947,
                "tempo": 120.0
            },
            {
                "start_time": 51.97727272727273,
                "end_time": 51.97954545454545,
                "pitch": 62,
                "velocity": 101,
                "duration": 0.0022727272727252057,
                "tempo": 120.0
            },
            {
                "start_time": 51.97954545454545,
                "end_time": 52.434090909090905,
                "pitch": 62,
                "velocity": 101,
                "duration": 0.45454545454545325,
                "tempo": 120.0
            },
            {
                "start_time": 50.615909090909085,
                "end_time": 52.88863636363636,
                "pitch": 44,
                "velocity": 101,
                "duration": 2.2727272727272734,
                "tempo": 120.0
            },
            {
                "start_time": 52.434090909090905,
                "end_time": 52.88863636363636,
                "pitch": 60,
                "velocity": 101,
                "duration": 0.45454545454545325,
                "tempo": 120.0
            },
            {
                "start_time": 52.88863636363636,
                "end_time": 53.19090909090909,
                "pitch": 59,
                "velocity": 101,
                "duration": 0.30227272727272947,
                "tempo": 120.0
            },
            {
                "start_time": 53.19090909090909,
                "end_time": 53.34318181818182,
                "pitch": 59,
                "velocity": 101,
                "duration": 0.1522727272727309,
                "tempo": 120.0
            },
            {
                "start_time": 52.88863636363636,
                "end_time": 53.49545454545454,
                "pitch": 44,
                "velocity": 101,
                "duration": 0.6068181818181841,
                "tempo": 120.0
            },
            {
                "start_time": 53.34318181818182,
                "end_time": 53.49545454545454,
                "pitch": 60,
                "velocity": 101,
                "duration": 0.15227272727272378,
                "tempo": 120.0
            },
            {
                "start_time": 53.49545454545454,
                "end_time": 53.64545454545454,
                "pitch": 59,
                "velocity": 101,
                "duration": 0.14999999999999858,
                "tempo": 120.0
            },
            {
                "start_time": 53.64545454545454,
                "end_time": 53.79545454545454,
                "pitch": 57,
                "velocity": 101,
                "duration": 0.14999999999999858,
                "tempo": 120.0
            },
            {
                "start_time": 53.64545454545454,
                "end_time": 53.79545454545454,
                "pitch": 57,
                "velocity": 101,
                "duration": 0.14999999999999858,
                "tempo": 120.0
            },
            {
                "start_time": 53.79545454545454,
                "end_time": 53.945454545454545,
                "pitch": 59,
                "velocity": 101,
                "duration": 0.15000000000000568,
                "tempo": 120.0
            },
            {
                "start_time": 53.79545454545454,
                "end_time": 53.945454545454545,
                "pitch": 59,
                "velocity": 101,
                "duration": 0.15000000000000568,
                "tempo": 120.0
            },
            {
                "start_time": 53.34318181818182,
                "end_time": 53.945454545454545,
                "pitch": 64,
                "velocity": 101,
                "duration": 0.6022727272727266,
                "tempo": 120.0
            },
            {
                "start_time": 53.49545454545454,
                "end_time": 54.095454545454544,
                "pitch": 44,
                "velocity": 101,
                "duration": 0.6000000000000014,
                "tempo": 120.0
            },
            {
                "start_time": 53.945454545454545,
                "end_time": 54.095454545454544,
                "pitch": 60,
                "velocity": 101,
                "duration": 0.14999999999999858,
                "tempo": 120.0
            },
            {
                "start_time": 54.095454545454544,
                "end_time": 54.25,
                "pitch": 59,
                "velocity": 101,
                "duration": 0.1545454545454561,
                "tempo": 120.0
            },
            {
                "start_time": 54.25,
                "end_time": 54.402272727272724,
                "pitch": 55,
                "velocity": 101,
                "duration": 0.15227272727272378,
                "tempo": 120.0
            },
            {
                "start_time": 54.25,
                "end_time": 54.402272727272724,
                "pitch": 55,
                "velocity": 101,
                "duration": 0.15227272727272378,
                "tempo": 120.0
            },
            {
                "start_time": 54.402272727272724,
                "end_time": 54.55681818181818,
                "pitch": 59,
                "velocity": 101,
                "duration": 0.1545454545454561,
                "tempo": 120.0
            },
            {
                "start_time": 54.402272727272724,
                "end_time": 54.55681818181818,
                "pitch": 59,
                "velocity": 101,
                "duration": 0.1545454545454561,
                "tempo": 120.0
            },
            {
                "start_time": 53.945454545454545,
                "end_time": 54.55681818181818,
                "pitch": 64,
                "velocity": 101,
                "duration": 0.6113636363636346,
                "tempo": 120.0
            },
            {
                "start_time": 54.095454545454544,
                "end_time": 54.709090909090904,
                "pitch": 44,
                "velocity": 101,
                "duration": 0.6136363636363598,
                "tempo": 120.0
            },
            {
                "start_time": 54.55681818181818,
                "end_time": 54.709090909090904,
                "pitch": 60,
                "velocity": 101,
                "duration": 0.15227272727272378,
                "tempo": 120.0
            },
            {
                "start_time": 54.709090909090904,
                "end_time": 54.85909090909091,
                "pitch": 59,
                "velocity": 101,
                "duration": 0.15000000000000568,
                "tempo": 120.0
            },
            {
                "start_time": 54.85909090909091,
                "end_time": 55.00909090909091,
                "pitch": 57,
                "velocity": 101,
                "duration": 0.14999999999999858,
                "tempo": 120.0
            },
            {
                "start_time": 54.85909090909091,
                "end_time": 55.00909090909091,
                "pitch": 57,
                "velocity": 101,
                "duration": 0.14999999999999858,
                "tempo": 120.0
            },
            {
                "start_time": 55.00909090909091,
                "end_time": 55.15909090909091,
                "pitch": 59,
                "velocity": 101,
                "duration": 0.14999999999999858,
                "tempo": 120.0
            },
            {
                "start_time": 55.00909090909091,
                "end_time": 55.15909090909091,
                "pitch": 59,
                "velocity": 101,
                "duration": 0.14999999999999858,
                "tempo": 120.0
            },
            {
                "start_time": 54.55681818181818,
                "end_time": 55.15909090909091,
                "pitch": 64,
                "velocity": 101,
                "duration": 0.6022727272727266,
                "tempo": 120.0
            },
            {
                "start_time": 54.709090909090904,
                "end_time": 55.309090909090905,
                "pitch": 44,
                "velocity": 101,
                "duration": 0.6000000000000014,
                "tempo": 120.0
            },
            {
                "start_time": 55.15909090909091,
                "end_time": 55.309090909090905,
                "pitch": 60,
                "velocity": 101,
                "duration": 0.14999999999999858,
                "tempo": 120.0
            },
            {
                "start_time": 55.309090909090905,
                "end_time": 55.461363636363636,
                "pitch": 59,
                "velocity": 101,
                "duration": 0.1522727272727309,
                "tempo": 120.0
            },
            {
                "start_time": 55.461363636363636,
                "end_time": 55.61363636363636,
                "pitch": 52,
                "velocity": 101,
                "duration": 0.15227272727272378,
                "tempo": 120.0
            },
            {
                "start_time": 55.61363636363636,
                "end_time": 56.06818181818181,
                "pitch": 60,
                "velocity": 101,
                "duration": 0.45454545454545325,
                "tempo": 120.0
            },
            {
                "start_time": 56.06818181818181,
                "end_time": 56.52272727272727,
                "pitch": 62,
                "velocity": 101,
                "duration": 0.45454545454546036,
                "tempo": 120.0
            },
            {
                "start_time": 55.15909090909091,
                "end_time": 56.52272727272727,
                "pitch": 64,
                "velocity": 101,
                "duration": 1.3636363636363669,
                "tempo": 120.0
            },
            {
                "start_time": 56.52272727272727,
                "end_time": 56.82727272727273,
                "pitch": 64,
                "velocity": 101,
                "duration": 0.3045454545454547,
                "tempo": 120.0
            },
            {
                "start_time": 56.52272727272727,
                "end_time": 56.82727272727273,
                "pitch": 64,
                "velocity": 101,
                "duration": 0.3045454545454547,
                "tempo": 120.0
            },
            {
                "start_time": 56.82727272727273,
                "end_time": 57.434090909090905,
                "pitch": 62,
                "velocity": 101,
                "duration": 0.606818181818177,
                "tempo": 120.0
            },
            {
                "start_time": 56.82727272727273,
                "end_time": 57.434090909090905,
                "pitch": 62,
                "velocity": 101,
                "duration": 0.606818181818177,
                "tempo": 120.0
            },
            {
                "start_time": 55.309090909090905,
                "end_time": 58.03636363636363,
                "pitch": 44,
                "velocity": 101,
                "duration": 2.7272727272727266,
                "tempo": 120.0
            },
            {
                "start_time": 57.434090909090905,
                "end_time": 58.03636363636363,
                "pitch": 60,
                "velocity": 101,
                "duration": 0.6022727272727266,
                "tempo": 120.0
            },
            {
                "start_time": 58.03636363636363,
                "end_time": 58.18636363636363,
                "pitch": 59,
                "velocity": 101,
                "duration": 0.14999999999999858,
                "tempo": 120.0
            },
            {
                "start_time": 58.03636363636363,
                "end_time": 58.33863636363636,
                "pitch": 44,
                "velocity": 101,
                "duration": 0.30227272727272947,
                "tempo": 120.0
            },
            {
                "start_time": 58.18636363636363,
                "end_time": 58.33863636363636,
                "pitch": 60,
                "velocity": 101,
                "duration": 0.1522727272727309,
                "tempo": 120.0
            },
            {
                "start_time": 58.33863636363636,
                "end_time": 58.48863636363636,
                "pitch": 59,
                "velocity": 101,
                "duration": 0.14999999999999858,
                "tempo": 120.0
            },
            {
                "start_time": 58.48863636363636,
                "end_time": 58.64090909090909,
                "pitch": 57,
                "velocity": 101,
                "duration": 0.1522727272727309,
                "tempo": 120.0
            },
            {
                "start_time": 58.48863636363636,
                "end_time": 58.64090909090909,
                "pitch": 57,
                "velocity": 101,
                "duration": 0.1522727272727309,
                "tempo": 120.0
            },
            {
                "start_time": 58.64090909090909,
                "end_time": 58.793181818181814,
                "pitch": 59,
                "velocity": 101,
                "duration": 0.15227272727272378,
                "tempo": 120.0
            },
            {
                "start_time": 58.64090909090909,
                "end_time": 58.793181818181814,
                "pitch": 59,
                "velocity": 101,
                "duration": 0.15227272727272378,
                "tempo": 120.0
            },
            {
                "start_time": 58.18636363636363,
                "end_time": 58.793181818181814,
                "pitch": 64,
                "velocity": 101,
                "duration": 0.6068181818181841,
                "tempo": 120.0
            },
            {
                "start_time": 58.33863636363636,
                "end_time": 58.945454545454545,
                "pitch": 44,
                "velocity": 101,
                "duration": 0.6068181818181841,
                "tempo": 120.0
            },
            {
                "start_time": 58.793181818181814,
                "end_time": 58.945454545454545,
                "pitch": 60,
                "velocity": 101,
                "duration": 0.1522727272727309,
                "tempo": 120.0
            },
            {
                "start_time": 58.945454545454545,
                "end_time": 59.095454545454544,
                "pitch": 59,
                "velocity": 101,
                "duration": 0.14999999999999858,
                "tempo": 120.0
            },
            {
                "start_time": 55.461363636363636,
                "end_time": 59.095454545454544,
                "pitch": 66,
                "velocity": 101,
                "duration": 3.634090909090908,
                "tempo": 120.0
            },
            {
                "start_time": 59.095454545454544,
                "end_time": 59.24772727272727,
                "pitch": 52,
                "velocity": 101,
                "duration": 0.15227272727272378,
                "tempo": 120.0
            },
            {
                "start_time": 59.24772727272727,
                "end_time": 59.4,
                "pitch": 59,
                "velocity": 101,
                "duration": 0.1522727272727309,
                "tempo": 120.0
            },
            {
                "start_time": 58.793181818181814,
                "end_time": 59.4,
                "pitch": 64,
                "velocity": 101,
                "duration": 0.6068181818181841,
                "tempo": 120.0
            },
            {
                "start_time": 58.945454545454545,
                "end_time": 59.55227272727272,
                "pitch": 44,
                "velocity": 101,
                "duration": 0.606818181818177,
                "tempo": 120.0
            },
            {
                "start_time": 59.4,
                "end_time": 59.55227272727272,
                "pitch": 60,
                "velocity": 101,
                "duration": 0.15227272727272378,
                "tempo": 120.0
            },
            {
                "start_time": 59.55227272727272,
                "end_time": 59.70227272727272,
                "pitch": 59,
                "velocity": 101,
                "duration": 0.14999999999999858,
                "tempo": 120.0
            },
            {
                "start_time": 59.70227272727272,
                "end_time": 59.85454545454545,
                "pitch": 57,
                "velocity": 101,
                "duration": 0.1522727272727309,
                "tempo": 120.0
            },
            {
                "start_time": 59.70227272727272,
                "end_time": 59.85454545454545,
                "pitch": 57,
                "velocity": 101,
                "duration": 0.1522727272727309,
                "tempo": 120.0
            },
            {
                "start_time": 59.85454545454545,
                "end_time": 60.006818181818176,
                "pitch": 59,
                "velocity": 101,
                "duration": 0.15227272727272378,
                "tempo": 120.0
            },
            {
                "start_time": 59.85454545454545,
                "end_time": 60.006818181818176,
                "pitch": 59,
                "velocity": 101,
                "duration": 0.15227272727272378,
                "tempo": 120.0
            },
            {
                "start_time": 59.4,
                "end_time": 60.006818181818176,
                "pitch": 64,
                "velocity": 101,
                "duration": 0.606818181818177,
                "tempo": 120.0
            },
            {
                "start_time": 59.55227272727272,
                "end_time": 60.15909090909091,
                "pitch": 44,
                "velocity": 101,
                "duration": 0.6068181818181841,
                "tempo": 120.0
            },
            {
                "start_time": 60.006818181818176,
                "end_time": 60.15909090909091,
                "pitch": 60,
                "velocity": 101,
                "duration": 0.1522727272727309,
                "tempo": 120.0
            },
            {
                "start_time": 60.15909090909091,
                "end_time": 60.309090909090905,
                "pitch": 59,
                "velocity": 101,
                "duration": 0.14999999999999858,
                "tempo": 120.0
            },
            {
                "start_time": 59.095454545454544,
                "end_time": 60.309090909090905,
                "pitch": 66,
                "velocity": 101,
                "duration": 1.2136363636363612,
                "tempo": 120.0
            },
            {
                "start_time": 55.61363636363636,
                "end_time": 60.461363636363636,
                "pitch": 48,
                "velocity": 101,
                "duration": 4.847727272727276,
                "tempo": 120.0
            },
            {
                "start_time": 60.309090909090905,
                "end_time": 60.461363636363636,
                "pitch": 52,
                "velocity": 101,
                "duration": 0.1522727272727309,
                "tempo": 120.0
            },
            {
                "start_time": 60.461363636363636,
                "end_time": 60.91590909090909,
                "pitch": 60,
                "velocity": 101,
                "duration": 0.45454545454545325,
                "tempo": 120.0
            },
            {
                "start_time": 60.91590909090909,
                "end_time": 61.365909090909085,
                "pitch": 62,
                "velocity": 101,
                "duration": 0.44999999999999574,
                "tempo": 120.0
            },
            {
                "start_time": 60.006818181818176,
                "end_time": 61.365909090909085,
                "pitch": 64,
                "velocity": 101,
                "duration": 1.3590909090909093,
                "tempo": 120.0
            },
            {
                "start_time": 61.365909090909085,
                "end_time": 61.668181818181814,
                "pitch": 64,
                "velocity": 101,
                "duration": 0.30227272727272947,
                "tempo": 120.0
            },
            {
                "start_time": 61.365909090909085,
                "end_time": 61.668181818181814,
                "pitch": 64,
                "velocity": 101,
                "duration": 0.30227272727272947,
                "tempo": 120.0
            },
            {
                "start_time": 61.668181818181814,
                "end_time": 61.67045454545454,
                "pitch": 62,
                "velocity": 101,
                "duration": 0.0022727272727252057,
                "tempo": 120.0
            },
            {
                "start_time": 61.67045454545454,
                "end_time": 61.820454545454545,
                "pitch": 62,
                "velocity": 101,
                "duration": 0.15000000000000568,
                "tempo": 120.0
            },
            {
                "start_time": 61.820454545454545,
                "end_time": 61.97272727272727,
                "pitch": 64,
                "velocity": 101,
                "duration": 0.15227272727272378,
                "tempo": 120.0
            },
            {
                "start_time": 61.820454545454545,
                "end_time": 61.97272727272727,
                "pitch": 64,
                "velocity": 101,
                "duration": 0.15227272727272378,
                "tempo": 120.0
            },
            {
                "start_time": 61.97272727272727,
                "end_time": 62.125,
                "pitch": 65,
                "velocity": 101,
                "duration": 0.1522727272727309,
                "tempo": 120.0
            },
            {
                "start_time": 62.125,
                "end_time": 62.277272727272724,
                "pitch": 64,
                "velocity": 101,
                "duration": 0.15227272727272378,
                "tempo": 120.0
            },
            {
                "start_time": 62.277272727272724,
                "end_time": 62.42727272727272,
                "pitch": 65,
                "velocity": 101,
                "duration": 0.14999999999999858,
                "tempo": 120.0
            },
            {
                "start_time": 62.42727272727272,
                "end_time": 62.57954545454545,
                "pitch": 67,
                "velocity": 101,
                "duration": 0.1522727272727309,
                "tempo": 120.0
            },
            {
                "start_time": 50.01136363636363,
                "end_time": 62.57954545454545,
                "pitch": 78,
                "velocity": 101,
                "duration": 12.56818181818182,
                "tempo": 120.0
            },
            {
                "start_time": 60.15909090909091,
                "end_time": 62.73409090909091,
                "pitch": 44,
                "velocity": 101,
                "duration": 2.575000000000003,
                "tempo": 120.0
            },
            {
                "start_time": 62.57954545454545,
                "end_time": 62.73409090909091,
                "pitch": 65,
                "velocity": 101,
                "duration": 0.1545454545454561,
                "tempo": 120.0
            }
        ]
    }
}