{
    "track_id": "12 Area-5 (Van Allen - The Alien Attack)",
    "mood": "angry",
    "instruments": {
        "Electric Piano 1": [
            {
                "start_time": 0.029545454545454545,
                "end_time": 0.12727272727272726,
                "pitch": 31,
                "velocity": 64,
                "duration": 0.09772727272727272,
                "tempo": 120.0
            },
            {
                "start_time": 0.12954545454545455,
                "end_time": 0.34545454545454546,
                "pitch": 31,
                "velocity": 64,
                "duration": 0.2159090909090909,
                "tempo": 120.0
            },
            {
                "start_time": 0.34545454545454546,
                "end_time": 0.6795454545454546,
                "pitch": 31,
                "velocity": 64,
                "duration": 0.3340909090909091,
                "tempo": 120.0
            },
            {
                "start_time": 0.6795454545454546,
                "end_time": 0.8795454545454545,
                "pitch": 31,
                "velocity": 64,
                "duration": 0.19999999999999996,
                "tempo": 120.0
            },
            {
                "start_time": 1.093181818181818,
                "end_time": 1.3045454545454545,
                "pitch": 31,
                "velocity": 64,
                "duration": 0.21136363636363642,
                "tempo": 120.0
            },
            {
                "start_time": 1.5227272727272727,
                "end_time": 1.7386363636363635,
                "pitch": 31,
                "velocity": 64,
                "duration": 0.21590909090909083,
                "tempo": 120.0
            },
            {
                "start_time": 1.7409090909090907,
                "end_time": 2.0568181818181817,
                "pitch": 31,
                "velocity": 64,
                "duration": 0.3159090909090909,
                "tempo": 120.0
            },
            {
                "start_time": 2.0568181818181817,
                "end_time": 2.377272727272727,
                "pitch": 31,
                "velocity": 64,
                "duration": 0.3204545454545453,
                "tempo": 120.0
            },
            {
                "start_time": 2.3795454545454544,
                "end_time": 2.6,
                "pitch": 31,
                "velocity": 64,
                "duration": 0.22045454545454568,
                "tempo": 120.0
            },
            {
                "start_time": 2.8068181818181817,
                "end_time": 2.918181818181818,
                "pitch": 31,
                "velocity": 64,
                "duration": 0.11136363636363633,
                "tempo": 120.0
            },
            {
                "start_time": 2.918181818181818,
                "end_time": 3.0136363636363637,
                "pitch": 31,
                "velocity": 64,
                "duration": 0.09545454545454568,
                "tempo": 120.0
            },
            {
                "start_time": 3.2363636363636363,
                "end_time": 3.4568181818181816,
                "pitch": 31,
                "velocity": 64,
                "duration": 0.22045454545454524,
                "tempo": 120.0
            },
            {
                "start_time": 3.459090909090909,
                "end_time": 3.5568181818181817,
                "pitch": 31,
                "velocity": 64,
                "duration": 0.09772727272727266,
                "tempo": 120.0
            },
            {
                "start_time": 3.5568181818181817,
                "end_time": 3.775,
                "pitch": 31,
                "velocity": 64,
                "duration": 0.21818181818181825,
                "tempo": 120.0
            },
            {
                "start_time": 3.775,
                "end_time": 4.1090909090909085,
                "pitch": 31,
                "velocity": 64,
                "duration": 0.33409090909090855,
                "tempo": 120.0
            },
            {
                "start_time": 4.1090909090909085,
                "end_time": 4.309090909090909,
                "pitch": 31,
                "velocity": 64,
                "duration": 0.20000000000000018,
                "tempo": 120.0
            },
            {
                "start_time": 4.5204545454545455,
                "end_time": 4.7340909090909085,
                "pitch": 31,
                "velocity": 64,
                "duration": 0.21363636363636296,
                "tempo": 120.0
            },
            {
                "start_time": 4.952272727272727,
                "end_time": 5.168181818181818,
                "pitch": 31,
                "velocity": 64,
                "duration": 0.21590909090909083,
                "tempo": 120.0
            },
            {
                "start_time": 5.168181818181818,
                "end_time": 5.4840909090909085,
                "pitch": 31,
                "velocity": 64,
                "duration": 0.3159090909090905,
                "tempo": 120.0
            },
            {
                "start_time": 5.486363636363636,
                "end_time": 5.806818181818182,
                "pitch": 31,
                "velocity": 64,
                "duration": 0.3204545454545453,
                "tempo": 120.0
            },
            {
                "start_time": 5.806818181818182,
                "end_time": 6.029545454545454,
                "pitch": 31,
                "velocity": 64,
                "duration": 0.22272727272727266,
                "tempo": 120.0
            },
            {
                "start_time": 6.236363636363636,
                "end_time": 6.347727272727273,
                "pitch": 31,
                "velocity": 64,
                "duration": 0.11136363636363633,
                "tempo": 120.0
            },
            {
                "start_time": 6.347727272727273,
                "end_time": 6.4431818181818175,
                "pitch": 31,
                "velocity": 64,
                "duration": 0.09545454545454479,
                "tempo": 120.0
            },
            {
                "start_time": 6.659090909090909,
                "end_time": 6.877272727272727,
                "pitch": 31,
                "velocity": 64,
                "duration": 0.2181818181818178,
                "tempo": 120.0
            },
            {
                "start_time": 6.877272727272727,
                "end_time": 6.975,
                "pitch": 33,
                "velocity": 64,
                "duration": 0.09772727272727266,
                "tempo": 120.0
            },
            {
                "start_time": 6.977272727272727,
                "end_time": 7.1931818181818175,
                "pitch": 33,
                "velocity": 64,
                "duration": 0.21590909090909083,
                "tempo": 120.0
            },
            {
                "start_time": 7.195454545454545,
                "end_time": 7.293181818181818,
                "pitch": 33,
                "velocity": 64,
                "duration": 0.09772727272727266,
                "tempo": 120.0
            },
            {
                "start_time": 7.515909090909091,
                "end_time": 7.736363636363636,
                "pitch": 33,
                "velocity": 64,
                "duration": 0.22045454545454568,
                "tempo": 120.0
            },
            {
                "start_time": 7.9431818181818175,
                "end_time": 8.15,
                "pitch": 33,
                "velocity": 64,
                "duration": 0.2068181818181829,
                "tempo": 120.0
            },
            {
                "start_time": 8.372727272727273,
                "end_time": 8.593181818181817,
                "pitch": 33,
                "velocity": 64,
                "duration": 0.2204545454545439,
                "tempo": 120.0
            },
            {
                "start_time": 8.595454545454546,
                "end_time": 8.911363636363635,
                "pitch": 33,
                "velocity": 64,
                "duration": 0.3159090909090896,
                "tempo": 120.0
            },
            {
                "start_time": 8.911363636363635,
                "end_time": 9.011363636363637,
                "pitch": 33,
                "velocity": 64,
                "duration": 0.10000000000000142,
                "tempo": 120.0
            },
            {
                "start_time": 9.229545454545454,
                "end_time": 9.445454545454545,
                "pitch": 33,
                "velocity": 64,
                "duration": 0.21590909090909172,
                "tempo": 120.0
            },
            {
                "start_time": 9.659090909090908,
                "end_time": 9.756818181818181,
                "pitch": 33,
                "velocity": 64,
                "duration": 0.09772727272727266,
                "tempo": 120.0
            },
            {
                "start_time": 9.756818181818181,
                "end_time": 9.870454545454544,
                "pitch": 33,
                "velocity": 64,
                "duration": 0.11363636363636331,
                "tempo": 120.0
            },
            {
                "start_time": 10.088636363636363,
                "end_time": 10.288636363636364,
                "pitch": 33,
                "velocity": 64,
                "duration": 0.20000000000000107,
                "tempo": 120.0
            },
            {
                "start_time": 10.288636363636364,
                "end_time": 10.404545454545454,
                "pitch": 33,
                "velocity": 64,
                "duration": 0.1159090909090903,
                "tempo": 120.0
            },
            {
                "start_time": 10.404545454545454,
                "end_time": 10.622727272727273,
                "pitch": 33,
                "velocity": 64,
                "duration": 0.2181818181818187,
                "tempo": 120.0
            },
            {
                "start_time": 10.622727272727273,
                "end_time": 10.722727272727273,
                "pitch": 33,
                "velocity": 64,
                "duration": 0.09999999999999964,
                "tempo": 120.0
            },
            {
                "start_time": 10.936363636363636,
                "end_time": 11.147727272727272,
                "pitch": 33,
                "velocity": 64,
                "duration": 0.21136363636363598,
                "tempo": 120.0
            },
            {
                "start_time": 11.36590909090909,
                "end_time": 11.581818181818182,
                "pitch": 33,
                "velocity": 64,
                "duration": 0.21590909090909172,
                "tempo": 120.0
            },
            {
                "start_time": 11.781818181818181,
                "end_time": 12.0,
                "pitch": 33,
                "velocity": 64,
                "duration": 0.2181818181818187,
                "tempo": 120.0
            },
            {
                "start_time": 12.0,
                "end_time": 12.334090909090909,
                "pitch": 33,
                "velocity": 64,
                "duration": 0.334090909090909,
                "tempo": 120.0
            },
            {
                "start_time": 12.334090909090909,
                "end_time": 12.645454545454545,
                "pitch": 33,
                "velocity": 64,
                "duration": 0.3113636363636356,
                "tempo": 120.0
            },
            {
                "start_time": 12.647727272727272,
                "end_time": 12.85909090909091,
                "pitch": 33,
                "velocity": 64,
                "duration": 0.21136363636363775,
                "tempo": 120.0
            },
            {
                "start_time": 12.85909090909091,
                "end_time": 13.075,
                "pitch": 29,
                "velocity": 64,
                "duration": 0.21590909090908994,
                "tempo": 120.0
            },
            {
                "start_time": 13.077272727272726,
                "end_time": 13.174999999999999,
                "pitch": 29,
                "velocity": 64,
                "duration": 0.09772727272727266,
                "tempo": 120.0
            },
            {
                "start_time": 13.177272727272726,
                "end_time": 13.277272727272727,
                "pitch": 28,
                "velocity": 64,
                "duration": 0.10000000000000142,
                "tempo": 120.0
            },
            {
                "start_time": 13.277272727272727,
                "end_time": 13.711363636363636,
                "pitch": 28,
                "velocity": 64,
                "duration": 0.43409090909090864,
                "tempo": 120.0
            },
            {
                "start_time": 13.711363636363636,
                "end_time": 13.825,
                "pitch": 27,
                "velocity": 64,
                "duration": 0.11363636363636331,
                "tempo": 120.0
            },
            {
                "start_time": 13.825,
                "end_time": 14.020454545454545,
                "pitch": 27,
                "velocity": 64,
                "duration": 0.19545454545454533,
                "tempo": 120.0
            },
            {
                "start_time": 14.020454545454545,
                "end_time": 14.134090909090908,
                "pitch": 27,
                "velocity": 64,
                "duration": 0.11363636363636331,
                "tempo": 120.0
            },
            {
                "start_time": 14.136363636363635,
                "end_time": 14.352272727272727,
                "pitch": 27,
                "velocity": 64,
                "duration": 0.21590909090909172,
                "tempo": 120.0
            },
            {
                "start_time": 14.352272727272727,
                "end_time": 14.570454545454545,
                "pitch": 27,
                "velocity": 64,
                "duration": 0.2181818181818187,
                "tempo": 120.0
            },
            {
                "start_time": 14.570454545454545,
                "end_time": 14.774999999999999,
                "pitch": 29,
                "velocity": 64,
                "duration": 0.20454545454545325,
                "tempo": 120.0
            },
            {
                "start_time": 14.774999999999999,
                "end_time": 14.893181818181818,
                "pitch": 29,
                "velocity": 64,
                "duration": 0.11818181818181905,
                "tempo": 120.0
            },
            {
                "start_time": 14.895454545454545,
                "end_time": 14.995454545454544,
                "pitch": 29,
                "velocity": 64,
                "duration": 0.09999999999999964,
                "tempo": 120.0
            },
            {
                "start_time": 15.213636363636363,
                "end_time": 15.329545454545453,
                "pitch": 29,
                "velocity": 64,
                "duration": 0.1159090909090903,
                "tempo": 120.0
            },
            {
                "start_time": 15.33181818181818,
                "end_time": 15.431818181818182,
                "pitch": 30,
                "velocity": 64,
                "duration": 0.10000000000000142,
                "tempo": 120.0
            },
            {
                "start_time": 15.431818181818182,
                "end_time": 15.636363636363635,
                "pitch": 31,
                "velocity": 64,
                "duration": 0.20454545454545325,
                "tempo": 120.0
            },
            {
                "start_time": 15.638636363636364,
                "end_time": 15.843181818181817,
                "pitch": 31,
                "velocity": 64,
                "duration": 0.20454545454545325,
                "tempo": 120.0
            },
            {
                "start_time": 16.06590909090909,
                "end_time": 16.270454545454545,
                "pitch": 31,
                "velocity": 64,
                "duration": 0.20454545454545325,
                "tempo": 120.0
            },
            {
                "start_time": 16.270454545454545,
                "end_time": 16.488636363636363,
                "pitch": 34,
                "velocity": 64,
                "duration": 0.2181818181818187,
                "tempo": 120.0
            },
            {
                "start_time": 16.488636363636363,
                "end_time": 16.604545454545455,
                "pitch": 34,
                "velocity": 64,
                "duration": 0.11590909090909207,
                "tempo": 120.0
            },
            {
                "start_time": 16.604545454545455,
                "end_time": 16.918181818181818,
                "pitch": 33,
                "velocity": 64,
                "duration": 0.3136363636363626,
                "tempo": 120.0
            },
            {
                "start_time": 16.918181818181818,
                "end_time": 17.129545454545454,
                "pitch": 31,
                "velocity": 64,
                "duration": 0.21136363636363598,
                "tempo": 120.0
            },
            {
                "start_time": 17.131818181818183,
                "end_time": 17.229545454545455,
                "pitch": 27,
                "velocity": 64,
                "duration": 0.09772727272727266,
                "tempo": 120.0
            },
            {
                "start_time": 17.23181818181818,
                "end_time": 17.44772727272727,
                "pitch": 27,
                "velocity": 64,
                "duration": 0.21590909090908994,
                "tempo": 120.0
            },
            {
                "start_time": 17.44772727272727,
                "end_time": 17.76590909090909,
                "pitch": 27,
                "velocity": 64,
                "duration": 0.3181818181818201,
                "tempo": 120.0
            },
            {
                "start_time": 17.76590909090909,
                "end_time": 17.98181818181818,
                "pitch": 27,
                "velocity": 64,
                "duration": 0.21590909090908994,
                "tempo": 120.0
            },
            {
                "start_time": 17.98181818181818,
                "end_time": 18.2,
                "pitch": 29,
                "velocity": 64,
                "duration": 0.2181818181818187,
                "tempo": 120.0
            },
            {
                "start_time": 18.2,
                "end_time": 18.31590909090909,
                "pitch": 29,
                "velocity": 64,
                "duration": 0.11590909090909207,
                "tempo": 120.0
            },
            {
                "start_time": 18.31590909090909,
                "end_time": 18.629545454545454,
                "pitch": 29,
                "velocity": 64,
                "duration": 0.3136363636363626,
                "tempo": 120.0
            },
            {
                "start_time": 18.629545454545454,
                "end_time": 18.727272727272727,
                "pitch": 29,
                "velocity": 64,
                "duration": 0.09772727272727266,
                "tempo": 120.0
            },
            {
                "start_time": 18.727272727272727,
                "end_time": 18.84090909090909,
                "pitch": 30,
                "velocity": 64,
                "duration": 0.11363636363636331,
                "tempo": 120.0
            },
            {
                "start_time": 18.84318181818182,
                "end_time": 19.05909090909091,
                "pitch": 31,
                "velocity": 64,
                "duration": 0.21590909090908994,
                "tempo": 120.0
            },
            {
                "start_time": 19.05909090909091,
                "end_time": 19.159090909090907,
                "pitch": 31,
                "velocity": 64,
                "duration": 0.09999999999999787,
                "tempo": 120.0
            },
            {
                "start_time": 19.159090909090907,
                "end_time": 19.375,
                "pitch": 33,
                "velocity": 64,
                "duration": 0.2159090909090935,
                "tempo": 120.0
            },
            {
                "start_time": 19.377272727272725,
                "end_time": 19.474999999999998,
                "pitch": 33,
                "velocity": 64,
                "duration": 0.09772727272727266,
                "tempo": 120.0
            },
            {
                "start_time": 19.477272727272727,
                "end_time": 19.693181818181817,
                "pitch": 34,
                "velocity": 64,
                "duration": 0.21590909090908994,
                "tempo": 120.0
            },
            {
                "start_time": 19.693181818181817,
                "end_time": 19.904545454545453,
                "pitch": 31,
                "velocity": 64,
                "duration": 0.21136363636363598,
                "tempo": 120.0
            },
            {
                "start_time": 19.90681818181818,
                "end_time": 20.002272727272725,
                "pitch": 41,
                "velocity": 64,
                "duration": 0.0954545454545439,
                "tempo": 120.0
            },
            {
                "start_time": 20.004545454545454,
                "end_time": 20.118181818181817,
                "pitch": 43,
                "velocity": 64,
                "duration": 0.11363636363636331,
                "tempo": 120.0
            },
            {
                "start_time": 20.336363636363636,
                "end_time": 20.552272727272726,
                "pitch": 31,
                "velocity": 64,
                "duration": 0.21590909090908994,
                "tempo": 120.0
            },
            {
                "start_time": 20.552272727272726,
                "end_time": 20.652272727272727,
                "pitch": 27,
                "velocity": 64,
                "duration": 0.10000000000000142,
                "tempo": 120.0
            },
            {
                "start_time": 20.652272727272727,
                "end_time": 20.870454545454546,
                "pitch": 27,
                "velocity": 64,
                "duration": 0.2181818181818187,
                "tempo": 120.0
            },
            {
                "start_time": 20.870454545454546,
                "end_time": 20.970454545454544,
                "pitch": 27,
                "velocity": 64,
                "duration": 0.09999999999999787,
                "tempo": 120.0
            },
            {
                "start_time": 20.970454545454544,
                "end_time": 21.19090909090909,
                "pitch": 27,
                "velocity": 64,
                "duration": 0.22045454545454746,
                "tempo": 120.0
            },
            {
                "start_time": 21.193181818181817,
                "end_time": 21.413636363636364,
                "pitch": 27,
                "velocity": 64,
                "duration": 0.22045454545454746,
                "tempo": 120.0
            },
            {
                "start_time": 21.413636363636364,
                "end_time": 21.625,
                "pitch": 29,
                "velocity": 64,
                "duration": 0.21136363636363598,
                "tempo": 120.0
            },
            {
                "start_time": 21.627272727272725,
                "end_time": 21.724999999999998,
                "pitch": 29,
                "velocity": 64,
                "duration": 0.09772727272727266,
                "tempo": 120.0
            },
            {
                "start_time": 21.724999999999998,
                "end_time": 21.83863636363636,
                "pitch": 29,
                "velocity": 64,
                "duration": 0.11363636363636331,
                "tempo": 120.0
            },
            {
                "start_time": 22.05681818181818,
                "end_time": 22.154545454545453,
                "pitch": 29,
                "velocity": 64,
                "duration": 0.09772727272727266,
                "tempo": 120.0
            },
            {
                "start_time": 22.15681818181818,
                "end_time": 22.25681818181818,
                "pitch": 30,
                "velocity": 64,
                "duration": 0.09999999999999787,
                "tempo": 120.0
            },
            {
                "start_time": 22.25681818181818,
                "end_time": 22.46818181818182,
                "pitch": 31,
                "velocity": 64,
                "duration": 0.21136363636363953,
                "tempo": 120.0
            },
            {
                "start_time": 22.46818181818182,
                "end_time": 22.68181818181818,
                "pitch": 31,
                "velocity": 64,
                "duration": 0.21363636363636118,
                "tempo": 120.0
            },
            {
                "start_time": 22.895454545454545,
                "end_time": 23.10681818181818,
                "pitch": 31,
                "velocity": 64,
                "duration": 0.21136363636363598,
                "tempo": 120.0
            },
            {
                "start_time": 23.10681818181818,
                "end_time": 23.32272727272727,
                "pitch": 34,
                "velocity": 64,
                "duration": 0.21590909090908994,
                "tempo": 120.0
            },
            {
                "start_time": 23.325,
                "end_time": 23.422727272727272,
                "pitch": 34,
                "velocity": 64,
                "duration": 0.09772727272727266,
                "tempo": 120.0
            },
            {
                "start_time": 23.424999999999997,
                "end_time": 23.745454545454546,
                "pitch": 33,
                "velocity": 64,
                "duration": 0.3204545454545489,
                "tempo": 120.0
            },
            {
                "start_time": 23.745454545454546,
                "end_time": 23.96818181818182,
                "pitch": 31,
                "velocity": 64,
                "duration": 0.22272727272727266,
                "tempo": 120.0
            },
            {
                "start_time": 23.96818181818182,
                "end_time": 24.077272727272724,
                "pitch": 39,
                "velocity": 64,
                "duration": 0.1090909090909058,
                "tempo": 120.0
            },
            {
                "start_time": 24.079545454545453,
                "end_time": 24.284090909090907,
                "pitch": 39,
                "velocity": 64,
                "duration": 0.20454545454545325,
                "tempo": 120.0
            },
            {
                "start_time": 24.286363636363635,
                "end_time": 24.602272727272727,
                "pitch": 39,
                "velocity": 64,
                "duration": 0.31590909090909136,
                "tempo": 120.0
            },
            {
                "start_time": 24.602272727272727,
                "end_time": 24.704545454545453,
                "pitch": 39,
                "velocity": 64,
                "duration": 0.10227272727272663,
                "tempo": 120.0
            },
            {
                "start_time": 24.704545454545453,
                "end_time": 25.04090909090909,
                "pitch": 38,
                "velocity": 64,
                "duration": 0.336363636363636,
                "tempo": 120.0
            },
            {
                "start_time": 25.043181818181818,
                "end_time": 25.24090909090909,
                "pitch": 36,
                "velocity": 64,
                "duration": 0.19772727272727053,
                "tempo": 120.0
            },
            {
                "start_time": 25.243181818181817,
                "end_time": 25.459090909090907,
                "pitch": 34,
                "velocity": 64,
                "duration": 0.21590909090908994,
                "tempo": 120.0
            },
            {
                "start_time": 25.459090909090907,
                "end_time": 25.674999999999997,
                "pitch": 33,
                "velocity": 64,
                "duration": 0.21590909090908994,
                "tempo": 120.0
            },
            {
                "start_time": 25.677272727272726,
                "end_time": 25.888636363636362,
                "pitch": 31,
                "velocity": 64,
                "duration": 0.21136363636363598,
                "tempo": 120.0
            },
            {
                "start_time": 25.888636363636362,
                "end_time": 25.986363636363635,
                "pitch": 31,
                "velocity": 64,
                "duration": 0.09772727272727266,
                "tempo": 120.0
            },
            {
                "start_time": 25.986363636363635,
                "end_time": 26.2,
                "pitch": 31,
                "velocity": 64,
                "duration": 0.21363636363636473,
                "tempo": 120.0
            },
            {
                "start_time": 26.202272727272724,
                "end_time": 26.318181818181817,
                "pitch": 31,
                "velocity": 64,
                "duration": 0.11590909090909207,
                "tempo": 120.0
            },
            {
                "start_time": 26.318181818181817,
                "end_time": 26.534090909090907,
                "pitch": 31,
                "velocity": 64,
                "duration": 0.21590909090908994,
                "tempo": 120.0
            },
            {
                "start_time": 26.536363636363635,
                "end_time": 26.634090909090908,
                "pitch": 36,
                "velocity": 64,
                "duration": 0.09772727272727266,
                "tempo": 120.0
            },
            {
                "start_time": 26.636363636363637,
                "end_time": 26.73409090909091,
                "pitch": 37,
                "velocity": 64,
                "duration": 0.09772727272727266,
                "tempo": 120.0
            },
            {
                "start_time": 26.736363636363635,
                "end_time": 26.852272727272727,
                "pitch": 36,
                "velocity": 64,
                "duration": 0.11590909090909207,
                "tempo": 120.0
            },
            {
                "start_time": 26.852272727272727,
                "end_time": 26.952272727272724,
                "pitch": 34,
                "velocity": 64,
                "duration": 0.09999999999999787,
                "tempo": 120.0
            },
            {
                "start_time": 27.16590909090909,
                "end_time": 27.377272727272725,
                "pitch": 31,
                "velocity": 64,
                "duration": 0.21136363636363598,
                "tempo": 120.0
            },
            {
                "start_time": 27.379545454545454,
                "end_time": 27.595454545454544,
                "pitch": 36,
                "velocity": 64,
                "duration": 0.21590909090908994,
                "tempo": 120.0
            },
            {
                "start_time": 27.595454545454544,
                "end_time": 27.811363636363634,
                "pitch": 36,
                "velocity": 64,
                "duration": 0.21590909090908994,
                "tempo": 120.0
            },
            {
                "start_time": 28.029545454545453,
                "end_time": 28.229545454545452,
                "pitch": 36,
                "velocity": 64,
                "duration": 0.1999999999999993,
                "tempo": 120.0
            },
            {
                "start_time": 28.229545454545452,
                "end_time": 28.445454545454545,
                "pitch": 36,
                "velocity": 64,
                "duration": 0.2159090909090935,
                "tempo": 120.0
            },
            {
                "start_time": 28.44772727272727,
                "end_time": 28.563636363636363,
                "pitch": 36,
                "velocity": 64,
                "duration": 0.11590909090909207,
                "tempo": 120.0
            },
            {
                "start_time": 28.563636363636363,
                "end_time": 28.66363636363636,
                "pitch": 36,
                "velocity": 64,
                "duration": 0.09999999999999787,
                "tempo": 120.0
            },
            {
                "start_time": 28.877272727272725,
                "end_time": 29.08863636363636,
                "pitch": 36,
                "velocity": 64,
                "duration": 0.21136363636363598,
                "tempo": 120.0
            },
            {
                "start_time": 29.08863636363636,
                "end_time": 29.188636363636363,
                "pitch": 36,
                "velocity": 64,
                "duration": 0.10000000000000142,
                "tempo": 120.0
            },
            {
                "start_time": 29.188636363636363,
                "end_time": 29.40681818181818,
                "pitch": 36,
                "velocity": 64,
                "duration": 0.2181818181818187,
                "tempo": 120.0
            },
            {
                "start_time": 29.40681818181818,
                "end_time": 29.727272727272727,
                "pitch": 36,
                "velocity": 64,
                "duration": 0.3204545454545453,
                "tempo": 120.0
            },
            {
                "start_time": 29.727272727272727,
                "end_time": 29.95,
                "pitch": 36,
                "velocity": 64,
                "duration": 0.22272727272727266,
                "tempo": 120.0
            },
            {
                "start_time": 29.95,
                "end_time": 30.161363636363635,
                "pitch": 36,
                "velocity": 64,
                "duration": 0.21136363636363598,
                "tempo": 120.0
            },
            {
                "start_time": 30.16363636363636,
                "end_time": 30.277272727272727,
                "pitch": 36,
                "velocity": 64,
                "duration": 0.11363636363636687,
                "tempo": 120.0
            },
            {
                "start_time": 30.277272727272727,
                "end_time": 30.59090909090909,
                "pitch": 36,
                "velocity": 64,
                "duration": 0.3136363636363626,
                "tempo": 120.0
            },
            {
                "start_time": 30.593181818181815,
                "end_time": 30.690909090909088,
                "pitch": 34,
                "velocity": 64,
                "duration": 0.09772727272727266,
                "tempo": 120.0
            },
            {
                "start_time": 30.693181818181817,
                "end_time": 30.80909090909091,
                "pitch": 33,
                "velocity": 64,
                "duration": 0.11590909090909207,
                "tempo": 120.0
            },
            {
                "start_time": 30.80909090909091,
                "end_time": 31.020454545454545,
                "pitch": 31,
                "velocity": 64,
                "duration": 0.21136363636363598,
                "tempo": 120.0
            },
            {
                "start_time": 31.02272727272727,
                "end_time": 31.218181818181815,
                "pitch": 31,
                "velocity": 64,
                "duration": 0.19545454545454533,
                "tempo": 120.0
            },
            {
                "start_time": 31.438636363636363,
                "end_time": 31.661363636363635,
                "pitch": 31,
                "velocity": 64,
                "duration": 0.22272727272727266,
                "tempo": 120.0
            },
            {
                "start_time": 31.661363636363635,
                "end_time": 31.877272727272725,
                "pitch": 31,
                "velocity": 64,
                "duration": 0.21590909090908994,
                "tempo": 120.0
            },
            {
                "start_time": 31.879545454545454,
                "end_time": 31.979545454545452,
                "pitch": 31,
                "velocity": 64,
                "duration": 0.09999999999999787,
                "tempo": 120.0
            },
            {
                "start_time": 31.979545454545452,
                "end_time": 32.095454545454544,
                "pitch": 31,
                "velocity": 64,
                "duration": 0.11590909090909207,
                "tempo": 120.0
            },
            {
                "start_time": 32.309090909090905,
                "end_time": 32.52045454545454,
                "pitch": 31,
                "velocity": 64,
                "duration": 0.21136363636363598,
                "tempo": 120.0
            },
            {
                "start_time": 32.52045454545454,
                "end_time": 32.62045454545454,
                "pitch": 31,
                "velocity": 64,
                "duration": 0.10000000000000142,
                "tempo": 120.0
            },
            {
                "start_time": 32.62045454545454,
                "end_time": 32.83863636363636,
                "pitch": 31,
                "velocity": 64,
                "duration": 0.2181818181818187,
                "tempo": 120.0
            },
            {
                "start_time": 32.83863636363636,
                "end_time": 33.154545454545456,
                "pitch": 31,
                "velocity": 64,
                "duration": 0.3159090909090949,
                "tempo": 120.0
            },
            {
                "start_time": 33.15681818181818,
                "end_time": 33.37272727272727,
                "pitch": 31,
                "velocity": 64,
                "duration": 0.2159090909090864,
                "tempo": 120.0
            },
            {
                "start_time": 33.37272727272727,
                "end_time": 33.58863636363636,
                "pitch": 31,
                "velocity": 64,
                "duration": 0.2159090909090935,
                "tempo": 120.0
            },
            {
                "start_time": 33.590909090909086,
                "end_time": 33.69090909090909,
                "pitch": 31,
                "velocity": 64,
                "duration": 0.10000000000000142,
                "tempo": 120.0
            },
            {
                "start_time": 33.69090909090909,
                "end_time": 33.80681818181818,
                "pitch": 31,
                "velocity": 64,
                "duration": 0.11590909090909207,
                "tempo": 120.0
            },
            {
                "start_time": 34.02045454545454,
                "end_time": 34.11590909090909,
                "pitch": 31,
                "velocity": 64,
                "duration": 0.09545454545455101,
                "tempo": 120.0
            },
            {
                "start_time": 34.11818181818182,
                "end_time": 34.215909090909086,
                "pitch": 34,
                "velocity": 64,
                "duration": 0.09772727272726911,
                "tempo": 120.0
            },
            {
                "start_time": 34.215909090909086,
                "end_time": 34.43181818181818,
                "pitch": 36,
                "velocity": 64,
                "duration": 0.2159090909090935,
                "tempo": 120.0
            },
            {
                "start_time": 34.43181818181818,
                "end_time": 34.65,
                "pitch": 36,
                "velocity": 64,
                "duration": 0.2181818181818187,
                "tempo": 120.0
            },
            {
                "start_time": 34.86590909090909,
                "end_time": 35.08409090909091,
                "pitch": 36,
                "velocity": 64,
                "duration": 0.2181818181818187,
                "tempo": 120.0
            },
            {
                "start_time": 35.08409090909091,
                "end_time": 35.3,
                "pitch": 36,
                "velocity": 64,
                "duration": 0.2159090909090864,
                "tempo": 120.0
            },
            {
                "start_time": 35.3,
                "end_time": 35.4,
                "pitch": 36,
                "velocity": 64,
                "duration": 0.10000000000000142,
                "tempo": 120.0
            },
            {
                "start_time": 35.402272727272724,
                "end_time": 35.518181818181816,
                "pitch": 36,
                "velocity": 64,
                "duration": 0.11590909090909207,
                "tempo": 120.0
            },
            {
                "start_time": 35.71818181818182,
                "end_time": 35.934090909090905,
                "pitch": 38,
                "velocity": 64,
                "duration": 0.2159090909090864,
                "tempo": 120.0
            },
            {
                "start_time": 35.93636363636364,
                "end_time": 36.05,
                "pitch": 39,
                "velocity": 64,
                "duration": 0.11363636363635976,
                "tempo": 120.0
            },
            {
                "start_time": 36.05,
                "end_time": 36.26136363636363,
                "pitch": 39,
                "velocity": 64,
                "duration": 0.21136363636363598,
                "tempo": 120.0
            },
            {
                "start_time": 36.26363636363636,
                "end_time": 36.58181818181818,
                "pitch": 39,
                "velocity": 64,
                "duration": 0.3181818181818201,
                "tempo": 120.0
            },
            {
                "start_time": 36.58181818181818,
                "end_time": 36.80227272727272,
                "pitch": 39,
                "velocity": 64,
                "duration": 0.2204545454545439,
                "tempo": 120.0
            },
            {
                "start_time": 36.80227272727272,
                "end_time": 37.00909090909091,
                "pitch": 29,
                "velocity": 64,
                "duration": 0.20681818181818556,
                "tempo": 120.0
            },
            {
                "start_time": 37.00909090909091,
                "end_time": 37.10454545454545,
                "pitch": 29,
                "velocity": 64,
                "duration": 0.0954545454545439,
                "tempo": 120.0
            },
            {
                "start_time": 37.10681818181818,
                "end_time": 37.42045454545455,
                "pitch": 29,
                "velocity": 64,
                "duration": 0.3136363636363697,
                "tempo": 120.0
            },
            {
                "start_time": 37.42272727272727,
                "end_time": 37.643181818181816,
                "pitch": 29,
                "velocity": 64,
                "duration": 0.2204545454545439,
                "tempo": 120.0
            },
            {
                "start_time": 37.643181818181816,
                "end_time": 37.861363636363635,
                "pitch": 31,
                "velocity": 64,
                "duration": 0.2181818181818187,
                "tempo": 120.0
            },
            {
                "start_time": 37.861363636363635,
                "end_time": 38.07727272727273,
                "pitch": 31,
                "velocity": 64,
                "duration": 0.2159090909090935,
                "tempo": 120.0
            },
            {
                "start_time": 38.29545454545455,
                "end_time": 38.51136363636363,
                "pitch": 31,
                "velocity": 64,
                "duration": 0.2159090909090864,
                "tempo": 120.0
            },
            {
                "start_time": 38.51136363636363,
                "end_time": 38.711363636363636,
                "pitch": 31,
                "velocity": 64,
                "duration": 0.20000000000000284,
                "tempo": 120.0
            },
            {
                "start_time": 38.711363636363636,
                "end_time": 38.82954545454545,
                "pitch": 31,
                "velocity": 64,
                "duration": 0.11818181818181728,
                "tempo": 120.0
            },
            {
                "start_time": 38.82954545454545,
                "end_time": 39.143181818181816,
                "pitch": 31,
                "velocity": 64,
                "duration": 0.3136363636363626,
                "tempo": 120.0
            },
            {
                "start_time": 39.143181818181816,
                "end_time": 39.35454545454545,
                "pitch": 31,
                "velocity": 64,
                "duration": 0.21136363636363598,
                "tempo": 120.0
            },
            {
                "start_time": 39.35454545454545,
                "end_time": 39.45454545454545,
                "pitch": 36,
                "velocity": 64,
                "duration": 0.10000000000000142,
                "tempo": 120.0
            },
            {
                "start_time": 39.45454545454545,
                "end_time": 39.67272727272727,
                "pitch": 36,
                "velocity": 64,
                "duration": 0.2181818181818187,
                "tempo": 120.0
            },
            {
                "start_time": 39.67272727272727,
                "end_time": 40.00454545454545,
                "pitch": 36,
                "velocity": 64,
                "duration": 0.33181818181817846,
                "tempo": 120.0
            },
            {
                "start_time": 40.00681818181818,
                "end_time": 40.20681818181818,
                "pitch": 36,
                "velocity": 64,
                "duration": 0.19999999999999574,
                "tempo": 120.0
            },
            {
                "start_time": 40.20681818181818,
                "end_time": 40.418181818181814,
                "pitch": 26,
                "velocity": 64,
                "duration": 0.21136363636363598,
                "tempo": 120.0
            },
            {
                "start_time": 40.42045454545455,
                "end_time": 40.53409090909091,
                "pitch": 26,
                "velocity": 64,
                "duration": 0.11363636363635976,
                "tempo": 120.0
            },
            {
                "start_time": 40.53409090909091,
                "end_time": 40.85227272727273,
                "pitch": 26,
                "velocity": 64,
                "duration": 0.3181818181818201,
                "tempo": 120.0
            },
            {
                "start_time": 40.85227272727273,
                "end_time": 41.074999999999996,
                "pitch": 26,
                "velocity": 64,
                "duration": 0.2227272727272691,
                "tempo": 120.0
            },
            {
                "start_time": 41.074999999999996,
                "end_time": 41.28636363636363,
                "pitch": 27,
                "velocity": 64,
                "duration": 0.21136363636363598,
                "tempo": 120.0
            },
            {
                "start_time": 41.288636363636364,
                "end_time": 41.5,
                "pitch": 27,
                "velocity": 64,
                "duration": 0.21136363636363598,
                "tempo": 120.0
            },
            {
                "start_time": 41.70454545454545,
                "end_time": 41.92727272727272,
                "pitch": 27,
                "velocity": 64,
                "duration": 0.2227272727272691,
                "tempo": 120.0
            },
            {
                "start_time": 41.92727272727272,
                "end_time": 42.13409090909091,
                "pitch": 28,
                "velocity": 64,
                "duration": 0.20681818181818556,
                "tempo": 120.0
            },
            {
                "start_time": 42.56136363636364,
                "end_time": 42.78181818181818,
                "pitch": 28,
                "velocity": 64,
                "duration": 0.2204545454545439,
                "tempo": 120.0
            },
            {
                "start_time": 42.78409090909091,
                "end_time": 42.99545454545454,
                "pitch": 26,
                "velocity": 64,
                "duration": 0.21136363636363598,
                "tempo": 120.0
            },
            {
                "start_time": 42.99545454545454,
                "end_time": 43.19090909090909,
                "pitch": 26,
                "velocity": 64,
                "duration": 0.19545454545454533,
                "tempo": 120.0
            },
            {
                "start_time": 43.40909090909091,
                "end_time": 43.625,
                "pitch": 26,
                "velocity": 64,
                "duration": 0.2159090909090935,
                "tempo": 120.0
            },
            {
                "start_time": 43.627272727272725,
                "end_time": 43.74318181818182,
                "pitch": 27,
                "velocity": 64,
                "duration": 0.11590909090909207,
                "tempo": 120.0
            },
            {
                "start_time": 43.74318181818182,
                "end_time": 43.84318181818182,
                "pitch": 28,
                "velocity": 64,
                "duration": 0.10000000000000142,
                "tempo": 120.0
            },
            {
                "start_time": 43.84318181818182,
                "end_time": 43.94318181818181,
                "pitch": 27,
                "velocity": 64,
                "duration": 0.09999999999999432,
                "tempo": 120.0
            },
            {
                "start_time": 43.94318181818181,
                "end_time": 44.059090909090905,
                "pitch": 23,
                "velocity": 64,
                "duration": 0.11590909090909207,
                "tempo": 120.0
            },
            {
                "start_time": 44.277272727272724,
                "end_time": 44.47727272727273,
                "pitch": 23,
                "velocity": 64,
                "duration": 0.20000000000000284,
                "tempo": 120.0
            },
            {
                "start_time": 44.47727272727273,
                "end_time": 44.59318181818182,
                "pitch": 36,
                "velocity": 64,
                "duration": 0.11590909090909207,
                "tempo": 120.0
            },
            {
                "start_time": 44.595454545454544,
                "end_time": 44.81136363636364,
                "pitch": 36,
                "velocity": 64,
                "duration": 0.2159090909090935,
                "tempo": 120.0
            },
            {
                "start_time": 44.81136363636364,
                "end_time": 45.125,
                "pitch": 36,
                "velocity": 64,
                "duration": 0.3136363636363626,
                "tempo": 120.0
            },
            {
                "start_time": 45.125,
                "end_time": 45.336363636363636,
                "pitch": 36,
                "velocity": 64,
                "duration": 0.21136363636363598,
                "tempo": 120.0
            },
            {
                "start_time": 45.33863636363636,
                "end_time": 45.554545454545455,
                "pitch": 38,
                "velocity": 64,
                "duration": 0.2159090909090935,
                "tempo": 120.0
            },
            {
                "start_time": 45.554545454545455,
                "end_time": 45.65454545454545,
                "pitch": 38,
                "velocity": 64,
                "duration": 0.09999999999999432,
                "tempo": 120.0
            },
            {
                "start_time": 45.65454545454545,
                "end_time": 45.970454545454544,
                "pitch": 38,
                "velocity": 64,
                "duration": 0.3159090909090949,
                "tempo": 120.0
            },
            {
                "start_time": 45.97272727272727,
                "end_time": 46.08863636363636,
                "pitch": 38,
                "velocity": 64,
                "duration": 0.11590909090909207,
                "tempo": 120.0
            },
            {
                "start_time": 46.08863636363636,
                "end_time": 46.18863636363636,
                "pitch": 39,
                "velocity": 64,
                "duration": 0.10000000000000142,
                "tempo": 120.0
            },
            {
                "start_time": 46.18863636363636,
                "end_time": 46.4,
                "pitch": 40,
                "velocity": 64,
                "duration": 0.21136363636363598,
                "tempo": 120.0
            },
            {
                "start_time": 46.402272727272724,
                "end_time": 46.61363636363636,
                "pitch": 40,
                "velocity": 64,
                "duration": 0.21136363636363598,
                "tempo": 120.0
            },
            {
                "start_time": 46.83181818181818,
                "end_time": 47.04772727272727,
                "pitch": 40,
                "velocity": 64,
                "duration": 0.2159090909090935,
                "tempo": 120.0
            },
            {
                "start_time": 47.04772727272727,
                "end_time": 47.26363636363636,
                "pitch": 43,
                "velocity": 64,
                "duration": 0.2159090909090864,
                "tempo": 120.0
            },
            {
                "start_time": 47.26590909090909,
                "end_time": 47.36363636363636,
                "pitch": 43,
                "velocity": 64,
                "duration": 0.09772727272726911,
                "tempo": 120.0
            },
            {
                "start_time": 47.36590909090909,
                "end_time": 47.68636363636364,
                "pitch": 42,
                "velocity": 64,
                "duration": 0.3204545454545453,
                "tempo": 120.0
            },
            {
                "start_time": 47.68636363636364,
                "end_time": 47.90909090909091,
                "pitch": 40,
                "velocity": 64,
                "duration": 0.2227272727272691,
                "tempo": 120.0
            },
            {
                "start_time": 47.90909090909091,
                "end_time": 48.02045454545454,
                "pitch": 36,
                "velocity": 64,
                "duration": 0.11136363636363455,
                "tempo": 120.0
            },
            {
                "start_time": 48.02045454545454,
                "end_time": 48.211363636363636,
                "pitch": 36,
                "velocity": 64,
                "duration": 0.19090909090909491,
                "tempo": 120.0
            },
            {
                "start_time": 48.211363636363636,
                "end_time": 48.538636363636364,
                "pitch": 36,
                "velocity": 64,
                "duration": 0.32727272727272805,
                "tempo": 120.0
            },
            {
                "start_time": 48.538636363636364,
                "end_time": 48.75681818181818,
                "pitch": 36,
                "velocity": 64,
                "duration": 0.2181818181818187,
                "tempo": 120.0
            },
            {
                "start_time": 48.75681818181818,
                "end_time": 48.961363636363636,
                "pitch": 38,
                "velocity": 64,
                "duration": 0.20454545454545325,
                "tempo": 120.0
            },
            {
                "start_time": 48.961363636363636,
                "end_time": 49.07954545454545,
                "pitch": 38,
                "velocity": 64,
                "duration": 0.11818181818181728,
                "tempo": 120.0
            },
            {
                "start_time": 49.07954545454545,
                "end_time": 49.39090909090909,
                "pitch": 38,
                "velocity": 64,
                "duration": 0.3113636363636374,
                "tempo": 120.0
            },
            {
                "start_time": 49.39090909090909,
                "end_time": 49.5,
                "pitch": 38,
                "velocity": 64,
                "duration": 0.10909090909090935,
                "tempo": 120.0
            },
            {
                "start_time": 49.502272727272725,
                "end_time": 49.59772727272727,
                "pitch": 39,
                "velocity": 64,
                "duration": 0.0954545454545439,
                "tempo": 120.0
            },
            {
                "start_time": 49.59772727272727,
                "end_time": 49.81363636363636,
                "pitch": 40,
                "velocity": 64,
                "duration": 0.2159090909090935,
                "tempo": 120.0
            },
            {
                "start_time": 49.81363636363636,
                "end_time": 49.913636363636364,
                "pitch": 40,
                "velocity": 64,
                "duration": 0.10000000000000142,
                "tempo": 120.0
            },
            {
                "start_time": 49.913636363636364,
                "end_time": 50.13181818181818,
                "pitch": 42,
                "velocity": 64,
                "duration": 0.2181818181818187,
                "tempo": 120.0
            },
            {
                "start_time": 50.13181818181818,
                "end_time": 50.252272727272725,
                "pitch": 42,
                "velocity": 64,
                "duration": 0.12045454545454248,
                "tempo": 120.0
            },
            {
                "start_time": 50.252272727272725,
                "end_time": 50.45681818181818,
                "pitch": 43,
                "velocity": 64,
                "duration": 0.20454545454545325,
                "tempo": 120.0
            },
            {
                "start_time": 50.45681818181818,
                "end_time": 50.675,
                "pitch": 40,
                "velocity": 64,
                "duration": 0.2181818181818187,
                "tempo": 120.0
            },
            {
                "start_time": 50.675,
                "end_time": 50.79090909090909,
                "pitch": 50,
                "velocity": 64,
                "duration": 0.11590909090909207,
                "tempo": 120.0
            },
            {
                "start_time": 50.79090909090909,
                "end_time": 50.89090909090909,
                "pitch": 52,
                "velocity": 64,
                "duration": 0.10000000000000142,
                "tempo": 120.0
            },
            {
                "start_time": 51.099999999999994,
                "end_time": 51.304545454545455,
                "pitch": 40,
                "velocity": 64,
                "duration": 0.20454545454546036,
                "tempo": 120.0
            },
            {
                "start_time": 51.30681818181818,
                "end_time": 51.40681818181818,
                "pitch": 36,
                "velocity": 64,
                "duration": 0.10000000000000142,
                "tempo": 120.0
            },
            {
                "start_time": 51.40681818181818,
                "end_time": 51.62954545454545,
                "pitch": 36,
                "velocity": 64,
                "duration": 0.2227272727272691,
                "tempo": 120.0
            },
            {
                "start_time": 51.62954545454545,
                "end_time": 51.949999999999996,
                "pitch": 36,
                "velocity": 64,
                "duration": 0.3204545454545453,
                "tempo": 120.0
            },
            {
                "start_time": 51.949999999999996,
                "end_time": 52.16590909090909,
                "pitch": 36,
                "velocity": 64,
                "duration": 0.2159090909090935,
                "tempo": 120.0
            },
            {
                "start_time": 52.16590909090909,
                "end_time": 52.37272727272727,
                "pitch": 38,
                "velocity": 64,
                "duration": 0.20681818181817846,
                "tempo": 120.0
            },
            {
                "start_time": 52.37272727272727,
                "end_time": 52.48409090909091,
                "pitch": 38,
                "velocity": 64,
                "duration": 0.11136363636364166,
                "tempo": 120.0
            },
            {
                "start_time": 52.48409090909091,
                "end_time": 52.8,
                "pitch": 38,
                "velocity": 64,
                "duration": 0.3159090909090878,
                "tempo": 120.0
            },
            {
                "start_time": 52.8,
                "end_time": 52.902272727272724,
                "pitch": 38,
                "velocity": 64,
                "duration": 0.10227272727272663,
                "tempo": 120.0
            },
            {
                "start_time": 52.902272727272724,
                "end_time": 53.02272727272727,
                "pitch": 39,
                "velocity": 64,
                "duration": 0.12045454545454959,
                "tempo": 120.0
            },
            {
                "start_time": 53.02272727272727,
                "end_time": 53.23863636363636,
                "pitch": 40,
                "velocity": 64,
                "duration": 0.2159090909090864,
                "tempo": 120.0
            },
            {
                "start_time": 53.240909090909085,
                "end_time": 53.44090909090909,
                "pitch": 40,
                "velocity": 64,
                "duration": 0.20000000000000284,
                "tempo": 120.0
            },
            {
                "start_time": 53.65909090909091,
                "end_time": 53.875,
                "pitch": 40,
                "velocity": 64,
                "duration": 0.2159090909090935,
                "tempo": 120.0
            },
            {
                "start_time": 53.875,
                "end_time": 54.086363636363636,
                "pitch": 43,
                "velocity": 64,
                "duration": 0.21136363636363598,
                "tempo": 120.0
            },
            {
                "start_time": 54.08863636363636,
                "end_time": 54.184090909090905,
                "pitch": 43,
                "velocity": 64,
                "duration": 0.0954545454545439,
                "tempo": 120.0
            },
            {
                "start_time": 54.18636363636363,
                "end_time": 54.51590909090909,
                "pitch": 42,
                "velocity": 64,
                "duration": 0.32954545454546036,
                "tempo": 120.0
            },
            {
                "start_time": 54.51590909090909,
                "end_time": 54.73409090909091,
                "pitch": 40,
                "velocity": 64,
                "duration": 0.2181818181818187,
                "tempo": 120.0
            },
            {
                "start_time": 54.73409090909091,
                "end_time": 54.834090909090904,
                "pitch": 36,
                "velocity": 64,
                "duration": 0.09999999999999432,
                "tempo": 120.0
            },
            {
                "start_time": 54.834090909090904,
                "end_time": 55.05,
                "pitch": 36,
                "velocity": 64,
                "duration": 0.2159090909090935,
                "tempo": 120.0
            },
            {
                "start_time": 55.05227272727272,
                "end_time": 55.36363636363636,
                "pitch": 36,
                "velocity": 64,
                "duration": 0.3113636363636374,
                "tempo": 120.0
            },
            {
                "start_time": 55.365909090909085,
                "end_time": 55.57727272727273,
                "pitch": 36,
                "velocity": 64,
                "duration": 0.21136363636364308,
                "tempo": 120.0
            },
            {
                "start_time": 55.57727272727273,
                "end_time": 55.793181818181814,
                "pitch": 38,
                "velocity": 64,
                "duration": 0.2159090909090864,
                "tempo": 120.0
            },
            {
                "start_time": 55.793181818181814,
                "end_time": 55.893181818181816,
                "pitch": 38,
                "velocity": 64,
                "duration": 0.10000000000000142,
                "tempo": 120.0
            },
            {
                "start_time": 55.893181818181816,
                "end_time": 56.23181818181818,
                "pitch": 38,
                "velocity": 64,
                "duration": 0.3386363636363612,
                "tempo": 120.0
            },
            {
                "start_time": 56.23181818181818,
                "end_time": 56.43636363636363,
                "pitch": 38,
                "velocity": 64,
                "duration": 0.20454545454545325,
                "tempo": 120.0
            },
            {
                "start_time": 56.43863636363636,
                "end_time": 56.55,
                "pitch": 39,
                "velocity": 64,
                "duration": 0.11136363636363455,
                "tempo": 120.0
            },
            {
                "start_time": 56.55,
                "end_time": 56.75454545454545,
                "pitch": 39,
                "velocity": 64,
                "duration": 0.20454545454545325,
                "tempo": 120.0
            },
            {
                "start_time": 56.756818181818176,
                "end_time": 57.06818181818181,
                "pitch": 39,
                "velocity": 64,
                "duration": 0.3113636363636374,
                "tempo": 120.0
            },
            {
                "start_time": 57.06818181818181,
                "end_time": 57.28409090909091,
                "pitch": 39,
                "velocity": 64,
                "duration": 0.2159090909090935,
                "tempo": 120.0
            },
            {
                "start_time": 57.28636363636363,
                "end_time": 57.502272727272725,
                "pitch": 41,
                "velocity": 64,
                "duration": 0.2159090909090935,
                "tempo": 120.0
            },
            {
                "start_time": 57.502272727272725,
                "end_time": 57.60227272727273,
                "pitch": 41,
                "velocity": 64,
                "duration": 0.10000000000000142,
                "tempo": 120.0
            },
            {
                "start_time": 57.60227272727273,
                "end_time": 57.92045454545454,
                "pitch": 41,
                "velocity": 64,
                "duration": 0.318181818181813,
                "tempo": 120.0
            },
            {
                "start_time": 57.92045454545454,
                "end_time": 58.13636363636363,
                "pitch": 41,
                "velocity": 64,
                "duration": 0.2159090909090935,
                "tempo": 120.0
            }
        ]
    }
}