{
    "track_id": "12 Boss 4",
    "mood": "angry",
    "instruments": {
        "French Horn": [
            {
                "start_time": 0.18181818181818182,
                "end_time": 0.24545454545454545,
                "pitch": 63,
                "velocity": 51,
                "duration": 0.06363636363636363,
                "tempo": 120.0
            },
            {
                "start_time": 0.27954545454545454,
                "end_time": 0.32727272727272727,
                "pitch": 63,
                "velocity": 51,
                "duration": 0.04772727272727273,
                "tempo": 120.0
            },
            {
                "start_time": 0.36136363636363633,
                "end_time": 0.6954545454545454,
                "pitch": 62,
                "velocity": 51,
                "duration": 0.3340909090909091,
                "tempo": 120.0
            },
            {
                "start_time": 0.7136363636363636,
                "end_time": 0.8090909090909091,
                "pitch": 69,
                "velocity": 51,
                "duration": 0.09545454545454546,
                "tempo": 120.0
            },
            {
                "start_time": 3.036363636363636,
                "end_time": 3.0999999999999996,
                "pitch": 63,
                "velocity": 51,
                "duration": 0.06363636363636349,
                "tempo": 120.0
            },
            {
                "start_time": 3.118181818181818,
                "end_time": 3.1818181818181817,
                "pitch": 63,
                "velocity": 51,
                "duration": 0.06363636363636349,
                "tempo": 120.0
            },
            {
                "start_time": 3.215909090909091,
                "end_time": 3.559090909090909,
                "pitch": 62,
                "velocity": 51,
                "duration": 0.34318181818181825,
                "tempo": 120.0
            },
            {
                "start_time": 3.577272727272727,
                "end_time": 3.675,
                "pitch": 69,
                "velocity": 51,
                "duration": 0.09772727272727266,
                "tempo": 120.0
            },
            {
                "start_time": 5.904545454545454,
                "end_time": 5.968181818181818,
                "pitch": 64,
                "velocity": 51,
                "duration": 0.06363636363636349,
                "tempo": 120.0
            },
            {
                "start_time": 5.9840909090909085,
                "end_time": 6.047727272727273,
                "pitch": 64,
                "velocity": 51,
                "duration": 0.06363636363636438,
                "tempo": 120.0
            },
            {
                "start_time": 6.081818181818181,
                "end_time": 6.406818181818181,
                "pitch": 64,
                "velocity": 51,
                "duration": 0.3250000000000002,
                "tempo": 120.0
            },
            {
                "start_time": 6.4431818181818175,
                "end_time": 6.543181818181818,
                "pitch": 63,
                "velocity": 51,
                "duration": 0.10000000000000053,
                "tempo": 120.0
            },
            {
                "start_time": 8.770454545454545,
                "end_time": 8.818181818181818,
                "pitch": 64,
                "velocity": 51,
                "duration": 0.04772727272727373,
                "tempo": 120.0
            },
            {
                "start_time": 8.85,
                "end_time": 8.915909090909091,
                "pitch": 64,
                "velocity": 51,
                "duration": 0.06590909090909136,
                "tempo": 120.0
            },
            {
                "start_time": 8.95,
                "end_time": 9.272727272727272,
                "pitch": 64,
                "velocity": 51,
                "duration": 0.3227272727272723,
                "tempo": 120.0
            },
            {
                "start_time": 9.309090909090909,
                "end_time": 9.39090909090909,
                "pitch": 63,
                "velocity": 51,
                "duration": 0.08181818181818201,
                "tempo": 120.0
            },
            {
                "start_time": 23.077272727272724,
                "end_time": 23.14090909090909,
                "pitch": 63,
                "velocity": 51,
                "duration": 0.06363636363636616,
                "tempo": 120.0
            },
            {
                "start_time": 23.15681818181818,
                "end_time": 23.222727272727273,
                "pitch": 63,
                "velocity": 51,
                "duration": 0.06590909090909136,
                "tempo": 120.0
            },
            {
                "start_time": 23.25681818181818,
                "end_time": 23.597727272727273,
                "pitch": 62,
                "velocity": 51,
                "duration": 0.3409090909090935,
                "tempo": 120.0
            }
        ],
        "Acoustic Bass": [
            {
                "start_time": 0.004545454545454545,
                "end_time": 0.1477272727272727,
                "pitch": 27,
                "velocity": 64,
                "duration": 0.14318181818181816,
                "tempo": 120.0
            },
            {
                "start_time": 0.18181818181818182,
                "end_time": 0.32727272727272727,
                "pitch": 39,
                "velocity": 64,
                "duration": 0.14545454545454545,
                "tempo": 120.0
            },
            {
                "start_time": 0.35909090909090907,
                "end_time": 0.509090909090909,
                "pitch": 37,
                "velocity": 64,
                "duration": 0.14999999999999997,
                "tempo": 120.0
            },
            {
                "start_time": 0.5431818181818182,
                "end_time": 0.6931818181818181,
                "pitch": 39,
                "velocity": 64,
                "duration": 0.1499999999999999,
                "tempo": 120.0
            },
            {
                "start_time": 0.7113636363636363,
                "end_time": 0.8568181818181818,
                "pitch": 27,
                "velocity": 64,
                "duration": 0.1454545454545455,
                "tempo": 120.0
            },
            {
                "start_time": 0.8909090909090909,
                "end_time": 1.0363636363636364,
                "pitch": 39,
                "velocity": 64,
                "duration": 0.1454545454545455,
                "tempo": 120.0
            },
            {
                "start_time": 1.0681818181818181,
                "end_time": 1.2227272727272727,
                "pitch": 37,
                "velocity": 64,
                "duration": 0.15454545454545454,
                "tempo": 120.0
            },
            {
                "start_time": 1.2568181818181818,
                "end_time": 1.4113636363636364,
                "pitch": 39,
                "velocity": 64,
                "duration": 0.15454545454545454,
                "tempo": 120.0
            },
            {
                "start_time": 1.4295454545454545,
                "end_time": 1.575,
                "pitch": 27,
                "velocity": 64,
                "duration": 0.1454545454545455,
                "tempo": 120.0
            },
            {
                "start_time": 1.6068181818181817,
                "end_time": 1.7545454545454544,
                "pitch": 39,
                "velocity": 64,
                "duration": 0.1477272727272727,
                "tempo": 120.0
            },
            {
                "start_time": 1.7863636363636364,
                "end_time": 1.9363636363636363,
                "pitch": 37,
                "velocity": 64,
                "duration": 0.1499999999999999,
                "tempo": 120.0
            },
            {
                "start_time": 1.9704545454545455,
                "end_time": 2.120454545454545,
                "pitch": 39,
                "velocity": 64,
                "duration": 0.1499999999999997,
                "tempo": 120.0
            },
            {
                "start_time": 2.1386363636363637,
                "end_time": 2.284090909090909,
                "pitch": 27,
                "velocity": 64,
                "duration": 0.1454545454545455,
                "tempo": 120.0
            },
            {
                "start_time": 2.318181818181818,
                "end_time": 2.4636363636363634,
                "pitch": 39,
                "velocity": 64,
                "duration": 0.1454545454545455,
                "tempo": 120.0
            },
            {
                "start_time": 2.495454545454545,
                "end_time": 2.65,
                "pitch": 37,
                "velocity": 64,
                "duration": 0.15454545454545476,
                "tempo": 120.0
            },
            {
                "start_time": 2.684090909090909,
                "end_time": 2.8386363636363634,
                "pitch": 39,
                "velocity": 64,
                "duration": 0.15454545454545432,
                "tempo": 120.0
            },
            {
                "start_time": 2.8568181818181815,
                "end_time": 3.002272727272727,
                "pitch": 27,
                "velocity": 64,
                "duration": 0.1454545454545455,
                "tempo": 120.0
            },
            {
                "start_time": 3.036363636363636,
                "end_time": 3.1818181818181817,
                "pitch": 39,
                "velocity": 64,
                "duration": 0.1454545454545455,
                "tempo": 120.0
            },
            {
                "start_time": 3.215909090909091,
                "end_time": 3.368181818181818,
                "pitch": 37,
                "velocity": 64,
                "duration": 0.15227272727272734,
                "tempo": 120.0
            },
            {
                "start_time": 3.402272727272727,
                "end_time": 3.5568181818181817,
                "pitch": 39,
                "velocity": 64,
                "duration": 0.15454545454545476,
                "tempo": 120.0
            },
            {
                "start_time": 3.5749999999999997,
                "end_time": 3.7249999999999996,
                "pitch": 27,
                "velocity": 64,
                "duration": 0.1499999999999999,
                "tempo": 120.0
            },
            {
                "start_time": 3.759090909090909,
                "end_time": 3.9090909090909087,
                "pitch": 39,
                "velocity": 64,
                "duration": 0.1499999999999999,
                "tempo": 120.0
            },
            {
                "start_time": 3.943181818181818,
                "end_time": 4.093181818181818,
                "pitch": 37,
                "velocity": 64,
                "duration": 0.1499999999999999,
                "tempo": 120.0
            },
            {
                "start_time": 4.127272727272727,
                "end_time": 4.261363636363636,
                "pitch": 39,
                "velocity": 64,
                "duration": 0.13409090909090882,
                "tempo": 120.0
            },
            {
                "start_time": 4.295454545454545,
                "end_time": 4.4409090909090905,
                "pitch": 27,
                "velocity": 64,
                "duration": 0.1454545454545455,
                "tempo": 120.0
            },
            {
                "start_time": 4.475,
                "end_time": 4.620454545454545,
                "pitch": 39,
                "velocity": 64,
                "duration": 0.1454545454545455,
                "tempo": 120.0
            },
            {
                "start_time": 4.652272727272727,
                "end_time": 4.804545454545455,
                "pitch": 37,
                "velocity": 64,
                "duration": 0.15227272727272734,
                "tempo": 120.0
            },
            {
                "start_time": 4.820454545454545,
                "end_time": 4.970454545454545,
                "pitch": 39,
                "velocity": 64,
                "duration": 0.14999999999999947,
                "tempo": 120.0
            },
            {
                "start_time": 5.004545454545454,
                "end_time": 5.1499999999999995,
                "pitch": 27,
                "velocity": 64,
                "duration": 0.1454545454545455,
                "tempo": 120.0
            },
            {
                "start_time": 5.184090909090909,
                "end_time": 5.329545454545454,
                "pitch": 39,
                "velocity": 64,
                "duration": 0.1454545454545455,
                "tempo": 120.0
            },
            {
                "start_time": 5.363636363636363,
                "end_time": 5.515909090909091,
                "pitch": 37,
                "velocity": 64,
                "duration": 0.15227272727272734,
                "tempo": 120.0
            },
            {
                "start_time": 5.534090909090909,
                "end_time": 5.6886363636363635,
                "pitch": 39,
                "velocity": 64,
                "duration": 0.15454545454545432,
                "tempo": 120.0
            },
            {
                "start_time": 5.725,
                "end_time": 5.870454545454545,
                "pitch": 28,
                "velocity": 64,
                "duration": 0.1454545454545455,
                "tempo": 120.0
            },
            {
                "start_time": 5.902272727272727,
                "end_time": 6.047727272727273,
                "pitch": 40,
                "velocity": 64,
                "duration": 0.1454545454545455,
                "tempo": 120.0
            },
            {
                "start_time": 6.081818181818181,
                "end_time": 6.2340909090909085,
                "pitch": 38,
                "velocity": 64,
                "duration": 0.15227272727272734,
                "tempo": 120.0
            },
            {
                "start_time": 6.252272727272727,
                "end_time": 6.406818181818181,
                "pitch": 40,
                "velocity": 64,
                "duration": 0.15454545454545432,
                "tempo": 120.0
            },
            {
                "start_time": 6.4431818181818175,
                "end_time": 6.593181818181818,
                "pitch": 28,
                "velocity": 64,
                "duration": 0.15000000000000036,
                "tempo": 120.0
            },
            {
                "start_time": 6.627272727272727,
                "end_time": 6.7749999999999995,
                "pitch": 40,
                "velocity": 64,
                "duration": 0.14772727272727249,
                "tempo": 120.0
            },
            {
                "start_time": 6.809090909090909,
                "end_time": 6.961363636363636,
                "pitch": 38,
                "velocity": 64,
                "duration": 0.15227272727272734,
                "tempo": 120.0
            },
            {
                "start_time": 6.977272727272727,
                "end_time": 7.127272727272727,
                "pitch": 40,
                "velocity": 64,
                "duration": 0.15000000000000036,
                "tempo": 120.0
            },
            {
                "start_time": 7.161363636363636,
                "end_time": 7.306818181818182,
                "pitch": 28,
                "velocity": 64,
                "duration": 0.1454545454545455,
                "tempo": 120.0
            },
            {
                "start_time": 7.340909090909091,
                "end_time": 7.486363636363636,
                "pitch": 40,
                "velocity": 64,
                "duration": 0.1454545454545455,
                "tempo": 120.0
            },
            {
                "start_time": 7.5204545454545455,
                "end_time": 7.670454545454545,
                "pitch": 38,
                "velocity": 64,
                "duration": 0.14999999999999947,
                "tempo": 120.0
            },
            {
                "start_time": 7.686363636363636,
                "end_time": 7.838636363636363,
                "pitch": 40,
                "velocity": 64,
                "duration": 0.15227272727272734,
                "tempo": 120.0
            },
            {
                "start_time": 7.870454545454545,
                "end_time": 8.018181818181818,
                "pitch": 28,
                "velocity": 64,
                "duration": 0.14772727272727249,
                "tempo": 120.0
            },
            {
                "start_time": 8.049999999999999,
                "end_time": 8.195454545454545,
                "pitch": 40,
                "velocity": 64,
                "duration": 0.1454545454545464,
                "tempo": 120.0
            },
            {
                "start_time": 8.229545454545454,
                "end_time": 8.384090909090908,
                "pitch": 38,
                "velocity": 64,
                "duration": 0.15454545454545432,
                "tempo": 120.0
            },
            {
                "start_time": 8.4,
                "end_time": 8.554545454545455,
                "pitch": 40,
                "velocity": 64,
                "duration": 0.15454545454545432,
                "tempo": 120.0
            },
            {
                "start_time": 8.59090909090909,
                "end_time": 8.736363636363636,
                "pitch": 28,
                "velocity": 64,
                "duration": 0.1454545454545464,
                "tempo": 120.0
            },
            {
                "start_time": 8.768181818181818,
                "end_time": 8.915909090909091,
                "pitch": 40,
                "velocity": 64,
                "duration": 0.14772727272727337,
                "tempo": 120.0
            },
            {
                "start_time": 8.947727272727272,
                "end_time": 9.084090909090909,
                "pitch": 38,
                "velocity": 64,
                "duration": 0.1363636363636367,
                "tempo": 120.0
            },
            {
                "start_time": 9.118181818181817,
                "end_time": 9.272727272727272,
                "pitch": 40,
                "velocity": 64,
                "duration": 0.15454545454545432,
                "tempo": 120.0
            },
            {
                "start_time": 9.309090909090909,
                "end_time": 9.459090909090909,
                "pitch": 28,
                "velocity": 64,
                "duration": 0.15000000000000036,
                "tempo": 120.0
            },
            {
                "start_time": 9.493181818181817,
                "end_time": 9.643181818181818,
                "pitch": 40,
                "velocity": 64,
                "duration": 0.15000000000000036,
                "tempo": 120.0
            },
            {
                "start_time": 9.677272727272726,
                "end_time": 9.809090909090909,
                "pitch": 38,
                "velocity": 64,
                "duration": 0.13181818181818272,
                "tempo": 120.0
            },
            {
                "start_time": 9.843181818181817,
                "end_time": 9.995454545454544,
                "pitch": 40,
                "velocity": 64,
                "duration": 0.15227272727272734,
                "tempo": 120.0
            },
            {
                "start_time": 10.027272727272727,
                "end_time": 10.174999999999999,
                "pitch": 28,
                "velocity": 64,
                "duration": 0.1477272727272716,
                "tempo": 120.0
            },
            {
                "start_time": 10.206818181818182,
                "end_time": 10.352272727272727,
                "pitch": 40,
                "velocity": 64,
                "duration": 0.14545454545454461,
                "tempo": 120.0
            },
            {
                "start_time": 10.370454545454544,
                "end_time": 10.51590909090909,
                "pitch": 38,
                "velocity": 64,
                "duration": 0.1454545454545464,
                "tempo": 120.0
            },
            {
                "start_time": 10.547727272727272,
                "end_time": 10.695454545454545,
                "pitch": 40,
                "velocity": 64,
                "duration": 0.14772727272727337,
                "tempo": 120.0
            },
            {
                "start_time": 10.727272727272727,
                "end_time": 10.877272727272727,
                "pitch": 28,
                "velocity": 64,
                "duration": 0.15000000000000036,
                "tempo": 120.0
            },
            {
                "start_time": 10.911363636363635,
                "end_time": 11.061363636363636,
                "pitch": 40,
                "velocity": 64,
                "duration": 0.15000000000000036,
                "tempo": 120.0
            },
            {
                "start_time": 11.079545454545453,
                "end_time": 11.229545454545454,
                "pitch": 38,
                "velocity": 64,
                "duration": 0.15000000000000036,
                "tempo": 120.0
            },
            {
                "start_time": 11.263636363636364,
                "end_time": 11.413636363636362,
                "pitch": 40,
                "velocity": 64,
                "duration": 0.14999999999999858,
                "tempo": 120.0
            },
            {
                "start_time": 11.45,
                "end_time": 11.597727272727273,
                "pitch": 29,
                "velocity": 64,
                "duration": 0.14772727272727337,
                "tempo": 120.0
            },
            {
                "start_time": 11.634090909090908,
                "end_time": 11.784090909090908,
                "pitch": 36,
                "velocity": 64,
                "duration": 0.15000000000000036,
                "tempo": 120.0
            },
            {
                "start_time": 11.799999999999999,
                "end_time": 11.95,
                "pitch": 35,
                "velocity": 64,
                "duration": 0.15000000000000036,
                "tempo": 120.0
            },
            {
                "start_time": 11.98409090909091,
                "end_time": 12.134090909090908,
                "pitch": 36,
                "velocity": 64,
                "duration": 0.14999999999999858,
                "tempo": 120.0
            },
            {
                "start_time": 12.170454545454545,
                "end_time": 12.318181818181818,
                "pitch": 29,
                "velocity": 64,
                "duration": 0.14772727272727337,
                "tempo": 120.0
            },
            {
                "start_time": 12.352272727272727,
                "end_time": 12.502272727272727,
                "pitch": 36,
                "velocity": 64,
                "duration": 0.15000000000000036,
                "tempo": 120.0
            },
            {
                "start_time": 12.520454545454545,
                "end_time": 12.665909090909091,
                "pitch": 35,
                "velocity": 64,
                "duration": 0.1454545454545464,
                "tempo": 120.0
            },
            {
                "start_time": 12.7,
                "end_time": 12.845454545454546,
                "pitch": 36,
                "velocity": 64,
                "duration": 0.1454545454545464,
                "tempo": 120.0
            },
            {
                "start_time": 12.877272727272727,
                "end_time": 13.031818181818181,
                "pitch": 29,
                "velocity": 64,
                "duration": 0.15454545454545432,
                "tempo": 120.0
            },
            {
                "start_time": 13.068181818181818,
                "end_time": 13.220454545454546,
                "pitch": 36,
                "velocity": 64,
                "duration": 0.15227272727272734,
                "tempo": 120.0
            },
            {
                "start_time": 13.238636363636363,
                "end_time": 13.384090909090908,
                "pitch": 35,
                "velocity": 64,
                "duration": 0.14545454545454461,
                "tempo": 120.0
            },
            {
                "start_time": 13.418181818181818,
                "end_time": 13.563636363636363,
                "pitch": 36,
                "velocity": 64,
                "duration": 0.14545454545454461,
                "tempo": 120.0
            },
            {
                "start_time": 13.597727272727273,
                "end_time": 13.75,
                "pitch": 29,
                "velocity": 64,
                "duration": 0.15227272727272734,
                "tempo": 120.0
            },
            {
                "start_time": 13.786363636363635,
                "end_time": 13.938636363636363,
                "pitch": 36,
                "velocity": 64,
                "duration": 0.15227272727272734,
                "tempo": 120.0
            },
            {
                "start_time": 13.956818181818182,
                "end_time": 14.102272727272727,
                "pitch": 35,
                "velocity": 64,
                "duration": 0.14545454545454461,
                "tempo": 120.0
            },
            {
                "start_time": 14.136363636363635,
                "end_time": 14.281818181818181,
                "pitch": 36,
                "velocity": 64,
                "duration": 0.1454545454545464,
                "tempo": 120.0
            },
            {
                "start_time": 14.31590909090909,
                "end_time": 14.46590909090909,
                "pitch": 29,
                "velocity": 64,
                "duration": 0.15000000000000036,
                "tempo": 120.0
            },
            {
                "start_time": 14.5,
                "end_time": 14.631818181818181,
                "pitch": 36,
                "velocity": 64,
                "duration": 0.13181818181818095,
                "tempo": 120.0
            },
            {
                "start_time": 14.665909090909091,
                "end_time": 14.81590909090909,
                "pitch": 35,
                "velocity": 64,
                "duration": 0.14999999999999858,
                "tempo": 120.0
            },
            {
                "start_time": 14.85,
                "end_time": 15.0,
                "pitch": 36,
                "velocity": 64,
                "duration": 0.15000000000000036,
                "tempo": 120.0
            },
            {
                "start_time": 15.036363636363635,
                "end_time": 15.186363636363636,
                "pitch": 29,
                "velocity": 64,
                "duration": 0.15000000000000036,
                "tempo": 120.0
            },
            {
                "start_time": 15.202272727272726,
                "end_time": 15.352272727272727,
                "pitch": 36,
                "velocity": 64,
                "duration": 0.15000000000000036,
                "tempo": 120.0
            },
            {
                "start_time": 15.386363636363635,
                "end_time": 15.531818181818181,
                "pitch": 35,
                "velocity": 64,
                "duration": 0.1454545454545464,
                "tempo": 120.0
            },
            {
                "start_time": 15.56590909090909,
                "end_time": 15.711363636363636,
                "pitch": 36,
                "velocity": 64,
                "duration": 0.1454545454545464,
                "tempo": 120.0
            },
            {
                "start_time": 15.743181818181817,
                "end_time": 15.897727272727272,
                "pitch": 29,
                "velocity": 64,
                "duration": 0.15454545454545432,
                "tempo": 120.0
            },
            {
                "start_time": 15.915909090909091,
                "end_time": 16.070454545454545,
                "pitch": 36,
                "velocity": 64,
                "duration": 0.15454545454545432,
                "tempo": 120.0
            },
            {
                "start_time": 16.104545454545455,
                "end_time": 16.25,
                "pitch": 35,
                "velocity": 64,
                "duration": 0.14545454545454461,
                "tempo": 120.0
            },
            {
                "start_time": 16.28409090909091,
                "end_time": 16.429545454545455,
                "pitch": 36,
                "velocity": 64,
                "duration": 0.14545454545454461,
                "tempo": 120.0
            },
            {
                "start_time": 16.46363636363636,
                "end_time": 16.61590909090909,
                "pitch": 29,
                "velocity": 64,
                "duration": 0.15227272727272734,
                "tempo": 120.0
            },
            {
                "start_time": 16.634090909090908,
                "end_time": 16.788636363636364,
                "pitch": 36,
                "velocity": 64,
                "duration": 0.1545454545454561,
                "tempo": 120.0
            },
            {
                "start_time": 16.82272727272727,
                "end_time": 16.96818181818182,
                "pitch": 35,
                "velocity": 64,
                "duration": 0.14545454545454817,
                "tempo": 120.0
            },
            {
                "start_time": 17.002272727272725,
                "end_time": 17.147727272727273,
                "pitch": 36,
                "velocity": 64,
                "duration": 0.14545454545454817,
                "tempo": 120.0
            },
            {
                "start_time": 17.18181818181818,
                "end_time": 17.331818181818182,
                "pitch": 32,
                "velocity": 64,
                "duration": 0.15000000000000213,
                "tempo": 120.0
            },
            {
                "start_time": 17.347727272727273,
                "end_time": 17.49772727272727,
                "pitch": 39,
                "velocity": 64,
                "duration": 0.14999999999999858,
                "tempo": 120.0
            },
            {
                "start_time": 17.534090909090907,
                "end_time": 17.68409090909091,
                "pitch": 38,
                "velocity": 64,
                "duration": 0.15000000000000213,
                "tempo": 120.0
            },
            {
                "start_time": 17.71818181818182,
                "end_time": 17.868181818181817,
                "pitch": 39,
                "velocity": 64,
                "duration": 0.14999999999999858,
                "tempo": 120.0
            },
            {
                "start_time": 17.902272727272727,
                "end_time": 18.052272727272726,
                "pitch": 32,
                "velocity": 64,
                "duration": 0.14999999999999858,
                "tempo": 120.0
            },
            {
                "start_time": 18.068181818181817,
                "end_time": 18.21818181818182,
                "pitch": 39,
                "velocity": 64,
                "duration": 0.15000000000000213,
                "tempo": 120.0
            },
            {
                "start_time": 18.254545454545454,
                "end_time": 18.397727272727273,
                "pitch": 38,
                "velocity": 64,
                "duration": 0.1431818181818194,
                "tempo": 120.0
            },
            {
                "start_time": 18.43181818181818,
                "end_time": 18.577272727272728,
                "pitch": 39,
                "velocity": 64,
                "duration": 0.14545454545454817,
                "tempo": 120.0
            },
            {
                "start_time": 18.611363636363635,
                "end_time": 18.763636363636362,
                "pitch": 32,
                "velocity": 64,
                "duration": 0.15227272727272734,
                "tempo": 120.0
            },
            {
                "start_time": 18.78181818181818,
                "end_time": 18.936363636363634,
                "pitch": 39,
                "velocity": 64,
                "duration": 0.15454545454545254,
                "tempo": 120.0
            },
            {
                "start_time": 18.972727272727273,
                "end_time": 19.11590909090909,
                "pitch": 38,
                "velocity": 64,
                "duration": 0.14318181818181586,
                "tempo": 120.0
            },
            {
                "start_time": 19.15,
                "end_time": 19.295454545454543,
                "pitch": 39,
                "velocity": 64,
                "duration": 0.14545454545454461,
                "tempo": 120.0
            },
            {
                "start_time": 19.329545454545453,
                "end_time": 19.46590909090909,
                "pitch": 32,
                "velocity": 64,
                "duration": 0.1363636363636367,
                "tempo": 120.0
            },
            {
                "start_time": 19.5,
                "end_time": 19.654545454545453,
                "pitch": 39,
                "velocity": 64,
                "duration": 0.15454545454545254,
                "tempo": 120.0
            },
            {
                "start_time": 19.688636363636363,
                "end_time": 19.834090909090907,
                "pitch": 38,
                "velocity": 64,
                "duration": 0.14545454545454461,
                "tempo": 120.0
            },
            {
                "start_time": 19.868181818181817,
                "end_time": 20.013636363636362,
                "pitch": 39,
                "velocity": 64,
                "duration": 0.14545454545454461,
                "tempo": 120.0
            },
            {
                "start_time": 20.047727272727272,
                "end_time": 20.18409090909091,
                "pitch": 32,
                "velocity": 64,
                "duration": 0.1363636363636367,
                "tempo": 120.0
            },
            {
                "start_time": 20.21818181818182,
                "end_time": 20.37272727272727,
                "pitch": 39,
                "velocity": 64,
                "duration": 0.15454545454545254,
                "tempo": 120.0
            },
            {
                "start_time": 20.40681818181818,
                "end_time": 20.552272727272726,
                "pitch": 38,
                "velocity": 64,
                "duration": 0.14545454545454461,
                "tempo": 120.0
            },
            {
                "start_time": 20.586363636363636,
                "end_time": 20.73181818181818,
                "pitch": 39,
                "velocity": 64,
                "duration": 0.14545454545454461,
                "tempo": 120.0
            },
            {
                "start_time": 20.75,
                "end_time": 20.895454545454545,
                "pitch": 32,
                "velocity": 64,
                "duration": 0.14545454545454461,
                "tempo": 120.0
            },
            {
                "start_time": 20.927272727272726,
                "end_time": 21.07272727272727,
                "pitch": 39,
                "velocity": 64,
                "duration": 0.14545454545454461,
                "tempo": 120.0
            },
            {
                "start_time": 21.10681818181818,
                "end_time": 21.25681818181818,
                "pitch": 38,
                "velocity": 64,
                "duration": 0.14999999999999858,
                "tempo": 120.0
            },
            {
                "start_time": 21.29090909090909,
                "end_time": 21.44090909090909,
                "pitch": 39,
                "velocity": 64,
                "duration": 0.15000000000000213,
                "tempo": 120.0
            },
            {
                "start_time": 21.459090909090907,
                "end_time": 21.60909090909091,
                "pitch": 32,
                "velocity": 64,
                "duration": 0.15000000000000213,
                "tempo": 120.0
            },
            {
                "start_time": 21.643181818181816,
                "end_time": 21.793181818181818,
                "pitch": 39,
                "velocity": 64,
                "duration": 0.15000000000000213,
                "tempo": 120.0
            },
            {
                "start_time": 21.827272727272724,
                "end_time": 21.977272727272727,
                "pitch": 38,
                "velocity": 64,
                "duration": 0.15000000000000213,
                "tempo": 120.0
            },
            {
                "start_time": 22.011363636363637,
                "end_time": 22.161363636363635,
                "pitch": 39,
                "velocity": 64,
                "duration": 0.14999999999999858,
                "tempo": 120.0
            },
            {
                "start_time": 22.179545454545455,
                "end_time": 22.325,
                "pitch": 32,
                "velocity": 64,
                "duration": 0.14545454545454461,
                "tempo": 120.0
            },
            {
                "start_time": 22.35909090909091,
                "end_time": 22.504545454545454,
                "pitch": 39,
                "velocity": 64,
                "duration": 0.14545454545454461,
                "tempo": 120.0
            },
            {
                "start_time": 22.536363636363635,
                "end_time": 22.69090909090909,
                "pitch": 38,
                "velocity": 64,
                "duration": 0.1545454545454561,
                "tempo": 120.0
            },
            {
                "start_time": 22.724999999999998,
                "end_time": 22.879545454545454,
                "pitch": 39,
                "velocity": 64,
                "duration": 0.1545454545454561,
                "tempo": 120.0
            },
            {
                "start_time": 22.9,
                "end_time": 23.043181818181818,
                "pitch": 27,
                "velocity": 64,
                "duration": 0.1431818181818194,
                "tempo": 120.0
            },
            {
                "start_time": 23.077272727272724,
                "end_time": 23.222727272727273,
                "pitch": 39,
                "velocity": 64,
                "duration": 0.14545454545454817,
                "tempo": 120.0
            },
            {
                "start_time": 23.254545454545454,
                "end_time": 23.409090909090907,
                "pitch": 37,
                "velocity": 64,
                "duration": 0.15454545454545254,
                "tempo": 120.0
            },
            {
                "start_time": 23.443181818181817,
                "end_time": 23.597727272727273,
                "pitch": 39,
                "velocity": 64,
                "duration": 0.1545454545454561,
                "tempo": 120.0
            }
        ],
        "Vibraphone": [
            {
                "start_time": 0.18181818181818182,
                "end_time": 0.24545454545454545,
                "pitch": 94,
                "velocity": 51,
                "duration": 0.06363636363636363,
                "tempo": 120.0
            },
            {
                "start_time": 0.27954545454545454,
                "end_time": 0.32727272727272727,
                "pitch": 94,
                "velocity": 51,
                "duration": 0.04772727272727273,
                "tempo": 120.0
            },
            {
                "start_time": 0.35909090909090907,
                "end_time": 0.6931818181818181,
                "pitch": 94,
                "velocity": 51,
                "duration": 0.33409090909090905,
                "tempo": 120.0
            },
            {
                "start_time": 0.7113636363636363,
                "end_time": 0.8090909090909091,
                "pitch": 93,
                "velocity": 51,
                "duration": 0.09772727272727277,
                "tempo": 120.0
            },
            {
                "start_time": 3.036363636363636,
                "end_time": 3.0999999999999996,
                "pitch": 94,
                "velocity": 51,
                "duration": 0.06363636363636349,
                "tempo": 120.0
            },
            {
                "start_time": 3.118181818181818,
                "end_time": 3.1818181818181817,
                "pitch": 94,
                "velocity": 51,
                "duration": 0.06363636363636349,
                "tempo": 120.0
            },
            {
                "start_time": 3.215909090909091,
                "end_time": 3.5568181818181817,
                "pitch": 94,
                "velocity": 51,
                "duration": 0.34090909090909083,
                "tempo": 120.0
            },
            {
                "start_time": 3.577272727272727,
                "end_time": 3.675,
                "pitch": 93,
                "velocity": 51,
                "duration": 0.09772727272727266,
                "tempo": 120.0
            },
            {
                "start_time": 5.902272727272727,
                "end_time": 5.968181818181818,
                "pitch": 95,
                "velocity": 51,
                "duration": 0.06590909090909047,
                "tempo": 120.0
            },
            {
                "start_time": 5.9840909090909085,
                "end_time": 6.047727272727273,
                "pitch": 95,
                "velocity": 51,
                "duration": 0.06363636363636438,
                "tempo": 120.0
            },
            {
                "start_time": 6.081818181818181,
                "end_time": 6.406818181818181,
                "pitch": 95,
                "velocity": 51,
                "duration": 0.3250000000000002,
                "tempo": 120.0
            },
            {
                "start_time": 6.4431818181818175,
                "end_time": 6.543181818181818,
                "pitch": 94,
                "velocity": 51,
                "duration": 0.10000000000000053,
                "tempo": 120.0
            },
            {
                "start_time": 8.770454545454545,
                "end_time": 8.818181818181818,
                "pitch": 95,
                "velocity": 51,
                "duration": 0.04772727272727373,
                "tempo": 120.0
            },
            {
                "start_time": 8.85,
                "end_time": 8.915909090909091,
                "pitch": 95,
                "velocity": 51,
                "duration": 0.06590909090909136,
                "tempo": 120.0
            },
            {
                "start_time": 8.947727272727272,
                "end_time": 9.272727272727272,
                "pitch": 95,
                "velocity": 51,
                "duration": 0.3249999999999993,
                "tempo": 120.0
            },
            {
                "start_time": 9.309090909090909,
                "end_time": 9.39090909090909,
                "pitch": 94,
                "velocity": 51,
                "duration": 0.08181818181818201,
                "tempo": 120.0
            },
            {
                "start_time": 11.634090909090908,
                "end_time": 11.784090909090908,
                "pitch": 77,
                "velocity": 51,
                "duration": 0.15000000000000036,
                "tempo": 120.0
            },
            {
                "start_time": 11.799999999999999,
                "end_time": 11.95,
                "pitch": 80,
                "velocity": 51,
                "duration": 0.15000000000000036,
                "tempo": 120.0
            },
            {
                "start_time": 11.986363636363636,
                "end_time": 12.134090909090908,
                "pitch": 84,
                "velocity": 51,
                "duration": 0.1477272727272716,
                "tempo": 120.0
            },
            {
                "start_time": 12.170454545454545,
                "end_time": 12.318181818181818,
                "pitch": 83,
                "velocity": 51,
                "duration": 0.14772727272727337,
                "tempo": 120.0
            },
            {
                "start_time": 12.354545454545454,
                "end_time": 12.504545454545454,
                "pitch": 79,
                "velocity": 51,
                "duration": 0.15000000000000036,
                "tempo": 120.0
            },
            {
                "start_time": 12.7,
                "end_time": 13.031818181818181,
                "pitch": 83,
                "velocity": 51,
                "duration": 0.331818181818182,
                "tempo": 120.0
            },
            {
                "start_time": 13.068181818181818,
                "end_time": 13.220454545454546,
                "pitch": 84,
                "velocity": 51,
                "duration": 0.15227272727272734,
                "tempo": 120.0
            },
            {
                "start_time": 13.238636363636363,
                "end_time": 13.384090909090908,
                "pitch": 83,
                "velocity": 51,
                "duration": 0.14545454545454461,
                "tempo": 120.0
            },
            {
                "start_time": 13.418181818181818,
                "end_time": 13.563636363636363,
                "pitch": 79,
                "velocity": 51,
                "duration": 0.14545454545454461,
                "tempo": 120.0
            },
            {
                "start_time": 13.597727272727273,
                "end_time": 13.75,
                "pitch": 82,
                "velocity": 51,
                "duration": 0.15227272727272734,
                "tempo": 120.0
            },
            {
                "start_time": 13.786363636363635,
                "end_time": 13.938636363636363,
                "pitch": 79,
                "velocity": 51,
                "duration": 0.15227272727272734,
                "tempo": 120.0
            },
            {
                "start_time": 14.5,
                "end_time": 14.631818181818181,
                "pitch": 77,
                "velocity": 51,
                "duration": 0.13181818181818095,
                "tempo": 120.0
            },
            {
                "start_time": 14.668181818181818,
                "end_time": 14.81590909090909,
                "pitch": 80,
                "velocity": 51,
                "duration": 0.1477272727272716,
                "tempo": 120.0
            },
            {
                "start_time": 14.852272727272727,
                "end_time": 15.002272727272727,
                "pitch": 84,
                "velocity": 51,
                "duration": 0.15000000000000036,
                "tempo": 120.0
            },
            {
                "start_time": 15.036363636363635,
                "end_time": 15.186363636363636,
                "pitch": 83,
                "velocity": 51,
                "duration": 0.15000000000000036,
                "tempo": 120.0
            },
            {
                "start_time": 15.202272727272726,
                "end_time": 15.352272727272727,
                "pitch": 79,
                "velocity": 51,
                "duration": 0.15000000000000036,
                "tempo": 120.0
            },
            {
                "start_time": 15.56590909090909,
                "end_time": 15.897727272727272,
                "pitch": 83,
                "velocity": 51,
                "duration": 0.331818181818182,
                "tempo": 120.0
            },
            {
                "start_time": 15.915909090909091,
                "end_time": 16.070454545454545,
                "pitch": 84,
                "velocity": 51,
                "duration": 0.15454545454545432,
                "tempo": 120.0
            },
            {
                "start_time": 16.10681818181818,
                "end_time": 16.25,
                "pitch": 83,
                "velocity": 51,
                "duration": 0.1431818181818194,
                "tempo": 120.0
            },
            {
                "start_time": 16.28409090909091,
                "end_time": 16.429545454545455,
                "pitch": 79,
                "velocity": 51,
                "duration": 0.14545454545454461,
                "tempo": 120.0
            },
            {
                "start_time": 16.46363636363636,
                "end_time": 16.61590909090909,
                "pitch": 82,
                "velocity": 51,
                "duration": 0.15227272727272734,
                "tempo": 120.0
            },
            {
                "start_time": 16.634090909090908,
                "end_time": 16.788636363636364,
                "pitch": 79,
                "velocity": 51,
                "duration": 0.1545454545454561,
                "tempo": 120.0
            },
            {
                "start_time": 17.18181818181818,
                "end_time": 17.331818181818182,
                "pitch": 87,
                "velocity": 51,
                "duration": 0.15000000000000213,
                "tempo": 120.0
            },
            {
                "start_time": 17.349999999999998,
                "end_time": 17.5,
                "pitch": 83,
                "velocity": 51,
                "duration": 0.15000000000000213,
                "tempo": 120.0
            },
            {
                "start_time": 17.534090909090907,
                "end_time": 17.68409090909091,
                "pitch": 87,
                "velocity": 40,
                "duration": 0.15000000000000213,
                "tempo": 120.0
            },
            {
                "start_time": 17.71818181818182,
                "end_time": 17.868181818181817,
                "pitch": 83,
                "velocity": 40,
                "duration": 0.14999999999999858,
                "tempo": 120.0
            },
            {
                "start_time": 17.902272727272727,
                "end_time": 18.052272727272726,
                "pitch": 87,
                "velocity": 32,
                "duration": 0.14999999999999858,
                "tempo": 120.0
            },
            {
                "start_time": 18.070454545454545,
                "end_time": 18.21818181818182,
                "pitch": 83,
                "velocity": 32,
                "duration": 0.14772727272727337,
                "tempo": 120.0
            },
            {
                "start_time": 18.254545454545454,
                "end_time": 18.4,
                "pitch": 87,
                "velocity": 25,
                "duration": 0.14545454545454461,
                "tempo": 120.0
            },
            {
                "start_time": 18.43181818181818,
                "end_time": 18.577272727272728,
                "pitch": 83,
                "velocity": 25,
                "duration": 0.14545454545454817,
                "tempo": 120.0
            },
            {
                "start_time": 18.611363636363635,
                "end_time": 18.76590909090909,
                "pitch": 86,
                "velocity": 51,
                "duration": 0.1545454545454561,
                "tempo": 120.0
            },
            {
                "start_time": 18.784090909090907,
                "end_time": 18.936363636363634,
                "pitch": 82,
                "velocity": 51,
                "duration": 0.15227272727272734,
                "tempo": 120.0
            },
            {
                "start_time": 18.972727272727273,
                "end_time": 19.118181818181817,
                "pitch": 86,
                "velocity": 40,
                "duration": 0.14545454545454461,
                "tempo": 120.0
            },
            {
                "start_time": 19.15,
                "end_time": 19.295454545454543,
                "pitch": 82,
                "velocity": 40,
                "duration": 0.14545454545454461,
                "tempo": 120.0
            },
            {
                "start_time": 19.329545454545453,
                "end_time": 19.46590909090909,
                "pitch": 86,
                "velocity": 32,
                "duration": 0.1363636363636367,
                "tempo": 120.0
            },
            {
                "start_time": 19.502272727272725,
                "end_time": 19.654545454545453,
                "pitch": 82,
                "velocity": 32,
                "duration": 0.15227272727272734,
                "tempo": 120.0
            },
            {
                "start_time": 19.69090909090909,
                "end_time": 19.836363636363636,
                "pitch": 86,
                "velocity": 25,
                "duration": 0.14545454545454461,
                "tempo": 120.0
            },
            {
                "start_time": 19.868181818181817,
                "end_time": 20.013636363636362,
                "pitch": 82,
                "velocity": 25,
                "duration": 0.14545454545454461,
                "tempo": 120.0
            },
            {
                "start_time": 20.047727272727272,
                "end_time": 20.18409090909091,
                "pitch": 87,
                "velocity": 51,
                "duration": 0.1363636363636367,
                "tempo": 120.0
            },
            {
                "start_time": 20.21818181818182,
                "end_time": 20.37272727272727,
                "pitch": 83,
                "velocity": 51,
                "duration": 0.15454545454545254,
                "tempo": 120.0
            },
            {
                "start_time": 20.409090909090907,
                "end_time": 20.554545454545455,
                "pitch": 87,
                "velocity": 40,
                "duration": 0.14545454545454817,
                "tempo": 120.0
            },
            {
                "start_time": 20.586363636363636,
                "end_time": 20.73181818181818,
                "pitch": 83,
                "velocity": 40,
                "duration": 0.14545454545454461,
                "tempo": 120.0
            },
            {
                "start_time": 20.75,
                "end_time": 20.895454545454545,
                "pitch": 87,
                "velocity": 32,
                "duration": 0.14545454545454461,
                "tempo": 120.0
            },
            {
                "start_time": 20.929545454545455,
                "end_time": 21.075,
                "pitch": 83,
                "velocity": 32,
                "duration": 0.14545454545454461,
                "tempo": 120.0
            },
            {
                "start_time": 21.10909090909091,
                "end_time": 21.25681818181818,
                "pitch": 87,
                "velocity": 25,
                "duration": 0.14772727272726982,
                "tempo": 120.0
            },
            {
                "start_time": 21.29090909090909,
                "end_time": 21.44090909090909,
                "pitch": 83,
                "velocity": 25,
                "duration": 0.15000000000000213,
                "tempo": 120.0
            },
            {
                "start_time": 21.459090909090907,
                "end_time": 21.60909090909091,
                "pitch": 86,
                "velocity": 51,
                "duration": 0.15000000000000213,
                "tempo": 120.0
            },
            {
                "start_time": 21.643181818181816,
                "end_time": 21.793181818181818,
                "pitch": 82,
                "velocity": 51,
                "duration": 0.15000000000000213,
                "tempo": 120.0
            },
            {
                "start_time": 21.827272727272724,
                "end_time": 21.977272727272727,
                "pitch": 86,
                "velocity": 40,
                "duration": 0.15000000000000213,
                "tempo": 120.0
            },
            {
                "start_time": 22.011363636363637,
                "end_time": 22.161363636363635,
                "pitch": 82,
                "velocity": 40,
                "duration": 0.14999999999999858,
                "tempo": 120.0
            },
            {
                "start_time": 22.179545454545455,
                "end_time": 22.325,
                "pitch": 86,
                "velocity": 32,
                "duration": 0.14545454545454461,
                "tempo": 120.0
            },
            {
                "start_time": 22.35909090909091,
                "end_time": 22.504545454545454,
                "pitch": 82,
                "velocity": 32,
                "duration": 0.14545454545454461,
                "tempo": 120.0
            },
            {
                "start_time": 22.538636363636364,
                "end_time": 22.69090909090909,
                "pitch": 86,
                "velocity": 25,
                "duration": 0.15227272727272734,
                "tempo": 120.0
            },
            {
                "start_time": 22.724999999999998,
                "end_time": 22.879545454545454,
                "pitch": 82,
                "velocity": 25,
                "duration": 0.1545454545454561,
                "tempo": 120.0
            },
            {
                "start_time": 23.077272727272724,
                "end_time": 23.14090909090909,
                "pitch": 94,
                "velocity": 51,
                "duration": 0.06363636363636616,
                "tempo": 120.0
            },
            {
                "start_time": 23.15681818181818,
                "end_time": 23.222727272727273,
                "pitch": 94,
                "velocity": 51,
                "duration": 0.06590909090909136,
                "tempo": 120.0
            },
            {
                "start_time": 23.254545454545454,
                "end_time": 23.597727272727273,
                "pitch": 94,
                "velocity": 51,
                "duration": 0.3431818181818187,
                "tempo": 120.0
            }
        ],
        "Flute": [
            {
                "start_time": 0.7136363636363636,
                "end_time": 0.7749999999999999,
                "pitch": 57,
                "velocity": 101,
                "duration": 0.06136363636363629,
                "tempo": 120.0
            },
            {
                "start_time": 0.8090909090909091,
                "end_time": 0.8568181818181818,
                "pitch": 57,
                "velocity": 101,
                "duration": 0.04772727272727273,
                "tempo": 120.0
            },
            {
                "start_time": 0.8909090909090909,
                "end_time": 0.9545454545454545,
                "pitch": 57,
                "velocity": 80,
                "duration": 0.0636363636363636,
                "tempo": 120.0
            },
            {
                "start_time": 0.9863636363636363,
                "end_time": 1.0363636363636364,
                "pitch": 57,
                "velocity": 80,
                "duration": 0.050000000000000044,
                "tempo": 120.0
            },
            {
                "start_time": 1.0681818181818181,
                "end_time": 1.1363636363636362,
                "pitch": 57,
                "velocity": 64,
                "duration": 0.06818181818181812,
                "tempo": 120.0
            },
            {
                "start_time": 1.1545454545454545,
                "end_time": 1.2227272727272727,
                "pitch": 57,
                "velocity": 64,
                "duration": 0.06818181818181812,
                "tempo": 120.0
            },
            {
                "start_time": 1.2568181818181818,
                "end_time": 1.309090909090909,
                "pitch": 57,
                "velocity": 51,
                "duration": 0.05227272727272725,
                "tempo": 120.0
            },
            {
                "start_time": 1.343181818181818,
                "end_time": 1.4113636363636364,
                "pitch": 57,
                "velocity": 51,
                "duration": 0.06818181818181834,
                "tempo": 120.0
            },
            {
                "start_time": 2.1386363636363637,
                "end_time": 2.202272727272727,
                "pitch": 57,
                "velocity": 101,
                "duration": 0.06363636363636349,
                "tempo": 120.0
            },
            {
                "start_time": 2.2363636363636363,
                "end_time": 2.284090909090909,
                "pitch": 57,
                "velocity": 101,
                "duration": 0.04772727272727284,
                "tempo": 120.0
            },
            {
                "start_time": 2.318181818181818,
                "end_time": 2.381818181818182,
                "pitch": 57,
                "velocity": 80,
                "duration": 0.06363636363636394,
                "tempo": 120.0
            },
            {
                "start_time": 2.3977272727272725,
                "end_time": 2.4636363636363634,
                "pitch": 57,
                "velocity": 80,
                "duration": 0.06590909090909092,
                "tempo": 120.0
            },
            {
                "start_time": 2.4977272727272726,
                "end_time": 2.5477272727272724,
                "pitch": 57,
                "velocity": 64,
                "duration": 0.04999999999999982,
                "tempo": 120.0
            },
            {
                "start_time": 2.5818181818181816,
                "end_time": 2.65,
                "pitch": 57,
                "velocity": 64,
                "duration": 0.06818181818181834,
                "tempo": 120.0
            },
            {
                "start_time": 2.686363636363636,
                "end_time": 2.7363636363636363,
                "pitch": 57,
                "velocity": 51,
                "duration": 0.050000000000000266,
                "tempo": 120.0
            },
            {
                "start_time": 2.7727272727272725,
                "end_time": 2.840909090909091,
                "pitch": 57,
                "velocity": 51,
                "duration": 0.06818181818181834,
                "tempo": 120.0
            },
            {
                "start_time": 3.577272727272727,
                "end_time": 3.6409090909090907,
                "pitch": 57,
                "velocity": 101,
                "duration": 0.06363636363636349,
                "tempo": 120.0
            },
            {
                "start_time": 3.6772727272727272,
                "end_time": 3.727272727272727,
                "pitch": 57,
                "velocity": 101,
                "duration": 0.04999999999999982,
                "tempo": 120.0
            },
            {
                "start_time": 3.7613636363636362,
                "end_time": 3.827272727272727,
                "pitch": 57,
                "velocity": 80,
                "duration": 0.06590909090909092,
                "tempo": 120.0
            },
            {
                "start_time": 3.843181818181818,
                "end_time": 3.9090909090909087,
                "pitch": 57,
                "velocity": 80,
                "duration": 0.06590909090909092,
                "tempo": 120.0
            },
            {
                "start_time": 3.943181818181818,
                "end_time": 3.993181818181818,
                "pitch": 57,
                "velocity": 64,
                "duration": 0.050000000000000266,
                "tempo": 120.0
            },
            {
                "start_time": 4.027272727272727,
                "end_time": 4.095454545454546,
                "pitch": 57,
                "velocity": 64,
                "duration": 0.06818181818181834,
                "tempo": 120.0
            },
            {
                "start_time": 4.129545454545454,
                "end_time": 4.177272727272727,
                "pitch": 57,
                "velocity": 51,
                "duration": 0.04772727272727284,
                "tempo": 120.0
            },
            {
                "start_time": 4.211363636363636,
                "end_time": 4.261363636363636,
                "pitch": 57,
                "velocity": 51,
                "duration": 0.04999999999999982,
                "tempo": 120.0
            },
            {
                "start_time": 5.006818181818182,
                "end_time": 5.070454545454545,
                "pitch": 57,
                "velocity": 101,
                "duration": 0.06363636363636349,
                "tempo": 120.0
            },
            {
                "start_time": 5.102272727272727,
                "end_time": 5.152272727272727,
                "pitch": 57,
                "velocity": 101,
                "duration": 0.05000000000000071,
                "tempo": 120.0
            },
            {
                "start_time": 5.184090909090909,
                "end_time": 5.247727272727272,
                "pitch": 57,
                "velocity": 80,
                "duration": 0.06363636363636349,
                "tempo": 120.0
            },
            {
                "start_time": 5.265909090909091,
                "end_time": 5.329545454545454,
                "pitch": 57,
                "velocity": 80,
                "duration": 0.06363636363636349,
                "tempo": 120.0
            },
            {
                "start_time": 5.363636363636363,
                "end_time": 5.413636363636363,
                "pitch": 57,
                "velocity": 64,
                "duration": 0.04999999999999982,
                "tempo": 120.0
            },
            {
                "start_time": 5.447727272727272,
                "end_time": 5.518181818181818,
                "pitch": 57,
                "velocity": 64,
                "duration": 0.07045454545454533,
                "tempo": 120.0
            },
            {
                "start_time": 5.534090909090909,
                "end_time": 5.602272727272727,
                "pitch": 57,
                "velocity": 51,
                "duration": 0.06818181818181746,
                "tempo": 120.0
            },
            {
                "start_time": 5.638636363636364,
                "end_time": 5.6886363636363635,
                "pitch": 57,
                "velocity": 51,
                "duration": 0.04999999999999982,
                "tempo": 120.0
            },
            {
                "start_time": 6.4431818181818175,
                "end_time": 6.509090909090909,
                "pitch": 58,
                "velocity": 101,
                "duration": 0.06590909090909136,
                "tempo": 120.0
            },
            {
                "start_time": 6.543181818181818,
                "end_time": 6.593181818181818,
                "pitch": 58,
                "velocity": 101,
                "duration": 0.04999999999999982,
                "tempo": 120.0
            },
            {
                "start_time": 6.627272727272727,
                "end_time": 6.675,
                "pitch": 58,
                "velocity": 80,
                "duration": 0.04772727272727284,
                "tempo": 120.0
            },
            {
                "start_time": 6.709090909090909,
                "end_time": 6.777272727272727,
                "pitch": 58,
                "velocity": 80,
                "duration": 0.06818181818181834,
                "tempo": 120.0
            },
            {
                "start_time": 6.811363636363636,
                "end_time": 6.8590909090909085,
                "pitch": 58,
                "velocity": 64,
                "duration": 0.04772727272727284,
                "tempo": 120.0
            },
            {
                "start_time": 6.893181818181818,
                "end_time": 6.961363636363636,
                "pitch": 58,
                "velocity": 64,
                "duration": 0.06818181818181834,
                "tempo": 120.0
            },
            {
                "start_time": 6.977272727272727,
                "end_time": 7.045454545454545,
                "pitch": 58,
                "velocity": 51,
                "duration": 0.06818181818181834,
                "tempo": 120.0
            },
            {
                "start_time": 7.077272727272727,
                "end_time": 7.127272727272727,
                "pitch": 58,
                "velocity": 51,
                "duration": 0.04999999999999982,
                "tempo": 120.0
            },
            {
                "start_time": 7.872727272727272,
                "end_time": 7.936363636363636,
                "pitch": 58,
                "velocity": 101,
                "duration": 0.06363636363636349,
                "tempo": 120.0
            },
            {
                "start_time": 7.952272727272727,
                "end_time": 8.018181818181818,
                "pitch": 58,
                "velocity": 101,
                "duration": 0.06590909090909047,
                "tempo": 120.0
            },
            {
                "start_time": 8.049999999999999,
                "end_time": 8.1,
                "pitch": 58,
                "velocity": 80,
                "duration": 0.05000000000000071,
                "tempo": 120.0
            },
            {
                "start_time": 8.131818181818181,
                "end_time": 8.197727272727272,
                "pitch": 58,
                "velocity": 80,
                "duration": 0.06590909090909136,
                "tempo": 120.0
            },
            {
                "start_time": 8.229545454545454,
                "end_time": 8.279545454545454,
                "pitch": 58,
                "velocity": 64,
                "duration": 0.05000000000000071,
                "tempo": 120.0
            },
            {
                "start_time": 8.315909090909091,
                "end_time": 8.384090909090908,
                "pitch": 58,
                "velocity": 64,
                "duration": 0.06818181818181657,
                "tempo": 120.0
            },
            {
                "start_time": 8.402272727272727,
                "end_time": 8.470454545454546,
                "pitch": 58,
                "velocity": 51,
                "duration": 0.06818181818181834,
                "tempo": 120.0
            },
            {
                "start_time": 8.504545454545454,
                "end_time": 8.556818181818182,
                "pitch": 58,
                "velocity": 51,
                "duration": 0.05227272727272769,
                "tempo": 120.0
            },
            {
                "start_time": 9.311363636363636,
                "end_time": 9.375,
                "pitch": 58,
                "velocity": 101,
                "duration": 0.06363636363636438,
                "tempo": 120.0
            },
            {
                "start_time": 9.393181818181818,
                "end_time": 9.459090909090909,
                "pitch": 58,
                "velocity": 101,
                "duration": 0.06590909090909136,
                "tempo": 120.0
            },
            {
                "start_time": 9.493181818181817,
                "end_time": 9.543181818181818,
                "pitch": 58,
                "velocity": 80,
                "duration": 0.05000000000000071,
                "tempo": 120.0
            },
            {
                "start_time": 9.575,
                "end_time": 9.643181818181818,
                "pitch": 58,
                "velocity": 80,
                "duration": 0.06818181818181834,
                "tempo": 120.0
            },
            {
                "start_time": 9.677272727272726,
                "end_time": 9.727272727272727,
                "pitch": 58,
                "velocity": 64,
                "duration": 0.05000000000000071,
                "tempo": 120.0
            },
            {
                "start_time": 9.761363636363637,
                "end_time": 9.811363636363636,
                "pitch": 58,
                "velocity": 64,
                "duration": 0.049999999999998934,
                "tempo": 120.0
            },
            {
                "start_time": 9.845454545454546,
                "end_time": 9.911363636363635,
                "pitch": 58,
                "velocity": 51,
                "duration": 0.06590909090908958,
                "tempo": 120.0
            },
            {
                "start_time": 9.945454545454545,
                "end_time": 9.995454545454544,
                "pitch": 58,
                "velocity": 51,
                "duration": 0.049999999999998934,
                "tempo": 120.0
            },
            {
                "start_time": 10.729545454545454,
                "end_time": 10.795454545454545,
                "pitch": 58,
                "velocity": 101,
                "duration": 0.06590909090909136,
                "tempo": 120.0
            },
            {
                "start_time": 10.811363636363636,
                "end_time": 10.879545454545454,
                "pitch": 58,
                "velocity": 101,
                "duration": 0.06818181818181834,
                "tempo": 120.0
            },
            {
                "start_time": 10.913636363636362,
                "end_time": 10.961363636363636,
                "pitch": 58,
                "velocity": 80,
                "duration": 0.04772727272727373,
                "tempo": 120.0
            },
            {
                "start_time": 10.995454545454544,
                "end_time": 11.063636363636363,
                "pitch": 58,
                "velocity": 80,
                "duration": 0.06818181818181834,
                "tempo": 120.0
            },
            {
                "start_time": 11.079545454545453,
                "end_time": 11.145454545454545,
                "pitch": 58,
                "velocity": 64,
                "duration": 0.06590909090909136,
                "tempo": 120.0
            },
            {
                "start_time": 11.179545454545455,
                "end_time": 11.229545454545454,
                "pitch": 58,
                "velocity": 64,
                "duration": 0.049999999999998934,
                "tempo": 120.0
            },
            {
                "start_time": 11.263636363636364,
                "end_time": 11.329545454545453,
                "pitch": 58,
                "velocity": 51,
                "duration": 0.06590909090908958,
                "tempo": 120.0
            },
            {
                "start_time": 11.36590909090909,
                "end_time": 11.415909090909091,
                "pitch": 58,
                "velocity": 51,
                "duration": 0.05000000000000071,
                "tempo": 120.0
            },
            {
                "start_time": 11.452272727272726,
                "end_time": 12.136363636363635,
                "pitch": 56,
                "velocity": 64,
                "duration": 0.6840909090909086,
                "tempo": 120.0
            },
            {
                "start_time": 12.170454545454545,
                "end_time": 12.845454545454546,
                "pitch": 55,
                "velocity": 64,
                "duration": 0.6750000000000007,
                "tempo": 120.0
            },
            {
                "start_time": 12.879545454545454,
                "end_time": 13.563636363636363,
                "pitch": 56,
                "velocity": 64,
                "duration": 0.6840909090909086,
                "tempo": 120.0
            },
            {
                "start_time": 13.597727272727273,
                "end_time": 14.281818181818181,
                "pitch": 55,
                "velocity": 64,
                "duration": 0.6840909090909086,
                "tempo": 120.0
            },
            {
                "start_time": 14.31590909090909,
                "end_time": 15.002272727272727,
                "pitch": 56,
                "velocity": 64,
                "duration": 0.6863636363636374,
                "tempo": 120.0
            },
            {
                "start_time": 15.036363636363635,
                "end_time": 15.711363636363636,
                "pitch": 55,
                "velocity": 64,
                "duration": 0.6750000000000007,
                "tempo": 120.0
            },
            {
                "start_time": 15.745454545454544,
                "end_time": 16.429545454545455,
                "pitch": 56,
                "velocity": 64,
                "duration": 0.6840909090909104,
                "tempo": 120.0
            },
            {
                "start_time": 16.46363636363636,
                "end_time": 17.147727272727273,
                "pitch": 55,
                "velocity": 64,
                "duration": 0.6840909090909122,
                "tempo": 120.0
            },
            {
                "start_time": 17.18409090909091,
                "end_time": 17.868181818181817,
                "pitch": 63,
                "velocity": 40,
                "duration": 0.6840909090909086,
                "tempo": 120.0
            },
            {
                "start_time": 17.904545454545453,
                "end_time": 18.579545454545453,
                "pitch": 71,
                "velocity": 64,
                "duration": 0.6750000000000007,
                "tempo": 120.0
            },
            {
                "start_time": 18.613636363636363,
                "end_time": 19.297727272727272,
                "pitch": 62,
                "velocity": 40,
                "duration": 0.6840909090909086,
                "tempo": 120.0
            },
            {
                "start_time": 19.331818181818182,
                "end_time": 20.01590909090909,
                "pitch": 70,
                "velocity": 64,
                "duration": 0.6840909090909086,
                "tempo": 120.0
            },
            {
                "start_time": 20.05,
                "end_time": 20.73409090909091,
                "pitch": 63,
                "velocity": 40,
                "duration": 0.6840909090909086,
                "tempo": 120.0
            },
            {
                "start_time": 20.752272727272725,
                "end_time": 21.443181818181817,
                "pitch": 71,
                "velocity": 64,
                "duration": 0.6909090909090914,
                "tempo": 120.0
            },
            {
                "start_time": 21.461363636363636,
                "end_time": 22.161363636363635,
                "pitch": 62,
                "velocity": 40,
                "duration": 0.6999999999999993,
                "tempo": 120.0
            },
            {
                "start_time": 22.18181818181818,
                "end_time": 22.879545454545454,
                "pitch": 70,
                "velocity": 64,
                "duration": 0.6977272727272741,
                "tempo": 120.0
            }
        ]
    }
}