{
    "track_id": "12 Continue",
    "mood": "angry",
    "instruments": {
        "Electric Piano 1": [
            {
                "start_time": 0.19772727272727272,
                "end_time": 0.2954545454545454,
                "pitch": 62,
                "velocity": 51,
                "duration": 0.09772727272727269,
                "tempo": 120.0
            },
            {
                "start_time": 0.2954545454545454,
                "end_time": 0.3909090909090909,
                "pitch": 59,
                "velocity": 51,
                "duration": 0.09545454545454546,
                "tempo": 120.0
            },
            {
                "start_time": 0.3931818181818182,
                "end_time": 0.5227272727272727,
                "pitch": 55,
                "velocity": 51,
                "duration": 0.12954545454545452,
                "tempo": 120.0
            },
            {
                "start_time": 0.5227272727272727,
                "end_time": 0.6386363636363636,
                "pitch": 63,
                "velocity": 51,
                "duration": 0.11590909090909085,
                "tempo": 120.0
            },
            {
                "start_time": 0.6386363636363636,
                "end_time": 0.7522727272727272,
                "pitch": 60,
                "velocity": 51,
                "duration": 0.11363636363636365,
                "tempo": 120.0
            },
            {
                "start_time": 0.7522727272727272,
                "end_time": 0.8681818181818182,
                "pitch": 55,
                "velocity": 51,
                "duration": 0.11590909090909096,
                "tempo": 120.0
            },
            {
                "start_time": 0.8681818181818182,
                "end_time": 0.984090909090909,
                "pitch": 62,
                "velocity": 51,
                "duration": 0.11590909090909085,
                "tempo": 120.0
            },
            {
                "start_time": 0.984090909090909,
                "end_time": 1.1181818181818182,
                "pitch": 59,
                "velocity": 51,
                "duration": 0.13409090909090915,
                "tempo": 120.0
            },
            {
                "start_time": 1.1181818181818182,
                "end_time": 1.2340909090909091,
                "pitch": 55,
                "velocity": 51,
                "duration": 0.11590909090909096,
                "tempo": 120.0
            },
            {
                "start_time": 1.2363636363636363,
                "end_time": 1.3522727272727273,
                "pitch": 63,
                "velocity": 51,
                "duration": 0.11590909090909096,
                "tempo": 120.0
            },
            {
                "start_time": 1.3522727272727273,
                "end_time": 1.4727272727272727,
                "pitch": 60,
                "velocity": 51,
                "duration": 0.12045454545454537,
                "tempo": 120.0
            },
            {
                "start_time": 1.4727272727272727,
                "end_time": 1.5909090909090908,
                "pitch": 55,
                "velocity": 51,
                "duration": 0.11818181818181817,
                "tempo": 120.0
            },
            {
                "start_time": 1.5909090909090908,
                "end_time": 1.7272727272727273,
                "pitch": 62,
                "velocity": 51,
                "duration": 0.13636363636363646,
                "tempo": 120.0
            },
            {
                "start_time": 1.7295454545454545,
                "end_time": 1.8477272727272727,
                "pitch": 59,
                "velocity": 51,
                "duration": 0.11818181818181817,
                "tempo": 120.0
            },
            {
                "start_time": 2.0818181818181816,
                "end_time": 2.1977272727272728,
                "pitch": 62,
                "velocity": 51,
                "duration": 0.11590909090909118,
                "tempo": 120.0
            },
            {
                "start_time": 2.1977272727272728,
                "end_time": 2.3318181818181816,
                "pitch": 59,
                "velocity": 51,
                "duration": 0.13409090909090882,
                "tempo": 120.0
            },
            {
                "start_time": 2.3318181818181816,
                "end_time": 2.452272727272727,
                "pitch": 55,
                "velocity": 51,
                "duration": 0.12045454545454559,
                "tempo": 120.0
            },
            {
                "start_time": 2.452272727272727,
                "end_time": 2.5704545454545453,
                "pitch": 63,
                "velocity": 51,
                "duration": 0.11818181818181817,
                "tempo": 120.0
            },
            {
                "start_time": 2.5704545454545453,
                "end_time": 2.690909090909091,
                "pitch": 60,
                "velocity": 51,
                "duration": 0.12045454545454559,
                "tempo": 120.0
            },
            {
                "start_time": 2.690909090909091,
                "end_time": 2.809090909090909,
                "pitch": 55,
                "velocity": 51,
                "duration": 0.11818181818181817,
                "tempo": 120.0
            },
            {
                "start_time": 2.811363636363636,
                "end_time": 2.9386363636363635,
                "pitch": 62,
                "velocity": 51,
                "duration": 0.12727272727272743,
                "tempo": 120.0
            },
            {
                "start_time": 2.9386363636363635,
                "end_time": 3.05,
                "pitch": 59,
                "velocity": 51,
                "duration": 0.11136363636363633,
                "tempo": 120.0
            },
            {
                "start_time": 3.05,
                "end_time": 3.1636363636363636,
                "pitch": 55,
                "velocity": 51,
                "duration": 0.11363636363636376,
                "tempo": 120.0
            },
            {
                "start_time": 3.1636363636363636,
                "end_time": 3.275,
                "pitch": 63,
                "velocity": 51,
                "duration": 0.11136363636363633,
                "tempo": 120.0
            },
            {
                "start_time": 3.275,
                "end_time": 3.3954545454545455,
                "pitch": 60,
                "velocity": 51,
                "duration": 0.12045454545454559,
                "tempo": 120.0
            },
            {
                "start_time": 3.3954545454545455,
                "end_time": 3.5318181818181817,
                "pitch": 55,
                "velocity": 51,
                "duration": 0.13636363636363624,
                "tempo": 120.0
            },
            {
                "start_time": 3.5318181818181817,
                "end_time": 3.652272727272727,
                "pitch": 62,
                "velocity": 51,
                "duration": 0.12045454545454515,
                "tempo": 120.0
            },
            {
                "start_time": 3.652272727272727,
                "end_time": 3.770454545454545,
                "pitch": 59,
                "velocity": 51,
                "duration": 0.11818181818181817,
                "tempo": 120.0
            },
            {
                "start_time": 4.004545454545454,
                "end_time": 4.138636363636364,
                "pitch": 64,
                "velocity": 51,
                "duration": 0.1340909090909097,
                "tempo": 120.0
            },
            {
                "start_time": 4.138636363636364,
                "end_time": 4.254545454545454,
                "pitch": 60,
                "velocity": 51,
                "duration": 0.1159090909090903,
                "tempo": 120.0
            },
            {
                "start_time": 4.254545454545454,
                "end_time": 4.375,
                "pitch": 57,
                "velocity": 51,
                "duration": 0.12045454545454604,
                "tempo": 120.0
            },
            {
                "start_time": 4.375,
                "end_time": 4.493181818181818,
                "pitch": 65,
                "velocity": 51,
                "duration": 0.11818181818181817,
                "tempo": 120.0
            },
            {
                "start_time": 4.495454545454545,
                "end_time": 4.613636363636363,
                "pitch": 62,
                "velocity": 51,
                "duration": 0.11818181818181817,
                "tempo": 120.0
            },
            {
                "start_time": 4.613636363636363,
                "end_time": 4.75,
                "pitch": 57,
                "velocity": 51,
                "duration": 0.1363636363636367,
                "tempo": 120.0
            },
            {
                "start_time": 4.75,
                "end_time": 4.868181818181818,
                "pitch": 64,
                "velocity": 51,
                "duration": 0.11818181818181817,
                "tempo": 120.0
            },
            {
                "start_time": 4.868181818181818,
                "end_time": 4.9840909090909085,
                "pitch": 60,
                "velocity": 51,
                "duration": 0.1159090909090903,
                "tempo": 120.0
            },
            {
                "start_time": 4.9840909090909085,
                "end_time": 5.1,
                "pitch": 57,
                "velocity": 51,
                "duration": 0.11590909090909118,
                "tempo": 120.0
            },
            {
                "start_time": 5.102272727272727,
                "end_time": 5.218181818181818,
                "pitch": 65,
                "velocity": 51,
                "duration": 0.11590909090909118,
                "tempo": 120.0
            },
            {
                "start_time": 5.218181818181818,
                "end_time": 5.35,
                "pitch": 62,
                "velocity": 51,
                "duration": 0.13181818181818183,
                "tempo": 120.0
            },
            {
                "start_time": 5.35,
                "end_time": 5.463636363636363,
                "pitch": 57,
                "velocity": 51,
                "duration": 0.11363636363636331,
                "tempo": 120.0
            },
            {
                "start_time": 5.463636363636363,
                "end_time": 5.579545454545454,
                "pitch": 64,
                "velocity": 51,
                "duration": 0.11590909090909118,
                "tempo": 120.0
            },
            {
                "start_time": 5.579545454545454,
                "end_time": 5.693181818181818,
                "pitch": 60,
                "velocity": 51,
                "duration": 0.1136363636363642,
                "tempo": 120.0
            },
            {
                "start_time": 5.945454545454545,
                "end_time": 6.0613636363636365,
                "pitch": 64,
                "velocity": 51,
                "duration": 0.11590909090909118,
                "tempo": 120.0
            },
            {
                "start_time": 6.0613636363636365,
                "end_time": 6.177272727272727,
                "pitch": 60,
                "velocity": 51,
                "duration": 0.1159090909090903,
                "tempo": 120.0
            },
            {
                "start_time": 6.179545454545455,
                "end_time": 6.297727272727273,
                "pitch": 57,
                "velocity": 51,
                "duration": 0.11818181818181817,
                "tempo": 120.0
            },
            {
                "start_time": 6.297727272727273,
                "end_time": 6.418181818181818,
                "pitch": 65,
                "velocity": 51,
                "duration": 0.12045454545454515,
                "tempo": 120.0
            },
            {
                "start_time": 6.418181818181818,
                "end_time": 6.554545454545454,
                "pitch": 62,
                "velocity": 51,
                "duration": 0.1363636363636358,
                "tempo": 120.0
            },
            {
                "start_time": 6.554545454545454,
                "end_time": 6.672727272727273,
                "pitch": 57,
                "velocity": 51,
                "duration": 0.11818181818181905,
                "tempo": 120.0
            },
            {
                "start_time": 6.675,
                "end_time": 6.790909090909091,
                "pitch": 64,
                "velocity": 51,
                "duration": 0.11590909090909118,
                "tempo": 120.0
            },
            {
                "start_time": 6.790909090909091,
                "end_time": 6.909090909090909,
                "pitch": 60,
                "velocity": 51,
                "duration": 0.11818181818181817,
                "tempo": 120.0
            },
            {
                "start_time": 6.909090909090909,
                "end_time": 7.027272727272727,
                "pitch": 57,
                "velocity": 51,
                "duration": 0.11818181818181817,
                "tempo": 120.0
            },
            {
                "start_time": 7.027272727272727,
                "end_time": 7.161363636363636,
                "pitch": 65,
                "velocity": 51,
                "duration": 0.13409090909090882,
                "tempo": 120.0
            },
            {
                "start_time": 7.161363636363636,
                "end_time": 7.277272727272727,
                "pitch": 62,
                "velocity": 51,
                "duration": 0.11590909090909118,
                "tempo": 120.0
            },
            {
                "start_time": 7.279545454545454,
                "end_time": 7.3954545454545455,
                "pitch": 57,
                "velocity": 51,
                "duration": 0.11590909090909118,
                "tempo": 120.0
            },
            {
                "start_time": 7.3954545454545455,
                "end_time": 7.511363636363636,
                "pitch": 64,
                "velocity": 51,
                "duration": 0.1159090909090903,
                "tempo": 120.0
            },
            {
                "start_time": 7.511363636363636,
                "end_time": 7.629545454545454,
                "pitch": 60,
                "velocity": 51,
                "duration": 0.11818181818181817,
                "tempo": 120.0
            },
            {
                "start_time": 7.875,
                "end_time": 7.99090909090909,
                "pitch": 60,
                "velocity": 51,
                "duration": 0.1159090909090903,
                "tempo": 120.0
            },
            {
                "start_time": 7.99090909090909,
                "end_time": 8.104545454545454,
                "pitch": 56,
                "velocity": 51,
                "duration": 0.11363636363636331,
                "tempo": 120.0
            },
            {
                "start_time": 8.104545454545454,
                "end_time": 8.222727272727273,
                "pitch": 53,
                "velocity": 51,
                "duration": 0.11818181818181905,
                "tempo": 120.0
            },
            {
                "start_time": 8.222727272727273,
                "end_time": 8.35681818181818,
                "pitch": 62,
                "velocity": 51,
                "duration": 0.13409090909090793,
                "tempo": 120.0
            },
            {
                "start_time": 8.35681818181818,
                "end_time": 8.475,
                "pitch": 58,
                "velocity": 51,
                "duration": 0.11818181818181905,
                "tempo": 120.0
            },
            {
                "start_time": 8.475,
                "end_time": 8.593181818181817,
                "pitch": 53,
                "velocity": 51,
                "duration": 0.11818181818181728,
                "tempo": 120.0
            },
            {
                "start_time": 8.593181818181817,
                "end_time": 8.713636363636363,
                "pitch": 63,
                "velocity": 51,
                "duration": 0.12045454545454604,
                "tempo": 120.0
            },
            {
                "start_time": 8.713636363636363,
                "end_time": 8.831818181818182,
                "pitch": 60,
                "velocity": 51,
                "duration": 0.11818181818181905,
                "tempo": 120.0
            },
            {
                "start_time": 8.831818181818182,
                "end_time": 8.968181818181817,
                "pitch": 53,
                "velocity": 51,
                "duration": 0.1363636363636349,
                "tempo": 120.0
            },
            {
                "start_time": 8.968181818181817,
                "end_time": 9.088636363636363,
                "pitch": 62,
                "velocity": 51,
                "duration": 0.12045454545454604,
                "tempo": 120.0
            },
            {
                "start_time": 9.088636363636363,
                "end_time": 9.206818181818182,
                "pitch": 58,
                "velocity": 51,
                "duration": 0.11818181818181905,
                "tempo": 120.0
            },
            {
                "start_time": 9.206818181818182,
                "end_time": 9.325,
                "pitch": 53,
                "velocity": 51,
                "duration": 0.11818181818181728,
                "tempo": 120.0
            },
            {
                "start_time": 9.325,
                "end_time": 9.443181818181818,
                "pitch": 60,
                "velocity": 51,
                "duration": 0.11818181818181905,
                "tempo": 120.0
            },
            {
                "start_time": 9.443181818181818,
                "end_time": 9.577272727272726,
                "pitch": 56,
                "velocity": 51,
                "duration": 0.13409090909090793,
                "tempo": 120.0
            },
            {
                "start_time": 9.811363636363636,
                "end_time": 9.927272727272726,
                "pitch": 60,
                "velocity": 51,
                "duration": 0.1159090909090903,
                "tempo": 120.0
            },
            {
                "start_time": 9.927272727272726,
                "end_time": 10.043181818181818,
                "pitch": 56,
                "velocity": 51,
                "duration": 0.11590909090909207,
                "tempo": 120.0
            },
            {
                "start_time": 10.043181818181818,
                "end_time": 10.174999999999999,
                "pitch": 53,
                "velocity": 51,
                "duration": 0.13181818181818095,
                "tempo": 120.0
            },
            {
                "start_time": 10.174999999999999,
                "end_time": 10.290909090909091,
                "pitch": 62,
                "velocity": 51,
                "duration": 0.11590909090909207,
                "tempo": 120.0
            },
            {
                "start_time": 10.290909090909091,
                "end_time": 10.404545454545454,
                "pitch": 58,
                "velocity": 51,
                "duration": 0.11363636363636331,
                "tempo": 120.0
            },
            {
                "start_time": 10.404545454545454,
                "end_time": 10.520454545454545,
                "pitch": 53,
                "velocity": 51,
                "duration": 0.1159090909090903,
                "tempo": 120.0
            },
            {
                "start_time": 10.520454545454545,
                "end_time": 10.638636363636364,
                "pitch": 63,
                "velocity": 51,
                "duration": 0.11818181818181905,
                "tempo": 120.0
            },
            {
                "start_time": 10.638636363636364,
                "end_time": 10.777272727272727,
                "pitch": 60,
                "velocity": 51,
                "duration": 0.13863636363636367,
                "tempo": 120.0
            },
            {
                "start_time": 10.777272727272727,
                "end_time": 10.895454545454545,
                "pitch": 53,
                "velocity": 51,
                "duration": 0.11818181818181728,
                "tempo": 120.0
            },
            {
                "start_time": 10.895454545454545,
                "end_time": 11.01590909090909,
                "pitch": 62,
                "velocity": 51,
                "duration": 0.12045454545454604,
                "tempo": 120.0
            },
            {
                "start_time": 11.01590909090909,
                "end_time": 11.134090909090908,
                "pitch": 58,
                "velocity": 51,
                "duration": 0.11818181818181728,
                "tempo": 120.0
            },
            {
                "start_time": 11.134090909090908,
                "end_time": 11.25,
                "pitch": 53,
                "velocity": 51,
                "duration": 0.11590909090909207,
                "tempo": 120.0
            },
            {
                "start_time": 11.252272727272727,
                "end_time": 11.386363636363637,
                "pitch": 60,
                "velocity": 51,
                "duration": 0.1340909090909097,
                "tempo": 120.0
            },
            {
                "start_time": 11.386363636363637,
                "end_time": 11.504545454545454,
                "pitch": 56,
                "velocity": 51,
                "duration": 0.11818181818181728,
                "tempo": 120.0
            },
            {
                "start_time": 11.736363636363636,
                "end_time": 11.854545454545454,
                "pitch": 62,
                "velocity": 51,
                "duration": 0.11818181818181728,
                "tempo": 120.0
            },
            {
                "start_time": 11.854545454545454,
                "end_time": 11.986363636363636,
                "pitch": 58,
                "velocity": 51,
                "duration": 0.13181818181818272,
                "tempo": 120.0
            },
            {
                "start_time": 11.988636363636363,
                "end_time": 12.10681818181818,
                "pitch": 55,
                "velocity": 51,
                "duration": 0.11818181818181728,
                "tempo": 120.0
            },
            {
                "start_time": 12.10681818181818,
                "end_time": 12.227272727272727,
                "pitch": 63,
                "velocity": 51,
                "duration": 0.12045454545454604,
                "tempo": 120.0
            },
            {
                "start_time": 12.227272727272727,
                "end_time": 12.345454545454546,
                "pitch": 60,
                "velocity": 51,
                "duration": 0.11818181818181905,
                "tempo": 120.0
            },
            {
                "start_time": 12.347727272727273,
                "end_time": 12.46590909090909,
                "pitch": 55,
                "velocity": 51,
                "duration": 0.11818181818181728,
                "tempo": 120.0
            },
            {
                "start_time": 12.46590909090909,
                "end_time": 12.597727272727273,
                "pitch": 65,
                "velocity": 51,
                "duration": 0.13181818181818272,
                "tempo": 120.0
            },
            {
                "start_time": 12.597727272727273,
                "end_time": 12.713636363636363,
                "pitch": 62,
                "velocity": 51,
                "duration": 0.1159090909090903,
                "tempo": 120.0
            },
            {
                "start_time": 12.713636363636363,
                "end_time": 12.827272727272726,
                "pitch": 55,
                "velocity": 51,
                "duration": 0.11363636363636331,
                "tempo": 120.0
            },
            {
                "start_time": 12.827272727272726,
                "end_time": 12.943181818181818,
                "pitch": 63,
                "velocity": 51,
                "duration": 0.11590909090909207,
                "tempo": 120.0
            },
            {
                "start_time": 12.943181818181818,
                "end_time": 13.059090909090909,
                "pitch": 60,
                "velocity": 51,
                "duration": 0.1159090909090903,
                "tempo": 120.0
            },
            {
                "start_time": 13.061363636363636,
                "end_time": 13.195454545454545,
                "pitch": 55,
                "velocity": 51,
                "duration": 0.1340909090909097,
                "tempo": 120.0
            },
            {
                "start_time": 13.195454545454545,
                "end_time": 13.313636363636363,
                "pitch": 62,
                "velocity": 51,
                "duration": 0.11818181818181728,
                "tempo": 120.0
            },
            {
                "start_time": 13.313636363636363,
                "end_time": 13.429545454545455,
                "pitch": 58,
                "velocity": 51,
                "duration": 0.11590909090909207,
                "tempo": 120.0
            },
            {
                "start_time": 13.663636363636362,
                "end_time": 13.797727272727272,
                "pitch": 62,
                "velocity": 51,
                "duration": 0.1340909090909097,
                "tempo": 120.0
            },
            {
                "start_time": 13.797727272727272,
                "end_time": 13.913636363636362,
                "pitch": 58,
                "velocity": 51,
                "duration": 0.1159090909090903,
                "tempo": 120.0
            },
            {
                "start_time": 13.913636363636362,
                "end_time": 14.034090909090908,
                "pitch": 55,
                "velocity": 51,
                "duration": 0.12045454545454604,
                "tempo": 120.0
            },
            {
                "start_time": 14.034090909090908,
                "end_time": 14.154545454545454,
                "pitch": 63,
                "velocity": 51,
                "duration": 0.12045454545454604,
                "tempo": 120.0
            },
            {
                "start_time": 14.154545454545454,
                "end_time": 14.272727272727272,
                "pitch": 60,
                "velocity": 51,
                "duration": 0.11818181818181728,
                "tempo": 120.0
            },
            {
                "start_time": 14.272727272727272,
                "end_time": 14.409090909090908,
                "pitch": 55,
                "velocity": 51,
                "duration": 0.1363636363636367,
                "tempo": 120.0
            },
            {
                "start_time": 14.409090909090908,
                "end_time": 14.527272727272727,
                "pitch": 65,
                "velocity": 51,
                "duration": 0.11818181818181905,
                "tempo": 120.0
            },
            {
                "start_time": 14.527272727272727,
                "end_time": 14.645454545454545,
                "pitch": 62,
                "velocity": 51,
                "duration": 0.11818181818181728,
                "tempo": 120.0
            },
            {
                "start_time": 14.645454545454545,
                "end_time": 14.763636363636364,
                "pitch": 55,
                "velocity": 51,
                "duration": 0.11818181818181905,
                "tempo": 120.0
            },
            {
                "start_time": 14.763636363636364,
                "end_time": 14.881818181818181,
                "pitch": 63,
                "velocity": 51,
                "duration": 0.11818181818181728,
                "tempo": 120.0
            },
            {
                "start_time": 14.881818181818181,
                "end_time": 15.013636363636364,
                "pitch": 60,
                "velocity": 51,
                "duration": 0.13181818181818272,
                "tempo": 120.0
            },
            {
                "start_time": 15.013636363636364,
                "end_time": 15.127272727272727,
                "pitch": 55,
                "velocity": 51,
                "duration": 0.11363636363636331,
                "tempo": 120.0
            },
            {
                "start_time": 15.127272727272727,
                "end_time": 15.243181818181817,
                "pitch": 62,
                "velocity": 51,
                "duration": 0.1159090909090903,
                "tempo": 120.0
            },
            {
                "start_time": 15.243181818181817,
                "end_time": 15.35681818181818,
                "pitch": 58,
                "velocity": 51,
                "duration": 0.11363636363636331,
                "tempo": 120.0
            },
            {
                "start_time": 15.618181818181817,
                "end_time": 15.738636363636363,
                "pitch": 64,
                "velocity": 51,
                "duration": 0.12045454545454604,
                "tempo": 120.0
            },
            {
                "start_time": 15.738636363636363,
                "end_time": 15.861363636363636,
                "pitch": 61,
                "velocity": 51,
                "duration": 0.12272727272727302,
                "tempo": 120.0
            },
            {
                "start_time": 15.861363636363636,
                "end_time": 15.975,
                "pitch": 57,
                "velocity": 51,
                "duration": 0.11363636363636331,
                "tempo": 120.0
            },
            {
                "start_time": 15.975,
                "end_time": 16.09090909090909,
                "pitch": 65,
                "velocity": 51,
                "duration": 0.1159090909090903,
                "tempo": 120.0
            },
            {
                "start_time": 16.09090909090909,
                "end_time": 16.222727272727273,
                "pitch": 62,
                "velocity": 51,
                "duration": 0.13181818181818272,
                "tempo": 120.0
            },
            {
                "start_time": 16.222727272727273,
                "end_time": 16.336363636363636,
                "pitch": 57,
                "velocity": 51,
                "duration": 0.11363636363636331,
                "tempo": 120.0
            },
            {
                "start_time": 16.336363636363636,
                "end_time": 16.454545454545453,
                "pitch": 64,
                "velocity": 51,
                "duration": 0.11818181818181728,
                "tempo": 120.0
            },
            {
                "start_time": 16.454545454545453,
                "end_time": 16.57272727272727,
                "pitch": 61,
                "velocity": 51,
                "duration": 0.11818181818181728,
                "tempo": 120.0
            },
            {
                "start_time": 16.57272727272727,
                "end_time": 16.69090909090909,
                "pitch": 57,
                "velocity": 51,
                "duration": 0.11818181818182083,
                "tempo": 120.0
            },
            {
                "start_time": 16.69090909090909,
                "end_time": 16.825,
                "pitch": 65,
                "velocity": 51,
                "duration": 0.13409090909090793,
                "tempo": 120.0
            },
            {
                "start_time": 16.825,
                "end_time": 16.943181818181817,
                "pitch": 62,
                "velocity": 51,
                "duration": 0.11818181818181728,
                "tempo": 120.0
            },
            {
                "start_time": 16.943181818181817,
                "end_time": 17.05909090909091,
                "pitch": 57,
                "velocity": 51,
                "duration": 0.11590909090909207,
                "tempo": 120.0
            },
            {
                "start_time": 17.061363636363634,
                "end_time": 17.177272727272726,
                "pitch": 64,
                "velocity": 51,
                "duration": 0.11590909090909207,
                "tempo": 120.0
            },
            {
                "start_time": 17.177272727272726,
                "end_time": 17.295454545454543,
                "pitch": 61,
                "velocity": 51,
                "duration": 0.11818181818181728,
                "tempo": 120.0
            },
            {
                "start_time": 17.543181818181818,
                "end_time": 17.65681818181818,
                "pitch": 64,
                "velocity": 51,
                "duration": 0.11363636363636331,
                "tempo": 120.0
            },
            {
                "start_time": 17.65681818181818,
                "end_time": 17.772727272727273,
                "pitch": 61,
                "velocity": 51,
                "duration": 0.11590909090909207,
                "tempo": 120.0
            },
            {
                "start_time": 17.772727272727273,
                "end_time": 17.89090909090909,
                "pitch": 57,
                "velocity": 51,
                "duration": 0.11818181818181728,
                "tempo": 120.0
            },
            {
                "start_time": 17.89090909090909,
                "end_time": 18.027272727272727,
                "pitch": 65,
                "velocity": 51,
                "duration": 0.1363636363636367,
                "tempo": 120.0
            },
            {
                "start_time": 18.027272727272727,
                "end_time": 18.147727272727273,
                "pitch": 62,
                "velocity": 51,
                "duration": 0.12045454545454604,
                "tempo": 120.0
            },
            {
                "start_time": 18.147727272727273,
                "end_time": 18.268181818181816,
                "pitch": 57,
                "velocity": 51,
                "duration": 0.12045454545454248,
                "tempo": 120.0
            },
            {
                "start_time": 18.268181818181816,
                "end_time": 18.384090909090908,
                "pitch": 64,
                "velocity": 51,
                "duration": 0.11590909090909207,
                "tempo": 120.0
            },
            {
                "start_time": 18.386363636363637,
                "end_time": 18.502272727272725,
                "pitch": 61,
                "velocity": 51,
                "duration": 0.11590909090908852,
                "tempo": 120.0
            },
            {
                "start_time": 18.502272727272725,
                "end_time": 18.638636363636362,
                "pitch": 57,
                "velocity": 51,
                "duration": 0.1363636363636367,
                "tempo": 120.0
            },
            {
                "start_time": 18.638636363636362,
                "end_time": 18.754545454545454,
                "pitch": 65,
                "velocity": 51,
                "duration": 0.11590909090909207,
                "tempo": 120.0
            },
            {
                "start_time": 18.754545454545454,
                "end_time": 18.87272727272727,
                "pitch": 62,
                "velocity": 51,
                "duration": 0.11818181818181728,
                "tempo": 120.0
            },
            {
                "start_time": 18.87272727272727,
                "end_time": 18.988636363636363,
                "pitch": 57,
                "velocity": 51,
                "duration": 0.11590909090909207,
                "tempo": 120.0
            },
            {
                "start_time": 18.988636363636363,
                "end_time": 19.10681818181818,
                "pitch": 64,
                "velocity": 51,
                "duration": 0.11818181818181728,
                "tempo": 120.0
            },
            {
                "start_time": 19.10681818181818,
                "end_time": 19.238636363636363,
                "pitch": 61,
                "velocity": 51,
                "duration": 0.13181818181818272,
                "tempo": 120.0
            },
            {
                "start_time": 19.479545454545452,
                "end_time": 19.597727272727273,
                "pitch": 66,
                "velocity": 51,
                "duration": 0.11818181818182083,
                "tempo": 120.0
            },
            {
                "start_time": 19.597727272727273,
                "end_time": 19.71818181818182,
                "pitch": 62,
                "velocity": 51,
                "duration": 0.12045454545454604,
                "tempo": 120.0
            },
            {
                "start_time": 19.71818181818182,
                "end_time": 19.849999999999998,
                "pitch": 59,
                "velocity": 51,
                "duration": 0.13181818181817917,
                "tempo": 120.0
            },
            {
                "start_time": 19.849999999999998,
                "end_time": 19.96363636363636,
                "pitch": 67,
                "velocity": 51,
                "duration": 0.11363636363636331,
                "tempo": 120.0
            },
            {
                "start_time": 19.96363636363636,
                "end_time": 20.079545454545453,
                "pitch": 64,
                "velocity": 51,
                "duration": 0.11590909090909207,
                "tempo": 120.0
            },
            {
                "start_time": 20.079545454545453,
                "end_time": 20.195454545454545,
                "pitch": 59,
                "velocity": 51,
                "duration": 0.11590909090909207,
                "tempo": 120.0
            },
            {
                "start_time": 20.195454545454545,
                "end_time": 20.311363636363634,
                "pitch": 66,
                "velocity": 51,
                "duration": 0.11590909090908852,
                "tempo": 120.0
            },
            {
                "start_time": 20.311363636363634,
                "end_time": 20.44772727272727,
                "pitch": 62,
                "velocity": 51,
                "duration": 0.1363636363636367,
                "tempo": 120.0
            },
            {
                "start_time": 20.44772727272727,
                "end_time": 20.563636363636363,
                "pitch": 59,
                "velocity": 51,
                "duration": 0.11590909090909207,
                "tempo": 120.0
            },
            {
                "start_time": 20.563636363636363,
                "end_time": 20.68181818181818,
                "pitch": 67,
                "velocity": 51,
                "duration": 0.11818181818181728,
                "tempo": 120.0
            },
            {
                "start_time": 20.68181818181818,
                "end_time": 20.8,
                "pitch": 64,
                "velocity": 51,
                "duration": 0.11818181818182083,
                "tempo": 120.0
            },
            {
                "start_time": 20.8,
                "end_time": 20.918181818181818,
                "pitch": 59,
                "velocity": 51,
                "duration": 0.11818181818181728,
                "tempo": 120.0
            },
            {
                "start_time": 20.918181818181818,
                "end_time": 21.052272727272726,
                "pitch": 66,
                "velocity": 51,
                "duration": 0.13409090909090793,
                "tempo": 120.0
            },
            {
                "start_time": 21.052272727272726,
                "end_time": 21.170454545454543,
                "pitch": 62,
                "velocity": 51,
                "duration": 0.11818181818181728,
                "tempo": 120.0
            },
            {
                "start_time": 21.409090909090907,
                "end_time": 21.529545454545453,
                "pitch": 66,
                "velocity": 51,
                "duration": 0.12045454545454604,
                "tempo": 120.0
            },
            {
                "start_time": 21.529545454545453,
                "end_time": 21.66590909090909,
                "pitch": 62,
                "velocity": 51,
                "duration": 0.1363636363636367,
                "tempo": 120.0
            },
            {
                "start_time": 21.66590909090909,
                "end_time": 21.784090909090907,
                "pitch": 59,
                "velocity": 51,
                "duration": 0.11818181818181728,
                "tempo": 120.0
            },
            {
                "start_time": 21.784090909090907,
                "end_time": 21.902272727272727,
                "pitch": 67,
                "velocity": 51,
                "duration": 0.11818181818182083,
                "tempo": 120.0
            },
            {
                "start_time": 21.902272727272727,
                "end_time": 22.018181818181816,
                "pitch": 64,
                "velocity": 51,
                "duration": 0.11590909090908852,
                "tempo": 120.0
            },
            {
                "start_time": 22.018181818181816,
                "end_time": 22.136363636363637,
                "pitch": 59,
                "velocity": 51,
                "duration": 0.11818181818182083,
                "tempo": 120.0
            },
            {
                "start_time": 22.136363636363637,
                "end_time": 22.268181818181816,
                "pitch": 66,
                "velocity": 51,
                "duration": 0.13181818181817917,
                "tempo": 120.0
            },
            {
                "start_time": 22.268181818181816,
                "end_time": 22.384090909090908,
                "pitch": 62,
                "velocity": 51,
                "duration": 0.11590909090909207,
                "tempo": 120.0
            },
            {
                "start_time": 22.384090909090908,
                "end_time": 22.49772727272727,
                "pitch": 59,
                "velocity": 51,
                "duration": 0.11363636363636331,
                "tempo": 120.0
            },
            {
                "start_time": 22.49772727272727,
                "end_time": 22.613636363636363,
                "pitch": 67,
                "velocity": 51,
                "duration": 0.11590909090909207,
                "tempo": 120.0
            },
            {
                "start_time": 22.613636363636363,
                "end_time": 22.729545454545452,
                "pitch": 64,
                "velocity": 51,
                "duration": 0.11590909090908852,
                "tempo": 120.0
            },
            {
                "start_time": 22.729545454545452,
                "end_time": 22.863636363636363,
                "pitch": 59,
                "velocity": 51,
                "duration": 0.13409090909091148,
                "tempo": 120.0
            },
            {
                "start_time": 22.863636363636363,
                "end_time": 22.979545454545452,
                "pitch": 66,
                "velocity": 51,
                "duration": 0.11590909090908852,
                "tempo": 120.0
            },
            {
                "start_time": 22.979545454545452,
                "end_time": 23.097727272727273,
                "pitch": 62,
                "velocity": 51,
                "duration": 0.11818181818182083,
                "tempo": 120.0
            },
            {
                "start_time": 23.331818181818182,
                "end_time": 23.46590909090909,
                "pitch": 62,
                "velocity": 51,
                "duration": 0.13409090909090793,
                "tempo": 120.0
            },
            {
                "start_time": 23.46818181818182,
                "end_time": 23.584090909090907,
                "pitch": 58,
                "velocity": 51,
                "duration": 0.11590909090908852,
                "tempo": 120.0
            },
            {
                "start_time": 23.584090909090907,
                "end_time": 23.704545454545453,
                "pitch": 55,
                "velocity": 51,
                "duration": 0.12045454545454604,
                "tempo": 120.0
            },
            {
                "start_time": 23.704545454545453,
                "end_time": 23.825,
                "pitch": 64,
                "velocity": 51,
                "duration": 0.12045454545454604,
                "tempo": 120.0
            },
            {
                "start_time": 23.825,
                "end_time": 23.943181818181817,
                "pitch": 60,
                "velocity": 51,
                "duration": 0.11818181818181728,
                "tempo": 120.0
            },
            {
                "start_time": 23.943181818181817,
                "end_time": 24.079545454545453,
                "pitch": 55,
                "velocity": 51,
                "duration": 0.1363636363636367,
                "tempo": 120.0
            },
            {
                "start_time": 24.081818181818182,
                "end_time": 24.19772727272727,
                "pitch": 65,
                "velocity": 51,
                "duration": 0.11590909090908852,
                "tempo": 120.0
            },
            {
                "start_time": 24.19772727272727,
                "end_time": 24.31590909090909,
                "pitch": 62,
                "velocity": 51,
                "duration": 0.11818181818182083,
                "tempo": 120.0
            },
            {
                "start_time": 24.31590909090909,
                "end_time": 24.43409090909091,
                "pitch": 55,
                "velocity": 51,
                "duration": 0.11818181818181728,
                "tempo": 120.0
            },
            {
                "start_time": 24.43409090909091,
                "end_time": 24.552272727272726,
                "pitch": 64,
                "velocity": 51,
                "duration": 0.11818181818181728,
                "tempo": 120.0
            },
            {
                "start_time": 24.552272727272726,
                "end_time": 24.68181818181818,
                "pitch": 60,
                "velocity": 51,
                "duration": 0.12954545454545396,
                "tempo": 120.0
            },
            {
                "start_time": 24.68409090909091,
                "end_time": 24.797727272727272,
                "pitch": 55,
                "velocity": 51,
                "duration": 0.11363636363636331,
                "tempo": 120.0
            },
            {
                "start_time": 24.797727272727272,
                "end_time": 24.913636363636364,
                "pitch": 62,
                "velocity": 51,
                "duration": 0.11590909090909207,
                "tempo": 120.0
            },
            {
                "start_time": 24.913636363636364,
                "end_time": 25.027272727272727,
                "pitch": 58,
                "velocity": 51,
                "duration": 0.11363636363636331,
                "tempo": 120.0
            },
            {
                "start_time": 25.279545454545453,
                "end_time": 25.39772727272727,
                "pitch": 62,
                "velocity": 51,
                "duration": 0.11818181818181728,
                "tempo": 120.0
            },
            {
                "start_time": 25.39772727272727,
                "end_time": 25.51590909090909,
                "pitch": 58,
                "velocity": 51,
                "duration": 0.11818181818182083,
                "tempo": 120.0
            },
            {
                "start_time": 25.51590909090909,
                "end_time": 25.636363636363637,
                "pitch": 55,
                "velocity": 51,
                "duration": 0.12045454545454604,
                "tempo": 120.0
            },
            {
                "start_time": 25.636363636363637,
                "end_time": 25.754545454545454,
                "pitch": 64,
                "velocity": 51,
                "duration": 0.11818181818181728,
                "tempo": 120.0
            },
            {
                "start_time": 25.754545454545454,
                "end_time": 25.89090909090909,
                "pitch": 60,
                "velocity": 51,
                "duration": 0.1363636363636367,
                "tempo": 120.0
            },
            {
                "start_time": 25.893181818181816,
                "end_time": 26.011363636363637,
                "pitch": 55,
                "velocity": 51,
                "duration": 0.11818181818182083,
                "tempo": 120.0
            },
            {
                "start_time": 26.011363636363637,
                "end_time": 26.129545454545454,
                "pitch": 65,
                "velocity": 51,
                "duration": 0.11818181818181728,
                "tempo": 120.0
            },
            {
                "start_time": 26.129545454545454,
                "end_time": 26.24772727272727,
                "pitch": 62,
                "velocity": 51,
                "duration": 0.11818181818181728,
                "tempo": 120.0
            },
            {
                "start_time": 26.24772727272727,
                "end_time": 26.363636363636363,
                "pitch": 55,
                "velocity": 51,
                "duration": 0.11590909090909207,
                "tempo": 120.0
            },
            {
                "start_time": 26.36590909090909,
                "end_time": 26.5,
                "pitch": 64,
                "velocity": 51,
                "duration": 0.13409090909091148,
                "tempo": 120.0
            },
            {
                "start_time": 26.5,
                "end_time": 26.618181818181817,
                "pitch": 60,
                "velocity": 51,
                "duration": 0.11818181818181728,
                "tempo": 120.0
            },
            {
                "start_time": 26.618181818181817,
                "end_time": 26.738636363636363,
                "pitch": 55,
                "velocity": 51,
                "duration": 0.12045454545454604,
                "tempo": 120.0
            },
            {
                "start_time": 26.738636363636363,
                "end_time": 26.85909090909091,
                "pitch": 62,
                "velocity": 51,
                "duration": 0.12045454545454604,
                "tempo": 120.0
            },
            {
                "start_time": 26.85909090909091,
                "end_time": 26.977272727272727,
                "pitch": 58,
                "velocity": 51,
                "duration": 0.11818181818181728,
                "tempo": 120.0
            },
            {
                "start_time": 27.218181818181815,
                "end_time": 27.329545454545453,
                "pitch": 64,
                "velocity": 51,
                "duration": 0.11136363636363811,
                "tempo": 120.0
            },
            {
                "start_time": 27.331818181818182,
                "end_time": 27.443181818181817,
                "pitch": 60,
                "velocity": 51,
                "duration": 0.11136363636363455,
                "tempo": 120.0
            },
            {
                "start_time": 27.443181818181817,
                "end_time": 27.563636363636363,
                "pitch": 57,
                "velocity": 51,
                "duration": 0.12045454545454604,
                "tempo": 120.0
            },
            {
                "start_time": 27.563636363636363,
                "end_time": 27.7,
                "pitch": 65,
                "velocity": 51,
                "duration": 0.1363636363636367,
                "tempo": 120.0
            },
            {
                "start_time": 27.7,
                "end_time": 27.818181818181817,
                "pitch": 62,
                "velocity": 51,
                "duration": 0.11818181818181728,
                "tempo": 120.0
            },
            {
                "start_time": 27.818181818181817,
                "end_time": 27.938636363636363,
                "pitch": 57,
                "velocity": 51,
                "duration": 0.12045454545454604,
                "tempo": 120.0
            },
            {
                "start_time": 27.938636363636363,
                "end_time": 28.05681818181818,
                "pitch": 67,
                "velocity": 51,
                "duration": 0.11818181818181728,
                "tempo": 120.0
            },
            {
                "start_time": 28.05681818181818,
                "end_time": 28.174999999999997,
                "pitch": 64,
                "velocity": 51,
                "duration": 0.11818181818181728,
                "tempo": 120.0
            },
            {
                "start_time": 28.174999999999997,
                "end_time": 28.30909090909091,
                "pitch": 57,
                "velocity": 51,
                "duration": 0.13409090909091148,
                "tempo": 120.0
            },
            {
                "start_time": 28.30909090909091,
                "end_time": 28.427272727272726,
                "pitch": 65,
                "velocity": 51,
                "duration": 0.11818181818181728,
                "tempo": 120.0
            },
            {
                "start_time": 28.427272727272726,
                "end_time": 28.545454545454543,
                "pitch": 62,
                "velocity": 51,
                "duration": 0.11818181818181728,
                "tempo": 120.0
            },
            {
                "start_time": 28.545454545454543,
                "end_time": 28.66590909090909,
                "pitch": 57,
                "velocity": 51,
                "duration": 0.12045454545454604,
                "tempo": 120.0
            },
            {
                "start_time": 28.66590909090909,
                "end_time": 28.786363636363635,
                "pitch": 64,
                "velocity": 51,
                "duration": 0.12045454545454604,
                "tempo": 120.0
            },
            {
                "start_time": 28.786363636363635,
                "end_time": 28.922727272727272,
                "pitch": 60,
                "velocity": 51,
                "duration": 0.1363636363636367,
                "tempo": 120.0
            },
            {
                "start_time": 29.159090909090907,
                "end_time": 29.275,
                "pitch": 64,
                "velocity": 51,
                "duration": 0.11590909090909207,
                "tempo": 120.0
            },
            {
                "start_time": 29.275,
                "end_time": 29.393181818181816,
                "pitch": 60,
                "velocity": 51,
                "duration": 0.11818181818181728,
                "tempo": 120.0
            },
            {
                "start_time": 29.393181818181816,
                "end_time": 29.525,
                "pitch": 57,
                "velocity": 51,
                "duration": 0.13181818181818272,
                "tempo": 120.0
            },
            {
                "start_time": 29.525,
                "end_time": 29.638636363636362,
                "pitch": 65,
                "velocity": 51,
                "duration": 0.11363636363636331,
                "tempo": 120.0
            },
            {
                "start_time": 29.64090909090909,
                "end_time": 29.754545454545454,
                "pitch": 62,
                "velocity": 51,
                "duration": 0.11363636363636331,
                "tempo": 120.0
            },
            {
                "start_time": 29.754545454545454,
                "end_time": 29.870454545454542,
                "pitch": 57,
                "velocity": 51,
                "duration": 0.11590909090908852,
                "tempo": 120.0
            },
            {
                "start_time": 29.870454545454542,
                "end_time": 29.986363636363635,
                "pitch": 67,
                "velocity": 51,
                "duration": 0.11590909090909207,
                "tempo": 120.0
            },
            {
                "start_time": 29.988636363636363,
                "end_time": 30.12272727272727,
                "pitch": 64,
                "velocity": 51,
                "duration": 0.13409090909090793,
                "tempo": 120.0
            },
            {
                "start_time": 30.12272727272727,
                "end_time": 30.238636363636363,
                "pitch": 57,
                "velocity": 51,
                "duration": 0.11590909090909207,
                "tempo": 120.0
            },
            {
                "start_time": 30.24090909090909,
                "end_time": 30.35681818181818,
                "pitch": 65,
                "velocity": 51,
                "duration": 0.11590909090909207,
                "tempo": 120.0
            },
            {
                "start_time": 30.35681818181818,
                "end_time": 30.477272727272727,
                "pitch": 62,
                "velocity": 51,
                "duration": 0.12045454545454604,
                "tempo": 120.0
            },
            {
                "start_time": 30.477272727272727,
                "end_time": 30.597727272727273,
                "pitch": 57,
                "velocity": 51,
                "duration": 0.12045454545454604,
                "tempo": 120.0
            },
            {
                "start_time": 30.597727272727273,
                "end_time": 30.73409090909091,
                "pitch": 64,
                "velocity": 51,
                "duration": 0.1363636363636367,
                "tempo": 120.0
            },
            {
                "start_time": 30.73409090909091,
                "end_time": 30.854545454545452,
                "pitch": 60,
                "velocity": 51,
                "duration": 0.12045454545454248,
                "tempo": 120.0
            }
        ],
        "Acoustic Bass": [
            {
                "start_time": 0.004545454545454545,
                "end_time": 0.19772727272727272,
                "pitch": 36,
                "velocity": 80,
                "duration": 0.19318181818181818,
                "tempo": 120.0
            },
            {
                "start_time": 0.19772727272727272,
                "end_time": 0.3931818181818182,
                "pitch": 36,
                "velocity": 80,
                "duration": 0.19545454545454546,
                "tempo": 120.0
            },
            {
                "start_time": 0.3931818181818182,
                "end_time": 0.4727272727272727,
                "pitch": 45,
                "velocity": 80,
                "duration": 0.07954545454545453,
                "tempo": 120.0
            },
            {
                "start_time": 0.4727272727272727,
                "end_time": 0.4886363636363636,
                "pitch": 47,
                "velocity": 80,
                "duration": 0.015909090909090873,
                "tempo": 120.0
            },
            {
                "start_time": 0.4886363636363636,
                "end_time": 0.6386363636363636,
                "pitch": 48,
                "velocity": 80,
                "duration": 0.14999999999999997,
                "tempo": 120.0
            },
            {
                "start_time": 0.4886363636363636,
                "end_time": 0.7545454545454545,
                "pitch": 36,
                "velocity": 80,
                "duration": 0.26590909090909093,
                "tempo": 120.0
            },
            {
                "start_time": 0.6386363636363636,
                "end_time": 0.7545454545454545,
                "pitch": 36,
                "velocity": 80,
                "duration": 0.11590909090909096,
                "tempo": 120.0
            },
            {
                "start_time": 0.7545454545454545,
                "end_time": 0.9863636363636363,
                "pitch": 36,
                "velocity": 80,
                "duration": 0.2318181818181818,
                "tempo": 120.0
            },
            {
                "start_time": 0.9863636363636363,
                "end_time": 1.2363636363636363,
                "pitch": 36,
                "velocity": 80,
                "duration": 0.25,
                "tempo": 120.0
            },
            {
                "start_time": 1.2363636363636363,
                "end_time": 1.4727272727272727,
                "pitch": 36,
                "velocity": 80,
                "duration": 0.23636363636363633,
                "tempo": 120.0
            },
            {
                "start_time": 1.4727272727272727,
                "end_time": 1.5909090909090908,
                "pitch": 36,
                "velocity": 80,
                "duration": 0.11818181818181817,
                "tempo": 120.0
            },
            {
                "start_time": 1.593181818181818,
                "end_time": 1.6749999999999998,
                "pitch": 45,
                "velocity": 80,
                "duration": 0.08181818181818179,
                "tempo": 120.0
            },
            {
                "start_time": 1.6749999999999998,
                "end_time": 1.6931818181818181,
                "pitch": 47,
                "velocity": 80,
                "duration": 0.0181818181818183,
                "tempo": 120.0
            },
            {
                "start_time": 1.6931818181818181,
                "end_time": 1.8499999999999999,
                "pitch": 48,
                "velocity": 80,
                "duration": 0.15681818181818175,
                "tempo": 120.0
            },
            {
                "start_time": 1.6931818181818181,
                "end_time": 2.0818181818181816,
                "pitch": 36,
                "velocity": 80,
                "duration": 0.38863636363636345,
                "tempo": 120.0
            },
            {
                "start_time": 1.8499999999999999,
                "end_time": 2.0818181818181816,
                "pitch": 36,
                "velocity": 80,
                "duration": 0.2318181818181817,
                "tempo": 120.0
            },
            {
                "start_time": 2.0818181818181816,
                "end_time": 2.3318181818181816,
                "pitch": 36,
                "velocity": 80,
                "duration": 0.25,
                "tempo": 120.0
            },
            {
                "start_time": 2.3318181818181816,
                "end_time": 2.3977272727272725,
                "pitch": 45,
                "velocity": 80,
                "duration": 0.06590909090909092,
                "tempo": 120.0
            },
            {
                "start_time": 2.3977272727272725,
                "end_time": 2.4318181818181817,
                "pitch": 47,
                "velocity": 80,
                "duration": 0.03409090909090917,
                "tempo": 120.0
            },
            {
                "start_time": 2.4318181818181817,
                "end_time": 2.5704545454545453,
                "pitch": 48,
                "velocity": 80,
                "duration": 0.13863636363636367,
                "tempo": 120.0
            },
            {
                "start_time": 2.4318181818181817,
                "end_time": 2.690909090909091,
                "pitch": 36,
                "velocity": 80,
                "duration": 0.25909090909090926,
                "tempo": 120.0
            },
            {
                "start_time": 2.5727272727272728,
                "end_time": 2.690909090909091,
                "pitch": 36,
                "velocity": 80,
                "duration": 0.11818181818181817,
                "tempo": 120.0
            },
            {
                "start_time": 2.690909090909091,
                "end_time": 2.9386363636363635,
                "pitch": 36,
                "velocity": 80,
                "duration": 0.24772727272727257,
                "tempo": 120.0
            },
            {
                "start_time": 2.9386363636363635,
                "end_time": 3.1636363636363636,
                "pitch": 36,
                "velocity": 80,
                "duration": 0.2250000000000001,
                "tempo": 120.0
            },
            {
                "start_time": 3.1636363636363636,
                "end_time": 3.275,
                "pitch": 36,
                "velocity": 80,
                "duration": 0.11136363636363633,
                "tempo": 120.0
            },
            {
                "start_time": 3.277272727272727,
                "end_time": 3.359090909090909,
                "pitch": 45,
                "velocity": 80,
                "duration": 0.08181818181818201,
                "tempo": 120.0
            },
            {
                "start_time": 3.359090909090909,
                "end_time": 3.377272727272727,
                "pitch": 47,
                "velocity": 80,
                "duration": 0.018181818181818077,
                "tempo": 120.0
            },
            {
                "start_time": 3.377272727272727,
                "end_time": 3.5318181818181817,
                "pitch": 48,
                "velocity": 80,
                "duration": 0.15454545454545476,
                "tempo": 120.0
            },
            {
                "start_time": 3.5318181818181817,
                "end_time": 3.5977272727272727,
                "pitch": 45,
                "velocity": 80,
                "duration": 0.06590909090909092,
                "tempo": 120.0
            },
            {
                "start_time": 3.377272727272727,
                "end_time": 3.631818181818182,
                "pitch": 36,
                "velocity": 80,
                "duration": 0.25454545454545485,
                "tempo": 120.0
            },
            {
                "start_time": 3.5977272727272727,
                "end_time": 3.631818181818182,
                "pitch": 47,
                "velocity": 80,
                "duration": 0.03409090909090917,
                "tempo": 120.0
            },
            {
                "start_time": 3.631818181818182,
                "end_time": 3.7727272727272725,
                "pitch": 48,
                "velocity": 80,
                "duration": 0.14090909090909065,
                "tempo": 120.0
            },
            {
                "start_time": 3.7727272727272725,
                "end_time": 4.004545454545454,
                "pitch": 33,
                "velocity": 80,
                "duration": 0.23181818181818148,
                "tempo": 120.0
            },
            {
                "start_time": 4.004545454545454,
                "end_time": 4.256818181818182,
                "pitch": 33,
                "velocity": 80,
                "duration": 0.25227272727272787,
                "tempo": 120.0
            },
            {
                "start_time": 4.256818181818182,
                "end_time": 4.304545454545455,
                "pitch": 42,
                "velocity": 80,
                "duration": 0.04772727272727284,
                "tempo": 120.0
            },
            {
                "start_time": 4.304545454545455,
                "end_time": 4.495454545454545,
                "pitch": 44,
                "velocity": 80,
                "duration": 0.19090909090909047,
                "tempo": 120.0
            },
            {
                "start_time": 4.495454545454545,
                "end_time": 4.613636363636363,
                "pitch": 33,
                "velocity": 80,
                "duration": 0.11818181818181817,
                "tempo": 120.0
            },
            {
                "start_time": 4.613636363636363,
                "end_time": 4.868181818181818,
                "pitch": 33,
                "velocity": 80,
                "duration": 0.25454545454545485,
                "tempo": 120.0
            },
            {
                "start_time": 4.868181818181818,
                "end_time": 5.102272727272727,
                "pitch": 33,
                "velocity": 80,
                "duration": 0.23409090909090846,
                "tempo": 120.0
            },
            {
                "start_time": 5.102272727272727,
                "end_time": 5.35,
                "pitch": 33,
                "velocity": 80,
                "duration": 0.24772727272727302,
                "tempo": 120.0
            },
            {
                "start_time": 5.35,
                "end_time": 5.465909090909091,
                "pitch": 33,
                "velocity": 80,
                "duration": 0.11590909090909118,
                "tempo": 120.0
            },
            {
                "start_time": 5.465909090909091,
                "end_time": 5.511363636363636,
                "pitch": 42,
                "velocity": 80,
                "duration": 0.04545454545454497,
                "tempo": 120.0
            },
            {
                "start_time": 5.511363636363636,
                "end_time": 5.695454545454545,
                "pitch": 44,
                "velocity": 80,
                "duration": 0.18409090909090953,
                "tempo": 120.0
            },
            {
                "start_time": 5.695454545454545,
                "end_time": 5.945454545454545,
                "pitch": 33,
                "velocity": 80,
                "duration": 0.25,
                "tempo": 120.0
            },
            {
                "start_time": 5.945454545454545,
                "end_time": 6.179545454545455,
                "pitch": 33,
                "velocity": 80,
                "duration": 0.23409090909090935,
                "tempo": 120.0
            },
            {
                "start_time": 6.179545454545455,
                "end_time": 6.245454545454545,
                "pitch": 42,
                "velocity": 80,
                "duration": 0.06590909090909047,
                "tempo": 120.0
            },
            {
                "start_time": 6.245454545454545,
                "end_time": 6.418181818181818,
                "pitch": 44,
                "velocity": 80,
                "duration": 0.17272727272727284,
                "tempo": 120.0
            },
            {
                "start_time": 6.418181818181818,
                "end_time": 6.554545454545454,
                "pitch": 33,
                "velocity": 80,
                "duration": 0.1363636363636358,
                "tempo": 120.0
            },
            {
                "start_time": 6.554545454545454,
                "end_time": 6.793181818181818,
                "pitch": 33,
                "velocity": 80,
                "duration": 0.2386363636363642,
                "tempo": 120.0
            },
            {
                "start_time": 6.793181818181818,
                "end_time": 7.027272727272727,
                "pitch": 33,
                "velocity": 80,
                "duration": 0.23409090909090935,
                "tempo": 120.0
            },
            {
                "start_time": 7.027272727272727,
                "end_time": 7.161363636363636,
                "pitch": 33,
                "velocity": 80,
                "duration": 0.13409090909090882,
                "tempo": 120.0
            },
            {
                "start_time": 7.163636363636363,
                "end_time": 7.209090909090909,
                "pitch": 42,
                "velocity": 80,
                "duration": 0.04545454545454586,
                "tempo": 120.0
            },
            {
                "start_time": 7.209090909090909,
                "end_time": 7.3954545454545455,
                "pitch": 44,
                "velocity": 80,
                "duration": 0.1863636363636365,
                "tempo": 120.0
            },
            {
                "start_time": 7.3954545454545455,
                "end_time": 7.461363636363636,
                "pitch": 42,
                "velocity": 80,
                "duration": 0.06590909090909047,
                "tempo": 120.0
            },
            {
                "start_time": 7.461363636363636,
                "end_time": 7.629545454545454,
                "pitch": 44,
                "velocity": 80,
                "duration": 0.168181818181818,
                "tempo": 120.0
            },
            {
                "start_time": 7.629545454545454,
                "end_time": 7.875,
                "pitch": 29,
                "velocity": 80,
                "duration": 0.24545454545454604,
                "tempo": 120.0
            },
            {
                "start_time": 7.875,
                "end_time": 8.10681818181818,
                "pitch": 29,
                "velocity": 80,
                "duration": 0.2318181818181806,
                "tempo": 120.0
            },
            {
                "start_time": 8.10681818181818,
                "end_time": 8.170454545454545,
                "pitch": 38,
                "velocity": 80,
                "duration": 0.06363636363636438,
                "tempo": 120.0
            },
            {
                "start_time": 8.170454545454545,
                "end_time": 8.35909090909091,
                "pitch": 41,
                "velocity": 80,
                "duration": 0.18863636363636438,
                "tempo": 120.0
            },
            {
                "start_time": 8.35909090909091,
                "end_time": 8.475,
                "pitch": 29,
                "velocity": 80,
                "duration": 0.1159090909090903,
                "tempo": 120.0
            },
            {
                "start_time": 8.475,
                "end_time": 8.713636363636363,
                "pitch": 29,
                "velocity": 80,
                "duration": 0.2386363636363633,
                "tempo": 120.0
            },
            {
                "start_time": 8.713636363636363,
                "end_time": 8.970454545454546,
                "pitch": 29,
                "velocity": 80,
                "duration": 0.2568181818181827,
                "tempo": 120.0
            },
            {
                "start_time": 8.970454545454546,
                "end_time": 9.206818181818182,
                "pitch": 29,
                "velocity": 80,
                "duration": 0.23636363636363633,
                "tempo": 120.0
            },
            {
                "start_time": 9.206818181818182,
                "end_time": 9.325,
                "pitch": 29,
                "velocity": 80,
                "duration": 0.11818181818181728,
                "tempo": 120.0
            },
            {
                "start_time": 9.325,
                "end_time": 9.39090909090909,
                "pitch": 38,
                "velocity": 80,
                "duration": 0.06590909090909136,
                "tempo": 120.0
            },
            {
                "start_time": 9.39090909090909,
                "end_time": 9.577272727272726,
                "pitch": 41,
                "velocity": 80,
                "duration": 0.18636363636363562,
                "tempo": 120.0
            },
            {
                "start_time": 9.577272727272726,
                "end_time": 9.811363636363636,
                "pitch": 29,
                "velocity": 80,
                "duration": 0.23409090909090935,
                "tempo": 120.0
            },
            {
                "start_time": 9.811363636363636,
                "end_time": 10.045454545454545,
                "pitch": 29,
                "velocity": 80,
                "duration": 0.23409090909090935,
                "tempo": 120.0
            },
            {
                "start_time": 10.045454545454545,
                "end_time": 10.10681818181818,
                "pitch": 38,
                "velocity": 80,
                "duration": 0.06136363636363562,
                "tempo": 120.0
            },
            {
                "start_time": 10.10681818181818,
                "end_time": 10.290909090909091,
                "pitch": 41,
                "velocity": 80,
                "duration": 0.18409090909091042,
                "tempo": 120.0
            },
            {
                "start_time": 10.290909090909091,
                "end_time": 10.404545454545454,
                "pitch": 29,
                "velocity": 80,
                "duration": 0.11363636363636331,
                "tempo": 120.0
            },
            {
                "start_time": 10.406818181818181,
                "end_time": 10.64090909090909,
                "pitch": 29,
                "velocity": 80,
                "duration": 0.23409090909090935,
                "tempo": 120.0
            },
            {
                "start_time": 10.64090909090909,
                "end_time": 10.895454545454545,
                "pitch": 29,
                "velocity": 80,
                "duration": 0.25454545454545396,
                "tempo": 120.0
            },
            {
                "start_time": 10.897727272727272,
                "end_time": 11.01590909090909,
                "pitch": 29,
                "velocity": 80,
                "duration": 0.11818181818181905,
                "tempo": 120.0
            },
            {
                "start_time": 11.01590909090909,
                "end_time": 11.081818181818182,
                "pitch": 38,
                "velocity": 80,
                "duration": 0.06590909090909136,
                "tempo": 120.0
            },
            {
                "start_time": 11.081818181818182,
                "end_time": 11.252272727272727,
                "pitch": 41,
                "velocity": 80,
                "duration": 0.17045454545454497,
                "tempo": 120.0
            },
            {
                "start_time": 11.252272727272727,
                "end_time": 11.31590909090909,
                "pitch": 38,
                "velocity": 80,
                "duration": 0.0636363636363626,
                "tempo": 120.0
            },
            {
                "start_time": 11.31590909090909,
                "end_time": 11.504545454545454,
                "pitch": 41,
                "velocity": 80,
                "duration": 0.18863636363636438,
                "tempo": 120.0
            },
            {
                "start_time": 11.504545454545454,
                "end_time": 11.738636363636363,
                "pitch": 31,
                "velocity": 80,
                "duration": 0.23409090909090935,
                "tempo": 120.0
            },
            {
                "start_time": 11.738636363636363,
                "end_time": 11.988636363636363,
                "pitch": 31,
                "velocity": 80,
                "duration": 0.25,
                "tempo": 120.0
            },
            {
                "start_time": 11.988636363636363,
                "end_time": 12.036363636363635,
                "pitch": 40,
                "velocity": 80,
                "duration": 0.04772727272727195,
                "tempo": 120.0
            },
            {
                "start_time": 12.036363636363635,
                "end_time": 12.227272727272727,
                "pitch": 43,
                "velocity": 80,
                "duration": 0.19090909090909136,
                "tempo": 120.0
            },
            {
                "start_time": 12.227272727272727,
                "end_time": 12.347727272727273,
                "pitch": 31,
                "velocity": 80,
                "duration": 0.12045454545454604,
                "tempo": 120.0
            },
            {
                "start_time": 12.347727272727273,
                "end_time": 12.597727272727273,
                "pitch": 31,
                "velocity": 80,
                "duration": 0.25,
                "tempo": 120.0
            },
            {
                "start_time": 12.597727272727273,
                "end_time": 12.827272727272726,
                "pitch": 31,
                "velocity": 80,
                "duration": 0.2295454545454536,
                "tempo": 120.0
            },
            {
                "start_time": 12.827272727272726,
                "end_time": 13.061363636363636,
                "pitch": 31,
                "velocity": 80,
                "duration": 0.23409090909090935,
                "tempo": 120.0
            },
            {
                "start_time": 13.061363636363636,
                "end_time": 13.195454545454545,
                "pitch": 31,
                "velocity": 80,
                "duration": 0.1340909090909097,
                "tempo": 120.0
            },
            {
                "start_time": 13.195454545454545,
                "end_time": 13.243181818181817,
                "pitch": 40,
                "velocity": 80,
                "duration": 0.04772727272727195,
                "tempo": 120.0
            },
            {
                "start_time": 13.243181818181817,
                "end_time": 13.431818181818182,
                "pitch": 43,
                "velocity": 80,
                "duration": 0.18863636363636438,
                "tempo": 120.0
            },
            {
                "start_time": 13.431818181818182,
                "end_time": 13.663636363636362,
                "pitch": 31,
                "velocity": 80,
                "duration": 0.2318181818181806,
                "tempo": 120.0
            },
            {
                "start_time": 13.663636363636362,
                "end_time": 13.915909090909091,
                "pitch": 31,
                "velocity": 80,
                "duration": 0.25227272727272876,
                "tempo": 120.0
            },
            {
                "start_time": 13.915909090909091,
                "end_time": 13.963636363636363,
                "pitch": 40,
                "velocity": 80,
                "duration": 0.04772727272727195,
                "tempo": 120.0
            },
            {
                "start_time": 13.963636363636363,
                "end_time": 14.154545454545454,
                "pitch": 43,
                "velocity": 80,
                "duration": 0.19090909090909136,
                "tempo": 120.0
            },
            {
                "start_time": 14.154545454545454,
                "end_time": 14.272727272727272,
                "pitch": 31,
                "velocity": 80,
                "duration": 0.11818181818181728,
                "tempo": 120.0
            },
            {
                "start_time": 14.274999999999999,
                "end_time": 14.527272727272727,
                "pitch": 31,
                "velocity": 80,
                "duration": 0.25227272727272876,
                "tempo": 120.0
            },
            {
                "start_time": 14.527272727272727,
                "end_time": 14.763636363636364,
                "pitch": 31,
                "velocity": 80,
                "duration": 0.23636363636363633,
                "tempo": 120.0
            },
            {
                "start_time": 14.763636363636364,
                "end_time": 14.881818181818181,
                "pitch": 31,
                "velocity": 80,
                "duration": 0.11818181818181728,
                "tempo": 120.0
            },
            {
                "start_time": 14.881818181818181,
                "end_time": 14.945454545454545,
                "pitch": 40,
                "velocity": 80,
                "duration": 0.06363636363636438,
                "tempo": 120.0
            },
            {
                "start_time": 14.945454545454545,
                "end_time": 15.127272727272727,
                "pitch": 43,
                "velocity": 80,
                "duration": 0.18181818181818166,
                "tempo": 120.0
            },
            {
                "start_time": 15.127272727272727,
                "end_time": 15.177272727272726,
                "pitch": 40,
                "velocity": 80,
                "duration": 0.049999999999998934,
                "tempo": 120.0
            },
            {
                "start_time": 15.177272727272726,
                "end_time": 15.359090909090908,
                "pitch": 43,
                "velocity": 80,
                "duration": 0.18181818181818166,
                "tempo": 120.0
            },
            {
                "start_time": 15.359090909090908,
                "end_time": 15.618181818181817,
                "pitch": 38,
                "velocity": 80,
                "duration": 0.2590909090909097,
                "tempo": 120.0
            },
            {
                "start_time": 15.618181818181817,
                "end_time": 15.861363636363636,
                "pitch": 38,
                "velocity": 80,
                "duration": 0.24318181818181905,
                "tempo": 120.0
            },
            {
                "start_time": 3.631818181818182,
                "end_time": 15.89090909090909,
                "pitch": 36,
                "velocity": 80,
                "duration": 12.259090909090908,
                "tempo": 120.0
            },
            {
                "start_time": 15.861363636363636,
                "end_time": 15.89090909090909,
                "pitch": 47,
                "velocity": 80,
                "duration": 0.02954545454545432,
                "tempo": 120.0
            },
            {
                "start_time": 15.89090909090909,
                "end_time": 16.09090909090909,
                "pitch": 48,
                "velocity": 80,
                "duration": 0.1999999999999993,
                "tempo": 120.0
            },
            {
                "start_time": 16.09090909090909,
                "end_time": 16.222727272727273,
                "pitch": 38,
                "velocity": 80,
                "duration": 0.13181818181818272,
                "tempo": 120.0
            },
            {
                "start_time": 16.222727272727273,
                "end_time": 16.454545454545453,
                "pitch": 38,
                "velocity": 80,
                "duration": 0.2318181818181806,
                "tempo": 120.0
            },
            {
                "start_time": 16.454545454545453,
                "end_time": 16.69090909090909,
                "pitch": 38,
                "velocity": 80,
                "duration": 0.2363636363636381,
                "tempo": 120.0
            },
            {
                "start_time": 16.69090909090909,
                "end_time": 16.943181818181817,
                "pitch": 38,
                "velocity": 80,
                "duration": 0.2522727272727252,
                "tempo": 120.0
            },
            {
                "start_time": 16.943181818181817,
                "end_time": 17.061363636363634,
                "pitch": 38,
                "velocity": 80,
                "duration": 0.11818181818181728,
                "tempo": 120.0
            },
            {
                "start_time": 15.89090909090909,
                "end_time": 17.09318181818182,
                "pitch": 36,
                "velocity": 80,
                "duration": 1.202272727272728,
                "tempo": 120.0
            },
            {
                "start_time": 17.061363636363634,
                "end_time": 17.09318181818182,
                "pitch": 47,
                "velocity": 80,
                "duration": 0.031818181818184854,
                "tempo": 120.0
            },
            {
                "start_time": 17.09318181818182,
                "end_time": 17.297727272727272,
                "pitch": 48,
                "velocity": 80,
                "duration": 0.20454545454545325,
                "tempo": 120.0
            },
            {
                "start_time": 17.297727272727272,
                "end_time": 17.543181818181818,
                "pitch": 38,
                "velocity": 80,
                "duration": 0.24545454545454604,
                "tempo": 120.0
            },
            {
                "start_time": 17.543181818181818,
                "end_time": 17.772727272727273,
                "pitch": 38,
                "velocity": 80,
                "duration": 0.22954545454545539,
                "tempo": 120.0
            },
            {
                "start_time": 17.09318181818182,
                "end_time": 17.820454545454545,
                "pitch": 36,
                "velocity": 80,
                "duration": 0.7272727272727266,
                "tempo": 120.0
            },
            {
                "start_time": 17.772727272727273,
                "end_time": 17.820454545454545,
                "pitch": 47,
                "velocity": 80,
                "duration": 0.04772727272727195,
                "tempo": 120.0
            },
            {
                "start_time": 17.820454545454545,
                "end_time": 18.029545454545453,
                "pitch": 48,
                "velocity": 80,
                "duration": 0.20909090909090722,
                "tempo": 120.0
            },
            {
                "start_time": 18.029545454545453,
                "end_time": 18.147727272727273,
                "pitch": 38,
                "velocity": 80,
                "duration": 0.11818181818182083,
                "tempo": 120.0
            },
            {
                "start_time": 18.147727272727273,
                "end_time": 18.386363636363637,
                "pitch": 38,
                "velocity": 80,
                "duration": 0.2386363636363633,
                "tempo": 120.0
            },
            {
                "start_time": 18.386363636363637,
                "end_time": 18.638636363636362,
                "pitch": 38,
                "velocity": 80,
                "duration": 0.2522727272727252,
                "tempo": 120.0
            },
            {
                "start_time": 18.638636363636362,
                "end_time": 18.75681818181818,
                "pitch": 38,
                "velocity": 80,
                "duration": 0.11818181818181728,
                "tempo": 120.0
            },
            {
                "start_time": 17.820454545454545,
                "end_time": 18.786363636363635,
                "pitch": 36,
                "velocity": 80,
                "duration": 0.9659090909090899,
                "tempo": 120.0
            },
            {
                "start_time": 18.75681818181818,
                "end_time": 18.786363636363635,
                "pitch": 47,
                "velocity": 80,
                "duration": 0.029545454545456096,
                "tempo": 120.0
            },
            {
                "start_time": 18.786363636363635,
                "end_time": 18.988636363636363,
                "pitch": 48,
                "velocity": 80,
                "duration": 0.20227272727272805,
                "tempo": 120.0
            },
            {
                "start_time": 18.988636363636363,
                "end_time": 19.036363636363635,
                "pitch": 47,
                "velocity": 80,
                "duration": 0.04772727272727195,
                "tempo": 120.0
            },
            {
                "start_time": 18.786363636363635,
                "end_time": 19.038636363636364,
                "pitch": 36,
                "velocity": 80,
                "duration": 0.25227272727272876,
                "tempo": 120.0
            },
            {
                "start_time": 19.036363636363635,
                "end_time": 19.038636363636364,
                "pitch": 36,
                "velocity": 80,
                "duration": 0.0022727272727287584,
                "tempo": 120.0
            },
            {
                "start_time": 19.038636363636364,
                "end_time": 19.24090909090909,
                "pitch": 48,
                "velocity": 80,
                "duration": 0.2022727272727245,
                "tempo": 120.0
            },
            {
                "start_time": 19.24090909090909,
                "end_time": 19.479545454545452,
                "pitch": 35,
                "velocity": 80,
                "duration": 0.2386363636363633,
                "tempo": 120.0
            },
            {
                "start_time": 19.479545454545452,
                "end_time": 19.71818181818182,
                "pitch": 35,
                "velocity": 80,
                "duration": 0.23863636363636687,
                "tempo": 120.0
            },
            {
                "start_time": 19.71818181818182,
                "end_time": 19.78181818181818,
                "pitch": 44,
                "velocity": 80,
                "duration": 0.0636363636363626,
                "tempo": 120.0
            },
            {
                "start_time": 19.78181818181818,
                "end_time": 19.96590909090909,
                "pitch": 46,
                "velocity": 80,
                "duration": 0.18409090909090864,
                "tempo": 120.0
            },
            {
                "start_time": 19.96590909090909,
                "end_time": 20.079545454545453,
                "pitch": 35,
                "velocity": 80,
                "duration": 0.11363636363636331,
                "tempo": 120.0
            },
            {
                "start_time": 20.079545454545453,
                "end_time": 20.313636363636363,
                "pitch": 35,
                "velocity": 80,
                "duration": 0.23409090909090935,
                "tempo": 120.0
            },
            {
                "start_time": 20.313636363636363,
                "end_time": 20.56590909090909,
                "pitch": 35,
                "velocity": 80,
                "duration": 0.25227272727272876,
                "tempo": 120.0
            },
            {
                "start_time": 20.56590909090909,
                "end_time": 20.8,
                "pitch": 35,
                "velocity": 80,
                "duration": 0.23409090909090935,
                "tempo": 120.0
            },
            {
                "start_time": 20.8,
                "end_time": 20.918181818181818,
                "pitch": 35,
                "velocity": 80,
                "duration": 0.11818181818181728,
                "tempo": 120.0
            },
            {
                "start_time": 20.918181818181818,
                "end_time": 20.98409090909091,
                "pitch": 44,
                "velocity": 80,
                "duration": 0.06590909090909136,
                "tempo": 120.0
            },
            {
                "start_time": 20.98409090909091,
                "end_time": 21.170454545454543,
                "pitch": 46,
                "velocity": 80,
                "duration": 0.18636363636363384,
                "tempo": 120.0
            },
            {
                "start_time": 21.170454545454543,
                "end_time": 21.409090909090907,
                "pitch": 35,
                "velocity": 80,
                "duration": 0.2386363636363633,
                "tempo": 120.0
            },
            {
                "start_time": 21.409090909090907,
                "end_time": 21.66590909090909,
                "pitch": 35,
                "velocity": 80,
                "duration": 0.2568181818181827,
                "tempo": 120.0
            },
            {
                "start_time": 21.66590909090909,
                "end_time": 21.71363636363636,
                "pitch": 44,
                "velocity": 80,
                "duration": 0.04772727272727195,
                "tempo": 120.0
            },
            {
                "start_time": 21.71363636363636,
                "end_time": 21.902272727272727,
                "pitch": 46,
                "velocity": 80,
                "duration": 0.18863636363636616,
                "tempo": 120.0
            },
            {
                "start_time": 21.902272727272727,
                "end_time": 22.020454545454545,
                "pitch": 35,
                "velocity": 80,
                "duration": 0.11818181818181728,
                "tempo": 120.0
            },
            {
                "start_time": 22.020454545454545,
                "end_time": 22.268181818181816,
                "pitch": 35,
                "velocity": 80,
                "duration": 0.24772727272727124,
                "tempo": 120.0
            },
            {
                "start_time": 22.268181818181816,
                "end_time": 22.49772727272727,
                "pitch": 35,
                "velocity": 80,
                "duration": 0.22954545454545539,
                "tempo": 120.0
            },
            {
                "start_time": 22.49772727272727,
                "end_time": 22.613636363636363,
                "pitch": 35,
                "velocity": 80,
                "duration": 0.11590909090909207,
                "tempo": 120.0
            },
            {
                "start_time": 22.613636363636363,
                "end_time": 22.677272727272726,
                "pitch": 44,
                "velocity": 80,
                "duration": 0.0636363636363626,
                "tempo": 120.0
            },
            {
                "start_time": 22.677272727272726,
                "end_time": 22.863636363636363,
                "pitch": 46,
                "velocity": 80,
                "duration": 0.1863636363636374,
                "tempo": 120.0
            },
            {
                "start_time": 22.863636363636363,
                "end_time": 22.911363636363635,
                "pitch": 44,
                "velocity": 80,
                "duration": 0.04772727272727195,
                "tempo": 120.0
            },
            {
                "start_time": 22.911363636363635,
                "end_time": 23.097727272727273,
                "pitch": 46,
                "velocity": 80,
                "duration": 0.1863636363636374,
                "tempo": 120.0
            },
            {
                "start_time": 23.097727272727273,
                "end_time": 23.334090909090907,
                "pitch": 31,
                "velocity": 80,
                "duration": 0.23636363636363455,
                "tempo": 120.0
            },
            {
                "start_time": 23.334090909090907,
                "end_time": 23.586363636363636,
                "pitch": 31,
                "velocity": 80,
                "duration": 0.25227272727272876,
                "tempo": 120.0
            },
            {
                "start_time": 23.586363636363636,
                "end_time": 23.634090909090908,
                "pitch": 40,
                "velocity": 80,
                "duration": 0.04772727272727195,
                "tempo": 120.0
            },
            {
                "start_time": 23.634090909090908,
                "end_time": 23.825,
                "pitch": 43,
                "velocity": 80,
                "duration": 0.19090909090909136,
                "tempo": 120.0
            },
            {
                "start_time": 23.825,
                "end_time": 23.945454545454545,
                "pitch": 31,
                "velocity": 80,
                "duration": 0.12045454545454604,
                "tempo": 120.0
            },
            {
                "start_time": 23.945454545454545,
                "end_time": 24.19772727272727,
                "pitch": 31,
                "velocity": 80,
                "duration": 0.2522727272727252,
                "tempo": 120.0
            },
            {
                "start_time": 24.2,
                "end_time": 24.43409090909091,
                "pitch": 31,
                "velocity": 80,
                "duration": 0.23409090909090935,
                "tempo": 120.0
            },
            {
                "start_time": 24.43409090909091,
                "end_time": 24.68409090909091,
                "pitch": 31,
                "velocity": 80,
                "duration": 0.25,
                "tempo": 120.0
            },
            {
                "start_time": 24.68409090909091,
                "end_time": 24.797727272727272,
                "pitch": 31,
                "velocity": 80,
                "duration": 0.11363636363636331,
                "tempo": 120.0
            },
            {
                "start_time": 24.797727272727272,
                "end_time": 24.845454545454544,
                "pitch": 40,
                "velocity": 80,
                "duration": 0.04772727272727195,
                "tempo": 120.0
            },
            {
                "start_time": 24.845454545454544,
                "end_time": 25.029545454545453,
                "pitch": 43,
                "velocity": 80,
                "duration": 0.18409090909090864,
                "tempo": 120.0
            },
            {
                "start_time": 25.029545454545453,
                "end_time": 25.28181818181818,
                "pitch": 31,
                "velocity": 80,
                "duration": 0.25227272727272876,
                "tempo": 120.0
            },
            {
                "start_time": 25.28181818181818,
                "end_time": 25.51590909090909,
                "pitch": 31,
                "velocity": 80,
                "duration": 0.23409090909090935,
                "tempo": 120.0
            },
            {
                "start_time": 25.51590909090909,
                "end_time": 25.581818181818182,
                "pitch": 40,
                "velocity": 80,
                "duration": 0.06590909090909136,
                "tempo": 120.0
            },
            {
                "start_time": 25.581818181818182,
                "end_time": 25.754545454545454,
                "pitch": 43,
                "velocity": 80,
                "duration": 0.17272727272727195,
                "tempo": 120.0
            },
            {
                "start_time": 25.75681818181818,
                "end_time": 25.893181818181816,
                "pitch": 31,
                "velocity": 80,
                "duration": 0.1363636363636367,
                "tempo": 120.0
            },
            {
                "start_time": 25.893181818181816,
                "end_time": 26.129545454545454,
                "pitch": 31,
                "velocity": 80,
                "duration": 0.2363636363636381,
                "tempo": 120.0
            },
            {
                "start_time": 26.129545454545454,
                "end_time": 26.36590909090909,
                "pitch": 31,
                "velocity": 80,
                "duration": 0.23636363636363455,
                "tempo": 120.0
            },
            {
                "start_time": 26.36590909090909,
                "end_time": 26.5,
                "pitch": 31,
                "velocity": 80,
                "duration": 0.13409090909091148,
                "tempo": 120.0
            },
            {
                "start_time": 26.5,
                "end_time": 26.549999999999997,
                "pitch": 40,
                "velocity": 80,
                "duration": 0.04999999999999716,
                "tempo": 120.0
            },
            {
                "start_time": 26.549999999999997,
                "end_time": 26.738636363636363,
                "pitch": 43,
                "velocity": 80,
                "duration": 0.18863636363636616,
                "tempo": 120.0
            },
            {
                "start_time": 26.738636363636363,
                "end_time": 26.804545454545455,
                "pitch": 40,
                "velocity": 80,
                "duration": 0.06590909090909136,
                "tempo": 120.0
            },
            {
                "start_time": 26.804545454545455,
                "end_time": 26.979545454545452,
                "pitch": 43,
                "velocity": 80,
                "duration": 0.17499999999999716,
                "tempo": 120.0
            },
            {
                "start_time": 26.979545454545452,
                "end_time": 27.218181818181815,
                "pitch": 33,
                "velocity": 80,
                "duration": 0.2386363636363633,
                "tempo": 120.0
            },
            {
                "start_time": 27.218181818181815,
                "end_time": 27.443181818181817,
                "pitch": 33,
                "velocity": 80,
                "duration": 0.22500000000000142,
                "tempo": 120.0
            },
            {
                "start_time": 27.443181818181817,
                "end_time": 27.509090909090908,
                "pitch": 42,
                "velocity": 80,
                "duration": 0.06590909090909136,
                "tempo": 120.0
            },
            {
                "start_time": 27.509090909090908,
                "end_time": 27.7,
                "pitch": 44,
                "velocity": 80,
                "duration": 0.19090909090909136,
                "tempo": 120.0
            },
            {
                "start_time": 27.7,
                "end_time": 27.820454545454545,
                "pitch": 33,
                "velocity": 80,
                "duration": 0.12045454545454604,
                "tempo": 120.0
            },
            {
                "start_time": 27.820454545454545,
                "end_time": 28.05681818181818,
                "pitch": 33,
                "velocity": 80,
                "duration": 0.23636363636363455,
                "tempo": 120.0
            },
            {
                "start_time": 28.05681818181818,
                "end_time": 28.30909090909091,
                "pitch": 33,
                "velocity": 80,
                "duration": 0.25227272727272876,
                "tempo": 120.0
            },
            {
                "start_time": 28.30909090909091,
                "end_time": 28.547727272727272,
                "pitch": 33,
                "velocity": 80,
                "duration": 0.2386363636363633,
                "tempo": 120.0
            },
            {
                "start_time": 28.547727272727272,
                "end_time": 28.66590909090909,
                "pitch": 33,
                "velocity": 80,
                "duration": 0.11818181818181728,
                "tempo": 120.0
            },
            {
                "start_time": 28.66590909090909,
                "end_time": 28.73181818181818,
                "pitch": 42,
                "velocity": 80,
                "duration": 0.06590909090909136,
                "tempo": 120.0
            },
            {
                "start_time": 28.73181818181818,
                "end_time": 28.922727272727272,
                "pitch": 44,
                "velocity": 80,
                "duration": 0.19090909090909136,
                "tempo": 120.0
            },
            {
                "start_time": 28.922727272727272,
                "end_time": 29.159090909090907,
                "pitch": 33,
                "velocity": 80,
                "duration": 0.23636363636363455,
                "tempo": 120.0
            },
            {
                "start_time": 29.159090909090907,
                "end_time": 29.393181818181816,
                "pitch": 33,
                "velocity": 80,
                "duration": 0.23409090909090935,
                "tempo": 120.0
            },
            {
                "start_time": 29.393181818181816,
                "end_time": 29.456818181818182,
                "pitch": 42,
                "velocity": 80,
                "duration": 0.06363636363636616,
                "tempo": 120.0
            },
            {
                "start_time": 29.456818181818182,
                "end_time": 29.64090909090909,
                "pitch": 44,
                "velocity": 80,
                "duration": 0.18409090909090864,
                "tempo": 120.0
            },
            {
                "start_time": 29.64090909090909,
                "end_time": 29.754545454545454,
                "pitch": 33,
                "velocity": 80,
                "duration": 0.11363636363636331,
                "tempo": 120.0
            },
            {
                "start_time": 29.754545454545454,
                "end_time": 29.988636363636363,
                "pitch": 33,
                "velocity": 80,
                "duration": 0.23409090909090935,
                "tempo": 120.0
            },
            {
                "start_time": 29.988636363636363,
                "end_time": 30.24090909090909,
                "pitch": 33,
                "velocity": 80,
                "duration": 0.2522727272727252,
                "tempo": 120.0
            },
            {
                "start_time": 30.24090909090909,
                "end_time": 30.35909090909091,
                "pitch": 33,
                "velocity": 80,
                "duration": 0.11818181818182083,
                "tempo": 120.0
            },
            {
                "start_time": 30.35909090909091,
                "end_time": 30.424999999999997,
                "pitch": 42,
                "velocity": 80,
                "duration": 0.06590909090908781,
                "tempo": 120.0
            },
            {
                "start_time": 30.424999999999997,
                "end_time": 30.597727272727273,
                "pitch": 44,
                "velocity": 80,
                "duration": 0.1727272727272755,
                "tempo": 120.0
            },
            {
                "start_time": 30.597727272727273,
                "end_time": 30.66363636363636,
                "pitch": 42,
                "velocity": 80,
                "duration": 0.06590909090908781,
                "tempo": 120.0
            },
            {
                "start_time": 30.66363636363636,
                "end_time": 30.854545454545452,
                "pitch": 44,
                "velocity": 80,
                "duration": 0.19090909090909136,
                "tempo": 120.0
            }
        ],
        "Acoustic Guitar (nylon)": [
            {
                "start_time": 0.004545454545454545,
                "end_time": 0.09999999999999999,
                "pitch": 79,
                "velocity": 40,
                "duration": 0.09545454545454544,
                "tempo": 120.0
            },
            {
                "start_time": 0.09999999999999999,
                "end_time": 0.19999999999999998,
                "pitch": 84,
                "velocity": 40,
                "duration": 0.09999999999999999,
                "tempo": 120.0
            },
            {
                "start_time": 0.19999999999999998,
                "end_time": 0.2954545454545454,
                "pitch": 55,
                "velocity": 40,
                "duration": 0.09545454545454543,
                "tempo": 120.0
            },
            {
                "start_time": 0.2954545454545454,
                "end_time": 0.3931818181818182,
                "pitch": 60,
                "velocity": 40,
                "duration": 0.09772727272727277,
                "tempo": 120.0
            },
            {
                "start_time": 0.3931818181818182,
                "end_time": 0.525,
                "pitch": 67,
                "velocity": 40,
                "duration": 0.13181818181818183,
                "tempo": 120.0
            },
            {
                "start_time": 0.525,
                "end_time": 0.6386363636363636,
                "pitch": 72,
                "velocity": 40,
                "duration": 0.11363636363636354,
                "tempo": 120.0
            },
            {
                "start_time": 0.6409090909090909,
                "end_time": 0.7545454545454545,
                "pitch": 67,
                "velocity": 40,
                "duration": 0.11363636363636365,
                "tempo": 120.0
            },
            {
                "start_time": 0.7545454545454545,
                "end_time": 0.8681818181818182,
                "pitch": 72,
                "velocity": 40,
                "duration": 0.11363636363636365,
                "tempo": 120.0
            },
            {
                "start_time": 0.8704545454545454,
                "end_time": 0.9863636363636363,
                "pitch": 79,
                "velocity": 40,
                "duration": 0.11590909090909096,
                "tempo": 120.0
            },
            {
                "start_time": 0.9863636363636363,
                "end_time": 1.1204545454545454,
                "pitch": 84,
                "velocity": 40,
                "duration": 0.13409090909090904,
                "tempo": 120.0
            },
            {
                "start_time": 1.1204545454545454,
                "end_time": 1.2363636363636363,
                "pitch": 55,
                "velocity": 40,
                "duration": 0.11590909090909096,
                "tempo": 120.0
            },
            {
                "start_time": 1.2363636363636363,
                "end_time": 1.3522727272727273,
                "pitch": 60,
                "velocity": 40,
                "duration": 0.11590909090909096,
                "tempo": 120.0
            },
            {
                "start_time": 1.3545454545454545,
                "end_time": 1.4727272727272727,
                "pitch": 67,
                "velocity": 40,
                "duration": 0.11818181818181817,
                "tempo": 120.0
            },
            {
                "start_time": 1.4727272727272727,
                "end_time": 1.593181818181818,
                "pitch": 72,
                "velocity": 40,
                "duration": 0.12045454545454537,
                "tempo": 120.0
            },
            {
                "start_time": 1.593181818181818,
                "end_time": 1.7295454545454545,
                "pitch": 67,
                "velocity": 40,
                "duration": 0.13636363636363646,
                "tempo": 120.0
            },
            {
                "start_time": 1.7295454545454545,
                "end_time": 1.8499999999999999,
                "pitch": 72,
                "velocity": 40,
                "duration": 0.12045454545454537,
                "tempo": 120.0
            },
            {
                "start_time": 1.8499999999999999,
                "end_time": 1.9659090909090908,
                "pitch": 79,
                "velocity": 40,
                "duration": 0.11590909090909096,
                "tempo": 120.0
            },
            {
                "start_time": 1.9659090909090908,
                "end_time": 2.084090909090909,
                "pitch": 84,
                "velocity": 40,
                "duration": 0.11818181818181817,
                "tempo": 120.0
            },
            {
                "start_time": 2.084090909090909,
                "end_time": 2.1999999999999997,
                "pitch": 55,
                "velocity": 40,
                "duration": 0.11590909090909074,
                "tempo": 120.0
            },
            {
                "start_time": 2.1999999999999997,
                "end_time": 2.334090909090909,
                "pitch": 60,
                "velocity": 40,
                "duration": 0.13409090909090926,
                "tempo": 120.0
            },
            {
                "start_time": 2.334090909090909,
                "end_time": 2.452272727272727,
                "pitch": 67,
                "velocity": 40,
                "duration": 0.11818181818181817,
                "tempo": 120.0
            },
            {
                "start_time": 2.452272727272727,
                "end_time": 2.5727272727272728,
                "pitch": 72,
                "velocity": 40,
                "duration": 0.12045454545454559,
                "tempo": 120.0
            },
            {
                "start_time": 2.5727272727272728,
                "end_time": 2.693181818181818,
                "pitch": 67,
                "velocity": 40,
                "duration": 0.12045454545454515,
                "tempo": 120.0
            },
            {
                "start_time": 2.693181818181818,
                "end_time": 2.811363636363636,
                "pitch": 72,
                "velocity": 40,
                "duration": 0.11818181818181817,
                "tempo": 120.0
            },
            {
                "start_time": 2.811363636363636,
                "end_time": 2.940909090909091,
                "pitch": 79,
                "velocity": 40,
                "duration": 0.12954545454545485,
                "tempo": 120.0
            },
            {
                "start_time": 2.940909090909091,
                "end_time": 3.0522727272727272,
                "pitch": 84,
                "velocity": 40,
                "duration": 0.11136363636363633,
                "tempo": 120.0
            },
            {
                "start_time": 3.0522727272727272,
                "end_time": 3.1636363636363636,
                "pitch": 55,
                "velocity": 40,
                "duration": 0.11136363636363633,
                "tempo": 120.0
            },
            {
                "start_time": 3.1659090909090906,
                "end_time": 3.277272727272727,
                "pitch": 60,
                "velocity": 40,
                "duration": 0.11136363636363633,
                "tempo": 120.0
            },
            {
                "start_time": 3.277272727272727,
                "end_time": 3.3954545454545455,
                "pitch": 67,
                "velocity": 40,
                "duration": 0.11818181818181861,
                "tempo": 120.0
            },
            {
                "start_time": 3.3977272727272725,
                "end_time": 3.5340909090909087,
                "pitch": 72,
                "velocity": 40,
                "duration": 0.13636363636363624,
                "tempo": 120.0
            },
            {
                "start_time": 3.5340909090909087,
                "end_time": 3.652272727272727,
                "pitch": 67,
                "velocity": 40,
                "duration": 0.11818181818181817,
                "tempo": 120.0
            },
            {
                "start_time": 3.6545454545454543,
                "end_time": 3.7727272727272725,
                "pitch": 72,
                "velocity": 40,
                "duration": 0.11818181818181817,
                "tempo": 120.0
            },
            {
                "start_time": 3.7727272727272725,
                "end_time": 3.8886363636363637,
                "pitch": 76,
                "velocity": 40,
                "duration": 0.11590909090909118,
                "tempo": 120.0
            },
            {
                "start_time": 3.8886363636363637,
                "end_time": 4.006818181818182,
                "pitch": 81,
                "velocity": 40,
                "duration": 0.11818181818181817,
                "tempo": 120.0
            },
            {
                "start_time": 4.006818181818182,
                "end_time": 4.138636363636364,
                "pitch": 52,
                "velocity": 40,
                "duration": 0.13181818181818183,
                "tempo": 120.0
            },
            {
                "start_time": 4.138636363636364,
                "end_time": 4.256818181818182,
                "pitch": 57,
                "velocity": 40,
                "duration": 0.11818181818181817,
                "tempo": 120.0
            },
            {
                "start_time": 4.256818181818182,
                "end_time": 4.375,
                "pitch": 64,
                "velocity": 40,
                "duration": 0.11818181818181817,
                "tempo": 120.0
            },
            {
                "start_time": 4.377272727272727,
                "end_time": 4.495454545454545,
                "pitch": 69,
                "velocity": 40,
                "duration": 0.11818181818181817,
                "tempo": 120.0
            },
            {
                "start_time": 4.495454545454545,
                "end_time": 4.61590909090909,
                "pitch": 64,
                "velocity": 40,
                "duration": 0.12045454545454515,
                "tempo": 120.0
            },
            {
                "start_time": 4.61590909090909,
                "end_time": 4.752272727272727,
                "pitch": 69,
                "velocity": 40,
                "duration": 0.1363636363636367,
                "tempo": 120.0
            },
            {
                "start_time": 4.752272727272727,
                "end_time": 4.868181818181818,
                "pitch": 76,
                "velocity": 40,
                "duration": 0.11590909090909118,
                "tempo": 120.0
            },
            {
                "start_time": 4.868181818181818,
                "end_time": 4.986363636363636,
                "pitch": 81,
                "velocity": 40,
                "duration": 0.11818181818181817,
                "tempo": 120.0
            },
            {
                "start_time": 4.986363636363636,
                "end_time": 5.102272727272727,
                "pitch": 52,
                "velocity": 40,
                "duration": 0.1159090909090903,
                "tempo": 120.0
            },
            {
                "start_time": 5.102272727272727,
                "end_time": 5.218181818181818,
                "pitch": 57,
                "velocity": 40,
                "duration": 0.11590909090909118,
                "tempo": 120.0
            },
            {
                "start_time": 5.220454545454545,
                "end_time": 5.35,
                "pitch": 64,
                "velocity": 40,
                "duration": 0.12954545454545485,
                "tempo": 120.0
            },
            {
                "start_time": 5.35,
                "end_time": 5.465909090909091,
                "pitch": 69,
                "velocity": 40,
                "duration": 0.11590909090909118,
                "tempo": 120.0
            },
            {
                "start_time": 5.465909090909091,
                "end_time": 5.581818181818181,
                "pitch": 64,
                "velocity": 40,
                "duration": 0.1159090909090903,
                "tempo": 120.0
            },
            {
                "start_time": 5.581818181818181,
                "end_time": 5.695454545454545,
                "pitch": 69,
                "velocity": 40,
                "duration": 0.1136363636363642,
                "tempo": 120.0
            },
            {
                "start_time": 5.695454545454545,
                "end_time": 5.8113636363636365,
                "pitch": 76,
                "velocity": 40,
                "duration": 0.11590909090909118,
                "tempo": 120.0
            },
            {
                "start_time": 5.8113636363636365,
                "end_time": 5.945454545454545,
                "pitch": 81,
                "velocity": 40,
                "duration": 0.13409090909090882,
                "tempo": 120.0
            },
            {
                "start_time": 5.945454545454545,
                "end_time": 6.0613636363636365,
                "pitch": 52,
                "velocity": 40,
                "duration": 0.11590909090909118,
                "tempo": 120.0
            },
            {
                "start_time": 6.0636363636363635,
                "end_time": 6.179545454545455,
                "pitch": 57,
                "velocity": 40,
                "duration": 0.11590909090909118,
                "tempo": 120.0
            },
            {
                "start_time": 6.179545454545455,
                "end_time": 6.3,
                "pitch": 64,
                "velocity": 40,
                "duration": 0.12045454545454515,
                "tempo": 120.0
            },
            {
                "start_time": 6.3,
                "end_time": 6.418181818181818,
                "pitch": 69,
                "velocity": 40,
                "duration": 0.11818181818181817,
                "tempo": 120.0
            },
            {
                "start_time": 6.418181818181818,
                "end_time": 6.556818181818182,
                "pitch": 64,
                "velocity": 40,
                "duration": 0.13863636363636367,
                "tempo": 120.0
            },
            {
                "start_time": 6.556818181818182,
                "end_time": 6.675,
                "pitch": 69,
                "velocity": 40,
                "duration": 0.11818181818181817,
                "tempo": 120.0
            },
            {
                "start_time": 6.675,
                "end_time": 6.793181818181818,
                "pitch": 76,
                "velocity": 40,
                "duration": 0.11818181818181817,
                "tempo": 120.0
            },
            {
                "start_time": 6.793181818181818,
                "end_time": 6.911363636363636,
                "pitch": 81,
                "velocity": 40,
                "duration": 0.11818181818181817,
                "tempo": 120.0
            },
            {
                "start_time": 6.911363636363636,
                "end_time": 7.029545454545454,
                "pitch": 52,
                "velocity": 40,
                "duration": 0.11818181818181817,
                "tempo": 120.0
            },
            {
                "start_time": 7.029545454545454,
                "end_time": 7.163636363636363,
                "pitch": 57,
                "velocity": 40,
                "duration": 0.13409090909090882,
                "tempo": 120.0
            },
            {
                "start_time": 7.163636363636363,
                "end_time": 7.279545454545454,
                "pitch": 64,
                "velocity": 40,
                "duration": 0.11590909090909118,
                "tempo": 120.0
            },
            {
                "start_time": 7.279545454545454,
                "end_time": 7.3977272727272725,
                "pitch": 69,
                "velocity": 40,
                "duration": 0.11818181818181817,
                "tempo": 120.0
            },
            {
                "start_time": 7.3977272727272725,
                "end_time": 7.513636363636364,
                "pitch": 64,
                "velocity": 40,
                "duration": 0.11590909090909118,
                "tempo": 120.0
            },
            {
                "start_time": 7.513636363636364,
                "end_time": 7.631818181818182,
                "pitch": 69,
                "velocity": 40,
                "duration": 0.11818181818181817,
                "tempo": 120.0
            },
            {
                "start_time": 7.631818181818182,
                "end_time": 7.761363636363636,
                "pitch": 72,
                "velocity": 40,
                "duration": 0.12954545454545396,
                "tempo": 120.0
            },
            {
                "start_time": 7.761363636363636,
                "end_time": 7.877272727272727,
                "pitch": 77,
                "velocity": 40,
                "duration": 0.11590909090909118,
                "tempo": 120.0
            },
            {
                "start_time": 7.877272727272727,
                "end_time": 7.99090909090909,
                "pitch": 48,
                "velocity": 40,
                "duration": 0.11363636363636331,
                "tempo": 120.0
            },
            {
                "start_time": 7.99090909090909,
                "end_time": 8.10681818181818,
                "pitch": 53,
                "velocity": 40,
                "duration": 0.1159090909090903,
                "tempo": 120.0
            },
            {
                "start_time": 8.10681818181818,
                "end_time": 8.225,
                "pitch": 60,
                "velocity": 40,
                "duration": 0.11818181818181905,
                "tempo": 120.0
            },
            {
                "start_time": 8.225,
                "end_time": 8.35909090909091,
                "pitch": 65,
                "velocity": 40,
                "duration": 0.1340909090909097,
                "tempo": 120.0
            },
            {
                "start_time": 8.35909090909091,
                "end_time": 8.477272727272727,
                "pitch": 60,
                "velocity": 40,
                "duration": 0.11818181818181728,
                "tempo": 120.0
            },
            {
                "start_time": 8.477272727272727,
                "end_time": 8.593181818181817,
                "pitch": 65,
                "velocity": 40,
                "duration": 0.1159090909090903,
                "tempo": 120.0
            },
            {
                "start_time": 8.595454545454546,
                "end_time": 8.713636363636363,
                "pitch": 72,
                "velocity": 40,
                "duration": 0.11818181818181728,
                "tempo": 120.0
            },
            {
                "start_time": 8.713636363636363,
                "end_time": 8.834090909090909,
                "pitch": 77,
                "velocity": 40,
                "duration": 0.12045454545454604,
                "tempo": 120.0
            },
            {
                "start_time": 8.834090909090909,
                "end_time": 8.970454545454546,
                "pitch": 48,
                "velocity": 40,
                "duration": 0.1363636363636367,
                "tempo": 120.0
            },
            {
                "start_time": 8.970454545454546,
                "end_time": 9.09090909090909,
                "pitch": 53,
                "velocity": 40,
                "duration": 0.12045454545454426,
                "tempo": 120.0
            },
            {
                "start_time": 9.09090909090909,
                "end_time": 9.209090909090909,
                "pitch": 60,
                "velocity": 40,
                "duration": 0.11818181818181905,
                "tempo": 120.0
            },
            {
                "start_time": 9.209090909090909,
                "end_time": 9.325,
                "pitch": 65,
                "velocity": 40,
                "duration": 0.1159090909090903,
                "tempo": 120.0
            },
            {
                "start_time": 9.327272727272726,
                "end_time": 9.443181818181818,
                "pitch": 60,
                "velocity": 40,
                "duration": 0.11590909090909207,
                "tempo": 120.0
            },
            {
                "start_time": 9.443181818181818,
                "end_time": 9.579545454545453,
                "pitch": 65,
                "velocity": 40,
                "duration": 0.1363636363636349,
                "tempo": 120.0
            },
            {
                "start_time": 9.579545454545453,
                "end_time": 9.693181818181818,
                "pitch": 72,
                "velocity": 40,
                "duration": 0.11363636363636509,
                "tempo": 120.0
            },
            {
                "start_time": 9.693181818181818,
                "end_time": 9.811363636363636,
                "pitch": 77,
                "velocity": 40,
                "duration": 0.11818181818181728,
                "tempo": 120.0
            },
            {
                "start_time": 9.811363636363636,
                "end_time": 9.927272727272726,
                "pitch": 48,
                "velocity": 40,
                "duration": 0.1159090909090903,
                "tempo": 120.0
            },
            {
                "start_time": 9.927272727272726,
                "end_time": 10.045454545454545,
                "pitch": 53,
                "velocity": 40,
                "duration": 0.11818181818181905,
                "tempo": 120.0
            },
            {
                "start_time": 10.045454545454545,
                "end_time": 10.177272727272726,
                "pitch": 60,
                "velocity": 40,
                "duration": 0.13181818181818095,
                "tempo": 120.0
            },
            {
                "start_time": 10.177272727272726,
                "end_time": 10.290909090909091,
                "pitch": 65,
                "velocity": 40,
                "duration": 0.11363636363636509,
                "tempo": 120.0
            },
            {
                "start_time": 10.290909090909091,
                "end_time": 10.406818181818181,
                "pitch": 60,
                "velocity": 40,
                "duration": 0.1159090909090903,
                "tempo": 120.0
            },
            {
                "start_time": 10.406818181818181,
                "end_time": 10.520454545454545,
                "pitch": 65,
                "velocity": 40,
                "duration": 0.11363636363636331,
                "tempo": 120.0
            },
            {
                "start_time": 10.520454545454545,
                "end_time": 10.64090909090909,
                "pitch": 72,
                "velocity": 40,
                "duration": 0.12045454545454604,
                "tempo": 120.0
            },
            {
                "start_time": 10.64090909090909,
                "end_time": 10.777272727272727,
                "pitch": 77,
                "velocity": 40,
                "duration": 0.1363636363636367,
                "tempo": 120.0
            },
            {
                "start_time": 10.777272727272727,
                "end_time": 10.897727272727272,
                "pitch": 48,
                "velocity": 40,
                "duration": 0.12045454545454426,
                "tempo": 120.0
            },
            {
                "start_time": 10.897727272727272,
                "end_time": 11.018181818181818,
                "pitch": 53,
                "velocity": 40,
                "duration": 0.12045454545454604,
                "tempo": 120.0
            },
            {
                "start_time": 11.018181818181818,
                "end_time": 11.134090909090908,
                "pitch": 60,
                "velocity": 40,
                "duration": 0.1159090909090903,
                "tempo": 120.0
            },
            {
                "start_time": 11.134090909090908,
                "end_time": 11.252272727272727,
                "pitch": 65,
                "velocity": 40,
                "duration": 0.11818181818181905,
                "tempo": 120.0
            },
            {
                "start_time": 11.252272727272727,
                "end_time": 11.388636363636364,
                "pitch": 60,
                "velocity": 40,
                "duration": 0.1363636363636367,
                "tempo": 120.0
            },
            {
                "start_time": 11.388636363636364,
                "end_time": 11.504545454545454,
                "pitch": 65,
                "velocity": 40,
                "duration": 0.1159090909090903,
                "tempo": 120.0
            },
            {
                "start_time": 11.506818181818181,
                "end_time": 11.620454545454544,
                "pitch": 74,
                "velocity": 40,
                "duration": 0.11363636363636331,
                "tempo": 120.0
            },
            {
                "start_time": 11.620454545454544,
                "end_time": 11.738636363636363,
                "pitch": 79,
                "velocity": 40,
                "duration": 0.11818181818181905,
                "tempo": 120.0
            },
            {
                "start_time": 11.738636363636363,
                "end_time": 11.854545454545454,
                "pitch": 50,
                "velocity": 40,
                "duration": 0.1159090909090903,
                "tempo": 120.0
            },
            {
                "start_time": 11.854545454545454,
                "end_time": 11.988636363636363,
                "pitch": 55,
                "velocity": 40,
                "duration": 0.1340909090909097,
                "tempo": 120.0
            },
            {
                "start_time": 11.988636363636363,
                "end_time": 12.10909090909091,
                "pitch": 62,
                "velocity": 40,
                "duration": 0.12045454545454604,
                "tempo": 120.0
            },
            {
                "start_time": 12.10909090909091,
                "end_time": 12.227272727272727,
                "pitch": 67,
                "velocity": 40,
                "duration": 0.11818181818181728,
                "tempo": 120.0
            },
            {
                "start_time": 12.229545454545454,
                "end_time": 12.347727272727273,
                "pitch": 62,
                "velocity": 40,
                "duration": 0.11818181818181905,
                "tempo": 120.0
            },
            {
                "start_time": 12.347727272727273,
                "end_time": 12.468181818181817,
                "pitch": 67,
                "velocity": 40,
                "duration": 0.12045454545454426,
                "tempo": 120.0
            },
            {
                "start_time": 12.468181818181817,
                "end_time": 12.6,
                "pitch": 74,
                "velocity": 40,
                "duration": 0.13181818181818272,
                "tempo": 120.0
            },
            {
                "start_time": 12.6,
                "end_time": 12.713636363636363,
                "pitch": 79,
                "velocity": 40,
                "duration": 0.11363636363636331,
                "tempo": 120.0
            },
            {
                "start_time": 12.713636363636363,
                "end_time": 12.829545454545453,
                "pitch": 50,
                "velocity": 40,
                "duration": 0.1159090909090903,
                "tempo": 120.0
            },
            {
                "start_time": 12.829545454545453,
                "end_time": 12.943181818181818,
                "pitch": 55,
                "velocity": 40,
                "duration": 0.11363636363636509,
                "tempo": 120.0
            },
            {
                "start_time": 12.943181818181818,
                "end_time": 13.061363636363636,
                "pitch": 62,
                "velocity": 40,
                "duration": 0.11818181818181728,
                "tempo": 120.0
            },
            {
                "start_time": 13.061363636363636,
                "end_time": 13.195454545454545,
                "pitch": 67,
                "velocity": 40,
                "duration": 0.1340909090909097,
                "tempo": 120.0
            },
            {
                "start_time": 13.197727272727272,
                "end_time": 13.313636363636363,
                "pitch": 62,
                "velocity": 40,
                "duration": 0.1159090909090903,
                "tempo": 120.0
            },
            {
                "start_time": 13.313636363636363,
                "end_time": 13.431818181818182,
                "pitch": 67,
                "velocity": 40,
                "duration": 0.11818181818181905,
                "tempo": 120.0
            },
            {
                "start_time": 13.431818181818182,
                "end_time": 13.547727272727272,
                "pitch": 74,
                "velocity": 40,
                "duration": 0.1159090909090903,
                "tempo": 120.0
            },
            {
                "start_time": 13.547727272727272,
                "end_time": 13.665909090909091,
                "pitch": 79,
                "velocity": 40,
                "duration": 0.11818181818181905,
                "tempo": 120.0
            },
            {
                "start_time": 13.665909090909091,
                "end_time": 13.797727272727272,
                "pitch": 50,
                "velocity": 40,
                "duration": 0.13181818181818095,
                "tempo": 120.0
            },
            {
                "start_time": 13.797727272727272,
                "end_time": 13.915909090909091,
                "pitch": 55,
                "velocity": 40,
                "duration": 0.11818181818181905,
                "tempo": 120.0
            },
            {
                "start_time": 13.915909090909091,
                "end_time": 14.036363636363635,
                "pitch": 62,
                "velocity": 40,
                "duration": 0.12045454545454426,
                "tempo": 120.0
            },
            {
                "start_time": 14.036363636363635,
                "end_time": 14.154545454545454,
                "pitch": 67,
                "velocity": 40,
                "duration": 0.11818181818181905,
                "tempo": 120.0
            },
            {
                "start_time": 14.154545454545454,
                "end_time": 14.274999999999999,
                "pitch": 62,
                "velocity": 40,
                "duration": 0.12045454545454426,
                "tempo": 120.0
            },
            {
                "start_time": 14.274999999999999,
                "end_time": 14.411363636363635,
                "pitch": 67,
                "velocity": 40,
                "duration": 0.1363636363636367,
                "tempo": 120.0
            },
            {
                "start_time": 14.411363636363635,
                "end_time": 14.529545454545454,
                "pitch": 74,
                "velocity": 40,
                "duration": 0.11818181818181905,
                "tempo": 120.0
            },
            {
                "start_time": 14.529545454545454,
                "end_time": 14.647727272727272,
                "pitch": 79,
                "velocity": 40,
                "duration": 0.11818181818181728,
                "tempo": 120.0
            },
            {
                "start_time": 14.647727272727272,
                "end_time": 14.763636363636364,
                "pitch": 50,
                "velocity": 40,
                "duration": 0.11590909090909207,
                "tempo": 120.0
            },
            {
                "start_time": 14.76590909090909,
                "end_time": 14.881818181818181,
                "pitch": 55,
                "velocity": 40,
                "duration": 0.1159090909090903,
                "tempo": 120.0
            },
            {
                "start_time": 14.884090909090908,
                "end_time": 15.013636363636364,
                "pitch": 62,
                "velocity": 40,
                "duration": 0.12954545454545574,
                "tempo": 120.0
            },
            {
                "start_time": 15.013636363636364,
                "end_time": 15.129545454545454,
                "pitch": 67,
                "velocity": 40,
                "duration": 0.1159090909090903,
                "tempo": 120.0
            },
            {
                "start_time": 15.129545454545454,
                "end_time": 15.243181818181817,
                "pitch": 62,
                "velocity": 40,
                "duration": 0.11363636363636331,
                "tempo": 120.0
            },
            {
                "start_time": 15.245454545454544,
                "end_time": 15.359090909090908,
                "pitch": 67,
                "velocity": 40,
                "duration": 0.11363636363636331,
                "tempo": 120.0
            },
            {
                "start_time": 15.359090909090908,
                "end_time": 15.479545454545454,
                "pitch": 81,
                "velocity": 40,
                "duration": 0.12045454545454604,
                "tempo": 120.0
            },
            {
                "start_time": 15.479545454545454,
                "end_time": 15.618181818181817,
                "pitch": 86,
                "velocity": 40,
                "duration": 0.13863636363636367,
                "tempo": 120.0
            },
            {
                "start_time": 15.620454545454544,
                "end_time": 15.74090909090909,
                "pitch": 57,
                "velocity": 40,
                "duration": 0.12045454545454604,
                "tempo": 120.0
            },
            {
                "start_time": 15.74090909090909,
                "end_time": 15.861363636363636,
                "pitch": 62,
                "velocity": 40,
                "duration": 0.12045454545454604,
                "tempo": 120.0
            },
            {
                "start_time": 15.861363636363636,
                "end_time": 15.977272727272727,
                "pitch": 69,
                "velocity": 40,
                "duration": 0.1159090909090903,
                "tempo": 120.0
            },
            {
                "start_time": 15.977272727272727,
                "end_time": 16.09090909090909,
                "pitch": 74,
                "velocity": 40,
                "duration": 0.11363636363636331,
                "tempo": 120.0
            },
            {
                "start_time": 16.09318181818182,
                "end_time": 16.222727272727273,
                "pitch": 69,
                "velocity": 40,
                "duration": 0.12954545454545396,
                "tempo": 120.0
            },
            {
                "start_time": 16.222727272727273,
                "end_time": 16.33863636363636,
                "pitch": 74,
                "velocity": 40,
                "duration": 0.11590909090908852,
                "tempo": 120.0
            },
            {
                "start_time": 16.33863636363636,
                "end_time": 16.456818181818182,
                "pitch": 81,
                "velocity": 40,
                "duration": 0.11818181818182083,
                "tempo": 120.0
            },
            {
                "start_time": 16.456818181818182,
                "end_time": 16.57272727272727,
                "pitch": 86,
                "velocity": 40,
                "duration": 0.11590909090908852,
                "tempo": 120.0
            },
            {
                "start_time": 16.57272727272727,
                "end_time": 16.69090909090909,
                "pitch": 57,
                "velocity": 40,
                "duration": 0.11818181818182083,
                "tempo": 120.0
            },
            {
                "start_time": 16.69090909090909,
                "end_time": 16.825,
                "pitch": 62,
                "velocity": 40,
                "duration": 0.13409090909090793,
                "tempo": 120.0
            },
            {
                "start_time": 16.827272727272728,
                "end_time": 16.943181818181817,
                "pitch": 69,
                "velocity": 40,
                "duration": 0.11590909090908852,
                "tempo": 120.0
            },
            {
                "start_time": 16.943181818181817,
                "end_time": 17.061363636363634,
                "pitch": 74,
                "velocity": 40,
                "duration": 0.11818181818181728,
                "tempo": 120.0
            },
            {
                "start_time": 17.061363636363634,
                "end_time": 17.179545454545455,
                "pitch": 69,
                "velocity": 40,
                "duration": 0.11818181818182083,
                "tempo": 120.0
            },
            {
                "start_time": 17.179545454545455,
                "end_time": 17.297727272727272,
                "pitch": 74,
                "velocity": 40,
                "duration": 0.11818181818181728,
                "tempo": 120.0
            },
            {
                "start_time": 17.297727272727272,
                "end_time": 17.427272727272726,
                "pitch": 81,
                "velocity": 40,
                "duration": 0.12954545454545396,
                "tempo": 120.0
            },
            {
                "start_time": 17.427272727272726,
                "end_time": 17.543181818181818,
                "pitch": 86,
                "velocity": 40,
                "duration": 0.11590909090909207,
                "tempo": 120.0
            },
            {
                "start_time": 17.543181818181818,
                "end_time": 17.659090909090907,
                "pitch": 57,
                "velocity": 40,
                "duration": 0.11590909090908852,
                "tempo": 120.0
            },
            {
                "start_time": 17.659090909090907,
                "end_time": 17.772727272727273,
                "pitch": 62,
                "velocity": 40,
                "duration": 0.11363636363636687,
                "tempo": 120.0
            },
            {
                "start_time": 17.775,
                "end_time": 17.893181818181816,
                "pitch": 69,
                "velocity": 40,
                "duration": 0.11818181818181728,
                "tempo": 120.0
            },
            {
                "start_time": 17.893181818181816,
                "end_time": 18.029545454545453,
                "pitch": 74,
                "velocity": 40,
                "duration": 0.1363636363636367,
                "tempo": 120.0
            },
            {
                "start_time": 18.029545454545453,
                "end_time": 18.15,
                "pitch": 69,
                "velocity": 40,
                "duration": 0.12045454545454604,
                "tempo": 120.0
            },
            {
                "start_time": 18.15,
                "end_time": 18.268181818181816,
                "pitch": 74,
                "velocity": 40,
                "duration": 0.11818181818181728,
                "tempo": 120.0
            },
            {
                "start_time": 18.268181818181816,
                "end_time": 18.386363636363637,
                "pitch": 81,
                "velocity": 40,
                "duration": 0.11818181818182083,
                "tempo": 120.0
            },
            {
                "start_time": 18.386363636363637,
                "end_time": 18.504545454545454,
                "pitch": 86,
                "velocity": 40,
                "duration": 0.11818181818181728,
                "tempo": 120.0
            },
            {
                "start_time": 18.504545454545454,
                "end_time": 18.638636363636362,
                "pitch": 57,
                "velocity": 40,
                "duration": 0.13409090909090793,
                "tempo": 120.0
            },
            {
                "start_time": 18.638636363636362,
                "end_time": 18.75681818181818,
                "pitch": 62,
                "velocity": 40,
                "duration": 0.11818181818181728,
                "tempo": 120.0
            },
            {
                "start_time": 18.75681818181818,
                "end_time": 18.87272727272727,
                "pitch": 69,
                "velocity": 40,
                "duration": 0.11590909090909207,
                "tempo": 120.0
            },
            {
                "start_time": 18.87272727272727,
                "end_time": 18.99090909090909,
                "pitch": 74,
                "velocity": 40,
                "duration": 0.11818181818181728,
                "tempo": 120.0
            },
            {
                "start_time": 18.99090909090909,
                "end_time": 19.10681818181818,
                "pitch": 69,
                "velocity": 40,
                "duration": 0.11590909090909207,
                "tempo": 120.0
            },
            {
                "start_time": 19.10681818181818,
                "end_time": 19.24090909090909,
                "pitch": 74,
                "velocity": 40,
                "duration": 0.13409090909090793,
                "tempo": 120.0
            },
            {
                "start_time": 19.24090909090909,
                "end_time": 19.35909090909091,
                "pitch": 78,
                "velocity": 40,
                "duration": 0.11818181818182083,
                "tempo": 120.0
            },
            {
                "start_time": 19.35909090909091,
                "end_time": 19.479545454545452,
                "pitch": 83,
                "velocity": 40,
                "duration": 0.12045454545454248,
                "tempo": 120.0
            },
            {
                "start_time": 19.479545454545452,
                "end_time": 19.599999999999998,
                "pitch": 54,
                "velocity": 40,
                "duration": 0.12045454545454604,
                "tempo": 120.0
            },
            {
                "start_time": 19.599999999999998,
                "end_time": 19.720454545454544,
                "pitch": 59,
                "velocity": 40,
                "duration": 0.12045454545454604,
                "tempo": 120.0
            },
            {
                "start_time": 19.720454545454544,
                "end_time": 19.849999999999998,
                "pitch": 66,
                "velocity": 40,
                "duration": 0.12954545454545396,
                "tempo": 120.0
            },
            {
                "start_time": 19.852272727272727,
                "end_time": 19.96590909090909,
                "pitch": 71,
                "velocity": 40,
                "duration": 0.11363636363636331,
                "tempo": 120.0
            },
            {
                "start_time": 19.96590909090909,
                "end_time": 20.081818181818182,
                "pitch": 66,
                "velocity": 40,
                "duration": 0.11590909090909207,
                "tempo": 120.0
            },
            {
                "start_time": 20.081818181818182,
                "end_time": 20.195454545454545,
                "pitch": 71,
                "velocity": 40,
                "duration": 0.11363636363636331,
                "tempo": 120.0
            },
            {
                "start_time": 20.195454545454545,
                "end_time": 20.313636363636363,
                "pitch": 78,
                "velocity": 40,
                "duration": 0.11818181818181728,
                "tempo": 120.0
            },
            {
                "start_time": 20.313636363636363,
                "end_time": 20.44772727272727,
                "pitch": 83,
                "velocity": 40,
                "duration": 0.13409090909090793,
                "tempo": 120.0
            },
            {
                "start_time": 20.44772727272727,
                "end_time": 20.56590909090909,
                "pitch": 54,
                "velocity": 40,
                "duration": 0.11818181818182083,
                "tempo": 120.0
            },
            {
                "start_time": 20.56590909090909,
                "end_time": 20.68409090909091,
                "pitch": 59,
                "velocity": 40,
                "duration": 0.11818181818181728,
                "tempo": 120.0
            },
            {
                "start_time": 20.68409090909091,
                "end_time": 20.802272727272726,
                "pitch": 66,
                "velocity": 40,
                "duration": 0.11818181818181728,
                "tempo": 120.0
            },
            {
                "start_time": 20.802272727272726,
                "end_time": 20.920454545454543,
                "pitch": 71,
                "velocity": 40,
                "duration": 0.11818181818181728,
                "tempo": 120.0
            },
            {
                "start_time": 20.920454545454543,
                "end_time": 21.054545454545455,
                "pitch": 66,
                "velocity": 40,
                "duration": 0.13409090909091148,
                "tempo": 120.0
            },
            {
                "start_time": 21.054545454545455,
                "end_time": 21.172727272727272,
                "pitch": 71,
                "velocity": 40,
                "duration": 0.11818181818181728,
                "tempo": 120.0
            },
            {
                "start_time": 21.172727272727272,
                "end_time": 21.29090909090909,
                "pitch": 78,
                "velocity": 40,
                "duration": 0.11818181818181728,
                "tempo": 120.0
            },
            {
                "start_time": 21.29090909090909,
                "end_time": 21.411363636363635,
                "pitch": 83,
                "velocity": 40,
                "duration": 0.12045454545454604,
                "tempo": 120.0
            },
            {
                "start_time": 21.411363636363635,
                "end_time": 21.529545454545453,
                "pitch": 54,
                "velocity": 40,
                "duration": 0.11818181818181728,
                "tempo": 120.0
            },
            {
                "start_time": 21.529545454545453,
                "end_time": 21.668181818181818,
                "pitch": 59,
                "velocity": 40,
                "duration": 0.13863636363636545,
                "tempo": 120.0
            },
            {
                "start_time": 21.668181818181818,
                "end_time": 21.784090909090907,
                "pitch": 66,
                "velocity": 40,
                "duration": 0.11590909090908852,
                "tempo": 120.0
            },
            {
                "start_time": 21.784090909090907,
                "end_time": 21.902272727272727,
                "pitch": 71,
                "velocity": 40,
                "duration": 0.11818181818182083,
                "tempo": 120.0
            },
            {
                "start_time": 21.902272727272727,
                "end_time": 22.020454545454545,
                "pitch": 66,
                "velocity": 40,
                "duration": 0.11818181818181728,
                "tempo": 120.0
            },
            {
                "start_time": 22.020454545454545,
                "end_time": 22.138636363636362,
                "pitch": 71,
                "velocity": 40,
                "duration": 0.11818181818181728,
                "tempo": 120.0
            },
            {
                "start_time": 22.138636363636362,
                "end_time": 22.270454545454545,
                "pitch": 78,
                "velocity": 40,
                "duration": 0.13181818181818272,
                "tempo": 120.0
            },
            {
                "start_time": 22.270454545454545,
                "end_time": 22.384090909090908,
                "pitch": 83,
                "velocity": 40,
                "duration": 0.11363636363636331,
                "tempo": 120.0
            },
            {
                "start_time": 22.384090909090908,
                "end_time": 22.5,
                "pitch": 54,
                "velocity": 40,
                "duration": 0.11590909090909207,
                "tempo": 120.0
            },
            {
                "start_time": 22.5,
                "end_time": 22.61590909090909,
                "pitch": 59,
                "velocity": 40,
                "duration": 0.11590909090908852,
                "tempo": 120.0
            },
            {
                "start_time": 22.61590909090909,
                "end_time": 22.73181818181818,
                "pitch": 66,
                "velocity": 40,
                "duration": 0.11590909090909207,
                "tempo": 120.0
            },
            {
                "start_time": 22.73181818181818,
                "end_time": 22.86590909090909,
                "pitch": 71,
                "velocity": 40,
                "duration": 0.13409090909090793,
                "tempo": 120.0
            },
            {
                "start_time": 22.86590909090909,
                "end_time": 22.98181818181818,
                "pitch": 66,
                "velocity": 40,
                "duration": 0.11590909090909207,
                "tempo": 120.0
            },
            {
                "start_time": 22.98181818181818,
                "end_time": 23.099999999999998,
                "pitch": 71,
                "velocity": 40,
                "duration": 0.11818181818181728,
                "tempo": 120.0
            },
            {
                "start_time": 23.099999999999998,
                "end_time": 23.21590909090909,
                "pitch": 74,
                "velocity": 40,
                "duration": 0.11590909090909207,
                "tempo": 120.0
            },
            {
                "start_time": 23.21590909090909,
                "end_time": 23.334090909090907,
                "pitch": 79,
                "velocity": 40,
                "duration": 0.11818181818181728,
                "tempo": 120.0
            },
            {
                "start_time": 23.334090909090907,
                "end_time": 23.46818181818182,
                "pitch": 50,
                "velocity": 40,
                "duration": 0.13409090909091148,
                "tempo": 120.0
            },
            {
                "start_time": 23.46818181818182,
                "end_time": 23.586363636363636,
                "pitch": 55,
                "velocity": 40,
                "duration": 0.11818181818181728,
                "tempo": 120.0
            },
            {
                "start_time": 23.586363636363636,
                "end_time": 23.706818181818182,
                "pitch": 62,
                "velocity": 40,
                "duration": 0.12045454545454604,
                "tempo": 120.0
            },
            {
                "start_time": 23.706818181818182,
                "end_time": 23.825,
                "pitch": 67,
                "velocity": 40,
                "duration": 0.11818181818181728,
                "tempo": 120.0
            },
            {
                "start_time": 23.825,
                "end_time": 23.945454545454545,
                "pitch": 62,
                "velocity": 40,
                "duration": 0.12045454545454604,
                "tempo": 120.0
            },
            {
                "start_time": 23.945454545454545,
                "end_time": 24.081818181818182,
                "pitch": 67,
                "velocity": 40,
                "duration": 0.1363636363636367,
                "tempo": 120.0
            },
            {
                "start_time": 24.081818181818182,
                "end_time": 24.2,
                "pitch": 74,
                "velocity": 40,
                "duration": 0.11818181818181728,
                "tempo": 120.0
            },
            {
                "start_time": 24.2,
                "end_time": 24.318181818181817,
                "pitch": 79,
                "velocity": 40,
                "duration": 0.11818181818181728,
                "tempo": 120.0
            },
            {
                "start_time": 24.318181818181817,
                "end_time": 24.436363636363634,
                "pitch": 50,
                "velocity": 40,
                "duration": 0.11818181818181728,
                "tempo": 120.0
            },
            {
                "start_time": 24.436363636363634,
                "end_time": 24.552272727272726,
                "pitch": 55,
                "velocity": 40,
                "duration": 0.11590909090909207,
                "tempo": 120.0
            },
            {
                "start_time": 24.552272727272726,
                "end_time": 24.68409090909091,
                "pitch": 62,
                "velocity": 40,
                "duration": 0.13181818181818272,
                "tempo": 120.0
            },
            {
                "start_time": 24.68409090909091,
                "end_time": 24.799999999999997,
                "pitch": 67,
                "velocity": 40,
                "duration": 0.11590909090908852,
                "tempo": 120.0
            },
            {
                "start_time": 24.799999999999997,
                "end_time": 24.913636363636364,
                "pitch": 62,
                "velocity": 40,
                "duration": 0.11363636363636687,
                "tempo": 120.0
            },
            {
                "start_time": 24.91590909090909,
                "end_time": 25.029545454545453,
                "pitch": 67,
                "velocity": 40,
                "duration": 0.11363636363636331,
                "tempo": 120.0
            },
            {
                "start_time": 25.029545454545453,
                "end_time": 25.145454545454545,
                "pitch": 74,
                "velocity": 40,
                "duration": 0.11590909090909207,
                "tempo": 120.0
            },
            {
                "start_time": 25.145454545454545,
                "end_time": 25.28181818181818,
                "pitch": 79,
                "velocity": 40,
                "duration": 0.1363636363636367,
                "tempo": 120.0
            },
            {
                "start_time": 25.28181818181818,
                "end_time": 25.4,
                "pitch": 50,
                "velocity": 40,
                "duration": 0.11818181818181728,
                "tempo": 120.0
            },
            {
                "start_time": 25.4,
                "end_time": 25.518181818181816,
                "pitch": 55,
                "velocity": 40,
                "duration": 0.11818181818181728,
                "tempo": 120.0
            },
            {
                "start_time": 25.518181818181816,
                "end_time": 25.636363636363637,
                "pitch": 62,
                "velocity": 40,
                "duration": 0.11818181818182083,
                "tempo": 120.0
            },
            {
                "start_time": 25.636363636363637,
                "end_time": 25.75681818181818,
                "pitch": 67,
                "velocity": 40,
                "duration": 0.12045454545454248,
                "tempo": 120.0
            },
            {
                "start_time": 25.75681818181818,
                "end_time": 25.893181818181816,
                "pitch": 62,
                "velocity": 40,
                "duration": 0.1363636363636367,
                "tempo": 120.0
            },
            {
                "start_time": 25.893181818181816,
                "end_time": 26.013636363636362,
                "pitch": 67,
                "velocity": 40,
                "duration": 0.12045454545454604,
                "tempo": 120.0
            },
            {
                "start_time": 26.013636363636362,
                "end_time": 26.13181818181818,
                "pitch": 74,
                "velocity": 40,
                "duration": 0.11818181818181728,
                "tempo": 120.0
            },
            {
                "start_time": 26.13181818181818,
                "end_time": 26.24772727272727,
                "pitch": 79,
                "velocity": 40,
                "duration": 0.11590909090909207,
                "tempo": 120.0
            },
            {
                "start_time": 26.24772727272727,
                "end_time": 26.36590909090909,
                "pitch": 50,
                "velocity": 40,
                "duration": 0.11818181818181728,
                "tempo": 120.0
            },
            {
                "start_time": 26.36590909090909,
                "end_time": 26.502272727272725,
                "pitch": 55,
                "velocity": 40,
                "duration": 0.1363636363636367,
                "tempo": 120.0
            },
            {
                "start_time": 26.502272727272725,
                "end_time": 26.620454545454542,
                "pitch": 62,
                "velocity": 40,
                "duration": 0.11818181818181728,
                "tempo": 120.0
            },
            {
                "start_time": 26.620454545454542,
                "end_time": 26.74090909090909,
                "pitch": 67,
                "velocity": 40,
                "duration": 0.12045454545454604,
                "tempo": 120.0
            },
            {
                "start_time": 26.74090909090909,
                "end_time": 26.85909090909091,
                "pitch": 62,
                "velocity": 40,
                "duration": 0.11818181818182083,
                "tempo": 120.0
            },
            {
                "start_time": 26.861363636363635,
                "end_time": 26.979545454545452,
                "pitch": 67,
                "velocity": 40,
                "duration": 0.11818181818181728,
                "tempo": 120.0
            },
            {
                "start_time": 26.979545454545452,
                "end_time": 27.10681818181818,
                "pitch": 76,
                "velocity": 40,
                "duration": 0.12727272727272876,
                "tempo": 120.0
            },
            {
                "start_time": 27.10681818181818,
                "end_time": 27.220454545454544,
                "pitch": 81,
                "velocity": 40,
                "duration": 0.11363636363636331,
                "tempo": 120.0
            },
            {
                "start_time": 27.220454545454544,
                "end_time": 27.331818181818182,
                "pitch": 52,
                "velocity": 40,
                "duration": 0.11136363636363811,
                "tempo": 120.0
            },
            {
                "start_time": 27.331818181818182,
                "end_time": 27.445454545454545,
                "pitch": 57,
                "velocity": 40,
                "duration": 0.11363636363636331,
                "tempo": 120.0
            },
            {
                "start_time": 27.445454545454545,
                "end_time": 27.563636363636363,
                "pitch": 64,
                "velocity": 40,
                "duration": 0.11818181818181728,
                "tempo": 120.0
            },
            {
                "start_time": 27.563636363636363,
                "end_time": 27.7,
                "pitch": 69,
                "velocity": 40,
                "duration": 0.1363636363636367,
                "tempo": 120.0
            },
            {
                "start_time": 27.702272727272724,
                "end_time": 27.820454545454545,
                "pitch": 64,
                "velocity": 40,
                "duration": 0.11818181818182083,
                "tempo": 120.0
            },
            {
                "start_time": 27.820454545454545,
                "end_time": 27.940909090909088,
                "pitch": 69,
                "velocity": 40,
                "duration": 0.12045454545454248,
                "tempo": 120.0
            },
            {
                "start_time": 27.940909090909088,
                "end_time": 28.05909090909091,
                "pitch": 76,
                "velocity": 40,
                "duration": 0.11818181818182083,
                "tempo": 120.0
            },
            {
                "start_time": 28.05909090909091,
                "end_time": 28.174999999999997,
                "pitch": 81,
                "velocity": 40,
                "duration": 0.11590909090908852,
                "tempo": 120.0
            },
            {
                "start_time": 28.174999999999997,
                "end_time": 28.311363636363634,
                "pitch": 52,
                "velocity": 40,
                "duration": 0.1363636363636367,
                "tempo": 120.0
            },
            {
                "start_time": 28.311363636363634,
                "end_time": 28.427272727272726,
                "pitch": 57,
                "velocity": 40,
                "duration": 0.11590909090909207,
                "tempo": 120.0
            },
            {
                "start_time": 28.427272727272726,
                "end_time": 28.547727272727272,
                "pitch": 64,
                "velocity": 40,
                "duration": 0.12045454545454604,
                "tempo": 120.0
            },
            {
                "start_time": 28.547727272727272,
                "end_time": 28.668181818181818,
                "pitch": 69,
                "velocity": 40,
                "duration": 0.12045454545454604,
                "tempo": 120.0
            },
            {
                "start_time": 28.668181818181818,
                "end_time": 28.786363636363635,
                "pitch": 64,
                "velocity": 40,
                "duration": 0.11818181818181728,
                "tempo": 120.0
            },
            {
                "start_time": 28.786363636363635,
                "end_time": 28.924999999999997,
                "pitch": 69,
                "velocity": 40,
                "duration": 0.1386363636363619,
                "tempo": 120.0
            },
            {
                "start_time": 28.924999999999997,
                "end_time": 29.04090909090909,
                "pitch": 76,
                "velocity": 40,
                "duration": 0.11590909090909207,
                "tempo": 120.0
            },
            {
                "start_time": 29.04090909090909,
                "end_time": 29.159090909090907,
                "pitch": 81,
                "velocity": 40,
                "duration": 0.11818181818181728,
                "tempo": 120.0
            },
            {
                "start_time": 29.159090909090907,
                "end_time": 29.277272727272727,
                "pitch": 52,
                "velocity": 40,
                "duration": 0.11818181818182083,
                "tempo": 120.0
            },
            {
                "start_time": 29.277272727272727,
                "end_time": 29.395454545454545,
                "pitch": 57,
                "velocity": 40,
                "duration": 0.11818181818181728,
                "tempo": 120.0
            },
            {
                "start_time": 29.395454545454545,
                "end_time": 29.527272727272727,
                "pitch": 64,
                "velocity": 40,
                "duration": 0.13181818181818272,
                "tempo": 120.0
            },
            {
                "start_time": 29.527272727272727,
                "end_time": 29.64090909090909,
                "pitch": 69,
                "velocity": 40,
                "duration": 0.11363636363636331,
                "tempo": 120.0
            },
            {
                "start_time": 29.64090909090909,
                "end_time": 29.75681818181818,
                "pitch": 64,
                "velocity": 40,
                "duration": 0.11590909090908852,
                "tempo": 120.0
            },
            {
                "start_time": 29.75681818181818,
                "end_time": 29.870454545454542,
                "pitch": 69,
                "velocity": 40,
                "duration": 0.11363636363636331,
                "tempo": 120.0
            },
            {
                "start_time": 29.870454545454542,
                "end_time": 29.988636363636363,
                "pitch": 76,
                "velocity": 40,
                "duration": 0.11818181818182083,
                "tempo": 120.0
            },
            {
                "start_time": 29.988636363636363,
                "end_time": 30.12272727272727,
                "pitch": 81,
                "velocity": 40,
                "duration": 0.13409090909090793,
                "tempo": 120.0
            },
            {
                "start_time": 30.12272727272727,
                "end_time": 30.24090909090909,
                "pitch": 52,
                "velocity": 40,
                "duration": 0.11818181818181728,
                "tempo": 120.0
            },
            {
                "start_time": 30.24090909090909,
                "end_time": 30.35909090909091,
                "pitch": 57,
                "velocity": 40,
                "duration": 0.11818181818182083,
                "tempo": 120.0
            },
            {
                "start_time": 30.35909090909091,
                "end_time": 30.479545454545452,
                "pitch": 64,
                "velocity": 40,
                "duration": 0.12045454545454248,
                "tempo": 120.0
            },
            {
                "start_time": 30.479545454545452,
                "end_time": 30.597727272727273,
                "pitch": 69,
                "velocity": 40,
                "duration": 0.11818181818182083,
                "tempo": 120.0
            },
            {
                "start_time": 30.599999999999998,
                "end_time": 30.736363636363635,
                "pitch": 64,
                "velocity": 40,
                "duration": 0.1363636363636367,
                "tempo": 120.0
            },
            {
                "start_time": 30.736363636363635,
                "end_time": 30.854545454545452,
                "pitch": 69,
                "velocity": 40,
                "duration": 0.11818181818181728,
                "tempo": 120.0
            }
        ],
        "Church Organ": [
            {
                "start_time": 0.004545454545454545,
                "end_time": 3.7727272727272725,
                "pitch": 67,
                "velocity": 80,
                "duration": 3.768181818181818,
                "tempo": 120.0
            },
            {
                "start_time": 3.775,
                "end_time": 7.631818181818182,
                "pitch": 64,
                "velocity": 80,
                "duration": 3.856818181818182,
                "tempo": 120.0
            },
            {
                "start_time": 7.631818181818182,
                "end_time": 11.506818181818181,
                "pitch": 60,
                "velocity": 80,
                "duration": 3.874999999999999,
                "tempo": 120.0
            },
            {
                "start_time": 11.506818181818181,
                "end_time": 15.361363636363636,
                "pitch": 62,
                "velocity": 80,
                "duration": 3.8545454545454554,
                "tempo": 120.0
            },
            {
                "start_time": 15.361363636363636,
                "end_time": 19.24090909090909,
                "pitch": 69,
                "velocity": 80,
                "duration": 3.879545454545452,
                "tempo": 120.0
            },
            {
                "start_time": 19.243181818181817,
                "end_time": 23.099999999999998,
                "pitch": 66,
                "velocity": 80,
                "duration": 3.8568181818181806,
                "tempo": 120.0
            },
            {
                "start_time": 23.099999999999998,
                "end_time": 26.979545454545452,
                "pitch": 62,
                "velocity": 80,
                "duration": 3.879545454545454,
                "tempo": 120.0
            },
            {
                "start_time": 26.979545454545452,
                "end_time": 30.854545454545452,
                "pitch": 64,
                "velocity": 80,
                "duration": 3.875,
                "tempo": 120.0
            }
        ]
    }
}