{
    "track_id": "12 Red Zone (Area 6)",
    "mood": "angry",
    "instruments": {
        "Acoustic Bass": [
            {
                "start_time": 0.01818181818181818,
                "end_time": 0.22272727272727272,
                "pitch": 37,
                "velocity": 101,
                "duration": 0.20454545454545453,
                "tempo": 120.0
            },
            {
                "start_time": 0.22272727272727272,
                "end_time": 0.42272727272727273,
                "pitch": 37,
                "velocity": 101,
                "duration": 0.2,
                "tempo": 120.0
            },
            {
                "start_time": 0.42272727272727273,
                "end_time": 0.6409090909090909,
                "pitch": 37,
                "velocity": 101,
                "duration": 0.21818181818181814,
                "tempo": 120.0
            },
            {
                "start_time": 0.6409090909090909,
                "end_time": 0.8363636363636363,
                "pitch": 38,
                "velocity": 101,
                "duration": 0.19545454545454544,
                "tempo": 120.0
            },
            {
                "start_time": 0.8363636363636363,
                "end_time": 1.0477272727272726,
                "pitch": 38,
                "velocity": 101,
                "duration": 0.2113636363636363,
                "tempo": 120.0
            },
            {
                "start_time": 1.0477272727272726,
                "end_time": 1.2477272727272726,
                "pitch": 37,
                "velocity": 101,
                "duration": 0.19999999999999996,
                "tempo": 120.0
            },
            {
                "start_time": 1.2477272727272726,
                "end_time": 1.4659090909090908,
                "pitch": 37,
                "velocity": 101,
                "duration": 0.21818181818181825,
                "tempo": 120.0
            },
            {
                "start_time": 1.4659090909090908,
                "end_time": 1.6613636363636364,
                "pitch": 38,
                "velocity": 101,
                "duration": 0.19545454545454555,
                "tempo": 120.0
            },
            {
                "start_time": 1.6613636363636364,
                "end_time": 1.8704545454545454,
                "pitch": 38,
                "velocity": 101,
                "duration": 0.209090909090909,
                "tempo": 120.0
            },
            {
                "start_time": 1.8704545454545454,
                "end_time": 2.0727272727272728,
                "pitch": 37,
                "velocity": 101,
                "duration": 0.20227272727272738,
                "tempo": 120.0
            },
            {
                "start_time": 2.0727272727272728,
                "end_time": 2.2886363636363636,
                "pitch": 37,
                "velocity": 101,
                "duration": 0.21590909090909083,
                "tempo": 120.0
            },
            {
                "start_time": 2.2886363636363636,
                "end_time": 2.484090909090909,
                "pitch": 38,
                "velocity": 101,
                "duration": 0.19545454545454533,
                "tempo": 120.0
            },
            {
                "start_time": 2.484090909090909,
                "end_time": 2.6954545454545453,
                "pitch": 38,
                "velocity": 101,
                "duration": 0.21136363636363642,
                "tempo": 120.0
            },
            {
                "start_time": 2.6954545454545453,
                "end_time": 2.8954545454545455,
                "pitch": 37,
                "velocity": 101,
                "duration": 0.20000000000000018,
                "tempo": 120.0
            },
            {
                "start_time": 2.8954545454545455,
                "end_time": 3.1136363636363633,
                "pitch": 37,
                "velocity": 101,
                "duration": 0.2181818181818178,
                "tempo": 120.0
            },
            {
                "start_time": 3.1136363636363633,
                "end_time": 3.309090909090909,
                "pitch": 38,
                "velocity": 101,
                "duration": 0.19545454545454577,
                "tempo": 120.0
            },
            {
                "start_time": 3.309090909090909,
                "end_time": 3.5204545454545455,
                "pitch": 38,
                "velocity": 101,
                "duration": 0.21136363636363642,
                "tempo": 120.0
            },
            {
                "start_time": 3.5204545454545455,
                "end_time": 3.7204545454545452,
                "pitch": 37,
                "velocity": 101,
                "duration": 0.19999999999999973,
                "tempo": 120.0
            },
            {
                "start_time": 3.7204545454545452,
                "end_time": 3.9386363636363635,
                "pitch": 37,
                "velocity": 101,
                "duration": 0.21818181818181825,
                "tempo": 120.0
            },
            {
                "start_time": 3.9386363636363635,
                "end_time": 4.131818181818182,
                "pitch": 38,
                "velocity": 101,
                "duration": 0.19318181818181834,
                "tempo": 120.0
            },
            {
                "start_time": 4.131818181818182,
                "end_time": 4.343181818181818,
                "pitch": 38,
                "velocity": 101,
                "duration": 0.21136363636363598,
                "tempo": 120.0
            },
            {
                "start_time": 4.343181818181818,
                "end_time": 4.545454545454545,
                "pitch": 37,
                "velocity": 101,
                "duration": 0.20227272727272716,
                "tempo": 120.0
            },
            {
                "start_time": 4.545454545454545,
                "end_time": 4.761363636363636,
                "pitch": 37,
                "velocity": 101,
                "duration": 0.21590909090909083,
                "tempo": 120.0
            },
            {
                "start_time": 4.761363636363636,
                "end_time": 4.963636363636363,
                "pitch": 38,
                "velocity": 101,
                "duration": 0.20227272727272716,
                "tempo": 120.0
            },
            {
                "start_time": 4.963636363636363,
                "end_time": 5.179545454545455,
                "pitch": 38,
                "velocity": 101,
                "duration": 0.21590909090909172,
                "tempo": 120.0
            },
            {
                "start_time": 5.179545454545455,
                "end_time": 5.375,
                "pitch": 37,
                "velocity": 101,
                "duration": 0.19545454545454533,
                "tempo": 120.0
            },
            {
                "start_time": 5.375,
                "end_time": 5.586363636363636,
                "pitch": 37,
                "velocity": 101,
                "duration": 0.21136363636363598,
                "tempo": 120.0
            },
            {
                "start_time": 5.586363636363636,
                "end_time": 5.786363636363636,
                "pitch": 38,
                "velocity": 101,
                "duration": 0.20000000000000018,
                "tempo": 120.0
            },
            {
                "start_time": 5.786363636363636,
                "end_time": 6.004545454545454,
                "pitch": 38,
                "velocity": 101,
                "duration": 0.2181818181818178,
                "tempo": 120.0
            },
            {
                "start_time": 6.004545454545454,
                "end_time": 6.199999999999999,
                "pitch": 37,
                "velocity": 101,
                "duration": 0.19545454545454533,
                "tempo": 120.0
            },
            {
                "start_time": 6.199999999999999,
                "end_time": 6.411363636363636,
                "pitch": 37,
                "velocity": 101,
                "duration": 0.21136363636363686,
                "tempo": 120.0
            },
            {
                "start_time": 6.411363636363636,
                "end_time": 6.611363636363636,
                "pitch": 38,
                "velocity": 101,
                "duration": 0.20000000000000018,
                "tempo": 120.0
            },
            {
                "start_time": 6.611363636363636,
                "end_time": 6.829545454545454,
                "pitch": 34,
                "velocity": 101,
                "duration": 0.2181818181818178,
                "tempo": 120.0
            },
            {
                "start_time": 6.829545454545454,
                "end_time": 7.029545454545454,
                "pitch": 34,
                "velocity": 101,
                "duration": 0.20000000000000018,
                "tempo": 120.0
            },
            {
                "start_time": 7.029545454545454,
                "end_time": 7.247727272727272,
                "pitch": 34,
                "velocity": 101,
                "duration": 0.2181818181818178,
                "tempo": 120.0
            },
            {
                "start_time": 7.247727272727272,
                "end_time": 7.4409090909090905,
                "pitch": 35,
                "velocity": 101,
                "duration": 0.19318181818181834,
                "tempo": 120.0
            },
            {
                "start_time": 7.4409090909090905,
                "end_time": 7.652272727272727,
                "pitch": 35,
                "velocity": 101,
                "duration": 0.21136363636363686,
                "tempo": 120.0
            },
            {
                "start_time": 7.652272727272727,
                "end_time": 7.847727272727273,
                "pitch": 34,
                "velocity": 101,
                "duration": 0.19545454545454533,
                "tempo": 120.0
            },
            {
                "start_time": 7.847727272727273,
                "end_time": 8.059090909090909,
                "pitch": 34,
                "velocity": 101,
                "duration": 0.21136363636363598,
                "tempo": 120.0
            },
            {
                "start_time": 8.059090909090909,
                "end_time": 8.261363636363637,
                "pitch": 35,
                "velocity": 101,
                "duration": 0.20227272727272805,
                "tempo": 120.0
            },
            {
                "start_time": 8.261363636363637,
                "end_time": 8.461363636363636,
                "pitch": 35,
                "velocity": 101,
                "duration": 0.1999999999999993,
                "tempo": 120.0
            },
            {
                "start_time": 8.461363636363636,
                "end_time": 8.668181818181818,
                "pitch": 34,
                "velocity": 101,
                "duration": 0.206818181818182,
                "tempo": 120.0
            },
            {
                "start_time": 8.668181818181818,
                "end_time": 8.85681818181818,
                "pitch": 34,
                "velocity": 101,
                "duration": 0.1886363636363626,
                "tempo": 120.0
            },
            {
                "start_time": 8.85681818181818,
                "end_time": 9.068181818181818,
                "pitch": 35,
                "velocity": 101,
                "duration": 0.21136363636363775,
                "tempo": 120.0
            },
            {
                "start_time": 9.068181818181818,
                "end_time": 9.263636363636364,
                "pitch": 35,
                "velocity": 101,
                "duration": 0.19545454545454533,
                "tempo": 120.0
            },
            {
                "start_time": 9.263636363636364,
                "end_time": 9.479545454545454,
                "pitch": 34,
                "velocity": 101,
                "duration": 0.21590909090908994,
                "tempo": 120.0
            },
            {
                "start_time": 9.479545454545454,
                "end_time": 9.681818181818182,
                "pitch": 34,
                "velocity": 101,
                "duration": 0.20227272727272805,
                "tempo": 120.0
            },
            {
                "start_time": 9.681818181818182,
                "end_time": 9.9,
                "pitch": 35,
                "velocity": 101,
                "duration": 0.2181818181818187,
                "tempo": 120.0
            },
            {
                "start_time": 9.9,
                "end_time": 10.1,
                "pitch": 35,
                "velocity": 101,
                "duration": 0.1999999999999993,
                "tempo": 120.0
            },
            {
                "start_time": 10.1,
                "end_time": 10.31590909090909,
                "pitch": 34,
                "velocity": 101,
                "duration": 0.21590909090908994,
                "tempo": 120.0
            },
            {
                "start_time": 10.31590909090909,
                "end_time": 10.51590909090909,
                "pitch": 34,
                "velocity": 101,
                "duration": 0.20000000000000107,
                "tempo": 120.0
            },
            {
                "start_time": 10.51590909090909,
                "end_time": 10.729545454545454,
                "pitch": 35,
                "velocity": 101,
                "duration": 0.21363636363636296,
                "tempo": 120.0
            },
            {
                "start_time": 10.729545454545454,
                "end_time": 10.922727272727272,
                "pitch": 35,
                "velocity": 101,
                "duration": 0.19318181818181834,
                "tempo": 120.0
            },
            {
                "start_time": 10.922727272727272,
                "end_time": 11.136363636363637,
                "pitch": 34,
                "velocity": 101,
                "duration": 0.21363636363636473,
                "tempo": 120.0
            },
            {
                "start_time": 11.136363636363637,
                "end_time": 11.329545454545453,
                "pitch": 34,
                "velocity": 101,
                "duration": 0.19318181818181657,
                "tempo": 120.0
            },
            {
                "start_time": 11.329545454545453,
                "end_time": 11.540909090909091,
                "pitch": 35,
                "velocity": 101,
                "duration": 0.21136363636363775,
                "tempo": 120.0
            },
            {
                "start_time": 11.540909090909091,
                "end_time": 11.736363636363636,
                "pitch": 35,
                "velocity": 101,
                "duration": 0.19545454545454533,
                "tempo": 120.0
            },
            {
                "start_time": 11.736363636363636,
                "end_time": 11.959090909090909,
                "pitch": 34,
                "velocity": 101,
                "duration": 0.22272727272727266,
                "tempo": 120.0
            },
            {
                "start_time": 11.959090909090909,
                "end_time": 12.163636363636362,
                "pitch": 34,
                "velocity": 101,
                "duration": 0.20454545454545325,
                "tempo": 120.0
            },
            {
                "start_time": 12.163636363636362,
                "end_time": 12.375,
                "pitch": 35,
                "velocity": 101,
                "duration": 0.21136363636363775,
                "tempo": 120.0
            },
            {
                "start_time": 12.375,
                "end_time": 12.570454545454545,
                "pitch": 35,
                "velocity": 101,
                "duration": 0.19545454545454533,
                "tempo": 120.0
            },
            {
                "start_time": 12.570454545454545,
                "end_time": 12.781818181818181,
                "pitch": 34,
                "velocity": 101,
                "duration": 0.21136363636363598,
                "tempo": 120.0
            },
            {
                "start_time": 12.781818181818181,
                "end_time": 12.977272727272727,
                "pitch": 34,
                "velocity": 101,
                "duration": 0.19545454545454533,
                "tempo": 120.0
            },
            {
                "start_time": 12.977272727272727,
                "end_time": 13.193181818181818,
                "pitch": 35,
                "velocity": 101,
                "duration": 0.21590909090909172,
                "tempo": 120.0
            },
            {
                "start_time": 13.193181818181818,
                "end_time": 13.393181818181818,
                "pitch": 37,
                "velocity": 101,
                "duration": 0.1999999999999993,
                "tempo": 120.0
            },
            {
                "start_time": 13.393181818181818,
                "end_time": 13.611363636363636,
                "pitch": 37,
                "velocity": 101,
                "duration": 0.2181818181818187,
                "tempo": 120.0
            },
            {
                "start_time": 13.611363636363636,
                "end_time": 13.811363636363636,
                "pitch": 37,
                "velocity": 101,
                "duration": 0.1999999999999993,
                "tempo": 120.0
            },
            {
                "start_time": 6.611363636363636,
                "end_time": 14.022727272727272,
                "pitch": 38,
                "velocity": 101,
                "duration": 7.411363636363635,
                "tempo": 120.0
            },
            {
                "start_time": 13.811363636363636,
                "end_time": 14.022727272727272,
                "pitch": 38,
                "velocity": 101,
                "duration": 0.21136363636363598,
                "tempo": 120.0
            },
            {
                "start_time": 14.022727272727272,
                "end_time": 14.218181818181817,
                "pitch": 38,
                "velocity": 101,
                "duration": 0.19545454545454533,
                "tempo": 120.0
            },
            {
                "start_time": 14.218181818181817,
                "end_time": 14.429545454545455,
                "pitch": 37,
                "velocity": 101,
                "duration": 0.21136363636363775,
                "tempo": 120.0
            },
            {
                "start_time": 14.429545454545455,
                "end_time": 14.625,
                "pitch": 37,
                "velocity": 101,
                "duration": 0.19545454545454533,
                "tempo": 120.0
            },
            {
                "start_time": 14.625,
                "end_time": 14.843181818181817,
                "pitch": 38,
                "velocity": 101,
                "duration": 0.21818181818181692,
                "tempo": 120.0
            },
            {
                "start_time": 14.843181818181817,
                "end_time": 15.043181818181818,
                "pitch": 38,
                "velocity": 101,
                "duration": 0.20000000000000107,
                "tempo": 120.0
            },
            {
                "start_time": 15.043181818181818,
                "end_time": 15.261363636363635,
                "pitch": 37,
                "velocity": 101,
                "duration": 0.21818181818181692,
                "tempo": 120.0
            },
            {
                "start_time": 15.261363636363635,
                "end_time": 15.461363636363636,
                "pitch": 37,
                "velocity": 101,
                "duration": 0.20000000000000107,
                "tempo": 120.0
            },
            {
                "start_time": 15.461363636363636,
                "end_time": 15.672727272727272,
                "pitch": 38,
                "velocity": 101,
                "duration": 0.21136363636363598,
                "tempo": 120.0
            },
            {
                "start_time": 15.672727272727272,
                "end_time": 15.868181818181817,
                "pitch": 38,
                "velocity": 101,
                "duration": 0.19545454545454533,
                "tempo": 120.0
            },
            {
                "start_time": 15.868181818181817,
                "end_time": 16.079545454545453,
                "pitch": 37,
                "velocity": 101,
                "duration": 0.21136363636363598,
                "tempo": 120.0
            },
            {
                "start_time": 16.079545454545453,
                "end_time": 16.275,
                "pitch": 37,
                "velocity": 101,
                "duration": 0.19545454545454533,
                "tempo": 120.0
            },
            {
                "start_time": 16.275,
                "end_time": 16.49090909090909,
                "pitch": 38,
                "velocity": 101,
                "duration": 0.21590909090908994,
                "tempo": 120.0
            },
            {
                "start_time": 16.49090909090909,
                "end_time": 16.69090909090909,
                "pitch": 38,
                "velocity": 101,
                "duration": 0.20000000000000284,
                "tempo": 120.0
            },
            {
                "start_time": 16.69090909090909,
                "end_time": 16.886363636363637,
                "pitch": 37,
                "velocity": 101,
                "duration": 0.19545454545454533,
                "tempo": 120.0
            },
            {
                "start_time": 16.886363636363637,
                "end_time": 17.097727272727273,
                "pitch": 37,
                "velocity": 101,
                "duration": 0.21136363636363598,
                "tempo": 120.0
            },
            {
                "start_time": 17.097727272727273,
                "end_time": 17.3,
                "pitch": 38,
                "velocity": 101,
                "duration": 0.20227272727272805,
                "tempo": 120.0
            },
            {
                "start_time": 17.3,
                "end_time": 17.51590909090909,
                "pitch": 38,
                "velocity": 101,
                "duration": 0.21590909090908994,
                "tempo": 120.0
            },
            {
                "start_time": 17.51590909090909,
                "end_time": 17.711363636363636,
                "pitch": 37,
                "velocity": 101,
                "duration": 0.19545454545454533,
                "tempo": 120.0
            },
            {
                "start_time": 17.711363636363636,
                "end_time": 17.922727272727272,
                "pitch": 37,
                "velocity": 101,
                "duration": 0.21136363636363598,
                "tempo": 120.0
            },
            {
                "start_time": 17.922727272727272,
                "end_time": 18.125,
                "pitch": 38,
                "velocity": 101,
                "duration": 0.20227272727272805,
                "tempo": 120.0
            },
            {
                "start_time": 18.125,
                "end_time": 18.34090909090909,
                "pitch": 38,
                "velocity": 101,
                "duration": 0.21590909090908994,
                "tempo": 120.0
            },
            {
                "start_time": 18.34090909090909,
                "end_time": 18.536363636363635,
                "pitch": 37,
                "velocity": 101,
                "duration": 0.19545454545454533,
                "tempo": 120.0
            },
            {
                "start_time": 18.536363636363635,
                "end_time": 18.74772727272727,
                "pitch": 37,
                "velocity": 101,
                "duration": 0.21136363636363598,
                "tempo": 120.0
            },
            {
                "start_time": 18.74772727272727,
                "end_time": 18.94772727272727,
                "pitch": 38,
                "velocity": 101,
                "duration": 0.1999999999999993,
                "tempo": 120.0
            },
            {
                "start_time": 18.94772727272727,
                "end_time": 19.16590909090909,
                "pitch": 38,
                "velocity": 101,
                "duration": 0.2181818181818187,
                "tempo": 120.0
            },
            {
                "start_time": 19.16590909090909,
                "end_time": 19.36590909090909,
                "pitch": 37,
                "velocity": 101,
                "duration": 0.1999999999999993,
                "tempo": 120.0
            },
            {
                "start_time": 19.36590909090909,
                "end_time": 19.584090909090907,
                "pitch": 37,
                "velocity": 101,
                "duration": 0.2181818181818187,
                "tempo": 120.0
            },
            {
                "start_time": 19.584090909090907,
                "end_time": 19.779545454545453,
                "pitch": 38,
                "velocity": 101,
                "duration": 0.19545454545454533,
                "tempo": 120.0
            },
            {
                "start_time": 19.779545454545453,
                "end_time": 19.988636363636363,
                "pitch": 34,
                "velocity": 101,
                "duration": 0.20909090909091077,
                "tempo": 120.0
            },
            {
                "start_time": 19.988636363636363,
                "end_time": 20.19090909090909,
                "pitch": 34,
                "velocity": 101,
                "duration": 0.20227272727272805,
                "tempo": 120.0
            },
            {
                "start_time": 20.19090909090909,
                "end_time": 20.40681818181818,
                "pitch": 34,
                "velocity": 101,
                "duration": 0.21590909090908994,
                "tempo": 120.0
            },
            {
                "start_time": 13.193181818181818,
                "end_time": 20.602272727272727,
                "pitch": 35,
                "velocity": 101,
                "duration": 7.409090909090908,
                "tempo": 120.0
            },
            {
                "start_time": 20.40681818181818,
                "end_time": 20.602272727272727,
                "pitch": 35,
                "velocity": 101,
                "duration": 0.19545454545454533,
                "tempo": 120.0
            },
            {
                "start_time": 20.602272727272727,
                "end_time": 20.813636363636363,
                "pitch": 35,
                "velocity": 101,
                "duration": 0.21136363636363598,
                "tempo": 120.0
            },
            {
                "start_time": 20.813636363636363,
                "end_time": 21.013636363636362,
                "pitch": 34,
                "velocity": 101,
                "duration": 0.1999999999999993,
                "tempo": 120.0
            },
            {
                "start_time": 21.013636363636362,
                "end_time": 21.23181818181818,
                "pitch": 34,
                "velocity": 101,
                "duration": 0.2181818181818187,
                "tempo": 120.0
            },
            {
                "start_time": 21.23181818181818,
                "end_time": 21.43181818181818,
                "pitch": 35,
                "velocity": 101,
                "duration": 0.1999999999999993,
                "tempo": 120.0
            },
            {
                "start_time": 21.43181818181818,
                "end_time": 21.65,
                "pitch": 35,
                "velocity": 101,
                "duration": 0.2181818181818187,
                "tempo": 120.0
            },
            {
                "start_time": 21.65,
                "end_time": 21.845454545454544,
                "pitch": 34,
                "velocity": 101,
                "duration": 0.19545454545454533,
                "tempo": 120.0
            },
            {
                "start_time": 21.845454545454544,
                "end_time": 22.05681818181818,
                "pitch": 34,
                "velocity": 101,
                "duration": 0.21136363636363598,
                "tempo": 120.0
            },
            {
                "start_time": 22.05681818181818,
                "end_time": 22.25681818181818,
                "pitch": 35,
                "velocity": 101,
                "duration": 0.1999999999999993,
                "tempo": 120.0
            },
            {
                "start_time": 22.25681818181818,
                "end_time": 22.474999999999998,
                "pitch": 35,
                "velocity": 101,
                "duration": 0.2181818181818187,
                "tempo": 120.0
            },
            {
                "start_time": 22.474999999999998,
                "end_time": 22.668181818181818,
                "pitch": 34,
                "velocity": 101,
                "duration": 0.19318181818182012,
                "tempo": 120.0
            },
            {
                "start_time": 22.668181818181818,
                "end_time": 22.88181818181818,
                "pitch": 34,
                "velocity": 101,
                "duration": 0.21363636363636118,
                "tempo": 120.0
            },
            {
                "start_time": 22.88181818181818,
                "end_time": 23.081818181818182,
                "pitch": 35,
                "velocity": 101,
                "duration": 0.20000000000000284,
                "tempo": 120.0
            },
            {
                "start_time": 23.081818181818182,
                "end_time": 23.297727272727272,
                "pitch": 35,
                "velocity": 101,
                "duration": 0.21590909090908994,
                "tempo": 120.0
            },
            {
                "start_time": 23.297727272727272,
                "end_time": 23.49772727272727,
                "pitch": 34,
                "velocity": 101,
                "duration": 0.1999999999999993,
                "tempo": 120.0
            },
            {
                "start_time": 23.49772727272727,
                "end_time": 23.71590909090909,
                "pitch": 34,
                "velocity": 101,
                "duration": 0.2181818181818187,
                "tempo": 120.0
            },
            {
                "start_time": 23.71590909090909,
                "end_time": 23.911363636363635,
                "pitch": 35,
                "velocity": 101,
                "duration": 0.19545454545454533,
                "tempo": 120.0
            },
            {
                "start_time": 23.911363636363635,
                "end_time": 24.12272727272727,
                "pitch": 35,
                "velocity": 101,
                "duration": 0.21136363636363598,
                "tempo": 120.0
            },
            {
                "start_time": 24.12272727272727,
                "end_time": 24.318181818181817,
                "pitch": 34,
                "velocity": 101,
                "duration": 0.19545454545454533,
                "tempo": 120.0
            },
            {
                "start_time": 24.318181818181817,
                "end_time": 24.529545454545453,
                "pitch": 34,
                "velocity": 101,
                "duration": 0.21136363636363598,
                "tempo": 120.0
            },
            {
                "start_time": 24.529545454545453,
                "end_time": 24.729545454545452,
                "pitch": 35,
                "velocity": 101,
                "duration": 0.1999999999999993,
                "tempo": 120.0
            },
            {
                "start_time": 24.729545454545452,
                "end_time": 24.945454545454545,
                "pitch": 35,
                "velocity": 101,
                "duration": 0.2159090909090935,
                "tempo": 120.0
            },
            {
                "start_time": 24.945454545454545,
                "end_time": 25.136363636363637,
                "pitch": 34,
                "velocity": 101,
                "duration": 0.19090909090909136,
                "tempo": 120.0
            },
            {
                "start_time": 25.136363636363637,
                "end_time": 25.327272727272724,
                "pitch": 34,
                "velocity": 101,
                "duration": 0.1909090909090878,
                "tempo": 120.0
            },
            {
                "start_time": 25.327272727272724,
                "end_time": 25.538636363636364,
                "pitch": 35,
                "velocity": 101,
                "duration": 0.21136363636363953,
                "tempo": 120.0
            },
            {
                "start_time": 25.538636363636364,
                "end_time": 25.73181818181818,
                "pitch": 35,
                "velocity": 101,
                "duration": 0.19318181818181657,
                "tempo": 120.0
            },
            {
                "start_time": 25.73181818181818,
                "end_time": 25.95,
                "pitch": 34,
                "velocity": 101,
                "duration": 0.2181818181818187,
                "tempo": 120.0
            },
            {
                "start_time": 25.95,
                "end_time": 26.15,
                "pitch": 34,
                "velocity": 101,
                "duration": 0.1999999999999993,
                "tempo": 120.0
            },
            {
                "start_time": 26.15,
                "end_time": 26.363636363636363,
                "pitch": 35,
                "velocity": 101,
                "duration": 0.21363636363636473,
                "tempo": 120.0
            },
            {
                "start_time": 26.363636363636363,
                "end_time": 26.55681818181818,
                "pitch": 37,
                "velocity": 101,
                "duration": 0.19318181818181657,
                "tempo": 120.0
            },
            {
                "start_time": 26.55681818181818,
                "end_time": 26.775,
                "pitch": 37,
                "velocity": 101,
                "duration": 0.2181818181818187,
                "tempo": 120.0
            },
            {
                "start_time": 26.775,
                "end_time": 26.9,
                "pitch": 37,
                "velocity": 101,
                "duration": 0.125,
                "tempo": 120.0
            }
        ]
    }
}