{
    "track_id": "12 Stage 7",
    "mood": "angry",
    "instruments": {
        "Electric Piano 1": [
            {
                "start_time": 21.388636363636362,
                "end_time": 21.961363636363636,
                "pitch": 54,
                "velocity": 51,
                "duration": 0.5727272727272741,
                "tempo": 120.0
            },
            {
                "start_time": 21.961363636363636,
                "end_time": 22.54090909090909,
                "pitch": 54,
                "velocity": 51,
                "duration": 0.5795454545454533,
                "tempo": 120.0
            },
            {
                "start_time": 22.54090909090909,
                "end_time": 22.924999999999997,
                "pitch": 54,
                "velocity": 51,
                "duration": 0.38409090909090793,
                "tempo": 120.0
            },
            {
                "start_time": 22.924999999999997,
                "end_time": 23.486363636363635,
                "pitch": 54,
                "velocity": 51,
                "duration": 0.5613636363636374,
                "tempo": 120.0
            },
            {
                "start_time": 23.486363636363635,
                "end_time": 24.06590909090909,
                "pitch": 54,
                "velocity": 51,
                "duration": 0.5795454545454568,
                "tempo": 120.0
            },
            {
                "start_time": 24.068181818181817,
                "end_time": 24.45,
                "pitch": 54,
                "velocity": 51,
                "duration": 0.3818181818181827,
                "tempo": 120.0
            },
            {
                "start_time": 24.452272727272724,
                "end_time": 25.018181818181816,
                "pitch": 54,
                "velocity": 51,
                "duration": 0.5659090909090914,
                "tempo": 120.0
            },
            {
                "start_time": 25.018181818181816,
                "end_time": 25.602272727272727,
                "pitch": 54,
                "velocity": 51,
                "duration": 0.5840909090909108,
                "tempo": 120.0
            },
            {
                "start_time": 25.602272727272727,
                "end_time": 25.956818181818182,
                "pitch": 54,
                "velocity": 51,
                "duration": 0.3545454545454554,
                "tempo": 120.0
            },
            {
                "start_time": 25.956818181818182,
                "end_time": 26.427272727272726,
                "pitch": 54,
                "velocity": 51,
                "duration": 0.4704545454545439,
                "tempo": 120.0
            },
            {
                "start_time": 26.427272727272726,
                "end_time": 26.95,
                "pitch": 54,
                "velocity": 51,
                "duration": 0.5227272727272734,
                "tempo": 120.0
            },
            {
                "start_time": 26.95,
                "end_time": 27.34090909090909,
                "pitch": 54,
                "velocity": 51,
                "duration": 0.39090909090909065,
                "tempo": 120.0
            }
        ],
        "Harpsichord": [
            {
                "start_time": 0.004545454545454545,
                "end_time": 0.08409090909090909,
                "pitch": 55,
                "velocity": 51,
                "duration": 0.07954545454545454,
                "tempo": 120.0
            },
            {
                "start_time": 0.18636363636363634,
                "end_time": 0.2681818181818182,
                "pitch": 55,
                "velocity": 51,
                "duration": 0.08181818181818185,
                "tempo": 120.0
            },
            {
                "start_time": 0.36818181818181817,
                "end_time": 0.45227272727272727,
                "pitch": 55,
                "velocity": 51,
                "duration": 0.0840909090909091,
                "tempo": 120.0
            },
            {
                "start_time": 0.5522727272727272,
                "end_time": 0.6522727272727272,
                "pitch": 55,
                "velocity": 51,
                "duration": 0.09999999999999998,
                "tempo": 120.0
            },
            {
                "start_time": 0.7545454545454545,
                "end_time": 0.8409090909090908,
                "pitch": 55,
                "velocity": 51,
                "duration": 0.08636363636363631,
                "tempo": 120.0
            },
            {
                "start_time": 0.9477272727272726,
                "end_time": 1.034090909090909,
                "pitch": 55,
                "velocity": 51,
                "duration": 0.08636363636363631,
                "tempo": 120.0
            },
            {
                "start_time": 1.143181818181818,
                "end_time": 1.2227272727272727,
                "pitch": 55,
                "velocity": 51,
                "duration": 0.07954545454545459,
                "tempo": 120.0
            },
            {
                "start_time": 1.3204545454545453,
                "end_time": 1.3681818181818182,
                "pitch": 55,
                "velocity": 51,
                "duration": 0.04772727272727284,
                "tempo": 120.0
            },
            {
                "start_time": 1.4181818181818182,
                "end_time": 1.4659090909090908,
                "pitch": 55,
                "velocity": 51,
                "duration": 0.04772727272727262,
                "tempo": 120.0
            },
            {
                "start_time": 1.518181818181818,
                "end_time": 1.6022727272727273,
                "pitch": 54,
                "velocity": 51,
                "duration": 0.08409090909090922,
                "tempo": 120.0
            },
            {
                "start_time": 1.7068181818181818,
                "end_time": 1.7909090909090908,
                "pitch": 54,
                "velocity": 51,
                "duration": 0.084090909090909,
                "tempo": 120.0
            },
            {
                "start_time": 1.8954545454545453,
                "end_time": 1.9795454545454545,
                "pitch": 54,
                "velocity": 51,
                "duration": 0.08409090909090922,
                "tempo": 120.0
            },
            {
                "start_time": 2.0795454545454546,
                "end_time": 2.1795454545454542,
                "pitch": 54,
                "velocity": 51,
                "duration": 0.09999999999999964,
                "tempo": 120.0
            },
            {
                "start_time": 2.2795454545454543,
                "end_time": 2.368181818181818,
                "pitch": 54,
                "velocity": 51,
                "duration": 0.08863636363636385,
                "tempo": 120.0
            },
            {
                "start_time": 2.475,
                "end_time": 2.561363636363636,
                "pitch": 54,
                "velocity": 51,
                "duration": 0.08636363636363598,
                "tempo": 120.0
            },
            {
                "start_time": 2.668181818181818,
                "end_time": 2.75,
                "pitch": 54,
                "velocity": 51,
                "duration": 0.08181818181818201,
                "tempo": 120.0
            },
            {
                "start_time": 2.8477272727272727,
                "end_time": 2.8954545454545455,
                "pitch": 54,
                "velocity": 51,
                "duration": 0.04772727272727284,
                "tempo": 120.0
            },
            {
                "start_time": 2.9454545454545453,
                "end_time": 2.993181818181818,
                "pitch": 54,
                "velocity": 51,
                "duration": 0.04772727272727284,
                "tempo": 120.0
            },
            {
                "start_time": 3.043181818181818,
                "end_time": 3.131818181818182,
                "pitch": 53,
                "velocity": 51,
                "duration": 0.08863636363636385,
                "tempo": 120.0
            },
            {
                "start_time": 3.2386363636363633,
                "end_time": 3.3249999999999997,
                "pitch": 53,
                "velocity": 51,
                "duration": 0.08636363636363642,
                "tempo": 120.0
            },
            {
                "start_time": 3.4318181818181817,
                "end_time": 3.5136363636363637,
                "pitch": 53,
                "velocity": 51,
                "duration": 0.08181818181818201,
                "tempo": 120.0
            },
            {
                "start_time": 3.6113636363636363,
                "end_time": 3.709090909090909,
                "pitch": 53,
                "velocity": 51,
                "duration": 0.09772727272727266,
                "tempo": 120.0
            },
            {
                "start_time": 3.8068181818181817,
                "end_time": 3.893181818181818,
                "pitch": 53,
                "velocity": 51,
                "duration": 0.08636363636363642,
                "tempo": 120.0
            },
            {
                "start_time": 4.002272727272727,
                "end_time": 4.088636363636364,
                "pitch": 53,
                "velocity": 51,
                "duration": 0.08636363636363686,
                "tempo": 120.0
            },
            {
                "start_time": 4.195454545454545,
                "end_time": 4.279545454545454,
                "pitch": 53,
                "velocity": 51,
                "duration": 0.084090909090909,
                "tempo": 120.0
            },
            {
                "start_time": 4.379545454545454,
                "end_time": 4.429545454545455,
                "pitch": 53,
                "velocity": 51,
                "duration": 0.05000000000000071,
                "tempo": 120.0
            },
            {
                "start_time": 4.4795454545454545,
                "end_time": 4.529545454545454,
                "pitch": 53,
                "velocity": 51,
                "duration": 0.04999999999999982,
                "tempo": 120.0
            },
            {
                "start_time": 4.581818181818182,
                "end_time": 4.665909090909091,
                "pitch": 54,
                "velocity": 51,
                "duration": 0.084090909090909,
                "tempo": 120.0
            },
            {
                "start_time": 4.7704545454545455,
                "end_time": 4.8545454545454545,
                "pitch": 54,
                "velocity": 51,
                "duration": 0.084090909090909,
                "tempo": 120.0
            },
            {
                "start_time": 4.959090909090909,
                "end_time": 5.043181818181818,
                "pitch": 54,
                "velocity": 51,
                "duration": 0.084090909090909,
                "tempo": 120.0
            },
            {
                "start_time": 5.143181818181818,
                "end_time": 5.243181818181818,
                "pitch": 54,
                "velocity": 51,
                "duration": 0.10000000000000053,
                "tempo": 120.0
            },
            {
                "start_time": 5.343181818181818,
                "end_time": 5.429545454545455,
                "pitch": 54,
                "velocity": 51,
                "duration": 0.08636363636363686,
                "tempo": 120.0
            },
            {
                "start_time": 5.534090909090909,
                "end_time": 5.618181818181818,
                "pitch": 54,
                "velocity": 51,
                "duration": 0.084090909090909,
                "tempo": 120.0
            },
            {
                "start_time": 5.722727272727273,
                "end_time": 5.806818181818182,
                "pitch": 54,
                "velocity": 51,
                "duration": 0.084090909090909,
                "tempo": 120.0
            },
            {
                "start_time": 5.906818181818181,
                "end_time": 6.006818181818182,
                "pitch": 54,
                "velocity": 51,
                "duration": 0.10000000000000053,
                "tempo": 120.0
            },
            {
                "start_time": 6.1068181818181815,
                "end_time": 6.1931818181818175,
                "pitch": 55,
                "velocity": 51,
                "duration": 0.08636363636363598,
                "tempo": 120.0
            },
            {
                "start_time": 6.297727272727273,
                "end_time": 6.381818181818182,
                "pitch": 55,
                "velocity": 51,
                "duration": 0.084090909090909,
                "tempo": 120.0
            },
            {
                "start_time": 6.486363636363636,
                "end_time": 6.5681818181818175,
                "pitch": 55,
                "velocity": 51,
                "duration": 0.08181818181818112,
                "tempo": 120.0
            },
            {
                "start_time": 6.670454545454545,
                "end_time": 6.7704545454545455,
                "pitch": 55,
                "velocity": 51,
                "duration": 0.10000000000000053,
                "tempo": 120.0
            },
            {
                "start_time": 6.870454545454545,
                "end_time": 6.956818181818181,
                "pitch": 55,
                "velocity": 51,
                "duration": 0.08636363636363598,
                "tempo": 120.0
            },
            {
                "start_time": 7.0659090909090905,
                "end_time": 7.152272727272727,
                "pitch": 55,
                "velocity": 51,
                "duration": 0.08636363636363686,
                "tempo": 120.0
            },
            {
                "start_time": 7.259090909090909,
                "end_time": 7.340909090909091,
                "pitch": 55,
                "velocity": 51,
                "duration": 0.08181818181818201,
                "tempo": 120.0
            },
            {
                "start_time": 7.4386363636363635,
                "end_time": 7.486363636363636,
                "pitch": 55,
                "velocity": 51,
                "duration": 0.04772727272727284,
                "tempo": 120.0
            },
            {
                "start_time": 7.536363636363636,
                "end_time": 7.584090909090909,
                "pitch": 55,
                "velocity": 51,
                "duration": 0.04772727272727284,
                "tempo": 120.0
            },
            {
                "start_time": 7.634090909090909,
                "end_time": 7.720454545454545,
                "pitch": 54,
                "velocity": 51,
                "duration": 0.08636363636363598,
                "tempo": 120.0
            },
            {
                "start_time": 7.824999999999999,
                "end_time": 7.909090909090908,
                "pitch": 54,
                "velocity": 51,
                "duration": 0.084090909090909,
                "tempo": 120.0
            },
            {
                "start_time": 8.013636363636364,
                "end_time": 8.095454545454546,
                "pitch": 54,
                "velocity": 51,
                "duration": 0.08181818181818201,
                "tempo": 120.0
            },
            {
                "start_time": 8.197727272727272,
                "end_time": 8.297727272727272,
                "pitch": 54,
                "velocity": 51,
                "duration": 0.09999999999999964,
                "tempo": 120.0
            },
            {
                "start_time": 8.397727272727272,
                "end_time": 8.48409090909091,
                "pitch": 54,
                "velocity": 51,
                "duration": 0.08636363636363775,
                "tempo": 120.0
            },
            {
                "start_time": 8.593181818181817,
                "end_time": 8.679545454545455,
                "pitch": 54,
                "velocity": 51,
                "duration": 0.08636363636363775,
                "tempo": 120.0
            },
            {
                "start_time": 8.786363636363635,
                "end_time": 8.868181818181817,
                "pitch": 54,
                "velocity": 51,
                "duration": 0.08181818181818201,
                "tempo": 120.0
            },
            {
                "start_time": 8.96590909090909,
                "end_time": 9.013636363636364,
                "pitch": 54,
                "velocity": 51,
                "duration": 0.04772727272727373,
                "tempo": 120.0
            },
            {
                "start_time": 9.063636363636363,
                "end_time": 9.111363636363636,
                "pitch": 54,
                "velocity": 51,
                "duration": 0.04772727272727373,
                "tempo": 120.0
            },
            {
                "start_time": 9.161363636363635,
                "end_time": 9.247727272727273,
                "pitch": 53,
                "velocity": 51,
                "duration": 0.08636363636363775,
                "tempo": 120.0
            },
            {
                "start_time": 9.35681818181818,
                "end_time": 9.443181818181818,
                "pitch": 53,
                "velocity": 51,
                "duration": 0.08636363636363775,
                "tempo": 120.0
            },
            {
                "start_time": 9.549999999999999,
                "end_time": 9.629545454545454,
                "pitch": 53,
                "velocity": 51,
                "duration": 0.07954545454545503,
                "tempo": 120.0
            },
            {
                "start_time": 9.729545454545454,
                "end_time": 9.825,
                "pitch": 53,
                "velocity": 51,
                "duration": 0.09545454545454568,
                "tempo": 120.0
            },
            {
                "start_time": 9.924999999999999,
                "end_time": 10.011363636363637,
                "pitch": 53,
                "velocity": 51,
                "duration": 0.08636363636363775,
                "tempo": 120.0
            },
            {
                "start_time": 10.118181818181817,
                "end_time": 10.206818181818182,
                "pitch": 53,
                "velocity": 51,
                "duration": 0.08863636363636473,
                "tempo": 120.0
            },
            {
                "start_time": 10.313636363636363,
                "end_time": 10.393181818181818,
                "pitch": 53,
                "velocity": 51,
                "duration": 0.07954545454545503,
                "tempo": 120.0
            },
            {
                "start_time": 10.493181818181817,
                "end_time": 10.540909090909091,
                "pitch": 53,
                "velocity": 51,
                "duration": 0.04772727272727373,
                "tempo": 120.0
            },
            {
                "start_time": 10.588636363636363,
                "end_time": 10.638636363636364,
                "pitch": 53,
                "velocity": 51,
                "duration": 0.05000000000000071,
                "tempo": 120.0
            },
            {
                "start_time": 10.688636363636363,
                "end_time": 10.775,
                "pitch": 54,
                "velocity": 51,
                "duration": 0.08636363636363775,
                "tempo": 120.0
            },
            {
                "start_time": 10.881818181818181,
                "end_time": 10.970454545454546,
                "pitch": 54,
                "velocity": 51,
                "duration": 0.08863636363636473,
                "tempo": 120.0
            },
            {
                "start_time": 11.077272727272726,
                "end_time": 11.156818181818181,
                "pitch": 54,
                "velocity": 51,
                "duration": 0.07954545454545503,
                "tempo": 120.0
            },
            {
                "start_time": 11.256818181818181,
                "end_time": 11.352272727272727,
                "pitch": 54,
                "velocity": 51,
                "duration": 0.09545454545454568,
                "tempo": 120.0
            },
            {
                "start_time": 11.452272727272726,
                "end_time": 11.538636363636362,
                "pitch": 54,
                "velocity": 51,
                "duration": 0.08636363636363598,
                "tempo": 120.0
            },
            {
                "start_time": 11.645454545454545,
                "end_time": 11.73409090909091,
                "pitch": 54,
                "velocity": 51,
                "duration": 0.08863636363636473,
                "tempo": 120.0
            },
            {
                "start_time": 11.84090909090909,
                "end_time": 11.920454545454545,
                "pitch": 54,
                "velocity": 51,
                "duration": 0.07954545454545503,
                "tempo": 120.0
            },
            {
                "start_time": 12.020454545454545,
                "end_time": 12.11590909090909,
                "pitch": 54,
                "velocity": 51,
                "duration": 0.09545454545454568,
                "tempo": 120.0
            },
            {
                "start_time": 12.21590909090909,
                "end_time": 12.302272727272726,
                "pitch": 52,
                "velocity": 51,
                "duration": 0.08636363636363598,
                "tempo": 120.0
            },
            {
                "start_time": 12.409090909090908,
                "end_time": 12.497727272727271,
                "pitch": 52,
                "velocity": 51,
                "duration": 0.08863636363636296,
                "tempo": 120.0
            },
            {
                "start_time": 12.604545454545454,
                "end_time": 12.686363636363636,
                "pitch": 52,
                "velocity": 51,
                "duration": 0.08181818181818201,
                "tempo": 120.0
            },
            {
                "start_time": 12.788636363636362,
                "end_time": 12.836363636363636,
                "pitch": 52,
                "velocity": 51,
                "duration": 0.04772727272727373,
                "tempo": 120.0
            },
            {
                "start_time": 12.886363636363635,
                "end_time": 12.936363636363636,
                "pitch": 52,
                "velocity": 51,
                "duration": 0.05000000000000071,
                "tempo": 120.0
            },
            {
                "start_time": 12.988636363636363,
                "end_time": 13.072727272727272,
                "pitch": 52,
                "velocity": 51,
                "duration": 0.084090909090909,
                "tempo": 120.0
            },
            {
                "start_time": 13.177272727272726,
                "end_time": 13.263636363636364,
                "pitch": 52,
                "velocity": 51,
                "duration": 0.08636363636363775,
                "tempo": 120.0
            },
            {
                "start_time": 13.368181818181817,
                "end_time": 13.45,
                "pitch": 52,
                "velocity": 51,
                "duration": 0.08181818181818201,
                "tempo": 120.0
            },
            {
                "start_time": 13.552272727272726,
                "end_time": 13.6,
                "pitch": 52,
                "velocity": 51,
                "duration": 0.04772727272727373,
                "tempo": 120.0
            },
            {
                "start_time": 13.649999999999999,
                "end_time": 13.7,
                "pitch": 52,
                "velocity": 51,
                "duration": 0.05000000000000071,
                "tempo": 120.0
            },
            {
                "start_time": 13.752272727272727,
                "end_time": 13.94090909090909,
                "pitch": 50,
                "velocity": 51,
                "duration": 0.1886363636363626,
                "tempo": 120.0
            },
            {
                "start_time": 14.131818181818181,
                "end_time": 14.313636363636363,
                "pitch": 50,
                "velocity": 51,
                "duration": 0.18181818181818166,
                "tempo": 120.0
            },
            {
                "start_time": 14.51590909090909,
                "end_time": 14.6,
                "pitch": 52,
                "velocity": 51,
                "duration": 0.084090909090909,
                "tempo": 120.0
            },
            {
                "start_time": 14.704545454545453,
                "end_time": 14.790909090909091,
                "pitch": 52,
                "velocity": 51,
                "duration": 0.08636363636363775,
                "tempo": 120.0
            },
            {
                "start_time": 14.895454545454545,
                "end_time": 14.977272727272727,
                "pitch": 52,
                "velocity": 51,
                "duration": 0.08181818181818201,
                "tempo": 120.0
            },
            {
                "start_time": 15.079545454545453,
                "end_time": 15.127272727272727,
                "pitch": 52,
                "velocity": 51,
                "duration": 0.04772727272727373,
                "tempo": 120.0
            },
            {
                "start_time": 15.177272727272726,
                "end_time": 15.227272727272727,
                "pitch": 52,
                "velocity": 51,
                "duration": 0.05000000000000071,
                "tempo": 120.0
            },
            {
                "start_time": 15.279545454545454,
                "end_time": 15.363636363636363,
                "pitch": 52,
                "velocity": 51,
                "duration": 0.084090909090909,
                "tempo": 120.0
            },
            {
                "start_time": 15.468181818181817,
                "end_time": 15.554545454545455,
                "pitch": 52,
                "velocity": 51,
                "duration": 0.08636363636363775,
                "tempo": 120.0
            },
            {
                "start_time": 15.659090909090908,
                "end_time": 15.74090909090909,
                "pitch": 52,
                "velocity": 51,
                "duration": 0.08181818181818201,
                "tempo": 120.0
            },
            {
                "start_time": 15.84090909090909,
                "end_time": 15.89090909090909,
                "pitch": 52,
                "velocity": 51,
                "duration": 0.05000000000000071,
                "tempo": 120.0
            },
            {
                "start_time": 15.94090909090909,
                "end_time": 15.99090909090909,
                "pitch": 52,
                "velocity": 51,
                "duration": 0.05000000000000071,
                "tempo": 120.0
            },
            {
                "start_time": 16.043181818181818,
                "end_time": 16.23181818181818,
                "pitch": 50,
                "velocity": 51,
                "duration": 0.1886363636363626,
                "tempo": 120.0
            },
            {
                "start_time": 16.422727272727272,
                "end_time": 16.604545454545455,
                "pitch": 50,
                "velocity": 51,
                "duration": 0.18181818181818343,
                "tempo": 120.0
            },
            {
                "start_time": 16.80681818181818,
                "end_time": 16.89090909090909,
                "pitch": 52,
                "velocity": 51,
                "duration": 0.08409090909091077,
                "tempo": 120.0
            },
            {
                "start_time": 16.995454545454546,
                "end_time": 17.079545454545453,
                "pitch": 52,
                "velocity": 51,
                "duration": 0.08409090909090722,
                "tempo": 120.0
            },
            {
                "start_time": 17.18409090909091,
                "end_time": 17.268181818181816,
                "pitch": 52,
                "velocity": 51,
                "duration": 0.08409090909090722,
                "tempo": 120.0
            },
            {
                "start_time": 17.368181818181817,
                "end_time": 17.418181818181818,
                "pitch": 52,
                "velocity": 51,
                "duration": 0.05000000000000071,
                "tempo": 120.0
            },
            {
                "start_time": 17.46818181818182,
                "end_time": 17.518181818181816,
                "pitch": 52,
                "velocity": 51,
                "duration": 0.04999999999999716,
                "tempo": 120.0
            },
            {
                "start_time": 17.568181818181817,
                "end_time": 17.65681818181818,
                "pitch": 52,
                "velocity": 51,
                "duration": 0.08863636363636473,
                "tempo": 120.0
            },
            {
                "start_time": 17.763636363636362,
                "end_time": 17.849999999999998,
                "pitch": 52,
                "velocity": 51,
                "duration": 0.08636363636363598,
                "tempo": 120.0
            },
            {
                "start_time": 17.956818181818182,
                "end_time": 18.038636363636364,
                "pitch": 52,
                "velocity": 51,
                "duration": 0.08181818181818201,
                "tempo": 120.0
            },
            {
                "start_time": 18.136363636363637,
                "end_time": 18.18409090909091,
                "pitch": 52,
                "velocity": 51,
                "duration": 0.04772727272727195,
                "tempo": 120.0
            },
            {
                "start_time": 18.23409090909091,
                "end_time": 18.28181818181818,
                "pitch": 52,
                "velocity": 51,
                "duration": 0.04772727272727195,
                "tempo": 120.0
            },
            {
                "start_time": 18.331818181818182,
                "end_time": 18.527272727272727,
                "pitch": 50,
                "velocity": 51,
                "duration": 0.19545454545454533,
                "tempo": 120.0
            },
            {
                "start_time": 18.720454545454544,
                "end_time": 18.9,
                "pitch": 50,
                "velocity": 51,
                "duration": 0.17954545454545467,
                "tempo": 120.0
            },
            {
                "start_time": 19.095454545454544,
                "end_time": 19.18409090909091,
                "pitch": 52,
                "velocity": 51,
                "duration": 0.08863636363636473,
                "tempo": 120.0
            },
            {
                "start_time": 19.29090909090909,
                "end_time": 19.377272727272725,
                "pitch": 52,
                "velocity": 51,
                "duration": 0.08636363636363598,
                "tempo": 120.0
            },
            {
                "start_time": 19.48409090909091,
                "end_time": 19.568181818181817,
                "pitch": 52,
                "velocity": 51,
                "duration": 0.08409090909090722,
                "tempo": 120.0
            },
            {
                "start_time": 19.668181818181818,
                "end_time": 19.71818181818182,
                "pitch": 52,
                "velocity": 51,
                "duration": 0.05000000000000071,
                "tempo": 120.0
            },
            {
                "start_time": 19.768181818181816,
                "end_time": 19.818181818181817,
                "pitch": 52,
                "velocity": 51,
                "duration": 0.05000000000000071,
                "tempo": 120.0
            },
            {
                "start_time": 19.870454545454546,
                "end_time": 19.954545454545453,
                "pitch": 52,
                "velocity": 51,
                "duration": 0.08409090909090722,
                "tempo": 120.0
            },
            {
                "start_time": 20.05909090909091,
                "end_time": 20.143181818181816,
                "pitch": 52,
                "velocity": 51,
                "duration": 0.08409090909090722,
                "tempo": 120.0
            },
            {
                "start_time": 20.24772727272727,
                "end_time": 20.331818181818182,
                "pitch": 52,
                "velocity": 51,
                "duration": 0.08409090909091077,
                "tempo": 120.0
            },
            {
                "start_time": 20.43181818181818,
                "end_time": 20.48181818181818,
                "pitch": 52,
                "velocity": 51,
                "duration": 0.05000000000000071,
                "tempo": 120.0
            },
            {
                "start_time": 20.53181818181818,
                "end_time": 20.581818181818182,
                "pitch": 52,
                "velocity": 51,
                "duration": 0.05000000000000071,
                "tempo": 120.0
            },
            {
                "start_time": 20.63181818181818,
                "end_time": 20.82272727272727,
                "pitch": 50,
                "velocity": 51,
                "duration": 0.19090909090909136,
                "tempo": 120.0
            },
            {
                "start_time": 21.011363636363637,
                "end_time": 21.19090909090909,
                "pitch": 50,
                "velocity": 51,
                "duration": 0.17954545454545467,
                "tempo": 120.0
            },
            {
                "start_time": 21.386363636363637,
                "end_time": 21.472727272727273,
                "pitch": 49,
                "velocity": 51,
                "duration": 0.08636363636363598,
                "tempo": 120.0
            },
            {
                "start_time": 21.581818181818182,
                "end_time": 21.668181818181818,
                "pitch": 49,
                "velocity": 51,
                "duration": 0.08636363636363598,
                "tempo": 120.0
            },
            {
                "start_time": 21.775,
                "end_time": 21.85909090909091,
                "pitch": 49,
                "velocity": 51,
                "duration": 0.08409090909091077,
                "tempo": 120.0
            },
            {
                "start_time": 21.959090909090907,
                "end_time": 22.05909090909091,
                "pitch": 49,
                "velocity": 51,
                "duration": 0.10000000000000142,
                "tempo": 120.0
            },
            {
                "start_time": 22.159090909090907,
                "end_time": 22.245454545454546,
                "pitch": 49,
                "velocity": 51,
                "duration": 0.08636363636363953,
                "tempo": 120.0
            },
            {
                "start_time": 22.349999999999998,
                "end_time": 22.43409090909091,
                "pitch": 49,
                "velocity": 51,
                "duration": 0.08409090909091077,
                "tempo": 120.0
            },
            {
                "start_time": 22.538636363636364,
                "end_time": 22.620454545454546,
                "pitch": 49,
                "velocity": 51,
                "duration": 0.08181818181818201,
                "tempo": 120.0
            },
            {
                "start_time": 22.722727272727273,
                "end_time": 22.772727272727273,
                "pitch": 49,
                "velocity": 51,
                "duration": 0.05000000000000071,
                "tempo": 120.0
            },
            {
                "start_time": 22.82272727272727,
                "end_time": 22.87272727272727,
                "pitch": 49,
                "velocity": 51,
                "duration": 0.05000000000000071,
                "tempo": 120.0
            },
            {
                "start_time": 22.922727272727272,
                "end_time": 23.009090909090908,
                "pitch": 49,
                "velocity": 51,
                "duration": 0.08636363636363598,
                "tempo": 120.0
            },
            {
                "start_time": 23.113636363636363,
                "end_time": 23.19772727272727,
                "pitch": 49,
                "velocity": 51,
                "duration": 0.08409090909090722,
                "tempo": 120.0
            },
            {
                "start_time": 23.302272727272726,
                "end_time": 23.384090909090908,
                "pitch": 49,
                "velocity": 51,
                "duration": 0.08181818181818201,
                "tempo": 120.0
            },
            {
                "start_time": 23.486363636363635,
                "end_time": 23.586363636363636,
                "pitch": 49,
                "velocity": 51,
                "duration": 0.10000000000000142,
                "tempo": 120.0
            },
            {
                "start_time": 23.686363636363634,
                "end_time": 23.77272727272727,
                "pitch": 49,
                "velocity": 51,
                "duration": 0.08636363636363598,
                "tempo": 120.0
            },
            {
                "start_time": 23.877272727272725,
                "end_time": 23.961363636363636,
                "pitch": 49,
                "velocity": 51,
                "duration": 0.08409090909091077,
                "tempo": 120.0
            },
            {
                "start_time": 24.06590909090909,
                "end_time": 24.14772727272727,
                "pitch": 49,
                "velocity": 51,
                "duration": 0.08181818181817846,
                "tempo": 120.0
            },
            {
                "start_time": 24.25,
                "end_time": 24.297727272727272,
                "pitch": 49,
                "velocity": 51,
                "duration": 0.04772727272727195,
                "tempo": 120.0
            },
            {
                "start_time": 24.349999999999998,
                "end_time": 24.4,
                "pitch": 49,
                "velocity": 51,
                "duration": 0.05000000000000071,
                "tempo": 120.0
            },
            {
                "start_time": 24.45,
                "end_time": 24.536363636363635,
                "pitch": 49,
                "velocity": 51,
                "duration": 0.08636363636363598,
                "tempo": 120.0
            },
            {
                "start_time": 24.645454545454545,
                "end_time": 24.73181818181818,
                "pitch": 49,
                "velocity": 51,
                "duration": 0.08636363636363598,
                "tempo": 120.0
            },
            {
                "start_time": 24.83863636363636,
                "end_time": 24.918181818181818,
                "pitch": 49,
                "velocity": 51,
                "duration": 0.0795454545454568,
                "tempo": 120.0
            },
            {
                "start_time": 25.018181818181816,
                "end_time": 25.11590909090909,
                "pitch": 49,
                "velocity": 51,
                "duration": 0.09772727272727266,
                "tempo": 120.0
            },
            {
                "start_time": 25.21363636363636,
                "end_time": 25.299999999999997,
                "pitch": 49,
                "velocity": 51,
                "duration": 0.08636363636363598,
                "tempo": 120.0
            },
            {
                "start_time": 25.409090909090907,
                "end_time": 25.495454545454542,
                "pitch": 49,
                "velocity": 51,
                "duration": 0.08636363636363598,
                "tempo": 120.0
            },
            {
                "start_time": 25.602272727272727,
                "end_time": 25.679545454545455,
                "pitch": 49,
                "velocity": 51,
                "duration": 0.07727272727272805,
                "tempo": 120.0
            },
            {
                "start_time": 25.775,
                "end_time": 25.820454545454545,
                "pitch": 49,
                "velocity": 51,
                "duration": 0.045454545454546746,
                "tempo": 120.0
            },
            {
                "start_time": 25.868181818181817,
                "end_time": 25.913636363636364,
                "pitch": 49,
                "velocity": 51,
                "duration": 0.045454545454546746,
                "tempo": 120.0
            },
            {
                "start_time": 25.956818181818182,
                "end_time": 26.025,
                "pitch": 49,
                "velocity": 51,
                "duration": 0.06818181818181657,
                "tempo": 120.0
            },
            {
                "start_time": 26.10909090909091,
                "end_time": 26.179545454545455,
                "pitch": 49,
                "velocity": 51,
                "duration": 0.07045454545454533,
                "tempo": 120.0
            },
            {
                "start_time": 26.268181818181816,
                "end_time": 26.33863636363636,
                "pitch": 49,
                "velocity": 51,
                "duration": 0.07045454545454533,
                "tempo": 120.0
            },
            {
                "start_time": 26.427272727272726,
                "end_time": 26.513636363636362,
                "pitch": 49,
                "velocity": 51,
                "duration": 0.08636363636363598,
                "tempo": 120.0
            },
            {
                "start_time": 26.599999999999998,
                "end_time": 26.672727272727272,
                "pitch": 49,
                "velocity": 51,
                "duration": 0.07272727272727408,
                "tempo": 120.0
            },
            {
                "start_time": 26.759090909090908,
                "end_time": 26.845454545454544,
                "pitch": 49,
                "velocity": 51,
                "duration": 0.08636363636363598,
                "tempo": 120.0
            },
            {
                "start_time": 26.95,
                "end_time": 27.034090909090907,
                "pitch": 49,
                "velocity": 51,
                "duration": 0.08409090909090722,
                "tempo": 120.0
            },
            {
                "start_time": 27.138636363636362,
                "end_time": 27.188636363636363,
                "pitch": 49,
                "velocity": 51,
                "duration": 0.05000000000000071,
                "tempo": 120.0
            },
            {
                "start_time": 27.238636363636363,
                "end_time": 27.288636363636364,
                "pitch": 49,
                "velocity": 51,
                "duration": 0.05000000000000071,
                "tempo": 120.0
            },
            {
                "start_time": 27.33863636363636,
                "end_time": 27.422727272727272,
                "pitch": 57,
                "velocity": 51,
                "duration": 0.08409090909091077,
                "tempo": 120.0
            },
            {
                "start_time": 27.52272727272727,
                "end_time": 27.60909090909091,
                "pitch": 57,
                "velocity": 51,
                "duration": 0.08636363636363953,
                "tempo": 120.0
            },
            {
                "start_time": 27.71363636363636,
                "end_time": 27.797727272727272,
                "pitch": 57,
                "velocity": 51,
                "duration": 0.08409090909091077,
                "tempo": 120.0
            },
            {
                "start_time": 27.902272727272727,
                "end_time": 28.002272727272725,
                "pitch": 57,
                "velocity": 51,
                "duration": 0.09999999999999787,
                "tempo": 120.0
            },
            {
                "start_time": 28.102272727272727,
                "end_time": 28.186363636363634,
                "pitch": 57,
                "velocity": 51,
                "duration": 0.08409090909090722,
                "tempo": 120.0
            },
            {
                "start_time": 28.286363636363635,
                "end_time": 28.37272727272727,
                "pitch": 57,
                "velocity": 51,
                "duration": 0.08636363636363598,
                "tempo": 120.0
            },
            {
                "start_time": 28.477272727272727,
                "end_time": 28.561363636363634,
                "pitch": 57,
                "velocity": 51,
                "duration": 0.08409090909090722,
                "tempo": 120.0
            },
            {
                "start_time": 28.66590909090909,
                "end_time": 28.71590909090909,
                "pitch": 57,
                "velocity": 51,
                "duration": 0.05000000000000071,
                "tempo": 120.0
            },
            {
                "start_time": 28.76590909090909,
                "end_time": 28.815909090909088,
                "pitch": 57,
                "velocity": 51,
                "duration": 0.04999999999999716,
                "tempo": 120.0
            },
            {
                "start_time": 28.86590909090909,
                "end_time": 28.94772727272727,
                "pitch": 57,
                "velocity": 51,
                "duration": 0.08181818181818201,
                "tempo": 120.0
            },
            {
                "start_time": 29.049999999999997,
                "end_time": 29.136363636363637,
                "pitch": 57,
                "velocity": 51,
                "duration": 0.08636363636363953,
                "tempo": 120.0
            },
            {
                "start_time": 29.245454545454542,
                "end_time": 29.331818181818182,
                "pitch": 57,
                "velocity": 51,
                "duration": 0.08636363636363953,
                "tempo": 120.0
            },
            {
                "start_time": 29.438636363636363,
                "end_time": 29.536363636363635,
                "pitch": 57,
                "velocity": 51,
                "duration": 0.09772727272727266,
                "tempo": 120.0
            },
            {
                "start_time": 29.634090909090908,
                "end_time": 29.71363636363636,
                "pitch": 57,
                "velocity": 51,
                "duration": 0.07954545454545325,
                "tempo": 120.0
            },
            {
                "start_time": 29.813636363636363,
                "end_time": 29.9,
                "pitch": 57,
                "velocity": 51,
                "duration": 0.08636363636363598,
                "tempo": 120.0
            },
            {
                "start_time": 30.004545454545454,
                "end_time": 30.08863636363636,
                "pitch": 57,
                "velocity": 51,
                "duration": 0.08409090909090722,
                "tempo": 120.0
            },
            {
                "start_time": 30.193181818181817,
                "end_time": 30.24090909090909,
                "pitch": 57,
                "velocity": 51,
                "duration": 0.04772727272727195,
                "tempo": 120.0
            },
            {
                "start_time": 30.293181818181818,
                "end_time": 30.343181818181815,
                "pitch": 57,
                "velocity": 51,
                "duration": 0.04999999999999716,
                "tempo": 120.0
            },
            {
                "start_time": 30.393181818181816,
                "end_time": 30.474999999999998,
                "pitch": 55,
                "velocity": 51,
                "duration": 0.08181818181818201,
                "tempo": 120.0
            },
            {
                "start_time": 30.577272727272724,
                "end_time": 30.66363636363636,
                "pitch": 55,
                "velocity": 51,
                "duration": 0.08636363636363598,
                "tempo": 120.0
            },
            {
                "start_time": 30.77272727272727,
                "end_time": 30.85909090909091,
                "pitch": 55,
                "velocity": 51,
                "duration": 0.08636363636363953,
                "tempo": 120.0
            },
            {
                "start_time": 30.96590909090909,
                "end_time": 31.061363636363634,
                "pitch": 55,
                "velocity": 51,
                "duration": 0.0954545454545439,
                "tempo": 120.0
            },
            {
                "start_time": 31.161363636363635,
                "end_time": 31.24090909090909,
                "pitch": 55,
                "velocity": 51,
                "duration": 0.07954545454545325,
                "tempo": 120.0
            },
            {
                "start_time": 31.34090909090909,
                "end_time": 31.427272727272726,
                "pitch": 55,
                "velocity": 51,
                "duration": 0.08636363636363598,
                "tempo": 120.0
            },
            {
                "start_time": 31.534090909090907,
                "end_time": 31.62272727272727,
                "pitch": 55,
                "velocity": 51,
                "duration": 0.08863636363636473,
                "tempo": 120.0
            },
            {
                "start_time": 31.729545454545452,
                "end_time": 31.777272727272727,
                "pitch": 55,
                "velocity": 51,
                "duration": 0.047727272727275505,
                "tempo": 120.0
            },
            {
                "start_time": 31.825,
                "end_time": 31.875,
                "pitch": 55,
                "velocity": 51,
                "duration": 0.05000000000000071,
                "tempo": 120.0
            },
            {
                "start_time": 31.924999999999997,
                "end_time": 32.00454545454545,
                "pitch": 55,
                "velocity": 51,
                "duration": 0.07954545454545325,
                "tempo": 120.0
            },
            {
                "start_time": 32.10454545454545,
                "end_time": 32.19090909090909,
                "pitch": 55,
                "velocity": 51,
                "duration": 0.08636363636363598,
                "tempo": 120.0
            },
            {
                "start_time": 32.29772727272727,
                "end_time": 32.38636363636363,
                "pitch": 55,
                "velocity": 51,
                "duration": 0.08863636363636118,
                "tempo": 120.0
            },
            {
                "start_time": 32.49318181818182,
                "end_time": 32.59318181818182,
                "pitch": 55,
                "velocity": 51,
                "duration": 0.10000000000000142,
                "tempo": 120.0
            },
            {
                "start_time": 32.69318181818182,
                "end_time": 32.775,
                "pitch": 55,
                "velocity": 51,
                "duration": 0.08181818181817846,
                "tempo": 120.0
            },
            {
                "start_time": 32.877272727272725,
                "end_time": 32.961363636363636,
                "pitch": 55,
                "velocity": 51,
                "duration": 0.08409090909091077,
                "tempo": 120.0
            },
            {
                "start_time": 33.06818181818182,
                "end_time": 33.152272727272724,
                "pitch": 55,
                "velocity": 51,
                "duration": 0.08409090909090366,
                "tempo": 120.0
            },
            {
                "start_time": 33.25681818181818,
                "end_time": 33.304545454545455,
                "pitch": 55,
                "velocity": 51,
                "duration": 0.04772727272727195,
                "tempo": 120.0
            },
            {
                "start_time": 33.35681818181818,
                "end_time": 33.40681818181818,
                "pitch": 55,
                "velocity": 51,
                "duration": 0.05000000000000426,
                "tempo": 120.0
            },
            {
                "start_time": 33.45681818181818,
                "end_time": 33.538636363636364,
                "pitch": 57,
                "velocity": 51,
                "duration": 0.08181818181818556,
                "tempo": 120.0
            },
            {
                "start_time": 33.64090909090909,
                "end_time": 33.725,
                "pitch": 57,
                "velocity": 51,
                "duration": 0.08409090909091077,
                "tempo": 120.0
            },
            {
                "start_time": 33.82954545454545,
                "end_time": 33.91590909090909,
                "pitch": 57,
                "velocity": 51,
                "duration": 0.08636363636363598,
                "tempo": 120.0
            },
            {
                "start_time": 34.02045454545454,
                "end_time": 34.11818181818182,
                "pitch": 57,
                "velocity": 51,
                "duration": 0.09772727272727622,
                "tempo": 120.0
            },
            {
                "start_time": 34.220454545454544,
                "end_time": 34.30227272727272,
                "pitch": 57,
                "velocity": 51,
                "duration": 0.08181818181817846,
                "tempo": 120.0
            },
            {
                "start_time": 34.404545454545456,
                "end_time": 34.48863636363636,
                "pitch": 57,
                "velocity": 51,
                "duration": 0.08409090909090366,
                "tempo": 120.0
            },
            {
                "start_time": 34.59318181818182,
                "end_time": 34.679545454545455,
                "pitch": 57,
                "velocity": 51,
                "duration": 0.08636363636363598,
                "tempo": 120.0
            },
            {
                "start_time": 34.78409090909091,
                "end_time": 34.83181818181818,
                "pitch": 57,
                "velocity": 51,
                "duration": 0.04772727272727195,
                "tempo": 120.0
            },
            {
                "start_time": 34.88181818181818,
                "end_time": 34.93181818181818,
                "pitch": 57,
                "velocity": 51,
                "duration": 0.04999999999999716,
                "tempo": 120.0
            },
            {
                "start_time": 34.98409090909091,
                "end_time": 35.06590909090909,
                "pitch": 57,
                "velocity": 51,
                "duration": 0.08181818181817846,
                "tempo": 120.0
            },
            {
                "start_time": 35.168181818181814,
                "end_time": 35.252272727272725,
                "pitch": 57,
                "velocity": 51,
                "duration": 0.08409090909091077,
                "tempo": 120.0
            },
            {
                "start_time": 35.35681818181818,
                "end_time": 35.44318181818181,
                "pitch": 57,
                "velocity": 51,
                "duration": 0.08636363636363598,
                "tempo": 120.0
            },
            {
                "start_time": 35.54772727272727,
                "end_time": 35.64545454545454,
                "pitch": 57,
                "velocity": 51,
                "duration": 0.09772727272726911,
                "tempo": 120.0
            },
            {
                "start_time": 35.74772727272727,
                "end_time": 35.82954545454545,
                "pitch": 57,
                "velocity": 51,
                "duration": 0.08181818181818556,
                "tempo": 120.0
            },
            {
                "start_time": 35.93181818181818,
                "end_time": 36.01590909090909,
                "pitch": 57,
                "velocity": 51,
                "duration": 0.08409090909091077,
                "tempo": 120.0
            },
            {
                "start_time": 36.12045454545454,
                "end_time": 36.20681818181818,
                "pitch": 57,
                "velocity": 51,
                "duration": 0.08636363636363598,
                "tempo": 120.0
            },
            {
                "start_time": 36.31136363636364,
                "end_time": 36.35909090909091,
                "pitch": 57,
                "velocity": 51,
                "duration": 0.04772727272727195,
                "tempo": 120.0
            },
            {
                "start_time": 36.40909090909091,
                "end_time": 36.45909090909091,
                "pitch": 57,
                "velocity": 51,
                "duration": 0.05000000000000426,
                "tempo": 120.0
            },
            {
                "start_time": 36.51136363636363,
                "end_time": 36.59318181818182,
                "pitch": 48,
                "velocity": 51,
                "duration": 0.08181818181818556,
                "tempo": 120.0
            },
            {
                "start_time": 36.695454545454545,
                "end_time": 36.78181818181818,
                "pitch": 48,
                "velocity": 51,
                "duration": 0.08636363636363598,
                "tempo": 120.0
            },
            {
                "start_time": 36.88863636363636,
                "end_time": 36.975,
                "pitch": 48,
                "velocity": 51,
                "duration": 0.08636363636364308,
                "tempo": 120.0
            },
            {
                "start_time": 37.08409090909091,
                "end_time": 37.179545454545455,
                "pitch": 48,
                "velocity": 51,
                "duration": 0.0954545454545439,
                "tempo": 120.0
            },
            {
                "start_time": 37.279545454545456,
                "end_time": 37.35909090909091,
                "pitch": 48,
                "velocity": 51,
                "duration": 0.07954545454545325,
                "tempo": 120.0
            },
            {
                "start_time": 37.45909090909091,
                "end_time": 37.543181818181814,
                "pitch": 48,
                "velocity": 51,
                "duration": 0.08409090909090366,
                "tempo": 120.0
            },
            {
                "start_time": 37.64772727272727,
                "end_time": 37.73409090909091,
                "pitch": 48,
                "velocity": 51,
                "duration": 0.08636363636363598,
                "tempo": 120.0
            },
            {
                "start_time": 37.83863636363636,
                "end_time": 37.88636363636363,
                "pitch": 48,
                "velocity": 51,
                "duration": 0.04772727272727195,
                "tempo": 120.0
            },
            {
                "start_time": 37.93636363636364,
                "end_time": 37.986363636363635,
                "pitch": 48,
                "velocity": 51,
                "duration": 0.04999999999999716,
                "tempo": 120.0
            },
            {
                "start_time": 38.038636363636364,
                "end_time": 38.12045454545454,
                "pitch": 48,
                "velocity": 51,
                "duration": 0.08181818181817846,
                "tempo": 120.0
            },
            {
                "start_time": 38.22272727272727,
                "end_time": 38.309090909090905,
                "pitch": 48,
                "velocity": 51,
                "duration": 0.08636363636363598,
                "tempo": 120.0
            },
            {
                "start_time": 38.41590909090909,
                "end_time": 38.502272727272725,
                "pitch": 48,
                "velocity": 51,
                "duration": 0.08636363636363598,
                "tempo": 120.0
            },
            {
                "start_time": 38.611363636363635,
                "end_time": 38.70681818181818,
                "pitch": 48,
                "velocity": 51,
                "duration": 0.0954545454545439,
                "tempo": 120.0
            },
            {
                "start_time": 38.80681818181818,
                "end_time": 38.88636363636363,
                "pitch": 48,
                "velocity": 51,
                "duration": 0.07954545454545325,
                "tempo": 120.0
            },
            {
                "start_time": 38.986363636363635,
                "end_time": 39.07272727272727,
                "pitch": 48,
                "velocity": 51,
                "duration": 0.08636363636363598,
                "tempo": 120.0
            },
            {
                "start_time": 39.179545454545455,
                "end_time": 39.26590909090909,
                "pitch": 48,
                "velocity": 51,
                "duration": 0.08636363636363598,
                "tempo": 120.0
            },
            {
                "start_time": 39.37272727272727,
                "end_time": 39.42045454545455,
                "pitch": 48,
                "velocity": 51,
                "duration": 0.04772727272727906,
                "tempo": 120.0
            },
            {
                "start_time": 39.470454545454544,
                "end_time": 39.52045454545454,
                "pitch": 48,
                "velocity": 51,
                "duration": 0.04999999999999716,
                "tempo": 120.0
            },
            {
                "start_time": 39.570454545454545,
                "end_time": 39.65,
                "pitch": 50,
                "velocity": 51,
                "duration": 0.07954545454545325,
                "tempo": 120.0
            },
            {
                "start_time": 39.74772727272727,
                "end_time": 39.836363636363636,
                "pitch": 50,
                "velocity": 51,
                "duration": 0.08863636363636829,
                "tempo": 120.0
            },
            {
                "start_time": 39.94318181818181,
                "end_time": 40.029545454545456,
                "pitch": 50,
                "velocity": 51,
                "duration": 0.08636363636364308,
                "tempo": 120.0
            },
            {
                "start_time": 40.13863636363636,
                "end_time": 40.236363636363635,
                "pitch": 50,
                "velocity": 51,
                "duration": 0.09772727272727622,
                "tempo": 120.0
            },
            {
                "start_time": 40.33863636363636,
                "end_time": 40.42045454545455,
                "pitch": 50,
                "velocity": 51,
                "duration": 0.08181818181818556,
                "tempo": 120.0
            },
            {
                "start_time": 40.52272727272727,
                "end_time": 40.60681818181818,
                "pitch": 50,
                "velocity": 51,
                "duration": 0.08409090909090366,
                "tempo": 120.0
            },
            {
                "start_time": 40.711363636363636,
                "end_time": 40.79545454545455,
                "pitch": 50,
                "velocity": 51,
                "duration": 0.08409090909091077,
                "tempo": 120.0
            },
            {
                "start_time": 40.902272727272724,
                "end_time": 40.949999999999996,
                "pitch": 50,
                "velocity": 51,
                "duration": 0.04772727272727195,
                "tempo": 120.0
            },
            {
                "start_time": 41.0,
                "end_time": 41.05,
                "pitch": 50,
                "velocity": 51,
                "duration": 0.04999999999999716,
                "tempo": 120.0
            },
            {
                "start_time": 41.10227272727273,
                "end_time": 41.184090909090905,
                "pitch": 50,
                "velocity": 51,
                "duration": 0.08181818181817846,
                "tempo": 120.0
            },
            {
                "start_time": 41.28636363636363,
                "end_time": 41.37045454545454,
                "pitch": 50,
                "velocity": 51,
                "duration": 0.08409090909091077,
                "tempo": 120.0
            },
            {
                "start_time": 41.475,
                "end_time": 41.559090909090905,
                "pitch": 50,
                "velocity": 51,
                "duration": 0.08409090909090366,
                "tempo": 120.0
            },
            {
                "start_time": 41.663636363636364,
                "end_time": 41.76363636363636,
                "pitch": 50,
                "velocity": 51,
                "duration": 0.09999999999999432,
                "tempo": 120.0
            },
            {
                "start_time": 41.86590909090909,
                "end_time": 41.94772727272727,
                "pitch": 50,
                "velocity": 51,
                "duration": 0.08181818181817846,
                "tempo": 120.0
            },
            {
                "start_time": 42.05,
                "end_time": 42.13409090909091,
                "pitch": 50,
                "velocity": 51,
                "duration": 0.08409090909091077,
                "tempo": 120.0
            },
            {
                "start_time": 42.23863636363636,
                "end_time": 42.32272727272727,
                "pitch": 50,
                "velocity": 51,
                "duration": 0.08409090909091077,
                "tempo": 120.0
            },
            {
                "start_time": 42.42727272727272,
                "end_time": 42.47727272727273,
                "pitch": 50,
                "velocity": 51,
                "duration": 0.05000000000000426,
                "tempo": 120.0
            },
            {
                "start_time": 42.527272727272724,
                "end_time": 42.57727272727273,
                "pitch": 50,
                "velocity": 51,
                "duration": 0.05000000000000426,
                "tempo": 120.0
            },
            {
                "start_time": 42.62954545454545,
                "end_time": 42.711363636363636,
                "pitch": 52,
                "velocity": 51,
                "duration": 0.08181818181818556,
                "tempo": 120.0
            },
            {
                "start_time": 42.81136363636364,
                "end_time": 42.89772727272727,
                "pitch": 52,
                "velocity": 51,
                "duration": 0.08636363636363598,
                "tempo": 120.0
            },
            {
                "start_time": 43.002272727272725,
                "end_time": 43.086363636363636,
                "pitch": 52,
                "velocity": 51,
                "duration": 0.08409090909091077,
                "tempo": 120.0
            },
            {
                "start_time": 43.19090909090909,
                "end_time": 43.29090909090909,
                "pitch": 52,
                "velocity": 51,
                "duration": 0.10000000000000142,
                "tempo": 120.0
            },
            {
                "start_time": 43.39090909090909,
                "end_time": 43.475,
                "pitch": 52,
                "velocity": 51,
                "duration": 0.08409090909091077,
                "tempo": 120.0
            },
            {
                "start_time": 43.574999999999996,
                "end_time": 43.66136363636363,
                "pitch": 52,
                "velocity": 51,
                "duration": 0.08636363636363598,
                "tempo": 120.0
            },
            {
                "start_time": 43.76590909090909,
                "end_time": 43.85,
                "pitch": 52,
                "velocity": 51,
                "duration": 0.08409090909091077,
                "tempo": 120.0
            },
            {
                "start_time": 43.95454545454545,
                "end_time": 44.00454545454545,
                "pitch": 52,
                "velocity": 51,
                "duration": 0.04999999999999716,
                "tempo": 120.0
            },
            {
                "start_time": 44.054545454545455,
                "end_time": 44.10454545454545,
                "pitch": 52,
                "velocity": 51,
                "duration": 0.04999999999999716,
                "tempo": 120.0
            },
            {
                "start_time": 44.15454545454545,
                "end_time": 44.23863636363636,
                "pitch": 52,
                "velocity": 51,
                "duration": 0.08409090909091077,
                "tempo": 120.0
            },
            {
                "start_time": 44.33863636363636,
                "end_time": 44.425,
                "pitch": 52,
                "velocity": 51,
                "duration": 0.08636363636363598,
                "tempo": 120.0
            },
            {
                "start_time": 44.53409090909091,
                "end_time": 44.62045454545454,
                "pitch": 52,
                "velocity": 51,
                "duration": 0.08636363636363598,
                "tempo": 120.0
            },
            {
                "start_time": 44.72727272727273,
                "end_time": 44.824999999999996,
                "pitch": 52,
                "velocity": 51,
                "duration": 0.09772727272726911,
                "tempo": 120.0
            },
            {
                "start_time": 44.92272727272727,
                "end_time": 45.00454545454545,
                "pitch": 52,
                "velocity": 51,
                "duration": 0.08181818181817846,
                "tempo": 120.0
            },
            {
                "start_time": 45.10227272727273,
                "end_time": 45.18863636363636,
                "pitch": 52,
                "velocity": 51,
                "duration": 0.08636363636363598,
                "tempo": 120.0
            },
            {
                "start_time": 45.293181818181814,
                "end_time": 45.377272727272725,
                "pitch": 52,
                "velocity": 51,
                "duration": 0.08409090909091077,
                "tempo": 120.0
            },
            {
                "start_time": 45.48181818181818,
                "end_time": 45.53181818181818,
                "pitch": 52,
                "velocity": 51,
                "duration": 0.05000000000000426,
                "tempo": 120.0
            },
            {
                "start_time": 45.58181818181818,
                "end_time": 45.63181818181818,
                "pitch": 52,
                "velocity": 51,
                "duration": 0.05000000000000426,
                "tempo": 120.0
            },
            {
                "start_time": 45.68181818181818,
                "end_time": 45.76590909090909,
                "pitch": 48,
                "velocity": 51,
                "duration": 0.08409090909091077,
                "tempo": 120.0
            },
            {
                "start_time": 45.85454545454545,
                "end_time": 45.92272727272727,
                "pitch": 48,
                "velocity": 51,
                "duration": 0.06818181818182012,
                "tempo": 120.0
            },
            {
                "start_time": 46.00909090909091,
                "end_time": 46.07727272727273,
                "pitch": 48,
                "velocity": 51,
                "duration": 0.06818181818182012,
                "tempo": 120.0
            },
            {
                "start_time": 46.16590909090909,
                "end_time": 46.252272727272725,
                "pitch": 48,
                "velocity": 51,
                "duration": 0.08636363636363598,
                "tempo": 120.0
            },
            {
                "start_time": 46.33863636363636,
                "end_time": 46.413636363636364,
                "pitch": 48,
                "velocity": 51,
                "duration": 0.07500000000000284,
                "tempo": 120.0
            },
            {
                "start_time": 46.50454545454545,
                "end_time": 46.57727272727273,
                "pitch": 48,
                "velocity": 51,
                "duration": 0.07272727272727764,
                "tempo": 120.0
            },
            {
                "start_time": 46.668181818181814,
                "end_time": 46.74772727272727,
                "pitch": 48,
                "velocity": 51,
                "duration": 0.07954545454545325,
                "tempo": 120.0
            },
            {
                "start_time": 46.84772727272727,
                "end_time": 46.89545454545454,
                "pitch": 48,
                "velocity": 51,
                "duration": 0.04772727272727195,
                "tempo": 120.0
            },
            {
                "start_time": 46.94318181818181,
                "end_time": 46.99318181818182,
                "pitch": 48,
                "velocity": 51,
                "duration": 0.05000000000000426,
                "tempo": 120.0
            },
            {
                "start_time": 47.043181818181814,
                "end_time": 47.127272727272725,
                "pitch": 48,
                "velocity": 51,
                "duration": 0.08409090909091077,
                "tempo": 120.0
            },
            {
                "start_time": 47.23409090909091,
                "end_time": 47.31818181818181,
                "pitch": 48,
                "velocity": 51,
                "duration": 0.08409090909090366,
                "tempo": 120.0
            },
            {
                "start_time": 47.42272727272727,
                "end_time": 47.50454545454545,
                "pitch": 48,
                "velocity": 51,
                "duration": 0.08181818181817846,
                "tempo": 120.0
            },
            {
                "start_time": 47.60681818181818,
                "end_time": 47.70454545454545,
                "pitch": 48,
                "velocity": 51,
                "duration": 0.09772727272727622,
                "tempo": 120.0
            },
            {
                "start_time": 47.80681818181818,
                "end_time": 47.89090909090909,
                "pitch": 48,
                "velocity": 51,
                "duration": 0.08409090909091077,
                "tempo": 120.0
            },
            {
                "start_time": 47.99545454545454,
                "end_time": 48.08181818181818,
                "pitch": 48,
                "velocity": 51,
                "duration": 0.08636363636363598,
                "tempo": 120.0
            },
            {
                "start_time": 48.18636363636364,
                "end_time": 48.268181818181816,
                "pitch": 48,
                "velocity": 51,
                "duration": 0.08181818181817846,
                "tempo": 120.0
            },
            {
                "start_time": 48.37045454545454,
                "end_time": 48.418181818181814,
                "pitch": 48,
                "velocity": 51,
                "duration": 0.04772727272727195,
                "tempo": 120.0
            },
            {
                "start_time": 48.46818181818182,
                "end_time": 48.518181818181816,
                "pitch": 48,
                "velocity": 51,
                "duration": 0.04999999999999716,
                "tempo": 120.0
            }
        ],
        "Acoustic Grand Piano": [
            {
                "start_time": 27.34090909090909,
                "end_time": 27.525,
                "pitch": 78,
                "velocity": 51,
                "duration": 0.18409090909090864,
                "tempo": 120.0
            },
            {
                "start_time": 27.525,
                "end_time": 27.71363636363636,
                "pitch": 74,
                "velocity": 51,
                "duration": 0.1886363636363626,
                "tempo": 120.0
            },
            {
                "start_time": 27.71363636363636,
                "end_time": 27.904545454545453,
                "pitch": 69,
                "velocity": 51,
                "duration": 0.19090909090909136,
                "tempo": 120.0
            },
            {
                "start_time": 27.904545454545453,
                "end_time": 28.104545454545452,
                "pitch": 78,
                "velocity": 51,
                "duration": 0.1999999999999993,
                "tempo": 120.0
            },
            {
                "start_time": 28.104545454545452,
                "end_time": 28.288636363636364,
                "pitch": 74,
                "velocity": 51,
                "duration": 0.1840909090909122,
                "tempo": 120.0
            },
            {
                "start_time": 28.288636363636364,
                "end_time": 28.477272727272727,
                "pitch": 69,
                "velocity": 51,
                "duration": 0.1886363636363626,
                "tempo": 120.0
            },
            {
                "start_time": 28.477272727272727,
                "end_time": 28.579545454545453,
                "pitch": 78,
                "velocity": 51,
                "duration": 0.10227272727272663,
                "tempo": 120.0
            },
            {
                "start_time": 28.579545454545453,
                "end_time": 28.66590909090909,
                "pitch": 74,
                "velocity": 51,
                "duration": 0.08636363636363598,
                "tempo": 120.0
            },
            {
                "start_time": 28.668181818181818,
                "end_time": 28.868181818181817,
                "pitch": 69,
                "velocity": 51,
                "duration": 0.1999999999999993,
                "tempo": 120.0
            },
            {
                "start_time": 28.868181818181817,
                "end_time": 29.049999999999997,
                "pitch": 78,
                "velocity": 51,
                "duration": 0.18181818181817988,
                "tempo": 120.0
            },
            {
                "start_time": 29.052272727272726,
                "end_time": 29.245454545454542,
                "pitch": 74,
                "velocity": 51,
                "duration": 0.19318181818181657,
                "tempo": 120.0
            },
            {
                "start_time": 29.245454545454542,
                "end_time": 29.438636363636363,
                "pitch": 69,
                "velocity": 51,
                "duration": 0.19318181818182012,
                "tempo": 120.0
            },
            {
                "start_time": 29.440909090909088,
                "end_time": 29.634090909090908,
                "pitch": 78,
                "velocity": 51,
                "duration": 0.19318181818182012,
                "tempo": 120.0
            },
            {
                "start_time": 29.636363636363637,
                "end_time": 29.815909090909088,
                "pitch": 74,
                "velocity": 51,
                "duration": 0.17954545454545112,
                "tempo": 120.0
            },
            {
                "start_time": 29.815909090909088,
                "end_time": 30.004545454545454,
                "pitch": 69,
                "velocity": 51,
                "duration": 0.18863636363636616,
                "tempo": 120.0
            },
            {
                "start_time": 30.004545454545454,
                "end_time": 30.10681818181818,
                "pitch": 78,
                "velocity": 51,
                "duration": 0.10227272727272663,
                "tempo": 120.0
            },
            {
                "start_time": 30.10681818181818,
                "end_time": 30.193181818181817,
                "pitch": 74,
                "velocity": 51,
                "duration": 0.08636363636363598,
                "tempo": 120.0
            },
            {
                "start_time": 30.193181818181817,
                "end_time": 30.395454545454545,
                "pitch": 69,
                "velocity": 51,
                "duration": 0.20227272727272805,
                "tempo": 120.0
            },
            {
                "start_time": 30.395454545454545,
                "end_time": 30.577272727272724,
                "pitch": 76,
                "velocity": 51,
                "duration": 0.18181818181817988,
                "tempo": 120.0
            },
            {
                "start_time": 30.577272727272724,
                "end_time": 30.77272727272727,
                "pitch": 72,
                "velocity": 51,
                "duration": 0.19545454545454533,
                "tempo": 120.0
            },
            {
                "start_time": 30.77272727272727,
                "end_time": 30.96590909090909,
                "pitch": 67,
                "velocity": 51,
                "duration": 0.19318181818182012,
                "tempo": 120.0
            },
            {
                "start_time": 30.96590909090909,
                "end_time": 31.161363636363635,
                "pitch": 76,
                "velocity": 51,
                "duration": 0.19545454545454533,
                "tempo": 120.0
            },
            {
                "start_time": 31.161363636363635,
                "end_time": 31.34090909090909,
                "pitch": 72,
                "velocity": 51,
                "duration": 0.17954545454545467,
                "tempo": 120.0
            },
            {
                "start_time": 31.34090909090909,
                "end_time": 31.536363636363635,
                "pitch": 67,
                "velocity": 51,
                "duration": 0.19545454545454533,
                "tempo": 120.0
            },
            {
                "start_time": 31.536363636363635,
                "end_time": 31.64090909090909,
                "pitch": 76,
                "velocity": 51,
                "duration": 0.10454545454545539,
                "tempo": 120.0
            },
            {
                "start_time": 31.64090909090909,
                "end_time": 31.729545454545452,
                "pitch": 72,
                "velocity": 51,
                "duration": 0.08863636363636118,
                "tempo": 120.0
            },
            {
                "start_time": 31.729545454545452,
                "end_time": 31.924999999999997,
                "pitch": 67,
                "velocity": 51,
                "duration": 0.19545454545454533,
                "tempo": 120.0
            },
            {
                "start_time": 31.924999999999997,
                "end_time": 32.10454545454545,
                "pitch": 76,
                "velocity": 51,
                "duration": 0.17954545454545467,
                "tempo": 120.0
            },
            {
                "start_time": 32.10454545454545,
                "end_time": 32.3,
                "pitch": 72,
                "velocity": 51,
                "duration": 0.19545454545454533,
                "tempo": 120.0
            },
            {
                "start_time": 32.3,
                "end_time": 32.49318181818182,
                "pitch": 67,
                "velocity": 51,
                "duration": 0.19318181818182012,
                "tempo": 120.0
            },
            {
                "start_time": 32.49318181818182,
                "end_time": 32.695454545454545,
                "pitch": 76,
                "velocity": 51,
                "duration": 0.20227272727272805,
                "tempo": 120.0
            },
            {
                "start_time": 32.695454545454545,
                "end_time": 32.877272727272725,
                "pitch": 72,
                "velocity": 51,
                "duration": 0.18181818181817988,
                "tempo": 120.0
            },
            {
                "start_time": 32.87954545454545,
                "end_time": 33.06818181818182,
                "pitch": 67,
                "velocity": 51,
                "duration": 0.1886363636363697,
                "tempo": 120.0
            },
            {
                "start_time": 33.06818181818182,
                "end_time": 33.17045454545455,
                "pitch": 76,
                "velocity": 51,
                "duration": 0.10227272727272663,
                "tempo": 120.0
            },
            {
                "start_time": 33.17045454545455,
                "end_time": 33.25681818181818,
                "pitch": 72,
                "velocity": 51,
                "duration": 0.08636363636363598,
                "tempo": 120.0
            },
            {
                "start_time": 33.25681818181818,
                "end_time": 33.45909090909091,
                "pitch": 67,
                "velocity": 51,
                "duration": 0.20227272727272805,
                "tempo": 120.0
            },
            {
                "start_time": 33.45909090909091,
                "end_time": 33.64090909090909,
                "pitch": 78,
                "velocity": 51,
                "duration": 0.18181818181817988,
                "tempo": 120.0
            },
            {
                "start_time": 33.643181818181816,
                "end_time": 33.83181818181818,
                "pitch": 74,
                "velocity": 51,
                "duration": 0.1886363636363626,
                "tempo": 120.0
            },
            {
                "start_time": 33.83181818181818,
                "end_time": 34.02045454545454,
                "pitch": 69,
                "velocity": 51,
                "duration": 0.1886363636363626,
                "tempo": 120.0
            },
            {
                "start_time": 34.02045454545454,
                "end_time": 34.220454545454544,
                "pitch": 78,
                "velocity": 51,
                "duration": 0.20000000000000284,
                "tempo": 120.0
            },
            {
                "start_time": 34.22272727272727,
                "end_time": 34.404545454545456,
                "pitch": 74,
                "velocity": 51,
                "duration": 0.18181818181818699,
                "tempo": 120.0
            },
            {
                "start_time": 34.404545454545456,
                "end_time": 34.595454545454544,
                "pitch": 69,
                "velocity": 51,
                "duration": 0.1909090909090878,
                "tempo": 120.0
            },
            {
                "start_time": 34.595454545454544,
                "end_time": 34.69772727272727,
                "pitch": 78,
                "velocity": 51,
                "duration": 0.10227272727272663,
                "tempo": 120.0
            },
            {
                "start_time": 34.69772727272727,
                "end_time": 34.78409090909091,
                "pitch": 74,
                "velocity": 51,
                "duration": 0.08636363636363598,
                "tempo": 120.0
            },
            {
                "start_time": 34.78409090909091,
                "end_time": 34.98409090909091,
                "pitch": 69,
                "velocity": 51,
                "duration": 0.20000000000000284,
                "tempo": 120.0
            },
            {
                "start_time": 34.98409090909091,
                "end_time": 35.168181818181814,
                "pitch": 78,
                "velocity": 51,
                "duration": 0.18409090909090509,
                "tempo": 120.0
            },
            {
                "start_time": 35.168181818181814,
                "end_time": 35.35909090909091,
                "pitch": 74,
                "velocity": 51,
                "duration": 0.19090909090909491,
                "tempo": 120.0
            },
            {
                "start_time": 35.35909090909091,
                "end_time": 35.54772727272727,
                "pitch": 69,
                "velocity": 51,
                "duration": 0.1886363636363626,
                "tempo": 120.0
            },
            {
                "start_time": 35.54772727272727,
                "end_time": 35.74772727272727,
                "pitch": 78,
                "velocity": 51,
                "duration": 0.19999999999999574,
                "tempo": 120.0
            },
            {
                "start_time": 35.74772727272727,
                "end_time": 35.93181818181818,
                "pitch": 74,
                "velocity": 51,
                "duration": 0.1840909090909122,
                "tempo": 120.0
            },
            {
                "start_time": 35.93181818181818,
                "end_time": 36.12272727272727,
                "pitch": 69,
                "velocity": 51,
                "duration": 0.1909090909090878,
                "tempo": 120.0
            },
            {
                "start_time": 36.12272727272727,
                "end_time": 36.225,
                "pitch": 78,
                "velocity": 51,
                "duration": 0.10227272727273373,
                "tempo": 120.0
            },
            {
                "start_time": 36.225,
                "end_time": 36.31136363636364,
                "pitch": 74,
                "velocity": 51,
                "duration": 0.08636363636363598,
                "tempo": 120.0
            },
            {
                "start_time": 36.31136363636364,
                "end_time": 36.51136363636363,
                "pitch": 69,
                "velocity": 51,
                "duration": 0.19999999999999574,
                "tempo": 120.0
            },
            {
                "start_time": 36.51136363636363,
                "end_time": 36.695454545454545,
                "pitch": 81,
                "velocity": 51,
                "duration": 0.1840909090909122,
                "tempo": 120.0
            },
            {
                "start_time": 36.695454545454545,
                "end_time": 36.88863636363636,
                "pitch": 77,
                "velocity": 51,
                "duration": 0.19318181818181301,
                "tempo": 120.0
            },
            {
                "start_time": 36.89090909090909,
                "end_time": 37.08409090909091,
                "pitch": 72,
                "velocity": 51,
                "duration": 0.19318181818182012,
                "tempo": 120.0
            },
            {
                "start_time": 37.08409090909091,
                "end_time": 37.279545454545456,
                "pitch": 81,
                "velocity": 51,
                "duration": 0.19545454545454533,
                "tempo": 120.0
            },
            {
                "start_time": 37.279545454545456,
                "end_time": 37.45909090909091,
                "pitch": 77,
                "velocity": 51,
                "duration": 0.17954545454545467,
                "tempo": 120.0
            },
            {
                "start_time": 37.45909090909091,
                "end_time": 37.65,
                "pitch": 72,
                "velocity": 51,
                "duration": 0.1909090909090878,
                "tempo": 120.0
            },
            {
                "start_time": 37.65,
                "end_time": 37.752272727272725,
                "pitch": 81,
                "velocity": 51,
                "duration": 0.10227272727272663,
                "tempo": 120.0
            },
            {
                "start_time": 37.752272727272725,
                "end_time": 37.83863636363636,
                "pitch": 77,
                "velocity": 51,
                "duration": 0.08636363636363598,
                "tempo": 120.0
            },
            {
                "start_time": 37.83863636363636,
                "end_time": 38.038636363636364,
                "pitch": 72,
                "velocity": 51,
                "duration": 0.20000000000000284,
                "tempo": 120.0
            },
            {
                "start_time": 38.038636363636364,
                "end_time": 38.22272727272727,
                "pitch": 81,
                "velocity": 51,
                "duration": 0.18409090909090509,
                "tempo": 120.0
            },
            {
                "start_time": 38.22272727272727,
                "end_time": 38.41590909090909,
                "pitch": 77,
                "velocity": 51,
                "duration": 0.19318181818182012,
                "tempo": 120.0
            },
            {
                "start_time": 38.418181818181814,
                "end_time": 38.611363636363635,
                "pitch": 72,
                "velocity": 51,
                "duration": 0.19318181818182012,
                "tempo": 120.0
            },
            {
                "start_time": 38.611363636363635,
                "end_time": 38.80681818181818,
                "pitch": 81,
                "velocity": 51,
                "duration": 0.19545454545454533,
                "tempo": 120.0
            },
            {
                "start_time": 38.80681818181818,
                "end_time": 38.986363636363635,
                "pitch": 77,
                "velocity": 51,
                "duration": 0.17954545454545467,
                "tempo": 120.0
            },
            {
                "start_time": 38.986363636363635,
                "end_time": 39.179545454545455,
                "pitch": 72,
                "velocity": 51,
                "duration": 0.19318181818182012,
                "tempo": 120.0
            },
            {
                "start_time": 39.18181818181818,
                "end_time": 39.28636363636363,
                "pitch": 81,
                "velocity": 51,
                "duration": 0.10454545454545183,
                "tempo": 120.0
            },
            {
                "start_time": 39.28636363636363,
                "end_time": 39.375,
                "pitch": 77,
                "velocity": 51,
                "duration": 0.08863636363636829,
                "tempo": 120.0
            },
            {
                "start_time": 39.375,
                "end_time": 39.570454545454545,
                "pitch": 72,
                "velocity": 51,
                "duration": 0.19545454545454533,
                "tempo": 120.0
            },
            {
                "start_time": 39.570454545454545,
                "end_time": 39.75,
                "pitch": 74,
                "velocity": 51,
                "duration": 0.17954545454545467,
                "tempo": 120.0
            },
            {
                "start_time": 39.75,
                "end_time": 39.94318181818181,
                "pitch": 79,
                "velocity": 51,
                "duration": 0.19318181818181301,
                "tempo": 120.0
            },
            {
                "start_time": 39.94318181818181,
                "end_time": 40.13863636363636,
                "pitch": 83,
                "velocity": 51,
                "duration": 0.19545454545454533,
                "tempo": 120.0
            },
            {
                "start_time": 40.13863636363636,
                "end_time": 40.33863636363636,
                "pitch": 74,
                "velocity": 51,
                "duration": 0.20000000000000284,
                "tempo": 120.0
            },
            {
                "start_time": 40.33863636363636,
                "end_time": 40.52272727272727,
                "pitch": 79,
                "velocity": 51,
                "duration": 0.1840909090909122,
                "tempo": 120.0
            },
            {
                "start_time": 40.52272727272727,
                "end_time": 40.711363636363636,
                "pitch": 83,
                "velocity": 51,
                "duration": 0.1886363636363626,
                "tempo": 120.0
            },
            {
                "start_time": 40.71363636363636,
                "end_time": 40.81590909090909,
                "pitch": 74,
                "velocity": 51,
                "duration": 0.10227272727272663,
                "tempo": 120.0
            },
            {
                "start_time": 40.81590909090909,
                "end_time": 40.902272727272724,
                "pitch": 79,
                "velocity": 51,
                "duration": 0.08636363636363598,
                "tempo": 120.0
            },
            {
                "start_time": 40.902272727272724,
                "end_time": 41.10227272727273,
                "pitch": 83,
                "velocity": 51,
                "duration": 0.20000000000000284,
                "tempo": 120.0
            },
            {
                "start_time": 41.10227272727273,
                "end_time": 41.28636363636363,
                "pitch": 74,
                "velocity": 51,
                "duration": 0.18409090909090509,
                "tempo": 120.0
            },
            {
                "start_time": 41.28636363636363,
                "end_time": 41.475,
                "pitch": 79,
                "velocity": 51,
                "duration": 0.1886363636363697,
                "tempo": 120.0
            },
            {
                "start_time": 41.47727272727273,
                "end_time": 41.66590909090909,
                "pitch": 83,
                "velocity": 51,
                "duration": 0.1886363636363626,
                "tempo": 120.0
            },
            {
                "start_time": 41.66590909090909,
                "end_time": 41.86590909090909,
                "pitch": 74,
                "velocity": 51,
                "duration": 0.20000000000000284,
                "tempo": 120.0
            },
            {
                "start_time": 41.86590909090909,
                "end_time": 42.05,
                "pitch": 79,
                "velocity": 51,
                "duration": 0.18409090909090509,
                "tempo": 120.0
            },
            {
                "start_time": 42.05,
                "end_time": 42.23863636363636,
                "pitch": 83,
                "velocity": 51,
                "duration": 0.1886363636363626,
                "tempo": 120.0
            },
            {
                "start_time": 42.23863636363636,
                "end_time": 42.340909090909086,
                "pitch": 74,
                "velocity": 51,
                "duration": 0.10227272727272663,
                "tempo": 120.0
            },
            {
                "start_time": 42.340909090909086,
                "end_time": 42.429545454545455,
                "pitch": 79,
                "velocity": 51,
                "duration": 0.08863636363636829,
                "tempo": 120.0
            },
            {
                "start_time": 42.429545454545455,
                "end_time": 42.62954545454545,
                "pitch": 83,
                "velocity": 51,
                "duration": 0.19999999999999574,
                "tempo": 120.0
            },
            {
                "start_time": 42.62954545454545,
                "end_time": 42.81363636363636,
                "pitch": 73,
                "velocity": 51,
                "duration": 0.1840909090909122,
                "tempo": 120.0
            },
            {
                "start_time": 42.81363636363636,
                "end_time": 43.002272727272725,
                "pitch": 76,
                "velocity": 51,
                "duration": 0.1886363636363626,
                "tempo": 120.0
            },
            {
                "start_time": 43.002272727272725,
                "end_time": 43.19318181818181,
                "pitch": 81,
                "velocity": 51,
                "duration": 0.1909090909090878,
                "tempo": 120.0
            },
            {
                "start_time": 43.19318181818181,
                "end_time": 43.393181818181816,
                "pitch": 73,
                "velocity": 51,
                "duration": 0.20000000000000284,
                "tempo": 120.0
            },
            {
                "start_time": 43.393181818181816,
                "end_time": 43.57727272727273,
                "pitch": 76,
                "velocity": 51,
                "duration": 0.1840909090909122,
                "tempo": 120.0
            },
            {
                "start_time": 43.57727272727273,
                "end_time": 43.76590909090909,
                "pitch": 81,
                "velocity": 51,
                "duration": 0.1886363636363626,
                "tempo": 120.0
            },
            {
                "start_time": 43.76590909090909,
                "end_time": 43.86818181818182,
                "pitch": 73,
                "velocity": 51,
                "duration": 0.10227272727272663,
                "tempo": 120.0
            },
            {
                "start_time": 43.86818181818182,
                "end_time": 43.95681818181818,
                "pitch": 76,
                "velocity": 51,
                "duration": 0.08863636363636118,
                "tempo": 120.0
            },
            {
                "start_time": 43.95681818181818,
                "end_time": 44.15681818181818,
                "pitch": 81,
                "velocity": 51,
                "duration": 0.20000000000000284,
                "tempo": 120.0
            },
            {
                "start_time": 44.15681818181818,
                "end_time": 44.340909090909086,
                "pitch": 73,
                "velocity": 51,
                "duration": 0.18409090909090509,
                "tempo": 120.0
            },
            {
                "start_time": 44.340909090909086,
                "end_time": 44.53409090909091,
                "pitch": 76,
                "velocity": 51,
                "duration": 0.19318181818182012,
                "tempo": 120.0
            },
            {
                "start_time": 44.53409090909091,
                "end_time": 44.72954545454545,
                "pitch": 81,
                "velocity": 51,
                "duration": 0.19545454545454533,
                "tempo": 120.0
            },
            {
                "start_time": 44.72954545454545,
                "end_time": 44.925,
                "pitch": 73,
                "velocity": 51,
                "duration": 0.19545454545454533,
                "tempo": 120.0
            },
            {
                "start_time": 44.925,
                "end_time": 45.10454545454545,
                "pitch": 76,
                "velocity": 51,
                "duration": 0.17954545454545467,
                "tempo": 120.0
            },
            {
                "start_time": 45.10454545454545,
                "end_time": 45.293181818181814,
                "pitch": 81,
                "velocity": 51,
                "duration": 0.1886363636363626,
                "tempo": 120.0
            },
            {
                "start_time": 45.293181818181814,
                "end_time": 45.39545454545454,
                "pitch": 73,
                "velocity": 51,
                "duration": 0.10227272727272663,
                "tempo": 120.0
            },
            {
                "start_time": 45.39545454545454,
                "end_time": 45.48181818181818,
                "pitch": 76,
                "velocity": 51,
                "duration": 0.08636363636363598,
                "tempo": 120.0
            },
            {
                "start_time": 45.48409090909091,
                "end_time": 45.684090909090905,
                "pitch": 81,
                "velocity": 51,
                "duration": 0.19999999999999574,
                "tempo": 120.0
            },
            {
                "start_time": 45.684090909090905,
                "end_time": 45.76590909090909,
                "pitch": 95,
                "velocity": 51,
                "duration": 0.08181818181818556,
                "tempo": 120.0
            },
            {
                "start_time": 45.76590909090909,
                "end_time": 45.85454545454545,
                "pitch": 90,
                "velocity": 51,
                "duration": 0.08863636363636118,
                "tempo": 120.0
            },
            {
                "start_time": 45.85454545454545,
                "end_time": 45.92272727272727,
                "pitch": 87,
                "velocity": 51,
                "duration": 0.06818181818182012,
                "tempo": 120.0
            },
            {
                "start_time": 45.92272727272727,
                "end_time": 46.00909090909091,
                "pitch": 90,
                "velocity": 51,
                "duration": 0.08636363636363598,
                "tempo": 120.0
            },
            {
                "start_time": 46.00909090909091,
                "end_time": 46.09318181818182,
                "pitch": 87,
                "velocity": 51,
                "duration": 0.08409090909091077,
                "tempo": 120.0
            },
            {
                "start_time": 46.09318181818182,
                "end_time": 46.16590909090909,
                "pitch": 83,
                "velocity": 51,
                "duration": 0.07272727272727053,
                "tempo": 120.0
            },
            {
                "start_time": 46.16590909090909,
                "end_time": 46.252272727272725,
                "pitch": 87,
                "velocity": 51,
                "duration": 0.08636363636363598,
                "tempo": 120.0
            },
            {
                "start_time": 46.252272727272725,
                "end_time": 46.340909090909086,
                "pitch": 83,
                "velocity": 51,
                "duration": 0.08863636363636118,
                "tempo": 120.0
            },
            {
                "start_time": 46.340909090909086,
                "end_time": 46.413636363636364,
                "pitch": 78,
                "velocity": 51,
                "duration": 0.07272727272727764,
                "tempo": 120.0
            },
            {
                "start_time": 46.413636363636364,
                "end_time": 46.50454545454545,
                "pitch": 83,
                "velocity": 51,
                "duration": 0.09090909090908639,
                "tempo": 120.0
            },
            {
                "start_time": 46.50454545454545,
                "end_time": 46.57727272727273,
                "pitch": 78,
                "velocity": 51,
                "duration": 0.07272727272727764,
                "tempo": 120.0
            },
            {
                "start_time": 46.57727272727273,
                "end_time": 46.668181818181814,
                "pitch": 75,
                "velocity": 51,
                "duration": 0.09090909090908639,
                "tempo": 120.0
            },
            {
                "start_time": 46.668181818181814,
                "end_time": 46.76590909090909,
                "pitch": 78,
                "velocity": 51,
                "duration": 0.09772727272727622,
                "tempo": 120.0
            },
            {
                "start_time": 46.76590909090909,
                "end_time": 46.84772727272727,
                "pitch": 75,
                "velocity": 51,
                "duration": 0.08181818181817846,
                "tempo": 120.0
            },
            {
                "start_time": 46.84772727272727,
                "end_time": 46.945454545454545,
                "pitch": 71,
                "velocity": 51,
                "duration": 0.09772727272727622,
                "tempo": 120.0
            },
            {
                "start_time": 46.945454545454545,
                "end_time": 47.043181818181814,
                "pitch": 75,
                "velocity": 51,
                "duration": 0.09772727272726911,
                "tempo": 120.0
            },
            {
                "start_time": 47.04545454545454,
                "end_time": 47.12954545454545,
                "pitch": 71,
                "velocity": 51,
                "duration": 0.08409090909091077,
                "tempo": 120.0
            },
            {
                "start_time": 47.12954545454545,
                "end_time": 47.23409090909091,
                "pitch": 66,
                "velocity": 51,
                "duration": 0.10454545454545894,
                "tempo": 120.0
            },
            {
                "start_time": 47.23409090909091,
                "end_time": 47.31818181818181,
                "pitch": 71,
                "velocity": 51,
                "duration": 0.08409090909090366,
                "tempo": 120.0
            },
            {
                "start_time": 47.31818181818181,
                "end_time": 47.42272727272727,
                "pitch": 66,
                "velocity": 51,
                "duration": 0.10454545454545894,
                "tempo": 120.0
            },
            {
                "start_time": 47.42272727272727,
                "end_time": 47.52272727272727,
                "pitch": 63,
                "velocity": 51,
                "duration": 0.10000000000000142,
                "tempo": 120.0
            },
            {
                "start_time": 47.52272727272727,
                "end_time": 47.60681818181818,
                "pitch": 66,
                "velocity": 51,
                "duration": 0.08409090909090366,
                "tempo": 120.0
            },
            {
                "start_time": 47.60681818181818,
                "end_time": 47.70681818181818,
                "pitch": 63,
                "velocity": 51,
                "duration": 0.10000000000000142,
                "tempo": 120.0
            },
            {
                "start_time": 47.70681818181818,
                "end_time": 47.80681818181818,
                "pitch": 59,
                "velocity": 51,
                "duration": 0.10000000000000142,
                "tempo": 120.0
            },
            {
                "start_time": 47.80681818181818,
                "end_time": 47.893181818181816,
                "pitch": 63,
                "velocity": 51,
                "duration": 0.08636363636363598,
                "tempo": 120.0
            },
            {
                "start_time": 47.893181818181816,
                "end_time": 47.99772727272727,
                "pitch": 59,
                "velocity": 51,
                "duration": 0.10454545454545183,
                "tempo": 120.0
            },
            {
                "start_time": 47.99772727272727,
                "end_time": 48.08181818181818,
                "pitch": 54,
                "velocity": 51,
                "duration": 0.08409090909091077,
                "tempo": 120.0
            },
            {
                "start_time": 48.08181818181818,
                "end_time": 48.18636363636364,
                "pitch": 59,
                "velocity": 51,
                "duration": 0.10454545454545894,
                "tempo": 120.0
            },
            {
                "start_time": 48.18636363636364,
                "end_time": 48.28636363636363,
                "pitch": 54,
                "velocity": 51,
                "duration": 0.09999999999999432,
                "tempo": 120.0
            },
            {
                "start_time": 48.28636363636363,
                "end_time": 48.37045454545454,
                "pitch": 51,
                "velocity": 51,
                "duration": 0.08409090909091077,
                "tempo": 120.0
            },
            {
                "start_time": 48.37045454545454,
                "end_time": 48.470454545454544,
                "pitch": 54,
                "velocity": 51,
                "duration": 0.10000000000000142,
                "tempo": 120.0
            },
            {
                "start_time": 48.470454545454544,
                "end_time": 48.570454545454545,
                "pitch": 51,
                "velocity": 51,
                "duration": 0.10000000000000142,
                "tempo": 120.0
            }
        ],
        "Acoustic Guitar (nylon)": [
            {
                "start_time": 0.0022727272727272726,
                "end_time": 0.1340909090909091,
                "pitch": 36,
                "velocity": 101,
                "duration": 0.13181818181818183,
                "tempo": 120.0
            },
            {
                "start_time": 0.18409090909090908,
                "end_time": 0.3181818181818182,
                "pitch": 36,
                "velocity": 101,
                "duration": 0.1340909090909091,
                "tempo": 120.0
            },
            {
                "start_time": 0.36818181818181817,
                "end_time": 0.5022727272727272,
                "pitch": 36,
                "velocity": 101,
                "duration": 0.13409090909090904,
                "tempo": 120.0
            },
            {
                "start_time": 0.5522727272727272,
                "end_time": 0.7022727272727273,
                "pitch": 36,
                "velocity": 101,
                "duration": 0.15000000000000002,
                "tempo": 120.0
            },
            {
                "start_time": 0.7522727272727272,
                "end_time": 0.8931818181818182,
                "pitch": 36,
                "velocity": 101,
                "duration": 0.14090909090909098,
                "tempo": 120.0
            },
            {
                "start_time": 0.9477272727272726,
                "end_time": 1.0886363636363636,
                "pitch": 36,
                "velocity": 101,
                "duration": 0.14090909090909098,
                "tempo": 120.0
            },
            {
                "start_time": 1.1409090909090909,
                "end_time": 1.2704545454545455,
                "pitch": 36,
                "velocity": 101,
                "duration": 0.12954545454545463,
                "tempo": 120.0
            },
            {
                "start_time": 1.3204545454545453,
                "end_time": 1.4659090909090908,
                "pitch": 36,
                "velocity": 101,
                "duration": 0.1454545454545455,
                "tempo": 120.0
            },
            {
                "start_time": 1.5159090909090909,
                "end_time": 1.6545454545454545,
                "pitch": 35,
                "velocity": 101,
                "duration": 0.13863636363636367,
                "tempo": 120.0
            },
            {
                "start_time": 1.7068181818181818,
                "end_time": 1.843181818181818,
                "pitch": 35,
                "velocity": 101,
                "duration": 0.13636363636363624,
                "tempo": 120.0
            },
            {
                "start_time": 1.8954545454545453,
                "end_time": 2.0295454545454543,
                "pitch": 35,
                "velocity": 101,
                "duration": 0.13409090909090904,
                "tempo": 120.0
            },
            {
                "start_time": 2.0795454545454546,
                "end_time": 2.2295454545454545,
                "pitch": 35,
                "velocity": 101,
                "duration": 0.1499999999999999,
                "tempo": 120.0
            },
            {
                "start_time": 2.2795454545454543,
                "end_time": 2.4204545454545454,
                "pitch": 35,
                "velocity": 101,
                "duration": 0.1409090909090911,
                "tempo": 120.0
            },
            {
                "start_time": 2.475,
                "end_time": 2.6136363636363633,
                "pitch": 35,
                "velocity": 101,
                "duration": 0.13863636363636322,
                "tempo": 120.0
            },
            {
                "start_time": 2.668181818181818,
                "end_time": 2.7977272727272724,
                "pitch": 35,
                "velocity": 101,
                "duration": 0.1295454545454544,
                "tempo": 120.0
            },
            {
                "start_time": 2.8477272727272727,
                "end_time": 2.993181818181818,
                "pitch": 35,
                "velocity": 101,
                "duration": 0.1454545454545455,
                "tempo": 120.0
            },
            {
                "start_time": 3.043181818181818,
                "end_time": 3.184090909090909,
                "pitch": 34,
                "velocity": 101,
                "duration": 0.1409090909090911,
                "tempo": 120.0
            },
            {
                "start_time": 3.2386363636363633,
                "end_time": 3.377272727272727,
                "pitch": 34,
                "velocity": 101,
                "duration": 0.13863636363636367,
                "tempo": 120.0
            },
            {
                "start_time": 3.4318181818181817,
                "end_time": 3.561363636363636,
                "pitch": 34,
                "velocity": 101,
                "duration": 0.1295454545454544,
                "tempo": 120.0
            },
            {
                "start_time": 3.6113636363636363,
                "end_time": 3.756818181818182,
                "pitch": 34,
                "velocity": 101,
                "duration": 0.1454545454545455,
                "tempo": 120.0
            },
            {
                "start_time": 3.8068181818181817,
                "end_time": 3.9477272727272728,
                "pitch": 34,
                "velocity": 101,
                "duration": 0.1409090909090911,
                "tempo": 120.0
            },
            {
                "start_time": 4.002272727272727,
                "end_time": 4.140909090909091,
                "pitch": 34,
                "velocity": 101,
                "duration": 0.13863636363636367,
                "tempo": 120.0
            },
            {
                "start_time": 4.195454545454545,
                "end_time": 4.329545454545454,
                "pitch": 34,
                "velocity": 101,
                "duration": 0.13409090909090882,
                "tempo": 120.0
            },
            {
                "start_time": 4.379545454545454,
                "end_time": 4.529545454545454,
                "pitch": 34,
                "velocity": 101,
                "duration": 0.15000000000000036,
                "tempo": 120.0
            },
            {
                "start_time": 4.579545454545454,
                "end_time": 4.718181818181818,
                "pitch": 35,
                "velocity": 101,
                "duration": 0.13863636363636367,
                "tempo": 120.0
            },
            {
                "start_time": 4.7704545454545455,
                "end_time": 4.906818181818181,
                "pitch": 35,
                "velocity": 101,
                "duration": 0.1363636363636358,
                "tempo": 120.0
            },
            {
                "start_time": 4.959090909090909,
                "end_time": 5.093181818181818,
                "pitch": 35,
                "velocity": 101,
                "duration": 0.13409090909090882,
                "tempo": 120.0
            },
            {
                "start_time": 5.143181818181818,
                "end_time": 5.293181818181818,
                "pitch": 35,
                "velocity": 101,
                "duration": 0.15000000000000036,
                "tempo": 120.0
            },
            {
                "start_time": 5.343181818181818,
                "end_time": 5.4795454545454545,
                "pitch": 35,
                "velocity": 101,
                "duration": 0.1363636363636367,
                "tempo": 120.0
            },
            {
                "start_time": 5.534090909090909,
                "end_time": 5.670454545454545,
                "pitch": 35,
                "velocity": 101,
                "duration": 0.1363636363636358,
                "tempo": 120.0
            },
            {
                "start_time": 5.722727272727273,
                "end_time": 5.8568181818181815,
                "pitch": 35,
                "velocity": 101,
                "duration": 0.13409090909090882,
                "tempo": 120.0
            },
            {
                "start_time": 5.906818181818181,
                "end_time": 6.056818181818182,
                "pitch": 35,
                "velocity": 101,
                "duration": 0.15000000000000036,
                "tempo": 120.0
            },
            {
                "start_time": 6.1068181818181815,
                "end_time": 6.243181818181818,
                "pitch": 36,
                "velocity": 101,
                "duration": 0.1363636363636367,
                "tempo": 120.0
            },
            {
                "start_time": 6.297727272727273,
                "end_time": 6.434090909090909,
                "pitch": 36,
                "velocity": 101,
                "duration": 0.1363636363636358,
                "tempo": 120.0
            },
            {
                "start_time": 6.486363636363636,
                "end_time": 6.618181818181818,
                "pitch": 36,
                "velocity": 101,
                "duration": 0.13181818181818183,
                "tempo": 120.0
            },
            {
                "start_time": 6.670454545454545,
                "end_time": 6.820454545454545,
                "pitch": 36,
                "velocity": 101,
                "duration": 0.15000000000000036,
                "tempo": 120.0
            },
            {
                "start_time": 6.870454545454545,
                "end_time": 7.011363636363636,
                "pitch": 36,
                "velocity": 101,
                "duration": 0.14090909090909065,
                "tempo": 120.0
            },
            {
                "start_time": 7.0636363636363635,
                "end_time": 7.204545454545454,
                "pitch": 36,
                "velocity": 101,
                "duration": 0.14090909090909065,
                "tempo": 120.0
            },
            {
                "start_time": 7.259090909090909,
                "end_time": 7.388636363636364,
                "pitch": 36,
                "velocity": 101,
                "duration": 0.12954545454545485,
                "tempo": 120.0
            },
            {
                "start_time": 7.4386363636363635,
                "end_time": 7.584090909090909,
                "pitch": 36,
                "velocity": 101,
                "duration": 0.1454545454545455,
                "tempo": 120.0
            },
            {
                "start_time": 7.634090909090909,
                "end_time": 7.7704545454545455,
                "pitch": 35,
                "velocity": 101,
                "duration": 0.1363636363636367,
                "tempo": 120.0
            },
            {
                "start_time": 7.822727272727272,
                "end_time": 7.961363636363636,
                "pitch": 35,
                "velocity": 101,
                "duration": 0.13863636363636367,
                "tempo": 120.0
            },
            {
                "start_time": 8.013636363636364,
                "end_time": 8.145454545454545,
                "pitch": 35,
                "velocity": 101,
                "duration": 0.13181818181818095,
                "tempo": 120.0
            },
            {
                "start_time": 8.197727272727272,
                "end_time": 8.347727272727273,
                "pitch": 35,
                "velocity": 101,
                "duration": 0.15000000000000036,
                "tempo": 120.0
            },
            {
                "start_time": 8.397727272727272,
                "end_time": 8.538636363636364,
                "pitch": 35,
                "velocity": 101,
                "duration": 0.14090909090909243,
                "tempo": 120.0
            },
            {
                "start_time": 8.59090909090909,
                "end_time": 8.73181818181818,
                "pitch": 35,
                "velocity": 101,
                "duration": 0.14090909090909065,
                "tempo": 120.0
            },
            {
                "start_time": 8.786363636363635,
                "end_time": 8.915909090909091,
                "pitch": 35,
                "velocity": 101,
                "duration": 0.12954545454545574,
                "tempo": 120.0
            },
            {
                "start_time": 8.96590909090909,
                "end_time": 9.111363636363636,
                "pitch": 35,
                "velocity": 101,
                "duration": 0.1454545454545464,
                "tempo": 120.0
            },
            {
                "start_time": 9.161363636363635,
                "end_time": 9.302272727272728,
                "pitch": 34,
                "velocity": 101,
                "duration": 0.14090909090909243,
                "tempo": 120.0
            },
            {
                "start_time": 9.354545454545454,
                "end_time": 9.495454545454544,
                "pitch": 34,
                "velocity": 101,
                "duration": 0.14090909090909065,
                "tempo": 120.0
            },
            {
                "start_time": 9.549999999999999,
                "end_time": 9.679545454545455,
                "pitch": 34,
                "velocity": 101,
                "duration": 0.12954545454545574,
                "tempo": 120.0
            },
            {
                "start_time": 9.729545454545454,
                "end_time": 9.875,
                "pitch": 34,
                "velocity": 101,
                "duration": 0.1454545454545464,
                "tempo": 120.0
            },
            {
                "start_time": 9.924999999999999,
                "end_time": 10.063636363636363,
                "pitch": 34,
                "velocity": 101,
                "duration": 0.13863636363636367,
                "tempo": 120.0
            },
            {
                "start_time": 10.118181818181817,
                "end_time": 10.259090909090908,
                "pitch": 34,
                "velocity": 101,
                "duration": 0.14090909090909065,
                "tempo": 120.0
            },
            {
                "start_time": 10.313636363636363,
                "end_time": 10.443181818181818,
                "pitch": 34,
                "velocity": 101,
                "duration": 0.12954545454545574,
                "tempo": 120.0
            },
            {
                "start_time": 10.493181818181817,
                "end_time": 10.638636363636364,
                "pitch": 34,
                "velocity": 101,
                "duration": 0.1454545454545464,
                "tempo": 120.0
            },
            {
                "start_time": 10.688636363636363,
                "end_time": 10.827272727272726,
                "pitch": 35,
                "velocity": 101,
                "duration": 0.13863636363636367,
                "tempo": 120.0
            },
            {
                "start_time": 10.881818181818181,
                "end_time": 11.022727272727272,
                "pitch": 35,
                "velocity": 101,
                "duration": 0.14090909090909065,
                "tempo": 120.0
            },
            {
                "start_time": 11.077272727272726,
                "end_time": 11.206818181818182,
                "pitch": 35,
                "velocity": 101,
                "duration": 0.12954545454545574,
                "tempo": 120.0
            },
            {
                "start_time": 11.256818181818181,
                "end_time": 11.402272727272727,
                "pitch": 35,
                "velocity": 101,
                "duration": 0.1454545454545464,
                "tempo": 120.0
            },
            {
                "start_time": 11.452272727272726,
                "end_time": 11.59090909090909,
                "pitch": 35,
                "velocity": 101,
                "duration": 0.13863636363636367,
                "tempo": 120.0
            },
            {
                "start_time": 11.645454545454545,
                "end_time": 11.786363636363635,
                "pitch": 35,
                "velocity": 101,
                "duration": 0.14090909090909065,
                "tempo": 120.0
            },
            {
                "start_time": 11.84090909090909,
                "end_time": 11.970454545454546,
                "pitch": 35,
                "velocity": 101,
                "duration": 0.12954545454545574,
                "tempo": 120.0
            },
            {
                "start_time": 12.018181818181818,
                "end_time": 12.165909090909091,
                "pitch": 35,
                "velocity": 101,
                "duration": 0.14772727272727337,
                "tempo": 120.0
            },
            {
                "start_time": 12.21590909090909,
                "end_time": 12.636363636363635,
                "pitch": 33,
                "velocity": 101,
                "duration": 0.42045454545454497,
                "tempo": 120.0
            },
            {
                "start_time": 12.788636363636362,
                "end_time": 13.211363636363636,
                "pitch": 33,
                "velocity": 101,
                "duration": 0.42272727272727373,
                "tempo": 120.0
            },
            {
                "start_time": 13.368181818181817,
                "end_time": 13.649999999999999,
                "pitch": 33,
                "velocity": 101,
                "duration": 0.2818181818181813,
                "tempo": 120.0
            },
            {
                "start_time": 13.752272727272727,
                "end_time": 14.027272727272727,
                "pitch": 31,
                "velocity": 101,
                "duration": 0.27500000000000036,
                "tempo": 120.0
            },
            {
                "start_time": 14.131818181818181,
                "end_time": 14.413636363636362,
                "pitch": 31,
                "velocity": 101,
                "duration": 0.2818181818181813,
                "tempo": 120.0
            },
            {
                "start_time": 14.51590909090909,
                "end_time": 14.927272727272726,
                "pitch": 33,
                "velocity": 101,
                "duration": 0.41136363636363527,
                "tempo": 120.0
            },
            {
                "start_time": 15.077272727272726,
                "end_time": 15.552272727272726,
                "pitch": 33,
                "velocity": 101,
                "duration": 0.47499999999999964,
                "tempo": 120.0
            },
            {
                "start_time": 15.656818181818181,
                "end_time": 15.94090909090909,
                "pitch": 33,
                "velocity": 101,
                "duration": 0.2840909090909083,
                "tempo": 120.0
            },
            {
                "start_time": 16.04090909090909,
                "end_time": 16.31590909090909,
                "pitch": 31,
                "velocity": 101,
                "duration": 0.27500000000000213,
                "tempo": 120.0
            },
            {
                "start_time": 16.420454545454543,
                "end_time": 16.704545454545453,
                "pitch": 31,
                "velocity": 101,
                "duration": 0.28409090909091006,
                "tempo": 120.0
            },
            {
                "start_time": 16.804545454545455,
                "end_time": 17.21818181818182,
                "pitch": 33,
                "velocity": 101,
                "duration": 0.413636363636364,
                "tempo": 120.0
            },
            {
                "start_time": 17.368181818181817,
                "end_time": 17.797727272727272,
                "pitch": 33,
                "velocity": 101,
                "duration": 0.4295454545454547,
                "tempo": 120.0
            },
            {
                "start_time": 17.956818181818182,
                "end_time": 18.23409090909091,
                "pitch": 33,
                "velocity": 101,
                "duration": 0.27727272727272734,
                "tempo": 120.0
            },
            {
                "start_time": 18.331818181818182,
                "end_time": 18.613636363636363,
                "pitch": 31,
                "velocity": 101,
                "duration": 0.2818181818181813,
                "tempo": 120.0
            },
            {
                "start_time": 18.720454545454544,
                "end_time": 18.99772727272727,
                "pitch": 31,
                "velocity": 101,
                "duration": 0.27727272727272734,
                "tempo": 120.0
            },
            {
                "start_time": 19.095454545454544,
                "end_time": 19.518181818181816,
                "pitch": 33,
                "velocity": 101,
                "duration": 0.42272727272727195,
                "tempo": 120.0
            },
            {
                "start_time": 19.668181818181818,
                "end_time": 20.143181818181816,
                "pitch": 33,
                "velocity": 101,
                "duration": 0.47499999999999787,
                "tempo": 120.0
            },
            {
                "start_time": 20.24772727272727,
                "end_time": 20.53181818181818,
                "pitch": 33,
                "velocity": 101,
                "duration": 0.28409090909091006,
                "tempo": 120.0
            },
            {
                "start_time": 20.63181818181818,
                "end_time": 20.90681818181818,
                "pitch": 31,
                "velocity": 101,
                "duration": 0.27500000000000213,
                "tempo": 120.0
            },
            {
                "start_time": 21.011363636363637,
                "end_time": 21.286363636363635,
                "pitch": 31,
                "velocity": 101,
                "duration": 0.2749999999999986,
                "tempo": 120.0
            },
            {
                "start_time": 21.386363636363637,
                "end_time": 21.527272727272727,
                "pitch": 30,
                "velocity": 101,
                "duration": 0.14090909090909065,
                "tempo": 120.0
            },
            {
                "start_time": 21.579545454545453,
                "end_time": 21.720454545454544,
                "pitch": 30,
                "velocity": 101,
                "duration": 0.14090909090909065,
                "tempo": 120.0
            },
            {
                "start_time": 21.775,
                "end_time": 21.909090909090907,
                "pitch": 30,
                "velocity": 101,
                "duration": 0.13409090909090793,
                "tempo": 120.0
            },
            {
                "start_time": 21.959090909090907,
                "end_time": 22.10909090909091,
                "pitch": 30,
                "velocity": 101,
                "duration": 0.15000000000000213,
                "tempo": 120.0
            },
            {
                "start_time": 22.159090909090907,
                "end_time": 22.295454545454543,
                "pitch": 30,
                "velocity": 101,
                "duration": 0.1363636363636367,
                "tempo": 120.0
            },
            {
                "start_time": 22.349999999999998,
                "end_time": 22.486363636363635,
                "pitch": 30,
                "velocity": 101,
                "duration": 0.1363636363636367,
                "tempo": 120.0
            },
            {
                "start_time": 22.538636363636364,
                "end_time": 22.670454545454543,
                "pitch": 30,
                "velocity": 101,
                "duration": 0.13181818181817917,
                "tempo": 120.0
            },
            {
                "start_time": 22.722727272727273,
                "end_time": 22.87272727272727,
                "pitch": 30,
                "velocity": 101,
                "duration": 0.14999999999999858,
                "tempo": 120.0
            },
            {
                "start_time": 22.922727272727272,
                "end_time": 23.05909090909091,
                "pitch": 30,
                "velocity": 101,
                "duration": 0.1363636363636367,
                "tempo": 120.0
            },
            {
                "start_time": 23.113636363636363,
                "end_time": 23.25,
                "pitch": 30,
                "velocity": 101,
                "duration": 0.1363636363636367,
                "tempo": 120.0
            },
            {
                "start_time": 23.302272727272726,
                "end_time": 23.43409090909091,
                "pitch": 30,
                "velocity": 101,
                "duration": 0.13181818181818272,
                "tempo": 120.0
            },
            {
                "start_time": 23.486363636363635,
                "end_time": 23.636363636363637,
                "pitch": 30,
                "velocity": 101,
                "duration": 0.15000000000000213,
                "tempo": 120.0
            },
            {
                "start_time": 23.686363636363634,
                "end_time": 23.82272727272727,
                "pitch": 30,
                "velocity": 101,
                "duration": 0.1363636363636367,
                "tempo": 120.0
            },
            {
                "start_time": 23.875,
                "end_time": 24.013636363636362,
                "pitch": 30,
                "velocity": 101,
                "duration": 0.1386363636363619,
                "tempo": 120.0
            },
            {
                "start_time": 24.06590909090909,
                "end_time": 24.19772727272727,
                "pitch": 30,
                "velocity": 101,
                "duration": 0.13181818181817917,
                "tempo": 120.0
            },
            {
                "start_time": 24.25,
                "end_time": 24.39772727272727,
                "pitch": 37,
                "velocity": 101,
                "duration": 0.14772727272726982,
                "tempo": 120.0
            },
            {
                "start_time": 24.45,
                "end_time": 24.59090909090909,
                "pitch": 42,
                "velocity": 101,
                "duration": 0.14090909090909065,
                "tempo": 120.0
            },
            {
                "start_time": 24.643181818181816,
                "end_time": 24.784090909090907,
                "pitch": 42,
                "velocity": 101,
                "duration": 0.14090909090909065,
                "tempo": 120.0
            },
            {
                "start_time": 24.83863636363636,
                "end_time": 24.96818181818182,
                "pitch": 42,
                "velocity": 101,
                "duration": 0.12954545454545752,
                "tempo": 120.0
            },
            {
                "start_time": 25.018181818181816,
                "end_time": 25.163636363636364,
                "pitch": 42,
                "velocity": 101,
                "duration": 0.14545454545454817,
                "tempo": 120.0
            },
            {
                "start_time": 25.21363636363636,
                "end_time": 25.354545454545452,
                "pitch": 42,
                "velocity": 101,
                "duration": 0.14090909090909065,
                "tempo": 120.0
            },
            {
                "start_time": 25.40681818181818,
                "end_time": 25.547727272727272,
                "pitch": 42,
                "velocity": 101,
                "duration": 0.14090909090909065,
                "tempo": 120.0
            },
            {
                "start_time": 25.599999999999998,
                "end_time": 25.727272727272727,
                "pitch": 42,
                "velocity": 101,
                "duration": 0.12727272727272876,
                "tempo": 120.0
            },
            {
                "start_time": 25.775,
                "end_time": 25.913636363636364,
                "pitch": 42,
                "velocity": 101,
                "duration": 0.13863636363636545,
                "tempo": 120.0
            },
            {
                "start_time": 25.954545454545453,
                "end_time": 26.06590909090909,
                "pitch": 42,
                "velocity": 101,
                "duration": 0.11136363636363811,
                "tempo": 120.0
            },
            {
                "start_time": 26.10909090909091,
                "end_time": 26.222727272727273,
                "pitch": 42,
                "velocity": 101,
                "duration": 0.11363636363636331,
                "tempo": 120.0
            },
            {
                "start_time": 26.268181818181816,
                "end_time": 26.38181818181818,
                "pitch": 42,
                "velocity": 101,
                "duration": 0.11363636363636331,
                "tempo": 120.0
            },
            {
                "start_time": 26.427272727272726,
                "end_time": 26.55681818181818,
                "pitch": 37,
                "velocity": 101,
                "duration": 0.12954545454545396,
                "tempo": 120.0
            },
            {
                "start_time": 26.599999999999998,
                "end_time": 26.71590909090909,
                "pitch": 37,
                "velocity": 101,
                "duration": 0.11590909090909207,
                "tempo": 120.0
            },
            {
                "start_time": 26.759090909090908,
                "end_time": 26.895454545454545,
                "pitch": 37,
                "velocity": 101,
                "duration": 0.1363636363636367,
                "tempo": 120.0
            },
            {
                "start_time": 26.95,
                "end_time": 27.086363636363636,
                "pitch": 30,
                "velocity": 101,
                "duration": 0.1363636363636367,
                "tempo": 120.0
            },
            {
                "start_time": 27.138636363636362,
                "end_time": 27.288636363636364,
                "pitch": 30,
                "velocity": 101,
                "duration": 0.15000000000000213,
                "tempo": 120.0
            },
            {
                "start_time": 27.33863636363636,
                "end_time": 27.472727272727273,
                "pitch": 50,
                "velocity": 101,
                "duration": 0.13409090909091148,
                "tempo": 120.0
            },
            {
                "start_time": 27.52272727272727,
                "end_time": 27.659090909090907,
                "pitch": 38,
                "velocity": 101,
                "duration": 0.1363636363636367,
                "tempo": 120.0
            },
            {
                "start_time": 27.711363636363636,
                "end_time": 27.849999999999998,
                "pitch": 38,
                "velocity": 101,
                "duration": 0.1386363636363619,
                "tempo": 120.0
            },
            {
                "start_time": 27.902272727272727,
                "end_time": 28.052272727272726,
                "pitch": 50,
                "velocity": 101,
                "duration": 0.14999999999999858,
                "tempo": 120.0
            },
            {
                "start_time": 28.102272727272727,
                "end_time": 28.236363636363635,
                "pitch": 38,
                "velocity": 101,
                "duration": 0.13409090909090793,
                "tempo": 120.0
            },
            {
                "start_time": 28.286363636363635,
                "end_time": 28.422727272727272,
                "pitch": 38,
                "velocity": 101,
                "duration": 0.1363636363636367,
                "tempo": 120.0
            },
            {
                "start_time": 28.474999999999998,
                "end_time": 28.613636363636363,
                "pitch": 50,
                "velocity": 101,
                "duration": 0.13863636363636545,
                "tempo": 120.0
            },
            {
                "start_time": 28.66590909090909,
                "end_time": 28.815909090909088,
                "pitch": 38,
                "velocity": 101,
                "duration": 0.14999999999999858,
                "tempo": 120.0
            },
            {
                "start_time": 28.86590909090909,
                "end_time": 28.99772727272727,
                "pitch": 50,
                "velocity": 101,
                "duration": 0.13181818181818272,
                "tempo": 120.0
            },
            {
                "start_time": 29.049999999999997,
                "end_time": 29.190909090909088,
                "pitch": 38,
                "velocity": 101,
                "duration": 0.14090909090909065,
                "tempo": 120.0
            },
            {
                "start_time": 29.243181818181817,
                "end_time": 29.384090909090908,
                "pitch": 38,
                "velocity": 101,
                "duration": 0.14090909090909065,
                "tempo": 120.0
            },
            {
                "start_time": 29.438636363636363,
                "end_time": 29.584090909090907,
                "pitch": 50,
                "velocity": 101,
                "duration": 0.14545454545454461,
                "tempo": 120.0
            },
            {
                "start_time": 29.634090909090908,
                "end_time": 29.763636363636362,
                "pitch": 38,
                "velocity": 101,
                "duration": 0.12954545454545396,
                "tempo": 120.0
            },
            {
                "start_time": 29.813636363636363,
                "end_time": 29.95,
                "pitch": 38,
                "velocity": 101,
                "duration": 0.1363636363636367,
                "tempo": 120.0
            },
            {
                "start_time": 30.002272727272725,
                "end_time": 30.14090909090909,
                "pitch": 50,
                "velocity": 101,
                "duration": 0.13863636363636545,
                "tempo": 120.0
            },
            {
                "start_time": 30.193181818181817,
                "end_time": 30.343181818181815,
                "pitch": 38,
                "velocity": 101,
                "duration": 0.14999999999999858,
                "tempo": 120.0
            },
            {
                "start_time": 30.393181818181816,
                "end_time": 30.525,
                "pitch": 48,
                "velocity": 101,
                "duration": 0.13181818181818272,
                "tempo": 120.0
            },
            {
                "start_time": 30.577272727272724,
                "end_time": 30.718181818181815,
                "pitch": 36,
                "velocity": 101,
                "duration": 0.14090909090909065,
                "tempo": 120.0
            },
            {
                "start_time": 30.770454545454545,
                "end_time": 30.911363636363635,
                "pitch": 36,
                "velocity": 101,
                "duration": 0.14090909090909065,
                "tempo": 120.0
            },
            {
                "start_time": 30.96590909090909,
                "end_time": 31.111363636363635,
                "pitch": 48,
                "velocity": 101,
                "duration": 0.14545454545454461,
                "tempo": 120.0
            },
            {
                "start_time": 31.161363636363635,
                "end_time": 31.29090909090909,
                "pitch": 36,
                "velocity": 101,
                "duration": 0.12954545454545396,
                "tempo": 120.0
            },
            {
                "start_time": 31.34090909090909,
                "end_time": 31.479545454545452,
                "pitch": 36,
                "velocity": 101,
                "duration": 0.1386363636363619,
                "tempo": 120.0
            },
            {
                "start_time": 31.534090909090907,
                "end_time": 31.674999999999997,
                "pitch": 48,
                "velocity": 101,
                "duration": 0.14090909090909065,
                "tempo": 120.0
            },
            {
                "start_time": 31.729545454545452,
                "end_time": 31.875,
                "pitch": 36,
                "velocity": 101,
                "duration": 0.14545454545454817,
                "tempo": 120.0
            },
            {
                "start_time": 31.924999999999997,
                "end_time": 32.054545454545455,
                "pitch": 48,
                "velocity": 101,
                "duration": 0.12954545454545752,
                "tempo": 120.0
            },
            {
                "start_time": 32.10454545454545,
                "end_time": 32.24318181818182,
                "pitch": 36,
                "velocity": 101,
                "duration": 0.13863636363636545,
                "tempo": 120.0
            },
            {
                "start_time": 32.29772727272727,
                "end_time": 32.43863636363636,
                "pitch": 36,
                "velocity": 101,
                "duration": 0.14090909090909065,
                "tempo": 120.0
            },
            {
                "start_time": 32.49318181818182,
                "end_time": 32.643181818181816,
                "pitch": 48,
                "velocity": 101,
                "duration": 0.14999999999999858,
                "tempo": 120.0
            },
            {
                "start_time": 32.69318181818182,
                "end_time": 32.824999999999996,
                "pitch": 36,
                "velocity": 101,
                "duration": 0.13181818181817562,
                "tempo": 120.0
            },
            {
                "start_time": 32.877272727272725,
                "end_time": 33.013636363636365,
                "pitch": 36,
                "velocity": 101,
                "duration": 0.13636363636364024,
                "tempo": 120.0
            },
            {
                "start_time": 33.06590909090909,
                "end_time": 33.20454545454545,
                "pitch": 48,
                "velocity": 101,
                "duration": 0.13863636363636545,
                "tempo": 120.0
            },
            {
                "start_time": 33.25681818181818,
                "end_time": 33.40681818181818,
                "pitch": 36,
                "velocity": 101,
                "duration": 0.14999999999999858,
                "tempo": 120.0
            },
            {
                "start_time": 33.45681818181818,
                "end_time": 33.58863636363636,
                "pitch": 50,
                "velocity": 101,
                "duration": 0.13181818181818272,
                "tempo": 120.0
            },
            {
                "start_time": 33.64090909090909,
                "end_time": 33.777272727272724,
                "pitch": 38,
                "velocity": 101,
                "duration": 0.13636363636363313,
                "tempo": 120.0
            },
            {
                "start_time": 33.82954545454545,
                "end_time": 33.965909090909086,
                "pitch": 38,
                "velocity": 101,
                "duration": 0.13636363636363313,
                "tempo": 120.0
            },
            {
                "start_time": 34.02045454545454,
                "end_time": 34.168181818181814,
                "pitch": 50,
                "velocity": 101,
                "duration": 0.14772727272727337,
                "tempo": 120.0
            },
            {
                "start_time": 34.220454545454544,
                "end_time": 34.35227272727273,
                "pitch": 38,
                "velocity": 101,
                "duration": 0.13181818181818272,
                "tempo": 120.0
            },
            {
                "start_time": 34.404545454545456,
                "end_time": 34.54090909090909,
                "pitch": 38,
                "velocity": 101,
                "duration": 0.13636363636363313,
                "tempo": 120.0
            },
            {
                "start_time": 34.59318181818182,
                "end_time": 34.72954545454545,
                "pitch": 50,
                "velocity": 101,
                "duration": 0.13636363636363313,
                "tempo": 120.0
            },
            {
                "start_time": 34.78409090909091,
                "end_time": 34.93181818181818,
                "pitch": 38,
                "velocity": 101,
                "duration": 0.14772727272727337,
                "tempo": 120.0
            },
            {
                "start_time": 34.98409090909091,
                "end_time": 35.11590909090909,
                "pitch": 50,
                "velocity": 101,
                "duration": 0.13181818181818272,
                "tempo": 120.0
            },
            {
                "start_time": 35.168181818181814,
                "end_time": 35.304545454545455,
                "pitch": 38,
                "velocity": 101,
                "duration": 0.13636363636364024,
                "tempo": 120.0
            },
            {
                "start_time": 35.35681818181818,
                "end_time": 35.49318181818182,
                "pitch": 38,
                "velocity": 101,
                "duration": 0.13636363636364024,
                "tempo": 120.0
            },
            {
                "start_time": 35.54545454545455,
                "end_time": 35.695454545454545,
                "pitch": 50,
                "velocity": 101,
                "duration": 0.14999999999999858,
                "tempo": 120.0
            },
            {
                "start_time": 35.74772727272727,
                "end_time": 35.87954545454545,
                "pitch": 38,
                "velocity": 101,
                "duration": 0.13181818181818272,
                "tempo": 120.0
            },
            {
                "start_time": 35.93181818181818,
                "end_time": 36.06818181818181,
                "pitch": 38,
                "velocity": 101,
                "duration": 0.13636363636363313,
                "tempo": 120.0
            },
            {
                "start_time": 36.12045454545454,
                "end_time": 36.25681818181818,
                "pitch": 50,
                "velocity": 101,
                "duration": 0.13636363636364024,
                "tempo": 120.0
            },
            {
                "start_time": 36.309090909090905,
                "end_time": 36.45909090909091,
                "pitch": 38,
                "velocity": 101,
                "duration": 0.15000000000000568,
                "tempo": 120.0
            },
            {
                "start_time": 36.51136363636363,
                "end_time": 36.643181818181816,
                "pitch": 53,
                "velocity": 101,
                "duration": 0.13181818181818272,
                "tempo": 120.0
            },
            {
                "start_time": 36.69318181818181,
                "end_time": 36.83409090909091,
                "pitch": 41,
                "velocity": 101,
                "duration": 0.14090909090909776,
                "tempo": 120.0
            },
            {
                "start_time": 36.88863636363636,
                "end_time": 37.029545454545456,
                "pitch": 41,
                "velocity": 101,
                "duration": 0.14090909090909776,
                "tempo": 120.0
            },
            {
                "start_time": 37.08181818181818,
                "end_time": 37.22954545454545,
                "pitch": 53,
                "velocity": 101,
                "duration": 0.14772727272727337,
                "tempo": 120.0
            },
            {
                "start_time": 37.279545454545456,
                "end_time": 37.40909090909091,
                "pitch": 41,
                "velocity": 101,
                "duration": 0.1295454545454504,
                "tempo": 120.0
            },
            {
                "start_time": 37.45909090909091,
                "end_time": 37.595454545454544,
                "pitch": 41,
                "velocity": 101,
                "duration": 0.13636363636363313,
                "tempo": 120.0
            },
            {
                "start_time": 37.64772727272727,
                "end_time": 37.78409090909091,
                "pitch": 53,
                "velocity": 101,
                "duration": 0.13636363636363313,
                "tempo": 120.0
            },
            {
                "start_time": 37.836363636363636,
                "end_time": 37.986363636363635,
                "pitch": 41,
                "velocity": 101,
                "duration": 0.14999999999999858,
                "tempo": 120.0
            },
            {
                "start_time": 38.038636363636364,
                "end_time": 38.17045454545455,
                "pitch": 53,
                "velocity": 101,
                "duration": 0.13181818181818272,
                "tempo": 120.0
            },
            {
                "start_time": 38.220454545454544,
                "end_time": 38.361363636363635,
                "pitch": 41,
                "velocity": 101,
                "duration": 0.14090909090909065,
                "tempo": 120.0
            },
            {
                "start_time": 38.41590909090909,
                "end_time": 38.55681818181818,
                "pitch": 41,
                "velocity": 101,
                "duration": 0.14090909090909065,
                "tempo": 120.0
            },
            {
                "start_time": 38.60909090909091,
                "end_time": 38.75681818181818,
                "pitch": 53,
                "velocity": 101,
                "duration": 0.14772727272727337,
                "tempo": 120.0
            },
            {
                "start_time": 38.804545454545455,
                "end_time": 38.934090909090905,
                "pitch": 41,
                "velocity": 101,
                "duration": 0.1295454545454504,
                "tempo": 120.0
            },
            {
                "start_time": 38.98409090909091,
                "end_time": 39.125,
                "pitch": 41,
                "velocity": 101,
                "duration": 0.14090909090909065,
                "tempo": 120.0
            },
            {
                "start_time": 39.179545454545455,
                "end_time": 39.320454545454545,
                "pitch": 53,
                "velocity": 101,
                "duration": 0.14090909090909065,
                "tempo": 120.0
            },
            {
                "start_time": 39.37272727272727,
                "end_time": 39.518181818181816,
                "pitch": 41,
                "velocity": 101,
                "duration": 0.14545454545454817,
                "tempo": 120.0
            },
            {
                "start_time": 39.56818181818181,
                "end_time": 39.69772727272727,
                "pitch": 55,
                "velocity": 101,
                "duration": 0.12954545454545752,
                "tempo": 120.0
            },
            {
                "start_time": 39.74772727272727,
                "end_time": 39.88863636363636,
                "pitch": 43,
                "velocity": 101,
                "duration": 0.14090909090909065,
                "tempo": 120.0
            },
            {
                "start_time": 39.94318181818181,
                "end_time": 40.084090909090904,
                "pitch": 43,
                "velocity": 101,
                "duration": 0.14090909090909065,
                "tempo": 120.0
            },
            {
                "start_time": 40.13636363636363,
                "end_time": 40.28636363636363,
                "pitch": 55,
                "velocity": 101,
                "duration": 0.14999999999999858,
                "tempo": 120.0
            },
            {
                "start_time": 40.33863636363636,
                "end_time": 40.470454545454544,
                "pitch": 43,
                "velocity": 101,
                "duration": 0.13181818181818272,
                "tempo": 120.0
            },
            {
                "start_time": 40.52045454545454,
                "end_time": 40.65909090909091,
                "pitch": 43,
                "velocity": 101,
                "duration": 0.13863636363636545,
                "tempo": 120.0
            },
            {
                "start_time": 40.711363636363636,
                "end_time": 40.84772727272727,
                "pitch": 55,
                "velocity": 101,
                "duration": 0.13636363636363313,
                "tempo": 120.0
            },
            {
                "start_time": 40.9,
                "end_time": 41.05,
                "pitch": 43,
                "velocity": 101,
                "duration": 0.14999999999999858,
                "tempo": 120.0
            },
            {
                "start_time": 41.10227272727273,
                "end_time": 41.23409090909091,
                "pitch": 55,
                "velocity": 101,
                "duration": 0.13181818181818272,
                "tempo": 120.0
            },
            {
                "start_time": 41.28409090909091,
                "end_time": 41.42272727272727,
                "pitch": 43,
                "velocity": 101,
                "duration": 0.13863636363636545,
                "tempo": 120.0
            },
            {
                "start_time": 41.475,
                "end_time": 41.611363636363635,
                "pitch": 43,
                "velocity": 101,
                "duration": 0.13636363636363313,
                "tempo": 120.0
            },
            {
                "start_time": 41.663636363636364,
                "end_time": 41.81363636363636,
                "pitch": 55,
                "velocity": 101,
                "duration": 0.14999999999999858,
                "tempo": 120.0
            },
            {
                "start_time": 41.86363636363636,
                "end_time": 41.99772727272727,
                "pitch": 43,
                "velocity": 101,
                "duration": 0.13409090909090793,
                "tempo": 120.0
            },
            {
                "start_time": 42.04772727272727,
                "end_time": 42.18636363636364,
                "pitch": 43,
                "velocity": 101,
                "duration": 0.13863636363636545,
                "tempo": 120.0
            },
            {
                "start_time": 42.23863636363636,
                "end_time": 42.375,
                "pitch": 55,
                "velocity": 101,
                "duration": 0.13636363636364024,
                "tempo": 120.0
            },
            {
                "start_time": 42.42727272727272,
                "end_time": 42.57727272727273,
                "pitch": 43,
                "velocity": 101,
                "duration": 0.15000000000000568,
                "tempo": 120.0
            },
            {
                "start_time": 42.627272727272725,
                "end_time": 42.76136363636363,
                "pitch": 57,
                "velocity": 101,
                "duration": 0.13409090909090793,
                "tempo": 120.0
            },
            {
                "start_time": 42.81136363636364,
                "end_time": 42.94772727272727,
                "pitch": 45,
                "velocity": 101,
                "duration": 0.13636363636363313,
                "tempo": 120.0
            },
            {
                "start_time": 43.002272727272725,
                "end_time": 43.13863636363636,
                "pitch": 45,
                "velocity": 101,
                "duration": 0.13636363636363313,
                "tempo": 120.0
            },
            {
                "start_time": 43.19090909090909,
                "end_time": 43.340909090909086,
                "pitch": 57,
                "velocity": 101,
                "duration": 0.14999999999999858,
                "tempo": 120.0
            },
            {
                "start_time": 43.39090909090909,
                "end_time": 43.525,
                "pitch": 45,
                "velocity": 101,
                "duration": 0.13409090909090793,
                "tempo": 120.0
            },
            {
                "start_time": 43.574999999999996,
                "end_time": 43.711363636363636,
                "pitch": 45,
                "velocity": 101,
                "duration": 0.13636363636364024,
                "tempo": 120.0
            },
            {
                "start_time": 43.76590909090909,
                "end_time": 43.902272727272724,
                "pitch": 57,
                "velocity": 101,
                "duration": 0.13636363636363313,
                "tempo": 120.0
            },
            {
                "start_time": 43.95454545454545,
                "end_time": 44.10454545454545,
                "pitch": 45,
                "velocity": 101,
                "duration": 0.14999999999999858,
                "tempo": 120.0
            },
            {
                "start_time": 44.15454545454545,
                "end_time": 44.288636363636364,
                "pitch": 57,
                "velocity": 101,
                "duration": 0.13409090909091503,
                "tempo": 120.0
            },
            {
                "start_time": 44.33863636363636,
                "end_time": 44.47954545454545,
                "pitch": 45,
                "velocity": 101,
                "duration": 0.14090909090909065,
                "tempo": 120.0
            },
            {
                "start_time": 44.53181818181818,
                "end_time": 44.67272727272727,
                "pitch": 45,
                "velocity": 101,
                "duration": 0.14090909090909065,
                "tempo": 120.0
            },
            {
                "start_time": 44.72727272727273,
                "end_time": 44.87272727272727,
                "pitch": 57,
                "velocity": 101,
                "duration": 0.14545454545454106,
                "tempo": 120.0
            },
            {
                "start_time": 44.92272727272727,
                "end_time": 45.05227272727272,
                "pitch": 45,
                "velocity": 101,
                "duration": 0.1295454545454504,
                "tempo": 120.0
            },
            {
                "start_time": 45.10227272727273,
                "end_time": 45.23863636363636,
                "pitch": 45,
                "velocity": 101,
                "duration": 0.13636363636363313,
                "tempo": 120.0
            },
            {
                "start_time": 45.293181818181814,
                "end_time": 45.429545454545455,
                "pitch": 57,
                "velocity": 101,
                "duration": 0.13636363636364024,
                "tempo": 120.0
            },
            {
                "start_time": 45.48181818181818,
                "end_time": 45.63181818181818,
                "pitch": 45,
                "velocity": 101,
                "duration": 0.15000000000000568,
                "tempo": 120.0
            },
            {
                "start_time": 45.68181818181818,
                "end_time": 45.81136363636364,
                "pitch": 54,
                "velocity": 101,
                "duration": 0.12954545454545752,
                "tempo": 120.0
            },
            {
                "start_time": 45.85454545454545,
                "end_time": 45.965909090909086,
                "pitch": 42,
                "velocity": 101,
                "duration": 0.11136363636363455,
                "tempo": 120.0
            },
            {
                "start_time": 46.00681818181818,
                "end_time": 46.12045454545454,
                "pitch": 42,
                "velocity": 101,
                "duration": 0.11363636363635976,
                "tempo": 120.0
            },
            {
                "start_time": 46.16590909090909,
                "end_time": 46.29545454545455,
                "pitch": 54,
                "velocity": 101,
                "duration": 0.12954545454545752,
                "tempo": 120.0
            },
            {
                "start_time": 46.33863636363636,
                "end_time": 46.45681818181818,
                "pitch": 42,
                "velocity": 101,
                "duration": 0.11818181818181728,
                "tempo": 120.0
            },
            {
                "start_time": 46.502272727272725,
                "end_time": 46.62272727272727,
                "pitch": 42,
                "velocity": 101,
                "duration": 0.12045454545454248,
                "tempo": 120.0
            },
            {
                "start_time": 46.668181818181814,
                "end_time": 46.79772727272727,
                "pitch": 54,
                "velocity": 101,
                "duration": 0.12954545454545752,
                "tempo": 120.0
            },
            {
                "start_time": 46.84772727272727,
                "end_time": 46.99318181818182,
                "pitch": 42,
                "velocity": 101,
                "duration": 0.14545454545454817,
                "tempo": 120.0
            },
            {
                "start_time": 47.043181818181814,
                "end_time": 47.179545454545455,
                "pitch": 54,
                "velocity": 101,
                "duration": 0.13636363636364024,
                "tempo": 120.0
            },
            {
                "start_time": 47.23181818181818,
                "end_time": 47.37045454545454,
                "pitch": 42,
                "velocity": 101,
                "duration": 0.13863636363636545,
                "tempo": 120.0
            },
            {
                "start_time": 47.42272727272727,
                "end_time": 47.554545454545455,
                "pitch": 42,
                "velocity": 101,
                "duration": 0.13181818181818272,
                "tempo": 120.0
            },
            {
                "start_time": 47.60681818181818,
                "end_time": 47.75454545454545,
                "pitch": 54,
                "velocity": 101,
                "duration": 0.14772727272727337,
                "tempo": 120.0
            },
            {
                "start_time": 47.80681818181818,
                "end_time": 47.94318181818181,
                "pitch": 42,
                "velocity": 101,
                "duration": 0.13636363636363313,
                "tempo": 120.0
            },
            {
                "start_time": 47.99545454545454,
                "end_time": 48.13181818181818,
                "pitch": 42,
                "velocity": 101,
                "duration": 0.13636363636364024,
                "tempo": 120.0
            },
            {
                "start_time": 48.18636363636364,
                "end_time": 48.31818181818181,
                "pitch": 54,
                "velocity": 101,
                "duration": 0.13181818181817562,
                "tempo": 120.0
            },
            {
                "start_time": 48.36818181818182,
                "end_time": 48.518181818181816,
                "pitch": 42,
                "velocity": 101,
                "duration": 0.14999999999999858,
                "tempo": 120.0
            }
        ]
    }
}