{
    "track_id": "12 Stage-6",
    "mood": "angry",
    "instruments": {
        "Harpsichord": [
            {
                "start_time": 0.09090909090909091,
                "end_time": 0.1409090909090909,
                "pitch": 33,
                "velocity": 80,
                "duration": 0.04999999999999999,
                "tempo": 120.0
            },
            {
                "start_time": 0.1409090909090909,
                "end_time": 0.20454545454545453,
                "pitch": 36,
                "velocity": 80,
                "duration": 0.06363636363636363,
                "tempo": 120.0
            },
            {
                "start_time": 0.1409090909090909,
                "end_time": 0.20454545454545453,
                "pitch": 40,
                "velocity": 80,
                "duration": 0.06363636363636363,
                "tempo": 120.0
            },
            {
                "start_time": 0.20454545454545453,
                "end_time": 0.2409090909090909,
                "pitch": 40,
                "velocity": 80,
                "duration": 0.036363636363636376,
                "tempo": 120.0
            },
            {
                "start_time": 0.20454545454545453,
                "end_time": 0.2409090909090909,
                "pitch": 40,
                "velocity": 80,
                "duration": 0.036363636363636376,
                "tempo": 120.0
            },
            {
                "start_time": 0.2409090909090909,
                "end_time": 0.29318181818181815,
                "pitch": 45,
                "velocity": 80,
                "duration": 0.05227272727272725,
                "tempo": 120.0
            },
            {
                "start_time": 0.29318181818181815,
                "end_time": 1.6863636363636363,
                "pitch": 48,
                "velocity": 80,
                "duration": 1.393181818181818,
                "tempo": 120.0
            },
            {
                "start_time": 1.6863636363636363,
                "end_time": 1.734090909090909,
                "pitch": 31,
                "velocity": 80,
                "duration": 0.04772727272727262,
                "tempo": 120.0
            },
            {
                "start_time": 1.734090909090909,
                "end_time": 1.7886363636363636,
                "pitch": 35,
                "velocity": 80,
                "duration": 0.054545454545454675,
                "tempo": 120.0
            },
            {
                "start_time": 1.7363636363636363,
                "end_time": 1.7886363636363636,
                "pitch": 35,
                "velocity": 80,
                "duration": 0.05227272727272725,
                "tempo": 120.0
            },
            {
                "start_time": 1.7886363636363636,
                "end_time": 1.8363636363636362,
                "pitch": 38,
                "velocity": 80,
                "duration": 0.04772727272727262,
                "tempo": 120.0
            },
            {
                "start_time": 1.8363636363636362,
                "end_time": 1.8886363636363634,
                "pitch": 43,
                "velocity": 80,
                "duration": 0.05227272727272725,
                "tempo": 120.0
            },
            {
                "start_time": 1.8886363636363634,
                "end_time": 3.3022727272727272,
                "pitch": 47,
                "velocity": 80,
                "duration": 1.4136363636363638,
                "tempo": 120.0
            },
            {
                "start_time": 1.8886363636363634,
                "end_time": 3.3022727272727272,
                "pitch": 47,
                "velocity": 80,
                "duration": 1.4136363636363638,
                "tempo": 120.0
            },
            {
                "start_time": 3.3022727272727272,
                "end_time": 3.3499999999999996,
                "pitch": 35,
                "velocity": 80,
                "duration": 0.047727272727272396,
                "tempo": 120.0
            },
            {
                "start_time": 1.7886363636363636,
                "end_time": 3.3499999999999996,
                "pitch": 41,
                "velocity": 80,
                "duration": 1.561363636363636,
                "tempo": 120.0
            },
            {
                "start_time": 3.3499999999999996,
                "end_time": 3.4045454545454543,
                "pitch": 38,
                "velocity": 80,
                "duration": 0.054545454545454675,
                "tempo": 120.0
            },
            {
                "start_time": 3.3499999999999996,
                "end_time": 3.4045454545454543,
                "pitch": 41,
                "velocity": 80,
                "duration": 0.054545454545454675,
                "tempo": 120.0
            },
            {
                "start_time": 3.4045454545454543,
                "end_time": 3.4499999999999997,
                "pitch": 41,
                "velocity": 80,
                "duration": 0.045454545454545414,
                "tempo": 120.0
            },
            {
                "start_time": 3.4045454545454543,
                "end_time": 3.4499999999999997,
                "pitch": 41,
                "velocity": 80,
                "duration": 0.045454545454545414,
                "tempo": 120.0
            },
            {
                "start_time": 3.4499999999999997,
                "end_time": 3.502272727272727,
                "pitch": 47,
                "velocity": 80,
                "duration": 0.05227272727272725,
                "tempo": 120.0
            },
            {
                "start_time": 3.502272727272727,
                "end_time": 4.906818181818181,
                "pitch": 50,
                "velocity": 80,
                "duration": 1.4045454545454543,
                "tempo": 120.0
            },
            {
                "start_time": 4.906818181818181,
                "end_time": 4.954545454545454,
                "pitch": 33,
                "velocity": 80,
                "duration": 0.04772727272727284,
                "tempo": 120.0
            },
            {
                "start_time": 4.956818181818182,
                "end_time": 5.009090909090909,
                "pitch": 36,
                "velocity": 80,
                "duration": 0.052272727272726804,
                "tempo": 120.0
            },
            {
                "start_time": 4.954545454545454,
                "end_time": 5.009090909090909,
                "pitch": 40,
                "velocity": 80,
                "duration": 0.054545454545454675,
                "tempo": 120.0
            },
            {
                "start_time": 0.2409090909090909,
                "end_time": 5.054545454545455,
                "pitch": 7,
                "velocity": 80,
                "duration": 4.8136363636363635,
                "tempo": 120.0
            },
            {
                "start_time": 5.009090909090909,
                "end_time": 5.054545454545455,
                "pitch": 40,
                "velocity": 80,
                "duration": 0.04545454545454586,
                "tempo": 120.0
            },
            {
                "start_time": 5.009090909090909,
                "end_time": 5.054545454545455,
                "pitch": 40,
                "velocity": 80,
                "duration": 0.04545454545454586,
                "tempo": 120.0
            },
            {
                "start_time": 5.054545454545455,
                "end_time": 5.1068181818181815,
                "pitch": 45,
                "velocity": 80,
                "duration": 0.052272727272726804,
                "tempo": 120.0
            },
            {
                "start_time": 0.29318181818181815,
                "end_time": 5.1068181818181815,
                "pitch": 52,
                "velocity": 80,
                "duration": 4.8136363636363635,
                "tempo": 120.0
            },
            {
                "start_time": 4.906818181818181,
                "end_time": 6.515909090909091,
                "pitch": 19,
                "velocity": 80,
                "duration": 1.6090909090909093,
                "tempo": 120.0
            },
            {
                "start_time": 5.1068181818181815,
                "end_time": 6.515909090909091,
                "pitch": 48,
                "velocity": 80,
                "duration": 1.4090909090909092,
                "tempo": 120.0
            },
            {
                "start_time": 6.515909090909091,
                "end_time": 6.5659090909090905,
                "pitch": 33,
                "velocity": 80,
                "duration": 0.04999999999999982,
                "tempo": 120.0
            },
            {
                "start_time": 6.5659090909090905,
                "end_time": 6.620454545454545,
                "pitch": 36,
                "velocity": 80,
                "duration": 0.054545454545454675,
                "tempo": 120.0
            },
            {
                "start_time": 6.5659090909090905,
                "end_time": 6.620454545454545,
                "pitch": 40,
                "velocity": 80,
                "duration": 0.054545454545454675,
                "tempo": 120.0
            },
            {
                "start_time": 5.054545454545455,
                "end_time": 6.665909090909091,
                "pitch": 7,
                "velocity": 80,
                "duration": 1.6113636363636363,
                "tempo": 120.0
            },
            {
                "start_time": 6.620454545454545,
                "end_time": 6.665909090909091,
                "pitch": 40,
                "velocity": 80,
                "duration": 0.04545454545454586,
                "tempo": 120.0
            },
            {
                "start_time": 6.620454545454545,
                "end_time": 6.665909090909091,
                "pitch": 40,
                "velocity": 80,
                "duration": 0.04545454545454586,
                "tempo": 120.0
            },
            {
                "start_time": 6.665909090909091,
                "end_time": 6.718181818181818,
                "pitch": 45,
                "velocity": 80,
                "duration": 0.052272727272726804,
                "tempo": 120.0
            },
            {
                "start_time": 5.1068181818181815,
                "end_time": 6.718181818181818,
                "pitch": 52,
                "velocity": 80,
                "duration": 1.6113636363636363,
                "tempo": 120.0
            },
            {
                "start_time": 6.718181818181818,
                "end_time": 8.125,
                "pitch": 48,
                "velocity": 80,
                "duration": 1.4068181818181822,
                "tempo": 120.0
            },
            {
                "start_time": 8.125,
                "end_time": 8.172727272727272,
                "pitch": 31,
                "velocity": 80,
                "duration": 0.04772727272727195,
                "tempo": 120.0
            },
            {
                "start_time": 8.172727272727272,
                "end_time": 8.227272727272727,
                "pitch": 35,
                "velocity": 80,
                "duration": 0.054545454545454675,
                "tempo": 120.0
            },
            {
                "start_time": 8.172727272727272,
                "end_time": 8.227272727272727,
                "pitch": 35,
                "velocity": 80,
                "duration": 0.054545454545454675,
                "tempo": 120.0
            },
            {
                "start_time": 8.227272727272727,
                "end_time": 8.275,
                "pitch": 38,
                "velocity": 80,
                "duration": 0.04772727272727373,
                "tempo": 120.0
            },
            {
                "start_time": 8.275,
                "end_time": 8.327272727272726,
                "pitch": 43,
                "velocity": 80,
                "duration": 0.052272727272725916,
                "tempo": 120.0
            },
            {
                "start_time": 8.327272727272726,
                "end_time": 9.73409090909091,
                "pitch": 47,
                "velocity": 80,
                "duration": 1.406818181818183,
                "tempo": 120.0
            },
            {
                "start_time": 8.327272727272726,
                "end_time": 9.73409090909091,
                "pitch": 47,
                "velocity": 80,
                "duration": 1.406818181818183,
                "tempo": 120.0
            },
            {
                "start_time": 9.73409090909091,
                "end_time": 9.784090909090908,
                "pitch": 35,
                "velocity": 80,
                "duration": 0.049999999999998934,
                "tempo": 120.0
            },
            {
                "start_time": 8.227272727272727,
                "end_time": 9.784090909090908,
                "pitch": 41,
                "velocity": 80,
                "duration": 1.5568181818181817,
                "tempo": 120.0
            },
            {
                "start_time": 9.784090909090908,
                "end_time": 9.838636363636363,
                "pitch": 38,
                "velocity": 80,
                "duration": 0.054545454545454675,
                "tempo": 120.0
            },
            {
                "start_time": 9.784090909090908,
                "end_time": 9.838636363636363,
                "pitch": 41,
                "velocity": 80,
                "duration": 0.054545454545454675,
                "tempo": 120.0
            },
            {
                "start_time": 3.4499999999999997,
                "end_time": 9.884090909090908,
                "pitch": 20,
                "velocity": 80,
                "duration": 6.434090909090909,
                "tempo": 120.0
            },
            {
                "start_time": 9.838636363636363,
                "end_time": 9.884090909090908,
                "pitch": 41,
                "velocity": 80,
                "duration": 0.04545454545454497,
                "tempo": 120.0
            },
            {
                "start_time": 9.838636363636363,
                "end_time": 9.884090909090908,
                "pitch": 41,
                "velocity": 80,
                "duration": 0.04545454545454497,
                "tempo": 120.0
            },
            {
                "start_time": 9.884090909090908,
                "end_time": 9.936363636363636,
                "pitch": 47,
                "velocity": 80,
                "duration": 0.05227272727272769,
                "tempo": 120.0
            },
            {
                "start_time": 3.502272727272727,
                "end_time": 9.936363636363636,
                "pitch": 53,
                "velocity": 80,
                "duration": 6.434090909090909,
                "tempo": 120.0
            },
            {
                "start_time": 6.515909090909091,
                "end_time": 11.352272727272727,
                "pitch": 19,
                "velocity": 80,
                "duration": 4.836363636363636,
                "tempo": 120.0
            },
            {
                "start_time": 9.936363636363636,
                "end_time": 11.352272727272727,
                "pitch": 50,
                "velocity": 80,
                "duration": 1.415909090909091,
                "tempo": 120.0
            },
            {
                "start_time": 11.352272727272727,
                "end_time": 11.402272727272727,
                "pitch": 33,
                "velocity": 80,
                "duration": 0.05000000000000071,
                "tempo": 120.0
            },
            {
                "start_time": 11.402272727272727,
                "end_time": 11.456818181818182,
                "pitch": 36,
                "velocity": 80,
                "duration": 0.054545454545454675,
                "tempo": 120.0
            },
            {
                "start_time": 11.402272727272727,
                "end_time": 11.456818181818182,
                "pitch": 40,
                "velocity": 80,
                "duration": 0.054545454545454675,
                "tempo": 120.0
            },
            {
                "start_time": 6.665909090909091,
                "end_time": 11.502272727272727,
                "pitch": 7,
                "velocity": 80,
                "duration": 4.836363636363636,
                "tempo": 120.0
            },
            {
                "start_time": 11.456818181818182,
                "end_time": 11.502272727272727,
                "pitch": 40,
                "velocity": 80,
                "duration": 0.04545454545454497,
                "tempo": 120.0
            },
            {
                "start_time": 11.456818181818182,
                "end_time": 11.502272727272727,
                "pitch": 40,
                "velocity": 80,
                "duration": 0.04545454545454497,
                "tempo": 120.0
            },
            {
                "start_time": 11.502272727272727,
                "end_time": 11.552272727272726,
                "pitch": 45,
                "velocity": 80,
                "duration": 0.049999999999998934,
                "tempo": 120.0
            },
            {
                "start_time": 6.718181818181818,
                "end_time": 11.552272727272726,
                "pitch": 52,
                "velocity": 80,
                "duration": 4.834090909090908,
                "tempo": 120.0
            },
            {
                "start_time": 11.552272727272726,
                "end_time": 51.56363636363636,
                "pitch": 48,
                "velocity": 80,
                "duration": 40.01136363636364,
                "tempo": 120.0
            },
            {
                "start_time": 51.56363636363636,
                "end_time": 51.611363636363635,
                "pitch": 33,
                "velocity": 80,
                "duration": 0.04772727272727195,
                "tempo": 120.0
            },
            {
                "start_time": 51.611363636363635,
                "end_time": 51.67045454545454,
                "pitch": 36,
                "velocity": 80,
                "duration": 0.059090909090905086,
                "tempo": 120.0
            },
            {
                "start_time": 51.611363636363635,
                "end_time": 51.67045454545454,
                "pitch": 40,
                "velocity": 80,
                "duration": 0.059090909090905086,
                "tempo": 120.0
            },
            {
                "start_time": 11.502272727272727,
                "end_time": 51.71363636363636,
                "pitch": 7,
                "velocity": 80,
                "duration": 40.211363636363636,
                "tempo": 120.0
            },
            {
                "start_time": 51.67045454545454,
                "end_time": 51.71363636363636,
                "pitch": 40,
                "velocity": 80,
                "duration": 0.04318181818182154,
                "tempo": 120.0
            },
            {
                "start_time": 51.67045454545454,
                "end_time": 51.71363636363636,
                "pitch": 40,
                "velocity": 80,
                "duration": 0.04318181818182154,
                "tempo": 120.0
            },
            {
                "start_time": 51.71363636363636,
                "end_time": 51.76590909090909,
                "pitch": 45,
                "velocity": 80,
                "duration": 0.05227272727272947,
                "tempo": 120.0
            },
            {
                "start_time": 11.552272727272726,
                "end_time": 51.76590909090909,
                "pitch": 52,
                "velocity": 80,
                "duration": 40.21363636363637,
                "tempo": 120.0
            },
            {
                "start_time": 51.76590909090909,
                "end_time": 53.168181818181814,
                "pitch": 48,
                "velocity": 80,
                "duration": 1.4022727272727238,
                "tempo": 120.0
            },
            {
                "start_time": 53.168181818181814,
                "end_time": 53.21818181818182,
                "pitch": 31,
                "velocity": 80,
                "duration": 0.05000000000000426,
                "tempo": 120.0
            },
            {
                "start_time": 53.21818181818182,
                "end_time": 53.27045454545454,
                "pitch": 35,
                "velocity": 80,
                "duration": 0.052272727272722364,
                "tempo": 120.0
            },
            {
                "start_time": 53.21818181818182,
                "end_time": 53.27045454545454,
                "pitch": 35,
                "velocity": 80,
                "duration": 0.052272727272722364,
                "tempo": 120.0
            },
            {
                "start_time": 53.27045454545454,
                "end_time": 53.31818181818181,
                "pitch": 38,
                "velocity": 80,
                "duration": 0.04772727272727195,
                "tempo": 120.0
            },
            {
                "start_time": 53.31818181818181,
                "end_time": 53.37045454545454,
                "pitch": 43,
                "velocity": 80,
                "duration": 0.05227272727272947,
                "tempo": 120.0
            },
            {
                "start_time": 53.37045454545454,
                "end_time": 54.77272727272727,
                "pitch": 47,
                "velocity": 80,
                "duration": 1.402272727272731,
                "tempo": 120.0
            },
            {
                "start_time": 53.37045454545454,
                "end_time": 54.77272727272727,
                "pitch": 47,
                "velocity": 80,
                "duration": 1.402272727272731,
                "tempo": 120.0
            },
            {
                "start_time": 54.77272727272727,
                "end_time": 54.82272727272727,
                "pitch": 35,
                "velocity": 80,
                "duration": 0.04999999999999716,
                "tempo": 120.0
            },
            {
                "start_time": 53.27045454545454,
                "end_time": 54.82272727272727,
                "pitch": 41,
                "velocity": 80,
                "duration": 1.5522727272727295,
                "tempo": 120.0
            },
            {
                "start_time": 54.82272727272727,
                "end_time": 54.875,
                "pitch": 38,
                "velocity": 80,
                "duration": 0.05227272727272947,
                "tempo": 120.0
            },
            {
                "start_time": 54.82272727272727,
                "end_time": 54.875,
                "pitch": 41,
                "velocity": 80,
                "duration": 0.05227272727272947,
                "tempo": 120.0
            },
            {
                "start_time": 9.884090909090908,
                "end_time": 54.92272727272727,
                "pitch": 20,
                "velocity": 80,
                "duration": 45.038636363636364,
                "tempo": 120.0
            },
            {
                "start_time": 54.875,
                "end_time": 54.92272727272727,
                "pitch": 41,
                "velocity": 80,
                "duration": 0.04772727272727195,
                "tempo": 120.0
            },
            {
                "start_time": 54.875,
                "end_time": 54.92272727272727,
                "pitch": 41,
                "velocity": 80,
                "duration": 0.04772727272727195,
                "tempo": 120.0
            },
            {
                "start_time": 54.92272727272727,
                "end_time": 54.974999999999994,
                "pitch": 47,
                "velocity": 80,
                "duration": 0.052272727272722364,
                "tempo": 120.0
            },
            {
                "start_time": 9.936363636363636,
                "end_time": 54.974999999999994,
                "pitch": 53,
                "velocity": 80,
                "duration": 45.03863636363636,
                "tempo": 120.0
            },
            {
                "start_time": 11.352272727272727,
                "end_time": 56.377272727272725,
                "pitch": 19,
                "velocity": 80,
                "duration": 45.025,
                "tempo": 120.0
            },
            {
                "start_time": 54.974999999999994,
                "end_time": 56.377272727272725,
                "pitch": 50,
                "velocity": 80,
                "duration": 1.402272727272731,
                "tempo": 120.0
            },
            {
                "start_time": 56.377272727272725,
                "end_time": 56.42727272727272,
                "pitch": 33,
                "velocity": 80,
                "duration": 0.04999999999999716,
                "tempo": 120.0
            },
            {
                "start_time": 56.42727272727272,
                "end_time": 56.47954545454545,
                "pitch": 36,
                "velocity": 80,
                "duration": 0.05227272727272947,
                "tempo": 120.0
            },
            {
                "start_time": 56.42727272727272,
                "end_time": 56.47954545454545,
                "pitch": 40,
                "velocity": 80,
                "duration": 0.05227272727272947,
                "tempo": 120.0
            },
            {
                "start_time": 51.71363636363636,
                "end_time": 56.527272727272724,
                "pitch": 7,
                "velocity": 80,
                "duration": 4.813636363636363,
                "tempo": 120.0
            },
            {
                "start_time": 56.47954545454545,
                "end_time": 56.527272727272724,
                "pitch": 40,
                "velocity": 80,
                "duration": 0.04772727272727195,
                "tempo": 120.0
            },
            {
                "start_time": 56.47954545454545,
                "end_time": 56.527272727272724,
                "pitch": 40,
                "velocity": 80,
                "duration": 0.04772727272727195,
                "tempo": 120.0
            },
            {
                "start_time": 56.527272727272724,
                "end_time": 56.57954545454545,
                "pitch": 45,
                "velocity": 80,
                "duration": 0.05227272727272947,
                "tempo": 120.0
            },
            {
                "start_time": 51.76590909090909,
                "end_time": 56.57954545454545,
                "pitch": 52,
                "velocity": 80,
                "duration": 4.813636363636363,
                "tempo": 120.0
            },
            {
                "start_time": 56.377272727272725,
                "end_time": 57.99318181818182,
                "pitch": 19,
                "velocity": 80,
                "duration": 1.615909090909092,
                "tempo": 120.0
            },
            {
                "start_time": 56.57954545454545,
                "end_time": 57.99318181818182,
                "pitch": 48,
                "velocity": 80,
                "duration": 1.413636363636364,
                "tempo": 120.0
            },
            {
                "start_time": 57.99318181818182,
                "end_time": 58.043181818181814,
                "pitch": 33,
                "velocity": 80,
                "duration": 0.04999999999999716,
                "tempo": 120.0
            },
            {
                "start_time": 58.043181818181814,
                "end_time": 58.04545454545454,
                "pitch": 40,
                "velocity": 80,
                "duration": 0.0022727272727252057,
                "tempo": 120.0
            },
            {
                "start_time": 58.04545454545454,
                "end_time": 58.099999999999994,
                "pitch": 36,
                "velocity": 80,
                "duration": 0.054545454545454675,
                "tempo": 120.0
            },
            {
                "start_time": 56.527272727272724,
                "end_time": 58.14545454545454,
                "pitch": 7,
                "velocity": 80,
                "duration": 1.6181818181818173,
                "tempo": 120.0
            },
            {
                "start_time": 58.099999999999994,
                "end_time": 58.14545454545454,
                "pitch": 40,
                "velocity": 80,
                "duration": 0.045454545454546746,
                "tempo": 120.0
            },
            {
                "start_time": 58.099999999999994,
                "end_time": 58.14545454545454,
                "pitch": 40,
                "velocity": 80,
                "duration": 0.045454545454546746,
                "tempo": 120.0
            },
            {
                "start_time": 58.14545454545454,
                "end_time": 58.195454545454545,
                "pitch": 45,
                "velocity": 80,
                "duration": 0.05000000000000426,
                "tempo": 120.0
            },
            {
                "start_time": 56.57954545454545,
                "end_time": 58.195454545454545,
                "pitch": 52,
                "velocity": 80,
                "duration": 1.615909090909092,
                "tempo": 120.0
            },
            {
                "start_time": 58.195454545454545,
                "end_time": 59.60227272727273,
                "pitch": 48,
                "velocity": 80,
                "duration": 1.4068181818181813,
                "tempo": 120.0
            },
            {
                "start_time": 59.60227272727273,
                "end_time": 59.65,
                "pitch": 31,
                "velocity": 80,
                "duration": 0.04772727272727195,
                "tempo": 120.0
            },
            {
                "start_time": 59.65,
                "end_time": 59.70454545454545,
                "pitch": 35,
                "velocity": 80,
                "duration": 0.054545454545454675,
                "tempo": 120.0
            },
            {
                "start_time": 59.65,
                "end_time": 59.70454545454545,
                "pitch": 35,
                "velocity": 80,
                "duration": 0.054545454545454675,
                "tempo": 120.0
            },
            {
                "start_time": 59.70454545454545,
                "end_time": 59.75,
                "pitch": 38,
                "velocity": 80,
                "duration": 0.045454545454546746,
                "tempo": 120.0
            },
            {
                "start_time": 59.75,
                "end_time": 59.8,
                "pitch": 43,
                "velocity": 80,
                "duration": 0.04999999999999716,
                "tempo": 120.0
            },
            {
                "start_time": 59.8,
                "end_time": 61.20681818181818,
                "pitch": 47,
                "velocity": 80,
                "duration": 1.4068181818181813,
                "tempo": 120.0
            },
            {
                "start_time": 59.8,
                "end_time": 61.20681818181818,
                "pitch": 47,
                "velocity": 80,
                "duration": 1.4068181818181813,
                "tempo": 120.0
            },
            {
                "start_time": 61.20681818181818,
                "end_time": 61.25454545454545,
                "pitch": 35,
                "velocity": 80,
                "duration": 0.04772727272727195,
                "tempo": 120.0
            },
            {
                "start_time": 59.70454545454545,
                "end_time": 61.25454545454545,
                "pitch": 41,
                "velocity": 80,
                "duration": 1.5499999999999972,
                "tempo": 120.0
            },
            {
                "start_time": 61.25454545454545,
                "end_time": 61.309090909090905,
                "pitch": 38,
                "velocity": 80,
                "duration": 0.054545454545454675,
                "tempo": 120.0
            },
            {
                "start_time": 61.25454545454545,
                "end_time": 61.309090909090905,
                "pitch": 41,
                "velocity": 80,
                "duration": 0.054545454545454675,
                "tempo": 120.0
            },
            {
                "start_time": 54.92272727272727,
                "end_time": 61.35454545454545,
                "pitch": 20,
                "velocity": 80,
                "duration": 6.43181818181818,
                "tempo": 120.0
            },
            {
                "start_time": 61.309090909090905,
                "end_time": 61.35454545454545,
                "pitch": 41,
                "velocity": 80,
                "duration": 0.045454545454546746,
                "tempo": 120.0
            },
            {
                "start_time": 61.309090909090905,
                "end_time": 61.35454545454545,
                "pitch": 41,
                "velocity": 80,
                "duration": 0.045454545454546746,
                "tempo": 120.0
            },
            {
                "start_time": 61.35454545454545,
                "end_time": 61.40454545454545,
                "pitch": 47,
                "velocity": 80,
                "duration": 0.04999999999999716,
                "tempo": 120.0
            },
            {
                "start_time": 54.974999999999994,
                "end_time": 61.40454545454545,
                "pitch": 53,
                "velocity": 80,
                "duration": 6.429545454545455,
                "tempo": 120.0
            },
            {
                "start_time": 61.40454545454545,
                "end_time": 62.809090909090905,
                "pitch": 50,
                "velocity": 80,
                "duration": 1.404545454545456,
                "tempo": 120.0
            },
            {
                "start_time": 57.99318181818182,
                "end_time": 62.81136363636363,
                "pitch": 19,
                "velocity": 80,
                "duration": 4.818181818181813,
                "tempo": 120.0
            },
            {
                "start_time": 62.809090909090905,
                "end_time": 62.81136363636363,
                "pitch": 19,
                "velocity": 80,
                "duration": 0.0022727272727252057,
                "tempo": 120.0
            },
            {
                "start_time": 62.81136363636363,
                "end_time": 62.85909090909091,
                "pitch": 33,
                "velocity": 80,
                "duration": 0.04772727272727906,
                "tempo": 120.0
            },
            {
                "start_time": 62.85909090909091,
                "end_time": 62.913636363636364,
                "pitch": 36,
                "velocity": 80,
                "duration": 0.054545454545454675,
                "tempo": 120.0
            },
            {
                "start_time": 62.85909090909091,
                "end_time": 62.913636363636364,
                "pitch": 40,
                "velocity": 80,
                "duration": 0.054545454545454675,
                "tempo": 120.0
            },
            {
                "start_time": 58.14545454545454,
                "end_time": 62.961363636363636,
                "pitch": 7,
                "velocity": 80,
                "duration": 4.815909090909095,
                "tempo": 120.0
            },
            {
                "start_time": 62.913636363636364,
                "end_time": 62.961363636363636,
                "pitch": 40,
                "velocity": 80,
                "duration": 0.04772727272727195,
                "tempo": 120.0
            },
            {
                "start_time": 62.913636363636364,
                "end_time": 62.961363636363636,
                "pitch": 40,
                "velocity": 80,
                "duration": 0.04772727272727195,
                "tempo": 120.0
            },
            {
                "start_time": 62.961363636363636,
                "end_time": 63.01136363636363,
                "pitch": 45,
                "velocity": 80,
                "duration": 0.04999999999999716,
                "tempo": 120.0
            },
            {
                "start_time": 58.195454545454545,
                "end_time": 63.01136363636363,
                "pitch": 52,
                "velocity": 80,
                "duration": 4.815909090909088,
                "tempo": 120.0
            },
            {
                "start_time": 63.01136363636363,
                "end_time": 103.06818181818181,
                "pitch": 48,
                "velocity": 80,
                "duration": 40.05681818181818,
                "tempo": 120.0
            },
            {
                "start_time": 103.06818181818181,
                "end_time": 103.11590909090908,
                "pitch": 33,
                "velocity": 80,
                "duration": 0.04772727272727195,
                "tempo": 120.0
            },
            {
                "start_time": 103.11590909090908,
                "end_time": 103.17954545454545,
                "pitch": 36,
                "velocity": 80,
                "duration": 0.0636363636363626,
                "tempo": 120.0
            },
            {
                "start_time": 103.11590909090908,
                "end_time": 103.17954545454545,
                "pitch": 40,
                "velocity": 80,
                "duration": 0.0636363636363626,
                "tempo": 120.0
            },
            {
                "start_time": 62.961363636363636,
                "end_time": 103.21818181818182,
                "pitch": 7,
                "velocity": 80,
                "duration": 40.25681818181818,
                "tempo": 120.0
            },
            {
                "start_time": 103.17954545454545,
                "end_time": 103.21818181818182,
                "pitch": 40,
                "velocity": 80,
                "duration": 0.03863636363637113,
                "tempo": 120.0
            },
            {
                "start_time": 103.17954545454545,
                "end_time": 103.21818181818182,
                "pitch": 40,
                "velocity": 80,
                "duration": 0.03863636363637113,
                "tempo": 120.0
            },
            {
                "start_time": 103.21818181818182,
                "end_time": 103.27272727272727,
                "pitch": 45,
                "velocity": 80,
                "duration": 0.05454545454544757,
                "tempo": 120.0
            },
            {
                "start_time": 63.01136363636363,
                "end_time": 103.27272727272727,
                "pitch": 52,
                "velocity": 80,
                "duration": 40.26136363636363,
                "tempo": 120.0
            },
            {
                "start_time": 103.27499999999999,
                "end_time": 104.68863636363636,
                "pitch": 48,
                "velocity": 80,
                "duration": 1.4136363636363711,
                "tempo": 120.0
            },
            {
                "start_time": 104.68863636363636,
                "end_time": 104.73636363636363,
                "pitch": 31,
                "velocity": 80,
                "duration": 0.04772727272727195,
                "tempo": 120.0
            },
            {
                "start_time": 104.73636363636363,
                "end_time": 104.73863636363636,
                "pitch": 35,
                "velocity": 80,
                "duration": 0.0022727272727252057,
                "tempo": 120.0
            },
            {
                "start_time": 104.73863636363636,
                "end_time": 104.79090909090908,
                "pitch": 35,
                "velocity": 80,
                "duration": 0.052272727272722364,
                "tempo": 120.0
            },
            {
                "start_time": 104.79090909090908,
                "end_time": 104.83636363636363,
                "pitch": 38,
                "velocity": 80,
                "duration": 0.045454545454546746,
                "tempo": 120.0
            },
            {
                "start_time": 104.83636363636363,
                "end_time": 104.88863636363637,
                "pitch": 43,
                "velocity": 80,
                "duration": 0.052272727272736574,
                "tempo": 120.0
            },
            {
                "start_time": 104.88863636363637,
                "end_time": 106.29545454545455,
                "pitch": 47,
                "velocity": 80,
                "duration": 1.4068181818181813,
                "tempo": 120.0
            },
            {
                "start_time": 104.88863636363637,
                "end_time": 106.29545454545455,
                "pitch": 47,
                "velocity": 80,
                "duration": 1.4068181818181813,
                "tempo": 120.0
            },
            {
                "start_time": 106.29545454545455,
                "end_time": 106.34545454545454,
                "pitch": 35,
                "velocity": 80,
                "duration": 0.04999999999999716,
                "tempo": 120.0
            },
            {
                "start_time": 104.79090909090908,
                "end_time": 106.34545454545454,
                "pitch": 41,
                "velocity": 80,
                "duration": 1.5545454545454618,
                "tempo": 120.0
            },
            {
                "start_time": 106.34545454545454,
                "end_time": 106.39772727272727,
                "pitch": 38,
                "velocity": 80,
                "duration": 0.052272727272722364,
                "tempo": 120.0
            },
            {
                "start_time": 106.34545454545454,
                "end_time": 106.39772727272727,
                "pitch": 41,
                "velocity": 80,
                "duration": 0.052272727272722364,
                "tempo": 120.0
            },
            {
                "start_time": 61.35454545454545,
                "end_time": 106.44545454545454,
                "pitch": 20,
                "velocity": 80,
                "duration": 45.090909090909086,
                "tempo": 120.0
            },
            {
                "start_time": 106.39772727272727,
                "end_time": 106.44545454545454,
                "pitch": 41,
                "velocity": 80,
                "duration": 0.04772727272727195,
                "tempo": 120.0
            },
            {
                "start_time": 106.39772727272727,
                "end_time": 106.44545454545454,
                "pitch": 41,
                "velocity": 80,
                "duration": 0.04772727272727195,
                "tempo": 120.0
            },
            {
                "start_time": 106.44545454545454,
                "end_time": 106.49545454545454,
                "pitch": 47,
                "velocity": 80,
                "duration": 0.04999999999999716,
                "tempo": 120.0
            },
            {
                "start_time": 61.40454545454545,
                "end_time": 106.49772727272726,
                "pitch": 53,
                "velocity": 80,
                "duration": 45.09318181818181,
                "tempo": 120.0
            },
            {
                "start_time": 106.49545454545454,
                "end_time": 106.49772727272726,
                "pitch": 53,
                "velocity": 80,
                "duration": 0.0022727272727252057,
                "tempo": 120.0
            },
            {
                "start_time": 106.49772727272726,
                "end_time": 107.90454545454546,
                "pitch": 50,
                "velocity": 80,
                "duration": 1.4068181818181955,
                "tempo": 120.0
            },
            {
                "start_time": 107.90454545454546,
                "end_time": 107.95227272727273,
                "pitch": 33,
                "velocity": 80,
                "duration": 0.04772727272727195,
                "tempo": 120.0
            },
            {
                "start_time": 107.95227272727273,
                "end_time": 108.00681818181818,
                "pitch": 36,
                "velocity": 80,
                "duration": 0.05454545454544757,
                "tempo": 120.0
            },
            {
                "start_time": 107.95227272727273,
                "end_time": 108.00681818181818,
                "pitch": 40,
                "velocity": 80,
                "duration": 0.05454545454544757,
                "tempo": 120.0
            },
            {
                "start_time": 103.21818181818182,
                "end_time": 108.05227272727272,
                "pitch": 7,
                "velocity": 80,
                "duration": 4.834090909090904,
                "tempo": 120.0
            },
            {
                "start_time": 108.00681818181818,
                "end_time": 108.05227272727272,
                "pitch": 40,
                "velocity": 80,
                "duration": 0.045454545454546746,
                "tempo": 120.0
            },
            {
                "start_time": 108.00681818181818,
                "end_time": 108.05227272727272,
                "pitch": 40,
                "velocity": 80,
                "duration": 0.045454545454546746,
                "tempo": 120.0
            },
            {
                "start_time": 108.05227272727272,
                "end_time": 108.10454545454544,
                "pitch": 45,
                "velocity": 80,
                "duration": 0.052272727272722364,
                "tempo": 120.0
            },
            {
                "start_time": 103.27272727272727,
                "end_time": 108.10454545454544,
                "pitch": 52,
                "velocity": 80,
                "duration": 4.8318181818181785,
                "tempo": 120.0
            },
            {
                "start_time": 107.90454545454546,
                "end_time": 109.51363636363635,
                "pitch": 19,
                "velocity": 80,
                "duration": 1.6090909090908951,
                "tempo": 120.0
            },
            {
                "start_time": 108.10454545454544,
                "end_time": 109.51363636363635,
                "pitch": 48,
                "velocity": 80,
                "duration": 1.4090909090909065,
                "tempo": 120.0
            },
            {
                "start_time": 109.51363636363635,
                "end_time": 109.56363636363636,
                "pitch": 33,
                "velocity": 80,
                "duration": 0.05000000000001137,
                "tempo": 120.0
            },
            {
                "start_time": 109.56363636363636,
                "end_time": 109.61590909090908,
                "pitch": 36,
                "velocity": 80,
                "duration": 0.052272727272722364,
                "tempo": 120.0
            },
            {
                "start_time": 109.56363636363636,
                "end_time": 109.61590909090908,
                "pitch": 40,
                "velocity": 80,
                "duration": 0.052272727272722364,
                "tempo": 120.0
            },
            {
                "start_time": 108.05227272727272,
                "end_time": 109.66363636363636,
                "pitch": 7,
                "velocity": 80,
                "duration": 1.6113636363636346,
                "tempo": 120.0
            },
            {
                "start_time": 109.61590909090908,
                "end_time": 109.66363636363636,
                "pitch": 40,
                "velocity": 80,
                "duration": 0.04772727272727195,
                "tempo": 120.0
            },
            {
                "start_time": 109.61590909090908,
                "end_time": 109.66363636363636,
                "pitch": 40,
                "velocity": 80,
                "duration": 0.04772727272727195,
                "tempo": 120.0
            },
            {
                "start_time": 109.66363636363636,
                "end_time": 109.71590909090908,
                "pitch": 45,
                "velocity": 80,
                "duration": 0.052272727272722364,
                "tempo": 120.0
            },
            {
                "start_time": 108.10454545454544,
                "end_time": 109.71590909090908,
                "pitch": 52,
                "velocity": 80,
                "duration": 1.6113636363636346,
                "tempo": 120.0
            },
            {
                "start_time": 109.71590909090908,
                "end_time": 111.12045454545454,
                "pitch": 48,
                "velocity": 80,
                "duration": 1.404545454545456,
                "tempo": 120.0
            },
            {
                "start_time": 111.12045454545454,
                "end_time": 111.17045454545455,
                "pitch": 31,
                "velocity": 80,
                "duration": 0.05000000000001137,
                "tempo": 120.0
            },
            {
                "start_time": 111.17045454545455,
                "end_time": 111.22272727272727,
                "pitch": 35,
                "velocity": 80,
                "duration": 0.052272727272722364,
                "tempo": 120.0
            },
            {
                "start_time": 111.17045454545455,
                "end_time": 111.22272727272727,
                "pitch": 35,
                "velocity": 80,
                "duration": 0.052272727272722364,
                "tempo": 120.0
            },
            {
                "start_time": 111.22272727272727,
                "end_time": 111.27045454545454,
                "pitch": 38,
                "velocity": 80,
                "duration": 0.04772727272727195,
                "tempo": 120.0
            },
            {
                "start_time": 111.27045454545454,
                "end_time": 111.32272727272726,
                "pitch": 43,
                "velocity": 80,
                "duration": 0.052272727272722364,
                "tempo": 120.0
            },
            {
                "start_time": 111.32272727272726,
                "end_time": 112.73863636363636,
                "pitch": 47,
                "velocity": 80,
                "duration": 1.4159090909090963,
                "tempo": 120.0
            },
            {
                "start_time": 111.32272727272726,
                "end_time": 112.73863636363636,
                "pitch": 47,
                "velocity": 80,
                "duration": 1.4159090909090963,
                "tempo": 120.0
            },
            {
                "start_time": 112.74090909090908,
                "end_time": 112.78863636363636,
                "pitch": 35,
                "velocity": 80,
                "duration": 0.04772727272727195,
                "tempo": 120.0
            },
            {
                "start_time": 111.22272727272727,
                "end_time": 112.78863636363636,
                "pitch": 41,
                "velocity": 80,
                "duration": 1.5659090909090878,
                "tempo": 120.0
            },
            {
                "start_time": 112.78863636363636,
                "end_time": 112.84090909090908,
                "pitch": 38,
                "velocity": 80,
                "duration": 0.052272727272722364,
                "tempo": 120.0
            },
            {
                "start_time": 112.78863636363636,
                "end_time": 112.84318181818182,
                "pitch": 41,
                "velocity": 80,
                "duration": 0.05454545454546178,
                "tempo": 120.0
            },
            {
                "start_time": 112.84090909090908,
                "end_time": 112.84318181818182,
                "pitch": 41,
                "velocity": 80,
                "duration": 0.0022727272727394165,
                "tempo": 120.0
            },
            {
                "start_time": 106.44545454545454,
                "end_time": 112.88863636363635,
                "pitch": 20,
                "velocity": 80,
                "duration": 6.443181818181813,
                "tempo": 120.0
            },
            {
                "start_time": 112.84318181818182,
                "end_time": 112.88863636363635,
                "pitch": 41,
                "velocity": 80,
                "duration": 0.045454545454532536,
                "tempo": 120.0
            },
            {
                "start_time": 112.88863636363635,
                "end_time": 112.94090909090909,
                "pitch": 47,
                "velocity": 80,
                "duration": 0.052272727272736574,
                "tempo": 120.0
            },
            {
                "start_time": 109.51363636363635,
                "end_time": 114.35,
                "pitch": 19,
                "velocity": 80,
                "duration": 4.836363636363643,
                "tempo": 120.0
            },
            {
                "start_time": 112.94090909090909,
                "end_time": 114.35,
                "pitch": 50,
                "velocity": 80,
                "duration": 1.4090909090909065,
                "tempo": 120.0
            },
            {
                "start_time": 114.35,
                "end_time": 114.39772727272727,
                "pitch": 33,
                "velocity": 80,
                "duration": 0.04772727272727195,
                "tempo": 120.0
            },
            {
                "start_time": 114.39772727272727,
                "end_time": 114.45227272727273,
                "pitch": 36,
                "velocity": 80,
                "duration": 0.05454545454546178,
                "tempo": 120.0
            },
            {
                "start_time": 114.39772727272727,
                "end_time": 114.45227272727273,
                "pitch": 40,
                "velocity": 80,
                "duration": 0.05454545454546178,
                "tempo": 120.0
            },
            {
                "start_time": 109.66363636363636,
                "end_time": 114.49772727272726,
                "pitch": 7,
                "velocity": 80,
                "duration": 4.834090909090904,
                "tempo": 120.0
            },
            {
                "start_time": 114.45227272727273,
                "end_time": 114.49772727272726,
                "pitch": 40,
                "velocity": 80,
                "duration": 0.045454545454532536,
                "tempo": 120.0
            },
            {
                "start_time": 114.45227272727273,
                "end_time": 114.49772727272726,
                "pitch": 40,
                "velocity": 80,
                "duration": 0.045454545454532536,
                "tempo": 120.0
            },
            {
                "start_time": 114.49772727272726,
                "end_time": 114.55,
                "pitch": 45,
                "velocity": 80,
                "duration": 0.052272727272736574,
                "tempo": 120.0
            },
            {
                "start_time": 109.71590909090908,
                "end_time": 114.55,
                "pitch": 52,
                "velocity": 80,
                "duration": 4.834090909090918,
                "tempo": 120.0
            },
            {
                "start_time": 114.55,
                "end_time": 154.6340909090909,
                "pitch": 48,
                "velocity": 80,
                "duration": 40.084090909090904,
                "tempo": 120.0
            },
            {
                "start_time": 154.6340909090909,
                "end_time": 154.6818181818182,
                "pitch": 33,
                "velocity": 80,
                "duration": 0.04772727272728616,
                "tempo": 120.0
            },
            {
                "start_time": 154.6818181818182,
                "end_time": 154.74090909090907,
                "pitch": 36,
                "velocity": 80,
                "duration": 0.05909090909088377,
                "tempo": 120.0
            },
            {
                "start_time": 154.6818181818182,
                "end_time": 154.74090909090907,
                "pitch": 40,
                "velocity": 80,
                "duration": 0.05909090909088377,
                "tempo": 120.0
            },
            {
                "start_time": 114.49772727272726,
                "end_time": 154.78181818181818,
                "pitch": 7,
                "velocity": 80,
                "duration": 40.28409090909092,
                "tempo": 120.0
            },
            {
                "start_time": 154.74090909090907,
                "end_time": 154.78181818181818,
                "pitch": 40,
                "velocity": 80,
                "duration": 0.040909090909110546,
                "tempo": 120.0
            },
            {
                "start_time": 154.74318181818182,
                "end_time": 154.78181818181818,
                "pitch": 40,
                "velocity": 80,
                "duration": 0.03863636363635692,
                "tempo": 120.0
            },
            {
                "start_time": 154.78181818181818,
                "end_time": 154.83636363636361,
                "pitch": 45,
                "velocity": 80,
                "duration": 0.05454545454543336,
                "tempo": 120.0
            },
            {
                "start_time": 114.55,
                "end_time": 154.83636363636361,
                "pitch": 52,
                "velocity": 80,
                "duration": 40.28636363636362,
                "tempo": 120.0
            },
            {
                "start_time": 154.83636363636361,
                "end_time": 156.24318181818182,
                "pitch": 48,
                "velocity": 80,
                "duration": 1.4068181818182097,
                "tempo": 120.0
            },
            {
                "start_time": 156.24318181818182,
                "end_time": 156.29090909090908,
                "pitch": 31,
                "velocity": 80,
                "duration": 0.04772727272725774,
                "tempo": 120.0
            },
            {
                "start_time": 156.29090909090908,
                "end_time": 156.34545454545454,
                "pitch": 35,
                "velocity": 80,
                "duration": 0.05454545454546178,
                "tempo": 120.0
            },
            {
                "start_time": 156.29090909090908,
                "end_time": 156.34545454545454,
                "pitch": 35,
                "velocity": 80,
                "duration": 0.05454545454546178,
                "tempo": 120.0
            },
            {
                "start_time": 156.34545454545454,
                "end_time": 156.3931818181818,
                "pitch": 38,
                "velocity": 80,
                "duration": 0.04772727272725774,
                "tempo": 120.0
            },
            {
                "start_time": 156.3931818181818,
                "end_time": 156.44545454545454,
                "pitch": 43,
                "velocity": 80,
                "duration": 0.052272727272736574,
                "tempo": 120.0
            },
            {
                "start_time": 156.44545454545454,
                "end_time": 157.85,
                "pitch": 47,
                "velocity": 80,
                "duration": 1.404545454545456,
                "tempo": 120.0
            },
            {
                "start_time": 156.44545454545454,
                "end_time": 157.85,
                "pitch": 47,
                "velocity": 80,
                "duration": 1.404545454545456,
                "tempo": 120.0
            },
            {
                "start_time": 157.85,
                "end_time": 157.9,
                "pitch": 35,
                "velocity": 80,
                "duration": 0.05000000000001137,
                "tempo": 120.0
            },
            {
                "start_time": 156.34545454545454,
                "end_time": 157.9,
                "pitch": 41,
                "velocity": 80,
                "duration": 1.5545454545454618,
                "tempo": 120.0
            },
            {
                "start_time": 157.9,
                "end_time": 157.95454545454544,
                "pitch": 38,
                "velocity": 80,
                "duration": 0.05454545454543336,
                "tempo": 120.0
            },
            {
                "start_time": 157.9,
                "end_time": 157.95454545454544,
                "pitch": 41,
                "velocity": 80,
                "duration": 0.05454545454543336,
                "tempo": 120.0
            },
            {
                "start_time": 112.88863636363635,
                "end_time": 158.0,
                "pitch": 20,
                "velocity": 80,
                "duration": 45.11136363636365,
                "tempo": 120.0
            },
            {
                "start_time": 157.95454545454544,
                "end_time": 158.0,
                "pitch": 41,
                "velocity": 80,
                "duration": 0.04545454545456096,
                "tempo": 120.0
            },
            {
                "start_time": 157.95454545454544,
                "end_time": 158.0,
                "pitch": 41,
                "velocity": 80,
                "duration": 0.04545454545456096,
                "tempo": 120.0
            },
            {
                "start_time": 158.0,
                "end_time": 158.0522727272727,
                "pitch": 47,
                "velocity": 80,
                "duration": 0.05227272727270815,
                "tempo": 120.0
            },
            {
                "start_time": 112.94090909090909,
                "end_time": 158.0522727272727,
                "pitch": 53,
                "velocity": 80,
                "duration": 45.11136363636362,
                "tempo": 120.0
            },
            {
                "start_time": 114.35,
                "end_time": 159.4659090909091,
                "pitch": 19,
                "velocity": 80,
                "duration": 45.1159090909091,
                "tempo": 120.0
            },
            {
                "start_time": 158.0522727272727,
                "end_time": 159.4659090909091,
                "pitch": 50,
                "velocity": 80,
                "duration": 1.4136363636363853,
                "tempo": 120.0
            },
            {
                "start_time": 159.4659090909091,
                "end_time": 159.5181818181818,
                "pitch": 33,
                "velocity": 80,
                "duration": 0.05227272727270815,
                "tempo": 120.0
            },
            {
                "start_time": 159.5181818181818,
                "end_time": 159.57272727272726,
                "pitch": 36,
                "velocity": 80,
                "duration": 0.05454545454546178,
                "tempo": 120.0
            },
            {
                "start_time": 159.5181818181818,
                "end_time": 159.57272727272726,
                "pitch": 40,
                "velocity": 80,
                "duration": 0.05454545454546178,
                "tempo": 120.0
            },
            {
                "start_time": 154.78181818181818,
                "end_time": 159.61818181818182,
                "pitch": 7,
                "velocity": 80,
                "duration": 4.836363636363643,
                "tempo": 120.0
            },
            {
                "start_time": 159.57272727272726,
                "end_time": 159.61818181818182,
                "pitch": 40,
                "velocity": 80,
                "duration": 0.04545454545456096,
                "tempo": 120.0
            },
            {
                "start_time": 159.57272727272726,
                "end_time": 159.61818181818182,
                "pitch": 40,
                "velocity": 80,
                "duration": 0.04545454545456096,
                "tempo": 120.0
            },
            {
                "start_time": 159.61818181818182,
                "end_time": 159.67045454545453,
                "pitch": 45,
                "velocity": 80,
                "duration": 0.05227272727270815,
                "tempo": 120.0
            },
            {
                "start_time": 154.83636363636361,
                "end_time": 159.67045454545453,
                "pitch": 52,
                "velocity": 80,
                "duration": 4.834090909090918,
                "tempo": 120.0
            },
            {
                "start_time": 159.4659090909091,
                "end_time": 161.07954545454544,
                "pitch": 19,
                "velocity": 80,
                "duration": 1.6136363636363455,
                "tempo": 120.0
            },
            {
                "start_time": 159.67045454545453,
                "end_time": 161.07954545454544,
                "pitch": 48,
                "velocity": 80,
                "duration": 1.4090909090909065,
                "tempo": 120.0
            },
            {
                "start_time": 161.07954545454544,
                "end_time": 161.12954545454545,
                "pitch": 33,
                "velocity": 80,
                "duration": 0.05000000000001137,
                "tempo": 120.0
            },
            {
                "start_time": 161.12954545454545,
                "end_time": 161.1818181818182,
                "pitch": 36,
                "velocity": 80,
                "duration": 0.052272727272736574,
                "tempo": 120.0
            },
            {
                "start_time": 161.12954545454545,
                "end_time": 161.1818181818182,
                "pitch": 40,
                "velocity": 80,
                "duration": 0.052272727272736574,
                "tempo": 120.0
            },
            {
                "start_time": 159.61818181818182,
                "end_time": 161.22954545454544,
                "pitch": 7,
                "velocity": 80,
                "duration": 1.6113636363636203,
                "tempo": 120.0
            },
            {
                "start_time": 161.1818181818182,
                "end_time": 161.22954545454544,
                "pitch": 40,
                "velocity": 80,
                "duration": 0.04772727272725774,
                "tempo": 120.0
            },
            {
                "start_time": 161.1840909090909,
                "end_time": 161.22954545454544,
                "pitch": 40,
                "velocity": 80,
                "duration": 0.045454545454532536,
                "tempo": 120.0
            },
            {
                "start_time": 161.22954545454544,
                "end_time": 161.27954545454546,
                "pitch": 45,
                "velocity": 80,
                "duration": 0.05000000000001137,
                "tempo": 120.0
            },
            {
                "start_time": 159.67045454545453,
                "end_time": 161.27954545454546,
                "pitch": 52,
                "velocity": 80,
                "duration": 1.6090909090909236,
                "tempo": 120.0
            },
            {
                "start_time": 161.27954545454546,
                "end_time": 162.68863636363636,
                "pitch": 48,
                "velocity": 80,
                "duration": 1.4090909090909065,
                "tempo": 120.0
            },
            {
                "start_time": 162.68863636363636,
                "end_time": 162.73863636363635,
                "pitch": 31,
                "velocity": 80,
                "duration": 0.04999999999998295,
                "tempo": 120.0
            },
            {
                "start_time": 162.73863636363635,
                "end_time": 162.7931818181818,
                "pitch": 35,
                "velocity": 80,
                "duration": 0.05454545454546178,
                "tempo": 120.0
            },
            {
                "start_time": 162.73863636363635,
                "end_time": 162.7931818181818,
                "pitch": 35,
                "velocity": 80,
                "duration": 0.05454545454546178,
                "tempo": 120.0
            },
            {
                "start_time": 162.7931818181818,
                "end_time": 162.83863636363637,
                "pitch": 38,
                "velocity": 80,
                "duration": 0.04545454545456096,
                "tempo": 120.0
            },
            {
                "start_time": 162.83863636363637,
                "end_time": 162.8931818181818,
                "pitch": 43,
                "velocity": 80,
                "duration": 0.05454545454543336,
                "tempo": 120.0
            },
            {
                "start_time": 162.8931818181818,
                "end_time": 164.29772727272726,
                "pitch": 47,
                "velocity": 80,
                "duration": 1.404545454545456,
                "tempo": 120.0
            },
            {
                "start_time": 162.8931818181818,
                "end_time": 164.29772727272726,
                "pitch": 47,
                "velocity": 80,
                "duration": 1.404545454545456,
                "tempo": 120.0
            },
            {
                "start_time": 164.29772727272726,
                "end_time": 164.34772727272727,
                "pitch": 35,
                "velocity": 80,
                "duration": 0.05000000000001137,
                "tempo": 120.0
            },
            {
                "start_time": 162.7931818181818,
                "end_time": 164.34772727272727,
                "pitch": 41,
                "velocity": 80,
                "duration": 1.5545454545454618,
                "tempo": 120.0
            },
            {
                "start_time": 164.34772727272727,
                "end_time": 164.4,
                "pitch": 38,
                "velocity": 80,
                "duration": 0.052272727272736574,
                "tempo": 120.0
            },
            {
                "start_time": 164.34772727272727,
                "end_time": 164.4,
                "pitch": 41,
                "velocity": 80,
                "duration": 0.052272727272736574,
                "tempo": 120.0
            },
            {
                "start_time": 158.0,
                "end_time": 164.44772727272726,
                "pitch": 20,
                "velocity": 80,
                "duration": 6.447727272727263,
                "tempo": 120.0
            },
            {
                "start_time": 164.4,
                "end_time": 164.44772727272726,
                "pitch": 41,
                "velocity": 80,
                "duration": 0.04772727272725774,
                "tempo": 120.0
            },
            {
                "start_time": 164.4,
                "end_time": 164.44772727272726,
                "pitch": 41,
                "velocity": 80,
                "duration": 0.04772727272725774,
                "tempo": 120.0
            },
            {
                "start_time": 164.44772727272726,
                "end_time": 164.5,
                "pitch": 47,
                "velocity": 80,
                "duration": 0.052272727272736574,
                "tempo": 120.0
            },
            {
                "start_time": 158.0522727272727,
                "end_time": 164.5,
                "pitch": 53,
                "velocity": 80,
                "duration": 6.447727272727292,
                "tempo": 120.0
            },
            {
                "start_time": 161.07954545454544,
                "end_time": 165.90681818181818,
                "pitch": 19,
                "velocity": 80,
                "duration": 4.827272727272742,
                "tempo": 120.0
            },
            {
                "start_time": 164.5,
                "end_time": 165.90681818181818,
                "pitch": 50,
                "velocity": 80,
                "duration": 1.4068181818181813,
                "tempo": 120.0
            },
            {
                "start_time": 165.90681818181818,
                "end_time": 165.95681818181816,
                "pitch": 33,
                "velocity": 80,
                "duration": 0.04999999999998295,
                "tempo": 120.0
            },
            {
                "start_time": 165.95681818181816,
                "end_time": 166.01136363636363,
                "pitch": 36,
                "velocity": 80,
                "duration": 0.05454545454546178,
                "tempo": 120.0
            },
            {
                "start_time": 165.95681818181816,
                "end_time": 166.01136363636363,
                "pitch": 40,
                "velocity": 80,
                "duration": 0.05454545454546178,
                "tempo": 120.0
            },
            {
                "start_time": 161.22954545454544,
                "end_time": 166.0568181818182,
                "pitch": 7,
                "velocity": 80,
                "duration": 4.827272727272742,
                "tempo": 120.0
            },
            {
                "start_time": 166.01136363636363,
                "end_time": 166.0568181818182,
                "pitch": 40,
                "velocity": 80,
                "duration": 0.04545454545456096,
                "tempo": 120.0
            },
            {
                "start_time": 166.01136363636363,
                "end_time": 166.0568181818182,
                "pitch": 40,
                "velocity": 80,
                "duration": 0.04545454545456096,
                "tempo": 120.0
            },
            {
                "start_time": 166.0568181818182,
                "end_time": 166.1090909090909,
                "pitch": 45,
                "velocity": 80,
                "duration": 0.05227272727270815,
                "tempo": 120.0
            },
            {
                "start_time": 161.27954545454546,
                "end_time": 166.1090909090909,
                "pitch": 52,
                "velocity": 80,
                "duration": 4.829545454545439,
                "tempo": 120.0
            }
        ],
        "Trumpet": [
            {
                "start_time": 13.165909090909091,
                "end_time": 13.370454545454544,
                "pitch": 57,
                "velocity": 80,
                "duration": 0.20454545454545325,
                "tempo": 120.0
            },
            {
                "start_time": 13.370454545454544,
                "end_time": 13.570454545454545,
                "pitch": 59,
                "velocity": 80,
                "duration": 0.20000000000000107,
                "tempo": 120.0
            },
            {
                "start_time": 13.570454545454545,
                "end_time": 14.772727272727272,
                "pitch": 60,
                "velocity": 80,
                "duration": 1.2022727272727263,
                "tempo": 120.0
            },
            {
                "start_time": 14.772727272727272,
                "end_time": 14.972727272727273,
                "pitch": 55,
                "velocity": 80,
                "duration": 0.20000000000000107,
                "tempo": 120.0
            },
            {
                "start_time": 14.972727272727273,
                "end_time": 15.172727272727272,
                "pitch": 57,
                "velocity": 80,
                "duration": 0.1999999999999993,
                "tempo": 120.0
            },
            {
                "start_time": 15.172727272727272,
                "end_time": 16.384090909090908,
                "pitch": 59,
                "velocity": 80,
                "duration": 1.211363636363636,
                "tempo": 120.0
            },
            {
                "start_time": 16.384090909090908,
                "end_time": 16.59090909090909,
                "pitch": 59,
                "velocity": 80,
                "duration": 0.206818181818182,
                "tempo": 120.0
            },
            {
                "start_time": 13.570454545454545,
                "end_time": 16.59090909090909,
                "pitch": 64,
                "velocity": 80,
                "duration": 3.0204545454545446,
                "tempo": 120.0
            },
            {
                "start_time": 16.59090909090909,
                "end_time": 16.79090909090909,
                "pitch": 60,
                "velocity": 80,
                "duration": 0.1999999999999993,
                "tempo": 120.0
            },
            {
                "start_time": 16.79090909090909,
                "end_time": 17.993181818181817,
                "pitch": 62,
                "velocity": 80,
                "duration": 1.202272727272728,
                "tempo": 120.0
            },
            {
                "start_time": 16.79090909090909,
                "end_time": 17.993181818181817,
                "pitch": 62,
                "velocity": 80,
                "duration": 1.202272727272728,
                "tempo": 120.0
            },
            {
                "start_time": 17.993181818181817,
                "end_time": 18.2,
                "pitch": 60,
                "velocity": 80,
                "duration": 0.206818181818182,
                "tempo": 120.0
            },
            {
                "start_time": 17.993181818181817,
                "end_time": 18.2,
                "pitch": 60,
                "velocity": 80,
                "duration": 0.206818181818182,
                "tempo": 120.0
            },
            {
                "start_time": 18.2,
                "end_time": 18.402272727272727,
                "pitch": 59,
                "velocity": 80,
                "duration": 0.20227272727272805,
                "tempo": 120.0
            },
            {
                "start_time": 18.402272727272727,
                "end_time": 19.60681818181818,
                "pitch": 57,
                "velocity": 80,
                "duration": 1.2045454545454533,
                "tempo": 120.0
            },
            {
                "start_time": 19.60681818181818,
                "end_time": 19.80909090909091,
                "pitch": 57,
                "velocity": 80,
                "duration": 0.20227272727272805,
                "tempo": 120.0
            },
            {
                "start_time": 19.80909090909091,
                "end_time": 20.009090909090908,
                "pitch": 59,
                "velocity": 80,
                "duration": 0.1999999999999993,
                "tempo": 120.0
            },
            {
                "start_time": 16.59090909090909,
                "end_time": 20.009090909090908,
                "pitch": 64,
                "velocity": 80,
                "duration": 3.418181818181818,
                "tempo": 120.0
            },
            {
                "start_time": 20.009090909090908,
                "end_time": 21.21363636363636,
                "pitch": 60,
                "velocity": 80,
                "duration": 1.2045454545454533,
                "tempo": 120.0
            },
            {
                "start_time": 21.21363636363636,
                "end_time": 21.413636363636364,
                "pitch": 55,
                "velocity": 80,
                "duration": 0.20000000000000284,
                "tempo": 120.0
            },
            {
                "start_time": 21.413636363636364,
                "end_time": 21.613636363636363,
                "pitch": 57,
                "velocity": 80,
                "duration": 0.1999999999999993,
                "tempo": 120.0
            },
            {
                "start_time": 21.613636363636363,
                "end_time": 22.818181818181817,
                "pitch": 59,
                "velocity": 80,
                "duration": 1.2045454545454533,
                "tempo": 120.0
            },
            {
                "start_time": 22.818181818181817,
                "end_time": 23.020454545454545,
                "pitch": 59,
                "velocity": 80,
                "duration": 0.20227272727272805,
                "tempo": 120.0
            },
            {
                "start_time": 20.009090909090908,
                "end_time": 23.020454545454545,
                "pitch": 64,
                "velocity": 80,
                "duration": 3.0113636363636367,
                "tempo": 120.0
            },
            {
                "start_time": 23.020454545454545,
                "end_time": 23.220454545454544,
                "pitch": 60,
                "velocity": 80,
                "duration": 0.1999999999999993,
                "tempo": 120.0
            },
            {
                "start_time": 23.220454545454544,
                "end_time": 24.427272727272726,
                "pitch": 62,
                "velocity": 80,
                "duration": 1.206818181818182,
                "tempo": 120.0
            },
            {
                "start_time": 23.220454545454544,
                "end_time": 24.427272727272726,
                "pitch": 62,
                "velocity": 80,
                "duration": 1.206818181818182,
                "tempo": 120.0
            },
            {
                "start_time": 23.020454545454545,
                "end_time": 24.634090909090908,
                "pitch": 64,
                "velocity": 80,
                "duration": 1.6136363636363633,
                "tempo": 120.0
            },
            {
                "start_time": 24.427272727272726,
                "end_time": 24.634090909090908,
                "pitch": 64,
                "velocity": 80,
                "duration": 0.206818181818182,
                "tempo": 120.0
            },
            {
                "start_time": 24.634090909090908,
                "end_time": 24.836363636363636,
                "pitch": 62,
                "velocity": 80,
                "duration": 0.20227272727272805,
                "tempo": 120.0
            },
            {
                "start_time": 24.836363636363636,
                "end_time": 38.9,
                "pitch": 60,
                "velocity": 80,
                "duration": 14.063636363636363,
                "tempo": 120.0
            },
            {
                "start_time": 24.836363636363636,
                "end_time": 38.9,
                "pitch": 60,
                "velocity": 80,
                "duration": 14.063636363636363,
                "tempo": 120.0
            },
            {
                "start_time": 18.2,
                "end_time": 39.10454545454545,
                "pitch": 44,
                "velocity": 80,
                "duration": 20.904545454545453,
                "tempo": 120.0
            },
            {
                "start_time": 38.9,
                "end_time": 39.10454545454545,
                "pitch": 60,
                "velocity": 80,
                "duration": 0.20454545454545325,
                "tempo": 120.0
            },
            {
                "start_time": 39.10454545454545,
                "end_time": 39.30681818181818,
                "pitch": 59,
                "velocity": 80,
                "duration": 0.20227272727272805,
                "tempo": 120.0
            },
            {
                "start_time": 39.30681818181818,
                "end_time": 39.9,
                "pitch": 57,
                "velocity": 80,
                "duration": 0.5931818181818187,
                "tempo": 120.0
            },
            {
                "start_time": 39.9,
                "end_time": 40.10227272727273,
                "pitch": 57,
                "velocity": 80,
                "duration": 0.20227272727272805,
                "tempo": 120.0
            },
            {
                "start_time": 40.10227272727273,
                "end_time": 40.304545454545455,
                "pitch": 59,
                "velocity": 80,
                "duration": 0.20227272727272805,
                "tempo": 120.0
            },
            {
                "start_time": 39.10454545454545,
                "end_time": 40.50681818181818,
                "pitch": 44,
                "velocity": 80,
                "duration": 1.402272727272731,
                "tempo": 120.0
            },
            {
                "start_time": 40.304545454545455,
                "end_time": 40.50681818181818,
                "pitch": 60,
                "velocity": 80,
                "duration": 0.20227272727272805,
                "tempo": 120.0
            },
            {
                "start_time": 40.50681818181818,
                "end_time": 40.71363636363636,
                "pitch": 59,
                "velocity": 80,
                "duration": 0.20681818181817846,
                "tempo": 120.0
            },
            {
                "start_time": 40.71363636363636,
                "end_time": 40.913636363636364,
                "pitch": 57,
                "velocity": 80,
                "duration": 0.20000000000000284,
                "tempo": 120.0
            },
            {
                "start_time": 40.913636363636364,
                "end_time": 41.51590909090909,
                "pitch": 55,
                "velocity": 80,
                "duration": 0.6022727272727266,
                "tempo": 120.0
            },
            {
                "start_time": 41.51590909090909,
                "end_time": 41.720454545454544,
                "pitch": 55,
                "velocity": 80,
                "duration": 0.20454545454545325,
                "tempo": 120.0
            },
            {
                "start_time": 41.720454545454544,
                "end_time": 41.92272727272727,
                "pitch": 57,
                "velocity": 80,
                "duration": 0.20227272727272805,
                "tempo": 120.0
            },
            {
                "start_time": 41.92272727272727,
                "end_time": 42.12272727272727,
                "pitch": 59,
                "velocity": 80,
                "duration": 0.19999999999999574,
                "tempo": 120.0
            },
            {
                "start_time": 42.12272727272727,
                "end_time": 42.32272727272727,
                "pitch": 62,
                "velocity": 80,
                "duration": 0.20000000000000284,
                "tempo": 120.0
            },
            {
                "start_time": 40.50681818181818,
                "end_time": 42.52272727272727,
                "pitch": 44,
                "velocity": 80,
                "duration": 2.0159090909090907,
                "tempo": 120.0
            },
            {
                "start_time": 42.32272727272727,
                "end_time": 42.52272727272727,
                "pitch": 60,
                "velocity": 80,
                "duration": 0.20000000000000284,
                "tempo": 120.0
            },
            {
                "start_time": 42.32272727272727,
                "end_time": 42.52272727272727,
                "pitch": 60,
                "velocity": 80,
                "duration": 0.20000000000000284,
                "tempo": 120.0
            },
            {
                "start_time": 42.52272727272727,
                "end_time": 43.125,
                "pitch": 59,
                "velocity": 80,
                "duration": 0.6022727272727266,
                "tempo": 120.0
            },
            {
                "start_time": 43.125,
                "end_time": 43.324999999999996,
                "pitch": 59,
                "velocity": 80,
                "duration": 0.19999999999999574,
                "tempo": 120.0
            },
            {
                "start_time": 40.304545454545455,
                "end_time": 43.324999999999996,
                "pitch": 64,
                "velocity": 80,
                "duration": 3.020454545454541,
                "tempo": 120.0
            },
            {
                "start_time": 43.324999999999996,
                "end_time": 43.525,
                "pitch": 60,
                "velocity": 80,
                "duration": 0.20000000000000284,
                "tempo": 120.0
            },
            {
                "start_time": 43.525,
                "end_time": 43.725,
                "pitch": 62,
                "velocity": 80,
                "duration": 0.20000000000000284,
                "tempo": 120.0
            },
            {
                "start_time": 43.525,
                "end_time": 43.725,
                "pitch": 62,
                "velocity": 80,
                "duration": 0.20000000000000284,
                "tempo": 120.0
            },
            {
                "start_time": 42.52272727272727,
                "end_time": 43.92727272727272,
                "pitch": 44,
                "velocity": 80,
                "duration": 1.404545454545449,
                "tempo": 120.0
            },
            {
                "start_time": 43.725,
                "end_time": 43.92727272727272,
                "pitch": 60,
                "velocity": 80,
                "duration": 0.20227272727272094,
                "tempo": 120.0
            },
            {
                "start_time": 43.725,
                "end_time": 43.92727272727272,
                "pitch": 60,
                "velocity": 80,
                "duration": 0.20227272727272094,
                "tempo": 120.0
            },
            {
                "start_time": 43.92727272727272,
                "end_time": 44.127272727272725,
                "pitch": 59,
                "velocity": 80,
                "duration": 0.20000000000000284,
                "tempo": 120.0
            },
            {
                "start_time": 44.127272727272725,
                "end_time": 45.33181818181818,
                "pitch": 57,
                "velocity": 80,
                "duration": 1.2045454545454533,
                "tempo": 120.0
            },
            {
                "start_time": 43.324999999999996,
                "end_time": 45.33181818181818,
                "pitch": 64,
                "velocity": 80,
                "duration": 2.0068181818181827,
                "tempo": 120.0
            },
            {
                "start_time": 43.92727272727272,
                "end_time": 45.538636363636364,
                "pitch": 44,
                "velocity": 80,
                "duration": 1.6113636363636417,
                "tempo": 120.0
            },
            {
                "start_time": 45.33181818181818,
                "end_time": 45.538636363636364,
                "pitch": 60,
                "velocity": 80,
                "duration": 0.20681818181818556,
                "tempo": 120.0
            },
            {
                "start_time": 45.538636363636364,
                "end_time": 45.73863636363636,
                "pitch": 59,
                "velocity": 80,
                "duration": 0.19999999999999574,
                "tempo": 120.0
            },
            {
                "start_time": 45.73863636363636,
                "end_time": 46.334090909090904,
                "pitch": 57,
                "velocity": 80,
                "duration": 0.5954545454545439,
                "tempo": 120.0
            },
            {
                "start_time": 46.334090909090904,
                "end_time": 46.53409090909091,
                "pitch": 57,
                "velocity": 80,
                "duration": 0.20000000000000284,
                "tempo": 120.0
            },
            {
                "start_time": 46.53409090909091,
                "end_time": 46.736363636363635,
                "pitch": 59,
                "velocity": 80,
                "duration": 0.20227272727272805,
                "tempo": 120.0
            },
            {
                "start_time": 45.33181818181818,
                "end_time": 46.736363636363635,
                "pitch": 64,
                "velocity": 80,
                "duration": 1.404545454545456,
                "tempo": 120.0
            },
            {
                "start_time": 45.538636363636364,
                "end_time": 46.93636363636364,
                "pitch": 44,
                "velocity": 80,
                "duration": 1.3977272727272734,
                "tempo": 120.0
            },
            {
                "start_time": 46.736363636363635,
                "end_time": 46.93636363636364,
                "pitch": 60,
                "velocity": 80,
                "duration": 0.20000000000000284,
                "tempo": 120.0
            },
            {
                "start_time": 46.93636363636364,
                "end_time": 47.143181818181816,
                "pitch": 59,
                "velocity": 80,
                "duration": 0.20681818181817846,
                "tempo": 120.0
            },
            {
                "start_time": 47.143181818181816,
                "end_time": 47.34318181818182,
                "pitch": 57,
                "velocity": 80,
                "duration": 0.20000000000000284,
                "tempo": 120.0
            },
            {
                "start_time": 47.34318181818182,
                "end_time": 47.94090909090909,
                "pitch": 55,
                "velocity": 80,
                "duration": 0.5977272727272691,
                "tempo": 120.0
            },
            {
                "start_time": 47.94090909090909,
                "end_time": 48.14090909090909,
                "pitch": 55,
                "velocity": 80,
                "duration": 0.20000000000000284,
                "tempo": 120.0
            },
            {
                "start_time": 48.14090909090909,
                "end_time": 48.34318181818182,
                "pitch": 57,
                "velocity": 80,
                "duration": 0.20227272727272805,
                "tempo": 120.0
            },
            {
                "start_time": 48.34318181818182,
                "end_time": 48.54545454545454,
                "pitch": 59,
                "velocity": 80,
                "duration": 0.20227272727272094,
                "tempo": 120.0
            },
            {
                "start_time": 42.12272727272727,
                "end_time": 48.54545454545454,
                "pitch": 65,
                "velocity": 80,
                "duration": 6.422727272727272,
                "tempo": 120.0
            },
            {
                "start_time": 48.54545454545454,
                "end_time": 48.75,
                "pitch": 62,
                "velocity": 80,
                "duration": 0.20454545454546036,
                "tempo": 120.0
            },
            {
                "start_time": 46.93636363636364,
                "end_time": 48.95454545454545,
                "pitch": 44,
                "velocity": 80,
                "duration": 2.018181818181816,
                "tempo": 120.0
            },
            {
                "start_time": 48.75,
                "end_time": 48.95454545454545,
                "pitch": 60,
                "velocity": 80,
                "duration": 0.20454545454545325,
                "tempo": 120.0
            },
            {
                "start_time": 48.75,
                "end_time": 48.95454545454545,
                "pitch": 60,
                "velocity": 80,
                "duration": 0.20454545454545325,
                "tempo": 120.0
            },
            {
                "start_time": 48.95454545454545,
                "end_time": 49.54772727272727,
                "pitch": 59,
                "velocity": 80,
                "duration": 0.5931818181818187,
                "tempo": 120.0
            },
            {
                "start_time": 49.54772727272727,
                "end_time": 49.75,
                "pitch": 59,
                "velocity": 80,
                "duration": 0.20227272727272805,
                "tempo": 120.0
            },
            {
                "start_time": 46.736363636363635,
                "end_time": 49.75,
                "pitch": 64,
                "velocity": 80,
                "duration": 3.0136363636363654,
                "tempo": 120.0
            },
            {
                "start_time": 49.75,
                "end_time": 49.95681818181818,
                "pitch": 60,
                "velocity": 80,
                "duration": 0.20681818181817846,
                "tempo": 120.0
            },
            {
                "start_time": 49.95681818181818,
                "end_time": 50.15909090909091,
                "pitch": 62,
                "velocity": 80,
                "duration": 0.20227272727272805,
                "tempo": 120.0
            },
            {
                "start_time": 49.95681818181818,
                "end_time": 50.15909090909091,
                "pitch": 62,
                "velocity": 80,
                "duration": 0.20227272727272805,
                "tempo": 120.0
            },
            {
                "start_time": 48.95454545454545,
                "end_time": 50.35909090909091,
                "pitch": 44,
                "velocity": 80,
                "duration": 1.404545454545456,
                "tempo": 120.0
            },
            {
                "start_time": 50.15909090909091,
                "end_time": 50.35909090909091,
                "pitch": 60,
                "velocity": 80,
                "duration": 0.20000000000000284,
                "tempo": 120.0
            },
            {
                "start_time": 50.15909090909091,
                "end_time": 50.35909090909091,
                "pitch": 60,
                "velocity": 80,
                "duration": 0.20000000000000284,
                "tempo": 120.0
            },
            {
                "start_time": 50.35909090909091,
                "end_time": 50.559090909090905,
                "pitch": 59,
                "velocity": 80,
                "duration": 0.19999999999999574,
                "tempo": 120.0
            },
            {
                "start_time": 50.559090909090905,
                "end_time": 64.61818181818181,
                "pitch": 57,
                "velocity": 80,
                "duration": 14.059090909090905,
                "tempo": 120.0
            },
            {
                "start_time": 64.61818181818181,
                "end_time": 64.82272727272726,
                "pitch": 57,
                "velocity": 80,
                "duration": 0.20454545454545325,
                "tempo": 120.0
            },
            {
                "start_time": 64.82272727272726,
                "end_time": 65.02727272727273,
                "pitch": 59,
                "velocity": 80,
                "duration": 0.20454545454546746,
                "tempo": 120.0
            },
            {
                "start_time": 49.75,
                "end_time": 65.02727272727273,
                "pitch": 64,
                "velocity": 80,
                "duration": 15.277272727272731,
                "tempo": 120.0
            },
            {
                "start_time": 65.02727272727273,
                "end_time": 66.23409090909091,
                "pitch": 60,
                "velocity": 80,
                "duration": 1.2068181818181785,
                "tempo": 120.0
            },
            {
                "start_time": 66.23409090909091,
                "end_time": 66.43409090909091,
                "pitch": 55,
                "velocity": 80,
                "duration": 0.20000000000000284,
                "tempo": 120.0
            },
            {
                "start_time": 66.43409090909091,
                "end_time": 66.6340909090909,
                "pitch": 57,
                "velocity": 80,
                "duration": 0.19999999999998863,
                "tempo": 120.0
            },
            {
                "start_time": 66.6340909090909,
                "end_time": 67.8409090909091,
                "pitch": 59,
                "velocity": 80,
                "duration": 1.2068181818181927,
                "tempo": 120.0
            },
            {
                "start_time": 67.8409090909091,
                "end_time": 68.04318181818182,
                "pitch": 59,
                "velocity": 80,
                "duration": 0.20227272727272805,
                "tempo": 120.0
            },
            {
                "start_time": 65.02727272727273,
                "end_time": 68.04318181818182,
                "pitch": 64,
                "velocity": 80,
                "duration": 3.0159090909090907,
                "tempo": 120.0
            },
            {
                "start_time": 68.04318181818182,
                "end_time": 68.24545454545454,
                "pitch": 60,
                "velocity": 80,
                "duration": 0.20227272727271384,
                "tempo": 120.0
            },
            {
                "start_time": 68.24545454545454,
                "end_time": 69.45227272727273,
                "pitch": 62,
                "velocity": 80,
                "duration": 1.2068181818181927,
                "tempo": 120.0
            },
            {
                "start_time": 68.24545454545454,
                "end_time": 69.45227272727273,
                "pitch": 62,
                "velocity": 80,
                "duration": 1.2068181818181927,
                "tempo": 120.0
            },
            {
                "start_time": 50.35909090909091,
                "end_time": 69.65227272727273,
                "pitch": 44,
                "velocity": 80,
                "duration": 19.29318181818182,
                "tempo": 120.0
            },
            {
                "start_time": 69.45227272727273,
                "end_time": 69.65227272727273,
                "pitch": 60,
                "velocity": 80,
                "duration": 0.20000000000000284,
                "tempo": 120.0
            },
            {
                "start_time": 69.45227272727273,
                "end_time": 69.65227272727273,
                "pitch": 60,
                "velocity": 80,
                "duration": 0.20000000000000284,
                "tempo": 120.0
            },
            {
                "start_time": 69.65227272727273,
                "end_time": 69.85227272727272,
                "pitch": 59,
                "velocity": 80,
                "duration": 0.19999999999998863,
                "tempo": 120.0
            },
            {
                "start_time": 69.85227272727272,
                "end_time": 71.06136363636364,
                "pitch": 57,
                "velocity": 80,
                "duration": 1.2090909090909179,
                "tempo": 120.0
            },
            {
                "start_time": 71.06136363636364,
                "end_time": 71.26818181818182,
                "pitch": 57,
                "velocity": 80,
                "duration": 0.20681818181817846,
                "tempo": 120.0
            },
            {
                "start_time": 71.26818181818182,
                "end_time": 71.46818181818182,
                "pitch": 59,
                "velocity": 80,
                "duration": 0.20000000000000284,
                "tempo": 120.0
            },
            {
                "start_time": 68.04318181818182,
                "end_time": 71.46818181818182,
                "pitch": 64,
                "velocity": 80,
                "duration": 3.424999999999997,
                "tempo": 120.0
            },
            {
                "start_time": 71.46818181818182,
                "end_time": 72.66818181818182,
                "pitch": 60,
                "velocity": 80,
                "duration": 1.2000000000000028,
                "tempo": 120.0
            },
            {
                "start_time": 72.66818181818182,
                "end_time": 72.875,
                "pitch": 55,
                "velocity": 80,
                "duration": 0.20681818181817846,
                "tempo": 120.0
            },
            {
                "start_time": 72.875,
                "end_time": 73.07727272727273,
                "pitch": 57,
                "velocity": 80,
                "duration": 0.20227272727272805,
                "tempo": 120.0
            },
            {
                "start_time": 73.07727272727273,
                "end_time": 74.28181818181818,
                "pitch": 59,
                "velocity": 80,
                "duration": 1.2045454545454533,
                "tempo": 120.0
            },
            {
                "start_time": 74.28181818181818,
                "end_time": 74.48409090909091,
                "pitch": 59,
                "velocity": 80,
                "duration": 0.20227272727272805,
                "tempo": 120.0
            },
            {
                "start_time": 71.46818181818182,
                "end_time": 74.48409090909091,
                "pitch": 64,
                "velocity": 80,
                "duration": 3.0159090909090907,
                "tempo": 120.0
            },
            {
                "start_time": 74.48409090909091,
                "end_time": 74.68636363636364,
                "pitch": 60,
                "velocity": 80,
                "duration": 0.20227272727272805,
                "tempo": 120.0
            },
            {
                "start_time": 74.68636363636364,
                "end_time": 75.89318181818182,
                "pitch": 62,
                "velocity": 80,
                "duration": 1.2068181818181785,
                "tempo": 120.0
            },
            {
                "start_time": 74.68636363636364,
                "end_time": 75.89318181818182,
                "pitch": 62,
                "velocity": 80,
                "duration": 1.2068181818181785,
                "tempo": 120.0
            },
            {
                "start_time": 74.48409090909091,
                "end_time": 76.09318181818182,
                "pitch": 64,
                "velocity": 80,
                "duration": 1.6090909090909093,
                "tempo": 120.0
            },
            {
                "start_time": 75.89318181818182,
                "end_time": 76.09318181818182,
                "pitch": 64,
                "velocity": 80,
                "duration": 0.20000000000000284,
                "tempo": 120.0
            },
            {
                "start_time": 76.09318181818182,
                "end_time": 76.29318181818182,
                "pitch": 62,
                "velocity": 80,
                "duration": 0.20000000000000284,
                "tempo": 120.0
            },
            {
                "start_time": 76.29318181818182,
                "end_time": 90.39090909090909,
                "pitch": 60,
                "velocity": 80,
                "duration": 14.097727272727269,
                "tempo": 120.0
            },
            {
                "start_time": 76.29318181818182,
                "end_time": 90.39090909090909,
                "pitch": 60,
                "velocity": 80,
                "duration": 14.097727272727269,
                "tempo": 120.0
            },
            {
                "start_time": 69.65227272727273,
                "end_time": 90.5909090909091,
                "pitch": 44,
                "velocity": 80,
                "duration": 20.938636363636363,
                "tempo": 120.0
            },
            {
                "start_time": 90.39090909090909,
                "end_time": 90.5909090909091,
                "pitch": 60,
                "velocity": 80,
                "duration": 0.20000000000000284,
                "tempo": 120.0
            },
            {
                "start_time": 90.5909090909091,
                "end_time": 90.79090909090908,
                "pitch": 59,
                "velocity": 80,
                "duration": 0.19999999999998863,
                "tempo": 120.0
            },
            {
                "start_time": 90.79090909090908,
                "end_time": 91.39545454545454,
                "pitch": 57,
                "velocity": 80,
                "duration": 0.6045454545454589,
                "tempo": 120.0
            },
            {
                "start_time": 91.39545454545454,
                "end_time": 91.59545454545454,
                "pitch": 57,
                "velocity": 80,
                "duration": 0.20000000000000284,
                "tempo": 120.0
            },
            {
                "start_time": 91.59545454545454,
                "end_time": 91.79772727272727,
                "pitch": 59,
                "velocity": 80,
                "duration": 0.20227272727272805,
                "tempo": 120.0
            },
            {
                "start_time": 90.5909090909091,
                "end_time": 91.99772727272727,
                "pitch": 44,
                "velocity": 80,
                "duration": 1.4068181818181813,
                "tempo": 120.0
            },
            {
                "start_time": 91.79772727272727,
                "end_time": 91.99772727272727,
                "pitch": 60,
                "velocity": 80,
                "duration": 0.20000000000000284,
                "tempo": 120.0
            },
            {
                "start_time": 91.99772727272727,
                "end_time": 92.19999999999999,
                "pitch": 59,
                "velocity": 80,
                "duration": 0.20227272727271384,
                "tempo": 120.0
            },
            {
                "start_time": 92.19999999999999,
                "end_time": 92.39999999999999,
                "pitch": 57,
                "velocity": 80,
                "duration": 0.20000000000000284,
                "tempo": 120.0
            },
            {
                "start_time": 92.39999999999999,
                "end_time": 93.00454545454545,
                "pitch": 55,
                "velocity": 80,
                "duration": 0.6045454545454589,
                "tempo": 120.0
            },
            {
                "start_time": 93.00454545454545,
                "end_time": 93.20454545454545,
                "pitch": 55,
                "velocity": 80,
                "duration": 0.20000000000000284,
                "tempo": 120.0
            },
            {
                "start_time": 93.20454545454545,
                "end_time": 93.40681818181818,
                "pitch": 57,
                "velocity": 80,
                "duration": 0.20227272727272805,
                "tempo": 120.0
            },
            {
                "start_time": 93.40681818181818,
                "end_time": 93.60454545454544,
                "pitch": 59,
                "velocity": 80,
                "duration": 0.19772727272726343,
                "tempo": 120.0
            },
            {
                "start_time": 48.54545454545454,
                "end_time": 93.60454545454544,
                "pitch": 65,
                "velocity": 80,
                "duration": 45.059090909090905,
                "tempo": 120.0
            },
            {
                "start_time": 93.60454545454544,
                "end_time": 93.80681818181817,
                "pitch": 62,
                "velocity": 80,
                "duration": 0.20227272727272805,
                "tempo": 120.0
            },
            {
                "start_time": 91.99772727272727,
                "end_time": 94.0090909090909,
                "pitch": 44,
                "velocity": 80,
                "duration": 2.011363636363626,
                "tempo": 120.0
            },
            {
                "start_time": 93.80681818181817,
                "end_time": 94.0090909090909,
                "pitch": 60,
                "velocity": 80,
                "duration": 0.20227272727272805,
                "tempo": 120.0
            },
            {
                "start_time": 93.80681818181817,
                "end_time": 94.0090909090909,
                "pitch": 60,
                "velocity": 80,
                "duration": 0.20227272727272805,
                "tempo": 120.0
            },
            {
                "start_time": 94.0090909090909,
                "end_time": 94.61136363636363,
                "pitch": 59,
                "velocity": 80,
                "duration": 0.6022727272727337,
                "tempo": 120.0
            },
            {
                "start_time": 94.61136363636363,
                "end_time": 94.81136363636364,
                "pitch": 59,
                "velocity": 80,
                "duration": 0.20000000000000284,
                "tempo": 120.0
            },
            {
                "start_time": 91.79772727272727,
                "end_time": 94.81136363636364,
                "pitch": 64,
                "velocity": 80,
                "duration": 3.0136363636363654,
                "tempo": 120.0
            },
            {
                "start_time": 94.81136363636364,
                "end_time": 95.01590909090909,
                "pitch": 60,
                "velocity": 80,
                "duration": 0.20454545454545325,
                "tempo": 120.0
            },
            {
                "start_time": 95.01590909090909,
                "end_time": 95.21818181818182,
                "pitch": 62,
                "velocity": 80,
                "duration": 0.20227272727272805,
                "tempo": 120.0
            },
            {
                "start_time": 95.01590909090909,
                "end_time": 95.21818181818182,
                "pitch": 62,
                "velocity": 80,
                "duration": 0.20227272727272805,
                "tempo": 120.0
            },
            {
                "start_time": 94.0090909090909,
                "end_time": 95.425,
                "pitch": 44,
                "velocity": 80,
                "duration": 1.4159090909090963,
                "tempo": 120.0
            },
            {
                "start_time": 95.21818181818182,
                "end_time": 95.425,
                "pitch": 60,
                "velocity": 80,
                "duration": 0.20681818181817846,
                "tempo": 120.0
            },
            {
                "start_time": 95.21818181818182,
                "end_time": 95.425,
                "pitch": 60,
                "velocity": 80,
                "duration": 0.20681818181817846,
                "tempo": 120.0
            },
            {
                "start_time": 95.425,
                "end_time": 95.625,
                "pitch": 59,
                "velocity": 80,
                "duration": 0.20000000000000284,
                "tempo": 120.0
            },
            {
                "start_time": 95.625,
                "end_time": 96.8340909090909,
                "pitch": 57,
                "velocity": 80,
                "duration": 1.2090909090909037,
                "tempo": 120.0
            },
            {
                "start_time": 94.81136363636364,
                "end_time": 96.8340909090909,
                "pitch": 64,
                "velocity": 80,
                "duration": 2.0227272727272663,
                "tempo": 120.0
            },
            {
                "start_time": 95.425,
                "end_time": 97.0340909090909,
                "pitch": 44,
                "velocity": 80,
                "duration": 1.6090909090909093,
                "tempo": 120.0
            },
            {
                "start_time": 96.8340909090909,
                "end_time": 97.0340909090909,
                "pitch": 60,
                "velocity": 80,
                "duration": 0.20000000000000284,
                "tempo": 120.0
            },
            {
                "start_time": 97.0340909090909,
                "end_time": 97.23409090909091,
                "pitch": 59,
                "velocity": 80,
                "duration": 0.20000000000000284,
                "tempo": 120.0
            },
            {
                "start_time": 97.23409090909091,
                "end_time": 97.84090909090908,
                "pitch": 57,
                "velocity": 80,
                "duration": 0.6068181818181699,
                "tempo": 120.0
            },
            {
                "start_time": 97.84090909090908,
                "end_time": 98.04090909090908,
                "pitch": 57,
                "velocity": 80,
                "duration": 0.20000000000000284,
                "tempo": 120.0
            },
            {
                "start_time": 98.04090909090908,
                "end_time": 98.24318181818181,
                "pitch": 59,
                "velocity": 80,
                "duration": 0.20227272727272805,
                "tempo": 120.0
            },
            {
                "start_time": 96.8340909090909,
                "end_time": 98.24318181818181,
                "pitch": 64,
                "velocity": 80,
                "duration": 1.4090909090909065,
                "tempo": 120.0
            },
            {
                "start_time": 97.0340909090909,
                "end_time": 98.44090909090909,
                "pitch": 44,
                "velocity": 80,
                "duration": 1.4068181818181813,
                "tempo": 120.0
            },
            {
                "start_time": 98.24318181818181,
                "end_time": 98.44090909090909,
                "pitch": 60,
                "velocity": 80,
                "duration": 0.19772727272727764,
                "tempo": 120.0
            },
            {
                "start_time": 98.44090909090909,
                "end_time": 98.64318181818182,
                "pitch": 59,
                "velocity": 80,
                "duration": 0.20227272727272805,
                "tempo": 120.0
            },
            {
                "start_time": 98.64318181818182,
                "end_time": 98.84318181818182,
                "pitch": 57,
                "velocity": 80,
                "duration": 0.20000000000000284,
                "tempo": 120.0
            },
            {
                "start_time": 98.84318181818182,
                "end_time": 99.44772727272726,
                "pitch": 55,
                "velocity": 80,
                "duration": 0.6045454545454447,
                "tempo": 120.0
            },
            {
                "start_time": 99.44772727272726,
                "end_time": 99.64772727272727,
                "pitch": 55,
                "velocity": 80,
                "duration": 0.20000000000000284,
                "tempo": 120.0
            },
            {
                "start_time": 99.64772727272727,
                "end_time": 99.85227272727272,
                "pitch": 57,
                "velocity": 80,
                "duration": 0.20454545454545325,
                "tempo": 120.0
            },
            {
                "start_time": 99.85227272727272,
                "end_time": 100.05,
                "pitch": 59,
                "velocity": 80,
                "duration": 0.19772727272727764,
                "tempo": 120.0
            },
            {
                "start_time": 93.60454545454544,
                "end_time": 100.05,
                "pitch": 65,
                "velocity": 80,
                "duration": 6.445454545454552,
                "tempo": 120.0
            },
            {
                "start_time": 100.05,
                "end_time": 100.25227272727273,
                "pitch": 62,
                "velocity": 80,
                "duration": 0.20227272727272805,
                "tempo": 120.0
            },
            {
                "start_time": 98.44090909090909,
                "end_time": 100.45227272727273,
                "pitch": 44,
                "velocity": 80,
                "duration": 2.0113636363636402,
                "tempo": 120.0
            },
            {
                "start_time": 100.25227272727273,
                "end_time": 100.45227272727273,
                "pitch": 60,
                "velocity": 80,
                "duration": 0.20000000000000284,
                "tempo": 120.0
            },
            {
                "start_time": 100.25227272727273,
                "end_time": 100.45227272727273,
                "pitch": 60,
                "velocity": 80,
                "duration": 0.20000000000000284,
                "tempo": 120.0
            },
            {
                "start_time": 100.45227272727273,
                "end_time": 101.05681818181817,
                "pitch": 59,
                "velocity": 80,
                "duration": 0.6045454545454447,
                "tempo": 120.0
            },
            {
                "start_time": 101.05681818181817,
                "end_time": 101.25681818181818,
                "pitch": 59,
                "velocity": 80,
                "duration": 0.20000000000000284,
                "tempo": 120.0
            },
            {
                "start_time": 98.24318181818181,
                "end_time": 101.25681818181818,
                "pitch": 64,
                "velocity": 80,
                "duration": 3.0136363636363654,
                "tempo": 120.0
            },
            {
                "start_time": 101.25681818181818,
                "end_time": 101.4590909090909,
                "pitch": 60,
                "velocity": 80,
                "duration": 0.20227272727272805,
                "tempo": 120.0
            },
            {
                "start_time": 101.4590909090909,
                "end_time": 101.6590909090909,
                "pitch": 62,
                "velocity": 80,
                "duration": 0.20000000000000284,
                "tempo": 120.0
            },
            {
                "start_time": 101.4590909090909,
                "end_time": 101.6590909090909,
                "pitch": 62,
                "velocity": 80,
                "duration": 0.20000000000000284,
                "tempo": 120.0
            },
            {
                "start_time": 100.45227272727273,
                "end_time": 101.86136363636363,
                "pitch": 44,
                "velocity": 80,
                "duration": 1.4090909090909065,
                "tempo": 120.0
            },
            {
                "start_time": 101.6590909090909,
                "end_time": 101.86136363636363,
                "pitch": 60,
                "velocity": 80,
                "duration": 0.20227272727272805,
                "tempo": 120.0
            },
            {
                "start_time": 101.6590909090909,
                "end_time": 101.86136363636363,
                "pitch": 60,
                "velocity": 80,
                "duration": 0.20227272727272805,
                "tempo": 120.0
            },
            {
                "start_time": 101.86136363636363,
                "end_time": 102.06136363636364,
                "pitch": 59,
                "velocity": 80,
                "duration": 0.20000000000000284,
                "tempo": 120.0
            },
            {
                "start_time": 64.61818181818181,
                "end_time": 116.1590909090909,
                "pitch": 19,
                "velocity": 80,
                "duration": 51.540909090909096,
                "tempo": 120.0
            },
            {
                "start_time": 102.06136363636364,
                "end_time": 116.1590909090909,
                "pitch": 57,
                "velocity": 80,
                "duration": 14.097727272727269,
                "tempo": 120.0
            },
            {
                "start_time": 116.1590909090909,
                "end_time": 116.36590909090908,
                "pitch": 57,
                "velocity": 80,
                "duration": 0.20681818181817846,
                "tempo": 120.0
            },
            {
                "start_time": 116.36590909090908,
                "end_time": 116.56590909090909,
                "pitch": 59,
                "velocity": 80,
                "duration": 0.20000000000000284,
                "tempo": 120.0
            },
            {
                "start_time": 101.25681818181818,
                "end_time": 116.56590909090909,
                "pitch": 64,
                "velocity": 80,
                "duration": 15.309090909090912,
                "tempo": 120.0
            },
            {
                "start_time": 116.56590909090909,
                "end_time": 117.76818181818182,
                "pitch": 60,
                "velocity": 80,
                "duration": 1.202272727272728,
                "tempo": 120.0
            },
            {
                "start_time": 117.76818181818182,
                "end_time": 117.97272727272727,
                "pitch": 55,
                "velocity": 80,
                "duration": 0.20454545454545325,
                "tempo": 120.0
            },
            {
                "start_time": 117.97272727272727,
                "end_time": 118.17727272727272,
                "pitch": 57,
                "velocity": 80,
                "duration": 0.20454545454545325,
                "tempo": 120.0
            },
            {
                "start_time": 118.17727272727272,
                "end_time": 119.375,
                "pitch": 59,
                "velocity": 80,
                "duration": 1.1977272727272776,
                "tempo": 120.0
            },
            {
                "start_time": 119.375,
                "end_time": 119.57954545454545,
                "pitch": 59,
                "velocity": 80,
                "duration": 0.20454545454545325,
                "tempo": 120.0
            },
            {
                "start_time": 116.56590909090909,
                "end_time": 119.58181818181818,
                "pitch": 64,
                "velocity": 80,
                "duration": 3.0159090909090907,
                "tempo": 120.0
            },
            {
                "start_time": 119.57954545454545,
                "end_time": 119.58181818181818,
                "pitch": 64,
                "velocity": 80,
                "duration": 0.0022727272727252057,
                "tempo": 120.0
            },
            {
                "start_time": 119.58181818181818,
                "end_time": 119.7840909090909,
                "pitch": 60,
                "velocity": 80,
                "duration": 0.20227272727272805,
                "tempo": 120.0
            },
            {
                "start_time": 119.7840909090909,
                "end_time": 120.99090909090908,
                "pitch": 62,
                "velocity": 80,
                "duration": 1.2068181818181785,
                "tempo": 120.0
            },
            {
                "start_time": 119.7840909090909,
                "end_time": 120.99090909090908,
                "pitch": 62,
                "velocity": 80,
                "duration": 1.2068181818181785,
                "tempo": 120.0
            },
            {
                "start_time": 101.86136363636363,
                "end_time": 121.19090909090909,
                "pitch": 44,
                "velocity": 80,
                "duration": 19.329545454545453,
                "tempo": 120.0
            },
            {
                "start_time": 120.99090909090908,
                "end_time": 121.19090909090909,
                "pitch": 60,
                "velocity": 80,
                "duration": 0.20000000000000284,
                "tempo": 120.0
            },
            {
                "start_time": 120.99090909090908,
                "end_time": 121.19090909090909,
                "pitch": 60,
                "velocity": 80,
                "duration": 0.20000000000000284,
                "tempo": 120.0
            },
            {
                "start_time": 121.19090909090909,
                "end_time": 121.39318181818182,
                "pitch": 59,
                "velocity": 80,
                "duration": 0.20227272727272805,
                "tempo": 120.0
            },
            {
                "start_time": 121.39318181818182,
                "end_time": 122.6,
                "pitch": 57,
                "velocity": 80,
                "duration": 1.2068181818181785,
                "tempo": 120.0
            },
            {
                "start_time": 122.6,
                "end_time": 122.8,
                "pitch": 57,
                "velocity": 80,
                "duration": 0.20000000000000284,
                "tempo": 120.0
            },
            {
                "start_time": 122.8,
                "end_time": 123.00227272727273,
                "pitch": 59,
                "velocity": 80,
                "duration": 0.20227272727272805,
                "tempo": 120.0
            },
            {
                "start_time": 123.00227272727273,
                "end_time": 124.21136363636363,
                "pitch": 60,
                "velocity": 80,
                "duration": 1.2090909090909037,
                "tempo": 120.0
            },
            {
                "start_time": 124.21136363636363,
                "end_time": 124.41590909090908,
                "pitch": 55,
                "velocity": 80,
                "duration": 0.20454545454545325,
                "tempo": 120.0
            },
            {
                "start_time": 124.41590909090908,
                "end_time": 124.61818181818181,
                "pitch": 57,
                "velocity": 80,
                "duration": 0.20227272727272805,
                "tempo": 120.0
            },
            {
                "start_time": 124.61818181818181,
                "end_time": 125.81818181818181,
                "pitch": 59,
                "velocity": 80,
                "duration": 1.2000000000000028,
                "tempo": 120.0
            },
            {
                "start_time": 125.81818181818181,
                "end_time": 126.02499999999999,
                "pitch": 59,
                "velocity": 80,
                "duration": 0.20681818181817846,
                "tempo": 120.0
            },
            {
                "start_time": 123.00227272727273,
                "end_time": 126.02499999999999,
                "pitch": 64,
                "velocity": 80,
                "duration": 3.0227272727272663,
                "tempo": 120.0
            },
            {
                "start_time": 126.02499999999999,
                "end_time": 126.225,
                "pitch": 60,
                "velocity": 80,
                "duration": 0.20000000000000284,
                "tempo": 120.0
            },
            {
                "start_time": 126.225,
                "end_time": 127.42727272727272,
                "pitch": 62,
                "velocity": 80,
                "duration": 1.202272727272728,
                "tempo": 120.0
            },
            {
                "start_time": 126.225,
                "end_time": 127.42727272727272,
                "pitch": 62,
                "velocity": 80,
                "duration": 1.202272727272728,
                "tempo": 120.0
            },
            {
                "start_time": 126.02499999999999,
                "end_time": 127.63181818181818,
                "pitch": 64,
                "velocity": 80,
                "duration": 1.6068181818181841,
                "tempo": 120.0
            },
            {
                "start_time": 127.42727272727272,
                "end_time": 127.63181818181818,
                "pitch": 64,
                "velocity": 80,
                "duration": 0.20454545454545325,
                "tempo": 120.0
            },
            {
                "start_time": 127.63181818181818,
                "end_time": 127.83636363636363,
                "pitch": 62,
                "velocity": 80,
                "duration": 0.20454545454545325,
                "tempo": 120.0
            },
            {
                "start_time": 127.83636363636363,
                "end_time": 141.9318181818182,
                "pitch": 60,
                "velocity": 80,
                "duration": 14.095454545454558,
                "tempo": 120.0
            },
            {
                "start_time": 127.83636363636363,
                "end_time": 141.9318181818182,
                "pitch": 60,
                "velocity": 80,
                "duration": 14.095454545454558,
                "tempo": 120.0
            },
            {
                "start_time": 121.19090909090909,
                "end_time": 142.13636363636363,
                "pitch": 44,
                "velocity": 80,
                "duration": 20.945454545454538,
                "tempo": 120.0
            },
            {
                "start_time": 141.9318181818182,
                "end_time": 142.13636363636363,
                "pitch": 60,
                "velocity": 80,
                "duration": 0.20454545454543904,
                "tempo": 120.0
            },
            {
                "start_time": 142.13863636363635,
                "end_time": 142.3409090909091,
                "pitch": 59,
                "velocity": 80,
                "duration": 0.20227272727274226,
                "tempo": 120.0
            },
            {
                "start_time": 142.3409090909091,
                "end_time": 142.9431818181818,
                "pitch": 57,
                "velocity": 80,
                "duration": 0.6022727272727195,
                "tempo": 120.0
            },
            {
                "start_time": 142.9431818181818,
                "end_time": 143.14545454545453,
                "pitch": 57,
                "velocity": 80,
                "duration": 0.20227272727271384,
                "tempo": 120.0
            },
            {
                "start_time": 143.14545454545453,
                "end_time": 143.34772727272727,
                "pitch": 59,
                "velocity": 80,
                "duration": 0.20227272727274226,
                "tempo": 120.0
            },
            {
                "start_time": 142.13636363636363,
                "end_time": 143.54772727272726,
                "pitch": 44,
                "velocity": 80,
                "duration": 1.4113636363636317,
                "tempo": 120.0
            },
            {
                "start_time": 143.34772727272727,
                "end_time": 143.54772727272726,
                "pitch": 60,
                "velocity": 80,
                "duration": 0.19999999999998863,
                "tempo": 120.0
            },
            {
                "start_time": 143.54772727272726,
                "end_time": 143.75,
                "pitch": 59,
                "velocity": 80,
                "duration": 0.20227272727274226,
                "tempo": 120.0
            },
            {
                "start_time": 143.75,
                "end_time": 143.9522727272727,
                "pitch": 57,
                "velocity": 80,
                "duration": 0.20227272727271384,
                "tempo": 120.0
            },
            {
                "start_time": 143.9522727272727,
                "end_time": 144.5568181818182,
                "pitch": 55,
                "velocity": 80,
                "duration": 0.6045454545454731,
                "tempo": 120.0
            },
            {
                "start_time": 144.5568181818182,
                "end_time": 144.75681818181818,
                "pitch": 55,
                "velocity": 80,
                "duration": 0.19999999999998863,
                "tempo": 120.0
            },
            {
                "start_time": 144.75681818181818,
                "end_time": 144.9590909090909,
                "pitch": 57,
                "velocity": 80,
                "duration": 0.20227272727271384,
                "tempo": 120.0
            },
            {
                "start_time": 144.9590909090909,
                "end_time": 145.1590909090909,
                "pitch": 59,
                "velocity": 80,
                "duration": 0.20000000000001705,
                "tempo": 120.0
            },
            {
                "start_time": 100.05,
                "end_time": 145.1590909090909,
                "pitch": 65,
                "velocity": 80,
                "duration": 45.10909090909091,
                "tempo": 120.0
            },
            {
                "start_time": 145.1590909090909,
                "end_time": 145.3590909090909,
                "pitch": 62,
                "velocity": 80,
                "duration": 0.19999999999998863,
                "tempo": 120.0
            },
            {
                "start_time": 143.54772727272726,
                "end_time": 145.56136363636364,
                "pitch": 44,
                "velocity": 80,
                "duration": 2.0136363636363797,
                "tempo": 120.0
            },
            {
                "start_time": 145.3590909090909,
                "end_time": 145.56136363636364,
                "pitch": 60,
                "velocity": 80,
                "duration": 0.20227272727274226,
                "tempo": 120.0
            },
            {
                "start_time": 145.3590909090909,
                "end_time": 145.56136363636364,
                "pitch": 60,
                "velocity": 80,
                "duration": 0.20227272727274226,
                "tempo": 120.0
            },
            {
                "start_time": 145.56136363636364,
                "end_time": 146.16590909090908,
                "pitch": 59,
                "velocity": 80,
                "duration": 0.6045454545454447,
                "tempo": 120.0
            },
            {
                "start_time": 146.16590909090908,
                "end_time": 146.36818181818182,
                "pitch": 59,
                "velocity": 80,
                "duration": 0.20227272727274226,
                "tempo": 120.0
            },
            {
                "start_time": 143.34772727272727,
                "end_time": 146.36818181818182,
                "pitch": 64,
                "velocity": 80,
                "duration": 3.0204545454545553,
                "tempo": 120.0
            },
            {
                "start_time": 146.36818181818182,
                "end_time": 146.57045454545454,
                "pitch": 60,
                "velocity": 80,
                "duration": 0.20227272727271384,
                "tempo": 120.0
            },
            {
                "start_time": 146.57045454545454,
                "end_time": 146.77045454545453,
                "pitch": 62,
                "velocity": 80,
                "duration": 0.19999999999998863,
                "tempo": 120.0
            },
            {
                "start_time": 146.57045454545454,
                "end_time": 146.77045454545453,
                "pitch": 62,
                "velocity": 80,
                "duration": 0.19999999999998863,
                "tempo": 120.0
            },
            {
                "start_time": 145.56136363636364,
                "end_time": 146.97045454545454,
                "pitch": 44,
                "velocity": 80,
                "duration": 1.4090909090909065,
                "tempo": 120.0
            },
            {
                "start_time": 146.77045454545453,
                "end_time": 146.97045454545454,
                "pitch": 60,
                "velocity": 80,
                "duration": 0.20000000000001705,
                "tempo": 120.0
            },
            {
                "start_time": 146.77045454545453,
                "end_time": 146.97045454545454,
                "pitch": 60,
                "velocity": 80,
                "duration": 0.20000000000001705,
                "tempo": 120.0
            },
            {
                "start_time": 146.97045454545454,
                "end_time": 147.17272727272726,
                "pitch": 59,
                "velocity": 80,
                "duration": 0.20227272727271384,
                "tempo": 120.0
            },
            {
                "start_time": 147.17272727272726,
                "end_time": 148.3840909090909,
                "pitch": 57,
                "velocity": 80,
                "duration": 1.211363636363643,
                "tempo": 120.0
            },
            {
                "start_time": 146.36818181818182,
                "end_time": 148.3840909090909,
                "pitch": 64,
                "velocity": 80,
                "duration": 2.0159090909090764,
                "tempo": 120.0
            },
            {
                "start_time": 146.97045454545454,
                "end_time": 148.58863636363637,
                "pitch": 44,
                "velocity": 80,
                "duration": 1.6181818181818244,
                "tempo": 120.0
            },
            {
                "start_time": 148.3840909090909,
                "end_time": 148.58863636363637,
                "pitch": 60,
                "velocity": 80,
                "duration": 0.20454545454546746,
                "tempo": 120.0
            },
            {
                "start_time": 148.58863636363637,
                "end_time": 148.79090909090908,
                "pitch": 59,
                "velocity": 80,
                "duration": 0.20227272727271384,
                "tempo": 120.0
            },
            {
                "start_time": 148.79090909090908,
                "end_time": 149.38636363636363,
                "pitch": 57,
                "velocity": 80,
                "duration": 0.5954545454545439,
                "tempo": 120.0
            },
            {
                "start_time": 149.38636363636363,
                "end_time": 149.58863636363637,
                "pitch": 57,
                "velocity": 80,
                "duration": 0.20227272727274226,
                "tempo": 120.0
            },
            {
                "start_time": 149.58863636363637,
                "end_time": 149.79090909090908,
                "pitch": 59,
                "velocity": 80,
                "duration": 0.20227272727271384,
                "tempo": 120.0
            },
            {
                "start_time": 148.3840909090909,
                "end_time": 149.79090909090908,
                "pitch": 64,
                "velocity": 80,
                "duration": 1.4068181818181813,
                "tempo": 120.0
            },
            {
                "start_time": 148.58863636363637,
                "end_time": 149.99318181818182,
                "pitch": 44,
                "velocity": 80,
                "duration": 1.404545454545456,
                "tempo": 120.0
            },
            {
                "start_time": 149.79090909090908,
                "end_time": 149.99318181818182,
                "pitch": 60,
                "velocity": 80,
                "duration": 0.20227272727274226,
                "tempo": 120.0
            },
            {
                "start_time": 149.99318181818182,
                "end_time": 150.2,
                "pitch": 59,
                "velocity": 80,
                "duration": 0.20681818181816425,
                "tempo": 120.0
            },
            {
                "start_time": 150.2,
                "end_time": 150.40227272727273,
                "pitch": 57,
                "velocity": 80,
                "duration": 0.20227272727274226,
                "tempo": 120.0
            },
            {
                "start_time": 150.40227272727273,
                "end_time": 151.00681818181818,
                "pitch": 55,
                "velocity": 80,
                "duration": 0.6045454545454447,
                "tempo": 120.0
            },
            {
                "start_time": 151.0090909090909,
                "end_time": 151.2090909090909,
                "pitch": 55,
                "velocity": 80,
                "duration": 0.19999999999998863,
                "tempo": 120.0
            },
            {
                "start_time": 151.2090909090909,
                "end_time": 151.41136363636363,
                "pitch": 57,
                "velocity": 80,
                "duration": 0.20227272727274226,
                "tempo": 120.0
            },
            {
                "start_time": 151.41136363636363,
                "end_time": 151.6090909090909,
                "pitch": 59,
                "velocity": 80,
                "duration": 0.19772727272726343,
                "tempo": 120.0
            },
            {
                "start_time": 145.1590909090909,
                "end_time": 151.6090909090909,
                "pitch": 65,
                "velocity": 80,
                "duration": 6.449999999999989,
                "tempo": 120.0
            },
            {
                "start_time": 151.6090909090909,
                "end_time": 151.81136363636364,
                "pitch": 62,
                "velocity": 80,
                "duration": 0.20227272727274226,
                "tempo": 120.0
            },
            {
                "start_time": 149.99318181818182,
                "end_time": 152.01363636363635,
                "pitch": 44,
                "velocity": 80,
                "duration": 2.020454545454527,
                "tempo": 120.0
            },
            {
                "start_time": 151.81136363636364,
                "end_time": 152.01363636363635,
                "pitch": 60,
                "velocity": 80,
                "duration": 0.20227272727271384,
                "tempo": 120.0
            },
            {
                "start_time": 151.81136363636364,
                "end_time": 152.01363636363635,
                "pitch": 60,
                "velocity": 80,
                "duration": 0.20227272727271384,
                "tempo": 120.0
            },
            {
                "start_time": 152.01363636363635,
                "end_time": 152.61818181818182,
                "pitch": 59,
                "velocity": 80,
                "duration": 0.6045454545454731,
                "tempo": 120.0
            },
            {
                "start_time": 152.61818181818182,
                "end_time": 152.82045454545454,
                "pitch": 59,
                "velocity": 80,
                "duration": 0.20227272727271384,
                "tempo": 120.0
            },
            {
                "start_time": 149.79090909090908,
                "end_time": 152.82045454545454,
                "pitch": 64,
                "velocity": 80,
                "duration": 3.029545454545456,
                "tempo": 120.0
            },
            {
                "start_time": 152.82045454545454,
                "end_time": 153.02272727272725,
                "pitch": 60,
                "velocity": 80,
                "duration": 0.20227272727271384,
                "tempo": 120.0
            },
            {
                "start_time": 153.02272727272725,
                "end_time": 153.22272727272727,
                "pitch": 62,
                "velocity": 80,
                "duration": 0.20000000000001705,
                "tempo": 120.0
            },
            {
                "start_time": 153.02272727272725,
                "end_time": 153.22272727272727,
                "pitch": 62,
                "velocity": 80,
                "duration": 0.20000000000001705,
                "tempo": 120.0
            },
            {
                "start_time": 152.01363636363635,
                "end_time": 153.42272727272726,
                "pitch": 44,
                "velocity": 80,
                "duration": 1.4090909090909065,
                "tempo": 120.0
            },
            {
                "start_time": 153.22272727272727,
                "end_time": 153.42272727272726,
                "pitch": 60,
                "velocity": 80,
                "duration": 0.19999999999998863,
                "tempo": 120.0
            },
            {
                "start_time": 153.22272727272727,
                "end_time": 153.42272727272726,
                "pitch": 60,
                "velocity": 80,
                "duration": 0.19999999999998863,
                "tempo": 120.0
            },
            {
                "start_time": 153.42272727272726,
                "end_time": 153.62272727272727,
                "pitch": 59,
                "velocity": 80,
                "duration": 0.20000000000001705,
                "tempo": 120.0
            },
            {
                "start_time": 153.62272727272727,
                "end_time": 167.725,
                "pitch": 57,
                "velocity": 80,
                "duration": 14.10227272727272,
                "tempo": 120.0
            },
            {
                "start_time": 116.1590909090909,
                "end_time": 167.72727272727272,
                "pitch": 19,
                "velocity": 80,
                "duration": 51.56818181818181,
                "tempo": 120.0
            },
            {
                "start_time": 167.725,
                "end_time": 167.72727272727272,
                "pitch": 19,
                "velocity": 80,
                "duration": 0.0022727272727252057,
                "tempo": 120.0
            },
            {
                "start_time": 167.72727272727272,
                "end_time": 167.9272727272727,
                "pitch": 57,
                "velocity": 80,
                "duration": 0.19999999999998863,
                "tempo": 120.0
            },
            {
                "start_time": 167.9272727272727,
                "end_time": 168.12954545454545,
                "pitch": 59,
                "velocity": 80,
                "duration": 0.20227272727274226,
                "tempo": 120.0
            },
            {
                "start_time": 152.82045454545454,
                "end_time": 168.12954545454545,
                "pitch": 64,
                "velocity": 80,
                "duration": 15.309090909090912,
                "tempo": 120.0
            },
            {
                "start_time": 168.12954545454545,
                "end_time": 169.33636363636361,
                "pitch": 60,
                "velocity": 80,
                "duration": 1.2068181818181642,
                "tempo": 120.0
            },
            {
                "start_time": 169.33636363636361,
                "end_time": 169.53863636363636,
                "pitch": 55,
                "velocity": 80,
                "duration": 0.20227272727274226,
                "tempo": 120.0
            },
            {
                "start_time": 169.53863636363636,
                "end_time": 169.73863636363635,
                "pitch": 57,
                "velocity": 80,
                "duration": 0.19999999999998863,
                "tempo": 120.0
            },
            {
                "start_time": 169.73863636363635,
                "end_time": 170.94772727272726,
                "pitch": 59,
                "velocity": 80,
                "duration": 1.2090909090909179,
                "tempo": 120.0
            },
            {
                "start_time": 170.94772727272726,
                "end_time": 171.14772727272725,
                "pitch": 59,
                "velocity": 80,
                "duration": 0.19999999999998863,
                "tempo": 120.0
            },
            {
                "start_time": 168.12954545454545,
                "end_time": 171.15,
                "pitch": 64,
                "velocity": 80,
                "duration": 3.0204545454545553,
                "tempo": 120.0
            },
            {
                "start_time": 171.14772727272725,
                "end_time": 171.15,
                "pitch": 64,
                "velocity": 80,
                "duration": 0.0022727272727536274,
                "tempo": 120.0
            },
            {
                "start_time": 171.15,
                "end_time": 171.35,
                "pitch": 60,
                "velocity": 80,
                "duration": 0.19999999999998863,
                "tempo": 120.0
            },
            {
                "start_time": 171.35,
                "end_time": 172.5590909090909,
                "pitch": 62,
                "velocity": 80,
                "duration": 1.2090909090909179,
                "tempo": 120.0
            },
            {
                "start_time": 171.35,
                "end_time": 172.5590909090909,
                "pitch": 62,
                "velocity": 80,
                "duration": 1.2090909090909179,
                "tempo": 120.0
            },
            {
                "start_time": 153.42272727272726,
                "end_time": 172.76136363636363,
                "pitch": 44,
                "velocity": 80,
                "duration": 19.33863636363637,
                "tempo": 120.0
            },
            {
                "start_time": 172.5590909090909,
                "end_time": 172.76136363636363,
                "pitch": 60,
                "velocity": 80,
                "duration": 0.20227272727271384,
                "tempo": 120.0
            },
            {
                "start_time": 172.5590909090909,
                "end_time": 172.76136363636363,
                "pitch": 60,
                "velocity": 80,
                "duration": 0.20227272727271384,
                "tempo": 120.0
            },
            {
                "start_time": 172.76136363636363,
                "end_time": 172.96136363636361,
                "pitch": 59,
                "velocity": 80,
                "duration": 0.19999999999998863,
                "tempo": 120.0
            },
            {
                "start_time": 172.96136363636361,
                "end_time": 174.17045454545453,
                "pitch": 57,
                "velocity": 80,
                "duration": 1.2090909090909179,
                "tempo": 120.0
            },
            {
                "start_time": 174.17045454545453,
                "end_time": 174.37727272727273,
                "pitch": 57,
                "velocity": 80,
                "duration": 0.20681818181819267,
                "tempo": 120.0
            },
            {
                "start_time": 174.37727272727273,
                "end_time": 174.57954545454544,
                "pitch": 59,
                "velocity": 80,
                "duration": 0.20227272727271384,
                "tempo": 120.0
            },
            {
                "start_time": 174.57954545454544,
                "end_time": 175.78636363636363,
                "pitch": 60,
                "velocity": 80,
                "duration": 1.2068181818181927,
                "tempo": 120.0
            },
            {
                "start_time": 175.78636363636363,
                "end_time": 175.98863636363635,
                "pitch": 55,
                "velocity": 80,
                "duration": 0.20227272727271384,
                "tempo": 120.0
            },
            {
                "start_time": 175.98863636363635,
                "end_time": 176.1909090909091,
                "pitch": 57,
                "velocity": 80,
                "duration": 0.20227272727274226,
                "tempo": 120.0
            },
            {
                "start_time": 176.1909090909091,
                "end_time": 177.39999999999998,
                "pitch": 59,
                "velocity": 80,
                "duration": 1.2090909090908895,
                "tempo": 120.0
            },
            {
                "start_time": 177.39999999999998,
                "end_time": 177.6,
                "pitch": 59,
                "velocity": 80,
                "duration": 0.20000000000001705,
                "tempo": 120.0
            },
            {
                "start_time": 174.57954545454544,
                "end_time": 177.6,
                "pitch": 64,
                "velocity": 80,
                "duration": 3.0204545454545553,
                "tempo": 120.0
            },
            {
                "start_time": 177.6,
                "end_time": 177.79999999999998,
                "pitch": 60,
                "velocity": 80,
                "duration": 0.19999999999998863,
                "tempo": 120.0
            },
            {
                "start_time": 177.79999999999998,
                "end_time": 179.0090909090909,
                "pitch": 62,
                "velocity": 80,
                "duration": 1.2090909090909179,
                "tempo": 120.0
            },
            {
                "start_time": 177.79999999999998,
                "end_time": 179.0090909090909,
                "pitch": 62,
                "velocity": 80,
                "duration": 1.2090909090909179,
                "tempo": 120.0
            },
            {
                "start_time": 177.6,
                "end_time": 179.21363636363637,
                "pitch": 64,
                "velocity": 80,
                "duration": 1.613636363636374,
                "tempo": 120.0
            },
            {
                "start_time": 179.0090909090909,
                "end_time": 179.21363636363637,
                "pitch": 64,
                "velocity": 80,
                "duration": 0.20454545454546746,
                "tempo": 120.0
            },
            {
                "start_time": 179.21363636363637,
                "end_time": 179.41363636363636,
                "pitch": 62,
                "velocity": 80,
                "duration": 0.19999999999998863,
                "tempo": 120.0
            }
        ],
        "Vibraphone": [
            {
                "start_time": 25.93181818181818,
                "end_time": 26.138636363636362,
                "pitch": 57,
                "velocity": 127,
                "duration": 0.206818181818182,
                "tempo": 120.0
            },
            {
                "start_time": 26.138636363636362,
                "end_time": 26.343181818181815,
                "pitch": 60,
                "velocity": 127,
                "duration": 0.20454545454545325,
                "tempo": 120.0
            },
            {
                "start_time": 26.138636363636362,
                "end_time": 26.343181818181815,
                "pitch": 64,
                "velocity": 127,
                "duration": 0.20454545454545325,
                "tempo": 120.0
            },
            {
                "start_time": 26.343181818181815,
                "end_time": 26.94772727272727,
                "pitch": 64,
                "velocity": 127,
                "duration": 0.6045454545454554,
                "tempo": 120.0
            },
            {
                "start_time": 26.343181818181815,
                "end_time": 26.94772727272727,
                "pitch": 64,
                "velocity": 127,
                "duration": 0.6045454545454554,
                "tempo": 120.0
            },
            {
                "start_time": 26.94772727272727,
                "end_time": 27.14772727272727,
                "pitch": 64,
                "velocity": 127,
                "duration": 0.1999999999999993,
                "tempo": 120.0
            },
            {
                "start_time": 27.14772727272727,
                "end_time": 27.347727272727273,
                "pitch": 62,
                "velocity": 127,
                "duration": 0.20000000000000284,
                "tempo": 120.0
            },
            {
                "start_time": 27.14772727272727,
                "end_time": 27.347727272727273,
                "pitch": 62,
                "velocity": 127,
                "duration": 0.20000000000000284,
                "tempo": 120.0
            },
            {
                "start_time": 27.347727272727273,
                "end_time": 27.349999999999998,
                "pitch": 60,
                "velocity": 127,
                "duration": 0.0022727272727252057,
                "tempo": 120.0
            },
            {
                "start_time": 27.349999999999998,
                "end_time": 27.549999999999997,
                "pitch": 60,
                "velocity": 127,
                "duration": 0.1999999999999993,
                "tempo": 120.0
            },
            {
                "start_time": 27.549999999999997,
                "end_time": 27.75,
                "pitch": 55,
                "velocity": 127,
                "duration": 0.20000000000000284,
                "tempo": 120.0
            },
            {
                "start_time": 27.75,
                "end_time": 27.952272727272724,
                "pitch": 59,
                "velocity": 127,
                "duration": 0.2022727272727245,
                "tempo": 120.0
            },
            {
                "start_time": 27.75,
                "end_time": 27.952272727272724,
                "pitch": 59,
                "velocity": 127,
                "duration": 0.2022727272727245,
                "tempo": 120.0
            },
            {
                "start_time": 27.952272727272724,
                "end_time": 28.552272727272726,
                "pitch": 62,
                "velocity": 127,
                "duration": 0.6000000000000014,
                "tempo": 120.0
            },
            {
                "start_time": 28.552272727272726,
                "end_time": 28.754545454545454,
                "pitch": 62,
                "velocity": 127,
                "duration": 0.20227272727272805,
                "tempo": 120.0
            },
            {
                "start_time": 28.754545454545454,
                "end_time": 28.954545454545453,
                "pitch": 60,
                "velocity": 127,
                "duration": 0.1999999999999993,
                "tempo": 120.0
            },
            {
                "start_time": 28.754545454545454,
                "end_time": 28.954545454545453,
                "pitch": 60,
                "velocity": 127,
                "duration": 0.1999999999999993,
                "tempo": 120.0
            },
            {
                "start_time": 28.954545454545453,
                "end_time": 29.154545454545453,
                "pitch": 59,
                "velocity": 127,
                "duration": 0.1999999999999993,
                "tempo": 120.0
            },
            {
                "start_time": 29.154545454545453,
                "end_time": 29.35681818181818,
                "pitch": 59,
                "velocity": 127,
                "duration": 0.20227272727272805,
                "tempo": 120.0
            },
            {
                "start_time": 27.952272727272724,
                "end_time": 29.35681818181818,
                "pitch": 65,
                "velocity": 127,
                "duration": 1.404545454545456,
                "tempo": 120.0
            },
            {
                "start_time": 29.35681818181818,
                "end_time": 29.55909090909091,
                "pitch": 62,
                "velocity": 127,
                "duration": 0.20227272727272805,
                "tempo": 120.0
            },
            {
                "start_time": 29.35681818181818,
                "end_time": 29.55909090909091,
                "pitch": 65,
                "velocity": 127,
                "duration": 0.20227272727272805,
                "tempo": 120.0
            },
            {
                "start_time": 29.55909090909091,
                "end_time": 30.159090909090907,
                "pitch": 65,
                "velocity": 127,
                "duration": 0.5999999999999979,
                "tempo": 120.0
            },
            {
                "start_time": 29.55909090909091,
                "end_time": 30.159090909090907,
                "pitch": 65,
                "velocity": 127,
                "duration": 0.5999999999999979,
                "tempo": 120.0
            },
            {
                "start_time": 30.159090909090907,
                "end_time": 30.35909090909091,
                "pitch": 65,
                "velocity": 127,
                "duration": 0.20000000000000284,
                "tempo": 120.0
            },
            {
                "start_time": 30.35909090909091,
                "end_time": 30.561363636363634,
                "pitch": 64,
                "velocity": 127,
                "duration": 0.2022727272727245,
                "tempo": 120.0
            },
            {
                "start_time": 30.561363636363634,
                "end_time": 30.763636363636362,
                "pitch": 62,
                "velocity": 127,
                "duration": 0.20227272727272805,
                "tempo": 120.0
            },
            {
                "start_time": 30.561363636363634,
                "end_time": 30.763636363636362,
                "pitch": 62,
                "velocity": 127,
                "duration": 0.20227272727272805,
                "tempo": 120.0
            },
            {
                "start_time": 28.954545454545453,
                "end_time": 30.968181818181815,
                "pitch": 44,
                "velocity": 127,
                "duration": 2.013636363636362,
                "tempo": 120.0
            },
            {
                "start_time": 30.763636363636362,
                "end_time": 30.968181818181815,
                "pitch": 60,
                "velocity": 127,
                "duration": 0.20454545454545325,
                "tempo": 120.0
            },
            {
                "start_time": 30.763636363636362,
                "end_time": 30.968181818181815,
                "pitch": 60,
                "velocity": 127,
                "duration": 0.20454545454545325,
                "tempo": 120.0
            },
            {
                "start_time": 30.968181818181815,
                "end_time": 31.174999999999997,
                "pitch": 59,
                "velocity": 127,
                "duration": 0.206818181818182,
                "tempo": 120.0
            },
            {
                "start_time": 31.174999999999997,
                "end_time": 32.36818181818182,
                "pitch": 57,
                "velocity": 127,
                "duration": 1.1931818181818201,
                "tempo": 120.0
            },
            {
                "start_time": 31.174999999999997,
                "end_time": 32.36818181818182,
                "pitch": 57,
                "velocity": 127,
                "duration": 1.1931818181818201,
                "tempo": 120.0
            },
            {
                "start_time": 32.36818181818182,
                "end_time": 32.57272727272727,
                "pitch": 57,
                "velocity": 127,
                "duration": 0.20454545454545325,
                "tempo": 120.0
            },
            {
                "start_time": 32.57272727272727,
                "end_time": 32.779545454545456,
                "pitch": 60,
                "velocity": 127,
                "duration": 0.20681818181818556,
                "tempo": 120.0
            },
            {
                "start_time": 32.57272727272727,
                "end_time": 32.779545454545456,
                "pitch": 64,
                "velocity": 127,
                "duration": 0.20681818181818556,
                "tempo": 120.0
            },
            {
                "start_time": 32.779545454545456,
                "end_time": 33.37954545454545,
                "pitch": 64,
                "velocity": 127,
                "duration": 0.5999999999999943,
                "tempo": 120.0
            },
            {
                "start_time": 32.779545454545456,
                "end_time": 33.37954545454545,
                "pitch": 64,
                "velocity": 127,
                "duration": 0.5999999999999943,
                "tempo": 120.0
            },
            {
                "start_time": 33.37954545454545,
                "end_time": 33.57954545454545,
                "pitch": 64,
                "velocity": 127,
                "duration": 0.20000000000000284,
                "tempo": 120.0
            },
            {
                "start_time": 33.57954545454545,
                "end_time": 33.779545454545456,
                "pitch": 62,
                "velocity": 127,
                "duration": 0.20000000000000284,
                "tempo": 120.0
            },
            {
                "start_time": 33.57954545454545,
                "end_time": 33.779545454545456,
                "pitch": 62,
                "velocity": 127,
                "duration": 0.20000000000000284,
                "tempo": 120.0
            },
            {
                "start_time": 33.779545454545456,
                "end_time": 33.98181818181818,
                "pitch": 60,
                "velocity": 127,
                "duration": 0.20227272727272094,
                "tempo": 120.0
            },
            {
                "start_time": 33.779545454545456,
                "end_time": 33.98181818181818,
                "pitch": 60,
                "velocity": 127,
                "duration": 0.20227272727272094,
                "tempo": 120.0
            },
            {
                "start_time": 33.98181818181818,
                "end_time": 34.18181818181818,
                "pitch": 55,
                "velocity": 127,
                "duration": 0.20000000000000284,
                "tempo": 120.0
            },
            {
                "start_time": 34.18181818181818,
                "end_time": 34.38409090909091,
                "pitch": 59,
                "velocity": 127,
                "duration": 0.20227272727272805,
                "tempo": 120.0
            },
            {
                "start_time": 34.18181818181818,
                "end_time": 34.38409090909091,
                "pitch": 59,
                "velocity": 127,
                "duration": 0.20227272727272805,
                "tempo": 120.0
            },
            {
                "start_time": 34.38409090909091,
                "end_time": 34.98409090909091,
                "pitch": 62,
                "velocity": 127,
                "duration": 0.6000000000000014,
                "tempo": 120.0
            },
            {
                "start_time": 34.98409090909091,
                "end_time": 35.184090909090905,
                "pitch": 62,
                "velocity": 127,
                "duration": 0.19999999999999574,
                "tempo": 120.0
            },
            {
                "start_time": 35.184090909090905,
                "end_time": 35.38409090909091,
                "pitch": 60,
                "velocity": 127,
                "duration": 0.20000000000000284,
                "tempo": 120.0
            },
            {
                "start_time": 35.184090909090905,
                "end_time": 35.38409090909091,
                "pitch": 60,
                "velocity": 127,
                "duration": 0.20000000000000284,
                "tempo": 120.0
            },
            {
                "start_time": 30.968181818181815,
                "end_time": 35.38636363636363,
                "pitch": 44,
                "velocity": 127,
                "duration": 4.418181818181818,
                "tempo": 120.0
            },
            {
                "start_time": 35.38409090909091,
                "end_time": 35.38636363636363,
                "pitch": 44,
                "velocity": 127,
                "duration": 0.0022727272727252057,
                "tempo": 120.0
            },
            {
                "start_time": 35.38636363636363,
                "end_time": 35.586363636363636,
                "pitch": 59,
                "velocity": 127,
                "duration": 0.20000000000000284,
                "tempo": 120.0
            },
            {
                "start_time": 35.586363636363636,
                "end_time": 35.78636363636363,
                "pitch": 59,
                "velocity": 127,
                "duration": 0.19999999999999574,
                "tempo": 120.0
            },
            {
                "start_time": 34.38409090909091,
                "end_time": 35.78636363636363,
                "pitch": 65,
                "velocity": 127,
                "duration": 1.4022727272727238,
                "tempo": 120.0
            },
            {
                "start_time": 35.78636363636363,
                "end_time": 35.986363636363635,
                "pitch": 62,
                "velocity": 127,
                "duration": 0.20000000000000284,
                "tempo": 120.0
            },
            {
                "start_time": 35.78636363636363,
                "end_time": 35.986363636363635,
                "pitch": 65,
                "velocity": 127,
                "duration": 0.20000000000000284,
                "tempo": 120.0
            },
            {
                "start_time": 35.986363636363635,
                "end_time": 36.58863636363636,
                "pitch": 65,
                "velocity": 127,
                "duration": 0.6022727272727266,
                "tempo": 120.0
            },
            {
                "start_time": 35.986363636363635,
                "end_time": 36.58863636363636,
                "pitch": 65,
                "velocity": 127,
                "duration": 0.6022727272727266,
                "tempo": 120.0
            },
            {
                "start_time": 36.58863636363636,
                "end_time": 36.788636363636364,
                "pitch": 65,
                "velocity": 127,
                "duration": 0.20000000000000284,
                "tempo": 120.0
            },
            {
                "start_time": 36.79090909090909,
                "end_time": 36.99090909090909,
                "pitch": 64,
                "velocity": 127,
                "duration": 0.20000000000000284,
                "tempo": 120.0
            },
            {
                "start_time": 36.99090909090909,
                "end_time": 37.19090909090909,
                "pitch": 62,
                "velocity": 127,
                "duration": 0.19999999999999574,
                "tempo": 120.0
            },
            {
                "start_time": 36.99090909090909,
                "end_time": 37.19090909090909,
                "pitch": 62,
                "velocity": 127,
                "duration": 0.19999999999999574,
                "tempo": 120.0
            },
            {
                "start_time": 37.19090909090909,
                "end_time": 37.39090909090909,
                "pitch": 64,
                "velocity": 127,
                "duration": 0.20000000000000284,
                "tempo": 120.0
            },
            {
                "start_time": 37.19090909090909,
                "end_time": 37.39090909090909,
                "pitch": 64,
                "velocity": 127,
                "duration": 0.20000000000000284,
                "tempo": 120.0
            },
            {
                "start_time": 37.39090909090909,
                "end_time": 37.590909090909086,
                "pitch": 62,
                "velocity": 127,
                "duration": 0.19999999999999574,
                "tempo": 120.0
            },
            {
                "start_time": 37.39090909090909,
                "end_time": 37.590909090909086,
                "pitch": 62,
                "velocity": 127,
                "duration": 0.19999999999999574,
                "tempo": 120.0
            },
            {
                "start_time": 37.590909090909086,
                "end_time": 77.39772727272727,
                "pitch": 60,
                "velocity": 127,
                "duration": 39.80681818181818,
                "tempo": 120.0
            },
            {
                "start_time": 37.590909090909086,
                "end_time": 77.39772727272727,
                "pitch": 60,
                "velocity": 127,
                "duration": 39.80681818181818,
                "tempo": 120.0
            },
            {
                "start_time": 77.39772727272727,
                "end_time": 77.60227272727272,
                "pitch": 57,
                "velocity": 127,
                "duration": 0.20454545454545325,
                "tempo": 120.0
            },
            {
                "start_time": 77.60227272727272,
                "end_time": 77.60454545454544,
                "pitch": 64,
                "velocity": 127,
                "duration": 0.0022727272727252057,
                "tempo": 120.0
            },
            {
                "start_time": 77.60454545454544,
                "end_time": 77.80909090909091,
                "pitch": 60,
                "velocity": 127,
                "duration": 0.20454545454546746,
                "tempo": 120.0
            },
            {
                "start_time": 77.80909090909091,
                "end_time": 78.40454545454546,
                "pitch": 64,
                "velocity": 127,
                "duration": 0.5954545454545439,
                "tempo": 120.0
            },
            {
                "start_time": 77.80909090909091,
                "end_time": 78.40454545454546,
                "pitch": 64,
                "velocity": 127,
                "duration": 0.5954545454545439,
                "tempo": 120.0
            },
            {
                "start_time": 78.40454545454546,
                "end_time": 78.60454545454544,
                "pitch": 64,
                "velocity": 127,
                "duration": 0.19999999999998863,
                "tempo": 120.0
            },
            {
                "start_time": 78.60454545454544,
                "end_time": 78.80681818181817,
                "pitch": 62,
                "velocity": 127,
                "duration": 0.20227272727272805,
                "tempo": 120.0
            },
            {
                "start_time": 78.60454545454544,
                "end_time": 78.80681818181817,
                "pitch": 62,
                "velocity": 127,
                "duration": 0.20227272727272805,
                "tempo": 120.0
            },
            {
                "start_time": 78.80681818181817,
                "end_time": 79.0090909090909,
                "pitch": 60,
                "velocity": 127,
                "duration": 0.20227272727272805,
                "tempo": 120.0
            },
            {
                "start_time": 78.80681818181817,
                "end_time": 79.0090909090909,
                "pitch": 60,
                "velocity": 127,
                "duration": 0.20227272727272805,
                "tempo": 120.0
            },
            {
                "start_time": 79.0090909090909,
                "end_time": 79.21363636363635,
                "pitch": 55,
                "velocity": 127,
                "duration": 0.20454545454545325,
                "tempo": 120.0
            },
            {
                "start_time": 79.21363636363635,
                "end_time": 79.42045454545455,
                "pitch": 59,
                "velocity": 127,
                "duration": 0.20681818181819267,
                "tempo": 120.0
            },
            {
                "start_time": 79.21363636363635,
                "end_time": 79.42045454545455,
                "pitch": 59,
                "velocity": 127,
                "duration": 0.20681818181819267,
                "tempo": 120.0
            },
            {
                "start_time": 79.42045454545455,
                "end_time": 80.01136363636363,
                "pitch": 62,
                "velocity": 127,
                "duration": 0.5909090909090793,
                "tempo": 120.0
            },
            {
                "start_time": 80.01136363636363,
                "end_time": 80.21363636363635,
                "pitch": 62,
                "velocity": 127,
                "duration": 0.20227272727272805,
                "tempo": 120.0
            },
            {
                "start_time": 80.21363636363635,
                "end_time": 80.41363636363636,
                "pitch": 60,
                "velocity": 127,
                "duration": 0.20000000000000284,
                "tempo": 120.0
            },
            {
                "start_time": 80.21363636363635,
                "end_time": 80.41363636363636,
                "pitch": 60,
                "velocity": 127,
                "duration": 0.20000000000000284,
                "tempo": 120.0
            },
            {
                "start_time": 80.41363636363636,
                "end_time": 80.61590909090908,
                "pitch": 59,
                "velocity": 127,
                "duration": 0.20227272727272805,
                "tempo": 120.0
            },
            {
                "start_time": 80.61590909090908,
                "end_time": 80.81818181818181,
                "pitch": 59,
                "velocity": 127,
                "duration": 0.20227272727272805,
                "tempo": 120.0
            },
            {
                "start_time": 79.42045454545455,
                "end_time": 80.81818181818181,
                "pitch": 65,
                "velocity": 127,
                "duration": 1.3977272727272663,
                "tempo": 120.0
            },
            {
                "start_time": 80.81818181818181,
                "end_time": 81.01818181818182,
                "pitch": 62,
                "velocity": 127,
                "duration": 0.20000000000000284,
                "tempo": 120.0
            },
            {
                "start_time": 80.81818181818181,
                "end_time": 81.01818181818182,
                "pitch": 65,
                "velocity": 127,
                "duration": 0.20000000000000284,
                "tempo": 120.0
            },
            {
                "start_time": 81.01818181818182,
                "end_time": 81.62045454545454,
                "pitch": 65,
                "velocity": 127,
                "duration": 0.6022727272727195,
                "tempo": 120.0
            },
            {
                "start_time": 81.01818181818182,
                "end_time": 81.62045454545454,
                "pitch": 65,
                "velocity": 127,
                "duration": 0.6022727272727195,
                "tempo": 120.0
            },
            {
                "start_time": 81.62045454545454,
                "end_time": 81.82272727272726,
                "pitch": 65,
                "velocity": 127,
                "duration": 0.20227272727272805,
                "tempo": 120.0
            },
            {
                "start_time": 81.82272727272726,
                "end_time": 82.02727272727272,
                "pitch": 64,
                "velocity": 127,
                "duration": 0.20454545454545325,
                "tempo": 120.0
            },
            {
                "start_time": 82.02727272727272,
                "end_time": 82.02954545454546,
                "pitch": 62,
                "velocity": 127,
                "duration": 0.0022727272727394165,
                "tempo": 120.0
            },
            {
                "start_time": 82.02954545454546,
                "end_time": 82.23409090909091,
                "pitch": 62,
                "velocity": 127,
                "duration": 0.20454545454545325,
                "tempo": 120.0
            },
            {
                "start_time": 80.41363636363636,
                "end_time": 82.43636363636364,
                "pitch": 44,
                "velocity": 127,
                "duration": 2.0227272727272805,
                "tempo": 120.0
            },
            {
                "start_time": 82.23409090909091,
                "end_time": 82.43636363636364,
                "pitch": 60,
                "velocity": 127,
                "duration": 0.20227272727272805,
                "tempo": 120.0
            },
            {
                "start_time": 82.23409090909091,
                "end_time": 82.43636363636364,
                "pitch": 60,
                "velocity": 127,
                "duration": 0.20227272727272805,
                "tempo": 120.0
            },
            {
                "start_time": 82.43636363636364,
                "end_time": 82.63636363636363,
                "pitch": 59,
                "velocity": 127,
                "duration": 0.19999999999998863,
                "tempo": 120.0
            },
            {
                "start_time": 82.63636363636363,
                "end_time": 83.84318181818182,
                "pitch": 57,
                "velocity": 127,
                "duration": 1.2068181818181927,
                "tempo": 120.0
            },
            {
                "start_time": 82.63863636363637,
                "end_time": 83.84318181818182,
                "pitch": 57,
                "velocity": 127,
                "duration": 1.2045454545454533,
                "tempo": 120.0
            },
            {
                "start_time": 83.84318181818182,
                "end_time": 84.04318181818181,
                "pitch": 57,
                "velocity": 127,
                "duration": 0.19999999999998863,
                "tempo": 120.0
            },
            {
                "start_time": 84.04318181818181,
                "end_time": 84.24545454545454,
                "pitch": 60,
                "velocity": 127,
                "duration": 0.20227272727272805,
                "tempo": 120.0
            },
            {
                "start_time": 84.04318181818181,
                "end_time": 84.24545454545454,
                "pitch": 64,
                "velocity": 127,
                "duration": 0.20227272727272805,
                "tempo": 120.0
            },
            {
                "start_time": 84.24545454545454,
                "end_time": 84.84318181818182,
                "pitch": 64,
                "velocity": 127,
                "duration": 0.5977272727272833,
                "tempo": 120.0
            },
            {
                "start_time": 84.24545454545454,
                "end_time": 84.84318181818182,
                "pitch": 64,
                "velocity": 127,
                "duration": 0.5977272727272833,
                "tempo": 120.0
            },
            {
                "start_time": 84.84318181818182,
                "end_time": 85.05,
                "pitch": 64,
                "velocity": 127,
                "duration": 0.20681818181817846,
                "tempo": 120.0
            },
            {
                "start_time": 85.05,
                "end_time": 85.25,
                "pitch": 62,
                "velocity": 127,
                "duration": 0.20000000000000284,
                "tempo": 120.0
            },
            {
                "start_time": 85.05,
                "end_time": 85.25,
                "pitch": 62,
                "velocity": 127,
                "duration": 0.20000000000000284,
                "tempo": 120.0
            },
            {
                "start_time": 85.25,
                "end_time": 85.45227272727273,
                "pitch": 60,
                "velocity": 127,
                "duration": 0.20227272727272805,
                "tempo": 120.0
            },
            {
                "start_time": 85.25,
                "end_time": 85.45227272727273,
                "pitch": 60,
                "velocity": 127,
                "duration": 0.20227272727272805,
                "tempo": 120.0
            },
            {
                "start_time": 85.45227272727273,
                "end_time": 85.65681818181818,
                "pitch": 55,
                "velocity": 127,
                "duration": 0.20454545454545325,
                "tempo": 120.0
            },
            {
                "start_time": 85.65681818181818,
                "end_time": 85.86363636363636,
                "pitch": 59,
                "velocity": 127,
                "duration": 0.20681818181817846,
                "tempo": 120.0
            },
            {
                "start_time": 85.6590909090909,
                "end_time": 85.86363636363636,
                "pitch": 59,
                "velocity": 127,
                "duration": 0.20454545454545325,
                "tempo": 120.0
            },
            {
                "start_time": 85.86363636363636,
                "end_time": 86.45681818181818,
                "pitch": 62,
                "velocity": 127,
                "duration": 0.5931818181818187,
                "tempo": 120.0
            },
            {
                "start_time": 86.4590909090909,
                "end_time": 86.6590909090909,
                "pitch": 62,
                "velocity": 127,
                "duration": 0.20000000000000284,
                "tempo": 120.0
            },
            {
                "start_time": 82.43636363636364,
                "end_time": 86.86590909090908,
                "pitch": 44,
                "velocity": 127,
                "duration": 4.429545454545448,
                "tempo": 120.0
            },
            {
                "start_time": 86.6590909090909,
                "end_time": 86.86590909090908,
                "pitch": 60,
                "velocity": 127,
                "duration": 0.20681818181817846,
                "tempo": 120.0
            },
            {
                "start_time": 86.6590909090909,
                "end_time": 86.86590909090908,
                "pitch": 60,
                "velocity": 127,
                "duration": 0.20681818181817846,
                "tempo": 120.0
            },
            {
                "start_time": 86.86590909090908,
                "end_time": 87.07045454545454,
                "pitch": 59,
                "velocity": 127,
                "duration": 0.20454545454545325,
                "tempo": 120.0
            },
            {
                "start_time": 87.07045454545454,
                "end_time": 87.27045454545454,
                "pitch": 59,
                "velocity": 127,
                "duration": 0.20000000000000284,
                "tempo": 120.0
            },
            {
                "start_time": 85.86363636363636,
                "end_time": 87.27045454545454,
                "pitch": 65,
                "velocity": 127,
                "duration": 1.4068181818181813,
                "tempo": 120.0
            },
            {
                "start_time": 87.27045454545454,
                "end_time": 87.47272727272727,
                "pitch": 62,
                "velocity": 127,
                "duration": 0.20227272727272805,
                "tempo": 120.0
            },
            {
                "start_time": 87.27045454545454,
                "end_time": 87.47272727272727,
                "pitch": 65,
                "velocity": 127,
                "duration": 0.20227272727272805,
                "tempo": 120.0
            },
            {
                "start_time": 87.47272727272727,
                "end_time": 88.07045454545454,
                "pitch": 65,
                "velocity": 127,
                "duration": 0.5977272727272691,
                "tempo": 120.0
            },
            {
                "start_time": 87.47272727272727,
                "end_time": 88.07045454545454,
                "pitch": 65,
                "velocity": 127,
                "duration": 0.5977272727272691,
                "tempo": 120.0
            },
            {
                "start_time": 88.07045454545454,
                "end_time": 88.26818181818182,
                "pitch": 65,
                "velocity": 127,
                "duration": 0.19772727272727764,
                "tempo": 120.0
            },
            {
                "start_time": 88.26818181818182,
                "end_time": 88.47272727272727,
                "pitch": 64,
                "velocity": 127,
                "duration": 0.20454545454545325,
                "tempo": 120.0
            },
            {
                "start_time": 88.47272727272727,
                "end_time": 88.67954545454545,
                "pitch": 62,
                "velocity": 127,
                "duration": 0.20681818181817846,
                "tempo": 120.0
            },
            {
                "start_time": 88.47272727272727,
                "end_time": 88.67954545454545,
                "pitch": 62,
                "velocity": 127,
                "duration": 0.20681818181817846,
                "tempo": 120.0
            },
            {
                "start_time": 88.67954545454545,
                "end_time": 88.87954545454545,
                "pitch": 64,
                "velocity": 127,
                "duration": 0.20000000000000284,
                "tempo": 120.0
            },
            {
                "start_time": 88.67954545454545,
                "end_time": 88.87954545454545,
                "pitch": 64,
                "velocity": 127,
                "duration": 0.20000000000000284,
                "tempo": 120.0
            },
            {
                "start_time": 88.87954545454545,
                "end_time": 89.08181818181818,
                "pitch": 62,
                "velocity": 127,
                "duration": 0.20227272727272805,
                "tempo": 120.0
            },
            {
                "start_time": 88.87954545454545,
                "end_time": 89.08181818181818,
                "pitch": 62,
                "velocity": 127,
                "duration": 0.20227272727272805,
                "tempo": 120.0
            },
            {
                "start_time": 77.39772727272727,
                "end_time": 128.93863636363636,
                "pitch": 31,
                "velocity": 127,
                "duration": 51.540909090909096,
                "tempo": 120.0
            },
            {
                "start_time": 89.08181818181818,
                "end_time": 128.93863636363636,
                "pitch": 60,
                "velocity": 127,
                "duration": 39.856818181818184,
                "tempo": 120.0
            },
            {
                "start_time": 89.08181818181818,
                "end_time": 128.93863636363636,
                "pitch": 60,
                "velocity": 127,
                "duration": 39.856818181818184,
                "tempo": 120.0
            },
            {
                "start_time": 128.93863636363636,
                "end_time": 129.13863636363635,
                "pitch": 57,
                "velocity": 127,
                "duration": 0.19999999999998863,
                "tempo": 120.0
            },
            {
                "start_time": 129.13863636363635,
                "end_time": 129.3409090909091,
                "pitch": 60,
                "velocity": 127,
                "duration": 0.20227272727274226,
                "tempo": 120.0
            },
            {
                "start_time": 129.13863636363635,
                "end_time": 129.3409090909091,
                "pitch": 64,
                "velocity": 127,
                "duration": 0.20227272727274226,
                "tempo": 120.0
            },
            {
                "start_time": 129.3409090909091,
                "end_time": 129.9431818181818,
                "pitch": 64,
                "velocity": 127,
                "duration": 0.6022727272727195,
                "tempo": 120.0
            },
            {
                "start_time": 129.3409090909091,
                "end_time": 129.9431818181818,
                "pitch": 64,
                "velocity": 127,
                "duration": 0.6022727272727195,
                "tempo": 120.0
            },
            {
                "start_time": 129.9431818181818,
                "end_time": 130.14545454545453,
                "pitch": 64,
                "velocity": 127,
                "duration": 0.20227272727271384,
                "tempo": 120.0
            },
            {
                "start_time": 130.14545454545453,
                "end_time": 130.34545454545454,
                "pitch": 62,
                "velocity": 127,
                "duration": 0.20000000000001705,
                "tempo": 120.0
            },
            {
                "start_time": 130.14545454545453,
                "end_time": 130.34545454545454,
                "pitch": 62,
                "velocity": 127,
                "duration": 0.20000000000001705,
                "tempo": 120.0
            },
            {
                "start_time": 130.34545454545454,
                "end_time": 130.54772727272726,
                "pitch": 60,
                "velocity": 127,
                "duration": 0.20227272727271384,
                "tempo": 120.0
            },
            {
                "start_time": 130.34545454545454,
                "end_time": 130.54772727272726,
                "pitch": 60,
                "velocity": 127,
                "duration": 0.20227272727271384,
                "tempo": 120.0
            },
            {
                "start_time": 130.54772727272726,
                "end_time": 130.75,
                "pitch": 55,
                "velocity": 127,
                "duration": 0.20227272727274226,
                "tempo": 120.0
            },
            {
                "start_time": 130.75,
                "end_time": 130.95,
                "pitch": 59,
                "velocity": 127,
                "duration": 0.19999999999998863,
                "tempo": 120.0
            },
            {
                "start_time": 130.75,
                "end_time": 130.95,
                "pitch": 59,
                "velocity": 127,
                "duration": 0.19999999999998863,
                "tempo": 120.0
            },
            {
                "start_time": 130.9522727272727,
                "end_time": 131.55454545454546,
                "pitch": 62,
                "velocity": 127,
                "duration": 0.6022727272727479,
                "tempo": 120.0
            },
            {
                "start_time": 131.55454545454546,
                "end_time": 131.75454545454545,
                "pitch": 62,
                "velocity": 127,
                "duration": 0.19999999999998863,
                "tempo": 120.0
            },
            {
                "start_time": 86.86590909090908,
                "end_time": 131.95681818181816,
                "pitch": 44,
                "velocity": 127,
                "duration": 45.09090909090908,
                "tempo": 120.0
            },
            {
                "start_time": 131.75454545454545,
                "end_time": 131.95681818181816,
                "pitch": 60,
                "velocity": 127,
                "duration": 0.20227272727271384,
                "tempo": 120.0
            },
            {
                "start_time": 131.75454545454545,
                "end_time": 131.95681818181816,
                "pitch": 60,
                "velocity": 127,
                "duration": 0.20227272727271384,
                "tempo": 120.0
            },
            {
                "start_time": 131.95681818181816,
                "end_time": 132.15681818181818,
                "pitch": 59,
                "velocity": 127,
                "duration": 0.20000000000001705,
                "tempo": 120.0
            },
            {
                "start_time": 132.15681818181818,
                "end_time": 132.36363636363635,
                "pitch": 59,
                "velocity": 127,
                "duration": 0.20681818181816425,
                "tempo": 120.0
            },
            {
                "start_time": 130.95,
                "end_time": 132.36363636363635,
                "pitch": 65,
                "velocity": 127,
                "duration": 1.413636363636357,
                "tempo": 120.0
            },
            {
                "start_time": 132.36363636363635,
                "end_time": 132.5681818181818,
                "pitch": 62,
                "velocity": 127,
                "duration": 0.20454545454546746,
                "tempo": 120.0
            },
            {
                "start_time": 132.36363636363635,
                "end_time": 132.5681818181818,
                "pitch": 65,
                "velocity": 127,
                "duration": 0.20454545454546746,
                "tempo": 120.0
            },
            {
                "start_time": 132.5681818181818,
                "end_time": 133.16363636363636,
                "pitch": 65,
                "velocity": 127,
                "duration": 0.5954545454545439,
                "tempo": 120.0
            },
            {
                "start_time": 132.57045454545454,
                "end_time": 133.16363636363636,
                "pitch": 65,
                "velocity": 127,
                "duration": 0.5931818181818187,
                "tempo": 120.0
            },
            {
                "start_time": 133.16363636363636,
                "end_time": 133.36590909090907,
                "pitch": 65,
                "velocity": 127,
                "duration": 0.20227272727271384,
                "tempo": 120.0
            },
            {
                "start_time": 133.36590909090907,
                "end_time": 133.5659090909091,
                "pitch": 64,
                "velocity": 127,
                "duration": 0.20000000000001705,
                "tempo": 120.0
            },
            {
                "start_time": 133.5659090909091,
                "end_time": 133.76590909090908,
                "pitch": 62,
                "velocity": 127,
                "duration": 0.19999999999998863,
                "tempo": 120.0
            },
            {
                "start_time": 133.5659090909091,
                "end_time": 133.76590909090908,
                "pitch": 62,
                "velocity": 127,
                "duration": 0.19999999999998863,
                "tempo": 120.0
            },
            {
                "start_time": 131.95681818181816,
                "end_time": 133.97045454545454,
                "pitch": 44,
                "velocity": 127,
                "duration": 2.0136363636363797,
                "tempo": 120.0
            },
            {
                "start_time": 133.76590909090908,
                "end_time": 133.97045454545454,
                "pitch": 60,
                "velocity": 127,
                "duration": 0.20454545454546746,
                "tempo": 120.0
            },
            {
                "start_time": 133.76590909090908,
                "end_time": 133.97045454545454,
                "pitch": 60,
                "velocity": 127,
                "duration": 0.20454545454546746,
                "tempo": 120.0
            },
            {
                "start_time": 133.97045454545454,
                "end_time": 134.1772727272727,
                "pitch": 59,
                "velocity": 127,
                "duration": 0.20681818181816425,
                "tempo": 120.0
            },
            {
                "start_time": 134.1772727272727,
                "end_time": 135.3840909090909,
                "pitch": 57,
                "velocity": 127,
                "duration": 1.2068181818181927,
                "tempo": 120.0
            },
            {
                "start_time": 134.1772727272727,
                "end_time": 135.3840909090909,
                "pitch": 57,
                "velocity": 127,
                "duration": 1.2068181818181927,
                "tempo": 120.0
            },
            {
                "start_time": 135.3840909090909,
                "end_time": 135.58636363636364,
                "pitch": 57,
                "velocity": 127,
                "duration": 0.20227272727274226,
                "tempo": 120.0
            },
            {
                "start_time": 135.58636363636364,
                "end_time": 135.78636363636363,
                "pitch": 60,
                "velocity": 127,
                "duration": 0.19999999999998863,
                "tempo": 120.0
            },
            {
                "start_time": 135.58636363636364,
                "end_time": 135.78636363636363,
                "pitch": 64,
                "velocity": 127,
                "duration": 0.19999999999998863,
                "tempo": 120.0
            },
            {
                "start_time": 135.78636363636363,
                "end_time": 136.38863636363635,
                "pitch": 64,
                "velocity": 127,
                "duration": 0.6022727272727195,
                "tempo": 120.0
            },
            {
                "start_time": 135.78636363636363,
                "end_time": 136.38863636363635,
                "pitch": 64,
                "velocity": 127,
                "duration": 0.6022727272727195,
                "tempo": 120.0
            },
            {
                "start_time": 136.38863636363635,
                "end_time": 136.5909090909091,
                "pitch": 64,
                "velocity": 127,
                "duration": 0.20227272727274226,
                "tempo": 120.0
            },
            {
                "start_time": 136.5909090909091,
                "end_time": 136.7931818181818,
                "pitch": 62,
                "velocity": 127,
                "duration": 0.20227272727271384,
                "tempo": 120.0
            },
            {
                "start_time": 136.5909090909091,
                "end_time": 136.7931818181818,
                "pitch": 62,
                "velocity": 127,
                "duration": 0.20227272727271384,
                "tempo": 120.0
            },
            {
                "start_time": 136.7931818181818,
                "end_time": 136.99318181818182,
                "pitch": 60,
                "velocity": 127,
                "duration": 0.20000000000001705,
                "tempo": 120.0
            },
            {
                "start_time": 136.7931818181818,
                "end_time": 136.99318181818182,
                "pitch": 60,
                "velocity": 127,
                "duration": 0.20000000000001705,
                "tempo": 120.0
            },
            {
                "start_time": 136.99318181818182,
                "end_time": 137.19545454545454,
                "pitch": 55,
                "velocity": 127,
                "duration": 0.20227272727271384,
                "tempo": 120.0
            },
            {
                "start_time": 137.19545454545454,
                "end_time": 137.39772727272725,
                "pitch": 59,
                "velocity": 127,
                "duration": 0.20227272727271384,
                "tempo": 120.0
            },
            {
                "start_time": 137.19545454545454,
                "end_time": 137.39772727272725,
                "pitch": 59,
                "velocity": 127,
                "duration": 0.20227272727271384,
                "tempo": 120.0
            },
            {
                "start_time": 137.39772727272725,
                "end_time": 138.0,
                "pitch": 62,
                "velocity": 127,
                "duration": 0.6022727272727479,
                "tempo": 120.0
            },
            {
                "start_time": 138.0,
                "end_time": 138.2,
                "pitch": 62,
                "velocity": 127,
                "duration": 0.19999999999998863,
                "tempo": 120.0
            },
            {
                "start_time": 133.97045454545454,
                "end_time": 138.40227272727273,
                "pitch": 44,
                "velocity": 127,
                "duration": 4.431818181818187,
                "tempo": 120.0
            },
            {
                "start_time": 138.2,
                "end_time": 138.40227272727273,
                "pitch": 60,
                "velocity": 127,
                "duration": 0.20227272727274226,
                "tempo": 120.0
            },
            {
                "start_time": 138.2022727272727,
                "end_time": 138.40227272727273,
                "pitch": 60,
                "velocity": 127,
                "duration": 0.20000000000001705,
                "tempo": 120.0
            },
            {
                "start_time": 138.40227272727273,
                "end_time": 138.60454545454544,
                "pitch": 59,
                "velocity": 127,
                "duration": 0.20227272727271384,
                "tempo": 120.0
            },
            {
                "start_time": 138.60454545454544,
                "end_time": 138.8068181818182,
                "pitch": 59,
                "velocity": 127,
                "duration": 0.20227272727274226,
                "tempo": 120.0
            },
            {
                "start_time": 137.39772727272725,
                "end_time": 138.8068181818182,
                "pitch": 65,
                "velocity": 127,
                "duration": 1.409090909090935,
                "tempo": 120.0
            },
            {
                "start_time": 138.8068181818182,
                "end_time": 139.00681818181818,
                "pitch": 62,
                "velocity": 127,
                "duration": 0.19999999999998863,
                "tempo": 120.0
            },
            {
                "start_time": 138.8068181818182,
                "end_time": 139.00681818181818,
                "pitch": 65,
                "velocity": 127,
                "duration": 0.19999999999998863,
                "tempo": 120.0
            },
            {
                "start_time": 139.00681818181818,
                "end_time": 139.61136363636362,
                "pitch": 65,
                "velocity": 127,
                "duration": 0.6045454545454447,
                "tempo": 120.0
            },
            {
                "start_time": 139.00681818181818,
                "end_time": 139.61136363636362,
                "pitch": 65,
                "velocity": 127,
                "duration": 0.6045454545454447,
                "tempo": 120.0
            },
            {
                "start_time": 139.61136363636362,
                "end_time": 139.81363636363636,
                "pitch": 65,
                "velocity": 127,
                "duration": 0.20227272727274226,
                "tempo": 120.0
            },
            {
                "start_time": 139.81363636363636,
                "end_time": 140.01363636363635,
                "pitch": 64,
                "velocity": 127,
                "duration": 0.19999999999998863,
                "tempo": 120.0
            },
            {
                "start_time": 140.01363636363635,
                "end_time": 140.21363636363637,
                "pitch": 62,
                "velocity": 127,
                "duration": 0.20000000000001705,
                "tempo": 120.0
            },
            {
                "start_time": 140.01363636363635,
                "end_time": 140.21363636363637,
                "pitch": 62,
                "velocity": 127,
                "duration": 0.20000000000001705,
                "tempo": 120.0
            },
            {
                "start_time": 140.21363636363637,
                "end_time": 140.41590909090908,
                "pitch": 64,
                "velocity": 127,
                "duration": 0.20227272727271384,
                "tempo": 120.0
            },
            {
                "start_time": 140.21363636363637,
                "end_time": 140.41590909090908,
                "pitch": 64,
                "velocity": 127,
                "duration": 0.20227272727271384,
                "tempo": 120.0
            },
            {
                "start_time": 140.41590909090908,
                "end_time": 140.61818181818182,
                "pitch": 62,
                "velocity": 127,
                "duration": 0.20227272727274226,
                "tempo": 120.0
            },
            {
                "start_time": 140.41590909090908,
                "end_time": 140.61818181818182,
                "pitch": 62,
                "velocity": 127,
                "duration": 0.20227272727274226,
                "tempo": 120.0
            }
        ],
        "Lead 2 (sawtooth)": [
            {
                "start_time": 0.19545454545454544,
                "end_time": 0.2727272727272727,
                "pitch": 45,
                "velocity": 127,
                "duration": 0.07727272727272727,
                "tempo": 120.0
            },
            {
                "start_time": 0.2909090909090909,
                "end_time": 0.3727272727272727,
                "pitch": 48,
                "velocity": 101,
                "duration": 0.08181818181818179,
                "tempo": 120.0
            },
            {
                "start_time": 0.3909090909090909,
                "end_time": 0.4727272727272727,
                "pitch": 47,
                "velocity": 101,
                "duration": 0.08181818181818185,
                "tempo": 120.0
            },
            {
                "start_time": 0.4909090909090909,
                "end_time": 0.5727272727272728,
                "pitch": 48,
                "velocity": 101,
                "duration": 0.08181818181818185,
                "tempo": 120.0
            },
            {
                "start_time": 0.5909090909090908,
                "end_time": 0.6727272727272727,
                "pitch": 45,
                "velocity": 127,
                "duration": 0.0818181818181819,
                "tempo": 120.0
            },
            {
                "start_time": 0.6886363636363636,
                "end_time": 0.7704545454545454,
                "pitch": 48,
                "velocity": 101,
                "duration": 0.08181818181818179,
                "tempo": 120.0
            },
            {
                "start_time": 0.7863636363636364,
                "end_time": 0.8681818181818182,
                "pitch": 47,
                "velocity": 101,
                "duration": 0.08181818181818179,
                "tempo": 120.0
            },
            {
                "start_time": 0.884090909090909,
                "end_time": 0.9659090909090908,
                "pitch": 48,
                "velocity": 101,
                "duration": 0.08181818181818179,
                "tempo": 120.0
            },
            {
                "start_time": 0.984090909090909,
                "end_time": 1.065909090909091,
                "pitch": 45,
                "velocity": 127,
                "duration": 0.0818181818181819,
                "tempo": 120.0
            },
            {
                "start_time": 1.084090909090909,
                "end_time": 1.1659090909090908,
                "pitch": 48,
                "velocity": 101,
                "duration": 0.08181818181818179,
                "tempo": 120.0
            },
            {
                "start_time": 1.184090909090909,
                "end_time": 1.2659090909090909,
                "pitch": 47,
                "velocity": 101,
                "duration": 0.08181818181818179,
                "tempo": 120.0
            },
            {
                "start_time": 1.284090909090909,
                "end_time": 1.3659090909090907,
                "pitch": 48,
                "velocity": 101,
                "duration": 0.08181818181818179,
                "tempo": 120.0
            },
            {
                "start_time": 1.384090909090909,
                "end_time": 1.4659090909090908,
                "pitch": 45,
                "velocity": 127,
                "duration": 0.08181818181818179,
                "tempo": 120.0
            },
            {
                "start_time": 1.4840909090909091,
                "end_time": 1.565909090909091,
                "pitch": 48,
                "velocity": 101,
                "duration": 0.08181818181818179,
                "tempo": 120.0
            },
            {
                "start_time": 1.584090909090909,
                "end_time": 1.6659090909090908,
                "pitch": 47,
                "velocity": 101,
                "duration": 0.08181818181818179,
                "tempo": 120.0
            },
            {
                "start_time": 1.684090909090909,
                "end_time": 1.7659090909090909,
                "pitch": 48,
                "velocity": 101,
                "duration": 0.08181818181818179,
                "tempo": 120.0
            },
            {
                "start_time": 1.7863636363636364,
                "end_time": 1.8681818181818182,
                "pitch": 43,
                "velocity": 127,
                "duration": 0.08181818181818179,
                "tempo": 120.0
            },
            {
                "start_time": 1.8863636363636362,
                "end_time": 1.9727272727272727,
                "pitch": 47,
                "velocity": 101,
                "duration": 0.08636363636363642,
                "tempo": 120.0
            },
            {
                "start_time": 1.9886363636363635,
                "end_time": 2.0749999999999997,
                "pitch": 45,
                "velocity": 101,
                "duration": 0.0863636363636362,
                "tempo": 120.0
            },
            {
                "start_time": 2.0931818181818183,
                "end_time": 2.1772727272727272,
                "pitch": 47,
                "velocity": 101,
                "duration": 0.084090909090909,
                "tempo": 120.0
            },
            {
                "start_time": 2.1954545454545453,
                "end_time": 2.2795454545454543,
                "pitch": 43,
                "velocity": 127,
                "duration": 0.084090909090909,
                "tempo": 120.0
            },
            {
                "start_time": 2.2954545454545454,
                "end_time": 2.3795454545454544,
                "pitch": 47,
                "velocity": 101,
                "duration": 0.084090909090909,
                "tempo": 120.0
            },
            {
                "start_time": 2.3977272727272725,
                "end_time": 2.4795454545454545,
                "pitch": 45,
                "velocity": 101,
                "duration": 0.08181818181818201,
                "tempo": 120.0
            },
            {
                "start_time": 2.4977272727272726,
                "end_time": 2.5818181818181816,
                "pitch": 47,
                "velocity": 101,
                "duration": 0.084090909090909,
                "tempo": 120.0
            },
            {
                "start_time": 2.6,
                "end_time": 2.6818181818181817,
                "pitch": 43,
                "velocity": 127,
                "duration": 0.08181818181818157,
                "tempo": 120.0
            },
            {
                "start_time": 2.6999999999999997,
                "end_time": 2.7818181818181817,
                "pitch": 47,
                "velocity": 101,
                "duration": 0.08181818181818201,
                "tempo": 120.0
            },
            {
                "start_time": 2.8,
                "end_time": 2.881818181818182,
                "pitch": 45,
                "velocity": 101,
                "duration": 0.08181818181818201,
                "tempo": 120.0
            },
            {
                "start_time": 2.9,
                "end_time": 2.9818181818181815,
                "pitch": 47,
                "velocity": 101,
                "duration": 0.08181818181818157,
                "tempo": 120.0
            },
            {
                "start_time": 3.0,
                "end_time": 3.0818181818181816,
                "pitch": 43,
                "velocity": 127,
                "duration": 0.08181818181818157,
                "tempo": 120.0
            },
            {
                "start_time": 3.0999999999999996,
                "end_time": 3.1818181818181817,
                "pitch": 47,
                "velocity": 101,
                "duration": 0.08181818181818201,
                "tempo": 120.0
            },
            {
                "start_time": 3.1999999999999997,
                "end_time": 3.2818181818181817,
                "pitch": 45,
                "velocity": 101,
                "duration": 0.08181818181818201,
                "tempo": 120.0
            },
            {
                "start_time": 3.3,
                "end_time": 3.381818181818182,
                "pitch": 47,
                "velocity": 101,
                "duration": 0.08181818181818201,
                "tempo": 120.0
            },
            {
                "start_time": 3.402272727272727,
                "end_time": 3.4818181818181815,
                "pitch": 47,
                "velocity": 127,
                "duration": 0.07954545454545459,
                "tempo": 120.0
            },
            {
                "start_time": 3.5,
                "end_time": 3.5818181818181816,
                "pitch": 50,
                "velocity": 101,
                "duration": 0.08181818181818157,
                "tempo": 120.0
            },
            {
                "start_time": 3.5999999999999996,
                "end_time": 3.6818181818181817,
                "pitch": 48,
                "velocity": 101,
                "duration": 0.08181818181818201,
                "tempo": 120.0
            },
            {
                "start_time": 3.6999999999999997,
                "end_time": 3.7840909090909087,
                "pitch": 50,
                "velocity": 101,
                "duration": 0.084090909090909,
                "tempo": 120.0
            },
            {
                "start_time": 3.8022727272727272,
                "end_time": 3.884090909090909,
                "pitch": 47,
                "velocity": 127,
                "duration": 0.08181818181818157,
                "tempo": 120.0
            },
            {
                "start_time": 3.9,
                "end_time": 3.984090909090909,
                "pitch": 50,
                "velocity": 101,
                "duration": 0.084090909090909,
                "tempo": 120.0
            },
            {
                "start_time": 4.0,
                "end_time": 4.084090909090909,
                "pitch": 48,
                "velocity": 101,
                "duration": 0.084090909090909,
                "tempo": 120.0
            },
            {
                "start_time": 4.1,
                "end_time": 4.184090909090909,
                "pitch": 50,
                "velocity": 101,
                "duration": 0.084090909090909,
                "tempo": 120.0
            },
            {
                "start_time": 4.202272727272727,
                "end_time": 4.284090909090909,
                "pitch": 47,
                "velocity": 127,
                "duration": 0.08181818181818201,
                "tempo": 120.0
            },
            {
                "start_time": 4.302272727272727,
                "end_time": 4.384090909090909,
                "pitch": 50,
                "velocity": 101,
                "duration": 0.08181818181818201,
                "tempo": 120.0
            },
            {
                "start_time": 4.402272727272727,
                "end_time": 4.486363636363636,
                "pitch": 48,
                "velocity": 101,
                "duration": 0.084090909090909,
                "tempo": 120.0
            },
            {
                "start_time": 4.502272727272727,
                "end_time": 4.586363636363636,
                "pitch": 50,
                "velocity": 101,
                "duration": 0.084090909090909,
                "tempo": 120.0
            },
            {
                "start_time": 4.6045454545454545,
                "end_time": 4.6863636363636365,
                "pitch": 47,
                "velocity": 127,
                "duration": 0.08181818181818201,
                "tempo": 120.0
            },
            {
                "start_time": 4.704545454545454,
                "end_time": 4.786363636363636,
                "pitch": 50,
                "velocity": 101,
                "duration": 0.08181818181818201,
                "tempo": 120.0
            },
            {
                "start_time": 4.804545454545455,
                "end_time": 4.886363636363636,
                "pitch": 48,
                "velocity": 101,
                "duration": 0.08181818181818112,
                "tempo": 120.0
            },
            {
                "start_time": 4.904545454545454,
                "end_time": 4.986363636363636,
                "pitch": 50,
                "velocity": 101,
                "duration": 0.08181818181818201,
                "tempo": 120.0
            },
            {
                "start_time": 5.006818181818182,
                "end_time": 5.088636363636363,
                "pitch": 45,
                "velocity": 127,
                "duration": 0.08181818181818112,
                "tempo": 120.0
            },
            {
                "start_time": 5.1045454545454545,
                "end_time": 5.1886363636363635,
                "pitch": 48,
                "velocity": 101,
                "duration": 0.084090909090909,
                "tempo": 120.0
            },
            {
                "start_time": 5.206818181818181,
                "end_time": 5.288636363636363,
                "pitch": 47,
                "velocity": 101,
                "duration": 0.08181818181818201,
                "tempo": 120.0
            },
            {
                "start_time": 5.306818181818182,
                "end_time": 5.390909090909091,
                "pitch": 48,
                "velocity": 101,
                "duration": 0.084090909090909,
                "tempo": 120.0
            },
            {
                "start_time": 5.409090909090909,
                "end_time": 5.49090909090909,
                "pitch": 45,
                "velocity": 127,
                "duration": 0.08181818181818112,
                "tempo": 120.0
            },
            {
                "start_time": 5.509090909090909,
                "end_time": 5.590909090909091,
                "pitch": 48,
                "velocity": 101,
                "duration": 0.08181818181818201,
                "tempo": 120.0
            },
            {
                "start_time": 5.6090909090909085,
                "end_time": 5.693181818181818,
                "pitch": 47,
                "velocity": 101,
                "duration": 0.08409090909090988,
                "tempo": 120.0
            },
            {
                "start_time": 5.709090909090909,
                "end_time": 5.793181818181818,
                "pitch": 48,
                "velocity": 101,
                "duration": 0.084090909090909,
                "tempo": 120.0
            },
            {
                "start_time": 5.8113636363636365,
                "end_time": 5.893181818181818,
                "pitch": 45,
                "velocity": 127,
                "duration": 0.08181818181818112,
                "tempo": 120.0
            },
            {
                "start_time": 5.911363636363636,
                "end_time": 5.993181818181818,
                "pitch": 48,
                "velocity": 101,
                "duration": 0.08181818181818201,
                "tempo": 120.0
            },
            {
                "start_time": 6.011363636363636,
                "end_time": 6.093181818181818,
                "pitch": 47,
                "velocity": 101,
                "duration": 0.08181818181818201,
                "tempo": 120.0
            },
            {
                "start_time": 6.111363636363636,
                "end_time": 6.1931818181818175,
                "pitch": 48,
                "velocity": 101,
                "duration": 0.08181818181818112,
                "tempo": 120.0
            },
            {
                "start_time": 6.211363636363636,
                "end_time": 6.295454545454545,
                "pitch": 45,
                "velocity": 127,
                "duration": 0.084090909090909,
                "tempo": 120.0
            },
            {
                "start_time": 6.311363636363636,
                "end_time": 6.3954545454545455,
                "pitch": 48,
                "velocity": 101,
                "duration": 0.08409090909090988,
                "tempo": 120.0
            },
            {
                "start_time": 6.413636363636363,
                "end_time": 6.495454545454545,
                "pitch": 47,
                "velocity": 101,
                "duration": 0.08181818181818201,
                "tempo": 120.0
            },
            {
                "start_time": 6.513636363636364,
                "end_time": 6.597727272727273,
                "pitch": 48,
                "velocity": 101,
                "duration": 0.084090909090909,
                "tempo": 120.0
            },
            {
                "start_time": 6.618181818181818,
                "end_time": 6.699999999999999,
                "pitch": 45,
                "velocity": 127,
                "duration": 0.08181818181818112,
                "tempo": 120.0
            },
            {
                "start_time": 6.718181818181818,
                "end_time": 6.802272727272727,
                "pitch": 48,
                "velocity": 101,
                "duration": 0.084090909090909,
                "tempo": 120.0
            },
            {
                "start_time": 6.820454545454545,
                "end_time": 6.904545454545454,
                "pitch": 47,
                "velocity": 101,
                "duration": 0.084090909090909,
                "tempo": 120.0
            },
            {
                "start_time": 6.922727272727272,
                "end_time": 7.009090909090909,
                "pitch": 48,
                "velocity": 101,
                "duration": 0.08636363636363686,
                "tempo": 120.0
            },
            {
                "start_time": 7.027272727272727,
                "end_time": 7.1068181818181815,
                "pitch": 45,
                "velocity": 127,
                "duration": 0.07954545454545414,
                "tempo": 120.0
            },
            {
                "start_time": 7.125,
                "end_time": 7.204545454545454,
                "pitch": 48,
                "velocity": 101,
                "duration": 0.07954545454545414,
                "tempo": 120.0
            },
            {
                "start_time": 7.222727272727273,
                "end_time": 7.304545454545454,
                "pitch": 47,
                "velocity": 101,
                "duration": 0.08181818181818112,
                "tempo": 120.0
            },
            {
                "start_time": 7.320454545454545,
                "end_time": 7.402272727272727,
                "pitch": 48,
                "velocity": 101,
                "duration": 0.08181818181818201,
                "tempo": 120.0
            },
            {
                "start_time": 7.420454545454545,
                "end_time": 7.502272727272727,
                "pitch": 45,
                "velocity": 127,
                "duration": 0.08181818181818201,
                "tempo": 120.0
            },
            {
                "start_time": 7.5204545454545455,
                "end_time": 7.602272727272727,
                "pitch": 48,
                "velocity": 101,
                "duration": 0.08181818181818112,
                "tempo": 120.0
            },
            {
                "start_time": 7.620454545454545,
                "end_time": 7.704545454545454,
                "pitch": 47,
                "velocity": 101,
                "duration": 0.084090909090909,
                "tempo": 120.0
            },
            {
                "start_time": 7.720454545454545,
                "end_time": 7.804545454545454,
                "pitch": 48,
                "velocity": 101,
                "duration": 0.084090909090909,
                "tempo": 120.0
            },
            {
                "start_time": 7.822727272727272,
                "end_time": 7.904545454545454,
                "pitch": 45,
                "velocity": 127,
                "duration": 0.08181818181818201,
                "tempo": 120.0
            },
            {
                "start_time": 7.922727272727272,
                "end_time": 8.004545454545454,
                "pitch": 48,
                "velocity": 101,
                "duration": 0.08181818181818201,
                "tempo": 120.0
            },
            {
                "start_time": 8.022727272727272,
                "end_time": 8.104545454545454,
                "pitch": 47,
                "velocity": 101,
                "duration": 0.08181818181818201,
                "tempo": 120.0
            },
            {
                "start_time": 8.122727272727273,
                "end_time": 8.204545454545455,
                "pitch": 48,
                "velocity": 101,
                "duration": 0.08181818181818201,
                "tempo": 120.0
            },
            {
                "start_time": 8.225,
                "end_time": 8.306818181818182,
                "pitch": 43,
                "velocity": 127,
                "duration": 0.08181818181818201,
                "tempo": 120.0
            },
            {
                "start_time": 8.325,
                "end_time": 8.409090909090908,
                "pitch": 47,
                "velocity": 101,
                "duration": 0.084090909090909,
                "tempo": 120.0
            },
            {
                "start_time": 8.427272727272728,
                "end_time": 8.513636363636364,
                "pitch": 45,
                "velocity": 101,
                "duration": 0.08636363636363598,
                "tempo": 120.0
            },
            {
                "start_time": 8.529545454545454,
                "end_time": 8.61590909090909,
                "pitch": 47,
                "velocity": 101,
                "duration": 0.08636363636363598,
                "tempo": 120.0
            },
            {
                "start_time": 8.634090909090908,
                "end_time": 8.71590909090909,
                "pitch": 43,
                "velocity": 127,
                "duration": 0.08181818181818201,
                "tempo": 120.0
            },
            {
                "start_time": 8.73181818181818,
                "end_time": 8.813636363636363,
                "pitch": 47,
                "velocity": 101,
                "duration": 0.08181818181818201,
                "tempo": 120.0
            },
            {
                "start_time": 8.829545454545453,
                "end_time": 8.911363636363635,
                "pitch": 45,
                "velocity": 101,
                "duration": 0.08181818181818201,
                "tempo": 120.0
            },
            {
                "start_time": 8.927272727272728,
                "end_time": 9.009090909090908,
                "pitch": 47,
                "velocity": 101,
                "duration": 0.08181818181818024,
                "tempo": 120.0
            },
            {
                "start_time": 9.027272727272727,
                "end_time": 9.10909090909091,
                "pitch": 43,
                "velocity": 127,
                "duration": 0.08181818181818201,
                "tempo": 120.0
            },
            {
                "start_time": 9.127272727272727,
                "end_time": 9.211363636363636,
                "pitch": 47,
                "velocity": 101,
                "duration": 0.084090909090909,
                "tempo": 120.0
            },
            {
                "start_time": 9.227272727272727,
                "end_time": 9.311363636363636,
                "pitch": 45,
                "velocity": 101,
                "duration": 0.084090909090909,
                "tempo": 120.0
            },
            {
                "start_time": 9.329545454545453,
                "end_time": 9.411363636363635,
                "pitch": 47,
                "velocity": 101,
                "duration": 0.08181818181818201,
                "tempo": 120.0
            },
            {
                "start_time": 9.429545454545455,
                "end_time": 9.513636363636364,
                "pitch": 43,
                "velocity": 127,
                "duration": 0.084090909090909,
                "tempo": 120.0
            },
            {
                "start_time": 9.529545454545454,
                "end_time": 9.613636363636363,
                "pitch": 47,
                "velocity": 101,
                "duration": 0.084090909090909,
                "tempo": 120.0
            },
            {
                "start_time": 9.631818181818181,
                "end_time": 9.713636363636363,
                "pitch": 45,
                "velocity": 101,
                "duration": 0.08181818181818201,
                "tempo": 120.0
            },
            {
                "start_time": 9.73181818181818,
                "end_time": 9.81590909090909,
                "pitch": 47,
                "velocity": 101,
                "duration": 0.084090909090909,
                "tempo": 120.0
            },
            {
                "start_time": 9.834090909090909,
                "end_time": 9.918181818181818,
                "pitch": 47,
                "velocity": 127,
                "duration": 0.084090909090909,
                "tempo": 120.0
            },
            {
                "start_time": 9.936363636363636,
                "end_time": 10.020454545454545,
                "pitch": 50,
                "velocity": 101,
                "duration": 0.084090909090909,
                "tempo": 120.0
            },
            {
                "start_time": 10.038636363636364,
                "end_time": 10.122727272727273,
                "pitch": 48,
                "velocity": 101,
                "duration": 0.084090909090909,
                "tempo": 120.0
            },
            {
                "start_time": 10.14090909090909,
                "end_time": 10.227272727272727,
                "pitch": 50,
                "velocity": 101,
                "duration": 0.08636363636363598,
                "tempo": 120.0
            },
            {
                "start_time": 10.245454545454544,
                "end_time": 10.327272727272726,
                "pitch": 47,
                "velocity": 127,
                "duration": 0.08181818181818201,
                "tempo": 120.0
            },
            {
                "start_time": 10.345454545454546,
                "end_time": 10.427272727272726,
                "pitch": 50,
                "velocity": 101,
                "duration": 0.08181818181818024,
                "tempo": 120.0
            },
            {
                "start_time": 10.445454545454545,
                "end_time": 10.529545454545454,
                "pitch": 48,
                "velocity": 101,
                "duration": 0.084090909090909,
                "tempo": 120.0
            },
            {
                "start_time": 10.545454545454545,
                "end_time": 10.629545454545454,
                "pitch": 50,
                "velocity": 101,
                "duration": 0.084090909090909,
                "tempo": 120.0
            },
            {
                "start_time": 10.647727272727272,
                "end_time": 10.729545454545454,
                "pitch": 47,
                "velocity": 127,
                "duration": 0.08181818181818201,
                "tempo": 120.0
            },
            {
                "start_time": 10.747727272727273,
                "end_time": 10.829545454545453,
                "pitch": 50,
                "velocity": 101,
                "duration": 0.08181818181818024,
                "tempo": 120.0
            },
            {
                "start_time": 10.847727272727273,
                "end_time": 10.929545454545455,
                "pitch": 48,
                "velocity": 101,
                "duration": 0.08181818181818201,
                "tempo": 120.0
            },
            {
                "start_time": 10.947727272727272,
                "end_time": 11.029545454545454,
                "pitch": 50,
                "velocity": 101,
                "duration": 0.08181818181818201,
                "tempo": 120.0
            },
            {
                "start_time": 11.047727272727272,
                "end_time": 11.131818181818181,
                "pitch": 47,
                "velocity": 127,
                "duration": 0.084090909090909,
                "tempo": 120.0
            },
            {
                "start_time": 11.147727272727272,
                "end_time": 11.23181818181818,
                "pitch": 50,
                "velocity": 101,
                "duration": 0.084090909090909,
                "tempo": 120.0
            },
            {
                "start_time": 11.25,
                "end_time": 11.331818181818182,
                "pitch": 48,
                "velocity": 101,
                "duration": 0.08181818181818201,
                "tempo": 120.0
            },
            {
                "start_time": 11.35,
                "end_time": 11.434090909090909,
                "pitch": 50,
                "velocity": 101,
                "duration": 0.084090909090909,
                "tempo": 120.0
            },
            {
                "start_time": 11.452272727272726,
                "end_time": 11.534090909090908,
                "pitch": 45,
                "velocity": 127,
                "duration": 0.08181818181818201,
                "tempo": 120.0
            },
            {
                "start_time": 11.552272727272726,
                "end_time": 11.636363636363637,
                "pitch": 48,
                "velocity": 101,
                "duration": 0.08409090909091077,
                "tempo": 120.0
            },
            {
                "start_time": 11.652272727272727,
                "end_time": 11.736363636363636,
                "pitch": 47,
                "velocity": 101,
                "duration": 0.084090909090909,
                "tempo": 120.0
            },
            {
                "start_time": 11.754545454545454,
                "end_time": 11.836363636363636,
                "pitch": 48,
                "velocity": 101,
                "duration": 0.08181818181818201,
                "tempo": 120.0
            },
            {
                "start_time": 11.854545454545454,
                "end_time": 11.938636363636363,
                "pitch": 45,
                "velocity": 127,
                "duration": 0.084090909090909,
                "tempo": 120.0
            },
            {
                "start_time": 11.954545454545453,
                "end_time": 12.038636363636362,
                "pitch": 48,
                "velocity": 101,
                "duration": 0.084090909090909,
                "tempo": 120.0
            },
            {
                "start_time": 12.056818181818182,
                "end_time": 12.138636363636364,
                "pitch": 47,
                "velocity": 101,
                "duration": 0.08181818181818201,
                "tempo": 120.0
            },
            {
                "start_time": 12.156818181818181,
                "end_time": 12.24090909090909,
                "pitch": 48,
                "velocity": 101,
                "duration": 0.084090909090909,
                "tempo": 120.0
            },
            {
                "start_time": 12.259090909090908,
                "end_time": 12.34090909090909,
                "pitch": 45,
                "velocity": 127,
                "duration": 0.08181818181818201,
                "tempo": 120.0
            },
            {
                "start_time": 12.35909090909091,
                "end_time": 12.44090909090909,
                "pitch": 48,
                "velocity": 101,
                "duration": 0.08181818181818024,
                "tempo": 120.0
            },
            {
                "start_time": 12.459090909090909,
                "end_time": 12.543181818181818,
                "pitch": 47,
                "velocity": 101,
                "duration": 0.084090909090909,
                "tempo": 120.0
            },
            {
                "start_time": 12.559090909090909,
                "end_time": 12.643181818181818,
                "pitch": 48,
                "velocity": 101,
                "duration": 0.084090909090909,
                "tempo": 120.0
            },
            {
                "start_time": 12.661363636363635,
                "end_time": 12.743181818181817,
                "pitch": 45,
                "velocity": 127,
                "duration": 0.08181818181818201,
                "tempo": 120.0
            },
            {
                "start_time": 12.761363636363635,
                "end_time": 12.843181818181817,
                "pitch": 48,
                "velocity": 101,
                "duration": 0.08181818181818201,
                "tempo": 120.0
            },
            {
                "start_time": 12.861363636363636,
                "end_time": 12.943181818181818,
                "pitch": 47,
                "velocity": 101,
                "duration": 0.08181818181818201,
                "tempo": 120.0
            },
            {
                "start_time": 12.961363636363636,
                "end_time": 13.043181818181818,
                "pitch": 48,
                "velocity": 101,
                "duration": 0.08181818181818201,
                "tempo": 120.0
            },
            {
                "start_time": 13.063636363636363,
                "end_time": 13.247727272727271,
                "pitch": 45,
                "velocity": 127,
                "duration": 0.18409090909090864,
                "tempo": 120.0
            },
            {
                "start_time": 13.268181818181818,
                "end_time": 13.352272727272727,
                "pitch": 45,
                "velocity": 101,
                "duration": 0.084090909090909,
                "tempo": 120.0
            },
            {
                "start_time": 13.370454545454544,
                "end_time": 13.454545454545453,
                "pitch": 57,
                "velocity": 101,
                "duration": 0.084090909090909,
                "tempo": 120.0
            },
            {
                "start_time": 13.472727272727273,
                "end_time": 13.652272727272727,
                "pitch": 45,
                "velocity": 127,
                "duration": 0.17954545454545467,
                "tempo": 120.0
            },
            {
                "start_time": 13.668181818181818,
                "end_time": 13.75,
                "pitch": 45,
                "velocity": 101,
                "duration": 0.08181818181818201,
                "tempo": 120.0
            },
            {
                "start_time": 13.76590909090909,
                "end_time": 13.847727272727273,
                "pitch": 57,
                "velocity": 101,
                "duration": 0.08181818181818201,
                "tempo": 120.0
            },
            {
                "start_time": 13.86590909090909,
                "end_time": 14.049999999999999,
                "pitch": 45,
                "velocity": 127,
                "duration": 0.18409090909090864,
                "tempo": 120.0
            },
            {
                "start_time": 14.06590909090909,
                "end_time": 14.149999999999999,
                "pitch": 45,
                "velocity": 101,
                "duration": 0.084090909090909,
                "tempo": 120.0
            },
            {
                "start_time": 14.168181818181818,
                "end_time": 14.25,
                "pitch": 57,
                "velocity": 101,
                "duration": 0.08181818181818201,
                "tempo": 120.0
            },
            {
                "start_time": 14.268181818181818,
                "end_time": 14.452272727272726,
                "pitch": 45,
                "velocity": 127,
                "duration": 0.18409090909090864,
                "tempo": 120.0
            },
            {
                "start_time": 14.470454545454544,
                "end_time": 14.552272727272726,
                "pitch": 45,
                "velocity": 101,
                "duration": 0.08181818181818201,
                "tempo": 120.0
            },
            {
                "start_time": 14.570454545454545,
                "end_time": 14.654545454545454,
                "pitch": 57,
                "velocity": 101,
                "duration": 0.084090909090909,
                "tempo": 120.0
            },
            {
                "start_time": 14.672727272727272,
                "end_time": 14.854545454545454,
                "pitch": 43,
                "velocity": 127,
                "duration": 0.18181818181818166,
                "tempo": 120.0
            },
            {
                "start_time": 14.872727272727271,
                "end_time": 14.954545454545453,
                "pitch": 43,
                "velocity": 101,
                "duration": 0.08181818181818201,
                "tempo": 120.0
            },
            {
                "start_time": 14.972727272727273,
                "end_time": 15.054545454545455,
                "pitch": 55,
                "velocity": 101,
                "duration": 0.08181818181818201,
                "tempo": 120.0
            },
            {
                "start_time": 15.072727272727272,
                "end_time": 15.256818181818181,
                "pitch": 43,
                "velocity": 127,
                "duration": 0.18409090909090864,
                "tempo": 120.0
            },
            {
                "start_time": 15.272727272727272,
                "end_time": 15.35681818181818,
                "pitch": 43,
                "velocity": 101,
                "duration": 0.084090909090909,
                "tempo": 120.0
            },
            {
                "start_time": 15.375,
                "end_time": 15.45681818181818,
                "pitch": 55,
                "velocity": 101,
                "duration": 0.08181818181818024,
                "tempo": 120.0
            },
            {
                "start_time": 15.475,
                "end_time": 15.659090909090908,
                "pitch": 43,
                "velocity": 127,
                "duration": 0.18409090909090864,
                "tempo": 120.0
            },
            {
                "start_time": 15.677272727272726,
                "end_time": 15.759090909090908,
                "pitch": 43,
                "velocity": 101,
                "duration": 0.08181818181818201,
                "tempo": 120.0
            },
            {
                "start_time": 15.777272727272727,
                "end_time": 15.861363636363636,
                "pitch": 55,
                "velocity": 101,
                "duration": 0.084090909090909,
                "tempo": 120.0
            },
            {
                "start_time": 15.879545454545454,
                "end_time": 16.063636363636363,
                "pitch": 43,
                "velocity": 127,
                "duration": 0.18409090909090864,
                "tempo": 120.0
            },
            {
                "start_time": 16.079545454545453,
                "end_time": 16.163636363636364,
                "pitch": 43,
                "velocity": 101,
                "duration": 0.08409090909091077,
                "tempo": 120.0
            },
            {
                "start_time": 16.18181818181818,
                "end_time": 16.263636363636362,
                "pitch": 55,
                "velocity": 101,
                "duration": 0.08181818181818201,
                "tempo": 120.0
            },
            {
                "start_time": 16.28181818181818,
                "end_time": 16.470454545454544,
                "pitch": 47,
                "velocity": 127,
                "duration": 0.1886363636363626,
                "tempo": 120.0
            },
            {
                "start_time": 16.488636363636363,
                "end_time": 16.57272727272727,
                "pitch": 47,
                "velocity": 101,
                "duration": 0.08409090909090722,
                "tempo": 120.0
            },
            {
                "start_time": 16.59090909090909,
                "end_time": 16.675,
                "pitch": 59,
                "velocity": 101,
                "duration": 0.08409090909091077,
                "tempo": 120.0
            },
            {
                "start_time": 16.693181818181817,
                "end_time": 16.87272727272727,
                "pitch": 47,
                "velocity": 127,
                "duration": 0.17954545454545467,
                "tempo": 120.0
            },
            {
                "start_time": 16.888636363636362,
                "end_time": 16.970454545454544,
                "pitch": 47,
                "velocity": 101,
                "duration": 0.08181818181818201,
                "tempo": 120.0
            },
            {
                "start_time": 16.986363636363635,
                "end_time": 17.068181818181817,
                "pitch": 59,
                "velocity": 101,
                "duration": 0.08181818181818201,
                "tempo": 120.0
            },
            {
                "start_time": 17.086363636363636,
                "end_time": 17.270454545454545,
                "pitch": 47,
                "velocity": 127,
                "duration": 0.18409090909090864,
                "tempo": 120.0
            },
            {
                "start_time": 17.286363636363635,
                "end_time": 17.370454545454546,
                "pitch": 47,
                "velocity": 101,
                "duration": 0.08409090909091077,
                "tempo": 120.0
            },
            {
                "start_time": 17.388636363636362,
                "end_time": 17.470454545454544,
                "pitch": 59,
                "velocity": 101,
                "duration": 0.08181818181818201,
                "tempo": 120.0
            },
            {
                "start_time": 17.488636363636363,
                "end_time": 17.672727272727272,
                "pitch": 47,
                "velocity": 127,
                "duration": 0.18409090909090864,
                "tempo": 120.0
            },
            {
                "start_time": 17.688636363636363,
                "end_time": 17.772727272727273,
                "pitch": 47,
                "velocity": 101,
                "duration": 0.08409090909091077,
                "tempo": 120.0
            },
            {
                "start_time": 17.788636363636364,
                "end_time": 17.87272727272727,
                "pitch": 59,
                "velocity": 101,
                "duration": 0.08409090909090722,
                "tempo": 120.0
            },
            {
                "start_time": 17.89090909090909,
                "end_time": 18.077272727272728,
                "pitch": 45,
                "velocity": 127,
                "duration": 0.1863636363636374,
                "tempo": 120.0
            },
            {
                "start_time": 18.095454545454544,
                "end_time": 18.179545454545455,
                "pitch": 45,
                "velocity": 101,
                "duration": 0.08409090909091077,
                "tempo": 120.0
            },
            {
                "start_time": 18.19772727272727,
                "end_time": 18.28181818181818,
                "pitch": 57,
                "velocity": 101,
                "duration": 0.08409090909091077,
                "tempo": 120.0
            },
            {
                "start_time": 18.302272727272726,
                "end_time": 18.48409090909091,
                "pitch": 45,
                "velocity": 127,
                "duration": 0.18181818181818343,
                "tempo": 120.0
            },
            {
                "start_time": 18.5,
                "end_time": 18.584090909090907,
                "pitch": 45,
                "velocity": 101,
                "duration": 0.08409090909090722,
                "tempo": 120.0
            },
            {
                "start_time": 18.599999999999998,
                "end_time": 18.68409090909091,
                "pitch": 57,
                "velocity": 101,
                "duration": 0.08409090909091077,
                "tempo": 120.0
            },
            {
                "start_time": 18.702272727272728,
                "end_time": 18.886363636363637,
                "pitch": 45,
                "velocity": 127,
                "duration": 0.18409090909090864,
                "tempo": 120.0
            },
            {
                "start_time": 18.902272727272727,
                "end_time": 18.986363636363635,
                "pitch": 45,
                "velocity": 101,
                "duration": 0.08409090909090722,
                "tempo": 120.0
            },
            {
                "start_time": 19.004545454545454,
                "end_time": 19.086363636363636,
                "pitch": 57,
                "velocity": 101,
                "duration": 0.08181818181818201,
                "tempo": 120.0
            },
            {
                "start_time": 19.104545454545455,
                "end_time": 19.286363636363635,
                "pitch": 45,
                "velocity": 127,
                "duration": 0.18181818181817988,
                "tempo": 120.0
            },
            {
                "start_time": 19.304545454545455,
                "end_time": 19.388636363636362,
                "pitch": 45,
                "velocity": 101,
                "duration": 0.08409090909090722,
                "tempo": 120.0
            },
            {
                "start_time": 19.404545454545453,
                "end_time": 19.488636363636363,
                "pitch": 57,
                "velocity": 101,
                "duration": 0.08409090909091077,
                "tempo": 120.0
            },
            {
                "start_time": 19.50681818181818,
                "end_time": 19.688636363636363,
                "pitch": 45,
                "velocity": 127,
                "duration": 0.18181818181818343,
                "tempo": 120.0
            },
            {
                "start_time": 19.706818181818182,
                "end_time": 19.79090909090909,
                "pitch": 45,
                "velocity": 101,
                "duration": 0.08409090909090722,
                "tempo": 120.0
            },
            {
                "start_time": 19.80681818181818,
                "end_time": 19.89090909090909,
                "pitch": 57,
                "velocity": 101,
                "duration": 0.08409090909091077,
                "tempo": 120.0
            },
            {
                "start_time": 19.909090909090907,
                "end_time": 20.09090909090909,
                "pitch": 45,
                "velocity": 127,
                "duration": 0.18181818181818343,
                "tempo": 120.0
            },
            {
                "start_time": 20.10909090909091,
                "end_time": 20.19090909090909,
                "pitch": 45,
                "velocity": 101,
                "duration": 0.08181818181818201,
                "tempo": 120.0
            },
            {
                "start_time": 20.209090909090907,
                "end_time": 20.29090909090909,
                "pitch": 57,
                "velocity": 101,
                "duration": 0.08181818181818201,
                "tempo": 120.0
            },
            {
                "start_time": 20.30909090909091,
                "end_time": 20.49090909090909,
                "pitch": 45,
                "velocity": 127,
                "duration": 0.18181818181817988,
                "tempo": 120.0
            },
            {
                "start_time": 20.509090909090908,
                "end_time": 20.59090909090909,
                "pitch": 45,
                "velocity": 101,
                "duration": 0.08181818181818201,
                "tempo": 120.0
            },
            {
                "start_time": 20.60909090909091,
                "end_time": 20.69090909090909,
                "pitch": 57,
                "velocity": 101,
                "duration": 0.08181818181818201,
                "tempo": 120.0
            },
            {
                "start_time": 20.709090909090907,
                "end_time": 20.893181818181816,
                "pitch": 45,
                "velocity": 127,
                "duration": 0.18409090909090864,
                "tempo": 120.0
            },
            {
                "start_time": 20.911363636363635,
                "end_time": 20.993181818181817,
                "pitch": 45,
                "velocity": 101,
                "duration": 0.08181818181818201,
                "tempo": 120.0
            },
            {
                "start_time": 21.011363636363637,
                "end_time": 21.095454545454544,
                "pitch": 57,
                "velocity": 101,
                "duration": 0.08409090909090722,
                "tempo": 120.0
            },
            {
                "start_time": 21.113636363636363,
                "end_time": 21.295454545454543,
                "pitch": 43,
                "velocity": 127,
                "duration": 0.18181818181817988,
                "tempo": 120.0
            },
            {
                "start_time": 21.313636363636363,
                "end_time": 21.395454545454545,
                "pitch": 43,
                "velocity": 101,
                "duration": 0.08181818181818201,
                "tempo": 120.0
            },
            {
                "start_time": 21.413636363636364,
                "end_time": 21.495454545454546,
                "pitch": 55,
                "velocity": 101,
                "duration": 0.08181818181818201,
                "tempo": 120.0
            },
            {
                "start_time": 21.513636363636362,
                "end_time": 21.69772727272727,
                "pitch": 43,
                "velocity": 127,
                "duration": 0.18409090909090864,
                "tempo": 120.0
            },
            {
                "start_time": 21.71363636363636,
                "end_time": 21.797727272727272,
                "pitch": 43,
                "velocity": 101,
                "duration": 0.08409090909091077,
                "tempo": 120.0
            },
            {
                "start_time": 21.81590909090909,
                "end_time": 21.897727272727273,
                "pitch": 55,
                "velocity": 101,
                "duration": 0.08181818181818201,
                "tempo": 120.0
            },
            {
                "start_time": 21.91590909090909,
                "end_time": 22.099999999999998,
                "pitch": 43,
                "velocity": 127,
                "duration": 0.18409090909090864,
                "tempo": 120.0
            },
            {
                "start_time": 22.11590909090909,
                "end_time": 22.2,
                "pitch": 43,
                "velocity": 101,
                "duration": 0.08409090909091077,
                "tempo": 120.0
            },
            {
                "start_time": 22.21590909090909,
                "end_time": 22.299999999999997,
                "pitch": 55,
                "velocity": 101,
                "duration": 0.08409090909090722,
                "tempo": 120.0
            },
            {
                "start_time": 22.318181818181817,
                "end_time": 22.5,
                "pitch": 43,
                "velocity": 127,
                "duration": 0.18181818181818343,
                "tempo": 120.0
            },
            {
                "start_time": 22.51590909090909,
                "end_time": 22.599999999999998,
                "pitch": 43,
                "velocity": 101,
                "duration": 0.08409090909090722,
                "tempo": 120.0
            },
            {
                "start_time": 22.61590909090909,
                "end_time": 22.7,
                "pitch": 55,
                "velocity": 101,
                "duration": 0.08409090909091077,
                "tempo": 120.0
            },
            {
                "start_time": 22.71818181818182,
                "end_time": 22.902272727272727,
                "pitch": 47,
                "velocity": 127,
                "duration": 0.18409090909090864,
                "tempo": 120.0
            },
            {
                "start_time": 22.920454545454543,
                "end_time": 23.002272727272725,
                "pitch": 47,
                "velocity": 101,
                "duration": 0.08181818181818201,
                "tempo": 120.0
            },
            {
                "start_time": 23.020454545454545,
                "end_time": 23.102272727272727,
                "pitch": 59,
                "velocity": 101,
                "duration": 0.08181818181818201,
                "tempo": 120.0
            },
            {
                "start_time": 23.12272727272727,
                "end_time": 23.302272727272726,
                "pitch": 47,
                "velocity": 127,
                "duration": 0.17954545454545467,
                "tempo": 120.0
            },
            {
                "start_time": 23.320454545454545,
                "end_time": 23.404545454545453,
                "pitch": 47,
                "velocity": 101,
                "duration": 0.08409090909090722,
                "tempo": 120.0
            },
            {
                "start_time": 23.420454545454543,
                "end_time": 23.504545454545454,
                "pitch": 59,
                "velocity": 101,
                "duration": 0.08409090909091077,
                "tempo": 120.0
            },
            {
                "start_time": 23.520454545454545,
                "end_time": 23.704545454545453,
                "pitch": 47,
                "velocity": 127,
                "duration": 0.18409090909090864,
                "tempo": 120.0
            },
            {
                "start_time": 23.722727272727273,
                "end_time": 23.80681818181818,
                "pitch": 47,
                "velocity": 101,
                "duration": 0.08409090909090722,
                "tempo": 120.0
            },
            {
                "start_time": 23.82272727272727,
                "end_time": 23.90681818181818,
                "pitch": 59,
                "velocity": 101,
                "duration": 0.08409090909091077,
                "tempo": 120.0
            },
            {
                "start_time": 23.924999999999997,
                "end_time": 24.10681818181818,
                "pitch": 47,
                "velocity": 127,
                "duration": 0.18181818181818343,
                "tempo": 120.0
            },
            {
                "start_time": 24.125,
                "end_time": 24.206818181818182,
                "pitch": 47,
                "velocity": 101,
                "duration": 0.08181818181818201,
                "tempo": 120.0
            },
            {
                "start_time": 24.224999999999998,
                "end_time": 24.30681818181818,
                "pitch": 59,
                "velocity": 101,
                "duration": 0.08181818181818201,
                "tempo": 120.0
            },
            {
                "start_time": 24.325,
                "end_time": 24.511363636363637,
                "pitch": 45,
                "velocity": 127,
                "duration": 0.1863636363636374,
                "tempo": 120.0
            },
            {
                "start_time": 24.53181818181818,
                "end_time": 24.61590909090909,
                "pitch": 45,
                "velocity": 101,
                "duration": 0.08409090909090722,
                "tempo": 120.0
            },
            {
                "start_time": 24.634090909090908,
                "end_time": 24.71818181818182,
                "pitch": 57,
                "velocity": 101,
                "duration": 0.08409090909091077,
                "tempo": 120.0
            },
            {
                "start_time": 24.736363636363635,
                "end_time": 24.918181818181818,
                "pitch": 45,
                "velocity": 127,
                "duration": 0.18181818181818343,
                "tempo": 120.0
            },
            {
                "start_time": 24.936363636363634,
                "end_time": 25.018181818181816,
                "pitch": 45,
                "velocity": 101,
                "duration": 0.08181818181818201,
                "tempo": 120.0
            },
            {
                "start_time": 25.036363636363635,
                "end_time": 25.118181818181817,
                "pitch": 57,
                "velocity": 101,
                "duration": 0.08181818181818201,
                "tempo": 120.0
            },
            {
                "start_time": 25.136363636363637,
                "end_time": 25.31590909090909,
                "pitch": 45,
                "velocity": 127,
                "duration": 0.17954545454545467,
                "tempo": 120.0
            },
            {
                "start_time": 25.331818181818182,
                "end_time": 25.413636363636364,
                "pitch": 45,
                "velocity": 101,
                "duration": 0.08181818181818201,
                "tempo": 120.0
            },
            {
                "start_time": 25.43181818181818,
                "end_time": 25.511363636363637,
                "pitch": 57,
                "velocity": 101,
                "duration": 0.0795454545454568,
                "tempo": 120.0
            },
            {
                "start_time": 25.529545454545453,
                "end_time": 25.71363636363636,
                "pitch": 45,
                "velocity": 127,
                "duration": 0.18409090909090864,
                "tempo": 120.0
            },
            {
                "start_time": 25.73181818181818,
                "end_time": 25.813636363636363,
                "pitch": 45,
                "velocity": 101,
                "duration": 0.08181818181818201,
                "tempo": 120.0
            },
            {
                "start_time": 25.831818181818182,
                "end_time": 25.91590909090909,
                "pitch": 57,
                "velocity": 101,
                "duration": 0.08409090909090722,
                "tempo": 120.0
            },
            {
                "start_time": 25.93409090909091,
                "end_time": 26.018181818181816,
                "pitch": 45,
                "velocity": 127,
                "duration": 0.08409090909090722,
                "tempo": 120.0
            },
            {
                "start_time": 26.036363636363635,
                "end_time": 26.120454545454542,
                "pitch": 45,
                "velocity": 101,
                "duration": 0.08409090909090722,
                "tempo": 120.0
            },
            {
                "start_time": 26.138636363636362,
                "end_time": 26.222727272727273,
                "pitch": 57,
                "velocity": 101,
                "duration": 0.08409090909091077,
                "tempo": 120.0
            },
            {
                "start_time": 26.24090909090909,
                "end_time": 26.325,
                "pitch": 45,
                "velocity": 101,
                "duration": 0.08409090909091077,
                "tempo": 120.0
            },
            {
                "start_time": 26.345454545454544,
                "end_time": 26.427272727272726,
                "pitch": 45,
                "velocity": 127,
                "duration": 0.08181818181818201,
                "tempo": 120.0
            },
            {
                "start_time": 26.445454545454545,
                "end_time": 26.527272727272727,
                "pitch": 45,
                "velocity": 101,
                "duration": 0.08181818181818201,
                "tempo": 120.0
            },
            {
                "start_time": 26.545454545454543,
                "end_time": 26.629545454545454,
                "pitch": 57,
                "velocity": 101,
                "duration": 0.08409090909091077,
                "tempo": 120.0
            },
            {
                "start_time": 26.645454545454545,
                "end_time": 26.729545454545452,
                "pitch": 45,
                "velocity": 101,
                "duration": 0.08409090909090722,
                "tempo": 120.0
            },
            {
                "start_time": 26.74772727272727,
                "end_time": 26.829545454545453,
                "pitch": 45,
                "velocity": 127,
                "duration": 0.08181818181818201,
                "tempo": 120.0
            },
            {
                "start_time": 26.847727272727273,
                "end_time": 26.929545454545455,
                "pitch": 45,
                "velocity": 101,
                "duration": 0.08181818181818201,
                "tempo": 120.0
            },
            {
                "start_time": 26.94772727272727,
                "end_time": 27.029545454545453,
                "pitch": 57,
                "velocity": 101,
                "duration": 0.08181818181818201,
                "tempo": 120.0
            },
            {
                "start_time": 27.047727272727272,
                "end_time": 27.129545454545454,
                "pitch": 45,
                "velocity": 101,
                "duration": 0.08181818181818201,
                "tempo": 120.0
            },
            {
                "start_time": 27.14772727272727,
                "end_time": 27.23181818181818,
                "pitch": 45,
                "velocity": 127,
                "duration": 0.08409090909091077,
                "tempo": 120.0
            },
            {
                "start_time": 27.24772727272727,
                "end_time": 27.331818181818182,
                "pitch": 45,
                "velocity": 101,
                "duration": 0.08409090909091077,
                "tempo": 120.0
            },
            {
                "start_time": 27.349999999999998,
                "end_time": 27.43181818181818,
                "pitch": 57,
                "velocity": 101,
                "duration": 0.08181818181818201,
                "tempo": 120.0
            },
            {
                "start_time": 27.45,
                "end_time": 27.534090909090907,
                "pitch": 45,
                "velocity": 101,
                "duration": 0.08409090909090722,
                "tempo": 120.0
            },
            {
                "start_time": 27.552272727272726,
                "end_time": 27.634090909090908,
                "pitch": 43,
                "velocity": 127,
                "duration": 0.08181818181818201,
                "tempo": 120.0
            },
            {
                "start_time": 27.65,
                "end_time": 27.73409090909091,
                "pitch": 43,
                "velocity": 101,
                "duration": 0.08409090909091077,
                "tempo": 120.0
            },
            {
                "start_time": 27.752272727272725,
                "end_time": 27.834090909090907,
                "pitch": 55,
                "velocity": 101,
                "duration": 0.08181818181818201,
                "tempo": 120.0
            },
            {
                "start_time": 27.852272727272727,
                "end_time": 27.93409090909091,
                "pitch": 43,
                "velocity": 101,
                "duration": 0.08181818181818201,
                "tempo": 120.0
            },
            {
                "start_time": 27.952272727272724,
                "end_time": 28.034090909090907,
                "pitch": 43,
                "velocity": 127,
                "duration": 0.08181818181818201,
                "tempo": 120.0
            },
            {
                "start_time": 28.052272727272726,
                "end_time": 28.134090909090908,
                "pitch": 43,
                "velocity": 101,
                "duration": 0.08181818181818201,
                "tempo": 120.0
            },
            {
                "start_time": 28.152272727272727,
                "end_time": 28.23409090909091,
                "pitch": 55,
                "velocity": 101,
                "duration": 0.08181818181818201,
                "tempo": 120.0
            },
            {
                "start_time": 28.252272727272725,
                "end_time": 28.334090909090907,
                "pitch": 43,
                "velocity": 101,
                "duration": 0.08181818181818201,
                "tempo": 120.0
            },
            {
                "start_time": 28.352272727272727,
                "end_time": 28.436363636363634,
                "pitch": 43,
                "velocity": 127,
                "duration": 0.08409090909090722,
                "tempo": 120.0
            },
            {
                "start_time": 28.452272727272724,
                "end_time": 28.536363636363635,
                "pitch": 43,
                "velocity": 101,
                "duration": 0.08409090909091077,
                "tempo": 120.0
            },
            {
                "start_time": 28.554545454545455,
                "end_time": 28.636363636363637,
                "pitch": 55,
                "velocity": 101,
                "duration": 0.08181818181818201,
                "tempo": 120.0
            },
            {
                "start_time": 28.654545454545453,
                "end_time": 28.738636363636363,
                "pitch": 43,
                "velocity": 101,
                "duration": 0.08409090909091077,
                "tempo": 120.0
            },
            {
                "start_time": 28.75681818181818,
                "end_time": 28.83863636363636,
                "pitch": 43,
                "velocity": 127,
                "duration": 0.08181818181818201,
                "tempo": 120.0
            },
            {
                "start_time": 28.854545454545452,
                "end_time": 28.938636363636363,
                "pitch": 43,
                "velocity": 101,
                "duration": 0.08409090909091077,
                "tempo": 120.0
            },
            {
                "start_time": 28.956818181818182,
                "end_time": 29.03863636363636,
                "pitch": 55,
                "velocity": 101,
                "duration": 0.08181818181817846,
                "tempo": 120.0
            },
            {
                "start_time": 29.054545454545455,
                "end_time": 29.138636363636362,
                "pitch": 43,
                "velocity": 101,
                "duration": 0.08409090909090722,
                "tempo": 120.0
            },
            {
                "start_time": 29.15681818181818,
                "end_time": 29.238636363636363,
                "pitch": 47,
                "velocity": 127,
                "duration": 0.08181818181818201,
                "tempo": 120.0
            },
            {
                "start_time": 29.25681818181818,
                "end_time": 29.34090909090909,
                "pitch": 47,
                "velocity": 101,
                "duration": 0.08409090909091077,
                "tempo": 120.0
            },
            {
                "start_time": 29.35909090909091,
                "end_time": 29.440909090909088,
                "pitch": 59,
                "velocity": 101,
                "duration": 0.08181818181817846,
                "tempo": 120.0
            },
            {
                "start_time": 29.459090909090907,
                "end_time": 29.54090909090909,
                "pitch": 47,
                "velocity": 101,
                "duration": 0.08181818181818201,
                "tempo": 120.0
            },
            {
                "start_time": 29.55909090909091,
                "end_time": 29.64090909090909,
                "pitch": 47,
                "velocity": 127,
                "duration": 0.08181818181818201,
                "tempo": 120.0
            },
            {
                "start_time": 29.659090909090907,
                "end_time": 29.74090909090909,
                "pitch": 47,
                "velocity": 101,
                "duration": 0.08181818181818201,
                "tempo": 120.0
            },
            {
                "start_time": 29.759090909090908,
                "end_time": 29.84090909090909,
                "pitch": 59,
                "velocity": 101,
                "duration": 0.08181818181818201,
                "tempo": 120.0
            },
            {
                "start_time": 29.85909090909091,
                "end_time": 29.943181818181817,
                "pitch": 47,
                "velocity": 101,
                "duration": 0.08409090909090722,
                "tempo": 120.0
            },
            {
                "start_time": 29.959090909090907,
                "end_time": 30.043181818181818,
                "pitch": 47,
                "velocity": 127,
                "duration": 0.08409090909091077,
                "tempo": 120.0
            },
            {
                "start_time": 30.05909090909091,
                "end_time": 30.143181818181816,
                "pitch": 47,
                "velocity": 101,
                "duration": 0.08409090909090722,
                "tempo": 120.0
            },
            {
                "start_time": 30.161363636363635,
                "end_time": 30.243181818181817,
                "pitch": 59,
                "velocity": 101,
                "duration": 0.08181818181818201,
                "tempo": 120.0
            },
            {
                "start_time": 30.259090909090908,
                "end_time": 30.343181818181815,
                "pitch": 47,
                "velocity": 101,
                "duration": 0.08409090909090722,
                "tempo": 120.0
            },
            {
                "start_time": 30.361363636363635,
                "end_time": 30.443181818181817,
                "pitch": 47,
                "velocity": 127,
                "duration": 0.08181818181818201,
                "tempo": 120.0
            },
            {
                "start_time": 30.461363636363636,
                "end_time": 30.543181818181818,
                "pitch": 47,
                "velocity": 101,
                "duration": 0.08181818181818201,
                "tempo": 120.0
            },
            {
                "start_time": 30.561363636363634,
                "end_time": 30.645454545454545,
                "pitch": 59,
                "velocity": 101,
                "duration": 0.08409090909091077,
                "tempo": 120.0
            },
            {
                "start_time": 30.661363636363635,
                "end_time": 30.745454545454542,
                "pitch": 47,
                "velocity": 101,
                "duration": 0.08409090909090722,
                "tempo": 120.0
            },
            {
                "start_time": 30.763636363636362,
                "end_time": 30.847727272727273,
                "pitch": 45,
                "velocity": 127,
                "duration": 0.08409090909091077,
                "tempo": 120.0
            },
            {
                "start_time": 30.86590909090909,
                "end_time": 30.95,
                "pitch": 45,
                "velocity": 101,
                "duration": 0.08409090909091077,
                "tempo": 120.0
            },
            {
                "start_time": 30.970454545454544,
                "end_time": 31.054545454545455,
                "pitch": 57,
                "velocity": 101,
                "duration": 0.08409090909091077,
                "tempo": 120.0
            },
            {
                "start_time": 31.070454545454545,
                "end_time": 31.15681818181818,
                "pitch": 45,
                "velocity": 101,
                "duration": 0.08636363636363598,
                "tempo": 120.0
            },
            {
                "start_time": 31.174999999999997,
                "end_time": 31.254545454545454,
                "pitch": 45,
                "velocity": 127,
                "duration": 0.0795454545454568,
                "tempo": 120.0
            },
            {
                "start_time": 31.27272727272727,
                "end_time": 31.354545454545452,
                "pitch": 45,
                "velocity": 101,
                "duration": 0.08181818181818201,
                "tempo": 120.0
            },
            {
                "start_time": 31.370454545454542,
                "end_time": 31.452272727272724,
                "pitch": 57,
                "velocity": 101,
                "duration": 0.08181818181818201,
                "tempo": 120.0
            },
            {
                "start_time": 31.468181818181815,
                "end_time": 31.549999999999997,
                "pitch": 45,
                "velocity": 101,
                "duration": 0.08181818181818201,
                "tempo": 120.0
            },
            {
                "start_time": 31.568181818181817,
                "end_time": 31.65,
                "pitch": 45,
                "velocity": 127,
                "duration": 0.08181818181818201,
                "tempo": 120.0
            },
            {
                "start_time": 31.668181818181818,
                "end_time": 31.75,
                "pitch": 45,
                "velocity": 101,
                "duration": 0.08181818181818201,
                "tempo": 120.0
            },
            {
                "start_time": 31.768181818181816,
                "end_time": 31.849999999999998,
                "pitch": 57,
                "velocity": 101,
                "duration": 0.08181818181818201,
                "tempo": 120.0
            },
            {
                "start_time": 31.868181818181817,
                "end_time": 31.95,
                "pitch": 45,
                "velocity": 101,
                "duration": 0.08181818181818201,
                "tempo": 120.0
            },
            {
                "start_time": 31.968181818181815,
                "end_time": 32.05,
                "pitch": 45,
                "velocity": 127,
                "duration": 0.08181818181818201,
                "tempo": 120.0
            },
            {
                "start_time": 32.06818181818182,
                "end_time": 32.15,
                "pitch": 45,
                "velocity": 101,
                "duration": 0.08181818181817846,
                "tempo": 120.0
            },
            {
                "start_time": 32.168181818181814,
                "end_time": 32.25,
                "pitch": 57,
                "velocity": 101,
                "duration": 0.08181818181818556,
                "tempo": 120.0
            },
            {
                "start_time": 32.268181818181816,
                "end_time": 32.35,
                "pitch": 45,
                "velocity": 101,
                "duration": 0.08181818181818556,
                "tempo": 120.0
            },
            {
                "start_time": 32.37045454545454,
                "end_time": 32.45227272727273,
                "pitch": 45,
                "velocity": 127,
                "duration": 0.08181818181818556,
                "tempo": 120.0
            },
            {
                "start_time": 32.470454545454544,
                "end_time": 32.55681818181818,
                "pitch": 45,
                "velocity": 101,
                "duration": 0.08636363636363598,
                "tempo": 120.0
            },
            {
                "start_time": 32.574999999999996,
                "end_time": 32.65909090909091,
                "pitch": 57,
                "velocity": 101,
                "duration": 0.08409090909091077,
                "tempo": 120.0
            },
            {
                "start_time": 32.67727272727272,
                "end_time": 32.76136363636363,
                "pitch": 45,
                "velocity": 101,
                "duration": 0.08409090909091077,
                "tempo": 120.0
            },
            {
                "start_time": 32.779545454545456,
                "end_time": 32.861363636363635,
                "pitch": 45,
                "velocity": 127,
                "duration": 0.08181818181817846,
                "tempo": 120.0
            },
            {
                "start_time": 32.87954545454545,
                "end_time": 32.96363636363636,
                "pitch": 45,
                "velocity": 101,
                "duration": 0.08409090909091077,
                "tempo": 120.0
            },
            {
                "start_time": 32.97954545454545,
                "end_time": 33.06363636363636,
                "pitch": 57,
                "velocity": 101,
                "duration": 0.08409090909091077,
                "tempo": 120.0
            },
            {
                "start_time": 33.07954545454545,
                "end_time": 33.163636363636364,
                "pitch": 45,
                "velocity": 101,
                "duration": 0.08409090909091077,
                "tempo": 120.0
            },
            {
                "start_time": 33.179545454545455,
                "end_time": 33.263636363636365,
                "pitch": 45,
                "velocity": 127,
                "duration": 0.08409090909091077,
                "tempo": 120.0
            },
            {
                "start_time": 33.279545454545456,
                "end_time": 33.36363636363636,
                "pitch": 45,
                "velocity": 101,
                "duration": 0.08409090909090366,
                "tempo": 120.0
            },
            {
                "start_time": 33.38181818181818,
                "end_time": 33.46363636363636,
                "pitch": 57,
                "velocity": 101,
                "duration": 0.08181818181817846,
                "tempo": 120.0
            },
            {
                "start_time": 33.47954545454545,
                "end_time": 33.56363636363636,
                "pitch": 45,
                "velocity": 101,
                "duration": 0.08409090909091077,
                "tempo": 120.0
            },
            {
                "start_time": 33.58181818181818,
                "end_time": 33.663636363636364,
                "pitch": 45,
                "velocity": 127,
                "duration": 0.08181818181818556,
                "tempo": 120.0
            },
            {
                "start_time": 33.68181818181818,
                "end_time": 33.763636363636365,
                "pitch": 45,
                "velocity": 101,
                "duration": 0.08181818181818556,
                "tempo": 120.0
            },
            {
                "start_time": 33.78181818181818,
                "end_time": 33.86363636363636,
                "pitch": 57,
                "velocity": 101,
                "duration": 0.08181818181817846,
                "tempo": 120.0
            },
            {
                "start_time": 33.88181818181818,
                "end_time": 33.96363636363636,
                "pitch": 45,
                "velocity": 101,
                "duration": 0.08181818181817846,
                "tempo": 120.0
            },
            {
                "start_time": 33.98181818181818,
                "end_time": 34.06363636363636,
                "pitch": 43,
                "velocity": 127,
                "duration": 0.08181818181818556,
                "tempo": 120.0
            },
            {
                "start_time": 34.08181818181818,
                "end_time": 34.16590909090909,
                "pitch": 43,
                "velocity": 101,
                "duration": 0.08409090909091077,
                "tempo": 120.0
            },
            {
                "start_time": 34.184090909090905,
                "end_time": 34.26590909090909,
                "pitch": 55,
                "velocity": 101,
                "duration": 0.08181818181818556,
                "tempo": 120.0
            },
            {
                "start_time": 34.28409090909091,
                "end_time": 34.36590909090909,
                "pitch": 43,
                "velocity": 101,
                "duration": 0.08181818181818556,
                "tempo": 120.0
            },
            {
                "start_time": 34.38636363636363,
                "end_time": 34.46818181818182,
                "pitch": 43,
                "velocity": 127,
                "duration": 0.08181818181818556,
                "tempo": 120.0
            },
            {
                "start_time": 34.48409090909091,
                "end_time": 34.56818181818181,
                "pitch": 43,
                "velocity": 101,
                "duration": 0.08409090909090366,
                "tempo": 120.0
            },
            {
                "start_time": 34.58409090909091,
                "end_time": 34.668181818181814,
                "pitch": 55,
                "velocity": 101,
                "duration": 0.08409090909090366,
                "tempo": 120.0
            },
            {
                "start_time": 34.684090909090905,
                "end_time": 34.768181818181816,
                "pitch": 43,
                "velocity": 101,
                "duration": 0.08409090909091077,
                "tempo": 120.0
            },
            {
                "start_time": 34.78409090909091,
                "end_time": 34.86818181818182,
                "pitch": 43,
                "velocity": 127,
                "duration": 0.08409090909091077,
                "tempo": 120.0
            },
            {
                "start_time": 34.88409090909091,
                "end_time": 34.96818181818182,
                "pitch": 43,
                "velocity": 101,
                "duration": 0.08409090909091077,
                "tempo": 120.0
            },
            {
                "start_time": 34.986363636363635,
                "end_time": 35.06818181818181,
                "pitch": 55,
                "velocity": 101,
                "duration": 0.08181818181817846,
                "tempo": 120.0
            },
            {
                "start_time": 35.08409090909091,
                "end_time": 35.168181818181814,
                "pitch": 43,
                "velocity": 101,
                "duration": 0.08409090909090366,
                "tempo": 120.0
            },
            {
                "start_time": 35.18636363636364,
                "end_time": 35.268181818181816,
                "pitch": 43,
                "velocity": 127,
                "duration": 0.08181818181817846,
                "tempo": 120.0
            },
            {
                "start_time": 35.28636363636363,
                "end_time": 35.36818181818182,
                "pitch": 43,
                "velocity": 101,
                "duration": 0.08181818181818556,
                "tempo": 120.0
            },
            {
                "start_time": 35.38636363636363,
                "end_time": 35.46818181818182,
                "pitch": 55,
                "velocity": 101,
                "duration": 0.08181818181818556,
                "tempo": 120.0
            },
            {
                "start_time": 35.486363636363635,
                "end_time": 35.56818181818181,
                "pitch": 43,
                "velocity": 101,
                "duration": 0.08181818181817846,
                "tempo": 120.0
            },
            {
                "start_time": 35.586363636363636,
                "end_time": 35.668181818181814,
                "pitch": 47,
                "velocity": 127,
                "duration": 0.08181818181817846,
                "tempo": 120.0
            },
            {
                "start_time": 35.68636363636364,
                "end_time": 35.768181818181816,
                "pitch": 47,
                "velocity": 101,
                "duration": 0.08181818181817846,
                "tempo": 120.0
            },
            {
                "start_time": 35.78636363636363,
                "end_time": 35.86818181818182,
                "pitch": 59,
                "velocity": 101,
                "duration": 0.08181818181818556,
                "tempo": 120.0
            },
            {
                "start_time": 35.88636363636363,
                "end_time": 35.96818181818182,
                "pitch": 47,
                "velocity": 101,
                "duration": 0.08181818181818556,
                "tempo": 120.0
            },
            {
                "start_time": 35.98863636363636,
                "end_time": 36.070454545454545,
                "pitch": 47,
                "velocity": 127,
                "duration": 0.08181818181818556,
                "tempo": 120.0
            },
            {
                "start_time": 36.086363636363636,
                "end_time": 36.17045454545455,
                "pitch": 47,
                "velocity": 101,
                "duration": 0.08409090909091077,
                "tempo": 120.0
            },
            {
                "start_time": 36.18863636363636,
                "end_time": 36.27045454545454,
                "pitch": 59,
                "velocity": 101,
                "duration": 0.08181818181817846,
                "tempo": 120.0
            },
            {
                "start_time": 36.288636363636364,
                "end_time": 36.37272727272727,
                "pitch": 47,
                "velocity": 101,
                "duration": 0.08409090909090366,
                "tempo": 120.0
            },
            {
                "start_time": 36.39090909090909,
                "end_time": 36.47272727272727,
                "pitch": 47,
                "velocity": 127,
                "duration": 0.08181818181817846,
                "tempo": 120.0
            },
            {
                "start_time": 36.48863636363636,
                "end_time": 36.57272727272727,
                "pitch": 47,
                "velocity": 101,
                "duration": 0.08409090909091077,
                "tempo": 120.0
            },
            {
                "start_time": 36.590909090909086,
                "end_time": 36.67272727272727,
                "pitch": 59,
                "velocity": 101,
                "duration": 0.08181818181818556,
                "tempo": 120.0
            },
            {
                "start_time": 36.69090909090909,
                "end_time": 36.77272727272727,
                "pitch": 47,
                "velocity": 101,
                "duration": 0.08181818181818556,
                "tempo": 120.0
            },
            {
                "start_time": 36.79090909090909,
                "end_time": 36.87272727272727,
                "pitch": 47,
                "velocity": 127,
                "duration": 0.08181818181817846,
                "tempo": 120.0
            },
            {
                "start_time": 36.89090909090909,
                "end_time": 36.97272727272727,
                "pitch": 47,
                "velocity": 101,
                "duration": 0.08181818181817846,
                "tempo": 120.0
            },
            {
                "start_time": 36.99090909090909,
                "end_time": 37.07272727272727,
                "pitch": 59,
                "velocity": 101,
                "duration": 0.08181818181817846,
                "tempo": 120.0
            },
            {
                "start_time": 37.090909090909086,
                "end_time": 37.17272727272727,
                "pitch": 47,
                "velocity": 101,
                "duration": 0.08181818181818556,
                "tempo": 120.0
            },
            {
                "start_time": 37.19090909090909,
                "end_time": 37.27272727272727,
                "pitch": 45,
                "velocity": 127,
                "duration": 0.08181818181818556,
                "tempo": 120.0
            },
            {
                "start_time": 37.29090909090909,
                "end_time": 37.37272727272727,
                "pitch": 45,
                "velocity": 101,
                "duration": 0.08181818181817846,
                "tempo": 120.0
            },
            {
                "start_time": 37.39090909090909,
                "end_time": 37.47272727272727,
                "pitch": 57,
                "velocity": 101,
                "duration": 0.08181818181817846,
                "tempo": 120.0
            },
            {
                "start_time": 37.49090909090909,
                "end_time": 37.57272727272727,
                "pitch": 45,
                "velocity": 101,
                "duration": 0.08181818181817846,
                "tempo": 120.0
            },
            {
                "start_time": 37.59318181818182,
                "end_time": 37.675,
                "pitch": 45,
                "velocity": 127,
                "duration": 0.08181818181817846,
                "tempo": 120.0
            },
            {
                "start_time": 37.69090909090909,
                "end_time": 37.775,
                "pitch": 45,
                "velocity": 101,
                "duration": 0.08409090909091077,
                "tempo": 120.0
            },
            {
                "start_time": 37.79090909090909,
                "end_time": 37.875,
                "pitch": 57,
                "velocity": 101,
                "duration": 0.08409090909091077,
                "tempo": 120.0
            },
            {
                "start_time": 37.89090909090909,
                "end_time": 37.975,
                "pitch": 45,
                "velocity": 101,
                "duration": 0.08409090909091077,
                "tempo": 120.0
            },
            {
                "start_time": 37.99090909090909,
                "end_time": 38.074999999999996,
                "pitch": 45,
                "velocity": 127,
                "duration": 0.08409090909090366,
                "tempo": 120.0
            },
            {
                "start_time": 38.09318181818182,
                "end_time": 38.175,
                "pitch": 45,
                "velocity": 101,
                "duration": 0.08181818181817846,
                "tempo": 120.0
            },
            {
                "start_time": 38.19318181818181,
                "end_time": 38.277272727272724,
                "pitch": 57,
                "velocity": 101,
                "duration": 0.08409090909091077,
                "tempo": 120.0
            },
            {
                "start_time": 38.293181818181814,
                "end_time": 38.377272727272725,
                "pitch": 45,
                "velocity": 101,
                "duration": 0.08409090909091077,
                "tempo": 120.0
            },
            {
                "start_time": 38.39545454545454,
                "end_time": 38.47727272727273,
                "pitch": 45,
                "velocity": 127,
                "duration": 0.08181818181818556,
                "tempo": 120.0
            },
            {
                "start_time": 38.49545454545454,
                "end_time": 38.57727272727273,
                "pitch": 45,
                "velocity": 101,
                "duration": 0.08181818181818556,
                "tempo": 120.0
            },
            {
                "start_time": 38.595454545454544,
                "end_time": 38.67727272727272,
                "pitch": 57,
                "velocity": 101,
                "duration": 0.08181818181817846,
                "tempo": 120.0
            },
            {
                "start_time": 38.695454545454545,
                "end_time": 38.777272727272724,
                "pitch": 45,
                "velocity": 101,
                "duration": 0.08181818181817846,
                "tempo": 120.0
            },
            {
                "start_time": 38.8,
                "end_time": 38.87954545454545,
                "pitch": 45,
                "velocity": 127,
                "duration": 0.07954545454545325,
                "tempo": 120.0
            },
            {
                "start_time": 38.89772727272727,
                "end_time": 38.98409090909091,
                "pitch": 48,
                "velocity": 101,
                "duration": 0.08636363636363598,
                "tempo": 120.0
            },
            {
                "start_time": 39.002272727272725,
                "end_time": 39.086363636363636,
                "pitch": 47,
                "velocity": 101,
                "duration": 0.08409090909091077,
                "tempo": 120.0
            },
            {
                "start_time": 39.10454545454545,
                "end_time": 39.18863636363636,
                "pitch": 48,
                "velocity": 101,
                "duration": 0.08409090909091077,
                "tempo": 120.0
            },
            {
                "start_time": 39.209090909090904,
                "end_time": 39.288636363636364,
                "pitch": 45,
                "velocity": 127,
                "duration": 0.07954545454546036,
                "tempo": 120.0
            },
            {
                "start_time": 39.304545454545455,
                "end_time": 39.38636363636363,
                "pitch": 48,
                "velocity": 101,
                "duration": 0.08181818181817846,
                "tempo": 120.0
            },
            {
                "start_time": 39.402272727272724,
                "end_time": 39.48409090909091,
                "pitch": 47,
                "velocity": 101,
                "duration": 0.08181818181818556,
                "tempo": 120.0
            },
            {
                "start_time": 39.5,
                "end_time": 39.58181818181818,
                "pitch": 48,
                "velocity": 101,
                "duration": 0.08181818181817846,
                "tempo": 120.0
            },
            {
                "start_time": 39.6,
                "end_time": 39.68181818181818,
                "pitch": 45,
                "velocity": 127,
                "duration": 0.08181818181817846,
                "tempo": 120.0
            },
            {
                "start_time": 39.699999999999996,
                "end_time": 39.78181818181818,
                "pitch": 48,
                "velocity": 101,
                "duration": 0.08181818181818556,
                "tempo": 120.0
            },
            {
                "start_time": 39.8,
                "end_time": 39.88181818181818,
                "pitch": 47,
                "velocity": 101,
                "duration": 0.08181818181818556,
                "tempo": 120.0
            },
            {
                "start_time": 39.9,
                "end_time": 39.98181818181818,
                "pitch": 48,
                "velocity": 101,
                "duration": 0.08181818181817846,
                "tempo": 120.0
            },
            {
                "start_time": 40.002272727272725,
                "end_time": 40.084090909090904,
                "pitch": 45,
                "velocity": 127,
                "duration": 0.08181818181817846,
                "tempo": 120.0
            },
            {
                "start_time": 40.1,
                "end_time": 40.184090909090905,
                "pitch": 48,
                "velocity": 101,
                "duration": 0.08409090909090366,
                "tempo": 120.0
            },
            {
                "start_time": 40.20227272727273,
                "end_time": 40.28409090909091,
                "pitch": 47,
                "velocity": 101,
                "duration": 0.08181818181817846,
                "tempo": 120.0
            },
            {
                "start_time": 40.30227272727272,
                "end_time": 40.38636363636363,
                "pitch": 48,
                "velocity": 101,
                "duration": 0.08409090909091077,
                "tempo": 120.0
            },
            {
                "start_time": 40.404545454545456,
                "end_time": 40.48863636363636,
                "pitch": 43,
                "velocity": 127,
                "duration": 0.08409090909090366,
                "tempo": 120.0
            },
            {
                "start_time": 40.50681818181818,
                "end_time": 40.590909090909086,
                "pitch": 47,
                "velocity": 101,
                "duration": 0.08409090909090366,
                "tempo": 120.0
            },
            {
                "start_time": 40.60909090909091,
                "end_time": 40.69318181818181,
                "pitch": 45,
                "velocity": 101,
                "duration": 0.08409090909090366,
                "tempo": 120.0
            },
            {
                "start_time": 40.711363636363636,
                "end_time": 40.79545454545455,
                "pitch": 47,
                "velocity": 101,
                "duration": 0.08409090909091077,
                "tempo": 120.0
            },
            {
                "start_time": 40.81590909090909,
                "end_time": 40.89545454545454,
                "pitch": 43,
                "velocity": 127,
                "duration": 0.07954545454545325,
                "tempo": 120.0
            },
            {
                "start_time": 40.91136363636363,
                "end_time": 40.99318181818182,
                "pitch": 47,
                "velocity": 101,
                "duration": 0.08181818181818556,
                "tempo": 120.0
            },
            {
                "start_time": 41.01136363636363,
                "end_time": 41.090909090909086,
                "pitch": 45,
                "velocity": 101,
                "duration": 0.07954545454545325,
                "tempo": 120.0
            },
            {
                "start_time": 41.10909090909091,
                "end_time": 41.19090909090909,
                "pitch": 47,
                "velocity": 101,
                "duration": 0.08181818181817846,
                "tempo": 120.0
            },
            {
                "start_time": 41.20681818181818,
                "end_time": 41.29090909090909,
                "pitch": 43,
                "velocity": 127,
                "duration": 0.08409090909091077,
                "tempo": 120.0
            },
            {
                "start_time": 41.309090909090905,
                "end_time": 41.39545454545454,
                "pitch": 47,
                "velocity": 101,
                "duration": 0.08636363636363598,
                "tempo": 120.0
            },
            {
                "start_time": 41.413636363636364,
                "end_time": 41.49772727272727,
                "pitch": 45,
                "velocity": 101,
                "duration": 0.08409090909090366,
                "tempo": 120.0
            },
            {
                "start_time": 41.51590909090909,
                "end_time": 41.6,
                "pitch": 47,
                "velocity": 101,
                "duration": 0.08409090909091077,
                "tempo": 120.0
            },
            {
                "start_time": 41.62045454545454,
                "end_time": 41.70227272727273,
                "pitch": 43,
                "velocity": 127,
                "duration": 0.08181818181818556,
                "tempo": 120.0
            },
            {
                "start_time": 41.71818181818182,
                "end_time": 41.80227272727272,
                "pitch": 47,
                "velocity": 101,
                "duration": 0.08409090909090366,
                "tempo": 120.0
            },
            {
                "start_time": 41.820454545454545,
                "end_time": 41.902272727272724,
                "pitch": 45,
                "velocity": 101,
                "duration": 0.08181818181817846,
                "tempo": 120.0
            },
            {
                "start_time": 41.92045454545455,
                "end_time": 42.00454545454545,
                "pitch": 47,
                "velocity": 101,
                "duration": 0.08409090909090366,
                "tempo": 120.0
            },
            {
                "start_time": 42.02272727272727,
                "end_time": 42.10454545454545,
                "pitch": 47,
                "velocity": 127,
                "duration": 0.08181818181817846,
                "tempo": 120.0
            },
            {
                "start_time": 42.12272727272727,
                "end_time": 42.20454545454545,
                "pitch": 50,
                "velocity": 101,
                "duration": 0.08181818181818556,
                "tempo": 120.0
            },
            {
                "start_time": 42.22272727272727,
                "end_time": 42.304545454545455,
                "pitch": 48,
                "velocity": 101,
                "duration": 0.08181818181818556,
                "tempo": 120.0
            },
            {
                "start_time": 42.32272727272727,
                "end_time": 42.40454545454545,
                "pitch": 50,
                "velocity": 101,
                "duration": 0.08181818181817846,
                "tempo": 120.0
            },
            {
                "start_time": 42.42272727272727,
                "end_time": 42.50454545454545,
                "pitch": 47,
                "velocity": 127,
                "duration": 0.08181818181817846,
                "tempo": 120.0
            },
            {
                "start_time": 42.52272727272727,
                "end_time": 42.60454545454545,
                "pitch": 50,
                "velocity": 101,
                "duration": 0.08181818181817846,
                "tempo": 120.0
            },
            {
                "start_time": 42.62272727272727,
                "end_time": 42.70454545454545,
                "pitch": 48,
                "velocity": 101,
                "duration": 0.08181818181818556,
                "tempo": 120.0
            },
            {
                "start_time": 42.72272727272727,
                "end_time": 42.804545454545455,
                "pitch": 50,
                "velocity": 101,
                "duration": 0.08181818181818556,
                "tempo": 120.0
            },
            {
                "start_time": 42.82272727272727,
                "end_time": 42.90454545454545,
                "pitch": 47,
                "velocity": 127,
                "duration": 0.08181818181817846,
                "tempo": 120.0
            },
            {
                "start_time": 42.92272727272727,
                "end_time": 43.00454545454545,
                "pitch": 50,
                "velocity": 101,
                "duration": 0.08181818181817846,
                "tempo": 120.0
            },
            {
                "start_time": 43.02272727272727,
                "end_time": 43.10454545454545,
                "pitch": 48,
                "velocity": 101,
                "duration": 0.08181818181817846,
                "tempo": 120.0
            },
            {
                "start_time": 43.12272727272727,
                "end_time": 43.20454545454545,
                "pitch": 50,
                "velocity": 101,
                "duration": 0.08181818181818556,
                "tempo": 120.0
            },
            {
                "start_time": 43.225,
                "end_time": 43.30681818181818,
                "pitch": 47,
                "velocity": 127,
                "duration": 0.08181818181817846,
                "tempo": 120.0
            },
            {
                "start_time": 43.32272727272727,
                "end_time": 43.40681818181818,
                "pitch": 50,
                "velocity": 101,
                "duration": 0.08409090909091077,
                "tempo": 120.0
            },
            {
                "start_time": 43.425,
                "end_time": 43.50681818181818,
                "pitch": 48,
                "velocity": 101,
                "duration": 0.08181818181818556,
                "tempo": 120.0
            },
            {
                "start_time": 43.52272727272727,
                "end_time": 43.60681818181818,
                "pitch": 50,
                "velocity": 101,
                "duration": 0.08409090909090366,
                "tempo": 120.0
            },
            {
                "start_time": 43.625,
                "end_time": 43.70681818181818,
                "pitch": 45,
                "velocity": 127,
                "duration": 0.08181818181817846,
                "tempo": 120.0
            },
            {
                "start_time": 43.725,
                "end_time": 43.80681818181818,
                "pitch": 48,
                "velocity": 101,
                "duration": 0.08181818181817846,
                "tempo": 120.0
            },
            {
                "start_time": 43.824999999999996,
                "end_time": 43.90909090909091,
                "pitch": 47,
                "velocity": 101,
                "duration": 0.08409090909091077,
                "tempo": 120.0
            },
            {
                "start_time": 43.925,
                "end_time": 44.00909090909091,
                "pitch": 48,
                "velocity": 101,
                "duration": 0.08409090909091077,
                "tempo": 120.0
            },
            {
                "start_time": 44.027272727272724,
                "end_time": 44.10909090909091,
                "pitch": 45,
                "velocity": 127,
                "duration": 0.08181818181818556,
                "tempo": 120.0
            },
            {
                "start_time": 44.127272727272725,
                "end_time": 44.209090909090904,
                "pitch": 48,
                "velocity": 101,
                "duration": 0.08181818181817846,
                "tempo": 120.0
            },
            {
                "start_time": 44.22727272727273,
                "end_time": 44.309090909090905,
                "pitch": 47,
                "velocity": 101,
                "duration": 0.08181818181817846,
                "tempo": 120.0
            },
            {
                "start_time": 44.32727272727273,
                "end_time": 44.40909090909091,
                "pitch": 48,
                "velocity": 101,
                "duration": 0.08181818181817846,
                "tempo": 120.0
            },
            {
                "start_time": 44.42727272727272,
                "end_time": 44.50909090909091,
                "pitch": 45,
                "velocity": 127,
                "duration": 0.08181818181818556,
                "tempo": 120.0
            },
            {
                "start_time": 44.527272727272724,
                "end_time": 44.60909090909091,
                "pitch": 48,
                "velocity": 101,
                "duration": 0.08181818181818556,
                "tempo": 120.0
            },
            {
                "start_time": 44.627272727272725,
                "end_time": 44.709090909090904,
                "pitch": 47,
                "velocity": 101,
                "duration": 0.08181818181817846,
                "tempo": 120.0
            },
            {
                "start_time": 44.72727272727273,
                "end_time": 44.81136363636364,
                "pitch": 48,
                "velocity": 101,
                "duration": 0.08409090909091077,
                "tempo": 120.0
            },
            {
                "start_time": 44.82954545454545,
                "end_time": 44.91136363636363,
                "pitch": 45,
                "velocity": 127,
                "duration": 0.08181818181817846,
                "tempo": 120.0
            },
            {
                "start_time": 44.92727272727272,
                "end_time": 45.01136363636363,
                "pitch": 48,
                "velocity": 101,
                "duration": 0.08409090909091077,
                "tempo": 120.0
            },
            {
                "start_time": 45.027272727272724,
                "end_time": 45.111363636363635,
                "pitch": 47,
                "velocity": 101,
                "duration": 0.08409090909091077,
                "tempo": 120.0
            },
            {
                "start_time": 45.127272727272725,
                "end_time": 45.211363636363636,
                "pitch": 48,
                "velocity": 101,
                "duration": 0.08409090909091077,
                "tempo": 120.0
            },
            {
                "start_time": 45.22954545454545,
                "end_time": 45.31363636363636,
                "pitch": 45,
                "velocity": 127,
                "duration": 0.08409090909091077,
                "tempo": 120.0
            },
            {
                "start_time": 45.33181818181818,
                "end_time": 45.41590909090909,
                "pitch": 48,
                "velocity": 101,
                "duration": 0.08409090909091077,
                "tempo": 120.0
            },
            {
                "start_time": 45.434090909090905,
                "end_time": 45.518181818181816,
                "pitch": 47,
                "velocity": 101,
                "duration": 0.08409090909091077,
                "tempo": 120.0
            },
            {
                "start_time": 45.53636363636363,
                "end_time": 45.62045454545454,
                "pitch": 48,
                "velocity": 101,
                "duration": 0.08409090909091077,
                "tempo": 120.0
            },
            {
                "start_time": 45.64090909090909,
                "end_time": 45.720454545454544,
                "pitch": 45,
                "velocity": 127,
                "duration": 0.07954545454545325,
                "tempo": 120.0
            },
            {
                "start_time": 45.73863636363636,
                "end_time": 45.81818181818181,
                "pitch": 48,
                "velocity": 101,
                "duration": 0.07954545454545325,
                "tempo": 120.0
            },
            {
                "start_time": 45.836363636363636,
                "end_time": 45.91590909090909,
                "pitch": 47,
                "velocity": 101,
                "duration": 0.07954545454545325,
                "tempo": 120.0
            },
            {
                "start_time": 45.934090909090905,
                "end_time": 46.01590909090909,
                "pitch": 48,
                "velocity": 101,
                "duration": 0.08181818181818556,
                "tempo": 120.0
            },
            {
                "start_time": 46.03181818181818,
                "end_time": 46.11590909090909,
                "pitch": 45,
                "velocity": 127,
                "duration": 0.08409090909091077,
                "tempo": 120.0
            },
            {
                "start_time": 46.13181818181818,
                "end_time": 46.215909090909086,
                "pitch": 48,
                "velocity": 101,
                "duration": 0.08409090909090366,
                "tempo": 120.0
            },
            {
                "start_time": 46.23409090909091,
                "end_time": 46.31590909090909,
                "pitch": 47,
                "velocity": 101,
                "duration": 0.08181818181817846,
                "tempo": 120.0
            },
            {
                "start_time": 46.33181818181818,
                "end_time": 46.41590909090909,
                "pitch": 48,
                "velocity": 101,
                "duration": 0.08409090909091077,
                "tempo": 120.0
            },
            {
                "start_time": 46.434090909090905,
                "end_time": 46.51590909090909,
                "pitch": 45,
                "velocity": 127,
                "duration": 0.08181818181818556,
                "tempo": 120.0
            },
            {
                "start_time": 46.53181818181818,
                "end_time": 46.61590909090909,
                "pitch": 48,
                "velocity": 101,
                "duration": 0.08409090909091077,
                "tempo": 120.0
            },
            {
                "start_time": 46.63409090909091,
                "end_time": 46.715909090909086,
                "pitch": 47,
                "velocity": 101,
                "duration": 0.08181818181817846,
                "tempo": 120.0
            },
            {
                "start_time": 46.73181818181818,
                "end_time": 46.81590909090909,
                "pitch": 48,
                "velocity": 101,
                "duration": 0.08409090909091077,
                "tempo": 120.0
            },
            {
                "start_time": 46.834090909090904,
                "end_time": 46.918181818181814,
                "pitch": 43,
                "velocity": 127,
                "duration": 0.08409090909091077,
                "tempo": 120.0
            },
            {
                "start_time": 46.93636363636364,
                "end_time": 47.02045454545454,
                "pitch": 47,
                "velocity": 101,
                "duration": 0.08409090909090366,
                "tempo": 120.0
            },
            {
                "start_time": 47.038636363636364,
                "end_time": 47.12272727272727,
                "pitch": 45,
                "velocity": 101,
                "duration": 0.08409090909090366,
                "tempo": 120.0
            },
            {
                "start_time": 47.14090909090909,
                "end_time": 47.22727272727273,
                "pitch": 47,
                "velocity": 101,
                "duration": 0.08636363636363598,
                "tempo": 120.0
            },
            {
                "start_time": 47.24545454545454,
                "end_time": 47.324999999999996,
                "pitch": 43,
                "velocity": 127,
                "duration": 0.07954545454545325,
                "tempo": 120.0
            },
            {
                "start_time": 47.34318181818182,
                "end_time": 47.42272727272727,
                "pitch": 47,
                "velocity": 101,
                "duration": 0.07954545454545325,
                "tempo": 120.0
            },
            {
                "start_time": 47.44090909090909,
                "end_time": 47.52272727272727,
                "pitch": 45,
                "velocity": 101,
                "duration": 0.08181818181818556,
                "tempo": 120.0
            },
            {
                "start_time": 47.538636363636364,
                "end_time": 47.62045454545454,
                "pitch": 47,
                "velocity": 101,
                "duration": 0.08181818181817846,
                "tempo": 120.0
            },
            {
                "start_time": 47.63863636363636,
                "end_time": 47.720454545454544,
                "pitch": 43,
                "velocity": 127,
                "duration": 0.08181818181818556,
                "tempo": 120.0
            },
            {
                "start_time": 47.73863636363636,
                "end_time": 47.820454545454545,
                "pitch": 47,
                "velocity": 101,
                "duration": 0.08181818181818556,
                "tempo": 120.0
            },
            {
                "start_time": 47.83863636363636,
                "end_time": 47.92272727272727,
                "pitch": 45,
                "velocity": 101,
                "duration": 0.08409090909091077,
                "tempo": 120.0
            },
            {
                "start_time": 47.93863636363636,
                "end_time": 48.02272727272727,
                "pitch": 47,
                "velocity": 101,
                "duration": 0.08409090909091077,
                "tempo": 120.0
            },
            {
                "start_time": 48.04090909090909,
                "end_time": 48.12272727272727,
                "pitch": 43,
                "velocity": 127,
                "duration": 0.08181818181817846,
                "tempo": 120.0
            },
            {
                "start_time": 48.14090909090909,
                "end_time": 48.22272727272727,
                "pitch": 47,
                "velocity": 101,
                "duration": 0.08181818181817846,
                "tempo": 120.0
            },
            {
                "start_time": 48.24090909090909,
                "end_time": 48.32272727272727,
                "pitch": 45,
                "velocity": 101,
                "duration": 0.08181818181817846,
                "tempo": 120.0
            },
            {
                "start_time": 48.340909090909086,
                "end_time": 48.42272727272727,
                "pitch": 47,
                "velocity": 101,
                "duration": 0.08181818181818556,
                "tempo": 120.0
            },
            {
                "start_time": 48.44318181818181,
                "end_time": 48.525,
                "pitch": 47,
                "velocity": 127,
                "duration": 0.08181818181818556,
                "tempo": 120.0
            },
            {
                "start_time": 48.543181818181814,
                "end_time": 48.62954545454545,
                "pitch": 50,
                "velocity": 101,
                "duration": 0.08636363636363598,
                "tempo": 120.0
            },
            {
                "start_time": 48.64772727272727,
                "end_time": 48.73181818181818,
                "pitch": 48,
                "velocity": 101,
                "duration": 0.08409090909090366,
                "tempo": 120.0
            },
            {
                "start_time": 48.75,
                "end_time": 48.834090909090904,
                "pitch": 50,
                "velocity": 101,
                "duration": 0.08409090909090366,
                "tempo": 120.0
            },
            {
                "start_time": 48.85454545454545,
                "end_time": 48.934090909090905,
                "pitch": 47,
                "velocity": 127,
                "duration": 0.07954545454545325,
                "tempo": 120.0
            },
            {
                "start_time": 48.95227272727273,
                "end_time": 49.03409090909091,
                "pitch": 50,
                "velocity": 101,
                "duration": 0.08181818181817846,
                "tempo": 120.0
            },
            {
                "start_time": 49.05227272727272,
                "end_time": 49.13409090909091,
                "pitch": 48,
                "velocity": 101,
                "duration": 0.08181818181818556,
                "tempo": 120.0
            },
            {
                "start_time": 49.152272727272724,
                "end_time": 49.236363636363635,
                "pitch": 50,
                "velocity": 101,
                "duration": 0.08409090909091077,
                "tempo": 120.0
            },
            {
                "start_time": 49.252272727272725,
                "end_time": 49.334090909090904,
                "pitch": 47,
                "velocity": 127,
                "duration": 0.08181818181817846,
                "tempo": 120.0
            },
            {
                "start_time": 49.349999999999994,
                "end_time": 49.43181818181818,
                "pitch": 50,
                "velocity": 101,
                "duration": 0.08181818181818556,
                "tempo": 120.0
            },
            {
                "start_time": 49.449999999999996,
                "end_time": 49.52954545454545,
                "pitch": 48,
                "velocity": 101,
                "duration": 0.07954545454545325,
                "tempo": 120.0
            },
            {
                "start_time": 49.54772727272727,
                "end_time": 49.627272727272725,
                "pitch": 50,
                "velocity": 101,
                "duration": 0.07954545454545325,
                "tempo": 120.0
            },
            {
                "start_time": 49.64772727272727,
                "end_time": 49.72954545454545,
                "pitch": 47,
                "velocity": 127,
                "duration": 0.08181818181817846,
                "tempo": 120.0
            },
            {
                "start_time": 49.74772727272727,
                "end_time": 49.83181818181818,
                "pitch": 50,
                "velocity": 101,
                "duration": 0.08409090909091077,
                "tempo": 120.0
            },
            {
                "start_time": 49.85227272727273,
                "end_time": 49.93636363636364,
                "pitch": 48,
                "velocity": 101,
                "duration": 0.08409090909091077,
                "tempo": 120.0
            },
            {
                "start_time": 49.95454545454545,
                "end_time": 50.038636363636364,
                "pitch": 50,
                "velocity": 101,
                "duration": 0.08409090909091077,
                "tempo": 120.0
            },
            {
                "start_time": 50.059090909090905,
                "end_time": 50.13863636363636,
                "pitch": 45,
                "velocity": 127,
                "duration": 0.07954545454545325,
                "tempo": 120.0
            },
            {
                "start_time": 50.15681818181818,
                "end_time": 50.23863636363636,
                "pitch": 48,
                "velocity": 101,
                "duration": 0.08181818181817846,
                "tempo": 120.0
            },
            {
                "start_time": 50.25681818181818,
                "end_time": 50.33863636363636,
                "pitch": 47,
                "velocity": 101,
                "duration": 0.08181818181817846,
                "tempo": 120.0
            },
            {
                "start_time": 50.35681818181818,
                "end_time": 50.44090909090909,
                "pitch": 48,
                "velocity": 101,
                "duration": 0.08409090909091077,
                "tempo": 120.0
            },
            {
                "start_time": 50.459090909090904,
                "end_time": 50.54090909090909,
                "pitch": 45,
                "velocity": 127,
                "duration": 0.08181818181818556,
                "tempo": 120.0
            },
            {
                "start_time": 50.55681818181818,
                "end_time": 50.64090909090909,
                "pitch": 48,
                "velocity": 101,
                "duration": 0.08409090909091077,
                "tempo": 120.0
            },
            {
                "start_time": 50.65681818181818,
                "end_time": 50.740909090909085,
                "pitch": 47,
                "velocity": 101,
                "duration": 0.08409090909090366,
                "tempo": 120.0
            },
            {
                "start_time": 50.75681818181818,
                "end_time": 50.840909090909086,
                "pitch": 48,
                "velocity": 101,
                "duration": 0.08409090909090366,
                "tempo": 120.0
            },
            {
                "start_time": 50.85909090909091,
                "end_time": 50.94090909090909,
                "pitch": 45,
                "velocity": 127,
                "duration": 0.08181818181817846,
                "tempo": 120.0
            },
            {
                "start_time": 50.95681818181818,
                "end_time": 51.04090909090909,
                "pitch": 48,
                "velocity": 101,
                "duration": 0.08409090909091077,
                "tempo": 120.0
            },
            {
                "start_time": 51.05681818181818,
                "end_time": 51.14090909090909,
                "pitch": 47,
                "velocity": 101,
                "duration": 0.08409090909091077,
                "tempo": 120.0
            },
            {
                "start_time": 51.15909090909091,
                "end_time": 51.240909090909085,
                "pitch": 48,
                "velocity": 101,
                "duration": 0.08181818181817846,
                "tempo": 120.0
            },
            {
                "start_time": 51.25909090909091,
                "end_time": 51.340909090909086,
                "pitch": 45,
                "velocity": 127,
                "duration": 0.08181818181817846,
                "tempo": 120.0
            },
            {
                "start_time": 51.35909090909091,
                "end_time": 51.44318181818181,
                "pitch": 48,
                "velocity": 101,
                "duration": 0.08409090909090366,
                "tempo": 120.0
            },
            {
                "start_time": 51.461363636363636,
                "end_time": 51.543181818181814,
                "pitch": 47,
                "velocity": 101,
                "duration": 0.08181818181817846,
                "tempo": 120.0
            },
            {
                "start_time": 51.56136363636364,
                "end_time": 51.643181818181816,
                "pitch": 48,
                "velocity": 101,
                "duration": 0.08181818181817846,
                "tempo": 120.0
            },
            {
                "start_time": 51.66590909090909,
                "end_time": 51.849999999999994,
                "pitch": 45,
                "velocity": 127,
                "duration": 0.18409090909090509,
                "tempo": 120.0
            },
            {
                "start_time": 51.865909090909085,
                "end_time": 51.95227272727273,
                "pitch": 45,
                "velocity": 101,
                "duration": 0.08636363636364308,
                "tempo": 120.0
            },
            {
                "start_time": 51.970454545454544,
                "end_time": 52.054545454545455,
                "pitch": 57,
                "velocity": 101,
                "duration": 0.08409090909091077,
                "tempo": 120.0
            },
            {
                "start_time": 52.07272727272727,
                "end_time": 52.252272727272725,
                "pitch": 45,
                "velocity": 127,
                "duration": 0.17954545454545467,
                "tempo": 120.0
            },
            {
                "start_time": 52.268181818181816,
                "end_time": 52.349999999999994,
                "pitch": 45,
                "velocity": 101,
                "duration": 0.08181818181817846,
                "tempo": 120.0
            },
            {
                "start_time": 52.36818181818182,
                "end_time": 52.44772727272727,
                "pitch": 57,
                "velocity": 101,
                "duration": 0.07954545454545325,
                "tempo": 120.0
            },
            {
                "start_time": 52.465909090909086,
                "end_time": 52.64772727272727,
                "pitch": 45,
                "velocity": 127,
                "duration": 0.18181818181818699,
                "tempo": 120.0
            },
            {
                "start_time": 52.66590909090909,
                "end_time": 52.74772727272727,
                "pitch": 45,
                "velocity": 101,
                "duration": 0.08181818181817846,
                "tempo": 120.0
            },
            {
                "start_time": 52.76590909090909,
                "end_time": 52.84772727272727,
                "pitch": 57,
                "velocity": 101,
                "duration": 0.08181818181817846,
                "tempo": 120.0
            },
            {
                "start_time": 52.865909090909085,
                "end_time": 53.04772727272727,
                "pitch": 45,
                "velocity": 127,
                "duration": 0.18181818181818699,
                "tempo": 120.0
            },
            {
                "start_time": 53.06818181818181,
                "end_time": 53.15,
                "pitch": 45,
                "velocity": 101,
                "duration": 0.08181818181818556,
                "tempo": 120.0
            },
            {
                "start_time": 53.16590909090909,
                "end_time": 53.25,
                "pitch": 57,
                "velocity": 101,
                "duration": 0.08409090909091077,
                "tempo": 120.0
            },
            {
                "start_time": 53.268181818181816,
                "end_time": 53.45454545454545,
                "pitch": 43,
                "velocity": 127,
                "duration": 0.1863636363636374,
                "tempo": 120.0
            },
            {
                "start_time": 53.47272727272727,
                "end_time": 53.55681818181818,
                "pitch": 43,
                "velocity": 101,
                "duration": 0.08409090909091077,
                "tempo": 120.0
            },
            {
                "start_time": 53.574999999999996,
                "end_time": 53.65909090909091,
                "pitch": 55,
                "velocity": 101,
                "duration": 0.08409090909091077,
                "tempo": 120.0
            },
            {
                "start_time": 53.67727272727272,
                "end_time": 53.85681818181818,
                "pitch": 43,
                "velocity": 127,
                "duration": 0.17954545454545467,
                "tempo": 120.0
            },
            {
                "start_time": 53.875,
                "end_time": 53.95454545454545,
                "pitch": 43,
                "velocity": 101,
                "duration": 0.07954545454545325,
                "tempo": 120.0
            },
            {
                "start_time": 53.97272727272727,
                "end_time": 54.05227272727272,
                "pitch": 55,
                "velocity": 101,
                "duration": 0.07954545454545325,
                "tempo": 120.0
            },
            {
                "start_time": 54.070454545454545,
                "end_time": 54.252272727272725,
                "pitch": 43,
                "velocity": 127,
                "duration": 0.18181818181817988,
                "tempo": 120.0
            },
            {
                "start_time": 54.27045454545454,
                "end_time": 54.35227272727273,
                "pitch": 43,
                "velocity": 101,
                "duration": 0.08181818181818556,
                "tempo": 120.0
            },
            {
                "start_time": 54.37045454545454,
                "end_time": 54.45454545454545,
                "pitch": 55,
                "velocity": 101,
                "duration": 0.08409090909091077,
                "tempo": 120.0
            },
            {
                "start_time": 54.470454545454544,
                "end_time": 54.65454545454545,
                "pitch": 43,
                "velocity": 127,
                "duration": 0.18409090909090509,
                "tempo": 120.0
            },
            {
                "start_time": 54.67272727272727,
                "end_time": 54.75454545454545,
                "pitch": 43,
                "velocity": 101,
                "duration": 0.08181818181817846,
                "tempo": 120.0
            },
            {
                "start_time": 54.77272727272727,
                "end_time": 54.85454545454545,
                "pitch": 55,
                "velocity": 101,
                "duration": 0.08181818181817846,
                "tempo": 120.0
            },
            {
                "start_time": 54.87272727272727,
                "end_time": 55.059090909090905,
                "pitch": 47,
                "velocity": 127,
                "duration": 0.1863636363636374,
                "tempo": 120.0
            },
            {
                "start_time": 55.07727272727273,
                "end_time": 55.16136363636363,
                "pitch": 47,
                "velocity": 101,
                "duration": 0.08409090909090366,
                "tempo": 120.0
            },
            {
                "start_time": 55.179545454545455,
                "end_time": 55.26363636363636,
                "pitch": 59,
                "velocity": 101,
                "duration": 0.08409090909090366,
                "tempo": 120.0
            },
            {
                "start_time": 55.28181818181818,
                "end_time": 55.461363636363636,
                "pitch": 47,
                "velocity": 127,
                "duration": 0.17954545454545467,
                "tempo": 120.0
            },
            {
                "start_time": 55.47954545454545,
                "end_time": 55.559090909090905,
                "pitch": 47,
                "velocity": 101,
                "duration": 0.07954545454545325,
                "tempo": 120.0
            },
            {
                "start_time": 55.57727272727273,
                "end_time": 55.65909090909091,
                "pitch": 59,
                "velocity": 101,
                "duration": 0.08181818181817846,
                "tempo": 120.0
            },
            {
                "start_time": 55.675,
                "end_time": 55.85909090909091,
                "pitch": 47,
                "velocity": 127,
                "duration": 0.1840909090909122,
                "tempo": 120.0
            },
            {
                "start_time": 55.875,
                "end_time": 55.959090909090904,
                "pitch": 47,
                "velocity": 101,
                "duration": 0.08409090909090366,
                "tempo": 120.0
            },
            {
                "start_time": 55.974999999999994,
                "end_time": 56.059090909090905,
                "pitch": 59,
                "velocity": 101,
                "duration": 0.08409090909091077,
                "tempo": 120.0
            },
            {
                "start_time": 56.074999999999996,
                "end_time": 56.25909090909091,
                "pitch": 47,
                "velocity": 127,
                "duration": 0.1840909090909122,
                "tempo": 120.0
            },
            {
                "start_time": 56.277272727272724,
                "end_time": 56.35909090909091,
                "pitch": 47,
                "velocity": 101,
                "duration": 0.08181818181818556,
                "tempo": 120.0
            },
            {
                "start_time": 56.377272727272725,
                "end_time": 56.459090909090904,
                "pitch": 59,
                "velocity": 101,
                "duration": 0.08181818181817846,
                "tempo": 120.0
            },
            {
                "start_time": 56.47727272727273,
                "end_time": 56.663636363636364,
                "pitch": 45,
                "velocity": 127,
                "duration": 0.1863636363636374,
                "tempo": 120.0
            },
            {
                "start_time": 56.68181818181818,
                "end_time": 56.76590909090909,
                "pitch": 45,
                "velocity": 101,
                "duration": 0.08409090909091077,
                "tempo": 120.0
            },
            {
                "start_time": 56.78409090909091,
                "end_time": 56.87045454545454,
                "pitch": 57,
                "velocity": 101,
                "duration": 0.08636363636363598,
                "tempo": 120.0
            },
            {
                "start_time": 56.88863636363636,
                "end_time": 57.06590909090909,
                "pitch": 45,
                "velocity": 127,
                "duration": 0.17727272727272947,
                "tempo": 120.0
            },
            {
                "start_time": 57.084090909090904,
                "end_time": 57.16590909090909,
                "pitch": 45,
                "velocity": 101,
                "duration": 0.08181818181818556,
                "tempo": 120.0
            },
            {
                "start_time": 57.18181818181818,
                "end_time": 57.26363636363636,
                "pitch": 57,
                "velocity": 101,
                "duration": 0.08181818181817846,
                "tempo": 120.0
            },
            {
                "start_time": 57.27954545454545,
                "end_time": 57.46363636363636,
                "pitch": 45,
                "velocity": 127,
                "duration": 0.1840909090909122,
                "tempo": 120.0
            },
            {
                "start_time": 57.48181818181818,
                "end_time": 57.56590909090909,
                "pitch": 45,
                "velocity": 101,
                "duration": 0.08409090909091077,
                "tempo": 120.0
            },
            {
                "start_time": 57.58181818181818,
                "end_time": 57.66590909090909,
                "pitch": 57,
                "velocity": 101,
                "duration": 0.08409090909091077,
                "tempo": 120.0
            },
            {
                "start_time": 57.684090909090905,
                "end_time": 57.87045454545454,
                "pitch": 45,
                "velocity": 127,
                "duration": 0.1863636363636374,
                "tempo": 120.0
            },
            {
                "start_time": 57.89090909090909,
                "end_time": 57.974999999999994,
                "pitch": 45,
                "velocity": 101,
                "duration": 0.08409090909090366,
                "tempo": 120.0
            },
            {
                "start_time": 57.99318181818182,
                "end_time": 58.07727272727272,
                "pitch": 57,
                "velocity": 101,
                "duration": 0.08409090909090366,
                "tempo": 120.0
            },
            {
                "start_time": 58.09772727272727,
                "end_time": 58.277272727272724,
                "pitch": 45,
                "velocity": 127,
                "duration": 0.17954545454545467,
                "tempo": 120.0
            },
            {
                "start_time": 58.29545454545454,
                "end_time": 58.377272727272725,
                "pitch": 45,
                "velocity": 101,
                "duration": 0.08181818181818556,
                "tempo": 120.0
            },
            {
                "start_time": 58.39545454545454,
                "end_time": 58.47727272727273,
                "pitch": 57,
                "velocity": 101,
                "duration": 0.08181818181818556,
                "tempo": 120.0
            },
            {
                "start_time": 58.49545454545454,
                "end_time": 58.679545454545455,
                "pitch": 45,
                "velocity": 127,
                "duration": 0.1840909090909122,
                "tempo": 120.0
            },
            {
                "start_time": 58.69772727272727,
                "end_time": 58.77954545454545,
                "pitch": 45,
                "velocity": 101,
                "duration": 0.08181818181817846,
                "tempo": 120.0
            },
            {
                "start_time": 58.79772727272727,
                "end_time": 58.881818181818176,
                "pitch": 57,
                "velocity": 101,
                "duration": 0.08409090909090366,
                "tempo": 120.0
            },
            {
                "start_time": 58.9,
                "end_time": 59.08181818181818,
                "pitch": 45,
                "velocity": 127,
                "duration": 0.18181818181817988,
                "tempo": 120.0
            },
            {
                "start_time": 59.09772727272727,
                "end_time": 59.18181818181818,
                "pitch": 45,
                "velocity": 101,
                "duration": 0.08409090909091077,
                "tempo": 120.0
            },
            {
                "start_time": 59.199999999999996,
                "end_time": 59.28181818181818,
                "pitch": 57,
                "velocity": 101,
                "duration": 0.08181818181818556,
                "tempo": 120.0
            },
            {
                "start_time": 59.3,
                "end_time": 59.48181818181818,
                "pitch": 45,
                "velocity": 127,
                "duration": 0.18181818181817988,
                "tempo": 120.0
            },
            {
                "start_time": 59.5,
                "end_time": 59.58181818181818,
                "pitch": 45,
                "velocity": 101,
                "duration": 0.08181818181817846,
                "tempo": 120.0
            },
            {
                "start_time": 59.599999999999994,
                "end_time": 59.68181818181818,
                "pitch": 57,
                "velocity": 101,
                "duration": 0.08181818181818556,
                "tempo": 120.0
            },
            {
                "start_time": 59.699999999999996,
                "end_time": 59.881818181818176,
                "pitch": 43,
                "velocity": 127,
                "duration": 0.18181818181817988,
                "tempo": 120.0
            },
            {
                "start_time": 59.9,
                "end_time": 59.98181818181818,
                "pitch": 43,
                "velocity": 101,
                "duration": 0.08181818181817846,
                "tempo": 120.0
            },
            {
                "start_time": 60.0,
                "end_time": 60.08181818181818,
                "pitch": 55,
                "velocity": 101,
                "duration": 0.08181818181817846,
                "tempo": 120.0
            },
            {
                "start_time": 60.099999999999994,
                "end_time": 60.28409090909091,
                "pitch": 43,
                "velocity": 127,
                "duration": 0.1840909090909122,
                "tempo": 120.0
            },
            {
                "start_time": 60.3,
                "end_time": 60.38409090909091,
                "pitch": 43,
                "velocity": 101,
                "duration": 0.08409090909091077,
                "tempo": 120.0
            },
            {
                "start_time": 60.4,
                "end_time": 60.48409090909091,
                "pitch": 55,
                "velocity": 101,
                "duration": 0.08409090909091077,
                "tempo": 120.0
            },
            {
                "start_time": 60.5,
                "end_time": 60.684090909090905,
                "pitch": 43,
                "velocity": 127,
                "duration": 0.18409090909090509,
                "tempo": 120.0
            },
            {
                "start_time": 60.70227272727272,
                "end_time": 60.78636363636363,
                "pitch": 43,
                "velocity": 101,
                "duration": 0.08409090909091077,
                "tempo": 120.0
            },
            {
                "start_time": 60.80227272727272,
                "end_time": 60.88636363636363,
                "pitch": 55,
                "velocity": 101,
                "duration": 0.08409090909091077,
                "tempo": 120.0
            },
            {
                "start_time": 60.90454545454545,
                "end_time": 61.086363636363636,
                "pitch": 43,
                "velocity": 127,
                "duration": 0.18181818181818699,
                "tempo": 120.0
            },
            {
                "start_time": 61.10454545454545,
                "end_time": 61.18636363636363,
                "pitch": 43,
                "velocity": 101,
                "duration": 0.08181818181817846,
                "tempo": 120.0
            },
            {
                "start_time": 61.20454545454545,
                "end_time": 61.28636363636363,
                "pitch": 55,
                "velocity": 101,
                "duration": 0.08181818181817846,
                "tempo": 120.0
            },
            {
                "start_time": 61.30681818181818,
                "end_time": 61.486363636363635,
                "pitch": 47,
                "velocity": 127,
                "duration": 0.17954545454545467,
                "tempo": 120.0
            },
            {
                "start_time": 61.50454545454545,
                "end_time": 61.586363636363636,
                "pitch": 47,
                "velocity": 101,
                "duration": 0.08181818181818556,
                "tempo": 120.0
            },
            {
                "start_time": 61.60454545454545,
                "end_time": 61.68863636363636,
                "pitch": 59,
                "velocity": 101,
                "duration": 0.08409090909091077,
                "tempo": 120.0
            },
            {
                "start_time": 61.70454545454545,
                "end_time": 61.88863636363636,
                "pitch": 47,
                "velocity": 127,
                "duration": 0.18409090909090509,
                "tempo": 120.0
            },
            {
                "start_time": 61.90454545454545,
                "end_time": 61.98863636363636,
                "pitch": 47,
                "velocity": 101,
                "duration": 0.08409090909091077,
                "tempo": 120.0
            },
            {
                "start_time": 62.00454545454545,
                "end_time": 62.08863636363636,
                "pitch": 59,
                "velocity": 101,
                "duration": 0.08409090909091077,
                "tempo": 120.0
            },
            {
                "start_time": 62.10681818181818,
                "end_time": 62.288636363636364,
                "pitch": 47,
                "velocity": 127,
                "duration": 0.18181818181818699,
                "tempo": 120.0
            },
            {
                "start_time": 62.304545454545455,
                "end_time": 62.38863636363636,
                "pitch": 47,
                "velocity": 101,
                "duration": 0.08409090909090366,
                "tempo": 120.0
            },
            {
                "start_time": 62.40681818181818,
                "end_time": 62.48863636363636,
                "pitch": 59,
                "velocity": 101,
                "duration": 0.08181818181817846,
                "tempo": 120.0
            },
            {
                "start_time": 62.506818181818176,
                "end_time": 62.69090909090909,
                "pitch": 47,
                "velocity": 127,
                "duration": 0.1840909090909122,
                "tempo": 120.0
            },
            {
                "start_time": 62.709090909090904,
                "end_time": 62.79090909090909,
                "pitch": 47,
                "velocity": 101,
                "duration": 0.08181818181818556,
                "tempo": 120.0
            },
            {
                "start_time": 62.809090909090905,
                "end_time": 62.89090909090909,
                "pitch": 59,
                "velocity": 101,
                "duration": 0.08181818181818556,
                "tempo": 120.0
            },
            {
                "start_time": 62.91136363636363,
                "end_time": 63.09772727272727,
                "pitch": 45,
                "velocity": 127,
                "duration": 0.1863636363636374,
                "tempo": 120.0
            },
            {
                "start_time": 63.11363636363636,
                "end_time": 63.199999999999996,
                "pitch": 45,
                "velocity": 101,
                "duration": 0.08636363636363598,
                "tempo": 120.0
            },
            {
                "start_time": 63.21818181818181,
                "end_time": 63.30227272727272,
                "pitch": 57,
                "velocity": 101,
                "duration": 0.08409090909091077,
                "tempo": 120.0
            },
            {
                "start_time": 63.320454545454545,
                "end_time": 63.5,
                "pitch": 45,
                "velocity": 127,
                "duration": 0.17954545454545467,
                "tempo": 120.0
            },
            {
                "start_time": 63.51590909090909,
                "end_time": 63.59772727272727,
                "pitch": 45,
                "velocity": 101,
                "duration": 0.08181818181817846,
                "tempo": 120.0
            },
            {
                "start_time": 63.61363636363636,
                "end_time": 63.695454545454545,
                "pitch": 57,
                "velocity": 101,
                "duration": 0.08181818181818556,
                "tempo": 120.0
            },
            {
                "start_time": 63.71363636363636,
                "end_time": 63.89545454545454,
                "pitch": 45,
                "velocity": 127,
                "duration": 0.18181818181817988,
                "tempo": 120.0
            },
            {
                "start_time": 63.913636363636364,
                "end_time": 63.99545454545454,
                "pitch": 45,
                "velocity": 101,
                "duration": 0.08181818181817846,
                "tempo": 120.0
            },
            {
                "start_time": 64.01363636363637,
                "end_time": 64.09545454545454,
                "pitch": 57,
                "velocity": 101,
                "duration": 0.08181818181817846,
                "tempo": 120.0
            },
            {
                "start_time": 64.11363636363636,
                "end_time": 64.29545454545455,
                "pitch": 45,
                "velocity": 127,
                "duration": 0.18181818181818699,
                "tempo": 120.0
            },
            {
                "start_time": 64.31363636363636,
                "end_time": 64.39545454545454,
                "pitch": 45,
                "velocity": 101,
                "duration": 0.08181818181817846,
                "tempo": 120.0
            },
            {
                "start_time": 64.41363636363636,
                "end_time": 64.49772727272727,
                "pitch": 57,
                "velocity": 101,
                "duration": 0.08409090909091788,
                "tempo": 120.0
            },
            {
                "start_time": 64.51590909090909,
                "end_time": 64.59772727272727,
                "pitch": 45,
                "velocity": 127,
                "duration": 0.08181818181817846,
                "tempo": 120.0
            },
            {
                "start_time": 64.61590909090908,
                "end_time": 64.70227272727273,
                "pitch": 45,
                "velocity": 101,
                "duration": 0.08636363636364308,
                "tempo": 120.0
            },
            {
                "start_time": 64.72045454545454,
                "end_time": 64.80454545454545,
                "pitch": 57,
                "velocity": 101,
                "duration": 0.08409090909090366,
                "tempo": 120.0
            },
            {
                "start_time": 64.82272727272726,
                "end_time": 64.90681818181818,
                "pitch": 45,
                "velocity": 101,
                "duration": 0.08409090909091788,
                "tempo": 120.0
            },
            {
                "start_time": 64.92727272727272,
                "end_time": 65.0090909090909,
                "pitch": 45,
                "velocity": 127,
                "duration": 0.08181818181817846,
                "tempo": 120.0
            },
            {
                "start_time": 65.02727272727273,
                "end_time": 65.10909090909091,
                "pitch": 45,
                "velocity": 101,
                "duration": 0.08181818181817846,
                "tempo": 120.0
            },
            {
                "start_time": 65.12727272727273,
                "end_time": 65.21136363636363,
                "pitch": 57,
                "velocity": 101,
                "duration": 0.08409090909090366,
                "tempo": 120.0
            },
            {
                "start_time": 65.22727272727272,
                "end_time": 65.31136363636364,
                "pitch": 45,
                "velocity": 101,
                "duration": 0.08409090909091788,
                "tempo": 120.0
            },
            {
                "start_time": 65.32954545454545,
                "end_time": 65.41136363636363,
                "pitch": 45,
                "velocity": 127,
                "duration": 0.08181818181817846,
                "tempo": 120.0
            },
            {
                "start_time": 65.42954545454545,
                "end_time": 65.51136363636364,
                "pitch": 45,
                "velocity": 101,
                "duration": 0.08181818181819267,
                "tempo": 120.0
            },
            {
                "start_time": 65.52954545454546,
                "end_time": 65.61136363636363,
                "pitch": 57,
                "velocity": 101,
                "duration": 0.08181818181817846,
                "tempo": 120.0
            },
            {
                "start_time": 65.62954545454545,
                "end_time": 65.71136363636363,
                "pitch": 45,
                "velocity": 101,
                "duration": 0.08181818181817846,
                "tempo": 120.0
            },
            {
                "start_time": 65.72954545454544,
                "end_time": 65.81363636363636,
                "pitch": 45,
                "velocity": 127,
                "duration": 0.08409090909091788,
                "tempo": 120.0
            },
            {
                "start_time": 65.82954545454545,
                "end_time": 65.91363636363636,
                "pitch": 45,
                "velocity": 101,
                "duration": 0.08409090909090366,
                "tempo": 120.0
            },
            {
                "start_time": 65.93181818181817,
                "end_time": 66.01363636363637,
                "pitch": 57,
                "velocity": 101,
                "duration": 0.08181818181819267,
                "tempo": 120.0
            },
            {
                "start_time": 66.03181818181818,
                "end_time": 66.11590909090908,
                "pitch": 45,
                "velocity": 101,
                "duration": 0.08409090909090366,
                "tempo": 120.0
            },
            {
                "start_time": 66.1340909090909,
                "end_time": 66.2159090909091,
                "pitch": 43,
                "velocity": 127,
                "duration": 0.08181818181819267,
                "tempo": 120.0
            },
            {
                "start_time": 66.23181818181818,
                "end_time": 66.31590909090909,
                "pitch": 43,
                "velocity": 101,
                "duration": 0.08409090909090366,
                "tempo": 120.0
            },
            {
                "start_time": 66.3340909090909,
                "end_time": 66.41590909090908,
                "pitch": 55,
                "velocity": 101,
                "duration": 0.08181818181817846,
                "tempo": 120.0
            },
            {
                "start_time": 66.43181818181817,
                "end_time": 66.51590909090909,
                "pitch": 43,
                "velocity": 101,
                "duration": 0.08409090909091788,
                "tempo": 120.0
            },
            {
                "start_time": 66.5340909090909,
                "end_time": 66.61590909090908,
                "pitch": 43,
                "velocity": 127,
                "duration": 0.08181818181817846,
                "tempo": 120.0
            },
            {
                "start_time": 66.6340909090909,
                "end_time": 66.7159090909091,
                "pitch": 43,
                "velocity": 101,
                "duration": 0.08181818181819267,
                "tempo": 120.0
            },
            {
                "start_time": 66.73409090909091,
                "end_time": 66.81818181818181,
                "pitch": 55,
                "velocity": 101,
                "duration": 0.08409090909090366,
                "tempo": 120.0
            },
            {
                "start_time": 66.83636363636363,
                "end_time": 66.91818181818182,
                "pitch": 43,
                "velocity": 101,
                "duration": 0.08181818181819267,
                "tempo": 120.0
            },
            {
                "start_time": 66.93636363636364,
                "end_time": 67.02045454545454,
                "pitch": 43,
                "velocity": 127,
                "duration": 0.08409090909090366,
                "tempo": 120.0
            },
            {
                "start_time": 67.03636363636363,
                "end_time": 67.12045454545454,
                "pitch": 43,
                "velocity": 101,
                "duration": 0.08409090909090366,
                "tempo": 120.0
            },
            {
                "start_time": 67.13863636363637,
                "end_time": 67.22045454545454,
                "pitch": 55,
                "velocity": 101,
                "duration": 0.08181818181817846,
                "tempo": 120.0
            },
            {
                "start_time": 67.23863636363636,
                "end_time": 67.32272727272726,
                "pitch": 43,
                "velocity": 101,
                "duration": 0.08409090909090366,
                "tempo": 120.0
            },
            {
                "start_time": 67.33863636363635,
                "end_time": 67.42272727272727,
                "pitch": 43,
                "velocity": 127,
                "duration": 0.08409090909091788,
                "tempo": 120.0
            },
            {
                "start_time": 67.43863636363636,
                "end_time": 67.52272727272727,
                "pitch": 43,
                "velocity": 101,
                "duration": 0.08409090909090366,
                "tempo": 120.0
            },
            {
                "start_time": 67.53863636363636,
                "end_time": 67.62272727272727,
                "pitch": 55,
                "velocity": 101,
                "duration": 0.08409090909091788,
                "tempo": 120.0
            },
            {
                "start_time": 67.63863636363637,
                "end_time": 67.72272727272727,
                "pitch": 43,
                "velocity": 101,
                "duration": 0.08409090909090366,
                "tempo": 120.0
            },
            {
                "start_time": 67.74090909090908,
                "end_time": 67.82272727272726,
                "pitch": 47,
                "velocity": 127,
                "duration": 0.08181818181817846,
                "tempo": 120.0
            },
            {
                "start_time": 67.8409090909091,
                "end_time": 67.925,
                "pitch": 47,
                "velocity": 101,
                "duration": 0.08409090909090366,
                "tempo": 120.0
            },
            {
                "start_time": 67.94318181818181,
                "end_time": 68.02499999999999,
                "pitch": 59,
                "velocity": 101,
                "duration": 0.08181818181817846,
                "tempo": 120.0
            },
            {
                "start_time": 68.04318181818182,
                "end_time": 68.125,
                "pitch": 47,
                "velocity": 101,
                "duration": 0.08181818181817846,
                "tempo": 120.0
            },
            {
                "start_time": 68.14318181818182,
                "end_time": 68.225,
                "pitch": 47,
                "velocity": 127,
                "duration": 0.08181818181817846,
                "tempo": 120.0
            },
            {
                "start_time": 68.24318181818181,
                "end_time": 68.325,
                "pitch": 47,
                "velocity": 101,
                "duration": 0.08181818181819267,
                "tempo": 120.0
            },
            {
                "start_time": 68.34318181818182,
                "end_time": 68.425,
                "pitch": 59,
                "velocity": 101,
                "duration": 0.08181818181817846,
                "tempo": 120.0
            },
            {
                "start_time": 68.44318181818181,
                "end_time": 68.52727272727273,
                "pitch": 47,
                "velocity": 101,
                "duration": 0.08409090909091788,
                "tempo": 120.0
            },
            {
                "start_time": 68.54318181818182,
                "end_time": 68.62727272727273,
                "pitch": 47,
                "velocity": 127,
                "duration": 0.08409090909090366,
                "tempo": 120.0
            },
            {
                "start_time": 68.64545454545454,
                "end_time": 68.72727272727272,
                "pitch": 47,
                "velocity": 101,
                "duration": 0.08181818181817846,
                "tempo": 120.0
            },
            {
                "start_time": 68.74545454545454,
                "end_time": 68.82954545454545,
                "pitch": 59,
                "velocity": 101,
                "duration": 0.08409090909091788,
                "tempo": 120.0
            },
            {
                "start_time": 68.84545454545454,
                "end_time": 68.92954545454545,
                "pitch": 47,
                "velocity": 101,
                "duration": 0.08409090909090366,
                "tempo": 120.0
            },
            {
                "start_time": 68.94772727272726,
                "end_time": 69.02954545454546,
                "pitch": 47,
                "velocity": 127,
                "duration": 0.08181818181819267,
                "tempo": 120.0
            },
            {
                "start_time": 69.04772727272727,
                "end_time": 69.13181818181818,
                "pitch": 47,
                "velocity": 101,
                "duration": 0.08409090909090366,
                "tempo": 120.0
            },
            {
                "start_time": 69.14772727272727,
                "end_time": 69.23181818181818,
                "pitch": 59,
                "velocity": 101,
                "duration": 0.08409090909091788,
                "tempo": 120.0
            },
            {
                "start_time": 69.25,
                "end_time": 69.33181818181818,
                "pitch": 47,
                "velocity": 101,
                "duration": 0.08181818181817846,
                "tempo": 120.0
            },
            {
                "start_time": 69.35,
                "end_time": 69.43181818181817,
                "pitch": 45,
                "velocity": 127,
                "duration": 0.08181818181817846,
                "tempo": 120.0
            },
            {
                "start_time": 69.45,
                "end_time": 69.53181818181818,
                "pitch": 45,
                "velocity": 101,
                "duration": 0.08181818181817846,
                "tempo": 120.0
            },
            {
                "start_time": 69.55,
                "end_time": 69.6340909090909,
                "pitch": 57,
                "velocity": 101,
                "duration": 0.08409090909090366,
                "tempo": 120.0
            },
            {
                "start_time": 69.64999999999999,
                "end_time": 69.73409090909091,
                "pitch": 45,
                "velocity": 101,
                "duration": 0.08409090909091788,
                "tempo": 120.0
            },
            {
                "start_time": 69.75227272727273,
                "end_time": 69.8340909090909,
                "pitch": 45,
                "velocity": 127,
                "duration": 0.08181818181817846,
                "tempo": 120.0
            },
            {
                "start_time": 69.85227272727272,
                "end_time": 69.93409090909091,
                "pitch": 45,
                "velocity": 101,
                "duration": 0.08181818181819267,
                "tempo": 120.0
            },
            {
                "start_time": 69.95227272727273,
                "end_time": 70.03636363636363,
                "pitch": 57,
                "velocity": 101,
                "duration": 0.08409090909090366,
                "tempo": 120.0
            },
            {
                "start_time": 70.05227272727272,
                "end_time": 70.13636363636363,
                "pitch": 45,
                "velocity": 101,
                "duration": 0.08409090909090366,
                "tempo": 120.0
            },
            {
                "start_time": 70.15454545454546,
                "end_time": 70.23636363636363,
                "pitch": 45,
                "velocity": 127,
                "duration": 0.08181818181817846,
                "tempo": 120.0
            },
            {
                "start_time": 70.25454545454545,
                "end_time": 70.33636363636363,
                "pitch": 45,
                "velocity": 101,
                "duration": 0.08181818181817846,
                "tempo": 120.0
            },
            {
                "start_time": 70.35454545454544,
                "end_time": 70.43636363636364,
                "pitch": 57,
                "velocity": 101,
                "duration": 0.08181818181819267,
                "tempo": 120.0
            },
            {
                "start_time": 70.45454545454545,
                "end_time": 70.53636363636363,
                "pitch": 45,
                "velocity": 101,
                "duration": 0.08181818181817846,
                "tempo": 120.0
            },
            {
                "start_time": 70.55454545454545,
                "end_time": 70.63863636363637,
                "pitch": 45,
                "velocity": 127,
                "duration": 0.08409090909091788,
                "tempo": 120.0
            },
            {
                "start_time": 70.65454545454546,
                "end_time": 70.73863636363636,
                "pitch": 45,
                "velocity": 101,
                "duration": 0.08409090909090366,
                "tempo": 120.0
            },
            {
                "start_time": 70.75681818181818,
                "end_time": 70.83863636363635,
                "pitch": 57,
                "velocity": 101,
                "duration": 0.08181818181817846,
                "tempo": 120.0
            },
            {
                "start_time": 70.85681818181818,
                "end_time": 70.94090909090909,
                "pitch": 45,
                "velocity": 101,
                "duration": 0.08409090909090366,
                "tempo": 120.0
            },
            {
                "start_time": 70.9590909090909,
                "end_time": 71.04318181818182,
                "pitch": 45,
                "velocity": 127,
                "duration": 0.08409090909091788,
                "tempo": 120.0
            },
            {
                "start_time": 71.05909090909091,
                "end_time": 71.14545454545454,
                "pitch": 45,
                "velocity": 101,
                "duration": 0.08636363636362887,
                "tempo": 120.0
            },
            {
                "start_time": 71.16363636363636,
                "end_time": 71.24772727272727,
                "pitch": 57,
                "velocity": 101,
                "duration": 0.08409090909091788,
                "tempo": 120.0
            },
            {
                "start_time": 71.26590909090909,
                "end_time": 71.35,
                "pitch": 45,
                "velocity": 101,
                "duration": 0.08409090909090366,
                "tempo": 120.0
            },
            {
                "start_time": 71.37045454545454,
                "end_time": 71.45,
                "pitch": 45,
                "velocity": 127,
                "duration": 0.07954545454546746,
                "tempo": 120.0
            },
            {
                "start_time": 71.4659090909091,
                "end_time": 71.54772727272727,
                "pitch": 45,
                "velocity": 101,
                "duration": 0.08181818181817846,
                "tempo": 120.0
            },
            {
                "start_time": 71.56590909090909,
                "end_time": 71.64545454545454,
                "pitch": 57,
                "velocity": 101,
                "duration": 0.07954545454545325,
                "tempo": 120.0
            },
            {
                "start_time": 71.66363636363636,
                "end_time": 71.74318181818181,
                "pitch": 45,
                "velocity": 101,
                "duration": 0.07954545454545325,
                "tempo": 120.0
            },
            {
                "start_time": 71.76136363636363,
                "end_time": 71.84545454545454,
                "pitch": 45,
                "velocity": 127,
                "duration": 0.08409090909091788,
                "tempo": 120.0
            },
            {
                "start_time": 71.86136363636363,
                "end_time": 71.94545454545454,
                "pitch": 45,
                "velocity": 101,
                "duration": 0.08409090909090366,
                "tempo": 120.0
            },
            {
                "start_time": 71.96363636363635,
                "end_time": 72.04545454545455,
                "pitch": 57,
                "velocity": 101,
                "duration": 0.08181818181819267,
                "tempo": 120.0
            },
            {
                "start_time": 72.06363636363636,
                "end_time": 72.14772727272727,
                "pitch": 45,
                "velocity": 101,
                "duration": 0.08409090909090366,
                "tempo": 120.0
            },
            {
                "start_time": 72.16363636363636,
                "end_time": 72.24772727272727,
                "pitch": 45,
                "velocity": 127,
                "duration": 0.08409090909091788,
                "tempo": 120.0
            },
            {
                "start_time": 72.26363636363637,
                "end_time": 72.34772727272727,
                "pitch": 45,
                "velocity": 101,
                "duration": 0.08409090909090366,
                "tempo": 120.0
            },
            {
                "start_time": 72.36363636363636,
                "end_time": 72.44772727272726,
                "pitch": 57,
                "velocity": 101,
                "duration": 0.08409090909090366,
                "tempo": 120.0
            },
            {
                "start_time": 72.4659090909091,
                "end_time": 72.54772727272727,
                "pitch": 45,
                "velocity": 101,
                "duration": 0.08181818181817846,
                "tempo": 120.0
            },
            {
                "start_time": 72.56590909090909,
                "end_time": 72.64999999999999,
                "pitch": 43,
                "velocity": 127,
                "duration": 0.08409090909090366,
                "tempo": 120.0
            },
            {
                "start_time": 72.66818181818182,
                "end_time": 72.75227272727273,
                "pitch": 43,
                "velocity": 101,
                "duration": 0.08409090909090366,
                "tempo": 120.0
            },
            {
                "start_time": 72.77045454545454,
                "end_time": 72.85454545454544,
                "pitch": 55,
                "velocity": 101,
                "duration": 0.08409090909090366,
                "tempo": 120.0
            },
            {
                "start_time": 72.87272727272727,
                "end_time": 72.9590909090909,
                "pitch": 43,
                "velocity": 101,
                "duration": 0.08636363636362887,
                "tempo": 120.0
            },
            {
                "start_time": 72.97727272727272,
                "end_time": 73.05909090909091,
                "pitch": 43,
                "velocity": 127,
                "duration": 0.08181818181819267,
                "tempo": 120.0
            },
            {
                "start_time": 73.07727272727273,
                "end_time": 73.1590909090909,
                "pitch": 43,
                "velocity": 101,
                "duration": 0.08181818181817846,
                "tempo": 120.0
            },
            {
                "start_time": 73.17727272727272,
                "end_time": 73.2590909090909,
                "pitch": 55,
                "velocity": 101,
                "duration": 0.08181818181817846,
                "tempo": 120.0
            },
            {
                "start_time": 73.27727272727272,
                "end_time": 73.35909090909091,
                "pitch": 43,
                "velocity": 101,
                "duration": 0.08181818181819267,
                "tempo": 120.0
            },
            {
                "start_time": 73.37727272727273,
                "end_time": 73.46136363636363,
                "pitch": 43,
                "velocity": 127,
                "duration": 0.08409090909090366,
                "tempo": 120.0
            },
            {
                "start_time": 73.47727272727272,
                "end_time": 73.56136363636364,
                "pitch": 43,
                "velocity": 101,
                "duration": 0.08409090909091788,
                "tempo": 120.0
            },
            {
                "start_time": 73.57954545454545,
                "end_time": 73.66136363636363,
                "pitch": 55,
                "velocity": 101,
                "duration": 0.08181818181817846,
                "tempo": 120.0
            },
            {
                "start_time": 73.67954545454545,
                "end_time": 73.76363636363637,
                "pitch": 43,
                "velocity": 101,
                "duration": 0.08409090909091788,
                "tempo": 120.0
            },
            {
                "start_time": 73.77954545454546,
                "end_time": 73.86363636363636,
                "pitch": 43,
                "velocity": 127,
                "duration": 0.08409090909090366,
                "tempo": 120.0
            },
            {
                "start_time": 73.87954545454545,
                "end_time": 73.96363636363635,
                "pitch": 43,
                "velocity": 101,
                "duration": 0.08409090909090366,
                "tempo": 120.0
            },
            {
                "start_time": 73.97954545454544,
                "end_time": 74.06363636363636,
                "pitch": 55,
                "velocity": 101,
                "duration": 0.08409090909091788,
                "tempo": 120.0
            },
            {
                "start_time": 74.07954545454545,
                "end_time": 74.16363636363636,
                "pitch": 43,
                "velocity": 101,
                "duration": 0.08409090909090366,
                "tempo": 120.0
            },
            {
                "start_time": 74.18181818181817,
                "end_time": 74.26363636363637,
                "pitch": 47,
                "velocity": 127,
                "duration": 0.08181818181819267,
                "tempo": 120.0
            },
            {
                "start_time": 74.28181818181818,
                "end_time": 74.36590909090908,
                "pitch": 47,
                "velocity": 101,
                "duration": 0.08409090909090366,
                "tempo": 120.0
            },
            {
                "start_time": 74.3840909090909,
                "end_time": 74.4659090909091,
                "pitch": 59,
                "velocity": 101,
                "duration": 0.08181818181819267,
                "tempo": 120.0
            },
            {
                "start_time": 74.48409090909091,
                "end_time": 74.56590909090909,
                "pitch": 47,
                "velocity": 101,
                "duration": 0.08181818181817846,
                "tempo": 120.0
            },
            {
                "start_time": 74.5840909090909,
                "end_time": 74.66818181818182,
                "pitch": 47,
                "velocity": 127,
                "duration": 0.08409090909091788,
                "tempo": 120.0
            },
            {
                "start_time": 74.68409090909091,
                "end_time": 74.76818181818182,
                "pitch": 47,
                "velocity": 101,
                "duration": 0.08409090909090366,
                "tempo": 120.0
            },
            {
                "start_time": 74.78636363636363,
                "end_time": 74.86818181818181,
                "pitch": 59,
                "velocity": 101,
                "duration": 0.08181818181817846,
                "tempo": 120.0
            },
            {
                "start_time": 74.88636363636363,
                "end_time": 74.97045454545454,
                "pitch": 47,
                "velocity": 101,
                "duration": 0.08409090909091788,
                "tempo": 120.0
            },
            {
                "start_time": 74.98636363636363,
                "end_time": 75.07045454545454,
                "pitch": 47,
                "velocity": 127,
                "duration": 0.08409090909090366,
                "tempo": 120.0
            },
            {
                "start_time": 75.08636363636363,
                "end_time": 75.17045454545455,
                "pitch": 47,
                "velocity": 101,
                "duration": 0.08409090909091788,
                "tempo": 120.0
            },
            {
                "start_time": 75.18636363636364,
                "end_time": 75.27045454545454,
                "pitch": 59,
                "velocity": 101,
                "duration": 0.08409090909090366,
                "tempo": 120.0
            },
            {
                "start_time": 75.28863636363636,
                "end_time": 75.37045454545454,
                "pitch": 47,
                "velocity": 101,
                "duration": 0.08181818181817846,
                "tempo": 120.0
            },
            {
                "start_time": 75.38863636363637,
                "end_time": 75.47045454545454,
                "pitch": 47,
                "velocity": 127,
                "duration": 0.08181818181817846,
                "tempo": 120.0
            },
            {
                "start_time": 75.48863636363636,
                "end_time": 75.57272727272726,
                "pitch": 47,
                "velocity": 101,
                "duration": 0.08409090909090366,
                "tempo": 120.0
            },
            {
                "start_time": 75.58863636363635,
                "end_time": 75.67272727272727,
                "pitch": 59,
                "velocity": 101,
                "duration": 0.08409090909091788,
                "tempo": 120.0
            },
            {
                "start_time": 75.69090909090909,
                "end_time": 75.77272727272727,
                "pitch": 47,
                "velocity": 101,
                "duration": 0.08181818181817846,
                "tempo": 120.0
            },
            {
                "start_time": 75.79090909090908,
                "end_time": 75.87272727272727,
                "pitch": 45,
                "velocity": 127,
                "duration": 0.08181818181819267,
                "tempo": 120.0
            },
            {
                "start_time": 75.89090909090909,
                "end_time": 75.97272727272727,
                "pitch": 45,
                "velocity": 101,
                "duration": 0.08181818181817846,
                "tempo": 120.0
            },
            {
                "start_time": 75.99090909090908,
                "end_time": 76.075,
                "pitch": 57,
                "velocity": 101,
                "duration": 0.08409090909091788,
                "tempo": 120.0
            },
            {
                "start_time": 76.0909090909091,
                "end_time": 76.175,
                "pitch": 45,
                "velocity": 101,
                "duration": 0.08409090909090366,
                "tempo": 120.0
            },
            {
                "start_time": 76.19318181818181,
                "end_time": 76.27499999999999,
                "pitch": 45,
                "velocity": 127,
                "duration": 0.08181818181817846,
                "tempo": 120.0
            },
            {
                "start_time": 76.29318181818182,
                "end_time": 76.375,
                "pitch": 45,
                "velocity": 101,
                "duration": 0.08181818181817846,
                "tempo": 120.0
            },
            {
                "start_time": 76.39318181818182,
                "end_time": 76.47727272727272,
                "pitch": 57,
                "velocity": 101,
                "duration": 0.08409090909090366,
                "tempo": 120.0
            },
            {
                "start_time": 76.49318181818181,
                "end_time": 76.57727272727273,
                "pitch": 45,
                "velocity": 101,
                "duration": 0.08409090909091788,
                "tempo": 120.0
            },
            {
                "start_time": 76.59545454545454,
                "end_time": 76.67727272727272,
                "pitch": 45,
                "velocity": 127,
                "duration": 0.08181818181817846,
                "tempo": 120.0
            },
            {
                "start_time": 76.69545454545454,
                "end_time": 76.77954545454546,
                "pitch": 45,
                "velocity": 101,
                "duration": 0.08409090909091788,
                "tempo": 120.0
            },
            {
                "start_time": 76.79545454545455,
                "end_time": 76.87954545454545,
                "pitch": 57,
                "velocity": 101,
                "duration": 0.08409090909090366,
                "tempo": 120.0
            },
            {
                "start_time": 76.89772727272727,
                "end_time": 76.97954545454544,
                "pitch": 45,
                "velocity": 101,
                "duration": 0.08181818181817846,
                "tempo": 120.0
            },
            {
                "start_time": 76.99772727272727,
                "end_time": 77.07954545454545,
                "pitch": 45,
                "velocity": 127,
                "duration": 0.08181818181817846,
                "tempo": 120.0
            },
            {
                "start_time": 77.09772727272727,
                "end_time": 77.18181818181817,
                "pitch": 45,
                "velocity": 101,
                "duration": 0.08409090909090366,
                "tempo": 120.0
            },
            {
                "start_time": 77.19772727272726,
                "end_time": 77.28181818181818,
                "pitch": 57,
                "velocity": 101,
                "duration": 0.08409090909091788,
                "tempo": 120.0
            },
            {
                "start_time": 77.29772727272727,
                "end_time": 77.38181818181818,
                "pitch": 45,
                "velocity": 101,
                "duration": 0.08409090909090366,
                "tempo": 120.0
            },
            {
                "start_time": 77.40227272727272,
                "end_time": 77.48409090909091,
                "pitch": 45,
                "velocity": 127,
                "duration": 0.08181818181819267,
                "tempo": 120.0
            },
            {
                "start_time": 77.5,
                "end_time": 77.58636363636363,
                "pitch": 48,
                "velocity": 101,
                "duration": 0.08636363636362887,
                "tempo": 120.0
            },
            {
                "start_time": 77.60454545454544,
                "end_time": 77.68863636363636,
                "pitch": 47,
                "velocity": 101,
                "duration": 0.08409090909091788,
                "tempo": 120.0
            },
            {
                "start_time": 77.70681818181818,
                "end_time": 77.79090909090908,
                "pitch": 48,
                "velocity": 101,
                "duration": 0.08409090909090366,
                "tempo": 120.0
            },
            {
                "start_time": 77.81136363636364,
                "end_time": 77.89090909090909,
                "pitch": 45,
                "velocity": 127,
                "duration": 0.07954545454545325,
                "tempo": 120.0
            },
            {
                "start_time": 77.90681818181818,
                "end_time": 77.98863636363636,
                "pitch": 48,
                "velocity": 101,
                "duration": 0.08181818181817846,
                "tempo": 120.0
            },
            {
                "start_time": 78.00681818181818,
                "end_time": 78.08636363636363,
                "pitch": 47,
                "velocity": 101,
                "duration": 0.07954545454545325,
                "tempo": 120.0
            },
            {
                "start_time": 78.10454545454544,
                "end_time": 78.18409090909091,
                "pitch": 48,
                "velocity": 101,
                "duration": 0.07954545454546746,
                "tempo": 120.0
            },
            {
                "start_time": 78.20227272727273,
                "end_time": 78.28636363636363,
                "pitch": 45,
                "velocity": 127,
                "duration": 0.08409090909090366,
                "tempo": 120.0
            },
            {
                "start_time": 78.30227272727272,
                "end_time": 78.38636363636363,
                "pitch": 48,
                "velocity": 101,
                "duration": 0.08409090909090366,
                "tempo": 120.0
            },
            {
                "start_time": 78.40454545454546,
                "end_time": 78.48636363636363,
                "pitch": 47,
                "velocity": 101,
                "duration": 0.08181818181817846,
                "tempo": 120.0
            },
            {
                "start_time": 78.50454545454545,
                "end_time": 78.58863636363635,
                "pitch": 48,
                "velocity": 101,
                "duration": 0.08409090909090366,
                "tempo": 120.0
            },
            {
                "start_time": 78.60681818181818,
                "end_time": 78.68863636363636,
                "pitch": 45,
                "velocity": 127,
                "duration": 0.08181818181817846,
                "tempo": 120.0
            },
            {
                "start_time": 78.70681818181818,
                "end_time": 78.78863636363636,
                "pitch": 48,
                "velocity": 101,
                "duration": 0.08181818181817846,
                "tempo": 120.0
            },
            {
                "start_time": 78.80681818181817,
                "end_time": 78.89090909090909,
                "pitch": 47,
                "velocity": 101,
                "duration": 0.08409090909091788,
                "tempo": 120.0
            },
            {
                "start_time": 78.90681818181818,
                "end_time": 78.99090909090908,
                "pitch": 48,
                "velocity": 101,
                "duration": 0.08409090909090366,
                "tempo": 120.0
            },
            {
                "start_time": 79.01136363636363,
                "end_time": 79.09318181818182,
                "pitch": 43,
                "velocity": 127,
                "duration": 0.08181818181819267,
                "tempo": 120.0
            },
            {
                "start_time": 79.11136363636363,
                "end_time": 79.19545454545454,
                "pitch": 47,
                "velocity": 101,
                "duration": 0.08409090909090366,
                "tempo": 120.0
            },
            {
                "start_time": 79.2159090909091,
                "end_time": 79.3,
                "pitch": 45,
                "velocity": 101,
                "duration": 0.08409090909090366,
                "tempo": 120.0
            },
            {
                "start_time": 79.31590909090909,
                "end_time": 79.40227272727272,
                "pitch": 47,
                "velocity": 101,
                "duration": 0.08636363636362887,
                "tempo": 120.0
            },
            {
                "start_time": 79.42045454545455,
                "end_time": 79.5,
                "pitch": 43,
                "velocity": 127,
                "duration": 0.07954545454545325,
                "tempo": 120.0
            },
            {
                "start_time": 79.51818181818182,
                "end_time": 79.6,
                "pitch": 47,
                "velocity": 101,
                "duration": 0.08181818181817846,
                "tempo": 120.0
            },
            {
                "start_time": 79.61590909090908,
                "end_time": 79.69772727272726,
                "pitch": 45,
                "velocity": 101,
                "duration": 0.08181818181817846,
                "tempo": 120.0
            },
            {
                "start_time": 79.71363636363635,
                "end_time": 79.79545454545455,
                "pitch": 47,
                "velocity": 101,
                "duration": 0.08181818181819267,
                "tempo": 120.0
            },
            {
                "start_time": 79.81363636363636,
                "end_time": 79.89545454545454,
                "pitch": 43,
                "velocity": 127,
                "duration": 0.08181818181817846,
                "tempo": 120.0
            },
            {
                "start_time": 79.91363636363636,
                "end_time": 79.99545454545454,
                "pitch": 47,
                "velocity": 101,
                "duration": 0.08181818181817846,
                "tempo": 120.0
            },
            {
                "start_time": 80.01363636363637,
                "end_time": 80.09545454545454,
                "pitch": 45,
                "velocity": 101,
                "duration": 0.08181818181817846,
                "tempo": 120.0
            },
            {
                "start_time": 80.11363636363636,
                "end_time": 80.19545454545454,
                "pitch": 47,
                "velocity": 101,
                "duration": 0.08181818181817846,
                "tempo": 120.0
            },
            {
                "start_time": 80.21363636363635,
                "end_time": 80.29545454545455,
                "pitch": 43,
                "velocity": 127,
                "duration": 0.08181818181819267,
                "tempo": 120.0
            },
            {
                "start_time": 80.31363636363636,
                "end_time": 80.39772727272727,
                "pitch": 47,
                "velocity": 101,
                "duration": 0.08409090909090366,
                "tempo": 120.0
            },
            {
                "start_time": 80.41590909090908,
                "end_time": 80.49772727272727,
                "pitch": 45,
                "velocity": 101,
                "duration": 0.08181818181819267,
                "tempo": 120.0
            },
            {
                "start_time": 80.51590909090909,
                "end_time": 80.59772727272727,
                "pitch": 47,
                "velocity": 101,
                "duration": 0.08181818181817846,
                "tempo": 120.0
            },
            {
                "start_time": 80.61818181818181,
                "end_time": 80.7,
                "pitch": 47,
                "velocity": 127,
                "duration": 0.08181818181819267,
                "tempo": 120.0
            },
            {
                "start_time": 80.71818181818182,
                "end_time": 80.8,
                "pitch": 50,
                "velocity": 101,
                "duration": 0.08181818181817846,
                "tempo": 120.0
            },
            {
                "start_time": 80.81818181818181,
                "end_time": 80.90227272727272,
                "pitch": 48,
                "velocity": 101,
                "duration": 0.08409090909090366,
                "tempo": 120.0
            },
            {
                "start_time": 80.91818181818181,
                "end_time": 81.00227272727273,
                "pitch": 50,
                "velocity": 101,
                "duration": 0.08409090909091788,
                "tempo": 120.0
            },
            {
                "start_time": 81.02045454545454,
                "end_time": 81.10227272727272,
                "pitch": 47,
                "velocity": 127,
                "duration": 0.08181818181817846,
                "tempo": 120.0
            },
            {
                "start_time": 81.12045454545454,
                "end_time": 81.20227272727273,
                "pitch": 50,
                "velocity": 101,
                "duration": 0.08181818181819267,
                "tempo": 120.0
            },
            {
                "start_time": 81.22045454545454,
                "end_time": 81.30227272727272,
                "pitch": 48,
                "velocity": 101,
                "duration": 0.08181818181817846,
                "tempo": 120.0
            },
            {
                "start_time": 81.32045454545454,
                "end_time": 81.40227272727272,
                "pitch": 50,
                "velocity": 101,
                "duration": 0.08181818181817846,
                "tempo": 120.0
            },
            {
                "start_time": 81.42045454545455,
                "end_time": 81.50227272727273,
                "pitch": 47,
                "velocity": 127,
                "duration": 0.08181818181817846,
                "tempo": 120.0
            },
            {
                "start_time": 81.52045454545454,
                "end_time": 81.60454545454544,
                "pitch": 50,
                "velocity": 101,
                "duration": 0.08409090909090366,
                "tempo": 120.0
            },
            {
                "start_time": 81.62272727272727,
                "end_time": 81.70454545454545,
                "pitch": 48,
                "velocity": 101,
                "duration": 0.08181818181817846,
                "tempo": 120.0
            },
            {
                "start_time": 81.72272727272727,
                "end_time": 81.80681818181817,
                "pitch": 50,
                "velocity": 101,
                "duration": 0.08409090909090366,
                "tempo": 120.0
            },
            {
                "start_time": 81.825,
                "end_time": 81.9090909090909,
                "pitch": 47,
                "velocity": 127,
                "duration": 0.08409090909090366,
                "tempo": 120.0
            },
            {
                "start_time": 81.925,
                "end_time": 82.01136363636363,
                "pitch": 50,
                "velocity": 101,
                "duration": 0.08636363636362887,
                "tempo": 120.0
            },
            {
                "start_time": 82.02954545454546,
                "end_time": 82.11363636363636,
                "pitch": 48,
                "velocity": 101,
                "duration": 0.08409090909090366,
                "tempo": 120.0
            },
            {
                "start_time": 82.13181818181818,
                "end_time": 82.2159090909091,
                "pitch": 50,
                "velocity": 101,
                "duration": 0.08409090909091788,
                "tempo": 120.0
            },
            {
                "start_time": 82.23636363636363,
                "end_time": 82.31818181818181,
                "pitch": 45,
                "velocity": 127,
                "duration": 0.08181818181817846,
                "tempo": 120.0
            },
            {
                "start_time": 82.33636363636363,
                "end_time": 82.41818181818181,
                "pitch": 48,
                "velocity": 101,
                "duration": 0.08181818181817846,
                "tempo": 120.0
            },
            {
                "start_time": 82.43636363636364,
                "end_time": 82.52045454545454,
                "pitch": 47,
                "velocity": 101,
                "duration": 0.08409090909090366,
                "tempo": 120.0
            },
            {
                "start_time": 82.53636363636363,
                "end_time": 82.62045454545454,
                "pitch": 48,
                "velocity": 101,
                "duration": 0.08409090909090366,
                "tempo": 120.0
            },
            {
                "start_time": 82.63863636363637,
                "end_time": 82.71818181818182,
                "pitch": 45,
                "velocity": 127,
                "duration": 0.07954545454545325,
                "tempo": 120.0
            },
            {
                "start_time": 82.73636363636363,
                "end_time": 82.81818181818181,
                "pitch": 48,
                "velocity": 101,
                "duration": 0.08181818181817846,
                "tempo": 120.0
            },
            {
                "start_time": 82.8340909090909,
                "end_time": 82.91590909090908,
                "pitch": 47,
                "velocity": 101,
                "duration": 0.08181818181817846,
                "tempo": 120.0
            },
            {
                "start_time": 82.93181818181817,
                "end_time": 83.01363636363637,
                "pitch": 48,
                "velocity": 101,
                "duration": 0.08181818181819267,
                "tempo": 120.0
            },
            {
                "start_time": 83.03181818181818,
                "end_time": 83.11363636363636,
                "pitch": 45,
                "velocity": 127,
                "duration": 0.08181818181817846,
                "tempo": 120.0
            },
            {
                "start_time": 83.13181818181818,
                "end_time": 83.21363636363635,
                "pitch": 48,
                "velocity": 101,
                "duration": 0.08181818181817846,
                "tempo": 120.0
            },
            {
                "start_time": 83.23181818181818,
                "end_time": 83.31363636363636,
                "pitch": 47,
                "velocity": 101,
                "duration": 0.08181818181817846,
                "tempo": 120.0
            },
            {
                "start_time": 83.33181818181818,
                "end_time": 83.41363636363636,
                "pitch": 48,
                "velocity": 101,
                "duration": 0.08181818181817846,
                "tempo": 120.0
            },
            {
                "start_time": 83.43181818181817,
                "end_time": 83.51590909090909,
                "pitch": 45,
                "velocity": 127,
                "duration": 0.08409090909091788,
                "tempo": 120.0
            },
            {
                "start_time": 83.5340909090909,
                "end_time": 83.61818181818181,
                "pitch": 48,
                "velocity": 101,
                "duration": 0.08409090909090366,
                "tempo": 120.0
            },
            {
                "start_time": 83.63636363636363,
                "end_time": 83.72272727272727,
                "pitch": 47,
                "velocity": 101,
                "duration": 0.08636363636364308,
                "tempo": 120.0
            },
            {
                "start_time": 83.73863636363636,
                "end_time": 83.825,
                "pitch": 48,
                "velocity": 101,
                "duration": 0.08636363636364308,
                "tempo": 120.0
            },
            {
                "start_time": 83.84545454545454,
                "end_time": 83.925,
                "pitch": 45,
                "velocity": 127,
                "duration": 0.07954545454545325,
                "tempo": 120.0
            },
            {
                "start_time": 83.94318181818181,
                "end_time": 84.02727272727272,
                "pitch": 48,
                "velocity": 101,
                "duration": 0.08409090909090366,
                "tempo": 120.0
            },
            {
                "start_time": 84.04545454545455,
                "end_time": 84.12727272727273,
                "pitch": 47,
                "velocity": 101,
                "duration": 0.08181818181817846,
                "tempo": 120.0
            },
            {
                "start_time": 84.14545454545454,
                "end_time": 84.22727272727272,
                "pitch": 48,
                "velocity": 101,
                "duration": 0.08181818181817846,
                "tempo": 120.0
            },
            {
                "start_time": 84.24772727272727,
                "end_time": 84.32727272727273,
                "pitch": 45,
                "velocity": 127,
                "duration": 0.07954545454545325,
                "tempo": 120.0
            },
            {
                "start_time": 84.34318181818182,
                "end_time": 84.425,
                "pitch": 48,
                "velocity": 101,
                "duration": 0.08181818181817846,
                "tempo": 120.0
            },
            {
                "start_time": 84.44090909090909,
                "end_time": 84.52272727272727,
                "pitch": 47,
                "velocity": 101,
                "duration": 0.08181818181817846,
                "tempo": 120.0
            },
            {
                "start_time": 84.54090909090908,
                "end_time": 84.62045454545454,
                "pitch": 48,
                "velocity": 101,
                "duration": 0.07954545454545325,
                "tempo": 120.0
            },
            {
                "start_time": 84.63863636363637,
                "end_time": 84.72272727272727,
                "pitch": 45,
                "velocity": 127,
                "duration": 0.08409090909090366,
                "tempo": 120.0
            },
            {
                "start_time": 84.74090909090908,
                "end_time": 84.825,
                "pitch": 48,
                "velocity": 101,
                "duration": 0.08409090909091788,
                "tempo": 120.0
            },
            {
                "start_time": 84.84545454545454,
                "end_time": 84.92954545454545,
                "pitch": 47,
                "velocity": 101,
                "duration": 0.08409090909090366,
                "tempo": 120.0
            },
            {
                "start_time": 84.94772727272726,
                "end_time": 85.03181818181818,
                "pitch": 48,
                "velocity": 101,
                "duration": 0.08409090909091788,
                "tempo": 120.0
            },
            {
                "start_time": 85.05227272727272,
                "end_time": 85.13181818181818,
                "pitch": 45,
                "velocity": 127,
                "duration": 0.07954545454545325,
                "tempo": 120.0
            },
            {
                "start_time": 85.14999999999999,
                "end_time": 85.23409090909091,
                "pitch": 48,
                "velocity": 101,
                "duration": 0.08409090909091788,
                "tempo": 120.0
            },
            {
                "start_time": 85.25227272727273,
                "end_time": 85.3340909090909,
                "pitch": 47,
                "velocity": 101,
                "duration": 0.08181818181817846,
                "tempo": 120.0
            },
            {
                "start_time": 85.35227272727272,
                "end_time": 85.43636363636364,
                "pitch": 48,
                "velocity": 101,
                "duration": 0.08409090909091788,
                "tempo": 120.0
            },
            {
                "start_time": 85.45454545454545,
                "end_time": 85.53863636363636,
                "pitch": 43,
                "velocity": 127,
                "duration": 0.08409090909090366,
                "tempo": 120.0
            },
            {
                "start_time": 85.55454545454545,
                "end_time": 85.64090909090909,
                "pitch": 47,
                "velocity": 101,
                "duration": 0.08636363636364308,
                "tempo": 120.0
            },
            {
                "start_time": 85.6590909090909,
                "end_time": 85.74318181818181,
                "pitch": 45,
                "velocity": 101,
                "duration": 0.08409090909090366,
                "tempo": 120.0
            },
            {
                "start_time": 85.76136363636363,
                "end_time": 85.84545454545454,
                "pitch": 47,
                "velocity": 101,
                "duration": 0.08409090909091788,
                "tempo": 120.0
            },
            {
                "start_time": 85.86590909090908,
                "end_time": 85.94545454545454,
                "pitch": 43,
                "velocity": 127,
                "duration": 0.07954545454545325,
                "tempo": 120.0
            },
            {
                "start_time": 85.96136363636363,
                "end_time": 86.04318181818181,
                "pitch": 47,
                "velocity": 101,
                "duration": 0.08181818181817846,
                "tempo": 120.0
            },
            {
                "start_time": 86.06136363636364,
                "end_time": 86.14090909090909,
                "pitch": 45,
                "velocity": 101,
                "duration": 0.07954545454545325,
                "tempo": 120.0
            },
            {
                "start_time": 86.1590909090909,
                "end_time": 86.23863636363636,
                "pitch": 47,
                "velocity": 101,
                "duration": 0.07954545454545325,
                "tempo": 120.0
            },
            {
                "start_time": 86.25681818181818,
                "end_time": 86.3409090909091,
                "pitch": 43,
                "velocity": 127,
                "duration": 0.08409090909091788,
                "tempo": 120.0
            },
            {
                "start_time": 86.35681818181818,
                "end_time": 86.44090909090909,
                "pitch": 47,
                "velocity": 101,
                "duration": 0.08409090909090366,
                "tempo": 120.0
            },
            {
                "start_time": 86.4590909090909,
                "end_time": 86.54090909090908,
                "pitch": 45,
                "velocity": 101,
                "duration": 0.08181818181817846,
                "tempo": 120.0
            },
            {
                "start_time": 86.5590909090909,
                "end_time": 86.64318181818182,
                "pitch": 47,
                "velocity": 101,
                "duration": 0.08409090909091788,
                "tempo": 120.0
            },
            {
                "start_time": 86.66136363636363,
                "end_time": 86.74545454545454,
                "pitch": 43,
                "velocity": 127,
                "duration": 0.08409090909090366,
                "tempo": 120.0
            },
            {
                "start_time": 86.76363636363637,
                "end_time": 86.84772727272727,
                "pitch": 47,
                "velocity": 101,
                "duration": 0.08409090909090366,
                "tempo": 120.0
            },
            {
                "start_time": 86.86590909090908,
                "end_time": 86.95,
                "pitch": 45,
                "velocity": 101,
                "duration": 0.08409090909091788,
                "tempo": 120.0
            },
            {
                "start_time": 86.96818181818182,
                "end_time": 87.05454545454545,
                "pitch": 47,
                "velocity": 101,
                "duration": 0.08636363636362887,
                "tempo": 120.0
            },
            {
                "start_time": 87.07272727272726,
                "end_time": 87.15454545454546,
                "pitch": 47,
                "velocity": 127,
                "duration": 0.08181818181819267,
                "tempo": 120.0
            },
            {
                "start_time": 87.17272727272727,
                "end_time": 87.25454545454545,
                "pitch": 50,
                "velocity": 101,
                "duration": 0.08181818181817846,
                "tempo": 120.0
            },
            {
                "start_time": 87.27272727272727,
                "end_time": 87.35454545454544,
                "pitch": 48,
                "velocity": 101,
                "duration": 0.08181818181817846,
                "tempo": 120.0
            },
            {
                "start_time": 87.37272727272727,
                "end_time": 87.45454545454545,
                "pitch": 50,
                "velocity": 101,
                "duration": 0.08181818181817846,
                "tempo": 120.0
            },
            {
                "start_time": 87.47272727272727,
                "end_time": 87.55454545454545,
                "pitch": 47,
                "velocity": 127,
                "duration": 0.08181818181817846,
                "tempo": 120.0
            },
            {
                "start_time": 87.57272727272726,
                "end_time": 87.65681818181818,
                "pitch": 50,
                "velocity": 101,
                "duration": 0.08409090909091788,
                "tempo": 120.0
            },
            {
                "start_time": 87.67272727272727,
                "end_time": 87.75681818181818,
                "pitch": 48,
                "velocity": 101,
                "duration": 0.08409090909090366,
                "tempo": 120.0
            },
            {
                "start_time": 87.77499999999999,
                "end_time": 87.85681818181818,
                "pitch": 50,
                "velocity": 101,
                "duration": 0.08181818181819267,
                "tempo": 120.0
            },
            {
                "start_time": 87.875,
                "end_time": 87.95681818181818,
                "pitch": 47,
                "velocity": 127,
                "duration": 0.08181818181817846,
                "tempo": 120.0
            },
            {
                "start_time": 87.97272727272727,
                "end_time": 88.05454545454545,
                "pitch": 50,
                "velocity": 101,
                "duration": 0.08181818181817846,
                "tempo": 120.0
            },
            {
                "start_time": 88.07272727272726,
                "end_time": 88.15227272727272,
                "pitch": 48,
                "velocity": 101,
                "duration": 0.07954545454545325,
                "tempo": 120.0
            },
            {
                "start_time": 88.17045454545455,
                "end_time": 88.25,
                "pitch": 50,
                "velocity": 101,
                "duration": 0.07954545454545325,
                "tempo": 120.0
            },
            {
                "start_time": 88.26818181818182,
                "end_time": 88.35227272727272,
                "pitch": 47,
                "velocity": 127,
                "duration": 0.08409090909090366,
                "tempo": 120.0
            },
            {
                "start_time": 88.37045454545454,
                "end_time": 88.45454545454545,
                "pitch": 50,
                "velocity": 101,
                "duration": 0.08409090909091788,
                "tempo": 120.0
            },
            {
                "start_time": 88.47272727272727,
                "end_time": 88.5590909090909,
                "pitch": 48,
                "velocity": 101,
                "duration": 0.08636363636362887,
                "tempo": 120.0
            },
            {
                "start_time": 88.57499999999999,
                "end_time": 88.66136363636363,
                "pitch": 50,
                "velocity": 101,
                "duration": 0.08636363636364308,
                "tempo": 120.0
            },
            {
                "start_time": 88.68181818181817,
                "end_time": 88.76136363636363,
                "pitch": 45,
                "velocity": 127,
                "duration": 0.07954545454545325,
                "tempo": 120.0
            },
            {
                "start_time": 88.77954545454546,
                "end_time": 88.86363636363636,
                "pitch": 48,
                "velocity": 101,
                "duration": 0.08409090909090366,
                "tempo": 120.0
            },
            {
                "start_time": 88.88181818181818,
                "end_time": 88.96363636363635,
                "pitch": 47,
                "velocity": 101,
                "duration": 0.08181818181817846,
                "tempo": 120.0
            },
            {
                "start_time": 88.98181818181818,
                "end_time": 89.06590909090909,
                "pitch": 48,
                "velocity": 101,
                "duration": 0.08409090909090366,
                "tempo": 120.0
            },
            {
                "start_time": 89.0840909090909,
                "end_time": 89.16590909090908,
                "pitch": 45,
                "velocity": 127,
                "duration": 0.08181818181817846,
                "tempo": 120.0
            },
            {
                "start_time": 89.18181818181817,
                "end_time": 89.26590909090909,
                "pitch": 48,
                "velocity": 101,
                "duration": 0.08409090909091788,
                "tempo": 120.0
            },
            {
                "start_time": 89.28181818181818,
                "end_time": 89.36590909090908,
                "pitch": 47,
                "velocity": 101,
                "duration": 0.08409090909090366,
                "tempo": 120.0
            },
            {
                "start_time": 89.38181818181818,
                "end_time": 89.4659090909091,
                "pitch": 48,
                "velocity": 101,
                "duration": 0.08409090909091788,
                "tempo": 120.0
            },
            {
                "start_time": 89.48409090909091,
                "end_time": 89.56590909090909,
                "pitch": 45,
                "velocity": 127,
                "duration": 0.08181818181817846,
                "tempo": 120.0
            },
            {
                "start_time": 89.5840909090909,
                "end_time": 89.66590909090908,
                "pitch": 48,
                "velocity": 101,
                "duration": 0.08181818181817846,
                "tempo": 120.0
            },
            {
                "start_time": 89.6840909090909,
                "end_time": 89.76818181818182,
                "pitch": 47,
                "velocity": 101,
                "duration": 0.08409090909091788,
                "tempo": 120.0
            },
            {
                "start_time": 89.7840909090909,
                "end_time": 89.86818181818181,
                "pitch": 48,
                "velocity": 101,
                "duration": 0.08409090909090366,
                "tempo": 120.0
            },
            {
                "start_time": 89.88636363636363,
                "end_time": 89.96818181818182,
                "pitch": 45,
                "velocity": 127,
                "duration": 0.08181818181819267,
                "tempo": 120.0
            },
            {
                "start_time": 89.98636363636363,
                "end_time": 90.07045454545454,
                "pitch": 48,
                "velocity": 101,
                "duration": 0.08409090909090366,
                "tempo": 120.0
            },
            {
                "start_time": 90.08863636363635,
                "end_time": 90.17045454545455,
                "pitch": 47,
                "velocity": 101,
                "duration": 0.08181818181819267,
                "tempo": 120.0
            },
            {
                "start_time": 90.18863636363636,
                "end_time": 90.27272727272727,
                "pitch": 48,
                "velocity": 101,
                "duration": 0.08409090909090366,
                "tempo": 120.0
            },
            {
                "start_time": 90.29090909090908,
                "end_time": 90.47272727272727,
                "pitch": 45,
                "velocity": 127,
                "duration": 0.18181818181818699,
                "tempo": 120.0
            },
            {
                "start_time": 90.49090909090908,
                "end_time": 90.57272727272726,
                "pitch": 45,
                "velocity": 101,
                "duration": 0.08181818181817846,
                "tempo": 120.0
            },
            {
                "start_time": 90.58863636363635,
                "end_time": 90.67272727272727,
                "pitch": 57,
                "velocity": 101,
                "duration": 0.08409090909091788,
                "tempo": 120.0
            },
            {
                "start_time": 90.69090909090909,
                "end_time": 90.87272727272727,
                "pitch": 45,
                "velocity": 127,
                "duration": 0.18181818181818699,
                "tempo": 120.0
            },
            {
                "start_time": 90.89090909090909,
                "end_time": 90.975,
                "pitch": 45,
                "velocity": 101,
                "duration": 0.08409090909090366,
                "tempo": 120.0
            },
            {
                "start_time": 90.99318181818181,
                "end_time": 91.07499999999999,
                "pitch": 57,
                "velocity": 101,
                "duration": 0.08181818181817846,
                "tempo": 120.0
            },
            {
                "start_time": 91.09318181818182,
                "end_time": 91.27499999999999,
                "pitch": 45,
                "velocity": 127,
                "duration": 0.18181818181817277,
                "tempo": 120.0
            },
            {
                "start_time": 91.29318181818181,
                "end_time": 91.375,
                "pitch": 45,
                "velocity": 101,
                "duration": 0.08181818181819267,
                "tempo": 120.0
            },
            {
                "start_time": 91.39318181818182,
                "end_time": 91.475,
                "pitch": 57,
                "velocity": 101,
                "duration": 0.08181818181817846,
                "tempo": 120.0
            },
            {
                "start_time": 91.49545454545454,
                "end_time": 91.67727272727272,
                "pitch": 45,
                "velocity": 127,
                "duration": 0.18181818181818699,
                "tempo": 120.0
            },
            {
                "start_time": 91.69545454545454,
                "end_time": 91.77727272727272,
                "pitch": 45,
                "velocity": 101,
                "duration": 0.08181818181817846,
                "tempo": 120.0
            },
            {
                "start_time": 91.79545454545455,
                "end_time": 91.87954545454545,
                "pitch": 57,
                "velocity": 101,
                "duration": 0.08409090909090366,
                "tempo": 120.0
            },
            {
                "start_time": 91.89772727272727,
                "end_time": 92.08181818181818,
                "pitch": 43,
                "velocity": 127,
                "duration": 0.1840909090909122,
                "tempo": 120.0
            },
            {
                "start_time": 92.1,
                "end_time": 92.18181818181817,
                "pitch": 43,
                "velocity": 101,
                "duration": 0.08181818181817846,
                "tempo": 120.0
            },
            {
                "start_time": 92.19999999999999,
                "end_time": 92.28181818181818,
                "pitch": 55,
                "velocity": 101,
                "duration": 0.08181818181819267,
                "tempo": 120.0
            },
            {
                "start_time": 92.30227272727272,
                "end_time": 92.48181818181818,
                "pitch": 43,
                "velocity": 127,
                "duration": 0.17954545454546178,
                "tempo": 120.0
            },
            {
                "start_time": 92.5,
                "end_time": 92.58181818181818,
                "pitch": 43,
                "velocity": 101,
                "duration": 0.08181818181817846,
                "tempo": 120.0
            },
            {
                "start_time": 92.6,
                "end_time": 92.6840909090909,
                "pitch": 55,
                "velocity": 101,
                "duration": 0.08409090909090366,
                "tempo": 120.0
            },
            {
                "start_time": 92.69999999999999,
                "end_time": 92.8840909090909,
                "pitch": 43,
                "velocity": 127,
                "duration": 0.1840909090909122,
                "tempo": 120.0
            },
            {
                "start_time": 92.90227272727272,
                "end_time": 92.98636363636363,
                "pitch": 43,
                "velocity": 101,
                "duration": 0.08409090909091788,
                "tempo": 120.0
            },
            {
                "start_time": 93.00227272727273,
                "end_time": 93.08636363636363,
                "pitch": 55,
                "velocity": 101,
                "duration": 0.08409090909090366,
                "tempo": 120.0
            },
            {
                "start_time": 93.10454545454544,
                "end_time": 93.28636363636363,
                "pitch": 43,
                "velocity": 127,
                "duration": 0.18181818181818699,
                "tempo": 120.0
            },
            {
                "start_time": 93.30454545454545,
                "end_time": 93.38636363636363,
                "pitch": 43,
                "velocity": 101,
                "duration": 0.08181818181817846,
                "tempo": 120.0
            },
            {
                "start_time": 93.40454545454546,
                "end_time": 93.48636363636363,
                "pitch": 55,
                "velocity": 101,
                "duration": 0.08181818181817846,
                "tempo": 120.0
            },
            {
                "start_time": 93.50454545454545,
                "end_time": 93.68863636363636,
                "pitch": 47,
                "velocity": 127,
                "duration": 0.1840909090909122,
                "tempo": 120.0
            },
            {
                "start_time": 93.70681818181818,
                "end_time": 93.78863636363636,
                "pitch": 47,
                "velocity": 101,
                "duration": 0.08181818181817846,
                "tempo": 120.0
            },
            {
                "start_time": 93.80681818181817,
                "end_time": 93.89090909090909,
                "pitch": 59,
                "velocity": 101,
                "duration": 0.08409090909091788,
                "tempo": 120.0
            },
            {
                "start_time": 93.9090909090909,
                "end_time": 94.09090909090908,
                "pitch": 47,
                "velocity": 127,
                "duration": 0.18181818181817277,
                "tempo": 120.0
            },
            {
                "start_time": 94.10909090909091,
                "end_time": 94.19318181818181,
                "pitch": 47,
                "velocity": 101,
                "duration": 0.08409090909090366,
                "tempo": 120.0
            },
            {
                "start_time": 94.2090909090909,
                "end_time": 94.29318181818181,
                "pitch": 59,
                "velocity": 101,
                "duration": 0.08409090909090366,
                "tempo": 120.0
            },
            {
                "start_time": 94.31136363636364,
                "end_time": 94.49318181818181,
                "pitch": 47,
                "velocity": 127,
                "duration": 0.18181818181817277,
                "tempo": 120.0
            },
            {
                "start_time": 94.51136363636363,
                "end_time": 94.59318181818182,
                "pitch": 47,
                "velocity": 101,
                "duration": 0.08181818181819267,
                "tempo": 120.0
            },
            {
                "start_time": 94.61136363636363,
                "end_time": 94.69318181818181,
                "pitch": 59,
                "velocity": 101,
                "duration": 0.08181818181817846,
                "tempo": 120.0
            },
            {
                "start_time": 94.71136363636363,
                "end_time": 94.89545454545454,
                "pitch": 47,
                "velocity": 127,
                "duration": 0.1840909090909122,
                "tempo": 120.0
            },
            {
                "start_time": 94.91363636363636,
                "end_time": 94.99545454545454,
                "pitch": 47,
                "velocity": 101,
                "duration": 0.08181818181817846,
                "tempo": 120.0
            },
            {
                "start_time": 95.01363636363637,
                "end_time": 95.09772727272727,
                "pitch": 59,
                "velocity": 101,
                "duration": 0.08409090909090366,
                "tempo": 120.0
            },
            {
                "start_time": 95.11590909090908,
                "end_time": 95.30227272727272,
                "pitch": 45,
                "velocity": 127,
                "duration": 0.1863636363636374,
                "tempo": 120.0
            },
            {
                "start_time": 95.32045454545454,
                "end_time": 95.40454545454546,
                "pitch": 45,
                "velocity": 101,
                "duration": 0.08409090909091788,
                "tempo": 120.0
            },
            {
                "start_time": 95.42272727272727,
                "end_time": 95.50681818181818,
                "pitch": 57,
                "velocity": 101,
                "duration": 0.08409090909090366,
                "tempo": 120.0
            },
            {
                "start_time": 95.52727272727272,
                "end_time": 95.70454545454545,
                "pitch": 45,
                "velocity": 127,
                "duration": 0.17727272727273657,
                "tempo": 120.0
            },
            {
                "start_time": 95.72272727272727,
                "end_time": 95.80227272727272,
                "pitch": 45,
                "velocity": 101,
                "duration": 0.07954545454545325,
                "tempo": 120.0
            },
            {
                "start_time": 95.82045454545454,
                "end_time": 95.89999999999999,
                "pitch": 57,
                "velocity": 101,
                "duration": 0.07954545454545325,
                "tempo": 120.0
            },
            {
                "start_time": 95.91818181818181,
                "end_time": 96.10227272727272,
                "pitch": 45,
                "velocity": 127,
                "duration": 0.1840909090909122,
                "tempo": 120.0
            },
            {
                "start_time": 96.12045454545454,
                "end_time": 96.20227272727273,
                "pitch": 45,
                "velocity": 101,
                "duration": 0.08181818181819267,
                "tempo": 120.0
            },
            {
                "start_time": 96.22045454545454,
                "end_time": 96.30454545454545,
                "pitch": 57,
                "velocity": 101,
                "duration": 0.08409090909090366,
                "tempo": 120.0
            },
            {
                "start_time": 96.32272727272726,
                "end_time": 96.5090909090909,
                "pitch": 45,
                "velocity": 127,
                "duration": 0.1863636363636374,
                "tempo": 120.0
            },
            {
                "start_time": 96.52727272727272,
                "end_time": 96.61136363636363,
                "pitch": 45,
                "velocity": 101,
                "duration": 0.08409090909091788,
                "tempo": 120.0
            },
            {
                "start_time": 96.62954545454545,
                "end_time": 96.71590909090908,
                "pitch": 57,
                "velocity": 101,
                "duration": 0.08636363636362887,
                "tempo": 120.0
            },
            {
                "start_time": 96.73409090909091,
                "end_time": 96.91590909090908,
                "pitch": 45,
                "velocity": 127,
                "duration": 0.18181818181817277,
                "tempo": 120.0
            },
            {
                "start_time": 96.9340909090909,
                "end_time": 97.01590909090909,
                "pitch": 45,
                "velocity": 101,
                "duration": 0.08181818181819267,
                "tempo": 120.0
            },
            {
                "start_time": 97.0340909090909,
                "end_time": 97.11590909090908,
                "pitch": 57,
                "velocity": 101,
                "duration": 0.08181818181817846,
                "tempo": 120.0
            },
            {
                "start_time": 97.1340909090909,
                "end_time": 97.31818181818181,
                "pitch": 45,
                "velocity": 127,
                "duration": 0.1840909090909122,
                "tempo": 120.0
            },
            {
                "start_time": 97.3340909090909,
                "end_time": 97.41818181818181,
                "pitch": 45,
                "velocity": 101,
                "duration": 0.08409090909090366,
                "tempo": 120.0
            },
            {
                "start_time": 97.43636363636364,
                "end_time": 97.51818181818182,
                "pitch": 57,
                "velocity": 101,
                "duration": 0.08181818181817846,
                "tempo": 120.0
            },
            {
                "start_time": 97.53636363636363,
                "end_time": 97.72045454545454,
                "pitch": 45,
                "velocity": 127,
                "duration": 0.1840909090909122,
                "tempo": 120.0
            },
            {
                "start_time": 97.73863636363636,
                "end_time": 97.82045454545454,
                "pitch": 45,
                "velocity": 101,
                "duration": 0.08181818181817846,
                "tempo": 120.0
            },
            {
                "start_time": 97.83863636363635,
                "end_time": 97.92272727272727,
                "pitch": 57,
                "velocity": 101,
                "duration": 0.08409090909091788,
                "tempo": 120.0
            },
            {
                "start_time": 97.94090909090909,
                "end_time": 98.12272727272727,
                "pitch": 45,
                "velocity": 127,
                "duration": 0.18181818181818699,
                "tempo": 120.0
            },
            {
                "start_time": 98.14090909090909,
                "end_time": 98.22272727272727,
                "pitch": 45,
                "velocity": 101,
                "duration": 0.08181818181817846,
                "tempo": 120.0
            },
            {
                "start_time": 98.24090909090908,
                "end_time": 98.32272727272726,
                "pitch": 57,
                "velocity": 101,
                "duration": 0.08181818181817846,
                "tempo": 120.0
            },
            {
                "start_time": 98.34090909090908,
                "end_time": 98.52499999999999,
                "pitch": 43,
                "velocity": 127,
                "duration": 0.1840909090909122,
                "tempo": 120.0
            },
            {
                "start_time": 98.54318181818181,
                "end_time": 98.625,
                "pitch": 43,
                "velocity": 101,
                "duration": 0.08181818181819267,
                "tempo": 120.0
            },
            {
                "start_time": 98.64318181818182,
                "end_time": 98.725,
                "pitch": 55,
                "velocity": 101,
                "duration": 0.08181818181817846,
                "tempo": 120.0
            },
            {
                "start_time": 98.74545454545454,
                "end_time": 98.92727272727272,
                "pitch": 43,
                "velocity": 127,
                "duration": 0.18181818181818699,
                "tempo": 120.0
            },
            {
                "start_time": 98.94318181818181,
                "end_time": 99.02727272727272,
                "pitch": 43,
                "velocity": 101,
                "duration": 0.08409090909090366,
                "tempo": 120.0
            },
            {
                "start_time": 99.04318181818181,
                "end_time": 99.12727272727273,
                "pitch": 55,
                "velocity": 101,
                "duration": 0.08409090909091788,
                "tempo": 120.0
            },
            {
                "start_time": 99.14545454545454,
                "end_time": 99.32727272727273,
                "pitch": 43,
                "velocity": 127,
                "duration": 0.18181818181818699,
                "tempo": 120.0
            },
            {
                "start_time": 99.34545454545454,
                "end_time": 99.42954545454545,
                "pitch": 43,
                "velocity": 101,
                "duration": 0.08409090909090366,
                "tempo": 120.0
            },
            {
                "start_time": 99.44545454545454,
                "end_time": 99.52954545454546,
                "pitch": 55,
                "velocity": 101,
                "duration": 0.08409090909091788,
                "tempo": 120.0
            },
            {
                "start_time": 99.54772727272727,
                "end_time": 99.73181818181817,
                "pitch": 43,
                "velocity": 127,
                "duration": 0.18409090909089798,
                "tempo": 120.0
            },
            {
                "start_time": 99.75,
                "end_time": 99.83181818181818,
                "pitch": 43,
                "velocity": 101,
                "duration": 0.08181818181817846,
                "tempo": 120.0
            },
            {
                "start_time": 99.85,
                "end_time": 99.93181818181817,
                "pitch": 55,
                "velocity": 101,
                "duration": 0.08181818181817846,
                "tempo": 120.0
            },
            {
                "start_time": 99.95227272727273,
                "end_time": 100.1340909090909,
                "pitch": 47,
                "velocity": 127,
                "duration": 0.18181818181817277,
                "tempo": 120.0
            },
            {
                "start_time": 100.15227272727272,
                "end_time": 100.23409090909091,
                "pitch": 47,
                "velocity": 101,
                "duration": 0.08181818181819267,
                "tempo": 120.0
            },
            {
                "start_time": 100.25,
                "end_time": 100.3340909090909,
                "pitch": 59,
                "velocity": 101,
                "duration": 0.08409090909090366,
                "tempo": 120.0
            },
            {
                "start_time": 100.35227272727272,
                "end_time": 100.5340909090909,
                "pitch": 47,
                "velocity": 127,
                "duration": 0.18181818181818699,
                "tempo": 120.0
            },
            {
                "start_time": 100.55227272727272,
                "end_time": 100.63636363636363,
                "pitch": 47,
                "velocity": 101,
                "duration": 0.08409090909090366,
                "tempo": 120.0
            },
            {
                "start_time": 100.65227272727272,
                "end_time": 100.73636363636363,
                "pitch": 59,
                "velocity": 101,
                "duration": 0.08409090909091788,
                "tempo": 120.0
            },
            {
                "start_time": 100.75454545454545,
                "end_time": 100.93636363636364,
                "pitch": 47,
                "velocity": 127,
                "duration": 0.18181818181818699,
                "tempo": 120.0
            },
            {
                "start_time": 100.95454545454545,
                "end_time": 101.03636363636363,
                "pitch": 47,
                "velocity": 101,
                "duration": 0.08181818181817846,
                "tempo": 120.0
            },
            {
                "start_time": 101.05454545454545,
                "end_time": 101.13636363636363,
                "pitch": 59,
                "velocity": 101,
                "duration": 0.08181818181817846,
                "tempo": 120.0
            },
            {
                "start_time": 101.15681818181818,
                "end_time": 101.33863636363635,
                "pitch": 47,
                "velocity": 127,
                "duration": 0.18181818181817277,
                "tempo": 120.0
            },
            {
                "start_time": 101.35681818181817,
                "end_time": 101.43863636363636,
                "pitch": 47,
                "velocity": 101,
                "duration": 0.08181818181819267,
                "tempo": 120.0
            },
            {
                "start_time": 101.45681818181818,
                "end_time": 101.54090909090908,
                "pitch": 59,
                "velocity": 101,
                "duration": 0.08409090909090366,
                "tempo": 120.0
            },
            {
                "start_time": 101.5590909090909,
                "end_time": 101.74090909090908,
                "pitch": 45,
                "velocity": 127,
                "duration": 0.18181818181818699,
                "tempo": 120.0
            },
            {
                "start_time": 101.76136363636363,
                "end_time": 101.84318181818182,
                "pitch": 45,
                "velocity": 101,
                "duration": 0.08181818181819267,
                "tempo": 120.0
            },
            {
                "start_time": 101.86136363636363,
                "end_time": 101.94318181818181,
                "pitch": 57,
                "velocity": 101,
                "duration": 0.08181818181817846,
                "tempo": 120.0
            },
            {
                "start_time": 101.96363636363635,
                "end_time": 102.14318181818182,
                "pitch": 45,
                "velocity": 127,
                "duration": 0.17954545454546178,
                "tempo": 120.0
            },
            {
                "start_time": 102.16136363636363,
                "end_time": 102.24318181818181,
                "pitch": 45,
                "velocity": 101,
                "duration": 0.08181818181817846,
                "tempo": 120.0
            },
            {
                "start_time": 102.26136363636363,
                "end_time": 102.34318181818182,
                "pitch": 57,
                "velocity": 101,
                "duration": 0.08181818181819267,
                "tempo": 120.0
            },
            {
                "start_time": 102.36136363636363,
                "end_time": 102.54545454545455,
                "pitch": 45,
                "velocity": 127,
                "duration": 0.1840909090909122,
                "tempo": 120.0
            },
            {
                "start_time": 102.56363636363636,
                "end_time": 102.64545454545454,
                "pitch": 45,
                "velocity": 101,
                "duration": 0.08181818181817846,
                "tempo": 120.0
            },
            {
                "start_time": 102.66363636363636,
                "end_time": 102.74772727272727,
                "pitch": 57,
                "velocity": 101,
                "duration": 0.08409090909091788,
                "tempo": 120.0
            },
            {
                "start_time": 102.76590909090909,
                "end_time": 102.94772727272726,
                "pitch": 45,
                "velocity": 127,
                "duration": 0.18181818181817277,
                "tempo": 120.0
            },
            {
                "start_time": 102.96818181818182,
                "end_time": 103.04772727272727,
                "pitch": 45,
                "velocity": 101,
                "duration": 0.07954545454545325,
                "tempo": 120.0
            },
            {
                "start_time": 103.06590909090909,
                "end_time": 103.14772727272727,
                "pitch": 57,
                "velocity": 101,
                "duration": 0.08181818181817846,
                "tempo": 120.0
            },
            {
                "start_time": 103.17045454545455,
                "end_time": 103.25227272727273,
                "pitch": 45,
                "velocity": 127,
                "duration": 0.08181818181817846,
                "tempo": 120.0
            },
            {
                "start_time": 103.27045454545454,
                "end_time": 103.35681818181817,
                "pitch": 45,
                "velocity": 101,
                "duration": 0.08636363636362887,
                "tempo": 120.0
            },
            {
                "start_time": 103.375,
                "end_time": 103.46363636363635,
                "pitch": 57,
                "velocity": 101,
                "duration": 0.08863636363635408,
                "tempo": 120.0
            },
            {
                "start_time": 103.48181818181817,
                "end_time": 103.56818181818181,
                "pitch": 45,
                "velocity": 101,
                "duration": 0.08636363636364308,
                "tempo": 120.0
            },
            {
                "start_time": 103.58863636363635,
                "end_time": 103.66818181818181,
                "pitch": 45,
                "velocity": 127,
                "duration": 0.07954545454545325,
                "tempo": 120.0
            },
            {
                "start_time": 103.68636363636364,
                "end_time": 103.76818181818182,
                "pitch": 45,
                "velocity": 101,
                "duration": 0.08181818181817846,
                "tempo": 120.0
            },
            {
                "start_time": 103.7840909090909,
                "end_time": 103.86590909090908,
                "pitch": 57,
                "velocity": 101,
                "duration": 0.08181818181817846,
                "tempo": 120.0
            },
            {
                "start_time": 103.88181818181818,
                "end_time": 103.96363636363635,
                "pitch": 45,
                "velocity": 101,
                "duration": 0.08181818181817846,
                "tempo": 120.0
            },
            {
                "start_time": 103.98181818181817,
                "end_time": 104.06363636363636,
                "pitch": 45,
                "velocity": 127,
                "duration": 0.08181818181819267,
                "tempo": 120.0
            },
            {
                "start_time": 104.08181818181818,
                "end_time": 104.16363636363636,
                "pitch": 45,
                "velocity": 101,
                "duration": 0.08181818181817846,
                "tempo": 120.0
            },
            {
                "start_time": 104.18181818181817,
                "end_time": 104.26590909090909,
                "pitch": 57,
                "velocity": 101,
                "duration": 0.08409090909091788,
                "tempo": 120.0
            },
            {
                "start_time": 104.28181818181818,
                "end_time": 104.36590909090908,
                "pitch": 45,
                "velocity": 101,
                "duration": 0.08409090909090366,
                "tempo": 120.0
            },
            {
                "start_time": 104.3840909090909,
                "end_time": 104.46590909090908,
                "pitch": 45,
                "velocity": 127,
                "duration": 0.08181818181817846,
                "tempo": 120.0
            },
            {
                "start_time": 104.48409090909091,
                "end_time": 104.56818181818181,
                "pitch": 45,
                "velocity": 101,
                "duration": 0.08409090909090366,
                "tempo": 120.0
            },
            {
                "start_time": 104.58636363636363,
                "end_time": 104.66818181818181,
                "pitch": 57,
                "velocity": 101,
                "duration": 0.08181818181817846,
                "tempo": 120.0
            },
            {
                "start_time": 104.68636363636364,
                "end_time": 104.77045454545454,
                "pitch": 45,
                "velocity": 101,
                "duration": 0.08409090909090366,
                "tempo": 120.0
            },
            {
                "start_time": 104.78863636363636,
                "end_time": 104.87045454545454,
                "pitch": 43,
                "velocity": 127,
                "duration": 0.08181818181817846,
                "tempo": 120.0
            },
            {
                "start_time": 104.88636363636363,
                "end_time": 104.97045454545454,
                "pitch": 43,
                "velocity": 101,
                "duration": 0.08409090909091788,
                "tempo": 120.0
            },
            {
                "start_time": 104.98636363636363,
                "end_time": 105.07045454545454,
                "pitch": 55,
                "velocity": 101,
                "duration": 0.08409090909090366,
                "tempo": 120.0
            },
            {
                "start_time": 105.08636363636363,
                "end_time": 105.17045454545455,
                "pitch": 43,
                "velocity": 101,
                "duration": 0.08409090909091788,
                "tempo": 120.0
            },
            {
                "start_time": 105.18863636363636,
                "end_time": 105.27045454545454,
                "pitch": 43,
                "velocity": 127,
                "duration": 0.08181818181817846,
                "tempo": 120.0
            },
            {
                "start_time": 105.28863636363636,
                "end_time": 105.37045454545454,
                "pitch": 43,
                "velocity": 101,
                "duration": 0.08181818181817846,
                "tempo": 120.0
            },
            {
                "start_time": 105.38863636363637,
                "end_time": 105.47272727272727,
                "pitch": 55,
                "velocity": 101,
                "duration": 0.08409090909090366,
                "tempo": 120.0
            },
            {
                "start_time": 105.48863636363636,
                "end_time": 105.57272727272726,
                "pitch": 43,
                "velocity": 101,
                "duration": 0.08409090909090366,
                "tempo": 120.0
            },
            {
                "start_time": 105.59090909090908,
                "end_time": 105.67272727272727,
                "pitch": 43,
                "velocity": 127,
                "duration": 0.08181818181819267,
                "tempo": 120.0
            },
            {
                "start_time": 105.69090909090909,
                "end_time": 105.77272727272727,
                "pitch": 43,
                "velocity": 101,
                "duration": 0.08181818181817846,
                "tempo": 120.0
            },
            {
                "start_time": 105.79090909090908,
                "end_time": 105.87272727272726,
                "pitch": 55,
                "velocity": 101,
                "duration": 0.08181818181817846,
                "tempo": 120.0
            },
            {
                "start_time": 105.89090909090909,
                "end_time": 105.97272727272727,
                "pitch": 43,
                "velocity": 101,
                "duration": 0.08181818181817846,
                "tempo": 120.0
            },
            {
                "start_time": 105.99090909090908,
                "end_time": 106.07499999999999,
                "pitch": 43,
                "velocity": 127,
                "duration": 0.08409090909090366,
                "tempo": 120.0
            },
            {
                "start_time": 106.09090909090908,
                "end_time": 106.175,
                "pitch": 43,
                "velocity": 101,
                "duration": 0.08409090909091788,
                "tempo": 120.0
            },
            {
                "start_time": 106.19318181818181,
                "end_time": 106.27499999999999,
                "pitch": 55,
                "velocity": 101,
                "duration": 0.08181818181817846,
                "tempo": 120.0
            },
            {
                "start_time": 106.29318181818181,
                "end_time": 106.37727272727273,
                "pitch": 43,
                "velocity": 101,
                "duration": 0.08409090909091788,
                "tempo": 120.0
            },
            {
                "start_time": 106.39545454545454,
                "end_time": 106.47727272727272,
                "pitch": 47,
                "velocity": 127,
                "duration": 0.08181818181817846,
                "tempo": 120.0
            },
            {
                "start_time": 106.49545454545454,
                "end_time": 106.57954545454545,
                "pitch": 47,
                "velocity": 101,
                "duration": 0.08409090909091788,
                "tempo": 120.0
            },
            {
                "start_time": 106.59545454545454,
                "end_time": 106.67954545454545,
                "pitch": 59,
                "velocity": 101,
                "duration": 0.08409090909090366,
                "tempo": 120.0
            },
            {
                "start_time": 106.69772727272726,
                "end_time": 106.77954545454546,
                "pitch": 47,
                "velocity": 101,
                "duration": 0.08181818181819267,
                "tempo": 120.0
            },
            {
                "start_time": 106.79772727272727,
                "end_time": 106.87954545454545,
                "pitch": 47,
                "velocity": 127,
                "duration": 0.08181818181817846,
                "tempo": 120.0
            },
            {
                "start_time": 106.89772727272727,
                "end_time": 106.97954545454544,
                "pitch": 47,
                "velocity": 101,
                "duration": 0.08181818181817846,
                "tempo": 120.0
            },
            {
                "start_time": 106.99772727272726,
                "end_time": 107.07954545454545,
                "pitch": 59,
                "velocity": 101,
                "duration": 0.08181818181819267,
                "tempo": 120.0
            },
            {
                "start_time": 107.09772727272727,
                "end_time": 107.17954545454545,
                "pitch": 47,
                "velocity": 101,
                "duration": 0.08181818181817846,
                "tempo": 120.0
            },
            {
                "start_time": 107.19772727272726,
                "end_time": 107.28181818181818,
                "pitch": 47,
                "velocity": 127,
                "duration": 0.08409090909091788,
                "tempo": 120.0
            },
            {
                "start_time": 107.29772727272727,
                "end_time": 107.38181818181818,
                "pitch": 47,
                "velocity": 101,
                "duration": 0.08409090909090366,
                "tempo": 120.0
            },
            {
                "start_time": 107.39999999999999,
                "end_time": 107.48181818181817,
                "pitch": 59,
                "velocity": 101,
                "duration": 0.08181818181817846,
                "tempo": 120.0
            },
            {
                "start_time": 107.5,
                "end_time": 107.5840909090909,
                "pitch": 47,
                "velocity": 101,
                "duration": 0.08409090909090366,
                "tempo": 120.0
            },
            {
                "start_time": 107.60227272727272,
                "end_time": 107.6840909090909,
                "pitch": 47,
                "velocity": 127,
                "duration": 0.08181818181817846,
                "tempo": 120.0
            },
            {
                "start_time": 107.70227272727273,
                "end_time": 107.7840909090909,
                "pitch": 47,
                "velocity": 101,
                "duration": 0.08181818181817846,
                "tempo": 120.0
            },
            {
                "start_time": 107.80227272727272,
                "end_time": 107.8840909090909,
                "pitch": 59,
                "velocity": 101,
                "duration": 0.08181818181817846,
                "tempo": 120.0
            },
            {
                "start_time": 107.90227272727272,
                "end_time": 107.98409090909091,
                "pitch": 47,
                "velocity": 101,
                "duration": 0.08181818181819267,
                "tempo": 120.0
            },
            {
                "start_time": 108.00227272727273,
                "end_time": 108.0840909090909,
                "pitch": 45,
                "velocity": 127,
                "duration": 0.08181818181817846,
                "tempo": 120.0
            },
            {
                "start_time": 108.10227272727272,
                "end_time": 108.18636363636364,
                "pitch": 45,
                "velocity": 101,
                "duration": 0.08409090909091788,
                "tempo": 120.0
            },
            {
                "start_time": 108.20227272727273,
                "end_time": 108.28636363636363,
                "pitch": 57,
                "velocity": 101,
                "duration": 0.08409090909090366,
                "tempo": 120.0
            },
            {
                "start_time": 108.30454545454545,
                "end_time": 108.38636363636363,
                "pitch": 45,
                "velocity": 101,
                "duration": 0.08181818181817846,
                "tempo": 120.0
            },
            {
                "start_time": 108.40454545454546,
                "end_time": 108.48863636363636,
                "pitch": 45,
                "velocity": 127,
                "duration": 0.08409090909090366,
                "tempo": 120.0
            },
            {
                "start_time": 108.50681818181818,
                "end_time": 108.58863636363635,
                "pitch": 45,
                "velocity": 101,
                "duration": 0.08181818181817846,
                "tempo": 120.0
            },
            {
                "start_time": 108.60681818181817,
                "end_time": 108.69090909090909,
                "pitch": 57,
                "velocity": 101,
                "duration": 0.08409090909091788,
                "tempo": 120.0
            },
            {
                "start_time": 108.70681818181818,
                "end_time": 108.79090909090908,
                "pitch": 45,
                "velocity": 101,
                "duration": 0.08409090909090366,
                "tempo": 120.0
            },
            {
                "start_time": 108.8090909090909,
                "end_time": 108.89090909090909,
                "pitch": 45,
                "velocity": 127,
                "duration": 0.08181818181819267,
                "tempo": 120.0
            },
            {
                "start_time": 108.9090909090909,
                "end_time": 108.99090909090908,
                "pitch": 45,
                "velocity": 101,
                "duration": 0.08181818181817846,
                "tempo": 120.0
            },
            {
                "start_time": 109.0090909090909,
                "end_time": 109.09090909090908,
                "pitch": 57,
                "velocity": 101,
                "duration": 0.08181818181817846,
                "tempo": 120.0
            },
            {
                "start_time": 109.10909090909091,
                "end_time": 109.19090909090909,
                "pitch": 45,
                "velocity": 101,
                "duration": 0.08181818181817846,
                "tempo": 120.0
            },
            {
                "start_time": 109.2090909090909,
                "end_time": 109.29090909090908,
                "pitch": 45,
                "velocity": 127,
                "duration": 0.08181818181817846,
                "tempo": 120.0
            },
            {
                "start_time": 109.3090909090909,
                "end_time": 109.39318181818182,
                "pitch": 45,
                "velocity": 101,
                "duration": 0.08409090909091788,
                "tempo": 120.0
            },
            {
                "start_time": 109.41136363636363,
                "end_time": 109.49318181818181,
                "pitch": 57,
                "velocity": 101,
                "duration": 0.08181818181817846,
                "tempo": 120.0
            },
            {
                "start_time": 109.51136363636363,
                "end_time": 109.59545454545454,
                "pitch": 45,
                "velocity": 101,
                "duration": 0.08409090909091788,
                "tempo": 120.0
            },
            {
                "start_time": 109.61363636363636,
                "end_time": 109.69772727272726,
                "pitch": 45,
                "velocity": 127,
                "duration": 0.08409090909090366,
                "tempo": 120.0
            },
            {
                "start_time": 109.71363636363635,
                "end_time": 109.8,
                "pitch": 45,
                "velocity": 101,
                "duration": 0.08636363636364308,
                "tempo": 120.0
            },
            {
                "start_time": 109.81818181818181,
                "end_time": 109.90227272727272,
                "pitch": 57,
                "velocity": 101,
                "duration": 0.08409090909090366,
                "tempo": 120.0
            },
            {
                "start_time": 109.92045454545455,
                "end_time": 110.00454545454545,
                "pitch": 45,
                "velocity": 101,
                "duration": 0.08409090909090366,
                "tempo": 120.0
            },
            {
                "start_time": 110.02272727272727,
                "end_time": 110.10454545454544,
                "pitch": 45,
                "velocity": 127,
                "duration": 0.08181818181817846,
                "tempo": 120.0
            },
            {
                "start_time": 110.12045454545454,
                "end_time": 110.20227272727273,
                "pitch": 45,
                "velocity": 101,
                "duration": 0.08181818181819267,
                "tempo": 120.0
            },
            {
                "start_time": 110.22045454545454,
                "end_time": 110.3,
                "pitch": 57,
                "velocity": 101,
                "duration": 0.07954545454545325,
                "tempo": 120.0
            },
            {
                "start_time": 110.31818181818181,
                "end_time": 110.39772727272727,
                "pitch": 45,
                "velocity": 101,
                "duration": 0.07954545454545325,
                "tempo": 120.0
            },
            {
                "start_time": 110.41590909090908,
                "end_time": 110.5,
                "pitch": 45,
                "velocity": 127,
                "duration": 0.08409090909091788,
                "tempo": 120.0
            },
            {
                "start_time": 110.51590909090909,
                "end_time": 110.6,
                "pitch": 45,
                "velocity": 101,
                "duration": 0.08409090909090366,
                "tempo": 120.0
            },
            {
                "start_time": 110.61818181818181,
                "end_time": 110.69999999999999,
                "pitch": 57,
                "velocity": 101,
                "duration": 0.08181818181817846,
                "tempo": 120.0
            },
            {
                "start_time": 110.71818181818182,
                "end_time": 110.80227272727272,
                "pitch": 45,
                "velocity": 101,
                "duration": 0.08409090909090366,
                "tempo": 120.0
            },
            {
                "start_time": 110.81818181818181,
                "end_time": 110.90227272727272,
                "pitch": 45,
                "velocity": 127,
                "duration": 0.08409090909090366,
                "tempo": 120.0
            },
            {
                "start_time": 110.91818181818181,
                "end_time": 111.00227272727273,
                "pitch": 45,
                "velocity": 101,
                "duration": 0.08409090909091788,
                "tempo": 120.0
            },
            {
                "start_time": 111.02045454545454,
                "end_time": 111.10227272727272,
                "pitch": 57,
                "velocity": 101,
                "duration": 0.08181818181817846,
                "tempo": 120.0
            },
            {
                "start_time": 111.12045454545454,
                "end_time": 111.20227272727273,
                "pitch": 45,
                "velocity": 101,
                "duration": 0.08181818181819267,
                "tempo": 120.0
            },
            {
                "start_time": 111.22045454545454,
                "end_time": 111.30454545454545,
                "pitch": 43,
                "velocity": 127,
                "duration": 0.08409090909090366,
                "tempo": 120.0
            },
            {
                "start_time": 111.32272727272726,
                "end_time": 111.40681818181818,
                "pitch": 43,
                "velocity": 101,
                "duration": 0.08409090909091788,
                "tempo": 120.0
            },
            {
                "start_time": 111.425,
                "end_time": 111.5090909090909,
                "pitch": 55,
                "velocity": 101,
                "duration": 0.08409090909090366,
                "tempo": 120.0
            },
            {
                "start_time": 111.52727272727272,
                "end_time": 111.61363636363636,
                "pitch": 43,
                "velocity": 101,
                "duration": 0.08636363636364308,
                "tempo": 120.0
            },
            {
                "start_time": 111.63181818181818,
                "end_time": 111.71363636363635,
                "pitch": 43,
                "velocity": 127,
                "duration": 0.08181818181817846,
                "tempo": 120.0
            },
            {
                "start_time": 111.73181818181817,
                "end_time": 111.81590909090909,
                "pitch": 43,
                "velocity": 101,
                "duration": 0.08409090909091788,
                "tempo": 120.0
            },
            {
                "start_time": 111.83181818181818,
                "end_time": 111.91590909090908,
                "pitch": 55,
                "velocity": 101,
                "duration": 0.08409090909090366,
                "tempo": 120.0
            },
            {
                "start_time": 111.9340909090909,
                "end_time": 112.01590909090909,
                "pitch": 43,
                "velocity": 101,
                "duration": 0.08181818181819267,
                "tempo": 120.0
            },
            {
                "start_time": 112.0340909090909,
                "end_time": 112.11818181818181,
                "pitch": 43,
                "velocity": 127,
                "duration": 0.08409090909090366,
                "tempo": 120.0
            },
            {
                "start_time": 112.1340909090909,
                "end_time": 112.21818181818182,
                "pitch": 43,
                "velocity": 101,
                "duration": 0.08409090909091788,
                "tempo": 120.0
            },
            {
                "start_time": 112.23636363636363,
                "end_time": 112.31818181818181,
                "pitch": 55,
                "velocity": 101,
                "duration": 0.08181818181817846,
                "tempo": 120.0
            },
            {
                "start_time": 112.33636363636363,
                "end_time": 112.42045454545455,
                "pitch": 43,
                "velocity": 101,
                "duration": 0.08409090909091788,
                "tempo": 120.0
            },
            {
                "start_time": 112.43863636363636,
                "end_time": 112.52045454545454,
                "pitch": 43,
                "velocity": 127,
                "duration": 0.08181818181817846,
                "tempo": 120.0
            },
            {
                "start_time": 112.53863636363636,
                "end_time": 112.62045454545454,
                "pitch": 43,
                "velocity": 101,
                "duration": 0.08181818181817846,
                "tempo": 120.0
            },
            {
                "start_time": 112.63863636363635,
                "end_time": 112.72045454545454,
                "pitch": 55,
                "velocity": 101,
                "duration": 0.08181818181819267,
                "tempo": 120.0
            },
            {
                "start_time": 112.73863636363636,
                "end_time": 112.82045454545454,
                "pitch": 43,
                "velocity": 101,
                "duration": 0.08181818181817846,
                "tempo": 120.0
            },
            {
                "start_time": 112.83863636363635,
                "end_time": 112.92045454545455,
                "pitch": 47,
                "velocity": 127,
                "duration": 0.08181818181819267,
                "tempo": 120.0
            },
            {
                "start_time": 112.93863636363636,
                "end_time": 113.02272727272727,
                "pitch": 47,
                "velocity": 101,
                "duration": 0.08409090909090366,
                "tempo": 120.0
            },
            {
                "start_time": 113.03863636363636,
                "end_time": 113.12272727272726,
                "pitch": 59,
                "velocity": 101,
                "duration": 0.08409090909090366,
                "tempo": 120.0
            },
            {
                "start_time": 113.14090909090909,
                "end_time": 113.22272727272727,
                "pitch": 47,
                "velocity": 101,
                "duration": 0.08181818181817846,
                "tempo": 120.0
            },
            {
                "start_time": 113.24090909090908,
                "end_time": 113.32499999999999,
                "pitch": 47,
                "velocity": 127,
                "duration": 0.08409090909090366,
                "tempo": 120.0
            },
            {
                "start_time": 113.34090909090908,
                "end_time": 113.425,
                "pitch": 47,
                "velocity": 101,
                "duration": 0.08409090909091788,
                "tempo": 120.0
            },
            {
                "start_time": 113.44090909090909,
                "end_time": 113.52499999999999,
                "pitch": 59,
                "velocity": 101,
                "duration": 0.08409090909090366,
                "tempo": 120.0
            },
            {
                "start_time": 113.54090909090908,
                "end_time": 113.625,
                "pitch": 47,
                "velocity": 101,
                "duration": 0.08409090909091788,
                "tempo": 120.0
            },
            {
                "start_time": 113.64090909090909,
                "end_time": 113.725,
                "pitch": 47,
                "velocity": 127,
                "duration": 0.08409090909090366,
                "tempo": 120.0
            },
            {
                "start_time": 113.74318181818181,
                "end_time": 113.82499999999999,
                "pitch": 47,
                "velocity": 101,
                "duration": 0.08181818181817846,
                "tempo": 120.0
            },
            {
                "start_time": 113.84318181818182,
                "end_time": 113.92727272727272,
                "pitch": 59,
                "velocity": 101,
                "duration": 0.08409090909090366,
                "tempo": 120.0
            },
            {
                "start_time": 113.94318181818181,
                "end_time": 114.02727272727272,
                "pitch": 47,
                "velocity": 101,
                "duration": 0.08409090909090366,
                "tempo": 120.0
            },
            {
                "start_time": 114.04545454545455,
                "end_time": 114.12727272727273,
                "pitch": 47,
                "velocity": 127,
                "duration": 0.08181818181817846,
                "tempo": 120.0
            },
            {
                "start_time": 114.14545454545454,
                "end_time": 114.22954545454544,
                "pitch": 47,
                "velocity": 101,
                "duration": 0.08409090909090366,
                "tempo": 120.0
            },
            {
                "start_time": 114.24772727272726,
                "end_time": 114.32954545454545,
                "pitch": 59,
                "velocity": 101,
                "duration": 0.08181818181819267,
                "tempo": 120.0
            },
            {
                "start_time": 114.34772727272727,
                "end_time": 114.42954545454545,
                "pitch": 47,
                "velocity": 101,
                "duration": 0.08181818181817846,
                "tempo": 120.0
            },
            {
                "start_time": 114.44999999999999,
                "end_time": 114.53181818181818,
                "pitch": 45,
                "velocity": 127,
                "duration": 0.08181818181819267,
                "tempo": 120.0
            },
            {
                "start_time": 114.54772727272727,
                "end_time": 114.63181818181818,
                "pitch": 45,
                "velocity": 101,
                "duration": 0.08409090909090366,
                "tempo": 120.0
            },
            {
                "start_time": 114.64772727272727,
                "end_time": 114.73181818181817,
                "pitch": 57,
                "velocity": 101,
                "duration": 0.08409090909090366,
                "tempo": 120.0
            },
            {
                "start_time": 114.74772727272726,
                "end_time": 114.83181818181818,
                "pitch": 45,
                "velocity": 101,
                "duration": 0.08409090909091788,
                "tempo": 120.0
            },
            {
                "start_time": 114.84772727272727,
                "end_time": 114.93181818181817,
                "pitch": 45,
                "velocity": 127,
                "duration": 0.08409090909090366,
                "tempo": 120.0
            },
            {
                "start_time": 114.94999999999999,
                "end_time": 115.03181818181818,
                "pitch": 45,
                "velocity": 101,
                "duration": 0.08181818181819267,
                "tempo": 120.0
            },
            {
                "start_time": 115.05,
                "end_time": 115.1340909090909,
                "pitch": 57,
                "velocity": 101,
                "duration": 0.08409090909090366,
                "tempo": 120.0
            },
            {
                "start_time": 115.14999999999999,
                "end_time": 115.23409090909091,
                "pitch": 45,
                "velocity": 101,
                "duration": 0.08409090909091788,
                "tempo": 120.0
            },
            {
                "start_time": 115.25227272727273,
                "end_time": 115.3340909090909,
                "pitch": 45,
                "velocity": 127,
                "duration": 0.08181818181817846,
                "tempo": 120.0
            },
            {
                "start_time": 115.35227272727272,
                "end_time": 115.4340909090909,
                "pitch": 45,
                "velocity": 101,
                "duration": 0.08181818181817846,
                "tempo": 120.0
            },
            {
                "start_time": 115.45227272727273,
                "end_time": 115.5340909090909,
                "pitch": 57,
                "velocity": 101,
                "duration": 0.08181818181817846,
                "tempo": 120.0
            },
            {
                "start_time": 115.55227272727272,
                "end_time": 115.6340909090909,
                "pitch": 45,
                "velocity": 101,
                "duration": 0.08181818181817846,
                "tempo": 120.0
            },
            {
                "start_time": 115.65227272727272,
                "end_time": 115.73636363636363,
                "pitch": 45,
                "velocity": 127,
                "duration": 0.08409090909091788,
                "tempo": 120.0
            },
            {
                "start_time": 115.75227272727273,
                "end_time": 115.83636363636363,
                "pitch": 45,
                "velocity": 101,
                "duration": 0.08409090909090366,
                "tempo": 120.0
            },
            {
                "start_time": 115.85454545454544,
                "end_time": 115.93636363636364,
                "pitch": 57,
                "velocity": 101,
                "duration": 0.08181818181819267,
                "tempo": 120.0
            },
            {
                "start_time": 115.95454545454545,
                "end_time": 116.03863636363636,
                "pitch": 45,
                "velocity": 101,
                "duration": 0.08409090909090366,
                "tempo": 120.0
            },
            {
                "start_time": 116.06136363636364,
                "end_time": 116.14090909090909,
                "pitch": 45,
                "velocity": 127,
                "duration": 0.07954545454545325,
                "tempo": 120.0
            },
            {
                "start_time": 116.1590909090909,
                "end_time": 116.24318181818181,
                "pitch": 48,
                "velocity": 101,
                "duration": 0.08409090909090366,
                "tempo": 120.0
            },
            {
                "start_time": 116.26136363636363,
                "end_time": 116.34545454545454,
                "pitch": 47,
                "velocity": 101,
                "duration": 0.08409090909091788,
                "tempo": 120.0
            },
            {
                "start_time": 116.36363636363636,
                "end_time": 116.44999999999999,
                "pitch": 48,
                "velocity": 101,
                "duration": 0.08636363636362887,
                "tempo": 120.0
            },
            {
                "start_time": 116.46818181818182,
                "end_time": 116.54772727272727,
                "pitch": 45,
                "velocity": 127,
                "duration": 0.07954545454545325,
                "tempo": 120.0
            },
            {
                "start_time": 116.56590909090909,
                "end_time": 116.64545454545454,
                "pitch": 48,
                "velocity": 101,
                "duration": 0.07954545454545325,
                "tempo": 120.0
            },
            {
                "start_time": 116.66363636363636,
                "end_time": 116.74318181818181,
                "pitch": 47,
                "velocity": 101,
                "duration": 0.07954545454545325,
                "tempo": 120.0
            },
            {
                "start_time": 116.76136363636363,
                "end_time": 116.84318181818182,
                "pitch": 48,
                "velocity": 101,
                "duration": 0.08181818181819267,
                "tempo": 120.0
            },
            {
                "start_time": 116.85909090909091,
                "end_time": 116.94318181818181,
                "pitch": 45,
                "velocity": 127,
                "duration": 0.08409090909090366,
                "tempo": 120.0
            },
            {
                "start_time": 116.96136363636363,
                "end_time": 117.04318181818181,
                "pitch": 48,
                "velocity": 101,
                "duration": 0.08181818181817846,
                "tempo": 120.0
            },
            {
                "start_time": 117.06136363636364,
                "end_time": 117.14545454545454,
                "pitch": 47,
                "velocity": 101,
                "duration": 0.08409090909090366,
                "tempo": 120.0
            },
            {
                "start_time": 117.16136363636363,
                "end_time": 117.24545454545454,
                "pitch": 48,
                "velocity": 101,
                "duration": 0.08409090909090366,
                "tempo": 120.0
            },
            {
                "start_time": 117.26363636363635,
                "end_time": 117.34545454545454,
                "pitch": 45,
                "velocity": 127,
                "duration": 0.08181818181819267,
                "tempo": 120.0
            },
            {
                "start_time": 117.36363636363636,
                "end_time": 117.44545454545454,
                "pitch": 48,
                "velocity": 101,
                "duration": 0.08181818181817846,
                "tempo": 120.0
            },
            {
                "start_time": 117.46363636363635,
                "end_time": 117.54545454545455,
                "pitch": 47,
                "velocity": 101,
                "duration": 0.08181818181819267,
                "tempo": 120.0
            },
            {
                "start_time": 117.56363636363636,
                "end_time": 117.64545454545454,
                "pitch": 48,
                "velocity": 101,
                "duration": 0.08181818181817846,
                "tempo": 120.0
            },
            {
                "start_time": 117.66590909090908,
                "end_time": 117.74772727272726,
                "pitch": 43,
                "velocity": 127,
                "duration": 0.08181818181817846,
                "tempo": 120.0
            },
            {
                "start_time": 117.76590909090909,
                "end_time": 117.85,
                "pitch": 47,
                "velocity": 101,
                "duration": 0.08409090909090366,
                "tempo": 120.0
            },
            {
                "start_time": 117.86818181818181,
                "end_time": 117.95454545454545,
                "pitch": 45,
                "velocity": 101,
                "duration": 0.08636363636364308,
                "tempo": 120.0
            },
            {
                "start_time": 117.97045454545454,
                "end_time": 118.05681818181817,
                "pitch": 47,
                "velocity": 101,
                "duration": 0.08636363636362887,
                "tempo": 120.0
            },
            {
                "start_time": 118.07499999999999,
                "end_time": 118.15681818181818,
                "pitch": 43,
                "velocity": 127,
                "duration": 0.08181818181819267,
                "tempo": 120.0
            },
            {
                "start_time": 118.175,
                "end_time": 118.25681818181818,
                "pitch": 47,
                "velocity": 101,
                "duration": 0.08181818181817846,
                "tempo": 120.0
            },
            {
                "start_time": 118.27499999999999,
                "end_time": 118.35681818181817,
                "pitch": 45,
                "velocity": 101,
                "duration": 0.08181818181817846,
                "tempo": 120.0
            },
            {
                "start_time": 118.375,
                "end_time": 118.45681818181818,
                "pitch": 47,
                "velocity": 101,
                "duration": 0.08181818181817846,
                "tempo": 120.0
            },
            {
                "start_time": 118.475,
                "end_time": 118.55681818181817,
                "pitch": 43,
                "velocity": 127,
                "duration": 0.08181818181817846,
                "tempo": 120.0
            },
            {
                "start_time": 118.57272727272726,
                "end_time": 118.65454545454544,
                "pitch": 47,
                "velocity": 101,
                "duration": 0.08181818181817846,
                "tempo": 120.0
            },
            {
                "start_time": 118.67045454545455,
                "end_time": 118.75227272727273,
                "pitch": 45,
                "velocity": 101,
                "duration": 0.08181818181817846,
                "tempo": 120.0
            },
            {
                "start_time": 118.77045454545454,
                "end_time": 118.85,
                "pitch": 47,
                "velocity": 101,
                "duration": 0.07954545454545325,
                "tempo": 120.0
            },
            {
                "start_time": 118.86818181818181,
                "end_time": 118.95227272727273,
                "pitch": 43,
                "velocity": 127,
                "duration": 0.08409090909091788,
                "tempo": 120.0
            },
            {
                "start_time": 118.96818181818182,
                "end_time": 119.05227272727272,
                "pitch": 47,
                "velocity": 101,
                "duration": 0.08409090909090366,
                "tempo": 120.0
            },
            {
                "start_time": 119.06818181818181,
                "end_time": 119.15227272727272,
                "pitch": 45,
                "velocity": 101,
                "duration": 0.08409090909090366,
                "tempo": 120.0
            },
            {
                "start_time": 119.17045454545455,
                "end_time": 119.25454545454545,
                "pitch": 47,
                "velocity": 101,
                "duration": 0.08409090909090366,
                "tempo": 120.0
            },
            {
                "start_time": 119.27272727272727,
                "end_time": 119.35681818181817,
                "pitch": 47,
                "velocity": 127,
                "duration": 0.08409090909090366,
                "tempo": 120.0
            },
            {
                "start_time": 119.37272727272726,
                "end_time": 119.4590909090909,
                "pitch": 50,
                "velocity": 101,
                "duration": 0.08636363636364308,
                "tempo": 120.0
            },
            {
                "start_time": 119.47727272727272,
                "end_time": 119.56136363636364,
                "pitch": 48,
                "velocity": 101,
                "duration": 0.08409090909091788,
                "tempo": 120.0
            },
            {
                "start_time": 119.57954545454545,
                "end_time": 119.66363636363636,
                "pitch": 50,
                "velocity": 101,
                "duration": 0.08409090909090366,
                "tempo": 120.0
            },
            {
                "start_time": 119.6840909090909,
                "end_time": 119.76590909090909,
                "pitch": 47,
                "velocity": 127,
                "duration": 0.08181818181819267,
                "tempo": 120.0
            },
            {
                "start_time": 119.7840909090909,
                "end_time": 119.86590909090908,
                "pitch": 50,
                "velocity": 101,
                "duration": 0.08181818181817846,
                "tempo": 120.0
            },
            {
                "start_time": 119.8840909090909,
                "end_time": 119.96818181818182,
                "pitch": 48,
                "velocity": 101,
                "duration": 0.08409090909091788,
                "tempo": 120.0
            },
            {
                "start_time": 119.98409090909091,
                "end_time": 120.06818181818181,
                "pitch": 50,
                "velocity": 101,
                "duration": 0.08409090909090366,
                "tempo": 120.0
            },
            {
                "start_time": 120.08636363636363,
                "end_time": 120.16818181818181,
                "pitch": 47,
                "velocity": 127,
                "duration": 0.08181818181817846,
                "tempo": 120.0
            },
            {
                "start_time": 120.18636363636364,
                "end_time": 120.26818181818182,
                "pitch": 50,
                "velocity": 101,
                "duration": 0.08181818181817846,
                "tempo": 120.0
            },
            {
                "start_time": 120.28636363636363,
                "end_time": 120.36818181818181,
                "pitch": 48,
                "velocity": 101,
                "duration": 0.08181818181817846,
                "tempo": 120.0
            },
            {
                "start_time": 120.38636363636363,
                "end_time": 120.46818181818182,
                "pitch": 50,
                "velocity": 101,
                "duration": 0.08181818181819267,
                "tempo": 120.0
            },
            {
                "start_time": 120.48636363636363,
                "end_time": 120.57045454545454,
                "pitch": 47,
                "velocity": 127,
                "duration": 0.08409090909090366,
                "tempo": 120.0
            },
            {
                "start_time": 120.58636363636363,
                "end_time": 120.67045454545453,
                "pitch": 50,
                "velocity": 101,
                "duration": 0.08409090909090366,
                "tempo": 120.0
            },
            {
                "start_time": 120.68863636363636,
                "end_time": 120.77045454545454,
                "pitch": 48,
                "velocity": 101,
                "duration": 0.08181818181817846,
                "tempo": 120.0
            },
            {
                "start_time": 120.78863636363636,
                "end_time": 120.87272727272726,
                "pitch": 50,
                "velocity": 101,
                "duration": 0.08409090909090366,
                "tempo": 120.0
            },
            {
                "start_time": 120.89090909090909,
                "end_time": 120.97272727272727,
                "pitch": 45,
                "velocity": 127,
                "duration": 0.08181818181817846,
                "tempo": 120.0
            },
            {
                "start_time": 120.98863636363636,
                "end_time": 121.07272727272726,
                "pitch": 48,
                "velocity": 101,
                "duration": 0.08409090909090366,
                "tempo": 120.0
            },
            {
                "start_time": 121.09090909090908,
                "end_time": 121.17272727272727,
                "pitch": 47,
                "velocity": 101,
                "duration": 0.08181818181819267,
                "tempo": 120.0
            },
            {
                "start_time": 121.19090909090909,
                "end_time": 121.27272727272727,
                "pitch": 48,
                "velocity": 101,
                "duration": 0.08181818181817846,
                "tempo": 120.0
            },
            {
                "start_time": 121.29090909090908,
                "end_time": 121.37272727272726,
                "pitch": 45,
                "velocity": 127,
                "duration": 0.08181818181817846,
                "tempo": 120.0
            },
            {
                "start_time": 121.39090909090909,
                "end_time": 121.475,
                "pitch": 48,
                "velocity": 101,
                "duration": 0.08409090909090366,
                "tempo": 120.0
            },
            {
                "start_time": 121.49090909090908,
                "end_time": 121.57499999999999,
                "pitch": 47,
                "velocity": 101,
                "duration": 0.08409090909090366,
                "tempo": 120.0
            },
            {
                "start_time": 121.59318181818182,
                "end_time": 121.675,
                "pitch": 48,
                "velocity": 101,
                "duration": 0.08181818181817846,
                "tempo": 120.0
            },
            {
                "start_time": 121.69318181818181,
                "end_time": 121.77727272727272,
                "pitch": 45,
                "velocity": 127,
                "duration": 0.08409090909090366,
                "tempo": 120.0
            },
            {
                "start_time": 121.79318181818181,
                "end_time": 121.87727272727273,
                "pitch": 48,
                "velocity": 101,
                "duration": 0.08409090909091788,
                "tempo": 120.0
            },
            {
                "start_time": 121.89545454545454,
                "end_time": 121.97727272727272,
                "pitch": 47,
                "velocity": 101,
                "duration": 0.08181818181817846,
                "tempo": 120.0
            },
            {
                "start_time": 121.99545454545454,
                "end_time": 122.07954545454545,
                "pitch": 48,
                "velocity": 101,
                "duration": 0.08409090909091788,
                "tempo": 120.0
            },
            {
                "start_time": 122.09772727272727,
                "end_time": 122.17954545454545,
                "pitch": 45,
                "velocity": 127,
                "duration": 0.08181818181817846,
                "tempo": 120.0
            },
            {
                "start_time": 122.19545454545454,
                "end_time": 122.27954545454544,
                "pitch": 48,
                "velocity": 101,
                "duration": 0.08409090909090366,
                "tempo": 120.0
            },
            {
                "start_time": 122.29545454545453,
                "end_time": 122.37954545454545,
                "pitch": 47,
                "velocity": 101,
                "duration": 0.08409090909091788,
                "tempo": 120.0
            },
            {
                "start_time": 122.39772727272727,
                "end_time": 122.47954545454544,
                "pitch": 48,
                "velocity": 101,
                "duration": 0.08181818181817846,
                "tempo": 120.0
            },
            {
                "start_time": 122.5,
                "end_time": 122.57954545454545,
                "pitch": 45,
                "velocity": 127,
                "duration": 0.07954545454545325,
                "tempo": 120.0
            },
            {
                "start_time": 122.59772727272727,
                "end_time": 122.68181818181817,
                "pitch": 48,
                "velocity": 101,
                "duration": 0.08409090909090366,
                "tempo": 120.0
            },
            {
                "start_time": 122.69999999999999,
                "end_time": 122.78181818181818,
                "pitch": 47,
                "velocity": 101,
                "duration": 0.08181818181819267,
                "tempo": 120.0
            },
            {
                "start_time": 122.8,
                "end_time": 122.88181818181818,
                "pitch": 48,
                "velocity": 101,
                "duration": 0.08181818181817846,
                "tempo": 120.0
            },
            {
                "start_time": 122.90227272727272,
                "end_time": 122.98181818181817,
                "pitch": 45,
                "velocity": 127,
                "duration": 0.07954545454545325,
                "tempo": 120.0
            },
            {
                "start_time": 123.0,
                "end_time": 123.0840909090909,
                "pitch": 48,
                "velocity": 101,
                "duration": 0.08409090909090366,
                "tempo": 120.0
            },
            {
                "start_time": 123.1,
                "end_time": 123.1840909090909,
                "pitch": 47,
                "velocity": 101,
                "duration": 0.08409090909090366,
                "tempo": 120.0
            },
            {
                "start_time": 123.19999999999999,
                "end_time": 123.2840909090909,
                "pitch": 48,
                "velocity": 101,
                "duration": 0.08409090909091788,
                "tempo": 120.0
            },
            {
                "start_time": 123.30227272727272,
                "end_time": 123.3840909090909,
                "pitch": 45,
                "velocity": 127,
                "duration": 0.08181818181817846,
                "tempo": 120.0
            },
            {
                "start_time": 123.40227272727272,
                "end_time": 123.48409090909091,
                "pitch": 48,
                "velocity": 101,
                "duration": 0.08181818181819267,
                "tempo": 120.0
            },
            {
                "start_time": 123.50227272727273,
                "end_time": 123.58636363636363,
                "pitch": 47,
                "velocity": 101,
                "duration": 0.08409090909090366,
                "tempo": 120.0
            },
            {
                "start_time": 123.60227272727272,
                "end_time": 123.68636363636364,
                "pitch": 48,
                "velocity": 101,
                "duration": 0.08409090909091788,
                "tempo": 120.0
            },
            {
                "start_time": 123.70454545454545,
                "end_time": 123.78636363636363,
                "pitch": 45,
                "velocity": 127,
                "duration": 0.08181818181817846,
                "tempo": 120.0
            },
            {
                "start_time": 123.80454545454545,
                "end_time": 123.88863636363635,
                "pitch": 48,
                "velocity": 101,
                "duration": 0.08409090909090366,
                "tempo": 120.0
            },
            {
                "start_time": 123.90454545454544,
                "end_time": 123.98863636363636,
                "pitch": 47,
                "velocity": 101,
                "duration": 0.08409090909091788,
                "tempo": 120.0
            },
            {
                "start_time": 124.00681818181818,
                "end_time": 124.08863636363635,
                "pitch": 48,
                "velocity": 101,
                "duration": 0.08181818181817846,
                "tempo": 120.0
            },
            {
                "start_time": 124.10909090909091,
                "end_time": 124.19090909090909,
                "pitch": 43,
                "velocity": 127,
                "duration": 0.08181818181817846,
                "tempo": 120.0
            },
            {
                "start_time": 124.2090909090909,
                "end_time": 124.29545454545453,
                "pitch": 47,
                "velocity": 101,
                "duration": 0.08636363636362887,
                "tempo": 120.0
            },
            {
                "start_time": 124.31363636363636,
                "end_time": 124.39772727272727,
                "pitch": 45,
                "velocity": 101,
                "duration": 0.08409090909090366,
                "tempo": 120.0
            },
            {
                "start_time": 124.41590909090908,
                "end_time": 124.5,
                "pitch": 47,
                "velocity": 101,
                "duration": 0.08409090909091788,
                "tempo": 120.0
            },
            {
                "start_time": 124.52045454545454,
                "end_time": 124.6,
                "pitch": 43,
                "velocity": 127,
                "duration": 0.07954545454545325,
                "tempo": 120.0
            },
            {
                "start_time": 124.61590909090908,
                "end_time": 124.69772727272726,
                "pitch": 47,
                "velocity": 101,
                "duration": 0.08181818181817846,
                "tempo": 120.0
            },
            {
                "start_time": 124.71363636363635,
                "end_time": 124.79545454545453,
                "pitch": 45,
                "velocity": 101,
                "duration": 0.08181818181817846,
                "tempo": 120.0
            },
            {
                "start_time": 124.81363636363636,
                "end_time": 124.89318181818182,
                "pitch": 47,
                "velocity": 101,
                "duration": 0.07954545454545325,
                "tempo": 120.0
            },
            {
                "start_time": 124.91136363636363,
                "end_time": 124.99318181818181,
                "pitch": 43,
                "velocity": 127,
                "duration": 0.08181818181817846,
                "tempo": 120.0
            },
            {
                "start_time": 125.01136363636363,
                "end_time": 125.09318181818182,
                "pitch": 47,
                "velocity": 101,
                "duration": 0.08181818181819267,
                "tempo": 120.0
            },
            {
                "start_time": 125.11136363636363,
                "end_time": 125.19318181818181,
                "pitch": 45,
                "velocity": 101,
                "duration": 0.08181818181817846,
                "tempo": 120.0
            },
            {
                "start_time": 125.21136363636363,
                "end_time": 125.29318181818181,
                "pitch": 47,
                "velocity": 101,
                "duration": 0.08181818181817846,
                "tempo": 120.0
            },
            {
                "start_time": 125.31136363636362,
                "end_time": 125.39545454545454,
                "pitch": 43,
                "velocity": 127,
                "duration": 0.08409090909091788,
                "tempo": 120.0
            },
            {
                "start_time": 125.41136363636363,
                "end_time": 125.49545454545454,
                "pitch": 47,
                "velocity": 101,
                "duration": 0.08409090909090366,
                "tempo": 120.0
            },
            {
                "start_time": 125.51363636363635,
                "end_time": 125.59545454545454,
                "pitch": 45,
                "velocity": 101,
                "duration": 0.08181818181819267,
                "tempo": 120.0
            },
            {
                "start_time": 125.61363636363636,
                "end_time": 125.69772727272726,
                "pitch": 47,
                "velocity": 101,
                "duration": 0.08409090909090366,
                "tempo": 120.0
            },
            {
                "start_time": 125.71590909090908,
                "end_time": 125.8,
                "pitch": 47,
                "velocity": 127,
                "duration": 0.08409090909091788,
                "tempo": 120.0
            },
            {
                "start_time": 125.81818181818181,
                "end_time": 125.90227272727272,
                "pitch": 50,
                "velocity": 101,
                "duration": 0.08409090909090366,
                "tempo": 120.0
            },
            {
                "start_time": 125.92045454545453,
                "end_time": 126.00454545454545,
                "pitch": 48,
                "velocity": 101,
                "duration": 0.08409090909091788,
                "tempo": 120.0
            },
            {
                "start_time": 126.02272727272727,
                "end_time": 126.10909090909091,
                "pitch": 50,
                "velocity": 101,
                "duration": 0.08636363636364308,
                "tempo": 120.0
            },
            {
                "start_time": 126.12727272727273,
                "end_time": 126.20681818181818,
                "pitch": 47,
                "velocity": 127,
                "duration": 0.07954545454545325,
                "tempo": 120.0
            },
            {
                "start_time": 126.225,
                "end_time": 126.30454545454545,
                "pitch": 50,
                "velocity": 101,
                "duration": 0.07954545454545325,
                "tempo": 120.0
            },
            {
                "start_time": 126.32272727272726,
                "end_time": 126.40227272727272,
                "pitch": 48,
                "velocity": 101,
                "duration": 0.07954545454545325,
                "tempo": 120.0
            },
            {
                "start_time": 126.42045454545453,
                "end_time": 126.50227272727273,
                "pitch": 50,
                "velocity": 101,
                "duration": 0.08181818181819267,
                "tempo": 120.0
            },
            {
                "start_time": 126.52045454545454,
                "end_time": 126.60227272727272,
                "pitch": 47,
                "velocity": 127,
                "duration": 0.08181818181817846,
                "tempo": 120.0
            },
            {
                "start_time": 126.62045454545454,
                "end_time": 126.70227272727273,
                "pitch": 50,
                "velocity": 101,
                "duration": 0.08181818181819267,
                "tempo": 120.0
            },
            {
                "start_time": 126.72045454545454,
                "end_time": 126.80454545454545,
                "pitch": 48,
                "velocity": 101,
                "duration": 0.08409090909090366,
                "tempo": 120.0
            },
            {
                "start_time": 126.82045454545454,
                "end_time": 126.90454545454544,
                "pitch": 50,
                "velocity": 101,
                "duration": 0.08409090909090366,
                "tempo": 120.0
            },
            {
                "start_time": 126.92272727272727,
                "end_time": 127.00454545454545,
                "pitch": 47,
                "velocity": 127,
                "duration": 0.08181818181817846,
                "tempo": 120.0
            },
            {
                "start_time": 127.02272727272727,
                "end_time": 127.10454545454544,
                "pitch": 50,
                "velocity": 101,
                "duration": 0.08181818181817846,
                "tempo": 120.0
            },
            {
                "start_time": 127.12272727272726,
                "end_time": 127.20454545454545,
                "pitch": 48,
                "velocity": 101,
                "duration": 0.08181818181819267,
                "tempo": 120.0
            },
            {
                "start_time": 127.22272727272727,
                "end_time": 127.30454545454545,
                "pitch": 50,
                "velocity": 101,
                "duration": 0.08181818181817846,
                "tempo": 120.0
            },
            {
                "start_time": 127.32499999999999,
                "end_time": 127.40681818181818,
                "pitch": 45,
                "velocity": 127,
                "duration": 0.08181818181819267,
                "tempo": 120.0
            },
            {
                "start_time": 127.425,
                "end_time": 127.5090909090909,
                "pitch": 48,
                "velocity": 101,
                "duration": 0.08409090909090366,
                "tempo": 120.0
            },
            {
                "start_time": 127.52954545454544,
                "end_time": 127.61363636363636,
                "pitch": 47,
                "velocity": 101,
                "duration": 0.08409090909091788,
                "tempo": 120.0
            },
            {
                "start_time": 127.63181818181818,
                "end_time": 127.71590909090908,
                "pitch": 48,
                "velocity": 101,
                "duration": 0.08409090909090366,
                "tempo": 120.0
            },
            {
                "start_time": 127.73636363636363,
                "end_time": 127.81590909090909,
                "pitch": 45,
                "velocity": 127,
                "duration": 0.07954545454545325,
                "tempo": 120.0
            },
            {
                "start_time": 127.8340909090909,
                "end_time": 127.91590909090908,
                "pitch": 48,
                "velocity": 101,
                "duration": 0.08181818181817846,
                "tempo": 120.0
            },
            {
                "start_time": 127.9340909090909,
                "end_time": 128.01590909090908,
                "pitch": 47,
                "velocity": 101,
                "duration": 0.08181818181817846,
                "tempo": 120.0
            },
            {
                "start_time": 128.0340909090909,
                "end_time": 128.11590909090907,
                "pitch": 48,
                "velocity": 101,
                "duration": 0.08181818181816425,
                "tempo": 120.0
            },
            {
                "start_time": 128.1340909090909,
                "end_time": 128.21818181818182,
                "pitch": 45,
                "velocity": 127,
                "duration": 0.08409090909091788,
                "tempo": 120.0
            },
            {
                "start_time": 128.2340909090909,
                "end_time": 128.3181818181818,
                "pitch": 48,
                "velocity": 101,
                "duration": 0.08409090909091788,
                "tempo": 120.0
            },
            {
                "start_time": 128.33636363636364,
                "end_time": 128.4181818181818,
                "pitch": 47,
                "velocity": 101,
                "duration": 0.08181818181816425,
                "tempo": 120.0
            },
            {
                "start_time": 128.43636363636364,
                "end_time": 128.52045454545453,
                "pitch": 48,
                "velocity": 101,
                "duration": 0.08409090909088945,
                "tempo": 120.0
            },
            {
                "start_time": 128.53863636363636,
                "end_time": 128.62045454545455,
                "pitch": 45,
                "velocity": 127,
                "duration": 0.08181818181819267,
                "tempo": 120.0
            },
            {
                "start_time": 128.63863636363635,
                "end_time": 128.72045454545454,
                "pitch": 48,
                "velocity": 101,
                "duration": 0.08181818181819267,
                "tempo": 120.0
            },
            {
                "start_time": 128.73863636363635,
                "end_time": 128.82045454545454,
                "pitch": 47,
                "velocity": 101,
                "duration": 0.08181818181819267,
                "tempo": 120.0
            },
            {
                "start_time": 128.83863636363637,
                "end_time": 128.92045454545453,
                "pitch": 48,
                "velocity": 101,
                "duration": 0.08181818181816425,
                "tempo": 120.0
            },
            {
                "start_time": 128.9409090909091,
                "end_time": 129.12272727272727,
                "pitch": 45,
                "velocity": 127,
                "duration": 0.18181818181818699,
                "tempo": 120.0
            },
            {
                "start_time": 129.14090909090908,
                "end_time": 129.22272727272727,
                "pitch": 45,
                "velocity": 101,
                "duration": 0.08181818181819267,
                "tempo": 120.0
            },
            {
                "start_time": 129.24090909090907,
                "end_time": 129.32272727272726,
                "pitch": 57,
                "velocity": 101,
                "duration": 0.08181818181819267,
                "tempo": 120.0
            },
            {
                "start_time": 129.34318181818182,
                "end_time": 129.525,
                "pitch": 45,
                "velocity": 127,
                "duration": 0.18181818181818699,
                "tempo": 120.0
            },
            {
                "start_time": 129.54090909090908,
                "end_time": 129.625,
                "pitch": 45,
                "velocity": 101,
                "duration": 0.08409090909091788,
                "tempo": 120.0
            },
            {
                "start_time": 129.64090909090908,
                "end_time": 129.725,
                "pitch": 57,
                "velocity": 101,
                "duration": 0.08409090909091788,
                "tempo": 120.0
            },
            {
                "start_time": 129.74318181818182,
                "end_time": 129.92499999999998,
                "pitch": 45,
                "velocity": 127,
                "duration": 0.18181818181815856,
                "tempo": 120.0
            },
            {
                "start_time": 129.9431818181818,
                "end_time": 130.02727272727273,
                "pitch": 45,
                "velocity": 101,
                "duration": 0.08409090909091788,
                "tempo": 120.0
            },
            {
                "start_time": 130.0431818181818,
                "end_time": 130.12727272727273,
                "pitch": 57,
                "velocity": 101,
                "duration": 0.08409090909091788,
                "tempo": 120.0
            },
            {
                "start_time": 130.14545454545453,
                "end_time": 130.32954545454544,
                "pitch": 45,
                "velocity": 127,
                "duration": 0.1840909090909122,
                "tempo": 120.0
            },
            {
                "start_time": 130.34772727272727,
                "end_time": 130.42954545454546,
                "pitch": 45,
                "velocity": 101,
                "duration": 0.08181818181819267,
                "tempo": 120.0
            },
            {
                "start_time": 130.44772727272726,
                "end_time": 130.53181818181818,
                "pitch": 57,
                "velocity": 101,
                "duration": 0.08409090909091788,
                "tempo": 120.0
            },
            {
                "start_time": 130.54999999999998,
                "end_time": 130.73181818181817,
                "pitch": 43,
                "velocity": 127,
                "duration": 0.18181818181818699,
                "tempo": 120.0
            },
            {
                "start_time": 130.75,
                "end_time": 130.8340909090909,
                "pitch": 43,
                "velocity": 101,
                "duration": 0.08409090909088945,
                "tempo": 120.0
            },
            {
                "start_time": 130.85,
                "end_time": 130.9340909090909,
                "pitch": 55,
                "velocity": 101,
                "duration": 0.08409090909091788,
                "tempo": 120.0
            },
            {
                "start_time": 130.9522727272727,
                "end_time": 131.13636363636363,
                "pitch": 43,
                "velocity": 127,
                "duration": 0.1840909090909122,
                "tempo": 120.0
            },
            {
                "start_time": 131.15227272727273,
                "end_time": 131.23636363636362,
                "pitch": 43,
                "velocity": 101,
                "duration": 0.08409090909088945,
                "tempo": 120.0
            },
            {
                "start_time": 131.25454545454545,
                "end_time": 131.33636363636364,
                "pitch": 55,
                "velocity": 101,
                "duration": 0.08181818181819267,
                "tempo": 120.0
            },
            {
                "start_time": 131.35454545454544,
                "end_time": 131.53863636363636,
                "pitch": 43,
                "velocity": 127,
                "duration": 0.1840909090909122,
                "tempo": 120.0
            },
            {
                "start_time": 131.55454545454546,
                "end_time": 131.63863636363635,
                "pitch": 43,
                "velocity": 101,
                "duration": 0.08409090909088945,
                "tempo": 120.0
            },
            {
                "start_time": 131.65454545454546,
                "end_time": 131.73863636363635,
                "pitch": 55,
                "velocity": 101,
                "duration": 0.08409090909088945,
                "tempo": 120.0
            },
            {
                "start_time": 131.75681818181818,
                "end_time": 131.93863636363636,
                "pitch": 43,
                "velocity": 127,
                "duration": 0.18181818181818699,
                "tempo": 120.0
            },
            {
                "start_time": 131.95681818181816,
                "end_time": 132.04090909090908,
                "pitch": 43,
                "velocity": 101,
                "duration": 0.08409090909091788,
                "tempo": 120.0
            },
            {
                "start_time": 132.0568181818182,
                "end_time": 132.14090909090908,
                "pitch": 55,
                "velocity": 101,
                "duration": 0.08409090909088945,
                "tempo": 120.0
            },
            {
                "start_time": 132.1590909090909,
                "end_time": 132.34545454545454,
                "pitch": 47,
                "velocity": 127,
                "duration": 0.1863636363636374,
                "tempo": 120.0
            },
            {
                "start_time": 132.36363636363635,
                "end_time": 132.44772727272726,
                "pitch": 47,
                "velocity": 101,
                "duration": 0.08409090909091788,
                "tempo": 120.0
            },
            {
                "start_time": 132.4659090909091,
                "end_time": 132.5522727272727,
                "pitch": 59,
                "velocity": 101,
                "duration": 0.08636363636361466,
                "tempo": 120.0
            },
            {
                "start_time": 132.57045454545454,
                "end_time": 132.75,
                "pitch": 47,
                "velocity": 127,
                "duration": 0.17954545454546178,
                "tempo": 120.0
            },
            {
                "start_time": 132.76590909090908,
                "end_time": 132.84772727272727,
                "pitch": 47,
                "velocity": 101,
                "duration": 0.08181818181819267,
                "tempo": 120.0
            },
            {
                "start_time": 132.86363636363635,
                "end_time": 132.94545454545454,
                "pitch": 59,
                "velocity": 101,
                "duration": 0.08181818181819267,
                "tempo": 120.0
            },
            {
                "start_time": 132.96363636363637,
                "end_time": 133.14545454545453,
                "pitch": 47,
                "velocity": 127,
                "duration": 0.18181818181815856,
                "tempo": 120.0
            },
            {
                "start_time": 133.16363636363636,
                "end_time": 133.24772727272727,
                "pitch": 47,
                "velocity": 101,
                "duration": 0.08409090909091788,
                "tempo": 120.0
            },
            {
                "start_time": 133.26363636363635,
                "end_time": 133.34772727272727,
                "pitch": 59,
                "velocity": 101,
                "duration": 0.08409090909091788,
                "tempo": 120.0
            },
            {
                "start_time": 133.36590909090907,
                "end_time": 133.54772727272726,
                "pitch": 47,
                "velocity": 127,
                "duration": 0.18181818181818699,
                "tempo": 120.0
            },
            {
                "start_time": 133.5659090909091,
                "end_time": 133.64772727272725,
                "pitch": 47,
                "velocity": 101,
                "duration": 0.08181818181816425,
                "tempo": 120.0
            },
            {
                "start_time": 133.66590909090908,
                "end_time": 133.74772727272727,
                "pitch": 59,
                "velocity": 101,
                "duration": 0.08181818181819267,
                "tempo": 120.0
            },
            {
                "start_time": 133.7681818181818,
                "end_time": 133.95454545454544,
                "pitch": 45,
                "velocity": 127,
                "duration": 0.1863636363636374,
                "tempo": 120.0
            },
            {
                "start_time": 133.97272727272727,
                "end_time": 134.0568181818182,
                "pitch": 45,
                "velocity": 101,
                "duration": 0.08409090909091788,
                "tempo": 120.0
            },
            {
                "start_time": 134.075,
                "end_time": 134.1590909090909,
                "pitch": 57,
                "velocity": 101,
                "duration": 0.08409090909091788,
                "tempo": 120.0
            },
            {
                "start_time": 134.17954545454546,
                "end_time": 134.36136363636362,
                "pitch": 45,
                "velocity": 127,
                "duration": 0.18181818181815856,
                "tempo": 120.0
            },
            {
                "start_time": 134.37954545454545,
                "end_time": 134.46136363636364,
                "pitch": 45,
                "velocity": 101,
                "duration": 0.08181818181819267,
                "tempo": 120.0
            },
            {
                "start_time": 134.47954545454544,
                "end_time": 134.56363636363636,
                "pitch": 57,
                "velocity": 101,
                "duration": 0.08409090909091788,
                "tempo": 120.0
            },
            {
                "start_time": 134.58181818181816,
                "end_time": 134.7590909090909,
                "pitch": 45,
                "velocity": 127,
                "duration": 0.17727272727273657,
                "tempo": 120.0
            },
            {
                "start_time": 134.77727272727273,
                "end_time": 134.8590909090909,
                "pitch": 45,
                "velocity": 101,
                "duration": 0.08181818181816425,
                "tempo": 120.0
            },
            {
                "start_time": 134.875,
                "end_time": 134.95681818181816,
                "pitch": 57,
                "velocity": 101,
                "duration": 0.08181818181816425,
                "tempo": 120.0
            },
            {
                "start_time": 134.97272727272727,
                "end_time": 135.16136363636363,
                "pitch": 45,
                "velocity": 127,
                "duration": 0.1886363636363626,
                "tempo": 120.0
            },
            {
                "start_time": 135.17954545454546,
                "end_time": 135.26363636363635,
                "pitch": 45,
                "velocity": 101,
                "duration": 0.08409090909088945,
                "tempo": 120.0
            },
            {
                "start_time": 135.28181818181818,
                "end_time": 135.36590909090907,
                "pitch": 57,
                "velocity": 101,
                "duration": 0.08409090909088945,
                "tempo": 120.0
            },
            {
                "start_time": 135.38636363636363,
                "end_time": 135.5681818181818,
                "pitch": 45,
                "velocity": 127,
                "duration": 0.18181818181818699,
                "tempo": 120.0
            },
            {
                "start_time": 135.58636363636364,
                "end_time": 135.67045454545453,
                "pitch": 45,
                "velocity": 101,
                "duration": 0.08409090909088945,
                "tempo": 120.0
            },
            {
                "start_time": 135.68636363636364,
                "end_time": 135.77045454545453,
                "pitch": 57,
                "velocity": 101,
                "duration": 0.08409090909088945,
                "tempo": 120.0
            },
            {
                "start_time": 135.78863636363636,
                "end_time": 135.97045454545454,
                "pitch": 45,
                "velocity": 127,
                "duration": 0.18181818181818699,
                "tempo": 120.0
            },
            {
                "start_time": 135.98863636363635,
                "end_time": 136.07045454545454,
                "pitch": 45,
                "velocity": 101,
                "duration": 0.08181818181819267,
                "tempo": 120.0
            },
            {
                "start_time": 136.08863636363637,
                "end_time": 136.17045454545453,
                "pitch": 57,
                "velocity": 101,
                "duration": 0.08181818181816425,
                "tempo": 120.0
            },
            {
                "start_time": 136.18863636363636,
                "end_time": 136.37272727272727,
                "pitch": 45,
                "velocity": 127,
                "duration": 0.1840909090909122,
                "tempo": 120.0
            },
            {
                "start_time": 136.39090909090908,
                "end_time": 136.47272727272727,
                "pitch": 45,
                "velocity": 101,
                "duration": 0.08181818181819267,
                "tempo": 120.0
            },
            {
                "start_time": 136.49090909090907,
                "end_time": 136.575,
                "pitch": 57,
                "velocity": 101,
                "duration": 0.08409090909091788,
                "tempo": 120.0
            },
            {
                "start_time": 136.59318181818182,
                "end_time": 136.775,
                "pitch": 45,
                "velocity": 127,
                "duration": 0.18181818181818699,
                "tempo": 120.0
            },
            {
                "start_time": 136.7931818181818,
                "end_time": 136.87727272727273,
                "pitch": 45,
                "velocity": 101,
                "duration": 0.08409090909091788,
                "tempo": 120.0
            },
            {
                "start_time": 136.8931818181818,
                "end_time": 136.97727272727272,
                "pitch": 57,
                "velocity": 101,
                "duration": 0.08409090909091788,
                "tempo": 120.0
            },
            {
                "start_time": 136.99545454545455,
                "end_time": 137.17954545454546,
                "pitch": 43,
                "velocity": 127,
                "duration": 0.1840909090909122,
                "tempo": 120.0
            },
            {
                "start_time": 137.19772727272726,
                "end_time": 137.27954545454546,
                "pitch": 43,
                "velocity": 101,
                "duration": 0.08181818181819267,
                "tempo": 120.0
            },
            {
                "start_time": 137.29772727272726,
                "end_time": 137.37954545454545,
                "pitch": 55,
                "velocity": 101,
                "duration": 0.08181818181819267,
                "tempo": 120.0
            },
            {
                "start_time": 137.4,
                "end_time": 137.58181818181816,
                "pitch": 43,
                "velocity": 127,
                "duration": 0.18181818181815856,
                "tempo": 120.0
            },
            {
                "start_time": 137.6,
                "end_time": 137.6818181818182,
                "pitch": 43,
                "velocity": 101,
                "duration": 0.08181818181819267,
                "tempo": 120.0
            },
            {
                "start_time": 137.7,
                "end_time": 137.7840909090909,
                "pitch": 55,
                "velocity": 101,
                "duration": 0.08409090909091788,
                "tempo": 120.0
            },
            {
                "start_time": 137.8022727272727,
                "end_time": 137.9840909090909,
                "pitch": 43,
                "velocity": 127,
                "duration": 0.18181818181818699,
                "tempo": 120.0
            },
            {
                "start_time": 138.00227272727273,
                "end_time": 138.0840909090909,
                "pitch": 43,
                "velocity": 101,
                "duration": 0.08181818181816425,
                "tempo": 120.0
            },
            {
                "start_time": 138.10227272727272,
                "end_time": 138.1840909090909,
                "pitch": 55,
                "velocity": 101,
                "duration": 0.08181818181819267,
                "tempo": 120.0
            },
            {
                "start_time": 138.2022727272727,
                "end_time": 138.38636363636363,
                "pitch": 43,
                "velocity": 127,
                "duration": 0.1840909090909122,
                "tempo": 120.0
            },
            {
                "start_time": 138.40454545454546,
                "end_time": 138.48636363636362,
                "pitch": 43,
                "velocity": 101,
                "duration": 0.08181818181816425,
                "tempo": 120.0
            },
            {
                "start_time": 138.50454545454545,
                "end_time": 138.58636363636364,
                "pitch": 55,
                "velocity": 101,
                "duration": 0.08181818181819267,
                "tempo": 120.0
            },
            {
                "start_time": 138.60681818181817,
                "end_time": 138.78863636363636,
                "pitch": 47,
                "velocity": 127,
                "duration": 0.18181818181818699,
                "tempo": 120.0
            },
            {
                "start_time": 138.8068181818182,
                "end_time": 138.88863636363635,
                "pitch": 47,
                "velocity": 101,
                "duration": 0.08181818181816425,
                "tempo": 120.0
            },
            {
                "start_time": 138.90681818181818,
                "end_time": 138.99090909090907,
                "pitch": 59,
                "velocity": 101,
                "duration": 0.08409090909088945,
                "tempo": 120.0
            },
            {
                "start_time": 139.0090909090909,
                "end_time": 139.1909090909091,
                "pitch": 47,
                "velocity": 127,
                "duration": 0.18181818181818699,
                "tempo": 120.0
            },
            {
                "start_time": 139.2090909090909,
                "end_time": 139.2931818181818,
                "pitch": 47,
                "velocity": 101,
                "duration": 0.08409090909091788,
                "tempo": 120.0
            },
            {
                "start_time": 139.31136363636364,
                "end_time": 139.3931818181818,
                "pitch": 59,
                "velocity": 101,
                "duration": 0.08181818181816425,
                "tempo": 120.0
            },
            {
                "start_time": 139.41136363636363,
                "end_time": 139.59545454545454,
                "pitch": 47,
                "velocity": 127,
                "duration": 0.1840909090909122,
                "tempo": 120.0
            },
            {
                "start_time": 139.61363636363635,
                "end_time": 139.69545454545454,
                "pitch": 47,
                "velocity": 101,
                "duration": 0.08181818181819267,
                "tempo": 120.0
            },
            {
                "start_time": 139.71363636363637,
                "end_time": 139.79772727272726,
                "pitch": 59,
                "velocity": 101,
                "duration": 0.08409090909088945,
                "tempo": 120.0
            },
            {
                "start_time": 139.8159090909091,
                "end_time": 139.99772727272727,
                "pitch": 47,
                "velocity": 127,
                "duration": 0.18181818181818699,
                "tempo": 120.0
            },
            {
                "start_time": 140.01590909090908,
                "end_time": 140.09772727272727,
                "pitch": 47,
                "velocity": 101,
                "duration": 0.08181818181819267,
                "tempo": 120.0
            },
            {
                "start_time": 140.11363636363635,
                "end_time": 140.19772727272726,
                "pitch": 59,
                "velocity": 101,
                "duration": 0.08409090909091788,
                "tempo": 120.0
            },
            {
                "start_time": 140.2159090909091,
                "end_time": 140.4,
                "pitch": 45,
                "velocity": 127,
                "duration": 0.1840909090909122,
                "tempo": 120.0
            },
            {
                "start_time": 140.4181818181818,
                "end_time": 140.5,
                "pitch": 45,
                "velocity": 101,
                "duration": 0.08181818181819267,
                "tempo": 120.0
            },
            {
                "start_time": 140.5181818181818,
                "end_time": 140.6,
                "pitch": 57,
                "velocity": 101,
                "duration": 0.08181818181819267,
                "tempo": 120.0
            },
            {
                "start_time": 140.62045454545455,
                "end_time": 140.8022727272727,
                "pitch": 45,
                "velocity": 127,
                "duration": 0.18181818181815856,
                "tempo": 120.0
            },
            {
                "start_time": 140.82045454545454,
                "end_time": 140.90227272727273,
                "pitch": 45,
                "velocity": 101,
                "duration": 0.08181818181819267,
                "tempo": 120.0
            },
            {
                "start_time": 140.92045454545453,
                "end_time": 141.00454545454545,
                "pitch": 57,
                "velocity": 101,
                "duration": 0.08409090909091788,
                "tempo": 120.0
            },
            {
                "start_time": 141.02272727272725,
                "end_time": 141.20454545454544,
                "pitch": 45,
                "velocity": 127,
                "duration": 0.18181818181818699,
                "tempo": 120.0
            },
            {
                "start_time": 141.22272727272727,
                "end_time": 141.3068181818182,
                "pitch": 45,
                "velocity": 101,
                "duration": 0.08409090909091788,
                "tempo": 120.0
            },
            {
                "start_time": 141.32272727272726,
                "end_time": 141.40681818181818,
                "pitch": 57,
                "velocity": 101,
                "duration": 0.08409090909091788,
                "tempo": 120.0
            },
            {
                "start_time": 141.42499999999998,
                "end_time": 141.6090909090909,
                "pitch": 45,
                "velocity": 127,
                "duration": 0.1840909090909122,
                "tempo": 120.0
            },
            {
                "start_time": 141.625,
                "end_time": 141.7090909090909,
                "pitch": 45,
                "velocity": 101,
                "duration": 0.08409090909088945,
                "tempo": 120.0
            },
            {
                "start_time": 141.72727272727272,
                "end_time": 141.8090909090909,
                "pitch": 57,
                "velocity": 101,
                "duration": 0.08181818181819267,
                "tempo": 120.0
            },
            {
                "start_time": 141.82954545454544,
                "end_time": 141.91363636363636,
                "pitch": 45,
                "velocity": 127,
                "duration": 0.08409090909091788,
                "tempo": 120.0
            },
            {
                "start_time": 141.92954545454546,
                "end_time": 142.01590909090908,
                "pitch": 45,
                "velocity": 101,
                "duration": 0.08636363636361466,
                "tempo": 120.0
            },
            {
                "start_time": 142.0340909090909,
                "end_time": 142.11818181818182,
                "pitch": 57,
                "velocity": 101,
                "duration": 0.08409090909091788,
                "tempo": 120.0
            },
            {
                "start_time": 142.13636363636363,
                "end_time": 142.22045454545454,
                "pitch": 45,
                "velocity": 101,
                "duration": 0.08409090909091788,
                "tempo": 120.0
            },
            {
                "start_time": 142.24090909090907,
                "end_time": 142.32272727272726,
                "pitch": 45,
                "velocity": 127,
                "duration": 0.08181818181819267,
                "tempo": 120.0
            },
            {
                "start_time": 142.3409090909091,
                "end_time": 142.42272727272726,
                "pitch": 45,
                "velocity": 101,
                "duration": 0.08181818181816425,
                "tempo": 120.0
            },
            {
                "start_time": 142.4409090909091,
                "end_time": 142.525,
                "pitch": 57,
                "velocity": 101,
                "duration": 0.08409090909091788,
                "tempo": 120.0
            },
            {
                "start_time": 142.54090909090908,
                "end_time": 142.625,
                "pitch": 45,
                "velocity": 101,
                "duration": 0.08409090909091788,
                "tempo": 120.0
            },
            {
                "start_time": 142.6431818181818,
                "end_time": 142.725,
                "pitch": 45,
                "velocity": 127,
                "duration": 0.08181818181819267,
                "tempo": 120.0
            },
            {
                "start_time": 142.74318181818182,
                "end_time": 142.825,
                "pitch": 45,
                "velocity": 101,
                "duration": 0.08181818181816425,
                "tempo": 120.0
            },
            {
                "start_time": 142.84318181818182,
                "end_time": 142.92499999999998,
                "pitch": 57,
                "velocity": 101,
                "duration": 0.08181818181816425,
                "tempo": 120.0
            },
            {
                "start_time": 142.9431818181818,
                "end_time": 143.025,
                "pitch": 45,
                "velocity": 101,
                "duration": 0.08181818181819267,
                "tempo": 120.0
            },
            {
                "start_time": 143.0431818181818,
                "end_time": 143.12727272727273,
                "pitch": 45,
                "velocity": 127,
                "duration": 0.08409090909091788,
                "tempo": 120.0
            },
            {
                "start_time": 143.1431818181818,
                "end_time": 143.22727272727272,
                "pitch": 45,
                "velocity": 101,
                "duration": 0.08409090909091788,
                "tempo": 120.0
            },
            {
                "start_time": 143.24545454545455,
                "end_time": 143.3272727272727,
                "pitch": 57,
                "velocity": 101,
                "duration": 0.08181818181816425,
                "tempo": 120.0
            },
            {
                "start_time": 143.34545454545454,
                "end_time": 143.42954545454546,
                "pitch": 45,
                "velocity": 101,
                "duration": 0.08409090909091788,
                "tempo": 120.0
            },
            {
                "start_time": 143.44772727272726,
                "end_time": 143.52954545454546,
                "pitch": 43,
                "velocity": 127,
                "duration": 0.08181818181819267,
                "tempo": 120.0
            },
            {
                "start_time": 143.54772727272726,
                "end_time": 143.62954545454545,
                "pitch": 43,
                "velocity": 101,
                "duration": 0.08181818181819267,
                "tempo": 120.0
            },
            {
                "start_time": 143.64772727272725,
                "end_time": 143.73181818181817,
                "pitch": 55,
                "velocity": 101,
                "duration": 0.08409090909091788,
                "tempo": 120.0
            },
            {
                "start_time": 143.74772727272727,
                "end_time": 143.83181818181816,
                "pitch": 43,
                "velocity": 101,
                "duration": 0.08409090909088945,
                "tempo": 120.0
            },
            {
                "start_time": 143.85,
                "end_time": 143.9318181818182,
                "pitch": 43,
                "velocity": 127,
                "duration": 0.08181818181819267,
                "tempo": 120.0
            },
            {
                "start_time": 143.95,
                "end_time": 144.0340909090909,
                "pitch": 43,
                "velocity": 101,
                "duration": 0.08409090909091788,
                "tempo": 120.0
            },
            {
                "start_time": 144.04999999999998,
                "end_time": 144.1340909090909,
                "pitch": 55,
                "velocity": 101,
                "duration": 0.08409090909091788,
                "tempo": 120.0
            },
            {
                "start_time": 144.15227272727273,
                "end_time": 144.2340909090909,
                "pitch": 43,
                "velocity": 101,
                "duration": 0.08181818181816425,
                "tempo": 120.0
            },
            {
                "start_time": 144.25227272727273,
                "end_time": 144.33636363636364,
                "pitch": 43,
                "velocity": 127,
                "duration": 0.08409090909091788,
                "tempo": 120.0
            },
            {
                "start_time": 144.35227272727272,
                "end_time": 144.43636363636364,
                "pitch": 43,
                "velocity": 101,
                "duration": 0.08409090909091788,
                "tempo": 120.0
            },
            {
                "start_time": 144.45454545454544,
                "end_time": 144.53636363636363,
                "pitch": 55,
                "velocity": 101,
                "duration": 0.08181818181819267,
                "tempo": 120.0
            },
            {
                "start_time": 144.55454545454543,
                "end_time": 144.63863636363635,
                "pitch": 43,
                "velocity": 101,
                "duration": 0.08409090909091788,
                "tempo": 120.0
            },
            {
                "start_time": 144.65681818181818,
                "end_time": 144.73863636363635,
                "pitch": 43,
                "velocity": 127,
                "duration": 0.08181818181816425,
                "tempo": 120.0
            },
            {
                "start_time": 144.75681818181818,
                "end_time": 144.83863636363637,
                "pitch": 43,
                "velocity": 101,
                "duration": 0.08181818181819267,
                "tempo": 120.0
            },
            {
                "start_time": 144.85681818181817,
                "end_time": 144.93863636363636,
                "pitch": 55,
                "velocity": 101,
                "duration": 0.08181818181819267,
                "tempo": 120.0
            },
            {
                "start_time": 144.95681818181816,
                "end_time": 145.03863636363636,
                "pitch": 43,
                "velocity": 101,
                "duration": 0.08181818181819267,
                "tempo": 120.0
            },
            {
                "start_time": 145.0568181818182,
                "end_time": 145.13863636363635,
                "pitch": 47,
                "velocity": 127,
                "duration": 0.08181818181816425,
                "tempo": 120.0
            },
            {
                "start_time": 145.15681818181818,
                "end_time": 145.24090909090907,
                "pitch": 47,
                "velocity": 101,
                "duration": 0.08409090909088945,
                "tempo": 120.0
            },
            {
                "start_time": 145.2590909090909,
                "end_time": 145.3409090909091,
                "pitch": 59,
                "velocity": 101,
                "duration": 0.08181818181819267,
                "tempo": 120.0
            },
            {
                "start_time": 145.3590909090909,
                "end_time": 145.4409090909091,
                "pitch": 47,
                "velocity": 101,
                "duration": 0.08181818181819267,
                "tempo": 120.0
            },
            {
                "start_time": 145.46136363636364,
                "end_time": 145.5431818181818,
                "pitch": 47,
                "velocity": 127,
                "duration": 0.08181818181816425,
                "tempo": 120.0
            },
            {
                "start_time": 145.5590909090909,
                "end_time": 145.6431818181818,
                "pitch": 47,
                "velocity": 101,
                "duration": 0.08409090909088945,
                "tempo": 120.0
            },
            {
                "start_time": 145.66136363636363,
                "end_time": 145.74545454545455,
                "pitch": 59,
                "velocity": 101,
                "duration": 0.08409090909091788,
                "tempo": 120.0
            },
            {
                "start_time": 145.76136363636363,
                "end_time": 145.84545454545454,
                "pitch": 47,
                "velocity": 101,
                "duration": 0.08409090909091788,
                "tempo": 120.0
            },
            {
                "start_time": 145.86363636363635,
                "end_time": 145.94545454545454,
                "pitch": 47,
                "velocity": 127,
                "duration": 0.08181818181819267,
                "tempo": 120.0
            },
            {
                "start_time": 145.96363636363637,
                "end_time": 146.04772727272726,
                "pitch": 47,
                "velocity": 101,
                "duration": 0.08409090909088945,
                "tempo": 120.0
            },
            {
                "start_time": 146.0659090909091,
                "end_time": 146.14772727272725,
                "pitch": 59,
                "velocity": 101,
                "duration": 0.08181818181816425,
                "tempo": 120.0
            },
            {
                "start_time": 146.16590909090908,
                "end_time": 146.24772727272727,
                "pitch": 47,
                "velocity": 101,
                "duration": 0.08181818181819267,
                "tempo": 120.0
            },
            {
                "start_time": 146.26590909090908,
                "end_time": 146.35,
                "pitch": 47,
                "velocity": 127,
                "duration": 0.08409090909091788,
                "tempo": 120.0
            },
            {
                "start_time": 146.36590909090907,
                "end_time": 146.45,
                "pitch": 47,
                "velocity": 101,
                "duration": 0.08409090909091788,
                "tempo": 120.0
            },
            {
                "start_time": 146.46818181818182,
                "end_time": 146.54999999999998,
                "pitch": 59,
                "velocity": 101,
                "duration": 0.08181818181816425,
                "tempo": 120.0
            },
            {
                "start_time": 146.5681818181818,
                "end_time": 146.65227272727273,
                "pitch": 47,
                "velocity": 101,
                "duration": 0.08409090909091788,
                "tempo": 120.0
            },
            {
                "start_time": 146.67045454545453,
                "end_time": 146.75227272727273,
                "pitch": 45,
                "velocity": 127,
                "duration": 0.08181818181819267,
                "tempo": 120.0
            },
            {
                "start_time": 146.7681818181818,
                "end_time": 146.85227272727272,
                "pitch": 45,
                "velocity": 101,
                "duration": 0.08409090909091788,
                "tempo": 120.0
            },
            {
                "start_time": 146.87045454545455,
                "end_time": 146.9522727272727,
                "pitch": 57,
                "velocity": 101,
                "duration": 0.08181818181816425,
                "tempo": 120.0
            },
            {
                "start_time": 146.97045454545454,
                "end_time": 147.0522727272727,
                "pitch": 45,
                "velocity": 101,
                "duration": 0.08181818181816425,
                "tempo": 120.0
            },
            {
                "start_time": 147.07045454545454,
                "end_time": 147.15227272727273,
                "pitch": 45,
                "velocity": 127,
                "duration": 0.08181818181819267,
                "tempo": 120.0
            },
            {
                "start_time": 147.17045454545453,
                "end_time": 147.25454545454545,
                "pitch": 45,
                "velocity": 101,
                "duration": 0.08409090909091788,
                "tempo": 120.0
            },
            {
                "start_time": 147.27045454545453,
                "end_time": 147.35454545454544,
                "pitch": 57,
                "velocity": 101,
                "duration": 0.08409090909091788,
                "tempo": 120.0
            },
            {
                "start_time": 147.37272727272727,
                "end_time": 147.45454545454544,
                "pitch": 45,
                "velocity": 101,
                "duration": 0.08181818181816425,
                "tempo": 120.0
            },
            {
                "start_time": 147.47272727272727,
                "end_time": 147.5568181818182,
                "pitch": 45,
                "velocity": 127,
                "duration": 0.08409090909091788,
                "tempo": 120.0
            },
            {
                "start_time": 147.57272727272726,
                "end_time": 147.65681818181818,
                "pitch": 45,
                "velocity": 101,
                "duration": 0.08409090909091788,
                "tempo": 120.0
            },
            {
                "start_time": 147.67499999999998,
                "end_time": 147.75681818181818,
                "pitch": 57,
                "velocity": 101,
                "duration": 0.08181818181819267,
                "tempo": 120.0
            },
            {
                "start_time": 147.775,
                "end_time": 147.8590909090909,
                "pitch": 45,
                "velocity": 101,
                "duration": 0.08409090909088945,
                "tempo": 120.0
            },
            {
                "start_time": 147.87727272727273,
                "end_time": 147.9590909090909,
                "pitch": 45,
                "velocity": 127,
                "duration": 0.08181818181816425,
                "tempo": 120.0
            },
            {
                "start_time": 147.97727272727272,
                "end_time": 148.0590909090909,
                "pitch": 45,
                "velocity": 101,
                "duration": 0.08181818181819267,
                "tempo": 120.0
            },
            {
                "start_time": 148.0772727272727,
                "end_time": 148.16136363636363,
                "pitch": 57,
                "velocity": 101,
                "duration": 0.08409090909091788,
                "tempo": 120.0
            },
            {
                "start_time": 148.1772727272727,
                "end_time": 148.26136363636363,
                "pitch": 45,
                "velocity": 101,
                "duration": 0.08409090909091788,
                "tempo": 120.0
            },
            {
                "start_time": 148.27954545454546,
                "end_time": 148.36363636363635,
                "pitch": 45,
                "velocity": 127,
                "duration": 0.08409090909088945,
                "tempo": 120.0
            },
            {
                "start_time": 148.38181818181818,
                "end_time": 148.4659090909091,
                "pitch": 45,
                "velocity": 101,
                "duration": 0.08409090909091788,
                "tempo": 120.0
            },
            {
                "start_time": 148.48636363636362,
                "end_time": 148.57045454545454,
                "pitch": 57,
                "velocity": 101,
                "duration": 0.08409090909091788,
                "tempo": 120.0
            },
            {
                "start_time": 148.58863636363637,
                "end_time": 148.67272727272726,
                "pitch": 45,
                "velocity": 101,
                "duration": 0.08409090909088945,
                "tempo": 120.0
            },
            {
                "start_time": 148.6909090909091,
                "end_time": 148.77045454545453,
                "pitch": 45,
                "velocity": 127,
                "duration": 0.07954545454543904,
                "tempo": 120.0
            },
            {
                "start_time": 148.78863636363636,
                "end_time": 148.87045454545455,
                "pitch": 45,
                "velocity": 101,
                "duration": 0.08181818181819267,
                "tempo": 120.0
            },
            {
                "start_time": 148.88636363636363,
                "end_time": 148.96818181818182,
                "pitch": 57,
                "velocity": 101,
                "duration": 0.08181818181819267,
                "tempo": 120.0
            },
            {
                "start_time": 148.9840909090909,
                "end_time": 149.0659090909091,
                "pitch": 45,
                "velocity": 101,
                "duration": 0.08181818181819267,
                "tempo": 120.0
            },
            {
                "start_time": 149.0840909090909,
                "end_time": 149.16590909090908,
                "pitch": 45,
                "velocity": 127,
                "duration": 0.08181818181819267,
                "tempo": 120.0
            },
            {
                "start_time": 149.1840909090909,
                "end_time": 149.2681818181818,
                "pitch": 45,
                "velocity": 101,
                "duration": 0.08409090909088945,
                "tempo": 120.0
            },
            {
                "start_time": 149.28636363636363,
                "end_time": 149.36818181818182,
                "pitch": 57,
                "velocity": 101,
                "duration": 0.08181818181819267,
                "tempo": 120.0
            },
            {
                "start_time": 149.38636363636363,
                "end_time": 149.46818181818182,
                "pitch": 45,
                "velocity": 101,
                "duration": 0.08181818181819267,
                "tempo": 120.0
            },
            {
                "start_time": 149.48636363636362,
                "end_time": 149.57045454545454,
                "pitch": 45,
                "velocity": 127,
                "duration": 0.08409090909091788,
                "tempo": 120.0
            },
            {
                "start_time": 149.58636363636364,
                "end_time": 149.67045454545453,
                "pitch": 45,
                "velocity": 101,
                "duration": 0.08409090909088945,
                "tempo": 120.0
            },
            {
                "start_time": 149.68863636363636,
                "end_time": 149.77045454545453,
                "pitch": 57,
                "velocity": 101,
                "duration": 0.08181818181816425,
                "tempo": 120.0
            },
            {
                "start_time": 149.78863636363636,
                "end_time": 149.87272727272727,
                "pitch": 45,
                "velocity": 101,
                "duration": 0.08409090909091788,
                "tempo": 120.0
            },
            {
                "start_time": 149.89090909090908,
                "end_time": 149.975,
                "pitch": 43,
                "velocity": 127,
                "duration": 0.08409090909091788,
                "tempo": 120.0
            },
            {
                "start_time": 149.99318181818182,
                "end_time": 150.0772727272727,
                "pitch": 43,
                "velocity": 101,
                "duration": 0.08409090909088945,
                "tempo": 120.0
            },
            {
                "start_time": 150.09545454545454,
                "end_time": 150.17954545454543,
                "pitch": 55,
                "velocity": 101,
                "duration": 0.08409090909088945,
                "tempo": 120.0
            },
            {
                "start_time": 150.19772727272726,
                "end_time": 150.2840909090909,
                "pitch": 43,
                "velocity": 101,
                "duration": 0.08636363636364308,
                "tempo": 120.0
            },
            {
                "start_time": 150.3022727272727,
                "end_time": 150.3840909090909,
                "pitch": 43,
                "velocity": 127,
                "duration": 0.08181818181819267,
                "tempo": 120.0
            },
            {
                "start_time": 150.40227272727273,
                "end_time": 150.4840909090909,
                "pitch": 43,
                "velocity": 101,
                "duration": 0.08181818181816425,
                "tempo": 120.0
            },
            {
                "start_time": 150.50227272727273,
                "end_time": 150.58636363636364,
                "pitch": 55,
                "velocity": 101,
                "duration": 0.08409090909091788,
                "tempo": 120.0
            },
            {
                "start_time": 150.60227272727272,
                "end_time": 150.68636363636364,
                "pitch": 43,
                "velocity": 101,
                "duration": 0.08409090909091788,
                "tempo": 120.0
            },
            {
                "start_time": 150.70454545454544,
                "end_time": 150.78863636363636,
                "pitch": 43,
                "velocity": 127,
                "duration": 0.08409090909091788,
                "tempo": 120.0
            },
            {
                "start_time": 150.80454545454543,
                "end_time": 150.88863636363635,
                "pitch": 43,
                "velocity": 101,
                "duration": 0.08409090909091788,
                "tempo": 120.0
            },
            {
                "start_time": 150.90681818181818,
                "end_time": 150.98863636363635,
                "pitch": 55,
                "velocity": 101,
                "duration": 0.08181818181816425,
                "tempo": 120.0
            },
            {
                "start_time": 151.00681818181818,
                "end_time": 151.0909090909091,
                "pitch": 43,
                "velocity": 101,
                "duration": 0.08409090909091788,
                "tempo": 120.0
            },
            {
                "start_time": 151.1090909090909,
                "end_time": 151.1909090909091,
                "pitch": 43,
                "velocity": 127,
                "duration": 0.08181818181819267,
                "tempo": 120.0
            },
            {
                "start_time": 151.20681818181816,
                "end_time": 151.29090909090908,
                "pitch": 43,
                "velocity": 101,
                "duration": 0.08409090909091788,
                "tempo": 120.0
            },
            {
                "start_time": 151.3090909090909,
                "end_time": 151.39090909090908,
                "pitch": 55,
                "velocity": 101,
                "duration": 0.08181818181816425,
                "tempo": 120.0
            },
            {
                "start_time": 151.40681818181818,
                "end_time": 151.49090909090907,
                "pitch": 43,
                "velocity": 101,
                "duration": 0.08409090909088945,
                "tempo": 120.0
            },
            {
                "start_time": 151.5090909090909,
                "end_time": 151.5909090909091,
                "pitch": 47,
                "velocity": 127,
                "duration": 0.08181818181819267,
                "tempo": 120.0
            },
            {
                "start_time": 151.6090909090909,
                "end_time": 151.6931818181818,
                "pitch": 47,
                "velocity": 101,
                "duration": 0.08409090909091788,
                "tempo": 120.0
            },
            {
                "start_time": 151.71136363636364,
                "end_time": 151.7931818181818,
                "pitch": 59,
                "velocity": 101,
                "duration": 0.08181818181816425,
                "tempo": 120.0
            },
            {
                "start_time": 151.81136363636364,
                "end_time": 151.8931818181818,
                "pitch": 47,
                "velocity": 101,
                "duration": 0.08181818181816425,
                "tempo": 120.0
            },
            {
                "start_time": 151.91136363636363,
                "end_time": 151.99545454545455,
                "pitch": 47,
                "velocity": 127,
                "duration": 0.08409090909091788,
                "tempo": 120.0
            },
            {
                "start_time": 152.01136363636363,
                "end_time": 152.09545454545454,
                "pitch": 47,
                "velocity": 101,
                "duration": 0.08409090909091788,
                "tempo": 120.0
            },
            {
                "start_time": 152.11363636363635,
                "end_time": 152.19545454545454,
                "pitch": 59,
                "velocity": 101,
                "duration": 0.08181818181819267,
                "tempo": 120.0
            },
            {
                "start_time": 152.21363636363637,
                "end_time": 152.29772727272726,
                "pitch": 47,
                "velocity": 101,
                "duration": 0.08409090909088945,
                "tempo": 120.0
            },
            {
                "start_time": 152.31363636363636,
                "end_time": 152.39772727272725,
                "pitch": 47,
                "velocity": 127,
                "duration": 0.08409090909088945,
                "tempo": 120.0
            },
            {
                "start_time": 152.41590909090908,
                "end_time": 152.49772727272727,
                "pitch": 47,
                "velocity": 101,
                "duration": 0.08181818181819267,
                "tempo": 120.0
            },
            {
                "start_time": 152.51590909090908,
                "end_time": 152.6,
                "pitch": 59,
                "velocity": 101,
                "duration": 0.08409090909091788,
                "tempo": 120.0
            },
            {
                "start_time": 152.61590909090907,
                "end_time": 152.7,
                "pitch": 47,
                "velocity": 101,
                "duration": 0.08409090909091788,
                "tempo": 120.0
            },
            {
                "start_time": 152.71818181818182,
                "end_time": 152.79999999999998,
                "pitch": 47,
                "velocity": 127,
                "duration": 0.08181818181816425,
                "tempo": 120.0
            },
            {
                "start_time": 152.8181818181818,
                "end_time": 152.90227272727273,
                "pitch": 47,
                "velocity": 101,
                "duration": 0.08409090909091788,
                "tempo": 120.0
            },
            {
                "start_time": 152.92045454545453,
                "end_time": 153.00227272727273,
                "pitch": 59,
                "velocity": 101,
                "duration": 0.08181818181819267,
                "tempo": 120.0
            },
            {
                "start_time": 153.02045454545453,
                "end_time": 153.10227272727272,
                "pitch": 47,
                "velocity": 101,
                "duration": 0.08181818181819267,
                "tempo": 120.0
            },
            {
                "start_time": 153.12272727272727,
                "end_time": 153.20454545454544,
                "pitch": 45,
                "velocity": 127,
                "duration": 0.08181818181816425,
                "tempo": 120.0
            },
            {
                "start_time": 153.22045454545454,
                "end_time": 153.30454545454543,
                "pitch": 45,
                "velocity": 101,
                "duration": 0.08409090909088945,
                "tempo": 120.0
            },
            {
                "start_time": 153.32272727272726,
                "end_time": 153.40454545454546,
                "pitch": 57,
                "velocity": 101,
                "duration": 0.08181818181819267,
                "tempo": 120.0
            },
            {
                "start_time": 153.42045454545453,
                "end_time": 153.50454545454545,
                "pitch": 45,
                "velocity": 101,
                "duration": 0.08409090909091788,
                "tempo": 120.0
            },
            {
                "start_time": 153.52272727272725,
                "end_time": 153.60454545454544,
                "pitch": 45,
                "velocity": 127,
                "duration": 0.08181818181819267,
                "tempo": 120.0
            },
            {
                "start_time": 153.62272727272727,
                "end_time": 153.70454545454544,
                "pitch": 45,
                "velocity": 101,
                "duration": 0.08181818181816425,
                "tempo": 120.0
            },
            {
                "start_time": 153.72272727272727,
                "end_time": 153.8068181818182,
                "pitch": 57,
                "velocity": 101,
                "duration": 0.08409090909091788,
                "tempo": 120.0
            },
            {
                "start_time": 153.82272727272726,
                "end_time": 153.90681818181818,
                "pitch": 45,
                "velocity": 101,
                "duration": 0.08409090909091788,
                "tempo": 120.0
            },
            {
                "start_time": 153.92499999999998,
                "end_time": 154.00681818181818,
                "pitch": 45,
                "velocity": 127,
                "duration": 0.08181818181819267,
                "tempo": 120.0
            },
            {
                "start_time": 154.025,
                "end_time": 154.1090909090909,
                "pitch": 45,
                "velocity": 101,
                "duration": 0.08409090909088945,
                "tempo": 120.0
            },
            {
                "start_time": 154.125,
                "end_time": 154.2090909090909,
                "pitch": 57,
                "velocity": 101,
                "duration": 0.08409090909088945,
                "tempo": 120.0
            },
            {
                "start_time": 154.22727272727272,
                "end_time": 154.3090909090909,
                "pitch": 45,
                "velocity": 101,
                "duration": 0.08181818181819267,
                "tempo": 120.0
            },
            {
                "start_time": 154.3272727272727,
                "end_time": 154.41136363636363,
                "pitch": 45,
                "velocity": 127,
                "duration": 0.08409090909091788,
                "tempo": 120.0
            },
            {
                "start_time": 154.42954545454543,
                "end_time": 154.51136363636363,
                "pitch": 45,
                "velocity": 101,
                "duration": 0.08181818181819267,
                "tempo": 120.0
            },
            {
                "start_time": 154.53181818181818,
                "end_time": 154.61363636363635,
                "pitch": 57,
                "velocity": 101,
                "duration": 0.08181818181816425,
                "tempo": 120.0
            },
            {
                "start_time": 154.63181818181818,
                "end_time": 154.71363636363637,
                "pitch": 45,
                "velocity": 101,
                "duration": 0.08181818181819267,
                "tempo": 120.0
            },
            {
                "start_time": 154.73636363636362,
                "end_time": 154.8159090909091,
                "pitch": 45,
                "velocity": 127,
                "duration": 0.07954545454546746,
                "tempo": 120.0
            },
            {
                "start_time": 154.8340909090909,
                "end_time": 154.9181818181818,
                "pitch": 48,
                "velocity": 101,
                "duration": 0.08409090909091788,
                "tempo": 120.0
            },
            {
                "start_time": 154.93636363636364,
                "end_time": 155.02045454545453,
                "pitch": 47,
                "velocity": 101,
                "duration": 0.08409090909088945,
                "tempo": 120.0
            },
            {
                "start_time": 155.03863636363636,
                "end_time": 155.125,
                "pitch": 48,
                "velocity": 101,
                "duration": 0.08636363636364308,
                "tempo": 120.0
            },
            {
                "start_time": 155.1431818181818,
                "end_time": 155.22272727272727,
                "pitch": 45,
                "velocity": 127,
                "duration": 0.07954545454546746,
                "tempo": 120.0
            },
            {
                "start_time": 155.24090909090907,
                "end_time": 155.32045454545454,
                "pitch": 48,
                "velocity": 101,
                "duration": 0.07954545454546746,
                "tempo": 120.0
            },
            {
                "start_time": 155.33863636363637,
                "end_time": 155.42045454545453,
                "pitch": 47,
                "velocity": 101,
                "duration": 0.08181818181816425,
                "tempo": 120.0
            },
            {
                "start_time": 155.43636363636364,
                "end_time": 155.5181818181818,
                "pitch": 48,
                "velocity": 101,
                "duration": 0.08181818181816425,
                "tempo": 120.0
            },
            {
                "start_time": 155.53636363636363,
                "end_time": 155.61818181818182,
                "pitch": 45,
                "velocity": 127,
                "duration": 0.08181818181819267,
                "tempo": 120.0
            },
            {
                "start_time": 155.63636363636363,
                "end_time": 155.71818181818182,
                "pitch": 48,
                "velocity": 101,
                "duration": 0.08181818181819267,
                "tempo": 120.0
            },
            {
                "start_time": 155.73636363636362,
                "end_time": 155.82045454545454,
                "pitch": 47,
                "velocity": 101,
                "duration": 0.08409090909091788,
                "tempo": 120.0
            },
            {
                "start_time": 155.83636363636361,
                "end_time": 155.92045454545453,
                "pitch": 48,
                "velocity": 101,
                "duration": 0.08409090909091788,
                "tempo": 120.0
            },
            {
                "start_time": 155.93863636363636,
                "end_time": 156.02045454545453,
                "pitch": 45,
                "velocity": 127,
                "duration": 0.08181818181816425,
                "tempo": 120.0
            },
            {
                "start_time": 156.03863636363636,
                "end_time": 156.12272727272727,
                "pitch": 48,
                "velocity": 101,
                "duration": 0.08409090909091788,
                "tempo": 120.0
            },
            {
                "start_time": 156.14090909090908,
                "end_time": 156.22272727272727,
                "pitch": 47,
                "velocity": 101,
                "duration": 0.08181818181819267,
                "tempo": 120.0
            },
            {
                "start_time": 156.24090909090907,
                "end_time": 156.32272727272726,
                "pitch": 48,
                "velocity": 101,
                "duration": 0.08181818181819267,
                "tempo": 120.0
            },
            {
                "start_time": 156.34318181818182,
                "end_time": 156.42499999999998,
                "pitch": 43,
                "velocity": 127,
                "duration": 0.08181818181816425,
                "tempo": 120.0
            },
            {
                "start_time": 156.4431818181818,
                "end_time": 156.52954545454546,
                "pitch": 47,
                "velocity": 101,
                "duration": 0.08636363636364308,
                "tempo": 120.0
            },
            {
                "start_time": 156.54772727272726,
                "end_time": 156.63181818181818,
                "pitch": 45,
                "velocity": 101,
                "duration": 0.08409090909091788,
                "tempo": 120.0
            },
            {
                "start_time": 156.65,
                "end_time": 156.7340909090909,
                "pitch": 47,
                "velocity": 101,
                "duration": 0.08409090909088945,
                "tempo": 120.0
            },
            {
                "start_time": 156.75227272727273,
                "end_time": 156.8340909090909,
                "pitch": 43,
                "velocity": 127,
                "duration": 0.08181818181816425,
                "tempo": 120.0
            },
            {
                "start_time": 156.85,
                "end_time": 156.9318181818182,
                "pitch": 47,
                "velocity": 101,
                "duration": 0.08181818181819267,
                "tempo": 120.0
            },
            {
                "start_time": 156.94772727272726,
                "end_time": 157.02954545454546,
                "pitch": 45,
                "velocity": 101,
                "duration": 0.08181818181819267,
                "tempo": 120.0
            },
            {
                "start_time": 157.04772727272726,
                "end_time": 157.12727272727273,
                "pitch": 47,
                "velocity": 101,
                "duration": 0.07954545454546746,
                "tempo": 120.0
            },
            {
                "start_time": 157.14545454545453,
                "end_time": 157.22727272727272,
                "pitch": 43,
                "velocity": 127,
                "duration": 0.08181818181819267,
                "tempo": 120.0
            },
            {
                "start_time": 157.24545454545455,
                "end_time": 157.3272727272727,
                "pitch": 47,
                "velocity": 101,
                "duration": 0.08181818181816425,
                "tempo": 120.0
            },
            {
                "start_time": 157.34545454545454,
                "end_time": 157.4272727272727,
                "pitch": 45,
                "velocity": 101,
                "duration": 0.08181818181816425,
                "tempo": 120.0
            },
            {
                "start_time": 157.44545454545454,
                "end_time": 157.52727272727273,
                "pitch": 47,
                "velocity": 101,
                "duration": 0.08181818181819267,
                "tempo": 120.0
            },
            {
                "start_time": 157.54545454545453,
                "end_time": 157.62954545454545,
                "pitch": 43,
                "velocity": 127,
                "duration": 0.08409090909091788,
                "tempo": 120.0
            },
            {
                "start_time": 157.64545454545453,
                "end_time": 157.72954545454544,
                "pitch": 47,
                "velocity": 101,
                "duration": 0.08409090909091788,
                "tempo": 120.0
            },
            {
                "start_time": 157.74772727272727,
                "end_time": 157.82954545454544,
                "pitch": 45,
                "velocity": 101,
                "duration": 0.08181818181816425,
                "tempo": 120.0
            },
            {
                "start_time": 157.84772727272727,
                "end_time": 157.9318181818182,
                "pitch": 47,
                "velocity": 101,
                "duration": 0.08409090909091788,
                "tempo": 120.0
            },
            {
                "start_time": 157.9522727272727,
                "end_time": 158.0340909090909,
                "pitch": 47,
                "velocity": 127,
                "duration": 0.08181818181819267,
                "tempo": 120.0
            },
            {
                "start_time": 158.0522727272727,
                "end_time": 158.13636363636363,
                "pitch": 50,
                "velocity": 101,
                "duration": 0.08409090909091788,
                "tempo": 120.0
            },
            {
                "start_time": 158.15454545454546,
                "end_time": 158.23863636363635,
                "pitch": 48,
                "velocity": 101,
                "duration": 0.08409090909088945,
                "tempo": 120.0
            },
            {
                "start_time": 158.25681818181818,
                "end_time": 158.34318181818182,
                "pitch": 50,
                "velocity": 101,
                "duration": 0.08636363636364308,
                "tempo": 120.0
            },
            {
                "start_time": 158.36136363636362,
                "end_time": 158.4409090909091,
                "pitch": 47,
                "velocity": 127,
                "duration": 0.07954545454546746,
                "tempo": 120.0
            },
            {
                "start_time": 158.4590909090909,
                "end_time": 158.53863636363636,
                "pitch": 50,
                "velocity": 101,
                "duration": 0.07954545454546746,
                "tempo": 120.0
            },
            {
                "start_time": 158.5568181818182,
                "end_time": 158.63863636363635,
                "pitch": 48,
                "velocity": 101,
                "duration": 0.08181818181816425,
                "tempo": 120.0
            },
            {
                "start_time": 158.65454545454546,
                "end_time": 158.73636363636362,
                "pitch": 50,
                "velocity": 101,
                "duration": 0.08181818181816425,
                "tempo": 120.0
            },
            {
                "start_time": 158.75454545454545,
                "end_time": 158.83636363636361,
                "pitch": 47,
                "velocity": 127,
                "duration": 0.08181818181816425,
                "tempo": 120.0
            },
            {
                "start_time": 158.85454545454544,
                "end_time": 158.93636363636364,
                "pitch": 50,
                "velocity": 101,
                "duration": 0.08181818181819267,
                "tempo": 120.0
            },
            {
                "start_time": 158.95454545454544,
                "end_time": 159.03863636363636,
                "pitch": 48,
                "velocity": 101,
                "duration": 0.08409090909091788,
                "tempo": 120.0
            },
            {
                "start_time": 159.05454545454543,
                "end_time": 159.13863636363635,
                "pitch": 50,
                "velocity": 101,
                "duration": 0.08409090909091788,
                "tempo": 120.0
            },
            {
                "start_time": 159.15681818181818,
                "end_time": 159.24090909090907,
                "pitch": 47,
                "velocity": 127,
                "duration": 0.08409090909088945,
                "tempo": 120.0
            },
            {
                "start_time": 159.2590909090909,
                "end_time": 159.34318181818182,
                "pitch": 50,
                "velocity": 101,
                "duration": 0.08409090909091788,
                "tempo": 120.0
            },
            {
                "start_time": 159.36136363636362,
                "end_time": 159.44772727272726,
                "pitch": 48,
                "velocity": 101,
                "duration": 0.08636363636364308,
                "tempo": 120.0
            },
            {
                "start_time": 159.4659090909091,
                "end_time": 159.54999999999998,
                "pitch": 50,
                "velocity": 101,
                "duration": 0.08409090909088945,
                "tempo": 120.0
            },
            {
                "start_time": 159.57045454545454,
                "end_time": 159.65,
                "pitch": 45,
                "velocity": 127,
                "duration": 0.07954545454546746,
                "tempo": 120.0
            },
            {
                "start_time": 159.6681818181818,
                "end_time": 159.75227272727273,
                "pitch": 48,
                "velocity": 101,
                "duration": 0.08409090909091788,
                "tempo": 120.0
            },
            {
                "start_time": 159.7681818181818,
                "end_time": 159.85227272727272,
                "pitch": 47,
                "velocity": 101,
                "duration": 0.08409090909091788,
                "tempo": 120.0
            },
            {
                "start_time": 159.87045454545455,
                "end_time": 159.9522727272727,
                "pitch": 48,
                "velocity": 101,
                "duration": 0.08181818181816425,
                "tempo": 120.0
            },
            {
                "start_time": 159.97045454545454,
                "end_time": 160.0522727272727,
                "pitch": 45,
                "velocity": 127,
                "duration": 0.08181818181816425,
                "tempo": 120.0
            },
            {
                "start_time": 160.0681818181818,
                "end_time": 160.15,
                "pitch": 48,
                "velocity": 101,
                "duration": 0.08181818181819267,
                "tempo": 120.0
            },
            {
                "start_time": 160.16590909090908,
                "end_time": 160.24772727272727,
                "pitch": 47,
                "velocity": 101,
                "duration": 0.08181818181819267,
                "tempo": 120.0
            },
            {
                "start_time": 160.26590909090908,
                "end_time": 160.34545454545454,
                "pitch": 48,
                "velocity": 101,
                "duration": 0.07954545454546746,
                "tempo": 120.0
            },
            {
                "start_time": 160.36363636363635,
                "end_time": 160.44772727272726,
                "pitch": 45,
                "velocity": 127,
                "duration": 0.08409090909091788,
                "tempo": 120.0
            },
            {
                "start_time": 160.4659090909091,
                "end_time": 160.54999999999998,
                "pitch": 48,
                "velocity": 101,
                "duration": 0.08409090909088945,
                "tempo": 120.0
            },
            {
                "start_time": 160.5681818181818,
                "end_time": 160.65454545454546,
                "pitch": 47,
                "velocity": 101,
                "duration": 0.08636363636364308,
                "tempo": 120.0
            },
            {
                "start_time": 160.67272727272726,
                "end_time": 160.75681818181818,
                "pitch": 48,
                "velocity": 101,
                "duration": 0.08409090909091788,
                "tempo": 120.0
            },
            {
                "start_time": 160.775,
                "end_time": 160.8590909090909,
                "pitch": 45,
                "velocity": 127,
                "duration": 0.08409090909088945,
                "tempo": 120.0
            },
            {
                "start_time": 160.875,
                "end_time": 160.9590909090909,
                "pitch": 48,
                "velocity": 101,
                "duration": 0.08409090909088945,
                "tempo": 120.0
            },
            {
                "start_time": 160.97727272727272,
                "end_time": 161.0590909090909,
                "pitch": 47,
                "velocity": 101,
                "duration": 0.08181818181819267,
                "tempo": 120.0
            },
            {
                "start_time": 161.0772727272727,
                "end_time": 161.16136363636363,
                "pitch": 48,
                "velocity": 101,
                "duration": 0.08409090909091788,
                "tempo": 120.0
            },
            {
                "start_time": 161.17954545454543,
                "end_time": 161.26136363636363,
                "pitch": 45,
                "velocity": 127,
                "duration": 0.08181818181819267,
                "tempo": 120.0
            },
            {
                "start_time": 161.27954545454546,
                "end_time": 161.36136363636362,
                "pitch": 48,
                "velocity": 101,
                "duration": 0.08181818181816425,
                "tempo": 120.0
            },
            {
                "start_time": 161.37954545454545,
                "end_time": 161.46363636363637,
                "pitch": 47,
                "velocity": 101,
                "duration": 0.08409090909091788,
                "tempo": 120.0
            },
            {
                "start_time": 161.47954545454544,
                "end_time": 161.56363636363636,
                "pitch": 48,
                "velocity": 101,
                "duration": 0.08409090909091788,
                "tempo": 120.0
            },
            {
                "start_time": 161.58181818181816,
                "end_time": 161.66363636363636,
                "pitch": 45,
                "velocity": 127,
                "duration": 0.08181818181819267,
                "tempo": 120.0
            },
            {
                "start_time": 161.6818181818182,
                "end_time": 161.76590909090908,
                "pitch": 48,
                "velocity": 101,
                "duration": 0.08409090909088945,
                "tempo": 120.0
            },
            {
                "start_time": 161.78181818181818,
                "end_time": 161.86590909090907,
                "pitch": 47,
                "velocity": 101,
                "duration": 0.08409090909088945,
                "tempo": 120.0
            },
            {
                "start_time": 161.8840909090909,
                "end_time": 161.9659090909091,
                "pitch": 48,
                "velocity": 101,
                "duration": 0.08181818181819267,
                "tempo": 120.0
            },
            {
                "start_time": 161.9840909090909,
                "end_time": 162.0659090909091,
                "pitch": 45,
                "velocity": 127,
                "duration": 0.08181818181819267,
                "tempo": 120.0
            },
            {
                "start_time": 162.0840909090909,
                "end_time": 162.1681818181818,
                "pitch": 48,
                "velocity": 101,
                "duration": 0.08409090909091788,
                "tempo": 120.0
            },
            {
                "start_time": 162.1840909090909,
                "end_time": 162.2681818181818,
                "pitch": 47,
                "velocity": 101,
                "duration": 0.08409090909088945,
                "tempo": 120.0
            },
            {
                "start_time": 162.2840909090909,
                "end_time": 162.36818181818182,
                "pitch": 48,
                "velocity": 101,
                "duration": 0.08409090909091788,
                "tempo": 120.0
            },
            {
                "start_time": 162.38636363636363,
                "end_time": 162.46818181818182,
                "pitch": 45,
                "velocity": 127,
                "duration": 0.08181818181819267,
                "tempo": 120.0
            },
            {
                "start_time": 162.48636363636362,
                "end_time": 162.5681818181818,
                "pitch": 48,
                "velocity": 101,
                "duration": 0.08181818181819267,
                "tempo": 120.0
            },
            {
                "start_time": 162.58636363636361,
                "end_time": 162.67045454545453,
                "pitch": 47,
                "velocity": 101,
                "duration": 0.08409090909091788,
                "tempo": 120.0
            },
            {
                "start_time": 162.68863636363636,
                "end_time": 162.77045454545453,
                "pitch": 48,
                "velocity": 101,
                "duration": 0.08181818181816425,
                "tempo": 120.0
            },
            {
                "start_time": 162.79090909090908,
                "end_time": 162.87272727272727,
                "pitch": 43,
                "velocity": 127,
                "duration": 0.08181818181819267,
                "tempo": 120.0
            },
            {
                "start_time": 162.89090909090908,
                "end_time": 162.975,
                "pitch": 47,
                "velocity": 101,
                "duration": 0.08409090909091788,
                "tempo": 120.0
            },
            {
                "start_time": 162.99318181818182,
                "end_time": 163.07954545454544,
                "pitch": 45,
                "velocity": 101,
                "duration": 0.08636363636361466,
                "tempo": 120.0
            },
            {
                "start_time": 163.09545454545454,
                "end_time": 163.1818181818182,
                "pitch": 47,
                "velocity": 101,
                "duration": 0.08636363636364308,
                "tempo": 120.0
            },
            {
                "start_time": 163.2,
                "end_time": 163.27954545454546,
                "pitch": 43,
                "velocity": 127,
                "duration": 0.07954545454546746,
                "tempo": 120.0
            },
            {
                "start_time": 163.29772727272726,
                "end_time": 163.37954545454545,
                "pitch": 47,
                "velocity": 101,
                "duration": 0.08181818181819267,
                "tempo": 120.0
            },
            {
                "start_time": 163.39545454545453,
                "end_time": 163.47727272727272,
                "pitch": 45,
                "velocity": 101,
                "duration": 0.08181818181819267,
                "tempo": 120.0
            },
            {
                "start_time": 163.49318181818182,
                "end_time": 163.575,
                "pitch": 47,
                "velocity": 101,
                "duration": 0.08181818181816425,
                "tempo": 120.0
            },
            {
                "start_time": 163.59318181818182,
                "end_time": 163.67499999999998,
                "pitch": 43,
                "velocity": 127,
                "duration": 0.08181818181816425,
                "tempo": 120.0
            },
            {
                "start_time": 163.6931818181818,
                "end_time": 163.775,
                "pitch": 47,
                "velocity": 101,
                "duration": 0.08181818181819267,
                "tempo": 120.0
            },
            {
                "start_time": 163.7931818181818,
                "end_time": 163.87727272727273,
                "pitch": 45,
                "velocity": 101,
                "duration": 0.08409090909091788,
                "tempo": 120.0
            },
            {
                "start_time": 163.8931818181818,
                "end_time": 163.97727272727272,
                "pitch": 47,
                "velocity": 101,
                "duration": 0.08409090909091788,
                "tempo": 120.0
            },
            {
                "start_time": 163.99545454545455,
                "end_time": 164.0772727272727,
                "pitch": 43,
                "velocity": 127,
                "duration": 0.08181818181816425,
                "tempo": 120.0
            },
            {
                "start_time": 164.09545454545454,
                "end_time": 164.1772727272727,
                "pitch": 47,
                "velocity": 101,
                "duration": 0.08181818181816425,
                "tempo": 120.0
            },
            {
                "start_time": 164.19545454545454,
                "end_time": 164.27727272727273,
                "pitch": 45,
                "velocity": 101,
                "duration": 0.08181818181819267,
                "tempo": 120.0
            },
            {
                "start_time": 164.29545454545453,
                "end_time": 164.37727272727273,
                "pitch": 47,
                "velocity": 101,
                "duration": 0.08181818181819267,
                "tempo": 120.0
            },
            {
                "start_time": 164.39772727272725,
                "end_time": 164.47954545454544,
                "pitch": 47,
                "velocity": 127,
                "duration": 0.08181818181819267,
                "tempo": 120.0
            },
            {
                "start_time": 164.49772727272727,
                "end_time": 164.5840909090909,
                "pitch": 50,
                "velocity": 101,
                "duration": 0.08636363636361466,
                "tempo": 120.0
            },
            {
                "start_time": 164.6,
                "end_time": 164.68636363636364,
                "pitch": 48,
                "velocity": 101,
                "duration": 0.08636363636364308,
                "tempo": 120.0
            },
            {
                "start_time": 164.70454545454544,
                "end_time": 164.78863636363636,
                "pitch": 50,
                "velocity": 101,
                "duration": 0.08409090909091788,
                "tempo": 120.0
            },
            {
                "start_time": 164.8068181818182,
                "end_time": 164.88863636363635,
                "pitch": 47,
                "velocity": 127,
                "duration": 0.08181818181816425,
                "tempo": 120.0
            },
            {
                "start_time": 164.90454545454546,
                "end_time": 164.98636363636362,
                "pitch": 50,
                "velocity": 101,
                "duration": 0.08181818181816425,
                "tempo": 120.0
            },
            {
                "start_time": 165.00227272727273,
                "end_time": 165.0840909090909,
                "pitch": 48,
                "velocity": 101,
                "duration": 0.08181818181816425,
                "tempo": 120.0
            },
            {
                "start_time": 165.10227272727272,
                "end_time": 165.1818181818182,
                "pitch": 50,
                "velocity": 101,
                "duration": 0.07954545454546746,
                "tempo": 120.0
            },
            {
                "start_time": 165.2,
                "end_time": 165.28181818181818,
                "pitch": 47,
                "velocity": 127,
                "duration": 0.08181818181819267,
                "tempo": 120.0
            },
            {
                "start_time": 165.29999999999998,
                "end_time": 165.3840909090909,
                "pitch": 50,
                "velocity": 101,
                "duration": 0.08409090909091788,
                "tempo": 120.0
            },
            {
                "start_time": 165.4,
                "end_time": 165.4840909090909,
                "pitch": 48,
                "velocity": 101,
                "duration": 0.08409090909088945,
                "tempo": 120.0
            },
            {
                "start_time": 165.50227272727273,
                "end_time": 165.58636363636361,
                "pitch": 50,
                "velocity": 101,
                "duration": 0.08409090909088945,
                "tempo": 120.0
            },
            {
                "start_time": 165.60454545454544,
                "end_time": 165.68636363636364,
                "pitch": 47,
                "velocity": 127,
                "duration": 0.08181818181819267,
                "tempo": 120.0
            },
            {
                "start_time": 165.70454545454544,
                "end_time": 165.78636363636363,
                "pitch": 50,
                "velocity": 101,
                "duration": 0.08181818181819267,
                "tempo": 120.0
            },
            {
                "start_time": 165.80454545454543,
                "end_time": 165.88863636363635,
                "pitch": 48,
                "velocity": 101,
                "duration": 0.08409090909091788,
                "tempo": 120.0
            },
            {
                "start_time": 165.90681818181818,
                "end_time": 165.98863636363635,
                "pitch": 50,
                "velocity": 101,
                "duration": 0.08181818181816425,
                "tempo": 120.0
            },
            {
                "start_time": 166.0090909090909,
                "end_time": 166.0909090909091,
                "pitch": 45,
                "velocity": 127,
                "duration": 0.08181818181819267,
                "tempo": 120.0
            },
            {
                "start_time": 166.1090909090909,
                "end_time": 166.1931818181818,
                "pitch": 48,
                "velocity": 101,
                "duration": 0.08409090909091788,
                "tempo": 120.0
            },
            {
                "start_time": 166.21136363636361,
                "end_time": 166.29545454545453,
                "pitch": 47,
                "velocity": 101,
                "duration": 0.08409090909091788,
                "tempo": 120.0
            },
            {
                "start_time": 166.31363636363636,
                "end_time": 166.4,
                "pitch": 48,
                "velocity": 101,
                "duration": 0.08636363636364308,
                "tempo": 120.0
            },
            {
                "start_time": 166.4181818181818,
                "end_time": 166.49772727272727,
                "pitch": 45,
                "velocity": 127,
                "duration": 0.07954545454546746,
                "tempo": 120.0
            },
            {
                "start_time": 166.51590909090908,
                "end_time": 166.59545454545454,
                "pitch": 48,
                "velocity": 101,
                "duration": 0.07954545454546746,
                "tempo": 120.0
            },
            {
                "start_time": 166.61363636363635,
                "end_time": 166.69545454545454,
                "pitch": 47,
                "velocity": 101,
                "duration": 0.08181818181819267,
                "tempo": 120.0
            },
            {
                "start_time": 166.71136363636361,
                "end_time": 166.7931818181818,
                "pitch": 48,
                "velocity": 101,
                "duration": 0.08181818181819267,
                "tempo": 120.0
            },
            {
                "start_time": 166.81136363636364,
                "end_time": 166.89545454545453,
                "pitch": 45,
                "velocity": 127,
                "duration": 0.08409090909088945,
                "tempo": 120.0
            },
            {
                "start_time": 166.91136363636363,
                "end_time": 166.99772727272727,
                "pitch": 48,
                "velocity": 101,
                "duration": 0.08636363636364308,
                "tempo": 120.0
            },
            {
                "start_time": 167.01590909090908,
                "end_time": 167.1,
                "pitch": 47,
                "velocity": 101,
                "duration": 0.08409090909091788,
                "tempo": 120.0
            },
            {
                "start_time": 167.1181818181818,
                "end_time": 167.2022727272727,
                "pitch": 48,
                "velocity": 101,
                "duration": 0.08409090909091788,
                "tempo": 120.0
            },
            {
                "start_time": 167.22272727272727,
                "end_time": 167.30454545454543,
                "pitch": 45,
                "velocity": 127,
                "duration": 0.08181818181816425,
                "tempo": 120.0
            },
            {
                "start_time": 167.32272727272726,
                "end_time": 167.40454545454546,
                "pitch": 48,
                "velocity": 101,
                "duration": 0.08181818181819267,
                "tempo": 120.0
            },
            {
                "start_time": 167.42272727272726,
                "end_time": 167.50681818181818,
                "pitch": 47,
                "velocity": 101,
                "duration": 0.08409090909091788,
                "tempo": 120.0
            },
            {
                "start_time": 167.52272727272725,
                "end_time": 167.60681818181817,
                "pitch": 48,
                "velocity": 101,
                "duration": 0.08409090909091788,
                "tempo": 120.0
            },
            {
                "start_time": 167.62727272727273,
                "end_time": 167.8090909090909,
                "pitch": 45,
                "velocity": 127,
                "duration": 0.18181818181818699,
                "tempo": 120.0
            },
            {
                "start_time": 167.8272727272727,
                "end_time": 167.9090909090909,
                "pitch": 45,
                "velocity": 101,
                "duration": 0.08181818181819267,
                "tempo": 120.0
            },
            {
                "start_time": 167.9272727272727,
                "end_time": 168.0090909090909,
                "pitch": 57,
                "velocity": 101,
                "duration": 0.08181818181819267,
                "tempo": 120.0
            },
            {
                "start_time": 168.02954545454546,
                "end_time": 168.21136363636361,
                "pitch": 45,
                "velocity": 127,
                "duration": 0.18181818181815856,
                "tempo": 120.0
            },
            {
                "start_time": 168.22954545454544,
                "end_time": 168.31136363636364,
                "pitch": 45,
                "velocity": 101,
                "duration": 0.08181818181819267,
                "tempo": 120.0
            },
            {
                "start_time": 168.32954545454544,
                "end_time": 168.41363636363636,
                "pitch": 57,
                "velocity": 101,
                "duration": 0.08409090909091788,
                "tempo": 120.0
            },
            {
                "start_time": 168.4318181818182,
                "end_time": 168.61590909090907,
                "pitch": 45,
                "velocity": 127,
                "duration": 0.18409090909088377,
                "tempo": 120.0
            },
            {
                "start_time": 168.63181818181818,
                "end_time": 168.7159090909091,
                "pitch": 45,
                "velocity": 101,
                "duration": 0.08409090909091788,
                "tempo": 120.0
            },
            {
                "start_time": 168.7340909090909,
                "end_time": 168.8159090909091,
                "pitch": 57,
                "velocity": 101,
                "duration": 0.08181818181819267,
                "tempo": 120.0
            },
            {
                "start_time": 168.8340909090909,
                "end_time": 169.01590909090908,
                "pitch": 45,
                "velocity": 127,
                "duration": 0.18181818181818699,
                "tempo": 120.0
            },
            {
                "start_time": 169.0340909090909,
                "end_time": 169.11590909090907,
                "pitch": 45,
                "velocity": 101,
                "duration": 0.08181818181816425,
                "tempo": 120.0
            },
            {
                "start_time": 169.1340909090909,
                "end_time": 169.21818181818182,
                "pitch": 57,
                "velocity": 101,
                "duration": 0.08409090909091788,
                "tempo": 120.0
            },
            {
                "start_time": 169.23636363636362,
                "end_time": 169.4181818181818,
                "pitch": 43,
                "velocity": 127,
                "duration": 0.18181818181818699,
                "tempo": 120.0
            },
            {
                "start_time": 169.43636363636364,
                "end_time": 169.52045454545453,
                "pitch": 43,
                "velocity": 101,
                "duration": 0.08409090909088945,
                "tempo": 120.0
            },
            {
                "start_time": 169.53636363636363,
                "end_time": 169.62045454545455,
                "pitch": 55,
                "velocity": 101,
                "duration": 0.08409090909091788,
                "tempo": 120.0
            },
            {
                "start_time": 169.63863636363635,
                "end_time": 169.82272727272726,
                "pitch": 43,
                "velocity": 127,
                "duration": 0.1840909090909122,
                "tempo": 120.0
            },
            {
                "start_time": 169.83863636363637,
                "end_time": 169.92272727272726,
                "pitch": 43,
                "velocity": 101,
                "duration": 0.08409090909088945,
                "tempo": 120.0
            },
            {
                "start_time": 169.9409090909091,
                "end_time": 170.02272727272725,
                "pitch": 55,
                "velocity": 101,
                "duration": 0.08181818181816425,
                "tempo": 120.0
            },
            {
                "start_time": 170.04090909090908,
                "end_time": 170.225,
                "pitch": 43,
                "velocity": 127,
                "duration": 0.1840909090909122,
                "tempo": 120.0
            },
            {
                "start_time": 170.2431818181818,
                "end_time": 170.325,
                "pitch": 43,
                "velocity": 101,
                "duration": 0.08181818181819267,
                "tempo": 120.0
            },
            {
                "start_time": 170.34318181818182,
                "end_time": 170.4272727272727,
                "pitch": 55,
                "velocity": 101,
                "duration": 0.08409090909088945,
                "tempo": 120.0
            },
            {
                "start_time": 170.44545454545454,
                "end_time": 170.62727272727273,
                "pitch": 43,
                "velocity": 127,
                "duration": 0.18181818181818699,
                "tempo": 120.0
            },
            {
                "start_time": 170.64545454545453,
                "end_time": 170.72954545454544,
                "pitch": 43,
                "velocity": 101,
                "duration": 0.08409090909091788,
                "tempo": 120.0
            },
            {
                "start_time": 170.74545454545455,
                "end_time": 170.82954545454544,
                "pitch": 55,
                "velocity": 101,
                "duration": 0.08409090909088945,
                "tempo": 120.0
            },
            {
                "start_time": 170.84772727272727,
                "end_time": 171.02954545454546,
                "pitch": 47,
                "velocity": 127,
                "duration": 0.18181818181818699,
                "tempo": 120.0
            },
            {
                "start_time": 171.04772727272726,
                "end_time": 171.12954545454545,
                "pitch": 47,
                "velocity": 101,
                "duration": 0.08181818181819267,
                "tempo": 120.0
            },
            {
                "start_time": 171.14772727272725,
                "end_time": 171.22954545454544,
                "pitch": 59,
                "velocity": 101,
                "duration": 0.08181818181819267,
                "tempo": 120.0
            },
            {
                "start_time": 171.25,
                "end_time": 171.4318181818182,
                "pitch": 47,
                "velocity": 127,
                "duration": 0.18181818181818699,
                "tempo": 120.0
            },
            {
                "start_time": 171.45,
                "end_time": 171.53181818181818,
                "pitch": 47,
                "velocity": 101,
                "duration": 0.08181818181819267,
                "tempo": 120.0
            },
            {
                "start_time": 171.54999999999998,
                "end_time": 171.6340909090909,
                "pitch": 59,
                "velocity": 101,
                "duration": 0.08409090909091788,
                "tempo": 120.0
            },
            {
                "start_time": 171.65227272727273,
                "end_time": 171.8340909090909,
                "pitch": 47,
                "velocity": 127,
                "duration": 0.18181818181815856,
                "tempo": 120.0
            },
            {
                "start_time": 171.85227272727272,
                "end_time": 171.93636363636364,
                "pitch": 47,
                "velocity": 101,
                "duration": 0.08409090909091788,
                "tempo": 120.0
            },
            {
                "start_time": 171.9522727272727,
                "end_time": 172.03636363636363,
                "pitch": 59,
                "velocity": 101,
                "duration": 0.08409090909091788,
                "tempo": 120.0
            },
            {
                "start_time": 172.05454545454543,
                "end_time": 172.23863636363635,
                "pitch": 47,
                "velocity": 127,
                "duration": 0.1840909090909122,
                "tempo": 120.0
            },
            {
                "start_time": 172.25681818181818,
                "end_time": 172.33863636363637,
                "pitch": 47,
                "velocity": 101,
                "duration": 0.08181818181819267,
                "tempo": 120.0
            },
            {
                "start_time": 172.35681818181817,
                "end_time": 172.4409090909091,
                "pitch": 59,
                "velocity": 101,
                "duration": 0.08409090909091788,
                "tempo": 120.0
            },
            {
                "start_time": 172.4590909090909,
                "end_time": 172.64090909090908,
                "pitch": 45,
                "velocity": 127,
                "duration": 0.18181818181818699,
                "tempo": 120.0
            },
            {
                "start_time": 172.6590909090909,
                "end_time": 172.7431818181818,
                "pitch": 45,
                "velocity": 101,
                "duration": 0.08409090909088945,
                "tempo": 120.0
            },
            {
                "start_time": 172.7590909090909,
                "end_time": 172.84318181818182,
                "pitch": 57,
                "velocity": 101,
                "duration": 0.08409090909091788,
                "tempo": 120.0
            },
            {
                "start_time": 172.86136363636362,
                "end_time": 173.0431818181818,
                "pitch": 45,
                "velocity": 127,
                "duration": 0.18181818181818699,
                "tempo": 120.0
            },
            {
                "start_time": 173.06136363636364,
                "end_time": 173.1431818181818,
                "pitch": 45,
                "velocity": 101,
                "duration": 0.08181818181816425,
                "tempo": 120.0
            },
            {
                "start_time": 173.16136363636363,
                "end_time": 173.2431818181818,
                "pitch": 57,
                "velocity": 101,
                "duration": 0.08181818181816425,
                "tempo": 120.0
            },
            {
                "start_time": 173.26136363636363,
                "end_time": 173.44545454545454,
                "pitch": 45,
                "velocity": 127,
                "duration": 0.1840909090909122,
                "tempo": 120.0
            },
            {
                "start_time": 173.46363636363637,
                "end_time": 173.54545454545453,
                "pitch": 45,
                "velocity": 101,
                "duration": 0.08181818181816425,
                "tempo": 120.0
            },
            {
                "start_time": 173.56363636363636,
                "end_time": 173.64772727272725,
                "pitch": 57,
                "velocity": 101,
                "duration": 0.08409090909088945,
                "tempo": 120.0
            },
            {
                "start_time": 173.66363636363636,
                "end_time": 173.84772727272727,
                "pitch": 45,
                "velocity": 127,
                "duration": 0.1840909090909122,
                "tempo": 120.0
            },
            {
                "start_time": 173.86590909090907,
                "end_time": 173.95,
                "pitch": 45,
                "velocity": 101,
                "duration": 0.08409090909091788,
                "tempo": 120.0
            },
            {
                "start_time": 173.9659090909091,
                "end_time": 174.04999999999998,
                "pitch": 57,
                "velocity": 101,
                "duration": 0.08409090909088945,
                "tempo": 120.0
            },
            {
                "start_time": 174.0681818181818,
                "end_time": 174.25454545454545,
                "pitch": 45,
                "velocity": 127,
                "duration": 0.1863636363636374,
                "tempo": 120.0
            },
            {
                "start_time": 174.275,
                "end_time": 174.3590909090909,
                "pitch": 45,
                "velocity": 101,
                "duration": 0.08409090909088945,
                "tempo": 120.0
            },
            {
                "start_time": 174.375,
                "end_time": 174.46136363636361,
                "pitch": 57,
                "velocity": 101,
                "duration": 0.08636363636361466,
                "tempo": 120.0
            },
            {
                "start_time": 174.47954545454544,
                "end_time": 174.66363636363636,
                "pitch": 45,
                "velocity": 127,
                "duration": 0.1840909090909122,
                "tempo": 120.0
            },
            {
                "start_time": 174.67954545454543,
                "end_time": 174.76363636363635,
                "pitch": 45,
                "velocity": 101,
                "duration": 0.08409090909091788,
                "tempo": 120.0
            },
            {
                "start_time": 174.78181818181818,
                "end_time": 174.86363636363635,
                "pitch": 57,
                "velocity": 101,
                "duration": 0.08181818181816425,
                "tempo": 120.0
            },
            {
                "start_time": 174.88181818181818,
                "end_time": 175.0659090909091,
                "pitch": 45,
                "velocity": 127,
                "duration": 0.1840909090909122,
                "tempo": 120.0
            },
            {
                "start_time": 175.0840909090909,
                "end_time": 175.1681818181818,
                "pitch": 45,
                "velocity": 101,
                "duration": 0.08409090909091788,
                "tempo": 120.0
            },
            {
                "start_time": 175.1840909090909,
                "end_time": 175.2681818181818,
                "pitch": 57,
                "velocity": 101,
                "duration": 0.08409090909088945,
                "tempo": 120.0
            },
            {
                "start_time": 175.28636363636363,
                "end_time": 175.46818181818182,
                "pitch": 45,
                "velocity": 127,
                "duration": 0.18181818181818699,
                "tempo": 120.0
            },
            {
                "start_time": 175.48636363636362,
                "end_time": 175.5681818181818,
                "pitch": 45,
                "velocity": 101,
                "duration": 0.08181818181819267,
                "tempo": 120.0
            },
            {
                "start_time": 175.58636363636361,
                "end_time": 175.6681818181818,
                "pitch": 57,
                "velocity": 101,
                "duration": 0.08181818181819267,
                "tempo": 120.0
            },
            {
                "start_time": 175.68636363636364,
                "end_time": 175.87045454545455,
                "pitch": 43,
                "velocity": 127,
                "duration": 0.1840909090909122,
                "tempo": 120.0
            },
            {
                "start_time": 175.88863636363635,
                "end_time": 175.97045454545454,
                "pitch": 43,
                "velocity": 101,
                "duration": 0.08181818181819267,
                "tempo": 120.0
            },
            {
                "start_time": 175.98863636363635,
                "end_time": 176.07272727272726,
                "pitch": 55,
                "velocity": 101,
                "duration": 0.08409090909091788,
                "tempo": 120.0
            },
            {
                "start_time": 176.0909090909091,
                "end_time": 176.27272727272725,
                "pitch": 43,
                "velocity": 127,
                "duration": 0.18181818181815856,
                "tempo": 120.0
            },
            {
                "start_time": 176.29090909090908,
                "end_time": 176.375,
                "pitch": 43,
                "velocity": 101,
                "duration": 0.08409090909091788,
                "tempo": 120.0
            },
            {
                "start_time": 176.39090909090908,
                "end_time": 176.475,
                "pitch": 55,
                "velocity": 101,
                "duration": 0.08409090909091788,
                "tempo": 120.0
            },
            {
                "start_time": 176.4931818181818,
                "end_time": 176.6772727272727,
                "pitch": 43,
                "velocity": 127,
                "duration": 0.1840909090909122,
                "tempo": 120.0
            },
            {
                "start_time": 176.6931818181818,
                "end_time": 176.77727272727273,
                "pitch": 43,
                "velocity": 101,
                "duration": 0.08409090909091788,
                "tempo": 120.0
            },
            {
                "start_time": 176.79545454545453,
                "end_time": 176.87727272727273,
                "pitch": 55,
                "velocity": 101,
                "duration": 0.08181818181819267,
                "tempo": 120.0
            },
            {
                "start_time": 176.89545454545453,
                "end_time": 177.07954545454544,
                "pitch": 43,
                "velocity": 127,
                "duration": 0.1840909090909122,
                "tempo": 120.0
            },
            {
                "start_time": 177.09772727272727,
                "end_time": 177.17954545454543,
                "pitch": 43,
                "velocity": 101,
                "duration": 0.08181818181816425,
                "tempo": 120.0
            },
            {
                "start_time": 177.19772727272726,
                "end_time": 177.28181818181818,
                "pitch": 55,
                "velocity": 101,
                "duration": 0.08409090909091788,
                "tempo": 120.0
            },
            {
                "start_time": 177.29999999999998,
                "end_time": 177.48181818181817,
                "pitch": 47,
                "velocity": 127,
                "duration": 0.18181818181818699,
                "tempo": 120.0
            },
            {
                "start_time": 177.5,
                "end_time": 177.58181818181816,
                "pitch": 47,
                "velocity": 101,
                "duration": 0.08181818181816425,
                "tempo": 120.0
            },
            {
                "start_time": 177.6,
                "end_time": 177.6818181818182,
                "pitch": 59,
                "velocity": 101,
                "duration": 0.08181818181819267,
                "tempo": 120.0
            },
            {
                "start_time": 177.7,
                "end_time": 177.8840909090909,
                "pitch": 47,
                "velocity": 127,
                "duration": 0.1840909090909122,
                "tempo": 120.0
            },
            {
                "start_time": 177.89999999999998,
                "end_time": 177.9840909090909,
                "pitch": 47,
                "velocity": 101,
                "duration": 0.08409090909091788,
                "tempo": 120.0
            },
            {
                "start_time": 178.00227272727273,
                "end_time": 178.0840909090909,
                "pitch": 59,
                "velocity": 101,
                "duration": 0.08181818181816425,
                "tempo": 120.0
            },
            {
                "start_time": 178.10227272727272,
                "end_time": 178.28636363636363,
                "pitch": 47,
                "velocity": 127,
                "duration": 0.1840909090909122,
                "tempo": 120.0
            },
            {
                "start_time": 178.30454545454543,
                "end_time": 178.38636363636363,
                "pitch": 47,
                "velocity": 101,
                "duration": 0.08181818181819267,
                "tempo": 120.0
            },
            {
                "start_time": 178.40454545454546,
                "end_time": 178.48863636363635,
                "pitch": 59,
                "velocity": 101,
                "duration": 0.08409090909088945,
                "tempo": 120.0
            },
            {
                "start_time": 178.50681818181818,
                "end_time": 178.6909090909091,
                "pitch": 47,
                "velocity": 127,
                "duration": 0.1840909090909122,
                "tempo": 120.0
            },
            {
                "start_time": 178.70681818181816,
                "end_time": 178.79090909090908,
                "pitch": 47,
                "velocity": 101,
                "duration": 0.08409090909091788,
                "tempo": 120.0
            },
            {
                "start_time": 178.8090909090909,
                "end_time": 178.89090909090908,
                "pitch": 59,
                "velocity": 101,
                "duration": 0.08181818181816425,
                "tempo": 120.0
            },
            {
                "start_time": 178.9090909090909,
                "end_time": 179.09318181818182,
                "pitch": 45,
                "velocity": 127,
                "duration": 0.1840909090909122,
                "tempo": 120.0
            },
            {
                "start_time": 179.11136363636362,
                "end_time": 179.1931818181818,
                "pitch": 45,
                "velocity": 101,
                "duration": 0.08181818181819267,
                "tempo": 120.0
            },
            {
                "start_time": 179.21136363636361,
                "end_time": 179.29545454545453,
                "pitch": 57,
                "velocity": 101,
                "duration": 0.08409090909091788,
                "tempo": 120.0
            },
            {
                "start_time": 179.31363636363636,
                "end_time": 179.49545454545455,
                "pitch": 45,
                "velocity": 127,
                "duration": 0.18181818181818699,
                "tempo": 120.0
            },
            {
                "start_time": 179.51136363636363,
                "end_time": 179.59545454545454,
                "pitch": 45,
                "velocity": 101,
                "duration": 0.08409090909091788,
                "tempo": 120.0
            },
            {
                "start_time": 179.61136363636362,
                "end_time": 179.69545454545454,
                "pitch": 57,
                "velocity": 101,
                "duration": 0.08409090909091788,
                "tempo": 120.0
            },
            {
                "start_time": 179.71363636363637,
                "end_time": 179.89772727272725,
                "pitch": 45,
                "velocity": 127,
                "duration": 0.18409090909088377,
                "tempo": 120.0
            },
            {
                "start_time": 179.91363636363636,
                "end_time": 179.99772727272727,
                "pitch": 45,
                "velocity": 101,
                "duration": 0.08409090909091788,
                "tempo": 120.0
            }
        ],
        "French Horn": [
            {
                "start_time": 0.20227272727272727,
                "end_time": 1.7886363636363636,
                "pitch": 48,
                "velocity": 127,
                "duration": 1.5863636363636364,
                "tempo": 120.0
            },
            {
                "start_time": 1.7886363636363636,
                "end_time": 3.4045454545454543,
                "pitch": 47,
                "velocity": 127,
                "duration": 1.6159090909090907,
                "tempo": 120.0
            },
            {
                "start_time": 3.4045454545454543,
                "end_time": 5.009090909090909,
                "pitch": 50,
                "velocity": 127,
                "duration": 1.6045454545454545,
                "tempo": 120.0
            },
            {
                "start_time": 5.009090909090909,
                "end_time": 6.618181818181818,
                "pitch": 48,
                "velocity": 127,
                "duration": 1.6090909090909093,
                "tempo": 120.0
            },
            {
                "start_time": 5.009090909090909,
                "end_time": 6.618181818181818,
                "pitch": 48,
                "velocity": 127,
                "duration": 1.6090909090909093,
                "tempo": 120.0
            },
            {
                "start_time": 1.7886363636363636,
                "end_time": 8.227272727272727,
                "pitch": 32,
                "velocity": 127,
                "duration": 6.438636363636363,
                "tempo": 120.0
            },
            {
                "start_time": 6.618181818181818,
                "end_time": 8.227272727272727,
                "pitch": 48,
                "velocity": 127,
                "duration": 1.6090909090909085,
                "tempo": 120.0
            },
            {
                "start_time": 8.227272727272727,
                "end_time": 9.836363636363636,
                "pitch": 47,
                "velocity": 127,
                "duration": 1.6090909090909093,
                "tempo": 120.0
            },
            {
                "start_time": 3.4045454545454543,
                "end_time": 9.836363636363636,
                "pitch": 53,
                "velocity": 127,
                "duration": 6.431818181818182,
                "tempo": 120.0
            },
            {
                "start_time": 9.836363636363636,
                "end_time": 11.454545454545453,
                "pitch": 50,
                "velocity": 127,
                "duration": 1.6181818181818173,
                "tempo": 120.0
            },
            {
                "start_time": 11.454545454545453,
                "end_time": 13.068181818181818,
                "pitch": 48,
                "velocity": 127,
                "duration": 1.613636363636365,
                "tempo": 120.0
            },
            {
                "start_time": 11.454545454545453,
                "end_time": 13.068181818181818,
                "pitch": 48,
                "velocity": 127,
                "duration": 1.613636363636365,
                "tempo": 120.0
            },
            {
                "start_time": 13.068181818181818,
                "end_time": 14.436363636363636,
                "pitch": 57,
                "velocity": 127,
                "duration": 1.3681818181818173,
                "tempo": 120.0
            },
            {
                "start_time": 14.472727272727273,
                "end_time": 14.536363636363635,
                "pitch": 57,
                "velocity": 127,
                "duration": 0.0636363636363626,
                "tempo": 120.0
            },
            {
                "start_time": 14.572727272727272,
                "end_time": 14.638636363636364,
                "pitch": 57,
                "velocity": 127,
                "duration": 0.06590909090909136,
                "tempo": 120.0
            },
            {
                "start_time": 14.674999999999999,
                "end_time": 16.045454545454543,
                "pitch": 55,
                "velocity": 127,
                "duration": 1.3704545454545443,
                "tempo": 120.0
            },
            {
                "start_time": 16.081818181818182,
                "end_time": 16.147727272727273,
                "pitch": 55,
                "velocity": 127,
                "duration": 0.06590909090909136,
                "tempo": 120.0
            },
            {
                "start_time": 16.18181818181818,
                "end_time": 16.24772727272727,
                "pitch": 55,
                "velocity": 127,
                "duration": 0.06590909090909136,
                "tempo": 120.0
            },
            {
                "start_time": 16.286363636363635,
                "end_time": 17.654545454545453,
                "pitch": 59,
                "velocity": 127,
                "duration": 1.3681818181818173,
                "tempo": 120.0
            },
            {
                "start_time": 17.69090909090909,
                "end_time": 17.756818181818183,
                "pitch": 59,
                "velocity": 127,
                "duration": 0.06590909090909136,
                "tempo": 120.0
            },
            {
                "start_time": 17.79090909090909,
                "end_time": 17.85681818181818,
                "pitch": 59,
                "velocity": 127,
                "duration": 0.06590909090909136,
                "tempo": 120.0
            },
            {
                "start_time": 17.893181818181816,
                "end_time": 19.470454545454544,
                "pitch": 60,
                "velocity": 127,
                "duration": 1.577272727272728,
                "tempo": 120.0
            },
            {
                "start_time": 19.509090909090908,
                "end_time": 20.877272727272725,
                "pitch": 57,
                "velocity": 127,
                "duration": 1.3681818181818173,
                "tempo": 120.0
            },
            {
                "start_time": 20.913636363636364,
                "end_time": 20.977272727272727,
                "pitch": 57,
                "velocity": 127,
                "duration": 0.0636363636363626,
                "tempo": 120.0
            },
            {
                "start_time": 21.013636363636362,
                "end_time": 21.079545454545453,
                "pitch": 57,
                "velocity": 127,
                "duration": 0.06590909090909136,
                "tempo": 120.0
            },
            {
                "start_time": 21.11590909090909,
                "end_time": 22.48409090909091,
                "pitch": 55,
                "velocity": 127,
                "duration": 1.3681818181818208,
                "tempo": 120.0
            },
            {
                "start_time": 22.518181818181816,
                "end_time": 22.584090909090907,
                "pitch": 55,
                "velocity": 127,
                "duration": 0.06590909090909136,
                "tempo": 120.0
            },
            {
                "start_time": 22.618181818181817,
                "end_time": 22.68409090909091,
                "pitch": 55,
                "velocity": 127,
                "duration": 0.06590909090909136,
                "tempo": 120.0
            },
            {
                "start_time": 22.720454545454544,
                "end_time": 24.09090909090909,
                "pitch": 59,
                "velocity": 127,
                "duration": 1.370454545454546,
                "tempo": 120.0
            },
            {
                "start_time": 24.127272727272725,
                "end_time": 24.19090909090909,
                "pitch": 60,
                "velocity": 127,
                "duration": 0.06363636363636616,
                "tempo": 120.0
            },
            {
                "start_time": 24.227272727272727,
                "end_time": 24.29090909090909,
                "pitch": 59,
                "velocity": 127,
                "duration": 0.0636363636363626,
                "tempo": 120.0
            },
            {
                "start_time": 24.327272727272724,
                "end_time": 25.89772727272727,
                "pitch": 57,
                "velocity": 127,
                "duration": 1.5704545454545453,
                "tempo": 120.0
            },
            {
                "start_time": 25.938636363636363,
                "end_time": 27.349999999999998,
                "pitch": 48,
                "velocity": 127,
                "duration": 1.4113636363636353,
                "tempo": 120.0
            },
            {
                "start_time": 27.554545454545455,
                "end_time": 28.956818181818182,
                "pitch": 47,
                "velocity": 127,
                "duration": 1.4022727272727273,
                "tempo": 120.0
            },
            {
                "start_time": 29.159090909090907,
                "end_time": 30.563636363636363,
                "pitch": 50,
                "velocity": 127,
                "duration": 1.404545454545456,
                "tempo": 120.0
            },
            {
                "start_time": 30.76590909090909,
                "end_time": 32.168181818181814,
                "pitch": 48,
                "velocity": 127,
                "duration": 1.4022727272727238,
                "tempo": 120.0
            },
            {
                "start_time": 32.37045454545454,
                "end_time": 33.78181818181818,
                "pitch": 48,
                "velocity": 127,
                "duration": 1.4113636363636388,
                "tempo": 120.0
            },
            {
                "start_time": 33.98409090909091,
                "end_time": 35.38636363636363,
                "pitch": 47,
                "velocity": 127,
                "duration": 1.4022727272727238,
                "tempo": 120.0
            },
            {
                "start_time": 35.58863636363636,
                "end_time": 36.99090909090909,
                "pitch": 50,
                "velocity": 127,
                "duration": 1.402272727272731,
                "tempo": 120.0
            },
            {
                "start_time": 37.19318181818181,
                "end_time": 38.595454545454544,
                "pitch": 48,
                "velocity": 127,
                "duration": 1.402272727272731,
                "tempo": 120.0
            },
            {
                "start_time": 38.804545454545455,
                "end_time": 40.168181818181814,
                "pitch": 57,
                "velocity": 127,
                "duration": 1.3636363636363598,
                "tempo": 120.0
            },
            {
                "start_time": 40.20454545454545,
                "end_time": 40.268181818181816,
                "pitch": 57,
                "velocity": 127,
                "duration": 0.0636363636363626,
                "tempo": 120.0
            },
            {
                "start_time": 40.304545454545455,
                "end_time": 40.36818181818182,
                "pitch": 57,
                "velocity": 127,
                "duration": 0.0636363636363626,
                "tempo": 120.0
            },
            {
                "start_time": 40.40681818181818,
                "end_time": 41.78636363636363,
                "pitch": 55,
                "velocity": 127,
                "duration": 1.3795454545454504,
                "tempo": 120.0
            },
            {
                "start_time": 41.82272727272727,
                "end_time": 41.88636363636363,
                "pitch": 55,
                "velocity": 127,
                "duration": 0.0636363636363626,
                "tempo": 120.0
            },
            {
                "start_time": 41.92272727272727,
                "end_time": 41.98863636363636,
                "pitch": 55,
                "velocity": 127,
                "duration": 0.06590909090908781,
                "tempo": 120.0
            },
            {
                "start_time": 42.025,
                "end_time": 43.38863636363636,
                "pitch": 59,
                "velocity": 127,
                "duration": 1.3636363636363598,
                "tempo": 120.0
            },
            {
                "start_time": 43.425,
                "end_time": 43.49090909090909,
                "pitch": 59,
                "velocity": 127,
                "duration": 0.06590909090909491,
                "tempo": 120.0
            },
            {
                "start_time": 43.525,
                "end_time": 43.590909090909086,
                "pitch": 59,
                "velocity": 127,
                "duration": 0.06590909090908781,
                "tempo": 120.0
            },
            {
                "start_time": 43.627272727272725,
                "end_time": 45.195454545454545,
                "pitch": 60,
                "velocity": 127,
                "duration": 1.5681818181818201,
                "tempo": 120.0
            },
            {
                "start_time": 45.23409090909091,
                "end_time": 46.599999999999994,
                "pitch": 57,
                "velocity": 127,
                "duration": 1.365909090909085,
                "tempo": 120.0
            },
            {
                "start_time": 46.63636363636363,
                "end_time": 46.699999999999996,
                "pitch": 57,
                "velocity": 127,
                "duration": 0.0636363636363626,
                "tempo": 120.0
            },
            {
                "start_time": 46.73409090909091,
                "end_time": 46.8,
                "pitch": 57,
                "velocity": 127,
                "duration": 0.06590909090908781,
                "tempo": 120.0
            },
            {
                "start_time": 46.83863636363636,
                "end_time": 48.20681818181818,
                "pitch": 55,
                "velocity": 127,
                "duration": 1.3681818181818173,
                "tempo": 120.0
            },
            {
                "start_time": 48.24318181818182,
                "end_time": 48.30681818181818,
                "pitch": 55,
                "velocity": 127,
                "duration": 0.0636363636363626,
                "tempo": 120.0
            },
            {
                "start_time": 48.34318181818182,
                "end_time": 48.40681818181818,
                "pitch": 55,
                "velocity": 127,
                "duration": 0.0636363636363626,
                "tempo": 120.0
            },
            {
                "start_time": 48.445454545454545,
                "end_time": 49.81590909090909,
                "pitch": 59,
                "velocity": 127,
                "duration": 1.3704545454545425,
                "tempo": 120.0
            },
            {
                "start_time": 49.85454545454545,
                "end_time": 49.918181818181814,
                "pitch": 60,
                "velocity": 127,
                "duration": 0.0636363636363626,
                "tempo": 120.0
            },
            {
                "start_time": 49.95454545454545,
                "end_time": 50.02272727272727,
                "pitch": 59,
                "velocity": 127,
                "duration": 0.06818181818182012,
                "tempo": 120.0
            },
            {
                "start_time": 50.06136363636364,
                "end_time": 51.627272727272725,
                "pitch": 57,
                "velocity": 127,
                "duration": 1.5659090909090878,
                "tempo": 120.0
            },
            {
                "start_time": 51.67045454545454,
                "end_time": 53.27045454545454,
                "pitch": 60,
                "velocity": 127,
                "duration": 1.6000000000000014,
                "tempo": 120.0
            },
            {
                "start_time": 53.27045454545454,
                "end_time": 54.875,
                "pitch": 59,
                "velocity": 127,
                "duration": 1.604545454545459,
                "tempo": 120.0
            },
            {
                "start_time": 54.875,
                "end_time": 56.47954545454545,
                "pitch": 62,
                "velocity": 127,
                "duration": 1.6045454545454518,
                "tempo": 120.0
            },
            {
                "start_time": 56.47954545454545,
                "end_time": 58.09772727272727,
                "pitch": 60,
                "velocity": 127,
                "duration": 1.6181818181818173,
                "tempo": 120.0
            },
            {
                "start_time": 56.47954545454545,
                "end_time": 58.09772727272727,
                "pitch": 60,
                "velocity": 127,
                "duration": 1.6181818181818173,
                "tempo": 120.0
            },
            {
                "start_time": 53.27045454545454,
                "end_time": 59.70227272727272,
                "pitch": 44,
                "velocity": 127,
                "duration": 6.43181818181818,
                "tempo": 120.0
            },
            {
                "start_time": 58.09772727272727,
                "end_time": 59.70227272727272,
                "pitch": 60,
                "velocity": 127,
                "duration": 1.6045454545454518,
                "tempo": 120.0
            },
            {
                "start_time": 59.70227272727272,
                "end_time": 61.30681818181818,
                "pitch": 59,
                "velocity": 127,
                "duration": 1.604545454545459,
                "tempo": 120.0
            },
            {
                "start_time": 54.875,
                "end_time": 61.30681818181818,
                "pitch": 65,
                "velocity": 127,
                "duration": 6.43181818181818,
                "tempo": 120.0
            },
            {
                "start_time": 61.30681818181818,
                "end_time": 62.91136363636363,
                "pitch": 62,
                "velocity": 127,
                "duration": 1.6045454545454518,
                "tempo": 120.0
            },
            {
                "start_time": 8.227272727272727,
                "end_time": 64.52045454545454,
                "pitch": 32,
                "velocity": 127,
                "duration": 56.293181818181814,
                "tempo": 120.0
            },
            {
                "start_time": 62.91136363636363,
                "end_time": 64.52045454545454,
                "pitch": 60,
                "velocity": 127,
                "duration": 1.6090909090909093,
                "tempo": 120.0
            },
            {
                "start_time": 62.91136363636363,
                "end_time": 64.52045454545454,
                "pitch": 60,
                "velocity": 127,
                "duration": 1.6090909090909093,
                "tempo": 120.0
            },
            {
                "start_time": 64.52045454545454,
                "end_time": 65.89772727272727,
                "pitch": 69,
                "velocity": 127,
                "duration": 1.3772727272727252,
                "tempo": 120.0
            },
            {
                "start_time": 65.93181818181817,
                "end_time": 65.99772727272727,
                "pitch": 69,
                "velocity": 127,
                "duration": 0.06590909090910202,
                "tempo": 120.0
            },
            {
                "start_time": 66.0340909090909,
                "end_time": 66.09772727272727,
                "pitch": 69,
                "velocity": 127,
                "duration": 0.0636363636363626,
                "tempo": 120.0
            },
            {
                "start_time": 66.13636363636364,
                "end_time": 67.50681818181818,
                "pitch": 67,
                "velocity": 127,
                "duration": 1.3704545454545354,
                "tempo": 120.0
            },
            {
                "start_time": 67.54090909090908,
                "end_time": 67.60681818181818,
                "pitch": 67,
                "velocity": 127,
                "duration": 0.06590909090910202,
                "tempo": 120.0
            },
            {
                "start_time": 67.64090909090909,
                "end_time": 67.70681818181818,
                "pitch": 67,
                "velocity": 127,
                "duration": 0.06590909090908781,
                "tempo": 120.0
            },
            {
                "start_time": 67.74318181818181,
                "end_time": 69.11363636363636,
                "pitch": 71,
                "velocity": 127,
                "duration": 1.3704545454545496,
                "tempo": 120.0
            },
            {
                "start_time": 69.14999999999999,
                "end_time": 69.2159090909091,
                "pitch": 71,
                "velocity": 127,
                "duration": 0.06590909090910202,
                "tempo": 120.0
            },
            {
                "start_time": 69.25,
                "end_time": 69.31590909090909,
                "pitch": 71,
                "velocity": 127,
                "duration": 0.06590909090908781,
                "tempo": 120.0
            },
            {
                "start_time": 69.35227272727272,
                "end_time": 70.92272727272727,
                "pitch": 72,
                "velocity": 127,
                "duration": 1.5704545454545524,
                "tempo": 120.0
            },
            {
                "start_time": 70.96136363636363,
                "end_time": 72.33181818181818,
                "pitch": 69,
                "velocity": 127,
                "duration": 1.3704545454545496,
                "tempo": 120.0
            },
            {
                "start_time": 72.36590909090908,
                "end_time": 72.43181818181817,
                "pitch": 69,
                "velocity": 127,
                "duration": 0.06590909090908781,
                "tempo": 120.0
            },
            {
                "start_time": 72.4659090909091,
                "end_time": 72.53181818181818,
                "pitch": 69,
                "velocity": 127,
                "duration": 0.06590909090908781,
                "tempo": 120.0
            },
            {
                "start_time": 72.56818181818181,
                "end_time": 73.94772727272726,
                "pitch": 67,
                "velocity": 127,
                "duration": 1.3795454545454504,
                "tempo": 120.0
            },
            {
                "start_time": 73.98181818181818,
                "end_time": 74.04772727272727,
                "pitch": 67,
                "velocity": 127,
                "duration": 0.06590909090908781,
                "tempo": 120.0
            },
            {
                "start_time": 74.08181818181818,
                "end_time": 74.14772727272727,
                "pitch": 67,
                "velocity": 127,
                "duration": 0.06590909090908781,
                "tempo": 120.0
            },
            {
                "start_time": 74.18409090909091,
                "end_time": 75.55454545454545,
                "pitch": 71,
                "velocity": 127,
                "duration": 1.3704545454545354,
                "tempo": 120.0
            },
            {
                "start_time": 75.5909090909091,
                "end_time": 75.65681818181818,
                "pitch": 72,
                "velocity": 127,
                "duration": 0.06590909090908781,
                "tempo": 120.0
            },
            {
                "start_time": 75.69318181818181,
                "end_time": 75.75681818181818,
                "pitch": 71,
                "velocity": 127,
                "duration": 0.0636363636363626,
                "tempo": 120.0
            },
            {
                "start_time": 75.79318181818182,
                "end_time": 77.36590909090908,
                "pitch": 69,
                "velocity": 127,
                "duration": 1.5727272727272634,
                "tempo": 120.0
            },
            {
                "start_time": 77.40681818181818,
                "end_time": 78.80909090909091,
                "pitch": 60,
                "velocity": 127,
                "duration": 1.402272727272731,
                "tempo": 120.0
            },
            {
                "start_time": 79.01363636363637,
                "end_time": 80.41590909090908,
                "pitch": 59,
                "velocity": 127,
                "duration": 1.4022727272727167,
                "tempo": 120.0
            },
            {
                "start_time": 80.62045454545454,
                "end_time": 82.02954545454546,
                "pitch": 62,
                "velocity": 127,
                "duration": 1.4090909090909207,
                "tempo": 120.0
            },
            {
                "start_time": 82.23863636363636,
                "end_time": 83.63636363636363,
                "pitch": 60,
                "velocity": 127,
                "duration": 1.3977272727272663,
                "tempo": 120.0
            },
            {
                "start_time": 83.84545454545454,
                "end_time": 85.25227272727273,
                "pitch": 60,
                "velocity": 127,
                "duration": 1.4068181818181813,
                "tempo": 120.0
            },
            {
                "start_time": 85.45681818181818,
                "end_time": 86.86818181818181,
                "pitch": 59,
                "velocity": 127,
                "duration": 1.4113636363636317,
                "tempo": 120.0
            },
            {
                "start_time": 87.075,
                "end_time": 88.475,
                "pitch": 62,
                "velocity": 127,
                "duration": 1.3999999999999915,
                "tempo": 120.0
            },
            {
                "start_time": 88.6840909090909,
                "end_time": 90.08863636363635,
                "pitch": 60,
                "velocity": 127,
                "duration": 1.404545454545456,
                "tempo": 120.0
            },
            {
                "start_time": 90.29545454545455,
                "end_time": 91.66136363636363,
                "pitch": 69,
                "velocity": 127,
                "duration": 1.365909090909085,
                "tempo": 120.0
            },
            {
                "start_time": 91.69772727272726,
                "end_time": 91.76136363636363,
                "pitch": 69,
                "velocity": 127,
                "duration": 0.0636363636363626,
                "tempo": 120.0
            },
            {
                "start_time": 91.79772727272727,
                "end_time": 91.86363636363636,
                "pitch": 69,
                "velocity": 127,
                "duration": 0.06590909090908781,
                "tempo": 120.0
            },
            {
                "start_time": 91.89999999999999,
                "end_time": 93.27045454545454,
                "pitch": 67,
                "velocity": 127,
                "duration": 1.3704545454545496,
                "tempo": 120.0
            },
            {
                "start_time": 93.30681818181817,
                "end_time": 93.37045454545454,
                "pitch": 67,
                "velocity": 127,
                "duration": 0.0636363636363626,
                "tempo": 120.0
            },
            {
                "start_time": 93.40681818181818,
                "end_time": 93.47045454545454,
                "pitch": 67,
                "velocity": 127,
                "duration": 0.0636363636363626,
                "tempo": 120.0
            },
            {
                "start_time": 93.5090909090909,
                "end_time": 94.87954545454545,
                "pitch": 71,
                "velocity": 127,
                "duration": 1.3704545454545496,
                "tempo": 120.0
            },
            {
                "start_time": 94.91590909090908,
                "end_time": 94.97954545454544,
                "pitch": 71,
                "velocity": 127,
                "duration": 0.0636363636363626,
                "tempo": 120.0
            },
            {
                "start_time": 95.01590909090909,
                "end_time": 95.07954545454545,
                "pitch": 71,
                "velocity": 127,
                "duration": 0.0636363636363626,
                "tempo": 120.0
            },
            {
                "start_time": 95.11818181818181,
                "end_time": 96.69772727272726,
                "pitch": 72,
                "velocity": 127,
                "duration": 1.5795454545454533,
                "tempo": 120.0
            },
            {
                "start_time": 96.73636363636363,
                "end_time": 98.10681818181818,
                "pitch": 69,
                "velocity": 127,
                "duration": 1.3704545454545496,
                "tempo": 120.0
            },
            {
                "start_time": 98.14318181818182,
                "end_time": 98.20681818181818,
                "pitch": 69,
                "velocity": 127,
                "duration": 0.0636363636363626,
                "tempo": 120.0
            },
            {
                "start_time": 98.24318181818181,
                "end_time": 98.30681818181817,
                "pitch": 69,
                "velocity": 127,
                "duration": 0.0636363636363626,
                "tempo": 120.0
            },
            {
                "start_time": 98.34318181818182,
                "end_time": 99.71590909090908,
                "pitch": 67,
                "velocity": 127,
                "duration": 1.3727272727272606,
                "tempo": 120.0
            },
            {
                "start_time": 99.75227272727273,
                "end_time": 99.81590909090909,
                "pitch": 67,
                "velocity": 127,
                "duration": 0.0636363636363626,
                "tempo": 120.0
            },
            {
                "start_time": 99.85227272727272,
                "end_time": 99.91590909090908,
                "pitch": 67,
                "velocity": 127,
                "duration": 0.0636363636363626,
                "tempo": 120.0
            },
            {
                "start_time": 99.95454545454545,
                "end_time": 101.32272727272726,
                "pitch": 71,
                "velocity": 127,
                "duration": 1.3681818181818102,
                "tempo": 120.0
            },
            {
                "start_time": 101.35909090909091,
                "end_time": 101.42272727272727,
                "pitch": 72,
                "velocity": 127,
                "duration": 0.0636363636363626,
                "tempo": 120.0
            },
            {
                "start_time": 101.4590909090909,
                "end_time": 101.52499999999999,
                "pitch": 71,
                "velocity": 127,
                "duration": 0.06590909090908781,
                "tempo": 120.0
            },
            {
                "start_time": 101.56136363636364,
                "end_time": 103.13181818181818,
                "pitch": 69,
                "velocity": 127,
                "duration": 1.5704545454545382,
                "tempo": 120.0
            },
            {
                "start_time": 64.52045454545454,
                "end_time": 104.79090909090908,
                "pitch": 32,
                "velocity": 127,
                "duration": 40.27045454545454,
                "tempo": 120.0
            },
            {
                "start_time": 103.17727272727272,
                "end_time": 104.79090909090908,
                "pitch": 48,
                "velocity": 127,
                "duration": 1.6136363636363598,
                "tempo": 120.0
            },
            {
                "start_time": 104.79090909090908,
                "end_time": 106.39772727272727,
                "pitch": 47,
                "velocity": 127,
                "duration": 1.6068181818181841,
                "tempo": 120.0
            },
            {
                "start_time": 9.836363636363636,
                "end_time": 106.39772727272727,
                "pitch": 53,
                "velocity": 127,
                "duration": 96.56136363636364,
                "tempo": 120.0
            },
            {
                "start_time": 106.39772727272727,
                "end_time": 108.00454545454545,
                "pitch": 50,
                "velocity": 127,
                "duration": 1.6068181818181841,
                "tempo": 120.0
            },
            {
                "start_time": 108.00454545454545,
                "end_time": 109.61590909090908,
                "pitch": 48,
                "velocity": 127,
                "duration": 1.6113636363636346,
                "tempo": 120.0
            },
            {
                "start_time": 108.00454545454545,
                "end_time": 109.61590909090908,
                "pitch": 48,
                "velocity": 127,
                "duration": 1.6113636363636346,
                "tempo": 120.0
            },
            {
                "start_time": 104.79090909090908,
                "end_time": 111.22272727272727,
                "pitch": 32,
                "velocity": 127,
                "duration": 6.431818181818187,
                "tempo": 120.0
            },
            {
                "start_time": 109.61590909090908,
                "end_time": 111.22272727272727,
                "pitch": 48,
                "velocity": 127,
                "duration": 1.6068181818181841,
                "tempo": 120.0
            },
            {
                "start_time": 111.22272727272727,
                "end_time": 112.84090909090908,
                "pitch": 47,
                "velocity": 127,
                "duration": 1.6181818181818102,
                "tempo": 120.0
            },
            {
                "start_time": 106.39772727272727,
                "end_time": 112.84090909090908,
                "pitch": 53,
                "velocity": 127,
                "duration": 6.443181818181813,
                "tempo": 120.0
            },
            {
                "start_time": 112.84090909090908,
                "end_time": 114.44999999999999,
                "pitch": 50,
                "velocity": 127,
                "duration": 1.6090909090909093,
                "tempo": 120.0
            },
            {
                "start_time": 13.068181818181818,
                "end_time": 116.06363636363636,
                "pitch": 19,
                "velocity": 127,
                "duration": 102.99545454545455,
                "tempo": 120.0
            },
            {
                "start_time": 114.44999999999999,
                "end_time": 116.06363636363636,
                "pitch": 48,
                "velocity": 127,
                "duration": 1.613636363636374,
                "tempo": 120.0
            },
            {
                "start_time": 114.44999999999999,
                "end_time": 116.06363636363636,
                "pitch": 48,
                "velocity": 127,
                "duration": 1.613636363636374,
                "tempo": 120.0
            },
            {
                "start_time": 116.06363636363636,
                "end_time": 117.42954545454545,
                "pitch": 57,
                "velocity": 127,
                "duration": 1.365909090909085,
                "tempo": 120.0
            },
            {
                "start_time": 117.46590909090908,
                "end_time": 117.52954545454544,
                "pitch": 57,
                "velocity": 127,
                "duration": 0.0636363636363626,
                "tempo": 120.0
            },
            {
                "start_time": 117.56590909090909,
                "end_time": 117.62954545454545,
                "pitch": 57,
                "velocity": 127,
                "duration": 0.0636363636363626,
                "tempo": 120.0
            },
            {
                "start_time": 117.66818181818181,
                "end_time": 119.03636363636363,
                "pitch": 55,
                "velocity": 127,
                "duration": 1.3681818181818244,
                "tempo": 120.0
            },
            {
                "start_time": 119.07045454545454,
                "end_time": 119.13636363636363,
                "pitch": 55,
                "velocity": 127,
                "duration": 0.06590909090908781,
                "tempo": 120.0
            },
            {
                "start_time": 119.17272727272727,
                "end_time": 119.23636363636363,
                "pitch": 55,
                "velocity": 127,
                "duration": 0.0636363636363626,
                "tempo": 120.0
            },
            {
                "start_time": 119.27499999999999,
                "end_time": 120.65454545454544,
                "pitch": 59,
                "velocity": 127,
                "duration": 1.3795454545454504,
                "tempo": 120.0
            },
            {
                "start_time": 120.68863636363636,
                "end_time": 120.75454545454545,
                "pitch": 59,
                "velocity": 127,
                "duration": 0.06590909090908781,
                "tempo": 120.0
            },
            {
                "start_time": 120.79090909090908,
                "end_time": 120.85681818181817,
                "pitch": 59,
                "velocity": 127,
                "duration": 0.06590909090908781,
                "tempo": 120.0
            },
            {
                "start_time": 120.89318181818182,
                "end_time": 122.46363636363635,
                "pitch": 60,
                "velocity": 127,
                "duration": 1.5704545454545382,
                "tempo": 120.0
            },
            {
                "start_time": 122.50227272727273,
                "end_time": 123.87272727272726,
                "pitch": 57,
                "velocity": 127,
                "duration": 1.3704545454545354,
                "tempo": 120.0
            },
            {
                "start_time": 123.90681818181818,
                "end_time": 123.97272727272727,
                "pitch": 57,
                "velocity": 127,
                "duration": 0.06590909090908781,
                "tempo": 120.0
            },
            {
                "start_time": 124.0090909090909,
                "end_time": 124.07272727272726,
                "pitch": 57,
                "velocity": 127,
                "duration": 0.0636363636363626,
                "tempo": 120.0
            },
            {
                "start_time": 124.11136363636363,
                "end_time": 125.47954545454544,
                "pitch": 55,
                "velocity": 127,
                "duration": 1.3681818181818102,
                "tempo": 120.0
            },
            {
                "start_time": 125.51590909090909,
                "end_time": 125.57954545454545,
                "pitch": 55,
                "velocity": 127,
                "duration": 0.0636363636363626,
                "tempo": 120.0
            },
            {
                "start_time": 125.61590909090908,
                "end_time": 125.68181818181817,
                "pitch": 55,
                "velocity": 127,
                "duration": 0.06590909090908781,
                "tempo": 120.0
            },
            {
                "start_time": 125.72045454545454,
                "end_time": 127.08863636363635,
                "pitch": 59,
                "velocity": 127,
                "duration": 1.3681818181818102,
                "tempo": 120.0
            },
            {
                "start_time": 127.125,
                "end_time": 127.18863636363636,
                "pitch": 60,
                "velocity": 127,
                "duration": 0.0636363636363626,
                "tempo": 120.0
            },
            {
                "start_time": 127.225,
                "end_time": 127.28863636363636,
                "pitch": 59,
                "velocity": 127,
                "duration": 0.0636363636363626,
                "tempo": 120.0
            },
            {
                "start_time": 127.32727272727273,
                "end_time": 128.90454545454546,
                "pitch": 57,
                "velocity": 127,
                "duration": 1.577272727272728,
                "tempo": 120.0
            },
            {
                "start_time": 128.9431818181818,
                "end_time": 130.34772727272727,
                "pitch": 48,
                "velocity": 127,
                "duration": 1.404545454545456,
                "tempo": 120.0
            },
            {
                "start_time": 130.5522727272727,
                "end_time": 131.9590909090909,
                "pitch": 47,
                "velocity": 127,
                "duration": 1.4068181818181813,
                "tempo": 120.0
            },
            {
                "start_time": 132.16136363636363,
                "end_time": 133.5681818181818,
                "pitch": 50,
                "velocity": 127,
                "duration": 1.4068181818181813,
                "tempo": 120.0
            },
            {
                "start_time": 133.7681818181818,
                "end_time": 135.17954545454546,
                "pitch": 48,
                "velocity": 127,
                "duration": 1.4113636363636601,
                "tempo": 120.0
            },
            {
                "start_time": 135.38863636363635,
                "end_time": 136.79545454545453,
                "pitch": 48,
                "velocity": 127,
                "duration": 1.4068181818181813,
                "tempo": 120.0
            },
            {
                "start_time": 136.99772727272727,
                "end_time": 138.40454545454546,
                "pitch": 47,
                "velocity": 127,
                "duration": 1.4068181818181813,
                "tempo": 120.0
            },
            {
                "start_time": 138.60681818181817,
                "end_time": 140.01590909090908,
                "pitch": 50,
                "velocity": 127,
                "duration": 1.4090909090909065,
                "tempo": 120.0
            },
            {
                "start_time": 140.21818181818182,
                "end_time": 141.62727272727273,
                "pitch": 48,
                "velocity": 127,
                "duration": 1.4090909090909065,
                "tempo": 120.0
            },
            {
                "start_time": 141.8340909090909,
                "end_time": 143.21136363636364,
                "pitch": 57,
                "velocity": 127,
                "duration": 1.3772727272727536,
                "tempo": 120.0
            },
            {
                "start_time": 143.24772727272727,
                "end_time": 143.31136363636364,
                "pitch": 57,
                "velocity": 127,
                "duration": 0.0636363636363626,
                "tempo": 120.0
            },
            {
                "start_time": 143.34772727272727,
                "end_time": 143.41136363636363,
                "pitch": 57,
                "velocity": 127,
                "duration": 0.0636363636363626,
                "tempo": 120.0
            },
            {
                "start_time": 143.45,
                "end_time": 144.82272727272726,
                "pitch": 55,
                "velocity": 127,
                "duration": 1.3727272727272748,
                "tempo": 120.0
            },
            {
                "start_time": 144.8590909090909,
                "end_time": 144.92272727272726,
                "pitch": 55,
                "velocity": 127,
                "duration": 0.0636363636363626,
                "tempo": 120.0
            },
            {
                "start_time": 144.9590909090909,
                "end_time": 145.02272727272725,
                "pitch": 55,
                "velocity": 127,
                "duration": 0.0636363636363626,
                "tempo": 120.0
            },
            {
                "start_time": 145.0590909090909,
                "end_time": 146.4340909090909,
                "pitch": 59,
                "velocity": 127,
                "duration": 1.375,
                "tempo": 120.0
            },
            {
                "start_time": 146.47045454545454,
                "end_time": 146.5340909090909,
                "pitch": 59,
                "velocity": 127,
                "duration": 0.0636363636363626,
                "tempo": 120.0
            },
            {
                "start_time": 146.57045454545454,
                "end_time": 146.63636363636363,
                "pitch": 59,
                "velocity": 127,
                "duration": 0.06590909090908781,
                "tempo": 120.0
            },
            {
                "start_time": 146.67272727272726,
                "end_time": 148.24545454545455,
                "pitch": 60,
                "velocity": 127,
                "duration": 1.5727272727272918,
                "tempo": 120.0
            },
            {
                "start_time": 148.2840909090909,
                "end_time": 149.65454545454546,
                "pitch": 57,
                "velocity": 127,
                "duration": 1.3704545454545496,
                "tempo": 120.0
            },
            {
                "start_time": 149.6909090909091,
                "end_time": 149.75454545454545,
                "pitch": 57,
                "velocity": 127,
                "duration": 0.0636363636363626,
                "tempo": 120.0
            },
            {
                "start_time": 149.79090909090908,
                "end_time": 149.85681818181817,
                "pitch": 57,
                "velocity": 127,
                "duration": 0.06590909090908781,
                "tempo": 120.0
            },
            {
                "start_time": 149.8931818181818,
                "end_time": 151.275,
                "pitch": 55,
                "velocity": 127,
                "duration": 1.381818181818204,
                "tempo": 120.0
            },
            {
                "start_time": 151.31136363636364,
                "end_time": 151.375,
                "pitch": 55,
                "velocity": 127,
                "duration": 0.0636363636363626,
                "tempo": 120.0
            },
            {
                "start_time": 151.4090909090909,
                "end_time": 151.475,
                "pitch": 55,
                "velocity": 127,
                "duration": 0.06590909090908781,
                "tempo": 120.0
            },
            {
                "start_time": 151.51136363636363,
                "end_time": 152.88636363636363,
                "pitch": 59,
                "velocity": 127,
                "duration": 1.375,
                "tempo": 120.0
            },
            {
                "start_time": 152.92272727272726,
                "end_time": 152.98636363636362,
                "pitch": 60,
                "velocity": 127,
                "duration": 0.0636363636363626,
                "tempo": 120.0
            },
            {
                "start_time": 153.02272727272725,
                "end_time": 153.08636363636364,
                "pitch": 59,
                "velocity": 127,
                "duration": 0.06363636363639102,
                "tempo": 120.0
            },
            {
                "start_time": 153.125,
                "end_time": 154.69772727272726,
                "pitch": 57,
                "velocity": 127,
                "duration": 1.5727272727272634,
                "tempo": 120.0
            },
            {
                "start_time": 59.70227272727272,
                "end_time": 156.34545454545454,
                "pitch": 44,
                "velocity": 127,
                "duration": 96.64318181818183,
                "tempo": 120.0
            },
            {
                "start_time": 154.74090909090907,
                "end_time": 156.34545454545454,
                "pitch": 60,
                "velocity": 127,
                "duration": 1.6045454545454731,
                "tempo": 120.0
            },
            {
                "start_time": 156.34545454545454,
                "end_time": 157.9522727272727,
                "pitch": 59,
                "velocity": 127,
                "duration": 1.60681818181817,
                "tempo": 120.0
            },
            {
                "start_time": 61.30681818181818,
                "end_time": 157.9522727272727,
                "pitch": 65,
                "velocity": 127,
                "duration": 96.64545454545453,
                "tempo": 120.0
            },
            {
                "start_time": 157.9522727272727,
                "end_time": 159.57272727272726,
                "pitch": 62,
                "velocity": 127,
                "duration": 1.6204545454545496,
                "tempo": 120.0
            },
            {
                "start_time": 159.57272727272726,
                "end_time": 161.1818181818182,
                "pitch": 60,
                "velocity": 127,
                "duration": 1.6090909090909236,
                "tempo": 120.0
            },
            {
                "start_time": 159.57272727272726,
                "end_time": 161.1818181818182,
                "pitch": 60,
                "velocity": 127,
                "duration": 1.6090909090909236,
                "tempo": 120.0
            },
            {
                "start_time": 156.34545454545454,
                "end_time": 162.7931818181818,
                "pitch": 44,
                "velocity": 127,
                "duration": 6.447727272727263,
                "tempo": 120.0
            },
            {
                "start_time": 161.1818181818182,
                "end_time": 162.7931818181818,
                "pitch": 60,
                "velocity": 127,
                "duration": 1.6113636363636203,
                "tempo": 120.0
            },
            {
                "start_time": 162.7931818181818,
                "end_time": 164.4,
                "pitch": 59,
                "velocity": 127,
                "duration": 1.6068181818181984,
                "tempo": 120.0
            },
            {
                "start_time": 157.9522727272727,
                "end_time": 164.4,
                "pitch": 65,
                "velocity": 127,
                "duration": 6.447727272727292,
                "tempo": 120.0
            },
            {
                "start_time": 164.4,
                "end_time": 166.0090909090909,
                "pitch": 62,
                "velocity": 127,
                "duration": 1.6090909090908951,
                "tempo": 120.0
            },
            {
                "start_time": 111.22272727272727,
                "end_time": 167.63181818181818,
                "pitch": 32,
                "velocity": 127,
                "duration": 56.40909090909091,
                "tempo": 120.0
            },
            {
                "start_time": 166.0090909090909,
                "end_time": 167.63181818181818,
                "pitch": 60,
                "velocity": 127,
                "duration": 1.6227272727272748,
                "tempo": 120.0
            },
            {
                "start_time": 166.0090909090909,
                "end_time": 167.63181818181818,
                "pitch": 60,
                "velocity": 127,
                "duration": 1.6227272727272748,
                "tempo": 120.0
            },
            {
                "start_time": 167.63181818181818,
                "end_time": 169.0,
                "pitch": 69,
                "velocity": 127,
                "duration": 1.3681818181818244,
                "tempo": 120.0
            },
            {
                "start_time": 169.03636363636363,
                "end_time": 169.1,
                "pitch": 69,
                "velocity": 127,
                "duration": 0.0636363636363626,
                "tempo": 120.0
            },
            {
                "start_time": 169.13636363636363,
                "end_time": 169.2,
                "pitch": 69,
                "velocity": 127,
                "duration": 0.0636363636363626,
                "tempo": 120.0
            },
            {
                "start_time": 169.23863636363635,
                "end_time": 170.61136363636362,
                "pitch": 67,
                "velocity": 127,
                "duration": 1.3727272727272748,
                "tempo": 120.0
            },
            {
                "start_time": 170.64772727272725,
                "end_time": 170.71363636363637,
                "pitch": 67,
                "velocity": 127,
                "duration": 0.06590909090911623,
                "tempo": 120.0
            },
            {
                "start_time": 170.74772727272727,
                "end_time": 170.81363636363636,
                "pitch": 67,
                "velocity": 127,
                "duration": 0.06590909090908781,
                "tempo": 120.0
            },
            {
                "start_time": 170.85,
                "end_time": 172.22272727272727,
                "pitch": 71,
                "velocity": 127,
                "duration": 1.3727272727272748,
                "tempo": 120.0
            },
            {
                "start_time": 172.25681818181818,
                "end_time": 172.32272727272726,
                "pitch": 71,
                "velocity": 127,
                "duration": 0.06590909090908781,
                "tempo": 120.0
            },
            {
                "start_time": 172.3590909090909,
                "end_time": 172.42272727272726,
                "pitch": 71,
                "velocity": 127,
                "duration": 0.0636363636363626,
                "tempo": 120.0
            },
            {
                "start_time": 172.46136363636361,
                "end_time": 174.0340909090909,
                "pitch": 72,
                "velocity": 127,
                "duration": 1.5727272727272918,
                "tempo": 120.0
            },
            {
                "start_time": 174.07272727272726,
                "end_time": 175.4522727272727,
                "pitch": 69,
                "velocity": 127,
                "duration": 1.3795454545454504,
                "tempo": 120.0
            },
            {
                "start_time": 175.48863636363635,
                "end_time": 175.5522727272727,
                "pitch": 69,
                "velocity": 127,
                "duration": 0.0636363636363626,
                "tempo": 120.0
            },
            {
                "start_time": 175.58863636363637,
                "end_time": 175.65227272727273,
                "pitch": 69,
                "velocity": 127,
                "duration": 0.0636363636363626,
                "tempo": 120.0
            },
            {
                "start_time": 175.6909090909091,
                "end_time": 177.06363636363636,
                "pitch": 67,
                "velocity": 127,
                "duration": 1.3727272727272748,
                "tempo": 120.0
            },
            {
                "start_time": 177.1,
                "end_time": 177.16363636363636,
                "pitch": 67,
                "velocity": 127,
                "duration": 0.0636363636363626,
                "tempo": 120.0
            },
            {
                "start_time": 177.2,
                "end_time": 177.26590909090908,
                "pitch": 67,
                "velocity": 127,
                "duration": 0.06590909090908781,
                "tempo": 120.0
            },
            {
                "start_time": 177.3022727272727,
                "end_time": 178.67272727272726,
                "pitch": 71,
                "velocity": 127,
                "duration": 1.3704545454545496,
                "tempo": 120.0
            },
            {
                "start_time": 178.7090909090909,
                "end_time": 178.77499999999998,
                "pitch": 72,
                "velocity": 127,
                "duration": 0.06590909090908781,
                "tempo": 120.0
            },
            {
                "start_time": 178.8090909090909,
                "end_time": 178.875,
                "pitch": 71,
                "velocity": 127,
                "duration": 0.06590909090908781,
                "tempo": 120.0
            }
        ],
        "Synth Bass 1": [
            {
                "start_time": 26.036363636363635,
                "end_time": 26.243181818181817,
                "pitch": 45,
                "velocity": 80,
                "duration": 0.206818181818182,
                "tempo": 120.0
            },
            {
                "start_time": 26.243181818181817,
                "end_time": 26.445454545454545,
                "pitch": 48,
                "velocity": 80,
                "duration": 0.20227272727272805,
                "tempo": 120.0
            },
            {
                "start_time": 26.243181818181817,
                "end_time": 26.445454545454545,
                "pitch": 52,
                "velocity": 80,
                "duration": 0.20227272727272805,
                "tempo": 120.0
            },
            {
                "start_time": 26.445454545454545,
                "end_time": 27.049999999999997,
                "pitch": 52,
                "velocity": 80,
                "duration": 0.6045454545454518,
                "tempo": 120.0
            },
            {
                "start_time": 26.445454545454545,
                "end_time": 27.049999999999997,
                "pitch": 52,
                "velocity": 80,
                "duration": 0.6045454545454518,
                "tempo": 120.0
            },
            {
                "start_time": 27.049999999999997,
                "end_time": 27.25,
                "pitch": 52,
                "velocity": 80,
                "duration": 0.20000000000000284,
                "tempo": 120.0
            },
            {
                "start_time": 27.25,
                "end_time": 27.452272727272724,
                "pitch": 50,
                "velocity": 80,
                "duration": 0.2022727272727245,
                "tempo": 120.0
            },
            {
                "start_time": 27.452272727272724,
                "end_time": 27.652272727272727,
                "pitch": 48,
                "velocity": 80,
                "duration": 0.20000000000000284,
                "tempo": 120.0
            },
            {
                "start_time": 27.452272727272724,
                "end_time": 27.652272727272727,
                "pitch": 48,
                "velocity": 80,
                "duration": 0.20000000000000284,
                "tempo": 120.0
            },
            {
                "start_time": 27.652272727272727,
                "end_time": 27.852272727272727,
                "pitch": 43,
                "velocity": 80,
                "duration": 0.1999999999999993,
                "tempo": 120.0
            },
            {
                "start_time": 27.852272727272727,
                "end_time": 28.052272727272726,
                "pitch": 47,
                "velocity": 80,
                "duration": 0.1999999999999993,
                "tempo": 120.0
            },
            {
                "start_time": 27.852272727272727,
                "end_time": 28.052272727272726,
                "pitch": 47,
                "velocity": 80,
                "duration": 0.1999999999999993,
                "tempo": 120.0
            },
            {
                "start_time": 28.052272727272726,
                "end_time": 28.654545454545453,
                "pitch": 50,
                "velocity": 80,
                "duration": 0.6022727272727266,
                "tempo": 120.0
            },
            {
                "start_time": 28.654545454545453,
                "end_time": 28.85681818181818,
                "pitch": 50,
                "velocity": 80,
                "duration": 0.20227272727272805,
                "tempo": 120.0
            },
            {
                "start_time": 28.85681818181818,
                "end_time": 29.05681818181818,
                "pitch": 48,
                "velocity": 80,
                "duration": 0.1999999999999993,
                "tempo": 120.0
            },
            {
                "start_time": 28.85681818181818,
                "end_time": 29.05681818181818,
                "pitch": 48,
                "velocity": 80,
                "duration": 0.1999999999999993,
                "tempo": 120.0
            },
            {
                "start_time": 29.05681818181818,
                "end_time": 29.25681818181818,
                "pitch": 47,
                "velocity": 80,
                "duration": 0.1999999999999993,
                "tempo": 120.0
            },
            {
                "start_time": 29.25681818181818,
                "end_time": 29.459090909090907,
                "pitch": 47,
                "velocity": 80,
                "duration": 0.20227272727272805,
                "tempo": 120.0
            },
            {
                "start_time": 28.052272727272726,
                "end_time": 29.459090909090907,
                "pitch": 53,
                "velocity": 80,
                "duration": 1.4068181818181813,
                "tempo": 120.0
            },
            {
                "start_time": 29.459090909090907,
                "end_time": 29.661363636363635,
                "pitch": 50,
                "velocity": 80,
                "duration": 0.20227272727272805,
                "tempo": 120.0
            },
            {
                "start_time": 29.459090909090907,
                "end_time": 29.661363636363635,
                "pitch": 53,
                "velocity": 80,
                "duration": 0.20227272727272805,
                "tempo": 120.0
            },
            {
                "start_time": 29.661363636363635,
                "end_time": 30.261363636363633,
                "pitch": 53,
                "velocity": 80,
                "duration": 0.5999999999999979,
                "tempo": 120.0
            },
            {
                "start_time": 29.661363636363635,
                "end_time": 30.261363636363633,
                "pitch": 53,
                "velocity": 80,
                "duration": 0.5999999999999979,
                "tempo": 120.0
            },
            {
                "start_time": 30.261363636363633,
                "end_time": 30.461363636363636,
                "pitch": 53,
                "velocity": 80,
                "duration": 0.20000000000000284,
                "tempo": 120.0
            },
            {
                "start_time": 30.461363636363636,
                "end_time": 30.66363636363636,
                "pitch": 52,
                "velocity": 80,
                "duration": 0.2022727272727245,
                "tempo": 120.0
            },
            {
                "start_time": 30.66363636363636,
                "end_time": 30.868181818181817,
                "pitch": 50,
                "velocity": 80,
                "duration": 0.2045454545454568,
                "tempo": 120.0
            },
            {
                "start_time": 29.05681818181818,
                "end_time": 31.07272727272727,
                "pitch": 32,
                "velocity": 80,
                "duration": 2.0159090909090907,
                "tempo": 120.0
            },
            {
                "start_time": 30.868181818181817,
                "end_time": 31.07272727272727,
                "pitch": 48,
                "velocity": 80,
                "duration": 0.20454545454545325,
                "tempo": 120.0
            },
            {
                "start_time": 30.868181818181817,
                "end_time": 31.07272727272727,
                "pitch": 48,
                "velocity": 80,
                "duration": 0.20454545454545325,
                "tempo": 120.0
            },
            {
                "start_time": 31.07272727272727,
                "end_time": 31.275,
                "pitch": 47,
                "velocity": 80,
                "duration": 0.20227272727272805,
                "tempo": 120.0
            },
            {
                "start_time": 31.275,
                "end_time": 32.47272727272727,
                "pitch": 45,
                "velocity": 80,
                "duration": 1.1977272727272705,
                "tempo": 120.0
            },
            {
                "start_time": 32.47272727272727,
                "end_time": 32.67727272727272,
                "pitch": 45,
                "velocity": 80,
                "duration": 0.20454545454545325,
                "tempo": 120.0
            },
            {
                "start_time": 32.67727272727272,
                "end_time": 32.88181818181818,
                "pitch": 48,
                "velocity": 80,
                "duration": 0.20454545454546036,
                "tempo": 120.0
            },
            {
                "start_time": 32.67727272727272,
                "end_time": 32.88181818181818,
                "pitch": 52,
                "velocity": 80,
                "duration": 0.20454545454546036,
                "tempo": 120.0
            },
            {
                "start_time": 32.88181818181818,
                "end_time": 33.48181818181818,
                "pitch": 52,
                "velocity": 80,
                "duration": 0.5999999999999943,
                "tempo": 120.0
            },
            {
                "start_time": 32.88181818181818,
                "end_time": 33.48181818181818,
                "pitch": 52,
                "velocity": 80,
                "duration": 0.5999999999999943,
                "tempo": 120.0
            },
            {
                "start_time": 33.48181818181818,
                "end_time": 33.68181818181818,
                "pitch": 52,
                "velocity": 80,
                "duration": 0.20000000000000284,
                "tempo": 120.0
            },
            {
                "start_time": 33.68181818181818,
                "end_time": 33.88181818181818,
                "pitch": 50,
                "velocity": 80,
                "duration": 0.20000000000000284,
                "tempo": 120.0
            },
            {
                "start_time": 33.88181818181818,
                "end_time": 34.08409090909091,
                "pitch": 48,
                "velocity": 80,
                "duration": 0.20227272727272805,
                "tempo": 120.0
            },
            {
                "start_time": 33.88181818181818,
                "end_time": 34.08409090909091,
                "pitch": 48,
                "velocity": 80,
                "duration": 0.20227272727272805,
                "tempo": 120.0
            },
            {
                "start_time": 34.08409090909091,
                "end_time": 34.28409090909091,
                "pitch": 43,
                "velocity": 80,
                "duration": 0.19999999999999574,
                "tempo": 120.0
            },
            {
                "start_time": 34.28409090909091,
                "end_time": 34.486363636363635,
                "pitch": 47,
                "velocity": 80,
                "duration": 0.20227272727272805,
                "tempo": 120.0
            },
            {
                "start_time": 34.28409090909091,
                "end_time": 34.486363636363635,
                "pitch": 47,
                "velocity": 80,
                "duration": 0.20227272727272805,
                "tempo": 120.0
            },
            {
                "start_time": 34.486363636363635,
                "end_time": 35.086363636363636,
                "pitch": 50,
                "velocity": 80,
                "duration": 0.6000000000000014,
                "tempo": 120.0
            },
            {
                "start_time": 35.086363636363636,
                "end_time": 35.28636363636363,
                "pitch": 50,
                "velocity": 80,
                "duration": 0.19999999999999574,
                "tempo": 120.0
            },
            {
                "start_time": 31.07272727272727,
                "end_time": 35.486363636363635,
                "pitch": 32,
                "velocity": 80,
                "duration": 4.413636363636364,
                "tempo": 120.0
            },
            {
                "start_time": 35.28636363636363,
                "end_time": 35.486363636363635,
                "pitch": 48,
                "velocity": 80,
                "duration": 0.20000000000000284,
                "tempo": 120.0
            },
            {
                "start_time": 35.28636363636363,
                "end_time": 35.486363636363635,
                "pitch": 48,
                "velocity": 80,
                "duration": 0.20000000000000284,
                "tempo": 120.0
            },
            {
                "start_time": 35.486363636363635,
                "end_time": 35.68636363636364,
                "pitch": 47,
                "velocity": 80,
                "duration": 0.20000000000000284,
                "tempo": 120.0
            },
            {
                "start_time": 35.68636363636364,
                "end_time": 35.88636363636363,
                "pitch": 47,
                "velocity": 80,
                "duration": 0.19999999999999574,
                "tempo": 120.0
            },
            {
                "start_time": 34.486363636363635,
                "end_time": 35.888636363636365,
                "pitch": 53,
                "velocity": 80,
                "duration": 1.402272727272731,
                "tempo": 120.0
            },
            {
                "start_time": 35.88636363636363,
                "end_time": 35.888636363636365,
                "pitch": 53,
                "velocity": 80,
                "duration": 0.002272727272732311,
                "tempo": 120.0
            },
            {
                "start_time": 35.888636363636365,
                "end_time": 36.08863636363636,
                "pitch": 50,
                "velocity": 80,
                "duration": 0.19999999999999574,
                "tempo": 120.0
            },
            {
                "start_time": 36.08863636363636,
                "end_time": 36.69090909090909,
                "pitch": 53,
                "velocity": 80,
                "duration": 0.6022727272727266,
                "tempo": 120.0
            },
            {
                "start_time": 36.08863636363636,
                "end_time": 36.69090909090909,
                "pitch": 53,
                "velocity": 80,
                "duration": 0.6022727272727266,
                "tempo": 120.0
            },
            {
                "start_time": 36.69090909090909,
                "end_time": 36.89090909090909,
                "pitch": 53,
                "velocity": 80,
                "duration": 0.20000000000000284,
                "tempo": 120.0
            },
            {
                "start_time": 36.89090909090909,
                "end_time": 37.090909090909086,
                "pitch": 52,
                "velocity": 80,
                "duration": 0.19999999999999574,
                "tempo": 120.0
            },
            {
                "start_time": 37.090909090909086,
                "end_time": 37.29090909090909,
                "pitch": 50,
                "velocity": 80,
                "duration": 0.20000000000000284,
                "tempo": 120.0
            },
            {
                "start_time": 37.293181818181814,
                "end_time": 37.49318181818182,
                "pitch": 52,
                "velocity": 80,
                "duration": 0.20000000000000284,
                "tempo": 120.0
            },
            {
                "start_time": 37.49318181818182,
                "end_time": 37.69318181818181,
                "pitch": 50,
                "velocity": 80,
                "duration": 0.19999999999999574,
                "tempo": 120.0
            },
            {
                "start_time": 35.486363636363635,
                "end_time": 77.50227272727273,
                "pitch": 32,
                "velocity": 80,
                "duration": 42.01590909090909,
                "tempo": 120.0
            },
            {
                "start_time": 37.69318181818181,
                "end_time": 77.50227272727273,
                "pitch": 48,
                "velocity": 80,
                "duration": 39.80909090909091,
                "tempo": 120.0
            },
            {
                "start_time": 37.69318181818181,
                "end_time": 77.50227272727273,
                "pitch": 48,
                "velocity": 80,
                "duration": 39.80909090909091,
                "tempo": 120.0
            },
            {
                "start_time": 77.50227272727273,
                "end_time": 77.70681818181818,
                "pitch": 45,
                "velocity": 80,
                "duration": 0.20454545454545325,
                "tempo": 120.0
            },
            {
                "start_time": 77.70681818181818,
                "end_time": 77.7090909090909,
                "pitch": 52,
                "velocity": 80,
                "duration": 0.0022727272727252057,
                "tempo": 120.0
            },
            {
                "start_time": 77.7090909090909,
                "end_time": 77.9090909090909,
                "pitch": 48,
                "velocity": 80,
                "duration": 0.20000000000000284,
                "tempo": 120.0
            },
            {
                "start_time": 77.9090909090909,
                "end_time": 78.50681818181818,
                "pitch": 52,
                "velocity": 80,
                "duration": 0.5977272727272691,
                "tempo": 120.0
            },
            {
                "start_time": 77.9090909090909,
                "end_time": 78.50681818181818,
                "pitch": 52,
                "velocity": 80,
                "duration": 0.5977272727272691,
                "tempo": 120.0
            },
            {
                "start_time": 78.50681818181818,
                "end_time": 78.70681818181818,
                "pitch": 52,
                "velocity": 80,
                "duration": 0.20000000000000284,
                "tempo": 120.0
            },
            {
                "start_time": 78.70681818181818,
                "end_time": 78.9090909090909,
                "pitch": 50,
                "velocity": 80,
                "duration": 0.20227272727272805,
                "tempo": 120.0
            },
            {
                "start_time": 78.9090909090909,
                "end_time": 79.11363636363636,
                "pitch": 48,
                "velocity": 80,
                "duration": 0.20454545454545325,
                "tempo": 120.0
            },
            {
                "start_time": 78.9090909090909,
                "end_time": 79.11363636363636,
                "pitch": 48,
                "velocity": 80,
                "duration": 0.20454545454545325,
                "tempo": 120.0
            },
            {
                "start_time": 79.11363636363636,
                "end_time": 79.31818181818181,
                "pitch": 43,
                "velocity": 80,
                "duration": 0.20454545454545325,
                "tempo": 120.0
            },
            {
                "start_time": 79.31818181818181,
                "end_time": 79.52045454545454,
                "pitch": 47,
                "velocity": 80,
                "duration": 0.20227272727272805,
                "tempo": 120.0
            },
            {
                "start_time": 79.31818181818181,
                "end_time": 79.52045454545454,
                "pitch": 47,
                "velocity": 80,
                "duration": 0.20227272727272805,
                "tempo": 120.0
            },
            {
                "start_time": 79.52045454545454,
                "end_time": 80.11363636363636,
                "pitch": 50,
                "velocity": 80,
                "duration": 0.5931818181818187,
                "tempo": 120.0
            },
            {
                "start_time": 80.11363636363636,
                "end_time": 80.31590909090909,
                "pitch": 50,
                "velocity": 80,
                "duration": 0.20227272727272805,
                "tempo": 120.0
            },
            {
                "start_time": 77.50227272727273,
                "end_time": 80.51590909090909,
                "pitch": 32,
                "velocity": 80,
                "duration": 3.0136363636363654,
                "tempo": 120.0
            },
            {
                "start_time": 80.31590909090909,
                "end_time": 80.51590909090909,
                "pitch": 48,
                "velocity": 80,
                "duration": 0.20000000000000284,
                "tempo": 120.0
            },
            {
                "start_time": 80.31590909090909,
                "end_time": 80.51590909090909,
                "pitch": 48,
                "velocity": 80,
                "duration": 0.20000000000000284,
                "tempo": 120.0
            },
            {
                "start_time": 80.51590909090909,
                "end_time": 80.71818181818182,
                "pitch": 47,
                "velocity": 80,
                "duration": 0.20227272727272805,
                "tempo": 120.0
            },
            {
                "start_time": 80.71818181818182,
                "end_time": 80.92045454545455,
                "pitch": 47,
                "velocity": 80,
                "duration": 0.20227272727272805,
                "tempo": 120.0
            },
            {
                "start_time": 79.52045454545454,
                "end_time": 80.92045454545455,
                "pitch": 53,
                "velocity": 80,
                "duration": 1.4000000000000057,
                "tempo": 120.0
            },
            {
                "start_time": 80.92045454545455,
                "end_time": 81.12045454545454,
                "pitch": 50,
                "velocity": 80,
                "duration": 0.19999999999998863,
                "tempo": 120.0
            },
            {
                "start_time": 80.92045454545455,
                "end_time": 81.12045454545454,
                "pitch": 53,
                "velocity": 80,
                "duration": 0.19999999999998863,
                "tempo": 120.0
            },
            {
                "start_time": 81.12045454545454,
                "end_time": 81.72272727272727,
                "pitch": 53,
                "velocity": 80,
                "duration": 0.6022727272727337,
                "tempo": 120.0
            },
            {
                "start_time": 81.12045454545454,
                "end_time": 81.72272727272727,
                "pitch": 53,
                "velocity": 80,
                "duration": 0.6022727272727337,
                "tempo": 120.0
            },
            {
                "start_time": 81.72272727272727,
                "end_time": 81.92727272727272,
                "pitch": 53,
                "velocity": 80,
                "duration": 0.20454545454545325,
                "tempo": 120.0
            },
            {
                "start_time": 81.92727272727272,
                "end_time": 82.13181818181818,
                "pitch": 52,
                "velocity": 80,
                "duration": 0.20454545454545325,
                "tempo": 120.0
            },
            {
                "start_time": 82.13181818181818,
                "end_time": 82.33636363636363,
                "pitch": 50,
                "velocity": 80,
                "duration": 0.20454545454545325,
                "tempo": 120.0
            },
            {
                "start_time": 80.51590909090909,
                "end_time": 82.53863636363636,
                "pitch": 32,
                "velocity": 80,
                "duration": 2.0227272727272663,
                "tempo": 120.0
            },
            {
                "start_time": 82.33636363636363,
                "end_time": 82.53863636363636,
                "pitch": 48,
                "velocity": 80,
                "duration": 0.20227272727272805,
                "tempo": 120.0
            },
            {
                "start_time": 82.33636363636363,
                "end_time": 82.53863636363636,
                "pitch": 48,
                "velocity": 80,
                "duration": 0.20227272727272805,
                "tempo": 120.0
            },
            {
                "start_time": 82.53863636363636,
                "end_time": 82.73636363636363,
                "pitch": 47,
                "velocity": 80,
                "duration": 0.19772727272727764,
                "tempo": 120.0
            },
            {
                "start_time": 82.73636363636363,
                "end_time": 83.94545454545454,
                "pitch": 45,
                "velocity": 80,
                "duration": 1.2090909090909037,
                "tempo": 120.0
            },
            {
                "start_time": 83.94545454545454,
                "end_time": 84.14545454545454,
                "pitch": 45,
                "velocity": 80,
                "duration": 0.20000000000000284,
                "tempo": 120.0
            },
            {
                "start_time": 84.14545454545454,
                "end_time": 84.34545454545454,
                "pitch": 48,
                "velocity": 80,
                "duration": 0.20000000000000284,
                "tempo": 120.0
            },
            {
                "start_time": 84.14545454545454,
                "end_time": 84.34545454545454,
                "pitch": 52,
                "velocity": 80,
                "duration": 0.20000000000000284,
                "tempo": 120.0
            },
            {
                "start_time": 84.34545454545454,
                "end_time": 84.94772727272726,
                "pitch": 52,
                "velocity": 80,
                "duration": 0.6022727272727195,
                "tempo": 120.0
            },
            {
                "start_time": 84.34545454545454,
                "end_time": 84.94772727272726,
                "pitch": 52,
                "velocity": 80,
                "duration": 0.6022727272727195,
                "tempo": 120.0
            },
            {
                "start_time": 84.94772727272726,
                "end_time": 85.15227272727272,
                "pitch": 52,
                "velocity": 80,
                "duration": 0.20454545454545325,
                "tempo": 120.0
            },
            {
                "start_time": 85.15227272727272,
                "end_time": 85.35227272727272,
                "pitch": 50,
                "velocity": 80,
                "duration": 0.20000000000000284,
                "tempo": 120.0
            },
            {
                "start_time": 85.35227272727272,
                "end_time": 85.55681818181817,
                "pitch": 48,
                "velocity": 80,
                "duration": 0.20454545454545325,
                "tempo": 120.0
            },
            {
                "start_time": 85.35227272727272,
                "end_time": 85.55681818181817,
                "pitch": 48,
                "velocity": 80,
                "duration": 0.20454545454545325,
                "tempo": 120.0
            },
            {
                "start_time": 85.55681818181817,
                "end_time": 85.76136363636363,
                "pitch": 43,
                "velocity": 80,
                "duration": 0.20454545454545325,
                "tempo": 120.0
            },
            {
                "start_time": 85.76136363636363,
                "end_time": 85.96363636363635,
                "pitch": 47,
                "velocity": 80,
                "duration": 0.20227272727272805,
                "tempo": 120.0
            },
            {
                "start_time": 85.76136363636363,
                "end_time": 85.96363636363635,
                "pitch": 47,
                "velocity": 80,
                "duration": 0.20227272727272805,
                "tempo": 120.0
            },
            {
                "start_time": 85.96363636363635,
                "end_time": 86.56136363636364,
                "pitch": 50,
                "velocity": 80,
                "duration": 0.5977272727272833,
                "tempo": 120.0
            },
            {
                "start_time": 86.56136363636364,
                "end_time": 86.76363636363637,
                "pitch": 50,
                "velocity": 80,
                "duration": 0.20227272727272805,
                "tempo": 120.0
            },
            {
                "start_time": 82.53863636363636,
                "end_time": 86.97045454545454,
                "pitch": 32,
                "velocity": 80,
                "duration": 4.431818181818187,
                "tempo": 120.0
            },
            {
                "start_time": 86.76363636363637,
                "end_time": 86.97045454545454,
                "pitch": 48,
                "velocity": 80,
                "duration": 0.20681818181817846,
                "tempo": 120.0
            },
            {
                "start_time": 86.76363636363637,
                "end_time": 86.97045454545454,
                "pitch": 48,
                "velocity": 80,
                "duration": 0.20681818181817846,
                "tempo": 120.0
            },
            {
                "start_time": 86.97045454545454,
                "end_time": 87.17272727272727,
                "pitch": 47,
                "velocity": 80,
                "duration": 0.20227272727272805,
                "tempo": 120.0
            },
            {
                "start_time": 87.17272727272727,
                "end_time": 87.37272727272727,
                "pitch": 47,
                "velocity": 80,
                "duration": 0.20000000000000284,
                "tempo": 120.0
            },
            {
                "start_time": 85.96363636363635,
                "end_time": 87.37272727272727,
                "pitch": 53,
                "velocity": 80,
                "duration": 1.4090909090909207,
                "tempo": 120.0
            },
            {
                "start_time": 87.37272727272727,
                "end_time": 87.575,
                "pitch": 50,
                "velocity": 80,
                "duration": 0.20227272727272805,
                "tempo": 120.0
            },
            {
                "start_time": 87.37272727272727,
                "end_time": 87.575,
                "pitch": 53,
                "velocity": 80,
                "duration": 0.20227272727272805,
                "tempo": 120.0
            },
            {
                "start_time": 87.575,
                "end_time": 88.17045454545455,
                "pitch": 53,
                "velocity": 80,
                "duration": 0.5954545454545439,
                "tempo": 120.0
            },
            {
                "start_time": 87.575,
                "end_time": 88.17045454545455,
                "pitch": 53,
                "velocity": 80,
                "duration": 0.5954545454545439,
                "tempo": 120.0
            },
            {
                "start_time": 88.17045454545455,
                "end_time": 88.37272727272727,
                "pitch": 53,
                "velocity": 80,
                "duration": 0.20227272727272805,
                "tempo": 120.0
            },
            {
                "start_time": 88.37272727272727,
                "end_time": 88.57727272727273,
                "pitch": 52,
                "velocity": 80,
                "duration": 0.20454545454545325,
                "tempo": 120.0
            },
            {
                "start_time": 88.57727272727273,
                "end_time": 88.78181818181818,
                "pitch": 50,
                "velocity": 80,
                "duration": 0.20454545454545325,
                "tempo": 120.0
            },
            {
                "start_time": 88.78181818181818,
                "end_time": 88.98181818181818,
                "pitch": 52,
                "velocity": 80,
                "duration": 0.20000000000000284,
                "tempo": 120.0
            },
            {
                "start_time": 88.98181818181818,
                "end_time": 89.1840909090909,
                "pitch": 50,
                "velocity": 80,
                "duration": 0.20227272727271384,
                "tempo": 120.0
            },
            {
                "start_time": 86.97045454545454,
                "end_time": 129.03863636363636,
                "pitch": 32,
                "velocity": 80,
                "duration": 42.06818181818181,
                "tempo": 120.0
            },
            {
                "start_time": 89.1840909090909,
                "end_time": 129.03863636363636,
                "pitch": 48,
                "velocity": 80,
                "duration": 39.85454545454546,
                "tempo": 120.0
            },
            {
                "start_time": 89.1840909090909,
                "end_time": 129.03863636363636,
                "pitch": 48,
                "velocity": 80,
                "duration": 39.85454545454546,
                "tempo": 120.0
            },
            {
                "start_time": 129.04090909090908,
                "end_time": 129.24090909090907,
                "pitch": 45,
                "velocity": 80,
                "duration": 0.19999999999998863,
                "tempo": 120.0
            },
            {
                "start_time": 129.24090909090907,
                "end_time": 129.4409090909091,
                "pitch": 48,
                "velocity": 80,
                "duration": 0.20000000000001705,
                "tempo": 120.0
            },
            {
                "start_time": 129.24090909090907,
                "end_time": 129.4409090909091,
                "pitch": 52,
                "velocity": 80,
                "duration": 0.20000000000001705,
                "tempo": 120.0
            },
            {
                "start_time": 129.4409090909091,
                "end_time": 130.04545454545453,
                "pitch": 52,
                "velocity": 80,
                "duration": 0.6045454545454447,
                "tempo": 120.0
            },
            {
                "start_time": 129.4409090909091,
                "end_time": 130.04545454545453,
                "pitch": 52,
                "velocity": 80,
                "duration": 0.6045454545454447,
                "tempo": 120.0
            },
            {
                "start_time": 130.04545454545453,
                "end_time": 130.24545454545455,
                "pitch": 52,
                "velocity": 80,
                "duration": 0.20000000000001705,
                "tempo": 120.0
            },
            {
                "start_time": 130.24545454545455,
                "end_time": 130.44772727272726,
                "pitch": 50,
                "velocity": 80,
                "duration": 0.20227272727271384,
                "tempo": 120.0
            },
            {
                "start_time": 130.44772727272726,
                "end_time": 130.65,
                "pitch": 48,
                "velocity": 80,
                "duration": 0.20227272727274226,
                "tempo": 120.0
            },
            {
                "start_time": 130.44772727272726,
                "end_time": 130.65,
                "pitch": 48,
                "velocity": 80,
                "duration": 0.20227272727274226,
                "tempo": 120.0
            },
            {
                "start_time": 130.65,
                "end_time": 130.85227272727272,
                "pitch": 43,
                "velocity": 80,
                "duration": 0.20227272727271384,
                "tempo": 120.0
            },
            {
                "start_time": 130.85227272727272,
                "end_time": 131.0522727272727,
                "pitch": 47,
                "velocity": 80,
                "duration": 0.19999999999998863,
                "tempo": 120.0
            },
            {
                "start_time": 130.85227272727272,
                "end_time": 131.0522727272727,
                "pitch": 47,
                "velocity": 80,
                "duration": 0.19999999999998863,
                "tempo": 120.0
            },
            {
                "start_time": 131.0522727272727,
                "end_time": 131.65681818181818,
                "pitch": 50,
                "velocity": 80,
                "duration": 0.6045454545454731,
                "tempo": 120.0
            },
            {
                "start_time": 131.65681818181818,
                "end_time": 131.85681818181817,
                "pitch": 50,
                "velocity": 80,
                "duration": 0.19999999999998863,
                "tempo": 120.0
            },
            {
                "start_time": 129.03863636363636,
                "end_time": 132.0590909090909,
                "pitch": 32,
                "velocity": 80,
                "duration": 3.0204545454545553,
                "tempo": 120.0
            },
            {
                "start_time": 131.85681818181817,
                "end_time": 132.0590909090909,
                "pitch": 48,
                "velocity": 80,
                "duration": 0.20227272727274226,
                "tempo": 120.0
            },
            {
                "start_time": 131.85681818181817,
                "end_time": 132.0590909090909,
                "pitch": 48,
                "velocity": 80,
                "duration": 0.20227272727274226,
                "tempo": 120.0
            },
            {
                "start_time": 132.0590909090909,
                "end_time": 132.26136363636363,
                "pitch": 47,
                "velocity": 80,
                "duration": 0.20227272727271384,
                "tempo": 120.0
            },
            {
                "start_time": 132.26136363636363,
                "end_time": 132.46818181818182,
                "pitch": 47,
                "velocity": 80,
                "duration": 0.20681818181819267,
                "tempo": 120.0
            },
            {
                "start_time": 131.0522727272727,
                "end_time": 132.46818181818182,
                "pitch": 53,
                "velocity": 80,
                "duration": 1.4159090909091105,
                "tempo": 120.0
            },
            {
                "start_time": 132.46818181818182,
                "end_time": 132.6681818181818,
                "pitch": 50,
                "velocity": 80,
                "duration": 0.19999999999998863,
                "tempo": 120.0
            },
            {
                "start_time": 132.46818181818182,
                "end_time": 132.6681818181818,
                "pitch": 53,
                "velocity": 80,
                "duration": 0.19999999999998863,
                "tempo": 120.0
            },
            {
                "start_time": 132.6681818181818,
                "end_time": 133.26590909090908,
                "pitch": 53,
                "velocity": 80,
                "duration": 0.5977272727272691,
                "tempo": 120.0
            },
            {
                "start_time": 132.6681818181818,
                "end_time": 133.26590909090908,
                "pitch": 53,
                "velocity": 80,
                "duration": 0.5977272727272691,
                "tempo": 120.0
            },
            {
                "start_time": 133.26590909090908,
                "end_time": 133.4659090909091,
                "pitch": 53,
                "velocity": 80,
                "duration": 0.20000000000001705,
                "tempo": 120.0
            },
            {
                "start_time": 133.4659090909091,
                "end_time": 133.66590909090908,
                "pitch": 52,
                "velocity": 80,
                "duration": 0.19999999999998863,
                "tempo": 120.0
            },
            {
                "start_time": 133.66590909090908,
                "end_time": 133.86818181818182,
                "pitch": 50,
                "velocity": 80,
                "duration": 0.20227272727274226,
                "tempo": 120.0
            },
            {
                "start_time": 132.0590909090909,
                "end_time": 134.075,
                "pitch": 32,
                "velocity": 80,
                "duration": 2.0159090909090764,
                "tempo": 120.0
            },
            {
                "start_time": 133.86818181818182,
                "end_time": 134.075,
                "pitch": 48,
                "velocity": 80,
                "duration": 0.20681818181816425,
                "tempo": 120.0
            },
            {
                "start_time": 133.86818181818182,
                "end_time": 134.075,
                "pitch": 48,
                "velocity": 80,
                "duration": 0.20681818181816425,
                "tempo": 120.0
            },
            {
                "start_time": 134.075,
                "end_time": 134.27954545454546,
                "pitch": 47,
                "velocity": 80,
                "duration": 0.20454545454546746,
                "tempo": 120.0
            },
            {
                "start_time": 134.27954545454546,
                "end_time": 135.48636363636362,
                "pitch": 45,
                "velocity": 80,
                "duration": 1.2068181818181642,
                "tempo": 120.0
            },
            {
                "start_time": 135.48636363636362,
                "end_time": 135.68863636363636,
                "pitch": 45,
                "velocity": 80,
                "duration": 0.20227272727274226,
                "tempo": 120.0
            },
            {
                "start_time": 135.68863636363636,
                "end_time": 135.88863636363635,
                "pitch": 48,
                "velocity": 80,
                "duration": 0.19999999999998863,
                "tempo": 120.0
            },
            {
                "start_time": 135.68863636363636,
                "end_time": 135.88863636363635,
                "pitch": 52,
                "velocity": 80,
                "duration": 0.19999999999998863,
                "tempo": 120.0
            },
            {
                "start_time": 135.88863636363635,
                "end_time": 136.49090909090907,
                "pitch": 52,
                "velocity": 80,
                "duration": 0.6022727272727195,
                "tempo": 120.0
            },
            {
                "start_time": 135.88863636363635,
                "end_time": 136.49090909090907,
                "pitch": 52,
                "velocity": 80,
                "duration": 0.6022727272727195,
                "tempo": 120.0
            },
            {
                "start_time": 136.49090909090907,
                "end_time": 136.6931818181818,
                "pitch": 52,
                "velocity": 80,
                "duration": 0.20227272727274226,
                "tempo": 120.0
            },
            {
                "start_time": 136.6931818181818,
                "end_time": 136.89545454545453,
                "pitch": 50,
                "velocity": 80,
                "duration": 0.20227272727271384,
                "tempo": 120.0
            },
            {
                "start_time": 136.89545454545453,
                "end_time": 137.09545454545454,
                "pitch": 48,
                "velocity": 80,
                "duration": 0.20000000000001705,
                "tempo": 120.0
            },
            {
                "start_time": 136.89545454545453,
                "end_time": 137.09545454545454,
                "pitch": 48,
                "velocity": 80,
                "duration": 0.20000000000001705,
                "tempo": 120.0
            },
            {
                "start_time": 137.09545454545454,
                "end_time": 137.29772727272726,
                "pitch": 43,
                "velocity": 80,
                "duration": 0.20227272727271384,
                "tempo": 120.0
            },
            {
                "start_time": 137.29772727272726,
                "end_time": 137.5,
                "pitch": 47,
                "velocity": 80,
                "duration": 0.20227272727274226,
                "tempo": 120.0
            },
            {
                "start_time": 137.29772727272726,
                "end_time": 137.5,
                "pitch": 47,
                "velocity": 80,
                "duration": 0.20227272727274226,
                "tempo": 120.0
            },
            {
                "start_time": 137.5,
                "end_time": 138.10227272727272,
                "pitch": 50,
                "velocity": 80,
                "duration": 0.6022727272727195,
                "tempo": 120.0
            },
            {
                "start_time": 138.10227272727272,
                "end_time": 138.3022727272727,
                "pitch": 50,
                "velocity": 80,
                "duration": 0.19999999999998863,
                "tempo": 120.0
            },
            {
                "start_time": 134.075,
                "end_time": 138.50454545454545,
                "pitch": 32,
                "velocity": 80,
                "duration": 4.429545454545462,
                "tempo": 120.0
            },
            {
                "start_time": 138.3022727272727,
                "end_time": 138.50454545454545,
                "pitch": 48,
                "velocity": 80,
                "duration": 0.20227272727274226,
                "tempo": 120.0
            },
            {
                "start_time": 138.3022727272727,
                "end_time": 138.50454545454545,
                "pitch": 48,
                "velocity": 80,
                "duration": 0.20227272727274226,
                "tempo": 120.0
            },
            {
                "start_time": 138.50454545454545,
                "end_time": 138.70681818181816,
                "pitch": 47,
                "velocity": 80,
                "duration": 0.20227272727271384,
                "tempo": 120.0
            },
            {
                "start_time": 138.70681818181816,
                "end_time": 138.9090909090909,
                "pitch": 47,
                "velocity": 80,
                "duration": 0.20227272727274226,
                "tempo": 120.0
            },
            {
                "start_time": 137.5,
                "end_time": 138.9090909090909,
                "pitch": 53,
                "velocity": 80,
                "duration": 1.4090909090909065,
                "tempo": 120.0
            },
            {
                "start_time": 138.9090909090909,
                "end_time": 139.1090909090909,
                "pitch": 50,
                "velocity": 80,
                "duration": 0.19999999999998863,
                "tempo": 120.0
            },
            {
                "start_time": 138.9090909090909,
                "end_time": 139.1090909090909,
                "pitch": 53,
                "velocity": 80,
                "duration": 0.19999999999998863,
                "tempo": 120.0
            },
            {
                "start_time": 139.1090909090909,
                "end_time": 139.71363636363637,
                "pitch": 53,
                "velocity": 80,
                "duration": 0.6045454545454731,
                "tempo": 120.0
            },
            {
                "start_time": 139.1090909090909,
                "end_time": 139.71363636363637,
                "pitch": 53,
                "velocity": 80,
                "duration": 0.6045454545454731,
                "tempo": 120.0
            },
            {
                "start_time": 139.7159090909091,
                "end_time": 139.91590909090908,
                "pitch": 53,
                "velocity": 80,
                "duration": 0.19999999999998863,
                "tempo": 120.0
            },
            {
                "start_time": 139.91590909090908,
                "end_time": 140.11590909090907,
                "pitch": 52,
                "velocity": 80,
                "duration": 0.19999999999998863,
                "tempo": 120.0
            },
            {
                "start_time": 140.11590909090907,
                "end_time": 140.3159090909091,
                "pitch": 50,
                "velocity": 80,
                "duration": 0.20000000000001705,
                "tempo": 120.0
            },
            {
                "start_time": 140.3159090909091,
                "end_time": 140.5181818181818,
                "pitch": 52,
                "velocity": 80,
                "duration": 0.20227272727271384,
                "tempo": 120.0
            },
            {
                "start_time": 140.5181818181818,
                "end_time": 140.71818181818182,
                "pitch": 50,
                "velocity": 80,
                "duration": 0.20000000000001705,
                "tempo": 120.0
            },
            {
                "start_time": 140.71818181818182,
                "end_time": 140.72045454545454,
                "pitch": 48,
                "velocity": 80,
                "duration": 0.0022727272727252057,
                "tempo": 120.0
            }
        ]
    }
}