{
    "track_id": "13 Demo",
    "mood": "angry",
    "instruments": {
        "Electric Piano 1": [
            {
                "start_time": 0.013636363636363636,
                "end_time": 0.12954545454545455,
                "pitch": 67,
                "velocity": 101,
                "duration": 0.1159090909090909,
                "tempo": 120.0
            },
            {
                "start_time": 0.19772727272727272,
                "end_time": 0.31136363636363634,
                "pitch": 67,
                "velocity": 101,
                "duration": 0.11363636363636362,
                "tempo": 120.0
            },
            {
                "start_time": 0.3818181818181818,
                "end_time": 0.4795454545454545,
                "pitch": 67,
                "velocity": 101,
                "duration": 0.09772727272727272,
                "tempo": 120.0
            },
            {
                "start_time": 0.5477272727272727,
                "end_time": 1.0818181818181818,
                "pitch": 67,
                "velocity": 101,
                "duration": 0.5340909090909091,
                "tempo": 120.0
            },
            {
                "start_time": 1.0818181818181818,
                "end_time": 1.1318181818181818,
                "pitch": 67,
                "velocity": 101,
                "duration": 0.050000000000000044,
                "tempo": 120.0
            },
            {
                "start_time": 1.1318181818181818,
                "end_time": 1.325,
                "pitch": 67,
                "velocity": 101,
                "duration": 0.19318181818181812,
                "tempo": 120.0
            },
            {
                "start_time": 1.3272727272727272,
                "end_time": 1.4909090909090907,
                "pitch": 65,
                "velocity": 101,
                "duration": 0.16363636363636358,
                "tempo": 120.0
            },
            {
                "start_time": 1.5909090909090908,
                "end_time": 1.7545454545454544,
                "pitch": 65,
                "velocity": 101,
                "duration": 0.16363636363636358,
                "tempo": 120.0
            },
            {
                "start_time": 1.8522727272727273,
                "end_time": 1.9954545454545454,
                "pitch": 65,
                "velocity": 101,
                "duration": 0.14318181818181808,
                "tempo": 120.0
            },
            {
                "start_time": 2.0931818181818183,
                "end_time": 2.5545454545454542,
                "pitch": 67,
                "velocity": 101,
                "duration": 0.461363636363636,
                "tempo": 120.0
            },
            {
                "start_time": 1.0818181818181818,
                "end_time": 2.5545454545454542,
                "pitch": 79,
                "velocity": 101,
                "duration": 1.4727272727272724,
                "tempo": 120.0
            },
            {
                "start_time": 1.1318181818181818,
                "end_time": 2.5795454545454546,
                "pitch": 55,
                "velocity": 101,
                "duration": 1.4477272727272728,
                "tempo": 120.0
            },
            {
                "start_time": 2.5545454545454542,
                "end_time": 2.5795454545454546,
                "pitch": 67,
                "velocity": 101,
                "duration": 0.025000000000000355,
                "tempo": 120.0
            },
            {
                "start_time": 2.5795454545454546,
                "end_time": 2.775,
                "pitch": 67,
                "velocity": 101,
                "duration": 0.19545454545454533,
                "tempo": 120.0
            },
            {
                "start_time": 2.5545454545454542,
                "end_time": 2.775,
                "pitch": 79,
                "velocity": 101,
                "duration": 0.22045454545454568,
                "tempo": 120.0
            },
            {
                "start_time": 2.5795454545454546,
                "end_time": 2.8227272727272728,
                "pitch": 55,
                "velocity": 101,
                "duration": 0.24318181818181817,
                "tempo": 120.0
            },
            {
                "start_time": 2.775,
                "end_time": 2.8227272727272728,
                "pitch": 67,
                "velocity": 101,
                "duration": 0.04772727272727284,
                "tempo": 120.0
            },
            {
                "start_time": 2.8227272727272728,
                "end_time": 2.870454545454545,
                "pitch": 67,
                "velocity": 101,
                "duration": 0.047727272727272396,
                "tempo": 120.0
            },
            {
                "start_time": 2.8727272727272726,
                "end_time": 3.0386363636363636,
                "pitch": 65,
                "velocity": 101,
                "duration": 0.165909090909091,
                "tempo": 120.0
            },
            {
                "start_time": 3.1363636363636362,
                "end_time": 3.3,
                "pitch": 65,
                "velocity": 101,
                "duration": 0.16363636363636358,
                "tempo": 120.0
            },
            {
                "start_time": 3.4,
                "end_time": 3.5409090909090906,
                "pitch": 65,
                "velocity": 101,
                "duration": 0.14090909090909065,
                "tempo": 120.0
            },
            {
                "start_time": 3.6386363636363637,
                "end_time": 3.9295454545454542,
                "pitch": 67,
                "velocity": 101,
                "duration": 0.29090909090909056,
                "tempo": 120.0
            },
            {
                "start_time": 3.9318181818181817,
                "end_time": 4.122727272727272,
                "pitch": 66,
                "velocity": 101,
                "duration": 0.19090909090909047,
                "tempo": 120.0
            },
            {
                "start_time": 4.125,
                "end_time": 4.2704545454545455,
                "pitch": 67,
                "velocity": 101,
                "duration": 0.1454545454545455,
                "tempo": 120.0
            },
            {
                "start_time": 4.370454545454545,
                "end_time": 4.638636363636364,
                "pitch": 70,
                "velocity": 101,
                "duration": 0.2681818181818185,
                "tempo": 120.0
            },
            {
                "start_time": 4.640909090909091,
                "end_time": 4.797727272727273,
                "pitch": 68,
                "velocity": 101,
                "duration": 0.1568181818181822,
                "tempo": 120.0
            },
            {
                "start_time": 4.888636363636364,
                "end_time": 5.045454545454545,
                "pitch": 67,
                "velocity": 101,
                "duration": 0.1568181818181813,
                "tempo": 120.0
            },
            {
                "start_time": 5.136363636363636,
                "end_time": 5.956818181818181,
                "pitch": 65,
                "velocity": 101,
                "duration": 0.8204545454545453,
                "tempo": 120.0
            },
            {
                "start_time": 5.959090909090909,
                "end_time": 6.415909090909091,
                "pitch": 67,
                "velocity": 101,
                "duration": 0.456818181818182,
                "tempo": 120.0
            },
            {
                "start_time": 2.775,
                "end_time": 6.415909090909091,
                "pitch": 79,
                "velocity": 101,
                "duration": 3.640909090909091,
                "tempo": 120.0
            },
            {
                "start_time": 2.8227272727272728,
                "end_time": 6.4386363636363635,
                "pitch": 55,
                "velocity": 101,
                "duration": 3.6159090909090907,
                "tempo": 120.0
            },
            {
                "start_time": 6.415909090909091,
                "end_time": 6.4386363636363635,
                "pitch": 67,
                "velocity": 101,
                "duration": 0.022727272727272485,
                "tempo": 120.0
            },
            {
                "start_time": 6.4386363636363635,
                "end_time": 6.629545454545454,
                "pitch": 67,
                "velocity": 101,
                "duration": 0.19090909090909047,
                "tempo": 120.0
            },
            {
                "start_time": 6.415909090909091,
                "end_time": 6.629545454545454,
                "pitch": 79,
                "velocity": 101,
                "duration": 0.21363636363636296,
                "tempo": 120.0
            },
            {
                "start_time": 6.4386363636363635,
                "end_time": 6.677272727272727,
                "pitch": 55,
                "velocity": 101,
                "duration": 0.2386363636363633,
                "tempo": 120.0
            },
            {
                "start_time": 6.629545454545454,
                "end_time": 6.677272727272727,
                "pitch": 67,
                "velocity": 101,
                "duration": 0.04772727272727284,
                "tempo": 120.0
            },
            {
                "start_time": 6.677272727272727,
                "end_time": 6.725,
                "pitch": 67,
                "velocity": 101,
                "duration": 0.04772727272727284,
                "tempo": 120.0
            },
            {
                "start_time": 6.727272727272727,
                "end_time": 6.988636363636363,
                "pitch": 63,
                "velocity": 101,
                "duration": 0.2613636363636367,
                "tempo": 120.0
            },
            {
                "start_time": 7.2295454545454545,
                "end_time": 7.3954545454545455,
                "pitch": 63,
                "velocity": 101,
                "duration": 0.165909090909091,
                "tempo": 120.0
            },
            {
                "start_time": 7.493181818181818,
                "end_time": 7.759090909090909,
                "pitch": 67,
                "velocity": 101,
                "duration": 0.26590909090909065,
                "tempo": 120.0
            },
            {
                "start_time": 7.761363636363636,
                "end_time": 8.027272727272727,
                "pitch": 65,
                "velocity": 101,
                "duration": 0.26590909090909154,
                "tempo": 120.0
            },
            {
                "start_time": 8.029545454545454,
                "end_time": 8.295454545454545,
                "pitch": 63,
                "velocity": 101,
                "duration": 0.26590909090909065,
                "tempo": 120.0
            },
            {
                "start_time": 8.297727272727272,
                "end_time": 9.495454545454544,
                "pitch": 62,
                "velocity": 101,
                "duration": 1.1977272727272723,
                "tempo": 120.0
            },
            {
                "start_time": 9.497727272727273,
                "end_time": 9.69090909090909,
                "pitch": 63,
                "velocity": 101,
                "duration": 0.19318181818181657,
                "tempo": 120.0
            },
            {
                "start_time": 9.770454545454545,
                "end_time": 10.952272727272726,
                "pitch": 62,
                "velocity": 101,
                "duration": 1.1818181818181817,
                "tempo": 120.0
            },
            {
                "start_time": 11.195454545454545,
                "end_time": 11.431818181818182,
                "pitch": 63,
                "velocity": 101,
                "duration": 0.23636363636363633,
                "tempo": 120.0
            },
            {
                "start_time": 11.540909090909091,
                "end_time": 11.777272727272727,
                "pitch": 62,
                "velocity": 101,
                "duration": 0.23636363636363633,
                "tempo": 120.0
            },
            {
                "start_time": 12.077272727272726,
                "end_time": 12.288636363636362,
                "pitch": 63,
                "velocity": 101,
                "duration": 0.21136363636363598,
                "tempo": 120.0
            },
            {
                "start_time": 12.418181818181818,
                "end_time": 12.681818181818182,
                "pitch": 62,
                "velocity": 80,
                "duration": 0.26363636363636367,
                "tempo": 120.0
            },
            {
                "start_time": 13.127272727272727,
                "end_time": 13.370454545454544,
                "pitch": 63,
                "velocity": 80,
                "duration": 0.24318181818181728,
                "tempo": 120.0
            },
            {
                "start_time": 13.593181818181817,
                "end_time": 15.195454545454545,
                "pitch": 62,
                "velocity": 64,
                "duration": 1.6022727272727284,
                "tempo": 120.0
            },
            {
                "start_time": 49.518181818181816,
                "end_time": 49.699999999999996,
                "pitch": 67,
                "velocity": 80,
                "duration": 0.18181818181817988,
                "tempo": 120.0
            },
            {
                "start_time": 49.70227272727273,
                "end_time": 49.88409090909091,
                "pitch": 65,
                "velocity": 80,
                "duration": 0.18181818181817988,
                "tempo": 120.0
            },
            {
                "start_time": 49.88636363636363,
                "end_time": 50.06363636363636,
                "pitch": 63,
                "velocity": 80,
                "duration": 0.17727272727272947,
                "tempo": 120.0
            },
            {
                "start_time": 50.06363636363636,
                "end_time": 50.24318181818182,
                "pitch": 62,
                "velocity": 80,
                "duration": 0.17954545454545467,
                "tempo": 120.0
            },
            {
                "start_time": 50.24318181818182,
                "end_time": 50.42727272727272,
                "pitch": 60,
                "velocity": 80,
                "duration": 0.18409090909090509,
                "tempo": 120.0
            },
            {
                "start_time": 50.42727272727272,
                "end_time": 50.60909090909091,
                "pitch": 58,
                "velocity": 80,
                "duration": 0.18181818181818699,
                "tempo": 120.0
            },
            {
                "start_time": 50.611363636363635,
                "end_time": 50.793181818181814,
                "pitch": 56,
                "velocity": 80,
                "duration": 0.18181818181817988,
                "tempo": 120.0
            },
            {
                "start_time": 6.677272727272727,
                "end_time": 50.97727272727273,
                "pitch": 55,
                "velocity": 101,
                "duration": 44.3,
                "tempo": 120.0
            },
            {
                "start_time": 50.79545454545454,
                "end_time": 50.97727272727273,
                "pitch": 55,
                "velocity": 80,
                "duration": 0.18181818181818699,
                "tempo": 120.0
            },
            {
                "start_time": 50.97954545454545,
                "end_time": 51.16136363636363,
                "pitch": 53,
                "velocity": 80,
                "duration": 0.18181818181817988,
                "tempo": 120.0
            },
            {
                "start_time": 51.163636363636364,
                "end_time": 51.345454545454544,
                "pitch": 51,
                "velocity": 80,
                "duration": 0.18181818181817988,
                "tempo": 120.0
            },
            {
                "start_time": 51.345454545454544,
                "end_time": 51.525,
                "pitch": 50,
                "velocity": 80,
                "duration": 0.17954545454545467,
                "tempo": 120.0
            },
            {
                "start_time": 51.525,
                "end_time": 51.70227272727273,
                "pitch": 48,
                "velocity": 80,
                "duration": 0.17727272727272947,
                "tempo": 120.0
            },
            {
                "start_time": 51.70454545454545,
                "end_time": 51.88636363636363,
                "pitch": 70,
                "velocity": 80,
                "duration": 0.18181818181817988,
                "tempo": 120.0
            },
            {
                "start_time": 51.88863636363636,
                "end_time": 52.070454545454545,
                "pitch": 68,
                "velocity": 80,
                "duration": 0.18181818181818699,
                "tempo": 120.0
            },
            {
                "start_time": 52.07272727272727,
                "end_time": 52.25454545454545,
                "pitch": 67,
                "velocity": 80,
                "duration": 0.18181818181817988,
                "tempo": 120.0
            },
            {
                "start_time": 52.25681818181818,
                "end_time": 52.43863636363636,
                "pitch": 65,
                "velocity": 80,
                "duration": 0.18181818181817988,
                "tempo": 120.0
            },
            {
                "start_time": 52.43863636363636,
                "end_time": 52.62272727272727,
                "pitch": 63,
                "velocity": 80,
                "duration": 0.18409090909090509,
                "tempo": 120.0
            },
            {
                "start_time": 52.62272727272727,
                "end_time": 52.804545454545455,
                "pitch": 62,
                "velocity": 80,
                "duration": 0.18181818181818699,
                "tempo": 120.0
            },
            {
                "start_time": 52.80681818181818,
                "end_time": 52.98409090909091,
                "pitch": 60,
                "velocity": 80,
                "duration": 0.17727272727272947,
                "tempo": 120.0
            },
            {
                "start_time": 52.986363636363635,
                "end_time": 53.163636363636364,
                "pitch": 58,
                "velocity": 80,
                "duration": 0.17727272727272947,
                "tempo": 120.0
            },
            {
                "start_time": 53.16590909090909,
                "end_time": 53.34772727272727,
                "pitch": 56,
                "velocity": 80,
                "duration": 0.18181818181817988,
                "tempo": 120.0
            },
            {
                "start_time": 53.349999999999994,
                "end_time": 53.53181818181818,
                "pitch": 55,
                "velocity": 80,
                "duration": 0.18181818181818699,
                "tempo": 120.0
            },
            {
                "start_time": 53.53409090909091,
                "end_time": 53.715909090909086,
                "pitch": 53,
                "velocity": 80,
                "duration": 0.18181818181817988,
                "tempo": 120.0
            },
            {
                "start_time": 53.715909090909086,
                "end_time": 53.9,
                "pitch": 51,
                "velocity": 80,
                "duration": 0.1840909090909122,
                "tempo": 120.0
            },
            {
                "start_time": 53.9,
                "end_time": 54.07727272727273,
                "pitch": 67,
                "velocity": 80,
                "duration": 0.17727272727272947,
                "tempo": 120.0
            },
            {
                "start_time": 54.07954545454545,
                "end_time": 54.25681818181818,
                "pitch": 65,
                "velocity": 80,
                "duration": 0.17727272727272947,
                "tempo": 120.0
            },
            {
                "start_time": 54.25909090909091,
                "end_time": 54.44090909090909,
                "pitch": 63,
                "velocity": 80,
                "duration": 0.18181818181817988,
                "tempo": 120.0
            },
            {
                "start_time": 54.44318181818181,
                "end_time": 54.625,
                "pitch": 62,
                "velocity": 80,
                "duration": 0.18181818181818699,
                "tempo": 120.0
            },
            {
                "start_time": 54.627272727272725,
                "end_time": 54.809090909090905,
                "pitch": 60,
                "velocity": 80,
                "duration": 0.18181818181817988,
                "tempo": 120.0
            },
            {
                "start_time": 54.81136363636363,
                "end_time": 54.99318181818182,
                "pitch": 58,
                "velocity": 80,
                "duration": 0.18181818181818699,
                "tempo": 120.0
            },
            {
                "start_time": 54.99318181818182,
                "end_time": 55.175,
                "pitch": 56,
                "velocity": 80,
                "duration": 0.18181818181817988,
                "tempo": 120.0
            },
            {
                "start_time": 55.17727272727272,
                "end_time": 55.35909090909091,
                "pitch": 55,
                "velocity": 80,
                "duration": 0.18181818181818699,
                "tempo": 120.0
            },
            {
                "start_time": 55.361363636363635,
                "end_time": 55.538636363636364,
                "pitch": 53,
                "velocity": 80,
                "duration": 0.17727272727272947,
                "tempo": 120.0
            },
            {
                "start_time": 55.54090909090909,
                "end_time": 55.71818181818182,
                "pitch": 51,
                "velocity": 80,
                "duration": 0.17727272727272947,
                "tempo": 120.0
            },
            {
                "start_time": 55.720454545454544,
                "end_time": 55.902272727272724,
                "pitch": 50,
                "velocity": 80,
                "duration": 0.18181818181817988,
                "tempo": 120.0
            },
            {
                "start_time": 55.90454545454545,
                "end_time": 56.086363636363636,
                "pitch": 48,
                "velocity": 80,
                "duration": 0.18181818181818699,
                "tempo": 120.0
            },
            {
                "start_time": 56.08863636363636,
                "end_time": 56.26590909090909,
                "pitch": 70,
                "velocity": 80,
                "duration": 0.17727272727272947,
                "tempo": 120.0
            },
            {
                "start_time": 56.26590909090909,
                "end_time": 56.445454545454545,
                "pitch": 68,
                "velocity": 80,
                "duration": 0.17954545454545467,
                "tempo": 120.0
            },
            {
                "start_time": 56.445454545454545,
                "end_time": 56.627272727272725,
                "pitch": 67,
                "velocity": 80,
                "duration": 0.18181818181817988,
                "tempo": 120.0
            },
            {
                "start_time": 56.62954545454545,
                "end_time": 56.81136363636363,
                "pitch": 65,
                "velocity": 80,
                "duration": 0.18181818181817988,
                "tempo": 120.0
            },
            {
                "start_time": 56.81363636363636,
                "end_time": 56.99545454545454,
                "pitch": 63,
                "velocity": 80,
                "duration": 0.18181818181817988,
                "tempo": 120.0
            },
            {
                "start_time": 56.99772727272727,
                "end_time": 57.179545454545455,
                "pitch": 62,
                "velocity": 80,
                "duration": 0.18181818181818699,
                "tempo": 120.0
            },
            {
                "start_time": 57.18181818181818,
                "end_time": 57.36363636363636,
                "pitch": 60,
                "velocity": 80,
                "duration": 0.18181818181817988,
                "tempo": 120.0
            },
            {
                "start_time": 57.36363636363636,
                "end_time": 57.54772727272727,
                "pitch": 58,
                "velocity": 80,
                "duration": 0.1840909090909122,
                "tempo": 120.0
            },
            {
                "start_time": 57.54772727272727,
                "end_time": 57.724999999999994,
                "pitch": 56,
                "velocity": 80,
                "duration": 0.17727272727272236,
                "tempo": 120.0
            },
            {
                "start_time": 57.72727272727273,
                "end_time": 57.90454545454545,
                "pitch": 55,
                "velocity": 80,
                "duration": 0.17727272727272236,
                "tempo": 120.0
            },
            {
                "start_time": 57.90681818181818,
                "end_time": 58.08863636363636,
                "pitch": 53,
                "velocity": 80,
                "duration": 0.18181818181817988,
                "tempo": 120.0
            },
            {
                "start_time": 58.090909090909086,
                "end_time": 58.27272727272727,
                "pitch": 51,
                "velocity": 80,
                "duration": 0.18181818181818699,
                "tempo": 120.0
            },
            {
                "start_time": 58.27272727272727,
                "end_time": 58.275,
                "pitch": 51,
                "velocity": 80,
                "duration": 0.0022727272727252057,
                "tempo": 120.0
            }
        ],
        "Acoustic Bass": [
            {
                "start_time": 31.99090909090909,
                "end_time": 32.34772727272727,
                "pitch": 36,
                "velocity": 80,
                "duration": 0.3568181818181806,
                "tempo": 120.0
            },
            {
                "start_time": 32.34772727272727,
                "end_time": 32.72272727272727,
                "pitch": 36,
                "velocity": 80,
                "duration": 0.375,
                "tempo": 120.0
            },
            {
                "start_time": 32.725,
                "end_time": 33.09318181818182,
                "pitch": 36,
                "velocity": 80,
                "duration": 0.3681818181818173,
                "tempo": 120.0
            },
            {
                "start_time": 33.09318181818182,
                "end_time": 33.45227272727273,
                "pitch": 36,
                "velocity": 80,
                "duration": 0.35909090909090935,
                "tempo": 120.0
            },
            {
                "start_time": 33.45227272727273,
                "end_time": 33.81818181818181,
                "pitch": 36,
                "velocity": 80,
                "duration": 0.36590909090908497,
                "tempo": 120.0
            },
            {
                "start_time": 33.820454545454545,
                "end_time": 34.18636363636364,
                "pitch": 36,
                "velocity": 80,
                "duration": 0.36590909090909207,
                "tempo": 120.0
            },
            {
                "start_time": 34.18863636363636,
                "end_time": 34.54545454545455,
                "pitch": 39,
                "velocity": 80,
                "duration": 0.35681818181818414,
                "tempo": 120.0
            },
            {
                "start_time": 34.54545454545455,
                "end_time": 34.91136363636363,
                "pitch": 39,
                "velocity": 80,
                "duration": 0.36590909090908497,
                "tempo": 120.0
            },
            {
                "start_time": 34.913636363636364,
                "end_time": 35.279545454545456,
                "pitch": 39,
                "velocity": 80,
                "duration": 0.36590909090909207,
                "tempo": 120.0
            },
            {
                "start_time": 35.279545454545456,
                "end_time": 35.638636363636365,
                "pitch": 39,
                "velocity": 80,
                "duration": 0.35909090909090935,
                "tempo": 120.0
            },
            {
                "start_time": 35.64090909090909,
                "end_time": 36.00454545454545,
                "pitch": 39,
                "velocity": 80,
                "duration": 0.36363636363635976,
                "tempo": 120.0
            },
            {
                "start_time": 36.00681818181818,
                "end_time": 36.37272727272727,
                "pitch": 39,
                "velocity": 80,
                "duration": 0.36590909090908497,
                "tempo": 120.0
            },
            {
                "start_time": 36.375,
                "end_time": 36.74090909090909,
                "pitch": 41,
                "velocity": 80,
                "duration": 0.36590909090909207,
                "tempo": 120.0
            },
            {
                "start_time": 36.74090909090909,
                "end_time": 37.1,
                "pitch": 41,
                "velocity": 80,
                "duration": 0.35909090909090935,
                "tempo": 120.0
            },
            {
                "start_time": 37.1,
                "end_time": 37.465909090909086,
                "pitch": 41,
                "velocity": 80,
                "duration": 0.36590909090908497,
                "tempo": 120.0
            },
            {
                "start_time": 37.46818181818182,
                "end_time": 37.83409090909091,
                "pitch": 41,
                "velocity": 80,
                "duration": 0.36590909090909207,
                "tempo": 120.0
            },
            {
                "start_time": 37.836363636363636,
                "end_time": 38.19318181818181,
                "pitch": 41,
                "velocity": 80,
                "duration": 0.35681818181817704,
                "tempo": 120.0
            },
            {
                "start_time": 38.19318181818181,
                "end_time": 38.559090909090905,
                "pitch": 41,
                "velocity": 80,
                "duration": 0.36590909090909207,
                "tempo": 120.0
            },
            {
                "start_time": 38.56136363636364,
                "end_time": 38.92727272727272,
                "pitch": 38,
                "velocity": 80,
                "duration": 0.36590909090908497,
                "tempo": 120.0
            },
            {
                "start_time": 38.92727272727272,
                "end_time": 39.29545454545455,
                "pitch": 38,
                "velocity": 80,
                "duration": 0.3681818181818244,
                "tempo": 120.0
            },
            {
                "start_time": 39.29545454545455,
                "end_time": 39.66136363636363,
                "pitch": 38,
                "velocity": 80,
                "duration": 0.36590909090908497,
                "tempo": 120.0
            },
            {
                "start_time": 39.663636363636364,
                "end_time": 39.97272727272727,
                "pitch": 43,
                "velocity": 80,
                "duration": 0.3090909090909051,
                "tempo": 120.0
            },
            {
                "start_time": 39.97272727272727,
                "end_time": 40.00681818181818,
                "pitch": 43,
                "velocity": 80,
                "duration": 0.03409090909091361,
                "tempo": 120.0
            },
            {
                "start_time": 40.00681818181818,
                "end_time": 40.02045454545454,
                "pitch": 43,
                "velocity": 80,
                "duration": 0.01363636363635834,
                "tempo": 120.0
            },
            {
                "start_time": 40.02272727272727,
                "end_time": 40.37954545454545,
                "pitch": 43,
                "velocity": 80,
                "duration": 0.35681818181817704,
                "tempo": 120.0
            },
            {
                "start_time": 40.38181818181818,
                "end_time": 40.74545454545454,
                "pitch": 43,
                "velocity": 80,
                "duration": 0.36363636363635976,
                "tempo": 120.0
            },
            {
                "start_time": 40.74772727272727,
                "end_time": 41.11363636363636,
                "pitch": 36,
                "velocity": 80,
                "duration": 0.36590909090909207,
                "tempo": 120.0
            },
            {
                "start_time": 41.11590909090909,
                "end_time": 41.48181818181818,
                "pitch": 36,
                "velocity": 80,
                "duration": 0.36590909090908497,
                "tempo": 120.0
            },
            {
                "start_time": 41.48409090909091,
                "end_time": 41.84772727272727,
                "pitch": 36,
                "velocity": 80,
                "duration": 0.36363636363635976,
                "tempo": 120.0
            },
            {
                "start_time": 41.85,
                "end_time": 42.20681818181818,
                "pitch": 36,
                "velocity": 80,
                "duration": 0.35681818181817704,
                "tempo": 120.0
            },
            {
                "start_time": 42.209090909090904,
                "end_time": 42.574999999999996,
                "pitch": 36,
                "velocity": 80,
                "duration": 0.36590909090909207,
                "tempo": 120.0
            },
            {
                "start_time": 42.574999999999996,
                "end_time": 42.94318181818181,
                "pitch": 36,
                "velocity": 80,
                "duration": 0.3681818181818173,
                "tempo": 120.0
            },
            {
                "start_time": 42.94318181818181,
                "end_time": 43.30227272727272,
                "pitch": 39,
                "velocity": 80,
                "duration": 0.35909090909090935,
                "tempo": 120.0
            },
            {
                "start_time": 43.30227272727272,
                "end_time": 43.668181818181814,
                "pitch": 39,
                "velocity": 80,
                "duration": 0.36590909090909207,
                "tempo": 120.0
            },
            {
                "start_time": 43.67045454545455,
                "end_time": 44.03636363636363,
                "pitch": 39,
                "velocity": 80,
                "duration": 0.36590909090908497,
                "tempo": 120.0
            },
            {
                "start_time": 44.03636363636363,
                "end_time": 44.402272727272724,
                "pitch": 39,
                "velocity": 80,
                "duration": 0.36590909090909207,
                "tempo": 120.0
            },
            {
                "start_time": 44.40454545454545,
                "end_time": 44.76136363636363,
                "pitch": 39,
                "velocity": 80,
                "duration": 0.35681818181818414,
                "tempo": 120.0
            },
            {
                "start_time": 44.76363636363636,
                "end_time": 45.12954545454545,
                "pitch": 39,
                "velocity": 80,
                "duration": 0.36590909090909207,
                "tempo": 120.0
            },
            {
                "start_time": 45.13181818181818,
                "end_time": 45.49545454545454,
                "pitch": 41,
                "velocity": 80,
                "duration": 0.36363636363635976,
                "tempo": 120.0
            },
            {
                "start_time": 45.49772727272727,
                "end_time": 45.85454545454545,
                "pitch": 41,
                "velocity": 80,
                "duration": 0.35681818181818414,
                "tempo": 120.0
            },
            {
                "start_time": 45.85681818181818,
                "end_time": 46.22272727272727,
                "pitch": 41,
                "velocity": 80,
                "duration": 0.36590909090909207,
                "tempo": 120.0
            },
            {
                "start_time": 46.22272727272727,
                "end_time": 46.590909090909086,
                "pitch": 41,
                "velocity": 80,
                "duration": 0.3681818181818173,
                "tempo": 120.0
            },
            {
                "start_time": 46.590909090909086,
                "end_time": 46.949999999999996,
                "pitch": 41,
                "velocity": 80,
                "duration": 0.35909090909090935,
                "tempo": 120.0
            },
            {
                "start_time": 46.949999999999996,
                "end_time": 47.31590909090909,
                "pitch": 41,
                "velocity": 80,
                "duration": 0.36590909090909207,
                "tempo": 120.0
            },
            {
                "start_time": 47.31818181818181,
                "end_time": 47.684090909090905,
                "pitch": 38,
                "velocity": 80,
                "duration": 0.36590909090909207,
                "tempo": 120.0
            },
            {
                "start_time": 47.684090909090905,
                "end_time": 48.05,
                "pitch": 38,
                "velocity": 80,
                "duration": 0.36590909090909207,
                "tempo": 120.0
            },
            {
                "start_time": 48.05227272727272,
                "end_time": 48.418181818181814,
                "pitch": 38,
                "velocity": 80,
                "duration": 0.36590909090909207,
                "tempo": 120.0
            },
            {
                "start_time": 48.42045454545454,
                "end_time": 48.76136363636363,
                "pitch": 43,
                "velocity": 80,
                "duration": 0.3409090909090935,
                "tempo": 120.0
            },
            {
                "start_time": 39.97272727272727,
                "end_time": 48.76136363636363,
                "pitch": 55,
                "velocity": 80,
                "duration": 8.788636363636364,
                "tempo": 120.0
            },
            {
                "start_time": 48.76136363636363,
                "end_time": 48.777272727272724,
                "pitch": 43,
                "velocity": 80,
                "duration": 0.01590909090909065,
                "tempo": 120.0
            },
            {
                "start_time": 48.77954545454545,
                "end_time": 49.095454545454544,
                "pitch": 43,
                "velocity": 80,
                "duration": 0.3159090909090949,
                "tempo": 120.0
            },
            {
                "start_time": 48.76136363636363,
                "end_time": 49.095454545454544,
                "pitch": 55,
                "velocity": 80,
                "duration": 0.33409090909091077,
                "tempo": 120.0
            },
            {
                "start_time": 40.00681818181818,
                "end_time": 49.12954545454545,
                "pitch": 31,
                "velocity": 80,
                "duration": 9.122727272727268,
                "tempo": 120.0
            },
            {
                "start_time": 49.095454545454544,
                "end_time": 49.12954545454545,
                "pitch": 43,
                "velocity": 80,
                "duration": 0.03409090909090651,
                "tempo": 120.0
            },
            {
                "start_time": 49.12954545454545,
                "end_time": 49.143181818181816,
                "pitch": 43,
                "velocity": 80,
                "duration": 0.013636363636365445,
                "tempo": 120.0
            },
            {
                "start_time": 49.14545454545454,
                "end_time": 49.502272727272725,
                "pitch": 43,
                "velocity": 80,
                "duration": 0.35681818181818414,
                "tempo": 120.0
            },
            {
                "start_time": 49.50454545454545,
                "end_time": 49.87045454545454,
                "pitch": 36,
                "velocity": 80,
                "duration": 0.36590909090909207,
                "tempo": 120.0
            },
            {
                "start_time": 49.87045454545454,
                "end_time": 50.22954545454545,
                "pitch": 36,
                "velocity": 80,
                "duration": 0.35909090909090935,
                "tempo": 120.0
            },
            {
                "start_time": 50.22954545454545,
                "end_time": 50.595454545454544,
                "pitch": 36,
                "velocity": 80,
                "duration": 0.36590909090909207,
                "tempo": 120.0
            },
            {
                "start_time": 50.59772727272727,
                "end_time": 50.96363636363636,
                "pitch": 36,
                "velocity": 80,
                "duration": 0.36590909090909207,
                "tempo": 120.0
            },
            {
                "start_time": 50.96363636363636,
                "end_time": 51.32954545454545,
                "pitch": 36,
                "velocity": 80,
                "duration": 0.36590909090909207,
                "tempo": 120.0
            },
            {
                "start_time": 51.33181818181818,
                "end_time": 51.68863636363636,
                "pitch": 36,
                "velocity": 80,
                "duration": 0.35681818181818414,
                "tempo": 120.0
            },
            {
                "start_time": 51.69090909090909,
                "end_time": 52.05681818181818,
                "pitch": 39,
                "velocity": 80,
                "duration": 0.36590909090909207,
                "tempo": 120.0
            },
            {
                "start_time": 52.059090909090905,
                "end_time": 52.42272727272727,
                "pitch": 39,
                "velocity": 80,
                "duration": 0.36363636363636687,
                "tempo": 120.0
            },
            {
                "start_time": 52.425,
                "end_time": 52.79090909090909,
                "pitch": 39,
                "velocity": 80,
                "duration": 0.36590909090909207,
                "tempo": 120.0
            },
            {
                "start_time": 52.793181818181814,
                "end_time": 53.15,
                "pitch": 39,
                "velocity": 80,
                "duration": 0.35681818181818414,
                "tempo": 120.0
            },
            {
                "start_time": 53.152272727272724,
                "end_time": 53.51590909090909,
                "pitch": 39,
                "velocity": 80,
                "duration": 0.36363636363636687,
                "tempo": 120.0
            },
            {
                "start_time": 53.518181818181816,
                "end_time": 53.88409090909091,
                "pitch": 39,
                "velocity": 80,
                "duration": 0.36590909090909207,
                "tempo": 120.0
            },
            {
                "start_time": 53.88636363636363,
                "end_time": 54.24318181818182,
                "pitch": 41,
                "velocity": 80,
                "duration": 0.35681818181818414,
                "tempo": 120.0
            },
            {
                "start_time": 54.24545454545454,
                "end_time": 54.611363636363635,
                "pitch": 41,
                "velocity": 80,
                "duration": 0.36590909090909207,
                "tempo": 120.0
            },
            {
                "start_time": 54.611363636363635,
                "end_time": 54.97727272727273,
                "pitch": 41,
                "velocity": 80,
                "duration": 0.36590909090909207,
                "tempo": 120.0
            },
            {
                "start_time": 54.97954545454545,
                "end_time": 55.345454545454544,
                "pitch": 41,
                "velocity": 80,
                "duration": 0.36590909090909207,
                "tempo": 120.0
            },
            {
                "start_time": 55.34772727272727,
                "end_time": 55.70454545454545,
                "pitch": 41,
                "velocity": 80,
                "duration": 0.35681818181818414,
                "tempo": 120.0
            },
            {
                "start_time": 55.70681818181818,
                "end_time": 56.07272727272727,
                "pitch": 41,
                "velocity": 80,
                "duration": 0.36590909090909207,
                "tempo": 120.0
            },
            {
                "start_time": 56.07272727272727,
                "end_time": 56.429545454545455,
                "pitch": 38,
                "velocity": 80,
                "duration": 0.35681818181818414,
                "tempo": 120.0
            },
            {
                "start_time": 56.43181818181818,
                "end_time": 56.79772727272727,
                "pitch": 38,
                "velocity": 80,
                "duration": 0.36590909090909207,
                "tempo": 120.0
            },
            {
                "start_time": 56.79772727272727,
                "end_time": 57.16590909090909,
                "pitch": 38,
                "velocity": 80,
                "duration": 0.3681818181818173,
                "tempo": 120.0
            },
            {
                "start_time": 57.16590909090909,
                "end_time": 57.53181818181818,
                "pitch": 43,
                "velocity": 80,
                "duration": 0.36590909090909207,
                "tempo": 120.0
            },
            {
                "start_time": 57.53409090909091,
                "end_time": 57.877272727272725,
                "pitch": 43,
                "velocity": 80,
                "duration": 0.3431818181818187,
                "tempo": 120.0
            },
            {
                "start_time": 49.095454545454544,
                "end_time": 57.877272727272725,
                "pitch": 55,
                "velocity": 80,
                "duration": 8.781818181818181,
                "tempo": 120.0
            },
            {
                "start_time": 57.877272727272725,
                "end_time": 57.89090909090909,
                "pitch": 43,
                "velocity": 80,
                "duration": 0.013636363636365445,
                "tempo": 120.0
            },
            {
                "start_time": 57.893181818181816,
                "end_time": 58.209090909090904,
                "pitch": 43,
                "velocity": 80,
                "duration": 0.3159090909090878,
                "tempo": 120.0
            },
            {
                "start_time": 57.877272727272725,
                "end_time": 58.209090909090904,
                "pitch": 55,
                "velocity": 80,
                "duration": 0.33181818181817846,
                "tempo": 120.0
            },
            {
                "start_time": 49.12954545454545,
                "end_time": 58.24318181818182,
                "pitch": 31,
                "velocity": 80,
                "duration": 9.113636363636367,
                "tempo": 120.0
            },
            {
                "start_time": 58.209090909090904,
                "end_time": 58.24318181818182,
                "pitch": 43,
                "velocity": 80,
                "duration": 0.03409090909091361,
                "tempo": 120.0
            },
            {
                "start_time": 58.24318181818182,
                "end_time": 58.25909090909091,
                "pitch": 43,
                "velocity": 80,
                "duration": 0.01590909090909065,
                "tempo": 120.0
            },
            {
                "start_time": 58.25909090909091,
                "end_time": 58.275,
                "pitch": 43,
                "velocity": 80,
                "duration": 0.01590909090909065,
                "tempo": 120.0
            },
            {
                "start_time": 58.28181818181818,
                "end_time": 58.63409090909091,
                "pitch": 36,
                "velocity": 80,
                "duration": 0.3522727272727266,
                "tempo": 120.0
            }
        ],
        "Harpsichord": [
            {
                "start_time": 22.99090909090909,
                "end_time": 23.19090909090909,
                "pitch": 43,
                "velocity": 5,
                "duration": 0.20000000000000284,
                "tempo": 120.0
            },
            {
                "start_time": 23.193181818181817,
                "end_time": 23.404545454545453,
                "pitch": 44,
                "velocity": 5,
                "duration": 0.21136363636363598,
                "tempo": 120.0
            },
            {
                "start_time": 23.409090909090907,
                "end_time": 23.625,
                "pitch": 41,
                "velocity": 5,
                "duration": 0.2159090909090935,
                "tempo": 120.0
            },
            {
                "start_time": 23.627272727272725,
                "end_time": 23.834090909090907,
                "pitch": 39,
                "velocity": 5,
                "duration": 0.206818181818182,
                "tempo": 120.0
            },
            {
                "start_time": 23.836363636363636,
                "end_time": 24.034090909090907,
                "pitch": 38,
                "velocity": 5,
                "duration": 0.19772727272727053,
                "tempo": 120.0
            },
            {
                "start_time": 24.036363636363635,
                "end_time": 24.236363636363635,
                "pitch": 39,
                "velocity": 5,
                "duration": 0.1999999999999993,
                "tempo": 120.0
            },
            {
                "start_time": 24.238636363636363,
                "end_time": 24.45,
                "pitch": 43,
                "velocity": 6,
                "duration": 0.21136363636363598,
                "tempo": 120.0
            },
            {
                "start_time": 24.452272727272724,
                "end_time": 24.663636363636364,
                "pitch": 44,
                "velocity": 6,
                "duration": 0.21136363636363953,
                "tempo": 120.0
            },
            {
                "start_time": 24.66590909090909,
                "end_time": 24.868181818181817,
                "pitch": 41,
                "velocity": 6,
                "duration": 0.20227272727272805,
                "tempo": 120.0
            },
            {
                "start_time": 24.870454545454542,
                "end_time": 25.07272727272727,
                "pitch": 39,
                "velocity": 8,
                "duration": 0.20227272727272805,
                "tempo": 120.0
            },
            {
                "start_time": 25.075,
                "end_time": 25.252272727272725,
                "pitch": 38,
                "velocity": 8,
                "duration": 0.17727272727272592,
                "tempo": 120.0
            },
            {
                "start_time": 25.254545454545454,
                "end_time": 25.43181818181818,
                "pitch": 39,
                "velocity": 8,
                "duration": 0.17727272727272592,
                "tempo": 120.0
            },
            {
                "start_time": 25.43409090909091,
                "end_time": 25.620454545454542,
                "pitch": 43,
                "velocity": 10,
                "duration": 0.18636363636363384,
                "tempo": 120.0
            },
            {
                "start_time": 25.62272727272727,
                "end_time": 25.80909090909091,
                "pitch": 44,
                "velocity": 10,
                "duration": 0.1863636363636374,
                "tempo": 120.0
            },
            {
                "start_time": 25.811363636363634,
                "end_time": 25.993181818181817,
                "pitch": 41,
                "velocity": 10,
                "duration": 0.18181818181818343,
                "tempo": 120.0
            },
            {
                "start_time": 25.995454545454542,
                "end_time": 26.177272727272726,
                "pitch": 39,
                "velocity": 13,
                "duration": 0.18181818181818343,
                "tempo": 120.0
            },
            {
                "start_time": 26.179545454545455,
                "end_time": 26.361363636363635,
                "pitch": 38,
                "velocity": 13,
                "duration": 0.18181818181817988,
                "tempo": 120.0
            },
            {
                "start_time": 26.363636363636363,
                "end_time": 26.545454545454543,
                "pitch": 39,
                "velocity": 13,
                "duration": 0.18181818181817988,
                "tempo": 120.0
            },
            {
                "start_time": 26.547727272727272,
                "end_time": 26.724999999999998,
                "pitch": 43,
                "velocity": 16,
                "duration": 0.17727272727272592,
                "tempo": 120.0
            },
            {
                "start_time": 26.727272727272727,
                "end_time": 26.904545454545453,
                "pitch": 44,
                "velocity": 16,
                "duration": 0.17727272727272592,
                "tempo": 120.0
            },
            {
                "start_time": 26.90681818181818,
                "end_time": 27.084090909090907,
                "pitch": 41,
                "velocity": 16,
                "duration": 0.17727272727272592,
                "tempo": 120.0
            },
            {
                "start_time": 27.084090909090907,
                "end_time": 27.261363636363637,
                "pitch": 39,
                "velocity": 20,
                "duration": 0.17727272727272947,
                "tempo": 120.0
            },
            {
                "start_time": 27.263636363636362,
                "end_time": 27.445454545454545,
                "pitch": 38,
                "velocity": 20,
                "duration": 0.18181818181818343,
                "tempo": 120.0
            },
            {
                "start_time": 27.44772727272727,
                "end_time": 27.629545454545454,
                "pitch": 39,
                "velocity": 20,
                "duration": 0.18181818181818343,
                "tempo": 120.0
            },
            {
                "start_time": 27.63181818181818,
                "end_time": 27.80909090909091,
                "pitch": 43,
                "velocity": 25,
                "duration": 0.17727272727272947,
                "tempo": 120.0
            },
            {
                "start_time": 27.811363636363634,
                "end_time": 27.988636363636363,
                "pitch": 44,
                "velocity": 25,
                "duration": 0.17727272727272947,
                "tempo": 120.0
            },
            {
                "start_time": 27.99090909090909,
                "end_time": 28.172727272727272,
                "pitch": 41,
                "velocity": 25,
                "duration": 0.18181818181818343,
                "tempo": 120.0
            },
            {
                "start_time": 28.174999999999997,
                "end_time": 28.35681818181818,
                "pitch": 39,
                "velocity": 32,
                "duration": 0.18181818181818343,
                "tempo": 120.0
            },
            {
                "start_time": 28.35681818181818,
                "end_time": 28.538636363636364,
                "pitch": 38,
                "velocity": 32,
                "duration": 0.18181818181818343,
                "tempo": 120.0
            },
            {
                "start_time": 28.54090909090909,
                "end_time": 28.722727272727273,
                "pitch": 39,
                "velocity": 32,
                "duration": 0.18181818181818343,
                "tempo": 120.0
            },
            {
                "start_time": 28.724999999999998,
                "end_time": 28.902272727272727,
                "pitch": 43,
                "velocity": 40,
                "duration": 0.17727272727272947,
                "tempo": 120.0
            },
            {
                "start_time": 28.904545454545453,
                "end_time": 29.081818181818182,
                "pitch": 44,
                "velocity": 40,
                "duration": 0.17727272727272947,
                "tempo": 120.0
            },
            {
                "start_time": 29.084090909090907,
                "end_time": 29.26590909090909,
                "pitch": 41,
                "velocity": 40,
                "duration": 0.18181818181818343,
                "tempo": 120.0
            },
            {
                "start_time": 29.268181818181816,
                "end_time": 29.45,
                "pitch": 39,
                "velocity": 51,
                "duration": 0.18181818181818343,
                "tempo": 120.0
            },
            {
                "start_time": 29.45,
                "end_time": 29.63181818181818,
                "pitch": 38,
                "velocity": 51,
                "duration": 0.18181818181817988,
                "tempo": 120.0
            },
            {
                "start_time": 29.634090909090908,
                "end_time": 29.815909090909088,
                "pitch": 39,
                "velocity": 51,
                "duration": 0.18181818181817988,
                "tempo": 120.0
            },
            {
                "start_time": 29.818181818181817,
                "end_time": 29.995454545454542,
                "pitch": 43,
                "velocity": 51,
                "duration": 0.17727272727272592,
                "tempo": 120.0
            },
            {
                "start_time": 29.99772727272727,
                "end_time": 30.174999999999997,
                "pitch": 44,
                "velocity": 51,
                "duration": 0.17727272727272592,
                "tempo": 120.0
            },
            {
                "start_time": 30.177272727272726,
                "end_time": 30.35909090909091,
                "pitch": 41,
                "velocity": 51,
                "duration": 0.18181818181818343,
                "tempo": 120.0
            },
            {
                "start_time": 30.361363636363635,
                "end_time": 30.543181818181818,
                "pitch": 39,
                "velocity": 64,
                "duration": 0.18181818181818343,
                "tempo": 120.0
            },
            {
                "start_time": 30.545454545454543,
                "end_time": 30.724999999999998,
                "pitch": 38,
                "velocity": 64,
                "duration": 0.17954545454545467,
                "tempo": 120.0
            },
            {
                "start_time": 30.727272727272727,
                "end_time": 30.909090909090907,
                "pitch": 39,
                "velocity": 64,
                "duration": 0.18181818181817988,
                "tempo": 120.0
            },
            {
                "start_time": 30.911363636363635,
                "end_time": 31.093181818181815,
                "pitch": 43,
                "velocity": 64,
                "duration": 0.18181818181817988,
                "tempo": 120.0
            },
            {
                "start_time": 31.095454545454544,
                "end_time": 31.277272727272727,
                "pitch": 44,
                "velocity": 64,
                "duration": 0.18181818181818343,
                "tempo": 120.0
            },
            {
                "start_time": 31.279545454545453,
                "end_time": 31.461363636363636,
                "pitch": 41,
                "velocity": 64,
                "duration": 0.18181818181818343,
                "tempo": 120.0
            },
            {
                "start_time": 31.46363636363636,
                "end_time": 31.645454545454545,
                "pitch": 39,
                "velocity": 64,
                "duration": 0.18181818181818343,
                "tempo": 120.0
            },
            {
                "start_time": 31.64772727272727,
                "end_time": 31.825,
                "pitch": 38,
                "velocity": 64,
                "duration": 0.17727272727272947,
                "tempo": 120.0
            },
            {
                "start_time": 31.827272727272724,
                "end_time": 32.00454545454545,
                "pitch": 39,
                "velocity": 64,
                "duration": 0.17727272727272592,
                "tempo": 120.0
            },
            {
                "start_time": 32.00681818181818,
                "end_time": 32.18181818181818,
                "pitch": 43,
                "velocity": 64,
                "duration": 0.17499999999999716,
                "tempo": 120.0
            },
            {
                "start_time": 32.184090909090905,
                "end_time": 32.361363636363635,
                "pitch": 44,
                "velocity": 64,
                "duration": 0.17727272727272947,
                "tempo": 120.0
            },
            {
                "start_time": 32.36363636363636,
                "end_time": 32.55,
                "pitch": 41,
                "velocity": 64,
                "duration": 0.1863636363636374,
                "tempo": 120.0
            },
            {
                "start_time": 32.55227272727272,
                "end_time": 32.74090909090909,
                "pitch": 39,
                "velocity": 64,
                "duration": 0.1886363636363697,
                "tempo": 120.0
            },
            {
                "start_time": 32.74318181818182,
                "end_time": 32.925,
                "pitch": 38,
                "velocity": 64,
                "duration": 0.18181818181817988,
                "tempo": 120.0
            },
            {
                "start_time": 32.92727272727272,
                "end_time": 33.10909090909091,
                "pitch": 39,
                "velocity": 64,
                "duration": 0.18181818181818699,
                "tempo": 120.0
            },
            {
                "start_time": 33.111363636363635,
                "end_time": 33.288636363636364,
                "pitch": 43,
                "velocity": 64,
                "duration": 0.17727272727272947,
                "tempo": 120.0
            },
            {
                "start_time": 33.288636363636364,
                "end_time": 33.46818181818182,
                "pitch": 44,
                "velocity": 64,
                "duration": 0.17954545454545467,
                "tempo": 120.0
            },
            {
                "start_time": 33.470454545454544,
                "end_time": 33.65,
                "pitch": 41,
                "velocity": 64,
                "duration": 0.17954545454545467,
                "tempo": 120.0
            },
            {
                "start_time": 33.652272727272724,
                "end_time": 33.83409090909091,
                "pitch": 39,
                "velocity": 64,
                "duration": 0.18181818181818699,
                "tempo": 120.0
            },
            {
                "start_time": 33.836363636363636,
                "end_time": 34.018181818181816,
                "pitch": 38,
                "velocity": 64,
                "duration": 0.18181818181817988,
                "tempo": 120.0
            },
            {
                "start_time": 34.02045454545454,
                "end_time": 34.20227272727273,
                "pitch": 39,
                "velocity": 64,
                "duration": 0.18181818181818699,
                "tempo": 120.0
            },
            {
                "start_time": 34.20454545454545,
                "end_time": 34.38181818181818,
                "pitch": 43,
                "velocity": 64,
                "duration": 0.17727272727272947,
                "tempo": 120.0
            },
            {
                "start_time": 34.38409090909091,
                "end_time": 34.56136363636364,
                "pitch": 44,
                "velocity": 64,
                "duration": 0.17727272727272947,
                "tempo": 120.0
            },
            {
                "start_time": 34.56136363636364,
                "end_time": 34.74318181818182,
                "pitch": 41,
                "velocity": 64,
                "duration": 0.18181818181817988,
                "tempo": 120.0
            },
            {
                "start_time": 34.74545454545454,
                "end_time": 34.92727272727272,
                "pitch": 39,
                "velocity": 64,
                "duration": 0.18181818181817988,
                "tempo": 120.0
            },
            {
                "start_time": 34.929545454545455,
                "end_time": 35.111363636363635,
                "pitch": 38,
                "velocity": 64,
                "duration": 0.18181818181817988,
                "tempo": 120.0
            },
            {
                "start_time": 35.11363636363636,
                "end_time": 35.29545454545455,
                "pitch": 39,
                "velocity": 64,
                "duration": 0.18181818181818699,
                "tempo": 120.0
            },
            {
                "start_time": 35.29772727272727,
                "end_time": 35.475,
                "pitch": 43,
                "velocity": 64,
                "duration": 0.17727272727272947,
                "tempo": 120.0
            },
            {
                "start_time": 35.47727272727273,
                "end_time": 35.654545454545456,
                "pitch": 44,
                "velocity": 64,
                "duration": 0.17727272727272947,
                "tempo": 120.0
            },
            {
                "start_time": 35.65681818181818,
                "end_time": 35.83863636363636,
                "pitch": 41,
                "velocity": 64,
                "duration": 0.18181818181817988,
                "tempo": 120.0
            },
            {
                "start_time": 35.83863636363636,
                "end_time": 36.02045454545454,
                "pitch": 39,
                "velocity": 64,
                "duration": 0.18181818181817988,
                "tempo": 120.0
            },
            {
                "start_time": 36.02272727272727,
                "end_time": 36.20454545454545,
                "pitch": 38,
                "velocity": 64,
                "duration": 0.18181818181817988,
                "tempo": 120.0
            },
            {
                "start_time": 36.20681818181818,
                "end_time": 36.38863636363636,
                "pitch": 39,
                "velocity": 64,
                "duration": 0.18181818181817988,
                "tempo": 120.0
            },
            {
                "start_time": 36.39090909090909,
                "end_time": 36.57272727272727,
                "pitch": 39,
                "velocity": 64,
                "duration": 0.18181818181817988,
                "tempo": 120.0
            },
            {
                "start_time": 36.574999999999996,
                "end_time": 36.75681818181818,
                "pitch": 41,
                "velocity": 64,
                "duration": 0.18181818181818699,
                "tempo": 120.0
            },
            {
                "start_time": 36.75681818181818,
                "end_time": 36.93636363636364,
                "pitch": 39,
                "velocity": 64,
                "duration": 0.17954545454545467,
                "tempo": 120.0
            },
            {
                "start_time": 36.93636363636364,
                "end_time": 37.11590909090909,
                "pitch": 38,
                "velocity": 64,
                "duration": 0.17954545454545467,
                "tempo": 120.0
            },
            {
                "start_time": 37.11590909090909,
                "end_time": 37.29772727272727,
                "pitch": 36,
                "velocity": 64,
                "duration": 0.18181818181817988,
                "tempo": 120.0
            },
            {
                "start_time": 37.3,
                "end_time": 37.48181818181818,
                "pitch": 38,
                "velocity": 64,
                "duration": 0.18181818181817988,
                "tempo": 120.0
            },
            {
                "start_time": 37.48409090909091,
                "end_time": 37.66590909090909,
                "pitch": 39,
                "velocity": 64,
                "duration": 0.18181818181817988,
                "tempo": 120.0
            },
            {
                "start_time": 37.668181818181814,
                "end_time": 37.85,
                "pitch": 41,
                "velocity": 64,
                "duration": 0.18181818181818699,
                "tempo": 120.0
            },
            {
                "start_time": 37.85227272727273,
                "end_time": 38.029545454545456,
                "pitch": 39,
                "velocity": 64,
                "duration": 0.17727272727272947,
                "tempo": 120.0
            },
            {
                "start_time": 38.029545454545456,
                "end_time": 38.20909090909091,
                "pitch": 38,
                "velocity": 64,
                "duration": 0.17954545454545467,
                "tempo": 120.0
            },
            {
                "start_time": 38.20909090909091,
                "end_time": 38.39090909090909,
                "pitch": 36,
                "velocity": 64,
                "duration": 0.18181818181817988,
                "tempo": 120.0
            },
            {
                "start_time": 38.393181818181816,
                "end_time": 38.574999999999996,
                "pitch": 38,
                "velocity": 64,
                "duration": 0.18181818181817988,
                "tempo": 120.0
            },
            {
                "start_time": 38.57727272727273,
                "end_time": 38.75909090909091,
                "pitch": 39,
                "velocity": 64,
                "duration": 0.18181818181817988,
                "tempo": 120.0
            },
            {
                "start_time": 38.76136363636363,
                "end_time": 38.94318181818181,
                "pitch": 41,
                "velocity": 64,
                "duration": 0.18181818181817988,
                "tempo": 120.0
            },
            {
                "start_time": 38.945454545454545,
                "end_time": 39.127272727272725,
                "pitch": 39,
                "velocity": 64,
                "duration": 0.18181818181817988,
                "tempo": 120.0
            },
            {
                "start_time": 39.12954545454545,
                "end_time": 39.31136363636364,
                "pitch": 38,
                "velocity": 64,
                "duration": 0.18181818181818699,
                "tempo": 120.0
            },
            {
                "start_time": 39.31363636363636,
                "end_time": 39.49318181818182,
                "pitch": 36,
                "velocity": 64,
                "duration": 0.17954545454545467,
                "tempo": 120.0
            },
            {
                "start_time": 39.49545454545454,
                "end_time": 39.67727272727272,
                "pitch": 38,
                "velocity": 64,
                "duration": 0.18181818181817988,
                "tempo": 120.0
            },
            {
                "start_time": 39.679545454545455,
                "end_time": 39.85681818181818,
                "pitch": 39,
                "velocity": 64,
                "duration": 0.17727272727272236,
                "tempo": 120.0
            },
            {
                "start_time": 39.85909090909091,
                "end_time": 40.03636363636363,
                "pitch": 41,
                "velocity": 64,
                "duration": 0.17727272727272236,
                "tempo": 120.0
            },
            {
                "start_time": 40.038636363636364,
                "end_time": 40.215909090909086,
                "pitch": 39,
                "velocity": 64,
                "duration": 0.17727272727272236,
                "tempo": 120.0
            },
            {
                "start_time": 40.21818181818182,
                "end_time": 40.39545454545454,
                "pitch": 38,
                "velocity": 64,
                "duration": 0.17727272727272236,
                "tempo": 120.0
            },
            {
                "start_time": 40.39772727272727,
                "end_time": 40.57954545454545,
                "pitch": 36,
                "velocity": 64,
                "duration": 0.18181818181817988,
                "tempo": 120.0
            },
            {
                "start_time": 40.57954545454545,
                "end_time": 40.76363636363636,
                "pitch": 38,
                "velocity": 64,
                "duration": 0.18409090909090509,
                "tempo": 120.0
            },
            {
                "start_time": 40.76590909090909,
                "end_time": 40.945454545454545,
                "pitch": 43,
                "velocity": 64,
                "duration": 0.17954545454545467,
                "tempo": 120.0
            },
            {
                "start_time": 40.94772727272727,
                "end_time": 41.12954545454545,
                "pitch": 44,
                "velocity": 64,
                "duration": 0.18181818181817988,
                "tempo": 120.0
            },
            {
                "start_time": 41.13181818181818,
                "end_time": 41.31363636363636,
                "pitch": 41,
                "velocity": 64,
                "duration": 0.18181818181817988,
                "tempo": 120.0
            },
            {
                "start_time": 41.31590909090909,
                "end_time": 41.49772727272727,
                "pitch": 39,
                "velocity": 64,
                "duration": 0.18181818181817988,
                "tempo": 120.0
            },
            {
                "start_time": 41.5,
                "end_time": 41.68181818181818,
                "pitch": 38,
                "velocity": 64,
                "duration": 0.18181818181817988,
                "tempo": 120.0
            },
            {
                "start_time": 41.68181818181818,
                "end_time": 41.86590909090909,
                "pitch": 39,
                "velocity": 64,
                "duration": 0.1840909090909122,
                "tempo": 120.0
            },
            {
                "start_time": 41.86590909090909,
                "end_time": 42.043181818181814,
                "pitch": 43,
                "velocity": 64,
                "duration": 0.17727272727272236,
                "tempo": 120.0
            },
            {
                "start_time": 42.04545454545455,
                "end_time": 42.22272727272727,
                "pitch": 44,
                "velocity": 64,
                "duration": 0.17727272727272236,
                "tempo": 120.0
            },
            {
                "start_time": 42.225,
                "end_time": 42.40681818181818,
                "pitch": 41,
                "velocity": 64,
                "duration": 0.18181818181817988,
                "tempo": 120.0
            },
            {
                "start_time": 42.40909090909091,
                "end_time": 42.590909090909086,
                "pitch": 39,
                "velocity": 64,
                "duration": 0.18181818181817988,
                "tempo": 120.0
            },
            {
                "start_time": 42.59318181818182,
                "end_time": 42.775,
                "pitch": 38,
                "velocity": 64,
                "duration": 0.18181818181817988,
                "tempo": 120.0
            },
            {
                "start_time": 42.777272727272724,
                "end_time": 42.959090909090904,
                "pitch": 39,
                "velocity": 64,
                "duration": 0.18181818181817988,
                "tempo": 120.0
            },
            {
                "start_time": 42.961363636363636,
                "end_time": 43.13863636363636,
                "pitch": 43,
                "velocity": 64,
                "duration": 0.17727272727272236,
                "tempo": 120.0
            },
            {
                "start_time": 43.13863636363636,
                "end_time": 43.31590909090909,
                "pitch": 44,
                "velocity": 64,
                "duration": 0.17727272727272947,
                "tempo": 120.0
            },
            {
                "start_time": 43.31818181818181,
                "end_time": 43.5,
                "pitch": 41,
                "velocity": 64,
                "duration": 0.18181818181818699,
                "tempo": 120.0
            },
            {
                "start_time": 43.502272727272725,
                "end_time": 43.684090909090905,
                "pitch": 39,
                "velocity": 64,
                "duration": 0.18181818181817988,
                "tempo": 120.0
            },
            {
                "start_time": 43.68636363636364,
                "end_time": 43.86818181818182,
                "pitch": 38,
                "velocity": 64,
                "duration": 0.18181818181817988,
                "tempo": 120.0
            },
            {
                "start_time": 43.87045454545454,
                "end_time": 44.05227272727272,
                "pitch": 39,
                "velocity": 64,
                "duration": 0.18181818181817988,
                "tempo": 120.0
            },
            {
                "start_time": 44.054545454545455,
                "end_time": 44.23409090909091,
                "pitch": 43,
                "velocity": 64,
                "duration": 0.17954545454545467,
                "tempo": 120.0
            },
            {
                "start_time": 44.236363636363635,
                "end_time": 44.418181818181814,
                "pitch": 44,
                "velocity": 64,
                "duration": 0.18181818181817988,
                "tempo": 120.0
            },
            {
                "start_time": 44.42045454545455,
                "end_time": 44.59772727272727,
                "pitch": 41,
                "velocity": 64,
                "duration": 0.17727272727272236,
                "tempo": 120.0
            },
            {
                "start_time": 44.599999999999994,
                "end_time": 44.777272727272724,
                "pitch": 39,
                "velocity": 64,
                "duration": 0.17727272727272947,
                "tempo": 120.0
            },
            {
                "start_time": 44.77954545454545,
                "end_time": 44.961363636363636,
                "pitch": 38,
                "velocity": 64,
                "duration": 0.18181818181818699,
                "tempo": 120.0
            },
            {
                "start_time": 44.96363636363636,
                "end_time": 45.14545454545454,
                "pitch": 39,
                "velocity": 64,
                "duration": 0.18181818181817988,
                "tempo": 120.0
            },
            {
                "start_time": 45.14772727272727,
                "end_time": 45.32954545454545,
                "pitch": 39,
                "velocity": 64,
                "duration": 0.18181818181817988,
                "tempo": 120.0
            },
            {
                "start_time": 45.32954545454545,
                "end_time": 45.51136363636363,
                "pitch": 41,
                "velocity": 64,
                "duration": 0.18181818181817988,
                "tempo": 120.0
            },
            {
                "start_time": 45.51363636363636,
                "end_time": 45.69090909090909,
                "pitch": 39,
                "velocity": 64,
                "duration": 0.17727272727272947,
                "tempo": 120.0
            },
            {
                "start_time": 45.69318181818181,
                "end_time": 45.87045454545454,
                "pitch": 38,
                "velocity": 64,
                "duration": 0.17727272727272947,
                "tempo": 120.0
            },
            {
                "start_time": 45.87272727272727,
                "end_time": 46.054545454545455,
                "pitch": 36,
                "velocity": 64,
                "duration": 0.18181818181818699,
                "tempo": 120.0
            },
            {
                "start_time": 46.05681818181818,
                "end_time": 46.23863636363636,
                "pitch": 38,
                "velocity": 64,
                "duration": 0.18181818181817988,
                "tempo": 120.0
            },
            {
                "start_time": 46.24090909090909,
                "end_time": 46.42272727272727,
                "pitch": 39,
                "velocity": 64,
                "duration": 0.18181818181817988,
                "tempo": 120.0
            },
            {
                "start_time": 46.425,
                "end_time": 46.60681818181818,
                "pitch": 41,
                "velocity": 64,
                "duration": 0.18181818181817988,
                "tempo": 120.0
            },
            {
                "start_time": 46.60909090909091,
                "end_time": 46.78409090909091,
                "pitch": 39,
                "velocity": 64,
                "duration": 0.17499999999999716,
                "tempo": 120.0
            },
            {
                "start_time": 46.78636363636363,
                "end_time": 46.96363636363636,
                "pitch": 38,
                "velocity": 64,
                "duration": 0.17727272727272947,
                "tempo": 120.0
            },
            {
                "start_time": 46.965909090909086,
                "end_time": 47.14772727272727,
                "pitch": 36,
                "velocity": 64,
                "duration": 0.18181818181818699,
                "tempo": 120.0
            },
            {
                "start_time": 47.15,
                "end_time": 47.33181818181818,
                "pitch": 38,
                "velocity": 64,
                "duration": 0.18181818181817988,
                "tempo": 120.0
            },
            {
                "start_time": 47.334090909090904,
                "end_time": 47.51590909090909,
                "pitch": 39,
                "velocity": 64,
                "duration": 0.18181818181818699,
                "tempo": 120.0
            },
            {
                "start_time": 47.518181818181816,
                "end_time": 47.699999999999996,
                "pitch": 41,
                "velocity": 64,
                "duration": 0.18181818181817988,
                "tempo": 120.0
            },
            {
                "start_time": 47.699999999999996,
                "end_time": 47.88181818181818,
                "pitch": 39,
                "velocity": 64,
                "duration": 0.18181818181818699,
                "tempo": 120.0
            },
            {
                "start_time": 47.88409090909091,
                "end_time": 48.06590909090909,
                "pitch": 38,
                "velocity": 64,
                "duration": 0.18181818181817988,
                "tempo": 120.0
            },
            {
                "start_time": 48.06818181818181,
                "end_time": 48.25,
                "pitch": 36,
                "velocity": 64,
                "duration": 0.18181818181818699,
                "tempo": 120.0
            },
            {
                "start_time": 48.252272727272725,
                "end_time": 48.434090909090905,
                "pitch": 38,
                "velocity": 64,
                "duration": 0.18181818181817988,
                "tempo": 120.0
            },
            {
                "start_time": 48.43636363636364,
                "end_time": 48.61363636363636,
                "pitch": 39,
                "velocity": 64,
                "duration": 0.17727272727272236,
                "tempo": 120.0
            },
            {
                "start_time": 48.61590909090909,
                "end_time": 48.793181818181814,
                "pitch": 41,
                "velocity": 64,
                "duration": 0.17727272727272236,
                "tempo": 120.0
            },
            {
                "start_time": 48.79545454545454,
                "end_time": 48.97727272727273,
                "pitch": 39,
                "velocity": 64,
                "duration": 0.18181818181818699,
                "tempo": 120.0
            },
            {
                "start_time": 48.97727272727273,
                "end_time": 49.15909090909091,
                "pitch": 38,
                "velocity": 64,
                "duration": 0.18181818181817988,
                "tempo": 120.0
            },
            {
                "start_time": 49.16136363636363,
                "end_time": 49.33863636363636,
                "pitch": 36,
                "velocity": 64,
                "duration": 0.17727272727272947,
                "tempo": 120.0
            },
            {
                "start_time": 49.340909090909086,
                "end_time": 49.52045454545454,
                "pitch": 38,
                "velocity": 64,
                "duration": 0.17954545454545467,
                "tempo": 120.0
            },
            {
                "start_time": 49.52272727272727,
                "end_time": 49.70227272727273,
                "pitch": 43,
                "velocity": 101,
                "duration": 0.17954545454545467,
                "tempo": 120.0
            },
            {
                "start_time": 49.70454545454545,
                "end_time": 49.88636363636363,
                "pitch": 44,
                "velocity": 101,
                "duration": 0.18181818181817988,
                "tempo": 120.0
            },
            {
                "start_time": 49.88863636363636,
                "end_time": 50.06590909090909,
                "pitch": 41,
                "velocity": 101,
                "duration": 0.17727272727272947,
                "tempo": 120.0
            },
            {
                "start_time": 50.06590909090909,
                "end_time": 50.24545454545454,
                "pitch": 39,
                "velocity": 101,
                "duration": 0.17954545454545467,
                "tempo": 120.0
            },
            {
                "start_time": 50.24545454545454,
                "end_time": 50.42727272727272,
                "pitch": 38,
                "velocity": 101,
                "duration": 0.18181818181817988,
                "tempo": 120.0
            },
            {
                "start_time": 50.429545454545455,
                "end_time": 50.611363636363635,
                "pitch": 39,
                "velocity": 101,
                "duration": 0.18181818181817988,
                "tempo": 120.0
            },
            {
                "start_time": 50.61363636363636,
                "end_time": 50.79545454545454,
                "pitch": 43,
                "velocity": 101,
                "duration": 0.18181818181817988,
                "tempo": 120.0
            },
            {
                "start_time": 50.79772727272727,
                "end_time": 50.97954545454545,
                "pitch": 44,
                "velocity": 101,
                "duration": 0.18181818181817988,
                "tempo": 120.0
            },
            {
                "start_time": 50.98181818181818,
                "end_time": 51.163636363636364,
                "pitch": 41,
                "velocity": 101,
                "duration": 0.18181818181818699,
                "tempo": 120.0
            },
            {
                "start_time": 51.16590909090909,
                "end_time": 51.345454545454544,
                "pitch": 39,
                "velocity": 101,
                "duration": 0.17954545454545467,
                "tempo": 120.0
            },
            {
                "start_time": 51.34772727272727,
                "end_time": 51.525,
                "pitch": 38,
                "velocity": 101,
                "duration": 0.17727272727272947,
                "tempo": 120.0
            },
            {
                "start_time": 51.527272727272724,
                "end_time": 51.70454545454545,
                "pitch": 39,
                "velocity": 101,
                "duration": 0.17727272727272947,
                "tempo": 120.0
            },
            {
                "start_time": 51.70681818181818,
                "end_time": 51.88863636363636,
                "pitch": 43,
                "velocity": 101,
                "duration": 0.18181818181817988,
                "tempo": 120.0
            },
            {
                "start_time": 51.89090909090909,
                "end_time": 52.07272727272727,
                "pitch": 44,
                "velocity": 101,
                "duration": 0.18181818181817988,
                "tempo": 120.0
            },
            {
                "start_time": 52.074999999999996,
                "end_time": 52.25681818181818,
                "pitch": 41,
                "velocity": 101,
                "duration": 0.18181818181818699,
                "tempo": 120.0
            },
            {
                "start_time": 52.25909090909091,
                "end_time": 52.44090909090909,
                "pitch": 39,
                "velocity": 101,
                "duration": 0.18181818181817988,
                "tempo": 120.0
            },
            {
                "start_time": 52.44318181818181,
                "end_time": 52.62272727272727,
                "pitch": 38,
                "velocity": 101,
                "duration": 0.17954545454545467,
                "tempo": 120.0
            },
            {
                "start_time": 52.625,
                "end_time": 52.80681818181818,
                "pitch": 39,
                "velocity": 101,
                "duration": 0.18181818181817988,
                "tempo": 120.0
            },
            {
                "start_time": 52.809090909090905,
                "end_time": 52.986363636363635,
                "pitch": 43,
                "velocity": 101,
                "duration": 0.17727272727272947,
                "tempo": 120.0
            },
            {
                "start_time": 52.98863636363636,
                "end_time": 53.16590909090909,
                "pitch": 44,
                "velocity": 101,
                "duration": 0.17727272727272947,
                "tempo": 120.0
            },
            {
                "start_time": 53.168181818181814,
                "end_time": 53.349999999999994,
                "pitch": 41,
                "velocity": 101,
                "duration": 0.18181818181817988,
                "tempo": 120.0
            },
            {
                "start_time": 53.35227272727273,
                "end_time": 53.53409090909091,
                "pitch": 39,
                "velocity": 101,
                "duration": 0.18181818181817988,
                "tempo": 120.0
            },
            {
                "start_time": 53.53636363636363,
                "end_time": 53.71818181818182,
                "pitch": 38,
                "velocity": 101,
                "duration": 0.18181818181818699,
                "tempo": 120.0
            },
            {
                "start_time": 53.720454545454544,
                "end_time": 53.9,
                "pitch": 39,
                "velocity": 101,
                "duration": 0.17954545454545467,
                "tempo": 120.0
            },
            {
                "start_time": 53.902272727272724,
                "end_time": 54.07954545454545,
                "pitch": 39,
                "velocity": 101,
                "duration": 0.17727272727272947,
                "tempo": 120.0
            },
            {
                "start_time": 54.08181818181818,
                "end_time": 54.25909090909091,
                "pitch": 41,
                "velocity": 101,
                "duration": 0.17727272727272947,
                "tempo": 120.0
            },
            {
                "start_time": 54.26136363636363,
                "end_time": 54.44318181818181,
                "pitch": 39,
                "velocity": 101,
                "duration": 0.18181818181817988,
                "tempo": 120.0
            },
            {
                "start_time": 54.445454545454545,
                "end_time": 54.627272727272725,
                "pitch": 38,
                "velocity": 101,
                "duration": 0.18181818181817988,
                "tempo": 120.0
            },
            {
                "start_time": 54.62954545454545,
                "end_time": 54.81136363636363,
                "pitch": 36,
                "velocity": 101,
                "duration": 0.18181818181817988,
                "tempo": 120.0
            },
            {
                "start_time": 54.81136363636363,
                "end_time": 54.99318181818182,
                "pitch": 38,
                "velocity": 101,
                "duration": 0.18181818181818699,
                "tempo": 120.0
            },
            {
                "start_time": 54.99545454545454,
                "end_time": 55.17727272727272,
                "pitch": 39,
                "velocity": 101,
                "duration": 0.18181818181817988,
                "tempo": 120.0
            },
            {
                "start_time": 55.179545454545455,
                "end_time": 55.361363636363635,
                "pitch": 41,
                "velocity": 101,
                "duration": 0.18181818181817988,
                "tempo": 120.0
            },
            {
                "start_time": 55.36363636363636,
                "end_time": 55.54090909090909,
                "pitch": 39,
                "velocity": 101,
                "duration": 0.17727272727272947,
                "tempo": 120.0
            },
            {
                "start_time": 55.543181818181814,
                "end_time": 55.720454545454544,
                "pitch": 38,
                "velocity": 101,
                "duration": 0.17727272727272947,
                "tempo": 120.0
            },
            {
                "start_time": 55.72272727272727,
                "end_time": 55.90454545454545,
                "pitch": 36,
                "velocity": 101,
                "duration": 0.18181818181817988,
                "tempo": 120.0
            },
            {
                "start_time": 55.90681818181818,
                "end_time": 56.08863636363636,
                "pitch": 38,
                "velocity": 101,
                "duration": 0.18181818181817988,
                "tempo": 120.0
            },
            {
                "start_time": 56.090909090909086,
                "end_time": 56.26590909090909,
                "pitch": 39,
                "velocity": 101,
                "duration": 0.17500000000000426,
                "tempo": 120.0
            },
            {
                "start_time": 56.268181818181816,
                "end_time": 56.445454545454545,
                "pitch": 41,
                "velocity": 101,
                "duration": 0.17727272727272947,
                "tempo": 120.0
            },
            {
                "start_time": 56.44772727272727,
                "end_time": 56.62954545454545,
                "pitch": 39,
                "velocity": 101,
                "duration": 0.18181818181817988,
                "tempo": 120.0
            },
            {
                "start_time": 56.631818181818176,
                "end_time": 56.81363636363636,
                "pitch": 38,
                "velocity": 101,
                "duration": 0.18181818181818699,
                "tempo": 120.0
            },
            {
                "start_time": 56.81590909090909,
                "end_time": 56.99772727272727,
                "pitch": 36,
                "velocity": 101,
                "duration": 0.18181818181817988,
                "tempo": 120.0
            },
            {
                "start_time": 57.0,
                "end_time": 57.18181818181818,
                "pitch": 38,
                "velocity": 101,
                "duration": 0.18181818181817988,
                "tempo": 120.0
            },
            {
                "start_time": 57.184090909090905,
                "end_time": 57.36363636363636,
                "pitch": 39,
                "velocity": 101,
                "duration": 0.17954545454545467,
                "tempo": 120.0
            },
            {
                "start_time": 57.365909090909085,
                "end_time": 57.54772727272727,
                "pitch": 41,
                "velocity": 101,
                "duration": 0.18181818181818699,
                "tempo": 120.0
            },
            {
                "start_time": 57.55,
                "end_time": 57.72727272727273,
                "pitch": 39,
                "velocity": 101,
                "duration": 0.17727272727272947,
                "tempo": 120.0
            },
            {
                "start_time": 57.72954545454545,
                "end_time": 57.90681818181818,
                "pitch": 38,
                "velocity": 101,
                "duration": 0.17727272727272947,
                "tempo": 120.0
            },
            {
                "start_time": 57.90909090909091,
                "end_time": 58.090909090909086,
                "pitch": 36,
                "velocity": 101,
                "duration": 0.18181818181817988,
                "tempo": 120.0
            },
            {
                "start_time": 58.09318181818182,
                "end_time": 58.27272727272727,
                "pitch": 38,
                "velocity": 101,
                "duration": 0.17954545454545467,
                "tempo": 120.0
            },
            {
                "start_time": 58.27954545454545,
                "end_time": 58.45227272727272,
                "pitch": 43,
                "velocity": 64,
                "duration": 0.17272727272727195,
                "tempo": 120.0
            },
            {
                "start_time": 58.45454545454545,
                "end_time": 58.631818181818176,
                "pitch": 44,
                "velocity": 64,
                "duration": 0.17727272727272236,
                "tempo": 120.0
            }
        ]
    }
}