{
    "track_id": "13 Stage 8",
    "mood": "angry",
    "instruments": {
        "Clarinet": [
            {
                "start_time": 11.649999999999999,
                "end_time": 12.375,
                "pitch": 63,
                "velocity": 80,
                "duration": 0.7250000000000014,
                "tempo": 120.0
            },
            {
                "start_time": 12.375,
                "end_time": 12.752272727272727,
                "pitch": 67,
                "velocity": 80,
                "duration": 0.377272727272727,
                "tempo": 120.0
            },
            {
                "start_time": 12.752272727272727,
                "end_time": 13.113636363636363,
                "pitch": 63,
                "velocity": 80,
                "duration": 0.36136363636363633,
                "tempo": 120.0
            },
            {
                "start_time": 13.113636363636363,
                "end_time": 13.290909090909091,
                "pitch": 65,
                "velocity": 80,
                "duration": 0.1772727272727277,
                "tempo": 120.0
            },
            {
                "start_time": 13.290909090909091,
                "end_time": 13.470454545454546,
                "pitch": 63,
                "velocity": 80,
                "duration": 0.17954545454545467,
                "tempo": 120.0
            },
            {
                "start_time": 13.472727272727273,
                "end_time": 13.659090909090908,
                "pitch": 62,
                "velocity": 80,
                "duration": 0.18636363636363562,
                "tempo": 120.0
            },
            {
                "start_time": 13.659090909090908,
                "end_time": 13.847727272727273,
                "pitch": 60,
                "velocity": 80,
                "duration": 0.18863636363636438,
                "tempo": 120.0
            },
            {
                "start_time": 13.85,
                "end_time": 14.559090909090909,
                "pitch": 62,
                "velocity": 80,
                "duration": 0.709090909090909,
                "tempo": 120.0
            },
            {
                "start_time": 14.559090909090909,
                "end_time": 15.10681818181818,
                "pitch": 60,
                "velocity": 80,
                "duration": 0.547727272727272,
                "tempo": 120.0
            },
            {
                "start_time": 15.10681818181818,
                "end_time": 15.209090909090909,
                "pitch": 59,
                "velocity": 80,
                "duration": 0.1022727272727284,
                "tempo": 120.0
            },
            {
                "start_time": 15.209090909090909,
                "end_time": 15.297727272727272,
                "pitch": 60,
                "velocity": 80,
                "duration": 0.08863636363636296,
                "tempo": 120.0
            },
            {
                "start_time": 15.297727272727272,
                "end_time": 15.843181818181817,
                "pitch": 62,
                "velocity": 80,
                "duration": 0.545454545454545,
                "tempo": 120.0
            },
            {
                "start_time": 15.843181818181817,
                "end_time": 15.927272727272726,
                "pitch": 60,
                "velocity": 80,
                "duration": 0.084090909090909,
                "tempo": 120.0
            },
            {
                "start_time": 15.927272727272726,
                "end_time": 16.03181818181818,
                "pitch": 62,
                "velocity": 80,
                "duration": 0.10454545454545539,
                "tempo": 120.0
            },
            {
                "start_time": 16.03181818181818,
                "end_time": 16.74090909090909,
                "pitch": 63,
                "velocity": 80,
                "duration": 0.7090909090909072,
                "tempo": 120.0
            },
            {
                "start_time": 16.74090909090909,
                "end_time": 17.118181818181817,
                "pitch": 60,
                "velocity": 80,
                "duration": 0.37727272727272876,
                "tempo": 120.0
            },
            {
                "start_time": 17.118181818181817,
                "end_time": 17.479545454545455,
                "pitch": 62,
                "velocity": 80,
                "duration": 0.3613636363636381,
                "tempo": 120.0
            },
            {
                "start_time": 17.479545454545455,
                "end_time": 18.21590909090909,
                "pitch": 63,
                "velocity": 80,
                "duration": 0.7363636363636346,
                "tempo": 120.0
            },
            {
                "start_time": 18.21590909090909,
                "end_time": 18.584090909090907,
                "pitch": 67,
                "velocity": 80,
                "duration": 0.3681818181818173,
                "tempo": 120.0
            },
            {
                "start_time": 18.584090909090907,
                "end_time": 18.943181818181817,
                "pitch": 63,
                "velocity": 80,
                "duration": 0.35909090909090935,
                "tempo": 120.0
            },
            {
                "start_time": 18.943181818181817,
                "end_time": 19.12272727272727,
                "pitch": 65,
                "velocity": 80,
                "duration": 0.17954545454545467,
                "tempo": 120.0
            },
            {
                "start_time": 19.12272727272727,
                "end_time": 19.3,
                "pitch": 63,
                "velocity": 80,
                "duration": 0.17727272727272947,
                "tempo": 120.0
            },
            {
                "start_time": 19.3,
                "end_time": 19.49090909090909,
                "pitch": 62,
                "velocity": 80,
                "duration": 0.1909090909090878,
                "tempo": 120.0
            },
            {
                "start_time": 19.49090909090909,
                "end_time": 19.677272727272726,
                "pitch": 60,
                "velocity": 80,
                "duration": 0.1863636363636374,
                "tempo": 120.0
            },
            {
                "start_time": 19.677272727272726,
                "end_time": 20.029545454545453,
                "pitch": 62,
                "velocity": 80,
                "duration": 0.3522727272727266,
                "tempo": 120.0
            },
            {
                "start_time": 20.029545454545453,
                "end_time": 20.4,
                "pitch": 67,
                "velocity": 80,
                "duration": 0.37045454545454604,
                "tempo": 120.0
            },
            {
                "start_time": 20.4,
                "end_time": 21.127272727272725,
                "pitch": 63,
                "velocity": 80,
                "duration": 0.7272727272727266,
                "tempo": 120.0
            },
            {
                "start_time": 21.127272727272725,
                "end_time": 21.370454545454546,
                "pitch": 67,
                "velocity": 80,
                "duration": 0.24318181818182083,
                "tempo": 120.0
            },
            {
                "start_time": 21.370454545454546,
                "end_time": 21.604545454545452,
                "pitch": 65,
                "velocity": 80,
                "duration": 0.2340909090909058,
                "tempo": 120.0
            },
            {
                "start_time": 21.604545454545452,
                "end_time": 21.863636363636363,
                "pitch": 62,
                "velocity": 80,
                "duration": 0.2590909090909115,
                "tempo": 120.0
            },
            {
                "start_time": 21.863636363636363,
                "end_time": 23.302272727272726,
                "pitch": 59,
                "velocity": 80,
                "duration": 1.4386363636363626,
                "tempo": 120.0
            }
        ],
        "French Horn": [
            {
                "start_time": 0.006818181818181818,
                "end_time": 0.7113636363636363,
                "pitch": 55,
                "velocity": 64,
                "duration": 0.7045454545454545,
                "tempo": 120.0
            },
            {
                "start_time": 0.7113636363636363,
                "end_time": 1.440909090909091,
                "pitch": 55,
                "velocity": 64,
                "duration": 0.7295454545454546,
                "tempo": 120.0
            },
            {
                "start_time": 1.440909090909091,
                "end_time": 1.809090909090909,
                "pitch": 56,
                "velocity": 64,
                "duration": 0.36818181818181817,
                "tempo": 120.0
            },
            {
                "start_time": 1.809090909090909,
                "end_time": 1.9931818181818182,
                "pitch": 60,
                "velocity": 64,
                "duration": 0.18409090909090908,
                "tempo": 120.0
            },
            {
                "start_time": 1.9931818181818182,
                "end_time": 2.8954545454545455,
                "pitch": 63,
                "velocity": 64,
                "duration": 0.9022727272727273,
                "tempo": 120.0
            },
            {
                "start_time": 2.8954545454545455,
                "end_time": 3.2727272727272725,
                "pitch": 58,
                "velocity": 64,
                "duration": 0.377272727272727,
                "tempo": 120.0
            },
            {
                "start_time": 3.2727272727272725,
                "end_time": 3.459090909090909,
                "pitch": 62,
                "velocity": 64,
                "duration": 0.1863636363636365,
                "tempo": 120.0
            },
            {
                "start_time": 3.459090909090909,
                "end_time": 3.993181818181818,
                "pitch": 65,
                "velocity": 64,
                "duration": 0.5340909090909092,
                "tempo": 120.0
            },
            {
                "start_time": 3.993181818181818,
                "end_time": 4.177272727272727,
                "pitch": 63,
                "velocity": 64,
                "duration": 0.18409090909090864,
                "tempo": 120.0
            },
            {
                "start_time": 4.179545454545455,
                "end_time": 4.363636363636363,
                "pitch": 62,
                "velocity": 64,
                "duration": 0.18409090909090864,
                "tempo": 120.0
            },
            {
                "start_time": 4.363636363636363,
                "end_time": 4.722727272727273,
                "pitch": 63,
                "velocity": 64,
                "duration": 0.35909090909090935,
                "tempo": 120.0
            },
            {
                "start_time": 4.722727272727273,
                "end_time": 4.902272727272727,
                "pitch": 60,
                "velocity": 64,
                "duration": 0.17954545454545467,
                "tempo": 120.0
            },
            {
                "start_time": 4.902272727272727,
                "end_time": 5.8113636363636365,
                "pitch": 67,
                "velocity": 64,
                "duration": 0.9090909090909092,
                "tempo": 120.0
            },
            {
                "start_time": 5.8113636363636365,
                "end_time": 6.545454545454545,
                "pitch": 55,
                "velocity": 64,
                "duration": 0.7340909090909085,
                "tempo": 120.0
            },
            {
                "start_time": 6.545454545454545,
                "end_time": 7.284090909090909,
                "pitch": 55,
                "velocity": 64,
                "duration": 0.7386363636363642,
                "tempo": 120.0
            },
            {
                "start_time": 7.284090909090909,
                "end_time": 7.640909090909091,
                "pitch": 56,
                "velocity": 64,
                "duration": 0.3568181818181815,
                "tempo": 120.0
            },
            {
                "start_time": 7.640909090909091,
                "end_time": 7.827272727272727,
                "pitch": 60,
                "velocity": 64,
                "duration": 0.1863636363636365,
                "tempo": 120.0
            },
            {
                "start_time": 7.827272727272727,
                "end_time": 8.729545454545454,
                "pitch": 63,
                "velocity": 64,
                "duration": 0.9022727272727264,
                "tempo": 120.0
            },
            {
                "start_time": 8.729545454545454,
                "end_time": 9.46590909090909,
                "pitch": 65,
                "velocity": 64,
                "duration": 0.7363636363636363,
                "tempo": 120.0
            },
            {
                "start_time": 9.46590909090909,
                "end_time": 9.822727272727272,
                "pitch": 58,
                "velocity": 64,
                "duration": 0.35681818181818237,
                "tempo": 120.0
            },
            {
                "start_time": 9.822727272727272,
                "end_time": 10.193181818181818,
                "pitch": 62,
                "velocity": 64,
                "duration": 0.37045454545454604,
                "tempo": 120.0
            },
            {
                "start_time": 10.193181818181818,
                "end_time": 10.911363636363635,
                "pitch": 60,
                "velocity": 64,
                "duration": 0.7181818181818169,
                "tempo": 120.0
            }
        ],
        "Trumpet": [
            {
                "start_time": 24.41590909090909,
                "end_time": 24.5,
                "pitch": 72,
                "velocity": 64,
                "duration": 0.08409090909091077,
                "tempo": 120.0
            },
            {
                "start_time": 24.502272727272725,
                "end_time": 24.58863636363636,
                "pitch": 74,
                "velocity": 64,
                "duration": 0.08636363636363598,
                "tempo": 120.0
            },
            {
                "start_time": 24.58863636363636,
                "end_time": 24.69090909090909,
                "pitch": 75,
                "velocity": 64,
                "duration": 0.10227272727273018,
                "tempo": 120.0
            },
            {
                "start_time": 24.69090909090909,
                "end_time": 24.777272727272727,
                "pitch": 77,
                "velocity": 64,
                "duration": 0.08636363636363598,
                "tempo": 120.0
            },
            {
                "start_time": 24.777272727272727,
                "end_time": 30.59090909090909,
                "pitch": 79,
                "velocity": 64,
                "duration": 5.813636363636363,
                "tempo": 120.0
            },
            {
                "start_time": 30.59090909090909,
                "end_time": 30.693181818181817,
                "pitch": 72,
                "velocity": 64,
                "duration": 0.10227272727272663,
                "tempo": 120.0
            },
            {
                "start_time": 30.693181818181817,
                "end_time": 30.779545454545453,
                "pitch": 74,
                "velocity": 64,
                "duration": 0.08636363636363598,
                "tempo": 120.0
            },
            {
                "start_time": 30.779545454545453,
                "end_time": 30.863636363636363,
                "pitch": 75,
                "velocity": 64,
                "duration": 0.08409090909091077,
                "tempo": 120.0
            },
            {
                "start_time": 30.863636363636363,
                "end_time": 30.968181818181815,
                "pitch": 77,
                "velocity": 64,
                "duration": 0.10454545454545183,
                "tempo": 120.0
            },
            {
                "start_time": 30.968181818181815,
                "end_time": 34.975,
                "pitch": 79,
                "velocity": 64,
                "duration": 4.006818181818186,
                "tempo": 120.0
            }
        ],
        "Acoustic Grand Piano": [
            {
                "start_time": 23.670454545454543,
                "end_time": 23.768181818181816,
                "pitch": 72,
                "velocity": 80,
                "duration": 0.09772727272727266,
                "tempo": 120.0
            },
            {
                "start_time": 23.770454545454545,
                "end_time": 23.854545454545452,
                "pitch": 74,
                "velocity": 80,
                "duration": 0.08409090909090722,
                "tempo": 120.0
            },
            {
                "start_time": 23.854545454545452,
                "end_time": 23.936363636363634,
                "pitch": 75,
                "velocity": 80,
                "duration": 0.08181818181818201,
                "tempo": 120.0
            },
            {
                "start_time": 23.936363636363634,
                "end_time": 24.038636363636364,
                "pitch": 77,
                "velocity": 80,
                "duration": 0.10227272727273018,
                "tempo": 120.0
            },
            {
                "start_time": 24.038636363636364,
                "end_time": 25.134090909090908,
                "pitch": 79,
                "velocity": 80,
                "duration": 1.095454545454544,
                "tempo": 120.0
            },
            {
                "start_time": 25.134090909090908,
                "end_time": 25.511363636363637,
                "pitch": 82,
                "velocity": 80,
                "duration": 0.37727272727272876,
                "tempo": 120.0
            },
            {
                "start_time": 25.513636363636362,
                "end_time": 25.863636363636363,
                "pitch": 79,
                "velocity": 80,
                "duration": 0.3500000000000014,
                "tempo": 120.0
            },
            {
                "start_time": 25.863636363636363,
                "end_time": 26.23181818181818,
                "pitch": 74,
                "velocity": 80,
                "duration": 0.3681818181818173,
                "tempo": 120.0
            },
            {
                "start_time": 26.23181818181818,
                "end_time": 26.961363636363636,
                "pitch": 72,
                "velocity": 80,
                "duration": 0.7295454545454554,
                "tempo": 120.0
            },
            {
                "start_time": 26.961363636363636,
                "end_time": 27.320454545454545,
                "pitch": 74,
                "velocity": 80,
                "duration": 0.35909090909090935,
                "tempo": 120.0
            },
            {
                "start_time": 27.320454545454545,
                "end_time": 27.69772727272727,
                "pitch": 75,
                "velocity": 80,
                "duration": 0.3772727272727252,
                "tempo": 120.0
            },
            {
                "start_time": 27.69772727272727,
                "end_time": 28.41590909090909,
                "pitch": 74,
                "velocity": 80,
                "duration": 0.7181818181818187,
                "tempo": 120.0
            },
            {
                "start_time": 28.41590909090909,
                "end_time": 28.784090909090907,
                "pitch": 75,
                "velocity": 80,
                "duration": 0.3681818181818173,
                "tempo": 120.0
            },
            {
                "start_time": 28.784090909090907,
                "end_time": 29.88181818181818,
                "pitch": 77,
                "velocity": 80,
                "duration": 1.0977272727272727,
                "tempo": 120.0
            },
            {
                "start_time": 29.88181818181818,
                "end_time": 29.96363636363636,
                "pitch": 72,
                "velocity": 80,
                "duration": 0.08181818181818201,
                "tempo": 120.0
            },
            {
                "start_time": 29.96363636363636,
                "end_time": 30.065909090909088,
                "pitch": 74,
                "velocity": 80,
                "duration": 0.10227272727272663,
                "tempo": 120.0
            },
            {
                "start_time": 30.065909090909088,
                "end_time": 30.14772727272727,
                "pitch": 75,
                "velocity": 80,
                "duration": 0.08181818181818201,
                "tempo": 120.0
            },
            {
                "start_time": 30.14772727272727,
                "end_time": 30.23181818181818,
                "pitch": 77,
                "velocity": 80,
                "duration": 0.08409090909091077,
                "tempo": 120.0
            },
            {
                "start_time": 30.23181818181818,
                "end_time": 30.968181818181815,
                "pitch": 79,
                "velocity": 80,
                "duration": 0.7363636363636346,
                "tempo": 120.0
            },
            {
                "start_time": 30.968181818181815,
                "end_time": 31.345454545454544,
                "pitch": 82,
                "velocity": 80,
                "duration": 0.37727272727272876,
                "tempo": 120.0
            },
            {
                "start_time": 31.345454545454544,
                "end_time": 31.706818181818182,
                "pitch": 79,
                "velocity": 80,
                "duration": 0.3613636363636381,
                "tempo": 120.0
            },
            {
                "start_time": 31.706818181818182,
                "end_time": 32.06590909090909,
                "pitch": 74,
                "velocity": 80,
                "duration": 0.3590909090909058,
                "tempo": 120.0
            },
            {
                "start_time": 32.06590909090909,
                "end_time": 32.60454545454545,
                "pitch": 72,
                "velocity": 80,
                "duration": 0.538636363636364,
                "tempo": 120.0
            },
            {
                "start_time": 32.60454545454545,
                "end_time": 33.15,
                "pitch": 74,
                "velocity": 80,
                "duration": 0.5454545454545467,
                "tempo": 120.0
            },
            {
                "start_time": 33.15,
                "end_time": 33.529545454545456,
                "pitch": 75,
                "velocity": 80,
                "duration": 0.3795454545454575,
                "tempo": 120.0
            },
            {
                "start_time": 33.529545454545456,
                "end_time": 34.23863636363636,
                "pitch": 74,
                "velocity": 80,
                "duration": 0.7090909090909037,
                "tempo": 120.0
            },
            {
                "start_time": 34.23863636363636,
                "end_time": 34.975,
                "pitch": 71,
                "velocity": 80,
                "duration": 0.7363636363636417,
                "tempo": 120.0
            }
        ],
        "Lead 2 (sawtooth)": [
            {
                "start_time": 0.5363636363636364,
                "end_time": 1.9931818181818182,
                "pitch": 60,
                "velocity": 80,
                "duration": 1.4568181818181818,
                "tempo": 120.0
            },
            {
                "start_time": 1.9931818181818182,
                "end_time": 3.4568181818181816,
                "pitch": 60,
                "velocity": 80,
                "duration": 1.4636363636363634,
                "tempo": 120.0
            },
            {
                "start_time": 3.4568181818181816,
                "end_time": 4.902272727272727,
                "pitch": 62,
                "velocity": 80,
                "duration": 1.4454545454545458,
                "tempo": 120.0
            },
            {
                "start_time": 4.902272727272727,
                "end_time": 6.3545454545454545,
                "pitch": 63,
                "velocity": 80,
                "duration": 1.4522727272727272,
                "tempo": 120.0
            },
            {
                "start_time": 6.3545454545454545,
                "end_time": 7.824999999999999,
                "pitch": 60,
                "velocity": 80,
                "duration": 1.4704545454545448,
                "tempo": 120.0
            },
            {
                "start_time": 7.824999999999999,
                "end_time": 9.293181818181818,
                "pitch": 60,
                "velocity": 80,
                "duration": 1.4681818181818187,
                "tempo": 120.0
            },
            {
                "start_time": 9.293181818181818,
                "end_time": 10.73181818181818,
                "pitch": 62,
                "velocity": 80,
                "duration": 1.4386363636363626,
                "tempo": 120.0
            },
            {
                "start_time": 10.73181818181818,
                "end_time": 11.647727272727272,
                "pitch": 63,
                "velocity": 80,
                "duration": 0.915909090909091,
                "tempo": 120.0
            },
            {
                "start_time": 11.647727272727272,
                "end_time": 12.375,
                "pitch": 55,
                "velocity": 101,
                "duration": 0.7272727272727284,
                "tempo": 120.0
            },
            {
                "start_time": 12.375,
                "end_time": 12.922727272727272,
                "pitch": 58,
                "velocity": 101,
                "duration": 0.547727272727272,
                "tempo": 120.0
            },
            {
                "start_time": 12.924999999999999,
                "end_time": 13.113636363636363,
                "pitch": 63,
                "velocity": 101,
                "duration": 0.18863636363636438,
                "tempo": 120.0
            },
            {
                "start_time": 13.113636363636363,
                "end_time": 14.556818181818182,
                "pitch": 67,
                "velocity": 101,
                "duration": 1.4431818181818183,
                "tempo": 120.0
            },
            {
                "start_time": 14.556818181818182,
                "end_time": 15.295454545454545,
                "pitch": 60,
                "velocity": 101,
                "duration": 0.7386363636363633,
                "tempo": 120.0
            },
            {
                "start_time": 15.295454545454545,
                "end_time": 16.03181818181818,
                "pitch": 62,
                "velocity": 101,
                "duration": 0.7363636363636363,
                "tempo": 120.0
            },
            {
                "start_time": 16.03181818181818,
                "end_time": 17.479545454545455,
                "pitch": 63,
                "velocity": 101,
                "duration": 1.447727272727274,
                "tempo": 120.0
            },
            {
                "start_time": 17.479545454545455,
                "end_time": 18.21363636363636,
                "pitch": 55,
                "velocity": 101,
                "duration": 0.7340909090909058,
                "tempo": 120.0
            },
            {
                "start_time": 18.21363636363636,
                "end_time": 18.754545454545454,
                "pitch": 58,
                "velocity": 101,
                "duration": 0.5409090909090928,
                "tempo": 120.0
            },
            {
                "start_time": 18.754545454545454,
                "end_time": 18.943181818181817,
                "pitch": 63,
                "velocity": 101,
                "duration": 0.1886363636363626,
                "tempo": 120.0
            },
            {
                "start_time": 18.943181818181817,
                "end_time": 20.397727272727273,
                "pitch": 67,
                "velocity": 101,
                "duration": 1.4545454545454568,
                "tempo": 120.0
            },
            {
                "start_time": 20.4,
                "end_time": 21.127272727272725,
                "pitch": 63,
                "velocity": 101,
                "duration": 0.7272727272727266,
                "tempo": 120.0
            },
            {
                "start_time": 21.127272727272725,
                "end_time": 21.675,
                "pitch": 65,
                "velocity": 101,
                "duration": 0.5477272727272755,
                "tempo": 120.0
            },
            {
                "start_time": 21.675,
                "end_time": 21.861363636363635,
                "pitch": 68,
                "velocity": 101,
                "duration": 0.18636363636363384,
                "tempo": 120.0
            },
            {
                "start_time": 21.861363636363635,
                "end_time": 22.095454545454544,
                "pitch": 62,
                "velocity": 101,
                "duration": 0.23409090909090935,
                "tempo": 120.0
            },
            {
                "start_time": 22.095454545454544,
                "end_time": 22.34318181818182,
                "pitch": 67,
                "velocity": 101,
                "duration": 0.2477272727272748,
                "tempo": 120.0
            },
            {
                "start_time": 22.34318181818182,
                "end_time": 22.57272727272727,
                "pitch": 71,
                "velocity": 101,
                "duration": 0.22954545454545183,
                "tempo": 120.0
            },
            {
                "start_time": 22.57272727272727,
                "end_time": 23.299999999999997,
                "pitch": 74,
                "velocity": 101,
                "duration": 0.7272727272727266,
                "tempo": 120.0
            }
        ],
        "Electric Piano 1": [
            {
                "start_time": 0.0022727272727272726,
                "end_time": 0.13863636363636364,
                "pitch": 31,
                "velocity": 64,
                "duration": 0.13636363636363638,
                "tempo": 120.0
            },
            {
                "start_time": 0.175,
                "end_time": 0.32727272727272727,
                "pitch": 31,
                "velocity": 64,
                "duration": 0.15227272727272728,
                "tempo": 120.0
            },
            {
                "start_time": 0.36136363636363633,
                "end_time": 0.5045454545454545,
                "pitch": 31,
                "velocity": 64,
                "duration": 0.1431818181818182,
                "tempo": 120.0
            },
            {
                "start_time": 0.5363636363636364,
                "end_time": 0.6772727272727272,
                "pitch": 31,
                "velocity": 64,
                "duration": 0.14090909090909087,
                "tempo": 120.0
            },
            {
                "start_time": 0.7090909090909091,
                "end_time": 0.8636363636363636,
                "pitch": 31,
                "velocity": 64,
                "duration": 0.15454545454545454,
                "tempo": 120.0
            },
            {
                "start_time": 0.8999999999999999,
                "end_time": 1.0522727272727272,
                "pitch": 31,
                "velocity": 64,
                "duration": 0.15227272727272734,
                "tempo": 120.0
            },
            {
                "start_time": 1.0863636363636364,
                "end_time": 1.2204545454545455,
                "pitch": 31,
                "velocity": 64,
                "duration": 0.13409090909090904,
                "tempo": 120.0
            },
            {
                "start_time": 1.2545454545454544,
                "end_time": 1.4045454545454545,
                "pitch": 31,
                "velocity": 64,
                "duration": 0.15000000000000013,
                "tempo": 120.0
            },
            {
                "start_time": 1.440909090909091,
                "end_time": 1.5886363636363636,
                "pitch": 32,
                "velocity": 64,
                "duration": 0.1477272727272727,
                "tempo": 120.0
            },
            {
                "start_time": 1.6227272727272726,
                "end_time": 1.7727272727272727,
                "pitch": 32,
                "velocity": 64,
                "duration": 0.15000000000000013,
                "tempo": 120.0
            },
            {
                "start_time": 1.809090909090909,
                "end_time": 1.9568181818181818,
                "pitch": 32,
                "velocity": 64,
                "duration": 0.1477272727272727,
                "tempo": 120.0
            },
            {
                "start_time": 1.9931818181818182,
                "end_time": 2.1409090909090907,
                "pitch": 32,
                "velocity": 64,
                "duration": 0.14772727272727249,
                "tempo": 120.0
            },
            {
                "start_time": 2.1772727272727272,
                "end_time": 2.3136363636363635,
                "pitch": 32,
                "velocity": 64,
                "duration": 0.13636363636363624,
                "tempo": 120.0
            },
            {
                "start_time": 2.3477272727272727,
                "end_time": 2.502272727272727,
                "pitch": 32,
                "velocity": 64,
                "duration": 0.15454545454545432,
                "tempo": 120.0
            },
            {
                "start_time": 2.536363636363636,
                "end_time": 2.6818181818181817,
                "pitch": 32,
                "velocity": 64,
                "duration": 0.1454545454545455,
                "tempo": 120.0
            },
            {
                "start_time": 2.715909090909091,
                "end_time": 2.8613636363636363,
                "pitch": 32,
                "velocity": 64,
                "duration": 0.1454545454545455,
                "tempo": 120.0
            },
            {
                "start_time": 2.8954545454545455,
                "end_time": 3.0477272727272724,
                "pitch": 34,
                "velocity": 64,
                "duration": 0.1522727272727269,
                "tempo": 120.0
            },
            {
                "start_time": 3.084090909090909,
                "end_time": 3.2363636363636363,
                "pitch": 34,
                "velocity": 64,
                "duration": 0.15227272727272734,
                "tempo": 120.0
            },
            {
                "start_time": 3.2727272727272725,
                "end_time": 3.4227272727272724,
                "pitch": 34,
                "velocity": 64,
                "duration": 0.1499999999999999,
                "tempo": 120.0
            },
            {
                "start_time": 3.4568181818181816,
                "end_time": 3.5886363636363634,
                "pitch": 34,
                "velocity": 64,
                "duration": 0.13181818181818183,
                "tempo": 120.0
            },
            {
                "start_time": 3.625,
                "end_time": 3.7727272727272725,
                "pitch": 34,
                "velocity": 64,
                "duration": 0.14772727272727249,
                "tempo": 120.0
            },
            {
                "start_time": 3.809090909090909,
                "end_time": 3.9568181818181816,
                "pitch": 34,
                "velocity": 64,
                "duration": 0.14772727272727249,
                "tempo": 120.0
            },
            {
                "start_time": 3.993181818181818,
                "end_time": 4.143181818181818,
                "pitch": 34,
                "velocity": 64,
                "duration": 0.14999999999999947,
                "tempo": 120.0
            },
            {
                "start_time": 4.177272727272727,
                "end_time": 4.327272727272727,
                "pitch": 34,
                "velocity": 64,
                "duration": 0.15000000000000036,
                "tempo": 120.0
            },
            {
                "start_time": 4.361363636363636,
                "end_time": 4.513636363636364,
                "pitch": 36,
                "velocity": 64,
                "duration": 0.15227272727272734,
                "tempo": 120.0
            },
            {
                "start_time": 4.55,
                "end_time": 4.6863636363636365,
                "pitch": 36,
                "velocity": 64,
                "duration": 0.1363636363636367,
                "tempo": 120.0
            },
            {
                "start_time": 4.720454545454545,
                "end_time": 4.86590909090909,
                "pitch": 36,
                "velocity": 64,
                "duration": 0.1454545454545455,
                "tempo": 120.0
            },
            {
                "start_time": 4.8999999999999995,
                "end_time": 5.045454545454545,
                "pitch": 36,
                "velocity": 64,
                "duration": 0.1454545454545455,
                "tempo": 120.0
            },
            {
                "start_time": 5.079545454545454,
                "end_time": 5.2318181818181815,
                "pitch": 36,
                "velocity": 64,
                "duration": 0.15227272727272734,
                "tempo": 120.0
            },
            {
                "start_time": 5.268181818181818,
                "end_time": 5.420454545454545,
                "pitch": 36,
                "velocity": 64,
                "duration": 0.15227272727272734,
                "tempo": 120.0
            },
            {
                "start_time": 5.456818181818181,
                "end_time": 5.6068181818181815,
                "pitch": 36,
                "velocity": 64,
                "duration": 0.15000000000000036,
                "tempo": 120.0
            },
            {
                "start_time": 5.640909090909091,
                "end_time": 5.7749999999999995,
                "pitch": 36,
                "velocity": 64,
                "duration": 0.13409090909090882,
                "tempo": 120.0
            },
            {
                "start_time": 5.809090909090909,
                "end_time": 5.954545454545454,
                "pitch": 31,
                "velocity": 64,
                "duration": 0.1454545454545455,
                "tempo": 120.0
            },
            {
                "start_time": 5.986363636363636,
                "end_time": 6.131818181818182,
                "pitch": 31,
                "velocity": 64,
                "duration": 0.1454545454545455,
                "tempo": 120.0
            },
            {
                "start_time": 6.165909090909091,
                "end_time": 6.320454545454545,
                "pitch": 31,
                "velocity": 64,
                "duration": 0.15454545454545432,
                "tempo": 120.0
            },
            {
                "start_time": 6.3545454545454545,
                "end_time": 6.509090909090909,
                "pitch": 31,
                "velocity": 64,
                "duration": 0.15454545454545432,
                "tempo": 120.0
            },
            {
                "start_time": 6.545454545454545,
                "end_time": 6.697727272727272,
                "pitch": 31,
                "velocity": 64,
                "duration": 0.15227272727272734,
                "tempo": 120.0
            },
            {
                "start_time": 6.7318181818181815,
                "end_time": 6.886363636363636,
                "pitch": 31,
                "velocity": 64,
                "duration": 0.15454545454545432,
                "tempo": 120.0
            },
            {
                "start_time": 6.922727272727272,
                "end_time": 7.056818181818182,
                "pitch": 31,
                "velocity": 64,
                "duration": 0.1340909090909097,
                "tempo": 120.0
            },
            {
                "start_time": 7.093181818181818,
                "end_time": 7.247727272727272,
                "pitch": 31,
                "velocity": 64,
                "duration": 0.15454545454545432,
                "tempo": 120.0
            },
            {
                "start_time": 7.281818181818181,
                "end_time": 7.427272727272727,
                "pitch": 32,
                "velocity": 64,
                "duration": 0.1454545454545455,
                "tempo": 120.0
            },
            {
                "start_time": 7.461363636363636,
                "end_time": 7.6068181818181815,
                "pitch": 32,
                "velocity": 64,
                "duration": 0.1454545454545455,
                "tempo": 120.0
            },
            {
                "start_time": 7.640909090909091,
                "end_time": 7.788636363636363,
                "pitch": 32,
                "velocity": 64,
                "duration": 0.14772727272727249,
                "tempo": 120.0
            },
            {
                "start_time": 7.824999999999999,
                "end_time": 7.975,
                "pitch": 32,
                "velocity": 64,
                "duration": 0.15000000000000036,
                "tempo": 120.0
            },
            {
                "start_time": 8.009090909090908,
                "end_time": 8.145454545454545,
                "pitch": 32,
                "velocity": 64,
                "duration": 0.1363636363636367,
                "tempo": 120.0
            },
            {
                "start_time": 8.179545454545455,
                "end_time": 8.334090909090909,
                "pitch": 32,
                "velocity": 64,
                "duration": 0.15454545454545432,
                "tempo": 120.0
            },
            {
                "start_time": 8.370454545454544,
                "end_time": 8.513636363636364,
                "pitch": 32,
                "velocity": 64,
                "duration": 0.1431818181818194,
                "tempo": 120.0
            },
            {
                "start_time": 8.547727272727272,
                "end_time": 8.693181818181818,
                "pitch": 32,
                "velocity": 64,
                "duration": 0.1454545454545464,
                "tempo": 120.0
            },
            {
                "start_time": 8.727272727272727,
                "end_time": 8.879545454545454,
                "pitch": 34,
                "velocity": 64,
                "duration": 0.15227272727272734,
                "tempo": 120.0
            },
            {
                "start_time": 8.915909090909091,
                "end_time": 9.068181818181818,
                "pitch": 34,
                "velocity": 64,
                "duration": 0.15227272727272734,
                "tempo": 120.0
            },
            {
                "start_time": 9.104545454545454,
                "end_time": 9.256818181818181,
                "pitch": 34,
                "velocity": 64,
                "duration": 0.15227272727272734,
                "tempo": 120.0
            },
            {
                "start_time": 9.293181818181818,
                "end_time": 9.429545454545455,
                "pitch": 34,
                "velocity": 64,
                "duration": 0.1363636363636367,
                "tempo": 120.0
            },
            {
                "start_time": 9.463636363636363,
                "end_time": 9.611363636363636,
                "pitch": 34,
                "velocity": 64,
                "duration": 0.14772727272727337,
                "tempo": 120.0
            },
            {
                "start_time": 9.645454545454545,
                "end_time": 9.788636363636364,
                "pitch": 34,
                "velocity": 64,
                "duration": 0.1431818181818194,
                "tempo": 120.0
            },
            {
                "start_time": 9.822727272727272,
                "end_time": 9.972727272727273,
                "pitch": 34,
                "velocity": 64,
                "duration": 0.15000000000000036,
                "tempo": 120.0
            },
            {
                "start_time": 10.006818181818181,
                "end_time": 10.156818181818181,
                "pitch": 34,
                "velocity": 64,
                "duration": 0.15000000000000036,
                "tempo": 120.0
            },
            {
                "start_time": 10.19090909090909,
                "end_time": 10.345454545454546,
                "pitch": 36,
                "velocity": 64,
                "duration": 0.1545454545454561,
                "tempo": 120.0
            },
            {
                "start_time": 10.381818181818181,
                "end_time": 10.51590909090909,
                "pitch": 36,
                "velocity": 64,
                "duration": 0.1340909090909097,
                "tempo": 120.0
            },
            {
                "start_time": 10.552272727272726,
                "end_time": 10.697727272727272,
                "pitch": 36,
                "velocity": 64,
                "duration": 0.1454545454545464,
                "tempo": 120.0
            },
            {
                "start_time": 10.729545454545454,
                "end_time": 10.875,
                "pitch": 36,
                "velocity": 64,
                "duration": 0.1454545454545464,
                "tempo": 120.0
            },
            {
                "start_time": 10.911363636363635,
                "end_time": 11.063636363636363,
                "pitch": 36,
                "velocity": 64,
                "duration": 0.15227272727272734,
                "tempo": 120.0
            },
            {
                "start_time": 11.097727272727273,
                "end_time": 11.252272727272727,
                "pitch": 36,
                "velocity": 64,
                "duration": 0.15454545454545432,
                "tempo": 120.0
            },
            {
                "start_time": 11.288636363636362,
                "end_time": 11.44090909090909,
                "pitch": 36,
                "velocity": 64,
                "duration": 0.15227272727272734,
                "tempo": 120.0
            },
            {
                "start_time": 11.475,
                "end_time": 11.611363636363636,
                "pitch": 36,
                "velocity": 64,
                "duration": 0.1363636363636367,
                "tempo": 120.0
            },
            {
                "start_time": 11.647727272727272,
                "end_time": 11.793181818181818,
                "pitch": 39,
                "velocity": 64,
                "duration": 0.1454545454545464,
                "tempo": 120.0
            },
            {
                "start_time": 11.827272727272726,
                "end_time": 11.972727272727273,
                "pitch": 39,
                "velocity": 64,
                "duration": 0.1454545454545464,
                "tempo": 120.0
            },
            {
                "start_time": 12.004545454545454,
                "end_time": 12.154545454545454,
                "pitch": 39,
                "velocity": 64,
                "duration": 0.15000000000000036,
                "tempo": 120.0
            },
            {
                "start_time": 12.19090909090909,
                "end_time": 12.34090909090909,
                "pitch": 39,
                "velocity": 64,
                "duration": 0.15000000000000036,
                "tempo": 120.0
            },
            {
                "start_time": 12.375,
                "end_time": 12.527272727272727,
                "pitch": 39,
                "velocity": 64,
                "duration": 0.15227272727272734,
                "tempo": 120.0
            },
            {
                "start_time": 12.563636363636363,
                "end_time": 12.71590909090909,
                "pitch": 39,
                "velocity": 64,
                "duration": 0.15227272727272734,
                "tempo": 120.0
            },
            {
                "start_time": 12.752272727272727,
                "end_time": 12.888636363636364,
                "pitch": 39,
                "velocity": 64,
                "duration": 0.1363636363636367,
                "tempo": 120.0
            },
            {
                "start_time": 12.922727272727272,
                "end_time": 13.077272727272726,
                "pitch": 39,
                "velocity": 64,
                "duration": 0.15454545454545432,
                "tempo": 120.0
            },
            {
                "start_time": 13.113636363636363,
                "end_time": 13.256818181818181,
                "pitch": 34,
                "velocity": 64,
                "duration": 0.14318181818181763,
                "tempo": 120.0
            },
            {
                "start_time": 13.290909090909091,
                "end_time": 13.436363636363636,
                "pitch": 34,
                "velocity": 64,
                "duration": 0.14545454545454461,
                "tempo": 120.0
            },
            {
                "start_time": 13.470454545454546,
                "end_time": 13.622727272727271,
                "pitch": 34,
                "velocity": 64,
                "duration": 0.15227272727272556,
                "tempo": 120.0
            },
            {
                "start_time": 13.659090909090908,
                "end_time": 13.811363636363636,
                "pitch": 34,
                "velocity": 64,
                "duration": 0.15227272727272734,
                "tempo": 120.0
            },
            {
                "start_time": 13.847727272727273,
                "end_time": 13.979545454545454,
                "pitch": 34,
                "velocity": 64,
                "duration": 0.13181818181818095,
                "tempo": 120.0
            },
            {
                "start_time": 14.01590909090909,
                "end_time": 14.165909090909091,
                "pitch": 34,
                "velocity": 64,
                "duration": 0.15000000000000036,
                "tempo": 120.0
            },
            {
                "start_time": 14.2,
                "end_time": 14.345454545454544,
                "pitch": 34,
                "velocity": 64,
                "duration": 0.14545454545454461,
                "tempo": 120.0
            },
            {
                "start_time": 14.379545454545454,
                "end_time": 14.522727272727272,
                "pitch": 34,
                "velocity": 64,
                "duration": 0.14318181818181763,
                "tempo": 120.0
            },
            {
                "start_time": 14.556818181818182,
                "end_time": 14.711363636363636,
                "pitch": 36,
                "velocity": 64,
                "duration": 0.15454545454545432,
                "tempo": 120.0
            },
            {
                "start_time": 14.747727272727271,
                "end_time": 14.899999999999999,
                "pitch": 36,
                "velocity": 64,
                "duration": 0.15227272727272734,
                "tempo": 120.0
            },
            {
                "start_time": 14.934090909090909,
                "end_time": 15.070454545454545,
                "pitch": 36,
                "velocity": 64,
                "duration": 0.1363636363636367,
                "tempo": 120.0
            },
            {
                "start_time": 15.10681818181818,
                "end_time": 15.259090909090908,
                "pitch": 36,
                "velocity": 64,
                "duration": 0.15227272727272734,
                "tempo": 120.0
            },
            {
                "start_time": 15.295454545454545,
                "end_time": 15.44090909090909,
                "pitch": 38,
                "velocity": 64,
                "duration": 0.14545454545454461,
                "tempo": 120.0
            },
            {
                "start_time": 15.475,
                "end_time": 15.620454545454544,
                "pitch": 38,
                "velocity": 64,
                "duration": 0.14545454545454461,
                "tempo": 120.0
            },
            {
                "start_time": 15.654545454545454,
                "end_time": 15.806818181818182,
                "pitch": 38,
                "velocity": 64,
                "duration": 0.15227272727272734,
                "tempo": 120.0
            },
            {
                "start_time": 15.84090909090909,
                "end_time": 15.995454545454544,
                "pitch": 38,
                "velocity": 64,
                "duration": 0.15454545454545432,
                "tempo": 120.0
            },
            {
                "start_time": 16.03181818181818,
                "end_time": 16.179545454545455,
                "pitch": 39,
                "velocity": 64,
                "duration": 0.14772727272727337,
                "tempo": 120.0
            },
            {
                "start_time": 16.21363636363636,
                "end_time": 16.347727272727273,
                "pitch": 39,
                "velocity": 64,
                "duration": 0.13409090909091148,
                "tempo": 120.0
            },
            {
                "start_time": 16.381818181818183,
                "end_time": 16.527272727272727,
                "pitch": 39,
                "velocity": 64,
                "duration": 0.14545454545454461,
                "tempo": 120.0
            },
            {
                "start_time": 16.561363636363634,
                "end_time": 16.706818181818182,
                "pitch": 39,
                "velocity": 64,
                "duration": 0.14545454545454817,
                "tempo": 120.0
            },
            {
                "start_time": 16.74090909090909,
                "end_time": 16.893181818181816,
                "pitch": 39,
                "velocity": 64,
                "duration": 0.15227272727272734,
                "tempo": 120.0
            },
            {
                "start_time": 16.929545454545455,
                "end_time": 17.081818181818182,
                "pitch": 39,
                "velocity": 64,
                "duration": 0.15227272727272734,
                "tempo": 120.0
            },
            {
                "start_time": 17.118181818181817,
                "end_time": 17.270454545454545,
                "pitch": 39,
                "velocity": 64,
                "duration": 0.15227272727272734,
                "tempo": 120.0
            },
            {
                "start_time": 17.30681818181818,
                "end_time": 17.443181818181817,
                "pitch": 39,
                "velocity": 64,
                "duration": 0.1363636363636367,
                "tempo": 120.0
            },
            {
                "start_time": 17.479545454545455,
                "end_time": 17.62272727272727,
                "pitch": 39,
                "velocity": 64,
                "duration": 0.14318181818181586,
                "tempo": 120.0
            },
            {
                "start_time": 17.65681818181818,
                "end_time": 17.802272727272726,
                "pitch": 39,
                "velocity": 64,
                "duration": 0.14545454545454461,
                "tempo": 120.0
            },
            {
                "start_time": 17.836363636363636,
                "end_time": 17.988636363636363,
                "pitch": 39,
                "velocity": 64,
                "duration": 0.15227272727272734,
                "tempo": 120.0
            },
            {
                "start_time": 18.025,
                "end_time": 18.177272727272726,
                "pitch": 39,
                "velocity": 64,
                "duration": 0.15227272727272734,
                "tempo": 120.0
            },
            {
                "start_time": 18.21363636363636,
                "end_time": 18.363636363636363,
                "pitch": 39,
                "velocity": 64,
                "duration": 0.15000000000000213,
                "tempo": 120.0
            },
            {
                "start_time": 18.397727272727273,
                "end_time": 18.547727272727272,
                "pitch": 39,
                "velocity": 64,
                "duration": 0.14999999999999858,
                "tempo": 120.0
            },
            {
                "start_time": 18.581818181818182,
                "end_time": 18.71818181818182,
                "pitch": 39,
                "velocity": 64,
                "duration": 0.1363636363636367,
                "tempo": 120.0
            },
            {
                "start_time": 18.754545454545454,
                "end_time": 18.90681818181818,
                "pitch": 39,
                "velocity": 64,
                "duration": 0.15227272727272734,
                "tempo": 120.0
            },
            {
                "start_time": 18.943181818181817,
                "end_time": 19.08863636363636,
                "pitch": 34,
                "velocity": 64,
                "duration": 0.14545454545454461,
                "tempo": 120.0
            },
            {
                "start_time": 19.12272727272727,
                "end_time": 19.26590909090909,
                "pitch": 34,
                "velocity": 64,
                "duration": 0.1431818181818194,
                "tempo": 120.0
            },
            {
                "start_time": 19.3,
                "end_time": 19.452272727272728,
                "pitch": 34,
                "velocity": 64,
                "duration": 0.15227272727272734,
                "tempo": 120.0
            },
            {
                "start_time": 19.488636363636363,
                "end_time": 19.643181818181816,
                "pitch": 34,
                "velocity": 64,
                "duration": 0.15454545454545254,
                "tempo": 120.0
            },
            {
                "start_time": 19.677272727272726,
                "end_time": 19.811363636363634,
                "pitch": 34,
                "velocity": 64,
                "duration": 0.13409090909090793,
                "tempo": 120.0
            },
            {
                "start_time": 19.845454545454544,
                "end_time": 19.995454545454546,
                "pitch": 34,
                "velocity": 64,
                "duration": 0.15000000000000213,
                "tempo": 120.0
            },
            {
                "start_time": 20.029545454545453,
                "end_time": 20.179545454545455,
                "pitch": 34,
                "velocity": 64,
                "duration": 0.15000000000000213,
                "tempo": 120.0
            },
            {
                "start_time": 20.21363636363636,
                "end_time": 20.363636363636363,
                "pitch": 34,
                "velocity": 64,
                "duration": 0.15000000000000213,
                "tempo": 120.0
            },
            {
                "start_time": 20.397727272727273,
                "end_time": 20.547727272727272,
                "pitch": 39,
                "velocity": 64,
                "duration": 0.14999999999999858,
                "tempo": 120.0
            },
            {
                "start_time": 20.581818181818182,
                "end_time": 20.73181818181818,
                "pitch": 39,
                "velocity": 64,
                "duration": 0.14999999999999858,
                "tempo": 120.0
            },
            {
                "start_time": 20.76590909090909,
                "end_time": 20.902272727272727,
                "pitch": 39,
                "velocity": 64,
                "duration": 0.1363636363636367,
                "tempo": 120.0
            },
            {
                "start_time": 20.938636363636363,
                "end_time": 21.09090909090909,
                "pitch": 39,
                "velocity": 64,
                "duration": 0.15227272727272734,
                "tempo": 120.0
            },
            {
                "start_time": 21.127272727272725,
                "end_time": 21.272727272727273,
                "pitch": 39,
                "velocity": 64,
                "duration": 0.14545454545454817,
                "tempo": 120.0
            },
            {
                "start_time": 21.30681818181818,
                "end_time": 21.45,
                "pitch": 39,
                "velocity": 64,
                "duration": 0.1431818181818194,
                "tempo": 120.0
            },
            {
                "start_time": 21.48409090909091,
                "end_time": 21.638636363636362,
                "pitch": 39,
                "velocity": 64,
                "duration": 0.15454545454545254,
                "tempo": 120.0
            },
            {
                "start_time": 21.675,
                "end_time": 21.827272727272724,
                "pitch": 39,
                "velocity": 64,
                "duration": 0.15227272727272378,
                "tempo": 120.0
            },
            {
                "start_time": 21.861363636363635,
                "end_time": 22.011363636363637,
                "pitch": 38,
                "velocity": 64,
                "duration": 0.15000000000000213,
                "tempo": 120.0
            },
            {
                "start_time": 22.045454545454543,
                "end_time": 22.179545454545455,
                "pitch": 38,
                "velocity": 64,
                "duration": 0.13409090909091148,
                "tempo": 120.0
            },
            {
                "start_time": 22.21363636363636,
                "end_time": 22.35909090909091,
                "pitch": 38,
                "velocity": 64,
                "duration": 0.14545454545454817,
                "tempo": 120.0
            },
            {
                "start_time": 22.39090909090909,
                "end_time": 22.538636363636364,
                "pitch": 38,
                "velocity": 64,
                "duration": 0.14772727272727337,
                "tempo": 120.0
            },
            {
                "start_time": 22.57272727272727,
                "end_time": 22.724999999999998,
                "pitch": 38,
                "velocity": 64,
                "duration": 0.15227272727272734,
                "tempo": 120.0
            },
            {
                "start_time": 22.759090909090908,
                "end_time": 22.913636363636364,
                "pitch": 38,
                "velocity": 64,
                "duration": 0.1545454545454561,
                "tempo": 120.0
            },
            {
                "start_time": 22.95,
                "end_time": 23.097727272727273,
                "pitch": 38,
                "velocity": 64,
                "duration": 0.14772727272727337,
                "tempo": 120.0
            },
            {
                "start_time": 23.134090909090908,
                "end_time": 23.26590909090909,
                "pitch": 38,
                "velocity": 64,
                "duration": 0.13181818181818272,
                "tempo": 120.0
            },
            {
                "start_time": 23.299999999999997,
                "end_time": 23.45,
                "pitch": 36,
                "velocity": 64,
                "duration": 0.15000000000000213,
                "tempo": 120.0
            },
            {
                "start_time": 23.486363636363635,
                "end_time": 23.634090909090908,
                "pitch": 36,
                "velocity": 64,
                "duration": 0.14772727272727337,
                "tempo": 120.0
            },
            {
                "start_time": 23.668181818181818,
                "end_time": 23.818181818181817,
                "pitch": 36,
                "velocity": 64,
                "duration": 0.14999999999999858,
                "tempo": 120.0
            },
            {
                "start_time": 23.854545454545452,
                "end_time": 24.002272727272725,
                "pitch": 36,
                "velocity": 64,
                "duration": 0.14772727272727337,
                "tempo": 120.0
            },
            {
                "start_time": 24.038636363636364,
                "end_time": 24.19090909090909,
                "pitch": 36,
                "velocity": 64,
                "duration": 0.15227272727272734,
                "tempo": 120.0
            },
            {
                "start_time": 24.227272727272727,
                "end_time": 24.379545454545454,
                "pitch": 36,
                "velocity": 64,
                "duration": 0.15227272727272734,
                "tempo": 120.0
            },
            {
                "start_time": 24.41590909090909,
                "end_time": 24.552272727272726,
                "pitch": 36,
                "velocity": 64,
                "duration": 0.1363636363636367,
                "tempo": 120.0
            },
            {
                "start_time": 24.586363636363636,
                "end_time": 24.74090909090909,
                "pitch": 36,
                "velocity": 64,
                "duration": 0.15454545454545254,
                "tempo": 120.0
            },
            {
                "start_time": 24.777272727272727,
                "end_time": 24.920454545454543,
                "pitch": 34,
                "velocity": 64,
                "duration": 0.14318181818181586,
                "tempo": 120.0
            },
            {
                "start_time": 24.954545454545453,
                "end_time": 25.099999999999998,
                "pitch": 34,
                "velocity": 64,
                "duration": 0.14545454545454461,
                "tempo": 120.0
            },
            {
                "start_time": 25.134090909090908,
                "end_time": 25.286363636363635,
                "pitch": 34,
                "velocity": 64,
                "duration": 0.15227272727272734,
                "tempo": 120.0
            },
            {
                "start_time": 25.32272727272727,
                "end_time": 25.474999999999998,
                "pitch": 34,
                "velocity": 64,
                "duration": 0.15227272727272734,
                "tempo": 120.0
            },
            {
                "start_time": 25.511363636363637,
                "end_time": 25.643181818181816,
                "pitch": 34,
                "velocity": 64,
                "duration": 0.13181818181817917,
                "tempo": 120.0
            },
            {
                "start_time": 25.679545454545455,
                "end_time": 25.829545454545453,
                "pitch": 34,
                "velocity": 64,
                "duration": 0.14999999999999858,
                "tempo": 120.0
            },
            {
                "start_time": 25.863636363636363,
                "end_time": 26.013636363636362,
                "pitch": 34,
                "velocity": 64,
                "duration": 0.14999999999999858,
                "tempo": 120.0
            },
            {
                "start_time": 26.047727272727272,
                "end_time": 26.19772727272727,
                "pitch": 34,
                "velocity": 64,
                "duration": 0.14999999999999858,
                "tempo": 120.0
            },
            {
                "start_time": 26.23181818181818,
                "end_time": 26.38181818181818,
                "pitch": 32,
                "velocity": 64,
                "duration": 0.14999999999999858,
                "tempo": 120.0
            },
            {
                "start_time": 26.41590909090909,
                "end_time": 26.56590909090909,
                "pitch": 32,
                "velocity": 64,
                "duration": 0.15000000000000213,
                "tempo": 120.0
            },
            {
                "start_time": 26.599999999999998,
                "end_time": 26.736363636363635,
                "pitch": 32,
                "velocity": 64,
                "duration": 0.1363636363636367,
                "tempo": 120.0
            },
            {
                "start_time": 26.77272727272727,
                "end_time": 26.924999999999997,
                "pitch": 32,
                "velocity": 64,
                "duration": 0.15227272727272734,
                "tempo": 120.0
            },
            {
                "start_time": 26.961363636363636,
                "end_time": 27.10681818181818,
                "pitch": 32,
                "velocity": 64,
                "duration": 0.14545454545454461,
                "tempo": 120.0
            },
            {
                "start_time": 27.138636363636362,
                "end_time": 27.284090909090907,
                "pitch": 32,
                "velocity": 64,
                "duration": 0.14545454545454461,
                "tempo": 120.0
            },
            {
                "start_time": 27.318181818181817,
                "end_time": 27.472727272727273,
                "pitch": 32,
                "velocity": 64,
                "duration": 0.1545454545454561,
                "tempo": 120.0
            },
            {
                "start_time": 27.50681818181818,
                "end_time": 27.661363636363635,
                "pitch": 32,
                "velocity": 64,
                "duration": 0.1545454545454561,
                "tempo": 120.0
            },
            {
                "start_time": 27.695454545454545,
                "end_time": 27.845454545454544,
                "pitch": 31,
                "velocity": 64,
                "duration": 0.14999999999999858,
                "tempo": 120.0
            },
            {
                "start_time": 27.879545454545454,
                "end_time": 28.013636363636362,
                "pitch": 31,
                "velocity": 64,
                "duration": 0.13409090909090793,
                "tempo": 120.0
            },
            {
                "start_time": 28.047727272727272,
                "end_time": 28.19772727272727,
                "pitch": 31,
                "velocity": 64,
                "duration": 0.14999999999999858,
                "tempo": 120.0
            },
            {
                "start_time": 28.23181818181818,
                "end_time": 28.38181818181818,
                "pitch": 31,
                "velocity": 64,
                "duration": 0.14999999999999858,
                "tempo": 120.0
            },
            {
                "start_time": 28.41590909090909,
                "end_time": 28.565909090909088,
                "pitch": 31,
                "velocity": 64,
                "duration": 0.14999999999999858,
                "tempo": 120.0
            },
            {
                "start_time": 28.599999999999998,
                "end_time": 28.75,
                "pitch": 31,
                "velocity": 64,
                "duration": 0.15000000000000213,
                "tempo": 120.0
            },
            {
                "start_time": 28.784090909090907,
                "end_time": 28.938636363636363,
                "pitch": 31,
                "velocity": 64,
                "duration": 0.1545454545454561,
                "tempo": 120.0
            },
            {
                "start_time": 28.974999999999998,
                "end_time": 29.10909090909091,
                "pitch": 31,
                "velocity": 64,
                "duration": 0.13409090909091148,
                "tempo": 120.0
            },
            {
                "start_time": 29.145454545454545,
                "end_time": 29.29090909090909,
                "pitch": 36,
                "velocity": 64,
                "duration": 0.14545454545454461,
                "tempo": 120.0
            },
            {
                "start_time": 29.32272727272727,
                "end_time": 29.468181818181815,
                "pitch": 36,
                "velocity": 64,
                "duration": 0.14545454545454461,
                "tempo": 120.0
            },
            {
                "start_time": 29.504545454545454,
                "end_time": 29.65681818181818,
                "pitch": 36,
                "velocity": 64,
                "duration": 0.15227272727272734,
                "tempo": 120.0
            },
            {
                "start_time": 29.690909090909088,
                "end_time": 29.845454545454544,
                "pitch": 36,
                "velocity": 64,
                "duration": 0.1545454545454561,
                "tempo": 120.0
            },
            {
                "start_time": 29.88181818181818,
                "end_time": 30.029545454545453,
                "pitch": 36,
                "velocity": 64,
                "duration": 0.14772727272727337,
                "tempo": 120.0
            },
            {
                "start_time": 30.063636363636363,
                "end_time": 30.19772727272727,
                "pitch": 36,
                "velocity": 64,
                "duration": 0.13409090909090793,
                "tempo": 120.0
            },
            {
                "start_time": 30.23181818181818,
                "end_time": 30.377272727272725,
                "pitch": 36,
                "velocity": 64,
                "duration": 0.14545454545454461,
                "tempo": 120.0
            },
            {
                "start_time": 30.411363636363635,
                "end_time": 30.55681818181818,
                "pitch": 36,
                "velocity": 64,
                "duration": 0.14545454545454461,
                "tempo": 120.0
            },
            {
                "start_time": 30.58863636363636,
                "end_time": 30.743181818181817,
                "pitch": 34,
                "velocity": 64,
                "duration": 0.1545454545454561,
                "tempo": 120.0
            },
            {
                "start_time": 30.779545454545453,
                "end_time": 30.93181818181818,
                "pitch": 34,
                "velocity": 64,
                "duration": 0.15227272727272734,
                "tempo": 120.0
            },
            {
                "start_time": 30.968181818181815,
                "end_time": 31.120454545454542,
                "pitch": 34,
                "velocity": 64,
                "duration": 0.15227272727272734,
                "tempo": 120.0
            },
            {
                "start_time": 31.15681818181818,
                "end_time": 31.30909090909091,
                "pitch": 34,
                "velocity": 64,
                "duration": 0.15227272727272734,
                "tempo": 120.0
            },
            {
                "start_time": 31.345454545454544,
                "end_time": 31.48181818181818,
                "pitch": 34,
                "velocity": 64,
                "duration": 0.1363636363636367,
                "tempo": 120.0
            },
            {
                "start_time": 31.51590909090909,
                "end_time": 31.670454545454543,
                "pitch": 34,
                "velocity": 64,
                "duration": 0.15454545454545254,
                "tempo": 120.0
            },
            {
                "start_time": 31.706818181818182,
                "end_time": 31.849999999999998,
                "pitch": 34,
                "velocity": 64,
                "duration": 0.14318181818181586,
                "tempo": 120.0
            },
            {
                "start_time": 31.884090909090908,
                "end_time": 32.029545454545456,
                "pitch": 34,
                "velocity": 64,
                "duration": 0.14545454545454817,
                "tempo": 120.0
            },
            {
                "start_time": 32.06363636363636,
                "end_time": 32.21363636363636,
                "pitch": 32,
                "velocity": 64,
                "duration": 0.14999999999999858,
                "tempo": 120.0
            },
            {
                "start_time": 32.24772727272727,
                "end_time": 32.39772727272727,
                "pitch": 32,
                "velocity": 64,
                "duration": 0.15000000000000568,
                "tempo": 120.0
            },
            {
                "start_time": 32.43181818181818,
                "end_time": 32.56818181818182,
                "pitch": 32,
                "velocity": 64,
                "duration": 0.13636363636364024,
                "tempo": 120.0
            },
            {
                "start_time": 32.60454545454545,
                "end_time": 32.75681818181818,
                "pitch": 32,
                "velocity": 64,
                "duration": 0.1522727272727309,
                "tempo": 120.0
            },
            {
                "start_time": 32.793181818181814,
                "end_time": 32.93863636363636,
                "pitch": 32,
                "velocity": 64,
                "duration": 0.14545454545454817,
                "tempo": 120.0
            },
            {
                "start_time": 32.97272727272727,
                "end_time": 33.11590909090909,
                "pitch": 32,
                "velocity": 64,
                "duration": 0.14318181818182296,
                "tempo": 120.0
            },
            {
                "start_time": 33.15,
                "end_time": 33.304545454545455,
                "pitch": 32,
                "velocity": 64,
                "duration": 0.1545454545454561,
                "tempo": 120.0
            },
            {
                "start_time": 33.33863636363636,
                "end_time": 33.49318181818182,
                "pitch": 32,
                "velocity": 64,
                "duration": 0.1545454545454561,
                "tempo": 120.0
            },
            {
                "start_time": 33.527272727272724,
                "end_time": 33.67727272727272,
                "pitch": 31,
                "velocity": 64,
                "duration": 0.14999999999999858,
                "tempo": 120.0
            },
            {
                "start_time": 33.71363636363636,
                "end_time": 33.845454545454544,
                "pitch": 31,
                "velocity": 64,
                "duration": 0.13181818181818272,
                "tempo": 120.0
            },
            {
                "start_time": 33.87954545454545,
                "end_time": 34.025,
                "pitch": 31,
                "velocity": 64,
                "duration": 0.14545454545454817,
                "tempo": 120.0
            },
            {
                "start_time": 34.059090909090905,
                "end_time": 34.20454545454545,
                "pitch": 31,
                "velocity": 64,
                "duration": 0.14545454545454817,
                "tempo": 120.0
            },
            {
                "start_time": 34.23863636363636,
                "end_time": 34.39090909090909,
                "pitch": 31,
                "velocity": 64,
                "duration": 0.1522727272727309,
                "tempo": 120.0
            },
            {
                "start_time": 34.425,
                "end_time": 34.57954545454545,
                "pitch": 31,
                "velocity": 64,
                "duration": 0.1545454545454561,
                "tempo": 120.0
            },
            {
                "start_time": 34.61590909090909,
                "end_time": 34.768181818181816,
                "pitch": 31,
                "velocity": 64,
                "duration": 0.15227272727272378,
                "tempo": 120.0
            },
            {
                "start_time": 34.804545454545455,
                "end_time": 34.94090909090909,
                "pitch": 31,
                "velocity": 64,
                "duration": 0.13636363636363313,
                "tempo": 120.0
            }
        ]
    }
}