{
    "track_id": "14 Aerial Castle Kwol",
    "mood": "angry",
    "instruments": {
        "Electric Piano 1": [
            {
                "start_time": 0.011363636363636364,
                "end_time": 0.12954545454545455,
                "pitch": 81,
                "velocity": 80,
                "duration": 0.11818181818181818,
                "tempo": 120.0
            },
            {
                "start_time": 0.12954545454545455,
                "end_time": 0.2477272727272727,
                "pitch": 83,
                "velocity": 80,
                "duration": 0.11818181818181817,
                "tempo": 120.0
            },
            {
                "start_time": 0.2477272727272727,
                "end_time": 0.36818181818181817,
                "pitch": 84,
                "velocity": 80,
                "duration": 0.12045454545454545,
                "tempo": 120.0
            },
            {
                "start_time": 0.2477272727272727,
                "end_time": 1.4386363636363635,
                "pitch": 88,
                "velocity": 80,
                "duration": 1.1909090909090907,
                "tempo": 120.0
            },
            {
                "start_time": 0.36818181818181817,
                "end_time": 1.4386363636363635,
                "pitch": 88,
                "velocity": 80,
                "duration": 1.0704545454545453,
                "tempo": 120.0
            },
            {
                "start_time": 1.4386363636363635,
                "end_time": 1.9,
                "pitch": 86,
                "velocity": 80,
                "duration": 0.4613636363636364,
                "tempo": 120.0
            },
            {
                "start_time": 1.9,
                "end_time": 2.359090909090909,
                "pitch": 81,
                "velocity": 80,
                "duration": 0.459090909090909,
                "tempo": 120.0
            },
            {
                "start_time": 2.359090909090909,
                "end_time": 2.8386363636363634,
                "pitch": 79,
                "velocity": 80,
                "duration": 0.4795454545454545,
                "tempo": 120.0
            },
            {
                "start_time": 2.8386363636363634,
                "end_time": 4.2295454545454545,
                "pitch": 77,
                "velocity": 80,
                "duration": 1.390909090909091,
                "tempo": 120.0
            },
            {
                "start_time": 4.2295454545454545,
                "end_time": 4.347727272727273,
                "pitch": 88,
                "velocity": 80,
                "duration": 0.11818181818181817,
                "tempo": 120.0
            },
            {
                "start_time": 4.347727272727273,
                "end_time": 4.552272727272727,
                "pitch": 86,
                "velocity": 80,
                "duration": 0.20454545454545414,
                "tempo": 120.0
            },
            {
                "start_time": 4.552272727272727,
                "end_time": 4.570454545454545,
                "pitch": 84,
                "velocity": 80,
                "duration": 0.01818181818181852,
                "tempo": 120.0
            },
            {
                "start_time": 4.570454545454545,
                "end_time": 5.629545454545454,
                "pitch": 83,
                "velocity": 80,
                "duration": 1.0590909090909086,
                "tempo": 120.0
            },
            {
                "start_time": 5.629545454545454,
                "end_time": 7.018181818181818,
                "pitch": 81,
                "velocity": 80,
                "duration": 1.3886363636363637,
                "tempo": 120.0
            },
            {
                "start_time": 7.018181818181818,
                "end_time": 8.409090909090908,
                "pitch": 93,
                "velocity": 80,
                "duration": 1.3909090909090907,
                "tempo": 120.0
            },
            {
                "start_time": 8.409090909090908,
                "end_time": 8.459090909090909,
                "pitch": 92,
                "velocity": 80,
                "duration": 0.05000000000000071,
                "tempo": 120.0
            },
            {
                "start_time": 8.527272727272727,
                "end_time": 8.577272727272726,
                "pitch": 93,
                "velocity": 80,
                "duration": 0.049999999999998934,
                "tempo": 120.0
            },
            {
                "start_time": 8.647727272727272,
                "end_time": 8.697727272727272,
                "pitch": 88,
                "velocity": 80,
                "duration": 0.05000000000000071,
                "tempo": 120.0
            },
            {
                "start_time": 8.768181818181818,
                "end_time": 8.818181818181818,
                "pitch": 89,
                "velocity": 80,
                "duration": 0.05000000000000071,
                "tempo": 120.0
            },
            {
                "start_time": 8.888636363636364,
                "end_time": 8.938636363636363,
                "pitch": 85,
                "velocity": 80,
                "duration": 0.049999999999998934,
                "tempo": 120.0
            },
            {
                "start_time": 9.009090909090908,
                "end_time": 11.209090909090909,
                "pitch": 86,
                "velocity": 80,
                "duration": 2.200000000000001,
                "tempo": 120.0
            },
            {
                "start_time": 11.211363636363636,
                "end_time": 11.325,
                "pitch": 81,
                "velocity": 80,
                "duration": 0.11363636363636331,
                "tempo": 120.0
            },
            {
                "start_time": 11.325,
                "end_time": 11.443181818181818,
                "pitch": 83,
                "velocity": 80,
                "duration": 0.11818181818181905,
                "tempo": 120.0
            },
            {
                "start_time": 11.443181818181818,
                "end_time": 11.561363636363636,
                "pitch": 84,
                "velocity": 80,
                "duration": 0.11818181818181728,
                "tempo": 120.0
            },
            {
                "start_time": 11.443181818181818,
                "end_time": 12.6,
                "pitch": 88,
                "velocity": 80,
                "duration": 1.1568181818181813,
                "tempo": 120.0
            },
            {
                "start_time": 11.561363636363636,
                "end_time": 12.6,
                "pitch": 88,
                "velocity": 80,
                "duration": 1.038636363636364,
                "tempo": 120.0
            },
            {
                "start_time": 12.6,
                "end_time": 13.077272727272726,
                "pitch": 86,
                "velocity": 80,
                "duration": 0.4772727272727266,
                "tempo": 120.0
            },
            {
                "start_time": 13.079545454545453,
                "end_time": 13.556818181818182,
                "pitch": 81,
                "velocity": 80,
                "duration": 0.4772727272727284,
                "tempo": 120.0
            },
            {
                "start_time": 13.559090909090909,
                "end_time": 13.59090909090909,
                "pitch": 79,
                "velocity": 80,
                "duration": 0.0318181818181813,
                "tempo": 120.0
            },
            {
                "start_time": 13.59090909090909,
                "end_time": 13.774999999999999,
                "pitch": 79,
                "velocity": 80,
                "duration": 0.18409090909090864,
                "tempo": 120.0
            },
            {
                "start_time": 13.59090909090909,
                "end_time": 13.774999999999999,
                "pitch": 91,
                "velocity": 80,
                "duration": 0.18409090909090864,
                "tempo": 120.0
            },
            {
                "start_time": 13.774999999999999,
                "end_time": 13.975,
                "pitch": 79,
                "velocity": 80,
                "duration": 0.20000000000000107,
                "tempo": 120.0
            },
            {
                "start_time": 13.774999999999999,
                "end_time": 13.975,
                "pitch": 91,
                "velocity": 80,
                "duration": 0.20000000000000107,
                "tempo": 120.0
            },
            {
                "start_time": 13.975,
                "end_time": 14.011363636363635,
                "pitch": 79,
                "velocity": 80,
                "duration": 0.036363636363635266,
                "tempo": 120.0
            },
            {
                "start_time": 14.011363636363635,
                "end_time": 15.399999999999999,
                "pitch": 77,
                "velocity": 80,
                "duration": 1.3886363636363637,
                "tempo": 120.0
            },
            {
                "start_time": 15.399999999999999,
                "end_time": 15.51590909090909,
                "pitch": 88,
                "velocity": 80,
                "duration": 0.11590909090909207,
                "tempo": 120.0
            },
            {
                "start_time": 15.51590909090909,
                "end_time": 15.7,
                "pitch": 86,
                "velocity": 80,
                "duration": 0.18409090909090864,
                "tempo": 120.0
            },
            {
                "start_time": 4.570454545454545,
                "end_time": 15.75,
                "pitch": 69,
                "velocity": 80,
                "duration": 11.179545454545455,
                "tempo": 120.0
            },
            {
                "start_time": 15.7,
                "end_time": 15.75,
                "pitch": 84,
                "velocity": 80,
                "duration": 0.05000000000000071,
                "tempo": 120.0
            },
            {
                "start_time": 15.75,
                "end_time": 16.8,
                "pitch": 83,
                "velocity": 80,
                "duration": 1.0500000000000007,
                "tempo": 120.0
            },
            {
                "start_time": 16.8,
                "end_time": 18.2,
                "pitch": 81,
                "velocity": 80,
                "duration": 1.3999999999999986,
                "tempo": 120.0
            },
            {
                "start_time": 18.2,
                "end_time": 19.60681818181818,
                "pitch": 81,
                "velocity": 80,
                "duration": 1.4068181818181813,
                "tempo": 120.0
            },
            {
                "start_time": 19.60681818181818,
                "end_time": 21.00681818181818,
                "pitch": 81,
                "velocity": 80,
                "duration": 1.3999999999999986,
                "tempo": 120.0
            },
            {
                "start_time": 21.00681818181818,
                "end_time": 22.397727272727273,
                "pitch": 81,
                "velocity": 80,
                "duration": 1.3909090909090942,
                "tempo": 120.0
            },
            {
                "start_time": 15.75,
                "end_time": 27.977272727272727,
                "pitch": 69,
                "velocity": 80,
                "duration": 12.227272727272727,
                "tempo": 120.0
            },
            {
                "start_time": 22.397727272727273,
                "end_time": 27.977272727272727,
                "pitch": 69,
                "velocity": 80,
                "duration": 5.579545454545453,
                "tempo": 120.0
            },
            {
                "start_time": 30.770454545454545,
                "end_time": 30.836363636363636,
                "pitch": 92,
                "velocity": 51,
                "duration": 0.06590909090909136,
                "tempo": 120.0
            },
            {
                "start_time": 30.888636363636362,
                "end_time": 30.954545454545453,
                "pitch": 93,
                "velocity": 51,
                "duration": 0.06590909090909136,
                "tempo": 120.0
            },
            {
                "start_time": 31.009090909090908,
                "end_time": 31.05909090909091,
                "pitch": 88,
                "velocity": 51,
                "duration": 0.05000000000000071,
                "tempo": 120.0
            },
            {
                "start_time": 31.127272727272725,
                "end_time": 31.177272727272726,
                "pitch": 89,
                "velocity": 51,
                "duration": 0.05000000000000071,
                "tempo": 120.0
            },
            {
                "start_time": 31.24772727272727,
                "end_time": 31.297727272727272,
                "pitch": 85,
                "velocity": 51,
                "duration": 0.05000000000000071,
                "tempo": 120.0
            },
            {
                "start_time": 31.368181818181817,
                "end_time": 31.418181818181818,
                "pitch": 86,
                "velocity": 51,
                "duration": 0.05000000000000071,
                "tempo": 120.0
            },
            {
                "start_time": 31.488636363636363,
                "end_time": 31.53863636363636,
                "pitch": 80,
                "velocity": 51,
                "duration": 0.04999999999999716,
                "tempo": 120.0
            },
            {
                "start_time": 31.609090909090906,
                "end_time": 31.659090909090907,
                "pitch": 81,
                "velocity": 51,
                "duration": 0.05000000000000071,
                "tempo": 120.0
            },
            {
                "start_time": 31.727272727272727,
                "end_time": 31.777272727272727,
                "pitch": 76,
                "velocity": 51,
                "duration": 0.05000000000000071,
                "tempo": 120.0
            },
            {
                "start_time": 31.829545454545453,
                "end_time": 31.893181818181816,
                "pitch": 77,
                "velocity": 51,
                "duration": 0.0636363636363626,
                "tempo": 120.0
            },
            {
                "start_time": 31.945454545454545,
                "end_time": 32.01136363636363,
                "pitch": 73,
                "velocity": 51,
                "duration": 0.06590909090908781,
                "tempo": 120.0
            },
            {
                "start_time": 32.06363636363636,
                "end_time": 32.12954545454545,
                "pitch": 74,
                "velocity": 51,
                "duration": 0.06590909090908781,
                "tempo": 120.0
            },
            {
                "start_time": 32.88409090909091,
                "end_time": 32.93181818181818,
                "pitch": 92,
                "velocity": 51,
                "duration": 0.04772727272727195,
                "tempo": 120.0
            },
            {
                "start_time": 33.0,
                "end_time": 33.05,
                "pitch": 93,
                "velocity": 51,
                "duration": 0.04999999999999716,
                "tempo": 120.0
            },
            {
                "start_time": 33.11818181818182,
                "end_time": 33.168181818181814,
                "pitch": 88,
                "velocity": 51,
                "duration": 0.04999999999999716,
                "tempo": 120.0
            },
            {
                "start_time": 33.236363636363635,
                "end_time": 33.28636363636363,
                "pitch": 89,
                "velocity": 51,
                "duration": 0.04999999999999716,
                "tempo": 120.0
            },
            {
                "start_time": 33.340909090909086,
                "end_time": 33.40681818181818,
                "pitch": 85,
                "velocity": 51,
                "duration": 0.06590909090909491,
                "tempo": 120.0
            },
            {
                "start_time": 33.45909090909091,
                "end_time": 33.527272727272724,
                "pitch": 86,
                "velocity": 51,
                "duration": 0.06818181818181301,
                "tempo": 120.0
            },
            {
                "start_time": 33.58181818181818,
                "end_time": 33.64545454545454,
                "pitch": 80,
                "velocity": 51,
                "duration": 0.0636363636363626,
                "tempo": 120.0
            },
            {
                "start_time": 33.695454545454545,
                "end_time": 33.75909090909091,
                "pitch": 81,
                "velocity": 51,
                "duration": 0.0636363636363626,
                "tempo": 120.0
            },
            {
                "start_time": 33.809090909090905,
                "end_time": 33.87272727272727,
                "pitch": 76,
                "velocity": 51,
                "duration": 0.0636363636363626,
                "tempo": 120.0
            },
            {
                "start_time": 33.92272727272727,
                "end_time": 33.98863636363636,
                "pitch": 77,
                "velocity": 51,
                "duration": 0.06590909090908781,
                "tempo": 120.0
            },
            {
                "start_time": 34.038636363636364,
                "end_time": 34.08863636363636,
                "pitch": 73,
                "velocity": 51,
                "duration": 0.04999999999999716,
                "tempo": 120.0
            },
            {
                "start_time": 34.15909090909091,
                "end_time": 34.20909090909091,
                "pitch": 74,
                "velocity": 51,
                "duration": 0.05000000000000426,
                "tempo": 120.0
            },
            {
                "start_time": 36.37272727272727,
                "end_time": 36.48409090909091,
                "pitch": 81,
                "velocity": 80,
                "duration": 0.11136363636364166,
                "tempo": 120.0
            },
            {
                "start_time": 36.48409090909091,
                "end_time": 36.56590909090909,
                "pitch": 83,
                "velocity": 80,
                "duration": 0.08181818181817846,
                "tempo": 120.0
            }
        ],
        "Trumpet": [
            {
                "start_time": 0.07727272727272727,
                "end_time": 1.4886363636363635,
                "pitch": 45,
                "velocity": 80,
                "duration": 1.4113636363636362,
                "tempo": 120.0
            },
            {
                "start_time": 1.4886363636363635,
                "end_time": 2.8863636363636362,
                "pitch": 33,
                "velocity": 80,
                "duration": 1.3977272727272727,
                "tempo": 120.0
            },
            {
                "start_time": 2.8886363636363637,
                "end_time": 4.277272727272727,
                "pitch": 38,
                "velocity": 80,
                "duration": 1.3886363636363637,
                "tempo": 120.0
            },
            {
                "start_time": 4.279545454545454,
                "end_time": 4.3977272727272725,
                "pitch": 33,
                "velocity": 80,
                "duration": 0.11818181818181817,
                "tempo": 120.0
            },
            {
                "start_time": 4.3977272727272725,
                "end_time": 4.518181818181818,
                "pitch": 35,
                "velocity": 80,
                "duration": 0.12045454545454515,
                "tempo": 120.0
            },
            {
                "start_time": 4.518181818181818,
                "end_time": 4.638636363636364,
                "pitch": 36,
                "velocity": 80,
                "duration": 0.12045454545454604,
                "tempo": 120.0
            },
            {
                "start_time": 4.638636363636364,
                "end_time": 5.677272727272727,
                "pitch": 38,
                "velocity": 80,
                "duration": 1.0386363636363631,
                "tempo": 120.0
            },
            {
                "start_time": 5.677272727272727,
                "end_time": 7.0681818181818175,
                "pitch": 39,
                "velocity": 80,
                "duration": 1.3909090909090907,
                "tempo": 120.0
            },
            {
                "start_time": 7.0681818181818175,
                "end_time": 8.459090909090909,
                "pitch": 37,
                "velocity": 80,
                "duration": 1.3909090909090915,
                "tempo": 120.0
            },
            {
                "start_time": 8.459090909090909,
                "end_time": 9.85909090909091,
                "pitch": 38,
                "velocity": 80,
                "duration": 1.4000000000000004,
                "tempo": 120.0
            },
            {
                "start_time": 9.85909090909091,
                "end_time": 10.338636363636363,
                "pitch": 38,
                "velocity": 80,
                "duration": 0.4795454545454536,
                "tempo": 120.0
            },
            {
                "start_time": 10.338636363636363,
                "end_time": 11.274999999999999,
                "pitch": 57,
                "velocity": 64,
                "duration": 0.9363636363636356,
                "tempo": 120.0
            },
            {
                "start_time": 11.274999999999999,
                "end_time": 12.665909090909091,
                "pitch": 45,
                "velocity": 80,
                "duration": 1.3909090909090924,
                "tempo": 120.0
            },
            {
                "start_time": 12.665909090909091,
                "end_time": 14.077272727272726,
                "pitch": 33,
                "velocity": 80,
                "duration": 1.4113636363636353,
                "tempo": 120.0
            },
            {
                "start_time": 14.077272727272726,
                "end_time": 15.46590909090909,
                "pitch": 38,
                "velocity": 80,
                "duration": 1.3886363636363637,
                "tempo": 120.0
            },
            {
                "start_time": 15.46590909090909,
                "end_time": 15.58181818181818,
                "pitch": 33,
                "velocity": 80,
                "duration": 0.1159090909090903,
                "tempo": 120.0
            },
            {
                "start_time": 15.584090909090909,
                "end_time": 15.7,
                "pitch": 35,
                "velocity": 80,
                "duration": 0.1159090909090903,
                "tempo": 120.0
            },
            {
                "start_time": 15.7,
                "end_time": 15.818181818181817,
                "pitch": 36,
                "velocity": 80,
                "duration": 0.11818181818181728,
                "tempo": 120.0
            },
            {
                "start_time": 15.818181818181817,
                "end_time": 16.86590909090909,
                "pitch": 38,
                "velocity": 80,
                "duration": 1.047727272727272,
                "tempo": 120.0
            },
            {
                "start_time": 16.86590909090909,
                "end_time": 18.26590909090909,
                "pitch": 39,
                "velocity": 80,
                "duration": 1.4000000000000021,
                "tempo": 120.0
            },
            {
                "start_time": 18.26590909090909,
                "end_time": 19.65681818181818,
                "pitch": 37,
                "velocity": 80,
                "duration": 1.3909090909090907,
                "tempo": 120.0
            },
            {
                "start_time": 19.65681818181818,
                "end_time": 21.05681818181818,
                "pitch": 38,
                "velocity": 80,
                "duration": 1.3999999999999986,
                "tempo": 120.0
            },
            {
                "start_time": 21.05909090909091,
                "end_time": 21.534090909090907,
                "pitch": 38,
                "velocity": 80,
                "duration": 0.47499999999999787,
                "tempo": 120.0
            },
            {
                "start_time": 21.534090909090907,
                "end_time": 22.44772727272727,
                "pitch": 57,
                "velocity": 64,
                "duration": 0.913636363636364,
                "tempo": 120.0
            },
            {
                "start_time": 22.44772727272727,
                "end_time": 22.48181818181818,
                "pitch": 45,
                "velocity": 101,
                "duration": 0.03409090909091006,
                "tempo": 120.0
            },
            {
                "start_time": 22.48181818181818,
                "end_time": 22.534090909090907,
                "pitch": 33,
                "velocity": 101,
                "duration": 0.052272727272725916,
                "tempo": 120.0
            },
            {
                "start_time": 22.534090909090907,
                "end_time": 22.568181818181817,
                "pitch": 45,
                "velocity": 101,
                "duration": 0.03409090909091006,
                "tempo": 120.0
            },
            {
                "start_time": 22.568181818181817,
                "end_time": 22.602272727272727,
                "pitch": 33,
                "velocity": 101,
                "duration": 0.03409090909091006,
                "tempo": 120.0
            },
            {
                "start_time": 22.602272727272727,
                "end_time": 22.652272727272727,
                "pitch": 45,
                "velocity": 101,
                "duration": 0.05000000000000071,
                "tempo": 120.0
            },
            {
                "start_time": 22.652272727272727,
                "end_time": 22.686363636363634,
                "pitch": 33,
                "velocity": 101,
                "duration": 0.03409090909090651,
                "tempo": 120.0
            },
            {
                "start_time": 22.686363636363634,
                "end_time": 22.722727272727273,
                "pitch": 45,
                "velocity": 101,
                "duration": 0.03636363636363882,
                "tempo": 120.0
            },
            {
                "start_time": 22.722727272727273,
                "end_time": 22.772727272727273,
                "pitch": 33,
                "velocity": 101,
                "duration": 0.05000000000000071,
                "tempo": 120.0
            },
            {
                "start_time": 22.772727272727273,
                "end_time": 22.80681818181818,
                "pitch": 45,
                "velocity": 101,
                "duration": 0.03409090909090651,
                "tempo": 120.0
            },
            {
                "start_time": 22.80681818181818,
                "end_time": 22.84090909090909,
                "pitch": 33,
                "velocity": 101,
                "duration": 0.03409090909091006,
                "tempo": 120.0
            },
            {
                "start_time": 22.84090909090909,
                "end_time": 22.89090909090909,
                "pitch": 45,
                "velocity": 101,
                "duration": 0.05000000000000071,
                "tempo": 120.0
            },
            {
                "start_time": 22.89090909090909,
                "end_time": 22.924999999999997,
                "pitch": 33,
                "velocity": 101,
                "duration": 0.03409090909090651,
                "tempo": 120.0
            },
            {
                "start_time": 22.924999999999997,
                "end_time": 22.956818181818182,
                "pitch": 45,
                "velocity": 101,
                "duration": 0.031818181818184854,
                "tempo": 120.0
            },
            {
                "start_time": 22.956818181818182,
                "end_time": 22.99090909090909,
                "pitch": 33,
                "velocity": 101,
                "duration": 0.03409090909090651,
                "tempo": 120.0
            },
            {
                "start_time": 22.99090909090909,
                "end_time": 23.038636363636364,
                "pitch": 45,
                "velocity": 101,
                "duration": 0.047727272727275505,
                "tempo": 120.0
            },
            {
                "start_time": 23.038636363636364,
                "end_time": 23.07272727272727,
                "pitch": 33,
                "velocity": 101,
                "duration": 0.03409090909090651,
                "tempo": 120.0
            },
            {
                "start_time": 23.07272727272727,
                "end_time": 23.104545454545452,
                "pitch": 45,
                "velocity": 101,
                "duration": 0.0318181818181813,
                "tempo": 120.0
            },
            {
                "start_time": 23.104545454545452,
                "end_time": 23.152272727272727,
                "pitch": 33,
                "velocity": 101,
                "duration": 0.047727272727275505,
                "tempo": 120.0
            },
            {
                "start_time": 23.152272727272727,
                "end_time": 23.186363636363634,
                "pitch": 45,
                "velocity": 101,
                "duration": 0.03409090909090651,
                "tempo": 120.0
            },
            {
                "start_time": 23.186363636363634,
                "end_time": 23.21818181818182,
                "pitch": 33,
                "velocity": 101,
                "duration": 0.031818181818184854,
                "tempo": 120.0
            },
            {
                "start_time": 23.21818181818182,
                "end_time": 23.268181818181816,
                "pitch": 45,
                "velocity": 101,
                "duration": 0.04999999999999716,
                "tempo": 120.0
            },
            {
                "start_time": 23.268181818181816,
                "end_time": 23.299999999999997,
                "pitch": 33,
                "velocity": 101,
                "duration": 0.0318181818181813,
                "tempo": 120.0
            },
            {
                "start_time": 23.299999999999997,
                "end_time": 23.334090909090907,
                "pitch": 45,
                "velocity": 101,
                "duration": 0.03409090909091006,
                "tempo": 120.0
            },
            {
                "start_time": 23.334090909090907,
                "end_time": 23.384090909090908,
                "pitch": 33,
                "velocity": 101,
                "duration": 0.05000000000000071,
                "tempo": 120.0
            },
            {
                "start_time": 23.384090909090908,
                "end_time": 23.418181818181818,
                "pitch": 45,
                "velocity": 101,
                "duration": 0.03409090909091006,
                "tempo": 120.0
            },
            {
                "start_time": 23.418181818181818,
                "end_time": 23.45,
                "pitch": 33,
                "velocity": 101,
                "duration": 0.0318181818181813,
                "tempo": 120.0
            },
            {
                "start_time": 23.45,
                "end_time": 23.48409090909091,
                "pitch": 45,
                "velocity": 101,
                "duration": 0.03409090909091006,
                "tempo": 120.0
            },
            {
                "start_time": 23.48409090909091,
                "end_time": 23.534090909090907,
                "pitch": 33,
                "velocity": 101,
                "duration": 0.04999999999999716,
                "tempo": 120.0
            },
            {
                "start_time": 23.534090909090907,
                "end_time": 23.568181818181817,
                "pitch": 45,
                "velocity": 101,
                "duration": 0.03409090909091006,
                "tempo": 120.0
            },
            {
                "start_time": 23.568181818181817,
                "end_time": 23.602272727272727,
                "pitch": 33,
                "velocity": 101,
                "duration": 0.03409090909091006,
                "tempo": 120.0
            },
            {
                "start_time": 23.602272727272727,
                "end_time": 23.652272727272727,
                "pitch": 45,
                "velocity": 101,
                "duration": 0.05000000000000071,
                "tempo": 120.0
            },
            {
                "start_time": 23.652272727272727,
                "end_time": 23.686363636363634,
                "pitch": 33,
                "velocity": 101,
                "duration": 0.03409090909090651,
                "tempo": 120.0
            },
            {
                "start_time": 23.686363636363634,
                "end_time": 23.71818181818182,
                "pitch": 45,
                "velocity": 101,
                "duration": 0.031818181818184854,
                "tempo": 120.0
            },
            {
                "start_time": 23.71818181818182,
                "end_time": 23.768181818181816,
                "pitch": 33,
                "velocity": 101,
                "duration": 0.04999999999999716,
                "tempo": 120.0
            },
            {
                "start_time": 23.768181818181816,
                "end_time": 23.802272727272726,
                "pitch": 45,
                "velocity": 101,
                "duration": 0.03409090909091006,
                "tempo": 120.0
            },
            {
                "start_time": 23.802272727272726,
                "end_time": 23.83863636363636,
                "pitch": 33,
                "velocity": 101,
                "duration": 0.036363636363635266,
                "tempo": 120.0
            },
            {
                "start_time": 23.83863636363636,
                "end_time": 23.89090909090909,
                "pitch": 38,
                "velocity": 101,
                "duration": 0.05227272727272947,
                "tempo": 120.0
            },
            {
                "start_time": 23.89090909090909,
                "end_time": 23.924999999999997,
                "pitch": 26,
                "velocity": 101,
                "duration": 0.03409090909090651,
                "tempo": 120.0
            },
            {
                "start_time": 23.924999999999997,
                "end_time": 23.961363636363636,
                "pitch": 38,
                "velocity": 101,
                "duration": 0.03636363636363882,
                "tempo": 120.0
            },
            {
                "start_time": 23.961363636363636,
                "end_time": 23.995454545454546,
                "pitch": 26,
                "velocity": 101,
                "duration": 0.03409090909091006,
                "tempo": 120.0
            },
            {
                "start_time": 23.995454545454546,
                "end_time": 24.047727272727272,
                "pitch": 38,
                "velocity": 101,
                "duration": 0.052272727272725916,
                "tempo": 120.0
            },
            {
                "start_time": 24.047727272727272,
                "end_time": 24.084090909090907,
                "pitch": 26,
                "velocity": 101,
                "duration": 0.036363636363635266,
                "tempo": 120.0
            },
            {
                "start_time": 24.084090909090907,
                "end_time": 24.118181818181817,
                "pitch": 38,
                "velocity": 101,
                "duration": 0.03409090909091006,
                "tempo": 120.0
            },
            {
                "start_time": 24.118181818181817,
                "end_time": 24.172727272727272,
                "pitch": 26,
                "velocity": 101,
                "duration": 0.054545454545454675,
                "tempo": 120.0
            },
            {
                "start_time": 24.172727272727272,
                "end_time": 24.206818181818182,
                "pitch": 38,
                "velocity": 101,
                "duration": 0.03409090909091006,
                "tempo": 120.0
            },
            {
                "start_time": 24.206818181818182,
                "end_time": 24.24090909090909,
                "pitch": 26,
                "velocity": 101,
                "duration": 0.03409090909090651,
                "tempo": 120.0
            },
            {
                "start_time": 24.24090909090909,
                "end_time": 24.293181818181818,
                "pitch": 38,
                "velocity": 101,
                "duration": 0.05227272727272947,
                "tempo": 120.0
            },
            {
                "start_time": 24.293181818181818,
                "end_time": 24.325,
                "pitch": 26,
                "velocity": 101,
                "duration": 0.0318181818181813,
                "tempo": 120.0
            },
            {
                "start_time": 24.325,
                "end_time": 24.35909090909091,
                "pitch": 38,
                "velocity": 101,
                "duration": 0.03409090909091006,
                "tempo": 120.0
            },
            {
                "start_time": 24.35909090909091,
                "end_time": 24.40681818181818,
                "pitch": 26,
                "velocity": 101,
                "duration": 0.04772727272727195,
                "tempo": 120.0
            },
            {
                "start_time": 24.40681818181818,
                "end_time": 24.44090909090909,
                "pitch": 38,
                "velocity": 101,
                "duration": 0.03409090909091006,
                "tempo": 120.0
            },
            {
                "start_time": 24.44090909090909,
                "end_time": 24.472727272727273,
                "pitch": 26,
                "velocity": 101,
                "duration": 0.0318181818181813,
                "tempo": 120.0
            },
            {
                "start_time": 24.472727272727273,
                "end_time": 24.504545454545454,
                "pitch": 38,
                "velocity": 101,
                "duration": 0.0318181818181813,
                "tempo": 120.0
            },
            {
                "start_time": 24.504545454545454,
                "end_time": 24.554545454545455,
                "pitch": 26,
                "velocity": 101,
                "duration": 0.05000000000000071,
                "tempo": 120.0
            },
            {
                "start_time": 24.554545454545455,
                "end_time": 24.586363636363636,
                "pitch": 38,
                "velocity": 101,
                "duration": 0.0318181818181813,
                "tempo": 120.0
            },
            {
                "start_time": 24.586363636363636,
                "end_time": 24.620454545454542,
                "pitch": 26,
                "velocity": 101,
                "duration": 0.03409090909090651,
                "tempo": 120.0
            },
            {
                "start_time": 24.620454545454542,
                "end_time": 24.668181818181818,
                "pitch": 38,
                "velocity": 101,
                "duration": 0.047727272727275505,
                "tempo": 120.0
            },
            {
                "start_time": 24.668181818181818,
                "end_time": 24.702272727272724,
                "pitch": 26,
                "velocity": 101,
                "duration": 0.03409090909090651,
                "tempo": 120.0
            },
            {
                "start_time": 24.702272727272724,
                "end_time": 24.73409090909091,
                "pitch": 38,
                "velocity": 101,
                "duration": 0.031818181818184854,
                "tempo": 120.0
            },
            {
                "start_time": 24.73409090909091,
                "end_time": 24.784090909090907,
                "pitch": 26,
                "velocity": 101,
                "duration": 0.04999999999999716,
                "tempo": 120.0
            },
            {
                "start_time": 24.784090909090907,
                "end_time": 24.818181818181817,
                "pitch": 38,
                "velocity": 101,
                "duration": 0.03409090909091006,
                "tempo": 120.0
            },
            {
                "start_time": 24.818181818181817,
                "end_time": 24.852272727272727,
                "pitch": 26,
                "velocity": 101,
                "duration": 0.03409090909091006,
                "tempo": 120.0
            },
            {
                "start_time": 24.852272727272727,
                "end_time": 24.902272727272727,
                "pitch": 38,
                "velocity": 101,
                "duration": 0.05000000000000071,
                "tempo": 120.0
            },
            {
                "start_time": 24.902272727272727,
                "end_time": 24.936363636363634,
                "pitch": 26,
                "velocity": 101,
                "duration": 0.03409090909090651,
                "tempo": 120.0
            },
            {
                "start_time": 24.936363636363634,
                "end_time": 24.96818181818182,
                "pitch": 38,
                "velocity": 101,
                "duration": 0.031818181818184854,
                "tempo": 120.0
            },
            {
                "start_time": 24.96818181818182,
                "end_time": 25.002272727272725,
                "pitch": 26,
                "velocity": 101,
                "duration": 0.03409090909090651,
                "tempo": 120.0
            },
            {
                "start_time": 25.002272727272725,
                "end_time": 25.052272727272726,
                "pitch": 38,
                "velocity": 101,
                "duration": 0.05000000000000071,
                "tempo": 120.0
            },
            {
                "start_time": 25.052272727272726,
                "end_time": 25.086363636363636,
                "pitch": 26,
                "velocity": 101,
                "duration": 0.03409090909091006,
                "tempo": 120.0
            },
            {
                "start_time": 25.086363636363636,
                "end_time": 25.120454545454542,
                "pitch": 38,
                "velocity": 101,
                "duration": 0.03409090909090651,
                "tempo": 120.0
            },
            {
                "start_time": 25.120454545454542,
                "end_time": 25.170454545454543,
                "pitch": 26,
                "velocity": 101,
                "duration": 0.05000000000000071,
                "tempo": 120.0
            },
            {
                "start_time": 25.170454545454543,
                "end_time": 25.204545454545453,
                "pitch": 38,
                "velocity": 101,
                "duration": 0.03409090909091006,
                "tempo": 120.0
            },
            {
                "start_time": 25.204545454545453,
                "end_time": 25.238636363636363,
                "pitch": 26,
                "velocity": 101,
                "duration": 0.03409090909091006,
                "tempo": 120.0
            },
            {
                "start_time": 36.43636363636364,
                "end_time": 36.56590909090909,
                "pitch": 45,
                "velocity": 80,
                "duration": 0.1295454545454504,
                "tempo": 120.0
            }
        ],
        "Acoustic Guitar (nylon)": [
            {
                "start_time": 25.238636363636363,
                "end_time": 25.30681818181818,
                "pitch": 74,
                "velocity": 51,
                "duration": 0.06818181818181657,
                "tempo": 120.0
            },
            {
                "start_time": 25.30909090909091,
                "end_time": 25.35909090909091,
                "pitch": 74,
                "velocity": 25,
                "duration": 0.05000000000000071,
                "tempo": 120.0
            },
            {
                "start_time": 25.35909090909091,
                "end_time": 25.427272727272726,
                "pitch": 69,
                "velocity": 51,
                "duration": 0.06818181818181657,
                "tempo": 120.0
            },
            {
                "start_time": 25.427272727272726,
                "end_time": 25.479545454545452,
                "pitch": 74,
                "velocity": 25,
                "duration": 0.052272727272725916,
                "tempo": 120.0
            },
            {
                "start_time": 25.479545454545452,
                "end_time": 25.547727272727272,
                "pitch": 65,
                "velocity": 51,
                "duration": 0.06818181818182012,
                "tempo": 120.0
            },
            {
                "start_time": 25.547727272727272,
                "end_time": 25.597727272727273,
                "pitch": 69,
                "velocity": 25,
                "duration": 0.05000000000000071,
                "tempo": 120.0
            },
            {
                "start_time": 25.599999999999998,
                "end_time": 25.668181818181818,
                "pitch": 72,
                "velocity": 51,
                "duration": 0.06818181818182012,
                "tempo": 120.0
            },
            {
                "start_time": 25.668181818181818,
                "end_time": 25.71818181818182,
                "pitch": 65,
                "velocity": 25,
                "duration": 0.05000000000000071,
                "tempo": 120.0
            },
            {
                "start_time": 25.71818181818182,
                "end_time": 25.73409090909091,
                "pitch": 67,
                "velocity": 51,
                "duration": 0.01590909090909065,
                "tempo": 120.0
            },
            {
                "start_time": 25.73409090909091,
                "end_time": 25.770454545454545,
                "pitch": 67,
                "velocity": 51,
                "duration": 0.036363636363635266,
                "tempo": 120.0
            },
            {
                "start_time": 25.770454545454545,
                "end_time": 25.83863636363636,
                "pitch": 72,
                "velocity": 25,
                "duration": 0.06818181818181657,
                "tempo": 120.0
            },
            {
                "start_time": 25.83863636363636,
                "end_time": 25.89090909090909,
                "pitch": 64,
                "velocity": 51,
                "duration": 0.05227272727272947,
                "tempo": 120.0
            },
            {
                "start_time": 25.89090909090909,
                "end_time": 25.94090909090909,
                "pitch": 67,
                "velocity": 25,
                "duration": 0.05000000000000071,
                "tempo": 120.0
            },
            {
                "start_time": 25.73409090909091,
                "end_time": 25.94090909090909,
                "pitch": 79,
                "velocity": 51,
                "duration": 0.206818181818182,
                "tempo": 120.0
            },
            {
                "start_time": 25.94090909090909,
                "end_time": 25.959090909090907,
                "pitch": 67,
                "velocity": 25,
                "duration": 0.018181818181815856,
                "tempo": 120.0
            },
            {
                "start_time": 25.959090909090907,
                "end_time": 26.011363636363637,
                "pitch": 70,
                "velocity": 51,
                "duration": 0.05227272727272947,
                "tempo": 120.0
            },
            {
                "start_time": 26.011363636363637,
                "end_time": 26.077272727272724,
                "pitch": 64,
                "velocity": 25,
                "duration": 0.06590909090908781,
                "tempo": 120.0
            },
            {
                "start_time": 26.079545454545453,
                "end_time": 26.129545454545454,
                "pitch": 65,
                "velocity": 51,
                "duration": 0.05000000000000071,
                "tempo": 120.0
            },
            {
                "start_time": 26.129545454545454,
                "end_time": 26.195454545454545,
                "pitch": 70,
                "velocity": 25,
                "duration": 0.06590909090909136,
                "tempo": 120.0
            },
            {
                "start_time": 26.195454545454545,
                "end_time": 26.245454545454542,
                "pitch": 62,
                "velocity": 51,
                "duration": 0.04999999999999716,
                "tempo": 120.0
            },
            {
                "start_time": 26.245454545454542,
                "end_time": 26.30909090909091,
                "pitch": 65,
                "velocity": 25,
                "duration": 0.06363636363636616,
                "tempo": 120.0
            },
            {
                "start_time": 26.311363636363634,
                "end_time": 26.35909090909091,
                "pitch": 65,
                "velocity": 51,
                "duration": 0.047727272727275505,
                "tempo": 120.0
            },
            {
                "start_time": 26.35909090909091,
                "end_time": 26.424999999999997,
                "pitch": 62,
                "velocity": 25,
                "duration": 0.06590909090908781,
                "tempo": 120.0
            },
            {
                "start_time": 26.424999999999997,
                "end_time": 26.474999999999998,
                "pitch": 64,
                "velocity": 51,
                "duration": 0.05000000000000071,
                "tempo": 120.0
            },
            {
                "start_time": 26.474999999999998,
                "end_time": 26.52272727272727,
                "pitch": 65,
                "velocity": 25,
                "duration": 0.04772727272727195,
                "tempo": 120.0
            },
            {
                "start_time": 26.52272727272727,
                "end_time": 26.58863636363636,
                "pitch": 69,
                "velocity": 51,
                "duration": 0.06590909090909136,
                "tempo": 120.0
            },
            {
                "start_time": 26.59090909090909,
                "end_time": 26.638636363636362,
                "pitch": 64,
                "velocity": 25,
                "duration": 0.04772727272727195,
                "tempo": 120.0
            },
            {
                "start_time": 26.638636363636362,
                "end_time": 26.879545454545454,
                "pitch": 65,
                "velocity": 51,
                "duration": 0.24090909090909207,
                "tempo": 120.0
            },
            {
                "start_time": 26.879545454545454,
                "end_time": 27.118181818181817,
                "pitch": 65,
                "velocity": 25,
                "duration": 0.2386363636363633,
                "tempo": 120.0
            },
            {
                "start_time": 27.118181818181817,
                "end_time": 27.352272727272727,
                "pitch": 64,
                "velocity": 51,
                "duration": 0.23409090909090935,
                "tempo": 120.0
            },
            {
                "start_time": 27.352272727272727,
                "end_time": 27.584090909090907,
                "pitch": 64,
                "velocity": 25,
                "duration": 0.2318181818181806,
                "tempo": 120.0
            },
            {
                "start_time": 27.584090909090907,
                "end_time": 27.7,
                "pitch": 65,
                "velocity": 51,
                "duration": 0.11590909090909207,
                "tempo": 120.0
            },
            {
                "start_time": 27.7,
                "end_time": 27.813636363636363,
                "pitch": 64,
                "velocity": 25,
                "duration": 0.11363636363636331,
                "tempo": 120.0
            },
            {
                "start_time": 27.813636363636363,
                "end_time": 27.863636363636363,
                "pitch": 67,
                "velocity": 51,
                "duration": 0.05000000000000071,
                "tempo": 120.0
            },
            {
                "start_time": 25.94090909090909,
                "end_time": 27.863636363636363,
                "pitch": 79,
                "velocity": 25,
                "duration": 1.922727272727272,
                "tempo": 120.0
            },
            {
                "start_time": 27.863636363636363,
                "end_time": 27.927272727272726,
                "pitch": 67,
                "velocity": 51,
                "duration": 0.0636363636363626,
                "tempo": 120.0
            },
            {
                "start_time": 27.929545454545455,
                "end_time": 28.029545454545453,
                "pitch": 65,
                "velocity": 25,
                "duration": 0.09999999999999787,
                "tempo": 120.0
            },
            {
                "start_time": 28.029545454545453,
                "end_time": 28.097727272727273,
                "pitch": 74,
                "velocity": 51,
                "duration": 0.06818181818182012,
                "tempo": 120.0
            },
            {
                "start_time": 28.097727272727273,
                "end_time": 28.15,
                "pitch": 74,
                "velocity": 25,
                "duration": 0.052272727272725916,
                "tempo": 120.0
            },
            {
                "start_time": 28.15,
                "end_time": 28.218181818181815,
                "pitch": 69,
                "velocity": 51,
                "duration": 0.06818181818181657,
                "tempo": 120.0
            },
            {
                "start_time": 28.218181818181815,
                "end_time": 28.268181818181816,
                "pitch": 74,
                "velocity": 25,
                "duration": 0.05000000000000071,
                "tempo": 120.0
            },
            {
                "start_time": 28.268181818181816,
                "end_time": 28.33863636363636,
                "pitch": 65,
                "velocity": 51,
                "duration": 0.07045454545454533,
                "tempo": 120.0
            },
            {
                "start_time": 28.33863636363636,
                "end_time": 28.388636363636362,
                "pitch": 69,
                "velocity": 25,
                "duration": 0.05000000000000071,
                "tempo": 120.0
            },
            {
                "start_time": 28.388636363636362,
                "end_time": 28.459090909090907,
                "pitch": 72,
                "velocity": 51,
                "duration": 0.07045454545454533,
                "tempo": 120.0
            },
            {
                "start_time": 28.459090909090907,
                "end_time": 28.509090909090908,
                "pitch": 65,
                "velocity": 25,
                "duration": 0.05000000000000071,
                "tempo": 120.0
            },
            {
                "start_time": 28.509090909090908,
                "end_time": 28.577272727272724,
                "pitch": 67,
                "velocity": 51,
                "duration": 0.06818181818181657,
                "tempo": 120.0
            },
            {
                "start_time": 28.579545454545453,
                "end_time": 28.629545454545454,
                "pitch": 72,
                "velocity": 25,
                "duration": 0.05000000000000071,
                "tempo": 120.0
            },
            {
                "start_time": 28.629545454545454,
                "end_time": 28.69772727272727,
                "pitch": 64,
                "velocity": 51,
                "duration": 0.06818181818181657,
                "tempo": 120.0
            },
            {
                "start_time": 27.863636363636363,
                "end_time": 28.69772727272727,
                "pitch": 79,
                "velocity": 51,
                "duration": 0.8340909090909072,
                "tempo": 120.0
            },
            {
                "start_time": 28.69772727272727,
                "end_time": 28.74772727272727,
                "pitch": 67,
                "velocity": 25,
                "duration": 0.05000000000000071,
                "tempo": 120.0
            },
            {
                "start_time": 28.69772727272727,
                "end_time": 28.74772727272727,
                "pitch": 67,
                "velocity": 25,
                "duration": 0.05000000000000071,
                "tempo": 120.0
            },
            {
                "start_time": 28.75,
                "end_time": 28.799999999999997,
                "pitch": 70,
                "velocity": 51,
                "duration": 0.04999999999999716,
                "tempo": 120.0
            },
            {
                "start_time": 28.799999999999997,
                "end_time": 28.868181818181817,
                "pitch": 64,
                "velocity": 25,
                "duration": 0.06818181818182012,
                "tempo": 120.0
            },
            {
                "start_time": 28.868181818181817,
                "end_time": 28.920454545454543,
                "pitch": 65,
                "velocity": 51,
                "duration": 0.052272727272725916,
                "tempo": 120.0
            },
            {
                "start_time": 28.920454545454543,
                "end_time": 28.986363636363635,
                "pitch": 70,
                "velocity": 25,
                "duration": 0.06590909090909136,
                "tempo": 120.0
            },
            {
                "start_time": 28.986363636363635,
                "end_time": 29.036363636363635,
                "pitch": 62,
                "velocity": 51,
                "duration": 0.05000000000000071,
                "tempo": 120.0
            },
            {
                "start_time": 29.036363636363635,
                "end_time": 29.099999999999998,
                "pitch": 65,
                "velocity": 25,
                "duration": 0.0636363636363626,
                "tempo": 120.0
            },
            {
                "start_time": 29.099999999999998,
                "end_time": 29.15,
                "pitch": 65,
                "velocity": 51,
                "duration": 0.05000000000000071,
                "tempo": 120.0
            },
            {
                "start_time": 29.15,
                "end_time": 29.21590909090909,
                "pitch": 62,
                "velocity": 25,
                "duration": 0.06590909090909136,
                "tempo": 120.0
            },
            {
                "start_time": 29.21590909090909,
                "end_time": 29.263636363636362,
                "pitch": 64,
                "velocity": 51,
                "duration": 0.04772727272727195,
                "tempo": 120.0
            },
            {
                "start_time": 29.263636363636362,
                "end_time": 29.329545454545453,
                "pitch": 65,
                "velocity": 25,
                "duration": 0.06590909090909136,
                "tempo": 120.0
            },
            {
                "start_time": 29.329545454545453,
                "end_time": 29.379545454545454,
                "pitch": 69,
                "velocity": 51,
                "duration": 0.05000000000000071,
                "tempo": 120.0
            },
            {
                "start_time": 29.379545454545454,
                "end_time": 29.445454545454545,
                "pitch": 64,
                "velocity": 25,
                "duration": 0.06590909090909136,
                "tempo": 120.0
            },
            {
                "start_time": 29.445454545454545,
                "end_time": 29.547727272727272,
                "pitch": 65,
                "velocity": 51,
                "duration": 0.10227272727272663,
                "tempo": 120.0
            },
            {
                "start_time": 29.549999999999997,
                "end_time": 29.668181818181818,
                "pitch": 69,
                "velocity": 25,
                "duration": 0.11818181818182083,
                "tempo": 120.0
            },
            {
                "start_time": 29.668181818181818,
                "end_time": 29.78863636363636,
                "pitch": 65,
                "velocity": 51,
                "duration": 0.12045454545454248,
                "tempo": 120.0
            },
            {
                "start_time": 29.78863636363636,
                "end_time": 29.90681818181818,
                "pitch": 65,
                "velocity": 25,
                "duration": 0.11818181818182083,
                "tempo": 120.0
            },
            {
                "start_time": 29.909090909090907,
                "end_time": 30.025,
                "pitch": 64,
                "velocity": 51,
                "duration": 0.11590909090909207,
                "tempo": 120.0
            },
            {
                "start_time": 30.025,
                "end_time": 30.14090909090909,
                "pitch": 65,
                "velocity": 25,
                "duration": 0.11590909090909207,
                "tempo": 120.0
            },
            {
                "start_time": 30.143181818181816,
                "end_time": 30.259090909090908,
                "pitch": 65,
                "velocity": 51,
                "duration": 0.11590909090909207,
                "tempo": 120.0
            },
            {
                "start_time": 30.259090909090908,
                "end_time": 30.375,
                "pitch": 64,
                "velocity": 25,
                "duration": 0.11590909090909207,
                "tempo": 120.0
            },
            {
                "start_time": 30.375,
                "end_time": 30.424999999999997,
                "pitch": 74,
                "velocity": 51,
                "duration": 0.04999999999999716,
                "tempo": 120.0
            },
            {
                "start_time": 30.424999999999997,
                "end_time": 30.49090909090909,
                "pitch": 65,
                "velocity": 25,
                "duration": 0.06590909090909136,
                "tempo": 120.0
            },
            {
                "start_time": 30.49090909090909,
                "end_time": 30.53863636363636,
                "pitch": 69,
                "velocity": 51,
                "duration": 0.04772727272727195,
                "tempo": 120.0
            },
            {
                "start_time": 30.54090909090909,
                "end_time": 30.604545454545452,
                "pitch": 74,
                "velocity": 25,
                "duration": 0.0636363636363626,
                "tempo": 120.0
            },
            {
                "start_time": 30.604545454545452,
                "end_time": 30.654545454545453,
                "pitch": 65,
                "velocity": 51,
                "duration": 0.05000000000000071,
                "tempo": 120.0
            },
            {
                "start_time": 30.654545454545453,
                "end_time": 30.718181818181815,
                "pitch": 69,
                "velocity": 25,
                "duration": 0.0636363636363626,
                "tempo": 120.0
            },
            {
                "start_time": 30.718181818181815,
                "end_time": 30.770454545454545,
                "pitch": 62,
                "velocity": 51,
                "duration": 0.05227272727272947,
                "tempo": 120.0
            },
            {
                "start_time": 30.770454545454545,
                "end_time": 30.836363636363636,
                "pitch": 65,
                "velocity": 25,
                "duration": 0.06590909090909136,
                "tempo": 120.0
            },
            {
                "start_time": 30.836363636363636,
                "end_time": 30.888636363636362,
                "pitch": 74,
                "velocity": 51,
                "duration": 0.052272727272725916,
                "tempo": 120.0
            },
            {
                "start_time": 30.89090909090909,
                "end_time": 30.956818181818182,
                "pitch": 74,
                "velocity": 25,
                "duration": 0.06590909090909136,
                "tempo": 120.0
            },
            {
                "start_time": 30.956818181818182,
                "end_time": 31.009090909090908,
                "pitch": 69,
                "velocity": 51,
                "duration": 0.052272727272725916,
                "tempo": 120.0
            },
            {
                "start_time": 31.009090909090908,
                "end_time": 31.05909090909091,
                "pitch": 74,
                "velocity": 25,
                "duration": 0.05000000000000071,
                "tempo": 120.0
            },
            {
                "start_time": 31.05909090909091,
                "end_time": 31.129545454545454,
                "pitch": 65,
                "velocity": 51,
                "duration": 0.07045454545454533,
                "tempo": 120.0
            },
            {
                "start_time": 31.129545454545454,
                "end_time": 31.179545454545455,
                "pitch": 69,
                "velocity": 25,
                "duration": 0.05000000000000071,
                "tempo": 120.0
            },
            {
                "start_time": 31.179545454545455,
                "end_time": 31.25,
                "pitch": 72,
                "velocity": 51,
                "duration": 0.07045454545454533,
                "tempo": 120.0
            },
            {
                "start_time": 31.25,
                "end_time": 31.299999999999997,
                "pitch": 65,
                "velocity": 25,
                "duration": 0.04999999999999716,
                "tempo": 120.0
            },
            {
                "start_time": 31.299999999999997,
                "end_time": 31.368181818181817,
                "pitch": 67,
                "velocity": 51,
                "duration": 0.06818181818182012,
                "tempo": 120.0
            },
            {
                "start_time": 28.69772727272727,
                "end_time": 31.368181818181817,
                "pitch": 79,
                "velocity": 25,
                "duration": 2.6704545454545467,
                "tempo": 120.0
            },
            {
                "start_time": 31.368181818181817,
                "end_time": 31.370454545454542,
                "pitch": 67,
                "velocity": 51,
                "duration": 0.0022727272727252057,
                "tempo": 120.0
            },
            {
                "start_time": 31.370454545454542,
                "end_time": 31.418181818181818,
                "pitch": 72,
                "velocity": 25,
                "duration": 0.047727272727275505,
                "tempo": 120.0
            },
            {
                "start_time": 31.420454545454543,
                "end_time": 31.488636363636363,
                "pitch": 64,
                "velocity": 51,
                "duration": 0.06818181818182012,
                "tempo": 120.0
            },
            {
                "start_time": 31.49090909090909,
                "end_time": 31.53863636363636,
                "pitch": 67,
                "velocity": 25,
                "duration": 0.04772727272727195,
                "tempo": 120.0
            },
            {
                "start_time": 31.53863636363636,
                "end_time": 31.609090909090906,
                "pitch": 70,
                "velocity": 51,
                "duration": 0.07045454545454533,
                "tempo": 120.0
            },
            {
                "start_time": 31.609090909090906,
                "end_time": 31.659090909090907,
                "pitch": 64,
                "velocity": 25,
                "duration": 0.05000000000000071,
                "tempo": 120.0
            },
            {
                "start_time": 31.659090909090907,
                "end_time": 31.729545454545452,
                "pitch": 65,
                "velocity": 51,
                "duration": 0.07045454545454533,
                "tempo": 120.0
            },
            {
                "start_time": 31.729545454545452,
                "end_time": 31.777272727272727,
                "pitch": 70,
                "velocity": 25,
                "duration": 0.047727272727275505,
                "tempo": 120.0
            },
            {
                "start_time": 31.777272727272727,
                "end_time": 31.829545454545453,
                "pitch": 62,
                "velocity": 51,
                "duration": 0.052272727272725916,
                "tempo": 120.0
            },
            {
                "start_time": 31.829545454545453,
                "end_time": 31.895454545454545,
                "pitch": 65,
                "velocity": 25,
                "duration": 0.06590909090909136,
                "tempo": 120.0
            },
            {
                "start_time": 31.895454545454545,
                "end_time": 31.94772727272727,
                "pitch": 65,
                "velocity": 51,
                "duration": 0.052272727272725916,
                "tempo": 120.0
            },
            {
                "start_time": 31.94772727272727,
                "end_time": 32.01136363636363,
                "pitch": 62,
                "velocity": 25,
                "duration": 0.0636363636363626,
                "tempo": 120.0
            },
            {
                "start_time": 32.013636363636365,
                "end_time": 32.06363636363636,
                "pitch": 64,
                "velocity": 51,
                "duration": 0.04999999999999716,
                "tempo": 120.0
            },
            {
                "start_time": 32.06363636363636,
                "end_time": 32.12954545454545,
                "pitch": 65,
                "velocity": 25,
                "duration": 0.06590909090908781,
                "tempo": 120.0
            },
            {
                "start_time": 32.12954545454545,
                "end_time": 32.18181818181818,
                "pitch": 69,
                "velocity": 51,
                "duration": 0.05227272727272947,
                "tempo": 120.0
            },
            {
                "start_time": 32.18181818181818,
                "end_time": 32.24545454545454,
                "pitch": 64,
                "velocity": 25,
                "duration": 0.0636363636363626,
                "tempo": 120.0
            },
            {
                "start_time": 32.24545454545454,
                "end_time": 32.47954545454545,
                "pitch": 65,
                "velocity": 51,
                "duration": 0.23409090909090935,
                "tempo": 120.0
            },
            {
                "start_time": 32.47954545454545,
                "end_time": 32.69772727272727,
                "pitch": 65,
                "velocity": 25,
                "duration": 0.2181818181818187,
                "tempo": 120.0
            },
            {
                "start_time": 32.69772727272727,
                "end_time": 32.93181818181818,
                "pitch": 64,
                "velocity": 51,
                "duration": 0.23409090909090935,
                "tempo": 120.0
            },
            {
                "start_time": 32.93181818181818,
                "end_time": 33.168181818181814,
                "pitch": 64,
                "velocity": 25,
                "duration": 0.23636363636363455,
                "tempo": 120.0
            },
            {
                "start_time": 33.168181818181814,
                "end_time": 33.288636363636364,
                "pitch": 65,
                "velocity": 51,
                "duration": 0.12045454545454959,
                "tempo": 120.0
            },
            {
                "start_time": 33.288636363636364,
                "end_time": 33.40681818181818,
                "pitch": 64,
                "velocity": 25,
                "duration": 0.11818181818181728,
                "tempo": 120.0
            },
            {
                "start_time": 33.40909090909091,
                "end_time": 33.51136363636363,
                "pitch": 67,
                "velocity": 51,
                "duration": 0.10227272727272663,
                "tempo": 120.0
            },
            {
                "start_time": 31.368181818181817,
                "end_time": 33.51136363636363,
                "pitch": 79,
                "velocity": 51,
                "duration": 2.143181818181816,
                "tempo": 120.0
            },
            {
                "start_time": 33.51136363636363,
                "end_time": 33.527272727272724,
                "pitch": 67,
                "velocity": 51,
                "duration": 0.01590909090909065,
                "tempo": 120.0
            },
            {
                "start_time": 33.527272727272724,
                "end_time": 33.64545454545454,
                "pitch": 65,
                "velocity": 25,
                "duration": 0.11818181818181728,
                "tempo": 120.0
            },
            {
                "start_time": 33.64545454545454,
                "end_time": 33.695454545454545,
                "pitch": 74,
                "velocity": 51,
                "duration": 0.05000000000000426,
                "tempo": 120.0
            },
            {
                "start_time": 33.695454545454545,
                "end_time": 33.75909090909091,
                "pitch": 74,
                "velocity": 25,
                "duration": 0.0636363636363626,
                "tempo": 120.0
            },
            {
                "start_time": 33.76136363636363,
                "end_time": 33.81136363636364,
                "pitch": 69,
                "velocity": 51,
                "duration": 0.05000000000000426,
                "tempo": 120.0
            },
            {
                "start_time": 33.81136363636364,
                "end_time": 33.875,
                "pitch": 74,
                "velocity": 25,
                "duration": 0.0636363636363626,
                "tempo": 120.0
            },
            {
                "start_time": 33.875,
                "end_time": 33.925,
                "pitch": 65,
                "velocity": 51,
                "duration": 0.04999999999999716,
                "tempo": 120.0
            },
            {
                "start_time": 33.925,
                "end_time": 33.98863636363636,
                "pitch": 69,
                "velocity": 25,
                "duration": 0.0636363636363626,
                "tempo": 120.0
            },
            {
                "start_time": 33.98863636363636,
                "end_time": 34.038636363636364,
                "pitch": 72,
                "velocity": 51,
                "duration": 0.05000000000000426,
                "tempo": 120.0
            },
            {
                "start_time": 34.04090909090909,
                "end_time": 34.08863636363636,
                "pitch": 65,
                "velocity": 25,
                "duration": 0.04772727272727195,
                "tempo": 120.0
            },
            {
                "start_time": 33.51136363636363,
                "end_time": 34.08863636363636,
                "pitch": 79,
                "velocity": 51,
                "duration": 0.577272727272728,
                "tempo": 120.0
            },
            {
                "start_time": 34.08863636363636,
                "end_time": 34.15909090909091,
                "pitch": 67,
                "velocity": 51,
                "duration": 0.07045454545454533,
                "tempo": 120.0
            },
            {
                "start_time": 34.08863636363636,
                "end_time": 34.15909090909091,
                "pitch": 67,
                "velocity": 51,
                "duration": 0.07045454545454533,
                "tempo": 120.0
            },
            {
                "start_time": 34.15909090909091,
                "end_time": 34.20909090909091,
                "pitch": 72,
                "velocity": 25,
                "duration": 0.05000000000000426,
                "tempo": 120.0
            },
            {
                "start_time": 34.20909090909091,
                "end_time": 34.279545454545456,
                "pitch": 64,
                "velocity": 51,
                "duration": 0.07045454545454533,
                "tempo": 120.0
            },
            {
                "start_time": 34.08863636363636,
                "end_time": 34.279545454545456,
                "pitch": 79,
                "velocity": 51,
                "duration": 0.19090909090909491,
                "tempo": 120.0
            },
            {
                "start_time": 34.279545454545456,
                "end_time": 34.32954545454545,
                "pitch": 67,
                "velocity": 25,
                "duration": 0.04999999999999716,
                "tempo": 120.0
            },
            {
                "start_time": 34.279545454545456,
                "end_time": 34.32954545454545,
                "pitch": 67,
                "velocity": 25,
                "duration": 0.04999999999999716,
                "tempo": 120.0
            },
            {
                "start_time": 34.32954545454545,
                "end_time": 34.39772727272727,
                "pitch": 70,
                "velocity": 51,
                "duration": 0.06818181818182012,
                "tempo": 120.0
            },
            {
                "start_time": 34.39772727272727,
                "end_time": 34.449999999999996,
                "pitch": 64,
                "velocity": 25,
                "duration": 0.052272727272722364,
                "tempo": 120.0
            },
            {
                "start_time": 34.449999999999996,
                "end_time": 34.518181818181816,
                "pitch": 65,
                "velocity": 51,
                "duration": 0.06818181818182012,
                "tempo": 120.0
            },
            {
                "start_time": 34.518181818181816,
                "end_time": 34.56818181818181,
                "pitch": 70,
                "velocity": 25,
                "duration": 0.04999999999999716,
                "tempo": 120.0
            },
            {
                "start_time": 34.56818181818181,
                "end_time": 34.638636363636365,
                "pitch": 62,
                "velocity": 51,
                "duration": 0.07045454545455243,
                "tempo": 120.0
            },
            {
                "start_time": 34.638636363636365,
                "end_time": 34.68863636363636,
                "pitch": 65,
                "velocity": 25,
                "duration": 0.04999999999999716,
                "tempo": 120.0
            },
            {
                "start_time": 34.68863636363636,
                "end_time": 34.75681818181818,
                "pitch": 65,
                "velocity": 51,
                "duration": 0.06818181818182012,
                "tempo": 120.0
            },
            {
                "start_time": 34.75909090909091,
                "end_time": 34.809090909090905,
                "pitch": 62,
                "velocity": 25,
                "duration": 0.04999999999999716,
                "tempo": 120.0
            },
            {
                "start_time": 34.809090909090905,
                "end_time": 34.861363636363635,
                "pitch": 64,
                "velocity": 51,
                "duration": 0.05227272727272947,
                "tempo": 120.0
            },
            {
                "start_time": 34.861363636363635,
                "end_time": 34.929545454545455,
                "pitch": 65,
                "velocity": 25,
                "duration": 0.06818181818182012,
                "tempo": 120.0
            },
            {
                "start_time": 34.929545454545455,
                "end_time": 34.98181818181818,
                "pitch": 69,
                "velocity": 51,
                "duration": 0.052272727272722364,
                "tempo": 120.0
            },
            {
                "start_time": 34.98181818181818,
                "end_time": 35.04545454545455,
                "pitch": 64,
                "velocity": 25,
                "duration": 0.06363636363636971,
                "tempo": 120.0
            },
            {
                "start_time": 35.04545454545455,
                "end_time": 35.15909090909091,
                "pitch": 65,
                "velocity": 51,
                "duration": 0.11363636363635976,
                "tempo": 120.0
            },
            {
                "start_time": 35.16136363636363,
                "end_time": 35.275,
                "pitch": 69,
                "velocity": 25,
                "duration": 0.11363636363636687,
                "tempo": 120.0
            },
            {
                "start_time": 35.275,
                "end_time": 35.388636363636365,
                "pitch": 65,
                "velocity": 51,
                "duration": 0.11363636363636687,
                "tempo": 120.0
            },
            {
                "start_time": 35.388636363636365,
                "end_time": 35.50454545454545,
                "pitch": 65,
                "velocity": 25,
                "duration": 0.11590909090908497,
                "tempo": 120.0
            },
            {
                "start_time": 35.50454545454545,
                "end_time": 35.60454545454545,
                "pitch": 64,
                "velocity": 51,
                "duration": 0.10000000000000142,
                "tempo": 120.0
            },
            {
                "start_time": 35.60681818181818,
                "end_time": 35.72272727272727,
                "pitch": 65,
                "velocity": 25,
                "duration": 0.11590909090909207,
                "tempo": 120.0
            },
            {
                "start_time": 35.72272727272727,
                "end_time": 35.840909090909086,
                "pitch": 65,
                "velocity": 51,
                "duration": 0.11818181818181728,
                "tempo": 120.0
            },
            {
                "start_time": 35.840909090909086,
                "end_time": 35.95909090909091,
                "pitch": 64,
                "velocity": 25,
                "duration": 0.11818181818182438,
                "tempo": 120.0
            },
            {
                "start_time": 35.95909090909091,
                "end_time": 36.027272727272724,
                "pitch": 74,
                "velocity": 51,
                "duration": 0.06818181818181301,
                "tempo": 120.0
            },
            {
                "start_time": 36.027272727272724,
                "end_time": 36.07954545454545,
                "pitch": 65,
                "velocity": 25,
                "duration": 0.05227272727272947,
                "tempo": 120.0
            },
            {
                "start_time": 36.07954545454545,
                "end_time": 36.14772727272727,
                "pitch": 69,
                "velocity": 51,
                "duration": 0.06818181818182012,
                "tempo": 120.0
            },
            {
                "start_time": 36.14772727272727,
                "end_time": 36.19772727272727,
                "pitch": 74,
                "velocity": 25,
                "duration": 0.04999999999999716,
                "tempo": 120.0
            },
            {
                "start_time": 36.199999999999996,
                "end_time": 36.268181818181816,
                "pitch": 65,
                "velocity": 51,
                "duration": 0.06818181818182012,
                "tempo": 120.0
            },
            {
                "start_time": 36.268181818181816,
                "end_time": 36.31818181818181,
                "pitch": 69,
                "velocity": 25,
                "duration": 0.04999999999999716,
                "tempo": 120.0
            },
            {
                "start_time": 36.31818181818181,
                "end_time": 36.375,
                "pitch": 62,
                "velocity": 51,
                "duration": 0.056818181818186986,
                "tempo": 120.0
            },
            {
                "start_time": 36.375,
                "end_time": 36.434090909090905,
                "pitch": 65,
                "velocity": 25,
                "duration": 0.059090909090905086,
                "tempo": 120.0
            }
        ],
        "Lead 2 (sawtooth)": [
            {
                "start_time": 36.268181818181816,
                "end_time": 36.33409090909091,
                "pitch": 45,
                "velocity": 51,
                "duration": 0.06590909090909491,
                "tempo": 120.0
            },
            {
                "start_time": 36.375,
                "end_time": 36.45227272727273,
                "pitch": 45,
                "velocity": 101,
                "duration": 0.07727272727272805,
                "tempo": 120.0
            },
            {
                "start_time": 36.486363636363635,
                "end_time": 36.56590909090909,
                "pitch": 45,
                "velocity": 64,
                "duration": 0.07954545454545325,
                "tempo": 120.0
            }
        ]
    }
}