{
    "track_id": "14 Bloody Jewel (Area 8)",
    "mood": "angry",
    "instruments": {
        "Vibraphone": [
            {
                "start_time": 0.6227272727272727,
                "end_time": 0.7568181818181818,
                "pitch": 67,
                "velocity": 64,
                "duration": 0.13409090909090915,
                "tempo": 120.0
            },
            {
                "start_time": 0.7568181818181818,
                "end_time": 1.0227272727272727,
                "pitch": 67,
                "velocity": 64,
                "duration": 0.2659090909090909,
                "tempo": 120.0
            },
            {
                "start_time": 1.0227272727272727,
                "end_time": 1.1545454545454545,
                "pitch": 79,
                "velocity": 64,
                "duration": 0.13181818181818183,
                "tempo": 120.0
            },
            {
                "start_time": 1.1545454545454545,
                "end_time": 1.4227272727272726,
                "pitch": 79,
                "velocity": 64,
                "duration": 0.2681818181818181,
                "tempo": 120.0
            },
            {
                "start_time": 1.4227272727272726,
                "end_time": 1.8204545454545453,
                "pitch": 74,
                "velocity": 64,
                "duration": 0.3977272727272727,
                "tempo": 120.0
            },
            {
                "start_time": 1.8204545454545453,
                "end_time": 2.2204545454545452,
                "pitch": 70,
                "velocity": 64,
                "duration": 0.3999999999999999,
                "tempo": 120.0
            },
            {
                "start_time": 2.2204545454545452,
                "end_time": 2.352272727272727,
                "pitch": 67,
                "velocity": 64,
                "duration": 0.13181818181818183,
                "tempo": 120.0
            },
            {
                "start_time": 2.352272727272727,
                "end_time": 2.618181818181818,
                "pitch": 67,
                "velocity": 64,
                "duration": 0.2659090909090911,
                "tempo": 120.0
            },
            {
                "start_time": 2.618181818181818,
                "end_time": 3.018181818181818,
                "pitch": 62,
                "velocity": 64,
                "duration": 0.3999999999999999,
                "tempo": 120.0
            },
            {
                "start_time": 3.018181818181818,
                "end_time": 3.4159090909090906,
                "pitch": 72,
                "velocity": 64,
                "duration": 0.3977272727272725,
                "tempo": 120.0
            },
            {
                "start_time": 3.4159090909090906,
                "end_time": 3.815909090909091,
                "pitch": 69,
                "velocity": 64,
                "duration": 0.40000000000000036,
                "tempo": 120.0
            },
            {
                "start_time": 3.815909090909091,
                "end_time": 3.9477272727272728,
                "pitch": 67,
                "velocity": 64,
                "duration": 0.13181818181818183,
                "tempo": 120.0
            },
            {
                "start_time": 3.9477272727272728,
                "end_time": 4.215909090909091,
                "pitch": 67,
                "velocity": 64,
                "duration": 0.2681818181818181,
                "tempo": 120.0
            },
            {
                "start_time": 4.215909090909091,
                "end_time": 4.347727272727273,
                "pitch": 79,
                "velocity": 64,
                "duration": 0.13181818181818183,
                "tempo": 120.0
            },
            {
                "start_time": 4.347727272727273,
                "end_time": 4.613636363636363,
                "pitch": 79,
                "velocity": 64,
                "duration": 0.26590909090909065,
                "tempo": 120.0
            },
            {
                "start_time": 4.613636363636363,
                "end_time": 5.013636363636364,
                "pitch": 74,
                "velocity": 64,
                "duration": 0.40000000000000036,
                "tempo": 120.0
            },
            {
                "start_time": 5.013636363636364,
                "end_time": 5.411363636363636,
                "pitch": 70,
                "velocity": 64,
                "duration": 0.3977272727272725,
                "tempo": 120.0
            },
            {
                "start_time": 5.411363636363636,
                "end_time": 5.545454545454545,
                "pitch": 67,
                "velocity": 64,
                "duration": 0.13409090909090882,
                "tempo": 120.0
            },
            {
                "start_time": 5.545454545454545,
                "end_time": 5.8113636363636365,
                "pitch": 67,
                "velocity": 64,
                "duration": 0.26590909090909154,
                "tempo": 120.0
            },
            {
                "start_time": 5.8113636363636365,
                "end_time": 6.209090909090909,
                "pitch": 62,
                "velocity": 64,
                "duration": 0.3977272727272725,
                "tempo": 120.0
            },
            {
                "start_time": 5.013636363636364,
                "end_time": 6.209090909090909,
                "pitch": 74,
                "velocity": 64,
                "duration": 1.1954545454545453,
                "tempo": 120.0
            },
            {
                "start_time": 6.209090909090909,
                "end_time": 6.561363636363636,
                "pitch": 69,
                "velocity": 64,
                "duration": 0.3522727272727266,
                "tempo": 120.0
            },
            {
                "start_time": 3.4159090909090906,
                "end_time": 6.913636363636363,
                "pitch": 72,
                "velocity": 64,
                "duration": 3.4977272727272726,
                "tempo": 120.0
            },
            {
                "start_time": 6.561363636363636,
                "end_time": 6.913636363636363,
                "pitch": 72,
                "velocity": 64,
                "duration": 0.3522727272727275,
                "tempo": 120.0
            },
            {
                "start_time": 6.913636363636363,
                "end_time": 7.031818181818181,
                "pitch": 67,
                "velocity": 64,
                "duration": 0.11818181818181817,
                "tempo": 120.0
            },
            {
                "start_time": 5.545454545454545,
                "end_time": 7.031818181818181,
                "pitch": 79,
                "velocity": 64,
                "duration": 1.4863636363636363,
                "tempo": 120.0
            },
            {
                "start_time": 7.031818181818181,
                "end_time": 7.265909090909091,
                "pitch": 67,
                "velocity": 64,
                "duration": 0.23409090909090935,
                "tempo": 120.0
            },
            {
                "start_time": 7.031818181818181,
                "end_time": 7.381818181818182,
                "pitch": 79,
                "velocity": 64,
                "duration": 0.35000000000000053,
                "tempo": 120.0
            },
            {
                "start_time": 7.265909090909091,
                "end_time": 7.381818181818182,
                "pitch": 79,
                "velocity": 64,
                "duration": 0.11590909090909118,
                "tempo": 120.0
            },
            {
                "start_time": 7.381818181818182,
                "end_time": 7.618181818181818,
                "pitch": 79,
                "velocity": 64,
                "duration": 0.23636363636363633,
                "tempo": 120.0
            },
            {
                "start_time": 6.209090909090909,
                "end_time": 8.020454545454545,
                "pitch": 74,
                "velocity": 64,
                "duration": 1.8113636363636356,
                "tempo": 120.0
            },
            {
                "start_time": 7.618181818181818,
                "end_time": 8.020454545454545,
                "pitch": 74,
                "velocity": 64,
                "duration": 0.40227272727272645,
                "tempo": 120.0
            },
            {
                "start_time": 8.020454545454545,
                "end_time": 8.424999999999999,
                "pitch": 70,
                "velocity": 64,
                "duration": 0.4045454545454543,
                "tempo": 120.0
            },
            {
                "start_time": 8.424999999999999,
                "end_time": 8.559090909090909,
                "pitch": 67,
                "velocity": 64,
                "duration": 0.1340909090909097,
                "tempo": 120.0
            },
            {
                "start_time": 7.618181818181818,
                "end_time": 8.559090909090909,
                "pitch": 79,
                "velocity": 64,
                "duration": 0.9409090909090905,
                "tempo": 120.0
            },
            {
                "start_time": 8.559090909090909,
                "end_time": 8.829545454545453,
                "pitch": 67,
                "velocity": 64,
                "duration": 0.2704545454545446,
                "tempo": 120.0
            },
            {
                "start_time": 8.829545454545453,
                "end_time": 9.23409090909091,
                "pitch": 62,
                "velocity": 64,
                "duration": 0.4045454545454561,
                "tempo": 120.0
            },
            {
                "start_time": 9.23409090909091,
                "end_time": 9.631818181818181,
                "pitch": 72,
                "velocity": 64,
                "duration": 0.3977272727272716,
                "tempo": 120.0
            },
            {
                "start_time": 9.631818181818181,
                "end_time": 10.031818181818181,
                "pitch": 69,
                "velocity": 64,
                "duration": 0.40000000000000036,
                "tempo": 120.0
            },
            {
                "start_time": 10.031818181818181,
                "end_time": 10.163636363636364,
                "pitch": 67,
                "velocity": 64,
                "duration": 0.13181818181818272,
                "tempo": 120.0
            },
            {
                "start_time": 10.163636363636364,
                "end_time": 10.429545454545455,
                "pitch": 67,
                "velocity": 64,
                "duration": 0.26590909090909065,
                "tempo": 120.0
            },
            {
                "start_time": 8.559090909090909,
                "end_time": 10.563636363636363,
                "pitch": 79,
                "velocity": 64,
                "duration": 2.004545454545454,
                "tempo": 120.0
            },
            {
                "start_time": 10.429545454545455,
                "end_time": 10.563636363636363,
                "pitch": 79,
                "velocity": 64,
                "duration": 0.13409090909090793,
                "tempo": 120.0
            },
            {
                "start_time": 7.381818181818182,
                "end_time": 10.563636363636363,
                "pitch": 91,
                "velocity": 64,
                "duration": 3.1818181818181808,
                "tempo": 120.0
            },
            {
                "start_time": 10.563636363636363,
                "end_time": 10.829545454545453,
                "pitch": 79,
                "velocity": 64,
                "duration": 0.26590909090909065,
                "tempo": 120.0
            },
            {
                "start_time": 9.23409090909091,
                "end_time": 11.227272727272727,
                "pitch": 74,
                "velocity": 64,
                "duration": 1.9931818181818173,
                "tempo": 120.0
            },
            {
                "start_time": 10.829545454545453,
                "end_time": 11.227272727272727,
                "pitch": 74,
                "velocity": 64,
                "duration": 0.3977272727272734,
                "tempo": 120.0
            },
            {
                "start_time": 8.424999999999999,
                "end_time": 11.627272727272727,
                "pitch": 37,
                "velocity": 64,
                "duration": 3.202272727272728,
                "tempo": 120.0
            },
            {
                "start_time": 11.227272727272727,
                "end_time": 11.627272727272727,
                "pitch": 70,
                "velocity": 64,
                "duration": 0.40000000000000036,
                "tempo": 120.0
            },
            {
                "start_time": 11.627272727272727,
                "end_time": 11.759090909090908,
                "pitch": 67,
                "velocity": 64,
                "duration": 0.13181818181818095,
                "tempo": 120.0
            },
            {
                "start_time": 10.829545454545453,
                "end_time": 11.759090909090908,
                "pitch": 79,
                "velocity": 64,
                "duration": 0.9295454545454547,
                "tempo": 120.0
            },
            {
                "start_time": 11.759090909090908,
                "end_time": 12.024999999999999,
                "pitch": 67,
                "velocity": 64,
                "duration": 0.26590909090909065,
                "tempo": 120.0
            },
            {
                "start_time": 12.024999999999999,
                "end_time": 12.424999999999999,
                "pitch": 62,
                "velocity": 64,
                "duration": 0.40000000000000036,
                "tempo": 120.0
            },
            {
                "start_time": 12.424999999999999,
                "end_time": 12.827272727272726,
                "pitch": 69,
                "velocity": 64,
                "duration": 0.40227272727272734,
                "tempo": 120.0
            },
            {
                "start_time": 12.827272727272726,
                "end_time": 13.23181818181818,
                "pitch": 72,
                "velocity": 64,
                "duration": 0.4045454545454543,
                "tempo": 120.0
            },
            {
                "start_time": 13.23181818181818,
                "end_time": 13.636363636363635,
                "pitch": 62,
                "velocity": 64,
                "duration": 0.4045454545454543,
                "tempo": 120.0
            },
            {
                "start_time": 12.424999999999999,
                "end_time": 14.040909090909091,
                "pitch": 74,
                "velocity": 64,
                "duration": 1.615909090909092,
                "tempo": 120.0
            },
            {
                "start_time": 13.636363636363635,
                "end_time": 14.040909090909091,
                "pitch": 74,
                "velocity": 64,
                "duration": 0.4045454545454561,
                "tempo": 120.0
            },
            {
                "start_time": 14.040909090909091,
                "end_time": 14.438636363636363,
                "pitch": 69,
                "velocity": 64,
                "duration": 0.3977272727272716,
                "tempo": 120.0
            },
            {
                "start_time": 14.438636363636363,
                "end_time": 14.838636363636363,
                "pitch": 65,
                "velocity": 64,
                "duration": 0.40000000000000036,
                "tempo": 120.0
            },
            {
                "start_time": 14.838636363636363,
                "end_time": 15.236363636363636,
                "pitch": 62,
                "velocity": 64,
                "duration": 0.3977272727272734,
                "tempo": 120.0
            },
            {
                "start_time": 10.031818181818181,
                "end_time": 15.636363636363635,
                "pitch": 30,
                "velocity": 64,
                "duration": 5.604545454545454,
                "tempo": 120.0
            },
            {
                "start_time": 15.236363636363636,
                "end_time": 15.636363636363635,
                "pitch": 57,
                "velocity": 64,
                "duration": 0.3999999999999986,
                "tempo": 120.0
            },
            {
                "start_time": 15.636363636363635,
                "end_time": 15.770454545454545,
                "pitch": 67,
                "velocity": 64,
                "duration": 0.1340909090909097,
                "tempo": 120.0
            },
            {
                "start_time": 11.759090909090908,
                "end_time": 15.770454545454545,
                "pitch": 79,
                "velocity": 64,
                "duration": 4.011363636363637,
                "tempo": 120.0
            },
            {
                "start_time": 15.770454545454545,
                "end_time": 16.04090909090909,
                "pitch": 67,
                "velocity": 64,
                "duration": 0.2704545454545446,
                "tempo": 120.0
            },
            {
                "start_time": 16.04090909090909,
                "end_time": 16.443181818181817,
                "pitch": 64,
                "velocity": 64,
                "duration": 0.40227272727272734,
                "tempo": 120.0
            },
            {
                "start_time": 15.236363636363636,
                "end_time": 16.847727272727273,
                "pitch": 62,
                "velocity": 64,
                "duration": 1.6113636363636363,
                "tempo": 120.0
            },
            {
                "start_time": 16.443181818181817,
                "end_time": 16.847727272727273,
                "pitch": 62,
                "velocity": 64,
                "duration": 0.4045454545454561,
                "tempo": 120.0
            },
            {
                "start_time": 14.040909090909091,
                "end_time": 17.252272727272725,
                "pitch": 74,
                "velocity": 64,
                "duration": 3.211363636363634,
                "tempo": 120.0
            },
            {
                "start_time": 16.847727272727273,
                "end_time": 17.252272727272725,
                "pitch": 74,
                "velocity": 64,
                "duration": 0.40454545454545254,
                "tempo": 120.0
            },
            {
                "start_time": 17.252272727272725,
                "end_time": 17.65,
                "pitch": 69,
                "velocity": 64,
                "duration": 0.3977272727272734,
                "tempo": 120.0
            },
            {
                "start_time": 14.838636363636363,
                "end_time": 18.05,
                "pitch": 65,
                "velocity": 64,
                "duration": 3.2113636363636378,
                "tempo": 120.0
            },
            {
                "start_time": 17.65,
                "end_time": 18.05,
                "pitch": 65,
                "velocity": 64,
                "duration": 0.40000000000000213,
                "tempo": 120.0
            },
            {
                "start_time": 18.05,
                "end_time": 18.44772727272727,
                "pitch": 62,
                "velocity": 64,
                "duration": 0.3977272727272698,
                "tempo": 120.0
            },
            {
                "start_time": 18.44772727272727,
                "end_time": 18.847727272727273,
                "pitch": 57,
                "velocity": 64,
                "duration": 0.40000000000000213,
                "tempo": 120.0
            },
            {
                "start_time": 16.443181818181817,
                "end_time": 19.252272727272725,
                "pitch": 64,
                "velocity": 64,
                "duration": 2.8090909090909086,
                "tempo": 120.0
            },
            {
                "start_time": 18.847727272727273,
                "end_time": 19.252272727272725,
                "pitch": 64,
                "velocity": 64,
                "duration": 0.40454545454545254,
                "tempo": 120.0
            },
            {
                "start_time": 16.04090909090909,
                "end_time": 19.386363636363637,
                "pitch": 67,
                "velocity": 64,
                "duration": 3.3454545454545475,
                "tempo": 120.0
            },
            {
                "start_time": 19.252272727272725,
                "end_time": 19.386363636363637,
                "pitch": 67,
                "velocity": 64,
                "duration": 0.13409090909091148,
                "tempo": 120.0
            },
            {
                "start_time": 19.386363636363637,
                "end_time": 19.654545454545453,
                "pitch": 67,
                "velocity": 64,
                "duration": 0.26818181818181586,
                "tempo": 120.0
            },
            {
                "start_time": 19.654545454545453,
                "end_time": 20.05909090909091,
                "pitch": 60,
                "velocity": 64,
                "duration": 0.4045454545454561,
                "tempo": 120.0
            },
            {
                "start_time": 20.05909090909091,
                "end_time": 20.46363636363636,
                "pitch": 72,
                "velocity": 64,
                "duration": 0.40454545454545254,
                "tempo": 120.0
            },
            {
                "start_time": 20.46363636363636,
                "end_time": 20.595454545454544,
                "pitch": 67,
                "velocity": 64,
                "duration": 0.13181818181818272,
                "tempo": 120.0
            },
            {
                "start_time": 15.770454545454545,
                "end_time": 20.595454545454544,
                "pitch": 79,
                "velocity": 64,
                "duration": 4.824999999999999,
                "tempo": 120.0
            },
            {
                "start_time": 20.595454545454544,
                "end_time": 20.861363636363635,
                "pitch": 67,
                "velocity": 64,
                "duration": 0.26590909090909065,
                "tempo": 120.0
            },
            {
                "start_time": 20.861363636363635,
                "end_time": 21.261363636363637,
                "pitch": 63,
                "velocity": 64,
                "duration": 0.40000000000000213,
                "tempo": 120.0
            },
            {
                "start_time": 21.261363636363637,
                "end_time": 21.659090909090907,
                "pitch": 60,
                "velocity": 64,
                "duration": 0.3977272727272698,
                "tempo": 120.0
            },
            {
                "start_time": 21.659090909090907,
                "end_time": 21.793181818181818,
                "pitch": 55,
                "velocity": 64,
                "duration": 0.13409090909091148,
                "tempo": 120.0
            },
            {
                "start_time": 21.793181818181818,
                "end_time": 21.925,
                "pitch": 55,
                "velocity": 64,
                "duration": 0.13181818181818272,
                "tempo": 120.0
            },
            {
                "start_time": 21.925,
                "end_time": 22.05909090909091,
                "pitch": 55,
                "velocity": 64,
                "duration": 0.13409090909090793,
                "tempo": 120.0
            },
            {
                "start_time": 20.861363636363635,
                "end_time": 22.46363636363636,
                "pitch": 67,
                "velocity": 64,
                "duration": 1.6022727272727266,
                "tempo": 120.0
            },
            {
                "start_time": 22.05909090909091,
                "end_time": 22.46363636363636,
                "pitch": 67,
                "velocity": 64,
                "duration": 0.40454545454545254,
                "tempo": 120.0
            },
            {
                "start_time": 18.44772727272727,
                "end_time": 22.86590909090909,
                "pitch": 62,
                "velocity": 64,
                "duration": 4.418181818181818,
                "tempo": 120.0
            },
            {
                "start_time": 22.46363636363636,
                "end_time": 22.86590909090909,
                "pitch": 62,
                "velocity": 64,
                "duration": 0.40227272727272734,
                "tempo": 120.0
            },
            {
                "start_time": 22.86590909090909,
                "end_time": 22.868181818181817,
                "pitch": 62,
                "velocity": 64,
                "duration": 0.0022727272727287584,
                "tempo": 120.0
            },
            {
                "start_time": 22.868181818181817,
                "end_time": 23.270454545454545,
                "pitch": 60,
                "velocity": 64,
                "duration": 0.40227272727272734,
                "tempo": 120.0
            },
            {
                "start_time": 20.46363636363636,
                "end_time": 23.674999999999997,
                "pitch": 48,
                "velocity": 64,
                "duration": 3.211363636363636,
                "tempo": 120.0
            },
            {
                "start_time": 23.270454545454545,
                "end_time": 23.674999999999997,
                "pitch": 72,
                "velocity": 64,
                "duration": 0.40454545454545254,
                "tempo": 120.0
            },
            {
                "start_time": 23.674999999999997,
                "end_time": 23.80681818181818,
                "pitch": 67,
                "velocity": 64,
                "duration": 0.13181818181818272,
                "tempo": 120.0
            },
            {
                "start_time": 20.595454545454544,
                "end_time": 23.80681818181818,
                "pitch": 79,
                "velocity": 64,
                "duration": 3.211363636363636,
                "tempo": 120.0
            },
            {
                "start_time": 23.80681818181818,
                "end_time": 24.075,
                "pitch": 67,
                "velocity": 64,
                "duration": 0.2681818181818194,
                "tempo": 120.0
            },
            {
                "start_time": 21.261363636363637,
                "end_time": 24.472727272727273,
                "pitch": 63,
                "velocity": 64,
                "duration": 3.211363636363636,
                "tempo": 120.0
            },
            {
                "start_time": 24.075,
                "end_time": 24.472727272727273,
                "pitch": 63,
                "velocity": 64,
                "duration": 0.3977272727272734,
                "tempo": 120.0
            },
            {
                "start_time": 24.472727272727273,
                "end_time": 24.87272727272727,
                "pitch": 60,
                "velocity": 64,
                "duration": 0.3999999999999986,
                "tempo": 120.0
            },
            {
                "start_time": 24.87272727272727,
                "end_time": 25.004545454545454,
                "pitch": 55,
                "velocity": 64,
                "duration": 0.13181818181818272,
                "tempo": 120.0
            },
            {
                "start_time": 21.925,
                "end_time": 25.136363636363637,
                "pitch": 0,
                "velocity": 64,
                "duration": 3.211363636363636,
                "tempo": 120.0
            },
            {
                "start_time": 25.004545454545454,
                "end_time": 25.136363636363637,
                "pitch": 55,
                "velocity": 64,
                "duration": 0.13181818181818272,
                "tempo": 120.0
            },
            {
                "start_time": 25.136363636363637,
                "end_time": 25.270454545454545,
                "pitch": 55,
                "velocity": 64,
                "duration": 0.13409090909090793,
                "tempo": 120.0
            },
            {
                "start_time": 25.270454545454545,
                "end_time": 25.668181818181818,
                "pitch": 62,
                "velocity": 64,
                "duration": 0.3977272727272734,
                "tempo": 120.0
            },
            {
                "start_time": 18.05,
                "end_time": 26.068181818181817,
                "pitch": 65,
                "velocity": 64,
                "duration": 8.018181818181816,
                "tempo": 120.0
            },
            {
                "start_time": 25.668181818181818,
                "end_time": 26.068181818181817,
                "pitch": 65,
                "velocity": 64,
                "duration": 0.3999999999999986,
                "tempo": 120.0
            },
            {
                "start_time": 25.270454545454545,
                "end_time": 26.2,
                "pitch": 67,
                "velocity": 64,
                "duration": 0.9295454545454547,
                "tempo": 120.0
            },
            {
                "start_time": 26.068181818181817,
                "end_time": 26.2,
                "pitch": 67,
                "velocity": 64,
                "duration": 0.13181818181818272,
                "tempo": 120.0
            },
            {
                "start_time": 26.2,
                "end_time": 26.46590909090909,
                "pitch": 67,
                "velocity": 64,
                "duration": 0.26590909090909065,
                "tempo": 120.0
            },
            {
                "start_time": 23.80681818181818,
                "end_time": 26.599999999999998,
                "pitch": 79,
                "velocity": 64,
                "duration": 2.793181818181818,
                "tempo": 120.0
            },
            {
                "start_time": 26.46590909090909,
                "end_time": 26.599999999999998,
                "pitch": 79,
                "velocity": 64,
                "duration": 0.13409090909090793,
                "tempo": 120.0
            },
            {
                "start_time": 10.563636363636363,
                "end_time": 26.599999999999998,
                "pitch": 91,
                "velocity": 64,
                "duration": 16.036363636363635,
                "tempo": 120.0
            },
            {
                "start_time": 26.599999999999998,
                "end_time": 26.86590909090909,
                "pitch": 79,
                "velocity": 64,
                "duration": 0.26590909090909065,
                "tempo": 120.0
            },
            {
                "start_time": 17.252272727272725,
                "end_time": 27.270454545454545,
                "pitch": 74,
                "velocity": 64,
                "duration": 10.01818181818182,
                "tempo": 120.0
            },
            {
                "start_time": 26.86590909090909,
                "end_time": 27.270454545454545,
                "pitch": 74,
                "velocity": 64,
                "duration": 0.4045454545454561,
                "tempo": 120.0
            },
            {
                "start_time": 11.627272727272727,
                "end_time": 27.674999999999997,
                "pitch": 37,
                "velocity": 64,
                "duration": 16.047727272727272,
                "tempo": 120.0
            },
            {
                "start_time": 27.270454545454545,
                "end_time": 27.674999999999997,
                "pitch": 70,
                "velocity": 64,
                "duration": 0.40454545454545254,
                "tempo": 120.0
            },
            {
                "start_time": 27.674999999999997,
                "end_time": 27.80681818181818,
                "pitch": 67,
                "velocity": 64,
                "duration": 0.13181818181818272,
                "tempo": 120.0
            },
            {
                "start_time": 26.86590909090909,
                "end_time": 27.80681818181818,
                "pitch": 79,
                "velocity": 64,
                "duration": 0.9409090909090914,
                "tempo": 120.0
            },
            {
                "start_time": 27.80681818181818,
                "end_time": 28.077272727272724,
                "pitch": 67,
                "velocity": 64,
                "duration": 0.2704545454545446,
                "tempo": 120.0
            },
            {
                "start_time": 28.077272727272724,
                "end_time": 28.48181818181818,
                "pitch": 62,
                "velocity": 64,
                "duration": 0.4045454545454561,
                "tempo": 120.0
            },
            {
                "start_time": 28.48181818181818,
                "end_time": 28.88181818181818,
                "pitch": 72,
                "velocity": 64,
                "duration": 0.3999999999999986,
                "tempo": 120.0
            },
            {
                "start_time": 28.88181818181818,
                "end_time": 29.279545454545453,
                "pitch": 69,
                "velocity": 64,
                "duration": 0.3977272727272734,
                "tempo": 120.0
            },
            {
                "start_time": 29.279545454545453,
                "end_time": 29.411363636363635,
                "pitch": 67,
                "velocity": 64,
                "duration": 0.13181818181818272,
                "tempo": 120.0
            },
            {
                "start_time": 29.411363636363635,
                "end_time": 29.679545454545455,
                "pitch": 67,
                "velocity": 64,
                "duration": 0.2681818181818194,
                "tempo": 120.0
            },
            {
                "start_time": 27.80681818181818,
                "end_time": 29.811363636363634,
                "pitch": 79,
                "velocity": 64,
                "duration": 2.004545454545454,
                "tempo": 120.0
            },
            {
                "start_time": 29.679545454545455,
                "end_time": 29.811363636363634,
                "pitch": 79,
                "velocity": 64,
                "duration": 0.13181818181817917,
                "tempo": 120.0
            },
            {
                "start_time": 29.811363636363634,
                "end_time": 30.077272727272724,
                "pitch": 79,
                "velocity": 64,
                "duration": 0.26590909090909065,
                "tempo": 120.0
            },
            {
                "start_time": 28.48181818181818,
                "end_time": 30.474999999999998,
                "pitch": 74,
                "velocity": 64,
                "duration": 1.9931818181818173,
                "tempo": 120.0
            },
            {
                "start_time": 30.077272727272724,
                "end_time": 30.474999999999998,
                "pitch": 74,
                "velocity": 64,
                "duration": 0.3977272727272734,
                "tempo": 120.0
            },
            {
                "start_time": 27.674999999999997,
                "end_time": 30.875,
                "pitch": 37,
                "velocity": 64,
                "duration": 3.200000000000003,
                "tempo": 120.0
            },
            {
                "start_time": 30.474999999999998,
                "end_time": 30.875,
                "pitch": 70,
                "velocity": 64,
                "duration": 0.40000000000000213,
                "tempo": 120.0
            },
            {
                "start_time": 30.875,
                "end_time": 31.00681818181818,
                "pitch": 67,
                "velocity": 64,
                "duration": 0.13181818181817917,
                "tempo": 120.0
            },
            {
                "start_time": 30.077272727272724,
                "end_time": 31.00681818181818,
                "pitch": 79,
                "velocity": 64,
                "duration": 0.9295454545454547,
                "tempo": 120.0
            },
            {
                "start_time": 31.00681818181818,
                "end_time": 31.27272727272727,
                "pitch": 67,
                "velocity": 64,
                "duration": 0.26590909090909065,
                "tempo": 120.0
            },
            {
                "start_time": 31.27272727272727,
                "end_time": 31.672727272727272,
                "pitch": 62,
                "velocity": 64,
                "duration": 0.40000000000000213,
                "tempo": 120.0
            },
            {
                "start_time": 31.672727272727272,
                "end_time": 31.875,
                "pitch": 69,
                "velocity": 64,
                "duration": 0.20227272727272805,
                "tempo": 120.0
            }
        ],
        "Acoustic Bass": [
            {
                "start_time": 6.386363636363636,
                "end_time": 6.561363636363636,
                "pitch": 43,
                "velocity": 80,
                "duration": 0.17499999999999982,
                "tempo": 120.0
            },
            {
                "start_time": 6.561363636363636,
                "end_time": 6.738636363636363,
                "pitch": 43,
                "velocity": 80,
                "duration": 0.1772727272727277,
                "tempo": 120.0
            },
            {
                "start_time": 6.738636363636363,
                "end_time": 6.913636363636363,
                "pitch": 43,
                "velocity": 80,
                "duration": 0.17499999999999982,
                "tempo": 120.0
            },
            {
                "start_time": 6.913636363636363,
                "end_time": 7.090909090909091,
                "pitch": 43,
                "velocity": 80,
                "duration": 0.1772727272727277,
                "tempo": 120.0
            },
            {
                "start_time": 7.090909090909091,
                "end_time": 7.265909090909091,
                "pitch": 55,
                "velocity": 80,
                "duration": 0.17499999999999982,
                "tempo": 120.0
            },
            {
                "start_time": 7.265909090909091,
                "end_time": 7.4431818181818175,
                "pitch": 43,
                "velocity": 80,
                "duration": 0.1772727272727268,
                "tempo": 120.0
            },
            {
                "start_time": 7.4431818181818175,
                "end_time": 7.618181818181818,
                "pitch": 50,
                "velocity": 80,
                "duration": 0.1750000000000007,
                "tempo": 120.0
            },
            {
                "start_time": 7.618181818181818,
                "end_time": 7.820454545454545,
                "pitch": 43,
                "velocity": 80,
                "duration": 0.20227272727272716,
                "tempo": 120.0
            },
            {
                "start_time": 7.820454545454545,
                "end_time": 8.022727272727272,
                "pitch": 53,
                "velocity": 80,
                "duration": 0.20227272727272627,
                "tempo": 120.0
            },
            {
                "start_time": 7.820454545454545,
                "end_time": 8.222727272727273,
                "pitch": 43,
                "velocity": 80,
                "duration": 0.40227272727272734,
                "tempo": 120.0
            },
            {
                "start_time": 8.022727272727272,
                "end_time": 8.222727272727273,
                "pitch": 43,
                "velocity": 80,
                "duration": 0.20000000000000107,
                "tempo": 120.0
            },
            {
                "start_time": 8.222727272727273,
                "end_time": 8.225,
                "pitch": 43,
                "velocity": 80,
                "duration": 0.002272727272726982,
                "tempo": 120.0
            },
            {
                "start_time": 8.225,
                "end_time": 8.424999999999999,
                "pitch": 52,
                "velocity": 80,
                "duration": 0.1999999999999993,
                "tempo": 120.0
            },
            {
                "start_time": 8.424999999999999,
                "end_time": 8.627272727272727,
                "pitch": 43,
                "velocity": 80,
                "duration": 0.20227272727272805,
                "tempo": 120.0
            },
            {
                "start_time": 8.627272727272727,
                "end_time": 8.829545454545453,
                "pitch": 50,
                "velocity": 80,
                "duration": 0.20227272727272627,
                "tempo": 120.0
            },
            {
                "start_time": 8.627272727272727,
                "end_time": 9.031818181818181,
                "pitch": 43,
                "velocity": 80,
                "duration": 0.4045454545454543,
                "tempo": 120.0
            },
            {
                "start_time": 8.829545454545453,
                "end_time": 9.031818181818181,
                "pitch": 43,
                "velocity": 80,
                "duration": 0.20227272727272805,
                "tempo": 120.0
            },
            {
                "start_time": 9.031818181818181,
                "end_time": 9.23409090909091,
                "pitch": 55,
                "velocity": 80,
                "duration": 0.20227272727272805,
                "tempo": 120.0
            },
            {
                "start_time": 9.23409090909091,
                "end_time": 9.434090909090909,
                "pitch": 43,
                "velocity": 80,
                "duration": 0.1999999999999993,
                "tempo": 120.0
            },
            {
                "start_time": 9.434090909090909,
                "end_time": 9.634090909090908,
                "pitch": 43,
                "velocity": 80,
                "duration": 0.1999999999999993,
                "tempo": 120.0
            },
            {
                "start_time": 9.634090909090908,
                "end_time": 9.831818181818182,
                "pitch": 43,
                "velocity": 80,
                "duration": 0.19772727272727408,
                "tempo": 120.0
            },
            {
                "start_time": 9.831818181818182,
                "end_time": 10.031818181818181,
                "pitch": 43,
                "velocity": 80,
                "duration": 0.1999999999999993,
                "tempo": 120.0
            },
            {
                "start_time": 10.031818181818181,
                "end_time": 10.23181818181818,
                "pitch": 43,
                "velocity": 80,
                "duration": 0.1999999999999993,
                "tempo": 120.0
            },
            {
                "start_time": 10.23181818181818,
                "end_time": 10.429545454545455,
                "pitch": 55,
                "velocity": 80,
                "duration": 0.19772727272727408,
                "tempo": 120.0
            },
            {
                "start_time": 10.429545454545455,
                "end_time": 10.629545454545454,
                "pitch": 43,
                "velocity": 80,
                "duration": 0.1999999999999993,
                "tempo": 120.0
            },
            {
                "start_time": 8.829545454545453,
                "end_time": 10.829545454545453,
                "pitch": 50,
                "velocity": 80,
                "duration": 2.0,
                "tempo": 120.0
            },
            {
                "start_time": 10.629545454545454,
                "end_time": 10.829545454545453,
                "pitch": 50,
                "velocity": 80,
                "duration": 0.1999999999999993,
                "tempo": 120.0
            },
            {
                "start_time": 10.829545454545453,
                "end_time": 11.029545454545454,
                "pitch": 43,
                "velocity": 80,
                "duration": 0.20000000000000107,
                "tempo": 120.0
            },
            {
                "start_time": 8.022727272727272,
                "end_time": 11.227272727272727,
                "pitch": 53,
                "velocity": 80,
                "duration": 3.204545454545455,
                "tempo": 120.0
            },
            {
                "start_time": 11.029545454545454,
                "end_time": 11.227272727272727,
                "pitch": 53,
                "velocity": 80,
                "duration": 0.1977272727272723,
                "tempo": 120.0
            },
            {
                "start_time": 11.029545454545454,
                "end_time": 11.427272727272726,
                "pitch": 43,
                "velocity": 80,
                "duration": 0.3977272727272716,
                "tempo": 120.0
            },
            {
                "start_time": 11.227272727272727,
                "end_time": 11.427272727272726,
                "pitch": 43,
                "velocity": 80,
                "duration": 0.1999999999999993,
                "tempo": 120.0
            },
            {
                "start_time": 8.424999999999999,
                "end_time": 11.627272727272727,
                "pitch": 52,
                "velocity": 80,
                "duration": 3.202272727272728,
                "tempo": 120.0
            },
            {
                "start_time": 11.427272727272726,
                "end_time": 11.627272727272727,
                "pitch": 52,
                "velocity": 80,
                "duration": 0.20000000000000107,
                "tempo": 120.0
            },
            {
                "start_time": 11.427272727272726,
                "end_time": 11.827272727272726,
                "pitch": 43,
                "velocity": 80,
                "duration": 0.40000000000000036,
                "tempo": 120.0
            },
            {
                "start_time": 11.627272727272727,
                "end_time": 11.827272727272726,
                "pitch": 43,
                "velocity": 80,
                "duration": 0.1999999999999993,
                "tempo": 120.0
            },
            {
                "start_time": 11.827272727272726,
                "end_time": 12.024999999999999,
                "pitch": 50,
                "velocity": 80,
                "duration": 0.1977272727272723,
                "tempo": 120.0
            },
            {
                "start_time": 11.827272727272726,
                "end_time": 12.225,
                "pitch": 43,
                "velocity": 80,
                "duration": 0.3977272727272734,
                "tempo": 120.0
            },
            {
                "start_time": 12.024999999999999,
                "end_time": 12.225,
                "pitch": 43,
                "velocity": 80,
                "duration": 0.20000000000000107,
                "tempo": 120.0
            },
            {
                "start_time": 12.225,
                "end_time": 12.424999999999999,
                "pitch": 55,
                "velocity": 80,
                "duration": 0.1999999999999993,
                "tempo": 120.0
            },
            {
                "start_time": 12.424999999999999,
                "end_time": 12.627272727272727,
                "pitch": 43,
                "velocity": 80,
                "duration": 0.20227272727272805,
                "tempo": 120.0
            },
            {
                "start_time": 12.627272727272727,
                "end_time": 12.827272727272726,
                "pitch": 38,
                "velocity": 80,
                "duration": 0.1999999999999993,
                "tempo": 120.0
            },
            {
                "start_time": 12.827272727272726,
                "end_time": 13.029545454545454,
                "pitch": 38,
                "velocity": 80,
                "duration": 0.20227272727272805,
                "tempo": 120.0
            },
            {
                "start_time": 13.029545454545454,
                "end_time": 13.23181818181818,
                "pitch": 38,
                "velocity": 80,
                "duration": 0.20227272727272627,
                "tempo": 120.0
            },
            {
                "start_time": 13.23181818181818,
                "end_time": 13.434090909090909,
                "pitch": 38,
                "velocity": 80,
                "duration": 0.20227272727272805,
                "tempo": 120.0
            },
            {
                "start_time": 12.024999999999999,
                "end_time": 13.636363636363635,
                "pitch": 50,
                "velocity": 80,
                "duration": 1.6113636363636363,
                "tempo": 120.0
            },
            {
                "start_time": 13.434090909090909,
                "end_time": 13.636363636363635,
                "pitch": 50,
                "velocity": 80,
                "duration": 0.20227272727272627,
                "tempo": 120.0
            },
            {
                "start_time": 13.636363636363635,
                "end_time": 13.838636363636363,
                "pitch": 38,
                "velocity": 80,
                "duration": 0.20227272727272805,
                "tempo": 120.0
            },
            {
                "start_time": 13.838636363636363,
                "end_time": 14.040909090909091,
                "pitch": 45,
                "velocity": 80,
                "duration": 0.20227272727272805,
                "tempo": 120.0
            },
            {
                "start_time": 14.040909090909091,
                "end_time": 14.24090909090909,
                "pitch": 38,
                "velocity": 80,
                "duration": 0.1999999999999993,
                "tempo": 120.0
            },
            {
                "start_time": 13.838636363636363,
                "end_time": 14.24090909090909,
                "pitch": 50,
                "velocity": 80,
                "duration": 0.40227272727272734,
                "tempo": 120.0
            },
            {
                "start_time": 14.24090909090909,
                "end_time": 14.438636363636363,
                "pitch": 48,
                "velocity": 80,
                "duration": 0.1977272727272723,
                "tempo": 120.0
            },
            {
                "start_time": 14.438636363636363,
                "end_time": 14.638636363636364,
                "pitch": 38,
                "velocity": 80,
                "duration": 0.20000000000000107,
                "tempo": 120.0
            },
            {
                "start_time": 14.24090909090909,
                "end_time": 14.638636363636364,
                "pitch": 50,
                "velocity": 80,
                "duration": 0.3977272727272734,
                "tempo": 120.0
            },
            {
                "start_time": 14.638636363636364,
                "end_time": 14.838636363636363,
                "pitch": 47,
                "velocity": 80,
                "duration": 0.1999999999999993,
                "tempo": 120.0
            },
            {
                "start_time": 14.838636363636363,
                "end_time": 15.038636363636362,
                "pitch": 38,
                "velocity": 80,
                "duration": 0.1999999999999993,
                "tempo": 120.0
            },
            {
                "start_time": 14.638636363636364,
                "end_time": 15.038636363636362,
                "pitch": 50,
                "velocity": 80,
                "duration": 0.3999999999999986,
                "tempo": 120.0
            },
            {
                "start_time": 14.040909090909091,
                "end_time": 15.236363636363636,
                "pitch": 33,
                "velocity": 80,
                "duration": 1.1954545454545453,
                "tempo": 120.0
            },
            {
                "start_time": 15.038636363636362,
                "end_time": 15.236363636363636,
                "pitch": 45,
                "velocity": 80,
                "duration": 0.19772727272727408,
                "tempo": 120.0
            },
            {
                "start_time": 15.236363636363636,
                "end_time": 15.436363636363636,
                "pitch": 38,
                "velocity": 80,
                "duration": 0.1999999999999993,
                "tempo": 120.0
            },
            {
                "start_time": 15.038636363636362,
                "end_time": 15.636363636363635,
                "pitch": 50,
                "velocity": 80,
                "duration": 0.5977272727272727,
                "tempo": 120.0
            },
            {
                "start_time": 15.436363636363636,
                "end_time": 15.636363636363635,
                "pitch": 50,
                "velocity": 80,
                "duration": 0.1999999999999993,
                "tempo": 120.0
            },
            {
                "start_time": 15.636363636363635,
                "end_time": 15.838636363636363,
                "pitch": 38,
                "velocity": 80,
                "duration": 0.20227272727272805,
                "tempo": 120.0
            },
            {
                "start_time": 15.838636363636363,
                "end_time": 16.04090909090909,
                "pitch": 38,
                "velocity": 80,
                "duration": 0.20227272727272627,
                "tempo": 120.0
            },
            {
                "start_time": 16.04090909090909,
                "end_time": 16.243181818181817,
                "pitch": 38,
                "velocity": 80,
                "duration": 0.20227272727272805,
                "tempo": 120.0
            },
            {
                "start_time": 16.243181818181817,
                "end_time": 16.443181818181817,
                "pitch": 38,
                "velocity": 80,
                "duration": 0.1999999999999993,
                "tempo": 120.0
            },
            {
                "start_time": 16.443181818181817,
                "end_time": 16.645454545454545,
                "pitch": 38,
                "velocity": 80,
                "duration": 0.20227272727272805,
                "tempo": 120.0
            },
            {
                "start_time": 16.645454545454545,
                "end_time": 16.847727272727273,
                "pitch": 50,
                "velocity": 80,
                "duration": 0.20227272727272805,
                "tempo": 120.0
            },
            {
                "start_time": 16.847727272727273,
                "end_time": 17.05,
                "pitch": 38,
                "velocity": 80,
                "duration": 0.20227272727272805,
                "tempo": 120.0
            },
            {
                "start_time": 15.236363636363636,
                "end_time": 17.252272727272725,
                "pitch": 33,
                "velocity": 80,
                "duration": 2.015909090909089,
                "tempo": 120.0
            },
            {
                "start_time": 17.05,
                "end_time": 17.252272727272725,
                "pitch": 45,
                "velocity": 80,
                "duration": 0.2022727272727245,
                "tempo": 120.0
            },
            {
                "start_time": 17.252272727272725,
                "end_time": 17.452272727272728,
                "pitch": 38,
                "velocity": 80,
                "duration": 0.20000000000000284,
                "tempo": 120.0
            },
            {
                "start_time": 17.05,
                "end_time": 17.452272727272728,
                "pitch": 50,
                "velocity": 80,
                "duration": 0.40227272727272734,
                "tempo": 120.0
            },
            {
                "start_time": 17.452272727272728,
                "end_time": 17.65,
                "pitch": 48,
                "velocity": 80,
                "duration": 0.19772727272727053,
                "tempo": 120.0
            },
            {
                "start_time": 14.438636363636363,
                "end_time": 17.652272727272727,
                "pitch": 36,
                "velocity": 80,
                "duration": 3.2136363636363647,
                "tempo": 120.0
            },
            {
                "start_time": 17.65,
                "end_time": 17.652272727272727,
                "pitch": 36,
                "velocity": 80,
                "duration": 0.0022727272727287584,
                "tempo": 120.0
            },
            {
                "start_time": 17.652272727272727,
                "end_time": 17.849999999999998,
                "pitch": 38,
                "velocity": 80,
                "duration": 0.19772727272727053,
                "tempo": 120.0
            },
            {
                "start_time": 17.452272727272728,
                "end_time": 17.849999999999998,
                "pitch": 50,
                "velocity": 80,
                "duration": 0.3977272727272698,
                "tempo": 120.0
            },
            {
                "start_time": 14.838636363636363,
                "end_time": 18.05,
                "pitch": 35,
                "velocity": 80,
                "duration": 3.2113636363636378,
                "tempo": 120.0
            },
            {
                "start_time": 17.849999999999998,
                "end_time": 18.05,
                "pitch": 47,
                "velocity": 80,
                "duration": 0.20000000000000284,
                "tempo": 120.0
            },
            {
                "start_time": 18.05,
                "end_time": 18.25,
                "pitch": 38,
                "velocity": 80,
                "duration": 0.1999999999999993,
                "tempo": 120.0
            },
            {
                "start_time": 17.849999999999998,
                "end_time": 18.25,
                "pitch": 50,
                "velocity": 80,
                "duration": 0.40000000000000213,
                "tempo": 120.0
            },
            {
                "start_time": 17.252272727272725,
                "end_time": 18.44772727272727,
                "pitch": 33,
                "velocity": 80,
                "duration": 1.1954545454545453,
                "tempo": 120.0
            },
            {
                "start_time": 18.25,
                "end_time": 18.44772727272727,
                "pitch": 45,
                "velocity": 80,
                "duration": 0.19772727272727053,
                "tempo": 120.0
            },
            {
                "start_time": 18.44772727272727,
                "end_time": 18.647727272727273,
                "pitch": 38,
                "velocity": 80,
                "duration": 0.20000000000000284,
                "tempo": 120.0
            },
            {
                "start_time": 18.25,
                "end_time": 18.847727272727273,
                "pitch": 50,
                "velocity": 80,
                "duration": 0.5977272727272727,
                "tempo": 120.0
            },
            {
                "start_time": 18.647727272727273,
                "end_time": 18.847727272727273,
                "pitch": 50,
                "velocity": 80,
                "duration": 0.1999999999999993,
                "tempo": 120.0
            },
            {
                "start_time": 18.847727272727273,
                "end_time": 19.05,
                "pitch": 38,
                "velocity": 80,
                "duration": 0.20227272727272805,
                "tempo": 120.0
            },
            {
                "start_time": 19.05,
                "end_time": 19.252272727272725,
                "pitch": 36,
                "velocity": 80,
                "duration": 0.2022727272727245,
                "tempo": 120.0
            },
            {
                "start_time": 19.252272727272725,
                "end_time": 19.454545454545453,
                "pitch": 36,
                "velocity": 80,
                "duration": 0.20227272727272805,
                "tempo": 120.0
            },
            {
                "start_time": 19.454545454545453,
                "end_time": 19.654545454545453,
                "pitch": 36,
                "velocity": 80,
                "duration": 0.1999999999999993,
                "tempo": 120.0
            },
            {
                "start_time": 19.654545454545453,
                "end_time": 19.85681818181818,
                "pitch": 36,
                "velocity": 80,
                "duration": 0.20227272727272805,
                "tempo": 120.0
            },
            {
                "start_time": 19.85681818181818,
                "end_time": 20.05909090909091,
                "pitch": 48,
                "velocity": 80,
                "duration": 0.20227272727272805,
                "tempo": 120.0
            },
            {
                "start_time": 20.05909090909091,
                "end_time": 20.261363636363637,
                "pitch": 36,
                "velocity": 80,
                "duration": 0.20227272727272805,
                "tempo": 120.0
            },
            {
                "start_time": 12.627272727272727,
                "end_time": 20.46363636363636,
                "pitch": 31,
                "velocity": 80,
                "duration": 7.836363636363634,
                "tempo": 120.0
            },
            {
                "start_time": 20.261363636363637,
                "end_time": 20.46363636363636,
                "pitch": 43,
                "velocity": 80,
                "duration": 0.2022727272727245,
                "tempo": 120.0
            },
            {
                "start_time": 20.46363636363636,
                "end_time": 20.663636363636364,
                "pitch": 36,
                "velocity": 80,
                "duration": 0.20000000000000284,
                "tempo": 120.0
            },
            {
                "start_time": 20.261363636363637,
                "end_time": 20.863636363636363,
                "pitch": 48,
                "velocity": 80,
                "duration": 0.6022727272727266,
                "tempo": 120.0
            },
            {
                "start_time": 20.663636363636364,
                "end_time": 20.863636363636363,
                "pitch": 48,
                "velocity": 80,
                "duration": 0.1999999999999993,
                "tempo": 120.0
            },
            {
                "start_time": 20.863636363636363,
                "end_time": 21.061363636363634,
                "pitch": 34,
                "velocity": 80,
                "duration": 0.19772727272727053,
                "tempo": 120.0
            },
            {
                "start_time": 18.44772727272727,
                "end_time": 21.261363636363637,
                "pitch": 33,
                "velocity": 80,
                "duration": 2.813636363636366,
                "tempo": 120.0
            },
            {
                "start_time": 21.061363636363634,
                "end_time": 21.261363636363637,
                "pitch": 45,
                "velocity": 80,
                "duration": 0.20000000000000284,
                "tempo": 120.0
            },
            {
                "start_time": 21.261363636363637,
                "end_time": 21.461363636363636,
                "pitch": 36,
                "velocity": 80,
                "duration": 0.1999999999999993,
                "tempo": 120.0
            },
            {
                "start_time": 21.061363636363634,
                "end_time": 21.461363636363636,
                "pitch": 48,
                "velocity": 80,
                "duration": 0.40000000000000213,
                "tempo": 120.0
            },
            {
                "start_time": 20.46363636363636,
                "end_time": 21.659090909090907,
                "pitch": 31,
                "velocity": 80,
                "duration": 1.1954545454545453,
                "tempo": 120.0
            },
            {
                "start_time": 21.461363636363636,
                "end_time": 21.659090909090907,
                "pitch": 43,
                "velocity": 80,
                "duration": 0.19772727272727053,
                "tempo": 120.0
            },
            {
                "start_time": 21.659090909090907,
                "end_time": 21.85909090909091,
                "pitch": 36,
                "velocity": 80,
                "duration": 0.20000000000000284,
                "tempo": 120.0
            },
            {
                "start_time": 21.461363636363636,
                "end_time": 22.05909090909091,
                "pitch": 48,
                "velocity": 80,
                "duration": 0.5977272727272727,
                "tempo": 120.0
            },
            {
                "start_time": 21.85909090909091,
                "end_time": 22.05909090909091,
                "pitch": 48,
                "velocity": 80,
                "duration": 0.1999999999999993,
                "tempo": 120.0
            },
            {
                "start_time": 22.05909090909091,
                "end_time": 22.261363636363637,
                "pitch": 36,
                "velocity": 80,
                "duration": 0.20227272727272805,
                "tempo": 120.0
            },
            {
                "start_time": 22.261363636363637,
                "end_time": 22.46363636363636,
                "pitch": 36,
                "velocity": 80,
                "duration": 0.2022727272727245,
                "tempo": 120.0
            },
            {
                "start_time": 22.46363636363636,
                "end_time": 22.66590909090909,
                "pitch": 36,
                "velocity": 80,
                "duration": 0.20227272727272805,
                "tempo": 120.0
            },
            {
                "start_time": 22.66590909090909,
                "end_time": 22.868181818181817,
                "pitch": 36,
                "velocity": 80,
                "duration": 0.20227272727272805,
                "tempo": 120.0
            },
            {
                "start_time": 22.868181818181817,
                "end_time": 23.070454545454545,
                "pitch": 36,
                "velocity": 80,
                "duration": 0.20227272727272805,
                "tempo": 120.0
            },
            {
                "start_time": 23.070454545454545,
                "end_time": 23.270454545454545,
                "pitch": 48,
                "velocity": 80,
                "duration": 0.1999999999999993,
                "tempo": 120.0
            },
            {
                "start_time": 23.270454545454545,
                "end_time": 23.472727272727273,
                "pitch": 36,
                "velocity": 80,
                "duration": 0.20227272727272805,
                "tempo": 120.0
            },
            {
                "start_time": 23.472727272727273,
                "end_time": 23.674999999999997,
                "pitch": 43,
                "velocity": 80,
                "duration": 0.2022727272727245,
                "tempo": 120.0
            },
            {
                "start_time": 23.674999999999997,
                "end_time": 23.875,
                "pitch": 36,
                "velocity": 80,
                "duration": 0.20000000000000284,
                "tempo": 120.0
            },
            {
                "start_time": 23.875,
                "end_time": 24.075,
                "pitch": 48,
                "velocity": 80,
                "duration": 0.1999999999999993,
                "tempo": 120.0
            },
            {
                "start_time": 24.075,
                "end_time": 24.27272727272727,
                "pitch": 34,
                "velocity": 80,
                "duration": 0.19772727272727053,
                "tempo": 120.0
            },
            {
                "start_time": 21.261363636363637,
                "end_time": 24.472727272727273,
                "pitch": 33,
                "velocity": 80,
                "duration": 3.211363636363636,
                "tempo": 120.0
            },
            {
                "start_time": 24.27272727272727,
                "end_time": 24.472727272727273,
                "pitch": 45,
                "velocity": 80,
                "duration": 0.20000000000000284,
                "tempo": 120.0
            },
            {
                "start_time": 24.472727272727273,
                "end_time": 24.672727272727272,
                "pitch": 36,
                "velocity": 80,
                "duration": 0.1999999999999993,
                "tempo": 120.0
            },
            {
                "start_time": 24.27272727272727,
                "end_time": 24.672727272727272,
                "pitch": 48,
                "velocity": 80,
                "duration": 0.40000000000000213,
                "tempo": 120.0
            },
            {
                "start_time": 21.659090909090907,
                "end_time": 24.87272727272727,
                "pitch": 31,
                "velocity": 80,
                "duration": 3.2136363636363647,
                "tempo": 120.0
            },
            {
                "start_time": 24.672727272727272,
                "end_time": 24.87272727272727,
                "pitch": 43,
                "velocity": 80,
                "duration": 0.1999999999999993,
                "tempo": 120.0
            },
            {
                "start_time": 24.87272727272727,
                "end_time": 25.070454545454545,
                "pitch": 36,
                "velocity": 80,
                "duration": 0.19772727272727408,
                "tempo": 120.0
            },
            {
                "start_time": 24.672727272727272,
                "end_time": 25.270454545454545,
                "pitch": 48,
                "velocity": 80,
                "duration": 0.5977272727272727,
                "tempo": 120.0
            },
            {
                "start_time": 25.070454545454545,
                "end_time": 25.270454545454545,
                "pitch": 48,
                "velocity": 80,
                "duration": 0.1999999999999993,
                "tempo": 120.0
            },
            {
                "start_time": 25.270454545454545,
                "end_time": 25.470454545454544,
                "pitch": 36,
                "velocity": 80,
                "duration": 0.1999999999999993,
                "tempo": 120.0
            },
            {
                "start_time": 25.470454545454544,
                "end_time": 25.668181818181818,
                "pitch": 43,
                "velocity": 80,
                "duration": 0.19772727272727408,
                "tempo": 120.0
            },
            {
                "start_time": 25.668181818181818,
                "end_time": 25.868181818181817,
                "pitch": 43,
                "velocity": 80,
                "duration": 0.1999999999999993,
                "tempo": 120.0
            },
            {
                "start_time": 25.868181818181817,
                "end_time": 26.068181818181817,
                "pitch": 43,
                "velocity": 80,
                "duration": 0.1999999999999993,
                "tempo": 120.0
            },
            {
                "start_time": 26.068181818181817,
                "end_time": 26.268181818181816,
                "pitch": 43,
                "velocity": 80,
                "duration": 0.1999999999999993,
                "tempo": 120.0
            },
            {
                "start_time": 26.268181818181816,
                "end_time": 26.46590909090909,
                "pitch": 55,
                "velocity": 80,
                "duration": 0.19772727272727408,
                "tempo": 120.0
            },
            {
                "start_time": 26.46590909090909,
                "end_time": 26.66590909090909,
                "pitch": 43,
                "velocity": 80,
                "duration": 0.1999999999999993,
                "tempo": 120.0
            },
            {
                "start_time": 26.66590909090909,
                "end_time": 26.86590909090909,
                "pitch": 50,
                "velocity": 80,
                "duration": 0.1999999999999993,
                "tempo": 120.0
            },
            {
                "start_time": 26.86590909090909,
                "end_time": 27.068181818181817,
                "pitch": 43,
                "velocity": 80,
                "duration": 0.20227272727272805,
                "tempo": 120.0
            },
            {
                "start_time": 11.227272727272727,
                "end_time": 27.270454545454545,
                "pitch": 53,
                "velocity": 80,
                "duration": 16.043181818181818,
                "tempo": 120.0
            },
            {
                "start_time": 27.068181818181817,
                "end_time": 27.270454545454545,
                "pitch": 53,
                "velocity": 80,
                "duration": 0.20227272727272805,
                "tempo": 120.0
            },
            {
                "start_time": 27.068181818181817,
                "end_time": 27.472727272727273,
                "pitch": 43,
                "velocity": 80,
                "duration": 0.4045454545454561,
                "tempo": 120.0
            },
            {
                "start_time": 27.270454545454545,
                "end_time": 27.472727272727273,
                "pitch": 43,
                "velocity": 80,
                "duration": 0.20227272727272805,
                "tempo": 120.0
            },
            {
                "start_time": 11.627272727272727,
                "end_time": 27.674999999999997,
                "pitch": 52,
                "velocity": 80,
                "duration": 16.047727272727272,
                "tempo": 120.0
            },
            {
                "start_time": 27.472727272727273,
                "end_time": 27.674999999999997,
                "pitch": 52,
                "velocity": 80,
                "duration": 0.2022727272727245,
                "tempo": 120.0
            },
            {
                "start_time": 27.472727272727273,
                "end_time": 27.875,
                "pitch": 43,
                "velocity": 80,
                "duration": 0.40227272727272734,
                "tempo": 120.0
            },
            {
                "start_time": 27.674999999999997,
                "end_time": 27.875,
                "pitch": 43,
                "velocity": 80,
                "duration": 0.20000000000000284,
                "tempo": 120.0
            },
            {
                "start_time": 27.877272727272725,
                "end_time": 28.077272727272724,
                "pitch": 50,
                "velocity": 80,
                "duration": 0.1999999999999993,
                "tempo": 120.0
            },
            {
                "start_time": 27.877272727272725,
                "end_time": 28.279545454545453,
                "pitch": 43,
                "velocity": 80,
                "duration": 0.40227272727272734,
                "tempo": 120.0
            },
            {
                "start_time": 28.077272727272724,
                "end_time": 28.279545454545453,
                "pitch": 43,
                "velocity": 80,
                "duration": 0.20227272727272805,
                "tempo": 120.0
            },
            {
                "start_time": 28.279545454545453,
                "end_time": 28.48181818181818,
                "pitch": 55,
                "velocity": 80,
                "duration": 0.20227272727272805,
                "tempo": 120.0
            },
            {
                "start_time": 28.48181818181818,
                "end_time": 28.68181818181818,
                "pitch": 43,
                "velocity": 80,
                "duration": 0.1999999999999993,
                "tempo": 120.0
            },
            {
                "start_time": 28.68181818181818,
                "end_time": 28.88181818181818,
                "pitch": 43,
                "velocity": 80,
                "duration": 0.1999999999999993,
                "tempo": 120.0
            },
            {
                "start_time": 28.88181818181818,
                "end_time": 29.079545454545453,
                "pitch": 43,
                "velocity": 80,
                "duration": 0.19772727272727408,
                "tempo": 120.0
            },
            {
                "start_time": 29.079545454545453,
                "end_time": 29.279545454545453,
                "pitch": 43,
                "velocity": 80,
                "duration": 0.1999999999999993,
                "tempo": 120.0
            },
            {
                "start_time": 29.279545454545453,
                "end_time": 29.479545454545452,
                "pitch": 43,
                "velocity": 80,
                "duration": 0.1999999999999993,
                "tempo": 120.0
            },
            {
                "start_time": 29.479545454545452,
                "end_time": 29.679545454545455,
                "pitch": 55,
                "velocity": 80,
                "duration": 0.20000000000000284,
                "tempo": 120.0
            },
            {
                "start_time": 29.679545454545455,
                "end_time": 29.877272727272725,
                "pitch": 43,
                "velocity": 80,
                "duration": 0.19772727272727053,
                "tempo": 120.0
            },
            {
                "start_time": 28.077272727272724,
                "end_time": 30.077272727272724,
                "pitch": 50,
                "velocity": 80,
                "duration": 2.0,
                "tempo": 120.0
            },
            {
                "start_time": 29.877272727272725,
                "end_time": 30.077272727272724,
                "pitch": 50,
                "velocity": 80,
                "duration": 0.1999999999999993,
                "tempo": 120.0
            },
            {
                "start_time": 30.077272727272724,
                "end_time": 30.277272727272727,
                "pitch": 43,
                "velocity": 80,
                "duration": 0.20000000000000284,
                "tempo": 120.0
            },
            {
                "start_time": 27.270454545454545,
                "end_time": 30.477272727272727,
                "pitch": 53,
                "velocity": 80,
                "duration": 3.206818181818182,
                "tempo": 120.0
            },
            {
                "start_time": 30.277272727272727,
                "end_time": 30.477272727272727,
                "pitch": 53,
                "velocity": 80,
                "duration": 0.1999999999999993,
                "tempo": 120.0
            },
            {
                "start_time": 30.277272727272727,
                "end_time": 30.674999999999997,
                "pitch": 43,
                "velocity": 80,
                "duration": 0.3977272727272698,
                "tempo": 120.0
            },
            {
                "start_time": 30.477272727272727,
                "end_time": 30.674999999999997,
                "pitch": 43,
                "velocity": 80,
                "duration": 0.19772727272727053,
                "tempo": 120.0
            },
            {
                "start_time": 27.674999999999997,
                "end_time": 30.875,
                "pitch": 52,
                "velocity": 80,
                "duration": 3.200000000000003,
                "tempo": 120.0
            },
            {
                "start_time": 30.674999999999997,
                "end_time": 30.875,
                "pitch": 52,
                "velocity": 80,
                "duration": 0.20000000000000284,
                "tempo": 120.0
            },
            {
                "start_time": 30.674999999999997,
                "end_time": 31.075,
                "pitch": 43,
                "velocity": 80,
                "duration": 0.40000000000000213,
                "tempo": 120.0
            },
            {
                "start_time": 30.875,
                "end_time": 31.075,
                "pitch": 43,
                "velocity": 80,
                "duration": 0.1999999999999993,
                "tempo": 120.0
            },
            {
                "start_time": 30.077272727272724,
                "end_time": 31.27272727272727,
                "pitch": 50,
                "velocity": 80,
                "duration": 1.1954545454545453,
                "tempo": 120.0
            },
            {
                "start_time": 31.075,
                "end_time": 31.27272727272727,
                "pitch": 50,
                "velocity": 80,
                "duration": 0.19772727272727053,
                "tempo": 120.0
            },
            {
                "start_time": 31.075,
                "end_time": 31.472727272727273,
                "pitch": 43,
                "velocity": 80,
                "duration": 0.3977272727272734,
                "tempo": 120.0
            },
            {
                "start_time": 31.27272727272727,
                "end_time": 31.472727272727273,
                "pitch": 43,
                "velocity": 80,
                "duration": 0.20000000000000284,
                "tempo": 120.0
            },
            {
                "start_time": 31.472727272727273,
                "end_time": 31.672727272727272,
                "pitch": 55,
                "velocity": 80,
                "duration": 0.1999999999999993,
                "tempo": 120.0
            },
            {
                "start_time": 31.672727272727272,
                "end_time": 31.875,
                "pitch": 43,
                "velocity": 80,
                "duration": 0.20227272727272805,
                "tempo": 120.0
            }
        ],
        "Harpsichord": [
            {
                "start_time": 6.386363636363636,
                "end_time": 6.5636363636363635,
                "pitch": 43,
                "velocity": 51,
                "duration": 0.1772727272727277,
                "tempo": 120.0
            },
            {
                "start_time": 6.5636363636363635,
                "end_time": 6.738636363636363,
                "pitch": 43,
                "velocity": 51,
                "duration": 0.17499999999999982,
                "tempo": 120.0
            },
            {
                "start_time": 6.738636363636363,
                "end_time": 6.913636363636363,
                "pitch": 43,
                "velocity": 51,
                "duration": 0.17499999999999982,
                "tempo": 120.0
            },
            {
                "start_time": 6.913636363636363,
                "end_time": 7.090909090909091,
                "pitch": 43,
                "velocity": 51,
                "duration": 0.1772727272727277,
                "tempo": 120.0
            },
            {
                "start_time": 7.090909090909091,
                "end_time": 7.265909090909091,
                "pitch": 55,
                "velocity": 51,
                "duration": 0.17499999999999982,
                "tempo": 120.0
            },
            {
                "start_time": 7.265909090909091,
                "end_time": 7.4431818181818175,
                "pitch": 43,
                "velocity": 51,
                "duration": 0.1772727272727268,
                "tempo": 120.0
            },
            {
                "start_time": 7.4431818181818175,
                "end_time": 7.618181818181818,
                "pitch": 50,
                "velocity": 51,
                "duration": 0.1750000000000007,
                "tempo": 120.0
            },
            {
                "start_time": 7.4431818181818175,
                "end_time": 7.820454545454545,
                "pitch": 43,
                "velocity": 51,
                "duration": 0.37727272727272787,
                "tempo": 120.0
            },
            {
                "start_time": 7.618181818181818,
                "end_time": 7.820454545454545,
                "pitch": 43,
                "velocity": 51,
                "duration": 0.20227272727272716,
                "tempo": 120.0
            },
            {
                "start_time": 7.820454545454545,
                "end_time": 8.022727272727272,
                "pitch": 53,
                "velocity": 51,
                "duration": 0.20227272727272627,
                "tempo": 120.0
            },
            {
                "start_time": 8.022727272727272,
                "end_time": 8.225,
                "pitch": 43,
                "velocity": 51,
                "duration": 0.20227272727272805,
                "tempo": 120.0
            },
            {
                "start_time": 8.225,
                "end_time": 8.427272727272728,
                "pitch": 52,
                "velocity": 51,
                "duration": 0.20227272727272805,
                "tempo": 120.0
            },
            {
                "start_time": 8.427272727272728,
                "end_time": 8.627272727272727,
                "pitch": 43,
                "velocity": 51,
                "duration": 0.1999999999999993,
                "tempo": 120.0
            },
            {
                "start_time": 7.618181818181818,
                "end_time": 8.829545454545453,
                "pitch": 50,
                "velocity": 51,
                "duration": 1.211363636363635,
                "tempo": 120.0
            },
            {
                "start_time": 8.627272727272727,
                "end_time": 8.829545454545453,
                "pitch": 50,
                "velocity": 51,
                "duration": 0.20227272727272627,
                "tempo": 120.0
            },
            {
                "start_time": 8.627272727272727,
                "end_time": 9.031818181818181,
                "pitch": 43,
                "velocity": 51,
                "duration": 0.4045454545454543,
                "tempo": 120.0
            },
            {
                "start_time": 8.829545454545453,
                "end_time": 9.031818181818181,
                "pitch": 43,
                "velocity": 51,
                "duration": 0.20227272727272805,
                "tempo": 120.0
            },
            {
                "start_time": 9.031818181818181,
                "end_time": 9.23409090909091,
                "pitch": 55,
                "velocity": 51,
                "duration": 0.20227272727272805,
                "tempo": 120.0
            },
            {
                "start_time": 9.23409090909091,
                "end_time": 9.434090909090909,
                "pitch": 43,
                "velocity": 51,
                "duration": 0.1999999999999993,
                "tempo": 120.0
            },
            {
                "start_time": 9.434090909090909,
                "end_time": 9.634090909090908,
                "pitch": 43,
                "velocity": 51,
                "duration": 0.1999999999999993,
                "tempo": 120.0
            },
            {
                "start_time": 9.634090909090908,
                "end_time": 9.831818181818182,
                "pitch": 43,
                "velocity": 51,
                "duration": 0.19772727272727408,
                "tempo": 120.0
            },
            {
                "start_time": 9.831818181818182,
                "end_time": 10.031818181818181,
                "pitch": 43,
                "velocity": 51,
                "duration": 0.1999999999999993,
                "tempo": 120.0
            },
            {
                "start_time": 10.031818181818181,
                "end_time": 10.23181818181818,
                "pitch": 43,
                "velocity": 51,
                "duration": 0.1999999999999993,
                "tempo": 120.0
            },
            {
                "start_time": 10.23181818181818,
                "end_time": 10.431818181818182,
                "pitch": 55,
                "velocity": 51,
                "duration": 0.20000000000000107,
                "tempo": 120.0
            },
            {
                "start_time": 10.431818181818182,
                "end_time": 10.629545454545454,
                "pitch": 43,
                "velocity": 51,
                "duration": 0.1977272727272723,
                "tempo": 120.0
            },
            {
                "start_time": 10.629545454545454,
                "end_time": 10.829545454545453,
                "pitch": 50,
                "velocity": 51,
                "duration": 0.1999999999999993,
                "tempo": 120.0
            },
            {
                "start_time": 10.629545454545454,
                "end_time": 11.029545454545454,
                "pitch": 43,
                "velocity": 51,
                "duration": 0.40000000000000036,
                "tempo": 120.0
            },
            {
                "start_time": 10.829545454545453,
                "end_time": 11.029545454545454,
                "pitch": 43,
                "velocity": 51,
                "duration": 0.20000000000000107,
                "tempo": 120.0
            },
            {
                "start_time": 11.029545454545454,
                "end_time": 11.227272727272727,
                "pitch": 53,
                "velocity": 51,
                "duration": 0.1977272727272723,
                "tempo": 120.0
            },
            {
                "start_time": 11.227272727272727,
                "end_time": 11.427272727272726,
                "pitch": 43,
                "velocity": 51,
                "duration": 0.1999999999999993,
                "tempo": 120.0
            },
            {
                "start_time": 11.427272727272726,
                "end_time": 11.627272727272727,
                "pitch": 52,
                "velocity": 51,
                "duration": 0.20000000000000107,
                "tempo": 120.0
            },
            {
                "start_time": 11.627272727272727,
                "end_time": 11.827272727272726,
                "pitch": 43,
                "velocity": 51,
                "duration": 0.1999999999999993,
                "tempo": 120.0
            },
            {
                "start_time": 10.829545454545453,
                "end_time": 12.024999999999999,
                "pitch": 50,
                "velocity": 51,
                "duration": 1.1954545454545453,
                "tempo": 120.0
            },
            {
                "start_time": 11.827272727272726,
                "end_time": 12.024999999999999,
                "pitch": 50,
                "velocity": 51,
                "duration": 0.1977272727272723,
                "tempo": 120.0
            },
            {
                "start_time": 11.827272727272726,
                "end_time": 12.225,
                "pitch": 43,
                "velocity": 51,
                "duration": 0.3977272727272734,
                "tempo": 120.0
            },
            {
                "start_time": 12.024999999999999,
                "end_time": 12.225,
                "pitch": 43,
                "velocity": 51,
                "duration": 0.20000000000000107,
                "tempo": 120.0
            },
            {
                "start_time": 12.225,
                "end_time": 12.424999999999999,
                "pitch": 55,
                "velocity": 51,
                "duration": 0.1999999999999993,
                "tempo": 120.0
            },
            {
                "start_time": 12.424999999999999,
                "end_time": 12.627272727272727,
                "pitch": 43,
                "velocity": 51,
                "duration": 0.20227272727272805,
                "tempo": 120.0
            },
            {
                "start_time": 12.627272727272727,
                "end_time": 12.829545454545453,
                "pitch": 38,
                "velocity": 51,
                "duration": 0.20227272727272627,
                "tempo": 120.0
            },
            {
                "start_time": 12.829545454545453,
                "end_time": 13.029545454545454,
                "pitch": 38,
                "velocity": 51,
                "duration": 0.20000000000000107,
                "tempo": 120.0
            },
            {
                "start_time": 13.029545454545454,
                "end_time": 13.23181818181818,
                "pitch": 38,
                "velocity": 51,
                "duration": 0.20227272727272627,
                "tempo": 120.0
            },
            {
                "start_time": 13.23181818181818,
                "end_time": 13.434090909090909,
                "pitch": 38,
                "velocity": 51,
                "duration": 0.20227272727272805,
                "tempo": 120.0
            },
            {
                "start_time": 13.434090909090909,
                "end_time": 13.636363636363635,
                "pitch": 50,
                "velocity": 51,
                "duration": 0.20227272727272627,
                "tempo": 120.0
            },
            {
                "start_time": 13.636363636363635,
                "end_time": 13.838636363636363,
                "pitch": 38,
                "velocity": 51,
                "duration": 0.20227272727272805,
                "tempo": 120.0
            },
            {
                "start_time": 13.838636363636363,
                "end_time": 14.040909090909091,
                "pitch": 45,
                "velocity": 51,
                "duration": 0.20227272727272805,
                "tempo": 120.0
            },
            {
                "start_time": 14.040909090909091,
                "end_time": 14.24090909090909,
                "pitch": 38,
                "velocity": 51,
                "duration": 0.1999999999999993,
                "tempo": 120.0
            },
            {
                "start_time": 14.24090909090909,
                "end_time": 14.438636363636363,
                "pitch": 48,
                "velocity": 51,
                "duration": 0.1977272727272723,
                "tempo": 120.0
            },
            {
                "start_time": 14.438636363636363,
                "end_time": 14.638636363636364,
                "pitch": 38,
                "velocity": 51,
                "duration": 0.20000000000000107,
                "tempo": 120.0
            },
            {
                "start_time": 14.638636363636364,
                "end_time": 14.838636363636363,
                "pitch": 47,
                "velocity": 51,
                "duration": 0.1999999999999993,
                "tempo": 120.0
            },
            {
                "start_time": 14.838636363636363,
                "end_time": 15.038636363636362,
                "pitch": 38,
                "velocity": 51,
                "duration": 0.1999999999999993,
                "tempo": 120.0
            },
            {
                "start_time": 15.038636363636362,
                "end_time": 15.236363636363636,
                "pitch": 45,
                "velocity": 51,
                "duration": 0.19772727272727408,
                "tempo": 120.0
            },
            {
                "start_time": 15.236363636363636,
                "end_time": 15.436363636363636,
                "pitch": 38,
                "velocity": 51,
                "duration": 0.1999999999999993,
                "tempo": 120.0
            },
            {
                "start_time": 15.038636363636362,
                "end_time": 15.636363636363635,
                "pitch": 50,
                "velocity": 51,
                "duration": 0.5977272727272727,
                "tempo": 120.0
            },
            {
                "start_time": 15.436363636363636,
                "end_time": 15.636363636363635,
                "pitch": 50,
                "velocity": 51,
                "duration": 0.1999999999999993,
                "tempo": 120.0
            },
            {
                "start_time": 15.636363636363635,
                "end_time": 15.838636363636363,
                "pitch": 38,
                "velocity": 51,
                "duration": 0.20227272727272805,
                "tempo": 120.0
            },
            {
                "start_time": 15.838636363636363,
                "end_time": 16.04090909090909,
                "pitch": 38,
                "velocity": 51,
                "duration": 0.20227272727272627,
                "tempo": 120.0
            },
            {
                "start_time": 16.04090909090909,
                "end_time": 16.243181818181817,
                "pitch": 38,
                "velocity": 51,
                "duration": 0.20227272727272805,
                "tempo": 120.0
            },
            {
                "start_time": 16.243181818181817,
                "end_time": 16.443181818181817,
                "pitch": 38,
                "velocity": 51,
                "duration": 0.1999999999999993,
                "tempo": 120.0
            },
            {
                "start_time": 16.443181818181817,
                "end_time": 16.645454545454545,
                "pitch": 38,
                "velocity": 51,
                "duration": 0.20227272727272805,
                "tempo": 120.0
            },
            {
                "start_time": 16.645454545454545,
                "end_time": 16.847727272727273,
                "pitch": 50,
                "velocity": 51,
                "duration": 0.20227272727272805,
                "tempo": 120.0
            },
            {
                "start_time": 16.847727272727273,
                "end_time": 17.05,
                "pitch": 38,
                "velocity": 51,
                "duration": 0.20227272727272805,
                "tempo": 120.0
            },
            {
                "start_time": 17.05,
                "end_time": 17.252272727272725,
                "pitch": 45,
                "velocity": 51,
                "duration": 0.2022727272727245,
                "tempo": 120.0
            },
            {
                "start_time": 17.252272727272725,
                "end_time": 17.452272727272728,
                "pitch": 38,
                "velocity": 51,
                "duration": 0.20000000000000284,
                "tempo": 120.0
            },
            {
                "start_time": 17.452272727272728,
                "end_time": 17.652272727272727,
                "pitch": 48,
                "velocity": 51,
                "duration": 0.1999999999999993,
                "tempo": 120.0
            },
            {
                "start_time": 17.652272727272727,
                "end_time": 17.849999999999998,
                "pitch": 38,
                "velocity": 51,
                "duration": 0.19772727272727053,
                "tempo": 120.0
            },
            {
                "start_time": 17.849999999999998,
                "end_time": 18.05,
                "pitch": 47,
                "velocity": 51,
                "duration": 0.20000000000000284,
                "tempo": 120.0
            },
            {
                "start_time": 18.05,
                "end_time": 18.25,
                "pitch": 38,
                "velocity": 51,
                "duration": 0.1999999999999993,
                "tempo": 120.0
            },
            {
                "start_time": 18.25,
                "end_time": 18.44772727272727,
                "pitch": 45,
                "velocity": 51,
                "duration": 0.19772727272727053,
                "tempo": 120.0
            },
            {
                "start_time": 15.236363636363636,
                "end_time": 18.45,
                "pitch": 33,
                "velocity": 51,
                "duration": 3.213636363636363,
                "tempo": 120.0
            },
            {
                "start_time": 18.44772727272727,
                "end_time": 18.45,
                "pitch": 33,
                "velocity": 51,
                "duration": 0.0022727272727287584,
                "tempo": 120.0
            },
            {
                "start_time": 18.45,
                "end_time": 18.647727272727273,
                "pitch": 38,
                "velocity": 51,
                "duration": 0.19772727272727408,
                "tempo": 120.0
            },
            {
                "start_time": 18.647727272727273,
                "end_time": 18.847727272727273,
                "pitch": 50,
                "velocity": 51,
                "duration": 0.1999999999999993,
                "tempo": 120.0
            },
            {
                "start_time": 18.847727272727273,
                "end_time": 19.05,
                "pitch": 38,
                "velocity": 51,
                "duration": 0.20227272727272805,
                "tempo": 120.0
            },
            {
                "start_time": 19.05,
                "end_time": 19.252272727272725,
                "pitch": 36,
                "velocity": 51,
                "duration": 0.2022727272727245,
                "tempo": 120.0
            },
            {
                "start_time": 19.252272727272725,
                "end_time": 19.454545454545453,
                "pitch": 36,
                "velocity": 51,
                "duration": 0.20227272727272805,
                "tempo": 120.0
            },
            {
                "start_time": 19.454545454545453,
                "end_time": 19.65681818181818,
                "pitch": 36,
                "velocity": 51,
                "duration": 0.20227272727272805,
                "tempo": 120.0
            },
            {
                "start_time": 19.65681818181818,
                "end_time": 19.85681818181818,
                "pitch": 36,
                "velocity": 51,
                "duration": 0.1999999999999993,
                "tempo": 120.0
            },
            {
                "start_time": 19.85681818181818,
                "end_time": 20.05909090909091,
                "pitch": 48,
                "velocity": 51,
                "duration": 0.20227272727272805,
                "tempo": 120.0
            },
            {
                "start_time": 20.05909090909091,
                "end_time": 20.261363636363637,
                "pitch": 36,
                "velocity": 51,
                "duration": 0.20227272727272805,
                "tempo": 120.0
            },
            {
                "start_time": 20.261363636363637,
                "end_time": 20.46363636363636,
                "pitch": 43,
                "velocity": 51,
                "duration": 0.2022727272727245,
                "tempo": 120.0
            },
            {
                "start_time": 20.46363636363636,
                "end_time": 20.663636363636364,
                "pitch": 36,
                "velocity": 51,
                "duration": 0.20000000000000284,
                "tempo": 120.0
            },
            {
                "start_time": 20.663636363636364,
                "end_time": 20.863636363636363,
                "pitch": 48,
                "velocity": 51,
                "duration": 0.1999999999999993,
                "tempo": 120.0
            },
            {
                "start_time": 20.863636363636363,
                "end_time": 21.061363636363634,
                "pitch": 34,
                "velocity": 51,
                "duration": 0.19772727272727053,
                "tempo": 120.0
            },
            {
                "start_time": 21.061363636363634,
                "end_time": 21.261363636363637,
                "pitch": 45,
                "velocity": 51,
                "duration": 0.20000000000000284,
                "tempo": 120.0
            },
            {
                "start_time": 21.261363636363637,
                "end_time": 21.461363636363636,
                "pitch": 36,
                "velocity": 51,
                "duration": 0.1999999999999993,
                "tempo": 120.0
            },
            {
                "start_time": 21.461363636363636,
                "end_time": 21.661363636363635,
                "pitch": 43,
                "velocity": 51,
                "duration": 0.1999999999999993,
                "tempo": 120.0
            },
            {
                "start_time": 21.661363636363635,
                "end_time": 21.85909090909091,
                "pitch": 36,
                "velocity": 51,
                "duration": 0.19772727272727408,
                "tempo": 120.0
            },
            {
                "start_time": 21.461363636363636,
                "end_time": 22.05909090909091,
                "pitch": 48,
                "velocity": 51,
                "duration": 0.5977272727272727,
                "tempo": 120.0
            },
            {
                "start_time": 21.85909090909091,
                "end_time": 22.05909090909091,
                "pitch": 48,
                "velocity": 51,
                "duration": 0.1999999999999993,
                "tempo": 120.0
            },
            {
                "start_time": 22.05909090909091,
                "end_time": 22.261363636363637,
                "pitch": 36,
                "velocity": 51,
                "duration": 0.20227272727272805,
                "tempo": 120.0
            },
            {
                "start_time": 22.261363636363637,
                "end_time": 22.46363636363636,
                "pitch": 36,
                "velocity": 51,
                "duration": 0.2022727272727245,
                "tempo": 120.0
            },
            {
                "start_time": 22.46363636363636,
                "end_time": 22.66590909090909,
                "pitch": 36,
                "velocity": 51,
                "duration": 0.20227272727272805,
                "tempo": 120.0
            },
            {
                "start_time": 22.66590909090909,
                "end_time": 22.868181818181817,
                "pitch": 36,
                "velocity": 51,
                "duration": 0.20227272727272805,
                "tempo": 120.0
            },
            {
                "start_time": 22.868181818181817,
                "end_time": 23.070454545454545,
                "pitch": 36,
                "velocity": 51,
                "duration": 0.20227272727272805,
                "tempo": 120.0
            },
            {
                "start_time": 23.070454545454545,
                "end_time": 23.270454545454545,
                "pitch": 48,
                "velocity": 51,
                "duration": 0.1999999999999993,
                "tempo": 120.0
            },
            {
                "start_time": 23.270454545454545,
                "end_time": 23.472727272727273,
                "pitch": 36,
                "velocity": 51,
                "duration": 0.20227272727272805,
                "tempo": 120.0
            },
            {
                "start_time": 20.46363636363636,
                "end_time": 23.674999999999997,
                "pitch": 31,
                "velocity": 51,
                "duration": 3.211363636363636,
                "tempo": 120.0
            },
            {
                "start_time": 23.472727272727273,
                "end_time": 23.674999999999997,
                "pitch": 43,
                "velocity": 51,
                "duration": 0.2022727272727245,
                "tempo": 120.0
            },
            {
                "start_time": 23.674999999999997,
                "end_time": 23.875,
                "pitch": 36,
                "velocity": 51,
                "duration": 0.20000000000000284,
                "tempo": 120.0
            },
            {
                "start_time": 23.472727272727273,
                "end_time": 24.075,
                "pitch": 48,
                "velocity": 51,
                "duration": 0.6022727272727266,
                "tempo": 120.0
            },
            {
                "start_time": 23.875,
                "end_time": 24.075,
                "pitch": 48,
                "velocity": 51,
                "duration": 0.1999999999999993,
                "tempo": 120.0
            },
            {
                "start_time": 24.075,
                "end_time": 24.27272727272727,
                "pitch": 34,
                "velocity": 51,
                "duration": 0.19772727272727053,
                "tempo": 120.0
            },
            {
                "start_time": 24.275,
                "end_time": 24.472727272727273,
                "pitch": 45,
                "velocity": 51,
                "duration": 0.19772727272727408,
                "tempo": 120.0
            },
            {
                "start_time": 24.472727272727273,
                "end_time": 24.672727272727272,
                "pitch": 36,
                "velocity": 51,
                "duration": 0.1999999999999993,
                "tempo": 120.0
            },
            {
                "start_time": 24.672727272727272,
                "end_time": 24.87272727272727,
                "pitch": 43,
                "velocity": 51,
                "duration": 0.1999999999999993,
                "tempo": 120.0
            },
            {
                "start_time": 24.87272727272727,
                "end_time": 25.070454545454545,
                "pitch": 36,
                "velocity": 51,
                "duration": 0.19772727272727408,
                "tempo": 120.0
            },
            {
                "start_time": 24.672727272727272,
                "end_time": 25.270454545454545,
                "pitch": 48,
                "velocity": 51,
                "duration": 0.5977272727272727,
                "tempo": 120.0
            },
            {
                "start_time": 25.070454545454545,
                "end_time": 25.270454545454545,
                "pitch": 48,
                "velocity": 51,
                "duration": 0.1999999999999993,
                "tempo": 120.0
            },
            {
                "start_time": 25.270454545454545,
                "end_time": 25.470454545454544,
                "pitch": 36,
                "velocity": 51,
                "duration": 0.1999999999999993,
                "tempo": 120.0
            },
            {
                "start_time": 25.470454545454544,
                "end_time": 25.670454545454543,
                "pitch": 43,
                "velocity": 51,
                "duration": 0.1999999999999993,
                "tempo": 120.0
            },
            {
                "start_time": 25.670454545454543,
                "end_time": 25.868181818181817,
                "pitch": 43,
                "velocity": 51,
                "duration": 0.19772727272727408,
                "tempo": 120.0
            },
            {
                "start_time": 25.868181818181817,
                "end_time": 26.068181818181817,
                "pitch": 43,
                "velocity": 51,
                "duration": 0.1999999999999993,
                "tempo": 120.0
            },
            {
                "start_time": 26.068181818181817,
                "end_time": 26.268181818181816,
                "pitch": 43,
                "velocity": 51,
                "duration": 0.1999999999999993,
                "tempo": 120.0
            },
            {
                "start_time": 26.268181818181816,
                "end_time": 26.46590909090909,
                "pitch": 55,
                "velocity": 51,
                "duration": 0.19772727272727408,
                "tempo": 120.0
            },
            {
                "start_time": 26.46590909090909,
                "end_time": 26.66590909090909,
                "pitch": 43,
                "velocity": 51,
                "duration": 0.1999999999999993,
                "tempo": 120.0
            },
            {
                "start_time": 26.66590909090909,
                "end_time": 26.86590909090909,
                "pitch": 50,
                "velocity": 51,
                "duration": 0.1999999999999993,
                "tempo": 120.0
            },
            {
                "start_time": 26.66590909090909,
                "end_time": 27.068181818181817,
                "pitch": 43,
                "velocity": 51,
                "duration": 0.40227272727272734,
                "tempo": 120.0
            },
            {
                "start_time": 26.86590909090909,
                "end_time": 27.068181818181817,
                "pitch": 43,
                "velocity": 51,
                "duration": 0.20227272727272805,
                "tempo": 120.0
            },
            {
                "start_time": 27.068181818181817,
                "end_time": 27.270454545454545,
                "pitch": 53,
                "velocity": 51,
                "duration": 0.20227272727272805,
                "tempo": 120.0
            },
            {
                "start_time": 27.270454545454545,
                "end_time": 27.472727272727273,
                "pitch": 43,
                "velocity": 51,
                "duration": 0.20227272727272805,
                "tempo": 120.0
            },
            {
                "start_time": 27.472727272727273,
                "end_time": 27.674999999999997,
                "pitch": 52,
                "velocity": 51,
                "duration": 0.2022727272727245,
                "tempo": 120.0
            },
            {
                "start_time": 27.674999999999997,
                "end_time": 27.877272727272725,
                "pitch": 43,
                "velocity": 51,
                "duration": 0.20227272727272805,
                "tempo": 120.0
            },
            {
                "start_time": 26.86590909090909,
                "end_time": 28.077272727272724,
                "pitch": 50,
                "velocity": 51,
                "duration": 1.211363636363636,
                "tempo": 120.0
            },
            {
                "start_time": 27.877272727272725,
                "end_time": 28.077272727272724,
                "pitch": 50,
                "velocity": 51,
                "duration": 0.1999999999999993,
                "tempo": 120.0
            },
            {
                "start_time": 27.877272727272725,
                "end_time": 28.279545454545453,
                "pitch": 43,
                "velocity": 51,
                "duration": 0.40227272727272734,
                "tempo": 120.0
            },
            {
                "start_time": 28.077272727272724,
                "end_time": 28.279545454545453,
                "pitch": 43,
                "velocity": 51,
                "duration": 0.20227272727272805,
                "tempo": 120.0
            },
            {
                "start_time": 28.279545454545453,
                "end_time": 28.48181818181818,
                "pitch": 55,
                "velocity": 51,
                "duration": 0.20227272727272805,
                "tempo": 120.0
            },
            {
                "start_time": 28.48181818181818,
                "end_time": 28.68181818181818,
                "pitch": 43,
                "velocity": 51,
                "duration": 0.1999999999999993,
                "tempo": 120.0
            },
            {
                "start_time": 28.68181818181818,
                "end_time": 28.88181818181818,
                "pitch": 43,
                "velocity": 51,
                "duration": 0.1999999999999993,
                "tempo": 120.0
            },
            {
                "start_time": 28.88181818181818,
                "end_time": 29.081818181818182,
                "pitch": 43,
                "velocity": 51,
                "duration": 0.20000000000000284,
                "tempo": 120.0
            },
            {
                "start_time": 29.081818181818182,
                "end_time": 29.279545454545453,
                "pitch": 43,
                "velocity": 51,
                "duration": 0.19772727272727053,
                "tempo": 120.0
            },
            {
                "start_time": 29.279545454545453,
                "end_time": 29.479545454545452,
                "pitch": 43,
                "velocity": 51,
                "duration": 0.1999999999999993,
                "tempo": 120.0
            },
            {
                "start_time": 29.479545454545452,
                "end_time": 29.679545454545455,
                "pitch": 55,
                "velocity": 51,
                "duration": 0.20000000000000284,
                "tempo": 120.0
            },
            {
                "start_time": 29.679545454545455,
                "end_time": 29.877272727272725,
                "pitch": 43,
                "velocity": 51,
                "duration": 0.19772727272727053,
                "tempo": 120.0
            },
            {
                "start_time": 29.877272727272725,
                "end_time": 30.077272727272724,
                "pitch": 50,
                "velocity": 51,
                "duration": 0.1999999999999993,
                "tempo": 120.0
            },
            {
                "start_time": 29.877272727272725,
                "end_time": 30.277272727272727,
                "pitch": 43,
                "velocity": 51,
                "duration": 0.40000000000000213,
                "tempo": 120.0
            },
            {
                "start_time": 30.077272727272724,
                "end_time": 30.277272727272727,
                "pitch": 43,
                "velocity": 51,
                "duration": 0.20000000000000284,
                "tempo": 120.0
            },
            {
                "start_time": 30.277272727272727,
                "end_time": 30.477272727272727,
                "pitch": 53,
                "velocity": 51,
                "duration": 0.1999999999999993,
                "tempo": 120.0
            },
            {
                "start_time": 30.477272727272727,
                "end_time": 30.674999999999997,
                "pitch": 43,
                "velocity": 51,
                "duration": 0.19772727272727053,
                "tempo": 120.0
            },
            {
                "start_time": 30.674999999999997,
                "end_time": 30.875,
                "pitch": 52,
                "velocity": 51,
                "duration": 0.20000000000000284,
                "tempo": 120.0
            },
            {
                "start_time": 30.674999999999997,
                "end_time": 31.075,
                "pitch": 43,
                "velocity": 51,
                "duration": 0.40000000000000213,
                "tempo": 120.0
            },
            {
                "start_time": 30.875,
                "end_time": 31.075,
                "pitch": 43,
                "velocity": 51,
                "duration": 0.1999999999999993,
                "tempo": 120.0
            },
            {
                "start_time": 31.075,
                "end_time": 31.27272727272727,
                "pitch": 50,
                "velocity": 51,
                "duration": 0.19772727272727053,
                "tempo": 120.0
            },
            {
                "start_time": 31.275,
                "end_time": 31.472727272727273,
                "pitch": 43,
                "velocity": 51,
                "duration": 0.19772727272727408,
                "tempo": 120.0
            },
            {
                "start_time": 31.472727272727273,
                "end_time": 31.672727272727272,
                "pitch": 55,
                "velocity": 51,
                "duration": 0.1999999999999993,
                "tempo": 120.0
            },
            {
                "start_time": 31.672727272727272,
                "end_time": 31.875,
                "pitch": 43,
                "velocity": 51,
                "duration": 0.20227272727272805,
                "tempo": 120.0
            }
        ]
    }
}