{
    "track_id": "14 Boss 2",
    "mood": "angry",
    "instruments": {
        "Lead 2 (sawtooth)": [
            {
                "start_time": 0.00909090909090909,
                "end_time": 0.10227272727272727,
                "pitch": 55,
                "velocity": 64,
                "duration": 0.09318181818181817,
                "tempo": 120.0
            },
            {
                "start_time": 0.10227272727272727,
                "end_time": 0.22045454545454543,
                "pitch": 61,
                "velocity": 64,
                "duration": 0.11818181818181817,
                "tempo": 120.0
            },
            {
                "start_time": 0.22045454545454543,
                "end_time": 0.32045454545454544,
                "pitch": 67,
                "velocity": 64,
                "duration": 0.1,
                "tempo": 120.0
            },
            {
                "start_time": 0.32045454545454544,
                "end_time": 0.4340909090909091,
                "pitch": 60,
                "velocity": 64,
                "duration": 0.11363636363636365,
                "tempo": 120.0
            },
            {
                "start_time": 0.4340909090909091,
                "end_time": 0.5477272727272727,
                "pitch": 66,
                "velocity": 64,
                "duration": 0.11363636363636365,
                "tempo": 120.0
            },
            {
                "start_time": 0.5477272727272727,
                "end_time": 0.6454545454545454,
                "pitch": 72,
                "velocity": 64,
                "duration": 0.09772727272727266,
                "tempo": 120.0
            },
            {
                "start_time": 0.6454545454545454,
                "end_time": 0.7636363636363636,
                "pitch": 65,
                "velocity": 64,
                "duration": 0.11818181818181817,
                "tempo": 120.0
            },
            {
                "start_time": 0.7636363636363636,
                "end_time": 0.8795454545454545,
                "pitch": 71,
                "velocity": 64,
                "duration": 0.11590909090909096,
                "tempo": 120.0
            },
            {
                "start_time": 0.8795454545454545,
                "end_time": 0.9818181818181818,
                "pitch": 77,
                "velocity": 64,
                "duration": 0.10227272727272729,
                "tempo": 120.0
            },
            {
                "start_time": 0.9818181818181818,
                "end_time": 1.0999999999999999,
                "pitch": 70,
                "velocity": 64,
                "duration": 0.11818181818181805,
                "tempo": 120.0
            },
            {
                "start_time": 1.1022727272727273,
                "end_time": 1.2227272727272727,
                "pitch": 76,
                "velocity": 64,
                "duration": 0.12045454545454537,
                "tempo": 120.0
            },
            {
                "start_time": 1.2227272727272727,
                "end_time": 1.325,
                "pitch": 82,
                "velocity": 64,
                "duration": 0.10227272727272729,
                "tempo": 120.0
            },
            {
                "start_time": 1.325,
                "end_time": 1.6613636363636364,
                "pitch": 88,
                "velocity": 64,
                "duration": 0.3363636363636364,
                "tempo": 120.0
            },
            {
                "start_time": 1.6613636363636364,
                "end_time": 1.7772727272727271,
                "pitch": 85,
                "velocity": 64,
                "duration": 0.11590909090909074,
                "tempo": 120.0
            },
            {
                "start_time": 1.7795454545454545,
                "end_time": 1.8954545454545453,
                "pitch": 82,
                "velocity": 64,
                "duration": 0.11590909090909074,
                "tempo": 120.0
            },
            {
                "start_time": 1.8954545454545453,
                "end_time": 1.9977272727272726,
                "pitch": 85,
                "velocity": 64,
                "duration": 0.10227272727272729,
                "tempo": 120.0
            },
            {
                "start_time": 1.9977272727272726,
                "end_time": 2.118181818181818,
                "pitch": 82,
                "velocity": 64,
                "duration": 0.12045454545454559,
                "tempo": 120.0
            },
            {
                "start_time": 2.118181818181818,
                "end_time": 2.2386363636363633,
                "pitch": 79,
                "velocity": 64,
                "duration": 0.12045454545454515,
                "tempo": 120.0
            },
            {
                "start_time": 2.2386363636363633,
                "end_time": 2.340909090909091,
                "pitch": 82,
                "velocity": 64,
                "duration": 0.10227272727272751,
                "tempo": 120.0
            },
            {
                "start_time": 2.340909090909091,
                "end_time": 2.459090909090909,
                "pitch": 79,
                "velocity": 64,
                "duration": 0.11818181818181817,
                "tempo": 120.0
            },
            {
                "start_time": 2.459090909090909,
                "end_time": 2.577272727272727,
                "pitch": 76,
                "velocity": 64,
                "duration": 0.11818181818181817,
                "tempo": 120.0
            },
            {
                "start_time": 2.577272727272727,
                "end_time": 2.6772727272727272,
                "pitch": 79,
                "velocity": 64,
                "duration": 0.10000000000000009,
                "tempo": 120.0
            },
            {
                "start_time": 2.6772727272727272,
                "end_time": 2.7977272727272724,
                "pitch": 76,
                "velocity": 64,
                "duration": 0.12045454545454515,
                "tempo": 120.0
            },
            {
                "start_time": 2.7977272727272724,
                "end_time": 2.918181818181818,
                "pitch": 73,
                "velocity": 64,
                "duration": 0.12045454545454559,
                "tempo": 120.0
            },
            {
                "start_time": 2.918181818181818,
                "end_time": 3.0204545454545455,
                "pitch": 76,
                "velocity": 64,
                "duration": 0.10227272727272751,
                "tempo": 120.0
            },
            {
                "start_time": 3.0227272727272725,
                "end_time": 3.1386363636363637,
                "pitch": 73,
                "velocity": 64,
                "duration": 0.11590909090909118,
                "tempo": 120.0
            },
            {
                "start_time": 3.1386363636363637,
                "end_time": 3.256818181818182,
                "pitch": 70,
                "velocity": 64,
                "duration": 0.11818181818181817,
                "tempo": 120.0
            },
            {
                "start_time": 3.256818181818182,
                "end_time": 3.3568181818181815,
                "pitch": 73,
                "velocity": 64,
                "duration": 0.09999999999999964,
                "tempo": 120.0
            },
            {
                "start_time": 3.3568181818181815,
                "end_time": 3.4749999999999996,
                "pitch": 70,
                "velocity": 64,
                "duration": 0.11818181818181817,
                "tempo": 120.0
            },
            {
                "start_time": 3.4749999999999996,
                "end_time": 3.590909090909091,
                "pitch": 67,
                "velocity": 64,
                "duration": 0.11590909090909118,
                "tempo": 120.0
            },
            {
                "start_time": 3.590909090909091,
                "end_time": 3.693181818181818,
                "pitch": 70,
                "velocity": 64,
                "duration": 0.10227272727272707,
                "tempo": 120.0
            },
            {
                "start_time": 3.693181818181818,
                "end_time": 3.811363636363636,
                "pitch": 67,
                "velocity": 64,
                "duration": 0.11818181818181817,
                "tempo": 120.0
            },
            {
                "start_time": 3.8136363636363635,
                "end_time": 3.934090909090909,
                "pitch": 64,
                "velocity": 64,
                "duration": 0.12045454545454559,
                "tempo": 120.0
            },
            {
                "start_time": 3.934090909090909,
                "end_time": 4.036363636363636,
                "pitch": 67,
                "velocity": 64,
                "duration": 0.10227272727272707,
                "tempo": 120.0
            },
            {
                "start_time": 4.036363636363636,
                "end_time": 4.154545454545454,
                "pitch": 64,
                "velocity": 64,
                "duration": 0.11818181818181817,
                "tempo": 120.0
            },
            {
                "start_time": 4.154545454545454,
                "end_time": 4.2727272727272725,
                "pitch": 61,
                "velocity": 64,
                "duration": 0.11818181818181817,
                "tempo": 120.0
            },
            {
                "start_time": 4.2727272727272725,
                "end_time": 4.372727272727272,
                "pitch": 64,
                "velocity": 64,
                "duration": 0.09999999999999964,
                "tempo": 120.0
            },
            {
                "start_time": 4.372727272727272,
                "end_time": 4.493181818181818,
                "pitch": 61,
                "velocity": 64,
                "duration": 0.12045454545454604,
                "tempo": 120.0
            },
            {
                "start_time": 4.493181818181818,
                "end_time": 4.613636363636363,
                "pitch": 58,
                "velocity": 64,
                "duration": 0.12045454545454515,
                "tempo": 120.0
            },
            {
                "start_time": 4.613636363636363,
                "end_time": 4.718181818181818,
                "pitch": 61,
                "velocity": 64,
                "duration": 0.1045454545454545,
                "tempo": 120.0
            },
            {
                "start_time": 4.718181818181818,
                "end_time": 4.834090909090909,
                "pitch": 58,
                "velocity": 64,
                "duration": 0.11590909090909118,
                "tempo": 120.0
            },
            {
                "start_time": 4.834090909090909,
                "end_time": 4.952272727272727,
                "pitch": 55,
                "velocity": 64,
                "duration": 0.11818181818181817,
                "tempo": 120.0
            },
            {
                "start_time": 4.952272727272727,
                "end_time": 5.052272727272727,
                "pitch": 58,
                "velocity": 64,
                "duration": 0.09999999999999964,
                "tempo": 120.0
            },
            {
                "start_time": 5.052272727272727,
                "end_time": 5.170454545454545,
                "pitch": 55,
                "velocity": 64,
                "duration": 0.11818181818181817,
                "tempo": 120.0
            },
            {
                "start_time": 5.170454545454545,
                "end_time": 5.286363636363636,
                "pitch": 52,
                "velocity": 64,
                "duration": 0.11590909090909118,
                "tempo": 120.0
            },
            {
                "start_time": 5.288636363636363,
                "end_time": 5.388636363636364,
                "pitch": 55,
                "velocity": 64,
                "duration": 0.10000000000000053,
                "tempo": 120.0
            },
            {
                "start_time": 5.388636363636364,
                "end_time": 5.509090909090909,
                "pitch": 55,
                "velocity": 64,
                "duration": 0.12045454545454515,
                "tempo": 120.0
            },
            {
                "start_time": 5.509090909090909,
                "end_time": 5.629545454545454,
                "pitch": 61,
                "velocity": 64,
                "duration": 0.12045454545454515,
                "tempo": 120.0
            },
            {
                "start_time": 5.629545454545454,
                "end_time": 5.7318181818181815,
                "pitch": 67,
                "velocity": 64,
                "duration": 0.10227272727272751,
                "tempo": 120.0
            },
            {
                "start_time": 5.7340909090909085,
                "end_time": 5.85,
                "pitch": 60,
                "velocity": 64,
                "duration": 0.11590909090909118,
                "tempo": 120.0
            },
            {
                "start_time": 5.85,
                "end_time": 5.968181818181818,
                "pitch": 66,
                "velocity": 64,
                "duration": 0.11818181818181817,
                "tempo": 120.0
            },
            {
                "start_time": 5.968181818181818,
                "end_time": 6.0681818181818175,
                "pitch": 72,
                "velocity": 64,
                "duration": 0.09999999999999964,
                "tempo": 120.0
            },
            {
                "start_time": 6.0681818181818175,
                "end_time": 6.1886363636363635,
                "pitch": 65,
                "velocity": 64,
                "duration": 0.12045454545454604,
                "tempo": 120.0
            },
            {
                "start_time": 6.1886363636363635,
                "end_time": 6.309090909090909,
                "pitch": 71,
                "velocity": 64,
                "duration": 0.12045454545454515,
                "tempo": 120.0
            },
            {
                "start_time": 6.309090909090909,
                "end_time": 6.413636363636363,
                "pitch": 77,
                "velocity": 64,
                "duration": 0.1045454545454545,
                "tempo": 120.0
            },
            {
                "start_time": 6.413636363636363,
                "end_time": 6.529545454545454,
                "pitch": 70,
                "velocity": 64,
                "duration": 0.11590909090909118,
                "tempo": 120.0
            },
            {
                "start_time": 6.529545454545454,
                "end_time": 6.6477272727272725,
                "pitch": 76,
                "velocity": 64,
                "duration": 0.11818181818181817,
                "tempo": 120.0
            },
            {
                "start_time": 6.6477272727272725,
                "end_time": 6.747727272727272,
                "pitch": 82,
                "velocity": 64,
                "duration": 0.09999999999999964,
                "tempo": 120.0
            },
            {
                "start_time": 6.747727272727272,
                "end_time": 7.084090909090909,
                "pitch": 88,
                "velocity": 64,
                "duration": 0.33636363636363686,
                "tempo": 120.0
            },
            {
                "start_time": 7.084090909090909,
                "end_time": 7.199999999999999,
                "pitch": 85,
                "velocity": 64,
                "duration": 0.1159090909090903,
                "tempo": 120.0
            },
            {
                "start_time": 7.199999999999999,
                "end_time": 7.3181818181818175,
                "pitch": 82,
                "velocity": 64,
                "duration": 0.11818181818181817,
                "tempo": 120.0
            },
            {
                "start_time": 7.3181818181818175,
                "end_time": 7.418181818181818,
                "pitch": 85,
                "velocity": 64,
                "duration": 0.10000000000000053,
                "tempo": 120.0
            },
            {
                "start_time": 7.418181818181818,
                "end_time": 7.538636363636363,
                "pitch": 82,
                "velocity": 64,
                "duration": 0.12045454545454515,
                "tempo": 120.0
            },
            {
                "start_time": 7.54090909090909,
                "end_time": 7.661363636363636,
                "pitch": 79,
                "velocity": 64,
                "duration": 0.12045454545454604,
                "tempo": 120.0
            },
            {
                "start_time": 7.661363636363636,
                "end_time": 7.763636363636364,
                "pitch": 82,
                "velocity": 64,
                "duration": 0.10227272727272751,
                "tempo": 120.0
            },
            {
                "start_time": 7.763636363636364,
                "end_time": 7.881818181818182,
                "pitch": 79,
                "velocity": 64,
                "duration": 0.11818181818181817,
                "tempo": 120.0
            },
            {
                "start_time": 7.881818181818182,
                "end_time": 7.997727272727272,
                "pitch": 76,
                "velocity": 64,
                "duration": 0.1159090909090903,
                "tempo": 120.0
            },
            {
                "start_time": 7.997727272727272,
                "end_time": 8.1,
                "pitch": 79,
                "velocity": 64,
                "duration": 0.10227272727272751,
                "tempo": 120.0
            },
            {
                "start_time": 8.1,
                "end_time": 8.218181818181817,
                "pitch": 76,
                "velocity": 64,
                "duration": 0.11818181818181728,
                "tempo": 120.0
            },
            {
                "start_time": 8.220454545454546,
                "end_time": 8.34090909090909,
                "pitch": 73,
                "velocity": 64,
                "duration": 0.12045454545454426,
                "tempo": 120.0
            },
            {
                "start_time": 8.34090909090909,
                "end_time": 8.443181818181818,
                "pitch": 76,
                "velocity": 64,
                "duration": 0.1022727272727284,
                "tempo": 120.0
            },
            {
                "start_time": 8.443181818181818,
                "end_time": 8.561363636363636,
                "pitch": 73,
                "velocity": 64,
                "duration": 0.11818181818181728,
                "tempo": 120.0
            },
            {
                "start_time": 8.561363636363636,
                "end_time": 8.679545454545455,
                "pitch": 70,
                "velocity": 64,
                "duration": 0.11818181818181905,
                "tempo": 120.0
            },
            {
                "start_time": 8.679545454545455,
                "end_time": 8.779545454545454,
                "pitch": 73,
                "velocity": 64,
                "duration": 0.09999999999999964,
                "tempo": 120.0
            },
            {
                "start_time": 8.779545454545454,
                "end_time": 8.897727272727272,
                "pitch": 70,
                "velocity": 64,
                "duration": 0.11818181818181728,
                "tempo": 120.0
            },
            {
                "start_time": 8.897727272727272,
                "end_time": 9.013636363636364,
                "pitch": 67,
                "velocity": 64,
                "duration": 0.11590909090909207,
                "tempo": 120.0
            },
            {
                "start_time": 9.013636363636364,
                "end_time": 9.113636363636363,
                "pitch": 70,
                "velocity": 64,
                "duration": 0.09999999999999964,
                "tempo": 120.0
            },
            {
                "start_time": 9.11590909090909,
                "end_time": 9.23409090909091,
                "pitch": 67,
                "velocity": 64,
                "duration": 0.11818181818181905,
                "tempo": 120.0
            },
            {
                "start_time": 9.23409090909091,
                "end_time": 9.35681818181818,
                "pitch": 64,
                "velocity": 64,
                "duration": 0.12272727272727124,
                "tempo": 120.0
            },
            {
                "start_time": 9.35681818181818,
                "end_time": 9.459090909090909,
                "pitch": 67,
                "velocity": 64,
                "duration": 0.1022727272727284,
                "tempo": 120.0
            },
            {
                "start_time": 9.459090909090909,
                "end_time": 9.577272727272726,
                "pitch": 64,
                "velocity": 64,
                "duration": 0.11818181818181728,
                "tempo": 120.0
            },
            {
                "start_time": 9.577272727272726,
                "end_time": 9.693181818181818,
                "pitch": 61,
                "velocity": 64,
                "duration": 0.11590909090909207,
                "tempo": 120.0
            },
            {
                "start_time": 9.695454545454545,
                "end_time": 9.795454545454545,
                "pitch": 64,
                "velocity": 64,
                "duration": 0.09999999999999964,
                "tempo": 120.0
            },
            {
                "start_time": 9.795454545454545,
                "end_time": 9.915909090909091,
                "pitch": 61,
                "velocity": 64,
                "duration": 0.12045454545454604,
                "tempo": 120.0
            },
            {
                "start_time": 9.915909090909091,
                "end_time": 10.036363636363635,
                "pitch": 58,
                "velocity": 64,
                "duration": 0.12045454545454426,
                "tempo": 120.0
            },
            {
                "start_time": 10.036363636363635,
                "end_time": 10.138636363636364,
                "pitch": 61,
                "velocity": 64,
                "duration": 0.1022727272727284,
                "tempo": 120.0
            },
            {
                "start_time": 10.14090909090909,
                "end_time": 10.256818181818181,
                "pitch": 58,
                "velocity": 64,
                "duration": 0.1159090909090903,
                "tempo": 120.0
            },
            {
                "start_time": 10.256818181818181,
                "end_time": 10.375,
                "pitch": 55,
                "velocity": 64,
                "duration": 0.11818181818181905,
                "tempo": 120.0
            },
            {
                "start_time": 10.375,
                "end_time": 10.475,
                "pitch": 58,
                "velocity": 64,
                "duration": 0.09999999999999964,
                "tempo": 120.0
            },
            {
                "start_time": 10.475,
                "end_time": 10.593181818181817,
                "pitch": 55,
                "velocity": 64,
                "duration": 0.11818181818181728,
                "tempo": 120.0
            },
            {
                "start_time": 10.593181818181817,
                "end_time": 10.709090909090909,
                "pitch": 52,
                "velocity": 64,
                "duration": 0.11590909090909207,
                "tempo": 120.0
            },
            {
                "start_time": 10.709090909090909,
                "end_time": 10.809090909090909,
                "pitch": 55,
                "velocity": 64,
                "duration": 0.09999999999999964,
                "tempo": 120.0
            }
        ],
        "Acoustic Guitar (nylon)": [
            {
                "start_time": 0.004545454545454545,
                "end_time": 1.3409090909090908,
                "pitch": 79,
                "velocity": 64,
                "duration": 1.3363636363636362,
                "tempo": 120.0
            },
            {
                "start_time": 1.3409090909090908,
                "end_time": 2.693181818181818,
                "pitch": 79,
                "velocity": 64,
                "duration": 1.352272727272727,
                "tempo": 120.0
            },
            {
                "start_time": 2.693181818181818,
                "end_time": 4.052272727272727,
                "pitch": 79,
                "velocity": 64,
                "duration": 1.359090909090909,
                "tempo": 120.0
            },
            {
                "start_time": 4.052272727272727,
                "end_time": 5.404545454545454,
                "pitch": 79,
                "velocity": 64,
                "duration": 1.3522727272727275,
                "tempo": 120.0
            },
            {
                "start_time": 5.404545454545454,
                "end_time": 6.763636363636364,
                "pitch": 79,
                "velocity": 64,
                "duration": 1.3590909090909093,
                "tempo": 120.0
            },
            {
                "start_time": 6.763636363636364,
                "end_time": 8.11590909090909,
                "pitch": 79,
                "velocity": 64,
                "duration": 1.3522727272727266,
                "tempo": 120.0
            },
            {
                "start_time": 8.11590909090909,
                "end_time": 9.475,
                "pitch": 79,
                "velocity": 64,
                "duration": 1.3590909090909093,
                "tempo": 120.0
            },
            {
                "start_time": 9.475,
                "end_time": 10.809090909090909,
                "pitch": 79,
                "velocity": 64,
                "duration": 1.334090909090909,
                "tempo": 120.0
            }
        ],
        "Electric Piano 1": [
            {
                "start_time": 0.0022727272727272726,
                "end_time": 0.10227272727272727,
                "pitch": 28,
                "velocity": 64,
                "duration": 0.09999999999999999,
                "tempo": 120.0
            },
            {
                "start_time": 0.10227272727272727,
                "end_time": 0.21818181818181817,
                "pitch": 40,
                "velocity": 64,
                "duration": 0.1159090909090909,
                "tempo": 120.0
            },
            {
                "start_time": 0.21818181818181817,
                "end_time": 0.32045454545454544,
                "pitch": 28,
                "velocity": 64,
                "duration": 0.10227272727272727,
                "tempo": 120.0
            },
            {
                "start_time": 0.32045454545454544,
                "end_time": 0.5477272727272727,
                "pitch": 40,
                "velocity": 64,
                "duration": 0.2272727272727273,
                "tempo": 120.0
            },
            {
                "start_time": 0.5477272727272727,
                "end_time": 0.6454545454545454,
                "pitch": 40,
                "velocity": 64,
                "duration": 0.09772727272727266,
                "tempo": 120.0
            },
            {
                "start_time": 0.6454545454545454,
                "end_time": 0.7613636363636364,
                "pitch": 28,
                "velocity": 64,
                "duration": 0.11590909090909096,
                "tempo": 120.0
            },
            {
                "start_time": 0.7613636363636364,
                "end_time": 0.8795454545454545,
                "pitch": 40,
                "velocity": 64,
                "duration": 0.11818181818181817,
                "tempo": 120.0
            },
            {
                "start_time": 0.8795454545454545,
                "end_time": 0.9795454545454545,
                "pitch": 28,
                "velocity": 64,
                "duration": 0.09999999999999998,
                "tempo": 120.0
            },
            {
                "start_time": 0.9795454545454545,
                "end_time": 1.2204545454545455,
                "pitch": 40,
                "velocity": 64,
                "duration": 0.24090909090909096,
                "tempo": 120.0
            },
            {
                "start_time": 1.2204545454545455,
                "end_time": 1.325,
                "pitch": 40,
                "velocity": 64,
                "duration": 0.1045454545454545,
                "tempo": 120.0
            },
            {
                "start_time": 1.325,
                "end_time": 1.440909090909091,
                "pitch": 28,
                "velocity": 64,
                "duration": 0.11590909090909096,
                "tempo": 120.0
            },
            {
                "start_time": 1.4431818181818181,
                "end_time": 1.559090909090909,
                "pitch": 40,
                "velocity": 64,
                "duration": 0.11590909090909096,
                "tempo": 120.0
            },
            {
                "start_time": 1.559090909090909,
                "end_time": 1.659090909090909,
                "pitch": 28,
                "velocity": 64,
                "duration": 0.09999999999999987,
                "tempo": 120.0
            },
            {
                "start_time": 1.659090909090909,
                "end_time": 1.8954545454545453,
                "pitch": 40,
                "velocity": 64,
                "duration": 0.23636363636363633,
                "tempo": 120.0
            },
            {
                "start_time": 1.8954545454545453,
                "end_time": 1.9954545454545454,
                "pitch": 40,
                "velocity": 64,
                "duration": 0.10000000000000009,
                "tempo": 120.0
            },
            {
                "start_time": 1.9954545454545454,
                "end_time": 2.1159090909090907,
                "pitch": 28,
                "velocity": 64,
                "duration": 0.12045454545454537,
                "tempo": 120.0
            },
            {
                "start_time": 2.1159090909090907,
                "end_time": 2.2363636363636363,
                "pitch": 40,
                "velocity": 64,
                "duration": 0.12045454545454559,
                "tempo": 120.0
            },
            {
                "start_time": 2.2363636363636363,
                "end_time": 2.340909090909091,
                "pitch": 28,
                "velocity": 64,
                "duration": 0.1045454545454545,
                "tempo": 120.0
            },
            {
                "start_time": 2.340909090909091,
                "end_time": 2.4568181818181816,
                "pitch": 38,
                "velocity": 64,
                "duration": 0.11590909090909074,
                "tempo": 120.0
            },
            {
                "start_time": 2.4568181818181816,
                "end_time": 2.5749999999999997,
                "pitch": 39,
                "velocity": 64,
                "duration": 0.11818181818181817,
                "tempo": 120.0
            },
            {
                "start_time": 2.5749999999999997,
                "end_time": 2.675,
                "pitch": 40,
                "velocity": 64,
                "duration": 0.10000000000000009,
                "tempo": 120.0
            },
            {
                "start_time": 2.675,
                "end_time": 2.7954545454545454,
                "pitch": 28,
                "velocity": 64,
                "duration": 0.12045454545454559,
                "tempo": 120.0
            },
            {
                "start_time": 2.7954545454545454,
                "end_time": 2.9159090909090906,
                "pitch": 40,
                "velocity": 64,
                "duration": 0.12045454545454515,
                "tempo": 120.0
            },
            {
                "start_time": 2.9159090909090906,
                "end_time": 3.0204545454545455,
                "pitch": 28,
                "velocity": 64,
                "duration": 0.10454545454545494,
                "tempo": 120.0
            },
            {
                "start_time": 3.0204545454545455,
                "end_time": 3.2545454545454544,
                "pitch": 40,
                "velocity": 64,
                "duration": 0.2340909090909089,
                "tempo": 120.0
            },
            {
                "start_time": 3.2545454545454544,
                "end_time": 3.3545454545454545,
                "pitch": 40,
                "velocity": 64,
                "duration": 0.10000000000000009,
                "tempo": 120.0
            },
            {
                "start_time": 3.3568181818181815,
                "end_time": 3.4727272727272727,
                "pitch": 28,
                "velocity": 64,
                "duration": 0.11590909090909118,
                "tempo": 120.0
            },
            {
                "start_time": 3.4727272727272727,
                "end_time": 3.590909090909091,
                "pitch": 40,
                "velocity": 64,
                "duration": 0.11818181818181817,
                "tempo": 120.0
            },
            {
                "start_time": 3.590909090909091,
                "end_time": 3.690909090909091,
                "pitch": 28,
                "velocity": 64,
                "duration": 0.10000000000000009,
                "tempo": 120.0
            },
            {
                "start_time": 3.690909090909091,
                "end_time": 3.9318181818181817,
                "pitch": 40,
                "velocity": 64,
                "duration": 0.24090909090909074,
                "tempo": 120.0
            },
            {
                "start_time": 3.9318181818181817,
                "end_time": 4.036363636363636,
                "pitch": 40,
                "velocity": 64,
                "duration": 0.1045454545454545,
                "tempo": 120.0
            },
            {
                "start_time": 4.036363636363636,
                "end_time": 4.152272727272727,
                "pitch": 28,
                "velocity": 64,
                "duration": 0.11590909090909118,
                "tempo": 120.0
            },
            {
                "start_time": 4.152272727272727,
                "end_time": 4.2704545454545455,
                "pitch": 40,
                "velocity": 64,
                "duration": 0.11818181818181817,
                "tempo": 120.0
            },
            {
                "start_time": 4.2704545454545455,
                "end_time": 4.370454545454545,
                "pitch": 28,
                "velocity": 64,
                "duration": 0.09999999999999964,
                "tempo": 120.0
            },
            {
                "start_time": 4.370454545454545,
                "end_time": 4.611363636363636,
                "pitch": 40,
                "velocity": 64,
                "duration": 0.24090909090909118,
                "tempo": 120.0
            },
            {
                "start_time": 4.613636363636363,
                "end_time": 4.715909090909091,
                "pitch": 40,
                "velocity": 64,
                "duration": 0.10227272727272751,
                "tempo": 120.0
            },
            {
                "start_time": 4.715909090909091,
                "end_time": 4.834090909090909,
                "pitch": 28,
                "velocity": 64,
                "duration": 0.11818181818181817,
                "tempo": 120.0
            },
            {
                "start_time": 4.834090909090909,
                "end_time": 4.95,
                "pitch": 40,
                "velocity": 64,
                "duration": 0.11590909090909118,
                "tempo": 120.0
            },
            {
                "start_time": 4.95,
                "end_time": 5.052272727272727,
                "pitch": 28,
                "velocity": 64,
                "duration": 0.10227272727272663,
                "tempo": 120.0
            },
            {
                "start_time": 5.052272727272727,
                "end_time": 5.168181818181818,
                "pitch": 38,
                "velocity": 64,
                "duration": 0.11590909090909118,
                "tempo": 120.0
            },
            {
                "start_time": 5.168181818181818,
                "end_time": 5.286363636363636,
                "pitch": 39,
                "velocity": 64,
                "duration": 0.11818181818181817,
                "tempo": 120.0
            },
            {
                "start_time": 5.286363636363636,
                "end_time": 5.386363636363636,
                "pitch": 40,
                "velocity": 64,
                "duration": 0.09999999999999964,
                "tempo": 120.0
            },
            {
                "start_time": 5.386363636363636,
                "end_time": 5.506818181818182,
                "pitch": 28,
                "velocity": 64,
                "duration": 0.12045454545454604,
                "tempo": 120.0
            },
            {
                "start_time": 5.506818181818182,
                "end_time": 5.627272727272727,
                "pitch": 40,
                "velocity": 64,
                "duration": 0.12045454545454515,
                "tempo": 120.0
            },
            {
                "start_time": 5.627272727272727,
                "end_time": 5.7318181818181815,
                "pitch": 28,
                "velocity": 64,
                "duration": 0.1045454545454545,
                "tempo": 120.0
            },
            {
                "start_time": 5.7318181818181815,
                "end_time": 5.965909090909091,
                "pitch": 40,
                "velocity": 64,
                "duration": 0.23409090909090935,
                "tempo": 120.0
            },
            {
                "start_time": 5.965909090909091,
                "end_time": 6.0659090909090905,
                "pitch": 40,
                "velocity": 64,
                "duration": 0.09999999999999964,
                "tempo": 120.0
            },
            {
                "start_time": 6.0659090909090905,
                "end_time": 6.186363636363636,
                "pitch": 28,
                "velocity": 64,
                "duration": 0.12045454545454515,
                "tempo": 120.0
            },
            {
                "start_time": 6.186363636363636,
                "end_time": 6.306818181818182,
                "pitch": 40,
                "velocity": 64,
                "duration": 0.12045454545454604,
                "tempo": 120.0
            },
            {
                "start_time": 6.309090909090909,
                "end_time": 6.411363636363636,
                "pitch": 28,
                "velocity": 64,
                "duration": 0.10227272727272751,
                "tempo": 120.0
            },
            {
                "start_time": 6.411363636363636,
                "end_time": 6.6454545454545455,
                "pitch": 40,
                "velocity": 64,
                "duration": 0.23409090909090935,
                "tempo": 120.0
            },
            {
                "start_time": 6.6454545454545455,
                "end_time": 6.747727272727272,
                "pitch": 40,
                "velocity": 64,
                "duration": 0.10227272727272663,
                "tempo": 120.0
            },
            {
                "start_time": 6.747727272727272,
                "end_time": 6.863636363636363,
                "pitch": 28,
                "velocity": 64,
                "duration": 0.11590909090909118,
                "tempo": 120.0
            },
            {
                "start_time": 6.863636363636363,
                "end_time": 6.9818181818181815,
                "pitch": 40,
                "velocity": 64,
                "duration": 0.11818181818181817,
                "tempo": 120.0
            },
            {
                "start_time": 6.9818181818181815,
                "end_time": 7.081818181818181,
                "pitch": 28,
                "velocity": 64,
                "duration": 0.09999999999999964,
                "tempo": 120.0
            },
            {
                "start_time": 7.081818181818181,
                "end_time": 7.3159090909090905,
                "pitch": 40,
                "velocity": 64,
                "duration": 0.23409090909090935,
                "tempo": 120.0
            },
            {
                "start_time": 7.3181818181818175,
                "end_time": 7.418181818181818,
                "pitch": 40,
                "velocity": 64,
                "duration": 0.10000000000000053,
                "tempo": 120.0
            },
            {
                "start_time": 7.418181818181818,
                "end_time": 7.538636363636363,
                "pitch": 28,
                "velocity": 64,
                "duration": 0.12045454545454515,
                "tempo": 120.0
            },
            {
                "start_time": 7.538636363636363,
                "end_time": 7.659090909090908,
                "pitch": 40,
                "velocity": 64,
                "duration": 0.12045454545454515,
                "tempo": 120.0
            },
            {
                "start_time": 7.659090909090908,
                "end_time": 7.761363636363636,
                "pitch": 28,
                "velocity": 64,
                "duration": 0.10227272727272751,
                "tempo": 120.0
            },
            {
                "start_time": 7.763636363636364,
                "end_time": 7.879545454545454,
                "pitch": 38,
                "velocity": 64,
                "duration": 0.1159090909090903,
                "tempo": 120.0
            },
            {
                "start_time": 7.879545454545454,
                "end_time": 7.997727272727272,
                "pitch": 39,
                "velocity": 64,
                "duration": 0.11818181818181817,
                "tempo": 120.0
            },
            {
                "start_time": 7.997727272727272,
                "end_time": 8.097727272727273,
                "pitch": 40,
                "velocity": 64,
                "duration": 0.10000000000000053,
                "tempo": 120.0
            },
            {
                "start_time": 8.097727272727273,
                "end_time": 8.218181818181817,
                "pitch": 28,
                "velocity": 64,
                "duration": 0.12045454545454426,
                "tempo": 120.0
            },
            {
                "start_time": 8.218181818181817,
                "end_time": 8.338636363636363,
                "pitch": 40,
                "velocity": 64,
                "duration": 0.12045454545454604,
                "tempo": 120.0
            },
            {
                "start_time": 8.338636363636363,
                "end_time": 8.443181818181818,
                "pitch": 28,
                "velocity": 64,
                "duration": 0.10454545454545539,
                "tempo": 120.0
            },
            {
                "start_time": 8.443181818181818,
                "end_time": 8.677272727272728,
                "pitch": 40,
                "velocity": 64,
                "duration": 0.23409090909090935,
                "tempo": 120.0
            },
            {
                "start_time": 8.677272727272728,
                "end_time": 8.777272727272727,
                "pitch": 40,
                "velocity": 64,
                "duration": 0.09999999999999964,
                "tempo": 120.0
            },
            {
                "start_time": 8.777272727272727,
                "end_time": 8.895454545454545,
                "pitch": 28,
                "velocity": 64,
                "duration": 0.11818181818181728,
                "tempo": 120.0
            },
            {
                "start_time": 8.895454545454545,
                "end_time": 9.013636363636364,
                "pitch": 40,
                "velocity": 64,
                "duration": 0.11818181818181905,
                "tempo": 120.0
            },
            {
                "start_time": 9.013636363636364,
                "end_time": 9.113636363636363,
                "pitch": 28,
                "velocity": 64,
                "duration": 0.09999999999999964,
                "tempo": 120.0
            },
            {
                "start_time": 9.113636363636363,
                "end_time": 9.354545454545454,
                "pitch": 40,
                "velocity": 64,
                "duration": 0.2409090909090903,
                "tempo": 120.0
            },
            {
                "start_time": 9.354545454545454,
                "end_time": 9.459090909090909,
                "pitch": 40,
                "velocity": 64,
                "duration": 0.10454545454545539,
                "tempo": 120.0
            },
            {
                "start_time": 9.459090909090909,
                "end_time": 9.575,
                "pitch": 28,
                "velocity": 64,
                "duration": 0.1159090909090903,
                "tempo": 120.0
            },
            {
                "start_time": 9.575,
                "end_time": 9.693181818181818,
                "pitch": 40,
                "velocity": 64,
                "duration": 0.11818181818181905,
                "tempo": 120.0
            },
            {
                "start_time": 9.693181818181818,
                "end_time": 9.793181818181818,
                "pitch": 28,
                "velocity": 64,
                "duration": 0.09999999999999964,
                "tempo": 120.0
            },
            {
                "start_time": 9.793181818181818,
                "end_time": 10.034090909090908,
                "pitch": 40,
                "velocity": 64,
                "duration": 0.2409090909090903,
                "tempo": 120.0
            },
            {
                "start_time": 10.034090909090908,
                "end_time": 10.138636363636364,
                "pitch": 40,
                "velocity": 64,
                "duration": 0.10454545454545539,
                "tempo": 120.0
            },
            {
                "start_time": 10.138636363636364,
                "end_time": 10.254545454545454,
                "pitch": 28,
                "velocity": 64,
                "duration": 0.1159090909090903,
                "tempo": 120.0
            },
            {
                "start_time": 10.256818181818181,
                "end_time": 10.372727272727273,
                "pitch": 40,
                "velocity": 64,
                "duration": 0.11590909090909207,
                "tempo": 120.0
            },
            {
                "start_time": 10.372727272727273,
                "end_time": 10.472727272727273,
                "pitch": 28,
                "velocity": 64,
                "duration": 0.09999999999999964,
                "tempo": 120.0
            },
            {
                "start_time": 10.472727272727273,
                "end_time": 10.59090909090909,
                "pitch": 38,
                "velocity": 64,
                "duration": 0.11818181818181728,
                "tempo": 120.0
            },
            {
                "start_time": 10.59090909090909,
                "end_time": 10.709090909090909,
                "pitch": 39,
                "velocity": 64,
                "duration": 0.11818181818181905,
                "tempo": 120.0
            },
            {
                "start_time": 10.709090909090909,
                "end_time": 10.809090909090909,
                "pitch": 40,
                "velocity": 64,
                "duration": 0.09999999999999964,
                "tempo": 120.0
            }
        ]
    }
}