{
    "track_id": "14 Boss 5",
    "mood": "angry",
    "instruments": {
        "Trumpet": [
            {
                "start_time": 1.6613636363636364,
                "end_time": 1.8136363636363635,
                "pitch": 57,
                "velocity": 64,
                "duration": 0.15227272727272712,
                "tempo": 120.0
            },
            {
                "start_time": 1.9249999999999998,
                "end_time": 2.0,
                "pitch": 69,
                "velocity": 64,
                "duration": 0.07500000000000018,
                "tempo": 120.0
            },
            {
                "start_time": 2.0545454545454542,
                "end_time": 2.1636363636363636,
                "pitch": 64,
                "velocity": 64,
                "duration": 0.10909090909090935,
                "tempo": 120.0
            },
            {
                "start_time": 2.190909090909091,
                "end_time": 2.2977272727272724,
                "pitch": 67,
                "velocity": 64,
                "duration": 0.10681818181818148,
                "tempo": 120.0
            },
            {
                "start_time": 2.3249999999999997,
                "end_time": 2.4295454545454542,
                "pitch": 69,
                "velocity": 64,
                "duration": 0.1045454545454545,
                "tempo": 120.0
            },
            {
                "start_time": 2.484090909090909,
                "end_time": 2.5636363636363635,
                "pitch": 62,
                "velocity": 64,
                "duration": 0.07954545454545459,
                "tempo": 120.0
            },
            {
                "start_time": 2.618181818181818,
                "end_time": 2.6977272727272728,
                "pitch": 64,
                "velocity": 64,
                "duration": 0.07954545454545459,
                "tempo": 120.0
            },
            {
                "start_time": 2.7545454545454544,
                "end_time": 3.1227272727272726,
                "pitch": 64,
                "velocity": 64,
                "duration": 0.36818181818181817,
                "tempo": 120.0
            },
            {
                "start_time": 3.15,
                "end_time": 3.518181818181818,
                "pitch": 62,
                "velocity": 64,
                "duration": 0.36818181818181817,
                "tempo": 120.0
            },
            {
                "start_time": 3.5727272727272728,
                "end_time": 3.7840909090909087,
                "pitch": 62,
                "velocity": 64,
                "duration": 0.21136363636363598,
                "tempo": 120.0
            },
            {
                "start_time": 3.840909090909091,
                "end_time": 4.018181818181818,
                "pitch": 57,
                "velocity": 64,
                "duration": 0.1772727272727268,
                "tempo": 120.0
            },
            {
                "start_time": 4.097727272727273,
                "end_time": 4.197727272727272,
                "pitch": 69,
                "velocity": 64,
                "duration": 0.09999999999999964,
                "tempo": 120.0
            },
            {
                "start_time": 4.25,
                "end_time": 4.329545454545454,
                "pitch": 64,
                "velocity": 64,
                "duration": 0.07954545454545414,
                "tempo": 120.0
            },
            {
                "start_time": 4.381818181818182,
                "end_time": 4.459090909090909,
                "pitch": 67,
                "velocity": 64,
                "duration": 0.07727272727272716,
                "tempo": 120.0
            },
            {
                "start_time": 4.511363636363636,
                "end_time": 4.586363636363636,
                "pitch": 69,
                "velocity": 64,
                "duration": 0.07500000000000018,
                "tempo": 120.0
            },
            {
                "start_time": 4.638636363636364,
                "end_time": 4.715909090909091,
                "pitch": 62,
                "velocity": 64,
                "duration": 0.07727272727272716,
                "tempo": 120.0
            },
            {
                "start_time": 4.768181818181818,
                "end_time": 4.872727272727272,
                "pitch": 64,
                "velocity": 64,
                "duration": 0.1045454545454545,
                "tempo": 120.0
            },
            {
                "start_time": 4.8999999999999995,
                "end_time": 5.268181818181818,
                "pitch": 64,
                "velocity": 64,
                "duration": 0.36818181818181817,
                "tempo": 120.0
            },
            {
                "start_time": 5.322727272727272,
                "end_time": 5.6909090909090905,
                "pitch": 62,
                "velocity": 64,
                "duration": 0.36818181818181817,
                "tempo": 120.0
            },
            {
                "start_time": 5.718181818181818,
                "end_time": 5.956818181818181,
                "pitch": 62,
                "velocity": 64,
                "duration": 0.2386363636363633,
                "tempo": 120.0
            },
            {
                "start_time": 6.011363636363636,
                "end_time": 6.165909090909091,
                "pitch": 57,
                "velocity": 64,
                "duration": 0.1545454545454552,
                "tempo": 120.0
            },
            {
                "start_time": 6.2749999999999995,
                "end_time": 6.352272727272727,
                "pitch": 69,
                "velocity": 64,
                "duration": 0.07727272727272716,
                "tempo": 120.0
            },
            {
                "start_time": 6.404545454545454,
                "end_time": 6.486363636363636,
                "pitch": 64,
                "velocity": 64,
                "duration": 0.08181818181818201,
                "tempo": 120.0
            },
            {
                "start_time": 6.540909090909091,
                "end_time": 6.643181818181818,
                "pitch": 67,
                "velocity": 64,
                "duration": 0.10227272727272663,
                "tempo": 120.0
            },
            {
                "start_time": 6.672727272727273,
                "end_time": 6.777272727272727,
                "pitch": 69,
                "velocity": 64,
                "duration": 0.1045454545454545,
                "tempo": 120.0
            },
            {
                "start_time": 6.804545454545454,
                "end_time": 6.909090909090909,
                "pitch": 62,
                "velocity": 64,
                "duration": 0.10454545454545539,
                "tempo": 120.0
            },
            {
                "start_time": 6.961363636363636,
                "end_time": 7.040909090909091,
                "pitch": 64,
                "velocity": 64,
                "duration": 0.07954545454545503,
                "tempo": 120.0
            },
            {
                "start_time": 7.095454545454545,
                "end_time": 7.463636363636363,
                "pitch": 64,
                "velocity": 64,
                "duration": 0.36818181818181817,
                "tempo": 120.0
            },
            {
                "start_time": 7.493181818181818,
                "end_time": 7.861363636363636,
                "pitch": 62,
                "velocity": 64,
                "duration": 0.36818181818181817,
                "tempo": 120.0
            },
            {
                "start_time": 7.91590909090909,
                "end_time": 8.127272727272727,
                "pitch": 62,
                "velocity": 64,
                "duration": 0.21136363636363686,
                "tempo": 120.0
            },
            {
                "start_time": 8.181818181818182,
                "end_time": 8.35909090909091,
                "pitch": 57,
                "velocity": 64,
                "duration": 0.1772727272727277,
                "tempo": 120.0
            },
            {
                "start_time": 8.440909090909091,
                "end_time": 8.540909090909091,
                "pitch": 69,
                "velocity": 64,
                "duration": 0.09999999999999964,
                "tempo": 120.0
            },
            {
                "start_time": 8.565909090909091,
                "end_time": 8.670454545454545,
                "pitch": 64,
                "velocity": 64,
                "duration": 0.10454545454545361,
                "tempo": 120.0
            },
            {
                "start_time": 8.725,
                "end_time": 8.799999999999999,
                "pitch": 67,
                "velocity": 64,
                "duration": 0.07499999999999929,
                "tempo": 120.0
            },
            {
                "start_time": 8.854545454545454,
                "end_time": 8.929545454545455,
                "pitch": 69,
                "velocity": 64,
                "duration": 0.07500000000000107,
                "tempo": 120.0
            },
            {
                "start_time": 8.98181818181818,
                "end_time": 9.059090909090909,
                "pitch": 62,
                "velocity": 64,
                "duration": 0.07727272727272805,
                "tempo": 120.0
            },
            {
                "start_time": 9.111363636363636,
                "end_time": 9.213636363636363,
                "pitch": 64,
                "velocity": 64,
                "duration": 0.10227272727272663,
                "tempo": 120.0
            },
            {
                "start_time": 9.243181818181817,
                "end_time": 9.60909090909091,
                "pitch": 64,
                "velocity": 64,
                "duration": 0.36590909090909207,
                "tempo": 120.0
            },
            {
                "start_time": 9.665909090909091,
                "end_time": 10.006818181818181,
                "pitch": 62,
                "velocity": 64,
                "duration": 0.34090909090908994,
                "tempo": 120.0
            },
            {
                "start_time": 10.061363636363636,
                "end_time": 10.297727272727272,
                "pitch": 62,
                "velocity": 64,
                "duration": 0.23636363636363633,
                "tempo": 120.0
            },
            {
                "start_time": 10.354545454545454,
                "end_time": 10.511363636363637,
                "pitch": 57,
                "velocity": 64,
                "duration": 0.15681818181818308,
                "tempo": 120.0
            },
            {
                "start_time": 10.620454545454544,
                "end_time": 10.697727272727272,
                "pitch": 69,
                "velocity": 64,
                "duration": 0.07727272727272805,
                "tempo": 120.0
            },
            {
                "start_time": 10.752272727272727,
                "end_time": 10.831818181818182,
                "pitch": 64,
                "velocity": 64,
                "duration": 0.07954545454545503,
                "tempo": 120.0
            },
            {
                "start_time": 10.886363636363637,
                "end_time": 10.993181818181817,
                "pitch": 67,
                "velocity": 64,
                "duration": 0.10681818181818059,
                "tempo": 120.0
            },
            {
                "start_time": 11.020454545454545,
                "end_time": 11.127272727272727,
                "pitch": 69,
                "velocity": 64,
                "duration": 0.10681818181818237,
                "tempo": 120.0
            },
            {
                "start_time": 11.154545454545454,
                "end_time": 11.261363636363637,
                "pitch": 62,
                "velocity": 64,
                "duration": 0.10681818181818237,
                "tempo": 120.0
            },
            {
                "start_time": 11.31590909090909,
                "end_time": 11.395454545454545,
                "pitch": 64,
                "velocity": 64,
                "duration": 0.07954545454545503,
                "tempo": 120.0
            },
            {
                "start_time": 11.45,
                "end_time": 11.784090909090908,
                "pitch": 64,
                "velocity": 64,
                "duration": 0.334090909090909,
                "tempo": 120.0
            },
            {
                "start_time": 11.838636363636363,
                "end_time": 12.2,
                "pitch": 62,
                "velocity": 64,
                "duration": 0.36136363636363633,
                "tempo": 120.0
            },
            {
                "start_time": 12.252272727272727,
                "end_time": 12.456818181818182,
                "pitch": 62,
                "velocity": 64,
                "duration": 0.20454545454545503,
                "tempo": 120.0
            },
            {
                "start_time": 12.511363636363635,
                "end_time": 12.693181818181818,
                "pitch": 57,
                "velocity": 64,
                "duration": 0.18181818181818343,
                "tempo": 120.0
            },
            {
                "start_time": 12.774999999999999,
                "end_time": 12.879545454545454,
                "pitch": 69,
                "velocity": 64,
                "duration": 0.10454545454545539,
                "tempo": 120.0
            },
            {
                "start_time": 12.904545454545454,
                "end_time": 13.011363636363635,
                "pitch": 64,
                "velocity": 64,
                "duration": 0.10681818181818059,
                "tempo": 120.0
            },
            {
                "start_time": 13.06590909090909,
                "end_time": 13.143181818181818,
                "pitch": 67,
                "velocity": 64,
                "duration": 0.07727272727272805,
                "tempo": 120.0
            },
            {
                "start_time": 13.197727272727272,
                "end_time": 13.274999999999999,
                "pitch": 69,
                "velocity": 64,
                "duration": 0.07727272727272627,
                "tempo": 120.0
            },
            {
                "start_time": 13.329545454545453,
                "end_time": 13.409090909090908,
                "pitch": 62,
                "velocity": 64,
                "duration": 0.07954545454545503,
                "tempo": 120.0
            },
            {
                "start_time": 13.461363636363636,
                "end_time": 13.540909090909091,
                "pitch": 64,
                "velocity": 64,
                "duration": 0.07954545454545503,
                "tempo": 120.0
            },
            {
                "start_time": 13.597727272727273,
                "end_time": 13.956818181818182,
                "pitch": 64,
                "velocity": 64,
                "duration": 0.35909090909090935,
                "tempo": 120.0
            },
            {
                "start_time": 14.009090909090908,
                "end_time": 14.345454545454544,
                "pitch": 62,
                "velocity": 64,
                "duration": 0.336363636363636,
                "tempo": 120.0
            },
            {
                "start_time": 14.397727272727272,
                "end_time": 14.629545454545454,
                "pitch": 62,
                "velocity": 64,
                "duration": 0.23181818181818237,
                "tempo": 120.0
            },
            {
                "start_time": 14.656818181818181,
                "end_time": 14.838636363636363,
                "pitch": 57,
                "velocity": 64,
                "duration": 0.18181818181818166,
                "tempo": 120.0
            },
            {
                "start_time": 14.947727272727272,
                "end_time": 15.024999999999999,
                "pitch": 69,
                "velocity": 64,
                "duration": 0.07727272727272627,
                "tempo": 120.0
            },
            {
                "start_time": 15.077272727272726,
                "end_time": 15.156818181818181,
                "pitch": 64,
                "velocity": 64,
                "duration": 0.07954545454545503,
                "tempo": 120.0
            },
            {
                "start_time": 15.211363636363636,
                "end_time": 15.288636363636362,
                "pitch": 67,
                "velocity": 64,
                "duration": 0.07727272727272627,
                "tempo": 120.0
            },
            {
                "start_time": 15.343181818181817,
                "end_time": 15.447727272727272,
                "pitch": 69,
                "velocity": 64,
                "duration": 0.10454545454545539,
                "tempo": 120.0
            },
            {
                "start_time": 15.475,
                "end_time": 15.579545454545453,
                "pitch": 62,
                "velocity": 64,
                "duration": 0.10454545454545361,
                "tempo": 120.0
            },
            {
                "start_time": 15.634090909090908,
                "end_time": 15.713636363636363,
                "pitch": 64,
                "velocity": 64,
                "duration": 0.07954545454545503,
                "tempo": 120.0
            },
            {
                "start_time": 15.768181818181818,
                "end_time": 16.113636363636363,
                "pitch": 64,
                "velocity": 64,
                "duration": 0.3454545454545457,
                "tempo": 120.0
            },
            {
                "start_time": 16.168181818181818,
                "end_time": 16.543181818181818,
                "pitch": 62,
                "velocity": 64,
                "duration": 0.375,
                "tempo": 120.0
            },
            {
                "start_time": 16.597727272727273,
                "end_time": 16.811363636363634,
                "pitch": 62,
                "velocity": 64,
                "duration": 0.21363636363636118,
                "tempo": 120.0
            },
            {
                "start_time": 16.86590909090909,
                "end_time": 17.045454545454543,
                "pitch": 57,
                "velocity": 64,
                "duration": 0.17954545454545467,
                "tempo": 120.0
            },
            {
                "start_time": 17.12272727272727,
                "end_time": 17.224999999999998,
                "pitch": 69,
                "velocity": 64,
                "duration": 0.10227272727272663,
                "tempo": 120.0
            },
            {
                "start_time": 17.252272727272725,
                "end_time": 17.354545454545455,
                "pitch": 64,
                "velocity": 64,
                "duration": 0.10227272727273018,
                "tempo": 120.0
            },
            {
                "start_time": 17.409090909090907,
                "end_time": 17.48409090909091,
                "pitch": 67,
                "velocity": 64,
                "duration": 0.07500000000000284,
                "tempo": 120.0
            },
            {
                "start_time": 17.536363636363635,
                "end_time": 17.613636363636363,
                "pitch": 69,
                "velocity": 64,
                "duration": 0.07727272727272805,
                "tempo": 120.0
            },
            {
                "start_time": 17.66590909090909,
                "end_time": 17.743181818181817,
                "pitch": 62,
                "velocity": 64,
                "duration": 0.07727272727272805,
                "tempo": 120.0
            },
            {
                "start_time": 17.795454545454543,
                "end_time": 17.87272727272727,
                "pitch": 64,
                "velocity": 64,
                "duration": 0.07727272727272805,
                "tempo": 120.0
            },
            {
                "start_time": 17.927272727272726,
                "end_time": 18.293181818181818,
                "pitch": 64,
                "velocity": 64,
                "duration": 0.36590909090909207,
                "tempo": 120.0
            },
            {
                "start_time": 18.347727272727273,
                "end_time": 18.69090909090909,
                "pitch": 62,
                "velocity": 64,
                "duration": 0.3431818181818187,
                "tempo": 120.0
            },
            {
                "start_time": 18.745454545454546,
                "end_time": 18.98181818181818,
                "pitch": 62,
                "velocity": 64,
                "duration": 0.23636363636363455,
                "tempo": 120.0
            },
            {
                "start_time": 19.013636363636362,
                "end_time": 19.19090909090909,
                "pitch": 57,
                "velocity": 64,
                "duration": 0.17727272727272947,
                "tempo": 120.0
            },
            {
                "start_time": 19.295454545454543,
                "end_time": 19.370454545454546,
                "pitch": 69,
                "velocity": 64,
                "duration": 0.07500000000000284,
                "tempo": 120.0
            },
            {
                "start_time": 19.422727272727272,
                "end_time": 19.5,
                "pitch": 64,
                "velocity": 64,
                "duration": 0.07727272727272805,
                "tempo": 120.0
            },
            {
                "start_time": 19.554545454545455,
                "end_time": 19.629545454545454,
                "pitch": 67,
                "velocity": 64,
                "duration": 0.07499999999999929,
                "tempo": 120.0
            },
            {
                "start_time": 19.68181818181818,
                "end_time": 19.784090909090907,
                "pitch": 69,
                "velocity": 64,
                "duration": 0.10227272727272663,
                "tempo": 120.0
            },
            {
                "start_time": 19.811363636363634,
                "end_time": 19.913636363636364,
                "pitch": 62,
                "velocity": 64,
                "duration": 0.10227272727273018,
                "tempo": 120.0
            },
            {
                "start_time": 19.94090909090909,
                "end_time": 20.043181818181818,
                "pitch": 64,
                "velocity": 64,
                "duration": 0.10227272727272663,
                "tempo": 120.0
            },
            {
                "start_time": 20.097727272727273,
                "end_time": 20.443181818181817,
                "pitch": 64,
                "velocity": 64,
                "duration": 0.3454545454545439,
                "tempo": 120.0
            },
            {
                "start_time": 20.49772727272727,
                "end_time": 20.87272727272727,
                "pitch": 62,
                "velocity": 64,
                "duration": 0.375,
                "tempo": 120.0
            },
            {
                "start_time": 20.927272727272726,
                "end_time": 21.14090909090909,
                "pitch": 62,
                "velocity": 64,
                "duration": 0.21363636363636473,
                "tempo": 120.0
            },
            {
                "start_time": 21.19772727272727,
                "end_time": 21.377272727272725,
                "pitch": 57,
                "velocity": 64,
                "duration": 0.17954545454545467,
                "tempo": 120.0
            },
            {
                "start_time": 21.459090909090907,
                "end_time": 21.563636363636363,
                "pitch": 69,
                "velocity": 64,
                "duration": 0.10454545454545539,
                "tempo": 120.0
            },
            {
                "start_time": 21.59090909090909,
                "end_time": 21.695454545454545,
                "pitch": 64,
                "velocity": 64,
                "duration": 0.10454545454545539,
                "tempo": 120.0
            },
            {
                "start_time": 21.724999999999998,
                "end_time": 21.829545454545453,
                "pitch": 67,
                "velocity": 64,
                "duration": 0.10454545454545539,
                "tempo": 120.0
            },
            {
                "start_time": 21.88181818181818,
                "end_time": 21.961363636363636,
                "pitch": 69,
                "velocity": 64,
                "duration": 0.0795454545454568,
                "tempo": 120.0
            },
            {
                "start_time": 22.013636363636362,
                "end_time": 22.09318181818182,
                "pitch": 62,
                "velocity": 64,
                "duration": 0.0795454545454568,
                "tempo": 120.0
            },
            {
                "start_time": 22.145454545454545,
                "end_time": 22.224999999999998,
                "pitch": 64,
                "velocity": 64,
                "duration": 0.07954545454545325,
                "tempo": 120.0
            },
            {
                "start_time": 22.28181818181818,
                "end_time": 22.64090909090909,
                "pitch": 64,
                "velocity": 64,
                "duration": 0.35909090909090935,
                "tempo": 120.0
            },
            {
                "start_time": 22.693181818181817,
                "end_time": 23.029545454545453,
                "pitch": 62,
                "velocity": 64,
                "duration": 0.336363636363636,
                "tempo": 120.0
            },
            {
                "start_time": 23.081818181818182,
                "end_time": 23.313636363636363,
                "pitch": 62,
                "velocity": 64,
                "duration": 0.2318181818181806,
                "tempo": 120.0
            },
            {
                "start_time": 23.34318181818182,
                "end_time": 23.520454545454545,
                "pitch": 57,
                "velocity": 64,
                "duration": 0.17727272727272592,
                "tempo": 120.0
            },
            {
                "start_time": 23.625,
                "end_time": 23.7,
                "pitch": 69,
                "velocity": 64,
                "duration": 0.07499999999999929,
                "tempo": 120.0
            },
            {
                "start_time": 23.752272727272725,
                "end_time": 23.829545454545453,
                "pitch": 64,
                "velocity": 64,
                "duration": 0.07727272727272805,
                "tempo": 120.0
            },
            {
                "start_time": 23.884090909090908,
                "end_time": 23.959090909090907,
                "pitch": 67,
                "velocity": 64,
                "duration": 0.07499999999999929,
                "tempo": 120.0
            },
            {
                "start_time": 24.013636363636362,
                "end_time": 24.113636363636363,
                "pitch": 69,
                "velocity": 64,
                "duration": 0.10000000000000142,
                "tempo": 120.0
            },
            {
                "start_time": 24.14090909090909,
                "end_time": 24.243181818181817,
                "pitch": 62,
                "velocity": 64,
                "duration": 0.10227272727272663,
                "tempo": 120.0
            },
            {
                "start_time": 24.270454545454545,
                "end_time": 24.361363636363635,
                "pitch": 64,
                "velocity": 64,
                "duration": 0.09090909090908994,
                "tempo": 120.0
            },
            {
                "start_time": 24.409090909090907,
                "end_time": 24.702272727272724,
                "pitch": 64,
                "velocity": 64,
                "duration": 0.293181818181818,
                "tempo": 120.0
            },
            {
                "start_time": 24.75,
                "end_time": 25.068181818181817,
                "pitch": 62,
                "velocity": 64,
                "duration": 0.31818181818181657,
                "tempo": 120.0
            },
            {
                "start_time": 25.09318181818182,
                "end_time": 25.299999999999997,
                "pitch": 62,
                "velocity": 64,
                "duration": 0.20681818181817846,
                "tempo": 120.0
            },
            {
                "start_time": 25.347727272727273,
                "end_time": 25.50681818181818,
                "pitch": 57,
                "velocity": 64,
                "duration": 0.1590909090909065,
                "tempo": 120.0
            },
            {
                "start_time": 25.579545454545453,
                "end_time": 25.670454545454543,
                "pitch": 69,
                "velocity": 64,
                "duration": 0.09090909090908994,
                "tempo": 120.0
            },
            {
                "start_time": 25.693181818181817,
                "end_time": 25.786363636363635,
                "pitch": 64,
                "velocity": 64,
                "duration": 0.0931818181818187,
                "tempo": 120.0
            },
            {
                "start_time": 25.811363636363634,
                "end_time": 25.902272727272727,
                "pitch": 67,
                "velocity": 64,
                "duration": 0.09090909090909349,
                "tempo": 120.0
            },
            {
                "start_time": 25.95,
                "end_time": 26.018181818181816,
                "pitch": 69,
                "velocity": 64,
                "duration": 0.06818181818181657,
                "tempo": 120.0
            },
            {
                "start_time": 26.06590909090909,
                "end_time": 26.134090909090908,
                "pitch": 62,
                "velocity": 64,
                "duration": 0.06818181818181657,
                "tempo": 120.0
            },
            {
                "start_time": 26.18181818181818,
                "end_time": 26.252272727272725,
                "pitch": 64,
                "velocity": 64,
                "duration": 0.07045454545454533,
                "tempo": 120.0
            },
            {
                "start_time": 26.299999999999997,
                "end_time": 26.62272727272727,
                "pitch": 64,
                "velocity": 64,
                "duration": 0.3227272727272741,
                "tempo": 120.0
            },
            {
                "start_time": 26.64772727272727,
                "end_time": 26.968181818181815,
                "pitch": 62,
                "velocity": 64,
                "duration": 0.3204545454545453,
                "tempo": 120.0
            },
            {
                "start_time": 27.01590909090909,
                "end_time": 27.218181818181815,
                "pitch": 62,
                "velocity": 64,
                "duration": 0.2022727272727245,
                "tempo": 120.0
            },
            {
                "start_time": 28.236363636363635,
                "end_time": 28.33863636363636,
                "pitch": 61,
                "velocity": 64,
                "duration": 0.10227272727272663,
                "tempo": 120.0
            },
            {
                "start_time": 28.39090909090909,
                "end_time": 28.468181818181815,
                "pitch": 62,
                "velocity": 64,
                "duration": 0.0772727272727245,
                "tempo": 120.0
            },
            {
                "start_time": 28.520454545454545,
                "end_time": 28.597727272727273,
                "pitch": 63,
                "velocity": 64,
                "duration": 0.07727272727272805,
                "tempo": 120.0
            },
            {
                "start_time": 28.65,
                "end_time": 28.727272727272727,
                "pitch": 64,
                "velocity": 64,
                "duration": 0.07727272727272805,
                "tempo": 120.0
            },
            {
                "start_time": 28.779545454545453,
                "end_time": 28.884090909090908,
                "pitch": 61,
                "velocity": 64,
                "duration": 0.10454545454545539,
                "tempo": 120.0
            },
            {
                "start_time": 28.911363636363635,
                "end_time": 29.01590909090909,
                "pitch": 62,
                "velocity": 64,
                "duration": 0.10454545454545539,
                "tempo": 120.0
            },
            {
                "start_time": 29.043181818181818,
                "end_time": 29.15,
                "pitch": 63,
                "velocity": 64,
                "duration": 0.10681818181818059,
                "tempo": 120.0
            },
            {
                "start_time": 29.202272727272724,
                "end_time": 29.28181818181818,
                "pitch": 64,
                "velocity": 64,
                "duration": 0.0795454545454568,
                "tempo": 120.0
            },
            {
                "start_time": 30.409090909090907,
                "end_time": 30.48409090909091,
                "pitch": 67,
                "velocity": 64,
                "duration": 0.07500000000000284,
                "tempo": 120.0
            },
            {
                "start_time": 30.536363636363635,
                "end_time": 30.64090909090909,
                "pitch": 68,
                "velocity": 64,
                "duration": 0.10454545454545539,
                "tempo": 120.0
            },
            {
                "start_time": 30.66590909090909,
                "end_time": 30.768181818181816,
                "pitch": 69,
                "velocity": 64,
                "duration": 0.10227272727272663,
                "tempo": 120.0
            },
            {
                "start_time": 30.795454545454543,
                "end_time": 30.89772727272727,
                "pitch": 70,
                "velocity": 64,
                "duration": 0.10227272727272663,
                "tempo": 120.0
            },
            {
                "start_time": 30.95,
                "end_time": 31.029545454545453,
                "pitch": 67,
                "velocity": 64,
                "duration": 0.07954545454545325,
                "tempo": 120.0
            },
            {
                "start_time": 31.084090909090907,
                "end_time": 31.16363636363636,
                "pitch": 68,
                "velocity": 64,
                "duration": 0.07954545454545325,
                "tempo": 120.0
            },
            {
                "start_time": 31.218181818181815,
                "end_time": 31.297727272727272,
                "pitch": 69,
                "velocity": 64,
                "duration": 0.0795454545454568,
                "tempo": 120.0
            },
            {
                "start_time": 31.352272727272727,
                "end_time": 31.43409090909091,
                "pitch": 70,
                "velocity": 64,
                "duration": 0.08181818181818201,
                "tempo": 120.0
            },
            {
                "start_time": 31.49090909090909,
                "end_time": 32.55227272727272,
                "pitch": 57,
                "velocity": 64,
                "duration": 1.0613636363636338,
                "tempo": 120.0
            },
            {
                "start_time": 32.57954545454545,
                "end_time": 33.625,
                "pitch": 56,
                "velocity": 64,
                "duration": 1.0454545454545467,
                "tempo": 120.0
            },
            {
                "start_time": 33.679545454545455,
                "end_time": 34.69772727272727,
                "pitch": 57,
                "velocity": 64,
                "duration": 1.0181818181818159,
                "tempo": 120.0
            },
            {
                "start_time": 34.752272727272725,
                "end_time": 35.788636363636364,
                "pitch": 56,
                "velocity": 64,
                "duration": 1.0363636363636388,
                "tempo": 120.0
            },
            {
                "start_time": 35.84318181818182,
                "end_time": 36.89545454545454,
                "pitch": 57,
                "velocity": 64,
                "duration": 1.0522727272727224,
                "tempo": 120.0
            },
            {
                "start_time": 36.92272727272727,
                "end_time": 37.965909090909086,
                "pitch": 56,
                "velocity": 64,
                "duration": 1.0431818181818144,
                "tempo": 120.0
            },
            {
                "start_time": 38.02272727272727,
                "end_time": 39.04090909090909,
                "pitch": 57,
                "velocity": 64,
                "duration": 1.0181818181818159,
                "tempo": 120.0
            },
            {
                "start_time": 39.09318181818182,
                "end_time": 40.111363636363635,
                "pitch": 56,
                "velocity": 64,
                "duration": 1.0181818181818159,
                "tempo": 120.0
            },
            {
                "start_time": 40.168181818181814,
                "end_time": 41.22954545454545,
                "pitch": 57,
                "velocity": 64,
                "duration": 1.0613636363636374,
                "tempo": 120.0
            },
            {
                "start_time": 41.25681818181818,
                "end_time": 42.31136363636364,
                "pitch": 56,
                "velocity": 64,
                "duration": 1.0545454545454547,
                "tempo": 120.0
            },
            {
                "start_time": 42.36363636363636,
                "end_time": 43.38181818181818,
                "pitch": 57,
                "velocity": 64,
                "duration": 1.018181818181823,
                "tempo": 120.0
            },
            {
                "start_time": 43.43636363636364,
                "end_time": 44.45681818181818,
                "pitch": 56,
                "velocity": 64,
                "duration": 1.020454545454541,
                "tempo": 120.0
            },
            {
                "start_time": 44.50909090909091,
                "end_time": 45.559090909090905,
                "pitch": 69,
                "velocity": 64,
                "duration": 1.0499999999999972,
                "tempo": 120.0
            },
            {
                "start_time": 45.58863636363636,
                "end_time": 46.35454545454545,
                "pitch": 63,
                "velocity": 64,
                "duration": 0.7659090909090907,
                "tempo": 120.0
            },
            {
                "start_time": 46.40681818181818,
                "end_time": 46.50909090909091,
                "pitch": 63,
                "velocity": 64,
                "duration": 0.10227272727272663,
                "tempo": 120.0
            },
            {
                "start_time": 46.53636363636363,
                "end_time": 46.64090909090909,
                "pitch": 65,
                "velocity": 64,
                "duration": 0.10454545454545894,
                "tempo": 120.0
            },
            {
                "start_time": 46.668181818181814,
                "end_time": 47.711363636363636,
                "pitch": 66,
                "velocity": 64,
                "duration": 1.0431818181818215,
                "tempo": 120.0
            },
            {
                "start_time": 47.76590909090909,
                "end_time": 48.527272727272724,
                "pitch": 57,
                "velocity": 64,
                "duration": 0.7613636363636331,
                "tempo": 120.0
            },
            {
                "start_time": 48.57954545454545,
                "end_time": 48.65454545454545,
                "pitch": 57,
                "velocity": 64,
                "duration": 0.07499999999999574,
                "tempo": 120.0
            },
            {
                "start_time": 48.70681818181818,
                "end_time": 48.78636363636363,
                "pitch": 59,
                "velocity": 64,
                "duration": 0.07954545454545325,
                "tempo": 120.0
            },
            {
                "start_time": 48.83863636363636,
                "end_time": 49.861363636363635,
                "pitch": 60,
                "velocity": 64,
                "duration": 1.0227272727272734,
                "tempo": 120.0
            },
            {
                "start_time": 49.918181818181814,
                "end_time": 50.68863636363636,
                "pitch": 52,
                "velocity": 64,
                "duration": 0.7704545454545482,
                "tempo": 120.0
            },
            {
                "start_time": 50.74318181818182,
                "end_time": 50.84772727272727,
                "pitch": 52,
                "velocity": 64,
                "duration": 0.10454545454545183,
                "tempo": 120.0
            },
            {
                "start_time": 50.875,
                "end_time": 50.98181818181818,
                "pitch": 54,
                "velocity": 64,
                "duration": 0.10681818181817704,
                "tempo": 120.0
            },
            {
                "start_time": 51.00909090909091,
                "end_time": 51.50909090909091,
                "pitch": 55,
                "velocity": 64,
                "duration": 0.5,
                "tempo": 120.0
            },
            {
                "start_time": 51.56363636363636,
                "end_time": 52.054545454545455,
                "pitch": 58,
                "velocity": 64,
                "duration": 0.49090909090909207,
                "tempo": 120.0
            },
            {
                "start_time": 52.10909090909091,
                "end_time": 53.127272727272725,
                "pitch": 63,
                "velocity": 64,
                "duration": 1.0181818181818159,
                "tempo": 120.0
            },
            {
                "start_time": 53.18181818181818,
                "end_time": 55.324999999999996,
                "pitch": 57,
                "velocity": 64,
                "duration": 2.143181818181816,
                "tempo": 120.0
            },
            {
                "start_time": 55.35227272727273,
                "end_time": 57.470454545454544,
                "pitch": 62,
                "velocity": 64,
                "duration": 2.1181818181818173,
                "tempo": 120.0
            },
            {
                "start_time": 57.52272727272727,
                "end_time": 59.652272727272724,
                "pitch": 66,
                "velocity": 64,
                "duration": 2.1295454545454504,
                "tempo": 120.0
            },
            {
                "start_time": 59.68181818181818,
                "end_time": 61.81136363636363,
                "pitch": 69,
                "velocity": 64,
                "duration": 2.1295454545454504,
                "tempo": 120.0
            },
            {
                "start_time": 61.865909090909085,
                "end_time": 61.94090909090909,
                "pitch": 64,
                "velocity": 80,
                "duration": 0.07500000000000284,
                "tempo": 120.0
            },
            {
                "start_time": 62.67272727272727,
                "end_time": 62.75,
                "pitch": 68,
                "velocity": 80,
                "duration": 0.07727272727272805,
                "tempo": 120.0
            },
            {
                "start_time": 63.49318181818182,
                "end_time": 63.570454545454545,
                "pitch": 71,
                "velocity": 80,
                "duration": 0.07727272727272805,
                "tempo": 120.0
            },
            {
                "start_time": 64.02954545454546,
                "end_time": 64.16136363636363,
                "pitch": 76,
                "velocity": 80,
                "duration": 0.13181818181817562,
                "tempo": 120.0
            },
            {
                "start_time": 64.325,
                "end_time": 64.45681818181818,
                "pitch": 76,
                "velocity": 80,
                "duration": 0.13181818181817562,
                "tempo": 120.0
            },
            {
                "start_time": 64.5909090909091,
                "end_time": 64.72045454545454,
                "pitch": 74,
                "velocity": 80,
                "duration": 0.1295454545454504,
                "tempo": 120.0
            },
            {
                "start_time": 64.85,
                "end_time": 64.97727272727272,
                "pitch": 76,
                "velocity": 80,
                "duration": 0.1272727272727252,
                "tempo": 120.0
            },
            {
                "start_time": 65.10909090909091,
                "end_time": 65.21136363636363,
                "pitch": 64,
                "velocity": 64,
                "duration": 0.10227272727271952,
                "tempo": 120.0
            },
            {
                "start_time": 65.26363636363637,
                "end_time": 65.33863636363635,
                "pitch": 66,
                "velocity": 64,
                "duration": 0.07499999999998863,
                "tempo": 120.0
            },
            {
                "start_time": 65.39090909090909,
                "end_time": 65.46818181818182,
                "pitch": 68,
                "velocity": 64,
                "duration": 0.07727272727272805,
                "tempo": 120.0
            },
            {
                "start_time": 65.52045454545454,
                "end_time": 65.59772727272727,
                "pitch": 69,
                "velocity": 64,
                "duration": 0.07727272727272805,
                "tempo": 120.0
            },
            {
                "start_time": 65.64999999999999,
                "end_time": 65.75454545454545,
                "pitch": 71,
                "velocity": 64,
                "duration": 0.10454545454545894,
                "tempo": 120.0
            },
            {
                "start_time": 65.7840909090909,
                "end_time": 65.88863636363637,
                "pitch": 73,
                "velocity": 64,
                "duration": 0.10454545454545894,
                "tempo": 120.0
            },
            {
                "start_time": 65.91590909090908,
                "end_time": 66.02045454545454,
                "pitch": 75,
                "velocity": 64,
                "duration": 0.10454545454545894,
                "tempo": 120.0
            },
            {
                "start_time": 66.075,
                "end_time": 66.15227272727273,
                "pitch": 76,
                "velocity": 64,
                "duration": 0.07727272727272805,
                "tempo": 120.0
            },
            {
                "start_time": 66.21363636363635,
                "end_time": 66.39090909090909,
                "pitch": 57,
                "velocity": 64,
                "duration": 0.17727272727273657,
                "tempo": 120.0
            }
        ],
        "Acoustic Bass": [
            {
                "start_time": 1.6568181818181817,
                "end_time": 1.8136363636363635,
                "pitch": 33,
                "velocity": 101,
                "duration": 0.15681818181818175,
                "tempo": 120.0
            },
            {
                "start_time": 1.9227272727272726,
                "end_time": 2.109090909090909,
                "pitch": 33,
                "velocity": 101,
                "duration": 0.1863636363636363,
                "tempo": 120.0
            },
            {
                "start_time": 2.190909090909091,
                "end_time": 2.2954545454545454,
                "pitch": 45,
                "velocity": 101,
                "duration": 0.1045454545454545,
                "tempo": 120.0
            },
            {
                "start_time": 2.3227272727272728,
                "end_time": 2.509090909090909,
                "pitch": 45,
                "velocity": 101,
                "duration": 0.18636363636363606,
                "tempo": 120.0
            },
            {
                "start_time": 2.6159090909090907,
                "end_time": 2.6977272727272728,
                "pitch": 45,
                "velocity": 101,
                "duration": 0.08181818181818201,
                "tempo": 120.0
            },
            {
                "start_time": 2.752272727272727,
                "end_time": 2.8295454545454546,
                "pitch": 36,
                "velocity": 101,
                "duration": 0.0772727272727276,
                "tempo": 120.0
            },
            {
                "start_time": 3.0159090909090907,
                "end_time": 3.1227272727272726,
                "pitch": 36,
                "velocity": 101,
                "duration": 0.10681818181818192,
                "tempo": 120.0
            },
            {
                "start_time": 3.15,
                "end_time": 3.2545454545454544,
                "pitch": 35,
                "velocity": 101,
                "duration": 0.1045454545454545,
                "tempo": 120.0
            },
            {
                "start_time": 3.4386363636363635,
                "end_time": 3.518181818181818,
                "pitch": 35,
                "velocity": 101,
                "duration": 0.07954545454545459,
                "tempo": 120.0
            },
            {
                "start_time": 3.5727272727272728,
                "end_time": 3.65,
                "pitch": 34,
                "velocity": 101,
                "duration": 0.07727272727272716,
                "tempo": 120.0
            },
            {
                "start_time": 3.7045454545454546,
                "end_time": 3.7840909090909087,
                "pitch": 34,
                "velocity": 101,
                "duration": 0.07954545454545414,
                "tempo": 120.0
            },
            {
                "start_time": 3.8386363636363634,
                "end_time": 4.018181818181818,
                "pitch": 33,
                "velocity": 101,
                "duration": 0.17954545454545423,
                "tempo": 120.0
            },
            {
                "start_time": 4.095454545454546,
                "end_time": 4.277272727272727,
                "pitch": 33,
                "velocity": 101,
                "duration": 0.18181818181818166,
                "tempo": 120.0
            },
            {
                "start_time": 4.381818181818182,
                "end_time": 4.456818181818182,
                "pitch": 45,
                "velocity": 101,
                "duration": 0.07500000000000018,
                "tempo": 120.0
            },
            {
                "start_time": 4.511363636363636,
                "end_time": 4.6886363636363635,
                "pitch": 45,
                "velocity": 101,
                "duration": 0.1772727272727277,
                "tempo": 120.0
            },
            {
                "start_time": 4.768181818181818,
                "end_time": 4.870454545454545,
                "pitch": 45,
                "velocity": 101,
                "duration": 0.10227272727272751,
                "tempo": 120.0
            },
            {
                "start_time": 4.8977272727272725,
                "end_time": 5.002272727272727,
                "pitch": 36,
                "velocity": 101,
                "duration": 0.1045454545454545,
                "tempo": 120.0
            },
            {
                "start_time": 5.1886363636363635,
                "end_time": 5.268181818181818,
                "pitch": 36,
                "velocity": 101,
                "duration": 0.07954545454545414,
                "tempo": 120.0
            },
            {
                "start_time": 5.320454545454545,
                "end_time": 5.3999999999999995,
                "pitch": 35,
                "velocity": 101,
                "duration": 0.07954545454545414,
                "tempo": 120.0
            },
            {
                "start_time": 5.584090909090909,
                "end_time": 5.6909090909090905,
                "pitch": 35,
                "velocity": 101,
                "duration": 0.10681818181818148,
                "tempo": 120.0
            },
            {
                "start_time": 5.718181818181818,
                "end_time": 5.822727272727272,
                "pitch": 34,
                "velocity": 101,
                "duration": 0.1045454545454545,
                "tempo": 120.0
            },
            {
                "start_time": 5.85,
                "end_time": 5.954545454545454,
                "pitch": 34,
                "velocity": 101,
                "duration": 0.1045454545454545,
                "tempo": 120.0
            },
            {
                "start_time": 6.009090909090909,
                "end_time": 6.165909090909091,
                "pitch": 33,
                "velocity": 101,
                "duration": 0.1568181818181822,
                "tempo": 120.0
            },
            {
                "start_time": 6.2749999999999995,
                "end_time": 6.459090909090909,
                "pitch": 33,
                "velocity": 101,
                "duration": 0.18409090909090953,
                "tempo": 120.0
            },
            {
                "start_time": 6.538636363636363,
                "end_time": 6.643181818181818,
                "pitch": 45,
                "velocity": 101,
                "duration": 0.1045454545454545,
                "tempo": 120.0
            },
            {
                "start_time": 6.670454545454545,
                "end_time": 6.8545454545454545,
                "pitch": 45,
                "velocity": 101,
                "duration": 0.18409090909090953,
                "tempo": 120.0
            },
            {
                "start_time": 6.961363636363636,
                "end_time": 7.040909090909091,
                "pitch": 45,
                "velocity": 101,
                "duration": 0.07954545454545503,
                "tempo": 120.0
            },
            {
                "start_time": 7.095454545454545,
                "end_time": 7.172727272727272,
                "pitch": 36,
                "velocity": 101,
                "duration": 0.07727272727272716,
                "tempo": 120.0
            },
            {
                "start_time": 7.3568181818181815,
                "end_time": 7.463636363636363,
                "pitch": 36,
                "velocity": 101,
                "duration": 0.10681818181818148,
                "tempo": 120.0
            },
            {
                "start_time": 7.49090909090909,
                "end_time": 7.595454545454545,
                "pitch": 35,
                "velocity": 101,
                "duration": 0.1045454545454545,
                "tempo": 120.0
            },
            {
                "start_time": 7.781818181818181,
                "end_time": 7.861363636363636,
                "pitch": 35,
                "velocity": 101,
                "duration": 0.07954545454545503,
                "tempo": 120.0
            },
            {
                "start_time": 7.913636363636363,
                "end_time": 7.993181818181818,
                "pitch": 34,
                "velocity": 101,
                "duration": 0.07954545454545503,
                "tempo": 120.0
            },
            {
                "start_time": 8.045454545454545,
                "end_time": 8.125,
                "pitch": 34,
                "velocity": 101,
                "duration": 0.07954545454545503,
                "tempo": 120.0
            },
            {
                "start_time": 8.179545454545455,
                "end_time": 8.35909090909091,
                "pitch": 33,
                "velocity": 101,
                "duration": 0.17954545454545467,
                "tempo": 120.0
            },
            {
                "start_time": 8.438636363636363,
                "end_time": 8.618181818181817,
                "pitch": 33,
                "velocity": 101,
                "duration": 0.17954545454545467,
                "tempo": 120.0
            },
            {
                "start_time": 8.722727272727273,
                "end_time": 8.799999999999999,
                "pitch": 45,
                "velocity": 101,
                "duration": 0.07727272727272627,
                "tempo": 120.0
            },
            {
                "start_time": 8.852272727272727,
                "end_time": 9.031818181818181,
                "pitch": 45,
                "velocity": 101,
                "duration": 0.17954545454545467,
                "tempo": 120.0
            },
            {
                "start_time": 9.10909090909091,
                "end_time": 9.213636363636363,
                "pitch": 45,
                "velocity": 101,
                "duration": 0.10454545454545361,
                "tempo": 120.0
            },
            {
                "start_time": 9.24090909090909,
                "end_time": 9.343181818181817,
                "pitch": 36,
                "velocity": 101,
                "duration": 0.10227272727272663,
                "tempo": 120.0
            },
            {
                "start_time": 9.529545454545454,
                "end_time": 9.60909090909091,
                "pitch": 36,
                "velocity": 101,
                "duration": 0.07954545454545503,
                "tempo": 120.0
            },
            {
                "start_time": 9.663636363636364,
                "end_time": 9.74090909090909,
                "pitch": 35,
                "velocity": 101,
                "duration": 0.07727272727272627,
                "tempo": 120.0
            },
            {
                "start_time": 9.927272727272726,
                "end_time": 10.006818181818181,
                "pitch": 35,
                "velocity": 101,
                "duration": 0.07954545454545503,
                "tempo": 120.0
            },
            {
                "start_time": 10.059090909090909,
                "end_time": 10.163636363636364,
                "pitch": 34,
                "velocity": 101,
                "duration": 0.10454545454545539,
                "tempo": 120.0
            },
            {
                "start_time": 10.19090909090909,
                "end_time": 10.297727272727272,
                "pitch": 34,
                "velocity": 101,
                "duration": 0.10681818181818237,
                "tempo": 120.0
            },
            {
                "start_time": 10.352272727272727,
                "end_time": 10.511363636363637,
                "pitch": 33,
                "velocity": 101,
                "duration": 0.15909090909091006,
                "tempo": 120.0
            },
            {
                "start_time": 10.618181818181817,
                "end_time": 10.804545454545455,
                "pitch": 33,
                "velocity": 101,
                "duration": 0.1863636363636374,
                "tempo": 120.0
            },
            {
                "start_time": 10.886363636363637,
                "end_time": 10.993181818181817,
                "pitch": 45,
                "velocity": 101,
                "duration": 0.10681818181818059,
                "tempo": 120.0
            },
            {
                "start_time": 11.020454545454545,
                "end_time": 11.206818181818182,
                "pitch": 45,
                "velocity": 101,
                "duration": 0.1863636363636374,
                "tempo": 120.0
            },
            {
                "start_time": 11.313636363636363,
                "end_time": 11.393181818181818,
                "pitch": 45,
                "velocity": 101,
                "duration": 0.07954545454545503,
                "tempo": 120.0
            },
            {
                "start_time": 11.447727272727272,
                "end_time": 11.524999999999999,
                "pitch": 36,
                "velocity": 101,
                "duration": 0.07727272727272627,
                "tempo": 120.0
            },
            {
                "start_time": 11.706818181818182,
                "end_time": 11.784090909090908,
                "pitch": 36,
                "velocity": 101,
                "duration": 0.07727272727272627,
                "tempo": 120.0
            },
            {
                "start_time": 11.836363636363636,
                "end_time": 11.938636363636363,
                "pitch": 35,
                "velocity": 101,
                "duration": 0.10227272727272663,
                "tempo": 120.0
            },
            {
                "start_time": 12.120454545454544,
                "end_time": 12.197727272727272,
                "pitch": 35,
                "velocity": 101,
                "duration": 0.07727272727272805,
                "tempo": 120.0
            },
            {
                "start_time": 12.25,
                "end_time": 12.327272727272726,
                "pitch": 34,
                "velocity": 101,
                "duration": 0.07727272727272627,
                "tempo": 120.0
            },
            {
                "start_time": 12.379545454545454,
                "end_time": 12.456818181818182,
                "pitch": 34,
                "velocity": 101,
                "duration": 0.07727272727272805,
                "tempo": 120.0
            },
            {
                "start_time": 12.509090909090908,
                "end_time": 12.693181818181818,
                "pitch": 33,
                "velocity": 101,
                "duration": 0.18409090909091042,
                "tempo": 120.0
            },
            {
                "start_time": 12.772727272727272,
                "end_time": 12.956818181818182,
                "pitch": 33,
                "velocity": 101,
                "duration": 0.18409090909091042,
                "tempo": 120.0
            },
            {
                "start_time": 13.063636363636363,
                "end_time": 13.143181818181818,
                "pitch": 45,
                "velocity": 101,
                "duration": 0.07954545454545503,
                "tempo": 120.0
            },
            {
                "start_time": 13.195454545454545,
                "end_time": 13.381818181818181,
                "pitch": 45,
                "velocity": 101,
                "duration": 0.18636363636363562,
                "tempo": 120.0
            },
            {
                "start_time": 13.461363636363636,
                "end_time": 13.540909090909091,
                "pitch": 45,
                "velocity": 101,
                "duration": 0.07954545454545503,
                "tempo": 120.0
            },
            {
                "start_time": 13.595454545454546,
                "end_time": 13.697727272727272,
                "pitch": 36,
                "velocity": 101,
                "duration": 0.10227272727272663,
                "tempo": 120.0
            },
            {
                "start_time": 13.877272727272727,
                "end_time": 13.954545454545453,
                "pitch": 36,
                "velocity": 101,
                "duration": 0.07727272727272627,
                "tempo": 120.0
            },
            {
                "start_time": 14.006818181818181,
                "end_time": 14.084090909090909,
                "pitch": 35,
                "velocity": 101,
                "duration": 0.07727272727272805,
                "tempo": 120.0
            },
            {
                "start_time": 14.268181818181818,
                "end_time": 14.343181818181817,
                "pitch": 35,
                "velocity": 101,
                "duration": 0.07499999999999929,
                "tempo": 120.0
            },
            {
                "start_time": 14.397727272727272,
                "end_time": 14.497727272727271,
                "pitch": 34,
                "velocity": 101,
                "duration": 0.09999999999999964,
                "tempo": 120.0
            },
            {
                "start_time": 14.524999999999999,
                "end_time": 14.627272727272727,
                "pitch": 34,
                "velocity": 101,
                "duration": 0.1022727272727284,
                "tempo": 120.0
            },
            {
                "start_time": 14.654545454545454,
                "end_time": 14.838636363636363,
                "pitch": 33,
                "velocity": 101,
                "duration": 0.18409090909090864,
                "tempo": 120.0
            },
            {
                "start_time": 14.945454545454545,
                "end_time": 15.129545454545454,
                "pitch": 33,
                "velocity": 101,
                "duration": 0.18409090909090864,
                "tempo": 120.0
            },
            {
                "start_time": 15.209090909090909,
                "end_time": 15.288636363636362,
                "pitch": 45,
                "velocity": 101,
                "duration": 0.07954545454545325,
                "tempo": 120.0
            },
            {
                "start_time": 15.34090909090909,
                "end_time": 15.527272727272727,
                "pitch": 45,
                "velocity": 101,
                "duration": 0.1863636363636374,
                "tempo": 120.0
            },
            {
                "start_time": 15.631818181818181,
                "end_time": 15.711363636363636,
                "pitch": 45,
                "velocity": 101,
                "duration": 0.07954545454545503,
                "tempo": 120.0
            },
            {
                "start_time": 15.76590909090909,
                "end_time": 15.845454545454544,
                "pitch": 36,
                "velocity": 101,
                "duration": 0.07954545454545325,
                "tempo": 120.0
            },
            {
                "start_time": 16.03181818181818,
                "end_time": 16.113636363636363,
                "pitch": 36,
                "velocity": 101,
                "duration": 0.08181818181818201,
                "tempo": 120.0
            },
            {
                "start_time": 16.16590909090909,
                "end_time": 16.272727272727273,
                "pitch": 35,
                "velocity": 101,
                "duration": 0.10681818181818414,
                "tempo": 120.0
            },
            {
                "start_time": 16.43409090909091,
                "end_time": 16.54090909090909,
                "pitch": 35,
                "velocity": 101,
                "duration": 0.10681818181818059,
                "tempo": 120.0
            },
            {
                "start_time": 16.597727272727273,
                "end_time": 16.675,
                "pitch": 34,
                "velocity": 101,
                "duration": 0.07727272727272805,
                "tempo": 120.0
            },
            {
                "start_time": 16.729545454545455,
                "end_time": 16.80909090909091,
                "pitch": 34,
                "velocity": 101,
                "duration": 0.07954545454545325,
                "tempo": 120.0
            },
            {
                "start_time": 16.863636363636363,
                "end_time": 17.043181818181818,
                "pitch": 33,
                "velocity": 101,
                "duration": 0.17954545454545467,
                "tempo": 120.0
            },
            {
                "start_time": 17.12272727272727,
                "end_time": 17.302272727272726,
                "pitch": 33,
                "velocity": 101,
                "duration": 0.17954545454545467,
                "tempo": 120.0
            },
            {
                "start_time": 17.40681818181818,
                "end_time": 17.48409090909091,
                "pitch": 45,
                "velocity": 101,
                "duration": 0.07727272727272805,
                "tempo": 120.0
            },
            {
                "start_time": 17.536363636363635,
                "end_time": 17.71590909090909,
                "pitch": 45,
                "velocity": 101,
                "duration": 0.17954545454545467,
                "tempo": 120.0
            },
            {
                "start_time": 17.795454545454543,
                "end_time": 17.87272727272727,
                "pitch": 45,
                "velocity": 101,
                "duration": 0.07727272727272805,
                "tempo": 120.0
            },
            {
                "start_time": 17.925,
                "end_time": 18.029545454545453,
                "pitch": 36,
                "velocity": 101,
                "duration": 0.10454545454545183,
                "tempo": 120.0
            },
            {
                "start_time": 18.188636363636363,
                "end_time": 18.293181818181818,
                "pitch": 36,
                "velocity": 101,
                "duration": 0.10454545454545539,
                "tempo": 120.0
            },
            {
                "start_time": 18.347727272727273,
                "end_time": 18.427272727272726,
                "pitch": 35,
                "velocity": 101,
                "duration": 0.07954545454545325,
                "tempo": 120.0
            },
            {
                "start_time": 18.613636363636363,
                "end_time": 18.69090909090909,
                "pitch": 35,
                "velocity": 101,
                "duration": 0.07727272727272805,
                "tempo": 120.0
            },
            {
                "start_time": 18.745454545454546,
                "end_time": 18.849999999999998,
                "pitch": 34,
                "velocity": 101,
                "duration": 0.10454545454545183,
                "tempo": 120.0
            },
            {
                "start_time": 18.875,
                "end_time": 18.98181818181818,
                "pitch": 34,
                "velocity": 101,
                "duration": 0.10681818181818059,
                "tempo": 120.0
            },
            {
                "start_time": 19.011363636363637,
                "end_time": 19.188636363636363,
                "pitch": 33,
                "velocity": 101,
                "duration": 0.17727272727272592,
                "tempo": 120.0
            },
            {
                "start_time": 19.293181818181818,
                "end_time": 19.472727272727273,
                "pitch": 33,
                "velocity": 101,
                "duration": 0.17954545454545467,
                "tempo": 120.0
            },
            {
                "start_time": 19.552272727272726,
                "end_time": 19.629545454545454,
                "pitch": 45,
                "velocity": 101,
                "duration": 0.07727272727272805,
                "tempo": 120.0
            },
            {
                "start_time": 19.68181818181818,
                "end_time": 19.861363636363635,
                "pitch": 45,
                "velocity": 101,
                "duration": 0.17954545454545467,
                "tempo": 120.0
            },
            {
                "start_time": 19.94090909090909,
                "end_time": 20.043181818181818,
                "pitch": 45,
                "velocity": 101,
                "duration": 0.10227272727272663,
                "tempo": 120.0
            },
            {
                "start_time": 20.095454545454544,
                "end_time": 20.175,
                "pitch": 36,
                "velocity": 101,
                "duration": 0.0795454545454568,
                "tempo": 120.0
            },
            {
                "start_time": 20.361363636363635,
                "end_time": 20.443181818181817,
                "pitch": 36,
                "velocity": 101,
                "duration": 0.08181818181818201,
                "tempo": 120.0
            },
            {
                "start_time": 20.495454545454546,
                "end_time": 20.602272727272727,
                "pitch": 35,
                "velocity": 101,
                "duration": 0.10681818181818059,
                "tempo": 120.0
            },
            {
                "start_time": 20.763636363636362,
                "end_time": 20.870454545454546,
                "pitch": 35,
                "velocity": 101,
                "duration": 0.10681818181818414,
                "tempo": 120.0
            },
            {
                "start_time": 20.925,
                "end_time": 21.004545454545454,
                "pitch": 34,
                "velocity": 101,
                "duration": 0.07954545454545325,
                "tempo": 120.0
            },
            {
                "start_time": 21.05909090909091,
                "end_time": 21.138636363636362,
                "pitch": 34,
                "velocity": 101,
                "duration": 0.07954545454545325,
                "tempo": 120.0
            },
            {
                "start_time": 21.193181818181817,
                "end_time": 21.377272727272725,
                "pitch": 33,
                "velocity": 101,
                "duration": 0.18409090909090864,
                "tempo": 120.0
            },
            {
                "start_time": 21.456818181818182,
                "end_time": 21.643181818181816,
                "pitch": 33,
                "velocity": 101,
                "duration": 0.18636363636363384,
                "tempo": 120.0
            },
            {
                "start_time": 21.722727272727273,
                "end_time": 21.827272727272724,
                "pitch": 45,
                "velocity": 101,
                "duration": 0.10454545454545183,
                "tempo": 120.0
            },
            {
                "start_time": 21.88181818181818,
                "end_time": 22.038636363636364,
                "pitch": 45,
                "velocity": 101,
                "duration": 0.15681818181818485,
                "tempo": 120.0
            },
            {
                "start_time": 22.145454545454545,
                "end_time": 22.224999999999998,
                "pitch": 45,
                "velocity": 101,
                "duration": 0.07954545454545325,
                "tempo": 120.0
            },
            {
                "start_time": 22.279545454545453,
                "end_time": 22.38181818181818,
                "pitch": 36,
                "velocity": 101,
                "duration": 0.10227272727272663,
                "tempo": 120.0
            },
            {
                "start_time": 22.536363636363635,
                "end_time": 22.64090909090909,
                "pitch": 36,
                "velocity": 101,
                "duration": 0.10454545454545539,
                "tempo": 120.0
            },
            {
                "start_time": 22.693181818181817,
                "end_time": 22.770454545454545,
                "pitch": 35,
                "velocity": 101,
                "duration": 0.07727272727272805,
                "tempo": 120.0
            },
            {
                "start_time": 22.952272727272724,
                "end_time": 23.029545454545453,
                "pitch": 35,
                "velocity": 101,
                "duration": 0.07727272727272805,
                "tempo": 120.0
            },
            {
                "start_time": 23.081818181818182,
                "end_time": 23.15681818181818,
                "pitch": 34,
                "velocity": 101,
                "duration": 0.07499999999999929,
                "tempo": 120.0
            },
            {
                "start_time": 23.209090909090907,
                "end_time": 23.313636363636363,
                "pitch": 34,
                "velocity": 101,
                "duration": 0.10454545454545539,
                "tempo": 120.0
            },
            {
                "start_time": 23.34090909090909,
                "end_time": 23.520454545454545,
                "pitch": 33,
                "velocity": 101,
                "duration": 0.17954545454545467,
                "tempo": 120.0
            },
            {
                "start_time": 23.62272727272727,
                "end_time": 23.804545454545455,
                "pitch": 33,
                "velocity": 101,
                "duration": 0.18181818181818343,
                "tempo": 120.0
            },
            {
                "start_time": 23.88181818181818,
                "end_time": 23.959090909090907,
                "pitch": 45,
                "velocity": 101,
                "duration": 0.07727272727272805,
                "tempo": 120.0
            },
            {
                "start_time": 24.011363636363637,
                "end_time": 24.19090909090909,
                "pitch": 45,
                "velocity": 101,
                "duration": 0.17954545454545467,
                "tempo": 120.0
            },
            {
                "start_time": 24.270454545454545,
                "end_time": 24.361363636363635,
                "pitch": 45,
                "velocity": 101,
                "duration": 0.09090909090908994,
                "tempo": 120.0
            },
            {
                "start_time": 24.40681818181818,
                "end_time": 24.474999999999998,
                "pitch": 36,
                "velocity": 101,
                "duration": 0.06818181818181657,
                "tempo": 120.0
            },
            {
                "start_time": 24.634090909090908,
                "end_time": 24.702272727272724,
                "pitch": 36,
                "velocity": 101,
                "duration": 0.06818181818181657,
                "tempo": 120.0
            },
            {
                "start_time": 24.74772727272727,
                "end_time": 24.81590909090909,
                "pitch": 35,
                "velocity": 101,
                "duration": 0.06818181818182012,
                "tempo": 120.0
            },
            {
                "start_time": 24.974999999999998,
                "end_time": 25.068181818181817,
                "pitch": 35,
                "velocity": 101,
                "duration": 0.0931818181818187,
                "tempo": 120.0
            },
            {
                "start_time": 25.09090909090909,
                "end_time": 25.18181818181818,
                "pitch": 34,
                "velocity": 101,
                "duration": 0.09090909090908994,
                "tempo": 120.0
            },
            {
                "start_time": 25.229545454545452,
                "end_time": 25.297727272727272,
                "pitch": 34,
                "velocity": 101,
                "duration": 0.06818181818182012,
                "tempo": 120.0
            },
            {
                "start_time": 25.345454545454544,
                "end_time": 25.50681818181818,
                "pitch": 33,
                "velocity": 101,
                "duration": 0.16136363636363527,
                "tempo": 120.0
            },
            {
                "start_time": 25.577272727272724,
                "end_time": 25.738636363636363,
                "pitch": 33,
                "velocity": 101,
                "duration": 0.16136363636363882,
                "tempo": 120.0
            },
            {
                "start_time": 25.80909090909091,
                "end_time": 25.902272727272727,
                "pitch": 45,
                "velocity": 101,
                "duration": 0.0931818181818187,
                "tempo": 120.0
            },
            {
                "start_time": 25.94772727272727,
                "end_time": 26.08863636363636,
                "pitch": 45,
                "velocity": 101,
                "duration": 0.14090909090909065,
                "tempo": 120.0
            },
            {
                "start_time": 26.18181818181818,
                "end_time": 26.25,
                "pitch": 45,
                "velocity": 101,
                "duration": 0.06818181818182012,
                "tempo": 120.0
            },
            {
                "start_time": 26.297727272727272,
                "end_time": 26.36590909090909,
                "pitch": 36,
                "velocity": 101,
                "duration": 0.06818181818181657,
                "tempo": 120.0
            },
            {
                "start_time": 26.529545454545453,
                "end_time": 26.62272727272727,
                "pitch": 36,
                "velocity": 101,
                "duration": 0.0931818181818187,
                "tempo": 120.0
            },
            {
                "start_time": 26.645454545454545,
                "end_time": 26.738636363636363,
                "pitch": 35,
                "velocity": 101,
                "duration": 0.0931818181818187,
                "tempo": 120.0
            },
            {
                "start_time": 26.9,
                "end_time": 26.968181818181815,
                "pitch": 35,
                "velocity": 101,
                "duration": 0.06818181818181657,
                "tempo": 120.0
            },
            {
                "start_time": 27.013636363636362,
                "end_time": 27.079545454545453,
                "pitch": 34,
                "velocity": 101,
                "duration": 0.06590909090909136,
                "tempo": 120.0
            },
            {
                "start_time": 27.127272727272725,
                "end_time": 27.218181818181815,
                "pitch": 34,
                "velocity": 101,
                "duration": 0.09090909090908994,
                "tempo": 120.0
            },
            {
                "start_time": 27.243181818181817,
                "end_time": 27.331818181818182,
                "pitch": 28,
                "velocity": 101,
                "duration": 0.08863636363636473,
                "tempo": 120.0
            },
            {
                "start_time": 27.354545454545452,
                "end_time": 27.445454545454545,
                "pitch": 40,
                "velocity": 101,
                "duration": 0.09090909090909349,
                "tempo": 120.0
            },
            {
                "start_time": 27.49090909090909,
                "end_time": 27.55909090909091,
                "pitch": 28,
                "velocity": 101,
                "duration": 0.06818181818182012,
                "tempo": 120.0
            },
            {
                "start_time": 27.604545454545452,
                "end_time": 27.672727272727272,
                "pitch": 40,
                "velocity": 101,
                "duration": 0.06818181818182012,
                "tempo": 120.0
            },
            {
                "start_time": 27.718181818181815,
                "end_time": 27.795454545454543,
                "pitch": 31,
                "velocity": 101,
                "duration": 0.07727272727272805,
                "tempo": 120.0
            },
            {
                "start_time": 27.847727272727273,
                "end_time": 27.924999999999997,
                "pitch": 43,
                "velocity": 101,
                "duration": 0.0772727272727245,
                "tempo": 120.0
            },
            {
                "start_time": 27.977272727272727,
                "end_time": 28.079545454545453,
                "pitch": 31,
                "velocity": 101,
                "duration": 0.10227272727272663,
                "tempo": 120.0
            },
            {
                "start_time": 28.10681818181818,
                "end_time": 28.209090909090907,
                "pitch": 43,
                "velocity": 101,
                "duration": 0.10227272727272663,
                "tempo": 120.0
            },
            {
                "start_time": 29.334090909090907,
                "end_time": 29.41363636363636,
                "pitch": 34,
                "velocity": 101,
                "duration": 0.07954545454545325,
                "tempo": 120.0
            },
            {
                "start_time": 29.468181818181815,
                "end_time": 29.545454545454543,
                "pitch": 46,
                "velocity": 101,
                "duration": 0.07727272727272805,
                "tempo": 120.0
            },
            {
                "start_time": 29.599999999999998,
                "end_time": 29.677272727272726,
                "pitch": 34,
                "velocity": 101,
                "duration": 0.07727272727272805,
                "tempo": 120.0
            },
            {
                "start_time": 29.73181818181818,
                "end_time": 29.836363636363636,
                "pitch": 46,
                "velocity": 101,
                "duration": 0.10454545454545539,
                "tempo": 120.0
            },
            {
                "start_time": 29.863636363636363,
                "end_time": 29.968181818181815,
                "pitch": 37,
                "velocity": 101,
                "duration": 0.10454545454545183,
                "tempo": 120.0
            },
            {
                "start_time": 30.020454545454545,
                "end_time": 30.095454545454544,
                "pitch": 49,
                "velocity": 101,
                "duration": 0.07499999999999929,
                "tempo": 120.0
            },
            {
                "start_time": 30.15,
                "end_time": 30.224999999999998,
                "pitch": 37,
                "velocity": 101,
                "duration": 0.07499999999999929,
                "tempo": 120.0
            },
            {
                "start_time": 30.279545454545453,
                "end_time": 30.354545454545452,
                "pitch": 49,
                "velocity": 101,
                "duration": 0.07499999999999929,
                "tempo": 120.0
            },
            {
                "start_time": 31.488636363636363,
                "end_time": 31.672727272727272,
                "pitch": 36,
                "velocity": 101,
                "duration": 0.18409090909090864,
                "tempo": 120.0
            },
            {
                "start_time": 31.78181818181818,
                "end_time": 31.940909090909088,
                "pitch": 36,
                "velocity": 101,
                "duration": 0.1590909090909065,
                "tempo": 120.0
            },
            {
                "start_time": 32.05,
                "end_time": 32.23181818181818,
                "pitch": 36,
                "velocity": 101,
                "duration": 0.18181818181817988,
                "tempo": 120.0
            },
            {
                "start_time": 32.31363636363636,
                "end_time": 32.49772727272727,
                "pitch": 36,
                "velocity": 101,
                "duration": 0.18409090909090509,
                "tempo": 120.0
            },
            {
                "start_time": 32.57727272727273,
                "end_time": 32.76136363636363,
                "pitch": 36,
                "velocity": 101,
                "duration": 0.18409090909090509,
                "tempo": 120.0
            },
            {
                "start_time": 32.87045454545454,
                "end_time": 33.054545454545455,
                "pitch": 36,
                "velocity": 101,
                "duration": 0.1840909090909122,
                "tempo": 120.0
            },
            {
                "start_time": 33.13409090909091,
                "end_time": 33.31363636363636,
                "pitch": 36,
                "velocity": 101,
                "duration": 0.17954545454545467,
                "tempo": 120.0
            },
            {
                "start_time": 33.393181818181816,
                "end_time": 33.57272727272727,
                "pitch": 36,
                "velocity": 101,
                "duration": 0.17954545454545467,
                "tempo": 120.0
            },
            {
                "start_time": 33.67727272727272,
                "end_time": 33.85681818181818,
                "pitch": 36,
                "velocity": 101,
                "duration": 0.17954545454545467,
                "tempo": 120.0
            },
            {
                "start_time": 33.934090909090905,
                "end_time": 34.11590909090909,
                "pitch": 36,
                "velocity": 101,
                "duration": 0.18181818181818699,
                "tempo": 120.0
            },
            {
                "start_time": 34.19318181818181,
                "end_time": 34.37954545454545,
                "pitch": 36,
                "velocity": 101,
                "duration": 0.1863636363636374,
                "tempo": 120.0
            },
            {
                "start_time": 34.48409090909091,
                "end_time": 34.643181818181816,
                "pitch": 36,
                "velocity": 101,
                "duration": 0.1590909090909065,
                "tempo": 120.0
            },
            {
                "start_time": 34.75,
                "end_time": 34.934090909090905,
                "pitch": 36,
                "velocity": 101,
                "duration": 0.18409090909090509,
                "tempo": 120.0
            },
            {
                "start_time": 35.013636363636365,
                "end_time": 35.19772727272727,
                "pitch": 36,
                "velocity": 101,
                "duration": 0.18409090909090509,
                "tempo": 120.0
            },
            {
                "start_time": 35.304545454545455,
                "end_time": 35.465909090909086,
                "pitch": 36,
                "velocity": 101,
                "duration": 0.1613636363636317,
                "tempo": 120.0
            },
            {
                "start_time": 35.57272727272727,
                "end_time": 35.75909090909091,
                "pitch": 36,
                "velocity": 101,
                "duration": 0.1863636363636374,
                "tempo": 120.0
            },
            {
                "start_time": 35.84318181818182,
                "end_time": 36.027272727272724,
                "pitch": 36,
                "velocity": 101,
                "duration": 0.18409090909090509,
                "tempo": 120.0
            },
            {
                "start_time": 36.10909090909091,
                "end_time": 36.29545454545455,
                "pitch": 36,
                "velocity": 101,
                "duration": 0.1863636363636374,
                "tempo": 120.0
            },
            {
                "start_time": 36.402272727272724,
                "end_time": 36.58409090909091,
                "pitch": 36,
                "velocity": 101,
                "duration": 0.18181818181818699,
                "tempo": 120.0
            },
            {
                "start_time": 36.66136363636363,
                "end_time": 36.84318181818182,
                "pitch": 36,
                "velocity": 101,
                "duration": 0.18181818181818699,
                "tempo": 120.0
            },
            {
                "start_time": 36.92045454545455,
                "end_time": 37.1,
                "pitch": 36,
                "velocity": 101,
                "duration": 0.17954545454545467,
                "tempo": 120.0
            },
            {
                "start_time": 37.20681818181818,
                "end_time": 37.38636363636363,
                "pitch": 36,
                "velocity": 101,
                "duration": 0.17954545454545467,
                "tempo": 120.0
            },
            {
                "start_time": 37.46363636363636,
                "end_time": 37.64772727272727,
                "pitch": 36,
                "velocity": 101,
                "duration": 0.1840909090909122,
                "tempo": 120.0
            },
            {
                "start_time": 37.72954545454545,
                "end_time": 37.913636363636364,
                "pitch": 36,
                "velocity": 101,
                "duration": 0.1840909090909122,
                "tempo": 120.0
            },
            {
                "start_time": 38.02045454545454,
                "end_time": 38.17727272727272,
                "pitch": 36,
                "velocity": 101,
                "duration": 0.1568181818181813,
                "tempo": 120.0
            },
            {
                "start_time": 38.28409090909091,
                "end_time": 38.46818181818182,
                "pitch": 36,
                "velocity": 101,
                "duration": 0.1840909090909122,
                "tempo": 120.0
            },
            {
                "start_time": 38.55,
                "end_time": 38.72954545454545,
                "pitch": 36,
                "velocity": 101,
                "duration": 0.17954545454545467,
                "tempo": 120.0
            },
            {
                "start_time": 38.834090909090904,
                "end_time": 38.98863636363636,
                "pitch": 36,
                "velocity": 101,
                "duration": 0.1545454545454561,
                "tempo": 120.0
            },
            {
                "start_time": 39.09318181818182,
                "end_time": 39.27272727272727,
                "pitch": 36,
                "velocity": 101,
                "duration": 0.17954545454545467,
                "tempo": 120.0
            },
            {
                "start_time": 39.35227272727273,
                "end_time": 39.53181818181818,
                "pitch": 36,
                "velocity": 101,
                "duration": 0.17954545454545467,
                "tempo": 120.0
            },
            {
                "start_time": 39.60909090909091,
                "end_time": 39.793181818181814,
                "pitch": 36,
                "velocity": 101,
                "duration": 0.18409090909090509,
                "tempo": 120.0
            },
            {
                "start_time": 39.9,
                "end_time": 40.084090909090904,
                "pitch": 36,
                "velocity": 101,
                "duration": 0.18409090909090509,
                "tempo": 120.0
            },
            {
                "start_time": 40.16590909090909,
                "end_time": 40.35,
                "pitch": 36,
                "velocity": 101,
                "duration": 0.1840909090909122,
                "tempo": 120.0
            },
            {
                "start_time": 40.429545454545455,
                "end_time": 40.61363636363636,
                "pitch": 36,
                "velocity": 101,
                "duration": 0.18409090909090509,
                "tempo": 120.0
            },
            {
                "start_time": 40.720454545454544,
                "end_time": 40.90681818181818,
                "pitch": 36,
                "velocity": 101,
                "duration": 0.1863636363636374,
                "tempo": 120.0
            },
            {
                "start_time": 40.98863636363636,
                "end_time": 41.175,
                "pitch": 36,
                "velocity": 101,
                "duration": 0.1863636363636374,
                "tempo": 120.0
            },
            {
                "start_time": 41.25454545454545,
                "end_time": 41.44318181818181,
                "pitch": 36,
                "velocity": 101,
                "duration": 0.1886363636363626,
                "tempo": 120.0
            },
            {
                "start_time": 41.55227272727272,
                "end_time": 41.711363636363636,
                "pitch": 36,
                "velocity": 101,
                "duration": 0.1590909090909136,
                "tempo": 120.0
            },
            {
                "start_time": 41.81818181818181,
                "end_time": 41.99772727272727,
                "pitch": 36,
                "velocity": 101,
                "duration": 0.17954545454545467,
                "tempo": 120.0
            },
            {
                "start_time": 42.07727272727273,
                "end_time": 42.25681818181818,
                "pitch": 36,
                "velocity": 101,
                "duration": 0.17954545454545467,
                "tempo": 120.0
            },
            {
                "start_time": 42.36363636363636,
                "end_time": 42.51590909090909,
                "pitch": 36,
                "velocity": 101,
                "duration": 0.1522727272727309,
                "tempo": 120.0
            },
            {
                "start_time": 42.62045454545454,
                "end_time": 42.8,
                "pitch": 36,
                "velocity": 101,
                "duration": 0.17954545454545467,
                "tempo": 120.0
            },
            {
                "start_time": 42.87954545454545,
                "end_time": 43.06363636363636,
                "pitch": 36,
                "velocity": 101,
                "duration": 0.1840909090909122,
                "tempo": 120.0
            },
            {
                "start_time": 43.143181818181816,
                "end_time": 43.32727272727273,
                "pitch": 36,
                "velocity": 101,
                "duration": 0.1840909090909122,
                "tempo": 120.0
            },
            {
                "start_time": 43.43636363636364,
                "end_time": 43.61818181818182,
                "pitch": 36,
                "velocity": 101,
                "duration": 0.18181818181817988,
                "tempo": 120.0
            },
            {
                "start_time": 43.69772727272727,
                "end_time": 43.88409090909091,
                "pitch": 36,
                "velocity": 101,
                "duration": 0.1863636363636374,
                "tempo": 120.0
            },
            {
                "start_time": 43.96363636363636,
                "end_time": 44.14545454545454,
                "pitch": 36,
                "velocity": 101,
                "duration": 0.18181818181817988,
                "tempo": 120.0
            },
            {
                "start_time": 44.24772727272727,
                "end_time": 44.429545454545455,
                "pitch": 36,
                "velocity": 101,
                "duration": 0.18181818181818699,
                "tempo": 120.0
            },
            {
                "start_time": 44.50909090909091,
                "end_time": 44.68636363636364,
                "pitch": 39,
                "velocity": 101,
                "duration": 0.17727272727272947,
                "tempo": 120.0
            },
            {
                "start_time": 44.76590909090909,
                "end_time": 44.945454545454545,
                "pitch": 39,
                "velocity": 101,
                "duration": 0.17954545454545467,
                "tempo": 120.0
            },
            {
                "start_time": 45.05,
                "end_time": 45.236363636363635,
                "pitch": 39,
                "velocity": 101,
                "duration": 0.1863636363636374,
                "tempo": 120.0
            },
            {
                "start_time": 45.31818181818181,
                "end_time": 45.50454545454545,
                "pitch": 39,
                "velocity": 101,
                "duration": 0.1863636363636374,
                "tempo": 120.0
            },
            {
                "start_time": 45.586363636363636,
                "end_time": 45.77272727272727,
                "pitch": 39,
                "velocity": 101,
                "duration": 0.1863636363636374,
                "tempo": 120.0
            },
            {
                "start_time": 45.87954545454545,
                "end_time": 46.04090909090909,
                "pitch": 39,
                "velocity": 101,
                "duration": 0.16136363636363882,
                "tempo": 120.0
            },
            {
                "start_time": 46.14772727272727,
                "end_time": 46.32727272727273,
                "pitch": 39,
                "velocity": 101,
                "duration": 0.17954545454545467,
                "tempo": 120.0
            },
            {
                "start_time": 46.40681818181818,
                "end_time": 46.586363636363636,
                "pitch": 39,
                "velocity": 101,
                "duration": 0.17954545454545467,
                "tempo": 120.0
            },
            {
                "start_time": 46.66590909090909,
                "end_time": 46.845454545454544,
                "pitch": 30,
                "velocity": 101,
                "duration": 0.17954545454545467,
                "tempo": 120.0
            },
            {
                "start_time": 46.949999999999996,
                "end_time": 47.12954545454545,
                "pitch": 30,
                "velocity": 101,
                "duration": 0.17954545454545467,
                "tempo": 120.0
            },
            {
                "start_time": 47.209090909090904,
                "end_time": 47.393181818181816,
                "pitch": 30,
                "velocity": 101,
                "duration": 0.1840909090909122,
                "tempo": 120.0
            },
            {
                "start_time": 47.47272727272727,
                "end_time": 47.65681818181818,
                "pitch": 30,
                "velocity": 101,
                "duration": 0.1840909090909122,
                "tempo": 120.0
            },
            {
                "start_time": 47.76590909090909,
                "end_time": 47.94772727272727,
                "pitch": 30,
                "velocity": 101,
                "duration": 0.18181818181817988,
                "tempo": 120.0
            },
            {
                "start_time": 48.027272727272724,
                "end_time": 48.21363636363636,
                "pitch": 30,
                "velocity": 101,
                "duration": 0.1863636363636374,
                "tempo": 120.0
            },
            {
                "start_time": 48.293181818181814,
                "end_time": 48.47272727272727,
                "pitch": 30,
                "velocity": 101,
                "duration": 0.17954545454545467,
                "tempo": 120.0
            },
            {
                "start_time": 48.57727272727273,
                "end_time": 48.75909090909091,
                "pitch": 30,
                "velocity": 101,
                "duration": 0.18181818181817988,
                "tempo": 120.0
            },
            {
                "start_time": 48.836363636363636,
                "end_time": 49.01590909090909,
                "pitch": 33,
                "velocity": 101,
                "duration": 0.17954545454545467,
                "tempo": 120.0
            },
            {
                "start_time": 49.095454545454544,
                "end_time": 49.275,
                "pitch": 33,
                "velocity": 101,
                "duration": 0.17954545454545467,
                "tempo": 120.0
            },
            {
                "start_time": 49.37954545454545,
                "end_time": 49.538636363636364,
                "pitch": 33,
                "velocity": 101,
                "duration": 0.1590909090909136,
                "tempo": 120.0
            },
            {
                "start_time": 49.64772727272727,
                "end_time": 49.834090909090904,
                "pitch": 33,
                "velocity": 101,
                "duration": 0.1863636363636303,
                "tempo": 120.0
            },
            {
                "start_time": 49.91590909090909,
                "end_time": 50.10227272727273,
                "pitch": 33,
                "velocity": 101,
                "duration": 0.1863636363636374,
                "tempo": 120.0
            },
            {
                "start_time": 50.209090909090904,
                "end_time": 50.37045454545454,
                "pitch": 33,
                "velocity": 101,
                "duration": 0.16136363636363882,
                "tempo": 120.0
            },
            {
                "start_time": 50.47727272727273,
                "end_time": 50.66136363636363,
                "pitch": 33,
                "velocity": 101,
                "duration": 0.18409090909090509,
                "tempo": 120.0
            },
            {
                "start_time": 50.740909090909085,
                "end_time": 50.92727272727272,
                "pitch": 33,
                "velocity": 101,
                "duration": 0.1863636363636374,
                "tempo": 120.0
            },
            {
                "start_time": 51.00909090909091,
                "end_time": 51.19090909090909,
                "pitch": 36,
                "velocity": 101,
                "duration": 0.18181818181817988,
                "tempo": 120.0
            },
            {
                "start_time": 51.29772727272727,
                "end_time": 51.48181818181818,
                "pitch": 36,
                "velocity": 101,
                "duration": 0.18409090909090509,
                "tempo": 120.0
            },
            {
                "start_time": 51.56136363636364,
                "end_time": 51.74318181818182,
                "pitch": 36,
                "velocity": 101,
                "duration": 0.18181818181817988,
                "tempo": 120.0
            },
            {
                "start_time": 51.82272727272727,
                "end_time": 52.002272727272725,
                "pitch": 36,
                "velocity": 101,
                "duration": 0.17954545454545467,
                "tempo": 120.0
            },
            {
                "start_time": 52.10681818181818,
                "end_time": 52.28636363636363,
                "pitch": 36,
                "velocity": 101,
                "duration": 0.17954545454545467,
                "tempo": 120.0
            },
            {
                "start_time": 52.36363636363636,
                "end_time": 52.54545454545454,
                "pitch": 36,
                "velocity": 101,
                "duration": 0.18181818181817988,
                "tempo": 120.0
            },
            {
                "start_time": 52.625,
                "end_time": 52.80681818181818,
                "pitch": 36,
                "velocity": 101,
                "duration": 0.18181818181817988,
                "tempo": 120.0
            },
            {
                "start_time": 52.913636363636364,
                "end_time": 53.07272727272727,
                "pitch": 36,
                "velocity": 101,
                "duration": 0.1590909090909065,
                "tempo": 120.0
            },
            {
                "start_time": 53.179545454545455,
                "end_time": 53.36363636363636,
                "pitch": 38,
                "velocity": 101,
                "duration": 0.18409090909090509,
                "tempo": 120.0
            },
            {
                "start_time": 53.44318181818181,
                "end_time": 53.627272727272725,
                "pitch": 38,
                "velocity": 101,
                "duration": 0.1840909090909122,
                "tempo": 120.0
            },
            {
                "start_time": 53.73409090909091,
                "end_time": 53.81363636363636,
                "pitch": 50,
                "velocity": 101,
                "duration": 0.07954545454545325,
                "tempo": 120.0
            },
            {
                "start_time": 53.86818181818182,
                "end_time": 54.054545454545455,
                "pitch": 48,
                "velocity": 101,
                "duration": 0.1863636363636374,
                "tempo": 120.0
            },
            {
                "start_time": 54.13636363636363,
                "end_time": 54.215909090909086,
                "pitch": 50,
                "velocity": 101,
                "duration": 0.07954545454545325,
                "tempo": 120.0
            },
            {
                "start_time": 54.27045454545454,
                "end_time": 54.45681818181818,
                "pitch": 38,
                "velocity": 101,
                "duration": 0.1863636363636374,
                "tempo": 120.0
            },
            {
                "start_time": 54.53636363636363,
                "end_time": 54.724999999999994,
                "pitch": 38,
                "velocity": 101,
                "duration": 0.1886363636363626,
                "tempo": 120.0
            },
            {
                "start_time": 54.83181818181818,
                "end_time": 54.90909090909091,
                "pitch": 50,
                "velocity": 101,
                "duration": 0.07727272727272805,
                "tempo": 120.0
            },
            {
                "start_time": 54.961363636363636,
                "end_time": 55.038636363636364,
                "pitch": 43,
                "velocity": 101,
                "duration": 0.07727272727272805,
                "tempo": 120.0
            },
            {
                "start_time": 55.090909090909086,
                "end_time": 55.168181818181814,
                "pitch": 45,
                "velocity": 101,
                "duration": 0.07727272727272805,
                "tempo": 120.0
            },
            {
                "start_time": 55.220454545454544,
                "end_time": 55.32272727272727,
                "pitch": 48,
                "velocity": 101,
                "duration": 0.10227272727272663,
                "tempo": 120.0
            },
            {
                "start_time": 55.349999999999994,
                "end_time": 55.58181818181818,
                "pitch": 38,
                "velocity": 101,
                "duration": 0.23181818181818414,
                "tempo": 120.0
            },
            {
                "start_time": 55.63409090909091,
                "end_time": 55.840909090909086,
                "pitch": 38,
                "velocity": 101,
                "duration": 0.20681818181817846,
                "tempo": 120.0
            },
            {
                "start_time": 55.893181818181816,
                "end_time": 55.970454545454544,
                "pitch": 50,
                "velocity": 101,
                "duration": 0.07727272727272805,
                "tempo": 120.0
            },
            {
                "start_time": 56.025,
                "end_time": 56.209090909090904,
                "pitch": 48,
                "velocity": 101,
                "duration": 0.18409090909090509,
                "tempo": 120.0
            },
            {
                "start_time": 56.288636363636364,
                "end_time": 56.39545454545454,
                "pitch": 50,
                "velocity": 101,
                "duration": 0.10681818181817704,
                "tempo": 120.0
            },
            {
                "start_time": 56.44772727272727,
                "end_time": 56.60681818181818,
                "pitch": 38,
                "velocity": 101,
                "duration": 0.1590909090909065,
                "tempo": 120.0
            },
            {
                "start_time": 56.71363636363636,
                "end_time": 56.89772727272727,
                "pitch": 38,
                "velocity": 101,
                "duration": 0.1840909090909122,
                "tempo": 120.0
            },
            {
                "start_time": 56.97727272727273,
                "end_time": 57.08181818181818,
                "pitch": 50,
                "velocity": 101,
                "duration": 0.10454545454545183,
                "tempo": 120.0
            },
            {
                "start_time": 57.10681818181818,
                "end_time": 57.209090909090904,
                "pitch": 43,
                "velocity": 101,
                "duration": 0.10227272727272663,
                "tempo": 120.0
            },
            {
                "start_time": 57.26136363636363,
                "end_time": 57.33863636363636,
                "pitch": 45,
                "velocity": 101,
                "duration": 0.07727272727272805,
                "tempo": 120.0
            },
            {
                "start_time": 57.39090909090909,
                "end_time": 57.46818181818182,
                "pitch": 48,
                "velocity": 101,
                "duration": 0.07727272727272805,
                "tempo": 120.0
            },
            {
                "start_time": 57.52045454545454,
                "end_time": 57.72727272727273,
                "pitch": 38,
                "velocity": 101,
                "duration": 0.20681818181818556,
                "tempo": 120.0
            },
            {
                "start_time": 57.77954545454545,
                "end_time": 58.01136363636363,
                "pitch": 38,
                "velocity": 101,
                "duration": 0.23181818181818414,
                "tempo": 120.0
            },
            {
                "start_time": 58.038636363636364,
                "end_time": 58.143181818181816,
                "pitch": 50,
                "velocity": 101,
                "duration": 0.10454545454545183,
                "tempo": 120.0
            },
            {
                "start_time": 58.19772727272727,
                "end_time": 58.35454545454545,
                "pitch": 48,
                "velocity": 101,
                "duration": 0.1568181818181813,
                "tempo": 120.0
            },
            {
                "start_time": 58.461363636363636,
                "end_time": 58.54090909090909,
                "pitch": 50,
                "velocity": 101,
                "duration": 0.07954545454545325,
                "tempo": 120.0
            },
            {
                "start_time": 58.59318181818182,
                "end_time": 58.777272727272724,
                "pitch": 38,
                "velocity": 101,
                "duration": 0.18409090909090509,
                "tempo": 120.0
            },
            {
                "start_time": 58.85909090909091,
                "end_time": 59.043181818181814,
                "pitch": 38,
                "velocity": 101,
                "duration": 0.18409090909090509,
                "tempo": 120.0
            },
            {
                "start_time": 59.15,
                "end_time": 59.22727272727273,
                "pitch": 50,
                "velocity": 101,
                "duration": 0.07727272727272805,
                "tempo": 120.0
            },
            {
                "start_time": 59.28181818181818,
                "end_time": 59.361363636363635,
                "pitch": 43,
                "velocity": 101,
                "duration": 0.07954545454545325,
                "tempo": 120.0
            },
            {
                "start_time": 59.413636363636364,
                "end_time": 59.49318181818182,
                "pitch": 45,
                "velocity": 101,
                "duration": 0.07954545454545325,
                "tempo": 120.0
            },
            {
                "start_time": 59.54545454545454,
                "end_time": 59.652272727272724,
                "pitch": 48,
                "velocity": 101,
                "duration": 0.10681818181818414,
                "tempo": 120.0
            },
            {
                "start_time": 59.679545454545455,
                "end_time": 59.91590909090909,
                "pitch": 38,
                "velocity": 101,
                "duration": 0.23636363636363455,
                "tempo": 120.0
            },
            {
                "start_time": 59.970454545454544,
                "end_time": 60.18181818181818,
                "pitch": 38,
                "velocity": 101,
                "duration": 0.21136363636363598,
                "tempo": 120.0
            },
            {
                "start_time": 60.23409090909091,
                "end_time": 60.31363636363636,
                "pitch": 50,
                "velocity": 101,
                "duration": 0.07954545454545325,
                "tempo": 120.0
            },
            {
                "start_time": 60.365909090909085,
                "end_time": 60.55227272727272,
                "pitch": 48,
                "velocity": 101,
                "duration": 0.1863636363636374,
                "tempo": 120.0
            },
            {
                "start_time": 60.631818181818176,
                "end_time": 60.736363636363635,
                "pitch": 50,
                "velocity": 101,
                "duration": 0.10454545454545894,
                "tempo": 120.0
            },
            {
                "start_time": 60.79090909090909,
                "end_time": 60.94772727272727,
                "pitch": 38,
                "velocity": 101,
                "duration": 0.1568181818181813,
                "tempo": 120.0
            },
            {
                "start_time": 61.054545454545455,
                "end_time": 61.240909090909085,
                "pitch": 38,
                "velocity": 101,
                "duration": 0.1863636363636303,
                "tempo": 120.0
            },
            {
                "start_time": 61.320454545454545,
                "end_time": 61.42272727272727,
                "pitch": 50,
                "velocity": 101,
                "duration": 0.10227272727272663,
                "tempo": 120.0
            },
            {
                "start_time": 61.449999999999996,
                "end_time": 61.55227272727272,
                "pitch": 43,
                "velocity": 101,
                "duration": 0.10227272727272663,
                "tempo": 120.0
            },
            {
                "start_time": 61.57727272727272,
                "end_time": 61.68181818181818,
                "pitch": 45,
                "velocity": 101,
                "duration": 0.10454545454545894,
                "tempo": 120.0
            },
            {
                "start_time": 61.73409090909091,
                "end_time": 61.81136363636363,
                "pitch": 48,
                "velocity": 101,
                "duration": 0.07727272727272094,
                "tempo": 120.0
            },
            {
                "start_time": 61.86363636363636,
                "end_time": 62.070454545454545,
                "pitch": 40,
                "velocity": 101,
                "duration": 0.20681818181818556,
                "tempo": 120.0
            },
            {
                "start_time": 62.12272727272727,
                "end_time": 62.30227272727272,
                "pitch": 40,
                "velocity": 101,
                "duration": 0.17954545454545467,
                "tempo": 120.0
            },
            {
                "start_time": 62.381818181818176,
                "end_time": 62.56590909090909,
                "pitch": 40,
                "velocity": 101,
                "duration": 0.1840909090909122,
                "tempo": 120.0
            },
            {
                "start_time": 62.67272727272727,
                "end_time": 62.881818181818176,
                "pitch": 40,
                "velocity": 101,
                "duration": 0.20909090909090366,
                "tempo": 120.0
            },
            {
                "start_time": 62.93636363636363,
                "end_time": 63.12045454545454,
                "pitch": 40,
                "velocity": 101,
                "duration": 0.1840909090909122,
                "tempo": 120.0
            },
            {
                "start_time": 63.20227272727272,
                "end_time": 63.38409090909091,
                "pitch": 40,
                "velocity": 101,
                "duration": 0.18181818181818699,
                "tempo": 120.0
            },
            {
                "start_time": 63.49318181818182,
                "end_time": 63.67727272727272,
                "pitch": 40,
                "velocity": 101,
                "duration": 0.18409090909090509,
                "tempo": 120.0
            },
            {
                "start_time": 63.76136363636363,
                "end_time": 63.945454545454545,
                "pitch": 40,
                "velocity": 101,
                "duration": 0.1840909090909122,
                "tempo": 120.0
            },
            {
                "start_time": 64.02727272727273,
                "end_time": 64.21363636363635,
                "pitch": 40,
                "velocity": 101,
                "duration": 0.1863636363636232,
                "tempo": 120.0
            },
            {
                "start_time": 64.32272727272726,
                "end_time": 64.48181818181818,
                "pitch": 40,
                "velocity": 101,
                "duration": 0.15909090909092072,
                "tempo": 120.0
            },
            {
                "start_time": 64.5909090909091,
                "end_time": 64.77045454545454,
                "pitch": 40,
                "velocity": 101,
                "duration": 0.17954545454544757,
                "tempo": 120.0
            },
            {
                "start_time": 64.85,
                "end_time": 65.02954545454546,
                "pitch": 40,
                "velocity": 101,
                "duration": 0.17954545454546178,
                "tempo": 120.0
            },
            {
                "start_time": 66.2090909090909,
                "end_time": 66.39090909090909,
                "pitch": 33,
                "velocity": 101,
                "duration": 0.18181818181818699,
                "tempo": 120.0
            }
        ],
        "Electric Piano 1": [
            {
                "start_time": 0.27954545454545454,
                "end_time": 0.32045454545454544,
                "pitch": 23,
                "velocity": 101,
                "duration": 0.040909090909090895,
                "tempo": 120.0
            },
            {
                "start_time": 0.34545454545454546,
                "end_time": 0.4659090909090909,
                "pitch": 23,
                "velocity": 101,
                "duration": 0.12045454545454543,
                "tempo": 120.0
            },
            {
                "start_time": 0.4795454545454545,
                "end_time": 0.5318181818181817,
                "pitch": 23,
                "velocity": 101,
                "duration": 0.05227272727272725,
                "tempo": 120.0
            },
            {
                "start_time": 0.5477272727272727,
                "end_time": 0.5681818181818181,
                "pitch": 36,
                "velocity": 127,
                "duration": 0.020454545454545392,
                "tempo": 120.0
            },
            {
                "start_time": 0.5681818181818181,
                "end_time": 0.6204545454545454,
                "pitch": 33,
                "velocity": 127,
                "duration": 0.05227272727272725,
                "tempo": 120.0
            },
            {
                "start_time": 0.6204545454545454,
                "end_time": 0.6477272727272727,
                "pitch": 31,
                "velocity": 127,
                "duration": 0.027272727272727337,
                "tempo": 120.0
            },
            {
                "start_time": 0.7,
                "end_time": 0.7272727272727273,
                "pitch": 36,
                "velocity": 127,
                "duration": 0.027272727272727337,
                "tempo": 120.0
            },
            {
                "start_time": 0.7272727272727273,
                "end_time": 0.7795454545454545,
                "pitch": 33,
                "velocity": 127,
                "duration": 0.05227272727272725,
                "tempo": 120.0
            },
            {
                "start_time": 0.8340909090909091,
                "end_time": 0.859090909090909,
                "pitch": 36,
                "velocity": 127,
                "duration": 0.02499999999999991,
                "tempo": 120.0
            },
            {
                "start_time": 0.9113636363636363,
                "end_time": 0.9386363636363636,
                "pitch": 36,
                "velocity": 127,
                "duration": 0.027272727272727337,
                "tempo": 120.0
            },
            {
                "start_time": 0.9386363636363636,
                "end_time": 0.9659090909090908,
                "pitch": 33,
                "velocity": 127,
                "duration": 0.027272727272727226,
                "tempo": 120.0
            },
            {
                "start_time": 1.018181818181818,
                "end_time": 1.0431818181818182,
                "pitch": 32,
                "velocity": 127,
                "duration": 0.025000000000000133,
                "tempo": 120.0
            },
            {
                "start_time": 1.0977272727272727,
                "end_time": 1.1227272727272726,
                "pitch": 32,
                "velocity": 127,
                "duration": 0.02499999999999991,
                "tempo": 120.0
            },
            {
                "start_time": 1.1227272727272726,
                "end_time": 1.1772727272727272,
                "pitch": 30,
                "velocity": 127,
                "duration": 0.054545454545454675,
                "tempo": 120.0
            },
            {
                "start_time": 1.2295454545454545,
                "end_time": 1.2568181818181818,
                "pitch": 32,
                "velocity": 127,
                "duration": 0.027272727272727337,
                "tempo": 120.0
            },
            {
                "start_time": 1.1227272727272726,
                "end_time": 1.2568181818181818,
                "pitch": 42,
                "velocity": 127,
                "duration": 0.13409090909090926,
                "tempo": 120.0
            },
            {
                "start_time": 1.2568181818181818,
                "end_time": 1.309090909090909,
                "pitch": 30,
                "velocity": 127,
                "duration": 0.05227272727272725,
                "tempo": 120.0
            },
            {
                "start_time": 1.309090909090909,
                "end_time": 1.3363636363636362,
                "pitch": 27,
                "velocity": 127,
                "duration": 0.027272727272727115,
                "tempo": 120.0
            },
            {
                "start_time": 1.3613636363636363,
                "end_time": 1.3886363636363637,
                "pitch": 28,
                "velocity": 127,
                "duration": 0.027272727272727337,
                "tempo": 120.0
            },
            {
                "start_time": 1.3886363636363637,
                "end_time": 1.440909090909091,
                "pitch": 26,
                "velocity": 127,
                "duration": 0.05227272727272725,
                "tempo": 120.0
            },
            {
                "start_time": 1.440909090909091,
                "end_time": 1.468181818181818,
                "pitch": 23,
                "velocity": 127,
                "duration": 0.027272727272727115,
                "tempo": 120.0
            },
            {
                "start_time": 1.4954545454545454,
                "end_time": 1.5204545454545453,
                "pitch": 28,
                "velocity": 127,
                "duration": 0.02499999999999991,
                "tempo": 120.0
            },
            {
                "start_time": 1.5204545454545453,
                "end_time": 1.5727272727272728,
                "pitch": 26,
                "velocity": 127,
                "duration": 0.05227272727272747,
                "tempo": 120.0
            },
            {
                "start_time": 1.5727272727272728,
                "end_time": 1.6022727272727273,
                "pitch": 23,
                "velocity": 127,
                "duration": 0.02954545454545454,
                "tempo": 120.0
            },
            {
                "start_time": 2.193181818181818,
                "end_time": 2.2977272727272724,
                "pitch": 23,
                "velocity": 101,
                "duration": 0.1045454545454545,
                "tempo": 120.0
            },
            {
                "start_time": 2.3249999999999997,
                "end_time": 2.5636363636363635,
                "pitch": 23,
                "velocity": 101,
                "duration": 0.23863636363636376,
                "tempo": 120.0
            },
            {
                "start_time": 2.618181818181818,
                "end_time": 2.6977272727272728,
                "pitch": 23,
                "velocity": 101,
                "duration": 0.07954545454545459,
                "tempo": 120.0
            },
            {
                "start_time": 2.756818181818182,
                "end_time": 2.7772727272727273,
                "pitch": 36,
                "velocity": 127,
                "duration": 0.020454545454545503,
                "tempo": 120.0
            },
            {
                "start_time": 2.7772727272727273,
                "end_time": 2.8318181818181816,
                "pitch": 33,
                "velocity": 127,
                "duration": 0.05454545454545423,
                "tempo": 120.0
            },
            {
                "start_time": 3.0159090909090907,
                "end_time": 3.0409090909090906,
                "pitch": 36,
                "velocity": 127,
                "duration": 0.02499999999999991,
                "tempo": 120.0
            },
            {
                "start_time": 3.0409090909090906,
                "end_time": 3.0954545454545452,
                "pitch": 33,
                "velocity": 127,
                "duration": 0.054545454545454675,
                "tempo": 120.0
            },
            {
                "start_time": 3.0954545454545452,
                "end_time": 3.1227272727272726,
                "pitch": 31,
                "velocity": 127,
                "duration": 0.027272727272727337,
                "tempo": 120.0
            },
            {
                "start_time": 3.1522727272727273,
                "end_time": 3.175,
                "pitch": 32,
                "velocity": 127,
                "duration": 0.022727272727272485,
                "tempo": 120.0
            },
            {
                "start_time": 1.2568181818181818,
                "end_time": 3.175,
                "pitch": 42,
                "velocity": 127,
                "duration": 1.918181818181818,
                "tempo": 120.0
            },
            {
                "start_time": 3.175,
                "end_time": 3.227272727272727,
                "pitch": 30,
                "velocity": 127,
                "duration": 0.05227272727272725,
                "tempo": 120.0
            },
            {
                "start_time": 3.227272727272727,
                "end_time": 3.2545454545454544,
                "pitch": 27,
                "velocity": 127,
                "duration": 0.027272727272727337,
                "tempo": 120.0
            },
            {
                "start_time": 3.440909090909091,
                "end_time": 3.465909090909091,
                "pitch": 32,
                "velocity": 127,
                "duration": 0.02499999999999991,
                "tempo": 120.0
            },
            {
                "start_time": 3.175,
                "end_time": 3.465909090909091,
                "pitch": 42,
                "velocity": 127,
                "duration": 0.290909090909091,
                "tempo": 120.0
            },
            {
                "start_time": 3.465909090909091,
                "end_time": 3.5204545454545455,
                "pitch": 30,
                "velocity": 127,
                "duration": 0.054545454545454675,
                "tempo": 120.0
            },
            {
                "start_time": 3.5749999999999997,
                "end_time": 3.5977272727272727,
                "pitch": 28,
                "velocity": 127,
                "duration": 0.02272727272727293,
                "tempo": 120.0
            },
            {
                "start_time": 3.5977272727272727,
                "end_time": 3.652272727272727,
                "pitch": 26,
                "velocity": 127,
                "duration": 0.05454545454545423,
                "tempo": 120.0
            },
            {
                "start_time": 4.384090909090909,
                "end_time": 4.459090909090909,
                "pitch": 23,
                "velocity": 101,
                "duration": 0.07500000000000018,
                "tempo": 120.0
            },
            {
                "start_time": 4.511363636363636,
                "end_time": 4.715909090909091,
                "pitch": 23,
                "velocity": 101,
                "duration": 0.20454545454545503,
                "tempo": 120.0
            },
            {
                "start_time": 4.768181818181818,
                "end_time": 4.872727272727272,
                "pitch": 23,
                "velocity": 101,
                "duration": 0.1045454545454545,
                "tempo": 120.0
            },
            {
                "start_time": 4.902272727272727,
                "end_time": 4.922727272727273,
                "pitch": 36,
                "velocity": 127,
                "duration": 0.020454545454545503,
                "tempo": 120.0
            },
            {
                "start_time": 4.922727272727273,
                "end_time": 4.975,
                "pitch": 33,
                "velocity": 127,
                "duration": 0.052272727272726804,
                "tempo": 120.0
            },
            {
                "start_time": 4.975,
                "end_time": 5.002272727272727,
                "pitch": 31,
                "velocity": 127,
                "duration": 0.027272727272727337,
                "tempo": 120.0
            },
            {
                "start_time": 5.1886363636363635,
                "end_time": 5.213636363636363,
                "pitch": 36,
                "velocity": 127,
                "duration": 0.024999999999999467,
                "tempo": 120.0
            },
            {
                "start_time": 5.213636363636363,
                "end_time": 5.268181818181818,
                "pitch": 33,
                "velocity": 127,
                "duration": 0.054545454545454675,
                "tempo": 120.0
            },
            {
                "start_time": 5.322727272727272,
                "end_time": 5.345454545454545,
                "pitch": 32,
                "velocity": 127,
                "duration": 0.022727272727272485,
                "tempo": 120.0
            },
            {
                "start_time": 3.465909090909091,
                "end_time": 5.345454545454545,
                "pitch": 42,
                "velocity": 127,
                "duration": 1.879545454545454,
                "tempo": 120.0
            },
            {
                "start_time": 5.345454545454545,
                "end_time": 5.3999999999999995,
                "pitch": 30,
                "velocity": 127,
                "duration": 0.054545454545454675,
                "tempo": 120.0
            },
            {
                "start_time": 5.586363636363636,
                "end_time": 5.611363636363636,
                "pitch": 32,
                "velocity": 127,
                "duration": 0.025000000000000355,
                "tempo": 120.0
            },
            {
                "start_time": 5.345454545454545,
                "end_time": 5.611363636363636,
                "pitch": 42,
                "velocity": 127,
                "duration": 0.26590909090909154,
                "tempo": 120.0
            },
            {
                "start_time": 5.611363636363636,
                "end_time": 5.663636363636363,
                "pitch": 30,
                "velocity": 127,
                "duration": 0.052272727272726804,
                "tempo": 120.0
            },
            {
                "start_time": 5.663636363636363,
                "end_time": 5.6909090909090905,
                "pitch": 27,
                "velocity": 127,
                "duration": 0.027272727272727337,
                "tempo": 120.0
            },
            {
                "start_time": 5.720454545454545,
                "end_time": 5.743181818181818,
                "pitch": 28,
                "velocity": 127,
                "duration": 0.022727272727273373,
                "tempo": 120.0
            },
            {
                "start_time": 5.743181818181818,
                "end_time": 5.795454545454545,
                "pitch": 26,
                "velocity": 127,
                "duration": 0.052272727272726804,
                "tempo": 120.0
            },
            {
                "start_time": 5.795454545454545,
                "end_time": 5.822727272727272,
                "pitch": 23,
                "velocity": 127,
                "duration": 0.027272727272727337,
                "tempo": 120.0
            },
            {
                "start_time": 6.540909090909091,
                "end_time": 6.6454545454545455,
                "pitch": 23,
                "velocity": 101,
                "duration": 0.1045454545454545,
                "tempo": 120.0
            },
            {
                "start_time": 6.672727272727273,
                "end_time": 6.909090909090909,
                "pitch": 23,
                "velocity": 101,
                "duration": 0.23636363636363633,
                "tempo": 120.0
            },
            {
                "start_time": 6.963636363636363,
                "end_time": 7.040909090909091,
                "pitch": 23,
                "velocity": 101,
                "duration": 0.07727272727272805,
                "tempo": 120.0
            },
            {
                "start_time": 7.1,
                "end_time": 7.120454545454545,
                "pitch": 36,
                "velocity": 127,
                "duration": 0.020454545454545503,
                "tempo": 120.0
            },
            {
                "start_time": 7.120454545454545,
                "end_time": 7.172727272727272,
                "pitch": 33,
                "velocity": 127,
                "duration": 0.052272727272726804,
                "tempo": 120.0
            },
            {
                "start_time": 7.3590909090909085,
                "end_time": 7.384090909090909,
                "pitch": 36,
                "velocity": 127,
                "duration": 0.025000000000000355,
                "tempo": 120.0
            },
            {
                "start_time": 7.384090909090909,
                "end_time": 7.436363636363636,
                "pitch": 33,
                "velocity": 127,
                "duration": 0.052272727272726804,
                "tempo": 120.0
            },
            {
                "start_time": 7.436363636363636,
                "end_time": 7.465909090909091,
                "pitch": 31,
                "velocity": 127,
                "duration": 0.029545454545455208,
                "tempo": 120.0
            },
            {
                "start_time": 7.493181818181818,
                "end_time": 7.515909090909091,
                "pitch": 32,
                "velocity": 127,
                "duration": 0.022727272727272485,
                "tempo": 120.0
            },
            {
                "start_time": 5.611363636363636,
                "end_time": 7.515909090909091,
                "pitch": 42,
                "velocity": 127,
                "duration": 1.9045454545454543,
                "tempo": 120.0
            },
            {
                "start_time": 7.515909090909091,
                "end_time": 7.570454545454545,
                "pitch": 30,
                "velocity": 127,
                "duration": 0.054545454545454675,
                "tempo": 120.0
            },
            {
                "start_time": 7.570454545454545,
                "end_time": 7.595454545454545,
                "pitch": 27,
                "velocity": 127,
                "duration": 0.024999999999999467,
                "tempo": 120.0
            },
            {
                "start_time": 7.781818181818181,
                "end_time": 7.806818181818182,
                "pitch": 32,
                "velocity": 127,
                "duration": 0.025000000000000355,
                "tempo": 120.0
            },
            {
                "start_time": 7.515909090909091,
                "end_time": 7.806818181818182,
                "pitch": 42,
                "velocity": 127,
                "duration": 0.290909090909091,
                "tempo": 120.0
            },
            {
                "start_time": 7.806818181818182,
                "end_time": 7.861363636363636,
                "pitch": 30,
                "velocity": 127,
                "duration": 0.054545454545454675,
                "tempo": 120.0
            },
            {
                "start_time": 7.91590909090909,
                "end_time": 7.9409090909090905,
                "pitch": 28,
                "velocity": 127,
                "duration": 0.025000000000000355,
                "tempo": 120.0
            },
            {
                "start_time": 7.9409090909090905,
                "end_time": 7.993181818181818,
                "pitch": 26,
                "velocity": 127,
                "duration": 0.05227272727272769,
                "tempo": 120.0
            },
            {
                "start_time": 8.725,
                "end_time": 8.799999999999999,
                "pitch": 23,
                "velocity": 101,
                "duration": 0.07499999999999929,
                "tempo": 120.0
            },
            {
                "start_time": 8.854545454545454,
                "end_time": 9.059090909090909,
                "pitch": 23,
                "velocity": 101,
                "duration": 0.20454545454545503,
                "tempo": 120.0
            },
            {
                "start_time": 9.111363636363636,
                "end_time": 9.213636363636363,
                "pitch": 23,
                "velocity": 101,
                "duration": 0.10227272727272663,
                "tempo": 120.0
            },
            {
                "start_time": 9.245454545454544,
                "end_time": 9.26590909090909,
                "pitch": 36,
                "velocity": 127,
                "duration": 0.02045454545454639,
                "tempo": 120.0
            },
            {
                "start_time": 9.26590909090909,
                "end_time": 9.318181818181818,
                "pitch": 33,
                "velocity": 127,
                "duration": 0.05227272727272769,
                "tempo": 120.0
            },
            {
                "start_time": 9.318181818181818,
                "end_time": 9.345454545454546,
                "pitch": 31,
                "velocity": 127,
                "duration": 0.027272727272727337,
                "tempo": 120.0
            },
            {
                "start_time": 9.372727272727273,
                "end_time": 9.397727272727272,
                "pitch": 36,
                "velocity": 127,
                "duration": 0.02499999999999858,
                "tempo": 120.0
            },
            {
                "start_time": 9.397727272727272,
                "end_time": 9.45,
                "pitch": 33,
                "velocity": 127,
                "duration": 0.05227272727272769,
                "tempo": 120.0
            },
            {
                "start_time": 9.45,
                "end_time": 9.477272727272727,
                "pitch": 31,
                "velocity": 127,
                "duration": 0.027272727272727337,
                "tempo": 120.0
            },
            {
                "start_time": 9.531818181818181,
                "end_time": 9.556818181818182,
                "pitch": 36,
                "velocity": 127,
                "duration": 0.025000000000000355,
                "tempo": 120.0
            },
            {
                "start_time": 9.611363636363636,
                "end_time": 9.636363636363637,
                "pitch": 36,
                "velocity": 127,
                "duration": 0.025000000000000355,
                "tempo": 120.0
            },
            {
                "start_time": 9.636363636363637,
                "end_time": 9.665909090909091,
                "pitch": 33,
                "velocity": 127,
                "duration": 0.02954545454545432,
                "tempo": 120.0
            },
            {
                "start_time": 9.688636363636363,
                "end_time": 9.71590909090909,
                "pitch": 32,
                "velocity": 127,
                "duration": 0.027272727272727337,
                "tempo": 120.0
            },
            {
                "start_time": 7.806818181818182,
                "end_time": 9.71590909090909,
                "pitch": 42,
                "velocity": 127,
                "duration": 1.9090909090909083,
                "tempo": 120.0
            },
            {
                "start_time": 9.71590909090909,
                "end_time": 9.74090909090909,
                "pitch": 30,
                "velocity": 127,
                "duration": 0.025000000000000355,
                "tempo": 120.0
            },
            {
                "start_time": 9.795454545454545,
                "end_time": 9.820454545454545,
                "pitch": 32,
                "velocity": 127,
                "duration": 0.025000000000000355,
                "tempo": 120.0
            },
            {
                "start_time": 9.71590909090909,
                "end_time": 9.820454545454545,
                "pitch": 42,
                "velocity": 127,
                "duration": 0.10454545454545539,
                "tempo": 120.0
            },
            {
                "start_time": 9.820454545454545,
                "end_time": 9.875,
                "pitch": 30,
                "velocity": 127,
                "duration": 0.054545454545454675,
                "tempo": 120.0
            },
            {
                "start_time": 9.927272727272726,
                "end_time": 9.952272727272726,
                "pitch": 32,
                "velocity": 127,
                "duration": 0.025000000000000355,
                "tempo": 120.0
            },
            {
                "start_time": 9.820454545454545,
                "end_time": 9.952272727272726,
                "pitch": 42,
                "velocity": 127,
                "duration": 0.13181818181818095,
                "tempo": 120.0
            },
            {
                "start_time": 9.952272727272726,
                "end_time": 10.006818181818181,
                "pitch": 30,
                "velocity": 127,
                "duration": 0.054545454545454675,
                "tempo": 120.0
            },
            {
                "start_time": 10.061363636363636,
                "end_time": 10.086363636363636,
                "pitch": 28,
                "velocity": 127,
                "duration": 0.025000000000000355,
                "tempo": 120.0
            },
            {
                "start_time": 10.086363636363636,
                "end_time": 10.138636363636364,
                "pitch": 26,
                "velocity": 127,
                "duration": 0.05227272727272769,
                "tempo": 120.0
            },
            {
                "start_time": 10.138636363636364,
                "end_time": 10.165909090909091,
                "pitch": 23,
                "velocity": 127,
                "duration": 0.027272727272727337,
                "tempo": 120.0
            },
            {
                "start_time": 10.193181818181818,
                "end_time": 10.218181818181817,
                "pitch": 28,
                "velocity": 127,
                "duration": 0.02499999999999858,
                "tempo": 120.0
            },
            {
                "start_time": 10.218181818181817,
                "end_time": 10.270454545454545,
                "pitch": 26,
                "velocity": 127,
                "duration": 0.05227272727272769,
                "tempo": 120.0
            },
            {
                "start_time": 10.270454545454545,
                "end_time": 10.297727272727272,
                "pitch": 23,
                "velocity": 127,
                "duration": 0.027272727272727337,
                "tempo": 120.0
            },
            {
                "start_time": 10.888636363636364,
                "end_time": 10.993181818181817,
                "pitch": 23,
                "velocity": 101,
                "duration": 0.10454545454545361,
                "tempo": 120.0
            },
            {
                "start_time": 11.022727272727272,
                "end_time": 11.261363636363637,
                "pitch": 23,
                "velocity": 101,
                "duration": 0.2386363636363651,
                "tempo": 120.0
            },
            {
                "start_time": 11.31590909090909,
                "end_time": 11.395454545454545,
                "pitch": 23,
                "velocity": 101,
                "duration": 0.07954545454545503,
                "tempo": 120.0
            },
            {
                "start_time": 11.452272727272726,
                "end_time": 11.475,
                "pitch": 36,
                "velocity": 127,
                "duration": 0.022727272727273373,
                "tempo": 120.0
            },
            {
                "start_time": 11.475,
                "end_time": 11.524999999999999,
                "pitch": 33,
                "velocity": 127,
                "duration": 0.049999999999998934,
                "tempo": 120.0
            },
            {
                "start_time": 11.706818181818182,
                "end_time": 11.73181818181818,
                "pitch": 36,
                "velocity": 127,
                "duration": 0.02499999999999858,
                "tempo": 120.0
            },
            {
                "start_time": 11.73181818181818,
                "end_time": 11.784090909090908,
                "pitch": 33,
                "velocity": 127,
                "duration": 0.05227272727272769,
                "tempo": 120.0
            },
            {
                "start_time": 11.838636363636363,
                "end_time": 11.861363636363636,
                "pitch": 32,
                "velocity": 127,
                "duration": 0.022727272727273373,
                "tempo": 120.0
            },
            {
                "start_time": 9.952272727272726,
                "end_time": 11.861363636363636,
                "pitch": 42,
                "velocity": 127,
                "duration": 1.90909090909091,
                "tempo": 120.0
            },
            {
                "start_time": 11.861363636363636,
                "end_time": 11.913636363636362,
                "pitch": 30,
                "velocity": 127,
                "duration": 0.052272727272725916,
                "tempo": 120.0
            },
            {
                "start_time": 11.913636363636362,
                "end_time": 11.94090909090909,
                "pitch": 27,
                "velocity": 127,
                "duration": 0.027272727272727337,
                "tempo": 120.0
            },
            {
                "start_time": 12.120454545454544,
                "end_time": 12.145454545454545,
                "pitch": 32,
                "velocity": 127,
                "duration": 0.025000000000000355,
                "tempo": 120.0
            },
            {
                "start_time": 11.861363636363636,
                "end_time": 12.147727272727272,
                "pitch": 42,
                "velocity": 127,
                "duration": 0.28636363636363527,
                "tempo": 120.0
            },
            {
                "start_time": 12.145454545454545,
                "end_time": 12.147727272727272,
                "pitch": 42,
                "velocity": 127,
                "duration": 0.002272727272726982,
                "tempo": 120.0
            },
            {
                "start_time": 12.147727272727272,
                "end_time": 12.2,
                "pitch": 30,
                "velocity": 127,
                "duration": 0.05227272727272769,
                "tempo": 120.0
            },
            {
                "start_time": 12.252272727272727,
                "end_time": 12.274999999999999,
                "pitch": 28,
                "velocity": 127,
                "duration": 0.022727272727271597,
                "tempo": 120.0
            },
            {
                "start_time": 12.274999999999999,
                "end_time": 12.327272727272726,
                "pitch": 26,
                "velocity": 127,
                "duration": 0.05227272727272769,
                "tempo": 120.0
            },
            {
                "start_time": 13.06590909090909,
                "end_time": 13.143181818181818,
                "pitch": 23,
                "velocity": 101,
                "duration": 0.07727272727272805,
                "tempo": 120.0
            },
            {
                "start_time": 13.197727272727272,
                "end_time": 13.409090909090908,
                "pitch": 23,
                "velocity": 101,
                "duration": 0.21136363636363598,
                "tempo": 120.0
            },
            {
                "start_time": 13.463636363636363,
                "end_time": 13.540909090909091,
                "pitch": 23,
                "velocity": 101,
                "duration": 0.07727272727272805,
                "tempo": 120.0
            },
            {
                "start_time": 13.6,
                "end_time": 13.618181818181817,
                "pitch": 36,
                "velocity": 127,
                "duration": 0.018181818181817633,
                "tempo": 120.0
            },
            {
                "start_time": 13.618181818181817,
                "end_time": 13.670454545454545,
                "pitch": 33,
                "velocity": 127,
                "duration": 0.05227272727272769,
                "tempo": 120.0
            },
            {
                "start_time": 13.670454545454545,
                "end_time": 13.697727272727272,
                "pitch": 31,
                "velocity": 127,
                "duration": 0.027272727272727337,
                "tempo": 120.0
            },
            {
                "start_time": 13.879545454545454,
                "end_time": 13.904545454545454,
                "pitch": 36,
                "velocity": 127,
                "duration": 0.025000000000000355,
                "tempo": 120.0
            },
            {
                "start_time": 13.904545454545454,
                "end_time": 13.956818181818182,
                "pitch": 33,
                "velocity": 127,
                "duration": 0.05227272727272769,
                "tempo": 120.0
            },
            {
                "start_time": 14.009090909090908,
                "end_time": 14.034090909090908,
                "pitch": 32,
                "velocity": 127,
                "duration": 0.025000000000000355,
                "tempo": 120.0
            },
            {
                "start_time": 14.034090909090908,
                "end_time": 14.086363636363636,
                "pitch": 30,
                "velocity": 127,
                "duration": 0.05227272727272769,
                "tempo": 120.0
            },
            {
                "start_time": 14.268181818181818,
                "end_time": 14.290909090909091,
                "pitch": 32,
                "velocity": 127,
                "duration": 0.022727272727273373,
                "tempo": 120.0
            },
            {
                "start_time": 14.034090909090908,
                "end_time": 14.290909090909091,
                "pitch": 42,
                "velocity": 127,
                "duration": 0.2568181818181827,
                "tempo": 120.0
            },
            {
                "start_time": 14.290909090909091,
                "end_time": 14.345454545454544,
                "pitch": 30,
                "velocity": 127,
                "duration": 0.0545454545454529,
                "tempo": 120.0
            },
            {
                "start_time": 14.397727272727272,
                "end_time": 14.420454545454545,
                "pitch": 28,
                "velocity": 127,
                "duration": 0.022727272727273373,
                "tempo": 120.0
            },
            {
                "start_time": 14.420454545454545,
                "end_time": 14.472727272727273,
                "pitch": 26,
                "velocity": 127,
                "duration": 0.05227272727272769,
                "tempo": 120.0
            },
            {
                "start_time": 14.472727272727273,
                "end_time": 14.5,
                "pitch": 23,
                "velocity": 127,
                "duration": 0.027272727272727337,
                "tempo": 120.0
            },
            {
                "start_time": 15.211363636363636,
                "end_time": 15.288636363636362,
                "pitch": 23,
                "velocity": 101,
                "duration": 0.07727272727272627,
                "tempo": 120.0
            },
            {
                "start_time": 15.343181818181817,
                "end_time": 15.579545454545453,
                "pitch": 23,
                "velocity": 101,
                "duration": 0.23636363636363633,
                "tempo": 120.0
            },
            {
                "start_time": 15.634090909090908,
                "end_time": 15.713636363636363,
                "pitch": 23,
                "velocity": 101,
                "duration": 0.07954545454545503,
                "tempo": 120.0
            },
            {
                "start_time": 15.770454545454545,
                "end_time": 15.790909090909091,
                "pitch": 36,
                "velocity": 127,
                "duration": 0.02045454545454639,
                "tempo": 120.0
            },
            {
                "start_time": 15.790909090909091,
                "end_time": 15.845454545454544,
                "pitch": 33,
                "velocity": 127,
                "duration": 0.0545454545454529,
                "tempo": 120.0
            },
            {
                "start_time": 16.03409090909091,
                "end_time": 16.05909090909091,
                "pitch": 36,
                "velocity": 127,
                "duration": 0.02499999999999858,
                "tempo": 120.0
            },
            {
                "start_time": 16.05909090909091,
                "end_time": 16.113636363636363,
                "pitch": 33,
                "velocity": 127,
                "duration": 0.054545454545454675,
                "tempo": 120.0
            },
            {
                "start_time": 16.168181818181818,
                "end_time": 16.193181818181817,
                "pitch": 32,
                "velocity": 127,
                "duration": 0.02499999999999858,
                "tempo": 120.0
            },
            {
                "start_time": 14.290909090909091,
                "end_time": 16.193181818181817,
                "pitch": 42,
                "velocity": 127,
                "duration": 1.9022727272727256,
                "tempo": 120.0
            },
            {
                "start_time": 16.193181818181817,
                "end_time": 16.24772727272727,
                "pitch": 30,
                "velocity": 127,
                "duration": 0.054545454545454675,
                "tempo": 120.0
            },
            {
                "start_time": 16.24772727272727,
                "end_time": 16.275,
                "pitch": 27,
                "velocity": 127,
                "duration": 0.027272727272727337,
                "tempo": 120.0
            },
            {
                "start_time": 16.436363636363634,
                "end_time": 16.461363636363636,
                "pitch": 32,
                "velocity": 127,
                "duration": 0.02500000000000213,
                "tempo": 120.0
            },
            {
                "start_time": 16.193181818181817,
                "end_time": 16.461363636363636,
                "pitch": 42,
                "velocity": 127,
                "duration": 0.2681818181818194,
                "tempo": 120.0
            },
            {
                "start_time": 16.461363636363636,
                "end_time": 16.513636363636362,
                "pitch": 30,
                "velocity": 127,
                "duration": 0.052272727272725916,
                "tempo": 120.0
            },
            {
                "start_time": 16.513636363636362,
                "end_time": 16.543181818181818,
                "pitch": 27,
                "velocity": 127,
                "duration": 0.029545454545456096,
                "tempo": 120.0
            },
            {
                "start_time": 16.599999999999998,
                "end_time": 16.62272727272727,
                "pitch": 28,
                "velocity": 127,
                "duration": 0.022727272727273373,
                "tempo": 120.0
            },
            {
                "start_time": 16.62272727272727,
                "end_time": 16.675,
                "pitch": 26,
                "velocity": 127,
                "duration": 0.05227272727272947,
                "tempo": 120.0
            },
            {
                "start_time": 17.409090909090907,
                "end_time": 17.48409090909091,
                "pitch": 23,
                "velocity": 101,
                "duration": 0.07500000000000284,
                "tempo": 120.0
            },
            {
                "start_time": 17.538636363636364,
                "end_time": 17.743181818181817,
                "pitch": 23,
                "velocity": 101,
                "duration": 0.20454545454545325,
                "tempo": 120.0
            },
            {
                "start_time": 17.795454545454543,
                "end_time": 17.87272727272727,
                "pitch": 23,
                "velocity": 101,
                "duration": 0.07727272727272805,
                "tempo": 120.0
            },
            {
                "start_time": 17.929545454545455,
                "end_time": 17.95,
                "pitch": 36,
                "velocity": 127,
                "duration": 0.020454545454544615,
                "tempo": 120.0
            },
            {
                "start_time": 17.95,
                "end_time": 18.002272727272725,
                "pitch": 33,
                "velocity": 127,
                "duration": 0.052272727272725916,
                "tempo": 120.0
            },
            {
                "start_time": 18.002272727272725,
                "end_time": 18.029545454545453,
                "pitch": 31,
                "velocity": 127,
                "duration": 0.027272727272727337,
                "tempo": 120.0
            },
            {
                "start_time": 18.05681818181818,
                "end_time": 18.081818181818182,
                "pitch": 36,
                "velocity": 127,
                "duration": 0.02500000000000213,
                "tempo": 120.0
            },
            {
                "start_time": 18.081818181818182,
                "end_time": 18.134090909090908,
                "pitch": 33,
                "velocity": 127,
                "duration": 0.052272727272725916,
                "tempo": 120.0
            },
            {
                "start_time": 18.134090909090908,
                "end_time": 18.161363636363635,
                "pitch": 31,
                "velocity": 127,
                "duration": 0.027272727272727337,
                "tempo": 120.0
            },
            {
                "start_time": 18.188636363636363,
                "end_time": 18.21363636363636,
                "pitch": 36,
                "velocity": 127,
                "duration": 0.02499999999999858,
                "tempo": 120.0
            },
            {
                "start_time": 18.21363636363636,
                "end_time": 18.24090909090909,
                "pitch": 33,
                "velocity": 127,
                "duration": 0.027272727272727337,
                "tempo": 120.0
            },
            {
                "start_time": 18.295454545454543,
                "end_time": 18.320454545454545,
                "pitch": 36,
                "velocity": 127,
                "duration": 0.02500000000000213,
                "tempo": 120.0
            },
            {
                "start_time": 18.320454545454545,
                "end_time": 18.347727272727273,
                "pitch": 33,
                "velocity": 127,
                "duration": 0.027272727272727337,
                "tempo": 120.0
            },
            {
                "start_time": 18.37272727272727,
                "end_time": 18.4,
                "pitch": 32,
                "velocity": 127,
                "duration": 0.027272727272727337,
                "tempo": 120.0
            },
            {
                "start_time": 16.461363636363636,
                "end_time": 18.4,
                "pitch": 42,
                "velocity": 127,
                "duration": 1.9386363636363626,
                "tempo": 120.0
            },
            {
                "start_time": 18.4,
                "end_time": 18.427272727272726,
                "pitch": 30,
                "velocity": 127,
                "duration": 0.027272727272727337,
                "tempo": 120.0
            },
            {
                "start_time": 18.48181818181818,
                "end_time": 18.504545454545454,
                "pitch": 32,
                "velocity": 127,
                "duration": 0.022727272727273373,
                "tempo": 120.0
            },
            {
                "start_time": 18.4,
                "end_time": 18.50681818181818,
                "pitch": 42,
                "velocity": 127,
                "duration": 0.10681818181818059,
                "tempo": 120.0
            },
            {
                "start_time": 18.504545454545454,
                "end_time": 18.50681818181818,
                "pitch": 42,
                "velocity": 127,
                "duration": 0.0022727272727252057,
                "tempo": 120.0
            },
            {
                "start_time": 18.50681818181818,
                "end_time": 18.55909090909091,
                "pitch": 30,
                "velocity": 127,
                "duration": 0.05227272727272947,
                "tempo": 120.0
            },
            {
                "start_time": 18.613636363636363,
                "end_time": 18.638636363636362,
                "pitch": 32,
                "velocity": 127,
                "duration": 0.02499999999999858,
                "tempo": 120.0
            },
            {
                "start_time": 18.638636363636362,
                "end_time": 18.693181818181817,
                "pitch": 30,
                "velocity": 127,
                "duration": 0.054545454545454675,
                "tempo": 120.0
            },
            {
                "start_time": 18.74772727272727,
                "end_time": 18.770454545454545,
                "pitch": 28,
                "velocity": 127,
                "duration": 0.022727272727273373,
                "tempo": 120.0
            },
            {
                "start_time": 18.770454545454545,
                "end_time": 18.82272727272727,
                "pitch": 26,
                "velocity": 127,
                "duration": 0.052272727272725916,
                "tempo": 120.0
            },
            {
                "start_time": 18.82272727272727,
                "end_time": 18.849999999999998,
                "pitch": 23,
                "velocity": 127,
                "duration": 0.027272727272727337,
                "tempo": 120.0
            },
            {
                "start_time": 18.877272727272725,
                "end_time": 18.902272727272727,
                "pitch": 28,
                "velocity": 127,
                "duration": 0.02500000000000213,
                "tempo": 120.0
            },
            {
                "start_time": 18.902272727272727,
                "end_time": 18.954545454545453,
                "pitch": 26,
                "velocity": 127,
                "duration": 0.052272727272725916,
                "tempo": 120.0
            },
            {
                "start_time": 18.954545454545453,
                "end_time": 18.98409090909091,
                "pitch": 23,
                "velocity": 127,
                "duration": 0.029545454545456096,
                "tempo": 120.0
            },
            {
                "start_time": 19.554545454545455,
                "end_time": 19.629545454545454,
                "pitch": 23,
                "velocity": 101,
                "duration": 0.07499999999999929,
                "tempo": 120.0
            },
            {
                "start_time": 19.68409090909091,
                "end_time": 19.913636363636364,
                "pitch": 23,
                "velocity": 101,
                "duration": 0.22954545454545539,
                "tempo": 120.0
            },
            {
                "start_time": 19.94090909090909,
                "end_time": 20.043181818181818,
                "pitch": 23,
                "velocity": 101,
                "duration": 0.10227272727272663,
                "tempo": 120.0
            },
            {
                "start_time": 20.099999999999998,
                "end_time": 20.120454545454546,
                "pitch": 36,
                "velocity": 127,
                "duration": 0.020454545454548168,
                "tempo": 120.0
            },
            {
                "start_time": 20.120454545454546,
                "end_time": 20.175,
                "pitch": 33,
                "velocity": 127,
                "duration": 0.054545454545454675,
                "tempo": 120.0
            },
            {
                "start_time": 20.363636363636363,
                "end_time": 20.388636363636362,
                "pitch": 36,
                "velocity": 127,
                "duration": 0.02499999999999858,
                "tempo": 120.0
            },
            {
                "start_time": 20.388636363636362,
                "end_time": 20.443181818181817,
                "pitch": 33,
                "velocity": 127,
                "duration": 0.054545454545454675,
                "tempo": 120.0
            },
            {
                "start_time": 20.5,
                "end_time": 20.522727272727273,
                "pitch": 32,
                "velocity": 127,
                "duration": 0.022727272727273373,
                "tempo": 120.0
            },
            {
                "start_time": 18.638636363636362,
                "end_time": 20.522727272727273,
                "pitch": 42,
                "velocity": 127,
                "duration": 1.8840909090909115,
                "tempo": 120.0
            },
            {
                "start_time": 20.522727272727273,
                "end_time": 20.577272727272728,
                "pitch": 30,
                "velocity": 127,
                "duration": 0.054545454545454675,
                "tempo": 120.0
            },
            {
                "start_time": 20.577272727272728,
                "end_time": 20.604545454545452,
                "pitch": 27,
                "velocity": 127,
                "duration": 0.027272727272723785,
                "tempo": 120.0
            },
            {
                "start_time": 20.76590909090909,
                "end_time": 20.79090909090909,
                "pitch": 32,
                "velocity": 127,
                "duration": 0.02499999999999858,
                "tempo": 120.0
            },
            {
                "start_time": 20.522727272727273,
                "end_time": 20.79090909090909,
                "pitch": 42,
                "velocity": 127,
                "duration": 0.26818181818181586,
                "tempo": 120.0
            },
            {
                "start_time": 20.79090909090909,
                "end_time": 20.84318181818182,
                "pitch": 30,
                "velocity": 127,
                "duration": 0.05227272727272947,
                "tempo": 120.0
            },
            {
                "start_time": 20.84318181818182,
                "end_time": 20.87272727272727,
                "pitch": 27,
                "velocity": 127,
                "duration": 0.029545454545452543,
                "tempo": 120.0
            },
            {
                "start_time": 20.927272727272726,
                "end_time": 20.952272727272724,
                "pitch": 28,
                "velocity": 127,
                "duration": 0.02499999999999858,
                "tempo": 120.0
            },
            {
                "start_time": 20.952272727272724,
                "end_time": 21.004545454545454,
                "pitch": 26,
                "velocity": 127,
                "duration": 0.05227272727272947,
                "tempo": 120.0
            },
            {
                "start_time": 21.724999999999998,
                "end_time": 21.829545454545453,
                "pitch": 23,
                "velocity": 101,
                "duration": 0.10454545454545539,
                "tempo": 120.0
            },
            {
                "start_time": 21.884090909090908,
                "end_time": 22.09318181818182,
                "pitch": 23,
                "velocity": 101,
                "duration": 0.20909090909091077,
                "tempo": 120.0
            },
            {
                "start_time": 22.147727272727273,
                "end_time": 22.227272727272727,
                "pitch": 23,
                "velocity": 101,
                "duration": 0.07954545454545325,
                "tempo": 120.0
            },
            {
                "start_time": 22.284090909090907,
                "end_time": 22.304545454545455,
                "pitch": 36,
                "velocity": 127,
                "duration": 0.020454545454548168,
                "tempo": 120.0
            },
            {
                "start_time": 22.304545454545455,
                "end_time": 22.354545454545452,
                "pitch": 33,
                "velocity": 127,
                "duration": 0.04999999999999716,
                "tempo": 120.0
            },
            {
                "start_time": 22.354545454545452,
                "end_time": 22.38181818181818,
                "pitch": 31,
                "velocity": 127,
                "duration": 0.027272727272727337,
                "tempo": 120.0
            },
            {
                "start_time": 22.538636363636364,
                "end_time": 22.563636363636363,
                "pitch": 36,
                "velocity": 127,
                "duration": 0.02499999999999858,
                "tempo": 120.0
            },
            {
                "start_time": 22.563636363636363,
                "end_time": 22.613636363636363,
                "pitch": 33,
                "velocity": 127,
                "duration": 0.05000000000000071,
                "tempo": 120.0
            },
            {
                "start_time": 22.613636363636363,
                "end_time": 22.64090909090909,
                "pitch": 31,
                "velocity": 127,
                "duration": 0.027272727272727337,
                "tempo": 120.0
            },
            {
                "start_time": 22.695454545454545,
                "end_time": 22.71818181818182,
                "pitch": 32,
                "velocity": 127,
                "duration": 0.022727272727273373,
                "tempo": 120.0
            },
            {
                "start_time": 20.79090909090909,
                "end_time": 22.71818181818182,
                "pitch": 42,
                "velocity": 127,
                "duration": 1.9272727272727295,
                "tempo": 120.0
            },
            {
                "start_time": 22.71818181818182,
                "end_time": 22.770454545454545,
                "pitch": 30,
                "velocity": 127,
                "duration": 0.052272727272725916,
                "tempo": 120.0
            },
            {
                "start_time": 22.952272727272724,
                "end_time": 22.977272727272727,
                "pitch": 32,
                "velocity": 127,
                "duration": 0.02500000000000213,
                "tempo": 120.0
            },
            {
                "start_time": 22.71818181818182,
                "end_time": 22.977272727272727,
                "pitch": 42,
                "velocity": 127,
                "duration": 0.25909090909090793,
                "tempo": 120.0
            },
            {
                "start_time": 22.977272727272727,
                "end_time": 23.029545454545453,
                "pitch": 30,
                "velocity": 127,
                "duration": 0.052272727272725916,
                "tempo": 120.0
            },
            {
                "start_time": 23.084090909090907,
                "end_time": 23.10681818181818,
                "pitch": 28,
                "velocity": 127,
                "duration": 0.022727272727273373,
                "tempo": 120.0
            },
            {
                "start_time": 23.10681818181818,
                "end_time": 23.15681818181818,
                "pitch": 26,
                "velocity": 127,
                "duration": 0.05000000000000071,
                "tempo": 120.0
            },
            {
                "start_time": 23.884090909090908,
                "end_time": 23.961363636363636,
                "pitch": 23,
                "velocity": 101,
                "duration": 0.07727272727272805,
                "tempo": 120.0
            },
            {
                "start_time": 24.013636363636362,
                "end_time": 24.245454545454546,
                "pitch": 23,
                "velocity": 101,
                "duration": 0.23181818181818414,
                "tempo": 120.0
            },
            {
                "start_time": 24.270454545454545,
                "end_time": 24.361363636363635,
                "pitch": 23,
                "velocity": 101,
                "duration": 0.09090909090908994,
                "tempo": 120.0
            },
            {
                "start_time": 24.411363636363635,
                "end_time": 24.429545454545455,
                "pitch": 36,
                "velocity": 127,
                "duration": 0.01818181818181941,
                "tempo": 120.0
            },
            {
                "start_time": 24.429545454545455,
                "end_time": 24.474999999999998,
                "pitch": 33,
                "velocity": 127,
                "duration": 0.045454545454543194,
                "tempo": 120.0
            },
            {
                "start_time": 24.636363636363637,
                "end_time": 24.65681818181818,
                "pitch": 36,
                "velocity": 127,
                "duration": 0.020454545454544615,
                "tempo": 120.0
            },
            {
                "start_time": 24.65681818181818,
                "end_time": 24.704545454545453,
                "pitch": 33,
                "velocity": 127,
                "duration": 0.04772727272727195,
                "tempo": 120.0
            },
            {
                "start_time": 24.75,
                "end_time": 24.770454545454545,
                "pitch": 32,
                "velocity": 127,
                "duration": 0.020454545454544615,
                "tempo": 120.0
            },
            {
                "start_time": 22.977272727272727,
                "end_time": 24.770454545454545,
                "pitch": 42,
                "velocity": 127,
                "duration": 1.793181818181818,
                "tempo": 120.0
            },
            {
                "start_time": 24.770454545454545,
                "end_time": 24.81590909090909,
                "pitch": 30,
                "velocity": 127,
                "duration": 0.045454545454546746,
                "tempo": 120.0
            },
            {
                "start_time": 24.977272727272727,
                "end_time": 24.99772727272727,
                "pitch": 32,
                "velocity": 127,
                "duration": 0.020454545454544615,
                "tempo": 120.0
            },
            {
                "start_time": 24.770454545454545,
                "end_time": 24.99772727272727,
                "pitch": 42,
                "velocity": 127,
                "duration": 0.22727272727272663,
                "tempo": 120.0
            },
            {
                "start_time": 24.99772727272727,
                "end_time": 25.043181818181818,
                "pitch": 30,
                "velocity": 127,
                "duration": 0.045454545454546746,
                "tempo": 120.0
            },
            {
                "start_time": 25.043181818181818,
                "end_time": 25.068181818181817,
                "pitch": 27,
                "velocity": 127,
                "duration": 0.02499999999999858,
                "tempo": 120.0
            },
            {
                "start_time": 25.09318181818182,
                "end_time": 25.113636363636363,
                "pitch": 28,
                "velocity": 127,
                "duration": 0.020454545454544615,
                "tempo": 120.0
            },
            {
                "start_time": 25.113636363636363,
                "end_time": 25.159090909090907,
                "pitch": 26,
                "velocity": 127,
                "duration": 0.045454545454543194,
                "tempo": 120.0
            },
            {
                "start_time": 25.159090909090907,
                "end_time": 25.18181818181818,
                "pitch": 23,
                "velocity": 127,
                "duration": 0.022727272727273373,
                "tempo": 120.0
            },
            {
                "start_time": 25.811363636363634,
                "end_time": 25.902272727272727,
                "pitch": 23,
                "velocity": 101,
                "duration": 0.09090909090909349,
                "tempo": 120.0
            },
            {
                "start_time": 25.95,
                "end_time": 26.134090909090908,
                "pitch": 23,
                "velocity": 101,
                "duration": 0.18409090909090864,
                "tempo": 120.0
            },
            {
                "start_time": 26.18181818181818,
                "end_time": 26.252272727272725,
                "pitch": 23,
                "velocity": 101,
                "duration": 0.07045454545454533,
                "tempo": 120.0
            },
            {
                "start_time": 26.302272727272726,
                "end_time": 26.320454545454545,
                "pitch": 36,
                "velocity": 127,
                "duration": 0.01818181818181941,
                "tempo": 120.0
            },
            {
                "start_time": 26.320454545454545,
                "end_time": 26.368181818181817,
                "pitch": 33,
                "velocity": 127,
                "duration": 0.04772727272727195,
                "tempo": 120.0
            },
            {
                "start_time": 26.413636363636364,
                "end_time": 26.436363636363634,
                "pitch": 36,
                "velocity": 127,
                "duration": 0.02272727272726982,
                "tempo": 120.0
            },
            {
                "start_time": 26.436363636363634,
                "end_time": 26.48181818181818,
                "pitch": 33,
                "velocity": 127,
                "duration": 0.045454545454546746,
                "tempo": 120.0
            },
            {
                "start_time": 26.48181818181818,
                "end_time": 26.50681818181818,
                "pitch": 31,
                "velocity": 127,
                "duration": 0.02499999999999858,
                "tempo": 120.0
            },
            {
                "start_time": 26.529545454545453,
                "end_time": 26.552272727272726,
                "pitch": 36,
                "velocity": 127,
                "duration": 0.022727272727273373,
                "tempo": 120.0
            },
            {
                "start_time": 26.552272727272726,
                "end_time": 26.575,
                "pitch": 33,
                "velocity": 127,
                "duration": 0.022727272727273373,
                "tempo": 120.0
            },
            {
                "start_time": 26.62272727272727,
                "end_time": 26.64772727272727,
                "pitch": 36,
                "velocity": 127,
                "duration": 0.02499999999999858,
                "tempo": 120.0
            },
            {
                "start_time": 26.693181818181817,
                "end_time": 26.71590909090909,
                "pitch": 32,
                "velocity": 127,
                "duration": 0.022727272727273373,
                "tempo": 120.0
            },
            {
                "start_time": 24.99772727272727,
                "end_time": 26.71590909090909,
                "pitch": 42,
                "velocity": 127,
                "duration": 1.7181818181818187,
                "tempo": 120.0
            },
            {
                "start_time": 26.71590909090909,
                "end_time": 26.738636363636363,
                "pitch": 30,
                "velocity": 127,
                "duration": 0.022727272727273373,
                "tempo": 120.0
            },
            {
                "start_time": 26.786363636363635,
                "end_time": 26.80681818181818,
                "pitch": 32,
                "velocity": 127,
                "duration": 0.020454545454544615,
                "tempo": 120.0
            },
            {
                "start_time": 26.71590909090909,
                "end_time": 26.80681818181818,
                "pitch": 42,
                "velocity": 127,
                "duration": 0.09090909090908994,
                "tempo": 120.0
            },
            {
                "start_time": 26.80681818181818,
                "end_time": 26.854545454545452,
                "pitch": 30,
                "velocity": 127,
                "duration": 0.04772727272727195,
                "tempo": 120.0
            },
            {
                "start_time": 26.9,
                "end_time": 26.920454545454543,
                "pitch": 32,
                "velocity": 127,
                "duration": 0.020454545454544615,
                "tempo": 120.0
            },
            {
                "start_time": 26.80681818181818,
                "end_time": 26.920454545454543,
                "pitch": 42,
                "velocity": 127,
                "duration": 0.11363636363636331,
                "tempo": 120.0
            },
            {
                "start_time": 26.920454545454543,
                "end_time": 26.968181818181815,
                "pitch": 30,
                "velocity": 127,
                "duration": 0.04772727272727195,
                "tempo": 120.0
            },
            {
                "start_time": 27.01590909090909,
                "end_time": 27.036363636363635,
                "pitch": 28,
                "velocity": 127,
                "duration": 0.020454545454544615,
                "tempo": 120.0
            },
            {
                "start_time": 27.036363636363635,
                "end_time": 27.081818181818182,
                "pitch": 26,
                "velocity": 127,
                "duration": 0.045454545454546746,
                "tempo": 120.0
            },
            {
                "start_time": 27.127272727272725,
                "end_time": 27.15,
                "pitch": 28,
                "velocity": 127,
                "duration": 0.022727272727273373,
                "tempo": 120.0
            },
            {
                "start_time": 27.15,
                "end_time": 27.195454545454545,
                "pitch": 26,
                "velocity": 127,
                "duration": 0.045454545454546746,
                "tempo": 120.0
            },
            {
                "start_time": 27.195454545454545,
                "end_time": 27.218181818181815,
                "pitch": 23,
                "velocity": 127,
                "duration": 0.02272727272726982,
                "tempo": 120.0
            },
            {
                "start_time": 28.238636363636363,
                "end_time": 28.261363636363637,
                "pitch": 36,
                "velocity": 127,
                "duration": 0.022727272727273373,
                "tempo": 120.0
            },
            {
                "start_time": 28.261363636363637,
                "end_time": 28.313636363636363,
                "pitch": 33,
                "velocity": 127,
                "duration": 0.052272727272725916,
                "tempo": 120.0
            },
            {
                "start_time": 28.313636363636363,
                "end_time": 28.33863636363636,
                "pitch": 31,
                "velocity": 127,
                "duration": 0.02499999999999858,
                "tempo": 120.0
            },
            {
                "start_time": 28.393181818181816,
                "end_time": 28.41590909090909,
                "pitch": 36,
                "velocity": 127,
                "duration": 0.022727272727273373,
                "tempo": 120.0
            },
            {
                "start_time": 28.41590909090909,
                "end_time": 28.468181818181815,
                "pitch": 33,
                "velocity": 127,
                "duration": 0.052272727272725916,
                "tempo": 120.0
            },
            {
                "start_time": 28.468181818181815,
                "end_time": 28.520454545454545,
                "pitch": 31,
                "velocity": 127,
                "duration": 0.05227272727272947,
                "tempo": 120.0
            },
            {
                "start_time": 28.520454545454545,
                "end_time": 28.545454545454543,
                "pitch": 27,
                "velocity": 127,
                "duration": 0.02499999999999858,
                "tempo": 120.0
            },
            {
                "start_time": 28.545454545454543,
                "end_time": 28.57272727272727,
                "pitch": 25,
                "velocity": 127,
                "duration": 0.027272727272727337,
                "tempo": 120.0
            },
            {
                "start_time": 28.57272727272727,
                "end_time": 28.597727272727273,
                "pitch": 23,
                "velocity": 127,
                "duration": 0.02500000000000213,
                "tempo": 120.0
            },
            {
                "start_time": 28.65,
                "end_time": 28.674999999999997,
                "pitch": 36,
                "velocity": 127,
                "duration": 0.02499999999999858,
                "tempo": 120.0
            },
            {
                "start_time": 28.674999999999997,
                "end_time": 28.727272727272727,
                "pitch": 33,
                "velocity": 127,
                "duration": 0.05227272727272947,
                "tempo": 120.0
            },
            {
                "start_time": 28.779545454545453,
                "end_time": 28.804545454545455,
                "pitch": 32,
                "velocity": 127,
                "duration": 0.02500000000000213,
                "tempo": 120.0
            },
            {
                "start_time": 26.920454545454543,
                "end_time": 28.804545454545455,
                "pitch": 42,
                "velocity": 127,
                "duration": 1.8840909090909115,
                "tempo": 120.0
            },
            {
                "start_time": 28.804545454545455,
                "end_time": 28.85681818181818,
                "pitch": 30,
                "velocity": 127,
                "duration": 0.052272727272725916,
                "tempo": 120.0
            },
            {
                "start_time": 28.85681818181818,
                "end_time": 28.911363636363635,
                "pitch": 27,
                "velocity": 127,
                "duration": 0.054545454545454675,
                "tempo": 120.0
            },
            {
                "start_time": 28.911363636363635,
                "end_time": 28.96363636363636,
                "pitch": 24,
                "velocity": 127,
                "duration": 0.052272727272725916,
                "tempo": 120.0
            },
            {
                "start_time": 28.96363636363636,
                "end_time": 28.99090909090909,
                "pitch": 21,
                "velocity": 127,
                "duration": 0.027272727272727337,
                "tempo": 120.0
            },
            {
                "start_time": 28.99090909090909,
                "end_time": 29.018181818181816,
                "pitch": 19,
                "velocity": 127,
                "duration": 0.027272727272727337,
                "tempo": 120.0
            },
            {
                "start_time": 29.045454545454543,
                "end_time": 29.070454545454545,
                "pitch": 28,
                "velocity": 127,
                "duration": 0.02500000000000213,
                "tempo": 120.0
            },
            {
                "start_time": 29.070454545454545,
                "end_time": 29.12272727272727,
                "pitch": 26,
                "velocity": 127,
                "duration": 0.052272727272725916,
                "tempo": 120.0
            },
            {
                "start_time": 29.12272727272727,
                "end_time": 29.174999999999997,
                "pitch": 23,
                "velocity": 127,
                "duration": 0.052272727272725916,
                "tempo": 120.0
            },
            {
                "start_time": 29.174999999999997,
                "end_time": 29.202272727272724,
                "pitch": 20,
                "velocity": 127,
                "duration": 0.027272727272727337,
                "tempo": 120.0
            },
            {
                "start_time": 29.202272727272724,
                "end_time": 29.254545454545454,
                "pitch": 18,
                "velocity": 127,
                "duration": 0.05227272727272947,
                "tempo": 120.0
            },
            {
                "start_time": 29.254545454545454,
                "end_time": 29.28181818181818,
                "pitch": 14,
                "velocity": 127,
                "duration": 0.027272727272727337,
                "tempo": 120.0
            },
            {
                "start_time": 29.86590909090909,
                "end_time": 29.968181818181815,
                "pitch": 23,
                "velocity": 101,
                "duration": 0.10227272727272663,
                "tempo": 120.0
            },
            {
                "start_time": 30.020454545454545,
                "end_time": 30.097727272727273,
                "pitch": 23,
                "velocity": 101,
                "duration": 0.07727272727272805,
                "tempo": 120.0
            },
            {
                "start_time": 30.411363636363635,
                "end_time": 30.43181818181818,
                "pitch": 36,
                "velocity": 127,
                "duration": 0.020454545454544615,
                "tempo": 120.0
            },
            {
                "start_time": 30.43181818181818,
                "end_time": 30.48409090909091,
                "pitch": 33,
                "velocity": 127,
                "duration": 0.05227272727272947,
                "tempo": 120.0
            },
            {
                "start_time": 30.53863636363636,
                "end_time": 30.561363636363634,
                "pitch": 36,
                "velocity": 127,
                "duration": 0.022727272727273373,
                "tempo": 120.0
            },
            {
                "start_time": 30.561363636363634,
                "end_time": 30.613636363636363,
                "pitch": 33,
                "velocity": 127,
                "duration": 0.05227272727272947,
                "tempo": 120.0
            },
            {
                "start_time": 30.613636363636363,
                "end_time": 30.64090909090909,
                "pitch": 31,
                "velocity": 127,
                "duration": 0.027272727272727337,
                "tempo": 120.0
            },
            {
                "start_time": 30.668181818181818,
                "end_time": 30.690909090909088,
                "pitch": 36,
                "velocity": 127,
                "duration": 0.02272727272726982,
                "tempo": 120.0
            },
            {
                "start_time": 30.690909090909088,
                "end_time": 30.743181818181817,
                "pitch": 33,
                "velocity": 127,
                "duration": 0.05227272727272947,
                "tempo": 120.0
            },
            {
                "start_time": 30.743181818181817,
                "end_time": 30.770454545454545,
                "pitch": 31,
                "velocity": 127,
                "duration": 0.027272727272727337,
                "tempo": 120.0
            },
            {
                "start_time": 30.797727272727272,
                "end_time": 30.820454545454545,
                "pitch": 32,
                "velocity": 127,
                "duration": 0.022727272727273373,
                "tempo": 120.0
            },
            {
                "start_time": 28.804545454545455,
                "end_time": 30.820454545454545,
                "pitch": 42,
                "velocity": 127,
                "duration": 2.0159090909090907,
                "tempo": 120.0
            },
            {
                "start_time": 30.820454545454545,
                "end_time": 30.87272727272727,
                "pitch": 30,
                "velocity": 127,
                "duration": 0.052272727272725916,
                "tempo": 120.0
            },
            {
                "start_time": 30.87272727272727,
                "end_time": 30.9,
                "pitch": 27,
                "velocity": 127,
                "duration": 0.027272727272727337,
                "tempo": 120.0
            },
            {
                "start_time": 30.952272727272724,
                "end_time": 30.977272727272727,
                "pitch": 32,
                "velocity": 127,
                "duration": 0.02500000000000213,
                "tempo": 120.0
            },
            {
                "start_time": 30.820454545454545,
                "end_time": 30.977272727272727,
                "pitch": 42,
                "velocity": 127,
                "duration": 0.1568181818181813,
                "tempo": 120.0
            },
            {
                "start_time": 30.977272727272727,
                "end_time": 31.03181818181818,
                "pitch": 30,
                "velocity": 127,
                "duration": 0.054545454545454675,
                "tempo": 120.0
            },
            {
                "start_time": 31.086363636363636,
                "end_time": 31.111363636363635,
                "pitch": 32,
                "velocity": 127,
                "duration": 0.02499999999999858,
                "tempo": 120.0
            },
            {
                "start_time": 30.977272727272727,
                "end_time": 31.111363636363635,
                "pitch": 42,
                "velocity": 127,
                "duration": 0.13409090909090793,
                "tempo": 120.0
            },
            {
                "start_time": 31.111363636363635,
                "end_time": 31.16590909090909,
                "pitch": 30,
                "velocity": 127,
                "duration": 0.054545454545454675,
                "tempo": 120.0
            },
            {
                "start_time": 31.220454545454544,
                "end_time": 31.245454545454542,
                "pitch": 28,
                "velocity": 127,
                "duration": 0.02499999999999858,
                "tempo": 120.0
            },
            {
                "start_time": 31.245454545454542,
                "end_time": 31.297727272727272,
                "pitch": 26,
                "velocity": 127,
                "duration": 0.05227272727272947,
                "tempo": 120.0
            },
            {
                "start_time": 31.352272727272727,
                "end_time": 31.377272727272725,
                "pitch": 28,
                "velocity": 127,
                "duration": 0.02499999999999858,
                "tempo": 120.0
            },
            {
                "start_time": 31.377272727272725,
                "end_time": 31.43409090909091,
                "pitch": 26,
                "velocity": 127,
                "duration": 0.05681818181818343,
                "tempo": 120.0
            },
            {
                "start_time": 32.05,
                "end_time": 32.55227272727272,
                "pitch": 23,
                "velocity": 101,
                "duration": 0.5022727272727252,
                "tempo": 120.0
            },
            {
                "start_time": 33.13636363636363,
                "end_time": 33.625,
                "pitch": 23,
                "velocity": 101,
                "duration": 0.48863636363636687,
                "tempo": 120.0
            },
            {
                "start_time": 34.195454545454545,
                "end_time": 34.69772727272727,
                "pitch": 23,
                "velocity": 101,
                "duration": 0.5022727272727252,
                "tempo": 120.0
            },
            {
                "start_time": 35.30681818181818,
                "end_time": 35.788636363636364,
                "pitch": 23,
                "velocity": 101,
                "duration": 0.48181818181818414,
                "tempo": 120.0
            },
            {
                "start_time": 36.404545454545456,
                "end_time": 36.89545454545454,
                "pitch": 23,
                "velocity": 101,
                "duration": 0.49090909090908497,
                "tempo": 120.0
            },
            {
                "start_time": 37.465909090909086,
                "end_time": 37.96818181818182,
                "pitch": 23,
                "velocity": 101,
                "duration": 0.5022727272727323,
                "tempo": 120.0
            },
            {
                "start_time": 38.55,
                "end_time": 39.04090909090909,
                "pitch": 23,
                "velocity": 101,
                "duration": 0.49090909090909207,
                "tempo": 120.0
            },
            {
                "start_time": 39.611363636363635,
                "end_time": 40.11363636363636,
                "pitch": 23,
                "velocity": 101,
                "duration": 0.5022727272727252,
                "tempo": 120.0
            },
            {
                "start_time": 40.72272727272727,
                "end_time": 41.22954545454545,
                "pitch": 23,
                "velocity": 101,
                "duration": 0.5068181818181827,
                "tempo": 120.0
            },
            {
                "start_time": 41.820454545454545,
                "end_time": 42.31136363636364,
                "pitch": 23,
                "velocity": 101,
                "duration": 0.49090909090909207,
                "tempo": 120.0
            },
            {
                "start_time": 42.87954545454545,
                "end_time": 43.38181818181818,
                "pitch": 23,
                "velocity": 101,
                "duration": 0.5022727272727323,
                "tempo": 120.0
            },
            {
                "start_time": 43.96363636363636,
                "end_time": 44.45681818181818,
                "pitch": 23,
                "velocity": 101,
                "duration": 0.4931818181818173,
                "tempo": 120.0
            },
            {
                "start_time": 45.05,
                "end_time": 45.559090909090905,
                "pitch": 23,
                "velocity": 101,
                "duration": 0.5090909090909079,
                "tempo": 120.0
            },
            {
                "start_time": 46.14772727272727,
                "end_time": 46.64090909090909,
                "pitch": 23,
                "velocity": 101,
                "duration": 0.4931818181818173,
                "tempo": 120.0
            },
            {
                "start_time": 47.209090909090904,
                "end_time": 47.711363636363636,
                "pitch": 23,
                "velocity": 101,
                "duration": 0.5022727272727323,
                "tempo": 120.0
            },
            {
                "start_time": 48.293181818181814,
                "end_time": 48.78636363636363,
                "pitch": 23,
                "velocity": 101,
                "duration": 0.4931818181818173,
                "tempo": 120.0
            },
            {
                "start_time": 49.37954545454545,
                "end_time": 49.86363636363636,
                "pitch": 23,
                "velocity": 101,
                "duration": 0.48409090909090935,
                "tempo": 120.0
            },
            {
                "start_time": 50.47727272727273,
                "end_time": 50.98181818181818,
                "pitch": 23,
                "velocity": 101,
                "duration": 0.5045454545454504,
                "tempo": 120.0
            },
            {
                "start_time": 51.56590909090909,
                "end_time": 51.79545454545454,
                "pitch": 23,
                "velocity": 101,
                "duration": 0.22954545454545183,
                "tempo": 120.0
            },
            {
                "start_time": 51.82272727272727,
                "end_time": 52.054545454545455,
                "pitch": 23,
                "velocity": 101,
                "duration": 0.23181818181818414,
                "tempo": 120.0
            },
            {
                "start_time": 52.365909090909085,
                "end_time": 52.39090909090909,
                "pitch": 36,
                "velocity": 127,
                "duration": 0.025000000000005684,
                "tempo": 120.0
            },
            {
                "start_time": 52.39090909090909,
                "end_time": 52.44090909090909,
                "pitch": 33,
                "velocity": 127,
                "duration": 0.04999999999999716,
                "tempo": 120.0
            },
            {
                "start_time": 52.49318181818182,
                "end_time": 52.52045454545454,
                "pitch": 36,
                "velocity": 127,
                "duration": 0.027272727272723785,
                "tempo": 120.0
            },
            {
                "start_time": 52.52045454545454,
                "end_time": 52.570454545454545,
                "pitch": 33,
                "velocity": 127,
                "duration": 0.05000000000000426,
                "tempo": 120.0
            },
            {
                "start_time": 52.570454545454545,
                "end_time": 52.59772727272727,
                "pitch": 31,
                "velocity": 127,
                "duration": 0.027272727272723785,
                "tempo": 120.0
            },
            {
                "start_time": 52.625,
                "end_time": 52.65,
                "pitch": 32,
                "velocity": 127,
                "duration": 0.02499999999999858,
                "tempo": 120.0
            },
            {
                "start_time": 31.111363636363635,
                "end_time": 52.65,
                "pitch": 42,
                "velocity": 127,
                "duration": 21.538636363636364,
                "tempo": 120.0
            },
            {
                "start_time": 52.65,
                "end_time": 52.70227272727273,
                "pitch": 30,
                "velocity": 127,
                "duration": 0.05227272727272947,
                "tempo": 120.0
            },
            {
                "start_time": 52.70227272727273,
                "end_time": 52.72954545454545,
                "pitch": 27,
                "velocity": 127,
                "duration": 0.027272727272723785,
                "tempo": 120.0
            },
            {
                "start_time": 52.75454545454545,
                "end_time": 52.78181818181818,
                "pitch": 32,
                "velocity": 127,
                "duration": 0.02727272727273089,
                "tempo": 120.0
            },
            {
                "start_time": 52.65,
                "end_time": 52.78181818181818,
                "pitch": 42,
                "velocity": 127,
                "duration": 0.13181818181818272,
                "tempo": 120.0
            },
            {
                "start_time": 52.78181818181818,
                "end_time": 52.834090909090904,
                "pitch": 30,
                "velocity": 127,
                "duration": 0.052272727272722364,
                "tempo": 120.0
            },
            {
                "start_time": 52.834090909090904,
                "end_time": 52.861363636363635,
                "pitch": 27,
                "velocity": 127,
                "duration": 0.02727272727273089,
                "tempo": 120.0
            },
            {
                "start_time": 52.91590909090909,
                "end_time": 52.94090909090909,
                "pitch": 28,
                "velocity": 127,
                "duration": 0.02499999999999858,
                "tempo": 120.0
            },
            {
                "start_time": 52.94090909090909,
                "end_time": 52.99318181818182,
                "pitch": 26,
                "velocity": 127,
                "duration": 0.05227272727272947,
                "tempo": 120.0
            },
            {
                "start_time": 52.99318181818182,
                "end_time": 53.04545454545454,
                "pitch": 23,
                "velocity": 127,
                "duration": 0.052272727272722364,
                "tempo": 120.0
            },
            {
                "start_time": 53.04545454545454,
                "end_time": 53.07272727272727,
                "pitch": 20,
                "velocity": 127,
                "duration": 0.02727272727273089,
                "tempo": 120.0
            },
            {
                "start_time": 53.07272727272727,
                "end_time": 53.127272727272725,
                "pitch": 18,
                "velocity": 127,
                "duration": 0.054545454545454675,
                "tempo": 120.0
            },
            {
                "start_time": 53.736363636363635,
                "end_time": 53.81363636363636,
                "pitch": 23,
                "velocity": 101,
                "duration": 0.07727272727272805,
                "tempo": 120.0
            },
            {
                "start_time": 53.86818181818182,
                "end_time": 54.08181818181818,
                "pitch": 23,
                "velocity": 101,
                "duration": 0.21363636363636118,
                "tempo": 120.0
            },
            {
                "start_time": 54.13636363636363,
                "end_time": 54.215909090909086,
                "pitch": 23,
                "velocity": 101,
                "duration": 0.07954545454545325,
                "tempo": 120.0
            },
            {
                "start_time": 54.834090909090904,
                "end_time": 55.324999999999996,
                "pitch": 23,
                "velocity": 101,
                "duration": 0.49090909090909207,
                "tempo": 120.0
            },
            {
                "start_time": 55.893181818181816,
                "end_time": 55.97272727272727,
                "pitch": 23,
                "velocity": 101,
                "duration": 0.07954545454545325,
                "tempo": 120.0
            },
            {
                "start_time": 56.025,
                "end_time": 56.26363636363636,
                "pitch": 23,
                "velocity": 101,
                "duration": 0.23863636363635976,
                "tempo": 120.0
            },
            {
                "start_time": 56.29090909090909,
                "end_time": 56.39545454545454,
                "pitch": 23,
                "velocity": 101,
                "duration": 0.10454545454545183,
                "tempo": 120.0
            },
            {
                "start_time": 56.97954545454545,
                "end_time": 57.470454545454544,
                "pitch": 23,
                "velocity": 101,
                "duration": 0.49090909090909207,
                "tempo": 120.0
            },
            {
                "start_time": 58.038636363636364,
                "end_time": 58.143181818181816,
                "pitch": 23,
                "velocity": 101,
                "duration": 0.10454545454545183,
                "tempo": 120.0
            },
            {
                "start_time": 58.19772727272727,
                "end_time": 58.40909090909091,
                "pitch": 23,
                "velocity": 101,
                "duration": 0.21136363636363598,
                "tempo": 120.0
            },
            {
                "start_time": 58.461363636363636,
                "end_time": 58.54090909090909,
                "pitch": 23,
                "velocity": 101,
                "duration": 0.07954545454545325,
                "tempo": 120.0
            },
            {
                "start_time": 59.15,
                "end_time": 59.652272727272724,
                "pitch": 23,
                "velocity": 101,
                "duration": 0.5022727272727252,
                "tempo": 120.0
            },
            {
                "start_time": 60.236363636363635,
                "end_time": 60.31363636363636,
                "pitch": 23,
                "velocity": 101,
                "duration": 0.07727272727272805,
                "tempo": 120.0
            },
            {
                "start_time": 60.36818181818182,
                "end_time": 60.60454545454545,
                "pitch": 23,
                "velocity": 101,
                "duration": 0.23636363636363455,
                "tempo": 120.0
            },
            {
                "start_time": 60.631818181818176,
                "end_time": 60.73863636363636,
                "pitch": 23,
                "velocity": 101,
                "duration": 0.10681818181818414,
                "tempo": 120.0
            },
            {
                "start_time": 61.05681818181818,
                "end_time": 61.08181818181818,
                "pitch": 36,
                "velocity": 127,
                "duration": 0.02499999999999858,
                "tempo": 120.0
            },
            {
                "start_time": 61.08181818181818,
                "end_time": 61.13409090909091,
                "pitch": 33,
                "velocity": 127,
                "duration": 0.05227272727272947,
                "tempo": 120.0
            },
            {
                "start_time": 61.18863636363636,
                "end_time": 61.21363636363636,
                "pitch": 36,
                "velocity": 127,
                "duration": 0.02499999999999858,
                "tempo": 120.0
            },
            {
                "start_time": 61.21363636363636,
                "end_time": 61.26590909090909,
                "pitch": 33,
                "velocity": 127,
                "duration": 0.05227272727272947,
                "tempo": 120.0
            },
            {
                "start_time": 61.320454545454545,
                "end_time": 61.345454545454544,
                "pitch": 32,
                "velocity": 127,
                "duration": 0.02499999999999858,
                "tempo": 120.0
            },
            {
                "start_time": 52.78181818181818,
                "end_time": 61.345454545454544,
                "pitch": 42,
                "velocity": 127,
                "duration": 8.563636363636363,
                "tempo": 120.0
            },
            {
                "start_time": 61.345454545454544,
                "end_time": 61.397727272727266,
                "pitch": 30,
                "velocity": 127,
                "duration": 0.052272727272722364,
                "tempo": 120.0
            },
            {
                "start_time": 61.397727272727266,
                "end_time": 61.42272727272727,
                "pitch": 27,
                "velocity": 127,
                "duration": 0.025000000000005684,
                "tempo": 120.0
            },
            {
                "start_time": 61.449999999999996,
                "end_time": 61.474999999999994,
                "pitch": 32,
                "velocity": 127,
                "duration": 0.02499999999999858,
                "tempo": 120.0
            },
            {
                "start_time": 61.345454545454544,
                "end_time": 61.474999999999994,
                "pitch": 42,
                "velocity": 127,
                "duration": 0.1295454545454504,
                "tempo": 120.0
            },
            {
                "start_time": 61.474999999999994,
                "end_time": 61.527272727272724,
                "pitch": 30,
                "velocity": 127,
                "duration": 0.05227272727272947,
                "tempo": 120.0
            },
            {
                "start_time": 61.527272727272724,
                "end_time": 61.55227272727272,
                "pitch": 27,
                "velocity": 127,
                "duration": 0.02499999999999858,
                "tempo": 120.0
            },
            {
                "start_time": 61.57954545454545,
                "end_time": 61.60454545454545,
                "pitch": 28,
                "velocity": 127,
                "duration": 0.02499999999999858,
                "tempo": 120.0
            },
            {
                "start_time": 61.60454545454545,
                "end_time": 61.65681818181818,
                "pitch": 26,
                "velocity": 127,
                "duration": 0.05227272727272947,
                "tempo": 120.0
            },
            {
                "start_time": 61.65681818181818,
                "end_time": 61.68181818181818,
                "pitch": 23,
                "velocity": 127,
                "duration": 0.02499999999999858,
                "tempo": 120.0
            },
            {
                "start_time": 61.73409090909091,
                "end_time": 61.75909090909091,
                "pitch": 28,
                "velocity": 127,
                "duration": 0.02499999999999858,
                "tempo": 120.0
            },
            {
                "start_time": 61.75909090909091,
                "end_time": 61.81136363636363,
                "pitch": 26,
                "velocity": 127,
                "duration": 0.052272727272722364,
                "tempo": 120.0
            },
            {
                "start_time": 62.125,
                "end_time": 62.224999999999994,
                "pitch": 23,
                "velocity": 101,
                "duration": 0.09999999999999432,
                "tempo": 120.0
            },
            {
                "start_time": 62.252272727272725,
                "end_time": 62.35454545454545,
                "pitch": 23,
                "velocity": 101,
                "duration": 0.10227272727272663,
                "tempo": 120.0
            },
            {
                "start_time": 62.38409090909091,
                "end_time": 62.62045454545454,
                "pitch": 23,
                "velocity": 101,
                "duration": 0.23636363636363455,
                "tempo": 120.0
            },
            {
                "start_time": 62.93863636363636,
                "end_time": 63.01590909090909,
                "pitch": 23,
                "velocity": 101,
                "duration": 0.07727272727272805,
                "tempo": 120.0
            },
            {
                "start_time": 63.070454545454545,
                "end_time": 63.175,
                "pitch": 23,
                "velocity": 101,
                "duration": 0.10454545454545183,
                "tempo": 120.0
            },
            {
                "start_time": 63.20227272727272,
                "end_time": 63.44090909090909,
                "pitch": 23,
                "velocity": 101,
                "duration": 0.23863636363636687,
                "tempo": 120.0
            },
            {
                "start_time": 63.76363636363636,
                "end_time": 63.840909090909086,
                "pitch": 23,
                "velocity": 101,
                "duration": 0.07727272727272805,
                "tempo": 120.0
            },
            {
                "start_time": 63.89545454545454,
                "end_time": 64.00227272727273,
                "pitch": 23,
                "velocity": 101,
                "duration": 0.10681818181818414,
                "tempo": 120.0
            },
            {
                "start_time": 64.03181818181818,
                "end_time": 64.27045454545454,
                "pitch": 23,
                "velocity": 101,
                "duration": 0.23863636363635976,
                "tempo": 120.0
            },
            {
                "start_time": 64.325,
                "end_time": 64.53636363636363,
                "pitch": 23,
                "velocity": 101,
                "duration": 0.21136363636362887,
                "tempo": 120.0
            },
            {
                "start_time": 64.85227272727272,
                "end_time": 65.08181818181818,
                "pitch": 23,
                "velocity": 101,
                "duration": 0.22954545454545894,
                "tempo": 120.0
            },
            {
                "start_time": 65.11136363636363,
                "end_time": 65.13181818181818,
                "pitch": 36,
                "velocity": 127,
                "duration": 0.020454545454541062,
                "tempo": 120.0
            },
            {
                "start_time": 65.13181818181818,
                "end_time": 65.18409090909091,
                "pitch": 33,
                "velocity": 127,
                "duration": 0.052272727272736574,
                "tempo": 120.0
            },
            {
                "start_time": 65.18409090909091,
                "end_time": 65.21136363636363,
                "pitch": 31,
                "velocity": 127,
                "duration": 0.02727272727271668,
                "tempo": 120.0
            },
            {
                "start_time": 65.26363636363637,
                "end_time": 65.28863636363636,
                "pitch": 36,
                "velocity": 127,
                "duration": 0.024999999999991473,
                "tempo": 120.0
            },
            {
                "start_time": 65.28863636363636,
                "end_time": 65.3409090909091,
                "pitch": 33,
                "velocity": 127,
                "duration": 0.052272727272736574,
                "tempo": 120.0
            },
            {
                "start_time": 65.39318181818182,
                "end_time": 65.41590909090908,
                "pitch": 36,
                "velocity": 127,
                "duration": 0.022727272727266268,
                "tempo": 120.0
            },
            {
                "start_time": 65.41590909090908,
                "end_time": 65.46818181818182,
                "pitch": 33,
                "velocity": 127,
                "duration": 0.052272727272736574,
                "tempo": 120.0
            },
            {
                "start_time": 65.52272727272727,
                "end_time": 65.54545454545455,
                "pitch": 32,
                "velocity": 127,
                "duration": 0.02272727272728048,
                "tempo": 120.0
            },
            {
                "start_time": 61.474999999999994,
                "end_time": 65.54545454545455,
                "pitch": 42,
                "velocity": 127,
                "duration": 4.070454545454552,
                "tempo": 120.0
            },
            {
                "start_time": 65.54545454545455,
                "end_time": 65.59772727272727,
                "pitch": 30,
                "velocity": 127,
                "duration": 0.052272727272722364,
                "tempo": 120.0
            },
            {
                "start_time": 65.65227272727273,
                "end_time": 65.675,
                "pitch": 32,
                "velocity": 127,
                "duration": 0.022727272727266268,
                "tempo": 120.0
            },
            {
                "start_time": 65.54545454545455,
                "end_time": 65.675,
                "pitch": 42,
                "velocity": 127,
                "duration": 0.1295454545454504,
                "tempo": 120.0
            },
            {
                "start_time": 65.675,
                "end_time": 65.72954545454544,
                "pitch": 30,
                "velocity": 127,
                "duration": 0.05454545454544757,
                "tempo": 120.0
            },
            {
                "start_time": 65.72954545454544,
                "end_time": 65.75681818181818,
                "pitch": 27,
                "velocity": 127,
                "duration": 0.02727272727273089,
                "tempo": 120.0
            },
            {
                "start_time": 65.7840909090909,
                "end_time": 65.80909090909091,
                "pitch": 28,
                "velocity": 127,
                "duration": 0.025000000000005684,
                "tempo": 120.0
            },
            {
                "start_time": 65.80909090909091,
                "end_time": 65.86136363636363,
                "pitch": 26,
                "velocity": 127,
                "duration": 0.052272727272722364,
                "tempo": 120.0
            },
            {
                "start_time": 65.86136363636363,
                "end_time": 65.88863636363637,
                "pitch": 23,
                "velocity": 127,
                "duration": 0.02727272727273089,
                "tempo": 120.0
            },
            {
                "start_time": 65.91590909090908,
                "end_time": 65.94090909090909,
                "pitch": 28,
                "velocity": 127,
                "duration": 0.025000000000005684,
                "tempo": 120.0
            },
            {
                "start_time": 65.94090909090909,
                "end_time": 65.99318181818181,
                "pitch": 26,
                "velocity": 127,
                "duration": 0.052272727272722364,
                "tempo": 120.0
            },
            {
                "start_time": 65.99318181818181,
                "end_time": 66.02045454545454,
                "pitch": 23,
                "velocity": 127,
                "duration": 0.02727272727273089,
                "tempo": 120.0
            },
            {
                "start_time": 66.075,
                "end_time": 66.1,
                "pitch": 28,
                "velocity": 127,
                "duration": 0.024999999999991473,
                "tempo": 120.0
            },
            {
                "start_time": 66.1,
                "end_time": 66.15454545454546,
                "pitch": 26,
                "velocity": 127,
                "duration": 0.05454545454546178,
                "tempo": 120.0
            }
        ]
    }
}