{
    "track_id": "14 Fortress",
    "mood": "angry",
    "instruments": {
        "Electric Piano 1": [
            {
                "start_time": 0.006818181818181818,
                "end_time": 0.3386363636363636,
                "pitch": 74,
                "velocity": 80,
                "duration": 0.3318181818181818,
                "tempo": 120.0
            },
            {
                "start_time": 0.3386363636363636,
                "end_time": 0.6749999999999999,
                "pitch": 76,
                "velocity": 80,
                "duration": 0.3363636363636363,
                "tempo": 120.0
            },
            {
                "start_time": 0.6749999999999999,
                "end_time": 1.0068181818181818,
                "pitch": 77,
                "velocity": 80,
                "duration": 0.3318181818181819,
                "tempo": 120.0
            },
            {
                "start_time": 1.0068181818181818,
                "end_time": 1.3386363636363636,
                "pitch": 81,
                "velocity": 80,
                "duration": 0.3318181818181818,
                "tempo": 120.0
            },
            {
                "start_time": 1.3386363636363636,
                "end_time": 1.6749999999999998,
                "pitch": 76,
                "velocity": 80,
                "duration": 0.3363636363636362,
                "tempo": 120.0
            },
            {
                "start_time": 1.6749999999999998,
                "end_time": 2.009090909090909,
                "pitch": 77,
                "velocity": 80,
                "duration": 0.334090909090909,
                "tempo": 120.0
            },
            {
                "start_time": 2.0113636363636362,
                "end_time": 2.3431818181818183,
                "pitch": 74,
                "velocity": 80,
                "duration": 0.331818181818182,
                "tempo": 120.0
            },
            {
                "start_time": 2.3431818181818183,
                "end_time": 2.675,
                "pitch": 76,
                "velocity": 80,
                "duration": 0.33181818181818157,
                "tempo": 120.0
            },
            {
                "start_time": 2.675,
                "end_time": 3.009090909090909,
                "pitch": 74,
                "velocity": 80,
                "duration": 0.334090909090909,
                "tempo": 120.0
            },
            {
                "start_time": 3.0113636363636362,
                "end_time": 3.3454545454545452,
                "pitch": 77,
                "velocity": 80,
                "duration": 0.334090909090909,
                "tempo": 120.0
            },
            {
                "start_time": 3.3477272727272727,
                "end_time": 3.6818181818181817,
                "pitch": 76,
                "velocity": 80,
                "duration": 0.334090909090909,
                "tempo": 120.0
            },
            {
                "start_time": 3.6818181818181817,
                "end_time": 4.018181818181818,
                "pitch": 72,
                "velocity": 80,
                "duration": 0.336363636363636,
                "tempo": 120.0
            },
            {
                "start_time": 4.018181818181818,
                "end_time": 4.352272727272727,
                "pitch": 74,
                "velocity": 80,
                "duration": 0.334090909090909,
                "tempo": 120.0
            },
            {
                "start_time": 4.3545454545454545,
                "end_time": 4.6886363636363635,
                "pitch": 71,
                "velocity": 80,
                "duration": 0.334090909090909,
                "tempo": 120.0
            },
            {
                "start_time": 4.6909090909090905,
                "end_time": 5.0204545454545455,
                "pitch": 72,
                "velocity": 80,
                "duration": 0.32954545454545503,
                "tempo": 120.0
            },
            {
                "start_time": 5.0227272727272725,
                "end_time": 5.352272727272727,
                "pitch": 69,
                "velocity": 80,
                "duration": 0.32954545454545414,
                "tempo": 120.0
            },
            {
                "start_time": 5.3545454545454545,
                "end_time": 5.6886363636363635,
                "pitch": 74,
                "velocity": 80,
                "duration": 0.334090909090909,
                "tempo": 120.0
            },
            {
                "start_time": 5.6886363636363635,
                "end_time": 6.0249999999999995,
                "pitch": 76,
                "velocity": 80,
                "duration": 0.336363636363636,
                "tempo": 120.0
            },
            {
                "start_time": 6.0249999999999995,
                "end_time": 6.361363636363636,
                "pitch": 77,
                "velocity": 80,
                "duration": 0.33636363636363686,
                "tempo": 120.0
            },
            {
                "start_time": 6.361363636363636,
                "end_time": 6.695454545454545,
                "pitch": 81,
                "velocity": 80,
                "duration": 0.334090909090909,
                "tempo": 120.0
            },
            {
                "start_time": 6.697727272727272,
                "end_time": 7.031818181818181,
                "pitch": 76,
                "velocity": 80,
                "duration": 0.334090909090909,
                "tempo": 120.0
            },
            {
                "start_time": 7.034090909090909,
                "end_time": 7.368181818181818,
                "pitch": 77,
                "velocity": 80,
                "duration": 0.334090909090909,
                "tempo": 120.0
            },
            {
                "start_time": 7.368181818181818,
                "end_time": 7.699999999999999,
                "pitch": 74,
                "velocity": 80,
                "duration": 0.3318181818181811,
                "tempo": 120.0
            },
            {
                "start_time": 7.699999999999999,
                "end_time": 8.031818181818181,
                "pitch": 76,
                "velocity": 80,
                "duration": 0.331818181818182,
                "tempo": 120.0
            },
            {
                "start_time": 8.031818181818181,
                "end_time": 8.368181818181817,
                "pitch": 74,
                "velocity": 80,
                "duration": 0.336363636363636,
                "tempo": 120.0
            },
            {
                "start_time": 8.368181818181817,
                "end_time": 8.704545454545453,
                "pitch": 77,
                "velocity": 80,
                "duration": 0.336363636363636,
                "tempo": 120.0
            },
            {
                "start_time": 8.704545454545453,
                "end_time": 9.038636363636364,
                "pitch": 76,
                "velocity": 80,
                "duration": 0.33409090909091077,
                "tempo": 120.0
            },
            {
                "start_time": 9.040909090909091,
                "end_time": 9.375,
                "pitch": 72,
                "velocity": 80,
                "duration": 0.334090909090909,
                "tempo": 120.0
            },
            {
                "start_time": 9.377272727272727,
                "end_time": 10.711363636363636,
                "pitch": 74,
                "velocity": 80,
                "duration": 1.334090909090909,
                "tempo": 120.0
            },
            {
                "start_time": 10.713636363636363,
                "end_time": 11.047727272727272,
                "pitch": 74,
                "velocity": 101,
                "duration": 0.334090909090909,
                "tempo": 120.0
            },
            {
                "start_time": 11.047727272727272,
                "end_time": 11.381818181818181,
                "pitch": 76,
                "velocity": 101,
                "duration": 0.334090909090909,
                "tempo": 120.0
            },
            {
                "start_time": 11.384090909090908,
                "end_time": 11.718181818181817,
                "pitch": 77,
                "velocity": 101,
                "duration": 0.334090909090909,
                "tempo": 120.0
            },
            {
                "start_time": 11.718181818181817,
                "end_time": 12.054545454545455,
                "pitch": 81,
                "velocity": 101,
                "duration": 0.33636363636363775,
                "tempo": 120.0
            },
            {
                "start_time": 12.054545454545455,
                "end_time": 12.39090909090909,
                "pitch": 76,
                "velocity": 101,
                "duration": 0.336363636363636,
                "tempo": 120.0
            },
            {
                "start_time": 12.39090909090909,
                "end_time": 12.725,
                "pitch": 77,
                "velocity": 101,
                "duration": 0.334090909090909,
                "tempo": 120.0
            },
            {
                "start_time": 12.727272727272727,
                "end_time": 13.061363636363636,
                "pitch": 74,
                "velocity": 101,
                "duration": 0.334090909090909,
                "tempo": 120.0
            },
            {
                "start_time": 13.061363636363636,
                "end_time": 13.397727272727272,
                "pitch": 76,
                "velocity": 101,
                "duration": 0.336363636363636,
                "tempo": 120.0
            },
            {
                "start_time": 13.397727272727272,
                "end_time": 13.729545454545454,
                "pitch": 74,
                "velocity": 101,
                "duration": 0.331818181818182,
                "tempo": 120.0
            },
            {
                "start_time": 13.729545454545454,
                "end_time": 14.061363636363636,
                "pitch": 77,
                "velocity": 101,
                "duration": 0.331818181818182,
                "tempo": 120.0
            },
            {
                "start_time": 14.061363636363636,
                "end_time": 14.397727272727272,
                "pitch": 76,
                "velocity": 101,
                "duration": 0.336363636363636,
                "tempo": 120.0
            },
            {
                "start_time": 14.397727272727272,
                "end_time": 14.734090909090908,
                "pitch": 72,
                "velocity": 101,
                "duration": 0.336363636363636,
                "tempo": 120.0
            },
            {
                "start_time": 14.734090909090908,
                "end_time": 15.068181818181817,
                "pitch": 74,
                "velocity": 101,
                "duration": 0.334090909090909,
                "tempo": 120.0
            },
            {
                "start_time": 15.070454545454545,
                "end_time": 15.404545454545454,
                "pitch": 71,
                "velocity": 101,
                "duration": 0.334090909090909,
                "tempo": 120.0
            },
            {
                "start_time": 15.404545454545454,
                "end_time": 15.74090909090909,
                "pitch": 72,
                "velocity": 101,
                "duration": 0.336363636363636,
                "tempo": 120.0
            },
            {
                "start_time": 15.74090909090909,
                "end_time": 16.077272727272728,
                "pitch": 69,
                "velocity": 101,
                "duration": 0.33636363636363775,
                "tempo": 120.0
            },
            {
                "start_time": 16.077272727272728,
                "end_time": 16.40909090909091,
                "pitch": 74,
                "velocity": 101,
                "duration": 0.331818181818182,
                "tempo": 120.0
            },
            {
                "start_time": 16.40909090909091,
                "end_time": 16.74090909090909,
                "pitch": 76,
                "velocity": 101,
                "duration": 0.33181818181817846,
                "tempo": 120.0
            },
            {
                "start_time": 16.74090909090909,
                "end_time": 17.077272727272728,
                "pitch": 77,
                "velocity": 101,
                "duration": 0.33636363636363953,
                "tempo": 120.0
            },
            {
                "start_time": 17.077272727272728,
                "end_time": 17.411363636363635,
                "pitch": 81,
                "velocity": 101,
                "duration": 0.3340909090909072,
                "tempo": 120.0
            },
            {
                "start_time": 17.413636363636364,
                "end_time": 17.74772727272727,
                "pitch": 76,
                "velocity": 101,
                "duration": 0.3340909090909072,
                "tempo": 120.0
            },
            {
                "start_time": 17.74772727272727,
                "end_time": 18.084090909090907,
                "pitch": 77,
                "velocity": 101,
                "duration": 0.336363636363636,
                "tempo": 120.0
            },
            {
                "start_time": 18.084090909090907,
                "end_time": 18.420454545454543,
                "pitch": 74,
                "velocity": 101,
                "duration": 0.336363636363636,
                "tempo": 120.0
            },
            {
                "start_time": 18.420454545454543,
                "end_time": 18.754545454545454,
                "pitch": 76,
                "velocity": 101,
                "duration": 0.33409090909091077,
                "tempo": 120.0
            },
            {
                "start_time": 18.75681818181818,
                "end_time": 19.086363636363636,
                "pitch": 74,
                "velocity": 101,
                "duration": 0.3295454545454568,
                "tempo": 120.0
            },
            {
                "start_time": 19.08863636363636,
                "end_time": 19.418181818181818,
                "pitch": 77,
                "velocity": 101,
                "duration": 0.3295454545454568,
                "tempo": 120.0
            },
            {
                "start_time": 19.420454545454543,
                "end_time": 19.754545454545454,
                "pitch": 76,
                "velocity": 101,
                "duration": 0.33409090909091077,
                "tempo": 120.0
            },
            {
                "start_time": 19.75681818181818,
                "end_time": 20.09090909090909,
                "pitch": 72,
                "velocity": 101,
                "duration": 0.33409090909091077,
                "tempo": 120.0
            },
            {
                "start_time": 20.09090909090909,
                "end_time": 21.43409090909091,
                "pitch": 74,
                "velocity": 101,
                "duration": 1.3431818181818187,
                "tempo": 120.0
            },
            {
                "start_time": 42.86818181818182,
                "end_time": 45.54545454545455,
                "pitch": 69,
                "velocity": 101,
                "duration": 2.6772727272727295,
                "tempo": 120.0
            },
            {
                "start_time": 45.54545454545455,
                "end_time": 45.94772727272727,
                "pitch": 67,
                "velocity": 101,
                "duration": 0.4022727272727238,
                "tempo": 120.0
            },
            {
                "start_time": 45.94772727272727,
                "end_time": 45.98181818181818,
                "pitch": 67,
                "velocity": 101,
                "duration": 0.03409090909090651,
                "tempo": 120.0
            },
            {
                "start_time": 45.98181818181818,
                "end_time": 46.11590909090909,
                "pitch": 67,
                "velocity": 101,
                "duration": 0.13409090909091503,
                "tempo": 120.0
            },
            {
                "start_time": 45.94772727272727,
                "end_time": 46.11590909090909,
                "pitch": 79,
                "velocity": 101,
                "duration": 0.16818181818182154,
                "tempo": 120.0
            },
            {
                "start_time": 45.98181818181818,
                "end_time": 46.15,
                "pitch": 55,
                "velocity": 101,
                "duration": 0.16818181818182154,
                "tempo": 120.0
            },
            {
                "start_time": 46.11590909090909,
                "end_time": 46.15,
                "pitch": 67,
                "velocity": 101,
                "duration": 0.03409090909090651,
                "tempo": 120.0
            },
            {
                "start_time": 46.15,
                "end_time": 46.28409090909091,
                "pitch": 67,
                "velocity": 101,
                "duration": 0.13409090909090793,
                "tempo": 120.0
            },
            {
                "start_time": 46.11590909090909,
                "end_time": 46.28409090909091,
                "pitch": 79,
                "velocity": 101,
                "duration": 0.16818181818181444,
                "tempo": 120.0
            },
            {
                "start_time": 46.15,
                "end_time": 46.31818181818181,
                "pitch": 55,
                "velocity": 101,
                "duration": 0.16818181818181444,
                "tempo": 120.0
            },
            {
                "start_time": 46.28409090909091,
                "end_time": 46.31818181818181,
                "pitch": 67,
                "velocity": 101,
                "duration": 0.03409090909090651,
                "tempo": 120.0
            },
            {
                "start_time": 46.31818181818181,
                "end_time": 46.45227272727273,
                "pitch": 67,
                "velocity": 101,
                "duration": 0.13409090909091503,
                "tempo": 120.0
            },
            {
                "start_time": 46.28409090909091,
                "end_time": 46.45227272727273,
                "pitch": 79,
                "velocity": 101,
                "duration": 0.16818181818182154,
                "tempo": 120.0
            },
            {
                "start_time": 46.31818181818181,
                "end_time": 46.486363636363635,
                "pitch": 55,
                "velocity": 101,
                "duration": 0.16818181818182154,
                "tempo": 120.0
            },
            {
                "start_time": 46.45227272727273,
                "end_time": 46.486363636363635,
                "pitch": 67,
                "velocity": 101,
                "duration": 0.03409090909090651,
                "tempo": 120.0
            },
            {
                "start_time": 46.486363636363635,
                "end_time": 46.62045454545454,
                "pitch": 67,
                "velocity": 101,
                "duration": 0.13409090909090793,
                "tempo": 120.0
            },
            {
                "start_time": 46.45227272727273,
                "end_time": 46.62045454545454,
                "pitch": 79,
                "velocity": 101,
                "duration": 0.16818181818181444,
                "tempo": 120.0
            },
            {
                "start_time": 46.62045454545454,
                "end_time": 46.652272727272724,
                "pitch": 67,
                "velocity": 101,
                "duration": 0.0318181818181813,
                "tempo": 120.0
            },
            {
                "start_time": 46.486363636363635,
                "end_time": 46.65454545454545,
                "pitch": 55,
                "velocity": 101,
                "duration": 0.16818181818181444,
                "tempo": 120.0
            },
            {
                "start_time": 46.652272727272724,
                "end_time": 46.65454545454545,
                "pitch": 55,
                "velocity": 101,
                "duration": 0.0022727272727252057,
                "tempo": 120.0
            },
            {
                "start_time": 46.65454545454545,
                "end_time": 46.788636363636364,
                "pitch": 67,
                "velocity": 101,
                "duration": 0.13409090909091503,
                "tempo": 120.0
            },
            {
                "start_time": 46.62045454545454,
                "end_time": 46.788636363636364,
                "pitch": 79,
                "velocity": 101,
                "duration": 0.16818181818182154,
                "tempo": 120.0
            },
            {
                "start_time": 46.788636363636364,
                "end_time": 46.820454545454545,
                "pitch": 67,
                "velocity": 101,
                "duration": 0.0318181818181813,
                "tempo": 120.0
            },
            {
                "start_time": 46.820454545454545,
                "end_time": 46.95454545454545,
                "pitch": 67,
                "velocity": 101,
                "duration": 0.13409090909090793,
                "tempo": 120.0
            },
            {
                "start_time": 46.788636363636364,
                "end_time": 46.95454545454545,
                "pitch": 79,
                "velocity": 101,
                "duration": 0.16590909090908923,
                "tempo": 120.0
            },
            {
                "start_time": 46.820454545454545,
                "end_time": 46.98863636363636,
                "pitch": 55,
                "velocity": 101,
                "duration": 0.16818181818181444,
                "tempo": 120.0
            },
            {
                "start_time": 46.95454545454545,
                "end_time": 46.98863636363636,
                "pitch": 67,
                "velocity": 101,
                "duration": 0.03409090909090651,
                "tempo": 120.0
            },
            {
                "start_time": 46.98863636363636,
                "end_time": 47.12045454545454,
                "pitch": 67,
                "velocity": 101,
                "duration": 0.13181818181818272,
                "tempo": 120.0
            },
            {
                "start_time": 46.95454545454545,
                "end_time": 47.12045454545454,
                "pitch": 79,
                "velocity": 101,
                "duration": 0.16590909090908923,
                "tempo": 120.0
            },
            {
                "start_time": 46.98863636363636,
                "end_time": 47.15454545454545,
                "pitch": 55,
                "velocity": 101,
                "duration": 0.16590909090908923,
                "tempo": 120.0
            },
            {
                "start_time": 47.12045454545454,
                "end_time": 47.15454545454545,
                "pitch": 67,
                "velocity": 101,
                "duration": 0.03409090909090651,
                "tempo": 120.0
            },
            {
                "start_time": 47.15454545454545,
                "end_time": 47.28636363636363,
                "pitch": 67,
                "velocity": 101,
                "duration": 0.13181818181818272,
                "tempo": 120.0
            },
            {
                "start_time": 47.12045454545454,
                "end_time": 47.28636363636363,
                "pitch": 79,
                "velocity": 101,
                "duration": 0.16590909090908923,
                "tempo": 120.0
            },
            {
                "start_time": 47.15454545454545,
                "end_time": 47.320454545454545,
                "pitch": 55,
                "velocity": 101,
                "duration": 0.16590909090909634,
                "tempo": 120.0
            },
            {
                "start_time": 47.28636363636363,
                "end_time": 47.320454545454545,
                "pitch": 67,
                "velocity": 101,
                "duration": 0.03409090909091361,
                "tempo": 120.0
            },
            {
                "start_time": 47.320454545454545,
                "end_time": 47.45227272727273,
                "pitch": 67,
                "velocity": 101,
                "duration": 0.13181818181818272,
                "tempo": 120.0
            },
            {
                "start_time": 47.28636363636363,
                "end_time": 47.45227272727273,
                "pitch": 79,
                "velocity": 101,
                "duration": 0.16590909090909634,
                "tempo": 120.0
            },
            {
                "start_time": 47.320454545454545,
                "end_time": 47.486363636363635,
                "pitch": 55,
                "velocity": 101,
                "duration": 0.16590909090908923,
                "tempo": 120.0
            },
            {
                "start_time": 47.45227272727273,
                "end_time": 47.486363636363635,
                "pitch": 67,
                "velocity": 101,
                "duration": 0.03409090909090651,
                "tempo": 120.0
            },
            {
                "start_time": 47.486363636363635,
                "end_time": 47.62045454545454,
                "pitch": 67,
                "velocity": 101,
                "duration": 0.13409090909090793,
                "tempo": 120.0
            },
            {
                "start_time": 47.45227272727273,
                "end_time": 47.62045454545454,
                "pitch": 79,
                "velocity": 101,
                "duration": 0.16818181818181444,
                "tempo": 120.0
            },
            {
                "start_time": 47.486363636363635,
                "end_time": 47.652272727272724,
                "pitch": 55,
                "velocity": 101,
                "duration": 0.16590909090908923,
                "tempo": 120.0
            },
            {
                "start_time": 47.62045454545454,
                "end_time": 47.652272727272724,
                "pitch": 67,
                "velocity": 101,
                "duration": 0.0318181818181813,
                "tempo": 120.0
            },
            {
                "start_time": 47.652272727272724,
                "end_time": 47.788636363636364,
                "pitch": 67,
                "velocity": 101,
                "duration": 0.13636363636364024,
                "tempo": 120.0
            },
            {
                "start_time": 47.62045454545454,
                "end_time": 47.788636363636364,
                "pitch": 79,
                "velocity": 101,
                "duration": 0.16818181818182154,
                "tempo": 120.0
            },
            {
                "start_time": 47.652272727272724,
                "end_time": 47.820454545454545,
                "pitch": 55,
                "velocity": 101,
                "duration": 0.16818181818182154,
                "tempo": 120.0
            },
            {
                "start_time": 47.788636363636364,
                "end_time": 47.820454545454545,
                "pitch": 67,
                "velocity": 101,
                "duration": 0.0318181818181813,
                "tempo": 120.0
            },
            {
                "start_time": 47.820454545454545,
                "end_time": 47.95454545454545,
                "pitch": 67,
                "velocity": 101,
                "duration": 0.13409090909090793,
                "tempo": 120.0
            },
            {
                "start_time": 47.788636363636364,
                "end_time": 47.95454545454545,
                "pitch": 79,
                "velocity": 101,
                "duration": 0.16590909090908923,
                "tempo": 120.0
            },
            {
                "start_time": 47.820454545454545,
                "end_time": 47.98863636363636,
                "pitch": 55,
                "velocity": 101,
                "duration": 0.16818181818181444,
                "tempo": 120.0
            },
            {
                "start_time": 47.95454545454545,
                "end_time": 47.98863636363636,
                "pitch": 67,
                "velocity": 101,
                "duration": 0.03409090909090651,
                "tempo": 120.0
            },
            {
                "start_time": 47.98863636363636,
                "end_time": 48.12272727272727,
                "pitch": 67,
                "velocity": 101,
                "duration": 0.13409090909090793,
                "tempo": 120.0
            },
            {
                "start_time": 47.95454545454545,
                "end_time": 48.12272727272727,
                "pitch": 79,
                "velocity": 101,
                "duration": 0.16818181818181444,
                "tempo": 120.0
            },
            {
                "start_time": 47.98863636363636,
                "end_time": 48.15681818181818,
                "pitch": 55,
                "velocity": 101,
                "duration": 0.16818181818182154,
                "tempo": 120.0
            },
            {
                "start_time": 48.12272727272727,
                "end_time": 48.15681818181818,
                "pitch": 67,
                "velocity": 101,
                "duration": 0.03409090909091361,
                "tempo": 120.0
            },
            {
                "start_time": 48.15681818181818,
                "end_time": 48.22272727272727,
                "pitch": 67,
                "velocity": 101,
                "duration": 0.06590909090908781,
                "tempo": 120.0
            },
            {
                "start_time": 48.224999999999994,
                "end_time": 50.902272727272724,
                "pitch": 65,
                "velocity": 101,
                "duration": 2.6772727272727295,
                "tempo": 120.0
            },
            {
                "start_time": 50.90454545454545,
                "end_time": 52.90909090909091,
                "pitch": 64,
                "velocity": 101,
                "duration": 2.0045454545454575,
                "tempo": 120.0
            },
            {
                "start_time": 52.91136363636363,
                "end_time": 53.58181818181818,
                "pitch": 70,
                "velocity": 101,
                "duration": 0.6704545454545467,
                "tempo": 120.0
            },
            {
                "start_time": 53.58181818181818,
                "end_time": 56.25909090909091,
                "pitch": 69,
                "velocity": 101,
                "duration": 2.6772727272727295,
                "tempo": 120.0
            },
            {
                "start_time": 56.26136363636363,
                "end_time": 56.663636363636364,
                "pitch": 67,
                "velocity": 101,
                "duration": 0.4022727272727309,
                "tempo": 120.0
            },
            {
                "start_time": 48.12272727272727,
                "end_time": 56.663636363636364,
                "pitch": 79,
                "velocity": 101,
                "duration": 8.540909090909096,
                "tempo": 120.0
            },
            {
                "start_time": 48.15681818181818,
                "end_time": 56.69772727272727,
                "pitch": 55,
                "velocity": 101,
                "duration": 8.54090909090909,
                "tempo": 120.0
            },
            {
                "start_time": 56.663636363636364,
                "end_time": 56.69772727272727,
                "pitch": 67,
                "velocity": 101,
                "duration": 0.03409090909090651,
                "tempo": 120.0
            },
            {
                "start_time": 56.69772727272727,
                "end_time": 56.83181818181818,
                "pitch": 67,
                "velocity": 101,
                "duration": 0.13409090909090793,
                "tempo": 120.0
            },
            {
                "start_time": 56.663636363636364,
                "end_time": 56.83181818181818,
                "pitch": 79,
                "velocity": 101,
                "duration": 0.16818181818181444,
                "tempo": 120.0
            },
            {
                "start_time": 56.69772727272727,
                "end_time": 56.865909090909085,
                "pitch": 55,
                "velocity": 101,
                "duration": 0.16818181818181444,
                "tempo": 120.0
            },
            {
                "start_time": 56.83181818181818,
                "end_time": 56.865909090909085,
                "pitch": 67,
                "velocity": 101,
                "duration": 0.03409090909090651,
                "tempo": 120.0
            },
            {
                "start_time": 56.865909090909085,
                "end_time": 57.0,
                "pitch": 67,
                "velocity": 101,
                "duration": 0.13409090909091503,
                "tempo": 120.0
            },
            {
                "start_time": 56.83181818181818,
                "end_time": 57.0,
                "pitch": 79,
                "velocity": 101,
                "duration": 0.16818181818182154,
                "tempo": 120.0
            },
            {
                "start_time": 56.865909090909085,
                "end_time": 57.03409090909091,
                "pitch": 55,
                "velocity": 101,
                "duration": 0.16818181818182154,
                "tempo": 120.0
            },
            {
                "start_time": 57.0,
                "end_time": 57.03409090909091,
                "pitch": 67,
                "velocity": 101,
                "duration": 0.03409090909090651,
                "tempo": 120.0
            },
            {
                "start_time": 57.03409090909091,
                "end_time": 57.168181818181814,
                "pitch": 67,
                "velocity": 101,
                "duration": 0.13409090909090793,
                "tempo": 120.0
            },
            {
                "start_time": 57.0,
                "end_time": 57.168181818181814,
                "pitch": 79,
                "velocity": 101,
                "duration": 0.16818181818181444,
                "tempo": 120.0
            },
            {
                "start_time": 57.168181818181814,
                "end_time": 57.199999999999996,
                "pitch": 67,
                "velocity": 101,
                "duration": 0.0318181818181813,
                "tempo": 120.0
            },
            {
                "start_time": 57.03409090909091,
                "end_time": 57.20227272727272,
                "pitch": 55,
                "velocity": 101,
                "duration": 0.16818181818181444,
                "tempo": 120.0
            },
            {
                "start_time": 57.199999999999996,
                "end_time": 57.20227272727272,
                "pitch": 55,
                "velocity": 101,
                "duration": 0.0022727272727252057,
                "tempo": 120.0
            },
            {
                "start_time": 57.20227272727272,
                "end_time": 57.336363636363636,
                "pitch": 67,
                "velocity": 101,
                "duration": 0.13409090909091503,
                "tempo": 120.0
            },
            {
                "start_time": 57.168181818181814,
                "end_time": 57.336363636363636,
                "pitch": 79,
                "velocity": 101,
                "duration": 0.16818181818182154,
                "tempo": 120.0
            },
            {
                "start_time": 57.336363636363636,
                "end_time": 57.36818181818182,
                "pitch": 67,
                "velocity": 101,
                "duration": 0.0318181818181813,
                "tempo": 120.0
            },
            {
                "start_time": 57.36818181818182,
                "end_time": 57.502272727272725,
                "pitch": 67,
                "velocity": 101,
                "duration": 0.13409090909090793,
                "tempo": 120.0
            },
            {
                "start_time": 57.336363636363636,
                "end_time": 57.50454545454545,
                "pitch": 79,
                "velocity": 101,
                "duration": 0.16818181818181444,
                "tempo": 120.0
            },
            {
                "start_time": 57.502272727272725,
                "end_time": 57.50454545454545,
                "pitch": 79,
                "velocity": 101,
                "duration": 0.0022727272727252057,
                "tempo": 120.0
            },
            {
                "start_time": 57.36818181818182,
                "end_time": 57.53636363636363,
                "pitch": 55,
                "velocity": 101,
                "duration": 0.16818181818181444,
                "tempo": 120.0
            },
            {
                "start_time": 57.50454545454545,
                "end_time": 57.53636363636363,
                "pitch": 67,
                "velocity": 101,
                "duration": 0.0318181818181813,
                "tempo": 120.0
            },
            {
                "start_time": 57.53636363636363,
                "end_time": 57.67045454545454,
                "pitch": 67,
                "velocity": 101,
                "duration": 0.13409090909090793,
                "tempo": 120.0
            },
            {
                "start_time": 57.53636363636363,
                "end_time": 57.70454545454545,
                "pitch": 55,
                "velocity": 101,
                "duration": 0.16818181818182154,
                "tempo": 120.0
            },
            {
                "start_time": 57.67045454545454,
                "end_time": 57.70454545454545,
                "pitch": 67,
                "velocity": 101,
                "duration": 0.03409090909091361,
                "tempo": 120.0
            },
            {
                "start_time": 57.70454545454545,
                "end_time": 57.83863636363636,
                "pitch": 67,
                "velocity": 101,
                "duration": 0.13409090909090793,
                "tempo": 120.0
            },
            {
                "start_time": 57.67045454545454,
                "end_time": 57.83863636363636,
                "pitch": 79,
                "velocity": 101,
                "duration": 0.16818181818182154,
                "tempo": 120.0
            },
            {
                "start_time": 57.70454545454545,
                "end_time": 57.87272727272727,
                "pitch": 55,
                "velocity": 101,
                "duration": 0.16818181818181444,
                "tempo": 120.0
            },
            {
                "start_time": 57.83863636363636,
                "end_time": 57.87272727272727,
                "pitch": 67,
                "velocity": 101,
                "duration": 0.03409090909090651,
                "tempo": 120.0
            },
            {
                "start_time": 57.87272727272727,
                "end_time": 58.006818181818176,
                "pitch": 67,
                "velocity": 101,
                "duration": 0.13409090909090793,
                "tempo": 120.0
            },
            {
                "start_time": 57.83863636363636,
                "end_time": 58.006818181818176,
                "pitch": 79,
                "velocity": 101,
                "duration": 0.16818181818181444,
                "tempo": 120.0
            },
            {
                "start_time": 57.87272727272727,
                "end_time": 58.04090909090909,
                "pitch": 55,
                "velocity": 101,
                "duration": 0.16818181818182154,
                "tempo": 120.0
            },
            {
                "start_time": 58.006818181818176,
                "end_time": 58.04090909090909,
                "pitch": 67,
                "velocity": 101,
                "duration": 0.03409090909091361,
                "tempo": 120.0
            },
            {
                "start_time": 58.04090909090909,
                "end_time": 58.175,
                "pitch": 67,
                "velocity": 101,
                "duration": 0.13409090909090793,
                "tempo": 120.0
            },
            {
                "start_time": 58.006818181818176,
                "end_time": 58.175,
                "pitch": 79,
                "velocity": 101,
                "duration": 0.16818181818182154,
                "tempo": 120.0
            },
            {
                "start_time": 58.04090909090909,
                "end_time": 58.209090909090904,
                "pitch": 55,
                "velocity": 101,
                "duration": 0.16818181818181444,
                "tempo": 120.0
            },
            {
                "start_time": 58.175,
                "end_time": 58.209090909090904,
                "pitch": 67,
                "velocity": 101,
                "duration": 0.03409090909090651,
                "tempo": 120.0
            },
            {
                "start_time": 58.209090909090904,
                "end_time": 58.34318181818182,
                "pitch": 67,
                "velocity": 101,
                "duration": 0.13409090909091503,
                "tempo": 120.0
            },
            {
                "start_time": 58.175,
                "end_time": 58.34318181818182,
                "pitch": 79,
                "velocity": 101,
                "duration": 0.16818181818182154,
                "tempo": 120.0
            },
            {
                "start_time": 58.209090909090904,
                "end_time": 58.377272727272725,
                "pitch": 55,
                "velocity": 101,
                "duration": 0.16818181818182154,
                "tempo": 120.0
            },
            {
                "start_time": 58.34318181818182,
                "end_time": 58.377272727272725,
                "pitch": 67,
                "velocity": 101,
                "duration": 0.03409090909090651,
                "tempo": 120.0
            },
            {
                "start_time": 58.377272727272725,
                "end_time": 58.51136363636363,
                "pitch": 67,
                "velocity": 101,
                "duration": 0.13409090909090793,
                "tempo": 120.0
            },
            {
                "start_time": 58.34318181818182,
                "end_time": 58.51136363636363,
                "pitch": 79,
                "velocity": 101,
                "duration": 0.16818181818181444,
                "tempo": 120.0
            },
            {
                "start_time": 58.51136363636363,
                "end_time": 58.543181818181814,
                "pitch": 67,
                "velocity": 101,
                "duration": 0.0318181818181813,
                "tempo": 120.0
            },
            {
                "start_time": 58.377272727272725,
                "end_time": 58.54545454545454,
                "pitch": 55,
                "velocity": 101,
                "duration": 0.16818181818181444,
                "tempo": 120.0
            },
            {
                "start_time": 58.543181818181814,
                "end_time": 58.54545454545454,
                "pitch": 55,
                "velocity": 101,
                "duration": 0.0022727272727252057,
                "tempo": 120.0
            },
            {
                "start_time": 58.54545454545454,
                "end_time": 58.679545454545455,
                "pitch": 67,
                "velocity": 101,
                "duration": 0.13409090909091503,
                "tempo": 120.0
            },
            {
                "start_time": 58.51136363636363,
                "end_time": 58.679545454545455,
                "pitch": 79,
                "velocity": 101,
                "duration": 0.16818181818182154,
                "tempo": 120.0
            },
            {
                "start_time": 58.679545454545455,
                "end_time": 58.711363636363636,
                "pitch": 67,
                "velocity": 101,
                "duration": 0.0318181818181813,
                "tempo": 120.0
            },
            {
                "start_time": 58.711363636363636,
                "end_time": 58.845454545454544,
                "pitch": 67,
                "velocity": 101,
                "duration": 0.13409090909090793,
                "tempo": 120.0
            },
            {
                "start_time": 58.679545454545455,
                "end_time": 58.84772727272727,
                "pitch": 79,
                "velocity": 101,
                "duration": 0.16818181818181444,
                "tempo": 120.0
            },
            {
                "start_time": 58.845454545454544,
                "end_time": 58.84772727272727,
                "pitch": 79,
                "velocity": 101,
                "duration": 0.0022727272727252057,
                "tempo": 120.0
            },
            {
                "start_time": 58.711363636363636,
                "end_time": 58.87954545454545,
                "pitch": 55,
                "velocity": 101,
                "duration": 0.16818181818181444,
                "tempo": 120.0
            },
            {
                "start_time": 58.84772727272727,
                "end_time": 58.87954545454545,
                "pitch": 67,
                "velocity": 101,
                "duration": 0.0318181818181813,
                "tempo": 120.0
            },
            {
                "start_time": 58.87954545454545,
                "end_time": 58.945454545454545,
                "pitch": 67,
                "velocity": 101,
                "duration": 0.06590909090909491,
                "tempo": 120.0
            },
            {
                "start_time": 58.94772727272727,
                "end_time": 61.61818181818182,
                "pitch": 65,
                "velocity": 101,
                "duration": 2.6704545454545467,
                "tempo": 120.0
            },
            {
                "start_time": 61.61818181818182,
                "end_time": 62.288636363636364,
                "pitch": 64,
                "velocity": 101,
                "duration": 0.6704545454545467,
                "tempo": 120.0
            },
            {
                "start_time": 62.29090909090909,
                "end_time": 62.961363636363636,
                "pitch": 65,
                "velocity": 101,
                "duration": 0.6704545454545467,
                "tempo": 120.0
            },
            {
                "start_time": 62.961363636363636,
                "end_time": 64.29772727272727,
                "pitch": 64,
                "velocity": 101,
                "duration": 1.336363636363636,
                "tempo": 120.0
            },
            {
                "start_time": 64.29772727272727,
                "end_time": 64.62954545454545,
                "pitch": 74,
                "velocity": 101,
                "duration": 0.33181818181817846,
                "tempo": 120.0
            },
            {
                "start_time": 64.62954545454545,
                "end_time": 64.96136363636363,
                "pitch": 76,
                "velocity": 101,
                "duration": 0.33181818181817846,
                "tempo": 120.0
            },
            {
                "start_time": 64.96136363636363,
                "end_time": 65.29772727272727,
                "pitch": 77,
                "velocity": 101,
                "duration": 0.3363636363636431,
                "tempo": 120.0
            },
            {
                "start_time": 65.29772727272727,
                "end_time": 65.63181818181818,
                "pitch": 81,
                "velocity": 101,
                "duration": 0.33409090909090366,
                "tempo": 120.0
            },
            {
                "start_time": 65.6340909090909,
                "end_time": 65.96818181818182,
                "pitch": 76,
                "velocity": 101,
                "duration": 0.3340909090909179,
                "tempo": 120.0
            },
            {
                "start_time": 65.96818181818182,
                "end_time": 66.30454545454545,
                "pitch": 77,
                "velocity": 101,
                "duration": 0.33636363636362887,
                "tempo": 120.0
            },
            {
                "start_time": 66.30454545454545,
                "end_time": 66.64090909090909,
                "pitch": 74,
                "velocity": 101,
                "duration": 0.3363636363636431,
                "tempo": 120.0
            },
            {
                "start_time": 66.64090909090909,
                "end_time": 66.975,
                "pitch": 76,
                "velocity": 101,
                "duration": 0.33409090909090366,
                "tempo": 120.0
            },
            {
                "start_time": 66.97727272727272,
                "end_time": 67.31136363636364,
                "pitch": 74,
                "velocity": 101,
                "duration": 0.3340909090909179,
                "tempo": 120.0
            },
            {
                "start_time": 67.31136363636364,
                "end_time": 67.64772727272727,
                "pitch": 77,
                "velocity": 101,
                "duration": 0.33636363636362887,
                "tempo": 120.0
            },
            {
                "start_time": 67.64772727272727,
                "end_time": 67.97954545454544,
                "pitch": 76,
                "velocity": 101,
                "duration": 0.33181818181817846,
                "tempo": 120.0
            },
            {
                "start_time": 67.97954545454544,
                "end_time": 68.31136363636364,
                "pitch": 72,
                "velocity": 101,
                "duration": 0.33181818181819267,
                "tempo": 120.0
            },
            {
                "start_time": 68.31136363636364,
                "end_time": 68.64772727272727,
                "pitch": 74,
                "velocity": 101,
                "duration": 0.33636363636362887,
                "tempo": 120.0
            },
            {
                "start_time": 68.64772727272727,
                "end_time": 68.98181818181818,
                "pitch": 71,
                "velocity": 101,
                "duration": 0.3340909090909179,
                "tempo": 120.0
            },
            {
                "start_time": 68.98409090909091,
                "end_time": 69.31818181818181,
                "pitch": 72,
                "velocity": 101,
                "duration": 0.33409090909090366,
                "tempo": 120.0
            },
            {
                "start_time": 69.32045454545454,
                "end_time": 69.65454545454546,
                "pitch": 69,
                "velocity": 101,
                "duration": 0.3340909090909179,
                "tempo": 120.0
            },
            {
                "start_time": 69.65454545454546,
                "end_time": 69.99090909090908,
                "pitch": 74,
                "velocity": 101,
                "duration": 0.33636363636362887,
                "tempo": 120.0
            },
            {
                "start_time": 69.99090909090908,
                "end_time": 70.325,
                "pitch": 76,
                "velocity": 101,
                "duration": 0.3340909090909179,
                "tempo": 120.0
            },
            {
                "start_time": 70.32727272727273,
                "end_time": 70.6590909090909,
                "pitch": 77,
                "velocity": 101,
                "duration": 0.33181818181817846,
                "tempo": 120.0
            },
            {
                "start_time": 70.6590909090909,
                "end_time": 70.99090909090908,
                "pitch": 81,
                "velocity": 101,
                "duration": 0.33181818181817846,
                "tempo": 120.0
            },
            {
                "start_time": 70.99090909090908,
                "end_time": 71.325,
                "pitch": 76,
                "velocity": 101,
                "duration": 0.3340909090909179,
                "tempo": 120.0
            },
            {
                "start_time": 71.32727272727273,
                "end_time": 71.66136363636363,
                "pitch": 77,
                "velocity": 101,
                "duration": 0.33409090909090366,
                "tempo": 120.0
            },
            {
                "start_time": 71.66363636363636,
                "end_time": 71.99772727272727,
                "pitch": 74,
                "velocity": 101,
                "duration": 0.3340909090909179,
                "tempo": 120.0
            },
            {
                "start_time": 71.99772727272727,
                "end_time": 72.3340909090909,
                "pitch": 76,
                "velocity": 101,
                "duration": 0.33636363636362887,
                "tempo": 120.0
            },
            {
                "start_time": 72.3340909090909,
                "end_time": 72.66818181818182,
                "pitch": 74,
                "velocity": 101,
                "duration": 0.3340909090909179,
                "tempo": 120.0
            },
            {
                "start_time": 72.67045454545455,
                "end_time": 73.00454545454545,
                "pitch": 77,
                "velocity": 101,
                "duration": 0.33409090909090366,
                "tempo": 120.0
            },
            {
                "start_time": 73.00681818181818,
                "end_time": 73.33636363636363,
                "pitch": 76,
                "velocity": 101,
                "duration": 0.32954545454545325,
                "tempo": 120.0
            },
            {
                "start_time": 73.33863636363635,
                "end_time": 73.66818181818182,
                "pitch": 72,
                "velocity": 101,
                "duration": 0.32954545454546746,
                "tempo": 120.0
            },
            {
                "start_time": 73.67045454545455,
                "end_time": 75.01136363636363,
                "pitch": 74,
                "velocity": 101,
                "duration": 1.3409090909090793,
                "tempo": 120.0
            },
            {
                "start_time": 75.01818181818182,
                "end_time": 75.17954545454545,
                "pitch": 74,
                "velocity": 101,
                "duration": 0.1613636363636317,
                "tempo": 120.0
            }
        ],
        "Acoustic Bass": [
            {
                "start_time": 10.71590909090909,
                "end_time": 11.384090909090908,
                "pitch": 45,
                "velocity": 80,
                "duration": 0.668181818181818,
                "tempo": 120.0
            },
            {
                "start_time": 11.386363636363637,
                "end_time": 12.056818181818182,
                "pitch": 45,
                "velocity": 80,
                "duration": 0.670454545454545,
                "tempo": 120.0
            },
            {
                "start_time": 12.056818181818182,
                "end_time": 12.727272727272727,
                "pitch": 45,
                "velocity": 80,
                "duration": 0.670454545454545,
                "tempo": 120.0
            },
            {
                "start_time": 12.729545454545454,
                "end_time": 13.399999999999999,
                "pitch": 45,
                "velocity": 80,
                "duration": 0.670454545454545,
                "tempo": 120.0
            },
            {
                "start_time": 13.399999999999999,
                "end_time": 14.063636363636363,
                "pitch": 45,
                "velocity": 80,
                "duration": 0.663636363636364,
                "tempo": 120.0
            },
            {
                "start_time": 14.063636363636363,
                "end_time": 14.734090909090908,
                "pitch": 45,
                "velocity": 80,
                "duration": 0.670454545454545,
                "tempo": 120.0
            },
            {
                "start_time": 14.736363636363636,
                "end_time": 15.406818181818181,
                "pitch": 45,
                "velocity": 80,
                "duration": 0.670454545454545,
                "tempo": 120.0
            },
            {
                "start_time": 15.406818181818181,
                "end_time": 16.077272727272728,
                "pitch": 45,
                "velocity": 80,
                "duration": 0.6704545454545467,
                "tempo": 120.0
            },
            {
                "start_time": 16.079545454545453,
                "end_time": 16.743181818181817,
                "pitch": 45,
                "velocity": 80,
                "duration": 0.663636363636364,
                "tempo": 120.0
            },
            {
                "start_time": 16.743181818181817,
                "end_time": 17.413636363636364,
                "pitch": 45,
                "velocity": 80,
                "duration": 0.6704545454545467,
                "tempo": 120.0
            },
            {
                "start_time": 17.41590909090909,
                "end_time": 18.086363636363636,
                "pitch": 45,
                "velocity": 80,
                "duration": 0.6704545454545467,
                "tempo": 120.0
            },
            {
                "start_time": 18.086363636363636,
                "end_time": 18.75681818181818,
                "pitch": 45,
                "velocity": 80,
                "duration": 0.6704545454545432,
                "tempo": 120.0
            },
            {
                "start_time": 18.759090909090908,
                "end_time": 19.420454545454543,
                "pitch": 45,
                "velocity": 80,
                "duration": 0.6613636363636353,
                "tempo": 120.0
            },
            {
                "start_time": 19.422727272727272,
                "end_time": 20.09318181818182,
                "pitch": 45,
                "velocity": 80,
                "duration": 0.6704545454545467,
                "tempo": 120.0
            },
            {
                "start_time": 20.09318181818182,
                "end_time": 20.763636363636362,
                "pitch": 45,
                "velocity": 80,
                "duration": 0.6704545454545432,
                "tempo": 120.0
            },
            {
                "start_time": 20.763636363636362,
                "end_time": 21.436363636363634,
                "pitch": 45,
                "velocity": 80,
                "duration": 0.672727272727272,
                "tempo": 120.0
            },
            {
                "start_time": 21.438636363636363,
                "end_time": 21.772727272727273,
                "pitch": 45,
                "velocity": 80,
                "duration": 0.33409090909091077,
                "tempo": 120.0
            },
            {
                "start_time": 21.772727272727273,
                "end_time": 21.938636363636363,
                "pitch": 50,
                "velocity": 80,
                "duration": 0.16590909090908923,
                "tempo": 120.0
            },
            {
                "start_time": 21.94090909090909,
                "end_time": 22.10909090909091,
                "pitch": 45,
                "velocity": 80,
                "duration": 0.168181818181818,
                "tempo": 120.0
            },
            {
                "start_time": 22.10909090909091,
                "end_time": 22.443181818181817,
                "pitch": 45,
                "velocity": 80,
                "duration": 0.3340909090909072,
                "tempo": 120.0
            },
            {
                "start_time": 22.443181818181817,
                "end_time": 22.611363636363635,
                "pitch": 52,
                "velocity": 80,
                "duration": 0.168181818181818,
                "tempo": 120.0
            },
            {
                "start_time": 22.611363636363635,
                "end_time": 22.779545454545453,
                "pitch": 45,
                "velocity": 80,
                "duration": 0.168181818181818,
                "tempo": 120.0
            },
            {
                "start_time": 22.779545454545453,
                "end_time": 23.111363636363635,
                "pitch": 45,
                "velocity": 80,
                "duration": 0.331818181818182,
                "tempo": 120.0
            },
            {
                "start_time": 23.111363636363635,
                "end_time": 23.443181818181817,
                "pitch": 53,
                "velocity": 80,
                "duration": 0.331818181818182,
                "tempo": 120.0
            },
            {
                "start_time": 23.445454545454545,
                "end_time": 23.779545454545453,
                "pitch": 52,
                "velocity": 80,
                "duration": 0.3340909090909072,
                "tempo": 120.0
            },
            {
                "start_time": 23.779545454545453,
                "end_time": 24.11590909090909,
                "pitch": 50,
                "velocity": 80,
                "duration": 0.336363636363636,
                "tempo": 120.0
            },
            {
                "start_time": 24.11590909090909,
                "end_time": 24.45,
                "pitch": 43,
                "velocity": 80,
                "duration": 0.33409090909091077,
                "tempo": 120.0
            },
            {
                "start_time": 24.452272727272724,
                "end_time": 24.618181818181817,
                "pitch": 48,
                "velocity": 80,
                "duration": 0.16590909090909278,
                "tempo": 120.0
            },
            {
                "start_time": 24.620454545454542,
                "end_time": 24.786363636363635,
                "pitch": 43,
                "velocity": 80,
                "duration": 0.16590909090909278,
                "tempo": 120.0
            },
            {
                "start_time": 24.788636363636364,
                "end_time": 25.12272727272727,
                "pitch": 43,
                "velocity": 80,
                "duration": 0.3340909090909072,
                "tempo": 120.0
            },
            {
                "start_time": 25.12272727272727,
                "end_time": 25.29090909090909,
                "pitch": 52,
                "velocity": 80,
                "duration": 0.168181818181818,
                "tempo": 120.0
            },
            {
                "start_time": 25.29090909090909,
                "end_time": 25.459090909090907,
                "pitch": 43,
                "velocity": 80,
                "duration": 0.168181818181818,
                "tempo": 120.0
            },
            {
                "start_time": 25.459090909090907,
                "end_time": 25.79090909090909,
                "pitch": 43,
                "velocity": 80,
                "duration": 0.331818181818182,
                "tempo": 120.0
            },
            {
                "start_time": 25.79090909090909,
                "end_time": 26.12272727272727,
                "pitch": 52,
                "velocity": 80,
                "duration": 0.331818181818182,
                "tempo": 120.0
            },
            {
                "start_time": 26.12272727272727,
                "end_time": 26.459090909090907,
                "pitch": 50,
                "velocity": 80,
                "duration": 0.336363636363636,
                "tempo": 120.0
            },
            {
                "start_time": 26.459090909090907,
                "end_time": 26.795454545454543,
                "pitch": 48,
                "velocity": 80,
                "duration": 0.336363636363636,
                "tempo": 120.0
            },
            {
                "start_time": 26.795454545454543,
                "end_time": 27.129545454545454,
                "pitch": 46,
                "velocity": 80,
                "duration": 0.33409090909091077,
                "tempo": 120.0
            },
            {
                "start_time": 27.129545454545454,
                "end_time": 27.297727272727272,
                "pitch": 50,
                "velocity": 80,
                "duration": 0.168181818181818,
                "tempo": 120.0
            },
            {
                "start_time": 27.297727272727272,
                "end_time": 27.46590909090909,
                "pitch": 46,
                "velocity": 80,
                "duration": 0.168181818181818,
                "tempo": 120.0
            },
            {
                "start_time": 27.46590909090909,
                "end_time": 27.802272727272726,
                "pitch": 46,
                "velocity": 80,
                "duration": 0.336363636363636,
                "tempo": 120.0
            },
            {
                "start_time": 27.802272727272726,
                "end_time": 27.968181818181815,
                "pitch": 53,
                "velocity": 80,
                "duration": 0.16590909090908923,
                "tempo": 120.0
            },
            {
                "start_time": 27.970454545454544,
                "end_time": 28.138636363636362,
                "pitch": 46,
                "velocity": 80,
                "duration": 0.168181818181818,
                "tempo": 120.0
            },
            {
                "start_time": 28.138636363636362,
                "end_time": 28.468181818181815,
                "pitch": 46,
                "velocity": 80,
                "duration": 0.32954545454545325,
                "tempo": 120.0
            },
            {
                "start_time": 28.470454545454544,
                "end_time": 28.802272727272726,
                "pitch": 53,
                "velocity": 80,
                "duration": 0.331818181818182,
                "tempo": 120.0
            },
            {
                "start_time": 28.802272727272726,
                "end_time": 29.136363636363637,
                "pitch": 52,
                "velocity": 80,
                "duration": 0.33409090909091077,
                "tempo": 120.0
            },
            {
                "start_time": 29.138636363636362,
                "end_time": 29.472727272727273,
                "pitch": 50,
                "velocity": 80,
                "duration": 0.33409090909091077,
                "tempo": 120.0
            },
            {
                "start_time": 29.474999999999998,
                "end_time": 29.80909090909091,
                "pitch": 45,
                "velocity": 80,
                "duration": 0.33409090909091077,
                "tempo": 120.0
            },
            {
                "start_time": 29.80909090909091,
                "end_time": 29.977272727272727,
                "pitch": 50,
                "velocity": 80,
                "duration": 0.168181818181818,
                "tempo": 120.0
            },
            {
                "start_time": 29.977272727272727,
                "end_time": 30.145454545454545,
                "pitch": 45,
                "velocity": 80,
                "duration": 0.168181818181818,
                "tempo": 120.0
            },
            {
                "start_time": 30.145454545454545,
                "end_time": 30.479545454545452,
                "pitch": 45,
                "velocity": 80,
                "duration": 0.3340909090909072,
                "tempo": 120.0
            },
            {
                "start_time": 30.48181818181818,
                "end_time": 30.64772727272727,
                "pitch": 52,
                "velocity": 80,
                "duration": 0.16590909090908923,
                "tempo": 120.0
            },
            {
                "start_time": 30.65,
                "end_time": 30.815909090909088,
                "pitch": 45,
                "velocity": 80,
                "duration": 0.16590909090908923,
                "tempo": 120.0
            },
            {
                "start_time": 30.818181818181817,
                "end_time": 31.14772727272727,
                "pitch": 45,
                "velocity": 80,
                "duration": 0.32954545454545325,
                "tempo": 120.0
            },
            {
                "start_time": 31.15,
                "end_time": 31.313636363636363,
                "pitch": 53,
                "velocity": 80,
                "duration": 0.16363636363636402,
                "tempo": 120.0
            },
            {
                "start_time": 31.315909090909088,
                "end_time": 31.479545454545452,
                "pitch": 45,
                "velocity": 80,
                "duration": 0.16363636363636402,
                "tempo": 120.0
            },
            {
                "start_time": 31.48181818181818,
                "end_time": 31.64772727272727,
                "pitch": 52,
                "velocity": 80,
                "duration": 0.16590909090908923,
                "tempo": 120.0
            },
            {
                "start_time": 31.65,
                "end_time": 31.815909090909088,
                "pitch": 45,
                "velocity": 80,
                "duration": 0.16590909090908923,
                "tempo": 120.0
            },
            {
                "start_time": 31.815909090909088,
                "end_time": 31.984090909090906,
                "pitch": 53,
                "velocity": 80,
                "duration": 0.168181818181818,
                "tempo": 120.0
            },
            {
                "start_time": 31.984090909090906,
                "end_time": 32.152272727272724,
                "pitch": 45,
                "velocity": 80,
                "duration": 0.168181818181818,
                "tempo": 120.0
            },
            {
                "start_time": 32.152272727272724,
                "end_time": 32.486363636363635,
                "pitch": 45,
                "velocity": 80,
                "duration": 0.33409090909091077,
                "tempo": 120.0
            },
            {
                "start_time": 32.48863636363636,
                "end_time": 32.654545454545456,
                "pitch": 50,
                "velocity": 80,
                "duration": 0.16590909090909634,
                "tempo": 120.0
            },
            {
                "start_time": 32.65681818181818,
                "end_time": 32.82272727272727,
                "pitch": 45,
                "velocity": 80,
                "duration": 0.16590909090908923,
                "tempo": 120.0
            },
            {
                "start_time": 32.824999999999996,
                "end_time": 33.15909090909091,
                "pitch": 45,
                "velocity": 80,
                "duration": 0.33409090909091077,
                "tempo": 120.0
            },
            {
                "start_time": 33.15909090909091,
                "end_time": 33.32727272727273,
                "pitch": 52,
                "velocity": 80,
                "duration": 0.16818181818182154,
                "tempo": 120.0
            },
            {
                "start_time": 33.32727272727273,
                "end_time": 33.49545454545454,
                "pitch": 45,
                "velocity": 80,
                "duration": 0.16818181818181444,
                "tempo": 120.0
            },
            {
                "start_time": 33.49545454545454,
                "end_time": 33.82727272727273,
                "pitch": 45,
                "velocity": 80,
                "duration": 0.33181818181818556,
                "tempo": 120.0
            },
            {
                "start_time": 33.82727272727273,
                "end_time": 34.15909090909091,
                "pitch": 53,
                "velocity": 80,
                "duration": 0.33181818181817846,
                "tempo": 120.0
            },
            {
                "start_time": 34.16136363636363,
                "end_time": 34.49545454545454,
                "pitch": 52,
                "velocity": 80,
                "duration": 0.33409090909091077,
                "tempo": 120.0
            },
            {
                "start_time": 34.49545454545454,
                "end_time": 34.83181818181818,
                "pitch": 50,
                "velocity": 80,
                "duration": 0.336363636363636,
                "tempo": 120.0
            },
            {
                "start_time": 34.83181818181818,
                "end_time": 35.16590909090909,
                "pitch": 43,
                "velocity": 80,
                "duration": 0.33409090909091077,
                "tempo": 120.0
            },
            {
                "start_time": 35.168181818181814,
                "end_time": 35.33409090909091,
                "pitch": 48,
                "velocity": 80,
                "duration": 0.16590909090909634,
                "tempo": 120.0
            },
            {
                "start_time": 35.33409090909091,
                "end_time": 35.502272727272725,
                "pitch": 43,
                "velocity": 80,
                "duration": 0.16818181818181444,
                "tempo": 120.0
            },
            {
                "start_time": 35.50454545454545,
                "end_time": 35.83863636363636,
                "pitch": 43,
                "velocity": 80,
                "duration": 0.33409090909091077,
                "tempo": 120.0
            },
            {
                "start_time": 35.83863636363636,
                "end_time": 36.00681818181818,
                "pitch": 52,
                "velocity": 80,
                "duration": 0.16818181818182154,
                "tempo": 120.0
            },
            {
                "start_time": 36.00681818181818,
                "end_time": 36.175,
                "pitch": 43,
                "velocity": 80,
                "duration": 0.16818181818181444,
                "tempo": 120.0
            },
            {
                "start_time": 36.175,
                "end_time": 36.50681818181818,
                "pitch": 43,
                "velocity": 80,
                "duration": 0.33181818181818556,
                "tempo": 120.0
            },
            {
                "start_time": 36.50681818181818,
                "end_time": 36.83863636363636,
                "pitch": 52,
                "velocity": 80,
                "duration": 0.33181818181817846,
                "tempo": 120.0
            },
            {
                "start_time": 36.83863636363636,
                "end_time": 37.17272727272727,
                "pitch": 50,
                "velocity": 80,
                "duration": 0.33409090909091077,
                "tempo": 120.0
            },
            {
                "start_time": 37.175,
                "end_time": 37.50909090909091,
                "pitch": 48,
                "velocity": 80,
                "duration": 0.33409090909091077,
                "tempo": 120.0
            },
            {
                "start_time": 37.51136363636363,
                "end_time": 37.845454545454544,
                "pitch": 46,
                "velocity": 80,
                "duration": 0.33409090909091077,
                "tempo": 120.0
            },
            {
                "start_time": 37.845454545454544,
                "end_time": 38.01363636363636,
                "pitch": 50,
                "velocity": 80,
                "duration": 0.16818181818181444,
                "tempo": 120.0
            },
            {
                "start_time": 38.01363636363636,
                "end_time": 38.18181818181818,
                "pitch": 46,
                "velocity": 80,
                "duration": 0.16818181818182154,
                "tempo": 120.0
            },
            {
                "start_time": 38.18181818181818,
                "end_time": 38.51590909090909,
                "pitch": 46,
                "velocity": 80,
                "duration": 0.33409090909091077,
                "tempo": 120.0
            },
            {
                "start_time": 38.518181818181816,
                "end_time": 38.684090909090905,
                "pitch": 53,
                "velocity": 80,
                "duration": 0.16590909090908923,
                "tempo": 120.0
            },
            {
                "start_time": 38.68636363636364,
                "end_time": 38.85454545454545,
                "pitch": 46,
                "velocity": 80,
                "duration": 0.16818181818181444,
                "tempo": 120.0
            },
            {
                "start_time": 38.85454545454545,
                "end_time": 39.184090909090905,
                "pitch": 46,
                "velocity": 80,
                "duration": 0.32954545454545325,
                "tempo": 120.0
            },
            {
                "start_time": 39.18636363636364,
                "end_time": 39.518181818181816,
                "pitch": 53,
                "velocity": 80,
                "duration": 0.33181818181817846,
                "tempo": 120.0
            },
            {
                "start_time": 39.518181818181816,
                "end_time": 39.85227272727273,
                "pitch": 52,
                "velocity": 80,
                "duration": 0.33409090909091077,
                "tempo": 120.0
            },
            {
                "start_time": 39.85454545454545,
                "end_time": 40.18863636363636,
                "pitch": 50,
                "velocity": 80,
                "duration": 0.33409090909091077,
                "tempo": 120.0
            },
            {
                "start_time": 40.19090909090909,
                "end_time": 40.525,
                "pitch": 45,
                "velocity": 80,
                "duration": 0.33409090909091077,
                "tempo": 120.0
            },
            {
                "start_time": 40.525,
                "end_time": 40.69318181818181,
                "pitch": 50,
                "velocity": 80,
                "duration": 0.16818181818181444,
                "tempo": 120.0
            },
            {
                "start_time": 40.69318181818181,
                "end_time": 40.861363636363635,
                "pitch": 45,
                "velocity": 80,
                "duration": 0.16818181818182154,
                "tempo": 120.0
            },
            {
                "start_time": 40.861363636363635,
                "end_time": 41.195454545454545,
                "pitch": 45,
                "velocity": 80,
                "duration": 0.33409090909091077,
                "tempo": 120.0
            },
            {
                "start_time": 41.19772727272727,
                "end_time": 41.36363636363636,
                "pitch": 52,
                "velocity": 80,
                "duration": 0.16590909090908923,
                "tempo": 120.0
            },
            {
                "start_time": 41.36363636363636,
                "end_time": 41.53181818181818,
                "pitch": 45,
                "velocity": 80,
                "duration": 0.16818181818182154,
                "tempo": 120.0
            },
            {
                "start_time": 41.53409090909091,
                "end_time": 41.86363636363636,
                "pitch": 45,
                "velocity": 80,
                "duration": 0.32954545454545325,
                "tempo": 120.0
            },
            {
                "start_time": 41.86363636363636,
                "end_time": 42.02954545454545,
                "pitch": 50,
                "velocity": 80,
                "duration": 0.16590909090908923,
                "tempo": 120.0
            },
            {
                "start_time": 42.03181818181818,
                "end_time": 42.195454545454545,
                "pitch": 45,
                "velocity": 80,
                "duration": 0.16363636363636402,
                "tempo": 120.0
            },
            {
                "start_time": 42.195454545454545,
                "end_time": 42.36363636363636,
                "pitch": 52,
                "velocity": 80,
                "duration": 0.16818181818181444,
                "tempo": 120.0
            },
            {
                "start_time": 42.36363636363636,
                "end_time": 42.53181818181818,
                "pitch": 45,
                "velocity": 80,
                "duration": 0.16818181818182154,
                "tempo": 120.0
            },
            {
                "start_time": 42.53181818181818,
                "end_time": 42.699999999999996,
                "pitch": 53,
                "velocity": 80,
                "duration": 0.16818181818181444,
                "tempo": 120.0
            },
            {
                "start_time": 42.699999999999996,
                "end_time": 42.86818181818182,
                "pitch": 45,
                "velocity": 80,
                "duration": 0.16818181818182154,
                "tempo": 120.0
            },
            {
                "start_time": 42.87045454545454,
                "end_time": 43.199999999999996,
                "pitch": 45,
                "velocity": 80,
                "duration": 0.32954545454545325,
                "tempo": 120.0
            },
            {
                "start_time": 43.199999999999996,
                "end_time": 43.36363636363636,
                "pitch": 50,
                "velocity": 80,
                "duration": 0.16363636363636402,
                "tempo": 120.0
            },
            {
                "start_time": 43.36590909090909,
                "end_time": 43.53181818181818,
                "pitch": 45,
                "velocity": 80,
                "duration": 0.16590909090908923,
                "tempo": 120.0
            },
            {
                "start_time": 43.53181818181818,
                "end_time": 43.86590909090909,
                "pitch": 45,
                "velocity": 80,
                "duration": 0.33409090909091077,
                "tempo": 120.0
            },
            {
                "start_time": 43.86818181818182,
                "end_time": 44.03409090909091,
                "pitch": 52,
                "velocity": 80,
                "duration": 0.16590909090908923,
                "tempo": 120.0
            },
            {
                "start_time": 44.03636363636363,
                "end_time": 44.20227272727273,
                "pitch": 45,
                "velocity": 80,
                "duration": 0.16590909090909634,
                "tempo": 120.0
            },
            {
                "start_time": 44.20454545454545,
                "end_time": 44.538636363636364,
                "pitch": 45,
                "velocity": 80,
                "duration": 0.33409090909091077,
                "tempo": 120.0
            },
            {
                "start_time": 44.538636363636364,
                "end_time": 44.875,
                "pitch": 53,
                "velocity": 80,
                "duration": 0.336363636363636,
                "tempo": 120.0
            },
            {
                "start_time": 44.875,
                "end_time": 45.211363636363636,
                "pitch": 52,
                "velocity": 80,
                "duration": 0.336363636363636,
                "tempo": 120.0
            },
            {
                "start_time": 45.211363636363636,
                "end_time": 45.54772727272727,
                "pitch": 50,
                "velocity": 80,
                "duration": 0.336363636363636,
                "tempo": 120.0
            },
            {
                "start_time": 45.54772727272727,
                "end_time": 45.88181818181818,
                "pitch": 43,
                "velocity": 80,
                "duration": 0.33409090909091077,
                "tempo": 120.0
            },
            {
                "start_time": 45.88181818181818,
                "end_time": 46.05,
                "pitch": 48,
                "velocity": 80,
                "duration": 0.16818181818181444,
                "tempo": 120.0
            },
            {
                "start_time": 46.05,
                "end_time": 46.21818181818182,
                "pitch": 43,
                "velocity": 80,
                "duration": 0.16818181818182154,
                "tempo": 120.0
            },
            {
                "start_time": 46.21818181818182,
                "end_time": 46.55227272727272,
                "pitch": 43,
                "velocity": 80,
                "duration": 0.33409090909090366,
                "tempo": 120.0
            },
            {
                "start_time": 46.554545454545455,
                "end_time": 46.720454545454544,
                "pitch": 52,
                "velocity": 80,
                "duration": 0.16590909090908923,
                "tempo": 120.0
            },
            {
                "start_time": 46.72272727272727,
                "end_time": 46.88863636363636,
                "pitch": 43,
                "velocity": 80,
                "duration": 0.16590909090908923,
                "tempo": 120.0
            },
            {
                "start_time": 46.89090909090909,
                "end_time": 47.220454545454544,
                "pitch": 43,
                "velocity": 80,
                "duration": 0.32954545454545325,
                "tempo": 120.0
            },
            {
                "start_time": 47.22272727272727,
                "end_time": 47.554545454545455,
                "pitch": 52,
                "velocity": 80,
                "duration": 0.33181818181818556,
                "tempo": 120.0
            },
            {
                "start_time": 47.554545454545455,
                "end_time": 47.88863636363636,
                "pitch": 50,
                "velocity": 80,
                "duration": 0.33409090909090366,
                "tempo": 120.0
            },
            {
                "start_time": 47.89090909090909,
                "end_time": 48.224999999999994,
                "pitch": 48,
                "velocity": 80,
                "duration": 0.33409090909090366,
                "tempo": 120.0
            },
            {
                "start_time": 48.22727272727273,
                "end_time": 48.56136363636364,
                "pitch": 46,
                "velocity": 80,
                "duration": 0.33409090909091077,
                "tempo": 120.0
            },
            {
                "start_time": 48.56136363636364,
                "end_time": 48.72727272727273,
                "pitch": 50,
                "velocity": 80,
                "duration": 0.16590909090908923,
                "tempo": 120.0
            },
            {
                "start_time": 48.72954545454545,
                "end_time": 48.89772727272727,
                "pitch": 46,
                "velocity": 80,
                "duration": 0.16818181818182154,
                "tempo": 120.0
            },
            {
                "start_time": 48.89772727272727,
                "end_time": 49.23181818181818,
                "pitch": 46,
                "velocity": 80,
                "duration": 0.33409090909090366,
                "tempo": 120.0
            },
            {
                "start_time": 49.23181818181818,
                "end_time": 49.4,
                "pitch": 53,
                "velocity": 80,
                "duration": 0.16818181818182154,
                "tempo": 120.0
            },
            {
                "start_time": 49.4,
                "end_time": 49.56818181818181,
                "pitch": 46,
                "velocity": 80,
                "duration": 0.16818181818181444,
                "tempo": 120.0
            },
            {
                "start_time": 49.56818181818181,
                "end_time": 49.9,
                "pitch": 46,
                "velocity": 80,
                "duration": 0.33181818181818556,
                "tempo": 120.0
            },
            {
                "start_time": 49.902272727272724,
                "end_time": 50.23181818181818,
                "pitch": 53,
                "velocity": 80,
                "duration": 0.32954545454545325,
                "tempo": 120.0
            },
            {
                "start_time": 50.23409090909091,
                "end_time": 50.56818181818181,
                "pitch": 52,
                "velocity": 80,
                "duration": 0.33409090909090366,
                "tempo": 120.0
            },
            {
                "start_time": 50.56818181818181,
                "end_time": 50.90454545454545,
                "pitch": 50,
                "velocity": 80,
                "duration": 0.336363636363636,
                "tempo": 120.0
            },
            {
                "start_time": 50.90681818181818,
                "end_time": 51.23863636363636,
                "pitch": 45,
                "velocity": 80,
                "duration": 0.33181818181817846,
                "tempo": 120.0
            },
            {
                "start_time": 51.240909090909085,
                "end_time": 51.40681818181818,
                "pitch": 50,
                "velocity": 80,
                "duration": 0.16590909090909634,
                "tempo": 120.0
            },
            {
                "start_time": 51.40681818181818,
                "end_time": 51.574999999999996,
                "pitch": 45,
                "velocity": 80,
                "duration": 0.16818181818181444,
                "tempo": 120.0
            },
            {
                "start_time": 51.57727272727273,
                "end_time": 51.90681818181818,
                "pitch": 45,
                "velocity": 80,
                "duration": 0.32954545454545325,
                "tempo": 120.0
            },
            {
                "start_time": 51.90681818181818,
                "end_time": 52.07272727272727,
                "pitch": 52,
                "velocity": 80,
                "duration": 0.16590909090908923,
                "tempo": 120.0
            },
            {
                "start_time": 52.074999999999996,
                "end_time": 52.240909090909085,
                "pitch": 45,
                "velocity": 80,
                "duration": 0.16590909090908923,
                "tempo": 120.0
            },
            {
                "start_time": 52.240909090909085,
                "end_time": 52.574999999999996,
                "pitch": 45,
                "velocity": 80,
                "duration": 0.33409090909091077,
                "tempo": 120.0
            },
            {
                "start_time": 52.574999999999996,
                "end_time": 52.74318181818182,
                "pitch": 53,
                "velocity": 80,
                "duration": 0.16818181818182154,
                "tempo": 120.0
            },
            {
                "start_time": 52.74318181818182,
                "end_time": 52.91136363636363,
                "pitch": 45,
                "velocity": 80,
                "duration": 0.16818181818181444,
                "tempo": 120.0
            },
            {
                "start_time": 52.913636363636364,
                "end_time": 53.07954545454545,
                "pitch": 52,
                "velocity": 80,
                "duration": 0.16590909090908923,
                "tempo": 120.0
            },
            {
                "start_time": 53.07954545454545,
                "end_time": 53.24545454545454,
                "pitch": 45,
                "velocity": 80,
                "duration": 0.16590909090908923,
                "tempo": 120.0
            },
            {
                "start_time": 53.24772727272727,
                "end_time": 53.413636363636364,
                "pitch": 53,
                "velocity": 80,
                "duration": 0.16590909090909634,
                "tempo": 120.0
            },
            {
                "start_time": 53.41590909090909,
                "end_time": 53.584090909090904,
                "pitch": 45,
                "velocity": 80,
                "duration": 0.16818181818181444,
                "tempo": 120.0
            },
            {
                "start_time": 53.584090909090904,
                "end_time": 53.918181818181814,
                "pitch": 45,
                "velocity": 80,
                "duration": 0.33409090909091077,
                "tempo": 120.0
            },
            {
                "start_time": 53.92045454545454,
                "end_time": 54.086363636363636,
                "pitch": 50,
                "velocity": 80,
                "duration": 0.16590909090909634,
                "tempo": 120.0
            },
            {
                "start_time": 54.086363636363636,
                "end_time": 54.25454545454545,
                "pitch": 45,
                "velocity": 80,
                "duration": 0.16818181818181444,
                "tempo": 120.0
            },
            {
                "start_time": 54.25681818181818,
                "end_time": 54.586363636363636,
                "pitch": 45,
                "velocity": 80,
                "duration": 0.32954545454545325,
                "tempo": 120.0
            },
            {
                "start_time": 54.586363636363636,
                "end_time": 54.752272727272725,
                "pitch": 52,
                "velocity": 80,
                "duration": 0.16590909090908923,
                "tempo": 120.0
            },
            {
                "start_time": 54.752272727272725,
                "end_time": 54.918181818181814,
                "pitch": 45,
                "velocity": 80,
                "duration": 0.16590909090908923,
                "tempo": 120.0
            },
            {
                "start_time": 54.92045454545454,
                "end_time": 55.25454545454545,
                "pitch": 45,
                "velocity": 80,
                "duration": 0.33409090909091077,
                "tempo": 120.0
            },
            {
                "start_time": 55.25454545454545,
                "end_time": 55.590909090909086,
                "pitch": 53,
                "velocity": 80,
                "duration": 0.336363636363636,
                "tempo": 120.0
            },
            {
                "start_time": 55.590909090909086,
                "end_time": 55.925,
                "pitch": 52,
                "velocity": 80,
                "duration": 0.33409090909091077,
                "tempo": 120.0
            },
            {
                "start_time": 55.92727272727272,
                "end_time": 56.26363636363636,
                "pitch": 50,
                "velocity": 80,
                "duration": 0.336363636363636,
                "tempo": 120.0
            },
            {
                "start_time": 56.26363636363636,
                "end_time": 56.59772727272727,
                "pitch": 43,
                "velocity": 80,
                "duration": 0.33409090909091077,
                "tempo": 120.0
            },
            {
                "start_time": 56.59772727272727,
                "end_time": 56.76590909090909,
                "pitch": 48,
                "velocity": 80,
                "duration": 0.16818181818182154,
                "tempo": 120.0
            },
            {
                "start_time": 56.76590909090909,
                "end_time": 56.934090909090905,
                "pitch": 43,
                "velocity": 80,
                "duration": 0.16818181818181444,
                "tempo": 120.0
            },
            {
                "start_time": 56.934090909090905,
                "end_time": 57.268181818181816,
                "pitch": 43,
                "velocity": 80,
                "duration": 0.33409090909091077,
                "tempo": 120.0
            },
            {
                "start_time": 57.27045454545454,
                "end_time": 57.43636363636363,
                "pitch": 52,
                "velocity": 80,
                "duration": 0.16590909090908923,
                "tempo": 120.0
            },
            {
                "start_time": 57.43636363636363,
                "end_time": 57.60454545454545,
                "pitch": 43,
                "velocity": 80,
                "duration": 0.16818181818182154,
                "tempo": 120.0
            },
            {
                "start_time": 57.60681818181818,
                "end_time": 57.94090909090909,
                "pitch": 43,
                "velocity": 80,
                "duration": 0.33409090909091077,
                "tempo": 120.0
            },
            {
                "start_time": 57.94090909090909,
                "end_time": 58.277272727272724,
                "pitch": 52,
                "velocity": 80,
                "duration": 0.336363636363636,
                "tempo": 120.0
            },
            {
                "start_time": 58.277272727272724,
                "end_time": 58.611363636363635,
                "pitch": 50,
                "velocity": 80,
                "duration": 0.33409090909091077,
                "tempo": 120.0
            },
            {
                "start_time": 58.61363636363636,
                "end_time": 58.949999999999996,
                "pitch": 48,
                "velocity": 80,
                "duration": 0.336363636363636,
                "tempo": 120.0
            },
            {
                "start_time": 58.949999999999996,
                "end_time": 59.27954545454545,
                "pitch": 46,
                "velocity": 80,
                "duration": 0.32954545454545325,
                "tempo": 120.0
            },
            {
                "start_time": 59.28181818181818,
                "end_time": 59.445454545454545,
                "pitch": 50,
                "velocity": 80,
                "duration": 0.16363636363636402,
                "tempo": 120.0
            },
            {
                "start_time": 59.445454545454545,
                "end_time": 59.61363636363636,
                "pitch": 46,
                "velocity": 80,
                "duration": 0.16818181818181444,
                "tempo": 120.0
            },
            {
                "start_time": 59.61363636363636,
                "end_time": 59.94772727272727,
                "pitch": 46,
                "velocity": 80,
                "duration": 0.33409090909091077,
                "tempo": 120.0
            },
            {
                "start_time": 59.94772727272727,
                "end_time": 60.115909090909085,
                "pitch": 53,
                "velocity": 80,
                "duration": 0.16818181818181444,
                "tempo": 120.0
            },
            {
                "start_time": 60.115909090909085,
                "end_time": 60.28409090909091,
                "pitch": 46,
                "velocity": 80,
                "duration": 0.16818181818182154,
                "tempo": 120.0
            },
            {
                "start_time": 60.28409090909091,
                "end_time": 60.615909090909085,
                "pitch": 46,
                "velocity": 80,
                "duration": 0.33181818181817846,
                "tempo": 120.0
            },
            {
                "start_time": 60.615909090909085,
                "end_time": 60.94772727272727,
                "pitch": 53,
                "velocity": 80,
                "duration": 0.33181818181818556,
                "tempo": 120.0
            },
            {
                "start_time": 60.949999999999996,
                "end_time": 61.28409090909091,
                "pitch": 52,
                "velocity": 80,
                "duration": 0.33409090909091077,
                "tempo": 120.0
            },
            {
                "start_time": 61.28409090909091,
                "end_time": 61.62045454545454,
                "pitch": 50,
                "velocity": 80,
                "duration": 0.336363636363636,
                "tempo": 120.0
            },
            {
                "start_time": 61.62272727272727,
                "end_time": 61.95454545454545,
                "pitch": 45,
                "velocity": 80,
                "duration": 0.33181818181818556,
                "tempo": 120.0
            },
            {
                "start_time": 61.95454545454545,
                "end_time": 62.12272727272727,
                "pitch": 50,
                "velocity": 80,
                "duration": 0.16818181818181444,
                "tempo": 120.0
            },
            {
                "start_time": 62.12272727272727,
                "end_time": 62.293181818181814,
                "pitch": 45,
                "velocity": 80,
                "duration": 0.17045454545454675,
                "tempo": 120.0
            },
            {
                "start_time": 62.293181818181814,
                "end_time": 62.627272727272725,
                "pitch": 45,
                "velocity": 80,
                "duration": 0.33409090909091077,
                "tempo": 120.0
            },
            {
                "start_time": 62.627272727272725,
                "end_time": 62.793181818181814,
                "pitch": 52,
                "velocity": 80,
                "duration": 0.16590909090908923,
                "tempo": 120.0
            },
            {
                "start_time": 62.79545454545454,
                "end_time": 62.96363636363636,
                "pitch": 45,
                "velocity": 80,
                "duration": 0.16818181818182154,
                "tempo": 120.0
            },
            {
                "start_time": 62.965909090909086,
                "end_time": 63.293181818181814,
                "pitch": 45,
                "velocity": 80,
                "duration": 0.32727272727272805,
                "tempo": 120.0
            },
            {
                "start_time": 63.29545454545454,
                "end_time": 63.461363636363636,
                "pitch": 50,
                "velocity": 80,
                "duration": 0.16590909090909634,
                "tempo": 120.0
            },
            {
                "start_time": 63.461363636363636,
                "end_time": 63.627272727272725,
                "pitch": 45,
                "velocity": 80,
                "duration": 0.16590909090908923,
                "tempo": 120.0
            },
            {
                "start_time": 63.627272727272725,
                "end_time": 63.793181818181814,
                "pitch": 52,
                "velocity": 80,
                "duration": 0.16590909090908923,
                "tempo": 120.0
            },
            {
                "start_time": 63.79545454545454,
                "end_time": 63.961363636363636,
                "pitch": 45,
                "velocity": 80,
                "duration": 0.16590909090909634,
                "tempo": 120.0
            },
            {
                "start_time": 63.96363636363636,
                "end_time": 64.12954545454545,
                "pitch": 53,
                "velocity": 80,
                "duration": 0.16590909090908923,
                "tempo": 120.0
            },
            {
                "start_time": 64.13181818181818,
                "end_time": 64.3,
                "pitch": 45,
                "velocity": 80,
                "duration": 0.16818181818182154,
                "tempo": 120.0
            },
            {
                "start_time": 64.30227272727272,
                "end_time": 64.96363636363635,
                "pitch": 45,
                "velocity": 80,
                "duration": 0.6613636363636317,
                "tempo": 120.0
            },
            {
                "start_time": 64.96363636363635,
                "end_time": 65.6340909090909,
                "pitch": 45,
                "velocity": 80,
                "duration": 0.6704545454545467,
                "tempo": 120.0
            },
            {
                "start_time": 65.63636363636364,
                "end_time": 66.30681818181817,
                "pitch": 45,
                "velocity": 80,
                "duration": 0.6704545454545325,
                "tempo": 120.0
            },
            {
                "start_time": 66.30681818181817,
                "end_time": 66.97727272727272,
                "pitch": 45,
                "velocity": 80,
                "duration": 0.6704545454545467,
                "tempo": 120.0
            },
            {
                "start_time": 66.97954545454544,
                "end_time": 67.64999999999999,
                "pitch": 45,
                "velocity": 80,
                "duration": 0.6704545454545467,
                "tempo": 120.0
            },
            {
                "start_time": 67.64999999999999,
                "end_time": 68.31363636363636,
                "pitch": 45,
                "velocity": 80,
                "duration": 0.6636363636363711,
                "tempo": 120.0
            },
            {
                "start_time": 68.31363636363636,
                "end_time": 68.98409090909091,
                "pitch": 45,
                "velocity": 80,
                "duration": 0.6704545454545467,
                "tempo": 120.0
            },
            {
                "start_time": 68.98636363636363,
                "end_time": 69.65681818181818,
                "pitch": 45,
                "velocity": 80,
                "duration": 0.6704545454545467,
                "tempo": 120.0
            },
            {
                "start_time": 69.65681818181818,
                "end_time": 70.32727272727273,
                "pitch": 45,
                "velocity": 80,
                "duration": 0.6704545454545467,
                "tempo": 120.0
            },
            {
                "start_time": 70.32954545454545,
                "end_time": 70.99318181818181,
                "pitch": 45,
                "velocity": 80,
                "duration": 0.6636363636363569,
                "tempo": 120.0
            },
            {
                "start_time": 70.99318181818181,
                "end_time": 71.66363636363636,
                "pitch": 45,
                "velocity": 80,
                "duration": 0.6704545454545467,
                "tempo": 120.0
            },
            {
                "start_time": 71.66363636363636,
                "end_time": 72.33636363636363,
                "pitch": 45,
                "velocity": 80,
                "duration": 0.672727272727272,
                "tempo": 120.0
            },
            {
                "start_time": 72.33636363636363,
                "end_time": 73.00681818181818,
                "pitch": 45,
                "velocity": 80,
                "duration": 0.6704545454545467,
                "tempo": 120.0
            },
            {
                "start_time": 73.00681818181818,
                "end_time": 73.67045454545455,
                "pitch": 45,
                "velocity": 80,
                "duration": 0.6636363636363711,
                "tempo": 120.0
            },
            {
                "start_time": 73.67272727272727,
                "end_time": 74.3409090909091,
                "pitch": 45,
                "velocity": 80,
                "duration": 0.6681818181818215,
                "tempo": 120.0
            },
            {
                "start_time": 74.34318181818182,
                "end_time": 75.01363636363637,
                "pitch": 45,
                "velocity": 80,
                "duration": 0.6704545454545467,
                "tempo": 120.0
            },
            {
                "start_time": 75.02272727272727,
                "end_time": 75.17954545454545,
                "pitch": 45,
                "velocity": 80,
                "duration": 0.1568181818181813,
                "tempo": 120.0
            }
        ],
        "Harpsichord": [
            {
                "start_time": 42.86818181818182,
                "end_time": 43.03181818181818,
                "pitch": 77,
                "velocity": 101,
                "duration": 0.16363636363636402,
                "tempo": 120.0
            },
            {
                "start_time": 43.03409090909091,
                "end_time": 43.19772727272727,
                "pitch": 81,
                "velocity": 101,
                "duration": 0.16363636363636402,
                "tempo": 120.0
            },
            {
                "start_time": 43.199999999999996,
                "end_time": 43.52954545454545,
                "pitch": 86,
                "velocity": 101,
                "duration": 0.32954545454545325,
                "tempo": 120.0
            },
            {
                "start_time": 44.37045454545454,
                "end_time": 44.538636363636364,
                "pitch": 62,
                "velocity": 101,
                "duration": 0.16818181818182154,
                "tempo": 120.0
            },
            {
                "start_time": 44.538636363636364,
                "end_time": 44.70681818181818,
                "pitch": 65,
                "velocity": 101,
                "duration": 0.16818181818181444,
                "tempo": 120.0
            },
            {
                "start_time": 44.70681818181818,
                "end_time": 44.87272727272727,
                "pitch": 62,
                "velocity": 101,
                "duration": 0.16590909090908923,
                "tempo": 120.0
            },
            {
                "start_time": 44.875,
                "end_time": 45.04090909090909,
                "pitch": 65,
                "velocity": 101,
                "duration": 0.16590909090908923,
                "tempo": 120.0
            },
            {
                "start_time": 45.043181818181814,
                "end_time": 45.209090909090904,
                "pitch": 62,
                "velocity": 101,
                "duration": 0.16590909090908923,
                "tempo": 120.0
            },
            {
                "start_time": 45.211363636363636,
                "end_time": 45.377272727272725,
                "pitch": 65,
                "velocity": 101,
                "duration": 0.16590909090908923,
                "tempo": 120.0
            },
            {
                "start_time": 45.377272727272725,
                "end_time": 45.54545454545455,
                "pitch": 69,
                "velocity": 101,
                "duration": 0.16818181818182154,
                "tempo": 120.0
            },
            {
                "start_time": 45.54772727272727,
                "end_time": 45.71363636363636,
                "pitch": 76,
                "velocity": 101,
                "duration": 0.16590909090908923,
                "tempo": 120.0
            },
            {
                "start_time": 45.71363636363636,
                "end_time": 45.88181818181818,
                "pitch": 79,
                "velocity": 101,
                "duration": 0.16818181818182154,
                "tempo": 120.0
            },
            {
                "start_time": 45.88181818181818,
                "end_time": 46.215909090909086,
                "pitch": 82,
                "velocity": 101,
                "duration": 0.33409090909090366,
                "tempo": 120.0
            },
            {
                "start_time": 47.054545454545455,
                "end_time": 47.220454545454544,
                "pitch": 60,
                "velocity": 101,
                "duration": 0.16590909090908923,
                "tempo": 120.0
            },
            {
                "start_time": 47.220454545454544,
                "end_time": 47.38636363636363,
                "pitch": 64,
                "velocity": 101,
                "duration": 0.16590909090908923,
                "tempo": 120.0
            },
            {
                "start_time": 47.38636363636363,
                "end_time": 47.55227272727272,
                "pitch": 60,
                "velocity": 101,
                "duration": 0.16590909090908923,
                "tempo": 120.0
            },
            {
                "start_time": 47.554545454545455,
                "end_time": 47.720454545454544,
                "pitch": 64,
                "velocity": 101,
                "duration": 0.16590909090908923,
                "tempo": 120.0
            },
            {
                "start_time": 47.720454545454544,
                "end_time": 47.88863636363636,
                "pitch": 60,
                "velocity": 101,
                "duration": 0.16818181818181444,
                "tempo": 120.0
            },
            {
                "start_time": 47.88863636363636,
                "end_time": 48.05681818181818,
                "pitch": 64,
                "velocity": 101,
                "duration": 0.16818181818182154,
                "tempo": 120.0
            },
            {
                "start_time": 48.05681818181818,
                "end_time": 48.224999999999994,
                "pitch": 67,
                "velocity": 101,
                "duration": 0.16818181818181444,
                "tempo": 120.0
            },
            {
                "start_time": 48.224999999999994,
                "end_time": 48.393181818181816,
                "pitch": 74,
                "velocity": 101,
                "duration": 0.16818181818182154,
                "tempo": 120.0
            },
            {
                "start_time": 48.393181818181816,
                "end_time": 48.559090909090905,
                "pitch": 77,
                "velocity": 101,
                "duration": 0.16590909090908923,
                "tempo": 120.0
            },
            {
                "start_time": 48.56136363636364,
                "end_time": 48.89545454545454,
                "pitch": 81,
                "velocity": 101,
                "duration": 0.33409090909090366,
                "tempo": 120.0
            },
            {
                "start_time": 49.73409090909091,
                "end_time": 49.9,
                "pitch": 58,
                "velocity": 101,
                "duration": 0.16590909090908923,
                "tempo": 120.0
            },
            {
                "start_time": 49.9,
                "end_time": 50.06590909090909,
                "pitch": 62,
                "velocity": 101,
                "duration": 0.16590909090908923,
                "tempo": 120.0
            },
            {
                "start_time": 50.06590909090909,
                "end_time": 50.23181818181818,
                "pitch": 58,
                "velocity": 101,
                "duration": 0.16590909090908923,
                "tempo": 120.0
            },
            {
                "start_time": 50.23181818181818,
                "end_time": 50.4,
                "pitch": 62,
                "velocity": 101,
                "duration": 0.16818181818182154,
                "tempo": 120.0
            },
            {
                "start_time": 50.4,
                "end_time": 50.56818181818181,
                "pitch": 58,
                "velocity": 101,
                "duration": 0.16818181818181444,
                "tempo": 120.0
            },
            {
                "start_time": 50.56818181818181,
                "end_time": 50.73409090909091,
                "pitch": 62,
                "velocity": 101,
                "duration": 0.16590909090909634,
                "tempo": 120.0
            },
            {
                "start_time": 50.736363636363635,
                "end_time": 50.90454545454545,
                "pitch": 65,
                "velocity": 101,
                "duration": 0.16818181818181444,
                "tempo": 120.0
            },
            {
                "start_time": 53.584090909090904,
                "end_time": 53.75,
                "pitch": 77,
                "velocity": 101,
                "duration": 0.16590909090909634,
                "tempo": 120.0
            },
            {
                "start_time": 53.75,
                "end_time": 53.918181818181814,
                "pitch": 81,
                "velocity": 101,
                "duration": 0.16818181818181444,
                "tempo": 120.0
            },
            {
                "start_time": 53.918181818181814,
                "end_time": 54.25454545454545,
                "pitch": 86,
                "velocity": 101,
                "duration": 0.336363636363636,
                "tempo": 120.0
            },
            {
                "start_time": 55.086363636363636,
                "end_time": 55.25454545454545,
                "pitch": 62,
                "velocity": 101,
                "duration": 0.16818181818181444,
                "tempo": 120.0
            },
            {
                "start_time": 55.25454545454545,
                "end_time": 55.42045454545454,
                "pitch": 65,
                "velocity": 101,
                "duration": 0.16590909090908923,
                "tempo": 120.0
            },
            {
                "start_time": 55.42272727272727,
                "end_time": 55.58863636363636,
                "pitch": 62,
                "velocity": 101,
                "duration": 0.16590909090908923,
                "tempo": 120.0
            },
            {
                "start_time": 55.590909090909086,
                "end_time": 55.756818181818176,
                "pitch": 65,
                "velocity": 101,
                "duration": 0.16590909090908923,
                "tempo": 120.0
            },
            {
                "start_time": 55.75909090909091,
                "end_time": 55.925,
                "pitch": 62,
                "velocity": 101,
                "duration": 0.16590909090908923,
                "tempo": 120.0
            },
            {
                "start_time": 55.925,
                "end_time": 56.09318181818182,
                "pitch": 65,
                "velocity": 101,
                "duration": 0.16818181818182154,
                "tempo": 120.0
            },
            {
                "start_time": 56.09318181818182,
                "end_time": 56.26136363636363,
                "pitch": 69,
                "velocity": 101,
                "duration": 0.16818181818181444,
                "tempo": 120.0
            },
            {
                "start_time": 56.26136363636363,
                "end_time": 56.429545454545455,
                "pitch": 76,
                "velocity": 101,
                "duration": 0.16818181818182154,
                "tempo": 120.0
            },
            {
                "start_time": 56.429545454545455,
                "end_time": 56.59772727272727,
                "pitch": 79,
                "velocity": 101,
                "duration": 0.16818181818181444,
                "tempo": 120.0
            },
            {
                "start_time": 56.59772727272727,
                "end_time": 56.93181818181818,
                "pitch": 82,
                "velocity": 101,
                "duration": 0.33409090909091077,
                "tempo": 120.0
            },
            {
                "start_time": 57.77272727272727,
                "end_time": 57.94090909090909,
                "pitch": 60,
                "velocity": 101,
                "duration": 0.16818181818181444,
                "tempo": 120.0
            },
            {
                "start_time": 57.94090909090909,
                "end_time": 58.10681818181818,
                "pitch": 64,
                "velocity": 101,
                "duration": 0.16590909090908923,
                "tempo": 120.0
            },
            {
                "start_time": 58.10909090909091,
                "end_time": 58.275,
                "pitch": 60,
                "velocity": 101,
                "duration": 0.16590909090908923,
                "tempo": 120.0
            },
            {
                "start_time": 58.277272727272724,
                "end_time": 58.44318181818181,
                "pitch": 64,
                "velocity": 101,
                "duration": 0.16590909090908923,
                "tempo": 120.0
            },
            {
                "start_time": 58.445454545454545,
                "end_time": 58.611363636363635,
                "pitch": 60,
                "velocity": 101,
                "duration": 0.16590909090908923,
                "tempo": 120.0
            },
            {
                "start_time": 58.611363636363635,
                "end_time": 58.77954545454545,
                "pitch": 64,
                "velocity": 101,
                "duration": 0.16818181818181444,
                "tempo": 120.0
            },
            {
                "start_time": 58.77954545454545,
                "end_time": 58.94772727272727,
                "pitch": 67,
                "velocity": 101,
                "duration": 0.16818181818182154,
                "tempo": 120.0
            },
            {
                "start_time": 58.949999999999996,
                "end_time": 59.11363636363636,
                "pitch": 74,
                "velocity": 101,
                "duration": 0.16363636363636402,
                "tempo": 120.0
            },
            {
                "start_time": 59.11363636363636,
                "end_time": 59.27954545454545,
                "pitch": 77,
                "velocity": 101,
                "duration": 0.16590909090908923,
                "tempo": 120.0
            },
            {
                "start_time": 59.27954545454545,
                "end_time": 59.611363636363635,
                "pitch": 81,
                "velocity": 101,
                "duration": 0.33181818181818556,
                "tempo": 120.0
            },
            {
                "start_time": 60.449999999999996,
                "end_time": 60.615909090909085,
                "pitch": 58,
                "velocity": 101,
                "duration": 0.16590909090908923,
                "tempo": 120.0
            },
            {
                "start_time": 60.615909090909085,
                "end_time": 60.78181818181818,
                "pitch": 62,
                "velocity": 101,
                "duration": 0.16590909090909634,
                "tempo": 120.0
            },
            {
                "start_time": 60.78181818181818,
                "end_time": 60.94772727272727,
                "pitch": 58,
                "velocity": 101,
                "duration": 0.16590909090908923,
                "tempo": 120.0
            },
            {
                "start_time": 60.94772727272727,
                "end_time": 61.115909090909085,
                "pitch": 62,
                "velocity": 101,
                "duration": 0.16818181818181444,
                "tempo": 120.0
            },
            {
                "start_time": 61.115909090909085,
                "end_time": 61.28181818181818,
                "pitch": 58,
                "velocity": 101,
                "duration": 0.16590909090909634,
                "tempo": 120.0
            },
            {
                "start_time": 61.28409090909091,
                "end_time": 61.449999999999996,
                "pitch": 62,
                "velocity": 101,
                "duration": 0.16590909090908923,
                "tempo": 120.0
            },
            {
                "start_time": 61.45227272727272,
                "end_time": 61.61818181818182,
                "pitch": 65,
                "velocity": 101,
                "duration": 0.16590909090909634,
                "tempo": 120.0
            }
        ],
        "Lead 2 (sawtooth)": [
            {
                "start_time": 21.436363636363634,
                "end_time": 22.10681818181818,
                "pitch": 65,
                "velocity": 127,
                "duration": 0.6704545454545467,
                "tempo": 120.0
            },
            {
                "start_time": 22.10681818181818,
                "end_time": 22.777272727272727,
                "pitch": 62,
                "velocity": 127,
                "duration": 0.6704545454545467,
                "tempo": 120.0
            },
            {
                "start_time": 22.779545454545453,
                "end_time": 23.44090909090909,
                "pitch": 69,
                "velocity": 127,
                "duration": 0.6613636363636388,
                "tempo": 120.0
            },
            {
                "start_time": 23.443181818181817,
                "end_time": 24.113636363636363,
                "pitch": 65,
                "velocity": 127,
                "duration": 0.6704545454545467,
                "tempo": 120.0
            },
            {
                "start_time": 24.113636363636363,
                "end_time": 24.784090909090907,
                "pitch": 64,
                "velocity": 127,
                "duration": 0.6704545454545432,
                "tempo": 120.0
            },
            {
                "start_time": 24.786363636363635,
                "end_time": 25.456818181818182,
                "pitch": 60,
                "velocity": 127,
                "duration": 0.6704545454545467,
                "tempo": 120.0
            },
            {
                "start_time": 25.456818181818182,
                "end_time": 25.688636363636363,
                "pitch": 67,
                "velocity": 127,
                "duration": 0.2318181818181806,
                "tempo": 120.0
            },
            {
                "start_time": 25.688636363636363,
                "end_time": 25.738636363636363,
                "pitch": 67,
                "velocity": 127,
                "duration": 0.05000000000000071,
                "tempo": 120.0
            },
            {
                "start_time": 25.738636363636363,
                "end_time": 25.854545454545452,
                "pitch": 67,
                "velocity": 127,
                "duration": 0.11590909090908852,
                "tempo": 120.0
            },
            {
                "start_time": 25.688636363636363,
                "end_time": 25.85681818181818,
                "pitch": 79,
                "velocity": 127,
                "duration": 0.168181818181818,
                "tempo": 120.0
            },
            {
                "start_time": 25.854545454545452,
                "end_time": 25.85681818181818,
                "pitch": 79,
                "velocity": 127,
                "duration": 0.0022727272727287584,
                "tempo": 120.0
            },
            {
                "start_time": 25.738636363636363,
                "end_time": 25.904545454545453,
                "pitch": 55,
                "velocity": 127,
                "duration": 0.16590909090908923,
                "tempo": 120.0
            },
            {
                "start_time": 25.85681818181818,
                "end_time": 25.904545454545453,
                "pitch": 67,
                "velocity": 127,
                "duration": 0.04772727272727195,
                "tempo": 120.0
            },
            {
                "start_time": 25.904545454545453,
                "end_time": 26.02272727272727,
                "pitch": 67,
                "velocity": 127,
                "duration": 0.11818181818181728,
                "tempo": 120.0
            },
            {
                "start_time": 25.904545454545453,
                "end_time": 26.070454545454545,
                "pitch": 55,
                "velocity": 127,
                "duration": 0.16590909090909278,
                "tempo": 120.0
            },
            {
                "start_time": 26.02272727272727,
                "end_time": 26.070454545454545,
                "pitch": 67,
                "velocity": 127,
                "duration": 0.047727272727275505,
                "tempo": 120.0
            },
            {
                "start_time": 26.070454545454545,
                "end_time": 26.188636363636363,
                "pitch": 67,
                "velocity": 127,
                "duration": 0.11818181818181728,
                "tempo": 120.0
            },
            {
                "start_time": 26.02272727272727,
                "end_time": 26.188636363636363,
                "pitch": 79,
                "velocity": 127,
                "duration": 0.16590909090909278,
                "tempo": 120.0
            },
            {
                "start_time": 26.070454545454545,
                "end_time": 26.238636363636363,
                "pitch": 55,
                "velocity": 127,
                "duration": 0.168181818181818,
                "tempo": 120.0
            },
            {
                "start_time": 26.188636363636363,
                "end_time": 26.238636363636363,
                "pitch": 67,
                "velocity": 127,
                "duration": 0.05000000000000071,
                "tempo": 120.0
            },
            {
                "start_time": 26.238636363636363,
                "end_time": 26.35681818181818,
                "pitch": 67,
                "velocity": 127,
                "duration": 0.11818181818181728,
                "tempo": 120.0
            },
            {
                "start_time": 26.188636363636363,
                "end_time": 26.35681818181818,
                "pitch": 79,
                "velocity": 127,
                "duration": 0.168181818181818,
                "tempo": 120.0
            },
            {
                "start_time": 26.238636363636363,
                "end_time": 26.40681818181818,
                "pitch": 55,
                "velocity": 127,
                "duration": 0.168181818181818,
                "tempo": 120.0
            },
            {
                "start_time": 26.35681818181818,
                "end_time": 26.40681818181818,
                "pitch": 67,
                "velocity": 127,
                "duration": 0.05000000000000071,
                "tempo": 120.0
            },
            {
                "start_time": 26.40681818181818,
                "end_time": 26.525,
                "pitch": 67,
                "velocity": 127,
                "duration": 0.11818181818181728,
                "tempo": 120.0
            },
            {
                "start_time": 26.35681818181818,
                "end_time": 26.525,
                "pitch": 79,
                "velocity": 127,
                "duration": 0.168181818181818,
                "tempo": 120.0
            },
            {
                "start_time": 26.40681818181818,
                "end_time": 26.575,
                "pitch": 55,
                "velocity": 127,
                "duration": 0.168181818181818,
                "tempo": 120.0
            },
            {
                "start_time": 26.525,
                "end_time": 26.575,
                "pitch": 67,
                "velocity": 127,
                "duration": 0.05000000000000071,
                "tempo": 120.0
            },
            {
                "start_time": 26.575,
                "end_time": 26.693181818181817,
                "pitch": 67,
                "velocity": 127,
                "duration": 0.11818181818181728,
                "tempo": 120.0
            },
            {
                "start_time": 26.525,
                "end_time": 26.693181818181817,
                "pitch": 79,
                "velocity": 127,
                "duration": 0.168181818181818,
                "tempo": 120.0
            },
            {
                "start_time": 26.575,
                "end_time": 26.743181818181817,
                "pitch": 55,
                "velocity": 127,
                "duration": 0.168181818181818,
                "tempo": 120.0
            },
            {
                "start_time": 26.693181818181817,
                "end_time": 26.743181818181817,
                "pitch": 67,
                "velocity": 127,
                "duration": 0.05000000000000071,
                "tempo": 120.0
            },
            {
                "start_time": 26.743181818181817,
                "end_time": 26.79090909090909,
                "pitch": 67,
                "velocity": 127,
                "duration": 0.04772727272727195,
                "tempo": 120.0
            },
            {
                "start_time": 26.793181818181818,
                "end_time": 27.46363636363636,
                "pitch": 65,
                "velocity": 127,
                "duration": 0.6704545454545432,
                "tempo": 120.0
            },
            {
                "start_time": 27.46590909090909,
                "end_time": 28.134090909090908,
                "pitch": 62,
                "velocity": 127,
                "duration": 0.668181818181818,
                "tempo": 120.0
            },
            {
                "start_time": 28.136363636363637,
                "end_time": 28.799999999999997,
                "pitch": 58,
                "velocity": 127,
                "duration": 0.6636363636363605,
                "tempo": 120.0
            },
            {
                "start_time": 28.799999999999997,
                "end_time": 29.470454545454544,
                "pitch": 60,
                "velocity": 127,
                "duration": 0.6704545454545467,
                "tempo": 120.0
            },
            {
                "start_time": 29.472727272727273,
                "end_time": 30.143181818181816,
                "pitch": 62,
                "velocity": 127,
                "duration": 0.6704545454545432,
                "tempo": 120.0
            },
            {
                "start_time": 30.143181818181816,
                "end_time": 30.813636363636363,
                "pitch": 65,
                "velocity": 127,
                "duration": 0.6704545454545467,
                "tempo": 120.0
            },
            {
                "start_time": 30.815909090909088,
                "end_time": 32.15,
                "pitch": 64,
                "velocity": 127,
                "duration": 1.3340909090909108,
                "tempo": 120.0
            },
            {
                "start_time": 32.152272727272724,
                "end_time": 32.820454545454545,
                "pitch": 65,
                "velocity": 127,
                "duration": 0.6681818181818215,
                "tempo": 120.0
            },
            {
                "start_time": 32.82272727272727,
                "end_time": 33.49318181818182,
                "pitch": 62,
                "velocity": 127,
                "duration": 0.6704545454545467,
                "tempo": 120.0
            },
            {
                "start_time": 33.49318181818182,
                "end_time": 34.15681818181818,
                "pitch": 69,
                "velocity": 127,
                "duration": 0.663636363636364,
                "tempo": 120.0
            },
            {
                "start_time": 34.15909090909091,
                "end_time": 34.82954545454545,
                "pitch": 65,
                "velocity": 127,
                "duration": 0.6704545454545467,
                "tempo": 120.0
            },
            {
                "start_time": 34.82954545454545,
                "end_time": 35.5,
                "pitch": 64,
                "velocity": 127,
                "duration": 0.6704545454545467,
                "tempo": 120.0
            },
            {
                "start_time": 35.502272727272725,
                "end_time": 36.17272727272727,
                "pitch": 60,
                "velocity": 127,
                "duration": 0.6704545454545467,
                "tempo": 120.0
            },
            {
                "start_time": 36.17272727272727,
                "end_time": 36.404545454545456,
                "pitch": 67,
                "velocity": 127,
                "duration": 0.23181818181818414,
                "tempo": 120.0
            },
            {
                "start_time": 26.693181818181817,
                "end_time": 36.404545454545456,
                "pitch": 79,
                "velocity": 127,
                "duration": 9.71136363636364,
                "tempo": 120.0
            },
            {
                "start_time": 26.743181818181817,
                "end_time": 36.45454545454545,
                "pitch": 55,
                "velocity": 127,
                "duration": 9.711363636363636,
                "tempo": 120.0
            },
            {
                "start_time": 36.404545454545456,
                "end_time": 36.45454545454545,
                "pitch": 67,
                "velocity": 127,
                "duration": 0.04999999999999716,
                "tempo": 120.0
            },
            {
                "start_time": 36.45454545454545,
                "end_time": 36.570454545454545,
                "pitch": 67,
                "velocity": 127,
                "duration": 0.11590909090909207,
                "tempo": 120.0
            },
            {
                "start_time": 36.404545454545456,
                "end_time": 36.570454545454545,
                "pitch": 79,
                "velocity": 127,
                "duration": 0.16590909090908923,
                "tempo": 120.0
            },
            {
                "start_time": 36.45454545454545,
                "end_time": 36.62045454545454,
                "pitch": 55,
                "velocity": 127,
                "duration": 0.16590909090908923,
                "tempo": 120.0
            },
            {
                "start_time": 36.570454545454545,
                "end_time": 36.62045454545454,
                "pitch": 67,
                "velocity": 127,
                "duration": 0.04999999999999716,
                "tempo": 120.0
            },
            {
                "start_time": 36.62045454545454,
                "end_time": 36.736363636363635,
                "pitch": 67,
                "velocity": 127,
                "duration": 0.11590909090909207,
                "tempo": 120.0
            },
            {
                "start_time": 36.570454545454545,
                "end_time": 36.736363636363635,
                "pitch": 79,
                "velocity": 127,
                "duration": 0.16590909090908923,
                "tempo": 120.0
            },
            {
                "start_time": 36.62045454545454,
                "end_time": 36.78636363636363,
                "pitch": 55,
                "velocity": 127,
                "duration": 0.16590909090908923,
                "tempo": 120.0
            },
            {
                "start_time": 36.736363636363635,
                "end_time": 36.78636363636363,
                "pitch": 67,
                "velocity": 127,
                "duration": 0.04999999999999716,
                "tempo": 120.0
            },
            {
                "start_time": 36.78636363636363,
                "end_time": 36.904545454545456,
                "pitch": 67,
                "velocity": 127,
                "duration": 0.11818181818182438,
                "tempo": 120.0
            },
            {
                "start_time": 36.736363636363635,
                "end_time": 36.904545454545456,
                "pitch": 79,
                "velocity": 127,
                "duration": 0.16818181818182154,
                "tempo": 120.0
            },
            {
                "start_time": 36.78636363636363,
                "end_time": 36.95454545454545,
                "pitch": 55,
                "velocity": 127,
                "duration": 0.16818181818182154,
                "tempo": 120.0
            },
            {
                "start_time": 36.904545454545456,
                "end_time": 36.95454545454545,
                "pitch": 67,
                "velocity": 127,
                "duration": 0.04999999999999716,
                "tempo": 120.0
            },
            {
                "start_time": 36.95454545454545,
                "end_time": 37.07272727272727,
                "pitch": 67,
                "velocity": 127,
                "duration": 0.11818181818181728,
                "tempo": 120.0
            },
            {
                "start_time": 36.904545454545456,
                "end_time": 37.07272727272727,
                "pitch": 79,
                "velocity": 127,
                "duration": 0.16818181818181444,
                "tempo": 120.0
            },
            {
                "start_time": 36.95454545454545,
                "end_time": 37.12272727272727,
                "pitch": 55,
                "velocity": 127,
                "duration": 0.16818181818181444,
                "tempo": 120.0
            },
            {
                "start_time": 37.07272727272727,
                "end_time": 37.12272727272727,
                "pitch": 67,
                "velocity": 127,
                "duration": 0.04999999999999716,
                "tempo": 120.0
            },
            {
                "start_time": 37.12272727272727,
                "end_time": 37.24090909090909,
                "pitch": 67,
                "velocity": 127,
                "duration": 0.11818181818182438,
                "tempo": 120.0
            },
            {
                "start_time": 37.07272727272727,
                "end_time": 37.24090909090909,
                "pitch": 79,
                "velocity": 127,
                "duration": 0.16818181818182154,
                "tempo": 120.0
            },
            {
                "start_time": 37.12272727272727,
                "end_time": 37.29090909090909,
                "pitch": 55,
                "velocity": 127,
                "duration": 0.16818181818182154,
                "tempo": 120.0
            },
            {
                "start_time": 37.24090909090909,
                "end_time": 37.29090909090909,
                "pitch": 67,
                "velocity": 127,
                "duration": 0.04999999999999716,
                "tempo": 120.0
            },
            {
                "start_time": 37.29090909090909,
                "end_time": 37.40681818181818,
                "pitch": 67,
                "velocity": 127,
                "duration": 0.11590909090909207,
                "tempo": 120.0
            },
            {
                "start_time": 37.24090909090909,
                "end_time": 37.40681818181818,
                "pitch": 79,
                "velocity": 127,
                "duration": 0.16590909090908923,
                "tempo": 120.0
            },
            {
                "start_time": 37.29090909090909,
                "end_time": 37.45909090909091,
                "pitch": 55,
                "velocity": 127,
                "duration": 0.16818181818182154,
                "tempo": 120.0
            },
            {
                "start_time": 37.40681818181818,
                "end_time": 37.45909090909091,
                "pitch": 67,
                "velocity": 127,
                "duration": 0.05227272727272947,
                "tempo": 120.0
            },
            {
                "start_time": 37.45909090909091,
                "end_time": 37.50681818181818,
                "pitch": 67,
                "velocity": 127,
                "duration": 0.04772727272727195,
                "tempo": 120.0
            },
            {
                "start_time": 37.50909090909091,
                "end_time": 38.179545454545455,
                "pitch": 65,
                "velocity": 127,
                "duration": 0.6704545454545467,
                "tempo": 120.0
            },
            {
                "start_time": 38.179545454545455,
                "end_time": 38.85,
                "pitch": 62,
                "velocity": 127,
                "duration": 0.6704545454545467,
                "tempo": 120.0
            },
            {
                "start_time": 38.85227272727273,
                "end_time": 39.51590909090909,
                "pitch": 58,
                "velocity": 127,
                "duration": 0.663636363636364,
                "tempo": 120.0
            },
            {
                "start_time": 39.51590909090909,
                "end_time": 40.18636363636364,
                "pitch": 60,
                "velocity": 127,
                "duration": 0.6704545454545467,
                "tempo": 120.0
            },
            {
                "start_time": 40.18863636363636,
                "end_time": 40.85909090909091,
                "pitch": 62,
                "velocity": 127,
                "duration": 0.6704545454545467,
                "tempo": 120.0
            },
            {
                "start_time": 40.85909090909091,
                "end_time": 41.52954545454545,
                "pitch": 64,
                "velocity": 127,
                "duration": 0.6704545454545396,
                "tempo": 120.0
            },
            {
                "start_time": 41.53181818181818,
                "end_time": 42.86590909090909,
                "pitch": 65,
                "velocity": 127,
                "duration": 1.3340909090909108,
                "tempo": 120.0
            }
        ]
    }
}