{
    "track_id": "14 Visual Great Race (Visual Scene 3)",
    "mood": "angry",
    "instruments": {
        "Electric Piano 1": [
            {
                "start_time": 0.038636363636363635,
                "end_time": 0.10227272727272727,
                "pitch": 33,
                "velocity": 101,
                "duration": 0.06363636363636363,
                "tempo": 120.0
            },
            {
                "start_time": 0.10227272727272727,
                "end_time": 0.16818181818181818,
                "pitch": 33,
                "velocity": 101,
                "duration": 0.06590909090909092,
                "tempo": 120.0
            },
            {
                "start_time": 0.17045454545454544,
                "end_time": 0.30227272727272725,
                "pitch": 45,
                "velocity": 101,
                "duration": 0.1318181818181818,
                "tempo": 120.0
            },
            {
                "start_time": 0.30227272727272725,
                "end_time": 0.45227272727272727,
                "pitch": 33,
                "velocity": 101,
                "duration": 0.15000000000000002,
                "tempo": 120.0
            },
            {
                "start_time": 0.45227272727272727,
                "end_time": 0.5840909090909091,
                "pitch": 45,
                "velocity": 101,
                "duration": 0.13181818181818183,
                "tempo": 120.0
            },
            {
                "start_time": 0.5863636363636363,
                "end_time": 0.7204545454545455,
                "pitch": 33,
                "velocity": 101,
                "duration": 0.13409090909090915,
                "tempo": 120.0
            },
            {
                "start_time": 0.7204545454545455,
                "end_time": 0.8568181818181818,
                "pitch": 45,
                "velocity": 101,
                "duration": 0.13636363636363635,
                "tempo": 120.0
            },
            {
                "start_time": 0.8568181818181818,
                "end_time": 0.9909090909090909,
                "pitch": 33,
                "velocity": 101,
                "duration": 0.13409090909090904,
                "tempo": 120.0
            },
            {
                "start_time": 0.9931818181818182,
                "end_time": 1.1272727272727272,
                "pitch": 45,
                "velocity": 101,
                "duration": 0.13409090909090904,
                "tempo": 120.0
            },
            {
                "start_time": 1.1295454545454544,
                "end_time": 1.2068181818181818,
                "pitch": 33,
                "velocity": 101,
                "duration": 0.07727272727272738,
                "tempo": 120.0
            },
            {
                "start_time": 1.209090909090909,
                "end_time": 1.2727272727272727,
                "pitch": 33,
                "velocity": 101,
                "duration": 0.06363636363636371,
                "tempo": 120.0
            },
            {
                "start_time": 1.2727272727272727,
                "end_time": 1.4,
                "pitch": 45,
                "velocity": 101,
                "duration": 0.1272727272727272,
                "tempo": 120.0
            },
            {
                "start_time": 1.4022727272727271,
                "end_time": 1.6568181818181817,
                "pitch": 33,
                "velocity": 101,
                "duration": 0.25454545454545463,
                "tempo": 120.0
            },
            {
                "start_time": 1.659090909090909,
                "end_time": 1.940909090909091,
                "pitch": 33,
                "velocity": 101,
                "duration": 0.28181818181818197,
                "tempo": 120.0
            },
            {
                "start_time": 1.940909090909091,
                "end_time": 2.2068181818181816,
                "pitch": 33,
                "velocity": 101,
                "duration": 0.26590909090909065,
                "tempo": 120.0
            },
            {
                "start_time": 2.209090909090909,
                "end_time": 2.2727272727272725,
                "pitch": 33,
                "velocity": 101,
                "duration": 0.06363636363636349,
                "tempo": 120.0
            },
            {
                "start_time": 2.2727272727272725,
                "end_time": 2.3363636363636364,
                "pitch": 33,
                "velocity": 101,
                "duration": 0.06363636363636394,
                "tempo": 120.0
            },
            {
                "start_time": 2.3386363636363634,
                "end_time": 2.4681818181818183,
                "pitch": 45,
                "velocity": 101,
                "duration": 0.12954545454545485,
                "tempo": 120.0
            },
            {
                "start_time": 2.4704545454545452,
                "end_time": 2.6,
                "pitch": 33,
                "velocity": 101,
                "duration": 0.12954545454545485,
                "tempo": 120.0
            },
            {
                "start_time": 2.6,
                "end_time": 2.745454545454545,
                "pitch": 45,
                "velocity": 101,
                "duration": 0.14545454545454506,
                "tempo": 120.0
            },
            {
                "start_time": 2.7477272727272726,
                "end_time": 2.881818181818182,
                "pitch": 33,
                "velocity": 101,
                "duration": 0.13409090909090926,
                "tempo": 120.0
            },
            {
                "start_time": 2.881818181818182,
                "end_time": 3.018181818181818,
                "pitch": 45,
                "velocity": 101,
                "duration": 0.13636363636363624,
                "tempo": 120.0
            },
            {
                "start_time": 3.018181818181818,
                "end_time": 3.1522727272727273,
                "pitch": 33,
                "velocity": 101,
                "duration": 0.13409090909090926,
                "tempo": 120.0
            },
            {
                "start_time": 3.1545454545454543,
                "end_time": 3.2886363636363636,
                "pitch": 45,
                "velocity": 101,
                "duration": 0.13409090909090926,
                "tempo": 120.0
            },
            {
                "start_time": 3.2909090909090906,
                "end_time": 3.352272727272727,
                "pitch": 33,
                "velocity": 101,
                "duration": 0.06136363636363651,
                "tempo": 120.0
            },
            {
                "start_time": 3.3545454545454545,
                "end_time": 3.434090909090909,
                "pitch": 33,
                "velocity": 101,
                "duration": 0.07954545454545459,
                "tempo": 120.0
            },
            {
                "start_time": 3.434090909090909,
                "end_time": 3.561363636363636,
                "pitch": 45,
                "velocity": 101,
                "duration": 0.12727272727272698,
                "tempo": 120.0
            },
            {
                "start_time": 3.5636363636363635,
                "end_time": 3.818181818181818,
                "pitch": 33,
                "velocity": 101,
                "duration": 0.2545454545454544,
                "tempo": 120.0
            },
            {
                "start_time": 3.8204545454545453,
                "end_time": 4.084090909090909,
                "pitch": 33,
                "velocity": 101,
                "duration": 0.26363636363636367,
                "tempo": 120.0
            },
            {
                "start_time": 4.086363636363636,
                "end_time": 4.368181818181818,
                "pitch": 33,
                "velocity": 101,
                "duration": 0.2818181818181822,
                "tempo": 120.0
            },
            {
                "start_time": 4.370454545454545,
                "end_time": 4.434090909090909,
                "pitch": 33,
                "velocity": 101,
                "duration": 0.06363636363636349,
                "tempo": 120.0
            },
            {
                "start_time": 4.434090909090909,
                "end_time": 4.497727272727272,
                "pitch": 33,
                "velocity": 101,
                "duration": 0.06363636363636349,
                "tempo": 120.0
            },
            {
                "start_time": 4.5,
                "end_time": 4.629545454545454,
                "pitch": 45,
                "velocity": 101,
                "duration": 0.12954545454545396,
                "tempo": 120.0
            },
            {
                "start_time": 4.629545454545454,
                "end_time": 4.761363636363636,
                "pitch": 33,
                "velocity": 101,
                "duration": 0.13181818181818183,
                "tempo": 120.0
            },
            {
                "start_time": 4.761363636363636,
                "end_time": 4.906818181818181,
                "pitch": 45,
                "velocity": 101,
                "duration": 0.1454545454545455,
                "tempo": 120.0
            },
            {
                "start_time": 4.909090909090909,
                "end_time": 5.040909090909091,
                "pitch": 33,
                "velocity": 101,
                "duration": 0.13181818181818183,
                "tempo": 120.0
            },
            {
                "start_time": 5.040909090909091,
                "end_time": 5.175,
                "pitch": 45,
                "velocity": 101,
                "duration": 0.13409090909090882,
                "tempo": 120.0
            },
            {
                "start_time": 5.175,
                "end_time": 5.306818181818182,
                "pitch": 33,
                "velocity": 101,
                "duration": 0.13181818181818183,
                "tempo": 120.0
            },
            {
                "start_time": 5.309090909090909,
                "end_time": 5.4409090909090905,
                "pitch": 45,
                "velocity": 101,
                "duration": 0.13181818181818183,
                "tempo": 120.0
            },
            {
                "start_time": 5.4409090909090905,
                "end_time": 5.504545454545454,
                "pitch": 33,
                "velocity": 101,
                "duration": 0.06363636363636349,
                "tempo": 120.0
            },
            {
                "start_time": 5.506818181818182,
                "end_time": 5.570454545454545,
                "pitch": 33,
                "velocity": 101,
                "duration": 0.06363636363636349,
                "tempo": 120.0
            },
            {
                "start_time": 5.572727272727272,
                "end_time": 5.718181818181818,
                "pitch": 45,
                "velocity": 101,
                "duration": 0.1454545454545455,
                "tempo": 120.0
            },
            {
                "start_time": 5.718181818181818,
                "end_time": 5.9795454545454545,
                "pitch": 33,
                "velocity": 101,
                "duration": 0.2613636363636367,
                "tempo": 120.0
            },
            {
                "start_time": 5.9818181818181815,
                "end_time": 6.245454545454545,
                "pitch": 33,
                "velocity": 101,
                "duration": 0.26363636363636367,
                "tempo": 120.0
            },
            {
                "start_time": 6.247727272727272,
                "end_time": 6.529545454545454,
                "pitch": 33,
                "velocity": 101,
                "duration": 0.2818181818181822,
                "tempo": 120.0
            },
            {
                "start_time": 6.529545454545454,
                "end_time": 6.595454545454545,
                "pitch": 33,
                "velocity": 101,
                "duration": 0.06590909090909047,
                "tempo": 120.0
            },
            {
                "start_time": 6.595454545454545,
                "end_time": 6.661363636363636,
                "pitch": 33,
                "velocity": 101,
                "duration": 0.06590909090909136,
                "tempo": 120.0
            },
            {
                "start_time": 6.661363636363636,
                "end_time": 6.790909090909091,
                "pitch": 45,
                "velocity": 101,
                "duration": 0.12954545454545485,
                "tempo": 120.0
            },
            {
                "start_time": 6.790909090909091,
                "end_time": 6.922727272727272,
                "pitch": 33,
                "velocity": 101,
                "duration": 0.13181818181818095,
                "tempo": 120.0
            },
            {
                "start_time": 6.922727272727272,
                "end_time": 7.052272727272727,
                "pitch": 45,
                "velocity": 101,
                "duration": 0.12954545454545485,
                "tempo": 120.0
            },
            {
                "start_time": 7.054545454545454,
                "end_time": 7.199999999999999,
                "pitch": 33,
                "velocity": 101,
                "duration": 0.1454545454545455,
                "tempo": 120.0
            },
            {
                "start_time": 7.199999999999999,
                "end_time": 7.329545454545454,
                "pitch": 45,
                "velocity": 101,
                "duration": 0.12954545454545485,
                "tempo": 120.0
            },
            {
                "start_time": 7.331818181818181,
                "end_time": 7.461363636363636,
                "pitch": 33,
                "velocity": 101,
                "duration": 0.12954545454545485,
                "tempo": 120.0
            },
            {
                "start_time": 7.461363636363636,
                "end_time": 7.593181818181818,
                "pitch": 45,
                "velocity": 101,
                "duration": 0.13181818181818183,
                "tempo": 120.0
            },
            {
                "start_time": 7.593181818181818,
                "end_time": 7.659090909090908,
                "pitch": 33,
                "velocity": 101,
                "duration": 0.06590909090909047,
                "tempo": 120.0
            },
            {
                "start_time": 7.659090909090908,
                "end_time": 7.725,
                "pitch": 33,
                "velocity": 101,
                "duration": 0.06590909090909136,
                "tempo": 120.0
            },
            {
                "start_time": 7.725,
                "end_time": 7.8568181818181815,
                "pitch": 45,
                "velocity": 101,
                "duration": 0.13181818181818183,
                "tempo": 120.0
            },
            {
                "start_time": 7.8590909090909085,
                "end_time": 8.14090909090909,
                "pitch": 33,
                "velocity": 101,
                "duration": 0.2818181818181822,
                "tempo": 120.0
            },
            {
                "start_time": 8.143181818181818,
                "end_time": 8.406818181818181,
                "pitch": 33,
                "velocity": 101,
                "duration": 0.26363636363636367,
                "tempo": 120.0
            },
            {
                "start_time": 8.409090909090908,
                "end_time": 8.690909090909091,
                "pitch": 33,
                "velocity": 101,
                "duration": 0.2818181818181831,
                "tempo": 120.0
            },
            {
                "start_time": 8.690909090909091,
                "end_time": 8.756818181818181,
                "pitch": 33,
                "velocity": 101,
                "duration": 0.06590909090908958,
                "tempo": 120.0
            },
            {
                "start_time": 8.756818181818181,
                "end_time": 8.822727272727272,
                "pitch": 33,
                "velocity": 101,
                "duration": 0.06590909090909136,
                "tempo": 120.0
            },
            {
                "start_time": 8.822727272727272,
                "end_time": 8.952272727272726,
                "pitch": 45,
                "velocity": 101,
                "duration": 0.12954545454545396,
                "tempo": 120.0
            },
            {
                "start_time": 8.952272727272726,
                "end_time": 9.084090909090909,
                "pitch": 33,
                "velocity": 101,
                "duration": 0.13181818181818272,
                "tempo": 120.0
            },
            {
                "start_time": 9.084090909090909,
                "end_time": 9.213636363636363,
                "pitch": 45,
                "velocity": 101,
                "duration": 0.12954545454545396,
                "tempo": 120.0
            },
            {
                "start_time": 9.21590909090909,
                "end_time": 9.343181818181817,
                "pitch": 33,
                "velocity": 101,
                "duration": 0.12727272727272698,
                "tempo": 120.0
            },
            {
                "start_time": 9.345454545454546,
                "end_time": 9.49090909090909,
                "pitch": 45,
                "velocity": 101,
                "duration": 0.14545454545454461,
                "tempo": 120.0
            },
            {
                "start_time": 9.493181818181817,
                "end_time": 9.622727272727273,
                "pitch": 33,
                "velocity": 101,
                "duration": 0.12954545454545574,
                "tempo": 120.0
            },
            {
                "start_time": 9.622727272727273,
                "end_time": 9.754545454545454,
                "pitch": 45,
                "velocity": 101,
                "duration": 0.13181818181818095,
                "tempo": 120.0
            },
            {
                "start_time": 9.754545454545454,
                "end_time": 9.818181818181818,
                "pitch": 33,
                "velocity": 101,
                "duration": 0.06363636363636438,
                "tempo": 120.0
            },
            {
                "start_time": 9.818181818181818,
                "end_time": 9.884090909090908,
                "pitch": 33,
                "velocity": 101,
                "duration": 0.06590909090908958,
                "tempo": 120.0
            },
            {
                "start_time": 9.884090909090908,
                "end_time": 10.01590909090909,
                "pitch": 45,
                "velocity": 101,
                "duration": 0.13181818181818272,
                "tempo": 120.0
            },
            {
                "start_time": 10.01590909090909,
                "end_time": 10.293181818181818,
                "pitch": 33,
                "velocity": 101,
                "duration": 0.27727272727272734,
                "tempo": 120.0
            },
            {
                "start_time": 10.293181818181818,
                "end_time": 10.559090909090909,
                "pitch": 33,
                "velocity": 101,
                "duration": 0.26590909090909065,
                "tempo": 120.0
            },
            {
                "start_time": 10.559090909090909,
                "end_time": 10.825,
                "pitch": 33,
                "velocity": 101,
                "duration": 0.26590909090909065,
                "tempo": 120.0
            },
            {
                "start_time": 10.825,
                "end_time": 10.904545454545454,
                "pitch": 33,
                "velocity": 101,
                "duration": 0.07954545454545503,
                "tempo": 120.0
            },
            {
                "start_time": 10.906818181818181,
                "end_time": 10.970454545454546,
                "pitch": 33,
                "velocity": 101,
                "duration": 0.06363636363636438,
                "tempo": 120.0
            },
            {
                "start_time": 10.970454545454546,
                "end_time": 11.097727272727273,
                "pitch": 45,
                "velocity": 101,
                "duration": 0.12727272727272698,
                "tempo": 120.0
            },
            {
                "start_time": 11.1,
                "end_time": 11.227272727272727,
                "pitch": 33,
                "velocity": 101,
                "duration": 0.12727272727272698,
                "tempo": 120.0
            },
            {
                "start_time": 11.227272727272727,
                "end_time": 11.354545454545454,
                "pitch": 45,
                "velocity": 101,
                "duration": 0.12727272727272698,
                "tempo": 120.0
            },
            {
                "start_time": 11.35681818181818,
                "end_time": 11.49090909090909,
                "pitch": 33,
                "velocity": 101,
                "duration": 0.1340909090909097,
                "tempo": 120.0
            },
            {
                "start_time": 11.49090909090909,
                "end_time": 11.643181818181818,
                "pitch": 45,
                "velocity": 101,
                "duration": 0.15227272727272734,
                "tempo": 120.0
            },
            {
                "start_time": 11.645454545454545,
                "end_time": 11.779545454545454,
                "pitch": 33,
                "velocity": 101,
                "duration": 0.1340909090909097,
                "tempo": 120.0
            },
            {
                "start_time": 11.779545454545454,
                "end_time": 11.915909090909091,
                "pitch": 45,
                "velocity": 101,
                "duration": 0.1363636363636367,
                "tempo": 120.0
            },
            {
                "start_time": 11.915909090909091,
                "end_time": 11.979545454545454,
                "pitch": 33,
                "velocity": 101,
                "duration": 0.0636363636363626,
                "tempo": 120.0
            },
            {
                "start_time": 11.98181818181818,
                "end_time": 12.045454545454545,
                "pitch": 33,
                "velocity": 101,
                "duration": 0.06363636363636438,
                "tempo": 120.0
            },
            {
                "start_time": 12.045454545454545,
                "end_time": 12.177272727272726,
                "pitch": 45,
                "velocity": 101,
                "duration": 0.13181818181818095,
                "tempo": 120.0
            },
            {
                "start_time": 12.177272727272726,
                "end_time": 12.454545454545453,
                "pitch": 33,
                "velocity": 101,
                "duration": 0.27727272727272734,
                "tempo": 120.0
            },
            {
                "start_time": 12.454545454545453,
                "end_time": 12.720454545454546,
                "pitch": 33,
                "velocity": 101,
                "duration": 0.2659090909090924,
                "tempo": 120.0
            },
            {
                "start_time": 12.720454545454546,
                "end_time": 12.986363636363636,
                "pitch": 33,
                "velocity": 101,
                "duration": 0.26590909090909065,
                "tempo": 120.0
            },
            {
                "start_time": 12.988636363636363,
                "end_time": 13.259090909090908,
                "pitch": 34,
                "velocity": 101,
                "duration": 0.2704545454545446,
                "tempo": 120.0
            },
            {
                "start_time": 13.261363636363635,
                "end_time": 13.51590909090909,
                "pitch": 34,
                "velocity": 101,
                "duration": 0.25454545454545574,
                "tempo": 120.0
            },
            {
                "start_time": 13.518181818181818,
                "end_time": 13.784090909090908,
                "pitch": 34,
                "velocity": 101,
                "duration": 0.26590909090909065,
                "tempo": 120.0
            },
            {
                "start_time": 13.784090909090908,
                "end_time": 14.06590909090909,
                "pitch": 34,
                "velocity": 101,
                "duration": 0.2818181818181813,
                "tempo": 120.0
            },
            {
                "start_time": 14.068181818181818,
                "end_time": 14.33181818181818,
                "pitch": 34,
                "velocity": 101,
                "duration": 0.2636363636363619,
                "tempo": 120.0
            },
            {
                "start_time": 14.334090909090909,
                "end_time": 14.61590909090909,
                "pitch": 34,
                "velocity": 101,
                "duration": 0.2818181818181813,
                "tempo": 120.0
            },
            {
                "start_time": 14.61590909090909,
                "end_time": 14.881818181818181,
                "pitch": 34,
                "velocity": 101,
                "duration": 0.26590909090909065,
                "tempo": 120.0
            },
            {
                "start_time": 14.881818181818181,
                "end_time": 15.147727272727272,
                "pitch": 34,
                "velocity": 101,
                "duration": 0.26590909090909065,
                "tempo": 120.0
            },
            {
                "start_time": 15.149999999999999,
                "end_time": 15.277272727272727,
                "pitch": 34,
                "velocity": 101,
                "duration": 0.12727272727272876,
                "tempo": 120.0
            },
            {
                "start_time": 15.277272727272727,
                "end_time": 15.420454545454545,
                "pitch": 41,
                "velocity": 101,
                "duration": 0.14318181818181763,
                "tempo": 120.0
            },
            {
                "start_time": 15.422727272727272,
                "end_time": 15.549999999999999,
                "pitch": 46,
                "velocity": 101,
                "duration": 0.12727272727272698,
                "tempo": 120.0
            },
            {
                "start_time": 15.549999999999999,
                "end_time": 15.677272727272726,
                "pitch": 41,
                "velocity": 101,
                "duration": 0.12727272727272698,
                "tempo": 120.0
            },
            {
                "start_time": 15.679545454545453,
                "end_time": 15.811363636363636,
                "pitch": 47,
                "velocity": 101,
                "duration": 0.13181818181818272,
                "tempo": 120.0
            },
            {
                "start_time": 15.811363636363636,
                "end_time": 15.945454545454545,
                "pitch": 42,
                "velocity": 101,
                "duration": 0.1340909090909097,
                "tempo": 120.0
            },
            {
                "start_time": 15.945454545454545,
                "end_time": 16.09318181818182,
                "pitch": 48,
                "velocity": 101,
                "duration": 0.14772727272727337,
                "tempo": 120.0
            },
            {
                "start_time": 16.095454545454544,
                "end_time": 16.227272727272727,
                "pitch": 43,
                "velocity": 101,
                "duration": 0.13181818181818272,
                "tempo": 120.0
            },
            {
                "start_time": 16.229545454545455,
                "end_time": 16.493181818181817,
                "pitch": 49,
                "velocity": 101,
                "duration": 0.2636363636363619,
                "tempo": 120.0
            },
            {
                "start_time": 16.495454545454546,
                "end_time": 16.627272727272725,
                "pitch": 37,
                "velocity": 101,
                "duration": 0.13181818181817917,
                "tempo": 120.0
            },
            {
                "start_time": 16.627272727272725,
                "end_time": 16.90681818181818,
                "pitch": 49,
                "velocity": 101,
                "duration": 0.2795454545454561,
                "tempo": 120.0
            },
            {
                "start_time": 16.909090909090907,
                "end_time": 17.038636363636364,
                "pitch": 49,
                "velocity": 101,
                "duration": 0.12954545454545752,
                "tempo": 120.0
            },
            {
                "start_time": 17.038636363636364,
                "end_time": 17.168181818181818,
                "pitch": 44,
                "velocity": 101,
                "duration": 0.12954545454545396,
                "tempo": 120.0
            },
            {
                "start_time": 17.170454545454543,
                "end_time": 17.3,
                "pitch": 46,
                "velocity": 101,
                "duration": 0.12954545454545752,
                "tempo": 120.0
            },
            {
                "start_time": 17.302272727272726,
                "end_time": 17.577272727272728,
                "pitch": 34,
                "velocity": 101,
                "duration": 0.27500000000000213,
                "tempo": 120.0
            },
            {
                "start_time": 17.579545454545453,
                "end_time": 17.83863636363636,
                "pitch": 34,
                "velocity": 101,
                "duration": 0.25909090909090793,
                "tempo": 120.0
            },
            {
                "start_time": 17.84090909090909,
                "end_time": 18.10681818181818,
                "pitch": 34,
                "velocity": 101,
                "duration": 0.26590909090909065,
                "tempo": 120.0
            },
            {
                "start_time": 18.10681818181818,
                "end_time": 18.388636363636362,
                "pitch": 34,
                "velocity": 101,
                "duration": 0.2818181818181813,
                "tempo": 120.0
            },
            {
                "start_time": 18.39090909090909,
                "end_time": 18.654545454545453,
                "pitch": 34,
                "velocity": 101,
                "duration": 0.2636363636363619,
                "tempo": 120.0
            },
            {
                "start_time": 18.65681818181818,
                "end_time": 18.922727272727272,
                "pitch": 34,
                "velocity": 101,
                "duration": 0.26590909090909065,
                "tempo": 120.0
            },
            {
                "start_time": 18.922727272727272,
                "end_time": 19.195454545454545,
                "pitch": 34,
                "velocity": 101,
                "duration": 0.2727272727272734,
                "tempo": 120.0
            },
            {
                "start_time": 19.195454545454545,
                "end_time": 19.452272727272728,
                "pitch": 34,
                "velocity": 101,
                "duration": 0.2568181818181827,
                "tempo": 120.0
            },
            {
                "start_time": 19.452272727272728,
                "end_time": 19.584090909090907,
                "pitch": 34,
                "velocity": 101,
                "duration": 0.13181818181817917,
                "tempo": 120.0
            },
            {
                "start_time": 19.586363636363636,
                "end_time": 19.71818181818182,
                "pitch": 41,
                "velocity": 101,
                "duration": 0.13181818181818272,
                "tempo": 120.0
            },
            {
                "start_time": 19.71818181818182,
                "end_time": 19.868181818181817,
                "pitch": 46,
                "velocity": 101,
                "duration": 0.14999999999999858,
                "tempo": 120.0
            },
            {
                "start_time": 19.868181818181817,
                "end_time": 20.0,
                "pitch": 41,
                "velocity": 101,
                "duration": 0.13181818181818272,
                "tempo": 120.0
            },
            {
                "start_time": 20.002272727272725,
                "end_time": 20.134090909090908,
                "pitch": 47,
                "velocity": 101,
                "duration": 0.13181818181818272,
                "tempo": 120.0
            },
            {
                "start_time": 20.136363636363637,
                "end_time": 20.268181818181816,
                "pitch": 42,
                "velocity": 101,
                "duration": 0.13181818181817917,
                "tempo": 120.0
            },
            {
                "start_time": 20.268181818181816,
                "end_time": 20.4,
                "pitch": 48,
                "velocity": 101,
                "duration": 0.13181818181818272,
                "tempo": 120.0
            },
            {
                "start_time": 20.402272727272727,
                "end_time": 20.55,
                "pitch": 43,
                "velocity": 101,
                "duration": 0.14772727272727337,
                "tempo": 120.0
            },
            {
                "start_time": 20.552272727272726,
                "end_time": 20.81590909090909,
                "pitch": 49,
                "velocity": 101,
                "duration": 0.26363636363636545,
                "tempo": 120.0
            },
            {
                "start_time": 20.818181818181817,
                "end_time": 20.95,
                "pitch": 37,
                "velocity": 101,
                "duration": 0.13181818181818272,
                "tempo": 120.0
            },
            {
                "start_time": 20.95,
                "end_time": 21.211363636363636,
                "pitch": 49,
                "velocity": 101,
                "duration": 0.2613636363636367,
                "tempo": 120.0
            },
            {
                "start_time": 21.211363636363636,
                "end_time": 21.35681818181818,
                "pitch": 49,
                "velocity": 101,
                "duration": 0.14545454545454461,
                "tempo": 120.0
            },
            {
                "start_time": 21.35681818181818,
                "end_time": 21.48409090909091,
                "pitch": 48,
                "velocity": 101,
                "duration": 0.12727272727272876,
                "tempo": 120.0
            },
            {
                "start_time": 21.486363636363635,
                "end_time": 21.613636363636363,
                "pitch": 44,
                "velocity": 101,
                "duration": 0.12727272727272876,
                "tempo": 120.0
            },
            {
                "start_time": 21.61590909090909,
                "end_time": 21.679545454545455,
                "pitch": 33,
                "velocity": 101,
                "duration": 0.06363636363636616,
                "tempo": 120.0
            },
            {
                "start_time": 21.679545454545455,
                "end_time": 21.745454545454546,
                "pitch": 33,
                "velocity": 101,
                "duration": 0.06590909090909136,
                "tempo": 120.0
            },
            {
                "start_time": 21.74772727272727,
                "end_time": 21.879545454545454,
                "pitch": 45,
                "velocity": 101,
                "duration": 0.13181818181818272,
                "tempo": 120.0
            },
            {
                "start_time": 21.879545454545454,
                "end_time": 22.013636363636362,
                "pitch": 33,
                "velocity": 101,
                "duration": 0.13409090909090793,
                "tempo": 120.0
            },
            {
                "start_time": 22.013636363636362,
                "end_time": 22.163636363636364,
                "pitch": 45,
                "velocity": 101,
                "duration": 0.15000000000000213,
                "tempo": 120.0
            },
            {
                "start_time": 22.163636363636364,
                "end_time": 22.295454545454543,
                "pitch": 33,
                "velocity": 101,
                "duration": 0.13181818181817917,
                "tempo": 120.0
            },
            {
                "start_time": 22.297727272727272,
                "end_time": 22.429545454545455,
                "pitch": 45,
                "velocity": 101,
                "duration": 0.13181818181818272,
                "tempo": 120.0
            },
            {
                "start_time": 22.429545454545455,
                "end_time": 22.561363636363634,
                "pitch": 33,
                "velocity": 101,
                "duration": 0.13181818181817917,
                "tempo": 120.0
            },
            {
                "start_time": 22.563636363636363,
                "end_time": 22.695454545454545,
                "pitch": 45,
                "velocity": 101,
                "duration": 0.13181818181818272,
                "tempo": 120.0
            },
            {
                "start_time": 22.69772727272727,
                "end_time": 22.759090909090908,
                "pitch": 33,
                "velocity": 101,
                "duration": 0.0613636363636374,
                "tempo": 120.0
            },
            {
                "start_time": 22.761363636363637,
                "end_time": 22.825,
                "pitch": 33,
                "velocity": 101,
                "duration": 0.0636363636363626,
                "tempo": 120.0
            },
            {
                "start_time": 22.825,
                "end_time": 22.96818181818182,
                "pitch": 45,
                "velocity": 101,
                "duration": 0.1431818181818194,
                "tempo": 120.0
            },
            {
                "start_time": 22.970454545454544,
                "end_time": 23.224999999999998,
                "pitch": 33,
                "velocity": 101,
                "duration": 0.25454545454545396,
                "tempo": 120.0
            },
            {
                "start_time": 23.227272727272727,
                "end_time": 23.49090909090909,
                "pitch": 33,
                "velocity": 101,
                "duration": 0.2636363636363619,
                "tempo": 120.0
            },
            {
                "start_time": 23.493181818181817,
                "end_time": 23.775,
                "pitch": 33,
                "velocity": 101,
                "duration": 0.2818181818181813,
                "tempo": 120.0
            },
            {
                "start_time": 23.775,
                "end_time": 23.84090909090909,
                "pitch": 33,
                "velocity": 101,
                "duration": 0.06590909090909136,
                "tempo": 120.0
            },
            {
                "start_time": 23.84318181818182,
                "end_time": 23.909090909090907,
                "pitch": 33,
                "velocity": 101,
                "duration": 0.06590909090908781,
                "tempo": 120.0
            },
            {
                "start_time": 23.909090909090907,
                "end_time": 24.04090909090909,
                "pitch": 45,
                "velocity": 101,
                "duration": 0.13181818181818272,
                "tempo": 120.0
            },
            {
                "start_time": 24.043181818181818,
                "end_time": 24.174999999999997,
                "pitch": 33,
                "velocity": 101,
                "duration": 0.13181818181817917,
                "tempo": 120.0
            },
            {
                "start_time": 24.174999999999997,
                "end_time": 24.30681818181818,
                "pitch": 45,
                "velocity": 101,
                "duration": 0.13181818181818272,
                "tempo": 120.0
            },
            {
                "start_time": 24.30909090909091,
                "end_time": 24.452272727272724,
                "pitch": 33,
                "velocity": 101,
                "duration": 0.14318181818181586,
                "tempo": 120.0
            },
            {
                "start_time": 24.452272727272724,
                "end_time": 24.581818181818182,
                "pitch": 45,
                "velocity": 101,
                "duration": 0.12954545454545752,
                "tempo": 120.0
            },
            {
                "start_time": 24.581818181818182,
                "end_time": 24.709090909090907,
                "pitch": 33,
                "velocity": 101,
                "duration": 0.1272727272727252,
                "tempo": 120.0
            },
            {
                "start_time": 24.709090909090907,
                "end_time": 24.83863636363636,
                "pitch": 45,
                "velocity": 101,
                "duration": 0.12954545454545396,
                "tempo": 120.0
            },
            {
                "start_time": 24.83863636363636,
                "end_time": 24.904545454545453,
                "pitch": 33,
                "velocity": 101,
                "duration": 0.06590909090909136,
                "tempo": 120.0
            },
            {
                "start_time": 24.904545454545453,
                "end_time": 24.970454545454544,
                "pitch": 33,
                "velocity": 101,
                "duration": 0.06590909090909136,
                "tempo": 120.0
            },
            {
                "start_time": 24.972727272727273,
                "end_time": 25.104545454545452,
                "pitch": 45,
                "velocity": 101,
                "duration": 0.13181818181817917,
                "tempo": 120.0
            },
            {
                "start_time": 25.104545454545452,
                "end_time": 25.386363636363637,
                "pitch": 33,
                "velocity": 101,
                "duration": 0.28181818181818485,
                "tempo": 120.0
            },
            {
                "start_time": 25.388636363636362,
                "end_time": 25.652272727272727,
                "pitch": 33,
                "velocity": 101,
                "duration": 0.26363636363636545,
                "tempo": 120.0
            },
            {
                "start_time": 25.654545454545453,
                "end_time": 25.936363636363634,
                "pitch": 33,
                "velocity": 101,
                "duration": 0.2818181818181813,
                "tempo": 120.0
            },
            {
                "start_time": 25.936363636363634,
                "end_time": 26.002272727272725,
                "pitch": 33,
                "velocity": 101,
                "duration": 0.06590909090909136,
                "tempo": 120.0
            },
            {
                "start_time": 26.002272727272725,
                "end_time": 26.068181818181817,
                "pitch": 33,
                "velocity": 101,
                "duration": 0.06590909090909136,
                "tempo": 120.0
            },
            {
                "start_time": 26.068181818181817,
                "end_time": 26.19772727272727,
                "pitch": 45,
                "velocity": 101,
                "duration": 0.12954545454545396,
                "tempo": 120.0
            },
            {
                "start_time": 26.2,
                "end_time": 26.329545454545453,
                "pitch": 33,
                "velocity": 101,
                "duration": 0.12954545454545396,
                "tempo": 120.0
            },
            {
                "start_time": 26.329545454545453,
                "end_time": 26.459090909090907,
                "pitch": 45,
                "velocity": 101,
                "duration": 0.12954545454545396,
                "tempo": 120.0
            },
            {
                "start_time": 26.461363636363636,
                "end_time": 26.59090909090909,
                "pitch": 33,
                "velocity": 101,
                "duration": 0.12954545454545396,
                "tempo": 120.0
            },
            {
                "start_time": 26.59090909090909,
                "end_time": 26.738636363636363,
                "pitch": 45,
                "velocity": 101,
                "duration": 0.14772727272727337,
                "tempo": 120.0
            },
            {
                "start_time": 26.738636363636363,
                "end_time": 26.868181818181817,
                "pitch": 33,
                "velocity": 101,
                "duration": 0.12954545454545396,
                "tempo": 120.0
            },
            {
                "start_time": 26.868181818181817,
                "end_time": 27.0,
                "pitch": 45,
                "velocity": 101,
                "duration": 0.13181818181818272,
                "tempo": 120.0
            },
            {
                "start_time": 27.0,
                "end_time": 27.06590909090909,
                "pitch": 33,
                "velocity": 101,
                "duration": 0.06590909090909136,
                "tempo": 120.0
            },
            {
                "start_time": 27.06590909090909,
                "end_time": 27.13181818181818,
                "pitch": 33,
                "velocity": 101,
                "duration": 0.06590909090908781,
                "tempo": 120.0
            },
            {
                "start_time": 27.13181818181818,
                "end_time": 27.26590909090909,
                "pitch": 45,
                "velocity": 101,
                "duration": 0.13409090909091148,
                "tempo": 120.0
            },
            {
                "start_time": 27.26590909090909,
                "end_time": 27.547727272727272,
                "pitch": 33,
                "velocity": 101,
                "duration": 0.2818181818181813,
                "tempo": 120.0
            },
            {
                "start_time": 27.549999999999997,
                "end_time": 27.813636363636363,
                "pitch": 33,
                "velocity": 101,
                "duration": 0.26363636363636545,
                "tempo": 120.0
            },
            {
                "start_time": 27.815909090909088,
                "end_time": 28.081818181818182,
                "pitch": 33,
                "velocity": 101,
                "duration": 0.2659090909090942,
                "tempo": 120.0
            },
            {
                "start_time": 28.081818181818182,
                "end_time": 28.161363636363635,
                "pitch": 33,
                "velocity": 101,
                "duration": 0.07954545454545325,
                "tempo": 120.0
            },
            {
                "start_time": 28.161363636363635,
                "end_time": 28.224999999999998,
                "pitch": 33,
                "velocity": 101,
                "duration": 0.0636363636363626,
                "tempo": 120.0
            },
            {
                "start_time": 28.227272727272727,
                "end_time": 28.354545454545452,
                "pitch": 45,
                "velocity": 101,
                "duration": 0.1272727272727252,
                "tempo": 120.0
            },
            {
                "start_time": 28.354545454545452,
                "end_time": 28.48181818181818,
                "pitch": 33,
                "velocity": 101,
                "duration": 0.12727272727272876,
                "tempo": 120.0
            },
            {
                "start_time": 28.48409090909091,
                "end_time": 28.611363636363635,
                "pitch": 45,
                "velocity": 101,
                "duration": 0.1272727272727252,
                "tempo": 120.0
            },
            {
                "start_time": 28.611363636363635,
                "end_time": 28.745454545454542,
                "pitch": 33,
                "velocity": 101,
                "duration": 0.13409090909090793,
                "tempo": 120.0
            },
            {
                "start_time": 28.745454545454542,
                "end_time": 28.893181818181816,
                "pitch": 45,
                "velocity": 101,
                "duration": 0.14772727272727337,
                "tempo": 120.0
            },
            {
                "start_time": 28.895454545454545,
                "end_time": 29.027272727272727,
                "pitch": 33,
                "velocity": 101,
                "duration": 0.13181818181818272,
                "tempo": 120.0
            },
            {
                "start_time": 29.027272727272727,
                "end_time": 29.161363636363635,
                "pitch": 45,
                "velocity": 101,
                "duration": 0.13409090909090793,
                "tempo": 120.0
            },
            {
                "start_time": 29.161363636363635,
                "end_time": 29.227272727272727,
                "pitch": 33,
                "velocity": 101,
                "duration": 0.06590909090909136,
                "tempo": 120.0
            },
            {
                "start_time": 29.227272727272727,
                "end_time": 29.293181818181818,
                "pitch": 33,
                "velocity": 101,
                "duration": 0.06590909090909136,
                "tempo": 120.0
            },
            {
                "start_time": 29.295454545454543,
                "end_time": 29.427272727272726,
                "pitch": 45,
                "velocity": 101,
                "duration": 0.13181818181818272,
                "tempo": 120.0
            },
            {
                "start_time": 29.427272727272726,
                "end_time": 29.709090909090907,
                "pitch": 33,
                "velocity": 101,
                "duration": 0.2818181818181813,
                "tempo": 120.0
            },
            {
                "start_time": 29.711363636363636,
                "end_time": 29.974999999999998,
                "pitch": 33,
                "velocity": 101,
                "duration": 0.2636363636363619,
                "tempo": 120.0
            },
            {
                "start_time": 29.977272727272727,
                "end_time": 30.243181818181817,
                "pitch": 33,
                "velocity": 101,
                "duration": 0.26590909090909065,
                "tempo": 120.0
            },
            {
                "start_time": 30.243181818181817,
                "end_time": 30.51590909090909,
                "pitch": 34,
                "velocity": 101,
                "duration": 0.2727272727272734,
                "tempo": 120.0
            },
            {
                "start_time": 30.51590909090909,
                "end_time": 30.77272727272727,
                "pitch": 34,
                "velocity": 101,
                "duration": 0.25681818181817917,
                "tempo": 120.0
            },
            {
                "start_time": 30.77272727272727,
                "end_time": 31.03863636363636,
                "pitch": 34,
                "velocity": 101,
                "duration": 0.26590909090909065,
                "tempo": 120.0
            },
            {
                "start_time": 31.04090909090909,
                "end_time": 31.32272727272727,
                "pitch": 34,
                "velocity": 101,
                "duration": 0.2818181818181813,
                "tempo": 120.0
            },
            {
                "start_time": 31.32272727272727,
                "end_time": 31.584090909090907,
                "pitch": 34,
                "velocity": 101,
                "duration": 0.2613636363636367,
                "tempo": 120.0
            },
            {
                "start_time": 31.584090909090907,
                "end_time": 31.861363636363635,
                "pitch": 34,
                "velocity": 101,
                "duration": 0.27727272727272734,
                "tempo": 120.0
            },
            {
                "start_time": 31.863636363636363,
                "end_time": 32.127272727272725,
                "pitch": 34,
                "velocity": 101,
                "duration": 0.2636363636363619,
                "tempo": 120.0
            },
            {
                "start_time": 32.12954545454545,
                "end_time": 32.393181818181816,
                "pitch": 34,
                "velocity": 101,
                "duration": 0.26363636363636545,
                "tempo": 120.0
            },
            {
                "start_time": 32.39545454545454,
                "end_time": 32.52272727272727,
                "pitch": 34,
                "velocity": 101,
                "duration": 0.1272727272727323,
                "tempo": 120.0
            },
            {
                "start_time": 32.52272727272727,
                "end_time": 32.66590909090909,
                "pitch": 41,
                "velocity": 101,
                "duration": 0.14318181818181586,
                "tempo": 120.0
            },
            {
                "start_time": 32.668181818181814,
                "end_time": 32.79545454545455,
                "pitch": 46,
                "velocity": 101,
                "duration": 0.1272727272727323,
                "tempo": 120.0
            },
            {
                "start_time": 32.79545454545455,
                "end_time": 32.92272727272727,
                "pitch": 41,
                "velocity": 101,
                "duration": 0.1272727272727252,
                "tempo": 120.0
            },
            {
                "start_time": 32.925,
                "end_time": 33.05681818181818,
                "pitch": 47,
                "velocity": 101,
                "duration": 0.13181818181818272,
                "tempo": 120.0
            },
            {
                "start_time": 33.059090909090905,
                "end_time": 33.19090909090909,
                "pitch": 42,
                "velocity": 101,
                "duration": 0.13181818181818272,
                "tempo": 120.0
            },
            {
                "start_time": 33.19090909090909,
                "end_time": 33.340909090909086,
                "pitch": 48,
                "velocity": 101,
                "duration": 0.14999999999999858,
                "tempo": 120.0
            },
            {
                "start_time": 33.340909090909086,
                "end_time": 33.47272727272727,
                "pitch": 43,
                "velocity": 101,
                "duration": 0.13181818181818272,
                "tempo": 120.0
            },
            {
                "start_time": 33.475,
                "end_time": 33.73863636363636,
                "pitch": 49,
                "velocity": 101,
                "duration": 0.26363636363635834,
                "tempo": 120.0
            },
            {
                "start_time": 33.74090909090909,
                "end_time": 33.87272727272727,
                "pitch": 37,
                "velocity": 101,
                "duration": 0.13181818181817562,
                "tempo": 120.0
            },
            {
                "start_time": 33.87272727272727,
                "end_time": 34.152272727272724,
                "pitch": 49,
                "velocity": 101,
                "duration": 0.2795454545454561,
                "tempo": 120.0
            },
            {
                "start_time": 34.154545454545456,
                "end_time": 34.28409090909091,
                "pitch": 49,
                "velocity": 101,
                "duration": 0.1295454545454504,
                "tempo": 120.0
            },
            {
                "start_time": 34.28409090909091,
                "end_time": 34.413636363636364,
                "pitch": 44,
                "velocity": 101,
                "duration": 0.12954545454545752,
                "tempo": 120.0
            },
            {
                "start_time": 34.41590909090909,
                "end_time": 34.54545454545455,
                "pitch": 46,
                "velocity": 101,
                "duration": 0.12954545454545752,
                "tempo": 120.0
            },
            {
                "start_time": 34.54772727272727,
                "end_time": 34.82272727272727,
                "pitch": 34,
                "velocity": 101,
                "duration": 0.2749999999999986,
                "tempo": 120.0
            },
            {
                "start_time": 34.824999999999996,
                "end_time": 35.08409090909091,
                "pitch": 34,
                "velocity": 101,
                "duration": 0.25909090909091503,
                "tempo": 120.0
            },
            {
                "start_time": 35.086363636363636,
                "end_time": 35.35227272727273,
                "pitch": 34,
                "velocity": 101,
                "duration": 0.26590909090909065,
                "tempo": 120.0
            },
            {
                "start_time": 35.35227272727273,
                "end_time": 35.63409090909091,
                "pitch": 34,
                "velocity": 101,
                "duration": 0.2818181818181813,
                "tempo": 120.0
            },
            {
                "start_time": 35.63636363636363,
                "end_time": 35.9,
                "pitch": 34,
                "velocity": 101,
                "duration": 0.26363636363636545,
                "tempo": 120.0
            },
            {
                "start_time": 35.902272727272724,
                "end_time": 36.168181818181814,
                "pitch": 34,
                "velocity": 101,
                "duration": 0.26590909090909065,
                "tempo": 120.0
            },
            {
                "start_time": 36.168181818181814,
                "end_time": 36.44090909090909,
                "pitch": 34,
                "velocity": 101,
                "duration": 0.2727272727272734,
                "tempo": 120.0
            },
            {
                "start_time": 36.44090909090909,
                "end_time": 36.69772727272727,
                "pitch": 34,
                "velocity": 101,
                "duration": 0.2568181818181827,
                "tempo": 120.0
            },
            {
                "start_time": 36.69772727272727,
                "end_time": 36.82954545454545,
                "pitch": 34,
                "velocity": 101,
                "duration": 0.13181818181818272,
                "tempo": 120.0
            },
            {
                "start_time": 36.83181818181818,
                "end_time": 36.96363636363636,
                "pitch": 41,
                "velocity": 101,
                "duration": 0.13181818181818272,
                "tempo": 120.0
            },
            {
                "start_time": 36.96363636363636,
                "end_time": 37.11363636363636,
                "pitch": 46,
                "velocity": 101,
                "duration": 0.14999999999999858,
                "tempo": 120.0
            },
            {
                "start_time": 37.11363636363636,
                "end_time": 37.24545454545454,
                "pitch": 41,
                "velocity": 101,
                "duration": 0.13181818181818272,
                "tempo": 120.0
            },
            {
                "start_time": 37.24772727272727,
                "end_time": 37.37954545454545,
                "pitch": 47,
                "velocity": 101,
                "duration": 0.13181818181818272,
                "tempo": 120.0
            },
            {
                "start_time": 37.38181818181818,
                "end_time": 37.51363636363636,
                "pitch": 42,
                "velocity": 101,
                "duration": 0.13181818181817562,
                "tempo": 120.0
            },
            {
                "start_time": 37.51363636363636,
                "end_time": 37.64545454545454,
                "pitch": 48,
                "velocity": 101,
                "duration": 0.13181818181818272,
                "tempo": 120.0
            },
            {
                "start_time": 37.64772727272727,
                "end_time": 37.79545454545455,
                "pitch": 43,
                "velocity": 101,
                "duration": 0.14772727272727337,
                "tempo": 120.0
            },
            {
                "start_time": 37.79772727272727,
                "end_time": 38.06136363636364,
                "pitch": 49,
                "velocity": 101,
                "duration": 0.26363636363636545,
                "tempo": 120.0
            },
            {
                "start_time": 38.06363636363636,
                "end_time": 38.195454545454545,
                "pitch": 37,
                "velocity": 101,
                "duration": 0.13181818181818272,
                "tempo": 120.0
            },
            {
                "start_time": 38.195454545454545,
                "end_time": 38.45681818181818,
                "pitch": 49,
                "velocity": 101,
                "duration": 0.26136363636363313,
                "tempo": 120.0
            },
            {
                "start_time": 38.45681818181818,
                "end_time": 38.60227272727273,
                "pitch": 49,
                "velocity": 101,
                "duration": 0.14545454545454817,
                "tempo": 120.0
            },
            {
                "start_time": 38.60227272727273,
                "end_time": 38.72954545454545,
                "pitch": 48,
                "velocity": 101,
                "duration": 0.1272727272727252,
                "tempo": 120.0
            },
            {
                "start_time": 38.73181818181818,
                "end_time": 38.85909090909091,
                "pitch": 44,
                "velocity": 101,
                "duration": 0.1272727272727323,
                "tempo": 120.0
            },
            {
                "start_time": 38.861363636363635,
                "end_time": 38.925,
                "pitch": 33,
                "velocity": 101,
                "duration": 0.0636363636363626,
                "tempo": 120.0
            },
            {
                "start_time": 38.925,
                "end_time": 38.99090909090909,
                "pitch": 33,
                "velocity": 101,
                "duration": 0.06590909090909491,
                "tempo": 120.0
            },
            {
                "start_time": 38.99318181818182,
                "end_time": 39.125,
                "pitch": 45,
                "velocity": 101,
                "duration": 0.13181818181818272,
                "tempo": 120.0
            },
            {
                "start_time": 39.127272727272725,
                "end_time": 39.275,
                "pitch": 33,
                "velocity": 101,
                "duration": 0.14772727272727337,
                "tempo": 120.0
            },
            {
                "start_time": 39.275,
                "end_time": 39.40909090909091,
                "pitch": 45,
                "velocity": 101,
                "duration": 0.13409090909090793,
                "tempo": 120.0
            },
            {
                "start_time": 39.40909090909091,
                "end_time": 39.54090909090909,
                "pitch": 33,
                "velocity": 101,
                "duration": 0.13181818181818272,
                "tempo": 120.0
            },
            {
                "start_time": 39.543181818181814,
                "end_time": 39.675,
                "pitch": 45,
                "velocity": 101,
                "duration": 0.13181818181818272,
                "tempo": 120.0
            },
            {
                "start_time": 39.675,
                "end_time": 39.80681818181818,
                "pitch": 33,
                "velocity": 101,
                "duration": 0.13181818181818272,
                "tempo": 120.0
            },
            {
                "start_time": 39.809090909090905,
                "end_time": 39.94090909090909,
                "pitch": 45,
                "velocity": 101,
                "duration": 0.13181818181818272,
                "tempo": 120.0
            },
            {
                "start_time": 39.94318181818181,
                "end_time": 40.02272727272727,
                "pitch": 33,
                "velocity": 101,
                "duration": 0.07954545454546036,
                "tempo": 120.0
            },
            {
                "start_time": 40.025,
                "end_time": 40.090909090909086,
                "pitch": 33,
                "velocity": 101,
                "duration": 0.06590909090908781,
                "tempo": 120.0
            },
            {
                "start_time": 40.090909090909086,
                "end_time": 40.25681818181818,
                "pitch": 45,
                "velocity": 101,
                "duration": 0.16590909090909634,
                "tempo": 120.0
            },
            {
                "start_time": 40.25681818181818,
                "end_time": 40.586363636363636,
                "pitch": 33,
                "velocity": 101,
                "duration": 0.32954545454545325,
                "tempo": 120.0
            },
            {
                "start_time": 40.586363636363636,
                "end_time": 40.93636363636364,
                "pitch": 33,
                "velocity": 101,
                "duration": 0.3500000000000014,
                "tempo": 120.0
            },
            {
                "start_time": 40.93636363636364,
                "end_time": 41.26363636363636,
                "pitch": 33,
                "velocity": 101,
                "duration": 0.32727272727272094,
                "tempo": 120.0
            },
            {
                "start_time": 41.26363636363636,
                "end_time": 41.34318181818182,
                "pitch": 33,
                "velocity": 101,
                "duration": 0.07954545454546036,
                "tempo": 120.0
            },
            {
                "start_time": 41.345454545454544,
                "end_time": 41.425,
                "pitch": 33,
                "velocity": 101,
                "duration": 0.07954545454545325,
                "tempo": 120.0
            },
            {
                "start_time": 41.42727272727272,
                "end_time": 41.58863636363636,
                "pitch": 45,
                "velocity": 101,
                "duration": 0.16136363636363882,
                "tempo": 120.0
            },
            {
                "start_time": 41.590909090909086,
                "end_time": 41.72272727272727,
                "pitch": 33,
                "velocity": 101,
                "duration": 0.13181818181818272,
                "tempo": 120.0
            },
            {
                "start_time": 41.725,
                "end_time": 41.87272727272727,
                "pitch": 45,
                "velocity": 101,
                "duration": 0.14772727272726627,
                "tempo": 120.0
            },
            {
                "start_time": 41.875,
                "end_time": 42.00681818181818,
                "pitch": 33,
                "velocity": 101,
                "duration": 0.13181818181818272,
                "tempo": 120.0
            },
            {
                "start_time": 42.00681818181818,
                "end_time": 42.13863636363636,
                "pitch": 45,
                "velocity": 101,
                "duration": 0.13181818181817562,
                "tempo": 120.0
            },
            {
                "start_time": 42.14090909090909,
                "end_time": 42.27272727272727,
                "pitch": 33,
                "velocity": 101,
                "duration": 0.13181818181818272,
                "tempo": 120.0
            },
            {
                "start_time": 42.27272727272727,
                "end_time": 42.40681818181818,
                "pitch": 45,
                "velocity": 101,
                "duration": 0.13409090909090793,
                "tempo": 120.0
            },
            {
                "start_time": 42.40681818181818,
                "end_time": 42.47272727272727,
                "pitch": 33,
                "velocity": 101,
                "duration": 0.06590909090908781,
                "tempo": 120.0
            },
            {
                "start_time": 42.47272727272727,
                "end_time": 42.554545454545455,
                "pitch": 33,
                "velocity": 101,
                "duration": 0.08181818181818556,
                "tempo": 120.0
            },
            {
                "start_time": 42.55681818181818,
                "end_time": 42.68863636363636,
                "pitch": 45,
                "velocity": 101,
                "duration": 0.13181818181818272,
                "tempo": 120.0
            },
            {
                "start_time": 42.69090909090909,
                "end_time": 42.949999999999996,
                "pitch": 33,
                "velocity": 101,
                "duration": 0.25909090909090793,
                "tempo": 120.0
            },
            {
                "start_time": 42.95227272727273,
                "end_time": 43.211363636363636,
                "pitch": 33,
                "velocity": 101,
                "duration": 0.25909090909090793,
                "tempo": 120.0
            },
            {
                "start_time": 43.21363636363636,
                "end_time": 43.49090909090909,
                "pitch": 33,
                "velocity": 101,
                "duration": 0.2772727272727309,
                "tempo": 120.0
            },
            {
                "start_time": 43.49090909090909,
                "end_time": 43.554545454545455,
                "pitch": 33,
                "velocity": 101,
                "duration": 0.0636363636363626,
                "tempo": 120.0
            },
            {
                "start_time": 43.55681818181818,
                "end_time": 43.62045454545454,
                "pitch": 33,
                "velocity": 101,
                "duration": 0.0636363636363626,
                "tempo": 120.0
            },
            {
                "start_time": 43.62272727272727,
                "end_time": 43.752272727272725,
                "pitch": 45,
                "velocity": 101,
                "duration": 0.12954545454545752,
                "tempo": 120.0
            },
            {
                "start_time": 43.752272727272725,
                "end_time": 43.88181818181818,
                "pitch": 33,
                "velocity": 101,
                "duration": 0.12954545454545752,
                "tempo": 120.0
            },
            {
                "start_time": 43.88409090909091,
                "end_time": 44.02954545454545,
                "pitch": 45,
                "velocity": 101,
                "duration": 0.14545454545454106,
                "tempo": 120.0
            },
            {
                "start_time": 44.02954545454545,
                "end_time": 44.16136363636363,
                "pitch": 33,
                "velocity": 101,
                "duration": 0.13181818181818272,
                "tempo": 120.0
            },
            {
                "start_time": 44.16136363636363,
                "end_time": 44.29090909090909,
                "pitch": 45,
                "velocity": 101,
                "duration": 0.12954545454545752,
                "tempo": 120.0
            },
            {
                "start_time": 44.293181818181814,
                "end_time": 44.42727272727272,
                "pitch": 33,
                "velocity": 101,
                "duration": 0.13409090909090793,
                "tempo": 120.0
            },
            {
                "start_time": 44.42727272727272,
                "end_time": 44.56136363636364,
                "pitch": 45,
                "velocity": 101,
                "duration": 0.13409090909091503,
                "tempo": 120.0
            },
            {
                "start_time": 44.56363636363636,
                "end_time": 44.62954545454545,
                "pitch": 33,
                "velocity": 101,
                "duration": 0.06590909090908781,
                "tempo": 120.0
            },
            {
                "start_time": 44.62954545454545,
                "end_time": 44.69772727272727,
                "pitch": 33,
                "velocity": 101,
                "duration": 0.06818181818182012,
                "tempo": 120.0
            },
            {
                "start_time": 44.69772727272727,
                "end_time": 44.849999999999994,
                "pitch": 45,
                "velocity": 101,
                "duration": 0.15227272727272378,
                "tempo": 120.0
            },
            {
                "start_time": 44.85227272727273,
                "end_time": 45.111363636363635,
                "pitch": 33,
                "velocity": 101,
                "duration": 0.25909090909090793,
                "tempo": 120.0
            },
            {
                "start_time": 45.11363636363636,
                "end_time": 45.37272727272727,
                "pitch": 33,
                "velocity": 101,
                "duration": 0.25909090909090793,
                "tempo": 120.0
            },
            {
                "start_time": 45.375,
                "end_time": 45.652272727272724,
                "pitch": 33,
                "velocity": 101,
                "duration": 0.2772727272727238,
                "tempo": 120.0
            },
            {
                "start_time": 45.652272727272724,
                "end_time": 45.715909090909086,
                "pitch": 33,
                "velocity": 101,
                "duration": 0.0636363636363626,
                "tempo": 120.0
            },
            {
                "start_time": 45.71818181818182,
                "end_time": 45.78181818181818,
                "pitch": 33,
                "velocity": 101,
                "duration": 0.0636363636363626,
                "tempo": 120.0
            },
            {
                "start_time": 45.78409090909091,
                "end_time": 45.913636363636364,
                "pitch": 45,
                "velocity": 101,
                "duration": 0.12954545454545752,
                "tempo": 120.0
            },
            {
                "start_time": 45.913636363636364,
                "end_time": 46.043181818181814,
                "pitch": 33,
                "velocity": 101,
                "duration": 0.1295454545454504,
                "tempo": 120.0
            },
            {
                "start_time": 46.04545454545455,
                "end_time": 46.175,
                "pitch": 45,
                "velocity": 101,
                "duration": 0.1295454545454504,
                "tempo": 120.0
            },
            {
                "start_time": 46.175,
                "end_time": 46.32272727272727,
                "pitch": 33,
                "velocity": 101,
                "duration": 0.14772727272727337,
                "tempo": 120.0
            },
            {
                "start_time": 46.32272727272727,
                "end_time": 46.45227272727273,
                "pitch": 45,
                "velocity": 101,
                "duration": 0.12954545454545752,
                "tempo": 120.0
            },
            {
                "start_time": 46.45454545454545,
                "end_time": 46.58863636363636,
                "pitch": 33,
                "velocity": 101,
                "duration": 0.13409090909090793,
                "tempo": 120.0
            },
            {
                "start_time": 46.58863636363636,
                "end_time": 46.724999999999994,
                "pitch": 45,
                "velocity": 101,
                "duration": 0.13636363636363313,
                "tempo": 120.0
            },
            {
                "start_time": 46.724999999999994,
                "end_time": 46.79090909090909,
                "pitch": 33,
                "velocity": 101,
                "duration": 0.06590909090909491,
                "tempo": 120.0
            },
            {
                "start_time": 46.793181818181814,
                "end_time": 46.85909090909091,
                "pitch": 33,
                "velocity": 101,
                "duration": 0.06590909090909491,
                "tempo": 120.0
            },
            {
                "start_time": 46.861363636363635,
                "end_time": 46.99545454545454,
                "pitch": 45,
                "velocity": 101,
                "duration": 0.13409090909090793,
                "tempo": 120.0
            },
            {
                "start_time": 46.99545454545454,
                "end_time": 47.268181818181816,
                "pitch": 33,
                "velocity": 101,
                "duration": 0.2727272727272734,
                "tempo": 120.0
            },
            {
                "start_time": 47.27045454545454,
                "end_time": 47.525,
                "pitch": 33,
                "velocity": 101,
                "duration": 0.2545454545454575,
                "tempo": 120.0
            },
            {
                "start_time": 47.527272727272724,
                "end_time": 47.804545454545455,
                "pitch": 33,
                "velocity": 101,
                "duration": 0.2772727272727309,
                "tempo": 120.0
            },
            {
                "start_time": 47.804545454545455,
                "end_time": 47.86818181818182,
                "pitch": 33,
                "velocity": 101,
                "duration": 0.0636363636363626,
                "tempo": 120.0
            },
            {
                "start_time": 47.86818181818182,
                "end_time": 47.934090909090905,
                "pitch": 33,
                "velocity": 101,
                "duration": 0.06590909090908781,
                "tempo": 120.0
            },
            {
                "start_time": 47.934090909090905,
                "end_time": 48.06363636363636,
                "pitch": 45,
                "velocity": 101,
                "duration": 0.12954545454545752,
                "tempo": 120.0
            },
            {
                "start_time": 48.06590909090909,
                "end_time": 48.19772727272727,
                "pitch": 33,
                "velocity": 101,
                "duration": 0.13181818181818272,
                "tempo": 120.0
            },
            {
                "start_time": 48.199999999999996,
                "end_time": 48.33181818181818,
                "pitch": 45,
                "velocity": 101,
                "duration": 0.13181818181818272,
                "tempo": 120.0
            },
            {
                "start_time": 48.33181818181818,
                "end_time": 48.46363636363636,
                "pitch": 33,
                "velocity": 101,
                "duration": 0.13181818181818272,
                "tempo": 120.0
            },
            {
                "start_time": 48.465909090909086,
                "end_time": 48.61363636363636,
                "pitch": 45,
                "velocity": 101,
                "duration": 0.14772727272727337,
                "tempo": 120.0
            },
            {
                "start_time": 48.61590909090909,
                "end_time": 48.74772727272727,
                "pitch": 33,
                "velocity": 101,
                "duration": 0.13181818181817562,
                "tempo": 120.0
            },
            {
                "start_time": 48.74772727272727,
                "end_time": 48.87954545454545,
                "pitch": 45,
                "velocity": 101,
                "duration": 0.13181818181818272,
                "tempo": 120.0
            },
            {
                "start_time": 48.88181818181818,
                "end_time": 48.94772727272727,
                "pitch": 33,
                "velocity": 101,
                "duration": 0.06590909090908781,
                "tempo": 120.0
            },
            {
                "start_time": 48.94772727272727,
                "end_time": 49.01363636363636,
                "pitch": 33,
                "velocity": 101,
                "duration": 0.06590909090908781,
                "tempo": 120.0
            },
            {
                "start_time": 49.01363636363636,
                "end_time": 49.14545454545454,
                "pitch": 45,
                "velocity": 101,
                "duration": 0.13181818181818272,
                "tempo": 120.0
            },
            {
                "start_time": 49.14772727272727,
                "end_time": 49.42045454545454,
                "pitch": 33,
                "velocity": 101,
                "duration": 0.27272727272726627,
                "tempo": 120.0
            },
            {
                "start_time": 49.42045454545454,
                "end_time": 49.67727272727272,
                "pitch": 33,
                "velocity": 101,
                "duration": 0.2568181818181827,
                "tempo": 120.0
            },
            {
                "start_time": 49.67727272727272,
                "end_time": 49.94318181818181,
                "pitch": 33,
                "velocity": 101,
                "duration": 0.26590909090909065,
                "tempo": 120.0
            },
            {
                "start_time": 49.94318181818181,
                "end_time": 50.025,
                "pitch": 33,
                "velocity": 101,
                "duration": 0.08181818181818556,
                "tempo": 120.0
            },
            {
                "start_time": 50.027272727272724,
                "end_time": 50.09318181818182,
                "pitch": 33,
                "velocity": 101,
                "duration": 0.06590909090909491,
                "tempo": 120.0
            },
            {
                "start_time": 50.09318181818182,
                "end_time": 50.22727272727273,
                "pitch": 45,
                "velocity": 101,
                "duration": 0.13409090909090793,
                "tempo": 120.0
            },
            {
                "start_time": 50.22727272727273,
                "end_time": 50.35909090909091,
                "pitch": 33,
                "velocity": 101,
                "duration": 0.13181818181818272,
                "tempo": 120.0
            },
            {
                "start_time": 50.361363636363635,
                "end_time": 50.49318181818182,
                "pitch": 45,
                "velocity": 101,
                "duration": 0.13181818181818272,
                "tempo": 120.0
            },
            {
                "start_time": 50.49318181818182,
                "end_time": 50.625,
                "pitch": 33,
                "velocity": 101,
                "duration": 0.13181818181818272,
                "tempo": 120.0
            },
            {
                "start_time": 50.627272727272725,
                "end_time": 50.775,
                "pitch": 45,
                "velocity": 101,
                "duration": 0.14772727272727337,
                "tempo": 120.0
            },
            {
                "start_time": 50.777272727272724,
                "end_time": 50.90909090909091,
                "pitch": 33,
                "velocity": 101,
                "duration": 0.13181818181818272,
                "tempo": 120.0
            },
            {
                "start_time": 50.90909090909091,
                "end_time": 51.04090909090909,
                "pitch": 45,
                "velocity": 101,
                "duration": 0.13181818181818272,
                "tempo": 120.0
            },
            {
                "start_time": 51.043181818181814,
                "end_time": 51.10909090909091,
                "pitch": 33,
                "velocity": 101,
                "duration": 0.06590909090909491,
                "tempo": 120.0
            },
            {
                "start_time": 51.10909090909091,
                "end_time": 51.175,
                "pitch": 33,
                "velocity": 101,
                "duration": 0.06590909090908781,
                "tempo": 120.0
            },
            {
                "start_time": 51.175,
                "end_time": 51.30681818181818,
                "pitch": 45,
                "velocity": 101,
                "duration": 0.13181818181818272,
                "tempo": 120.0
            },
            {
                "start_time": 51.309090909090905,
                "end_time": 51.58181818181818,
                "pitch": 33,
                "velocity": 101,
                "duration": 0.2727272727272734,
                "tempo": 120.0
            },
            {
                "start_time": 51.58181818181818,
                "end_time": 51.83863636363636,
                "pitch": 33,
                "velocity": 101,
                "duration": 0.2568181818181827,
                "tempo": 120.0
            },
            {
                "start_time": 51.83863636363636,
                "end_time": 52.10454545454545,
                "pitch": 33,
                "velocity": 101,
                "duration": 0.26590909090909065,
                "tempo": 120.0
            },
            {
                "start_time": 52.10454545454545,
                "end_time": 52.17045454545454,
                "pitch": 33,
                "velocity": 101,
                "duration": 0.06590909090908781,
                "tempo": 120.0
            },
            {
                "start_time": 52.17272727272727,
                "end_time": 52.25454545454545,
                "pitch": 33,
                "velocity": 101,
                "duration": 0.08181818181817846,
                "tempo": 120.0
            },
            {
                "start_time": 52.25454545454545,
                "end_time": 52.38636363636363,
                "pitch": 45,
                "velocity": 101,
                "duration": 0.13181818181818272,
                "tempo": 120.0
            },
            {
                "start_time": 52.38863636363636,
                "end_time": 52.52045454545454,
                "pitch": 33,
                "velocity": 101,
                "duration": 0.13181818181818272,
                "tempo": 120.0
            },
            {
                "start_time": 52.52272727272727,
                "end_time": 52.65454545454545,
                "pitch": 45,
                "velocity": 101,
                "duration": 0.13181818181817562,
                "tempo": 120.0
            },
            {
                "start_time": 52.65454545454545,
                "end_time": 52.78636363636363,
                "pitch": 33,
                "velocity": 101,
                "duration": 0.13181818181818272,
                "tempo": 120.0
            },
            {
                "start_time": 52.78636363636363,
                "end_time": 52.92045454545454,
                "pitch": 45,
                "velocity": 101,
                "duration": 0.13409090909090793,
                "tempo": 120.0
            },
            {
                "start_time": 52.92045454545454,
                "end_time": 53.06818181818181,
                "pitch": 33,
                "velocity": 101,
                "duration": 0.14772727272727337,
                "tempo": 120.0
            },
            {
                "start_time": 53.06818181818181,
                "end_time": 53.19772727272727,
                "pitch": 45,
                "velocity": 101,
                "duration": 0.12954545454545752,
                "tempo": 120.0
            },
            {
                "start_time": 53.199999999999996,
                "end_time": 53.26363636363636,
                "pitch": 33,
                "velocity": 101,
                "duration": 0.0636363636363626,
                "tempo": 120.0
            },
            {
                "start_time": 53.26363636363636,
                "end_time": 53.32954545454545,
                "pitch": 33,
                "velocity": 101,
                "duration": 0.06590909090909491,
                "tempo": 120.0
            },
            {
                "start_time": 53.32954545454545,
                "end_time": 53.459090909090904,
                "pitch": 45,
                "velocity": 101,
                "duration": 0.1295454545454504,
                "tempo": 120.0
            },
            {
                "start_time": 53.461363636363636,
                "end_time": 53.736363636363635,
                "pitch": 33,
                "velocity": 101,
                "duration": 0.2749999999999986,
                "tempo": 120.0
            },
            {
                "start_time": 53.73863636363636,
                "end_time": 54.0,
                "pitch": 33,
                "velocity": 101,
                "duration": 0.26136363636364024,
                "tempo": 120.0
            },
            {
                "start_time": 54.0,
                "end_time": 54.26590909090909,
                "pitch": 33,
                "velocity": 101,
                "duration": 0.26590909090909065,
                "tempo": 120.0
            },
            {
                "start_time": 54.26590909090909,
                "end_time": 54.39772727272727,
                "pitch": 33,
                "velocity": 101,
                "duration": 0.13181818181818272,
                "tempo": 120.0
            },
            {
                "start_time": 54.4,
                "end_time": 54.54772727272727,
                "pitch": 40,
                "velocity": 101,
                "duration": 0.14772727272727337,
                "tempo": 120.0
            },
            {
                "start_time": 54.55,
                "end_time": 54.68181818181818,
                "pitch": 45,
                "velocity": 101,
                "duration": 0.13181818181818272,
                "tempo": 120.0
            },
            {
                "start_time": 54.68181818181818,
                "end_time": 54.81363636363636,
                "pitch": 40,
                "velocity": 101,
                "duration": 0.13181818181818272,
                "tempo": 120.0
            },
            {
                "start_time": 54.81590909090909,
                "end_time": 54.94772727272727,
                "pitch": 46,
                "velocity": 101,
                "duration": 0.13181818181818272,
                "tempo": 120.0
            },
            {
                "start_time": 54.94772727272727,
                "end_time": 55.08181818181818,
                "pitch": 41,
                "velocity": 101,
                "duration": 0.13409090909090793,
                "tempo": 120.0
            },
            {
                "start_time": 55.08181818181818,
                "end_time": 55.22727272727273,
                "pitch": 47,
                "velocity": 101,
                "duration": 0.14545454545454817,
                "tempo": 120.0
            },
            {
                "start_time": 55.22954545454545,
                "end_time": 55.35909090909091,
                "pitch": 42,
                "velocity": 101,
                "duration": 0.12954545454545752,
                "tempo": 120.0
            },
            {
                "start_time": 55.361363636363635,
                "end_time": 55.62045454545454,
                "pitch": 48,
                "velocity": 101,
                "duration": 0.25909090909090793,
                "tempo": 120.0
            },
            {
                "start_time": 55.62272727272727,
                "end_time": 55.752272727272725,
                "pitch": 36,
                "velocity": 101,
                "duration": 0.12954545454545752,
                "tempo": 120.0
            },
            {
                "start_time": 55.752272727272725,
                "end_time": 56.02954545454545,
                "pitch": 48,
                "velocity": 101,
                "duration": 0.2772727272727238,
                "tempo": 120.0
            },
            {
                "start_time": 56.02954545454545,
                "end_time": 56.15909090909091,
                "pitch": 48,
                "velocity": 101,
                "duration": 0.12954545454545752,
                "tempo": 120.0
            },
            {
                "start_time": 56.16136363636363,
                "end_time": 56.293181818181814,
                "pitch": 43,
                "velocity": 101,
                "duration": 0.13181818181818272,
                "tempo": 120.0
            },
            {
                "start_time": 56.29545454545454,
                "end_time": 56.42727272727272,
                "pitch": 45,
                "velocity": 101,
                "duration": 0.13181818181818272,
                "tempo": 120.0
            }
        ]
    }
}