{
    "track_id": "15 Dogodaga-Dogodege (Final Boss)",
    "mood": "angry",
    "instruments": {
        "Harpsichord": [
            {
                "start_time": 0.11818181818181818,
                "end_time": 0.22272727272727272,
                "pitch": 47,
                "velocity": 40,
                "duration": 0.10454545454545454,
                "tempo": 120.0
            },
            {
                "start_time": 0.22272727272727272,
                "end_time": 0.35454545454545455,
                "pitch": 47,
                "velocity": 40,
                "duration": 0.13181818181818183,
                "tempo": 120.0
            },
            {
                "start_time": 0.35454545454545455,
                "end_time": 0.4727272727272727,
                "pitch": 51,
                "velocity": 40,
                "duration": 0.11818181818181817,
                "tempo": 120.0
            },
            {
                "start_time": 0.4727272727272727,
                "end_time": 0.6068181818181818,
                "pitch": 51,
                "velocity": 40,
                "duration": 0.1340909090909091,
                "tempo": 120.0
            },
            {
                "start_time": 0.6068181818181818,
                "end_time": 0.7386363636363636,
                "pitch": 57,
                "velocity": 40,
                "duration": 0.13181818181818183,
                "tempo": 120.0
            },
            {
                "start_time": 0.7386363636363636,
                "end_time": 0.859090909090909,
                "pitch": 57,
                "velocity": 40,
                "duration": 0.12045454545454537,
                "tempo": 120.0
            },
            {
                "start_time": 0.859090909090909,
                "end_time": 0.9954545454545454,
                "pitch": 62,
                "velocity": 40,
                "duration": 0.13636363636363635,
                "tempo": 120.0
            },
            {
                "start_time": 0.9954545454545454,
                "end_time": 1.1295454545454544,
                "pitch": 62,
                "velocity": 40,
                "duration": 0.13409090909090904,
                "tempo": 120.0
            },
            {
                "start_time": 0.35454545454545455,
                "end_time": 1.25,
                "pitch": 47,
                "velocity": 40,
                "duration": 0.8954545454545455,
                "tempo": 120.0
            },
            {
                "start_time": 1.1295454545454544,
                "end_time": 1.25,
                "pitch": 47,
                "velocity": 40,
                "duration": 0.12045454545454559,
                "tempo": 120.0
            },
            {
                "start_time": 1.25,
                "end_time": 1.3795454545454544,
                "pitch": 47,
                "velocity": 40,
                "duration": 0.1295454545454544,
                "tempo": 120.0
            },
            {
                "start_time": 1.3795454545454544,
                "end_time": 1.5113636363636362,
                "pitch": 51,
                "velocity": 40,
                "duration": 0.13181818181818183,
                "tempo": 120.0
            },
            {
                "start_time": 1.5113636363636362,
                "end_time": 1.625,
                "pitch": 51,
                "velocity": 40,
                "duration": 0.11363636363636376,
                "tempo": 120.0
            },
            {
                "start_time": 0.859090909090909,
                "end_time": 1.7545454545454544,
                "pitch": 57,
                "velocity": 40,
                "duration": 0.8954545454545454,
                "tempo": 120.0
            },
            {
                "start_time": 1.625,
                "end_time": 1.7545454545454544,
                "pitch": 57,
                "velocity": 40,
                "duration": 0.1295454545454544,
                "tempo": 120.0
            },
            {
                "start_time": 1.7545454545454544,
                "end_time": 1.8886363636363634,
                "pitch": 57,
                "velocity": 40,
                "duration": 0.13409090909090904,
                "tempo": 120.0
            },
            {
                "start_time": 1.8886363636363634,
                "end_time": 2.0045454545454544,
                "pitch": 62,
                "velocity": 40,
                "duration": 0.11590909090909096,
                "tempo": 120.0
            },
            {
                "start_time": 2.0045454545454544,
                "end_time": 2.1386363636363637,
                "pitch": 62,
                "velocity": 40,
                "duration": 0.13409090909090926,
                "tempo": 120.0
            },
            {
                "start_time": 2.1386363636363637,
                "end_time": 2.2727272727272725,
                "pitch": 47,
                "velocity": 40,
                "duration": 0.13409090909090882,
                "tempo": 120.0
            },
            {
                "start_time": 2.2727272727272725,
                "end_time": 2.3909090909090907,
                "pitch": 47,
                "velocity": 40,
                "duration": 0.11818181818181817,
                "tempo": 120.0
            },
            {
                "start_time": 2.3909090909090907,
                "end_time": 2.5227272727272725,
                "pitch": 51,
                "velocity": 40,
                "duration": 0.13181818181818183,
                "tempo": 120.0
            },
            {
                "start_time": 2.5227272727272725,
                "end_time": 2.6568181818181817,
                "pitch": 51,
                "velocity": 40,
                "duration": 0.13409090909090926,
                "tempo": 120.0
            },
            {
                "start_time": 2.6568181818181817,
                "end_time": 2.775,
                "pitch": 57,
                "velocity": 40,
                "duration": 0.11818181818181817,
                "tempo": 120.0
            },
            {
                "start_time": 2.775,
                "end_time": 2.9068181818181817,
                "pitch": 57,
                "velocity": 40,
                "duration": 0.13181818181818183,
                "tempo": 120.0
            },
            {
                "start_time": 2.9068181818181817,
                "end_time": 2.909090909090909,
                "pitch": 57,
                "velocity": 40,
                "duration": 0.002272727272727426,
                "tempo": 120.0
            },
            {
                "start_time": 2.909090909090909,
                "end_time": 3.0409090909090906,
                "pitch": 62,
                "velocity": 40,
                "duration": 0.1318181818181814,
                "tempo": 120.0
            },
            {
                "start_time": 3.0409090909090906,
                "end_time": 3.1590909090909087,
                "pitch": 62,
                "velocity": 40,
                "duration": 0.11818181818181817,
                "tempo": 120.0
            },
            {
                "start_time": 3.1590909090909087,
                "end_time": 3.293181818181818,
                "pitch": 47,
                "velocity": 40,
                "duration": 0.13409090909090926,
                "tempo": 120.0
            },
            {
                "start_time": 3.293181818181818,
                "end_time": 3.425,
                "pitch": 47,
                "velocity": 40,
                "duration": 0.13181818181818183,
                "tempo": 120.0
            },
            {
                "start_time": 3.425,
                "end_time": 3.559090909090909,
                "pitch": 51,
                "velocity": 40,
                "duration": 0.13409090909090926,
                "tempo": 120.0
            },
            {
                "start_time": 3.559090909090909,
                "end_time": 3.6772727272727272,
                "pitch": 63,
                "velocity": 40,
                "duration": 0.11818181818181817,
                "tempo": 120.0
            },
            {
                "start_time": 3.6772727272727272,
                "end_time": 3.811363636363636,
                "pitch": 62,
                "velocity": 40,
                "duration": 0.13409090909090882,
                "tempo": 120.0
            },
            {
                "start_time": 3.811363636363636,
                "end_time": 3.943181818181818,
                "pitch": 61,
                "velocity": 40,
                "duration": 0.13181818181818183,
                "tempo": 120.0
            },
            {
                "start_time": 3.943181818181818,
                "end_time": 4.0613636363636365,
                "pitch": 57,
                "velocity": 40,
                "duration": 0.11818181818181861,
                "tempo": 120.0
            },
            {
                "start_time": 4.0613636363636365,
                "end_time": 4.195454545454545,
                "pitch": 54,
                "velocity": 40,
                "duration": 0.13409090909090882,
                "tempo": 120.0
            },
            {
                "start_time": 4.195454545454545,
                "end_time": 4.329545454545454,
                "pitch": 47,
                "velocity": 40,
                "duration": 0.13409090909090882,
                "tempo": 120.0
            },
            {
                "start_time": 4.329545454545454,
                "end_time": 4.447727272727272,
                "pitch": 47,
                "velocity": 40,
                "duration": 0.11818181818181817,
                "tempo": 120.0
            },
            {
                "start_time": 4.447727272727272,
                "end_time": 4.584090909090909,
                "pitch": 51,
                "velocity": 40,
                "duration": 0.1363636363636367,
                "tempo": 120.0
            },
            {
                "start_time": 4.584090909090909,
                "end_time": 4.720454545454545,
                "pitch": 51,
                "velocity": 40,
                "duration": 0.1363636363636358,
                "tempo": 120.0
            },
            {
                "start_time": 4.720454545454545,
                "end_time": 4.838636363636363,
                "pitch": 57,
                "velocity": 40,
                "duration": 0.11818181818181817,
                "tempo": 120.0
            },
            {
                "start_time": 4.838636363636363,
                "end_time": 4.968181818181818,
                "pitch": 57,
                "velocity": 40,
                "duration": 0.12954545454545485,
                "tempo": 120.0
            },
            {
                "start_time": 4.968181818181818,
                "end_time": 5.1,
                "pitch": 62,
                "velocity": 40,
                "duration": 0.13181818181818183,
                "tempo": 120.0
            },
            {
                "start_time": 5.1,
                "end_time": 5.213636363636363,
                "pitch": 62,
                "velocity": 40,
                "duration": 0.11363636363636331,
                "tempo": 120.0
            },
            {
                "start_time": 5.213636363636363,
                "end_time": 5.343181818181818,
                "pitch": 47,
                "velocity": 40,
                "duration": 0.12954545454545485,
                "tempo": 120.0
            },
            {
                "start_time": 5.343181818181818,
                "end_time": 5.4795454545454545,
                "pitch": 47,
                "velocity": 40,
                "duration": 0.1363636363636367,
                "tempo": 120.0
            },
            {
                "start_time": 5.4795454545454545,
                "end_time": 5.597727272727273,
                "pitch": 51,
                "velocity": 40,
                "duration": 0.11818181818181817,
                "tempo": 120.0
            },
            {
                "start_time": 5.597727272727273,
                "end_time": 5.7340909090909085,
                "pitch": 51,
                "velocity": 40,
                "duration": 0.1363636363636358,
                "tempo": 120.0
            },
            {
                "start_time": 4.968181818181818,
                "end_time": 5.870454545454545,
                "pitch": 57,
                "velocity": 40,
                "duration": 0.9022727272727273,
                "tempo": 120.0
            },
            {
                "start_time": 5.7340909090909085,
                "end_time": 5.870454545454545,
                "pitch": 57,
                "velocity": 40,
                "duration": 0.1363636363636367,
                "tempo": 120.0
            },
            {
                "start_time": 5.870454545454545,
                "end_time": 5.986363636363636,
                "pitch": 57,
                "velocity": 40,
                "duration": 0.11590909090909118,
                "tempo": 120.0
            },
            {
                "start_time": 5.986363636363636,
                "end_time": 6.120454545454545,
                "pitch": 62,
                "velocity": 40,
                "duration": 0.13409090909090882,
                "tempo": 120.0
            },
            {
                "start_time": 2.1386363636363637,
                "end_time": 6.254545454545454,
                "pitch": 50,
                "velocity": 40,
                "duration": 4.11590909090909,
                "tempo": 120.0
            },
            {
                "start_time": 6.120454545454545,
                "end_time": 6.254545454545454,
                "pitch": 62,
                "velocity": 40,
                "duration": 0.13409090909090882,
                "tempo": 120.0
            },
            {
                "start_time": 5.4795454545454545,
                "end_time": 6.372727272727272,
                "pitch": 47,
                "velocity": 40,
                "duration": 0.8931818181818176,
                "tempo": 120.0
            },
            {
                "start_time": 6.254545454545454,
                "end_time": 6.372727272727272,
                "pitch": 47,
                "velocity": 40,
                "duration": 0.11818181818181817,
                "tempo": 120.0
            },
            {
                "start_time": 6.372727272727272,
                "end_time": 6.5,
                "pitch": 47,
                "velocity": 40,
                "duration": 0.12727272727272787,
                "tempo": 120.0
            },
            {
                "start_time": 6.5,
                "end_time": 6.627272727272727,
                "pitch": 51,
                "velocity": 40,
                "duration": 0.12727272727272698,
                "tempo": 120.0
            },
            {
                "start_time": 6.627272727272727,
                "end_time": 6.756818181818182,
                "pitch": 51,
                "velocity": 40,
                "duration": 0.12954545454545485,
                "tempo": 120.0
            },
            {
                "start_time": 6.756818181818182,
                "end_time": 6.868181818181818,
                "pitch": 57,
                "velocity": 40,
                "duration": 0.11136363636363633,
                "tempo": 120.0
            },
            {
                "start_time": 6.868181818181818,
                "end_time": 7.004545454545454,
                "pitch": 57,
                "velocity": 40,
                "duration": 0.1363636363636358,
                "tempo": 120.0
            },
            {
                "start_time": 7.004545454545454,
                "end_time": 7.140909090909091,
                "pitch": 62,
                "velocity": 40,
                "duration": 0.1363636363636367,
                "tempo": 120.0
            },
            {
                "start_time": 7.140909090909091,
                "end_time": 7.259090909090909,
                "pitch": 62,
                "velocity": 40,
                "duration": 0.11818181818181817,
                "tempo": 120.0
            },
            {
                "start_time": 7.259090909090909,
                "end_time": 7.3954545454545455,
                "pitch": 47,
                "velocity": 40,
                "duration": 0.1363636363636367,
                "tempo": 120.0
            },
            {
                "start_time": 7.3954545454545455,
                "end_time": 7.531818181818181,
                "pitch": 47,
                "velocity": 40,
                "duration": 0.1363636363636358,
                "tempo": 120.0
            },
            {
                "start_time": 7.531818181818181,
                "end_time": 7.6499999999999995,
                "pitch": 51,
                "velocity": 40,
                "duration": 0.11818181818181817,
                "tempo": 120.0
            },
            {
                "start_time": 5.7340909090909085,
                "end_time": 7.786363636363636,
                "pitch": 63,
                "velocity": 40,
                "duration": 2.0522727272727277,
                "tempo": 120.0
            },
            {
                "start_time": 7.6499999999999995,
                "end_time": 7.786363636363636,
                "pitch": 63,
                "velocity": 40,
                "duration": 0.1363636363636367,
                "tempo": 120.0
            },
            {
                "start_time": 7.786363636363636,
                "end_time": 7.922727272727272,
                "pitch": 62,
                "velocity": 40,
                "duration": 0.1363636363636358,
                "tempo": 120.0
            },
            {
                "start_time": 7.922727272727272,
                "end_time": 8.038636363636364,
                "pitch": 61,
                "velocity": 40,
                "duration": 0.11590909090909207,
                "tempo": 120.0
            },
            {
                "start_time": 7.004545454545454,
                "end_time": 8.172727272727272,
                "pitch": 57,
                "velocity": 40,
                "duration": 1.168181818181818,
                "tempo": 120.0
            },
            {
                "start_time": 8.038636363636364,
                "end_time": 8.172727272727272,
                "pitch": 57,
                "velocity": 40,
                "duration": 0.13409090909090793,
                "tempo": 120.0
            },
            {
                "start_time": 4.195454545454545,
                "end_time": 8.306818181818182,
                "pitch": 54,
                "velocity": 40,
                "duration": 4.111363636363636,
                "tempo": 120.0
            },
            {
                "start_time": 8.172727272727272,
                "end_time": 8.306818181818182,
                "pitch": 54,
                "velocity": 40,
                "duration": 0.1340909090909097,
                "tempo": 120.0
            },
            {
                "start_time": 8.306818181818182,
                "end_time": 8.422727272727272,
                "pitch": 45,
                "velocity": 40,
                "duration": 0.1159090909090903,
                "tempo": 120.0
            },
            {
                "start_time": 8.422727272727272,
                "end_time": 8.554545454545455,
                "pitch": 45,
                "velocity": 40,
                "duration": 0.13181818181818272,
                "tempo": 120.0
            },
            {
                "start_time": 8.554545454545455,
                "end_time": 8.684090909090909,
                "pitch": 45,
                "velocity": 40,
                "duration": 0.12954545454545396,
                "tempo": 120.0
            },
            {
                "start_time": 8.684090909090909,
                "end_time": 8.797727272727272,
                "pitch": 49,
                "velocity": 40,
                "duration": 0.11363636363636331,
                "tempo": 120.0
            },
            {
                "start_time": 8.797727272727272,
                "end_time": 8.929545454545455,
                "pitch": 49,
                "velocity": 40,
                "duration": 0.13181818181818272,
                "tempo": 120.0
            },
            {
                "start_time": 8.929545454545455,
                "end_time": 9.063636363636363,
                "pitch": 49,
                "velocity": 40,
                "duration": 0.13409090909090793,
                "tempo": 120.0
            },
            {
                "start_time": 9.063636363636363,
                "end_time": 9.184090909090909,
                "pitch": 55,
                "velocity": 40,
                "duration": 0.12045454545454604,
                "tempo": 120.0
            },
            {
                "start_time": 9.184090909090909,
                "end_time": 9.320454545454545,
                "pitch": 55,
                "velocity": 40,
                "duration": 0.1363636363636367,
                "tempo": 120.0
            },
            {
                "start_time": 9.320454545454545,
                "end_time": 9.454545454545453,
                "pitch": 55,
                "velocity": 40,
                "duration": 0.13409090909090793,
                "tempo": 120.0
            },
            {
                "start_time": 3.943181818181818,
                "end_time": 9.572727272727272,
                "pitch": 59,
                "velocity": 40,
                "duration": 5.629545454545454,
                "tempo": 120.0
            },
            {
                "start_time": 9.454545454545453,
                "end_time": 9.572727272727272,
                "pitch": 59,
                "velocity": 40,
                "duration": 0.11818181818181905,
                "tempo": 120.0
            },
            {
                "start_time": 9.572727272727272,
                "end_time": 9.706818181818182,
                "pitch": 59,
                "velocity": 40,
                "duration": 0.1340909090909097,
                "tempo": 120.0
            },
            {
                "start_time": 9.706818181818182,
                "end_time": 9.84090909090909,
                "pitch": 59,
                "velocity": 40,
                "duration": 0.13409090909090793,
                "tempo": 120.0
            },
            {
                "start_time": 9.84090909090909,
                "end_time": 9.972727272727273,
                "pitch": 57,
                "velocity": 40,
                "duration": 0.13181818181818272,
                "tempo": 120.0
            },
            {
                "start_time": 9.972727272727273,
                "end_time": 10.093181818181817,
                "pitch": 57,
                "velocity": 40,
                "duration": 0.12045454545454426,
                "tempo": 120.0
            },
            {
                "start_time": 10.093181818181817,
                "end_time": 10.229545454545454,
                "pitch": 57,
                "velocity": 40,
                "duration": 0.1363636363636367,
                "tempo": 120.0
            },
            {
                "start_time": 9.063636363636363,
                "end_time": 10.363636363636363,
                "pitch": 61,
                "velocity": 40,
                "duration": 1.3000000000000007,
                "tempo": 120.0
            },
            {
                "start_time": 10.229545454545454,
                "end_time": 10.363636363636363,
                "pitch": 61,
                "velocity": 40,
                "duration": 0.1340909090909097,
                "tempo": 120.0
            },
            {
                "start_time": 10.363636363636363,
                "end_time": 10.48409090909091,
                "pitch": 61,
                "velocity": 40,
                "duration": 0.12045454545454604,
                "tempo": 120.0
            },
            {
                "start_time": 10.48409090909091,
                "end_time": 10.611363636363636,
                "pitch": 61,
                "velocity": 40,
                "duration": 0.12727272727272698,
                "tempo": 120.0
            },
            {
                "start_time": 10.611363636363636,
                "end_time": 10.74090909090909,
                "pitch": 67,
                "velocity": 40,
                "duration": 0.12954545454545396,
                "tempo": 120.0
            },
            {
                "start_time": 10.74090909090909,
                "end_time": 10.852272727272727,
                "pitch": 67,
                "velocity": 40,
                "duration": 0.11136363636363633,
                "tempo": 120.0
            },
            {
                "start_time": 10.852272727272727,
                "end_time": 10.979545454545454,
                "pitch": 67,
                "velocity": 40,
                "duration": 0.12727272727272698,
                "tempo": 120.0
            },
            {
                "start_time": 10.979545454545454,
                "end_time": 11.11590909090909,
                "pitch": 71,
                "velocity": 40,
                "duration": 0.1363636363636367,
                "tempo": 120.0
            },
            {
                "start_time": 11.11590909090909,
                "end_time": 11.236363636363636,
                "pitch": 71,
                "velocity": 40,
                "duration": 0.12045454545454604,
                "tempo": 120.0
            },
            {
                "start_time": 11.236363636363636,
                "end_time": 11.370454545454544,
                "pitch": 71,
                "velocity": 40,
                "duration": 0.13409090909090793,
                "tempo": 120.0
            },
            {
                "start_time": 11.370454545454544,
                "end_time": 11.506818181818181,
                "pitch": 74,
                "velocity": 40,
                "duration": 0.1363636363636367,
                "tempo": 120.0
            },
            {
                "start_time": 11.506818181818181,
                "end_time": 11.625,
                "pitch": 74,
                "velocity": 40,
                "duration": 0.11818181818181905,
                "tempo": 120.0
            },
            {
                "start_time": 11.625,
                "end_time": 11.756818181818181,
                "pitch": 74,
                "velocity": 40,
                "duration": 0.13181818181818095,
                "tempo": 120.0
            },
            {
                "start_time": 11.756818181818181,
                "end_time": 11.89090909090909,
                "pitch": 81,
                "velocity": 40,
                "duration": 0.1340909090909097,
                "tempo": 120.0
            },
            {
                "start_time": 11.89090909090909,
                "end_time": 12.009090909090908,
                "pitch": 81,
                "velocity": 40,
                "duration": 0.11818181818181728,
                "tempo": 120.0
            },
            {
                "start_time": 12.009090909090908,
                "end_time": 12.138636363636364,
                "pitch": 81,
                "velocity": 40,
                "duration": 0.12954545454545574,
                "tempo": 120.0
            },
            {
                "start_time": 12.138636363636364,
                "end_time": 12.270454545454545,
                "pitch": 81,
                "velocity": 40,
                "duration": 0.13181818181818095,
                "tempo": 120.0
            },
            {
                "start_time": 12.270454545454545,
                "end_time": 15.863636363636363,
                "pitch": 81,
                "velocity": 40,
                "duration": 3.5931818181818187,
                "tempo": 120.0
            },
            {
                "start_time": 15.863636363636363,
                "end_time": 15.977272727272727,
                "pitch": 62,
                "velocity": 40,
                "duration": 0.11363636363636331,
                "tempo": 120.0
            },
            {
                "start_time": 15.977272727272727,
                "end_time": 16.10681818181818,
                "pitch": 62,
                "velocity": 40,
                "duration": 0.12954545454545396,
                "tempo": 120.0
            },
            {
                "start_time": 9.84090909090909,
                "end_time": 16.24090909090909,
                "pitch": 59,
                "velocity": 40,
                "duration": 6.399999999999999,
                "tempo": 120.0
            },
            {
                "start_time": 16.10681818181818,
                "end_time": 16.24090909090909,
                "pitch": 61,
                "velocity": 40,
                "duration": 0.13409090909090793,
                "tempo": 120.0
            },
            {
                "start_time": 10.229545454545454,
                "end_time": 16.375,
                "pitch": 57,
                "velocity": 40,
                "duration": 6.145454545454546,
                "tempo": 120.0
            },
            {
                "start_time": 16.24090909090909,
                "end_time": 16.375,
                "pitch": 57,
                "velocity": 40,
                "duration": 0.13409090909091148,
                "tempo": 120.0
            },
            {
                "start_time": 16.375,
                "end_time": 16.474999999999998,
                "pitch": 57,
                "velocity": 40,
                "duration": 0.09999999999999787,
                "tempo": 120.0
            }
        ],
        "Synth Bass 1": [
            {
                "start_time": 12.384090909090908,
                "end_time": 12.513636363636364,
                "pitch": 35,
                "velocity": 20,
                "duration": 0.12954545454545574,
                "tempo": 120.0
            },
            {
                "start_time": 12.513636363636364,
                "end_time": 12.649999999999999,
                "pitch": 35,
                "velocity": 20,
                "duration": 0.1363636363636349,
                "tempo": 120.0
            },
            {
                "start_time": 12.649999999999999,
                "end_time": 12.768181818181818,
                "pitch": 47,
                "velocity": 20,
                "duration": 0.11818181818181905,
                "tempo": 120.0
            },
            {
                "start_time": 12.768181818181818,
                "end_time": 12.904545454545454,
                "pitch": 35,
                "velocity": 20,
                "duration": 0.1363636363636367,
                "tempo": 120.0
            },
            {
                "start_time": 12.904545454545454,
                "end_time": 13.040909090909091,
                "pitch": 35,
                "velocity": 20,
                "duration": 0.1363636363636367,
                "tempo": 120.0
            },
            {
                "start_time": 12.384090909090908,
                "end_time": 13.177272727272726,
                "pitch": 33,
                "velocity": 20,
                "duration": 0.793181818181818,
                "tempo": 120.0
            },
            {
                "start_time": 13.040909090909091,
                "end_time": 13.177272727272726,
                "pitch": 45,
                "velocity": 20,
                "duration": 0.1363636363636349,
                "tempo": 120.0
            },
            {
                "start_time": 13.177272727272726,
                "end_time": 13.295454545454545,
                "pitch": 35,
                "velocity": 20,
                "duration": 0.11818181818181905,
                "tempo": 120.0
            },
            {
                "start_time": 13.295454545454545,
                "end_time": 13.431818181818182,
                "pitch": 35,
                "velocity": 20,
                "duration": 0.1363636363636367,
                "tempo": 120.0
            },
            {
                "start_time": 13.040909090909091,
                "end_time": 13.568181818181818,
                "pitch": 47,
                "velocity": 20,
                "duration": 0.5272727272727273,
                "tempo": 120.0
            },
            {
                "start_time": 13.431818181818182,
                "end_time": 13.568181818181818,
                "pitch": 47,
                "velocity": 20,
                "duration": 0.1363636363636367,
                "tempo": 120.0
            },
            {
                "start_time": 13.568181818181818,
                "end_time": 13.684090909090909,
                "pitch": 35,
                "velocity": 20,
                "duration": 0.1159090909090903,
                "tempo": 120.0
            },
            {
                "start_time": 13.684090909090909,
                "end_time": 13.818181818181818,
                "pitch": 35,
                "velocity": 20,
                "duration": 0.1340909090909097,
                "tempo": 120.0
            },
            {
                "start_time": 13.818181818181818,
                "end_time": 13.952272727272726,
                "pitch": 45,
                "velocity": 20,
                "duration": 0.13409090909090793,
                "tempo": 120.0
            },
            {
                "start_time": 13.952272727272726,
                "end_time": 14.068181818181818,
                "pitch": 35,
                "velocity": 20,
                "duration": 0.11590909090909207,
                "tempo": 120.0
            },
            {
                "start_time": 14.068181818181818,
                "end_time": 14.2,
                "pitch": 35,
                "velocity": 20,
                "duration": 0.13181818181818095,
                "tempo": 120.0
            },
            {
                "start_time": 13.818181818181818,
                "end_time": 14.2,
                "pitch": 47,
                "velocity": 20,
                "duration": 0.38181818181818095,
                "tempo": 120.0
            },
            {
                "start_time": 14.2,
                "end_time": 14.329545454545453,
                "pitch": 44,
                "velocity": 20,
                "duration": 0.12954545454545396,
                "tempo": 120.0
            },
            {
                "start_time": 14.329545454545453,
                "end_time": 14.443181818181818,
                "pitch": 35,
                "velocity": 20,
                "duration": 0.11363636363636509,
                "tempo": 120.0
            },
            {
                "start_time": 14.443181818181818,
                "end_time": 14.575,
                "pitch": 35,
                "velocity": 20,
                "duration": 0.13181818181818095,
                "tempo": 120.0
            },
            {
                "start_time": 14.575,
                "end_time": 14.70681818181818,
                "pitch": 35,
                "velocity": 20,
                "duration": 0.13181818181818095,
                "tempo": 120.0
            },
            {
                "start_time": 14.2,
                "end_time": 14.825,
                "pitch": 47,
                "velocity": 20,
                "duration": 0.625,
                "tempo": 120.0
            },
            {
                "start_time": 14.709090909090909,
                "end_time": 14.825,
                "pitch": 47,
                "velocity": 20,
                "duration": 0.1159090909090903,
                "tempo": 120.0
            },
            {
                "start_time": 14.825,
                "end_time": 14.959090909090909,
                "pitch": 35,
                "velocity": 20,
                "duration": 0.1340909090909097,
                "tempo": 120.0
            },
            {
                "start_time": 14.959090909090909,
                "end_time": 15.093181818181817,
                "pitch": 35,
                "velocity": 20,
                "duration": 0.13409090909090793,
                "tempo": 120.0
            },
            {
                "start_time": 15.093181818181817,
                "end_time": 15.211363636363636,
                "pitch": 45,
                "velocity": 20,
                "duration": 0.11818181818181905,
                "tempo": 120.0
            },
            {
                "start_time": 15.211363636363636,
                "end_time": 15.347727272727273,
                "pitch": 35,
                "velocity": 20,
                "duration": 0.1363636363636367,
                "tempo": 120.0
            },
            {
                "start_time": 15.347727272727273,
                "end_time": 15.484090909090908,
                "pitch": 35,
                "velocity": 20,
                "duration": 0.1363636363636349,
                "tempo": 120.0
            },
            {
                "start_time": 15.093181818181817,
                "end_time": 15.602272727272727,
                "pitch": 47,
                "velocity": 20,
                "duration": 0.5090909090909097,
                "tempo": 120.0
            },
            {
                "start_time": 15.484090909090908,
                "end_time": 15.602272727272727,
                "pitch": 47,
                "velocity": 20,
                "duration": 0.11818181818181905,
                "tempo": 120.0
            },
            {
                "start_time": 15.602272727272727,
                "end_time": 15.734090909090908,
                "pitch": 35,
                "velocity": 20,
                "duration": 0.13181818181818095,
                "tempo": 120.0
            }
        ],
        "Electric Guitar (clean)": [
            {
                "start_time": 0.013636363636363636,
                "end_time": 0.11818181818181818,
                "pitch": 35,
                "velocity": 80,
                "duration": 0.10454545454545454,
                "tempo": 120.0
            },
            {
                "start_time": 0.11818181818181818,
                "end_time": 0.22272727272727272,
                "pitch": 35,
                "velocity": 80,
                "duration": 0.10454545454545454,
                "tempo": 120.0
            },
            {
                "start_time": 0.22272727272727272,
                "end_time": 0.35454545454545455,
                "pitch": 47,
                "velocity": 80,
                "duration": 0.13181818181818183,
                "tempo": 120.0
            },
            {
                "start_time": 0.35454545454545455,
                "end_time": 0.4727272727272727,
                "pitch": 35,
                "velocity": 80,
                "duration": 0.11818181818181817,
                "tempo": 120.0
            },
            {
                "start_time": 0.4727272727272727,
                "end_time": 0.6068181818181818,
                "pitch": 35,
                "velocity": 80,
                "duration": 0.1340909090909091,
                "tempo": 120.0
            },
            {
                "start_time": 0.6068181818181818,
                "end_time": 0.7386363636363636,
                "pitch": 45,
                "velocity": 80,
                "duration": 0.13181818181818183,
                "tempo": 120.0
            },
            {
                "start_time": 0.7386363636363636,
                "end_time": 0.859090909090909,
                "pitch": 35,
                "velocity": 80,
                "duration": 0.12045454545454537,
                "tempo": 120.0
            },
            {
                "start_time": 0.859090909090909,
                "end_time": 0.9954545454545454,
                "pitch": 35,
                "velocity": 80,
                "duration": 0.13636363636363635,
                "tempo": 120.0
            },
            {
                "start_time": 0.9954545454545454,
                "end_time": 1.1295454545454544,
                "pitch": 47,
                "velocity": 80,
                "duration": 0.13409090909090904,
                "tempo": 120.0
            },
            {
                "start_time": 1.1295454545454544,
                "end_time": 1.25,
                "pitch": 35,
                "velocity": 80,
                "duration": 0.12045454545454559,
                "tempo": 120.0
            },
            {
                "start_time": 1.25,
                "end_time": 1.3795454545454544,
                "pitch": 35,
                "velocity": 80,
                "duration": 0.1295454545454544,
                "tempo": 120.0
            },
            {
                "start_time": 0.7386363636363636,
                "end_time": 1.5113636363636362,
                "pitch": 33,
                "velocity": 80,
                "duration": 0.7727272727272726,
                "tempo": 120.0
            },
            {
                "start_time": 1.3795454545454544,
                "end_time": 1.5113636363636362,
                "pitch": 45,
                "velocity": 80,
                "duration": 0.13181818181818183,
                "tempo": 120.0
            },
            {
                "start_time": 1.5113636363636362,
                "end_time": 1.625,
                "pitch": 35,
                "velocity": 80,
                "duration": 0.11363636363636376,
                "tempo": 120.0
            },
            {
                "start_time": 1.625,
                "end_time": 1.7545454545454544,
                "pitch": 35,
                "velocity": 80,
                "duration": 0.1295454545454544,
                "tempo": 120.0
            },
            {
                "start_time": 1.7545454545454544,
                "end_time": 1.8886363636363634,
                "pitch": 44,
                "velocity": 80,
                "duration": 0.13409090909090904,
                "tempo": 120.0
            },
            {
                "start_time": 1.8886363636363634,
                "end_time": 2.0045454545454544,
                "pitch": 35,
                "velocity": 80,
                "duration": 0.11590909090909096,
                "tempo": 120.0
            },
            {
                "start_time": 2.0045454545454544,
                "end_time": 2.1386363636363637,
                "pitch": 35,
                "velocity": 80,
                "duration": 0.13409090909090926,
                "tempo": 120.0
            },
            {
                "start_time": 2.1386363636363637,
                "end_time": 2.2727272727272725,
                "pitch": 35,
                "velocity": 80,
                "duration": 0.13409090909090882,
                "tempo": 120.0
            },
            {
                "start_time": 1.7545454545454544,
                "end_time": 2.3909090909090907,
                "pitch": 47,
                "velocity": 80,
                "duration": 0.6363636363636362,
                "tempo": 120.0
            },
            {
                "start_time": 2.2727272727272725,
                "end_time": 2.3909090909090907,
                "pitch": 47,
                "velocity": 80,
                "duration": 0.11818181818181817,
                "tempo": 120.0
            },
            {
                "start_time": 2.3909090909090907,
                "end_time": 2.5227272727272725,
                "pitch": 35,
                "velocity": 80,
                "duration": 0.13181818181818183,
                "tempo": 120.0
            },
            {
                "start_time": 2.5227272727272725,
                "end_time": 2.6568181818181817,
                "pitch": 35,
                "velocity": 80,
                "duration": 0.13409090909090926,
                "tempo": 120.0
            },
            {
                "start_time": 1.5113636363636362,
                "end_time": 2.775,
                "pitch": 33,
                "velocity": 80,
                "duration": 1.2636363636363637,
                "tempo": 120.0
            },
            {
                "start_time": 2.6568181818181817,
                "end_time": 2.775,
                "pitch": 45,
                "velocity": 80,
                "duration": 0.11818181818181817,
                "tempo": 120.0
            },
            {
                "start_time": 2.775,
                "end_time": 2.909090909090909,
                "pitch": 35,
                "velocity": 80,
                "duration": 0.13409090909090926,
                "tempo": 120.0
            },
            {
                "start_time": 2.909090909090909,
                "end_time": 3.0409090909090906,
                "pitch": 35,
                "velocity": 80,
                "duration": 0.1318181818181814,
                "tempo": 120.0
            },
            {
                "start_time": 3.0409090909090906,
                "end_time": 3.1590909090909087,
                "pitch": 47,
                "velocity": 80,
                "duration": 0.11818181818181817,
                "tempo": 120.0
            },
            {
                "start_time": 3.1590909090909087,
                "end_time": 3.293181818181818,
                "pitch": 35,
                "velocity": 80,
                "duration": 0.13409090909090926,
                "tempo": 120.0
            },
            {
                "start_time": 3.293181818181818,
                "end_time": 3.4272727272727272,
                "pitch": 35,
                "velocity": 80,
                "duration": 0.13409090909090926,
                "tempo": 120.0
            },
            {
                "start_time": 3.4272727272727272,
                "end_time": 3.559090909090909,
                "pitch": 50,
                "velocity": 80,
                "duration": 0.13181818181818183,
                "tempo": 120.0
            },
            {
                "start_time": 3.559090909090909,
                "end_time": 3.6772727272727272,
                "pitch": 50,
                "velocity": 80,
                "duration": 0.11818181818181817,
                "tempo": 120.0
            },
            {
                "start_time": 3.4272727272727272,
                "end_time": 3.811363636363636,
                "pitch": 47,
                "velocity": 80,
                "duration": 0.3840909090909088,
                "tempo": 120.0
            },
            {
                "start_time": 3.6772727272727272,
                "end_time": 3.811363636363636,
                "pitch": 49,
                "velocity": 80,
                "duration": 0.13409090909090882,
                "tempo": 120.0
            },
            {
                "start_time": 2.775,
                "end_time": 3.943181818181818,
                "pitch": 33,
                "velocity": 80,
                "duration": 1.168181818181818,
                "tempo": 120.0
            },
            {
                "start_time": 3.811363636363636,
                "end_time": 3.943181818181818,
                "pitch": 45,
                "velocity": 80,
                "duration": 0.13181818181818183,
                "tempo": 120.0
            },
            {
                "start_time": 3.943181818181818,
                "end_time": 4.0613636363636365,
                "pitch": 42,
                "velocity": 80,
                "duration": 0.11818181818181861,
                "tempo": 120.0
            },
            {
                "start_time": 4.0613636363636365,
                "end_time": 4.195454545454545,
                "pitch": 35,
                "velocity": 80,
                "duration": 0.13409090909090882,
                "tempo": 120.0
            },
            {
                "start_time": 4.195454545454545,
                "end_time": 4.329545454545454,
                "pitch": 35,
                "velocity": 80,
                "duration": 0.13409090909090882,
                "tempo": 120.0
            },
            {
                "start_time": 3.811363636363636,
                "end_time": 4.447727272727272,
                "pitch": 47,
                "velocity": 80,
                "duration": 0.6363636363636362,
                "tempo": 120.0
            },
            {
                "start_time": 4.329545454545454,
                "end_time": 4.447727272727272,
                "pitch": 47,
                "velocity": 80,
                "duration": 0.11818181818181817,
                "tempo": 120.0
            },
            {
                "start_time": 4.447727272727272,
                "end_time": 4.584090909090909,
                "pitch": 35,
                "velocity": 80,
                "duration": 0.1363636363636367,
                "tempo": 120.0
            },
            {
                "start_time": 4.584090909090909,
                "end_time": 4.720454545454545,
                "pitch": 35,
                "velocity": 80,
                "duration": 0.1363636363636358,
                "tempo": 120.0
            },
            {
                "start_time": 3.943181818181818,
                "end_time": 4.838636363636363,
                "pitch": 33,
                "velocity": 80,
                "duration": 0.8954545454545451,
                "tempo": 120.0
            },
            {
                "start_time": 4.720454545454545,
                "end_time": 4.838636363636363,
                "pitch": 45,
                "velocity": 80,
                "duration": 0.11818181818181817,
                "tempo": 120.0
            },
            {
                "start_time": 4.838636363636363,
                "end_time": 4.968181818181818,
                "pitch": 35,
                "velocity": 80,
                "duration": 0.12954545454545485,
                "tempo": 120.0
            },
            {
                "start_time": 4.968181818181818,
                "end_time": 5.1,
                "pitch": 35,
                "velocity": 80,
                "duration": 0.13181818181818183,
                "tempo": 120.0
            },
            {
                "start_time": 5.1,
                "end_time": 5.213636363636363,
                "pitch": 47,
                "velocity": 80,
                "duration": 0.11363636363636331,
                "tempo": 120.0
            },
            {
                "start_time": 5.213636363636363,
                "end_time": 5.343181818181818,
                "pitch": 35,
                "velocity": 80,
                "duration": 0.12954545454545485,
                "tempo": 120.0
            },
            {
                "start_time": 5.343181818181818,
                "end_time": 5.4795454545454545,
                "pitch": 35,
                "velocity": 80,
                "duration": 0.1363636363636367,
                "tempo": 120.0
            },
            {
                "start_time": 4.838636363636363,
                "end_time": 5.597727272727273,
                "pitch": 33,
                "velocity": 80,
                "duration": 0.7590909090909097,
                "tempo": 120.0
            },
            {
                "start_time": 5.4795454545454545,
                "end_time": 5.597727272727273,
                "pitch": 45,
                "velocity": 80,
                "duration": 0.11818181818181817,
                "tempo": 120.0
            },
            {
                "start_time": 5.597727272727273,
                "end_time": 5.7340909090909085,
                "pitch": 35,
                "velocity": 80,
                "duration": 0.1363636363636358,
                "tempo": 120.0
            },
            {
                "start_time": 5.7340909090909085,
                "end_time": 5.870454545454545,
                "pitch": 35,
                "velocity": 80,
                "duration": 0.1363636363636367,
                "tempo": 120.0
            },
            {
                "start_time": 5.4795454545454545,
                "end_time": 5.870454545454545,
                "pitch": 47,
                "velocity": 80,
                "duration": 0.39090909090909065,
                "tempo": 120.0
            },
            {
                "start_time": 5.870454545454545,
                "end_time": 5.986363636363636,
                "pitch": 44,
                "velocity": 80,
                "duration": 0.11590909090909118,
                "tempo": 120.0
            },
            {
                "start_time": 5.988636363636363,
                "end_time": 6.120454545454545,
                "pitch": 35,
                "velocity": 80,
                "duration": 0.13181818181818183,
                "tempo": 120.0
            },
            {
                "start_time": 6.120454545454545,
                "end_time": 6.254545454545454,
                "pitch": 35,
                "velocity": 80,
                "duration": 0.13409090909090882,
                "tempo": 120.0
            },
            {
                "start_time": 6.254545454545454,
                "end_time": 6.372727272727272,
                "pitch": 35,
                "velocity": 80,
                "duration": 0.11818181818181817,
                "tempo": 120.0
            },
            {
                "start_time": 5.870454545454545,
                "end_time": 6.5,
                "pitch": 47,
                "velocity": 80,
                "duration": 0.6295454545454549,
                "tempo": 120.0
            },
            {
                "start_time": 6.372727272727272,
                "end_time": 6.5,
                "pitch": 47,
                "velocity": 80,
                "duration": 0.12727272727272787,
                "tempo": 120.0
            },
            {
                "start_time": 6.5,
                "end_time": 6.627272727272727,
                "pitch": 35,
                "velocity": 80,
                "duration": 0.12727272727272698,
                "tempo": 120.0
            },
            {
                "start_time": 6.627272727272727,
                "end_time": 6.756818181818182,
                "pitch": 35,
                "velocity": 80,
                "duration": 0.12954545454545485,
                "tempo": 120.0
            },
            {
                "start_time": 5.597727272727273,
                "end_time": 6.868181818181818,
                "pitch": 33,
                "velocity": 80,
                "duration": 1.2704545454545455,
                "tempo": 120.0
            },
            {
                "start_time": 6.756818181818182,
                "end_time": 6.868181818181818,
                "pitch": 45,
                "velocity": 80,
                "duration": 0.11136363636363633,
                "tempo": 120.0
            },
            {
                "start_time": 6.868181818181818,
                "end_time": 7.004545454545454,
                "pitch": 35,
                "velocity": 80,
                "duration": 0.1363636363636358,
                "tempo": 120.0
            },
            {
                "start_time": 7.004545454545454,
                "end_time": 7.140909090909091,
                "pitch": 35,
                "velocity": 80,
                "duration": 0.1363636363636367,
                "tempo": 120.0
            },
            {
                "start_time": 7.140909090909091,
                "end_time": 7.259090909090909,
                "pitch": 47,
                "velocity": 80,
                "duration": 0.11818181818181817,
                "tempo": 120.0
            },
            {
                "start_time": 7.259090909090909,
                "end_time": 7.3954545454545455,
                "pitch": 35,
                "velocity": 80,
                "duration": 0.1363636363636367,
                "tempo": 120.0
            },
            {
                "start_time": 7.3954545454545455,
                "end_time": 7.531818181818181,
                "pitch": 35,
                "velocity": 80,
                "duration": 0.1363636363636358,
                "tempo": 120.0
            },
            {
                "start_time": 7.531818181818181,
                "end_time": 7.6499999999999995,
                "pitch": 50,
                "velocity": 80,
                "duration": 0.11818181818181817,
                "tempo": 120.0
            },
            {
                "start_time": 7.6499999999999995,
                "end_time": 7.786363636363636,
                "pitch": 50,
                "velocity": 80,
                "duration": 0.1363636363636367,
                "tempo": 120.0
            },
            {
                "start_time": 7.531818181818181,
                "end_time": 7.922727272727272,
                "pitch": 47,
                "velocity": 80,
                "duration": 0.39090909090909065,
                "tempo": 120.0
            },
            {
                "start_time": 7.786363636363636,
                "end_time": 7.922727272727272,
                "pitch": 49,
                "velocity": 80,
                "duration": 0.1363636363636358,
                "tempo": 120.0
            },
            {
                "start_time": 6.868181818181818,
                "end_time": 8.038636363636364,
                "pitch": 33,
                "velocity": 80,
                "duration": 1.1704545454545459,
                "tempo": 120.0
            },
            {
                "start_time": 7.922727272727272,
                "end_time": 8.038636363636364,
                "pitch": 45,
                "velocity": 80,
                "duration": 0.11590909090909207,
                "tempo": 120.0
            },
            {
                "start_time": 4.0613636363636365,
                "end_time": 8.172727272727272,
                "pitch": 42,
                "velocity": 80,
                "duration": 4.111363636363635,
                "tempo": 120.0
            },
            {
                "start_time": 8.038636363636364,
                "end_time": 8.172727272727272,
                "pitch": 42,
                "velocity": 80,
                "duration": 0.13409090909090793,
                "tempo": 120.0
            },
            {
                "start_time": 8.038636363636364,
                "end_time": 8.306818181818182,
                "pitch": 33,
                "velocity": 80,
                "duration": 0.26818181818181763,
                "tempo": 120.0
            },
            {
                "start_time": 8.172727272727272,
                "end_time": 8.306818181818182,
                "pitch": 33,
                "velocity": 80,
                "duration": 0.1340909090909097,
                "tempo": 120.0
            },
            {
                "start_time": 8.306818181818182,
                "end_time": 8.424999999999999,
                "pitch": 33,
                "velocity": 80,
                "duration": 0.11818181818181728,
                "tempo": 120.0
            },
            {
                "start_time": 8.424999999999999,
                "end_time": 8.554545454545455,
                "pitch": 45,
                "velocity": 80,
                "duration": 0.12954545454545574,
                "tempo": 120.0
            },
            {
                "start_time": 8.554545454545455,
                "end_time": 8.684090909090909,
                "pitch": 33,
                "velocity": 80,
                "duration": 0.12954545454545396,
                "tempo": 120.0
            },
            {
                "start_time": 8.684090909090909,
                "end_time": 8.797727272727272,
                "pitch": 33,
                "velocity": 80,
                "duration": 0.11363636363636331,
                "tempo": 120.0
            },
            {
                "start_time": 8.797727272727272,
                "end_time": 8.929545454545455,
                "pitch": 45,
                "velocity": 80,
                "duration": 0.13181818181818272,
                "tempo": 120.0
            },
            {
                "start_time": 0.013636363636363636,
                "end_time": 9.063636363636363,
                "pitch": 31,
                "velocity": 80,
                "duration": 9.049999999999999,
                "tempo": 120.0
            },
            {
                "start_time": 8.929545454545455,
                "end_time": 9.063636363636363,
                "pitch": 31,
                "velocity": 80,
                "duration": 0.13409090909090793,
                "tempo": 120.0
            },
            {
                "start_time": 9.063636363636363,
                "end_time": 9.184090909090909,
                "pitch": 33,
                "velocity": 80,
                "duration": 0.12045454545454604,
                "tempo": 120.0
            },
            {
                "start_time": 9.184090909090909,
                "end_time": 9.320454545454545,
                "pitch": 45,
                "velocity": 80,
                "duration": 0.1363636363636367,
                "tempo": 120.0
            },
            {
                "start_time": 9.320454545454545,
                "end_time": 9.456818181818182,
                "pitch": 33,
                "velocity": 80,
                "duration": 0.1363636363636367,
                "tempo": 120.0
            },
            {
                "start_time": 9.456818181818182,
                "end_time": 9.572727272727272,
                "pitch": 33,
                "velocity": 80,
                "duration": 0.1159090909090903,
                "tempo": 120.0
            },
            {
                "start_time": 9.572727272727272,
                "end_time": 9.706818181818182,
                "pitch": 45,
                "velocity": 80,
                "duration": 0.1340909090909097,
                "tempo": 120.0
            },
            {
                "start_time": 9.706818181818182,
                "end_time": 9.84090909090909,
                "pitch": 31,
                "velocity": 80,
                "duration": 0.13409090909090793,
                "tempo": 120.0
            },
            {
                "start_time": 9.84090909090909,
                "end_time": 9.975,
                "pitch": 33,
                "velocity": 80,
                "duration": 0.1340909090909097,
                "tempo": 120.0
            },
            {
                "start_time": 8.172727272727272,
                "end_time": 10.093181818181817,
                "pitch": 42,
                "velocity": 80,
                "duration": 1.920454545454545,
                "tempo": 120.0
            },
            {
                "start_time": 9.975,
                "end_time": 10.093181818181817,
                "pitch": 42,
                "velocity": 80,
                "duration": 0.11818181818181728,
                "tempo": 120.0
            },
            {
                "start_time": 10.093181818181817,
                "end_time": 10.229545454545454,
                "pitch": 33,
                "velocity": 80,
                "duration": 0.1363636363636367,
                "tempo": 120.0
            },
            {
                "start_time": 10.229545454545454,
                "end_time": 10.363636363636363,
                "pitch": 33,
                "velocity": 80,
                "duration": 0.1340909090909097,
                "tempo": 120.0
            },
            {
                "start_time": 10.363636363636363,
                "end_time": 10.48409090909091,
                "pitch": 33,
                "velocity": 80,
                "duration": 0.12045454545454604,
                "tempo": 120.0
            },
            {
                "start_time": 10.48409090909091,
                "end_time": 10.611363636363636,
                "pitch": 45,
                "velocity": 80,
                "duration": 0.12727272727272698,
                "tempo": 120.0
            },
            {
                "start_time": 10.611363636363636,
                "end_time": 10.74090909090909,
                "pitch": 33,
                "velocity": 80,
                "duration": 0.12954545454545396,
                "tempo": 120.0
            },
            {
                "start_time": 10.74090909090909,
                "end_time": 10.852272727272727,
                "pitch": 33,
                "velocity": 80,
                "duration": 0.11136363636363633,
                "tempo": 120.0
            },
            {
                "start_time": 10.852272727272727,
                "end_time": 10.98181818181818,
                "pitch": 45,
                "velocity": 80,
                "duration": 0.12954545454545396,
                "tempo": 120.0
            },
            {
                "start_time": 10.98181818181818,
                "end_time": 11.11590909090909,
                "pitch": 31,
                "velocity": 80,
                "duration": 0.1340909090909097,
                "tempo": 120.0
            },
            {
                "start_time": 11.11590909090909,
                "end_time": 11.236363636363636,
                "pitch": 33,
                "velocity": 80,
                "duration": 0.12045454545454604,
                "tempo": 120.0
            },
            {
                "start_time": 11.236363636363636,
                "end_time": 11.370454545454544,
                "pitch": 45,
                "velocity": 80,
                "duration": 0.13409090909090793,
                "tempo": 120.0
            },
            {
                "start_time": 11.370454545454544,
                "end_time": 11.506818181818181,
                "pitch": 33,
                "velocity": 80,
                "duration": 0.1363636363636367,
                "tempo": 120.0
            },
            {
                "start_time": 11.506818181818181,
                "end_time": 11.625,
                "pitch": 33,
                "velocity": 80,
                "duration": 0.11818181818181905,
                "tempo": 120.0
            },
            {
                "start_time": 11.625,
                "end_time": 11.759090909090908,
                "pitch": 48,
                "velocity": 80,
                "duration": 0.13409090909090793,
                "tempo": 120.0
            },
            {
                "start_time": 11.759090909090908,
                "end_time": 11.89090909090909,
                "pitch": 48,
                "velocity": 80,
                "duration": 0.13181818181818272,
                "tempo": 120.0
            },
            {
                "start_time": 11.625,
                "end_time": 12.009090909090908,
                "pitch": 45,
                "velocity": 80,
                "duration": 0.38409090909090793,
                "tempo": 120.0
            },
            {
                "start_time": 11.89090909090909,
                "end_time": 12.009090909090908,
                "pitch": 45,
                "velocity": 80,
                "duration": 0.11818181818181728,
                "tempo": 120.0
            },
            {
                "start_time": 12.009090909090908,
                "end_time": 12.138636363636364,
                "pitch": 45,
                "velocity": 80,
                "duration": 0.12954545454545574,
                "tempo": 120.0
            },
            {
                "start_time": 12.138636363636364,
                "end_time": 12.270454545454545,
                "pitch": 40,
                "velocity": 80,
                "duration": 0.13181818181818095,
                "tempo": 120.0
            },
            {
                "start_time": 12.270454545454545,
                "end_time": 12.384090909090908,
                "pitch": 35,
                "velocity": 80,
                "duration": 0.11363636363636331,
                "tempo": 120.0
            },
            {
                "start_time": 12.384090909090908,
                "end_time": 12.513636363636364,
                "pitch": 35,
                "velocity": 80,
                "duration": 0.12954545454545574,
                "tempo": 120.0
            },
            {
                "start_time": 7.922727272727272,
                "end_time": 12.649999999999999,
                "pitch": 47,
                "velocity": 80,
                "duration": 4.727272727272727,
                "tempo": 120.0
            },
            {
                "start_time": 12.513636363636364,
                "end_time": 12.649999999999999,
                "pitch": 47,
                "velocity": 80,
                "duration": 0.1363636363636349,
                "tempo": 120.0
            },
            {
                "start_time": 12.649999999999999,
                "end_time": 12.768181818181818,
                "pitch": 35,
                "velocity": 80,
                "duration": 0.11818181818181905,
                "tempo": 120.0
            },
            {
                "start_time": 12.768181818181818,
                "end_time": 12.904545454545454,
                "pitch": 35,
                "velocity": 80,
                "duration": 0.1363636363636367,
                "tempo": 120.0
            },
            {
                "start_time": 12.904545454545454,
                "end_time": 13.040909090909091,
                "pitch": 45,
                "velocity": 80,
                "duration": 0.1363636363636367,
                "tempo": 120.0
            },
            {
                "start_time": 13.040909090909091,
                "end_time": 13.177272727272726,
                "pitch": 35,
                "velocity": 80,
                "duration": 0.1363636363636349,
                "tempo": 120.0
            },
            {
                "start_time": 13.177272727272726,
                "end_time": 13.295454545454545,
                "pitch": 35,
                "velocity": 80,
                "duration": 0.11818181818181905,
                "tempo": 120.0
            },
            {
                "start_time": 13.295454545454545,
                "end_time": 13.431818181818182,
                "pitch": 47,
                "velocity": 80,
                "duration": 0.1363636363636367,
                "tempo": 120.0
            },
            {
                "start_time": 13.431818181818182,
                "end_time": 13.568181818181818,
                "pitch": 35,
                "velocity": 80,
                "duration": 0.1363636363636367,
                "tempo": 120.0
            },
            {
                "start_time": 13.568181818181818,
                "end_time": 13.684090909090909,
                "pitch": 35,
                "velocity": 80,
                "duration": 0.1159090909090903,
                "tempo": 120.0
            },
            {
                "start_time": 13.040909090909091,
                "end_time": 13.818181818181818,
                "pitch": 33,
                "velocity": 80,
                "duration": 0.7772727272727273,
                "tempo": 120.0
            },
            {
                "start_time": 13.684090909090909,
                "end_time": 13.818181818181818,
                "pitch": 45,
                "velocity": 80,
                "duration": 0.1340909090909097,
                "tempo": 120.0
            },
            {
                "start_time": 13.818181818181818,
                "end_time": 13.952272727272726,
                "pitch": 35,
                "velocity": 80,
                "duration": 0.13409090909090793,
                "tempo": 120.0
            },
            {
                "start_time": 13.952272727272726,
                "end_time": 14.068181818181818,
                "pitch": 35,
                "velocity": 80,
                "duration": 0.11590909090909207,
                "tempo": 120.0
            },
            {
                "start_time": 14.068181818181818,
                "end_time": 14.2,
                "pitch": 44,
                "velocity": 80,
                "duration": 0.13181818181818095,
                "tempo": 120.0
            },
            {
                "start_time": 14.2,
                "end_time": 14.329545454545453,
                "pitch": 35,
                "velocity": 80,
                "duration": 0.12954545454545396,
                "tempo": 120.0
            },
            {
                "start_time": 14.329545454545453,
                "end_time": 14.443181818181818,
                "pitch": 35,
                "velocity": 80,
                "duration": 0.11363636363636509,
                "tempo": 120.0
            },
            {
                "start_time": 14.443181818181818,
                "end_time": 14.575,
                "pitch": 35,
                "velocity": 80,
                "duration": 0.13181818181818095,
                "tempo": 120.0
            },
            {
                "start_time": 13.684090909090909,
                "end_time": 14.709090909090909,
                "pitch": 47,
                "velocity": 80,
                "duration": 1.0250000000000004,
                "tempo": 120.0
            },
            {
                "start_time": 14.575,
                "end_time": 14.709090909090909,
                "pitch": 47,
                "velocity": 80,
                "duration": 0.1340909090909097,
                "tempo": 120.0
            },
            {
                "start_time": 14.709090909090909,
                "end_time": 14.825,
                "pitch": 35,
                "velocity": 80,
                "duration": 0.1159090909090903,
                "tempo": 120.0
            },
            {
                "start_time": 14.825,
                "end_time": 14.959090909090909,
                "pitch": 35,
                "velocity": 80,
                "duration": 0.1340909090909097,
                "tempo": 120.0
            },
            {
                "start_time": 14.959090909090909,
                "end_time": 15.093181818181817,
                "pitch": 45,
                "velocity": 80,
                "duration": 0.13409090909090793,
                "tempo": 120.0
            },
            {
                "start_time": 15.093181818181817,
                "end_time": 15.211363636363636,
                "pitch": 35,
                "velocity": 80,
                "duration": 0.11818181818181905,
                "tempo": 120.0
            },
            {
                "start_time": 15.211363636363636,
                "end_time": 15.347727272727273,
                "pitch": 35,
                "velocity": 80,
                "duration": 0.1363636363636367,
                "tempo": 120.0
            },
            {
                "start_time": 14.959090909090909,
                "end_time": 15.484090909090908,
                "pitch": 47,
                "velocity": 80,
                "duration": 0.5249999999999986,
                "tempo": 120.0
            },
            {
                "start_time": 15.347727272727273,
                "end_time": 15.484090909090908,
                "pitch": 47,
                "velocity": 80,
                "duration": 0.1363636363636349,
                "tempo": 120.0
            },
            {
                "start_time": 15.484090909090908,
                "end_time": 15.602272727272727,
                "pitch": 35,
                "velocity": 80,
                "duration": 0.11818181818181905,
                "tempo": 120.0
            },
            {
                "start_time": 15.602272727272727,
                "end_time": 15.734090909090908,
                "pitch": 35,
                "velocity": 80,
                "duration": 0.13181818181818095,
                "tempo": 120.0
            },
            {
                "start_time": 15.734090909090908,
                "end_time": 15.863636363636363,
                "pitch": 50,
                "velocity": 80,
                "duration": 0.12954545454545574,
                "tempo": 120.0
            },
            {
                "start_time": 15.863636363636363,
                "end_time": 15.977272727272727,
                "pitch": 50,
                "velocity": 80,
                "duration": 0.11363636363636331,
                "tempo": 120.0
            },
            {
                "start_time": 15.734090909090908,
                "end_time": 16.10909090909091,
                "pitch": 47,
                "velocity": 80,
                "duration": 0.3750000000000018,
                "tempo": 120.0
            },
            {
                "start_time": 15.977272727272727,
                "end_time": 16.10909090909091,
                "pitch": 49,
                "velocity": 80,
                "duration": 0.13181818181818272,
                "tempo": 120.0
            },
            {
                "start_time": 13.818181818181818,
                "end_time": 16.24090909090909,
                "pitch": 33,
                "velocity": 80,
                "duration": 2.42272727272727,
                "tempo": 120.0
            },
            {
                "start_time": 16.10909090909091,
                "end_time": 16.24090909090909,
                "pitch": 45,
                "velocity": 80,
                "duration": 0.13181818181817917,
                "tempo": 120.0
            },
            {
                "start_time": 10.093181818181817,
                "end_time": 16.375,
                "pitch": 42,
                "velocity": 80,
                "duration": 6.281818181818183,
                "tempo": 120.0
            },
            {
                "start_time": 16.24090909090909,
                "end_time": 16.375,
                "pitch": 42,
                "velocity": 80,
                "duration": 0.13409090909091148,
                "tempo": 120.0
            },
            {
                "start_time": 16.375,
                "end_time": 16.474999999999998,
                "pitch": 35,
                "velocity": 80,
                "duration": 0.09999999999999787,
                "tempo": 120.0
            }
        ]
    }
}