{
    "track_id": "15 Last Boss",
    "mood": "angry",
    "instruments": {
        "Acoustic Bass": [
            {
                "start_time": 0.020454545454545454,
                "end_time": 0.21818181818181817,
                "pitch": 36,
                "velocity": 80,
                "duration": 0.19772727272727272,
                "tempo": 120.0
            },
            {
                "start_time": 0.21818181818181817,
                "end_time": 0.38636363636363635,
                "pitch": 41,
                "velocity": 80,
                "duration": 0.16818181818181818,
                "tempo": 120.0
            },
            {
                "start_time": 0.38636363636363635,
                "end_time": 0.5522727272727272,
                "pitch": 44,
                "velocity": 80,
                "duration": 0.1659090909090909,
                "tempo": 120.0
            },
            {
                "start_time": 0.5545454545454546,
                "end_time": 0.8886363636363636,
                "pitch": 48,
                "velocity": 80,
                "duration": 0.334090909090909,
                "tempo": 120.0
            },
            {
                "start_time": 0.8886363636363636,
                "end_time": 1.0613636363636363,
                "pitch": 41,
                "velocity": 80,
                "duration": 0.17272727272727273,
                "tempo": 120.0
            },
            {
                "start_time": 1.0613636363636363,
                "end_time": 1.2340909090909091,
                "pitch": 44,
                "velocity": 80,
                "duration": 0.17272727272727284,
                "tempo": 120.0
            },
            {
                "start_time": 1.2340909090909091,
                "end_time": 1.5681818181818181,
                "pitch": 48,
                "velocity": 80,
                "duration": 0.334090909090909,
                "tempo": 120.0
            },
            {
                "start_time": 1.5704545454545453,
                "end_time": 1.7363636363636363,
                "pitch": 41,
                "velocity": 80,
                "duration": 0.165909090909091,
                "tempo": 120.0
            },
            {
                "start_time": 1.7363636363636363,
                "end_time": 1.9045454545454545,
                "pitch": 44,
                "velocity": 80,
                "duration": 0.1681818181818182,
                "tempo": 120.0
            },
            {
                "start_time": 1.9045454545454545,
                "end_time": 2.077272727272727,
                "pitch": 48,
                "velocity": 80,
                "duration": 0.17272727272727262,
                "tempo": 120.0
            },
            {
                "start_time": 2.077272727272727,
                "end_time": 2.2477272727272726,
                "pitch": 44,
                "velocity": 80,
                "duration": 0.17045454545454541,
                "tempo": 120.0
            },
            {
                "start_time": 2.25,
                "end_time": 2.3318181818181816,
                "pitch": 41,
                "velocity": 80,
                "duration": 0.08181818181818157,
                "tempo": 120.0
            },
            {
                "start_time": 2.418181818181818,
                "end_time": 2.584090909090909,
                "pitch": 36,
                "velocity": 80,
                "duration": 0.165909090909091,
                "tempo": 120.0
            },
            {
                "start_time": 2.584090909090909,
                "end_time": 2.756818181818182,
                "pitch": 41,
                "velocity": 80,
                "duration": 0.17272727272727284,
                "tempo": 120.0
            },
            {
                "start_time": 2.756818181818182,
                "end_time": 2.9295454545454542,
                "pitch": 44,
                "velocity": 80,
                "duration": 0.1727272727272724,
                "tempo": 120.0
            },
            {
                "start_time": 2.9295454545454542,
                "end_time": 3.2636363636363637,
                "pitch": 48,
                "velocity": 80,
                "duration": 0.33409090909090944,
                "tempo": 120.0
            },
            {
                "start_time": 3.2659090909090907,
                "end_time": 3.436363636363636,
                "pitch": 41,
                "velocity": 80,
                "duration": 0.17045454545454541,
                "tempo": 120.0
            },
            {
                "start_time": 3.436363636363636,
                "end_time": 3.609090909090909,
                "pitch": 44,
                "velocity": 80,
                "duration": 0.17272727272727284,
                "tempo": 120.0
            },
            {
                "start_time": 3.609090909090909,
                "end_time": 3.943181818181818,
                "pitch": 48,
                "velocity": 80,
                "duration": 0.334090909090909,
                "tempo": 120.0
            },
            {
                "start_time": 3.9454545454545453,
                "end_time": 4.111363636363636,
                "pitch": 41,
                "velocity": 80,
                "duration": 0.165909090909091,
                "tempo": 120.0
            },
            {
                "start_time": 4.113636363636363,
                "end_time": 4.279545454545454,
                "pitch": 44,
                "velocity": 80,
                "duration": 0.165909090909091,
                "tempo": 120.0
            },
            {
                "start_time": 4.279545454545454,
                "end_time": 4.447727272727272,
                "pitch": 48,
                "velocity": 80,
                "duration": 0.168181818181818,
                "tempo": 120.0
            },
            {
                "start_time": 4.447727272727272,
                "end_time": 4.61590909090909,
                "pitch": 44,
                "velocity": 80,
                "duration": 0.168181818181818,
                "tempo": 120.0
            },
            {
                "start_time": 4.61590909090909,
                "end_time": 4.7,
                "pitch": 41,
                "velocity": 80,
                "duration": 0.08409090909090988,
                "tempo": 120.0
            },
            {
                "start_time": 4.788636363636363,
                "end_time": 4.959090909090909,
                "pitch": 36,
                "velocity": 80,
                "duration": 0.17045454545454586,
                "tempo": 120.0
            },
            {
                "start_time": 4.961363636363636,
                "end_time": 5.127272727272727,
                "pitch": 41,
                "velocity": 80,
                "duration": 0.165909090909091,
                "tempo": 120.0
            },
            {
                "start_time": 5.127272727272727,
                "end_time": 5.295454545454545,
                "pitch": 44,
                "velocity": 80,
                "duration": 0.168181818181818,
                "tempo": 120.0
            },
            {
                "start_time": 5.295454545454545,
                "end_time": 5.629545454545454,
                "pitch": 48,
                "velocity": 80,
                "duration": 0.334090909090909,
                "tempo": 120.0
            },
            {
                "start_time": 5.631818181818182,
                "end_time": 5.802272727272727,
                "pitch": 41,
                "velocity": 80,
                "duration": 0.17045454545454497,
                "tempo": 120.0
            },
            {
                "start_time": 5.804545454545455,
                "end_time": 5.975,
                "pitch": 44,
                "velocity": 80,
                "duration": 0.17045454545454497,
                "tempo": 120.0
            },
            {
                "start_time": 5.975,
                "end_time": 6.311363636363636,
                "pitch": 48,
                "velocity": 80,
                "duration": 0.336363636363636,
                "tempo": 120.0
            },
            {
                "start_time": 6.311363636363636,
                "end_time": 6.4818181818181815,
                "pitch": 41,
                "velocity": 80,
                "duration": 0.17045454545454586,
                "tempo": 120.0
            },
            {
                "start_time": 6.4840909090909085,
                "end_time": 6.654545454545454,
                "pitch": 44,
                "velocity": 80,
                "duration": 0.17045454545454586,
                "tempo": 120.0
            },
            {
                "start_time": 6.656818181818181,
                "end_time": 6.822727272727272,
                "pitch": 48,
                "velocity": 80,
                "duration": 0.165909090909091,
                "tempo": 120.0
            },
            {
                "start_time": 6.822727272727272,
                "end_time": 6.99090909090909,
                "pitch": 44,
                "velocity": 80,
                "duration": 0.168181818181818,
                "tempo": 120.0
            },
            {
                "start_time": 6.99090909090909,
                "end_time": 7.072727272727272,
                "pitch": 41,
                "velocity": 80,
                "duration": 0.08181818181818201,
                "tempo": 120.0
            },
            {
                "start_time": 7.161363636363636,
                "end_time": 7.324999999999999,
                "pitch": 36,
                "velocity": 80,
                "duration": 0.16363636363636314,
                "tempo": 120.0
            },
            {
                "start_time": 7.327272727272727,
                "end_time": 7.497727272727272,
                "pitch": 41,
                "velocity": 80,
                "duration": 0.17045454545454497,
                "tempo": 120.0
            },
            {
                "start_time": 7.5,
                "end_time": 7.670454545454545,
                "pitch": 44,
                "velocity": 80,
                "duration": 0.17045454545454497,
                "tempo": 120.0
            },
            {
                "start_time": 7.672727272727272,
                "end_time": 8.006818181818181,
                "pitch": 48,
                "velocity": 80,
                "duration": 0.334090909090909,
                "tempo": 120.0
            },
            {
                "start_time": 8.006818181818181,
                "end_time": 8.177272727272728,
                "pitch": 41,
                "velocity": 80,
                "duration": 0.17045454545454675,
                "tempo": 120.0
            },
            {
                "start_time": 8.179545454545455,
                "end_time": 8.35,
                "pitch": 44,
                "velocity": 80,
                "duration": 0.17045454545454497,
                "tempo": 120.0
            },
            {
                "start_time": 8.352272727272727,
                "end_time": 8.686363636363636,
                "pitch": 48,
                "velocity": 80,
                "duration": 0.334090909090909,
                "tempo": 120.0
            },
            {
                "start_time": 8.686363636363636,
                "end_time": 8.854545454545454,
                "pitch": 41,
                "velocity": 80,
                "duration": 0.168181818181818,
                "tempo": 120.0
            },
            {
                "start_time": 8.854545454545454,
                "end_time": 9.020454545454545,
                "pitch": 44,
                "velocity": 80,
                "duration": 0.165909090909091,
                "tempo": 120.0
            },
            {
                "start_time": 9.022727272727272,
                "end_time": 9.193181818181818,
                "pitch": 48,
                "velocity": 80,
                "duration": 0.17045454545454675,
                "tempo": 120.0
            },
            {
                "start_time": 9.195454545454545,
                "end_time": 9.36590909090909,
                "pitch": 44,
                "velocity": 80,
                "duration": 0.17045454545454497,
                "tempo": 120.0
            },
            {
                "start_time": 9.36590909090909,
                "end_time": 9.447727272727272,
                "pitch": 41,
                "velocity": 80,
                "duration": 0.08181818181818201,
                "tempo": 120.0
            },
            {
                "start_time": 9.538636363636364,
                "end_time": 9.702272727272726,
                "pitch": 36,
                "velocity": 80,
                "duration": 0.16363636363636225,
                "tempo": 120.0
            },
            {
                "start_time": 9.704545454545453,
                "end_time": 9.870454545454544,
                "pitch": 41,
                "velocity": 80,
                "duration": 0.165909090909091,
                "tempo": 120.0
            },
            {
                "start_time": 9.870454545454544,
                "end_time": 10.038636363636364,
                "pitch": 44,
                "velocity": 80,
                "duration": 0.16818181818181976,
                "tempo": 120.0
            },
            {
                "start_time": 10.038636363636364,
                "end_time": 10.384090909090908,
                "pitch": 48,
                "velocity": 80,
                "duration": 0.3454545454545439,
                "tempo": 120.0
            },
            {
                "start_time": 10.384090909090908,
                "end_time": 10.554545454545455,
                "pitch": 41,
                "velocity": 80,
                "duration": 0.17045454545454675,
                "tempo": 120.0
            },
            {
                "start_time": 10.556818181818182,
                "end_time": 10.727272727272727,
                "pitch": 44,
                "velocity": 80,
                "duration": 0.17045454545454497,
                "tempo": 120.0
            },
            {
                "start_time": 10.727272727272727,
                "end_time": 11.052272727272726,
                "pitch": 48,
                "velocity": 80,
                "duration": 0.3249999999999993,
                "tempo": 120.0
            },
            {
                "start_time": 11.052272727272726,
                "end_time": 11.225,
                "pitch": 41,
                "velocity": 80,
                "duration": 0.17272727272727373,
                "tempo": 120.0
            },
            {
                "start_time": 11.225,
                "end_time": 11.397727272727272,
                "pitch": 44,
                "velocity": 80,
                "duration": 0.17272727272727195,
                "tempo": 120.0
            },
            {
                "start_time": 11.397727272727272,
                "end_time": 11.563636363636363,
                "pitch": 48,
                "velocity": 80,
                "duration": 0.165909090909091,
                "tempo": 120.0
            },
            {
                "start_time": 11.56590909090909,
                "end_time": 11.73181818181818,
                "pitch": 44,
                "velocity": 80,
                "duration": 0.165909090909091,
                "tempo": 120.0
            },
            {
                "start_time": 11.73409090909091,
                "end_time": 11.81590909090909,
                "pitch": 41,
                "velocity": 80,
                "duration": 0.08181818181818024,
                "tempo": 120.0
            },
            {
                "start_time": 11.906818181818181,
                "end_time": 12.077272727272726,
                "pitch": 36,
                "velocity": 80,
                "duration": 0.17045454545454497,
                "tempo": 120.0
            },
            {
                "start_time": 12.077272727272726,
                "end_time": 12.245454545454544,
                "pitch": 41,
                "velocity": 80,
                "duration": 0.168181818181818,
                "tempo": 120.0
            },
            {
                "start_time": 12.245454545454544,
                "end_time": 12.411363636363635,
                "pitch": 44,
                "velocity": 80,
                "duration": 0.165909090909091,
                "tempo": 120.0
            },
            {
                "start_time": 12.413636363636362,
                "end_time": 12.756818181818181,
                "pitch": 48,
                "velocity": 80,
                "duration": 0.3431818181818187,
                "tempo": 120.0
            },
            {
                "start_time": 12.759090909090908,
                "end_time": 12.924999999999999,
                "pitch": 41,
                "velocity": 80,
                "duration": 0.165909090909091,
                "tempo": 120.0
            },
            {
                "start_time": 12.924999999999999,
                "end_time": 13.093181818181817,
                "pitch": 44,
                "velocity": 80,
                "duration": 0.168181818181818,
                "tempo": 120.0
            },
            {
                "start_time": 13.093181818181817,
                "end_time": 13.436363636363636,
                "pitch": 48,
                "velocity": 80,
                "duration": 0.3431818181818187,
                "tempo": 120.0
            },
            {
                "start_time": 13.438636363636363,
                "end_time": 13.604545454545454,
                "pitch": 41,
                "velocity": 80,
                "duration": 0.165909090909091,
                "tempo": 120.0
            },
            {
                "start_time": 13.604545454545454,
                "end_time": 13.772727272727272,
                "pitch": 44,
                "velocity": 80,
                "duration": 0.168181818181818,
                "tempo": 120.0
            },
            {
                "start_time": 13.772727272727272,
                "end_time": 13.94090909090909,
                "pitch": 48,
                "velocity": 80,
                "duration": 0.168181818181818,
                "tempo": 120.0
            },
            {
                "start_time": 13.94090909090909,
                "end_time": 14.10681818181818,
                "pitch": 44,
                "velocity": 80,
                "duration": 0.165909090909091,
                "tempo": 120.0
            },
            {
                "start_time": 14.109090909090908,
                "end_time": 14.188636363636363,
                "pitch": 41,
                "velocity": 80,
                "duration": 0.07954545454545503,
                "tempo": 120.0
            },
            {
                "start_time": 14.277272727272727,
                "end_time": 14.443181818181818,
                "pitch": 36,
                "velocity": 80,
                "duration": 0.165909090909091,
                "tempo": 120.0
            },
            {
                "start_time": 14.443181818181818,
                "end_time": 14.61590909090909,
                "pitch": 41,
                "velocity": 80,
                "duration": 0.17272727272727195,
                "tempo": 120.0
            },
            {
                "start_time": 14.61590909090909,
                "end_time": 14.788636363636362,
                "pitch": 44,
                "velocity": 80,
                "duration": 0.17272727272727195,
                "tempo": 120.0
            },
            {
                "start_time": 14.788636363636362,
                "end_time": 15.122727272727271,
                "pitch": 48,
                "velocity": 80,
                "duration": 0.334090909090909,
                "tempo": 120.0
            },
            {
                "start_time": 15.125,
                "end_time": 15.295454545454545,
                "pitch": 41,
                "velocity": 80,
                "duration": 0.17045454545454497,
                "tempo": 120.0
            },
            {
                "start_time": 15.295454545454545,
                "end_time": 15.468181818181817,
                "pitch": 44,
                "velocity": 80,
                "duration": 0.17272727272727195,
                "tempo": 120.0
            },
            {
                "start_time": 15.468181818181817,
                "end_time": 15.802272727272726,
                "pitch": 48,
                "velocity": 80,
                "duration": 0.334090909090909,
                "tempo": 120.0
            },
            {
                "start_time": 15.804545454545453,
                "end_time": 15.975,
                "pitch": 41,
                "velocity": 80,
                "duration": 0.17045454545454675,
                "tempo": 120.0
            },
            {
                "start_time": 15.977272727272727,
                "end_time": 16.147727272727273,
                "pitch": 44,
                "velocity": 80,
                "duration": 0.17045454545454675,
                "tempo": 120.0
            },
            {
                "start_time": 16.15,
                "end_time": 16.31590909090909,
                "pitch": 48,
                "velocity": 80,
                "duration": 0.16590909090909278,
                "tempo": 120.0
            },
            {
                "start_time": 16.31590909090909,
                "end_time": 16.48409090909091,
                "pitch": 44,
                "velocity": 80,
                "duration": 0.168181818181818,
                "tempo": 120.0
            },
            {
                "start_time": 16.48409090909091,
                "end_time": 16.56590909090909,
                "pitch": 41,
                "velocity": 80,
                "duration": 0.08181818181818201,
                "tempo": 120.0
            },
            {
                "start_time": 16.652272727272727,
                "end_time": 16.818181818181817,
                "pitch": 36,
                "velocity": 80,
                "duration": 0.16590909090908923,
                "tempo": 120.0
            },
            {
                "start_time": 16.820454545454545,
                "end_time": 16.986363636363635,
                "pitch": 41,
                "velocity": 80,
                "duration": 0.16590909090908923,
                "tempo": 120.0
            },
            {
                "start_time": 16.986363636363635,
                "end_time": 17.154545454545453,
                "pitch": 44,
                "velocity": 80,
                "duration": 0.168181818181818,
                "tempo": 120.0
            },
            {
                "start_time": 17.154545454545453,
                "end_time": 17.5,
                "pitch": 48,
                "velocity": 80,
                "duration": 0.34545454545454746,
                "tempo": 120.0
            },
            {
                "start_time": 17.5,
                "end_time": 17.66590909090909,
                "pitch": 41,
                "velocity": 80,
                "duration": 0.16590909090908923,
                "tempo": 120.0
            },
            {
                "start_time": 17.668181818181818,
                "end_time": 17.834090909090907,
                "pitch": 44,
                "velocity": 80,
                "duration": 0.16590909090908923,
                "tempo": 120.0
            },
            {
                "start_time": 17.834090909090907,
                "end_time": 18.179545454545455,
                "pitch": 48,
                "velocity": 80,
                "duration": 0.34545454545454746,
                "tempo": 120.0
            },
            {
                "start_time": 18.179545454545455,
                "end_time": 18.347727272727273,
                "pitch": 41,
                "velocity": 80,
                "duration": 0.168181818181818,
                "tempo": 120.0
            },
            {
                "start_time": 18.347727272727273,
                "end_time": 18.513636363636362,
                "pitch": 44,
                "velocity": 80,
                "duration": 0.16590909090908923,
                "tempo": 120.0
            },
            {
                "start_time": 18.51590909090909,
                "end_time": 18.686363636363634,
                "pitch": 48,
                "velocity": 80,
                "duration": 0.1704545454545432,
                "tempo": 120.0
            },
            {
                "start_time": 18.686363636363634,
                "end_time": 18.85909090909091,
                "pitch": 44,
                "velocity": 80,
                "duration": 0.1727272727272755,
                "tempo": 120.0
            },
            {
                "start_time": 18.85909090909091,
                "end_time": 18.94090909090909,
                "pitch": 41,
                "velocity": 80,
                "duration": 0.08181818181818201,
                "tempo": 120.0
            },
            {
                "start_time": 19.027272727272727,
                "end_time": 19.19090909090909,
                "pitch": 36,
                "velocity": 80,
                "duration": 0.16363636363636402,
                "tempo": 120.0
            },
            {
                "start_time": 19.193181818181817,
                "end_time": 19.361363636363635,
                "pitch": 41,
                "velocity": 80,
                "duration": 0.168181818181818,
                "tempo": 120.0
            },
            {
                "start_time": 19.363636363636363,
                "end_time": 19.527272727272727,
                "pitch": 44,
                "velocity": 80,
                "duration": 0.16363636363636402,
                "tempo": 120.0
            },
            {
                "start_time": 19.529545454545453,
                "end_time": 19.86590909090909,
                "pitch": 48,
                "velocity": 80,
                "duration": 0.336363636363636,
                "tempo": 120.0
            },
            {
                "start_time": 19.86590909090909,
                "end_time": 20.036363636363635,
                "pitch": 41,
                "velocity": 80,
                "duration": 0.17045454545454675,
                "tempo": 120.0
            },
            {
                "start_time": 20.036363636363635,
                "end_time": 20.206818181818182,
                "pitch": 44,
                "velocity": 80,
                "duration": 0.17045454545454675,
                "tempo": 120.0
            },
            {
                "start_time": 20.209090909090907,
                "end_time": 20.543181818181818,
                "pitch": 48,
                "velocity": 80,
                "duration": 0.33409090909091077,
                "tempo": 120.0
            },
            {
                "start_time": 20.543181818181818,
                "end_time": 20.71590909090909,
                "pitch": 41,
                "velocity": 80,
                "duration": 0.17272727272727195,
                "tempo": 120.0
            },
            {
                "start_time": 20.71590909090909,
                "end_time": 20.89090909090909,
                "pitch": 44,
                "velocity": 80,
                "duration": 0.1750000000000007,
                "tempo": 120.0
            },
            {
                "start_time": 20.89090909090909,
                "end_time": 21.054545454545455,
                "pitch": 48,
                "velocity": 80,
                "duration": 0.16363636363636402,
                "tempo": 120.0
            },
            {
                "start_time": 21.05681818181818,
                "end_time": 21.224999999999998,
                "pitch": 44,
                "velocity": 80,
                "duration": 0.168181818181818,
                "tempo": 120.0
            },
            {
                "start_time": 21.224999999999998,
                "end_time": 21.30681818181818,
                "pitch": 41,
                "velocity": 80,
                "duration": 0.08181818181818201,
                "tempo": 120.0
            },
            {
                "start_time": 21.393181818181816,
                "end_time": 21.55909090909091,
                "pitch": 36,
                "velocity": 80,
                "duration": 0.16590909090909278,
                "tempo": 120.0
            },
            {
                "start_time": 21.55909090909091,
                "end_time": 21.73409090909091,
                "pitch": 41,
                "velocity": 80,
                "duration": 0.1750000000000007,
                "tempo": 120.0
            },
            {
                "start_time": 21.73409090909091,
                "end_time": 21.902272727272727,
                "pitch": 44,
                "velocity": 80,
                "duration": 0.168181818181818,
                "tempo": 120.0
            },
            {
                "start_time": 21.904545454545453,
                "end_time": 22.24090909090909,
                "pitch": 48,
                "velocity": 80,
                "duration": 0.336363636363636,
                "tempo": 120.0
            },
            {
                "start_time": 22.24090909090909,
                "end_time": 22.411363636363635,
                "pitch": 41,
                "velocity": 80,
                "duration": 0.17045454545454675,
                "tempo": 120.0
            },
            {
                "start_time": 22.411363636363635,
                "end_time": 22.584090909090907,
                "pitch": 44,
                "velocity": 80,
                "duration": 0.17272727272727195,
                "tempo": 120.0
            },
            {
                "start_time": 22.584090909090907,
                "end_time": 22.918181818181818,
                "pitch": 48,
                "velocity": 80,
                "duration": 0.33409090909091077,
                "tempo": 120.0
            },
            {
                "start_time": 22.920454545454543,
                "end_time": 23.086363636363636,
                "pitch": 41,
                "velocity": 80,
                "duration": 0.16590909090909278,
                "tempo": 120.0
            },
            {
                "start_time": 23.086363636363636,
                "end_time": 23.25681818181818,
                "pitch": 44,
                "velocity": 80,
                "duration": 0.1704545454545432,
                "tempo": 120.0
            },
            {
                "start_time": 23.25681818181818,
                "end_time": 23.422727272727272,
                "pitch": 48,
                "velocity": 80,
                "duration": 0.16590909090909278,
                "tempo": 120.0
            },
            {
                "start_time": 23.422727272727272,
                "end_time": 23.59090909090909,
                "pitch": 44,
                "velocity": 80,
                "duration": 0.168181818181818,
                "tempo": 120.0
            },
            {
                "start_time": 23.59318181818182,
                "end_time": 23.674999999999997,
                "pitch": 41,
                "velocity": 80,
                "duration": 0.08181818181817846,
                "tempo": 120.0
            },
            {
                "start_time": 23.763636363636362,
                "end_time": 23.93409090909091,
                "pitch": 36,
                "velocity": 80,
                "duration": 0.17045454545454675,
                "tempo": 120.0
            },
            {
                "start_time": 23.93409090909091,
                "end_time": 24.104545454545452,
                "pitch": 41,
                "velocity": 80,
                "duration": 0.1704545454545432,
                "tempo": 120.0
            },
            {
                "start_time": 24.104545454545452,
                "end_time": 24.270454545454545,
                "pitch": 44,
                "velocity": 80,
                "duration": 0.16590909090909278,
                "tempo": 120.0
            },
            {
                "start_time": 24.270454545454545,
                "end_time": 24.61590909090909,
                "pitch": 48,
                "velocity": 80,
                "duration": 0.3454545454545439,
                "tempo": 120.0
            },
            {
                "start_time": 24.618181818181817,
                "end_time": 24.786363636363635,
                "pitch": 41,
                "velocity": 80,
                "duration": 0.168181818181818,
                "tempo": 120.0
            },
            {
                "start_time": 24.788636363636364,
                "end_time": 24.959090909090907,
                "pitch": 44,
                "velocity": 80,
                "duration": 0.1704545454545432,
                "tempo": 120.0
            },
            {
                "start_time": 24.959090909090907,
                "end_time": 25.284090909090907,
                "pitch": 48,
                "velocity": 80,
                "duration": 0.3249999999999993,
                "tempo": 120.0
            },
            {
                "start_time": 25.284090909090907,
                "end_time": 25.456818181818182,
                "pitch": 41,
                "velocity": 80,
                "duration": 0.1727272727272755,
                "tempo": 120.0
            },
            {
                "start_time": 25.456818181818182,
                "end_time": 25.629545454545454,
                "pitch": 44,
                "velocity": 80,
                "duration": 0.17272727272727195,
                "tempo": 120.0
            },
            {
                "start_time": 25.63181818181818,
                "end_time": 25.795454545454543,
                "pitch": 48,
                "velocity": 80,
                "duration": 0.16363636363636402,
                "tempo": 120.0
            },
            {
                "start_time": 25.797727272727272,
                "end_time": 25.96590909090909,
                "pitch": 44,
                "velocity": 80,
                "duration": 0.168181818181818,
                "tempo": 120.0
            },
            {
                "start_time": 25.96590909090909,
                "end_time": 26.049999999999997,
                "pitch": 41,
                "velocity": 80,
                "duration": 0.08409090909090722,
                "tempo": 120.0
            },
            {
                "start_time": 26.138636363636362,
                "end_time": 26.30681818181818,
                "pitch": 36,
                "velocity": 80,
                "duration": 0.168181818181818,
                "tempo": 120.0
            },
            {
                "start_time": 26.30909090909091,
                "end_time": 26.477272727272727,
                "pitch": 41,
                "velocity": 80,
                "duration": 0.168181818181818,
                "tempo": 120.0
            },
            {
                "start_time": 26.479545454545452,
                "end_time": 26.643181818181816,
                "pitch": 44,
                "velocity": 80,
                "duration": 0.16363636363636402,
                "tempo": 120.0
            },
            {
                "start_time": 26.645454545454545,
                "end_time": 26.98181818181818,
                "pitch": 48,
                "velocity": 80,
                "duration": 0.336363636363636,
                "tempo": 120.0
            },
            {
                "start_time": 26.98181818181818,
                "end_time": 27.152272727272727,
                "pitch": 41,
                "velocity": 80,
                "duration": 0.17045454545454675,
                "tempo": 120.0
            },
            {
                "start_time": 27.152272727272727,
                "end_time": 27.32272727272727,
                "pitch": 44,
                "velocity": 80,
                "duration": 0.1704545454545432,
                "tempo": 120.0
            },
            {
                "start_time": 27.325,
                "end_time": 27.659090909090907,
                "pitch": 48,
                "velocity": 80,
                "duration": 0.3340909090909072,
                "tempo": 120.0
            },
            {
                "start_time": 27.659090909090907,
                "end_time": 27.827272727272724,
                "pitch": 41,
                "velocity": 80,
                "duration": 0.168181818181818,
                "tempo": 120.0
            },
            {
                "start_time": 27.827272727272724,
                "end_time": 27.995454545454542,
                "pitch": 44,
                "velocity": 80,
                "duration": 0.168181818181818,
                "tempo": 120.0
            },
            {
                "start_time": 27.99772727272727,
                "end_time": 28.16590909090909,
                "pitch": 48,
                "velocity": 80,
                "duration": 0.168181818181818,
                "tempo": 120.0
            },
            {
                "start_time": 28.168181818181818,
                "end_time": 28.34090909090909,
                "pitch": 44,
                "velocity": 80,
                "duration": 0.17272727272727195,
                "tempo": 120.0
            },
            {
                "start_time": 28.343181818181815,
                "end_time": 28.422727272727272,
                "pitch": 41,
                "velocity": 80,
                "duration": 0.0795454545454568,
                "tempo": 120.0
            },
            {
                "start_time": 28.511363636363637,
                "end_time": 28.677272727272726,
                "pitch": 36,
                "velocity": 80,
                "duration": 0.16590909090908923,
                "tempo": 120.0
            },
            {
                "start_time": 28.677272727272726,
                "end_time": 28.843181818181815,
                "pitch": 41,
                "velocity": 80,
                "duration": 0.16590909090908923,
                "tempo": 120.0
            },
            {
                "start_time": 28.845454545454544,
                "end_time": 29.011363636363637,
                "pitch": 44,
                "velocity": 80,
                "duration": 0.16590909090909278,
                "tempo": 120.0
            },
            {
                "start_time": 29.013636363636362,
                "end_time": 29.35681818181818,
                "pitch": 48,
                "velocity": 80,
                "duration": 0.3431818181818187,
                "tempo": 120.0
            },
            {
                "start_time": 29.35681818181818,
                "end_time": 29.525,
                "pitch": 41,
                "velocity": 80,
                "duration": 0.168181818181818,
                "tempo": 120.0
            },
            {
                "start_time": 29.525,
                "end_time": 29.693181818181817,
                "pitch": 44,
                "velocity": 80,
                "duration": 0.168181818181818,
                "tempo": 120.0
            },
            {
                "start_time": 29.693181818181817,
                "end_time": 30.036363636363635,
                "pitch": 48,
                "velocity": 80,
                "duration": 0.3431818181818187,
                "tempo": 120.0
            },
            {
                "start_time": 30.03863636363636,
                "end_time": 30.204545454545453,
                "pitch": 41,
                "velocity": 80,
                "duration": 0.16590909090909278,
                "tempo": 120.0
            },
            {
                "start_time": 30.204545454545453,
                "end_time": 30.37272727272727,
                "pitch": 44,
                "velocity": 80,
                "duration": 0.168181818181818,
                "tempo": 120.0
            },
            {
                "start_time": 30.37272727272727,
                "end_time": 30.54090909090909,
                "pitch": 48,
                "velocity": 80,
                "duration": 0.168181818181818,
                "tempo": 120.0
            },
            {
                "start_time": 30.54090909090909,
                "end_time": 30.706818181818182,
                "pitch": 44,
                "velocity": 80,
                "duration": 0.16590909090909278,
                "tempo": 120.0
            },
            {
                "start_time": 30.709090909090907,
                "end_time": 30.79090909090909,
                "pitch": 41,
                "velocity": 80,
                "duration": 0.08181818181818201,
                "tempo": 120.0
            },
            {
                "start_time": 30.88181818181818,
                "end_time": 31.052272727272726,
                "pitch": 36,
                "velocity": 80,
                "duration": 0.17045454545454675,
                "tempo": 120.0
            },
            {
                "start_time": 31.054545454545455,
                "end_time": 31.220454545454544,
                "pitch": 41,
                "velocity": 80,
                "duration": 0.16590909090908923,
                "tempo": 120.0
            },
            {
                "start_time": 31.220454545454544,
                "end_time": 31.388636363636362,
                "pitch": 44,
                "velocity": 80,
                "duration": 0.168181818181818,
                "tempo": 120.0
            },
            {
                "start_time": 31.388636363636362,
                "end_time": 31.73181818181818,
                "pitch": 48,
                "velocity": 80,
                "duration": 0.3431818181818187,
                "tempo": 120.0
            },
            {
                "start_time": 31.734090909090906,
                "end_time": 31.9,
                "pitch": 41,
                "velocity": 80,
                "duration": 0.16590909090909278,
                "tempo": 120.0
            },
            {
                "start_time": 31.9,
                "end_time": 32.06818181818182,
                "pitch": 44,
                "velocity": 80,
                "duration": 0.16818181818182154,
                "tempo": 120.0
            },
            {
                "start_time": 32.06818181818182,
                "end_time": 32.402272727272724,
                "pitch": 48,
                "velocity": 80,
                "duration": 0.33409090909090366,
                "tempo": 120.0
            },
            {
                "start_time": 32.404545454545456,
                "end_time": 32.574999999999996,
                "pitch": 41,
                "velocity": 80,
                "duration": 0.17045454545453964,
                "tempo": 120.0
            },
            {
                "start_time": 32.57727272727273,
                "end_time": 32.74772727272727,
                "pitch": 44,
                "velocity": 80,
                "duration": 0.17045454545453964,
                "tempo": 120.0
            },
            {
                "start_time": 32.74772727272727,
                "end_time": 32.91590909090909,
                "pitch": 48,
                "velocity": 80,
                "duration": 0.16818181818182154,
                "tempo": 120.0
            },
            {
                "start_time": 32.91590909090909,
                "end_time": 33.08409090909091,
                "pitch": 44,
                "velocity": 80,
                "duration": 0.16818181818182154,
                "tempo": 120.0
            },
            {
                "start_time": 33.08409090909091,
                "end_time": 33.163636363636364,
                "pitch": 41,
                "velocity": 80,
                "duration": 0.07954545454545325,
                "tempo": 120.0
            },
            {
                "start_time": 33.252272727272725,
                "end_time": 33.418181818181814,
                "pitch": 36,
                "velocity": 80,
                "duration": 0.16590909090908923,
                "tempo": 120.0
            },
            {
                "start_time": 33.42045454545455,
                "end_time": 33.590909090909086,
                "pitch": 41,
                "velocity": 80,
                "duration": 0.17045454545453964,
                "tempo": 120.0
            },
            {
                "start_time": 33.590909090909086,
                "end_time": 33.763636363636365,
                "pitch": 44,
                "velocity": 80,
                "duration": 0.17272727272727906,
                "tempo": 120.0
            },
            {
                "start_time": 33.763636363636365,
                "end_time": 34.09772727272727,
                "pitch": 48,
                "velocity": 80,
                "duration": 0.33409090909090366,
                "tempo": 120.0
            },
            {
                "start_time": 34.1,
                "end_time": 34.27045454545454,
                "pitch": 41,
                "velocity": 80,
                "duration": 0.17045454545453964,
                "tempo": 120.0
            },
            {
                "start_time": 34.27272727272727,
                "end_time": 34.44318181818181,
                "pitch": 44,
                "velocity": 80,
                "duration": 0.17045454545453964,
                "tempo": 120.0
            },
            {
                "start_time": 34.445454545454545,
                "end_time": 34.779545454545456,
                "pitch": 48,
                "velocity": 80,
                "duration": 0.33409090909091077,
                "tempo": 120.0
            },
            {
                "start_time": 34.779545454545456,
                "end_time": 34.949999999999996,
                "pitch": 41,
                "velocity": 80,
                "duration": 0.17045454545453964,
                "tempo": 120.0
            },
            {
                "start_time": 34.95227272727273,
                "end_time": 35.12272727272727,
                "pitch": 44,
                "velocity": 80,
                "duration": 0.17045454545453964,
                "tempo": 120.0
            },
            {
                "start_time": 35.125,
                "end_time": 35.29090909090909,
                "pitch": 48,
                "velocity": 80,
                "duration": 0.16590909090908923,
                "tempo": 120.0
            },
            {
                "start_time": 35.29090909090909,
                "end_time": 35.45909090909091,
                "pitch": 44,
                "velocity": 80,
                "duration": 0.16818181818182154,
                "tempo": 120.0
            },
            {
                "start_time": 35.45909090909091,
                "end_time": 35.54090909090909,
                "pitch": 41,
                "velocity": 80,
                "duration": 0.08181818181817846,
                "tempo": 120.0
            },
            {
                "start_time": 35.62954545454545,
                "end_time": 35.79545454545455,
                "pitch": 36,
                "velocity": 80,
                "duration": 0.16590909090909634,
                "tempo": 120.0
            },
            {
                "start_time": 35.79545454545455,
                "end_time": 35.961363636363636,
                "pitch": 41,
                "velocity": 80,
                "duration": 0.16590909090908923,
                "tempo": 120.0
            },
            {
                "start_time": 35.96363636363636,
                "end_time": 36.12954545454545,
                "pitch": 44,
                "velocity": 80,
                "duration": 0.16590909090908923,
                "tempo": 120.0
            },
            {
                "start_time": 36.12954545454545,
                "end_time": 36.475,
                "pitch": 48,
                "velocity": 80,
                "duration": 0.345454545454551,
                "tempo": 120.0
            },
            {
                "start_time": 36.475,
                "end_time": 36.64772727272727,
                "pitch": 41,
                "velocity": 80,
                "duration": 0.17272727272727195,
                "tempo": 120.0
            },
            {
                "start_time": 36.64772727272727,
                "end_time": 36.81818181818181,
                "pitch": 44,
                "velocity": 80,
                "duration": 0.17045454545453964,
                "tempo": 120.0
            },
            {
                "start_time": 36.820454545454545,
                "end_time": 37.154545454545456,
                "pitch": 48,
                "velocity": 80,
                "duration": 0.33409090909091077,
                "tempo": 120.0
            },
            {
                "start_time": 37.154545454545456,
                "end_time": 37.32272727272727,
                "pitch": 41,
                "velocity": 80,
                "duration": 0.16818181818181444,
                "tempo": 120.0
            },
            {
                "start_time": 37.32272727272727,
                "end_time": 37.49090909090909,
                "pitch": 44,
                "velocity": 80,
                "duration": 0.16818181818182154,
                "tempo": 120.0
            },
            {
                "start_time": 37.49090909090909,
                "end_time": 37.66136363636363,
                "pitch": 48,
                "velocity": 80,
                "duration": 0.17045454545453964,
                "tempo": 120.0
            },
            {
                "start_time": 37.663636363636364,
                "end_time": 37.83409090909091,
                "pitch": 44,
                "velocity": 80,
                "duration": 0.17045454545454675,
                "tempo": 120.0
            },
            {
                "start_time": 37.836363636363636,
                "end_time": 37.91590909090909,
                "pitch": 41,
                "velocity": 80,
                "duration": 0.07954545454545325,
                "tempo": 120.0
            },
            {
                "start_time": 38.002272727272725,
                "end_time": 38.168181818181814,
                "pitch": 36,
                "velocity": 80,
                "duration": 0.16590909090908923,
                "tempo": 120.0
            },
            {
                "start_time": 38.168181818181814,
                "end_time": 38.33863636363636,
                "pitch": 41,
                "velocity": 80,
                "duration": 0.17045454545454675,
                "tempo": 120.0
            },
            {
                "start_time": 38.33863636363636,
                "end_time": 38.50454545454545,
                "pitch": 44,
                "velocity": 80,
                "duration": 0.16590909090908923,
                "tempo": 120.0
            },
            {
                "start_time": 38.50454545454545,
                "end_time": 38.840909090909086,
                "pitch": 48,
                "velocity": 80,
                "duration": 0.336363636363636,
                "tempo": 120.0
            },
            {
                "start_time": 38.840909090909086,
                "end_time": 39.01136363636363,
                "pitch": 41,
                "velocity": 80,
                "duration": 0.17045454545454675,
                "tempo": 120.0
            },
            {
                "start_time": 39.01136363636363,
                "end_time": 39.184090909090905,
                "pitch": 44,
                "velocity": 80,
                "duration": 0.17272727272727195,
                "tempo": 120.0
            },
            {
                "start_time": 39.184090909090905,
                "end_time": 39.518181818181816,
                "pitch": 48,
                "velocity": 80,
                "duration": 0.33409090909091077,
                "tempo": 120.0
            },
            {
                "start_time": 39.52045454545454,
                "end_time": 39.69090909090909,
                "pitch": 41,
                "velocity": 80,
                "duration": 0.17045454545454675,
                "tempo": 120.0
            },
            {
                "start_time": 39.69090909090909,
                "end_time": 39.86590909090909,
                "pitch": 44,
                "velocity": 80,
                "duration": 0.17500000000000426,
                "tempo": 120.0
            },
            {
                "start_time": 39.86590909090909,
                "end_time": 40.03181818181818,
                "pitch": 48,
                "velocity": 80,
                "duration": 0.16590909090908923,
                "tempo": 120.0
            },
            {
                "start_time": 40.03181818181818,
                "end_time": 40.199999999999996,
                "pitch": 44,
                "velocity": 80,
                "duration": 0.16818181818181444,
                "tempo": 120.0
            },
            {
                "start_time": 40.20227272727273,
                "end_time": 40.28181818181818,
                "pitch": 41,
                "velocity": 80,
                "duration": 0.07954545454545325,
                "tempo": 120.0
            },
            {
                "start_time": 40.36818181818182,
                "end_time": 40.53409090909091,
                "pitch": 36,
                "velocity": 80,
                "duration": 0.16590909090908923,
                "tempo": 120.0
            },
            {
                "start_time": 40.53409090909091,
                "end_time": 40.709090909090904,
                "pitch": 41,
                "velocity": 80,
                "duration": 0.17499999999999716,
                "tempo": 120.0
            },
            {
                "start_time": 40.709090909090904,
                "end_time": 40.87954545454545,
                "pitch": 44,
                "velocity": 80,
                "duration": 0.17045454545454675,
                "tempo": 120.0
            },
            {
                "start_time": 40.87954545454545,
                "end_time": 41.215909090909086,
                "pitch": 48,
                "velocity": 80,
                "duration": 0.336363636363636,
                "tempo": 120.0
            },
            {
                "start_time": 41.21818181818182,
                "end_time": 41.38636363636363,
                "pitch": 41,
                "velocity": 80,
                "duration": 0.16818181818181444,
                "tempo": 120.0
            },
            {
                "start_time": 41.38863636363636,
                "end_time": 41.559090909090905,
                "pitch": 44,
                "velocity": 80,
                "duration": 0.17045454545454675,
                "tempo": 120.0
            },
            {
                "start_time": 41.559090909090905,
                "end_time": 41.89545454545454,
                "pitch": 48,
                "velocity": 80,
                "duration": 0.336363636363636,
                "tempo": 120.0
            },
            {
                "start_time": 41.89545454545454,
                "end_time": 42.06136363636364,
                "pitch": 41,
                "velocity": 80,
                "duration": 0.16590909090909634,
                "tempo": 120.0
            },
            {
                "start_time": 42.06363636363636,
                "end_time": 42.23181818181818,
                "pitch": 44,
                "velocity": 80,
                "duration": 0.16818181818181444,
                "tempo": 120.0
            },
            {
                "start_time": 42.23181818181818,
                "end_time": 42.402272727272724,
                "pitch": 48,
                "velocity": 80,
                "duration": 0.17045454545454675,
                "tempo": 120.0
            },
            {
                "start_time": 42.402272727272724,
                "end_time": 42.57727272727273,
                "pitch": 44,
                "velocity": 80,
                "duration": 0.17500000000000426,
                "tempo": 120.0
            },
            {
                "start_time": 42.57727272727273,
                "end_time": 42.65909090909091,
                "pitch": 41,
                "velocity": 80,
                "duration": 0.08181818181817846,
                "tempo": 120.0
            },
            {
                "start_time": 42.74545454545454,
                "end_time": 42.90909090909091,
                "pitch": 36,
                "velocity": 80,
                "duration": 0.16363636363636402,
                "tempo": 120.0
            },
            {
                "start_time": 42.91136363636363,
                "end_time": 43.084090909090904,
                "pitch": 41,
                "velocity": 80,
                "duration": 0.17272727272727195,
                "tempo": 120.0
            },
            {
                "start_time": 43.084090909090904,
                "end_time": 43.25454545454545,
                "pitch": 44,
                "velocity": 80,
                "duration": 0.17045454545454675,
                "tempo": 120.0
            },
            {
                "start_time": 43.25454545454545,
                "end_time": 43.590909090909086,
                "pitch": 48,
                "velocity": 80,
                "duration": 0.336363636363636,
                "tempo": 120.0
            },
            {
                "start_time": 43.59318181818182,
                "end_time": 43.75681818181818,
                "pitch": 41,
                "velocity": 80,
                "duration": 0.16363636363636402,
                "tempo": 120.0
            },
            {
                "start_time": 43.75909090909091,
                "end_time": 43.925,
                "pitch": 44,
                "velocity": 80,
                "duration": 0.16590909090908923,
                "tempo": 120.0
            },
            {
                "start_time": 43.925,
                "end_time": 44.27045454545454,
                "pitch": 48,
                "velocity": 80,
                "duration": 0.3454545454545439,
                "tempo": 120.0
            },
            {
                "start_time": 44.27045454545454,
                "end_time": 44.43863636363636,
                "pitch": 41,
                "velocity": 80,
                "duration": 0.16818181818182154,
                "tempo": 120.0
            },
            {
                "start_time": 44.43863636363636,
                "end_time": 44.60681818181818,
                "pitch": 44,
                "velocity": 80,
                "duration": 0.16818181818181444,
                "tempo": 120.0
            },
            {
                "start_time": 44.60909090909091,
                "end_time": 44.77272727272727,
                "pitch": 48,
                "velocity": 80,
                "duration": 0.16363636363636402,
                "tempo": 120.0
            },
            {
                "start_time": 44.775,
                "end_time": 44.94318181818181,
                "pitch": 44,
                "velocity": 80,
                "duration": 0.16818181818181444,
                "tempo": 120.0
            },
            {
                "start_time": 44.94318181818181,
                "end_time": 45.027272727272724,
                "pitch": 41,
                "velocity": 80,
                "duration": 0.08409090909091077,
                "tempo": 120.0
            },
            {
                "start_time": 45.11590909090909,
                "end_time": 45.28409090909091,
                "pitch": 36,
                "velocity": 80,
                "duration": 0.16818181818181444,
                "tempo": 120.0
            },
            {
                "start_time": 45.28636363636363,
                "end_time": 45.45454545454545,
                "pitch": 41,
                "velocity": 80,
                "duration": 0.16818181818182154,
                "tempo": 120.0
            },
            {
                "start_time": 45.45681818181818,
                "end_time": 45.62045454545454,
                "pitch": 44,
                "velocity": 80,
                "duration": 0.16363636363636402,
                "tempo": 120.0
            },
            {
                "start_time": 45.62272727272727,
                "end_time": 45.959090909090904,
                "pitch": 48,
                "velocity": 80,
                "duration": 0.336363636363636,
                "tempo": 120.0
            },
            {
                "start_time": 45.959090909090904,
                "end_time": 46.12954545454545,
                "pitch": 41,
                "velocity": 80,
                "duration": 0.17045454545454675,
                "tempo": 120.0
            },
            {
                "start_time": 46.12954545454545,
                "end_time": 46.3,
                "pitch": 44,
                "velocity": 80,
                "duration": 0.17045454545454675,
                "tempo": 120.0
            },
            {
                "start_time": 46.30227272727272,
                "end_time": 46.63636363636363,
                "pitch": 48,
                "velocity": 80,
                "duration": 0.33409090909091077,
                "tempo": 120.0
            },
            {
                "start_time": 46.63636363636363,
                "end_time": 46.809090909090905,
                "pitch": 41,
                "velocity": 80,
                "duration": 0.17272727272727195,
                "tempo": 120.0
            },
            {
                "start_time": 46.809090909090905,
                "end_time": 46.98409090909091,
                "pitch": 44,
                "velocity": 80,
                "duration": 0.17500000000000426,
                "tempo": 120.0
            },
            {
                "start_time": 46.98409090909091,
                "end_time": 47.15,
                "pitch": 48,
                "velocity": 80,
                "duration": 0.16590909090908923,
                "tempo": 120.0
            },
            {
                "start_time": 47.15,
                "end_time": 47.41590909090909,
                "pitch": 44,
                "velocity": 80,
                "duration": 0.26590909090909065,
                "tempo": 120.0
            }
        ],
        "Electric Piano 1": [
            {
                "start_time": 9.536363636363635,
                "end_time": 9.7,
                "pitch": 77,
                "velocity": 80,
                "duration": 0.16363636363636402,
                "tempo": 120.0
            },
            {
                "start_time": 9.702272727272726,
                "end_time": 9.868181818181817,
                "pitch": 72,
                "velocity": 80,
                "duration": 0.165909090909091,
                "tempo": 120.0
            },
            {
                "start_time": 9.868181818181817,
                "end_time": 10.036363636363635,
                "pitch": 77,
                "velocity": 80,
                "duration": 0.168181818181818,
                "tempo": 120.0
            },
            {
                "start_time": 10.036363636363635,
                "end_time": 10.206818181818182,
                "pitch": 72,
                "velocity": 80,
                "duration": 0.17045454545454675,
                "tempo": 120.0
            },
            {
                "start_time": 10.209090909090909,
                "end_time": 10.379545454545454,
                "pitch": 68,
                "velocity": 80,
                "duration": 0.17045454545454497,
                "tempo": 120.0
            },
            {
                "start_time": 10.381818181818181,
                "end_time": 10.552272727272726,
                "pitch": 72,
                "velocity": 80,
                "duration": 0.17045454545454497,
                "tempo": 120.0
            },
            {
                "start_time": 10.554545454545455,
                "end_time": 10.725,
                "pitch": 68,
                "velocity": 80,
                "duration": 0.17045454545454497,
                "tempo": 120.0
            },
            {
                "start_time": 10.725,
                "end_time": 10.886363636363637,
                "pitch": 65,
                "velocity": 80,
                "duration": 0.16136363636363704,
                "tempo": 120.0
            },
            {
                "start_time": 10.888636363636364,
                "end_time": 11.049999999999999,
                "pitch": 68,
                "velocity": 80,
                "duration": 0.16136363636363527,
                "tempo": 120.0
            },
            {
                "start_time": 11.049999999999999,
                "end_time": 11.222727272727273,
                "pitch": 65,
                "velocity": 80,
                "duration": 0.17272727272727373,
                "tempo": 120.0
            },
            {
                "start_time": 11.222727272727273,
                "end_time": 11.393181818181818,
                "pitch": 60,
                "velocity": 80,
                "duration": 0.17045454545454497,
                "tempo": 120.0
            },
            {
                "start_time": 11.395454545454545,
                "end_time": 11.561363636363636,
                "pitch": 65,
                "velocity": 80,
                "duration": 0.165909090909091,
                "tempo": 120.0
            },
            {
                "start_time": 11.563636363636363,
                "end_time": 11.729545454545454,
                "pitch": 60,
                "velocity": 80,
                "duration": 0.165909090909091,
                "tempo": 120.0
            },
            {
                "start_time": 11.729545454545454,
                "end_time": 11.902272727272727,
                "pitch": 56,
                "velocity": 80,
                "duration": 0.17272727272727373,
                "tempo": 120.0
            },
            {
                "start_time": 11.904545454545454,
                "end_time": 12.075,
                "pitch": 77,
                "velocity": 80,
                "duration": 0.17045454545454497,
                "tempo": 120.0
            },
            {
                "start_time": 12.075,
                "end_time": 12.24090909090909,
                "pitch": 72,
                "velocity": 80,
                "duration": 0.165909090909091,
                "tempo": 120.0
            },
            {
                "start_time": 12.243181818181817,
                "end_time": 12.409090909090908,
                "pitch": 77,
                "velocity": 80,
                "duration": 0.165909090909091,
                "tempo": 120.0
            },
            {
                "start_time": 12.411363636363635,
                "end_time": 12.581818181818182,
                "pitch": 72,
                "velocity": 80,
                "duration": 0.17045454545454675,
                "tempo": 120.0
            },
            {
                "start_time": 12.584090909090909,
                "end_time": 12.754545454545454,
                "pitch": 68,
                "velocity": 80,
                "duration": 0.17045454545454497,
                "tempo": 120.0
            },
            {
                "start_time": 12.754545454545454,
                "end_time": 12.922727272727272,
                "pitch": 72,
                "velocity": 80,
                "duration": 0.168181818181818,
                "tempo": 120.0
            },
            {
                "start_time": 12.922727272727272,
                "end_time": 13.088636363636363,
                "pitch": 68,
                "velocity": 80,
                "duration": 0.165909090909091,
                "tempo": 120.0
            },
            {
                "start_time": 13.09090909090909,
                "end_time": 13.261363636363635,
                "pitch": 65,
                "velocity": 80,
                "duration": 0.17045454545454497,
                "tempo": 120.0
            },
            {
                "start_time": 13.263636363636364,
                "end_time": 13.434090909090909,
                "pitch": 68,
                "velocity": 80,
                "duration": 0.17045454545454497,
                "tempo": 120.0
            },
            {
                "start_time": 13.436363636363636,
                "end_time": 13.602272727272727,
                "pitch": 65,
                "velocity": 80,
                "duration": 0.165909090909091,
                "tempo": 120.0
            },
            {
                "start_time": 13.602272727272727,
                "end_time": 13.770454545454545,
                "pitch": 60,
                "velocity": 80,
                "duration": 0.168181818181818,
                "tempo": 120.0
            },
            {
                "start_time": 13.770454545454545,
                "end_time": 13.936363636363636,
                "pitch": 65,
                "velocity": 80,
                "duration": 0.165909090909091,
                "tempo": 120.0
            },
            {
                "start_time": 13.938636363636363,
                "end_time": 14.104545454545454,
                "pitch": 60,
                "velocity": 80,
                "duration": 0.165909090909091,
                "tempo": 120.0
            },
            {
                "start_time": 14.10681818181818,
                "end_time": 14.272727272727272,
                "pitch": 56,
                "velocity": 80,
                "duration": 0.165909090909091,
                "tempo": 120.0
            },
            {
                "start_time": 14.274999999999999,
                "end_time": 14.44090909090909,
                "pitch": 77,
                "velocity": 80,
                "duration": 0.165909090909091,
                "tempo": 120.0
            },
            {
                "start_time": 14.44090909090909,
                "end_time": 14.613636363636363,
                "pitch": 72,
                "velocity": 80,
                "duration": 0.17272727272727373,
                "tempo": 120.0
            },
            {
                "start_time": 14.613636363636363,
                "end_time": 14.784090909090908,
                "pitch": 77,
                "velocity": 80,
                "duration": 0.17045454545454497,
                "tempo": 120.0
            },
            {
                "start_time": 14.786363636363635,
                "end_time": 14.952272727272726,
                "pitch": 72,
                "velocity": 80,
                "duration": 0.165909090909091,
                "tempo": 120.0
            },
            {
                "start_time": 14.954545454545453,
                "end_time": 15.120454545454544,
                "pitch": 68,
                "velocity": 80,
                "duration": 0.165909090909091,
                "tempo": 120.0
            },
            {
                "start_time": 15.122727272727271,
                "end_time": 15.293181818181818,
                "pitch": 72,
                "velocity": 80,
                "duration": 0.17045454545454675,
                "tempo": 120.0
            },
            {
                "start_time": 15.293181818181818,
                "end_time": 15.46590909090909,
                "pitch": 68,
                "velocity": 80,
                "duration": 0.17272727272727195,
                "tempo": 120.0
            },
            {
                "start_time": 15.46590909090909,
                "end_time": 15.631818181818181,
                "pitch": 65,
                "velocity": 80,
                "duration": 0.165909090909091,
                "tempo": 120.0
            },
            {
                "start_time": 15.634090909090908,
                "end_time": 15.799999999999999,
                "pitch": 68,
                "velocity": 80,
                "duration": 0.165909090909091,
                "tempo": 120.0
            },
            {
                "start_time": 15.802272727272726,
                "end_time": 15.972727272727273,
                "pitch": 65,
                "velocity": 80,
                "duration": 0.17045454545454675,
                "tempo": 120.0
            },
            {
                "start_time": 15.975,
                "end_time": 16.145454545454545,
                "pitch": 60,
                "velocity": 80,
                "duration": 0.17045454545454497,
                "tempo": 120.0
            },
            {
                "start_time": 16.145454545454545,
                "end_time": 16.313636363636363,
                "pitch": 65,
                "velocity": 80,
                "duration": 0.168181818181818,
                "tempo": 120.0
            },
            {
                "start_time": 16.313636363636363,
                "end_time": 16.48181818181818,
                "pitch": 60,
                "velocity": 80,
                "duration": 0.168181818181818,
                "tempo": 120.0
            },
            {
                "start_time": 16.48181818181818,
                "end_time": 16.647727272727273,
                "pitch": 56,
                "velocity": 80,
                "duration": 0.16590909090909278,
                "tempo": 120.0
            },
            {
                "start_time": 16.65,
                "end_time": 16.81590909090909,
                "pitch": 77,
                "velocity": 80,
                "duration": 0.16590909090909278,
                "tempo": 120.0
            },
            {
                "start_time": 16.818181818181817,
                "end_time": 16.98409090909091,
                "pitch": 72,
                "velocity": 80,
                "duration": 0.16590909090909278,
                "tempo": 120.0
            },
            {
                "start_time": 16.98409090909091,
                "end_time": 17.152272727272727,
                "pitch": 77,
                "velocity": 80,
                "duration": 0.168181818181818,
                "tempo": 120.0
            },
            {
                "start_time": 17.152272727272727,
                "end_time": 17.32272727272727,
                "pitch": 72,
                "velocity": 80,
                "duration": 0.1704545454545432,
                "tempo": 120.0
            },
            {
                "start_time": 17.325,
                "end_time": 17.495454545454546,
                "pitch": 68,
                "velocity": 80,
                "duration": 0.17045454545454675,
                "tempo": 120.0
            },
            {
                "start_time": 17.49772727272727,
                "end_time": 17.663636363636364,
                "pitch": 72,
                "velocity": 80,
                "duration": 0.16590909090909278,
                "tempo": 120.0
            },
            {
                "start_time": 17.66590909090909,
                "end_time": 17.831818181818182,
                "pitch": 68,
                "velocity": 80,
                "duration": 0.16590909090909278,
                "tempo": 120.0
            },
            {
                "start_time": 17.831818181818182,
                "end_time": 18.004545454545454,
                "pitch": 65,
                "velocity": 80,
                "duration": 0.17272727272727195,
                "tempo": 120.0
            },
            {
                "start_time": 18.004545454545454,
                "end_time": 18.177272727272726,
                "pitch": 68,
                "velocity": 80,
                "duration": 0.17272727272727195,
                "tempo": 120.0
            },
            {
                "start_time": 18.177272727272726,
                "end_time": 18.34318181818182,
                "pitch": 65,
                "velocity": 80,
                "duration": 0.16590909090909278,
                "tempo": 120.0
            },
            {
                "start_time": 18.345454545454544,
                "end_time": 18.511363636363637,
                "pitch": 60,
                "velocity": 80,
                "duration": 0.16590909090909278,
                "tempo": 120.0
            },
            {
                "start_time": 18.513636363636362,
                "end_time": 18.68409090909091,
                "pitch": 65,
                "velocity": 80,
                "duration": 0.17045454545454675,
                "tempo": 120.0
            },
            {
                "start_time": 18.68409090909091,
                "end_time": 18.85681818181818,
                "pitch": 60,
                "velocity": 80,
                "duration": 0.17272727272727195,
                "tempo": 120.0
            },
            {
                "start_time": 18.85681818181818,
                "end_time": 19.025,
                "pitch": 67,
                "velocity": 80,
                "duration": 0.168181818181818,
                "tempo": 120.0
            },
            {
                "start_time": 19.361363636363635,
                "end_time": 19.527272727272727,
                "pitch": 65,
                "velocity": 80,
                "duration": 0.16590909090909278,
                "tempo": 120.0
            },
            {
                "start_time": 19.863636363636363,
                "end_time": 20.034090909090907,
                "pitch": 67,
                "velocity": 80,
                "duration": 0.1704545454545432,
                "tempo": 120.0
            },
            {
                "start_time": 20.375,
                "end_time": 20.886363636363637,
                "pitch": 70,
                "velocity": 80,
                "duration": 0.5113636363636367,
                "tempo": 120.0
            },
            {
                "start_time": 20.888636363636362,
                "end_time": 21.054545454545455,
                "pitch": 68,
                "velocity": 80,
                "duration": 0.16590909090909278,
                "tempo": 120.0
            },
            {
                "start_time": 21.222727272727273,
                "end_time": 21.39090909090909,
                "pitch": 67,
                "velocity": 80,
                "duration": 0.168181818181818,
                "tempo": 120.0
            },
            {
                "start_time": 21.73181818181818,
                "end_time": 21.902272727272727,
                "pitch": 65,
                "velocity": 80,
                "duration": 0.17045454545454675,
                "tempo": 120.0
            },
            {
                "start_time": 22.238636363636363,
                "end_time": 22.411363636363635,
                "pitch": 67,
                "velocity": 80,
                "duration": 0.17272727272727195,
                "tempo": 120.0
            },
            {
                "start_time": 22.752272727272725,
                "end_time": 23.254545454545454,
                "pitch": 70,
                "velocity": 80,
                "duration": 0.5022727272727288,
                "tempo": 120.0
            },
            {
                "start_time": 23.254545454545454,
                "end_time": 23.420454545454543,
                "pitch": 68,
                "velocity": 80,
                "duration": 0.16590909090908923,
                "tempo": 120.0
            },
            {
                "start_time": 23.59090909090909,
                "end_time": 23.761363636363637,
                "pitch": 67,
                "velocity": 80,
                "duration": 0.17045454545454675,
                "tempo": 120.0
            },
            {
                "start_time": 24.102272727272727,
                "end_time": 24.268181818181816,
                "pitch": 65,
                "velocity": 80,
                "duration": 0.16590909090908923,
                "tempo": 120.0
            },
            {
                "start_time": 24.61590909090909,
                "end_time": 24.786363636363635,
                "pitch": 67,
                "velocity": 80,
                "duration": 0.17045454545454675,
                "tempo": 120.0
            },
            {
                "start_time": 25.12272727272727,
                "end_time": 25.627272727272725,
                "pitch": 70,
                "velocity": 80,
                "duration": 0.504545454545454,
                "tempo": 120.0
            },
            {
                "start_time": 25.629545454545454,
                "end_time": 25.795454545454543,
                "pitch": 68,
                "velocity": 80,
                "duration": 0.16590909090908923,
                "tempo": 120.0
            },
            {
                "start_time": 25.96363636363636,
                "end_time": 26.136363636363637,
                "pitch": 67,
                "velocity": 80,
                "duration": 0.1727272727272755,
                "tempo": 120.0
            },
            {
                "start_time": 26.477272727272727,
                "end_time": 26.643181818181816,
                "pitch": 65,
                "velocity": 80,
                "duration": 0.16590909090908923,
                "tempo": 120.0
            },
            {
                "start_time": 26.979545454545452,
                "end_time": 27.15,
                "pitch": 67,
                "velocity": 80,
                "duration": 0.17045454545454675,
                "tempo": 120.0
            },
            {
                "start_time": 27.49090909090909,
                "end_time": 27.993181818181817,
                "pitch": 70,
                "velocity": 80,
                "duration": 0.5022727272727288,
                "tempo": 120.0
            },
            {
                "start_time": 27.995454545454542,
                "end_time": 28.16590909090909,
                "pitch": 68,
                "velocity": 80,
                "duration": 0.17045454545454675,
                "tempo": 120.0
            },
            {
                "start_time": 28.33863636363636,
                "end_time": 28.50681818181818,
                "pitch": 67,
                "velocity": 80,
                "duration": 0.168181818181818,
                "tempo": 120.0
            },
            {
                "start_time": 28.509090909090908,
                "end_time": 28.674999999999997,
                "pitch": 77,
                "velocity": 80,
                "duration": 0.16590909090908923,
                "tempo": 120.0
            },
            {
                "start_time": 28.674999999999997,
                "end_time": 28.84090909090909,
                "pitch": 72,
                "velocity": 80,
                "duration": 0.16590909090909278,
                "tempo": 120.0
            },
            {
                "start_time": 28.843181818181815,
                "end_time": 29.009090909090908,
                "pitch": 77,
                "velocity": 80,
                "duration": 0.16590909090909278,
                "tempo": 120.0
            },
            {
                "start_time": 29.011363636363637,
                "end_time": 29.18181818181818,
                "pitch": 72,
                "velocity": 80,
                "duration": 0.1704545454545432,
                "tempo": 120.0
            },
            {
                "start_time": 29.18181818181818,
                "end_time": 29.354545454545452,
                "pitch": 68,
                "velocity": 80,
                "duration": 0.17272727272727195,
                "tempo": 120.0
            },
            {
                "start_time": 29.354545454545452,
                "end_time": 29.52272727272727,
                "pitch": 72,
                "velocity": 80,
                "duration": 0.168181818181818,
                "tempo": 120.0
            },
            {
                "start_time": 29.52272727272727,
                "end_time": 29.688636363636363,
                "pitch": 68,
                "velocity": 80,
                "duration": 0.16590909090909278,
                "tempo": 120.0
            },
            {
                "start_time": 29.690909090909088,
                "end_time": 29.861363636363635,
                "pitch": 65,
                "velocity": 80,
                "duration": 0.17045454545454675,
                "tempo": 120.0
            },
            {
                "start_time": 29.863636363636363,
                "end_time": 30.034090909090907,
                "pitch": 68,
                "velocity": 80,
                "duration": 0.1704545454545432,
                "tempo": 120.0
            },
            {
                "start_time": 30.034090909090907,
                "end_time": 30.202272727272724,
                "pitch": 65,
                "velocity": 80,
                "duration": 0.168181818181818,
                "tempo": 120.0
            },
            {
                "start_time": 30.202272727272724,
                "end_time": 30.370454545454542,
                "pitch": 60,
                "velocity": 80,
                "duration": 0.168181818181818,
                "tempo": 120.0
            },
            {
                "start_time": 30.370454545454542,
                "end_time": 30.536363636363635,
                "pitch": 65,
                "velocity": 80,
                "duration": 0.16590909090909278,
                "tempo": 120.0
            },
            {
                "start_time": 30.53863636363636,
                "end_time": 30.704545454545453,
                "pitch": 60,
                "velocity": 80,
                "duration": 0.16590909090909278,
                "tempo": 120.0
            },
            {
                "start_time": 30.706818181818182,
                "end_time": 30.877272727272725,
                "pitch": 56,
                "velocity": 80,
                "duration": 0.1704545454545432,
                "tempo": 120.0
            },
            {
                "start_time": 30.879545454545454,
                "end_time": 31.049999999999997,
                "pitch": 77,
                "velocity": 80,
                "duration": 0.1704545454545432,
                "tempo": 120.0
            },
            {
                "start_time": 31.049999999999997,
                "end_time": 31.218181818181815,
                "pitch": 72,
                "velocity": 80,
                "duration": 0.168181818181818,
                "tempo": 120.0
            },
            {
                "start_time": 31.218181818181815,
                "end_time": 31.384090909090908,
                "pitch": 77,
                "velocity": 80,
                "duration": 0.16590909090909278,
                "tempo": 120.0
            },
            {
                "start_time": 31.386363636363633,
                "end_time": 31.55681818181818,
                "pitch": 72,
                "velocity": 80,
                "duration": 0.17045454545454675,
                "tempo": 120.0
            },
            {
                "start_time": 31.55909090909091,
                "end_time": 31.729545454545452,
                "pitch": 68,
                "velocity": 80,
                "duration": 0.1704545454545432,
                "tempo": 120.0
            },
            {
                "start_time": 31.73181818181818,
                "end_time": 31.89772727272727,
                "pitch": 72,
                "velocity": 80,
                "duration": 0.16590909090908923,
                "tempo": 120.0
            },
            {
                "start_time": 31.89772727272727,
                "end_time": 32.06590909090909,
                "pitch": 68,
                "velocity": 80,
                "duration": 0.168181818181818,
                "tempo": 120.0
            },
            {
                "start_time": 32.06590909090909,
                "end_time": 32.23181818181818,
                "pitch": 65,
                "velocity": 80,
                "duration": 0.16590909090908923,
                "tempo": 120.0
            },
            {
                "start_time": 32.23409090909091,
                "end_time": 32.4,
                "pitch": 68,
                "velocity": 80,
                "duration": 0.16590909090908923,
                "tempo": 120.0
            },
            {
                "start_time": 32.402272727272724,
                "end_time": 32.57272727272727,
                "pitch": 65,
                "velocity": 80,
                "duration": 0.17045454545454675,
                "tempo": 120.0
            },
            {
                "start_time": 32.57272727272727,
                "end_time": 32.74545454545454,
                "pitch": 60,
                "velocity": 80,
                "duration": 0.17272727272727195,
                "tempo": 120.0
            },
            {
                "start_time": 32.74545454545454,
                "end_time": 32.913636363636364,
                "pitch": 65,
                "velocity": 80,
                "duration": 0.16818181818182154,
                "tempo": 120.0
            },
            {
                "start_time": 32.913636363636364,
                "end_time": 33.07954545454545,
                "pitch": 60,
                "velocity": 80,
                "duration": 0.16590909090908923,
                "tempo": 120.0
            },
            {
                "start_time": 33.08181818181818,
                "end_time": 33.24772727272727,
                "pitch": 56,
                "velocity": 80,
                "duration": 0.16590909090908923,
                "tempo": 120.0
            },
            {
                "start_time": 33.25,
                "end_time": 33.41590909090909,
                "pitch": 77,
                "velocity": 80,
                "duration": 0.16590909090908923,
                "tempo": 120.0
            },
            {
                "start_time": 33.41590909090909,
                "end_time": 33.58863636363636,
                "pitch": 72,
                "velocity": 80,
                "duration": 0.17272727272727195,
                "tempo": 120.0
            },
            {
                "start_time": 33.58863636363636,
                "end_time": 33.76136363636363,
                "pitch": 77,
                "velocity": 80,
                "duration": 0.17272727272727195,
                "tempo": 120.0
            },
            {
                "start_time": 33.76136363636363,
                "end_time": 33.92727272727272,
                "pitch": 72,
                "velocity": 80,
                "duration": 0.16590909090908923,
                "tempo": 120.0
            },
            {
                "start_time": 33.929545454545455,
                "end_time": 34.095454545454544,
                "pitch": 68,
                "velocity": 80,
                "duration": 0.16590909090908923,
                "tempo": 120.0
            },
            {
                "start_time": 34.09772727272727,
                "end_time": 34.268181818181816,
                "pitch": 72,
                "velocity": 80,
                "duration": 0.17045454545454675,
                "tempo": 120.0
            },
            {
                "start_time": 34.27045454545454,
                "end_time": 34.44090909090909,
                "pitch": 68,
                "velocity": 80,
                "duration": 0.17045454545454675,
                "tempo": 120.0
            },
            {
                "start_time": 34.44090909090909,
                "end_time": 34.60909090909091,
                "pitch": 65,
                "velocity": 80,
                "duration": 0.16818181818182154,
                "tempo": 120.0
            },
            {
                "start_time": 34.60909090909091,
                "end_time": 34.775,
                "pitch": 68,
                "velocity": 80,
                "duration": 0.16590909090908923,
                "tempo": 120.0
            },
            {
                "start_time": 34.777272727272724,
                "end_time": 34.94772727272727,
                "pitch": 65,
                "velocity": 80,
                "duration": 0.17045454545454675,
                "tempo": 120.0
            },
            {
                "start_time": 34.949999999999996,
                "end_time": 35.12045454545454,
                "pitch": 60,
                "velocity": 80,
                "duration": 0.17045454545454675,
                "tempo": 120.0
            },
            {
                "start_time": 35.12272727272727,
                "end_time": 35.288636363636364,
                "pitch": 65,
                "velocity": 80,
                "duration": 0.16590909090909634,
                "tempo": 120.0
            },
            {
                "start_time": 35.288636363636364,
                "end_time": 35.45681818181818,
                "pitch": 60,
                "velocity": 80,
                "duration": 0.16818181818181444,
                "tempo": 120.0
            },
            {
                "start_time": 35.45681818181818,
                "end_time": 35.625,
                "pitch": 56,
                "velocity": 80,
                "duration": 0.16818181818182154,
                "tempo": 120.0
            },
            {
                "start_time": 35.625,
                "end_time": 35.79090909090909,
                "pitch": 77,
                "velocity": 80,
                "duration": 0.16590909090908923,
                "tempo": 120.0
            },
            {
                "start_time": 35.793181818181814,
                "end_time": 35.95909090909091,
                "pitch": 72,
                "velocity": 80,
                "duration": 0.16590909090909634,
                "tempo": 120.0
            },
            {
                "start_time": 35.95909090909091,
                "end_time": 36.127272727272725,
                "pitch": 77,
                "velocity": 80,
                "duration": 0.16818181818181444,
                "tempo": 120.0
            },
            {
                "start_time": 36.127272727272725,
                "end_time": 36.3,
                "pitch": 72,
                "velocity": 80,
                "duration": 0.17272727272727195,
                "tempo": 120.0
            },
            {
                "start_time": 36.3,
                "end_time": 36.470454545454544,
                "pitch": 68,
                "velocity": 80,
                "duration": 0.17045454545454675,
                "tempo": 120.0
            },
            {
                "start_time": 36.47272727272727,
                "end_time": 36.643181818181816,
                "pitch": 72,
                "velocity": 80,
                "duration": 0.17045454545454675,
                "tempo": 120.0
            },
            {
                "start_time": 36.64545454545454,
                "end_time": 36.81590909090909,
                "pitch": 68,
                "velocity": 80,
                "duration": 0.17045454545454675,
                "tempo": 120.0
            },
            {
                "start_time": 36.81818181818181,
                "end_time": 36.98409090909091,
                "pitch": 65,
                "velocity": 80,
                "duration": 0.16590909090909634,
                "tempo": 120.0
            },
            {
                "start_time": 36.986363636363635,
                "end_time": 37.152272727272724,
                "pitch": 68,
                "velocity": 80,
                "duration": 0.16590909090908923,
                "tempo": 120.0
            },
            {
                "start_time": 37.152272727272724,
                "end_time": 37.320454545454545,
                "pitch": 65,
                "velocity": 80,
                "duration": 0.16818181818182154,
                "tempo": 120.0
            },
            {
                "start_time": 37.320454545454545,
                "end_time": 37.486363636363635,
                "pitch": 60,
                "velocity": 80,
                "duration": 0.16590909090908923,
                "tempo": 120.0
            },
            {
                "start_time": 37.48863636363636,
                "end_time": 37.65909090909091,
                "pitch": 65,
                "velocity": 80,
                "duration": 0.17045454545454675,
                "tempo": 120.0
            },
            {
                "start_time": 37.66136363636363,
                "end_time": 37.83181818181818,
                "pitch": 60,
                "velocity": 80,
                "duration": 0.17045454545454675,
                "tempo": 120.0
            },
            {
                "start_time": 37.83409090909091,
                "end_time": 38.0,
                "pitch": 67,
                "velocity": 80,
                "duration": 0.16590909090908923,
                "tempo": 120.0
            },
            {
                "start_time": 38.336363636363636,
                "end_time": 38.502272727272725,
                "pitch": 65,
                "velocity": 80,
                "duration": 0.16590909090908923,
                "tempo": 120.0
            },
            {
                "start_time": 38.83863636363636,
                "end_time": 39.01136363636363,
                "pitch": 67,
                "velocity": 80,
                "duration": 0.17272727272727195,
                "tempo": 120.0
            },
            {
                "start_time": 39.35227272727273,
                "end_time": 39.86363636363636,
                "pitch": 70,
                "velocity": 80,
                "duration": 0.5113636363636331,
                "tempo": 120.0
            },
            {
                "start_time": 39.86363636363636,
                "end_time": 40.029545454545456,
                "pitch": 68,
                "velocity": 80,
                "duration": 0.16590909090909634,
                "tempo": 120.0
            },
            {
                "start_time": 40.199999999999996,
                "end_time": 40.36590909090909,
                "pitch": 67,
                "velocity": 80,
                "duration": 0.16590909090909634,
                "tempo": 120.0
            },
            {
                "start_time": 40.70681818181818,
                "end_time": 40.877272727272725,
                "pitch": 65,
                "velocity": 80,
                "duration": 0.17045454545454675,
                "tempo": 120.0
            },
            {
                "start_time": 41.215909090909086,
                "end_time": 41.38636363636363,
                "pitch": 67,
                "velocity": 80,
                "duration": 0.17045454545454675,
                "tempo": 120.0
            },
            {
                "start_time": 41.72727272727273,
                "end_time": 42.22954545454545,
                "pitch": 70,
                "velocity": 80,
                "duration": 0.5022727272727252,
                "tempo": 120.0
            },
            {
                "start_time": 42.22954545454545,
                "end_time": 42.402272727272724,
                "pitch": 68,
                "velocity": 80,
                "duration": 0.17272727272727195,
                "tempo": 120.0
            },
            {
                "start_time": 42.574999999999996,
                "end_time": 42.74090909090909,
                "pitch": 67,
                "velocity": 80,
                "duration": 0.16590909090909634,
                "tempo": 120.0
            },
            {
                "start_time": 43.08181818181818,
                "end_time": 43.25454545454545,
                "pitch": 65,
                "velocity": 80,
                "duration": 0.17272727272727195,
                "tempo": 120.0
            },
            {
                "start_time": 43.590909090909086,
                "end_time": 43.75681818181818,
                "pitch": 67,
                "velocity": 80,
                "duration": 0.16590909090909634,
                "tempo": 120.0
            },
            {
                "start_time": 44.09772727272727,
                "end_time": 44.60454545454545,
                "pitch": 70,
                "velocity": 80,
                "duration": 0.5068181818181827,
                "tempo": 120.0
            },
            {
                "start_time": 44.60681818181818,
                "end_time": 44.77272727272727,
                "pitch": 68,
                "velocity": 80,
                "duration": 0.16590909090909634,
                "tempo": 120.0
            },
            {
                "start_time": 44.94090909090909,
                "end_time": 45.11363636363636,
                "pitch": 67,
                "velocity": 80,
                "duration": 0.17272727272727195,
                "tempo": 120.0
            },
            {
                "start_time": 45.45454545454545,
                "end_time": 45.62045454545454,
                "pitch": 65,
                "velocity": 80,
                "duration": 0.16590909090908923,
                "tempo": 120.0
            },
            {
                "start_time": 45.95681818181818,
                "end_time": 46.127272727272725,
                "pitch": 67,
                "velocity": 80,
                "duration": 0.17045454545454675,
                "tempo": 120.0
            },
            {
                "start_time": 46.46818181818182,
                "end_time": 46.97954545454545,
                "pitch": 70,
                "velocity": 80,
                "duration": 0.5113636363636331,
                "tempo": 120.0
            },
            {
                "start_time": 46.98181818181818,
                "end_time": 47.14772727272727,
                "pitch": 68,
                "velocity": 80,
                "duration": 0.16590909090909634,
                "tempo": 120.0
            }
        ]
    }
}