{
    "track_id": "17 Boss 3",
    "mood": "angry",
    "instruments": {
        "Trumpet": [
            {
                "start_time": 0.011363636363636364,
                "end_time": 0.08409090909090909,
                "pitch": 57,
                "velocity": 80,
                "duration": 0.07272727272727272,
                "tempo": 120.0
            },
            {
                "start_time": 0.08409090909090909,
                "end_time": 0.18181818181818182,
                "pitch": 59,
                "velocity": 80,
                "duration": 0.09772727272727273,
                "tempo": 120.0
            },
            {
                "start_time": 0.18181818181818182,
                "end_time": 0.2636363636363636,
                "pitch": 60,
                "velocity": 80,
                "duration": 0.08181818181818179,
                "tempo": 120.0
            },
            {
                "start_time": 0.2636363636363636,
                "end_time": 0.36136363636363633,
                "pitch": 62,
                "velocity": 80,
                "duration": 0.09772727272727272,
                "tempo": 120.0
            },
            {
                "start_time": 0.36136363636363633,
                "end_time": 1.0954545454545455,
                "pitch": 64,
                "velocity": 80,
                "duration": 0.7340909090909091,
                "tempo": 120.0
            },
            {
                "start_time": 1.0977272727272727,
                "end_time": 1.4704545454545455,
                "pitch": 60,
                "velocity": 80,
                "duration": 0.3727272727272728,
                "tempo": 120.0
            },
            {
                "start_time": 1.4704545454545455,
                "end_time": 2.9568181818181816,
                "pitch": 66,
                "velocity": 80,
                "duration": 1.486363636363636,
                "tempo": 120.0
            },
            {
                "start_time": 2.9568181818181816,
                "end_time": 3.043181818181818,
                "pitch": 57,
                "velocity": 80,
                "duration": 0.08636363636363642,
                "tempo": 120.0
            },
            {
                "start_time": 3.043181818181818,
                "end_time": 3.1454545454545455,
                "pitch": 59,
                "velocity": 80,
                "duration": 0.10227272727272751,
                "tempo": 120.0
            },
            {
                "start_time": 3.1454545454545455,
                "end_time": 3.2318181818181815,
                "pitch": 60,
                "velocity": 80,
                "duration": 0.08636363636363598,
                "tempo": 120.0
            },
            {
                "start_time": 3.2318181818181815,
                "end_time": 3.334090909090909,
                "pitch": 62,
                "velocity": 80,
                "duration": 0.10227272727272751,
                "tempo": 120.0
            },
            {
                "start_time": 3.334090909090909,
                "end_time": 4.079545454545454,
                "pitch": 64,
                "velocity": 80,
                "duration": 0.7454545454545451,
                "tempo": 120.0
            },
            {
                "start_time": 4.079545454545454,
                "end_time": 4.454545454545454,
                "pitch": 60,
                "velocity": 80,
                "duration": 0.375,
                "tempo": 120.0
            },
            {
                "start_time": 4.454545454545454,
                "end_time": 5.9409090909090905,
                "pitch": 63,
                "velocity": 80,
                "duration": 1.4863636363636363,
                "tempo": 120.0
            },
            {
                "start_time": 5.9409090909090905,
                "end_time": 6.0227272727272725,
                "pitch": 57,
                "velocity": 80,
                "duration": 0.08181818181818201,
                "tempo": 120.0
            },
            {
                "start_time": 6.0249999999999995,
                "end_time": 6.125,
                "pitch": 59,
                "velocity": 80,
                "duration": 0.10000000000000053,
                "tempo": 120.0
            },
            {
                "start_time": 6.125,
                "end_time": 6.209090909090909,
                "pitch": 60,
                "velocity": 80,
                "duration": 0.084090909090909,
                "tempo": 120.0
            },
            {
                "start_time": 6.209090909090909,
                "end_time": 6.309090909090909,
                "pitch": 62,
                "velocity": 80,
                "duration": 0.09999999999999964,
                "tempo": 120.0
            },
            {
                "start_time": 6.309090909090909,
                "end_time": 7.052272727272727,
                "pitch": 64,
                "velocity": 80,
                "duration": 0.7431818181818182,
                "tempo": 120.0
            },
            {
                "start_time": 7.054545454545454,
                "end_time": 7.427272727272727,
                "pitch": 60,
                "velocity": 80,
                "duration": 0.372727272727273,
                "tempo": 120.0
            },
            {
                "start_time": 7.427272727272727,
                "end_time": 8.913636363636364,
                "pitch": 66,
                "velocity": 80,
                "duration": 1.4863636363636372,
                "tempo": 120.0
            },
            {
                "start_time": 8.913636363636364,
                "end_time": 9.0,
                "pitch": 57,
                "velocity": 80,
                "duration": 0.08636363636363598,
                "tempo": 120.0
            },
            {
                "start_time": 9.0,
                "end_time": 9.102272727272727,
                "pitch": 59,
                "velocity": 80,
                "duration": 0.10227272727272663,
                "tempo": 120.0
            },
            {
                "start_time": 9.102272727272727,
                "end_time": 9.188636363636363,
                "pitch": 60,
                "velocity": 80,
                "duration": 0.08636363636363598,
                "tempo": 120.0
            },
            {
                "start_time": 9.188636363636363,
                "end_time": 9.290909090909091,
                "pitch": 62,
                "velocity": 80,
                "duration": 0.1022727272727284,
                "tempo": 120.0
            },
            {
                "start_time": 9.290909090909091,
                "end_time": 10.036363636363635,
                "pitch": 64,
                "velocity": 80,
                "duration": 0.7454545454545443,
                "tempo": 120.0
            },
            {
                "start_time": 10.036363636363635,
                "end_time": 10.4,
                "pitch": 60,
                "velocity": 80,
                "duration": 0.3636363636363651,
                "tempo": 120.0
            },
            {
                "start_time": 10.402272727272727,
                "end_time": 11.897727272727272,
                "pitch": 63,
                "velocity": 80,
                "duration": 1.4954545454545443,
                "tempo": 120.0
            }
        ],
        "Lead 2 (sawtooth)": [
            {
                "start_time": 0.00909090909090909,
                "end_time": 0.08409090909090909,
                "pitch": 50,
                "velocity": 101,
                "duration": 0.075,
                "tempo": 120.0
            },
            {
                "start_time": 0.08409090909090909,
                "end_time": 0.18181818181818182,
                "pitch": 52,
                "velocity": 101,
                "duration": 0.09772727272727273,
                "tempo": 120.0
            },
            {
                "start_time": 0.18181818181818182,
                "end_time": 0.2636363636363636,
                "pitch": 53,
                "velocity": 101,
                "duration": 0.08181818181818179,
                "tempo": 120.0
            },
            {
                "start_time": 0.2636363636363636,
                "end_time": 0.36136363636363633,
                "pitch": 55,
                "velocity": 101,
                "duration": 0.09772727272727272,
                "tempo": 120.0
            },
            {
                "start_time": 0.36136363636363633,
                "end_time": 1.0954545454545455,
                "pitch": 57,
                "velocity": 101,
                "duration": 0.7340909090909091,
                "tempo": 120.0
            },
            {
                "start_time": 1.0954545454545455,
                "end_time": 1.4704545454545455,
                "pitch": 53,
                "velocity": 101,
                "duration": 0.375,
                "tempo": 120.0
            },
            {
                "start_time": 1.4704545454545455,
                "end_time": 2.9568181818181816,
                "pitch": 59,
                "velocity": 101,
                "duration": 1.486363636363636,
                "tempo": 120.0
            },
            {
                "start_time": 2.9568181818181816,
                "end_time": 3.0409090909090906,
                "pitch": 50,
                "velocity": 101,
                "duration": 0.084090909090909,
                "tempo": 120.0
            },
            {
                "start_time": 3.043181818181818,
                "end_time": 3.1454545454545455,
                "pitch": 52,
                "velocity": 101,
                "duration": 0.10227272727272751,
                "tempo": 120.0
            },
            {
                "start_time": 3.1454545454545455,
                "end_time": 3.2318181818181815,
                "pitch": 53,
                "velocity": 101,
                "duration": 0.08636363636363598,
                "tempo": 120.0
            },
            {
                "start_time": 3.2318181818181815,
                "end_time": 3.334090909090909,
                "pitch": 55,
                "velocity": 101,
                "duration": 0.10227272727272751,
                "tempo": 120.0
            },
            {
                "start_time": 3.334090909090909,
                "end_time": 4.079545454545454,
                "pitch": 57,
                "velocity": 101,
                "duration": 0.7454545454545451,
                "tempo": 120.0
            },
            {
                "start_time": 4.079545454545454,
                "end_time": 4.452272727272727,
                "pitch": 53,
                "velocity": 101,
                "duration": 0.372727272727273,
                "tempo": 120.0
            },
            {
                "start_time": 4.454545454545454,
                "end_time": 5.9409090909090905,
                "pitch": 56,
                "velocity": 101,
                "duration": 1.4863636363636363,
                "tempo": 120.0
            },
            {
                "start_time": 5.9409090909090905,
                "end_time": 6.0227272727272725,
                "pitch": 50,
                "velocity": 101,
                "duration": 0.08181818181818201,
                "tempo": 120.0
            },
            {
                "start_time": 6.0227272727272725,
                "end_time": 6.125,
                "pitch": 52,
                "velocity": 101,
                "duration": 0.10227272727272751,
                "tempo": 120.0
            },
            {
                "start_time": 6.125,
                "end_time": 6.206818181818181,
                "pitch": 53,
                "velocity": 101,
                "duration": 0.08181818181818112,
                "tempo": 120.0
            },
            {
                "start_time": 6.209090909090909,
                "end_time": 6.309090909090909,
                "pitch": 55,
                "velocity": 101,
                "duration": 0.09999999999999964,
                "tempo": 120.0
            },
            {
                "start_time": 6.309090909090909,
                "end_time": 7.052272727272727,
                "pitch": 57,
                "velocity": 101,
                "duration": 0.7431818181818182,
                "tempo": 120.0
            },
            {
                "start_time": 7.052272727272727,
                "end_time": 7.427272727272727,
                "pitch": 53,
                "velocity": 101,
                "duration": 0.375,
                "tempo": 120.0
            },
            {
                "start_time": 7.427272727272727,
                "end_time": 8.913636363636364,
                "pitch": 59,
                "velocity": 101,
                "duration": 1.4863636363636372,
                "tempo": 120.0
            },
            {
                "start_time": 8.913636363636364,
                "end_time": 8.997727272727273,
                "pitch": 50,
                "velocity": 101,
                "duration": 0.084090909090909,
                "tempo": 120.0
            },
            {
                "start_time": 9.0,
                "end_time": 9.102272727272727,
                "pitch": 52,
                "velocity": 101,
                "duration": 0.10227272727272663,
                "tempo": 120.0
            },
            {
                "start_time": 9.102272727272727,
                "end_time": 9.188636363636363,
                "pitch": 53,
                "velocity": 101,
                "duration": 0.08636363636363598,
                "tempo": 120.0
            },
            {
                "start_time": 9.188636363636363,
                "end_time": 9.290909090909091,
                "pitch": 55,
                "velocity": 101,
                "duration": 0.1022727272727284,
                "tempo": 120.0
            },
            {
                "start_time": 9.290909090909091,
                "end_time": 10.036363636363635,
                "pitch": 57,
                "velocity": 101,
                "duration": 0.7454545454545443,
                "tempo": 120.0
            },
            {
                "start_time": 10.036363636363635,
                "end_time": 10.4,
                "pitch": 53,
                "velocity": 101,
                "duration": 0.3636363636363651,
                "tempo": 120.0
            },
            {
                "start_time": 10.4,
                "end_time": 11.897727272727272,
                "pitch": 56,
                "velocity": 101,
                "duration": 1.4977272727272712,
                "tempo": 120.0
            },
            {
                "start_time": 11.897727272727272,
                "end_time": 11.979545454545454,
                "pitch": 45,
                "velocity": 80,
                "duration": 0.08181818181818201,
                "tempo": 120.0
            },
            {
                "start_time": 11.979545454545454,
                "end_time": 12.081818181818182,
                "pitch": 51,
                "velocity": 80,
                "duration": 0.1022727272727284,
                "tempo": 120.0
            },
            {
                "start_time": 12.081818181818182,
                "end_time": 12.163636363636362,
                "pitch": 57,
                "velocity": 80,
                "duration": 0.08181818181818024,
                "tempo": 120.0
            },
            {
                "start_time": 12.165909090909091,
                "end_time": 12.26590909090909,
                "pitch": 60,
                "velocity": 80,
                "duration": 0.09999999999999964,
                "tempo": 120.0
            },
            {
                "start_time": 12.26590909090909,
                "end_time": 13.009090909090908,
                "pitch": 66,
                "velocity": 80,
                "duration": 0.7431818181818173,
                "tempo": 120.0
            },
            {
                "start_time": 13.009090909090908,
                "end_time": 13.752272727272727,
                "pitch": 72,
                "velocity": 80,
                "duration": 0.743181818181819,
                "tempo": 120.0
            },
            {
                "start_time": 13.752272727272727,
                "end_time": 14.127272727272727,
                "pitch": 72,
                "velocity": 80,
                "duration": 0.375,
                "tempo": 120.0
            },
            {
                "start_time": 14.127272727272727,
                "end_time": 14.495454545454544,
                "pitch": 72,
                "velocity": 80,
                "duration": 0.3681818181818173,
                "tempo": 120.0
            },
            {
                "start_time": 14.497727272727271,
                "end_time": 14.870454545454544,
                "pitch": 72,
                "velocity": 80,
                "duration": 0.372727272727273,
                "tempo": 120.0
            },
            {
                "start_time": 14.870454545454544,
                "end_time": 14.954545454545453,
                "pitch": 72,
                "velocity": 80,
                "duration": 0.084090909090909,
                "tempo": 120.0
            },
            {
                "start_time": 14.954545454545453,
                "end_time": 15.054545454545455,
                "pitch": 72,
                "velocity": 80,
                "duration": 0.10000000000000142,
                "tempo": 120.0
            },
            {
                "start_time": 15.054545454545455,
                "end_time": 15.138636363636364,
                "pitch": 71,
                "velocity": 80,
                "duration": 0.084090909090909,
                "tempo": 120.0
            },
            {
                "start_time": 15.138636363636364,
                "end_time": 15.238636363636363,
                "pitch": 69,
                "velocity": 80,
                "duration": 0.09999999999999964,
                "tempo": 120.0
            },
            {
                "start_time": 15.238636363636363,
                "end_time": 16.35681818181818,
                "pitch": 66,
                "velocity": 80,
                "duration": 1.1181818181818173,
                "tempo": 120.0
            },
            {
                "start_time": 16.35681818181818,
                "end_time": 16.44090909090909,
                "pitch": 66,
                "velocity": 80,
                "duration": 0.08409090909091077,
                "tempo": 120.0
            },
            {
                "start_time": 16.44090909090909,
                "end_time": 16.54090909090909,
                "pitch": 65,
                "velocity": 80,
                "duration": 0.09999999999999787,
                "tempo": 120.0
            },
            {
                "start_time": 16.54090909090909,
                "end_time": 16.625,
                "pitch": 64,
                "velocity": 80,
                "duration": 0.08409090909091077,
                "tempo": 120.0
            },
            {
                "start_time": 16.625,
                "end_time": 16.724999999999998,
                "pitch": 63,
                "velocity": 80,
                "duration": 0.09999999999999787,
                "tempo": 120.0
            },
            {
                "start_time": 16.724999999999998,
                "end_time": 16.82272727272727,
                "pitch": 62,
                "velocity": 80,
                "duration": 0.09772727272727266,
                "tempo": 120.0
            },
            {
                "start_time": 16.82272727272727,
                "end_time": 16.904545454545453,
                "pitch": 61,
                "velocity": 80,
                "duration": 0.08181818181818201,
                "tempo": 120.0
            },
            {
                "start_time": 16.90681818181818,
                "end_time": 17.002272727272725,
                "pitch": 60,
                "velocity": 80,
                "duration": 0.0954545454545439,
                "tempo": 120.0
            },
            {
                "start_time": 17.002272727272725,
                "end_time": 17.099999999999998,
                "pitch": 59,
                "velocity": 80,
                "duration": 0.09772727272727266,
                "tempo": 120.0
            },
            {
                "start_time": 17.099999999999998,
                "end_time": 17.186363636363634,
                "pitch": 57,
                "velocity": 80,
                "duration": 0.08636363636363598,
                "tempo": 120.0
            },
            {
                "start_time": 17.186363636363634,
                "end_time": 17.288636363636364,
                "pitch": 56,
                "velocity": 80,
                "duration": 0.10227272727273018,
                "tempo": 120.0
            },
            {
                "start_time": 17.288636363636364,
                "end_time": 17.375,
                "pitch": 55,
                "velocity": 80,
                "duration": 0.08636363636363598,
                "tempo": 120.0
            },
            {
                "start_time": 17.375,
                "end_time": 17.479545454545455,
                "pitch": 54,
                "velocity": 80,
                "duration": 0.10454545454545539,
                "tempo": 120.0
            },
            {
                "start_time": 17.479545454545455,
                "end_time": 17.57272727272727,
                "pitch": 53,
                "velocity": 80,
                "duration": 0.09318181818181515,
                "tempo": 120.0
            },
            {
                "start_time": 17.57272727272727,
                "end_time": 17.654545454545453,
                "pitch": 52,
                "velocity": 80,
                "duration": 0.08181818181818201,
                "tempo": 120.0
            },
            {
                "start_time": 17.654545454545453,
                "end_time": 17.74772727272727,
                "pitch": 51,
                "velocity": 80,
                "duration": 0.0931818181818187,
                "tempo": 120.0
            },
            {
                "start_time": 17.74772727272727,
                "end_time": 17.84318181818182,
                "pitch": 50,
                "velocity": 80,
                "duration": 0.09545454545454746,
                "tempo": 120.0
            },
            {
                "start_time": 17.84318181818182,
                "end_time": 18.099999999999998,
                "pitch": 45,
                "velocity": 80,
                "duration": 0.25681818181817917,
                "tempo": 120.0
            },
            {
                "start_time": 18.099999999999998,
                "end_time": 18.347727272727273,
                "pitch": 51,
                "velocity": 80,
                "duration": 0.2477272727272748,
                "tempo": 120.0
            },
            {
                "start_time": 18.347727272727273,
                "end_time": 18.586363636363636,
                "pitch": 57,
                "velocity": 80,
                "duration": 0.2386363636363633,
                "tempo": 120.0
            },
            {
                "start_time": 18.586363636363636,
                "end_time": 18.84318181818182,
                "pitch": 51,
                "velocity": 80,
                "duration": 0.2568181818181827,
                "tempo": 120.0
            },
            {
                "start_time": 18.84318181818182,
                "end_time": 19.095454545454544,
                "pitch": 57,
                "velocity": 80,
                "duration": 0.2522727272727252,
                "tempo": 120.0
            },
            {
                "start_time": 19.095454545454544,
                "end_time": 19.34090909090909,
                "pitch": 71,
                "velocity": 80,
                "duration": 0.24545454545454604,
                "tempo": 120.0
            },
            {
                "start_time": 19.34090909090909,
                "end_time": 19.59090909090909,
                "pitch": 72,
                "velocity": 80,
                "duration": 0.25,
                "tempo": 120.0
            },
            {
                "start_time": 19.59090909090909,
                "end_time": 19.83863636363636,
                "pitch": 66,
                "velocity": 80,
                "duration": 0.24772727272727124,
                "tempo": 120.0
            },
            {
                "start_time": 19.83863636363636,
                "end_time": 20.084090909090907,
                "pitch": 60,
                "velocity": 80,
                "duration": 0.24545454545454604,
                "tempo": 120.0
            },
            {
                "start_time": 20.084090909090907,
                "end_time": 20.827272727272724,
                "pitch": 57,
                "velocity": 80,
                "duration": 0.7431818181818173,
                "tempo": 120.0
            },
            {
                "start_time": 20.827272727272724,
                "end_time": 20.943181818181817,
                "pitch": 45,
                "velocity": 80,
                "duration": 0.11590909090909207,
                "tempo": 120.0
            },
            {
                "start_time": 20.943181818181817,
                "end_time": 21.077272727272724,
                "pitch": 57,
                "velocity": 80,
                "duration": 0.13409090909090793,
                "tempo": 120.0
            },
            {
                "start_time": 21.077272727272724,
                "end_time": 21.195454545454545,
                "pitch": 51,
                "velocity": 80,
                "duration": 0.11818181818182083,
                "tempo": 120.0
            },
            {
                "start_time": 21.195454545454545,
                "end_time": 21.325,
                "pitch": 57,
                "velocity": 80,
                "duration": 0.12954545454545396,
                "tempo": 120.0
            },
            {
                "start_time": 21.325,
                "end_time": 21.438636363636363,
                "pitch": 51,
                "velocity": 80,
                "duration": 0.11363636363636331,
                "tempo": 120.0
            },
            {
                "start_time": 21.438636363636363,
                "end_time": 21.570454545454545,
                "pitch": 57,
                "velocity": 80,
                "duration": 0.13181818181818272,
                "tempo": 120.0
            },
            {
                "start_time": 21.570454545454545,
                "end_time": 21.686363636363634,
                "pitch": 57,
                "velocity": 80,
                "duration": 0.11590909090908852,
                "tempo": 120.0
            },
            {
                "start_time": 21.686363636363634,
                "end_time": 21.820454545454545,
                "pitch": 69,
                "velocity": 80,
                "duration": 0.13409090909091148,
                "tempo": 120.0
            },
            {
                "start_time": 21.820454545454545,
                "end_time": 21.94090909090909,
                "pitch": 63,
                "velocity": 80,
                "duration": 0.12045454545454604,
                "tempo": 120.0
            },
            {
                "start_time": 21.94090909090909,
                "end_time": 22.068181818181817,
                "pitch": 69,
                "velocity": 80,
                "duration": 0.1272727272727252,
                "tempo": 120.0
            },
            {
                "start_time": 22.068181818181817,
                "end_time": 22.18181818181818,
                "pitch": 63,
                "velocity": 80,
                "duration": 0.11363636363636331,
                "tempo": 120.0
            },
            {
                "start_time": 22.18181818181818,
                "end_time": 22.313636363636363,
                "pitch": 69,
                "velocity": 80,
                "duration": 0.13181818181818272,
                "tempo": 120.0
            },
            {
                "start_time": 22.313636363636363,
                "end_time": 22.429545454545455,
                "pitch": 69,
                "velocity": 80,
                "duration": 0.11590909090909207,
                "tempo": 120.0
            },
            {
                "start_time": 22.429545454545455,
                "end_time": 22.563636363636363,
                "pitch": 81,
                "velocity": 80,
                "duration": 0.13409090909090793,
                "tempo": 120.0
            },
            {
                "start_time": 22.563636363636363,
                "end_time": 22.68181818181818,
                "pitch": 75,
                "velocity": 80,
                "duration": 0.11818181818181728,
                "tempo": 120.0
            },
            {
                "start_time": 22.68181818181818,
                "end_time": 22.811363636363634,
                "pitch": 81,
                "velocity": 80,
                "duration": 0.12954545454545396,
                "tempo": 120.0
            },
            {
                "start_time": 22.811363636363634,
                "end_time": 22.924999999999997,
                "pitch": 75,
                "velocity": 80,
                "duration": 0.11363636363636331,
                "tempo": 120.0
            },
            {
                "start_time": 22.924999999999997,
                "end_time": 23.05681818181818,
                "pitch": 81,
                "velocity": 80,
                "duration": 0.13181818181818272,
                "tempo": 120.0
            },
            {
                "start_time": 23.05681818181818,
                "end_time": 23.172727272727272,
                "pitch": 81,
                "velocity": 80,
                "duration": 0.11590909090909207,
                "tempo": 120.0
            },
            {
                "start_time": 23.174999999999997,
                "end_time": 23.30681818181818,
                "pitch": 93,
                "velocity": 80,
                "duration": 0.13181818181818272,
                "tempo": 120.0
            },
            {
                "start_time": 23.30681818181818,
                "end_time": 23.427272727272726,
                "pitch": 87,
                "velocity": 80,
                "duration": 0.12045454545454604,
                "tempo": 120.0
            },
            {
                "start_time": 23.427272727272726,
                "end_time": 23.55681818181818,
                "pitch": 93,
                "velocity": 80,
                "duration": 0.12954545454545396,
                "tempo": 120.0
            },
            {
                "start_time": 23.55681818181818,
                "end_time": 23.668181818181818,
                "pitch": 87,
                "velocity": 80,
                "duration": 0.11136363636363811,
                "tempo": 120.0
            },
            {
                "start_time": 23.668181818181818,
                "end_time": 23.799999999999997,
                "pitch": 93,
                "velocity": 80,
                "duration": 0.13181818181817917,
                "tempo": 120.0
            }
        ],
        "Synth Bass 1": [
            {
                "start_time": 0.006818181818181818,
                "end_time": 0.08409090909090909,
                "pitch": 93,
                "velocity": 64,
                "duration": 0.07727272727272727,
                "tempo": 120.0
            },
            {
                "start_time": 0.08409090909090909,
                "end_time": 0.18181818181818182,
                "pitch": 93,
                "velocity": 64,
                "duration": 0.09772727272727273,
                "tempo": 120.0
            },
            {
                "start_time": 0.18181818181818182,
                "end_time": 0.2636363636363636,
                "pitch": 105,
                "velocity": 64,
                "duration": 0.08181818181818179,
                "tempo": 120.0
            },
            {
                "start_time": 0.2636363636363636,
                "end_time": 0.36136363636363633,
                "pitch": 105,
                "velocity": 64,
                "duration": 0.09772727272727272,
                "tempo": 120.0
            },
            {
                "start_time": 0.36136363636363633,
                "end_time": 0.45454545454545453,
                "pitch": 93,
                "velocity": 64,
                "duration": 0.0931818181818182,
                "tempo": 120.0
            },
            {
                "start_time": 0.45454545454545453,
                "end_time": 0.5363636363636364,
                "pitch": 93,
                "velocity": 64,
                "duration": 0.08181818181818185,
                "tempo": 120.0
            },
            {
                "start_time": 0.5363636363636364,
                "end_time": 0.6295454545454545,
                "pitch": 105,
                "velocity": 64,
                "duration": 0.09318181818181814,
                "tempo": 120.0
            },
            {
                "start_time": 0.6295454545454545,
                "end_time": 0.725,
                "pitch": 105,
                "velocity": 64,
                "duration": 0.09545454545454546,
                "tempo": 120.0
            },
            {
                "start_time": 0.725,
                "end_time": 0.8090909090909091,
                "pitch": 93,
                "velocity": 64,
                "duration": 0.0840909090909091,
                "tempo": 120.0
            },
            {
                "start_time": 0.8090909090909091,
                "end_time": 0.9090909090909091,
                "pitch": 93,
                "velocity": 64,
                "duration": 0.09999999999999998,
                "tempo": 120.0
            },
            {
                "start_time": 0.9113636363636363,
                "end_time": 0.9931818181818182,
                "pitch": 105,
                "velocity": 64,
                "duration": 0.0818181818181819,
                "tempo": 120.0
            },
            {
                "start_time": 0.9931818181818182,
                "end_time": 1.0954545454545455,
                "pitch": 105,
                "velocity": 64,
                "duration": 0.10227272727272729,
                "tempo": 120.0
            },
            {
                "start_time": 1.0954545454545455,
                "end_time": 1.190909090909091,
                "pitch": 93,
                "velocity": 64,
                "duration": 0.09545454545454546,
                "tempo": 120.0
            },
            {
                "start_time": 1.1931818181818181,
                "end_time": 1.275,
                "pitch": 93,
                "velocity": 64,
                "duration": 0.08181818181818179,
                "tempo": 120.0
            },
            {
                "start_time": 1.275,
                "end_time": 1.3704545454545454,
                "pitch": 105,
                "velocity": 64,
                "duration": 0.09545454545454546,
                "tempo": 120.0
            },
            {
                "start_time": 1.3704545454545454,
                "end_time": 1.4704545454545455,
                "pitch": 105,
                "velocity": 64,
                "duration": 0.10000000000000009,
                "tempo": 120.0
            },
            {
                "start_time": 1.4704545454545455,
                "end_time": 1.5545454545454545,
                "pitch": 93,
                "velocity": 64,
                "duration": 0.084090909090909,
                "tempo": 120.0
            },
            {
                "start_time": 1.5545454545454545,
                "end_time": 1.659090909090909,
                "pitch": 93,
                "velocity": 64,
                "duration": 0.1045454545454545,
                "tempo": 120.0
            },
            {
                "start_time": 1.659090909090909,
                "end_time": 1.7431818181818182,
                "pitch": 105,
                "velocity": 64,
                "duration": 0.08409090909090922,
                "tempo": 120.0
            },
            {
                "start_time": 1.7431818181818182,
                "end_time": 1.8477272727272727,
                "pitch": 105,
                "velocity": 64,
                "duration": 0.1045454545454545,
                "tempo": 120.0
            },
            {
                "start_time": 1.8477272727272727,
                "end_time": 1.9431818181818181,
                "pitch": 93,
                "velocity": 64,
                "duration": 0.09545454545454546,
                "tempo": 120.0
            },
            {
                "start_time": 1.9431818181818181,
                "end_time": 2.0227272727272725,
                "pitch": 93,
                "velocity": 64,
                "duration": 0.07954545454545436,
                "tempo": 120.0
            },
            {
                "start_time": 2.0227272727272725,
                "end_time": 2.1159090909090907,
                "pitch": 105,
                "velocity": 64,
                "duration": 0.09318181818181825,
                "tempo": 120.0
            },
            {
                "start_time": 2.1159090909090907,
                "end_time": 2.2113636363636364,
                "pitch": 105,
                "velocity": 64,
                "duration": 0.09545454545454568,
                "tempo": 120.0
            },
            {
                "start_time": 2.2136363636363634,
                "end_time": 2.2977272727272724,
                "pitch": 93,
                "velocity": 64,
                "duration": 0.084090909090909,
                "tempo": 120.0
            },
            {
                "start_time": 2.2977272727272724,
                "end_time": 2.4022727272727273,
                "pitch": 93,
                "velocity": 64,
                "duration": 0.10454545454545494,
                "tempo": 120.0
            },
            {
                "start_time": 2.4022727272727273,
                "end_time": 2.4886363636363633,
                "pitch": 105,
                "velocity": 64,
                "duration": 0.08636363636363598,
                "tempo": 120.0
            },
            {
                "start_time": 2.4886363636363633,
                "end_time": 2.590909090909091,
                "pitch": 105,
                "velocity": 64,
                "duration": 0.10227272727272751,
                "tempo": 120.0
            },
            {
                "start_time": 2.590909090909091,
                "end_time": 2.686363636363636,
                "pitch": 93,
                "velocity": 64,
                "duration": 0.09545454545454524,
                "tempo": 120.0
            },
            {
                "start_time": 2.686363636363636,
                "end_time": 2.7659090909090907,
                "pitch": 93,
                "velocity": 64,
                "duration": 0.07954545454545459,
                "tempo": 120.0
            },
            {
                "start_time": 2.7659090909090907,
                "end_time": 2.8613636363636363,
                "pitch": 105,
                "velocity": 64,
                "duration": 0.09545454545454568,
                "tempo": 120.0
            },
            {
                "start_time": 2.8613636363636363,
                "end_time": 2.9568181818181816,
                "pitch": 105,
                "velocity": 64,
                "duration": 0.09545454545454524,
                "tempo": 120.0
            },
            {
                "start_time": 2.9568181818181816,
                "end_time": 3.0409090909090906,
                "pitch": 93,
                "velocity": 64,
                "duration": 0.084090909090909,
                "tempo": 120.0
            },
            {
                "start_time": 3.0409090909090906,
                "end_time": 3.1454545454545455,
                "pitch": 93,
                "velocity": 64,
                "duration": 0.10454545454545494,
                "tempo": 120.0
            },
            {
                "start_time": 3.1454545454545455,
                "end_time": 3.2318181818181815,
                "pitch": 105,
                "velocity": 64,
                "duration": 0.08636363636363598,
                "tempo": 120.0
            },
            {
                "start_time": 3.2318181818181815,
                "end_time": 3.334090909090909,
                "pitch": 105,
                "velocity": 64,
                "duration": 0.10227272727272751,
                "tempo": 120.0
            },
            {
                "start_time": 3.334090909090909,
                "end_time": 3.4295454545454542,
                "pitch": 93,
                "velocity": 64,
                "duration": 0.09545454545454524,
                "tempo": 120.0
            },
            {
                "start_time": 3.4295454545454542,
                "end_time": 3.509090909090909,
                "pitch": 93,
                "velocity": 64,
                "duration": 0.07954545454545459,
                "tempo": 120.0
            },
            {
                "start_time": 3.509090909090909,
                "end_time": 3.6045454545454545,
                "pitch": 105,
                "velocity": 64,
                "duration": 0.09545454545454568,
                "tempo": 120.0
            },
            {
                "start_time": 3.6045454545454545,
                "end_time": 3.6999999999999997,
                "pitch": 105,
                "velocity": 64,
                "duration": 0.09545454545454524,
                "tempo": 120.0
            },
            {
                "start_time": 3.6999999999999997,
                "end_time": 3.7840909090909087,
                "pitch": 93,
                "velocity": 64,
                "duration": 0.084090909090909,
                "tempo": 120.0
            },
            {
                "start_time": 3.7840909090909087,
                "end_time": 3.8886363636363637,
                "pitch": 93,
                "velocity": 64,
                "duration": 0.10454545454545494,
                "tempo": 120.0
            },
            {
                "start_time": 3.8886363636363637,
                "end_time": 3.9749999999999996,
                "pitch": 105,
                "velocity": 64,
                "duration": 0.08636363636363598,
                "tempo": 120.0
            },
            {
                "start_time": 3.9749999999999996,
                "end_time": 4.079545454545454,
                "pitch": 105,
                "velocity": 64,
                "duration": 0.1045454545454545,
                "tempo": 120.0
            },
            {
                "start_time": 4.079545454545454,
                "end_time": 4.175,
                "pitch": 93,
                "velocity": 64,
                "duration": 0.09545454545454568,
                "tempo": 120.0
            },
            {
                "start_time": 4.175,
                "end_time": 4.256818181818182,
                "pitch": 93,
                "velocity": 64,
                "duration": 0.08181818181818201,
                "tempo": 120.0
            },
            {
                "start_time": 4.259090909090909,
                "end_time": 4.3545454545454545,
                "pitch": 105,
                "velocity": 64,
                "duration": 0.09545454545454568,
                "tempo": 120.0
            },
            {
                "start_time": 4.3545454545454545,
                "end_time": 4.452272727272727,
                "pitch": 105,
                "velocity": 64,
                "duration": 0.09772727272727266,
                "tempo": 120.0
            },
            {
                "start_time": 4.452272727272727,
                "end_time": 4.536363636363636,
                "pitch": 93,
                "velocity": 64,
                "duration": 0.084090909090909,
                "tempo": 120.0
            },
            {
                "start_time": 4.536363636363636,
                "end_time": 4.636363636363636,
                "pitch": 93,
                "velocity": 64,
                "duration": 0.09999999999999964,
                "tempo": 120.0
            },
            {
                "start_time": 4.636363636363636,
                "end_time": 4.720454545454545,
                "pitch": 105,
                "velocity": 64,
                "duration": 0.084090909090909,
                "tempo": 120.0
            },
            {
                "start_time": 4.720454545454545,
                "end_time": 4.820454545454545,
                "pitch": 105,
                "velocity": 64,
                "duration": 0.10000000000000053,
                "tempo": 120.0
            },
            {
                "start_time": 4.820454545454545,
                "end_time": 4.918181818181818,
                "pitch": 93,
                "velocity": 64,
                "duration": 0.09772727272727266,
                "tempo": 120.0
            },
            {
                "start_time": 4.918181818181818,
                "end_time": 5.0,
                "pitch": 93,
                "velocity": 64,
                "duration": 0.08181818181818201,
                "tempo": 120.0
            },
            {
                "start_time": 5.002272727272727,
                "end_time": 5.097727272727273,
                "pitch": 105,
                "velocity": 64,
                "duration": 0.09545454545454568,
                "tempo": 120.0
            },
            {
                "start_time": 5.097727272727273,
                "end_time": 5.195454545454545,
                "pitch": 105,
                "velocity": 64,
                "duration": 0.09772727272727266,
                "tempo": 120.0
            },
            {
                "start_time": 5.195454545454545,
                "end_time": 5.279545454545454,
                "pitch": 93,
                "velocity": 64,
                "duration": 0.084090909090909,
                "tempo": 120.0
            },
            {
                "start_time": 5.279545454545454,
                "end_time": 5.379545454545454,
                "pitch": 93,
                "velocity": 64,
                "duration": 0.09999999999999964,
                "tempo": 120.0
            },
            {
                "start_time": 5.379545454545454,
                "end_time": 5.463636363636363,
                "pitch": 105,
                "velocity": 64,
                "duration": 0.084090909090909,
                "tempo": 120.0
            },
            {
                "start_time": 5.463636363636363,
                "end_time": 5.5659090909090905,
                "pitch": 105,
                "velocity": 64,
                "duration": 0.10227272727272751,
                "tempo": 120.0
            },
            {
                "start_time": 5.5659090909090905,
                "end_time": 5.661363636363636,
                "pitch": 93,
                "velocity": 64,
                "duration": 0.09545454545454568,
                "tempo": 120.0
            },
            {
                "start_time": 5.663636363636363,
                "end_time": 5.745454545454545,
                "pitch": 93,
                "velocity": 64,
                "duration": 0.08181818181818201,
                "tempo": 120.0
            },
            {
                "start_time": 5.745454545454545,
                "end_time": 5.840909090909091,
                "pitch": 105,
                "velocity": 64,
                "duration": 0.09545454545454568,
                "tempo": 120.0
            },
            {
                "start_time": 5.840909090909091,
                "end_time": 5.9386363636363635,
                "pitch": 105,
                "velocity": 64,
                "duration": 0.09772727272727266,
                "tempo": 120.0
            },
            {
                "start_time": 5.9409090909090905,
                "end_time": 6.0227272727272725,
                "pitch": 93,
                "velocity": 64,
                "duration": 0.08181818181818201,
                "tempo": 120.0
            },
            {
                "start_time": 6.0227272727272725,
                "end_time": 6.122727272727272,
                "pitch": 93,
                "velocity": 64,
                "duration": 0.09999999999999964,
                "tempo": 120.0
            },
            {
                "start_time": 6.122727272727272,
                "end_time": 6.206818181818181,
                "pitch": 105,
                "velocity": 64,
                "duration": 0.084090909090909,
                "tempo": 120.0
            },
            {
                "start_time": 6.206818181818181,
                "end_time": 6.309090909090909,
                "pitch": 105,
                "velocity": 64,
                "duration": 0.10227272727272751,
                "tempo": 120.0
            },
            {
                "start_time": 6.309090909090909,
                "end_time": 6.404545454545454,
                "pitch": 93,
                "velocity": 64,
                "duration": 0.09545454545454568,
                "tempo": 120.0
            },
            {
                "start_time": 6.404545454545454,
                "end_time": 6.488636363636363,
                "pitch": 93,
                "velocity": 64,
                "duration": 0.084090909090909,
                "tempo": 120.0
            },
            {
                "start_time": 6.488636363636363,
                "end_time": 6.584090909090909,
                "pitch": 105,
                "velocity": 64,
                "duration": 0.09545454545454568,
                "tempo": 120.0
            },
            {
                "start_time": 6.584090909090909,
                "end_time": 6.681818181818182,
                "pitch": 105,
                "velocity": 64,
                "duration": 0.09772727272727266,
                "tempo": 120.0
            },
            {
                "start_time": 6.681818181818182,
                "end_time": 6.765909090909091,
                "pitch": 93,
                "velocity": 64,
                "duration": 0.084090909090909,
                "tempo": 120.0
            },
            {
                "start_time": 6.765909090909091,
                "end_time": 6.86590909090909,
                "pitch": 93,
                "velocity": 64,
                "duration": 0.09999999999999964,
                "tempo": 120.0
            },
            {
                "start_time": 6.868181818181818,
                "end_time": 6.949999999999999,
                "pitch": 105,
                "velocity": 64,
                "duration": 0.08181818181818112,
                "tempo": 120.0
            },
            {
                "start_time": 6.949999999999999,
                "end_time": 7.052272727272727,
                "pitch": 105,
                "velocity": 64,
                "duration": 0.10227272727272751,
                "tempo": 120.0
            },
            {
                "start_time": 7.052272727272727,
                "end_time": 7.1477272727272725,
                "pitch": 93,
                "velocity": 64,
                "duration": 0.09545454545454568,
                "tempo": 120.0
            },
            {
                "start_time": 7.1499999999999995,
                "end_time": 7.2318181818181815,
                "pitch": 93,
                "velocity": 64,
                "duration": 0.08181818181818201,
                "tempo": 120.0
            },
            {
                "start_time": 7.2318181818181815,
                "end_time": 7.327272727272727,
                "pitch": 105,
                "velocity": 64,
                "duration": 0.09545454545454568,
                "tempo": 120.0
            },
            {
                "start_time": 7.327272727272727,
                "end_time": 7.427272727272727,
                "pitch": 105,
                "velocity": 64,
                "duration": 0.09999999999999964,
                "tempo": 120.0
            },
            {
                "start_time": 7.427272727272727,
                "end_time": 7.509090909090909,
                "pitch": 93,
                "velocity": 64,
                "duration": 0.08181818181818201,
                "tempo": 120.0
            },
            {
                "start_time": 7.509090909090909,
                "end_time": 7.611363636363636,
                "pitch": 93,
                "velocity": 64,
                "duration": 0.10227272727272751,
                "tempo": 120.0
            },
            {
                "start_time": 7.611363636363636,
                "end_time": 7.6931818181818175,
                "pitch": 105,
                "velocity": 64,
                "duration": 0.08181818181818112,
                "tempo": 120.0
            },
            {
                "start_time": 7.695454545454545,
                "end_time": 7.795454545454545,
                "pitch": 105,
                "velocity": 64,
                "duration": 0.09999999999999964,
                "tempo": 120.0
            },
            {
                "start_time": 7.795454545454545,
                "end_time": 7.893181818181818,
                "pitch": 93,
                "velocity": 64,
                "duration": 0.09772727272727266,
                "tempo": 120.0
            },
            {
                "start_time": 7.893181818181818,
                "end_time": 7.975,
                "pitch": 93,
                "velocity": 64,
                "duration": 0.08181818181818201,
                "tempo": 120.0
            },
            {
                "start_time": 7.975,
                "end_time": 8.070454545454545,
                "pitch": 105,
                "velocity": 64,
                "duration": 0.09545454545454568,
                "tempo": 120.0
            },
            {
                "start_time": 8.070454545454545,
                "end_time": 8.168181818181818,
                "pitch": 105,
                "velocity": 64,
                "duration": 0.09772727272727266,
                "tempo": 120.0
            },
            {
                "start_time": 8.170454545454545,
                "end_time": 8.252272727272727,
                "pitch": 93,
                "velocity": 64,
                "duration": 0.08181818181818201,
                "tempo": 120.0
            },
            {
                "start_time": 8.252272727272727,
                "end_time": 8.354545454545454,
                "pitch": 93,
                "velocity": 64,
                "duration": 0.10227272727272663,
                "tempo": 120.0
            },
            {
                "start_time": 8.354545454545454,
                "end_time": 8.438636363636363,
                "pitch": 105,
                "velocity": 64,
                "duration": 0.084090909090909,
                "tempo": 120.0
            },
            {
                "start_time": 8.438636363636363,
                "end_time": 8.538636363636364,
                "pitch": 105,
                "velocity": 64,
                "duration": 0.10000000000000142,
                "tempo": 120.0
            },
            {
                "start_time": 8.538636363636364,
                "end_time": 8.636363636363637,
                "pitch": 93,
                "velocity": 64,
                "duration": 0.09772727272727266,
                "tempo": 120.0
            },
            {
                "start_time": 8.636363636363637,
                "end_time": 8.718181818181817,
                "pitch": 93,
                "velocity": 64,
                "duration": 0.08181818181818024,
                "tempo": 120.0
            },
            {
                "start_time": 8.718181818181817,
                "end_time": 8.815909090909091,
                "pitch": 105,
                "velocity": 64,
                "duration": 0.09772727272727444,
                "tempo": 120.0
            },
            {
                "start_time": 8.815909090909091,
                "end_time": 8.913636363636364,
                "pitch": 105,
                "velocity": 64,
                "duration": 0.09772727272727266,
                "tempo": 120.0
            },
            {
                "start_time": 8.913636363636364,
                "end_time": 8.997727272727273,
                "pitch": 93,
                "velocity": 64,
                "duration": 0.084090909090909,
                "tempo": 120.0
            },
            {
                "start_time": 8.997727272727273,
                "end_time": 9.102272727272727,
                "pitch": 93,
                "velocity": 64,
                "duration": 0.10454545454545361,
                "tempo": 120.0
            },
            {
                "start_time": 9.102272727272727,
                "end_time": 9.188636363636363,
                "pitch": 105,
                "velocity": 64,
                "duration": 0.08636363636363598,
                "tempo": 120.0
            },
            {
                "start_time": 9.188636363636363,
                "end_time": 9.290909090909091,
                "pitch": 105,
                "velocity": 64,
                "duration": 0.1022727272727284,
                "tempo": 120.0
            },
            {
                "start_time": 9.290909090909091,
                "end_time": 9.386363636363637,
                "pitch": 93,
                "velocity": 64,
                "duration": 0.09545454545454568,
                "tempo": 120.0
            },
            {
                "start_time": 9.386363636363637,
                "end_time": 9.46590909090909,
                "pitch": 93,
                "velocity": 64,
                "duration": 0.07954545454545325,
                "tempo": 120.0
            },
            {
                "start_time": 9.46590909090909,
                "end_time": 9.561363636363636,
                "pitch": 105,
                "velocity": 64,
                "duration": 0.09545454545454568,
                "tempo": 120.0
            },
            {
                "start_time": 9.561363636363636,
                "end_time": 9.656818181818181,
                "pitch": 105,
                "velocity": 64,
                "duration": 0.09545454545454568,
                "tempo": 120.0
            },
            {
                "start_time": 9.656818181818181,
                "end_time": 9.74090909090909,
                "pitch": 93,
                "velocity": 64,
                "duration": 0.084090909090909,
                "tempo": 120.0
            },
            {
                "start_time": 9.74090909090909,
                "end_time": 9.845454545454546,
                "pitch": 93,
                "velocity": 64,
                "duration": 0.10454545454545539,
                "tempo": 120.0
            },
            {
                "start_time": 9.845454545454546,
                "end_time": 9.929545454545455,
                "pitch": 105,
                "velocity": 64,
                "duration": 0.084090909090909,
                "tempo": 120.0
            },
            {
                "start_time": 9.931818181818182,
                "end_time": 10.034090909090908,
                "pitch": 105,
                "velocity": 64,
                "duration": 0.10227272727272663,
                "tempo": 120.0
            },
            {
                "start_time": 10.034090909090908,
                "end_time": 10.129545454545454,
                "pitch": 93,
                "velocity": 64,
                "duration": 0.09545454545454568,
                "tempo": 120.0
            },
            {
                "start_time": 10.129545454545454,
                "end_time": 10.209090909090909,
                "pitch": 93,
                "velocity": 64,
                "duration": 0.07954545454545503,
                "tempo": 120.0
            },
            {
                "start_time": 10.209090909090909,
                "end_time": 10.304545454545455,
                "pitch": 105,
                "velocity": 64,
                "duration": 0.09545454545454568,
                "tempo": 120.0
            },
            {
                "start_time": 10.304545454545455,
                "end_time": 10.4,
                "pitch": 105,
                "velocity": 64,
                "duration": 0.09545454545454568,
                "tempo": 120.0
            },
            {
                "start_time": 10.4,
                "end_time": 10.48409090909091,
                "pitch": 93,
                "velocity": 64,
                "duration": 0.084090909090909,
                "tempo": 120.0
            },
            {
                "start_time": 10.486363636363636,
                "end_time": 10.588636363636363,
                "pitch": 93,
                "velocity": 64,
                "duration": 0.10227272727272663,
                "tempo": 120.0
            },
            {
                "start_time": 10.588636363636363,
                "end_time": 10.674999999999999,
                "pitch": 105,
                "velocity": 64,
                "duration": 0.08636363636363598,
                "tempo": 120.0
            },
            {
                "start_time": 10.674999999999999,
                "end_time": 10.777272727272727,
                "pitch": 105,
                "velocity": 64,
                "duration": 0.1022727272727284,
                "tempo": 120.0
            },
            {
                "start_time": 10.777272727272727,
                "end_time": 10.872727272727273,
                "pitch": 93,
                "velocity": 64,
                "duration": 0.09545454545454568,
                "tempo": 120.0
            },
            {
                "start_time": 10.872727272727273,
                "end_time": 10.952272727272726,
                "pitch": 93,
                "velocity": 64,
                "duration": 0.07954545454545325,
                "tempo": 120.0
            },
            {
                "start_time": 10.952272727272726,
                "end_time": 11.047727272727272,
                "pitch": 105,
                "velocity": 64,
                "duration": 0.09545454545454568,
                "tempo": 120.0
            },
            {
                "start_time": 11.047727272727272,
                "end_time": 11.143181818181818,
                "pitch": 105,
                "velocity": 64,
                "duration": 0.09545454545454568,
                "tempo": 120.0
            },
            {
                "start_time": 11.143181818181818,
                "end_time": 11.229545454545454,
                "pitch": 93,
                "velocity": 64,
                "duration": 0.08636363636363598,
                "tempo": 120.0
            },
            {
                "start_time": 11.229545454545454,
                "end_time": 11.331818181818182,
                "pitch": 93,
                "velocity": 64,
                "duration": 0.1022727272727284,
                "tempo": 120.0
            },
            {
                "start_time": 11.331818181818182,
                "end_time": 11.418181818181818,
                "pitch": 105,
                "velocity": 64,
                "duration": 0.08636363636363598,
                "tempo": 120.0
            },
            {
                "start_time": 11.418181818181818,
                "end_time": 11.522727272727272,
                "pitch": 105,
                "velocity": 64,
                "duration": 0.10454545454545361,
                "tempo": 120.0
            },
            {
                "start_time": 11.522727272727272,
                "end_time": 11.618181818181817,
                "pitch": 93,
                "velocity": 64,
                "duration": 0.09545454545454568,
                "tempo": 120.0
            },
            {
                "start_time": 11.620454545454544,
                "end_time": 11.702272727272726,
                "pitch": 93,
                "velocity": 64,
                "duration": 0.08181818181818201,
                "tempo": 120.0
            },
            {
                "start_time": 11.702272727272726,
                "end_time": 11.797727272727272,
                "pitch": 105,
                "velocity": 64,
                "duration": 0.09545454545454568,
                "tempo": 120.0
            },
            {
                "start_time": 11.797727272727272,
                "end_time": 11.895454545454545,
                "pitch": 105,
                "velocity": 64,
                "duration": 0.09772727272727266,
                "tempo": 120.0
            },
            {
                "start_time": 11.897727272727272,
                "end_time": 11.979545454545454,
                "pitch": 93,
                "velocity": 64,
                "duration": 0.08181818181818201,
                "tempo": 120.0
            },
            {
                "start_time": 11.979545454545454,
                "end_time": 12.079545454545453,
                "pitch": 93,
                "velocity": 64,
                "duration": 0.09999999999999964,
                "tempo": 120.0
            },
            {
                "start_time": 12.079545454545453,
                "end_time": 12.163636363636362,
                "pitch": 105,
                "velocity": 64,
                "duration": 0.084090909090909,
                "tempo": 120.0
            },
            {
                "start_time": 12.163636363636362,
                "end_time": 12.26590909090909,
                "pitch": 105,
                "velocity": 64,
                "duration": 0.1022727272727284,
                "tempo": 120.0
            },
            {
                "start_time": 12.26590909090909,
                "end_time": 12.361363636363636,
                "pitch": 93,
                "velocity": 64,
                "duration": 0.09545454545454568,
                "tempo": 120.0
            },
            {
                "start_time": 12.361363636363636,
                "end_time": 12.445454545454545,
                "pitch": 93,
                "velocity": 64,
                "duration": 0.084090909090909,
                "tempo": 120.0
            },
            {
                "start_time": 12.445454545454545,
                "end_time": 12.540909090909091,
                "pitch": 105,
                "velocity": 64,
                "duration": 0.09545454545454568,
                "tempo": 120.0
            },
            {
                "start_time": 12.540909090909091,
                "end_time": 12.638636363636364,
                "pitch": 105,
                "velocity": 64,
                "duration": 0.09772727272727266,
                "tempo": 120.0
            },
            {
                "start_time": 12.638636363636364,
                "end_time": 12.722727272727273,
                "pitch": 93,
                "velocity": 64,
                "duration": 0.084090909090909,
                "tempo": 120.0
            },
            {
                "start_time": 12.722727272727273,
                "end_time": 12.822727272727272,
                "pitch": 93,
                "velocity": 64,
                "duration": 0.09999999999999964,
                "tempo": 120.0
            },
            {
                "start_time": 12.825,
                "end_time": 12.906818181818181,
                "pitch": 105,
                "velocity": 64,
                "duration": 0.08181818181818201,
                "tempo": 120.0
            },
            {
                "start_time": 12.906818181818181,
                "end_time": 13.009090909090908,
                "pitch": 105,
                "velocity": 64,
                "duration": 0.10227272727272663,
                "tempo": 120.0
            },
            {
                "start_time": 13.009090909090908,
                "end_time": 13.104545454545454,
                "pitch": 93,
                "velocity": 64,
                "duration": 0.09545454545454568,
                "tempo": 120.0
            },
            {
                "start_time": 13.10681818181818,
                "end_time": 13.188636363636363,
                "pitch": 93,
                "velocity": 64,
                "duration": 0.08181818181818201,
                "tempo": 120.0
            },
            {
                "start_time": 13.188636363636363,
                "end_time": 13.284090909090908,
                "pitch": 105,
                "velocity": 64,
                "duration": 0.09545454545454568,
                "tempo": 120.0
            },
            {
                "start_time": 13.284090909090908,
                "end_time": 13.384090909090908,
                "pitch": 105,
                "velocity": 64,
                "duration": 0.09999999999999964,
                "tempo": 120.0
            },
            {
                "start_time": 13.384090909090908,
                "end_time": 13.46590909090909,
                "pitch": 93,
                "velocity": 64,
                "duration": 0.08181818181818201,
                "tempo": 120.0
            },
            {
                "start_time": 13.46590909090909,
                "end_time": 13.568181818181818,
                "pitch": 93,
                "velocity": 64,
                "duration": 0.1022727272727284,
                "tempo": 120.0
            },
            {
                "start_time": 13.568181818181818,
                "end_time": 13.649999999999999,
                "pitch": 105,
                "velocity": 64,
                "duration": 0.08181818181818024,
                "tempo": 120.0
            },
            {
                "start_time": 13.652272727272727,
                "end_time": 13.752272727272727,
                "pitch": 105,
                "velocity": 64,
                "duration": 0.09999999999999964,
                "tempo": 120.0
            },
            {
                "start_time": 13.752272727272727,
                "end_time": 13.85,
                "pitch": 93,
                "velocity": 64,
                "duration": 0.09772727272727266,
                "tempo": 120.0
            },
            {
                "start_time": 13.85,
                "end_time": 13.931818181818182,
                "pitch": 93,
                "velocity": 64,
                "duration": 0.08181818181818201,
                "tempo": 120.0
            },
            {
                "start_time": 13.931818181818182,
                "end_time": 14.027272727272727,
                "pitch": 105,
                "velocity": 64,
                "duration": 0.09545454545454568,
                "tempo": 120.0
            },
            {
                "start_time": 14.027272727272727,
                "end_time": 14.125,
                "pitch": 105,
                "velocity": 64,
                "duration": 0.09772727272727266,
                "tempo": 120.0
            },
            {
                "start_time": 14.125,
                "end_time": 14.209090909090909,
                "pitch": 93,
                "velocity": 64,
                "duration": 0.084090909090909,
                "tempo": 120.0
            },
            {
                "start_time": 14.209090909090909,
                "end_time": 14.311363636363636,
                "pitch": 93,
                "velocity": 64,
                "duration": 0.10227272727272663,
                "tempo": 120.0
            },
            {
                "start_time": 14.311363636363636,
                "end_time": 14.395454545454545,
                "pitch": 105,
                "velocity": 64,
                "duration": 0.084090909090909,
                "tempo": 120.0
            },
            {
                "start_time": 14.395454545454545,
                "end_time": 14.495454545454544,
                "pitch": 105,
                "velocity": 64,
                "duration": 0.09999999999999964,
                "tempo": 120.0
            },
            {
                "start_time": 14.495454545454544,
                "end_time": 14.593181818181817,
                "pitch": 93,
                "velocity": 64,
                "duration": 0.09772727272727266,
                "tempo": 120.0
            },
            {
                "start_time": 14.593181818181817,
                "end_time": 14.674999999999999,
                "pitch": 93,
                "velocity": 64,
                "duration": 0.08181818181818201,
                "tempo": 120.0
            },
            {
                "start_time": 14.674999999999999,
                "end_time": 14.772727272727272,
                "pitch": 105,
                "velocity": 64,
                "duration": 0.09772727272727266,
                "tempo": 120.0
            },
            {
                "start_time": 14.772727272727272,
                "end_time": 14.870454545454544,
                "pitch": 105,
                "velocity": 64,
                "duration": 0.09772727272727266,
                "tempo": 120.0
            },
            {
                "start_time": 14.870454545454544,
                "end_time": 14.952272727272726,
                "pitch": 93,
                "velocity": 64,
                "duration": 0.08181818181818201,
                "tempo": 120.0
            },
            {
                "start_time": 14.954545454545453,
                "end_time": 15.054545454545455,
                "pitch": 93,
                "velocity": 64,
                "duration": 0.10000000000000142,
                "tempo": 120.0
            },
            {
                "start_time": 15.054545454545455,
                "end_time": 15.138636363636364,
                "pitch": 105,
                "velocity": 64,
                "duration": 0.084090909090909,
                "tempo": 120.0
            },
            {
                "start_time": 15.138636363636364,
                "end_time": 15.238636363636363,
                "pitch": 105,
                "velocity": 64,
                "duration": 0.09999999999999964,
                "tempo": 120.0
            },
            {
                "start_time": 15.238636363636363,
                "end_time": 15.336363636363636,
                "pitch": 93,
                "velocity": 64,
                "duration": 0.09772727272727266,
                "tempo": 120.0
            },
            {
                "start_time": 15.336363636363636,
                "end_time": 15.418181818181818,
                "pitch": 93,
                "velocity": 64,
                "duration": 0.08181818181818201,
                "tempo": 120.0
            },
            {
                "start_time": 15.418181818181818,
                "end_time": 15.513636363636364,
                "pitch": 105,
                "velocity": 64,
                "duration": 0.09545454545454568,
                "tempo": 120.0
            },
            {
                "start_time": 15.51590909090909,
                "end_time": 15.613636363636363,
                "pitch": 105,
                "velocity": 64,
                "duration": 0.09772727272727266,
                "tempo": 120.0
            },
            {
                "start_time": 15.613636363636363,
                "end_time": 15.695454545454545,
                "pitch": 93,
                "velocity": 64,
                "duration": 0.08181818181818201,
                "tempo": 120.0
            },
            {
                "start_time": 15.695454545454545,
                "end_time": 15.797727272727272,
                "pitch": 93,
                "velocity": 64,
                "duration": 0.10227272727272663,
                "tempo": 120.0
            },
            {
                "start_time": 15.797727272727272,
                "end_time": 15.881818181818181,
                "pitch": 105,
                "velocity": 64,
                "duration": 0.084090909090909,
                "tempo": 120.0
            },
            {
                "start_time": 15.881818181818181,
                "end_time": 15.98181818181818,
                "pitch": 105,
                "velocity": 64,
                "duration": 0.09999999999999964,
                "tempo": 120.0
            },
            {
                "start_time": 15.98181818181818,
                "end_time": 16.079545454545453,
                "pitch": 93,
                "velocity": 64,
                "duration": 0.09772727272727266,
                "tempo": 120.0
            },
            {
                "start_time": 16.079545454545453,
                "end_time": 16.161363636363635,
                "pitch": 93,
                "velocity": 64,
                "duration": 0.08181818181818201,
                "tempo": 120.0
            },
            {
                "start_time": 16.161363636363635,
                "end_time": 16.259090909090908,
                "pitch": 105,
                "velocity": 64,
                "duration": 0.09772727272727266,
                "tempo": 120.0
            },
            {
                "start_time": 16.259090909090908,
                "end_time": 16.35681818181818,
                "pitch": 105,
                "velocity": 64,
                "duration": 0.09772727272727266,
                "tempo": 120.0
            },
            {
                "start_time": 16.35681818181818,
                "end_time": 16.44090909090909,
                "pitch": 93,
                "velocity": 64,
                "duration": 0.08409090909091077,
                "tempo": 120.0
            },
            {
                "start_time": 16.44090909090909,
                "end_time": 16.54090909090909,
                "pitch": 93,
                "velocity": 64,
                "duration": 0.09999999999999787,
                "tempo": 120.0
            },
            {
                "start_time": 16.54090909090909,
                "end_time": 16.625,
                "pitch": 105,
                "velocity": 64,
                "duration": 0.08409090909091077,
                "tempo": 120.0
            },
            {
                "start_time": 16.625,
                "end_time": 16.724999999999998,
                "pitch": 105,
                "velocity": 64,
                "duration": 0.09999999999999787,
                "tempo": 120.0
            },
            {
                "start_time": 16.724999999999998,
                "end_time": 16.82272727272727,
                "pitch": 93,
                "velocity": 64,
                "duration": 0.09772727272727266,
                "tempo": 120.0
            },
            {
                "start_time": 16.82272727272727,
                "end_time": 16.904545454545453,
                "pitch": 93,
                "velocity": 64,
                "duration": 0.08181818181818201,
                "tempo": 120.0
            },
            {
                "start_time": 16.904545454545453,
                "end_time": 17.002272727272725,
                "pitch": 105,
                "velocity": 64,
                "duration": 0.09772727272727266,
                "tempo": 120.0
            },
            {
                "start_time": 17.002272727272725,
                "end_time": 17.099999999999998,
                "pitch": 105,
                "velocity": 64,
                "duration": 0.09772727272727266,
                "tempo": 120.0
            },
            {
                "start_time": 17.099999999999998,
                "end_time": 17.186363636363634,
                "pitch": 93,
                "velocity": 64,
                "duration": 0.08636363636363598,
                "tempo": 120.0
            },
            {
                "start_time": 17.186363636363634,
                "end_time": 17.288636363636364,
                "pitch": 93,
                "velocity": 64,
                "duration": 0.10227272727273018,
                "tempo": 120.0
            },
            {
                "start_time": 17.288636363636364,
                "end_time": 17.375,
                "pitch": 105,
                "velocity": 64,
                "duration": 0.08636363636363598,
                "tempo": 120.0
            },
            {
                "start_time": 17.375,
                "end_time": 17.479545454545455,
                "pitch": 105,
                "velocity": 64,
                "duration": 0.10454545454545539,
                "tempo": 120.0
            },
            {
                "start_time": 17.479545454545455,
                "end_time": 17.57272727272727,
                "pitch": 93,
                "velocity": 64,
                "duration": 0.09318181818181515,
                "tempo": 120.0
            },
            {
                "start_time": 17.57272727272727,
                "end_time": 17.652272727272727,
                "pitch": 93,
                "velocity": 64,
                "duration": 0.0795454545454568,
                "tempo": 120.0
            },
            {
                "start_time": 17.652272727272727,
                "end_time": 17.74772727272727,
                "pitch": 105,
                "velocity": 64,
                "duration": 0.0954545454545439,
                "tempo": 120.0
            },
            {
                "start_time": 17.74772727272727,
                "end_time": 17.84318181818182,
                "pitch": 105,
                "velocity": 64,
                "duration": 0.09545454545454746,
                "tempo": 120.0
            },
            {
                "start_time": 17.84318181818182,
                "end_time": 17.929545454545455,
                "pitch": 93,
                "velocity": 64,
                "duration": 0.08636363636363598,
                "tempo": 120.0
            },
            {
                "start_time": 17.929545454545455,
                "end_time": 18.03181818181818,
                "pitch": 93,
                "velocity": 64,
                "duration": 0.10227272727272663,
                "tempo": 120.0
            },
            {
                "start_time": 18.03181818181818,
                "end_time": 18.118181818181817,
                "pitch": 105,
                "velocity": 64,
                "duration": 0.08636363636363598,
                "tempo": 120.0
            },
            {
                "start_time": 18.118181818181817,
                "end_time": 18.220454545454544,
                "pitch": 105,
                "velocity": 64,
                "duration": 0.10227272727272663,
                "tempo": 120.0
            },
            {
                "start_time": 18.220454545454544,
                "end_time": 18.31590909090909,
                "pitch": 93,
                "velocity": 64,
                "duration": 0.09545454545454746,
                "tempo": 120.0
            },
            {
                "start_time": 18.31590909090909,
                "end_time": 18.395454545454545,
                "pitch": 93,
                "velocity": 64,
                "duration": 0.07954545454545325,
                "tempo": 120.0
            },
            {
                "start_time": 18.397727272727273,
                "end_time": 18.49090909090909,
                "pitch": 105,
                "velocity": 64,
                "duration": 0.09318181818181515,
                "tempo": 120.0
            },
            {
                "start_time": 18.49090909090909,
                "end_time": 18.586363636363636,
                "pitch": 105,
                "velocity": 64,
                "duration": 0.09545454545454746,
                "tempo": 120.0
            },
            {
                "start_time": 18.586363636363636,
                "end_time": 18.672727272727272,
                "pitch": 93,
                "velocity": 64,
                "duration": 0.08636363636363598,
                "tempo": 120.0
            },
            {
                "start_time": 18.672727272727272,
                "end_time": 18.775,
                "pitch": 93,
                "velocity": 64,
                "duration": 0.10227272727272663,
                "tempo": 120.0
            },
            {
                "start_time": 18.775,
                "end_time": 18.861363636363635,
                "pitch": 105,
                "velocity": 64,
                "duration": 0.08636363636363598,
                "tempo": 120.0
            },
            {
                "start_time": 18.861363636363635,
                "end_time": 18.96590909090909,
                "pitch": 105,
                "velocity": 64,
                "duration": 0.10454545454545539,
                "tempo": 120.0
            },
            {
                "start_time": 18.96590909090909,
                "end_time": 19.061363636363634,
                "pitch": 93,
                "velocity": 64,
                "duration": 0.0954545454545439,
                "tempo": 120.0
            },
            {
                "start_time": 19.063636363636363,
                "end_time": 19.145454545454545,
                "pitch": 93,
                "velocity": 64,
                "duration": 0.08181818181818201,
                "tempo": 120.0
            },
            {
                "start_time": 19.145454545454545,
                "end_time": 19.24090909090909,
                "pitch": 105,
                "velocity": 64,
                "duration": 0.0954545454545439,
                "tempo": 120.0
            },
            {
                "start_time": 19.24090909090909,
                "end_time": 19.34090909090909,
                "pitch": 105,
                "velocity": 64,
                "duration": 0.10000000000000142,
                "tempo": 120.0
            },
            {
                "start_time": 19.34090909090909,
                "end_time": 19.422727272727272,
                "pitch": 93,
                "velocity": 64,
                "duration": 0.08181818181818201,
                "tempo": 120.0
            },
            {
                "start_time": 19.422727272727272,
                "end_time": 19.522727272727273,
                "pitch": 93,
                "velocity": 64,
                "duration": 0.10000000000000142,
                "tempo": 120.0
            },
            {
                "start_time": 19.525,
                "end_time": 19.60681818181818,
                "pitch": 105,
                "velocity": 64,
                "duration": 0.08181818181818201,
                "tempo": 120.0
            },
            {
                "start_time": 19.60909090909091,
                "end_time": 19.709090909090907,
                "pitch": 105,
                "velocity": 64,
                "duration": 0.09999999999999787,
                "tempo": 120.0
            },
            {
                "start_time": 19.709090909090907,
                "end_time": 19.80681818181818,
                "pitch": 93,
                "velocity": 64,
                "duration": 0.09772727272727266,
                "tempo": 120.0
            },
            {
                "start_time": 19.80681818181818,
                "end_time": 19.888636363636362,
                "pitch": 93,
                "velocity": 64,
                "duration": 0.08181818181818201,
                "tempo": 120.0
            },
            {
                "start_time": 19.888636363636362,
                "end_time": 19.98409090909091,
                "pitch": 105,
                "velocity": 64,
                "duration": 0.09545454545454746,
                "tempo": 120.0
            },
            {
                "start_time": 19.98409090909091,
                "end_time": 20.081818181818182,
                "pitch": 105,
                "velocity": 64,
                "duration": 0.09772727272727266,
                "tempo": 120.0
            },
            {
                "start_time": 20.081818181818182,
                "end_time": 20.16590909090909,
                "pitch": 93,
                "velocity": 64,
                "duration": 0.08409090909090722,
                "tempo": 120.0
            },
            {
                "start_time": 20.16590909090909,
                "end_time": 20.268181818181816,
                "pitch": 93,
                "velocity": 64,
                "duration": 0.10227272727272663,
                "tempo": 120.0
            },
            {
                "start_time": 20.268181818181816,
                "end_time": 20.352272727272727,
                "pitch": 105,
                "velocity": 64,
                "duration": 0.08409090909091077,
                "tempo": 120.0
            },
            {
                "start_time": 20.352272727272727,
                "end_time": 20.452272727272728,
                "pitch": 105,
                "velocity": 64,
                "duration": 0.10000000000000142,
                "tempo": 120.0
            },
            {
                "start_time": 20.452272727272728,
                "end_time": 20.55,
                "pitch": 93,
                "velocity": 64,
                "duration": 0.09772727272727266,
                "tempo": 120.0
            },
            {
                "start_time": 20.55,
                "end_time": 20.63181818181818,
                "pitch": 93,
                "velocity": 64,
                "duration": 0.08181818181817846,
                "tempo": 120.0
            },
            {
                "start_time": 20.63181818181818,
                "end_time": 20.729545454545452,
                "pitch": 105,
                "velocity": 64,
                "duration": 0.09772727272727266,
                "tempo": 120.0
            },
            {
                "start_time": 20.729545454545452,
                "end_time": 20.827272727272724,
                "pitch": 105,
                "velocity": 64,
                "duration": 0.09772727272727266,
                "tempo": 120.0
            },
            {
                "start_time": 20.827272727272724,
                "end_time": 20.909090909090907,
                "pitch": 93,
                "velocity": 64,
                "duration": 0.08181818181818201,
                "tempo": 120.0
            },
            {
                "start_time": 20.909090909090907,
                "end_time": 21.011363636363637,
                "pitch": 93,
                "velocity": 64,
                "duration": 0.10227272727273018,
                "tempo": 120.0
            },
            {
                "start_time": 21.011363636363637,
                "end_time": 21.09318181818182,
                "pitch": 105,
                "velocity": 64,
                "duration": 0.08181818181818201,
                "tempo": 120.0
            },
            {
                "start_time": 21.09318181818182,
                "end_time": 21.195454545454545,
                "pitch": 105,
                "velocity": 64,
                "duration": 0.10227272727272663,
                "tempo": 120.0
            },
            {
                "start_time": 21.195454545454545,
                "end_time": 21.29090909090909,
                "pitch": 93,
                "velocity": 64,
                "duration": 0.0954545454545439,
                "tempo": 120.0
            },
            {
                "start_time": 21.293181818181818,
                "end_time": 21.375,
                "pitch": 93,
                "velocity": 64,
                "duration": 0.08181818181818201,
                "tempo": 120.0
            },
            {
                "start_time": 21.375,
                "end_time": 21.470454545454544,
                "pitch": 105,
                "velocity": 64,
                "duration": 0.0954545454545439,
                "tempo": 120.0
            },
            {
                "start_time": 21.470454545454544,
                "end_time": 21.570454545454545,
                "pitch": 105,
                "velocity": 64,
                "duration": 0.10000000000000142,
                "tempo": 120.0
            },
            {
                "start_time": 21.570454545454545,
                "end_time": 21.652272727272727,
                "pitch": 93,
                "velocity": 64,
                "duration": 0.08181818181818201,
                "tempo": 120.0
            },
            {
                "start_time": 21.652272727272727,
                "end_time": 21.754545454545454,
                "pitch": 93,
                "velocity": 64,
                "duration": 0.10227272727272663,
                "tempo": 120.0
            },
            {
                "start_time": 21.754545454545454,
                "end_time": 21.836363636363636,
                "pitch": 105,
                "velocity": 64,
                "duration": 0.08181818181818201,
                "tempo": 120.0
            },
            {
                "start_time": 21.836363636363636,
                "end_time": 21.938636363636363,
                "pitch": 105,
                "velocity": 64,
                "duration": 0.10227272727272663,
                "tempo": 120.0
            },
            {
                "start_time": 21.938636363636363,
                "end_time": 22.036363636363635,
                "pitch": 93,
                "velocity": 64,
                "duration": 0.09772727272727266,
                "tempo": 120.0
            },
            {
                "start_time": 22.036363636363635,
                "end_time": 22.118181818181817,
                "pitch": 93,
                "velocity": 64,
                "duration": 0.08181818181818201,
                "tempo": 120.0
            },
            {
                "start_time": 22.118181818181817,
                "end_time": 22.21363636363636,
                "pitch": 105,
                "velocity": 64,
                "duration": 0.0954545454545439,
                "tempo": 120.0
            },
            {
                "start_time": 22.21363636363636,
                "end_time": 22.313636363636363,
                "pitch": 105,
                "velocity": 64,
                "duration": 0.10000000000000142,
                "tempo": 120.0
            },
            {
                "start_time": 22.313636363636363,
                "end_time": 22.395454545454545,
                "pitch": 93,
                "velocity": 64,
                "duration": 0.08181818181818201,
                "tempo": 120.0
            },
            {
                "start_time": 22.395454545454545,
                "end_time": 22.49772727272727,
                "pitch": 93,
                "velocity": 64,
                "duration": 0.10227272727272663,
                "tempo": 120.0
            },
            {
                "start_time": 22.49772727272727,
                "end_time": 22.581818181818182,
                "pitch": 105,
                "velocity": 64,
                "duration": 0.08409090909091077,
                "tempo": 120.0
            },
            {
                "start_time": 22.581818181818182,
                "end_time": 22.68181818181818,
                "pitch": 105,
                "velocity": 64,
                "duration": 0.09999999999999787,
                "tempo": 120.0
            },
            {
                "start_time": 22.68181818181818,
                "end_time": 22.779545454545453,
                "pitch": 93,
                "velocity": 64,
                "duration": 0.09772727272727266,
                "tempo": 120.0
            },
            {
                "start_time": 22.779545454545453,
                "end_time": 22.861363636363635,
                "pitch": 93,
                "velocity": 64,
                "duration": 0.08181818181818201,
                "tempo": 120.0
            },
            {
                "start_time": 22.861363636363635,
                "end_time": 22.956818181818182,
                "pitch": 105,
                "velocity": 64,
                "duration": 0.09545454545454746,
                "tempo": 120.0
            },
            {
                "start_time": 22.956818181818182,
                "end_time": 23.05681818181818,
                "pitch": 105,
                "velocity": 64,
                "duration": 0.09999999999999787,
                "tempo": 120.0
            },
            {
                "start_time": 23.05681818181818,
                "end_time": 23.14090909090909,
                "pitch": 93,
                "velocity": 64,
                "duration": 0.08409090909091077,
                "tempo": 120.0
            },
            {
                "start_time": 23.14090909090909,
                "end_time": 23.24090909090909,
                "pitch": 93,
                "velocity": 64,
                "duration": 0.09999999999999787,
                "tempo": 120.0
            },
            {
                "start_time": 23.24090909090909,
                "end_time": 23.325,
                "pitch": 105,
                "velocity": 64,
                "duration": 0.08409090909091077,
                "tempo": 120.0
            },
            {
                "start_time": 23.325,
                "end_time": 23.427272727272726,
                "pitch": 105,
                "velocity": 64,
                "duration": 0.10227272727272663,
                "tempo": 120.0
            },
            {
                "start_time": 23.427272727272726,
                "end_time": 23.52272727272727,
                "pitch": 93,
                "velocity": 64,
                "duration": 0.0954545454545439,
                "tempo": 120.0
            },
            {
                "start_time": 23.52272727272727,
                "end_time": 23.604545454545452,
                "pitch": 93,
                "velocity": 64,
                "duration": 0.08181818181818201,
                "tempo": 120.0
            },
            {
                "start_time": 23.604545454545452,
                "end_time": 23.702272727272724,
                "pitch": 105,
                "velocity": 64,
                "duration": 0.09772727272727266,
                "tempo": 120.0
            },
            {
                "start_time": 23.702272727272724,
                "end_time": 23.799999999999997,
                "pitch": 105,
                "velocity": 64,
                "duration": 0.09772727272727266,
                "tempo": 120.0
            }
        ],
        "Harpsichord": [
            {
                "start_time": 0.004545454545454545,
                "end_time": 0.5340909090909091,
                "pitch": 40,
                "velocity": 64,
                "duration": 0.5295454545454545,
                "tempo": 120.0
            },
            {
                "start_time": 0.5340909090909091,
                "end_time": 1.0954545454545455,
                "pitch": 40,
                "velocity": 64,
                "duration": 0.5613636363636364,
                "tempo": 120.0
            },
            {
                "start_time": 1.0954545454545455,
                "end_time": 1.2727272727272727,
                "pitch": 43,
                "velocity": 64,
                "duration": 0.17727272727272725,
                "tempo": 120.0
            },
            {
                "start_time": 1.2727272727272727,
                "end_time": 1.468181818181818,
                "pitch": 43,
                "velocity": 64,
                "duration": 0.19545454545454533,
                "tempo": 120.0
            },
            {
                "start_time": 1.468181818181818,
                "end_time": 2.0227272727272725,
                "pitch": 39,
                "velocity": 64,
                "duration": 0.5545454545454545,
                "tempo": 120.0
            },
            {
                "start_time": 2.0227272727272725,
                "end_time": 2.590909090909091,
                "pitch": 39,
                "velocity": 64,
                "duration": 0.5681818181818183,
                "tempo": 120.0
            },
            {
                "start_time": 2.590909090909091,
                "end_time": 2.7659090909090907,
                "pitch": 42,
                "velocity": 64,
                "duration": 0.17499999999999982,
                "tempo": 120.0
            },
            {
                "start_time": 2.7659090909090907,
                "end_time": 2.9545454545454546,
                "pitch": 42,
                "velocity": 64,
                "duration": 0.18863636363636394,
                "tempo": 120.0
            },
            {
                "start_time": 2.9568181818181816,
                "end_time": 3.509090909090909,
                "pitch": 40,
                "velocity": 64,
                "duration": 0.5522727272727272,
                "tempo": 120.0
            },
            {
                "start_time": 3.509090909090909,
                "end_time": 4.077272727272727,
                "pitch": 40,
                "velocity": 64,
                "duration": 0.5681818181818183,
                "tempo": 120.0
            },
            {
                "start_time": 4.077272727272727,
                "end_time": 4.256818181818182,
                "pitch": 43,
                "velocity": 64,
                "duration": 0.17954545454545467,
                "tempo": 120.0
            },
            {
                "start_time": 4.256818181818182,
                "end_time": 4.452272727272727,
                "pitch": 43,
                "velocity": 64,
                "duration": 0.19545454545454533,
                "tempo": 120.0
            },
            {
                "start_time": 4.452272727272727,
                "end_time": 5.0,
                "pitch": 39,
                "velocity": 64,
                "duration": 0.5477272727272728,
                "tempo": 120.0
            },
            {
                "start_time": 5.0,
                "end_time": 5.5636363636363635,
                "pitch": 39,
                "velocity": 64,
                "duration": 0.5636363636363635,
                "tempo": 120.0
            },
            {
                "start_time": 5.5636363636363635,
                "end_time": 5.743181818181818,
                "pitch": 44,
                "velocity": 64,
                "duration": 0.17954545454545467,
                "tempo": 120.0
            },
            {
                "start_time": 5.743181818181818,
                "end_time": 5.9386363636363635,
                "pitch": 44,
                "velocity": 64,
                "duration": 0.19545454545454533,
                "tempo": 120.0
            },
            {
                "start_time": 5.9386363636363635,
                "end_time": 6.486363636363636,
                "pitch": 40,
                "velocity": 64,
                "duration": 0.5477272727272728,
                "tempo": 120.0
            },
            {
                "start_time": 6.486363636363636,
                "end_time": 7.052272727272727,
                "pitch": 40,
                "velocity": 64,
                "duration": 0.5659090909090905,
                "tempo": 120.0
            },
            {
                "start_time": 7.052272727272727,
                "end_time": 7.2295454545454545,
                "pitch": 43,
                "velocity": 64,
                "duration": 0.1772727272727277,
                "tempo": 120.0
            },
            {
                "start_time": 7.2295454545454545,
                "end_time": 7.425,
                "pitch": 43,
                "velocity": 64,
                "duration": 0.19545454545454533,
                "tempo": 120.0
            },
            {
                "start_time": 7.425,
                "end_time": 7.972727272727273,
                "pitch": 39,
                "velocity": 64,
                "duration": 0.5477272727272728,
                "tempo": 120.0
            },
            {
                "start_time": 7.975,
                "end_time": 8.538636363636364,
                "pitch": 39,
                "velocity": 64,
                "duration": 0.5636363636363644,
                "tempo": 120.0
            },
            {
                "start_time": 8.538636363636364,
                "end_time": 8.718181818181817,
                "pitch": 42,
                "velocity": 64,
                "duration": 0.1795454545454529,
                "tempo": 120.0
            },
            {
                "start_time": 8.718181818181817,
                "end_time": 8.911363636363635,
                "pitch": 42,
                "velocity": 64,
                "duration": 0.19318181818181834,
                "tempo": 120.0
            },
            {
                "start_time": 8.911363636363635,
                "end_time": 9.46590909090909,
                "pitch": 40,
                "velocity": 64,
                "duration": 0.5545454545454547,
                "tempo": 120.0
            },
            {
                "start_time": 9.46590909090909,
                "end_time": 10.034090909090908,
                "pitch": 40,
                "velocity": 64,
                "duration": 0.5681818181818183,
                "tempo": 120.0
            },
            {
                "start_time": 10.034090909090908,
                "end_time": 10.209090909090909,
                "pitch": 43,
                "velocity": 64,
                "duration": 0.1750000000000007,
                "tempo": 120.0
            },
            {
                "start_time": 10.209090909090909,
                "end_time": 10.4,
                "pitch": 43,
                "velocity": 64,
                "duration": 0.19090909090909136,
                "tempo": 120.0
            },
            {
                "start_time": 10.4,
                "end_time": 10.952272727272726,
                "pitch": 39,
                "velocity": 64,
                "duration": 0.5522727272727259,
                "tempo": 120.0
            },
            {
                "start_time": 10.952272727272726,
                "end_time": 11.520454545454545,
                "pitch": 39,
                "velocity": 64,
                "duration": 0.5681818181818183,
                "tempo": 120.0
            },
            {
                "start_time": 11.520454545454545,
                "end_time": 11.7,
                "pitch": 44,
                "velocity": 64,
                "duration": 0.17954545454545467,
                "tempo": 120.0
            },
            {
                "start_time": 11.7,
                "end_time": 11.895454545454545,
                "pitch": 44,
                "velocity": 64,
                "duration": 0.19545454545454533,
                "tempo": 120.0
            },
            {
                "start_time": 11.895454545454545,
                "end_time": 12.443181818181818,
                "pitch": 40,
                "velocity": 64,
                "duration": 0.5477272727272737,
                "tempo": 120.0
            },
            {
                "start_time": 12.443181818181818,
                "end_time": 13.009090909090908,
                "pitch": 40,
                "velocity": 64,
                "duration": 0.5659090909090896,
                "tempo": 120.0
            },
            {
                "start_time": 13.009090909090908,
                "end_time": 13.186363636363636,
                "pitch": 43,
                "velocity": 64,
                "duration": 0.1772727272727277,
                "tempo": 120.0
            },
            {
                "start_time": 13.186363636363636,
                "end_time": 13.381818181818181,
                "pitch": 43,
                "velocity": 64,
                "duration": 0.19545454545454533,
                "tempo": 120.0
            },
            {
                "start_time": 13.381818181818181,
                "end_time": 13.929545454545455,
                "pitch": 39,
                "velocity": 64,
                "duration": 0.5477272727272737,
                "tempo": 120.0
            },
            {
                "start_time": 13.931818181818182,
                "end_time": 14.495454545454544,
                "pitch": 39,
                "velocity": 64,
                "duration": 0.5636363636363626,
                "tempo": 120.0
            },
            {
                "start_time": 14.495454545454544,
                "end_time": 14.672727272727272,
                "pitch": 42,
                "velocity": 64,
                "duration": 0.1772727272727277,
                "tempo": 120.0
            },
            {
                "start_time": 14.674999999999999,
                "end_time": 14.868181818181817,
                "pitch": 42,
                "velocity": 64,
                "duration": 0.19318181818181834,
                "tempo": 120.0
            },
            {
                "start_time": 14.868181818181817,
                "end_time": 15.418181818181818,
                "pitch": 40,
                "velocity": 64,
                "duration": 0.5500000000000007,
                "tempo": 120.0
            },
            {
                "start_time": 15.418181818181818,
                "end_time": 15.98181818181818,
                "pitch": 40,
                "velocity": 64,
                "duration": 0.5636363636363626,
                "tempo": 120.0
            },
            {
                "start_time": 15.98181818181818,
                "end_time": 16.161363636363635,
                "pitch": 43,
                "velocity": 64,
                "duration": 0.17954545454545467,
                "tempo": 120.0
            },
            {
                "start_time": 16.161363636363635,
                "end_time": 16.35681818181818,
                "pitch": 43,
                "velocity": 64,
                "duration": 0.19545454545454533,
                "tempo": 120.0
            },
            {
                "start_time": 16.35681818181818,
                "end_time": 16.904545454545453,
                "pitch": 39,
                "velocity": 64,
                "duration": 0.547727272727272,
                "tempo": 120.0
            },
            {
                "start_time": 16.904545454545453,
                "end_time": 17.477272727272727,
                "pitch": 39,
                "velocity": 64,
                "duration": 0.5727272727272741,
                "tempo": 120.0
            },
            {
                "start_time": 17.477272727272727,
                "end_time": 17.652272727272727,
                "pitch": 44,
                "velocity": 64,
                "duration": 0.1750000000000007,
                "tempo": 120.0
            },
            {
                "start_time": 17.652272727272727,
                "end_time": 17.84318181818182,
                "pitch": 44,
                "velocity": 64,
                "duration": 0.19090909090909136,
                "tempo": 120.0
            },
            {
                "start_time": 17.84318181818182,
                "end_time": 18.395454545454545,
                "pitch": 40,
                "velocity": 64,
                "duration": 0.5522727272727259,
                "tempo": 120.0
            },
            {
                "start_time": 18.395454545454545,
                "end_time": 18.96363636363636,
                "pitch": 40,
                "velocity": 64,
                "duration": 0.5681818181818166,
                "tempo": 120.0
            },
            {
                "start_time": 18.96590909090909,
                "end_time": 19.143181818181816,
                "pitch": 43,
                "velocity": 64,
                "duration": 0.17727272727272592,
                "tempo": 120.0
            },
            {
                "start_time": 19.143181818181816,
                "end_time": 19.33863636363636,
                "pitch": 43,
                "velocity": 64,
                "duration": 0.19545454545454533,
                "tempo": 120.0
            },
            {
                "start_time": 19.33863636363636,
                "end_time": 19.886363636363637,
                "pitch": 39,
                "velocity": 64,
                "duration": 0.5477272727272755,
                "tempo": 120.0
            },
            {
                "start_time": 19.886363636363637,
                "end_time": 20.452272727272728,
                "pitch": 39,
                "velocity": 64,
                "duration": 0.5659090909090914,
                "tempo": 120.0
            },
            {
                "start_time": 20.452272727272728,
                "end_time": 20.629545454545454,
                "pitch": 42,
                "velocity": 64,
                "duration": 0.17727272727272592,
                "tempo": 120.0
            },
            {
                "start_time": 20.63181818181818,
                "end_time": 20.825,
                "pitch": 42,
                "velocity": 64,
                "duration": 0.19318181818182012,
                "tempo": 120.0
            },
            {
                "start_time": 20.825,
                "end_time": 21.375,
                "pitch": 40,
                "velocity": 64,
                "duration": 0.5500000000000007,
                "tempo": 120.0
            },
            {
                "start_time": 21.375,
                "end_time": 21.938636363636363,
                "pitch": 40,
                "velocity": 64,
                "duration": 0.5636363636363626,
                "tempo": 120.0
            },
            {
                "start_time": 21.938636363636363,
                "end_time": 22.118181818181817,
                "pitch": 43,
                "velocity": 64,
                "duration": 0.17954545454545467,
                "tempo": 120.0
            },
            {
                "start_time": 22.118181818181817,
                "end_time": 22.313636363636363,
                "pitch": 43,
                "velocity": 64,
                "duration": 0.19545454545454533,
                "tempo": 120.0
            },
            {
                "start_time": 22.313636363636363,
                "end_time": 22.861363636363635,
                "pitch": 39,
                "velocity": 64,
                "duration": 0.547727272727272,
                "tempo": 120.0
            },
            {
                "start_time": 22.861363636363635,
                "end_time": 23.424999999999997,
                "pitch": 39,
                "velocity": 64,
                "duration": 0.5636363636363626,
                "tempo": 120.0
            },
            {
                "start_time": 23.424999999999997,
                "end_time": 23.604545454545452,
                "pitch": 44,
                "velocity": 64,
                "duration": 0.17954545454545467,
                "tempo": 120.0
            },
            {
                "start_time": 23.604545454545452,
                "end_time": 23.799999999999997,
                "pitch": 44,
                "velocity": 64,
                "duration": 0.19545454545454533,
                "tempo": 120.0
            }
        ],
        "Electric Piano 1": [
            {
                "start_time": 0.0022727272727272726,
                "end_time": 0.08409090909090909,
                "pitch": 21,
                "velocity": 80,
                "duration": 0.08181818181818182,
                "tempo": 120.0
            },
            {
                "start_time": 0.08409090909090909,
                "end_time": 0.18181818181818182,
                "pitch": 33,
                "velocity": 80,
                "duration": 0.09772727272727273,
                "tempo": 120.0
            },
            {
                "start_time": 0.18181818181818182,
                "end_time": 0.26136363636363635,
                "pitch": 21,
                "velocity": 80,
                "duration": 0.07954545454545453,
                "tempo": 120.0
            },
            {
                "start_time": 0.26136363636363635,
                "end_time": 0.35909090909090907,
                "pitch": 33,
                "velocity": 80,
                "duration": 0.09772727272727272,
                "tempo": 120.0
            },
            {
                "start_time": 0.35909090909090907,
                "end_time": 0.5340909090909091,
                "pitch": 21,
                "velocity": 80,
                "duration": 0.175,
                "tempo": 120.0
            },
            {
                "start_time": 0.5340909090909091,
                "end_time": 0.725,
                "pitch": 33,
                "velocity": 80,
                "duration": 0.19090909090909092,
                "tempo": 120.0
            },
            {
                "start_time": 0.725,
                "end_time": 0.9090909090909091,
                "pitch": 19,
                "velocity": 80,
                "duration": 0.18409090909090908,
                "tempo": 120.0
            },
            {
                "start_time": 0.9090909090909091,
                "end_time": 1.093181818181818,
                "pitch": 31,
                "velocity": 80,
                "duration": 0.18409090909090897,
                "tempo": 120.0
            },
            {
                "start_time": 1.093181818181818,
                "end_time": 1.2727272727272727,
                "pitch": 19,
                "velocity": 80,
                "duration": 0.17954545454545467,
                "tempo": 120.0
            },
            {
                "start_time": 1.2727272727272727,
                "end_time": 1.468181818181818,
                "pitch": 32,
                "velocity": 80,
                "duration": 0.19545454545454533,
                "tempo": 120.0
            },
            {
                "start_time": 1.468181818181818,
                "end_time": 1.5545454545454545,
                "pitch": 21,
                "velocity": 80,
                "duration": 0.08636363636363642,
                "tempo": 120.0
            },
            {
                "start_time": 1.5545454545454545,
                "end_time": 1.6568181818181817,
                "pitch": 33,
                "velocity": 80,
                "duration": 0.10227272727272729,
                "tempo": 120.0
            },
            {
                "start_time": 1.6568181818181817,
                "end_time": 1.7431818181818182,
                "pitch": 21,
                "velocity": 80,
                "duration": 0.08636363636363642,
                "tempo": 120.0
            },
            {
                "start_time": 1.7431818181818182,
                "end_time": 1.8477272727272727,
                "pitch": 33,
                "velocity": 80,
                "duration": 0.1045454545454545,
                "tempo": 120.0
            },
            {
                "start_time": 1.8477272727272727,
                "end_time": 2.0204545454545455,
                "pitch": 21,
                "velocity": 80,
                "duration": 0.17272727272727284,
                "tempo": 120.0
            },
            {
                "start_time": 2.0204545454545455,
                "end_time": 2.2113636363636364,
                "pitch": 33,
                "velocity": 80,
                "duration": 0.19090909090909092,
                "tempo": 120.0
            },
            {
                "start_time": 2.2113636363636364,
                "end_time": 2.2977272727272724,
                "pitch": 33,
                "velocity": 80,
                "duration": 0.08636363636363598,
                "tempo": 120.0
            },
            {
                "start_time": 2.2977272727272724,
                "end_time": 2.4,
                "pitch": 36,
                "velocity": 80,
                "duration": 0.10227272727272751,
                "tempo": 120.0
            },
            {
                "start_time": 2.4,
                "end_time": 2.4863636363636363,
                "pitch": 38,
                "velocity": 80,
                "duration": 0.08636363636363642,
                "tempo": 120.0
            },
            {
                "start_time": 2.4863636363636363,
                "end_time": 2.590909090909091,
                "pitch": 40,
                "velocity": 80,
                "duration": 0.1045454545454545,
                "tempo": 120.0
            },
            {
                "start_time": 2.590909090909091,
                "end_time": 2.684090909090909,
                "pitch": 38,
                "velocity": 80,
                "duration": 0.09318181818181825,
                "tempo": 120.0
            },
            {
                "start_time": 2.686363636363636,
                "end_time": 2.7636363636363637,
                "pitch": 36,
                "velocity": 80,
                "duration": 0.0772727272727276,
                "tempo": 120.0
            },
            {
                "start_time": 2.7659090909090907,
                "end_time": 2.859090909090909,
                "pitch": 33,
                "velocity": 80,
                "duration": 0.09318181818181825,
                "tempo": 120.0
            },
            {
                "start_time": 2.859090909090909,
                "end_time": 2.9545454545454546,
                "pitch": 31,
                "velocity": 80,
                "duration": 0.09545454545454568,
                "tempo": 120.0
            },
            {
                "start_time": 2.9545454545454546,
                "end_time": 3.0409090909090906,
                "pitch": 21,
                "velocity": 80,
                "duration": 0.08636363636363598,
                "tempo": 120.0
            },
            {
                "start_time": 3.0409090909090906,
                "end_time": 3.143181818181818,
                "pitch": 33,
                "velocity": 80,
                "duration": 0.10227272727272751,
                "tempo": 120.0
            },
            {
                "start_time": 3.143181818181818,
                "end_time": 3.2295454545454545,
                "pitch": 21,
                "velocity": 80,
                "duration": 0.08636363636363642,
                "tempo": 120.0
            },
            {
                "start_time": 3.2295454545454545,
                "end_time": 3.334090909090909,
                "pitch": 33,
                "velocity": 80,
                "duration": 0.1045454545454545,
                "tempo": 120.0
            },
            {
                "start_time": 3.334090909090909,
                "end_time": 3.506818181818182,
                "pitch": 21,
                "velocity": 80,
                "duration": 0.17272727272727284,
                "tempo": 120.0
            },
            {
                "start_time": 3.509090909090909,
                "end_time": 3.6977272727272728,
                "pitch": 33,
                "velocity": 80,
                "duration": 0.18863636363636394,
                "tempo": 120.0
            },
            {
                "start_time": 3.6977272727272728,
                "end_time": 3.8886363636363637,
                "pitch": 19,
                "velocity": 80,
                "duration": 0.19090909090909092,
                "tempo": 120.0
            },
            {
                "start_time": 3.8886363636363637,
                "end_time": 4.077272727272727,
                "pitch": 31,
                "velocity": 80,
                "duration": 0.1886363636363635,
                "tempo": 120.0
            },
            {
                "start_time": 4.077272727272727,
                "end_time": 4.256818181818182,
                "pitch": 19,
                "velocity": 80,
                "duration": 0.17954545454545467,
                "tempo": 120.0
            },
            {
                "start_time": 4.256818181818182,
                "end_time": 4.452272727272727,
                "pitch": 32,
                "velocity": 80,
                "duration": 0.19545454545454533,
                "tempo": 120.0
            },
            {
                "start_time": 4.452272727272727,
                "end_time": 4.536363636363636,
                "pitch": 21,
                "velocity": 80,
                "duration": 0.084090909090909,
                "tempo": 120.0
            },
            {
                "start_time": 4.536363636363636,
                "end_time": 4.636363636363636,
                "pitch": 33,
                "velocity": 80,
                "duration": 0.09999999999999964,
                "tempo": 120.0
            },
            {
                "start_time": 4.636363636363636,
                "end_time": 4.720454545454545,
                "pitch": 21,
                "velocity": 80,
                "duration": 0.084090909090909,
                "tempo": 120.0
            },
            {
                "start_time": 4.720454545454545,
                "end_time": 4.820454545454545,
                "pitch": 33,
                "velocity": 80,
                "duration": 0.10000000000000053,
                "tempo": 120.0
            },
            {
                "start_time": 4.820454545454545,
                "end_time": 5.0,
                "pitch": 21,
                "velocity": 80,
                "duration": 0.17954545454545467,
                "tempo": 120.0
            },
            {
                "start_time": 5.0,
                "end_time": 5.195454545454545,
                "pitch": 33,
                "velocity": 80,
                "duration": 0.19545454545454533,
                "tempo": 120.0
            },
            {
                "start_time": 5.195454545454545,
                "end_time": 5.279545454545454,
                "pitch": 33,
                "velocity": 80,
                "duration": 0.084090909090909,
                "tempo": 120.0
            },
            {
                "start_time": 5.279545454545454,
                "end_time": 5.379545454545454,
                "pitch": 36,
                "velocity": 80,
                "duration": 0.09999999999999964,
                "tempo": 120.0
            },
            {
                "start_time": 5.379545454545454,
                "end_time": 5.463636363636363,
                "pitch": 38,
                "velocity": 80,
                "duration": 0.084090909090909,
                "tempo": 120.0
            },
            {
                "start_time": 5.463636363636363,
                "end_time": 5.5636363636363635,
                "pitch": 40,
                "velocity": 80,
                "duration": 0.10000000000000053,
                "tempo": 120.0
            },
            {
                "start_time": 5.5636363636363635,
                "end_time": 5.661363636363636,
                "pitch": 38,
                "velocity": 80,
                "duration": 0.09772727272727266,
                "tempo": 120.0
            },
            {
                "start_time": 5.661363636363636,
                "end_time": 5.743181818181818,
                "pitch": 36,
                "velocity": 80,
                "duration": 0.08181818181818201,
                "tempo": 120.0
            },
            {
                "start_time": 5.743181818181818,
                "end_time": 5.840909090909091,
                "pitch": 33,
                "velocity": 80,
                "duration": 0.09772727272727266,
                "tempo": 120.0
            },
            {
                "start_time": 5.840909090909091,
                "end_time": 5.9386363636363635,
                "pitch": 31,
                "velocity": 80,
                "duration": 0.09772727272727266,
                "tempo": 120.0
            },
            {
                "start_time": 5.9386363636363635,
                "end_time": 6.0227272727272725,
                "pitch": 21,
                "velocity": 80,
                "duration": 0.084090909090909,
                "tempo": 120.0
            },
            {
                "start_time": 6.0227272727272725,
                "end_time": 6.122727272727272,
                "pitch": 33,
                "velocity": 80,
                "duration": 0.09999999999999964,
                "tempo": 120.0
            },
            {
                "start_time": 6.122727272727272,
                "end_time": 6.206818181818181,
                "pitch": 21,
                "velocity": 80,
                "duration": 0.084090909090909,
                "tempo": 120.0
            },
            {
                "start_time": 6.206818181818181,
                "end_time": 6.306818181818182,
                "pitch": 33,
                "velocity": 80,
                "duration": 0.10000000000000053,
                "tempo": 120.0
            },
            {
                "start_time": 6.306818181818182,
                "end_time": 6.486363636363636,
                "pitch": 21,
                "velocity": 80,
                "duration": 0.17954545454545467,
                "tempo": 120.0
            },
            {
                "start_time": 6.486363636363636,
                "end_time": 6.681818181818182,
                "pitch": 33,
                "velocity": 80,
                "duration": 0.19545454545454533,
                "tempo": 120.0
            },
            {
                "start_time": 6.681818181818182,
                "end_time": 6.86590909090909,
                "pitch": 19,
                "velocity": 80,
                "duration": 0.18409090909090864,
                "tempo": 120.0
            },
            {
                "start_time": 6.86590909090909,
                "end_time": 7.05,
                "pitch": 31,
                "velocity": 80,
                "duration": 0.18409090909090953,
                "tempo": 120.0
            },
            {
                "start_time": 7.05,
                "end_time": 7.2295454545454545,
                "pitch": 19,
                "velocity": 80,
                "duration": 0.17954545454545467,
                "tempo": 120.0
            },
            {
                "start_time": 7.2295454545454545,
                "end_time": 7.425,
                "pitch": 32,
                "velocity": 80,
                "duration": 0.19545454545454533,
                "tempo": 120.0
            },
            {
                "start_time": 7.425,
                "end_time": 7.509090909090909,
                "pitch": 21,
                "velocity": 80,
                "duration": 0.084090909090909,
                "tempo": 120.0
            },
            {
                "start_time": 7.509090909090909,
                "end_time": 7.6090909090909085,
                "pitch": 33,
                "velocity": 80,
                "duration": 0.09999999999999964,
                "tempo": 120.0
            },
            {
                "start_time": 7.6090909090909085,
                "end_time": 7.6931818181818175,
                "pitch": 21,
                "velocity": 80,
                "duration": 0.084090909090909,
                "tempo": 120.0
            },
            {
                "start_time": 7.6931818181818175,
                "end_time": 7.793181818181818,
                "pitch": 33,
                "velocity": 80,
                "duration": 0.10000000000000053,
                "tempo": 120.0
            },
            {
                "start_time": 7.795454545454545,
                "end_time": 7.972727272727273,
                "pitch": 21,
                "velocity": 80,
                "duration": 0.1772727272727277,
                "tempo": 120.0
            },
            {
                "start_time": 7.972727272727273,
                "end_time": 8.168181818181818,
                "pitch": 33,
                "velocity": 80,
                "duration": 0.19545454545454533,
                "tempo": 120.0
            },
            {
                "start_time": 8.168181818181818,
                "end_time": 8.252272727272727,
                "pitch": 33,
                "velocity": 80,
                "duration": 0.084090909090909,
                "tempo": 120.0
            },
            {
                "start_time": 8.252272727272727,
                "end_time": 8.352272727272727,
                "pitch": 36,
                "velocity": 80,
                "duration": 0.09999999999999964,
                "tempo": 120.0
            },
            {
                "start_time": 8.352272727272727,
                "end_time": 8.436363636363636,
                "pitch": 38,
                "velocity": 80,
                "duration": 0.084090909090909,
                "tempo": 120.0
            },
            {
                "start_time": 8.436363636363636,
                "end_time": 8.538636363636364,
                "pitch": 40,
                "velocity": 80,
                "duration": 0.1022727272727284,
                "tempo": 120.0
            },
            {
                "start_time": 8.538636363636364,
                "end_time": 8.636363636363637,
                "pitch": 38,
                "velocity": 80,
                "duration": 0.09772727272727266,
                "tempo": 120.0
            },
            {
                "start_time": 8.636363636363637,
                "end_time": 8.71590909090909,
                "pitch": 36,
                "velocity": 80,
                "duration": 0.07954545454545325,
                "tempo": 120.0
            },
            {
                "start_time": 8.71590909090909,
                "end_time": 8.813636363636363,
                "pitch": 33,
                "velocity": 80,
                "duration": 0.09772727272727266,
                "tempo": 120.0
            },
            {
                "start_time": 8.813636363636363,
                "end_time": 8.911363636363635,
                "pitch": 31,
                "velocity": 80,
                "duration": 0.09772727272727266,
                "tempo": 120.0
            },
            {
                "start_time": 8.911363636363635,
                "end_time": 8.997727272727273,
                "pitch": 21,
                "velocity": 80,
                "duration": 0.08636363636363775,
                "tempo": 120.0
            },
            {
                "start_time": 8.997727272727273,
                "end_time": 9.1,
                "pitch": 33,
                "velocity": 80,
                "duration": 0.10227272727272663,
                "tempo": 120.0
            },
            {
                "start_time": 9.1,
                "end_time": 9.186363636363636,
                "pitch": 21,
                "velocity": 80,
                "duration": 0.08636363636363598,
                "tempo": 120.0
            },
            {
                "start_time": 9.186363636363636,
                "end_time": 9.290909090909091,
                "pitch": 33,
                "velocity": 80,
                "duration": 0.10454545454545539,
                "tempo": 120.0
            },
            {
                "start_time": 9.290909090909091,
                "end_time": 9.463636363636363,
                "pitch": 21,
                "velocity": 80,
                "duration": 0.17272727272727195,
                "tempo": 120.0
            },
            {
                "start_time": 9.46590909090909,
                "end_time": 9.654545454545454,
                "pitch": 33,
                "velocity": 80,
                "duration": 0.18863636363636438,
                "tempo": 120.0
            },
            {
                "start_time": 9.654545454545454,
                "end_time": 9.843181818181817,
                "pitch": 19,
                "velocity": 80,
                "duration": 0.1886363636363626,
                "tempo": 120.0
            },
            {
                "start_time": 9.845454545454546,
                "end_time": 10.034090909090908,
                "pitch": 31,
                "velocity": 80,
                "duration": 0.1886363636363626,
                "tempo": 120.0
            },
            {
                "start_time": 10.034090909090908,
                "end_time": 10.209090909090909,
                "pitch": 19,
                "velocity": 80,
                "duration": 0.1750000000000007,
                "tempo": 120.0
            },
            {
                "start_time": 10.209090909090909,
                "end_time": 10.397727272727272,
                "pitch": 32,
                "velocity": 80,
                "duration": 0.1886363636363626,
                "tempo": 120.0
            },
            {
                "start_time": 10.397727272727272,
                "end_time": 10.48409090909091,
                "pitch": 21,
                "velocity": 80,
                "duration": 0.08636363636363775,
                "tempo": 120.0
            },
            {
                "start_time": 10.48409090909091,
                "end_time": 10.588636363636363,
                "pitch": 33,
                "velocity": 80,
                "duration": 0.10454545454545361,
                "tempo": 120.0
            },
            {
                "start_time": 10.588636363636363,
                "end_time": 10.672727272727272,
                "pitch": 21,
                "velocity": 80,
                "duration": 0.084090909090909,
                "tempo": 120.0
            },
            {
                "start_time": 10.674999999999999,
                "end_time": 10.777272727272727,
                "pitch": 33,
                "velocity": 80,
                "duration": 0.1022727272727284,
                "tempo": 120.0
            },
            {
                "start_time": 10.777272727272727,
                "end_time": 10.952272727272726,
                "pitch": 21,
                "velocity": 80,
                "duration": 0.17499999999999893,
                "tempo": 120.0
            },
            {
                "start_time": 10.952272727272726,
                "end_time": 11.14090909090909,
                "pitch": 33,
                "velocity": 80,
                "duration": 0.18863636363636438,
                "tempo": 120.0
            },
            {
                "start_time": 11.143181818181818,
                "end_time": 11.227272727272727,
                "pitch": 33,
                "velocity": 80,
                "duration": 0.084090909090909,
                "tempo": 120.0
            },
            {
                "start_time": 11.227272727272727,
                "end_time": 11.331818181818182,
                "pitch": 36,
                "velocity": 80,
                "duration": 0.10454545454545539,
                "tempo": 120.0
            },
            {
                "start_time": 11.331818181818182,
                "end_time": 11.418181818181818,
                "pitch": 38,
                "velocity": 80,
                "duration": 0.08636363636363598,
                "tempo": 120.0
            },
            {
                "start_time": 11.418181818181818,
                "end_time": 11.520454545454545,
                "pitch": 40,
                "velocity": 80,
                "duration": 0.10227272727272663,
                "tempo": 120.0
            },
            {
                "start_time": 11.520454545454545,
                "end_time": 11.618181818181817,
                "pitch": 38,
                "velocity": 80,
                "duration": 0.09772727272727266,
                "tempo": 120.0
            },
            {
                "start_time": 11.618181818181817,
                "end_time": 11.7,
                "pitch": 36,
                "velocity": 80,
                "duration": 0.08181818181818201,
                "tempo": 120.0
            },
            {
                "start_time": 11.7,
                "end_time": 11.797727272727272,
                "pitch": 33,
                "velocity": 80,
                "duration": 0.09772727272727266,
                "tempo": 120.0
            },
            {
                "start_time": 11.797727272727272,
                "end_time": 11.895454545454545,
                "pitch": 31,
                "velocity": 80,
                "duration": 0.09772727272727266,
                "tempo": 120.0
            },
            {
                "start_time": 11.895454545454545,
                "end_time": 11.979545454545454,
                "pitch": 21,
                "velocity": 80,
                "duration": 0.084090909090909,
                "tempo": 120.0
            },
            {
                "start_time": 11.979545454545454,
                "end_time": 12.079545454545453,
                "pitch": 33,
                "velocity": 80,
                "duration": 0.09999999999999964,
                "tempo": 120.0
            },
            {
                "start_time": 12.079545454545453,
                "end_time": 12.163636363636362,
                "pitch": 21,
                "velocity": 80,
                "duration": 0.084090909090909,
                "tempo": 120.0
            },
            {
                "start_time": 12.163636363636362,
                "end_time": 12.263636363636364,
                "pitch": 33,
                "velocity": 80,
                "duration": 0.10000000000000142,
                "tempo": 120.0
            },
            {
                "start_time": 12.263636363636364,
                "end_time": 12.443181818181818,
                "pitch": 21,
                "velocity": 80,
                "duration": 0.17954545454545467,
                "tempo": 120.0
            },
            {
                "start_time": 12.443181818181818,
                "end_time": 12.638636363636364,
                "pitch": 33,
                "velocity": 80,
                "duration": 0.19545454545454533,
                "tempo": 120.0
            },
            {
                "start_time": 12.638636363636364,
                "end_time": 12.822727272727272,
                "pitch": 19,
                "velocity": 80,
                "duration": 0.18409090909090864,
                "tempo": 120.0
            },
            {
                "start_time": 12.822727272727272,
                "end_time": 13.006818181818181,
                "pitch": 31,
                "velocity": 80,
                "duration": 0.18409090909090864,
                "tempo": 120.0
            },
            {
                "start_time": 13.006818181818181,
                "end_time": 13.186363636363636,
                "pitch": 19,
                "velocity": 80,
                "duration": 0.17954545454545467,
                "tempo": 120.0
            },
            {
                "start_time": 13.186363636363636,
                "end_time": 13.381818181818181,
                "pitch": 32,
                "velocity": 80,
                "duration": 0.19545454545454533,
                "tempo": 120.0
            },
            {
                "start_time": 13.381818181818181,
                "end_time": 13.46590909090909,
                "pitch": 21,
                "velocity": 80,
                "duration": 0.084090909090909,
                "tempo": 120.0
            },
            {
                "start_time": 13.46590909090909,
                "end_time": 13.56590909090909,
                "pitch": 33,
                "velocity": 80,
                "duration": 0.09999999999999964,
                "tempo": 120.0
            },
            {
                "start_time": 13.56590909090909,
                "end_time": 13.649999999999999,
                "pitch": 21,
                "velocity": 80,
                "duration": 0.084090909090909,
                "tempo": 120.0
            },
            {
                "start_time": 13.649999999999999,
                "end_time": 13.75,
                "pitch": 33,
                "velocity": 80,
                "duration": 0.10000000000000142,
                "tempo": 120.0
            },
            {
                "start_time": 13.752272727272727,
                "end_time": 13.929545454545455,
                "pitch": 21,
                "velocity": 80,
                "duration": 0.1772727272727277,
                "tempo": 120.0
            },
            {
                "start_time": 13.929545454545455,
                "end_time": 14.125,
                "pitch": 33,
                "velocity": 80,
                "duration": 0.19545454545454533,
                "tempo": 120.0
            },
            {
                "start_time": 14.125,
                "end_time": 14.209090909090909,
                "pitch": 33,
                "velocity": 80,
                "duration": 0.084090909090909,
                "tempo": 120.0
            },
            {
                "start_time": 14.209090909090909,
                "end_time": 14.309090909090909,
                "pitch": 36,
                "velocity": 80,
                "duration": 0.09999999999999964,
                "tempo": 120.0
            },
            {
                "start_time": 14.309090909090909,
                "end_time": 14.393181818181818,
                "pitch": 38,
                "velocity": 80,
                "duration": 0.084090909090909,
                "tempo": 120.0
            },
            {
                "start_time": 14.393181818181818,
                "end_time": 14.495454545454544,
                "pitch": 40,
                "velocity": 80,
                "duration": 0.10227272727272663,
                "tempo": 120.0
            },
            {
                "start_time": 14.495454545454544,
                "end_time": 14.59090909090909,
                "pitch": 38,
                "velocity": 80,
                "duration": 0.09545454545454568,
                "tempo": 120.0
            },
            {
                "start_time": 14.593181818181817,
                "end_time": 14.672727272727272,
                "pitch": 36,
                "velocity": 80,
                "duration": 0.07954545454545503,
                "tempo": 120.0
            },
            {
                "start_time": 14.672727272727272,
                "end_time": 14.770454545454545,
                "pitch": 33,
                "velocity": 80,
                "duration": 0.09772727272727266,
                "tempo": 120.0
            },
            {
                "start_time": 14.770454545454545,
                "end_time": 14.868181818181817,
                "pitch": 31,
                "velocity": 80,
                "duration": 0.09772727272727266,
                "tempo": 120.0
            },
            {
                "start_time": 14.868181818181817,
                "end_time": 14.952272727272726,
                "pitch": 21,
                "velocity": 80,
                "duration": 0.084090909090909,
                "tempo": 120.0
            },
            {
                "start_time": 14.952272727272726,
                "end_time": 15.052272727272726,
                "pitch": 33,
                "velocity": 80,
                "duration": 0.09999999999999964,
                "tempo": 120.0
            },
            {
                "start_time": 15.052272727272726,
                "end_time": 15.136363636363635,
                "pitch": 21,
                "velocity": 80,
                "duration": 0.084090909090909,
                "tempo": 120.0
            },
            {
                "start_time": 15.136363636363635,
                "end_time": 15.238636363636363,
                "pitch": 33,
                "velocity": 80,
                "duration": 0.1022727272727284,
                "tempo": 120.0
            },
            {
                "start_time": 15.238636363636363,
                "end_time": 15.415909090909091,
                "pitch": 21,
                "velocity": 80,
                "duration": 0.1772727272727277,
                "tempo": 120.0
            },
            {
                "start_time": 15.415909090909091,
                "end_time": 15.611363636363636,
                "pitch": 33,
                "velocity": 80,
                "duration": 0.19545454545454533,
                "tempo": 120.0
            },
            {
                "start_time": 15.611363636363636,
                "end_time": 15.795454545454545,
                "pitch": 19,
                "velocity": 80,
                "duration": 0.18409090909090864,
                "tempo": 120.0
            },
            {
                "start_time": 15.797727272727272,
                "end_time": 15.98181818181818,
                "pitch": 31,
                "velocity": 80,
                "duration": 0.18409090909090864,
                "tempo": 120.0
            },
            {
                "start_time": 15.98181818181818,
                "end_time": 16.15909090909091,
                "pitch": 19,
                "velocity": 80,
                "duration": 0.17727272727272947,
                "tempo": 120.0
            },
            {
                "start_time": 16.161363636363635,
                "end_time": 16.354545454545455,
                "pitch": 32,
                "velocity": 80,
                "duration": 0.19318181818182012,
                "tempo": 120.0
            },
            {
                "start_time": 16.354545454545455,
                "end_time": 16.438636363636363,
                "pitch": 21,
                "velocity": 80,
                "duration": 0.08409090909090722,
                "tempo": 120.0
            },
            {
                "start_time": 16.438636363636363,
                "end_time": 16.54090909090909,
                "pitch": 33,
                "velocity": 80,
                "duration": 0.10227272727272663,
                "tempo": 120.0
            },
            {
                "start_time": 16.54090909090909,
                "end_time": 16.625,
                "pitch": 21,
                "velocity": 80,
                "duration": 0.08409090909091077,
                "tempo": 120.0
            },
            {
                "start_time": 16.625,
                "end_time": 16.724999999999998,
                "pitch": 33,
                "velocity": 80,
                "duration": 0.09999999999999787,
                "tempo": 120.0
            },
            {
                "start_time": 16.724999999999998,
                "end_time": 16.904545454545453,
                "pitch": 21,
                "velocity": 80,
                "duration": 0.17954545454545467,
                "tempo": 120.0
            },
            {
                "start_time": 16.904545454545453,
                "end_time": 17.097727272727273,
                "pitch": 33,
                "velocity": 80,
                "duration": 0.19318181818182012,
                "tempo": 120.0
            },
            {
                "start_time": 17.099999999999998,
                "end_time": 17.18409090909091,
                "pitch": 33,
                "velocity": 80,
                "duration": 0.08409090909091077,
                "tempo": 120.0
            },
            {
                "start_time": 17.18409090909091,
                "end_time": 17.288636363636364,
                "pitch": 36,
                "velocity": 80,
                "duration": 0.10454545454545539,
                "tempo": 120.0
            },
            {
                "start_time": 17.288636363636364,
                "end_time": 17.375,
                "pitch": 38,
                "velocity": 80,
                "duration": 0.08636363636363598,
                "tempo": 120.0
            },
            {
                "start_time": 17.375,
                "end_time": 17.477272727272727,
                "pitch": 40,
                "velocity": 80,
                "duration": 0.10227272727272663,
                "tempo": 120.0
            },
            {
                "start_time": 17.477272727272727,
                "end_time": 17.57272727272727,
                "pitch": 38,
                "velocity": 80,
                "duration": 0.0954545454545439,
                "tempo": 120.0
            },
            {
                "start_time": 17.57272727272727,
                "end_time": 17.652272727272727,
                "pitch": 36,
                "velocity": 80,
                "duration": 0.0795454545454568,
                "tempo": 120.0
            },
            {
                "start_time": 17.652272727272727,
                "end_time": 17.74772727272727,
                "pitch": 33,
                "velocity": 80,
                "duration": 0.0954545454545439,
                "tempo": 120.0
            },
            {
                "start_time": 17.74772727272727,
                "end_time": 17.84318181818182,
                "pitch": 31,
                "velocity": 80,
                "duration": 0.09545454545454746,
                "tempo": 120.0
            },
            {
                "start_time": 17.84318181818182,
                "end_time": 17.927272727272726,
                "pitch": 21,
                "velocity": 80,
                "duration": 0.08409090909090722,
                "tempo": 120.0
            },
            {
                "start_time": 17.927272727272726,
                "end_time": 18.03181818181818,
                "pitch": 33,
                "velocity": 80,
                "duration": 0.10454545454545539,
                "tempo": 120.0
            },
            {
                "start_time": 18.03181818181818,
                "end_time": 18.118181818181817,
                "pitch": 21,
                "velocity": 80,
                "duration": 0.08636363636363598,
                "tempo": 120.0
            },
            {
                "start_time": 18.118181818181817,
                "end_time": 18.220454545454544,
                "pitch": 33,
                "velocity": 80,
                "duration": 0.10227272727272663,
                "tempo": 120.0
            },
            {
                "start_time": 18.220454545454544,
                "end_time": 18.395454545454545,
                "pitch": 21,
                "velocity": 80,
                "duration": 0.1750000000000007,
                "tempo": 120.0
            },
            {
                "start_time": 18.395454545454545,
                "end_time": 18.586363636363636,
                "pitch": 33,
                "velocity": 80,
                "duration": 0.19090909090909136,
                "tempo": 120.0
            },
            {
                "start_time": 18.586363636363636,
                "end_time": 18.775,
                "pitch": 19,
                "velocity": 80,
                "duration": 0.1886363636363626,
                "tempo": 120.0
            },
            {
                "start_time": 18.775,
                "end_time": 18.96363636363636,
                "pitch": 31,
                "velocity": 80,
                "duration": 0.1886363636363626,
                "tempo": 120.0
            },
            {
                "start_time": 18.96363636363636,
                "end_time": 19.143181818181816,
                "pitch": 19,
                "velocity": 80,
                "duration": 0.17954545454545467,
                "tempo": 120.0
            },
            {
                "start_time": 19.143181818181816,
                "end_time": 19.33863636363636,
                "pitch": 32,
                "velocity": 80,
                "duration": 0.19545454545454533,
                "tempo": 120.0
            },
            {
                "start_time": 19.33863636363636,
                "end_time": 19.422727272727272,
                "pitch": 21,
                "velocity": 80,
                "duration": 0.08409090909091077,
                "tempo": 120.0
            },
            {
                "start_time": 19.422727272727272,
                "end_time": 19.522727272727273,
                "pitch": 33,
                "velocity": 80,
                "duration": 0.10000000000000142,
                "tempo": 120.0
            },
            {
                "start_time": 19.522727272727273,
                "end_time": 19.60681818181818,
                "pitch": 21,
                "velocity": 80,
                "duration": 0.08409090909090722,
                "tempo": 120.0
            },
            {
                "start_time": 19.60681818181818,
                "end_time": 19.706818181818182,
                "pitch": 33,
                "velocity": 80,
                "duration": 0.10000000000000142,
                "tempo": 120.0
            },
            {
                "start_time": 19.706818181818182,
                "end_time": 19.886363636363637,
                "pitch": 21,
                "velocity": 80,
                "duration": 0.17954545454545467,
                "tempo": 120.0
            },
            {
                "start_time": 19.886363636363637,
                "end_time": 20.081818181818182,
                "pitch": 33,
                "velocity": 80,
                "duration": 0.19545454545454533,
                "tempo": 120.0
            },
            {
                "start_time": 20.081818181818182,
                "end_time": 20.16590909090909,
                "pitch": 33,
                "velocity": 80,
                "duration": 0.08409090909090722,
                "tempo": 120.0
            },
            {
                "start_time": 20.16590909090909,
                "end_time": 20.26590909090909,
                "pitch": 36,
                "velocity": 80,
                "duration": 0.10000000000000142,
                "tempo": 120.0
            },
            {
                "start_time": 20.26590909090909,
                "end_time": 20.349999999999998,
                "pitch": 38,
                "velocity": 80,
                "duration": 0.08409090909090722,
                "tempo": 120.0
            },
            {
                "start_time": 20.349999999999998,
                "end_time": 20.45,
                "pitch": 40,
                "velocity": 80,
                "duration": 0.10000000000000142,
                "tempo": 120.0
            },
            {
                "start_time": 20.452272727272728,
                "end_time": 20.547727272727272,
                "pitch": 38,
                "velocity": 80,
                "duration": 0.0954545454545439,
                "tempo": 120.0
            },
            {
                "start_time": 20.55,
                "end_time": 20.629545454545454,
                "pitch": 36,
                "velocity": 80,
                "duration": 0.07954545454545325,
                "tempo": 120.0
            },
            {
                "start_time": 20.629545454545454,
                "end_time": 20.727272727272727,
                "pitch": 33,
                "velocity": 80,
                "duration": 0.09772727272727266,
                "tempo": 120.0
            },
            {
                "start_time": 20.727272727272727,
                "end_time": 20.825,
                "pitch": 31,
                "velocity": 80,
                "duration": 0.09772727272727266,
                "tempo": 120.0
            },
            {
                "start_time": 20.825,
                "end_time": 20.909090909090907,
                "pitch": 21,
                "velocity": 80,
                "duration": 0.08409090909090722,
                "tempo": 120.0
            },
            {
                "start_time": 20.909090909090907,
                "end_time": 21.009090909090908,
                "pitch": 33,
                "velocity": 80,
                "duration": 0.10000000000000142,
                "tempo": 120.0
            },
            {
                "start_time": 21.009090909090908,
                "end_time": 21.09318181818182,
                "pitch": 21,
                "velocity": 80,
                "duration": 0.08409090909091077,
                "tempo": 120.0
            },
            {
                "start_time": 21.09318181818182,
                "end_time": 21.195454545454545,
                "pitch": 33,
                "velocity": 80,
                "duration": 0.10227272727272663,
                "tempo": 120.0
            },
            {
                "start_time": 21.195454545454545,
                "end_time": 21.37272727272727,
                "pitch": 21,
                "velocity": 80,
                "duration": 0.17727272727272592,
                "tempo": 120.0
            },
            {
                "start_time": 21.37272727272727,
                "end_time": 21.568181818181817,
                "pitch": 33,
                "velocity": 80,
                "duration": 0.19545454545454533,
                "tempo": 120.0
            },
            {
                "start_time": 21.568181818181817,
                "end_time": 21.752272727272725,
                "pitch": 19,
                "velocity": 80,
                "duration": 0.18409090909090864,
                "tempo": 120.0
            },
            {
                "start_time": 21.754545454545454,
                "end_time": 21.938636363636363,
                "pitch": 31,
                "velocity": 80,
                "duration": 0.18409090909090864,
                "tempo": 120.0
            },
            {
                "start_time": 21.938636363636363,
                "end_time": 22.11590909090909,
                "pitch": 19,
                "velocity": 80,
                "duration": 0.17727272727272592,
                "tempo": 120.0
            },
            {
                "start_time": 22.118181818181817,
                "end_time": 22.311363636363634,
                "pitch": 32,
                "velocity": 80,
                "duration": 0.19318181818181657,
                "tempo": 120.0
            },
            {
                "start_time": 22.311363636363634,
                "end_time": 22.395454545454545,
                "pitch": 21,
                "velocity": 80,
                "duration": 0.08409090909091077,
                "tempo": 120.0
            },
            {
                "start_time": 22.395454545454545,
                "end_time": 22.49772727272727,
                "pitch": 33,
                "velocity": 80,
                "duration": 0.10227272727272663,
                "tempo": 120.0
            },
            {
                "start_time": 22.49772727272727,
                "end_time": 22.579545454545453,
                "pitch": 21,
                "velocity": 80,
                "duration": 0.08181818181818201,
                "tempo": 120.0
            },
            {
                "start_time": 22.579545454545453,
                "end_time": 22.68181818181818,
                "pitch": 33,
                "velocity": 80,
                "duration": 0.10227272727272663,
                "tempo": 120.0
            },
            {
                "start_time": 22.68181818181818,
                "end_time": 22.861363636363635,
                "pitch": 21,
                "velocity": 80,
                "duration": 0.17954545454545467,
                "tempo": 120.0
            },
            {
                "start_time": 22.861363636363635,
                "end_time": 23.054545454545455,
                "pitch": 33,
                "velocity": 80,
                "duration": 0.19318181818182012,
                "tempo": 120.0
            },
            {
                "start_time": 23.05681818181818,
                "end_time": 23.138636363636362,
                "pitch": 33,
                "velocity": 80,
                "duration": 0.08181818181818201,
                "tempo": 120.0
            },
            {
                "start_time": 23.138636363636362,
                "end_time": 23.24090909090909,
                "pitch": 36,
                "velocity": 80,
                "duration": 0.10227272727272663,
                "tempo": 120.0
            },
            {
                "start_time": 23.24090909090909,
                "end_time": 23.325,
                "pitch": 38,
                "velocity": 80,
                "duration": 0.08409090909091077,
                "tempo": 120.0
            },
            {
                "start_time": 23.325,
                "end_time": 23.424999999999997,
                "pitch": 40,
                "velocity": 80,
                "duration": 0.09999999999999787,
                "tempo": 120.0
            },
            {
                "start_time": 23.424999999999997,
                "end_time": 23.52272727272727,
                "pitch": 38,
                "velocity": 80,
                "duration": 0.09772727272727266,
                "tempo": 120.0
            },
            {
                "start_time": 23.52272727272727,
                "end_time": 23.604545454545452,
                "pitch": 36,
                "velocity": 80,
                "duration": 0.08181818181818201,
                "tempo": 120.0
            },
            {
                "start_time": 23.604545454545452,
                "end_time": 23.702272727272724,
                "pitch": 33,
                "velocity": 80,
                "duration": 0.09772727272727266,
                "tempo": 120.0
            },
            {
                "start_time": 23.702272727272724,
                "end_time": 23.799999999999997,
                "pitch": 31,
                "velocity": 80,
                "duration": 0.09772727272727266,
                "tempo": 120.0
            }
        ]
    }
}