{
    "track_id": "17 Ending 2",
    "mood": "angry",
    "instruments": {
        "Trumpet": [
            {
                "start_time": 0.013636363636363636,
                "end_time": 0.21136363636363636,
                "pitch": 62,
                "velocity": 101,
                "duration": 0.19772727272727272,
                "tempo": 120.0
            },
            {
                "start_time": 0.21136363636363636,
                "end_time": 0.5795454545454545,
                "pitch": 67,
                "velocity": 101,
                "duration": 0.3681818181818181,
                "tempo": 120.0
            },
            {
                "start_time": 0.5795454545454545,
                "end_time": 0.9454545454545454,
                "pitch": 69,
                "velocity": 101,
                "duration": 0.36590909090909096,
                "tempo": 120.0
            },
            {
                "start_time": 0.9477272727272726,
                "end_time": 1.125,
                "pitch": 70,
                "velocity": 101,
                "duration": 0.17727272727272736,
                "tempo": 120.0
            },
            {
                "start_time": 1.1272727272727272,
                "end_time": 1.3045454545454545,
                "pitch": 72,
                "velocity": 101,
                "duration": 0.17727272727272725,
                "tempo": 120.0
            },
            {
                "start_time": 1.3068181818181817,
                "end_time": 1.4886363636363635,
                "pitch": 75,
                "velocity": 101,
                "duration": 0.18181818181818188,
                "tempo": 120.0
            },
            {
                "start_time": 1.4886363636363635,
                "end_time": 1.6727272727272726,
                "pitch": 74,
                "velocity": 101,
                "duration": 0.18409090909090908,
                "tempo": 120.0
            },
            {
                "start_time": 1.6727272727272726,
                "end_time": 1.8568181818181817,
                "pitch": 72,
                "velocity": 101,
                "duration": 0.18409090909090908,
                "tempo": 120.0
            },
            {
                "start_time": 1.8568181818181817,
                "end_time": 2.040909090909091,
                "pitch": 70,
                "velocity": 101,
                "duration": 0.1840909090909093,
                "tempo": 120.0
            },
            {
                "start_time": 2.040909090909091,
                "end_time": 2.2227272727272727,
                "pitch": 69,
                "velocity": 101,
                "duration": 0.18181818181818166,
                "tempo": 120.0
            },
            {
                "start_time": 2.225,
                "end_time": 2.4068181818181817,
                "pitch": 62,
                "velocity": 101,
                "duration": 0.18181818181818166,
                "tempo": 120.0
            },
            {
                "start_time": 2.409090909090909,
                "end_time": 2.7659090909090907,
                "pitch": 67,
                "velocity": 101,
                "duration": 0.3568181818181815,
                "tempo": 120.0
            },
            {
                "start_time": 2.7659090909090907,
                "end_time": 3.134090909090909,
                "pitch": 69,
                "velocity": 101,
                "duration": 0.36818181818181817,
                "tempo": 120.0
            },
            {
                "start_time": 3.134090909090909,
                "end_time": 3.3136363636363635,
                "pitch": 70,
                "velocity": 101,
                "duration": 0.17954545454545467,
                "tempo": 120.0
            },
            {
                "start_time": 3.3136363636363635,
                "end_time": 3.4909090909090907,
                "pitch": 72,
                "velocity": 101,
                "duration": 0.17727272727272725,
                "tempo": 120.0
            },
            {
                "start_time": 3.493181818181818,
                "end_time": 3.675,
                "pitch": 75,
                "velocity": 101,
                "duration": 0.18181818181818166,
                "tempo": 120.0
            },
            {
                "start_time": 3.6772727272727272,
                "end_time": 3.859090909090909,
                "pitch": 74,
                "velocity": 101,
                "duration": 0.18181818181818166,
                "tempo": 120.0
            },
            {
                "start_time": 3.859090909090909,
                "end_time": 4.043181818181818,
                "pitch": 72,
                "velocity": 101,
                "duration": 0.18409090909090908,
                "tempo": 120.0
            },
            {
                "start_time": 4.043181818181818,
                "end_time": 4.227272727272727,
                "pitch": 70,
                "velocity": 101,
                "duration": 0.18409090909090864,
                "tempo": 120.0
            },
            {
                "start_time": 4.227272727272727,
                "end_time": 4.411363636363636,
                "pitch": 69,
                "velocity": 101,
                "duration": 0.18409090909090953,
                "tempo": 120.0
            },
            {
                "start_time": 4.411363636363636,
                "end_time": 4.593181818181818,
                "pitch": 60,
                "velocity": 101,
                "duration": 0.18181818181818166,
                "tempo": 120.0
            },
            {
                "start_time": 4.595454545454545,
                "end_time": 4.961363636363636,
                "pitch": 65,
                "velocity": 101,
                "duration": 0.3659090909090912,
                "tempo": 120.0
            },
            {
                "start_time": 4.961363636363636,
                "end_time": 5.320454545454545,
                "pitch": 67,
                "velocity": 101,
                "duration": 0.35909090909090935,
                "tempo": 120.0
            },
            {
                "start_time": 5.320454545454545,
                "end_time": 5.504545454545454,
                "pitch": 68,
                "velocity": 101,
                "duration": 0.18409090909090864,
                "tempo": 120.0
            },
            {
                "start_time": 5.504545454545454,
                "end_time": 5.6863636363636365,
                "pitch": 70,
                "velocity": 101,
                "duration": 0.18181818181818254,
                "tempo": 120.0
            },
            {
                "start_time": 5.6886363636363635,
                "end_time": 5.86590909090909,
                "pitch": 73,
                "velocity": 101,
                "duration": 0.1772727272727268,
                "tempo": 120.0
            },
            {
                "start_time": 5.868181818181818,
                "end_time": 6.045454545454545,
                "pitch": 72,
                "velocity": 101,
                "duration": 0.1772727272727268,
                "tempo": 120.0
            },
            {
                "start_time": 6.047727272727273,
                "end_time": 6.2295454545454545,
                "pitch": 70,
                "velocity": 101,
                "duration": 0.18181818181818166,
                "tempo": 120.0
            },
            {
                "start_time": 6.2295454545454545,
                "end_time": 6.413636363636363,
                "pitch": 68,
                "velocity": 101,
                "duration": 0.18409090909090864,
                "tempo": 120.0
            },
            {
                "start_time": 6.413636363636363,
                "end_time": 6.597727272727273,
                "pitch": 67,
                "velocity": 101,
                "duration": 0.18409090909090953,
                "tempo": 120.0
            },
            {
                "start_time": 6.597727272727273,
                "end_time": 6.781818181818181,
                "pitch": 60,
                "velocity": 101,
                "duration": 0.18409090909090864,
                "tempo": 120.0
            },
            {
                "start_time": 6.781818181818181,
                "end_time": 7.1477272727272725,
                "pitch": 65,
                "velocity": 101,
                "duration": 0.3659090909090912,
                "tempo": 120.0
            },
            {
                "start_time": 7.1499999999999995,
                "end_time": 7.515909090909091,
                "pitch": 67,
                "velocity": 101,
                "duration": 0.3659090909090912,
                "tempo": 120.0
            },
            {
                "start_time": 7.515909090909091,
                "end_time": 7.695454545454545,
                "pitch": 68,
                "velocity": 101,
                "duration": 0.17954545454545467,
                "tempo": 120.0
            },
            {
                "start_time": 7.695454545454545,
                "end_time": 7.875,
                "pitch": 70,
                "velocity": 101,
                "duration": 0.17954545454545467,
                "tempo": 120.0
            },
            {
                "start_time": 7.875,
                "end_time": 8.056818181818182,
                "pitch": 73,
                "velocity": 101,
                "duration": 0.18181818181818166,
                "tempo": 120.0
            },
            {
                "start_time": 8.059090909090909,
                "end_time": 8.24090909090909,
                "pitch": 72,
                "velocity": 101,
                "duration": 0.18181818181818166,
                "tempo": 120.0
            },
            {
                "start_time": 8.243181818181817,
                "end_time": 8.424999999999999,
                "pitch": 70,
                "velocity": 101,
                "duration": 0.18181818181818166,
                "tempo": 120.0
            },
            {
                "start_time": 8.427272727272728,
                "end_time": 8.60909090909091,
                "pitch": 68,
                "velocity": 101,
                "duration": 0.18181818181818166,
                "tempo": 120.0
            },
            {
                "start_time": 8.60909090909091,
                "end_time": 8.793181818181818,
                "pitch": 67,
                "velocity": 101,
                "duration": 0.18409090909090864,
                "tempo": 120.0
            },
            {
                "start_time": 8.797727272727272,
                "end_time": 8.802272727272728,
                "pitch": 62,
                "velocity": 101,
                "duration": 0.0045454545454557405,
                "tempo": 120.0
            }
        ],
        "Acoustic Bass": [
            {
                "start_time": 0.015909090909090907,
                "end_time": 0.39545454545454545,
                "pitch": 38,
                "velocity": 80,
                "duration": 0.3795454545454545,
                "tempo": 120.0
            },
            {
                "start_time": 0.3977272727272727,
                "end_time": 0.7636363636363636,
                "pitch": 34,
                "velocity": 80,
                "duration": 0.36590909090909085,
                "tempo": 120.0
            },
            {
                "start_time": 0.7636363636363636,
                "end_time": 0.9477272727272726,
                "pitch": 33,
                "velocity": 80,
                "duration": 0.18409090909090908,
                "tempo": 120.0
            },
            {
                "start_time": 0.95,
                "end_time": 1.1272727272727272,
                "pitch": 31,
                "velocity": 80,
                "duration": 0.17727272727272725,
                "tempo": 120.0
            },
            {
                "start_time": 1.1295454545454544,
                "end_time": 1.3068181818181817,
                "pitch": 33,
                "velocity": 80,
                "duration": 0.17727272727272725,
                "tempo": 120.0
            },
            {
                "start_time": 1.3068181818181817,
                "end_time": 1.4909090909090907,
                "pitch": 38,
                "velocity": 80,
                "duration": 0.18409090909090908,
                "tempo": 120.0
            },
            {
                "start_time": 1.4909090909090907,
                "end_time": 1.6749999999999998,
                "pitch": 34,
                "velocity": 80,
                "duration": 0.18409090909090908,
                "tempo": 120.0
            },
            {
                "start_time": 1.6749999999999998,
                "end_time": 1.859090909090909,
                "pitch": 33,
                "velocity": 80,
                "duration": 0.18409090909090908,
                "tempo": 120.0
            },
            {
                "start_time": 1.859090909090909,
                "end_time": 2.040909090909091,
                "pitch": 31,
                "velocity": 80,
                "duration": 0.1818181818181821,
                "tempo": 120.0
            },
            {
                "start_time": 2.043181818181818,
                "end_time": 2.225,
                "pitch": 33,
                "velocity": 80,
                "duration": 0.1818181818181821,
                "tempo": 120.0
            },
            {
                "start_time": 2.227272727272727,
                "end_time": 2.5863636363636364,
                "pitch": 38,
                "velocity": 80,
                "duration": 0.35909090909090935,
                "tempo": 120.0
            },
            {
                "start_time": 2.5886363636363634,
                "end_time": 2.9499999999999997,
                "pitch": 34,
                "velocity": 80,
                "duration": 0.36136363636363633,
                "tempo": 120.0
            },
            {
                "start_time": 2.9499999999999997,
                "end_time": 3.134090909090909,
                "pitch": 33,
                "velocity": 80,
                "duration": 0.18409090909090908,
                "tempo": 120.0
            },
            {
                "start_time": 3.1363636363636362,
                "end_time": 3.3136363636363635,
                "pitch": 31,
                "velocity": 80,
                "duration": 0.17727272727272725,
                "tempo": 120.0
            },
            {
                "start_time": 3.315909090909091,
                "end_time": 3.493181818181818,
                "pitch": 33,
                "velocity": 80,
                "duration": 0.17727272727272725,
                "tempo": 120.0
            },
            {
                "start_time": 3.495454545454545,
                "end_time": 3.6772727272727272,
                "pitch": 38,
                "velocity": 80,
                "duration": 0.1818181818181821,
                "tempo": 120.0
            },
            {
                "start_time": 3.6772727272727272,
                "end_time": 3.8613636363636363,
                "pitch": 34,
                "velocity": 80,
                "duration": 0.18409090909090908,
                "tempo": 120.0
            },
            {
                "start_time": 3.8613636363636363,
                "end_time": 4.045454545454545,
                "pitch": 33,
                "velocity": 80,
                "duration": 0.18409090909090864,
                "tempo": 120.0
            },
            {
                "start_time": 4.045454545454545,
                "end_time": 4.2295454545454545,
                "pitch": 31,
                "velocity": 80,
                "duration": 0.18409090909090953,
                "tempo": 120.0
            },
            {
                "start_time": 4.2295454545454545,
                "end_time": 4.411363636363636,
                "pitch": 33,
                "velocity": 80,
                "duration": 0.18181818181818166,
                "tempo": 120.0
            },
            {
                "start_time": 4.413636363636363,
                "end_time": 4.777272727272727,
                "pitch": 36,
                "velocity": 80,
                "duration": 0.3636363636363642,
                "tempo": 120.0
            },
            {
                "start_time": 4.779545454545454,
                "end_time": 5.140909090909091,
                "pitch": 32,
                "velocity": 80,
                "duration": 0.36136363636363633,
                "tempo": 120.0
            },
            {
                "start_time": 5.143181818181818,
                "end_time": 5.322727272727272,
                "pitch": 31,
                "velocity": 80,
                "duration": 0.17954545454545467,
                "tempo": 120.0
            },
            {
                "start_time": 5.322727272727272,
                "end_time": 5.504545454545454,
                "pitch": 29,
                "velocity": 80,
                "duration": 0.18181818181818166,
                "tempo": 120.0
            },
            {
                "start_time": 5.506818181818182,
                "end_time": 5.6886363636363635,
                "pitch": 31,
                "velocity": 80,
                "duration": 0.18181818181818166,
                "tempo": 120.0
            },
            {
                "start_time": 5.6909090909090905,
                "end_time": 5.868181818181818,
                "pitch": 36,
                "velocity": 80,
                "duration": 0.1772727272727277,
                "tempo": 120.0
            },
            {
                "start_time": 5.870454545454545,
                "end_time": 6.047727272727273,
                "pitch": 32,
                "velocity": 80,
                "duration": 0.1772727272727277,
                "tempo": 120.0
            },
            {
                "start_time": 6.05,
                "end_time": 6.2318181818181815,
                "pitch": 31,
                "velocity": 80,
                "duration": 0.18181818181818166,
                "tempo": 120.0
            },
            {
                "start_time": 6.2318181818181815,
                "end_time": 6.415909090909091,
                "pitch": 29,
                "velocity": 80,
                "duration": 0.18409090909090953,
                "tempo": 120.0
            },
            {
                "start_time": 6.415909090909091,
                "end_time": 6.6,
                "pitch": 31,
                "velocity": 80,
                "duration": 0.18409090909090864,
                "tempo": 120.0
            },
            {
                "start_time": 6.6,
                "end_time": 6.965909090909091,
                "pitch": 36,
                "velocity": 80,
                "duration": 0.3659090909090912,
                "tempo": 120.0
            },
            {
                "start_time": 6.965909090909091,
                "end_time": 7.331818181818181,
                "pitch": 32,
                "velocity": 80,
                "duration": 0.3659090909090903,
                "tempo": 120.0
            },
            {
                "start_time": 7.334090909090909,
                "end_time": 7.518181818181818,
                "pitch": 31,
                "velocity": 80,
                "duration": 0.18409090909090864,
                "tempo": 120.0
            },
            {
                "start_time": 7.518181818181818,
                "end_time": 7.697727272727272,
                "pitch": 29,
                "velocity": 80,
                "duration": 0.17954545454545467,
                "tempo": 120.0
            },
            {
                "start_time": 7.697727272727272,
                "end_time": 7.877272727272727,
                "pitch": 31,
                "velocity": 80,
                "duration": 0.17954545454545467,
                "tempo": 120.0
            },
            {
                "start_time": 7.877272727272727,
                "end_time": 8.059090909090909,
                "pitch": 36,
                "velocity": 80,
                "duration": 0.18181818181818166,
                "tempo": 120.0
            },
            {
                "start_time": 8.061363636363636,
                "end_time": 8.243181818181817,
                "pitch": 32,
                "velocity": 80,
                "duration": 0.18181818181818166,
                "tempo": 120.0
            },
            {
                "start_time": 8.245454545454544,
                "end_time": 8.427272727272728,
                "pitch": 31,
                "velocity": 80,
                "duration": 0.18181818181818343,
                "tempo": 120.0
            },
            {
                "start_time": 8.427272727272728,
                "end_time": 8.611363636363636,
                "pitch": 29,
                "velocity": 80,
                "duration": 0.18409090909090864,
                "tempo": 120.0
            },
            {
                "start_time": 8.611363636363636,
                "end_time": 8.793181818181818,
                "pitch": 31,
                "velocity": 80,
                "duration": 0.18181818181818166,
                "tempo": 120.0
            }
        ]
    }
}