{
    "track_id": "17 Last Scene",
    "mood": "angry",
    "instruments": {
        "Vibraphone": [
            {
                "start_time": 0.525,
                "end_time": 1.5295454545454545,
                "pitch": 72,
                "velocity": 16,
                "duration": 1.0045454545454544,
                "tempo": 120.0
            },
            {
                "start_time": 1.5318181818181817,
                "end_time": 1.7318181818181817,
                "pitch": 79,
                "velocity": 16,
                "duration": 0.19999999999999996,
                "tempo": 120.0
            },
            {
                "start_time": 1.7318181818181817,
                "end_time": 1.918181818181818,
                "pitch": 79,
                "velocity": 16,
                "duration": 0.1863636363636363,
                "tempo": 120.0
            },
            {
                "start_time": 1.918181818181818,
                "end_time": 2.2068181818181816,
                "pitch": 79,
                "velocity": 16,
                "duration": 0.2886363636363636,
                "tempo": 120.0
            },
            {
                "start_time": 1.7318181818181817,
                "end_time": 2.2068181818181816,
                "pitch": 91,
                "velocity": 16,
                "duration": 0.47499999999999987,
                "tempo": 120.0
            },
            {
                "start_time": 1.918181818181818,
                "end_time": 2.3954545454545455,
                "pitch": 0,
                "velocity": 16,
                "duration": 0.4772727272727275,
                "tempo": 120.0
            },
            {
                "start_time": 2.2068181818181816,
                "end_time": 2.3954545454545455,
                "pitch": 79,
                "velocity": 16,
                "duration": 0.18863636363636394,
                "tempo": 120.0
            },
            {
                "start_time": 2.3954545454545455,
                "end_time": 2.5477272727272724,
                "pitch": 79,
                "velocity": 16,
                "duration": 0.1522727272727269,
                "tempo": 120.0
            },
            {
                "start_time": 2.5477272727272724,
                "end_time": 3.559090909090909,
                "pitch": 72,
                "velocity": 20,
                "duration": 1.0113636363636367,
                "tempo": 120.0
            },
            {
                "start_time": 3.559090909090909,
                "end_time": 3.627272727272727,
                "pitch": 79,
                "velocity": 20,
                "duration": 0.0681818181818179,
                "tempo": 120.0
            },
            {
                "start_time": 2.2068181818181816,
                "end_time": 3.627272727272727,
                "pitch": 91,
                "velocity": 16,
                "duration": 1.4204545454545454,
                "tempo": 120.0
            },
            {
                "start_time": 2.3954545454545455,
                "end_time": 3.811363636363636,
                "pitch": 0,
                "velocity": 16,
                "duration": 1.4159090909090906,
                "tempo": 120.0
            },
            {
                "start_time": 3.627272727272727,
                "end_time": 3.811363636363636,
                "pitch": 79,
                "velocity": 20,
                "duration": 0.18409090909090908,
                "tempo": 120.0
            },
            {
                "start_time": 3.811363636363636,
                "end_time": 4.095454545454546,
                "pitch": 79,
                "velocity": 20,
                "duration": 0.2840909090909096,
                "tempo": 120.0
            },
            {
                "start_time": 3.627272727272727,
                "end_time": 4.095454545454546,
                "pitch": 91,
                "velocity": 20,
                "duration": 0.4681818181818187,
                "tempo": 120.0
            },
            {
                "start_time": 3.811363636363636,
                "end_time": 4.279545454545454,
                "pitch": 0,
                "velocity": 20,
                "duration": 0.46818181818181825,
                "tempo": 120.0
            },
            {
                "start_time": 4.095454545454546,
                "end_time": 4.279545454545454,
                "pitch": 79,
                "velocity": 20,
                "duration": 0.18409090909090864,
                "tempo": 120.0
            },
            {
                "start_time": 4.279545454545454,
                "end_time": 4.5659090909090905,
                "pitch": 79,
                "velocity": 20,
                "duration": 0.28636363636363615,
                "tempo": 120.0
            },
            {
                "start_time": 4.095454545454546,
                "end_time": 4.5659090909090905,
                "pitch": 91,
                "velocity": 20,
                "duration": 0.4704545454545448,
                "tempo": 120.0
            },
            {
                "start_time": 4.5659090909090905,
                "end_time": 5.570454545454545,
                "pitch": 72,
                "velocity": 25,
                "duration": 1.0045454545454549,
                "tempo": 120.0
            },
            {
                "start_time": 4.5659090909090905,
                "end_time": 5.570454545454545,
                "pitch": 79,
                "velocity": 20,
                "duration": 1.0045454545454549,
                "tempo": 120.0
            },
            {
                "start_time": 4.5659090909090905,
                "end_time": 5.570454545454545,
                "pitch": 91,
                "velocity": 20,
                "duration": 1.0045454545454549,
                "tempo": 120.0
            },
            {
                "start_time": 4.279545454545454,
                "end_time": 5.6863636363636365,
                "pitch": 0,
                "velocity": 20,
                "duration": 1.4068181818181822,
                "tempo": 120.0
            },
            {
                "start_time": 5.570454545454545,
                "end_time": 5.6863636363636365,
                "pitch": 79,
                "velocity": 25,
                "duration": 0.11590909090909118,
                "tempo": 120.0
            },
            {
                "start_time": 5.570454545454545,
                "end_time": 5.6863636363636365,
                "pitch": 79,
                "velocity": 25,
                "duration": 0.11590909090909118,
                "tempo": 120.0
            },
            {
                "start_time": 5.6863636363636365,
                "end_time": 5.970454545454545,
                "pitch": 79,
                "velocity": 25,
                "duration": 0.2840909090909083,
                "tempo": 120.0
            },
            {
                "start_time": 5.570454545454545,
                "end_time": 5.970454545454545,
                "pitch": 91,
                "velocity": 25,
                "duration": 0.39999999999999947,
                "tempo": 120.0
            },
            {
                "start_time": 5.6863636363636365,
                "end_time": 6.154545454545454,
                "pitch": 0,
                "velocity": 25,
                "duration": 0.4681818181818178,
                "tempo": 120.0
            },
            {
                "start_time": 5.970454545454545,
                "end_time": 6.154545454545454,
                "pitch": 79,
                "velocity": 25,
                "duration": 0.18409090909090953,
                "tempo": 120.0
            },
            {
                "start_time": 6.154545454545454,
                "end_time": 6.4409090909090905,
                "pitch": 79,
                "velocity": 25,
                "duration": 0.28636363636363615,
                "tempo": 120.0
            },
            {
                "start_time": 5.970454545454545,
                "end_time": 6.4409090909090905,
                "pitch": 91,
                "velocity": 25,
                "duration": 0.4704545454545457,
                "tempo": 120.0
            },
            {
                "start_time": 6.4409090909090905,
                "end_time": 6.574999999999999,
                "pitch": 79,
                "velocity": 25,
                "duration": 0.13409090909090882,
                "tempo": 120.0
            },
            {
                "start_time": 6.577272727272727,
                "end_time": 7.581818181818181,
                "pitch": 72,
                "velocity": 32,
                "duration": 1.004545454545454,
                "tempo": 120.0
            },
            {
                "start_time": 7.581818181818181,
                "end_time": 7.85,
                "pitch": 79,
                "velocity": 32,
                "duration": 0.2681818181818185,
                "tempo": 120.0
            },
            {
                "start_time": 6.4409090909090905,
                "end_time": 7.85,
                "pitch": 91,
                "velocity": 25,
                "duration": 1.4090909090909092,
                "tempo": 120.0
            },
            {
                "start_time": 6.154545454545454,
                "end_time": 8.036363636363635,
                "pitch": 0,
                "velocity": 25,
                "duration": 1.881818181818181,
                "tempo": 120.0
            },
            {
                "start_time": 7.85,
                "end_time": 8.036363636363635,
                "pitch": 79,
                "velocity": 32,
                "duration": 0.18636363636363562,
                "tempo": 120.0
            },
            {
                "start_time": 8.036363636363635,
                "end_time": 8.318181818181818,
                "pitch": 79,
                "velocity": 32,
                "duration": 0.2818181818181831,
                "tempo": 120.0
            },
            {
                "start_time": 7.85,
                "end_time": 8.318181818181818,
                "pitch": 91,
                "velocity": 32,
                "duration": 0.4681818181818187,
                "tempo": 120.0
            },
            {
                "start_time": 8.036363636363635,
                "end_time": 8.502272727272727,
                "pitch": 0,
                "velocity": 32,
                "duration": 0.4659090909090917,
                "tempo": 120.0
            },
            {
                "start_time": 8.318181818181818,
                "end_time": 8.502272727272727,
                "pitch": 79,
                "velocity": 32,
                "duration": 0.18409090909090864,
                "tempo": 120.0
            },
            {
                "start_time": 8.502272727272727,
                "end_time": 8.586363636363636,
                "pitch": 79,
                "velocity": 32,
                "duration": 0.084090909090909,
                "tempo": 120.0
            },
            {
                "start_time": 8.586363636363636,
                "end_time": 9.602272727272727,
                "pitch": 72,
                "velocity": 32,
                "duration": 1.0159090909090907,
                "tempo": 120.0
            },
            {
                "start_time": 9.602272727272727,
                "end_time": 9.738636363636363,
                "pitch": 79,
                "velocity": 32,
                "duration": 0.1363636363636367,
                "tempo": 120.0
            },
            {
                "start_time": 8.318181818181818,
                "end_time": 9.738636363636363,
                "pitch": 91,
                "velocity": 32,
                "duration": 1.420454545454545,
                "tempo": 120.0
            },
            {
                "start_time": 8.502272727272727,
                "end_time": 9.922727272727272,
                "pitch": 0,
                "velocity": 32,
                "duration": 1.420454545454545,
                "tempo": 120.0
            },
            {
                "start_time": 9.738636363636363,
                "end_time": 9.922727272727272,
                "pitch": 79,
                "velocity": 32,
                "duration": 0.18409090909090864,
                "tempo": 120.0
            },
            {
                "start_time": 9.922727272727272,
                "end_time": 10.206818181818182,
                "pitch": 79,
                "velocity": 32,
                "duration": 0.28409090909091006,
                "tempo": 120.0
            },
            {
                "start_time": 9.738636363636363,
                "end_time": 10.206818181818182,
                "pitch": 91,
                "velocity": 32,
                "duration": 0.4681818181818187,
                "tempo": 120.0
            },
            {
                "start_time": 9.922727272727272,
                "end_time": 10.39090909090909,
                "pitch": 0,
                "velocity": 32,
                "duration": 0.4681818181818187,
                "tempo": 120.0
            },
            {
                "start_time": 10.206818181818182,
                "end_time": 10.39090909090909,
                "pitch": 79,
                "velocity": 32,
                "duration": 0.18409090909090864,
                "tempo": 120.0
            },
            {
                "start_time": 10.39090909090909,
                "end_time": 10.60681818181818,
                "pitch": 79,
                "velocity": 32,
                "duration": 0.21590909090908994,
                "tempo": 120.0
            },
            {
                "start_time": 10.60681818181818,
                "end_time": 11.611363636363636,
                "pitch": 72,
                "velocity": 32,
                "duration": 1.0045454545454557,
                "tempo": 120.0
            },
            {
                "start_time": 10.206818181818182,
                "end_time": 11.611363636363636,
                "pitch": 91,
                "velocity": 32,
                "duration": 1.4045454545454543,
                "tempo": 120.0
            },
            {
                "start_time": 10.39090909090909,
                "end_time": 11.786363636363635,
                "pitch": 0,
                "velocity": 32,
                "duration": 1.3954545454545446,
                "tempo": 120.0
            },
            {
                "start_time": 11.611363636363636,
                "end_time": 11.786363636363635,
                "pitch": 79,
                "velocity": 32,
                "duration": 0.17499999999999893,
                "tempo": 120.0
            },
            {
                "start_time": 11.611363636363636,
                "end_time": 11.786363636363635,
                "pitch": 79,
                "velocity": 32,
                "duration": 0.17499999999999893,
                "tempo": 120.0
            },
            {
                "start_time": 11.786363636363635,
                "end_time": 12.056818181818182,
                "pitch": 79,
                "velocity": 32,
                "duration": 0.2704545454545464,
                "tempo": 120.0
            },
            {
                "start_time": 11.611363636363636,
                "end_time": 12.056818181818182,
                "pitch": 91,
                "velocity": 32,
                "duration": 0.4454545454545453,
                "tempo": 120.0
            },
            {
                "start_time": 11.786363636363635,
                "end_time": 12.238636363636363,
                "pitch": 0,
                "velocity": 32,
                "duration": 0.45227272727272805,
                "tempo": 120.0
            },
            {
                "start_time": 12.056818181818182,
                "end_time": 12.238636363636363,
                "pitch": 79,
                "velocity": 32,
                "duration": 0.18181818181818166,
                "tempo": 120.0
            },
            {
                "start_time": 12.238636363636363,
                "end_time": 12.543181818181818,
                "pitch": 79,
                "velocity": 32,
                "duration": 0.3045454545454547,
                "tempo": 120.0
            },
            {
                "start_time": 12.056818181818182,
                "end_time": 12.543181818181818,
                "pitch": 91,
                "velocity": 32,
                "duration": 0.48636363636363633,
                "tempo": 120.0
            },
            {
                "start_time": 12.543181818181818,
                "end_time": 12.61590909090909,
                "pitch": 79,
                "velocity": 32,
                "duration": 0.07272727272727231,
                "tempo": 120.0
            },
            {
                "start_time": 12.61590909090909,
                "end_time": 13.629545454545454,
                "pitch": 72,
                "velocity": 32,
                "duration": 1.0136363636363637,
                "tempo": 120.0
            },
            {
                "start_time": 12.543181818181818,
                "end_time": 13.629545454545454,
                "pitch": 91,
                "velocity": 32,
                "duration": 1.086363636363636,
                "tempo": 120.0
            },
            {
                "start_time": 12.238636363636363,
                "end_time": 13.679545454545455,
                "pitch": 0,
                "velocity": 32,
                "duration": 1.4409090909090914,
                "tempo": 120.0
            },
            {
                "start_time": 13.629545454545454,
                "end_time": 13.679545454545455,
                "pitch": 79,
                "velocity": 32,
                "duration": 0.05000000000000071,
                "tempo": 120.0
            },
            {
                "start_time": 13.629545454545454,
                "end_time": 13.679545454545455,
                "pitch": 79,
                "velocity": 32,
                "duration": 0.05000000000000071,
                "tempo": 120.0
            },
            {
                "start_time": 13.679545454545455,
                "end_time": 13.959090909090909,
                "pitch": 79,
                "velocity": 32,
                "duration": 0.2795454545454543,
                "tempo": 120.0
            },
            {
                "start_time": 13.629545454545454,
                "end_time": 13.959090909090909,
                "pitch": 91,
                "velocity": 32,
                "duration": 0.32954545454545503,
                "tempo": 120.0
            },
            {
                "start_time": 13.679545454545455,
                "end_time": 14.143181818181818,
                "pitch": 0,
                "velocity": 32,
                "duration": 0.46363636363636296,
                "tempo": 120.0
            },
            {
                "start_time": 13.959090909090909,
                "end_time": 14.143181818181818,
                "pitch": 79,
                "velocity": 32,
                "duration": 0.18409090909090864,
                "tempo": 120.0
            },
            {
                "start_time": 14.143181818181818,
                "end_time": 14.429545454545455,
                "pitch": 79,
                "velocity": 32,
                "duration": 0.28636363636363704,
                "tempo": 120.0
            },
            {
                "start_time": 13.959090909090909,
                "end_time": 14.429545454545455,
                "pitch": 91,
                "velocity": 32,
                "duration": 0.4704545454545457,
                "tempo": 120.0
            },
            {
                "start_time": 14.143181818181818,
                "end_time": 14.61590909090909,
                "pitch": 0,
                "velocity": 32,
                "duration": 0.47272727272727266,
                "tempo": 120.0
            },
            {
                "start_time": 14.429545454545455,
                "end_time": 14.61590909090909,
                "pitch": 79,
                "velocity": 32,
                "duration": 0.18636363636363562,
                "tempo": 120.0
            },
            {
                "start_time": 14.61590909090909,
                "end_time": 14.634090909090908,
                "pitch": 79,
                "velocity": 32,
                "duration": 0.018181818181817633,
                "tempo": 120.0
            },
            {
                "start_time": 14.634090909090908,
                "end_time": 15.645454545454545,
                "pitch": 72,
                "velocity": 32,
                "duration": 1.0113636363636367,
                "tempo": 120.0
            },
            {
                "start_time": 15.645454545454545,
                "end_time": 15.84090909090909,
                "pitch": 79,
                "velocity": 32,
                "duration": 0.19545454545454533,
                "tempo": 120.0
            },
            {
                "start_time": 14.429545454545455,
                "end_time": 15.84090909090909,
                "pitch": 91,
                "velocity": 32,
                "duration": 1.4113636363636353,
                "tempo": 120.0
            },
            {
                "start_time": 14.61590909090909,
                "end_time": 16.025,
                "pitch": 0,
                "velocity": 32,
                "duration": 1.4090909090909083,
                "tempo": 120.0
            },
            {
                "start_time": 15.84090909090909,
                "end_time": 16.025,
                "pitch": 79,
                "velocity": 32,
                "duration": 0.18409090909090864,
                "tempo": 120.0
            },
            {
                "start_time": 16.025,
                "end_time": 16.30909090909091,
                "pitch": 79,
                "velocity": 32,
                "duration": 0.28409090909091006,
                "tempo": 120.0
            },
            {
                "start_time": 15.84090909090909,
                "end_time": 16.30909090909091,
                "pitch": 91,
                "velocity": 32,
                "duration": 0.4681818181818187,
                "tempo": 120.0
            },
            {
                "start_time": 16.025,
                "end_time": 16.493181818181817,
                "pitch": 0,
                "velocity": 32,
                "duration": 0.4681818181818187,
                "tempo": 120.0
            },
            {
                "start_time": 16.30909090909091,
                "end_time": 16.493181818181817,
                "pitch": 79,
                "velocity": 32,
                "duration": 0.18409090909090864,
                "tempo": 120.0
            },
            {
                "start_time": 16.493181818181817,
                "end_time": 16.645454545454545,
                "pitch": 79,
                "velocity": 32,
                "duration": 0.15227272727272734,
                "tempo": 120.0
            },
            {
                "start_time": 16.647727272727273,
                "end_time": 17.65,
                "pitch": 72,
                "velocity": 32,
                "duration": 1.0022727272727252,
                "tempo": 120.0
            },
            {
                "start_time": 17.65,
                "end_time": 17.71818181818182,
                "pitch": 79,
                "velocity": 32,
                "duration": 0.06818181818182012,
                "tempo": 120.0
            },
            {
                "start_time": 16.30909090909091,
                "end_time": 17.71818181818182,
                "pitch": 91,
                "velocity": 32,
                "duration": 1.40909090909091,
                "tempo": 120.0
            },
            {
                "start_time": 16.493181818181817,
                "end_time": 17.904545454545453,
                "pitch": 0,
                "velocity": 32,
                "duration": 1.4113636363636353,
                "tempo": 120.0
            },
            {
                "start_time": 17.71818181818182,
                "end_time": 17.904545454545453,
                "pitch": 79,
                "velocity": 32,
                "duration": 0.18636363636363384,
                "tempo": 120.0
            },
            {
                "start_time": 17.904545454545453,
                "end_time": 18.195454545454545,
                "pitch": 79,
                "velocity": 32,
                "duration": 0.2909090909090928,
                "tempo": 120.0
            },
            {
                "start_time": 17.71818181818182,
                "end_time": 18.195454545454545,
                "pitch": 91,
                "velocity": 32,
                "duration": 0.4772727272727266,
                "tempo": 120.0
            },
            {
                "start_time": 17.904545454545453,
                "end_time": 18.379545454545454,
                "pitch": 0,
                "velocity": 32,
                "duration": 0.4750000000000014,
                "tempo": 120.0
            },
            {
                "start_time": 18.195454545454545,
                "end_time": 18.379545454545454,
                "pitch": 79,
                "velocity": 32,
                "duration": 0.18409090909090864,
                "tempo": 120.0
            },
            {
                "start_time": 18.379545454545454,
                "end_time": 18.668181818181818,
                "pitch": 79,
                "velocity": 32,
                "duration": 0.288636363636364,
                "tempo": 120.0
            },
            {
                "start_time": 18.195454545454545,
                "end_time": 18.668181818181818,
                "pitch": 91,
                "velocity": 32,
                "duration": 0.47272727272727266,
                "tempo": 120.0
            },
            {
                "start_time": 18.668181818181818,
                "end_time": 19.675,
                "pitch": 72,
                "velocity": 32,
                "duration": 1.0068181818181827,
                "tempo": 120.0
            },
            {
                "start_time": 18.668181818181818,
                "end_time": 19.675,
                "pitch": 79,
                "velocity": 32,
                "duration": 1.0068181818181827,
                "tempo": 120.0
            },
            {
                "start_time": 18.668181818181818,
                "end_time": 19.675,
                "pitch": 91,
                "velocity": 32,
                "duration": 1.0068181818181827,
                "tempo": 120.0
            },
            {
                "start_time": 18.379545454545454,
                "end_time": 19.788636363636364,
                "pitch": 0,
                "velocity": 32,
                "duration": 1.40909090909091,
                "tempo": 120.0
            },
            {
                "start_time": 19.675,
                "end_time": 19.788636363636364,
                "pitch": 79,
                "velocity": 32,
                "duration": 0.11363636363636331,
                "tempo": 120.0
            },
            {
                "start_time": 19.675,
                "end_time": 19.788636363636364,
                "pitch": 79,
                "velocity": 32,
                "duration": 0.11363636363636331,
                "tempo": 120.0
            },
            {
                "start_time": 19.788636363636364,
                "end_time": 20.070454545454545,
                "pitch": 79,
                "velocity": 32,
                "duration": 0.2818181818181813,
                "tempo": 120.0
            },
            {
                "start_time": 19.675,
                "end_time": 20.070454545454545,
                "pitch": 91,
                "velocity": 32,
                "duration": 0.3954545454545446,
                "tempo": 120.0
            },
            {
                "start_time": 19.788636363636364,
                "end_time": 20.254545454545454,
                "pitch": 0,
                "velocity": 32,
                "duration": 0.46590909090908994,
                "tempo": 120.0
            },
            {
                "start_time": 20.070454545454545,
                "end_time": 20.254545454545454,
                "pitch": 79,
                "velocity": 32,
                "duration": 0.18409090909090864,
                "tempo": 120.0
            },
            {
                "start_time": 20.254545454545454,
                "end_time": 20.538636363636364,
                "pitch": 79,
                "velocity": 32,
                "duration": 0.28409090909091006,
                "tempo": 120.0
            },
            {
                "start_time": 20.070454545454545,
                "end_time": 20.538636363636364,
                "pitch": 91,
                "velocity": 32,
                "duration": 0.4681818181818187,
                "tempo": 120.0
            },
            {
                "start_time": 20.538636363636364,
                "end_time": 20.672727272727272,
                "pitch": 79,
                "velocity": 32,
                "duration": 0.13409090909090793,
                "tempo": 120.0
            },
            {
                "start_time": 20.672727272727272,
                "end_time": 21.688636363636363,
                "pitch": 72,
                "velocity": 32,
                "duration": 1.0159090909090907,
                "tempo": 120.0
            },
            {
                "start_time": 21.69090909090909,
                "end_time": 21.959090909090907,
                "pitch": 79,
                "velocity": 32,
                "duration": 0.26818181818181586,
                "tempo": 120.0
            },
            {
                "start_time": 20.538636363636364,
                "end_time": 21.959090909090907,
                "pitch": 91,
                "velocity": 32,
                "duration": 1.4204545454545432,
                "tempo": 120.0
            },
            {
                "start_time": 20.254545454545454,
                "end_time": 22.145454545454545,
                "pitch": 0,
                "velocity": 32,
                "duration": 1.8909090909090907,
                "tempo": 120.0
            },
            {
                "start_time": 21.959090909090907,
                "end_time": 22.145454545454545,
                "pitch": 79,
                "velocity": 32,
                "duration": 0.1863636363636374,
                "tempo": 120.0
            },
            {
                "start_time": 22.145454545454545,
                "end_time": 22.43181818181818,
                "pitch": 79,
                "velocity": 32,
                "duration": 0.28636363636363527,
                "tempo": 120.0
            },
            {
                "start_time": 21.959090909090907,
                "end_time": 22.43181818181818,
                "pitch": 91,
                "velocity": 32,
                "duration": 0.47272727272727266,
                "tempo": 120.0
            },
            {
                "start_time": 22.145454545454545,
                "end_time": 22.61590909090909,
                "pitch": 0,
                "velocity": 32,
                "duration": 0.4704545454545439,
                "tempo": 120.0
            },
            {
                "start_time": 22.43181818181818,
                "end_time": 22.61590909090909,
                "pitch": 79,
                "velocity": 32,
                "duration": 0.18409090909090864,
                "tempo": 120.0
            },
            {
                "start_time": 22.61590909090909,
                "end_time": 22.69772727272727,
                "pitch": 79,
                "velocity": 32,
                "duration": 0.08181818181818201,
                "tempo": 120.0
            },
            {
                "start_time": 22.7,
                "end_time": 23.706818181818182,
                "pitch": 72,
                "velocity": 32,
                "duration": 1.0068181818181827,
                "tempo": 120.0
            },
            {
                "start_time": 23.706818181818182,
                "end_time": 23.83863636363636,
                "pitch": 79,
                "velocity": 32,
                "duration": 0.13181818181817917,
                "tempo": 120.0
            },
            {
                "start_time": 22.43181818181818,
                "end_time": 23.83863636363636,
                "pitch": 91,
                "velocity": 32,
                "duration": 1.4068181818181813,
                "tempo": 120.0
            },
            {
                "start_time": 22.61590909090909,
                "end_time": 24.02272727272727,
                "pitch": 0,
                "velocity": 32,
                "duration": 1.4068181818181813,
                "tempo": 120.0
            },
            {
                "start_time": 23.83863636363636,
                "end_time": 24.02272727272727,
                "pitch": 79,
                "velocity": 32,
                "duration": 0.18409090909090864,
                "tempo": 120.0
            },
            {
                "start_time": 24.02272727272727,
                "end_time": 24.30681818181818,
                "pitch": 79,
                "velocity": 32,
                "duration": 0.28409090909091006,
                "tempo": 120.0
            },
            {
                "start_time": 23.83863636363636,
                "end_time": 24.30681818181818,
                "pitch": 91,
                "velocity": 32,
                "duration": 0.4681818181818187,
                "tempo": 120.0
            },
            {
                "start_time": 24.02272727272727,
                "end_time": 24.495454545454546,
                "pitch": 0,
                "velocity": 32,
                "duration": 0.4727272727272762,
                "tempo": 120.0
            },
            {
                "start_time": 24.30681818181818,
                "end_time": 24.495454545454546,
                "pitch": 79,
                "velocity": 32,
                "duration": 0.18863636363636616,
                "tempo": 120.0
            },
            {
                "start_time": 24.495454545454546,
                "end_time": 24.71590909090909,
                "pitch": 79,
                "velocity": 32,
                "duration": 0.2204545454545439,
                "tempo": 120.0
            },
            {
                "start_time": 24.71590909090909,
                "end_time": 25.709090909090907,
                "pitch": 72,
                "velocity": 32,
                "duration": 0.9931818181818173,
                "tempo": 120.0
            },
            {
                "start_time": 24.30681818181818,
                "end_time": 25.709090909090907,
                "pitch": 91,
                "velocity": 32,
                "duration": 1.4022727272727273,
                "tempo": 120.0
            },
            {
                "start_time": 24.495454545454546,
                "end_time": 25.884090909090908,
                "pitch": 0,
                "velocity": 32,
                "duration": 1.388636363636362,
                "tempo": 120.0
            },
            {
                "start_time": 25.709090909090907,
                "end_time": 25.884090909090908,
                "pitch": 79,
                "velocity": 32,
                "duration": 0.1750000000000007,
                "tempo": 120.0
            },
            {
                "start_time": 25.709090909090907,
                "end_time": 25.884090909090908,
                "pitch": 79,
                "velocity": 32,
                "duration": 0.1750000000000007,
                "tempo": 120.0
            },
            {
                "start_time": 25.884090909090908,
                "end_time": 26.161363636363635,
                "pitch": 79,
                "velocity": 32,
                "duration": 0.27727272727272734,
                "tempo": 120.0
            },
            {
                "start_time": 25.709090909090907,
                "end_time": 26.161363636363635,
                "pitch": 91,
                "velocity": 32,
                "duration": 0.45227272727272805,
                "tempo": 120.0
            },
            {
                "start_time": 25.884090909090908,
                "end_time": 26.354545454545452,
                "pitch": 0,
                "velocity": 32,
                "duration": 0.4704545454545439,
                "tempo": 120.0
            },
            {
                "start_time": 26.161363636363635,
                "end_time": 26.354545454545452,
                "pitch": 79,
                "velocity": 32,
                "duration": 0.19318181818181657,
                "tempo": 120.0
            },
            {
                "start_time": 26.354545454545452,
                "end_time": 26.65,
                "pitch": 79,
                "velocity": 32,
                "duration": 0.29545454545454675,
                "tempo": 120.0
            },
            {
                "start_time": 26.161363636363635,
                "end_time": 26.65,
                "pitch": 91,
                "velocity": 32,
                "duration": 0.4886363636363633,
                "tempo": 120.0
            },
            {
                "start_time": 26.65,
                "end_time": 26.711363636363636,
                "pitch": 79,
                "velocity": 32,
                "duration": 0.0613636363636374,
                "tempo": 120.0
            },
            {
                "start_time": 26.711363636363636,
                "end_time": 27.68181818181818,
                "pitch": 72,
                "velocity": 32,
                "duration": 0.9704545454545439,
                "tempo": 120.0
            },
            {
                "start_time": 26.65,
                "end_time": 27.68409090909091,
                "pitch": 91,
                "velocity": 32,
                "duration": 1.03409090909091,
                "tempo": 120.0
            },
            {
                "start_time": 26.354545454545452,
                "end_time": 27.73409090909091,
                "pitch": 0,
                "velocity": 32,
                "duration": 1.3795454545454575,
                "tempo": 120.0
            },
            {
                "start_time": 27.68409090909091,
                "end_time": 27.73409090909091,
                "pitch": 79,
                "velocity": 32,
                "duration": 0.05000000000000071,
                "tempo": 120.0
            },
            {
                "start_time": 27.68409090909091,
                "end_time": 27.73409090909091,
                "pitch": 79,
                "velocity": 32,
                "duration": 0.05000000000000071,
                "tempo": 120.0
            },
            {
                "start_time": 27.73409090909091,
                "end_time": 28.025,
                "pitch": 79,
                "velocity": 32,
                "duration": 0.29090909090908923,
                "tempo": 120.0
            },
            {
                "start_time": 27.68409090909091,
                "end_time": 28.025,
                "pitch": 91,
                "velocity": 32,
                "duration": 0.34090909090908994,
                "tempo": 120.0
            },
            {
                "start_time": 27.73409090909091,
                "end_time": 28.21590909090909,
                "pitch": 0,
                "velocity": 32,
                "duration": 0.4818181818181806,
                "tempo": 120.0
            },
            {
                "start_time": 28.025,
                "end_time": 28.21590909090909,
                "pitch": 79,
                "velocity": 32,
                "duration": 0.19090909090909136,
                "tempo": 120.0
            },
            {
                "start_time": 28.21590909090909,
                "end_time": 28.509090909090908,
                "pitch": 79,
                "velocity": 32,
                "duration": 0.293181818181818,
                "tempo": 120.0
            },
            {
                "start_time": 28.025,
                "end_time": 28.511363636363637,
                "pitch": 91,
                "velocity": 32,
                "duration": 0.4863636363636381,
                "tempo": 120.0
            },
            {
                "start_time": 28.509090909090908,
                "end_time": 28.511363636363637,
                "pitch": 91,
                "velocity": 32,
                "duration": 0.0022727272727287584,
                "tempo": 120.0
            },
            {
                "start_time": 28.21590909090909,
                "end_time": 28.693181818181817,
                "pitch": 0,
                "velocity": 32,
                "duration": 0.4772727272727266,
                "tempo": 120.0
            },
            {
                "start_time": 28.511363636363637,
                "end_time": 28.693181818181817,
                "pitch": 79,
                "velocity": 32,
                "duration": 0.18181818181817988,
                "tempo": 120.0
            },
            {
                "start_time": 28.693181818181817,
                "end_time": 28.711363636363636,
                "pitch": 79,
                "velocity": 32,
                "duration": 0.01818181818181941,
                "tempo": 120.0
            },
            {
                "start_time": 28.711363636363636,
                "end_time": 29.743181818181817,
                "pitch": 72,
                "velocity": 32,
                "duration": 1.0318181818181813,
                "tempo": 120.0
            },
            {
                "start_time": 29.743181818181817,
                "end_time": 29.945454545454545,
                "pitch": 79,
                "velocity": 32,
                "duration": 0.20227272727272805,
                "tempo": 120.0
            },
            {
                "start_time": 28.693181818181817,
                "end_time": 30.13181818181818,
                "pitch": 0,
                "velocity": 32,
                "duration": 1.4386363636363626,
                "tempo": 120.0
            },
            {
                "start_time": 29.945454545454545,
                "end_time": 30.13181818181818,
                "pitch": 79,
                "velocity": 32,
                "duration": 0.18636363636363384,
                "tempo": 120.0
            },
            {
                "start_time": 30.13181818181818,
                "end_time": 30.418181818181818,
                "pitch": 79,
                "velocity": 32,
                "duration": 0.2863636363636388,
                "tempo": 120.0
            },
            {
                "start_time": 29.945454545454545,
                "end_time": 30.418181818181818,
                "pitch": 91,
                "velocity": 32,
                "duration": 0.47272727272727266,
                "tempo": 120.0
            },
            {
                "start_time": 30.13181818181818,
                "end_time": 30.602272727272727,
                "pitch": 0,
                "velocity": 32,
                "duration": 0.47045454545454746,
                "tempo": 120.0
            },
            {
                "start_time": 30.418181818181818,
                "end_time": 30.602272727272727,
                "pitch": 79,
                "velocity": 32,
                "duration": 0.18409090909090864,
                "tempo": 120.0
            },
            {
                "start_time": 30.602272727272727,
                "end_time": 30.754545454545454,
                "pitch": 79,
                "velocity": 32,
                "duration": 0.15227272727272734,
                "tempo": 120.0
            },
            {
                "start_time": 30.754545454545454,
                "end_time": 31.761363636363633,
                "pitch": 72,
                "velocity": 32,
                "duration": 1.0068181818181792,
                "tempo": 120.0
            },
            {
                "start_time": 31.761363636363633,
                "end_time": 31.827272727272724,
                "pitch": 79,
                "velocity": 32,
                "duration": 0.06590909090909136,
                "tempo": 120.0
            },
            {
                "start_time": 30.418181818181818,
                "end_time": 31.827272727272724,
                "pitch": 91,
                "velocity": 32,
                "duration": 1.4090909090909065,
                "tempo": 120.0
            },
            {
                "start_time": 30.602272727272727,
                "end_time": 32.013636363636365,
                "pitch": 0,
                "velocity": 32,
                "duration": 1.4113636363636388,
                "tempo": 120.0
            },
            {
                "start_time": 31.827272727272724,
                "end_time": 32.013636363636365,
                "pitch": 79,
                "velocity": 32,
                "duration": 0.18636363636364095,
                "tempo": 120.0
            },
            {
                "start_time": 32.013636363636365,
                "end_time": 32.29772727272727,
                "pitch": 79,
                "velocity": 32,
                "duration": 0.2840909090909065,
                "tempo": 120.0
            },
            {
                "start_time": 31.827272727272724,
                "end_time": 32.29772727272727,
                "pitch": 91,
                "velocity": 32,
                "duration": 0.47045454545454746,
                "tempo": 120.0
            },
            {
                "start_time": 32.013636363636365,
                "end_time": 32.48181818181818,
                "pitch": 0,
                "velocity": 32,
                "duration": 0.4681818181818116,
                "tempo": 120.0
            },
            {
                "start_time": 32.29772727272727,
                "end_time": 32.48181818181818,
                "pitch": 79,
                "velocity": 32,
                "duration": 0.18409090909090509,
                "tempo": 120.0
            },
            {
                "start_time": 32.48181818181818,
                "end_time": 32.76590909090909,
                "pitch": 79,
                "velocity": 32,
                "duration": 0.2840909090909136,
                "tempo": 120.0
            },
            {
                "start_time": 32.29772727272727,
                "end_time": 32.76590909090909,
                "pitch": 91,
                "velocity": 32,
                "duration": 0.4681818181818187,
                "tempo": 120.0
            },
            {
                "start_time": 32.76590909090909,
                "end_time": 33.78636363636363,
                "pitch": 72,
                "velocity": 32,
                "duration": 1.020454545454541,
                "tempo": 120.0
            },
            {
                "start_time": 32.76590909090909,
                "end_time": 33.788636363636364,
                "pitch": 79,
                "velocity": 32,
                "duration": 1.0227272727272734,
                "tempo": 120.0
            },
            {
                "start_time": 32.76590909090909,
                "end_time": 33.788636363636364,
                "pitch": 91,
                "velocity": 32,
                "duration": 1.0227272727272734,
                "tempo": 120.0
            },
            {
                "start_time": 32.48181818181818,
                "end_time": 33.902272727272724,
                "pitch": 0,
                "velocity": 32,
                "duration": 1.4204545454545467,
                "tempo": 120.0
            },
            {
                "start_time": 33.788636363636364,
                "end_time": 33.902272727272724,
                "pitch": 79,
                "velocity": 32,
                "duration": 0.11363636363635976,
                "tempo": 120.0
            },
            {
                "start_time": 33.788636363636364,
                "end_time": 33.902272727272724,
                "pitch": 79,
                "velocity": 32,
                "duration": 0.11363636363635976,
                "tempo": 120.0
            },
            {
                "start_time": 33.902272727272724,
                "end_time": 34.18636363636364,
                "pitch": 79,
                "velocity": 32,
                "duration": 0.2840909090909136,
                "tempo": 120.0
            },
            {
                "start_time": 33.788636363636364,
                "end_time": 34.18636363636364,
                "pitch": 91,
                "velocity": 32,
                "duration": 0.3977272727272734,
                "tempo": 120.0
            },
            {
                "start_time": 33.902272727272724,
                "end_time": 34.37045454545454,
                "pitch": 0,
                "velocity": 32,
                "duration": 0.4681818181818187,
                "tempo": 120.0
            },
            {
                "start_time": 34.18636363636364,
                "end_time": 34.37045454545454,
                "pitch": 79,
                "velocity": 32,
                "duration": 0.18409090909090509,
                "tempo": 120.0
            },
            {
                "start_time": 34.37045454545454,
                "end_time": 34.65,
                "pitch": 79,
                "velocity": 32,
                "duration": 0.2795454545454561,
                "tempo": 120.0
            },
            {
                "start_time": 34.18636363636364,
                "end_time": 34.65,
                "pitch": 91,
                "velocity": 32,
                "duration": 0.4636363636363612,
                "tempo": 120.0
            },
            {
                "start_time": 34.65,
                "end_time": 34.779545454545456,
                "pitch": 79,
                "velocity": 32,
                "duration": 0.12954545454545752,
                "tempo": 120.0
            },
            {
                "start_time": 34.779545454545456,
                "end_time": 35.79545454545455,
                "pitch": 72,
                "velocity": 32,
                "duration": 1.0159090909090907,
                "tempo": 120.0
            },
            {
                "start_time": 35.79545454545455,
                "end_time": 36.06363636363636,
                "pitch": 79,
                "velocity": 32,
                "duration": 0.26818181818181586,
                "tempo": 120.0
            },
            {
                "start_time": 34.65,
                "end_time": 36.06363636363636,
                "pitch": 91,
                "velocity": 32,
                "duration": 1.413636363636364,
                "tempo": 120.0
            },
            {
                "start_time": 34.37045454545454,
                "end_time": 36.25,
                "pitch": 0,
                "velocity": 32,
                "duration": 1.8795454545454575,
                "tempo": 120.0
            },
            {
                "start_time": 36.06363636363636,
                "end_time": 36.25,
                "pitch": 79,
                "velocity": 32,
                "duration": 0.1863636363636374,
                "tempo": 120.0
            },
            {
                "start_time": 36.25,
                "end_time": 36.53636363636363,
                "pitch": 79,
                "velocity": 32,
                "duration": 0.2863636363636317,
                "tempo": 120.0
            },
            {
                "start_time": 36.06363636363636,
                "end_time": 36.53636363636363,
                "pitch": 91,
                "velocity": 32,
                "duration": 0.4727272727272691,
                "tempo": 120.0
            },
            {
                "start_time": 36.25,
                "end_time": 36.72272727272727,
                "pitch": 0,
                "velocity": 32,
                "duration": 0.4727272727272691,
                "tempo": 120.0
            },
            {
                "start_time": 36.53636363636363,
                "end_time": 36.72272727272727,
                "pitch": 79,
                "velocity": 32,
                "duration": 0.1863636363636374,
                "tempo": 120.0
            },
            {
                "start_time": 36.72272727272727,
                "end_time": 36.80681818181818,
                "pitch": 79,
                "velocity": 32,
                "duration": 0.08409090909091077,
                "tempo": 120.0
            },
            {
                "start_time": 36.80681818181818,
                "end_time": 37.81136363636364,
                "pitch": 72,
                "velocity": 32,
                "duration": 1.0045454545454575,
                "tempo": 120.0
            },
            {
                "start_time": 37.81136363636364,
                "end_time": 37.945454545454545,
                "pitch": 79,
                "velocity": 32,
                "duration": 0.13409090909090793,
                "tempo": 120.0
            },
            {
                "start_time": 36.53636363636363,
                "end_time": 37.94772727272727,
                "pitch": 91,
                "velocity": 32,
                "duration": 1.4113636363636388,
                "tempo": 120.0
            },
            {
                "start_time": 37.945454545454545,
                "end_time": 37.94772727272727,
                "pitch": 91,
                "velocity": 32,
                "duration": 0.0022727272727252057,
                "tempo": 120.0
            },
            {
                "start_time": 36.72272727272727,
                "end_time": 38.13181818181818,
                "pitch": 0,
                "velocity": 32,
                "duration": 1.4090909090909136,
                "tempo": 120.0
            },
            {
                "start_time": 37.94772727272727,
                "end_time": 38.13181818181818,
                "pitch": 79,
                "velocity": 32,
                "duration": 0.1840909090909122,
                "tempo": 120.0
            },
            {
                "start_time": 38.13181818181818,
                "end_time": 38.418181818181814,
                "pitch": 79,
                "velocity": 32,
                "duration": 0.2863636363636317,
                "tempo": 120.0
            },
            {
                "start_time": 38.13181818181818,
                "end_time": 38.60454545454545,
                "pitch": 0,
                "velocity": 32,
                "duration": 0.4727272727272691,
                "tempo": 120.0
            },
            {
                "start_time": 38.418181818181814,
                "end_time": 38.60454545454545,
                "pitch": 79,
                "velocity": 32,
                "duration": 0.1863636363636374,
                "tempo": 120.0
            },
            {
                "start_time": 38.60454545454545,
                "end_time": 38.82272727272727,
                "pitch": 79,
                "velocity": 32,
                "duration": 0.2181818181818187,
                "tempo": 120.0
            },
            {
                "start_time": 38.82272727272727,
                "end_time": 39.83181818181818,
                "pitch": 72,
                "velocity": 32,
                "duration": 1.009090909090908,
                "tempo": 120.0
            },
            {
                "start_time": 38.418181818181814,
                "end_time": 39.83181818181818,
                "pitch": 91,
                "velocity": 32,
                "duration": 1.413636363636364,
                "tempo": 120.0
            },
            {
                "start_time": 38.60454545454545,
                "end_time": 40.01363636363636,
                "pitch": 0,
                "velocity": 32,
                "duration": 1.4090909090909065,
                "tempo": 120.0
            },
            {
                "start_time": 39.83181818181818,
                "end_time": 40.01363636363636,
                "pitch": 79,
                "velocity": 32,
                "duration": 0.18181818181817988,
                "tempo": 120.0
            },
            {
                "start_time": 39.83181818181818,
                "end_time": 40.01363636363636,
                "pitch": 79,
                "velocity": 32,
                "duration": 0.18181818181817988,
                "tempo": 120.0
            },
            {
                "start_time": 40.01363636363636,
                "end_time": 40.30227272727272,
                "pitch": 79,
                "velocity": 32,
                "duration": 0.288636363636364,
                "tempo": 120.0
            },
            {
                "start_time": 39.83181818181818,
                "end_time": 40.30227272727272,
                "pitch": 91,
                "velocity": 32,
                "duration": 0.4704545454545439,
                "tempo": 120.0
            },
            {
                "start_time": 40.01363636363636,
                "end_time": 40.49090909090909,
                "pitch": 0,
                "velocity": 32,
                "duration": 0.47727272727273373,
                "tempo": 120.0
            },
            {
                "start_time": 40.30227272727272,
                "end_time": 40.49090909090909,
                "pitch": 79,
                "velocity": 32,
                "duration": 0.1886363636363697,
                "tempo": 120.0
            },
            {
                "start_time": 40.49090909090909,
                "end_time": 40.777272727272724,
                "pitch": 79,
                "velocity": 32,
                "duration": 0.2863636363636317,
                "tempo": 120.0
            },
            {
                "start_time": 40.30227272727272,
                "end_time": 40.777272727272724,
                "pitch": 91,
                "velocity": 32,
                "duration": 0.4750000000000014,
                "tempo": 120.0
            },
            {
                "start_time": 40.777272727272724,
                "end_time": 40.84318181818182,
                "pitch": 79,
                "velocity": 32,
                "duration": 0.06590909090909491,
                "tempo": 120.0
            },
            {
                "start_time": 40.845454545454544,
                "end_time": 41.86818181818182,
                "pitch": 72,
                "velocity": 32,
                "duration": 1.0227272727272734,
                "tempo": 120.0
            },
            {
                "start_time": 40.777272727272724,
                "end_time": 41.87045454545454,
                "pitch": 91,
                "velocity": 32,
                "duration": 1.0931818181818187,
                "tempo": 120.0
            },
            {
                "start_time": 40.49090909090909,
                "end_time": 41.918181818181814,
                "pitch": 0,
                "velocity": 32,
                "duration": 1.4272727272727224,
                "tempo": 120.0
            },
            {
                "start_time": 41.87045454545454,
                "end_time": 41.918181818181814,
                "pitch": 79,
                "velocity": 32,
                "duration": 0.04772727272727195,
                "tempo": 120.0
            },
            {
                "start_time": 41.87045454545454,
                "end_time": 41.918181818181814,
                "pitch": 79,
                "velocity": 32,
                "duration": 0.04772727272727195,
                "tempo": 120.0
            },
            {
                "start_time": 41.918181818181814,
                "end_time": 42.19318181818181,
                "pitch": 79,
                "velocity": 32,
                "duration": 0.2749999999999986,
                "tempo": 120.0
            },
            {
                "start_time": 41.87045454545454,
                "end_time": 42.19318181818181,
                "pitch": 91,
                "velocity": 32,
                "duration": 0.32272727272727053,
                "tempo": 120.0
            },
            {
                "start_time": 41.918181818181814,
                "end_time": 42.37045454545454,
                "pitch": 0,
                "velocity": 32,
                "duration": 0.45227272727272805,
                "tempo": 120.0
            },
            {
                "start_time": 42.19318181818181,
                "end_time": 42.37045454545454,
                "pitch": 79,
                "velocity": 32,
                "duration": 0.17727272727272947,
                "tempo": 120.0
            },
            {
                "start_time": 42.37045454545454,
                "end_time": 42.65454545454545,
                "pitch": 79,
                "velocity": 32,
                "duration": 0.2840909090909065,
                "tempo": 120.0
            },
            {
                "start_time": 42.19318181818181,
                "end_time": 42.65454545454545,
                "pitch": 91,
                "velocity": 32,
                "duration": 0.461363636363636,
                "tempo": 120.0
            },
            {
                "start_time": 42.37045454545454,
                "end_time": 42.840909090909086,
                "pitch": 0,
                "velocity": 32,
                "duration": 0.4704545454545439,
                "tempo": 120.0
            },
            {
                "start_time": 42.65454545454545,
                "end_time": 42.840909090909086,
                "pitch": 79,
                "velocity": 32,
                "duration": 0.1863636363636374,
                "tempo": 120.0
            },
            {
                "start_time": 42.840909090909086,
                "end_time": 42.85681818181818,
                "pitch": 79,
                "velocity": 32,
                "duration": 0.01590909090909065,
                "tempo": 120.0
            },
            {
                "start_time": 42.85681818181818,
                "end_time": 43.86590909090909,
                "pitch": 72,
                "velocity": 32,
                "duration": 1.009090909090915,
                "tempo": 120.0
            },
            {
                "start_time": 43.86590909090909,
                "end_time": 44.06590909090909,
                "pitch": 79,
                "velocity": 32,
                "duration": 0.19999999999999574,
                "tempo": 120.0
            },
            {
                "start_time": 42.65454545454545,
                "end_time": 44.06590909090909,
                "pitch": 91,
                "velocity": 32,
                "duration": 1.4113636363636388,
                "tempo": 120.0
            },
            {
                "start_time": 42.840909090909086,
                "end_time": 44.25,
                "pitch": 0,
                "velocity": 32,
                "duration": 1.4090909090909136,
                "tempo": 120.0
            },
            {
                "start_time": 44.06590909090909,
                "end_time": 44.25,
                "pitch": 79,
                "velocity": 32,
                "duration": 0.1840909090909122,
                "tempo": 120.0
            },
            {
                "start_time": 44.25,
                "end_time": 44.53636363636363,
                "pitch": 79,
                "velocity": 32,
                "duration": 0.2863636363636317,
                "tempo": 120.0
            },
            {
                "start_time": 44.06590909090909,
                "end_time": 44.53636363636363,
                "pitch": 91,
                "velocity": 32,
                "duration": 0.4704545454545439,
                "tempo": 120.0
            },
            {
                "start_time": 44.25,
                "end_time": 44.72272727272727,
                "pitch": 0,
                "velocity": 32,
                "duration": 0.4727272727272691,
                "tempo": 120.0
            },
            {
                "start_time": 44.53636363636363,
                "end_time": 44.72272727272727,
                "pitch": 79,
                "velocity": 32,
                "duration": 0.1863636363636374,
                "tempo": 120.0
            },
            {
                "start_time": 44.72272727272727,
                "end_time": 44.875,
                "pitch": 79,
                "velocity": 32,
                "duration": 0.1522727272727309,
                "tempo": 120.0
            },
            {
                "start_time": 44.875,
                "end_time": 45.88636363636363,
                "pitch": 72,
                "velocity": 32,
                "duration": 1.0113636363636331,
                "tempo": 120.0
            },
            {
                "start_time": 45.88636363636363,
                "end_time": 45.95227272727273,
                "pitch": 79,
                "velocity": 32,
                "duration": 0.06590909090909491,
                "tempo": 120.0
            },
            {
                "start_time": 44.53636363636363,
                "end_time": 45.95227272727273,
                "pitch": 91,
                "velocity": 32,
                "duration": 1.4159090909090963,
                "tempo": 120.0
            },
            {
                "start_time": 44.72272727272727,
                "end_time": 46.13863636363636,
                "pitch": 0,
                "velocity": 32,
                "duration": 1.4159090909090892,
                "tempo": 120.0
            },
            {
                "start_time": 45.95227272727273,
                "end_time": 46.13863636363636,
                "pitch": 79,
                "velocity": 32,
                "duration": 0.1863636363636303,
                "tempo": 120.0
            },
            {
                "start_time": 46.13863636363636,
                "end_time": 46.425,
                "pitch": 79,
                "velocity": 32,
                "duration": 0.2863636363636388,
                "tempo": 120.0
            },
            {
                "start_time": 45.95227272727273,
                "end_time": 46.425,
                "pitch": 91,
                "velocity": 32,
                "duration": 0.4727272727272691,
                "tempo": 120.0
            },
            {
                "start_time": 46.13863636363636,
                "end_time": 46.611363636363635,
                "pitch": 0,
                "velocity": 32,
                "duration": 0.4727272727272762,
                "tempo": 120.0
            },
            {
                "start_time": 46.425,
                "end_time": 46.611363636363635,
                "pitch": 79,
                "velocity": 32,
                "duration": 0.1863636363636374,
                "tempo": 120.0
            },
            {
                "start_time": 46.611363636363635,
                "end_time": 46.89545454545454,
                "pitch": 79,
                "velocity": 32,
                "duration": 0.2840909090909065,
                "tempo": 120.0
            },
            {
                "start_time": 46.425,
                "end_time": 46.89545454545454,
                "pitch": 91,
                "velocity": 32,
                "duration": 0.4704545454545439,
                "tempo": 120.0
            },
            {
                "start_time": 46.89545454545454,
                "end_time": 47.902272727272724,
                "pitch": 72,
                "velocity": 32,
                "duration": 1.0068181818181827,
                "tempo": 120.0
            },
            {
                "start_time": 46.89545454545454,
                "end_time": 47.902272727272724,
                "pitch": 79,
                "velocity": 32,
                "duration": 1.0068181818181827,
                "tempo": 120.0
            },
            {
                "start_time": 46.89545454545454,
                "end_time": 47.902272727272724,
                "pitch": 91,
                "velocity": 32,
                "duration": 1.0068181818181827,
                "tempo": 120.0
            },
            {
                "start_time": 46.611363636363635,
                "end_time": 48.02045454545454,
                "pitch": 0,
                "velocity": 32,
                "duration": 1.4090909090909065,
                "tempo": 120.0
            },
            {
                "start_time": 47.902272727272724,
                "end_time": 48.02045454545454,
                "pitch": 79,
                "velocity": 32,
                "duration": 0.11818181818181728,
                "tempo": 120.0
            },
            {
                "start_time": 47.902272727272724,
                "end_time": 48.02045454545454,
                "pitch": 79,
                "velocity": 32,
                "duration": 0.11818181818181728,
                "tempo": 120.0
            },
            {
                "start_time": 48.02045454545454,
                "end_time": 48.31136363636364,
                "pitch": 79,
                "velocity": 32,
                "duration": 0.29090909090909634,
                "tempo": 120.0
            },
            {
                "start_time": 47.902272727272724,
                "end_time": 48.31136363636364,
                "pitch": 91,
                "velocity": 32,
                "duration": 0.4090909090909136,
                "tempo": 120.0
            },
            {
                "start_time": 48.02045454545454,
                "end_time": 48.5,
                "pitch": 0,
                "velocity": 32,
                "duration": 0.47954545454545894,
                "tempo": 120.0
            },
            {
                "start_time": 48.31136363636364,
                "end_time": 48.5,
                "pitch": 79,
                "velocity": 32,
                "duration": 0.1886363636363626,
                "tempo": 120.0
            },
            {
                "start_time": 48.5,
                "end_time": 48.78409090909091,
                "pitch": 79,
                "velocity": 32,
                "duration": 0.2840909090909065,
                "tempo": 120.0
            },
            {
                "start_time": 48.31136363636364,
                "end_time": 48.78409090909091,
                "pitch": 91,
                "velocity": 32,
                "duration": 0.4727272727272691,
                "tempo": 120.0
            },
            {
                "start_time": 48.78409090909091,
                "end_time": 48.92045454545454,
                "pitch": 79,
                "velocity": 32,
                "duration": 0.13636363636363313,
                "tempo": 120.0
            },
            {
                "start_time": 48.92045454545454,
                "end_time": 49.93181818181818,
                "pitch": 72,
                "velocity": 32,
                "duration": 1.0113636363636402,
                "tempo": 120.0
            },
            {
                "start_time": 49.93181818181818,
                "end_time": 50.199999999999996,
                "pitch": 79,
                "velocity": 32,
                "duration": 0.26818181818181586,
                "tempo": 120.0
            },
            {
                "start_time": 48.78409090909091,
                "end_time": 50.199999999999996,
                "pitch": 91,
                "velocity": 32,
                "duration": 1.4159090909090892,
                "tempo": 120.0
            },
            {
                "start_time": 48.5,
                "end_time": 50.38636363636363,
                "pitch": 0,
                "velocity": 32,
                "duration": 1.8863636363636331,
                "tempo": 120.0
            },
            {
                "start_time": 50.199999999999996,
                "end_time": 50.38636363636363,
                "pitch": 79,
                "velocity": 32,
                "duration": 0.1863636363636374,
                "tempo": 120.0
            },
            {
                "start_time": 50.38636363636363,
                "end_time": 50.67272727272727,
                "pitch": 79,
                "velocity": 32,
                "duration": 0.2863636363636388,
                "tempo": 120.0
            },
            {
                "start_time": 50.199999999999996,
                "end_time": 50.67272727272727,
                "pitch": 91,
                "velocity": 32,
                "duration": 0.4727272727272762,
                "tempo": 120.0
            },
            {
                "start_time": 50.38636363636363,
                "end_time": 50.85909090909091,
                "pitch": 0,
                "velocity": 32,
                "duration": 0.4727272727272762,
                "tempo": 120.0
            },
            {
                "start_time": 50.67272727272727,
                "end_time": 50.85909090909091,
                "pitch": 79,
                "velocity": 32,
                "duration": 0.1863636363636374,
                "tempo": 120.0
            },
            {
                "start_time": 50.85909090909091,
                "end_time": 50.94318181818181,
                "pitch": 79,
                "velocity": 32,
                "duration": 0.08409090909090366,
                "tempo": 120.0
            },
            {
                "start_time": 50.94318181818181,
                "end_time": 51.30681818181818,
                "pitch": 72,
                "velocity": 32,
                "duration": 0.36363636363636687,
                "tempo": 120.0
            }
        ],
        "Acoustic Bass": [
            {
                "start_time": 12.706818181818182,
                "end_time": 13.595454545454546,
                "pitch": 50,
                "velocity": 80,
                "duration": 0.8886363636363637,
                "tempo": 120.0
            },
            {
                "start_time": 13.597727272727273,
                "end_time": 13.661363636363635,
                "pitch": 46,
                "velocity": 80,
                "duration": 0.0636363636363626,
                "tempo": 120.0
            },
            {
                "start_time": 13.679545454545455,
                "end_time": 13.745454545454544,
                "pitch": 45,
                "velocity": 80,
                "duration": 0.06590909090908958,
                "tempo": 120.0
            },
            {
                "start_time": 13.761363636363635,
                "end_time": 13.827272727272726,
                "pitch": 43,
                "velocity": 80,
                "duration": 0.06590909090909136,
                "tempo": 120.0
            },
            {
                "start_time": 13.845454545454544,
                "end_time": 13.909090909090908,
                "pitch": 40,
                "velocity": 80,
                "duration": 0.06363636363636438,
                "tempo": 120.0
            },
            {
                "start_time": 13.927272727272726,
                "end_time": 13.993181818181817,
                "pitch": 39,
                "velocity": 80,
                "duration": 0.06590909090909136,
                "tempo": 120.0
            },
            {
                "start_time": 14.011363636363635,
                "end_time": 14.649999999999999,
                "pitch": 38,
                "velocity": 80,
                "duration": 0.6386363636363637,
                "tempo": 120.0
            },
            {
                "start_time": 14.649999999999999,
                "end_time": 14.929545454545455,
                "pitch": 36,
                "velocity": 80,
                "duration": 0.2795454545454561,
                "tempo": 120.0
            },
            {
                "start_time": 14.929545454545455,
                "end_time": 16.936363636363634,
                "pitch": 38,
                "velocity": 80,
                "duration": 2.006818181818179,
                "tempo": 120.0
            },
            {
                "start_time": 16.936363636363634,
                "end_time": 17.534090909090907,
                "pitch": 36,
                "velocity": 80,
                "duration": 0.5977272727272727,
                "tempo": 120.0
            },
            {
                "start_time": 17.534090909090907,
                "end_time": 19.054545454545455,
                "pitch": 38,
                "velocity": 80,
                "duration": 1.5204545454545482,
                "tempo": 120.0
            },
            {
                "start_time": 19.054545454545455,
                "end_time": 19.19090909090909,
                "pitch": 43,
                "velocity": 80,
                "duration": 0.1363636363636367,
                "tempo": 120.0
            },
            {
                "start_time": 19.224999999999998,
                "end_time": 19.35909090909091,
                "pitch": 42,
                "velocity": 80,
                "duration": 0.13409090909091148,
                "tempo": 120.0
            },
            {
                "start_time": 19.393181818181816,
                "end_time": 19.525,
                "pitch": 41,
                "velocity": 80,
                "duration": 0.13181818181818272,
                "tempo": 120.0
            },
            {
                "start_time": 19.55909090909091,
                "end_time": 20.054545454545455,
                "pitch": 38,
                "velocity": 80,
                "duration": 0.49545454545454604,
                "tempo": 120.0
            },
            {
                "start_time": 20.054545454545455,
                "end_time": 20.554545454545455,
                "pitch": 36,
                "velocity": 80,
                "duration": 0.5,
                "tempo": 120.0
            },
            {
                "start_time": 20.554545454545455,
                "end_time": 22.581818181818182,
                "pitch": 38,
                "velocity": 80,
                "duration": 2.0272727272727273,
                "tempo": 120.0
            },
            {
                "start_time": 22.581818181818182,
                "end_time": 23.58863636363636,
                "pitch": 39,
                "velocity": 80,
                "duration": 1.0068181818181792,
                "tempo": 120.0
            },
            {
                "start_time": 23.58863636363636,
                "end_time": 24.09090909090909,
                "pitch": 36,
                "velocity": 80,
                "duration": 0.5022727272727288,
                "tempo": 120.0
            },
            {
                "start_time": 24.09090909090909,
                "end_time": 25.91590909090909,
                "pitch": 38,
                "velocity": 80,
                "duration": 1.8249999999999993,
                "tempo": 120.0
            },
            {
                "start_time": 25.91590909090909,
                "end_time": 26.161363636363635,
                "pitch": 26,
                "velocity": 101,
                "duration": 0.24545454545454604,
                "tempo": 120.0
            },
            {
                "start_time": 26.318181818181817,
                "end_time": 26.579545454545453,
                "pitch": 26,
                "velocity": 101,
                "duration": 0.2613636363636367,
                "tempo": 120.0
            },
            {
                "start_time": 28.043181818181818,
                "end_time": 28.304545454545455,
                "pitch": 26,
                "velocity": 101,
                "duration": 0.2613636363636367,
                "tempo": 120.0
            },
            {
                "start_time": 28.461363636363636,
                "end_time": 28.711363636363636,
                "pitch": 26,
                "velocity": 101,
                "duration": 0.25,
                "tempo": 120.0
            },
            {
                "start_time": 30.23181818181818,
                "end_time": 30.486363636363635,
                "pitch": 26,
                "velocity": 101,
                "duration": 0.25454545454545396,
                "tempo": 120.0
            },
            {
                "start_time": 30.636363636363633,
                "end_time": 30.89090909090909,
                "pitch": 26,
                "velocity": 101,
                "duration": 0.2545454545454575,
                "tempo": 120.0
            },
            {
                "start_time": 32.38181818181818,
                "end_time": 32.63181818181818,
                "pitch": 26,
                "velocity": 101,
                "duration": 0.25,
                "tempo": 120.0
            },
            {
                "start_time": 32.78409090909091,
                "end_time": 33.043181818181814,
                "pitch": 26,
                "velocity": 101,
                "duration": 0.25909090909090793,
                "tempo": 120.0
            },
            {
                "start_time": 34.53636363636363,
                "end_time": 37.89545454545454,
                "pitch": 26,
                "velocity": 101,
                "duration": 3.3590909090909093,
                "tempo": 120.0
            },
            {
                "start_time": 37.89545454545454,
                "end_time": 41.26136363636363,
                "pitch": 26,
                "velocity": 101,
                "duration": 3.365909090909092,
                "tempo": 120.0
            },
            {
                "start_time": 41.26136363636363,
                "end_time": 43.934090909090905,
                "pitch": 26,
                "velocity": 101,
                "duration": 2.672727272727272,
                "tempo": 120.0
            },
            {
                "start_time": 43.934090909090905,
                "end_time": 43.949999999999996,
                "pitch": 26,
                "velocity": 4,
                "duration": 0.01590909090909065,
                "tempo": 120.0
            }
        ],
        "Electric Piano 1": [
            {
                "start_time": 6.831818181818181,
                "end_time": 9.46590909090909,
                "pitch": 69,
                "velocity": 10,
                "duration": 2.634090909090909,
                "tempo": 120.0
            },
            {
                "start_time": 9.46590909090909,
                "end_time": 9.636363636363637,
                "pitch": 67,
                "velocity": 10,
                "duration": 0.17045454545454675,
                "tempo": 120.0
            },
            {
                "start_time": 9.46590909090909,
                "end_time": 9.636363636363637,
                "pitch": 79,
                "velocity": 10,
                "duration": 0.17045454545454675,
                "tempo": 120.0
            },
            {
                "start_time": 9.636363636363637,
                "end_time": 9.806818181818182,
                "pitch": 67,
                "velocity": 10,
                "duration": 0.17045454545454497,
                "tempo": 120.0
            },
            {
                "start_time": 9.636363636363637,
                "end_time": 9.806818181818182,
                "pitch": 79,
                "velocity": 10,
                "duration": 0.17045454545454497,
                "tempo": 120.0
            },
            {
                "start_time": 9.806818181818182,
                "end_time": 9.972727272727273,
                "pitch": 67,
                "velocity": 10,
                "duration": 0.165909090909091,
                "tempo": 120.0
            },
            {
                "start_time": 9.806818181818182,
                "end_time": 9.972727272727273,
                "pitch": 79,
                "velocity": 10,
                "duration": 0.165909090909091,
                "tempo": 120.0
            },
            {
                "start_time": 9.972727272727273,
                "end_time": 10.14090909090909,
                "pitch": 67,
                "velocity": 10,
                "duration": 0.168181818181818,
                "tempo": 120.0
            },
            {
                "start_time": 9.972727272727273,
                "end_time": 10.14090909090909,
                "pitch": 79,
                "velocity": 10,
                "duration": 0.168181818181818,
                "tempo": 120.0
            },
            {
                "start_time": 10.14090909090909,
                "end_time": 10.306818181818182,
                "pitch": 67,
                "velocity": 10,
                "duration": 0.165909090909091,
                "tempo": 120.0
            },
            {
                "start_time": 10.14090909090909,
                "end_time": 10.306818181818182,
                "pitch": 79,
                "velocity": 10,
                "duration": 0.165909090909091,
                "tempo": 120.0
            },
            {
                "start_time": 10.306818181818182,
                "end_time": 10.475,
                "pitch": 67,
                "velocity": 10,
                "duration": 0.168181818181818,
                "tempo": 120.0
            },
            {
                "start_time": 10.306818181818182,
                "end_time": 10.475,
                "pitch": 79,
                "velocity": 10,
                "duration": 0.168181818181818,
                "tempo": 120.0
            },
            {
                "start_time": 10.475,
                "end_time": 10.64090909090909,
                "pitch": 67,
                "velocity": 10,
                "duration": 0.165909090909091,
                "tempo": 120.0
            },
            {
                "start_time": 10.475,
                "end_time": 10.64090909090909,
                "pitch": 79,
                "velocity": 10,
                "duration": 0.165909090909091,
                "tempo": 120.0
            },
            {
                "start_time": 10.64090909090909,
                "end_time": 10.806818181818182,
                "pitch": 67,
                "velocity": 10,
                "duration": 0.165909090909091,
                "tempo": 120.0
            },
            {
                "start_time": 10.64090909090909,
                "end_time": 10.806818181818182,
                "pitch": 79,
                "velocity": 10,
                "duration": 0.165909090909091,
                "tempo": 120.0
            },
            {
                "start_time": 10.806818181818182,
                "end_time": 10.975,
                "pitch": 67,
                "velocity": 10,
                "duration": 0.168181818181818,
                "tempo": 120.0
            },
            {
                "start_time": 10.806818181818182,
                "end_time": 10.975,
                "pitch": 79,
                "velocity": 10,
                "duration": 0.168181818181818,
                "tempo": 120.0
            },
            {
                "start_time": 10.975,
                "end_time": 11.143181818181818,
                "pitch": 67,
                "velocity": 10,
                "duration": 0.168181818181818,
                "tempo": 120.0
            },
            {
                "start_time": 10.975,
                "end_time": 11.143181818181818,
                "pitch": 79,
                "velocity": 10,
                "duration": 0.168181818181818,
                "tempo": 120.0
            },
            {
                "start_time": 11.143181818181818,
                "end_time": 11.311363636363636,
                "pitch": 67,
                "velocity": 10,
                "duration": 0.168181818181818,
                "tempo": 120.0
            },
            {
                "start_time": 11.143181818181818,
                "end_time": 11.311363636363636,
                "pitch": 79,
                "velocity": 10,
                "duration": 0.168181818181818,
                "tempo": 120.0
            },
            {
                "start_time": 11.311363636363636,
                "end_time": 11.479545454545454,
                "pitch": 67,
                "velocity": 10,
                "duration": 0.168181818181818,
                "tempo": 120.0
            },
            {
                "start_time": 11.311363636363636,
                "end_time": 11.479545454545454,
                "pitch": 79,
                "velocity": 10,
                "duration": 0.168181818181818,
                "tempo": 120.0
            },
            {
                "start_time": 11.479545454545454,
                "end_time": 11.643181818181818,
                "pitch": 67,
                "velocity": 10,
                "duration": 0.16363636363636402,
                "tempo": 120.0
            },
            {
                "start_time": 11.479545454545454,
                "end_time": 11.643181818181818,
                "pitch": 79,
                "velocity": 10,
                "duration": 0.16363636363636402,
                "tempo": 120.0
            },
            {
                "start_time": 11.643181818181818,
                "end_time": 11.802272727272726,
                "pitch": 67,
                "velocity": 10,
                "duration": 0.15909090909090828,
                "tempo": 120.0
            },
            {
                "start_time": 11.643181818181818,
                "end_time": 11.802272727272726,
                "pitch": 79,
                "velocity": 10,
                "duration": 0.15909090909090828,
                "tempo": 120.0
            },
            {
                "start_time": 11.802272727272726,
                "end_time": 11.961363636363636,
                "pitch": 67,
                "velocity": 10,
                "duration": 0.15909090909091006,
                "tempo": 120.0
            },
            {
                "start_time": 11.802272727272726,
                "end_time": 11.961363636363636,
                "pitch": 79,
                "velocity": 10,
                "duration": 0.15909090909091006,
                "tempo": 120.0
            },
            {
                "start_time": 11.961363636363636,
                "end_time": 12.075,
                "pitch": 67,
                "velocity": 10,
                "duration": 0.11363636363636331,
                "tempo": 120.0
            },
            {
                "start_time": 12.075,
                "end_time": 14.702272727272726,
                "pitch": 69,
                "velocity": 10,
                "duration": 2.627272727272727,
                "tempo": 120.0
            },
            {
                "start_time": 11.961363636363636,
                "end_time": 14.702272727272726,
                "pitch": 79,
                "velocity": 10,
                "duration": 2.7409090909090903,
                "tempo": 120.0
            },
            {
                "start_time": 14.702272727272726,
                "end_time": 14.84090909090909,
                "pitch": 67,
                "velocity": 10,
                "duration": 0.13863636363636367,
                "tempo": 120.0
            },
            {
                "start_time": 14.702272727272726,
                "end_time": 14.84090909090909,
                "pitch": 79,
                "velocity": 10,
                "duration": 0.13863636363636367,
                "tempo": 120.0
            },
            {
                "start_time": 14.84090909090909,
                "end_time": 15.01590909090909,
                "pitch": 67,
                "velocity": 10,
                "duration": 0.1750000000000007,
                "tempo": 120.0
            },
            {
                "start_time": 14.84090909090909,
                "end_time": 15.01590909090909,
                "pitch": 79,
                "velocity": 10,
                "duration": 0.1750000000000007,
                "tempo": 120.0
            },
            {
                "start_time": 15.01590909090909,
                "end_time": 15.049999999999999,
                "pitch": 67,
                "velocity": 10,
                "duration": 0.034090909090908283,
                "tempo": 120.0
            },
            {
                "start_time": 15.01590909090909,
                "end_time": 15.049999999999999,
                "pitch": 79,
                "velocity": 10,
                "duration": 0.034090909090908283,
                "tempo": 120.0
            },
            {
                "start_time": 15.049999999999999,
                "end_time": 15.188636363636363,
                "pitch": 67,
                "velocity": 10,
                "duration": 0.13863636363636367,
                "tempo": 120.0
            },
            {
                "start_time": 15.049999999999999,
                "end_time": 15.188636363636363,
                "pitch": 79,
                "velocity": 10,
                "duration": 0.13863636363636367,
                "tempo": 120.0
            },
            {
                "start_time": 15.188636363636363,
                "end_time": 15.354545454545454,
                "pitch": 67,
                "velocity": 10,
                "duration": 0.165909090909091,
                "tempo": 120.0
            },
            {
                "start_time": 15.188636363636363,
                "end_time": 15.354545454545454,
                "pitch": 79,
                "velocity": 10,
                "duration": 0.165909090909091,
                "tempo": 120.0
            },
            {
                "start_time": 15.354545454545454,
                "end_time": 15.386363636363635,
                "pitch": 67,
                "velocity": 10,
                "duration": 0.0318181818181813,
                "tempo": 120.0
            },
            {
                "start_time": 15.354545454545454,
                "end_time": 15.386363636363635,
                "pitch": 79,
                "velocity": 10,
                "duration": 0.0318181818181813,
                "tempo": 120.0
            },
            {
                "start_time": 15.386363636363635,
                "end_time": 15.51590909090909,
                "pitch": 67,
                "velocity": 10,
                "duration": 0.12954545454545574,
                "tempo": 120.0
            },
            {
                "start_time": 15.386363636363635,
                "end_time": 15.51590909090909,
                "pitch": 79,
                "velocity": 10,
                "duration": 0.12954545454545574,
                "tempo": 120.0
            },
            {
                "start_time": 15.51590909090909,
                "end_time": 15.679545454545453,
                "pitch": 67,
                "velocity": 10,
                "duration": 0.16363636363636225,
                "tempo": 120.0
            },
            {
                "start_time": 15.51590909090909,
                "end_time": 15.679545454545453,
                "pitch": 79,
                "velocity": 10,
                "duration": 0.16363636363636225,
                "tempo": 120.0
            },
            {
                "start_time": 15.679545454545453,
                "end_time": 15.711363636363636,
                "pitch": 67,
                "velocity": 10,
                "duration": 0.03181818181818308,
                "tempo": 120.0
            },
            {
                "start_time": 15.679545454545453,
                "end_time": 15.711363636363636,
                "pitch": 79,
                "velocity": 10,
                "duration": 0.03181818181818308,
                "tempo": 120.0
            },
            {
                "start_time": 15.711363636363636,
                "end_time": 15.84090909090909,
                "pitch": 67,
                "velocity": 10,
                "duration": 0.12954545454545396,
                "tempo": 120.0
            },
            {
                "start_time": 15.711363636363636,
                "end_time": 15.84090909090909,
                "pitch": 79,
                "velocity": 10,
                "duration": 0.12954545454545396,
                "tempo": 120.0
            },
            {
                "start_time": 15.84090909090909,
                "end_time": 16.009090909090908,
                "pitch": 67,
                "velocity": 10,
                "duration": 0.168181818181818,
                "tempo": 120.0
            },
            {
                "start_time": 15.84090909090909,
                "end_time": 16.009090909090908,
                "pitch": 79,
                "velocity": 10,
                "duration": 0.168181818181818,
                "tempo": 120.0
            },
            {
                "start_time": 16.009090909090908,
                "end_time": 16.04090909090909,
                "pitch": 67,
                "velocity": 10,
                "duration": 0.0318181818181813,
                "tempo": 120.0
            },
            {
                "start_time": 16.009090909090908,
                "end_time": 16.04090909090909,
                "pitch": 79,
                "velocity": 10,
                "duration": 0.0318181818181813,
                "tempo": 120.0
            },
            {
                "start_time": 16.04090909090909,
                "end_time": 16.175,
                "pitch": 67,
                "velocity": 10,
                "duration": 0.13409090909091148,
                "tempo": 120.0
            },
            {
                "start_time": 16.04090909090909,
                "end_time": 16.175,
                "pitch": 79,
                "velocity": 10,
                "duration": 0.13409090909091148,
                "tempo": 120.0
            },
            {
                "start_time": 16.175,
                "end_time": 16.34318181818182,
                "pitch": 67,
                "velocity": 10,
                "duration": 0.168181818181818,
                "tempo": 120.0
            },
            {
                "start_time": 16.175,
                "end_time": 16.34318181818182,
                "pitch": 79,
                "velocity": 10,
                "duration": 0.168181818181818,
                "tempo": 120.0
            },
            {
                "start_time": 16.34318181818182,
                "end_time": 16.375,
                "pitch": 67,
                "velocity": 10,
                "duration": 0.0318181818181813,
                "tempo": 120.0
            },
            {
                "start_time": 16.34318181818182,
                "end_time": 16.375,
                "pitch": 79,
                "velocity": 10,
                "duration": 0.0318181818181813,
                "tempo": 120.0
            },
            {
                "start_time": 16.375,
                "end_time": 16.511363636363637,
                "pitch": 67,
                "velocity": 10,
                "duration": 0.1363636363636367,
                "tempo": 120.0
            },
            {
                "start_time": 16.375,
                "end_time": 16.511363636363637,
                "pitch": 79,
                "velocity": 10,
                "duration": 0.1363636363636367,
                "tempo": 120.0
            },
            {
                "start_time": 16.511363636363637,
                "end_time": 16.68181818181818,
                "pitch": 67,
                "velocity": 10,
                "duration": 0.1704545454545432,
                "tempo": 120.0
            },
            {
                "start_time": 16.511363636363637,
                "end_time": 16.68181818181818,
                "pitch": 79,
                "velocity": 10,
                "duration": 0.1704545454545432,
                "tempo": 120.0
            },
            {
                "start_time": 16.68181818181818,
                "end_time": 16.71590909090909,
                "pitch": 67,
                "velocity": 10,
                "duration": 0.03409090909091006,
                "tempo": 120.0
            },
            {
                "start_time": 16.68181818181818,
                "end_time": 16.71590909090909,
                "pitch": 79,
                "velocity": 10,
                "duration": 0.03409090909091006,
                "tempo": 120.0
            },
            {
                "start_time": 16.71590909090909,
                "end_time": 16.852272727272727,
                "pitch": 67,
                "velocity": 10,
                "duration": 0.1363636363636367,
                "tempo": 120.0
            },
            {
                "start_time": 16.71590909090909,
                "end_time": 16.852272727272727,
                "pitch": 79,
                "velocity": 10,
                "duration": 0.1363636363636367,
                "tempo": 120.0
            },
            {
                "start_time": 16.852272727272727,
                "end_time": 17.022727272727273,
                "pitch": 67,
                "velocity": 10,
                "duration": 0.17045454545454675,
                "tempo": 120.0
            },
            {
                "start_time": 16.852272727272727,
                "end_time": 17.022727272727273,
                "pitch": 79,
                "velocity": 10,
                "duration": 0.17045454545454675,
                "tempo": 120.0
            },
            {
                "start_time": 17.022727272727273,
                "end_time": 17.054545454545455,
                "pitch": 67,
                "velocity": 10,
                "duration": 0.0318181818181813,
                "tempo": 120.0
            },
            {
                "start_time": 17.022727272727273,
                "end_time": 17.054545454545455,
                "pitch": 79,
                "velocity": 10,
                "duration": 0.0318181818181813,
                "tempo": 120.0
            },
            {
                "start_time": 17.054545454545455,
                "end_time": 17.186363636363634,
                "pitch": 67,
                "velocity": 10,
                "duration": 0.13181818181817917,
                "tempo": 120.0
            },
            {
                "start_time": 17.054545454545455,
                "end_time": 17.186363636363634,
                "pitch": 79,
                "velocity": 10,
                "duration": 0.13181818181817917,
                "tempo": 120.0
            },
            {
                "start_time": 17.186363636363634,
                "end_time": 17.352272727272727,
                "pitch": 67,
                "velocity": 10,
                "duration": 0.16590909090909278,
                "tempo": 120.0
            },
            {
                "start_time": 17.186363636363634,
                "end_time": 17.352272727272727,
                "pitch": 79,
                "velocity": 10,
                "duration": 0.16590909090909278,
                "tempo": 120.0
            },
            {
                "start_time": 17.352272727272727,
                "end_time": 17.370454545454546,
                "pitch": 67,
                "velocity": 10,
                "duration": 0.01818181818181941,
                "tempo": 120.0
            },
            {
                "start_time": 17.370454545454546,
                "end_time": 20.038636363636364,
                "pitch": 69,
                "velocity": 10,
                "duration": 2.668181818181818,
                "tempo": 120.0
            },
            {
                "start_time": 17.352272727272727,
                "end_time": 20.038636363636364,
                "pitch": 79,
                "velocity": 10,
                "duration": 2.6863636363636374,
                "tempo": 120.0
            },
            {
                "start_time": 20.038636363636364,
                "end_time": 20.204545454545453,
                "pitch": 67,
                "velocity": 10,
                "duration": 0.16590909090908923,
                "tempo": 120.0
            },
            {
                "start_time": 20.038636363636364,
                "end_time": 20.204545454545453,
                "pitch": 79,
                "velocity": 10,
                "duration": 0.16590909090908923,
                "tempo": 120.0
            },
            {
                "start_time": 20.204545454545453,
                "end_time": 20.37272727272727,
                "pitch": 67,
                "velocity": 10,
                "duration": 0.168181818181818,
                "tempo": 120.0
            },
            {
                "start_time": 20.204545454545453,
                "end_time": 20.37272727272727,
                "pitch": 79,
                "velocity": 10,
                "duration": 0.168181818181818,
                "tempo": 120.0
            },
            {
                "start_time": 20.37272727272727,
                "end_time": 20.538636363636364,
                "pitch": 67,
                "velocity": 10,
                "duration": 0.16590909090909278,
                "tempo": 120.0
            },
            {
                "start_time": 20.37272727272727,
                "end_time": 20.538636363636364,
                "pitch": 79,
                "velocity": 10,
                "duration": 0.16590909090909278,
                "tempo": 120.0
            },
            {
                "start_time": 20.538636363636364,
                "end_time": 20.706818181818182,
                "pitch": 67,
                "velocity": 10,
                "duration": 0.168181818181818,
                "tempo": 120.0
            },
            {
                "start_time": 20.538636363636364,
                "end_time": 20.706818181818182,
                "pitch": 79,
                "velocity": 10,
                "duration": 0.168181818181818,
                "tempo": 120.0
            },
            {
                "start_time": 20.706818181818182,
                "end_time": 20.877272727272725,
                "pitch": 67,
                "velocity": 10,
                "duration": 0.1704545454545432,
                "tempo": 120.0
            },
            {
                "start_time": 20.706818181818182,
                "end_time": 20.877272727272725,
                "pitch": 79,
                "velocity": 10,
                "duration": 0.1704545454545432,
                "tempo": 120.0
            },
            {
                "start_time": 20.877272727272725,
                "end_time": 21.047727272727272,
                "pitch": 67,
                "velocity": 10,
                "duration": 0.17045454545454675,
                "tempo": 120.0
            },
            {
                "start_time": 20.877272727272725,
                "end_time": 21.047727272727272,
                "pitch": 79,
                "velocity": 10,
                "duration": 0.17045454545454675,
                "tempo": 120.0
            },
            {
                "start_time": 21.047727272727272,
                "end_time": 21.21818181818182,
                "pitch": 67,
                "velocity": 10,
                "duration": 0.17045454545454675,
                "tempo": 120.0
            },
            {
                "start_time": 21.047727272727272,
                "end_time": 21.21818181818182,
                "pitch": 79,
                "velocity": 10,
                "duration": 0.17045454545454675,
                "tempo": 120.0
            },
            {
                "start_time": 21.21818181818182,
                "end_time": 21.386363636363637,
                "pitch": 67,
                "velocity": 10,
                "duration": 0.168181818181818,
                "tempo": 120.0
            },
            {
                "start_time": 21.21818181818182,
                "end_time": 21.386363636363637,
                "pitch": 79,
                "velocity": 10,
                "duration": 0.168181818181818,
                "tempo": 120.0
            },
            {
                "start_time": 21.386363636363637,
                "end_time": 21.554545454545455,
                "pitch": 67,
                "velocity": 10,
                "duration": 0.168181818181818,
                "tempo": 120.0
            },
            {
                "start_time": 21.386363636363637,
                "end_time": 21.554545454545455,
                "pitch": 79,
                "velocity": 10,
                "duration": 0.168181818181818,
                "tempo": 120.0
            },
            {
                "start_time": 21.554545454545455,
                "end_time": 21.722727272727273,
                "pitch": 67,
                "velocity": 10,
                "duration": 0.168181818181818,
                "tempo": 120.0
            },
            {
                "start_time": 21.554545454545455,
                "end_time": 21.722727272727273,
                "pitch": 79,
                "velocity": 10,
                "duration": 0.168181818181818,
                "tempo": 120.0
            },
            {
                "start_time": 21.722727272727273,
                "end_time": 21.893181818181816,
                "pitch": 67,
                "velocity": 10,
                "duration": 0.1704545454545432,
                "tempo": 120.0
            },
            {
                "start_time": 21.722727272727273,
                "end_time": 21.893181818181816,
                "pitch": 79,
                "velocity": 10,
                "duration": 0.1704545454545432,
                "tempo": 120.0
            },
            {
                "start_time": 21.893181818181816,
                "end_time": 22.061363636363634,
                "pitch": 67,
                "velocity": 10,
                "duration": 0.168181818181818,
                "tempo": 120.0
            },
            {
                "start_time": 21.893181818181816,
                "end_time": 22.061363636363634,
                "pitch": 79,
                "velocity": 10,
                "duration": 0.168181818181818,
                "tempo": 120.0
            },
            {
                "start_time": 22.061363636363634,
                "end_time": 22.229545454545452,
                "pitch": 67,
                "velocity": 10,
                "duration": 0.168181818181818,
                "tempo": 120.0
            },
            {
                "start_time": 22.061363636363634,
                "end_time": 22.229545454545452,
                "pitch": 79,
                "velocity": 10,
                "duration": 0.168181818181818,
                "tempo": 120.0
            },
            {
                "start_time": 22.229545454545452,
                "end_time": 22.397727272727273,
                "pitch": 67,
                "velocity": 10,
                "duration": 0.16818181818182154,
                "tempo": 120.0
            },
            {
                "start_time": 22.229545454545452,
                "end_time": 22.397727272727273,
                "pitch": 79,
                "velocity": 10,
                "duration": 0.16818181818182154,
                "tempo": 120.0
            },
            {
                "start_time": 22.397727272727273,
                "end_time": 22.56590909090909,
                "pitch": 67,
                "velocity": 10,
                "duration": 0.168181818181818,
                "tempo": 120.0
            },
            {
                "start_time": 22.397727272727273,
                "end_time": 22.56590909090909,
                "pitch": 79,
                "velocity": 10,
                "duration": 0.168181818181818,
                "tempo": 120.0
            },
            {
                "start_time": 22.56590909090909,
                "end_time": 22.65,
                "pitch": 67,
                "velocity": 10,
                "duration": 0.08409090909090722,
                "tempo": 120.0
            },
            {
                "start_time": 22.65,
                "end_time": 25.254545454545454,
                "pitch": 69,
                "velocity": 10,
                "duration": 2.6045454545454554,
                "tempo": 120.0
            },
            {
                "start_time": 22.56590909090909,
                "end_time": 25.254545454545454,
                "pitch": 79,
                "velocity": 10,
                "duration": 2.6886363636363626,
                "tempo": 120.0
            },
            {
                "start_time": 25.254545454545454,
                "end_time": 25.420454545454543,
                "pitch": 67,
                "velocity": 10,
                "duration": 0.16590909090908923,
                "tempo": 120.0
            },
            {
                "start_time": 25.254545454545454,
                "end_time": 25.420454545454543,
                "pitch": 79,
                "velocity": 10,
                "duration": 0.16590909090908923,
                "tempo": 120.0
            },
            {
                "start_time": 25.420454545454543,
                "end_time": 25.581818181818182,
                "pitch": 67,
                "velocity": 10,
                "duration": 0.16136363636363882,
                "tempo": 120.0
            },
            {
                "start_time": 25.420454545454543,
                "end_time": 25.581818181818182,
                "pitch": 79,
                "velocity": 10,
                "duration": 0.16136363636363882,
                "tempo": 120.0
            },
            {
                "start_time": 25.581818181818182,
                "end_time": 25.74090909090909,
                "pitch": 67,
                "velocity": 10,
                "duration": 0.1590909090909065,
                "tempo": 120.0
            },
            {
                "start_time": 25.581818181818182,
                "end_time": 25.74090909090909,
                "pitch": 79,
                "velocity": 10,
                "duration": 0.1590909090909065,
                "tempo": 120.0
            },
            {
                "start_time": 25.74090909090909,
                "end_time": 25.9,
                "pitch": 67,
                "velocity": 10,
                "duration": 0.15909090909091006,
                "tempo": 120.0
            },
            {
                "start_time": 25.74090909090909,
                "end_time": 25.9,
                "pitch": 79,
                "velocity": 10,
                "duration": 0.15909090909091006,
                "tempo": 120.0
            },
            {
                "start_time": 25.9,
                "end_time": 26.05909090909091,
                "pitch": 67,
                "velocity": 10,
                "duration": 0.15909090909091006,
                "tempo": 120.0
            },
            {
                "start_time": 25.9,
                "end_time": 26.05909090909091,
                "pitch": 79,
                "velocity": 10,
                "duration": 0.15909090909091006,
                "tempo": 120.0
            },
            {
                "start_time": 26.05909090909091,
                "end_time": 26.23181818181818,
                "pitch": 67,
                "velocity": 10,
                "duration": 0.17272727272727195,
                "tempo": 120.0
            },
            {
                "start_time": 26.05909090909091,
                "end_time": 26.23181818181818,
                "pitch": 79,
                "velocity": 10,
                "duration": 0.17272727272727195,
                "tempo": 120.0
            },
            {
                "start_time": 26.23181818181818,
                "end_time": 26.40681818181818,
                "pitch": 67,
                "velocity": 10,
                "duration": 0.1750000000000007,
                "tempo": 120.0
            },
            {
                "start_time": 26.23181818181818,
                "end_time": 26.40681818181818,
                "pitch": 79,
                "velocity": 10,
                "duration": 0.1750000000000007,
                "tempo": 120.0
            },
            {
                "start_time": 26.40681818181818,
                "end_time": 26.579545454545453,
                "pitch": 67,
                "velocity": 10,
                "duration": 0.17272727272727195,
                "tempo": 120.0
            },
            {
                "start_time": 26.40681818181818,
                "end_time": 26.579545454545453,
                "pitch": 79,
                "velocity": 10,
                "duration": 0.17272727272727195,
                "tempo": 120.0
            },
            {
                "start_time": 26.579545454545453,
                "end_time": 26.743181818181817,
                "pitch": 67,
                "velocity": 10,
                "duration": 0.16363636363636402,
                "tempo": 120.0
            },
            {
                "start_time": 26.579545454545453,
                "end_time": 26.743181818181817,
                "pitch": 79,
                "velocity": 10,
                "duration": 0.16363636363636402,
                "tempo": 120.0
            },
            {
                "start_time": 26.743181818181817,
                "end_time": 26.9,
                "pitch": 67,
                "velocity": 10,
                "duration": 0.1568181818181813,
                "tempo": 120.0
            },
            {
                "start_time": 26.743181818181817,
                "end_time": 26.9,
                "pitch": 79,
                "velocity": 10,
                "duration": 0.1568181818181813,
                "tempo": 120.0
            },
            {
                "start_time": 26.9,
                "end_time": 27.054545454545455,
                "pitch": 67,
                "velocity": 10,
                "duration": 0.1545454545454561,
                "tempo": 120.0
            },
            {
                "start_time": 26.9,
                "end_time": 27.054545454545455,
                "pitch": 79,
                "velocity": 10,
                "duration": 0.1545454545454561,
                "tempo": 120.0
            },
            {
                "start_time": 27.054545454545455,
                "end_time": 27.211363636363636,
                "pitch": 67,
                "velocity": 10,
                "duration": 0.1568181818181813,
                "tempo": 120.0
            },
            {
                "start_time": 27.054545454545455,
                "end_time": 27.211363636363636,
                "pitch": 79,
                "velocity": 10,
                "duration": 0.1568181818181813,
                "tempo": 120.0
            },
            {
                "start_time": 27.211363636363636,
                "end_time": 27.379545454545454,
                "pitch": 67,
                "velocity": 10,
                "duration": 0.168181818181818,
                "tempo": 120.0
            },
            {
                "start_time": 27.211363636363636,
                "end_time": 27.379545454545454,
                "pitch": 79,
                "velocity": 10,
                "duration": 0.168181818181818,
                "tempo": 120.0
            },
            {
                "start_time": 27.379545454545454,
                "end_time": 27.547727272727272,
                "pitch": 67,
                "velocity": 10,
                "duration": 0.168181818181818,
                "tempo": 120.0
            },
            {
                "start_time": 27.379545454545454,
                "end_time": 27.547727272727272,
                "pitch": 79,
                "velocity": 10,
                "duration": 0.168181818181818,
                "tempo": 120.0
            },
            {
                "start_time": 27.547727272727272,
                "end_time": 27.71590909090909,
                "pitch": 67,
                "velocity": 10,
                "duration": 0.168181818181818,
                "tempo": 120.0
            },
            {
                "start_time": 27.547727272727272,
                "end_time": 27.71590909090909,
                "pitch": 79,
                "velocity": 10,
                "duration": 0.168181818181818,
                "tempo": 120.0
            },
            {
                "start_time": 27.71590909090909,
                "end_time": 27.87272727272727,
                "pitch": 67,
                "velocity": 10,
                "duration": 0.1568181818181813,
                "tempo": 120.0
            },
            {
                "start_time": 27.87272727272727,
                "end_time": 30.620454545454542,
                "pitch": 69,
                "velocity": 10,
                "duration": 2.7477272727272712,
                "tempo": 120.0
            },
            {
                "start_time": 27.71590909090909,
                "end_time": 30.620454545454542,
                "pitch": 79,
                "velocity": 10,
                "duration": 2.9045454545454525,
                "tempo": 120.0
            },
            {
                "start_time": 30.620454545454542,
                "end_time": 30.78863636363636,
                "pitch": 67,
                "velocity": 10,
                "duration": 0.168181818181818,
                "tempo": 120.0
            },
            {
                "start_time": 30.620454545454542,
                "end_time": 30.78863636363636,
                "pitch": 79,
                "velocity": 10,
                "duration": 0.168181818181818,
                "tempo": 120.0
            },
            {
                "start_time": 30.78863636363636,
                "end_time": 30.956818181818182,
                "pitch": 67,
                "velocity": 10,
                "duration": 0.16818181818182154,
                "tempo": 120.0
            },
            {
                "start_time": 30.78863636363636,
                "end_time": 30.956818181818182,
                "pitch": 79,
                "velocity": 10,
                "duration": 0.16818181818182154,
                "tempo": 120.0
            },
            {
                "start_time": 30.956818181818182,
                "end_time": 31.125,
                "pitch": 67,
                "velocity": 10,
                "duration": 0.168181818181818,
                "tempo": 120.0
            },
            {
                "start_time": 30.956818181818182,
                "end_time": 31.125,
                "pitch": 79,
                "velocity": 10,
                "duration": 0.168181818181818,
                "tempo": 120.0
            },
            {
                "start_time": 31.125,
                "end_time": 31.29090909090909,
                "pitch": 67,
                "velocity": 10,
                "duration": 0.16590909090908923,
                "tempo": 120.0
            },
            {
                "start_time": 31.125,
                "end_time": 31.29090909090909,
                "pitch": 79,
                "velocity": 10,
                "duration": 0.16590909090908923,
                "tempo": 120.0
            },
            {
                "start_time": 31.29090909090909,
                "end_time": 31.459090909090907,
                "pitch": 67,
                "velocity": 10,
                "duration": 0.168181818181818,
                "tempo": 120.0
            },
            {
                "start_time": 31.29090909090909,
                "end_time": 31.459090909090907,
                "pitch": 79,
                "velocity": 10,
                "duration": 0.168181818181818,
                "tempo": 120.0
            },
            {
                "start_time": 31.459090909090907,
                "end_time": 31.625,
                "pitch": 67,
                "velocity": 10,
                "duration": 0.16590909090909278,
                "tempo": 120.0
            },
            {
                "start_time": 31.459090909090907,
                "end_time": 31.625,
                "pitch": 79,
                "velocity": 10,
                "duration": 0.16590909090909278,
                "tempo": 120.0
            },
            {
                "start_time": 31.625,
                "end_time": 31.795454545454543,
                "pitch": 67,
                "velocity": 10,
                "duration": 0.1704545454545432,
                "tempo": 120.0
            },
            {
                "start_time": 31.625,
                "end_time": 31.795454545454543,
                "pitch": 79,
                "velocity": 10,
                "duration": 0.1704545454545432,
                "tempo": 120.0
            },
            {
                "start_time": 31.795454545454543,
                "end_time": 31.96363636363636,
                "pitch": 67,
                "velocity": 10,
                "duration": 0.168181818181818,
                "tempo": 120.0
            },
            {
                "start_time": 31.795454545454543,
                "end_time": 31.96363636363636,
                "pitch": 79,
                "velocity": 10,
                "duration": 0.168181818181818,
                "tempo": 120.0
            },
            {
                "start_time": 31.96363636363636,
                "end_time": 32.13181818181818,
                "pitch": 67,
                "velocity": 10,
                "duration": 0.16818181818182154,
                "tempo": 120.0
            },
            {
                "start_time": 31.96363636363636,
                "end_time": 32.13181818181818,
                "pitch": 79,
                "velocity": 10,
                "duration": 0.16818181818182154,
                "tempo": 120.0
            },
            {
                "start_time": 32.13181818181818,
                "end_time": 32.29772727272727,
                "pitch": 67,
                "velocity": 10,
                "duration": 0.16590909090908923,
                "tempo": 120.0
            },
            {
                "start_time": 32.13181818181818,
                "end_time": 32.29772727272727,
                "pitch": 79,
                "velocity": 10,
                "duration": 0.16590909090908923,
                "tempo": 120.0
            },
            {
                "start_time": 32.29772727272727,
                "end_time": 32.465909090909086,
                "pitch": 67,
                "velocity": 10,
                "duration": 0.16818181818181444,
                "tempo": 120.0
            },
            {
                "start_time": 32.29772727272727,
                "end_time": 32.465909090909086,
                "pitch": 79,
                "velocity": 10,
                "duration": 0.16818181818181444,
                "tempo": 120.0
            },
            {
                "start_time": 32.465909090909086,
                "end_time": 32.63181818181818,
                "pitch": 67,
                "velocity": 10,
                "duration": 0.16590909090909634,
                "tempo": 120.0
            },
            {
                "start_time": 32.465909090909086,
                "end_time": 32.63181818181818,
                "pitch": 79,
                "velocity": 10,
                "duration": 0.16590909090909634,
                "tempo": 120.0
            },
            {
                "start_time": 32.63181818181818,
                "end_time": 32.8,
                "pitch": 67,
                "velocity": 10,
                "duration": 0.16818181818181444,
                "tempo": 120.0
            },
            {
                "start_time": 32.63181818181818,
                "end_time": 32.8,
                "pitch": 79,
                "velocity": 10,
                "duration": 0.16818181818181444,
                "tempo": 120.0
            },
            {
                "start_time": 32.8,
                "end_time": 32.975,
                "pitch": 67,
                "velocity": 10,
                "duration": 0.17500000000000426,
                "tempo": 120.0
            },
            {
                "start_time": 32.8,
                "end_time": 32.975,
                "pitch": 79,
                "velocity": 10,
                "duration": 0.17500000000000426,
                "tempo": 120.0
            },
            {
                "start_time": 32.975,
                "end_time": 33.14772727272727,
                "pitch": 67,
                "velocity": 10,
                "duration": 0.17272727272727195,
                "tempo": 120.0
            },
            {
                "start_time": 32.975,
                "end_time": 33.14772727272727,
                "pitch": 79,
                "velocity": 10,
                "duration": 0.17272727272727195,
                "tempo": 120.0
            },
            {
                "start_time": 33.14772727272727,
                "end_time": 33.32272727272727,
                "pitch": 67,
                "velocity": 10,
                "duration": 0.17499999999999716,
                "tempo": 120.0
            },
            {
                "start_time": 33.14772727272727,
                "end_time": 33.32272727272727,
                "pitch": 79,
                "velocity": 10,
                "duration": 0.17499999999999716,
                "tempo": 120.0
            },
            {
                "start_time": 33.32272727272727,
                "end_time": 33.49090909090909,
                "pitch": 67,
                "velocity": 10,
                "duration": 0.16818181818182154,
                "tempo": 120.0
            },
            {
                "start_time": 33.32272727272727,
                "end_time": 33.49090909090909,
                "pitch": 79,
                "velocity": 10,
                "duration": 0.16818181818182154,
                "tempo": 120.0
            },
            {
                "start_time": 33.49090909090909,
                "end_time": 33.654545454545456,
                "pitch": 67,
                "velocity": 10,
                "duration": 0.16363636363636402,
                "tempo": 120.0
            },
            {
                "start_time": 33.49090909090909,
                "end_time": 33.654545454545456,
                "pitch": 79,
                "velocity": 10,
                "duration": 0.16363636363636402,
                "tempo": 120.0
            },
            {
                "start_time": 33.654545454545456,
                "end_time": 33.820454545454545,
                "pitch": 67,
                "velocity": 10,
                "duration": 0.16590909090908923,
                "tempo": 120.0
            },
            {
                "start_time": 33.654545454545456,
                "end_time": 33.820454545454545,
                "pitch": 79,
                "velocity": 10,
                "duration": 0.16590909090908923,
                "tempo": 120.0
            },
            {
                "start_time": 33.820454545454545,
                "end_time": 33.986363636363635,
                "pitch": 67,
                "velocity": 10,
                "duration": 0.16590909090908923,
                "tempo": 120.0
            },
            {
                "start_time": 33.820454545454545,
                "end_time": 33.986363636363635,
                "pitch": 79,
                "velocity": 10,
                "duration": 0.16590909090908923,
                "tempo": 120.0
            },
            {
                "start_time": 33.986363636363635,
                "end_time": 34.152272727272724,
                "pitch": 67,
                "velocity": 10,
                "duration": 0.16590909090908923,
                "tempo": 120.0
            },
            {
                "start_time": 33.986363636363635,
                "end_time": 34.152272727272724,
                "pitch": 79,
                "velocity": 10,
                "duration": 0.16590909090908923,
                "tempo": 120.0
            },
            {
                "start_time": 34.152272727272724,
                "end_time": 34.320454545454545,
                "pitch": 67,
                "velocity": 10,
                "duration": 0.16818181818182154,
                "tempo": 120.0
            },
            {
                "start_time": 34.152272727272724,
                "end_time": 34.320454545454545,
                "pitch": 79,
                "velocity": 10,
                "duration": 0.16818181818182154,
                "tempo": 120.0
            },
            {
                "start_time": 34.320454545454545,
                "end_time": 34.486363636363635,
                "pitch": 67,
                "velocity": 10,
                "duration": 0.16590909090908923,
                "tempo": 120.0
            },
            {
                "start_time": 34.320454545454545,
                "end_time": 34.486363636363635,
                "pitch": 79,
                "velocity": 10,
                "duration": 0.16590909090908923,
                "tempo": 120.0
            },
            {
                "start_time": 34.486363636363635,
                "end_time": 34.65,
                "pitch": 67,
                "velocity": 10,
                "duration": 0.16363636363636402,
                "tempo": 120.0
            },
            {
                "start_time": 34.486363636363635,
                "end_time": 34.65,
                "pitch": 79,
                "velocity": 10,
                "duration": 0.16363636363636402,
                "tempo": 120.0
            },
            {
                "start_time": 34.65,
                "end_time": 34.81363636363636,
                "pitch": 67,
                "velocity": 10,
                "duration": 0.16363636363636402,
                "tempo": 120.0
            },
            {
                "start_time": 34.65,
                "end_time": 34.81363636363636,
                "pitch": 79,
                "velocity": 10,
                "duration": 0.16363636363636402,
                "tempo": 120.0
            },
            {
                "start_time": 34.81363636363636,
                "end_time": 34.975,
                "pitch": 67,
                "velocity": 10,
                "duration": 0.16136363636363882,
                "tempo": 120.0
            },
            {
                "start_time": 34.81363636363636,
                "end_time": 34.975,
                "pitch": 79,
                "velocity": 10,
                "duration": 0.16136363636363882,
                "tempo": 120.0
            },
            {
                "start_time": 34.975,
                "end_time": 35.13636363636363,
                "pitch": 67,
                "velocity": 10,
                "duration": 0.1613636363636317,
                "tempo": 120.0
            },
            {
                "start_time": 34.975,
                "end_time": 35.13636363636363,
                "pitch": 79,
                "velocity": 10,
                "duration": 0.1613636363636317,
                "tempo": 120.0
            },
            {
                "start_time": 35.13636363636363,
                "end_time": 35.309090909090905,
                "pitch": 67,
                "velocity": 10,
                "duration": 0.17272727272727195,
                "tempo": 120.0
            },
            {
                "start_time": 35.13636363636363,
                "end_time": 35.309090909090905,
                "pitch": 79,
                "velocity": 10,
                "duration": 0.17272727272727195,
                "tempo": 120.0
            },
            {
                "start_time": 35.309090909090905,
                "end_time": 35.48409090909091,
                "pitch": 67,
                "velocity": 10,
                "duration": 0.17500000000000426,
                "tempo": 120.0
            },
            {
                "start_time": 35.309090909090905,
                "end_time": 35.48409090909091,
                "pitch": 79,
                "velocity": 10,
                "duration": 0.17500000000000426,
                "tempo": 120.0
            },
            {
                "start_time": 35.48409090909091,
                "end_time": 35.65681818181818,
                "pitch": 67,
                "velocity": 10,
                "duration": 0.17272727272727195,
                "tempo": 120.0
            },
            {
                "start_time": 35.48409090909091,
                "end_time": 35.65681818181818,
                "pitch": 79,
                "velocity": 10,
                "duration": 0.17272727272727195,
                "tempo": 120.0
            },
            {
                "start_time": 35.65681818181818,
                "end_time": 35.82954545454545,
                "pitch": 67,
                "velocity": 10,
                "duration": 0.17272727272727195,
                "tempo": 120.0
            },
            {
                "start_time": 35.65681818181818,
                "end_time": 35.82954545454545,
                "pitch": 79,
                "velocity": 10,
                "duration": 0.17272727272727195,
                "tempo": 120.0
            },
            {
                "start_time": 35.82954545454545,
                "end_time": 35.87954545454545,
                "pitch": 67,
                "velocity": 10,
                "duration": 0.04999999999999716,
                "tempo": 120.0
            },
            {
                "start_time": 38.675,
                "end_time": 41.38409090909091,
                "pitch": 45,
                "velocity": 10,
                "duration": 2.7090909090909108,
                "tempo": 120.0
            },
            {
                "start_time": 41.38409090909091,
                "end_time": 41.43636363636364,
                "pitch": 43,
                "velocity": 10,
                "duration": 0.05227272727272947,
                "tempo": 120.0
            },
            {
                "start_time": 41.43636363636364,
                "end_time": 41.55681818181818,
                "pitch": 43,
                "velocity": 10,
                "duration": 0.12045454545454248,
                "tempo": 120.0
            },
            {
                "start_time": 41.38409090909091,
                "end_time": 41.55681818181818,
                "pitch": 55,
                "velocity": 10,
                "duration": 0.17272727272727195,
                "tempo": 120.0
            },
            {
                "start_time": 41.43636363636364,
                "end_time": 41.611363636363635,
                "pitch": 0,
                "velocity": 10,
                "duration": 0.17499999999999716,
                "tempo": 120.0
            },
            {
                "start_time": 41.55681818181818,
                "end_time": 41.611363636363635,
                "pitch": 43,
                "velocity": 10,
                "duration": 0.054545454545454675,
                "tempo": 120.0
            },
            {
                "start_time": 41.611363636363635,
                "end_time": 41.73181818181818,
                "pitch": 43,
                "velocity": 10,
                "duration": 0.12045454545454248,
                "tempo": 120.0
            },
            {
                "start_time": 41.55681818181818,
                "end_time": 41.73181818181818,
                "pitch": 55,
                "velocity": 10,
                "duration": 0.17499999999999716,
                "tempo": 120.0
            },
            {
                "start_time": 41.611363636363635,
                "end_time": 41.78409090909091,
                "pitch": 0,
                "velocity": 10,
                "duration": 0.17272727272727195,
                "tempo": 120.0
            },
            {
                "start_time": 41.73181818181818,
                "end_time": 41.78409090909091,
                "pitch": 43,
                "velocity": 10,
                "duration": 0.05227272727272947,
                "tempo": 120.0
            },
            {
                "start_time": 41.78409090909091,
                "end_time": 41.902272727272724,
                "pitch": 43,
                "velocity": 10,
                "duration": 0.11818181818181728,
                "tempo": 120.0
            },
            {
                "start_time": 41.73181818181818,
                "end_time": 41.902272727272724,
                "pitch": 55,
                "velocity": 10,
                "duration": 0.17045454545454675,
                "tempo": 120.0
            },
            {
                "start_time": 41.78409090909091,
                "end_time": 41.95227272727273,
                "pitch": 0,
                "velocity": 10,
                "duration": 0.16818181818182154,
                "tempo": 120.0
            },
            {
                "start_time": 41.902272727272724,
                "end_time": 41.95227272727273,
                "pitch": 43,
                "velocity": 10,
                "duration": 0.05000000000000426,
                "tempo": 120.0
            },
            {
                "start_time": 41.95227272727273,
                "end_time": 42.06363636363636,
                "pitch": 43,
                "velocity": 10,
                "duration": 0.11136363636363455,
                "tempo": 120.0
            },
            {
                "start_time": 41.902272727272724,
                "end_time": 42.06363636363636,
                "pitch": 55,
                "velocity": 10,
                "duration": 0.16136363636363882,
                "tempo": 120.0
            },
            {
                "start_time": 41.95227272727273,
                "end_time": 42.11363636363636,
                "pitch": 0,
                "velocity": 10,
                "duration": 0.1613636363636317,
                "tempo": 120.0
            },
            {
                "start_time": 42.06363636363636,
                "end_time": 42.11363636363636,
                "pitch": 43,
                "velocity": 10,
                "duration": 0.04999999999999716,
                "tempo": 120.0
            },
            {
                "start_time": 42.11363636363636,
                "end_time": 42.225,
                "pitch": 43,
                "velocity": 10,
                "duration": 0.11136363636364166,
                "tempo": 120.0
            },
            {
                "start_time": 42.06363636363636,
                "end_time": 42.225,
                "pitch": 55,
                "velocity": 10,
                "duration": 0.16136363636363882,
                "tempo": 120.0
            },
            {
                "start_time": 42.11363636363636,
                "end_time": 42.275,
                "pitch": 0,
                "velocity": 10,
                "duration": 0.16136363636363882,
                "tempo": 120.0
            },
            {
                "start_time": 42.225,
                "end_time": 42.275,
                "pitch": 43,
                "velocity": 10,
                "duration": 0.04999999999999716,
                "tempo": 120.0
            },
            {
                "start_time": 42.275,
                "end_time": 42.38863636363636,
                "pitch": 43,
                "velocity": 10,
                "duration": 0.11363636363635976,
                "tempo": 120.0
            },
            {
                "start_time": 42.225,
                "end_time": 42.38863636363636,
                "pitch": 55,
                "velocity": 10,
                "duration": 0.16363636363635692,
                "tempo": 120.0
            },
            {
                "start_time": 42.275,
                "end_time": 42.43636363636364,
                "pitch": 0,
                "velocity": 10,
                "duration": 0.16136363636363882,
                "tempo": 120.0
            },
            {
                "start_time": 42.38863636363636,
                "end_time": 42.43636363636364,
                "pitch": 43,
                "velocity": 10,
                "duration": 0.04772727272727906,
                "tempo": 120.0
            },
            {
                "start_time": 42.43636363636364,
                "end_time": 42.554545454545455,
                "pitch": 43,
                "velocity": 10,
                "duration": 0.11818181818181728,
                "tempo": 120.0
            },
            {
                "start_time": 42.38863636363636,
                "end_time": 42.554545454545455,
                "pitch": 55,
                "velocity": 10,
                "duration": 0.16590909090909634,
                "tempo": 120.0
            },
            {
                "start_time": 42.43636363636364,
                "end_time": 42.60681818181818,
                "pitch": 0,
                "velocity": 10,
                "duration": 0.17045454545453964,
                "tempo": 120.0
            },
            {
                "start_time": 42.554545454545455,
                "end_time": 42.60681818181818,
                "pitch": 43,
                "velocity": 10,
                "duration": 0.052272727272722364,
                "tempo": 120.0
            },
            {
                "start_time": 42.60681818181818,
                "end_time": 42.72272727272727,
                "pitch": 43,
                "velocity": 10,
                "duration": 0.11590909090909207,
                "tempo": 120.0
            },
            {
                "start_time": 42.554545454545455,
                "end_time": 42.72272727272727,
                "pitch": 55,
                "velocity": 10,
                "duration": 0.16818181818181444,
                "tempo": 120.0
            },
            {
                "start_time": 42.60681818181818,
                "end_time": 42.77272727272727,
                "pitch": 0,
                "velocity": 10,
                "duration": 0.16590909090909634,
                "tempo": 120.0
            },
            {
                "start_time": 42.72272727272727,
                "end_time": 42.77272727272727,
                "pitch": 43,
                "velocity": 10,
                "duration": 0.05000000000000426,
                "tempo": 120.0
            },
            {
                "start_time": 42.77272727272727,
                "end_time": 42.89090909090909,
                "pitch": 43,
                "velocity": 10,
                "duration": 0.11818181818181728,
                "tempo": 120.0
            },
            {
                "start_time": 42.72272727272727,
                "end_time": 42.89090909090909,
                "pitch": 55,
                "velocity": 10,
                "duration": 0.16818181818182154,
                "tempo": 120.0
            },
            {
                "start_time": 42.77272727272727,
                "end_time": 42.94318181818181,
                "pitch": 0,
                "velocity": 10,
                "duration": 0.17045454545453964,
                "tempo": 120.0
            },
            {
                "start_time": 42.89090909090909,
                "end_time": 42.94318181818181,
                "pitch": 43,
                "velocity": 10,
                "duration": 0.052272727272722364,
                "tempo": 120.0
            },
            {
                "start_time": 42.94318181818181,
                "end_time": 43.059090909090905,
                "pitch": 43,
                "velocity": 10,
                "duration": 0.11590909090909207,
                "tempo": 120.0
            },
            {
                "start_time": 42.89090909090909,
                "end_time": 43.059090909090905,
                "pitch": 55,
                "velocity": 10,
                "duration": 0.16818181818181444,
                "tempo": 120.0
            },
            {
                "start_time": 42.94318181818181,
                "end_time": 43.111363636363635,
                "pitch": 0,
                "velocity": 10,
                "duration": 0.16818181818182154,
                "tempo": 120.0
            },
            {
                "start_time": 43.059090909090905,
                "end_time": 43.111363636363635,
                "pitch": 43,
                "velocity": 10,
                "duration": 0.05227272727272947,
                "tempo": 120.0
            },
            {
                "start_time": 43.111363636363635,
                "end_time": 43.22954545454545,
                "pitch": 43,
                "velocity": 10,
                "duration": 0.11818181818181728,
                "tempo": 120.0
            },
            {
                "start_time": 43.059090909090905,
                "end_time": 43.22954545454545,
                "pitch": 55,
                "velocity": 10,
                "duration": 0.17045454545454675,
                "tempo": 120.0
            },
            {
                "start_time": 43.111363636363635,
                "end_time": 43.27954545454545,
                "pitch": 0,
                "velocity": 10,
                "duration": 0.16818181818181444,
                "tempo": 120.0
            },
            {
                "start_time": 43.22954545454545,
                "end_time": 43.27954545454545,
                "pitch": 43,
                "velocity": 10,
                "duration": 0.04999999999999716,
                "tempo": 120.0
            },
            {
                "start_time": 43.27954545454545,
                "end_time": 43.39772727272727,
                "pitch": 43,
                "velocity": 10,
                "duration": 0.11818181818182438,
                "tempo": 120.0
            },
            {
                "start_time": 43.22954545454545,
                "end_time": 43.39772727272727,
                "pitch": 55,
                "velocity": 10,
                "duration": 0.16818181818182154,
                "tempo": 120.0
            },
            {
                "start_time": 43.27954545454545,
                "end_time": 43.44772727272727,
                "pitch": 0,
                "velocity": 10,
                "duration": 0.16818181818182154,
                "tempo": 120.0
            },
            {
                "start_time": 43.39772727272727,
                "end_time": 43.44772727272727,
                "pitch": 43,
                "velocity": 10,
                "duration": 0.04999999999999716,
                "tempo": 120.0
            },
            {
                "start_time": 43.44772727272727,
                "end_time": 43.56590909090909,
                "pitch": 43,
                "velocity": 10,
                "duration": 0.11818181818181728,
                "tempo": 120.0
            },
            {
                "start_time": 43.39772727272727,
                "end_time": 43.56590909090909,
                "pitch": 55,
                "velocity": 10,
                "duration": 0.16818181818181444,
                "tempo": 120.0
            },
            {
                "start_time": 43.44772727272727,
                "end_time": 43.61818181818182,
                "pitch": 0,
                "velocity": 10,
                "duration": 0.17045454545454675,
                "tempo": 120.0
            },
            {
                "start_time": 43.56590909090909,
                "end_time": 43.61818181818182,
                "pitch": 43,
                "velocity": 10,
                "duration": 0.05227272727272947,
                "tempo": 120.0
            },
            {
                "start_time": 43.61818181818182,
                "end_time": 43.73409090909091,
                "pitch": 43,
                "velocity": 10,
                "duration": 0.11590909090909207,
                "tempo": 120.0
            },
            {
                "start_time": 43.56590909090909,
                "end_time": 43.73409090909091,
                "pitch": 55,
                "velocity": 10,
                "duration": 0.16818181818182154,
                "tempo": 120.0
            },
            {
                "start_time": 43.61818181818182,
                "end_time": 43.78409090909091,
                "pitch": 0,
                "velocity": 10,
                "duration": 0.16590909090908923,
                "tempo": 120.0
            },
            {
                "start_time": 43.73409090909091,
                "end_time": 43.78409090909091,
                "pitch": 43,
                "velocity": 10,
                "duration": 0.04999999999999716,
                "tempo": 120.0
            },
            {
                "start_time": 43.78409090909091,
                "end_time": 43.9,
                "pitch": 43,
                "velocity": 10,
                "duration": 0.11590909090909207,
                "tempo": 120.0
            },
            {
                "start_time": 43.73409090909091,
                "end_time": 43.9,
                "pitch": 55,
                "velocity": 10,
                "duration": 0.16590909090908923,
                "tempo": 120.0
            },
            {
                "start_time": 43.78409090909091,
                "end_time": 43.95227272727273,
                "pitch": 0,
                "velocity": 10,
                "duration": 0.16818181818182154,
                "tempo": 120.0
            },
            {
                "start_time": 43.9,
                "end_time": 43.95227272727273,
                "pitch": 43,
                "velocity": 10,
                "duration": 0.05227272727272947,
                "tempo": 120.0
            },
            {
                "start_time": 43.95227272727273,
                "end_time": 44.06818181818181,
                "pitch": 43,
                "velocity": 10,
                "duration": 0.11590909090908497,
                "tempo": 120.0
            },
            {
                "start_time": 43.9,
                "end_time": 44.06818181818181,
                "pitch": 55,
                "velocity": 10,
                "duration": 0.16818181818181444,
                "tempo": 120.0
            },
            {
                "start_time": 43.95227272727273,
                "end_time": 44.11818181818182,
                "pitch": 0,
                "velocity": 10,
                "duration": 0.16590909090908923,
                "tempo": 120.0
            },
            {
                "start_time": 44.06818181818181,
                "end_time": 44.11818181818182,
                "pitch": 43,
                "velocity": 10,
                "duration": 0.05000000000000426,
                "tempo": 120.0
            },
            {
                "start_time": 44.11818181818182,
                "end_time": 44.23409090909091,
                "pitch": 43,
                "velocity": 10,
                "duration": 0.11590909090909207,
                "tempo": 120.0
            },
            {
                "start_time": 44.06818181818181,
                "end_time": 44.23409090909091,
                "pitch": 55,
                "velocity": 10,
                "duration": 0.16590909090909634,
                "tempo": 120.0
            },
            {
                "start_time": 44.11818181818182,
                "end_time": 44.28409090909091,
                "pitch": 0,
                "velocity": 10,
                "duration": 0.16590909090908923,
                "tempo": 120.0
            },
            {
                "start_time": 44.23409090909091,
                "end_time": 44.28409090909091,
                "pitch": 43,
                "velocity": 10,
                "duration": 0.04999999999999716,
                "tempo": 120.0
            },
            {
                "start_time": 44.28409090909091,
                "end_time": 44.402272727272724,
                "pitch": 43,
                "velocity": 10,
                "duration": 0.11818181818181728,
                "tempo": 120.0
            },
            {
                "start_time": 44.23409090909091,
                "end_time": 44.402272727272724,
                "pitch": 55,
                "velocity": 10,
                "duration": 0.16818181818181444,
                "tempo": 120.0
            },
            {
                "start_time": 44.28409090909091,
                "end_time": 44.45227272727273,
                "pitch": 0,
                "velocity": 10,
                "duration": 0.16818181818182154,
                "tempo": 120.0
            },
            {
                "start_time": 44.402272727272724,
                "end_time": 44.45227272727273,
                "pitch": 43,
                "velocity": 10,
                "duration": 0.05000000000000426,
                "tempo": 120.0
            },
            {
                "start_time": 44.45227272727273,
                "end_time": 44.570454545454545,
                "pitch": 43,
                "velocity": 10,
                "duration": 0.11818181818181728,
                "tempo": 120.0
            },
            {
                "start_time": 44.402272727272724,
                "end_time": 44.570454545454545,
                "pitch": 55,
                "velocity": 10,
                "duration": 0.16818181818182154,
                "tempo": 120.0
            },
            {
                "start_time": 44.45227272727273,
                "end_time": 44.62272727272727,
                "pitch": 0,
                "velocity": 10,
                "duration": 0.17045454545453964,
                "tempo": 120.0
            },
            {
                "start_time": 44.570454545454545,
                "end_time": 44.62272727272727,
                "pitch": 43,
                "velocity": 10,
                "duration": 0.052272727272722364,
                "tempo": 120.0
            },
            {
                "start_time": 44.62272727272727,
                "end_time": 44.73863636363636,
                "pitch": 43,
                "velocity": 10,
                "duration": 0.11590909090909207,
                "tempo": 120.0
            },
            {
                "start_time": 44.570454545454545,
                "end_time": 44.73863636363636,
                "pitch": 55,
                "velocity": 10,
                "duration": 0.16818181818181444,
                "tempo": 120.0
            },
            {
                "start_time": 44.62272727272727,
                "end_time": 44.79090909090909,
                "pitch": 0,
                "velocity": 10,
                "duration": 0.16818181818182154,
                "tempo": 120.0
            },
            {
                "start_time": 44.73863636363636,
                "end_time": 44.79090909090909,
                "pitch": 43,
                "velocity": 10,
                "duration": 0.05227272727272947,
                "tempo": 120.0
            },
            {
                "start_time": 44.79090909090909,
                "end_time": 44.90909090909091,
                "pitch": 43,
                "velocity": 10,
                "duration": 0.11818181818181728,
                "tempo": 120.0
            },
            {
                "start_time": 44.73863636363636,
                "end_time": 44.90909090909091,
                "pitch": 55,
                "velocity": 10,
                "duration": 0.17045454545454675,
                "tempo": 120.0
            },
            {
                "start_time": 44.79090909090909,
                "end_time": 44.959090909090904,
                "pitch": 0,
                "velocity": 10,
                "duration": 0.16818181818181444,
                "tempo": 120.0
            },
            {
                "start_time": 44.90909090909091,
                "end_time": 44.959090909090904,
                "pitch": 43,
                "velocity": 10,
                "duration": 0.04999999999999716,
                "tempo": 120.0
            },
            {
                "start_time": 44.959090909090904,
                "end_time": 45.07727272727273,
                "pitch": 43,
                "velocity": 10,
                "duration": 0.11818181818182438,
                "tempo": 120.0
            },
            {
                "start_time": 44.90909090909091,
                "end_time": 45.07727272727273,
                "pitch": 55,
                "velocity": 10,
                "duration": 0.16818181818182154,
                "tempo": 120.0
            },
            {
                "start_time": 44.959090909090904,
                "end_time": 45.127272727272725,
                "pitch": 0,
                "velocity": 10,
                "duration": 0.16818181818182154,
                "tempo": 120.0
            },
            {
                "start_time": 45.07727272727273,
                "end_time": 45.127272727272725,
                "pitch": 43,
                "velocity": 10,
                "duration": 0.04999999999999716,
                "tempo": 120.0
            },
            {
                "start_time": 45.127272727272725,
                "end_time": 45.24545454545454,
                "pitch": 43,
                "velocity": 10,
                "duration": 0.11818181818181728,
                "tempo": 120.0
            },
            {
                "start_time": 45.07727272727273,
                "end_time": 45.24545454545454,
                "pitch": 55,
                "velocity": 10,
                "duration": 0.16818181818181444,
                "tempo": 120.0
            },
            {
                "start_time": 45.24545454545454,
                "end_time": 45.29545454545455,
                "pitch": 43,
                "velocity": 10,
                "duration": 0.05000000000000426,
                "tempo": 120.0
            },
            {
                "start_time": 45.127272727272725,
                "end_time": 45.29772727272727,
                "pitch": 0,
                "velocity": 10,
                "duration": 0.17045454545454675,
                "tempo": 120.0
            },
            {
                "start_time": 45.29545454545455,
                "end_time": 45.29772727272727,
                "pitch": 0,
                "velocity": 10,
                "duration": 0.0022727272727252057,
                "tempo": 120.0
            },
            {
                "start_time": 45.29772727272727,
                "end_time": 45.413636363636364,
                "pitch": 43,
                "velocity": 10,
                "duration": 0.11590909090909207,
                "tempo": 120.0
            },
            {
                "start_time": 45.24545454545454,
                "end_time": 45.413636363636364,
                "pitch": 55,
                "velocity": 10,
                "duration": 0.16818181818182154,
                "tempo": 120.0
            },
            {
                "start_time": 45.413636363636364,
                "end_time": 45.465909090909086,
                "pitch": 43,
                "velocity": 10,
                "duration": 0.052272727272722364,
                "tempo": 120.0
            },
            {
                "start_time": 45.465909090909086,
                "end_time": 45.58181818181818,
                "pitch": 43,
                "velocity": 10,
                "duration": 0.11590909090909207,
                "tempo": 120.0
            },
            {
                "start_time": 45.413636363636364,
                "end_time": 45.58181818181818,
                "pitch": 55,
                "velocity": 10,
                "duration": 0.16818181818181444,
                "tempo": 120.0
            },
            {
                "start_time": 45.465909090909086,
                "end_time": 45.63409090909091,
                "pitch": 0,
                "velocity": 10,
                "duration": 0.16818181818182154,
                "tempo": 120.0
            },
            {
                "start_time": 45.58181818181818,
                "end_time": 45.63409090909091,
                "pitch": 43,
                "velocity": 10,
                "duration": 0.05227272727272947,
                "tempo": 120.0
            },
            {
                "start_time": 45.63409090909091,
                "end_time": 45.75,
                "pitch": 43,
                "velocity": 10,
                "duration": 0.11590909090909207,
                "tempo": 120.0
            },
            {
                "start_time": 45.58181818181818,
                "end_time": 45.752272727272725,
                "pitch": 55,
                "velocity": 10,
                "duration": 0.17045454545454675,
                "tempo": 120.0
            },
            {
                "start_time": 45.75,
                "end_time": 45.752272727272725,
                "pitch": 55,
                "velocity": 10,
                "duration": 0.0022727272727252057,
                "tempo": 120.0
            },
            {
                "start_time": 45.63409090909091,
                "end_time": 45.80227272727272,
                "pitch": 0,
                "velocity": 10,
                "duration": 0.16818181818181444,
                "tempo": 120.0
            },
            {
                "start_time": 45.752272727272725,
                "end_time": 45.80227272727272,
                "pitch": 43,
                "velocity": 10,
                "duration": 0.04999999999999716,
                "tempo": 120.0
            },
            {
                "start_time": 45.80227272727272,
                "end_time": 45.92045454545455,
                "pitch": 43,
                "velocity": 10,
                "duration": 0.11818181818182438,
                "tempo": 120.0
            },
            {
                "start_time": 45.80227272727272,
                "end_time": 45.970454545454544,
                "pitch": 0,
                "velocity": 10,
                "duration": 0.16818181818182154,
                "tempo": 120.0
            },
            {
                "start_time": 45.92045454545455,
                "end_time": 45.970454545454544,
                "pitch": 43,
                "velocity": 10,
                "duration": 0.04999999999999716,
                "tempo": 120.0
            },
            {
                "start_time": 45.970454545454544,
                "end_time": 46.08863636363636,
                "pitch": 43,
                "velocity": 10,
                "duration": 0.11818181818181728,
                "tempo": 120.0
            },
            {
                "start_time": 45.92045454545455,
                "end_time": 46.08863636363636,
                "pitch": 55,
                "velocity": 10,
                "duration": 0.16818181818181444,
                "tempo": 120.0
            },
            {
                "start_time": 45.970454545454544,
                "end_time": 46.13863636363636,
                "pitch": 0,
                "velocity": 10,
                "duration": 0.16818181818181444,
                "tempo": 120.0
            },
            {
                "start_time": 46.08863636363636,
                "end_time": 46.13863636363636,
                "pitch": 43,
                "velocity": 10,
                "duration": 0.04999999999999716,
                "tempo": 120.0
            },
            {
                "start_time": 46.13863636363636,
                "end_time": 46.25681818181818,
                "pitch": 43,
                "velocity": 10,
                "duration": 0.11818181818182438,
                "tempo": 120.0
            },
            {
                "start_time": 46.08863636363636,
                "end_time": 46.25681818181818,
                "pitch": 55,
                "velocity": 10,
                "duration": 0.16818181818182154,
                "tempo": 120.0
            },
            {
                "start_time": 46.13863636363636,
                "end_time": 46.309090909090905,
                "pitch": 0,
                "velocity": 10,
                "duration": 0.17045454545454675,
                "tempo": 120.0
            },
            {
                "start_time": 46.25681818181818,
                "end_time": 46.309090909090905,
                "pitch": 43,
                "velocity": 10,
                "duration": 0.052272727272722364,
                "tempo": 120.0
            },
            {
                "start_time": 46.309090909090905,
                "end_time": 46.425,
                "pitch": 43,
                "velocity": 10,
                "duration": 0.11590909090909207,
                "tempo": 120.0
            },
            {
                "start_time": 46.25681818181818,
                "end_time": 46.425,
                "pitch": 55,
                "velocity": 10,
                "duration": 0.16818181818181444,
                "tempo": 120.0
            },
            {
                "start_time": 46.309090909090905,
                "end_time": 46.474999999999994,
                "pitch": 0,
                "velocity": 10,
                "duration": 0.16590909090908923,
                "tempo": 120.0
            },
            {
                "start_time": 46.425,
                "end_time": 46.474999999999994,
                "pitch": 43,
                "velocity": 10,
                "duration": 0.04999999999999716,
                "tempo": 120.0
            },
            {
                "start_time": 46.474999999999994,
                "end_time": 46.59318181818182,
                "pitch": 43,
                "velocity": 10,
                "duration": 0.11818181818182438,
                "tempo": 120.0
            },
            {
                "start_time": 46.425,
                "end_time": 46.59318181818182,
                "pitch": 55,
                "velocity": 10,
                "duration": 0.16818181818182154,
                "tempo": 120.0
            },
            {
                "start_time": 46.474999999999994,
                "end_time": 46.64545454545454,
                "pitch": 0,
                "velocity": 10,
                "duration": 0.17045454545454675,
                "tempo": 120.0
            },
            {
                "start_time": 46.59318181818182,
                "end_time": 46.64545454545454,
                "pitch": 43,
                "velocity": 10,
                "duration": 0.052272727272722364,
                "tempo": 120.0
            },
            {
                "start_time": 50.69318181818181,
                "end_time": 51.30681818181818,
                "pitch": 69,
                "velocity": 10,
                "duration": 0.6136363636363669,
                "tempo": 120.0
            }
        ]
    }
}