{
    "track_id": "17 Mission 7",
    "mood": "angry",
    "instruments": {
        "Electric Piano 1": [
            {
                "start_time": 0.08636363636363636,
                "end_time": 1.4,
                "pitch": 55,
                "velocity": 20,
                "duration": 1.3136363636363635,
                "tempo": 120.0
            },
            {
                "start_time": 1.4318181818181817,
                "end_time": 2.7613636363636362,
                "pitch": 62,
                "velocity": 20,
                "duration": 1.3295454545454546,
                "tempo": 120.0
            },
            {
                "start_time": 2.7795454545454543,
                "end_time": 4.118181818181818,
                "pitch": 65,
                "velocity": 20,
                "duration": 1.3386363636363638,
                "tempo": 120.0
            },
            {
                "start_time": 4.152272727272727,
                "end_time": 5.4818181818181815,
                "pitch": 70,
                "velocity": 20,
                "duration": 1.3295454545454541,
                "tempo": 120.0
            },
            {
                "start_time": 5.497727272727272,
                "end_time": 5.5659090909090905,
                "pitch": 74,
                "velocity": 20,
                "duration": 0.06818181818181834,
                "tempo": 120.0
            },
            {
                "start_time": 5.665909090909091,
                "end_time": 5.7318181818181815,
                "pitch": 74,
                "velocity": 16,
                "duration": 0.06590909090909047,
                "tempo": 120.0
            },
            {
                "start_time": 5.852272727272727,
                "end_time": 5.904545454545454,
                "pitch": 74,
                "velocity": 13,
                "duration": 0.05227272727272769,
                "tempo": 120.0
            },
            {
                "start_time": 6.0249999999999995,
                "end_time": 6.074999999999999,
                "pitch": 74,
                "velocity": 10,
                "duration": 0.04999999999999982,
                "tempo": 120.0
            },
            {
                "start_time": 6.1931818181818175,
                "end_time": 6.24090909090909,
                "pitch": 74,
                "velocity": 8,
                "duration": 0.04772727272727284,
                "tempo": 120.0
            },
            {
                "start_time": 6.3545454545454545,
                "end_time": 6.404545454545454,
                "pitch": 74,
                "velocity": 6,
                "duration": 0.04999999999999982,
                "tempo": 120.0
            },
            {
                "start_time": 6.5204545454545455,
                "end_time": 6.586363636363636,
                "pitch": 74,
                "velocity": 5,
                "duration": 0.06590909090909047,
                "tempo": 120.0
            },
            {
                "start_time": 6.686363636363636,
                "end_time": 6.754545454545454,
                "pitch": 74,
                "velocity": 4,
                "duration": 0.06818181818181834,
                "tempo": 120.0
            },
            {
                "start_time": 10.95,
                "end_time": 11.597727272727273,
                "pitch": 69,
                "velocity": 25,
                "duration": 0.6477272727272734,
                "tempo": 120.0
            },
            {
                "start_time": 11.61590909090909,
                "end_time": 12.268181818181818,
                "pitch": 70,
                "velocity": 25,
                "duration": 0.6522727272727273,
                "tempo": 120.0
            },
            {
                "start_time": 12.302272727272726,
                "end_time": 12.618181818181817,
                "pitch": 72,
                "velocity": 25,
                "duration": 0.31590909090909136,
                "tempo": 120.0
            },
            {
                "start_time": 12.634090909090908,
                "end_time": 12.779545454545454,
                "pitch": 70,
                "velocity": 25,
                "duration": 0.1454545454545464,
                "tempo": 120.0
            },
            {
                "start_time": 12.813636363636363,
                "end_time": 13.118181818181817,
                "pitch": 72,
                "velocity": 25,
                "duration": 0.3045454545454547,
                "tempo": 120.0
            },
            {
                "start_time": 13.152272727272727,
                "end_time": 13.288636363636362,
                "pitch": 70,
                "velocity": 25,
                "duration": 0.1363636363636349,
                "tempo": 120.0
            },
            {
                "start_time": 13.322727272727272,
                "end_time": 13.472727272727273,
                "pitch": 69,
                "velocity": 25,
                "duration": 0.15000000000000036,
                "tempo": 120.0
            },
            {
                "start_time": 13.49090909090909,
                "end_time": 13.59090909090909,
                "pitch": 67,
                "velocity": 25,
                "duration": 0.09999999999999964,
                "tempo": 120.0
            },
            {
                "start_time": 13.59090909090909,
                "end_time": 13.638636363636364,
                "pitch": 67,
                "velocity": 25,
                "duration": 0.04772727272727373,
                "tempo": 120.0
            },
            {
                "start_time": 13.672727272727272,
                "end_time": 13.802272727272726,
                "pitch": 70,
                "velocity": 25,
                "duration": 0.12954545454545396,
                "tempo": 120.0
            },
            {
                "start_time": 13.834090909090909,
                "end_time": 13.96590909090909,
                "pitch": 62,
                "velocity": 25,
                "duration": 0.13181818181818095,
                "tempo": 120.0
            },
            {
                "start_time": 14.172727272727272,
                "end_time": 14.325,
                "pitch": 70,
                "velocity": 20,
                "duration": 0.15227272727272734,
                "tempo": 120.0
            },
            {
                "start_time": 14.34090909090909,
                "end_time": 14.488636363636363,
                "pitch": 62,
                "velocity": 20,
                "duration": 0.14772727272727337,
                "tempo": 120.0
            },
            {
                "start_time": 14.686363636363636,
                "end_time": 14.820454545454545,
                "pitch": 70,
                "velocity": 16,
                "duration": 0.1340909090909097,
                "tempo": 120.0
            },
            {
                "start_time": 14.852272727272727,
                "end_time": 14.988636363636363,
                "pitch": 62,
                "velocity": 16,
                "duration": 0.1363636363636367,
                "tempo": 120.0
            },
            {
                "start_time": 15.195454545454545,
                "end_time": 15.345454545454544,
                "pitch": 70,
                "velocity": 13,
                "duration": 0.14999999999999858,
                "tempo": 120.0
            },
            {
                "start_time": 15.361363636363636,
                "end_time": 15.509090909090908,
                "pitch": 62,
                "velocity": 13,
                "duration": 0.1477272727272716,
                "tempo": 120.0
            },
            {
                "start_time": 15.70681818181818,
                "end_time": 15.84090909090909,
                "pitch": 70,
                "velocity": 10,
                "duration": 0.1340909090909097,
                "tempo": 120.0
            },
            {
                "start_time": 15.875,
                "end_time": 16.009090909090908,
                "pitch": 62,
                "velocity": 10,
                "duration": 0.13409090909090793,
                "tempo": 120.0
            },
            {
                "start_time": 16.384090909090908,
                "end_time": 17.036363636363635,
                "pitch": 69,
                "velocity": 25,
                "duration": 0.6522727272727273,
                "tempo": 120.0
            },
            {
                "start_time": 17.070454545454545,
                "end_time": 17.71590909090909,
                "pitch": 70,
                "velocity": 25,
                "duration": 0.6454545454545446,
                "tempo": 120.0
            },
            {
                "start_time": 17.752272727272725,
                "end_time": 18.05909090909091,
                "pitch": 72,
                "velocity": 25,
                "duration": 0.30681818181818343,
                "tempo": 120.0
            },
            {
                "start_time": 18.09090909090909,
                "end_time": 18.220454545454544,
                "pitch": 70,
                "velocity": 25,
                "duration": 0.12954545454545396,
                "tempo": 120.0
            },
            {
                "start_time": 18.254545454545454,
                "end_time": 18.568181818181817,
                "pitch": 72,
                "velocity": 25,
                "duration": 0.3136363636363626,
                "tempo": 120.0
            },
            {
                "start_time": 18.602272727272727,
                "end_time": 18.738636363636363,
                "pitch": 70,
                "velocity": 25,
                "duration": 0.1363636363636367,
                "tempo": 120.0
            },
            {
                "start_time": 18.772727272727273,
                "end_time": 18.911363636363635,
                "pitch": 69,
                "velocity": 25,
                "duration": 0.1386363636363619,
                "tempo": 120.0
            },
            {
                "start_time": 18.945454545454545,
                "end_time": 19.047727272727272,
                "pitch": 67,
                "velocity": 25,
                "duration": 0.10227272727272663,
                "tempo": 120.0
            },
            {
                "start_time": 13.59090909090909,
                "end_time": 19.047727272727272,
                "pitch": 79,
                "velocity": 25,
                "duration": 5.456818181818182,
                "tempo": 120.0
            },
            {
                "start_time": 19.047727272727272,
                "end_time": 19.079545454545453,
                "pitch": 67,
                "velocity": 25,
                "duration": 0.0318181818181813,
                "tempo": 120.0
            },
            {
                "start_time": 19.111363636363635,
                "end_time": 19.243181818181817,
                "pitch": 70,
                "velocity": 25,
                "duration": 0.13181818181818272,
                "tempo": 120.0
            },
            {
                "start_time": 19.275,
                "end_time": 19.422727272727272,
                "pitch": 62,
                "velocity": 25,
                "duration": 0.14772727272727337,
                "tempo": 120.0
            },
            {
                "start_time": 19.618181818181817,
                "end_time": 19.75,
                "pitch": 70,
                "velocity": 20,
                "duration": 0.13181818181818272,
                "tempo": 120.0
            },
            {
                "start_time": 19.784090909090907,
                "end_time": 19.922727272727272,
                "pitch": 62,
                "velocity": 20,
                "duration": 0.13863636363636545,
                "tempo": 120.0
            },
            {
                "start_time": 20.127272727272725,
                "end_time": 20.277272727272727,
                "pitch": 70,
                "velocity": 16,
                "duration": 0.15000000000000213,
                "tempo": 120.0
            },
            {
                "start_time": 20.293181818181818,
                "end_time": 20.443181818181817,
                "pitch": 62,
                "velocity": 16,
                "duration": 0.14999999999999858,
                "tempo": 120.0
            },
            {
                "start_time": 20.638636363636362,
                "end_time": 20.770454545454545,
                "pitch": 70,
                "velocity": 13,
                "duration": 0.13181818181818272,
                "tempo": 120.0
            },
            {
                "start_time": 20.804545454545455,
                "end_time": 20.943181818181817,
                "pitch": 62,
                "velocity": 13,
                "duration": 0.1386363636363619,
                "tempo": 120.0
            },
            {
                "start_time": 21.147727272727273,
                "end_time": 21.297727272727272,
                "pitch": 70,
                "velocity": 10,
                "duration": 0.14999999999999858,
                "tempo": 120.0
            },
            {
                "start_time": 21.31590909090909,
                "end_time": 21.46363636363636,
                "pitch": 62,
                "velocity": 10,
                "duration": 0.14772727272726982,
                "tempo": 120.0
            },
            {
                "start_time": 21.827272727272724,
                "end_time": 22.486363636363635,
                "pitch": 63,
                "velocity": 25,
                "duration": 0.6590909090909101,
                "tempo": 120.0
            },
            {
                "start_time": 22.502272727272725,
                "end_time": 22.599999999999998,
                "pitch": 67,
                "velocity": 25,
                "duration": 0.09772727272727266,
                "tempo": 120.0
            },
            {
                "start_time": 19.047727272727272,
                "end_time": 22.599999999999998,
                "pitch": 79,
                "velocity": 25,
                "duration": 3.552272727272726,
                "tempo": 120.0
            },
            {
                "start_time": 22.599999999999998,
                "end_time": 22.679545454545455,
                "pitch": 67,
                "velocity": 25,
                "duration": 0.0795454545454568,
                "tempo": 120.0
            },
            {
                "start_time": 22.679545454545455,
                "end_time": 22.68181818181818,
                "pitch": 0,
                "velocity": 25,
                "duration": 0.0022727272727252057,
                "tempo": 120.0
            },
            {
                "start_time": 22.68181818181818,
                "end_time": 22.795454545454543,
                "pitch": 67,
                "velocity": 25,
                "duration": 0.11363636363636331,
                "tempo": 120.0
            },
            {
                "start_time": 22.599999999999998,
                "end_time": 22.795454545454543,
                "pitch": 79,
                "velocity": 25,
                "duration": 0.19545454545454533,
                "tempo": 120.0
            },
            {
                "start_time": 22.795454545454543,
                "end_time": 22.88181818181818,
                "pitch": 67,
                "velocity": 25,
                "duration": 0.08636363636363598,
                "tempo": 120.0
            },
            {
                "start_time": 22.88181818181818,
                "end_time": 23.002272727272725,
                "pitch": 67,
                "velocity": 25,
                "duration": 0.12045454545454604,
                "tempo": 120.0
            },
            {
                "start_time": 22.795454545454543,
                "end_time": 23.002272727272725,
                "pitch": 79,
                "velocity": 25,
                "duration": 0.206818181818182,
                "tempo": 120.0
            },
            {
                "start_time": 22.88181818181818,
                "end_time": 23.08863636363636,
                "pitch": 0,
                "velocity": 25,
                "duration": 0.206818181818182,
                "tempo": 120.0
            },
            {
                "start_time": 23.002272727272725,
                "end_time": 23.08863636363636,
                "pitch": 67,
                "velocity": 25,
                "duration": 0.08636363636363598,
                "tempo": 120.0
            },
            {
                "start_time": 23.08863636363636,
                "end_time": 23.154545454545453,
                "pitch": 67,
                "velocity": 25,
                "duration": 0.06590909090909136,
                "tempo": 120.0
            },
            {
                "start_time": 23.188636363636363,
                "end_time": 23.834090909090907,
                "pitch": 70,
                "velocity": 25,
                "duration": 0.6454545454545446,
                "tempo": 120.0
            },
            {
                "start_time": 24.034090909090907,
                "end_time": 24.134090909090908,
                "pitch": 67,
                "velocity": 25,
                "duration": 0.10000000000000142,
                "tempo": 120.0
            },
            {
                "start_time": 23.002272727272725,
                "end_time": 24.134090909090908,
                "pitch": 79,
                "velocity": 25,
                "duration": 1.1318181818181827,
                "tempo": 120.0
            },
            {
                "start_time": 24.134090909090908,
                "end_time": 24.168181818181818,
                "pitch": 67,
                "velocity": 25,
                "duration": 0.03409090909091006,
                "tempo": 120.0
            },
            {
                "start_time": 24.202272727272724,
                "end_time": 24.352272727272727,
                "pitch": 69,
                "velocity": 25,
                "duration": 0.15000000000000213,
                "tempo": 120.0
            },
            {
                "start_time": 24.368181818181817,
                "end_time": 24.520454545454545,
                "pitch": 70,
                "velocity": 25,
                "duration": 0.15227272727272734,
                "tempo": 120.0
            },
            {
                "start_time": 24.554545454545455,
                "end_time": 24.686363636363634,
                "pitch": 72,
                "velocity": 25,
                "duration": 0.13181818181817917,
                "tempo": 120.0
            },
            {
                "start_time": 26.763636363636362,
                "end_time": 26.89772727272727,
                "pitch": 70,
                "velocity": 25,
                "duration": 0.13409090909090793,
                "tempo": 120.0
            },
            {
                "start_time": 26.929545454545455,
                "end_time": 27.063636363636363,
                "pitch": 69,
                "velocity": 25,
                "duration": 0.13409090909090793,
                "tempo": 120.0
            },
            {
                "start_time": 27.097727272727273,
                "end_time": 27.19772727272727,
                "pitch": 67,
                "velocity": 25,
                "duration": 0.09999999999999787,
                "tempo": 120.0
            },
            {
                "start_time": 24.134090909090908,
                "end_time": 27.19772727272727,
                "pitch": 79,
                "velocity": 25,
                "duration": 3.0636363636363626,
                "tempo": 120.0
            },
            {
                "start_time": 27.19772727272727,
                "end_time": 27.24772727272727,
                "pitch": 67,
                "velocity": 25,
                "duration": 0.05000000000000071,
                "tempo": 120.0
            },
            {
                "start_time": 27.26590909090909,
                "end_time": 27.41590909090909,
                "pitch": 70,
                "velocity": 25,
                "duration": 0.14999999999999858,
                "tempo": 120.0
            },
            {
                "start_time": 27.43181818181818,
                "end_time": 27.534090909090907,
                "pitch": 67,
                "velocity": 25,
                "duration": 0.10227272727272663,
                "tempo": 120.0
            },
            {
                "start_time": 27.19772727272727,
                "end_time": 27.534090909090907,
                "pitch": 79,
                "velocity": 25,
                "duration": 0.336363636363636,
                "tempo": 120.0
            },
            {
                "start_time": 27.534090909090907,
                "end_time": 27.584090909090907,
                "pitch": 67,
                "velocity": 25,
                "duration": 0.05000000000000071,
                "tempo": 120.0
            },
            {
                "start_time": 27.79090909090909,
                "end_time": 27.927272727272726,
                "pitch": 70,
                "velocity": 20,
                "duration": 0.1363636363636367,
                "tempo": 120.0
            },
            {
                "start_time": 27.959090909090907,
                "end_time": 28.05681818181818,
                "pitch": 67,
                "velocity": 20,
                "duration": 0.09772727272727266,
                "tempo": 120.0
            },
            {
                "start_time": 27.534090909090907,
                "end_time": 28.05681818181818,
                "pitch": 79,
                "velocity": 25,
                "duration": 0.5227272727272734,
                "tempo": 120.0
            },
            {
                "start_time": 28.05681818181818,
                "end_time": 28.08863636363636,
                "pitch": 67,
                "velocity": 20,
                "duration": 0.0318181818181813,
                "tempo": 120.0
            },
            {
                "start_time": 28.284090909090907,
                "end_time": 28.429545454545455,
                "pitch": 70,
                "velocity": 16,
                "duration": 0.14545454545454817,
                "tempo": 120.0
            },
            {
                "start_time": 28.44772727272727,
                "end_time": 28.545454545454543,
                "pitch": 67,
                "velocity": 16,
                "duration": 0.09772727272727266,
                "tempo": 120.0
            },
            {
                "start_time": 28.05681818181818,
                "end_time": 28.545454545454543,
                "pitch": 79,
                "velocity": 20,
                "duration": 0.4886363636363633,
                "tempo": 120.0
            },
            {
                "start_time": 28.545454545454543,
                "end_time": 28.595454545454544,
                "pitch": 67,
                "velocity": 16,
                "duration": 0.05000000000000071,
                "tempo": 120.0
            },
            {
                "start_time": 28.802272727272726,
                "end_time": 28.938636363636363,
                "pitch": 70,
                "velocity": 13,
                "duration": 0.1363636363636367,
                "tempo": 120.0
            },
            {
                "start_time": 28.972727272727273,
                "end_time": 29.07272727272727,
                "pitch": 67,
                "velocity": 13,
                "duration": 0.09999999999999787,
                "tempo": 120.0
            },
            {
                "start_time": 28.545454545454543,
                "end_time": 29.07272727272727,
                "pitch": 79,
                "velocity": 16,
                "duration": 0.5272727272727273,
                "tempo": 120.0
            },
            {
                "start_time": 29.07272727272727,
                "end_time": 29.10681818181818,
                "pitch": 67,
                "velocity": 13,
                "duration": 0.03409090909091006,
                "tempo": 120.0
            },
            {
                "start_time": 29.304545454545455,
                "end_time": 29.452272727272724,
                "pitch": 70,
                "velocity": 10,
                "duration": 0.14772727272726982,
                "tempo": 120.0
            },
            {
                "start_time": 29.48409090909091,
                "end_time": 29.581818181818182,
                "pitch": 67,
                "velocity": 10,
                "duration": 0.09772727272727266,
                "tempo": 120.0
            },
            {
                "start_time": 29.07272727272727,
                "end_time": 29.581818181818182,
                "pitch": 79,
                "velocity": 13,
                "duration": 0.5090909090909115,
                "tempo": 120.0
            },
            {
                "start_time": 29.581818181818182,
                "end_time": 29.618181818181817,
                "pitch": 67,
                "velocity": 10,
                "duration": 0.036363636363635266,
                "tempo": 120.0
            },
            {
                "start_time": 29.995454545454542,
                "end_time": 30.145454545454545,
                "pitch": 70,
                "velocity": 25,
                "duration": 0.15000000000000213,
                "tempo": 120.0
            },
            {
                "start_time": 30.161363636363635,
                "end_time": 30.261363636363633,
                "pitch": 67,
                "velocity": 25,
                "duration": 0.09999999999999787,
                "tempo": 120.0
            },
            {
                "start_time": 29.581818181818182,
                "end_time": 30.261363636363633,
                "pitch": 79,
                "velocity": 10,
                "duration": 0.6795454545454511,
                "tempo": 120.0
            },
            {
                "start_time": 30.261363636363633,
                "end_time": 30.311363636363634,
                "pitch": 67,
                "velocity": 25,
                "duration": 0.05000000000000071,
                "tempo": 120.0
            },
            {
                "start_time": 30.50681818181818,
                "end_time": 30.638636363636362,
                "pitch": 70,
                "velocity": 20,
                "duration": 0.13181818181818272,
                "tempo": 120.0
            },
            {
                "start_time": 30.672727272727272,
                "end_time": 30.777272727272727,
                "pitch": 67,
                "velocity": 20,
                "duration": 0.10454545454545539,
                "tempo": 120.0
            },
            {
                "start_time": 30.261363636363633,
                "end_time": 30.777272727272727,
                "pitch": 79,
                "velocity": 25,
                "duration": 0.5159090909090942,
                "tempo": 120.0
            },
            {
                "start_time": 30.777272727272727,
                "end_time": 30.811363636363634,
                "pitch": 67,
                "velocity": 20,
                "duration": 0.03409090909090651,
                "tempo": 120.0
            },
            {
                "start_time": 31.013636363636362,
                "end_time": 31.159090909090907,
                "pitch": 70,
                "velocity": 16,
                "duration": 0.14545454545454461,
                "tempo": 120.0
            },
            {
                "start_time": 31.174999999999997,
                "end_time": 31.27272727272727,
                "pitch": 67,
                "velocity": 16,
                "duration": 0.09772727272727266,
                "tempo": 120.0
            },
            {
                "start_time": 30.777272727272727,
                "end_time": 31.27272727272727,
                "pitch": 79,
                "velocity": 20,
                "duration": 0.4954545454545425,
                "tempo": 120.0
            },
            {
                "start_time": 31.27272727272727,
                "end_time": 31.32272727272727,
                "pitch": 67,
                "velocity": 16,
                "duration": 0.05000000000000071,
                "tempo": 120.0
            },
            {
                "start_time": 31.525,
                "end_time": 31.659090909090907,
                "pitch": 70,
                "velocity": 13,
                "duration": 0.13409090909090793,
                "tempo": 120.0
            },
            {
                "start_time": 31.693181818181817,
                "end_time": 31.797727272727272,
                "pitch": 67,
                "velocity": 13,
                "duration": 0.10454545454545539,
                "tempo": 120.0
            },
            {
                "start_time": 31.27272727272727,
                "end_time": 31.797727272727272,
                "pitch": 79,
                "velocity": 16,
                "duration": 0.5250000000000021,
                "tempo": 120.0
            },
            {
                "start_time": 31.797727272727272,
                "end_time": 31.831818181818182,
                "pitch": 67,
                "velocity": 13,
                "duration": 0.03409090909091006,
                "tempo": 120.0
            },
            {
                "start_time": 32.03409090909091,
                "end_time": 32.179545454545455,
                "pitch": 70,
                "velocity": 10,
                "duration": 0.14545454545454817,
                "tempo": 120.0
            },
            {
                "start_time": 32.19772727272727,
                "end_time": 32.29545454545455,
                "pitch": 67,
                "velocity": 10,
                "duration": 0.09772727272727622,
                "tempo": 120.0
            },
            {
                "start_time": 31.797727272727272,
                "end_time": 32.29545454545455,
                "pitch": 79,
                "velocity": 13,
                "duration": 0.4977272727272748,
                "tempo": 120.0
            },
            {
                "start_time": 32.29545454545455,
                "end_time": 32.34318181818182,
                "pitch": 67,
                "velocity": 10,
                "duration": 0.04772727272727195,
                "tempo": 120.0
            },
            {
                "start_time": 32.70681818181818,
                "end_time": 33.36590909090909,
                "pitch": 69,
                "velocity": 25,
                "duration": 0.6590909090909136,
                "tempo": 120.0
            },
            {
                "start_time": 33.38409090909091,
                "end_time": 34.03636363636363,
                "pitch": 70,
                "velocity": 25,
                "duration": 0.6522727272727238,
                "tempo": 120.0
            },
            {
                "start_time": 34.070454545454545,
                "end_time": 34.38636363636363,
                "pitch": 72,
                "velocity": 25,
                "duration": 0.3159090909090878,
                "tempo": 120.0
            },
            {
                "start_time": 34.418181818181814,
                "end_time": 34.54772727272727,
                "pitch": 70,
                "velocity": 25,
                "duration": 0.12954545454545752,
                "tempo": 120.0
            },
            {
                "start_time": 34.58181818181818,
                "end_time": 34.88636363636363,
                "pitch": 72,
                "velocity": 25,
                "duration": 0.3045454545454547,
                "tempo": 120.0
            },
            {
                "start_time": 34.92045454545455,
                "end_time": 35.070454545454545,
                "pitch": 70,
                "velocity": 25,
                "duration": 0.14999999999999858,
                "tempo": 120.0
            },
            {
                "start_time": 35.08863636363636,
                "end_time": 35.23409090909091,
                "pitch": 69,
                "velocity": 25,
                "duration": 0.14545454545454817,
                "tempo": 120.0
            },
            {
                "start_time": 35.25,
                "end_time": 35.35,
                "pitch": 67,
                "velocity": 25,
                "duration": 0.10000000000000142,
                "tempo": 120.0
            },
            {
                "start_time": 32.29545454545455,
                "end_time": 35.35,
                "pitch": 79,
                "velocity": 10,
                "duration": 3.0545454545454547,
                "tempo": 120.0
            },
            {
                "start_time": 35.35,
                "end_time": 35.39772727272727,
                "pitch": 67,
                "velocity": 25,
                "duration": 0.04772727272727195,
                "tempo": 120.0
            },
            {
                "start_time": 35.43181818181818,
                "end_time": 35.56590909090909,
                "pitch": 70,
                "velocity": 25,
                "duration": 0.13409090909090793,
                "tempo": 120.0
            },
            {
                "start_time": 35.6,
                "end_time": 35.73409090909091,
                "pitch": 62,
                "velocity": 25,
                "duration": 0.13409090909090793,
                "tempo": 120.0
            },
            {
                "start_time": 35.94090909090909,
                "end_time": 36.09318181818182,
                "pitch": 70,
                "velocity": 20,
                "duration": 0.1522727272727309,
                "tempo": 120.0
            },
            {
                "start_time": 36.10909090909091,
                "end_time": 36.25681818181818,
                "pitch": 62,
                "velocity": 20,
                "duration": 0.14772727272727337,
                "tempo": 120.0
            },
            {
                "start_time": 36.45454545454545,
                "end_time": 36.58863636363636,
                "pitch": 70,
                "velocity": 16,
                "duration": 0.13409090909090793,
                "tempo": 120.0
            },
            {
                "start_time": 36.62045454545454,
                "end_time": 36.75454545454545,
                "pitch": 62,
                "velocity": 16,
                "duration": 0.13409090909090793,
                "tempo": 120.0
            },
            {
                "start_time": 36.95681818181818,
                "end_time": 37.10681818181818,
                "pitch": 70,
                "velocity": 13,
                "duration": 0.14999999999999858,
                "tempo": 120.0
            },
            {
                "start_time": 37.12272727272727,
                "end_time": 37.275,
                "pitch": 62,
                "velocity": 13,
                "duration": 0.1522727272727309,
                "tempo": 120.0
            },
            {
                "start_time": 37.47727272727273,
                "end_time": 37.61590909090909,
                "pitch": 70,
                "velocity": 10,
                "duration": 0.13863636363636545,
                "tempo": 120.0
            },
            {
                "start_time": 37.65,
                "end_time": 37.78409090909091,
                "pitch": 62,
                "velocity": 10,
                "duration": 0.13409090909090793,
                "tempo": 120.0
            },
            {
                "start_time": 38.14545454545454,
                "end_time": 38.804545454545455,
                "pitch": 69,
                "velocity": 25,
                "duration": 0.6590909090909136,
                "tempo": 120.0
            },
            {
                "start_time": 38.83863636363636,
                "end_time": 39.48409090909091,
                "pitch": 70,
                "velocity": 25,
                "duration": 0.6454545454545482,
                "tempo": 120.0
            },
            {
                "start_time": 39.52045454545454,
                "end_time": 39.82727272727273,
                "pitch": 72,
                "velocity": 25,
                "duration": 0.306818181818187,
                "tempo": 120.0
            },
            {
                "start_time": 39.85909090909091,
                "end_time": 40.00454545454545,
                "pitch": 70,
                "velocity": 25,
                "duration": 0.14545454545454106,
                "tempo": 120.0
            },
            {
                "start_time": 40.02272727272727,
                "end_time": 40.336363636363636,
                "pitch": 72,
                "velocity": 25,
                "duration": 0.3136363636363626,
                "tempo": 120.0
            },
            {
                "start_time": 40.37045454545454,
                "end_time": 40.50454545454545,
                "pitch": 70,
                "velocity": 25,
                "duration": 0.13409090909090793,
                "tempo": 120.0
            },
            {
                "start_time": 40.538636363636364,
                "end_time": 40.67272727272727,
                "pitch": 69,
                "velocity": 25,
                "duration": 0.13409090909090793,
                "tempo": 120.0
            },
            {
                "start_time": 40.70681818181818,
                "end_time": 40.80681818181818,
                "pitch": 67,
                "velocity": 25,
                "duration": 0.10000000000000142,
                "tempo": 120.0
            },
            {
                "start_time": 35.35,
                "end_time": 40.80681818181818,
                "pitch": 79,
                "velocity": 25,
                "duration": 5.4568181818181785,
                "tempo": 120.0
            },
            {
                "start_time": 40.80681818181818,
                "end_time": 40.840909090909086,
                "pitch": 67,
                "velocity": 25,
                "duration": 0.03409090909090651,
                "tempo": 120.0
            },
            {
                "start_time": 40.87272727272727,
                "end_time": 41.02272727272727,
                "pitch": 70,
                "velocity": 25,
                "duration": 0.15000000000000568,
                "tempo": 120.0
            },
            {
                "start_time": 41.04090909090909,
                "end_time": 41.18863636363636,
                "pitch": 62,
                "velocity": 25,
                "duration": 0.14772727272727337,
                "tempo": 120.0
            },
            {
                "start_time": 41.38409090909091,
                "end_time": 41.518181818181816,
                "pitch": 70,
                "velocity": 20,
                "duration": 0.13409090909090793,
                "tempo": 120.0
            },
            {
                "start_time": 41.55227272727272,
                "end_time": 41.68863636363636,
                "pitch": 62,
                "velocity": 20,
                "duration": 0.13636363636364024,
                "tempo": 120.0
            },
            {
                "start_time": 41.89545454545454,
                "end_time": 42.04545454545455,
                "pitch": 70,
                "velocity": 16,
                "duration": 0.15000000000000568,
                "tempo": 120.0
            },
            {
                "start_time": 42.06136363636364,
                "end_time": 42.211363636363636,
                "pitch": 62,
                "velocity": 16,
                "duration": 0.14999999999999858,
                "tempo": 120.0
            },
            {
                "start_time": 42.40681818181818,
                "end_time": 42.538636363636364,
                "pitch": 70,
                "velocity": 13,
                "duration": 0.13181818181818272,
                "tempo": 120.0
            },
            {
                "start_time": 42.57272727272727,
                "end_time": 42.711363636363636,
                "pitch": 62,
                "velocity": 13,
                "duration": 0.13863636363636545,
                "tempo": 120.0
            },
            {
                "start_time": 42.913636363636364,
                "end_time": 43.059090909090905,
                "pitch": 70,
                "velocity": 10,
                "duration": 0.14545454545454106,
                "tempo": 120.0
            },
            {
                "start_time": 43.074999999999996,
                "end_time": 43.225,
                "pitch": 62,
                "velocity": 10,
                "duration": 0.15000000000000568,
                "tempo": 120.0
            },
            {
                "start_time": 43.595454545454544,
                "end_time": 44.24545454545454,
                "pitch": 63,
                "velocity": 25,
                "duration": 0.6499999999999986,
                "tempo": 120.0
            },
            {
                "start_time": 44.27954545454545,
                "end_time": 44.37954545454545,
                "pitch": 67,
                "velocity": 25,
                "duration": 0.10000000000000142,
                "tempo": 120.0
            },
            {
                "start_time": 40.80681818181818,
                "end_time": 44.37954545454545,
                "pitch": 79,
                "velocity": 25,
                "duration": 3.5727272727272705,
                "tempo": 120.0
            },
            {
                "start_time": 44.37954545454545,
                "end_time": 44.461363636363636,
                "pitch": 67,
                "velocity": 25,
                "duration": 0.08181818181818556,
                "tempo": 120.0
            },
            {
                "start_time": 23.08863636363636,
                "end_time": 44.46363636363636,
                "pitch": 0,
                "velocity": 25,
                "duration": 21.375,
                "tempo": 120.0
            },
            {
                "start_time": 44.461363636363636,
                "end_time": 44.46363636363636,
                "pitch": 0,
                "velocity": 25,
                "duration": 0.0022727272727252057,
                "tempo": 120.0
            },
            {
                "start_time": 44.46363636363636,
                "end_time": 44.58181818181818,
                "pitch": 67,
                "velocity": 25,
                "duration": 0.11818181818181728,
                "tempo": 120.0
            },
            {
                "start_time": 44.37954545454545,
                "end_time": 44.58181818181818,
                "pitch": 79,
                "velocity": 25,
                "duration": 0.20227272727272805,
                "tempo": 120.0
            },
            {
                "start_time": 44.58181818181818,
                "end_time": 44.668181818181814,
                "pitch": 67,
                "velocity": 25,
                "duration": 0.08636363636363598,
                "tempo": 120.0
            },
            {
                "start_time": 44.668181818181814,
                "end_time": 44.788636363636364,
                "pitch": 67,
                "velocity": 25,
                "duration": 0.12045454545454959,
                "tempo": 120.0
            },
            {
                "start_time": 44.58181818181818,
                "end_time": 44.788636363636364,
                "pitch": 79,
                "velocity": 25,
                "duration": 0.20681818181818556,
                "tempo": 120.0
            },
            {
                "start_time": 44.668181818181814,
                "end_time": 44.875,
                "pitch": 0,
                "velocity": 25,
                "duration": 0.20681818181818556,
                "tempo": 120.0
            },
            {
                "start_time": 44.788636363636364,
                "end_time": 44.875,
                "pitch": 67,
                "velocity": 25,
                "duration": 0.08636363636363598,
                "tempo": 120.0
            },
            {
                "start_time": 44.875,
                "end_time": 44.92272727272727,
                "pitch": 67,
                "velocity": 25,
                "duration": 0.04772727272727195,
                "tempo": 120.0
            },
            {
                "start_time": 44.95454545454545,
                "end_time": 45.59318181818182,
                "pitch": 70,
                "velocity": 25,
                "duration": 0.6386363636363654,
                "tempo": 120.0
            },
            {
                "start_time": 45.8,
                "end_time": 45.902272727272724,
                "pitch": 67,
                "velocity": 25,
                "duration": 0.10227272727272663,
                "tempo": 120.0
            },
            {
                "start_time": 44.788636363636364,
                "end_time": 45.902272727272724,
                "pitch": 79,
                "velocity": 25,
                "duration": 1.1136363636363598,
                "tempo": 120.0
            },
            {
                "start_time": 45.902272727272724,
                "end_time": 45.95227272727273,
                "pitch": 67,
                "velocity": 25,
                "duration": 0.05000000000000426,
                "tempo": 120.0
            },
            {
                "start_time": 45.970454545454544,
                "end_time": 46.12045454545454,
                "pitch": 69,
                "velocity": 25,
                "duration": 0.14999999999999858,
                "tempo": 120.0
            },
            {
                "start_time": 46.13636363636363,
                "end_time": 46.288636363636364,
                "pitch": 70,
                "velocity": 25,
                "duration": 0.1522727272727309,
                "tempo": 120.0
            },
            {
                "start_time": 46.32272727272727,
                "end_time": 46.45454545454545,
                "pitch": 72,
                "velocity": 25,
                "duration": 0.13181818181818272,
                "tempo": 120.0
            },
            {
                "start_time": 48.52954545454545,
                "end_time": 48.66590909090909,
                "pitch": 70,
                "velocity": 25,
                "duration": 0.13636363636364024,
                "tempo": 120.0
            },
            {
                "start_time": 48.699999999999996,
                "end_time": 48.834090909090904,
                "pitch": 69,
                "velocity": 25,
                "duration": 0.13409090909090793,
                "tempo": 120.0
            },
            {
                "start_time": 48.86590909090909,
                "end_time": 48.965909090909086,
                "pitch": 67,
                "velocity": 25,
                "duration": 0.09999999999999432,
                "tempo": 120.0
            },
            {
                "start_time": 45.902272727272724,
                "end_time": 48.965909090909086,
                "pitch": 79,
                "velocity": 25,
                "duration": 3.0636363636363626,
                "tempo": 120.0
            },
            {
                "start_time": 48.965909090909086,
                "end_time": 49.01590909090909,
                "pitch": 67,
                "velocity": 25,
                "duration": 0.05000000000000426,
                "tempo": 120.0
            },
            {
                "start_time": 49.03181818181818,
                "end_time": 49.17727272727272,
                "pitch": 70,
                "velocity": 25,
                "duration": 0.14545454545454106,
                "tempo": 120.0
            },
            {
                "start_time": 49.195454545454545,
                "end_time": 49.293181818181814,
                "pitch": 67,
                "velocity": 25,
                "duration": 0.09772727272726911,
                "tempo": 120.0
            },
            {
                "start_time": 48.965909090909086,
                "end_time": 49.293181818181814,
                "pitch": 79,
                "velocity": 25,
                "duration": 0.32727272727272805,
                "tempo": 120.0
            },
            {
                "start_time": 49.293181818181814,
                "end_time": 49.34318181818182,
                "pitch": 67,
                "velocity": 25,
                "duration": 0.05000000000000426,
                "tempo": 120.0
            },
            {
                "start_time": 49.55,
                "end_time": 49.684090909090905,
                "pitch": 70,
                "velocity": 20,
                "duration": 0.13409090909090793,
                "tempo": 120.0
            },
            {
                "start_time": 49.71818181818182,
                "end_time": 49.81590909090909,
                "pitch": 67,
                "velocity": 20,
                "duration": 0.09772727272726911,
                "tempo": 120.0
            },
            {
                "start_time": 49.293181818181814,
                "end_time": 49.81590909090909,
                "pitch": 79,
                "velocity": 25,
                "duration": 0.5227272727272734,
                "tempo": 120.0
            },
            {
                "start_time": 49.81590909090909,
                "end_time": 49.84772727272727,
                "pitch": 67,
                "velocity": 20,
                "duration": 0.0318181818181813,
                "tempo": 120.0
            },
            {
                "start_time": 50.04545454545454,
                "end_time": 50.195454545454545,
                "pitch": 70,
                "velocity": 16,
                "duration": 0.15000000000000568,
                "tempo": 120.0
            },
            {
                "start_time": 50.22954545454545,
                "end_time": 50.32954545454545,
                "pitch": 67,
                "velocity": 16,
                "duration": 0.10000000000000142,
                "tempo": 120.0
            },
            {
                "start_time": 49.81590909090909,
                "end_time": 50.32954545454545,
                "pitch": 79,
                "velocity": 20,
                "duration": 0.5136363636363654,
                "tempo": 120.0
            },
            {
                "start_time": 50.32954545454545,
                "end_time": 50.36363636363636,
                "pitch": 67,
                "velocity": 16,
                "duration": 0.03409090909090651,
                "tempo": 120.0
            },
            {
                "start_time": 50.570454545454545,
                "end_time": 50.70681818181818,
                "pitch": 70,
                "velocity": 13,
                "duration": 0.13636363636363313,
                "tempo": 120.0
            },
            {
                "start_time": 50.73863636363636,
                "end_time": 50.836363636363636,
                "pitch": 67,
                "velocity": 13,
                "duration": 0.09772727272727622,
                "tempo": 120.0
            },
            {
                "start_time": 50.32954545454545,
                "end_time": 50.836363636363636,
                "pitch": 79,
                "velocity": 16,
                "duration": 0.5068181818181827,
                "tempo": 120.0
            },
            {
                "start_time": 50.836363636363636,
                "end_time": 50.88636363636363,
                "pitch": 67,
                "velocity": 13,
                "duration": 0.04999999999999716,
                "tempo": 120.0
            },
            {
                "start_time": 51.06590909090909,
                "end_time": 51.215909090909086,
                "pitch": 70,
                "velocity": 10,
                "duration": 0.14999999999999858,
                "tempo": 120.0
            },
            {
                "start_time": 51.25,
                "end_time": 51.349999999999994,
                "pitch": 67,
                "velocity": 10,
                "duration": 0.09999999999999432,
                "tempo": 120.0
            },
            {
                "start_time": 50.836363636363636,
                "end_time": 51.349999999999994,
                "pitch": 79,
                "velocity": 13,
                "duration": 0.5136363636363583,
                "tempo": 120.0
            },
            {
                "start_time": 51.349999999999994,
                "end_time": 51.38636363636363,
                "pitch": 67,
                "velocity": 10,
                "duration": 0.03636363636363882,
                "tempo": 120.0
            },
            {
                "start_time": 51.76136363636363,
                "end_time": 51.90681818181818,
                "pitch": 70,
                "velocity": 25,
                "duration": 0.14545454545454817,
                "tempo": 120.0
            },
            {
                "start_time": 51.92272727272727,
                "end_time": 52.02045454545454,
                "pitch": 67,
                "velocity": 25,
                "duration": 0.09772727272726911,
                "tempo": 120.0
            },
            {
                "start_time": 51.349999999999994,
                "end_time": 52.02045454545454,
                "pitch": 79,
                "velocity": 10,
                "duration": 0.6704545454545467,
                "tempo": 120.0
            },
            {
                "start_time": 52.02045454545454,
                "end_time": 52.070454545454545,
                "pitch": 67,
                "velocity": 25,
                "duration": 0.05000000000000426,
                "tempo": 120.0
            },
            {
                "start_time": 52.27272727272727,
                "end_time": 52.40681818181818,
                "pitch": 70,
                "velocity": 20,
                "duration": 0.13409090909090793,
                "tempo": 120.0
            },
            {
                "start_time": 52.43863636363636,
                "end_time": 52.538636363636364,
                "pitch": 67,
                "velocity": 20,
                "duration": 0.10000000000000142,
                "tempo": 120.0
            },
            {
                "start_time": 52.02045454545454,
                "end_time": 52.538636363636364,
                "pitch": 79,
                "velocity": 25,
                "duration": 0.518181818181823,
                "tempo": 120.0
            },
            {
                "start_time": 52.538636363636364,
                "end_time": 52.57272727272727,
                "pitch": 67,
                "velocity": 20,
                "duration": 0.03409090909090651,
                "tempo": 120.0
            },
            {
                "start_time": 52.775,
                "end_time": 52.925,
                "pitch": 70,
                "velocity": 16,
                "duration": 0.14999999999999858,
                "tempo": 120.0
            },
            {
                "start_time": 52.94090909090909,
                "end_time": 53.04090909090909,
                "pitch": 67,
                "velocity": 16,
                "duration": 0.10000000000000142,
                "tempo": 120.0
            },
            {
                "start_time": 52.538636363636364,
                "end_time": 53.04090909090909,
                "pitch": 79,
                "velocity": 20,
                "duration": 0.5022727272727252,
                "tempo": 120.0
            },
            {
                "start_time": 53.04090909090909,
                "end_time": 53.090909090909086,
                "pitch": 67,
                "velocity": 16,
                "duration": 0.04999999999999716,
                "tempo": 120.0
            },
            {
                "start_time": 53.293181818181814,
                "end_time": 53.42727272727272,
                "pitch": 70,
                "velocity": 13,
                "duration": 0.13409090909090793,
                "tempo": 120.0
            },
            {
                "start_time": 53.459090909090904,
                "end_time": 53.56136363636363,
                "pitch": 67,
                "velocity": 13,
                "duration": 0.10227272727272663,
                "tempo": 120.0
            },
            {
                "start_time": 53.04090909090909,
                "end_time": 53.56136363636363,
                "pitch": 79,
                "velocity": 16,
                "duration": 0.5204545454545411,
                "tempo": 120.0
            },
            {
                "start_time": 53.56136363636363,
                "end_time": 53.59318181818182,
                "pitch": 67,
                "velocity": 13,
                "duration": 0.03181818181818841,
                "tempo": 120.0
            },
            {
                "start_time": 53.79545454545454,
                "end_time": 53.945454545454545,
                "pitch": 70,
                "velocity": 10,
                "duration": 0.15000000000000568,
                "tempo": 120.0
            },
            {
                "start_time": 53.961363636363636,
                "end_time": 54.06136363636363,
                "pitch": 67,
                "velocity": 10,
                "duration": 0.09999999999999432,
                "tempo": 120.0
            },
            {
                "start_time": 53.56136363636363,
                "end_time": 54.06136363636363,
                "pitch": 79,
                "velocity": 13,
                "duration": 0.5,
                "tempo": 120.0
            },
            {
                "start_time": 54.06136363636363,
                "end_time": 54.111363636363635,
                "pitch": 67,
                "velocity": 10,
                "duration": 0.05000000000000426,
                "tempo": 120.0
            },
            {
                "start_time": 54.474999999999994,
                "end_time": 55.131818181818176,
                "pitch": 63,
                "velocity": 25,
                "duration": 0.6568181818181813,
                "tempo": 120.0
            },
            {
                "start_time": 55.16590909090909,
                "end_time": 55.26136363636363,
                "pitch": 67,
                "velocity": 25,
                "duration": 0.0954545454545439,
                "tempo": 120.0
            },
            {
                "start_time": 54.06136363636363,
                "end_time": 55.26136363636363,
                "pitch": 79,
                "velocity": 10,
                "duration": 1.2000000000000028,
                "tempo": 120.0
            },
            {
                "start_time": 44.875,
                "end_time": 55.34318181818182,
                "pitch": 0,
                "velocity": 25,
                "duration": 10.468181818181819,
                "tempo": 120.0
            },
            {
                "start_time": 55.26136363636363,
                "end_time": 55.34318181818182,
                "pitch": 67,
                "velocity": 25,
                "duration": 0.08181818181818556,
                "tempo": 120.0
            },
            {
                "start_time": 55.34318181818182,
                "end_time": 55.461363636363636,
                "pitch": 67,
                "velocity": 25,
                "duration": 0.11818181818181728,
                "tempo": 120.0
            },
            {
                "start_time": 55.26136363636363,
                "end_time": 55.461363636363636,
                "pitch": 79,
                "velocity": 25,
                "duration": 0.20000000000000284,
                "tempo": 120.0
            },
            {
                "start_time": 55.461363636363636,
                "end_time": 55.54545454545454,
                "pitch": 67,
                "velocity": 25,
                "duration": 0.08409090909090366,
                "tempo": 120.0
            },
            {
                "start_time": 55.34318181818182,
                "end_time": 55.54772727272727,
                "pitch": 0,
                "velocity": 25,
                "duration": 0.20454545454545325,
                "tempo": 120.0
            },
            {
                "start_time": 55.54545454545454,
                "end_time": 55.54772727272727,
                "pitch": 0,
                "velocity": 25,
                "duration": 0.002272727272732311,
                "tempo": 120.0
            },
            {
                "start_time": 55.54772727272727,
                "end_time": 55.66590909090909,
                "pitch": 67,
                "velocity": 25,
                "duration": 0.11818181818181728,
                "tempo": 120.0
            },
            {
                "start_time": 55.461363636363636,
                "end_time": 55.668181818181814,
                "pitch": 79,
                "velocity": 25,
                "duration": 0.20681818181817846,
                "tempo": 120.0
            },
            {
                "start_time": 55.66590909090909,
                "end_time": 55.668181818181814,
                "pitch": 79,
                "velocity": 25,
                "duration": 0.0022727272727252057,
                "tempo": 120.0
            },
            {
                "start_time": 55.668181818181814,
                "end_time": 55.75454545454545,
                "pitch": 67,
                "velocity": 25,
                "duration": 0.08636363636363598,
                "tempo": 120.0
            },
            {
                "start_time": 55.75454545454545,
                "end_time": 55.820454545454545,
                "pitch": 67,
                "velocity": 25,
                "duration": 0.06590909090909491,
                "tempo": 120.0
            },
            {
                "start_time": 55.836363636363636,
                "end_time": 56.48181818181818,
                "pitch": 70,
                "velocity": 25,
                "duration": 0.6454545454545411,
                "tempo": 120.0
            },
            {
                "start_time": 56.51590909090909,
                "end_time": 56.65454545454545,
                "pitch": 69,
                "velocity": 25,
                "duration": 0.13863636363635834,
                "tempo": 120.0
            },
            {
                "start_time": 56.68863636363636,
                "end_time": 56.83863636363636,
                "pitch": 70,
                "velocity": 25,
                "duration": 0.14999999999999858,
                "tempo": 120.0
            },
            {
                "start_time": 56.85681818181818,
                "end_time": 57.002272727272725,
                "pitch": 72,
                "velocity": 25,
                "duration": 0.14545454545454817,
                "tempo": 120.0
            },
            {
                "start_time": 57.018181818181816,
                "end_time": 57.11818181818182,
                "pitch": 67,
                "velocity": 25,
                "duration": 0.10000000000000142,
                "tempo": 120.0
            },
            {
                "start_time": 57.11818181818182,
                "end_time": 57.168181818181814,
                "pitch": 67,
                "velocity": 25,
                "duration": 0.04999999999999716,
                "tempo": 120.0
            },
            {
                "start_time": 57.20227272727272,
                "end_time": 58.52954545454545,
                "pitch": 69,
                "velocity": 25,
                "duration": 1.327272727272728,
                "tempo": 120.0
            },
            {
                "start_time": 59.41590909090909,
                "end_time": 59.55227272727272,
                "pitch": 69,
                "velocity": 25,
                "duration": 0.13636363636363313,
                "tempo": 120.0
            },
            {
                "start_time": 59.584090909090904,
                "end_time": 59.715909090909086,
                "pitch": 68,
                "velocity": 25,
                "duration": 0.13181818181818272,
                "tempo": 120.0
            },
            {
                "start_time": 59.74772727272727,
                "end_time": 59.845454545454544,
                "pitch": 67,
                "velocity": 25,
                "duration": 0.09772727272727622,
                "tempo": 120.0
            },
            {
                "start_time": 57.11818181818182,
                "end_time": 59.845454545454544,
                "pitch": 79,
                "velocity": 25,
                "duration": 2.7272727272727266,
                "tempo": 120.0
            },
            {
                "start_time": 59.845454545454544,
                "end_time": 59.89545454545454,
                "pitch": 67,
                "velocity": 25,
                "duration": 0.04999999999999716,
                "tempo": 120.0
            },
            {
                "start_time": 59.913636363636364,
                "end_time": 61.24318181818182,
                "pitch": 66,
                "velocity": 25,
                "duration": 1.3295454545454533,
                "tempo": 120.0
            },
            {
                "start_time": 61.449999999999996,
                "end_time": 61.586363636363636,
                "pitch": 62,
                "velocity": 25,
                "duration": 0.13636363636364024,
                "tempo": 120.0
            },
            {
                "start_time": 61.62045454545454,
                "end_time": 61.77045454545454,
                "pitch": 63,
                "velocity": 25,
                "duration": 0.14999999999999858,
                "tempo": 120.0
            },
            {
                "start_time": 61.788636363636364,
                "end_time": 61.93636363636363,
                "pitch": 66,
                "velocity": 25,
                "duration": 0.14772727272726627,
                "tempo": 120.0
            },
            {
                "start_time": 62.131818181818176,
                "end_time": 62.26590909090909,
                "pitch": 72,
                "velocity": 25,
                "duration": 0.13409090909091503,
                "tempo": 120.0
            },
            {
                "start_time": 62.3,
                "end_time": 62.43636363636363,
                "pitch": 70,
                "velocity": 25,
                "duration": 0.13636363636363313,
                "tempo": 120.0
            },
            {
                "start_time": 62.470454545454544,
                "end_time": 62.60909090909091,
                "pitch": 69,
                "velocity": 25,
                "duration": 0.13863636363636545,
                "tempo": 120.0
            },
            {
                "start_time": 62.64090909090909,
                "end_time": 62.79090909090909,
                "pitch": 69,
                "velocity": 25,
                "duration": 0.14999999999999858,
                "tempo": 120.0
            },
            {
                "start_time": 62.809090909090905,
                "end_time": 62.95681818181818,
                "pitch": 70,
                "velocity": 25,
                "duration": 0.14772727272727337,
                "tempo": 120.0
            },
            {
                "start_time": 63.152272727272724,
                "end_time": 63.252272727272725,
                "pitch": 67,
                "velocity": 25,
                "duration": 0.10000000000000142,
                "tempo": 120.0
            },
            {
                "start_time": 59.845454545454544,
                "end_time": 63.252272727272725,
                "pitch": 79,
                "velocity": 25,
                "duration": 3.4068181818181813,
                "tempo": 120.0
            },
            {
                "start_time": 55.75454545454545,
                "end_time": 63.336363636363636,
                "pitch": 0,
                "velocity": 25,
                "duration": 7.581818181818186,
                "tempo": 120.0
            },
            {
                "start_time": 63.252272727272725,
                "end_time": 63.336363636363636,
                "pitch": 67,
                "velocity": 25,
                "duration": 0.08409090909091077,
                "tempo": 120.0
            },
            {
                "start_time": 63.336363636363636,
                "end_time": 63.459090909090904,
                "pitch": 67,
                "velocity": 25,
                "duration": 0.12272727272726769,
                "tempo": 120.0
            },
            {
                "start_time": 63.252272727272725,
                "end_time": 63.459090909090904,
                "pitch": 79,
                "velocity": 25,
                "duration": 0.20681818181817846,
                "tempo": 120.0
            },
            {
                "start_time": 63.459090909090904,
                "end_time": 63.543181818181814,
                "pitch": 67,
                "velocity": 25,
                "duration": 0.08409090909091077,
                "tempo": 120.0
            },
            {
                "start_time": 63.336363636363636,
                "end_time": 63.54545454545454,
                "pitch": 0,
                "velocity": 25,
                "duration": 0.20909090909090366,
                "tempo": 120.0
            },
            {
                "start_time": 63.543181818181814,
                "end_time": 63.54545454545454,
                "pitch": 0,
                "velocity": 25,
                "duration": 0.0022727272727252057,
                "tempo": 120.0
            },
            {
                "start_time": 63.54545454545454,
                "end_time": 63.66136363636363,
                "pitch": 67,
                "velocity": 25,
                "duration": 0.11590909090909207,
                "tempo": 120.0
            },
            {
                "start_time": 63.459090909090904,
                "end_time": 63.66136363636363,
                "pitch": 79,
                "velocity": 25,
                "duration": 0.20227272727272805,
                "tempo": 120.0
            },
            {
                "start_time": 63.66136363636363,
                "end_time": 63.740909090909085,
                "pitch": 67,
                "velocity": 25,
                "duration": 0.07954545454545325,
                "tempo": 120.0
            },
            {
                "start_time": 63.740909090909085,
                "end_time": 63.85454545454545,
                "pitch": 67,
                "velocity": 25,
                "duration": 0.11363636363636687,
                "tempo": 120.0
            },
            {
                "start_time": 63.66136363636363,
                "end_time": 63.85454545454545,
                "pitch": 79,
                "velocity": 25,
                "duration": 0.19318181818182012,
                "tempo": 120.0
            },
            {
                "start_time": 63.740909090909085,
                "end_time": 63.93863636363636,
                "pitch": 0,
                "velocity": 25,
                "duration": 0.19772727272727764,
                "tempo": 120.0
            },
            {
                "start_time": 63.85454545454545,
                "end_time": 63.93863636363636,
                "pitch": 67,
                "velocity": 25,
                "duration": 0.08409090909091077,
                "tempo": 120.0
            },
            {
                "start_time": 63.93863636363636,
                "end_time": 63.970454545454544,
                "pitch": 67,
                "velocity": 25,
                "duration": 0.0318181818181813,
                "tempo": 120.0
            },
            {
                "start_time": 63.98863636363636,
                "end_time": 65.32727272727273,
                "pitch": 62,
                "velocity": 25,
                "duration": 1.3386363636363683,
                "tempo": 120.0
            },
            {
                "start_time": 65.36136363636363,
                "end_time": 66.01136363636364,
                "pitch": 63,
                "velocity": 25,
                "duration": 0.6500000000000057,
                "tempo": 120.0
            },
            {
                "start_time": 66.04318181818182,
                "end_time": 66.14090909090909,
                "pitch": 67,
                "velocity": 25,
                "duration": 0.09772727272726911,
                "tempo": 120.0
            },
            {
                "start_time": 63.85454545454545,
                "end_time": 66.14090909090909,
                "pitch": 79,
                "velocity": 25,
                "duration": 2.286363636363639,
                "tempo": 120.0
            },
            {
                "start_time": 63.93863636363636,
                "end_time": 66.22272727272727,
                "pitch": 0,
                "velocity": 25,
                "duration": 2.2840909090909065,
                "tempo": 120.0
            },
            {
                "start_time": 66.14090909090909,
                "end_time": 66.22272727272727,
                "pitch": 67,
                "velocity": 25,
                "duration": 0.08181818181817846,
                "tempo": 120.0
            },
            {
                "start_time": 66.22272727272727,
                "end_time": 66.33863636363635,
                "pitch": 67,
                "velocity": 25,
                "duration": 0.11590909090908497,
                "tempo": 120.0
            },
            {
                "start_time": 66.14090909090909,
                "end_time": 66.33863636363635,
                "pitch": 79,
                "velocity": 25,
                "duration": 0.19772727272726343,
                "tempo": 120.0
            },
            {
                "start_time": 66.22272727272727,
                "end_time": 66.425,
                "pitch": 0,
                "velocity": 25,
                "duration": 0.20227272727272805,
                "tempo": 120.0
            },
            {
                "start_time": 66.33863636363635,
                "end_time": 66.425,
                "pitch": 67,
                "velocity": 25,
                "duration": 0.08636363636364308,
                "tempo": 120.0
            },
            {
                "start_time": 66.425,
                "end_time": 66.54545454545455,
                "pitch": 67,
                "velocity": 25,
                "duration": 0.12045454545454959,
                "tempo": 120.0
            },
            {
                "start_time": 66.33863636363635,
                "end_time": 66.54545454545455,
                "pitch": 79,
                "velocity": 25,
                "duration": 0.20681818181819267,
                "tempo": 120.0
            },
            {
                "start_time": 66.425,
                "end_time": 66.6340909090909,
                "pitch": 0,
                "velocity": 25,
                "duration": 0.20909090909090366,
                "tempo": 120.0
            },
            {
                "start_time": 66.54545454545455,
                "end_time": 66.6340909090909,
                "pitch": 67,
                "velocity": 25,
                "duration": 0.08863636363635408,
                "tempo": 120.0
            },
            {
                "start_time": 66.6340909090909,
                "end_time": 66.7,
                "pitch": 67,
                "velocity": 25,
                "duration": 0.06590909090910202,
                "tempo": 120.0
            },
            {
                "start_time": 66.7159090909091,
                "end_time": 67.36136363636363,
                "pitch": 70,
                "velocity": 25,
                "duration": 0.6454545454545411,
                "tempo": 120.0
            },
            {
                "start_time": 67.56818181818181,
                "end_time": 67.67045454545455,
                "pitch": 67,
                "velocity": 25,
                "duration": 0.10227272727273373,
                "tempo": 120.0
            },
            {
                "start_time": 66.54545454545455,
                "end_time": 67.67045454545455,
                "pitch": 79,
                "velocity": 25,
                "duration": 1.125,
                "tempo": 120.0
            },
            {
                "start_time": 67.67045454545455,
                "end_time": 67.72045454545454,
                "pitch": 67,
                "velocity": 25,
                "duration": 0.04999999999999716,
                "tempo": 120.0
            },
            {
                "start_time": 67.73863636363636,
                "end_time": 67.88863636363637,
                "pitch": 69,
                "velocity": 25,
                "duration": 0.15000000000000568,
                "tempo": 120.0
            },
            {
                "start_time": 67.90454545454546,
                "end_time": 68.05681818181817,
                "pitch": 70,
                "velocity": 25,
                "duration": 0.15227272727271668,
                "tempo": 120.0
            },
            {
                "start_time": 68.0909090909091,
                "end_time": 68.22954545454544,
                "pitch": 72,
                "velocity": 25,
                "duration": 0.13863636363635123,
                "tempo": 120.0
            },
            {
                "start_time": 70.29545454545455,
                "end_time": 70.43409090909091,
                "pitch": 69,
                "velocity": 25,
                "duration": 0.13863636363636545,
                "tempo": 120.0
            },
            {
                "start_time": 70.4659090909091,
                "end_time": 70.6,
                "pitch": 70,
                "velocity": 25,
                "duration": 0.13409090909090082,
                "tempo": 120.0
            },
            {
                "start_time": 70.6340909090909,
                "end_time": 70.78181818181818,
                "pitch": 72,
                "velocity": 25,
                "duration": 0.14772727272728048,
                "tempo": 120.0
            },
            {
                "start_time": 70.8,
                "end_time": 74.85681818181818,
                "pitch": 74,
                "velocity": 25,
                "duration": 4.056818181818187,
                "tempo": 120.0
            }
        ],
        "Church Organ": [
            {
                "start_time": 0.006818181818181818,
                "end_time": 1.315909090909091,
                "pitch": 50,
                "velocity": 64,
                "duration": 1.309090909090909,
                "tempo": 120.0
            },
            {
                "start_time": 1.3499999999999999,
                "end_time": 2.6795454545454542,
                "pitch": 57,
                "velocity": 64,
                "duration": 1.3295454545454544,
                "tempo": 120.0
            },
            {
                "start_time": 2.6954545454545453,
                "end_time": 4.034090909090909,
                "pitch": 60,
                "velocity": 64,
                "duration": 1.3386363636363638,
                "tempo": 120.0
            },
            {
                "start_time": 4.068181818181818,
                "end_time": 5.379545454545454,
                "pitch": 65,
                "velocity": 64,
                "duration": 1.3113636363636356,
                "tempo": 120.0
            },
            {
                "start_time": 5.413636363636363,
                "end_time": 5.4818181818181815,
                "pitch": 69,
                "velocity": 64,
                "duration": 0.06818181818181834,
                "tempo": 120.0
            },
            {
                "start_time": 5.581818181818181,
                "end_time": 5.6477272727272725,
                "pitch": 69,
                "velocity": 51,
                "duration": 0.06590909090909136,
                "tempo": 120.0
            },
            {
                "start_time": 5.765909090909091,
                "end_time": 5.8159090909090905,
                "pitch": 69,
                "velocity": 40,
                "duration": 0.04999999999999982,
                "tempo": 120.0
            },
            {
                "start_time": 5.9386363636363635,
                "end_time": 5.988636363636363,
                "pitch": 69,
                "velocity": 32,
                "duration": 0.04999999999999982,
                "tempo": 120.0
            },
            {
                "start_time": 6.111363636363636,
                "end_time": 6.159090909090909,
                "pitch": 69,
                "velocity": 25,
                "duration": 0.04772727272727284,
                "tempo": 120.0
            },
            {
                "start_time": 6.2727272727272725,
                "end_time": 6.320454545454545,
                "pitch": 69,
                "velocity": 20,
                "duration": 0.04772727272727284,
                "tempo": 120.0
            },
            {
                "start_time": 6.436363636363636,
                "end_time": 6.502272727272727,
                "pitch": 69,
                "velocity": 16,
                "duration": 0.06590909090909136,
                "tempo": 120.0
            },
            {
                "start_time": 6.602272727272727,
                "end_time": 6.668181818181818,
                "pitch": 69,
                "velocity": 13,
                "duration": 0.06590909090909136,
                "tempo": 120.0
            }
        ],
        "Vibraphone": [
            {
                "start_time": 10.511363636363637,
                "end_time": 10.577272727272726,
                "pitch": 67,
                "velocity": 80,
                "duration": 0.06590909090908958,
                "tempo": 120.0
            },
            {
                "start_time": 10.593181818181817,
                "end_time": 10.659090909090908,
                "pitch": 70,
                "velocity": 80,
                "duration": 0.06590909090909136,
                "tempo": 120.0
            },
            {
                "start_time": 10.677272727272726,
                "end_time": 10.743181818181817,
                "pitch": 74,
                "velocity": 80,
                "duration": 0.06590909090909136,
                "tempo": 120.0
            },
            {
                "start_time": 10.777272727272727,
                "end_time": 10.827272727272726,
                "pitch": 79,
                "velocity": 80,
                "duration": 0.049999999999998934,
                "tempo": 120.0
            },
            {
                "start_time": 10.863636363636363,
                "end_time": 10.913636363636362,
                "pitch": 67,
                "velocity": 80,
                "duration": 0.049999999999998934,
                "tempo": 120.0
            },
            {
                "start_time": 10.947727272727272,
                "end_time": 10.997727272727273,
                "pitch": 70,
                "velocity": 80,
                "duration": 0.05000000000000071,
                "tempo": 120.0
            },
            {
                "start_time": 11.034090909090908,
                "end_time": 11.084090909090909,
                "pitch": 74,
                "velocity": 80,
                "duration": 0.05000000000000071,
                "tempo": 120.0
            },
            {
                "start_time": 11.120454545454544,
                "end_time": 11.170454545454545,
                "pitch": 79,
                "velocity": 80,
                "duration": 0.05000000000000071,
                "tempo": 120.0
            },
            {
                "start_time": 15.95681818181818,
                "end_time": 16.009090909090908,
                "pitch": 67,
                "velocity": 80,
                "duration": 0.05227272727272769,
                "tempo": 120.0
            },
            {
                "start_time": 16.043181818181818,
                "end_time": 16.095454545454544,
                "pitch": 70,
                "velocity": 80,
                "duration": 0.052272727272725916,
                "tempo": 120.0
            },
            {
                "start_time": 16.129545454545454,
                "end_time": 16.18181818181818,
                "pitch": 74,
                "velocity": 80,
                "duration": 0.052272727272725916,
                "tempo": 120.0
            },
            {
                "start_time": 16.21590909090909,
                "end_time": 16.268181818181816,
                "pitch": 79,
                "velocity": 80,
                "duration": 0.052272727272725916,
                "tempo": 120.0
            },
            {
                "start_time": 16.302272727272726,
                "end_time": 16.36590909090909,
                "pitch": 67,
                "velocity": 80,
                "duration": 0.0636363636363626,
                "tempo": 120.0
            },
            {
                "start_time": 16.384090909090908,
                "end_time": 16.44772727272727,
                "pitch": 70,
                "velocity": 80,
                "duration": 0.0636363636363626,
                "tempo": 120.0
            },
            {
                "start_time": 16.46590909090909,
                "end_time": 16.529545454545453,
                "pitch": 74,
                "velocity": 80,
                "duration": 0.0636363636363626,
                "tempo": 120.0
            },
            {
                "start_time": 16.545454545454543,
                "end_time": 16.611363636363635,
                "pitch": 79,
                "velocity": 80,
                "duration": 0.06590909090909136,
                "tempo": 120.0
            },
            {
                "start_time": 21.4,
                "end_time": 21.46363636363636,
                "pitch": 67,
                "velocity": 80,
                "duration": 0.0636363636363626,
                "tempo": 120.0
            },
            {
                "start_time": 21.479545454545452,
                "end_time": 21.545454545454543,
                "pitch": 70,
                "velocity": 80,
                "duration": 0.06590909090909136,
                "tempo": 120.0
            },
            {
                "start_time": 21.577272727272724,
                "end_time": 21.627272727272725,
                "pitch": 75,
                "velocity": 80,
                "duration": 0.05000000000000071,
                "tempo": 120.0
            },
            {
                "start_time": 21.659090909090907,
                "end_time": 21.706818181818182,
                "pitch": 79,
                "velocity": 80,
                "duration": 0.047727272727275505,
                "tempo": 120.0
            },
            {
                "start_time": 21.74090909090909,
                "end_time": 21.79090909090909,
                "pitch": 67,
                "velocity": 80,
                "duration": 0.05000000000000071,
                "tempo": 120.0
            },
            {
                "start_time": 21.827272727272724,
                "end_time": 21.877272727272725,
                "pitch": 70,
                "velocity": 80,
                "duration": 0.05000000000000071,
                "tempo": 120.0
            },
            {
                "start_time": 21.913636363636364,
                "end_time": 21.96363636363636,
                "pitch": 75,
                "velocity": 80,
                "duration": 0.04999999999999716,
                "tempo": 120.0
            },
            {
                "start_time": 22.0,
                "end_time": 22.049999999999997,
                "pitch": 79,
                "velocity": 80,
                "duration": 0.04999999999999716,
                "tempo": 120.0
            },
            {
                "start_time": 26.845454545454544,
                "end_time": 26.895454545454545,
                "pitch": 67,
                "velocity": 80,
                "duration": 0.05000000000000071,
                "tempo": 120.0
            },
            {
                "start_time": 26.929545454545455,
                "end_time": 26.979545454545452,
                "pitch": 70,
                "velocity": 80,
                "duration": 0.04999999999999716,
                "tempo": 120.0
            },
            {
                "start_time": 27.013636363636362,
                "end_time": 27.063636363636363,
                "pitch": 74,
                "velocity": 80,
                "duration": 0.05000000000000071,
                "tempo": 120.0
            },
            {
                "start_time": 27.097727272727273,
                "end_time": 27.163636363636364,
                "pitch": 79,
                "velocity": 80,
                "duration": 0.06590909090909136,
                "tempo": 120.0
            },
            {
                "start_time": 27.18181818181818,
                "end_time": 27.24772727272727,
                "pitch": 67,
                "velocity": 80,
                "duration": 0.06590909090909136,
                "tempo": 120.0
            },
            {
                "start_time": 27.263636363636362,
                "end_time": 27.331818181818182,
                "pitch": 70,
                "velocity": 80,
                "duration": 0.06818181818182012,
                "tempo": 120.0
            },
            {
                "start_time": 27.347727272727273,
                "end_time": 27.41590909090909,
                "pitch": 74,
                "velocity": 80,
                "duration": 0.06818181818181657,
                "tempo": 120.0
            },
            {
                "start_time": 27.43181818181818,
                "end_time": 27.5,
                "pitch": 79,
                "velocity": 80,
                "duration": 0.06818181818182012,
                "tempo": 120.0
            },
            {
                "start_time": 32.277272727272724,
                "end_time": 32.34318181818182,
                "pitch": 67,
                "velocity": 80,
                "duration": 0.06590909090909491,
                "tempo": 120.0
            },
            {
                "start_time": 32.35909090909091,
                "end_time": 32.425,
                "pitch": 70,
                "velocity": 80,
                "duration": 0.06590909090908781,
                "tempo": 120.0
            },
            {
                "start_time": 32.45681818181818,
                "end_time": 32.50454545454545,
                "pitch": 74,
                "velocity": 80,
                "duration": 0.04772727272727195,
                "tempo": 120.0
            },
            {
                "start_time": 32.538636363636364,
                "end_time": 32.586363636363636,
                "pitch": 79,
                "velocity": 80,
                "duration": 0.04772727272727195,
                "tempo": 120.0
            },
            {
                "start_time": 32.62045454545454,
                "end_time": 32.67045454545455,
                "pitch": 67,
                "velocity": 80,
                "duration": 0.05000000000000426,
                "tempo": 120.0
            },
            {
                "start_time": 32.70681818181818,
                "end_time": 32.75681818181818,
                "pitch": 70,
                "velocity": 80,
                "duration": 0.05000000000000426,
                "tempo": 120.0
            },
            {
                "start_time": 32.793181818181814,
                "end_time": 32.84318181818182,
                "pitch": 74,
                "velocity": 80,
                "duration": 0.05000000000000426,
                "tempo": 120.0
            },
            {
                "start_time": 32.877272727272725,
                "end_time": 32.929545454545455,
                "pitch": 79,
                "velocity": 80,
                "duration": 0.05227272727272947,
                "tempo": 120.0
            },
            {
                "start_time": 37.736363636363635,
                "end_time": 37.78409090909091,
                "pitch": 67,
                "velocity": 80,
                "duration": 0.04772727272727195,
                "tempo": 120.0
            },
            {
                "start_time": 37.81590909090909,
                "end_time": 37.86590909090909,
                "pitch": 70,
                "velocity": 80,
                "duration": 0.05000000000000426,
                "tempo": 120.0
            },
            {
                "start_time": 37.89772727272727,
                "end_time": 37.945454545454545,
                "pitch": 74,
                "velocity": 80,
                "duration": 0.04772727272727195,
                "tempo": 120.0
            },
            {
                "start_time": 37.97954545454545,
                "end_time": 38.043181818181814,
                "pitch": 79,
                "velocity": 80,
                "duration": 0.0636363636363626,
                "tempo": 120.0
            },
            {
                "start_time": 38.06136363636364,
                "end_time": 38.127272727272725,
                "pitch": 67,
                "velocity": 80,
                "duration": 0.06590909090908781,
                "tempo": 120.0
            },
            {
                "start_time": 38.143181818181816,
                "end_time": 38.211363636363636,
                "pitch": 70,
                "velocity": 80,
                "duration": 0.06818181818182012,
                "tempo": 120.0
            },
            {
                "start_time": 38.22727272727273,
                "end_time": 38.29545454545455,
                "pitch": 74,
                "velocity": 80,
                "duration": 0.06818181818182012,
                "tempo": 120.0
            },
            {
                "start_time": 38.31136363636364,
                "end_time": 38.377272727272725,
                "pitch": 79,
                "velocity": 80,
                "duration": 0.06590909090908781,
                "tempo": 120.0
            },
            {
                "start_time": 43.15681818181818,
                "end_time": 43.22272727272727,
                "pitch": 67,
                "velocity": 80,
                "duration": 0.06590909090908781,
                "tempo": 120.0
            },
            {
                "start_time": 43.24090909090909,
                "end_time": 43.30681818181818,
                "pitch": 70,
                "velocity": 80,
                "duration": 0.06590909090908781,
                "tempo": 120.0
            },
            {
                "start_time": 43.340909090909086,
                "end_time": 43.39090909090909,
                "pitch": 75,
                "velocity": 80,
                "duration": 0.05000000000000426,
                "tempo": 120.0
            },
            {
                "start_time": 43.425,
                "end_time": 43.475,
                "pitch": 79,
                "velocity": 80,
                "duration": 0.05000000000000426,
                "tempo": 120.0
            },
            {
                "start_time": 43.50909090909091,
                "end_time": 43.559090909090905,
                "pitch": 67,
                "velocity": 80,
                "duration": 0.04999999999999716,
                "tempo": 120.0
            },
            {
                "start_time": 43.59318181818182,
                "end_time": 43.64545454545454,
                "pitch": 70,
                "velocity": 80,
                "duration": 0.052272727272722364,
                "tempo": 120.0
            },
            {
                "start_time": 43.679545454545455,
                "end_time": 43.73181818181818,
                "pitch": 75,
                "velocity": 80,
                "duration": 0.052272727272722364,
                "tempo": 120.0
            },
            {
                "start_time": 43.76590909090909,
                "end_time": 43.81818181818181,
                "pitch": 79,
                "velocity": 80,
                "duration": 0.052272727272722364,
                "tempo": 120.0
            },
            {
                "start_time": 48.61590909090909,
                "end_time": 48.66590909090909,
                "pitch": 67,
                "velocity": 80,
                "duration": 0.04999999999999716,
                "tempo": 120.0
            },
            {
                "start_time": 48.69772727272727,
                "end_time": 48.74772727272727,
                "pitch": 70,
                "velocity": 80,
                "duration": 0.04999999999999716,
                "tempo": 120.0
            },
            {
                "start_time": 48.78181818181818,
                "end_time": 48.83181818181818,
                "pitch": 74,
                "velocity": 80,
                "duration": 0.04999999999999716,
                "tempo": 120.0
            },
            {
                "start_time": 48.86590909090909,
                "end_time": 48.934090909090905,
                "pitch": 79,
                "velocity": 80,
                "duration": 0.06818181818181301,
                "tempo": 120.0
            },
            {
                "start_time": 48.949999999999996,
                "end_time": 49.01363636363636,
                "pitch": 67,
                "velocity": 80,
                "duration": 0.0636363636363626,
                "tempo": 120.0
            },
            {
                "start_time": 49.03181818181818,
                "end_time": 49.095454545454544,
                "pitch": 70,
                "velocity": 80,
                "duration": 0.0636363636363626,
                "tempo": 120.0
            },
            {
                "start_time": 49.11363636363636,
                "end_time": 49.17727272727272,
                "pitch": 74,
                "velocity": 80,
                "duration": 0.0636363636363626,
                "tempo": 120.0
            },
            {
                "start_time": 49.19318181818181,
                "end_time": 49.25909090909091,
                "pitch": 79,
                "velocity": 80,
                "duration": 0.06590909090909491,
                "tempo": 120.0
            },
            {
                "start_time": 54.04545454545454,
                "end_time": 54.111363636363635,
                "pitch": 67,
                "velocity": 80,
                "duration": 0.06590909090909491,
                "tempo": 120.0
            },
            {
                "start_time": 54.127272727272725,
                "end_time": 54.19090909090909,
                "pitch": 70,
                "velocity": 80,
                "duration": 0.0636363636363626,
                "tempo": 120.0
            },
            {
                "start_time": 54.224999999999994,
                "end_time": 54.27272727272727,
                "pitch": 75,
                "velocity": 80,
                "duration": 0.04772727272727906,
                "tempo": 120.0
            },
            {
                "start_time": 54.30681818181818,
                "end_time": 54.35454545454545,
                "pitch": 79,
                "velocity": 80,
                "duration": 0.04772727272727195,
                "tempo": 120.0
            },
            {
                "start_time": 54.38863636363636,
                "end_time": 54.43863636363636,
                "pitch": 67,
                "velocity": 80,
                "duration": 0.05000000000000426,
                "tempo": 120.0
            },
            {
                "start_time": 54.47272727272727,
                "end_time": 54.525,
                "pitch": 70,
                "velocity": 80,
                "duration": 0.05227272727272947,
                "tempo": 120.0
            },
            {
                "start_time": 54.559090909090905,
                "end_time": 54.611363636363635,
                "pitch": 75,
                "velocity": 80,
                "duration": 0.05227272727272947,
                "tempo": 120.0
            },
            {
                "start_time": 54.64545454545454,
                "end_time": 54.69772727272727,
                "pitch": 79,
                "velocity": 80,
                "duration": 0.05227272727272947,
                "tempo": 120.0
            },
            {
                "start_time": 59.502272727272725,
                "end_time": 59.55227272727272,
                "pitch": 66,
                "velocity": 80,
                "duration": 0.04999999999999716,
                "tempo": 120.0
            },
            {
                "start_time": 59.584090909090904,
                "end_time": 59.63409090909091,
                "pitch": 69,
                "velocity": 80,
                "duration": 0.05000000000000426,
                "tempo": 120.0
            },
            {
                "start_time": 59.66590909090909,
                "end_time": 59.71363636363636,
                "pitch": 74,
                "velocity": 80,
                "duration": 0.04772727272727195,
                "tempo": 120.0
            },
            {
                "start_time": 59.74772727272727,
                "end_time": 59.81136363636363,
                "pitch": 78,
                "velocity": 80,
                "duration": 0.0636363636363626,
                "tempo": 120.0
            },
            {
                "start_time": 59.82954545454545,
                "end_time": 59.89545454545454,
                "pitch": 65,
                "velocity": 80,
                "duration": 0.06590909090908781,
                "tempo": 120.0
            },
            {
                "start_time": 59.91136363636363,
                "end_time": 59.97954545454545,
                "pitch": 70,
                "velocity": 80,
                "duration": 0.06818181818182012,
                "tempo": 120.0
            },
            {
                "start_time": 59.99545454545454,
                "end_time": 60.06136363636363,
                "pitch": 74,
                "velocity": 80,
                "duration": 0.06590909090908781,
                "tempo": 120.0
            },
            {
                "start_time": 60.095454545454544,
                "end_time": 60.14545454545454,
                "pitch": 78,
                "velocity": 80,
                "duration": 0.04999999999999716,
                "tempo": 120.0
            },
            {
                "start_time": 64.925,
                "end_time": 64.99090909090908,
                "pitch": 67,
                "velocity": 80,
                "duration": 0.06590909090908781,
                "tempo": 120.0
            },
            {
                "start_time": 65.02499999999999,
                "end_time": 65.075,
                "pitch": 70,
                "velocity": 80,
                "duration": 0.05000000000001137,
                "tempo": 120.0
            },
            {
                "start_time": 65.10909090909091,
                "end_time": 65.1590909090909,
                "pitch": 75,
                "velocity": 80,
                "duration": 0.04999999999999716,
                "tempo": 120.0
            },
            {
                "start_time": 65.19318181818181,
                "end_time": 65.24318181818181,
                "pitch": 79,
                "velocity": 80,
                "duration": 0.04999999999999716,
                "tempo": 120.0
            },
            {
                "start_time": 65.27727272727273,
                "end_time": 65.32727272727273,
                "pitch": 67,
                "velocity": 80,
                "duration": 0.04999999999999716,
                "tempo": 120.0
            },
            {
                "start_time": 65.35909090909091,
                "end_time": 65.4090909090909,
                "pitch": 70,
                "velocity": 80,
                "duration": 0.04999999999999716,
                "tempo": 120.0
            },
            {
                "start_time": 65.44318181818181,
                "end_time": 65.49318181818181,
                "pitch": 75,
                "velocity": 80,
                "duration": 0.04999999999999716,
                "tempo": 120.0
            },
            {
                "start_time": 65.52727272727273,
                "end_time": 65.57727272727273,
                "pitch": 79,
                "velocity": 80,
                "duration": 0.04999999999999716,
                "tempo": 120.0
            },
            {
                "start_time": 70.38181818181818,
                "end_time": 70.43181818181817,
                "pitch": 66,
                "velocity": 80,
                "duration": 0.04999999999999716,
                "tempo": 120.0
            },
            {
                "start_time": 70.4659090909091,
                "end_time": 70.51590909090909,
                "pitch": 69,
                "velocity": 80,
                "duration": 0.04999999999999716,
                "tempo": 120.0
            },
            {
                "start_time": 70.55,
                "end_time": 70.6,
                "pitch": 74,
                "velocity": 80,
                "duration": 0.04999999999999716,
                "tempo": 120.0
            },
            {
                "start_time": 70.6340909090909,
                "end_time": 70.7,
                "pitch": 78,
                "velocity": 80,
                "duration": 0.06590909090910202,
                "tempo": 120.0
            },
            {
                "start_time": 70.71818181818182,
                "end_time": 70.78181818181818,
                "pitch": 65,
                "velocity": 80,
                "duration": 0.0636363636363626,
                "tempo": 120.0
            },
            {
                "start_time": 70.79772727272727,
                "end_time": 70.86363636363636,
                "pitch": 70,
                "velocity": 80,
                "duration": 0.06590909090908781,
                "tempo": 120.0
            },
            {
                "start_time": 70.87954545454545,
                "end_time": 70.94545454545454,
                "pitch": 74,
                "velocity": 80,
                "duration": 0.06590909090908781,
                "tempo": 120.0
            },
            {
                "start_time": 70.97727272727272,
                "end_time": 71.02727272727273,
                "pitch": 78,
                "velocity": 80,
                "duration": 0.05000000000001137,
                "tempo": 120.0
            },
            {
                "start_time": 75.80454545454545,
                "end_time": 75.87045454545454,
                "pitch": 67,
                "velocity": 80,
                "duration": 0.06590909090908781,
                "tempo": 120.0
            },
            {
                "start_time": 75.90454545454546,
                "end_time": 75.95454545454545,
                "pitch": 70,
                "velocity": 80,
                "duration": 0.04999999999999716,
                "tempo": 120.0
            },
            {
                "start_time": 75.98863636363636,
                "end_time": 76.03863636363636,
                "pitch": 74,
                "velocity": 80,
                "duration": 0.04999999999999716,
                "tempo": 120.0
            },
            {
                "start_time": 76.07045454545454,
                "end_time": 76.12045454545454,
                "pitch": 79,
                "velocity": 80,
                "duration": 0.04999999999999716,
                "tempo": 120.0
            },
            {
                "start_time": 76.15681818181818,
                "end_time": 76.20681818181818,
                "pitch": 67,
                "velocity": 80,
                "duration": 0.04999999999999716,
                "tempo": 120.0
            },
            {
                "start_time": 76.24090909090908,
                "end_time": 76.24318181818181,
                "pitch": 70,
                "velocity": 80,
                "duration": 0.0022727272727252057,
                "tempo": 120.0
            }
        ],
        "Acoustic Bass": [
            {
                "start_time": 0.006818181818181818,
                "end_time": 0.13636363636363635,
                "pitch": 31,
                "velocity": 51,
                "duration": 0.12954545454545455,
                "tempo": 120.0
            },
            {
                "start_time": 0.17045454545454544,
                "end_time": 0.3045454545454545,
                "pitch": 31,
                "velocity": 51,
                "duration": 0.13409090909090907,
                "tempo": 120.0
            },
            {
                "start_time": 0.33636363636363636,
                "end_time": 0.47045454545454546,
                "pitch": 31,
                "velocity": 51,
                "duration": 0.1340909090909091,
                "tempo": 120.0
            },
            {
                "start_time": 0.5045454545454545,
                "end_time": 0.6545454545454545,
                "pitch": 31,
                "velocity": 51,
                "duration": 0.15000000000000002,
                "tempo": 120.0
            },
            {
                "start_time": 0.6727272727272727,
                "end_time": 0.8181818181818181,
                "pitch": 31,
                "velocity": 51,
                "duration": 0.1454545454545454,
                "tempo": 120.0
            },
            {
                "start_time": 0.8522727272727272,
                "end_time": 0.9818181818181818,
                "pitch": 31,
                "velocity": 51,
                "duration": 0.12954545454545463,
                "tempo": 120.0
            },
            {
                "start_time": 1.0136363636363637,
                "end_time": 1.1477272727272727,
                "pitch": 31,
                "velocity": 51,
                "duration": 0.13409090909090904,
                "tempo": 120.0
            },
            {
                "start_time": 1.1818181818181817,
                "end_time": 1.315909090909091,
                "pitch": 31,
                "velocity": 51,
                "duration": 0.13409090909090926,
                "tempo": 120.0
            },
            {
                "start_time": 1.3499999999999999,
                "end_time": 1.5,
                "pitch": 31,
                "velocity": 64,
                "duration": 0.15000000000000013,
                "tempo": 120.0
            },
            {
                "start_time": 1.5159090909090909,
                "end_time": 1.6659090909090908,
                "pitch": 31,
                "velocity": 64,
                "duration": 0.1499999999999999,
                "tempo": 120.0
            },
            {
                "start_time": 1.684090909090909,
                "end_time": 1.8295454545454544,
                "pitch": 31,
                "velocity": 64,
                "duration": 0.14545454545454528,
                "tempo": 120.0
            },
            {
                "start_time": 1.8636363636363635,
                "end_time": 1.9931818181818182,
                "pitch": 31,
                "velocity": 64,
                "duration": 0.12954545454545463,
                "tempo": 120.0
            },
            {
                "start_time": 2.025,
                "end_time": 2.161363636363636,
                "pitch": 31,
                "velocity": 64,
                "duration": 0.13636363636363624,
                "tempo": 120.0
            },
            {
                "start_time": 2.1977272727272728,
                "end_time": 2.334090909090909,
                "pitch": 31,
                "velocity": 64,
                "duration": 0.13636363636363624,
                "tempo": 120.0
            },
            {
                "start_time": 2.370454545454545,
                "end_time": 2.5159090909090907,
                "pitch": 31,
                "velocity": 64,
                "duration": 0.1454545454545455,
                "tempo": 120.0
            },
            {
                "start_time": 2.5318181818181817,
                "end_time": 2.6795454545454542,
                "pitch": 31,
                "velocity": 64,
                "duration": 0.14772727272727249,
                "tempo": 120.0
            },
            {
                "start_time": 2.6977272727272728,
                "end_time": 2.8454545454545452,
                "pitch": 31,
                "velocity": 80,
                "duration": 0.14772727272727249,
                "tempo": 120.0
            },
            {
                "start_time": 2.8795454545454544,
                "end_time": 3.0136363636363637,
                "pitch": 31,
                "velocity": 80,
                "duration": 0.13409090909090926,
                "tempo": 120.0
            },
            {
                "start_time": 3.0477272727272724,
                "end_time": 3.1795454545454542,
                "pitch": 31,
                "velocity": 80,
                "duration": 0.13181818181818183,
                "tempo": 120.0
            },
            {
                "start_time": 3.2136363636363634,
                "end_time": 3.3477272727272727,
                "pitch": 31,
                "velocity": 80,
                "duration": 0.13409090909090926,
                "tempo": 120.0
            },
            {
                "start_time": 3.381818181818182,
                "end_time": 3.5318181818181817,
                "pitch": 31,
                "velocity": 80,
                "duration": 0.1499999999999999,
                "tempo": 120.0
            },
            {
                "start_time": 3.5477272727272724,
                "end_time": 3.6999999999999997,
                "pitch": 31,
                "velocity": 80,
                "duration": 0.15227272727272734,
                "tempo": 120.0
            },
            {
                "start_time": 3.715909090909091,
                "end_time": 3.8659090909090907,
                "pitch": 31,
                "velocity": 80,
                "duration": 0.1499999999999999,
                "tempo": 120.0
            },
            {
                "start_time": 3.9,
                "end_time": 4.034090909090909,
                "pitch": 31,
                "velocity": 80,
                "duration": 0.13409090909090926,
                "tempo": 120.0
            },
            {
                "start_time": 4.068181818181818,
                "end_time": 4.202272727272727,
                "pitch": 31,
                "velocity": 101,
                "duration": 0.13409090909090882,
                "tempo": 120.0
            },
            {
                "start_time": 4.2340909090909085,
                "end_time": 4.368181818181818,
                "pitch": 31,
                "velocity": 101,
                "duration": 0.1340909090909097,
                "tempo": 120.0
            },
            {
                "start_time": 4.402272727272727,
                "end_time": 4.552272727272727,
                "pitch": 31,
                "velocity": 101,
                "duration": 0.14999999999999947,
                "tempo": 120.0
            },
            {
                "start_time": 4.570454545454545,
                "end_time": 4.720454545454545,
                "pitch": 31,
                "velocity": 101,
                "duration": 0.14999999999999947,
                "tempo": 120.0
            },
            {
                "start_time": 4.736363636363636,
                "end_time": 4.884090909090909,
                "pitch": 31,
                "velocity": 101,
                "duration": 0.14772727272727249,
                "tempo": 120.0
            },
            {
                "start_time": 4.915909090909091,
                "end_time": 5.045454545454545,
                "pitch": 31,
                "velocity": 101,
                "duration": 0.12954545454545396,
                "tempo": 120.0
            },
            {
                "start_time": 5.079545454545454,
                "end_time": 5.213636363636363,
                "pitch": 31,
                "velocity": 101,
                "duration": 0.13409090909090882,
                "tempo": 120.0
            },
            {
                "start_time": 5.245454545454545,
                "end_time": 5.379545454545454,
                "pitch": 31,
                "velocity": 101,
                "duration": 0.13409090909090882,
                "tempo": 120.0
            },
            {
                "start_time": 5.415909090909091,
                "end_time": 5.5636363636363635,
                "pitch": 31,
                "velocity": 101,
                "duration": 0.14772727272727249,
                "tempo": 120.0
            },
            {
                "start_time": 5.581818181818181,
                "end_time": 5.7318181818181815,
                "pitch": 38,
                "velocity": 101,
                "duration": 0.15000000000000036,
                "tempo": 120.0
            },
            {
                "start_time": 5.765909090909091,
                "end_time": 5.902272727272727,
                "pitch": 43,
                "velocity": 101,
                "duration": 0.1363636363636367,
                "tempo": 120.0
            },
            {
                "start_time": 5.9386363636363635,
                "end_time": 6.24090909090909,
                "pitch": 36,
                "velocity": 101,
                "duration": 0.3022727272727268,
                "tempo": 120.0
            },
            {
                "start_time": 6.2727272727272725,
                "end_time": 6.402272727272727,
                "pitch": 41,
                "velocity": 101,
                "duration": 0.12954545454545485,
                "tempo": 120.0
            },
            {
                "start_time": 6.436363636363636,
                "end_time": 6.586363636363636,
                "pitch": 39,
                "velocity": 101,
                "duration": 0.15000000000000036,
                "tempo": 120.0
            },
            {
                "start_time": 6.6045454545454545,
                "end_time": 6.752272727272727,
                "pitch": 38,
                "velocity": 101,
                "duration": 0.14772727272727249,
                "tempo": 120.0
            },
            {
                "start_time": 6.788636363636363,
                "end_time": 6.920454545454545,
                "pitch": 31,
                "velocity": 101,
                "duration": 0.13181818181818183,
                "tempo": 120.0
            },
            {
                "start_time": 6.954545454545454,
                "end_time": 7.088636363636363,
                "pitch": 38,
                "velocity": 101,
                "duration": 0.13409090909090882,
                "tempo": 120.0
            },
            {
                "start_time": 7.120454545454545,
                "end_time": 7.254545454545454,
                "pitch": 43,
                "velocity": 101,
                "duration": 0.13409090909090882,
                "tempo": 120.0
            },
            {
                "start_time": 7.288636363636363,
                "end_time": 7.602272727272727,
                "pitch": 36,
                "velocity": 101,
                "duration": 0.3136363636363635,
                "tempo": 120.0
            },
            {
                "start_time": 7.618181818181818,
                "end_time": 7.765909090909091,
                "pitch": 41,
                "velocity": 101,
                "duration": 0.14772727272727249,
                "tempo": 120.0
            },
            {
                "start_time": 7.797727272727272,
                "end_time": 7.936363636363636,
                "pitch": 39,
                "velocity": 101,
                "duration": 0.13863636363636367,
                "tempo": 120.0
            },
            {
                "start_time": 7.970454545454545,
                "end_time": 8.10681818181818,
                "pitch": 38,
                "velocity": 101,
                "duration": 0.1363636363636358,
                "tempo": 120.0
            },
            {
                "start_time": 8.143181818181818,
                "end_time": 8.272727272727272,
                "pitch": 31,
                "velocity": 101,
                "duration": 0.12954545454545396,
                "tempo": 120.0
            },
            {
                "start_time": 8.304545454545455,
                "end_time": 8.452272727272726,
                "pitch": 38,
                "velocity": 101,
                "duration": 0.1477272727272716,
                "tempo": 120.0
            },
            {
                "start_time": 8.468181818181817,
                "end_time": 8.618181818181817,
                "pitch": 43,
                "velocity": 101,
                "duration": 0.15000000000000036,
                "tempo": 120.0
            },
            {
                "start_time": 8.634090909090908,
                "end_time": 8.952272727272726,
                "pitch": 36,
                "velocity": 101,
                "duration": 0.31818181818181834,
                "tempo": 120.0
            },
            {
                "start_time": 8.986363636363636,
                "end_time": 9.120454545454544,
                "pitch": 41,
                "velocity": 101,
                "duration": 0.13409090909090793,
                "tempo": 120.0
            },
            {
                "start_time": 9.154545454545454,
                "end_time": 9.286363636363635,
                "pitch": 39,
                "velocity": 101,
                "duration": 0.13181818181818095,
                "tempo": 120.0
            },
            {
                "start_time": 9.320454545454545,
                "end_time": 9.472727272727273,
                "pitch": 38,
                "velocity": 101,
                "duration": 0.15227272727272734,
                "tempo": 120.0
            },
            {
                "start_time": 9.488636363636363,
                "end_time": 9.638636363636364,
                "pitch": 31,
                "velocity": 101,
                "duration": 0.15000000000000036,
                "tempo": 120.0
            },
            {
                "start_time": 9.656818181818181,
                "end_time": 9.806818181818182,
                "pitch": 38,
                "velocity": 101,
                "duration": 0.15000000000000036,
                "tempo": 120.0
            },
            {
                "start_time": 9.84090909090909,
                "end_time": 9.977272727272727,
                "pitch": 43,
                "velocity": 101,
                "duration": 0.1363636363636367,
                "tempo": 120.0
            },
            {
                "start_time": 10.011363636363637,
                "end_time": 10.313636363636363,
                "pitch": 36,
                "velocity": 101,
                "duration": 0.3022727272727259,
                "tempo": 120.0
            },
            {
                "start_time": 10.347727272727273,
                "end_time": 10.493181818181817,
                "pitch": 41,
                "velocity": 101,
                "duration": 0.14545454545454461,
                "tempo": 120.0
            },
            {
                "start_time": 10.511363636363637,
                "end_time": 10.661363636363635,
                "pitch": 39,
                "velocity": 101,
                "duration": 0.14999999999999858,
                "tempo": 120.0
            },
            {
                "start_time": 10.677272727272726,
                "end_time": 10.827272727272726,
                "pitch": 38,
                "velocity": 101,
                "duration": 0.15000000000000036,
                "tempo": 120.0
            },
            {
                "start_time": 10.863636363636363,
                "end_time": 11.0,
                "pitch": 31,
                "velocity": 101,
                "duration": 0.1363636363636367,
                "tempo": 120.0
            },
            {
                "start_time": 11.034090909090908,
                "end_time": 11.170454545454545,
                "pitch": 38,
                "velocity": 101,
                "duration": 0.1363636363636367,
                "tempo": 120.0
            },
            {
                "start_time": 11.206818181818182,
                "end_time": 11.336363636363636,
                "pitch": 43,
                "velocity": 101,
                "duration": 0.12954545454545396,
                "tempo": 120.0
            },
            {
                "start_time": 11.368181818181817,
                "end_time": 11.681818181818182,
                "pitch": 36,
                "velocity": 101,
                "duration": 0.3136363636363644,
                "tempo": 120.0
            },
            {
                "start_time": 11.71590909090909,
                "end_time": 11.85,
                "pitch": 41,
                "velocity": 101,
                "duration": 0.1340909090909097,
                "tempo": 120.0
            },
            {
                "start_time": 11.881818181818181,
                "end_time": 12.01590909090909,
                "pitch": 39,
                "velocity": 101,
                "duration": 0.1340909090909097,
                "tempo": 120.0
            },
            {
                "start_time": 12.049999999999999,
                "end_time": 12.184090909090909,
                "pitch": 38,
                "velocity": 101,
                "duration": 0.1340909090909097,
                "tempo": 120.0
            },
            {
                "start_time": 12.218181818181817,
                "end_time": 12.368181818181817,
                "pitch": 31,
                "velocity": 101,
                "duration": 0.15000000000000036,
                "tempo": 120.0
            },
            {
                "start_time": 12.384090909090908,
                "end_time": 12.536363636363635,
                "pitch": 38,
                "velocity": 101,
                "duration": 0.15227272727272734,
                "tempo": 120.0
            },
            {
                "start_time": 12.552272727272726,
                "end_time": 12.697727272727272,
                "pitch": 43,
                "velocity": 101,
                "duration": 0.1454545454545464,
                "tempo": 120.0
            },
            {
                "start_time": 12.73181818181818,
                "end_time": 13.031818181818181,
                "pitch": 36,
                "velocity": 101,
                "duration": 0.3000000000000007,
                "tempo": 120.0
            },
            {
                "start_time": 13.06590909090909,
                "end_time": 13.204545454545453,
                "pitch": 41,
                "velocity": 101,
                "duration": 0.13863636363636367,
                "tempo": 120.0
            },
            {
                "start_time": 13.238636363636363,
                "end_time": 13.388636363636364,
                "pitch": 39,
                "velocity": 101,
                "duration": 0.15000000000000036,
                "tempo": 120.0
            },
            {
                "start_time": 13.406818181818181,
                "end_time": 13.556818181818182,
                "pitch": 38,
                "velocity": 101,
                "duration": 0.15000000000000036,
                "tempo": 120.0
            },
            {
                "start_time": 13.575,
                "end_time": 13.720454545454544,
                "pitch": 31,
                "velocity": 101,
                "duration": 0.14545454545454461,
                "tempo": 120.0
            },
            {
                "start_time": 13.752272727272727,
                "end_time": 13.881818181818181,
                "pitch": 38,
                "velocity": 101,
                "duration": 0.12954545454545396,
                "tempo": 120.0
            },
            {
                "start_time": 13.915909090909091,
                "end_time": 14.052272727272726,
                "pitch": 43,
                "velocity": 101,
                "duration": 0.1363636363636349,
                "tempo": 120.0
            },
            {
                "start_time": 14.088636363636363,
                "end_time": 14.406818181818181,
                "pitch": 36,
                "velocity": 101,
                "duration": 0.31818181818181834,
                "tempo": 120.0
            },
            {
                "start_time": 14.422727272727272,
                "end_time": 14.568181818181818,
                "pitch": 41,
                "velocity": 101,
                "duration": 0.1454545454545464,
                "tempo": 120.0
            },
            {
                "start_time": 14.586363636363636,
                "end_time": 14.736363636363636,
                "pitch": 39,
                "velocity": 101,
                "duration": 0.15000000000000036,
                "tempo": 120.0
            },
            {
                "start_time": 14.768181818181818,
                "end_time": 14.902272727272727,
                "pitch": 38,
                "velocity": 101,
                "duration": 0.1340909090909097,
                "tempo": 120.0
            },
            {
                "start_time": 14.936363636363636,
                "end_time": 15.075,
                "pitch": 31,
                "velocity": 101,
                "duration": 0.13863636363636367,
                "tempo": 120.0
            },
            {
                "start_time": 15.109090909090908,
                "end_time": 15.245454545454544,
                "pitch": 38,
                "velocity": 101,
                "duration": 0.1363636363636367,
                "tempo": 120.0
            },
            {
                "start_time": 15.281818181818181,
                "end_time": 15.427272727272726,
                "pitch": 43,
                "velocity": 101,
                "duration": 0.14545454545454461,
                "tempo": 120.0
            },
            {
                "start_time": 15.443181818181817,
                "end_time": 15.756818181818181,
                "pitch": 36,
                "velocity": 101,
                "duration": 0.3136363636363644,
                "tempo": 120.0
            },
            {
                "start_time": 15.790909090909091,
                "end_time": 15.924999999999999,
                "pitch": 41,
                "velocity": 101,
                "duration": 0.13409090909090793,
                "tempo": 120.0
            },
            {
                "start_time": 15.959090909090909,
                "end_time": 16.095454545454544,
                "pitch": 39,
                "velocity": 101,
                "duration": 0.1363636363636349,
                "tempo": 120.0
            },
            {
                "start_time": 16.129545454545454,
                "end_time": 16.268181818181816,
                "pitch": 38,
                "velocity": 101,
                "duration": 0.1386363636363619,
                "tempo": 120.0
            },
            {
                "start_time": 16.304545454545455,
                "end_time": 16.44772727272727,
                "pitch": 31,
                "velocity": 101,
                "duration": 0.14318181818181586,
                "tempo": 120.0
            },
            {
                "start_time": 16.46590909090909,
                "end_time": 16.611363636363635,
                "pitch": 38,
                "velocity": 101,
                "duration": 0.14545454545454461,
                "tempo": 120.0
            },
            {
                "start_time": 16.643181818181816,
                "end_time": 16.78181818181818,
                "pitch": 43,
                "velocity": 101,
                "duration": 0.13863636363636545,
                "tempo": 120.0
            },
            {
                "start_time": 16.81590909090909,
                "end_time": 17.118181818181817,
                "pitch": 36,
                "velocity": 101,
                "duration": 0.3022727272727259,
                "tempo": 120.0
            },
            {
                "start_time": 17.15,
                "end_time": 17.297727272727272,
                "pitch": 41,
                "velocity": 101,
                "duration": 0.14772727272727337,
                "tempo": 120.0
            },
            {
                "start_time": 17.313636363636363,
                "end_time": 17.46363636363636,
                "pitch": 39,
                "velocity": 101,
                "duration": 0.14999999999999858,
                "tempo": 120.0
            },
            {
                "start_time": 17.48181818181818,
                "end_time": 17.631818181818183,
                "pitch": 38,
                "velocity": 101,
                "duration": 0.15000000000000213,
                "tempo": 120.0
            },
            {
                "start_time": 17.66590909090909,
                "end_time": 17.802272727272726,
                "pitch": 31,
                "velocity": 101,
                "duration": 0.1363636363636367,
                "tempo": 120.0
            },
            {
                "start_time": 17.836363636363636,
                "end_time": 17.974999999999998,
                "pitch": 38,
                "velocity": 101,
                "duration": 0.1386363636363619,
                "tempo": 120.0
            },
            {
                "start_time": 18.009090909090908,
                "end_time": 18.14090909090909,
                "pitch": 43,
                "velocity": 101,
                "duration": 0.13181818181818272,
                "tempo": 120.0
            },
            {
                "start_time": 18.172727272727272,
                "end_time": 18.486363636363635,
                "pitch": 36,
                "velocity": 101,
                "duration": 0.3136363636363626,
                "tempo": 120.0
            },
            {
                "start_time": 18.502272727272725,
                "end_time": 18.652272727272727,
                "pitch": 41,
                "velocity": 101,
                "duration": 0.15000000000000213,
                "tempo": 120.0
            },
            {
                "start_time": 18.686363636363634,
                "end_time": 18.825,
                "pitch": 39,
                "velocity": 101,
                "duration": 0.13863636363636545,
                "tempo": 120.0
            },
            {
                "start_time": 18.85909090909091,
                "end_time": 18.995454545454546,
                "pitch": 38,
                "velocity": 101,
                "duration": 0.1363636363636367,
                "tempo": 120.0
            },
            {
                "start_time": 19.03181818181818,
                "end_time": 19.161363636363635,
                "pitch": 31,
                "velocity": 101,
                "duration": 0.12954545454545396,
                "tempo": 120.0
            },
            {
                "start_time": 19.193181818181817,
                "end_time": 19.34090909090909,
                "pitch": 38,
                "velocity": 101,
                "duration": 0.14772727272727337,
                "tempo": 120.0
            },
            {
                "start_time": 19.35681818181818,
                "end_time": 19.502272727272725,
                "pitch": 43,
                "velocity": 101,
                "duration": 0.14545454545454461,
                "tempo": 120.0
            },
            {
                "start_time": 19.520454545454545,
                "end_time": 19.836363636363636,
                "pitch": 36,
                "velocity": 101,
                "duration": 0.31590909090909136,
                "tempo": 120.0
            },
            {
                "start_time": 19.870454545454546,
                "end_time": 20.009090909090908,
                "pitch": 41,
                "velocity": 101,
                "duration": 0.1386363636363619,
                "tempo": 120.0
            },
            {
                "start_time": 20.043181818181818,
                "end_time": 20.177272727272726,
                "pitch": 39,
                "velocity": 101,
                "duration": 0.13409090909090793,
                "tempo": 120.0
            },
            {
                "start_time": 20.211363636363636,
                "end_time": 20.361363636363635,
                "pitch": 38,
                "velocity": 101,
                "duration": 0.14999999999999858,
                "tempo": 120.0
            },
            {
                "start_time": 20.377272727272725,
                "end_time": 20.525,
                "pitch": 31,
                "velocity": 101,
                "duration": 0.14772727272727337,
                "tempo": 120.0
            },
            {
                "start_time": 20.54090909090909,
                "end_time": 20.686363636363634,
                "pitch": 38,
                "velocity": 101,
                "duration": 0.14545454545454461,
                "tempo": 120.0
            },
            {
                "start_time": 20.720454545454544,
                "end_time": 20.85681818181818,
                "pitch": 43,
                "velocity": 101,
                "duration": 0.1363636363636367,
                "tempo": 120.0
            },
            {
                "start_time": 20.89090909090909,
                "end_time": 21.19772727272727,
                "pitch": 36,
                "velocity": 101,
                "duration": 0.3068181818181799,
                "tempo": 120.0
            },
            {
                "start_time": 21.23181818181818,
                "end_time": 21.38181818181818,
                "pitch": 41,
                "velocity": 101,
                "duration": 0.14999999999999858,
                "tempo": 120.0
            },
            {
                "start_time": 21.4,
                "end_time": 21.545454545454543,
                "pitch": 39,
                "velocity": 101,
                "duration": 0.14545454545454461,
                "tempo": 120.0
            },
            {
                "start_time": 21.577272727272724,
                "end_time": 21.709090909090907,
                "pitch": 38,
                "velocity": 101,
                "duration": 0.13181818181818272,
                "tempo": 120.0
            },
            {
                "start_time": 21.743181818181817,
                "end_time": 21.877272727272725,
                "pitch": 27,
                "velocity": 101,
                "duration": 0.13409090909090793,
                "tempo": 120.0
            },
            {
                "start_time": 21.913636363636364,
                "end_time": 22.049999999999997,
                "pitch": 34,
                "velocity": 101,
                "duration": 0.13636363636363313,
                "tempo": 120.0
            },
            {
                "start_time": 22.086363636363636,
                "end_time": 22.236363636363635,
                "pitch": 39,
                "velocity": 101,
                "duration": 0.14999999999999858,
                "tempo": 120.0
            },
            {
                "start_time": 22.252272727272725,
                "end_time": 22.56590909090909,
                "pitch": 31,
                "velocity": 101,
                "duration": 0.31363636363636616,
                "tempo": 120.0
            },
            {
                "start_time": 22.599999999999998,
                "end_time": 22.729545454545452,
                "pitch": 36,
                "velocity": 101,
                "duration": 0.12954545454545396,
                "tempo": 120.0
            },
            {
                "start_time": 22.761363636363637,
                "end_time": 22.9,
                "pitch": 34,
                "velocity": 101,
                "duration": 0.1386363636363619,
                "tempo": 120.0
            },
            {
                "start_time": 22.93409090909091,
                "end_time": 23.07272727272727,
                "pitch": 33,
                "velocity": 101,
                "duration": 0.1386363636363619,
                "tempo": 120.0
            },
            {
                "start_time": 23.10681818181818,
                "end_time": 23.252272727272725,
                "pitch": 27,
                "velocity": 101,
                "duration": 0.14545454545454461,
                "tempo": 120.0
            },
            {
                "start_time": 23.268181818181816,
                "end_time": 23.41590909090909,
                "pitch": 34,
                "velocity": 101,
                "duration": 0.14772727272727337,
                "tempo": 120.0
            },
            {
                "start_time": 23.43181818181818,
                "end_time": 23.581818181818182,
                "pitch": 39,
                "velocity": 101,
                "duration": 0.15000000000000213,
                "tempo": 120.0
            },
            {
                "start_time": 23.61590909090909,
                "end_time": 23.91590909090909,
                "pitch": 31,
                "velocity": 101,
                "duration": 0.3000000000000007,
                "tempo": 120.0
            },
            {
                "start_time": 23.95,
                "end_time": 24.084090909090907,
                "pitch": 36,
                "velocity": 101,
                "duration": 0.13409090909090793,
                "tempo": 120.0
            },
            {
                "start_time": 24.118181818181817,
                "end_time": 24.268181818181816,
                "pitch": 34,
                "velocity": 101,
                "duration": 0.14999999999999858,
                "tempo": 120.0
            },
            {
                "start_time": 24.286363636363635,
                "end_time": 24.436363636363634,
                "pitch": 33,
                "velocity": 101,
                "duration": 0.14999999999999858,
                "tempo": 120.0
            },
            {
                "start_time": 24.452272727272724,
                "end_time": 24.602272727272727,
                "pitch": 27,
                "velocity": 101,
                "duration": 0.15000000000000213,
                "tempo": 120.0
            },
            {
                "start_time": 24.636363636363637,
                "end_time": 24.770454545454545,
                "pitch": 34,
                "velocity": 101,
                "duration": 0.13409090909090793,
                "tempo": 120.0
            },
            {
                "start_time": 24.804545454545455,
                "end_time": 24.938636363636363,
                "pitch": 39,
                "velocity": 101,
                "duration": 0.13409090909090793,
                "tempo": 120.0
            },
            {
                "start_time": 24.970454545454544,
                "end_time": 25.288636363636364,
                "pitch": 31,
                "velocity": 101,
                "duration": 0.3181818181818201,
                "tempo": 120.0
            },
            {
                "start_time": 25.30681818181818,
                "end_time": 25.456818181818182,
                "pitch": 36,
                "velocity": 101,
                "duration": 0.15000000000000213,
                "tempo": 120.0
            },
            {
                "start_time": 25.472727272727273,
                "end_time": 25.620454545454542,
                "pitch": 34,
                "velocity": 101,
                "duration": 0.14772727272726982,
                "tempo": 120.0
            },
            {
                "start_time": 25.652272727272727,
                "end_time": 25.78181818181818,
                "pitch": 33,
                "velocity": 101,
                "duration": 0.12954545454545396,
                "tempo": 120.0
            },
            {
                "start_time": 25.81590909090909,
                "end_time": 25.952272727272724,
                "pitch": 27,
                "velocity": 101,
                "duration": 0.13636363636363313,
                "tempo": 120.0
            },
            {
                "start_time": 25.986363636363635,
                "end_time": 26.125,
                "pitch": 34,
                "velocity": 101,
                "duration": 0.13863636363636545,
                "tempo": 120.0
            },
            {
                "start_time": 26.159090909090907,
                "end_time": 26.311363636363634,
                "pitch": 39,
                "velocity": 101,
                "duration": 0.15227272727272734,
                "tempo": 120.0
            },
            {
                "start_time": 26.327272727272724,
                "end_time": 26.645454545454545,
                "pitch": 31,
                "velocity": 101,
                "duration": 0.3181818181818201,
                "tempo": 120.0
            },
            {
                "start_time": 26.679545454545455,
                "end_time": 26.813636363636363,
                "pitch": 36,
                "velocity": 101,
                "duration": 0.13409090909090793,
                "tempo": 120.0
            },
            {
                "start_time": 26.847727272727273,
                "end_time": 26.979545454545452,
                "pitch": 34,
                "velocity": 101,
                "duration": 0.13181818181817917,
                "tempo": 120.0
            },
            {
                "start_time": 27.013636363636362,
                "end_time": 27.163636363636364,
                "pitch": 33,
                "velocity": 101,
                "duration": 0.15000000000000213,
                "tempo": 120.0
            },
            {
                "start_time": 27.18181818181818,
                "end_time": 27.331818181818182,
                "pitch": 31,
                "velocity": 101,
                "duration": 0.15000000000000213,
                "tempo": 120.0
            },
            {
                "start_time": 27.349999999999998,
                "end_time": 27.5,
                "pitch": 38,
                "velocity": 101,
                "duration": 0.15000000000000213,
                "tempo": 120.0
            },
            {
                "start_time": 27.534090909090907,
                "end_time": 27.670454545454543,
                "pitch": 43,
                "velocity": 101,
                "duration": 0.1363636363636367,
                "tempo": 120.0
            },
            {
                "start_time": 27.704545454545453,
                "end_time": 28.00681818181818,
                "pitch": 36,
                "velocity": 101,
                "duration": 0.3022727272727259,
                "tempo": 120.0
            },
            {
                "start_time": 28.04090909090909,
                "end_time": 28.186363636363634,
                "pitch": 41,
                "velocity": 101,
                "duration": 0.14545454545454461,
                "tempo": 120.0
            },
            {
                "start_time": 28.202272727272724,
                "end_time": 28.349999999999998,
                "pitch": 39,
                "velocity": 101,
                "duration": 0.14772727272727337,
                "tempo": 120.0
            },
            {
                "start_time": 28.36590909090909,
                "end_time": 28.511363636363637,
                "pitch": 38,
                "velocity": 101,
                "duration": 0.14545454545454817,
                "tempo": 120.0
            },
            {
                "start_time": 28.545454545454543,
                "end_time": 28.68181818181818,
                "pitch": 31,
                "velocity": 101,
                "duration": 0.1363636363636367,
                "tempo": 120.0
            },
            {
                "start_time": 28.718181818181815,
                "end_time": 28.854545454545452,
                "pitch": 38,
                "velocity": 101,
                "duration": 0.1363636363636367,
                "tempo": 120.0
            },
            {
                "start_time": 28.888636363636362,
                "end_time": 29.02272727272727,
                "pitch": 43,
                "velocity": 101,
                "duration": 0.13409090909090793,
                "tempo": 120.0
            },
            {
                "start_time": 29.05681818181818,
                "end_time": 29.370454545454542,
                "pitch": 36,
                "velocity": 101,
                "duration": 0.3136363636363626,
                "tempo": 120.0
            },
            {
                "start_time": 29.386363636363637,
                "end_time": 29.534090909090907,
                "pitch": 41,
                "velocity": 101,
                "duration": 0.14772727272726982,
                "tempo": 120.0
            },
            {
                "start_time": 29.565909090909088,
                "end_time": 29.702272727272724,
                "pitch": 39,
                "velocity": 101,
                "duration": 0.1363636363636367,
                "tempo": 120.0
            },
            {
                "start_time": 29.738636363636363,
                "end_time": 29.875,
                "pitch": 38,
                "velocity": 101,
                "duration": 0.1363636363636367,
                "tempo": 120.0
            },
            {
                "start_time": 29.911363636363635,
                "end_time": 30.043181818181818,
                "pitch": 31,
                "velocity": 101,
                "duration": 0.13181818181818272,
                "tempo": 120.0
            },
            {
                "start_time": 30.077272727272724,
                "end_time": 30.229545454545452,
                "pitch": 38,
                "velocity": 101,
                "duration": 0.15227272727272734,
                "tempo": 120.0
            },
            {
                "start_time": 30.245454545454542,
                "end_time": 30.39090909090909,
                "pitch": 43,
                "velocity": 101,
                "duration": 0.14545454545454817,
                "tempo": 120.0
            },
            {
                "start_time": 30.409090909090907,
                "end_time": 30.724999999999998,
                "pitch": 36,
                "velocity": 101,
                "duration": 0.31590909090909136,
                "tempo": 120.0
            },
            {
                "start_time": 30.759090909090908,
                "end_time": 30.89772727272727,
                "pitch": 41,
                "velocity": 101,
                "duration": 0.1386363636363619,
                "tempo": 120.0
            },
            {
                "start_time": 30.93181818181818,
                "end_time": 31.061363636363634,
                "pitch": 39,
                "velocity": 101,
                "duration": 0.12954545454545396,
                "tempo": 120.0
            },
            {
                "start_time": 31.093181818181815,
                "end_time": 31.24090909090909,
                "pitch": 38,
                "velocity": 101,
                "duration": 0.14772727272727337,
                "tempo": 120.0
            },
            {
                "start_time": 31.25681818181818,
                "end_time": 31.40681818181818,
                "pitch": 31,
                "velocity": 101,
                "duration": 0.15000000000000213,
                "tempo": 120.0
            },
            {
                "start_time": 31.440909090909088,
                "end_time": 31.575,
                "pitch": 38,
                "velocity": 101,
                "duration": 0.13409090909091148,
                "tempo": 120.0
            },
            {
                "start_time": 31.609090909090906,
                "end_time": 31.745454545454542,
                "pitch": 43,
                "velocity": 101,
                "duration": 0.1363636363636367,
                "tempo": 120.0
            },
            {
                "start_time": 31.779545454545453,
                "end_time": 32.08181818181818,
                "pitch": 36,
                "velocity": 101,
                "duration": 0.3022727272727259,
                "tempo": 120.0
            },
            {
                "start_time": 32.11590909090909,
                "end_time": 32.26136363636363,
                "pitch": 41,
                "velocity": 101,
                "duration": 0.14545454545454106,
                "tempo": 120.0
            },
            {
                "start_time": 32.279545454545456,
                "end_time": 32.425,
                "pitch": 39,
                "velocity": 101,
                "duration": 0.14545454545454106,
                "tempo": 120.0
            },
            {
                "start_time": 32.45681818181818,
                "end_time": 32.586363636363636,
                "pitch": 38,
                "velocity": 101,
                "duration": 0.12954545454545752,
                "tempo": 120.0
            },
            {
                "start_time": 32.62272727272727,
                "end_time": 32.75681818181818,
                "pitch": 31,
                "velocity": 101,
                "duration": 0.13409090909091503,
                "tempo": 120.0
            },
            {
                "start_time": 32.793181818181814,
                "end_time": 32.929545454545455,
                "pitch": 38,
                "velocity": 101,
                "duration": 0.13636363636364024,
                "tempo": 120.0
            },
            {
                "start_time": 32.965909090909086,
                "end_time": 33.11590909090909,
                "pitch": 43,
                "velocity": 101,
                "duration": 0.15000000000000568,
                "tempo": 120.0
            },
            {
                "start_time": 33.13181818181818,
                "end_time": 33.449999999999996,
                "pitch": 36,
                "velocity": 101,
                "duration": 0.318181818181813,
                "tempo": 120.0
            },
            {
                "start_time": 33.48409090909091,
                "end_time": 33.61590909090909,
                "pitch": 41,
                "velocity": 101,
                "duration": 0.13181818181818272,
                "tempo": 120.0
            },
            {
                "start_time": 33.65,
                "end_time": 33.78409090909091,
                "pitch": 39,
                "velocity": 101,
                "duration": 0.13409090909090793,
                "tempo": 120.0
            },
            {
                "start_time": 33.81818181818181,
                "end_time": 33.95227272727273,
                "pitch": 38,
                "velocity": 101,
                "duration": 0.13409090909091503,
                "tempo": 120.0
            },
            {
                "start_time": 33.986363636363635,
                "end_time": 34.13636363636363,
                "pitch": 31,
                "velocity": 101,
                "duration": 0.14999999999999858,
                "tempo": 120.0
            },
            {
                "start_time": 34.152272727272724,
                "end_time": 34.304545454545455,
                "pitch": 38,
                "velocity": 101,
                "duration": 0.1522727272727309,
                "tempo": 120.0
            },
            {
                "start_time": 34.320454545454545,
                "end_time": 34.465909090909086,
                "pitch": 43,
                "velocity": 101,
                "duration": 0.14545454545454106,
                "tempo": 120.0
            },
            {
                "start_time": 34.5,
                "end_time": 34.8,
                "pitch": 36,
                "velocity": 101,
                "duration": 0.29999999999999716,
                "tempo": 120.0
            },
            {
                "start_time": 34.83409090909091,
                "end_time": 34.97272727272727,
                "pitch": 41,
                "velocity": 101,
                "duration": 0.13863636363635834,
                "tempo": 120.0
            },
            {
                "start_time": 35.00681818181818,
                "end_time": 35.152272727272724,
                "pitch": 39,
                "velocity": 101,
                "duration": 0.14545454545454106,
                "tempo": 120.0
            },
            {
                "start_time": 35.17045454545455,
                "end_time": 35.31590909090909,
                "pitch": 38,
                "velocity": 101,
                "duration": 0.14545454545454106,
                "tempo": 120.0
            },
            {
                "start_time": 35.33181818181818,
                "end_time": 35.48181818181818,
                "pitch": 31,
                "velocity": 101,
                "duration": 0.14999999999999858,
                "tempo": 120.0
            },
            {
                "start_time": 35.51590909090909,
                "end_time": 35.65,
                "pitch": 38,
                "velocity": 101,
                "duration": 0.13409090909090793,
                "tempo": 120.0
            },
            {
                "start_time": 35.684090909090905,
                "end_time": 35.820454545454545,
                "pitch": 43,
                "velocity": 101,
                "duration": 0.13636363636364024,
                "tempo": 120.0
            },
            {
                "start_time": 35.85681818181818,
                "end_time": 36.175,
                "pitch": 36,
                "velocity": 101,
                "duration": 0.3181818181818201,
                "tempo": 120.0
            },
            {
                "start_time": 36.19090909090909,
                "end_time": 36.336363636363636,
                "pitch": 41,
                "velocity": 101,
                "duration": 0.14545454545454817,
                "tempo": 120.0
            },
            {
                "start_time": 36.35454545454545,
                "end_time": 36.50454545454545,
                "pitch": 39,
                "velocity": 101,
                "duration": 0.14999999999999858,
                "tempo": 120.0
            },
            {
                "start_time": 36.53636363636363,
                "end_time": 36.67045454545455,
                "pitch": 38,
                "velocity": 101,
                "duration": 0.13409090909091503,
                "tempo": 120.0
            },
            {
                "start_time": 36.70454545454545,
                "end_time": 36.83863636363636,
                "pitch": 31,
                "velocity": 101,
                "duration": 0.13409090909090793,
                "tempo": 120.0
            },
            {
                "start_time": 36.87272727272727,
                "end_time": 37.00681818181818,
                "pitch": 38,
                "velocity": 101,
                "duration": 0.13409090909091503,
                "tempo": 120.0
            },
            {
                "start_time": 37.038636363636364,
                "end_time": 37.19090909090909,
                "pitch": 43,
                "velocity": 101,
                "duration": 0.15227272727272378,
                "tempo": 120.0
            },
            {
                "start_time": 37.20681818181818,
                "end_time": 37.529545454545456,
                "pitch": 36,
                "velocity": 101,
                "duration": 0.32272727272727764,
                "tempo": 120.0
            },
            {
                "start_time": 37.56363636363636,
                "end_time": 37.699999999999996,
                "pitch": 41,
                "velocity": 101,
                "duration": 0.13636363636363313,
                "tempo": 120.0
            },
            {
                "start_time": 37.736363636363635,
                "end_time": 37.86590909090909,
                "pitch": 39,
                "velocity": 101,
                "duration": 0.12954545454545752,
                "tempo": 120.0
            },
            {
                "start_time": 37.89772727272727,
                "end_time": 38.04545454545455,
                "pitch": 38,
                "velocity": 101,
                "duration": 0.14772727272727337,
                "tempo": 120.0
            },
            {
                "start_time": 38.06136363636364,
                "end_time": 38.211363636363636,
                "pitch": 31,
                "velocity": 101,
                "duration": 0.14999999999999858,
                "tempo": 120.0
            },
            {
                "start_time": 38.22727272727273,
                "end_time": 38.377272727272725,
                "pitch": 38,
                "velocity": 101,
                "duration": 0.14999999999999858,
                "tempo": 120.0
            },
            {
                "start_time": 38.41136363636363,
                "end_time": 38.55,
                "pitch": 43,
                "velocity": 101,
                "duration": 0.13863636363636545,
                "tempo": 120.0
            },
            {
                "start_time": 38.584090909090904,
                "end_time": 38.88636363636363,
                "pitch": 36,
                "velocity": 101,
                "duration": 0.30227272727272947,
                "tempo": 120.0
            },
            {
                "start_time": 38.918181818181814,
                "end_time": 39.06590909090909,
                "pitch": 41,
                "velocity": 101,
                "duration": 0.14772727272727337,
                "tempo": 120.0
            },
            {
                "start_time": 39.08181818181818,
                "end_time": 39.23181818181818,
                "pitch": 39,
                "velocity": 101,
                "duration": 0.14999999999999858,
                "tempo": 120.0
            },
            {
                "start_time": 39.25,
                "end_time": 39.4,
                "pitch": 38,
                "velocity": 101,
                "duration": 0.14999999999999858,
                "tempo": 120.0
            },
            {
                "start_time": 39.434090909090905,
                "end_time": 39.570454545454545,
                "pitch": 31,
                "velocity": 101,
                "duration": 0.13636363636364024,
                "tempo": 120.0
            },
            {
                "start_time": 39.60454545454545,
                "end_time": 39.74318181818182,
                "pitch": 38,
                "velocity": 101,
                "duration": 0.13863636363636545,
                "tempo": 120.0
            },
            {
                "start_time": 39.777272727272724,
                "end_time": 39.90909090909091,
                "pitch": 43,
                "velocity": 101,
                "duration": 0.13181818181818272,
                "tempo": 120.0
            },
            {
                "start_time": 39.94090909090909,
                "end_time": 40.25454545454545,
                "pitch": 36,
                "velocity": 101,
                "duration": 0.3136363636363626,
                "tempo": 120.0
            },
            {
                "start_time": 40.27045454545454,
                "end_time": 40.42045454545455,
                "pitch": 41,
                "velocity": 101,
                "duration": 0.15000000000000568,
                "tempo": 120.0
            },
            {
                "start_time": 40.45454545454545,
                "end_time": 40.58863636363636,
                "pitch": 39,
                "velocity": 101,
                "duration": 0.13409090909090793,
                "tempo": 120.0
            },
            {
                "start_time": 40.62272727272727,
                "end_time": 40.75681818181818,
                "pitch": 38,
                "velocity": 101,
                "duration": 0.13409090909091503,
                "tempo": 120.0
            },
            {
                "start_time": 40.79090909090909,
                "end_time": 40.92272727272727,
                "pitch": 31,
                "velocity": 101,
                "duration": 0.13181818181818272,
                "tempo": 120.0
            },
            {
                "start_time": 40.95681818181818,
                "end_time": 41.10681818181818,
                "pitch": 38,
                "velocity": 101,
                "duration": 0.14999999999999858,
                "tempo": 120.0
            },
            {
                "start_time": 41.125,
                "end_time": 41.27045454545454,
                "pitch": 43,
                "velocity": 101,
                "duration": 0.14545454545454106,
                "tempo": 120.0
            },
            {
                "start_time": 41.28636363636363,
                "end_time": 41.60227272727273,
                "pitch": 36,
                "velocity": 101,
                "duration": 0.3159090909090949,
                "tempo": 120.0
            },
            {
                "start_time": 41.63863636363636,
                "end_time": 41.775,
                "pitch": 41,
                "velocity": 101,
                "duration": 0.13636363636364024,
                "tempo": 120.0
            },
            {
                "start_time": 41.81136363636364,
                "end_time": 41.945454545454545,
                "pitch": 39,
                "velocity": 101,
                "duration": 0.13409090909090793,
                "tempo": 120.0
            },
            {
                "start_time": 41.97727272727273,
                "end_time": 42.127272727272725,
                "pitch": 38,
                "velocity": 101,
                "duration": 0.14999999999999858,
                "tempo": 120.0
            },
            {
                "start_time": 42.14545454545454,
                "end_time": 42.29090909090909,
                "pitch": 31,
                "velocity": 101,
                "duration": 0.14545454545454817,
                "tempo": 120.0
            },
            {
                "start_time": 42.324999999999996,
                "end_time": 42.45454545454545,
                "pitch": 38,
                "velocity": 101,
                "duration": 0.12954545454545752,
                "tempo": 120.0
            },
            {
                "start_time": 42.486363636363635,
                "end_time": 42.625,
                "pitch": 43,
                "velocity": 101,
                "duration": 0.13863636363636545,
                "tempo": 120.0
            },
            {
                "start_time": 42.65909090909091,
                "end_time": 42.97727272727273,
                "pitch": 36,
                "velocity": 101,
                "duration": 0.3181818181818201,
                "tempo": 120.0
            },
            {
                "start_time": 42.99545454545454,
                "end_time": 43.14090909090909,
                "pitch": 41,
                "velocity": 101,
                "duration": 0.14545454545454817,
                "tempo": 120.0
            },
            {
                "start_time": 43.15681818181818,
                "end_time": 43.30681818181818,
                "pitch": 39,
                "velocity": 101,
                "duration": 0.14999999999999858,
                "tempo": 120.0
            },
            {
                "start_time": 43.340909090909086,
                "end_time": 43.475,
                "pitch": 38,
                "velocity": 101,
                "duration": 0.13409090909091503,
                "tempo": 120.0
            },
            {
                "start_time": 43.50909090909091,
                "end_time": 43.64545454545454,
                "pitch": 27,
                "velocity": 101,
                "duration": 0.13636363636363313,
                "tempo": 120.0
            },
            {
                "start_time": 43.68181818181818,
                "end_time": 43.81818181818181,
                "pitch": 34,
                "velocity": 101,
                "duration": 0.13636363636363313,
                "tempo": 120.0
            },
            {
                "start_time": 43.85227272727273,
                "end_time": 43.99772727272727,
                "pitch": 39,
                "velocity": 101,
                "duration": 0.14545454545454106,
                "tempo": 120.0
            },
            {
                "start_time": 44.01590909090909,
                "end_time": 44.32954545454545,
                "pitch": 31,
                "velocity": 101,
                "duration": 0.3136363636363626,
                "tempo": 120.0
            },
            {
                "start_time": 44.361363636363635,
                "end_time": 44.49545454545454,
                "pitch": 36,
                "velocity": 101,
                "duration": 0.13409090909090793,
                "tempo": 120.0
            },
            {
                "start_time": 44.52954545454545,
                "end_time": 44.66590909090909,
                "pitch": 34,
                "velocity": 101,
                "duration": 0.13636363636364024,
                "tempo": 120.0
            },
            {
                "start_time": 44.70227272727273,
                "end_time": 44.83863636363636,
                "pitch": 33,
                "velocity": 101,
                "duration": 0.13636363636363313,
                "tempo": 120.0
            },
            {
                "start_time": 44.875,
                "end_time": 45.02045454545454,
                "pitch": 27,
                "velocity": 101,
                "duration": 0.14545454545454106,
                "tempo": 120.0
            },
            {
                "start_time": 45.03636363636363,
                "end_time": 45.18181818181818,
                "pitch": 34,
                "velocity": 101,
                "duration": 0.14545454545454817,
                "tempo": 120.0
            },
            {
                "start_time": 45.199999999999996,
                "end_time": 45.345454545454544,
                "pitch": 39,
                "velocity": 101,
                "duration": 0.14545454545454817,
                "tempo": 120.0
            },
            {
                "start_time": 45.37954545454545,
                "end_time": 45.679545454545455,
                "pitch": 31,
                "velocity": 101,
                "duration": 0.30000000000000426,
                "tempo": 120.0
            },
            {
                "start_time": 45.71363636363636,
                "end_time": 45.85227272727273,
                "pitch": 36,
                "velocity": 101,
                "duration": 0.13863636363636545,
                "tempo": 120.0
            },
            {
                "start_time": 45.88636363636363,
                "end_time": 46.03636363636363,
                "pitch": 34,
                "velocity": 101,
                "duration": 0.14999999999999858,
                "tempo": 120.0
            },
            {
                "start_time": 46.054545454545455,
                "end_time": 46.20454545454545,
                "pitch": 33,
                "velocity": 101,
                "duration": 0.14999999999999858,
                "tempo": 120.0
            },
            {
                "start_time": 46.220454545454544,
                "end_time": 46.37045454545454,
                "pitch": 27,
                "velocity": 101,
                "duration": 0.14999999999999858,
                "tempo": 120.0
            },
            {
                "start_time": 46.40454545454545,
                "end_time": 46.538636363636364,
                "pitch": 34,
                "velocity": 101,
                "duration": 0.13409090909091503,
                "tempo": 120.0
            },
            {
                "start_time": 46.57272727272727,
                "end_time": 46.70681818181818,
                "pitch": 39,
                "velocity": 101,
                "duration": 0.13409090909090793,
                "tempo": 120.0
            },
            {
                "start_time": 46.73863636363636,
                "end_time": 47.05681818181818,
                "pitch": 31,
                "velocity": 101,
                "duration": 0.3181818181818201,
                "tempo": 120.0
            },
            {
                "start_time": 47.074999999999996,
                "end_time": 47.224999999999994,
                "pitch": 36,
                "velocity": 101,
                "duration": 0.14999999999999858,
                "tempo": 120.0
            },
            {
                "start_time": 47.25909090909091,
                "end_time": 47.39545454545454,
                "pitch": 34,
                "velocity": 101,
                "duration": 0.13636363636363313,
                "tempo": 120.0
            },
            {
                "start_time": 47.429545454545455,
                "end_time": 47.56818181818181,
                "pitch": 33,
                "velocity": 101,
                "duration": 0.13863636363635834,
                "tempo": 120.0
            },
            {
                "start_time": 47.60227272727273,
                "end_time": 47.73409090909091,
                "pitch": 27,
                "velocity": 101,
                "duration": 0.13181818181818272,
                "tempo": 120.0
            },
            {
                "start_time": 47.76590909090909,
                "end_time": 47.91136363636363,
                "pitch": 34,
                "velocity": 101,
                "duration": 0.14545454545454106,
                "tempo": 120.0
            },
            {
                "start_time": 47.929545454545455,
                "end_time": 48.074999999999996,
                "pitch": 39,
                "velocity": 101,
                "duration": 0.14545454545454106,
                "tempo": 120.0
            },
            {
                "start_time": 48.090909090909086,
                "end_time": 48.40909090909091,
                "pitch": 31,
                "velocity": 101,
                "duration": 0.3181818181818201,
                "tempo": 120.0
            },
            {
                "start_time": 48.44318181818181,
                "end_time": 48.57954545454545,
                "pitch": 36,
                "velocity": 101,
                "duration": 0.13636363636364024,
                "tempo": 120.0
            },
            {
                "start_time": 48.61590909090909,
                "end_time": 48.75,
                "pitch": 34,
                "velocity": 101,
                "duration": 0.13409090909090793,
                "tempo": 120.0
            },
            {
                "start_time": 48.78409090909091,
                "end_time": 48.934090909090905,
                "pitch": 33,
                "velocity": 101,
                "duration": 0.14999999999999858,
                "tempo": 120.0
            },
            {
                "start_time": 48.949999999999996,
                "end_time": 49.095454545454544,
                "pitch": 31,
                "velocity": 101,
                "duration": 0.14545454545454817,
                "tempo": 120.0
            },
            {
                "start_time": 49.11363636363636,
                "end_time": 49.25909090909091,
                "pitch": 38,
                "velocity": 101,
                "duration": 0.14545454545454817,
                "tempo": 120.0
            },
            {
                "start_time": 49.293181818181814,
                "end_time": 49.429545454545455,
                "pitch": 43,
                "velocity": 101,
                "duration": 0.13636363636364024,
                "tempo": 120.0
            },
            {
                "start_time": 49.46363636363636,
                "end_time": 49.76590909090909,
                "pitch": 36,
                "velocity": 101,
                "duration": 0.30227272727272947,
                "tempo": 120.0
            },
            {
                "start_time": 49.79772727272727,
                "end_time": 49.945454545454545,
                "pitch": 41,
                "velocity": 101,
                "duration": 0.14772727272727337,
                "tempo": 120.0
            },
            {
                "start_time": 49.961363636363636,
                "end_time": 50.111363636363635,
                "pitch": 39,
                "velocity": 101,
                "duration": 0.14999999999999858,
                "tempo": 120.0
            },
            {
                "start_time": 50.12954545454545,
                "end_time": 50.27954545454545,
                "pitch": 38,
                "velocity": 101,
                "duration": 0.14999999999999858,
                "tempo": 120.0
            },
            {
                "start_time": 50.31363636363636,
                "end_time": 50.449999999999996,
                "pitch": 31,
                "velocity": 101,
                "duration": 0.13636363636363313,
                "tempo": 120.0
            },
            {
                "start_time": 50.486363636363635,
                "end_time": 50.62272727272727,
                "pitch": 38,
                "velocity": 101,
                "duration": 0.13636363636363313,
                "tempo": 120.0
            },
            {
                "start_time": 50.65681818181818,
                "end_time": 50.78636363636363,
                "pitch": 43,
                "velocity": 101,
                "duration": 0.1295454545454504,
                "tempo": 120.0
            },
            {
                "start_time": 50.820454545454545,
                "end_time": 51.13409090909091,
                "pitch": 36,
                "velocity": 101,
                "duration": 0.3136363636363626,
                "tempo": 120.0
            },
            {
                "start_time": 51.15,
                "end_time": 51.3,
                "pitch": 41,
                "velocity": 101,
                "duration": 0.14999999999999858,
                "tempo": 120.0
            },
            {
                "start_time": 51.334090909090904,
                "end_time": 51.470454545454544,
                "pitch": 39,
                "velocity": 101,
                "duration": 0.13636363636364024,
                "tempo": 120.0
            },
            {
                "start_time": 51.50681818181818,
                "end_time": 51.643181818181816,
                "pitch": 38,
                "velocity": 101,
                "duration": 0.13636363636363313,
                "tempo": 120.0
            },
            {
                "start_time": 51.679545454545455,
                "end_time": 51.809090909090905,
                "pitch": 31,
                "velocity": 101,
                "duration": 0.1295454545454504,
                "tempo": 120.0
            },
            {
                "start_time": 51.840909090909086,
                "end_time": 51.98863636363636,
                "pitch": 38,
                "velocity": 101,
                "duration": 0.14772727272727337,
                "tempo": 120.0
            },
            {
                "start_time": 52.00454545454545,
                "end_time": 52.15454545454545,
                "pitch": 43,
                "velocity": 101,
                "duration": 0.14999999999999858,
                "tempo": 120.0
            },
            {
                "start_time": 52.18863636363636,
                "end_time": 52.48863636363636,
                "pitch": 36,
                "velocity": 101,
                "duration": 0.29999999999999716,
                "tempo": 120.0
            },
            {
                "start_time": 52.52272727272727,
                "end_time": 52.65681818181818,
                "pitch": 41,
                "velocity": 101,
                "duration": 0.13409090909090793,
                "tempo": 120.0
            },
            {
                "start_time": 52.69090909090909,
                "end_time": 52.840909090909086,
                "pitch": 39,
                "velocity": 101,
                "duration": 0.14999999999999858,
                "tempo": 120.0
            },
            {
                "start_time": 52.85681818181818,
                "end_time": 53.00909090909091,
                "pitch": 38,
                "velocity": 101,
                "duration": 0.1522727272727309,
                "tempo": 120.0
            },
            {
                "start_time": 53.025,
                "end_time": 53.175,
                "pitch": 31,
                "velocity": 101,
                "duration": 0.14999999999999858,
                "tempo": 120.0
            },
            {
                "start_time": 53.209090909090904,
                "end_time": 53.34318181818182,
                "pitch": 38,
                "velocity": 101,
                "duration": 0.13409090909091503,
                "tempo": 120.0
            },
            {
                "start_time": 53.377272727272725,
                "end_time": 53.50909090909091,
                "pitch": 43,
                "velocity": 101,
                "duration": 0.13181818181818272,
                "tempo": 120.0
            },
            {
                "start_time": 53.543181818181814,
                "end_time": 53.861363636363635,
                "pitch": 36,
                "velocity": 101,
                "duration": 0.3181818181818201,
                "tempo": 120.0
            },
            {
                "start_time": 53.87954545454545,
                "end_time": 54.02954545454545,
                "pitch": 41,
                "velocity": 101,
                "duration": 0.14999999999999858,
                "tempo": 120.0
            },
            {
                "start_time": 54.04545454545454,
                "end_time": 54.19090909090909,
                "pitch": 39,
                "velocity": 101,
                "duration": 0.14545454545454817,
                "tempo": 120.0
            },
            {
                "start_time": 54.224999999999994,
                "end_time": 54.35454545454545,
                "pitch": 38,
                "velocity": 101,
                "duration": 0.12954545454545752,
                "tempo": 120.0
            },
            {
                "start_time": 54.38863636363636,
                "end_time": 54.525,
                "pitch": 36,
                "velocity": 101,
                "duration": 0.13636363636364024,
                "tempo": 120.0
            },
            {
                "start_time": 54.559090909090905,
                "end_time": 54.69772727272727,
                "pitch": 43,
                "velocity": 101,
                "duration": 0.13863636363636545,
                "tempo": 120.0
            },
            {
                "start_time": 54.73181818181818,
                "end_time": 54.881818181818176,
                "pitch": 48,
                "velocity": 101,
                "duration": 0.14999999999999858,
                "tempo": 120.0
            },
            {
                "start_time": 54.9,
                "end_time": 55.21363636363636,
                "pitch": 39,
                "velocity": 101,
                "duration": 0.3136363636363626,
                "tempo": 120.0
            },
            {
                "start_time": 55.24545454545454,
                "end_time": 55.375,
                "pitch": 43,
                "velocity": 101,
                "duration": 0.12954545454545752,
                "tempo": 120.0
            },
            {
                "start_time": 55.40909090909091,
                "end_time": 55.54545454545454,
                "pitch": 48,
                "velocity": 101,
                "duration": 0.13636363636363313,
                "tempo": 120.0
            },
            {
                "start_time": 55.58181818181818,
                "end_time": 55.71818181818182,
                "pitch": 43,
                "velocity": 101,
                "duration": 0.13636363636364024,
                "tempo": 120.0
            },
            {
                "start_time": 55.75454545454545,
                "end_time": 55.90454545454545,
                "pitch": 36,
                "velocity": 101,
                "duration": 0.14999999999999858,
                "tempo": 120.0
            },
            {
                "start_time": 55.92045454545454,
                "end_time": 56.070454545454545,
                "pitch": 43,
                "velocity": 101,
                "duration": 0.15000000000000568,
                "tempo": 120.0
            },
            {
                "start_time": 56.08863636363636,
                "end_time": 56.23409090909091,
                "pitch": 48,
                "velocity": 101,
                "duration": 0.14545454545454817,
                "tempo": 120.0
            },
            {
                "start_time": 56.268181818181816,
                "end_time": 56.56818181818181,
                "pitch": 39,
                "velocity": 101,
                "duration": 0.29999999999999716,
                "tempo": 120.0
            },
            {
                "start_time": 56.60227272727273,
                "end_time": 56.740909090909085,
                "pitch": 43,
                "velocity": 101,
                "duration": 0.13863636363635834,
                "tempo": 120.0
            },
            {
                "start_time": 56.775,
                "end_time": 56.92045454545454,
                "pitch": 48,
                "velocity": 101,
                "duration": 0.14545454545454106,
                "tempo": 120.0
            },
            {
                "start_time": 56.93863636363636,
                "end_time": 57.084090909090904,
                "pitch": 43,
                "velocity": 101,
                "duration": 0.14545454545454106,
                "tempo": 120.0
            },
            {
                "start_time": 57.115909090909085,
                "end_time": 57.25454545454545,
                "pitch": 29,
                "velocity": 101,
                "duration": 0.13863636363636545,
                "tempo": 120.0
            },
            {
                "start_time": 57.288636363636364,
                "end_time": 57.42727272727272,
                "pitch": 36,
                "velocity": 101,
                "duration": 0.13863636363635834,
                "tempo": 120.0
            },
            {
                "start_time": 57.461363636363636,
                "end_time": 57.595454545454544,
                "pitch": 41,
                "velocity": 101,
                "duration": 0.13409090909090793,
                "tempo": 120.0
            },
            {
                "start_time": 57.627272727272725,
                "end_time": 57.94090909090909,
                "pitch": 33,
                "velocity": 101,
                "duration": 0.3136363636363626,
                "tempo": 120.0
            },
            {
                "start_time": 57.959090909090904,
                "end_time": 58.10454545454545,
                "pitch": 36,
                "velocity": 101,
                "duration": 0.14545454545454817,
                "tempo": 120.0
            },
            {
                "start_time": 58.13636363636363,
                "end_time": 58.275,
                "pitch": 39,
                "velocity": 101,
                "duration": 0.13863636363636545,
                "tempo": 120.0
            },
            {
                "start_time": 58.309090909090905,
                "end_time": 58.44772727272727,
                "pitch": 36,
                "velocity": 101,
                "duration": 0.13863636363636545,
                "tempo": 120.0
            },
            {
                "start_time": 58.48181818181818,
                "end_time": 58.611363636363635,
                "pitch": 29,
                "velocity": 101,
                "duration": 0.12954545454545752,
                "tempo": 120.0
            },
            {
                "start_time": 58.64545454545454,
                "end_time": 58.79090909090909,
                "pitch": 36,
                "velocity": 101,
                "duration": 0.14545454545454817,
                "tempo": 120.0
            },
            {
                "start_time": 58.80681818181818,
                "end_time": 58.95681818181818,
                "pitch": 41,
                "velocity": 101,
                "duration": 0.14999999999999858,
                "tempo": 120.0
            },
            {
                "start_time": 58.974999999999994,
                "end_time": 59.29545454545454,
                "pitch": 33,
                "velocity": 101,
                "duration": 0.3204545454545453,
                "tempo": 120.0
            },
            {
                "start_time": 59.33181818181818,
                "end_time": 59.46818181818182,
                "pitch": 36,
                "velocity": 101,
                "duration": 0.13636363636364024,
                "tempo": 120.0
            },
            {
                "start_time": 59.50454545454545,
                "end_time": 59.63409090909091,
                "pitch": 39,
                "velocity": 101,
                "duration": 0.12954545454545752,
                "tempo": 120.0
            },
            {
                "start_time": 59.66590909090909,
                "end_time": 59.81363636363636,
                "pitch": 36,
                "velocity": 101,
                "duration": 0.14772727272727337,
                "tempo": 120.0
            },
            {
                "start_time": 59.82954545454545,
                "end_time": 59.97954545454545,
                "pitch": 38,
                "velocity": 101,
                "duration": 0.14999999999999858,
                "tempo": 120.0
            },
            {
                "start_time": 59.99545454545454,
                "end_time": 60.14545454545454,
                "pitch": 45,
                "velocity": 101,
                "duration": 0.14999999999999858,
                "tempo": 120.0
            },
            {
                "start_time": 60.179545454545455,
                "end_time": 60.31818181818181,
                "pitch": 50,
                "velocity": 101,
                "duration": 0.13863636363635834,
                "tempo": 120.0
            },
            {
                "start_time": 60.35227272727273,
                "end_time": 60.65454545454545,
                "pitch": 42,
                "velocity": 101,
                "duration": 0.30227272727272236,
                "tempo": 120.0
            },
            {
                "start_time": 60.68636363636363,
                "end_time": 60.834090909090904,
                "pitch": 48,
                "velocity": 101,
                "duration": 0.14772727272727337,
                "tempo": 120.0
            },
            {
                "start_time": 60.849999999999994,
                "end_time": 60.99545454545454,
                "pitch": 46,
                "velocity": 101,
                "duration": 0.14545454545454817,
                "tempo": 120.0
            },
            {
                "start_time": 61.01363636363636,
                "end_time": 61.15909090909091,
                "pitch": 45,
                "velocity": 101,
                "duration": 0.14545454545454817,
                "tempo": 120.0
            },
            {
                "start_time": 61.19318181818181,
                "end_time": 61.32954545454545,
                "pitch": 38,
                "velocity": 101,
                "duration": 0.13636363636364024,
                "tempo": 120.0
            },
            {
                "start_time": 61.36363636363636,
                "end_time": 61.502272727272725,
                "pitch": 45,
                "velocity": 101,
                "duration": 0.13863636363636545,
                "tempo": 120.0
            },
            {
                "start_time": 61.53636363636363,
                "end_time": 61.67045454545454,
                "pitch": 50,
                "velocity": 101,
                "duration": 0.13409090909090793,
                "tempo": 120.0
            },
            {
                "start_time": 61.70454545454545,
                "end_time": 62.018181818181816,
                "pitch": 42,
                "velocity": 101,
                "duration": 0.3136363636363626,
                "tempo": 120.0
            },
            {
                "start_time": 62.03409090909091,
                "end_time": 62.179545454545455,
                "pitch": 48,
                "velocity": 101,
                "duration": 0.14545454545454817,
                "tempo": 120.0
            },
            {
                "start_time": 62.21363636363636,
                "end_time": 62.349999999999994,
                "pitch": 46,
                "velocity": 101,
                "duration": 0.13636363636363313,
                "tempo": 120.0
            },
            {
                "start_time": 62.38636363636363,
                "end_time": 62.522727272727266,
                "pitch": 45,
                "velocity": 101,
                "duration": 0.13636363636363313,
                "tempo": 120.0
            },
            {
                "start_time": 62.559090909090905,
                "end_time": 62.69090909090909,
                "pitch": 31,
                "velocity": 101,
                "duration": 0.13181818181818272,
                "tempo": 120.0
            },
            {
                "start_time": 62.724999999999994,
                "end_time": 62.875,
                "pitch": 38,
                "velocity": 101,
                "duration": 0.15000000000000568,
                "tempo": 120.0
            },
            {
                "start_time": 62.893181818181816,
                "end_time": 63.038636363636364,
                "pitch": 43,
                "velocity": 101,
                "duration": 0.14545454545454817,
                "tempo": 120.0
            },
            {
                "start_time": 63.07272727272727,
                "end_time": 63.37272727272727,
                "pitch": 34,
                "velocity": 101,
                "duration": 0.29999999999999716,
                "tempo": 120.0
            },
            {
                "start_time": 63.40681818181818,
                "end_time": 63.543181818181814,
                "pitch": 39,
                "velocity": 101,
                "duration": 0.13636363636363313,
                "tempo": 120.0
            },
            {
                "start_time": 63.57954545454545,
                "end_time": 63.724999999999994,
                "pitch": 34,
                "velocity": 101,
                "duration": 0.14545454545454106,
                "tempo": 120.0
            },
            {
                "start_time": 63.740909090909085,
                "end_time": 63.88863636363636,
                "pitch": 31,
                "velocity": 101,
                "duration": 0.14772727272727337,
                "tempo": 120.0
            },
            {
                "start_time": 63.90454545454545,
                "end_time": 64.05454545454545,
                "pitch": 31,
                "velocity": 101,
                "duration": 0.14999999999999858,
                "tempo": 120.0
            },
            {
                "start_time": 64.08863636363635,
                "end_time": 64.22045454545454,
                "pitch": 38,
                "velocity": 101,
                "duration": 0.13181818181818983,
                "tempo": 120.0
            },
            {
                "start_time": 64.25454545454545,
                "end_time": 64.39318181818182,
                "pitch": 43,
                "velocity": 101,
                "duration": 0.13863636363636545,
                "tempo": 120.0
            },
            {
                "start_time": 64.42727272727272,
                "end_time": 64.74545454545454,
                "pitch": 34,
                "velocity": 101,
                "duration": 0.318181818181813,
                "tempo": 120.0
            },
            {
                "start_time": 64.76363636363637,
                "end_time": 64.9090909090909,
                "pitch": 39,
                "velocity": 101,
                "duration": 0.14545454545454106,
                "tempo": 120.0
            },
            {
                "start_time": 64.925,
                "end_time": 65.075,
                "pitch": 34,
                "velocity": 101,
                "duration": 0.15000000000000568,
                "tempo": 120.0
            },
            {
                "start_time": 65.10909090909091,
                "end_time": 65.24318181818181,
                "pitch": 31,
                "velocity": 101,
                "duration": 0.13409090909090082,
                "tempo": 120.0
            },
            {
                "start_time": 65.27727272727273,
                "end_time": 65.41136363636363,
                "pitch": 36,
                "velocity": 101,
                "duration": 0.13409090909090082,
                "tempo": 120.0
            },
            {
                "start_time": 65.44545454545454,
                "end_time": 65.57727272727273,
                "pitch": 43,
                "velocity": 101,
                "duration": 0.13181818181818983,
                "tempo": 120.0
            },
            {
                "start_time": 65.61136363636363,
                "end_time": 65.76136363636364,
                "pitch": 48,
                "velocity": 101,
                "duration": 0.15000000000000568,
                "tempo": 120.0
            },
            {
                "start_time": 65.77954545454546,
                "end_time": 66.09318181818182,
                "pitch": 39,
                "velocity": 101,
                "duration": 0.3136363636363626,
                "tempo": 120.0
            },
            {
                "start_time": 66.125,
                "end_time": 66.25454545454545,
                "pitch": 43,
                "velocity": 101,
                "duration": 0.1295454545454504,
                "tempo": 120.0
            },
            {
                "start_time": 66.28863636363636,
                "end_time": 66.425,
                "pitch": 48,
                "velocity": 101,
                "duration": 0.13636363636364024,
                "tempo": 120.0
            },
            {
                "start_time": 66.4590909090909,
                "end_time": 66.59772727272727,
                "pitch": 43,
                "velocity": 101,
                "duration": 0.13863636363636545,
                "tempo": 120.0
            },
            {
                "start_time": 66.6340909090909,
                "end_time": 66.7840909090909,
                "pitch": 36,
                "velocity": 101,
                "duration": 0.15000000000000568,
                "tempo": 120.0
            },
            {
                "start_time": 66.8,
                "end_time": 66.95,
                "pitch": 43,
                "velocity": 101,
                "duration": 0.15000000000000568,
                "tempo": 120.0
            },
            {
                "start_time": 66.96818181818182,
                "end_time": 67.11363636363636,
                "pitch": 48,
                "velocity": 101,
                "duration": 0.14545454545454106,
                "tempo": 120.0
            },
            {
                "start_time": 67.14545454545454,
                "end_time": 67.44772727272726,
                "pitch": 39,
                "velocity": 101,
                "duration": 0.30227272727272236,
                "tempo": 120.0
            },
            {
                "start_time": 67.48181818181818,
                "end_time": 67.61818181818181,
                "pitch": 43,
                "velocity": 101,
                "duration": 0.13636363636362603,
                "tempo": 120.0
            },
            {
                "start_time": 67.65454545454546,
                "end_time": 67.80454545454545,
                "pitch": 48,
                "velocity": 101,
                "duration": 0.14999999999999147,
                "tempo": 120.0
            },
            {
                "start_time": 67.82045454545454,
                "end_time": 67.97272727272727,
                "pitch": 43,
                "velocity": 101,
                "duration": 0.1522727272727309,
                "tempo": 120.0
            },
            {
                "start_time": 68.00681818181818,
                "end_time": 68.14318181818182,
                "pitch": 29,
                "velocity": 101,
                "duration": 0.13636363636364024,
                "tempo": 120.0
            },
            {
                "start_time": 68.17727272727272,
                "end_time": 68.31590909090909,
                "pitch": 36,
                "velocity": 101,
                "duration": 0.13863636363636545,
                "tempo": 120.0
            },
            {
                "start_time": 68.35,
                "end_time": 68.47954545454544,
                "pitch": 41,
                "velocity": 101,
                "duration": 0.1295454545454504,
                "tempo": 120.0
            },
            {
                "start_time": 68.51363636363637,
                "end_time": 68.825,
                "pitch": 33,
                "velocity": 101,
                "duration": 0.3113636363636374,
                "tempo": 120.0
            },
            {
                "start_time": 68.84318181818182,
                "end_time": 68.99318181818181,
                "pitch": 36,
                "velocity": 101,
                "duration": 0.14999999999999147,
                "tempo": 120.0
            },
            {
                "start_time": 69.02727272727273,
                "end_time": 69.1590909090909,
                "pitch": 39,
                "velocity": 101,
                "duration": 0.13181818181817562,
                "tempo": 120.0
            },
            {
                "start_time": 69.19318181818181,
                "end_time": 69.32727272727273,
                "pitch": 36,
                "velocity": 101,
                "duration": 0.13409090909091503,
                "tempo": 120.0
            },
            {
                "start_time": 69.36136363636363,
                "end_time": 69.49545454545454,
                "pitch": 29,
                "velocity": 101,
                "duration": 0.13409090909090082,
                "tempo": 120.0
            },
            {
                "start_time": 69.52954545454546,
                "end_time": 69.67954545454545,
                "pitch": 36,
                "velocity": 101,
                "duration": 0.14999999999999147,
                "tempo": 120.0
            },
            {
                "start_time": 69.69545454545454,
                "end_time": 69.84318181818182,
                "pitch": 41,
                "velocity": 101,
                "duration": 0.14772727272728048,
                "tempo": 120.0
            },
            {
                "start_time": 69.85909090909091,
                "end_time": 70.175,
                "pitch": 33,
                "velocity": 101,
                "duration": 0.3159090909090878,
                "tempo": 120.0
            },
            {
                "start_time": 70.21136363636363,
                "end_time": 70.34772727272727,
                "pitch": 36,
                "velocity": 101,
                "duration": 0.13636363636364024,
                "tempo": 120.0
            },
            {
                "start_time": 70.3840909090909,
                "end_time": 70.51590909090909,
                "pitch": 39,
                "velocity": 101,
                "duration": 0.13181818181818983,
                "tempo": 120.0
            },
            {
                "start_time": 70.55,
                "end_time": 70.7,
                "pitch": 36,
                "velocity": 101,
                "duration": 0.15000000000000568,
                "tempo": 120.0
            },
            {
                "start_time": 70.71818181818182,
                "end_time": 70.86363636363636,
                "pitch": 38,
                "velocity": 101,
                "duration": 0.14545454545454106,
                "tempo": 120.0
            },
            {
                "start_time": 70.87954545454545,
                "end_time": 71.02727272727273,
                "pitch": 45,
                "velocity": 101,
                "duration": 0.14772727272728048,
                "tempo": 120.0
            },
            {
                "start_time": 71.05909090909091,
                "end_time": 71.19545454545454,
                "pitch": 50,
                "velocity": 101,
                "duration": 0.13636363636362603,
                "tempo": 120.0
            },
            {
                "start_time": 71.23181818181818,
                "end_time": 71.5340909090909,
                "pitch": 42,
                "velocity": 101,
                "duration": 0.30227272727272236,
                "tempo": 120.0
            },
            {
                "start_time": 71.56590909090909,
                "end_time": 71.71136363636363,
                "pitch": 48,
                "velocity": 101,
                "duration": 0.14545454545454106,
                "tempo": 120.0
            },
            {
                "start_time": 71.72954545454544,
                "end_time": 71.87954545454545,
                "pitch": 46,
                "velocity": 101,
                "duration": 0.15000000000000568,
                "tempo": 120.0
            },
            {
                "start_time": 71.89545454545454,
                "end_time": 72.04545454545455,
                "pitch": 45,
                "velocity": 101,
                "duration": 0.15000000000000568,
                "tempo": 120.0
            },
            {
                "start_time": 72.07954545454545,
                "end_time": 72.21818181818182,
                "pitch": 38,
                "velocity": 101,
                "duration": 0.13863636363636545,
                "tempo": 120.0
            },
            {
                "start_time": 72.25227272727273,
                "end_time": 72.39090909090909,
                "pitch": 45,
                "velocity": 101,
                "duration": 0.13863636363636545,
                "tempo": 120.0
            },
            {
                "start_time": 72.425,
                "end_time": 72.55454545454545,
                "pitch": 50,
                "velocity": 101,
                "duration": 0.1295454545454504,
                "tempo": 120.0
            },
            {
                "start_time": 72.58636363636363,
                "end_time": 72.89999999999999,
                "pitch": 42,
                "velocity": 101,
                "duration": 0.3136363636363626,
                "tempo": 120.0
            },
            {
                "start_time": 72.93409090909091,
                "end_time": 73.06818181818181,
                "pitch": 48,
                "velocity": 101,
                "duration": 0.13409090909090082,
                "tempo": 120.0
            },
            {
                "start_time": 73.10227272727272,
                "end_time": 73.23863636363636,
                "pitch": 46,
                "velocity": 101,
                "duration": 0.13636363636364024,
                "tempo": 120.0
            },
            {
                "start_time": 73.27272727272727,
                "end_time": 73.41136363636363,
                "pitch": 45,
                "velocity": 101,
                "duration": 0.13863636363636545,
                "tempo": 120.0
            },
            {
                "start_time": 73.44545454545454,
                "end_time": 73.59318181818182,
                "pitch": 38,
                "velocity": 101,
                "duration": 0.14772727272728048,
                "tempo": 120.0
            },
            {
                "start_time": 73.60909090909091,
                "end_time": 73.75454545454545,
                "pitch": 45,
                "velocity": 101,
                "duration": 0.14545454545454106,
                "tempo": 120.0
            },
            {
                "start_time": 73.77272727272727,
                "end_time": 73.92272727272727,
                "pitch": 50,
                "velocity": 101,
                "duration": 0.15000000000000568,
                "tempo": 120.0
            },
            {
                "start_time": 73.95454545454545,
                "end_time": 74.25681818181818,
                "pitch": 42,
                "velocity": 101,
                "duration": 0.30227272727272236,
                "tempo": 120.0
            },
            {
                "start_time": 74.29090909090908,
                "end_time": 74.425,
                "pitch": 48,
                "velocity": 101,
                "duration": 0.13409090909091503,
                "tempo": 120.0
            },
            {
                "start_time": 74.45681818181818,
                "end_time": 74.60681818181818,
                "pitch": 46,
                "velocity": 101,
                "duration": 0.15000000000000568,
                "tempo": 120.0
            },
            {
                "start_time": 74.625,
                "end_time": 74.77499999999999,
                "pitch": 45,
                "velocity": 101,
                "duration": 0.14999999999999147,
                "tempo": 120.0
            },
            {
                "start_time": 74.79318181818182,
                "end_time": 74.93863636363636,
                "pitch": 38,
                "velocity": 101,
                "duration": 0.14545454545454106,
                "tempo": 120.0
            },
            {
                "start_time": 74.97045454545454,
                "end_time": 75.10227272727272,
                "pitch": 45,
                "velocity": 101,
                "duration": 0.13181818181817562,
                "tempo": 120.0
            },
            {
                "start_time": 75.1340909090909,
                "end_time": 75.27045454545454,
                "pitch": 50,
                "velocity": 101,
                "duration": 0.13636363636364024,
                "tempo": 120.0
            },
            {
                "start_time": 75.30681818181817,
                "end_time": 75.625,
                "pitch": 42,
                "velocity": 101,
                "duration": 0.3181818181818272,
                "tempo": 120.0
            },
            {
                "start_time": 75.64090909090909,
                "end_time": 75.78636363636363,
                "pitch": 48,
                "velocity": 101,
                "duration": 0.14545454545454106,
                "tempo": 120.0
            },
            {
                "start_time": 75.80454545454545,
                "end_time": 75.95454545454545,
                "pitch": 46,
                "velocity": 101,
                "duration": 0.15000000000000568,
                "tempo": 120.0
            },
            {
                "start_time": 75.98863636363636,
                "end_time": 76.12272727272727,
                "pitch": 45,
                "velocity": 101,
                "duration": 0.13409090909091503,
                "tempo": 120.0
            },
            {
                "start_time": 76.15681818181818,
                "end_time": 76.24318181818181,
                "pitch": 31,
                "velocity": 101,
                "duration": 0.08636363636362887,
                "tempo": 120.0
            }
        ]
    }
}